<svg version="1.1" xmlns="http://www.w3.org/2000/svg" xmlns:xlink="http://www.w3.org/1999/xlink" width="491.0258" height="365.81859" viewBox="0,0,491.0258,365.81859"><g transform="translate(5.26916,2.90916)"><g data-paper-data="{&quot;isPaintingLayer&quot;:true}" fill-rule="nonzero" stroke-linecap="butt" stroke-linejoin="miter" stroke-miterlimit="10" stroke-dasharray="" stroke-dashoffset="0" style="mix-blend-mode: normal"><path d="M-4.5092,362.90943v-365.81859l489.01855,0v365.81859z" fill-opacity="0.57255" fill="#33404f" stroke="none" stroke-width="0"/><path d="M16.20916,153.49471c0,-9.96724 0,-25.163 0,-30.76349c0,-4.12206 4.74867,-9.13836 10.0527,-9.13836c16.77424,0 398.12074,0 427.42572,0c5.85731,0 9.31551,4.88115 9.31551,8.9262c0,5.28176 0,20.13245 0,30.12699c0,6.25216 -3.75007,10.08746 -10.05425,10.08746c-30.03816,0 -410.05135,0 -426.68696,0c-5.30403,0 -10.0527,-3.85731 -10.0527,-9.23881z" fill-opacity="0.2902" fill="#ececec" stroke="none" stroke-width="0"/><path d="M485.75663,71.005l-491.0258,0v-72.77235l491.0258,0z" fill-opacity="0.68627" fill="#dcdcdc" stroke="none" stroke-width="0"/><text transform="translate(136.81581,49.96118) scale(1.0536,1.0536)" font-size="40" xml:space="preserve" fill="#ffffff" fill-rule="nonzero" stroke="#ffffff" stroke-width="2" stroke-linecap="butt" stroke-linejoin="miter" stroke-miterlimit="10" stroke-dasharray="" stroke-dashoffset="0" font-family="Sans Serif" font-weight="normal" text-anchor="start" style="mix-blend-mode: normal"><tspan x="0" dy="0">SETTINGS</tspan></text><path d="M16.20916,192.87405c0,-4.12206 4.74867,-9.13836 10.0527,-9.13836c16.77424,0 398.12074,0 427.42572,0c5.85731,0 9.31551,4.88115 9.31551,8.9262c0,5.28176 0,128.22854 0,138.22308c0,6.25216 -3.75007,10.08746 -10.05425,10.08746c-30.03816,0 -410.05135,0 -426.68696,0c-5.30403,0 -10.0527,-3.85731 -10.0527,-9.23881c0,0 -0.00002,-133.25907 -0.00002,-138.85956z" fill-opacity="0.2902" fill="#ececec" stroke="none" stroke-width="0"/><text transform="translate(36.93157,218.47401) scale(0.52954,0.52954)" font-size="40" xml:space="preserve" fill="#ffffff" fill-rule="nonzero" stroke="#ffffff" stroke-width="2" stroke-linecap="butt" stroke-linejoin="miter" stroke-miterlimit="10" stroke-dasharray="" stroke-dashoffset="0" font-family="Sans Serif" font-weight="normal" text-anchor="start" style="mix-blend-mode: normal"><tspan x="0" dy="0">WIDESCEEN MODE</tspan></text><text transform="translate(36.93157,145.825) scale(0.52955,0.52955)" font-size="40" xml:space="preserve" fill="#ffffff" fill-rule="nonzero" stroke="#ffffff" stroke-width="2" stroke-linecap="butt" stroke-linejoin="miter" stroke-miterlimit="10" stroke-dasharray="" stroke-dashoffset="0" font-family="Sans Serif" font-weight="normal" text-anchor="start" style="mix-blend-mode: normal"><tspan x="0" dy="0">MUSIC WHEN DRIVING</tspan></text><text transform="translate(35.65188,241.38863) scale(0.28989,0.28989)" font-size="40" xml:space="preserve" fill="#ffffff" fill-rule="nonzero" stroke="#ffffff" stroke-width="2" stroke-linecap="butt" stroke-linejoin="miter" stroke-miterlimit="10" stroke-dasharray="" stroke-dashoffset="0" font-family="Sans Serif" font-weight="normal" text-anchor="start" style="mix-blend-mode: normal"><tspan x="0" dy="0">Use this link to play the game in 16:9 aspect ratio (recommended)</tspan></text></g></g></svg>