<svg version="1.1" xmlns="http://www.w3.org/2000/svg" xmlns:xlink="http://www.w3.org/1999/xlink" width="109.75016" height="106.52242" viewBox="0,0,109.75016,106.52242"><defs><linearGradient x1="230.13785" y1="159.29611" x2="220.86592" y2="166.47398" gradientUnits="userSpaceOnUse" id="color-1"><stop offset="0" stop-color="#838383"/><stop offset="1" stop-color="#000000"/></linearGradient><linearGradient x1="235.83566" y1="144.6211" x2="230.03479" y2="149.11184" gradientUnits="userSpaceOnUse" id="color-2"><stop offset="0" stop-color="#838383"/><stop offset="1" stop-color="#2c2c2c"/></linearGradient><linearGradient x1="228.1353" y1="145.45361" x2="224.5068" y2="148.26261" gradientUnits="userSpaceOnUse" id="color-3"><stop offset="0" stop-color="#838383"/><stop offset="1" stop-color="#2c2c2c"/></linearGradient><linearGradient x1="235.14202" y1="112.30686" x2="236.05627" y2="136.39694" gradientUnits="userSpaceOnUse" id="color-4"><stop offset="0" stop-color="#cca670"/><stop offset="1" stop-color="#907751"/></linearGradient><linearGradient x1="226.82874" y1="126.85295" x2="233.00604" y2="126.05263" gradientUnits="userSpaceOnUse" id="color-5"><stop offset="0" stop-color="#dadada"/><stop offset="1" stop-color="#898989"/></linearGradient><linearGradient x1="237.18557" y1="125.40012" x2="243.36287" y2="124.59979" gradientUnits="userSpaceOnUse" id="color-6"><stop offset="0" stop-color="#dadada"/><stop offset="1" stop-color="#898989"/></linearGradient><linearGradient x1="236.74856" y1="129.08901" x2="237.34092" y2="136.7679" gradientUnits="userSpaceOnUse" id="color-7"><stop offset="0" stop-color="#272727"/><stop offset="1" stop-color="#000000"/></linearGradient><linearGradient x1="253.66527" y1="156.7058" x2="223.56662" y2="157.84805" gradientUnits="userSpaceOnUse" id="color-8"><stop offset="0" stop-color="#202020"/><stop offset="1" stop-color="#000000"/></linearGradient><linearGradient x1="229.33021" y1="161.06267" x2="229.7129" y2="171.14631" gradientUnits="userSpaceOnUse" id="color-9"><stop offset="0" stop-color="#696969"/><stop offset="1" stop-color="#272727"/></linearGradient><linearGradient x1="248.18217" y1="160.09706" x2="248.56483" y2="170.18069" gradientUnits="userSpaceOnUse" id="color-10"><stop offset="0" stop-color="#696969"/><stop offset="1" stop-color="#272727"/></linearGradient><linearGradient x1="231.09241" y1="148.86625" x2="231.36919" y2="156.1592" gradientUnits="userSpaceOnUse" id="color-11"><stop offset="0" stop-color="#696969"/><stop offset="1" stop-color="#272727"/></linearGradient><radialGradient cx="243.87892" cy="119.36403" r="5.19534" gradientUnits="userSpaceOnUse" id="color-12"><stop offset="0" stop-color="#00059e"/><stop offset="1" stop-color="#1f5cff"/></radialGradient><radialGradient cx="233.38074" cy="124.33086" r="5.19534" gradientUnits="userSpaceOnUse" id="color-13"><stop offset="0" stop-color="#00059e"/><stop offset="1" stop-color="#1f5cff"/></radialGradient><radialGradient cx="233.29069" cy="124.35226" r="7.2184" gradientUnits="userSpaceOnUse" id="color-14"><stop offset="0" stop-color="#0015ff"/><stop offset="1" stop-color="#0015ff" stop-opacity="0"/></radialGradient><radialGradient cx="243.81012" cy="119.45356" r="6.6881" gradientUnits="userSpaceOnUse" id="color-15"><stop offset="0" stop-color="#0021ff"/><stop offset="1" stop-color="#0021ff" stop-opacity="0"/></radialGradient><linearGradient x1="223.02873" y1="166.42559" x2="220.735" y2="163.34231" gradientUnits="userSpaceOnUse" id="color-16"><stop offset="0" stop-color="#271100"/><stop offset="1" stop-color="#613700"/></linearGradient><linearGradient x1="191.75502" y1="192.4441" x2="187.13999" y2="186.283" gradientUnits="userSpaceOnUse" id="color-17"><stop offset="0" stop-color="#ffffff"/><stop offset="1" stop-color="#323232"/></linearGradient><linearGradient x1="264.62559" y1="153.56577" x2="264.91767" y2="161.26316" gradientUnits="userSpaceOnUse" id="color-18"><stop offset="0" stop-color="#2c2c2c"/><stop offset="1" stop-color="#464646"/></linearGradient><linearGradient x1="262.00237" y1="163.19302" x2="266.02124" y2="173.10746" gradientUnits="userSpaceOnUse" id="color-19"><stop offset="0" stop-color="#000000" stop-opacity="0"/><stop offset="1" stop-color="#000000" stop-opacity="0"/></linearGradient><linearGradient x1="219.84138" y1="160.36522" x2="222.80044" y2="170.64592" gradientUnits="userSpaceOnUse" id="color-20"><stop offset="0" stop-color="#000000" stop-opacity="0"/><stop offset="1" stop-color="#000000" stop-opacity="0"/></linearGradient><linearGradient x1="238.81865" y1="160.5775" x2="239.20133" y2="170.66113" gradientUnits="userSpaceOnUse" id="color-21"><stop offset="0" stop-color="#696969"/><stop offset="1" stop-color="#272727"/></linearGradient></defs><g transform="translate(-159.59243,-103.40023)"><g data-paper-data="{&quot;isPaintingLayer&quot;:true}" fill-rule="nonzero" stroke-linejoin="miter" stroke-miterlimit="10" stroke-dasharray="" stroke-dashoffset="0" style="mix-blend-mode: normal"><path d="M244.8831,170.07903l5.74306,5.19724l3.58223,15.57993" data-paper-data="{&quot;index&quot;:null}" fill="none" stroke="#131313" stroke-width="13" stroke-linecap="round"/><path d="M228.92581,191.76617l2.72575,-15.19444l5.31229,-5.60959" data-paper-data="{&quot;index&quot;:null}" fill="none" stroke="#121212" stroke-width="13" stroke-linecap="round"/><path d="M246.50873,188.22496l-0.9051,-4.8075l13.67699,-0.8829l0.80453,4.8075z" data-paper-data="{&quot;index&quot;:null}" fill="#000000" stroke="none" stroke-width="0" stroke-linecap="butt"/><path d="M248.54007,188.52195c-0.47204,-1.91185 -1.10435,-4.92927 -1.38821,-6.11373c-0.22221,-0.92721 0.72742,-2.04746 1.99547,-2.17714c0.94781,-0.09693 2.84493,-0.36118 4.42921,-0.55987c1.21529,-0.15241 2.5294,0.69114 2.71996,1.48629c0.27405,1.14352 1.04776,4.37198 1.53141,6.39015c0.24048,1.00345 -0.56308,1.80593 -1.80411,1.93147c-1.67285,0.16922 -3.8339,0.38805 -4.75972,0.48273c-0.77523,0.07928 -2.49053,-0.4943 -2.724,-1.43989z" data-paper-data="{&quot;index&quot;:null}" fill="#000000" stroke="none" stroke-width="NaN" stroke-linecap="butt"/><path d="M222.42658,187.85158l0.81563,-4.8075l13.86588,0.8829l-0.91759,4.8075z" data-paper-data="{&quot;index&quot;:null}" fill="#000000" stroke="none" stroke-width="0" stroke-linecap="butt"/><path d="M233.89551,189.26793c-0.16388,0.95908 -1.83022,1.65908 -2.60789,1.63837c-0.92874,-0.02473 -3.09644,-0.08029 -4.77443,-0.12312c-1.24483,-0.03179 -2.10319,-0.77048 -1.93654,-1.78771c0.33517,-2.04588 0.87132,-5.31867 1.06123,-6.47789c0.13205,-0.80605 1.37936,-1.74472 2.60051,-1.68425c1.59192,0.07883 3.50012,0.19945 4.45092,0.22478c1.27203,0.03387 2.29889,1.07799 2.14491,2.01795c-0.19671,1.20071 -0.60739,4.25275 -0.9387,6.1919z" data-paper-data="{&quot;index&quot;:null}" fill="#000000" stroke="none" stroke-width="NaN" stroke-linecap="butt"/><path d="M222.41686,207.5173c0,-0.92587 0,-2.91096 0,-4.52485c0,-1.34585 0.7507,-2.43353 1.45596,-2.43353c1.87421,0 10.2823,0 10.2823,0c0,0 0.45158,1.10638 1.07476,2.43703c0.40404,0.86271 0.20801,3.34035 -0.11973,4.33541c-0.54259,1.64737 -0.95502,2.50541 -0.95502,2.50541c0,0 -8.54707,0 -10.38386,0c-0.66336,0 -1.35442,-1.33914 -1.35442,-2.31945z" data-paper-data="{&quot;index&quot;:null}" fill="#000000" stroke="none" stroke-width="0" stroke-linecap="butt"/><path d="M224.52869,201.4985l-1.86065,-9.18172c0,0 4.32644,1.76961 6.05806,1.78843c1.8084,0.01966 6.51892,-1.67289 6.51892,-1.67289l-2.50286,8.83509z" data-paper-data="{&quot;index&quot;:null}" fill="#000000" stroke="none" stroke-width="0" stroke-linecap="butt"/><path d="M248.45921,207.53585c0,-0.95275 0,-2.99548 0,-4.65622c0,-1.38492 0.72796,-2.50419 1.41186,-2.50419c1.81743,0 9.97084,0 9.97084,0c0,0 0.4379,1.1385 1.0422,2.50777c0.3918,0.88775 0.20171,3.43733 -0.1161,4.46129c-0.52615,1.6952 -0.92609,2.57815 -0.92609,2.57815c0,0 -8.28816,0 -10.06931,0c-0.64327,0 -1.31339,-1.37802 -1.31339,-2.3868z" data-paper-data="{&quot;index&quot;:null}" fill="#000000" stroke="none" stroke-width="0" stroke-linecap="butt"/><path d="M250.5149,202.99863l-2.67439,-10.4984c0,0 4.45811,1.76961 6.18973,1.78843c1.8084,0.01966 6.41533,-2.03983 6.41533,-2.03983l-1.63732,10.65036z" data-paper-data="{&quot;index&quot;:null}" fill="#000000" stroke="none" stroke-width="0" stroke-linecap="butt"/><g data-paper-data="{&quot;index&quot;:null}"><path d="M228.98541,150.31052c0,0 1.90755,-1.47673 2.57067,-1.99009c0.45065,-0.34887 1.40663,-0.2965 1.78124,0.18741c0.5388,0.696 2.00969,2.596 2.8732,3.71143c0.35852,0.46311 -0.03209,1.42633 -0.51309,1.7987c-0.65958,0.51061 -2.40222,1.85968 -2.40222,1.85968z" fill="#282828" stroke="none" stroke-width="0" stroke-linecap="butt"/><path d="M219.08631,147.42841l3.07501,-2.38051l2.49316,3.22051l-3.07501,2.38051z" fill="#505050" stroke="none" stroke-width="0" stroke-linecap="butt"/><path d="M223.68783,143.59334c0,0 2.0116,-1.55728 2.68454,-2.07822c0.39206,-0.30352 1.47096,-0.14124 1.83516,0.32919c0.50416,0.65125 1.83097,2.36514 2.70242,3.49082c0.44897,0.57995 0.21064,1.50349 -0.18144,1.80701c-0.67293,0.52095 -2.68454,2.07823 -2.68454,2.07823z" fill="#282828" stroke="#000000" stroke-width="0.5" stroke-linecap="butt"/><path d="M224.31803,146.16905l2.07096,-1.60322l1.48293,1.91557l-2.07096,1.60322z" fill="#000000" stroke="none" stroke-width="0" stroke-linecap="butt"/><path d="M238.97856,149.10534c-0.68372,-0.06231 -1.34926,-0.31074 -1.91431,-0.73484" fill="none" stroke="#ff9319" stroke-width="3" stroke-linecap="butt"/><path d="M234.51687,147.79313c-0.28517,-0.77078 -0.50732,-1.53085 -0.66615,-2.26619" fill="none" stroke="#000000" stroke-width="3" stroke-linecap="butt"/><path d="M219.93809,165.27549c0,0 0.78873,-1.94106 1.43927,-3.88408c0.49939,-1.49156 1.58728,-2.92705 1.82609,-3.29027c0.40682,-0.61873 6.81984,-6.43985 6.81984,-6.43985c0,0 3.81193,5.22363 4.66517,6.10356c0.27668,0.28534 -3.17369,3.30997 -3.17369,3.30997c0,0 -1.4966,1.5616 -1.96466,2.35828c-0.20778,0.35364 -0.99958,1.20966 -1.26,2.0799c-0.51171,1.70989 -1.60145,4.03758 -1.60145,4.03758z" fill="url(#color-1)" stroke="#000000" stroke-width="1.5" stroke-linecap="butt"/><path d="M228.63981,135.74155l1.13204,-0.87636l13.23982,17.10246l-1.13204,0.87636z" fill="#888888" stroke="#000000" stroke-width="0.5" stroke-linecap="butt"/><path d="M262.65903,187.48831l-11.88348,-15.39946l2.08493,-1.61404l11.98142,15.47694z" fill="#888888" stroke="#000000" stroke-width="1.5" stroke-linecap="round"/><path d="M222.88228,139.87261l5.80086,-4.49072l14.30505,18.47848l-5.80087,4.49073z" fill="url(#color-2)" stroke="#000000" stroke-width="1" stroke-linecap="butt"/><path d="M230.01267,151.93244l2.15613,-1.80838l4.9946,6.45175l-2.33055,1.47787z" fill="#767676" stroke="#000000" stroke-width="1.5" stroke-linecap="butt"/><path d="M222.13299,145.01343c0,0 0.98852,-0.37277 0.87997,-1.39271c-0.10407,-0.97788 -1.43932,-2.03323 -1.1549,-2.2534c0.62524,-0.48402 1.947,-1.50727 1.947,-1.50727l8.66045,11.18709l-3.6285,2.809z" fill="url(#color-3)" stroke="#000000" stroke-width="1" stroke-linecap="butt"/><path d="M221.92113,150.75116l2.89051,-2.23768l3.62165,4.67824c0,0 -1.31131,1.01514 -1.8392,1.42381c-0.39912,0.30898 -1.79418,-0.14573 -2.26824,-0.7581c-0.66638,-0.86079 -2.40472,-3.10629 -2.40472,-3.10629z" fill="none" stroke="#000000" stroke-width="2" stroke-linecap="butt"/><path d="M232.44641,149.33721l2.46,-1.9044l4.93384,6.37326l-2.46001,1.9044z" fill="#000000" stroke="none" stroke-width="0" stroke-linecap="butt"/><path d="M227.675,150.64545l1.968,-1.52352l1.41717,1.83061l-1.968,1.52352z" fill="none" stroke="#000000" stroke-width="1" stroke-linecap="butt"/><path d="M229.87932,151.46009c-0.37362,0.28923 -0.90269,0.23154 -1.1817,-0.12887c-0.27901,-0.36041 -0.20232,-0.88706 0.17131,-1.17629c0.37362,-0.28923 0.90267,-0.23155 1.1817,0.12887c0.27901,0.36041 0.20233,0.88706 -0.17131,1.17629z" fill="#9e9e9e" stroke="none" stroke-width="0" stroke-linecap="butt"/><path d="M241.2511,153.7787l-12.92997,-16.44811" fill="none" stroke="#000000" stroke-width="1" stroke-linecap="round"/><path d="M226.31874,146.92429c-0.45853,0.35497 -1.171,0.20257 -1.59132,-0.34036c-0.42033,-0.54296 -0.38936,-1.27086 0.06919,-1.62583c0.45853,-0.35497 1.17099,-0.20258 1.59131,0.34037c0.42033,0.54296 0.38936,1.27086 -0.06918,1.62584z" fill="#858585" stroke="none" stroke-width="0" stroke-linecap="butt"/><path d="M225.22392,139.85622l2.21402,-1.71397l4.72388,6.10204c0,0 0.19596,1.80011 -0.16223,2.07739c-0.37866,0.29315 -2.05178,-0.36342 -2.05178,-0.36342z" fill="#c7c7c7" stroke="#000000" stroke-width="1" stroke-linecap="butt"/><path d="M225.09086,139.29973l1.78351,-1.38069l0.52488,0.67801l-1.78351,1.38069z" fill="#888888" stroke="#000000" stroke-width="1" stroke-linecap="butt"/><path d="M225.65926,149.82041l1.10224,1.42381c0,0 -0.93822,0.2926 -1.31695,0.58579c-0.39921,0.30905 -1.02006,1.2234 -1.02006,1.2234c0,0 -0.34198,-1.61055 -0.13286,-2.1581c0.20224,-0.52953 1.36763,-1.07491 1.36763,-1.07491z" fill="#5b5b5b" stroke="none" stroke-width="0" stroke-linecap="butt"/><path d="M238.21037,157.92266l4.1039,-3.17702l0.86771,1.12086l-4.1039,3.17702z" fill="#5b5b5b" stroke="#000000" stroke-width="1.5" stroke-linecap="butt"/><path d="M262.22332,187.75723l2.80635,-2.17253l2.91003,3.75902l-2.80635,2.17252z" fill="#393939" stroke="#000000" stroke-width="2" stroke-linecap="butt"/><path d="M250.00203,173.64068l3.31703,-2.56786l1.01823,1.31529l-3.31703,2.56786z" fill="#000000" stroke="#000000" stroke-width="0.5" stroke-linecap="butt"/><path d="M252.13192,176.46182l8.17704,-6.33025l1.01823,1.31529l-8.17704,6.33025z" fill="#000000" stroke="#000000" stroke-width="0.5" stroke-linecap="butt"/><path d="M254.24145,170.49078l3.11753,4.08641l-0.92956,0.68267l-3.11753,-4.08641z" fill="#000000" stroke="#000000" stroke-width="0.5" stroke-linecap="butt"/><path d="M254.20295,170.35597l5.6382,0.04883l-1.08737,0.95818l-3.53888,0.30012z" fill="#000000" stroke="#000000" stroke-width="0.5" stroke-linecap="butt"/><path d="M228.11295,135.10724l0.96271,-0.74528l2.12253,2.74178l-0.9627,0.74528z" fill="#000000" stroke="none" stroke-width="0" stroke-linecap="butt"/><path d="M238.64923,159.54951l4.91168,-3.80235l11.14165,14.39217l-4.91168,3.80236z" fill="#4d4d4d" stroke="#000000" stroke-width="1.5" stroke-linecap="butt"/><path d="M222.39703,138.49963l5.33521,-4.13025l1.19154,1.53915l-5.33522,4.13024z" fill="#222222" stroke="#000000" stroke-width="1" stroke-linecap="butt"/><path d="M202.63765,125.0786c0.8753,-0.70477 10.39141,-9.0665 10.39141,-9.0665l13.40876,16.97994l-4.60421,3.56433c0,0 -3.90862,-6.82387 -9.18579,-10.3658c-2.00721,-1.34721 -8.45353,0.93908 -9.18208,0.38177c-0.27453,-0.20999 -0.84194,-1.48261 -0.82809,-1.49376z" fill="#3a3a3a" stroke="#000000" stroke-width="1.5" stroke-linecap="butt"/><path d="M207.0501,127.9288c0.58723,-0.46941 6.42818,-5.08955 6.42818,-5.08955l7.32487,9.23389l-3.39735,2.40827c0,0 -2.27507,-3.08688 -4.50825,-5.51297c-1.61836,0.04212 -5.05674,0.35579 -5.4767,0.07009c-0.15824,-0.10766 -0.38004,-1.10229 -0.37074,-1.10972z" fill="#303030" stroke="#000000" stroke-width="1.5" stroke-linecap="butt"/><path d="M229.93846,135.25366l1.67711,-1.29833l3.61412,4.66851l-1.67711,1.29832z" fill="#888888" stroke="#000000" stroke-width="1" stroke-linecap="butt"/><path d="M231.92632,136.4938c-0.34888,0.27007 -0.87307,0.17724 -1.17081,-0.20738c-0.29774,-0.38461 -0.25629,-0.91534 0.09257,-1.18542c0.34888,-0.27007 0.87306,-0.17723 1.1708,0.20738c0.29774,0.38461 0.2563,0.91533 -0.09257,1.18542z" fill="#575757" stroke="#000000" stroke-width="1" stroke-linecap="butt"/><path d="M232.53979,135.23581l1.80288,-1.3957l0.48987,0.63278l-1.80288,1.3957z" fill="#575757" stroke="#000000" stroke-width="1" stroke-linecap="butt"/><path d="M233.61237,139.86863l0.43525,-0.33694l0.86989,1.12368l-0.43525,0.33694z" fill="#575757" stroke="#000000" stroke-width="0.5" stroke-linecap="butt"/><path d="M235.01531,141.58811l0.43525,-0.33694l0.86989,1.12368l-0.43525,0.33694z" fill="#575757" stroke="#000000" stroke-width="0.5" stroke-linecap="butt"/><path d="M236.4915,143.5705l0.43525,-0.33694l0.86989,1.12369l-0.43525,0.33693z" fill="#575757" stroke="#000000" stroke-width="0.5" stroke-linecap="butt"/><path d="M237.8579,145.31828l0.43525,-0.33694l0.86989,1.12368l-0.43525,0.33694z" fill="#575757" stroke="#000000" stroke-width="0.5" stroke-linecap="butt"/><path d="M239.19847,147.04996l0.43525,-0.33694l0.86989,1.12368l-0.43525,0.33694z" fill="#575757" stroke="#000000" stroke-width="0.5" stroke-linecap="butt"/><path d="M240.5648,148.79775l0.43526,-0.33694l0.86989,1.12368l-0.43526,0.33694z" fill="#575757" stroke="#000000" stroke-width="0.5" stroke-linecap="butt"/><path d="M241.91554,150.57231l0.43526,-0.33694l0.86989,1.12368l-0.43526,0.33694z" fill="#575757" stroke="#000000" stroke-width="0.5" stroke-linecap="butt"/><path d="M230.14501,155.98191l2.55823,-1.98044l1.06096,1.37048l-2.55823,1.98044z" fill="#585858" stroke="#000000" stroke-width="1.5" stroke-linecap="butt"/><path d="M221.9631,136.51701l4.13854,-3.20383l1.44686,1.86899l-4.13854,3.20383z" fill="#c7c7c7" stroke="#000000" stroke-width="1" stroke-linecap="butt"/><path d="M210.46522,146.97254l11.79823,-1.85251c0,0 1.82297,2.24438 2.14408,3.05087c0.31827,0.7994 -2.35145,2.43802 -2.35145,2.43802l-9.70179,1.62822z" fill="#262626" stroke="#000000" stroke-width="2" stroke-linecap="butt"/></g><path d="M227.52217,136.59426c-3.88093,-0.29156 -6.03347,-17.89034 -3.84797,-20.43367c2.50651,-2.91691 9.99832,-5.00796 16.51424,-3.08566c5.47342,1.61475 7.22976,6.83171 7.60105,11.38112c0.31219,3.82519 2.02356,8.9138 -1.08586,11.02777c-7.92973,0.63317 -11.17921,1.13605 -19.18145,1.11043z" data-paper-data="{&quot;index&quot;:null}" fill="url(#color-4)" stroke="none" stroke-width="0" stroke-linecap="butt"/><path d="M229.57734,123.82826c1.70582,-0.22101 3.2409,0.77488 3.42869,2.22437c0.18779,1.44949 -1.0428,2.8037 -2.74862,3.0247c-1.70582,0.22101 -3.2409,-0.77488 -3.42869,-2.22437c-0.18779,-1.44949 1.0428,-2.8037 2.74862,-3.0247z" data-paper-data="{&quot;index&quot;:null}" fill="url(#color-5)" stroke="none" stroke-width="0" stroke-linecap="butt"/><path d="M228.89333,126.97396c-0.11717,-0.90438 0.52099,-1.73251 1.42536,-1.84968c0.90438,-0.11717 1.73251,0.52099 1.84968,1.42536c0.11717,0.90438 -0.52099,1.73252 -1.42536,1.84968c-0.90438,0.11717 -1.73251,-0.52099 -1.84968,-1.42536z" data-paper-data="{&quot;index&quot;:null}" fill="#000000" stroke="none" stroke-width="0" stroke-linecap="butt"/><path d="M226.30995,123.31264c0,0 2.00869,-0.70424 3.00013,-0.83269c1.00964,-0.13081 3.00411,0.05478 3.00411,0.05478" data-paper-data="{&quot;index&quot;:null}" fill="none" stroke="#000000" stroke-width="2.5" stroke-linecap="round"/><path d="M236.99432,121.81738c0,0 2.00868,-0.70425 3.00013,-0.83269c1.00964,-0.13081 3.00411,0.05478 3.00411,0.05478" data-paper-data="{&quot;index&quot;:null}" fill="none" stroke="#000000" stroke-width="2.5" stroke-linecap="round"/><path d="M239.93419,122.37542c1.70582,-0.22101 3.2409,0.77488 3.42869,2.22437c0.18779,1.44949 -1.0428,2.80369 -2.74862,3.0247c-1.70582,0.22101 -3.2409,-0.77488 -3.42869,-2.22436c-0.18779,-1.44949 1.0428,-2.8037 2.74862,-3.0247z" data-paper-data="{&quot;index&quot;:null}" fill="url(#color-6)" stroke="none" stroke-width="0" stroke-linecap="butt"/><path d="M239.25019,125.52114c-0.11717,-0.90438 0.52099,-1.73252 1.42536,-1.84968c0.90438,-0.11717 1.73251,0.52099 1.84968,1.42536c0.11717,0.90438 -0.52099,1.73251 -1.42536,1.84968c-0.90438,0.11717 -1.73251,-0.52099 -1.84967,-1.42536z" data-paper-data="{&quot;index&quot;:null}" fill="#000000" stroke="none" stroke-width="0" stroke-linecap="butt"/><path d="M243.59183,136.16331l-0.78308,-0.60067l-0.72593,0.83945l-1.02238,-0.2068l-1.091,-0.2621l-0.75288,-0.68418l-1.03762,0.12374l-0.64515,-0.27813l-0.82749,0.34736l-1.40871,0.97616l-1.17256,-0.24413l-1.02645,0.54336l-0.87241,0.4297l-1.04966,-0.90727l-1.24433,-0.152l0.41673,-0.9866l-1.19523,-0.36837l-0.22949,-1.13721l1.06121,-0.34682l0.10224,-0.78845l0.59995,-1.02748l1.01395,-0.09673l1.07105,-0.53508l0.88095,0.00421l0.78109,-0.69357l1.39034,-0.21666l1.42964,-0.84508l0.86586,0.76405l1.23499,0.13831l0.72786,0.65869l0.95229,-0.06113l0.73029,0.61555l0.92252,-0.58899l0.60167,1.00846l0.44816,0.47616l0.93294,-0.23667l0.58698,1.6413l-0.55537,1.15767l-0.46645,1.20086z" data-paper-data="{&quot;index&quot;:null}" fill="url(#color-7)" stroke="#000000" stroke-width="0" stroke-linecap="butt"/><path d="M221.6193,120.88475l-0.92965,-1.71533l0.12469,-1.66075l-0.56578,-1.66331l0.95762,-0.51518l0.79157,-0.38657l0.37582,-1.25278l1.58719,0.32354l1.15498,-0.67138l1.22586,-1.4349l1.1023,0.79899l1.60566,-0.85114l1.9588,-0.45234l1.45243,-0.12284c0,0 0.38655,0.90736 0.7766,1.11097c0.39396,0.20566 1.57551,0.11693 1.57551,0.11693l0.98263,-1.01267l1.30895,0.07599l1.53859,0.11605l1.35502,-0.2656l1.31963,-0.2656l-0.60846,1.5989l0.64935,0.77613l0.93866,0.9546l0.92188,1.27833c0,0 0.02392,0.94482 -0.20811,1.21277c-0.20433,0.23598 -1.3364,0.41142 -1.3364,0.41142l-1.57832,-0.24069l-0.69052,1.2961c0,0 -0.93769,0.26592 -1.16252,0.27056c-0.33734,0.00695 -0.72237,-0.67831 -0.72237,-0.67831l-1.25027,0.49638c0,0 -0.23243,0.10879 -0.57728,0.10477c-0.2371,-0.00276 -0.63812,-0.54516 -0.78193,-0.60286c-0.2523,-0.10124 -0.6176,-0.71737 -0.6176,-0.71737c0,0 -0.6064,0.01559 -0.88803,0.17389c-0.34797,0.19559 -0.52274,1.59594 -0.52274,1.59594l-1.52738,0.06935l-1.08404,-0.06391l-1.57251,-0.21412l-0.96626,0.51341l-1.44059,1.07316l-1.40646,0.60365l-1.29444,-0.98805l-0.94463,1.09761z" data-paper-data="{&quot;index&quot;:null}" fill="#000000" stroke="#000000" stroke-width="0.5" stroke-linecap="butt"/><path d="M263.84963,167.22717c-2.1193,-0.58433 -13.69738,-22.12783 -13.69738,-22.12783" data-paper-data="{&quot;index&quot;:null}" fill="none" stroke="#121212" stroke-width="10" stroke-linecap="round"/><path d="M220.49989,136.95064l28.63695,-1.76226c0,0 -0.09739,13.53018 0.57853,20.07505c0.66423,6.43156 3.79501,19.16447 3.79501,19.16447c0,0 -9.46856,2.79888 -14.23735,3.11265c-4.75987,0.31318 -14.34866,-1.23184 -14.34866,-1.23184c0,0 -0.74191,-12.61186 -1.46939,-19.08332c-0.74683,-6.64338 -2.95508,-20.27473 -2.95508,-20.27473z" data-paper-data="{&quot;index&quot;:null}" fill="#191919" stroke="none" stroke-width="0" stroke-linecap="butt"/><path d="M250.31807,140.35396c0,0 3.44641,10.58943 3.15067,15.41589c0.34526,4.8981 0.53826,17.88931 0.53826,17.88931c0,0 -9.29795,4.39923 -15.10306,5.05411c-5.80512,0.65488 -14.99616,-2.2913 -14.99616,-2.2913c0,0 -0.64806,-15.65155 -0.22955,-20.56869c-0.09208,-2.05173 1.62294,-13.97002 1.62294,-13.97002c0,0 3.06637,-0.75418 6.68867,-0.7304c2.45124,0.01609 6.26879,-0.14285 8.75177,-0.19747c2.65406,-0.05839 1.59361,-0.28507 3.06354,-0.3179z" data-paper-data="{&quot;index&quot;:null}" fill="url(#color-8)" stroke="#000000" stroke-width="2" stroke-linecap="butt"/><path d="M226.36441,169.74861c-0.06308,-1.66224 -0.24925,-8.56385 -0.24925,-8.56385c0,0 2.11854,-0.0804 3.19261,-0.12117c1.09416,-0.04153 3.3132,-0.12573 3.3132,-0.12573c0,0 0.26029,6.85874 0.3249,8.56097c0.02817,0.74252 -0.52227,1.54463 -1.22824,1.57141c-1.36096,0.05165 -3.39828,0.05188 -4.08795,0.07805c-0.40113,0.01522 -1.23931,-0.71662 -1.26524,-1.39971z" data-paper-data="{&quot;index&quot;:null}" fill="url(#color-9)" stroke="#000000" stroke-width="1" stroke-linecap="butt"/><path d="M225.47236,163.98419c0,0 -0.10461,-2.75661 -0.13464,-3.548c-0.01385,-0.36486 0.64155,-1.03924 1.22237,-1.06128c0.95071,-0.03608 3.74762,-0.14223 5.25337,-0.19937c0.55119,-0.02092 1.07605,0.62892 1.09184,1.04483c0.03093,0.81516 0.13195,3.47672 0.13195,3.47672z" data-paper-data="{&quot;index&quot;:null}" fill="#282828" stroke="#000000" stroke-width="1" stroke-linecap="butt"/><text transform="translate(238.61042,145.78483) rotate(-2.17415) scale(0.06656,0.06656)" font-size="40" xml:space="preserve" data-paper-data="{&quot;index&quot;:null}" fill="#ffffff" fill-rule="nonzero" stroke="#ffffff" stroke-width="2" stroke-linecap="butt" stroke-linejoin="miter" stroke-miterlimit="10" stroke-dasharray="" stroke-dashoffset="0" font-family="Sans Serif" font-weight="normal" text-anchor="start" style="mix-blend-mode: normal"><tspan x="0" dy="0">S.O.A.S.T</tspan></text><path d="M242.04427,154.26788c-0.32579,-0.55199 -0.53428,-1.18296 -0.58985,-1.85992" data-paper-data="{&quot;index&quot;:null}" fill="#e6e016" stroke="#ff1919" stroke-width="3" stroke-linecap="butt"/><path d="M248.4525,135.52451c0,0 1.50546,1.85235 1.60065,2.8688c0.09123,0.97415 -0.20816,3.01173 -0.20816,3.01173l-7.2091,0.34632c0,0 0.84764,-2.86155 0.84216,-2.98896c-0.03837,-0.89336 -0.97544,-2.89568 -0.97544,-2.89568z" data-paper-data="{&quot;index&quot;:null}" fill="#000000" stroke="#000000" stroke-width="0.5" stroke-linecap="butt"/><path d="M241.84931,150.39407c0.32156,-0.63086 0.81665,-1.16063 1.42476,-1.52407" data-paper-data="{&quot;index&quot;:null}" fill="none" stroke="#1921ff" stroke-width="3" stroke-linecap="butt"/><path d="M245.17161,148.34032c0.852,-0.00671 1.64357,0.27247 2.28024,0.74997" data-paper-data="{&quot;index&quot;:null}" fill="none" stroke="#4aff19" stroke-width="3" stroke-linecap="butt"/><path d="M248.71212,150.7616c0.14154,0.37227 0.22584,0.77358 0.24178,1.19361c0.01064,0.28038 -0.00972,0.55475 -0.05803,0.81981" data-paper-data="{&quot;index&quot;:null}" fill="none" stroke="#fff719" stroke-width="3" stroke-linecap="butt"/><path d="M248.22262,154.39765c-0.44842,0.51989 -1.03765,0.91671 -1.71131,1.1296" data-paper-data="{&quot;index&quot;:null}" fill="none" stroke="#ff9319" stroke-width="3" stroke-linecap="butt"/><path d="M245.21634,168.78299c-0.06308,-1.66224 -0.24925,-8.56385 -0.24925,-8.56385l6.50581,-0.2469c0,0 0.26029,6.85874 0.3249,8.56097c0.02817,0.74252 -0.52227,1.54463 -1.22824,1.57141c-1.36096,0.05165 -3.39828,0.05188 -4.08795,0.07805c-0.40113,0.01522 -1.23931,-0.71662 -1.26524,-1.39971z" data-paper-data="{&quot;index&quot;:null}" fill="url(#color-10)" stroke="#000000" stroke-width="1" stroke-linecap="butt"/><path d="M243.58575,156.54963l1.74019,-4.61492" data-paper-data="{&quot;index&quot;:null}" fill="none" stroke="#000000" stroke-width="1.5" stroke-linecap="round"/><path d="M243.6777,152.07515c-0.03186,-0.83959 0.62293,-1.54605 1.46254,-1.57792c0.83959,-0.03186 1.54605,0.62293 1.57792,1.46254c0.03186,0.83959 -0.62293,1.54605 -1.46254,1.57792c-0.83959,0.03186 -1.54605,-0.62293 -1.57792,-1.46254z" data-paper-data="{&quot;index&quot;:null}" fill="#ffffff" stroke="none" stroke-width="3" stroke-linecap="butt"/><path d="M230.57242,136.62715c0,0 0.21762,1.80815 0.36818,2.79628c0.16486,1.08208 0.81609,2.9086 0.81609,2.9086l-6.13983,0.26207c0,0 -1.27645,-1.738 -1.33657,-2.85237c-0.05368,-0.99492 -0.14954,-2.95817 -0.14954,-2.95817z" data-paper-data="{&quot;index&quot;:null}" fill="#000000" stroke="#000000" stroke-width="0.5" stroke-linecap="butt"/><path d="M237.85682,112.46283c4.29131,0.57681 3.79971,-4.901 7.1416,-1.72032c3.82372,3.64796 5.45638,12.89185 5.97046,19.145c-0.80085,4.93441 -0.26562,4.73254 -5.44887,6.30074c-4.52693,1.19459 -11.26415,2.35163 -15.91165,2.43523c-0.36334,0.00655 -1.13596,0.041 -1.32392,0.0013c-3.43083,-1.98353 -4.28856,-3.05006 -5.44322,-6.16669c-0.11837,-0.31971 -0.98559,-6.28788 -0.29748,-10.02539c0.62584,-4.04068 -0.81828,-3.93323 1.53101,-6.77577c1.74484,-2.11213 6.75556,-1.44894 9.16369,-1.12265z" data-paper-data="{&quot;index&quot;:null}" fill="#3e3e3e" stroke="#000000" stroke-width="1.5" stroke-linecap="round"/><path d="M244.46708,163.01312c0,0 -0.10461,-2.75661 -0.13464,-3.548c-0.01385,-0.36486 0.64155,-1.03924 1.22237,-1.06128c0.95071,-0.03608 3.74762,-0.14223 5.25337,-0.19937c0.55119,-0.02092 1.07605,0.62892 1.09184,1.04483c0.03093,0.81516 0.13195,3.47672 0.13195,3.47672z" data-paper-data="{&quot;index&quot;:null}" fill="#282828" stroke="#000000" stroke-width="1" stroke-linecap="butt"/><path d="M245.33492,139.15192c-2.9239,0.11096 -7.58249,-2.22752 -7.70763,-5.52512c-0.0661,-1.74159 0.17303,-3.50274 0.84125,-4.86957c0.597,-1.22118 1.68279,-2.31129 3.06246,-2.36365c1.07688,-0.04087 3.1081,-0.15695 4.41202,0.72696c2.23646,1.51608 3.62265,4.66826 3.70171,6.75135c0,0 -1.38591,5.16907 -4.30982,5.28003z" data-paper-data="{&quot;index&quot;:null}" fill="#151515" stroke="#000000" stroke-width="1.5" stroke-linecap="butt"/><path d="M249.30144,133.76825c0.09726,2.56292 -1.66105,4.7103 -3.92728,4.7963c-2.26625,0.086 -4.18225,-1.92193 -4.27952,-4.48486c-0.09726,-2.56292 1.66105,-4.71029 3.92729,-4.79629c2.26625,-0.086 4.18224,1.92193 4.27951,4.48485z" data-paper-data="{&quot;index&quot;:null}" fill="#313131" stroke="#000000" stroke-width="1.5" stroke-linecap="butt"/><g data-paper-data="{&quot;index&quot;:null}" stroke="#000000" stroke-width="1" stroke-linecap="butt"><path d="M228.59749,155.1616c-0.04562,-1.2022 -0.17222,-6.19408 -0.17222,-6.19408l5.39705,-0.20482c0,0 0.18826,4.96057 0.23498,6.1917c0.02037,0.53702 -0.4394,1.11948 -1.02506,1.14171c-1.12902,0.04284 -2.81881,0.05123 -3.39096,0.07294c-0.33277,0.01263 -1.02503,-0.51341 -1.04378,-1.00744z" fill="url(#color-11)"/><path d="M227.99932,150.99072c0,0 -0.07566,-1.99369 -0.09739,-2.56608c-0.01002,-0.26388 0.5363,-0.75438 1.01813,-0.77267c0.78868,-0.02993 3.10892,-0.11799 4.35806,-0.16539c0.45725,-0.01735 0.88997,0.45062 0.90139,0.75144c0.02237,0.58955 0.09543,2.51453 0.09543,2.51453z" fill="#282828"/></g><path d="M243.11508,112.85667c1.3181,0.1094 2.46291,0.87817 3.24594,2.02869c0.7824,1.1547 1.20289,2.69149 1.07586,4.3373c-0.12708,1.64583 -0.77797,3.09365 -1.72752,4.10459c-0.94955,1.007 -2.19773,1.57677 -3.51582,1.46737c-1.31839,-0.10942 -2.46328,-0.87785 -3.24594,-2.0287c-0.78267,-1.15472 -1.20288,-2.69149 -1.07585,-4.3373c0.12708,-1.64583 0.77761,-3.0937 1.72752,-4.10459c0.94921,-1.00669 2.19741,-1.57681 3.51581,-1.46737z" data-paper-data="{&quot;index&quot;:null}" fill="#000000" stroke="#000000" stroke-width="2" stroke-linecap="butt"/><path d="M217.97484,163.50562c-2.04686,-1.08265 -4.9622,-7.70892 -4.86608,-10.62889c0.21941,-6.66587 8.60381,-14.76541 8.60381,-14.76541" data-paper-data="{&quot;index&quot;:null}" fill="none" stroke="#121212" stroke-width="10" stroke-linecap="round"/><path d="M244.22166,114.07686c1.08249,0.10479 2.02669,0.79289 2.67618,1.81719c0.64902,1.02799 1.00328,2.39245 0.90879,3.85024c-0.09452,1.45783 -0.62013,2.73706 -1.39348,3.62736c-0.77336,0.8868 -1.79444,1.38432 -2.87691,1.27955c-1.08273,-0.1048 -2.02697,-0.79262 -2.67619,-1.81718c-0.64925,-1.02801 -1.00328,-2.39245 -0.9088,-3.85025c0.09453,-1.45783 0.61984,-2.73712 1.39349,-3.62737c0.77309,-0.88653 1.79418,-1.38437 2.87691,-1.27955z" data-paper-data="{&quot;index&quot;:null}" fill="url(#color-12)" stroke="#000000" stroke-width="2" stroke-linecap="butt"/><path d="M224.95436,117.44211c0,0 1.49741,20.8585 0.87689,20.67828c-0.96532,-0.28039 -0.6941,-1.11108 -2.63098,-1.3545c-1.04588,-0.13144 -3.5736,0.4413 -5.39473,-0.0393c-1.33699,-0.35283 -2.47988,-22.71123 -2.47988,-22.71123c0,0 0.77456,-7.15117 13.02648,-9.86584c14.51144,-0.63231 16.22803,6.02008 16.22803,6.02008c0,0 -2.25808,1.62448 -6.41694,4.68396c-4.13756,3.0438 -10.82048,2.65207 -10.82048,2.65207z" data-paper-data="{&quot;index&quot;:null}" fill="#1e1e1e" stroke="#000000" stroke-width="1.5" stroke-linecap="butt"/><path d="M232.61683,117.8235c1.3181,0.1094 2.46291,0.87816 3.24594,2.0287c0.7824,1.1547 1.20289,2.6915 1.07586,4.3373c-0.12708,1.64583 -0.77797,3.09364 -1.72752,4.10459c-0.94955,1.007 -2.19772,1.57677 -3.51581,1.46738c-1.31839,-0.10942 -2.46328,-0.87785 -3.24594,-2.0287c-0.78267,-1.15472 -1.20288,-2.6915 -1.07585,-4.3373c0.12708,-1.64583 0.7776,-3.0937 1.72751,-4.10459c0.94921,-1.00669 2.19742,-1.57681 3.51581,-1.46737z" data-paper-data="{&quot;index&quot;:null}" fill="#000000" stroke="#000000" stroke-width="2" stroke-linecap="butt"/><path d="M233.72345,119.04371c1.08249,0.10479 2.02669,0.79289 2.67618,1.81719c0.64902,1.02799 1.00328,2.39245 0.9088,3.85025c-0.09453,1.45783 -0.62013,2.73707 -1.39348,3.62736c-0.77336,0.8868 -1.79444,1.38432 -2.87691,1.27955c-1.08273,-0.1048 -2.02697,-0.79262 -2.67619,-1.81718c-0.64925,-1.02801 -1.00328,-2.39245 -0.9088,-3.85025c0.09453,-1.45783 0.61984,-2.73712 1.39349,-3.62737c0.77309,-0.88653 1.79418,-1.38437 2.87691,-1.27955z" data-paper-data="{&quot;index&quot;:null}" fill="url(#color-13)" stroke="#000000" stroke-width="2" stroke-linecap="butt"/><path d="M237.50675,119.77095c0.8944,1.3468 1.37718,3.13784 1.23613,5.05462c-0.14111,1.9168 -0.87972,3.60178 -1.95974,4.77721c-1.08003,1.17083 -2.54273,1.37292 -4.04535,1.24249c-1.50296,-0.13046 -2.76838,-0.56939 -3.66309,-1.91169c-0.89472,-1.34682 -1.37718,-3.13784 -1.23613,-5.05462c0.14111,-1.9168 0.88963,-3.48716 1.97008,-4.66251c1.07964,-1.17046 2.55271,-1.2583 4.05568,-1.12782c0,0 2.74732,0.34039 3.64243,1.68232z" data-paper-data="{&quot;index&quot;:null}" fill="url(#color-14)" stroke="#000000" stroke-width="0" stroke-linecap="butt"/><path d="M247.68485,114.8577c0.83944,1.36713 1.30056,3.17991 1.18418,5.11496c-0.11642,1.9351 -0.78858,3.63154 -1.78116,4.8107c-0.99261,1.17452 -2.34734,1.36765 -3.74156,1.22461c-1.39456,-0.14308 -2.57117,-0.59596 -3.41084,-1.95854c-0.83974,-1.36716 -1.30056,-3.17991 -1.18418,-5.11497c0.11642,-1.9351 0.79864,-3.51569 1.79161,-4.69478c0.99226,-1.17417 2.35742,-1.25181 3.75199,-1.10869c0,0 2.54992,0.36448 3.38997,1.72671z" data-paper-data="{&quot;index&quot;:null}" fill="url(#color-15)" stroke="#000000" stroke-width="0" stroke-linecap="butt"/><path d="M220.02832,115.11314l1.04568,0.87296" data-paper-data="{&quot;index&quot;:null}" fill="none" stroke="#000000" stroke-width="1" stroke-linecap="round"/><path d="M221.11236,114.87738l-0.86062,1.18274" data-paper-data="{&quot;index&quot;:null}" fill="none" stroke="#000000" stroke-width="1" stroke-linecap="round"/><path d="M234.90799,108.41324l0.78749,1.11147" data-paper-data="{&quot;index&quot;:null}" fill="none" stroke="#000000" stroke-width="1" stroke-linecap="round"/><path d="M234.48806,109.31077l1.13462,-0.92312" data-paper-data="{&quot;index&quot;:null}" fill="none" stroke="#000000" stroke-width="1" stroke-linecap="round"/><path d="M227.99215,165.07468l-0.10784,-2.84171l2.5667,-0.0974l0.10784,2.84171z" data-paper-data="{&quot;index&quot;:null}" fill="#000000" stroke="none" stroke-width="0" stroke-linecap="butt"/><g data-paper-data="{&quot;index&quot;:null}" stroke="#000000"><g data-paper-data="{&quot;index&quot;:null}"><path d="M215.68957,167.09578l10.95795,-8.20054l2.34578,3.32609l-11.00995,7.95775z" data-paper-data="{&quot;index&quot;:null}" fill="url(#color-16)" stroke-width="2" stroke-linecap="butt"/><path d="M160.89705,206.11517l52.48578,-39.66433l4.61504,6.16109c0,0 -1.82901,0.87006 -7.73688,5.33474c-6.31245,4.77048 -28.56946,19.27938 -37.77548,26.23652c-4.88735,3.69348 -11.58842,1.93205 -11.58842,1.93205z" data-paper-data="{&quot;index&quot;:null}" fill="url(#color-17)" stroke-width="2" stroke-linecap="butt"/><path d="M213.35696,166.11474l5.18364,6.38498" data-paper-data="{&quot;index&quot;:null}" fill="none" stroke-width="4" stroke-linecap="round"/><path d="M217.83636,165.73332l2.05434,2.78017" data-paper-data="{&quot;index&quot;:null}" fill="none" stroke-width="2" stroke-linecap="round"/><path d="M220.12026,164.38498l1.94621,2.63388" data-paper-data="{&quot;index&quot;:null}" fill="none" stroke-width="1.5" stroke-linecap="round"/><path d="M224.21682,164.93679l-1.89217,-2.56071" data-paper-data="{&quot;index&quot;:null}" fill="none" stroke-width="1.5" stroke-linecap="round"/><path d="M224.64291,161.10966l1.89216,2.5607" data-paper-data="{&quot;index&quot;:null}" fill="none" stroke-width="1.5" stroke-linecap="round"/></g><path d="M215.82011,169.48158c0,0 -39.25185,28.41952 -46.63173,33.745c-2.31251,1.66872 -6.62487,2.15564 -6.62487,2.15564" fill="none" stroke-width="1" stroke-linecap="round"/></g><path d="M262.45455,161.35662" data-paper-data="{&quot;index&quot;:null}" fill="none" stroke="url(#color-18)" stroke-width="10" stroke-linecap="round"/><path d="M258.30177,170.82007c-1.10978,-2.73779 -1.0829,-5.2952 1.53807,-6.35764c1.337,-0.54197 4.67766,-1.78856 6.05691,-1.61192c1.32455,0.16962 2.53562,3.01206 3.07929,4.35328c1.10978,2.73779 -1.24925,5.21228 -3.87025,6.27472c-2.62097,1.06243 -5.69427,0.07938 -6.804,-2.65841z" data-paper-data="{&quot;index&quot;:null}" fill="#000000" stroke="url(#color-19)" stroke-width="0" stroke-linecap="butt"/><path d="M215.36273,167.56308c-0.60359,-2.09703 -0.52405,-3.54544 0.65416,-4.47453c0.41682,-0.32869 0.97115,-0.59239 1.68136,-0.7968c1.38639,-0.39903 4.66978,-1.47298 6.02294,-1.15294c1.29954,0.30733 2.23537,2.55441 2.63566,3.94518c0.81713,2.83891 -1.78797,5.05288 -4.50577,5.83515c-2.71778,0.78227 -5.67127,-0.51707 -6.48839,-3.35598z" data-paper-data="{&quot;index&quot;:null}" fill="#000000" stroke="url(#color-20)" stroke-width="0" stroke-linecap="butt"/><path d="M235.85283,169.26343c-0.06308,-1.66224 -0.24925,-8.56385 -0.24925,-8.56385l6.50581,-0.2469c0,0 0.26029,6.85874 0.3249,8.56097c0.02817,0.74252 -0.52227,1.54463 -1.22824,1.57141c-1.36096,0.05165 -3.39828,0.05188 -4.08795,0.07805c-0.40113,0.01522 -1.23931,-0.71662 -1.26524,-1.39971z" data-paper-data="{&quot;index&quot;:null}" fill="url(#color-21)" stroke="#000000" stroke-width="1" stroke-linecap="butt"/><path d="M235.10356,163.49355c0,0 -0.10461,-2.75661 -0.13464,-3.548c-0.01385,-0.36486 0.64155,-1.03924 1.22237,-1.06128c0.95071,-0.03608 3.74762,-0.14223 5.25337,-0.19937c0.55119,-0.02092 1.07605,0.62892 1.09184,1.04483c0.03093,0.81516 0.13195,3.47672 0.13195,3.47672z" data-paper-data="{&quot;index&quot;:null}" fill="#282828" stroke="#000000" stroke-width="1" stroke-linecap="butt"/><path d="M237.48057,164.58948l-0.10784,-2.84171l2.5667,-0.0974l0.10784,2.84171z" data-paper-data="{&quot;index&quot;:null}" fill="#000000" stroke="none" stroke-width="0" stroke-linecap="butt"/><path d="M246.84407,164.10905l-0.10784,-2.84171l2.5667,-0.0974l0.10784,2.84171z" data-paper-data="{&quot;index&quot;:null}" fill="#000000" stroke="none" stroke-width="0" stroke-linecap="butt"/></g></g></svg>