<svg version="1.1" xmlns="http://www.w3.org/2000/svg" xmlns:xlink="http://www.w3.org/1999/xlink" width="106.78798" height="113.75096" viewBox="0,0,106.78798,113.75096"><defs><radialGradient cx="244.80201" cy="188.69403" r="6.48727" gradientUnits="userSpaceOnUse" id="color-1"><stop offset="0" stop-color="#ff0000"/><stop offset="1" stop-color="#ff0000" stop-opacity="0"/></radialGradient><linearGradient x1="192.57491" y1="234.87868" x2="277.22666" y2="234.87868" gradientUnits="userSpaceOnUse" id="color-2"><stop offset="0" stop-color="#1e0000"/><stop offset="1" stop-color="#400000"/></linearGradient><linearGradient x1="193.29256" y1="254.47725" x2="226.04916" y2="254.47725" gradientUnits="userSpaceOnUse" id="color-3"><stop offset="0" stop-color="#6b0000"/><stop offset="1" stop-color="#ca0000"/></linearGradient><radialGradient cx="233.42469" cy="188.09217" r="6.26737" gradientUnits="userSpaceOnUse" id="color-4"><stop offset="0" stop-color="#ff0000"/><stop offset="1" stop-color="#ff0000" stop-opacity="0"/></radialGradient><radialGradient cx="238.30369" cy="210.93655" r="6.76737" gradientUnits="userSpaceOnUse" id="color-5"><stop offset="0" stop-color="#ff0000"/><stop offset="1" stop-color="#ff0000" stop-opacity="0"/></radialGradient></defs><g transform="translate(-187.72046,-161.29365)"><g data-paper-data="{&quot;isPaintingLayer&quot;:true}" fill-rule="nonzero" stroke-linejoin="miter" stroke-miterlimit="10" stroke-dasharray="" stroke-dashoffset="0" style="mix-blend-mode: normal"><path d="M258.66927,170.51019c1.87155,3.2997 2.46116,7.61632 1.77799,9.35724c-1.59143,4.05542 -7.47108,8.33655 -7.47108,8.33655c0,0 -3.72659,-3.02294 -4.59503,-4.21006c-0.77836,-1.06399 -0.44591,-4.09131 -0.44591,-4.09131c0,0 4.01717,0.07691 6.10231,-1.89512c1.73586,-1.6417 1.61482,-5.33642 1.52601,-5.80658c-0.63709,-3.37275 -1.86559,-7.19769 -1.86559,-7.19769c0,0 3.12455,2.25102 4.97129,5.50698z" data-paper-data="{&quot;index&quot;:null}" fill="#360000" stroke="#000000" stroke-width="2.5" stroke-linecap="butt"/><path d="M221.61134,164.52864c0,0 -1.2285,3.82494 -1.86559,7.19769c-0.08881,0.47016 -0.20985,4.16489 1.52601,5.80659c2.08514,1.97203 6.10231,1.89512 6.10231,1.89512c0,0 0.33245,3.02732 -0.44591,4.09131c-0.86844,1.18712 -3.84512,4.58502 -3.84512,4.58502c0,0 -6.62955,-4.65608 -8.22098,-8.7115c-0.68317,-1.74092 -0.09356,-6.05754 1.77799,-9.35724c1.84674,-3.25597 4.97129,-5.50699 4.97129,-5.50699z" fill="#360000" stroke="#000000" stroke-width="2.5" stroke-linecap="butt"/><path d="M259.20242,203.26969c0,0 15.75743,-4.72561 22.05809,0.37416c8.01502,12.86858 -9.64154,18.35229 -17.17308,23.53685" data-paper-data="{&quot;index&quot;:null}" fill="none" stroke="#000000" stroke-width="17" stroke-linecap="round"/><path d="M216.80917,233.2365c0.0205,-0.01848 -2.48435,-0.47693 -3.79863,-1.29041c-5.29155,-3.27521 -16.63414,-12.30548 -12.3926,-21.54719c5.85292,-8.49771 20.10308,-3.23482 20.10308,-3.23482" fill="none" stroke="#000000" stroke-width="17" stroke-linecap="round"/><path d="M218.5607,229.29217c0,0 13.17025,5.31937 20.99243,5.17579c5.55878,-0.10203 17.96481,-5.2452 18.62365,-3.56288c0.43291,1.10542 3.33834,6.01948 3.33834,6.01948l-0.70277,3.78989l2.61331,4.13389c0,0 -0.95113,4.00007 -0.80526,5.32035c0.2315,2.09534 1.96497,3.96528 1.96497,3.96528l-1.4499,3.85715c0,0 -0.26372,7.21496 -0.40006,8.52837c-0.12173,1.17277 -16.145,0.47472 -16.01687,1.00361c0.07636,0.31522 -3.2774,-19.24772 -5.25663,-21.65353c-1.9899,-2.41879 -2.78708,-0.92179 -2.82469,-0.426c-0.43783,5.76919 -3.40382,21.78197 -3.40382,21.78197c0,0 -4.55119,0.52518 -6.57601,0.52518c-1.95842,0 -9.24672,-1.64454 -9.24672,-1.64454l-0.89419,-5.97517l-1.76681,-4.04779c0,0 1.79301,-3.26198 1.7574,-4.80442c-0.01984,-0.85917 -1.17385,-5.06093 -1.17385,-5.06093l1.54085,-4.94534l-2.38364,-4.56778z" fill="#191919" stroke="#000000" stroke-width="2.5" stroke-linecap="butt"/><path d="M258.67436,203.93416c0,0 15.75743,-4.72561 22.05809,0.37416c8.01502,12.86858 -9.64154,18.35229 -17.17308,23.53685" data-paper-data="{&quot;index&quot;:null}" fill="none" stroke="#101010" stroke-width="13" stroke-linecap="round"/><path d="M216.87737,233.00658c0.0205,-0.01848 -2.48435,-0.47693 -3.79863,-1.29041c-5.29155,-3.27521 -16.63414,-12.30548 -12.3926,-21.54719c5.85292,-8.49771 20.10308,-3.23482 20.10308,-3.23482" fill="none" stroke="#101010" stroke-width="13" stroke-linecap="round"/><path d="M224.23759,190.01269c0,-3.34821 -3.59996,-15.6753 -0.52641,-13.89736c2.51776,1.45644 5.48927,4.29007 5.48927,4.29007l2.80871,-3.7836l3.37815,4.17996c0,0 -0.12508,-8.42683 0.79412,-7.473c0.1113,0.11548 2.83198,2.92509 2.83198,2.92509l4.30051,0.73382l0.13871,3.5822l2.7347,-4.25353c0,0 2.20323,2.55569 2.78471,3.08277c4.43598,4.02093 2.27799,8.94195 2.76447,10.81482c1.40581,5.41219 -5.67325,10.26995 -13.1051,10.26995c-7.43186,0 -14.39378,-4.35471 -14.39378,-10.47117z" data-paper-data="{&quot;index&quot;:null}" fill="#000000" stroke="none" stroke-width="0" stroke-linecap="butt"/><path d="M244.98066,191.05485c-2.25968,0.21061 -4.36525,-1.03126 -4.70298,-2.77379c-0.21913,-1.13061 0.15866,-1.92223 1.20956,-2.58732c0.56875,-0.35995 1.87927,0.62068 2.67278,0.54672c0.95652,-0.08916 1.7773,-0.33621 2.43148,-0.14566c0.89123,0.2596 1.67439,0.4187 1.86916,1.42361c0.33772,1.74252 -1.22028,3.32584 -3.47997,3.53644z" data-paper-data="{&quot;index&quot;:null}" fill="#7b0000" stroke="none" stroke-width="0" stroke-linecap="butt"/><path d="M234.04969,191.56294c-2.25966,0.21061 -4.36525,-1.03126 -4.70298,-2.77378c-0.15961,-0.8235 -0.29813,-1.61146 0.26305,-2.23577c0.62625,-0.69671 2.82985,0.57821 4.02161,0.46714c2.25966,-0.21061 3.56056,-0.73654 3.89829,1.00598c0.33772,1.74252 -1.22028,3.32584 -3.47997,3.53644z" data-paper-data="{&quot;index&quot;:null}" fill="#7b0000" stroke="none" stroke-width="0" stroke-linecap="butt"/><path d="M223.10256,236.63482c-0.49869,-0.9689 -5.00412,-1.81919 -5.00412,-1.81919l-2.48623,-2.02515c0,0 3.27121,-2.69339 3.2053,-3.84971c-0.00364,-0.0639 -0.26277,-2.24079 -0.26277,-2.24079l-3.44918,-1.12791l4.33801,-5.03068l-1.80813,-0.19174c0,0 2.24789,-1.81001 4.91427,-6.6057c3.56844,-6.4181 5.85321,-15.50581 7.31131,-15.50581c2.14662,0 0.94951,2.56365 9.6005,2.45114c10.20331,-0.13267 7.46834,-5.19813 9.29175,-2.82852c0.24197,0.31446 -1.00708,8.63265 1.44067,15.07367c0.45377,1.19404 5.25093,3.30603 7.56463,4.47246c3.64891,1.83956 5.21796,3.87679 5.21796,3.87679l-5.02535,3.01653l5.21555,1.75001l-4.47057,3.42591c0,0 3.52993,1.59189 3.74472,2.41217c0.19329,0.73816 -2.51367,2.28913 -2.51367,2.28913l-5.80304,2.48971c0,0 -8.02257,2.65941 -14.95833,2.83594c0,0 -9.52404,0.25299 -13.98658,-0.37759c-1.13569,-0.16048 -2.04209,-2.42339 -2.0767,-2.49064z" data-paper-data="{&quot;index&quot;:null}" fill="#191919" stroke="#000000" stroke-width="2.5" stroke-linecap="butt"/><path d="M218.93191,269.25248c0,-1.20825 -0.03645,-5.81975 -0.03645,-5.81975l17.05059,0.28269c0,0 0.25881,4.34952 0.25881,5.6005c0,0.81175 -17.27298,0.54767 -17.27298,-0.06344z" fill="#000000" stroke="#000000" stroke-width="2" stroke-linecap="butt"/><path d="M245.35126,268.6391c0,-1.23661 0,-5.36769 0,-5.36769h17.73105c0,0 -0.22786,3.7137 -0.22786,4.97212c0,0.73638 -1.19002,1.89227 -2.86872,1.89227c-3.57585,0 -9.50953,0 -11.62081,0c-1.54425,0 -3.01367,-0.84371 -3.01367,-1.4967z" fill="#000000" stroke="#000000" stroke-width="2" stroke-linecap="butt"/><g fill="#191919" stroke="#000000" stroke-linecap="butt"><g><path d="M216.69664,262.71418c0,0 2.02001,0.25963 3.58301,0.00887c0.44603,-0.07156 -0.34586,-1.587 -0.34586,-1.587c0,0 3.63636,0.47414 4.76648,0.44393c1.26292,-0.03375 2.32178,-1.08031 2.32178,-1.08031c0,0 1.8634,1.25177 2.16389,1.25079c0.63781,-0.00207 2.81638,-0.63747 2.81638,-0.63747l-0.10013,1.77216l3.36313,0.37414c0,0 0.95657,4.30271 -1.88072,4.04468c-0.42339,-0.03851 -2.24705,0.25545 -3.39292,0.22201c-0.69659,-0.02034 -0.72841,-0.32354 -1.23805,-0.42895c-1.2406,-0.2566 -1.21828,-0.53833 -2.25494,-0.54767c-0.98757,-0.0089 -0.95088,0.69865 -1.66338,0.84218c-0.83707,0.1686 -1.67431,-0.87092 -2.461,-1.0472c-0.47059,-0.10545 -1.03044,0.65394 -1.26281,0.6195c-2.24553,-0.33276 -4.15363,-1.28737 -4.15363,-1.28737z" data-paper-data="{&quot;index&quot;:null}" stroke-width="2.5"/><path d="M217.62862,271.48545c0,0 -2.03675,-2.39951 -1.90787,-3.22315c0.15339,-0.98034 2.76754,-2.27108 2.76754,-2.27108c0,0 4.21837,1.29895 6.52186,1.48447c3.51863,0.28338 12.5355,0.05035 12.5355,0.05035l3.33717,3.33826z" stroke-width="2"/></g><g><path d="M244.89663,262.41418c0,0 2.02001,0.25963 3.58301,0.00887c0.44603,-0.07156 -0.34586,-1.587 -0.34586,-1.587c0,0 3.63637,0.47413 4.76648,0.44393c1.26292,-0.03375 2.32179,-1.08031 2.32179,-1.08031c0,0 1.86341,1.25177 2.16388,1.25079c0.63781,-0.00207 2.81637,-0.63747 2.81637,-0.63747l-0.10012,1.77216l3.36313,0.37414c0,0 0.95658,4.30271 -1.88072,4.04468c-0.42338,-0.03851 -2.24705,0.25545 -3.39292,0.22201c-0.69659,-0.02034 -0.72841,-0.32355 -1.23805,-0.42896c-1.2406,-0.2566 -1.21828,-0.53833 -2.25494,-0.54767c-0.98756,-0.00891 -0.95087,0.69865 -1.66338,0.84217c-0.83706,0.16861 -1.67431,-0.87092 -2.461,-1.04719c-0.4706,-0.10544 -1.03044,0.65393 -1.2628,0.61949c-2.24552,-0.33276 -4.15363,-1.28737 -4.15363,-1.28737z" data-paper-data="{&quot;index&quot;:null}" stroke-width="2.5"/><path d="M245.82861,271.18545c0,0 -2.03674,-2.3995 -1.90787,-3.22315c0.15339,-0.98034 2.76754,-2.27108 2.76754,-2.27108c0,0 4.21838,1.29896 6.52186,1.48447c3.51864,0.28338 12.5355,0.05035 12.5355,0.05035l3.33718,3.33827z" stroke-width="2"/></g></g><path d="M238.31474,188.69403c0,-3.58282 2.90445,-6.48727 6.48727,-6.48727c3.58282,0 6.48727,2.90445 6.48727,6.48727c0,3.58282 -2.90445,6.48727 -6.48727,6.48727c-3.58282,0 -6.48727,-2.90445 -6.48727,-6.48727z" fill="url(#color-1)" stroke="none" stroke-width="0" stroke-linecap="butt"/><path d="M258.49311,229.5897c0,0 -4.03504,-0.01522 -5.65614,0.0804c-2.20308,0.12994 -3.93926,3.06786 -5.74185,2.89472c-3.58389,-0.34424 -2.46719,-3.04163 -5.88454,-2.89977c-2.12681,0.08829 -3.7195,3.05639 -5.83194,3.81488c-2.49708,0.8966 -3.22431,-3.64748 -4.76422,-3.64748c-0.35518,0 -4.02076,1.56217 -4.38029,1.56641c-5.19368,0.06125 -7.21921,-2.53023 -7.21921,-2.53023" fill="none" stroke="#000000" stroke-width="2.5" stroke-linecap="round"/><path d="M218.65439,254.09087v-3.57286l10.00475,-1.00041l10.00475,0.85749l-0.70209,4.14453l-9.47153,0.51594z" fill="#000000" stroke="#000000" stroke-width="2.5" stroke-linecap="butt"/><path d="M241.46143,201.00139c-2.36962,-0.71358 -0.23002,-4.83872 -0.23002,-5.90392c0,-0.98865 4.32942,-0.85414 6.20938,-2.59983c1.40557,-1.30519 0.81383,-4.57989 1.17207,-5.94386c0.24184,-0.92075 5.15327,-3.1114 5.15327,-3.1114l-0.2199,13.19445c0,0 -10.22987,4.92316 -12.0848,4.36456z" fill="#191919" stroke="#000000" stroke-width="2" stroke-linecap="butt"/><g stroke="#000000"><g data-paper-data="{&quot;index&quot;:null}"><path d="M226.11916,258.41466l0.56286,4.67267l-5.14251,-0.81054l-0.90928,5.36603l-4.36446,-0.88013l-2.86117,4.48121l-4.80533,-2.49957l-3.03489,3.86579l-3.19589,-4.10003l-3.84695,2.57901l-0.61216,-4.63502l-4.23523,1.82311l-0.18781,-6.65376" fill="#000000" stroke-width="3" stroke-linecap="round"/><g data-paper-data="{&quot;index&quot;:null}"><path d="M195.22421,245.61298c0,0 -2.73187,-1.39971 -2.64738,-2.35659c0.09852,-1.11576 3.20293,-3.93486 3.20293,-3.93486l81.4469,-15.17715l-1.50612,7.60015l-80.49634,13.86842z" fill="url(#color-2)" stroke-width="2.5" stroke-linecap="butt"/><path d="M226.04916,256.86669c0,0 -5.78389,9.60201 -14.06647,10.81931c-13.27418,1.95093 -18.69013,-7.0403 -18.69013,-7.0403l7.96366,-15.42811l20.0191,-4.22614z" fill="url(#color-3)" stroke-width="3" stroke-linecap="round"/></g></g><path d="M211.34085,266.80962l-1.7658,-6.84248" fill="none" stroke-width="2.5" stroke-linecap="round"/><path d="M203.17402,262.17438l1.54507,4.85595" fill="none" stroke-width="2.5" stroke-linecap="round"/><path d="M216.1968,259.08423l1.32435,5.07667" fill="none" stroke-width="2.5" stroke-linecap="round"/></g><path d="M227.15733,188.09217c0,-3.46137 2.80599,-6.26736 6.26736,-6.26736c3.46137,0 6.26737,2.80599 6.26737,6.26736c0,3.46137 -2.806,6.26737 -6.26737,6.26737c-3.46137,0 -6.26736,-2.806 -6.26736,-6.26737z" fill="url(#color-4)" stroke="none" stroke-width="0" stroke-linecap="butt"/><path d="M222.53927,196.99843l0.27389,-11.98694l4.56407,1.43138c0,0 -0.13358,3.68759 -0.09476,5.93913c0.0094,0.54538 6.87581,0.69358 9.2878,2.54082c1.96051,1.50146 -0.4397,4.72241 -0.43092,5.38054c0.01921,1.44089 -8.76212,-1.10585 -8.76212,-1.10585z" fill="#191919" stroke="#000000" stroke-width="2" stroke-linecap="butt"/><path d="M213.99065,217.54903c0,0 0.92227,-2.13278 0.36561,-4.02908c-0.15886,-0.54116 -4.49641,-0.47505 -4.49641,-0.47505c0,0 1.67927,-3.83569 1.70177,-5.12449c0.02515,-1.44024 -2.81769,-3.2024 -2.81769,-3.2024c0,0 3.69781,-1.41606 3.72364,-1.75489c0.05482,-0.71922 -1.52517,-3.51802 -1.52517,-3.51802l4.9748,1.07804l1.37207,-3.58257c0,0 12.19257,1.26674 11.19709,4.32053c-0.14855,0.45571 0.50484,2.66898 0.30183,3.94082c-0.12341,0.77316 -0.97924,0.64384 -1.32417,1.1602c-0.83965,1.25696 -1.62989,1.07834 -1.75473,2.24038c-0.11893,1.107 1.87461,1.45108 2.21052,2.33145c0.39462,1.03423 -2.60871,1.4106 -3.17928,2.20027c-0.34132,0.47238 1.74128,1.5163 1.62232,1.75917c-1.1494,2.34686 -4.01571,3.9751 -4.01571,3.9751z" data-paper-data="{&quot;index&quot;:null}" fill="#191919" stroke="#000000" stroke-width="2.5" stroke-linecap="butt"/><path d="M228.99953,233.67461c0,3.13955 -5.40295,8.30407 -6.67091,9.65695c-0.32259,0.3442 -3.7189,0.25604 -6.90947,-0.62639c-2.48986,-0.68863 -4.95218,-2.15422 -5.09073,-2.35589c-0.30333,-0.4415 -1.202,-7.2222 2.46238,-11.2497c1.99857,-2.19661 6.00457,-1.60129 7.70811,-1.60129c4.82701,0 8.50061,1.22058 8.50061,6.17631z" fill="#000000" stroke="#000000" stroke-width="1.5" stroke-linecap="butt"/><path d="M243.71133,253.84397l-0.90133,-3.96585l9.73434,-1.26186l9.19356,1.26186v4.32638l-9.00309,1.07673z" fill="#000000" stroke="#000000" stroke-width="2.5" stroke-linecap="butt"/><path d="M223.53233,185.21394l-1.31944,-4.68217l1.98474,0.44464l-0.6653,-5.25336l1.76615,1.80142l3.1744,-6.09834l0.07187,2.2643l4.64695,-4.74632c0,0 3.04116,-1.71399 4.3456,-1.71399c1.30632,0 3.03468,0.57588 4.71896,1.29458c0.93519,0.39906 4.17531,4.94179 4.17531,4.94179l0.61581,-2.35643l3.81507,6.89593l1.91756,-2.1564l-0.33638,6.16403l2.09563,-1.35531l-1.75926,4.55562c0,0 -9.99094,2.32843 -14.9537,2.32843c-4.77957,0 -14.29399,-2.32843 -14.29399,-2.32843z" fill="#191919" stroke="#000000" stroke-width="2" stroke-linecap="butt"/><path d="M254.03047,235.79077c-3.97503,-2.95946 -2.76028,-6.63499 0.1223,-10.50677c1.01732,-1.36643 2.9321,-4.93518 5.88752,-5.22649c5.41878,-0.5341 10.32097,4.23602 10.49396,4.74298c0.18027,0.5283 -0.41031,4.22469 -1.44432,6.69515c-1.03401,2.47046 -2.49532,4.61655 -3.32983,4.71128c-1.84235,0.20913 -9.21138,1.45874 -11.72965,-0.41612z" data-paper-data="{&quot;index&quot;:null}" fill="#000000" stroke="#000000" stroke-width="1.5" stroke-linecap="butt"/><path d="M253.54623,217.6069c0,0 -2.86631,-1.62825 -4.01571,-3.9751c-0.11895,-0.24287 1.96364,-1.28679 1.62232,-1.75917c-0.57057,-0.78967 -3.5739,-1.16603 -3.17928,-2.20027c0.33592,-0.88037 2.32945,-1.22446 2.21052,-2.33146c-0.12484,-1.16204 -0.91508,-0.98342 -1.75474,-2.24038c-0.34493,-0.51636 -1.20076,-0.38704 -1.32417,-1.1602c-0.20301,-1.27184 0.45038,-3.48511 0.30183,-3.94082c-0.99547,-3.05379 11.19709,-4.32053 11.19709,-4.32053l1.37207,3.58257l4.97479,-1.07804c0,0 -1.57999,2.7988 -1.52517,3.51802c0.02582,0.33883 3.72364,1.75489 3.72364,1.75489c0,0 -2.84284,1.76217 -2.81769,3.2024c0.0225,1.2888 1.70177,5.12449 1.70177,5.12449c0,0 -4.33755,-0.0661 -4.49641,0.47505c-0.55666,1.8963 0.36561,4.02908 0.36561,4.02908z" fill="#191919" stroke="#000000" stroke-width="2.5" stroke-linecap="butt"/><path d="M261.72731,222.00837c0,0 -4.46368,-0.01522 -6.25699,0.0804c-2.43712,0.12994 -4.35773,3.06786 -6.35181,2.89472c-3.96461,-0.34424 -2.72928,-3.04163 -6.50965,-2.89977c-2.35274,0.08829 -4.11463,3.05639 -6.45148,3.81488c-2.76235,0.8966 -3.56682,-3.64748 -5.27032,-3.64748c-0.39291,0 -4.44788,1.56217 -4.8456,1.56641c-5.74541,0.06125 -7.98611,-2.53023 -7.98611,-2.53023" fill="none" stroke="#000000" stroke-width="2.5" stroke-linecap="round"/><path d="M208.87842,238.36014c0,0 0.88242,-5.05036 1.61106,-6.95583c0.63103,-1.65019 4.61044,-6.45382 4.61044,-6.45382l2.58116,2.00115c0,0 -3.76682,4.39708 -4.4746,6.24796c-0.72178,1.88754 -1.30701,6.05512 -1.30701,6.05512z" fill="#191919" stroke="#000000" stroke-width="2" stroke-linecap="butt"/><path d="M271.07219,230.77523c0,0 -1.71409,-3.84358 -2.92937,-5.45817c-1.19168,-1.58323 -6.0269,-4.76818 -6.0269,-4.76818l1.92766,-2.63649c0,0 5.15187,3.51693 6.21433,4.92848c1.22682,1.62993 3.47048,6.23978 3.47048,6.23978z" data-paper-data="{&quot;index&quot;:null}" fill="#191919" stroke="#000000" stroke-width="2" stroke-linecap="butt"/><g fill="#000000" stroke="#000000" stroke-width="2" stroke-linecap="round"><path d="M226.72349,230.46208l3.32832,0.1802l-2.65205,2.12631"/><path d="M227.4322,233.07848l3.05934,1.32311l-3.22481,1.07479"/><path d="M227.03608,236.61706l2.83208,1.7577l-3.34761,0.58996"/><path d="M225.87487,239.35577l2.04689,2.63067l-3.34449,-0.60742"/><path d="M223.97386,242.0082l1.75867,2.83148l-3.26199,-0.95602"/></g><g fill="#000000" stroke="#000000" stroke-width="2" stroke-linecap="round"><path d="M259.65468,238.32367l-2.19101,2.5119l-0.04294,-3.39893"/><path d="M257.15656,237.27143l-2.92607,1.59633l1.13831,-3.20294"/><path d="M254.61189,234.78083l-3.12864,1.1497l1.59597,-3.00124"/><path d="M253.16856,232.17973l-3.33319,-0.00649l2.53763,-2.26164"/><path d="M252.24866,229.04875l-3.314,-0.35724l2.76155,-1.98202"/></g><path d="M262.33283,241.93909c0,0 -4.39083,-0.01522 -6.15487,0.0804c-2.39733,0.12994 -4.28661,3.06786 -6.24814,2.89472c-3.8999,-0.34424 -2.68473,-3.04163 -6.40341,-2.89977c-2.31434,0.08829 -4.04747,3.05639 -6.34618,3.81488c-2.71726,0.8966 -3.50861,-3.64748 -5.1843,-3.64748c-0.3865,0 -4.37529,1.56217 -4.76653,1.56641c-5.65163,0.06125 -7.85576,-2.53023 -7.85576,-2.53023" fill="none" stroke="#000000" stroke-width="2.5" stroke-linecap="round"/><path d="M222.90091,176.93323c0,0 3.37577,0.19578 6.01505,-0.12897c0.75317,-0.09268 -0.48502,-1.66007 -0.48502,-1.66007c0,0 6.07654,0.35958 7.97575,0.28411c2.12237,-0.08434 3.96318,-1.22877 3.96318,-1.22877c0,0 3.05304,1.248 3.55759,1.23537c1.07098,-0.0268 4.76687,-0.78092 4.76687,-0.78092l-0.27493,1.87254l5.62388,0.2647c0,0 1.34664,4.50009 -3.40136,4.33755c-0.70853,-0.02426 -3.788,0.35611 -5.70979,0.36508c-1.16827,0.00546 -1.20343,-0.31305 -2.05274,-0.40453c-2.06742,-0.22268 -2.01291,-0.52061 -3.75284,-0.49044c-1.65751,0.02874 -1.63854,0.77341 -2.84346,0.95225c-1.41552,0.21009 -2.75852,-0.85372 -4.06866,-1.00922c-0.78374,-0.09303 -1.76941,0.72932 -2.15749,0.70198c-3.74999,-0.2642 -6.89599,-1.19713 -6.89599,-1.19713z" data-paper-data="{&quot;index&quot;:null}" fill="#191919" stroke="#000000" stroke-width="2.5" stroke-linecap="butt"/><path d="M271.14657,205.4405c0,0 2.32288,-0.06013 3.80924,-1.36263c0.42418,-0.3717 -1.45986,-4.27927 -1.45986,-4.27927c0,0 4.18624,-0.08945 5.36499,-0.61101c1.31727,-0.58284 1.72056,-3.90312 1.72056,-3.90312c0,0 2.83979,2.75947 3.15806,2.64041c0.67558,-0.25271 2.55046,-2.86318 2.55046,-2.86318l1.11395,4.96686l3.82737,-0.26172c0,0 3.978,11.59476 0.78874,11.97579c-0.47592,0.05685 -2.20922,1.58041 -3.44849,1.93108c-0.75337,0.21316 -0.99594,-0.61768 -1.60948,-0.71349c-1.49351,-0.23322 -1.66378,-1.0253 -2.77057,-0.64989c-1.05436,0.35762 -0.52823,2.31101 -1.1857,2.98599c-0.7724,0.79296 -2.37685,-1.77363 -3.33323,-1.95922c-0.57212,-0.11104 -0.64346,2.21746 -0.91383,2.21167c-2.61261,-0.05591 -5.29524,-1.97174 -5.29524,-1.97174z" data-paper-data="{&quot;index&quot;:null}" fill="#191919" stroke="#000000" stroke-width="2.5" stroke-linecap="butt"/><path d="M189.50216,217.5971c0,0 2.29715,-0.34994 3.60911,-1.82796c0.3744,-0.42178 -1.98316,-4.0633 -1.98316,-4.0633c0,0 4.14224,-0.61187 5.24658,-1.27665c1.23411,-0.74288 1.21933,-4.08754 1.21933,-4.08754c0,0 3.16236,2.38298 3.46326,2.22508c0.6387,-0.33514 2.17269,-3.15944 2.17269,-3.15944l1.72589,4.78874l3.76467,-0.73793c0,0 5.39572,11.00678 2.27908,11.78335c-0.46508,0.11588 -1.99441,1.84408 -3.18015,2.34686c-0.72082,0.30564 -1.06531,-0.48839 -1.68603,-0.50678c-1.51095,-0.04476 -1.77887,-0.80935 -2.83007,-0.29858c-1.00141,0.48657 -0.2353,2.3589 -0.80327,3.11076c-0.66726,0.88326 -2.57985,-1.46271 -3.55193,-1.52733c-0.58151,-0.03867 -0.36132,2.28048 -0.63029,2.30853c-2.59911,0.271 -5.50013,-1.29458 -5.50013,-1.29458z" data-paper-data="{&quot;index&quot;:null}" fill="#191919" stroke="#000000" stroke-width="2.5" stroke-linecap="butt"/><g stroke-linecap="butt"><path d="M233.42192,210.90621l4.63201,-4.63201l4.63201,4.63201l-4.63201,4.63201z" fill="#d50000" stroke="#000000" stroke-width="2"/><path d="M231.53633,210.93655c0,-3.73751 3.02985,-6.76736 6.76736,-6.76736c3.73751,0 6.76737,3.02985 6.76737,6.76736c0,3.73751 -3.02986,6.76737 -6.76737,6.76737c-3.73751,0 -6.76736,-3.02986 -6.76736,-6.76737z" fill="url(#color-5)" stroke="none" stroke-width="0"/></g></g></g></svg>