<svg version="1.1" xmlns="http://www.w3.org/2000/svg" xmlns:xlink="http://www.w3.org/1999/xlink" width="492.60295" height="365.30274" viewBox="0,0,492.60295,365.30274"><g transform="translate(2.18212,2.39254)"><g data-paper-data="{&quot;isPaintingLayer&quot;:true}" fill="#000000" fill-rule="nonzero" stroke="#000000" stroke-linejoin="miter" stroke-miterlimit="10" stroke-dasharray="" stroke-dashoffset="0" style="mix-blend-mode: normal"><path d="M50.76161,362.73496v-80h189.58608l0.25,17.25l26.11931,0.03225l0.02135,17.23639l27.70908,-0.01561l0.02108,17.34894l27.12643,-0.0856v28.23363z" stroke-width="NaN" stroke-linecap="butt"/><path d="M436.8961,361.85978v-53.84668h47.33859v53.84668z" stroke-width="NaN" stroke-linecap="butt"/><path d="M-1.98547,29.93416v-32.3267h484.07818v32.3267z" stroke-width="0" stroke-linecap="butt"/><path d="M-2.18212,362.9102v-338.5h55.19374v338.5z" stroke-width="0" stroke-linecap="butt"/><path d="M49.0901,73.89657v-48h231v48z" stroke-width="2" stroke-linecap="butt"/><path d="M344.94951,43.93417v-15h33v15z" stroke-width="0" stroke-linecap="butt"/><path d="M348.19122,42.21394v39.92195" stroke-width="2" stroke-linecap="round"/><path d="M352.52456,82.35053v-39.70732" stroke-width="2" stroke-linecap="round"/><path d="M356.85788,41.78463v43.3561" stroke-width="2" stroke-linecap="round"/><path d="M360.85788,42.21395v39.70732" stroke-width="2" stroke-linecap="round"/><path d="M364.85788,81.70659v-39.92195" stroke-width="2" stroke-linecap="round"/><path d="M372.85788,81.70659v-39.06342" stroke-width="2" stroke-linecap="round"/><path d="M347.52456,107.41725v10.28293" stroke-width="2" stroke-linecap="round"/><path d="M351.85788,107.5278v10.22764" stroke-width="2" stroke-linecap="round"/><path d="M360.19122,117.64486v-10.22764" stroke-width="2" stroke-linecap="round"/><path d="M364.19122,107.30666v10.28293" stroke-width="2" stroke-linecap="round"/><path d="M368.85788,41.1408v39.06341" stroke-width="2" stroke-linecap="round"/><path d="M372.19122,117.58958v-10.06179" stroke-width="2" stroke-linecap="round"/><path d="M344.19122,134.47404v-17h30.66667v17z" stroke-width="2" stroke-linecap="butt"/><path d="M355.56441,106.60282l1.25,12.75" stroke-width="2" stroke-linecap="round"/><path d="M368.56441,107.60282l-1,12.75" stroke-width="2" stroke-linecap="round"/><g><path d="M267.2351,133.79548v-27.23943h27.23944v27.23943z" stroke-width="0" stroke-linecap="butt"/><path d="M270.04197,130.94727v-21.58719h21.5872v21.58719z" stroke-width="3" stroke-linecap="butt"/><path d="M272.41076,128.43106v-16.76273h16.76273v16.76273z" stroke-width="0" stroke-linecap="butt"/><path d="M274.70014,126.21965l12.61085,-12.61085" stroke-width="5" stroke-linecap="round"/><path d="M273.96844,128.40057v-17.09142" stroke-width="1" stroke-linecap="round"/><path d="M275.80816,111.24987v17.80355" stroke-width="1" stroke-linecap="round"/><path d="M277.64788,128.99406v-17.56618" stroke-width="1" stroke-linecap="round"/><path d="M279.66553,111.24992v17.44749" stroke-width="1" stroke-linecap="round"/><path d="M281.56462,128.93469v-17.80355" stroke-width="1" stroke-linecap="round"/><path d="M283.64162,111.07176v17.32878" stroke-width="1" stroke-linecap="round"/><path d="M285.59997,111.07177v17.74423" stroke-width="1" stroke-linecap="round"/><path d="M287.6178,111.36863v17.62552" stroke-width="1" stroke-linecap="round"/><path d="M289.56152,111.28053l-17.81041,17.81041" stroke-width="3" stroke-linecap="round"/><path d="M271.71236,129.05194v-18.08203h18.08203v18.08203z" stroke-width="1.25" stroke-linecap="butt"/></g><path d="M414.28517,129.37545v-6.66667h66.16667v6.66667z" data-paper-data="{&quot;index&quot;:null}" stroke-width="NaN" stroke-linecap="butt"/><path d="M476.74919,122.37138c0,0 -5.15065,0.91992 -7.72366,0.91992c-2.66332,0 -7.99466,-0.91992 -7.99466,-0.91992c0,0 -0.5988,-1.7183 -0.5988,-2.63711c0,-1.00589 0.5988,-3.16072 0.5988,-3.16072c0,0 2.76136,-1.1673 7.85916,-1.1673c5.27827,0 7.85916,1.1673 7.85916,1.1673c0,0 0.4491,1.88086 0.4491,2.72517c0,1.04512 -0.4491,3.07267 -0.4491,3.07267z" data-paper-data="{&quot;index&quot;:null}" stroke-width="1.5" stroke-linecap="butt"/><path d="M479.77819,124.61101v2.93119h-64.14574v-2.93119z" data-paper-data="{&quot;index&quot;:null}" stroke-width="NaN" stroke-linecap="butt"/><g data-paper-data="{&quot;index&quot;:null}"><g data-paper-data="{&quot;index&quot;:null}" stroke-width="0.5"><g data-paper-data="{&quot;index&quot;:null}"><path d="M377.11901,106.70951l1.25279,-2.00064l0.9674,1.31828l1.01986,-1.30718l0.71288,1.47964l1.71372,-0.67944l0.23341,1.7272l1.91828,0.09905l0.06973,1.88414l1.49254,0.51498l-0.686,1.80401l1.71794,0.67604l-1.01155,1.32754" stroke-linecap="round"/><g data-paper-data="{&quot;index&quot;:null}"><path d="M374.77405,111.9169l22.12017,18.70161l-0.9049,2.59432l-22.1757,-19.27253c0,0 -0.44271,-1.41966 -0.27239,-1.7785c0.14607,-0.30775 1.2328,-0.24492 1.2328,-0.24492z" stroke-linecap="butt"/><path d="M381.90885,118.01008l-5.36158,-4.88862l0.33682,-6.14782c0,0 3.27122,-1.77607 6.9793,1.20517c2.3137,1.86018 2.35709,5.83508 2.35709,5.83508z" stroke-linecap="round"/></g></g><path d="M381.56027,110.34479l1.48008,-2.02222" stroke-linecap="round"/><path d="M383.71265,111.28689l1.14655,-1.3968" stroke-linecap="round"/><path d="M379.87213,108.6608l1.10281,-1.4985" stroke-linecap="round"/></g><path d="M377.63714,107.96673l0.98251,-1.56901l0.75868,1.03387l0.79984,-1.02516l0.55907,1.16042l1.34399,-0.53285l0.18305,1.35456l1.50442,0.07767l0.05469,1.47765l1.17053,0.40388l-0.53801,1.41481l1.34731,0.53019l-0.79331,1.04112" stroke-width="0" stroke-linecap="round"/><path d="M381.39363,116.82925l-4.20484,-3.83392l0.26415,-4.82146c0,0 2.56546,-1.39288 5.47355,0.94516c1.81453,1.45884 1.84856,4.57618 1.84856,4.57618z" stroke-width="0" stroke-linecap="round"/><path d="M382.28099,109.23177l-1.16076,1.58594" stroke-width="0" stroke-linecap="round"/><path d="M382.80821,111.55657l0.89918,-1.09544" stroke-width="0" stroke-linecap="round"/><path d="M379.79628,109.49703l0.86488,-1.1752" stroke-width="0" stroke-linecap="round"/><path d="M373.9795,112.58547c0.08905,-0.18761 0.93143,-0.0369 0.93143,-0.0369l21.3989,18.34799l-0.49805,1.55739l-21.51577,-18.59401c0,0 -0.42035,-1.0557 -0.31652,-1.27446z" stroke-width="0.5" stroke-linecap="butt"/></g><path d="M344.51517,132.89703v-14.72565h29.72727v14.72565z" stroke-width="0" stroke-linecap="butt"/><path d="M347.83982,129.10224v-6.91666h23.18056v6.91666z" data-paper-data="{&quot;index&quot;:null}" stroke-width="1.75" stroke-linecap="butt"/><path d="M375.86747,29.92142v11.47565h-28.72727v-11.47565z" data-paper-data="{&quot;index&quot;:null}" stroke-width="0" stroke-linecap="butt"/><path d="M349.83986,38.47722v-5.66666h23.18056v5.66666z" data-paper-data="{&quot;index&quot;:null}" stroke-width="1.75" stroke-linecap="butt"/><path d="M235.9534,158.91646l-0.00003,-25.91667h246.10404v25.91667z" data-paper-data="{&quot;index&quot;:null}" stroke-width="0" stroke-linecap="butt"/><path d="M236.93617,200.55486v-43h187.96696v43z" stroke-width="2" stroke-linecap="butt"/><g stroke-linecap="butt"><g stroke-width="2.5"><path d="M479.17085,171.00507v-16h4v16z"/><path d="M489.17084,165.12993h-16v-4h16z"/><g><path d="M485.2885,169.95108l-11.31371,-11.31371l2.82843,-2.82843l11.31371,11.31371z"/><path d="M488.20532,158.72564l-11.3137,11.3137l-2.82843,-2.82842l11.31371,-11.31371z"/></g></g><g stroke-width="0"><path d="M479.04585,171.13007v-16h4v16z"/><path d="M488.79584,165.00493h-16v-4h16z"/><g><path d="M485.1635,170.07608l-11.31371,-11.31371l2.82843,-2.82843l11.31371,11.31371z"/><path d="M488.08032,158.85064l-11.3137,11.3137l-2.82843,-2.82842l11.31371,-11.31371z"/></g></g><g stroke-width="0"><path d="M479.67918,168.18837v-10.2h2.55v10.2z"/><path d="M486.05417,164.44297h-10.2v-2.55h10.2z"/><g><path d="M483.57925,167.51639l-7.21249,-7.21249l1.80312,-1.80312l7.21249,7.21249z"/><path d="M485.43867,160.36023l-7.21249,7.21249l-1.80312,-1.80312l7.21249,-7.21249z"/></g></g><path d="M479.0231,163.13134c0,-1.05855 0.85812,-1.91667 1.91667,-1.91667c1.05855,0 1.91667,0.85812 1.91667,1.91667c0,1.05855 -0.85812,1.91667 -1.91667,1.91667c-1.05855,0 -1.91667,-0.85812 -1.91667,-1.91667z" stroke-width="0.5"/></g><path d="M80.59252,240.28632v-40.58333h345.16666v40.58333z" stroke-width="NaN" stroke-linecap="butt"/><g><path d="M82.58688,194.32908v-85.5h20v85.5z" stroke-width="1.75" stroke-linecap="butt"/><path d="M82.1186,200.2806v-5.75h20.75v5.75z" stroke-width="2" stroke-linecap="butt"/><path d="M82.65827,108.89173v-5.75h20.03571v5.75z" stroke-width="2" stroke-linecap="butt"/><g stroke-width="1.75" stroke-linecap="round"><g><path d="M88.20537,194.49621v-85.30909"/><path d="M91.06378,194.47625v-85.31516"/><path d="M85.42741,194.38535v-85.13334"/></g><g><path d="M96.75085,194.49621v-85.30909"/><path d="M99.60923,109.34295c0,0 0,7.63446 0,14.1638c0,14.63429 0,71.15135 0,71.15135"/><path d="M93.97286,194.47625v-85.22425"/></g></g></g><g><path d="M104.06848,200.29555v-22.23943h22.23944v22.23943z" stroke-width="0" stroke-linecap="butt"/><path d="M106.36013,197.97016v-17.6247h17.62471v17.6247z" stroke-width="3" stroke-linecap="butt"/><path d="M108.29408,195.91585v-13.68581h13.68581v13.68581z" stroke-width="0" stroke-linecap="butt"/><path d="M110.16322,194.11032l10.29604,-10.29604" stroke-width="5" stroke-linecap="round"/><path d="M109.56589,181.93675v13.95416" stroke-width="1" stroke-linecap="round"/><path d="M111.0679,196.42394v-14.53558" stroke-width="1" stroke-linecap="round"/><path d="M112.56992,182.03364v14.34178" stroke-width="1" stroke-linecap="round"/><path d="M114.21722,196.13335v-14.24487" stroke-width="1" stroke-linecap="round"/><path d="M115.76771,196.32701v-14.53558" stroke-width="1" stroke-linecap="round"/><path d="M117.46347,195.89097v-14.14795" stroke-width="1" stroke-linecap="round"/><path d="M119.06236,181.74294v14.48715" stroke-width="1" stroke-linecap="round"/><path d="M120.70979,181.98531v14.39023" stroke-width="1" stroke-linecap="round"/><path d="M107.75551,196.45448l14.54118,-14.54118" stroke-width="3" stroke-linecap="round"/><path d="M107.7239,196.42274v-14.76294h14.76294v14.76294z" stroke-width="1.25" stroke-linecap="butt"/></g><path d="M138.05819,139.62572l17.46922,-12.1287l1.436,2.74719l-17.07869,11.8601z" data-paper-data="{&quot;index&quot;:null}" stroke-width="1.5" stroke-linecap="butt"/><path d="M130.37598,139.01457l-7.57285,-19.87287l3.01186,-0.73337l7.40602,19.42922z" data-paper-data="{&quot;index&quot;:null}" stroke-width="1.5" stroke-linecap="butt"/><path d="M204.66705,135.64542v5.84554h-23.36611v-5.84554z" data-paper-data="{&quot;index&quot;:null}" stroke-width="2" stroke-linecap="butt"/><path d="M169.86378,124.67379v5.84554h-23.36611v-5.84554z" data-paper-data="{&quot;index&quot;:null}" stroke-width="2" stroke-linecap="butt"/><path d="M135.73698,113.6572v5.84554h-23.36611v-5.84554z" data-paper-data="{&quot;index&quot;:null}" stroke-width="2" stroke-linecap="butt"/><g data-paper-data="{&quot;index&quot;:null}" stroke-linecap="butt"><g stroke-width="2.5"><path d="M131.95326,151.4349v-14.38903h3.59726v14.38903z"/><path d="M126.5574,142.55417h14.38903v3.59726h-14.38903z"/><g><path d="M127.50526,147.94341l10.17458,-10.17458l2.54365,2.54365l-10.17458,10.17458z"/><path d="M129.96937,137.84838l10.17458,10.17458l-2.54365,2.54364l-10.17457,-10.17457z"/></g></g><g stroke-width="0"><path d="M132.06571,151.54735v-14.38903h3.59726v14.38903z"/><path d="M126.66984,142.66663h14.38903v3.59726h-14.38903z"/><g><path d="M127.61764,148.05585l10.17458,-10.17458l2.54365,2.54365l-10.17458,10.17458z"/><path d="M130.08175,137.96078l10.17458,10.17458l-2.54365,2.54364l-10.17457,-10.17457z"/></g></g><g stroke-width="0"><path d="M132.80014,148.90177v-9.173h2.29325v9.173z"/><path d="M129.36023,143.24042h9.173v2.29325h-9.173z"/><g><path d="M129.96445,146.67604l6.48629,-6.48629l1.62157,1.62157l-6.48629,6.48629z"/><path d="M131.53537,140.24042l6.48629,6.48629l-1.62157,1.62157l-6.48629,-6.48629z"/></g></g><path d="M133.95976,146.07772c-0.95197,0 -1.72369,-0.77172 -1.72369,-1.72369c0,-0.95197 0.77172,-1.72369 1.72369,-1.72369c0.95197,0 1.72369,0.77172 1.72369,1.72369c0,0.95197 -0.77172,1.72369 -1.72369,1.72369z" stroke-width="0.5"/></g><path d="M388.34996,343.60432l-17.07869,-11.8601l1.436,-2.74719l17.46922,12.1287z" data-paper-data="{&quot;index&quot;:null}" stroke-width="1.5" stroke-linecap="butt"/><path d="M395.01367,339.3376l7.40602,-19.42922l3.01186,0.73337l-7.57285,19.87287z" data-paper-data="{&quot;index&quot;:null}" stroke-width="1.5" stroke-linecap="butt"/><path d="M381.73699,326.17377v5.84554h-23.36611v-5.84554z" data-paper-data="{&quot;index&quot;:null}" stroke-width="2" stroke-linecap="butt"/><path d="M415.86382,315.15718v5.84554h-23.36611v-5.84554z" data-paper-data="{&quot;index&quot;:null}" stroke-width="2" stroke-linecap="butt"/><g data-paper-data="{&quot;index&quot;:null}" stroke-linecap="butt"><g stroke-width="2.5"><path d="M392.68413,352.93498v-14.38903h3.59726v14.38903z"/><path d="M401.67728,347.65151h-14.38903v-3.59726h14.38903z"/><g><path d="M398.18579,351.98711l-10.17458,-10.17458l2.54365,-2.54365l10.17458,10.17458z"/><path d="M400.80893,341.89207l-10.17457,10.17457l-2.54365,-2.54364l10.17458,-10.17458z"/></g></g><g stroke-width="0"><path d="M392.57171,353.04739v-14.38903h3.59726v14.38903z"/><path d="M401.56483,347.76392h-14.38903v-3.59726h14.38903z"/><g><path d="M398.0734,352.09952l-10.17458,-10.17458l2.54365,-2.54365l10.17458,10.17458z"/><path d="M400.69653,342.00448l-10.17457,10.17457l-2.54365,-2.54364l10.17458,-10.17458z"/></g></g><g stroke-width="0"><path d="M393.14129,350.40186v-9.173h2.29325v9.173z"/><path d="M398.87441,347.03371h-9.173v-2.29325h9.173z"/><g><path d="M396.64864,349.79769l-6.48629,-6.48629l1.62157,-1.62157l6.48629,6.48629z"/><path d="M398.32085,343.36202l-6.48629,6.48629l-1.62157,-1.62157l6.48629,-6.48629z"/></g></g><path d="M392.55124,345.85409c0,-0.95197 0.77172,-1.72369 1.72369,-1.72369c0.95197,0 1.72369,0.77172 1.72369,1.72369c0,0.95197 -0.77172,1.72369 -1.72369,1.72369c-0.95197,0 -1.72369,-0.77172 -1.72369,-1.72369z" stroke-width="0.5"/></g><g><path d="M124.23519,282.79544v-23.73943h23.73944v23.73943z" stroke-width="0" stroke-linecap="butt"/><path d="M126.68141,280.31327v-18.81344h18.81345v18.81344z" stroke-width="3" stroke-linecap="butt"/><path d="M128.74578,278.12039v-14.60888h14.60888v14.60888z" stroke-width="0" stroke-linecap="butt"/><path d="M130.74101,276.19311l10.99048,-10.99048" stroke-width="5" stroke-linecap="round"/><path d="M130.10333,278.0938v-14.89533" stroke-width="1" stroke-linecap="round"/><path d="M131.70671,263.14671v15.51596" stroke-width="1" stroke-linecap="round"/><path d="M133.30999,263.3019v15.3091" stroke-width="1" stroke-linecap="round"/><path d="M135.06841,263.14687v15.20566" stroke-width="1" stroke-linecap="round"/><path d="M136.72349,278.55929v-15.51597" stroke-width="1" stroke-linecap="round"/><path d="M138.53365,278.09373v-15.1022" stroke-width="1" stroke-linecap="round"/><path d="M140.24038,278.45581v-15.46427" stroke-width="1" stroke-linecap="round"/><path d="M141.99891,278.61113v-15.36082" stroke-width="1" stroke-linecap="round"/><path d="M128.1709,278.69545l15.52194,-15.52194" stroke-width="3" stroke-linecap="round"/><path d="M128.13717,278.6615v-15.75867h15.75866v15.75867z" stroke-width="1.25" stroke-linecap="butt"/></g><path d="M456.93589,287.0519l6.14805,11.45432l-2.24681,1.20596l-6.14805,-11.45432z" stroke-width="1.25" stroke-linecap="butt"/><path d="M456.62116,285.47238c0,0 0.89118,0.82158 1.15958,1.32163c0.24006,0.44725 0.37529,1.53796 0.37529,1.53796c0,0 -0.78128,0.62398 -1.23332,0.86661c-0.47848,0.25682 -1.56272,0.63415 -1.56272,0.63415c0,0 -0.8009,-0.65339 -1.07431,-1.16276c-0.23107,-0.4305 -0.46056,-1.69682 -0.46056,-1.69682c0,0 0.87106,-0.77448 1.34954,-1.03131c0.45202,-0.24262 1.44649,-0.46945 1.44649,-0.46945z" stroke-width="1.25" stroke-linecap="butt"/><path d="M457.24007,308.79215v-9.14807c0,0 2.97434,-3.00065 8.55994,-3.01348c5.31464,-0.0122 8.44006,3.01348 8.44006,3.01348v9.14807z" stroke-width="NaN" stroke-linecap="butt"/><path d="M459.18551,307.70124v-6.9364c0,0 2.31585,-2.27522 6.66485,-2.28494c4.13803,-0.00925 6.57152,2.28494 6.57152,2.28494v6.9364z" stroke-width="NaN" stroke-linecap="butt"/><path d="M461.26098,303.72436c0,0 3.0296,-0.18182 4.53236,-0.18182c1.54869,0 4.62615,0.18182 4.62615,0.18182l0.5636,2.57143h-10.28571z" data-paper-data="{&quot;index&quot;:null}" stroke-width="1.25" stroke-linecap="round"/><path d="M468.84024,300.94514h-6.42857" stroke-width="1.25" stroke-linecap="round"/><path d="M228.6192,239.54501l2.84153,-3.76092l37.44579,28.29184l-2.84154,3.76093z" stroke-width="2.5" stroke-linecap="butt"/><g stroke-linecap="butt"><g stroke-width="2.5"><path d="M229.49011,247.51157l2.9511,-15.72549l3.93137,0.73777l-2.9511,15.72549z"/><path d="M240.40211,243.5818l-15.72549,-2.9511l0.73777,-3.93137l15.72549,2.9511z"/><g><path d="M235.69722,247.60402l-9.03286,-13.20634l3.30159,-2.25822l9.03286,13.20634z"/><path d="M240.63442,237.1093l-13.20633,9.03285l-2.25822,-3.30158l13.20634,-9.03286z"/></g></g><g stroke-width="0"><path d="M229.34421,247.61136l2.9511,-15.72549l3.93137,0.73777l-2.9511,15.72549z"/><path d="M240.25623,243.68164l-15.72549,-2.9511l0.73777,-3.93137l15.72549,2.9511z"/><g><path d="M235.55127,247.70385l-9.03286,-13.20634l3.30159,-2.25822l9.03286,13.20634z"/><path d="M240.48848,237.20914l-13.20633,9.03285l-2.25822,-3.30158l13.20634,-9.03286z"/></g></g><g stroke-width="0"><path d="M230.50927,244.83692l1.88133,-10.025l2.50625,0.47033l-1.88133,10.025z"/><path d="M237.46567,242.33177l-10.025,-1.88133l0.47033,-2.50625l10.025,1.88133z"/><g><path d="M234.46629,244.89593l-5.75845,-8.41904l2.10476,-1.43961l5.75845,8.41904z"/><path d="M237.61373,238.20555l-8.41904,5.75845l-1.43961,-2.10476l8.41904,-5.75845z"/></g></g><path d="M230.79713,239.74575c0.19524,-1.04039 1.19692,-1.72551 2.2373,-1.53027c1.04039,0.19524 1.72551,1.19692 1.53027,2.2373c-0.19524,1.04039 -1.19692,1.72551 -2.2373,1.53027c-1.04039,-0.19524 -1.72551,-1.19692 -1.53027,-2.2373z" stroke-width="0.5"/></g></g></g></svg>