<svg version="1.1" xmlns="http://www.w3.org/2000/svg" xmlns:xlink="http://www.w3.org/1999/xlink" width="495.65697" height="588.01128" viewBox="0,0,495.65697,588.01128"><defs><linearGradient x1="275.48568" y1="215.36986" x2="284.48568" y2="215.36986" gradientUnits="userSpaceOnUse" id="color-1"><stop offset="0" stop-color="#100b02"/><stop offset="1" stop-color="#27170c"/></linearGradient><linearGradient x1="272.85605" y1="158.98631" x2="286.85601" y2="158.98631" gradientUnits="userSpaceOnUse" id="color-2"><stop offset="0" stop-color="#0c0c0c"/><stop offset="1" stop-color="#1b1b1b"/></linearGradient><linearGradient x1="273.18939" y1="277.39958" x2="287.18939" y2="277.39958" gradientUnits="userSpaceOnUse" id="color-3"><stop offset="0" stop-color="#0c0c0c"/><stop offset="1" stop-color="#1b1b1b"/></linearGradient><radialGradient cx="98.97283" cy="153.24758" r="31.6875" gradientUnits="userSpaceOnUse" id="color-4"><stop offset="0" stop-color="#cca300"/><stop offset="1" stop-color="#cca300" stop-opacity="0"/></radialGradient><linearGradient x1="99.48663" y1="155.35342" x2="99.48663" y2="158.73281" gradientUnits="userSpaceOnUse" id="color-5"><stop offset="0" stop-color="#b58f00"/><stop offset="1" stop-color="#ff0000"/></linearGradient><linearGradient x1="353.06902" y1="28.61981" x2="362.06902" y2="28.61981" gradientUnits="userSpaceOnUse" id="color-6"><stop offset="0" stop-color="#100b02"/><stop offset="1" stop-color="#27170c"/></linearGradient><linearGradient x1="350.4394" y1="37.21963" x2="364.43939" y2="37.21963" gradientUnits="userSpaceOnUse" id="color-7"><stop offset="0" stop-color="#0c0c0c"/><stop offset="1" stop-color="#1b1b1b"/></linearGradient><linearGradient x1="350.77273" y1="90.6496" x2="364.77273" y2="90.6496" gradientUnits="userSpaceOnUse" id="color-8"><stop offset="0" stop-color="#0c0c0c"/><stop offset="1" stop-color="#1b1b1b"/></linearGradient><radialGradient cx="434.97282" cy="129.24758" r="31.6875" gradientUnits="userSpaceOnUse" id="color-9"><stop offset="0" stop-color="#caa100"/><stop offset="1" stop-color="#caa100" stop-opacity="0"/></radialGradient><linearGradient x1="435.48663" y1="130.35342" x2="435.48663" y2="133.73281" gradientUnits="userSpaceOnUse" id="color-10"><stop offset="0" stop-color="#b58f00"/><stop offset="1" stop-color="#ff0000"/></linearGradient><linearGradient x1="192.15235" y1="215.03652" x2="201.15235" y2="215.03652" gradientUnits="userSpaceOnUse" id="color-11"><stop offset="0" stop-color="#100b02"/><stop offset="1" stop-color="#27170c"/></linearGradient><linearGradient x1="189.52272" y1="158.65301" x2="203.52271" y2="158.65301" gradientUnits="userSpaceOnUse" id="color-12"><stop offset="0" stop-color="#0c0c0c"/><stop offset="1" stop-color="#1b1b1b"/></linearGradient><linearGradient x1="189.85606" y1="277.06622" x2="203.85606" y2="277.06622" gradientUnits="userSpaceOnUse" id="color-13"><stop offset="0" stop-color="#0c0c0c"/><stop offset="1" stop-color="#1b1b1b"/></linearGradient><linearGradient x1="320.12834" y1="179.72159" x2="320.12834" y2="184.72858" gradientUnits="userSpaceOnUse" id="color-14"><stop offset="0" stop-color="#232323"/><stop offset="1" stop-color="#0c0c0c"/></linearGradient><linearGradient x1="398.27834" y1="164.77793" x2="398.27834" y2="169.27796" gradientUnits="userSpaceOnUse" id="color-15"><stop offset="0" stop-color="#232323"/><stop offset="1" stop-color="#0c0c0c"/></linearGradient><linearGradient x1="52.27823" y1="266.27772" x2="52.27823" y2="270.77772" gradientUnits="userSpaceOnUse" id="color-16"><stop offset="0" stop-color="#232323"/><stop offset="1" stop-color="#0c0c0c"/></linearGradient><radialGradient cx="52.97943" cy="140.96722" r="12.5" gradientUnits="userSpaceOnUse" id="color-17"><stop offset="0" stop-color="#232323"/><stop offset="1" stop-color="#0c0c0c"/></radialGradient><radialGradient cx="396.66788" cy="53.34671" r="12.5" gradientUnits="userSpaceOnUse" id="color-18"><stop offset="0" stop-color="#232323"/><stop offset="1" stop-color="#0c0c0c"/></radialGradient><radialGradient cx="320.33453" cy="53.68006" r="12.5" gradientUnits="userSpaceOnUse" id="color-19"><stop offset="0" stop-color="#232323"/><stop offset="1" stop-color="#0c0c0c"/></radialGradient><linearGradient x1="483.27846" y1="196.98799" x2="470.52846" y2="184.23799" gradientUnits="userSpaceOnUse" id="color-20"><stop offset="0" stop-color="#180902" stop-opacity="0"/><stop offset="1" stop-color="#180902"/></linearGradient><linearGradient x1="470.68234" y1="170.20564" x2="488.34902" y2="170.20564" gradientUnits="userSpaceOnUse" id="color-21"><stop offset="0" stop-color="#180902"/><stop offset="1" stop-color="#180902" stop-opacity="0"/></linearGradient><linearGradient x1="418.95105" y1="184.80565" x2="418.95105" y2="202.47231" gradientUnits="userSpaceOnUse" id="color-22"><stop offset="0" stop-color="#180902"/><stop offset="1" stop-color="#180902" stop-opacity="0"/></linearGradient><linearGradient x1="354.67997" y1="197.89711" x2="367.42997" y2="185.14711" gradientUnits="userSpaceOnUse" id="color-23"><stop offset="0" stop-color="#180902" stop-opacity="0"/><stop offset="1" stop-color="#180902"/></linearGradient><linearGradient x1="367.36878" y1="145.29469" x2="349.7021" y2="145.29469" gradientUnits="userSpaceOnUse" id="color-24"><stop offset="0" stop-color="#180902"/><stop offset="1" stop-color="#180902" stop-opacity="0"/></linearGradient><linearGradient x1="348.57548" y1="198.81124" x2="366.24213" y2="198.81124" gradientUnits="userSpaceOnUse" id="color-25"><stop offset="0" stop-color="#180902"/><stop offset="1" stop-color="#180902" stop-opacity="0"/></linearGradient><linearGradient x1="358.12033" y1="105.63179" x2="358.12033" y2="123.29844" gradientUnits="userSpaceOnUse" id="color-26"><stop offset="0" stop-color="#180902"/><stop offset="1" stop-color="#180902" stop-opacity="0"/></linearGradient><linearGradient x1="361.71569" y1="305.22918" x2="348.96569" y2="292.47918" gradientUnits="userSpaceOnUse" id="color-27"><stop offset="0" stop-color="#180902" stop-opacity="0"/><stop offset="1" stop-color="#180902"/></linearGradient><linearGradient x1="159.40723" y1="304.61134" x2="170.99066" y2="292.69462" gradientUnits="userSpaceOnUse" id="color-28"><stop offset="0" stop-color="#180902" stop-opacity="0"/><stop offset="1" stop-color="#180902"/></linearGradient><linearGradient x1="95.14898" y1="298.4208" x2="82.23225" y2="285.50417" gradientUnits="userSpaceOnUse" id="color-29"><stop offset="0" stop-color="#180902" stop-opacity="0"/><stop offset="1" stop-color="#180902"/></linearGradient><linearGradient x1="259.67958" y1="292.6434" x2="259.67967" y2="310.31005" gradientUnits="userSpaceOnUse" id="color-30"><stop offset="0" stop-color="#180902"/><stop offset="1" stop-color="#180902" stop-opacity="0"/></linearGradient><linearGradient x1="170.81654" y1="244.2994" x2="153.1498" y2="244.2994" gradientUnits="userSpaceOnUse" id="color-31"><stop offset="0" stop-color="#180902"/><stop offset="1" stop-color="#180902" stop-opacity="0"/></linearGradient><linearGradient x1="126.69153" y1="196.71605" x2="126.69153" y2="214.3827" gradientUnits="userSpaceOnUse" id="color-32"><stop offset="0" stop-color="#180902"/><stop offset="1" stop-color="#180902" stop-opacity="0"/></linearGradient><linearGradient x1="82.19142" y1="241.28548" x2="99.85819" y2="241.28548" gradientUnits="userSpaceOnUse" id="color-33"><stop offset="0" stop-color="#180902"/><stop offset="1" stop-color="#180902" stop-opacity="0"/></linearGradient><linearGradient x1="37.71923" y1="285.63259" x2="37.71923" y2="303.29929" gradientUnits="userSpaceOnUse" id="color-34"><stop offset="0" stop-color="#180902"/><stop offset="1" stop-color="#180902" stop-opacity="0"/></linearGradient><linearGradient x1="479.59902" y1="155.81662" x2="479.59902" y2="173.48342" gradientUnits="userSpaceOnUse" id="color-35"><stop offset="0" stop-color="#180902"/><stop offset="1" stop-color="#180902" stop-opacity="0"/></linearGradient><linearGradient x1="441.36569" y1="11.76136" x2="429.78235" y2="23.67802" gradientUnits="userSpaceOnUse" id="color-36"><stop offset="0" stop-color="#180902" stop-opacity="0"/><stop offset="1" stop-color="#180902"/></linearGradient><linearGradient x1="271.24897" y1="11.96135" x2="282.83228" y2="23.87803" gradientUnits="userSpaceOnUse" id="color-37"><stop offset="0" stop-color="#180902" stop-opacity="0"/><stop offset="1" stop-color="#180902"/></linearGradient><linearGradient x1="153.63225" y1="100.68446" x2="142.04889" y2="112.60111" gradientUnits="userSpaceOnUse" id="color-38"><stop offset="0" stop-color="#180902" stop-opacity="0"/><stop offset="1" stop-color="#180902"/></linearGradient><linearGradient x1="10.76563" y1="100.76137" x2="22.34896" y2="112.67806" gradientUnits="userSpaceOnUse" id="color-39"><stop offset="0" stop-color="#180902" stop-opacity="0"/><stop offset="1" stop-color="#180902"/></linearGradient><linearGradient x1="457.55103" y1="85.07226" x2="457.55103" y2="67.40559" gradientUnits="userSpaceOnUse" id="color-40"><stop offset="0" stop-color="#180902"/><stop offset="1" stop-color="#180902" stop-opacity="0"/></linearGradient><linearGradient x1="429.71768" y1="54.27229" x2="447.38436" y2="54.27229" gradientUnits="userSpaceOnUse" id="color-41"><stop offset="0" stop-color="#180902"/><stop offset="1" stop-color="#180902" stop-opacity="0"/></linearGradient><linearGradient x1="356.30103" y1="23.43891" x2="356.30103" y2="5.77224" gradientUnits="userSpaceOnUse" id="color-42"><stop offset="0" stop-color="#180902"/><stop offset="1" stop-color="#180902" stop-opacity="0"/></linearGradient><linearGradient x1="282.80093" y1="84.35558" x2="265.13428" y2="84.35558" gradientUnits="userSpaceOnUse" id="color-43"><stop offset="0" stop-color="#180902"/><stop offset="1" stop-color="#180902" stop-opacity="0"/></linearGradient><linearGradient x1="212.2177" y1="145.02221" x2="212.2177" y2="127.35558" gradientUnits="userSpaceOnUse" id="color-44"><stop offset="0" stop-color="#180902"/><stop offset="1" stop-color="#180902" stop-opacity="0"/></linearGradient><linearGradient x1="141.55095" y1="128.77221" x2="159.21759" y2="128.77221" gradientUnits="userSpaceOnUse" id="color-45"><stop offset="0" stop-color="#180902"/><stop offset="1" stop-color="#180902" stop-opacity="0"/></linearGradient><linearGradient x1="82.15932" y1="112.43894" x2="82.15932" y2="94.77228" gradientUnits="userSpaceOnUse" id="color-46"><stop offset="0" stop-color="#180902"/><stop offset="1" stop-color="#180902" stop-opacity="0"/></linearGradient><linearGradient x1="22.49263" y1="167.00556" x2="4.8259" y2="167.00556" gradientUnits="userSpaceOnUse" id="color-47"><stop offset="0" stop-color="#180902"/><stop offset="1" stop-color="#180902" stop-opacity="0"/></linearGradient><linearGradient x1="9.15927" y1="221.43894" x2="9.15927" y2="203.77229" gradientUnits="userSpaceOnUse" id="color-48"><stop offset="0" stop-color="#180902"/><stop offset="1" stop-color="#180902" stop-opacity="0"/></linearGradient><radialGradient cx="237.30465" cy="219.41282" r="31.6875" gradientUnits="userSpaceOnUse" id="color-49"><stop offset="0" stop-color="#cea500"/><stop offset="1" stop-color="#cea500" stop-opacity="0"/></radialGradient><linearGradient x1="237.81845" y1="220.51868" x2="237.81845" y2="223.89801" gradientUnits="userSpaceOnUse" id="color-50"><stop offset="0" stop-color="#b58f00"/><stop offset="1" stop-color="#ff0000"/></linearGradient></defs><g transform="translate(6.8136,91.76407)"><g data-paper-data="{&quot;isPaintingLayer&quot;:true}" fill-rule="nonzero" stroke-linejoin="miter" stroke-miterlimit="10" stroke-dasharray="" stroke-dashoffset="0" style="mix-blend-mode: normal"><g stroke="none" stroke-width="0" stroke-linecap="butt"><path d="M275.48568,276.16893v-118.64846h9v118.64846z" fill="url(#color-1)"/><path d="M272.85605,163.17138v-6.62011h14v6.62011z" fill="url(#color-2)"/><path d="M273.18939,281.1846v-6.77011h14c0,0 0.37529,6.63258 -0.2667,6.69678c-2.03543,0.20354 -13.7333,0.07333 -13.7333,0.07333z" fill="url(#color-3)"/></g><g stroke="#000000" stroke-linecap="butt"><path d="M67.2853,153.24758c0,-17.50052 14.18698,-31.6875 31.6875,-31.6875c17.50052,0 31.6875,14.18698 31.6875,31.6875c0,17.50053 -14.18698,31.6875 -31.6875,31.6875c-17.50052,0 -31.6875,-14.18697 -31.6875,-31.6875z" fill="url(#color-4)" stroke-width="0"/><path d="M101.68146,161.41888v3.95204h-4.89971v-3.95204z" fill="#323324" stroke-width="1"/><path d="M99.29285,147.38011c0.33907,-0.45842 0.61784,2.04462 0.59166,2.929c-0.02344,0.79161 0.15883,1.49602 0.08386,2.08609c-0.01159,0.09117 0.10472,1.05691 0.17785,1.32572c0.01914,0.07037 0.54694,-1.26689 0.95195,-1.85811c0.2366,-0.34539 0.5058,-0.39572 0.66246,-0.23831c0.1196,0.12018 0.18793,0.35164 0.22265,0.64319c0.08859,0.74399 -0.04165,1.87931 -0.09694,2.55555c-0.04857,0.59401 -0.02254,1.22305 -0.20004,1.78245c-0.1775,0.5594 -0.83204,1.58019 -0.88234,1.6286c-0.144,0.13859 -1.16059,0.63963 -1.31734,0.63963c-0.26598,0 -0.73816,-0.07472 -1.01281,-0.19919c-0.21345,-0.09674 -1.36238,-0.6838 -1.76552,-1.65358c-0.48287,-1.1616 -1.0065,-2.98487 -1.10044,-3.28986c-0.06579,-0.21361 -0.02559,-3.17825 0.48151,-2.62096c0.53012,0.58259 2.1685,4.07417 2.13903,3.7559c-0.01779,-0.1921 -0.37593,-2.0437 -0.20391,-3.89963c0.12984,-1.40087 0.67184,-2.77999 1.26839,-3.58649z" fill="url(#color-5)" stroke-width="0.75"/><path d="M98.5381,163.37312v-4.66593h1.23858v4.66593z" fill="#311800" stroke-width="0.75"/></g><g stroke="none" stroke-width="0" stroke-linecap="butt"><path d="M353.06902,89.41897v-53.57739h9v53.57739z" fill="url(#color-6)"/><path d="M350.4394,41.40473v-6.37011h14v6.37011z" fill="url(#color-7)"/><path d="M350.77273,94.43464v-6.77011h14c0,0 0.37529,6.63258 -0.2667,6.69678c-2.03543,0.20354 -13.7333,0.07333 -13.7333,0.07333z" fill="url(#color-8)"/></g><g stroke="#000000" stroke-linecap="butt"><path d="M403.28532,129.24758c0,-17.50052 14.18698,-31.6875 31.6875,-31.6875c17.50052,0 31.6875,14.18698 31.6875,31.6875c0,17.50053 -14.18698,31.6875 -31.6875,31.6875c-17.50052,0 -31.6875,-14.18697 -31.6875,-31.6875z" fill="url(#color-9)" stroke-width="0"/><path d="M437.68146,136.41887v3.95204h-4.89971v-3.95204z" fill="#323324" stroke-width="1"/><path d="M435.29284,122.38015c0.33907,-0.45842 0.61784,2.04462 0.59166,2.929c-0.02344,0.79161 0.15883,1.49602 0.08386,2.08609c-0.01159,0.09117 0.10472,1.05691 0.17785,1.32572c0.01914,0.07037 0.54694,-1.26689 0.95195,-1.85811c0.2366,-0.34539 0.5058,-0.39572 0.66246,-0.23831c0.1196,0.12018 0.18793,0.35164 0.22265,0.64319c0.08859,0.74399 -0.04165,1.87931 -0.09694,2.55555c-0.04857,0.59401 -0.02254,1.22305 -0.20004,1.78245c-0.1775,0.5594 -0.83204,1.58019 -0.88234,1.6286c-0.144,0.13859 -1.16059,0.63963 -1.31734,0.63963c-0.26598,0 -0.73816,-0.07472 -1.01281,-0.19919c-0.21345,-0.09674 -1.36238,-0.6838 -1.76552,-1.65358c-0.48287,-1.1616 -1.0065,-2.98487 -1.10044,-3.28986c-0.06579,-0.21361 -0.02559,-3.17825 0.48151,-2.62096c0.53012,0.58259 2.1685,4.07417 2.13903,3.7559c-0.01779,-0.1921 -0.37593,-2.0437 -0.20391,-3.89963c0.12984,-1.40087 0.67184,-2.77999 1.26839,-3.58649z" fill="url(#color-10)" stroke-width="0.75"/><path d="M434.5381,138.37312v-4.66593h1.23858v4.66593z" fill="#311800" stroke-width="0.75"/></g><g fill="none" stroke="#060606" stroke-width="3" stroke-linecap="round"><path d="M408.07715,60.32596v104.66288"/><path d="M387.47714,58.68884v106.41288"/></g><g stroke="none" stroke-width="0" stroke-linecap="butt"><path d="M192.15235,275.83558v-118.64846h9v118.64846z" fill="url(#color-11)"/><path d="M189.52272,162.83802v-6.62011h14v6.62011z" fill="url(#color-12)"/><path d="M189.85606,280.85125v-6.77011h14c0,0 0.37529,6.63258 -0.2667,6.69678c-2.03543,0.20354 -13.7333,0.07333 -13.7333,0.07333z" fill="url(#color-13)"/></g><g fill="none" stroke="#060606" stroke-width="3" stroke-linecap="round"><path d="M324.21022,45.11914l67.75603,-0.99548"/><path d="M323.92134,60.4707l67.75603,-0.99548"/></g><g fill="none" stroke="#060606" stroke-width="3" stroke-linecap="round"><path d="M331.07714,61.27293v119.21591"/><path d="M310.47713,178.6548v-119.21591"/></g><path d="M131.43311,155.64265v-123.10811h162.13063v123.10811z" fill="#000000" stroke="#000000" stroke-width="2.5" stroke-linecap="butt"/><path d="M-3.3054,35.22395v-126.98802h487.48648v126.98802z" data-paper-data="{&quot;index&quot;:null}" fill="#000000" stroke="none" stroke-width="0" stroke-linecap="butt"/><path d="M459.28617,453.98957v-309.67408h24.78721v309.67408z" data-paper-data="{&quot;index&quot;:null}" fill="#000000" stroke="none" stroke-width="0" stroke-linecap="butt"/><path d="M419.41162,95.0583v-62h63.14436v62z" data-paper-data="{&quot;index&quot;:null}" fill="#000000" stroke="#000000" stroke-width="2.5" stroke-linecap="butt"/><path d="M377.79187,447.6324v-272.90914h80.5v272.90914z" fill="#000000" stroke="#000000" stroke-width="2.5" stroke-linecap="butt"/><path d="M338.64048,494.99722v-399.40691h39.03904v399.40691z" fill="#000000" stroke="#000000" stroke-width="2.5" stroke-linecap="butt"/><path d="M183.49933,448.49875v-167.22224h155.14114v167.22224z" fill="#000000" stroke="#000000" stroke-width="2.5" stroke-linecap="butt"/><path d="M307.11028,184.72858v-5.00701h26.03604v5.00701z" fill="url(#color-14)" stroke="#000000" stroke-width="2.5" stroke-linecap="butt"/><path d="M71.13219,451.8109v-266.06598h110.5l-0.00001,266.06599z" fill="#000000" stroke="#000000" stroke-width="2.5" stroke-linecap="butt"/><path d="M383.52834,169.27796v-4.5h29.5v4.5z" fill="url(#color-15)" stroke="#000000" stroke-width="2.5" stroke-linecap="butt"/><path d="M-1.86774,122.93423v-92h136v92z" fill="#000000" stroke="#000000" stroke-width="2.5" stroke-linecap="butt"/><path d="M-1.86774,231.43425v-141.5h34.5v141.5z" fill="#000000" stroke="#000000" stroke-width="2.5" stroke-linecap="butt"/><path d="M-1.86774,467.93427v-193h77v193z" fill="#000000" stroke="#000000" stroke-width="2.5" stroke-linecap="butt"/><path d="M37.52819,270.77772v-4.5h29.5v4.5z" fill="url(#color-16)" stroke="#000000" stroke-width="2.5" stroke-linecap="butt"/><g stroke="#000000" stroke-width="2.5" stroke-linecap="butt"><path d="M49.5283,131.54854v-10.54167h8v10.54167z" fill="#000000"/><path d="M40.47939,140.96722c0,-6.90356 5.59644,-12.5 12.5,-12.5c6.90356,0 12.5,5.59644 12.5,12.5c0,6.90356 -5.59644,12.5 -12.5,12.5c-6.90356,0 -12.5,-5.59644 -12.5,-12.5z" fill="url(#color-17)"/></g><g stroke="#000000" stroke-width="2.5" stroke-linecap="butt"><path d="M394.52834,44.04874v-10.54167h8v10.54167z" fill="#000000"/><path d="M385.47953,53.46722c0,-6.90356 5.59644,-12.5 12.5,-12.5c6.90356,0 12.5,5.59644 12.5,12.5c0,6.90356 -5.59644,12.5 -12.5,12.5c-6.90356,0 -12.5,-5.59644 -12.5,-12.5z" fill="url(#color-18)"/></g><g stroke="#000000" stroke-width="2.5" stroke-linecap="butt"><path d="M317.52824,45.04876v-10.54167h8v10.54167z" fill="#000000"/><path d="M308.47938,54.46722c0,-6.90356 5.59644,-12.5 12.5,-12.5c6.90356,0 12.5,5.59644 12.5,12.5c0,6.90356 -5.59644,12.5 -12.5,12.5c-6.90356,0 -12.5,-5.59644 -12.5,-12.5z" fill="url(#color-19)"/></g><path d="M-1.9919,225.3043h28.43626l-0.14286,-108.99286h112.21893l-0.2,32.3912l148.41736,0.2v-121.52887h139.16019v61.39539h57.70658" data-paper-data="{&quot;index&quot;:null}" fill="none" stroke="#180902" stroke-width="8" stroke-linecap="round"/><path d="M483.27846,196.98799h-12.75v-12.75h12.75z" data-paper-data="{&quot;index&quot;:null}" fill="url(#color-20)" stroke="none" stroke-width="0" stroke-linecap="butt"/><path d="M488.34902,184.43853h-17.66667v-28.46575h17.66667z" data-paper-data="{&quot;index&quot;:null}" fill="url(#color-21)" stroke="#180902" stroke-width="0" stroke-linecap="butt"/><path d="M367.36461,202.47231v-17.66667h103.17282v17.66667z" data-paper-data="{&quot;index&quot;:null}" fill="url(#color-22)" stroke="#180902" stroke-width="0" stroke-linecap="butt"/><path d="M354.67997,185.14711h12.75v12.75h-12.75z" data-paper-data="{&quot;index&quot;:null}" fill="url(#color-23)" stroke="none" stroke-width="0" stroke-linecap="butt"/><path d="M349.7021,105.40318h17.66667v79.78321h-17.66667z" data-paper-data="{&quot;index&quot;:null}" fill="url(#color-24)" stroke="#180902" stroke-width="0" stroke-linecap="butt"/><path d="M366.24213,292.57205h-17.66667v-186.92167h17.66667z" data-paper-data="{&quot;index&quot;:null}" fill="url(#color-25)" stroke="#180902" stroke-width="0" stroke-linecap="butt"/><path d="M348.92103,123.29844v-17.66667h18.3986v17.66667z" data-paper-data="{&quot;index&quot;:null}" fill="url(#color-26)" stroke="#180902" stroke-width="0" stroke-linecap="butt"/><path d="M348.96569,305.22918v-12.75h12.75v12.75z" data-paper-data="{&quot;index&quot;:null}" fill="url(#color-27)" stroke="none" stroke-width="0" stroke-linecap="butt"/><path d="M159.40723,304.61134v-11.91667h11.58334v11.91667z" data-paper-data="{&quot;index&quot;:null}" fill="url(#color-28)" stroke="none" stroke-width="0" stroke-linecap="butt"/><path d="M95.14898,298.4208h-12.91667v-12.91667h12.91667z" data-paper-data="{&quot;index&quot;:null}" fill="url(#color-29)" stroke="none" stroke-width="0" stroke-linecap="butt"/><path d="M170.45628,310.31005v-17.66667h178.44668v17.66667z" data-paper-data="{&quot;index&quot;:null}" fill="url(#color-30)" stroke="#180902" stroke-width="0" stroke-linecap="butt"/><path d="M153.1498,196.43318h17.66667v96.3324h-17.66667z" data-paper-data="{&quot;index&quot;:null}" fill="url(#color-31)" stroke="#180902" stroke-width="0" stroke-linecap="butt"/><path d="M82.70032,214.3827v-17.66667h87.98239v17.66667z" data-paper-data="{&quot;index&quot;:null}" fill="url(#color-32)" stroke="#180902" stroke-width="0" stroke-linecap="butt"/><path d="M99.85819,285.76268h-17.66667v-88.95461h17.66667z" data-paper-data="{&quot;index&quot;:null}" fill="url(#color-33)" stroke="#180902" stroke-width="0" stroke-linecap="butt"/><path d="M-6.81359,303.29929v-17.66667h89.06573v17.66667z" data-paper-data="{&quot;index&quot;:null}" fill="url(#color-34)" stroke="#180902" stroke-width="0" stroke-linecap="butt"/><path d="M470.67166,173.48342v-17.66667h17.85464v17.66667z" data-paper-data="{&quot;index&quot;:null}" fill="url(#color-35)" stroke="#180902" stroke-width="0" stroke-linecap="butt"/><path d="M441.36569,11.76136v11.91667h-11.58333v-11.91667z" data-paper-data="{&quot;index&quot;:null}" fill="url(#color-36)" stroke="none" stroke-width="0" stroke-linecap="butt"/><path d="M282.83228,11.96135v11.91667h-11.58333v-11.91667z" data-paper-data="{&quot;index&quot;:null}" fill="url(#color-37)" stroke="none" stroke-width="0" stroke-linecap="butt"/><path d="M153.63225,100.68446v11.91667h-11.58334v-11.91667z" data-paper-data="{&quot;index&quot;:null}" fill="url(#color-38)" stroke="none" stroke-width="0" stroke-linecap="butt"/><path d="M22.34896,100.76137v11.91667h-11.58333v-11.91667z" data-paper-data="{&quot;index&quot;:null}" fill="url(#color-39)" stroke="none" stroke-width="0" stroke-linecap="butt"/><path d="M485.23744,67.40559v17.66667h-55.37282v-17.66667z" data-paper-data="{&quot;index&quot;:null}" fill="url(#color-40)" stroke="#180902" stroke-width="0" stroke-linecap="butt"/><path d="M447.38436,85.05867h-17.66667v-61.57282h17.66667z" data-paper-data="{&quot;index&quot;:null}" fill="url(#color-41)" stroke="#180902" stroke-width="0" stroke-linecap="butt"/><path d="M429.83744,5.77224v17.66667h-147.07282v-17.66667z" data-paper-data="{&quot;index&quot;:null}" fill="url(#color-42)" stroke="#180902" stroke-width="0" stroke-linecap="butt"/><path d="M265.13428,23.73583h17.66667v121.23949h-17.66667z" data-paper-data="{&quot;index&quot;:null}" fill="url(#color-43)" stroke="#180902" stroke-width="0" stroke-linecap="butt"/><path d="M282.75401,127.35558v17.66667h-141.07282v-17.66667z" data-paper-data="{&quot;index&quot;:null}" fill="url(#color-44)" stroke="#180902" stroke-width="0" stroke-linecap="butt"/><path d="M159.21759,145.05865h-17.66667v-32.57282h17.66667z" data-paper-data="{&quot;index&quot;:null}" fill="url(#color-45)" stroke="#180902" stroke-width="0" stroke-linecap="butt"/><path d="M142.17067,94.77228v17.66667h-120.02282v-17.66667z" data-paper-data="{&quot;index&quot;:null}" fill="url(#color-46)" stroke="#180902" stroke-width="0" stroke-linecap="butt"/><path d="M4.8259,112.54421h17.66667v108.92282h-17.66667z" data-paper-data="{&quot;index&quot;:null}" fill="url(#color-47)" stroke="#180902" stroke-width="0" stroke-linecap="butt"/><path d="M22.32071,203.77229v17.66667h-26.32282v-17.66667z" data-paper-data="{&quot;index&quot;:null}" fill="url(#color-48)" stroke="#180902" stroke-width="0" stroke-linecap="butt"/><path d="M187.53622,280.80458v-3.06481h5.16666v3.06481z" fill="#000000" stroke="#333333" stroke-width="0" stroke-linecap="butt"/><path d="M199.53622,280.97121v-3.06482h5.16666v3.06482z" fill="#000000" stroke="#333333" stroke-width="0" stroke-linecap="butt"/><path d="M211.36956,281.13786v-3.06481h5.16666v3.06481z" fill="#000000" stroke="#333333" stroke-width="0" stroke-linecap="butt"/><path d="M223.53622,280.97121v-3.06482h5.16666v3.06482z" fill="#000000" stroke="#333333" stroke-width="0" stroke-linecap="butt"/><path d="M240.53622,278.07311v3.06481h-5.16666v-3.06481z" data-paper-data="{&quot;index&quot;:null}" fill="#000000" stroke="#333333" stroke-width="0" stroke-linecap="butt"/><path d="M252.53622,278.07304v3.06482h-5.16666v-3.06482z" data-paper-data="{&quot;index&quot;:null}" fill="#000000" stroke="#333333" stroke-width="0" stroke-linecap="butt"/><path d="M264.36951,278.23976v3.06481h-5.16666v-3.06481z" data-paper-data="{&quot;index&quot;:null}" fill="#000000" stroke="#333333" stroke-width="0" stroke-linecap="butt"/><path d="M276.53621,278.07304v3.06482h-5.16667v-3.06482z" data-paper-data="{&quot;index&quot;:null}" fill="#000000" stroke="#333333" stroke-width="0" stroke-linecap="butt"/><path d="M288.67904,278.07304v3.06482h-5.16667v-3.06482z" data-paper-data="{&quot;index&quot;:null}" fill="#000000" stroke="#333333" stroke-width="0" stroke-linecap="butt"/><path d="M300.53621,278.21594v3.06482h-5.16667v-3.06482z" data-paper-data="{&quot;index&quot;:null}" fill="#000000" stroke="#333333" stroke-width="0" stroke-linecap="butt"/><path d="M312.67904,278.35877v3.06482h-5.16667v-3.06482z" data-paper-data="{&quot;index&quot;:null}" fill="#000000" stroke="#333333" stroke-width="0" stroke-linecap="butt"/><path d="M324.53621,278.50167v3.06482h-5.16667v-3.06482z" data-paper-data="{&quot;index&quot;:null}" fill="#000000" stroke="#333333" stroke-width="0" stroke-linecap="butt"/><path d="M336.25051,278.50167v3.06482h-5.16667v-3.06482z" data-paper-data="{&quot;index&quot;:null}" fill="#000000" stroke="#333333" stroke-width="0" stroke-linecap="butt"/><path d="M334.63446,283.34031h2.8288h-154.55h2.97121" fill="none" stroke="#141414" stroke-width="3" stroke-linecap="round"/><g stroke="#000000"><path d="M295.17778,280.99926c0,0 -3.77819,-13.13253 -4.73555,-17.28436c-0.53924,-2.33855 -0.51445,-5.48365 -0.51445,-5.48365h31.81802c0,0 -0.07168,3.35317 -0.52481,5.41655c-0.89245,4.06385 -4.47519,17.35147 -4.47519,17.35147z" fill="#000000" stroke-width="2.5" stroke-linecap="butt"/><path d="M296.34988,279.99933c0,0 -3.38803,-11.65773 -4.24653,-15.34331c-0.48356,-2.07593 -0.46133,-4.86783 -0.46133,-4.86783h28.53232c0,0 -0.06428,2.97661 -0.47062,4.80827c-0.80029,3.60748 -4.01306,15.40288 -4.01306,15.40288z" fill="#190f07" stroke-width="0" stroke-linecap="butt"/><path d="M289.57016,264.3628v-5.725h32.55v5.725z" fill="#141414" stroke-width="2.5" stroke-linecap="butt"/><path d="M296.27982,264.89761l5,15.71429" fill="none" stroke-width="2.5" stroke-linecap="round"/><path d="M292.40774,278.81282c0,-2.14011 1.73489,-3.875 3.875,-3.875c2.14011,0 3.875,1.73489 3.875,3.875c0,2.14011 -1.73489,3.875 -3.875,3.875c-2.14011,0 -3.875,-1.73489 -3.875,-3.875z" fill="#191919" stroke-width="2.5" stroke-linecap="butt"/><path d="M310.42269,280.89761l5,-15.71428" data-paper-data="{&quot;index&quot;:null}" fill="none" stroke-width="2.5" stroke-linecap="round"/><path d="M311.40774,278.87532c0,-2.17462 1.76288,-3.9375 3.9375,-3.9375c2.17462,0 3.9375,1.76288 3.9375,3.9375c0,2.17462 -1.76288,3.9375 -3.9375,3.9375c-2.17462,0 -3.9375,-1.76288 -3.9375,-3.9375z" fill="#191919" stroke-width="2.5" stroke-linecap="butt"/><path d="M313.27979,270.04053h-15.42857" fill="none" stroke-width="2.5" stroke-linecap="round"/><path d="M300.27982,275.58002h10.57143" fill="none" stroke-width="2.5" stroke-linecap="round"/></g><g fill="none" stroke="#000000" stroke-width="4" stroke-linecap="round"><g><path d="M57.93746,136.39614l-9.79847,9.79847"/><path d="M48.0747,136.58901l9.79848,9.79848"/></g><g><path d="M52.92069,147.92459v-13.85715"/><path d="M59.94017,141.17783h-13.85714"/></g></g><g fill="none" stroke="#000000" stroke-width="4" stroke-linecap="round"><g><path d="M316.13898,59.52797l9.79847,-9.79848"/><path d="M325.87316,59.72081l-9.79848,-9.79848"/></g><g><path d="M320.92067,61.25795v-13.85714"/><path d="M314.08301,54.51118h13.85714"/></g></g><g fill="none" stroke="#000000" stroke-width="4" stroke-linecap="round"><g><path d="M393.539,58.59464l9.79847,-9.79848"/><path d="M393.47471,48.98899l9.79848,9.79848"/></g><g><path d="M398.32066,60.32461v-13.85714"/><path d="M405.34014,53.57787h-13.85714"/></g></g><g fill="none" stroke="#060606" stroke-width="3" stroke-linecap="round"><path d="M63.07712,149.48888v117"/><path d="M42.47713,147.68882v117"/></g><g stroke="#000000" stroke-linecap="butt"><path d="M205.61714,219.41282c0,-17.50052 14.18698,-31.6875 31.6875,-31.6875c17.50052,0 31.6875,14.18698 31.6875,31.6875c0,17.50053 -14.18698,31.6875 -31.6875,31.6875c-17.50052,0 -31.6875,-14.18697 -31.6875,-31.6875z" fill="url(#color-49)" stroke-width="0"/><path d="M240.01328,226.58407v3.95204h-4.89971v-3.95204z" fill="#323324" stroke-width="1"/><path d="M237.62467,212.54534c0.33907,-0.45842 0.61784,2.04462 0.59166,2.929c-0.02344,0.79161 0.15883,1.49602 0.08386,2.08609c-0.01159,0.09117 0.10472,1.05691 0.17785,1.32572c0.01914,0.07037 0.54694,-1.26689 0.95195,-1.85811c0.2366,-0.34539 0.5058,-0.39572 0.66246,-0.23831c0.1196,0.12018 0.18793,0.35164 0.22265,0.64319c0.08859,0.74399 -0.04165,1.87931 -0.09694,2.55555c-0.04857,0.59401 -0.02254,1.22305 -0.20004,1.78245c-0.1775,0.5594 -0.83204,1.58019 -0.88234,1.6286c-0.144,0.13859 -1.16059,0.63963 -1.31734,0.63963c-0.26598,0 -0.73816,-0.07472 -1.01281,-0.19919c-0.21345,-0.09674 -1.36238,-0.6838 -1.76552,-1.65358c-0.48287,-1.1616 -1.0065,-2.98487 -1.10044,-3.28986c-0.06579,-0.21361 -0.02559,-3.17825 0.48151,-2.62096c0.53012,0.58259 2.1685,4.07417 2.13903,3.7559c-0.01779,-0.1921 -0.37593,-2.0437 -0.20391,-3.89963c0.12984,-1.40087 0.67184,-2.77999 1.26839,-3.58649z" fill="url(#color-50)" stroke-width="0.75"/><path d="M236.86992,228.53832v-4.66593h1.23858v4.66593z" fill="#311800" stroke-width="0.75"/></g><path d="M484.84338,152.24561h-17.89077v28.63333l-95.59997,0.33334v-79.56753h-26.33334v187.05646h-170.38426v-95.99115l-95.84317,0.25l-0.5,88.75h-79.67361" data-paper-data="{&quot;index&quot;:null}" fill="none" stroke="#180902" stroke-width="8" stroke-linecap="round"/></g></g></svg>