<svg version="1.1" xmlns="http://www.w3.org/2000/svg" xmlns:xlink="http://www.w3.org/1999/xlink" width="558.9803" height="362.50306" viewBox="0,0,558.9803,362.50306"><defs><linearGradient x1="327.86636" y1="228.16678" x2="327.86636" y2="274.28873" gradientUnits="userSpaceOnUse" id="color-1"><stop offset="0" stop-color="#0f0f0f"/><stop offset="1" stop-color="#000000"/></linearGradient><radialGradient cx="305.4869" cy="279.19954" r="13.375" gradientUnits="userSpaceOnUse" id="color-2"><stop offset="0" stop-color="#0b0b0b"/><stop offset="1" stop-color="#0c0c0c"/></radialGradient><linearGradient x1="399.66352" y1="102.73338" x2="399.66352" y2="125.0667" gradientUnits="userSpaceOnUse" id="color-3"><stop offset="0" stop-color="#02f220"/><stop offset="1" stop-color="#00b227"/></linearGradient><linearGradient x1="438.96352" y1="212.33342" x2="438.96352" y2="234.66678" gradientUnits="userSpaceOnUse" id="color-4"><stop offset="0" stop-color="#02f220"/><stop offset="1" stop-color="#00b227"/></linearGradient><linearGradient x1="300.13006" y1="289.08341" x2="300.13006" y2="311.4167" gradientUnits="userSpaceOnUse" id="color-5"><stop offset="0" stop-color="#02f220"/><stop offset="1" stop-color="#00b227"/></linearGradient><linearGradient x1="399.36352" y1="43.10396" x2="399.36352" y2="65.43729" gradientUnits="userSpaceOnUse" id="color-6"><stop offset="0" stop-color="#02f220"/><stop offset="1" stop-color="#00b227"/></linearGradient><linearGradient x1="198.96353" y1="269.30404" x2="198.96353" y2="291.63739" gradientUnits="userSpaceOnUse" id="color-7"><stop offset="0" stop-color="#02f220"/><stop offset="1" stop-color="#00b227"/></linearGradient><linearGradient x1="177.96344" y1="269.30404" x2="177.96344" y2="291.63739" gradientUnits="userSpaceOnUse" id="color-8"><stop offset="0" stop-color="#02f220"/><stop offset="1" stop-color="#00b227"/></linearGradient><linearGradient x1="41.56345" y1="43.22896" x2="41.56345" y2="65.56229" gradientUnits="userSpaceOnUse" id="color-9"><stop offset="0" stop-color="#02f220"/><stop offset="1" stop-color="#00b227"/></linearGradient><linearGradient x1="41.39678" y1="286.90681" x2="41.39678" y2="309.24015" gradientUnits="userSpaceOnUse" id="color-10"><stop offset="0" stop-color="#02f220"/><stop offset="1" stop-color="#00b227"/></linearGradient><linearGradient x1="411.44109" y1="260.90987" x2="411.54658" y2="283.0861" gradientUnits="userSpaceOnUse" id="color-11"><stop offset="0" stop-color="#000000"/><stop offset="1" stop-color="#d95a5a"/></linearGradient><linearGradient x1="224.36315" y1="245.20036" x2="289.42787" y2="245.20036" gradientUnits="userSpaceOnUse" id="color-12"><stop offset="0" stop-color="#414141"/><stop offset="1" stop-color="#262626"/></linearGradient><linearGradient x1="278.28031" y1="192.3875" x2="278.28031" y2="234.51597" gradientUnits="userSpaceOnUse" id="color-13"><stop offset="0" stop-color="#b40000"/><stop offset="1" stop-color="#550000"/></linearGradient><linearGradient x1="256.9756" y1="228.68899" x2="270.03963" y2="228.68899" gradientUnits="userSpaceOnUse" id="color-14"><stop offset="0" stop-color="#313131"/><stop offset="1" stop-color="#191919"/></linearGradient><linearGradient x1="265.74172" y1="225.99487" x2="261.27342" y2="231.3832" gradientUnits="userSpaceOnUse" id="color-15"><stop offset="0" stop-color="#000000"/><stop offset="1" stop-color="#000000"/></linearGradient><linearGradient x1="242.2184" y1="120.26044" x2="242.2184" y2="201.26045" gradientUnits="userSpaceOnUse" id="color-16"><stop offset="0" stop-color="#323232"/><stop offset="1" stop-color="#4c4c4c"/></linearGradient><linearGradient x1="159.2934" y1="184.76045" x2="159.2934" y2="194.01045" gradientUnits="userSpaceOnUse" id="color-17"><stop offset="0" stop-color="#323232"/><stop offset="1" stop-color="#4b4b4b"/></linearGradient><radialGradient cx="305.16292" cy="278.56399" r="6.27857" gradientUnits="userSpaceOnUse" id="color-18"><stop offset="0" stop-color="#aa0303"/><stop offset="1" stop-color="#df0404"/></radialGradient><linearGradient x1="269.74595" y1="235.60661" x2="269.74595" y2="271.04913" gradientUnits="userSpaceOnUse" id="color-19"><stop offset="0" stop-color="#e50505"/><stop offset="1" stop-color="#ae0000"/></linearGradient><linearGradient x1="232.37488" y1="225.48439" x2="252.92583" y2="225.48439" gradientUnits="userSpaceOnUse" id="color-20"><stop offset="0" stop-color="#02f020"/><stop offset="1" stop-color="#01861a"/></linearGradient><linearGradient x1="438.56353" y1="288.58341" x2="438.56353" y2="310.9167" gradientUnits="userSpaceOnUse" id="color-21"><stop offset="0" stop-color="#02f220"/><stop offset="1" stop-color="#00b227"/></linearGradient><linearGradient x1="156.5634" y1="286.93737" x2="156.5634" y2="309.27072" gradientUnits="userSpaceOnUse" id="color-22"><stop offset="0" stop-color="#02f220"/><stop offset="1" stop-color="#00b227"/></linearGradient><linearGradient x1="233.32751" y1="160.48699" x2="250.99415" y2="160.48699" gradientUnits="userSpaceOnUse" id="color-23"><stop offset="0" stop-color="#02f020"/><stop offset="1" stop-color="#01861a"/></linearGradient><radialGradient cx="305.29278" cy="278.23672" r="11.01666" gradientUnits="userSpaceOnUse" id="color-24"><stop offset="0" stop-color="#df0404"/><stop offset="1" stop-color="#df0404" stop-opacity="0"/></radialGradient><linearGradient x1="434.43339" y1="142.17537" x2="434.43339" y2="161.17537" gradientUnits="userSpaceOnUse" id="color-25"><stop offset="0" stop-color="#02f220"/><stop offset="1" stop-color="#00b227"/></linearGradient><linearGradient x1="272.70024" y1="338.75007" x2="272.70024" y2="348.0834" gradientUnits="userSpaceOnUse" id="color-26"><stop offset="0" stop-color="#02f220"/><stop offset="1" stop-color="#00b227"/></linearGradient></defs><g transform="translate(1.89415,0.49999)"><g data-paper-data="{&quot;isPaintingLayer&quot;:true}" fill-rule="nonzero" stroke-linejoin="miter" stroke-miterlimit="10" stroke-dasharray="" stroke-dashoffset="0" style="mix-blend-mode: normal"><path d="M255.41651,228.16676l144.9,46.12201" fill="none" stroke="url(#color-1)" stroke-width="5" stroke-linecap="round"/><path d="M288.53819,288.11579l-67.17514,-67.17514c0,0 0.47228,-9.47228 2.90317,-11.90317c2.72164,-2.72164 12.31984,-3.31984 12.31984,-3.31984l67.50847,66.84181z" fill="#000000" stroke="none" stroke-width="0" stroke-linecap="butt"/><path d="M286.41634,279.4167c0,-10.0792 8.1708,-18.25 18.25,-18.25c10.0792,0 18.25,8.1708 18.25,18.25c0,10.0792 -8.1708,18.25 -18.25,18.25c-10.0792,0 -18.25,-8.1708 -18.25,-18.25z" fill="#000000" stroke="none" stroke-width="0" stroke-linecap="butt"/><path d="M292.1119,279.19954c0,-7.38681 5.98819,-13.375 13.375,-13.375c7.38681,0 13.375,5.98819 13.375,13.375c0,7.38681 -5.98819,13.375 -13.375,13.375c-7.38681,0 -13.375,-5.98819 -13.375,-13.375z" fill="url(#color-2)" stroke="none" stroke-width="0" stroke-linecap="butt"/><path d="M98.47429,182.91973l127.14056,-59.90123" fill="none" stroke="#0a0a0a" stroke-width="2.5" stroke-linecap="round"/><path d="M427.25887,290.25005v-79h55.5428v79z" data-paper-data="{&quot;index&quot;:null}" fill="#000000" stroke="none" stroke-width="0" stroke-linecap="butt"/><path d="M288.48158,362.00308v-75.5045h196.12491v75.5045z" data-paper-data="{&quot;index&quot;:null}" fill="#000000" stroke="none" stroke-width="0" stroke-linecap="butt"/><path d="M387.85474,176.58342v-111.33333h93.69198v111.33333z" data-paper-data="{&quot;index&quot;:null}" fill="#000000" stroke="#000000" stroke-width="0.5" stroke-linecap="butt"/><path d="M-1.89414,66.50002v-67h483.49141v67z" data-paper-data="{&quot;index&quot;:null}" fill="#000000" stroke="none" stroke-width="0" stroke-linecap="butt"/><path d="M-1.8493,287.50005v-222.5h54.99884v222.5z" fill="#000000" stroke="none" stroke-width="0" stroke-linecap="butt"/><path d="M-1.85342,361.0001v-75h212.67078v75z" fill="#000000" stroke="none" stroke-width="0" stroke-linecap="butt"/><path d="M394.72901,288.75005v-33h33v33z" fill="#000000" stroke="none" stroke-width="0" stroke-linecap="butt"/><path d="M253.69544,225.71639l11.37242,-37.30507l37.30507,11.37242l-11.37242,37.30507z" fill="#000000" stroke="#000000" stroke-width="0.5" stroke-linecap="butt"/><path d="M342.91651,160.83335v-12h45.5v12z" fill="#000000" stroke="none" stroke-width="0" stroke-linecap="butt"/><path d="M94.58546,198.33342c0,0 -1.83568,-5.45955 -1.83568,-8.25c0,-2.87377 1.83568,-8.75 1.83568,-8.75h128.99766l-0.06995,17z" fill="#000000" stroke="none" stroke-width="0" stroke-linecap="butt"/><path d="M52.5831,287.1667v-45.5h65.33334v45.5z" fill="#000000" stroke="none" stroke-width="0" stroke-linecap="butt"/><path d="M166.16831,287.1667v-19h44.5v19z" fill="#000000" stroke="none" stroke-width="0" stroke-linecap="butt"/><path d="M255.47935,360.09158v-34h34v34z" fill="#000000" stroke="none" stroke-width="0" stroke-linecap="butt"/><path d="M388.96353,125.0667v-22.33334h21.40001v22.33334z" fill="url(#color-3)" stroke="#000000" stroke-width="2" stroke-linecap="butt"/><path d="M410.3684,125.16591v-11.5h114.63461v11.5z" data-paper-data="{&quot;index&quot;:null}" fill="#606060" stroke="#000000" stroke-width="2" stroke-linecap="butt"/><path d="M223.26277,206.17715v-90.16667h38.2v90.16667z" fill="#000000" stroke="#000000" stroke-width="0" stroke-linecap="butt"/><path d="M428.26352,234.66678v-22.33334h21.40001v22.33334z" fill="url(#color-4)" stroke="#000000" stroke-width="2" stroke-linecap="butt"/><path d="M556.08615,212.24932v11.5h-106.38461v-11.5z" data-paper-data="{&quot;index&quot;:null}" fill="#606060" stroke="#000000" stroke-width="2" stroke-linecap="butt"/><path d="M389.72113,176.04376l0.33087,-48.86666h89.00246v48.86666z" fill="#232323" stroke="#000000" stroke-width="2.5" stroke-linecap="butt"/><path d="M289.43003,311.4167v-22.33334h21.40001v22.33334z" fill="url(#color-5)" stroke="#000000" stroke-width="2" stroke-linecap="butt"/><path d="M428.14396,234.807h11.5v53.88461h-11.5z" data-paper-data="{&quot;index&quot;:null}" fill="#606060" stroke="#000000" stroke-width="2" stroke-linecap="butt"/><path d="M427.83633,288.94211v11.5h-116.88461v-11.5z" data-paper-data="{&quot;index&quot;:null}" fill="#606060" stroke="#000000" stroke-width="2" stroke-linecap="butt"/><path d="M388.66352,65.43729v-22.33334h21.40001v22.33334z" fill="url(#color-6)" stroke="#000000" stroke-width="2" stroke-linecap="butt"/><path d="M188.26349,291.63739v-22.33334h21.40001v22.33334z" fill="url(#color-7)" stroke="#000000" stroke-width="2" stroke-linecap="butt"/><path d="M167.26335,291.63739v-22.33334h21.40001v22.33334z" fill="url(#color-8)" stroke="#000000" stroke-width="2" stroke-linecap="butt"/><path d="M30.86346,65.56229v-22.33334h21.40001v22.33334z" fill="url(#color-9)" stroke="#000000" stroke-width="2" stroke-linecap="butt"/><path d="M30.69678,309.24015v-22.33334h21.40001v22.33334z" fill="url(#color-10)" stroke="#000000" stroke-width="2" stroke-linecap="butt"/><path d="M396.25991,286.26689l-0.14292,-28.78976l30.79805,-0.13362l0.14293,28.78976z" fill="#000000" stroke="none" stroke-width="0" stroke-linecap="butt"/><path d="M400.16539,283.13758l-0.10564,-22.17622l22.76256,-0.10291l0.10564,22.17622z" fill="url(#color-11)" stroke="#3d230b" stroke-width="6.5" stroke-linecap="butt"/><path d="M401.81525,281.10574l-0.0874,-18.22099l18.82939,-0.08457l0.08738,18.22101z" fill="none" stroke="#000000" stroke-width="5" stroke-linecap="butt"/><path d="M404.49236,265.53109l13.43616,12.44398" fill="none" stroke="#000000" stroke-width="10" stroke-linecap="round"/><path d="M404.49232,278.48849l13.43616,-12.44398" data-paper-data="{&quot;index&quot;:null}" fill="none" stroke="#000000" stroke-width="10" stroke-linecap="round"/><path d="M421.98263,281.56828l-21.43365,-19.85086" fill="none" stroke="#3d230b" stroke-width="5" stroke-linecap="round"/><path d="M422.43124,261.68138l-21.86554,20.25086" data-paper-data="{&quot;index&quot;:null}" fill="none" stroke="#3d230b" stroke-width="5" stroke-linecap="round"/><path d="M286.84308,281.44912l-62.47998,-61.81332c0,0 0.33147,-6.64809 2.03758,-8.3542c1.91018,-1.91018 8.64664,-2.33002 8.64664,-2.33002l54.38059,54.57937z" fill="url(#color-12)" stroke="none" stroke-width="0" stroke-linecap="butt"/><path d="M283.58089,275.08826l-55.33334,-55.33334" fill="none" stroke="#000000" stroke-width="2" stroke-linecap="round"/><path d="M54.9465,282.23264v-36.5h58.70103v36.5z" fill="#3f3f3f" stroke="none" stroke-width="0" stroke-linecap="butt"/><path d="M257.21609,224.59909l9.91682,-32.21165l32.21165,9.91682l-9.91682,32.21165z" fill="url(#color-13)" stroke="#000000" stroke-width="0" stroke-linecap="butt"/><path d="M261.72084,222.22687l7.8095,-25.36668" fill="none" stroke="#000000" stroke-width="2" stroke-linecap="round"/><path d="M286.9481,229.77307l7.8095,-25.36668" fill="none" stroke="#000000" stroke-width="2" stroke-linecap="round"/><path d="M265.94858,223.52844l7.8095,-25.36668" fill="none" stroke="#000000" stroke-width="2" stroke-linecap="round"/><path d="M270.37766,224.89198l7.8095,-25.36668" fill="none" stroke="#000000" stroke-width="2" stroke-linecap="round"/><path d="M282.64722,200.7882l-7.8095,25.36668" fill="none" stroke="#000000" stroke-width="2" stroke-linecap="round"/><path d="M286.87504,202.08978l-7.8095,25.36668" fill="none" stroke="#000000" stroke-width="2" stroke-linecap="round"/><path d="M283.09197,228.69607l7.8095,-25.36668" fill="none" stroke="#000000" stroke-width="2" stroke-linecap="round"/><path d="M256.9756,227.81918l4.46834,-5.38831l8.59564,7.12807l-4.46834,5.38831z" fill="url(#color-14)" stroke="url(#color-15)" stroke-width="2.5" stroke-linecap="butt"/><path d="M145.41957,287.21597v11.5h-93.38461v-11.5z" data-paper-data="{&quot;index&quot;:null}" fill="#606060" stroke="#000000" stroke-width="2" stroke-linecap="butt"/><path d="M51.9892,286.82494h-11.5v-221.0989h11.5z" data-paper-data="{&quot;index&quot;:null}" fill="#606060" stroke="#000000" stroke-width="2" stroke-linecap="butt"/><path d="M52.28976,65.42543v-11.5h336.2989v11.5z" data-paper-data="{&quot;index&quot;:null}" fill="#606060" stroke="#000000" stroke-width="2" stroke-linecap="butt"/><path d="M388.79278,65.45574h11.5v37.17032h-11.5z" data-paper-data="{&quot;index&quot;:null}" fill="#606060" stroke="#000000" stroke-width="2" stroke-linecap="butt"/><path d="M115.13247,274.22908l-60.08364,-19.65398" fill="none" stroke="#000000" stroke-width="4" stroke-linecap="round"/><path d="M227.4184,201.26045v-81h29.6v81z" fill="url(#color-16)" stroke="none" stroke-width="0" stroke-linecap="butt"/><path d="M97.9149,194.01045c0,0 -1.74654,-2.90101 -1.74654,-4.5c0,-1.47419 1.74654,-4.75 1.74654,-4.75h124.50346v9.25z" fill="url(#color-17)" stroke="none" stroke-width="0" stroke-linecap="butt"/><path d="M165.98084,187.36984h-20.75" fill="none" stroke="#000000" stroke-width="2" stroke-linecap="round"/><path d="M120.98085,187.51045h-8" fill="none" stroke="#000000" stroke-width="2" stroke-linecap="round"/><path d="M121.98085,192.26045h-19.75" fill="none" stroke="#000000" stroke-width="2" stroke-linecap="round"/><path d="M198.7309,191.51045h-20.5" fill="none" stroke="#000000" stroke-width="2" stroke-linecap="round"/><path d="M190.4809,187.76045h26.25" fill="none" stroke="#000000" stroke-width="2" stroke-linecap="round"/><path d="M170.9809,190.51045h-7.5" fill="none" stroke="#000000" stroke-width="2" stroke-linecap="round"/><path d="M147.98084,190.51045h-21" fill="none" stroke="#000000" stroke-width="2" stroke-linecap="round"/><path d="M345.35899,158.5417v-7.75h41.75v7.75z" fill="#434343" stroke="none" stroke-width="0" stroke-linecap="butt"/><path d="M257.99244,356.7501v-27.75h29v27.75z" fill="#606060" stroke="none" stroke-width="0" stroke-linecap="butt"/><path d="M310.39517,278.56399c0,2.89949 -2.34251,5.25 -5.23214,5.25c-2.88963,0 -5.23214,-2.35051 -5.23214,-5.25c0,-2.89949 2.34251,-5.25 5.23214,-5.25c2.88963,0 5.23214,2.35051 5.23214,5.25z" fill="url(#color-18)" stroke="#000000" stroke-width="2" stroke-linecap="butt"/><path d="M428.50975,212.39825v-1h127.4v1z" fill="#000000" stroke="#000000" stroke-width="2" stroke-linecap="butt"/><path d="M284.38668,271.04913l-30.54516,-30.21924c0,0 0.16205,-3.25011 0.99613,-4.08419c0.93385,-0.93385 4.22716,-1.1391 4.22716,-1.1391l26.58554,26.68272z" fill="url(#color-19)" stroke="#000000" stroke-width="1.5" stroke-linecap="butt"/><path d="M249.35171,234.63563l-16.97685,-17.2259c0,0 0.1047,-2.09982 0.64358,-2.63871c0.60334,-0.60334 2.73108,-0.73595 2.73108,-0.73595l17.17633,17.23912c0,0 -0.49082,2.01557 -1.12268,2.60983c-0.54734,0.51477 -2.45145,0.75161 -2.45145,0.75161z" fill="url(#color-20)" stroke="#000000" stroke-width="1.5" stroke-linecap="butt"/><path d="M427.86352,310.9167v-22.33334h21.40001v22.33334z" fill="url(#color-21)" stroke="#000000" stroke-width="2" stroke-linecap="butt"/><path d="M145.86337,309.27072v-22.33334h21.40001v22.33334z" fill="url(#color-22)" stroke="#000000" stroke-width="2" stroke-linecap="butt"/><path d="M233.32751,194.82035v-68.66667h17.66666v68.66667z" fill="url(#color-23)" stroke="#000000" stroke-width="2.5" stroke-linecap="butt"/><path d="M59.17947,277.50916v-27.5h6.25v27.5z" fill="#01d723" stroke="#000000" stroke-width="2" stroke-linecap="butt"/><path d="M102.37947,277.30914v-27.5h6.25v27.5z" fill="#01d723" stroke="#000000" stroke-width="2" stroke-linecap="butt"/><path d="M78.94889,264.00916c0,-3.14803 2.55197,-5.7 5.7,-5.7c3.14803,0 5.7,2.55198 5.7,5.7c0,3.14803 -2.55197,5.7 -5.7,5.7c-3.14803,0 -5.7,-2.55197 -5.7,-5.7z" fill="#d70404" stroke="#000000" stroke-width="2" stroke-linecap="butt"/><path d="M73.92946,266.50916v16.7h-4.05v-17.9z" fill="#191919" stroke="#000000" stroke-width="2" stroke-linecap="butt"/><path d="M93.87947,261.80914v-16.7h4.05v17.9z" data-paper-data="{&quot;index&quot;:null}" fill="#191919" stroke="#000000" stroke-width="2" stroke-linecap="butt"/><path d="M294.27612,278.23672c0,-6.08434 4.93234,-11.01666 11.01667,-11.01666c6.08434,0 11.01666,4.93233 11.01666,11.01666c0,6.08434 -4.93233,11.01666 -11.01666,11.01666c-6.08434,0 -11.01667,-4.93233 -11.01667,-11.01666z" fill="url(#color-24)" stroke="#000000" stroke-width="0" stroke-linecap="butt"/><path d="M403.05242,279.38946v-15h16.28571v15z" fill="none" stroke="#000000" stroke-width="3" stroke-linecap="butt"/><path d="M403.05242,279.35561v-14.82331h16.42857v14.82331z" fill="none" stroke="#3d230b" stroke-width="1.5" stroke-linecap="butt"/><path d="M409.1503,271.83916c0,-1.31935 1.06954,-2.38889 2.38889,-2.38889c1.31935,0 2.38889,1.06954 2.38889,2.38889c0,1.31935 -1.06954,2.38889 -2.38889,2.38889c-1.31935,0 -2.38889,-1.06954 -2.38889,-2.38889z" fill="#000000" stroke="none" stroke-width="0" stroke-linecap="butt"/><path d="M349.89215,154.2541v-4h31.8v4z" fill="#1a1a1a" stroke="#000000" stroke-width="2.5" stroke-linecap="butt"/><path d="M401.43339,161.17537v-19h66v19z" fill="url(#color-25)" stroke="#000000" stroke-width="2.5" stroke-linecap="butt"/><path d="M481.35653,169.17547h-92.44713" data-paper-data="{&quot;index&quot;:null}" fill="none" stroke="#000000" stroke-width="4" stroke-linecap="round"/><path d="M391.29404,160.56473h86.07376" data-paper-data="{&quot;index&quot;:null}" fill="none" stroke="#000000" stroke-width="4" stroke-linecap="round"/><path d="M421.06148,155.86503v-8.75h26v8.75z" fill="#606060" stroke="#000000" stroke-width="2.5" stroke-linecap="butt"/><path d="M390.39705,151.41204h87.61545" data-paper-data="{&quot;index&quot;:null}" fill="none" stroke="#000000" stroke-width="4" stroke-linecap="round"/><path d="M481.56899,142.19329h-91.83867" data-paper-data="{&quot;index&quot;:null}" fill="none" stroke="#000000" stroke-width="4" stroke-linecap="round"/><path d="M391.08562,133.76027h89.17201" data-paper-data="{&quot;index&quot;:null}" fill="none" stroke="#000000" stroke-width="4" stroke-linecap="round"/><path d="M433.99421,126.9007v47.66667" fill="none" stroke="#000000" stroke-width="4" stroke-linecap="round"/><path d="M262.44327,352.2201v-18.5h20v18.5z" fill="#232323" stroke="#000000" stroke-width="2.5" stroke-linecap="butt"/><path d="M267.43008,348.0834v-9.33334h10.54031v9.33334z" fill="url(#color-26)" stroke="#000000" stroke-width="2" stroke-linecap="butt"/></g></g></svg>