<svg version="1.1" xmlns="http://www.w3.org/2000/svg" xmlns:xlink="http://www.w3.org/1999/xlink" width="605.9666" height="371.54336" viewBox="0,0,605.9666,371.54336"><defs><radialGradient cx="200.53327" cy="308.82633" r="12.78495" gradientUnits="userSpaceOnUse" id="color-1"><stop offset="0" stop-color="#00b11b"/><stop offset="1" stop-color="#00b11b" stop-opacity="0"/></radialGradient><radialGradient cx="437.53327" cy="188.82635" r="12.78495" gradientUnits="userSpaceOnUse" id="color-2"><stop offset="0" stop-color="#00b11b"/><stop offset="1" stop-color="#00b11b" stop-opacity="0"/></radialGradient><linearGradient x1="303.88843" y1="143.67908" x2="303.88843" y2="200.34587" gradientUnits="userSpaceOnUse" id="color-3"><stop offset="0" stop-color="#007817"/><stop offset="1" stop-color="#001a04"/></linearGradient><linearGradient x1="339.13843" y1="143.42908" x2="339.13843" y2="200.09587" gradientUnits="userSpaceOnUse" id="color-4"><stop offset="0" stop-color="#007817"/><stop offset="1" stop-color="#001a04"/></linearGradient><linearGradient x1="234.62044" y1="285.73859" x2="234.62044" y2="324.38883" gradientUnits="userSpaceOnUse" id="color-5"><stop offset="0" stop-color="#007616"/><stop offset="1" stop-color="#001503"/></linearGradient></defs><g transform="translate(2.02263,6.69753)"><g data-paper-data="{&quot;isPaintingLayer&quot;:true}" fill-rule="nonzero" stroke-linejoin="miter" stroke-miterlimit="10" stroke-dasharray="" stroke-dashoffset="0" style="mix-blend-mode: normal"><path d="M135.17558,356.50232v-10.51051h26.57357v10.51051z" fill="#000000" stroke="none" stroke-width="0" stroke-linecap="butt"/><g stroke="#0a0a0a"><path d="M200.05915,313.90504c0,0 0.34247,2.60681 1.09178,5.66303c0.45819,1.86881 -1.89178,4.07639 -1.89178,5.11418c0,2.3245 0.8,4.30365 0.8,4.30365" fill="none" stroke-width="3" stroke-linecap="round"/><path d="M196.63323,312.27871c0,-0.50461 -0.22222,-1.86338 -0.22222,-3.11111c0,-1.61703 0.22222,-3.12305 0.22222,-3.12305c0,0 1.77117,-1.97674 3.6,-1.97674c1.82883,0 3.8,1.97674 3.8,1.97674c0,0 0.22222,1.57936 0.22222,3.12305c0,1.02534 -0.22222,2.03494 -0.22222,2.55556c0,0.68577 -0.75187,1.56943 -1.3706,1.56943c-0.89149,0 -3.40354,0 -4.88889,0c-0.67685,0 -1.14051,-0.57686 -1.14051,-1.01387z" fill="#007811" stroke-width="2" stroke-linecap="butt"/><path d="M187.74831,308.82633c0,-6.65494 5.72402,-12.04983 12.78495,-12.04983c7.06094,0 12.78495,5.39489 12.78495,12.04983c0,6.65494 -5.72402,12.04983 -12.78495,12.04983c-7.06094,0 -12.78495,-5.39489 -12.78495,-12.04983z" fill="url(#color-1)" stroke-width="0" stroke-linecap="butt"/></g><g stroke="#0a0a0a"><path d="M437.05915,193.90515c0,0 0.34246,2.60681 1.09178,5.66304c0.45819,1.8688 -1.89178,4.07639 -1.89178,5.11418c0,2.3245 0.8,4.30365 0.8,4.30365" fill="none" stroke-width="3" stroke-linecap="round"/><path d="M433.63323,192.2788c0,-0.50461 -0.22222,-1.86338 -0.22222,-3.11111c0,-1.61703 0.22222,-3.12305 0.22222,-3.12305c0,0 1.77117,-1.97674 3.6,-1.97674c1.82883,0 3.8,1.97674 3.8,1.97674c0,0 0.22222,1.57936 0.22222,3.12305c0,1.02534 -0.22222,2.03494 -0.22222,2.55556c0,0.68577 -0.75186,1.56942 -1.3706,1.56942c-0.89149,0 -3.40354,0 -4.88889,0c-0.67685,0 -1.14051,-0.57686 -1.14051,-1.01387z" fill="#007811" stroke-width="2" stroke-linecap="butt"/><path d="M424.74831,188.82635c0,-6.65494 5.72402,-12.04983 12.78495,-12.04983c7.06094,0 12.78495,5.39489 12.78495,12.04983c0,6.65494 -5.72402,12.04983 -12.78495,12.04983c-7.06094,0 -12.78495,-5.39489 -12.78495,-12.04983z" fill="url(#color-2)" stroke-width="0" stroke-linecap="butt"/></g><path d="M465.94397,361.67176v-363.15916h138v363.15916z" fill="#000000" stroke="none" stroke-width="0" stroke-linecap="butt"/><path d="M-2.01465,14.36622l0.5,-16.56832h429.36186v16.56832z" fill="#000000" stroke="none" stroke-width="0" stroke-linecap="butt"/><path d="M335.82121,107.74561l63.06306,-69.06907h69.06907v69.06907z" fill="#000000" stroke="none" stroke-width="0" stroke-linecap="butt"/><path d="M-2.02263,247.38527v-237.23724h340.84685l-46.54655,48.04805v189.18919z" fill="#000000" stroke="none" stroke-width="0" stroke-linecap="butt"/><path d="M291.27767,224.84175v-84.06306h63.06306v63.06306h-42.15762z" fill="#000000" stroke="none" stroke-width="0" stroke-linecap="butt"/><path d="M-2.02263,362.00386v-117.62162h138.14414v117.62162z" fill="#000000" stroke="none" stroke-width="0" stroke-linecap="butt"/><path d="M350.83623,179.00391v-11.89189h39.55255v11.89189z" fill="#000000" stroke="none" stroke-width="0" stroke-linecap="butt"/><path d="M371.86025,336.70432v-86.06907l49.5403,-44.30797l45.05429,-0.25359v130.63063z" fill="#000000" stroke="none" stroke-width="0" stroke-linecap="butt"/><path d="M187.68311,361.93788v-37h279v37z" fill="#000000" stroke="none" stroke-width="0" stroke-linecap="butt"/><path d="M213.68311,325.93782v-43h42v43z" fill="#000000" stroke="none" stroke-width="0" stroke-linecap="butt"/><path d="M334.18311,287.68782v-10.5h40v10.5z" fill="#000000" stroke="none" stroke-width="0" stroke-linecap="butt"/><g stroke="#000000" stroke-linecap="butt"><path d="M467.47009,56.78426v-16.66666h16.66666v16.66666z" fill="#373737" stroke-width="3"/><path d="M471.63493,52.65443v-8.27272h8.27273v8.27272z" fill="#991616" stroke-width="1.5"/></g><path d="M451.5692,206.73197v-103h23v103z" fill="#000000" stroke="none" stroke-width="NaN" stroke-linecap="butt"/><g data-paper-data="{&quot;index&quot;:null}" fill="none" stroke="#373737" stroke-width="3" stroke-linecap="round"><path d="M472.39575,41.67848l-0.25584,-43.42206"/><path d="M478.63741,41.61507l-0.49751,-43.0587"/></g><g stroke="#000000" stroke-linecap="butt"><path d="M409.80342,12.67315v-16.66666h16.66666v16.66666z" fill="#373737" stroke-width="3"/><path d="M413.96826,8.54328v-8.27272h8.27273v8.27272z" fill="#991616" stroke-width="1.5"/></g><g stroke="#000000" stroke-linecap="butt"><path d="M274.07723,245.90371v-16.66666h16.66666v16.66666z" fill="#373737" stroke-width="3"/><path d="M278.24207,241.77388v-8.27272h8.27273v8.27272z" fill="#991616" stroke-width="1.5"/></g><g stroke="#000000" stroke-linecap="butt"><path d="M452.99391,106.40368v-16.66666h16.66666v16.66666z" fill="#373737" stroke-width="3"/><path d="M457.15875,102.27386v-8.27272h8.27273v8.27272z" fill="#991616" stroke-width="1.5"/></g><g stroke="#000000" stroke-linecap="butt"><path d="M453.14866,224.33226v-16.66666h16.66666v16.66666z" fill="#373737" stroke-width="3"/><path d="M457.3135,220.20242v-8.27272h8.27273v8.27272z" fill="#991616" stroke-width="1.5"/></g><g stroke="#000000" stroke-linecap="butt"><path d="M373.30224,343.12867v-16.66666h16.66666v16.66666z" fill="#373737" stroke-width="3"/><path d="M377.46708,338.99885v-8.27272h8.27273v8.27272z" fill="#991616" stroke-width="1.5"/></g><g stroke="#000000" stroke-linecap="butt"><path d="M189.26771,343.11796v-16.66666h16.66666v16.66666z" fill="#373737" stroke-width="3"/><path d="M193.43255,338.98814v-8.27272h8.27273v8.27272z" fill="#991616" stroke-width="1.5"/></g><g stroke="#000000" stroke-linecap="butt"><path d="M117.97724,245.93702v-16.66666h16.66666v16.66666z" fill="#373737" stroke-width="3"/><path d="M122.14208,241.80719v-8.27272h8.27273v8.27272z" fill="#991616" stroke-width="1.5"/></g><g fill="none" stroke="#373737" stroke-width="3" stroke-linecap="round"><path d="M458.44526,104.91245v103.84613"/><path d="M464.19524,209.01245v-103.99747"/></g><path d="M354.33323,176.68058v-7.08722h33.4v7.08722z" fill="#373737" stroke="none" stroke-width="0" stroke-linecap="butt"/><path d="M336.33323,285.59326v-6h35.4v6z" fill="#373737" stroke="none" stroke-width="0" stroke-linecap="butt"/><path d="M136.05813,354.57225v-6.7h24.1v6.7z" fill="#373737" stroke="none" stroke-width="0" stroke-linecap="butt"/><g fill="none" stroke="#373737" stroke-width="3" stroke-linecap="round"><path d="M453.78305,101.17078h-103.00662l50.60089,-55.57721l67.89295,-0.08945"/><path d="M454.03692,95.42079h-89.92716l40.0928,-43.68366l65.17022,0.01699"/></g><g fill="none" stroke="#373737" stroke-width="3" stroke-linecap="round"><path d="M285.23692,230.8208l0.17183,-176.78002l45.42499,-46.53665h80.44984"/><path d="M279.46124,230.25418l0.09839,-178.79594l49.40724,-49.70405h82.5145"/></g><g fill="none" stroke="#373737" stroke-width="3" stroke-linecap="round"><path d="M133.11801,234.83745h142.25224"/><path d="M275.2298,240.58745h-142.45955"/></g><g fill="none" stroke="#373737" stroke-width="3" stroke-linecap="round"><path d="M129.14524,244.83307v117.51272"/><path d="M123.39526,244.5458v117.68397"/></g><g fill="none" stroke="#373737" stroke-width="3" stroke-linecap="round"><path d="M194.76193,363.29312v-21.54732"/><path d="M200.51191,363.34584v-21.57873"/></g><g fill="none" stroke="#373737" stroke-width="3" stroke-linecap="round"><path d="M204.23693,337.62079h170.18396"/><path d="M204.40492,331.87075h170.43201"/></g><g fill="none" stroke="#373737" stroke-width="3" stroke-linecap="round"><path d="M378.91193,328.07975l0.19297,-74.04817l45.05268,-40.77619l30.42102,0.0404"/><path d="M384.66191,328.29571l-0.01259,-71.03564l41.95885,-37.98651l28.05374,-0.07652"/></g><path d="M421.448,-2.07253v-3.125" fill="none" stroke="#373737" stroke-width="3" stroke-linecap="round"/><path d="M415.08789,-5.16232v2.85714" fill="none" stroke="#373737" stroke-width="3" stroke-linecap="round"/><path d="M292.14769,219.5331v-76.14762h58.66667v57.66667h-40.0176z" fill="#1e1e1e" stroke="none" stroke-width="0" stroke-linecap="butt"/><path d="M295.06104,211.97794v-9.66667h10z" fill="#000000" stroke="#000000" stroke-width="2.5" stroke-linecap="butt"/><path d="M298.59676,194.67915v-45.33333h10.58333v45.33333z" fill="url(#color-3)" stroke="#000000" stroke-width="2.5" stroke-linecap="butt"/><g stroke="#000000" stroke-width="2"><path d="M318.71536,180.98072v-20.6h5.42857v20.6z" fill="#151515" stroke-linecap="butt"/><path d="M326.71536,151.9521h-10.66666" fill="none" stroke-linecap="round"/><path d="M319.14393,155.8664h4.57143" fill="none" stroke-linecap="round"/><path d="M315.62548,184.86655h11.75" fill="none" stroke-linecap="round"/><path d="M315.42548,189.0665h11.75" fill="none" stroke-linecap="round"/><path d="M327.37548,193.26654h-11.75" fill="none" stroke-linecap="round"/></g><path d="M333.84676,194.42915v-45.33333h10.58333v45.33333z" fill="url(#color-4)" stroke="#000000" stroke-width="2.5" stroke-linecap="butt"/><path d="M216.06352,324.38883v-38.65025h37.11387v38.65025z" fill="url(#color-5)" stroke="#000000" stroke-width="0" stroke-linecap="butt"/><path d="M219.60051,320.13443v-30.43708" fill="none" stroke="#000000" stroke-width="2" stroke-linecap="round"/><path d="M249.46641,289.45574v30.43708" fill="none" stroke="#000000" stroke-width="2" stroke-linecap="round"/><path d="M224.90706,289.69732v30.43708" fill="none" stroke="#000000" stroke-width="2" stroke-linecap="round"/><path d="M230.0102,320.13443v-30.43708" fill="none" stroke="#000000" stroke-width="2" stroke-linecap="round"/><path d="M235.11336,289.57653v30.43708" fill="none" stroke="#000000" stroke-width="2" stroke-linecap="round"/><path d="M239.98456,289.57653v30.43708" fill="none" stroke="#000000" stroke-width="2" stroke-linecap="round"/><path d="M244.62379,320.01366v-30.43708" fill="none" stroke="#000000" stroke-width="2" stroke-linecap="round"/></g></g></svg>