<svg version="1.1" xmlns="http://www.w3.org/2000/svg" xmlns:xlink="http://www.w3.org/1999/xlink" width="488.11414" height="452.12977" viewBox="0,0,488.11414,452.12977"><defs><linearGradient x1="32.85722" y1="166.73839" x2="32.85722" y2="285.89017" gradientUnits="userSpaceOnUse" id="color-1"><stop offset="0" stop-color="#000000"/><stop offset="1" stop-color="#060606"/></linearGradient><linearGradient x1="247.12136" y1="159.9295" x2="237.92897" y2="169.12188" gradientUnits="userSpaceOnUse" id="color-2"><stop offset="0" stop-color="#000000"/><stop offset="1" stop-color="#100e0c"/></linearGradient><linearGradient x1="239.02279" y1="167.80459" x2="236.7279" y2="170.09947" gradientUnits="userSpaceOnUse" id="color-3"><stop offset="0" stop-color="#000000"/><stop offset="1" stop-color="#0f0f0f"/></linearGradient></defs><g transform="translate(3.57411,7.93685)"><g data-paper-data="{&quot;isPaintingLayer&quot;:true}" fill-rule="nonzero" stroke-linejoin="miter" stroke-miterlimit="10" stroke-dasharray="" stroke-dashoffset="0" style="mix-blend-mode: normal"><path d="M2.78334,285.89017v-119.15178h60.14776v119.15178z" fill="url(#color-1)" stroke="#000000" stroke-width="2" stroke-linecap="butt"/><path d="M435.39119,200.93402v-208.51513h47v208.51513z" fill="#000000" stroke="none" stroke-width="0" stroke-linecap="butt"/><path d="M0.85466,168.91675v-10.86112h65v10.86112z" fill="#000000" stroke="none" stroke-width="0" stroke-linecap="butt"/><path d="M-3.57411,29.93402v-37.87087h440.33333v37.87087z" fill="#000000" stroke="none" stroke-width="0" stroke-linecap="butt"/><path d="M135.79018,43.93402v-15h33v15z" fill="#000000" stroke="none" stroke-width="0" stroke-linecap="butt"/><path d="M139.03186,42.21382c0,0 0,27.54491 0,34.17167c0,2.7184 -2.66667,5.58362 -2.66667,5.58362" fill="none" stroke="#000000" stroke-width="2" stroke-linecap="round"/><path d="M144.86519,83.51706c0,0 -1.66667,-3.70016 -1.66667,-5.96491c0,-6.23247 0,-35.07574 0,-35.07574" fill="none" stroke="#000000" stroke-width="2" stroke-linecap="round"/><path d="M147.69852,85.14065c0,0 0.5,-5.04903 0.5,-8.75516c0,-0.91561 -1.34052,-3.60851 -1.35315,-4.9991c-0.09282,-10.21599 0.85315,-29.60184 0.85315,-29.60184" fill="none" stroke="#000000" stroke-width="2" stroke-linecap="round"/><path d="M151.69852,42.21382c0,0 0,18.7209 0,24.005c0,1.33675 -0.68385,3.85617 -0.21376,6.15465c0.44594,2.18041 2.0471,4.17869 2.0471,4.17869l-1.83333,5.36899" fill="none" stroke="#000000" stroke-width="2" stroke-linecap="round"/><path d="M155.86519,81.37318c0,0 1,-2.60625 1,-5.15435c0,-1.96939 -1.55323,-7.51495 -1.55323,-7.51495l0.55323,-27.25266" fill="none" stroke="#000000" stroke-width="2" stroke-linecap="round"/><path d="M166.53186,77.57316l-1.90977,1.27902l-1.7569,-2.9667l0.83333,-4.83333v-28.40907" fill="none" stroke="#000000" stroke-width="2" stroke-linecap="round"/><path d="M135.19852,107.08374c0,0 2.83333,1.14621 2.83333,1.96842c0,1.78386 0,8.48118 0,8.48118" fill="none" stroke="#000000" stroke-width="2" stroke-linecap="round"/><path d="M141.36519,106.86096c0,0 1.33333,2.95287 1.33333,4.35786c0,1.86965 0,6.53645 0,6.53645" fill="none" stroke="#000000" stroke-width="2" stroke-linecap="round"/><path d="M151.03186,107.41707c0,0 0.33333,1.86295 0.33333,2.96842c0,1.87647 -0.33333,7.25922 -0.33333,7.25922" fill="none" stroke="#000000" stroke-width="2" stroke-linecap="round"/><path d="M155.03186,117.58943c0,0 -1,-6.00085 -1,-7.87061c0,-0.42725 0.80863,-1.17199 0.97537,-2.09511c0.23724,-1.31342 -0.14204,-2.81721 -0.14204,-2.81721" fill="none" stroke="#000000" stroke-width="2" stroke-linecap="round"/><path d="M161.53185,80.87073l-1.83333,-4.48524v-35.24484" fill="none" stroke="#000000" stroke-width="2" stroke-linecap="round"/><path d="M163.03186,117.58942c0,0 0,-5.34798 0,-7.20393c0,-1.16897 1.5,-4.19119 1.5,-4.19119" fill="none" stroke="#000000" stroke-width="2" stroke-linecap="round"/><path d="M135.03186,134.47398v-17h30.66667v17z" fill="#000000" stroke="#000000" stroke-width="2" stroke-linecap="butt"/><path d="M0.53699,135.79631v-64.5h10v64.5z" fill="#000000" stroke="#000000" stroke-width="2" stroke-linecap="butt"/><path d="M2.03699,74.29631l3.5,-14" fill="none" stroke="#000000" stroke-width="2" stroke-linecap="round"/><path d="M6.53699,74.29631c0,0 2.75113,-5.96077 3.84878,-8.33902c0.82063,-1.77803 9.15122,5.33902 9.15122,5.33902" fill="none" stroke="#000000" stroke-width="2" stroke-linecap="round"/><path d="M3.53699,35.29631l-2,-8" fill="none" stroke="#000000" stroke-width="2" stroke-linecap="round"/><path d="M7.03699,27.79631l6,8.5" fill="none" stroke="#000000" stroke-width="2" stroke-linecap="round"/><path d="M147.65504,119.35266c0,0 -1.55056,-7.31576 -1.77877,-9.6435c-0.12953,-1.32115 2.19544,-5.1065 2.19544,-5.1065" fill="none" stroke="#000000" stroke-width="2" stroke-linecap="round"/><path d="M158.73837,106.26933c0,0 0.54465,3.72241 0.44998,4.92941c-0.17999,2.29488 -0.78331,9.15392 -0.78331,9.15392" fill="none" stroke="#000000" stroke-width="2" stroke-linecap="round"/><path d="M15.2731,27.33617l4.5,9" fill="none" stroke="#000000" stroke-width="2" stroke-linecap="round"/><path d="M338.47426,309.40522v-37.5h7v37.5z" data-paper-data="{&quot;index&quot;:null}" fill="#000000" stroke="#000000" stroke-width="1" stroke-linecap="butt"/><path d="M340.72426,293.65522l-19.25,19.25" data-paper-data="{&quot;index&quot;:null}" fill="none" stroke="#000000" stroke-width="3" stroke-linecap="round"/><path d="M341.72426,283.15522l-26.5,26.5" data-paper-data="{&quot;index&quot;:null}" fill="none" stroke="#000000" stroke-width="3" stroke-linecap="round"/><path d="M-3.4352,444.19292v-136.18001h487.97523v136.18001z" fill="#000000" stroke="none" stroke-width="NaN" stroke-linecap="butt"/><g fill="none" stroke="#000000" stroke-width="3.5" stroke-linecap="round"><path d="M8.42761,290.33676v-122.24526"/><path d="M14.1505,290.69276v-121.47676"/><path d="M20.14585,290.15876v-121.94791"/><path d="M26.16278,290.83933v-122.12592"/><path d="M32.40922,290.42473v-122.68714"/><path d="M38.67712,290.69065v-122.47981"/><path d="M44.67253,168.71342v121.23801"/><path d="M51.21291,290.39538v-121.68197"/><path d="M58.0259,168.21084v122.21387"/></g><path d="M0.85466,309.16675v-10.86112h65v10.86112z" fill="#000000" stroke="none" stroke-width="0" stroke-linecap="butt"/><path d="M-2.31023,158.91638v-25.91667h378.52896l-0.00002,25.91667h-4.09502l-0.01929,-7.76089l-112.37052,-0.57244l-0.11019,8.33334z" fill="#000000" stroke="none" stroke-width="0" stroke-linecap="butt"/><path d="M245.4867,112.25421l5.58317,-1.63622l5.72675,19.5411l-5.58317,1.63621z" data-paper-data="{&quot;index&quot;:null}" fill="#000000" stroke="#000000" stroke-width="2" stroke-linecap="butt"/><g fill="#000000" stroke="#000000"><path d="M230.97588,309.07419v-23h23v23z" data-paper-data="{&quot;index&quot;:null}" stroke-width="0" stroke-linecap="butt"/><g data-paper-data="{&quot;index&quot;:null}"><path d="M231.39815,308.34604v-21.92424h21.92424v21.92424z" stroke-width="0" stroke-linecap="butt"/><path d="M233.68828,306.05369v-17.37491h17.37492v17.37491z" stroke-width="3" stroke-linecap="butt"/><path d="M235.66482,304.02844v-13.49184h13.49183v13.49184z" stroke-width="0" stroke-linecap="butt"/><path d="M247.31403,302.24853l-10.15011,-10.15011" stroke-width="5" stroke-linecap="round"/><path d="M247.90289,304.00393v-13.75639" stroke-width="1" stroke-linecap="round"/><path d="M246.42217,304.52934v-14.32957" stroke-width="1" stroke-linecap="round"/><path d="M244.94147,304.48161v-14.13851" stroke-width="1" stroke-linecap="round"/><path d="M243.31744,304.24282v-14.04298" stroke-width="1" stroke-linecap="round"/><path d="M241.78899,304.43381v-14.32957" stroke-width="1" stroke-linecap="round"/><path d="M240.11721,304.00391v-13.94744" stroke-width="1" stroke-linecap="round"/><path d="M238.54107,290.05646v14.28181" stroke-width="1" stroke-linecap="round"/><path d="M236.91704,304.48165v-14.18627" stroke-width="1" stroke-linecap="round"/><path d="M235.35259,290.22449l14.33508,14.33508" stroke-width="3" stroke-linecap="round"/><path d="M235.1651,304.52817v-14.5537h14.5537v14.5537z" stroke-width="1.25" stroke-linecap="butt"/></g></g><path d="M379.57171,184.93402v-8h52.75v8z" fill="#000000" stroke="#000000" stroke-width="2" stroke-linecap="butt"/><path d="M10.035,123.1254v-6.66667h77.91667v6.66667z" fill="#000000" stroke="none" stroke-width="NaN" stroke-linecap="butt"/><path d="M13.38295,116.12124c0,0 -0.53612,-2.02755 -0.53612,-3.07267c0,-0.84431 0.53612,-2.72517 0.53612,-2.72517c0,0 3.08104,-1.1673 9.38217,-1.1673c6.08569,0 9.38217,1.1673 9.38217,1.1673c0,0 0.71484,2.15483 0.71484,3.16072c0,0.91881 -0.71484,2.63711 -0.71484,2.63711c0,0 -6.36449,0.91992 -9.54393,0.91992c-3.07163,0 -9.22041,-0.91992 -9.22041,-0.91992z" fill="#000000" stroke="#000000" stroke-width="1.5" stroke-linecap="butt"/><path d="M86.3433,118.36087v2.9312h-74.69993v-2.9312z" fill="#000000" stroke="none" stroke-width="NaN" stroke-linecap="butt"/><path d="M98.82171,309.23329v-89.79927h130.5v89.79927z" fill="#000000" stroke="#000000" stroke-width="5" stroke-linecap="butt"/><path d="M261.17589,203.94668v-7.16666h109.76667v7.16666z" fill="#000000" stroke="#000000" stroke-width="2.5" stroke-linecap="butt"/><g fill="#000000" stroke="#000000"><path d="M230.97587,287.07419v-23h23v23z" data-paper-data="{&quot;index&quot;:null}" stroke-width="0" stroke-linecap="butt"/><g data-paper-data="{&quot;index&quot;:null}"><path d="M231.39814,286.34604v-21.92424h21.92424v21.92424z" stroke-width="0" stroke-linecap="butt"/><path d="M233.68827,284.05369v-17.37491h17.37492v17.37491z" stroke-width="3" stroke-linecap="butt"/><path d="M235.66481,282.02844v-13.49184h13.49183v13.49184z" stroke-width="0" stroke-linecap="butt"/><path d="M247.31402,280.24853l-10.15011,-10.15011" stroke-width="5" stroke-linecap="round"/><path d="M247.90288,282.00393v-13.75639" stroke-width="1" stroke-linecap="round"/><path d="M246.42216,268.19977v14.32957" stroke-width="1" stroke-linecap="round"/><path d="M244.94146,282.48161v-14.13851" stroke-width="1" stroke-linecap="round"/><path d="M243.31743,268.19984v14.04298" stroke-width="1" stroke-linecap="round"/><path d="M241.78898,268.10424v14.32957" stroke-width="1" stroke-linecap="round"/><path d="M240.1172,268.05647v13.94744" stroke-width="1" stroke-linecap="round"/><path d="M238.54106,268.05646v14.28181" stroke-width="1" stroke-linecap="round"/><path d="M236.91703,268.29538v14.18627" stroke-width="1" stroke-linecap="round"/><path d="M235.35258,268.22449l14.33508,14.33508" stroke-width="3" stroke-linecap="round"/><path d="M235.16509,282.52817v-14.5537h14.5537v14.5537z" stroke-width="1.25" stroke-linecap="butt"/></g></g><g fill="#000000" stroke="#000000" stroke-linecap="butt"><g stroke-width="2.5"><path d="M250.9207,161.75492v-16h4v16z"/><path d="M260.92069,155.87992h-16v-4h16z"/><g><path d="M257.03834,160.70093l-11.31371,-11.31371l2.82843,-2.82843l11.31371,11.31371z"/><path d="M259.95515,149.47565l-11.3137,11.3137l-2.82843,-2.82842l11.31371,-11.31371z"/></g></g><g stroke-width="0"><path d="M250.7957,161.87992v-16h4v16z"/><path d="M260.79569,156.00492h-16v-4h16z"/><g><path d="M256.91334,160.82593l-11.31371,-11.31371l2.82843,-2.82843l11.31371,11.31371z"/><path d="M259.83015,149.60065l-11.3137,11.3137l-2.82843,-2.82842l11.31371,-11.31371z"/></g></g><g stroke-width="0"><path d="M251.42903,158.93819v-10.2h2.55v10.2z"/><path d="M257.80402,155.19296h-10.2v-2.55h10.2z"/><g><path d="M255.32908,158.26636l-7.21249,-7.21249l1.80312,-1.80312l7.21249,7.21249z"/><path d="M257.18849,151.1102l-7.21249,7.21249l-1.80312,-1.80312l7.21249,-7.21249z"/></g></g><path d="M250.77293,153.88127c0,-1.05855 0.85812,-1.91667 1.91667,-1.91667c1.05855,0 1.91667,0.85812 1.91667,1.91667c0,1.05855 -0.85812,1.91667 -1.91667,1.91667c-1.05855,0 -1.91667,-0.85812 -1.91667,-1.91667z" stroke-width="0.5"/></g><g fill="#000000" stroke="#000000"><path d="M166.30921,133.74086v-23h23.5v23z" data-paper-data="{&quot;index&quot;:null}" stroke-width="0" stroke-linecap="butt"/><g data-paper-data="{&quot;index&quot;:null}"><path d="M166.74065,133.01271v-21.92424h22.40085v21.92424z" stroke-width="0" stroke-linecap="butt"/><path d="M169.08058,130.72036v-17.37491h17.75264v17.37491z" stroke-width="3" stroke-linecap="butt"/><path d="M171.10008,128.69511v-13.49184h13.78513v13.49184z" stroke-width="0" stroke-linecap="butt"/><path d="M183.00253,126.9152l-10.37076,-10.15011" stroke-width="5" stroke-linecap="round"/><path d="M183.6042,128.6706v-13.75639" stroke-width="1" stroke-linecap="round"/><path d="M182.09129,129.19601v-14.32957" stroke-width="1" stroke-linecap="round"/><path d="M180.5784,129.14828v-14.13851" stroke-width="1" stroke-linecap="round"/><path d="M178.91906,114.8665v14.04298" stroke-width="1" stroke-linecap="round"/><path d="M177.35739,114.77091v14.32957" stroke-width="1" stroke-linecap="round"/><path d="M175.64926,114.72314v13.94744" stroke-width="1" stroke-linecap="round"/><path d="M174.03886,114.72313v14.28181" stroke-width="1" stroke-linecap="round"/><path d="M172.37953,114.96205v14.18627" stroke-width="1" stroke-linecap="round"/><path d="M170.78107,114.89116l14.64671,14.33508" stroke-width="3" stroke-linecap="round"/><path d="M170.5895,129.19484v-14.5537h14.87008v14.5537z" stroke-width="1.25" stroke-linecap="butt"/></g></g><path d="M237.02741,168.22032l9.19239,-9.19239l1.80313,1.80312l-9.19239,9.19239z" fill="url(#color-2)" stroke="#000000" stroke-width="1.25" stroke-linecap="butt"/><path d="M235.60596,168.97753c0,0 0.5294,-1.09038 0.9307,-1.49168c0.35892,-0.35892 1.36419,-0.80321 1.36419,-0.80321c0,0 0.82292,0.56794 1.18569,0.93071c0.38399,0.38399 1.0582,1.31319 1.0582,1.31319c0,0 -0.39443,0.9554 -0.80321,1.36418c-0.34548,0.34548 -1.49168,0.9307 -1.49168,0.9307c0,0 -0.99293,-0.61046 -1.37692,-0.99446c-0.36276,-0.36276 -0.86696,-1.24943 -0.86696,-1.24943z" fill="url(#color-3)" stroke="#000000" stroke-width="1.25" stroke-linecap="butt"/><g fill="#000000" stroke="#000000" stroke-linecap="butt"><g stroke-width="2.5"><path d="M62.1707,171.00492v-16h4v16z"/><path d="M72.17069,165.12992h-16v-4h16z"/><g><path d="M68.28834,169.95093l-11.31371,-11.31371l2.82843,-2.82843l11.31371,11.31371z"/><path d="M71.20515,158.72565l-11.3137,11.3137l-2.82843,-2.82842l11.31371,-11.31371z"/></g></g><g stroke-width="0"><path d="M62.0457,171.12992v-16h4v16z"/><path d="M71.79569,165.00492h-16v-4h16z"/><g><path d="M68.16334,170.07593l-11.31371,-11.31371l2.82843,-2.82843l11.31371,11.31371z"/><path d="M71.08015,158.85065l-11.3137,11.3137l-2.82843,-2.82842l11.31371,-11.31371z"/></g></g><g stroke-width="0"><path d="M62.67903,168.18819v-10.2h2.55v10.2z"/><path d="M69.05402,164.44296h-10.2v-2.55h10.2z"/><g><path d="M66.57908,167.51636l-7.21249,-7.21249l1.80312,-1.80312l7.21249,7.21249z"/><path d="M68.43849,160.3602l-7.21249,7.21249l-1.80312,-1.80312l7.21249,-7.21249z"/></g></g><path d="M62.02293,163.13127c0,-1.05855 0.85812,-1.91667 1.91667,-1.91667c1.05855,0 1.91667,0.85812 1.91667,1.91667c0,1.05855 -0.85812,1.91667 -1.91667,1.91667c-1.05855,0 -1.91667,-0.85812 -1.91667,-1.91667z" stroke-width="0.5"/></g><g data-paper-data="{&quot;index&quot;:null}" fill="#000000" stroke="#000000"><path d="M405.88462,177.20753v-23h23v23z" data-paper-data="{&quot;index&quot;:null}" stroke-width="0" stroke-linecap="butt"/><g data-paper-data="{&quot;index&quot;:null}"><path d="M406.53811,176.47938v-21.92424h21.92424v21.92424z" stroke-width="0" stroke-linecap="butt"/><path d="M408.7973,174.18703v-17.37491h17.37492v17.37491z" stroke-width="3" stroke-linecap="butt"/><path d="M410.70385,172.16178v-13.49184h13.49183v13.49184z" stroke-width="0" stroke-linecap="butt"/><path d="M422.69658,160.23176l-10.15011,10.15011" stroke-width="5" stroke-linecap="round"/><path d="M411.95761,158.38088v13.75639" stroke-width="1" stroke-linecap="round"/><path d="M413.43833,158.3331v14.32957" stroke-width="1" stroke-linecap="round"/><path d="M414.91903,158.47644v14.13851" stroke-width="1" stroke-linecap="round"/><path d="M416.54306,172.37616v-14.04298" stroke-width="1" stroke-linecap="round"/><path d="M418.07151,158.23758v14.32957" stroke-width="1" stroke-linecap="round"/><path d="M419.74329,158.18981v13.94744" stroke-width="1" stroke-linecap="round"/><path d="M421.31943,172.47161v-14.28181" stroke-width="1" stroke-linecap="round"/><path d="M422.94346,158.42872v14.18627" stroke-width="1" stroke-linecap="round"/><path d="M410.17283,172.69291l14.33508,-14.33508" stroke-width="3" stroke-linecap="round"/><path d="M410.1417,172.66151v-14.5537h14.5537v14.5537z" stroke-width="1.25" stroke-linecap="butt"/></g></g><g fill="#000000" stroke="#000000" stroke-linecap="butt"><g stroke-width="2.5"><path d="M381.58737,39.92159v-16h4v16z"/><path d="M391.58736,34.04659h-16v-4h16z"/><g><path d="M387.70501,38.8676l-11.31371,-11.31371l2.82843,-2.82843l11.31371,11.31371z"/><path d="M390.62182,27.64232l-11.3137,11.3137l-2.82843,-2.82842l11.31371,-11.31371z"/></g></g><g stroke-width="0"><path d="M381.46237,40.04659v-16h4v16z"/><path d="M391.46236,34.17159h-16v-4h16z"/><g><path d="M387.58001,38.9926l-11.31371,-11.31371l2.82843,-2.82843l11.31371,11.31371z"/><path d="M390.49682,27.76732l-11.3137,11.3137l-2.82843,-2.82842l11.31371,-11.31371z"/></g></g><g stroke-width="0"><path d="M382.0957,37.10486v-10.2h2.55v10.2z"/><path d="M388.47069,33.35963h-10.2v-2.55h10.2z"/><g><path d="M385.99575,36.43303l-7.21249,-7.21249l1.80312,-1.80312l7.21249,7.21249z"/><path d="M387.85516,29.27687l-7.21249,7.21249l-1.80312,-1.80312l7.21249,-7.21249z"/></g></g><path d="M381.4396,32.04794c0,-1.05855 0.85812,-1.91667 1.91667,-1.91667c1.05855,0 1.91667,0.85812 1.91667,1.91667c0,1.05855 -0.85812,1.91667 -1.91667,1.91667c-1.05855,0 -1.91667,-0.85812 -1.91667,-1.91667z" stroke-width="0.5"/></g><g fill="#000000" stroke="#000000" stroke-linecap="butt"><g><g stroke-width="2.5"><path d="M429.95879,40.16445v-16h4v16z"/><path d="M439.95881,34.28945h-16v-4h16z"/><g><path d="M436.07644,39.11046l-11.31371,-11.31371l2.82843,-2.82843l11.31371,11.31371z"/><path d="M438.99326,27.88518l-11.3137,11.3137l-2.82843,-2.82842l11.31371,-11.31371z"/></g></g><g stroke-width="0"><path d="M429.83379,40.28945v-16h4v16z"/><path d="M439.83381,34.41445h-16v-4h16z"/><g><path d="M435.95144,39.23546l-11.31371,-11.31371l2.82843,-2.82843l11.31371,11.31371z"/><path d="M438.86826,28.01018l-11.3137,11.3137l-2.82843,-2.82842l11.31371,-11.31371z"/></g></g><g stroke-width="0"><path d="M430.46712,37.34772v-10.2h2.55v10.2z"/><path d="M436.84214,33.60249h-10.2v-2.55h10.2z"/><g><path d="M434.36718,36.67589l-7.21249,-7.21249l1.80312,-1.80312l7.21249,7.21249z"/><path d="M436.2266,29.51973l-7.21249,7.21249l-1.80312,-1.80312l7.21249,-7.21249z"/></g></g><path d="M429.81103,32.2908c0,-1.05855 0.85812,-1.91667 1.91667,-1.91667c1.05855,0 1.91667,0.85812 1.91667,1.91667c0,1.05855 -0.85812,1.91667 -1.91667,1.91667c-1.05855,0 -1.91667,-0.85812 -1.91667,-1.91667z" stroke-width="0.5"/></g><g><g stroke-width="2.5"><path d="M412.79212,68.83112v-16h4v16z"/><path d="M422.79214,62.95612h-16v-4h16z"/><g><path d="M418.90977,67.77713l-11.31371,-11.31371l2.82843,-2.82843l11.31371,11.31371z"/><path d="M421.82659,56.55185l-11.3137,11.3137l-2.82843,-2.82842l11.31371,-11.31371z"/></g></g><g stroke-width="0"><path d="M412.66712,68.95612v-16h4v16z"/><path d="M422.66714,63.08112h-16v-4h16z"/><g><path d="M418.78477,67.90213l-11.31371,-11.31371l2.82843,-2.82843l11.31371,11.31371z"/><path d="M421.70159,56.67685l-11.3137,11.3137l-2.82843,-2.82842l11.31371,-11.31371z"/></g></g><g stroke-width="0"><path d="M413.30045,66.01439v-10.2h2.55v10.2z"/><path d="M419.67547,62.26916h-10.2v-2.55h10.2z"/><g><path d="M417.20051,65.34256l-7.21249,-7.21249l1.80312,-1.80312l7.21249,7.21249z"/><path d="M419.05993,58.1864l-7.21249,7.21249l-1.80312,-1.80312l7.21249,-7.21249z"/></g></g><path d="M412.64436,60.95747c0,-1.05855 0.85812,-1.91667 1.91667,-1.91667c1.05855,0 1.91667,0.85812 1.91667,1.91667c0,1.05855 -0.85812,1.91667 -1.91667,1.91667c-1.05855,0 -1.91667,-0.85812 -1.91667,-1.91667z" stroke-width="0.5"/></g></g><path d="M413.96166,62.689v-3.5h21.7v3.5z" fill="#000000" stroke="#000000" stroke-width="1.5" stroke-linecap="butt"/><path d="M375.35853,34.43068v-4.66666h60.66667v4.66666z" fill="#000000" stroke="#000000" stroke-width="2" stroke-linecap="butt"/><g data-paper-data="{&quot;index&quot;:null}" fill="#000000" stroke="#000000"><path d="M315.42626,133.87419v-24.47138h24.47137v24.47138z" data-paper-data="{&quot;index&quot;:null}" stroke-width="0" stroke-linecap="butt"/><g data-paper-data="{&quot;index&quot;:null}"><path d="M316.12155,133.09946v-23.3268h23.3268v23.3268z" stroke-width="0" stroke-linecap="butt"/><path d="M318.52527,130.66046v-18.48643h18.48645v18.48644z" stroke-width="3" stroke-linecap="butt"/><path d="M320.55379,128.50565v-14.35496h14.35494v14.35496z" stroke-width="0" stroke-linecap="butt"/><path d="M333.31372,115.81243l-10.79944,10.79944" stroke-width="5" stroke-linecap="round"/><path d="M321.88775,128.47957v-14.63642" stroke-width="1" stroke-linecap="round"/><path d="M323.4632,129.03859v-15.24627" stroke-width="1" stroke-linecap="round"/><path d="M325.03862,128.98781v-15.04299" stroke-width="1" stroke-linecap="round"/><path d="M326.76655,113.79239v14.94136" stroke-width="1" stroke-linecap="round"/><path d="M328.39277,128.93695v-15.24627" stroke-width="1" stroke-linecap="round"/><path d="M330.17151,113.63985v14.8397" stroke-width="1" stroke-linecap="round"/><path d="M331.84848,113.63984v15.19546" stroke-width="1" stroke-linecap="round"/><path d="M333.5764,128.98786v-15.09381" stroke-width="1" stroke-linecap="round"/><path d="M335.24093,113.81862l-15.25214,15.25213" stroke-width="3" stroke-linecap="round"/><path d="M319.95567,129.03734v-15.48474h15.48474v15.48474z" stroke-width="1.25" stroke-linecap="butt"/></g></g><g fill="#000000" stroke="#000000"><g><path d="M245.43546,111.98032l93.24781,-30.27534l6.47555,18.92209l-93.24779,30.27533z" data-paper-data="{&quot;index&quot;:null}" stroke-width="1.75" stroke-linecap="butt"/><path d="M245.48998,110.87112l5.94034,-1.7409l6.0931,20.79121l-5.94034,1.74088z" data-paper-data="{&quot;index&quot;:null}" stroke-width="2" stroke-linecap="butt"/><path d="M337.60179,100.14251l-81.05872,25.99232" data-paper-data="{&quot;index&quot;:null}" stroke-width="1.75" stroke-linecap="round"/><path d="M256.54317,123.12026l81.05872,-25.99233" data-paper-data="{&quot;index&quot;:null}" stroke-width="1.75" stroke-linecap="round"/><path d="M254.23786,120.81497l81.05872,-25.99233" data-paper-data="{&quot;index&quot;:null}" stroke-width="1.75" stroke-linecap="round"/><path d="M253.88324,117.80039l81.05872,-25.99233" data-paper-data="{&quot;index&quot;:null}" stroke-width="1.75" stroke-linecap="round"/><path d="M334.94196,88.79347l-81.05872,25.99233" data-paper-data="{&quot;index&quot;:null}" stroke-width="1.75" stroke-linecap="round"/><path d="M251.93265,112.69332l81.05871,-26.20512" data-paper-data="{&quot;index&quot;:null}" stroke-width="1.75" stroke-linecap="round"/></g><path d="M333.19158,82.54918l5.94035,-1.7409l6.0931,20.79121l-5.94034,1.74088z" data-paper-data="{&quot;index&quot;:null}" stroke-width="2" stroke-linecap="butt"/></g><path d="M4.88419,70.91606l4.97783,-10.15978" fill="none" stroke="#000000" stroke-width="2" stroke-linecap="round"/><path d="M358.794,292.10711l-0.73873,3.08686l-9.60161,0.23597l48.58364,-16.25647" data-paper-data="{&quot;index&quot;:null}" fill="none" stroke="#000000" stroke-width="3" stroke-linecap="round"/></g></g></svg>