<svg version="1.1" xmlns="http://www.w3.org/2000/svg" xmlns:xlink="http://www.w3.org/1999/xlink" width="105.72111" height="69.11673" viewBox="0,0,105.72111,69.11673"><defs><linearGradient x1="239.58352" y1="152.67201" x2="239.58352" y2="177.97593" gradientUnits="userSpaceOnUse" id="color-1"><stop offset="0" stop-color="#181818"/><stop offset="1" stop-color="#0e0e0e"/></linearGradient><linearGradient x1="229.96586" y1="150.23252" x2="229.96586" y2="159.26766" gradientUnits="userSpaceOnUse" id="color-2"><stop offset="0" stop-color="#181818"/><stop offset="1" stop-color="#0e0e0e"/></linearGradient><linearGradient x1="248.52532" y1="151.92016" x2="248.52532" y2="160.32016" gradientUnits="userSpaceOnUse" id="color-3"><stop offset="0" stop-color="#181818"/><stop offset="1" stop-color="#0e0e0e"/></linearGradient></defs><g transform="translate(-191.29734,-134.95587)"><g data-paper-data="{&quot;isPaintingLayer&quot;:true}" fill-rule="nonzero" stroke-linejoin="miter" stroke-miterlimit="10" stroke-dasharray="" stroke-dashoffset="0" style="mix-blend-mode: normal"><path d="M246.33821,154.97329c0,0 5.92224,1.51232 7.673,3.69286c1.80528,2.24843 3.00014,9.6003 3.00014,9.6003" data-paper-data="{&quot;index&quot;:null}" fill="none" stroke="#000000" stroke-width="7.5" stroke-linecap="round"/><path d="M215.08727,154.60832c0,0 4.32669,-3.63286 7.88831,-3.73164c3.60621,0.13521 9.42408,3.64491 9.42408,3.64491" fill="none" stroke="#000000" stroke-width="7.5" stroke-linecap="round"/><path d="M246.62391,155.40186c0,0 5.92224,1.51232 7.673,3.69286c1.80528,2.24843 3.00014,9.6003 3.00014,9.6003" data-paper-data="{&quot;index&quot;:null}" fill="none" stroke="#585858" stroke-width="5.5" stroke-linecap="round"/><path d="M229.451,196.45007c0,0 0.18088,-10.40209 0.45217,-11.66728c0.47826,-2.23033 7.95017,-8.29649 10.51456,-8.351c2.07002,-0.044 9.8193,2.66283 10.549,9.21202c1.13703,3.70773 0.63077,11.88162 0.63077,11.88162" data-paper-data="{&quot;index&quot;:null}" fill="none" stroke="#000000" stroke-width="7.5" stroke-linecap="round"/><path d="M215.2301,154.46547c0,0 4.32669,-3.63286 7.88831,-3.73164c3.60621,0.13521 9.42408,3.64491 9.42408,3.64491" fill="none" stroke="#585858" stroke-width="5.5" stroke-linecap="round"/><path d="M229.76404,143.08604c8.20973,-6.19202 -1.78235,-5.97871 -1.78235,-5.97871c0,0 4.91903,-2.22596 8.20278,0.68129c2.79973,2.93737 1.60228,2.40914 3.47389,3.20798c4.53063,-5.34012 -2.92908,-4.90776 -2.92908,-4.90776c0,0 5.77764,-1.52144 7.80317,1.50065c0.03347,0.07404 5.35044,6.08049 4.37719,11.68534c-0.8289,4.82061 -5.17222,7.55544 -8.17254,7.91464c-4.12661,0.49406 -13.50869,-4.59508 -10.97306,-14.10342z" fill="#555555" stroke="#000000" stroke-width="1.5" stroke-linecap="butt"/><path d="M235.17607,140.44315c0,0 1.28395,1.12225 2.58079,1.9297c1.31089,0.8162 2.76267,0.69393 3.30069,0.92357c2.00509,-2.36334 2.22552,-3.76708 2.22552,-3.76708c0,0 4.1729,5.3498 3.54365,9.11371c-0.28882,1.72761 -1.14182,2.40667 -2.36047,3.28522c-1.14403,0.82476 -2.61029,1.89317 -4.23454,2.1494c-1.19449,0.14301 -6.66017,-2.07471 -7.77097,-5.60216c-1.10352,-3.50433 2.71532,-8.03236 2.71532,-8.03236z" fill="#101010" stroke="#000000" stroke-width="1.5" stroke-linecap="butt"/><path d="M235.51305,147.70155c0,-1.44482 1.12044,-2.61611 2.50253,-2.61611c1.38209,0 2.50253,1.17129 2.50253,2.61611c0,1.44482 -1.12044,2.6161 -2.50253,2.6161c-1.38209,0 -2.50253,-1.17128 -2.50253,-2.6161z" fill="#000000" stroke="none" stroke-width="0" stroke-linecap="butt"/><path d="M241.9476,147.70155c0,-1.44482 1.12042,-2.6161 2.50252,-2.6161c1.38209,0 2.50252,1.17128 2.50252,2.6161c0,1.44482 -1.12043,2.61611 -2.50252,2.61611c-1.38209,0 -2.50252,-1.17129 -2.50252,-2.61611z" fill="#000000" stroke="none" stroke-width="0" stroke-linecap="butt"/><path d="M232.189,203.57259c-0.76818,0 -3.28887,0 -4.98816,0c-0.94111,0 -1.63027,-0.70491 -1.63027,-1.27511c0,-1.16179 0,-5.29338 0,-5.29338h7.52865c0,0 0,4.28439 0,5.42284c0,0.52328 -0.46758,1.14566 -0.91022,1.14566z" data-paper-data="{&quot;index&quot;:null}" fill="#191919" stroke="#000000" stroke-width="1" stroke-linecap="butt"/><path d="M254.37776,203.32086c-0.76818,0 -3.28887,0 -4.98816,0c-0.94111,0 -1.63025,-0.70491 -1.63025,-1.27511c0,-1.16179 0,-5.29338 0,-5.29338h7.52863c0,0 0,4.28439 0,5.42284c0,0.52328 -0.46758,1.14566 -0.91022,1.14566z" data-paper-data="{&quot;index&quot;:null}" fill="#191919" stroke="#000000" stroke-width="1" stroke-linecap="butt"/><path d="M240.02639,175.18759c-5.68922,0.3512 -8.36198,3.33554 -8.85635,2.6998c-0.27009,-0.69992 -0.95739,-8.72202 -1.07403,-12.91813c-0.11584,-4.16726 0.30414,-12.29725 1.74006,-12.29725c1.2099,0 2.39135,3.77129 7.26732,3.69475c5.75091,-0.09026 6.79016,-4.75557 7.81789,-3.14345c1.02775,1.61211 0.73208,5.66583 1.11697,11.80282c0.3849,6.13699 1.05103,11.8778 1.05103,11.8778c0,0 -2.71165,-2.1084 -9.06289,-1.71634z" data-paper-data="{&quot;index&quot;:null}" fill="url(#color-1)" stroke="#000000" stroke-width="1.5" stroke-linecap="butt"/><path d="M227.08782,158.35334c0,0 -0.72164,-3.42862 -0.38343,-4.66614c0.347,-1.26968 1.77349,-3.45468 1.77349,-3.45468l3.13952,0.65069c0,0 1.73248,1.86667 1.6996,2.51455c-0.07316,1.44185 -2.12504,5.8699 -2.12504,5.8699z" fill="url(#color-2)" stroke="#000000" stroke-width="1.5" stroke-linecap="butt"/><path d="M245.91169,160.12015c0,0 -0.81193,-4.81233 -0.50239,-6.22246c0.13909,-0.63363 2.30239,-1.97753 2.30239,-1.97753l3.2,0.2c0,0 0.8,2.48377 0.8,3.80001c0,1.2829 -1.6,4.39999 -1.6,4.39999z" data-paper-data="{&quot;index&quot;:null}" fill="url(#color-3)" stroke="#000000" stroke-width="1.5" stroke-linecap="butt"/><path d="M232.189,159.01776l1.25288,-4.07619c0,0 4.03717,1.57143 6.03215,1.57143c2.18729,0 5.48164,-1.14286 5.48164,-1.14286v5.02857c0,0 -4.69185,1.24925 -6.8793,1.29885c-1.99475,0.04523 -5.88737,-2.6798 -5.88737,-2.6798z" fill="#2e0000" stroke="#000000" stroke-width="1.5" stroke-linecap="butt"/><path d="M248.88988,169.46339c0,0 -5.51611,1.67473 -8.48921,1.92632c-2.93506,0.24837 -8.74888,-0.42632 -8.74888,-0.42632" fill="none" stroke="#000000" stroke-width="1.5" stroke-linecap="round"/><path d="M243.67369,148.16208c0,-0.69036 0.55964,-1.25 1.25,-1.25c0.69036,0 1.25,0.55964 1.25,1.25c0,0.69036 -0.55964,1.25 -1.25,1.25c-0.69036,0 -1.25,-0.55964 -1.25,-1.25z" fill="#a60000" stroke="none" stroke-width="0.5" stroke-linecap="butt"/><path d="M237.42369,148.16208c0,-0.69036 0.55964,-1.25 1.25,-1.25c0.69036,0 1.25,0.55964 1.25,1.25c0,0.69036 -0.55964,1.25 -1.25,1.25c-0.69036,0 -1.25,-0.55964 -1.25,-1.25z" fill="#a60000" stroke="none" stroke-width="0.5" stroke-linecap="butt"/><path d="M194.29735,148.86553l78.42016,25.26981l-9.87973,-0.67962" data-paper-data="{&quot;index&quot;:null}" fill="none" stroke="#000000" stroke-width="6" stroke-linecap="round"/><path d="M235.58167,168.62903c-0.12718,-1.07803 0.75032,-3.14755 0.75032,-3.14755c0,0 1.89324,0.49043 2.59725,0.40737c0.86978,-0.10261 2.23003,-0.97686 2.23003,-0.97686c0,0 1.14116,1.89406 1.26104,2.91027c0.14149,1.19933 -0.46614,3.82781 -0.46614,3.82781c0,0 -1.42255,1.39144 -2.17071,1.4797c-0.84833,0.10008 -2.65658,-0.91022 -2.65658,-0.91022c0,0 -1.40815,-2.42879 -1.54521,-3.59052z" fill="#2e0000" stroke="#000000" stroke-width="2" stroke-linecap="butt"/><path d="M194.29735,148.86553l78.42016,25.26981l-9.87973,-0.67962" data-paper-data="{&quot;index&quot;:null}" fill="none" stroke="#a60000" stroke-width="3" stroke-linecap="round"/><path d="M253.44769,168.81253c0,-2.04321 1.57032,-3.69959 3.50737,-3.69959c1.93705,0 3.50736,1.65637 3.50736,3.69959c0,2.04321 -1.5703,3.69958 -3.50736,3.69958c-1.93706,0 -3.50737,-1.65637 -3.50737,-3.69957z" fill="#000000" stroke="none" stroke-width="0" stroke-linecap="butt"/><path d="M211.59658,157.31754c-1.05886,-1.74744 -0.57424,-3.97781 1.0824,-4.98165c1.65664,-1.00384 3.85802,-0.40103 4.91688,1.34642c1.05886,1.74744 0.57425,3.97781 -1.0824,4.98165c-1.65664,1.00384 -3.85802,0.40102 -4.91687,-1.34641z" fill="#000000" stroke="none" stroke-width="0" stroke-linecap="butt"/></g></g></svg>