<svg version="1.1" xmlns="http://www.w3.org/2000/svg" xmlns:xlink="http://www.w3.org/1999/xlink" width="68.30674" height="70.95071" viewBox="0,0,68.30674,70.95071"><defs><linearGradient x1="262.76914" y1="151.09414" x2="264.52752" y2="152.85252" gradientUnits="userSpaceOnUse" id="color-1"><stop offset="0" stop-color="#333333"/><stop offset="1" stop-color="#515151"/></linearGradient><linearGradient x1="241.38805" y1="182.68916" x2="224.08805" y2="182.68916" gradientUnits="userSpaceOnUse" id="color-2"><stop offset="0" stop-color="#0e0e0e"/><stop offset="1" stop-color="#141414"/></linearGradient><linearGradient x1="237.07774" y1="182.62972" x2="228.54203" y2="182.62972" gradientUnits="userSpaceOnUse" id="color-3"><stop offset="0" stop-color="#3e3e3e"/><stop offset="1" stop-color="#2d2d2d"/></linearGradient><linearGradient x1="201.9929" y1="188.72249" x2="199.02306" y2="191.69233" gradientUnits="userSpaceOnUse" id="color-4"><stop offset="0" stop-color="#333333"/><stop offset="1" stop-color="#515151"/></linearGradient><linearGradient x1="227.16041" y1="187.80848" x2="238.91131" y2="187.80848" gradientUnits="userSpaceOnUse" id="color-5"><stop offset="0" stop-color="#002864"/><stop offset="1" stop-color="#004c7d"/></linearGradient><linearGradient x1="240.93732" y1="187.80848" x2="252.68822" y2="187.80848" gradientUnits="userSpaceOnUse" id="color-6"><stop offset="0" stop-color="#002864"/><stop offset="1" stop-color="#004c7d"/></linearGradient><linearGradient x1="253.43352" y1="168.30419" x2="226.3621" y2="168.30419" gradientUnits="userSpaceOnUse" id="color-7"><stop offset="0" stop-color="#252525"/><stop offset="1" stop-color="#151515"/></linearGradient><linearGradient x1="236.22538" y1="158.31519" x2="249.22628" y2="158.31519" gradientUnits="userSpaceOnUse" id="color-8"><stop offset="0" stop-color="#002864"/><stop offset="1" stop-color="#004c7d"/></linearGradient><linearGradient x1="258.42628" y1="170.95129" x2="263.42628" y2="170.95129" gradientUnits="userSpaceOnUse" id="color-9"><stop offset="0" stop-color="#002864"/><stop offset="1" stop-color="#004c7d"/></linearGradient><linearGradient x1="235.55224" y1="172.77409" x2="246.54291" y2="172.77409" gradientUnits="userSpaceOnUse" id="color-10"><stop offset="0" stop-color="#002864"/><stop offset="1" stop-color="#004c7d"/></linearGradient></defs><g transform="translate(-223.08805,-124.39225)"><g data-paper-data="{&quot;isPaintingLayer&quot;:true}" fill-rule="nonzero" stroke="#000000" stroke-linecap="butt" stroke-linejoin="miter" stroke-miterlimit="10" stroke-dasharray="" stroke-dashoffset="0" style="mix-blend-mode: normal"><g data-paper-data="{&quot;index&quot;:null}"><path d="M239.34503,178.43501l-2.35838,-2.35838l46.56903,-46.16903l5.64686,-3.34502l-3.40707,5.62199z" fill="url(#color-1)" stroke-width="1.5"/><path d="M232.73805,191.33916c-4.77726,0 -8.65,-3.87274 -8.65,-8.65c0,-4.77726 3.87274,-8.65 8.65,-8.65c4.77726,0 8.65,3.87274 8.65,8.65c0,4.77726 -3.87274,8.65 -8.65,8.65z" fill="url(#color-2)" stroke-width="2"/><path d="M228.54203,186.89757v-8.53571h8.53571v8.53571z" fill="url(#color-3)" stroke-width="1.5"/></g><path d="" fill="url(#color-4)" stroke-width="1.5"/><path d="M233.03586,193.84296c-3.24492,0 -5.87545,-2.70173 -5.87545,-6.03448c0,-3.33275 2.63053,-6.03448 5.87545,-6.03448c3.24492,0 5.87545,2.70173 5.87545,6.03448c0,3.33275 -2.63053,6.03448 -5.87545,6.03448z" data-paper-data="{&quot;index&quot;:null}" fill="url(#color-5)" stroke-width="3"/><path d="M246.81277,193.84296c-3.24492,0 -5.87545,-2.70173 -5.87545,-6.03448c0,-3.33275 2.63053,-6.03448 5.87545,-6.03448c3.24492,0 5.87545,2.70173 5.87545,6.03448c0,3.33275 -2.63053,6.03448 -5.87545,6.03448z" data-paper-data="{&quot;index&quot;:null}" fill="url(#color-6)" stroke-width="3"/><path d="M253.43352,187.27962c0,0 -2.86479,0 -5.19247,0c-1.44268,0 -4.00883,0 -6.88845,0c-3.43372,0 -7.31319,0 -10.26515,0c-2.77145,0 -4.72536,0 -4.72536,0c0,0 0,-27.68012 0,-33.60553c0,-2.13071 1.8938,-4.34533 3.87437,-4.34533c5.50644,0 15.72141,0 18.8,0c1.47693,0 4.19706,2.09852 4.19706,4.14533c0,5.8451 0.2,33.80552 0.2,33.80552z" data-paper-data="{&quot;index&quot;:null}" fill="url(#color-7)" stroke-width="3"/><path d="M237.04649,161.89852c0,0 -0.82111,-2.49469 -0.82111,-3.79412c0,-1.02239 0.82111,-3.37255 0.82111,-3.37255h11.35868c0,0 0.82111,2.2839 0.82111,3.58333c0,1.02238 -0.82111,3.58333 -0.82111,3.58333z" data-paper-data="{&quot;index&quot;:null}" fill="url(#color-8)" stroke-width="2"/><path d="M258.42628,193.68462v-45.46667h5v45.46667z" data-paper-data="{&quot;index&quot;:null}" fill="url(#color-9)" stroke-width="2"/><path d="M239.63646,175.67409v-5.6h18.8v5.6z" data-paper-data="{&quot;index&quot;:null}" fill="#5a5a5a" stroke-width="2"/><path d="M241.04757,180.26942l-5.49533,-7.49533l5.49533,-7.49534l5.49534,7.49534z" data-paper-data="{&quot;index&quot;:null}" fill="url(#color-10)" stroke-width="2"/></g></g></svg>