<svg version="1.1" xmlns="http://www.w3.org/2000/svg" xmlns:xlink="http://www.w3.org/1999/xlink" width="47.98099" height="25.67352" viewBox="0,0,47.98099,25.67352"><g transform="translate(-210.42715,-169.55237)"><g data-paper-data="{&quot;isPaintingLayer&quot;:true}" fill-rule="nonzero" stroke="#000000" stroke-width="1" stroke-linejoin="miter" stroke-miterlimit="10" stroke-dasharray="" stroke-dashoffset="0" style="mix-blend-mode: normal"><path d="M227.4785,176.13051c0.94387,0.5367 2.30055,1.3122 2.76714,2.19062c0.78894,1.48526 1.27489,0.83991 0.41284,2.35596c-0.16684,0.29338 -4.84259,1.82282 -5.05826,2.067c-0.5047,0.57139 1.7384,2.17153 0.98501,2.72107c-2.39973,0.80396 -2.30645,5.36689 -3.81462,4.50933c-1.25383,-0.71296 -2.46871,-2.45115 -4.43501,-3.30487c-3.56249,-1.54672 -3.37759,-3.69683 -3.37759,-3.69683c0,0 3.09525,1.53174 3.34261,0.77676c0.3567,-1.08878 -0.0908,-1.94098 -0.52069,-2.5325c-1.5059,-2.07215 -4.16564,-4.04603 -4.16564,-4.04603c0,0 6.46024,2.26281 6.99298,1.75321c0.23605,-0.22582 1.58144,-0.41561 1.77878,-0.63812z" data-paper-data="{&quot;index&quot;:null}" fill="#000000" stroke-linecap="butt"/><path d="M225.23197,190.08038c0,0 1.1389,-2.72005 1.1389,-4.16666c0,-1.50909 -1.47223,-4.81945 -1.47223,-4.81945l4.05556,-0.11111c0,0 2.20833,3.42023 2.20833,4.81945c0,1.5447 -2.76389,4.16666 -2.76389,4.16666z" data-paper-data="{&quot;index&quot;:null}" fill="#282828" stroke-linecap="butt"/><path d="M230.23885,193.60471c0,0 -0.63336,-0.05897 -1.05155,-0.05897c-0.33739,0 0.42387,0.11795 -0.32853,0.13811c-0.13317,0.00357 -0.55789,-0.14045 -1.08053,-0.14854c-0.58359,-0.00904 -1.26728,0.11864 -1.35478,0.14298c-0.26292,0.07311 -0.50149,-0.12049 -1.16016,-0.11199c-0.33141,0.00427 -0.16694,0.12562 -0.58078,0.16145c-0.53792,0.04657 -1.10935,-0.12305 -1.10935,-0.12305c0,0 0.98611,-1.31395 0.98611,-1.90591c0,-0.55558 0.94318,-1.36183 0.94318,-1.36183c0,0 0.47717,0.44318 1.59063,0.44318c1.06964,0 1.69123,-0.35228 1.69123,-0.35228c0,0 0.82954,0.76442 0.82954,1.37873c0,0.51963 0.40278,1.79811 0.40278,1.79811z" data-paper-data="{&quot;index&quot;:null}" fill="#0f0f0f" stroke-linecap="butt"/><path d="M248.00975,189.85816c0,0 1.1389,-2.72005 1.1389,-4.16666c0,-1.50909 -1.47223,-4.81945 -1.47223,-4.81945l4.05556,-0.11111c0,0 2.20833,3.42023 2.20833,4.81945c0,1.5447 -2.76389,4.16666 -2.76389,4.16666z" data-paper-data="{&quot;index&quot;:null}" fill="#282828" stroke-linecap="butt"/><path d="M252.7944,193.38249c0,0 -0.63336,-0.05897 -1.05155,-0.05897c-0.33739,0 0.42387,0.11795 -0.32853,0.13811c-0.13317,0.00357 -0.55789,-0.14045 -1.08053,-0.14854c-0.58359,-0.00904 -1.26728,0.11864 -1.35478,0.14298c-0.26292,0.07311 -0.50149,-0.12049 -1.16016,-0.11199c-0.33141,0.00427 -0.16694,0.12562 -0.58078,0.16145c-0.53792,0.04657 -1.10935,-0.12305 -1.10935,-0.12305c0,0 0.98611,-1.31395 0.98611,-1.90591c0,-0.55558 0.94318,-1.36183 0.94318,-1.36183c0,0 0.47717,0.44318 1.59063,0.44318c1.06964,0 1.69123,-0.35228 1.69123,-0.35228c0,0 0.82954,0.76442 0.82954,1.37873c0,0.51963 0.40278,1.79811 0.40278,1.79811z" data-paper-data="{&quot;index&quot;:null}" fill="#0f0f0f" stroke-linecap="butt"/><path d="M226.16253,191.81649c0,0 2.02778,-1.7814 2.02778,-3.33334c0,-1.57278 0.41095,-3.20713 0.81537,-3.0524c1.03718,0.39683 2.87907,0.6774 2.87907,0.6774c0,0 -0.91666,1.36431 -0.91666,2.84723c0,1.62843 -1.30556,2.8611 -1.30556,2.8611z" data-paper-data="{&quot;index&quot;:null}" fill="#282828" stroke-linecap="butt"/><path d="M249.45419,191.08038c0,0 1.1389,-2.72005 1.1389,-4.16666c0,-1.50909 -1.47223,-4.81945 -1.47223,-4.81945l4.05556,-0.11111c0,0 2.20833,3.42023 2.20833,4.81945c0,1.5447 -2.76389,4.16666 -2.76389,4.16666z" data-paper-data="{&quot;index&quot;:null}" fill="#282828" stroke-linecap="butt"/><path d="M222.03378,179.94826c2.12442,-2.22531 5.16812,-1.9673 5.16812,-1.9673c0.92354,0.57097 2.25085,1.39572 2.6849,2.29067c0.73391,1.51321 1.24322,0.88612 0.32612,2.36952c-0.17749,0.28706 -4.90621,1.64392 -5.1307,1.88002c-0.52532,0.55249 1.65756,2.23385 0.88451,2.75538c-2.42761,0.71537 -2.50181,5.27865 -3.9775,4.36633c-1.22683,-0.75848 -2.37711,-2.54008 -4.31077,-3.46536c-3.50334,-1.67639 -3.23968,-3.81826 -3.23968,-3.81826c0,0 3.03697,1.64427 3.31186,0.89887c0.39641,-1.07496 -0.01953,-1.943 -0.42743,-2.5499c-1.42886,-2.12601 -4.01438,-4.19614 -4.01438,-4.19614c0,0 6.37287,2.49831 6.92395,2.0086c0.24418,-0.21701 1.59562,-0.35731 1.80099,-0.57243z" data-paper-data="{&quot;index&quot;:null}" fill="#282828" stroke-linecap="butt"/><path d="M254.46107,194.60471c0,0 -0.63336,-0.05897 -1.05155,-0.05897c-0.33739,0 0.42387,0.11795 -0.32853,0.13811c-0.13317,0.00357 -0.55789,-0.14045 -1.08053,-0.14854c-0.58359,-0.00904 -1.26728,0.11864 -1.35478,0.14298c-0.26292,0.07311 -0.50149,-0.12049 -1.16016,-0.11199c-0.33141,0.00427 -0.16694,0.12562 -0.58078,0.16145c-0.53792,0.04657 -1.10935,-0.12305 -1.10935,-0.12305c0,0 0.98611,-1.31395 0.98611,-1.90591c0,-0.55558 0.94318,-1.36183 0.94318,-1.36183c0,0 0.47717,0.44318 1.59063,0.44318c1.06964,0 1.69123,-0.35228 1.69123,-0.35228c0,0 0.82954,0.76442 0.82954,1.37873c0,0.51963 0.40278,1.79811 0.40278,1.79811z" data-paper-data="{&quot;index&quot;:null}" fill="#0f0f0f" stroke-linecap="butt"/><path d="M256.79199,182.15684c-0.02014,1.73831 -1.15776,2.98023 -2.42244,2.2845c-1.36328,-0.74997 -0.61786,-1.69576 -1.71008,-1.09777c-0.53166,0.29107 -1.71347,0.42809 -2.10712,1.30662c-0.76722,1.71225 -2.21807,2.59925 -3.17964,2.73135c-2.01898,0.27738 -1.822,0.98724 -4.32776,1.11294c-0.91083,0.04569 -3.55654,0.07331 -4.86339,-0.246c-1.63114,-0.39854 -3.22867,-0.36693 -4.57259,-1.34261c-0.40913,-0.29703 -1.03455,-1.04619 -1.58276,-0.78363c-0.59016,0.28265 -3.15315,0.34492 -3.66683,0.61309c-1.36311,0.71163 -0.78666,-0.27365 -1.08624,-1.98689c-0.14847,-0.84906 -1.2337,-1.81847 -1.3838,-2.5712c-0.16316,-0.81818 0.67966,-2.1072 0.79691,-2.75588c0.10774,-0.59597 3.81458,-3.44437 3.81458,-3.44437c0,0 6.49855,-1.16404 10.05746,-1.26663c0.45914,-0.01324 8.15868,-2.00241 8.15868,-2.00241c0,0 6.23582,0.77826 7.43272,3.24717c0.23058,0.47562 0.19718,1.57697 0.53511,2.41332c0.30653,0.75859 0.99235,1.24096 1.07793,1.92883c0.05934,0.47694 -0.9658,1.43396 -0.97073,1.85958z" data-paper-data="{&quot;index&quot;:null}" fill="#0f0f0f" stroke-linecap="butt"/><path d="M226.99009,175.14395c-0.0808,-0.58688 1.22896,-0.49037 2.42942,-0.98933c0.59483,-0.24722 0.33306,-1.30812 1.49941,-1.35367c0.66563,-0.02597 1.38914,-1.05454 2.36862,-0.90895c0.96174,0.14296 0.86361,1.39856 1.93909,1.74542c0.8226,0.26529 2.00998,-1.23872 3.0958,-1.39826c0.76572,-0.11251 1.4991,1.17081 1.93894,1.03406c0.70079,-0.21789 1.91473,-1.37925 2.58987,-1.60664c1.6625,-0.55994 0.97785,1.08752 2.22765,0.99043c0.28987,-0.02251 0.43844,-1.00666 1.17067,-1.12772c0.79275,-0.13106 2.17184,0.59979 2.48031,0.55988c0.73227,-0.09473 1.50973,-2.14774 2.19607,-2.0321c1.17163,0.1974 0.58266,1.76551 1.34259,2.41546c0.37655,0.32205 1.95876,-0.96066 3.02326,-0.67119c0.79436,0.21603 0.38121,2.12427 0.39798,2.24609c0.01638,0.11897 2.18136,1.35018 2.21838,1.86991c0.05075,0.71255 -3.02704,1.02247 -3.6174,1.22433c-0.48396,0.16548 -0.20496,-0.86501 -0.65423,-1.60913c-0.31279,-0.51808 -1.37611,-0.85 -1.62953,-0.74124c-1.01919,0.43742 -0.38814,0.73359 -1.75918,1.3164c-0.82384,0.35019 -1.84502,-1.04524 -3.34714,-0.76015c-1.06624,0.20237 0.66183,1.65432 -0.29385,2.09275c-0.48178,0.22104 -0.91978,-1.10037 -2.09717,-1.19522c-1.03587,-0.08345 -1.94549,1.54197 -2.31677,1.58619c-0.5489,0.06536 -1.87274,-0.80609 -2.41113,-0.76751c-1.06915,0.07661 -1.39866,1.76959 -2.40355,1.77277c-0.81551,0.00259 -1.8365,-1.62603 -2.61544,-1.73069c-0.89423,-0.12016 -1.86935,1.23136 -2.65785,1.1175c-0.73236,-0.10576 0.34394,-1.81086 -0.25438,-2.05044c-1.12239,-0.44942 -1.88006,2.43214 -2.91371,2.32119c-0.35835,-0.03847 -2.45256,1.19669 -2.88258,0.78508c-0.40299,-0.38573 0.95097,-4.02555 0.93587,-4.13521z" data-paper-data="{&quot;index&quot;:null}" fill="#1e1604" stroke-linecap="butt"/><path d="M220.44167,183.47048c0.37219,-0.60203 1.12781,-0.80946 1.68773,-0.46329c0.55991,0.34616 0.71209,1.11481 0.33989,1.71684c-0.37219,0.60203 -1.12781,0.80946 -1.68773,0.46329c-0.55991,-0.34616 -0.71209,-1.11481 -0.33989,-1.71684z" data-paper-data="{&quot;index&quot;:null}" fill="#ffffff" stroke-linecap="butt"/><path d="M233.94758,182.88934c0,0 4.8939,-1.60876 7.00325,-1.28203c1.91718,0.29697 5.1315,3.1617 5.1315,3.1617" data-paper-data="{&quot;index&quot;:null}" fill="none" stroke-linecap="round"/><path d="M231.34996,194.60471c0,0 -0.63336,-0.05897 -1.05155,-0.05897c-0.33739,0 0.42387,0.11795 -0.32853,0.13811c-0.13317,0.00357 -0.55789,-0.14045 -1.08053,-0.14854c-0.58359,-0.00904 -1.26728,0.11864 -1.35478,0.14298c-0.26292,0.07311 -0.50149,-0.12049 -1.16016,-0.11199c-0.33141,0.00427 -0.16694,0.12562 -0.58078,0.16145c-0.53792,0.04657 -1.10935,-0.12305 -1.10935,-0.12305c0,0 0.98611,-1.31395 0.98611,-1.90591c0,-0.55558 0.94318,-1.36183 0.94318,-1.36183c0,0 0.47717,0.44318 1.59063,0.44318c1.06964,0 1.69123,-0.35228 1.69123,-0.35228c0,0 0.82954,0.76442 0.82954,1.37873c0,0.51963 0.40278,1.79811 0.40278,1.79811z" data-paper-data="{&quot;index&quot;:null}" fill="#0f0f0f" stroke-linecap="butt"/></g></g></svg>