<svg version="1.1" xmlns="http://www.w3.org/2000/svg" xmlns:xlink="http://www.w3.org/1999/xlink" width="200.11094" height="246.05106" viewBox="0,0,200.11094,246.05106"><defs><radialGradient cx="222.54674" cy="127.71585" r="3.56128" gradientUnits="userSpaceOnUse" id="color-1"><stop offset="0" stop-color="#ff1c1c"/><stop offset="1" stop-color="#ff1c1c" stop-opacity="0"/></radialGradient></defs><g transform="translate(-115.34721,-23.12543)"><g data-paper-data="{&quot;isPaintingLayer&quot;:true}" fill-rule="nonzero" stroke="#000000" stroke-linejoin="miter" stroke-miterlimit="10" stroke-dasharray="" stroke-dashoffset="0" style="mix-blend-mode: normal"><g data-paper-data="{&quot;index&quot;:null}" stroke-width="1.5" stroke-linecap="butt"><g><path d="M154.04353,109.55172c0,0 8.01806,-11.44236 10.10491,-25.42253c2.08683,-13.98018 -0.7655,-36.1724 -0.7655,-36.1724c0,0 11.20672,25.31834 11.87608,37.38095c0.66933,12.06261 -6.26104,25.5825 -7.80369,29.84683c-0.20111,0.55592 -4.52341,-0.0345 -7.73796,-1.15616c-2.50772,-0.87499 -5.67384,-4.47669 -5.67384,-4.47669z" data-paper-data="{&quot;index&quot;:null}" fill="#160f3d"/><path d="M158.17402,111.8316c0,0 2.00429,-4.35924 4.35223,-9.48863c1.69418,-3.70119 3.61852,-8.17901 4.2018,-11.36471c1.39163,-7.60075 2.02979,-19.35001 2.02979,-19.35001c0,0 2.38649,7.05376 2.55397,14.17857c0.17656,7.5109 -2.78331,16.23207 -3.21401,17.87571c-0.72758,2.77663 -5.26042,10.28039 -5.26042,10.28039z" data-paper-data="{&quot;index&quot;:null}" fill="#2a2355"/></g><g><path d="M153.83441,113.55451c0,0 4.1365,-13.34562 1.84998,-27.29453c-2.28655,-13.94891 -11.78613,-34.20696 -11.78613,-34.20696c0,0 18.40966,20.68073 22.73433,31.96135c4.32468,11.28059 1.85879,26.27188 1.69354,30.80363c-0.02155,0.59075 -4.31746,1.34985 -7.72098,1.26454c-2.65513,-0.06655 -6.7707,-2.52802 -6.7707,-2.52802z" data-paper-data="{&quot;index&quot;:null}" fill="#160f3d"/><path d="M158.46413,114.46262c0,0 0.5758,-4.76331 1.24339,-10.36486c0.48172,-4.04192 0.94517,-8.89361 0.52668,-12.10515c-0.99841,-7.66231 -3.98231,-19.04429 -3.98231,-19.04429c0,0 4.42848,5.9866 6.76587,12.71918c2.46408,7.09745 2.3118,16.30593 2.40412,18.00256c0.156,2.86617 -1.8661,11.39633 -1.8661,11.39633z" data-paper-data="{&quot;index&quot;:null}" fill="#2a2355"/></g><g data-paper-data="{&quot;index&quot;:null}"><path d="M154.64067,114.06212c0,0 -1.85514,-13.84828 -9.7921,-25.54463c-7.93696,-11.69632 -25.07057,-26.08627 -25.07057,-26.08627c0,0 25.3963,11.02895 34.06127,19.44754c8.66498,8.41861 12.72765,23.05803 14.48223,27.23962c0.22872,0.54515 -3.3504,3.03933 -6.47461,4.39228c-2.43728,1.05545 -7.20618,0.5515 -7.20618,0.5515z" data-paper-data="{&quot;index&quot;:null}" fill="#160f3d"/><path d="M159.22336,112.94056c0,0 -1.47933,-4.56421 -3.22768,-9.92767c-1.26155,-3.87009 -2.88001,-8.4673 -4.6094,-11.20559c-4.12611,-6.53321 -11.61711,-15.60724 -11.61711,-15.60724c0,0 6.53437,3.57117 11.48476,8.698c5.21868,5.40467 8.95046,13.82448 9.74725,15.3252c1.34606,2.53522 3.09609,11.12532 3.09609,11.12532z" data-paper-data="{&quot;index&quot;:null}" fill="#2a2355"/></g><g><path d="M161.2032,117.52934c0,0 3.83922,-0.68096 4.42633,3.24471c1.55674,10.40883 15.9578,30.54431 15.9578,30.54431c0,0 0.9339,3.58673 -1.07113,5.21062c-0.53884,0.43642 -3.2478,-0.39405 -3.69265,-0.13864c-0.59749,0.34302 -11.47809,-15.88852 -14.36704,-31.55683c-0.40305,-2.18598 -1.25334,-7.30422 -1.25334,-7.30422z" fill="#100d25"/><path d="M172.45075,156.64211c-0.49516,0.18024 -9.20695,-17.94274 -11.09935,-22.9651c-1.75185,-4.64931 -4.00461,-14.65362 -4.00461,-14.65362l4.20501,-1.45217c0,0 1.75458,10.47747 3.82731,15.22212c2.02781,4.6419 12.73036,23.38686 12.73036,23.38686c0,0 -1.35765,0.44619 -2.64715,0.72768c-1.05498,0.23028 -2.63942,-0.40123 -3.01157,-0.2658z" data-paper-data="{&quot;index&quot;:null}" fill="#160f3d"/></g><g><path d="M178.70091,158.45179c0,0 3.08136,-4.10107 5.65737,-1.31087c6.83026,7.39819 27.72712,14.41552 27.72712,14.41552c0,0 2.64434,2.26642 2.06592,5.02051c-0.15548,0.74018 -2.59079,1.98959 -2.77646,2.5149c-0.24939,0.70561 -16.43481,-6.00708 -27.11537,-16.75518c-1.49012,-1.49953 -5.55854,-3.88488 -5.55854,-3.88488z" fill="#100d25"/><path d="M209.90109,182.98192c-0.24979,0.47356 -16.68773,-7.09502 -21.88348,-10.30368c-0.28701,-0.17726 -12.12578,-8.7225 -12.12578,-8.7225l3.08697,-5.71781c0,0 7.06089,7.07988 11.17122,9.48202c4.02134,2.35014 22.0504,10.28492 22.0504,10.28492c0,0 -0.74894,1.33094 -1.5381,2.47872c-0.64563,0.93907 -0.56315,2.12277 -0.76122,2.49832z" data-paper-data="{&quot;index&quot;:null}" fill="#160f3d"/></g><g><path d="M191.07527,149.64899l-3.09947,6.92235c0,0 -1.66488,-0.63725 -2.10462,-0.9774c-0.43975,-0.34011 -1.56066,-1.07426 -1.76319,-1.46885c-0.20253,-0.3946 -0.42058,-2.27333 -0.42058,-2.27333z" fill="#160f3d"/><path d="M175.77277,151.79519l7.16053,-2.1048l6.46944,9.53998l-5.1903,5.75502l-7.09393,2.57546l-6.46946,-9.53995z" fill="#2a2355"/></g><path d="M168.16116,116.88199c0.88152,4.35233 -1.93214,8.5952 -6.28447,9.47669c-4.35232,0.88151 -8.5952,-1.93214 -9.47668,-6.28448c-0.88152,-4.35233 1.93214,-8.5952 6.28447,-9.47669c4.35233,-0.88152 8.59521,1.93213 9.47669,6.28446z" fill="#100d25"/><path d="M156.62899,121.7567c-1.88961,-1.64774 -2.08567,-4.5153 -0.43791,-6.40492c1.64774,-1.88961 4.5153,-2.08567 6.40492,-0.43791c1.88961,1.64774 2.08567,4.5153 0.43791,6.40492c-1.64774,1.88961 -4.5153,2.08567 -6.40492,0.43791z" fill="#2a2355"/><path d="M183.03864,159.39422c-0.1374,1.43568 -1.14625,2.66691 -2.58193,2.52952c-1.43571,-0.1374 -2.75452,-1.59138 -2.61713,-3.02707c0.13739,-1.43569 1.41258,-2.48813 2.84828,-2.35075c1.43566,0.13739 2.48815,1.41257 2.35076,2.84827z" fill="#160f3d"/><g><path d="M204.87559,174.94317l5.7264,-4.44921l9.27343,1.36365l-4.94349,5.89765l1.4442,6.78332l-9.41966,-1.75726z" fill="#2a2355"/><path d="M211.9092,181.18147c-2.07302,-0.91462 -3.01208,-3.33659 -2.09746,-5.4096c0.91462,-2.07302 3.33657,-3.01208 5.4096,-2.09747c2.07303,0.91462 3.0121,3.33659 2.09748,5.40961c-0.91463,2.07303 -3.3366,3.01208 -5.40962,2.09746z" fill="#160f3d"/><path d="M216.03645,185.33622c0,0 -3.06867,-5.03243 -2.4957,-8.17561c0.57298,-3.14318 5.04312,-6.49056 5.04312,-6.49056l6.19297,0.90221l0.26232,14.76302z" fill="#160f3d"/></g></g><g stroke-width="1.5" stroke-linecap="butt"><g><path d="M267.166,87.40776c0,0 -0.98428,4.69338 -2.73695,6.68899c-2.24666,2.5581 -5.7191,5.19877 -6.1677,4.81375c-3.44113,-2.95348 -16.12664,-11.3138 -21.47895,-22.14464c-5.35229,-10.83087 -8.05297,-38.38655 -8.05297,-38.38655c0,0 8.43577,20.72363 17.13103,31.86779c8.69528,11.14414 21.30553,17.16068 21.30553,17.16068z" data-paper-data="{&quot;index&quot;:null}" fill="#160f3d"/><path d="M261.095,95.17847c0,0 -7.6382,-4.30242 -9.63778,-6.36173c-1.18367,-1.21902 -8.05146,-7.35522 -11.59326,-13.98098c-3.35973,-6.28517 -4.75266,-13.60025 -4.75266,-13.60025c0,0 6.33642,9.91475 11.28767,15.84713c2.07524,2.48645 5.9537,5.43798 9.24967,7.82659c4.56784,3.31034 8.45757,6.11929 8.45757,6.11929z" data-paper-data="{&quot;index&quot;:null}" fill="#2a2355"/></g><g><path d="M271.09205,89.42917c0,0 -2.37187,4.16786 -4.65064,5.53217c-2.92109,1.74887 -7.03452,3.20168 -7.34393,2.69798c-2.37358,-3.86396 -11.89633,-15.70189 -13.68158,-27.65043c-1.78528,-11.94853 4.06659,-39.01075 4.06659,-39.01075c0,0 1.69712,22.31032 6.56962,35.57905c4.87249,13.26871 15.03997,22.85199 15.03997,22.85199z" data-paper-data="{&quot;index&quot;:null}" fill="#160f3d"/><path d="M263.86365,95.43387c0,0 -5.95741,-6.43135 -7.23181,-9.00333c-0.7544,-1.52248 -5.4177,-9.46433 -6.76459,-16.85563c-1.27764,-7.01133 -0.36779,-14.40205 -0.36779,-14.40205c0,0 3.00239,11.37711 5.90319,18.53904c1.21582,3.00182 4.00642,6.99761 6.41447,10.27941c3.33728,4.54818 6.18218,8.41174 6.18218,8.41174z" data-paper-data="{&quot;index&quot;:null}" fill="#2a2355"/></g><g data-paper-data="{&quot;index&quot;:null}"><path d="M273.09472,89.79467c0,0 -3.90379,2.78513 -6.54495,3.06544c-3.38556,0.35932 -7.72867,-0.0511 -7.79779,-0.63823c-0.52992,-4.5037 -4.19588,-19.24747 -0.79438,-30.83991c3.4015,-11.59243 20.0847,-33.6895 20.0847,-33.6895c0,0 -7.83616,20.95771 -8.99114,35.04548c-1.15498,14.0878 4.04356,27.05665 4.04356,27.05665z" data-paper-data="{&quot;index&quot;:null}" fill="#160f3d"/><path d="M263.52685,92.0851c0,0 -2.70292,-8.33946 -2.77844,-11.20886c-0.0447,-1.69855 -0.93857,-10.86481 0.94554,-18.13772c1.78723,-6.89903 5.71888,-13.22307 5.71888,-13.22307c0,0 -2.05695,11.58541 -2.43462,19.30325c-0.15828,3.2348 0.69461,8.03339 1.50047,12.02332c1.11682,5.52957 2.07461,10.23096 2.07461,10.23096z" data-paper-data="{&quot;index&quot;:null}" fill="#2a2355"/></g><g><path d="M265.6507,96.70441c0,0 1.77801,4.87421 2.50267,6.97559c5.19402,15.06201 3.70775,34.54639 3.01882,34.54175c-0.51292,-0.00349 -2.46272,2.05237 -3.14655,1.93755c-2.54453,-0.42721 -3.49623,-4.00927 -3.49623,-4.00927c0,0 2.63032,-24.61523 -1.13574,-34.44296c-1.42037,-3.70651 2.25704,-5.00265 2.25704,-5.00265z" fill="#100d25"/><path d="M275.10293,136.2894c-0.39062,0.06518 -1.45929,1.39455 -2.49104,1.71314c-1.26113,0.3894 -2.6626,0.66895 -2.6626,0.66895c0,0 0.09461,-21.58491 -0.42389,-26.62382c-0.52995,-5.15044 -4.15756,-15.13525 -4.15756,-15.13525l4.37532,-0.8047c0,0 2.96108,9.818 3.7235,14.72755c0.82359,5.30348 2.15607,25.36745 1.63632,25.45415z" data-paper-data="{&quot;index&quot;:null}" fill="#160f3d"/></g><g><path d="M270.55202,140.94011c0,0 -2.36829,4.07839 -2.92776,6.11702c-4.01008,14.61216 -14.79812,28.41964 -15.36239,27.92807c-0.42012,-0.36597 -3.15498,-0.25546 -3.65451,-0.82336c-1.85862,-2.11308 -0.67161,-5.38726 -0.67161,-5.38726c0,0 14.73982,-16.39081 17.0461,-26.19217c0.8698,-3.69654 5.57019,-1.64231 5.57019,-1.64231z" fill="#100d25"/><path d="M255.45888,177.64672c-0.35721,-0.22949 -0.86781,-1.30059 -1.89193,-1.80046c-1.25177,-0.61097 -2.55862,-1.40116 -2.55862,-1.40116c0,0 11.79177,-15.77852 14.13638,-19.80309c2.39649,-4.11364 5.06017,-13.75136 5.06017,-13.75136l5.50075,3.459c0,0 -6.10224,13.26425 -6.26489,13.55978c-2.94462,5.34983 -13.53137,20.02666 -13.98183,19.7373z" data-paper-data="{&quot;index&quot;:null}" fill="#160f3d"/></g><g><path d="M262.96356,137.64767c0,0 0.73454,1.74288 0.75237,2.18606c0.01782,0.44317 -0.59682,1.63382 -0.81232,2.14627c-0.21547,0.51249 -1.35135,1.88643 -1.35135,1.88643l-6.10427,-4.5015z" fill="#160f3d"/><path d="M277.34989,136.60332l-0.93839,11.48843l-7.44305,1.24819l-7.35018,-2.45651l0.93836,-11.48845l7.26944,-1.6907z" fill="#2a2355"/></g><path d="M259.27468,99.5643c-1.37401,-4.22279 0.9354,-8.75987 5.15819,-10.13387c4.2228,-1.374 8.75988,0.9354 10.13388,5.15819c1.37401,4.22279 -0.9354,8.75987 -5.15818,10.13388c-4.2228,1.374 -8.75988,-0.9354 -10.13388,-5.15819z" fill="#100d25"/><path d="M265.92138,100.90422c-2.36421,-0.83435 -3.60443,-3.42727 -2.77008,-5.79149c0.83435,-2.36421 3.42727,-3.60443 5.79149,-2.77008c2.36421,0.83435 3.60443,3.42727 2.77008,5.79149c-0.83435,2.36421 -3.42727,3.60443 -5.79149,2.77008z" fill="#2a2355"/><path d="M267.23937,143.89477c-0.82599,-1.18228 -0.53714,-2.8103 0.64514,-3.63628c1.18228,-0.82599 2.81028,-0.53718 3.63628,0.64512c0.82599,1.18228 0.39323,3.09698 -0.78906,3.92298c-1.18227,0.826 -2.66636,0.25046 -3.49235,-0.93181z" fill="#160f3d"/><g><path d="M257.92374,176.02328l-7.336,6.16448l-2.08022,-6.61602l-7.20548,-2.70212l7.40237,-5.74987l7.17441,1.05593z" fill="#2a2355"/><path d="M247.08328,177.9029c-1.81621,-1.35472 -2.19031,-3.92531 -0.83559,-5.74152c1.35473,-1.81621 3.92531,-2.19031 5.74151,-0.83559c1.81621,1.35472 2.19032,3.92531 0.8356,5.74151c-1.35473,1.81621 -3.92531,2.19033 -5.74153,0.83561z" fill="#160f3d"/><path d="M243.92985,188.01432l-7.03532,-12.98154l4.9476,-3.8325c0,0 5.5386,0.71479 7.58394,3.16928c2.04533,2.45449 1.84984,8.34548 1.84984,8.34548z" fill="#160f3d"/></g></g><g><g><path d="M217.938,150.53565l-1.09036,-6.12305l-7.06918,-3.90352c0,0 4.90044,-2.91459 4.78546,-3.44698c-0.33607,-1.55607 -2.37967,-5.28764 -2.37967,-5.28764l-7.67055,-11.12102c0,0 13.571,8.17268 23.05423,5.74099c9.48323,-2.43166 16.21128,-15.80938 16.21128,-15.80938l-0.38289,15.45401l-0.22772,5.86623l4.25055,1.12412c0,0 -3.71047,4.25382 -3.42684,5.56703c0.44335,2.05277 1.96766,5.88716 1.96766,5.88716c0,0 -9.62255,3.62532 -14.62171,4.705c-4.20247,0.90763 -13.40029,1.347 -13.40029,1.347z" fill="#160f3d" stroke-width="1.5" stroke-linecap="butt"/><path d="M234.74366,131.18767c0,0 2.77154,3.45066 2.66795,4.66659c-0.07567,0.88823 -3.46723,0.81842 -3.46723,0.81842c0,0 2.50071,3.66819 2.36124,3.89966c-1.63318,2.71084 -6.15246,4.41668 -6.15246,4.41668c0,0 -3.152,-0.52098 -5.7508,-2.93195c-0.54396,-0.50466 0.29982,-3.89291 0.29982,-3.89291c0,0 -2.84711,0.97877 -3.28296,0.06484c-0.49191,-1.03147 -0.11267,-4.88186 -0.11267,-4.88186l-3.96343,1.87893c0,0 -1.98318,-2.95391 -3.52638,-3.00249c-3.50578,-0.11037 -7.71067,1.02274 -7.70531,0.3605c0.01028,-1.26255 0.97372,-4.11783 2.90623,-5.64025c2.3906,-1.88329 7.35699,-2.49742 7.35699,-2.49742c0,0 3.88144,-5.17879 9.42679,-6.41159c5.54535,-1.23277 10.07321,2.37049 10.07321,2.37049c0,0 4.22741,-2.58456 7.0164,-1.82945c2.78899,0.75509 4.3473,3.53425 5.52559,4.42606c0.34972,0.2647 -4.47536,2.0575 -8.26167,4.03411c-1.40565,0.73382 -0.02301,4.92778 -0.02301,4.92778z" fill="#2a2355" stroke-width="1.5" stroke-linecap="butt"/><path d="M231.78077,123.4173c0.72641,-0.59559 3.92178,-2.31217 3.92178,-2.31217c0,0 2.3798,1.46106 0.62609,2.8989c-0.80296,0.65835 -2.4072,1.25302 -3.95019,1.5209c-1.82699,0.31718 -3.55346,0.24421 -3.55346,0.24421c0,0 2.04822,-1.60771 2.95579,-2.35182z" data-paper-data="{&quot;index&quot;:null}" fill="#c11515" stroke-width="1.25" stroke-linecap="butt"/><path d="M225.09326,137.37585l-0.54727,-2.53397" fill="none" stroke-width="1.5" stroke-linecap="round"/><path d="M232.80255,133.19518l0.51991,2.40727" fill="none" stroke-width="1.5" stroke-linecap="round"/><path d="M231.40571,138.26773l-0.68409,-3.16746" fill="none" stroke-width="1.5" stroke-linecap="round"/><path d="M228.01856,138.99923l-0.68409,-3.16745" fill="none" stroke-width="1.5" stroke-linecap="round"/><path d="M215.3649,123.90604c0.09375,-0.08191 0.39157,-1.37174 1.07129,-1.86453c0.67973,-0.49282 1.95199,-0.8806 2.37889,-0.63694c0.93828,0.5355 2.01828,1.64024 2.47147,1.54235c2.48755,-0.53726 5.42581,1.24819 5.96307,3.73576c0.53726,2.48756 -1.27553,5.2991 -3.76312,5.83636c-0.70635,0.15257 -3.02029,-0.23289 -4.34009,-1.21527c-1.02647,-0.76406 -1.51925,-1.30937 -1.7919,-2.484c-0.27265,-1.17464 0.12946,-2.26073 0.65323,-3.20345c0,0 -3.04644,-1.35769 -2.64282,-1.71027z" fill="#100d25" stroke-width="1.25" stroke-linecap="butt"/><path d="M219.83315,128.36538c-0.30891,-1.43023 0.65811,-2.85259 2.15984,-3.17693c1.50174,-0.32436 2.96956,0.57219 3.27845,2.0024c0.30891,1.43023 -0.65811,2.85258 -2.15985,3.17693c-1.50174,0.32436 -2.96955,-0.57218 -3.27845,-2.00239z" fill="#c11515" stroke-width="1" stroke-linecap="butt"/><path d="M232.6873,127.86425c0.58855,-0.48252 3.17735,-1.87326 3.17735,-1.87326c0,0 1.92805,1.18372 0.50725,2.34864c-0.65052,0.53338 -1.95023,1.01515 -3.20036,1.23216c-1.48019,0.25697 -2.87893,0.19784 -2.87893,0.19784c0,0 1.65943,-1.30251 2.39471,-1.9054z" data-paper-data="{&quot;index&quot;:null}" fill="#c11515" stroke-width="1.25" stroke-linecap="butt"/><path d="M219.06573,128.46766c-0.4152,-1.92251 0.80668,-3.81763 2.7292,-4.23283c1.92251,-0.4152 3.81763,0.8067 4.23284,2.72922c0.4152,1.92251 -0.80669,3.81762 -2.72921,4.23282c-1.92251,0.4152 -3.81762,-0.80668 -4.23283,-2.72921z" fill="url(#color-1)" stroke-width="0" stroke-linecap="butt"/></g><path d="M212.35198,129.02659c0,0 -1.11675,-4.9694 0.77276,-9.2987c0.56153,-1.28661 -2.19966,-7.18284 -2.19966,-7.18284c0,0 6.50028,3.52257 7.74961,2.81179c1.91093,-1.08716 3.10254,-3.68465 5.87547,-4.20312c2.77295,-0.51847 4.34796,1.32286 7.14683,1.76828c1.49978,0.23869 4.44017,-5.33089 4.44017,-5.33089c0,0 0.4988,6.79964 0.89374,7.37008c1.61837,2.3374 3.43143,7.90226 3.43143,7.90226c0,0 -5.90563,-3.36078 -7.67494,-3.84826c-1.76931,-0.48748 -2.83257,-0.63794 -4.029,0.43231c-1.19641,1.07025 -1.78341,3.46339 -1.78341,3.46339c0,0 -1.56981,-2.02865 -3.736,-2.35699c-1.62318,-0.24604 -2.57081,-0.04848 -3.84639,0.69476c-0.42671,0.24863 -1.80903,-0.03501 -2.62287,0.63716c-0.81383,0.67218 -0.70686,1.95176 -1.27398,2.58137c-1.9852,2.20403 -3.14383,4.55942 -3.14383,4.55942z" fill="#100d25" stroke-width="1.5" stroke-linecap="butt"/><path d="M243.91412,146.31846c-0.66238,0.20421 -2.91462,-0.36722 -2.91462,-0.36722c0,0 -1.74046,-2.72762 -1.904,-4.02022c-0.1508,-1.19179 0.95792,-3.4575 0.95792,-3.4575c0,0 1.36103,-1.72706 2.30141,-1.95361c0.82085,-0.19773 1.9381,-0.31272 3.15426,0.64719c1.21616,0.95991 1.68922,2.15964 1.82911,3.28618c0.18869,1.51952 -0.47763,2.88051 -1.0643,3.88543c-0.58667,1.00492 -1.59933,1.74532 -2.35974,1.97977z" data-paper-data="{&quot;index&quot;:null}" fill="#100d25" stroke-width="1.5" stroke-linecap="butt"/><path d="M215.3622,150.17935c-0.89076,-0.70874 -1.9766,-1.71191 -2.31219,-3.14676c-0.24878,-1.06376 -0.20906,-2.30603 0.61021,-3.58277c0.81927,-1.27672 1.9084,-1.55013 2.74682,-1.6488c0.96051,-0.11303 2.82302,0.98595 2.82302,0.98595c0,0 1.80716,1.67022 2.06772,2.79656c0.28261,1.2216 -0.43281,4.27043 -0.43281,4.27043c0,0 -1.92442,1.27593 -2.61609,1.31527c-0.79401,0.04515 -1.99595,-0.28111 -2.88671,-0.98986z" fill="#100d25" stroke-width="1.5" stroke-linecap="butt"/></g><path d="M225.45374,188.46071c0,0 -0.3985,-1.40118 -0.9775,-3.68859c-0.10684,-0.42215 -2.97003,-1.64762 -2.97003,-1.64762c0,0 2.23989,-1.59811 2.1348,-2.0334c-0.3512,-1.45473 -0.37088,-1.07393 -0.70974,-2.63376c-0.10891,-0.50139 -3.40403,-1.23696 -3.40403,-1.23696c0,0 2.74392,-2.03657 2.62425,-2.67316c-0.07402,-0.39383 -0.24768,-2.39866 -0.30319,-2.71148c-0.12417,-0.69975 -7.77721,0.89534 -9.59819,-2.40783c-1.82099,-3.30316 -4.31622,-11.11115 -1.63839,-18.07163c2.67781,-6.96045 9.97689,-0.05207 9.97689,-0.05207l20.15262,-4.69781c0,0 7.03501,-5.78117 9.45359,-2.50932c2.41858,3.27186 5.25611,12.12272 3.41604,19.84992c-1.84008,7.72722 -10.14506,4.14797 -10.00419,4.94188c0.18133,1.02187 0.2584,1.46753 0.47108,2.68475c0.09741,0.55754 2.45594,1.40668 2.45594,1.40668c0,0 -1.78319,2.43953 -1.67521,3.06216c0.09498,0.54763 0.13127,1.09919 0.27881,1.60999c0.2141,0.74132 2.58839,1.76848 2.58839,1.76848c0,0 -1.95809,1.88706 -1.84945,2.51955c0.29459,1.71527 0.48158,2.81076 0.48158,2.81076z" fill="#100d25" stroke-width="1.5" stroke-linecap="butt"/><path d="M229.49724,207.61947c0.28319,-1.74033 1.57074,-3.13093 1.0355,-4.31574c-0.72501,-1.60486 -0.49147,-3.799 -0.35213,-4.53038c0.10103,-0.53043 0.87867,-1.02247 1.16225,-1.70895c0.3525,-0.85326 -0.27168,-2.12383 -0.44341,-2.24476c-0.31399,-0.22114 8.8626,-3.59096 13.29093,-3.22732c1.84004,0.15107 1.47057,4.22041 1.47057,4.22041c0,0 -0.37972,0.01864 0.51519,2.97863c0.21256,0.70304 2.11555,2.04734 2.38877,2.87196c0.04519,0.1364 1.97355,2.9257 1.6876,4.77187c-0.28595,1.84618 -0.98151,3.23065 -3.23815,5.23851c-2.25663,2.00784 -4.56928,3.55635 -8.21177,3.29372c-4.4412,-0.32021 -8.01892,-3.63273 -8.01892,-3.63273c0,0 -1.56698,-1.99125 -1.28645,-3.71527z" fill="#100d25" stroke-width="1.5" stroke-linecap="butt"/><path d="M232.82685,208.50073c-0.69361,-1.86236 -5.90389,-8.63983 -5.34747,-10.19993c1.31919,-3.69864 1.15884,-5.31539 1.15884,-5.31539l13.31458,-3.31145c0,0 2.87097,1.79488 3.83148,4.82303c1.16467,3.67176 1.37894,8.74773 1.85383,12.0841c0.30624,2.15159 -12.92881,6.9742 -14.81129,1.91967z" fill="#160f3d" stroke-width="1.5" stroke-linecap="butt"/><path d="M223.57316,195.89505c-2.37598,-0.12714 -4.00011,-1.45459 -5.08266,-1.08482c-2.84195,0.9707 -5.29755,2.62784 -5.30532,2.29654c-0.00351,-0.14974 -5.33681,4.11507 -5.24467,3.17374c0.08929,-0.91218 -0.68504,-4.60633 0.70301,-7.39378c1.26739,-2.54513 4.67873,-4.21851 5.31075,-4.66578c1.16417,-0.82395 6.01406,-1.81247 7.63871,-2.26149c4.68931,-1.29603 10.32425,4.71297 10.50196,4.68471c0.72352,-0.11505 2.97875,-3.39573 6.07591,-5.6299c1.95657,-1.41141 4.39887,-1.86906 6.52917,-2.54506c1.58199,-0.50201 5.34632,0.63925 8.42784,2.39915c2.618,1.49517 4.68751,3.6038 5.09686,3.7617c0.7874,0.30373 -6.50628,0.82075 -7.71642,2.22434c-2.44946,2.84108 -5.80138,5.37025 -5.80138,5.37025c0,0 -16.381,3.54316 -16.22214,2.79682c0,0 -2.73706,-3.01005 -4.91157,-3.12641z" fill="#100d25" stroke-width="1.5" stroke-linecap="butt"/><path d="M230.36341,154.16779c3.67776,-0.80521 20.75016,-4.76284 20.75016,-4.76284c0,0 1.74701,1.28256 2.34643,2.89798c0.22383,0.60325 -21.94304,4.35194 -21.81515,5.07279c0.0457,0.25758 0.69986,1.65834 0.75238,1.97701c0.10655,0.64664 20.13892,-5.08814 21.51833,-4.36117c0.29923,0.1577 3.80676,1.10215 3.80676,1.10215c0,0 -2.53663,2.0577 -3.66101,2.46305c-2.17362,0.78356 -21.09981,3.95494 -21.09702,4.60562c0.0027,0.62885 -0.03862,0.75755 1.14413,1.28589c1.26202,0.56373 17.23276,-3.44913 19.09566,-2.7759c1.11801,0.40403 3.77694,1.60353 3.77694,1.60353c0,0 -3.66263,1.11302 -3.63236,1.33061c0.0877,0.63069 -18.71666,2.2266 -18.60819,2.93049c0.06691,0.43426 -1.43991,2.17909 0.50075,2.05117c2.63321,-0.1736 10.55002,-1.3382 10.55002,-1.3382l4.74314,1.27547l-4.47272,2.03499c0,0 -10.18073,0.65048 -10.26642,1.18865c-0.05665,0.35576 -1.45198,2.50671 0.73832,2.78837c3.2509,0.41802 10.13102,-0.72555 10.13102,-0.72555l4.22443,0.7457c0,0 -2.69137,1.80951 -3.77395,2.32271c-2.29351,1.08714 -9.40382,0.91584 -9.36966,1.43541c0.06843,1.04116 -0.93777,2.35005 0.03162,3.04556c1.19202,0.85521 13.84148,-2.07703 13.84148,-2.07703l-4.11386,5.18533l-24.25805,3.15623l-5.27583,-3.3876l14.64672,-2.37497c0,0 0.71437,-1.83579 0.47555,-2.98768c-0.09826,-0.47389 -8.16682,1.2965 -11.0599,1.14611c-1.08956,-0.05664 -4.4083,-0.18205 -4.4083,-0.18205l3.67569,-2.45141c0,0 6.83015,-0.29629 10.23018,-2.00696c2.07321,-1.04309 0.92947,-2.27551 0.74418,-2.86683c-0.20974,-0.66938 -11.86402,2.09523 -11.86402,2.09523l-3.65159,-0.86063l2.7065,-2.51165l12.36728,-1.63089c0,0 -0.29663,-1.96731 -0.41092,-2.59261c-0.10711,-0.58615 -19.83814,3.2663 -19.83814,3.2663l-3.54169,-1.40139l2.93816,-1.64322c0,0 20.64375,-3.08607 20.45159,-3.45192c-0.0506,-0.09631 0.04674,-1.95492 -1.26124,-1.81114c-3.79482,0.41717 -20.22042,3.38115 -20.27008,3.12368c-0.02263,-0.11719 -3.72574,-1.17542 -3.72574,-1.17542c0,0 2.92693,-2.04173 3.70959,-2.46204c2.44202,-1.31147 19.57122,-2.22457 19.48321,-2.55399c-0.03403,-0.12733 0.746,-2.20521 -0.88993,-2.07704c-1.93599,0.15169 -17.97538,2.66639 -19.48659,2.27402c-1.56091,-0.40527 -0.54767,-3.0088 -0.54767,-3.0088c0,0 17.44334,-1.94501 21.91979,-2.92507z" data-paper-data="{&quot;index&quot;:null}" fill="#160f3d" stroke-width="1.5" stroke-linecap="butt"/><path d="" fill="#160f3d" stroke-width="1.5" stroke-linecap="butt"/><path d="M247.15377,143.83868l4.90816,10.91147l-3.98499,10.25404c0,0 -0.44655,-4.45015 -2.82163,-4.62035c-8.4627,-0.60651 -21.33248,1.19127 -26.82736,2.1783c-1.2831,0.23047 -1.11525,5.46129 -1.11525,5.46129l-6.13764,-8.8495c0,0 3.64785,-10.05206 3.21238,-10.26598c-0.14875,-0.07308 5.69431,-2.51282 5.69431,-2.51282l4.05846,2.68612c0,0 3.93601,-3.46784 6.48406,-3.84418c1.10211,-0.16276 5.94762,1.81556 5.94762,1.81556l4.11701,-3.95064z" fill="#160f3d" stroke-width="1.5" stroke-linecap="butt"/><path d="M244.05835,156.92299c0,0 -1.2109,5.3653 -2.90901,7.295c-1.78574,2.02933 -7.55586,4.59714 -7.55586,4.59714c0,0 -5.7056,0.16873 -9.33995,-2.03721c-4.1589,-2.52436 -6.37464,-7.48533 -7.41205,-7.82696c-0.69673,-0.22943 14.31998,-9.83426 14.31998,-9.83426z" fill="#2a2355" stroke-width="1.5" stroke-linecap="butt"/><path d="M243.38572,164.25403c0,0 -0.99843,4.74014 -2.43271,6.43729c-1.50831,1.78476 -6.40624,4.02173 -6.40624,4.02173c0,0 -4.85764,0.1145 -7.96599,-1.85963c-3.55696,-2.25906 -5.47406,-6.66234 -6.35955,-6.97094c-0.59469,-0.20728 12.13437,-8.61457 12.13437,-8.61457z" fill="#2a2355" stroke-width="1.5" stroke-linecap="butt"/><path d="M242.77948,171.3032c0,0 -0.8245,4.19855 -2.03958,5.69533c-1.2778,1.57405 -5.44851,3.52885 -5.44851,3.52885c0,0 -4.14902,0.07244 -6.81621,-1.69727c-3.05213,-2.02515 -4.71627,-5.94236 -5.47458,-6.22143c-0.50927,-0.18744 10.3143,-7.56838 10.3143,-7.56838z" fill="#2a2355" stroke-width="1.5" stroke-linecap="butt"/><path d="M243.00227,179.12962c0,0 -0.76782,3.9099 -1.89935,5.30379c-1.18994,1.46583 -5.07394,3.28628 -5.07394,3.28628c0,0 -3.86379,0.06744 -6.34761,-1.5806c-2.84231,-1.88591 -4.39207,-5.53384 -5.09821,-5.79372c-0.47427,-0.17454 9.60523,-7.04805 9.60523,-7.04805z" fill="#2a2355" stroke-width="1.5" stroke-linecap="butt"/><path d="M242.98463,186.29444c0,0 -0.3892,3.5219 -1.28809,4.84136c-0.94528,1.38755 -4.25148,3.28997 -4.25148,3.28997c0,0 -3.41883,0.34753 -5.7426,-0.92788c-2.65913,-1.45951 -4.30411,-4.57667 -4.94922,-4.75437c-0.43327,-0.11935 7.98669,-6.96095 7.98669,-6.96095z" fill="#2a2355" stroke-width="1.5" stroke-linecap="butt"/><path d="M244.14477,194.69711c0,0 -0.62553,3.00972 -1.51029,4.07538c-0.93042,1.12067 -3.94215,2.49201 -3.94215,2.49201c0,0 -2.98122,0.0192 -4.88333,-1.27326c-2.17663,-1.47903 -3.34115,-4.30631 -3.88369,-4.51279c-0.36439,-0.13868 7.46969,-5.35549 7.46969,-5.35549z" fill="#2a2355" stroke-width="1.5" stroke-linecap="butt"/><path d="M222.19167,159.6136l9.44155,-6.51334l7.73075,4.61796" fill="none" stroke-width="1" stroke-linecap="round"/><path d="M224.95189,167.37897l7.83965,-5.9603l6.50061,3.68437" fill="none" stroke-width="1" stroke-linecap="round"/><path d="M244.56291,199.9705c0,0 0.03625,2.8318 -0.54754,3.96646c-0.61392,1.19324 -3.05014,3.0261 -3.05014,3.0261c0,0 -2.67787,0.61054 -4.64605,-0.17354c-2.25227,-0.89726 -3.86238,-3.20874 -4.3915,-3.28649c-0.35538,-0.05224 5.65343,-6.30386 5.65343,-6.30386z" fill="#2a2355" stroke-width="1.5" stroke-linecap="butt"/><path d="M228.30166,173.27352l5.51506,-3.97356l5.44327,3.41126" fill="none" stroke-width="1" stroke-linecap="round"/><g stroke-width="1.5" stroke-linecap="butt"><g><path d="M271.89646,176.79617c4.66548,-2.81342 10.72832,-1.31202 13.54173,3.35345c2.81341,4.66548 1.31202,10.72832 -3.35344,13.54173c-4.66548,2.81342 -10.72832,1.31202 -13.54174,-3.35345c-2.81342,-4.66548 -1.31202,-10.72832 3.35345,-13.54174z" fill="#160f3d"/><g><path d="M306.7152,236.70686l4.45891,-2.87652l3.39952,5.26961c0,0 -0.95227,1.57107 -1.72607,2.07028c-0.70635,0.45567 -2.73284,0.80622 -2.73284,0.80622z" fill="#160f3d"/><path d="M296.37634,223.97705l7.62959,-4.98119l9.52284,14.58599c0,0 -1.49089,3.37375 -2.82822,4.24685c-1.18822,0.77575 -4.80138,0.73433 -4.80138,0.73433z" fill="#100d25"/><path d="M298.95535,199.24968l8.86074,17.73871c0,0 -3.60112,4.75749 -6.21441,6.38485c-2.69355,1.67738 -9.71338,3.53391 -9.71338,3.53391l-10.84526,-15.64301z" fill="#2a2355"/><path d="M283.14985,209.21552l-10.31529,-1.58629l8.88541,-2.54097l-2.47995,-14.75253l13.34535,8.39299l5.78575,-7.73501l-2.14354,9.84374l11.82254,20.92582c0,0 -2.00053,3.8665 -4.52411,5.51408c-2.52358,1.64758 -7.29811,2.20437 -7.29811,2.20437z" fill="#160f3d"/><path d="M286.98628,208.58421l7.29301,-4.76143l8.98223,16.69924c0,0 -1.16117,2.19834 -2.03353,2.76786c-0.98415,0.64252 -3.57649,0.89475 -3.57649,0.89475z" fill="#0028ff"/><path d="M278.96222,198.04056l8.55671,-5.27053c0,0 3.03277,4.92372 4.30896,6.9956c0.48639,0.78969 7.23435,-0.89784 7.23435,-0.89784l-4.53922,5.6464c0,0 1.20765,5.19725 -0.87757,6.73801c-2.08523,1.54076 -7.12407,-0.82568 -7.12407,-0.82568l-7.18796,0.86572c0,0 4.45906,-5.40982 3.98225,-6.18391c-1.27986,-2.07786 -4.35344,-7.06782 -4.35344,-7.06782z" fill="#100d25"/><path d="M280.06708,193.71261c1.11105,1.64045 3.09174,4.92306 3.09174,4.92306c0,0 1.23218,4.56612 0.26116,5.75075c-0.40372,0.49249 -1.1855,1.5961 -3.44931,1.14258c-2.26381,-0.45355 -5.00159,-2.83565 -5.00159,-2.83565c0,0 3.65823,0.46304 4.207,-0.51864c0.5488,-0.98166 0.74593,-1.64263 -0.04124,-2.64836c-0.94112,-1.20245 -3.05164,-2.2702 -3.66399,-3.17432c-1.14981,-1.69764 -3.52915,-4.96514 -3.52915,-4.96514c0,0 1.13082,-1.69262 1.91018,-2.19434c0.66738,-0.42964 2.48225,-0.63328 2.48225,-0.63328c0,0 2.57137,3.43833 3.73298,5.15337z" data-paper-data="{&quot;index&quot;:null}" fill="#2a2355"/><path d="M300.76423,226.07304l-0.44014,-4.03331l3.88816,1.78217l5.64804,8.65101c0,0 -0.51866,1.76232 -1.12303,2.15687c-0.537,0.3506 -2.32501,0.09426 -2.32501,0.09426z" fill="#2a2355"/><path d="M279.85498,186.47923c0,0 0.93374,-1.5695 1.6003,-2.0004c0.77837,-0.5032 2.78665,-0.83567 2.78665,-0.83567c0,0 1.99605,3.51478 3.06869,5.26222c0.57127,0.93062 0.67401,3.29365 1.38151,4.64677c0.5918,1.13178 1.27525,1.22466 2.39584,1.12937c1.12058,-0.09527 2.20686,-3.61907 2.20686,-3.61907c0,0 1.04159,3.47634 0.52152,5.72577c-0.52004,2.24947 -1.84782,2.50678 -2.46296,2.67154c-1.47959,0.39632 -5.13166,-2.60868 -5.13166,-2.60868c0,0 -2.17412,-3.15781 -3.21066,-4.84636c-1.08364,-1.76533 -3.15616,-5.52548 -3.15616,-5.52548z" fill="#2a2355"/><path d="M271.26519,188.40245c0,0 1.21714,-4.4958 4.00063,-5.82621c2.78349,-1.3304 7.58058,-1.12565 7.58058,-1.12565l5.9197,-0.10739l-3.04464,4.52415l-2.51891,5.69429l7.35061,14.73529l-10.47138,-12.70317l-6.27233,-0.82226l-6.39078,-0.18941z" fill="#160f3d"/><path d="M272.39072,180.0069c0,0 1.89411,-1.91687 4.56648,-1.83589c2.67236,0.08098 4.6791,1.7222 4.6791,1.7222l4.3613,6.6873l-2.64841,5.20133l-6.21718,-6.18934l2.60204,7.41236l-5.69992,0.41064c0,0 -4.11941,-6.63683 -4.32527,-7.42289c-0.58903,-2.24926 2.68184,-5.98569 2.68184,-5.98569z" fill="#100d25"/><path d="M288.26751,221.42985c0,0 5.98281,-3.26591 8.74182,-5.06722c2.64906,-1.72947 7.49576,-5.53391 7.49576,-5.53391l1.67452,0.71182l-0.15965,1.60846c0,0 -5.03793,3.92925 -7.75358,5.70224c-2.69676,1.76064 -8.48401,4.89888 -8.48401,4.89888l-1.84802,-0.44813z" fill="#100d25"/></g></g><g><path d="M269.43549,177.69016c1.41443,-0.58292 7.75526,-3.31993 7.75526,-3.31993c0,0 4.16582,5.86388 4.96207,10.25076c0.68043,3.74872 -1.59091,8.32188 -1.59091,8.32188c0,0 -4.74702,-1.57389 -7.25843,-4.39155c-2.67113,-2.99686 -4.20268,-10.72321 -3.86799,-10.86114z" fill="#2a2355"/><g><path d="M260.68527,172.52688l-4.17639,-12.76614l16.3843,-7.59961l7.06509,13.36719c0,0 -0.40164,2.93425 -2.15747,4.37462c-1.59867,1.31145 -4.48314,1.11093 -6.02284,1.67004c-1.64909,0.59884 -3.43683,3.64526 -5.86006,3.73225c-2.26889,0.08146 -5.23263,-2.77832 -5.23263,-2.77832z" fill="#100d25"/><path d="M257.64065,172.2505l9.08491,1.97347l-1.23064,-4.43376l2.81316,-5.61765l5.11572,0.09349l4.09473,3.76814l2.96999,-8.21207c0,0 2.14951,6.23411 1.85821,9.58443c-0.23298,2.67965 -4.70475,4.72562 -7.33011,6.20562c-2.62538,1.48001 -4.85261,3.13138 -8.59539,2.63251c-3.97609,-0.52999 -8.78057,-5.99411 -8.78057,-5.99411z" fill="#160f3d"/><path d="M262.95657,169.97502l-3.70672,-9.72456l6.57369,-2.0433l4.93373,-3.77157l4.87239,8.35402l-4.29027,7.85897z" fill="#2a2355"/></g></g><g><path d="M237.54838,132.36207c0,0 7.10134,7.29281 8.13059,6.25666c0.80446,-0.80985 0.22122,-9.47578 0.22122,-9.47578c0,0 4.44375,6.62654 5.47298,6.4093c1.33599,-0.28199 3.29342,-7.67593 3.29342,-7.67593c0,0 2.33429,6.81098 3.09626,7.09808c0.56078,0.2113 7.72454,-4.63033 7.72454,-4.63033l-1.82326,8.94855l7.32394,1.05308c0,0 -5.49553,1.58113 -4.82541,3.91063c0.67011,2.32949 6.50285,-0.39475 6.50285,-0.39475l-3.94303,4.71501c0,0 -2.88469,3.08702 -5.05321,4.67137c-2.16854,1.58434 -3.74415,2.66604 -6.53155,3.35042c-2.78743,0.68438 -5.18273,-0.41348 -5.18273,-0.41348c0,0 -0.61056,-3.98728 -2.55221,-5.40626c-1.94167,-1.41899 -6.78732,-0.60768 -6.78732,-0.60768c0,0 1.49972,-3.97921 -0.42421,-5.62227c-1.92394,-1.64303 -7.08656,-0.79192 -7.08656,-0.79192c0,0 4.09858,-2.0562 4.64815,-4.61883c0.54959,-2.56265 -2.20439,-6.77589 -2.20439,-6.77589z" data-paper-data="{&quot;index&quot;:null}" fill="#100d25"/><path d="M245.91197,150.98141l-1.35826,-2.4857l10.42104,-6.0132l1.3054,2.1879z" fill="#100d25"/><path d="M242.50331,149.97072c-0.68126,-1.95211 0.349,-4.08685 2.30109,-4.76808c1.95211,-0.68126 4.08685,0.349 4.76808,2.30108c0.68126,1.95211 -0.349,4.08685 -2.30109,4.76808c-1.95211,0.68126 -4.08685,-0.349 -4.76808,-2.30109z" fill="#160f3d"/></g><path d="M256.98736,160.31587c-3.60657,0.05017 -8.72968,-2.82985 -8.72968,-2.82985l7.44271,-1.28157c0,0 4.22036,-1.34551 5.99782,-2.22742c1.70098,-0.84399 4.70388,-2.80926 4.70388,-2.80926l2.9359,-2.07889l6.05801,-0.62239c0,0 -0.93997,3.38157 -5.79426,6.69819c-4.80191,3.28085 -10.82091,5.12625 -12.61442,5.15119z" fill="#160f3d"/><g><path d="M265.29054,161.71087l-8.14306,-16.129l2.53869,-1.5928l8.35236,17.11317z" fill="#100d25"/><path d="M254.11912,143.48749c-0.45452,-1.65938 0.5222,-3.37303 2.18157,-3.82756c1.65938,-0.45452 3.37303,0.52219 3.82756,2.18157c0.45452,1.65938 -0.5222,3.37303 -2.18158,3.82755c-1.65938,0.45452 -3.37303,-0.52219 -3.82755,-2.18156z" fill="#160f3d"/></g><g><path d="M275.99378,185.82095l-8.2247,-19.38629l2.38326,-1.42795l7.81783,19.00842z" fill="#100d25"/><path d="M264.32766,164.47726c-0.25006,-1.86814 1.06166,-3.58525 2.92979,-3.83529c1.86815,-0.25006 3.58525,1.06166 3.83529,2.92979c0.25006,1.86814 -1.06164,3.58526 -2.92978,3.8353c-1.86814,0.25006 -3.58526,-1.06165 -3.8353,-2.92978z" fill="#160f3d"/></g><path d="M273.82536,184.72406c-0.33051,-1.58223 0.68425,-3.13279 2.26648,-3.46327c1.58223,-0.33051 3.13279,0.68426 3.46327,2.26648c0.33051,1.58223 -0.68425,3.13278 -2.26648,3.46327c-1.58223,0.33051 -3.13278,-0.68425 -3.46327,-2.26648z" fill="#160f3d"/></g><g data-paper-data="{&quot;index&quot;:null}" stroke-width="1.5" stroke-linecap="butt"><g><path d="M162.26711,234.75097l2.41567,-4.78919l-3.6498,-1.68858l2.3073,-2.8512l-5.90939,-4.19395c0,0 9.57194,-0.64291 12.46352,-1.43996c0.60309,-0.16623 0.89099,-6.53441 1.94789,-7.71347c1.48388,-1.65538 3.81751,1.89752 4.83331,3.23178c0.62268,0.81793 -2.673,8.70121 -2.673,8.70121l2.32403,3.76729l-4.84961,1.7766l3.25361,3.75951l-4.7476,2.41733c0,0 6.1016,2.6638 5.27424,2.559c-0.6596,-0.08356 -5.04826,2.58468 -5.04826,2.58468z" fill="#160f3d"/><path d="M168.48679,228.6586l-2.57306,-7.4593l-5.46596,-0.4141c0,0 2.2764,-2.3325 2.18275,-3.58377c-0.09014,-1.20437 -2.78181,-3.9603 -2.78181,-3.9603l5.34745,-0.32402l-2.09334,-4.05794c0,0 4.82376,0.66342 5.35262,0.21567c2.62754,-2.22473 8.64447,-2.60058 8.64447,-2.60058l2.55929,2.4732c0,0 -5.40864,2.2925 -7.28376,5.60076c-1.84862,3.26147 -3.88862,14.11039 -3.88862,14.11039z" fill="#100d25"/></g><g><path d="M176.88319,238.28056c0,0 7.33713,-3.84386 10.32155,-7.64716c5.84182,-7.44459 5.68241,-16.26156 7.34647,-16.32922c1.42019,-0.05774 4.47303,14.54914 4.47303,14.54914c0,0 -2.93903,-1.91984 -3.22084,-1.62614c-0.50651,0.52782 -0.55199,3.64758 -1.62196,5.86556c-1.18656,2.45961 -3.65322,4.78578 -3.65322,4.78578c0,0 -3.78471,2.66464 -5.74272,2.69668c-2.20661,0.03614 -7.90228,-2.29463 -7.90228,-2.29463z" fill="#160f3d"/><path d="M182.66304,215.12276c-0.03141,-0.33322 7.63541,-5.64099 7.63541,-5.64099l7.12358,4.15755c0,0 2.21333,4.54153 0.54198,8.15002c-0.99584,2.15003 -3.79965,2.18522 -5.06203,3.53841c-1.62334,1.74011 -2.48271,8.10145 -5.40539,10.16446c-3.37982,2.38576 -9.38949,-1.2612 -9.38949,-1.2612l4.03775,-1.48728l2.4454,-1.58145c0,0 -0.15527,-1.53943 -0.72736,-2.17094c-0.5273,-0.58208 -2.5817,-1.48192 -2.5817,-1.48192c0,0 2.20943,-0.37241 3.22161,-0.82765c0.91546,-0.41177 2.5904,-1.78656 2.5904,-1.78656c0,0 -4.21496,-7.48959 -4.43018,-9.77243z" fill="#100d25"/></g><g><path d="M180.00697,211.39621l3.78993,0.4776l-1.26713,7.62683c0,0 -1.20546,0.38933 -1.83318,0.31021c-0.63549,-0.0801 -1.33279,-0.88183 -1.33279,-0.88183z" fill="#100d25"/><g><g><path d="M174.99575,210.10673l-6.07143,-13.17759l3.4236,-1.95768l5.3289,12.67295z" fill="#160f3d"/><path d="M164.79931,198.07943c-0.0515,-1.26613 -0.21024,-5.17042 -0.29069,-7.14849c-0.02896,-0.71197 2.35318,-1.27204 2.35318,-1.27204l13.22112,-0.53762l0.40697,10.00789c0,0 -11.04134,0.449 -13.57327,0.55195c-0.98368,0.04002 -2.08581,-0.82695 -2.1173,-1.60171z" fill="#160f3d"/><path d="M176.66777,191.1687c0,0 -9.81127,-8.25056 -9.33876,-15.19494c0.47252,-6.94442 12.71612,-13.28168 12.71612,-13.28168l2.81435,3.22624c0,0 -11.04286,4.55431 -11.63254,10.59743c-0.58971,6.04312 7.51255,11.90636 7.51255,11.90636z" fill="#160f3d"/><path d="M167.75722,194.30972c-0.05481,-1.34811 0.99358,-2.48539 2.34167,-2.54021c1.34811,-0.05481 2.4854,0.99356 2.54021,2.34168c0.05481,1.34811 -0.99357,2.4854 -2.34168,2.54021c-1.34811,0.05481 -2.48539,-0.99358 -2.54021,-2.34168z" fill="#2a2355"/></g><path d="M203.3287,188.40306c0,0 -1.03671,-1.81008 -1.0197,-2.22494c0.01698,-0.41485 0.63334,-1.59272 0.91591,-2.03035c0.28256,-0.43762 2.19237,-1.26964 2.19237,-1.26964l6.42391,5.27074z" fill="#2a2355"/><path d="M179.4853,215.29167l-0.17369,-4.27165l15.66144,-10.82138c0,0 3.44928,1.02841 4.03197,1.00471c1.29721,-0.05273 -0.08366,13.29799 -0.08366,13.29799z" fill="#160f3d"/><path d="M174.01304,211.79598c-0.12231,-3.00794 2.21694,-5.54553 5.2249,-5.66784c3.00794,-0.12231 5.54553,2.21694 5.66784,5.22491c0.12231,3.00794 -2.21696,5.54551 -5.22489,5.66783c-3.00794,0.12231 -5.54551,-2.21696 -5.66783,-5.22489z" fill="#160f3d"/><path d="M177.76199,200.77529c1.17067,-3.59019 7.60113,-25.52494 7.60113,-25.52494c0,0 15.72736,5.02066 17.31596,4.80108c0.60629,-0.0838 -8.00722,27.13556 -8.00722,27.13556c0,0 -5.45544,1.98168 -8.77047,0.84388c-4.90829,-1.68461 -8.30007,-6.76286 -8.13941,-7.25556z" fill="#160f3d"/><path d="M185.38009,197.56772l2.76002,-20.70828l10.85798,2.29606l-9.25711,19.11904l-3.07446,2.37257z" fill="#2a2355"/><path d="M178.35242,197.61687l-3.05629,-1.37582c0,0 -0.76221,-0.4625 -0.4689,-1.45993c1.08951,-3.70521 3.70664,-12.74069 4.21175,-14.45849c0.16525,-0.56201 1.15204,-0.85677 1.15204,-0.85677l3.16531,1.13367z" fill="#100d25"/><path d="M174.7073,204.56405l2.31279,-5.64941l8.70756,6.90151l10.69989,-1.5799l-0.77614,6.61046l-11.51774,0.8312z" fill="#100d25"/><path d="M188.39098,217.43144c-0.05675,-1.39548 1.0285,-2.57273 2.42398,-2.62948c1.39548,-0.05675 2.57273,1.02851 2.62948,2.42399c0.05675,1.39548 -1.0285,2.57273 -2.42398,2.62948c-1.39548,0.05675 -2.57275,-1.02852 -2.62948,-2.42399z" fill="#2a2355"/><path d="M199.47768,200.17334c0,0 -1.03672,-1.81009 -1.0197,-2.22494c0.01698,-0.41485 0.63333,-1.59272 0.91591,-2.03035c0.28256,-0.43762 2.19238,-1.26966 2.19238,-1.26966l6.42392,5.27074z" fill="#2a2355"/><path d="M201.36535,193.98409c0,0 -1.03671,-1.81008 -1.0197,-2.22493c0.01698,-0.41485 0.63333,-1.59272 0.91591,-2.03035c0.28256,-0.43762 2.19238,-1.26966 2.19238,-1.26966l6.42391,5.27075z" fill="#2a2355"/><path d="M199.72992,203.06504c0,0 -1.81879,0.01419 -2.75462,0.14564c-0.84771,0.11906 -2.65736,0.37566 -2.65736,0.37566c0,0 5.59138,-18.89036 6.292,-21.27303c0.22922,-0.77953 5.38467,-0.68534 5.38467,-0.68534z" fill="#100d25"/><path d="M176.83966,211.60954c-0.05758,-1.41552 1.04324,-2.60965 2.45877,-2.66722c1.41552,-0.05758 2.60966,1.04324 2.66723,2.45877c0.05758,1.41552 -1.04325,2.60964 -2.45877,2.66722c-1.41552,0.05758 -2.60965,-1.04324 -2.66722,-2.45877z" fill="#2a2355"/></g></g><g><g><g><path d="M195.4889,179.32537l-8.18664,-7.22131l2.06479,-12.14293l8.82863,7.28234l9.72342,-1.70493l-2.30779,12.70262z" data-paper-data="{&quot;index&quot;:null}" fill="#160f3d"/><path d="M186.74829,170.3476l8.27257,6.156l11.12624,-1.62198l0.1003,7.18317c0,0 -11.48455,1.37135 -13.1117,1.47633c-0.48843,0.03152 -9.08731,-6.98917 -9.08731,-6.98917z" fill="#2a2355"/></g><path d="M192.67818,178.72014l4.9318,-14.87969c0,0 2.11502,0.10496 2.49052,0.2294c0.64991,0.21542 -5.26641,16.59703 -5.26641,16.59703z" fill="#100d25"/></g><path d="M190.11582,181.2377c-0.06796,-1.67107 1.23164,-3.08084 2.90271,-3.14879c1.67107,-0.06796 3.08085,1.23163 3.1488,2.9027c0.06796,1.67107 -1.23164,3.08086 -2.9027,3.14881c-1.67107,0.06796 -3.08085,-1.23163 -3.1488,-2.90269z" fill="#160f3d"/></g><g><path d="M177.57064,158.6246c0,0 0.03326,-1.29022 1.37365,-3.28906c3.58889,-5.35182 10.63756,-15.5432 12.37425,-18.05944c0.77356,-1.12079 3.69848,-1.67247 3.69848,-1.67247l8.08415,6.40944l-16.3125,23.09715z" fill="#2a2355"/><path d="M190.40104,133.08161c0.39449,-0.58044 1.51158,-1.73913 1.51158,-1.73913c0,0 1.09892,-0.64482 1.79841,-0.19361c2.1908,1.41328 12.84728,9.55363 12.84728,9.55363l-2.13648,3.14368c0,0 -11.52073,-7.82965 -13.54268,-9.20377c-0.58349,-0.39654 -0.7371,-1.17973 -0.4781,-1.5608z" fill="#100d25"/><path d="M174.05554,158.95115c0.2723,-0.40069 0.7153,-1.15762 0.89618,-1.4238c0.29922,-0.44029 1.28041,-0.83786 1.81478,-0.47471c1.95406,1.32801 13.64979,9.27657 13.64979,9.27657l-2.13648,3.14368c0,0 -10.76504,-7.31605 -13.03717,-8.86022c-0.80424,-0.54657 -1.50049,-1.20037 -1.18708,-1.66151z" fill="#100d25"/><path d="M182.72505,154.87583c2.28323,-3.4626 7.81071,-11.30326 9.06513,-13.20563c0.51997,-0.78855 1.90135,-0.99141 2.46146,-0.62209c0.79832,0.52641 2.90428,1.91507 2.90428,1.91507c0,0 0.62969,1.13706 -0.32659,2.86902c-2.25022,4.07537 -7.46792,11.2081 -8.56519,12.87214c-0.47994,0.7279 -2.03494,0.82968 -2.03494,0.82968c0,0 -2.43661,-1.66501 -3.23677,-2.19266c-0.52936,-0.34908 -0.91495,-1.48345 -0.26734,-2.46554z" fill="#0028ff"/><path d="M225.09916,143.38478c0,0 -4.97797,2.6884 -6.35281,4.55368c-0.70118,0.95135 0.37356,3.69533 -0.49023,5.78723c-1.09849,2.66031 -4.01876,2.13393 -5.8997,4.72192c-0.83431,1.148 -0.81862,5.53655 -1.45077,6.60162c-0.61145,1.03021 -2.55007,5.79684 -2.55007,5.79684l-1.61611,-5.59706c0,0 -8.36586,4.24839 -9.73591,3.98884c-1.53552,-0.29088 -4.22698,-5.00212 -4.22698,-5.00212l-7.24601,1.01225c0,0 4.13896,-5.39209 3.88322,-5.71689c-1.14121,-1.44942 -4.79789,-3.83591 -4.79789,-3.83591l6.6099,-4.48531l-3.09395,-6.50497c0,0 7.0521,1.11364 7.67855,0.64527c0.85121,-0.63641 1.89733,-7.2474 1.89733,-7.2474c0,0 4.17959,4.38329 6.02013,4.16285c1.41796,-0.16978 3.329,-5.85451 3.329,-5.85451c0,0 3.95014,6.44405 5.3421,7.0411c1.78092,0.7639 6.1808,-5.82471 6.1808,-5.82471l1.30717,4.71003z" fill="#100d25"/><path d="M202.99511,153.54938l-0.43221,-12.96977c0,0 2.96785,-1.93087 3.04591,-0.50792c0.16132,2.94041 0.53926,13.30472 0.53926,13.30472z" fill="#100d25"/><path d="M201.06056,154.43399c-0.07223,-1.77629 1.30919,-3.27481 3.08546,-3.34706c1.77629,-0.07223 3.27481,1.30919 3.34705,3.08548c0.07223,1.77629 -1.30918,3.2748 -3.08548,3.34705c-1.77629,0.07223 -3.27481,-1.30918 -3.34706,-3.08548z" fill="#160f3d"/><path d="M196.03583,162.54659c-0.06796,-1.67107 1.23163,-3.08085 2.90271,-3.1488c1.67107,-0.06796 3.08085,1.23164 3.1488,2.90271c0.06796,1.67107 -1.23163,3.08083 -2.90271,3.14879c-1.67107,0.06796 -3.08086,-1.23163 -3.14881,-2.9027z" fill="#160f3d"/></g></g><g><path d="M224.66424,197.35404c0.34906,2.39683 -1.57876,4.19149 -1.41892,4.08846c4.01958,-2.58979 4.86589,1.75213 7.0444,2.48708c0.6544,0.22079 5.32259,16.01358 5.32259,16.01358l0.86587,15.00461c0,0 -2.4834,2.62999 -5.58355,1.64902c-1.00164,-0.31694 -4.24594,-1.4023 -7.28767,-5.72878c-5.02795,-7.15162 -12.57244,-23.87703 -12.57244,-23.87703c0,0 -1.40127,-5.52069 0.40056,-8.5393c1.80512,-3.02409 4.301,-5.5483 8.23353,-5.87459c3.93253,-0.32628 4.51296,1.46288 4.99561,4.77696z" fill="#100d25" stroke-width="1.5" stroke-linecap="butt"/><path d="M223.91357,221.1846c0,0 -3.56889,-5.13321 -4.78093,-7.7772c-1.06472,-2.32257 -3.57162,-8.99167 -3.57162,-8.99167c0,0 2.60219,-5.12667 5.72719,-6.75513c3.12504,-1.62841 6.3686,-0.27028 6.98296,0.41322c1.27089,1.41395 5.95551,20.44294 8.62145,24.98332c4.0649,6.92308 -0.30977,6.48761 -0.30977,6.48761l-4.55076,2.34834z" fill="#160f3d" stroke-width="1.5" stroke-linecap="butt"/><path d="M223.43207,246.75994c0,0 -5.60129,0.76001 -7.1064,-1.60017c-1.25332,-1.96543 3.74464,-8.55878 5.59908,-11.09008c2.23921,-3.05653 12.93821,-5.17801 12.96832,-3.98856c0.03011,1.18947 -0.29533,5.73117 -1.74653,8.17582c-1.52677,2.57196 -9.71451,8.50296 -9.71451,8.50296z" fill="#160f3d" stroke-width="1.5" stroke-linecap="butt"/><path d="M218.48508,252.63698c0,0 -0.65265,-2.7495 0.23769,-5.8085c0.25546,-0.87774 0.96571,-2.93172 2.9073,-5.83444c2.41742,-3.61413 6.19177,-6.31281 6.19177,-6.31281l6.61914,1.80903c0,0 -2.23756,3.52513 -2.8347,5.87345c-0.58938,2.31785 4.46042,6.79829 4.46042,6.79829c0,0 -6.30985,3.64801 -9.53769,4.28594c-2.34771,0.46402 -8.04393,-0.81103 -8.04393,-0.81103z" fill="#100d25" stroke-width="1.5" stroke-linecap="butt"/><path d="M219.70633,260.476c-1.80116,-2.47031 -2.60093,-8.78021 -3.0434,-10.66407c-0.32026,-1.3635 1.50336,-5.42593 3.29587,-6.24338c0.31432,-0.14334 3.42307,-0.96539 6.24406,-0.96265c4.16958,0.00408 9.14577,2.08262 9.5349,2.42075c0.2216,0.19257 0.25422,1.05003 -0.14865,1.54634c-0.40289,0.49632 -0.74462,0.89609 -1.77159,0.81921c-0.52879,-0.03955 -2.90373,-0.81297 -5.33757,-1.12914c-1.2895,-0.16751 -2.96846,-0.62762 -4.49865,-0.22413c-1.19093,0.31404 -2.45664,1.40853 -2.31217,1.90793c0.33022,1.14103 3.28452,2.69675 4.09036,5.2379c0.8385,2.6442 -0.68832,5.93185 -0.35242,5.95062c1.80472,0.10088 10.04464,0.56138 14.5196,0.81146c1.72736,0.09653 1.7694,0.85693 1.75953,1.15296c-0.00443,0.13321 -0.74541,1.4558 -1.933,2.71287c-1.17454,1.24327 -2.78581,2.42246 -4.55345,2.32365c-2.70292,-0.15106 -5.01036,-0.53968 -8.21341,-1.59241c-3.20303,-1.0527 -5.4788,-1.59771 -7.27999,-4.068z" fill="#160f3d" stroke-width="1.5" stroke-linecap="butt"/><path d="M224.77408,251.73565c2.12295,-1.40433 4.25924,-2.66247 7.13502,-2.50172c2.77112,0.15488 3.77263,1.3549 5.68074,3.10531c1.90812,1.75041 2.13891,5.20641 2.13891,5.20641c0,0 -7.75393,0.65661 -8.99659,0.58718c-3.36639,-0.18816 -7.86969,-1.52978 -7.86969,-1.52978c0,0 -0.21142,-3.46302 1.91158,-4.86738z" fill="#2a2355" stroke-width="1.5" stroke-linecap="butt"/><path d="M226.11621,235.57405c-0.48379,-2.91911 1.90294,-5.63432 5.33082,-6.06465c3.42792,-0.43032 6.59896,1.58724 7.08273,4.50634c0.48379,2.91911 -1.90289,5.63434 -5.33079,6.06465c-3.42792,0.43032 -6.59896,-1.58726 -7.08273,-4.50634z" fill="#160f3d" stroke-width="1.5" stroke-linecap="butt"/><path d="M227.02413,255.5479c2.01334,-1.33182 3.9035,-2.21202 6.63081,-2.0596c2.62808,0.1469 4.46104,1.12062 6.27063,2.78063c1.80959,1.66001 0.73445,5.32178 0.73445,5.32178c0,0 -5.12853,0.18369 -7.98544,0.02403c-3.19255,-0.17844 -7.46332,-1.4508 -7.46332,-1.4508c0,0 -0.20048,-3.28422 1.81289,-4.61605z" fill="#2a2355" stroke-width="1.5" stroke-linecap="butt"/><path d="M233.89661,262.10244c0.39288,-0.53853 2.41775,-1.60074 3.25578,-1.95138c0.83805,-0.35062 4.62822,0.11057 4.62822,0.11057l4.27028,7.96332c0,0 -6.3887,-0.91029 -8.69351,-1.33889c-1.52895,-0.28432 -3.79015,-0.98256 -3.79015,-0.98256c0,0 -0.06354,-3.26251 0.32937,-3.80106z" fill="#100d25" stroke-width="1.5" stroke-linecap="butt"/><path d="M229.70437,223.62522c0,0 -7.07201,-12.92284 -8.22,-16.87122c-0.4556,-1.56701 3.75306,-6.04289 3.75306,-6.04289l7.26902,1.78934c0,0 6.62295,12.58441 7.38022,16.38912c0.32765,1.64598 -2.91448,6.04673 -2.91448,6.04673z" fill="#2a2355" stroke-width="1.5" stroke-linecap="butt"/><path d="M224.4661,207.65217l5.98704,-3.04384" fill="none" stroke-width="1.25" stroke-linecap="round"/><path d="M227.11941,211.78997l5.19986,-2.87829" fill="none" stroke-width="1.25" stroke-linecap="round"/><path d="M231.79928,221.03022l5.2014,-2.56138" fill="none" stroke-width="1.25" stroke-linecap="round"/><path d="M229.5644,216.90217l5.23294,-3.01026" fill="none" stroke-width="1.25" stroke-linecap="round"/><path d="M237.60203,238.72059c0,0 -1.41206,-1.62224 -1.44754,-2.02419c-0.03547,-0.40191 0.50681,-1.61029 0.76894,-2.06561c0.26213,-0.45527 2.31399,-1.48336 2.31399,-1.48336l7.96581,4.32086z" fill="#2a2355" stroke-width="1.5" stroke-linecap="butt"/></g><path d="M214.61937,195.28068c-0.77282,0.53208 -1.79664,1.67937 -2.37465,2.31286c-1.17969,1.29293 -2.04812,4.03341 -2.86737,4.30955c-0.658,0.22176 -1.93055,-0.93803 -2.30552,-1.82677c-0.49245,-1.16724 1.55571,-3.41533 1.71008,-3.64164c0.87939,-1.28916 1.56447,-2.7334 4.03048,-4.10739c2.466,-1.37397 4.83606,-1.27033 6.45298,-1.6145c2.42391,-0.51591 6.46159,1.22781 6.46159,1.22781c0,0 1.51875,3.19729 0.41896,3.41788c-1.33884,0.26853 -5.01678,-1.63891 -6.33714,-1.42794c0,0 -2.8393,-0.26788 -5.18941,1.35014z" data-paper-data="{&quot;index&quot;:null}" fill="#160f3d" stroke-width="1.5" stroke-linecap="butt"/><g><g><path d="M260.62628,194.57455c0.84135,2.48321 -0.78524,4.79754 -0.64118,4.65446c3.62297,-3.59692 5.36766,0.857 7.76087,1.18791c0.71889,0.09942 8.70369,15.96917 8.70369,15.96917l3.9071,15.81957c0,0 -2.03144,3.32052 -5.42408,2.91882c-1.09614,-0.12978 -4.65833,-0.61283 -8.66291,-4.59401c-6.61951,-6.58084 -17.75649,-22.84725 -17.75649,-22.84725c0,0 -2.55356,-5.59552 -1.30274,-9.18877c1.2531,-3.59978 3.31866,-6.8101 7.30666,-7.97534c3.988,-1.16524 4.94575,0.62193 6.10909,4.05544z" fill="#100d25" stroke-width="1.5" stroke-linecap="butt"/><path d="M264.64032,220.14127c0,0 -4.71004,-4.73184 -6.49058,-7.29924c-1.56412,-2.25529 -5.48805,-8.84557 -5.48805,-8.84557c0,0 1.65227,-6.00744 4.54627,-8.39336c2.89405,-2.38588 6.51029,-1.61183 7.28088,-1.01069c1.59407,1.24357 10.24599,20.56069 13.90618,24.84806c5.58092,6.53731 0.98412,6.98217 0.98412,6.98217l-4.219,3.44986z" fill="#160f3d" stroke-width="1.5" stroke-linecap="butt"/><path d="M269.28233,247.51251c0,0 -5.62097,1.97455 -7.64659,-0.22931c-1.68676,-1.83527 2.14033,-9.90456 3.54328,-12.98912c1.69403,-3.72459 12.29608,-8.21037 12.56609,-6.94832c0.27001,1.26208 0.84703,6.17257 -0.15768,9.08093c-1.05702,3.05982 -8.30514,11.08579 -8.30514,11.08579z" fill="#160f3d" stroke-width="1.5" stroke-linecap="butt"/><path d="M265.36386,254.8074c0,0 -1.22513,-2.79617 -0.92197,-6.24305c0.08697,-0.98904 0.40642,-3.32682 1.82456,-6.82555c1.7657,-4.35621 5.11401,-8.01827 5.11401,-8.01827l7.1863,0.55328c0,0 -1.59819,4.22392 -1.74191,6.85206c-0.14184,2.59404 5.96353,6.32203 5.96353,6.32203c0,0 -5.7711,5.20132 -8.97011,6.5524c-2.32673,0.98273 -8.45443,0.80701 -8.45443,0.80701z" fill="#100d25" stroke-width="1.5" stroke-linecap="butt"/><path d="M265.80331,261.9269c-2.07664,-2.533 -3.40009,-9.30577 -4.00856,-11.31159c-0.44041,-1.45178 1.15678,-5.99846 2.97122,-7.0269c0.31817,-0.18034 3.51081,-1.3186 6.46558,-1.54031c4.3673,-0.32768 9.73914,1.52797 10.17272,1.86333c0.24692,0.19099 0.34709,1.11741 -0.03664,1.68722c-0.38375,0.56982 -0.71087,1.03017 -1.79239,1.02868c-0.55687,-0.00074 -3.10381,-0.64954 -5.67722,-0.79824c-1.36345,-0.07878 -3.15732,-0.44357 -4.72889,0.11547c-1.22314,0.4351 -2.46452,1.72174 -2.27474,2.25131c0.4337,1.20995 3.64766,2.66018 4.6873,5.34922c1.08179,2.79807 -0.2642,6.48169 0.08905,6.47527c1.89794,-0.03444 10.56343,-0.1918 15.26952,-0.27728c1.81658,-0.03299 1.91916,0.78751 1.93161,1.10903c0.00562,0.14468 -0.66862,1.63666 -1.81565,3.09322c-1.13443,1.44056 -2.73119,2.8465 -4.59013,2.88023c-2.84252,0.05162 -5.28914,-0.18565 -8.72489,-1.07112c-3.43573,-0.88543 -5.86121,-1.29467 -7.93788,-3.82763z" fill="#160f3d" stroke-width="1.5" stroke-linecap="butt"/><path d="M270.43805,252.05353c2.11534,-1.69061 4.25592,-3.22389 7.28021,-3.27877c2.91424,-0.05291 4.05557,1.16748 6.18879,2.91199c2.13324,1.74451 2.64104,5.47053 2.64104,5.47053c0,0 -8.07049,1.32899 -9.37733,1.35274c-3.54026,0.06426 -8.36007,-1.03063 -8.36007,-1.03063c0,0 -0.48807,-3.73516 1.62732,-5.42582z" fill="#2a2355" stroke-width="1.5" stroke-linecap="butt"/><path d="M269.80172,235.02705c-1.08515,-3.01212 0.82951,-6.40342 4.27643,-7.57471c3.44696,-1.17129 7.12093,0.32099 8.20607,3.3331c1.08515,3.01212 -0.82946,6.40343 -4.2764,7.57472c-3.44696,1.17129 -7.12093,-0.32101 -8.20607,-3.3331z" fill="#160f3d" stroke-width="1.5" stroke-linecap="butt"/><path d="M273.08814,256.00471c2.00612,-1.60331 3.918,-2.70751 6.78618,-2.7596c2.76382,-0.05016 4.75853,0.85882 6.7816,2.51323c2.02308,1.65441 1.17897,5.70739 1.17897,5.70739c0,0 -5.35719,0.6075 -8.36166,0.66206c-3.35744,0.06095 -7.92838,-0.97743 -7.92838,-0.97743c0,0 -0.46283,-3.54232 1.54332,-5.14565z" fill="#2a2355" stroke-width="1.5" stroke-linecap="butt"/><path d="M271.09967,221.54018c0,0 -9.88598,-12.30991 -11.86257,-16.28149c-0.78445,-1.57623 2.65449,-7.2236 2.65449,-7.2236l7.85222,0.39723c0,0 9.3551,12.04236 10.90008,15.94197c0.66843,1.68702 -1.78933,7.0534 -1.78933,7.0534z" fill="#2a2355" stroke-width="1.5" stroke-linecap="butt"/><path d="M262.49105,205.5967l5.55975,-4.48999" fill="none" stroke-width="1.25" stroke-linecap="round"/><path d="M266.05733,209.45741l4.7816,-4.14986" fill="none" stroke-width="1.25" stroke-linecap="round"/><path d="M277.58454,214.52546l-4.84686,3.81226" fill="none" stroke-width="1.25" stroke-linecap="round"/><path d="M269.60466,214.40043l4.78919,-4.29746" fill="none" stroke-width="1.25" stroke-linecap="round"/></g><path d="M282.27319,236.50156c0,0 -1.78145,-1.43634 -1.89877,-1.85756c-0.11731,-0.42119 0.19889,-1.8224 0.37761,-2.36238c0.17873,-0.53994 2.08718,-2.06265 2.08718,-2.06265l9.07907,2.95178z" fill="#2a2355" stroke-width="1.5" stroke-linecap="butt"/><path d="M280.79066,262.55884c0.37002,-0.61476 2.40897,-1.92689 3.25968,-2.37354c0.85073,-0.44663 4.85586,-0.24883 4.85586,-0.24883l5.08559,8.28774c0,0 -6.76126,-0.47741 -9.20819,-0.7582c-1.62322,-0.18627 -4.04525,-0.76268 -4.04525,-0.76268c0,0 -0.31774,-3.5297 0.05231,-4.14449z" fill="#100d25" stroke-width="1.5" stroke-linecap="butt"/></g><path d="M246.63581,199.15195c0,0 -2.37726,-3.15908 -0.57039,-5.57579c0.43599,-0.58311 4.88591,-3.86807 10.10519,-5.65757c0.44618,-0.15298 2.07686,0.08985 3.01189,0.97035c1.09379,1.02999 1.4244,2.74163 0.64666,2.826c-3.83639,0.41619 -4.68585,0.15231 -6.95341,1.65699c-2.63202,1.74651 -6.23989,5.78004 -6.23989,5.78004z" fill="#160f3d" stroke-width="1.5" stroke-linecap="butt"/></g></g></svg>