<svg version="1.1" xmlns="http://www.w3.org/2000/svg" xmlns:xlink="http://www.w3.org/1999/xlink" width="154.13935" height="177.2151" viewBox="0,0,154.13935,177.2151"><defs><radialGradient cx="186.45565" cy="82.34509" r="21.04403" gradientUnits="userSpaceOnUse" id="color-1"><stop offset="0" stop-color="#091f57"/><stop offset="1" stop-color="#091f57" stop-opacity="0"/></radialGradient><radialGradient cx="210.49429" cy="76.34509" r="21.04403" gradientUnits="userSpaceOnUse" id="color-2"><stop offset="0" stop-color="#091f57"/><stop offset="1" stop-color="#091f57" stop-opacity="0"/></radialGradient><radialGradient cx="212.33529" cy="79.88141" r="21.04403" gradientUnits="userSpaceOnUse" id="color-3"><stop offset="0" stop-color="#091f57"/><stop offset="1" stop-color="#091f57" stop-opacity="0"/></radialGradient><radialGradient cx="198.67156" cy="84.26273" r="21.04403" gradientUnits="userSpaceOnUse" id="color-4"><stop offset="0" stop-color="#091f57"/><stop offset="1" stop-color="#091f57" stop-opacity="0"/></radialGradient><radialGradient cx="239.69312" cy="75.78545" r="21.04403" gradientUnits="userSpaceOnUse" id="color-5"><stop offset="0" stop-color="#091f57"/><stop offset="1" stop-color="#091f57" stop-opacity="0"/></radialGradient><radialGradient cx="225.21398" cy="71.48835" r="21.04403" gradientUnits="userSpaceOnUse" id="color-6"><stop offset="0" stop-color="#091f57"/><stop offset="1" stop-color="#091f57" stop-opacity="0"/></radialGradient><radialGradient cx="264.29504" cy="76.34509" r="21.04403" gradientUnits="userSpaceOnUse" id="color-7"><stop offset="0" stop-color="#091f57"/><stop offset="1" stop-color="#091f57" stop-opacity="0"/></radialGradient><radialGradient cx="250.08207" cy="70.60449" r="21.04403" gradientUnits="userSpaceOnUse" id="color-8"><stop offset="0" stop-color="#091f57"/><stop offset="1" stop-color="#091f57" stop-opacity="0"/></radialGradient><radialGradient cx="172.87534" cy="94.91926" r="21.04403" gradientUnits="userSpaceOnUse" id="color-9"><stop offset="0" stop-color="#091f57"/><stop offset="1" stop-color="#091f57" stop-opacity="0"/></radialGradient><radialGradient cx="167.51979" cy="99.99691" r="21.04402" gradientUnits="userSpaceOnUse" id="color-10"><stop offset="0" stop-color="#091f57"/><stop offset="1" stop-color="#091f57" stop-opacity="0"/></radialGradient><radialGradient cx="158.94566" cy="110.27177" r="21.04403" gradientUnits="userSpaceOnUse" id="color-11"><stop offset="0" stop-color="#091f57"/><stop offset="1" stop-color="#091f57" stop-opacity="0"/></radialGradient><radialGradient cx="161.09853" cy="115.36463" r="21.04404" gradientUnits="userSpaceOnUse" id="color-12"><stop offset="0" stop-color="#091f57"/><stop offset="1" stop-color="#091f57" stop-opacity="0"/></radialGradient><radialGradient cx="157.40758" cy="129.5566" r="21.04403" gradientUnits="userSpaceOnUse" id="color-13"><stop offset="0" stop-color="#091f57"/><stop offset="1" stop-color="#091f57" stop-opacity="0"/></radialGradient><radialGradient cx="159.06896" cy="181.80568" r="21.04403" gradientUnits="userSpaceOnUse" id="color-14"><stop offset="0" stop-color="#091f57"/><stop offset="1" stop-color="#091f57" stop-opacity="0"/></radialGradient><radialGradient cx="157.59315" cy="169.8731" r="21.04403" gradientUnits="userSpaceOnUse" id="color-15"><stop offset="0" stop-color="#091f57"/><stop offset="1" stop-color="#091f57" stop-opacity="0"/></radialGradient><radialGradient cx="154.45599" cy="163.74599" r="21.04403" gradientUnits="userSpaceOnUse" id="color-16"><stop offset="0" stop-color="#091f57"/><stop offset="1" stop-color="#091f57" stop-opacity="0"/></radialGradient><radialGradient cx="155.74917" cy="153.26476" r="21.04403" gradientUnits="userSpaceOnUse" id="color-17"><stop offset="0" stop-color="#091f57"/><stop offset="1" stop-color="#091f57" stop-opacity="0"/></radialGradient><radialGradient cx="154.27334" cy="145.68628" r="21.04403" gradientUnits="userSpaceOnUse" id="color-18"><stop offset="0" stop-color="#091f57"/><stop offset="1" stop-color="#091f57" stop-opacity="0"/></radialGradient><radialGradient cx="152.24377" cy="138.59158" r="21.04403" gradientUnits="userSpaceOnUse" id="color-19"><stop offset="0" stop-color="#091f57"/><stop offset="1" stop-color="#091f57" stop-opacity="0"/></radialGradient><radialGradient cx="184.23119" cy="86.96549" r="21.04403" gradientUnits="userSpaceOnUse" id="color-20"><stop offset="0" stop-color="#091f57"/><stop offset="1" stop-color="#091f57" stop-opacity="0"/></radialGradient><radialGradient cx="185.60478" cy="82.912" r="18.38393" gradientUnits="userSpaceOnUse" id="color-21"><stop offset="0" stop-color="#091f57"/><stop offset="1" stop-color="#091f57" stop-opacity="0"/></radialGradient><radialGradient cx="206.60478" cy="76.912" r="18.38393" gradientUnits="userSpaceOnUse" id="color-22"><stop offset="0" stop-color="#091f57"/><stop offset="1" stop-color="#091f57" stop-opacity="0"/></radialGradient><radialGradient cx="183.66151" cy="87.53241" r="18.38393" gradientUnits="userSpaceOnUse" id="color-23"><stop offset="0" stop-color="#091f57"/><stop offset="1" stop-color="#091f57" stop-opacity="0"/></radialGradient><radialGradient cx="208.21307" cy="80.44833" r="18.38393" gradientUnits="userSpaceOnUse" id="color-24"><stop offset="0" stop-color="#091f57"/><stop offset="1" stop-color="#091f57" stop-opacity="0"/></radialGradient><radialGradient cx="196.27652" cy="84.82965" r="18.38393" gradientUnits="userSpaceOnUse" id="color-25"><stop offset="0" stop-color="#091f57"/><stop offset="1" stop-color="#091f57" stop-opacity="0"/></radialGradient><radialGradient cx="232.1127" cy="76.35237" r="18.38393" gradientUnits="userSpaceOnUse" id="color-26"><stop offset="0" stop-color="#091f57"/><stop offset="1" stop-color="#091f57" stop-opacity="0"/></radialGradient><radialGradient cx="219.46381" cy="72.05527" r="18.38393" gradientUnits="userSpaceOnUse" id="color-27"><stop offset="0" stop-color="#091f57"/><stop offset="1" stop-color="#091f57" stop-opacity="0"/></radialGradient><radialGradient cx="253.60478" cy="76.912" r="18.38393" gradientUnits="userSpaceOnUse" id="color-28"><stop offset="0" stop-color="#091f57"/><stop offset="1" stop-color="#091f57" stop-opacity="0"/></radialGradient><radialGradient cx="241.18842" cy="71.1714" r="18.38393" gradientUnits="userSpaceOnUse" id="color-29"><stop offset="0" stop-color="#091f57"/><stop offset="1" stop-color="#091f57" stop-opacity="0"/></radialGradient><radialGradient cx="222.24371" cy="72.91818" r="6.9241" gradientUnits="userSpaceOnUse" id="color-30"><stop offset="0" stop-color="#1048db"/><stop offset="1" stop-color="#1048db" stop-opacity="0"/></radialGradient></defs><g transform="translate(-131.19973,-52.22056)"><g data-paper-data="{&quot;isPaintingLayer&quot;:true}" fill-rule="nonzero" stroke-linejoin="miter" stroke-miterlimit="10" stroke-dasharray="" stroke-dashoffset="0" style="mix-blend-mode: normal"><g stroke="none" stroke-linecap="butt"><path d="M165.41159,82.34509c0,-10.15316 9.42174,-18.38393 21.04404,-18.38393c11.6223,0 21.04403,8.23077 21.04403,18.38393c0,10.15316 -9.42174,18.38393 -21.04403,18.38393c-11.6223,0 -21.04404,-8.23077 -21.04404,-18.38393z" fill="url(#color-1)" stroke-width="NaN"/><path d="M189.45026,76.34509c0,-10.15316 9.42174,-18.38393 21.04404,-18.38393c11.6223,0 21.04403,8.23077 21.04403,18.38393c0,10.15316 -9.42174,18.38393 -21.04403,18.38393c-11.6223,0 -21.04404,-8.23077 -21.04404,-18.38393z" fill="url(#color-2)" stroke-width="NaN"/><path d="M194.60723,89.78687c-6.26221,-8.5533 -3.40163,-19.92194 6.38932,-25.39258c9.79094,-5.47064 22.80458,-2.97164 29.0668,5.58166c6.26221,8.5533 3.40163,19.92194 -6.38931,25.39257c-9.79094,5.47064 -22.8046,2.97164 -29.06681,-5.58165z" fill="url(#color-3)" stroke-width="NaN"/><path d="M180.94351,94.16819c-6.26221,-8.5533 -3.40163,-19.92195 6.38931,-25.39258c9.79094,-5.47064 22.80458,-2.97163 29.06681,5.58166c6.26221,8.5533 3.40163,19.92194 -6.38931,25.39257c-9.79094,5.47064 -22.8046,2.97164 -29.06681,-5.58165z" fill="url(#color-4)" stroke-width="NaN"/><path d="M218.78824,77.8959c-1.33424,-10.08603 6.94361,-19.20727 18.48908,-20.37285c11.54546,-1.16558 21.9865,6.06589 23.32074,16.15193c1.33424,10.08603 -6.94361,19.20727 -18.48907,20.37285c-11.54546,1.16558 -21.98651,-6.06589 -23.32075,-16.15193z" fill="url(#color-5)" stroke-width="NaN"/><path d="M204.3091,73.5988c-1.33424,-10.08603 6.94361,-19.20727 18.48908,-20.37285c11.54546,-1.16558 21.9865,6.06589 23.32074,16.15193c1.33424,10.08603 -6.94361,19.20727 -18.48907,20.37285c-11.54546,1.16558 -21.98651,-6.06589 -23.32075,-16.15193z" fill="url(#color-6)" stroke-width="NaN"/><path d="M243.25101,76.34509c0,-10.15316 9.42174,-18.38393 21.04404,-18.38393c11.6223,0 21.04403,8.23077 21.04403,18.38393c0,10.15316 -9.42174,18.38393 -21.04403,18.38393c-11.6223,0 -21.04404,-8.23077 -21.04404,-18.38393z" fill="url(#color-7)" stroke-width="NaN"/><path d="M229.03804,70.60449c0,-10.15316 9.42174,-18.38393 21.04404,-18.38393c11.6223,0 21.04403,8.23077 21.04403,18.38393c0,10.15316 -9.42174,18.38393 -21.04403,18.38393c-11.6223,0 -21.04404,-8.23077 -21.04404,-18.38393z" fill="url(#color-8)" stroke-width="NaN"/><g><g><path d="M159.67996,109.24015c-9.05365,-6.3664 -10.48532,-17.93908 -3.19771,-25.8483c7.28761,-7.90922 20.53481,-9.1599 29.58846,-2.7935c9.05365,6.3664 10.48531,17.93908 3.19771,25.84829c-7.28761,7.90922 -20.53482,9.15991 -29.58846,2.79351z" fill="url(#color-9)" stroke-width="NaN"/><path d="M159.07976,116.83752c-10.64661,-4.07206 -15.49868,-14.91291 -10.8374,-24.21373c4.66129,-9.30081 17.07076,-13.53955 27.71737,-9.46749c10.64661,4.07206 15.49868,14.91292 10.83741,24.21373c-4.66129,9.30081 -17.07077,13.53955 -27.71738,9.46749z" fill="url(#color-10)" stroke-width="NaN"/><path d="M150.50567,127.11236c-10.64661,-4.07206 -15.49868,-14.91292 -10.83741,-24.21373c4.66129,-9.30081 17.07077,-13.53954 27.71737,-9.46748c10.64661,4.07206 15.49868,14.91292 10.83741,24.21372c-4.66129,9.30081 -17.07077,13.53955 -27.71738,9.46749z" fill="url(#color-11)" stroke-width="NaN"/><path d="M140.05449,115.36463c0,-10.15317 9.42174,-18.38394 21.04404,-18.38394c11.6223,0 21.04404,8.23077 21.04404,18.38394c0,10.15317 -9.42174,18.38394 -21.04404,18.38394c-11.6223,0 -21.04404,-8.23077 -21.04404,-18.38394z" fill="url(#color-12)" stroke-width="NaN"/><path d="M136.36354,129.5566c0,-10.15316 9.42174,-18.38393 21.04404,-18.38393c11.6223,0 21.04403,8.23077 21.04403,18.38393c0,10.15316 -9.42174,18.38393 -21.04403,18.38393c-11.6223,0 -21.04404,-8.23077 -21.04404,-18.38393z" fill="url(#color-13)" stroke-width="NaN"/><path d="M138.02491,181.80568c0,-10.15316 9.42174,-18.38393 21.04404,-18.38393c11.6223,0 21.04403,8.23077 21.04403,18.38393c0,10.15316 -9.42174,18.38393 -21.04403,18.38393c-11.6223,0 -21.04404,-8.23077 -21.04404,-18.38393z" fill="url(#color-14)" stroke-width="NaN"/><path d="M136.54915,169.8731c0,-10.15316 9.42174,-18.38393 21.04404,-18.38393c11.6223,0 21.04403,8.23077 21.04403,18.38393c0,10.15316 -9.42174,18.38393 -21.04403,18.38393c-11.6223,0 -21.04404,-8.23077 -21.04404,-18.38393z" fill="url(#color-15)" stroke-width="NaN"/><path d="M133.41198,163.74599c0,-10.15316 9.42174,-18.38393 21.04404,-18.38393c11.6223,0 21.04403,8.23077 21.04403,18.38393c0,10.15316 -9.42174,18.38393 -21.04403,18.38393c-11.6223,0 -21.04404,-8.23077 -21.04404,-18.38393z" fill="url(#color-16)" stroke-width="NaN"/><path d="M134.70513,153.26476c0,-10.15316 9.42174,-18.38393 21.04404,-18.38393c11.6223,0 21.04403,8.23077 21.04403,18.38393c0,10.15316 -9.42174,18.38393 -21.04403,18.38393c-11.6223,0 -21.04404,-8.23077 -21.04404,-18.38393z" fill="url(#color-17)" stroke-width="NaN"/><path d="M133.22934,145.68628c0,-10.15316 9.42174,-18.38393 21.04404,-18.38393c11.6223,0 21.04403,8.23077 21.04403,18.38393c0,10.15316 -9.42174,18.38393 -21.04403,18.38393c-11.6223,0 -21.04404,-8.23077 -21.04404,-18.38393z" fill="url(#color-18)" stroke-width="NaN"/><path d="M131.19973,138.59158c0,-10.15316 9.42174,-18.38393 21.04404,-18.38393c11.6223,0 21.04403,8.23077 21.04403,18.38393c0,10.15316 -9.42174,18.38393 -21.04403,18.38393c-11.6223,0 -21.04404,-8.23077 -21.04404,-18.38393z" fill="url(#color-19)" stroke-width="NaN"/></g><path d="M171.03581,101.28639c-9.05365,-6.3664 -10.48532,-17.93908 -3.19771,-25.84829c7.28761,-7.90922 20.53481,-9.15991 29.58846,-2.79351c9.05365,6.3664 10.48531,17.93908 3.19771,25.84829c-7.28761,7.90922 -20.53482,9.15991 -29.58846,2.79351z" fill="url(#color-20)" stroke-width="NaN"/></g></g><path d="M167.22081,82.912c0,-10.15316 8.23077,-18.38393 18.38394,-18.38393c10.15317,0 18.38393,8.23077 18.38393,18.38393c0,10.15316 -8.23077,18.38393 -18.38393,18.38393c-10.15317,0 -18.38394,-8.23077 -18.38394,-18.38393z" fill="url(#color-21)" stroke="none" stroke-width="NaN" stroke-linecap="butt"/><path d="M188.22085,76.912c0,-10.15316 8.23077,-18.38393 18.38394,-18.38393c10.15317,0 18.38393,8.23077 18.38393,18.38393c0,10.15316 -8.23077,18.38393 -18.38393,18.38393c-10.15317,0 -18.38394,-8.23077 -18.38394,-18.38393z" fill="url(#color-22)" stroke="none" stroke-width="NaN" stroke-linecap="butt"/><path d="M172.13411,101.85331c-7.90921,-6.3664 -9.15991,-17.93908 -2.7935,-25.84829c6.36641,-7.90922 17.93908,-9.15991 25.84829,-2.79351c7.90921,6.3664 9.1599,17.93908 2.7935,25.84829c-6.36641,7.90922 -17.93909,9.15991 -25.84829,2.79351z" fill="url(#color-23)" stroke="none" stroke-width="NaN" stroke-linecap="butt"/><path d="M192.72595,90.35379c-5.47063,-8.5533 -2.97164,-19.92194 5.58167,-25.39258c8.5533,-5.47064 19.92194,-2.97164 25.39257,5.58166c5.47063,8.5533 2.97164,19.92194 -5.58166,25.39257c-8.5533,5.47064 -19.92195,2.97164 -25.39258,-5.58165z" fill="url(#color-24)" stroke="none" stroke-width="NaN" stroke-linecap="butt"/><path d="M180.78941,94.73511c-5.47063,-8.5533 -2.97164,-19.92195 5.58166,-25.39258c8.5533,-5.47064 19.92194,-2.97163 25.39258,5.58166c5.47063,8.5533 2.97164,19.92194 -5.58166,25.39257c-8.5533,5.47064 -19.92195,2.97164 -25.39258,-5.58165z" fill="url(#color-25)" stroke="none" stroke-width="NaN" stroke-linecap="butt"/><path d="M213.85033,78.46282c-1.16558,-10.08603 6.06589,-19.20727 16.15194,-20.37285c10.08604,-1.16558 19.20727,6.06589 20.37285,16.15193c1.16558,10.08603 -6.06589,19.20727 -16.15193,20.37285c-10.08604,1.16558 -19.20728,-6.06589 -20.37286,-16.15193z" fill="url(#color-26)" stroke="none" stroke-width="NaN" stroke-linecap="butt"/><path d="M201.20144,74.16572c-1.16558,-10.08603 6.06589,-19.20727 16.15194,-20.37285c10.08604,-1.16558 19.20727,6.06589 20.37285,16.15193c1.16558,10.08603 -6.06589,19.20727 -16.15193,20.37285c-10.08604,1.16558 -19.20728,-6.06589 -20.37286,-16.15193z" fill="url(#color-27)" stroke="none" stroke-width="NaN" stroke-linecap="butt"/><path d="M235.22085,76.912c0,-10.15316 8.23077,-18.38393 18.38394,-18.38393c10.15317,0 18.38393,8.23077 18.38393,18.38393c0,10.15316 -8.23077,18.38393 -18.38393,18.38393c-10.15317,0 -18.38394,-8.23077 -18.38394,-18.38393z" fill="url(#color-28)" stroke="none" stroke-width="NaN" stroke-linecap="butt"/><path d="M222.80449,71.1714c0,-10.15316 8.23077,-18.38393 18.38394,-18.38393c10.15317,0 18.38393,8.23077 18.38393,18.38393c0,10.15316 -8.23077,18.38393 -18.38393,18.38393c-10.15317,0 -18.38394,-8.23077 -18.38394,-18.38393z" fill="url(#color-29)" stroke="none" stroke-width="NaN" stroke-linecap="butt"/><path d="M222.74398,160.30746c0,0 -0.64175,-4.6722 0.17927,-7.29296c0.55402,-1.76848 0.90086,-4.6808 4.22847,-5.39039c2.07582,-0.44266 4.77551,-1.51207 4.77551,-1.51207c0,0 26.63864,5.60369 33.41697,8.00323c3.03053,1.07281 4.00302,3.09725 4.00302,3.09725c0,0 1.53823,6.20699 1.23982,8.60971c-0.31643,2.54762 -3.42099,6.20285 -3.42099,6.20285z" fill="#090909" stroke="#000000" stroke-width="2" stroke-linecap="butt"/><path d="M227.8736,202.18308c0,0 9.32454,-5.5289 13.19335,-10.94156c2.62406,-3.67124 4.53278,-7.93918 7.77138,-14.33151c3.30008,-6.51371 7.90582,-15.11856 7.90582,-15.11856c0,0 0.39954,6.34459 1.74975,7.88418c2.07852,2.37004 8.39462,7.80532 8.39462,7.80532c0,0 -10.71161,14.56562 -13.33133,20.26551c-3.35663,7.3033 -5.15137,19.94862 -5.15137,19.94862c0,0 -3.51615,-6.93409 -5.83393,-8.23174c-2.04082,-1.14259 -7.34786,0.85168 -7.34786,0.85168c0,0 -6.00585,5.34367 -10.70798,6.24118c-6.07409,1.15936 -11.37345,-2.19317 -13.36264,-3.7204c-9.94335,-7.63409 1.65342,-27.35971 -0.25306,-28.80003c-0.96233,-0.72705 5.2238,10.19162 10.44512,14.25419c5.24307,4.07951 6.52815,3.89312 6.52815,3.89312z" fill="#090909" stroke="#000000" stroke-width="2" stroke-linecap="butt"/><path d="M198.61741,220.78266c0,0 -11.00017,-7.62574 -13.82252,-12.55548c-3.15446,-5.50982 -4.21899,-18.95724 -4.21899,-18.95724c0,0 6.51531,2.64388 10.39376,6.41057c4.26687,4.14389 6.18515,9.50642 12.25465,10.9506c6.04635,1.43867 20.95925,-10.27024 21.81106,-11.73001c2.01068,-3.44582 12.92912,-40.26184 15.05629,-43.35067c3.3566,-4.8741 24.84035,1.47568 26.57917,6.29832c1.46016,4.04973 -14.39179,24.36553 -18.11954,33.46255c-5.18301,12.64832 -6.63489,25.77105 -10.10776,28.08071c-0.6732,0.44773 -5.37975,9.15179 -10.31553,8.61357c-3.6406,-0.397 -8.70189,-0.47528 -12.4987,-1.16619c-9.29318,-1.69115 -17.01192,-6.05671 -17.01192,-6.05671z" fill="#333333" stroke="#000000" stroke-width="2" stroke-linecap="butt"/><path d="M263.41496,149.03105c-0.64458,2.31108 0.42422,7.28975 -1.05392,8.20587c-1.72276,1.06775 -5.43067,0.57447 -8.4269,0.56913c-3.9058,-0.00696 -7.31019,0.20371 -10.74922,-0.45153c-8.79853,-1.67639 -8.5465,-7.16535 -6.72951,-16.48632c0.52249,-2.68035 4.17063,-12.282 4.51326,-12.81817c4.79617,-7.50589 12.41949,-12.44744 18.26999,-11.33274c7.92732,1.5104 11.18864,11.97168 9.40199,20.70098c-0.19636,0.95934 -5.09531,11.14549 -5.22564,11.61281z" fill="#0e0e0e" stroke="#000000" stroke-width="2" stroke-linecap="butt"/><path d="M204.62131,203.26375c0,0 6.60155,-7.37354 8.8165,-13.26402c1.50231,-3.99532 2.32663,-8.35171 3.86796,-14.97242c1.57061,-6.74643 3.84427,-15.72084 3.84427,-15.72084c0,0 1.38885,5.65875 2.738,6.71547c2.07691,1.62671 11.99192,2.69393 11.99192,2.69393c0,0 -7.14893,19.51279 -8.30682,25.34862c-1.48361,7.47748 -3.76295,18.09683 -3.76295,18.09683c0,0 -4.00495,-5.40697 -6.09489,-5.99975c-1.8402,-0.52194 -5.79115,2.62846 -5.79115,2.62846c0,0 -3.95243,6.36746 -7.59913,8.36945c-4.7107,2.58616 -9.87787,-3.04886 -11.741,-3.93301c-9.31328,-4.41959 -2.93844,-21.32507 -4.72018,-22.15123c-0.89938,-0.41702 5.9315,7.933 10.83102,10.30268c4.91995,2.37954 5.92646,1.88587 5.92646,1.88587z" fill="#090909" stroke="#000000" stroke-width="2" stroke-linecap="butt"/><path d="M229.84443,157.94563c0,0 -2.38263,-4.37851 -1.01655,-5.72563c1.58004,-1.55809 3.78073,-1.57136 6.58182,-1.04277c2.8011,0.52858 5.67198,3.27683 13.43428,4.81989c5.45426,1.08424 10.07204,1.66073 12.61721,1.38036c0.16756,-0.01846 3.28593,1.28564 3.80795,2.61089c0.64404,1.63509 -1.86161,5.69471 -1.86161,5.69471c0,0 -5.81524,0.60873 -12.09063,0.29074c-3.24078,-0.1642 -7.81415,0.08353 -10.28826,-0.53712c-6.58984,-1.65316 -11.18422,-7.49105 -11.18422,-7.49105z" fill="#091f57" stroke="#000000" stroke-width="2" stroke-linecap="butt"/><path d="M201.59605,224.20865c0,0 -11.42992,-6.42106 -14.64387,-11.02291c-1.31288,-1.87985 -5.48222,-9.85504 -3.24849,-9.0972c3.8779,1.31565 16.27145,13.14737 18.89325,15.26353c4.54578,3.66912 5.15716,-0.56536 11.20228,0.23159c6.02206,0.79392 13.43936,1.88961 14.13044,0.34949c0.16347,-0.36433 7.26365,-3.42358 7.73096,-4.51602c2.6874,-6.28227 7.72228,-38.17848 12.4346,-46.2043c2.64486,-4.5046 7.80143,-0.39637 7.80143,-0.39637c0,0 -5.32698,13.06453 -8.095,22.49592c-3.8486,13.11327 -4.4056,24.66726 -7.56776,27.32742c-0.613,0.51568 -4.37103,9.65951 -9.22676,9.6436c-3.58157,-0.01175 -8.51596,0.44257 -12.27741,0.15517c-9.20664,-0.70345 -17.13369,-4.22992 -17.13369,-4.22992z" fill="#091f57" stroke="#000000" stroke-width="2" stroke-linecap="butt"/><path d="M220.89314,164.36762c0,0 1.49378,-4.52683 2.88438,-6.136c1.60841,-1.86117 4.24075,-3.15915 4.24075,-3.15915c0,0 5.15392,1.89828 9.35261,4.60325c2.98044,1.92012 6.49315,3.51366 9.63812,4.14323c3.86828,0.77437 10.96468,2.66891 14.5536,1.58327c2.49268,-0.75401 -0.09769,5.65678 -0.09769,5.65678c0,0 -15.60493,2.42151 -22.68157,0.56367c-2.19666,-0.57669 -3.96719,-3.35434 -6.92287,-3.23527c-1.95037,0.07858 -5.16035,3.27525 -6.70204,2.587c-2.94917,-1.31659 -4.26524,-6.60679 -4.26524,-6.60679z" fill="#1a1a1a" stroke="#000000" stroke-width="2" stroke-linecap="butt"/><path d="M260.65531,151.25982c0,0 -2.09604,1.84755 -2.73287,1.78373c-0.85826,-0.08601 -4.47145,-1.33938 -5.34746,-1.44071c-0.74138,-0.08579 -3.21274,-1.45763 -3.21274,-1.45763c0,0 -1.39252,0.62469 -1.97596,0.55907c-0.75985,-0.08545 -2.19536,-1.02814 -2.19536,-1.02814c0,0 -0.50485,-2.15386 -0.29407,-3.24436c-0.3336,-1.20887 0.35379,-3.79131 -0.06479,-4.4215c-2.82953,-1.00482 -4.12986,-2.68415 -3.17556,-7.60754c0.71599,-3.69397 3.27065,-6.39716 5.14831,-8.68919c2.94775,-3.59821 5.97191,-5.6779 10.9411,-5.12255c3.55443,0.39725 4.61224,4.50147 6.65974,6.8682c2.63831,3.04969 5.66687,4.92748 4.63082,10.27247c0,0 -1.46618,6.13949 -4.86403,6.20791c-1.27647,1.36505 -1.48518,2.52496 -2.23007,4.05147z" fill="#333333" stroke="#000000" stroke-width="2" stroke-linecap="butt"/><path d="M241.72706,132.11541c0,0 0.70061,-4.01759 1.93947,-4.45322c1.77416,-0.62381 5.92887,-3.57289 8.53635,-3.93291c4.58922,-0.63365 7.43215,1.55191 5.85582,1.3558c-1.13854,-0.14165 -1.14499,12.59161 -3.06523,13.96205c-1.62541,1.16002 -1.66828,3.56317 -2.15962,4.87251c-0.48186,1.28409 -0.33281,6.14191 -1.70414,7.47877c-0.41667,0.40619 -4.3029,0.01977 -5.30352,-1.23334c-0.68507,-0.85792 -1.51044,-1.98005 -1.67443,-3.25611c-0.2062,-1.60428 0.04728,-3.72884 -0.3565,-3.70297c-1.52675,0.09787 -1.30444,-2.75013 -2.09421,-3.46816c-0.92838,-0.84405 0.54749,-7.50911 0.54749,-7.50911z" fill="#141414" stroke="#000000" stroke-width="2" stroke-linecap="butt"/><path d="M246.73829,131.9894c0.31186,-2.17826 2.21821,-3.70817 4.25794,-3.41718c2.03975,0.291 3.44045,2.29271 3.12859,4.47097c-0.31186,2.17826 -2.21819,3.70817 -4.25794,3.41717c-2.03975,-0.291 -3.44046,-2.29272 -3.1286,-4.47097z" fill="#1048db" stroke="#000000" stroke-width="2" stroke-linecap="butt"/><path d="M259.11638,135.12675c0.26707,-1.72481 1.62661,-2.97533 3.03661,-2.79314c1.41001,0.1822 2.33653,1.72811 2.06947,3.45292c-0.26707,1.7248 -1.62661,2.97531 -3.03661,2.79312c-1.41001,-0.1822 -2.33653,-1.7281 -2.06946,-3.4529z" fill="#101010" stroke="#000000" stroke-width="2" stroke-linecap="butt"/><path d="M243.6563,125.72405c0,0 6.85569,-3.61113 9.45544,-4.21578c2.56773,-0.5972 6.04827,0.60988 6.04827,0.60988" fill="none" stroke="#000000" stroke-width="2" stroke-linecap="round"/><path d="M241.05795,132.0478c0.39142,-0.77646 2.36504,-8.27379 3.77014,-9.75986c1.99936,-2.11459 4.40579,-3.53327 4.40579,-3.53327c0,0 5.99271,-2.91502 9.75872,-1.65958c3.76603,1.25541 7.63573,6.00521 7.63573,6.00521c0,0 1.77612,1.81477 2.72734,4.60892c0.37019,1.08743 0.32029,3.6916 0.43366,4.34782c0.35772,2.07057 -1.81225,6.28381 -1.81225,6.28381c0,0 -2.0923,-4.89607 -4.14177,-8.79212c-1.94782,-3.70281 -3.1944,-1.85944 -6.01247,-2.86383c-2.81806,-1.0044 -5.41988,-0.49081 -8.64522,0.4102c-2.41959,0.67594 -4.75925,1.57097 -6.34961,2.47102c-1.18015,0.66788 -1.42385,-0.97581 -1.195,-1.42981z" fill="#0b0b0b" stroke="#000000" stroke-width="2" stroke-linecap="butt"/><path d="M246.9507,172.60294l-5.69132,1.67699" fill="none" stroke="#000000" stroke-width="2" stroke-linecap="round"/><path d="M241.80437,182.16951l6.15832,-2.56577" fill="none" stroke="#000000" stroke-width="2" stroke-linecap="round"/><path d="M241.30509,188.86077l6.16919,-2.27614" fill="none" stroke="#000000" stroke-width="2" stroke-linecap="round"/><path d="M246.74696,193.86511l-4.931,1.93676" fill="none" stroke="#000000" stroke-width="2" stroke-linecap="round"/><path d="M247.21395,200.1278l-6.90775,2.59561" fill="none" stroke="#000000" stroke-width="2" stroke-linecap="round"/><path d="M188.07937,206.49164l7.09722,12.76118c0,0 -9.06623,-3.89162 -13.33038,-9.33525c-5.30392,-6.771 -8.33128,-17.7078 -9.12014,-19.65582c-0.73427,-1.81325 -0.09158,-6.89095 1.07369,-8.03062c2.93883,-2.87429 9.84089,0.61532 11.06561,7.2117c0.55551,2.99196 2.32189,2.32279 4.29048,3.22747c2.73872,1.25859 5.7874,3.39584 5.7874,3.39584c0,0 6.14655,4.43114 4.30155,4.52296c-1.05041,0.05228 -2.70648,0.42452 -3.52522,1.55028c-0.71321,0.98067 -0.66266,2.7379 -0.66266,2.7379c0,0 -4.55114,-3.4964 -6.03293,-3.51181c-1.03567,-0.01077 -0.94463,5.12616 -0.94463,5.12616z" fill="#101010" stroke="#000000" stroke-width="2" stroke-linecap="butt"/><path d="M175.76785,177.19755c-0.23424,-9.2392 27.6254,-13.47498 27.6254,-13.47498c0,0 -19.60076,19.51461 -16.89648,26.6609c1.23721,3.26942 -4.95002,3.36495 -8.38522,-0.84969c-0.92215,-1.13139 -3.08173,-2.90402 -3.41181,-4.67686c-0.5277,-2.83419 1.11385,-5.85496 1.06811,-7.65937z" fill="#091f57" stroke="#000000" stroke-width="2" stroke-linecap="butt"/><path d="M188.12981,174.88595c6.78712,-2.11927 8.8244,-3.93144 8.8244,-3.93144c0,0 -12.21995,11.24771 -9.51567,18.39399c1.23721,3.26942 -5.83708,4.63072 -9.27228,0.41608c-2.39637,-2.94009 2.88319,-12.66781 9.96356,-14.87863z" fill="#090d19" stroke="#000000" stroke-width="2" stroke-linecap="butt"/><path d="M217.81972,176.51995c0,0 4.59399,-12.45008 5.71213,-16.4942c0.82478,-2.98304 0.38859,-5.57107 0.38859,-5.57107l4.37873,0.32207c0,0 2.98089,9.89129 2.16307,13.31022c-0.98051,4.09906 -5.86265,10.75332 -5.86265,10.75332z" fill="#090909" stroke="#000000" stroke-width="0" stroke-linecap="butt"/><path d="M228.21881,155.74077c0,0 2.24263,5.86535 2.57204,8.59639c0.32138,2.66455 0.04316,4.18093 0.04316,4.18093" fill="none" stroke="#000000" stroke-width="2" stroke-linecap="round"/><path d="M232.12382,180.65821c0,0 -15.77541,6.54456 -21.06196,8.0513c-0.29716,0.0847 -1.29491,-1.66665 -1.13497,-2.85216c0.2336,-1.73142 1.73587,-3.19671 1.57359,-3.74751c-0.46367,-1.57386 16.33426,-8.4948 16.33426,-8.4948c0,0 3.60786,-1.85513 5.26309,-0.50866c1.08236,0.88045 1.39968,3.35053 3.26836,3.46799c2.21049,0.13894 12.84106,0.3782 15.36083,0.31021c7.56717,-0.20415 7.26992,-1.27628 8.6792,-0.92497c0.06731,0.01678 1.57701,-7.34864 3.89748,-11.86126c1.37887,-2.6815 2.44432,-4.2242 2.80228,-4.11661c0.41203,0.12386 2.80064,5.50221 2.49595,9.04289c-0.17041,1.98063 -1.50059,2.99019 -1.67969,4.0756c-0.46038,2.7901 -3.29523,4.68088 -3.55394,5.0437c-1.23617,1.73358 -8.22351,4.12131 -8.22351,4.12131c0,0 -5.5535,0.64232 -8.94699,0.4153c-4.3659,-0.29209 -15.074,-2.02233 -15.074,-2.02233z" fill="#180f05" stroke="#000000" stroke-width="2" stroke-linecap="butt"/><path d="M232.88765,174.20493c0,0 -19.99358,6.6339 -22.08784,6.82708c-4.98809,0.46009 2.33221,-4.94401 2.1072,-5.87575c-0.38164,-1.58032 16.13425,-8.07671 16.13425,-8.07671c0,0 3.56278,-1.76285 5.10489,-0.38058c1.00838,0.90386 1.21095,3.37422 3.01091,3.53628c2.12923,0.19168 12.38694,0.6859 14.8236,0.67871c7.31752,-0.02157 7.07553,-1.09763 8.42194,-0.71349c0.06431,0.01835 1.83238,-7.28885 4.26349,-11.73224c1.44464,-2.64036 2.53865,-4.15283 2.87985,-4.03695c0.39275,0.1334 2.47358,5.55319 2.03033,9.076c-0.24795,1.97063 -1.57519,2.94521 -1.79384,4.02309c-0.56204,2.77071 -3.37971,4.5877 -3.64485,4.94322c-1.26692,1.69871 -8.11627,3.91129 -8.11627,3.91129c0,0 -5.39102,0.50685 -8.65915,0.19889c-4.20463,-0.39621 -14.47453,-2.37884 -14.47453,-2.37884z" fill="#180f05" stroke="#000000" stroke-width="2" stroke-linecap="butt"/><path d="" fill="none" stroke="#000000" stroke-width="2" stroke-linecap="round"/><g stroke="#000000" stroke-linecap="butt"><path d="M232.62055,135.44444c0,0 -25.32334,-13.67465 -31.74742,-18.29912c-3.36911,-2.42529 -3.9665,-7.41005 -3.9665,-7.41005l3.24059,-4.64861c0,0 11.88752,3.81723 15.22237,6.14198c4.45082,3.10271 9.11452,10.82348 9.11452,10.82348z" fill="#091f57" stroke-width="2.5"/><path d="M176.04107,113.27282c-1.42539,-1.18472 -4.0394,-6.22588 -4.97209,-7.13803c-1.57855,-1.54379 -4.86638,-11.05437 -4.86638,-11.05437c0,0 6.75544,-2.8272 10.22118,-6.11876c3.46574,-3.29155 11.26209,-14.28481 11.26209,-14.28481l12.52333,-1.07091l17.74916,-11.19771c0,0 9.31496,3.92806 14.79886,6.29199c2.56414,1.10531 20.23695,6.2783 20.23695,6.2783c0,0 -37.3988,-0.37589 -57.64715,9.96826c-10.4958,5.36192 -17.43871,19.86145 -18.3849,21.55486c-1.34561,2.40834 0.89083,8.27712 -0.92108,6.77116z" fill="#0b0b0b" stroke-width="2.5"/><path d="M185.76144,119.48289c-1.44553,-0.04923 -4.14132,-0.65585 -5.83659,-2.08049c-1.3336,-1.12074 -1.72584,-2.98775 -2.59458,-3.85529c-0.72817,-0.72719 -1.65905,-5.52408 -0.91218,-9.95358c0.76123,-4.51461 3.21545,-8.66655 4.06506,-9.77152c1.88819,-2.45576 23.06766,-16.10246 32.09498,-21.86171c2.47508,-1.57906 -5.46952,9.90563 -5.46952,9.90563l16.27486,-8.72828l30.71704,3.45396l-30.26089,4.3248c0,0 -16.32669,7.92407 -24.11884,12.15851c-10.22032,5.55396 -15.79225,18.97756 -16.74798,20.66433c-1.35921,2.39886 5.37132,5.8316 2.78865,5.74368z" fill="#091f57" stroke-width="2"/><path d="M276.736,173.63768c0,0 -50.52522,-35.55691 -59.7275,-42.07088c-2.5796,-1.82602 -5.98357,-7.1501 -5.98357,-7.1501c0,0 -12.0705,-1.83184 -14.41165,-3.46391c-5.23897,-3.65214 -9.95108,-10.10638 -9.95108,-10.10638l3.62183,-5.19551l6.32865,6.11835c0,0 1.31224,-2.49844 1.94438,-2.05776c1.78306,1.243 -0.65014,4.04964 2.6478,6.40637c0.23316,0.16662 2.2608,0.40715 4.15809,0.45068c2.2736,0.05216 4.47924,-0.09546 4.79248,0.12817c4.88021,3.48433 9.42123,8.38278 15.47384,12.72122c23.80114,17.0604 52.48136,37.70146 52.48136,37.70146c0,0 1.26848,2.72684 0.68977,3.55703c-0.62499,0.89655 -2.06433,2.96127 -2.06433,2.96127z" fill="#333333" stroke-width="2"/><path d="M203.74003,130.64747c0,0 -2.67173,0.64364 -5.60556,-1.40155c-2.00541,-1.39799 -5.21755,-5.73414 -8.64225,-8.79355c-2.92097,-2.6094 -6.2608,-4.10164 -6.2608,-4.10164l-1.61618,-8.87294c0,0 2.56051,-3.51347 6.05862,-6.65375c3.48323,-3.12694 7.90164,-5.88001 9.0446,-6.24036c3.25612,-1.02661 4.22401,4.72099 4.4265,5.13879c0.15372,0.31716 0.14142,4.05002 -1.11464,6.69161c-1.50266,3.1603 -4.08282,6.35639 -4.08282,6.35639l-4.06271,-4.62735c0,0 -4.20292,4.73332 -3.07631,5.93033c1.96814,2.09114 4.71483,5.12302 6.79009,6.56971c3.34704,2.33324 12.79464,3.67915 12.79464,3.67915c0,0 1.9276,0.86424 2.30353,1.29358c0.78374,0.89507 51.6517,36.32162 51.6517,36.32162c0,0 4.03021,5.01804 -0.93098,2.36933c-6.56624,-3.50561 -35.92461,-26.19843 -51.1209,-34.28397c-5.43624,-2.89246 -6.55652,0.6246 -6.55652,0.6246z" fill="#0b0b0b" stroke-width="2"/><path d="M220.57285,76.66048c-1.73674,-1.21069 -2.16319,-3.60009 -0.95249,-5.33682c1.21069,-1.73674 3.60007,-2.16317 5.33682,-0.95248c1.73674,1.21069 2.16318,3.60006 0.95249,5.33682c-1.21069,1.73674 -3.60008,2.16319 -5.33682,0.95249z" fill="#1449cd" stroke-width="2"/><g stroke-width="0"><path d="M220.54991,75.6857c-1.67552,-1.06171 -2.23271,-3.21065 -1.24452,-4.79983c0.98819,-1.58916 3.14755,-2.01675 4.82307,-0.95506c1.67552,1.06171 2.23271,3.21062 1.2445,4.79981c-0.98819,1.58916 -3.14754,2.01676 -4.82307,0.95508z" fill="#1048db"/><path d="M218.58735,78.79815c-3.42389,-2.16956 -4.56249,-6.56091 -2.54312,-9.80834c2.01935,-3.24744 6.43195,-4.12124 9.85584,-1.95166c3.42389,2.16956 4.56251,6.56092 2.54316,9.80834c-2.01935,3.24744 -6.43198,4.1212 -9.85586,1.95164z" fill="url(#color-30)"/></g><path d="M266.67548,168.19633c0,0 -1.41141,-0.04063 -2.01485,-0.4613c-0.58064,-0.40476 -1.53998,-2.01681 -1.53998,-2.01681c0,0 1.74312,-2.24682 2.07712,-3.62722c0.43234,-1.78689 0.29893,-6.19292 0.29893,-6.19292c0,0 1.62125,0.34413 2.07782,0.66242c0.65513,0.45668 1.47701,1.8157 1.47701,1.8157c0,0 -0.88591,5.42555 -1.22428,6.824c-0.43101,1.78135 -1.15176,2.99614 -1.15176,2.99614z" fill="#180f05" stroke-width="2"/><path d="M270.32563,170.53772c0,0 -1.41141,-0.04063 -2.01485,-0.4613c-0.58064,-0.40476 -1.53998,-2.01681 -1.53998,-2.01681c0,0 1.7431,-2.24683 2.07711,-3.62723c0.43234,-1.78689 0.29893,-6.19292 0.29893,-6.19292c0,0 1.62125,0.34413 2.07782,0.66242c0.65513,0.45668 1.47701,1.8157 1.47701,1.8157c0,0 -0.88591,5.42555 -1.22428,6.824c-0.43101,1.78135 -1.15177,2.99613 -1.15177,2.99613z" fill="#180f05" stroke-width="2"/><path d="M273.32112,173.23537c0,0 -1.41141,-0.04063 -2.01485,-0.4613c-0.58064,-0.40476 -1.53998,-2.01681 -1.53998,-2.01681c0,0 1.7431,-2.24683 2.07711,-3.62723c0.43234,-1.78689 0.29893,-6.19292 0.29893,-6.19292c0,0 1.62125,0.34413 2.07782,0.66242c0.65513,0.45668 1.47701,1.8157 1.47701,1.8157c0,0 -0.88591,5.42555 -1.22428,6.824c-0.43101,1.78135 -1.15177,2.99613 -1.15177,2.99613z" fill="#180f05" stroke-width="2"/><path d="M176.56938,105.63618l-4.33496,-7.65414c0,0 4.3501,-3.40464 7.10495,-5.46062c3.5015,-2.61321 10.80472,-13.58585 10.80472,-13.58585c0,0 3.71399,0.48104 4.69204,1.20442c0.93219,0.68945 1.04536,3.03898 1.04536,3.03898c0,0 -8.91061,6.15162 -12.11872,9.88219c-3.22912,3.755 -7.19341,12.57503 -7.19341,12.57503z" fill="#1a1a1a" stroke-width="2"/></g></g></g></svg>