<svg version="1.1" xmlns="http://www.w3.org/2000/svg" xmlns:xlink="http://www.w3.org/1999/xlink" width="615.00541" height="498.49849" viewBox="0,0,615.00541,498.49849"><defs><linearGradient x1="190.92652" y1="224.44316" x2="199.92652" y2="224.44316" gradientUnits="userSpaceOnUse" id="color-1"><stop offset="0" stop-color="#100b02"/><stop offset="1" stop-color="#27170c"/></linearGradient><linearGradient x1="337.90851" y1="224.28101" x2="346.90851" y2="224.28101" gradientUnits="userSpaceOnUse" id="color-2"><stop offset="0" stop-color="#100b02"/><stop offset="1" stop-color="#27170c"/></linearGradient><linearGradient x1="335.27894" y1="235.79796" x2="349.27892" y2="235.79796" gradientUnits="userSpaceOnUse" id="color-3"><stop offset="0" stop-color="#0c0c0c"/><stop offset="1" stop-color="#1b1b1b"/></linearGradient><linearGradient x1="335.61222" y1="307.35183" x2="349.61222" y2="307.35183" gradientUnits="userSpaceOnUse" id="color-4"><stop offset="0" stop-color="#0c0c0c"/><stop offset="1" stop-color="#1b1b1b"/></linearGradient><linearGradient x1="408.73058" y1="197.6991" x2="408.73058" y2="203.49909" gradientUnits="userSpaceOnUse" id="color-5"><stop offset="0" stop-color="#1b1b1b"/><stop offset="1" stop-color="#0c0c0c"/></linearGradient><radialGradient cx="408.14051" cy="86.5137" r="12.5" gradientUnits="userSpaceOnUse" id="color-6"><stop offset="0" stop-color="#232323"/><stop offset="1" stop-color="#0c0c0c"/></radialGradient><linearGradient x1="478.45066" y1="334.81991" x2="466.53399" y2="323.2366" gradientUnits="userSpaceOnUse" id="color-7"><stop offset="0" stop-color="#180902" stop-opacity="0"/><stop offset="1" stop-color="#180902"/></linearGradient><linearGradient x1="34.81373" y1="334.78424" x2="46.73038" y2="323.2009" gradientUnits="userSpaceOnUse" id="color-8"><stop offset="0" stop-color="#180902" stop-opacity="0"/><stop offset="1" stop-color="#180902"/></linearGradient><linearGradient x1="2.2423" y1="236.21284" x2="14.15895" y2="224.62949" gradientUnits="userSpaceOnUse" id="color-9"><stop offset="0" stop-color="#180902" stop-opacity="0"/><stop offset="1" stop-color="#180902"/></linearGradient><linearGradient x1="102.31968" y1="41.73662" x2="90.73634" y2="53.65329" gradientUnits="userSpaceOnUse" id="color-10"><stop offset="0" stop-color="#180902" stop-opacity="0"/><stop offset="1" stop-color="#180902"/></linearGradient><linearGradient x1="152.44466" y1="117.4715" x2="140.86129" y2="129.38807" gradientUnits="userSpaceOnUse" id="color-11"><stop offset="0" stop-color="#180902" stop-opacity="0"/><stop offset="1" stop-color="#180902"/></linearGradient><linearGradient x1="362.05182" y1="41.51044" x2="373.63518" y2="53.4271" gradientUnits="userSpaceOnUse" id="color-12"><stop offset="0" stop-color="#180902" stop-opacity="0"/><stop offset="1" stop-color="#180902"/></linearGradient><linearGradient x1="52.20479" y1="132.1552" x2="52.20479" y2="139.32181" gradientUnits="userSpaceOnUse" id="color-13"><stop offset="0" stop-color="#242424"/><stop offset="1" stop-color="#090909"/></linearGradient><radialGradient cx="376.78382" cy="268.80023" r="31.6875" gradientUnits="userSpaceOnUse" id="color-14"><stop offset="0" stop-color="#cca300"/><stop offset="1" stop-color="#cca300" stop-opacity="0"/></radialGradient><linearGradient x1="377.2976" y1="270.90605" x2="377.2976" y2="274.28551" gradientUnits="userSpaceOnUse" id="color-15"><stop offset="0" stop-color="#b58f00"/><stop offset="1" stop-color="#ff0000"/></linearGradient><radialGradient cx="159.28382" cy="265.80023" r="31.6875" gradientUnits="userSpaceOnUse" id="color-16"><stop offset="0" stop-color="#cca300"/><stop offset="1" stop-color="#cca300" stop-opacity="0"/></radialGradient><linearGradient x1="159.7976" y1="267.90605" x2="159.7976" y2="271.28551" gradientUnits="userSpaceOnUse" id="color-17"><stop offset="0" stop-color="#b58f00"/><stop offset="1" stop-color="#ff0000"/></linearGradient><linearGradient x1="428.52853" y1="53.47562" x2="428.52853" y2="35.4637" gradientUnits="userSpaceOnUse" id="color-18"><stop offset="0" stop-color="#180902"/><stop offset="1" stop-color="#180902" stop-opacity="0"/></linearGradient><linearGradient x1="373.82025" y1="137.61255" x2="355.80834" y2="137.61255" gradientUnits="userSpaceOnUse" id="color-19"><stop offset="0" stop-color="#180902"/><stop offset="1" stop-color="#180902" stop-opacity="0"/></linearGradient><linearGradient x1="257.17132" y1="221.47563" x2="257.17132" y2="203.46373" gradientUnits="userSpaceOnUse" id="color-20"><stop offset="0" stop-color="#180902"/><stop offset="1" stop-color="#180902" stop-opacity="0"/></linearGradient><linearGradient x1="140.80833" y1="175.52923" x2="158.82024" y2="175.52923" gradientUnits="userSpaceOnUse" id="color-21"><stop offset="0" stop-color="#180902"/><stop offset="1" stop-color="#180902" stop-opacity="0"/></linearGradient><linearGradient x1="115.85977" y1="129.35327" x2="115.85977" y2="111.34141" gradientUnits="userSpaceOnUse" id="color-22"><stop offset="0" stop-color="#180902"/><stop offset="1" stop-color="#180902" stop-opacity="0"/></linearGradient><linearGradient x1="32.7973" y1="53.47832" x2="32.7973" y2="35.46642" gradientUnits="userSpaceOnUse" id="color-23"><stop offset="0" stop-color="#180902"/><stop offset="1" stop-color="#180902" stop-opacity="0"/></linearGradient><linearGradient x1="466.559" y1="217.5529" x2="484.57091" y2="217.5529" gradientUnits="userSpaceOnUse" id="color-24"><stop offset="0" stop-color="#180902"/><stop offset="1" stop-color="#180902" stop-opacity="0"/></linearGradient><linearGradient x1="474.98163" y1="111.96371" x2="474.98163" y2="129.97562" gradientUnits="userSpaceOnUse" id="color-25"><stop offset="0" stop-color="#180902"/><stop offset="1" stop-color="#180902" stop-opacity="0"/></linearGradient><linearGradient x1="256.5985" y1="323.28033" x2="256.5985" y2="341.2923" gradientUnits="userSpaceOnUse" id="color-26"><stop offset="0" stop-color="#180902"/><stop offset="1" stop-color="#180902" stop-opacity="0"/></linearGradient><linearGradient x1="47.10425" y1="273.96495" x2="29.09234" y2="273.96495" gradientUnits="userSpaceOnUse" id="color-27"><stop offset="0" stop-color="#180902"/><stop offset="1" stop-color="#180902" stop-opacity="0"/></linearGradient><linearGradient x1="30.59831" y1="224.75895" x2="30.59831" y2="242.77086" gradientUnits="userSpaceOnUse" id="color-28"><stop offset="0" stop-color="#180902"/><stop offset="1" stop-color="#180902" stop-opacity="0"/></linearGradient><linearGradient x1="14.20425" y1="183.06498" x2="-3.80766" y2="183.06498" gradientUnits="userSpaceOnUse" id="color-29"><stop offset="0" stop-color="#180902"/><stop offset="1" stop-color="#180902" stop-opacity="0"/></linearGradient><linearGradient x1="-7.60168" y1="141.05892" x2="-7.60168" y2="159.07085" gradientUnits="userSpaceOnUse" id="color-30"><stop offset="0" stop-color="#180902"/><stop offset="1" stop-color="#180902" stop-opacity="0"/></linearGradient><linearGradient x1="90.30833" y1="91.40422" x2="108.32024" y2="91.40422" gradientUnits="userSpaceOnUse" id="color-31"><stop offset="0" stop-color="#180902"/><stop offset="1" stop-color="#180902" stop-opacity="0"/></linearGradient></defs><g transform="translate(128.66064,128.87518)"><g data-paper-data="{&quot;isPaintingLayer&quot;:true}" fill-rule="nonzero" stroke-linejoin="miter" stroke-miterlimit="10" stroke-dasharray="" stroke-dashoffset="0" style="mix-blend-mode: normal"><path d="M303.51719,243.44018l1.2,-13h6.4l1.6,13z" fill="#272727" stroke="#0a0a0a" stroke-width="3" stroke-linecap="butt"/><path d="M222.36719,243.84018l1.2,-13h6.4l1.6,13z" fill="#272727" stroke="#0a0a0a" stroke-width="3" stroke-linecap="butt"/><g stroke="none" stroke-width="0" stroke-linecap="butt"><path d="M190.92652,305.86593v-71.75134h9v71.75134z" fill="url(#color-1)"/><path d="M188.29695,241.56483v-8.53092h14v8.53092z" fill="#141414"/><path d="M188.63023,312.58297v-9.0666h14c0,0 0.37529,8.88241 -0.2667,8.9684c-2.03543,0.27258 -13.7333,0.09819 -13.7333,0.09819z" fill="#141414"/></g><g stroke="none" stroke-width="0" stroke-linecap="butt"><path d="M337.90851,305.70382v-71.75134h9v71.75134z" fill="url(#color-2)"/><path d="M335.27894,241.40267v-8.53092h14v8.53092z" fill="url(#color-3)"/><path d="M335.61222,312.42082v-9.0666h14c0,0 0.37529,8.88242 -0.2667,8.9684c-2.03543,0.27258 -13.7333,0.09819 -13.7333,0.09819z" fill="url(#color-4)"/></g><g fill="none" stroke="#060606" stroke-width="3" stroke-linecap="round"><path d="M419.57738,197.36026v-108.24968"/><path d="M398.97742,197.54612v-108.71429"/></g><path d="M456.23593,365.79282v-264.26427h25.04454v264.26427z" data-paper-data="{&quot;index&quot;:null}" fill="#000000" stroke="#000000" stroke-width="2.5" stroke-linecap="butt"/><path d="M-39.22831,64.40862v-152.90696h520.85436v152.90697z" data-paper-data="{&quot;index&quot;:null}" fill="#000000" stroke="#000000" stroke-width="2.5" stroke-linecap="butt"/><path d="M-36.01671,365.94839v-54.05405h501.5015v54.05405z" fill="#000000" stroke="#000000" stroke-width="2.5" stroke-linecap="butt"/><path d="M390.48058,203.49909v-5.8h36.5v5.8z" fill="url(#color-5)" stroke="#000000" stroke-width="2.5" stroke-linecap="butt"/><g stroke="#000000" stroke-width="2.5" stroke-linecap="butt"><path d="M405.72354,76.31375v-10.54167h8v10.54167z" fill="#000000"/><path d="M396.67473,85.7322c0,-6.90356 5.59644,-12.5 12.5,-12.5c6.90356,0 12.5,5.59644 12.5,12.5c0,6.90356 -5.59644,12.5 -12.5,12.5c-6.90356,0 -12.5,-5.59644 -12.5,-12.5z" fill="url(#color-6)"/></g><path d="M129.14846,232.80122v-173.15916h255.2883v173.15917z" fill="#000000" stroke="#000000" stroke-width="2.5" stroke-linecap="butt"/><path d="M-35.53704,311.50016v-97.59459h93.09309v97.59459z" fill="#000000" stroke="#000000" stroke-width="2.5" stroke-linecap="butt"/><path d="M-44.04739,211.94025v-81h69.20871v81z" fill="#000000" stroke="#000000" stroke-width="2.5" stroke-linecap="butt"/><path d="M78.91133,129.34017v-67.4h51v67.4z" fill="#000000" stroke="#000000" stroke-width="2.5" stroke-linecap="butt"/><path d="M23.72637,140.93869v-10h106v10z" fill="#000000" stroke="#000000" stroke-width="2.5" stroke-linecap="butt"/><path d="M482.34477,57.41939h-104.71247l-0.21429,167.72517h-240.48268v-91.8017h-50.05071v-76.14805h-117.31439" data-paper-data="{&quot;index&quot;:null}" fill="none" stroke="#180902" stroke-width="8" stroke-linecap="round"/><g fill="none" stroke="#000000" stroke-width="4" stroke-linecap="round"><g><path d="M404.14638,91.0948l9.79847,-9.79847"/><path d="M404.08213,81.4891l9.79848,9.79848"/></g><g><path d="M408.92811,92.82473v-13.85715"/><path d="M402.0904,86.07803h13.85714"/></g></g><path d="M-128.66064,369.62331v-498.49849h103.6036v498.49849z" fill="#000000" stroke="none" stroke-width="0" stroke-linecap="butt"/><path d="M481.95447,108.43173l-19.03464,0.125l-0.2,210.81834h-412.11532l0.53024,-98.44809h-33v-82.75h-45.65341" data-paper-data="{&quot;index&quot;:null}" fill="none" stroke="#180902" stroke-width="8" stroke-linecap="round"/><path d="M478.45066,334.81991h-11.91667v-11.58333h11.91667z" data-paper-data="{&quot;index&quot;:null}" fill="url(#color-7)" stroke="none" stroke-width="0" stroke-linecap="butt"/><path d="M34.81373,323.2009h11.91667v11.58333h-11.91667z" data-paper-data="{&quot;index&quot;:null}" fill="url(#color-8)" stroke="none" stroke-width="0" stroke-linecap="butt"/><path d="M2.2423,224.62951h11.91667v11.58333h-11.91667z" data-paper-data="{&quot;index&quot;:null}" fill="url(#color-9)" stroke="none" stroke-width="0" stroke-linecap="butt"/><path d="M102.31968,41.73662v11.91667h-11.58333v-11.91667z" data-paper-data="{&quot;index&quot;:null}" fill="url(#color-10)" stroke="none" stroke-width="0" stroke-linecap="butt"/><path d="M152.44466,117.4715v11.91667h-11.58333v-11.91667z" data-paper-data="{&quot;index&quot;:null}" fill="url(#color-11)" stroke="none" stroke-width="0" stroke-linecap="butt"/><path d="M373.63517,41.51044v11.91667h-11.58333v-11.91667z" data-paper-data="{&quot;index&quot;:null}" fill="url(#color-12)" stroke="none" stroke-width="0" stroke-linecap="butt"/><g><path d="M300.84024,311.6809v-3.06481h5.31471v3.06481z" fill="#000000" stroke="#333333" stroke-width="0" stroke-linecap="butt"/><path d="M313.18409,311.84751v-3.06482h5.31471v3.06482z" fill="#000000" stroke="#333333" stroke-width="0" stroke-linecap="butt"/><path d="M324.92785,311.67136v-3.06481h5.31471v3.06481z" fill="#000000" stroke="#333333" stroke-width="0" stroke-linecap="butt"/><path d="M337.01461,311.74752v-3.06482h5.31471v3.06482z" fill="#000000" stroke="#333333" stroke-width="0" stroke-linecap="butt"/><path d="M354.21606,308.84942v3.06481h-5.31471v-3.06481z" data-paper-data="{&quot;index&quot;:null}" fill="#000000" stroke="#333333" stroke-width="0" stroke-linecap="butt"/><path d="M365.84565,308.74935v3.06482h-5.31471v-3.06482z" data-paper-data="{&quot;index&quot;:null}" fill="#000000" stroke="#333333" stroke-width="0" stroke-linecap="butt"/><path d="M379.87521,308.71609v3.06481h-5.31471v-3.06481z" data-paper-data="{&quot;index&quot;:null}" fill="#000000" stroke="#333333" stroke-width="0" stroke-linecap="butt"/><path d="M392.3905,308.74935v3.06482h-5.31472v-3.06482z" data-paper-data="{&quot;index&quot;:null}" fill="#000000" stroke="#333333" stroke-width="0" stroke-linecap="butt"/><path d="M404.88132,308.64943v3.06482h-5.31472v-3.06482z" data-paper-data="{&quot;index&quot;:null}" fill="#000000" stroke="#333333" stroke-width="0" stroke-linecap="butt"/><path d="M415.22104,308.69227v3.06482h-5.31472v-3.06482z" data-paper-data="{&quot;index&quot;:null}" fill="#000000" stroke="#333333" stroke-width="0" stroke-linecap="butt"/><path d="M427.9976,309.23516v3.06482h-5.31472v-3.06482z" data-paper-data="{&quot;index&quot;:null}" fill="#000000" stroke="#333333" stroke-width="0" stroke-linecap="butt"/><path d="M439.90877,309.37795v3.06482h-5.31472v-3.06482z" data-paper-data="{&quot;index&quot;:null}" fill="#000000" stroke="#333333" stroke-width="0" stroke-linecap="butt"/><path d="M451.24432,308.94941v3.06482h-5.31472v-3.06482z" data-paper-data="{&quot;index&quot;:null}" fill="#000000" stroke="#333333" stroke-width="0" stroke-linecap="butt"/><path d="M299.14115,313.88335h-3.05634h158.97857h-2.90985" fill="none" stroke="#141414" stroke-width="3" stroke-linecap="round"/></g><g stroke="#000000"><path d="M420.67781,311.01328c0,0 -3.77819,-13.13253 -4.73555,-17.28436c-0.53924,-2.33855 -0.51445,-5.48365 -0.51445,-5.48365h31.81802c0,0 -0.07168,3.35317 -0.52481,5.41655c-0.89245,4.06385 -4.47519,17.35147 -4.47519,17.35147z" fill="#000000" stroke-width="2.5" stroke-linecap="butt"/><path d="M421.84991,310.01331c0,0 -3.38803,-11.65773 -4.24653,-15.34331c-0.48356,-2.07593 -0.46133,-4.86783 -0.46133,-4.86783h28.53232c0,0 -0.06428,2.97661 -0.47062,4.80827c-0.80029,3.60748 -4.01306,15.40288 -4.01306,15.40288z" fill="#190f07" stroke-width="0" stroke-linecap="butt"/><path d="M415.07019,293.89065v-5.725h32.55v5.725z" fill="#141414" stroke-width="2.5" stroke-linecap="butt"/><path d="M421.77985,294.91162l5,15.71429" fill="none" stroke-width="2.5" stroke-linecap="round"/><path d="M417.90779,308.8268c0,-2.14011 1.73489,-3.875 3.875,-3.875c2.14011,0 3.875,1.73489 3.875,3.875c0,2.14011 -1.73489,3.875 -3.875,3.875c-2.14011,0 -3.875,-1.73489 -3.875,-3.875z" fill="#191919" stroke-width="2.5" stroke-linecap="butt"/><path d="M440.92274,295.1973l-5,15.71428" data-paper-data="{&quot;index&quot;:null}" fill="none" stroke-width="2.5" stroke-linecap="round"/><path d="M436.90779,308.8893c0,-2.17462 1.76288,-3.9375 3.9375,-3.9375c2.17462,0 3.9375,1.76288 3.9375,3.9375c0,2.17462 -1.76288,3.9375 -3.9375,3.9375c-2.17462,0 -3.9375,-1.76288 -3.9375,-3.9375z" fill="#191919" stroke-width="2.5" stroke-linecap="butt"/><path d="M423.35126,300.05451h15.42857" fill="none" stroke-width="2.5" stroke-linecap="round"/><path d="M425.77983,305.594h10.57143" fill="none" stroke-width="2.5" stroke-linecap="round"/></g><path d="M26.95479,139.32181v-7.16666h50.5v7.16666z" fill="url(#color-13)" stroke="none" stroke-width="NaN" stroke-linecap="butt"/><path d="M22.34599,137.31635v-3.5h11v3.5z" fill="#000000" stroke="none" stroke-width="0" stroke-linecap="butt"/><g><path d="M155.59024,311.8059v-3.06481h5.31471v3.06481z" fill="#000000" stroke="#333333" stroke-width="0" stroke-linecap="butt"/><path d="M167.93409,311.47251v-3.06482h5.31471v3.06482z" fill="#000000" stroke="#333333" stroke-width="0" stroke-linecap="butt"/><path d="M179.67785,311.59634v-3.06481h5.31471v3.06481z" fill="#000000" stroke="#333333" stroke-width="0" stroke-linecap="butt"/><path d="M191.76461,311.77245v-3.06482h5.31471v3.06482z" fill="#000000" stroke="#333333" stroke-width="0" stroke-linecap="butt"/><path d="M208.96606,308.87435v3.06481h-5.31471v-3.06481z" data-paper-data="{&quot;index&quot;:null}" fill="#000000" stroke="#333333" stroke-width="0" stroke-linecap="butt"/><path d="M220.59565,308.77443v3.06482h-5.31471v-3.06482z" data-paper-data="{&quot;index&quot;:null}" fill="#000000" stroke="#333333" stroke-width="0" stroke-linecap="butt"/><path d="M234.62521,308.74102v3.06481h-5.31471v-3.06481z" data-paper-data="{&quot;index&quot;:null}" fill="#000000" stroke="#333333" stroke-width="0" stroke-linecap="butt"/><path d="M247.1405,308.77443v3.06482h-5.31472v-3.06482z" data-paper-data="{&quot;index&quot;:null}" fill="#000000" stroke="#333333" stroke-width="0" stroke-linecap="butt"/><path d="M259.63131,308.67442v3.06482h-5.31472v-3.06482z" data-paper-data="{&quot;index&quot;:null}" fill="#000000" stroke="#333333" stroke-width="0" stroke-linecap="butt"/><path d="M270.57104,308.81727v3.06482h-5.31472v-3.06482z" data-paper-data="{&quot;index&quot;:null}" fill="#000000" stroke="#333333" stroke-width="0" stroke-linecap="butt"/><path d="M282.7476,308.96013v3.06482h-5.31472v-3.06482z" data-paper-data="{&quot;index&quot;:null}" fill="#000000" stroke="#333333" stroke-width="0" stroke-linecap="butt"/><path d="M294.65877,308.603v3.06482h-5.31472v-3.06482z" data-paper-data="{&quot;index&quot;:null}" fill="#000000" stroke="#333333" stroke-width="0" stroke-linecap="butt"/><path d="M305.99431,309.07441v3.06482h-5.31472v-3.06482z" data-paper-data="{&quot;index&quot;:null}" fill="#000000" stroke="#333333" stroke-width="0" stroke-linecap="butt"/><path d="M153.89115,314.00835h-3.05634h158.97857h-2.90985" fill="none" stroke="#141414" stroke-width="3" stroke-linecap="round"/></g><g><path d="M63.71606,308.59942v3.06481h-5.31471v-3.06481z" data-paper-data="{&quot;index&quot;:null}" fill="#000000" stroke="#333333" stroke-width="0" stroke-linecap="butt"/><path d="M75.34565,308.57441v3.06482h-5.31471v-3.06482z" data-paper-data="{&quot;index&quot;:null}" fill="#000000" stroke="#333333" stroke-width="0" stroke-linecap="butt"/><path d="M89.37521,308.61602v3.06481h-5.31471v-3.06481z" data-paper-data="{&quot;index&quot;:null}" fill="#000000" stroke="#333333" stroke-width="0" stroke-linecap="butt"/><path d="M101.8905,308.57441v3.06482h-5.31472v-3.06482z" data-paper-data="{&quot;index&quot;:null}" fill="#000000" stroke="#333333" stroke-width="0" stroke-linecap="butt"/><path d="M114.38132,308.69941v3.06482h-5.31472v-3.06482z" data-paper-data="{&quot;index&quot;:null}" fill="#000000" stroke="#333333" stroke-width="0" stroke-linecap="butt"/><path d="M124.72105,308.4672v3.06482h-5.31472v-3.06482z" data-paper-data="{&quot;index&quot;:null}" fill="#000000" stroke="#333333" stroke-width="0" stroke-linecap="butt"/><path d="M137.49758,308.73516v3.06482h-5.31472v-3.06482z" data-paper-data="{&quot;index&quot;:null}" fill="#000000" stroke="#333333" stroke-width="0" stroke-linecap="butt"/><path d="M149.40875,308.75295v3.06482h-5.31472v-3.06482z" data-paper-data="{&quot;index&quot;:null}" fill="#000000" stroke="#333333" stroke-width="0" stroke-linecap="butt"/><path d="M160.74431,309.19941v3.06482h-5.31472v-3.06482z" data-paper-data="{&quot;index&quot;:null}" fill="#000000" stroke="#333333" stroke-width="0" stroke-linecap="butt"/><path d="M61.39115,314.13335h-6.9275h110.09973h-2.90985" fill="none" stroke="#141414" stroke-width="3" stroke-linecap="round"/></g><g stroke="#000000" stroke-linecap="butt"><path d="M345.09631,268.80023c0,-17.50052 14.18698,-31.6875 31.6875,-31.6875c17.50052,0 31.6875,14.18698 31.6875,31.6875c0,17.50053 -14.18698,31.6875 -31.6875,31.6875c-17.50052,0 -31.6875,-14.18697 -31.6875,-31.6875z" fill="url(#color-14)" stroke-width="0"/><path d="M379.49247,276.97152v3.95204h-4.89971v-3.95204z" fill="#323324" stroke-width="1"/><path d="M377.10381,262.93279c0.33907,-0.45842 0.61784,2.04462 0.59166,2.929c-0.02344,0.79161 0.15883,1.49602 0.08386,2.08609c-0.01159,0.09117 0.10472,1.05691 0.17785,1.32572c0.01914,0.07037 0.54694,-1.26689 0.95195,-1.85811c0.2366,-0.34539 0.5058,-0.39572 0.66246,-0.23831c0.1196,0.12018 0.18793,0.35164 0.22265,0.64319c0.08859,0.74399 -0.04165,1.87931 -0.09694,2.55555c-0.04857,0.59401 -0.02254,1.22305 -0.20004,1.78245c-0.1775,0.5594 -0.83204,1.58019 -0.88234,1.6286c-0.144,0.13859 -1.16059,0.63963 -1.31734,0.63963c-0.26598,0 -0.73816,-0.07472 -1.01281,-0.19919c-0.21345,-0.09674 -1.36238,-0.6838 -1.76552,-1.65358c-0.48287,-1.1616 -1.0065,-2.98487 -1.10044,-3.28986c-0.06579,-0.21361 -0.02559,-3.17825 0.48151,-2.62096c0.53012,0.58259 2.1685,4.07417 2.13903,3.7559c-0.01779,-0.1921 -0.37593,-2.0437 -0.20391,-3.89963c0.12984,-1.40087 0.67184,-2.77999 1.26839,-3.58649z" fill="url(#color-15)" stroke-width="0.75"/><path d="M376.3491,278.92577v-4.66593h1.23858v4.66593z" fill="#311800" stroke-width="0.75"/></g><g stroke="#000000" stroke-linecap="butt"><path d="M127.59631,265.80023c0,-17.50052 14.18698,-31.6875 31.6875,-31.6875c17.50052,0 31.6875,14.18698 31.6875,31.6875c0,17.50053 -14.18698,31.6875 -31.6875,31.6875c-17.50052,0 -31.6875,-14.18697 -31.6875,-31.6875z" fill="url(#color-16)" stroke-width="0"/><path d="M161.99248,273.97152v3.95204h-4.89971v-3.95204z" fill="#323324" stroke-width="1"/><path d="M159.60381,259.93279c0.33907,-0.45842 0.61784,2.04462 0.59166,2.929c-0.02344,0.79161 0.15883,1.49602 0.08386,2.08609c-0.01159,0.09117 0.10472,1.05691 0.17785,1.32572c0.01914,0.07037 0.54694,-1.26689 0.95195,-1.85811c0.2366,-0.34539 0.5058,-0.39572 0.66246,-0.23831c0.1196,0.12018 0.18793,0.35164 0.22265,0.64319c0.08859,0.74399 -0.04165,1.87931 -0.09694,2.55555c-0.04857,0.59401 -0.02254,1.22305 -0.20004,1.78245c-0.1775,0.5594 -0.83204,1.58019 -0.88234,1.6286c-0.144,0.13859 -1.16059,0.63963 -1.31734,0.63963c-0.26598,0 -0.73816,-0.07472 -1.01281,-0.19919c-0.21345,-0.09674 -1.36238,-0.6838 -1.76552,-1.65358c-0.48287,-1.1616 -1.0065,-2.98487 -1.10044,-3.28986c-0.06579,-0.21361 -0.02559,-3.17825 0.48151,-2.62096c0.53012,0.58259 2.1685,4.07417 2.13903,3.7559c-0.01779,-0.1921 -0.37593,-2.0437 -0.20391,-3.89963c0.12984,-1.40087 0.67184,-2.77999 1.26839,-3.58649z" fill="url(#color-17)" stroke-width="0.75"/><path d="M158.84909,275.92577v-4.66593h1.23858v4.66593z" fill="#311800" stroke-width="0.75"/></g><path d="M483.60591,35.4637v18.0119h-110.15467v-18.0119z" data-paper-data="{&quot;index&quot;:null}" fill="url(#color-18)" stroke="none" stroke-width="0" stroke-linecap="butt"/><path d="M355.80834,53.39233h18.0119v168.44038h-18.0119z" data-paper-data="{&quot;index&quot;:null}" fill="url(#color-19)" stroke="none" stroke-width="0" stroke-linecap="butt"/><path d="M374.03448,203.46373v18.0119h-233.72609v-18.0119z" data-paper-data="{&quot;index&quot;:null}" fill="url(#color-20)" stroke="none" stroke-width="0" stroke-linecap="butt"/><path d="M158.82024,221.83271h-18.0119v-92.60705h18.0119z" data-paper-data="{&quot;index&quot;:null}" fill="url(#color-21)" stroke="none" stroke-width="0" stroke-linecap="butt"/><path d="M140.93598,111.34141v18.0119h-50.1525v-18.0119z" data-paper-data="{&quot;index&quot;:null}" fill="url(#color-22)" stroke="none" stroke-width="0" stroke-linecap="butt"/><path d="M90.811,35.46642v18.0119h-116.0275v-18.0119z" data-paper-data="{&quot;index&quot;:null}" fill="url(#color-23)" stroke="none" stroke-width="0" stroke-linecap="butt"/><path d="M484.57091,323.16604h-18.0119v-211.22609h18.0119z" data-paper-data="{&quot;index&quot;:null}" fill="url(#color-24)" stroke="none" stroke-width="0" stroke-linecap="butt"/><path d="M466.36858,129.97562v-18.0119h17.22609v18.0119z" data-paper-data="{&quot;index&quot;:null}" fill="url(#color-25)" stroke="none" stroke-width="0" stroke-linecap="butt"/><path d="M46.68525,341.2923v-18.0119h419.82609v18.0119z" data-paper-data="{&quot;index&quot;:null}" fill="url(#color-26)" stroke="none" stroke-width="0" stroke-linecap="butt"/><path d="M29.09234,224.73044h18.0119v98.46895h-18.0119z" data-paper-data="{&quot;index&quot;:null}" fill="url(#color-27)" stroke="none" stroke-width="0" stroke-linecap="butt"/><path d="M14.06382,242.77086v-18.0119h33.06895v18.0119z" data-paper-data="{&quot;index&quot;:null}" fill="url(#color-28)" stroke="none" stroke-width="0" stroke-linecap="butt"/><path d="M-3.80766,141.43043h18.0119v83.26894h-18.0119z" data-paper-data="{&quot;index&quot;:null}" fill="url(#color-29)" stroke="none" stroke-width="0" stroke-linecap="butt"/><path d="M-29.63618,159.07085v-18.0119h44.06895v18.01191z" data-paper-data="{&quot;index&quot;:null}" fill="url(#color-30)" stroke="none" stroke-width="0" stroke-linecap="butt"/><path d="M108.32024,129.58265h-18.0119v-76.35705h18.0119z" data-paper-data="{&quot;index&quot;:null}" fill="url(#color-31)" stroke="none" stroke-width="0" stroke-linecap="butt"/><path d="M206.60364,249.85698l-3.56456,-4.12665l3.56456,-4.37335h16.35542l3.5,1.75l4,-1.75h74l3.75,2l3.5,-2h17.10802l3.05534,4.5913l-3.05534,3.9087z" fill="#131313" stroke="#0a0a0a" stroke-width="2.5" stroke-linecap="butt"/><path d="M209.11434,245.65304l7.37581,-7.37581l7.37581,7.37581l-7.37581,7.37581z" fill="#23053e" stroke="#0a0a0a" stroke-width="2" stroke-linecap="butt"/><path d="M229.86434,245.65304l7.3758,-7.37581l7.3758,7.37581l-7.3758,7.3758z" fill="#23053e" stroke="#0a0a0a" stroke-width="2" stroke-linecap="butt"/><path d="M250.11434,245.65304l7.3758,-7.37581l7.3758,7.37581l-7.3758,7.3758z" fill="#23053e" stroke="#0a0a0a" stroke-width="2" stroke-linecap="butt"/><path d="M270.86435,245.65304l7.3758,-7.37581l7.37581,7.37581l-7.37581,7.3758z" fill="#23053e" stroke="#0a0a0a" stroke-width="2" stroke-linecap="butt"/><path d="M290.11435,245.65304l7.37581,-7.37581l7.3758,7.37581l-7.3758,7.3758z" fill="#23053e" stroke="#0a0a0a" stroke-width="2" stroke-linecap="butt"/><path d="M310.86435,245.31971l7.37581,-7.37581l7.3758,7.37581l-7.3758,7.3758z" fill="#23053e" stroke="#0a0a0a" stroke-width="2" stroke-linecap="butt"/></g></g></svg>