<svg version="1.1" xmlns="http://www.w3.org/2000/svg" xmlns:xlink="http://www.w3.org/1999/xlink" width="46.10196" height="46.10196" viewBox="0,0,46.10196,46.10196"><defs><radialGradient cx="240" cy="180" r="23.05098" gradientUnits="userSpaceOnUse" id="color-1"><stop offset="0" stop-color="#7f0000"/><stop offset="1" stop-color="#7f0000" stop-opacity="0"/></radialGradient></defs><g transform="translate(-216.94902,-156.94902)"><g data-paper-data="{&quot;isPaintingLayer&quot;:true}" fill-rule="nonzero" stroke-linejoin="miter" stroke-miterlimit="10" stroke-dasharray="" stroke-dashoffset="0" style="mix-blend-mode: normal"><path d="M216.94902,180c0,-12.73071 10.32027,-23.05098 23.05098,-23.05098c12.73071,0 23.05098,10.32027 23.05098,23.05098c0,12.73071 -10.32027,23.05098 -23.05098,23.05098c-12.73071,0 -23.05098,-10.32027 -23.05098,-23.05098z" data-paper-data="{&quot;index&quot;:null}" fill="url(#color-1)" stroke="none" stroke-width="NaN" stroke-linecap="butt"/><g data-paper-data="{&quot;index&quot;:null}" fill="none"><g stroke="#000000" stroke-width="6"><path d="M236.36283,182.55838c0,0 0,-7.58215 0,-10.92548c0,-2.11995 1.33358,-3.33094 2.79798,-3.33094c1.66345,0 6.66188,0 6.66188,0" stroke-linecap="round"/><path d="M234.09779,187.08845c0,-2.57548 2.08784,-4.66331 4.66332,-4.66331c2.57547,0 4.66331,2.08783 4.66331,4.66331c0,2.57548 -2.08783,4.66332 -4.66331,4.66332c-2.57548,-0.00001 -4.66332,-2.08784 -4.66332,-4.66332z" stroke-linecap="butt"/><path d="M238.22815,175.63003h6.52864" stroke-linecap="round"/></g><g stroke="#ff0000" stroke-width="3.5"><path d="M236.44234,182.50465c0,0 0,-7.58215 0,-10.92548c0,-2.11995 1.33359,-3.33094 2.79799,-3.33094c1.66345,0 6.66188,0 6.66188,0" stroke-linecap="round"/><path d="M234.17729,187.03472c0,-2.57548 2.08784,-4.66332 4.66332,-4.66332c2.57548,0 4.66332,2.08784 4.66332,4.66332c0,2.57548 -2.08784,4.66332 -4.66332,4.66332c-2.57548,0 -4.66332,-2.08784 -4.66332,-4.66332z" stroke-linecap="butt"/><path d="M238.30767,175.5763h6.52864" stroke-linecap="round"/></g></g></g></g></svg>