<svg version="1.1" xmlns="http://www.w3.org/2000/svg" xmlns:xlink="http://www.w3.org/1999/xlink" width="482.1893" height="361.5" viewBox="0,0,482.1893,361.5"><g transform="translate(1.89425,0.5)"><g data-paper-data="{&quot;isPaintingLayer&quot;:true}" fill-rule="nonzero" stroke-linejoin="miter" stroke-miterlimit="10" stroke-dasharray="" stroke-dashoffset="0" style="mix-blend-mode: normal"><path d="M427.25868,290.25v-78.33333l52.7928,-0.16667v78.5z" data-paper-data="{&quot;index&quot;:null}" fill="#000000" stroke="none" stroke-width="0" stroke-linecap="butt"/><path d="M288.48149,359v-71h191.62041v71z" data-paper-data="{&quot;index&quot;:null}" fill="#000000" stroke="none" stroke-width="0" stroke-linecap="butt"/><path d="M387.85458,176.25v-111h92.19048v111z" data-paper-data="{&quot;index&quot;:null}" fill="#000000" stroke="#000000" stroke-width="0.5" stroke-linecap="butt"/><path d="M-1.89424,66.5v-67h481.98991v67z" data-paper-data="{&quot;index&quot;:null}" fill="#000000" stroke="none" stroke-width="0" stroke-linecap="butt"/><path d="M-1.8494,287.5v-222.5h54.99884v222.5z" fill="#000000" stroke="none" stroke-width="0" stroke-linecap="butt"/><path d="M-1.85352,361v-75h212.67078v75z" fill="#000000" stroke="none" stroke-width="0" stroke-linecap="butt"/><path d="M394.72883,288.75v-33h33v33z" fill="#000000" stroke="none" stroke-width="0" stroke-linecap="butt"/><path d="M288.53819,288.11575l-67.17514,-67.17514c0,0 0.47228,-9.47228 2.90317,-11.90317c2.72164,-2.72164 12.31984,-3.31984 12.31984,-3.31984l67.50847,66.84181z" fill="#000000" stroke="none" stroke-width="0" stroke-linecap="butt"/><path d="M286.41632,279.41666c0,-10.0792 8.1708,-18.25 18.25,-18.25c10.0792,0 18.25,8.1708 18.25,18.25c0,10.0792 -8.1708,18.25 -18.25,18.25c-10.0792,0 -18.25,-8.1708 -18.25,-18.25z" fill="#000000" stroke="none" stroke-width="0" stroke-linecap="butt"/><path d="M255.41633,228.16666l188.5,60" fill="none" stroke="#000000" stroke-width="5" stroke-linecap="round"/><path d="M253.69534,225.71633l11.37242,-37.30507l37.30507,11.37242l-11.37242,37.30507z" fill="#000000" stroke="#000000" stroke-width="0.5" stroke-linecap="butt"/><path d="M342.91633,160.83334v-12h45.5v12z" fill="#000000" stroke="none" stroke-width="0" stroke-linecap="butt"/><path d="M50.91633,287.16667v-45.5h67v45.5z" fill="#000000" stroke="none" stroke-width="0" stroke-linecap="butt"/><path d="M166.16825,287.16666v-19h44.5v19z" fill="#000000" stroke="none" stroke-width="0" stroke-linecap="butt"/><path d="M255.47922,360.09148v-34h34v34z" fill="#000000" stroke="none" stroke-width="0" stroke-linecap="butt"/><path d="M94.58535,198.33333c0,0 -1.83568,-5.45955 -1.83568,-8.25c0,-2.87377 1.83568,-8.75 1.83568,-8.75h128.99766l-0.06995,17z" fill="#000000" stroke="none" stroke-width="0" stroke-linecap="butt"/><path d="M223.26264,206.17706v-90.16667h39v90.16667z" fill="#000000" stroke="#000000" stroke-width="0" stroke-linecap="butt"/></g></g></svg>