<svg version="1.1" xmlns="http://www.w3.org/2000/svg" xmlns:xlink="http://www.w3.org/1999/xlink" width="524.83882" height="532.1879" viewBox="0,0,524.83882,532.1879"><defs><radialGradient cx="189.6376" cy="219.14843" r="31.6875" gradientUnits="userSpaceOnUse" id="color-1"><stop offset="0" stop-color="#1494cc"/><stop offset="1" stop-color="#1494cc" stop-opacity="0"/></radialGradient><linearGradient x1="190.15138" y1="220.25431" x2="190.15138" y2="223.63366" gradientUnits="userSpaceOnUse" id="color-2"><stop offset="0" stop-color="#00b2ff"/><stop offset="1" stop-color="#1000ff"/></linearGradient><radialGradient cx="430.63759" cy="298.14848" r="31.6875" gradientUnits="userSpaceOnUse" id="color-3"><stop offset="0" stop-color="#1494cc"/><stop offset="1" stop-color="#1494cc" stop-opacity="0"/></radialGradient><linearGradient x1="431.15137" y1="299.25434" x2="431.15137" y2="302.63371" gradientUnits="userSpaceOnUse" id="color-4"><stop offset="0" stop-color="#00b2ff"/><stop offset="1" stop-color="#1000ff"/></linearGradient><radialGradient cx="300.63759" cy="219.14848" r="31.6875" gradientUnits="userSpaceOnUse" id="color-5"><stop offset="0" stop-color="#1494cc"/><stop offset="1" stop-color="#1494cc" stop-opacity="0"/></radialGradient><linearGradient x1="301.15137" y1="220.25433" x2="301.15137" y2="223.6337" gradientUnits="userSpaceOnUse" id="color-6"><stop offset="0" stop-color="#00b2ff"/><stop offset="1" stop-color="#1000ff"/></linearGradient><radialGradient cx="144.6376" cy="106.14846" r="31.6875" gradientUnits="userSpaceOnUse" id="color-7"><stop offset="0" stop-color="#1494cc"/><stop offset="1" stop-color="#1494cc" stop-opacity="0"/></radialGradient><linearGradient x1="145.15138" y1="107.25431" x2="145.15138" y2="110.63369" gradientUnits="userSpaceOnUse" id="color-8"><stop offset="0" stop-color="#00b2ff"/><stop offset="1" stop-color="#1000ff"/></linearGradient><radialGradient cx="374.6376" cy="106.14846" r="31.6875" gradientUnits="userSpaceOnUse" id="color-9"><stop offset="0" stop-color="#1494cc"/><stop offset="1" stop-color="#1494cc" stop-opacity="0"/></radialGradient><linearGradient x1="375.15138" y1="107.25431" x2="375.15138" y2="110.63369" gradientUnits="userSpaceOnUse" id="color-10"><stop offset="0" stop-color="#00b2ff"/><stop offset="1" stop-color="#1000ff"/></linearGradient></defs><g transform="translate(40.91161,96.00588)"><g data-paper-data="{&quot;isPaintingLayer&quot;:true}" fill-rule="nonzero" stroke-linecap="butt" stroke-linejoin="miter" stroke-miterlimit="10" stroke-dasharray="" stroke-dashoffset="0" style="mix-blend-mode: normal"><path d="M208.22722,328.73762v-142h131.2v142z" fill="#0b0b0b" stroke="none" stroke-width="0"/><g stroke="#000000"><path d="M157.95009,219.14843c0,-17.50052 14.18698,-31.6875 31.6875,-31.6875c17.50052,0 31.6875,14.18698 31.6875,31.6875c0,17.50053 -14.18698,31.6875 -31.6875,31.6875c-17.50052,0 -31.6875,-14.18697 -31.6875,-31.6875z" fill="url(#color-1)" stroke-width="0"/><path d="M192.34621,226.31972v3.95204h-4.89971v-3.95204z" fill="#323324" stroke-width="1"/><g stroke-width="0.75"><path d="M189.95762,212.281c0.33907,-0.45842 0.61784,2.04462 0.59166,2.929c-0.02344,0.79161 0.15883,1.49602 0.08386,2.08609c-0.01159,0.09117 0.10472,1.05691 0.17785,1.32572c0.01914,0.07037 0.54694,-1.26689 0.95195,-1.85811c0.2366,-0.34539 0.5058,-0.39572 0.66246,-0.23831c0.1196,0.12018 0.18793,0.35164 0.22265,0.64319c0.08859,0.74399 -0.04165,1.87931 -0.09694,2.55555c-0.04857,0.59401 -0.02254,1.22305 -0.20004,1.78245c-0.1775,0.5594 -0.83204,1.58019 -0.88234,1.6286c-0.144,0.13859 -1.16059,0.63963 -1.31734,0.63963c-0.26598,0 -0.73816,-0.07472 -1.01281,-0.19919c-0.21345,-0.09674 -1.36238,-0.6838 -1.76552,-1.65358c-0.48287,-1.1616 -1.0065,-2.98487 -1.10044,-3.28986c-0.06579,-0.21361 -0.02559,-3.17825 0.48151,-2.62096c0.53012,0.58259 2.1685,4.07417 2.13903,3.7559c-0.01779,-0.1921 -0.37593,-2.0437 -0.20391,-3.89963c0.12984,-1.40087 0.67184,-2.77999 1.26839,-3.58649z" fill="url(#color-2)"/><path d="M189.20287,228.27397v-4.66593h1.23858v4.66593z" fill="#311800"/></g></g><g stroke="#000000"><path d="M398.95009,298.14848c0,-17.50052 14.18698,-31.6875 31.6875,-31.6875c17.50052,0 31.6875,14.18698 31.6875,31.6875c0,17.50053 -14.18698,31.6875 -31.6875,31.6875c-17.50052,0 -31.6875,-14.18697 -31.6875,-31.6875z" fill="url(#color-3)" stroke-width="0"/><path d="M433.34621,305.3198v3.95204h-4.89971v-3.95204z" fill="#323324" stroke-width="1"/><g stroke-width="0.75"><path d="M430.95761,291.281c0.33907,-0.45842 0.61784,2.04462 0.59166,2.929c-0.02344,0.79161 0.15883,1.49602 0.08386,2.08609c-0.01159,0.09117 0.10472,1.05691 0.17785,1.32572c0.01914,0.07037 0.54694,-1.26689 0.95195,-1.85811c0.2366,-0.34539 0.5058,-0.39572 0.66246,-0.23831c0.1196,0.12018 0.18793,0.35164 0.22265,0.64319c0.08859,0.74399 -0.04165,1.87931 -0.09694,2.55555c-0.04857,0.59401 -0.02254,1.22305 -0.20004,1.78245c-0.1775,0.5594 -0.83204,1.58019 -0.88234,1.6286c-0.144,0.13859 -1.16059,0.63963 -1.31734,0.63963c-0.26598,0 -0.73816,-0.07472 -1.01281,-0.19919c-0.21345,-0.09674 -1.36238,-0.6838 -1.76552,-1.65358c-0.48287,-1.1616 -1.0065,-2.98487 -1.10044,-3.28986c-0.06579,-0.21361 -0.02559,-3.17825 0.48151,-2.62096c0.53012,0.58259 2.1685,4.07417 2.13903,3.7559c-0.01779,-0.1921 -0.37593,-2.0437 -0.20391,-3.89963c0.12984,-1.40087 0.67184,-2.77999 1.26839,-3.58649z" fill="url(#color-4)"/><path d="M430.20286,307.27405v-4.66593h1.23858v4.66593z" fill="#311800"/></g></g><path d="M-2.09187,436.18202v-87.38135h485v87.38135z" fill="#000000" stroke="none" stroke-width="0"/><path d="M228.82722,356.73769v-24h112v24z" fill="#000000" stroke="none" stroke-width="0"/><path d="M428.37165,175.24582v-130.63063h55.55556v130.63063z" fill="#000000" stroke="none" stroke-width="0"/><path d="M96.53981,52.12269v-148.12857h387.38739v148.12857z" fill="#000000" stroke="none" stroke-width="0"/><path d="M-5.56229,259.10231v-348.47996h103.6036v348.47996z" fill="#000000" stroke="none" stroke-width="0"/><path d="M-39.62394,271.45475v-12.42564h49.74445v12.42564z" data-paper-data="{&quot;index&quot;:null}" fill="#141619" stroke="#000000" stroke-width="2.5"/><path d="M-14.62391,284.03717v-12.42564h49.74444v12.42564z" data-paper-data="{&quot;index&quot;:null}" fill="#141619" stroke="#000000" stroke-width="2.5"/><path d="M10.1999,271.6166v-12.42564h49.74444v12.42564z" data-paper-data="{&quot;index&quot;:null}" fill="#141619" stroke="#000000" stroke-width="2.5"/><path d="M84.87383,271.57849v12.42564h-49.74444v-12.42564z" data-paper-data="{&quot;index&quot;:null}" fill="#141619" stroke="#000000" stroke-width="2.5"/><path d="M-39.66161,350.39076v-12.42564h49.74445v12.42564z" data-paper-data="{&quot;index&quot;:null}" fill="#141619" stroke="#000000" stroke-width="2.5"/><path d="M-14.66159,362.8193v-12.42564h49.74444v12.42564z" data-paper-data="{&quot;index&quot;:null}" fill="#141619" stroke="#000000" stroke-width="2.5"/><path d="M10.16222,350.39873v-12.42564h49.74444v12.42564z" data-paper-data="{&quot;index&quot;:null}" fill="#141619" stroke="#000000" stroke-width="2.5"/><path d="M109.65998,337.93991v12.42564h-49.74444v-12.42564z" data-paper-data="{&quot;index&quot;:null}" fill="#141619" stroke="#000000" stroke-width="2.5"/><path d="M84.83615,350.36062v12.42564h-49.74444v-12.42564z" data-paper-data="{&quot;index&quot;:null}" fill="#141619" stroke="#000000" stroke-width="2.5"/><path d="M134.53985,350.38655v12.42564h-49.74445v-12.42564z" data-paper-data="{&quot;index&quot;:null}" fill="#141619" stroke="#000000" stroke-width="2.5"/><path d="M159.53987,337.95801v12.42564h-49.74444v-12.42564z" data-paper-data="{&quot;index&quot;:null}" fill="#141619" stroke="#000000" stroke-width="2.5"/><path d="M184.36369,350.37858v12.42564h-49.74444v-12.42564z" data-paper-data="{&quot;index&quot;:null}" fill="#141619" stroke="#000000" stroke-width="2.5"/><path d="M159.54871,350.40573v-12.42564h49.74444v12.42564z" data-paper-data="{&quot;index&quot;:null}" fill="#141619" stroke="#000000" stroke-width="2.5"/><path d="M184.47251,362.78528v-12.42564h24.83334v12.42564z" fill="#141619" stroke="#000000" stroke-width="2.5"/><path d="M209.28629,337.98012h24.83333c0,0 0,16.70302 0,20.73972c0,1.5785 -2.18713,4.09362 -3.94272,4.09362c-4.16748,0 -20.89061,0 -20.89061,0z" data-paper-data="{&quot;index&quot;:null}" fill="#060709" stroke="#000000" stroke-width="2.5"/><path d="M60.09731,271.58074v-12.42564h24.83334v12.42564z" fill="#141619" stroke="#000000" stroke-width="2.5"/><path d="M84.94042,259.14986h24.83333c0,0 0,16.70302 0,20.73972c0,1.5785 -2.18713,4.09362 -3.94272,4.09362c-4.16748,0 -20.89061,0 -20.89061,0z" data-paper-data="{&quot;index&quot;:null}" fill="#060709" stroke="#000000" stroke-width="2.5"/><path d="M234.10016,263.14866v12.42564h-24.83334v-12.42564z" data-paper-data="{&quot;index&quot;:null}" fill="#141619" stroke="#000000" stroke-width="2.5"/><path d="M234.10016,250.71541v12.42564h-24.83334v-12.42564z" data-paper-data="{&quot;index&quot;:null}" fill="#141619" stroke="#000000" stroke-width="2.5"/><path d="M209.28044,337.98402v-12.42564h124.08334v12.42564z" fill="#141619" stroke="#000000" stroke-width="2.5"/><path d="M234.08683,188.39244v12.42564h-24.83334v-12.42564z" data-paper-data="{&quot;index&quot;:null}" fill="#141619" stroke="#000000" stroke-width="2.5"/><path d="M209.26256,250.69273v-12.42564h24.83334v12.42564z" fill="#141619" stroke="#000000" stroke-width="2.5"/><path d="M333.60732,163.55766v12.42564h-49.74444v-12.42564z" data-paper-data="{&quot;index&quot;:null}" fill="#141619" stroke="#000000" stroke-width="2.5"/><path d="M308.7835,175.97838v12.42564h-49.74444v-12.42564z" data-paper-data="{&quot;index&quot;:null}" fill="#141619" stroke="#000000" stroke-width="2.5"/><path d="M234.10958,176.00553v-12.42564h49.74444v12.42564z" data-paper-data="{&quot;index&quot;:null}" fill="#141619" stroke="#000000" stroke-width="2.5"/><path d="M234.0969,188.3851v-12.42564h24.83334v12.42564z" data-paper-data="{&quot;index&quot;:null}" fill="#141619" stroke="#000000" stroke-width="2.5"/><path d="M234.11646,188.38985h-24.83333c0,0 0,-16.70302 0,-20.73972c0,-1.5785 2.18713,-4.09362 3.94272,-4.09362c4.16748,0 20.89061,0 20.89061,0z" data-paper-data="{&quot;index&quot;:null}" fill="#060709" stroke="#000000" stroke-width="2.5"/><path d="M308.76791,188.41382v-12.42564h24.83334v12.42564z" data-paper-data="{&quot;index&quot;:null}" fill="#141619" stroke="#000000" stroke-width="2.5"/><path d="M333.62307,163.55086c0,0 16.72313,0 20.89061,0c1.75559,0 3.94272,2.51512 3.94272,4.09362c0,4.0367 0,20.73972 0,20.73972h-24.83333z" data-paper-data="{&quot;index&quot;:null}" fill="#060709" stroke="#000000" stroke-width="2.5"/><path d="M457.93681,325.77306v12.42564h-49.74444v-12.42564z" data-paper-data="{&quot;index&quot;:null}" fill="#141619" stroke="#000000" stroke-width="2.5"/><path d="M433.11299,338.05086v12.42564h-49.74444v-12.42564z" data-paper-data="{&quot;index&quot;:null}" fill="#141619" stroke="#000000" stroke-width="2.5"/><path d="M358.43907,338.07801v-12.42564h49.74444v12.42564z" data-paper-data="{&quot;index&quot;:null}" fill="#141619" stroke="#000000" stroke-width="2.5"/><path d="M358.42639,350.45757v-12.42564h24.83334v12.42564z" data-paper-data="{&quot;index&quot;:null}" fill="#141619" stroke="#000000" stroke-width="2.5"/><path d="M358.44595,350.46968c0,0 -16.72313,0 -20.89061,0c-1.75559,0 -3.94272,-2.51512 -3.94272,-4.09362c0,-4.0367 0,-20.73972 0,-20.73972h24.83333z" data-paper-data="{&quot;index&quot;:null}" fill="#060709" stroke="#000000" stroke-width="2.5"/><path d="M358.46542,275.68111v12.42564h-49.58334v-12.42564z" data-paper-data="{&quot;index&quot;:null}" fill="#141619" stroke="#000000" stroke-width="2.5"/><path d="M384.38208,263.20493v12.42564h-50.75v-12.42564z" data-paper-data="{&quot;index&quot;:null}" fill="#141619" stroke="#000000" stroke-width="2.5"/><path d="M358.46542,250.77162v12.42564h-24.83334v-12.42564z" data-paper-data="{&quot;index&quot;:null}" fill="#141619" stroke="#000000" stroke-width="2.5"/><path d="M333.63885,300.59569v-12.42564h24.83334v12.42564z" data-paper-data="{&quot;index&quot;:null}" fill="#141619" stroke="#000000" stroke-width="2.5"/><path d="M333.623,313.07187v-12.42564h24.83334v12.42564z" data-paper-data="{&quot;index&quot;:null}" fill="#141619" stroke="#000000" stroke-width="2.5"/><path d="M333.61846,325.56399v-12.42564h24.83334v12.42564z" data-paper-data="{&quot;index&quot;:null}" fill="#141619" stroke="#000000" stroke-width="2.5"/><path d="M325.64541,213.36321v-12.42564h24.83334v12.42564z" data-paper-data="{&quot;index&quot;:null}" fill="#141619" stroke="#000000" stroke-width="2.5"/><path d="M329.64541,225.83939v-12.42564h24.83334v12.42564z" data-paper-data="{&quot;index&quot;:null}" fill="#141619" stroke="#000000" stroke-width="2.5"/><path d="M333.64541,238.2727v-12.42564h24.83334v12.42564z" data-paper-data="{&quot;index&quot;:null}" fill="#141619" stroke="#000000" stroke-width="2.5"/><path d="M354.48552,188.44863v12.42564h-24.83334v-12.42564z" data-paper-data="{&quot;index&quot;:null}" fill="#141619" stroke="#000000" stroke-width="2.5"/><path d="M333.63633,250.7489v-12.42564h24.83334v12.42564z" data-paper-data="{&quot;index&quot;:null}" fill="#141619" stroke="#000000" stroke-width="2.5"/><path d="M109.809,196.80585v12.42564h-24.83334v-12.42564z" data-paper-data="{&quot;index&quot;:null}" fill="#141619" stroke="#000000" stroke-width="2.5"/><path d="M109.809,171.89635v12.42564h-24.83334v-12.42564z" data-paper-data="{&quot;index&quot;:null}" fill="#141619" stroke="#000000" stroke-width="2.5"/><path d="M84.98244,221.72043v-12.42564h24.83334v12.42564z" data-paper-data="{&quot;index&quot;:null}" fill="#141619" stroke="#000000" stroke-width="2.5"/><path d="M84.96204,259.1649v-12.42564h50.08334v12.42564z" data-paper-data="{&quot;index&quot;:null}" fill="#141619" stroke="#000000" stroke-width="2.5"/><path d="M109.82233,134.48288v12.42564h-24.83334v-12.42564z" data-paper-data="{&quot;index&quot;:null}" fill="#141619" stroke="#000000" stroke-width="2.5"/><path d="M109.82233,122.00671v12.42564h-24.83334v-12.42564z" data-paper-data="{&quot;index&quot;:null}" fill="#141619" stroke="#000000" stroke-width="2.5"/><path d="M109.82233,109.57339v12.42564h-24.83334v-12.42564z" data-paper-data="{&quot;index&quot;:null}" fill="#141619" stroke="#000000" stroke-width="2.5"/><path d="M84.99577,159.39746v-12.42564h24.83334v12.42564z" data-paper-data="{&quot;index&quot;:null}" fill="#141619" stroke="#000000" stroke-width="2.5"/><path d="M84.97992,171.87367v-12.42564h24.83334v12.42564z" data-paper-data="{&quot;index&quot;:null}" fill="#141619" stroke="#000000" stroke-width="2.5"/><path d="M109.84164,72.15332v12.42564h-24.83334v-12.42564z" data-paper-data="{&quot;index&quot;:null}" fill="#141619" stroke="#000000" stroke-width="2.5"/><path d="M85.01508,97.068v-12.42564h24.83334v12.42564z" data-paper-data="{&quot;index&quot;:null}" fill="#141619" stroke="#000000" stroke-width="2.5"/><path d="M84.99923,109.54419v-12.42564h24.83334v12.42564z" data-paper-data="{&quot;index&quot;:null}" fill="#141619" stroke="#000000" stroke-width="2.5"/><path d="M358.77517,59.68617v12.42564h-49.74445v-12.42564z" data-paper-data="{&quot;index&quot;:null}" fill="#141619" stroke="#000000" stroke-width="2.5"/><path d="M333.77515,47.25763v12.42564h-49.74444v-12.42564z" data-paper-data="{&quot;index&quot;:null}" fill="#141619" stroke="#000000" stroke-width="2.5"/><path d="M308.95133,59.6782v12.42564h-49.74444v-12.42564z" data-paper-data="{&quot;index&quot;:null}" fill="#141619" stroke="#000000" stroke-width="2.5"/><path d="M209.45358,72.13693v-12.42564h49.74444v12.42564z" data-paper-data="{&quot;index&quot;:null}" fill="#141619" stroke="#000000" stroke-width="2.5"/><path d="M234.27741,59.71632v-12.42564h49.74444v12.42564z" data-paper-data="{&quot;index&quot;:null}" fill="#141619" stroke="#000000" stroke-width="2.5"/><path d="M184.5737,59.69038v-12.42564h49.74445v12.42564z" data-paper-data="{&quot;index&quot;:null}" fill="#141619" stroke="#000000" stroke-width="2.5"/><path d="M159.57369,72.11884v-12.42564h49.74444v12.42564z" data-paper-data="{&quot;index&quot;:null}" fill="#141619" stroke="#000000" stroke-width="2.5"/><path d="M134.74987,59.69835v-12.42564h49.74444v12.42564z" data-paper-data="{&quot;index&quot;:null}" fill="#141619" stroke="#000000" stroke-width="2.5"/><path d="M159.56483,59.67117v12.42564h-49.74444v-12.42564z" data-paper-data="{&quot;index&quot;:null}" fill="#141619" stroke="#000000" stroke-width="2.5"/><path d="M134.64105,47.29162v12.42564h-24.83334v-12.42564z" data-paper-data="{&quot;index&quot;:null}" fill="#141619" stroke="#000000" stroke-width="2.5"/><path d="M109.82727,72.09674h-24.83333c0,0 0,-16.70302 0,-20.73972c0,-1.5785 2.18713,-4.09362 3.94272,-4.09362c4.16748,0 20.89061,0 20.89061,0z" data-paper-data="{&quot;index&quot;:null}" fill="#060709" stroke="#000000" stroke-width="2.5"/><path d="M333.90734,59.69084v-12.42564h49.74444v12.42564z" data-paper-data="{&quot;index&quot;:null}" fill="#141619" stroke="#000000" stroke-width="2.5"/><path d="M408.58126,59.66366v12.42564h-49.74444v-12.42564z" data-paper-data="{&quot;index&quot;:null}" fill="#141619" stroke="#000000" stroke-width="2.5"/><path d="M408.59394,47.28411v12.42564h-24.83334v-12.42564z" data-paper-data="{&quot;index&quot;:null}" fill="#141619" stroke="#000000" stroke-width="2.5"/><path d="M408.57438,47.25596c0,0 16.72313,0 20.89061,0c1.75559,0 3.94272,2.51512 3.94272,4.09362c0,4.0367 0,20.73972 0,20.73972h-24.83333z" data-paper-data="{&quot;index&quot;:null}" fill="#060709" stroke="#000000" stroke-width="2.5"/><path d="M433.42132,196.67391c0,0 -16.72313,0 -20.89061,0c-1.75559,0 -3.94272,-2.51512 -3.94272,-4.09362c0,-4.0367 0,-20.73972 0,-20.73972h24.83333z" data-paper-data="{&quot;index&quot;:null}" fill="#060709" stroke="#000000" stroke-width="2.5"/><path d="M433.38608,109.49654v12.42564h-24.83334v-12.42564z" data-paper-data="{&quot;index&quot;:null}" fill="#141619" stroke="#000000" stroke-width="2.5"/><path d="M433.38608,97.02036v12.42564h-24.83334v-12.42564z" data-paper-data="{&quot;index&quot;:null}" fill="#141619" stroke="#000000" stroke-width="2.5"/><path d="M433.38608,84.58701v12.42564h-24.83334v-12.42564z" data-paper-data="{&quot;index&quot;:null}" fill="#141619" stroke="#000000" stroke-width="2.5"/><path d="M408.54596,134.411v-12.42564h24.83334v12.42564z" data-paper-data="{&quot;index&quot;:null}" fill="#141619" stroke="#000000" stroke-width="2.5"/><path d="M408.56181,146.88718v-12.42564h24.83334v12.42564z" data-paper-data="{&quot;index&quot;:null}" fill="#141619" stroke="#000000" stroke-width="2.5"/><path d="M408.56636,159.37939v-12.42564h24.83334v12.42564z" data-paper-data="{&quot;index&quot;:null}" fill="#141619" stroke="#000000" stroke-width="2.5"/><path d="M408.56636,171.85563v-12.42564h24.83334v12.42564z" data-paper-data="{&quot;index&quot;:null}" fill="#141619" stroke="#000000" stroke-width="2.5"/><path d="M408.54848,84.56434v-12.42564h24.83334v12.42564z" data-paper-data="{&quot;index&quot;:null}" fill="#141619" stroke="#000000" stroke-width="2.5"/><path d="M458.28431,171.86528v12.42564h-24.83334v-12.42564z" data-paper-data="{&quot;index&quot;:null}" fill="#141619" stroke="#000000" stroke-width="2.5"/><path d="M209.009,169.963v12.42564h-24.83334v-12.42564z" data-paper-data="{&quot;index&quot;:null}" fill="#141619" stroke="#000000" stroke-width="2.5"/><path d="M184.04894,167.68804c0,2.77948 0,10.74105 0,15.875c0,2.67971 -2.39933,4.58906 -4.63828,4.58906c-5.17253,0 -13.2842,0 -16.10144,0c-1.5785,0 -4.09362,-2.18713 -4.09362,-3.94272c0,-2.89028 0,-11.06966 0,-16.27133c0,-2.2986 2.45796,-4.61927 4.19506,-4.61927c2.83376,0 11.0364,0 16.125,0c2.37217,0 4.51328,2.51725 4.51328,4.36927z" data-paper-data="{&quot;index&quot;:null}" fill="#060709" stroke="#000000" stroke-width="2.5"/><g stroke="#000000"><path d="M268.95009,219.14848c0,-17.50052 14.18698,-31.6875 31.6875,-31.6875c17.50052,0 31.6875,14.18698 31.6875,31.6875c0,17.50053 -14.18698,31.6875 -31.6875,31.6875c-17.50052,0 -31.6875,-14.18697 -31.6875,-31.6875z" fill="url(#color-5)" stroke-width="0"/><path d="M303.34621,226.3198v3.95204h-4.89971v-3.95204z" fill="#323324" stroke-width="1"/><g stroke-width="0.75"><path d="M300.95761,212.281c0.33907,-0.45842 0.61784,2.04462 0.59166,2.929c-0.02344,0.79161 0.15883,1.49602 0.08386,2.08609c-0.01159,0.09117 0.10472,1.05691 0.17785,1.32572c0.01914,0.07037 0.54694,-1.26689 0.95195,-1.85811c0.2366,-0.34539 0.5058,-0.39572 0.66246,-0.23831c0.1196,0.12018 0.18793,0.35164 0.22265,0.64319c0.08859,0.74399 -0.04165,1.87931 -0.09694,2.55555c-0.04857,0.59401 -0.02254,1.22305 -0.20004,1.78245c-0.1775,0.5594 -0.83204,1.58019 -0.88234,1.6286c-0.144,0.13859 -1.16059,0.63963 -1.31734,0.63963c-0.26598,0 -0.73816,-0.07472 -1.01281,-0.19919c-0.21345,-0.09674 -1.36238,-0.6838 -1.76552,-1.65358c-0.48287,-1.1616 -1.0065,-2.98487 -1.10044,-3.28986c-0.06579,-0.21361 -0.02559,-3.17825 0.48151,-2.62096c0.53012,0.58259 2.1685,4.07417 2.13903,3.7559c-0.01779,-0.1921 -0.37593,-2.0437 -0.20391,-3.89963c0.12984,-1.40087 0.67184,-2.77999 1.26839,-3.58649z" fill="url(#color-6)"/><path d="M300.20286,228.27405v-4.66593h1.23858v4.66593z" fill="#311800"/></g></g><g stroke="#000000"><path d="M112.95009,106.14846c0,-17.50052 14.18698,-31.6875 31.6875,-31.6875c17.50052,0 31.6875,14.18698 31.6875,31.6875c0,17.50053 -14.18698,31.6875 -31.6875,31.6875c-17.50052,0 -31.6875,-14.18697 -31.6875,-31.6875z" fill="url(#color-7)" stroke-width="0"/><path d="M147.34621,113.31976v3.95204h-4.89971v-3.95204z" fill="#323324" stroke-width="1"/><g stroke-width="0.75"><path d="M144.95762,99.28098c0.33907,-0.45842 0.61784,2.04462 0.59166,2.929c-0.02344,0.79161 0.15883,1.49602 0.08386,2.08609c-0.01159,0.09117 0.10472,1.05691 0.17785,1.32572c0.01914,0.07037 0.54694,-1.26689 0.95195,-1.85811c0.2366,-0.34539 0.5058,-0.39572 0.66246,-0.23831c0.1196,0.12018 0.18793,0.35164 0.22265,0.64319c0.08859,0.74399 -0.04165,1.87931 -0.09694,2.55555c-0.04857,0.59401 -0.02254,1.22305 -0.20004,1.78245c-0.1775,0.5594 -0.83204,1.58019 -0.88234,1.6286c-0.144,0.13859 -1.16059,0.63963 -1.31734,0.63963c-0.26598,0 -0.73816,-0.07472 -1.01281,-0.19919c-0.21345,-0.09674 -1.36238,-0.6838 -1.76552,-1.65358c-0.48287,-1.1616 -1.0065,-2.98487 -1.10044,-3.28986c-0.06579,-0.21361 -0.02559,-3.17825 0.48151,-2.62096c0.53012,0.58259 2.1685,4.07417 2.13903,3.7559c-0.01779,-0.1921 -0.37593,-2.0437 -0.20391,-3.89963c0.12984,-1.40087 0.67184,-2.77999 1.26839,-3.58649z" fill="url(#color-8)"/><path d="M144.20287,115.27401v-4.66593h1.23858v4.66593z" fill="#311800"/></g></g><g stroke="#000000"><path d="M342.95009,106.14846c0,-17.50052 14.18698,-31.6875 31.6875,-31.6875c17.50052,0 31.6875,14.18698 31.6875,31.6875c0,17.50053 -14.18698,31.6875 -31.6875,31.6875c-17.50052,0 -31.6875,-14.18697 -31.6875,-31.6875z" fill="url(#color-9)" stroke-width="0"/><path d="M377.34621,113.31976v3.95204h-4.89971v-3.95204z" fill="#323324" stroke-width="1"/><g stroke-width="0.75"><path d="M374.95762,99.28098c0.33907,-0.45842 0.61784,2.04462 0.59166,2.929c-0.02344,0.79161 0.15883,1.49602 0.08386,2.08609c-0.01159,0.09117 0.10472,1.05691 0.17785,1.32572c0.01914,0.07037 0.54694,-1.26689 0.95195,-1.85811c0.2366,-0.34539 0.5058,-0.39572 0.66246,-0.23831c0.1196,0.12018 0.18793,0.35164 0.22265,0.64319c0.08859,0.74399 -0.04165,1.87931 -0.09694,2.55555c-0.04857,0.59401 -0.02254,1.22305 -0.20004,1.78245c-0.1775,0.5594 -0.83204,1.58019 -0.88234,1.6286c-0.144,0.13859 -1.16059,0.63963 -1.31734,0.63963c-0.26598,0 -0.73816,-0.07472 -1.01281,-0.19919c-0.21345,-0.09674 -1.36238,-0.6838 -1.76552,-1.65358c-0.48287,-1.1616 -1.0065,-2.98487 -1.10044,-3.28986c-0.06579,-0.21361 -0.02559,-3.17825 0.48151,-2.62096c0.53012,0.58259 2.1685,4.07417 2.13903,3.7559c-0.01779,-0.1921 -0.37593,-2.0437 -0.20391,-3.89963c0.12984,-1.40087 0.67184,-2.77999 1.26839,-3.58649z" fill="url(#color-10)"/><path d="M374.20287,115.27401v-4.66593h1.23858v4.66593z" fill="#311800"/></g></g><path d="M234.12397,313.12484v12.42564h-24.83334v-12.42564z" data-paper-data="{&quot;index&quot;:null}" fill="#141619" stroke="#000000" stroke-width="2.5"/><path d="M109.79538,221.77099v12.42564h-24.83334v-12.42564z" data-paper-data="{&quot;index&quot;:null}" fill="#141619" stroke="#000000" stroke-width="2.5"/><path d="M134.97565,184.32968v12.42564h-49.33334v-12.42564z" data-paper-data="{&quot;index&quot;:null}" fill="#141619" stroke="#000000" stroke-width="2.5"/><path d="M162.79993,234.26314v12.42564h-77.83334v-12.42564z" data-paper-data="{&quot;index&quot;:null}" fill="#141619" stroke="#000000" stroke-width="2.5"/></g></g></svg>