<svg version="1.1" xmlns="http://www.w3.org/2000/svg" xmlns:xlink="http://www.w3.org/1999/xlink" width="69.89746" height="72.35206" viewBox="0,0,69.89746,72.35206"><defs><linearGradient x1="261.64246" y1="177.73613" x2="257.01331" y2="166.34595" gradientUnits="userSpaceOnUse" id="color-1"><stop offset="0" stop-color="#1f1f1f"/><stop offset="1" stop-color="#0a0a0a"/></linearGradient><linearGradient x1="261.79992" y1="178.12575" x2="256.85444" y2="165.9572" gradientUnits="userSpaceOnUse" id="color-2"><stop offset="0" stop-color="#1f1f1f"/><stop offset="1" stop-color="#0a0a0a"/></linearGradient><linearGradient x1="261.70245" y1="172.49692" x2="260.92014" y2="170.57205" gradientUnits="userSpaceOnUse" id="color-3"><stop offset="0" stop-color="#1f1f1f"/><stop offset="1" stop-color="#0a0a0a"/></linearGradient><linearGradient x1="262.42666" y1="172.16312" x2="261.75863" y2="170.51946" gradientUnits="userSpaceOnUse" id="color-4"><stop offset="0" stop-color="#1f1f1f"/><stop offset="1" stop-color="#0a0a0a"/></linearGradient><linearGradient x1="240" y1="180.00007" x2="240" y2="180.00007" gradientUnits="userSpaceOnUse" id="color-5"><stop offset="0" stop-color="#333333"/><stop offset="1" stop-color="#515151"/></linearGradient><linearGradient x1="238.18551" y1="123.72582" x2="237.82061" y2="133.57131" gradientUnits="userSpaceOnUse" id="color-6"><stop offset="0" stop-color="#2e1800"/><stop offset="1" stop-color="#4e3310"/></linearGradient></defs><g transform="translate(-196.96836,-123.15673)"><g data-paper-data="{&quot;isPaintingLayer&quot;:true}" fill-rule="nonzero" stroke-linejoin="miter" stroke-miterlimit="10" stroke-dasharray="" stroke-dashoffset="0" style="mix-blend-mode: normal"><g stroke="#000000" stroke-linecap="butt"><g stroke-width="1"><path d="M254.01127,167.72708c0.10815,-0.04976 0.21518,-0.09502 0.32106,-0.13633c0.7641,-0.29581 1.62562,-0.32404 2.45859,-0.35142c0.91994,-0.02981 1.87118,-0.06079 2.70866,-0.44609c0.03817,-0.01756 0.07635,-0.03577 0.11413,-0.05496c0.45712,-0.23093 0.93124,-0.58852 1.39006,-0.93413c0.51704,-0.38998 1.0519,-0.79338 1.59357,-1.04257c0.91721,-0.42199 1.71269,-0.32403 2.43183,0.29879c1.39557,1.20893 1.03832,2.13279 0.38983,3.81053c-0.1992,0.51521 -0.42488,1.09929 -0.66121,1.82432c-0.05308,0.16262 -0.06248,0.56498 -0.07256,0.99134c-0.03851,1.64248 -0.10999,4.70021 -2.8803,5.9748c-2.13209,0.98091 -4.71422,-0.24978 -6.4231,-1.06432c-0.39194,-0.1866 -0.73074,-0.34809 -0.99584,-0.44964c-1.4786,-0.56644 -4.22125,-2.97442 -3.94228,-4.64965c0.24012,-1.44307 2.00263,-3.05064 3.5676,-3.77066z" fill="url(#color-1)"/><path d="M261.64716,177.27252c3.32515,-1.52983 2.43905,-5.76379 2.75694,-6.73813c1.02061,-3.13178 1.91343,-3.8408 0.40467,-5.14769c-0.68513,-0.59352 -1.3679,-0.55149 -2.05315,-0.23621c-0.98155,0.45158 -1.96793,1.46381 -2.97257,1.97125c-0.04142,0.02091 -0.08313,0.04103 -0.12515,0.06036c-1.67973,0.77282 -3.65704,0.21289 -5.18635,0.80569c-0.09941,0.03865 -0.20043,0.08146 -0.30198,0.12815c-1.49637,0.68845 -3.14652,2.2188 -3.3561,3.47883c-0.22408,1.34585 2.24278,3.60665 3.67828,4.15666c1.43549,0.54996 4.68681,2.65677 7.15538,1.52104M261.64716,177.27252l0.31619,0.77802v0c-2.27523,1.04678 -4.94605,-0.22623 -6.71344,-1.06866c-0.38506,-0.18363 -0.71745,-0.3419 -0.96887,-0.43833c-1.45361,-0.55674 -4.55052,-3.07721 -4.20639,-5.14225c0.27152,-1.6352 2.14967,-3.31385 3.77874,-4.06336c0.11427,-0.05257 0.22867,-0.1009 0.34002,-0.14409c0.81634,-0.3165 1.70663,-0.34563 2.56769,-0.37358c0.92781,-0.03033 1.80402,-0.05888 2.5806,-0.41619c0.03451,-0.01588 0.06888,-0.03228 0.10311,-0.04958c0.42994,-0.21751 0.87084,-0.54997 1.3381,-0.90193c0.53174,-0.40102 1.08169,-0.81567 1.6565,-1.08012c1.03719,-0.4772 1.98287,-0.35541 2.81064,0.36153c1.63702,1.41804 1.1664,2.63502 0.51525,4.31958c-0.19733,0.5104 -0.42086,1.08854 -0.65293,1.80085c-0.03388,0.11839 -0.04365,0.53235 -0.05152,0.86469c-0.04033,1.73351 -0.11588,4.95969 -3.09751,6.33143z" fill="url(#color-2)"/></g><path d="M261.27941,171.85202c-0.60844,0.07302 -1.19133,0.09528 -1.79539,-0.10431c-0.30785,-0.1019 -0.13897,-0.63733 0.17149,-0.51234c1.15354,0.46271 2.67051,-0.45903 3.69745,0.40881c0.03403,0.02931 0.02461,0.09703 -0.02023,0.09953c-0.68849,0.04122 -1.36616,0.0261 -2.05335,0.1083z" fill="url(#color-3)" stroke-width="0.5"/><path d="M260.54399,171.45062c-0.20616,-0.03814 -0.17699,-0.39299 0.03037,-0.35662c0.97132,0.17095 2.4288,-0.78374 3.20334,0.27932c0.06403,0.08724 -0.01891,0.24145 -0.11694,0.18004c-0.58464,-0.36422 -1.04222,-0.42705 -1.67992,-0.28943c-0.46987,0.10198 -0.94485,0.27707 -1.43681,0.18667z" fill="url(#color-4)" stroke-width="0.5"/></g><path d="" fill="url(#color-5)" stroke="#000000" stroke-width="1.5" stroke-linecap="butt"/><path d="M222.68098,169.81765c0.93469,-1.83118 -0.2454,-7.75402 2.31841,-13.6319c2.12306,-4.86742 6.09944,-8.76152 6.09944,-8.76152" data-paper-data="{&quot;index&quot;:null}" fill="none" stroke="#000000" stroke-width="10" stroke-linecap="round"/><path d="M249.01431,146.75756c0,0 3.97638,3.8941 6.09944,8.76152c2.56381,5.87788 1.38372,11.80072 2.31841,13.6319" data-paper-data="{&quot;index&quot;:null}" fill="none" stroke="#000000" stroke-width="10" stroke-linecap="round"/><path d="M249.01431,146.92422c0,0 3.97638,3.8941 6.09944,8.76152c2.56381,5.87788 1.38372,11.80072 2.31841,13.6319" data-paper-data="{&quot;index&quot;:null}" fill="none" stroke="#333333" stroke-width="7" stroke-linecap="round"/><path d="M236.08644,176.43687c0,0 2.44481,-1.70037 3.64032,-1.76148c1.32409,-0.06769 3.95794,1.37308 3.95794,1.37308" fill="none" stroke="#000000" stroke-width="10" stroke-linecap="round"/><path d="M222.30655,168.28319c1.06931,-1.75095 0.18286,-7.75683 3.16409,-13.41277c2.46872,-4.68364 6.7985,-8.24511 6.7985,-8.24511" fill="none" stroke="#333333" stroke-width="7" stroke-linecap="round"/><path d="M233.11992,188.43039c0,0 -0.7336,-8.57935 -0.1052,-13.31549c0.6284,-4.73614 3.26111,-10.4703 3.26111,-10.4703" fill="none" stroke="#000000" stroke-width="10" stroke-linecap="round"/><path d="M243.05758,164.98998c0,0 2.72929,6.66483 3.4084,11.09427c0.67911,4.42944 0.1052,12.69777 0.1052,12.69777" fill="none" stroke="#000000" stroke-width="9.5" stroke-linecap="round"/><path d="M229.24489,189.39335c0,0 2.63682,-1.37022 3.9546,-1.37022c1.31693,0 3.94952,1.37022 3.94952,1.37022c0,0 0,2.97828 0,3.91896c0,0.60315 -0.65372,1.17756 -1.1594,1.17756c-1.67822,0 -4.79899,0 -5.70236,0c-0.38589,0 -1.04235,-0.94711 -1.04235,-0.94711z" fill="#232323" stroke="#000000" stroke-width="2" stroke-linecap="butt"/><path d="M242.4062,189.41227c0,0 2.74848,-1.16649 4.07087,-1.16649c1.31225,0 3.83325,1.16649 3.83325,1.16649c0,0 0,2.97828 0,3.91896c0,0.60315 -0.7221,1.17756 -1.22778,1.17756c-1.67822,0 -4.66223,0 -5.5656,0c-0.38589,0 -1.11073,-0.94711 -1.11073,-0.94711z" fill="#232323" stroke="#000000" stroke-width="2" stroke-linecap="butt"/><path d="M229.16473,168.35997c0,0 -0.66741,-0.06673 -0.43413,-3.29308c0.04292,-0.59368 -1.01908,-1.56091 -0.8372,-2.71229c0.16072,-1.01742 1.72838,-2.72473 1.72838,-3.1752c0,-0.53132 -1.14077,-1.87661 -1.30139,-3.16927c-0.12174,-0.9797 0.72359,-1.92917 0.73377,-2.47111c0.03817,-2.03355 0.61325,-2.5039 0.89442,-3.90605c0.3147,-1.56939 0.3544,-3.39892 0.3544,-3.39892c0,0 4.05105,-3.79264 5.96273,-3.80367c2.05131,-0.01184 4.63274,-1.12745 7.85997,-0.31728c2.47367,0.621 5.97948,3.53249 5.97948,3.53249c0,0 -0.63332,1.51327 -0.08112,3.77563c0.29895,1.22483 0.82818,4.03913 0.82818,5.50727c0,0.76271 -0.79761,2.75653 -0.81631,4.88125c-0.0134,1.52213 0.77297,3.16801 0.69096,4.21535c-0.08764,1.11916 -0.99524,5.26428 -0.99524,5.26428c0,0 -7.00004,1.83951 -10.17139,1.83951c-3.08421,0 -10.3955,-2.76891 -10.3955,-2.76891z" fill="#24180f" stroke="#000000" stroke-width="2.5" stroke-linecap="butt"/><path d="M232.51549,138.77776c0,-0.1431 -1.98277,-2.17549 -1.98063,-2.31907c0.08013,-5.38844 4.04824,-9.98357 8.88271,-9.98357c1.17987,0 5.27915,2.8254 6.42766,5.13536c0.35857,0.72117 1.4464,2.2104 1.70236,3.63532c0.3087,1.71854 -0.24911,3.34353 -0.24911,3.41472c0,2.18158 -0.51107,4.47191 -0.51107,4.47191c0,0 -5.01273,2.51624 -7.40424,2.51624c-2.5907,0 -7.59024,-2.51624 -7.59024,-2.51624c0,0 0.72256,-1.8728 0.72256,-4.35467z" fill="#333333" stroke="#000000" stroke-width="2.5" stroke-linecap="butt"/><path d="M247.86271,143.61946c0,0 0.60436,-0.59648 0.91803,-0.50938c0.3298,0.09156 1.01478,1.04604 1.01478,1.04604c0,0 -1.09683,8.38465 -6.31171,14.91017c-5.57928,6.9815 -14.27689,11.44282 -14.27689,11.44282l-0.11759,-0.83601" fill="none" stroke="#000000" stroke-width="4" stroke-linecap="round"/><path d="M237.11728,135.73269c0,-0.94897 0.60766,-1.71827 1.35724,-1.71827c0.74958,0 1.35725,0.7693 1.35725,1.71827c0,0.94897 -0.60767,1.71827 -1.35725,1.71827c-0.74958,0 -1.35724,-0.76929 -1.35724,-1.71827z" fill="#000000" stroke="#000000" stroke-width="1.5" stroke-linecap="butt"/><path d="M242.33512,135.46285c0,-0.94897 0.60767,-1.71827 1.35725,-1.71827c0.74958,0 1.35724,0.76929 1.35724,1.71827c0,0.94897 -0.60766,1.71828 -1.35724,1.71828c-0.74958,0 -1.35725,-0.7693 -1.35725,-1.71828z" fill="#000000" stroke="#000000" stroke-width="1.5" stroke-linecap="butt"/><g stroke="#000000" stroke-width="2" stroke-linecap="butt"><path d="M206.54148,137.0342l22.58451,40.27039l-2.96582,2.01764l-22.58451,-40.27039z" fill="#2f1900"/><path d="M224.18308,141.63124l2.19632,4.92415c0,0 -12.26358,-3.39534 -16.65836,-1.06748c-4.56226,2.41658 -9.46948,15.10296 -9.46948,15.10296l-2.19632,-4.92414c0,0 5.22796,-12.85627 9.84644,-15.30264c4.32561,-2.29123 16.28139,1.26715 16.28139,1.26715z" fill="#242424"/></g><path d="M225.95416,168.20869c0,2.85764 -1.86242,5.17421 -4.15982,5.17421c-2.29741,0 -4.15983,-2.31657 -4.15983,-5.17421c0,-2.85764 1.86242,-5.17421 4.15983,-5.17421c2.29741,0 4.15982,2.31657 4.15982,5.17421z" fill="#000000" stroke="#000000" stroke-width="0" stroke-linecap="butt"/><path d="M262.05361,168.73436c0,2.85764 -2.08628,5.17421 -4.65982,5.17421c-2.57355,0 -4.65983,-2.31657 -4.65983,-5.17421c0,-2.85764 2.08628,-5.17421 4.65983,-5.17421c2.57355,0 4.65982,2.31657 4.65982,5.17421z" fill="#000000" stroke="#000000" stroke-width="0" stroke-linecap="butt"/><g stroke="#000000"><path d="M229.97804,132.12962c0,0 -0.28983,-0.99069 0.29817,-2.3728c1.04307,-2.45181 3.6343,-5.93207 6.84614,-5.84861c4.61003,0.11978 9.44246,5.13666 9.44246,5.13666l-0.10245,2.29063c0,0 -5.26683,1.7828 -8.52841,1.93993c-3.26158,0.15713 -7.9559,-1.1458 -7.9559,-1.1458z" fill="url(#color-6)" stroke-width="1.5" stroke-linecap="butt"/><path d="M230.30831,130.00089c0,0 5.19407,0.60722 7.65869,0.46285c2.58491,-0.15142 7.50712,-1.35123 7.50712,-1.35123" fill="none" stroke-width="1.5" stroke-linecap="round"/><path d="M238.0352,129.39962c0.0358,-0.96582 0.9999,-1.72448 2.15339,-1.69451c1.15348,0.02997 2.05955,0.83722 2.02375,1.80304c-0.0358,0.96582 -0.9999,1.72448 -2.15338,1.69451c-1.15348,-0.02997 -2.05955,-0.83722 -2.02376,-1.80305z" fill="#e0e0e0" stroke-width="1" stroke-linecap="butt"/></g></g></g></svg>