<svg version="1.1" xmlns="http://www.w3.org/2000/svg" xmlns:xlink="http://www.w3.org/1999/xlink" width="488.58319" height="368.18462" viewBox="0,0,488.58319,368.18462"><defs><linearGradient x1="115.43314" y1="321.86276" x2="115.43314" y2="326.86974" gradientUnits="userSpaceOnUse" id="color-1"><stop offset="0" stop-color="#000000"/><stop offset="1" stop-color="#0c0c0c"/></linearGradient></defs><g transform="translate(2.836,3.29722)"><g data-paper-data="{&quot;isPaintingLayer&quot;:true}" fill-rule="nonzero" stroke-linejoin="miter" stroke-miterlimit="10" stroke-dasharray="" stroke-dashoffset="0" style="mix-blend-mode: normal"><path d="M-1.586,363.6374v-111.7012h96.94405v111.7012z" data-paper-data="{&quot;index&quot;:null}" fill="#000000" stroke="#000000" stroke-width="2.5" stroke-linecap="butt"/><path d="M132.98266,0.74413h11.91667v11.58333h-11.91667z" data-paper-data="{&quot;index&quot;:null}" fill="#000000" stroke="none" stroke-width="0" stroke-linecap="butt"/><path d="M201.00562,58.274c0,0 22.86822,7.47118 27.02678,10.03661c1.75246,1.08108 22.59354,20.57358 22.59354,20.57358l-29.01412,1.71595l-24.52054,-18.09738z" data-paper-data="{&quot;index&quot;:null}" fill="#000000" stroke="#000000" stroke-width="2.5" stroke-linecap="butt"/><path d="M396.05949,140.40733l-22.44467,-23.63805l-1.82476,-27.50749c0,0 21.88204,18.31626 23.16818,19.92425c3.05205,3.81576 13.24846,25.60583 13.24846,25.60583z" data-paper-data="{&quot;index&quot;:null}" fill="#000000" stroke="#000000" stroke-width="2.5" stroke-linecap="butt"/><path d="M201.49579,68.95278v-71h100v71z" fill="#000000" stroke="#000000" stroke-width="2.5" stroke-linecap="butt"/><path d="M-1.24442,171.35514v-173.33638h208.88352v173.33638z" data-paper-data="{&quot;index&quot;:null}" fill="#000000" stroke="#000000" stroke-width="2.5" stroke-linecap="butt"/><path d="M157.46716,362.16527v-74.63964h327.03003v74.63964z" fill="#000000" stroke="#000000" stroke-width="2.5" stroke-linecap="butt"/><path d="M400.2532,303.40995v-304.72372h84.08408v304.72372z" fill="#000000" stroke="#000000" stroke-width="2.5" stroke-linecap="butt"/><g data-paper-data="{&quot;index&quot;:null}"><g data-paper-data="{&quot;index&quot;:null}" fill="none" stroke="none" stroke-width="1" stroke-linecap="butt" font-family="sans-serif" font-weight="normal" font-size="12" text-anchor="start"/><g data-paper-data="{&quot;index&quot;:null}" fill="none" stroke="none" stroke-width="1" stroke-linecap="butt" font-family="sans-serif" font-weight="normal" font-size="12" text-anchor="start"/><g data-paper-data="{&quot;index&quot;:null}" fill="none" stroke="none" stroke-width="1" stroke-linecap="butt" font-family="sans-serif" font-weight="normal" font-size="12" text-anchor="start"/><path d="M177.33314,261.91909v-4.5h29.5v4.5z" data-paper-data="{&quot;index&quot;:null}" fill="#000000" stroke="#000000" stroke-width="2.5" stroke-linecap="butt"/><g data-paper-data="{&quot;index&quot;:null}" fill="#000000" stroke="#000000" stroke-width="2.5" stroke-linecap="butt"><path d="M188.83314,181.18988v-10.54167h8v10.54167z"/><path d="M179.78433,190.60838c0,-6.90356 5.59644,-12.5 12.5,-12.5c6.90356,0 12.5,5.59644 12.5,12.5c0,6.90356 -5.59644,12.5 -12.5,12.5c-6.90356,0 -12.5,-5.59644 -12.5,-12.5z"/></g><g data-paper-data="{&quot;index&quot;:null}" fill="#000000" stroke="#000000" stroke-width="2.5" stroke-linecap="butt"><path d="M111.83304,182.18989v-10.54167h8v10.54167z"/><path d="M102.78418,191.60838c0,-6.90356 5.59644,-12.5 12.5,-12.5c6.90356,0 12.5,5.59644 12.5,12.5c0,6.90356 -5.59644,12.5 -12.5,12.5c-6.90356,0 -12.5,-5.59644 -12.5,-12.5z"/></g><g data-paper-data="{&quot;index&quot;:null}" fill="#000000" stroke="#000000" stroke-width="4" stroke-linecap="round"><g><path d="M110.44378,196.66911l9.79847,-9.79848"/><path d="M120.17796,196.86197l-9.79848,-9.79848"/></g><g font-family="&quot;Helvetica Neue&quot;, Helvetica, Arial, sans-serif" font-weight="400" font-size="16" text-anchor="start"/></g><g data-paper-data="{&quot;index&quot;:null}" fill="#000000" stroke="#000000" stroke-width="4" stroke-linecap="round"><g><path d="M197.64227,185.9373l-9.79847,9.79848"/><path d="M187.77951,186.13015l9.79848,9.79848"/></g><g font-family="&quot;Helvetica Neue&quot;, Helvetica, Arial, sans-serif" font-weight="400" font-size="16" text-anchor="start"/></g></g><path d="M237.20072,286.50082v-23.09774h23.09774v23.09774z" fill="#000000" stroke="#000000" stroke-width="2.5" stroke-linecap="butt"/><path d="M300.49579,224.23733v-95h103v95z" fill="#000000" stroke="none" stroke-width="NaN" stroke-linecap="butt"/><path d="M358.49579,292.95277v-73h48v73z" fill="#000000" stroke="none" stroke-width="0" stroke-linecap="butt"/><g stroke-linecap="butt"><g fill="none" stroke="none" stroke-width="1" font-family="sans-serif" font-weight="normal" font-size="12" text-anchor="start"/><path d="M260.48058,205.49906v-5.8h36.5v5.8z" fill="#000000" stroke="#000000" stroke-width="2.5"/><g fill="#000000" stroke="#000000" stroke-width="2.5"><path d="M275.72354,78.31371v-10.54167h8v10.54167z"/><path d="M266.67473,87.73216c0,-6.90356 5.59644,-12.5 12.5,-12.5c6.90356,0 12.5,5.59644 12.5,12.5c0,6.90356 -5.59644,12.5 -12.5,12.5c-6.90356,0 -12.5,-5.59644 -12.5,-12.5z"/></g><g fill="none" stroke="none" stroke-width="1" font-family="sans-serif" font-weight="normal" font-size="12" text-anchor="start"><g/><g/></g></g><path d="M102.41508,326.86974v-5.00701h26.03604v5.00701z" data-paper-data="{&quot;index&quot;:null}" fill="url(#color-1)" stroke="#000000" stroke-width="2.5" stroke-linecap="butt"/></g></g></svg>