<svg version="1.1" xmlns="http://www.w3.org/2000/svg" xmlns:xlink="http://www.w3.org/1999/xlink" width="234.95972" height="145.63509" viewBox="0,0,234.95972,145.63509"><defs><linearGradient x1="152.87121" y1="159.99656" x2="187.51519" y2="171.88757" gradientUnits="userSpaceOnUse" id="color-1"><stop offset="0" stop-color="#050000"/><stop offset="1" stop-color="#0f0707"/></linearGradient><radialGradient cx="316.26239" cy="180.74896" r="16.58617" gradientUnits="userSpaceOnUse" id="color-2"><stop offset="0" stop-color="#5100a4"/><stop offset="1" stop-color="#5100a4" stop-opacity="0"/></radialGradient><radialGradient cx="151.87244" cy="170.27684" r="14.77697" gradientUnits="userSpaceOnUse" id="color-3"><stop offset="0" stop-color="#5100a4"/><stop offset="1" stop-color="#5100a4" stop-opacity="0"/></radialGradient><radialGradient cx="151.61488" cy="170.15499" r="13.47312" gradientUnits="userSpaceOnUse" id="color-4"><stop offset="0" stop-color="#5100a4"/><stop offset="1" stop-color="#5100a4" stop-opacity="0"/></radialGradient><radialGradient cx="255.49082" cy="179.77533" r="62.22942" gradientUnits="userSpaceOnUse" id="color-5"><stop offset="0" stop-color="#5100a4"/><stop offset="1" stop-color="#5100a4" stop-opacity="0"/></radialGradient><radialGradient cx="197.97646" cy="178.61937" r="64.04841" gradientUnits="userSpaceOnUse" id="color-6"><stop offset="0" stop-color="#5100a4"/><stop offset="1" stop-color="#5100a4" stop-opacity="0"/></radialGradient><radialGradient cx="284.92185" cy="178.71554" r="63.16045" gradientUnits="userSpaceOnUse" id="color-7"><stop offset="0" stop-color="#5100a4"/><stop offset="1" stop-color="#5100a4" stop-opacity="0"/></radialGradient><radialGradient cx="219.72385" cy="177.28774" r="60.461" gradientUnits="userSpaceOnUse" id="color-8"><stop offset="0" stop-color="#5100a4"/><stop offset="1" stop-color="#5100a4" stop-opacity="0"/></radialGradient></defs><g transform="translate(-133.929,-105.43915)"><g data-paper-data="{&quot;isPaintingLayer&quot;:true}" fill-rule="nonzero" stroke-linejoin="miter" stroke-miterlimit="10" stroke-dasharray="" stroke-dashoffset="0" style="mix-blend-mode: normal"><path d="M343.86936,190.75841l4.21661,0.82725l3.00523,-1.82341l-14.5731,1.54173l-7.08056,-7.27164" data-paper-data="{&quot;index&quot;:null}" fill="none" stroke="#000000" stroke-width="8" stroke-linecap="round"/><path d="M330.349,182.22929l5.55238,-6.15307l13.40254,2.18591l-3.12264,-1.90228l-3.65394,0.52298" data-paper-data="{&quot;index&quot;:null}" fill="none" stroke="#000000" stroke-width="8" stroke-linecap="round"/><path d="M309.30909,191.76327c-0.75097,2.47327 -2.75971,22.17076 -2.75971,22.17076l-2.15388,-7.07331l3.4669,-6.96168" data-paper-data="{&quot;index&quot;:null}" fill="none" stroke="#5100a4" stroke-width="12.5" stroke-linecap="round"/><path d="M291.30909,193.61103c-0.75097,2.47327 -2.42638,20.32301 -2.42638,20.32301l-1.65388,-6.23343l2.63357,-5.95381" data-paper-data="{&quot;index&quot;:null}" fill="none" stroke="#5100a4" stroke-width="12.5" stroke-linecap="round"/><path d="M267.56251,202.14964l3.70448,5.15572l-0.38099,6.60372c0,0 -5.10354,-17.17577 -6.31952,-19.45348" data-paper-data="{&quot;index&quot;:null}" fill="none" stroke="#5100a4" stroke-width="12.5" stroke-linecap="round"/><path d="M250.26204,202.11321l3.6075,5.22508l-0.50431,6.59532c0,0 -4.78174,-17.26958 -5.95495,-19.56997" data-paper-data="{&quot;index&quot;:null}" fill="none" stroke="#5100a4" stroke-width="12.5" stroke-linecap="round"/><path d="M223.32392,192.34071c-0.91105,2.41802 -3.74985,20.11769 -3.74985,20.11769l-1.23175,-6.49732l3.00614,-5.59836" data-paper-data="{&quot;index&quot;:null}" fill="none" stroke="#5100a4" stroke-width="12.5" stroke-linecap="round"/><path d="M205.59059,193.41576c-0.91105,2.41802 -3.74985,20.11768 -3.74985,20.11768l-1.23175,-6.49732l3.00614,-5.59836" data-paper-data="{&quot;index&quot;:null}" fill="none" stroke="#5100a4" stroke-width="12.5" stroke-linecap="round"/><path d="M186.15725,194.6924c-0.91105,2.41802 -3.74985,20.11768 -3.74985,20.11768l-1.23175,-6.49732l3.00614,-5.59836" data-paper-data="{&quot;index&quot;:null}" fill="none" stroke="#5100a4" stroke-width="12.5" stroke-linecap="round"/><path d="M168.95725,196.40577c-0.91105,2.41802 -4.74985,21.32712 -4.74985,21.32712l-1.63175,-8.71463l4.20613,-4.5905" data-paper-data="{&quot;index&quot;:null}" fill="none" stroke="#5100a4" stroke-width="12.5" stroke-linecap="round"/><g fill="none" stroke="#000000" stroke-width="9" stroke-linecap="round"><path d="M254.24961,182.45672l21.5527,-50.32063l-4.77969,81.5977l-2.41974,-7.71069" data-paper-data="{&quot;index&quot;:null}"/><g><path d="M183.59642,206.43763l-1.94027,3.07722l0.88993,4.51954l17.07629,-89.38475l25.43411,52.38002"/><path d="M276.42034,178.42397l41.20182,-50.1685l-10.6391,86.10594l-1.9523,-6.58787l3.14716,-5.39165" data-paper-data="{&quot;index&quot;:null}"/><path d="M222.37428,201.15708l-3.70909,5.25341l0.90064,4.61531l10.96055,-76.1065l8.10856,49.16939"/></g></g><g stroke="#000000" stroke-linecap="butt"><path d="M220.14727,160.12506c1.64955,-0.50571 3.63833,1.37535 4.44204,4.20144c0.80372,2.82612 0.11803,5.52707 -1.53152,6.03277c-1.64955,0.50571 -3.63834,-1.37531 -4.44203,-4.20143c-0.80372,-2.82612 -0.11804,-5.52709 1.53152,-6.03278z" fill="#000000" stroke-width="1"/><path d="M200.66475,197.19607c-12.39413,1.32926 -23.74997,-9.87183 -25.36403,-25.01838c-1.61402,-15.14651 7.12504,-28.50273 19.51914,-29.83199c12.39413,-1.32926 23.74994,9.87188 25.36397,25.0184c1.61402,15.14651 -7.12494,28.50274 -19.51909,29.83199z" fill="#000000" stroke-width="0"/><path d="M211.46897,199.43592c-11.91128,1.27749 -22.82475,-9.48726 -24.37591,-24.04371c-1.55115,-14.55643 6.84746,-27.39236 18.75874,-28.66984c11.91128,-1.27749 22.82471,9.48731 24.37585,24.04371c1.55115,14.55643 -6.84739,27.39237 -18.7587,28.66982z" fill="#000000" stroke-width="0"/><path d="M209.11957,191.23564c-12.39413,1.32926 -23.74999,-9.87183 -25.36403,-25.01838c-1.61402,-15.14651 7.12503,-28.50272 19.51913,-29.83199c12.39413,-1.32926 23.74997,9.87187 25.36396,25.01837c1.61402,15.14651 -7.12495,28.50273 -19.5191,29.83199z" fill="#000000" stroke-width="0"/><path d="M208.81088,196.41042c-12.39413,1.32926 -23.74999,-9.87183 -25.36402,-25.01839c-1.61402,-15.14651 7.12498,-28.50271 19.51912,-29.83198c12.39413,-1.32926 23.74997,9.87187 25.36396,25.01837c1.61402,15.14651 -7.12496,28.50274 -19.51911,29.832z" fill="#000000" stroke-width="0"/><path d="M208.69858,195.78127c-12.74304,2.41119 -25.22515,-6.99675 -27.8796,-21.01321c-2.04271,-10.78617 3.15859,-20.27913 10.93585,-26.39744c2.32916,-1.83234 3.8312,-5.7651 6.76799,-6.3208c4.30635,-0.81483 10.69874,-0.7685 14.66145,1.28757c6.4386,3.34064 9.78675,8.89044 11.63603,16.60208c0.38054,1.58677 0.39317,5.00801 0.69308,6.5916c0.59796,3.15748 1.52429,10.50192 1.20865,13.43286c-1.08557,10.07989 -8.15108,13.94932 -18.02348,15.81734z" fill="#0a0300" stroke-width="1"/><path d="M203.02954,145.45327c2.50205,-0.47342 5.27116,3.05475 5.81839,5.94423c0.54722,2.88949 -1.48333,3.26131 -3.98538,3.73477c-2.50205,0.47343 -4.52806,0.86917 -5.07528,-2.02032c-0.54722,-2.88949 0.74021,-7.18525 3.24226,-7.65867z" fill="#000000" stroke-width="1"/><path d="M183.728,157.66307c1.83775,-0.86723 4.29113,0.6032 5.47973,3.28429c1.18861,2.68109 0.66242,5.55754 -1.17532,6.42479c-1.83775,0.86723 -4.29115,-0.60318 -5.47975,-3.28427c-1.18861,-2.68108 -0.6624,-5.55756 1.17534,-6.42481z" fill="#000000" stroke-width="1"/><path d="M213.24849,175.85499c2.05235,0.40985 3.27558,3.0901 2.73224,5.98655c-0.54339,2.89644 -2.64764,4.91226 -4.69996,4.50239c-2.05235,-0.40985 -3.27561,-3.09012 -2.73223,-5.98655c0.54339,-2.89644 2.64763,-4.91226 4.69995,-4.50238z" fill="#000000" stroke-width="1"/><path d="M200.77126,162.68054c2.06051,-0.38988 5.77247,1.32876 6.15553,3.35138c0.38304,2.02265 -2.51767,2.64413 -4.57816,3.03402c-2.06051,0.38988 -4.4673,1.67591 -4.85037,-0.34674c-0.38304,-2.02265 1.21253,-5.64879 3.27304,-6.03868z" fill="#000000" stroke-width="1"/><path d="M189.48013,182.07969c0.10258,-2.38534 1.52407,-4.22941 3.17494,-4.11882c1.65087,0.11057 2.90598,2.13393 2.80336,4.51928c-0.10258,2.38534 -1.52404,4.22939 -3.17494,4.11881c-1.65087,-0.11057 -2.90601,-2.1339 -2.80337,-4.51925z" data-paper-data="{&quot;index&quot;:null}" fill="#000000" stroke-width="1"/></g><path d="M162.24681,163.48492c5.56715,-2.40749 22.37722,-2.87996 22.37722,-2.87996l1.36921,17.40114c0,0 -7.9026,-3.18098 -14.47249,-5.92558c-6.14548,-2.56728 -21.00781,-2.60318 -21.00781,-2.60318c0,0 7.24,-4.04904 11.73387,-5.99239z" fill="url(#color-1)" stroke="#000000" stroke-width="4" stroke-linecap="butt"/><g stroke="#000000" stroke-width="0" stroke-linecap="butt"><path d="M334.09294,179.31483c0.18976,12.28022 -9.95937,22.48441 -22.6687,22.79161c-12.70931,0.30724 -23.16614,-9.39876 -23.3559,-21.67902c-0.18976,-12.28022 9.95937,-22.48441 22.66868,-22.79163c12.70931,-0.30724 23.16616,9.39877 23.35592,21.67903z" fill="#000000"/><g><path d="M325.20849,179.3602c0.20135,12.28021 -10.62236,22.48523 -24.17538,22.79351c-13.55303,0.30831 -24.70323,-9.39685 -24.90458,-21.67709c-0.20135,-12.28021 10.62235,-22.48523 24.17538,-22.79351c13.55303,-0.30831 24.70324,9.39686 24.90459,21.67709z" fill="#000000"/><path d="M329.21064,183.0166c0.18976,12.28022 -9.95937,22.48441 -22.6687,22.79161c-12.70931,0.30724 -23.16614,-9.39877 -23.3559,-21.67903c-0.18976,-12.28022 9.95937,-22.48441 22.66866,-22.79162c12.70931,-0.30724 23.16617,9.39878 23.35594,21.67903z" fill="#000000"/><path d="M329.4586,176.75175c0.18238,11.80182 -9.57137,21.6085 -21.78559,21.90377c-12.21419,0.29527 -22.26365,-9.03268 -22.44602,-20.83451c-0.18238,-11.80182 9.57136,-21.60846 21.78558,-21.90373c12.21419,-0.29527 22.26366,9.03264 22.44603,20.83449z" fill="#000000"/><path d="M326.74949,180.61967c0.16824,10.88725 -11.17092,22.29131 -21.78023,22.54781c-3.18261,0.07693 -8.79592,0.73274 -11.46077,-0.60919c-6.21847,-3.13148 -7.93591,-11.0183 -8.05369,-18.63961c-0.16824,-10.88725 7.99975,-20.24264 18.60906,-20.4991c7.05904,-0.17064 13.37741,1.25209 17.65799,6.2912c2.15288,2.53428 4.97134,7.26565 5.02764,10.90896z" fill="#060200"/></g></g><g stroke="#000000" stroke-linecap="butt"><path d="M245.64874,145.48306c-0.30813,-2.38284 2.7764,-4.67672 6.88945,-5.12345c4.11308,-0.44676 7.69715,1.12273 8.00528,3.50558c0.30813,2.38284 -2.77636,4.67671 -6.88945,5.12345c-4.11308,0.44676 -7.69717,-1.12273 -8.0053,-3.50557z" fill="#000000" stroke-width="1"/><path d="M292.43779,180.85554c-1.11264,17.32957 -19.36387,30.32048 -40.76534,29.01602c-21.40138,-1.3045 -37.84861,-16.41045 -36.73596,-33.73995c1.11264,-17.32957 19.36392,-30.32041 40.76533,-29.01592c21.40138,1.3045 37.84865,16.41031 36.73597,33.73992z" fill="#000000" stroke-width="0"/><path d="M298.12334,166.53903c-1.06928,16.65446 -18.60952,29.13926 -39.17722,27.88564c-20.56761,-1.25365 -36.37416,-15.77113 -35.30485,-32.42557c1.06929,-16.65446 18.60958,-29.13921 39.17719,-27.88555c20.56762,1.25365 36.3742,15.77102 35.30485,32.42552z" fill="#000000" stroke-width="0"/><path d="M286.18466,167.85915c-1.11264,17.32957 -19.36385,30.32048 -40.76533,29.01603c-21.40138,-1.3045 -37.84862,-16.41044 -36.73597,-33.73995c1.11264,-17.32957 19.36393,-30.32044 40.76531,-29.01592c21.40138,1.30449 37.84864,16.41034 36.736,33.73993z" fill="#000000" stroke-width="0"/><path d="M293.29116,169.48601c-1.11264,17.32957 -19.36386,30.32048 -40.76533,29.016c-21.40138,-1.3045 -37.84862,-16.41037 -36.73598,-33.73993c1.11264,-17.32957 19.36392,-30.32045 40.7653,-29.01593c21.40138,1.3045 37.84864,16.41034 36.736,33.73993z" fill="#000000" stroke-width="0"/><path d="M292.39144,169.49399c0.30534,18.06023 -15.72654,33.01461 -35.8082,33.40163c-15.45355,0.29781 -27.38442,-9.05174 -34.01827,-21.15435c-1.98675,-3.62453 -7.08524,-6.60144 -7.15559,-10.76367c-0.10318,-6.10323 1.48624,-14.87097 5.28454,-19.8349c6.17141,-8.06542 14.67078,-11.37321 25.81216,-12.12014c2.29248,-0.1537 7.04259,0.62422 9.31144,0.5805c4.52377,-0.08718 14.93545,0.34803 18.92691,1.4628c13.72721,3.83398 17.41046,14.43637 17.64702,28.42815z" fill="#0a0300" stroke-width="1"/><path d="M221.20704,165.5798c-0.05995,-3.54605 5.4962,-6.52868 9.63599,-6.60847c4.13983,-0.0798 4.1713,2.79515 4.23127,6.34122c0.05995,3.54605 0.12568,6.42031 -4.01415,6.50011c-4.13983,0.0798 -9.79317,-2.68682 -9.85312,-6.23285z" fill="#000000" stroke-width="1"/><path d="M233.54354,194.92448c-0.76485,-2.72534 1.86074,-5.75269 5.86443,-6.76172c4.00369,-1.00903 7.86935,0.38222 8.63422,3.10754c0.76485,2.72534 -1.86073,5.75272 -5.86442,6.76175c-4.00369,1.00903 -7.86936,-0.38226 -8.63423,-3.10758z" fill="#000000" stroke-width="1"/><path d="M265.82855,158.6136c1.05833,-2.72317 5.06914,-3.77996 8.95842,-2.36048c3.88926,1.41954 6.18421,4.77783 5.12588,7.50098c-1.05833,2.72317 -5.06918,3.78001 -8.95843,2.36047c-3.88926,-1.41954 -6.18421,-4.77784 -5.12587,-7.50097z" fill="#000000" stroke-width="1"/><path d="M244.57178,172.68574c-0.04936,-2.92029 3.22091,-7.61828 6.11878,-7.67416c2.89788,-0.05584 3.06814,4.07211 3.11753,6.99237c0.04936,2.92029 1.25958,6.52442 -1.63833,6.58028c-2.89788,0.05584 -7.54862,-2.97826 -7.59798,-5.89855z" fill="#000000" stroke-width="1"/><path d="M268.79482,192.70114c-3.28526,-0.69538 -5.50483,-3.07615 -4.95752,-5.31754c0.54728,-2.24141 3.65424,-3.49467 6.9395,-2.79923c3.28526,0.69538 5.50482,3.07612 4.95751,5.31754c-0.54728,2.24141 -3.6542,3.4947 -6.93946,2.79927z" data-paper-data="{&quot;index&quot;:null}" fill="#000000" stroke-width="1"/></g><g data-paper-data="{&quot;index&quot;:null}" fill="none" stroke="#000000" stroke-width="1.5" stroke-linecap="round"><path d="M240.84026,208.42463l-3.01334,2.40865"/><path d="M236.27693,203.38827l-4.73636,3.85563"/><path d="M244.25834,216.34787l1.40681,-8.37274"/><path d="M227.50056,196.49117l-3.50935,2.49282"/><path d="M260.75519,213.32862l0.49482,-4.43782"/><path d="M257.32662,209.76549l-0.15533,9.88134"/><path d="M281.13825,209.27066l-6.05908,-6.68893"/><path d="M281.31685,197.90718l8.0193,3.62581"/><path d="M294.11912,194.71289l-6.77559,-1.62314"/><path d="M295.45604,190.78679l-3.3606,-2.54079"/><path d="M297.28222,155.73444l4.30366,-3.37035"/><path d="M298.66574,148.84398l-3.85544,1.89697"/><path d="M281.13684,131.88826l-2.61949,4.39374"/><path d="M252.5658,134.04983l-1.58325,-7.44627"/><path d="M230.08337,131.11269l4.55774,7.50795"/><path d="M227.94982,142.78405l-1.5988,-6.45806"/><path d="M262.57514,207.33741l1.97606,9.49724"/><path d="M299.38374,183.37256l-3.2448,-1.79708"/><path d="M296.81541,176.4001l5.05663,0.1048"/><path d="M304.65781,169.64348l-4.79182,1.97644l-2.38503,0.29646"/><path d="M306.55126,162.76349l-7.19862,3.65632l-1.46551,-1.41426"/><path d="M303.68003,156.13074l-5.14363,5.42878"/><path d="M294.07077,142.78507l-4.24044,4.75555"/><path d="M291.15059,139.26487l-4.52699,4.05769"/><path d="M287.21803,132.29874l-6.57069,9.61663"/><path d="M267.69545,136.01102l1.60687,-7.57784"/><path d="M263.92641,129.70564l-0.08698,5.53358"/><path d="M257.3662,130.60746l3.69835,10.80147"/><g><path d="M242.3198,205.5006l-2.87166,2.41158"/><path d="M229.02321,206.51827l4.51374,-3.86027"/><path d="M246.60053,216.46236l1.3461,-8.37395"/><path d="M226.42888,200.60835l3.86666,-2.77047"/><path d="M249.89848,207.93425l-0.47458,4.43821"/><path d="M258.34436,216.21159l0.15533,-9.88133"/><path d="M277.20094,201.28141l3.97699,4.5305"/><path d="M288.99136,198.0662l-7.63477,-3.61786"/><path d="M287.09993,189.62514l6.45175,1.61643"/><path d="M294.82789,187.3142l-3.19872,-2.53747"/><path d="M300.69462,148.88604l-4.10125,3.37454"/><path d="M297.9161,145.36876l-3.67328,1.9008"/><path d="M279.48319,127.44912l-3.85089,9.304"/><path d="M276.01577,127.61681l-2.81629,9.81965"/><path d="M254.02915,126.63733l1.47619,9.10192"/><path d="M238.49724,138.06133l-5.8849,-10.35581"/><path d="M227.66151,132.92173l2.44656,8.23845"/><path d="M263.43917,207.77385l1.93027,5.97079"/><path d="M295.48519,178.10235l3.08896,1.79382"/><path d="M300.94911,173.02619l-4.81583,-0.09982"/><path d="M303.60737,166.16211l-4.56513,1.98116l-2.27171,0.29885"/><path d="M305.4158,159.28031l-6.85863,3.66338l-1.39467,-1.41272"/><path d="M302.68629,152.65056l-4.90281,5.43373"/><path d="M293.54447,139.31449l-4.04206,4.75963"/><path d="M290.76601,135.7974l-4.31451,4.06207"/><path d="M284.79272,131.7376l-3.78055,6.1489"/><path d="M269.96605,124.98733l-1.53604,7.57931"/><path d="M266.29449,133.17711l0.08699,-5.53354"/><path d="M262.11082,137.97102l-3.51419,-10.79761"/></g><path d="M272.1293,213.59794l-2.61181,-6.50275"/><path d="M272.56812,204.6121l4.06648,6.31159"/><path d="M267.94329,214.89503l-0.56228,-2.08745l-0.84889,-4.75423"/><path d="M248.48616,127.65571l0.21574,7.30804"/><path d="M245.84133,135.73636l-1.08108,-6.94162"/><path d="M238.99494,125.72922l2.89748,8.91116"/><path d="M232.18544,199.27747l-3.04518,4.43434"/><path d="M241.17812,213.99423l3.46195,-7.93805"/><path d="M238.04748,204.93431l-3.04517,4.43435"/><path d="M253.62213,217.36582l1.60687,-7.57783"/><path d="M299.61047,187.8747l-6.74895,-6.02122"/></g><g fill="none" stroke="#000000" stroke-width="1.5" stroke-linecap="round"><path d="M213.81921,198.09963l2.01105,1.84355"/><path d="M221.20075,198.52057l-3.16099,-2.95102"/><path d="M210.26339,197.37712l0.93888,6.40836"/><path d="M222.38615,188.5875l2.3421,1.90798"/><path d="M207.07514,202.79924l-0.33022,-3.39663"/><path d="M202.58433,206.31045l-0.10367,-7.56302"/><path d="M186.58912,198.3687l4.04376,-5.11961"/><path d="M181.11797,192.44641l5.35196,-2.77514"/><path d="M182.44782,185.98412l-4.52192,1.24231"/><path d="M177.03366,184.22145l2.24283,-1.94469"/><path d="M175.8149,157.39297l-2.8722,-2.57963"/><path d="M174.89155,152.11914l2.57307,1.45191"/><path d="M188.67873,143.84758l-1.74822,-3.36291"/><path d="M205.65799,140.79594l1.05665,-5.69925"/><path d="M220.66242,138.54789l-3.04176,5.74645"/><path d="M222.69945,142.28223l-1.06701,4.9429"/><path d="M197.65911,204.15805l1.31879,-7.26902"/><path d="M174.41235,178.54672l2.16554,-1.37545"/><path d="M176.12643,173.21012l-3.37473,0.08024"/><path d="M175.68226,169.77836l-1.59173,-0.22692l-3.198,-1.51273"/><path d="M175.41117,164.48896l-0.97806,1.08245l-4.80426,-2.79849"/><path d="M171.54508,157.69627l3.43278,4.15509"/><path d="M177.95818,147.48172l2.83,3.63982"/><path d="M182.92831,147.89312l-3.02125,-3.10567"/><path d="M183.21245,139.64753l4.38518,7.3604"/><path d="M195.56068,142.29701l-1.0724,-5.79993"/><path d="M198.07607,137.47095l0.05804,4.23532"/><path d="M199.98603,146.42846l2.46824,-8.26726"/><g><path d="M214.41251,197.32897l-1.91651,-1.84581"/><path d="M219.52341,195.69435l-3.01241,-2.95457"/><path d="M208.74075,197.46381l0.89835,6.40927"/><path d="M220.52084,189.61826l2.58055,2.12049"/><path d="M205.75943,196.77812l0.31673,3.39694"/><path d="M201.80145,203.68116l-0.10367,-7.563"/><path d="M186.75127,192.00536l-2.65418,3.46757"/><path d="M178.63596,191.04896l5.09534,-2.76904"/><path d="M178.3046,184.56954l4.3058,-1.23719"/><path d="M179.58765,179.62146l-2.13478,1.94212"/><path d="M173.53752,152.15131l2.73711,2.58283"/><path d="M178.70503,151.49307l-3.31318,-2.03383"/><path d="M190.26374,144.40004l-2.57003,-7.12112"/><path d="M191.88737,143.38801l-1.87956,-7.51581"/><path d="M204.7034,139.43966l0.98519,-6.96647"/><path d="M218.97463,135.9401l-3.92749,7.92617"/><path d="M219.28425,145.98224l1.6328,-6.30559"/><path d="M197.113,201.793l1.28824,-4.56994"/><path d="M177.0142,174.51297l-2.06153,1.37297"/><path d="M176.58167,170.5514l-3.21402,0.07641"/><path d="M176.15638,167.11923l-1.51611,-0.22874l-3.04672,-1.51632"/><path d="M175.89479,161.82954l-0.93079,1.08126l-4.57734,-2.80389"/><path d="M175.48036,159.19151l-3.27206,-4.15887"/><path d="M178.3094,144.82542l2.69762,3.64295"/><path d="M181.64308,142.63048l2.87943,3.10903"/><path d="M186.50307,144.11623l-2.52307,-4.70628"/><path d="M195.07043,139.66076l-1.02512,-5.80107"/><path d="M196.49565,140.12797l-0.05804,-4.23528"/><path d="M201.63309,135.53284l-2.34532,8.26432"/></g><path d="M192.60159,201.68073l1.74308,-4.73073"/><path d="M189.5948,199.6339l2.71392,-4.83078"/><path d="M196.33707,195.98003l-0.56654,5.09576l-0.37526,1.5977"/><path d="M208.88067,133.88623l-0.14398,5.59347"/><path d="M211.53877,134.5029l-0.7215,5.313"/><path d="M214.71499,134.42747l-1.93373,6.82045"/><path d="M219.25953,190.72009l2.03231,3.39396"/><path d="M213.25795,201.98402l-2.31045,-6.07564"/><path d="M217.37961,198.44371l-2.03231,-3.39399"/><path d="M204.953,204.56459l-1.0724,-5.79993"/><path d="M174.26105,181.9926l4.50415,-4.60855"/></g><g stroke-linecap="butt"><path d="M304.04417,179.20733c-0.00697,-5.64057 4.5243,-10.21885 10.12086,-10.22588c5.59657,-0.00702 10.13913,4.55986 10.1461,10.20044c0.00697,5.64057 -4.5243,10.21886 -10.12086,10.22589c-5.59657,0.00702 -10.13913,-4.55988 -10.1461,-10.20045z" fill="#5100a4" stroke="#000000" stroke-width="2.5"/><path d="M312.05929,180.63067c-0.00305,-2.46527 1.97739,-4.46628 4.42344,-4.46933c2.44603,-0.00307 4.43141,1.99293 4.43445,4.45822c0.00305,2.46527 -1.97738,4.46628 -4.42342,4.46934c-2.44603,0.00307 -4.43143,-1.99296 -4.43447,-4.45823z" fill="#000000" stroke="none" stroke-width="0.5"/><path d="M299.67935,181.09537c-0.16767,-9.40326 7.12092,-17.18118 16.27951,-17.3725c9.15858,-0.19132 16.71895,7.27641 16.88663,16.67964c0.16767,9.40326 -7.12087,17.18118 -16.27945,17.3725c-9.15858,0.19132 -16.719,-7.2764 -16.88667,-16.67964z" fill="url(#color-2)" stroke="#000000" stroke-width="0"/></g><g fill="#000000" stroke="#000000" stroke-width="1.5" stroke-linecap="butt"><path d="M318.79985,161.10734l8.93209,-5.93267l-4.21413,9.73747z"/><g><path d="M307.10995,159.38663l1.97214,-10.41362l4.0844,9.8582z"/><path d="M313.1251,159.23815l6.64002,-8.32806l-0.97461,10.55595z"/></g></g><g fill="none" stroke="#000000" stroke-width="1.5" stroke-linecap="round"><path d="M293.57059,158.83821l2.02878,0.95751"/><path d="M289.68661,161.27676l3.20175,1.54701"/><path d="M298.57331,159.49145l-2.28813,-4.81438"/><path d="M291.1544,169.38751l-2.30498,-0.92697"/><path d="M299.77262,154.44012l1.08098,2.59288"/><path d="M302.45921,150.5733l1.90972,5.92845"/><path d="M315.02498,157.92126l1.94591,-5.02323"/><path d="M319.16702,159.7157l3.54247,-3.49877"/><path d="M326.48419,159.54255l-3.25954,2.08827"/><path d="M326.61735,163.77072l1.29558,-2.08163"/><path d="M335.35726,182.51021l2.88464,1.32556"/><path d="M337.35893,186.4353l-2.37656,-0.51123"/><path d="M328.5045,196.33215l2.18913,2.21817"/><path d="M316.42118,207.64961l-0.54576,-4.74611"/><path d="M304.60677,208.35734l1.00558,-5.27068"/><path d="M301.74568,201.76446l0.35478,4.15321"/><path d="M307.57566,157.10473l-0.71884,-6.04625"/><path d="M331.34819,165.51284l-1.37233,1.61451"/><path d="M331.28875,170.13488l2.63732,-0.89177"/><path d="M332.4679,172.72744l1.30792,-0.21218l2.88323,0.40567"/><path d="M333.95986,176.82487l0.50832,-1.09229l4.45853,1.02348"/><path d="M338.64529,181.22307l-3.70676,-2.42818"/><path d="M336.0657,190.83901l-3.10768,-2.17055"/><path d="M335.18271,193.43854l-3.12914,-1.7031"/><path d="M333.82298,198.29642l-5.2313,-4.71768"/><path d="M323.46158,199.24259l2.24617,4.30261"/><path d="M322.64788,203.65946l-1.06943,-3.31995"/><path d="M318.97914,197.07673l0.05523,7.11432"/><g><path d="M297.2735,161.53062l-1.95491,-0.98253"/><path d="M294.77588,164.67612l-3.08565,-1.5863"/><path d="M299.75103,159.04933l-2.25644,-4.82506"/><path d="M292.37368,168.11806l-2.54406,-1.03571"/><path d="M301.19332,156.2607l1.07044,2.59643"/><path d="M303.71108,152.45099l1.90972,5.92843"/><path d="M317.63163,154.97559l-1.2513,3.3815"/><path d="M323.16973,158.36233l-3.34192,3.43095"/><path d="M326.82826,161.72712l-3.09063,2.03119"/><path d="M328.22535,163.8844l-1.21113,2.05307"/><path d="M335.63801,184.71622l2.77906,1.36126"/><path d="M334.50814,187.86449l3.09987,0.78761"/><path d="M327.12318,196.28644l3.74451,4.97498"/><path d="M326.08963,197.4818l3.29635,5.45523"/><path d="M317.86308,209.46299l-0.90833,-5.72616"/><path d="M307.74177,202.79176l-1.17599,7.2041"/><path d="M304.13346,207.53124l-0.23876,-5.36491"/><path d="M307.8584,152.78626l0.09048,3.91393"/><path d="M331.56596,167.74016l-1.29104,1.58703"/><path d="M334.08474,171.49039l-2.51173,0.8493"/><path d="M332.73744,174.93721l1.24883,-0.19218l2.76501,0.44563"/><path d="M334.22198,179.03721l0.4714,-1.07976l4.2812,1.08344"/><path d="M338.76702,183.48285l-3.58116,-2.47062"/><path d="M336.43125,193.01637l-3.00423,-2.20552"/><path d="M332.60384,193.8503l3.01829,1.74055"/><path d="M330.15233,195.58649l3.12383,3.08546"/><path d="M326.69396,205.51269l-2.20922,-4.3151"/><path d="M324.31925,204.49962l-1.06942,-3.31992"/><path d="M320.31615,206.05857l-0.15129,-7.08184"/></g><path d="M310.84295,154.729l0.59415,-2.96205"/><path d="M314.29889,152.63999l-0.96882,4.46933"/><path d="M309.87433,157.17193l-0.78572,-4.15067l-0.09077,-1.3499"/><path d="M314.91497,207.42473l-1.23868,-4.43874"/><path d="M312.76698,209.30151l-0.71625,-4.35975"/><path d="M310.15847,204.29668l0.12631,5.84411"/><path d="M293.10032,166.94096l-2.42029,-2.17285"/><path d="M295.10228,156.59998l3.28745,4.21567"/><path d="M295.13364,162.57192l-2.42029,-2.17287"/><path d="M303.2627,156.83195l-2.24617,-4.30261"/><path d="M330.63439,162.76296l-2.43187,4.73394"/></g><g fill="none" stroke="#000000" stroke-width="9" stroke-linecap="round"><path d="M236.29054,183.91019l21.39535,-49.74681l-4.52467,80.58337l-2.44382,-7.60685" data-paper-data="{&quot;index&quot;:null}"/><g><path d="M166.11855,207.24674l-2.29145,3.04991l0.85891,4.99289l16.79688,-88.30653l25.59769,51.64964"/><path d="M258.44757,179.89014l41.04486,-49.65123l-10.2033,85.05113l-1.5144,-6.13234l2.51655,-3.77639" data-paper-data="{&quot;index&quot;:null}"/><path d="M204.47379,202.46367l-3.69266,5.19756l0.91506,4.55468l10.72266,-75.1785l8.26218,48.52761"/></g></g><g stroke="#000000" stroke-width="0" stroke-linecap="butt"><path d="M145.63607,170.24344c0,-3.31257 2.66442,-5.99795 5.95116,-5.99795c3.28672,0 5.95116,2.68537 5.95116,5.99796c0,3.31257 -2.66443,5.99796 -5.95115,5.99796c-3.28672,0 -5.95115,-2.68537 -5.95115,-5.99796z" fill="#5100a4"/><path d="M137.09787,170.56691c-0.13903,-8.37773 6.36309,-15.29909 14.52287,-15.45931c8.15977,-0.16021 14.88723,6.50141 15.02629,14.87909c0.13903,8.37773 -6.36305,15.29909 -14.52283,15.4593c-8.15977,0.16021 -14.88729,-6.5014 -15.02632,-14.87908z" fill="url(#color-3)"/><path d="M138.14396,170.41946c-0.12676,-7.63852 5.80164,-13.94918 13.24144,-14.09526c7.4398,-0.14608 13.57367,5.92776 13.70044,13.56625c0.12676,7.63852 -5.8016,13.94918 -13.2414,14.09526c-7.4398,0.14608 -13.57371,-5.92775 -13.70047,-13.56625z" fill="url(#color-4)"/></g><path d="M193.27156,180.99685c-0.58549,-35.2807 26.79651,-64.42822 61.15933,-65.10291c34.36277,-0.67473 62.69376,27.37899 63.27936,62.65947c0.58549,35.28071 -26.79635,64.42822 -61.15917,65.10286c-34.36277,0.67473 -62.69401,-27.37894 -63.27949,-62.65943z" fill="url(#color-5)" stroke="#000000" stroke-width="0" stroke-linecap="butt"/><path d="M133.93849,179.87662c-0.6026,-36.31198 27.57979,-66.31149 62.94705,-67.00588c35.36722,-0.69445 64.52632,28.17928 65.12905,64.49102c0.6026,36.31197 -27.57962,66.31149 -62.94688,67.00585c-35.36722,0.69445 -64.52658,-28.17924 -65.12918,-64.49097z" fill="url(#color-6)" stroke="#000000" stroke-width="0" stroke-linecap="butt"/><path d="M221.7717,179.95534c-0.59425,-35.80855 27.19743,-65.39217 62.07437,-66.07694c34.87689,-0.68482 63.63174,27.78861 64.22611,63.59695c0.59425,35.80855 -27.19727,65.39216 -62.07421,66.07689c-34.87689,0.68482 -63.632,-27.78856 -64.22624,-63.5969z" fill="url(#color-7)" stroke="#000000" stroke-width="0" stroke-linecap="butt"/><path d="M159.27272,178.47456c-0.56885,-34.27813 26.03502,-62.59733 59.42133,-63.25282c33.38626,-0.65556 60.91214,26.60092 61.48111,60.87882c0.56885,34.27812 -26.03486,62.59733 -59.42117,63.25279c-33.38626,0.65556 -60.91238,-26.60088 -61.48123,-60.87878z" fill="url(#color-8)" stroke="#000000" stroke-width="0" stroke-linecap="butt"/></g></g></svg>