<svg version="1.1" xmlns="http://www.w3.org/2000/svg" xmlns:xlink="http://www.w3.org/1999/xlink" width="45.93724" height="88.65386" viewBox="0,0,45.93724,88.65386"><defs><linearGradient x1="269.20698" y1="131.76244" x2="248.87978" y2="118.45172" gradientUnits="userSpaceOnUse" id="color-1"><stop offset="0" stop-color="#868686"/><stop offset="1" stop-color="#4c4c4c"/></linearGradient><linearGradient x1="201.99289" y1="188.72252" x2="199.02305" y2="191.69237" gradientUnits="userSpaceOnUse" id="color-2"><stop offset="0" stop-color="#333333"/><stop offset="1" stop-color="#515151"/></linearGradient><linearGradient x1="251.1002" y1="168.30422" x2="228.77877" y2="168.30422" gradientUnits="userSpaceOnUse" id="color-3"><stop offset="0" stop-color="#3d3d3d"/><stop offset="1" stop-color="#2e2e2e"/></linearGradient><linearGradient x1="245.97887" y1="154.2928" x2="235.63949" y2="154.2928" gradientUnits="userSpaceOnUse" id="color-4"><stop offset="0" stop-color="#cc0000"/><stop offset="1" stop-color="#260505"/></linearGradient><linearGradient x1="234.55225" y1="172.35744" x2="245.54292" y2="172.35744" gradientUnits="userSpaceOnUse" id="color-5"><stop offset="0" stop-color="#260505"/><stop offset="1" stop-color="#cc0000"/></linearGradient></defs><g transform="translate(-222.32892,-106.93913)"><g data-paper-data="{&quot;isPaintingLayer&quot;:true}" fill-rule="nonzero" stroke-linejoin="miter" stroke-miterlimit="10" stroke-dasharray="" stroke-dashoffset="0" style="mix-blend-mode: normal"><path d="M239.95254,194.09299c-4.53359,0 -8.20878,-3.77468 -8.20878,-8.43097c0,-4.6563 3.67519,-8.43097 8.20878,-8.43097c4.53359,0 8.20878,3.77468 8.20878,8.43097c0,4.6563 -3.67519,8.43097 -8.20878,8.43097z" data-paper-data="{&quot;index&quot;:null}" fill="#0d0d0d" stroke="#000000" stroke-width="3" stroke-linecap="butt"/><g data-paper-data="{&quot;index&quot;:null}" stroke="#000000"><path d="M224.82892,152.25164l33.50237,-42.81251" fill="none" stroke-width="5" stroke-linecap="round"/><path d="M251.86163,110.903c0,0 5.71939,2.06695 7.75803,3.1518c1.83789,0.97803 5.28006,4.00972 5.28006,4.00972l1.6822,3.13358l-3.03011,-0.04144l1.44258,3.15057l-3.24534,-0.38782l1.69891,3.29624l-3.64059,-0.7398l1.75967,3.33182l-3.63628,-0.54459l1.67173,2.62428l-3.06346,-0.74832l1.24433,2.62168l-2.85399,-0.47022c0,0 -3.95879,-1.6951 -5.59002,-2.98874c-1.80938,-1.43492 -6.58881,-7.63778 -6.10192,-7.85164c1.64326,-0.72171 7.46983,-0.21778 8.57192,-1.90082c1.45603,-2.22356 0.05227,-9.64637 0.05227,-9.64637z" fill="url(#color-1)" stroke-width="2" stroke-linecap="butt"/><path d="M249.78417,118.50726l-2.91156,-2.22873" fill="none" stroke-width="7" stroke-linecap="round"/></g><path d="M235.92361,184.85852c0,-2.1401 1.7349,-3.875 3.875,-3.875c2.1401,0 3.875,1.7349 3.875,3.875c0,2.1401 -1.7349,3.875 -3.875,3.875c-2.1401,0 -3.875,-1.7349 -3.875,-3.875z" data-paper-data="{&quot;index&quot;:null}" fill="#525252" stroke="none" stroke-width="NaN" stroke-linecap="butt"/><path d="" data-paper-data="{&quot;index&quot;:null}" fill="url(#color-2)" stroke="#000000" stroke-width="1.5" stroke-linecap="butt"/><path d="M251.1002,187.27964c0,0 -2.36213,0 -4.28139,0c-1.18954,0 -4.30543,-3.75 -6.67979,-3.75c-2.83123,0 -5.03001,3.75 -7.46401,3.75c-2.28517,0 -3.89624,0 -3.89624,0c0,0 -0.16667,-29.18012 -0.16667,-35.10553c0,-2.13071 1.72818,-5.84533 3.36123,-5.84533c4.54027,0 12.9629,0 15.50132,0c1.21779,0 3.46064,3.09852 3.46064,5.14533c0,5.8451 0.16491,35.80552 0.16491,35.80552z" data-paper-data="{&quot;index&quot;:null}" fill="url(#color-3)" stroke="#000000" stroke-width="3" stroke-linecap="butt"/><path d="M235.63949,157.18709c0,0 -0.74743,-2.01498 -0.74743,-3.06453c0,-0.82579 0.74743,-2.72403 0.74743,-2.72403h10.33938c0,0 0.74743,1.84472 0.74743,2.89428c0,0.82578 -0.74743,2.89428 -0.74743,2.89428z" data-paper-data="{&quot;index&quot;:null}" fill="url(#color-4)" stroke="#000000" stroke-width="2" stroke-linecap="butt"/><path d="M236.29484,184.86183v-21.66667h7.5v21.66667c0,0 -2.7642,-1.33333 -4,-1.33333c-1.26358,0 -3.5,1.33333 -3.5,1.33333z" data-paper-data="{&quot;index&quot;:null}" fill="#191919" stroke="#000000" stroke-width="3" stroke-linecap="butt"/><path d="M240.04758,177.60278l-5.49533,-5.24533l5.49533,-5.24534l5.49534,5.24534z" data-paper-data="{&quot;index&quot;:null}" fill="url(#color-5)" stroke="#000000" stroke-width="2" stroke-linecap="butt"/><path d="M240.12618,146.3714v-12.92205" data-paper-data="{&quot;index&quot;:null}" fill="none" stroke="#000000" stroke-width="3" stroke-linecap="round"/></g></g></svg>