<svg version="1.1" xmlns="http://www.w3.org/2000/svg" xmlns:xlink="http://www.w3.org/1999/xlink" width="130.29857" height="91.84205" viewBox="0,0,130.29857,91.84205"><defs><linearGradient x1="371.21168" y1="268.48449" x2="371.21168" y2="279.21783" gradientUnits="userSpaceOnUse" id="color-1"><stop offset="0" stop-color="#808080"/><stop offset="1" stop-color="#3e3e3e"/></linearGradient><linearGradient x1="383.51169" y1="268.58449" x2="383.51169" y2="279.31783" gradientUnits="userSpaceOnUse" id="color-2"><stop offset="0" stop-color="#808080"/><stop offset="1" stop-color="#3e3e3e"/></linearGradient><linearGradient x1="345.96168" y1="268.37735" x2="345.96168" y2="279.11069" gradientUnits="userSpaceOnUse" id="color-3"><stop offset="0" stop-color="#808080"/><stop offset="1" stop-color="#3e3e3e"/></linearGradient><linearGradient x1="358.26169" y1="268.47735" x2="358.26169" y2="279.21069" gradientUnits="userSpaceOnUse" id="color-4"><stop offset="0" stop-color="#808080"/><stop offset="1" stop-color="#3e3e3e"/></linearGradient><linearGradient x1="320.10453" y1="268.23449" x2="320.10453" y2="278.96783" gradientUnits="userSpaceOnUse" id="color-5"><stop offset="0" stop-color="#808080"/><stop offset="1" stop-color="#3e3e3e"/></linearGradient><linearGradient x1="332.40454" y1="268.33449" x2="332.40454" y2="279.06783" gradientUnits="userSpaceOnUse" id="color-6"><stop offset="0" stop-color="#808080"/><stop offset="1" stop-color="#3e3e3e"/></linearGradient></defs><g transform="translate(-261.52978,-188.47578)"><g data-paper-data="{&quot;isPaintingLayer&quot;:true}" fill-rule="nonzero" stroke="#000000" stroke-linecap="butt" stroke-linejoin="miter" stroke-miterlimit="10" stroke-dasharray="" stroke-dashoffset="0" style="mix-blend-mode: normal"><path d="M374.56175,276.2873c0.6873,1.21134 2.46275,2.93053 2.46275,2.93053h-11.62564c0,0 1.56485,-1.37707 2.13351,-2.47968c1.00947,-1.9573 3.40215,-8.25366 3.40215,-8.25366c0,0 2.50574,5.82622 3.62723,7.80281z" data-paper-data="{&quot;index&quot;:null}" fill="url(#color-1)" stroke-width="2"/><path d="M386.86176,276.3873c0.6873,1.21134 2.46275,2.93053 2.46275,2.93053h-11.62564c0,0 1.56485,-1.37707 2.13351,-2.47968c1.00947,-1.9573 3.40215,-8.25366 3.40215,-8.25366c0,0 2.50574,5.82622 3.62723,7.80281z" data-paper-data="{&quot;index&quot;:null}" fill="url(#color-2)" stroke-width="2"/><path d="M349.31175,276.18016c0.6873,1.21134 2.46275,2.93053 2.46275,2.93053h-11.62564c0,0 1.56485,-1.37707 2.13351,-2.47968c1.00947,-1.9573 3.40215,-8.25366 3.40215,-8.25366c0,0 2.50574,5.82622 3.62723,7.80281z" data-paper-data="{&quot;index&quot;:null}" fill="url(#color-3)" stroke-width="2"/><path d="M361.61176,276.28016c0.6873,1.21134 2.46275,2.93053 2.46275,2.93053h-11.62564c0,0 1.56485,-1.37707 2.13351,-2.47968c1.00947,-1.9573 3.40215,-8.25366 3.40215,-8.25366c0,0 2.50574,5.82622 3.62723,7.80281z" data-paper-data="{&quot;index&quot;:null}" fill="url(#color-4)" stroke-width="2"/><path d="M323.4546,276.0373c0.6873,1.21134 2.46275,2.93053 2.46275,2.93053h-11.62564c0,0 1.56485,-1.37707 2.13351,-2.47968c1.00947,-1.9573 3.40215,-8.25366 3.40215,-8.25366c0,0 2.50574,5.82622 3.62723,7.80281z" data-paper-data="{&quot;index&quot;:null}" fill="url(#color-5)" stroke-width="2"/><path d="M335.75461,276.1373c0.6873,1.21134 2.46275,2.93053 2.46275,2.93053h-11.62564c0,0 1.56485,-1.37707 2.13351,-2.47968c1.00947,-1.9573 3.40215,-8.25366 3.40215,-8.25366c0,0 2.50574,5.82622 3.62723,7.80281z" data-paper-data="{&quot;index&quot;:null}" fill="url(#color-6)" stroke-width="2"/><path d="M379.54501,223.82401c0,0 6.29636,-2.39269 8.25366,-3.40215c1.1026,-0.56866 2.47968,-2.13351 2.47968,-2.13351v11.62564c0,0 -1.7192,-1.77545 -2.93052,-2.46275c-1.97658,-1.1215 -7.80282,-3.62723 -7.80282,-3.62723z" fill="#140404" stroke-width="2.5"/><path d="M379.74501,236.724c0,0 6.29636,-2.39268 8.25366,-3.40215c1.10261,-0.56866 2.47968,-2.13351 2.47968,-2.13351v11.62564c0,0 -1.71919,-1.77545 -2.93053,-2.46275c-1.97659,-1.12149 -7.80281,-3.62723 -7.80281,-3.62723z" fill="#140404" stroke-width="2.5"/><path d="M379.84501,249.02402c0,0 6.29636,-2.39268 8.25366,-3.40215c1.10261,-0.56866 2.47968,-2.13351 2.47968,-2.13351v11.62564c0,0 -1.71919,-1.77545 -2.93053,-2.46275c-1.97659,-1.12149 -7.80281,-3.62723 -7.80281,-3.62723z" fill="#140404" stroke-width="2.5"/><path d="M379.54501,197.32401c0,0 6.29636,-2.39269 8.25366,-3.40215c1.1026,-0.56866 2.47968,-2.13351 2.47968,-2.13351v11.62564c0,0 -1.7192,-1.77545 -2.93052,-2.46275c-1.97658,-1.1215 -7.80282,-3.62723 -7.80282,-3.62723z" fill="#140404" stroke-width="2.5"/><path d="M379.34501,211.02402c0,0 6.29636,-2.39268 8.25366,-3.40215c1.10261,-0.56866 2.47968,-2.13351 2.47968,-2.13351v11.62564c0,0 -1.71919,-1.77545 -2.93053,-2.46275c-1.97659,-1.12149 -7.80281,-3.62723 -7.80281,-3.62723z" fill="#140404" stroke-width="2.5"/><path d="M264.50842,254.82401c0,0 5.14459,-2.39269 6.74385,-3.40215c0.90091,-0.56866 2.02608,-2.13351 2.02608,-2.13351v11.62564c0,0 -1.40471,-1.77545 -2.39445,-2.46275c-1.61501,-1.1215 -6.37548,-3.62723 -6.37548,-3.62723z" fill="#140404" stroke-width="2.5"/><path d="M264.34501,268.52402c0,0 5.14459,-2.39268 6.74385,-3.40215c0.90091,-0.56866 2.02608,-2.13351 2.02608,-2.13351v11.62564c0,0 -1.4047,-1.77545 -2.39446,-2.46275c-1.61502,-1.12149 -6.37547,-3.62723 -6.37547,-3.62723z" fill="#140404" stroke-width="2.5"/></g></g></svg>