<svg version="1.1" xmlns="http://www.w3.org/2000/svg" xmlns:xlink="http://www.w3.org/1999/xlink" width="513.66337" height="452.23067" viewBox="0,0,513.66337,452.23067"><g transform="translate(31.82905,91.21733)"><g data-paper-data="{&quot;isPaintingLayer&quot;:true}" fill-rule="nonzero" stroke-linejoin="miter" stroke-miterlimit="10" stroke-dasharray="" stroke-dashoffset="0" style="mix-blend-mode: normal"><path d="M-2.12364,361.01334v-48.04805h483.95796v48.04805z" data-paper-data="{&quot;index&quot;:null}" fill="#000000" stroke="none" stroke-width="NaN" stroke-linecap="butt"/><path d="M375.39449,266.41534v-356.30875h105.73574v356.30875z" data-paper-data="{&quot;index&quot;:null}" fill="#000000" stroke="none" stroke-width="0" stroke-linecap="butt"/><path d="M352.74306,174.66014v-8.5h16.52875v8.5z" fill="#000000" stroke="none" stroke-width="0" stroke-linecap="butt"/><path d="M345.48043,232.26224v-8.12417h23.7914v8.12417z" fill="#000000" stroke="none" stroke-width="0" stroke-linecap="butt"/><path d="M359.67175,116.23307v-8.13959h9.68351v8.13959z" fill="#000000" stroke="none" stroke-width="0" stroke-linecap="butt"/><path d="M368.78471,232.30742v-124.20059h7.0122v124.20059z" fill="#000000" stroke="none" stroke-width="0" stroke-linecap="butt"/><path d="M-1.40293,166.44314v-255.84294h45.13626v255.84294z" data-paper-data="{&quot;index&quot;:null}" fill="#000000" stroke="none" stroke-width="0" stroke-linecap="butt"/><path d="M-1.84621,314.62263v-98h140.40864v98z" data-paper-data="{&quot;index&quot;:null}" fill="#000000" stroke="none" stroke-width="0" stroke-linecap="butt"/><path d="M43.11812,49.92381v-141.14114h332.81081v141.14114z" fill="#000000" stroke="none" stroke-width="0" stroke-linecap="butt"/><path d="M234.79384,82.96585c0,0 -0.92998,-3.83186 -1.59498,-5.76121c-0.71265,-2.06759 -2.54788,-6.25831 -2.54788,-6.25831h123.22694v12.01952z" fill="#000000" stroke="none" stroke-width="0" stroke-linecap="butt"/><path d="M229.22202,266.84817v21.5l-4,-19.5" data-paper-data="{&quot;index&quot;:null}" fill="none" stroke="#000000" stroke-width="6" stroke-linecap="round"/><path d="M238.76375,268.94817l-4,19.5v-21.5" data-paper-data="{&quot;index&quot;:null}" fill="none" stroke="#000000" stroke-width="6" stroke-linecap="round"/><path d="M178.05539,266.68151v21.5l-4,-19.5" data-paper-data="{&quot;index&quot;:null}" fill="none" stroke="#000000" stroke-width="6" stroke-linecap="round"/><path d="M186.93039,268.78151l-4,19.5v-21.5" data-paper-data="{&quot;index&quot;:null}" fill="none" stroke="#000000" stroke-width="6" stroke-linecap="round"/><path d="M167.26369,276.04817c0,0 0,-5.26504 0,-7.7829c0,-2.37373 4.51159,-6.91737 8.68542,-6.91737c9.01761,0 43.73478,0 60.5,0c5.57476,0 9.16458,4.74854 9.16458,7.16737c0,2.47974 0,7.5329 0,7.5329z" fill="#000000" stroke="#000000" stroke-width="0" stroke-linecap="butt"/><path d="M68.81761,82.96585v-12.01952h112.72694c0,0 -1.81029,3.96816 -2.48593,5.92838c-0.70413,2.04287 -1.65692,6.09114 -1.65692,6.09114z" data-paper-data="{&quot;index&quot;:null}" fill="#000000" stroke="none" stroke-width="0" stroke-linecap="butt"/><path d="M43.16786,141.13151v-9.5h26v9.5z" fill="#000000" stroke="none" stroke-width="0" stroke-linecap="butt"/><path d="M86.42087,217.38301v-31.5h31.5v31.5z" fill="#000000" stroke="none" stroke-width="0" stroke-linecap="butt"/><g fill="#000000" stroke="none" stroke-width="0" stroke-linecap="butt"><path d="M-31.82905,153.84464h5.16511v72.64706h-5.16511z"/><path d="M-30.66939,226.30543v-10.05883h33.57325v10.05883z"/><path d="M-29.80855,165.95249v-12.29411h32.28196v12.29411z"/></g><path d="M176.98045,145.44c0,0 3.32838,-12.67986 8.31458,-12.67986c12.53802,0 35.55829,0 42.5,0c3.89406,0 8.18542,12.67986 8.18542,12.67986z" fill="#000000" stroke="none" stroke-width="0" stroke-linecap="butt"/><path d="M206.30291,144.27388v134.23626" fill="none" stroke="#000000" stroke-width="10" stroke-linecap="round"/></g></g></svg>