<svg version="1.1" xmlns="http://www.w3.org/2000/svg" xmlns:xlink="http://www.w3.org/1999/xlink" width="648.13969" height="371.69192" viewBox="0,0,648.13969,371.69192"><g transform="translate(8.10318,6.25481)"><g data-paper-data="{&quot;isPaintingLayer&quot;:true}" fill="#000000" fill-rule="nonzero" stroke="#000000" stroke-linecap="butt" stroke-linejoin="miter" stroke-miterlimit="10" stroke-dasharray="" stroke-dashoffset="0" style="mix-blend-mode: normal"><path d="M-5.76887,360.85222v-200.98693l74.5,0.26307v200.98693z" stroke-width="2.5"/><path d="M156.80453,363.93127v-33.03604h294.2943v33.03604z" stroke-width="2.5"/><path d="M436.08381,363.42977v-334.83483h163.73225v334.83483z" stroke-width="2.5"/><path d="M165.81354,45.09944v-46.53453h472.97297v46.53453z" stroke-width="2.5"/><path d="M-1.90364,87.24772v-88.66666h70.71712v88.66668z" stroke-width="1"/><path d="M67.07057,49.57983v-12.42564h49.15555v12.42564z" stroke-width="2.5"/><path d="M141.78723,32.32082v-12.42564h24.83334v12.42564z" stroke-width="2.5"/><path d="M141.7372,7.42083v-12.42564h24.85098v12.42564z" stroke-width="2.5"/><path d="M141.75311,19.92083v-12.42564h24.83333v12.42564z" stroke-width="2.5"/><path d="M-0.94003,99.55126v-12.42564h92.83334v12.42564z" stroke-width="2.5"/><path d="M92.19151,124.39312c0,0 -16.72313,0 -20.89061,0c-1.75559,0 -3.94272,-2.51512 -3.94272,-4.09362c0,-4.0367 0,-120.89512 0,-120.89512h24.83333z" data-paper-data="{&quot;index&quot;:null}" stroke-width="2.5"/><path d="M166.5402,57.34739c0,0 -16.72313,0 -20.89061,0c-1.75559,0 -3.94272,-2.51512 -3.94272,-4.09362c0,-4.0367 0,-20.73972 0,-20.73972h24.83333z" data-paper-data="{&quot;index&quot;:null}" stroke-width="2.5"/><path d="M92.10082,99.33756c0,0 165.84926,0 170.01674,0c1.75559,0 3.94272,2.51512 3.94272,4.09362c0,4.0367 0,20.88258 0,20.88258h-173.45946z" data-paper-data="{&quot;index&quot;:null}" stroke-width="2.5"/><path d="M166.54319,57.36v-12.42564h247.74444v12.42564z" data-paper-data="{&quot;index&quot;:null}" stroke-width="2.5"/><path d="M415.54844,57.25572v-24.83333c0,0 16.70302,0 20.73972,0c1.5785,0 4.09362,2.18713 4.09362,3.94272c0,4.16748 0,20.89061 0,20.89061z" data-paper-data="{&quot;index&quot;:null}" stroke-width="2.5"/><path d="M415.53041,306.98361v-249.82564h24.83334v249.82564z" stroke-width="2.5"/><path d="M241.19376,137.01633v-12.42564h24.83333v12.42564z" stroke-width="2.5"/><path d="M246.20964,149.51633v-12.42564h24.83333v12.42564z" stroke-width="2.5"/><path d="M246.1054,199.45886v-12.42564h24.83333v12.42564z" stroke-width="2.5"/><path d="M241.12129,211.95886v-12.42564h24.83333v12.42564z" stroke-width="2.5"/><path d="M265.94507,212.00795c0,0 0,16.72313 0,20.89061c0,1.75559 -2.51512,3.94272 -4.09362,3.94272c-4.0367,0 -20.73972,0 -20.73972,0v-24.83333z" data-paper-data="{&quot;index&quot;:null}" stroke-width="2.5"/><path d="M66.85518,236.80224c0,0 0,-16.82313 0,-20.99061c0,-1.75559 2.51512,-3.94272 4.09362,-3.94272c4.0367,0 169.7178,0.1 169.7178,0.1v24.83333z" data-paper-data="{&quot;index&quot;:null}" stroke-width="2.5"/><path d="M415.27571,306.8042h24.83333c0,0 0,16.70302 0,20.73972c0,1.5785 -2.18713,4.09362 -3.94272,4.09362c-4.16748,0 -20.89061,0 -20.89061,0z" data-paper-data="{&quot;index&quot;:null}" stroke-width="2.5"/><path d="M66.7398,149.61891c0,0 16.72313,0 20.89061,0c1.75559,0 3.94272,2.51512 3.94272,4.09362c0,4.0367 0,208.08882 0,208.08882h-24.83333z" data-paper-data="{&quot;index&quot;:null}" stroke-width="2.5"/><path d="M-6.85318,162.0944v-12.42564h75.74444v12.42564z" data-paper-data="{&quot;index&quot;:null}" stroke-width="2.5"/><path d="M416.70816,331.70897h-275.35886c0,0 0,-16.70302 0,-20.73972c0,-1.5785 2.18713,-4.09362 3.94272,-4.09362c4.16748,0 271.41614,0 271.41614,0z" data-paper-data="{&quot;index&quot;:null}" stroke-width="2.5"/><path d="M141.37065,364.18711v-32.42564h24.83334v32.42564z" stroke-width="2.5"/><path d="M340.91667,216.28603c0,2.77948 0,10.74105 0,15.875c0,2.67971 -2.39933,4.58906 -4.63828,4.58906c-5.17253,0 -13.2842,0 -16.10144,0c-1.5785,0 -4.09362,-2.18713 -4.09362,-3.94272c0,-2.89028 0,-11.06966 0,-16.27133c0,-2.2986 2.45796,-4.61927 4.19506,-4.61927c2.83376,0 11.0364,0 16.125,0c2.37217,0 4.51328,2.51725 4.51328,4.36927z" data-paper-data="{&quot;index&quot;:null}" stroke-width="2.5"/><path d="M266.11422,230.64577v-12.42564h49.74444v12.42564z" data-paper-data="{&quot;index&quot;:null}" stroke-width="2.5"/><path d="M401.16667,126.20269c0,2.77948 0,10.74105 0,15.875c0,2.67971 -2.39933,4.58906 -4.63828,4.58906c-5.17253,0 -13.2842,0 -16.10144,0c-1.5785,0 -4.09362,-2.18713 -4.09362,-3.94272c0,-2.89028 0,-11.06966 0,-16.27133c0,-2.2986 2.45796,-4.61927 4.19506,-4.61927c2.83376,0 11.0364,0 16.125,0c2.37217,0 4.51328,2.51725 4.51328,4.36927z" data-paper-data="{&quot;index&quot;:null}" stroke-width="2.5"/><path d="M440.22231,181.94641v12.42564h-49.5v-12.42564z" data-paper-data="{&quot;index&quot;:null}" stroke-width="2.5"/><path d="M340.85,286.3777c0,2.77948 0,10.74105 0,15.875c0,2.67971 -2.39933,4.58906 -4.63828,4.58906c-5.17253,0 -13.2842,0 -16.10144,0c-1.5785,0 -4.09362,-2.18713 -4.09362,-3.94272c0,-2.89028 0,-11.06966 0,-16.27133c0,-2.2986 2.45796,-4.61927 4.19506,-4.61927c2.83376,0 11.0364,0 16.125,0c2.37217,0 4.51328,2.51725 4.51328,4.36927z" data-paper-data="{&quot;index&quot;:null}" stroke-width="2.5"/><path d="M116.32064,356.68711v-12.42564h49.83333v12.42564z" stroke-width="2.5"/><path d="M383.50302,62.97275v-5.6h10.4v5.6z" stroke-width="2.5"/><path d="M440.16044,231.91751v12.42564h-65.08334v-12.42564z" data-paper-data="{&quot;index&quot;:null}" stroke-width="2.5"/></g></g></svg>