<svg version="1.1" xmlns="http://www.w3.org/2000/svg" xmlns:xlink="http://www.w3.org/1999/xlink" width="37.5" height="37.5" viewBox="0,0,37.5,37.5"><defs><radialGradient cx="240" cy="180" r="18.75" gradientUnits="userSpaceOnUse" id="color-1"><stop offset="0" stop-color="#ff0000"/><stop offset="1" stop-color="#ff0000" stop-opacity="0"/></radialGradient><radialGradient cx="240.47364" cy="182.41366" r="10.55337" gradientUnits="userSpaceOnUse" id="color-2"><stop offset="0" stop-color="#d8d8d8"/><stop offset="1" stop-color="#a3a3a3"/></radialGradient></defs><g transform="translate(-221.25,-161.25)"><g data-paper-data="{&quot;isPaintingLayer&quot;:true}" fill-rule="nonzero" stroke-linecap="butt" stroke-linejoin="miter" stroke-miterlimit="10" stroke-dasharray="" stroke-dashoffset="0" style="mix-blend-mode: normal"><path d="M221.25,180c0,-10.35534 8.39466,-18.75 18.75,-18.75c10.35535,0 18.75,8.39466 18.75,18.75c0,10.35535 -8.39466,18.75 -18.75,18.75c-10.35534,0 -18.75,-8.39466 -18.75,-18.75z" fill="url(#color-1)" stroke="none" stroke-width="NaN"/><path d="M245.58536,190.5033l-3.28771,0.00876l0.08445,-1.91319l-0.59405,-0.01037l-0.03337,1.96487l-3.46113,-0.0436l0.01134,-1.94477l-0.53148,-0.00616l-0.10835,1.9774l-2.93281,-0.02759c0,0 -0.62199,-1.4573 -0.61566,-2.22845c0.20814,-0.81436 -1.42272,-3.16118 -1.79129,-3.56827c-2.07683,-0.49483 -2.00263,-1.05908 -1.97222,-4.54074c0.05864,-6.7132 3.60479,-10.77407 9.32343,-10.72411c5.71864,0.04996 10.01784,4.36552 9.95917,11.07873c0,0 0.3637,3.76948 -1.96796,4.0594c-0.7054,1.0375 -1.37786,2.44847 -1.69656,3.55999z" fill="url(#color-2)" stroke="#000000" stroke-width="2"/><path d="M235.55194,179.30026c0,-1.22756 0.99512,-2.22267 2.22267,-2.22267c1.22756,0 2.22267,0.99512 2.22267,2.22267c0,1.22756 -0.99512,2.22267 -2.22267,2.22267c-1.22756,0 -2.22267,-0.99512 -2.22267,-2.22267z" fill="#9a0000" stroke="#000000" stroke-width="1.5"/><path d="M242.18882,179.35808c0,-1.22756 0.99514,-2.2227 2.2227,-2.2227c1.22756,0 2.2227,0.99514 2.2227,2.2227c0,1.22756 -0.99514,2.2227 -2.2227,2.2227c-1.22756,0 -2.2227,-0.99514 -2.2227,-2.2227z" fill="#9a0000" stroke="#000000" stroke-width="1.5"/></g></g></svg>