<svg version="1.1" xmlns="http://www.w3.org/2000/svg" xmlns:xlink="http://www.w3.org/1999/xlink" width="145.35997" height="88.42931" viewBox="0,0,145.35997,88.42931"><defs><linearGradient x1="237.21964" y1="147.13731" x2="239.39316" y2="184.017" gradientUnits="userSpaceOnUse" id="color-1"><stop offset="0" stop-color="#0f0f0f"/><stop offset="1" stop-color="#0c0c0c"/></linearGradient><linearGradient x1="236.65915" y1="146.61029" x2="237.757" y2="165.23763" gradientUnits="userSpaceOnUse" id="color-2"><stop offset="0" stop-color="#1f180f"/><stop offset="1" stop-color="#0d0b07"/></linearGradient><linearGradient x1="238.1192" y1="163.19473" x2="238.51309" y2="168.45603" gradientUnits="userSpaceOnUse" id="color-3"><stop offset="0" stop-color="#1f180f"/><stop offset="1" stop-color="#0d0b07"/></linearGradient><linearGradient x1="239.56827" y1="163.85359" x2="240.13859" y2="169.16626" gradientUnits="userSpaceOnUse" id="color-4"><stop offset="0" stop-color="#0f0f0f"/><stop offset="1" stop-color="#0c0c0c"/></linearGradient><linearGradient x1="249.17961" y1="189.12843" x2="249.4841" y2="194.72125" gradientUnits="userSpaceOnUse" id="color-5"><stop offset="0" stop-color="#1f180f"/><stop offset="1" stop-color="#0d0b07"/></linearGradient><linearGradient x1="230.31097" y1="189.15429" x2="230.05944" y2="194.75452" gradientUnits="userSpaceOnUse" id="color-6"><stop offset="0" stop-color="#1f180f"/><stop offset="1" stop-color="#0d0b07"/></linearGradient><linearGradient x1="237.13245" y1="139.81319" x2="238.28603" y2="159.3869" gradientUnits="userSpaceOnUse" id="color-7"><stop offset="0" stop-color="#0f0f0f"/><stop offset="1" stop-color="#0c0c0c"/></linearGradient><linearGradient x1="235.78805" y1="116.10295" x2="237.24586" y2="140.6606" gradientUnits="userSpaceOnUse" id="color-8"><stop offset="0" stop-color="#343434"/><stop offset="1" stop-color="#1f1f1f"/></linearGradient><linearGradient x1="236.4462" y1="138.55679" x2="236.68601" y2="142.62565" gradientUnits="userSpaceOnUse" id="color-9"><stop offset="0" stop-color="#0f0f0f"/><stop offset="1" stop-color="#0c0c0c"/></linearGradient><linearGradient x1="221.13868" y1="142.67974" x2="228.13493" y2="153.03842" gradientUnits="userSpaceOnUse" id="color-10"><stop offset="0" stop-color="#0f0f0f"/><stop offset="1" stop-color="#0c0c0c"/></linearGradient><linearGradient x1="345.67623" y1="165.95382" x2="351.05061" y2="154.00311" gradientUnits="userSpaceOnUse" id="color-11"><stop offset="0" stop-color="#1b1b1b"/><stop offset="1" stop-color="#343434"/></linearGradient><linearGradient x1="343.67228" y1="171.04415" x2="338.17051" y2="182.93674" gradientUnits="userSpaceOnUse" id="color-12"><stop offset="0" stop-color="#1b1b1b"/><stop offset="1" stop-color="#343434"/></linearGradient><linearGradient x1="254.23309" y1="159.70485" x2="271.63646" y2="159.1596" gradientUnits="userSpaceOnUse" id="color-13"><stop offset="0" stop-color="#122639"/><stop offset="1" stop-color="#141f2b"/></linearGradient><linearGradient x1="254.32171" y1="159.86883" x2="271.72512" y2="159.32359" gradientUnits="userSpaceOnUse" id="color-14"><stop offset="0" stop-color="#310b0b"/><stop offset="1" stop-color="#3a0909"/></linearGradient><linearGradient x1="263.59967" y1="156.86849" x2="263.79145" y2="162.99049" gradientUnits="userSpaceOnUse" id="color-15"><stop offset="0" stop-color="#000000"/><stop offset="1" stop-color="#0c0c0c"/></linearGradient><linearGradient x1="264.58292" y1="156.7126" x2="264.78258" y2="163.08448" gradientUnits="userSpaceOnUse" id="color-16"><stop offset="0" stop-color="#0f0f0f"/><stop offset="1" stop-color="#0c0c0c"/></linearGradient></defs><g transform="translate(-217.04481,-107.15215)"><g data-paper-data="{&quot;isPaintingLayer&quot;:true}" fill-rule="nonzero" stroke-linejoin="miter" stroke-miterlimit="10" stroke-dasharray="" stroke-dashoffset="0" style="mix-blend-mode: normal"><path d="M246.0408,130.51862c0.28333,4.7622 -3.91464,8.88497 -9.37641,9.20845c-5.46178,0.32349 -10.11913,-3.27482 -10.40246,-8.037c-0.28333,-4.7622 3.91465,-8.88497 9.37642,-9.20845c5.46179,-0.32347 10.11912,3.27481 10.40245,8.037z" fill="#505050" stroke="#000000" stroke-width="1.5" stroke-linecap="butt"/><path d="M221.87048,159.46033c-1.39842,-5.15878 -2.67569,-11.1409 -2.67569,-11.1409l37.9774,0.65117c0,0 -3.39298,4.95778 -5.02273,10.0792c-1.4783,4.6455 2.05891,15.99368 1.68427,20.31647c-0.09231,1.06517 -8.10248,4.27191 -15.43455,4.71019c-7.03092,0.42029 -15.42189,-1.173 -15.42189,-1.173c0,0 0.45668,-17.6754 -1.1068,-23.44308z" fill="url(#color-1)" stroke="#000000" stroke-width="1.5" stroke-linecap="butt"/><path d="M244.60461,191.45997c-0.86375,0.11846 -1.77586,-0.82016 -2.71382,-4.46523c-0.28674,-1.11436 -0.80574,-4.2276 -1.0348,-5.42492c-0.29629,-1.54874 -0.10102,-3.18728 -0.24272,-4.59955c-0.31354,-3.12482 -0.71788,-5.45332 -0.71788,-5.45332c0,0 2.76793,-1.10891 4.99304,-1.41409c2.22511,-0.30518 5.13493,0.1709 5.13493,0.1709c0,0 -0.32856,1.87987 -0.27491,4.84112c0.02582,1.42524 0.40887,3.37274 0.45103,4.9672c0.04852,1.83592 -0.27986,2.4574 -0.17816,4.15154c0.11416,1.90162 0.65654,4.77366 0.65654,4.77366c0,0 -5.54835,2.38068 -6.07329,2.45268z" data-paper-data="{&quot;index&quot;:null}" fill="#060606" stroke="#000000" stroke-width="1.5" stroke-linecap="butt"/><path d="M225.0156,190.11986c-0.89913,-0.26058 -0.72437,-1.11263 -0.03833,-4.81353c0.20975,-1.13143 2.12561,-4.42293 2.42846,-5.60492c0.39176,-1.52889 -0.40384,-3.0656 0.07936,-4.40512c1.06913,-2.96374 1.69846,-5.24493 1.69846,-5.24493c0,0 3.20256,0.17451 5.51879,0.84578c2.31622,0.67128 4.95973,2.34175 4.95973,2.34175c0,0 -1.15029,1.56269 -2.40224,4.2676c-0.60253,1.30186 0.11135,3.32395 -0.54975,4.78605c-0.76117,1.68348 -1.02917,2.2998 -1.67577,3.87753c-0.72577,1.77093 -2.98322,4.31489 -2.98322,4.31489c0,0 -6.48909,-0.20675 -7.03549,-0.3651z" data-paper-data="{&quot;index&quot;:null}" fill="#060606" stroke="#000000" stroke-width="1.5" stroke-linecap="butt"/><path d="M226.51483,151.24274c-0.53842,0.02682 -5.54703,-6.4012 -2.94048,-8.14281c4.54234,-3.03502 10.39662,-1.9262 12.69739,-2.06216c1.95577,-0.11558 8.6722,-2.25126 13.19635,0.22546c1.96028,1.07314 -3.72757,8.63859 -3.76619,8.89991c-0.70277,4.75541 0.60819,8.71834 1.03161,10.04291c0.12744,0.39869 0.49827,1.80383 0.97888,3.29453c0.42528,1.31915 1.55793,6.841 1.64875,8.06419c0.07997,1.07687 -0.07281,3.03624 -0.07281,3.03624c0,0 -5.90643,1.43839 -11.0955,1.80542c-4.363,0.3086 -9.03772,-0.24855 -9.9389,-0.79867c-2.12174,-1.29522 0.04753,-10.54105 0.32387,-12.5487c0,0 -0.23651,-11.90726 -2.06299,-11.81631z" fill="#505050" stroke="#000000" stroke-width="1.5" stroke-linecap="butt"/><path d="M227.80357,148.38998l3.73685,-1.4737c0,0 4.21877,5.44338 6.80662,7.93417c2.7505,2.64731 7.87156,6.5234 7.87156,6.5234l0.46746,3.33001c0,0 -8.33555,-4.7044 -11.17322,-7.39752c-2.88358,-2.7367 -7.70931,-8.91637 -7.70931,-8.91637z" fill="url(#color-2)" stroke="#000000" stroke-width="1.5" stroke-linecap="butt"/><path d="M228.67324,163.90986c0,0 6.99549,1.18273 9.68284,1.28756c2.85621,0.11143 9.78812,-1.09686 9.78812,-1.09686l0.94432,3.35769c0,0 -7.45658,0.95204 -10.38001,0.86184c-2.97075,-0.09169 -10.94968,-1.25484 -10.94968,-1.25484z" fill="url(#color-3)" stroke="#000000" stroke-width="1.5" stroke-linecap="butt"/><path d="M236.96863,166.37039c0.03873,-0.49619 -0.03267,-1.22005 0.25967,-1.60397c0.56303,-0.73933 1.77613,-0.94026 2.82169,-0.89206c0.90264,0.04161 1.87697,0.29799 2.35788,0.91682c0.36542,0.4702 0.36212,1.21759 0.31322,1.84441c-0.06204,0.79498 -0.33175,1.66756 -0.97961,2.12145c-0.53521,0.37499 -1.38309,0.40772 -2.10175,0.37459c-0.82182,-0.03788 -1.73701,-0.22633 -2.22173,-0.7556c-0.4522,-0.49377 -0.50403,-1.30498 -0.44935,-2.00564z" fill="url(#color-4)" stroke="#000000" stroke-width="1.5" stroke-linecap="butt"/><path d="M251.82171,189.01117c3.59929,0.07705 4.15687,1.89143 4.10645,3.40267c-0.0504,1.51123 -2.36599,2.30452 -5.96527,2.22744c-3.59929,-0.07705 -7.16402,0.34479 -7.11362,-1.16641c0.02106,-0.63162 -0.52862,-2.81122 0.81452,-3.36313c0,0 6.06293,-1.14542 8.15793,-1.10056z" data-paper-data="{&quot;index&quot;:null}" fill="url(#color-5)" stroke="#000000" stroke-width="1.5" stroke-linecap="butt"/><path d="M232.95099,189.26514c3.57296,0.38698 3.94779,2.24332 3.74782,3.74513c-0.19996,1.5018 -2.58216,2.09282 -6.1551,1.70581c-3.57296,-0.38698 -7.161,-0.27381 -6.96106,-1.77559c0.08359,-0.62768 -0.24718,-2.84731 1.14368,-3.2816c0,0 6.145,-0.61899 8.22468,-0.39373z" data-paper-data="{&quot;index&quot;:null}" fill="url(#color-6)" stroke="#000000" stroke-width="1.5" stroke-linecap="butt"/><path d="M220.12777,142.97082c1.86493,-1.5719 6.53005,-2.70978 10.83841,-2.53862c2.09809,0.08336 4.46935,1.43358 5.70281,1.35464c4.48719,-0.28719 7.43903,-2.20361 7.46366,-2.20284c0.36291,0.01147 6.07978,-1.17014 7.77085,0.34276c0.72626,0.64974 2.96639,2.40161 3.34445,2.69202c0.4705,0.36135 3.20328,4.44508 3.20328,4.44508c0,0 -1.76431,2.20808 -1.75683,4.05041c0.00748,1.84233 1.78952,3.99845 1.78952,3.99845c0,0 -1.73279,5.79211 -2.62092,6.16048c-1.45953,0.60538 -1.99166,1.35799 -4.19627,0.93438c-1.9103,-0.36707 -5.0027,-3.06589 -6.52937,-3.85702c-4.73144,-2.45188 -12.06039,-7.50119 -14.53322,-8.16002c-2.421,-0.64501 -10.20782,4.05778 -11.26788,1.44334c-1.06006,-2.61444 -1.20287,-5.76476 -1.20287,-5.76476c0,0 -0.30263,-0.96216 1.99437,-2.89825z" data-paper-data="{&quot;index&quot;:null}" fill="url(#color-7)" stroke="#000000" stroke-width="1.5" stroke-linecap="butt"/><path d="M239.91082,132.58118c0.04855,-1.08971 1.05879,-1.92988 2.25642,-1.87653c1.19761,0.05335 2.12914,0.98001 2.08058,2.06973c-0.04855,1.08971 -1.05876,1.92989 -2.25639,1.87654c-1.19761,-0.05335 -2.12916,-0.98002 -2.0806,-2.06975z" fill="#000000" stroke="#000000" stroke-width="0" stroke-linecap="butt"/><path d="M232.07061,133.56578c-0.06613,-1.11422 0.87293,-2.07641 2.09748,-2.1491c1.22453,-0.07269 2.27084,0.77165 2.33697,1.88588c0.06613,1.11422 -0.87294,2.07642 -2.09746,2.1491c-1.22453,0.07269 -2.27086,-0.77166 -2.33699,-1.88587z" fill="#000000" stroke="#000000" stroke-width="0" stroke-linecap="butt"/><g stroke-width="0.875"><path d="M223.96445,129.12687c-0.40256,-6.7814 4.89105,-12.61242 11.82356,-13.02396c6.93254,-0.41153 13.08851,4.73981 13.49107,11.52124c0,0 -2.43187,3.15961 -7.81875,4.17476c-6.96866,1.31324 -17.31956,0.29896 -17.49593,-2.67202z" fill="url(#color-8)" stroke="#000000" stroke-linecap="butt"/><path d="M249.143,127.32187c0.13444,0.45754 -0.40734,2.07622 -0.40734,2.07622c0,0 -2.55459,2.74212 -11.83358,3.19418c-9.89536,0.48208 -12.796,-2.67035 -12.796,-2.67035c0,0 -0.47478,-1.04598 -0.39187,-1.43456c0.09713,-0.45507 0.32553,-1.32612 0.32553,-1.32612c0,0 8.05093,2.43753 12.97945,2.12174c4.92851,-0.31578 11.82148,-3.41115 11.82148,-3.41115c0,0 0.17344,1.01132 0.30231,1.45002z" fill="#0e0e0e" stroke="#000000" stroke-linecap="round"/><path d="M227.78076,119.1275c0,0 1.36346,-0.98702 1.95511,-1.36381c0.60396,-0.38465 1.54912,-0.74539 1.54912,-0.74539c0,0 5.45444,0.91585 7.96804,2.92954c2.51363,2.01369 5.0793,7.37435 5.0793,7.37435c0,0 -1.50569,0.60506 -2.01448,0.78806c-0.65088,0.23409 -1.91647,0.46352 -1.91647,0.46352c0,0 -1.5614,-4.8608 -4.18664,-6.85672c-2.62522,-1.99589 -8.43399,-2.58954 -8.43399,-2.58954z" fill="#0e0e0e" stroke="#000000" stroke-linecap="round"/><path d="M228.06851,123.54031c-0.87508,0.60464 -2.57831,0.44825 -2.57831,0.44825c0,0 -2.02497,-3.72231 -2.60996,-5.73047c-0.5779,-1.98383 -0.87898,-6.2465 -0.87898,-6.2465c0,0 2.54319,4.20865 3.82624,5.81638c1.17435,1.4715 3.57477,3.4575 3.57477,3.4575c0,0 -0.45868,1.65017 -1.33374,2.25482z" fill="#0e0e0e" stroke="#000000" stroke-linecap="butt"/><path d="M240.56505,117.12793c0,0 1.29081,-1.04711 1.61213,-2.55952c0.35104,-1.65239 0.61767,-5.69426 0.61767,-5.69426c0,0 1.54969,3.3021 1.9207,4.99123c0.37556,1.70983 0.31924,5.20657 0.31924,5.20657c0,0 -1.44728,0.48441 -2.40128,0.33541c-0.954,-0.14902 -2.06845,-2.27941 -2.06845,-2.27941z" data-paper-data="{&quot;index&quot;:null}" fill="#0e0e0e" stroke="#000000" stroke-linecap="butt"/><path d="M242.67962,129.78304c-0.03065,-0.51635 0.4045,-0.96222 0.97198,-0.9959c0.56746,-0.03369 1.05233,0.35758 1.08299,0.87392c0.03065,0.51635 -0.40449,0.96222 -0.97198,0.99591c-0.56746,0.03369 -1.05233,-0.35757 -1.08298,-0.87393z" fill="#000000" stroke="none" stroke-linecap="butt"/><path d="M245.82576,128.53534c-0.03065,-0.51635 0.40449,-0.96222 0.97197,-0.99591c0.56746,-0.03369 1.05234,0.35759 1.08299,0.87393c0.03065,0.51634 -0.4045,0.96222 -0.972,0.99589c-0.56746,0.03369 -1.05232,-0.35757 -1.08298,-0.87392z" fill="#000000" stroke="none" stroke-linecap="butt"/><path d="M239.63514,130.60609c-0.03065,-0.51635 0.4045,-0.96222 0.97198,-0.9959c0.56746,-0.03369 1.05233,0.35757 1.08299,0.87392c0.03065,0.51635 -0.4045,0.96223 -0.97198,0.99591c-0.56746,0.03369 -1.05233,-0.35758 -1.08298,-0.87393z" fill="#000000" stroke="none" stroke-linecap="butt"/><path d="M236.01648,131.10957c-0.03065,-0.51635 0.4045,-0.96223 0.97198,-0.99591c0.56746,-0.03369 1.05234,0.35757 1.08299,0.87393c0.03065,0.51635 -0.4045,0.96223 -0.97199,0.9959c-0.56746,0.03369 -1.05233,-0.35757 -1.08298,-0.87393z" fill="#000000" stroke="none" stroke-linecap="butt"/><path d="M232.419,131.03447c-0.03065,-0.51635 0.4045,-0.96222 0.972,-0.99589c0.56746,-0.03369 1.05233,0.35757 1.08299,0.87392c0.03065,0.51635 -0.4045,0.96223 -0.97198,0.99591c-0.56746,0.03369 -1.05234,-0.35758 -1.08299,-0.87393z" fill="#000000" stroke="none" stroke-linecap="butt"/><path d="M228.62311,130.42258c-0.03065,-0.51635 0.40449,-0.96221 0.97197,-0.9959c0.56746,-0.03369 1.05234,0.35757 1.083,0.87391c0.03065,0.51635 -0.4045,0.96223 -0.97199,0.9959c-0.56746,0.03369 -1.05232,-0.35756 -1.08297,-0.87393z" fill="#000000" stroke="none" stroke-linecap="butt"/><path d="M225.2901,129.45849c-0.03065,-0.51635 0.4045,-0.96222 0.97198,-0.9959c0.56746,-0.03369 1.05233,0.35758 1.08299,0.87392c0.03065,0.51635 -0.40449,0.96222 -0.97198,0.99591c-0.56746,0.03369 -1.05233,-0.35758 -1.08298,-0.87393z" fill="#000000" stroke="none" stroke-linecap="butt"/><path d="M240.71256,126.20827c-0.03065,-0.51635 0.4045,-0.96222 0.97198,-0.9959c0.56746,-0.03369 1.05233,0.35758 1.08299,0.87392c0.03065,0.51635 -0.40449,0.96222 -0.97198,0.99591c-0.56746,0.03369 -1.05233,-0.35758 -1.08298,-0.87393z" fill="#000000" stroke="none" stroke-linecap="butt"/><path d="M238.85072,123.33816c-0.03065,-0.51635 0.40449,-0.96222 0.97198,-0.99591c0.56746,-0.03369 1.05233,0.35759 1.08298,0.87393c0.03065,0.51635 -0.40451,0.96222 -0.97198,0.9959c-0.56746,0.03369 -1.05233,-0.35758 -1.08299,-0.87392z" fill="#000000" stroke="none" stroke-linecap="butt"/><path d="M236.38222,120.56902c-0.03065,-0.51635 0.40449,-0.96221 0.97198,-0.9959c0.56746,-0.03369 1.05233,0.35758 1.08299,0.87392c0.03065,0.51635 -0.4045,0.96223 -0.97198,0.99591c-0.56746,0.03369 -1.05233,-0.35758 -1.08298,-0.87393z" fill="#000000" stroke="none" stroke-linecap="butt"/><path d="M232.11513,118.9008c-0.03065,-0.51635 0.40451,-0.96223 0.97198,-0.99591c0.56746,-0.03369 1.05234,0.35758 1.08299,0.87393c0.03065,0.51635 -0.4045,0.96223 -0.97199,0.9959c-0.56746,0.03369 -1.05233,-0.35759 -1.08298,-0.87393z" fill="#000000" stroke="none" stroke-linecap="butt"/></g><path d="M230.35682,142.01413l-0.17439,-2.95918c0,0 3.9049,0.98713 5.87005,0.85024c2.18896,-0.15245 6.66481,-1.72329 6.66481,-1.72329l0.18167,3.08246c0,0 -3.8213,1.21829 -5.81153,1.33726c-2.17422,0.12997 -6.73064,-0.58751 -6.73064,-0.58751z" fill="url(#color-9)" stroke="#000000" stroke-width="1" stroke-linecap="butt"/><path d="M244.68106,156.66364l-9.46647,-3.32114l-8.18692,-1.93433c0,0 -1.8068,-1.50683 -2.27818,-3.98841c-0.32351,-1.70311 0.95785,-3.40387 1.67685,-3.89202c2.28522,-1.55148 6.95916,-0.42388 10.58176,0.94235c3.6226,1.36624 12.73619,4.73737 12.6787,5.14166c-0.30646,2.15554 -5.00575,7.05187 -5.00575,7.05187z" data-paper-data="{&quot;index&quot;:null}" fill="#505050" stroke="#000000" stroke-width="1.5" stroke-linecap="butt"/><path d="M218.82521,150.54306c-0.93594,-0.87087 -1.45092,-3.26116 -0.59365,-5.10763c1.27175,-2.73923 4.41916,-4.98363 4.41916,-4.98363c0,0 6.70285,-0.89443 8.63482,1.96605c0.87093,1.28952 -3.77429,2.89085 -4.08681,5.05629c-0.31253,2.16545 4.00765,3.92201 1.55396,4.51144c-2.45369,0.58943 -7.81613,0.52204 -9.92748,-1.44251z" fill="url(#color-10)" stroke="#000000" stroke-width="1.5" stroke-linecap="butt"/><g stroke="#000000"><g data-paper-data="{&quot;index&quot;:null}" stroke-linecap="round"><path d="M340.10589,151.32411l1.44443,-2.8297l2.57569,2.39079l2.53028,-2.66371l2.11361,2.13673l3.29054,-1.43296l1.75074,3.21004l3.15612,-1.02282l0.24629,3.50054l3.12642,0.00394l-1.40263,2.82721l3.05927,0.57369l-2.40063,3.79833" data-paper-data="{&quot;index&quot;:null}" fill="#000000" stroke-width="0.5"/><path d="M339.56205,152.21777c0,0 6.85651,-3.20106 11.95505,-0.76377c8.17134,3.90617 7.81929,10.98303 7.81929,10.98303l-10.27177,5.64408l-12.80685,-5.17173z" data-paper-data="{&quot;index&quot;:null}" fill="#000000" stroke-width="0.5"/><path d="M349.69832,157.19093l2.25038,-4.20616" data-paper-data="{&quot;index&quot;:null}" fill="#000000" stroke-width="0.5"/><path d="M347.76006,151.15544l-1.45202,3.11847" data-paper-data="{&quot;index&quot;:null}" fill="#000000" stroke-width="0.5"/><path d="M341.72654,153.73471l1.13277,-2.21923l2.02007,1.87502l1.98439,-2.08907l1.65762,1.67574l2.58062,-1.1238l1.37302,2.51753l2.47517,-0.80214l0.19318,2.74532l2.45193,0.00312l-1.10001,2.21726l2.39926,0.44989l-1.88273,2.97888" data-paper-data="{&quot;index&quot;:null}" fill="#343434" stroke-width="0"/><path d="M341.30001,154.43543c0,0 5.37721,-2.51044 9.37578,-0.59897c6.40838,3.06349 6.13234,8.61343 6.13234,8.61343l-8.05568,4.4264l-10.04382,-4.05592z" data-paper-data="{&quot;index&quot;:null}" fill="url(#color-11)" stroke-width="0"/><path d="M347.7293,153.60242l-1.13877,2.44564" data-paper-data="{&quot;index&quot;:null}" fill="#585858" stroke-width="0"/></g><g data-paper-data="{&quot;index&quot;:null}"><g data-paper-data="{&quot;index&quot;:null}" fill="#000000" stroke-width="0.5"><g data-paper-data="{&quot;index&quot;:null}"><path d="M349.67256,184.26824l-1.29472,4.30279l-2.43866,-1.93422l-1.21556,2.91253l-2.05245,-2.35839l-2.80498,2.10871l-1.29656,-3.05391l-3.57177,0.7822l-1.07491,-3.42427l-2.99914,-0.19541l0.35289,-3.65693l-3.49391,-0.37787l1.19005,-2.94572" stroke-linecap="round"/><g data-paper-data="{&quot;index&quot;:null}"><path d="M351.14347,173.99895l-49.90305,-23.45487l0.35761,-5.21802l50.40064,24.24017c0,0 1.52629,2.38402 1.39393,3.1285c-0.11352,0.63844 -2.03164,0.83419 -2.03164,0.83419z" stroke-linecap="butt"/><path d="M335.19911,165.92738l12.30081,6.28111l2.47123,11.4568c0,0 -5.11346,4.90488 -13.4198,1.29481c-5.18285,-2.25254 -7.26012,-9.52876 -7.26012,-9.52876z" stroke-linecap="round"/></g></g><path d="M339.69136,179.82583l-1.70116,4.45666" stroke-linecap="round"/><path d="M335.26613,179.17777l-1.40315,3.14078" stroke-linecap="round"/><path d="M342.36546,185.37481l1.27171,-3.30551" stroke-linecap="round"/></g><path d="M348.08945,182.22037l-1.01538,3.37453l-1.91253,-1.51692l-0.95331,2.28415l-1.60966,-1.84957l-2.19978,1.65377l-1.01683,-2.39504l-2.80124,0.61344l-0.84301,-2.6855l-2.3521,-0.15329l0.2768,-2.86799l-2.74017,-0.29635l0.93335,-2.31021" fill="#343434" stroke-width="0" stroke-linecap="round"/><path d="M336.73851,167.83645l9.64694,4.92599l1.93807,8.98507c0,0 -4.01022,3.84665 -10.52457,1.01545c-4.06467,-1.76655 -5.6938,-7.47294 -5.6938,-7.47294z" fill="url(#color-12)" stroke-width="0" stroke-linecap="round"/><path d="M338.92749,182.23154l1.33415,-3.49517" fill="#343434" stroke-width="0" stroke-linecap="round"/><path d="M335.6907,180.69129l1.1004,-2.46315" fill="#585858" stroke-width="0" stroke-linecap="round"/><path d="M343.35616,180.49587l-0.99735,2.59234" fill="#343434" stroke-width="0" stroke-linecap="round"/><path d="M350.80974,173.01676l-48.40103,-23.16811l0.13173,-3.10969l48.84799,23.32603c0,0 1.30231,1.72705 1.22163,2.18087z" fill="#1f180f" stroke-width="0.5" stroke-linecap="butt"/></g></g><path d="M246.90917,147.42031c2.08171,0.57123 3.24671,2.93867 2.6021,5.28782c-0.64462,2.34916 -2.85474,3.79046 -4.93645,3.21927c-2.08171,-0.57123 -3.24671,-2.93865 -2.6021,-5.28782c0.64462,-2.34916 2.85474,-3.79046 4.93645,-3.21927z" fill="#000000" stroke="#000000" stroke-width="1.5" stroke-linecap="butt"/><g stroke="#000000" stroke-width="1.5"><g fill="#000000" stroke-linecap="round"><path d="M252.67141,159.7121l18.06819,-0.56607c0,0 0.75584,7.65101 -1.54587,12.35093c-2.52727,5.16054 -7.03232,5.25965 -7.03232,5.25965l-1.09079,-34.81626c0,0 -3.55109,0.73139 -6.30217,5.46037c-2.67255,4.594 -2.09706,12.31137 -2.09706,12.31137z"/><path d="M268.00115,147.15288c-3.04171,-4.54749 -6.63162,-5.05514 -6.63162,-5.05514l1.09078,34.81625c0,0 -4.50241,0.18308 -7.34777,-4.80913c-2.59139,-4.54662 -2.31598,-12.22994 -2.31598,-12.22994l18.06819,-0.56607c0,0 0.09129,-7.73826 -2.86361,-12.15596z" data-paper-data="{&quot;index&quot;:null}"/></g><g stroke-linecap="round"><path d="M254.24741,159.78778l17.34811,-0.54351c0,0 0.7353,7.65166 -1.4689,12.34852c-2.42021,5.15719 -6.74577,5.25067 -6.74577,5.25067l-1.09078,-34.81625c0,0 -3.40879,0.72692 -6.04444,5.45228c-2.56042,4.59049 -1.99821,12.30828 -1.99821,12.30828z" fill="url(#color-13)"/><path d="M265.01988,166.53708l1.52462,-3.29936" fill="none"/><path d="M260.87782,152.91011l-1.36825,2.96097" fill="none"/><path d="M268.95804,162.99537l-3.71381,8.0369" fill="none"/><path d="M259.99147,148.60242l-3.04922,6.59872" fill="none"/><path d="M268.95121,147.24816c-2.92628,-4.55111 -6.37389,-5.06322 -6.37389,-5.06322l1.09078,34.81625c0,0 -4.32292,0.17746 -7.06122,-4.81811c-2.49389,-4.54968 -2.23902,-12.23236 -2.23902,-12.23236l17.34811,-0.54351c0,0 0.07799,-7.73785 -2.76477,-12.15906z" data-paper-data="{&quot;index&quot;:null}" fill="url(#color-14)"/><path d="M259.58076,163.78939l1.72816,3.19745" data-paper-data="{&quot;index&quot;:null}" fill="none"/><path d="M266.14079,155.99682l-1.55092,-2.86951" data-paper-data="{&quot;index&quot;:null}" fill="none"/><path d="M257.15685,163.6986l4.20962,7.78866" data-paper-data="{&quot;index&quot;:null}" fill="none"/><path d="M265.20479,148.77258l3.45631,6.3949" data-paper-data="{&quot;index&quot;:null}" fill="none"/></g><path d="M265.63119,159.86885c0.05296,1.69054 -0.77068,3.08815 -1.83968,3.12164c-1.069,0.03349 -1.97852,-1.30982 -2.03148,-3.00036c-0.05296,-1.69054 0.77068,-3.08815 1.83968,-3.12164c1.069,-0.03349 1.97852,1.30982 2.03148,3.00036z" fill="url(#color-15)" stroke-linecap="butt"/><path d="M263.08765,159.94853c-0.05513,-1.75955 0.61433,-3.20831 1.49529,-3.23591c0.88095,-0.0276 1.6398,1.37642 1.69492,3.13596c0.05513,1.75955 -0.61433,3.20831 -1.49529,3.23591c-0.88095,0.0276 -1.6398,-1.37642 -1.69492,-3.13596z" fill="url(#color-16)" stroke-linecap="butt"/></g></g></g></svg>