<svg version="1.1" xmlns="http://www.w3.org/2000/svg" xmlns:xlink="http://www.w3.org/1999/xlink" width="251.99671" height="169.39898" viewBox="0,0,251.99671,169.39898"><defs><radialGradient cx="233.24094" cy="127.35321" r="3.56128" gradientUnits="userSpaceOnUse" id="color-1"><stop offset="0" stop-color="#ff1c1c"/><stop offset="1" stop-color="#ff1c1c" stop-opacity="0"/></radialGradient></defs><g transform="translate(-111.1969,-98.35775)"><g data-paper-data="{&quot;isPaintingLayer&quot;:true}" fill-rule="nonzero" stroke="#000000" stroke-linejoin="miter" stroke-miterlimit="10" stroke-dasharray="" stroke-dashoffset="0" style="mix-blend-mode: normal"><g><path d="M262.79334,197.5247c0.25966,2.36665 -1.88326,4.07483 -1.7077,3.97821c4.41368,-2.42884 5.11253,1.86464 7.4038,2.65085c0.68826,0.23618 4.92767,15.8993 4.92767,15.8993l0.21696,14.7772c0,0 -2.77548,2.51322 -6.03915,1.45827c-1.05445,-0.34084 -4.46713,-1.50263 -7.51067,-5.84507c-5.03094,-7.17796 -12.29731,-23.84195 -12.29731,-23.84195c0,0 -1.23577,-5.46864 0.83033,-8.38385c2.06985,-2.92047 4.85364,-5.32933 9.06767,-5.53532c4.21402,-0.20601 4.74937,1.57 5.10839,4.84236z" fill="#100d25" stroke-width="1.5" stroke-linecap="butt"/><path d="M260.86822,220.93204c0,0 -3.56835,-5.15098 -4.73774,-7.7858c-1.02726,-2.31453 -3.38934,-8.94453 -3.38934,-8.94453c0,0 3.02,-4.96437 6.43325,-6.47422c3.41325,-1.50979 6.81227,-0.07983 7.43598,0.6101c1.29022,1.42722 5.39458,20.27253 8.02681,24.81429c4.01354,6.92516 -0.63665,6.36933 -0.63665,6.36933l-4.96947,2.17597z" fill="#160f3d" stroke-width="1.5" stroke-linecap="butt"/><path d="M263.80406,246.35493c0,0 -5.81718,1.57661 -7.75784,-0.49273c-1.61603,-1.72325 2.70369,-8.88054 4.29398,-11.61873c1.92022,-3.30633 12.93299,-6.96897 13.13999,-5.81713c0.20701,1.15185 0.53115,5.61577 -0.64503,8.2094c-1.23744,2.72868 -9.0311,9.71918 -9.0311,9.71918z" fill="#160f3d" stroke-width="1.5" stroke-linecap="butt"/><path d="M259.43285,252.80826c0,0 -1.09565,-2.57532 -0.60356,-5.68233c0.14118,-0.89151 0.59061,-2.99452 2.21843,-6.10681c2.02679,-3.87507 5.6247,-7.06313 5.6247,-7.06313l7.27281,0.76865c0,0 -1.84952,3.76166 -2.13586,6.1339c-0.28263,2.34148 5.72233,5.94188 5.72233,5.94188c0,0 -6.14202,4.49016 -9.46482,5.59313c-2.41678,0.80224 -8.63405,0.41467 -8.63405,0.41467z" fill="#100d25" stroke-width="1.5" stroke-linecap="butt"/><path d="M264.51598,261.62088c-2.59509,-1.79228 -5.32865,-7.48321 -6.35357,-9.12259c-0.7418,-1.18657 -0.10527,-5.53514 1.48364,-6.82753c0.27863,-0.22665 3.21496,-1.90871 6.10665,-2.73207c4.27406,-1.21693 10.00393,-0.7221 10.50527,-0.51852c0.28547,0.11594 0.579,0.91153 0.31674,1.49554c-0.26231,0.58399 -0.49122,1.05943 -1.56696,1.28795c-0.55388,0.11767 -3.22222,0.08675 -5.81222,0.50247c-1.37225,0.22025 -3.23232,0.27976 -4.67802,1.10667c-1.12516,0.64358 -2.09021,2.04188 -1.79067,2.46852c0.68453,0.97475 4.18385,1.57064 5.78046,3.72087c1.66134,2.23744 1.09398,5.77157 1.4439,5.69085c1.87999,-0.43367 10.46359,-2.41375 15.12516,-3.48908c1.79941,-0.41508 2.07314,0.28662 2.15283,0.56747c0.03586,0.1264 -0.32227,1.58526 -1.15794,3.11334c-0.82649,1.51133 -2.11996,3.09035 -3.96133,3.51509c-2.81566,0.64953 -5.29812,0.96016 -8.89976,0.90944c-3.60164,-0.0507 -6.09907,0.10382 -8.6942,-1.68846z" fill="#160f3d" stroke-width="1.5" stroke-linecap="butt"/><path d="M267.05794,251.92987c1.74954,-1.94023 3.55708,-3.74709 6.55281,-4.43813c2.88672,-0.66591 4.27701,0.16772 6.76331,1.25269c2.4863,1.08499 3.77116,4.26263 3.77116,4.26263c0,0 -7.74668,2.88677 -9.04121,3.18539c-3.50678,0.80894 -8.52854,0.86762 -8.52854,0.86762c0,0 -1.26711,-3.18994 0.48246,-5.13018z" fill="#2a2355" stroke-width="1.5" stroke-linecap="butt"/><path d="M264.99843,235.07905c-0.94187,-2.76547 1.18477,-5.76205 4.74988,-6.69308c3.56516,-0.93102 7.2188,0.55605 8.16066,3.32152c0.94187,2.76547 -1.18473,5.76208 -4.74986,6.69309c-3.56516,0.93102 -7.2188,-0.55607 -8.16066,-3.32152z" fill="#160f3d" stroke-width="1.5" stroke-linecap="butt"/><path d="M270.52006,254.85085c1.65921,-1.84007 3.32915,-3.21998 6.17021,-3.87535c2.7377,-0.63153 4.91139,-0.25385 7.26935,0.77512c2.35795,1.02896 2.36693,4.78217 2.36693,4.78217c0,0 -5.19979,1.67401 -8.17585,2.36054c-3.32572,0.76716 -8.08816,0.82279 -8.08816,0.82279c0,0 -1.20167,-3.02521 0.45755,-4.86529z" fill="#2a2355" stroke-width="1.5" stroke-linecap="butt"/><path d="M279.55092,258.99351c0.23925,-0.62073 1.99202,-2.21101 2.74445,-2.78561c0.75245,-0.57461 4.77636,-1.25122 4.77636,-1.25122l6.79157,6.22735c0,0 -6.82298,1.01572 -9.31486,1.28805c-1.65304,0.18066 -4.18202,0.18704 -4.18202,0.18704c0,0 -1.05474,-3.04493 -0.81547,-3.66563z" fill="#100d25" stroke-width="1.5" stroke-linecap="butt"/><path d="M266.93578,223.50063c0,0 -6.9412,-12.91167 -7.98069,-16.82708c-0.41254,-1.55393 4.29195,-5.83158 4.29195,-5.83158l7.67652,1.97139c0,0 6.47771,12.56584 7.10687,16.32855c0.27219,1.62785 -3.39682,5.85983 -3.39682,5.85983z" fill="#2a2355" stroke-width="1.5" stroke-linecap="butt"/><path d="M262.09622,207.64359l6.53569,-2.8178" fill="none" stroke-width="1.25" stroke-linecap="round"/><path d="M270.42143,209.11118l-5.68746,2.67803" fill="none" stroke-width="1.25" stroke-linecap="round"/><path d="M274.96898,218.64408l-5.67415,2.3664" fill="none" stroke-width="1.25" stroke-linecap="round"/><path d="M267.10334,216.88671l5.72901,-2.80682" fill="none" stroke-width="1.25" stroke-linecap="round"/><path d="M277.61963,236.42006c0,0 -1.73353,-1.36587 -1.83024,-1.75133c-0.09675,-0.38542 0.29936,-1.64126 0.50983,-2.12309c0.21043,-0.48181 2.23102,-1.78813 2.23102,-1.78813l9.06811,3.00913z" fill="#2a2355" stroke-width="1.5" stroke-linecap="butt"/></g><g><g><path d="M226.23112,149.55335l-0.4329,-6.20428l-6.61388,-4.63329c0,0 5.18265,-2.37682 5.12495,-2.91843c-0.16866,-1.58298 -1.80375,-5.51075 -1.80375,-5.51075l-6.44415,-11.87381c0,0 12.62473,9.56979 22.31281,8.16058c9.68807,-1.40919 17.80088,-13.9954 17.80088,-13.9954l-2.02448,15.32561l-0.85039,5.80874l4.10688,1.56986c0,0 -4.14187,3.83503 -3.99953,5.17095c0.2225,2.08828 1.33031,6.06305 1.33031,6.06305c0,0 -9.95357,2.58125 -15.03922,3.12308c-4.27517,0.45549 -13.46754,-0.08596 -13.46754,-0.08596z" fill="#160f3d" stroke-width="1.5" stroke-linecap="butt"/><path d="M244.9994,132.10264c0,0 2.38879,3.72588 2.15646,4.92389c-0.16972,0.87514 -3.53461,0.44499 -3.53461,0.44499c0,0 2.09636,3.91336 1.93305,4.12868c-1.91225,2.52175 -6.58734,3.73722 -6.58734,3.73722c0,0 -3.0787,-0.85329 -5.40633,-3.527c-0.48721,-0.55966 0.7122,-3.83893 0.7122,-3.83893c0,0 -2.93507,0.67039 -3.27124,-0.28471c-0.37941,-1.07794 0.40722,-4.86616 0.40722,-4.86616l-4.1408,1.44669c0,0 -1.65774,-3.1481 -3.18702,-3.36054c-3.47415,-0.48263 -7.77571,0.1968 -7.69994,-0.46112c0.14451,-1.25429 1.40619,-3.9909 3.48968,-5.29913c2.57735,-1.61833 7.58089,-1.70073 7.58089,-1.70073c0,0 4.41025,-4.73657 10.05528,-5.37253c5.64501,-0.63595 9.76392,3.42847 9.76392,3.42847c0,0 4.47834,-2.12024 7.17119,-1.07278c2.69285,1.04746 3.94671,3.97659 5.02346,4.98868c0.31959,0.3004 -4.66882,1.5698 -8.6439,3.13247c-1.47573,0.58015 -0.54702,4.89738 -0.54702,4.89738z" fill="#2a2355" stroke-width="1.5" stroke-linecap="butt"/><path d="M242.8798,124.06122c0.78565,-0.51495 4.14546,-1.88191 4.14546,-1.88191c0,0 2.21089,1.7059 0.31421,2.94905c-0.86843,0.5692 -2.52682,0.98987 -4.08955,1.09211c-1.85036,0.12105 -3.55928,-0.13513 -3.55928,-0.13513c0,0 2.20761,-1.38072 3.18917,-2.0241z" data-paper-data="{&quot;index&quot;:null}" fill="#c11515" stroke-width="1.25" stroke-linecap="butt"/><path d="M234.47089,134.65145l0.27464,2.5778" fill="none" stroke-width="1.5" stroke-linecap="round"/><path d="M243.11667,136.34123l-0.26091,-2.44892" fill="none" stroke-width="1.5" stroke-linecap="round"/><path d="M240.9273,138.78751l-0.3433,-3.22225" fill="none" stroke-width="1.5" stroke-linecap="round"/><path d="M237.13826,135.93233l0.3433,3.22224" fill="none" stroke-width="1.5" stroke-linecap="round"/><path d="M226.50507,122.80111c0.10193,-0.07147 0.53526,-1.32231 1.26354,-1.74001c0.72829,-0.41772 2.03458,-0.66798 2.43314,-0.3803c0.87601,0.63227 1.83236,1.8456 2.29339,1.79647c2.53058,-0.26962 5.26227,1.81822 5.53189,4.34882c0.26962,2.53059 -1.83194,5.13337 -4.36256,5.403c-0.71857,0.07657 -2.97839,-0.55282 -4.1862,-1.67001c-0.93938,-0.8689 -1.37137,-1.46354 -1.51753,-2.6605c-0.14617,-1.19698 0.36919,-2.23414 0.99026,-3.11579c0,0 -2.88474,-1.67402 -2.44593,-1.98166z" fill="#100d25" stroke-width="1.25" stroke-linecap="butt"/><path d="M230.47366,127.71042c-0.15502,-1.45497 0.95778,-2.76641 2.4855,-2.92918c1.52773,-0.16278 2.89185,0.8848 3.04686,2.33976c0.15502,1.45497 -0.95778,2.7664 -2.48551,2.92918c-1.52773,0.16278 -2.89185,-0.88479 -3.04686,-2.33975z" fill="#c11515" stroke-width="1" stroke-linecap="butt"/><path d="M243.30819,128.57936c0.63654,-0.41718 3.35857,-1.52468 3.35857,-1.52468c0,0 1.79121,1.38208 0.25456,2.38927c-0.70357,0.46116 -2.04714,0.80196 -3.31327,0.88477c-1.49913,0.09807 -2.88364,-0.10949 -2.88364,-0.10949c0,0 1.78855,-1.11862 2.58379,-1.63988z" data-paper-data="{&quot;index&quot;:null}" fill="#c11515" stroke-width="1.25" stroke-linecap="butt"/><path d="M229.69971,127.73049c-0.20835,-1.95577 1.20817,-3.71017 3.16394,-3.91852c1.95577,-0.20835 3.71017,1.20819 3.91853,3.16396c0.20835,1.95577 -1.20818,3.71016 -3.16395,3.91851c-1.95577,0.20835 -3.71016,-1.20817 -3.91852,-3.16395z" fill="url(#color-1)" stroke-width="0" stroke-linecap="butt"/></g><path d="M222.96459,127.57214c0,0 -0.58185,-5.06 1.75742,-9.16375c0.6952,-1.21958 -1.42318,-7.37607 -1.42318,-7.37607c0,0 6.08873,4.19399 7.40658,3.62013c2.01573,-0.87774 3.47685,-3.33375 6.28921,-3.55433c2.81237,-0.22058 4.18259,1.77783 6.9182,2.51842c1.46588,0.39686 4.98201,-4.82837 4.98201,-4.82837c0,0 -0.22728,6.81411 0.10476,7.42334c1.36057,2.49628 2.57145,8.22241 2.57145,8.22241c0,0 -5.51466,-3.96986 -7.22208,-4.64277c-1.70742,-0.67291 -2.74865,-0.93561 -4.05212,0.00132c-1.30345,0.93692 -2.14167,3.25406 -2.14167,3.25406c0,0 -1.34513,-2.18411 -3.46411,-2.741c-1.58781,-0.41729 -2.55106,-0.32165 -3.89847,0.28169c-0.45073,0.20184 -1.79505,-0.22722 -2.67577,0.35457c-0.88071,0.5818 -0.91045,1.8655 -1.54132,2.43122c-2.20838,1.98038 -3.61095,4.19916 -3.61095,4.19916z" fill="#100d25" stroke-width="1.5" stroke-linecap="butt"/><path d="M252.50845,148.12302c-0.68035,0.1326 -2.85902,-0.67514 -2.85902,-0.67514c0,0 -1.44046,-2.89728 -1.46559,-4.19993c-0.02319,-1.20107 1.32025,-3.33599 1.32025,-3.33599c0,0 1.53701,-1.57249 2.49615,-1.69774c0.83722,-0.1093 1.96037,-0.1048 3.06753,0.97902c1.10716,1.08382 1.44992,2.32706 1.4692,3.46209c0.026,1.53097 -0.78131,2.81337 -1.47154,3.75019c-0.69023,0.93682 -1.7759,1.5653 -2.55694,1.71754z" data-paper-data="{&quot;index&quot;:null}" fill="#100d25" stroke-width="1.5" stroke-linecap="butt"/><path d="M223.70784,148.92509c-0.81032,-0.79946 -1.78331,-1.91245 -1.96437,-3.37485c-0.13422,-1.08418 0.03741,-2.31518 0.98783,-3.49753c0.95042,-1.18234 2.06245,-1.33835 2.90662,-1.34727c0.96708,-0.01023 2.70213,1.28063 2.70213,1.28063c0,0 1.61925,1.85296 1.75854,3.00062c0.15107,1.24473 -0.88458,4.20017 -0.88458,4.20017c0,0 -2.04923,1.06401 -2.74115,1.02955c-0.7943,-0.03955 -1.95474,-0.4918 -2.76505,-1.29129z" fill="#100d25" stroke-width="1.5" stroke-linecap="butt"/></g><g data-paper-data="{&quot;index&quot;:null}" stroke-width="1.5" stroke-linecap="butt"><g><path d="M175.82749,121.85447c0,0 -13.63131,-3.06656 -27.35531,0.31754c-13.724,3.3841 -33.16605,14.4583 -33.16605,14.4583c0,0 19.15775,-19.98975 30.06039,-25.19423c10.90265,-5.20449 26.04211,-3.93366 30.57273,-4.12783c0.59061,-0.02531 1.68756,4.19697 1.87208,7.59656c0.14393,2.6521 -1.98385,6.94968 -1.98385,6.94968z" data-paper-data="{&quot;index&quot;:null}" fill="#160f3d"/><path d="M176.36614,117.16735c0,0 -4.79393,-0.19675 -10.43079,-0.41858c-4.06739,-0.16008 -8.94055,-0.2378 -12.10885,0.43371c-7.55918,1.60212 -18.66905,5.47812 -18.66905,5.47812c0,0 5.61706,-4.88869 12.14339,-7.75197c6.87999,-3.01844 16.0716,-3.59594 17.75559,-3.82238c2.8448,-0.38249 11.50833,0.95764 11.50833,0.95764z" data-paper-data="{&quot;index&quot;:null}" fill="#2a2355"/></g><g><path d="M179.60926,120.52628c0,0 -13.91622,1.24709 -25.94885,8.66438c-12.0326,7.4173 -27.15887,23.90449 -27.15887,23.90449c0,0 12.1302,-24.8891 20.92008,-33.17724c8.78986,-8.28812 23.59311,-11.70598 27.84751,-13.27581c0.55462,-0.20462 2.88973,3.48022 4.1046,6.66069c0.94774,2.48113 0.23551,7.22344 0.23551,7.22344z" data-paper-data="{&quot;index&quot;:null}" fill="#160f3d"/><path d="M178.68933,115.89891c0,0 -4.62461,1.27811 -10.05946,2.78996c-3.92161,1.09091 -8.58528,2.50656 -11.39668,4.1144c-6.7076,3.83613 -16.10087,10.92269 -16.10087,10.92269c0,0 3.8538,-6.37173 9.19248,-11.09293c5.62797,-4.97706 14.2031,-8.33664 15.73727,-9.06699c2.59171,-1.23378 11.25019,-2.60609 11.25019,-2.60609z" data-paper-data="{&quot;index&quot;:null}" fill="#2a2355"/></g><g data-paper-data="{&quot;index&quot;:null}"><path d="M179.77235,119.58757c0,0 -12.10354,6.98004 -19.90478,18.76734c-7.80125,11.78732 -14.59796,33.1048 -14.59796,33.1048c0,0 0.54712,-27.68232 5.03992,-38.897c4.4928,-11.21469 16.48894,-20.53727 19.68968,-23.7497c0.41727,-0.41877 4.08476,1.94354 6.52375,4.31895c1.90271,1.85311 3.24942,6.4556 3.24942,6.4556z" data-paper-data="{&quot;index&quot;:null}" fill="#160f3d"/><path d="M176.99291,115.77526c0,0 -3.65925,3.10327 -7.95548,6.75919c-3.10003,2.63799 -6.73692,5.88252 -8.61228,8.52298c-4.47432,6.29987 -10.01962,16.67783 -10.01962,16.67783c0,0 0.81919,-7.40134 3.67938,-13.92901c3.01518,-6.88141 9.38439,-13.53368 10.46957,-14.84115c1.83322,-2.20873 9.11324,-7.09277 9.11324,-7.09277z" data-paper-data="{&quot;index&quot;:null}" fill="#2a2355"/></g><g><path d="M176.0284,112.88695c0,0 3.86464,-0.51762 4.28483,3.42942c1.11415,10.46546 14.6488,31.19324 14.6488,31.19324c0,0 0.78103,3.62311 -1.29102,5.16054c-0.55687,0.41319 -3.2282,-0.53136 -3.68347,-0.29504c-0.6115,0.31743 -10.79432,-16.36074 -13.01656,-32.13743c-0.31006,-2.20108 -0.94262,-7.35076 -0.94262,-7.35076z" fill="#100d25"/><path d="M185.608,152.4413c-0.50236,0.1591 -8.43817,-18.31686 -10.11599,-23.4149c-1.55319,-4.71938 -3.37991,-14.81019 -3.37991,-14.81019l4.26278,-1.27263c0,0 1.3089,10.54242 3.17865,15.37066c1.82927,4.72368 11.72765,23.90544 11.72765,23.90544c0,0 -1.37537,0.38824 -2.67563,0.6148c-1.06381,0.18538 -2.62007,-0.51276 -2.9976,-0.3932z" data-paper-data="{&quot;index&quot;:null}" fill="#160f3d"/></g><g><path d="M192.95725,153.26729c0,0 3.78022,-3.46748 5.80176,-0.25274c5.36005,8.52383 24.61855,19.24908 24.61855,19.24908c0,0 2.18459,2.71231 1.11164,5.31391c-0.28838,0.69921 -2.91128,1.48149 -3.19002,1.96396c-0.37439,0.648 -15.05692,-8.91499 -23.58875,-21.43716c-1.19032,-1.74702 -4.75316,-4.83707 -4.75316,-4.83707z" fill="#100d25"/><path d="M219.13794,183.09595c-0.33228,0.41978 -15.10634,-10.03084 -19.62668,-14.13671c-0.24972,-0.2268 -10.32353,-10.79543 -10.32353,-10.79543l4.08181,-5.05586c0,0 5.64503,8.25314 9.24602,11.36735c3.52301,3.04678 19.79422,14.14881 19.79422,14.14881c0,0 -0.98,1.17126 -1.96599,2.15516c-0.80671,0.80495 -0.94233,1.98375 -1.20584,2.31668z" data-paper-data="{&quot;index&quot;:null}" fill="#160f3d"/></g><g><path d="M203.99588,145.32367l-3.37096,6.79428c0,0 -1.63834,-0.70264 -2.06428,-1.0599c-0.42593,-0.35727 -1.51696,-1.13521 -1.70372,-1.53749c-0.18677,-0.4023 -0.3303,-2.28819 -0.3303,-2.28819z" fill="#160f3d"/><path d="M188.62041,146.86265l7.23818,-1.81981l6.0869,9.78848l-5.41398,5.54514l-7.19029,2.29276l-6.08689,-9.78845z" fill="#2a2355"/></g><path d="M175.92739,121.9237c-4.4405,-0.04224 -8.00599,-3.67621 -7.96376,-8.11671c0.04223,-4.4405 3.67623,-8.00598 8.11672,-7.96376c4.4405,0.04224 8.00599,3.67621 7.96376,8.11672c-0.04223,4.4405 -3.67623,8.00598 -8.11672,7.96376z" fill="#100d25"/><path d="M172.80127,116.71398c-1.5059,-2.00446 -1.10175,-4.85018 0.9027,-6.3561c2.00446,-1.5059 4.85018,-1.10175 6.3561,0.9027c1.5059,2.00446 1.10175,4.85018 -0.9027,6.3561c-2.00446,1.5059 -4.85018,1.10175 -6.3561,-0.9027z" fill="#2a2355"/><path d="M192.21365,155.91345c-1.37577,-0.43277 -2.36366,-2.12906 -1.93089,-3.50487c0.43276,-1.37577 1.89883,-2.14023 3.27463,-1.70748c1.37576,0.43276 2.14025,1.89884 1.7075,3.27461c-0.43276,1.37577 -1.67545,2.37048 -3.05122,1.93772z" fill="#160f3d"/><g><path d="M215.42661,175.32459l5.80594,-4.34485l9.24724,1.53123l-5.0494,5.80726l1.3212,6.80834l-9.3863,-1.92741z" fill="#2a2355"/><path d="M227.79286,179.68987c-0.952,2.05614 -3.39058,2.95121 -5.44667,1.99925c-2.05613,-0.95199 -2.95121,-3.39056 -1.99924,-5.44665c0.952,-2.05611 3.39057,-2.95121 5.44666,-1.99925c2.05613,0.952 2.95122,3.39057 1.99926,5.44667z" fill="#160f3d"/><path d="M226.3976,185.91791c0,0 -2.97712,-5.08711 -2.34735,-8.21942c0.62977,-3.13229 5.15973,-6.39822 5.15973,-6.39822l6.17564,1.01411l-0.00487,14.76537z" fill="#160f3d"/></g></g><g stroke-width="1.5" stroke-linecap="butt"><g><path d="M296.61712,115.47535c0,0 -2.73881,-3.93643 -2.9879,-6.58071c-0.31931,-3.3896 0.14238,-7.72754 0.73029,-7.7897c4.50967,-0.47668 19.29569,-3.96819 30.84714,-0.43c11.55143,3.53821 33.44987,20.48128 33.44987,20.48128c0,0 -20.86368,-8.08319 -34.93685,-9.40453c-14.07316,-1.32133 -27.10255,3.72367 -27.10255,3.72367z" data-paper-data="{&quot;index&quot;:null}" fill="#160f3d"/><path d="M294.4399,105.88109c0,0 8.37083,-2.60424 11.24091,-2.64582c1.69896,-0.02461 10.87516,-0.81015 18.12529,1.15973c6.87746,1.86862 13.15458,5.87466 13.15458,5.87466c0,0 -11.56029,-2.1937 -19.27314,-2.66251c-3.2327,-0.19649 -8.04104,0.59967 -12.04021,1.35834c-5.54238,1.05144 -10.25474,1.95361 -10.25474,1.95361z" data-paper-data="{&quot;index&quot;:null}" fill="#2a2355"/></g><g><path d="M292.68074,114.71993c0,0 -1.40442,-4.58523 -0.83328,-7.17906c0.73212,-3.32494 2.49776,-7.31413 3.07649,-7.19358c4.4395,0.92466 19.58511,2.12009 29.50205,9.02003c9.91693,6.89992 25.58798,29.72595 25.58798,29.72595c0,0 -17.39411,-14.07393 -30.38975,-19.63395c-12.99564,-5.56 -26.9435,-4.73936 -26.9435,-4.73936z" data-paper-data="{&quot;index&quot;:null}" fill="#160f3d"/><path d="M293.54053,104.91936c0,0 8.76621,0.07924 11.51165,0.91698c1.62517,0.49588 10.60223,2.55297 16.90321,6.6448c5.97705,3.88148 10.72913,9.6146 10.72913,9.6146c0,0 -10.33638,-5.62246 -17.53674,-8.42652c-3.01791,-1.17528 -7.83944,-1.88704 -11.87912,-2.38715c-5.59847,-0.69309 -10.36109,-1.2746 -10.36109,-1.2746z" data-paper-data="{&quot;index&quot;:null}" fill="#2a2355"/></g><g data-paper-data="{&quot;index&quot;:null}"><path d="M292.3809,113.81557c0,0 0.6526,-4.75086 2.26094,-6.86451c2.06166,-2.70937 5.3403,-5.58715 5.81482,-5.23456c3.63982,2.70478 16.8806,10.15461 22.97953,20.58331c6.09891,10.4287 10.72601,37.72704 10.72601,37.72704c0,0 -9.86879,-20.08078 -19.32441,-30.58749c-9.45565,-10.50671 -22.45687,-15.62377 -22.45687,-15.62377z" data-paper-data="{&quot;index&quot;:null}" fill="#160f3d"/><path d="M297.27985,105.28382c0,0 7.92118,3.75599 10.06032,5.66993c1.26628,1.13296 8.5476,6.77226 12.54547,13.13325c3.79236,6.03398 5.69502,13.23336 5.69502,13.23336c0,0 -7.01638,-9.4458 -12.37157,-15.01623c-2.24455,-2.33474 -6.32049,-5.0069 -9.77593,-7.15843c-4.7888,-2.98175 -8.86602,-5.51092 -8.86602,-5.51092z" data-paper-data="{&quot;index&quot;:null}" fill="#2a2355"/></g><g><path d="M295.09482,106.63574c0,0 0.13445,5.18664 0.15271,7.40938c0.13079,15.93189 -7.47877,33.93036 -8.13042,33.7067c-0.48516,-0.16654 -2.98781,1.16196 -3.59956,0.83548c-2.27629,-1.21476 -2.03859,-4.91346 -2.03859,-4.91346c0,0 10.32693,-22.49851 9.88415,-33.01379c-0.167,-3.96582 3.7317,-4.02431 3.7317,-4.02431z" fill="#100d25"/><path d="M291.45845,147.17082c-0.39106,-0.06251 -1.82721,0.85766 -2.90672,0.83135c-1.31949,-0.03217 -2.73706,-0.21316 -2.73706,-0.21316c0,0 6.9587,-20.43268 8.07068,-25.37462c1.13662,-5.05134 0.8751,-15.67149 0.8751,-15.67149l4.40394,0.6295c0,0 -0.31726,10.24989 -1.15686,15.14685c-0.90696,5.28986 -6.02874,24.7348 -6.54907,24.65159z" data-paper-data="{&quot;index&quot;:null}" fill="#160f3d"/></g><g><path d="M284.31165,149.07255c0,0 -3.06772,3.58205 -3.98715,5.48565c-6.59007,13.64431 -19.70026,25.26975 -20.16618,24.68411c-0.34689,-0.436 -3.05654,-0.82261 -3.44497,-1.47159c-1.4452,-2.41474 0.31513,-5.4198 0.31513,-5.4198c0,0 17.46449,-13.45037 21.50769,-22.67199c1.52487,-3.4779 5.77551,-0.60637 5.77551,-0.60637z" fill="#100d25"/><path d="M262.82046,182.43881c-0.30974,-0.29039 -0.61791,-1.43624 -1.53457,-2.11332c-1.12041,-0.82756 -2.26255,-1.84137 -2.26255,-1.84137c0,0 14.45431,-13.3821 17.489,-16.91551c3.10186,-3.61161 7.46689,-12.60757 7.46689,-12.60757l4.78336,4.398c0,0 -8.40352,11.93979 -8.617,12.20098c-3.86479,4.72809 -16.93449,17.24496 -17.32509,16.8788z" data-paper-data="{&quot;index&quot;:null}" fill="#160f3d"/></g><g><path d="M279.89058,143.63058c0,0 0.1364,1.88641 0.01107,2.31188c-0.12533,0.42546 -1.08955,1.35589 -1.4581,1.77209c-0.36854,0.41624 -1.88524,1.353 -1.88524,1.353l-4.3369,-6.2223z" fill="#160f3d"/><path d="M293.85119,147.25808l-4.57543,10.5797l-7.44996,-1.20632l-6.17314,-4.68529l4.5754,-10.57973l7.42752,0.7315z" fill="#2a2355"/></g><path d="M287.32527,108.88015c-0.69722,-4.38563 2.29285,-8.50608 6.67848,-9.20327c4.38563,-0.69721 8.50609,2.29285 9.20328,6.67848c0.69722,4.38563 -2.29285,8.50608 -6.67847,9.20328c-4.38563,0.69721 -8.50609,-2.29285 -9.20328,-6.67848z" fill="#100d25"/><path d="M292.69822,111.77552c-2.20479,-1.19356 -3.02455,-3.94844 -1.83099,-6.15322c1.19356,-2.20479 3.94844,-3.02455 6.15322,-1.83099c2.20479,1.19356 3.02455,3.94844 1.83099,6.15322c-1.19356,2.20479 -3.94844,3.02455 -6.15322,1.83099z" fill="#2a2355"/><path d="M282.13382,150.11381c-0.63108,-1.29684 -0.09136,-2.8597 1.20546,-3.49078c1.29684,-0.63108 2.8597,-0.0914 3.49079,1.20544c0.63108,1.29684 -0.09558,3.12038 -1.39243,3.75148c-1.29683,0.63109 -2.67275,-0.1693 -3.30383,-1.46612z" fill="#160f3d"/><g><path d="M264.58893,182.2792l-8.99901,3.29175l0.30181,-6.92878l-5.85125,-4.99832l8.91994,-2.87938l6.38368,3.4403z" fill="#2a2355"/><path d="M253.75761,180.34755c-1.24504,-1.89309 -0.71969,-4.43707 1.17341,-5.68211c1.8931,-1.24504 4.43707,-0.71969 5.6821,1.1734c1.24504,1.89309 0.7197,4.43707 -1.17339,5.6821c-1.8931,1.24504 -4.43707,0.71971 -5.68212,-1.17339z" fill="#160f3d"/><path d="M247.34363,188.77642l-2.18422,-14.60291l5.9583,-1.91456c0,0 4.96242,2.56153 6.04762,5.56657c1.08519,3.00503 -1.10843,8.47587 -1.10843,8.47587z" fill="#160f3d"/></g></g><path d="M229.67033,188.06267c0,0 -0.24721,-1.43562 -0.57962,-3.77163c-0.06133,-0.43112 -2.77793,-1.95418 -2.77793,-1.95418c0,0 2.39717,-1.3508 2.33897,-1.7948c-0.19448,-1.48383 -0.25455,-1.10729 -0.42557,-2.69431c-0.05496,-0.51013 -3.25315,-1.59201 -3.25315,-1.59201c0,0 2.94497,-1.73317 2.8937,-2.37887c-0.03171,-0.39947 0.00886,-2.41139 -0.01307,-2.72834c-0.04904,-0.70899 -7.82832,0.06304 -9.28763,-3.41507c-1.45932,-3.47812 -3.1099,-11.50722 0.29308,-18.14338c3.40296,-6.63614 9.92583,1.00941 9.92583,1.00941l20.53798,-2.52763c0,0 7.61001,-5.0001 9.66686,-1.48956c2.05685,3.51055 3.93686,12.61301 1.28534,20.10066c-2.65153,7.48767 -10.52871,3.04536 -10.47308,3.84976c0.07161,1.03536 0.10084,1.4867 0.18285,2.71963c0.03756,0.56474 2.29238,1.65993 2.29238,1.65993c0,0 -2.03256,2.23602 -1.99141,2.86662c0.03618,0.55463 0.01361,1.10692 0.10598,1.63052c0.13404,0.75989 2.38561,2.03377 2.38561,2.03377c0,0 -2.14769,1.66808 -2.10695,2.30854c0.11048,1.73686 0.17988,2.84604 0.17988,2.84604z" fill="#100d25" stroke-width="1.5" stroke-linecap="butt"/><path d="M232.09902,208.51716c0.38126,-1.72151 1.74547,-3.03699 1.27816,-4.2502c-0.63299,-1.64333 -0.27561,-3.82073 -0.09509,-4.54305c0.1309,-0.52387 0.93514,-0.97108 1.25713,-1.64041c0.40023,-0.83193 -0.15101,-2.13581 -0.31561,-2.26626c-0.30096,-0.23857 9.05168,-3.08347 13.45233,-2.46972c1.82854,0.255 1.22929,4.2969 1.22929,4.2969c0,0 -0.38017,-0.00289 0.34574,3.00303c0.17242,0.71395 1.99625,2.16382 2.22235,3.00259c0.0374,0.13874 1.80475,3.03273 1.41475,4.85976c-0.39001,1.82704 -1.16284,3.1699 -3.52952,5.04679c-2.36667,1.87687 -4.76328,3.29197 -8.38506,2.82355c-4.41594,-0.57113 -7.80041,-4.08087 -7.80041,-4.08087c0,0 -1.45174,-2.07677 -1.07406,-3.78214z" fill="#100d25" stroke-width="1.5" stroke-linecap="butt"/><path d="M235.3734,209.58551c-0.58706,-1.89864 -5.40531,-8.96021 -4.76145,-10.4863c1.52645,-3.61803 1.45789,-5.24126 1.45789,-5.24126l13.4807,-2.55237c0,0 2.76476,1.95453 3.55229,5.0322c0.95494,3.7318 0.8815,8.81176 1.16675,12.16966c0.18395,2.16547 -13.3029,6.23109 -14.89621,1.07809z" fill="#160f3d" stroke-width="1.5" stroke-linecap="butt"/><path d="M227.00968,195.25482c-2.34898,-0.37915 -3.8227,-1.87181 -4.93844,-1.61929c-2.92908,0.66291 -5.54702,2.04946 -5.51949,1.71922c0.01244,-0.14927 -5.74424,3.52407 -5.55249,2.59789c0.18581,-0.89751 -0.19121,-4.65307 1.48546,-7.27707c1.53091,-2.39588 5.1009,-3.69693 5.7769,-4.07444c1.24521,-0.69545 6.17272,-1.16251 7.83592,-1.43617c4.80056,-0.7899 9.76439,5.78437 9.94409,5.77516c0.73166,-0.03743 3.32304,-3.05964 6.64027,-4.9517c2.0956,-1.19529 4.57272,-1.39056 6.76283,-1.83615c3.00818,-0.61201 9.87585,3.8896 10.72538,4.3262c0.75062,0.38576 -5.17847,2.28289 -6.53104,3.54981c-2.73776,2.56442 -5.65057,5.80215 -5.65057,5.80215c0,0 -16.66494,1.7807 -16.42761,1.05549c0,0 -2.40137,-3.2841 -4.55117,-3.63109z" fill="#100d25" stroke-width="1.5" stroke-linecap="butt"/><path d="M238.19971,154.4865c3.74254,-0.40945 21.13905,-2.52875 21.13905,-2.52875c0,0 1.60068,1.4611 2.02488,3.13112c0.1584,0.62364 -22.28147,1.99329 -22.23096,2.72365c0.01804,0.26098 0.5195,1.72337 0.53782,2.04582c0.03716,0.6543 20.56586,-2.9172 21.86014,-2.04764c0.28076,0.18863 3.66794,1.50081 3.66794,1.50081c0,0 -2.74111,1.77622 -3.90222,2.05968c-2.24462,0.54791 -21.40079,1.68822 -21.46721,2.33551c-0.0642,0.62557 -0.11898,0.74914 1.00087,1.40029c1.1949,0.69477 17.50187,-1.5966 19.28258,-0.72905c1.06869,0.52065 3.58495,1.99615 3.58495,1.99615c0,0 -3.76024,0.71713 -3.7533,0.93672c0.02012,0.63643 -18.84732,0.22317 -18.81433,0.93461c0.02035,0.43892 -1.66352,2.01358 0.27974,2.0928c2.63673,0.10746 10.63251,-0.20845 10.63251,-0.20845l4.58057,1.77274l-4.6638,1.5477c0,0 -10.19217,-0.43608 -10.33462,0.08992c-0.09417,0.34772 -1.71036,2.33805 0.43754,2.85109c3.188,0.76144 10.15071,0.35615 10.15071,0.35615l4.12115,1.1908c0,0 -2.86857,1.51298 -3.9996,1.90811c-2.39613,0.83702 -9.44789,-0.08958 -9.46919,0.43066c-0.04269,1.04253 -1.18242,2.23697 -0.29249,3.03164c1.0943,0.97715 13.98388,-0.59301 13.98388,-0.59301l-4.64206,4.71834l-24.45616,0.55812l-4.88558,-3.92954l14.81624,-0.8036c0,0 0.90558,-1.74939 0.79063,-2.92016c-0.04731,-0.48166 -8.25839,0.42048 -11.11906,-0.03677c-1.07736,-0.17221 -4.36392,-0.64991 -4.36392,-0.64991l3.91558,-2.04655c0,0 6.82292,0.43188 10.38563,-0.90744c2.17239,-0.81666 1.16623,-2.16374 1.04488,-2.77142c-0.13735,-0.68789 -12.01958,0.82143 -12.01958,0.82143l-3.53934,-1.24414l2.95829,-2.20953l12.4706,-0.3062c0,0 -0.08569,-1.9877 -0.13283,-2.62161c-0.04416,-0.59422 -20.07302,1.13769 -20.07302,1.13769l-3.37253,-1.77015l3.09628,-1.32138c0,0 20.85489,-0.87278 20.70274,-1.257c-0.04007,-0.10114 0.25441,-1.93886 -1.06145,-1.93502c-3.81766,0.01116 -20.46536,1.21123 -20.48734,0.94994c-0.01003,-0.11893 -3.57958,-1.56503 -3.57958,-1.56503c0,0 3.12749,-1.71882 3.95042,-2.05351c2.56765,-1.04428 19.69682,-0.13026 19.64434,-0.46718c-0.02029,-0.13022 0.97633,-2.11335 -0.66396,-2.15992c-1.94114,-0.05509 -18.15703,0.73932 -19.61792,0.18843c-1.50894,-0.569 -0.22454,-3.04998 -0.22454,-3.04998c0,0 17.55127,-0.07861 22.10657,-0.57698z" data-paper-data="{&quot;index&quot;:null}" fill="#160f3d" stroke-width="1.5" stroke-linecap="butt"/><path d="" fill="#160f3d" stroke-width="1.5" stroke-linecap="butt"/><path d="M255.99347,146.00189l3.71973,11.37163l-5.05305,9.77201c0,0 0.02932,-4.4724 -2.31418,-4.89427c-8.35018,-1.5032 -21.33818,-1.0845 -26.90688,-0.68755c-1.30034,0.09269 -1.68982,5.31169 -1.68982,5.31169l-5.16155,-9.45213c0,0 4.69635,-9.60704 4.28609,-9.86606c-0.14013,-0.08849 5.92929,-1.8929 5.92929,-1.8929l3.74973,3.10256c0,0 4.28254,-3.02952 6.85616,-3.13269c1.11317,-0.04461 5.72077,2.43788 5.72077,2.43788l4.51387,-3.49033z" fill="#160f3d" stroke-width="1.5" stroke-linecap="butt"/><path d="M251.52391,158.68273c0,0 -1.77471,5.20607 -3.66844,6.9442c-1.99146,1.82789 -8.00197,3.76739 -8.00197,3.76739c0,0 -5.69118,-0.4391 -9.07027,-3.01909c-3.8668,-2.9524 -5.54231,-8.1209 -6.53749,-8.57094c-0.66837,-0.30224 15.28476,-8.25533 15.28476,-8.25533z" fill="#2a2355" stroke-width="1.5" stroke-linecap="butt"/><path d="M250.07533,165.90063c0,0 -1.49696,4.60706 -3.1036,6.14202c-1.68959,1.61421 -6.79767,3.31752 -6.79767,3.31752c0,0 -4.84227,-0.40282 -7.723,-2.69638c-3.29649,-2.62459 -4.73437,-7.20678 -5.58201,-7.60783c-0.56928,-0.26936 12.98183,-7.27503 12.98183,-7.27503z" fill="#2a2355" stroke-width="1.5" stroke-linecap="butt"/><path d="M248.72275,172.84535c0,0 -1.2664,4.08703 -2.63379,5.44608c-1.43797,1.42921 -5.79295,2.92931 -5.79295,2.92931c0,0 -4.1332,-0.36928 -6.59702,-2.41265c-2.81942,-2.3383 -4.05746,-6.41029 -4.78178,-6.76844c-0.48645,-0.24054 11.06081,-6.42836 11.06081,-6.42836z" fill="#2a2355" stroke-width="1.5" stroke-linecap="butt"/><path d="M248.11182,180.65105c0,0 -1.17934,3.80605 -2.45271,5.07167c-1.33911,1.33094 -5.39469,2.72794 -5.39469,2.72794c0,0 -3.84904,-0.34391 -6.14348,-2.24679c-2.6256,-2.17753 -3.77854,-5.9696 -4.45303,-6.30313c-0.45302,-0.22399 10.3004,-5.98642 10.3004,-5.98642z" fill="#2a2355" stroke-width="1.5" stroke-linecap="butt"/><path d="M247.33219,187.77335c0,0 -0.7616,3.46053 -1.79573,4.67689c-1.08751,1.27914 -4.5773,2.8191 -4.5773,2.8191c0,0 -3.43639,-0.01808 -5.61133,-1.53343c-2.48881,-1.73407 -3.7929,-5.00852 -4.41544,-5.25382c-0.41811,-0.16475 8.68178,-6.07196 8.68178,-6.07196z" fill="#2a2355" stroke-width="1.5" stroke-linecap="butt"/><path d="M247.45462,196.44476c0,0 -0.79491,2.96948 -1.73858,3.98335c-0.99237,1.0662 -4.0769,2.26484 -4.0769,2.26484c0,0 -2.97753,-0.14961 -4.80342,-1.54768c-2.08941,-1.59988 -3.092,-4.48855 -3.62198,-4.72541c-0.35596,-0.15908 7.76089,-4.92402 7.76089,-4.92402z" fill="#2a2355" stroke-width="1.5" stroke-linecap="butt"/><path d="M249.206,199.2448c0,0 -2.04699,-3.06739 -0.23676,-5.22253c0.43681,-0.51999 4.75422,-3.34411 9.70912,-4.73497c0.42359,-0.1189 1.92932,0.19334 2.75356,1.06267c0.9642,1.01692 1.18169,2.62833 0.45298,2.66583c-3.59458,0.18499 -4.3717,-0.1056 -6.5628,1.17589c-2.54327,1.48744 -6.11606,5.05312 -6.11606,5.05312z" fill="#160f3d" stroke-width="1.5" stroke-linecap="butt"/><path d="M229.49508,159.03224l10.08077,-5.47214l7.19572,5.41405" fill="none" stroke-width="1" stroke-linecap="round"/><path d="M231.4137,167.04715l8.42914,-5.09263l6.07185,4.3549" fill="none" stroke-width="1" stroke-linecap="round"/><path d="M247.57356,201.73336c0,0 -0.12412,2.82931 -0.77121,3.9291c-0.68049,1.15658 -3.21656,2.84858 -3.21656,2.84858c0,0 -2.70814,0.45796 -4.62878,-0.43628c-2.19785,-1.02333 -3.67454,-3.42225 -4.1984,-3.52984c-0.35185,-0.07228 6.00123,-5.97369 6.00123,-5.97369z" fill="#2a2355" stroke-width="1.5" stroke-linecap="butt"/><path d="M234.11749,173.26455l5.90642,-3.36442l5.04955,3.97088" fill="none" stroke-width="1" stroke-linecap="round"/><g stroke-width="1.5" stroke-linecap="butt"><g><path d="M277.09029,181.40416c4.93827,-2.30122 10.80701,-0.16346 13.10822,4.7748c2.30121,4.93827 0.16346,10.80701 -4.77479,13.10822c-4.93827,2.30122 -10.80701,0.16346 -13.10823,-4.7748c-2.30122,-4.93827 -0.16346,-10.80701 4.7748,-13.10823z" fill="#160f3d"/><g><path d="M305.33913,244.67849l4.73958,-2.38593l2.81973,5.6013c0,0 -1.11397,1.46087 -1.93649,1.87493c-0.75081,0.37795 -2.80309,0.51098 -2.80309,0.51098z" fill="#160f3d"/><path d="M296.41293,230.92119l8.11613,-4.14141l7.91739,15.51615c0,0 -1.84128,3.19603 -3.26389,3.92193c-1.264,0.64497 -4.85225,0.21947 -4.85225,0.21947z" fill="#100d25"/><path d="M301.60743,206.60841l6.9237,18.58056c0,0 -4.08672,4.34746 -6.85828,5.68764c-2.85668,1.38136 -10.03415,2.48071 -10.03415,2.48071l-9.11988,-16.70782z" fill="#2a2355"/><path d="M284.83157,214.83657l-10.08805,-2.67447l9.10527,-1.58146l-0.89674,-14.93263l12.37693,9.76486l6.57565,-7.07574l-3.17839,9.5599l9.52969,22.06462c0,0 -2.40043,3.63178 -5.08495,5.00159c-2.68451,1.36981 -7.49118,1.41559 -7.49118,1.41559z" fill="#160f3d"/><path d="M288.71339,214.61691l7.75808,-3.9587l7.15506,17.5599c0,0 -1.3884,2.06235 -2.3164,2.53587c-1.04691,0.5342 -3.65136,0.50927 -3.65136,0.50927z" fill="#0028ff"/><path d="M281.85632,203.2796l9.06877,-4.3305c0,0 2.49185,5.21837 3.54043,7.41424c0.39964,0.83695 7.2888,-0.12326 7.2888,-0.12326l-5.11405,5.13155c0,0 0.648,5.29622 -1.58928,6.60645c-2.23729,1.31023 -6.99583,-1.57874 -6.99583,-1.57874l-7.23927,0.09627c0,0 5.00917,-4.90484 4.61741,-5.72526c-1.05159,-2.2022 -3.57697,-7.49077 -3.57697,-7.49077z" fill="#100d25"/><path d="M283.41525,199.09372c0.93026,1.74932 2.55057,5.22398 2.55057,5.22398c0,0 0.73952,4.67127 -0.352,5.74591c-0.4538,0.44676 -1.34854,1.46095 -3.55127,0.76921c-2.20273,-0.69177 -4.6716,-3.35155 -4.6716,-3.35155c0,0 3.58822,0.84951 4.2383,-0.06822c0.65009,-0.91772 0.91641,-1.55397 0.24068,-2.63773c-0.80789,-1.29573 -2.79286,-2.58191 -3.30557,-3.54603c-0.96272,-1.8103 -2.98103,-5.31236 -2.98103,-5.31236c0,0 1.30445,-1.56274 2.13273,-1.97872c0.70929,-0.35621 2.53553,-0.36567 2.53553,-0.36567c0,0 2.19107,3.69233 3.16366,5.5212z" data-paper-data="{&quot;index&quot;:null}" fill="#2a2355"/><path d="M300.55298,233.47201l-0.00865,-4.05725l3.67655,2.18562l4.69584,9.20268c0,0 -0.70317,1.69715 -1.34607,2.02518c-0.57124,0.29148 -2.32186,-0.15357 -2.32186,-0.15357z" fill="#2a2355"/><path d="M283.97373,191.8788c0,0 1.09539,-1.46128 1.80399,-1.81884c0.82747,-0.41756 2.85972,-0.53453 2.85972,-0.53453c0,0 1.61087,3.70715 2.49156,5.55877c0.46905,0.98611 0.31985,3.34666 0.87942,4.76735c0.46806,1.1883 1.13776,1.35335 2.26213,1.3778c1.12435,0.02446 2.57929,-3.3638 2.57929,-3.3638c0,0 0.66592,3.56741 -0.09045,5.74876c-0.75636,2.18139 -2.10397,2.29601 -2.73315,2.39441c-1.51335,0.2367 -4.82507,-3.13972 -4.82507,-3.13972c0,0 -1.82591,-3.37114 -2.67697,-5.16037c-0.88972,-1.87057 -2.55053,-5.82984 -2.55053,-5.82984z" fill="#2a2355"/><path d="M275.22811,192.87746c0,0 1.68843,-4.34084 4.59763,-5.36763c2.90921,-1.02679 7.6573,-0.31296 7.6573,-0.31296l5.89754,0.52287l-3.50858,4.17465l-3.11029,5.39407l5.74159,15.43355l-9.06081,-13.74489l-6.14929,-1.48475l-6.33438,-0.86809z" fill="#160f3d"/><path d="M277.24023,184.64926c0,0 2.08726,-1.70453 4.73585,-1.33977c2.64858,0.36477 4.46938,2.21013 4.46938,2.21013l3.62527,7.11325l-3.18662,4.89013l-5.52359,-6.81552l1.79887,7.64708l-5.71126,-0.19797c0,0 -3.39012,-7.03734 -3.5112,-7.84084c-0.34644,-2.29915 3.30329,-5.66648 3.30329,-5.66648z" fill="#100d25"/><path d="M288.62102,227.52595c0,0 6.29625,-2.61102 9.2312,-4.10866c2.81799,-1.4379 8.04185,-4.70523 8.04185,-4.70523l1.58931,0.88589l-0.32982,1.58235c0,0 -5.42729,3.3711 -8.31612,4.84518c-2.86873,1.46381 -8.95695,3.96869 -8.95695,3.96869l-1.78987,-0.64215z" fill="#100d25"/></g></g><g><path d="M274.54819,182.03134c1.46841,-0.42917 8.06439,-2.47621 8.06439,-2.47621c0,0 3.51847,6.27371 3.8436,10.7204c0.27785,3.79984 -2.46704,8.10545 -2.46704,8.10545c0,0 -4.55268,-2.06988 -6.75014,-5.13868c-2.33722,-3.26396 -3.03826,-11.10939 -2.6908,-11.21094z" fill="#2a2355"/><g><path d="M266.39681,175.96662l-2.79483,-13.13794l17.09968,-5.81379l5.60321,14.04284c0,0 -0.71146,2.87489 -2.61054,4.12031c-1.72909,1.13397 -4.57587,0.62777 -6.16631,1.01994c-1.70343,0.42004 -3.80506,3.25902 -6.2238,3.08777c-2.26469,-0.16033 -4.90743,-3.31912 -4.90743,-3.31912z" fill="#100d25"/><path d="M263.39885,175.36798l8.82347,2.92859l-0.75206,-4.5395l3.39472,-5.28656l5.07675,0.63709l3.67071,4.18231l3.82661,-7.84959c0,0 1.47423,6.42738 0.82822,9.72771c-0.51668,2.63967 -5.1807,4.19839 -7.94859,5.39075c-2.76791,1.19236 -5.15816,2.59747 -8.82663,1.70333c-3.89717,-0.9499 -8.09319,-6.89405 -8.09319,-6.89405z" fill="#160f3d"/><path d="M268.92665,173.67083l-2.65134,-10.06365l6.75373,-1.3325l5.3069,-3.2254l3.95618,8.82488l-5.10184,7.35805z" fill="#2a2355"/></g></g><g><path d="M247.66328,133.56872c0,0 6.28536,8.00677 7.41898,7.08598c0.88604,-0.7197 1.22787,-9.39849 1.22787,-9.39849c0,0 3.71372,7.06161 4.76022,6.95508c1.35841,-0.13829 4.09119,-7.28207 4.09119,-7.28207c0,0 1.5966,7.02062 2.3237,7.38715c0.53512,0.26974 8.17322,-3.78244 8.17322,-3.78244l-2.76473,8.70386l7.17039,1.82612c0,0 -5.63253,0.98764 -5.21399,3.37518c0.41853,2.38755 6.50795,0.29917 6.50795,0.29917l-4.42217,4.26887c0,0 -3.19667,2.76268 -5.52141,4.10739c-2.32475,1.3447 -4.00648,2.25268 -6.85087,2.63669c-2.84441,0.38401 -5.10936,-0.96239 -5.10936,-0.96239c0,0 -0.18299,-4.0296 -1.96269,-5.64706c-1.77973,-1.61747 -6.68418,-1.32616 -6.68418,-1.32616c0,0 1.91446,-3.79711 0.1762,-5.63549c-1.73827,-1.83835 -6.96213,-1.54119 -6.96213,-1.54119c0,0 4.29403,-1.60859 5.11306,-4.09823c0.81904,-2.48966 -1.47117,-6.97191 -1.47117,-6.97191z" data-paper-data="{&quot;index&quot;:null}" fill="#100d25"/><path d="M253.99899,152.97202l-1.08616,-2.61606l11.00152,-4.87066l1.06528,2.31434z" fill="#100d25"/><path d="M250.71717,151.6045c-0.46975,-2.01349 0.78171,-4.02654 2.79519,-4.49628c2.01349,-0.46975 4.02654,0.78171 4.49628,2.79518c0.46975,2.01349 -0.78171,4.02654 -2.79519,4.49628c-2.01349,0.46975 -4.02654,-0.78171 -4.49628,-2.79519z" fill="#160f3d"/></g><path d="M264.01869,163.43154c-3.59145,-0.33372 -8.37917,-3.74232 -8.37917,-3.74232l7.5368,-0.48266c0,0 4.33953,-0.88897 6.20071,-1.57683c1.7811,-0.65828 4.976,-2.293 4.976,-2.293l3.14037,-1.75482l6.08985,0.0255c0,0 -1.29431,3.26241 -6.47384,6.04388c-5.12364,2.75149 -11.30478,3.94621 -13.09076,3.78024z" fill="#160f3d"/><g><path d="M272.12639,165.70181l-6.38131,-16.90364l2.69371,-1.31374l6.48475,17.90449z" fill="#100d25"/><path d="M262.95667,146.39356c-0.27545,-1.69831 0.878,-3.29835 2.5763,-3.5738c1.69831,-0.27545 3.29835,0.87799 3.5738,2.5763c0.27545,1.69831 -0.878,3.29835 -2.57631,3.57379c-1.69831,0.27545 -3.29835,-0.87799 -3.57379,-2.57629z" fill="#160f3d"/></g><g><path d="M280.20446,190.81356l-6.11602,-20.15114l2.52162,-1.16635l5.75166,19.73213z" fill="#100d25"/><path d="M270.87473,168.35008c-0.04994,-1.88413 1.43697,-3.45199 3.32111,-3.50191c1.88414,-0.04993 3.45199,1.43697 3.50191,3.32111c0.04994,1.88413 -1.43696,3.452 -3.3211,3.50192c-1.88413,0.04994 -3.452,-1.43697 -3.50192,-3.3211z" fill="#160f3d"/></g><path d="M278.16501,189.49225c-0.16033,-1.6084 1.01358,-3.04224 2.62198,-3.20255c1.6084,-0.16033 3.04224,1.01359 3.20255,2.62198c0.16033,1.6084 -1.01358,3.04223 -2.62198,3.20255c-1.6084,0.16033 -3.04223,-1.01358 -3.20255,-2.62198z" fill="#160f3d"/></g><g data-paper-data="{&quot;index&quot;:null}" stroke-width="1.5" stroke-linecap="butt"><g><path d="M161.91851,227.3695l2.91137,-4.50508l-3.44949,-2.06721l2.59748,-2.58962l-5.42978,-4.79871c0,0 9.58602,0.37885 12.54597,-0.10612c0.61735,-0.10115 1.58097,-6.40258 2.75728,-7.46252c1.65153,-1.48816 3.59402,2.2928 4.46214,3.72754c0.53215,0.87951 -3.58333,8.36753 -3.58333,8.36753l1.91014,3.99311l-5.01108,1.25069l2.83527,4.08425l-4.97779,1.89864c0,0 5.78366,3.29768 4.97214,3.10547c-0.64697,-0.15324 -5.29455,2.03306 -5.29455,2.03306z" fill="#160f3d"/><path d="M168.75091,221.97326l-1.76506,-7.69066l-5.3909,-0.99313c0,0 2.51158,-2.07713 2.55155,-3.33128c0.03848,-1.20713 -2.34479,-4.23372 -2.34479,-4.23372l5.35158,0.2466l-1.64985,-4.25759c0,0 4.72583,1.17274 5.29931,0.78377c2.84928,-1.93263 8.87204,-1.66636 8.87204,-1.66636l2.28171,2.7314c0,0 -5.62179,1.70421 -7.83816,4.79425c-2.18503,3.04633 -5.3674,13.61673 -5.3674,13.61673z" fill="#100d25"/></g><g><path d="M176.07625,232.43371c0,0 7.70436,-3.04165 11.07639,-6.50592c6.60052,-6.781 7.37983,-15.5649 9.04165,-15.45518c1.41827,0.09364 2.90015,14.94237 2.90015,14.94237c0,0 -2.71815,-2.22156 -3.02961,-1.9595c-0.55977,0.47096 -0.93683,3.56818 -2.23665,5.65976c-1.44143,2.31944 -4.14153,4.37007 -4.14153,4.37007c0,0 -4.04666,2.24696 -5.99697,2.07056c-2.19794,-0.19878 -7.61338,-3.12214 -7.61338,-3.12214z" fill="#160f3d"/><path d="M184.28648,210.02205c0.0042,-0.33467 8.19209,-4.79685 8.19209,-4.79685l6.64096,4.89167c0,0 1.71772,4.75119 -0.32798,8.16143c-1.21888,2.03192 -4.01054,1.76867 -5.40968,2.97991c-1.79921,1.55758 -3.33034,7.79142 -6.45586,9.53186c-3.61441,2.01272 -9.20208,-2.25275 -9.20208,-2.25275l4.17305,-1.04937l2.59973,-1.31238c0,0 0.00935,-1.54722 -0.49232,-2.23599c-0.4624,-0.63487 -2.40943,-1.74812 -2.40943,-1.74812c0,0 2.23651,-0.13529 3.29136,-0.48029c0.95407,-0.31207 2.76574,-1.50089 2.76574,-1.50089c0,0 -3.39442,-7.89543 -3.36561,-10.1882z" fill="#100d25"/></g><g><path d="M182.04186,206.03413l3.71763,0.878l-2.07117,7.44878c0,0 -1.24004,0.2589 -1.85578,0.11347c-0.62337,-0.14724 -1.23143,-1.01858 -1.23143,-1.01858z" fill="#100d25"/><g><g><path d="M177.19621,204.21895l-4.63536,-13.74863l3.61241,-1.58242l3.95071,13.16786z" fill="#160f3d"/><path d="M168.3369,191.17534c0.08346,-1.26442 0.3409,-5.16345 0.47131,-7.13886c0.04694,-0.71102 2.47513,-1.01453 2.47513,-1.01453l13.20331,0.8717l-0.65983,9.9944c0,0 -11.02646,-0.72797 -13.55498,-0.8949c-0.98235,-0.06484 -1.98601,-1.04412 -1.93492,-1.81783z" fill="#160f3d"/><path d="M180.8731,185.5662c0,0 -8.87805,-9.24732 -7.66958,-16.10206c1.20848,-6.85477 14.0567,-11.85379 14.0567,-11.85379l2.45522,3.50728c0,0 -11.46463,3.3539 -12.69373,9.30001c-1.22914,5.94612 6.20351,12.63789 6.20351,12.63789z" fill="#160f3d"/><path d="M171.67898,187.74163c0.08889,-1.34629 1.25229,-2.3656 2.59858,-2.27673c1.34629,0.08889 2.36561,1.25228 2.27673,2.59859c-0.08889,1.34629 -1.25229,2.36561 -2.59859,2.27673c-1.34629,-0.08889 -2.3656,-1.25229 -2.27673,-2.59859z" fill="#2a2355"/></g><path d="M207.67695,185.65202c0,0 -0.8383,-1.91008 -0.77727,-2.32078c0.06101,-0.41069 0.79915,-1.51631 1.12667,-1.92141c0.32751,-0.40508 2.31498,-1.02924 2.31498,-1.02924l5.82685,5.92413z" fill="#2a2355"/><path d="M181.1088,209.852l0.28165,-4.26589l16.72361,-9.09416c0,0 3.32032,1.38946 3.90224,1.42788c1.29547,0.08554 -1.49763,13.21367 -1.49763,13.21367z" fill="#160f3d"/><path d="M176.03941,205.79409c0.19832,-3.00389 2.79421,-5.27828 5.79811,-5.07994c3.00389,0.19832 5.27828,2.79421 5.07994,5.79812c-0.19832,3.00389 -2.79424,5.27826 -5.7981,5.07993c-3.00389,-0.19832 -5.27826,-2.79424 -5.07993,-5.7981z" fill="#160f3d"/><path d="M180.9393,195.23468c1.54589,-3.4453 10.27297,-24.57165 10.27297,-24.57165c0,0 15.10412,6.66501 16.70707,6.61565c0.61176,-0.01884 -10.84807,26.12993 -10.84807,26.12993c0,0 -5.63528,1.39018 -8.81047,-0.09378c-4.70127,-2.19712 -7.53366,-7.60732 -7.3215,-8.08014z" fill="#160f3d"/><path d="M188.85535,192.8556l4.94699,-20.29723l10.55217,3.43794l-11.23819,18.02594l-3.30938,2.0321z" fill="#2a2355"/><path d="M181.86233,192.15697l-2.89261,-1.69309c0,0 -0.70869,-0.54095 -0.31096,-1.50152c1.47743,-3.56831 5.04077,-12.27416 5.72573,-13.92849c0.22409,-0.54124 1.23663,-0.72937 1.23663,-0.72937l3.02676,1.46392z" fill="#100d25"/><path d="M177.49895,198.67703l2.90057,-5.37136l7.92408,7.78853l10.80724,-0.43285l-1.47486,6.4904l-11.54081,-0.39861z" fill="#100d25"/><path d="M189.73636,212.92689c0.092,-1.39359 1.29632,-2.44874 2.68991,-2.35673c1.39359,0.092 2.44874,1.29633 2.35673,2.68992c-0.092,1.39359 -1.29632,2.44874 -2.68991,2.35673c-1.39359,-0.092 -2.44876,-1.29634 -2.35673,-2.68992z" fill="#2a2355"/><path d="M202.59583,196.94592c0,0 -0.83831,-1.91009 -0.77727,-2.32078c0.06101,-0.41069 0.79914,-1.51631 1.12667,-1.92141c0.32751,-0.40508 2.31499,-1.02926 2.31499,-1.02926l5.82686,5.92413z" fill="#2a2355"/><path d="M205.1311,190.99257c0,0 -0.8383,-1.91008 -0.77727,-2.32077c0.06101,-0.41069 0.79914,-1.51631 1.12667,-1.92141c0.32751,-0.40508 2.31499,-1.02926 2.31499,-1.02926l5.82685,5.92414z" fill="#2a2355"/><path d="M202.53905,199.84805c0,0 -1.80998,-0.17935 -2.75449,-0.14818c-0.85556,0.02822 -2.68224,0.09088 -2.68224,0.09088c0,0 7.56892,-18.18848 8.519,-20.4831c0.31083,-0.75072 5.42701,-0.1087 5.42701,-0.1087z" fill="#100d25"/><path d="M178.86982,205.90936c0.0933,-1.41362 1.31491,-2.48389 2.72852,-2.39057c1.41362,0.0933 2.4839,1.3149 2.39058,2.72852c-0.0933,1.41362 -1.31491,2.48388 -2.72852,2.39057c-1.41362,-0.0933 -2.48389,-1.31491 -2.39057,-2.72852z" fill="#2a2355"/></g></g><g><g><g><path d="M200.84716,175.79196l-7.37211,-8.05111l3.34466,-11.85442l8.00397,8.18008l9.84961,-0.66103l-3.64581,12.38509z" data-paper-data="{&quot;index&quot;:null}" fill="#160f3d"/><path d="M193.11105,165.93543l7.57086,7.00099l11.23564,-0.42934l-0.6643,7.1531c0,0 -11.56527,0.14202 -13.19435,0.07332c-0.489,-0.02062 -8.29236,-7.91609 -8.29236,-7.91609z" fill="#2a2355"/></g><path d="M198.11676,174.89119l6.4865,-14.27071c0,0 2.09186,0.32933 2.45199,0.493c0.62331,0.28332 -7.00187,15.94272 -7.00187,15.94272z" fill="#100d25"/></g><path d="M195.30115,177.12193c0.11017,-1.66883 1.55235,-2.93236 3.22117,-2.82219c1.66883,0.11017 2.93237,1.55234 2.8222,3.22116c-0.11017,1.66883 -1.55235,2.93238 -3.22116,2.82221c-1.66883,-0.11017 -2.93237,-1.55234 -2.8222,-3.22115z" fill="#160f3d"/></g><g><path d="M185.23238,153.30274c0,0 0.1703,-1.27936 1.71569,-3.1243c4.13778,-4.93973 12.23046,-14.32357 14.22495,-16.6408c0.88838,-1.03216 3.85539,-1.26959 3.85539,-1.26959l7.35656,7.23296l-18.67668,21.23105z" fill="#2a2355"/><path d="M200.70686,129.26935c0.45398,-0.53518 1.68798,-1.56849 1.68798,-1.56849c0,0 1.16127,-0.52428 1.80879,-0.00122c2.02804,1.63828 11.75823,10.86594 11.75823,10.86594l-2.45874,2.89861c0,0 -10.62257,-9.01064 -12.4869,-10.59202c-0.538,-0.45635 -0.60743,-1.25143 -0.30937,-1.6028z" fill="#100d25"/><path d="M181.70248,153.25356c0.31337,-0.36945 0.83438,-1.07498 1.04255,-1.32039c0.34436,-0.40596 1.36227,-0.69692 1.85498,-0.279c1.80171,1.52832 12.58566,10.6758 12.58566,10.6758l-2.45874,2.89861c0,0 -9.92581,-8.41957 -12.0208,-10.19666c-0.74154,-0.629 -1.3643,-1.35315 -1.00362,-1.77836z" fill="#100d25"/><path d="M190.75628,150.12349c2.63857,-3.20011 8.96867,-10.40836 10.41832,-12.16651c0.60089,-0.72877 1.99602,-0.78355 2.51367,-0.35675c0.73781,0.60834 2.68411,2.21312 2.68411,2.21312c0,0 0.50517,1.19758 -0.6299,2.81801c-2.67094,3.81292 -8.61771,10.35019 -9.88574,11.88809c-0.55464,0.67272 -2.11165,0.60853 -2.11165,0.60853c0,0 -2.24569,-1.91473 -2.98519,-2.5245c-0.48923,-0.4034 -0.75197,-1.57235 -0.00358,-2.47999z" fill="#0028ff"/><path d="M234.11226,143.20474c0,0 -5.23568,2.14366 -6.80112,3.85213c-0.79839,0.87137 -0.02161,3.71411 -1.10301,5.70227c-1.37522,2.52838 -4.22294,1.69436 -6.36848,4.06761c-0.95169,1.05274 -1.40286,5.41807 -2.14471,6.40986c-0.71757,0.95933 -3.15217,5.49272 -3.15217,5.49272l-1.01161,-5.73721c0,0 -8.77027,3.33446 -10.10495,2.93067c-1.49586,-0.45255 -3.67095,-5.42335 -3.67095,-5.42335l-7.31258,0.23579c0,0 4.68901,-4.92126 4.46926,-5.27142c-0.98058,-1.56258 -4.36267,-4.32448 -4.36267,-4.32448l7.04949,-3.75682l-2.38451,-6.79716c0,0 6.89364,1.85742 7.56635,1.45833c0.91407,-0.54227 2.65744,-7.00448 2.65744,-7.00448c0,0 3.68965,4.80298 5.5432,4.77957c1.42798,-0.018 3.93283,-5.46721 3.93283,-5.46721c0,0 3.24232,6.82765 4.56287,7.56938c1.68957,0.94899 6.76529,-5.13424 6.76529,-5.13424l0.79878,4.82234z" fill="#100d25"/><path d="M211.05245,150.96058l0.94977,-12.94217c0,0 3.15639,-1.60424 3.08266,-0.18107c-0.15236,2.94089 -0.87895,13.28661 -0.87895,13.28661z" fill="#100d25"/><path d="M209.03478,151.63441c0.11711,-1.7739 1.65009,-3.11699 3.42397,-2.99989c1.7739,0.11711 3.11699,1.65009 2.99987,3.42398c-0.11711,1.7739 -1.65008,3.11698 -3.42398,2.99987c-1.7739,-0.11711 -3.11699,-1.65008 -2.99988,-3.42398z" fill="#160f3d"/><path d="M203.17566,159.16653c0.11017,-1.66883 1.55234,-2.93237 3.22117,-2.8222c1.66883,0.11017 2.93237,1.55235 2.8222,3.22117c-0.11017,1.66883 -1.55234,2.93235 -3.22117,2.82219c-1.66883,-0.11017 -2.93238,-1.55234 -2.82221,-3.22116z" fill="#160f3d"/></g></g><g><path d="M229.69761,198.76218c-0.35299,2.31398 -2.7909,3.41849 -2.60212,3.3692c4.74687,-1.23876 4.31988,3.01447 6.26838,4.31838c0.5853,0.39169 0.61083,16.31812 0.61083,16.31812l-3.51969,14.10745c0,0 -3.23336,1.71665 -6.02513,-0.07891c-0.902,-0.58013 -3.80645,-2.51349 -5.56376,-7.38238c-2.90483,-8.04822 -5.514,-25.66134 -5.514,-25.66134c0,0 0.22002,-5.50124 2.89009,-7.77241c2.67491,-2.27529 5.88979,-3.89065 9.88958,-3.06371c3.9998,0.82696 4.05389,2.64605 3.56581,5.84558z" fill="#100d25" stroke-width="1.5" stroke-linecap="butt"/><path d="M221.99684,220.55793c0,0 -2.04527,-5.76529 -2.47699,-8.55516c-0.37925,-2.45072 -0.92181,-9.32994 -0.92181,-9.32994c0,0 4.08,-3.98863 7.65808,-4.59614c3.57809,-0.60746 6.40218,1.57763 6.81267,2.38522c0.84916,1.67064 -0.05356,20.59089 1.26822,25.54954c2.01534,7.56081 -2.20112,5.90341 -2.20112,5.90341l-5.20381,0.86334z" fill="#160f3d" stroke-width="1.5" stroke-linecap="butt"/><path d="M218.34229,245.45056c0,0 -5.84702,0.08752 -7.14377,-2.35171c-1.07982,-2.03126 4.7703,-7.79012 6.95001,-10.00842c2.63196,-2.67859 13.87199,-3.48902 13.77572,-2.34326c-0.09627,1.14578 -0.91721,5.47014 -2.67257,7.65149c-1.84677,2.29492 -10.90941,7.0519 -10.90941,7.0519z" fill="#160f3d" stroke-width="1.5" stroke-linecap="butt"/><path d="M212.62128,250.52735c0,0 -0.37762,-2.71537 0.86615,-5.55103c0.35687,-0.81366 1.30774,-2.70477 3.61689,-5.26978c2.87506,-3.19365 7.04894,-5.35254 7.04894,-5.35254l6.61987,2.49642c0,0 -2.68041,3.12881 -3.54634,5.31557c-0.85468,2.1584 3.86396,7.04037 3.86396,7.04037c0,0 -6.88537,2.7798 -10.27621,3.02228c-2.46627,0.1764 -8.19325,-1.70137 -8.19325,-1.70137z" fill="#100d25" stroke-width="1.5" stroke-linecap="butt"/><path d="M215.16315,260.14299c-1.97964,-2.33458 -3.10684,-8.41079 -3.65396,-10.21884c-0.396,-1.30862 1.29588,-5.29011 3.11006,-6.13364c0.31812,-0.14792 3.49283,-1.03503 6.40929,-1.11624c4.31072,-0.12 9.55407,1.74146 9.97244,2.05679c0.23826,0.17957 0.3128,1.00754 -0.08005,1.49932c-0.39288,0.49178 -0.72713,0.88841 -1.79248,0.84462c-0.54855,-0.02252 -3.04058,-0.69962 -5.57175,-0.93291c-1.34106,-0.12361 -3.09868,-0.51851 -4.66138,-0.08295c-1.21624,0.33899 -2.47263,1.4347 -2.2995,1.91319c0.3957,1.09325 3.52392,2.5094 4.47798,4.94205c0.99273,2.5313 -0.42919,5.75497 -0.08105,5.76313c1.87052,0.04387 10.41089,0.24412 15.04901,0.35286c1.79034,0.04198 1.87,0.77583 1.8739,1.0623c0.00176,0.12891 -0.7013,1.42953 -1.86919,2.68007c-1.15505,1.23682 -2.76466,2.42469 -4.59674,2.38169c-2.80147,-0.06569 -5.20541,-0.3728 -8.56684,-1.29528c-3.36141,-0.92247 -5.74006,-1.3817 -7.71973,-3.71627z" fill="#160f3d" stroke-width="1.5" stroke-linecap="butt"/><path d="M219.98611,251.54277c2.12786,-1.42072 4.27646,-2.7005 7.2571,-2.63059c2.87217,0.06735 3.96465,1.19768 6.02058,2.83313c2.05594,1.63546 2.45907,4.96963 2.45907,4.96963c0,0 -7.98476,0.86525 -9.27274,0.83507c-3.48913,-0.08183 -8.20853,-1.24497 -8.20853,-1.24497c0,0 -0.38343,-3.34153 1.74447,-4.76227z" fill="#2a2355" stroke-width="1.5" stroke-linecap="butt"/><path d="M222.30204,235.01584c-0.18565,-2.8589 2.56164,-5.19279 6.13618,-5.21294c3.57458,-0.02014 6.62283,2.2811 6.80846,5.14c0.18565,2.8589 -2.56159,5.19281 -6.13616,5.21295c-3.57458,0.02014 -6.62283,-2.28112 -6.80846,-5.14z" fill="#160f3d" stroke-width="1.5" stroke-linecap="butt"/><path d="M222.4937,255.16132c2.018,-1.34736 3.93015,-2.25447 6.75689,-2.18818c2.7239,0.06389 4.66518,0.95073 6.61496,2.50173c1.94978,1.55099 1.01263,5.1229 1.01263,5.1229c0,0 -5.29315,0.33003 -8.25422,0.26059c-3.30897,-0.07761 -7.78467,-1.18068 -7.78467,-1.18068c0,0 -0.36361,-3.169 1.65442,-4.51638z" fill="#2a2355" stroke-width="1.5" stroke-linecap="butt"/><path d="M229.91052,261.2935c0.38052,-0.53229 2.42326,-1.61936 3.27293,-1.98324c0.84969,-0.36387 4.78993,-0.03068 4.78993,-0.03068l4.79374,7.57145c0,0 -6.64799,-0.69009 -9.05111,-1.03593c-1.59417,-0.22942 -3.96504,-0.83722 -3.96504,-0.83722c0,0 -0.221,-3.15209 0.15954,-3.6844z" fill="#100d25" stroke-width="1.5" stroke-linecap="butt"/><path d="M227.03409,224.47371c0,0 -3.2499,-13.9653 -3.23731,-17.94161c0.005,-1.57809 5.49011,-4.50469 5.49011,-4.50469l6.69505,3.73836c0,0 2.90281,13.52386 2.54422,17.25536c-0.1551,1.61433 -4.65861,4.74884 -4.65861,4.74884z" fill="#2a2355" stroke-width="1.5" stroke-linecap="butt"/><path d="M233.32802,207.12356l-6.83286,1.09364" fill="none" stroke-width="1.25" stroke-linecap="round"/><path d="M233.92486,211.6338l-6.00296,1.16659" fill="none" stroke-width="1.25" stroke-linecap="round"/><path d="M235.78351,221.80448l-5.912,0.87344" fill="none" stroke-width="1.25" stroke-linecap="round"/><path d="M228.85738,218.2238l6.07433,-1.27899" fill="none" stroke-width="1.25" stroke-linecap="round"/><path d="M233.78831,239.35488c0,0 -1.27993,-1.71988 -1.27345,-2.10997c0.00649,-0.39005 0.69398,-1.48836 1.01253,-1.89555c0.31853,-0.40717 2.54063,-1.15919 2.54063,-1.15919l7.73731,5.06313z" fill="#2a2355" stroke-width="1.5" stroke-linecap="butt"/></g><path d="M217.94354,195.3559c-0.8017,0.48747 -1.88884,1.57496 -2.50177,2.17471c-1.251,1.22407 -2.27317,3.91099 -3.10674,4.14031c-0.6695,0.18415 -1.87434,-1.04583 -2.19841,-1.95436c-0.42558,-1.19325 1.74657,-3.32178 1.9135,-3.53899c0.95097,-1.23731 1.71671,-2.64045 4.25654,-3.87263c2.53983,-1.23217 4.90021,-0.99451 6.53403,-1.2466c2.44923,-0.37785 6.38172,1.59165 6.38172,1.59165c0,0 1.3353,3.27814 0.2248,3.43612c-1.35189,0.19231 -4.91596,-1.92029 -6.24614,-1.78442c0,0 -2.81958,-0.42819 -5.25752,1.0542z" data-paper-data="{&quot;index&quot;:null}" fill="#160f3d" stroke-width="1.5" stroke-linecap="butt"/></g></g></svg>