<svg version="1.1" xmlns="http://www.w3.org/2000/svg" xmlns:xlink="http://www.w3.org/1999/xlink" width="263.28306" height="165.85558" viewBox="0,0,263.28306,165.85558"><defs><radialGradient cx="249.42572" cy="120.67806" r="3.56128" gradientUnits="userSpaceOnUse" id="color-1"><stop offset="0" stop-color="#ff1c1c"/><stop offset="1" stop-color="#ff1c1c" stop-opacity="0"/></radialGradient></defs><g transform="translate(-112.50737,-101.42953)"><g data-paper-data="{&quot;isPaintingLayer&quot;:true}" fill-rule="nonzero" stroke="#000000" stroke-linejoin="miter" stroke-miterlimit="10" stroke-dasharray="" stroke-dashoffset="0" style="mix-blend-mode: normal"><g data-paper-data="{&quot;index&quot;:null}" stroke-width="1.5" stroke-linecap="butt"><g><path d="M345.42152,180.03387c0,0 1.83103,-4.43215 3.92094,-6.07122c2.67896,-2.10108 6.578,-4.05775 6.94809,-3.59676c2.83896,3.53615 13.76967,14.0878 17.03782,25.71854c3.26813,11.63075 0.85266,39.21289 0.85266,39.21289c0,0 -4.47878,-21.92194 -10.97517,-34.47572c-6.49642,-12.55377 -17.78436,-20.78776 -17.78436,-20.78776z" data-paper-data="{&quot;index&quot;:null}" fill="#160f3d"/><path d="M352.31595,173.0154c0,0 6.71618,5.63435 8.30274,8.0264c0.93919,1.416 6.56071,8.71103 8.82294,15.87538c2.14596,6.79605 2.16917,14.24253 2.16917,14.24253c0,0 -4.40403,-10.91132 -8.1792,-17.65341c-1.58231,-2.82581 -4.85149,-6.44053 -7.65173,-9.39484c-3.88076,-4.09431 -7.18729,-7.57096 -7.18729,-7.57096z" data-paper-data="{&quot;index&quot;:null}" fill="#2a2355"/></g><g><path d="M344.1679,176.75303c0,0 3.09824,-3.66028 5.58915,-4.58206c3.19301,-1.18156 7.5035,-1.85273 7.71499,-1.30067c1.62211,4.23473 8.80416,17.62265 8.36054,29.69567c-0.44362,12.07303 -11.17485,37.59654 -11.17485,37.59654c0,0 2.43678,-22.24169 0.08883,-36.18037c-2.34796,-13.93869 -10.57863,-25.22908 -10.57863,-25.22908z" data-paper-data="{&quot;index&quot;:null}" fill="#160f3d"/><path d="M352.87777,172.17818c0,0 4.67236,7.41766 5.45179,10.18019c0.46139,1.6353 3.58385,10.29958 3.54779,17.8125c-0.0342,7.12671 -2.28833,14.22387 -2.28833,14.22387c0,0 -0.85785,-11.7353 -2.39138,-19.30867c-0.64275,-3.17425 -2.6505,-7.61529 -4.41363,-11.28415c-2.44346,-5.08457 -4.52894,-9.40561 -4.52894,-9.40561z" data-paper-data="{&quot;index&quot;:null}" fill="#2a2355"/></g><g data-paper-data="{&quot;index&quot;:null}"><path d="M344.52773,175.57265c0,0 4.34956,-2.01928 6.99723,-1.80887c3.39391,0.26974 7.58732,1.47224 7.54722,2.06206c-0.30776,4.5243 0.58289,19.6909 -4.89348,30.45956c-5.47637,10.76865 -25.94043,29.4189 -25.94043,29.4189c0,0 11.5584,-19.15813 15.28575,-32.7929c3.72733,-13.63479 1.0037,-27.33873 1.0037,-27.33873z" data-paper-data="{&quot;index&quot;:null}" fill="#160f3d"/><path d="M354.35365,175.08179c0,0 1.12241,8.69439 0.66867,11.5287c-0.26858,1.67778 -1.07648,10.85203 -4.26658,17.65412c-3.02609,6.45245 -8.05415,11.94509 -8.05415,11.94509c0,0 4.15345,-11.00914 5.94472,-18.52575c0.75077,-3.15046 0.79531,-8.02405 0.73732,-12.09415c-0.08035,-5.64064 -0.15678,-10.438 -0.15678,-10.438z" data-paper-data="{&quot;index&quot;:null}" fill="#2a2355"/></g><g><path d="M349.90187,169.15875c0,0 -4.83496,1.88213 -6.92032,2.65167c-14.94717,5.51583 -34.45898,4.44777 -34.46906,3.75886c-0.00751,-0.51286 -2.10469,-2.41808 -2.00457,-3.10426c0.37256,-2.55309 3.93338,-3.58139 3.93338,-3.58139c0,0 24.66598,2.10181 34.41067,-1.87414c3.67521,-1.49953 5.0499,2.14924 5.0499,2.14924z" fill="#100d25"/><path d="M310.52874,179.45768c-0.07352,-0.38914 -1.42552,-1.42904 -1.76617,-2.45373c-0.41637,-1.25247 -0.72591,-2.64765 -0.72591,-2.64765c0,0 21.58197,-0.36829 26.60861,-0.99475c5.13791,-0.6403 15.04263,-4.48119 15.04263,-4.48119l0.89836,4.35707c0,0 -9.75223,3.17092 -14.64432,4.03846c-5.2846,0.93716 -25.31538,2.69959 -25.41321,2.18182z" data-paper-data="{&quot;index&quot;:null}" fill="#160f3d"/></g><g data-paper-data="{&quot;index&quot;:null}"><path d="M305.14714,174.29837c0,0 -1.09324,5.01182 -4.59732,3.54807c-9.29102,-3.88107 -31.2118,-1.55708 -31.2118,-1.55708c0,0 -3.34803,-0.95912 -3.96927,-3.70386c-0.16698,-0.73767 1.52668,-2.88784 1.47668,-3.44278c-0.06715,-0.74535 17.4434,-1.384 31.63013,3.93892c1.97928,0.74263 6.67155,1.2167 6.67155,1.2167z" fill="#100d25"/><path d="M266.56506,164.99227c0.02984,-0.53454 18.12648,-0.50026 24.18653,0.25279c0.33475,0.04158 14.65692,2.87942 14.65692,2.87942l-0.42494,6.484c0,0 -9.36808,-3.49565 -14.10546,-3.96753c-4.6348,-0.46166 -24.3305,-0.16622 -24.3305,-0.16622c0,0 0.12655,-1.52189 0.36595,-2.8941c0.19584,-1.12265 -0.37218,-2.16442 -0.34853,-2.58835z" data-paper-data="{&quot;index&quot;:null}" fill="#160f3d"/></g><g><path d="M310.6768,166.92719c0,0 -1.81991,0.51488 -2.26192,0.47815c-0.44199,-0.03674 -1.54812,-0.79302 -2.03028,-1.06981c-0.48215,-0.27679 -1.70614,-1.57282 -1.70614,-1.57282l5.21722,-5.50513z" fill="#160f3d"/><path d="M309.9461,181.33286l-11.28615,-2.34243l-0.32447,-7.54002l3.34078,-6.99278l11.28618,2.34244l0.78495,7.42205z" fill="#2a2355"/></g><path d="M341.99099,173.52817c-2.14052,-3.89074 -0.72172,-8.78009 3.16903,-10.9206c3.89075,-2.14054 8.78008,-0.72172 10.9206,3.16903c2.14052,3.89074 0.72172,8.7801 -3.16903,10.9206c-3.89075,2.14052 -8.78007,0.7217 -10.92059,-3.16905z" fill="#100d25"/><path d="M348.05998,173.81359c-2.47865,-0.3768 -4.18251,-2.69161 -3.80572,-5.17025c0.3768,-2.47865 2.6916,-4.18253 5.17025,-3.80572c2.47865,0.3768 4.18251,2.69161 3.80572,5.17025c-0.37679,2.47866 -2.69159,4.18254 -5.17024,3.80573z" fill="#2a2355"/><path d="M304.89701,175.9495c-1.43526,-0.1418 -2.18793,-1.54437 -2.04614,-2.97963c0.14184,-1.43523 1.42029,-2.48374 2.85553,-2.34194c1.43523,0.14183 2.48375,1.42025 2.34195,2.85551c-0.14182,1.43525 -1.71609,2.60786 -3.15134,2.46606z" fill="#160f3d"/><g><path d="M274.4999,176.15292l-9.57736,-0.30347l2.86512,-6.31586l-3.56386,-6.8205l9.35012,0.65656l4.63913,5.5736z" fill="#2a2355"/><path d="M265.17134,170.31958c-0.4488,-2.22092 0.98777,-4.38521 3.20868,-4.83403c2.2209,-0.44879 4.38517,0.98778 4.83402,3.20867c0.44881,2.22091 -0.98776,4.3852 -3.20866,4.83402c-2.22091,0.44881 -4.38521,-0.98774 -4.83404,-3.20867z" fill="#160f3d"/><path d="M256.07568,175.74675l3.42182,-14.36341l6.24236,0.44673c0,0 3.64839,4.22806 3.53405,7.42098c-0.11433,3.19293 -4.19072,7.45029 -4.19072,7.45029z" fill="#160f3d"/></g></g><g stroke-width="1.5" stroke-linecap="butt"><g><path d="M155.95961,154.77547c0,0 -13.00819,5.09933 -22.47818,15.59313c-9.46997,10.49382 -19.36615,30.56111 -19.36615,30.56111c0,0 4.66433,-27.29199 10.77747,-37.71238c6.11316,-10.42038 19.36407,-17.85215 23.00759,-20.55194c0.47497,-0.35196 3.7497,2.53026 5.80766,5.24249c1.60546,2.11584 2.25159,6.8676 2.25159,6.8676z" data-paper-data="{&quot;index&quot;:null}" fill="#160f3d"/><path d="M153.77905,150.59167c0,0 -4.08068,2.52357 -8.87354,5.49881c-3.45838,2.14683 -7.53797,4.81341 -9.78569,7.14508c-5.36279,5.56312 -12.39203,14.99934 -12.39203,14.99934c0,0 1.91247,-7.19675 5.71308,-13.22558c4.00655,-6.35554 11.29555,-11.98488 12.56339,-13.11613c2.14174,-1.91103 10.06805,-5.65622 10.06805,-5.65622z" data-paper-data="{&quot;index&quot;:null}" fill="#2a2355"/></g><g><path d="M158.00484,151.92033c0,0 -10.82679,8.83161 -16.63568,21.71792c-5.80888,12.88629 -9.09713,35.01813 -9.09713,35.01813c0,0 -3.90162,-27.41143 -1.26642,-39.20171c2.6352,-11.79026 12.98009,-22.91687 15.62391,-26.60122c0.34467,-0.4803 4.34366,1.26294 7.13222,3.21624c2.17538,1.52382 4.24314,5.85061 4.24314,5.85061z" data-paper-data="{&quot;index&quot;:null}" fill="#160f3d"/><path d="M154.64971,148.60337c0,0 -3.11392,3.65022 -6.7679,7.9481c-2.6366,3.10121 -5.70579,6.88722 -7.13316,9.79439c-3.40553,6.93614 -7.21385,18.06941 -7.21385,18.06941c0,0 -0.37897,-7.43688 1.39681,-14.33889c1.872,-7.27606 7.09131,-14.86408 7.95266,-16.32873c1.45507,-2.47423 7.85713,-8.46309 7.85713,-8.46309z" data-paper-data="{&quot;index&quot;:null}" fill="#2a2355"/></g><g data-paper-data="{&quot;index&quot;:null}"><path d="M157.95642,150.68725c0,0 -6.11268,12.5639 -5.96809,26.69823c0.14461,14.13432 6.46193,35.59876 6.46193,35.59876c0,0 -15.06026,-23.23357 -17.62406,-35.03955c-2.56382,-11.806 2.14714,-26.24988 2.99779,-30.70414c0.11092,-0.58068 4.47223,-0.67947 7.82346,-0.07895c2.61436,0.4685 6.30898,3.52563 6.30898,3.52563z" data-paper-data="{&quot;index&quot;:null}" fill="#160f3d"/><path d="M153.51801,149.08747c0,0 -1.29155,4.62087 -2.80094,10.0564c-1.08914,3.9221 -2.28303,8.64741 -2.35648,11.88525c-0.17521,7.72511 1.04797,19.42793 1.04797,19.42793c0,0 -3.4693,-6.58896 -4.75859,-13.59817c-1.35918,-7.38904 0.18791,-16.46792 0.35398,-18.15892c0.28052,-2.85666 3.57291,-10.98146 3.57291,-10.98146z" data-paper-data="{&quot;index&quot;:null}" fill="#2a2355"/></g><g><path d="M154.38621,143.11933c0,0 2.25579,-3.18038 5.43004,-0.79713c8.41644,6.31908 32.80815,10.54664 32.80815,10.54664c0,0 3.18322,1.89841 2.89557,4.46245c-0.07732,0.68911 -2.5894,1.99965 -2.72683,2.49382c-0.18461,0.66378 -19.32855,-3.25547 -32.38626,-12.38447c-1.82176,-1.27364 -6.02068,-4.3213 -6.02068,-4.3213z" fill="#100d25"/><path d="M189.85601,163.07444c-0.22605,0.47599 -19.15355,-6.3128 -24.02723,-8.56057c-4.51169,-2.0808 -13.13975,-7.62313 -13.13975,-7.62313l1.97482,-3.98637c0,0 8.60551,6.22906 13.41265,8.15246c4.70303,1.88177 25.48478,7.71579 25.48478,7.71579c0,0 -0.65353,1.27093 -1.37415,2.37671c-0.58958,0.90467 -2.16124,1.56737 -2.33112,1.9251z" data-paper-data="{&quot;index&quot;:null}" fill="#160f3d"/></g><g data-paper-data="{&quot;index&quot;:null}"><path d="M196.3709,159.44995c0,0 4.65894,0.73241 6.76189,0.51647c15.07318,-1.54783 31.84822,3.51431 31.59409,4.2182c-0.18921,0.52408 0.90324,3.0337 0.5545,3.70484c-1.29755,2.49718 -4.77937,2.57512 -4.77937,2.57512c0,0 -20.6131,-7.81167 -30.58493,-6.41587c-3.76085,0.52644 -3.54623,-4.59874 -3.54623,-4.59874z" fill="#100d25"/><path d="M236.05154,160.24128c-0.08472,0.41605 -0.89855,1.27953 -0.99407,2.41513c-0.11672,1.38803 -0.38059,2.89221 -0.38059,2.89221c0,0 -18.97575,-5.28479 -23.57595,-6.01462c-4.70201,-0.74598 -14.65056,0.25746 -14.65056,0.25746l1.2347,-6.37953c0,0 14.57344,0.89025 14.90779,0.93498c6.05274,0.80973 23.56548,5.36972 23.45866,5.89434z" data-paper-data="{&quot;index&quot;:null}" fill="#160f3d"/></g><g><path d="M195.59537,143.69648l3.6491,6.64905c0,0 -1.51286,0.94293 -2.04948,1.08828c-0.53661,0.14535 -1.79847,0.59612 -2.23532,0.51947c-0.43686,-0.07666 -2.06649,-1.03659 -2.06649,-1.03659z" fill="#160f3d"/><path d="M188.0716,157.19337l2.64306,-6.97977l11.51114,0.59884l1.45652,7.61172l-2.2276,7.21076l-11.51111,-0.59884z" fill="#2a2355"/></g><path d="M160.92902,149.35353c-3.05795,3.22005 -8.14728,3.35142 -11.36733,0.29348c-3.22005,-3.05793 -3.35141,-8.14729 -0.29346,-11.36733c3.05795,-3.22005 8.14729,-3.35143 11.36733,-0.29346c3.22005,3.05794 3.35141,8.14729 0.29346,11.36733z" fill="#100d25"/><path d="M154.98632,148.08926c-2.49312,-0.26465 -4.29965,-2.50025 -4.03499,-4.99338c0.26466,-2.49311 2.50025,-4.29965 4.99337,-4.035c2.49312,0.26465 4.29965,2.50025 4.035,4.99337c-0.26466,2.49311 -2.50025,4.29965 -4.99337,4.035z" fill="#2a2355"/><path d="M196.19372,161.11054c-1.42424,-0.22713 -2.64933,-1.76091 -2.42222,-3.18516c0.22713,-1.42424 1.56579,-2.39467 2.99003,-2.16758c1.42423,0.22712 2.39469,1.56578 2.16761,2.99001c-0.22713,1.42424 -1.31115,2.58984 -2.7354,2.36271z" fill="#160f3d"/><g><path d="M223.78215,161.10643l5.90187,-4.21362l9.21058,1.73812l-5.17829,5.6926l1.16825,6.83625l-9.34076,-2.13733z" fill="#2a2355"/><path d="M236.04747,165.74784c-0.99784,2.03428 -3.45588,2.87446 -5.49014,1.87665c-2.03426,-0.99782 -2.87446,-3.45586 -1.87665,-5.49012c0.99784,-2.03424 3.45586,-2.87445 5.49012,-1.87666c2.03426,0.99783 2.87447,3.45587 1.87666,5.49014z" fill="#160f3d"/><path d="M234.51294,171.94301c0,0 -2.86233,-5.15258 -2.16251,-8.26998c0.69982,-3.11737 5.30187,-6.28097 5.30187,-6.28097l6.15133,1.15229l-0.33585,14.76155z" fill="#160f3d"/></g></g><path d="M239.01406,186.55992c-0.30529,-0.44979 1.57179,-0.57935 -0.34814,-1.39274c-2.09782,-0.88874 -6.3568,-0.68018 -7.45334,-0.69161c-2.87862,-0.02995 -10.82499,2.28147 -10.72298,1.97411c0.04612,-0.13893 0.20761,-1.00421 0.60027,-1.84039c0.72793,-1.55018 8.38776,-6.87254 9.88856,-7.30477c1.31943,-0.37999 5.10823,-0.25648 6.71897,-0.14194c4.64927,0.33067 8.10828,6.06289 8.27759,6.09461c0.6894,0.12915 3.79958,-2.15691 7.32366,-3.20657c2.22628,-0.66311 4.57618,-0.29094 6.717,-0.22099c2.94043,0.09609 7.9579,5.91017 8.64733,6.51592c0.60916,0.53522 -6.01293,0.33744 -7.56446,1.23581c-3.14049,1.81846 -5.60194,4.90694 -5.60194,4.90694c0,0 -15.91727,-2.0607 -15.52869,-2.69578c0,0 -0.83586,-3.05885 -0.95384,-3.23262z" fill="#100d25" stroke-width="1.5" stroke-linecap="butt"/><g><g><path d="M239.44912,141.71254l0.41866,-6.20527l-5.919,-5.49331c0,0 5.45875,-1.64661 5.47556,-2.19103c0.04916,-1.59119 -1.03409,-5.70547 -1.03409,-5.70547l-4.76182,-12.64276c0,0 11.1992,11.2046 20.98896,11.13196c9.78974,-0.07263 19.54576,-11.43266 19.54576,-11.43266l-4.09894,14.90543l-1.63587,5.63813l3.85396,2.11614c0,0 -4.62691,3.23332 -4.66839,4.57614c-0.06485,2.0991 0.48965,6.18795 0.48965,6.18795c0,0 -10.21284,1.19741 -15.32486,1.03949c-4.29735,-0.13277 -13.32957,-1.92477 -13.32957,-1.92477z" fill="#160f3d" stroke-width="1.5" stroke-linecap="butt"/><path d="M260.4252,126.98914c0,0 1.85746,4.01727 1.46366,5.1723c-0.28766,0.84375 -3.56226,-0.042 -3.56226,-0.042c0,0 1.54216,4.16303 1.35095,4.35404c-2.23879,2.23692 -7.03609,2.80236 -7.03609,2.80236c0,0 -2.9333,-1.26584 -4.87386,-4.23243c-0.40619,-0.62095 1.22991,-3.70566 1.22991,-3.70566c0,0 -2.99912,0.26319 -3.20169,-0.72888c-0.22861,-1.11968 1.0681,-4.76492 1.0681,-4.76492l-4.2996,0.8675c0,0 -1.21218,-3.34503 -2.69811,-3.76437c-3.37567,-0.95267 -7.72972,-0.86719 -7.56476,-1.50859c0.31448,-1.22279 1.93816,-3.76141 4.18082,-4.77277c2.77427,-1.25112 7.74215,-0.64925 7.74215,-0.64925c0,0 5.01592,-4.08974 10.69492,-3.94864c5.67897,0.1411 9.20406,4.73005 9.20406,4.73005c0,0 4.72599,-1.48863 7.25051,-0.08314c2.52453,1.40548 3.36653,4.4784 4.29494,5.62811c0.27555,0.34125 -4.83949,0.91735 -8.99076,1.92237c-1.54116,0.37313 -1.21087,4.77674 -1.21087,4.77674z" fill="#2a2355" stroke-width="1.5" stroke-linecap="butt"/><path d="M259.42391,118.73356c0.84862,-0.40279 4.36368,-1.298 4.36368,-1.298c0,0 1.95715,1.99189 -0.09158,2.96434c-0.93804,0.44524 -2.63835,0.63543 -4.2004,0.52324c-1.84955,-0.13285 -3.50746,-0.62005 -3.50746,-0.62005c0,0 2.37552,-1.06623 3.43576,-1.5695z" data-paper-data="{&quot;index&quot;:null}" fill="#c11515" stroke-width="1.25" stroke-linecap="butt"/><path d="M249.56716,130.66701l0.08005,-2.59115" fill="none" stroke-width="1.5" stroke-linecap="round"/><path d="M258.05718,128.46918l-0.07604,2.46161" fill="none" stroke-width="1.5" stroke-linecap="round"/><path d="M255.47816,133.05512l0.10006,-3.23894" fill="none" stroke-width="1.5" stroke-linecap="round"/><path d="M252.01456,132.94808l0.10007,-3.23893" fill="none" stroke-width="1.5" stroke-linecap="round"/><path d="M243.37479,115.24851c0.11074,-0.05688 0.71085,-1.23681 1.48937,-1.55111c0.7785,-0.31433 2.10674,-0.38379 2.4623,-0.04437c0.78143,0.74599 1.56307,2.0786 2.02649,2.09292c2.54369,0.07859 4.96458,2.52 4.886,5.0637c-0.0786,2.5437 -2.516,4.83501 -5.05968,4.75642c-0.7223,-0.02231 -2.87496,-0.95446 -3.91884,-2.22617c-0.81188,-0.98907 -1.1586,-1.63714 -1.13989,-2.84286c0.0187,-1.20574 0.6709,-2.16276 1.40658,-2.95131c0,0 -2.62903,-2.05238 -2.1523,-2.29719z" fill="#100d25" stroke-width="1.25" stroke-linecap="butt"/><path d="M246.63559,120.6539c0.0452,-1.46249 1.32669,-2.60965 2.86233,-2.56221c1.53564,0.04743 2.74389,1.27152 2.6987,2.73401c-0.0452,1.46249 -1.32669,2.60965 -2.86233,2.5622c-1.53565,-0.04743 -2.74389,-1.27152 -2.69871,-2.734z" fill="#c11515" stroke-width="1" stroke-linecap="butt"/><path d="M259.23109,123.26784c0.68756,-0.32633 3.53536,-1.05162 3.53536,-1.05162c0,0 1.58564,1.61378 -0.07421,2.40163c-0.75997,0.36073 -2.13749,0.51481 -3.40307,0.4239c-1.49847,-0.10763 -2.84166,-0.50239 -2.84166,-0.50239c0,0 1.92459,-0.86383 2.78358,-1.27155z" data-paper-data="{&quot;index&quot;:null}" fill="#c11515" stroke-width="1.25" stroke-linecap="butt"/><path d="M245.86613,120.56805c0.06074,-1.96591 1.70364,-3.51036 3.66954,-3.44961c1.9659,0.06073 3.51036,1.70367 3.44963,3.66955c-0.06074,1.96591 -1.70365,3.51035 -3.66956,3.4496c-1.9659,-0.06073 -3.51035,-1.70365 -3.44962,-3.66955z" fill="url(#color-1)" stroke-width="0" stroke-linecap="butt"/></g><path d="M242.82902,111.02072c0.85527,-1.11318 -0.40229,-7.50134 -0.40229,-7.50134c0,0 5.45876,4.98638 6.84267,4.59793c2.11675,-0.59418 3.89965,-2.82758 6.71578,-2.66193c2.81614,0.16565 3.90054,2.3325 6.50934,3.43982c1.39794,0.59336 5.59485,-4.10259 5.59485,-4.10259c0,0 -1.15594,6.71918 -0.91023,7.36806c1.40758,3.71695 0.38467,9.32402 0.38467,9.32402c0,0 -3.88118,-5.51335 -5.48068,-6.41318c-1.5995,-0.89983 -2.59508,-1.30231 -4.0143,-0.55218c-1.41923,0.75009 -2.56608,2.93101 -2.56608,2.93101c0,0 -1.03418,-2.34737 -3.05721,-3.1885c-1.51592,-0.63028 -2.48322,-0.6671 -3.90041,-0.25346c-0.47409,0.13838 -1.74717,-0.4703 -2.69911,-0.01426c-0.95192,0.45604 -1.15673,1.72364 -1.85897,2.19789c-2.45819,1.66014 -4.17479,3.64209 -4.17479,3.64209c0,0 0.13889,-5.06759 3.01679,-8.81335z" fill="#100d25" stroke-width="1.5" stroke-linecap="butt"/><path d="M265.67552,143.88507c-0.69209,0.03843 -2.74002,-1.05935 -2.74002,-1.05935c0,0 -1.03121,-3.0669 -0.87815,-4.36078c0.14111,-1.19296 1.76356,-3.12439 1.76356,-3.12439c0,0 1.7374,-1.34781 2.70466,-1.34084c0.84431,0.00608 1.95633,0.16396 2.90504,1.38886c0.94873,1.22488 1.11846,2.50332 0.98252,3.6303c-0.18337,1.52019 -1.1583,2.68029 -1.97001,3.51404c-0.81173,0.83375 -1.97305,1.30806 -2.76759,1.35216z" data-paper-data="{&quot;index&quot;:null}" fill="#100d25" stroke-width="1.5" stroke-linecap="butt"/><path d="M237.03531,140.7455c-0.69352,-0.90267 -1.50537,-2.13812 -1.48495,-3.61156c0.01514,-1.09234 0.35331,-2.28838 1.45631,-3.32981c1.10301,-1.04143 2.22592,-1.04407 3.06341,-0.93761c0.95942,0.12195 2.50189,1.63774 2.50189,1.63774c0,0 1.35098,2.05678 1.33219,3.21269c-0.02036,1.25369 -1.45004,4.03997 -1.45004,4.03997c0,0 -2.17536,0.77412 -2.85608,0.64545c-0.78146,-0.14768 -1.86921,-0.75421 -2.56276,-1.65688z" fill="#100d25" stroke-width="1.5" stroke-linecap="butt"/></g><g fill="none" stroke-width="1.5" stroke-linecap="round"><path d="M248.20321,128.51164"/><path d="M256.76758,129.10197"/></g><path d="M233.90038,197.43772c1.0432,-1.42152 1.89271,-3.141 1.95442,-4.4396c0.08358,-1.75905 2.21816,-2.54138 2.67468,-3.12956c0.33109,-0.42656 1.24738,-0.51143 1.81197,-0.99404c0.70176,-0.59984 0.72325,-2.0153 0.62523,-2.20106c-0.17917,-0.33968 9.52644,0.82921 13.30576,3.16573c1.57035,0.97083 -0.60818,4.42773 -0.60818,4.42773c0,0 2.18158,-0.48407 1.63349,2.55928c-0.1302,0.72283 -1.24624,5.64157 -1.37767,6.50028c-0.02173,0.14204 0.10018,0.97472 -0.9936,2.48926c-1.09379,1.51454 -2.34255,2.43166 -5.2652,3.19455c-2.92265,0.7629 -5.68642,1.09119 -8.81162,-0.79819c-3.81051,-2.30367 -5.4919,-6.88033 -5.4919,-6.88033c0,0 -0.4908,-2.48588 0.5426,-3.89407z" fill="#100d25" stroke-width="1.5" stroke-linecap="butt"/><path d="M237.44793,189.05004c2.66733,-2.88196 3.60483,-3.30463 3.60483,-3.30463l11.69173,1.43696c0,0 3.67981,2.89874 3.37219,6.06062c-0.37298,3.83394 -3.75606,9.91338 -6.50499,11.10174c-4.49384,1.94269 -8.76046,0.30343 -11.89588,-3.63904c-3.13542,-3.94247 -1.39297,-10.44004 -0.26788,-11.65565z" fill="#160f3d" stroke-width="1.5" stroke-linecap="butt"/><path d="M237.29435,179.21411c0,0 -0.01345,-1.45668 0.0336,-3.81577c0.00868,-0.43537 -2.42802,-2.37496 -2.42802,-2.37496c0,0 2.58298,-0.94828 2.59684,-1.39584c0.04633,-1.49579 -0.07343,-1.1338 0.01265,-2.72769c0.02766,-0.51233 -2.95523,-2.0938 -2.95523,-2.0938c0,0 3.18509,-1.23772 3.23819,-1.88327c0.03286,-0.39939 0.39602,-2.37867 0.42527,-2.69503c0.06546,-0.70765 -7.73682,-1.19497 -8.61861,-4.86232c-0.88179,-3.66732 -1.22152,-11.85729 3.20304,-17.86081c4.42454,-6.00351 9.63488,2.59035 9.63488,2.59035l20.67732,0.80352c0,0 8.31422,-3.71305 9.7806,0.08225c1.46637,3.79531 1.86017,13.08154 -1.95946,20.04619c-3.81962,6.96465 -10.88113,1.31495 -10.95539,2.11784c-0.0956,1.03343 -0.13923,1.48358 -0.25628,2.71369c-0.05363,0.56343 1.99605,2.00654 1.99605,2.00654c0,0 -2.36527,1.88056 -2.42593,2.50961c-0.05336,0.55324 -0.16432,1.09472 -0.15725,1.62637c0.01025,0.77154 2.02803,2.39049 2.02803,2.39049c0,0 -2.38773,1.30149 -2.45036,1.9402c-0.16989,1.73205 -0.27951,2.83798 -0.27951,2.83798z" fill="#100d25" stroke-width="1.5" stroke-linecap="butt"/><path d="M251.4319,147.50993c3.75972,0.19691 21.27076,0.89895 21.27076,0.89895c0,0 1.34525,1.69919 1.49576,3.41566c0.0562,0.64099 -22.31236,-1.61091 -22.3798,-0.88193c-0.0241,0.26047 0.236,1.78443 0.20229,2.10563c-0.06839,0.65179 20.76741,0.42349 21.90525,1.48962c0.24682,0.23127 3.3793,2.07039 3.3793,2.07039c0,0 -2.9908,1.31296 -4.18235,1.40625c-2.30348,0.18032 -21.39413,-1.77061 -21.56363,-1.14236c-0.16383,0.60715 -0.23774,0.72031 0.76299,1.54287c1.06782,0.87768 17.5311,1.23488 19.14937,2.37716c0.97119,0.68552 3.21783,2.54598 3.21783,2.54598c0,0 -3.8266,0.10392 -3.85501,0.32179c-0.08233,0.6314 -18.63853,-2.80656 -18.72021,-2.09904c-0.05041,0.43648 -1.9653,1.72027 -0.06,2.11056c2.58524,0.52952 10.52798,1.5018 10.52798,1.5018l4.23642,2.48536l-4.85183,0.77862c0,0 -9.98984,-2.06726 -10.21492,-1.57095c-0.14879,0.32808 -2.06365,2.03303 -0.02602,2.88435c3.02433,1.26356 9.96175,1.98168 9.96175,1.98168l3.87641,1.83716c0,0 -3.0743,1.03266 -4.25412,1.24102c-2.49946,0.44135 -9.31088,-1.60573 -9.41543,-1.09568c-0.20957,1.02214 -1.52634,2.01804 -0.77555,2.94531c0.92318,1.1402 13.8976,1.66045 13.8976,1.66045l-5.33954,3.91161l-24.22832,-3.37671l-4.1911,-4.66316l14.75296,1.58625c0,0 1.17478,-1.58125 1.24933,-2.75528c0.03067,-0.48298 -8.2187,-0.91123 -10.96883,-1.82198c-1.03573,-0.34301 -4.20291,-1.3423 -4.20291,-1.3423l4.19343,-1.39116c0,0 6.665,1.52202 10.39656,0.77225c2.27534,-0.45718 1.49858,-1.94835 1.4764,-2.56763c-0.02509,-0.70101 -11.9955,-1.11955 -11.9955,-1.11955l-3.29358,-1.7964l3.27474,-1.70575l12.3579,1.70051c0,0 0.23463,-1.97567 0.28993,-2.60892c0.05183,-0.5936 -19.99518,-2.10076 -19.99518,-2.10076l-3.04447,-2.2888l3.26829,-0.80698c0,0 20.72436,2.48776 20.63589,2.0841c-0.0233,-0.10627 0.5625,-1.87283 -0.73692,-2.08036c-3.7699,-0.60208 -20.39424,-2.09116 -20.37399,-2.3526c0.0092,-0.11899 -3.28178,-2.11958 -3.28178,-2.11958c0,0 3.36293,-1.19423 4.22893,-1.39243c2.70202,-0.61838 19.46207,3.03467 19.46438,2.69372c0.00089,-0.13179 1.30306,-1.92914 -0.30848,-2.23853c-1.90709,-0.36613 -18.04009,-2.18624 -19.39354,-2.96459c-1.39797,-0.80395 0.2682,-3.04644 0.2682,-3.04644c0,0 17.33608,2.7411 21.91231,2.98076z" data-paper-data="{&quot;index&quot;:null}" fill="#160f3d" stroke-width="1.5" stroke-linecap="butt"/><path d="M270.03062,141.92672l1.84519,11.82139l-6.55681,8.83368c0,0 0.74722,-4.40963 -1.49813,-5.2024c-8.00039,-2.82469 -20.88703,-4.49726 -26.44722,-4.99976c-1.29835,-0.11733 -2.52093,4.97135 -2.52093,4.97135l-3.57656,-10.15838c0,0 -8.26992,-5.73661 -7.40481,-6.98721c1.80375,-2.60746 13.46527,-1.84517 13.21971,-2.06248c-0.12412,-0.10984 6.15632,-0.91611 6.15632,-0.91611l3.20279,3.66446c0,0 4.71349,-2.30243 7.27027,-1.99095c1.10588,0.13474 5.255,3.32497 5.255,3.32497l5.01581,-2.72012z" fill="#160f3d" stroke-width="1.5" stroke-linecap="butt"/><path d="M263.58258,153.72515c0,0 -2.58777,4.85348 -4.73603,6.26492c-2.25918,1.48433 -8.50316,2.4334 -8.50316,2.4334c0,0 -5.54676,-1.34736 -8.46768,-4.43656c-3.34246,-3.53508 -4.16619,-8.90556 -5.07615,-9.50959c-0.61114,-0.40566 16.41216,-5.69349 16.41216,-5.69349z" fill="#2a2355" stroke-width="1.5" stroke-linecap="butt"/><path d="M260.99362,160.61673c0,0 -2.2174,4.30686 -4.04972,5.56386c-1.9269,1.32192 -7.24223,2.18276 -7.24223,2.18276c0,0 -4.71471,-1.17523 -7.18973,-3.90164c-2.8322,-3.11992 -3.51554,-7.87356 -4.28776,-8.40555c-0.51863,-0.35729 13.98168,-5.09576 13.98168,-5.09576z" fill="#2a2355" stroke-width="1.5" stroke-linecap="butt"/><path d="M258.54332,167.25407c0,0 -1.90631,3.83061 -3.47421,4.95243c-1.64884,1.17972 -6.18819,1.96096 -6.18819,1.96096c0,0 -4.02024,-1.02828 -6.12391,-3.44081c-2.40731,-2.76075 -2.97533,-6.97871 -3.63272,-7.44852c-0.44151,-0.31554 11.94962,-4.56859 11.94962,-4.56859z" fill="#2a2355" stroke-width="1.5" stroke-linecap="butt"/><path d="M257.35341,175.86034c0,0 -1.77527,3.56725 -3.23538,4.61195c-1.53547,1.09862 -5.76278,1.82616 -5.76278,1.82616c0,0 -3.74385,-0.95758 -5.70292,-3.20424c-2.2418,-2.57094 -2.77079,-6.49894 -3.38296,-6.93645c-0.41116,-0.29383 11.1281,-4.25452 11.1281,-4.25452z" fill="#2a2355" stroke-width="1.5" stroke-linecap="butt"/><path d="M255.51666,183.75787c0,0 -1.45782,3.22955 -2.72027,4.20691c-1.32761,1.02781 -5.05969,1.81618 -5.05969,1.81618c0,0 -3.35904,-0.72529 -5.17532,-2.65601c-2.07843,-2.20938 -2.6803,-5.68218 -3.23901,-6.05042c-0.37524,-0.24732 9.74601,-4.15416 9.74601,-4.15416z" fill="#2a2355" stroke-width="1.5" stroke-linecap="butt"/><path d="M253.07307,191.90516c0,0 -1.61201,2.61745 -2.8065,3.31862c-1.25615,0.73738 -4.55474,1.00247 -4.55474,1.00247c0,0 -2.80998,-0.99603 -4.15903,-2.85845c-1.54372,-2.13121 -1.6771,-5.186 -2.11705,-5.56475c-0.29548,-0.25435 8.84597,-2.49527 8.84597,-2.49527z" fill="#2a2355" stroke-width="1.5" stroke-linecap="butt"/><path d="M241.78356,150.53234l10.82871,-3.78216l6.23286,6.49938" fill="none" stroke-width="1" stroke-linecap="round"/><path d="M242.3901,158.75136l9.1376,-3.67283l5.29365,5.2735" fill="none" stroke-width="1" stroke-linecap="round"/><path d="M244.06029,165.32226l6.37008,-2.37218l4.34628,4.73026" fill="none" stroke-width="1" stroke-linecap="round"/><g stroke-width="1.5" stroke-linecap="butt"><g><path d="M177.29476,212.25244l2.79443,-4.45456l-3.40868,-1.98089l2.51202,-2.57276l-5.3859,-4.6323c0,0 9.40176,0.24486 12.29685,-0.26959c0.60383,-0.1073 1.46524,-6.29703 2.60434,-7.35156c1.5993,-1.48058 3.55332,2.20009 4.42325,3.59505c0.53326,0.85512 -3.40214,8.2496 -3.40214,8.2496l1.92511,3.88906l-4.89562,1.29215l2.8332,3.96619l-4.85446,1.92683c0,0 5.71298,3.15625 4.91495,2.97853c-0.63621,-0.14167 -5.16318,2.06279 -5.16318,2.06279z" fill="#160f3d"/><path d="M183.92104,206.87258l-1.83172,-7.51552l-5.29754,-0.9024c0,0 2.43456,-2.06926 2.4572,-3.29918c0.0218,-1.18382 -2.35437,-4.11918 -2.35437,-4.11918l5.24917,0.17111l-1.67345,-4.15175c0,0 4.648,1.0872 5.205,0.69838c2.7675,-1.93207 8.67486,-1.75054 8.67486,-1.75054l2.2727,2.64738c0,0 -5.4883,1.74476 -7.62011,4.80305c-2.1017,3.01501 -5.08172,13.41869 -5.08172,13.41869z" fill="#100d25"/></g><g><path d="M191.66849,218.43653c0,0 6.87043,-4.32843 9.49041,-8.2778c5.12844,-7.73062 4.28525,-16.33448 5.90615,-16.53033c1.38335,-0.16716 5.50555,13.86926 5.50555,13.86926c0,0 -3.02182,-1.647 -3.27432,-1.33802c-0.45384,0.5553 -0.25505,3.60761 -1.12775,5.8585c-0.9678,2.49612 -3.19695,4.96169 -3.19695,4.96169c0,0 -3.49083,2.89906 -5.40177,3.08304c-2.15358,0.20735 -7.90132,-1.62632 -7.90132,-1.62632z" fill="#160f3d"/><path d="M195.51126,195.35519c-0.05667,-0.32318 7.02183,-6.10788 7.02183,-6.10788l7.28559,3.50753c0,0 2.51704,4.2656 1.16505,7.92226c-0.80554,2.17874 -3.54279,2.43171 -4.67094,3.85253c-1.45071,1.82708 -1.7946,8.11062 -4.48988,10.35456c-3.1169,2.59495 -9.2741,-0.50042 -9.2741,-0.50042l3.8299,-1.76824l2.26644,-1.73613c0,0 -0.27177,-1.49229 -0.88006,-2.06482c-0.56069,-0.52771 -2.63848,-1.24693 -2.63848,-1.24693c0,0 2.13012,-0.53618 3.08375,-1.06c0.86252,-0.47378 2.39215,-1.94786 2.39215,-1.94786c0,0 -4.70296,-6.99052 -5.09125,-9.2046z" fill="#100d25"/></g><g><path d="M192.55905,190.0073l3.66745,0.75723l-1.82296,7.35692c0,0 -1.20799,0.28813 -1.81543,0.1627c-0.61496,-0.12698 -1.23501,-0.96398 -1.23501,-0.96398z" fill="#100d25"/><g><g><path d="M187.76016,188.36298l-4.92398,-13.34434l3.49608,-1.65096l4.23691,12.79423z" fill="#160f3d"/><path d="M178.71649,175.82674c0.04671,-1.24139 0.19076,-5.06941 0.26375,-7.00881c0.02627,-0.69807 2.39736,-1.06289 2.39736,-1.06289l12.96281,0.48782l-0.36924,9.81235c0,0 -10.82562,-0.40737 -13.30805,-0.50081c-0.96447,-0.03628 -1.97517,-0.96807 -1.94659,-1.72767z" fill="#160f3d"/><path d="M190.84571,169.98215c0,0 -8.95667,-8.81553 -7.96265,-15.56639c0.99401,-6.75088 17.53162,-17.09147 17.53162,-17.09147l0.88739,4.06736c0,0 -13.61145,7.99153 -14.65092,13.85257c-1.03949,5.861 6.42984,12.21239 6.42984,12.21239z" fill="#160f3d"/><path d="M181.89631,172.3691c0.04974,-1.32176 1.16154,-2.35292 2.4833,-2.30319c1.32176,0.04974 2.35292,1.16154 2.30318,2.48331c-0.04974,1.32176 -1.16155,2.35293 -2.48331,2.30319c-1.32176,-0.04974 -2.35291,-1.16154 -2.30318,-2.48331z" fill="#2a2355"/></g><path d="M217.11457,169.32244c0,0 -0.87449,-1.84853 -0.82609,-2.2527c0.04837,-0.40416 0.74106,-1.5081 1.05075,-1.91414c0.30969,-0.40604 2.24,-1.07286 2.24,-1.07286l5.87443,5.64364z" fill="#2a2355"/><path d="M191.75063,193.77453l0.15762,-4.18819l16.13598,-9.37595c0,0 3.29229,1.26947 3.86361,1.29096c1.27189,0.04788 -1.10091,12.9903 -1.10091,12.9903z" fill="#160f3d"/><path d="M186.67028,189.93863c0.11099,-2.94916 2.59175,-5.24998 5.54089,-5.139c2.94916,0.11099 5.24998,2.59174 5.139,5.54091c-0.11099,2.94916 -2.59175,5.24996 -5.5409,5.13899c-2.94916,-0.11099 -5.24997,-2.59174 -5.13899,-5.54089z" fill="#160f3d"/><path d="M191.1789,179.45497c1.41929,-3.41913 9.38515,-24.36411 9.38515,-24.36411c0,0 14.98627,6.11223 16.55573,6.01939c0.59897,-0.03546 -9.90546,25.90712 -9.90546,25.90712c0,0 -5.48371,1.51868 -8.63645,0.1526c-4.66799,-2.02261 -7.59373,-7.24574 -7.39897,-7.71499z" fill="#160f3d"/><path d="M198.87021,176.9039l4.28453,-20.02759l10.43603,3.07619l-10.51264,17.97642l-3.18664,2.08319z" fill="#2a2355"/><path d="M191.99802,176.41335l-2.8816,-1.57886c0,0 -0.70948,-0.51044 -0.34639,-1.46279c1.34879,-3.53779 4.5991,-12.16799 5.22441,-13.80813c0.20457,-0.5366 1.19159,-0.74909 1.19159,-0.74909l3.0067,1.35056z" fill="#100d25"/><path d="M187.90305,182.92377l2.69334,-5.34418l7.98136,7.4125l10.57855,-0.72409l-1.26519,6.4012l-11.32051,-0.07033z" fill="#100d25"/><path d="M200.29058,196.54833c0.05148,-1.36821 1.20239,-2.43561 2.57058,-2.38414c1.36821,0.05148 2.43563,1.2024 2.38414,2.57059c-0.05148,1.36821 -1.20239,2.43562 -2.57057,2.38414c-1.36821,-0.05148 -2.43564,-1.20238 -2.38415,-2.57059z" fill="#2a2355"/><path d="M212.44873,180.53089c0,0 -0.8745,-1.84854 -0.82609,-2.2527c0.04837,-0.40416 0.74105,-1.50809 1.05075,-1.91413c0.30969,-0.40604 2.24002,-1.07287 2.24002,-1.07287l5.87445,5.64365z" fill="#2a2355"/><path d="M214.76798,174.62654c0,0 -0.87448,-1.84852 -0.82609,-2.25267c0.04837,-0.40416 0.74105,-1.5081 1.05075,-1.91414c0.30969,-0.40604 2.24002,-1.07287 2.24002,-1.07287l5.87443,5.64365z" fill="#2a2355"/><path d="M212.47364,183.37643c0,0 -1.77867,-0.12553 -2.70336,-0.06878c-0.83763,0.05142 -2.62596,0.16347 -2.62596,0.16347c0,0 6.91243,-18.03387 7.77978,-20.30885c0.28377,-0.74429 5.3152,-0.25712 5.3152,-0.25712z" fill="#100d25"/><path d="M189.44713,189.97303c0.05221,-1.38786 1.21963,-2.47057 2.60749,-2.41835c1.38786,0.05221 2.47059,1.21961 2.41837,2.60747c-0.05222,1.38788 -1.21963,2.47056 -2.60749,2.41835c-1.38788,-0.05222 -2.47058,-1.2196 -2.41836,-2.60748z" fill="#2a2355"/></g></g><g><g><g><path d="M209.53245,160.26453l-5.94085,-8.90146l5.01056,-10.98648l6.5338,9.12074l9.64207,0.83011l-5.38159,11.45569z" data-paper-data="{&quot;index&quot;:null}" fill="#160f3d"/><path d="M203.50845,149.55939l6.29019,7.91367l10.95041,1.26152l-1.71163,6.83151c0,0 -11.22691,-1.58914 -12.79509,-1.89891c-0.47071,-0.09299 -6.85264,-8.90805 -6.85264,-8.90805z" fill="#2a2355"/></g><path d="M207.52126,158.97065l8.41549,-12.85855c0,0 1.97767,0.63141 2.30214,0.84375c0.56162,0.36756 -9.16447,14.40164 -9.16447,14.40164z" fill="#100d25"/></g><path d="M204.47357,161.21144c0.3559,-1.60049 1.9419,-2.60941 3.54238,-2.25351c1.60049,0.3559 2.60941,1.94189 2.25352,3.54238c-0.3559,1.60049 -1.9419,2.60942 -3.54238,2.25353c-1.60049,-0.3559 -2.60941,-1.94188 -2.25351,-3.54236z" fill="#160f3d"/></g><g><path d="M199.53973,133.89577c0,0 0.54922,-1.13986 2.55215,-2.38682c5.36277,-3.33867 15.76665,-9.61006 18.33211,-11.15993c1.1427,-0.69035 3.97928,-0.00577 3.97928,-0.00577l4.64526,8.98408l-23.88067,14.07713z" fill="#2a2355"/><path d="M221.29276,116.23037c0.58631,-0.36 2.05135,-0.9459 2.05135,-0.9459c0,0 1.24189,-0.1339 1.68542,0.55104c1.38919,2.14535 7.63676,13.7123 7.63676,13.7123l-3.17544,1.94972c0,0 -7.14516,-11.6372 -8.3992,-13.67955c-0.3619,-0.58939 -0.18384,-1.35129 0.20107,-1.58759z" fill="#100d25"/><path d="M196.26627,132.77233c0.40474,-0.24852 1.10548,-0.74675 1.37433,-0.91179c0.44474,-0.27307 1.48184,-0.23337 1.81324,0.30638c1.2119,1.97381 8.46562,13.78777 8.46562,13.78777l-3.17545,1.94972c0,0 -6.6765,-10.87385 -8.08568,-13.16894c-0.49879,-0.81235 -0.8579,-1.6771 -0.39204,-1.9631z" fill="#100d25"/><path d="M205.65635,132.62033c3.43502,-2.1757 11.5327,-6.95843 13.41993,-8.15377c0.78227,-0.49546 2.09871,-0.12062 2.45066,0.43504c0.50162,0.79195 1.82487,2.88115 1.82487,2.88115c0,0 0.105,1.26989 -1.4471,2.43296c-3.65228,2.7367 -11.188,7.01136 -12.83879,8.05698c-0.72208,0.45739 -2.15298,-0.07774 -2.15298,-0.07774c0,0 -1.50754,-2.46933 -2.01031,-3.26313c-0.33262,-0.52517 -0.22051,-1.69436 0.75376,-2.31145z" fill="#0028ff"/><path d="M248.15893,139.41075c0,0 -5.53199,0.39866 -7.5119,1.51235c-1.0098,0.56804 -1.15399,3.45346 -2.76837,4.9755c-2.05303,1.93562 -4.45135,0.28925 -7.17465,1.84519c-1.20797,0.6902 -2.96096,4.61921 -3.95484,5.3167c-0.96134,0.67467 -4.61339,4.1547 -4.61339,4.1547l0.80905,-5.65361c0,0 -9.18834,0.42894 -10.30845,-0.35468c-1.25539,-0.87825 -1.76418,-6.17308 -1.76418,-6.17308l-6.88437,-2.01274c0,0 5.87067,-3.15315 5.77285,-3.54645c-0.43648,-1.75506 -2.74408,-5.36053 -2.74408,-5.36053l7.71418,-1.34776l-0.14633,-7.06016c0,0 5.85506,3.83488 6.60359,3.66847c1.01711,-0.22613 4.61403,-5.71409 4.61403,-5.71409c0,0 1.97101,5.60084 3.7049,6.14492c1.3358,0.41915 5.33287,-3.89263 5.33287,-3.89263c0,0 0.93618,7.35046 1.93997,8.44461c1.2843,1.39987 7.86994,-2.71772 7.86994,-2.71772l-0.72803,4.73635z" fill="#100d25"/><path d="M224.30868,139.59626l4.83583,-11.76695c0,0 3.43022,-0.53093 2.92707,0.7724c-1.03975,2.69321 -4.87503,12.10948 -4.87503,12.10948z" fill="#100d25"/><path d="M222.22332,139.60805c0.65063,-1.61682 2.48879,-2.40004 4.10558,-1.74939c1.61682,0.65063 2.40005,2.48879 1.74939,4.10558c-0.65063,1.61682 -2.48876,2.40003 -4.10558,1.74939c-1.61682,-0.65063 -2.40004,-2.48876 -1.7494,-4.10558z" fill="#160f3d"/><path d="M214.46554,144.83628c0.6121,-1.52104 2.34136,-2.25788 3.8624,-1.64579c1.52104,0.6121 2.25789,2.34139 1.64578,3.86242c-0.6121,1.52104 -2.34136,2.25785 -3.8624,1.64578c-1.52104,-0.6121 -2.25789,-2.34138 -1.64578,-3.86241z" fill="#160f3d"/></g></g><g><g><path d="M228.37405,185.51788c2.89417,0.1213 6.01699,2.09363 7.29129,1.95999c1.71854,-0.18019 2.93716,3.00043 2.75715,6.30221c-0.13529,2.48147 -1.61186,5.07869 -1.20203,6.1065c0.28687,0.71953 -8.62745,18.23531 -8.62745,18.23531c0,0 -1.12716,8.22335 -3.66421,10.5733c-2.26577,2.09867 -9.57929,2.80881 -9.57929,2.80881c0,0 -7.01933,-7.44786 -5.8086,-13.66674c2.00133,-10.27972 9.78872,-29.02501 9.78872,-29.02501c0,0 5.43006,-3.44588 9.04444,-3.29439z" fill="#100d25" stroke-width="1.5" stroke-linecap="butt"/><path d="M216.38386,209.23671c0,0 1.75633,-6.8213 3.10412,-9.88162c0.5277,-1.1982 2.55644,-5.73006 5.7362,-7.11475c3.95453,-1.72207 10.31381,-1.05466 12.38863,0.65901c2.30771,1.90603 -0.24307,7.88282 -0.27022,8.08509c-0.28006,2.08719 -7.60085,17.10946 -9.5017,22.78784c-2.89837,8.65823 -9.46461,1.53516 -9.46461,1.53516c0,0 -1.12354,-0.7494 -1.79895,-1.02244c-0.90089,-0.36419 -3.12754,-0.96903 -3.12754,-0.96903z" fill="#160f3d" stroke-width="1.5" stroke-linecap="butt"/><path d="M227.59894,225.83077c0,0 -1.3111,5.92788 -1.93168,5.83727c-6.65045,-0.97104 -13.626,0.39676 -14.50529,0.37275c-0.59077,-0.01613 -3.22514,7.54817 -4.78549,7.55989c-1.07467,0.00809 -2.17104,-2.09492 -2.54577,-4.08992c-0.44942,-2.39259 0.02024,-4.84598 1.21346,-6.21945c7.46327,-8.59052 10.5087,-5.63019 13.04952,-5.13161c4.68537,0.91936 9.50523,1.67106 9.50523,1.67106z" data-paper-data="{&quot;index&quot;:null}" fill="#160f3d" stroke-width="1.5" stroke-linecap="butt"/><path d="M201.38643,247.72609c0,0 0.26403,-3.97778 3.36424,-9.49141c1.3152,-2.33908 2.50139,-5.41307 4.42406,-7.32001c2.37163,-2.35222 5.16407,-3.79902 5.91566,-3.95019c3.84341,-0.77306 5.57278,2.42513 6.05328,2.79907c1.35802,1.0569 0.34698,4.3217 0.34698,4.3217c0,0 -1.9848,2.4313 -4.00772,3.10554c-1.46144,0.48709 -2.4985,1.78873 -2.73001,2.26395c-0.6339,1.30127 2.29395,5.80195 3.97566,9.20705c1.5025,3.04224 1.74896,5.09185 1.74896,5.09185c0,0 -8.45296,-1.28973 -11.81407,-1.43106c-2.44464,-0.10279 -7.27703,-4.59652 -7.27703,-4.59652z" fill="#100d25" stroke-width="1.5" stroke-linecap="butt"/><path d="M199.94484,247.95536c-0.36684,-1.72338 0.8026,-7.14702 2.19892,-8.38673c0.24487,-0.21741 2.70244,-1.86423 5.00017,-2.15426c1.22932,-0.15517 2.21599,-0.53411 3.33503,-0.61156c1.9724,-0.13652 3.79819,0.39258 4.01714,0.64471c0.19544,0.22504 2.3843,1.77352 2.09478,2.45487c-0.28953,0.68136 -2.10331,1.02871 -2.94571,1.03658c-0.24024,0.00226 -2.31649,-0.04293 -4.31837,0.26744c-1.61243,0.24999 -3.17299,0.82344 -3.71496,1.12641c-0.94551,0.52854 -1.89129,2.07036 -1.73477,2.69871c0.35763,1.43572 2.88465,3.13257 3.73849,6.32263c0.88846,3.31943 5.06601,5.13015 5.34105,5.11937c1.47764,-0.05788 3.05883,2.2617 6.72277,2.11819c1.41432,-0.0554 1.50767,0.91989 1.52265,1.30233c0.01341,0.34231 0.12971,3.3117 0.12971,3.3117c0,0 -2.1806,1.94323 -5.09124,2.05724c-1.20982,0.04739 -5.21006,0.00749 -8.35201,-1.66674c-1.19073,-0.63449 -4.10641,-1.81279 -5.16309,-3.89336c-1.05668,-2.08057 -2.27375,-9.36651 -2.78057,-11.74754z" fill="#160f3d" stroke-width="1.5" stroke-linecap="butt"/><path d="M206.94031,247.8355c1.71114,-1.70675 3.45845,-3.27866 6.1148,-3.65424c2.55972,-0.3619 3.67244,0.58113 5.70462,1.87478c2.03217,1.29366 2.81017,4.49526 2.81017,4.49526c0,0 -6.98348,2.03569 -8.13131,2.19797c-3.10951,0.43963 -7.44801,0.0047 -7.44801,0.0047c0,0 -0.76142,-3.21175 0.94971,-4.91849z" fill="#2a2355" stroke-width="1.5" stroke-linecap="butt"/><path d="M214.43084,229.65816c-0.13105,-3.34602 2.4752,-6.16473 5.82122,-6.29579c3.34602,-0.13105 6.16476,2.47516 6.29582,5.82123c0.13105,3.34602 -2.47516,6.16475 -5.82122,6.29581c-3.34602,0.13105 -6.16475,-2.4752 -6.29581,-5.82122z" fill="#160f3d" stroke-width="1.5" stroke-linecap="butt"/><path d="M209.41347,254.01384c1.47569,-1.85378 2.94604,-3.20704 5.39422,-3.67215c2.35912,-0.44817 4.20456,0.15037 6.1869,1.47197c1.98235,1.3216 1.87182,5.39709 1.87182,5.39709c0,0 -4.49571,1.36644 -7.06024,1.85367c-2.86585,0.54445 -6.9369,0.1918 -6.9369,0.1918c0,0 -0.93148,-3.38858 0.54419,-5.24237z" fill="#2a2355" stroke-width="1.5" stroke-linecap="butt"/><g><path d="M223.6891,221.92017c0,0 -3.49685,-3.93352 -3.34731,-5.66581c0.34565,-4.00412 5.3855,-17.94603 5.3855,-17.94603l7.60146,-3.3104c0,0 4.19517,4.40679 3.91684,6.08027c-0.70131,4.2167 -6.14605,18.24884 -6.14605,18.24884z" fill="#2a2355" stroke-width="1.5" stroke-linecap="butt"/><path d="M233.7554,202.80515l-5.45148,-2.15839" fill="none" stroke-width="1.25" stroke-linecap="round"/><path d="M226.68208,205.33968l5.72132,1.79335" fill="none" stroke-width="1.25" stroke-linecap="round"/><path d="M223.42246,215.43394l5.0306,1.49618" fill="none" stroke-width="1.25" stroke-linecap="round"/><path d="M225.06111,210.3981l4.71333,1.85086" fill="none" stroke-width="1.25" stroke-linecap="round"/></g><path d="M222.11554,234.76074c0,0 -0.31173,-2.33639 -0.1168,-2.76317c0.19489,-0.42678 1.34266,-1.3959 1.82515,-1.73308c0.48248,-0.33718 2.8358,-0.3922 2.8358,-0.3922l4.47019,8.25722z" fill="#2a2355" stroke-width="1.5" stroke-linecap="butt"/></g><path d="M214.15076,265.32345c0,0 -0.51876,-3.88823 -0.1944,-4.59847c0.32435,-0.71025 2.53918,-2.99729 3.34214,-3.55841c0.80295,-0.56113 5.39358,-0.34799 5.39358,-0.34799l4.80044,9.14926c0,0 -6.54864,0.17617 -9.0062,0.11832c-1.6988,-0.03999 -4.33557,-0.76271 -4.33557,-0.76271z" fill="#100d25" stroke-width="1.5" stroke-linecap="butt"/></g><path d="M219.34793,188.90724c0,0 0.01078,-3.43779 3.16361,-4.38265c0.76073,-0.22799 6.66227,-1.20475 12.3634,-0.10043c0.3332,0.06456 4.57927,0.66287 5.36707,2.0519c0.59983,1.05761 -0.40112,3.24927 -1.09362,3.60129c-0.98293,0.49965 -4.21874,-1.46212 -7.33484,-2.44742c-0.9564,-0.30241 -2.4075,-0.01198 -3.27276,-0.03101c-3.68439,-0.08107 -9.19283,1.30831 -9.19283,1.30831z" fill="#160f3d" stroke-width="1.5" stroke-linecap="butt"/><path d="M251.90981,197.79433c0,0 -1.43257,2.44296 -2.51878,3.1126c-1.14229,0.7042 -4.17517,1.01413 -4.17517,1.01413c0,0 -2.60802,-0.86137 -3.8877,-2.54987c-1.46435,-1.93219 -1.64808,-4.74319 -2.06085,-5.08325c-0.27722,-0.22839 8.0979,-2.47464 8.0979,-2.47464z" fill="#2a2355" stroke-width="1.5" stroke-linecap="butt"/><g stroke-width="1.5" stroke-linecap="butt"><g><path d="M289.97899,181.13475c5.41605,-0.59032 10.28516,3.3217 10.87548,8.73774c0.59031,5.41605 -3.3217,10.28516 -8.73773,10.87548c-5.41605,0.59032 -10.28516,-3.3217 -10.87549,-8.73774c-0.59032,-5.41605 3.3217,-10.28516 8.73774,-10.87549z" fill="#160f3d"/><g><path d="M296.37183,250.1331l5.25515,-0.73445l0.86798,6.21064c0,0 -1.52472,1.02487 -2.43668,1.15234c-0.8325,0.11634 -2.81847,-0.4179 -2.81847,-0.4179z" fill="#160f3d"/><path d="M292.34561,234.23561l9.01697,-1.31043l2.50522,17.23833c0,0 -2.77152,2.43384 -4.35203,2.66352c-1.40431,0.20407 -4.66494,-1.3531 -4.66494,-1.3531z" fill="#100d25"/><path d="M305.0851,212.88615l0.57858,19.8202c0,0 -5.26801,2.80174 -8.32338,3.17911c-3.1492,0.38897 -10.29881,-0.879 -10.29881,-0.879l-3.26044,-18.75348z" fill="#2a2355"/><path d="M286.55405,215.28039l-8.6915,-5.7775l9.13001,1.43163l3.95454,-14.42738l8.57782,13.2273l8.5023,-4.58434l-6.08474,8.02932l1.92526,23.95737c0,0 -3.44113,2.66654 -6.42361,3.09998c-2.98247,0.43343 -7.54838,-1.06946 -7.54838,-1.06946z" fill="#160f3d"/><path d="M290.30021,216.32114l8.61917,-1.2526l1.12598,18.92821c0,0 -1.97805,1.50611 -3.00902,1.65593c-1.16311,0.16903 -3.6211,-0.6924 -3.6211,-0.6924z" fill="#0028ff"/><path d="M287.45466,203.3806l9.9798,-1.18302c0,0 0.68074,5.74258 0.96717,8.15907c0.10918,0.92102 6.94102,2.228 6.94102,2.228l-6.49297,3.21366c0,0 -1.09016,5.22316 -3.63001,5.74404c-2.53985,0.52087 -6.11611,-3.74529 -6.11611,-3.74529l-6.88544,-2.23762c0,0 6.32074,-3.03276 6.21372,-3.93558c-0.28727,-2.42342 -0.97717,-8.24328 -0.97717,-8.24328z" fill="#100d25"/><path d="M290.27728,199.91872c0.3181,1.95558 0.73452,5.7668 0.73452,5.7668c0,0 -0.80248,4.66088 -2.18167,5.32724c-0.57339,0.27704 -1.74683,0.94948 -3.60997,-0.41408c-1.86312,-1.36359 -3.34514,-4.67619 -3.34514,-4.67619c0,0 3.12422,1.95862 4.03496,1.2988c0.91076,-0.65981 1.36759,-1.17657 1.07641,-2.42011c-0.34813,-1.48673 -1.81384,-3.3431 -1.98916,-4.4209c-0.32919,-2.02379 -1.11365,-5.98896 -1.11365,-5.98896c0,0 1.73783,-1.06006 2.65588,-1.18747c0.78617,-0.1091 2.51839,0.46941 2.51839,0.46941c0,0 0.88684,4.20091 1.2194,6.24542z" data-paper-data="{&quot;index&quot;:null}" fill="#2a2355"/><path d="M295.44504,237.98265l1.29698,-3.84437l2.77804,3.25214l1.48586,10.22411c0,0 -1.21173,1.38073 -1.92599,1.48453c-0.63464,0.09222 -2.14904,-0.89231 -2.14904,-0.89231z" fill="#2a2355"/><path d="M293.127,193.26695c0,0 1.50725,-1.03123 2.29321,-1.14186c0.91781,-0.12916 2.87968,0.41382 2.87968,0.41382c0,0 0.33271,4.02831 0.57095,6.06481c0.12688,1.08458 -0.77373,3.27165 -0.7009,4.79685c0.06091,1.27573 0.64193,1.64741 1.69868,2.03226c1.05672,0.38485 3.52428,-2.35527 3.52428,-2.35527c0,0 -0.51706,3.592 -1.93494,5.41411c-1.41789,1.82213 -2.73073,1.49713 -3.35811,1.38792c-1.50906,-0.2627 -3.55861,-4.52498 -3.55861,-4.52498c0,0 -0.64441,-3.77934 -0.87465,-5.74722c-0.2407,-2.05737 -0.53959,-6.34043 -0.53959,-6.34043z" fill="#2a2355"/><path d="M284.525,191.39918c0,0 2.99507,-3.56697 6.07995,-3.60333c3.08487,-0.03636 7.35096,2.16693 7.35096,2.16693l5.41587,2.39224l-4.665,2.82408l-4.68018,4.10682l0.47163,16.46019l-4.15765,-15.92904l-5.3448,-3.38397l-5.71844,-2.85963z" fill="#160f3d"/><path d="M289.07706,184.25562c0,0 2.52464,-0.94248 4.91511,0.25489c2.39047,1.19738 3.52086,3.53038 3.52086,3.53038l1.14434,7.90135l-4.59032,3.6051l-3.03753,-8.23012l-0.75671,7.81927l-5.34399,-2.02469c0,0 -0.94612,-7.75384 -0.80229,-8.55357c0.41158,-2.28839 4.95054,-4.30267 4.95054,-4.30267z" fill="#100d25"/><path d="M286.06009,228.5143c0,0 6.80152,-0.44683 10.06222,-0.92071c3.13076,-0.45498 9.128,-1.86818 9.128,-1.86818l1.21985,1.35007l-0.82131,1.39215c0,0 -6.22325,1.44603 -9.43271,1.91245c-3.18713,0.46318 -9.75754,0.87643 -9.75754,0.87643l-1.48815,-1.18379z" fill="#100d25"/></g></g><g><path d="M285.09134,180.43993c1.51457,-0.21565 8.33485,-1.30244 8.33485,-1.30244c0,0 2.5891,6.71085 2.27763,11.15851c-0.26616,3.80068 -3.59628,7.67149 -3.59628,7.67149c0,0 -4.21148,-2.69718 -5.94948,-6.04766c-1.84854,-3.56355 -1.42509,-11.42886 -1.06671,-11.47988z" fill="#2a2355"/><g><path d="M277.8868,173.27611l-0.89524,-13.40206l17.75339,-3.3192l3.5461,14.6977c0,0 -1.11366,2.74425 -3.17073,3.70651c-1.87297,0.87615 -4.61864,-0.03033 -6.24871,0.13134c-1.74589,0.17315 -4.23043,2.68388 -6.60012,2.16991c-2.21877,-0.48124 -4.38469,-3.98419 -4.38469,-3.98419z" fill="#100d25"/><path d="M275.00466,172.2566l8.31645,4.15536l-0.09789,-4.60036l4.11302,-4.74921l4.93425,1.35363l3.03765,4.66247l4.90555,-7.22459c0,0 0.54383,6.57182 -0.56563,9.74651c-0.88735,2.53918 -5.72582,3.41775 -8.63532,4.20375c-2.90951,0.78601 -5.47551,1.83635 -8.97924,0.42887c-3.72215,-1.49526 -7.02884,-7.97641 -7.02884,-7.97641z" fill="#160f3d"/><path d="M280.7178,171.36402l-1.19104,-10.33867l6.87466,-0.35704l5.71217,-2.43671l2.65903,9.29836l-6.09778,6.55644z" fill="#2a2355"/></g></g><g><path d="M265.38255,128.64237c0,0 5.08096,8.82032 6.33416,8.07036c0.9795,-0.58618 2.55388,-9.12782 2.55388,-9.12782c0,0 2.67014,7.51852 3.72115,7.56212c1.36426,0.0566 5.0866,-6.62519 5.0866,-6.62519c0,0 0.58045,7.17645 1.24794,7.6428c0.49126,0.34321 8.6286,-2.57986 8.6286,-2.57986l-3.97615,8.22138l6.83721,2.82871c0,0 -5.71578,0.17538 -5.64154,2.5982c0.07424,2.42282 6.39898,1.22298 6.39898,1.22298l-4.98507,3.59554c0,0 -3.55754,2.27925 -6.0501,3.27915c-2.49256,0.9999 -4.28648,1.65911 -7.15658,1.6341c-2.8701,-0.025 -4.92022,-1.68027 -4.92022,-1.68027c0,0 0.39279,-4.01459 -1.13843,-5.86901c-1.53122,-1.85443 -6.42716,-2.26461 -6.42716,-2.26461c0,0 2.43574,-3.48575 0.97701,-5.55294c-1.45872,-2.06719 -6.67167,-2.51703 -6.67167,-2.51703c0,0 4.47936,-0.98064 5.64462,-3.32825c1.16528,-2.34762 -0.46323,-7.11038 -0.46323,-7.11038z" data-paper-data="{&quot;index&quot;:null}" fill="#100d25"/><path d="M268.89024,148.75021l-0.7025,-2.74409l11.58307,-3.25419l0.72481,2.44247z" fill="#100d25"/><path d="M265.83665,146.92923c-0.17819,-2.05986 1.34719,-3.87415 3.40707,-4.05236c2.05986,-0.17819 3.87415,1.34719 4.05236,3.40706c0.17819,2.05986 -1.34719,3.87415 -3.40707,4.05236c-2.05986,0.17819 -3.87415,-1.34719 -4.05236,-3.40707z" fill="#160f3d"/></g><path d="M277.31816,160.53013c-3.5073,-0.84181 -7.76076,-4.89753 -7.76076,-4.89753l7.52871,0.59565c0,0 4.4219,-0.26186 6.36207,-0.67765c1.8567,-0.3979 5.25186,-1.56095 5.25186,-1.56095l3.35829,-1.28967l6.02414,0.89255c0,0 -1.74575,3.04481 -7.26861,5.06027c-5.46328,1.99373 -11.75156,2.29595 -13.4957,1.87732z" fill="#160f3d"/><g><path d="M285.01988,163.93195l-3.90885,-17.64015l2.85335,-0.9167l3.86869,18.64554z" fill="#100d25"/><path d="M278.69352,143.51457c-0.03078,-1.72022 1.33881,-3.13968 3.05903,-3.17045c1.72022,-0.03078 3.13968,1.3388 3.17045,3.05903c0.03078,1.72022 -1.33881,3.13968 -3.05904,3.17044c-1.72022,0.03078 -3.13968,-1.3388 -3.17044,-3.05902z" fill="#160f3d"/></g><g><path d="M289.4392,189.93818l-3.18375,-20.81677l2.66203,-0.79534l2.88278,20.35014z" fill="#100d25"/><path d="M283.4038,166.37497c0.21892,-1.87205 1.91396,-3.21215 3.78599,-2.99322c1.87206,0.21892 3.21215,1.91396 2.99322,3.78599c-0.21892,1.87205 -1.91394,3.21215 -3.78599,2.99323c-1.87205,-0.21892 -3.21215,-1.91396 -2.99323,-3.78599z" fill="#160f3d"/></g><path d="M287.6087,188.3399c0.07037,-1.61484 1.43652,-2.86687 3.05135,-2.79649c1.61484,0.07037 2.86687,1.43653 2.79649,3.05135c-0.07037,1.61484 -1.43651,2.86686 -3.05135,2.79649c-1.61484,-0.07037 -2.86686,-1.43651 -2.79649,-3.05135z" fill="#160f3d"/></g><g><path d="M266.52518,186.57534c1.50077,-0.82466 3.75586,2.78858 3.00658,6.2128c-0.5419,2.47647 -2.99262,3.54932 -2.80598,3.50529c4.69257,-1.10634 3.91077,3.45627 5.67957,4.95513c0.5313,0.45024 -0.82717,17.61335 -0.82717,17.61335l-4.62483,15.03234c0,0 -3.27218,1.69416 -5.81282,-0.37509c-0.82084,-0.66855 -3.45835,-2.8917 -4.73289,-8.22286c-2.10682,-8.81236 -3.09737,-27.91736 -3.09737,-27.91736c0,0 0.69028,-5.91741 3.46655,-8.23622c2.78128,-2.32301 8.51618,-1.89032 9.74834,-2.56739z" fill="#100d25" stroke-width="1.5" stroke-linecap="butt"/><path d="M259.84977,216.68369c0,0 -1.47483,-6.311 -1.64954,-9.33804c-0.15349,-2.65909 -0.08011,-10.09806 -0.08011,-10.09806c0,0 4.28726,-4.10164 7.79608,-4.58401c3.50882,-0.48236 6.04684,2.0082 6.37319,2.89821c0.67512,1.84111 -1.83996,22.18558 -0.99391,27.59251c1.29001,8.24435 -2.63875,6.25539 -2.63875,6.25539l-5.10133,0.67981z" fill="#160f3d" stroke-width="1.5" stroke-linecap="butt"/><path d="M254.94091,244.64489c0,0 -5.63787,-0.43504 -6.5714,-3.17168c-0.77737,-2.27893 5.94154,-9.77262 8.32492,-11.9575c2.87788,-2.63825 13.79857,-2.49157 13.5583,-1.26989c-0.24028,1.22167 -1.5875,5.79106 -3.55774,7.97461c-2.07285,2.29727 -11.75405,8.42446 -11.75405,8.42446z" fill="#160f3d" stroke-width="1.5" stroke-linecap="butt"/><path d="M248.78144,249.57889c0,0 -0.01349,-2.95003 1.54879,-5.88251c0.44827,-0.84144 1.7558,-3.57427 4.30839,-6.11973c3.17821,-3.16933 7.67135,-6.16078 7.67135,-6.16078l6.0486,3.27968c0,0 -3.32982,4.95624 -4.44487,7.22611c-1.10059,2.24045 2.81107,7.90979 2.81107,7.90979c0,0 -6.98398,2.36208 -10.27824,2.3157c-2.396,-0.03372 -7.6651,-2.56826 -7.6651,-2.56826z" fill="#100d25" stroke-width="1.5" stroke-linecap="butt"/><path d="M251.1489,261.7674c-2.03164,-2.3792 -3.43969,-8.86176 -4.06275,-10.77543c-0.45096,-1.3851 0.96905,-5.80799 2.673,-6.84996c0.29882,-0.18273 3.31177,-1.36982 6.11854,-1.66774c4.14854,-0.44032 9.30088,1.19258 9.72082,1.50306c0.23914,0.17682 0.35481,1.06584 0.00219,1.62539c-0.35264,0.55956 -0.6538,1.0121 -1.68297,1.0416c-0.52991,0.0152 -2.96771,-0.5366 -5.41971,-0.60618c-1.29913,-0.03687 -3.01411,-0.33677 -4.49728,0.24637c-1.15433,0.45386 -2.30732,1.72804 -2.1151,2.23243c0.43926,1.15247 3.52935,2.45676 4.57766,5.01586c1.09083,2.66287 -0.10908,6.24768 0.22693,6.2314c1.80521,-0.08744 10.04746,-0.48668 14.52365,-0.70349c1.72785,-0.0837 1.84346,0.7033 1.86237,1.01248c0.00851,0.13914 -0.6003,1.59477 -1.65976,3.02985c-1.04782,1.41931 -2.53639,2.8185 -4.30451,2.90414c-2.70368,0.13097 -5.03698,-0.02753 -8.3257,-0.78173c-3.28871,-0.7542 -5.60571,-1.07886 -7.63737,-3.45807z" fill="#160f3d" stroke-width="1.5" stroke-linecap="butt"/><path d="M255.34232,252.12948c1.97575,-1.68808 3.97894,-3.2254 6.85553,-3.36474c2.77192,-0.13426 3.88473,1.00803 5.95291,2.62652c2.06818,1.61851 2.6332,5.19115 2.6332,5.19115c0,0 -7.6503,1.5102 -8.89333,1.57041c-3.36732,0.1631 -7.97767,-0.75323 -7.97767,-0.75323c0,0 -0.54642,-3.58203 1.42934,-5.27012z" fill="#2a2355" stroke-width="1.5" stroke-linecap="butt"/><path d="M260.32169,232.56056c-0.17473,-3.0792 2.48904,-5.70138 5.94965,-5.85684c3.46064,-0.15547 6.40767,2.21466 6.58239,5.29386c0.17473,3.0792 -2.489,5.7014 -5.94963,5.85686c-3.46064,0.15547 -6.40767,-2.21468 -6.58239,-5.29386z" fill="#160f3d" stroke-width="1.5" stroke-linecap="butt"/><path d="M257.95078,255.85764c1.87374,-1.60092 3.66876,-2.71863 6.39682,-2.85077c2.62882,-0.12733 4.54686,0.69076 6.50825,2.22568c1.96139,1.53492 1.24718,5.46099 1.24718,5.46099c0,0 -5.08434,0.73803 -7.94205,0.87645c-3.19346,0.15468 -7.56575,-0.71433 -7.56575,-0.71433c0,0 -0.5182,-3.39708 1.35556,-4.99802z" fill="#2a2355" stroke-width="1.5" stroke-linecap="butt"/><path d="M264.11711,266.13724c0,0 -0.56308,-3.36351 -0.25764,-3.98342c0.30543,-0.61993 2.14229,-2.04317 2.91618,-2.54017c0.7739,-0.49701 4.58784,-0.62812 4.58784,-0.62812l5.43864,7.54964c0,0 -6.44915,0.08357 -8.79114,0.01009c-1.55361,-0.04874 -3.89388,-0.40804 -3.89388,-0.40804z" fill="#100d25" stroke-width="1.5" stroke-linecap="butt"/><g data-paper-data="{&quot;index&quot;:null}"><path d="M264.37517,221.14573c0,0 -1.92624,-15.20506 -1.56875,-19.48922c0.14189,-1.70027 5.6941,-4.58984 5.6941,-4.58984l6.14207,4.35064c0,0 1.62931,14.71267 0.95893,18.71635c-0.29002,1.7321 -4.91217,4.89295 -4.91217,4.89295z" fill="#2a2355" stroke-width="1.5" stroke-linecap="butt"/><path d="M272.20596,202.95855l-6.66557,1.11413" fill="none" stroke-width="1.25" stroke-linecap="round"/><path d="M266.24647,208.6096l5.89956,-0.96809" fill="none" stroke-width="1.25" stroke-linecap="round"/><path d="M273.05804,218.69062l-5.78624,0.65658" fill="none" stroke-width="1.25" stroke-linecap="round"/><path d="M266.67905,214.49877l5.97827,-1.08579" fill="none" stroke-width="1.25" stroke-linecap="round"/></g><path d="M271.43417,236.81477c0,0 -1.23611,-1.80871 -1.22915,-2.23003c0.00695,-0.42131 0.67445,-1.63263 0.98355,-2.0841c0.30909,-0.45147 2.46165,-1.34636 2.46165,-1.34636l7.48175,5.17614z" fill="#2a2355" stroke-width="1.5" stroke-linecap="butt"/></g><path d="M254.43993,194.41136c0,0 -1.86286,-3.52749 0.32382,-5.64599c0.52763,-0.51115 5.05191,-3.66498 10.53776,-4.61272c1.01759,-0.17579 4.93393,5.03547 3.47172,4.96057c-3.8885,-0.19919 -4.69251,-0.59795 -7.19223,0.53826c-2.9015,1.31882 -7.14107,4.75987 -7.14107,4.75987z" fill="#160f3d" stroke-width="1.5" stroke-linecap="butt"/></g></g></svg>