<svg version="1.1" xmlns="http://www.w3.org/2000/svg" xmlns:xlink="http://www.w3.org/1999/xlink" width="500.19394" height="459.00014" viewBox="0,0,500.19394,459.00014"><g transform="translate(14.44675,96.60723)"><g data-paper-data="{&quot;isPaintingLayer&quot;:true}" fill-rule="nonzero" stroke-linejoin="miter" stroke-miterlimit="10" stroke-dasharray="" stroke-dashoffset="0" style="mix-blend-mode: normal"><g data-paper-data="{&quot;index&quot;:null}" fill="#000000" stroke="#000000" stroke-linecap="butt"><path d="M290.09482,88.04875v13.90278h-145.1213v-13.90278z" stroke-width="1"/><path d="M288.15117,91.13969v8.66667h-143.76683v-8.66667z" data-paper-data="{&quot;index&quot;:null}" stroke-width="0"/><path d="M144.96138,93.67571v-4.33334h143.18636v4.33334z" stroke-width="2"/></g><path d="M115.93069,361.89291v-42.11051h368.88137v42.11051z" fill="#000000" stroke="#000000" stroke-width="1" stroke-linecap="butt"/><path d="M-13.94675,361.33724v-454.05827h79.04204v454.05827z" fill="#000000" stroke="#000000" stroke-width="1" stroke-linecap="butt"/><path d="M484.33728,-91.12959v411.4955h-84.08408v-411.4955z" data-paper-data="{&quot;index&quot;:null}" fill="#000000" stroke="#000000" stroke-width="2.5" stroke-linecap="butt"/><path d="M290.38819,329.40599v-145.03904h110.65766v145.03904z" data-paper-data="{&quot;index&quot;:null}" fill="#000000" stroke="#000000" stroke-width="2.5" stroke-linecap="butt"/><path d="M53.43355,121.82692v-50.4955h101v50.4955z" data-paper-data="{&quot;index&quot;:null}" fill="#000000" stroke="#000000" stroke-width="2.5" stroke-linecap="butt"/><path d="M145.52837,230.12708v-39.21111h82.92216v39.21111z" data-paper-data="{&quot;index&quot;:null}" fill="#000000" stroke="#000000" stroke-width="5" stroke-linecap="butt"/><path d="M157.46716,27.33046v-122.68769h327.03003v122.68769z" fill="#000000" stroke="#000000" stroke-width="2.5" stroke-linecap="butt"/><path d="M-1.586,76.30109v-168.20871h96.94405v168.20871z" data-paper-data="{&quot;index&quot;:null}" fill="#000000" stroke="#000000" stroke-width="2.5" stroke-linecap="butt"/><g data-paper-data="{&quot;index&quot;:null}" fill="#000000" stroke="#000000" stroke-linecap="butt"><path d="M98.09482,249.04875v13.90278h-33.57417v-13.90278z" stroke-width="1"/><path d="M97.64515,252.13969v8.66667h-33.26081v-8.66667z" data-paper-data="{&quot;index&quot;:null}" stroke-width="0"/></g><path d="M80.31919,-15.80426v-73.57358h129.12912v73.57358z" fill="#000000" stroke="#000000" stroke-width="5" stroke-linecap="butt"/><path d="M268.96164,206.62708v-44.21111h42.98889v44.21111z" data-paper-data="{&quot;index&quot;:null}" fill="#000000" stroke="#000000" stroke-width="5" stroke-linecap="butt"/><g data-paper-data="{&quot;index&quot;:null}"><path d="" fill="none" stroke="#182315" stroke-width="7.5" stroke-linecap="round"/><path d="M128.13217,319.6777l-0.21239,-30.54177l30.02056,-0.21607l0.2124,30.96082z" data-paper-data="{&quot;index&quot;:null}" fill="#000000" stroke="none" stroke-width="0" stroke-linecap="butt"/></g></g></g></svg>