<svg version="1.1" xmlns="http://www.w3.org/2000/svg" xmlns:xlink="http://www.w3.org/1999/xlink" width="19.75938" height="15.31891" viewBox="0,0,19.75938,15.31891"><defs><radialGradient cx="251.79418" cy="175.18163" r="1.02873" gradientUnits="userSpaceOnUse" id="color-1"><stop offset="0" stop-color="#006bff"/><stop offset="1" stop-color="#006bff" stop-opacity="0"/></radialGradient></defs><g transform="translate(-246.2739,-170.00946)"><g data-paper-data="{&quot;isPaintingLayer&quot;:true}" fill-rule="nonzero" stroke-linejoin="miter" stroke-miterlimit="10" stroke-dasharray="" stroke-dashoffset="0" style="mix-blend-mode: normal"><g><path d="M247.59112,174.75334c0,0 -0.34169,-0.39271 -0.41358,-0.58469c-0.0634,-0.16929 0.02628,-0.68001 0.02628,-0.68001" fill="none" stroke="#000000" stroke-width="1" stroke-linecap="round"/><path d="M247.08701,174.98211c0.16997,-0.3735 0.67263,-0.51021 1.12276,-0.30536c0.45013,0.20484 0.67719,0.67366 0.50724,1.04717c-0.16997,0.3735 -0.67265,0.51022 -1.12276,0.30539c-0.45013,-0.20484 -0.67719,-0.67368 -0.50723,-1.04716z" fill="#1a1a1a" stroke="#000000" stroke-width="0.375" stroke-linecap="butt"/><path d="M247.71515,175.11789c0,0 -0.41211,-0.47367 -0.49882,-0.70522c-0.07646,-0.2042 0.03169,-0.82018 0.03169,-0.82018" fill="none" stroke="#1a1a1a" stroke-width="0.375" stroke-linecap="round"/></g><path d="M256.01578,177.25903l-0.38674,-1.48324l4.82616,-1.25839l0.38674,1.48324z" fill="#006bff" stroke="#000000" stroke-width="0.375" stroke-linecap="butt"/><path d="M262.43583,173.8367l-0.70967,-2.7217l3.41014,-0.88918c0,0 0.51606,0.83436 0.63434,1.28796c0.11827,0.45362 0.07532,1.43372 0.07532,1.43372z" fill="#1a1a1a" stroke="#000000" stroke-width="0.375" stroke-linecap="butt"/><path d="M254.53844,173.95232l-0.36624,-1.4046l7.33829,-1.91342l0.87989,1.06023l-0.51366,0.34437z" fill="#1a1a1a" stroke="#000000" stroke-width="0.375" stroke-linecap="butt"/><path d="M253.37854,179.13538l-0.43406,-1.66468l1.97008,-0.51368l0.43406,1.66468z" fill="#333333" stroke="#000000" stroke-width="0.375" stroke-linecap="butt"/><path d="M254.94408,175.87649l-0.56453,-2.16507l10.18775,-2.6564c0,0 0.42897,0.67866 0.52947,1.06406c0.08513,0.32649 -0.08898,3.22575 -0.08898,3.22575l-1.07713,0.30212l0.09292,-2.1379z" fill="#333333" stroke="#000000" stroke-width="0.375" stroke-linecap="butt"/><path d="M247.30848,177.97104c-0.12675,-0.48609 -0.41654,-1.59751 -0.41654,-1.59751c0,0 0.98117,-0.54741 1.23805,-0.97908c0.26105,-0.43862 0.31603,-1.63205 0.31603,-1.63205c0,0 4.69225,-1.27987 5.39334,-1.4171c0.03409,-0.00667 1.22353,1.27435 1.22353,1.27435l0.8175,3.24177l-2.9094,0.78837l-0.19117,-0.57176c0,0 -5.38836,1.2114 -5.47136,0.89301z" fill="#333333" stroke="#000000" stroke-width="0.375" stroke-linecap="butt"/><path d="M249.88176,177.37613c0,0 -0.53228,-0.8895 -0.68687,-1.52289c-0.15459,-0.6334 -0.06648,-1.56351 -0.06648,-1.56351l4.26786,-1.11283c0,0 0.9975,0.62833 1.18923,1.28381c0.19176,0.65549 -0.29695,1.76639 -0.29695,1.76639z" fill="#006bff" stroke="#000000" stroke-width="0.375" stroke-linecap="butt"/><path d="M249.63359,174.16853l3.36419,-0.8772c0,0 0.57438,0.69775 0.74128,1.22639c0.16689,0.52864 0.188,1.71712 0.188,1.71712l-3.45663,0.90131c0,0 -0.45559,-0.87667 -0.61079,-1.45411c-0.1552,-0.57744 -0.22603,-1.51351 -0.22603,-1.51351z" fill="#333333" stroke="#000000" stroke-width="0.25" stroke-linecap="butt"/><path d="M249.61076,176.18994l-0.27949,-0.30705l0.10334,-0.45141l4.60479,-1.20067l0.34933,0.29957l-0.15293,0.45361z" fill="#1a1a1a" stroke="#000000" stroke-width="0.375" stroke-linecap="butt"/><path d="M247.04485,179.62787c0.19174,-0.63405 0.01786,-2.12768 0.01786,-2.12768c0,0 2.35731,-0.6168 3.23274,-0.84592c0.17131,-0.04482 0.33781,0.61241 0.33781,0.61241l1.51492,-0.40594l0.0824,0.23749l-2.1249,0.56036c0,0 -0.72633,1.33264 -0.75953,1.34442c-0.04203,0.07075 -0.79271,1.15881 -0.83733,1.31045c-0.3749,1.11404 0.0702,2.73945 0.04901,3.26065c-0.0306,0.10002 0.83987,-0.16863 0.83987,-0.16863c0,0 0.36238,0.187 0.41124,0.35555c0.04787,0.16514 -0.14222,0.56455 -0.14222,0.56455l-2.99549,0.80291c0,0 -0.2817,-0.14534 -0.37785,-0.40281c-0.09618,-0.25746 0.14894,-0.56812 0.14894,-0.56812c0,0 -0.08816,-2.81678 0.01768,-3.67751c0,0 0.41592,-0.29336 0.58488,-0.85219z" fill="#1a1a1a" stroke="#000000" stroke-width="0.375" stroke-linecap="butt"/><path d="M251.61436,178.5628c0,0 -0.48716,-0.15328 -0.58829,-0.26214c-0.15407,-0.16583 -0.41462,-0.63186 -0.41462,-0.63186" fill="none" stroke="#000000" stroke-width="0.75" stroke-linecap="round"/><path d="M251.62287,178.54559c0,0 -0.48717,-0.15328 -0.58832,-0.26214c-0.15406,-0.16583 -0.41461,-0.63188 -0.41461,-0.63188" fill="none" stroke="#333333" stroke-width="0.375" stroke-linecap="round"/><path d="M248.67556,178.1078l4.45219,-1.21626c0,0 0.22264,1.62378 -0.30527,2.25578c-0.54643,0.65414 -3.37664,1.36911 -3.37664,1.36911z" fill="none" stroke="#000000" stroke-width="0.75" stroke-linecap="butt"/><path d="M249.19039,178.01959l3.93738,-1.12805c0,0 0.18106,1.63796 -0.3354,2.25626c-0.55562,0.66516 -3.41384,1.38617 -3.41384,1.38617z" fill="none" stroke="#1a1a1a" stroke-width="0.25" stroke-linecap="butt"/><path d="M247.9743,179.93902c0.20798,-0.57177 0.07686,-1.90124 0.07686,-1.90124l2.1442,-0.52474c0,0 -0.11128,0.41501 -0.07086,0.89883c0.03324,0.39794 0.22987,0.87804 0.15173,0.90497c-0.0437,0.06436 -0.8192,1.05727 -0.86769,1.19398c-0.40317,1.00565 0.02473,2.39875 -0.01076,2.86496c-0.05659,0.15386 -2.14767,0.62662 -2.14767,0.62662c0,0 -0.09177,-2.01997 0.11987,-3.28582c0,0 0.42104,-0.27363 0.60433,-0.77755z" fill="#333333" stroke="#000000" stroke-width="0.375" stroke-linecap="butt"/><path d="M247.93785,182.86519c-0.05102,-0.19564 0.06624,-0.39562 0.26189,-0.44663c0.19564,-0.05102 0.39562,0.06624 0.44663,0.26189c0.05102,0.19564 -0.06624,0.39562 -0.26189,0.44663c-0.19564,0.05102 -0.39562,-0.06624 -0.44663,-0.26189z" fill="#1a1a1a" stroke="#000000" stroke-width="0.2" stroke-linecap="butt"/><path d="M250.9083,176.51946l2.39341,-0.62407" fill="none" stroke="#000000" stroke-width="0.25" stroke-linecap="round"/><path d="M252.74063,173.88155l-2.39342,0.62408" fill="none" stroke="#000000" stroke-width="0.25" stroke-linecap="round"/><path d="M250.99994,175.37159l0.52317,-1.09951l0.99344,0.70406l-0.52317,1.09951z" fill="#006bff" stroke="#000000" stroke-width="0.2" stroke-linecap="butt"/><path d="M250.79875,175.44118c-0.14335,-0.54978 0.18612,-1.11164 0.73589,-1.25498c0.54978,-0.14335 1.11166,0.18611 1.255,0.73588c0.14335,0.54978 -0.18612,1.11165 -0.7359,1.25499c-0.54978,0.14335 -1.11165,-0.18612 -1.25499,-0.73589z" fill="url(#color-1)" stroke="#000000" stroke-width="0" stroke-linecap="butt"/><path d="M255.11965,177.92881l-1.07017,-0.58774l3.52253,-0.91846l3.52253,-0.91847l0.21161,0.8116z" fill="#1a1a1a" stroke="#000000" stroke-width="0.375" stroke-linecap="butt"/><path d="M250.15921,177.16603l0.35903,0.41042" fill="none" stroke="#1a1a1a" stroke-width="0.375" stroke-linecap="round"/><path d="M261.91832,176.19942l-0.50049,-1.91946l-1.16583,-0.62235l3.88399,-1.01272l-0.16605,3.0196z" fill="#1a1a1a" stroke="#000000" stroke-width="0.375" stroke-linecap="butt"/><path d="M260.90671,176.4146l-0.49222,-1.88776l1.06188,-0.27688l1.22102,0.63693l-0.72881,1.25082z" fill="#333333" stroke="#000000" stroke-width="0.375" stroke-linecap="butt"/><path d="M258.43655,175.62663c-0.11305,-0.43354 0.14675,-0.87662 0.5803,-0.98966c0.43353,-0.11304 0.87662,0.14675 0.98966,0.5803c0.11305,0.43354 -0.14675,0.87662 -0.5803,0.98966c-0.43353,0.11304 -0.87662,-0.14676 -0.98966,-0.5803z" fill="#1a1a1a" stroke="#000000" stroke-width="0.375" stroke-linecap="butt"/><path d="M261.14539,175.39751c-0.05102,-0.19564 0.06624,-0.39562 0.26189,-0.44663c0.19564,-0.05102 0.39562,0.06624 0.44663,0.26189c0.05102,0.19564 -0.06623,0.39562 -0.26189,0.44663c-0.19564,0.05102 -0.39562,-0.06624 -0.44663,-0.26189z" fill="#1a1a1a" stroke="#000000" stroke-width="0.2" stroke-linecap="butt"/><path d="M262.35397,173.7011l-0.57394,-2.04531l0.2451,-0.51103l0.43998,0.3324l0.61202,2.03538l-0.28161,0.52507z" fill="#373737" stroke="#000000" stroke-width="0.25" stroke-linecap="butt"/><path d="M256.39458,173.66809l-0.40624,-0.39811l0.1601,-0.54578l4.1295,-1.07675l0.42982,0.39196l-0.18371,0.55194z" fill="#006bff" stroke="#000000" stroke-width="0.375" stroke-linecap="butt"/><path d="M255.31722,174.86783l6.81694,-1.77747" fill="none" stroke="#000000" stroke-width="0.25" stroke-linecap="round"/></g></g></svg>