<svg version="1.1" xmlns="http://www.w3.org/2000/svg" xmlns:xlink="http://www.w3.org/1999/xlink" width="78.21132" height="107.09207" viewBox="0,0,78.21132,107.09207"><defs><radialGradient cx="205.56482" cy="113.6447" r="24" gradientUnits="userSpaceOnUse" id="color-1"><stop offset="0" stop-color="#dcdcdc"/><stop offset="1" stop-color="#dcdcdc" stop-opacity="0"/></radialGradient><radialGradient cx="204.89815" cy="112.64471" r="24" gradientUnits="userSpaceOnUse" id="color-2"><stop offset="0" stop-color="#dcdcdc"/><stop offset="1" stop-color="#dcdcdc" stop-opacity="0"/></radialGradient><radialGradient cx="205.23149" cy="113.31137" r="24" gradientUnits="userSpaceOnUse" id="color-3"><stop offset="0" stop-color="#dcdcdc"/><stop offset="1" stop-color="#dcdcdc" stop-opacity="0"/></radialGradient><linearGradient x1="237.9762" y1="133.62088" x2="223.68114" y2="162.14706" gradientUnits="userSpaceOnUse" id="color-4"><stop offset="0" stop-color="#122639"/><stop offset="1" stop-color="#141f2b"/></linearGradient><linearGradient x1="237.75869" y1="133.68292" x2="223.46361" y2="162.20911" gradientUnits="userSpaceOnUse" id="color-5"><stop offset="0" stop-color="#310b0b"/><stop offset="1" stop-color="#3a0909"/></linearGradient><linearGradient x1="233.43254" y1="116.70488" x2="236.84523" y2="141.06788" gradientUnits="userSpaceOnUse" id="color-6"><stop offset="0" stop-color="#343434"/><stop offset="1" stop-color="#1f1f1f"/></linearGradient><linearGradient x1="239.6384" y1="147.98275" x2="241.11789" y2="184.89655" gradientUnits="userSpaceOnUse" id="color-7"><stop offset="0" stop-color="#0f0f0f"/><stop offset="1" stop-color="#0c0c0c"/></linearGradient><linearGradient x1="236.70631" y1="148.87571" x2="239.18159" y2="166.5466" gradientUnits="userSpaceOnUse" id="color-8"><stop offset="0" stop-color="#1f180f"/><stop offset="1" stop-color="#0d0b07"/></linearGradient><linearGradient x1="239.54482" y1="162.47759" x2="240.25164" y2="167.54424" gradientUnits="userSpaceOnUse" id="color-9"><stop offset="0" stop-color="#1f180f"/><stop offset="1" stop-color="#0d0b07"/></linearGradient><linearGradient x1="240.68663" y1="163.88634" x2="240.8748" y2="168.82426" gradientUnits="userSpaceOnUse" id="color-10"><stop offset="0" stop-color="#0f0f0f"/><stop offset="1" stop-color="#0c0c0c"/></linearGradient><linearGradient x1="248.77248" y1="188.94783" x2="249.14721" y2="194.53593" gradientUnits="userSpaceOnUse" id="color-11"><stop offset="0" stop-color="#1f180f"/><stop offset="1" stop-color="#0d0b07"/></linearGradient><linearGradient x1="231.63016" y1="189.21583" x2="231.19887" y2="194.79984" gradientUnits="userSpaceOnUse" id="color-12"><stop offset="0" stop-color="#1f180f"/><stop offset="1" stop-color="#0d0b07"/></linearGradient><linearGradient x1="236.05439" y1="140.26322" x2="238.77439" y2="159.68115" gradientUnits="userSpaceOnUse" id="color-13"><stop offset="0" stop-color="#0f0f0f"/><stop offset="1" stop-color="#0c0c0c"/></linearGradient><linearGradient x1="204.09685" y1="116.19833" x2="199.91766" y2="128.98859" gradientUnits="userSpaceOnUse" id="color-14"><stop offset="0" stop-color="#1b1b1b"/><stop offset="1" stop-color="#343434"/></linearGradient><linearGradient x1="205.58579" y1="110.7816" x2="209.90143" y2="98.03673" gradientUnits="userSpaceOnUse" id="color-15"><stop offset="0" stop-color="#1b1b1b"/><stop offset="1" stop-color="#343434"/></linearGradient><linearGradient x1="236.09231" y1="139.02408" x2="236.65773" y2="143.06054" gradientUnits="userSpaceOnUse" id="color-16"><stop offset="0" stop-color="#0f0f0f"/><stop offset="1" stop-color="#0c0c0c"/></linearGradient><linearGradient x1="219.22382" y1="153.90856" x2="225.76536" y2="152.62295" gradientUnits="userSpaceOnUse" id="color-17"><stop offset="0" stop-color="#0f0f0f"/><stop offset="1" stop-color="#0c0c0c"/></linearGradient><linearGradient x1="250.69764" y1="156.02776" x2="255.52162" y2="151.4263" gradientUnits="userSpaceOnUse" id="color-18"><stop offset="0" stop-color="#0f0f0f"/><stop offset="1" stop-color="#0c0c0c"/></linearGradient></defs><g transform="translate(-180.89815,-88.6447)"><g data-paper-data="{&quot;isPaintingLayer&quot;:true}" fill-rule="nonzero" stroke-linejoin="miter" stroke-miterlimit="10" stroke-dasharray="" stroke-dashoffset="0" style="mix-blend-mode: normal"><path d="M181.56482,113.6447c0,-13.25483 10.74517,-24 24,-24c13.25483,0 24,10.74517 24,24c0,13.25483 -10.74517,24 -24,24c-13.25483,0 -24,-10.74517 -24,-24z" fill="url(#color-1)" stroke="#000000" stroke-width="0" stroke-linecap="butt"/><path d="M180.89815,112.64471c0,-13.25483 10.74517,-24 24,-24c13.25483,0 24,10.74517 24,24c0,13.25483 -10.74517,24 -24,24c-13.25483,0 -24,-10.74517 -24,-24z" fill="url(#color-2)" stroke="#000000" stroke-width="0" stroke-linecap="butt"/><path d="M181.23149,113.31137c0,-13.25483 10.74517,-24 24,-24c13.25483,0 24,10.74517 24,24c0,13.25483 -10.74517,24 -24,24c-13.25483,0 -24,-10.74517 -24,-24z" fill="url(#color-3)" stroke="#000000" stroke-width="0" stroke-linecap="butt"/><g stroke="#000000" stroke-width="1.5"><g stroke-linecap="round"><path d="M237.89205,133.6028l-14.24966,28.43557c0,0 -7.26467,-2.62519 -9.47053,-8.54786c-2.42205,-6.50312 1.16742,-13.57223 1.16742,-13.57223l31.1419,15.60586c0,0 2.26177,-5.89691 0.3973,-12.53425c-1.81125,-6.44789 -8.98644,-9.38709 -8.98644,-9.38709z" fill="url(#color-4)"/><path d="M222.89313,147.7231l1.56967,4.12189" fill="none"/><path d="M238.23456,147.79975l-1.40868,-3.69913" fill="none"/><path d="M218.80149,145.84374l3.82357,10.04049" fill="none"/><path d="M239.58589,140.26701l3.13936,8.24376" fill="none"/><path d="M236.2975,163.73252c6.43301,-2.4793 9.80305,-7.82083 9.80305,-7.82083l-31.14191,-15.60585c0,0 3.51436,-7.10675 10.17359,-9.05905c6.06485,-1.77805 12.5162,2.47014 12.5162,2.47014l-14.24965,28.43557c0,0 6.64932,3.98857 12.89872,1.58002z" data-paper-data="{&quot;index&quot;:null}" fill="url(#color-5)"/><path d="M225.65186,141.47392l4.2415,-1.20979" data-paper-data="{&quot;index&quot;:null}" fill="none"/><path d="M234.8961,153.71773l-3.80648,1.08572" data-paper-data="{&quot;index&quot;:null}" fill="none"/><path d="M232.02906,136.37425l-10.33183,2.94692" data-paper-data="{&quot;index&quot;:null}" fill="none"/><path d="M238.15366,156.88949l-8.48298,2.41957" data-paper-data="{&quot;index&quot;:null}" fill="none"/></g><path d="M228.02507,141.2505l8.94026,4.48015l-4.48015,8.94026l-8.94026,-4.48015z" fill="#121212" stroke-linecap="butt"/><path d="M232.21003,148.97017l-3.93372,-1.97126" fill="none" stroke-linecap="round"/></g><path d="M245.41012,130.16225c0.66179,4.72451 -3.23425,9.17536 -8.70205,9.94127c-5.46779,0.76591 -10.43682,-2.44318 -11.09862,-7.16767c-0.66179,-4.72451 3.23426,-9.17537 8.70206,-9.94127c5.4678,-0.76591 10.43681,2.44317 11.09861,7.16767z" fill="#505050" stroke="#000000" stroke-width="1.5" stroke-linecap="butt"/><path d="M238.14611,133.34892c-0.15132,-1.08025 0.68847,-2.09081 1.87569,-2.25711c1.18721,-0.1663 2.27233,0.57461 2.42364,1.65487c0.15132,1.08025 -0.68845,2.09082 -1.87567,2.25712c-1.18721,0.1663 -2.27235,-0.57462 -2.42366,-1.65488z" fill="#000000" stroke="#000000" stroke-width="0" stroke-linecap="butt"/><path d="M231.90854,134.05531c-0.15484,-1.10539 0.70447,-2.13944 1.91931,-2.30961c1.21484,-0.17017 2.32518,0.58799 2.48001,1.69337c0.15484,1.10539 -0.70447,2.13945 -1.91929,2.30962c-1.21484,0.17017 -2.3252,-0.58799 -2.48004,-1.69338z" fill="#000000" stroke="#000000" stroke-width="0" stroke-linecap="butt"/><g stroke-width="0.875"><path d="M222.68588,130.63071c-0.94238,-6.72765 3.86906,-12.96249 10.74665,-13.92588c6.87759,-0.96339 13.42498,3.68032 14.36737,10.408c0,0 -2.172,3.34359 -7.46069,4.78533c-6.84164,1.8651 -17.24048,1.67998 -17.65335,-1.26745z" fill="url(#color-6)" stroke="#000000" stroke-linecap="butt"/><path d="M247.64009,126.82241c0.17051,0.44536 -0.24038,2.10212 -0.24038,2.10212c0,0 -2.32764,2.93721 -11.54097,4.12825c-9.82533,1.27013 -12.96827,-1.6408 -12.96827,-1.6408c0,0 -0.55674,-1.00476 -0.50509,-1.39873c0.0605,-0.46136 0.21868,-1.34786 0.21868,-1.34786c0,0 8.21977,1.78733 13.10737,1.0793c4.88761,-0.70804 11.51161,-4.34356 11.51161,-4.34356c0,0 0.25357,0.99424 0.41705,1.42128z" fill="#0e0e0e" stroke="#000000" stroke-linecap="round"/><path d="M225.69212,120.35873c0,0 1.28035,-1.09267 1.84005,-1.51547c0.57134,-0.43161 1.48469,-0.86664 1.48469,-0.86664c0,0 5.51012,0.47771 8.1764,2.2844c2.66629,1.80669 5.65153,6.94555 5.65153,6.94555c0,0 -1.45259,0.72328 -1.94517,0.94628c-0.63012,0.28528 -1.87338,0.61496 -1.87338,0.61496c0,0 -1.94428,-4.7207 -4.72041,-6.50079c-2.77612,-1.78004 -8.61372,-1.9083 -8.61372,-1.9083z" fill="#0e0e0e" stroke="#000000" stroke-linecap="round"/><path d="M226.33106,124.73449c-0.82403,0.67253 -2.53432,0.65255 -2.53432,0.65255c0,0 -2.31553,-3.54886 -3.05889,-5.50394c-0.73436,-1.93139 -1.3746,-6.15644 -1.3746,-6.15644c0,0 2.8709,3.9923 4.27815,5.49251c1.288,1.37311 3.83926,3.16123 3.83926,3.16123c0,0 -0.32554,1.68151 -1.14958,2.35406z" fill="#0e0e0e" stroke="#000000" stroke-linecap="butt"/><path d="M238.27611,117.34544c0,0 1.20315,-1.14678 1.40277,-2.68c0.21808,-1.67514 0.16133,-5.72539 0.16133,-5.72539c0,0 1.80822,3.16791 2.31285,4.82206c0.51079,1.67443 0.73367,5.1645 0.73367,5.1645c0,0 -1.40402,0.59836 -2.36687,0.52595c-0.96285,-0.07242 -2.24372,-2.1071 -2.24372,-2.1071z" data-paper-data="{&quot;index&quot;:null}" fill="#0e0e0e" stroke="#000000" stroke-linecap="butt"/><path d="M241.39372,129.79144c-0.07175,-0.51226 0.32643,-0.99143 0.88942,-1.07029c0.56297,-0.07886 1.0775,0.27246 1.14926,0.78472c0.07175,0.51226 -0.32642,0.99144 -0.88942,1.0703c-0.56297,0.07886 -1.0775,-0.27245 -1.14926,-0.78473z" fill="#000000" stroke="none" stroke-linecap="butt"/><path d="M244.43028,128.29671c-0.07175,-0.51226 0.32642,-0.99143 0.88941,-1.0703c0.56297,-0.07886 1.07751,0.27247 1.14927,0.78473c0.07175,0.51225 -0.32643,0.99143 -0.88942,1.07029c-0.56297,0.07886 -1.0775,-0.27247 -1.14925,-0.78472z" fill="#000000" stroke="none" stroke-linecap="butt"/><path d="M238.42464,130.85482c-0.07175,-0.51226 0.32643,-0.99143 0.88942,-1.07029c0.56297,-0.07886 1.0775,0.27245 1.14926,0.78472c0.07175,0.51226 -0.32643,0.99144 -0.88942,1.0703c-0.56297,0.07886 -1.0775,-0.27246 -1.14926,-0.78473z" fill="#000000" stroke="none" stroke-linecap="butt"/><path d="M234.85767,131.64542c-0.07175,-0.51226 0.32643,-0.99144 0.88942,-1.0703c0.56297,-0.07886 1.07751,0.27245 1.14927,0.78473c0.07175,0.51226 -0.32643,0.99144 -0.88943,1.0703c-0.56297,0.07886 -1.0775,-0.27245 -1.14926,-0.78473z" fill="#000000" stroke="none" stroke-linecap="butt"/><path d="M231.26568,131.85761c-0.07175,-0.51226 0.32643,-0.99143 0.88943,-1.07029c0.56297,-0.07886 1.07751,0.27245 1.14926,0.78472c0.07175,0.51226 -0.32643,0.99144 -0.88942,1.0703c-0.56297,0.07886 -1.07752,-0.27245 -1.14927,-0.78472z" fill="#000000" stroke="none" stroke-linecap="butt"/><path d="M227.43307,131.55058c-0.07175,-0.51226 0.32642,-0.99143 0.88941,-1.07029c0.56297,-0.07886 1.07752,0.27245 1.14927,0.78472c0.07175,0.51226 -0.32643,0.99144 -0.88943,1.0703c-0.56297,0.07886 -1.07749,-0.27245 -1.14925,-0.78473z" fill="#000000" stroke="none" stroke-linecap="butt"/><path d="M224.03376,130.85548c-0.07175,-0.51226 0.32643,-0.99143 0.88942,-1.07029c0.56297,-0.07886 1.07751,0.27246 1.14926,0.78472c0.07175,0.51226 -0.32642,0.99143 -0.88942,1.0703c-0.56297,0.07886 -1.07751,-0.27246 -1.14926,-0.78473z" fill="#000000" stroke="none" stroke-linecap="butt"/><path d="M239.14768,126.38505c-0.07175,-0.51226 0.32643,-0.99143 0.88942,-1.07029c0.56297,-0.07886 1.0775,0.27246 1.14926,0.78472c0.07175,0.51226 -0.32642,0.99144 -0.88941,1.0703c-0.56297,0.07886 -1.07751,-0.27246 -1.14926,-0.78473z" fill="#000000" stroke="none" stroke-linecap="butt"/><path d="M237.06278,123.67265c-0.07175,-0.51226 0.32642,-0.99144 0.88942,-1.0703c0.56297,-0.07886 1.07751,0.27247 1.14926,0.78473c0.07175,0.51226 -0.32644,0.99143 -0.88942,1.07029c-0.56297,0.07886 -1.07751,-0.27246 -1.14926,-0.78472z" fill="#000000" stroke="none" stroke-linecap="butt"/><path d="M234.38119,121.10931c-0.07175,-0.51226 0.32642,-0.99142 0.88942,-1.07029c0.56297,-0.07886 1.0775,0.27246 1.14926,0.78472c0.07175,0.51226 -0.32643,0.99143 -0.88941,1.0703c-0.56297,0.07886 -1.07751,-0.27246 -1.14926,-0.78473z" fill="#000000" stroke="none" stroke-linecap="butt"/><path d="M229.99459,119.78689c-0.07175,-0.51226 0.32644,-0.99144 0.88942,-1.0703c0.56297,-0.07886 1.07751,0.27246 1.14927,0.78473c0.07175,0.51226 -0.32643,0.99144 -0.88942,1.0703c-0.56297,0.07886 -1.07751,-0.27247 -1.14926,-0.78473z" fill="#000000" stroke="none" stroke-linecap="butt"/></g><path d="M224.50766,159.98341c-1.27067,-5.18627 -4.11048,-11.22947 -4.11048,-11.22947l36.6034,1.07575c0,0 -1.38305,5.28586 -3.05507,10.37191c-1.51666,4.61343 1.72665,16.03166 1.2883,20.34538c-0.10802,1.06293 -7.94886,4.10241 -15.08307,4.38834c-6.84118,0.27419 -14.96975,-1.49284 -14.96975,-1.49284c0,0 0.74733,-17.66064 -0.67334,-23.45907z" fill="url(#color-7)" stroke="#000000" stroke-width="1.5" stroke-linecap="butt"/><path d="M245.57409,191.48778c-0.83784,0.13039 -1.73773,-0.79551 -2.70125,-4.42724c-0.29455,-1.11028 -0.84329,-4.21603 -1.08297,-5.41006c-0.31001,-1.54448 -0.14353,-3.18556 -0.30136,-4.59573c-0.34921,-3.12016 -0.77533,-5.44285 -0.77533,-5.44285c0,0 2.67453,-1.14708 4.8329,-1.48299c2.15836,-0.33591 4.99337,0.09985 4.99337,0.09985c0,0 -0.29259,1.88423 -0.19832,4.84443c0.04538,1.42473 0.4454,3.36674 0.50906,4.96046c0.0733,1.83506 -0.23704,2.46103 -0.11409,4.15358c0.13801,1.89984 0.70605,4.76411 0.70605,4.76411c0,0 -5.35889,2.45717 -5.86807,2.53643z" data-paper-data="{&quot;index&quot;:null}" fill="#060606" stroke="#000000" stroke-width="1.5" stroke-linecap="butt"/><path d="M234.9726,189.75562c0,0 -6.30996,-0.12217 -6.84318,-0.27339c-0.87741,-0.24883 -1.3614,-1.48105 -0.74421,-5.19056c0.18869,-1.13405 0.98633,-4.1858 1.26484,-5.37162c0.36026,-1.53386 1.22916,-2.94655 1.68086,-4.29223c0.99941,-2.97741 1.58051,-5.2666 1.58051,-5.2666c0,0 3.11512,0.13275 5.37542,0.77377c2.26029,0.64103 4.8521,2.27689 4.8521,2.27689c0,0 -1.0971,1.57755 -2.27767,4.29854c-0.56818,1.3096 -1.01116,3.24274 -1.6341,4.71332c-0.71726,1.69325 -1.29069,2.12402 -1.898,3.71004c-0.68168,1.78024 -1.35656,4.62184 -1.35656,4.62184z" data-paper-data="{&quot;index&quot;:null}" fill="#060606" stroke="#000000" stroke-width="1.5" stroke-linecap="butt"/><path d="M227.12818,153.40724c-0.54417,0.07119 -6.13031,-5.92417 -3.62236,-7.87577c4.37047,-3.40095 10.3972,-2.77873 12.72086,-3.10421c1.97525,-0.27669 8.62211,-2.96045 13.40664,-0.86462c2.0731,0.90812 -3.10408,8.92054 -3.12275,9.18426c-0.33984,4.79925 1.30121,8.64213 1.83476,9.92778c0.16059,0.38698 0.64709,1.7573 1.25168,3.20389c0.53501,1.28011 1.74609,6.77241 1.93423,7.98444c0.16565,1.06706 -0.0832,3.08682 -0.0832,3.08682c0,0 -5.26073,1.78763 -10.49674,2.58194c-4.40247,0.66786 -8.81772,0.41785 -9.77521,-0.05624c-2.25435,-1.11621 -1.15037,-10.4331 -1.02756,-12.45757c0,0 -1.17437,-11.85221 -3.02036,-11.61074z" fill="#505050" stroke="#000000" stroke-width="1.5" stroke-linecap="butt"/><path d="M228.63753,151.21111l3.34828,-1.67417c0,0 4.33628,4.88239 6.92982,7.06901c2.75654,2.32401 8.96686,6.51803 8.96686,6.51803l-0.46651,2.26916c0,0 -8.09422,-3.8809 -10.93513,-6.24228c-2.8869,-2.3996 -7.84338,-7.93976 -7.84338,-7.93976z" fill="url(#color-8)" stroke="#000000" stroke-width="1.5" stroke-linecap="butt"/><path d="M230.70186,163.7112c0,0 6.65834,0.74275 9.19384,0.69c2.69482,-0.05605 9.14055,-1.62249 9.14055,-1.62249l1.10315,3.19373c0,0 -6.95581,1.34865 -9.71254,1.42911c-2.80135,0.08174 -10.38385,-0.58568 -10.38385,-0.58568z" fill="url(#color-9)" stroke="#000000" stroke-width="1.5" stroke-linecap="butt"/><path d="M238.20161,166.038c0.06494,-0.45517 0.04497,-1.12757 0.33057,-1.46258c0.55002,-0.64517 1.6504,-0.75122 2.58531,-0.63842c0.80712,0.09738 1.66548,0.39759 2.05918,0.99986c0.29915,0.45762 0.2507,1.14682 0.16868,1.72183c-0.10404,0.72926 -0.3991,1.51653 -1.00784,1.89286c-0.50292,0.31091 -1.26545,0.28568 -1.90804,0.20814c-0.73486,-0.08868 -1.5443,-0.32232 -1.94689,-0.84223c-0.37556,-0.48502 -0.37268,-1.2367 -0.28098,-1.87945z" fill="url(#color-10)" stroke="#000000" stroke-width="1.5" stroke-linecap="butt"/><path d="M251.33885,188.79439c3.49944,0.02775 4.06695,1.83432 4.03923,3.3461c-0.0277,1.51177 -2.26717,2.33668 -5.76661,2.30891c-3.49944,-0.02775 -6.95828,0.44286 -6.93057,-1.06889c0.01159,-0.63185 -0.55341,-2.8037 0.7443,-3.37395c0,0 5.87677,-1.22832 7.91366,-1.21216z" data-paper-data="{&quot;index&quot;:null}" fill="url(#color-11)" stroke="#000000" stroke-width="1.5" stroke-linecap="butt"/><path d="M234.19198,189.43237c3.45922,0.52978 3.76152,2.39911 3.51709,3.89126c-0.24443,1.49214 -2.57912,1.98703 -6.03833,1.45723c-3.45922,-0.52978 -6.94979,-0.56054 -6.70536,-2.05266c0.10217,-0.62365 -0.14521,-2.8541 1.22091,-3.23217c0,0 5.99224,-0.37201 8.00571,-0.06364z" data-paper-data="{&quot;index&quot;:null}" fill="url(#color-12)" stroke="#000000" stroke-width="1.5" stroke-linecap="butt"/><path d="M217.11265,151.54511c-0.12928,-0.17603 0.64997,-4.74838 2.71796,-6.85116c1.67897,-1.70723 6.10765,-3.19343 10.29762,-3.34823c2.04044,-0.07539 4.44935,1.09103 5.63845,0.9192c4.32581,-0.62505 7.03011,-2.75767 7.05405,-2.75877c0.35268,-0.01598 5.7972,-1.62519 7.56011,-0.24528c0.75713,0.59263 3.07177,2.16918 3.46201,2.42999c1.94499,1.29992 3.57366,5.11798 4.51662,8.82679c0.48759,1.63031 -1.0898,4.22343 -2.54018,5.96777c-0.62851,0.7559 -3.06201,-5.56207 -5.618,-5.86298c-1.88163,-0.22152 -3.32637,8.18162 -4.87086,7.50855c-4.7867,-2.08597 -7.28255,-4.50899 -9.73331,-4.97875c-2.39939,-0.45991 -4.28295,-2.40811 -7.22158,-2.14466c-2.93865,0.26344 -5.38667,-0.5612 -7.85519,-1.03626c0,0 -2.70741,2.52712 -3.40768,1.57379z" data-paper-data="{&quot;index&quot;:null}" fill="url(#color-13)" stroke="#000000" stroke-width="1.5" stroke-linecap="butt"/><path d="M244.25675,147.05763c-1.1344,-4.67248 -3.51472,-17.67595 -2.96515,-17.92319c0.32142,-0.14461 6.89178,-2.53332 7.41551,-2.36028c0.49941,0.16501 0.37375,7.17767 3.11637,14.27943c2.19093,5.67326 4.35494,9.26692 4.17427,12.3243c-0.07523,1.2732 -1.49896,2.11097 -1.79968,2.71065c-0.70436,1.40464 -3.5104,1.4124 -4.8255,0.28736c-2.72383,-2.33012 -3.98141,-4.64579 -5.1158,-9.31829z" data-paper-data="{&quot;index&quot;:null}" fill="#505050" stroke="#000000" stroke-width="1.5" stroke-linecap="butt"/><path d="M229.15961,154.00078c0.03996,1.04858 -1.46835,1.95734 -3.3689,2.02976c-1.90055,0.07243 -3.47365,-0.7189 -3.51361,-1.76748c-0.03996,-1.04858 1.46835,-1.95734 3.3689,-2.02976c1.90055,-0.07243 3.47365,0.7189 3.51361,1.76748z" fill="#000000" stroke="none" stroke-width="NaN" stroke-linecap="butt"/><path d="M222.56497,138.83595c1.64061,-5.04911 4.91287,-16.70746 5.49166,-16.61213c0.33851,0.05575 7.12448,2.05266 7.45249,2.5261c0.31277,0.45147 -3.92899,5.9016 -5.60062,14.18146c-1.3354,6.61436 -0.40059,11.41398 -2.21896,14.16897c-0.75723,1.14728 -2.57013,0.88451 -3.14088,1.26714c-1.33688,0.89621 -3.17893,0.08503 -3.62484,-1.75032c-0.92356,-3.80132 0.00053,-8.73209 1.64115,-13.78122z" data-paper-data="{&quot;index&quot;:null}" fill="#505050" stroke="#000000" stroke-width="1.5" stroke-linecap="butt"/><g stroke="#000000"><g data-paper-data="{&quot;index&quot;:null}" stroke-linecap="round"><path d="M211.38572,130.52586l-1.16504,3.04733l-2.89157,-2.15911l-2.29191,2.99668l-2.39193,-1.95032l-3.20289,1.8233l-2.13891,-3.0859l-3.11054,1.38978l-0.63465,-3.5472l-3.1926,0.33819l1.12264,-3.04019l-3.18639,-0.25087l2.03534,-4.14098" data-paper-data="{&quot;index&quot;:null}" fill="#000000" stroke-width="0.5"/><path d="M211.84317,129.5539c0,0 -6.65026,4.01889 -12.12282,2.08844c-8.7707,-3.09387 -9.18593,-10.35801 -9.18593,-10.35801l9.86993,-6.88711l13.6422,3.87861z" data-paper-data="{&quot;index&quot;:null}" fill="#000000" stroke-width="0.5"/><path d="M200.94943,125.58574l-1.83727,4.5409" data-paper-data="{&quot;index&quot;:null}" fill="#000000" stroke-width="0.5"/><path d="M203.58907,131.53591l1.1412,-3.34296" data-paper-data="{&quot;index&quot;:null}" fill="#000000" stroke-width="0.5"/><path d="M209.46714,128.24198l-0.91368,2.38988l-2.26775,-1.69334l-1.79744,2.35023l-1.87589,-1.52954l-2.51188,1.42992l-1.67745,-2.42016l-2.43942,1.08995l-0.49773,-2.78188l-2.50381,0.26523l0.88042,-2.38429l-2.49895,-0.19674l1.59623,-3.24761" data-paper-data="{&quot;index&quot;:null}" fill="#343434" stroke-width="0"/><path d="M209.82593,127.47985c0,0 -5.21547,3.15182 -9.50735,1.63783c-6.87844,-2.42643 -7.20412,-8.1233 -7.20412,-8.1233l7.74055,-5.40125l10.69895,3.0418z" data-paper-data="{&quot;index&quot;:null}" fill="url(#color-14)" stroke-width="0"/><path d="M203.35264,129.03415l0.89499,-2.62171" data-paper-data="{&quot;index&quot;:null}" fill="#585858" stroke-width="0"/></g><g data-paper-data="{&quot;index&quot;:null}"><g data-paper-data="{&quot;index&quot;:null}" fill="#000000" stroke-width="0.5"><g data-paper-data="{&quot;index&quot;:null}"><path d="M198.01178,97.93624l0.85093,-4.53499l2.70168,1.70793l0.9223,-3.10684l2.35376,2.18332l2.63312,-2.4601l1.65811,2.97617l3.56125,-1.18961l1.47235,3.37862l3.08359,-0.12877l0.04,3.77245l3.60872,0.00336l-0.89263,3.13794" stroke-linecap="round"/><g data-paper-data="{&quot;index&quot;:null}"><path d="M197.63404,108.58248l53.51966,18.48559l0.20604,5.36686l-54.11369,-19.2329c0,0 -1.81933,-2.26709 -1.76567,-3.04168c0.04601,-0.6643 1.98302,-1.07411 1.98302,-1.07411z" stroke-linecap="butt"/><path d="M214.79718,115.07848l-13.24696,-5.0667l-3.77726,-11.42717c0,0 4.68407,-5.56775 13.56025,-2.79097c5.53838,1.73259 8.45581,8.9344 8.45581,8.9344z" stroke-linecap="round"/></g></g><path d="M208.68912,101.37952l1.2491,-4.73657" stroke-linecap="round"/><path d="M214.36717,98.1964l-1.08882,3.36039" stroke-linecap="round"/><path d="M204.41479,99.52081l0.93661,-3.5142" stroke-linecap="round"/></g><path d="M199.85235,99.8539l0.66735,-3.55661l2.11879,1.33947l0.72334,-2.43654l1.84595,1.71228l2.06502,-1.92933l1.30034,2.33408l2.79296,-0.93297l1.15469,2.6497l2.41832,-0.10097l0.03133,2.95861l2.83021,0.00262l-0.70007,2.46095" fill="#343434" stroke-width="0" stroke-linecap="round"/><path d="M213.01644,113.29778l-10.38898,-3.97358l-2.96233,-8.96183c0,0 3.67347,-4.36647 10.63468,-2.18882c4.34352,1.35876 6.63151,7.00681 6.63151,7.00681z" fill="url(#color-15)" stroke-width="0" stroke-linecap="round"/><path d="M208.22609,102.55431l0.97963,-3.71469" fill="#343434" stroke-width="0" stroke-linecap="round"/><path d="M211.82526,102.69335l0.85389,-2.63538" fill="#585858" stroke-width="0" stroke-linecap="round"/><path d="M204.87392,101.09657l0.73456,-2.75601" fill="#343434" stroke-width="0" stroke-linecap="round"/><path d="M198.08232,109.54882l51.9547,18.35719l0.2059,3.18951l-52.42836,-18.4695c0,0 -1.51875,-1.6208 -1.48604,-2.093z" fill="#1f180f" stroke-width="0.5" stroke-linecap="butt"/></g></g><path d="M228.1465,123.53931c0.01333,-2.1314 2.06853,-3.8476 4.5904,-3.83326c2.52187,0.01434 4.55546,1.75382 4.54213,3.8852c-0.01333,2.1314 -2.06851,3.84759 -4.5904,3.83325c-2.52187,-0.01434 -4.55546,-1.75381 -4.54213,-3.88519z" fill="#000000" stroke="#000000" stroke-width="1.5" stroke-linecap="butt"/><path d="M240.9792,127.05908c0.40258,-2.005 2.56312,-3.26209 4.82573,-2.80779c2.2626,0.4543 3.77045,2.44796 3.36786,4.45295c-0.40258,2.005 -2.56313,3.26209 -4.82572,2.80779c-2.2626,-0.4543 -3.77046,-2.44797 -3.36788,-4.45296z" fill="#000000" stroke="#000000" stroke-width="1.5" stroke-linecap="butt"/><path d="M230.47296,142.92917l-0.41121,-2.93563c0,0 3.8657,0.68876 5.75927,0.40397c2.10923,-0.31722 6.31899,-2.22056 6.31899,-2.22056l0.42835,3.05794c0,0 -3.60418,1.5026 -5.52351,1.77145c-2.09677,0.29371 -6.5719,-0.07717 -6.5719,-0.07717z" fill="url(#color-16)" stroke="#000000" stroke-width="1" stroke-linecap="butt"/><path d="M222.44826,157.35136c0,0 -2.56382,-0.8416 -3.30011,-2.0668c-0.6911,-1.15 -1.9104,-3.70338 -1.9104,-3.70338c0,0 0.29009,-4.47323 1.12683,-4.63767c1.20586,-0.23698 4.30208,3.7406 4.30208,3.7406c0,0 4.96032,0.17574 5.19257,1.35748c0.2748,1.39826 -1.32251,4.50628 -1.32251,4.50628z" fill="url(#color-17)" stroke="#000000" stroke-width="1.5" stroke-linecap="butt"/><path d="M255.26752,157.19661c0,0 -2.61416,0.66907 -3.89376,0.03201c-1.20107,-0.59797 -3.60211,-2.0951 -3.60211,-2.0951c0,0 -2.16081,-3.92745 -1.54377,-4.51603c0.88925,-0.84824 5.63859,0.84041 5.63859,0.84041c0,0 4.21038,-2.9245 5.32752,-2.42604c1.0109,0.45106 0.68851,4.88884 0.68851,4.88884z" fill="url(#color-18)" stroke="#000000" stroke-width="1.5" stroke-linecap="butt"/></g></g></svg>