<svg version="1.1" xmlns="http://www.w3.org/2000/svg" xmlns:xlink="http://www.w3.org/1999/xlink" width="263.90915" height="75.59275" viewBox="0,0,263.90915,75.59275"><g transform="translate(-75.34742,-168.59147)"><g data-paper-data="{&quot;isPaintingLayer&quot;:true}" fill-rule="nonzero" stroke-linejoin="miter" stroke-miterlimit="10" stroke-dasharray="" stroke-dashoffset="0" style="mix-blend-mode: normal"><g><path d="M78.10932,169.34147l3.44688,1.31155l-3.34618,0.00469" fill="none" stroke="#000000" stroke-width="1.5" stroke-linecap="round"/><path d="M78.21002,171.8775l3.34617,0.00468l-3.44688,1.31154" data-paper-data="{&quot;index&quot;:null}" fill="none" stroke="#000000" stroke-width="1.5" stroke-linecap="round"/><path d="M79.63496,170.4617l1.55358,0.54533l-1.50819,0.04792" fill="none" stroke="#630000" stroke-width="1" stroke-linecap="round"/><path d="M79.68036,171.60473l1.50818,0.04792l-1.55358,0.54533" data-paper-data="{&quot;index&quot;:null}" fill="none" stroke="#630000" stroke-width="1" stroke-linecap="round"/><path d="M79.54656,170.20859v2.26532h-3.80797v-2.26532z" fill="#4d0000" stroke="#000000" stroke-width="0.75" stroke-linecap="butt"/></g><g><path d="M78.17403,174.65627l3.44688,1.31155l-3.34617,0.00469" fill="none" stroke="#000000" stroke-width="1.5" stroke-linecap="round"/><path d="M78.27475,177.1923l3.34617,0.00468l-3.44688,1.31155" data-paper-data="{&quot;index&quot;:null}" fill="none" stroke="#000000" stroke-width="1.5" stroke-linecap="round"/><path d="M79.69969,175.7765l1.55358,0.54533l-1.50819,0.04792" fill="none" stroke="#630000" stroke-width="1" stroke-linecap="round"/><path d="M79.74508,176.91953l1.50819,0.04792l-1.55358,0.54533" data-paper-data="{&quot;index&quot;:null}" fill="none" stroke="#630000" stroke-width="1" stroke-linecap="round"/><path d="M79.61129,175.52338v2.26533h-3.80797v-2.26533z" fill="#4d0000" stroke="#000000" stroke-width="0.75" stroke-linecap="butt"/></g><g><path d="M78.19022,185.35124l3.44688,1.31154l-3.34617,0.00468" fill="none" stroke="#000000" stroke-width="1.5" stroke-linecap="round"/><path d="M78.29093,187.88725l3.34616,0.00468l-3.44688,1.31155" data-paper-data="{&quot;index&quot;:null}" fill="none" stroke="#000000" stroke-width="1.5" stroke-linecap="round"/><path d="M79.71587,186.47145l1.55358,0.54533l-1.50819,0.04792" fill="none" stroke="#630000" stroke-width="1" stroke-linecap="round"/><path d="M79.76126,187.61448l1.50819,0.04792l-1.55358,0.54533" data-paper-data="{&quot;index&quot;:null}" fill="none" stroke="#630000" stroke-width="1" stroke-linecap="round"/><path d="M79.62747,186.21834v2.26533h-3.80797v-2.26532z" fill="#4d0000" stroke="#000000" stroke-width="0.75" stroke-linecap="butt"/></g><g><path d="M78.17403,190.66603l3.44688,1.31155l-3.34617,0.00469" fill="none" stroke="#000000" stroke-width="1.5" stroke-linecap="round"/><path d="M78.27475,193.20206l3.34617,0.00468l-3.44688,1.31154" data-paper-data="{&quot;index&quot;:null}" fill="none" stroke="#000000" stroke-width="1.5" stroke-linecap="round"/><path d="M79.69968,191.78625l1.55358,0.54533l-1.50818,0.04792" fill="none" stroke="#630000" stroke-width="1" stroke-linecap="round"/><path d="M79.74508,192.92928l1.50818,0.04793l-1.55358,0.54533" data-paper-data="{&quot;index&quot;:null}" fill="none" stroke="#630000" stroke-width="1" stroke-linecap="round"/><path d="M79.61128,191.53314v2.26533h-3.80797v-2.26532z" fill="#4d0000" stroke="#000000" stroke-width="0.75" stroke-linecap="butt"/></g><g><path d="M78.12549,180.03643l3.44688,1.31154l-3.34617,0.00469" fill="none" stroke="#000000" stroke-width="1.5" stroke-linecap="round"/><path d="M78.22621,182.57244l3.34616,0.00468l-3.44688,1.31155" data-paper-data="{&quot;index&quot;:null}" fill="none" stroke="#000000" stroke-width="1.5" stroke-linecap="round"/><path d="M79.65114,181.15664l1.55358,0.54533l-1.50818,0.04792" fill="none" stroke="#630000" stroke-width="1" stroke-linecap="round"/><path d="M79.69654,182.29968l1.50818,0.04792l-1.55358,0.54533" data-paper-data="{&quot;index&quot;:null}" fill="none" stroke="#630000" stroke-width="1" stroke-linecap="round"/><path d="M79.56274,180.90354v2.26532h-3.80797v-2.26533z" fill="#4d0000" stroke="#000000" stroke-width="0.75" stroke-linecap="butt"/></g><g><path d="M78.10932,196.0244l3.44688,1.31155l-3.34618,0.00468" fill="none" stroke="#000000" stroke-width="1.5" stroke-linecap="round"/><path d="M78.21003,198.56042l3.34617,0.00468l-3.44688,1.31155" data-paper-data="{&quot;index&quot;:null}" fill="none" stroke="#000000" stroke-width="1.5" stroke-linecap="round"/><path d="M79.63496,197.14462l1.55358,0.54533l-1.50818,0.04792" fill="none" stroke="#630000" stroke-width="1" stroke-linecap="round"/><path d="M79.68035,198.28766l1.50819,0.04792l-1.55358,0.54533" data-paper-data="{&quot;index&quot;:null}" fill="none" stroke="#630000" stroke-width="1" stroke-linecap="round"/><path d="M79.54656,196.89152v2.26532h-3.80797v-2.26533z" fill="#4d0000" stroke="#000000" stroke-width="0.75" stroke-linecap="butt"/></g><g><path d="M78.09313,201.33921l3.44688,1.31154l-3.34617,0.00468" fill="none" stroke="#000000" stroke-width="1.5" stroke-linecap="round"/><path d="M78.19385,203.87522l3.34616,0.00468l-3.44689,1.31155" data-paper-data="{&quot;index&quot;:null}" fill="none" stroke="#000000" stroke-width="1.5" stroke-linecap="round"/><path d="M79.61878,202.45943l1.55358,0.54533l-1.50819,0.04792" fill="none" stroke="#630000" stroke-width="1" stroke-linecap="round"/><path d="M79.66417,203.60245l1.50819,0.04792l-1.55358,0.54533" data-paper-data="{&quot;index&quot;:null}" fill="none" stroke="#630000" stroke-width="1" stroke-linecap="round"/><path d="M79.53038,202.20631v2.26533h-3.80796v-2.26533z" fill="#4d0000" stroke="#000000" stroke-width="0.75" stroke-linecap="butt"/></g><g><path d="M78.09313,206.91531l3.44688,1.31155l-3.34617,0.00468" fill="none" stroke="#000000" stroke-width="1.5" stroke-linecap="round"/><path d="M78.19384,209.45133l3.34617,0.00468l-3.44689,1.31155" data-paper-data="{&quot;index&quot;:null}" fill="none" stroke="#000000" stroke-width="1.5" stroke-linecap="round"/><path d="M79.61878,208.03552l1.55358,0.54534l-1.50819,0.04792" fill="none" stroke="#630000" stroke-width="1" stroke-linecap="round"/><path d="M79.66418,209.17855l1.50819,0.04792l-1.55358,0.54533" data-paper-data="{&quot;index&quot;:null}" fill="none" stroke="#630000" stroke-width="1" stroke-linecap="round"/><path d="M79.53038,207.78241v2.26533h-3.80796v-2.26532z" fill="#4d0000" stroke="#000000" stroke-width="0.75" stroke-linecap="butt"/></g><g><path d="M331.8105,200.34147l3.44688,1.36432l-3.34618,0.00487" fill="none" stroke="#000000" stroke-width="1.5" stroke-linecap="round"/><path d="M331.91121,202.97952l3.34616,0.00487l-3.44688,1.36432" data-paper-data="{&quot;index&quot;:null}" fill="none" stroke="#000000" stroke-width="1.5" stroke-linecap="round"/><path d="M333.33614,201.50676l1.55358,0.56727l-1.50818,0.04985" fill="none" stroke="#630000" stroke-width="1" stroke-linecap="round"/><path d="M333.38154,202.69578l1.50818,0.04985l-1.55358,0.56727" data-paper-data="{&quot;index&quot;:null}" fill="none" stroke="#630000" stroke-width="1" stroke-linecap="round"/><path d="M333.24775,201.24347v2.35646h-3.80796v-2.35646z" fill="#4d0000" stroke="#000000" stroke-width="0.75" stroke-linecap="butt"/></g><g><path d="M331.87523,205.8701l3.44688,1.36432l-3.34618,0.00487" fill="none" stroke="#000000" stroke-width="1.5" stroke-linecap="round"/><path d="M331.97594,208.50815l3.34617,0.00487l-3.44688,1.36432" data-paper-data="{&quot;index&quot;:null}" fill="none" stroke="#000000" stroke-width="1.5" stroke-linecap="round"/><path d="M333.40087,207.03539l1.55358,0.56727l-1.50818,0.04985" fill="none" stroke="#630000" stroke-width="1" stroke-linecap="round"/><path d="M333.44627,208.22441l1.50818,0.04985l-1.55358,0.56727" data-paper-data="{&quot;index&quot;:null}" fill="none" stroke="#630000" stroke-width="1" stroke-linecap="round"/><path d="M333.31247,206.7721v2.35647h-3.80797v-2.35647z" fill="#4d0000" stroke="#000000" stroke-width="0.75" stroke-linecap="butt"/></g><g><path d="M331.74578,194.81285l3.44688,1.36431l-3.34618,0.00487" fill="none" stroke="#000000" stroke-width="1.5" stroke-linecap="round"/><path d="M331.84649,197.45089l3.34616,0.00487l-3.44688,1.36432" data-paper-data="{&quot;index&quot;:null}" fill="none" stroke="#000000" stroke-width="1.5" stroke-linecap="round"/><path d="M333.27143,195.97812l1.55358,0.56727l-1.50819,0.04986" fill="none" stroke="#630000" stroke-width="1" stroke-linecap="round"/><path d="M333.31682,197.16715l1.50819,0.04985l-1.55358,0.56727" data-paper-data="{&quot;index&quot;:null}" fill="none" stroke="#630000" stroke-width="1" stroke-linecap="round"/><path d="M333.18302,195.71484v2.35646h-3.80796v-2.35646z" fill="#4d0000" stroke="#000000" stroke-width="0.75" stroke-linecap="butt"/></g><g><path d="M331.8914,216.99534l3.44688,1.36432l-3.34617,0.00487" fill="none" stroke="#000000" stroke-width="1.5" stroke-linecap="round"/><path d="M331.99212,219.63339l3.34616,0.00487l-3.44688,1.36432" data-paper-data="{&quot;index&quot;:null}" fill="none" stroke="#000000" stroke-width="1.5" stroke-linecap="round"/><path d="M333.41706,218.16062l1.55358,0.56727l-1.50819,0.04985" fill="none" stroke="#630000" stroke-width="1" stroke-linecap="round"/><path d="M333.46245,219.34964l1.50819,0.04985l-1.55358,0.56727" data-paper-data="{&quot;index&quot;:null}" fill="none" stroke="#630000" stroke-width="1" stroke-linecap="round"/><path d="M333.32865,217.89733v2.35646h-3.80797v-2.35646z" fill="#4d0000" stroke="#000000" stroke-width="0.75" stroke-linecap="butt"/></g><g><path d="M331.87523,222.52397l3.44688,1.36432l-3.34618,0.00487" fill="none" stroke="#000000" stroke-width="1.5" stroke-linecap="round"/><path d="M331.97594,225.16202l3.34617,0.00487l-3.44688,1.36432" data-paper-data="{&quot;index&quot;:null}" fill="none" stroke="#000000" stroke-width="1.5" stroke-linecap="round"/><path d="M333.40087,223.68925l1.55358,0.56727l-1.50818,0.04985" fill="none" stroke="#630000" stroke-width="1" stroke-linecap="round"/><path d="M333.44627,224.87827l1.50818,0.04986l-1.55358,0.56727" data-paper-data="{&quot;index&quot;:null}" fill="none" stroke="#630000" stroke-width="1" stroke-linecap="round"/><path d="M333.31247,223.42596v2.35647h-3.80797v-2.35647z" fill="#4d0000" stroke="#000000" stroke-width="0.75" stroke-linecap="butt"/></g><g><path d="M331.82668,211.46671l3.44688,1.36432l-3.34617,0.00487" fill="none" stroke="#000000" stroke-width="1.5" stroke-linecap="round"/><path d="M331.9274,214.10476l3.34616,0.00487l-3.44688,1.36431" data-paper-data="{&quot;index&quot;:null}" fill="none" stroke="#000000" stroke-width="1.5" stroke-linecap="round"/><path d="M333.35233,212.63199l1.55358,0.56727l-1.50819,0.04985" fill="none" stroke="#630000" stroke-width="1" stroke-linecap="round"/><path d="M333.39773,213.82101l1.50818,0.04986l-1.55358,0.56727" data-paper-data="{&quot;index&quot;:null}" fill="none" stroke="#630000" stroke-width="1" stroke-linecap="round"/><path d="M333.26393,212.3687v2.35646h-3.80797v-2.35646z" fill="#4d0000" stroke="#000000" stroke-width="0.75" stroke-linecap="butt"/></g><g><path d="M331.8105,228.09791l3.44688,1.36432l-3.34618,0.00487" fill="none" stroke="#000000" stroke-width="1.5" stroke-linecap="round"/><path d="M331.91121,230.73596l3.34616,0.00487l-3.44688,1.36432" data-paper-data="{&quot;index&quot;:null}" fill="none" stroke="#000000" stroke-width="1.5" stroke-linecap="round"/><path d="M333.33614,229.2632l1.55358,0.56727l-1.50818,0.04985" fill="none" stroke="#630000" stroke-width="1" stroke-linecap="round"/><path d="M333.38154,230.45222l1.50818,0.04985l-1.55358,0.56727" data-paper-data="{&quot;index&quot;:null}" fill="none" stroke="#630000" stroke-width="1" stroke-linecap="round"/><path d="M333.24775,228.99991v2.35646h-3.80796v-2.35646z" fill="#4d0000" stroke="#000000" stroke-width="0.75" stroke-linecap="butt"/></g><g><path d="M331.7943,233.62654l3.44689,1.36432l-3.34617,0.00487" fill="none" stroke="#000000" stroke-width="1.5" stroke-linecap="round"/><path d="M331.89503,236.26459l3.34616,0.00487l-3.44689,1.36432" data-paper-data="{&quot;index&quot;:null}" fill="none" stroke="#000000" stroke-width="1.5" stroke-linecap="round"/><path d="M333.31997,234.79183l1.55358,0.56727l-1.50819,0.04985" fill="none" stroke="#630000" stroke-width="1" stroke-linecap="round"/><path d="M333.36536,235.98085l1.50819,0.04985l-1.55358,0.56727" data-paper-data="{&quot;index&quot;:null}" fill="none" stroke="#630000" stroke-width="1" stroke-linecap="round"/><path d="M333.23157,234.52854v2.35647h-3.80797v-2.35647z" fill="#4d0000" stroke="#000000" stroke-width="0.75" stroke-linecap="butt"/></g><g><path d="M331.7943,239.42698l3.44689,1.36432l-3.34617,0.00487" fill="none" stroke="#000000" stroke-width="1.5" stroke-linecap="round"/><path d="M331.89503,242.06503l3.34616,0.00487l-3.44689,1.36432" data-paper-data="{&quot;index&quot;:null}" fill="none" stroke="#000000" stroke-width="1.5" stroke-linecap="round"/><path d="M333.31997,240.59227l1.55358,0.56727l-1.50819,0.04985" fill="none" stroke="#630000" stroke-width="1" stroke-linecap="round"/><path d="M333.36536,241.78129l1.50819,0.04985l-1.55358,0.56727" data-paper-data="{&quot;index&quot;:null}" fill="none" stroke="#630000" stroke-width="1" stroke-linecap="round"/><path d="M333.23157,240.32898v2.35646h-3.80797v-2.35646z" fill="#4d0000" stroke="#000000" stroke-width="0.75" stroke-linecap="butt"/></g></g></g></svg>