<svg version="1.1" xmlns="http://www.w3.org/2000/svg" xmlns:xlink="http://www.w3.org/1999/xlink" width="611.26" height="510.39198" viewBox="0,0,611.26,510.39198"><defs><linearGradient x1="240" y1="180.00001" x2="240" y2="180.00001" gradientUnits="userSpaceOnUse" id="color-1"><stop offset="0" stop-color="#180902" stop-opacity="0"/><stop offset="1" stop-color="#180902"/></linearGradient></defs><g transform="translate(122.90808,144.05405)"><g data-paper-data="{&quot;isPaintingLayer&quot;:true}" fill-rule="nonzero" stroke-linejoin="miter" stroke-miterlimit="10" stroke-dasharray="" stroke-dashoffset="0" style="mix-blend-mode: normal"><path d="" data-paper-data="{&quot;index&quot;:null}" fill="url(#color-1)" stroke="none" stroke-width="0" stroke-linecap="butt"/><path d="M301.49579,293.64284v71h-423.15387v-71z" data-paper-data="{&quot;index&quot;:null}" fill="#000000" stroke="#000000" stroke-width="2.5" stroke-linecap="butt"/><path d="M484.33728,216.67814v147.23123h-84.08408v-147.23123z" data-paper-data="{&quot;index&quot;:null}" fill="#000000" stroke="#000000" stroke-width="2.5" stroke-linecap="butt"/><path d="M184.43638,305.42573h11.91667v11.58333h-11.91667z" data-paper-data="{&quot;index&quot;:null}" fill="#000000" stroke="#000000" stroke-width="0" stroke-linecap="butt"/><path d="M485.00887,-90.64525v238.28048h-171.17117v-238.28048z" data-paper-data="{&quot;index&quot;:null}" fill="#000000" stroke="#000000" stroke-width="0" stroke-linecap="butt"/><path d="M265.97619,-90.53413v108.15464h-385.01123v-108.15464z" data-paper-data="{&quot;index&quot;:null}" fill="#000000" stroke="#000000" stroke-width="0" stroke-linecap="butt"/><path d="M167.28054,219.63368v-73.57357h316.31832v73.57357z" fill="#000000" stroke="#000000" stroke-width="2.5" stroke-linecap="butt"/><path d="M117.12297,220.83748v-169.72372h52.5976v169.72372z" fill="#000000" stroke="#000000" stroke-width="0" stroke-linecap="butt"/><path d="M61.47619,366.33793v-9.90391h204.5v9.90391z" fill="#000000" stroke="#000000" stroke-width="0" stroke-linecap="butt"/><path d="M-122.75919,301.71475v-307.80781h163.13213v307.80781z" fill="#000000" stroke="#000000" stroke-width="0" stroke-linecap="butt"/><g fill="#000000" stroke="#000000"><g><path d="M268.70072,145.50081v-23.09774h23.09774v23.09774z" stroke-width="2.5" stroke-linecap="butt"/><path d="M270.44048,143.64225v-18.83334h18.83334v18.83334z" stroke-width="3" stroke-linecap="butt"/><path d="M288.02382,142.55893l-16.58334,-16.58333" stroke-width="3" stroke-linecap="round"/><path d="M288.19047,125.9756l-16.58334,16.58333" data-paper-data="{&quot;index&quot;:null}" stroke-width="3" stroke-linecap="round"/></g><g><path d="M292.70073,145.50081v-23.09774h23.09774v23.09774z" stroke-width="2.5" stroke-linecap="butt"/><path d="M294.44048,143.64225v-18.83334h18.83334v18.83334z" stroke-width="3" stroke-linecap="butt"/><path d="M312.02382,142.55893l-16.58334,-16.58333" stroke-width="3" stroke-linecap="round"/><path d="M312.19047,125.9756l-16.58334,16.58333" data-paper-data="{&quot;index&quot;:null}" stroke-width="3" stroke-linecap="round"/></g><g><path d="M280.70072,121.16749v-23.09774h23.09774v23.09774z" stroke-width="2.5" stroke-linecap="butt"/><path d="M282.44048,119.30892v-18.83334h18.83334v18.83334z" stroke-width="3" stroke-linecap="butt"/><path d="M283.44048,101.64226l16.58334,16.58333" stroke-width="3" stroke-linecap="round"/><path d="M283.60713,118.2256l16.58334,-16.58333" data-paper-data="{&quot;index&quot;:null}" stroke-width="3" stroke-linecap="round"/></g></g><g fill="#000000" stroke="#000000"><g stroke-width="3" stroke-linecap="round"><path d=""/><path d=""/></g><path d="M214.98058,86.99906v-5.22744h36.5v5.22744z" stroke-width="2.5" stroke-linecap="butt"/><g stroke-width="2.5" stroke-linecap="butt"><path d="M228.72354,24.77307v-9.50104h8v9.50104z"/><path d="M219.67473,33.26176c0,-6.22207 5.59644,-11.26604 12.5,-11.26604c6.90356,0 12.5,5.04397 12.5,11.26604c0,6.22207 -5.59644,11.26605 -12.5,11.26605c-6.90356,0 -12.5,-5.04398 -12.5,-11.26605z"/></g><g stroke-width="4" stroke-linecap="round"><g><path d="M236.94484,29.26379l-9.79847,8.8312"/><path d="M236.88061,38.26878l-9.79848,-8.83121"/></g><g><path d="M231.92811,27.16494v12.48922"/><path d="M238.94754,33.57347h-13.85714"/></g></g></g><g fill="#000000" stroke="#000000"><g stroke-width="3" stroke-linecap="round"><path d=""/><path d=""/></g><path d="M45.48058,152.49908v-5.8h36.5v5.8z" stroke-width="2.5" stroke-linecap="butt"/><g stroke-width="2.5" stroke-linecap="butt"><path d="M60.72354,25.31372v-10.54167h8v10.54167z"/><path d="M51.67473,34.73216c0,-6.90356 5.59644,-12.5 12.5,-12.5c6.90356,0 12.5,5.59644 12.5,12.5c0,6.90356 -5.59644,12.5 -12.5,12.5c-6.90356,0 -12.5,-5.59644 -12.5,-12.5z"/></g><g stroke-width="4" stroke-linecap="round"><g><path d="M59.14637,40.09476l9.79847,-9.79847"/><path d="M68.88061,40.28758l-9.79848,-9.79848"/></g><g><path d="M63.92811,27.96756v13.85715"/><path d="M57.0904,35.07799h13.85714"/></g></g></g><path d="M37.37,303.72661c0,0 4.94879,-23.54323 7.04841,-27.95533c0.88479,-1.8593 18.00378,-24.69016 18.00378,-24.69016l4.85031,28.65725l-15.33332,26.33745z" data-paper-data="{&quot;index&quot;:null}" fill="#000000" stroke="#000000" stroke-width="2.5" stroke-linecap="butt"/><path d="M403.85957,210.02432c0,0 -6.57229,23.14258 -8.97334,27.39817c-1.0118,1.79333 -19.67542,23.37987 -19.67542,23.37987l-2.60747,-27.44436l18.36605,-26.9297z" data-paper-data="{&quot;index&quot;:null}" fill="#000000" stroke="#000000" stroke-width="2.5" stroke-linecap="butt"/><g data-paper-data="{&quot;index&quot;:null}" fill="#000000" stroke="#000000"><path d="M125.45078,290.14216c0,0 -3.58274,-13.28762 -4.47519,-17.35147c-0.45313,-2.06338 -0.52481,-5.41655 -0.52481,-5.41655h31.81802c0,0 0.02479,3.1451 -0.51445,5.48365c-0.95736,4.15183 -4.73555,17.28436 -4.73555,17.28436z" stroke-width="2.5" stroke-linecap="butt"/><path d="M126.50589,289.14216c0,0 -3.21277,-11.7954 -4.01306,-15.40288c-0.40634,-1.83166 -0.47062,-4.80827 -0.47062,-4.80827h28.53232c0,0 0.02223,2.7919 -0.46133,4.86783c-0.8585,3.68558 -4.24653,15.34331 -4.24653,15.34331z" stroke-width="0" stroke-linecap="butt"/><path d="M120.07627,273.25568v-5.725h32.55v5.725z" stroke-width="2.5" stroke-linecap="butt"/><path d="M140.91678,289.75479l5,-15.71428" stroke-width="2.5" stroke-linecap="round"/><path d="M145.91388,292.83074c-2.14011,0 -3.875,-1.73489 -3.875,-3.875c0,-2.14011 1.73489,-3.875 3.875,-3.875c2.14011,0 3.875,1.73489 3.875,3.875c0,2.14011 -1.73489,3.875 -3.875,3.875z" stroke-width="2.5" stroke-linecap="butt"/><path d="M126.64893,274.20124l5.125,15.83929" data-paper-data="{&quot;index&quot;:null}" stroke-width="2.5" stroke-linecap="round"/><path d="M126.85135,292.62235c-2.17462,0 -3.9375,-1.76288 -3.9375,-3.9375c0,-2.17462 1.76288,-3.9375 3.9375,-3.9375c2.17462,0 3.9375,1.76288 3.9375,3.9375c0,2.17462 -1.76288,3.9375 -3.9375,3.9375z" stroke-width="2.5" stroke-linecap="butt"/><path d="M144.34528,279.18336h-15.42857" stroke-width="2.5" stroke-linecap="round"/><path d="M141.91673,284.7229h-10.57143" stroke-width="2.5" stroke-linecap="round"/></g><path d="M-116.997,-26.11408v-117.93997h605.34892v117.93997z" fill="#000000" stroke="#000000" stroke-width="NaN" stroke-linecap="butt"/><g><g fill="none" stroke="#060606" stroke-width="3" stroke-linecap="round"><path d=""/><path d=""/></g><g fill="#000000" stroke="#000000" stroke-width="2.5" stroke-linecap="butt"><path d="M322.4803,228.01041v-10.54167h8v10.54167z"/><path d="M313.43149,237.42886c0,-6.90356 5.59644,-12.5 12.5,-12.5c6.90356,0 12.5,5.59644 12.5,12.5c0,6.90356 -5.59644,12.5 -12.5,12.5c-6.90356,0 -12.5,-5.59644 -12.5,-12.5z"/></g><g fill="#000000" stroke="#000000" stroke-width="4" stroke-linecap="round"><g><path d="M330.7016,232.99299l-9.79847,9.79847"/><path d="M330.63737,242.98427l-9.79848,-9.79848"/></g><g><path d="M325.68487,244.52142v-13.85715"/><path d="M318.84716,237.77469h13.85714"/></g></g></g><path d="M291.86843,58.01882v-5.5h26.90476v5.5z" fill="#000000" stroke="#000000" stroke-width="2" stroke-linecap="butt"/><path d="M290.52319,53.18549v-6.5h26.69236v6.5z" fill="#000000" stroke="#000000" stroke-width="2.5" stroke-linecap="butt"/><path d="M308.23735,347.19579v-5.8h36.5v5.8z" fill="#000000" stroke="#000000" stroke-width="2.5" stroke-linecap="butt"/></g></g></svg>