<svg version="1.1" xmlns="http://www.w3.org/2000/svg" xmlns:xlink="http://www.w3.org/1999/xlink" width="103.95239" height="39.67521" viewBox="0,0,103.95239,39.67521"><g transform="translate(-193.70116,-160.13578)"><g data-paper-data="{&quot;isPaintingLayer&quot;:true}" fill-rule="nonzero" stroke-linecap="butt" stroke-linejoin="miter" stroke-miterlimit="10" stroke-dasharray="" stroke-dashoffset="0" style="mix-blend-mode: normal"><path d="M206.8225,179.97629c0,-2.9123 -7.83559,-6.86638 -9.99692,-10.38182c-1.66423,-2.70689 1.37557,-4.7269 1.37557,-4.7269c0,0 28.15677,3.23938 40.59319,3.23938c12.46945,0 37.45803,-3.23938 37.45803,-3.23938c0,0 2.99265,2.74327 1.37323,5.77706c-1.77803,3.33095 -5.68842,6.72614 -5.68842,9.33166c0,2.28889 5.68334,7.65821 7.19315,10.50342c1.85856,3.50241 -2.87796,4.65281 -2.87796,4.65281c0,0 -25.48012,-2.87945 -38.10658,-2.87945c-12.26924,0 -37.94463,2.87945 -37.94463,2.87945c0,0 -3.87521,-3.0671 -2.31386,-5.32399c0,0 8.93522,-6.94545 8.93522,-9.83224z" fill="none" stroke="#000000" stroke-width="9"/><path d="M200.7276,189.8085c2.21372,-3.19991 6.93522,-6.94544 6.93522,-9.83223c0,-2.9123 -5.50225,-6.86638 -7.66358,-10.38182c-1.66423,-2.70689 2.37556,-4.7269 2.37556,-4.7269c0,0 24.82343,3.23938 37.25985,3.23938c12.46945,0 37.45803,-3.23938 37.45803,-3.23938c0,0 2.99265,2.74327 1.37323,5.77706c-1.77803,3.33095 -5.68842,6.72614 -5.68842,9.33166c0,2.28889 5.68334,7.65821 7.19315,10.50342c1.85856,3.50241 -2.87796,4.65281 -2.87796,4.65281c0,0 -25.48012,-2.87945 -38.10658,-2.87945c-12.26924,0 -36.6113,2.87945 -36.6113,2.87945c0,0 -3.20854,-3.0671 -1.64719,-5.32399z" fill="#7f7f7f" stroke="#7f2c2c" stroke-width="3"/><text transform="translate(209.19194,185.19158) scale(0.36131,0.43263)" font-size="40" xml:space="preserve" fill="#000000" fill-rule="nonzero" stroke="#000000" stroke-width="3" stroke-linecap="butt" stroke-linejoin="miter" stroke-miterlimit="10" stroke-dasharray="" stroke-dashoffset="0" font-family="Handwriting" font-weight="normal" text-anchor="start" style="mix-blend-mode: normal"><tspan x="0" dy="0">Load Save</tspan></text><path d="M274.09416,179.59203l9.12805,-9.12805l9.12804,9.12805l-9.12804,9.12805z" fill="#000000" stroke="#000000" stroke-width="7.5"/><path d="M273.84416,179.59203l9.12805,-9.12805l9.12804,9.12805l-9.12804,9.12805z" fill="#000000" stroke="#7f2c2c" stroke-width="2.5"/></g></g></svg>