<svg version="1.1" xmlns="http://www.w3.org/2000/svg" xmlns:xlink="http://www.w3.org/1999/xlink" width="32.60556" height="24.44404" viewBox="0,0,32.60556,24.44404"><defs><linearGradient x1="240" y1="166.27798" x2="240" y2="170.08745" gradientUnits="userSpaceOnUse" id="color-1"><stop offset="0" stop-color="#b21212"/><stop offset="1" stop-color="#680a0a"/></linearGradient><linearGradient x1="239.8477" y1="183.77992" x2="239.8477" y2="188.97202" gradientUnits="userSpaceOnUse" id="color-2"><stop offset="0" stop-color="#331313"/><stop offset="1" stop-color="#2f0808"/></linearGradient></defs><g transform="translate(-223.69722,-165.52798)"><g data-paper-data="{&quot;isPaintingLayer&quot;:true}" fill-rule="nonzero" stroke="#000000" stroke-linecap="butt" stroke-linejoin="miter" stroke-miterlimit="10" stroke-dasharray="" stroke-dashoffset="0" style="mix-blend-mode: normal"><path d="M224.44722,170.08745v-3.80947h31.10556v3.80947z" fill="url(#color-1)" stroke-width="1.5"/><path d="M246.89703,173.46841c0,1.71312 -3.05333,3.60783 -6.81978,3.60783c-3.76646,0 -6.81978,-1.89472 -6.81978,-3.60783c0,-1.71312 3.05333,-3.60783 6.81978,-3.60783c3.76646,0 6.81978,1.89473 6.81978,3.60783z" fill="none" stroke-width="1.25"/><path d="M246.86797,180.28681c0,1.59441 -3.05333,3.35783 -6.81978,3.35783c-3.76646,0 -6.81978,-1.76344 -6.81978,-3.35783c0,-1.59441 3.05333,-3.35783 6.81978,-3.35783c3.76646,0 6.81978,1.76343 6.81978,3.35783z" fill="none" stroke-width="1.25"/><path d="M230.19284,188.97202v-5.1921h19.30972v5.1921z" fill="url(#color-2)" stroke-width="2"/></g></g></svg>