<svg version="1.1" xmlns="http://www.w3.org/2000/svg" xmlns:xlink="http://www.w3.org/1999/xlink" width="485.90397" height="364.6944" viewBox="0,0,485.90397,364.6944"><defs><radialGradient cx="205.69413" cy="272.25246" r="39.54168" gradientUnits="userSpaceOnUse" id="color-1"><stop offset="0" stop-color="#ff6200"/><stop offset="1" stop-color="#ff6200" stop-opacity="0"/></radialGradient><radialGradient cx="224.44413" cy="258.25246" r="45.375" gradientUnits="userSpaceOnUse" id="color-2"><stop offset="0" stop-color="#0035a6"/><stop offset="1" stop-color="#0035a6" stop-opacity="0"/></radialGradient><linearGradient x1="51.36344" y1="242.08341" x2="51.36344" y2="264.41675" gradientUnits="userSpaceOnUse" id="color-3"><stop offset="0" stop-color="#023fc3"/><stop offset="1" stop-color="#020daf"/></linearGradient><linearGradient x1="149.00789" y1="318.67246" x2="149.00789" y2="341.0058" gradientUnits="userSpaceOnUse" id="color-4"><stop offset="0" stop-color="#023fc3"/><stop offset="1" stop-color="#020daf"/></linearGradient><linearGradient x1="188.70314" y1="167.24381" x2="188.70314" y2="189.57715" gradientUnits="userSpaceOnUse" id="color-5"><stop offset="0" stop-color="#023fc3"/><stop offset="1" stop-color="#020daf"/></linearGradient><linearGradient x1="343.41744" y1="167.33666" x2="343.41744" y2="189.67" gradientUnits="userSpaceOnUse" id="color-6"><stop offset="0" stop-color="#023fc3"/><stop offset="1" stop-color="#020daf"/></linearGradient><linearGradient x1="343.36741" y1="109.79372" x2="343.36741" y2="132.12706" gradientUnits="userSpaceOnUse" id="color-7"><stop offset="0" stop-color="#023fc3"/><stop offset="1" stop-color="#020daf"/></linearGradient><linearGradient x1="118.16741" y1="192.79378" x2="118.16741" y2="215.12712" gradientUnits="userSpaceOnUse" id="color-8"><stop offset="0" stop-color="#023fc3"/><stop offset="1" stop-color="#0211b1"/></linearGradient><linearGradient x1="118.16741" y1="41.79388" x2="118.16741" y2="64.12722" gradientUnits="userSpaceOnUse" id="color-9"><stop offset="0" stop-color="#023fc3"/><stop offset="1" stop-color="#020daf"/></linearGradient><linearGradient x1="203.29244" y1="41.66888" x2="203.29244" y2="64.00222" gradientUnits="userSpaceOnUse" id="color-10"><stop offset="0" stop-color="#024df2"/><stop offset="1" stop-color="#0210cc"/></linearGradient><linearGradient x1="272.79244" y1="5.33542" x2="272.79244" y2="27.66876" gradientUnits="userSpaceOnUse" id="color-11"><stop offset="0" stop-color="#023fc3"/><stop offset="1" stop-color="#020daf"/></linearGradient><linearGradient x1="426.09126" y1="5.37469" x2="426.09126" y2="27.70803" gradientUnits="userSpaceOnUse" id="color-12"><stop offset="0" stop-color="#023fc3"/><stop offset="1" stop-color="#020daf"/></linearGradient><linearGradient x1="224.43881" y1="248.89403" x2="224.43881" y2="267.64403" gradientUnits="userSpaceOnUse" id="color-13"><stop offset="0" stop-color="#023fc3"/><stop offset="1" stop-color="#0217b3"/></linearGradient><radialGradient cx="205.43881" cy="272.21898" r="9.625" gradientUnits="userSpaceOnUse" id="color-14"><stop offset="0" stop-color="#e05600"/><stop offset="1" stop-color="#ff7400"/></radialGradient><linearGradient x1="319.05246" y1="88.54718" x2="319.05246" y2="107.48051" gradientUnits="userSpaceOnUse" id="color-15"><stop offset="0" stop-color="#ff6300"/><stop offset="1" stop-color="#662300"/></linearGradient><radialGradient cx="288.82772" cy="277.39698" r="40.125" gradientUnits="userSpaceOnUse" id="color-16"><stop offset="0" stop-color="#000000"/><stop offset="1" stop-color="#000000"/></radialGradient><radialGradient cx="273.65432" cy="277.84698" r="39.125" gradientUnits="userSpaceOnUse" id="color-17"><stop offset="0" stop-color="#000000"/><stop offset="1" stop-color="#000000"/></radialGradient><linearGradient x1="320.93371" y1="277.02198" x2="320.93371" y2="315.52198" gradientUnits="userSpaceOnUse" id="color-18"><stop offset="0" stop-color="#023fc3"/><stop offset="1" stop-color="#020daf"/></linearGradient><radialGradient cx="281.01452" cy="278.49698" r="39.825" gradientUnits="userSpaceOnUse" id="color-19"><stop offset="0" stop-color="#000000"/><stop offset="1" stop-color="#000000"/></radialGradient><linearGradient x1="280.69588" y1="235.37792" x2="280.69588" y2="246.12792" gradientUnits="userSpaceOnUse" id="color-20"><stop offset="0" stop-color="#023fc3"/><stop offset="1" stop-color="#020daf"/></linearGradient><linearGradient x1="426.34126" y1="147.12476" x2="426.34126" y2="169.4581" gradientUnits="userSpaceOnUse" id="color-21"><stop offset="0" stop-color="#023fc3"/><stop offset="1" stop-color="#020daf"/></linearGradient><linearGradient x1="415.67459" y1="318.67246" x2="415.67459" y2="341.0058" gradientUnits="userSpaceOnUse" id="color-22"><stop offset="0" stop-color="#023fc3"/><stop offset="1" stop-color="#0211b1"/></linearGradient><linearGradient x1="188.77457" y1="109.65797" x2="188.77457" y2="131.99131" gradientUnits="userSpaceOnUse" id="color-23"><stop offset="0" stop-color="#023fc3"/><stop offset="1" stop-color="#020daf"/></linearGradient><linearGradient x1="415.67459" y1="240.95798" x2="415.67459" y2="263.29132" gradientUnits="userSpaceOnUse" id="color-24"><stop offset="0" stop-color="#023fc3"/><stop offset="1" stop-color="#020daf"/></linearGradient></defs><g transform="translate(3.70065,3.20018)"><g data-paper-data="{&quot;isPaintingLayer&quot;:true}" fill-rule="nonzero" stroke-linejoin="miter" stroke-miterlimit="10" stroke-dasharray="" stroke-dashoffset="0" style="mix-blend-mode: normal"><path d="M166.1524,272.25246c0,-21.83826 17.70341,-39.54167 39.54166,-39.54167c21.83826,0 39.54167,17.70341 39.54167,39.54167c0,21.83826 -17.70341,39.54167 -39.54167,39.54167c-21.83826,0 -39.54166,-17.70341 -39.54166,-39.54167z" fill="url(#color-1)" stroke="#383838" stroke-width="0" stroke-linecap="butt"/><path d="M179.06913,258.25246c0,-25.05992 20.31508,-45.375 45.375,-45.375c25.05992,0 45.375,20.31508 45.375,45.375c0,25.05992 -20.31508,45.375 -45.375,45.375c-25.05992,0 -45.375,-20.31508 -45.375,-45.375z" fill="url(#color-2)" stroke="#383838" stroke-width="0" stroke-linecap="butt"/><path d="M403.51978,359.99742v-120h78.68354v120z" data-paper-data="{&quot;index&quot;:null}" fill="#000000" stroke="none" stroke-width="0" stroke-linecap="butt"/><path d="M414.58966,170.06882v-172.19704h66.64312v172.19704z" data-paper-data="{&quot;index&quot;:null}" fill="#000000" stroke="#000000" stroke-width="1" stroke-linecap="butt"/><path d="M415.18225,-1.92777v30.53454h-154.5045v-30.53454z" data-paper-data="{&quot;index&quot;:null}" fill="#000000" stroke="none" stroke-width="0" stroke-linecap="butt"/><path d="M136.81232,360.28277v-42.65694h267.3033v42.65694z" fill="#000000" stroke="none" stroke-width="0" stroke-linecap="butt"/><path d="M63.34584,241.72544v119.76878h-65.78378v-119.76877z" data-paper-data="{&quot;index&quot;:null}" fill="#000000" stroke="none" stroke-width="0" stroke-linecap="butt"/><path d="M62.50763,361.17542v-21.14211h37v21.14211z" fill="#000000" stroke="none" stroke-width="0" stroke-linecap="butt"/><path d="M215.47052,-2.43529v67.53454h-219.17117v-67.53454z" data-paper-data="{&quot;index&quot;:null}" fill="#000000" stroke="none" stroke-width="0" stroke-linecap="butt"/><path d="M-2.49427,216.17744v-155h132.78994v155z" fill="#000000" stroke="none" stroke-width="0" stroke-linecap="butt"/><path d="M214.50767,58.17755v-7h25.33333v7z" fill="#000000" stroke="none" stroke-width="0" stroke-linecap="butt"/><path d="M284.50765,110.67759v-24h71v24z" fill="#000000" stroke="none" stroke-width="0" stroke-linecap="butt"/><path d="M260.50757,318.17735v-85h39v85z" fill="#000000" stroke="none" stroke-width="0" stroke-linecap="butt"/><path d="M299.00757,319.6357v-45.73611h44.5v45.73611z" fill="#000000" stroke="none" stroke-width="0" stroke-linecap="butt"/><path d="M176.50768,190.67748v-82h179v82z" fill="#000000" stroke="none" stroke-width="0" stroke-linecap="butt"/><path d="M348.50771,186.89091v-6.07317h30v6.07317z" fill="#000000" stroke="#000000" stroke-width="0.5" stroke-linecap="butt"/><path d="M389.00771,125.17746v-6h27v6z" fill="#000000" stroke="#000000" stroke-width="0.5" stroke-linecap="butt"/><path d="M224.66948,317.67735v-56.5" fill="none" stroke="#000000" stroke-width="8" stroke-linecap="round"/><path d="M222.81381,288.34398l-16.25,-16.25" fill="none" stroke="#000000" stroke-width="8" stroke-linecap="round"/><path d="M159.37625,187.92341v-6h18v6z" fill="#000000" stroke="#000000" stroke-width="0.5" stroke-linecap="butt"/><path d="M129.06375,149.50663v-5h18v5z" fill="#000000" stroke="#000000" stroke-width="0.5" stroke-linecap="butt"/><path d="M128.536,255.01565v-17h25v17z" fill="#000000" stroke="none" stroke-width="0" stroke-linecap="butt"/><path d="M40.19677,264.41675v-22.33334h22.33334v22.33334z" fill="url(#color-3)" stroke="#000000" stroke-width="2" stroke-linecap="butt"/><path d="M137.84122,341.0058v-22.33334h22.33334v22.33334z" fill="url(#color-4)" stroke="#000000" stroke-width="2" stroke-linecap="butt"/><path d="M177.53647,189.57715v-22.33334h22.33334v22.33334z" fill="url(#color-5)" stroke="#000000" stroke-width="2" stroke-linecap="butt"/><path d="M332.25077,189.67v-22.33334h22.33334v22.33334z" fill="url(#color-6)" stroke="#000000" stroke-width="2" stroke-linecap="butt"/><path d="M332.20074,132.12706v-22.33334h22.33334v22.33334z" fill="url(#color-7)" stroke="#000000" stroke-width="2" stroke-linecap="butt"/><path d="M107.00074,215.12712v-22.33334h22.33334v22.33334z" fill="url(#color-8)" stroke="#000000" stroke-width="2" stroke-linecap="butt"/><path d="M107.00074,64.12722v-22.33334h22.33334v22.33334z" fill="url(#color-9)" stroke="#000000" stroke-width="2" stroke-linecap="butt"/><path d="M192.12577,64.00222v-22.33334h22.33334v22.33334z" fill="url(#color-10)" stroke="#000000" stroke-width="2" stroke-linecap="butt"/><path d="M261.62577,27.66876v-22.33334h22.33334v22.33334z" fill="url(#color-11)" stroke="#000000" stroke-width="2" stroke-linecap="butt"/><path d="M414.92459,27.70803v-22.33334h22.33334v22.33334z" fill="url(#color-12)" stroke="#000000" stroke-width="2" stroke-linecap="butt"/><path d="M224.62527,268.17734v48.9" fill="none" stroke="#b4b4b4" stroke-width="4.5" stroke-linecap="round"/><path d="M415.14393,27.64037h11.5v118.38461h-11.5z" data-paper-data="{&quot;index&quot;:null}" fill="#b4b4b4" stroke="#000000" stroke-width="2" stroke-linecap="butt"/><path d="M332.16957,109.74949v11.5h-132.38461v-11.5z" data-paper-data="{&quot;index&quot;:null}" fill="#b4b4b4" stroke="#000000" stroke-width="2" stroke-linecap="butt"/><path d="M199.70161,189.49938v-11.5h132.38461v11.5z" data-paper-data="{&quot;index&quot;:null}" fill="#b4b4b4" stroke="#000000" stroke-width="2" stroke-linecap="butt"/><path d="M404.08624,318.74933v11.5h-243.88461v-11.5z" data-paper-data="{&quot;index&quot;:null}" fill="#b4b4b4" stroke="#000000" stroke-width="2" stroke-linecap="butt"/><path d="M129.29387,192.74172h-11.5v-128.58461h11.5z" data-paper-data="{&quot;index&quot;:null}" fill="#b4b4b4" stroke="#000000" stroke-width="2" stroke-linecap="butt"/><path d="M-2.14845,215.13275v-11.5h109.18461v11.5z" data-paper-data="{&quot;index&quot;:null}" fill="#b4b4b4" stroke="#000000" stroke-width="2" stroke-linecap="butt"/><path d="M40.30285,242.16612v11.5h-42.58461v-11.5z" data-paper-data="{&quot;index&quot;:null}" fill="#b4b4b4" stroke="#000000" stroke-width="2" stroke-linecap="butt"/><path d="M177.69391,132.01415h11.5v35.10842h-11.5z" data-paper-data="{&quot;index&quot;:null}" fill="#b4b4b4" stroke="#000000" stroke-width="2" stroke-linecap="butt"/><path d="M354.52727,167.53922h-11.5v-35.27508h11.5z" data-paper-data="{&quot;index&quot;:null}" fill="#b4b4b4" stroke="#000000" stroke-width="2" stroke-linecap="butt"/><path d="M261.97956,-2.20018h11.5v7.53699h-11.5z" data-paper-data="{&quot;index&quot;:null}" fill="#b4b4b4" stroke="#000000" stroke-width="2" stroke-linecap="butt"/><path d="M283.99685,27.62198v-11.5h130.96199v11.5z" data-paper-data="{&quot;index&quot;:null}" fill="#b4b4b4" stroke="#000000" stroke-width="2" stroke-linecap="butt"/><path d="M129.28966,64.06597v-11.5h62.87033v11.5z" data-paper-data="{&quot;index&quot;:null}" fill="#b4b4b4" stroke="#000000" stroke-width="2" stroke-linecap="butt"/><path d="M214.52248,41.70365h-11.5v-43.87032h11.5z" data-paper-data="{&quot;index&quot;:null}" fill="#b4b4b4" stroke="#000000" stroke-width="2" stroke-linecap="butt"/><path d="M404.64393,263.05699h11.5v55.63461h-11.5z" data-paper-data="{&quot;index&quot;:null}" fill="#b4b4b4" stroke="#000000" stroke-width="2" stroke-linecap="butt"/><path d="M130.35242,253.39156v-13.88572h21.6v13.88572z" fill="#b4b4b4" stroke="none" stroke-width="0" stroke-linecap="butt"/><path d="M215.06381,258.26903c0,-5.17766 4.19734,-9.375 9.375,-9.375c5.17766,0 9.375,4.19734 9.375,9.375c0,5.17766 -4.19734,9.375 -9.375,9.375c-5.17766,0 -9.375,-4.19734 -9.375,-9.375z" fill="url(#color-13)" stroke="#000000" stroke-width="2" stroke-linecap="butt"/><path d="M223.80442,289.27119l-10.73757,-10.73757" fill="none" stroke="#b4b4b4" stroke-width="4.5" stroke-linecap="round"/><path d="M195.81381,272.21898c0,-5.31574 4.30927,-9.625 9.625,-9.625c5.31573,0 9.625,4.30926 9.625,9.625c0,5.31574 -4.30927,9.625 -9.625,9.625c-5.31573,0 -9.625,-4.30926 -9.625,-9.625z" fill="url(#color-14)" stroke="#000000" stroke-width="2" stroke-linecap="butt"/><path d="M129.93365,246.68872h21.5" fill="none" stroke="#000000" stroke-width="2" stroke-linecap="round"/><path d="M137.0274,246.7616c0,-2.40639 1.95075,-4.35715 4.35714,-4.35715c2.40639,0 4.35715,1.95076 4.35715,4.35715c0,2.40639 -1.95076,4.35714 -4.35715,4.35714c-2.40639,0 -4.35714,-1.95076 -4.35714,-4.35714z" fill="#024df2" stroke="#000000" stroke-width="1.5" stroke-linecap="butt"/><path d="M160.37625,186.92341v-4.16667h16v4.16667z" fill="#151515" stroke="none" stroke-width="0" stroke-linecap="butt"/><path d="M130.2096,148.58999v-3.33333h16v3.33333z" fill="#151515" stroke="none" stroke-width="0" stroke-linecap="butt"/><path d="M355.918,185.88177v-4.16666h21.5v4.16666z" fill="#151515" stroke="none" stroke-width="0" stroke-linecap="butt"/><path d="M215.96797,56.75683v-4.16667h22.5v4.16667z" fill="#151515" stroke="none" stroke-width="0" stroke-linecap="butt"/><path d="M389.968,124.22351v-4.16666h23.75v4.16666z" data-paper-data="{&quot;index&quot;:null}" fill="#151515" stroke="none" stroke-width="0" stroke-linecap="butt"/><path d="M290.55246,107.48051v-18.93333h57v18.93334z" fill="url(#color-15)" stroke="#000000" stroke-width="2" stroke-linecap="butt"/><path d="M265.93371,318.02198v-70.25h30.25v70.25z" fill="#151515" stroke="#000000" stroke-width="2" stroke-linecap="butt"/><path d="M288.82772,317.522v-80.25" fill="none" stroke="url(#color-16)" stroke-width="3" stroke-linecap="round"/><path d="M273.65432,316.97208v-78.25" fill="none" stroke="url(#color-17)" stroke-width="3" stroke-linecap="round"/><path d="M301.68371,315.52198v-38.5h38.5v38.5z" fill="url(#color-18)" stroke="#000000" stroke-width="2" stroke-linecap="butt"/><path d="M307.39205,309.8137l27.73214,-27.73214" fill="none" stroke="#000000" stroke-width="6" stroke-linecap="round"/><path d="M296.93371,94.10551h13.75" fill="none" stroke="#000000" stroke-width="4" stroke-linecap="round"/><path d="M308.93371,101.5928h22.25" fill="none" stroke="#000000" stroke-width="4" stroke-linecap="round"/><path d="M340.93372,95.85551h-9" fill="none" stroke="#000000" stroke-width="4" stroke-linecap="round"/><path d="M281.01452,238.67198v79.65" fill="none" stroke="url(#color-19)" stroke-width="3" stroke-linecap="round"/><path d="M263.69588,246.12792v-10.75h34v10.75z" fill="url(#color-20)" stroke="#000000" stroke-width="4" stroke-linecap="butt"/><path d="M306.96347,281.58153l27.73214,27.73215" data-paper-data="{&quot;index&quot;:null}" fill="none" stroke="#000000" stroke-width="6" stroke-linecap="round"/><path d="M260.55396,47.90582l27.95743,7.46427c0,0 0.99279,-6.09807 2.03783,-4.97232c1.97616,2.12879 9.50751,13.66389 9.10848,15.15849c-0.40771,1.52712 -12.59974,7.76931 -15.35925,8.6159c-1.21356,0.3723 0.61904,-5.34109 0.61904,-5.34109l-27.95743,-7.46427z" fill="#244d0e" stroke="#000000" stroke-width="2" stroke-linecap="butt"/><path d="M387.89846,197.10402l28.93295,0.46597c0,0 -0.51473,-6.15688 0.77199,-5.31796c2.43318,1.58638 12.53564,10.95228 12.51073,12.49902c-0.02545,1.58041 -10.34114,10.59135 -12.81319,12.0815c-1.08714,0.65532 -0.69388,-5.33188 -0.69388,-5.33188l-28.93296,-0.46596z" fill="#244d0e" stroke="#000000" stroke-width="2" stroke-linecap="butt"/><path d="M286.75239,107.54718v-18.6h3.85v18.6z" fill="#151515" stroke="#000000" stroke-width="1.5" stroke-linecap="butt"/><path d="M348.75247,107.74717v-18.6h4.6v18.6z" data-paper-data="{&quot;index&quot;:null}" fill="#151515" stroke="#000000" stroke-width="1.5" stroke-linecap="butt"/><path d="M333.02559,307.55556l-24.16667,-24.16667" fill="none" stroke="#e35900" stroke-width="2" stroke-linecap="round"/><path d="M333.35892,284.05556l-24.16667,24.16667" data-paper-data="{&quot;index&quot;:null}" fill="none" stroke="#e35900" stroke-width="2" stroke-linecap="round"/><path d="M415.17459,169.4581v-22.33334h22.33334v22.33334z" fill="url(#color-21)" stroke="#000000" stroke-width="2" stroke-linecap="butt"/><path d="M404.50792,341.0058v-22.33334h22.33334v22.33334z" fill="url(#color-22)" stroke="#000000" stroke-width="2" stroke-linecap="butt"/><path d="M177.6079,131.99131v-22.33334h22.33334v22.33334z" fill="url(#color-23)" stroke="#000000" stroke-width="2" stroke-linecap="butt"/><path d="M404.50792,263.29132v-22.33334h22.33334v22.33334z" fill="url(#color-24)" stroke="#000000" stroke-width="2" stroke-linecap="butt"/></g></g></svg>