<svg version="1.1" xmlns="http://www.w3.org/2000/svg" xmlns:xlink="http://www.w3.org/1999/xlink" width="61.58713" height="54.47259" viewBox="0,0,61.58713,54.47259"><defs><linearGradient x1="211.68337" y1="164.4022" x2="228.33036" y2="164.4022" gradientUnits="userSpaceOnUse" id="color-1"><stop offset="0" stop-color="#050000"/><stop offset="1" stop-color="#0f0707"/></linearGradient><radialGradient cx="257.18413" cy="171.22703" r="2.92899" gradientUnits="userSpaceOnUse" id="color-2"><stop offset="0" stop-color="#5100a4"/><stop offset="1" stop-color="#5100a4" stop-opacity="0"/></radialGradient><radialGradient cx="257.38041" cy="171.03652" r="4.46153" gradientUnits="userSpaceOnUse" id="color-3"><stop offset="0" stop-color="#5100a4"/><stop offset="1" stop-color="#5100a4" stop-opacity="0"/></radialGradient></defs><g transform="translate(-210.05911,-141.14457)"><g data-paper-data="{&quot;isPaintingLayer&quot;:true}" fill-rule="nonzero" stroke="#000000" stroke-linejoin="miter" stroke-miterlimit="10" stroke-dasharray="" stroke-dashoffset="0" style="mix-blend-mode: normal"><g fill="none" stroke-width="4" stroke-linecap="round"><path d="M241.17589,164.23624l5.66168,-9.88991l-1.80188,19.33552l0.84494,-1.71693l-0.7921,-1.7318" data-paper-data="{&quot;index&quot;:null}"/><g><path d="M220.00291,163.42429l-3.05031,1.87258l0.17183,3.40739l18.30886,-20.75349l-1.36316,14.1111"/><path d="M248.73276,165.27618l5.65865,-10.83161l3.0314,21.11848l-1.23735,-1.60357l0.19044,-1.98962" data-paper-data="{&quot;index&quot;:null}"/><path d="M230.02404,168.25823l-1.50807,1.16191l-0.16458,2.03007l10.72235,-16.96394l-2.73042,9.15345"/></g></g><path d="M211.68337,159.40777c0,0 5.85462,3.51492 9.07604,3.41433c3.44391,-0.10755 7.57095,-0.18871 7.57095,-0.18871l-2.88046,6.76324c0,0 -7.84857,-2.72688 -10.15858,-4.53159c-1.86466,-1.45679 -3.60795,-5.45727 -3.60795,-5.45727z" data-paper-data="{&quot;index&quot;:null}" fill="url(#color-1)" stroke-width="1.5" stroke-linecap="butt"/><path d="M262.12203,175.9285c-0.68228,3.4613 -4.92239,5.54048 -9.47054,4.64396c-4.54814,-0.89651 -7.68206,-4.42921 -6.99978,-7.89052c0.68228,-3.4613 4.92239,-5.54048 9.47053,-4.64397c4.54814,0.89651 7.68207,4.42922 6.99979,7.89053z" fill="#000000" stroke-width="0" stroke-linecap="butt"/><path d="M264.51438,173.7276c-0.6557,3.32645 -4.73062,5.32465 -9.10159,4.46306c-4.37096,-0.86158 -7.38279,-4.25668 -6.72709,-7.58314c0.6557,-3.32645 4.73062,-5.32464 9.10159,-4.46305c4.37096,0.86158 7.38279,4.25667 6.72709,7.58313z" fill="#000000" stroke-width="0" stroke-linecap="butt"/><path d="M264.02998,175.20511c-0.68228,3.4613 -4.92239,5.54048 -9.47054,4.64396c-4.54814,-0.89651 -7.68206,-4.42921 -6.99978,-7.89052c0.68228,-3.4613 4.92239,-5.54048 9.47053,-4.64397c4.54814,0.89651 7.68207,4.42922 6.99979,7.89053z" fill="#000000" stroke-width="0" stroke-linecap="butt"/><path d="M261.54569,173.34108c-0.68228,3.4613 -4.92239,5.54048 -9.47053,4.64397c-4.54814,-0.89651 -7.68206,-4.42921 -6.99978,-7.89052c0.68228,-3.4613 4.92239,-5.54048 9.47053,-4.64397c4.54814,0.89651 7.68206,4.42921 6.99978,7.89052z" fill="#000000" stroke-width="0" stroke-linecap="butt"/><path d="M256.83411,172.54904c0,0 3.69717,-0.19534 5.31104,0.11861c1.61615,0.31439 5.02009,1.73449 5.02009,1.73449l-1.10083,0.32417" data-paper-data="{&quot;index&quot;:null}" fill="none" stroke-width="3" stroke-linecap="round"/><path d="M264.26548,178.65075l0.62521,0.87548c0,0 -3.06505,-0.84834 -4.27896,-2.18571c-1.21219,-1.33546 -3.16223,-5.86797 -3.16223,-5.86797" fill="none" stroke-width="3" stroke-linecap="round"/><path d="M262.70132,173.96129c-0.60489,3.06868 -5.34238,5.3926 -9.13901,4.64423c-1.13892,-0.2245 -3.17946,-0.47448 -4.04722,-1.05718c-2.02493,-1.35974 -2.15537,-3.70609 -1.73194,-5.85423c0.60489,-3.06868 4.08712,-5.06282 7.88376,-4.31444c2.52614,0.49794 4.69102,1.38582 5.90883,3.13111c0.61249,0.87775 1.32802,2.42362 1.1256,3.45052z" fill="#0a0300" stroke-width="0" stroke-linecap="butt"/><g stroke-linecap="butt"><path d="M236.83373,162.54555c-0.10275,-0.74425 0.92583,-1.46071 2.29739,-1.60024c1.37157,-0.13954 2.56673,0.35067 2.66948,1.09492c0.10275,0.74425 -0.92582,1.46071 -2.29739,1.60024c-1.37157,0.13954 -2.56674,-0.35067 -2.66949,-1.09492z" fill="#000000" stroke-width="1"/><path d="M252.43624,173.59365c-0.37103,5.41265 -6.45717,9.47018 -13.59381,9.06275c-7.13661,-0.40744 -12.62119,-5.12557 -12.25016,-10.53821c0.37103,-5.41265 6.45719,-9.47016 13.59381,-9.06272c7.13661,0.40744 12.6212,5.12553 12.25016,10.53819z" fill="#000000" stroke-width="0"/><path d="M254.33218,169.12209c-0.35657,5.20179 -6.20562,9.10125 -13.06423,8.70969c-6.85858,-0.39156 -12.12951,-4.92589 -11.77293,-10.12768c0.35657,-5.20179 6.20564,-9.10123 13.06422,-8.70966c6.85858,0.39156 12.12952,4.92586 11.77293,10.12766z" fill="#000000" stroke-width="0"/><path d="M250.35104,169.53441c-0.37103,5.41265 -6.45717,9.47018 -13.59381,9.06275c-7.13661,-0.40744 -12.62119,-5.12557 -12.25016,-10.53821c0.37103,-5.41265 6.45719,-9.47017 13.5938,-9.06272c7.13661,0.40744 12.6212,5.12554 12.25017,10.5382z" fill="#000000" stroke-width="0"/><path d="M252.72082,170.04254c-0.37103,5.41265 -6.45717,9.47018 -13.59381,9.06274c-7.13661,-0.40744 -12.62119,-5.12555 -12.25016,-10.5382c0.37103,-5.41265 6.45719,-9.47017 13.5938,-9.06272c7.13661,0.40744 12.6212,5.12554 12.25017,10.5382z" fill="#000000" stroke-width="0"/><path d="M252.42079,170.04503c0.10182,5.64086 -5.24425,10.31166 -11.94078,10.43254c-5.15322,0.09302 -9.13174,-2.82719 -11.3439,-6.60727c-0.66251,-1.13207 -2.36268,-2.06187 -2.38614,-3.36188c-0.03441,-1.90626 0.49561,-4.64474 1.76221,-6.19516c2.05795,-2.51912 4.89219,-3.55227 8.60745,-3.78556c0.76446,-0.04801 2.34846,0.19497 3.10504,0.18131c1.50852,-0.02723 4.98045,0.1087 6.31146,0.45689c4.57754,1.19749 5.80578,4.509 5.88466,8.87914z" fill="#0a0300" stroke-width="1"/><path d="M228.68328,168.82249c-0.01999,-1.10756 1.83279,-2.03914 3.21327,-2.06406c1.38049,-0.02492 1.39098,0.87303 1.41098,1.98059c0.01999,1.10756 0.04191,2.0053 -1.33858,2.03022c-1.38049,0.02492 -3.26568,-0.83919 -3.28567,-1.94675z" fill="#000000" stroke-width="1"/><path d="M232.79707,177.98789c-0.25505,-0.85122 0.62049,-1.79677 1.95558,-2.11193c1.33509,-0.31516 2.62415,0.11938 2.87921,0.9706c0.25505,0.85122 -0.62049,1.79678 -1.95558,2.11194c-1.33509,0.31516 -2.62415,-0.11939 -2.87921,-0.97061z" fill="#000000" stroke-width="1"/><path d="M243.56299,166.64669c0.35292,-0.85054 1.69038,-1.18062 2.98732,-0.73726c1.29693,0.44337 2.06222,1.49229 1.7093,2.34282c-0.35292,0.85054 -1.69039,1.18063 -2.98732,0.73726c-1.29693,-0.44337 -2.06222,-1.49229 -1.7093,-2.34282z" fill="#000000" stroke-width="1"/><path d="M236.4746,171.04193c-0.01646,-0.91211 1.07406,-2.37947 2.0404,-2.39692c0.96634,-0.01744 1.02312,1.27187 1.03959,2.18397c0.01646,0.91211 0.42002,2.03781 -0.54633,2.05526c-0.96634,0.01744 -2.5172,-0.93022 -2.53366,-1.84233z" fill="#000000" stroke-width="1"/><path d="M244.55214,177.29346c-1.09552,-0.21719 -1.83567,-0.96079 -1.65316,-1.66086c0.1825,-0.70007 1.21856,-1.09151 2.31408,-0.8743c1.09552,0.21719 1.83567,0.96078 1.65316,1.66086c-0.1825,0.70007 -1.21855,1.09152 -2.31407,0.87431z" data-paper-data="{&quot;index&quot;:null}" fill="#000000" stroke-width="1"/></g><g fill="none" stroke-width="0.5" stroke-linecap="round"><path d="M246.27173,182.71608l-1.04759,-0.72915"/><path d="M247.4227,180.98625l1.6466,1.16717"/><path d="M243.37186,181.70117l0.48908,2.5346"/><path d="M249.6868,178.22474l1.22003,0.75463"/><path d="M241.53904,182.50228l0.17202,1.34342"/><path d="M239.31773,182.24315l0.054,2.99129"/><path d="M233.14603,180.06847l-2.10645,2.02488"/><path d="M230.97749,178.65339l-2.78792,1.09761"/><path d="M228.88231,177.19506l-2.35554,0.49136"/><path d="M226.06199,176.49791l1.16832,-0.76915"/><path d="M223.93094,164.86657l1.49617,1.02028"/><path d="M224.94613,163.80095l1.34035,0.57425"/><path d="M231.21741,159.19936l0.91067,1.33008"/><path d="M241.52326,157.06833l-0.55042,2.25414"/><path d="M247.20438,160.70614l1.5845,-2.27281"/><path d="M249.29418,161.86531l0.55582,-1.95499"/><path d="M237.49308,181.50812l-0.68698,2.87501"/><path d="M225.82457,173.70945l-1.12806,0.54401"/><path d="M223.83145,172.17449l1.75795,-0.03173"/><path d="M225.35802,170.78545l-0.82916,-0.08975l-1.66589,-0.59831"/><path d="M225.21681,168.69341l-0.50949,0.42812l-2.50261,-1.10684"/><path d="M224.99109,167.65021l-1.78819,-1.6434"/><path d="M228.01777,163.4064l-1.47419,-1.4396"/><path d="M227.55878,160.90117l1.57382,1.22834"/><path d="M229.28061,158.86827l2.28431,2.91115"/><path d="M235.713,159.91616l-0.55863,-2.29396"/><path d="M237.05354,159.68252l-0.03024,-1.67513"/><path d="M239.30397,158.28039l-1.28574,3.26982"/><g><path d="M244.53487,180.95208l0.99834,0.73004"/><path d="M246.62634,179.86703l1.56921,1.16858"/><path d="M242.5787,181.73546l0.46797,2.53497"/><path d="M248.71513,178.63242l1.34425,0.83868"/><path d="M241.02568,181.46426l0.16499,1.34354"/><path d="M238.96391,184.19451l-0.054,-2.99128"/><path d="M231.02579,181.04632l1.38261,-1.37148"/><path d="M228.30944,178.70153l2.65424,-1.0952"/><path d="M228.967,176.14625l-2.24296,0.48933"/><path d="M226.28036,175.44668l1.11204,-0.76814"/><path d="M224.24079,163.81369l1.42581,1.02155"/><path d="M226.48376,163.32435l-1.27702,-0.57541"/><path d="M232.95374,160.74794l-1.33877,-2.81651"/><path d="M232.82042,157.37506l0.97909,2.97261"/><path d="M240.47558,158.78604l0.5132,-2.75534"/><path d="M245.86379,160.53683l2.04589,-3.13492"/><path d="M248.92152,158.87978l-0.85055,2.49395"/><path d="M236.52163,183.44771l0.67106,-1.80748"/><path d="M224.97797,173.20109l1.07388,-0.54303"/><path d="M224.15231,171.12141l1.67423,-0.03022"/><path d="M225.605,169.73372l-0.78976,-0.09047l-1.58708,-0.59973"/><path d="M225.46873,167.64157l-0.48486,0.42766l-2.38441,-1.10898"/><path d="M225.25285,166.59819l-1.70447,-1.6449"/><path d="M226.72654,160.91619l1.40523,1.44084"/><path d="M229.19243,161.08116l-1.49994,-1.22967"/><path d="M230.99475,160.63569l-1.31431,-1.8614"/><path d="M234.92362,156.57907l0.534,2.29441"/><path d="M236.20004,159.05828l-0.03024,-1.67512"/><path d="M238.87621,157.24083l-1.22171,3.26866"/></g><path d="M235.07956,182.13017l-0.908,1.27314"/><path d="M234.019,180.68311l-1.41372,1.91065"/><path d="M235.62683,183.79596l0.19548,-0.63191l0.29512,-0.84317"/><path d="M242.31613,159.59912l0.075,-2.2123"/><path d="M243.66039,158.93486l0.37584,-2.10137"/><path d="M245.69077,156.80364l-1.00731,2.69759"/><path d="M248.0581,179.06821l1.05866,1.34236"/><path d="M243.72823,181.12026l1.20355,2.40301"/><path d="M246.02015,180.78065l1.05866,1.34237"/><path d="M240.04697,182.24996l0.55863,2.29396"/><path d="M224.61769,175.61636l2.34628,-1.82275"/></g><g fill="none" stroke-width="4" stroke-linecap="round"><path d="M239.46159,178.01402l3.37597,-8.88991l0.48383,18.33552l0.84494,-1.71693l-0.7921,-1.7318" data-paper-data="{&quot;index&quot;:null}"/><g><path d="M218.28861,177.20207l-3.05031,1.87258l0.17183,3.40739l17.30886,-21.32492l-0.36316,14.68253"/><path d="M247.01846,179.05396l4.37294,-11.11732l4.31711,21.40419l-1.23735,-1.20357l0.19044,-2.38962" data-paper-data="{&quot;index&quot;:null}"/><path d="M228.30974,182.03601l-1.50807,1.16191l-0.16458,2.03007l9.15092,-17.24965l-1.15899,9.43916"/></g></g><path d="M255.08118,171.6243l0.03567,-2.30234c0,0 3.50749,0.6594 4.44336,2.15035c0.27185,0.43311 0.83554,1.35926 0.83554,1.35926c0,0 -1.20396,-0.00906 -1.67838,0.04392c-0.80654,0.09009 -3.6362,-1.25121 -3.6362,-1.25121z" fill="url(#color-2)" stroke-width="0.5" stroke-linecap="butt"/><path d="M253.0031,170.17368c0.44978,-2.28185 2.7742,-3.74535 5.19173,-3.26881c2.41752,0.47653 4.01267,2.71264 3.56289,4.99448c-0.44978,2.28185 -2.77419,3.74535 -5.19172,3.26882c-2.41752,-0.47653 -4.01268,-2.71264 -3.5629,-4.99448z" fill="url(#color-3)" stroke-width="0" stroke-linecap="butt"/></g></g></svg>