<svg version="1.1" xmlns="http://www.w3.org/2000/svg" xmlns:xlink="http://www.w3.org/1999/xlink" width="316.72846" height="84.92002" viewBox="0,0,316.72846,84.92002"><defs><linearGradient x1="150.07065" y1="252.64129" x2="155.15353" y2="252.64129" gradientUnits="userSpaceOnUse" id="color-1"><stop offset="0" stop-color="#671919"/><stop offset="1" stop-color="#1b0000"/></linearGradient><linearGradient x1="142.57065" y1="252.51629" x2="147.65353" y2="252.51629" gradientUnits="userSpaceOnUse" id="color-2"><stop offset="0" stop-color="#671919"/><stop offset="1" stop-color="#1b0000"/></linearGradient><linearGradient x1="135.19565" y1="252.79128" x2="140.27853" y2="252.79128" gradientUnits="userSpaceOnUse" id="color-3"><stop offset="0" stop-color="#671919"/><stop offset="1" stop-color="#1b0000"/></linearGradient><linearGradient x1="127.69566" y1="252.66628" x2="132.77853" y2="252.66628" gradientUnits="userSpaceOnUse" id="color-4"><stop offset="0" stop-color="#671919"/><stop offset="1" stop-color="#1b0000"/></linearGradient><linearGradient x1="120.32066" y1="252.54128" x2="125.40353" y2="252.54128" gradientUnits="userSpaceOnUse" id="color-5"><stop offset="0" stop-color="#671919"/><stop offset="1" stop-color="#1b0000"/></linearGradient><linearGradient x1="112.82066" y1="252.61628" x2="117.90353" y2="252.61628" gradientUnits="userSpaceOnUse" id="color-6"><stop offset="0" stop-color="#671919"/><stop offset="1" stop-color="#1b0000"/></linearGradient><linearGradient x1="105.44566" y1="252.49128" x2="110.52853" y2="252.49128" gradientUnits="userSpaceOnUse" id="color-7"><stop offset="0" stop-color="#671919"/><stop offset="1" stop-color="#1b0000"/></linearGradient><linearGradient x1="97.94566" y1="252.56628" x2="103.02853" y2="252.56628" gradientUnits="userSpaceOnUse" id="color-8"><stop offset="0" stop-color="#671919"/><stop offset="1" stop-color="#1b0000"/></linearGradient><linearGradient x1="90.39209" y1="252.45914" x2="95.47496" y2="252.45914" gradientUnits="userSpaceOnUse" id="color-9"><stop offset="0" stop-color="#671919"/><stop offset="1" stop-color="#1b0000"/></linearGradient><linearGradient x1="83.01708" y1="252.33414" x2="88.09996" y2="252.33414" gradientUnits="userSpaceOnUse" id="color-10"><stop offset="0" stop-color="#671919"/><stop offset="1" stop-color="#1b0000"/></linearGradient><linearGradient x1="75.51708" y1="252.40914" x2="80.59995" y2="252.40914" gradientUnits="userSpaceOnUse" id="color-11"><stop offset="0" stop-color="#671919"/><stop offset="1" stop-color="#1b0000"/></linearGradient><linearGradient x1="68.14208" y1="252.28414" x2="73.22495" y2="252.28414" gradientUnits="userSpaceOnUse" id="color-12"><stop offset="0" stop-color="#671919"/><stop offset="1" stop-color="#1b0000"/></linearGradient><linearGradient x1="60.64209" y1="252.15914" x2="65.72495" y2="252.15914" gradientUnits="userSpaceOnUse" id="color-13"><stop offset="0" stop-color="#671919"/><stop offset="1" stop-color="#1b0000"/></linearGradient><linearGradient x1="53.26709" y1="252.23414" x2="58.34996" y2="252.23414" gradientUnits="userSpaceOnUse" id="color-14"><stop offset="0" stop-color="#671919"/><stop offset="1" stop-color="#1b0000"/></linearGradient><linearGradient x1="362.9101" y1="252.74961" x2="368.15355" y2="252.74961" gradientUnits="userSpaceOnUse" id="color-15"><stop offset="0" stop-color="#671919"/><stop offset="1" stop-color="#190000"/></linearGradient><linearGradient x1="355.4657" y1="252.82461" x2="360.70915" y2="252.82461" gradientUnits="userSpaceOnUse" id="color-16"><stop offset="0" stop-color="#671919"/><stop offset="1" stop-color="#190000"/></linearGradient><linearGradient x1="347.89236" y1="252.69961" x2="353.13581" y2="252.69961" gradientUnits="userSpaceOnUse" id="color-17"><stop offset="0" stop-color="#671919"/><stop offset="1" stop-color="#190000"/></linearGradient><linearGradient x1="340.44796" y1="252.57461" x2="345.69141" y2="252.57461" gradientUnits="userSpaceOnUse" id="color-18"><stop offset="0" stop-color="#671919"/><stop offset="1" stop-color="#190000"/></linearGradient><linearGradient x1="332.87461" y1="252.64962" x2="338.11806" y2="252.64962" gradientUnits="userSpaceOnUse" id="color-19"><stop offset="0" stop-color="#671919"/><stop offset="1" stop-color="#190000"/></linearGradient><linearGradient x1="325.43022" y1="252.52462" x2="330.67367" y2="252.52462" gradientUnits="userSpaceOnUse" id="color-20"><stop offset="0" stop-color="#671919"/><stop offset="1" stop-color="#190000"/></linearGradient><linearGradient x1="264.57044" y1="316.68475" x2="260.51615" y2="316.68475" gradientUnits="userSpaceOnUse" id="color-21"><stop offset="0" stop-color="#c1c1c1"/><stop offset="1" stop-color="#1a1a1a"/></linearGradient><linearGradient x1="266.32828" y1="313.61077" x2="266.32828" y2="319.84575" gradientUnits="userSpaceOnUse" id="color-22"><stop offset="0" stop-color="#c1c1c1"/><stop offset="1" stop-color="#191919"/></linearGradient><linearGradient x1="264.57044" y1="324.68475" x2="260.51615" y2="324.68475" gradientUnits="userSpaceOnUse" id="color-23"><stop offset="0" stop-color="#c1c1c1"/><stop offset="1" stop-color="#1a1a1a"/></linearGradient><linearGradient x1="266.32828" y1="321.61077" x2="266.32828" y2="327.84575" gradientUnits="userSpaceOnUse" id="color-24"><stop offset="0" stop-color="#c1c1c1"/><stop offset="1" stop-color="#191919"/></linearGradient><linearGradient x1="191.96997" y1="285.65315" x2="191.96997" y2="281.75651" gradientUnits="userSpaceOnUse" id="color-25"><stop offset="0" stop-color="#c1c1c1"/><stop offset="1" stop-color="#1a1a1a"/></linearGradient><linearGradient x1="194.48317" y1="287.34264" x2="189.38564" y2="287.34264" gradientUnits="userSpaceOnUse" id="color-26"><stop offset="0" stop-color="#c1c1c1"/><stop offset="1" stop-color="#191919"/></linearGradient><linearGradient x1="198.1835" y1="285.65315" x2="198.1835" y2="281.75651" gradientUnits="userSpaceOnUse" id="color-27"><stop offset="0" stop-color="#c1c1c1"/><stop offset="1" stop-color="#1a1a1a"/></linearGradient><linearGradient x1="200.69669" y1="287.34264" x2="195.59917" y2="287.34264" gradientUnits="userSpaceOnUse" id="color-28"><stop offset="0" stop-color="#c1c1c1"/><stop offset="1" stop-color="#191919"/></linearGradient><linearGradient x1="185.75645" y1="285.65315" x2="185.75645" y2="281.75651" gradientUnits="userSpaceOnUse" id="color-29"><stop offset="0" stop-color="#c1c1c1"/><stop offset="1" stop-color="#1a1a1a"/></linearGradient><linearGradient x1="188.26964" y1="287.34264" x2="183.17211" y2="287.34264" gradientUnits="userSpaceOnUse" id="color-30"><stop offset="0" stop-color="#c1c1c1"/><stop offset="1" stop-color="#191919"/></linearGradient><linearGradient x1="173.22708" y1="285.65315" x2="173.22708" y2="281.75651" gradientUnits="userSpaceOnUse" id="color-31"><stop offset="0" stop-color="#c1c1c1"/><stop offset="1" stop-color="#1a1a1a"/></linearGradient><linearGradient x1="175.74028" y1="287.34264" x2="170.64275" y2="287.34264" gradientUnits="userSpaceOnUse" id="color-32"><stop offset="0" stop-color="#c1c1c1"/><stop offset="1" stop-color="#191919"/></linearGradient><linearGradient x1="179.44061" y1="285.65315" x2="179.44061" y2="281.75651" gradientUnits="userSpaceOnUse" id="color-33"><stop offset="0" stop-color="#c1c1c1"/><stop offset="1" stop-color="#1a1a1a"/></linearGradient><linearGradient x1="181.95381" y1="287.34264" x2="176.85628" y2="287.34264" gradientUnits="userSpaceOnUse" id="color-34"><stop offset="0" stop-color="#c1c1c1"/><stop offset="1" stop-color="#191919"/></linearGradient><linearGradient x1="167.01356" y1="285.65315" x2="167.01356" y2="281.75651" gradientUnits="userSpaceOnUse" id="color-35"><stop offset="0" stop-color="#c1c1c1"/><stop offset="1" stop-color="#1a1a1a"/></linearGradient><linearGradient x1="169.52676" y1="287.34264" x2="164.42921" y2="287.34264" gradientUnits="userSpaceOnUse" id="color-36"><stop offset="0" stop-color="#c1c1c1"/><stop offset="1" stop-color="#191919"/></linearGradient><linearGradient x1="154.4842" y1="285.65315" x2="154.4842" y2="281.75651" gradientUnits="userSpaceOnUse" id="color-37"><stop offset="0" stop-color="#c1c1c1"/><stop offset="1" stop-color="#1a1a1a"/></linearGradient><linearGradient x1="156.99739" y1="287.34264" x2="151.89986" y2="287.34264" gradientUnits="userSpaceOnUse" id="color-38"><stop offset="0" stop-color="#c1c1c1"/><stop offset="1" stop-color="#191919"/></linearGradient><linearGradient x1="160.6977" y1="285.65315" x2="160.6977" y2="281.75651" gradientUnits="userSpaceOnUse" id="color-39"><stop offset="0" stop-color="#c1c1c1"/><stop offset="1" stop-color="#1a1a1a"/></linearGradient><linearGradient x1="163.21092" y1="287.34264" x2="158.11339" y2="287.34264" gradientUnits="userSpaceOnUse" id="color-40"><stop offset="0" stop-color="#c1c1c1"/><stop offset="1" stop-color="#191919"/></linearGradient><linearGradient x1="148.27067" y1="285.65315" x2="148.27067" y2="281.75651" gradientUnits="userSpaceOnUse" id="color-41"><stop offset="0" stop-color="#c1c1c1"/><stop offset="1" stop-color="#1a1a1a"/></linearGradient><linearGradient x1="150.78386" y1="287.34264" x2="145.68632" y2="287.34264" gradientUnits="userSpaceOnUse" id="color-42"><stop offset="0" stop-color="#c1c1c1"/><stop offset="1" stop-color="#191919"/></linearGradient><linearGradient x1="81.87925" y1="327.32612" x2="81.87925" y2="331.4" gradientUnits="userSpaceOnUse" id="color-43"><stop offset="0" stop-color="#c1c1c1"/><stop offset="1" stop-color="#1a1a1a"/></linearGradient><linearGradient x1="79.61701" y1="325.55979" x2="84.20551" y2="325.55979" gradientUnits="userSpaceOnUse" id="color-44"><stop offset="0" stop-color="#c1c1c1"/><stop offset="1" stop-color="#191919"/></linearGradient><linearGradient x1="87.47231" y1="327.32612" x2="87.47231" y2="331.4" gradientUnits="userSpaceOnUse" id="color-45"><stop offset="0" stop-color="#c1c1c1"/><stop offset="1" stop-color="#1a1a1a"/></linearGradient><linearGradient x1="85.21007" y1="325.55979" x2="89.79857" y2="325.55979" gradientUnits="userSpaceOnUse" id="color-46"><stop offset="0" stop-color="#c1c1c1"/><stop offset="1" stop-color="#191919"/></linearGradient><linearGradient x1="93.15746" y1="327.32612" x2="93.15746" y2="331.4" gradientUnits="userSpaceOnUse" id="color-47"><stop offset="0" stop-color="#c1c1c1"/><stop offset="1" stop-color="#1a1a1a"/></linearGradient><linearGradient x1="90.89522" y1="325.55979" x2="95.48372" y2="325.55979" gradientUnits="userSpaceOnUse" id="color-48"><stop offset="0" stop-color="#c1c1c1"/><stop offset="1" stop-color="#191919"/></linearGradient><linearGradient x1="357.23912" y1="326.79666" x2="357.23912" y2="331.25074" gradientUnits="userSpaceOnUse" id="color-49"><stop offset="0" stop-color="#c1c1c1"/><stop offset="1" stop-color="#1a1a1a"/></linearGradient><linearGradient x1="354.8014" y1="324.86548" x2="359.74585" y2="324.86548" gradientUnits="userSpaceOnUse" id="color-50"><stop offset="0" stop-color="#c1c1c1"/><stop offset="1" stop-color="#191919"/></linearGradient><linearGradient x1="363.58327" y1="326.79666" x2="363.58327" y2="331.25074" gradientUnits="userSpaceOnUse" id="color-51"><stop offset="0" stop-color="#c1c1c1"/><stop offset="1" stop-color="#1a1a1a"/></linearGradient><linearGradient x1="361.14555" y1="324.86548" x2="366.09" y2="324.86548" gradientUnits="userSpaceOnUse" id="color-52"><stop offset="0" stop-color="#c1c1c1"/><stop offset="1" stop-color="#191919"/></linearGradient><linearGradient x1="318.32552" y1="252.78089" x2="323.56897" y2="252.78089" gradientUnits="userSpaceOnUse" id="color-53"><stop offset="0" stop-color="#671919"/><stop offset="1" stop-color="#190000"/></linearGradient></defs><g transform="translate(-52.67823,-246.85498)"><g data-paper-data="{&quot;isPaintingLayer&quot;:true}" fill-rule="nonzero" stroke="#000000" stroke-linejoin="miter" stroke-miterlimit="10" stroke-dasharray="" stroke-dashoffset="0" style="mix-blend-mode: normal"><path d="M150.07065,253.75655l2.52349,-5.26219l2.55938,5.34729l-2.58488,2.94657z" fill="url(#color-1)" stroke-width="1" stroke-linecap="butt"/><path d="M142.57065,253.63155l2.52349,-5.26219l2.55938,5.34729l-2.58488,2.94657z" fill="url(#color-2)" stroke-width="1" stroke-linecap="butt"/><path d="M135.19565,253.90655l2.52349,-5.2622l2.55938,5.34729l-2.58488,2.94657z" fill="url(#color-3)" stroke-width="1" stroke-linecap="butt"/><path d="M127.69566,253.78155l2.52349,-5.2622l2.55938,5.34729l-2.58488,2.94657z" fill="url(#color-4)" stroke-width="1" stroke-linecap="butt"/><path d="M120.32066,253.65654l2.52349,-5.26219l2.55938,5.34729l-2.58488,2.94657z" fill="url(#color-5)" stroke-width="1" stroke-linecap="butt"/><path d="M112.82066,253.73154l2.52349,-5.26219l2.55938,5.34729l-2.58488,2.94657z" fill="url(#color-6)" stroke-width="1" stroke-linecap="butt"/><path d="M105.44566,253.60654l2.52349,-5.26219l2.55938,5.34729l-2.58488,2.94657z" fill="url(#color-7)" stroke-width="1" stroke-linecap="butt"/><path d="M97.94566,253.68154l2.52349,-5.26219l2.55938,5.34729l-2.58488,2.94657z" fill="url(#color-8)" stroke-width="1" stroke-linecap="butt"/><path d="M90.39209,253.5744l2.52349,-5.26219l2.55938,5.34729l-2.58488,2.94657z" fill="url(#color-9)" stroke-width="1" stroke-linecap="butt"/><path d="M83.01708,253.4494l2.52349,-5.26219l2.55938,5.34729l-2.58488,2.94657z" fill="url(#color-10)" stroke-width="1" stroke-linecap="butt"/><path d="M75.51708,253.5244l2.52349,-5.26219l2.55938,5.34729l-2.58488,2.94657z" fill="url(#color-11)" stroke-width="1" stroke-linecap="butt"/><path d="M68.14208,253.3994l2.52349,-5.26219l2.55938,5.34729l-2.58488,2.94657z" fill="url(#color-12)" stroke-width="1" stroke-linecap="butt"/><path d="M60.64209,253.2744l2.52349,-5.26219l2.55939,5.34729l-2.58489,2.94657z" fill="url(#color-13)" stroke-width="1" stroke-linecap="butt"/><path d="M53.26709,253.3494l2.52349,-5.26219l2.55938,5.34729l-2.58488,2.94657z" fill="url(#color-14)" stroke-width="1" stroke-linecap="butt"/><path d="M363.56441,253.86487l2.60322,-5.26219l2.64023,5.34729l-2.66654,2.94657z" fill="url(#color-15)" stroke-width="1" stroke-linecap="butt"/><path d="M356.12001,253.93988l2.60322,-5.2622l2.64023,5.34729l-2.66654,2.94656z" fill="url(#color-16)" stroke-width="1" stroke-linecap="butt"/><path d="M348.54666,253.81488l2.60322,-5.2622l2.64023,5.34729l-2.66654,2.94656z" fill="url(#color-17)" stroke-width="1" stroke-linecap="butt"/><path d="M341.10227,253.68988l2.60322,-5.2622l2.64023,5.34729l-2.66654,2.94656z" fill="url(#color-18)" stroke-width="1" stroke-linecap="butt"/><path d="M333.52892,253.76488l2.60322,-5.26219l2.64023,5.34729l-2.66654,2.94657z" fill="url(#color-19)" stroke-width="1" stroke-linecap="butt"/><path d="M326.08452,253.63988l2.60322,-5.26219l2.64023,5.34729l-2.66654,2.94657z" fill="url(#color-20)" stroke-width="1" stroke-linecap="butt"/><path d="M260.51615,315.53679h4.05429v2.29592h-4.05429z" fill="url(#color-21)" stroke-width="0.75" stroke-linecap="butt"/><path d="M263.37559,313.61077l6.73767,3.33968l-6.73767,2.89529c0,0 -0.8323,-2.06827 -0.8323,-3.07035c0,-1.07158 0.8323,-3.16462 0.8323,-3.16462z" fill="url(#color-22)" stroke-width="0.75" stroke-linecap="round"/><path d="M260.51615,323.53679h4.05429v2.29592h-4.05429z" fill="url(#color-23)" stroke-width="0.75" stroke-linecap="butt"/><path d="M270.11326,324.95045l-6.73767,2.89529c0,0 -0.8323,-2.06828 -0.8323,-3.07036c0,-1.07158 0.8323,-3.16462 0.8323,-3.16462z" fill="url(#color-24)" stroke-width="0.75" stroke-linecap="round"/><path d="M192.90851,281.75651v3.89664h-1.87707v-3.89664z" fill="url(#color-25)" stroke-width="0.75" stroke-linecap="butt"/><path d="M194.48316,284.50477l-2.73043,6.47568l-2.3671,-6.47567c0,0 1.69096,-0.79994 2.51023,-0.79994c0.8761,0 2.5873,0.79994 2.5873,0.79994z" fill="url(#color-26)" stroke-width="0.75" stroke-linecap="round"/><path d="M199.12204,281.75651v3.89664h-1.87707v-3.89664z" fill="url(#color-27)" stroke-width="0.75" stroke-linecap="butt"/><path d="M200.6967,284.50477l-2.73042,6.47567l-2.3671,-6.47568c0,0 1.69097,-0.79994 2.51023,-0.79994c0.8761,0 2.5873,0.79994 2.5873,0.79994z" fill="url(#color-28)" stroke-width="0.75" stroke-linecap="round"/><path d="M186.69498,281.75651v3.89664h-1.87707v-3.89664z" fill="url(#color-29)" stroke-width="0.75" stroke-linecap="butt"/><path d="M188.26964,284.50477l-2.73043,6.47567l-2.3671,-6.47567c0,0 1.69096,-0.79994 2.51023,-0.79994c0.8761,0 2.5873,0.79994 2.5873,0.79994z" fill="url(#color-30)" stroke-width="0.75" stroke-linecap="round"/><path d="M174.16562,281.75651v3.89664h-1.87707v-3.89664z" fill="url(#color-31)" stroke-width="0.75" stroke-linecap="butt"/><path d="M175.74028,284.50477l-2.73043,6.47568l-2.3671,-6.47568c0,0 1.69096,-0.79994 2.51023,-0.79994c0.87609,0 2.5873,0.79994 2.5873,0.79994z" fill="url(#color-32)" stroke-width="0.75" stroke-linecap="round"/><path d="M180.37915,281.75651v3.89664h-1.87707v-3.89664z" fill="url(#color-33)" stroke-width="0.75" stroke-linecap="butt"/><path d="M181.95381,284.50477l-2.73043,6.47568l-2.3671,-6.47568c0,0 1.69097,-0.79994 2.51024,-0.79994c0.87609,0 2.5873,0.79994 2.5873,0.79994z" fill="url(#color-34)" stroke-width="0.75" stroke-linecap="round"/><path d="M167.95209,281.75651v3.89664h-1.87707v-3.89664z" fill="url(#color-35)" stroke-width="0.75" stroke-linecap="butt"/><path d="M169.52676,284.50477l-2.73043,6.47568l-2.3671,-6.47568c0,0 1.69096,-0.79994 2.51023,-0.79994c0.87609,0 2.5873,0.79994 2.5873,0.79994z" fill="url(#color-36)" stroke-width="0.75" stroke-linecap="round"/><path d="M155.42273,281.75651v3.89664h-1.87707v-3.89664z" fill="url(#color-37)" stroke-width="0.75" stroke-linecap="butt"/><path d="M156.99739,284.50477l-2.73043,6.47567l-2.3671,-6.47567c0,0 1.69096,-0.79994 2.51023,-0.79994c0.87609,0 2.5873,0.79994 2.5873,0.79994z" fill="url(#color-38)" stroke-width="0.75" stroke-linecap="round"/><path d="M161.63625,281.75651v3.89664h-1.87707v-3.89664z" fill="url(#color-39)" stroke-width="0.75" stroke-linecap="butt"/><path d="M163.21092,284.50477l-2.73043,6.47567l-2.3671,-6.47567c0,0 1.69097,-0.79994 2.51024,-0.79994c0.87609,0 2.5873,0.79994 2.5873,0.79994z" fill="url(#color-40)" stroke-width="0.75" stroke-linecap="round"/><path d="M149.20921,281.75651v3.89664h-1.87707v-3.89664z" fill="url(#color-41)" stroke-width="0.75" stroke-linecap="butt"/><path d="M150.78386,284.50477l-2.73043,6.47567l-2.3671,-6.47567c0,0 1.69096,-0.79994 2.51023,-0.79994c0.87609,0 2.5873,0.79994 2.5873,0.79994z" fill="url(#color-42)" stroke-width="0.75" stroke-linecap="round"/><path d="M81.03443,331.4v-4.07388h1.68963v4.07388z" fill="url(#color-43)" stroke-width="0.75" stroke-linecap="butt"/><path d="M79.61701,328.52674l2.45777,-6.77022l2.13073,6.77022c0,0 -1.52211,0.83633 -2.25956,0.83633c-0.78861,0 -2.32893,-0.83633 -2.32893,-0.83633z" fill="url(#color-44)" stroke-width="0.75" stroke-linecap="round"/><path d="M86.62749,331.4v-4.07388h1.68963v4.07388z" fill="url(#color-45)" stroke-width="0.75" stroke-linecap="butt"/><path d="M85.21007,328.52674l2.45777,-6.77022l2.13073,6.77022c0,0 -1.5221,0.83633 -2.25956,0.83633c-0.78861,0 -2.32893,-0.83633 -2.32893,-0.83633z" fill="url(#color-46)" stroke-width="0.75" stroke-linecap="round"/><path d="M92.31264,331.4v-4.07388h1.68963v4.07388z" fill="url(#color-47)" stroke-width="0.75" stroke-linecap="butt"/><path d="M90.89522,328.52674l2.45777,-6.77022l2.13073,6.77022c0,0 -1.52211,0.83633 -2.25956,0.83633c-0.78861,0 -2.32893,-0.83633 -2.32893,-0.83633z" fill="url(#color-48)" stroke-width="0.75" stroke-linecap="round"/><path d="M356.32877,331.25074v-4.45408h1.82071v4.45408z" fill="url(#color-49)" stroke-width="0.75" stroke-linecap="butt"/><path d="M354.8014,328.10933l2.64843,-7.40207l2.29601,7.40207c0,0 -1.64018,0.91437 -2.43485,0.91437c-0.84978,0 -2.5096,-0.91437 -2.5096,-0.91437z" fill="url(#color-50)" stroke-width="0.75" stroke-linecap="round"/><path d="M362.67292,331.25074v-4.45408h1.82071v4.45408z" fill="url(#color-51)" stroke-width="0.75" stroke-linecap="butt"/><path d="M363.79398,320.70726l2.29601,7.40207c0,0 -1.64019,0.91437 -2.43485,0.91437c-0.84978,0 -2.5096,-0.91437 -2.5096,-0.91437z" fill="url(#color-52)" stroke-width="0.75" stroke-linecap="round"/><path d="M318.97983,253.89615l2.60322,-5.26219l2.64023,5.34729l-2.66654,2.94657z" fill="url(#color-53)" stroke-width="1" stroke-linecap="butt"/></g></g></svg>