<svg version="1.1" xmlns="http://www.w3.org/2000/svg" xmlns:xlink="http://www.w3.org/1999/xlink" width="20.99512" height="36.41854" viewBox="0,0,20.99512,36.41854"><defs><linearGradient x1="240.03982" y1="162.01755" x2="240.8818" y2="176.58055" gradientUnits="userSpaceOnUse" id="color-1"><stop offset="0" stop-color="#000000"/><stop offset="1" stop-color="#000000"/></linearGradient><linearGradient x1="229.61224" y1="165.18516" x2="249.85149" y2="163.88513" gradientUnits="userSpaceOnUse" id="color-2"><stop offset="0" stop-color="#3f2e16"/><stop offset="1" stop-color="#523e22"/></linearGradient><linearGradient x1="233.1461" y1="162.02953" x2="245.93426" y2="161.2081" gradientUnits="userSpaceOnUse" id="color-3"><stop offset="0" stop-color="#3f2e16"/><stop offset="1" stop-color="#523e22"/></linearGradient><linearGradient x1="230.43942" y1="181.20839" x2="246.86238" y2="181.65247" gradientUnits="userSpaceOnUse" id="color-4"><stop offset="0" stop-color="#3f2e16"/><stop offset="1" stop-color="#523e22"/></linearGradient></defs><g transform="translate(-229.23491,-157.70822)"><g data-paper-data="{&quot;isPaintingLayer&quot;:true}" fill-rule="nonzero" stroke-linejoin="miter" stroke-miterlimit="10" stroke-dasharray="" stroke-dashoffset="0" style="mix-blend-mode: normal"><path d="M232.77149,170.48027c-0.25573,-4.42312 2.99842,-8.21196 7.26836,-8.46266c4.26991,-0.25071 7.93868,3.13169 8.19441,7.55479c0.25573,4.42312 -2.57164,7.39249 -6.84155,7.6432c-4.26991,0.25071 -8.36545,-2.3122 -8.62118,-6.7353z" fill="#000000" stroke="url(#color-1)" stroke-width="0.5" stroke-linecap="butt"/><path d="M239.35122,170.00078c0.08971,-1.43619 1.03016,-2.49367 2.10056,-2.36195c1.07039,0.13173 1.86536,1.40276 1.77567,2.83896c-0.08971,1.43619 -1.03017,2.49367 -2.10056,2.36196c-1.07039,-0.13173 -1.86536,-1.40276 -1.77567,-2.83896z" fill="#ffffff" stroke="none" stroke-width="0" stroke-linecap="butt"/><path d="M243.88004,169.50951c0.0755,-1.43542 0.93243,-2.4882 1.91398,-2.35152c0.98157,0.13668 1.71602,1.4111 1.6405,2.84651c-0.0755,1.43542 -0.93244,2.48819 -1.91399,2.35153c-0.98157,-0.13668 -1.71602,-1.41109 -1.64051,-2.84649z" fill="#ffffff" stroke="none" stroke-width="0" stroke-linecap="butt"/><path d="M249.85383,163.92166c0.08523,1.44381 -4.37743,2.88893 -9.96762,3.22775c-5.59022,0.33882 -10.19108,-0.55695 -10.27631,-2.00077c-0.08523,-1.44381 4.37744,-2.88893 9.96762,-3.22775c5.59022,-0.33882 10.19106,0.55697 10.27631,2.00077z" fill="url(#color-2)" stroke="#000000" stroke-width="0.75" stroke-linecap="butt"/><path d="M233.21763,163.07228c0.099,-0.43224 0.32789,-1.01533 0.43429,-1.61849c0.12413,-0.70371 0.11886,-1.40105 0.11886,-1.40105c0,0 3.58106,-2.19665 6.04672,-2.34452c2.46565,-0.14789 5.66421,1.62682 5.68315,1.94591c0.02665,0.44825 0.16852,1.5108 0.47914,2.40563c0.26651,0.76766 -3.24734,3.29656 -6.67856,3.4664c-3.12411,0.15464 -6.18933,-1.99219 -6.08362,-2.45388z" fill="url(#color-3)" stroke="#000000" stroke-width="0.75" stroke-linecap="butt"/><path d="M243.26629,184.62251c0,0 -0.46158,2.43549 -0.91982,3.64267c-0.28258,0.74444 -0.26216,1.86893 -0.59204,3.00366c-0.20328,0.69928 -0.85652,1.60792 -0.85652,1.60792" fill="none" stroke="#000000" stroke-width="2.5" stroke-linecap="round"/><path d="M238.19782,184.68137c0,0 -0.53574,2.42706 -0.9768,3.63979c-0.19722,0.54224 -0.17241,1.61367 -0.52009,2.74752c-0.20176,0.658 -0.77327,1.54862 -0.77327,1.54862" fill="none" stroke="#000000" stroke-width="2.5" stroke-linecap="round"/><path d="M230.47685,186.86884c0.13531,-0.34976 -0.14914,-1.71019 0.33244,-2.3308c0.54635,-0.70407 1.02981,-1.15275 1.18757,-1.59201c0.0969,-0.26977 -0.14208,-0.90947 -0.14849,-1.18382c-0.01579,-0.67524 0.49847,-0.70361 0.74087,-1.3321c0.1816,-0.47085 0.00505,-1.25349 0.30114,-1.58749c0.51008,-0.57543 0.78467,-1.00454 0.92968,-1.42594c0.17147,-0.49833 -0.06889,-0.81514 -0.18784,-1.32527c-0.17545,-0.75246 -0.16887,-2.45642 -0.16887,-2.45642c0,0 4.557,3.0913 6.96973,3.18274c2.47181,0.09368 5.79588,-2.00191 5.79588,-2.00191c0,0 0.17112,1.80982 0.09992,2.47975c0.19684,0.8437 0.42379,1.63702 0.57514,2.1708c0.12583,0.44379 -0.81694,1.70731 -0.66885,2.18166c0.07708,0.24689 0.66837,0.75385 0.46408,1.52559c-0.21125,0.79805 -0.91176,1.57488 -1.0233,1.94423c-0.08586,0.28432 0.15523,1.5719 0.11337,2.20179c-0.07724,1.16282 -1.04427,0.79169 -1.04427,0.79169c0,0 0.17317,0.00542 -1.77819,-0.17664c-1.18595,-0.11067 -3.26404,0.92052 -4.51883,0.43089c-2.80917,-1.09611 -3.96621,-0.16139 -5.12152,-0.19933c-1.45279,-0.04769 -1.98191,0.72178 -1.98191,0.72178c0,0 -1.63551,-0.03474 -0.86778,-2.01921z" fill="url(#color-4)" stroke="#000000" stroke-width="1" stroke-linecap="butt"/><path d="M242.26813,177.10764c0,0 -0.2125,0.88871 -0.23445,1.62095c-0.00769,0.25635 0.1876,1.02173 0.24463,1.45769c0.05082,0.38857 -0.05087,0.87244 -0.05086,1.34718c0.00002,0.23141 -0.42353,0.59122 -0.45107,0.94017c-0.03879,0.49147 0.31376,0.99165 0.30653,1.34428c-0.00642,0.31333 -0.43815,0.72441 -0.32286,1.31639c0.11237,0.57702 0.428,1.14821 0.44192,1.41802c0.07975,1.54569 -0.40258,1.08447 -0.40258,1.08447" fill="none" stroke="#000000" stroke-width="0.5" stroke-linecap="round"/><path d="M241.52415,178.44871c0.01011,-0.30416 0.27158,-0.54232 0.58401,-0.53194c0.31243,0.01038 0.55751,0.26536 0.54742,0.56952c-0.01011,0.30416 -0.27157,0.54232 -0.58399,0.53194c-0.31243,-0.01038 -0.55752,-0.26536 -0.54743,-0.56952z" fill="#000000" stroke="#000000" stroke-width="0.5" stroke-linecap="butt"/><path d="M241.58998,180.62182c0.01011,-0.30416 0.27157,-0.54232 0.584,-0.53194c0.31243,0.01038 0.55752,0.26536 0.54743,0.56952c-0.01011,0.30416 -0.27157,0.54232 -0.584,0.53194c-0.31243,-0.01038 -0.55752,-0.26536 -0.54743,-0.56952z" fill="#000000" stroke="#000000" stroke-width="0.5" stroke-linecap="butt"/><path d="M241.30833,182.90803c0.01011,-0.30416 0.27157,-0.54232 0.58399,-0.53194c0.31243,0.01038 0.55752,0.26536 0.54743,0.56953c-0.01011,0.30416 -0.27158,0.54231 -0.58401,0.53194c-0.31243,-0.01038 -0.55751,-0.26536 -0.54742,-0.56952z" fill="#000000" stroke="#000000" stroke-width="0.5" stroke-linecap="butt"/><path d="M241.23151,185.1355c0.01011,-0.30416 0.27156,-0.54232 0.58399,-0.53194c0.31243,0.01038 0.55752,0.26536 0.54743,0.56953c-0.01011,0.30416 -0.27158,0.54232 -0.58401,0.53194c-0.31243,-0.01038 -0.5575,-0.26537 -0.54741,-0.56953z" fill="#000000" stroke="#000000" stroke-width="0.5" stroke-linecap="butt"/></g></g></svg>