<svg version="1.1" xmlns="http://www.w3.org/2000/svg" xmlns:xlink="http://www.w3.org/1999/xlink" width="84.08663" height="76.66024" viewBox="0,0,84.08663,76.66024"><defs><linearGradient x1="245.923" y1="139.35255" x2="247.62531" y2="134.95511" gradientUnits="userSpaceOnUse" id="color-1"><stop offset="0" stop-color="#320000"/><stop offset="1" stop-color="#ff0000"/></linearGradient><radialGradient cx="256.07961" cy="146.4409" r="8.39357" gradientUnits="userSpaceOnUse" id="color-2"><stop offset="0" stop-color="#a2a2a2"/><stop offset="1" stop-color="#747474"/></radialGradient><radialGradient cx="246.23575" cy="137.67081" r="6.68585" gradientUnits="userSpaceOnUse" id="color-3"><stop offset="0" stop-color="#383838"/><stop offset="1" stop-color="#181818"/></radialGradient><linearGradient x1="246.01032" y1="138.17616" x2="247.5852" y2="133.73152" gradientUnits="userSpaceOnUse" id="color-4"><stop offset="0" stop-color="#320000"/><stop offset="1" stop-color="#ff0000"/></linearGradient><radialGradient cx="245.72416" cy="169.78525" r="7.23763" gradientUnits="userSpaceOnUse" id="color-5"><stop offset="0" stop-color="#a2a2a2"/><stop offset="1" stop-color="#747474"/></radialGradient><radialGradient cx="234.77346" cy="170.17905" r="7.07005" gradientUnits="userSpaceOnUse" id="color-6"><stop offset="0" stop-color="#a2a2a2"/><stop offset="1" stop-color="#747474"/></radialGradient><radialGradient cx="241.10286" cy="153.26378" r="10.2108" gradientUnits="userSpaceOnUse" id="color-7"><stop offset="0" stop-color="#6e6e6e"/><stop offset="1" stop-color="#a2a2a2"/></radialGradient></defs><g transform="translate(-215.02165,-118.66929)"><g data-paper-data="{&quot;isPaintingLayer&quot;:true}" fill-rule="nonzero" stroke="#000000" stroke-linejoin="miter" stroke-miterlimit="10" stroke-dasharray="" stroke-dashoffset="0" style="mix-blend-mode: normal"><path d="M250.24003,162.62015l-0.8,-16.8l6.8,-0.6c0,0 -1.4,4.96744 -1.4,7.8c0,1.30912 0.48545,2.15255 0.79856,4.00024c0.38032,2.24427 -0.19856,4.59976 -0.19856,4.59976c0,0 -4.96527,4.2 -5.8,4.2c-1.90753,0 0.6,-3.2 0.6,-3.2z" fill="#171513" stroke-width="1.5" stroke-linecap="butt"/><path d="M248.84888,137.95698l-2.92587,1.39556l-1.22357,-3.00188l2.92588,-1.39557z" fill="url(#color-1)" stroke-width="1" stroke-linecap="butt"/><path d="M232.09804,144.07242c0,0 -0.64518,-3.20611 0.52446,-4.25047c0.81208,-0.72508 1.73133,-0.24833 1.99202,0.63022c0.28504,0.96065 -0.30917,2.5717 -0.24618,2.60625c0.04016,0.02202 1.99065,-1.51252 2.85774,-0.7227c0.86711,0.78984 0.58355,2.59384 -0.05497,2.95401c-0.75299,0.42472 -2.27439,0.55308 -2.27439,0.55308l-4.38402,9.67605c0,0 0.97037,0.77149 0.99589,1.98481c0.03301,1.56962 -1.25317,2.30977 -2.07789,1.84501c-0.8247,-0.46473 -1.02943,-3.04656 -1.18401,-3.1612c-0.14724,-0.10921 -1.36285,1.56922 -2.24392,0.9561c-0.88108,-0.61311 -1.13349,-1.41265 -0.61381,-2.94468c0.31252,-0.92141 2.22939,-0.71355 2.22939,-0.71355z" data-paper-data="{&quot;index&quot;:null}" fill="#464646" stroke-width="1.5" stroke-linecap="butt"/><path d="M225.65861,158.50564c0,0 -0.28456,-2.78618 0.79886,-3.57954c0.7522,-0.5508 1.49627,-0.06834 1.64576,0.70207c0.16344,0.84241 -0.47641,2.16644 -0.42558,2.20109c0.03243,0.02209 1.82197,-1.12443 2.49567,-0.37944c0.67371,0.745 0.28269,2.2592 -0.29138,2.51334c-0.67698,0.29969 -1.98439,0.28317 -1.98439,0.28317l-4.53773,7.88463c0,0 0.76327,0.73793 0.68457,1.77422c-0.10178,1.34063 -1.25936,1.86504 -1.92385,1.40062c-0.66448,-0.46438 -0.62525,-2.68198 -0.74751,-2.79249c-0.11646,-0.10527 -1.29155,1.22472 -1.99178,0.6292c-0.70026,-0.59554 -0.84923,-1.29791 -0.27945,-2.56075c0.34265,-0.75951 1.95932,-0.42364 1.95932,-0.42364z" data-paper-data="{&quot;index&quot;:null}" fill="#464646" stroke-width="1.5" stroke-linecap="butt"/><path d="M215.74884,174.00031c-0.78152,-0.00372 0.64992,-4.00417 1.32793,-5.01762c1.54696,-2.31223 2.77107,-2.64383 4.25259,-2.07863c0.76097,0.29031 0.87907,-0.04803 1.21369,0.73335c0.39843,0.93036 0.94216,3.08367 0.10136,4.34042c-0.04703,0.07029 -2.48972,4.01141 -3.27461,3.62853c-0.70013,-0.14555 1.79543,-3.87937 1.72677,-3.79178c-0.40812,0.52065 -2.42353,3.23362 -3.02462,3.1259c-0.51212,-0.09177 1.81514,-3.8474 1.47872,-3.47526c-0.54763,0.60578 -1.97776,2.99378 -2.84146,2.62006c-0.41465,-0.18045 1.14561,-1.78108 1.24093,-3.17952c0.04902,-0.71919 -1.31087,3.09881 -2.20128,3.09455z" data-paper-data="{&quot;index&quot;:null}" fill="#464646" stroke-width="1" stroke-linecap="butt"/><path d="M260.86527,146.34286c0,0 1.04009,-1.28242 1.7858,-0.91069c1.23992,0.61806 1.56864,1.2564 1.40271,2.16054c-0.16592,0.90413 -1.91726,0.61679 -1.94091,0.77199c-0.02485,0.16293 1.40776,1.85614 1.18661,2.63605c-0.22114,0.77995 -1.4495,1.10564 -2.37605,0.1314c-0.71623,-0.75309 -0.59151,-1.80738 -0.59151,-1.80738l-8.501,-3.23905c0,0 -1.00241,0.83949 -1.71638,1.03539c-0.60542,0.1661 -1.86582,-0.75972 -1.81496,-1.76287c0.05086,-1.00314 2.1622,-1.24646 2.17334,-1.28407c0.01746,-0.05898 -1.31542,-0.68015 -1.72149,-1.43612c-0.37136,-0.69139 -0.09997,-1.53564 0.83106,-1.58454c1.34099,-0.07044 2.88229,2.26797 2.88229,2.26797z" data-paper-data="{&quot;index&quot;:null}" fill="url(#color-2)" stroke-width="1.5" stroke-linecap="butt"/><path d="M295.80652,165.24261c0,0 1.49026,0.71099 1.30342,1.52299c-0.31062,1.35015 -0.85429,1.81917 -1.77214,1.86949c-0.91784,0.05034 -1.04847,-1.71961 -1.20488,-1.70627c-0.16423,0.01398 -1.47503,1.80314 -2.28504,1.77071c-0.81004,-0.03241 -1.41423,-1.15041 -0.68397,-2.27927c0.56449,-0.87261 1.61868,-0.99818 1.61868,-0.99818l1.15906,-9.02303c0,0 -1.05082,-0.77805 -1.40841,-1.42632c-0.30321,-0.54972 0.30185,-1.99182 1.28904,-2.1772c0.98718,-0.18538 1.71797,1.81034 1.75715,1.81236c0.06144,0.00316 0.35332,-1.43807 0.99325,-2.00983c0.58523,-0.52288 1.46956,-0.45668 1.73505,0.43703c0.3824,1.28725 -1.53024,3.3331 -1.53024,3.3331z" data-paper-data="{&quot;index&quot;:null}" fill="#464646" stroke-width="1.5" stroke-linecap="butt"/><path d="M296.56936,173.04329c-0.24984,-1.72142 -0.4201,-3.23245 -0.48964,-2.90133c-0.09941,0.47326 0.06229,1.72787 0.06332,3.13464c0.00194,2.67079 -0.64436,2.69041 -1.11097,0.12018c-0.28076,-1.54656 -0.50853,-2.87626 -0.64471,-3.15115c-0.1017,-0.2053 0.14477,0.52394 0.33273,3.05927c0.22359,3.01594 2.23942,0.69753 1.95812,0.66993c-0.34839,-0.03418 -2.47996,1.35592 -3.02164,-0.66456c-0.40329,-1.50427 -0.7446,-2.88718 -0.85188,-3.14832c-0.03702,-0.09012 0.41337,3.28988 0.06318,3.16854c-0.04984,-0.01725 -0.84615,-0.03808 -0.89765,-0.2205c-0.45435,-1.60927 -0.68582,-3.16927 -0.69951,-3.21139c-0.46781,-1.43789 0.64037,-3.36253 1.27653,-4.14967c0.5343,-0.6611 0.55606,-0.30341 1.36727,-0.37611c1.57936,-0.14152 2.66738,0.51012 3.5281,3.15562c0.1789,0.54987 0.41344,2.60475 0.53028,4.59125c0,0 -1.12108,1.8697 -1.40352,-0.0764z" data-paper-data="{&quot;index&quot;:null}" fill="#464646" stroke-width="1" stroke-linecap="butt"/><g data-paper-data="{&quot;index&quot;:null}"><path d="M250.22939,137.77237c0,0 -7.68326,21.18146 -10.44958,28.80771c-1.82198,5.02292 -4.63577,12.46035 -4.63577,12.46035c0,0 -2.18135,4.49473 -3.42289,6.32937c-1.34054,1.9809 -4.93278,6.02598 -4.93278,6.02598c0,0 0.18472,-5.42485 0.404,-7.6473c0.23224,-2.35407 1.5904,-7.12381 1.5904,-7.12381c0,0 2.46274,-7.45223 4.19353,-12.45526c2.64306,-7.64003 10.01883,-28.9604 10.01883,-28.9604z" fill="#ffffff" stroke-width="1.5" stroke-linecap="butt"/><path d="M247.01943,139.32388l-12.24457,34.5565c0,0 -2.0314,5.09086 -2.83199,6.70513c-0.41541,0.8376 -1.49453,2.45835 -1.86065,2.31285c-0.39572,-0.15726 -0.05525,-2.1502 0.15726,-3.07183c0.43333,-1.87941 2.09966,-6.9442 2.09966,-6.9442l12.20208,-34.4366z" fill="#656565" stroke-width="1" stroke-linecap="butt"/><path d="M254.22525,120.4747l-6.10458,17.22826l-3.29384,-1.16712l6.10459,-17.22827z" fill="#331b08" stroke-width="1" stroke-linecap="butt"/><path d="M250.70918,120.09277l2.30416,1.93897l-2.60082,0.50129l1.74094,1.56543l-2.81366,0.74206l2.13065,1.54543l-2.75011,0.92265l1.86803,1.92666l-2.77765,0.28054l2.09465,2.00697l-3.14129,0.55038l2.26518,1.53801l-3.12356,0.92101l2.25772,1.90665" fill="none" stroke-width="0.75" stroke-linecap="round"/><path d="M252.77732,142.25947l-3.03793,-1.16713l-1.45857,0.64783c0,0 -0.34106,-1.19482 -0.69742,-1.32108c-0.96851,-0.34319 -3.93496,-1.39429 -3.93496,-1.39429l-1.47083,0.6423l-0.95104,-1.48861l-2.63896,-0.94694c0,0 -1.07407,-2.08217 -0.84849,-2.71878c0.27064,-0.76377 1.89406,-1.54435 1.89406,-1.54435c0,0 1.42709,0.95845 2.70813,1.41237c0.65335,0.23149 1.33199,-0.15452 2.13018,0.12832c0.87586,0.31035 1.4329,1.7607 2.2979,2.06719c0.81085,0.28732 1.94016,-0.56549 2.46548,-0.37936c0.94219,0.33386 1.51502,1.07381 2.5233,1.43107c1.05997,0.37558 2.53255,0.36039 2.53255,0.36039c0,0 0.72317,1.93614 0.4717,2.64582c-0.25298,0.71397 -1.98512,1.62525 -1.98512,1.62525z" fill="#3e0d0d" stroke-width="1" stroke-linecap="butt"/><path d="M253.60488,136.89188l-0.89708,2.53173l-2.40336,2.85762c0,0 -0.39529,-3.17586 -1.43539,-3.85754c-0.77211,-0.19716 -1.95662,2.07464 -1.95662,2.07464l-2.08436,1.53765l-0.94576,-2.58323c0,0 0.49802,-2.48855 0.02112,-2.65753c-0.83568,-0.29611 -3.26967,2.1624 -3.26967,2.1624l-0.52981,-4.00001l0.89708,-2.53173l2.27634,-0.66735l1.26593,1.92251c0,0 1.47622,1.89874 2.45015,2.24386c0.95297,0.33768 2.9868,-0.31735 2.9868,-0.31735l2.43065,-0.31789z" fill="url(#color-3)" stroke-width="1" stroke-linecap="butt"/><path d="M248.89478,136.69689l-2.88444,1.47929l-1.30955,-2.96538l2.88445,-1.4793z" fill="url(#color-4)" stroke-width="1" stroke-linecap="butt"/></g><path d="M247.79704,189.29162c0,0 1.562,0.85023 1.45323,1.7901c-0.18085,1.56275 -0.68031,2.09843 -1.59519,2.14172c-0.91487,0.0433 -1.21672,-2.01422 -1.37217,-2.00132c-0.16321,0.01354 -1.30386,2.06956 -2.11868,2.01854c-0.81483,-0.05101 -1.52827,-1.35927 -0.90554,-2.65812c0.48136,-1.00401 1.52558,-1.13241 1.52558,-1.13241l0.28984,-10.45892c0,0 -1.12814,-0.92085 -1.54908,-1.67957c-0.35694,-0.64337 0.11005,-2.30803 1.08136,-2.507c0.97129,-0.19898 1.89638,2.13064 1.93582,2.13363c0.06187,0.00469 0.21513,-1.66416 0.80113,-2.31753c0.53592,-0.59753 1.42846,-0.50604 1.78082,0.53617c0.50752,1.50112 -1.21141,3.84533 -1.21141,3.84533z" data-paper-data="{&quot;index&quot;:null}" fill="#464646" stroke-width="1.5" stroke-linecap="butt"/><path d="M235.63163,188.88323c0,0 1.51312,0.91645 1.38966,1.83142c-0.20529,1.52136 -0.70374,2.01951 -1.5998,2.01303c-0.89605,-0.00646 -1.15417,-2.03835 -1.30652,-2.03401c-0.15995,0.00455 -1.31341,1.9579 -2.10984,1.86436c-0.79644,-0.09351 -1.47091,-1.41334 -0.838,-2.65256c0.48925,-0.95793 1.51341,-1.02792 1.51341,-1.02792l0.47304,-10.23124c0,0 -1.08728,-0.96244 -1.48547,-1.72826c-0.33765,-0.64939 0.14948,-2.25532 1.10358,-2.39837c0.95407,-0.14305 1.81717,2.18875 1.85571,2.19379c0.06045,0.00791 0.24066,-1.61892 0.82594,-2.22771c0.53527,-0.55677 1.407,-0.41945 1.73295,0.62045c0.46945,1.49778 -1.25509,3.70259 -1.25509,3.70259z" data-paper-data="{&quot;index&quot;:null}" fill="#464646" stroke-width="1.5" stroke-linecap="butt"/><path d="M247.48661,174.36121c0,0 1.4035,0.64395 1.36498,1.46456c-0.06403,1.36446 -0.46495,1.85811 -1.25491,1.94984c-0.78995,0.09173 -1.17338,-1.67272 -1.30728,-1.65233c-0.14058,0.0214 -1.00682,1.87006 -1.71569,1.87416c-0.70888,0.00411 -1.40444,-1.08689 -0.94198,-2.24895c0.35747,-0.89827 1.25443,-1.07139 1.25443,-1.07139l-0.36885,-9.07733c0,0 -1.03185,-0.73083 -1.44145,-1.36312c-0.34734,-0.53617 -0.04147,-2.00588 0.78814,-2.23582c0.8296,-0.22994 1.76905,1.73329 1.80339,1.73354c0.05388,0.00039 0.08772,-1.45435 0.55661,-2.05507c0.42883,-0.54939 1.20742,-0.52303 1.57443,0.35891c0.52862,1.27028 -0.82147,3.40285 -0.82147,3.40285z" data-paper-data="{&quot;index&quot;:null}" fill="url(#color-5)" stroke-width="1.5" stroke-linecap="butt"/><path d="M235.93409,174.89185c0,0 1.28422,0.84268 1.14839,1.63276c-0.22585,1.31367 -0.674,1.73029 -1.45132,1.69656c-0.77732,-0.03372 -0.93755,-1.80493 -1.06988,-1.80594c-0.13894,-0.00107 -1.20109,1.65771 -1.88924,1.55156c-0.68815,-0.10612 -1.232,-1.27253 -0.64393,-2.32797c0.45458,-0.81587 1.34546,-0.84447 1.34546,-0.84447l0.73141,-8.86301c0,0 -0.91326,-0.86923 -1.23476,-1.54624c-0.27261,-0.57408 0.20046,-1.95229 1.03284,-2.04649c0.83236,-0.0942 1.50813,1.95622 1.54142,1.9618c0.05221,0.00876 0.25961,-1.39721 0.78656,-1.90712c0.48193,-0.46633 1.23405,-0.31983 1.48425,0.59274c0.36037,1.31438 -1.20522,3.17344 -1.20522,3.17344z" data-paper-data="{&quot;index&quot;:null}" fill="url(#color-6)" stroke-width="1.5" stroke-linecap="butt"/><path d="M238.69764,159.93874c0.38593,-1.40247 0.65067,-1.81359 0.85551,-3.33072c0.28883,-2.25791 -6.16819,1.50955 -5.90328,-2.03879c0.2649,-3.54835 5.84931,-0.3473 6.16004,-2.29769c-0.07012,-3.16744 -6.01468,1.17646 -6.08923,-2.58714c-0.07455,-3.7636 6.13472,-0.30589 6.2671,-2.14519c0.32685,-1.62496 -1.30164,-1.23804 -2.72877,-1.58961c-0.14879,-0.03665 -3.16311,0.37174 -3.58179,-1.27802c-0.45487,-1.79235 2.64124,-1.82943 2.64124,-1.82943c0,0 1.32403,0.43636 2.5278,0.43636c0.21252,0 -0.0848,-3.53214 0.19398,-3.53962c0.66314,-0.0178 3.80628,-0.03856 3.80628,-0.03856c0,0 -0.18757,3.4206 0.14623,3.4206c1.67442,0 3.08596,-0.18788 3.08596,-0.18788c0,0 1.99028,0.55078 2.08101,1.72942c0.04877,0.63349 -1.74755,0.83943 -3.31367,1.25331c-1.34776,0.35618 -2.62432,-0.02375 -2.67681,1.31947c-0.17387,2.73769 5.96267,-1.39665 6.04299,2.30954c0.08032,3.70619 -6.05846,0.1706 -6.00714,2.63556c-0.07791,2.14862 6.03656,-0.92075 5.98982,2.35658c-0.04674,3.27733 -6.05265,-0.2247 -5.98408,2.13849c0.00261,1.14462 0.15715,2.21057 0.40403,3.331c1.01399,4.60181 4.63105,-1.48961 5.92392,2.54351c1.29288,4.03312 -0.70747,2.79682 -3.77574,4.15776c-1.04358,0.46288 -3.37293,-2.8288 -4.2686,-2.66388c-1.77908,0.3276 -2.78784,2.77782 -3.61649,2.7832c-2.20942,0.01436 -4.37109,-0.79041 -3.35003,-4.06799c0,0 0.41346,-0.67088 1.73167,-1.0324c1.01898,-0.27945 2.92271,0.08482 3.43804,-1.78788z" data-paper-data="{&quot;index&quot;:null}" fill="url(#color-7)" stroke-width="1.5" stroke-linecap="butt"/><path d="M245.38295,143.99629l-2.59365,0.00786l0.06663,-1.71721l-0.46864,-0.0093l-0.02632,1.76361l-2.73045,-0.03914l0.00895,-1.74555l-0.41929,-0.00552l-0.08546,1.77484l-2.31368,-0.02477c0,0 -0.49067,-1.30803 -0.48567,-2.00018c-0.30269,-0.73094 -0.18858,-2.38204 -0.47933,-2.74743c-1.6384,-0.44413 -2.51365,-1.40593 -2.48967,-4.53094c0.04627,-6.02554 2.84378,-9.67044 7.35517,-9.6256c4.51138,0.04485 7.90299,3.91834 7.8567,9.9439c0,0 -0.17998,3.9146 -2.01941,4.17479c-0.55648,0.93123 -0.55337,1.66644 -0.80479,2.6641z" fill="#464646" stroke-width="1.5" stroke-linecap="butt"/><path d="M242.83968,134.29619c0,-1.29819 0.92494,-0.75054 2.06594,-0.75054c1.141,0 2.06594,-0.54763 2.06594,0.75054c0,1.29819 -0.92495,2.35054 -2.06594,2.35054c-1.141,0 -2.06594,-1.05237 -2.06594,-2.35054z" fill="#1d1d1d" stroke-width="1" stroke-linecap="butt"/><g stroke-width="1"><path d="M229.58941,194.33057c0,0 -0.65804,-1.26954 -0.65804,-1.87107c0,-0.64307 1.80303,-1.49686 1.80303,-1.49686c0,0 1.89489,0.24948 3.13622,0.24948c1.34557,0 2.70323,-0.49895 2.70323,-0.49895c0,0 2.12152,0.94877 2.12152,1.6216c0,0.54936 -0.97653,1.99581 -0.97653,1.99581c0,0 -2.78393,0.49895 -4.1167,0.49895c-1.25825,0 -4.01273,-0.49895 -4.01273,-0.49895z" fill="#464646" stroke-linecap="butt"/><path d="M231.89354,192.83371l-1.24738,1.74634" fill="none" stroke-linecap="round"/><path d="M233.63988,194.70479v-1.87107" fill="none" stroke-linecap="round"/><path d="M236.50886,194.58005l-0.74843,-1.6216" fill="none" stroke-linecap="round"/></g><g stroke-width="1"><path d="M241.69949,194.12712c0,0 -0.65804,-1.26953 -0.65804,-1.87107c0,-0.64307 1.80303,-1.49686 1.80303,-1.49686c0,0 1.89489,0.24948 3.13622,0.24948c1.34556,0 2.70322,-0.49895 2.70322,-0.49895c0,0 2.12152,0.94878 2.12152,1.6216c0,0.54936 -0.97653,1.99581 -0.97653,1.99581c0,0 -2.78392,0.49896 -4.11669,0.49896c-1.25825,0 -4.01273,-0.49896 -4.01273,-0.49896z" fill="#464646" stroke-linecap="butt"/><path d="M244.00363,192.63027l-1.24738,1.74633" fill="none" stroke-linecap="round"/><path d="M245.74997,192.63026v1.87107" fill="none" stroke-linecap="round"/><path d="M248.61895,194.3766l-0.74843,-1.6216" fill="none" stroke-linecap="round"/></g><path d="M236.73968,134.19619c0,-1.29819 0.92494,-0.75054 2.06594,-0.75054c1.141,0 2.06594,-0.54763 2.06594,0.75054c0,1.29819 -0.92495,2.35054 -2.06594,2.35054c-1.141,0 -2.06594,-1.05237 -2.06594,-2.35054z" fill="#1d1d1d" stroke-width="1" stroke-linecap="butt"/><g fill="#171513" stroke-width="1.5" stroke-linecap="butt"><path d="M231.96819,179.92298c0.07022,-0.21913 -1.62514,-2.30249 -1.53984,-2.51899c0.63736,-1.61774 2.96603,-3.88908 2.67517,-4.87048c-0.23561,-0.795 -0.0299,-2.19956 -0.27588,-3.66627c-0.04318,-0.2575 1.03839,-8.95112 1.03839,-8.95112c0,0 2.51474,-6.18716 2.81443,-6.12596c1.6288,0.33265 3.27181,1.58943 4.54409,1.58943c1.57828,0 1.70412,-1.05476 3.91332,-1.43535c3.87894,-0.66824 3.31677,4.33369 3.31677,4.33369c0,0 1.45267,2.66192 1.74759,3.89105c0.30288,1.26227 -0.59572,4.08988 -0.59572,4.08988c0,0 2.524,4.93102 0.43744,5.88899c-1.36285,0.62572 0.27046,4.89851 -0.90971,5.5544c-0.24986,0.13886 -0.06734,1.94708 -1.26184,2.70652c-0.91979,0.58479 -2.74456,-0.2659 -3.60464,-0.0498c-0.21936,0.05511 -0.45735,-1.51704 -0.71734,-2.11737c-0.44795,-1.03433 -0.48072,-1.90818 -0.78664,-3.58254c-0.32687,-1.78899 -0.93725,-3.5426 -1.78284,-3.57044c-1.03523,-0.03408 -2.09601,2.36978 -2.49312,4.71887c-0.38542,2.27998 -0.11087,3.69018 -0.84333,4.33636c-1.0625,0.93735 -4.15634,0.13504 -4.15634,0.13504c0,0 -2.26486,1.96847 -1.51996,-0.35592z" data-paper-data="{&quot;index&quot;:null}"/><path d="M240.20267,162.55443l3.4,-6.45195l6.2,-3.02435c0,0 0.6996,2.61853 1.44048,4.01058c0.51865,0.9745 0.75951,2.64448 0.75951,3.4495c0,1.46142 -1.6,5.04059 -1.6,5.04059c0,0 -2.97413,1.44886 -5.1726,1.18196c-1.02164,-0.12403 -1.96215,-1.88325 -2.52552,-2.04552c-1.94263,-0.55955 -2.50188,-2.16079 -2.50188,-2.16079z"/><path d="M232.42272,162.2432c0.70473,-1.78967 -0.3986,-3.32952 -0.78921,-4.40217c-0.32807,-0.90088 0.56988,-2.1544 -0.17548,-3.88103c-1.40956,-3.26524 -1.242,-7.01834 -1.242,-7.01834c0,0 0.81099,-7.88924 4.70861,-7.24141c1.92926,0.32066 3.87536,1.53215 5.38233,1.53215c1.86942,0 2.01848,-1.01675 4.63521,-1.38362c4.59449,-0.64416 3.92862,4.17751 3.92862,4.17751c0,0 1.72063,2.56599 2.06996,3.75083c0.35875,1.21678 0.71575,3.9425 0.71575,3.9425c0,0 -2.63663,4.48607 -5.10809,5.40953c-1.61426,0.60317 0.01792,2.60833 -1.37996,3.24059c-1.23163,0.55706 -0.91874,3.31926 -1.02993,3.39101c-0.28315,0.18273 -1.89409,-1.10556 -3.06546,-0.80253c-1.48107,0.38315 -2.61862,2.37942 -3.46584,2.78327c-3.1092,1.48212 -5.51621,0.65907 -5.51621,0.65907c0,0 -0.55061,-1.91673 0.3317,-4.15736z"/></g><path d="M263.942,155.60207c0,0 -1.71677,-1.15929 -3.63281,-2.53133c-0.66079,-0.47317 -2.41627,-4.79148 -5.01257,-5.57248c-3.36889,-1.0134 -5.1355,-1.13888 -5.1355,-1.13888c0,0 -3.20974,-1.35394 -2.94348,-2.68925c0.35629,-1.7869 0.67339,-2.62819 1.2547,-3.45655c0.95709,-1.36382 6.01146,-1.35852 6.01146,-1.35852c0,0 2.25581,3.06721 5.46589,4.93475c2.30953,1.34363 3.53577,1.55327 4.82348,2.67676c1.02892,0.8977 2.88232,2.37475 4.01209,3.83422c1.00186,1.29423 1.34712,2.63586 1.34712,2.63586c0,0 -1.24486,0.45622 -1.76251,1.76432c-0.62375,1.5762 -4.42789,0.90113 -4.42789,0.90113z" fill="#171513" stroke-width="1.5" stroke-linecap="butt"/><path d="M240.33732,160.21964c0,0 -2.1317,-1.34111 -2.60475,-3.12087c-0.28869,-1.08612 0.08303,-3.06664 -0.16852,-5.19465c-0.24854,-2.1025 -1.75158,-2.06781 -2.07048,-3.50398c-0.2151,-0.96869 0.68472,-3.82792 0.68472,-3.82792" fill="none" stroke-width="1.5" stroke-linecap="round"/></g></g></svg>