<svg version="1.1" xmlns="http://www.w3.org/2000/svg" xmlns:xlink="http://www.w3.org/1999/xlink" width="505.83996" height="394.16894" viewBox="0,0,505.83996,394.16894"><g transform="translate(23.63673,32.67472)"><g data-paper-data="{&quot;isPaintingLayer&quot;:true}" fill-rule="nonzero" stroke-linejoin="miter" stroke-miterlimit="10" stroke-dasharray="" stroke-dashoffset="0" style="mix-blend-mode: normal"><path d="M403.51969,359.9972v-120h78.68354v120z" data-paper-data="{&quot;index&quot;:null}" fill="#000000" stroke="none" stroke-width="0" stroke-linecap="butt"/><path d="M414.58958,170.06868v-169.19704h64.64312v169.19704z" data-paper-data="{&quot;index&quot;:null}" fill="#000000" stroke="#000000" stroke-width="1" stroke-linecap="butt"/><path d="M136.81232,360.28255v-42.65694h267.3033v42.65694z" fill="#000000" stroke="none" stroke-width="0" stroke-linecap="butt"/><path d="M62.50759,361.17522v-21.14211h37v21.14211z" fill="#000000" stroke="none" stroke-width="0" stroke-linecap="butt"/><path d="M215.47047,-0.43532v65.53454h-216.17117v-65.53454z" data-paper-data="{&quot;index&quot;:null}" fill="#000000" stroke="none" stroke-width="0" stroke-linecap="butt"/><path d="M-0.4943,216.17735v-155h130.78994v155z" fill="#000000" stroke="none" stroke-width="0" stroke-linecap="butt"/><path d="M214.50762,58.17737v-7h25.33333v7z" fill="#000000" stroke="none" stroke-width="0" stroke-linecap="butt"/><path d="M284.50758,110.67737v-24h71v24z" fill="#000000" stroke="none" stroke-width="0" stroke-linecap="butt"/><path d="M260.50757,318.17733v-85h39v85z" fill="#000000" stroke="none" stroke-width="0" stroke-linecap="butt"/><path d="M297.50757,321.17733v-47.27778h46v47.27778z" fill="#000000" stroke="none" stroke-width="0" stroke-linecap="butt"/><path d="M176.50763,190.67737v-82h179v82z" fill="#000000" stroke="none" stroke-width="0" stroke-linecap="butt"/><path d="M348.50763,186.89078v-6.07317h30v6.07317z" fill="#000000" stroke="none" stroke-width="0" stroke-linecap="butt"/><path d="M389.00763,125.17737v-6h27v6z" fill="#000000" stroke="none" stroke-width="0" stroke-linecap="butt"/><path d="M224.66945,317.67733v-56.5" fill="none" stroke="#000000" stroke-width="8" stroke-linecap="round"/><path d="M206.56375,272.09398l16.25,16.25" fill="none" stroke="#000000" stroke-width="8" stroke-linecap="round"/><path d="M195.06375,272.09398c0,-5.52285 4.47716,-10 10,-10c5.52284,0 10,4.47715 10,10c0,5.52285 -4.47716,10 -10,10c-5.52284,0 -10,-4.47715 -10,-10z" fill="#000000" stroke="#000000" stroke-width="0" stroke-linecap="butt"/><path d="M214.56375,258.34398c0,-5.38477 4.36523,-9.75 9.75,-9.75c5.38477,0 9.75,4.36523 9.75,9.75c0,5.38477 -4.36523,9.75 -9.75,9.75c-5.38477,0 -9.75,-4.36523 -9.75,-9.75z" fill="#000000" stroke="#000000" stroke-width="0" stroke-linecap="butt"/><path d="M159.37624,187.9233v-6h18v6z" fill="#000000" stroke="none" stroke-width="0" stroke-linecap="butt"/><path d="M129.06374,149.50662v-5h18v5z" fill="#000000" stroke="none" stroke-width="0" stroke-linecap="butt"/><path d="M128.53597,255.01552v-17h25v17z" fill="#000000" stroke="none" stroke-width="0" stroke-linecap="butt"/><path d="M418.18217,-0.9278v29.53454h-157.5045v-29.53454z" data-paper-data="{&quot;index&quot;:null}" fill="#000000" stroke="none" stroke-width="0" stroke-linecap="butt"/><path d="M-23.63673,210.606h4.2098v33.69017h-4.2098z" fill="#000000" stroke="none" stroke-width="0" stroke-linecap="butt"/><path d="M-22.90962,245.88499v-4.20326h21.89096v4.20326z" fill="#000000" stroke="none" stroke-width="0" stroke-linecap="butt"/><path d="M-22.3483,215.76823v-5.13731h21.04899v5.13731z" fill="#000000" stroke="none" stroke-width="0" stroke-linecap="butt"/><g fill="#000000" stroke="none" stroke-width="0" stroke-linecap="butt"><path d="M271.81629,-32.67472v6.02932h-65.35684v-6.02932z"/><path d="M206.12704,-31.63335h9.04941v31.3524h-9.04941z"/><path d="M260.70225,-30.82945h11.0604v30.14651h-11.0604z"/></g><path d="M63.34584,241.72543v119.76878h-65.78378v-119.76877z" data-paper-data="{&quot;index&quot;:null}" fill="#000000" stroke="none" stroke-width="0" stroke-linecap="butt"/></g></g></svg>