<svg version="1.1" xmlns="http://www.w3.org/2000/svg" xmlns:xlink="http://www.w3.org/1999/xlink" width="176.17636" height="62.80157" viewBox="0,0,176.17636,62.80157"><defs><linearGradient x1="240" y1="-1852.01769" x2="240" y2="-24.05978" gradientUnits="userSpaceOnUse" id="color-1"><stop offset="0" stop-color="#ff0000"/><stop offset="1" stop-color="#ff0000" stop-opacity="0"/></linearGradient><radialGradient cx="283.59313" cy="181.89226" r="12.91056" gradientUnits="userSpaceOnUse" id="color-2"><stop offset="0" stop-color="#b50a0a"/><stop offset="1" stop-color="#b50a0a" stop-opacity="0"/></radialGradient><radialGradient cx="279.73595" cy="181.99065" r="12.91057" gradientUnits="userSpaceOnUse" id="color-3"><stop offset="0" stop-color="#b50a0a"/><stop offset="1" stop-color="#b50a0a" stop-opacity="0"/></radialGradient><radialGradient cx="275.61456" cy="181.87689" r="12.91057" gradientUnits="userSpaceOnUse" id="color-4"><stop offset="0" stop-color="#b50a0a"/><stop offset="1" stop-color="#b50a0a" stop-opacity="0"/></radialGradient><radialGradient cx="271.75735" cy="181.9753" r="12.91057" gradientUnits="userSpaceOnUse" id="color-5"><stop offset="0" stop-color="#b50a0a"/><stop offset="1" stop-color="#b50a0a" stop-opacity="0"/></radialGradient><radialGradient cx="269.18589" cy="182.0409" r="12.91057" gradientUnits="userSpaceOnUse" id="color-6"><stop offset="0" stop-color="#b50a0a"/><stop offset="1" stop-color="#b50a0a" stop-opacity="0"/></radialGradient><radialGradient cx="265.3287" cy="182.1393" r="12.91057" gradientUnits="userSpaceOnUse" id="color-7"><stop offset="0" stop-color="#b50a0a"/><stop offset="1" stop-color="#b50a0a" stop-opacity="0"/></radialGradient><radialGradient cx="261.2073" cy="182.02556" r="12.91057" gradientUnits="userSpaceOnUse" id="color-8"><stop offset="0" stop-color="#b50a0a"/><stop offset="1" stop-color="#b50a0a" stop-opacity="0"/></radialGradient><radialGradient cx="257.3501" cy="182.12396" r="12.91057" gradientUnits="userSpaceOnUse" id="color-9"><stop offset="0" stop-color="#b50a0a"/><stop offset="1" stop-color="#b50a0a" stop-opacity="0"/></radialGradient><radialGradient cx="312.94055" cy="179.98078" r="12.91057" gradientUnits="userSpaceOnUse" id="color-10"><stop offset="0" stop-color="#b50a0a"/><stop offset="1" stop-color="#b50a0a" stop-opacity="0"/></radialGradient><radialGradient cx="309.07563" cy="181.29236" r="12.91057" gradientUnits="userSpaceOnUse" id="color-11"><stop offset="0" stop-color="#b50a0a"/><stop offset="1" stop-color="#b50a0a" stop-opacity="0"/></radialGradient><radialGradient cx="304.95937" cy="180.36981" r="12.91057" gradientUnits="userSpaceOnUse" id="color-12"><stop offset="0" stop-color="#b50a0a"/><stop offset="1" stop-color="#b50a0a" stop-opacity="0"/></radialGradient><radialGradient cx="301.09317" cy="181.88359" r="12.91056" gradientUnits="userSpaceOnUse" id="color-13"><stop offset="0" stop-color="#b50a0a"/><stop offset="1" stop-color="#b50a0a" stop-opacity="0"/></radialGradient><radialGradient cx="300.68793" cy="180.9519" r="12.91057" gradientUnits="userSpaceOnUse" id="color-14"><stop offset="0" stop-color="#b50a0a"/><stop offset="1" stop-color="#b50a0a" stop-opacity="0"/></radialGradient><radialGradient cx="294.88052" cy="182.04898" r="12.91057" gradientUnits="userSpaceOnUse" id="color-15"><stop offset="0" stop-color="#b50a0a"/><stop offset="1" stop-color="#b50a0a" stop-opacity="0"/></radialGradient><radialGradient cx="293.1413" cy="180.93931" r="12.91057" gradientUnits="userSpaceOnUse" id="color-16"><stop offset="0" stop-color="#b50a0a"/><stop offset="1" stop-color="#b50a0a" stop-opacity="0"/></radialGradient><radialGradient cx="286.68595" cy="182.03224" r="12.91057" gradientUnits="userSpaceOnUse" id="color-17"><stop offset="0" stop-color="#b50a0a"/><stop offset="1" stop-color="#b50a0a" stop-opacity="0"/></radialGradient><radialGradient cx="223.90696" cy="182.53934" r="12.91057" gradientUnits="userSpaceOnUse" id="color-18"><stop offset="0" stop-color="#b50a0a"/><stop offset="1" stop-color="#b50a0a" stop-opacity="0"/></radialGradient><radialGradient cx="220.04977" cy="182.63776" r="12.91057" gradientUnits="userSpaceOnUse" id="color-19"><stop offset="0" stop-color="#b50a0a"/><stop offset="1" stop-color="#b50a0a" stop-opacity="0"/></radialGradient><radialGradient cx="215.92839" cy="182.524" r="12.91057" gradientUnits="userSpaceOnUse" id="color-20"><stop offset="0" stop-color="#b50a0a"/><stop offset="1" stop-color="#b50a0a" stop-opacity="0"/></radialGradient><radialGradient cx="212.0712" cy="182.6224" r="12.91058" gradientUnits="userSpaceOnUse" id="color-21"><stop offset="0" stop-color="#b50a0a"/><stop offset="1" stop-color="#b50a0a" stop-opacity="0"/></radialGradient><radialGradient cx="209.49971" cy="182.68801" r="12.91057" gradientUnits="userSpaceOnUse" id="color-22"><stop offset="0" stop-color="#b50a0a"/><stop offset="1" stop-color="#b50a0a" stop-opacity="0"/></radialGradient><radialGradient cx="205.64252" cy="182.78642" r="12.91057" gradientUnits="userSpaceOnUse" id="color-23"><stop offset="0" stop-color="#b50a0a"/><stop offset="1" stop-color="#b50a0a" stop-opacity="0"/></radialGradient><radialGradient cx="201.52114" cy="182.67264" r="12.91057" gradientUnits="userSpaceOnUse" id="color-24"><stop offset="0" stop-color="#b50a0a"/><stop offset="1" stop-color="#b50a0a" stop-opacity="0"/></radialGradient><radialGradient cx="197.66393" cy="182.77105" r="12.91057" gradientUnits="userSpaceOnUse" id="color-25"><stop offset="0" stop-color="#b50a0a"/><stop offset="1" stop-color="#b50a0a" stop-opacity="0"/></radialGradient><radialGradient cx="253.2428" cy="182.44765" r="12.91058" gradientUnits="userSpaceOnUse" id="color-26"><stop offset="0" stop-color="#b50a0a"/><stop offset="1" stop-color="#b50a0a" stop-opacity="0"/></radialGradient><radialGradient cx="249.38563" cy="182.54606" r="12.91057" gradientUnits="userSpaceOnUse" id="color-27"><stop offset="0" stop-color="#b50a0a"/><stop offset="1" stop-color="#b50a0a" stop-opacity="0"/></radialGradient><radialGradient cx="245.26421" cy="182.43229" r="12.91057" gradientUnits="userSpaceOnUse" id="color-28"><stop offset="0" stop-color="#b50a0a"/><stop offset="1" stop-color="#b50a0a" stop-opacity="0"/></radialGradient><radialGradient cx="241.40702" cy="182.5307" r="12.91057" gradientUnits="userSpaceOnUse" id="color-29"><stop offset="0" stop-color="#b50a0a"/><stop offset="1" stop-color="#b50a0a" stop-opacity="0"/></radialGradient><radialGradient cx="238.83557" cy="182.59629" r="12.91058" gradientUnits="userSpaceOnUse" id="color-30"><stop offset="0" stop-color="#b50a0a"/><stop offset="1" stop-color="#b50a0a" stop-opacity="0"/></radialGradient><radialGradient cx="234.97837" cy="182.69473" r="12.91057" gradientUnits="userSpaceOnUse" id="color-31"><stop offset="0" stop-color="#b50a0a"/><stop offset="1" stop-color="#b50a0a" stop-opacity="0"/></radialGradient><radialGradient cx="230.85698" cy="182.58095" r="12.91057" gradientUnits="userSpaceOnUse" id="color-32"><stop offset="0" stop-color="#b50a0a"/><stop offset="1" stop-color="#b50a0a" stop-opacity="0"/></radialGradient><radialGradient cx="226.99979" cy="182.67935" r="12.91057" gradientUnits="userSpaceOnUse" id="color-33"><stop offset="0" stop-color="#b50a0a"/><stop offset="1" stop-color="#b50a0a" stop-opacity="0"/></radialGradient><linearGradient x1="256.81406" y1="176.94793" x2="256.76178" y2="185.19227" gradientUnits="userSpaceOnUse" id="color-34"><stop offset="0" stop-color="#400000"/><stop offset="1" stop-color="#ff0000"/></linearGradient><linearGradient x1="197.55311" y1="180.73495" x2="193.09855" y2="180.70668" gradientUnits="userSpaceOnUse" id="color-35"><stop offset="0" stop-color="#0d0d0d"/><stop offset="1" stop-color="#181818"/></linearGradient></defs><g transform="translate(-151.78682,-149.16904)"><g data-paper-data="{&quot;isPaintingLayer&quot;:true}" fill-rule="nonzero" stroke-linejoin="miter" stroke-miterlimit="10" stroke-dasharray="" stroke-dashoffset="0" style="mix-blend-mode: normal"><path d="M189.14221,211.97061c0,0 -35.32944,-6.89858 -35.32944,-17.92066c0,-6.27397 0,-21.64731 0,-25.83228c0,-9.28258 38.74842,-17.90898 38.74842,-17.90898l101.3357,-1.13966c0,0 32.29035,10.44233 32.29035,17.90898c0,5.6249 0,14.53824 0,24.31273c0,10.72501 -25.0725,20.57986 -25.0725,20.57986z" fill="url(#color-1)" stroke="none" stroke-width="0" stroke-linecap="butt"/><g stroke="none" stroke-width="0" stroke-linecap="butt"><g><g><g><path d="M283.02225,164.18676c8.37905,-0.21378 15.35795,5.39071 15.58774,12.51797c0.22981,7.12728 -6.37646,13.07835 -14.75554,13.29212c-8.37905,0.21378 -15.35794,-5.39071 -15.58775,-12.51798c-0.2298,-7.12726 6.37645,-13.07834 14.75553,-13.29211z" fill="url(#color-2)"/><path d="M279.16505,164.28515c8.37905,-0.21378 15.35795,5.39072 15.58776,12.51799c0.22981,7.12728 -6.37645,13.07834 -14.75555,13.29212c-8.37905,0.21378 -15.35795,-5.39072 -15.58775,-12.51799c-0.2298,-7.12726 6.37647,-13.07835 14.75554,-13.29212z" fill="url(#color-3)"/><path d="M275.04365,164.17138c8.37905,-0.21378 15.35795,5.39072 15.58775,12.51799c0.22981,7.12728 -6.37645,13.07834 -14.75553,13.29211c-8.37905,0.21378 -15.35795,-5.39072 -15.58775,-12.51799c-0.2298,-7.12726 6.37645,-13.07834 14.75554,-13.29211z" fill="url(#color-4)"/><path d="M271.18644,164.26979c8.37905,-0.21378 15.35796,5.39072 15.58776,12.51799c0.22981,7.12728 -6.37647,13.07836 -14.75555,13.29212c-8.37905,0.21378 -15.35795,-5.39071 -15.58776,-12.51798c-0.22981,-7.12728 6.37647,-13.07834 14.75554,-13.29212z" fill="url(#color-5)"/></g><g><path d="M268.61497,164.33541c8.37905,-0.21378 15.35796,5.39072 15.58775,12.51799c0.2298,7.12726 -6.37645,13.07834 -14.75554,13.29211c-8.37905,0.21378 -15.35795,-5.39072 -15.58776,-12.51799c-0.2298,-7.12726 6.37645,-13.07833 14.75552,-13.2921z" fill="url(#color-6)"/><path d="M264.7578,164.43381c8.37905,-0.21378 15.35795,5.39071 15.58776,12.51798c0.22981,7.12728 -6.37646,13.07834 -14.75554,13.29211c-8.37905,0.21378 -15.35795,-5.39072 -15.58775,-12.51799c-0.2298,-7.12726 6.37645,-13.07833 14.75554,-13.29211z" fill="url(#color-7)"/><path d="M260.6364,164.32003c8.37905,-0.21378 15.35795,5.39071 15.58775,12.51798c0.2298,7.12726 -6.37647,13.07833 -14.75555,13.29212c-8.37905,0.21378 -15.35795,-5.39071 -15.58775,-12.51798c-0.2298,-7.12726 6.37647,-13.07835 14.75555,-13.29212z" fill="url(#color-8)"/><path d="M256.7792,164.41843c8.37905,-0.21378 15.35795,5.39072 15.58776,12.51799c0.22981,7.12728 -6.37646,13.07835 -14.75555,13.29212c-8.37905,0.21378 -15.35795,-5.39071 -15.58775,-12.51798c-0.2298,-7.12726 6.37648,-13.07835 14.75554,-13.29213z" fill="url(#color-9)"/></g></g><g><g><path d="M312.36963,162.27526c8.37905,-0.21378 15.35794,5.39072 15.58774,12.51798c0.2298,7.12726 -6.37646,13.07835 -14.75554,13.29212c-8.37905,0.21378 -15.35796,-5.39072 -15.58776,-12.51799c-0.22981,-7.12728 6.37647,-13.07833 14.75556,-13.29213z" fill="url(#color-10)"/><path d="M308.50474,163.58686c8.37905,-0.21378 15.35795,5.39071 15.58775,12.51798c0.22981,7.12728 -6.37646,13.07835 -14.75555,13.29212c-2.65956,0.06785 -4.9621,-0.4491 -7.16846,-1.41624c-4.74494,-2.07985 -8.26241,-6.23672 -8.41928,-11.10175c-0.2298,-7.12726 6.37645,-13.07834 14.75554,-13.29211z" fill="url(#color-11)"/><path d="M304.38848,162.66433c8.37905,-0.21378 15.35796,5.39071 15.58776,12.51798c0.22981,7.12728 -6.37646,13.07834 -14.75556,13.29213c-8.37905,0.21378 -15.35795,-5.39073 -15.58774,-12.51799c-0.2298,-7.12726 6.37645,-13.07833 14.75552,-13.2921z" fill="url(#color-12)"/><path d="M300.52229,164.1781c8.37905,-0.21378 15.35795,5.39072 15.58776,12.51799c0.2298,7.12726 -6.37647,13.07835 -14.75554,13.29213c-8.37905,0.21378 -15.35795,-5.39071 -15.58776,-12.51798c-0.2298,-7.12726 6.37647,-13.07835 14.75555,-13.29213z" fill="url(#color-13)"/></g><g><path d="M300.11704,163.24642c8.37905,-0.21378 15.35795,5.39072 15.58776,12.51799c0.2298,7.12726 -6.37645,13.07834 -14.75554,13.29212c-8.37905,0.21378 -15.35795,-5.39071 -15.58775,-12.51798c-0.22981,-7.12728 6.37645,-13.07836 14.75554,-13.29213z" fill="url(#color-14)"/><path d="M294.3096,164.34347c8.37905,-0.21378 15.35795,5.39072 15.58775,12.51799c0.22981,7.12728 -6.37645,13.07834 -14.75552,13.29211c-8.37905,0.21378 -15.35796,-5.39072 -15.58775,-12.51799c-0.2298,-7.12726 6.37645,-13.07833 14.75554,-13.29211z" fill="url(#color-15)"/><path d="M292.57041,163.23379c8.37905,-0.21378 15.35795,5.3907 15.58775,12.51797c0.22981,7.12728 -6.37647,13.07835 -14.75555,13.29212c-8.37905,0.21378 -15.35795,-5.39072 -15.58776,-12.51799c-0.22981,-7.12728 6.37645,-13.07834 14.75554,-13.29211z" fill="url(#color-16)"/><path d="M286.11503,164.32673c8.37905,-0.21378 15.35795,5.39071 15.58775,12.51798c0.22981,7.12728 -6.37645,13.07834 -14.75554,13.29211c-8.37905,0.21378 -15.35795,-5.39072 -15.58775,-12.51799c-0.2298,-7.12726 6.37646,-13.07835 14.75554,-13.29212z" fill="url(#color-17)"/></g></g></g><g><g><g><path d="M223.33608,164.83385c8.37905,-0.21378 15.35795,5.39071 15.58775,12.51798c0.2298,7.12726 -6.37647,13.07835 -14.75555,13.29212c-8.37905,0.21378 -15.35795,-5.39072 -15.58776,-12.51799c-0.2298,-7.12726 6.37646,-13.07835 14.75554,-13.29212z" fill="url(#color-18)"/><path d="M219.47888,164.93227c8.37905,-0.21378 15.35795,5.39071 15.58775,12.51798c0.2298,7.12726 -6.37646,13.07835 -14.75555,13.29212c-8.37905,0.21378 -15.35795,-5.39072 -15.58775,-12.51799c-0.2298,-7.12726 6.37645,-13.07834 14.75553,-13.29211z" fill="url(#color-19)"/><path d="M215.35748,164.81848c8.37905,-0.21378 15.35795,5.39072 15.58775,12.51799c0.2298,7.12726 -6.37645,13.07834 -14.75553,13.29211c-8.37905,0.21378 -15.35795,-5.39072 -15.58776,-12.51799c-0.2298,-7.12726 6.37645,-13.07834 14.75554,-13.29211z" fill="url(#color-20)"/><path d="M211.50029,164.9169c8.37905,-0.21378 15.35794,5.39073 15.58774,12.51799c0.2298,7.12726 -6.37645,13.07834 -14.75551,13.29211c-8.37905,0.21378 -15.35795,-5.39071 -15.58775,-12.51798c-0.2298,-7.12726 6.37647,-13.07835 14.75554,-13.29212z" fill="url(#color-21)"/></g><g><path d="M208.92884,164.9825c8.37905,-0.21378 15.35796,5.39072 15.58776,12.51799c0.2298,7.12726 -6.37646,13.07834 -14.75556,13.29213c-8.37905,0.21378 -15.35795,-5.39072 -15.58775,-12.51799c-0.2298,-7.12726 6.37647,-13.07834 14.75554,-13.29212z" fill="url(#color-22)"/><path d="M205.07162,165.08092c8.37905,-0.21378 15.35795,5.39072 15.58775,12.51799c0.2298,7.12726 -6.37645,13.07834 -14.75554,13.29211c-8.37905,0.21378 -15.35796,-5.39071 -15.58776,-12.51798c-0.2298,-7.12726 6.37646,-13.07833 14.75555,-13.29211z" fill="url(#color-23)"/><path d="M200.95023,164.96714c8.37905,-0.21378 15.35795,5.39072 15.58774,12.51798c0.2298,7.12726 -6.37646,13.07835 -14.75554,13.29212c-8.37905,0.21378 -15.35796,-5.39072 -15.58775,-12.51799c-0.2298,-7.12726 6.37647,-13.07835 14.75555,-13.29212z" fill="url(#color-24)"/><path d="M197.09304,165.06557c8.37905,-0.21378 15.35794,5.39072 15.58775,12.51799c0.2298,7.12726 -6.37647,13.07833 -14.75556,13.29212c-8.37905,0.21378 -15.35795,-5.39072 -15.58774,-12.51798c-0.2298,-7.12726 6.37646,-13.07834 14.75554,-13.29211z" fill="url(#color-25)"/></g></g><g><g><path d="M252.67191,164.74216c8.37905,-0.21378 15.35795,5.39072 15.58776,12.51799c0.2298,7.12726 -6.37645,13.07833 -14.75554,13.29211c-8.37905,0.21378 -15.35795,-5.39072 -15.58776,-12.51799c-0.2298,-7.12726 6.37646,-13.07835 14.75553,-13.29212z" fill="url(#color-26)"/><path d="M248.81472,164.84056c8.37906,-0.21377 15.35796,5.39071 15.58776,12.51798c0.22981,7.12728 -6.37647,13.07833 -14.75554,13.29211c-8.37905,0.21378 -15.35795,-5.39072 -15.58774,-12.51798c-0.2298,-7.12726 6.37645,-13.07833 14.75554,-13.29211z" fill="url(#color-27)"/><path d="M244.6933,164.7268c8.37906,-0.21377 15.35795,5.39071 15.58776,12.51798c0.2298,7.12726 -6.37646,13.07834 -14.75555,13.29212c-8.37905,0.21378 -15.35796,-5.39072 -15.58776,-12.51799c-0.2298,-7.12726 6.37646,-13.07834 14.75553,-13.29211z" fill="url(#color-28)"/><path d="M240.83612,164.8252c8.37905,-0.21378 15.35796,5.39072 15.58776,12.51799c0.2298,7.12726 -6.37646,13.07834 -14.75554,13.29211c-8.37905,0.21378 -15.35795,-5.39072 -15.58775,-12.51799c-0.2298,-7.12726 6.37645,-13.07834 14.75555,-13.29212z" fill="url(#color-29)"/></g><g><path d="M238.26465,164.89079c8.37905,-0.21378 15.35795,5.39072 15.58776,12.51799c0.22981,7.12728 -6.37646,13.07834 -14.75554,13.29211c-8.37905,0.21378 -15.35795,-5.39072 -15.58774,-12.51798c-0.2298,-7.12726 6.37645,-13.07836 14.75554,-13.29212z" fill="url(#color-30)"/><path d="M234.40747,164.98922c8.37905,-0.21378 15.35795,5.39072 15.58775,12.51799c0.22981,7.12728 -6.37645,13.07833 -14.75554,13.29211c-8.37905,0.21378 -15.35795,-5.39071 -15.58775,-12.51798c-0.2298,-7.12726 6.37645,-13.07834 14.75552,-13.29211z" fill="url(#color-31)"/><path d="M230.28606,164.87545c8.37905,-0.21378 15.35796,5.39072 15.58776,12.51799c0.2298,7.12726 -6.37647,13.07835 -14.75554,13.29212c-8.37905,0.21378 -15.35796,-5.39072 -15.58775,-12.51799c-0.2298,-7.12726 6.37645,-13.07834 14.75554,-13.29211z" fill="url(#color-32)"/><path d="M226.42888,164.97385c8.37905,-0.21378 15.35796,5.39072 15.58775,12.51799c0.2298,7.12726 -6.37644,13.07834 -14.75551,13.29211c-8.37905,0.21378 -15.35796,-5.39071 -15.58776,-12.51798c-0.2298,-7.12726 6.37645,-13.07834 14.75555,-13.29212z" fill="url(#color-33)"/></g></g></g></g><path d="M198.25966,176.99788c0,0 19.94939,0.52681 54.24518,0.61681c39.35476,0.10327 62.86096,-0.29527 62.86096,-0.29527c0,0 -4.49921,6.20816 -14.77026,6.29275c-20.42552,1.00359 -20.34527,1.33882 -48.21218,1.50331c-30.29003,-0.41609 -54.13169,-0.29442 -54.13169,-0.29442z" data-paper-data="{&quot;index&quot;:null}" fill="url(#color-34)" stroke="#ff0000" stroke-width="0" stroke-linecap="butt"/><path d="M193.93171,176.6697c0,0 20.78757,0.53213 56.52407,0.63126c41.00801,0.11375 65.50029,-0.07632 65.50029,-0.07632c0,0 -4.68854,6.52242 -15.39106,6.60427c-21.28329,0.99814 -21.19958,1.33339 -50.2371,1.49047c-31.56256,-0.42418 -56.40574,-0.30885 -56.40574,-0.30885z" data-paper-data="{&quot;index&quot;:null}" fill="none" stroke="#330000" stroke-width="2" stroke-linecap="butt"/><path d="M187.97934,167.33564c0,0 1.60568,-1.39871 2.62768,-1.39221c1.02201,0.00649 2.79686,1.42664 2.79686,1.42664l-0.17111,26.9695c0,0 -1.64446,1.39849 -2.81474,1.39105c-1.17028,-0.00744 -2.60982,-1.42549 -2.60982,-1.42549z" fill="#000000" stroke="none" stroke-width="0" stroke-linecap="butt"/><path d="M155.44425,176.76712l34.08585,0.21626l-0.05017,7.9071l-34.08584,-0.21626c0,0 -2.86893,-2.12769 -2.85723,-3.97136c0.01169,-1.84368 2.9074,-3.93573 2.9074,-3.93573z" fill="#070707" stroke="#000000" stroke-width="1.5" stroke-linecap="butt"/><g fill="#0f0f0f" stroke="#000000" stroke-width="1" stroke-linecap="butt"><g><path d="M181.87507,178.86815l6.53026,0.04143c0,0 1.1531,1.24472 1.14911,1.87375c-0.00409,0.64319 -1.17333,1.94387 -1.17333,1.94387l-6.53026,-0.04143l-1.33692,-0.96936l0.01445,-1.7343z"/><path d="M180.53644,179.92994l-0.00754,1.73433l-1.34908,0.95232l-6.53026,-0.04143l-1.37572,-1.00243l-0.00431,-1.7522l1.40428,-1.06296l6.53026,0.04142z" data-paper-data="{&quot;index&quot;:null}"/></g><g><path d="M163.46593,178.75135l6.53027,0.04143c0,0 1.15307,1.24471 1.14908,1.87376c-0.00409,0.64319 -1.17332,1.94386 -1.17332,1.94386l-6.53026,-0.04143l-1.33692,-0.96936l0.01445,-1.7343z"/><path d="M162.12731,179.81314l-0.00754,1.73433l-1.34909,0.95232l-6.53027,-0.04143l-1.37571,-1.00243l-0.00433,-1.75221l1.40427,-1.06297l6.53026,0.04143z" data-paper-data="{&quot;index&quot;:null}"/></g></g><path d="M170.9258,184.30982l0.04503,-7.09909" fill="none" stroke="#000000" stroke-width="1.5" stroke-linecap="round"/><path d="M180.46539,177.19252l-0.04427,6.97533" fill="none" stroke="#000000" stroke-width="1.5" stroke-linecap="round"/><path d="M161.83932,184.04994l0.04295,-6.76888" fill="none" stroke="#000000" stroke-width="1.5" stroke-linecap="round"/><path d="M193.13302,175.27264c0,0 4.44961,0.80872 4.44511,1.51944c-0.00838,1.32272 -0.0371,5.84722 -0.05134,8.09226c-0.00496,0.77985 -4.46272,1.25641 -4.46272,1.25641z" fill="url(#color-35)" stroke="#000000" stroke-width="2" stroke-linecap="butt"/><path d="M204.30448,158.89123c0,-0.13807 0.11193,-0.25 0.25,-0.25c0.13807,0 0.25,0.11193 0.25,0.25c0,0.13807 -0.11193,0.25 -0.25,0.25c-0.13807,0 -0.25,-0.11193 -0.25,-0.25z" fill="#000000" stroke="none" stroke-width="0.5" stroke-linecap="butt"/><path d="M211.32619,164.76674c0,-0.27614 0.22386,-0.5 0.5,-0.5c0.27614,0 0.5,0.22386 0.5,0.5c0,0.27614 -0.22386,0.5 -0.5,0.5c-0.27614,0 -0.5,-0.22386 -0.5,-0.5z" fill="#000000" stroke="none" stroke-width="0.5" stroke-linecap="butt"/><path d="M222.76743,165.19849c0,-0.27614 0.22386,-0.5 0.5,-0.5c0.27614,0 0.5,0.22386 0.5,0.5c0,0.27614 -0.22386,0.5 -0.5,0.5c-0.27614,0 -0.5,-0.22386 -0.5,-0.5z" fill="#000000" stroke="none" stroke-width="0.5" stroke-linecap="butt"/><path d="M234.85629,166.06198c0,-0.27614 0.22386,-0.5 0.5,-0.5c0.27614,0 0.5,0.22386 0.5,0.5c0,0.27614 -0.22386,0.5 -0.5,0.5c-0.27614,0 -0.5,-0.22386 -0.5,-0.5z" fill="#000000" stroke="none" stroke-width="0.5" stroke-linecap="butt"/><path d="M244.78642,166.27785c0,-0.27614 0.22386,-0.5 0.5,-0.5c0.27614,0 0.5,0.22386 0.5,0.5c0,0.27614 -0.22386,0.5 -0.5,0.5c-0.27614,0 -0.5,-0.22386 -0.5,-0.5z" fill="#000000" stroke="none" stroke-width="0.5" stroke-linecap="butt"/><path d="M252.12608,166.27785c0,-0.27614 0.22386,-0.5 0.5,-0.5c0.27614,0 0.5,0.22386 0.5,0.5c0,0.27614 -0.22386,0.5 -0.5,0.5c-0.27614,0 -0.5,-0.22386 -0.5,-0.5z" fill="#000000" stroke="none" stroke-width="0.5" stroke-linecap="butt"/><path d="M265.29429,165.63024c0,-0.27614 0.22386,-0.5 0.5,-0.5c0.27614,0 0.5,0.22386 0.5,0.5c0,0.27614 -0.22386,0.5 -0.5,0.5c-0.27614,0 -0.5,-0.22386 -0.5,-0.5z" fill="#000000" stroke="none" stroke-width="0.5" stroke-linecap="butt"/><path d="M274.14507,166.27785c0,-0.27614 0.22386,-0.5 0.5,-0.5c0.27614,0 0.5,0.22386 0.5,0.5c0,0.27614 -0.22386,0.5 -0.5,0.5c-0.27614,0 -0.5,-0.22386 -0.5,-0.5z" fill="#000000" stroke="none" stroke-width="0.5" stroke-linecap="butt"/><path d="M284.29107,166.06198c0,-0.27614 0.22386,-0.5 0.5,-0.5c0.27614,0 0.5,0.22386 0.5,0.5c0,0.27614 -0.22386,0.5 -0.5,0.5c-0.27614,0 -0.5,-0.22386 -0.5,-0.5z" fill="#000000" stroke="none" stroke-width="0.5" stroke-linecap="butt"/><path d="M212.62143,196.28412c0,-0.27614 0.22386,-0.5 0.5,-0.5c0.27614,0 0.5,0.22386 0.5,0.5c0,0.27614 -0.22386,0.5 -0.5,0.5c-0.27614,0 -0.5,-0.22386 -0.5,-0.5z" fill="#000000" stroke="none" stroke-width="0.5" stroke-linecap="butt"/><path d="M223.63092,196.93174c0,-0.27614 0.22386,-0.5 0.5,-0.5c0.27614,0 0.5,0.22386 0.5,0.5c0,0.27614 -0.22386,0.5 -0.5,0.5c-0.27614,0 -0.5,-0.22386 -0.5,-0.5z" fill="#000000" stroke="none" stroke-width="0.5" stroke-linecap="butt"/><path d="M232.91344,196.93174c0,-0.27614 0.22386,-0.5 0.5,-0.5c0.27614,0 0.5,0.22386 0.5,0.5c0,0.27614 -0.22386,0.5 -0.5,0.5c-0.27614,0 -0.5,-0.22386 -0.5,-0.5z" fill="#000000" stroke="none" stroke-width="0.5" stroke-linecap="butt"/><path d="M244.78642,196.49999c0,-0.27614 0.22386,-0.5 0.5,-0.5c0.27614,0 0.5,0.22386 0.5,0.5c0,0.27614 -0.22386,0.5 -0.5,0.5c-0.27614,0 -0.5,-0.22386 -0.5,-0.5z" fill="#000000" stroke="none" stroke-width="0.5" stroke-linecap="butt"/><path d="M253.42132,196.49999c0,-0.27614 0.22386,-0.5 0.5,-0.5c0.27614,0 0.5,0.22386 0.5,0.5c0,0.27614 -0.22386,0.5 -0.5,0.5c-0.27614,0 -0.5,-0.22386 -0.5,-0.5z" fill="#000000" stroke="none" stroke-width="0.5" stroke-linecap="butt"/><path d="M263.13558,196.49999c0,-0.27614 0.22386,-0.5 0.5,-0.5c0.27614,0 0.5,0.22386 0.5,0.5c0,0.27614 -0.22386,0.5 -0.5,0.5c-0.27614,0 -0.5,-0.22386 -0.5,-0.5z" fill="#000000" stroke="none" stroke-width="0.5" stroke-linecap="butt"/><path d="M274.57681,196.06825c0,-0.27614 0.22386,-0.5 0.5,-0.5c0.27614,0 0.5,0.22386 0.5,0.5c0,0.27614 -0.22386,0.5 -0.5,0.5c-0.27614,0 -0.5,-0.22386 -0.5,-0.5z" fill="#000000" stroke="none" stroke-width="0.5" stroke-linecap="butt"/><path d="M286.4498,196.49999c0,-0.27614 0.22386,-0.5 0.5,-0.5c0.27614,0 0.5,0.22386 0.5,0.5c0,0.27614 -0.22386,0.5 -0.5,0.5c-0.27614,0 -0.5,-0.22386 -0.5,-0.5z" fill="#000000" stroke="none" stroke-width="0.5" stroke-linecap="butt"/></g></g></svg>