<svg version="1.1" xmlns="http://www.w3.org/2000/svg" xmlns:xlink="http://www.w3.org/1999/xlink" width="515.88568" height="366.94895" viewBox="0,0,515.88568,366.94895"><g transform="translate(30.52281,5.06598)"><g data-paper-data="{&quot;isPaintingLayer&quot;:true}" fill="#000000" fill-rule="nonzero" stroke="#000000" stroke-linecap="butt" stroke-linejoin="miter" stroke-miterlimit="10" stroke-dasharray="" stroke-dashoffset="0" style="mix-blend-mode: normal"><path d="M-0.04708,75.93402v-76h475.8v76z" stroke-width="10"/><path d="M175.95294,298.20848v-73.5h178v73.5z" stroke-width="10"/><path d="M-25.52281,356.43402v-355.43402h31.83333v355.43402z" stroke-width="10"/><path d="M2.35905,356.88297v-5.5h67.25v5.5z" stroke-width="10"/><path d="M353.03987,355.89002v-175h127v175z" stroke-width="10"/><path d="M357.48274,317.51439v42.14162h-15.87997v-42.14162z" data-paper-data="{&quot;index&quot;:null}" stroke-width="2.5"/><path d="M356.96549,201.5494v7.14162h-15.87997v-7.14162z" data-paper-data="{&quot;index&quot;:null}" stroke-width="2.5"/><path d="M356.96549,194.34614v7.14162h-15.87997v-7.14162z" data-paper-data="{&quot;index&quot;:null}" stroke-width="2.5"/><path d="M357.06548,187.14287v7.14162h-15.87997v-7.14162z" data-paper-data="{&quot;index&quot;:null}" stroke-width="2.5"/><path d="M341.1877,187.07446c0,0 0,-14.90143 0,-18.57344c0,-1.4224 2.59167,-4.11406 4.21172,-4.11406c3.79564,0 18.28828,0 18.28828,0v22.6875z" data-paper-data="{&quot;index&quot;:null}" stroke-width="2.5"/><path d="M363.78248,171.57235v-7.2105h117.05663v7.2105z" data-paper-data="{&quot;index&quot;:null}" stroke-width="2.5"/><path d="M411.22182,178.79334v-7.2105h30.23499v7.2105z" data-paper-data="{&quot;index&quot;:null}" stroke-width="2.5"/><path d="M441.5268,178.71636v-7.2105h30.80678v7.2105z" data-paper-data="{&quot;index&quot;:null}" stroke-width="2.5"/><path d="M379.85496,178.7997v-7.2105h30.80679v7.2105z" data-paper-data="{&quot;index&quot;:null}" stroke-width="2.5"/><path d="M363.80447,178.80051v-7.2105h15.896v7.2105z" data-paper-data="{&quot;index&quot;:null}" stroke-width="2.5"/><path d="M70.98762,359.77446v-22.6875c0,0 14.49264,0 18.28828,0c1.62005,0 4.21172,2.69166 4.21172,4.11406c0,3.67201 0,18.57344 0,18.57344z" data-paper-data="{&quot;index&quot;:null}" stroke-width="2.5"/><path d="M39.52485,344.19818v7.2105h-15.98571v-7.2105z" data-paper-data="{&quot;index&quot;:null}" stroke-width="2.5"/><path d="M70.95888,344.30036v7.21049h-31.42857v-7.21049z" data-paper-data="{&quot;index&quot;:null}" stroke-width="2.5"/><path d="M70.99218,337.09086v7.21049h-47.42857v-7.21049z" data-paper-data="{&quot;index&quot;:null}" stroke-width="2.5"/><path d="M12.30091,351.51763c-1.71087,0 -4.88878,-2.86264 -4.88878,-4.50861c0,-2.69265 0,-10.11595 0,-10.11595h16.12878v14.62455c0,0 -8.28688,0 -11.24001,0z" data-paper-data="{&quot;index&quot;:null}" stroke-width="2.5"/><path d="M23.48274,93.11438v243.64162h-15.87997v-243.64162z" data-paper-data="{&quot;index&quot;:null}" stroke-width="2.5"/><path d="M42.86766,286.46835v7.14162h-35.37997v-7.14162z" data-paper-data="{&quot;index&quot;:null}" stroke-width="2.5"/><path d="M33.68048,236.20194v7.14162h-26.37997v-7.14162z" data-paper-data="{&quot;index&quot;:null}" stroke-width="2.5"/><path d="M11.797,77.59382c2.95313,0 11.24001,0 11.24001,0v14.62455h-16.12878c0,0 0,-7.4233 0,-10.11595c0,-1.64597 3.17791,-4.50861 4.88878,-4.50861z" data-paper-data="{&quot;index&quot;:null}" stroke-width="2.5"/><path d="M484.11288,84.82644v7.2105h-461.05663v-7.2105z" data-paper-data="{&quot;index&quot;:null}" stroke-width="2.5"/><path d="M100.73061,77.60545v7.2105h-30.23499v-7.2105z" data-paper-data="{&quot;index&quot;:null}" stroke-width="2.5"/><path d="M131.60736,77.68242v7.2105h-30.80678v-7.2105z" data-paper-data="{&quot;index&quot;:null}" stroke-width="2.5"/><path d="M69.9355,77.59909v7.2105h-30.80679v-7.2105z" data-paper-data="{&quot;index&quot;:null}" stroke-width="2.5"/><path d="M38.97422,77.59828v7.2105h-15.896v-7.2105z" data-paper-data="{&quot;index&quot;:null}" stroke-width="2.5"/><path d="M224.74621,84.80958v-7.21049h31.17923v7.21049z" data-paper-data="{&quot;index&quot;:null}" stroke-width="2.5"/><path d="M193.7551,84.85884v-7.2105h31.05663v7.2105z" data-paper-data="{&quot;index&quot;:null}" stroke-width="2.5"/><path d="M131.50068,84.94219v-7.2105h31.05663v7.2105z" data-paper-data="{&quot;index&quot;:null}" stroke-width="2.5"/><path d="M162.63431,84.89295v-7.21049h31.05663v7.21049z" data-paper-data="{&quot;index&quot;:null}" stroke-width="2.5"/><path d="M317.61947,77.60545v7.2105h-30.23499v-7.2105z" data-paper-data="{&quot;index&quot;:null}" stroke-width="2.5"/><path d="M348.49635,77.68242v7.2105h-30.80678v-7.2105z" data-paper-data="{&quot;index&quot;:null}" stroke-width="2.5"/><path d="M286.82438,77.59909v7.2105h-30.80679v-7.2105z" data-paper-data="{&quot;index&quot;:null}" stroke-width="2.5"/><path d="M64.34223,99.1337v-6.91731h10.39113v6.91731z" stroke-width="2.5"/><path d="M352.71193,301.84836c1.71087,0 4.88878,2.86264 4.88878,4.50861c0,2.69265 0,10.11595 0,10.11595h-16.12878v-14.62455c0,0 8.28688,0 11.24001,0z" data-paper-data="{&quot;index&quot;:null}" stroke-width="2.5"/><path d="M248.08477,309.30905v7.21049h-31.17923v-7.21049z" data-paper-data="{&quot;index&quot;:null}" stroke-width="2.5"/><path d="M279.0759,309.25979v7.2105h-31.05663v-7.2105z" data-paper-data="{&quot;index&quot;:null}" stroke-width="2.5"/><path d="M341.33034,309.17644v7.2105h-31.05663v-7.2105z" data-paper-data="{&quot;index&quot;:null}" stroke-width="2.5"/><path d="M310.19667,309.22568v7.21049h-31.05663v-7.21049z" data-paper-data="{&quot;index&quot;:null}" stroke-width="2.5"/><path d="M293.89097,301.95545v7.2105h-30.23499v-7.2105z" data-paper-data="{&quot;index&quot;:null}" stroke-width="2.5"/><path d="M263.58593,302.03242v7.2105h-30.80678v-7.2105z" data-paper-data="{&quot;index&quot;:null}" stroke-width="2.5"/><path d="M325.25784,301.94909v7.2105h-30.80679v-7.2105z" data-paper-data="{&quot;index&quot;:null}" stroke-width="2.5"/><path d="M341.30832,301.94828v7.2105h-15.896v-7.2105z" data-paper-data="{&quot;index&quot;:null}" stroke-width="2.5"/><path d="M201.82926,309.29219v-7.2105h31.05663v7.2105z" data-paper-data="{&quot;index&quot;:null}" stroke-width="2.5"/><path d="M186.0066,316.51954v-7.2105h30.80679v7.2105z" data-paper-data="{&quot;index&quot;:null}" stroke-width="2.5"/><path d="M201.90817,302.0691v7.14162h-15.87997v-7.14162z" data-paper-data="{&quot;index&quot;:null}" stroke-width="2.5"/><path d="M186.00362,316.53627c0,0 -14.90143,0 -18.57344,0c-1.4224,0 -4.11406,-2.59167 -4.11406,-4.21172c0,-3.79564 0,-18.28828 0,-18.28828h22.6875z" data-paper-data="{&quot;index&quot;:null}" stroke-width="2.5"/><path d="M179.1708,231.65593v62.47542h-15.87997v-62.47542z" data-paper-data="{&quot;index&quot;:null}" stroke-width="2.5"/><path d="M185.93218,231.3055h-22.6875c0,0 0,-14.49264 0,-18.28828c0,-1.62005 2.69166,-4.21172 4.11406,-4.21172c3.67201,0 18.57344,0 18.57344,0z" data-paper-data="{&quot;index&quot;:null}" stroke-width="2.5"/><path d="M263.4081,223.36707v-7.2105h30.23499v7.2105z" data-paper-data="{&quot;index&quot;:null}" stroke-width="2.5"/><path d="M232.53132,223.2901v-7.2105h30.80678v7.2105z" data-paper-data="{&quot;index&quot;:null}" stroke-width="2.5"/><path d="M294.20316,223.37343v-7.2105h30.80679v7.2105z" data-paper-data="{&quot;index&quot;:null}" stroke-width="2.5"/><path d="M325.16446,223.37424v-7.2105h15.896v7.2105z" data-paper-data="{&quot;index&quot;:null}" stroke-width="2.5"/><path d="M232.63804,216.03033v7.2105h-31.05663v-7.2105z" data-paper-data="{&quot;index&quot;:null}" stroke-width="2.5"/><path d="M340.06557,208.80298v7.2105h-154.30679v-7.2105z" data-paper-data="{&quot;index&quot;:null}" stroke-width="2.5"/><path d="M185.78032,223.25342v-7.14162h15.87997v7.14162z" data-paper-data="{&quot;index&quot;:null}" stroke-width="2.5"/><path d="M352.41389,223.37442c-2.95313,0 -11.24001,0 -11.24001,0v-14.62455h16.12878c0,0 0,7.4233 0,10.11595c0,1.64597 -3.17791,4.50861 -4.88878,4.50861z" data-paper-data="{&quot;index&quot;:null}" stroke-width="2.5"/><path d="M410.05886,77.66606v7.2105h-30.23499v-7.2105z" data-paper-data="{&quot;index&quot;:null}" stroke-width="2.5"/><path d="M440.93573,77.74303v7.2105h-30.80678v-7.2105z" data-paper-data="{&quot;index&quot;:null}" stroke-width="2.5"/><path d="M379.26381,77.6597v7.2105h-30.80679v-7.2105z" data-paper-data="{&quot;index&quot;:null}" stroke-width="2.5"/><path d="M471.85954,77.70493v7.2105h-30.80678v-7.2105z" data-paper-data="{&quot;index&quot;:null}" stroke-width="2.5"/><path d="M179.06543,231.33999v6.97543h-33.07997v-6.97543z" data-paper-data="{&quot;index&quot;:null}" stroke-width="2.5"/><path d="M297.34221,99.1337v-6.91731h10.39113v6.91731z" stroke-width="2.5"/><g stroke-width="2.5"><path d="M58.75157,194.57366l-1.33165,-8.10605l262.54608,-43.13079l1.33165,8.10605z"/><path d="M294.42958,162.63734l-1.06688,-6.4943l27.97186,-4.59519l1.06688,6.4943z" data-paper-data="{&quot;index&quot;:null}"/><path d="M266.38105,167.19956l-1.06687,-6.49429l27.97186,-4.59519l1.06687,6.49429z" data-paper-data="{&quot;index&quot;:null}"/><path d="M253.5107,176.03872l-1.06688,-6.4943l27.23183,-4.47362l1.06688,6.4943z" data-paper-data="{&quot;index&quot;:null}"/><path d="M281.24792,171.48796l-1.06688,-6.4943l27.74683,-4.55822l1.06689,6.4943z" data-paper-data="{&quot;index&quot;:null}"/><path d="M309.13402,166.90759l-1.06688,-6.4943l14.31709,-2.352l1.06689,6.4943z" data-paper-data="{&quot;index&quot;:null}"/><path d="M59.77845,201.15033l-1.06688,-6.4943l27.97185,-4.59519l1.06688,6.4943z" data-paper-data="{&quot;index&quot;:null}"/><path d="M87.8124,196.49939l-1.06687,-6.49429l27.97185,-4.59519l1.06687,6.49429z" data-paper-data="{&quot;index&quot;:null}"/><path d="M103.57423,200.63486l-1.06688,-6.4943l27.23183,-4.47362l1.06688,6.4943z" data-paper-data="{&quot;index&quot;:null}"/><path d="M75.32385,205.2817l-1.06688,-6.4943l27.74683,-4.55822l1.06688,6.4943z" data-paper-data="{&quot;index&quot;:null}"/><path d="M60.86774,207.65728l-1.06688,-6.4943l14.3171,-2.352l1.06688,6.4943z" data-paper-data="{&quot;index&quot;:null}"/><path d="M57.50336,186.23509l-1.06688,-6.4943l27.23183,-4.47362l1.06688,6.4943z" data-paper-data="{&quot;index&quot;:null}"/><path d="M292.04805,147.85891l-1.06688,-6.4943l27.97186,-4.59518l1.06688,6.4943z" data-paper-data="{&quot;index&quot;:null}"/></g></g></g></svg>