<svg version="1.1" xmlns="http://www.w3.org/2000/svg" xmlns:xlink="http://www.w3.org/1999/xlink" width="483.64792" height="364.74471" viewBox="0,0,483.64792,364.74471"><g transform="translate(0.96764,2.05699)"><g data-paper-data="{&quot;isPaintingLayer&quot;:true}" fill-rule="nonzero" stroke-linejoin="miter" stroke-miterlimit="10" stroke-dasharray="" stroke-dashoffset="0" style="mix-blend-mode: normal"><path d="M-0.96764,361.43268v-229.5h100.41682v229.5z" data-paper-data="{&quot;index&quot;:null}" fill="#000000" stroke="none" stroke-width="0" stroke-linecap="butt"/><path d="M-0.39451,73.94602v-76.00301h482.5878v76.00301z" data-paper-data="{&quot;index&quot;:null}" fill="#000000" stroke="none" stroke-width="0" stroke-linecap="butt"/><path d="M441.64425,362.43243v-289.78979h41.03604v289.78979z" fill="#000000" stroke="none" stroke-width="0" stroke-linecap="butt"/><path d="M96.79439,207.72973v-47.01502h306.23123v47.01502z" fill="#000000" stroke="none" stroke-width="0" stroke-linecap="butt"/><path d="M176.48134,161v-36h10v36z" fill="#000000" stroke="none" stroke-width="0" stroke-linecap="butt"/><path d="M420.48134,223.68772v-8h22v8z" fill="#000000" stroke="none" stroke-width="0" stroke-linecap="butt"/><path d="M409.35896,275.66822l-53.79525,-16.96099" fill="none" stroke="#000000" stroke-width="11.5" stroke-linecap="round"/><path d="M147.48129,362.68772v-27h295v27z" fill="#000000" stroke="none" stroke-width="0" stroke-linecap="butt"/><path d="M289.16879,278.75172c0,-5.00591 4.25329,-9.064 9.5,-9.064c5.24671,0 9.5,4.05809 9.5,9.064c0,5.00591 -4.25329,9.064 -9.5,9.064c-5.24671,0 -9.5,-4.05809 -9.5,-9.064z" fill="#000000" stroke="none" stroke-width="0" stroke-linecap="butt"/><path d="M298.66879,287.25972v48.928" fill="none" stroke="#000000" stroke-width="8" stroke-linecap="round"/><path d="M296.66879,309.68772l-16.5,-16.5" fill="none" stroke="#000000" stroke-width="7" stroke-linecap="round"/><path d="M268.16879,289.68772c0,-4.69442 3.80558,-8.5 8.5,-8.5c4.69442,0 8.5,3.80558 8.5,8.5c0,4.69442 -3.80558,8.5 -8.5,8.5c-4.69442,0 -8.5,-3.80558 -8.5,-8.5z" fill="#000000" stroke="#000000" stroke-width="0" stroke-linecap="butt"/><path d="M147.48129,337.31687v-58.5015h76v58.5015z" fill="#000000" stroke="none" stroke-width="0" stroke-linecap="butt"/><path d="M92.72578,356.00774l23.21366,-21.63403" fill="none" stroke="#000000" stroke-width="8" stroke-linecap="round"/><path d="M193.71646,162.51678l-10.63693,-21.03357" fill="none" stroke="#000000" stroke-width="5" stroke-linecap="round"/></g></g></svg>