<svg version="1.1" xmlns="http://www.w3.org/2000/svg" xmlns:xlink="http://www.w3.org/1999/xlink" width="24.57056" height="36.57021" viewBox="0,0,24.57056,36.57021"><defs><linearGradient x1="240.92746" y1="162.46963" x2="238.87471" y2="178.26704" gradientUnits="userSpaceOnUse" id="color-1"><stop offset="0" stop-color="#000000"/><stop offset="1" stop-color="#000000"/></linearGradient><linearGradient x1="230.44521" y1="165.95614" x2="250.57183" y2="165.95614" gradientUnits="userSpaceOnUse" id="color-2"><stop offset="0" stop-color="#3f2e16"/><stop offset="1" stop-color="#523e22"/></linearGradient><linearGradient x1="234.37423" y1="162.81971" x2="247.11234" y2="162.81971" gradientUnits="userSpaceOnUse" id="color-3"><stop offset="0" stop-color="#3f2e16"/><stop offset="1" stop-color="#523e22"/></linearGradient><linearGradient x1="226.87046" y1="182.34321" x2="246.40627" y2="182.34321" gradientUnits="userSpaceOnUse" id="color-4"><stop offset="0" stop-color="#3f2e16"/><stop offset="1" stop-color="#523e22"/></linearGradient></defs><g transform="translate(-226.37046,-158.59221)"><g data-paper-data="{&quot;isPaintingLayer&quot;:true}" fill-rule="nonzero" stroke-linejoin="miter" stroke-miterlimit="10" stroke-dasharray="" stroke-dashoffset="0" style="mix-blend-mode: normal"><path d="M231.66608,170.10488c0.62347,-4.79806 4.76993,-8.21641 9.26139,-7.63519c4.49144,0.58121 7.62708,4.94197 7.00361,9.73997c-0.62347,4.79806 -4.16126,7.4219 -8.65269,6.84069c-4.49144,-0.58121 -8.23574,-4.14741 -7.61227,-8.94545z" fill="#000000" stroke="url(#color-1)" stroke-width="0.5" stroke-linecap="butt"/><path d="M238.97747,170.94279c0.35539,-1.39443 1.47618,-2.25843 2.50337,-1.92983c1.02719,0.32861 1.57178,1.72536 1.2164,3.11978c-0.35539,1.39443 -1.47619,2.25843 -2.50337,1.92984c-1.02719,-0.32861 -1.57177,-1.72536 -1.2164,-3.11979z" fill="#ffffff" stroke="none" stroke-width="0" stroke-linecap="butt"/><path d="M250.56602,167.25121c-0.18696,1.43419 -4.84144,2.01702 -10.39603,1.30178c-5.55462,-0.71525 -9.90594,-2.4577 -9.71898,-3.8919c0.18696,-1.43419 4.84143,-2.01703 10.39602,-1.30179c5.55462,0.71525 9.90595,2.45772 9.71899,3.8919z" fill="url(#color-2)" stroke="#000000" stroke-width="0.75" stroke-linecap="butt"/><path d="M234.38405,163.04315c0.17827,-0.40602 0.51243,-0.93584 0.73002,-1.50835c0.25385,-0.66797 0.37941,-1.35393 0.37941,-1.35393c0,0 3.92938,-1.48632 6.37905,-1.16931c2.44965,0.31699 5.25877,2.65991 5.21758,2.97688c-0.05786,0.44531 -0.11772,1.51562 0.01964,2.4528c0.11785,0.804 -3.80779,2.62929 -7.21002,2.15284c-3.09771,-0.43382 -5.70609,-3.11724 -5.5157,-3.55093z" fill="url(#color-3)" stroke="#000000" stroke-width="0.75" stroke-linecap="butt"/><path d="M243.646,171.17541c0.3413,-1.3963 1.37914,-2.27124 2.31812,-1.95432c0.93899,0.31694 1.42348,1.70576 1.08219,3.10204c-0.3413,1.3963 -1.37916,2.27125 -2.31812,1.95432c-0.93899,-0.31694 -1.42348,-1.70577 -1.08219,-3.10204z" fill="#ffffff" stroke="none" stroke-width="0" stroke-linecap="butt"/><path d="M242.76792,183.37123c0,0 -0.42108,2.56182 -0.6311,3.83959c-0.12952,0.78797 -0.28394,2.48291 -0.38287,3.66086c-0.06095,0.72591 -0.64682,2.51439 -0.64682,2.51439" fill="none" stroke="#000000" stroke-width="2.5" stroke-linecap="round"/><path d="M236.51231,185.10487c0,0 -0.41652,3.42582 -0.62564,4.69802c-0.03808,0.23161 -0.30372,1.25295 -0.75634,2.08044c-0.65897,1.20475 -0.9347,2.02909 -0.9347,2.02909" fill="none" stroke="#000000" stroke-width="2.5" stroke-linecap="round"/><path d="M227.3196,188.18045c0,0 -0.99232,-0.41136 -0.027,-2.37446c0.17014,-0.34598 0.89248,-0.91241 1.44557,-1.50659c0.62748,-0.67409 0.71465,-1.25615 0.91566,-1.69167c0.12346,-0.26747 -0.1694,-0.95143 -0.15302,-1.23203c0.04029,-0.69061 0.67563,-0.66614 0.98059,-1.28793c0.22845,-0.46582 0.48981,-1.12026 0.82588,-1.43702c0.57895,-0.54572 1.08,-0.25315 1.26624,-0.67149c0.22024,-0.49471 -0.0032,-0.83777 -0.08409,-1.36827c-0.11931,-0.78251 0.07519,-1.92185 0.07519,-1.92185c0,0 4.43628,2.92872 6.93847,3.21932c2.56347,0.29773 6.90318,-1.53381 6.90318,-1.53381c0,0 -0.25226,1.47741 -0.3826,2.15547c0.13389,0.87738 -0.54633,1.78886 -0.4337,2.34617c0.09363,0.46334 -0.23184,1.25054 -0.11763,1.74687c0.05944,0.25833 -0.77943,1.1938 -1.05677,1.96493c-0.28679,0.79742 0.06557,1.72338 -0.08148,2.09132c-0.1132,0.28322 0.09164,1.75068 -0.00481,2.3903c-0.03257,0.216 -1.0986,0.44015 -1.19966,0.59488c-0.45134,0.69108 -0.54678,0.14525 -2.5614,-0.20017c-1.22441,-0.20994 -2.83587,0.67285 -4.10005,0.07044c-2.83019,-1.34863 -5.03335,-1.24331 -6.232,-1.37649c-1.50728,-0.16747 -2.55558,0.58662 -2.55558,0.58662z" fill="url(#color-4)" stroke="#000000" stroke-width="1" stroke-linecap="butt"/><path d="M242.16437,177.97738c0,0 -0.40074,0.85636 -0.58112,1.59367c-0.06315,0.25812 -0.03816,1.07398 -0.07697,1.52748c-0.0346,0.40419 -0.23907,0.87336 -0.34209,1.35432c-0.0502,0.23446 -0.54264,0.51122 -0.6453,0.85907c-0.14458,0.48989 0.0918,1.06966 0.00821,1.42541c-0.07427,0.3161 -0.58585,0.64316 -0.60152,1.26679c-0.01527,0.60786 0.16957,1.25193 0.12465,1.52817c-0.25738,1.5825 -1.00255,1.76568 -1.00255,1.76568" fill="none" stroke="#000000" stroke-width="0.5" stroke-linecap="round"/><path d="M241.09934,179.68259c0.01566,-0.30393 0.28145,-0.53726 0.59363,-0.52117c0.31219,0.01609 0.55256,0.27552 0.5369,0.57943c-0.01566,0.30393 -0.28144,0.53726 -0.59362,0.52117c-0.31219,-0.01609 -0.55257,-0.27552 -0.53691,-0.57943z" fill="#000000" stroke="#000000" stroke-width="0.5" stroke-linecap="butt"/><path d="M240.37433,182.304c0.01566,-0.30393 0.28145,-0.53726 0.59363,-0.52117c0.31219,0.01609 0.55257,0.27552 0.53691,0.57943c-0.01566,0.30393 -0.28145,0.53726 -0.59363,0.52117c-0.31219,-0.01609 -0.55257,-0.27552 -0.53691,-0.57943z" fill="#000000" stroke="#000000" stroke-width="0.5" stroke-linecap="butt"/><path d="M239.59457,184.81587c0.01566,-0.30393 0.28144,-0.53726 0.59362,-0.52117c0.31219,0.01609 0.55257,0.27552 0.53691,0.57943c-0.01566,0.30393 -0.28145,0.53726 -0.59363,0.52117c-0.31219,-0.01609 -0.55256,-0.27552 -0.5369,-0.57943z" fill="#000000" stroke="#000000" stroke-width="0.5" stroke-linecap="butt"/><path d="M239.36652,187.37847c0.01566,-0.30393 0.28144,-0.53726 0.59362,-0.52117c0.31219,0.01609 0.55257,0.27552 0.53691,0.57943c-0.01566,0.30393 -0.28145,0.53726 -0.59363,0.52117c-0.31219,-0.01609 -0.55256,-0.27552 -0.5369,-0.57943z" fill="#000000" stroke="#000000" stroke-width="0.5" stroke-linecap="butt"/></g></g></svg>