<svg version="1.1" xmlns="http://www.w3.org/2000/svg" xmlns:xlink="http://www.w3.org/1999/xlink" width="510.064" height="463.71848" viewBox="0,0,510.064,463.71848"><defs><linearGradient x1="374.64438" y1="163.691" x2="365.64438" y2="163.691" gradientUnits="userSpaceOnUse" id="color-1"><stop offset="0" stop-color="#100b02"/><stop offset="1" stop-color="#27170c"/></linearGradient><linearGradient x1="377.27396" y1="175.32855" x2="363.27397" y2="175.32855" gradientUnits="userSpaceOnUse" id="color-2"><stop offset="0" stop-color="#0c0c0c"/><stop offset="1" stop-color="#1b1b1b"/></linearGradient><linearGradient x1="376.94067" y1="247.6315" x2="362.94067" y2="247.6315" gradientUnits="userSpaceOnUse" id="color-3"><stop offset="0" stop-color="#0c0c0c"/><stop offset="1" stop-color="#1b1b1b"/></linearGradient><linearGradient x1="169.44539" y1="96.32354" x2="160.44529" y2="96.32354" gradientUnits="userSpaceOnUse" id="color-4"><stop offset="0" stop-color="#100b02"/><stop offset="1" stop-color="#27170c"/></linearGradient><linearGradient x1="172.07497" y1="126.5522" x2="158.07495" y2="126.5522" gradientUnits="userSpaceOnUse" id="color-5"><stop offset="0" stop-color="#0c0c0c"/><stop offset="1" stop-color="#1b1b1b"/></linearGradient><linearGradient x1="171.74168" y1="314.36019" x2="157.74158" y2="314.36019" gradientUnits="userSpaceOnUse" id="color-6"><stop offset="0" stop-color="#0c0c0c"/><stop offset="1" stop-color="#1b1b1b"/></linearGradient><linearGradient x1="63.30722" y1="123.16588" x2="72.30715" y2="123.16588" gradientUnits="userSpaceOnUse" id="color-7"><stop offset="0" stop-color="#100b02"/><stop offset="1" stop-color="#27170c"/></linearGradient><linearGradient x1="60.67765" y1="132.82612" x2="74.67759" y2="132.82612" gradientUnits="userSpaceOnUse" id="color-8"><stop offset="0" stop-color="#0c0c0c"/><stop offset="1" stop-color="#1b1b1b"/></linearGradient><linearGradient x1="61.01093" y1="192.84449" x2="75.01094" y2="192.84449" gradientUnits="userSpaceOnUse" id="color-9"><stop offset="0" stop-color="#0c0c0c"/><stop offset="1" stop-color="#1b1b1b"/></linearGradient><radialGradient cx="247.91366" cy="93.13655" r="31.6875" gradientUnits="userSpaceOnUse" id="color-10"><stop offset="0" stop-color="#cca300"/><stop offset="1" stop-color="#cca300" stop-opacity="0"/></radialGradient><linearGradient x1="248.42747" y1="95.24238" x2="248.42747" y2="98.62179" gradientUnits="userSpaceOnUse" id="color-11"><stop offset="0" stop-color="#b58f00"/><stop offset="1" stop-color="#ff0000"/></linearGradient><linearGradient x1="213.74183" y1="184.40216" x2="213.74183" y2="189.06883" gradientUnits="userSpaceOnUse" id="color-12"><stop offset="0" stop-color="#1b1b1b"/><stop offset="1" stop-color="#0c0c0c"/></linearGradient><radialGradient cx="213.92752" cy="44.92189" r="12.5" gradientUnits="userSpaceOnUse" id="color-13"><stop offset="0" stop-color="#232323"/><stop offset="1" stop-color="#0c0c0c"/></radialGradient><linearGradient x1="282.31534" y1="227.80676" x2="282.31534" y2="232.96301" gradientUnits="userSpaceOnUse" id="color-14"><stop offset="0" stop-color="#1b1b1b"/><stop offset="1" stop-color="#0c0c0c"/></linearGradient><radialGradient cx="281.92751" cy="46.42189" r="12.5" gradientUnits="userSpaceOnUse" id="color-15"><stop offset="0" stop-color="#232323"/><stop offset="1" stop-color="#0c0c0c"/></radialGradient><linearGradient x1="126.76973" y1="337.53659" x2="138.68634" y2="325.95313" gradientUnits="userSpaceOnUse" id="color-16"><stop offset="0" stop-color="#180902" stop-opacity="0"/><stop offset="1" stop-color="#180902"/></linearGradient><linearGradient x1="383.68643" y1="337.33658" x2="371.7698" y2="325.75316" gradientUnits="userSpaceOnUse" id="color-17"><stop offset="0" stop-color="#180902" stop-opacity="0"/><stop offset="1" stop-color="#180902"/></linearGradient><linearGradient x1="347.59955" y1="0.7441" x2="335.68288" y2="12.32746" gradientUnits="userSpaceOnUse" id="color-18"><stop offset="0" stop-color="#180902" stop-opacity="0"/><stop offset="1" stop-color="#180902"/></linearGradient><linearGradient x1="153.86282" y1="0.89183" x2="165.77946" y2="12.4752" gradientUnits="userSpaceOnUse" id="color-19"><stop offset="0" stop-color="#180902" stop-opacity="0"/><stop offset="1" stop-color="#180902"/></linearGradient><linearGradient x1="334.10877" y1="35.12914" x2="351.53743" y2="35.12914" gradientUnits="userSpaceOnUse" id="color-20"><stop offset="0" stop-color="#180902"/><stop offset="1" stop-color="#180902" stop-opacity="0"/></linearGradient><linearGradient x1="407.85525" y1="159.67668" x2="407.85525" y2="142.24813" gradientUnits="userSpaceOnUse" id="color-21"><stop offset="0" stop-color="#180902"/><stop offset="1" stop-color="#180902" stop-opacity="0"/></linearGradient><linearGradient x1="165.93732" y1="67.01239" x2="148.50869" y2="67.01239" gradientUnits="userSpaceOnUse" id="color-22"><stop offset="0" stop-color="#180902"/><stop offset="1" stop-color="#180902" stop-opacity="0"/></linearGradient><linearGradient x1="80.68977" y1="121.32677" x2="80.68977" y2="103.89821" gradientUnits="userSpaceOnUse" id="color-23"><stop offset="0" stop-color="#180902"/><stop offset="1" stop-color="#180902" stop-opacity="0"/></linearGradient><linearGradient x1="67.28968" y1="208.4982" x2="67.28968" y2="225.92674" gradientUnits="userSpaceOnUse" id="color-24"><stop offset="0" stop-color="#180902"/><stop offset="1" stop-color="#180902" stop-opacity="0"/></linearGradient><linearGradient x1="138.53734" y1="267.1124" x2="121.1088" y2="267.1124" gradientUnits="userSpaceOnUse" id="color-25"><stop offset="0" stop-color="#180902"/><stop offset="1" stop-color="#180902" stop-opacity="0"/></linearGradient><linearGradient x1="255.22309" y1="325.54814" x2="255.22309" y2="342.97673" gradientUnits="userSpaceOnUse" id="color-26"><stop offset="0" stop-color="#180902"/><stop offset="1" stop-color="#180902" stop-opacity="0"/></linearGradient><linearGradient x1="427.53979" y1="262.99812" x2="427.53979" y2="280.4267" gradientUnits="userSpaceOnUse" id="color-27"><stop offset="0" stop-color="#180902"/><stop offset="1" stop-color="#180902" stop-opacity="0"/></linearGradient><linearGradient x1="371.82553" y1="294.37906" x2="389.25407" y2="294.37906" gradientUnits="userSpaceOnUse" id="color-28"><stop offset="0" stop-color="#180902"/><stop offset="1" stop-color="#180902" stop-opacity="0"/></linearGradient><radialGradient cx="213.37341" cy="267.98335" r="31.6875" gradientUnits="userSpaceOnUse" id="color-29"><stop offset="0" stop-color="#cca300"/><stop offset="1" stop-color="#cca300" stop-opacity="0"/></radialGradient><linearGradient x1="212.85964" y1="270.08921" x2="212.85964" y2="273.46862" gradientUnits="userSpaceOnUse" id="color-30"><stop offset="0" stop-color="#b58f00"/><stop offset="1" stop-color="#ff0000"/></linearGradient><radialGradient cx="329.66319" cy="209.47739" r="31.6875" gradientUnits="userSpaceOnUse" id="color-31"><stop offset="0" stop-color="#cca300"/><stop offset="1" stop-color="#cca300" stop-opacity="0"/></radialGradient><linearGradient x1="329.14941" y1="211.58323" x2="329.14941" y2="214.96262" gradientUnits="userSpaceOnUse" id="color-32"><stop offset="0" stop-color="#b58f00"/><stop offset="1" stop-color="#ff0000"/></linearGradient><radialGradient cx="7.86286" cy="163.9834" r="31.6875" gradientUnits="userSpaceOnUse" id="color-33"><stop offset="0" stop-color="#cca300"/><stop offset="1" stop-color="#cca300" stop-opacity="0"/></radialGradient><linearGradient x1="7.34908" y1="166.08924" x2="7.34908" y2="169.46864" gradientUnits="userSpaceOnUse" id="color-34"><stop offset="0" stop-color="#b58f00"/><stop offset="1" stop-color="#ff0000"/></linearGradient><linearGradient x1="250.82321" y1="12.51008" x2="250.82321" y2="-4.91851" gradientUnits="userSpaceOnUse" id="color-35"><stop offset="0" stop-color="#180902"/><stop offset="1" stop-color="#180902" stop-opacity="0"/></linearGradient><linearGradient x1="334.10877" y1="146.0458" x2="351.53743" y2="146.0458" gradientUnits="userSpaceOnUse" id="color-36"><stop offset="0" stop-color="#180902"/><stop offset="1" stop-color="#180902" stop-opacity="0"/></linearGradient><linearGradient x1="395.59955" y1="45.7441" x2="383.68288" y2="57.32746" gradientUnits="userSpaceOnUse" id="color-37"><stop offset="0" stop-color="#180902" stop-opacity="0"/><stop offset="1" stop-color="#180902"/></linearGradient><linearGradient x1="397.59955" y1="144.32749" x2="385.68288" y2="132.74413" gradientUnits="userSpaceOnUse" id="color-38"><stop offset="0" stop-color="#180902" stop-opacity="0"/><stop offset="1" stop-color="#180902"/></linearGradient><linearGradient x1="361.48978" y1="131.99811" x2="361.48978" y2="149.42675" gradientUnits="userSpaceOnUse" id="color-39"><stop offset="0" stop-color="#180902"/><stop offset="1" stop-color="#180902" stop-opacity="0"/></linearGradient><linearGradient x1="384.77545" y1="94.87914" x2="402.20409" y2="94.87914" gradientUnits="userSpaceOnUse" id="color-40"><stop offset="0" stop-color="#180902"/><stop offset="1" stop-color="#180902" stop-opacity="0"/></linearGradient><linearGradient x1="359.1565" y1="57.84347" x2="359.1565" y2="40.41482" gradientUnits="userSpaceOnUse" id="color-41"><stop offset="0" stop-color="#180902"/><stop offset="1" stop-color="#180902" stop-opacity="0"/></linearGradient></defs><g transform="translate(23.82463,94.4167)"><g data-paper-data="{&quot;isPaintingLayer&quot;:true}" fill-rule="nonzero" stroke-linejoin="miter" stroke-miterlimit="10" stroke-dasharray="" stroke-dashoffset="0" style="mix-blend-mode: normal"><g data-paper-data="{&quot;index&quot;:null}" stroke="none" stroke-width="0" stroke-linecap="butt"><path d="M365.64438,245.96621v-72.50246h9v72.50246z" fill="url(#color-1)"/><path d="M363.27396,180.99192v-8.62022h14v8.62022z" fill="url(#color-2)"/><path d="M363.20738,252.65434c-0.64199,-0.08689 -0.2667,-9.06229 -0.2667,-9.06229h14v9.16151c0,0 -11.69787,0.17621 -13.7333,-0.09922z" fill="url(#color-3)"/></g><g data-paper-data="{&quot;index&quot;:null}" stroke="none" stroke-width="0" stroke-linecap="butt"><path d="M160.44529,310.03459v-188.32634h9v188.32634z" fill="url(#color-4)"/><path d="M158.07486,141.26288v-22.39118h14v22.39118z" fill="url(#color-5)"/><path d="M171.74168,327.66481c0,0 -11.69787,0.45773 -13.7333,-0.25771c-0.64199,-0.22569 -0.2667,-23.53944 -0.2667,-23.53944h14v23.79716z" fill="url(#color-6)"/></g><g stroke="none" stroke-width="0" stroke-linecap="butt"><path d="M63.30722,191.46214v-60.18397h9v60.18397z" fill="url(#color-7)"/><path d="M60.67765,137.52728v-7.15561h14v7.15561z" fill="url(#color-8)"/><path d="M61.01093,197.09629v-7.60493h14c0,0 0.37529,7.45044 -0.2667,7.52257c-2.03543,0.22863 -13.7333,0.08236 -13.7333,0.08236z" fill="url(#color-9)"/></g><g data-paper-data="{&quot;index&quot;:null}" stroke="#000000" stroke-linecap="butt"><path d="M216.22616,93.13655c0,-17.50052 14.18698,-31.6875 31.6875,-31.6875c17.50052,0 31.6875,14.18698 31.6875,31.6875c0,17.50053 -14.18698,31.6875 -31.6875,31.6875c-17.50052,0 -31.6875,-14.18697 -31.6875,-31.6875z" fill="url(#color-10)" stroke-width="0"/><path d="M250.62236,101.30784v3.95204h-4.89971v-3.95204z" fill="#323324" stroke-width="1"/><path d="M248.23366,87.26908c0.33907,-0.45842 0.61784,2.04462 0.59166,2.929c-0.02344,0.79161 0.15883,1.49602 0.08386,2.08609c-0.01159,0.09117 0.10472,1.05691 0.17785,1.32572c0.01914,0.07037 0.54694,-1.26689 0.95195,-1.85811c0.2366,-0.34539 0.5058,-0.39572 0.66246,-0.23831c0.1196,0.12018 0.18793,0.35164 0.22265,0.64319c0.08859,0.74399 -0.04165,1.87931 -0.09694,2.55555c-0.04857,0.59401 -0.02254,1.22305 -0.20004,1.78245c-0.1775,0.5594 -0.83204,1.58019 -0.88234,1.6286c-0.144,0.13859 -1.16059,0.63963 -1.31734,0.63963c-0.26598,0 -0.73816,-0.07472 -1.01281,-0.19919c-0.21345,-0.09674 -1.36238,-0.6838 -1.76552,-1.65358c-0.48287,-1.1616 -1.0065,-2.98487 -1.10044,-3.28986c-0.06579,-0.21361 -0.02559,-3.17825 0.48151,-2.62096c0.53012,0.58259 2.1685,4.07417 2.13903,3.7559c-0.01779,-0.1921 -0.37593,-2.0437 -0.20391,-3.89963c0.12984,-1.40087 0.67184,-2.77999 1.26839,-3.58649z" fill="url(#color-11)" stroke-width="0.75"/><path d="M247.47895,103.26209v-4.66593h1.23858v4.66593z" fill="#311800" stroke-width="0.75"/></g><g data-paper-data="{&quot;index&quot;:null}" fill="none" stroke="#060606" stroke-width="3" stroke-linecap="round"><path d="M221.24061,35.71033h51.63553"/><path d="M221.10761,53.02456h51.85714"/></g><g data-paper-data="{&quot;index&quot;:null}" fill="none" stroke="#060606" stroke-width="3" stroke-linecap="round"><path d="M223.65757,183.78561v-131.96814"/><path d="M203.05764,51.4776v132.53453"/></g><g data-paper-data="{&quot;index&quot;:null}" fill="none" stroke="#060606" stroke-width="3" stroke-linecap="round"><path d="M292.15756,227.05787v-173.42235"/><path d="M271.5576,53.18887v174.16667"/></g><path d="M342.99126,-93.1667v117.10718h-347.93929v-117.10718z" data-paper-data="{&quot;index&quot;:null}" fill="#000000" stroke="#000000" stroke-width="2.5" stroke-linecap="butt"/><path d="M323.94309,171.02177v-49.38809h50.52381l-0.31378,-54.10182l-50.21002,0.10182v-156.31971h157.88352v259.7078z" data-paper-data="{&quot;index&quot;:null}" fill="#000000" stroke="#000000" stroke-width="2.5" stroke-linecap="butt"/><path d="M-2.64082,132.316v-111.11111h179.68169v111.11111z" data-paper-data="{&quot;index&quot;:null}" fill="#000000" stroke="#000000" stroke-width="2.5" stroke-linecap="butt"/><path d="M195.49183,189.06883v-4.66667h36.5v4.66667z" data-paper-data="{&quot;index&quot;:null}" fill="url(#color-12)" stroke="#000000" stroke-width="2.5" stroke-linecap="butt"/><g data-paper-data="{&quot;index&quot;:null}" stroke="#000000" stroke-width="2.5" stroke-linecap="butt"><path d="M209.73477,36.54267v-10.54167h8v10.54167z" fill="#000000"/><path d="M200.68595,45.96116c0,-6.90356 5.59644,-12.5 12.5,-12.5c6.90356,0 12.5,5.59644 12.5,12.5c0,6.90356 -5.59644,12.5 -12.5,12.5c-6.90356,0 -12.5,-5.59644 -12.5,-12.5z" fill="url(#color-13)"/></g><path d="M264.06534,232.96301v-5.15625h36.5v5.15625z" data-paper-data="{&quot;index&quot;:null}" fill="url(#color-14)" stroke="#000000" stroke-width="2.5" stroke-linecap="butt"/><g data-paper-data="{&quot;index&quot;:null}" stroke="#000000" stroke-width="2.5" stroke-linecap="butt"><path d="M278.30827,36.87146v-10.54167h8v10.54167z" fill="#000000"/><path d="M269.25953,46.28998c0,-6.90356 5.59644,-12.5 12.5,-12.5c6.90356,0 12.5,5.59644 12.5,12.5c0,6.90356 -5.59644,12.5 -12.5,12.5c-6.90356,0 -12.5,-5.59644 -12.5,-12.5z" fill="url(#color-15)"/></g><path d="M360.22415,368.05178v-116.11561h121.61111v116.11561z" data-paper-data="{&quot;index&quot;:null}" fill="#000000" stroke="#000000" stroke-width="2.5" stroke-linecap="butt"/><path d="M-2.31053,366.59533v-52.59762h362.53454v52.59762z" data-paper-data="{&quot;index&quot;:null}" fill="#000000" stroke="#000000" stroke-width="2.5" stroke-linecap="butt"/><path d="M-1.87353,320.00365v-123.12312h151.88738v123.12312z" data-paper-data="{&quot;index&quot;:null}" fill="#000000" stroke="#000000" stroke-width="2.5" stroke-linecap="butt"/><path d="M-3.4353,125.16598h173.38547l-0.25,-108.83543h161.37096l-0.27551,44.52316l50.21257,0.16788l0.54653,68.05285l-51.11462,-0.21703l-0.21672,34.72779h150.76607" data-paper-data="{&quot;index&quot;:null}" fill="none" stroke="#180902" stroke-width="8" stroke-linecap="round"/><path d="M126.76973,325.95318h11.91667v11.58333h-11.91667z" data-paper-data="{&quot;index&quot;:null}" fill="url(#color-16)" stroke="none" stroke-width="0" stroke-linecap="butt"/><path d="M383.68643,337.33654h-11.91667v-11.58333h11.91667z" data-paper-data="{&quot;index&quot;:null}" fill="url(#color-17)" stroke="none" stroke-width="0" stroke-linecap="butt"/><path d="M347.59955,12.32746h-11.91667v-11.58333h11.91667z" data-paper-data="{&quot;index&quot;:null}" fill="url(#color-18)" stroke="none" stroke-width="0" stroke-linecap="butt"/><path d="M153.86282,0.89187h11.91667v11.58333h-11.91667z" data-paper-data="{&quot;index&quot;:null}" fill="url(#color-19)" stroke="none" stroke-width="0" stroke-linecap="butt"/><path d="M351.53743,57.96598h-17.42857v-45.67372h17.42857z" data-paper-data="{&quot;index&quot;:null}" fill="url(#color-20)" stroke="none" stroke-width="0" stroke-linecap="butt"/><path d="M482.52546,142.24813v17.42857h-149.34038v-17.42857z" data-paper-data="{&quot;index&quot;:null}" fill="url(#color-21)" stroke="none" stroke-width="0" stroke-linecap="butt"/><path d="M148.50878,12.42564h17.42857v109.17371l-17.42857,-0.00001z" data-paper-data="{&quot;index&quot;:null}" fill="url(#color-22)" stroke="none" stroke-width="0" stroke-linecap="butt"/><path d="M166.00985,103.89821v17.42856l-170.64039,0.00001v-17.42857z" data-paper-data="{&quot;index&quot;:null}" fill="url(#color-23)" stroke="none" stroke-width="0" stroke-linecap="butt"/><path d="M-3.83046,225.92674v-17.42857h142.24038v17.42857z" data-paper-data="{&quot;index&quot;:null}" fill="url(#color-24)" stroke="none" stroke-width="0" stroke-linecap="butt"/><path d="M121.1088,208.22558h17.42857v117.77371h-17.42857z" data-paper-data="{&quot;index&quot;:null}" fill="url(#color-25)" stroke="none" stroke-width="0" stroke-linecap="butt"/><path d="M138.53617,342.97673v-17.42857h233.37371v17.42857z" data-paper-data="{&quot;index&quot;:null}" fill="url(#color-26)" stroke="none" stroke-width="0" stroke-linecap="butt"/><path d="M371.60296,280.4267v-17.42857h111.87371v17.42857z" data-paper-data="{&quot;index&quot;:null}" fill="url(#color-27)" stroke="none" stroke-width="0" stroke-linecap="butt"/><path d="M389.25407,325.81593h-17.42857v-62.87371h17.42857z" data-paper-data="{&quot;index&quot;:null}" fill="url(#color-28)" stroke="none" stroke-width="0" stroke-linecap="butt"/><g data-paper-data="{&quot;index&quot;:null}" stroke="#000000" stroke-linecap="butt"><path d="M213.37343,299.67085c-17.50052,0 -31.6875,-14.18697 -31.6875,-31.6875c0,-17.50052 14.18698,-31.6875 31.6875,-31.6875c17.50052,0 31.6875,14.18698 31.6875,31.6875c0,17.50053 -14.18698,31.6875 -31.6875,31.6875z" fill="url(#color-29)" stroke-width="0"/><path d="M215.56445,276.15464v3.95204h-4.89971v-3.95204z" fill="#323324" stroke-width="1"/><path d="M213.05341,262.11591c0.59655,0.8065 1.13855,2.18562 1.26839,3.58649c0.17202,1.85593 -0.18612,3.70753 -0.20391,3.89963c-0.02947,0.31827 1.60891,-3.17331 2.13903,-3.7559c0.5071,-0.55729 0.5473,2.40735 0.48151,2.62096c-0.09394,0.30499 -0.61757,2.12826 -1.10044,3.28986c-0.40314,0.96978 -1.55207,1.55684 -1.76552,1.65358c-0.27465,0.12447 -0.74683,0.19919 -1.01281,0.19919c-0.15675,0 -1.17334,-0.50104 -1.31734,-0.63963c-0.0503,-0.04841 -0.70484,-1.0692 -0.88234,-1.6286c-0.1775,-0.5594 -0.15147,-1.18844 -0.20004,-1.78245c-0.05529,-0.67624 -0.18553,-1.81156 -0.09694,-2.55555c0.03472,-0.29155 0.10305,-0.52301 0.22265,-0.64319c0.15666,-0.15741 0.42586,-0.10708 0.66246,0.23831c0.40501,0.59122 0.93281,1.92848 0.95195,1.85811c0.07313,-0.26881 0.18944,-1.23455 0.17785,-1.32572c-0.07497,-0.59007 0.1073,-1.29448 0.08386,-2.08609c-0.02618,-0.88438 0.25259,-3.38742 0.59166,-2.929z" fill="url(#color-30)" stroke-width="0.75"/><path d="M212.56953,278.10889v-4.66593h1.23858v4.66593z" fill="#311800" stroke-width="0.75"/></g><g data-paper-data="{&quot;index&quot;:null}" fill="none" stroke="#000000" stroke-width="4" stroke-linecap="round"><g><path d="M277.11947,51.59467l9.79847,-9.79847"/><path d="M286.85364,51.78753l-9.79848,-9.79848"/></g><g><path d="M281.90112,53.32464v-13.85715"/><path d="M288.92067,46.5779h-13.85714"/></g></g><g data-paper-data="{&quot;index&quot;:null}" fill="none" stroke="#000000" stroke-width="4" stroke-linecap="round"><g><path d="M208.3695,51.09469l9.79847,-9.79847"/><path d="M208.3052,41.48905l9.79848,9.79848"/></g><g><path d="M213.1512,38.9675v13.85715"/><path d="M220.17068,46.0779h-13.85714"/></g></g><g data-paper-data="{&quot;index&quot;:null}"><path d="M296.13277,313.94271v-3.06481h5.16666v3.06481z" fill="#000000" stroke="#333333" stroke-width="0" stroke-linecap="butt"/><path d="M284.13277,314.10929v-3.06482h5.16666v3.06482z" fill="#000000" stroke="#333333" stroke-width="0" stroke-linecap="butt"/><path d="M272.29949,314.27603v-3.06481h5.16666v3.06481z" fill="#000000" stroke="#333333" stroke-width="0" stroke-linecap="butt"/><path d="M260.13277,314.10929v-3.06482h5.16666v3.06482z" fill="#000000" stroke="#333333" stroke-width="0" stroke-linecap="butt"/><path d="M253.46615,311.21119v3.06481h-5.16666v-3.06481z" data-paper-data="{&quot;index&quot;:null}" fill="#000000" stroke="#333333" stroke-width="0" stroke-linecap="butt"/><path d="M241.46614,311.21119v3.06482h-5.16666v-3.06482z" data-paper-data="{&quot;index&quot;:null}" fill="#000000" stroke="#333333" stroke-width="0" stroke-linecap="butt"/><path d="M229.63277,311.37784v3.06481h-5.16666v-3.06481z" data-paper-data="{&quot;index&quot;:null}" fill="#000000" stroke="#333333" stroke-width="0" stroke-linecap="butt"/><path d="M217.46613,311.21119v3.06482h-5.16667v-3.06482z" data-paper-data="{&quot;index&quot;:null}" fill="#000000" stroke="#333333" stroke-width="0" stroke-linecap="butt"/><path d="M205.32327,311.21119v3.06482h-5.16667v-3.06482z" data-paper-data="{&quot;index&quot;:null}" fill="#000000" stroke="#333333" stroke-width="0" stroke-linecap="butt"/><path d="M193.46613,311.35402v3.06482h-5.16667v-3.06482z" data-paper-data="{&quot;index&quot;:null}" fill="#000000" stroke="#333333" stroke-width="0" stroke-linecap="butt"/><path d="M181.32327,311.49697v3.06482h-5.16667v-3.06482z" data-paper-data="{&quot;index&quot;:null}" fill="#000000" stroke="#333333" stroke-width="0" stroke-linecap="butt"/><path d="M169.46613,311.63973v3.06482h-5.16667v-3.06482z" data-paper-data="{&quot;index&quot;:null}" fill="#000000" stroke="#333333" stroke-width="0" stroke-linecap="butt"/><path d="M157.75188,311.63973v3.06482h-5.16667v-3.06482z" data-paper-data="{&quot;index&quot;:null}" fill="#000000" stroke="#333333" stroke-width="0" stroke-linecap="butt"/><path d="M154.20111,316.14516h-2.82879h154.55h-2.9712" fill="none" stroke="#141414" stroke-width="3" stroke-linecap="round"/></g><g data-paper-data="{&quot;index&quot;:null}"><path d="M355.88283,313.94271v-3.06481h5.16666v3.06481z" fill="#000000" stroke="#333333" stroke-width="0" stroke-linecap="butt"/><path d="M343.88283,314.10929v-3.06482h5.16666v3.06482z" fill="#000000" stroke="#333333" stroke-width="0" stroke-linecap="butt"/><path d="M332.04949,314.27603v-3.06481h5.16666v3.06481z" fill="#000000" stroke="#333333" stroke-width="0" stroke-linecap="butt"/><path d="M319.88277,314.10929v-3.06482h5.16666v3.06482z" fill="#000000" stroke="#333333" stroke-width="0" stroke-linecap="butt"/><path d="M313.2161,311.21119v3.06481h-5.16666v-3.06481z" data-paper-data="{&quot;index&quot;:null}" fill="#000000" stroke="#333333" stroke-width="0" stroke-linecap="butt"/><path d="M301.2161,311.21119v3.06482h-5.16666v-3.06482z" data-paper-data="{&quot;index&quot;:null}" fill="#000000" stroke="#333333" stroke-width="0" stroke-linecap="butt"/><path d="M289.38268,311.37784v3.06481h-5.16666v-3.06481z" data-paper-data="{&quot;index&quot;:null}" fill="#000000" stroke="#333333" stroke-width="0" stroke-linecap="butt"/><path d="M277.21612,311.21119v3.06482h-5.16667v-3.06482z" data-paper-data="{&quot;index&quot;:null}" fill="#000000" stroke="#333333" stroke-width="0" stroke-linecap="butt"/><path d="M265.07322,311.21119v3.06482h-5.16667v-3.06482z" data-paper-data="{&quot;index&quot;:null}" fill="#000000" stroke="#333333" stroke-width="0" stroke-linecap="butt"/><path d="M253.21615,311.35402v3.06482h-5.16667v-3.06482z" data-paper-data="{&quot;index&quot;:null}" fill="#000000" stroke="#333333" stroke-width="0" stroke-linecap="butt"/><path d="M241.07328,311.49697v3.06482h-5.16667v-3.06482z" data-paper-data="{&quot;index&quot;:null}" fill="#000000" stroke="#333333" stroke-width="0" stroke-linecap="butt"/><path d="M229.21613,311.63973v3.06482h-5.16667v-3.06482z" data-paper-data="{&quot;index&quot;:null}" fill="#000000" stroke="#333333" stroke-width="0" stroke-linecap="butt"/><path d="M217.50193,311.63973v3.06482h-5.16667v-3.06482z" data-paper-data="{&quot;index&quot;:null}" fill="#000000" stroke="#333333" stroke-width="0" stroke-linecap="butt"/><path d="M213.95118,316.14516h-2.82879h153.3h-1.7212" fill="none" stroke="#141414" stroke-width="3" stroke-linecap="round"/></g><g data-paper-data="{&quot;index&quot;:null}" stroke="#000000" stroke-linecap="butt"><path d="M329.66319,241.16489c-17.50052,0 -31.6875,-14.18697 -31.6875,-31.6875c0,-17.50052 14.18698,-31.6875 31.6875,-31.6875c17.50052,0 31.6875,14.18698 31.6875,31.6875c0,17.50053 -14.18698,31.6875 -31.6875,31.6875z" fill="url(#color-31)" stroke-width="0"/><path d="M331.85425,217.64868v3.95204h-4.89971v-3.95204z" fill="#323324" stroke-width="1"/><path d="M329.34317,203.60991c0.59655,0.8065 1.13855,2.18562 1.26839,3.58649c0.17202,1.85593 -0.18612,3.70753 -0.20391,3.89963c-0.02947,0.31827 1.60891,-3.17331 2.13903,-3.7559c0.5071,-0.55729 0.5473,2.40735 0.48151,2.62096c-0.09394,0.30499 -0.61757,2.12826 -1.10044,3.28986c-0.40314,0.96978 -1.55207,1.55684 -1.76552,1.65358c-0.27465,0.12447 -0.74683,0.19919 -1.01281,0.19919c-0.15675,0 -1.17334,-0.50104 -1.31734,-0.63963c-0.0503,-0.04841 -0.70484,-1.0692 -0.88234,-1.6286c-0.1775,-0.5594 -0.15147,-1.18844 -0.20004,-1.78245c-0.05529,-0.67624 -0.18553,-1.81156 -0.09694,-2.55555c0.03472,-0.29155 0.10305,-0.52301 0.22265,-0.64319c0.15666,-0.15741 0.42586,-0.10708 0.66246,0.23831c0.40501,0.59122 0.93281,1.92848 0.95195,1.85811c0.07313,-0.26881 0.18944,-1.23455 0.17785,-1.32572c-0.07497,-0.59007 0.1073,-1.29448 0.08386,-2.08609c-0.02618,-0.88438 0.25259,-3.38742 0.59166,-2.929z" fill="url(#color-32)" stroke-width="0.75"/><path d="M328.85931,219.60293v-4.66593h1.23858v4.66593z" fill="#311800" stroke-width="0.75"/></g><path d="M482.23938,259.27351h-114.16667v62.38318h-225.6746v-116.8956h-144.41667" data-paper-data="{&quot;index&quot;:null}" fill="none" stroke="#180902" stroke-width="8" stroke-linecap="round"/><g data-paper-data="{&quot;index&quot;:null}" stroke="#000000" stroke-linecap="butt"><path d="M7.86287,195.67089c-17.50052,0 -31.6875,-14.18697 -31.6875,-31.6875c0,-17.50052 14.18698,-31.6875 31.6875,-31.6875c17.50052,0 31.6875,14.18698 31.6875,31.6875c0,17.50053 -14.18698,31.6875 -31.6875,31.6875z" fill="url(#color-33)" stroke-width="0"/><path d="M10.05388,172.15469v3.95204h-4.89971v-3.95204z" fill="#323324" stroke-width="1"/><path d="M7.54285,158.11593c0.59655,0.8065 1.13855,2.18562 1.26839,3.58649c0.17202,1.85593 -0.18612,3.70753 -0.20391,3.89963c-0.02947,0.31827 1.60891,-3.17331 2.13903,-3.7559c0.5071,-0.55729 0.5473,2.40735 0.48151,2.62096c-0.09394,0.30499 -0.61757,2.12826 -1.10044,3.28986c-0.40314,0.96978 -1.55207,1.55684 -1.76552,1.65358c-0.27465,0.12447 -0.74683,0.19919 -1.01281,0.19919c-0.15675,0 -1.17334,-0.50104 -1.31734,-0.63963c-0.0503,-0.04841 -0.70484,-1.0692 -0.88234,-1.6286c-0.1775,-0.5594 -0.15147,-1.18844 -0.20004,-1.78245c-0.05529,-0.67624 -0.18553,-1.81156 -0.09694,-2.55555c0.03472,-0.29155 0.10305,-0.52301 0.22265,-0.64319c0.15666,-0.15741 0.42586,-0.10708 0.66246,0.23831c0.40501,0.59122 0.93281,1.92848 0.95195,1.85811c0.07313,-0.26881 0.18944,-1.23455 0.17785,-1.32572c-0.07497,-0.59007 0.1073,-1.29448 0.08386,-2.08609c-0.02618,-0.88438 0.25259,-3.38742 0.59166,-2.929z" fill="url(#color-34)" stroke-width="0.75"/><path d="M7.059,174.10894v-4.66593h1.23858v4.66593z" fill="#311800" stroke-width="0.75"/></g><g><path d="M7.63302,197.01418v-3.06482h5.27292v3.06482z" fill="#000000" stroke="#333333" stroke-width="0" stroke-linecap="butt"/><path d="M19.28442,196.83803v-3.06481h5.27292v3.06481z" fill="#000000" stroke="#333333" stroke-width="0" stroke-linecap="butt"/><path d="M31.27619,196.91417v-3.06482h5.27292v3.06482z" fill="#000000" stroke="#333333" stroke-width="0" stroke-linecap="butt"/><path d="M48.34238,194.01607v3.06481h-5.27292v-3.06481z" data-paper-data="{&quot;index&quot;:null}" fill="#000000" stroke="#333333" stroke-width="0" stroke-linecap="butt"/><path d="M59.88055,193.91604v3.06482h-5.27292v-3.06482z" data-paper-data="{&quot;index&quot;:null}" fill="#000000" stroke="#333333" stroke-width="0" stroke-linecap="butt"/><path d="M73.79972,193.88274v3.06481h-5.27292v-3.06481z" data-paper-data="{&quot;index&quot;:null}" fill="#000000" stroke="#333333" stroke-width="0" stroke-linecap="butt"/><path d="M86.21668,193.91604v3.06482h-5.27293v-3.06482z" data-paper-data="{&quot;index&quot;:null}" fill="#000000" stroke="#333333" stroke-width="0" stroke-linecap="butt"/><path d="M98.60927,193.81609v3.06482h-5.27293v-3.06482z" data-paper-data="{&quot;index&quot;:null}" fill="#000000" stroke="#333333" stroke-width="0" stroke-linecap="butt"/><path d="M108.86769,193.85892v3.06482h-5.27293v-3.06482z" data-paper-data="{&quot;index&quot;:null}" fill="#000000" stroke="#333333" stroke-width="0" stroke-linecap="butt"/><path d="M121.54381,194.40181v3.06482h-5.27293v-3.06482z" data-paper-data="{&quot;index&quot;:null}" fill="#000000" stroke="#333333" stroke-width="0" stroke-linecap="butt"/><path d="M133.3613,194.54462v3.06482h-5.27293v-3.06482z" data-paper-data="{&quot;index&quot;:null}" fill="#000000" stroke="#333333" stroke-width="0" stroke-linecap="butt"/><path d="M144.60772,194.11608v3.06482h-5.27293v-3.06482z" data-paper-data="{&quot;index&quot;:null}" fill="#000000" stroke="#333333" stroke-width="0" stroke-linecap="butt"/><path d="M-6.29949,199.05h-3.03231h157.72857h-2.88697" fill="none" stroke="#141414" stroke-width="3" stroke-linecap="round"/></g><g data-paper-data="{&quot;index&quot;:null}" stroke="#000000"><path d="M322.70079,309.89216c0,0 -3.58274,-13.28762 -4.47519,-17.35147c-0.45313,-2.06338 -0.52481,-5.41655 -0.52481,-5.41655h31.81802c0,0 0.02479,3.1451 -0.51445,5.48365c-0.95736,4.15183 -4.73555,17.28436 -4.73555,17.28436z" fill="#000000" stroke-width="2.5" stroke-linecap="butt"/><path d="M323.75588,308.89216c0,0 -3.21277,-11.7954 -4.01306,-15.40288c-0.40634,-1.83166 -0.47062,-4.80827 -0.47062,-4.80827h28.53232c0,0 0.02223,2.7919 -0.46133,4.86783c-0.8585,3.68558 -4.24653,15.34331 -4.24653,15.34331z" fill="#190f07" stroke-width="0" stroke-linecap="butt"/><path d="M317.32626,293.00568v-5.725h32.55v5.725z" fill="#141414" stroke-width="2.5" stroke-linecap="butt"/><path d="M338.1668,309.50477l5,-15.71428" fill="none" stroke-width="2.5" stroke-linecap="round"/><path d="M343.1639,312.58074c-2.14011,0 -3.875,-1.73489 -3.875,-3.875c0,-2.14011 1.73489,-3.875 3.875,-3.875c2.14011,0 3.875,1.73489 3.875,3.875c0,2.14011 -1.73489,3.875 -3.875,3.875z" fill="#191919" stroke-width="2.5" stroke-linecap="butt"/><path d="M323.89894,293.95124l5.125,15.83929" data-paper-data="{&quot;index&quot;:null}" fill="none" stroke-width="2.5" stroke-linecap="round"/><path d="M324.10134,312.37235c-2.17462,0 -3.9375,-1.76288 -3.9375,-3.9375c0,-2.17462 1.76288,-3.9375 3.9375,-3.9375c2.17462,0 3.9375,1.76288 3.9375,3.9375c0,2.17462 -1.76288,3.9375 -3.9375,3.9375z" fill="#191919" stroke-width="2.5" stroke-linecap="butt"/><path d="M326.1667,298.93336h15.42857" fill="none" stroke-width="2.5" stroke-linecap="round"/><path d="M339.16675,304.4729h-10.57143" fill="none" stroke-width="2.5" stroke-linecap="round"/></g><g stroke="#000000"><path d="M102.33105,193.47552c0,0 -3.77819,-13.13253 -4.73555,-17.28436c-0.53924,-2.33855 -0.51445,-5.48365 -0.51445,-5.48365h31.81802c0,0 -0.07168,3.35317 -0.52481,5.41655c-0.89245,4.06385 -4.47519,17.35147 -4.47519,17.35147z" fill="#000000" stroke-width="2.5" stroke-linecap="butt"/><path d="M103.50315,192.47552c0,0 -3.38803,-11.65773 -4.24653,-15.34331c-0.48356,-2.07593 -0.46133,-4.86783 -0.46133,-4.86783h28.53232c0,0 -0.06428,2.97661 -0.47062,4.80827c-0.80029,3.60748 -4.01306,15.40288 -4.01306,15.40288z" fill="#190f07" stroke-width="0" stroke-linecap="butt"/><path d="M96.72352,176.83907v-5.725h32.55v5.725z" fill="#141414" stroke-width="2.5" stroke-linecap="butt"/><path d="M103.4331,177.37389l5,15.71428" fill="none" stroke-width="2.5" stroke-linecap="round"/><path d="M99.56099,192.2891c0,-2.14011 1.73489,-3.875 3.875,-3.875c2.14011,0 3.875,1.73489 3.875,3.875c0,2.14011 -1.73489,3.875 -3.875,3.875c-2.14011,0 -3.875,-1.73489 -3.875,-3.875z" fill="#191919" stroke-width="2.5" stroke-linecap="butt"/><path d="M122.57592,177.65961l-5,15.71429" data-paper-data="{&quot;index&quot;:null}" fill="none" stroke-width="2.5" stroke-linecap="round"/><path d="M118.56098,192.01823c0,-2.17462 1.76288,-3.9375 3.9375,-3.9375c2.17462,0 3.9375,1.76288 3.9375,3.9375c0,2.17462 -1.76288,3.9375 -3.9375,3.9375c-2.17462,0 -3.9375,-1.76288 -3.9375,-3.9375z" fill="#191919" stroke-width="2.5" stroke-linecap="butt"/><path d="M105.00453,182.51671h15.42857" fill="none" stroke-width="2.5" stroke-linecap="round"/><path d="M118.00461,188.05629h-10.57143" fill="none" stroke-width="2.5" stroke-linecap="round"/></g><path d="M336.32665,-4.9185v17.42857h-171.00705v-17.42857z" data-paper-data="{&quot;index&quot;:null}" fill="url(#color-35)" stroke="none" stroke-width="0" stroke-linecap="butt"/><g><path d="M455.90078,251.25082v-23.09774h23.09774v23.09774z" fill="#000000" stroke="#000000" stroke-width="2.5" stroke-linecap="butt"/><path d="M457.64053,249.39226v-18.83334h18.83334v18.83334z" fill="none" stroke="#1e1404" stroke-width="3" stroke-linecap="butt"/><path d="M475.22387,248.30893l-16.58334,-16.58333" fill="none" stroke="#1e1404" stroke-width="3" stroke-linecap="round"/><path d="M475.3905,231.72559l-16.58334,16.58333" data-paper-data="{&quot;index&quot;:null}" fill="none" stroke="#1e1404" stroke-width="3" stroke-linecap="round"/></g><g><path d="M409.30078,251.31035v-23.09774h23.09774v23.09774z" fill="#000000" stroke="#000000" stroke-width="2.5" stroke-linecap="butt"/><path d="M411.04053,249.45179v-18.83334h18.83334v18.83334z" fill="none" stroke="#1e1404" stroke-width="3" stroke-linecap="butt"/><path d="M412.04053,231.78513l16.58334,16.58333" fill="none" stroke="#1e1404" stroke-width="3" stroke-linecap="round"/><path d="M412.20718,248.36845l16.58334,-16.58333" data-paper-data="{&quot;index&quot;:null}" fill="none" stroke="#1e1404" stroke-width="3" stroke-linecap="round"/></g><g><path d="M432.80078,251.16749v-23.09774h23.09774v23.09774z" fill="#000000" stroke="#000000" stroke-width="2.5" stroke-linecap="butt"/><path d="M434.54053,249.30893v-18.83334h18.83334v18.83334z" fill="none" stroke="#1e1404" stroke-width="3" stroke-linecap="butt"/><path d="M435.54053,231.64227l16.58334,16.58333" fill="none" stroke="#1e1404" stroke-width="3" stroke-linecap="round"/><path d="M452.29052,231.64226l-16.58334,16.58333" data-paper-data="{&quot;index&quot;:null}" fill="none" stroke="#1e1404" stroke-width="3" stroke-linecap="round"/></g><g><path d="M445.46744,227.90082v-23.09774h23.09774v23.09774z" fill="#000000" stroke="#000000" stroke-width="2.5" stroke-linecap="butt"/><path d="M447.20719,226.04226v-18.83334h18.83334v18.83334z" fill="none" stroke="#1e1404" stroke-width="3" stroke-linecap="butt"/><path d="M464.79053,224.95893l-16.58334,-16.58333" fill="none" stroke="#1e1404" stroke-width="3" stroke-linecap="round"/><path d="M464.95715,208.37559l-16.58334,16.58333" data-paper-data="{&quot;index&quot;:null}" fill="none" stroke="#1e1404" stroke-width="3" stroke-linecap="round"/></g><g><path d="M422.90078,228.00082v-23.09774h23.09774v23.09774z" fill="#000000" stroke="#000000" stroke-width="2.5" stroke-linecap="butt"/><path d="M424.64053,226.14226v-18.83334h18.83334v18.83334z" fill="none" stroke="#1e1404" stroke-width="3" stroke-linecap="butt"/><path d="M442.22387,225.05893l-16.58334,-16.58333" fill="none" stroke="#1e1404" stroke-width="3" stroke-linecap="round"/><path d="M442.39052,208.47559l-16.58334,16.58333" data-paper-data="{&quot;index&quot;:null}" fill="none" stroke="#1e1404" stroke-width="3" stroke-linecap="round"/></g><g><path d="M435.20078,204.00082v-23.09774h23.09774v23.09774z" fill="#000000" stroke="#000000" stroke-width="2.5" stroke-linecap="butt"/><path d="M436.94053,202.14226v-18.83334h18.83334v18.83334z" fill="none" stroke="#1e1404" stroke-width="3" stroke-linecap="butt"/><path d="M437.94053,184.4756l16.58334,16.58333" fill="none" stroke="#1e1404" stroke-width="3" stroke-linecap="round"/><path d="M438.10717,201.05892l16.58334,-16.58333" data-paper-data="{&quot;index&quot;:null}" fill="none" stroke="#1e1404" stroke-width="3" stroke-linecap="round"/></g><path d="M351.53742,160.29931h-17.42857v-28.50705h17.42857z" data-paper-data="{&quot;index&quot;:null}" fill="url(#color-36)" stroke="none" stroke-width="0" stroke-linecap="butt"/><path d="M395.59955,57.32746h-11.91667v-11.58333h11.91667z" data-paper-data="{&quot;index&quot;:null}" fill="url(#color-37)" stroke="none" stroke-width="0" stroke-linecap="butt"/><path d="M397.59955,144.32746h-11.91667v-11.58333h11.91667z" data-paper-data="{&quot;index&quot;:null}" fill="url(#color-38)" stroke="none" stroke-width="0" stroke-linecap="butt"/><path d="M336.90294,149.42674v-17.42857h49.17372v17.42857z" data-paper-data="{&quot;index&quot;:null}" fill="url(#color-39)" stroke="none" stroke-width="0" stroke-linecap="butt"/><path d="M402.20408,132.96597h-17.42857v-76.17371h17.42857z" data-paper-data="{&quot;index&quot;:null}" fill="url(#color-40)" stroke="none" stroke-width="0" stroke-linecap="butt"/><path d="M384.32665,40.41483v17.42857h-50.34038v-17.42857z" data-paper-data="{&quot;index&quot;:null}" fill="url(#color-41)" stroke="none" stroke-width="0" stroke-linecap="butt"/></g></g></svg>