<svg version="1.1" xmlns="http://www.w3.org/2000/svg" xmlns:xlink="http://www.w3.org/1999/xlink" width="210.15124" height="151.95726" viewBox="0,0,210.15124,151.95726"><defs><linearGradient x1="157.02899" y1="152.85259" x2="187.8517" y2="160.24964" gradientUnits="userSpaceOnUse" id="color-1"><stop offset="0" stop-color="#050000"/><stop offset="1" stop-color="#0f0707"/></linearGradient><radialGradient cx="312.99126" cy="178.82689" r="13.33459" gradientUnits="userSpaceOnUse" id="color-2"><stop offset="0" stop-color="#5100a4"/><stop offset="1" stop-color="#5100a4" stop-opacity="0"/></radialGradient><radialGradient cx="158.17534" cy="141.85582" r="11.52692" gradientUnits="userSpaceOnUse" id="color-3"><stop offset="0" stop-color="#5100a4"/><stop offset="1" stop-color="#5100a4" stop-opacity="0"/></radialGradient><radialGradient cx="158.09144" cy="140.89056" r="10.50984" gradientUnits="userSpaceOnUse" id="color-4"><stop offset="0" stop-color="#5100a4"/><stop offset="1" stop-color="#5100a4" stop-opacity="0"/></radialGradient></defs><g transform="translate(-146.58834,-98.99716)"><g data-paper-data="{&quot;isPaintingLayer&quot;:true}" fill-rule="nonzero" stroke-linejoin="miter" stroke-miterlimit="10" stroke-dasharray="" stroke-dashoffset="0" style="mix-blend-mode: normal"><g fill="none" stroke="#000000" stroke-width="9" stroke-linecap="round"><path d="M235.75863,187.3894l8.50101,-42.37517l4.89164,76.83831l2.05328,-7.95776" data-paper-data="{&quot;index&quot;:null}"/><g><path d="M160.41084,207.21541l-0.65062,5.96808l43.65529,-86.90274l3.5367,52.46623"/><path d="M258.27649,185.04839l18.5192,-45.56205l8.10286,86.28976l-2.87547,-6.10543" data-paper-data="{&quot;index&quot;:null}"/><path d="M202.07239,203.80284l-4.24413,5.13569l0.07628,8.24457l24.76099,-73.4031l-2.61524,43.75806"/></g></g><g stroke="#000000" stroke-linecap="butt"><path d="M221.64726,165.58423c1.64955,-0.50176 3.63833,1.36462 4.44204,4.16866c0.80372,2.80407 0.11803,5.48394 -1.53152,5.9857c-1.64955,0.50176 -3.63834,-1.36459 -4.44203,-4.16865c-0.80372,-2.80407 -0.11804,-5.48396 1.53152,-5.98571z" fill="#000000" stroke-width="1"/><path d="M202.16474,202.36595c-12.39413,1.31889 -23.74997,-9.79479 -25.36403,-24.82316c-1.61402,-15.02832 7.12504,-28.28033 19.51914,-29.59922c12.39413,-1.31889 23.74994,9.79484 25.36397,24.82318c1.61402,15.02832 -7.12494,28.28034 -19.51909,29.59921z" fill="#000000" stroke-width="0"/><path d="M212.96896,204.58831c-11.91128,1.26752 -22.82475,-9.41323 -24.37591,-23.85611c-1.55115,-14.44284 6.84746,-27.17862 18.75874,-28.44612c11.91128,-1.26752 22.82471,9.41327 24.37585,23.85611c1.55115,14.44284 -6.84739,27.17863 -18.7587,28.44611z" fill="#000000" stroke-width="0"/><path d="M210.61956,196.45202c-12.39413,1.31889 -23.74999,-9.79479 -25.36403,-24.82316c-1.61402,-15.02832 7.12503,-28.28032 19.51913,-29.59921c12.39413,-1.31889 23.74997,9.79483 25.36396,24.82315c1.61402,15.02832 -7.12495,28.28033 -19.5191,29.59922z" fill="#000000" stroke-width="0"/><path d="M210.31087,201.58642c-12.39413,1.31889 -23.74999,-9.79479 -25.36402,-24.82317c-1.61402,-15.02832 7.12498,-28.28031 19.51912,-29.5992c12.39413,-1.31889 23.74997,9.79483 25.36396,24.82315c1.61402,15.02832 -7.12496,28.28034 -19.51911,29.59923z" fill="#000000" stroke-width="0"/><path d="M210.19857,200.96219c-12.74304,2.39238 -25.22515,-6.94215 -27.8796,-20.84925c-2.04271,-10.70201 3.15859,-20.12089 10.93585,-26.19147c2.32916,-1.81805 3.8312,-5.72012 6.76799,-6.27148c4.30635,-0.80848 10.69874,-0.7625 14.66145,1.27752c6.4386,3.31457 9.78675,8.82108 11.63603,16.47254c0.38054,1.57439 0.39317,4.96894 0.69308,6.54017c0.59796,3.13285 1.52429,10.41997 1.20865,13.32804c-1.08557,10.00124 -8.15108,13.84047 -18.02348,15.69392z" fill="#0a0300" stroke-width="1"/><path d="M204.52953,151.02689c2.50205,-0.46973 5.27116,3.03091 5.81839,5.89784c0.54722,2.86694 -1.48333,3.23586 -3.98538,3.70562c-2.50205,0.46974 -4.52806,0.86238 -5.07528,-2.00456c-0.54722,-2.86694 0.74021,-7.12918 3.24226,-7.59891z" fill="#000000" stroke-width="1"/><path d="M185.22799,163.14143c1.83775,-0.86046 4.29113,0.59849 5.47973,3.25866c1.18861,2.66017 0.66242,5.51417 -1.17532,6.37466c-1.83775,0.86046 -4.29115,-0.59847 -5.47975,-3.25864c-1.18861,-2.66016 -0.6624,-5.51419 1.17534,-6.37468z" fill="#000000" stroke-width="1"/><path d="M214.74848,181.19138c2.05235,0.40666 3.27558,3.06599 2.73224,5.93984c-0.54339,2.87384 -2.64764,4.87392 -4.69996,4.46726c-2.05235,-0.40666 -3.27561,-3.06601 -2.73223,-5.93984c0.54339,-2.87384 2.64763,-4.87392 4.69995,-4.46725z" fill="#000000" stroke-width="1"/><path d="M202.27125,168.11979c2.06051,-0.38683 5.77247,1.31839 6.15553,3.32524c0.38304,2.00686 -2.51767,2.6235 -4.57816,3.01035c-2.06051,0.38683 -4.4673,1.66284 -4.85037,-0.34403c-0.38304,-2.00686 1.21253,-5.60472 3.27304,-5.99156z" fill="#000000" stroke-width="1"/><path d="M190.98012,187.36752c0.10258,-2.36673 1.52407,-4.1964 3.17494,-4.08668c1.65087,0.1097 2.90598,2.11729 2.80336,4.48402c-0.10258,2.36673 -1.52404,4.19639 -3.17494,4.08667c-1.65087,-0.1097 -2.90601,-2.11726 -2.80337,-4.48398z" data-paper-data="{&quot;index&quot;:null}" fill="#000000" stroke-width="1"/></g><path d="M332.46197,193.71565l4.12228,1.20205l3.15928,-1.49948l-14.65064,0.1428l-6.38268,-7.76258" data-paper-data="{&quot;index&quot;:null}" fill="none" stroke="#000000" stroke-width="7.5" stroke-linecap="round"/><path d="M322.69896,181.39501l6.07212,-5.4527l11.88639,2.83144l-2.54287,-1.96723l-3.42255,0.27836" data-paper-data="{&quot;index&quot;:null}" fill="none" stroke="#000000" stroke-width="7.5" stroke-linecap="round"/><path d="M165.52152,154.63247c-2.05034,-3.82127 -6.45683,-12.06697 -6.45683,-12.06697c0,0 12.00878,8.66743 17.73231,9.60364c6.11881,1.00083 13.41156,2.30351 13.41156,2.30351l-9.07661,11.66821c0,0 -13.07041,-6.77445 -15.61043,-11.50836z" data-paper-data="{&quot;index&quot;:null}" fill="url(#color-1)" stroke="#000000" stroke-width="4" stroke-linecap="butt"/><g stroke="#000000" stroke-width="0" stroke-linecap="butt"><path d="M327.91361,183.84879c-2.02829,12.0159 -13.84878,20.12686 -26.40177,18.11628c-12.55297,-2.01054 -21.08499,-13.38121 -19.0567,-25.39714c2.02829,-12.0159 13.84878,-20.12686 26.40175,-18.11629c12.55297,2.01054 21.085,13.38123 19.05671,25.39716z" fill="#000000"/><g><path d="M319.16899,182.27805c-2.01689,12.01798 -14.50087,20.00716 -27.88369,17.84424c-13.38283,-2.16288 -22.59682,-13.65876 -20.57992,-25.67678c2.01689,-12.01798 14.50086,-20.00715 27.88369,-17.84424c13.38283,2.16288 22.59683,13.65876 20.57993,25.67678z" fill="#000000"/><path d="M322.44499,186.57299c-2.02829,12.0159 -13.84878,20.12686 -26.40177,18.11628c-12.55297,-2.01054 -21.08499,-13.38122 -19.05669,-25.39715c2.02829,-12.0159 13.84878,-20.12686 26.40173,-18.11629c12.55297,2.01054 21.08501,13.38124 19.05673,25.39716z" fill="#000000"/><path d="M323.81875,180.50566c-1.94926,11.54778 -13.30926,19.34278 -25.37324,17.41058c-12.06395,-1.93222 -20.26356,-12.85998 -18.31429,-24.40779c1.94926,-11.54778 13.30924,-19.34276 25.37321,-17.41054c12.06395,1.93222 20.26358,12.85994 18.31431,24.40774z" fill="#000000"/><path d="M320.45717,183.787c-1.79822,10.6529 -15.00531,19.71822 -25.48412,18.03991c-3.14346,-0.50347 -8.78154,-0.88401 -11.15994,-2.67772c-5.55007,-4.18569 -5.8164,-12.19278 -4.55763,-19.65005c1.79822,-10.6529 11.51748,-18.29586 21.99628,-16.61751c6.97221,1.11669 12.9287,3.65337 16.2291,9.34797c1.65992,2.86397 3.57806,7.99254 2.97631,11.55742z" fill="#060200"/></g></g><g stroke="#000000" stroke-linecap="butt"><path d="M249.07086,146.58005c0.00035,-2.38424 3.35342,-4.24202 7.48924,-4.14939c4.13586,0.09261 7.48833,2.10046 7.48798,4.48472c-0.00035,2.38424 -3.35338,4.24201 -7.48924,4.14939c-4.13586,-0.09261 -7.48835,-2.10047 -7.48801,-4.48472z" fill="#000000" stroke-width="1"/><path d="M290.92587,187.4351c-3.32789,16.90588 -23.09338,27.32574 -44.14752,23.27339c-21.05404,-4.05236 -35.42388,-21.0424 -32.09597,-37.94823c3.32789,-16.90588 23.09341,-27.32566 44.1475,-23.2733c21.05404,4.05236 35.42393,21.04228 32.09599,37.94818z" fill="#000000" stroke-width="0"/><path d="M298.40146,174.08531c-3.19824,16.24728 -22.19374,26.26119 -42.42764,22.36674c-20.23381,-3.89445 -34.04389,-20.22265 -30.84562,-36.4699c3.19825,-16.24728 22.19379,-26.26113 42.4276,-22.36665c20.23382,3.89445 34.04394,20.22254 30.84563,36.46985z" fill="#000000" stroke-width="0"/><path d="M286.39365,173.83949c-3.32789,16.90588 -23.09336,27.32574 -44.14751,23.27341c-21.05404,-4.05236 -35.42389,-21.04239 -32.09598,-37.94823c3.32789,-16.90588 23.09344,-27.32568 44.14748,-23.2733c21.05404,4.05235 35.42392,21.0423 32.09602,37.94819z" fill="#000000" stroke-width="0"/><path d="M293.23159,176.35953c-3.32789,16.90588 -23.09337,27.32574 -44.14751,23.27338c-21.05404,-4.05236 -35.42389,-21.04232 -32.096,-37.94819c3.32789,-16.90588 23.09343,-27.3257 44.14747,-23.27331c21.05404,4.05236 35.42392,21.0423 32.09602,37.94819z" fill="#000000" stroke-width="0"/><path d="M292.33841,176.25096c-2.01563,17.80819 -19.83247,30.44698 -39.79502,28.2296c-15.36189,-1.70638 -25.99227,-12.44864 -31.01675,-25.21416c-1.50476,-3.82306 -6.17826,-7.41158 -5.71371,-11.51571c0.68116,-6.01805 3.38275,-14.43863 7.78634,-18.83101c7.1549,-7.13677 16.00746,-9.29151 27.15108,-8.58491c2.29294,0.14537 6.90326,1.52533 9.15866,1.77584c4.49694,0.49952 14.76524,2.27476 18.58004,3.88796c13.11967,5.54812 15.41092,16.4559 13.84936,30.25242z" fill="#0a0300" stroke-width="1"/><path d="M222.25477,163.1901c0.39577,-3.49655 6.28809,-5.71218 10.40333,-5.25508c4.11528,0.45711 3.77743,3.28972 3.38168,6.7863c-0.39577,3.49655 -0.69956,6.33294 -4.81484,5.87583c-4.11528,-0.45711 -9.36594,-3.91048 -8.97019,-7.40704z" fill="#000000" stroke-width="1"/><path d="M230.72058,193.65719c-0.40857,-2.7803 2.58358,-5.41909 6.68315,-5.89383c4.09958,-0.47475 7.75415,1.39419 8.16274,4.17448c0.40857,2.7803 -2.58357,5.41912 -6.68314,5.89386c-4.09958,0.47475 -7.75414,-1.39423 -8.16273,-4.17452z" fill="#000000" stroke-width="1"/><path d="M267.3955,162.10949c1.39902,-2.54228 5.51177,-3.06311 9.18614,-1.16334c3.67434,1.89982 5.5189,5.50082 4.11989,8.04308c-1.39902,2.54228 -5.51182,3.06313 -9.18615,1.16332c-3.67434,-1.89982 -5.5189,-5.50083 -4.11988,-8.04306z" fill="#000000" stroke-width="1"/><path d="M244.51094,173.20427c0.32593,-2.87953 4.1718,-7.07859 7.0525,-6.75863c2.88069,0.31999 2.51962,4.40334 2.19371,7.28284c-0.32593,2.87953 0.41145,6.58205 -2.46927,6.26209c-2.88069,-0.31999 -7.10285,-3.90683 -6.77692,-6.78636z" fill="#000000" stroke-width="1"/><path d="M265.96099,196.03056c-3.16838,-1.10919 -5.06368,-3.73871 -4.23324,-5.87311c0.83041,-2.13441 4.07213,-2.96547 7.24051,-1.85619c3.16838,1.10919 5.06367,3.73868 4.23323,5.87311c-0.83041,2.13441 -4.0721,2.96549 -7.24047,1.85625z" data-paper-data="{&quot;index&quot;:null}" fill="#000000" stroke-width="1"/></g><g data-paper-data="{&quot;index&quot;:null}" fill="none" stroke="#000000" stroke-width="1.5" stroke-linecap="round"><path d="M235.48422,208.83683l-3.16906,2.17915"/><path d="M231.2717,203.54069l-4.98583,3.49419"/><path d="M240.32828,208.72038l-1.96915,8.19235"/><path d="M219.31201,198.34446l3.6696,-2.22871"/><path d="M255.02166,215.04717l0.79346,-4.35928"/><path d="M251.01927,221.05752l0.82248,-9.7709"/><path d="M270.03839,205.3841l5.59316,7.03387"/><path d="M284.33314,205.31665l-7.75576,-4.13516"/><path d="M289.56573,198.8911l-6.65022,-2.06804"/><path d="M287.98359,192.35179l3.18116,2.74391"/><path d="M295.35458,160.52191l4.52135,-3.04328"/><path d="M297.20036,153.79527l-3.97464,1.6153"/><path d="M280.85754,135.81747l-2.91022,4.171"/><path d="M252.20678,136.01195l-1.07656,-7.47881"/><path d="M229.97493,131.57378l4.03998,7.74239"/><path d="M227.0579,142.98195l-1.15883,-6.50165"/><path d="M257.24211,209.24041l1.32991,9.5358"/><path d="M295.58419,188.0238l-3.11587,-1.99983"/><path d="M298.53065,181.39496l-5.03782,-0.44802"/><path d="M301.77346,174.79255l-4.91421,1.63021l-2.39952,0.13108"/><path d="M304.12728,168.11102l-7.42891,3.12927l-1.36657,-1.49974"/><path d="M301.71079,161.34978l-5.49842,5.02372"/><path d="M288.4735,151.90351l4.55185,-4.41878"/><path d="M290.34975,143.80129l-4.79059,3.70846"/><path d="M279.69182,145.70989l7.20507,-9.0721"/><path d="M269.28389,131.59156l-2.11505,7.39185"/><path d="M263.37391,137.95685l0.46059,-5.47175"/><path d="M260.18869,143.87529l-2.9601,-10.94411"/><g><path d="M237.15786,206.0431l-3.02791,2.1917"/><path d="M228.58741,202.63126l-4.76404,3.51395"/><path d="M240.68815,217.18554l1.90866,-8.19768"/><path d="M225.67913,197.63915l-4.04484,2.47922"/><path d="M243.78126,213.3292l0.77329,-4.36106"/><path d="M252.42167,217.73685l0.82248,-9.77089"/><path d="M272.24308,204.24138l3.66171,4.7555"/><path d="M276.85068,197.76031l7.37266,4.1011"/><path d="M282.90651,193.37688l6.32758,2.03936"/><path d="M290.77264,191.61544l-3.01988,-2.72961"/><path d="M294.902,157.03626l4.31969,-3.06122"/><path d="M296.68722,150.30414l-3.79316,1.6315"/><path d="M275.03714,140.25836l4.47047,-8.9478"/><path d="M276.0369,131.2405l-3.4731,9.52867"/><path d="M254.16747,128.77396l0.8579,9.11045"/><path d="M237.89988,139.02505l-5.17168,-10.65183"/><path d="M227.43648,133.19966l1.88435,8.32177"/><path d="M259.5971,215.77312l-1.52245,-6.04186"/><path d="M295.01132,184.52742l-2.96061,-1.98601"/><path d="M293.04695,177.46187l4.79791,0.42669"/><path d="M300.96064,171.27484l-4.68837,1.65033l-2.28663,0.14116"/><path d="M303.22976,164.58569l-7.09019,3.15939l-1.296,-1.49339"/><path d="M295.69594,162.88214l5.2585,-5.04502"/><path d="M292.73473,144.01341l-4.35421,4.43633"/><path d="M285.62139,144.06994l4.5789,-3.72727"/><path d="M284.51511,135.91722l-4.18715,5.82937"/><path d="M270.17885,128.22571l-2.04448,7.39814"/><path d="M265.96257,136.08276l0.46059,-5.47171"/><path d="M261.46477,140.54337l-2.77663,-10.92776"/></g><path d="M264.18471,209.4733l2.16647,6.61486"/><path d="M267.396,207.22301l3.63068,6.52466"/><path d="M262.08727,217.08714l-0.41996,-2.10464l-0.52576,-4.76399"/><path d="M248.56855,129.40467l-0.27844,7.24888"/><path d="M244.77434,130.27852l0.60965,6.94508"/><path d="M239.22949,126.85144l2.28878,9.01839"/><path d="M224.12973,203.37506l3.33767,-4.1822"/><path d="M239.43521,206.75103l-3.99015,7.62213"/><path d="M229.59604,209.37386l3.33766,-4.18221"/><path d="M249.74747,211.16608l-2.11504,7.39184"/><path d="M289.17973,186.07603l6.32654,6.41986"/></g><g fill="none" stroke="#000000" stroke-width="1.5" stroke-linecap="round"><path d="M216.90787,204.92611l2.01105,1.82916"/><path d="M224.28941,205.34377l-3.16099,-2.92799"/><path d="M213.35205,204.20924l0.93888,6.35836"/><path d="M227.81691,197.3813l-2.3421,-1.89309"/><path d="M210.1638,209.58906l-0.33022,-3.37013"/><path d="M205.56932,205.56887l0.10367,7.50401"/><path d="M193.72154,200.11342l-4.04376,5.07966"/><path d="M189.55859,196.56353l-5.35196,2.75349"/><path d="M185.53648,192.90514l-4.52192,1.23262"/><path d="M182.36515,189.22672l-2.24283,1.92952"/><path d="M176.03136,161.97761l2.8722,2.55949"/><path d="M177.98021,159.30441l2.57307,1.44057"/><path d="M190.01917,147.76073l1.74822,3.33667"/><path d="M209.8033,142.41478l-1.05665,5.65479"/><path d="M220.70932,151.54066l3.04176,-5.70161"/><path d="M225.78811,149.54426l-1.06701,4.90432"/><path d="M200.74777,210.93726l1.31879,-7.2123"/><path d="M179.66655,184.16106l-2.16554,1.36472"/><path d="M175.84036,180.31043l3.37473,-0.07961"/><path d="M178.77092,176.82584l-1.59173,-0.22516l-3.198,-1.50093"/><path d="M178.49983,171.57771l-0.97806,1.074l-4.80426,-2.77665"/><path d="M174.63374,164.83805l3.43278,4.12266"/><path d="M181.04684,154.70317l2.83,3.61142"/><path d="M186.01697,155.11137l-3.02125,-3.08144"/><path d="M186.30111,146.93016l4.38518,7.30297"/><path d="M197.57694,143.80424l1.0724,5.75467"/><path d="M201.16473,144.77051l0.05804,4.20227"/><path d="M203.07469,153.65813l2.46824,-8.20274"/><g><path d="M217.50117,204.16146l-1.91651,-1.8314"/><path d="M222.61207,202.53961l-3.01241,-2.93152"/><path d="M212.72776,210.65453l-0.89835,-6.35927"/><path d="M223.6095,196.51092l2.58055,2.10394"/><path d="M209.16482,206.98536l-0.31673,-3.37043"/><path d="M204.78644,202.96011l0.10367,7.50399"/><path d="M189.83993,198.87939l-2.65418,3.44052"/><path d="M181.72462,197.93046l5.09534,-2.74743"/><path d="M181.39326,191.5016l4.3058,-1.22754"/><path d="M180.54153,188.5191l2.13478,-1.92697"/><path d="M176.62618,159.33634l2.73711,2.56268"/><path d="M181.79369,158.68323l-3.31318,-2.01795"/><path d="M193.3524,151.64553l-2.57003,-7.06555"/><path d="M194.97603,150.64142l-1.87956,-7.45716"/><path d="M208.77725,139.81177l-0.98519,6.91211"/><path d="M218.1358,151.11594l3.92749,-7.86432"/><path d="M222.37291,153.2154l1.6328,-6.25638"/><path d="M200.20166,208.59066l1.28824,-4.53428"/><path d="M178.04133,182.88577l2.06153,-1.36226"/><path d="M176.45631,177.66865l3.21402,-0.07581"/><path d="M179.24504,174.18745l-1.51611,-0.22696l-3.04672,-1.50449"/><path d="M178.98345,168.93905l-0.93079,1.07283l-4.57734,-2.78201"/><path d="M175.29696,162.19517l3.27206,4.12643"/><path d="M181.39806,152.0676l2.69762,3.61452"/><path d="M187.61117,152.97457l-2.87943,-3.08477"/><path d="M187.06866,146.69439l2.52307,4.66955"/><path d="M198.15909,146.94323l-1.02512,-5.7558"/><path d="M199.52627,143.20458l0.05804,4.20223"/><path d="M202.37643,151.04736l2.34532,-8.19983"/></g><path d="M195.69025,208.47927l1.74308,-3.19382"/><path d="M192.68346,206.44842l2.71392,-4.79309"/><path d="M199.42573,202.82306l-0.56654,5.05599l-0.37526,1.58523"/><path d="M211.82535,146.76361l0.14398,-5.54982"/><path d="M214.62743,141.82566l-0.7215,5.27155"/><path d="M215.86992,148.51802l1.93373,-6.76723"/><path d="M222.34819,197.60416l2.03231,3.36747"/><path d="M214.03616,202.75197l2.31045,6.02823"/><path d="M220.46827,205.26751l-2.03231,-3.3675"/><path d="M208.04166,211.34062l-1.0724,-5.75467"/><path d="M177.34971,188.94477l4.50415,-4.57259"/></g><g stroke-linecap="butt"><path d="M303.55551,175.832c0.81239,-4.42545 5.05851,-7.35443 9.48399,-6.54203c4.42546,0.81241 7.35444,5.05851 6.54204,9.48399c-0.81239,4.42545 -5.05851,7.35444 -9.484,6.54204c-4.42546,-0.81241 -7.35444,-5.05851 -6.54204,-9.484z" fill="#5100a4" stroke="#000000" stroke-width="2.5"/><path d="M309.68558,178.11984c0.35507,-1.93419 2.21089,-3.21433 4.14508,-2.85926c1.93419,0.35507 3.21432,2.21089 2.85925,4.14508c-0.35507,1.93419 -2.21087,3.21434 -4.14506,2.85928c-1.93419,-0.35507 -3.21434,-2.21089 -2.85926,-4.14508z" fill="#000000" stroke="none" stroke-width="0.5"/><path d="M299.83106,176.67508c1.23096,-7.40038 8.12087,-12.43616 15.38907,-11.24775c7.26819,1.1884 12.16228,8.15096 10.93135,15.55129c-1.23096,7.40038 -8.12084,12.43617 -15.38903,11.24777c-7.26819,-1.1884 -12.16232,-8.15095 -10.93138,-15.55129z" fill="url(#color-2)" stroke="#000000" stroke-width="0"/></g><g fill="#000000" stroke="#000000" stroke-width="1.5" stroke-linecap="butt"><path d="M316.99196,160.15293l9.8533,-4.16462l-5.9002,8.73448z"/><g><path d="M305.80717,156.34911l3.81751,-9.80172l2.23831,10.36076z"/><path d="M311.74889,157.29766l8.03145,-6.91837l-2.86226,10.12192z"/></g></g><g fill="none" stroke="#000000" stroke-width="1.5" stroke-linecap="round"><path d="M289.79248,156.14316l1.82228,1.30302"/><path d="M288.40279,159.90774l-2.86939,-2.09139"/><path d="M294.59403,157.68991l-1.38167,-5.11317"/><path d="M283.41445,164.67312l2.09938,1.32342"/><path d="M296.68441,152.9795l0.59531,2.72629"/><path d="M300.83229,155.8265l-0.80862,-6.13133"/><path d="M313.87429,154.60126l-2.81948,4.54726"/><path d="M318.91867,158.88256l-4.1145,2.76969"/><path d="M318.44878,164.25833l3.58188,-1.44494"/><path d="M321.39901,166.9629l1.64944,-1.79546"/><path d="M326.6134,186.83515l2.59749,1.81766"/><path d="M327.87379,191.02857l-2.24477,-0.93079"/><path d="M319.13446,201.63719l-1.75259,-2.56213"/><path d="M303.77798,203.19074l-0.31936,4.72984"/><path d="M293.65286,201.50383l-1.93946,4.95962"/><path d="M290.08912,199.51093l-0.40022,4.11663"/><path d="M303.87685,156.99773l0.38365,-6.0298"/><path d="M325.73682,169.5226l-1.64066,1.32577"/><path d="M327.59895,173.6307l-2.75422,0.39066"/><path d="M325.53664,176.76518l1.3244,0.03074l2.76203,0.9199"/><path d="M326.26472,181.03414l0.69685,-0.97331l4.19965,1.80904"/><path d="M326.87175,183.13412l3.20705,3.0429"/><path d="M323.14342,192.40739l2.66442,2.68265"/><path d="M324.4707,197.4658l-2.76983,-2.23045"/><path d="M322.25745,201.95831l-4.29325,-5.55383"/><path d="M313.33074,205.60417l-1.43271,-4.60622"/><path d="M310.30125,205.15942l-0.45282,-3.43356"/><path d="M306.65206,205.02122l1.22885,-6.95125"/><g><path d="M292.94809,159.44318l-1.74512,-1.31398"/><path d="M289.92473,162.05812l-2.74813,-2.10862"/><path d="M295.83185,157.47265l-1.34859,-5.11782"/><path d="M284.6269,163.50665l2.31487,1.47297"/><path d="M298.33741,157.74186l-0.58431,-2.72783"/><path d="M300.91603,151.7547l0.80864,6.13132"/><path d="M312.30895,159.82009l1.84035,-3.07175"/><path d="M318.9843,161.0594l-3.90506,2.73999"/><path d="M321.97497,165.00739l-3.40548,1.41993"/><path d="M322.95972,167.36613l-1.56125,1.78295"/><path d="M326.49157,189.03852l2.48725,1.8333"/><path d="M324.81271,191.90476l2.90617,1.33193"/><path d="M318.81663,204.31394l-2.78483,-5.53459"/><path d="M317.05737,205.67942l-2.25751,-5.92169"/><path d="M304.68902,204.2l-0.13959,5.75194"/><path d="M293.34424,208.41823l2.45575,-6.81503"/><path d="M291.39696,205.57143l0.73285,-5.27775"/><path d="M304.93379,152.83573l-0.61696,3.83514"/><path d="M323.99346,173.04904l1.55577,-1.31372"/><path d="M324.72658,176.22422l2.62307,-0.37205"/><path d="M325.40311,178.9702l1.26269,0.03951l2.63856,0.93742"/><path d="M326.12343,183.24028l0.65829,-0.9678l4.01446,1.83532"/><path d="M329.79093,188.40394l-3.07587,-3.0615"/><path d="M325.7746,197.28087l-2.55638,-2.69795"/><path d="M324.51463,199.64562l-2.65408,-2.24687"/><path d="M319.13673,198.64707l2.51529,3.57823"/><path d="M313.94567,207.70307l-1.39413,-4.6117"/><path d="M311.79324,206.28296l-0.45282,-3.43353"/><path d="M307.57565,207.07628l1.12853,-6.93701"/></g><path d="M308.63669,152.49175l-1.11849,2.78197"/><path d="M309.53458,158.04825l1.75877,-4.18446"/><path d="M306.12511,157.48113l-0.024,-4.1925l0.15421,-1.33355"/><path d="M301.60061,202.87148l0.41747,4.5559"/><path d="M299.56736,208.86802l0.08202,-4.38386"/><path d="M297.90498,203.51082l-0.92984,5.72486"/><path d="M285.88055,161.40332l1.98806,2.55994"/><path d="M294.17468,158.94851l-2.47233,-4.71069"/><path d="M288.66799,157.5102l1.98806,2.55996"/><path d="M299.68495,155.94756l-1.43271,-4.60622"/><path d="M322.28569,170.88658l3.24518,-4.17668"/></g><path d="M160.76456,137.01169c2.1044,1.46451 2.62312,4.3577 1.15861,6.4621c-1.46452,2.10441 -4.3577,2.62312 -6.4621,1.15861c-2.10441,-1.46452 -2.62312,-4.3577 -1.15861,-6.4621c1.46452,-2.10441 4.3577,-2.62312 6.4621,-1.15861z" data-paper-data="{&quot;index&quot;:null}" fill="#5100a4" stroke="#000000" stroke-width="0" stroke-linecap="butt"/><path d="M148.84385,135.08824c3.79286,-5.2602 11.04544,-6.4945 16.19908,-2.75684c5.15366,3.73762 6.25678,11.03184 2.4639,16.29207c-3.79287,5.2602 -11.04542,6.49451 -16.19907,2.75686c-5.15366,-3.73763 -6.2568,-11.03187 -2.46392,-16.2921z" data-paper-data="{&quot;index&quot;:null}" fill="url(#color-3)" stroke="#000000" stroke-width="0" stroke-linecap="butt"/><path d="M149.5833,134.72013c3.4582,-4.79608 10.07084,-5.92146 14.76976,-2.5136c4.69891,3.40786 5.70469,10.05846 2.24649,14.85455c-3.45818,4.79607 -10.07084,5.92147 -14.76975,2.51363c-4.69892,-3.40787 -5.70472,-10.05847 -2.24651,-14.85456z" data-paper-data="{&quot;index&quot;:null}" fill="url(#color-4)" stroke="#000000" stroke-width="0" stroke-linecap="butt"/><g fill="none" stroke="#000000" stroke-width="9" stroke-linecap="round"><path d="M252.71399,179.44921l8.71234,-41.08993l6.52148,78.82177l1.79971,-7.13103" data-paper-data="{&quot;index&quot;:null}"/><g><path d="M178.82256,205.49265l-0.58761,6.97555l41.88252,-91.38499l-1.43738,47.37799"/><path d="M277.68779,178.09334l16.09822,-45.5217l9.92372,88.56965l-3.01725,-6.0366" data-paper-data="{&quot;index&quot;:null}"/><path d="M220.39307,201.10814l-4.12305,5.23339l0.33596,7.36803l23.39522,-78.57255l0.70378,42.47883"/></g></g></g></g></svg>