<svg version="1.1" xmlns="http://www.w3.org/2000/svg" xmlns:xlink="http://www.w3.org/1999/xlink" width="40.08334" height="48.35293" viewBox="0,0,40.08334,48.35293"><g transform="translate(-219.95833,-155.8236)"><g data-paper-data="{&quot;isPaintingLayer&quot;:true}" fill-rule="nonzero" stroke-linejoin="miter" stroke-miterlimit="10" stroke-dasharray="" stroke-dashoffset="0" style="mix-blend-mode: normal"><path d="M240,159.8236v40.35293" fill="none" stroke="#0046d8" stroke-width="8" stroke-linecap="round"/><path d="M240,197.79173c-9.82608,0 -17.79167,-7.96559 -17.79167,-17.79167c0,-9.82608 7.96559,-17.79167 17.79167,-17.79167c9.82608,0 17.79167,7.96559 17.79167,17.79167c0,9.82608 -7.96559,17.79167 -17.79167,17.79167z" data-paper-data="{&quot;index&quot;:null}" fill="#9a9a9a" stroke="#0046d8" stroke-width="4.5" stroke-linecap="butt"/><path d="M237.19767,174.30258l2.59111,-6.50052l2.43868,6.50052v13.5317c0,0 -1.83105,0.80405 -2.73537,0.80405c-0.73845,0 -2.29443,-0.80405 -2.29443,-0.80405z" fill="#000000" stroke="#000000" stroke-width="0.5" stroke-linecap="butt"/><path d="M229.79292,189.47043v-13.24679l2.53655,-6.36366l2.38734,6.36366v13.24679c0,0 -1.79251,0.78712 -2.67778,0.78712c-0.72289,0 -2.24611,-0.78712 -2.24611,-0.78712z" fill="#000000" stroke="#000000" stroke-width="0.5" stroke-linecap="butt"/><path d="M244.68667,189.51841v-13.62667l2.60929,-6.54614l2.4558,6.54614v13.62667c0,0 -1.8439,0.80969 -2.75456,0.80969c-0.74363,0 -2.31053,-0.80969 -2.31053,-0.80969z" fill="#000000" stroke="#000000" stroke-width="0.5" stroke-linecap="butt"/></g></g></svg>