<svg version="1.1" xmlns="http://www.w3.org/2000/svg" xmlns:xlink="http://www.w3.org/1999/xlink" width="237.81586" height="148.31841" viewBox="0,0,237.81586,148.31841"><defs><linearGradient x1="195.41386" y1="163.75832" x2="221.56659" y2="175.97539" gradientUnits="userSpaceOnUse" id="color-1"><stop offset="0" stop-color="#050000"/><stop offset="1" stop-color="#0f0707"/></linearGradient><radialGradient cx="191.06483" cy="174.07941" r="11.52692" gradientUnits="userSpaceOnUse" id="color-2"><stop offset="0" stop-color="#5100a4"/><stop offset="1" stop-color="#5100a4" stop-opacity="0"/></radialGradient><radialGradient cx="190.86547" cy="173.98189" r="10.50984" gradientUnits="userSpaceOnUse" id="color-3"><stop offset="0" stop-color="#5100a4"/><stop offset="1" stop-color="#5100a4" stop-opacity="0"/></radialGradient><radialGradient cx="364.42077" cy="184.8916" r="13.33459" gradientUnits="userSpaceOnUse" id="color-4"><stop offset="0" stop-color="#5100a4"/><stop offset="1" stop-color="#5100a4" stop-opacity="0"/></radialGradient></defs><g transform="translate(-179.53766,-105.10894)"><g data-paper-data="{&quot;isPaintingLayer&quot;:true}" fill-rule="nonzero" stroke-linejoin="miter" stroke-miterlimit="10" stroke-dasharray="" stroke-dashoffset="0" style="mix-blend-mode: normal"><g fill="none" stroke="#000000" stroke-width="9" stroke-linecap="round"><path d="M272.95971,185.79697l15.07239,-38.84616l-4.29119,76.49791l4.56666,-12.46704" data-paper-data="{&quot;index&quot;:null}"/><g><path d="M208.09553,202.56643l-8.49363,5.82165l0.43687,12.52372l42.12886,-94.08825l3.41213,49.10463"/><path d="M295.42476,184.23272l18.57182,-42.04602l7.0183,79.89882l-1.98083,-4.85697" data-paper-data="{&quot;index&quot;:null}"/><path d="M240.09824,200.68103l-4.24451,4.67974l-0.18906,10.7999l30.23167,-69.32071l-7.83068,39.14561"/></g></g><path d="M378.70782,185.52961l12.27884,-4.33347l7.47121,2.20422l-21.10087,2.35436l-4.79495,8.34429" data-paper-data="{&quot;index&quot;:null}" fill="none" stroke="#000000" stroke-width="7.5" stroke-linecap="round"/><g stroke="#000000" stroke-linecap="butt"><path d="M202.48721,167.33282c4.271,-2.32084 17.05975,-2.58561 17.05975,-2.58561l0.76557,17.27978c0,0 -5.95825,-3.25164 -10.9101,-6.0542c-4.63196,-2.62148 -15.93174,-2.83744 -15.93174,-2.83744c0,0 5.56892,-3.92909 9.01653,-5.80252z" fill="url(#color-1)" stroke-width="4"/><path d="M186.20112,173.97594c0.0409,-2.56351 2.15222,-4.60851 4.71574,-4.5676c2.56351,0.0409 4.60851,2.15222 4.5676,4.71574c-0.0409,2.56351 -2.15223,4.60851 -4.71574,4.5676c-2.56351,-0.0409 -4.60851,-2.15222 -4.5676,-4.71574z" fill="#5100a4" stroke-width="0"/><path d="M179.53767,174.11999c-0.00497,-6.48506 5.15189,-11.76039 11.51817,-11.78282c6.36627,-0.02243 11.53118,5.21656 11.53618,11.70157c0.00497,6.48506 -5.15187,11.76039 -11.51815,11.78282c-6.36627,0.02243 -11.53121,-5.21655 -11.53619,-11.70157z" fill="url(#color-2)" stroke-width="0"/><path d="M180.35539,174.0189c-0.00453,-5.91283 4.69729,-10.72272 10.50186,-10.74317c5.80455,-0.02045 10.51373,4.75629 10.51828,10.66909c0.00453,5.91283 -4.69727,10.72271 -10.50183,10.74317c-5.80455,0.02045 -10.51375,-4.75627 -10.5183,-10.6691z" fill="url(#color-3)" stroke-width="0"/></g><g data-paper-data="{&quot;index&quot;:null}" fill="none" stroke="#000000" stroke-width="1.5" stroke-linecap="round"><path d="M279.73052,218.0676l-3.02644,2.40025"/><path d="M275.14734,213.04884l-4.75695,3.84217"/><path d="M283.16346,225.96322l1.41293,-8.34353"/><path d="M262.80822,208.65993l3.52461,-2.48413"/><path d="M299.73204,222.95448l0.49697,-4.42233"/><path d="M296.28857,219.40382l-0.15601,9.84685"/><path d="M320.20371,218.91068l-6.08542,-6.66559"/><path d="M320.38309,207.58686l8.05416,3.61316"/><path d="M333.241,204.40373l-6.80505,-1.61747"/><path d="M334.58374,200.49132l-3.37521,-2.53192"/><path d="M336.41787,165.5613l4.32237,-3.35859"/><path d="M333.93519,160.58521l3.8722,-1.89034"/><path d="M320.20229,141.79835l-2.63088,4.37841"/><path d="M291.50703,143.95233l-1.59013,-7.42028"/><path d="M268.92688,141.02542l4.57755,7.48176"/><path d="M266.78404,152.6561l-1.60575,-6.43553"/><path d="M303.54454,226.44829l-1.98465,-9.4641"/><path d="M335.26962,191.31215l3.25891,1.7908"/><path d="M335.94902,186.15483l5.07861,0.10444"/><path d="M343.82551,179.4218l-4.81265,1.96954l-2.3954,0.29543"/><path d="M345.7272,172.56584l-7.22991,3.64357l-1.47188,-1.40932"/><path d="M342.84349,165.9562l-5.16599,5.40984"/><path d="M333.19244,152.65709l-4.25887,4.73895"/><path d="M325.7129,153.1927l4.54667,-4.04352"/><path d="M326.30991,142.20736l-6.59926,9.58308"/><path d="M308.31631,138.3553l-1.61386,7.55139"/><path d="M302.91704,139.6233l-0.08736,5.51428"/><path d="M296.32831,140.52198l3.71443,10.76377"/><g><path d="M278.33234,217.55697l2.88414,-2.40317"/><path d="M267.86212,216.16792l4.53336,-3.8468"/><path d="M285.51585,226.0773l1.35195,-8.34473"/><path d="M269.13996,207.51781l-3.88347,2.76081"/><path d="M288.35149,222.00169l0.47664,-4.42273"/><path d="M297.31073,225.82739l0.15601,-9.84684"/><path d="M320.24356,215.46401l-3.99428,-4.5147"/><path d="M328.09096,207.74533l-7.66796,-3.60523"/><path d="M326.1913,199.33373l6.4798,1.61079"/><path d="M333.95286,197.03086l-3.21263,-2.52862"/><path d="M339.84509,158.73679l-4.11908,3.36278"/><path d="M333.36525,157.12594l3.68925,-1.89417"/><path d="M314.67381,146.64619l3.86763,-9.27153"/><path d="M312.23042,147.32717l2.82853,-9.78538"/><path d="M294.45936,145.63586l-1.48261,-9.07016"/><path d="M277.37733,147.94982l-5.91048,-10.31967"/><path d="M266.49449,142.82817l2.4572,8.20971"/><path d="M304.36636,223.36904l-1.93866,-5.94994"/><path d="M334.61302,187.85114l3.10239,1.78757"/><path d="M335.26392,182.69322l4.83677,0.09947"/><path d="M342.7705,175.95257l-4.58498,1.97425l-2.28159,0.29781"/><path d="M344.58682,169.09479l-6.88845,3.65059l-1.40073,-1.40778"/><path d="M336.9213,167.90294l4.92412,-5.41477"/><path d="M332.66386,149.19865l-4.05963,4.74302"/><path d="M329.87332,145.69383l-4.33327,4.04789"/><path d="M323.87405,141.64819l-3.79699,6.12744"/><path d="M308.98293,134.92147l-1.54272,7.55286"/><path d="M305.29542,143.0827l0.08737,-5.51424"/><path d="M297.56408,137.09992l3.52947,10.75993"/></g><path d="M311.15558,223.22288l-2.62316,-6.48006"/><path d="M311.59632,214.26841l4.08416,6.28955"/><path d="M306.95139,224.51543l-0.56472,-2.08016l-0.85258,-4.73765"/><path d="M287.62636,144.86307l-0.21668,-7.28254"/><path d="M283.66755,138.7156l1.08578,6.9174"/><path d="M277.87719,135.66075l2.91008,8.88007"/><path d="M267.97965,213.37125l3.05842,-4.41887"/><path d="M283.54685,215.70742l-3.477,7.91035"/><path d="M273.86719,219.00836l3.05841,-4.41888"/><path d="M294.18183,219.42622l-1.61386,7.55138"/><path d="M338.75624,197.5894l-6.77829,-6.0002"/></g><g stroke="#000000" stroke-linecap="butt"><path d="M289.48273,154.81704c-0.30813,-2.36425 2.7764,-4.64023 6.88945,-5.08348c4.11308,-0.44327 7.69715,1.11397 8.00528,3.47823c0.30813,2.36425 -2.77636,4.64022 -6.88945,5.08348c-4.11308,0.44327 -7.69717,-1.11397 -8.0053,-3.47822z" fill="#000000" stroke-width="1"/><path d="M336.27178,189.91351c-1.11264,17.19435 -19.36387,30.08389 -40.76534,28.7896c-21.40138,-1.29432 -37.84861,-16.28239 -36.73596,-33.47669c1.11264,-17.19435 19.36392,-30.08382 40.76533,-28.7895c21.40138,1.29432 37.84865,16.28226 36.73597,33.47664z" fill="#000000" stroke-width="0"/><path d="M341.95734,175.70873c-1.06928,16.52451 -18.60952,28.9119 -39.17722,27.66804c-20.56761,-1.24386 -36.37416,-15.64807 -35.30485,-32.17256c1.06929,-16.52451 18.60958,-28.91185 39.17719,-27.66795c20.56762,1.24386 36.3742,15.64796 35.30485,32.17251z" fill="#000000" stroke-width="0"/><path d="M330.01865,177.01854c-1.11264,17.19435 -19.36385,30.08389 -40.76533,28.78961c-21.40138,-1.29432 -37.84862,-16.28238 -36.73597,-33.47669c1.11264,-17.19435 19.36393,-30.08385 40.76531,-28.7895c21.40138,1.29431 37.84864,16.28228 36.736,33.47665z" fill="#000000" stroke-width="0"/><path d="M337.12516,178.63271c-1.11264,17.19435 -19.36386,30.08389 -40.76533,28.78958c-21.40138,-1.29432 -37.84862,-16.28231 -36.73598,-33.47665c1.11264,-17.19435 19.36392,-30.08386 40.7653,-28.78951c21.40138,1.29432 37.84864,16.28228 36.736,33.47665z" fill="#000000" stroke-width="0"/><path d="M336.22544,178.64062c0.30534,17.9193 -15.72654,32.75701 -35.8082,33.14101c-15.45355,0.29549 -27.38442,-8.98112 -34.01827,-20.98928c-1.98675,-3.59624 -7.08524,-6.54994 -7.15559,-10.67968c-0.10318,-6.0556 1.48624,-14.75494 5.28454,-19.68014c6.17141,-8.00249 14.67078,-11.28447 25.81216,-12.02557c2.29248,-0.1525 7.04259,0.61936 9.31144,0.57596c4.52377,-0.0865 14.93545,0.34531 18.92691,1.45139c13.72721,3.80406 17.41046,14.32372 17.64702,28.20632z" fill="#0a0300" stroke-width="1"/><path d="M265.04103,174.75698c-0.05995,-3.51837 5.4962,-6.47773 9.63599,-6.5569c4.13983,-0.07917 4.1713,2.77335 4.23127,6.29174c0.05995,3.51837 0.12568,6.37022 -4.01415,6.44939c-4.13983,0.07917 -9.79317,-2.66585 -9.85312,-6.18422z" fill="#000000" stroke-width="1"/><path d="M277.37753,203.87268c-0.76485,-2.70407 1.86074,-5.7078 5.86443,-6.70896c4.00369,-1.00116 7.86935,0.37923 8.63422,3.08329c0.76485,2.70407 -1.86073,5.70783 -5.86442,6.70899c-4.00369,1.00116 -7.86936,-0.37927 -8.63423,-3.08333z" fill="#000000" stroke-width="1"/><path d="M309.66254,167.84513c1.05833,-2.70191 5.06914,-3.75047 8.95842,-2.34206c3.88926,1.40846 6.18421,4.74055 5.12588,7.44244c-1.05833,2.70191 -5.06918,3.75051 -8.95843,2.34205c-3.88926,-1.40846 -6.18421,-4.74056 -5.12587,-7.44243z" fill="#000000" stroke-width="1"/><path d="M288.40576,181.80747c-0.04936,-2.8975 3.22091,-7.55884 6.11878,-7.61428c2.89788,-0.0554 3.06814,4.04034 3.11753,6.93781c0.04936,2.8975 1.25958,6.4735 -1.63833,6.52893c-2.89788,0.0554 -7.54862,-2.95502 -7.59798,-5.85252z" fill="#000000" stroke-width="1"/><path d="M312.62881,201.66669c-3.28526,-0.68995 -5.50483,-3.05214 -4.95752,-5.27605c0.54728,-2.22391 3.65424,-3.46739 6.9395,-2.77738c3.28526,0.68995 5.50482,3.05211 4.95751,5.27605c-0.54728,2.22391 -3.6542,3.46742 -6.93946,2.77742z" data-paper-data="{&quot;index&quot;:null}" fill="#000000" stroke-width="1"/></g><g stroke="#000000" stroke-linecap="butt"><path d="M259.84745,166.91589c1.7348,-0.50176 3.82636,1.36462 4.67161,4.16866c0.84526,2.80407 0.12413,5.48394 -1.61067,5.9857c-1.7348,0.50176 -3.82637,-1.36459 -4.6716,-4.16865c-0.84526,-2.80407 -0.12414,-5.48396 1.61067,-5.98571z" fill="#000000" stroke-width="1"/><path d="M239.35805,203.69761c-13.03467,1.31889 -24.9774,-9.79479 -26.67487,-24.82316c-1.69743,-15.02832 7.49327,-28.28033 20.52791,-29.59922c13.03467,-1.31889 24.97736,9.79484 26.67481,24.82318c1.69743,15.02832 -7.49317,28.28034 -20.52786,29.59921z" fill="#000000" stroke-width="0"/><path d="M250.72064,205.91997c-12.52687,1.26752 -24.00436,-9.41323 -25.63569,-23.85611c-1.63132,-14.44284 7.20134,-27.17862 19.72821,-28.44612c12.52687,-1.26752 24.00432,9.41327 25.63562,23.85611c1.63132,14.44284 -7.20127,27.17863 -19.72817,28.44611z" fill="#000000" stroke-width="0"/><path d="M248.24982,197.78368c-13.03467,1.31889 -24.97742,-9.79479 -26.67487,-24.82316c-1.69743,-15.02832 7.49326,-28.28032 20.5279,-29.59921c13.03467,-1.31889 24.9774,9.79483 26.6748,24.82315c1.69743,15.02832 -7.49318,28.28033 -20.52787,29.59922z" fill="#000000" stroke-width="0"/><path d="M247.92518,202.91808c-13.03467,1.31889 -24.97742,-9.79479 -26.67486,-24.82317c-1.69743,-15.02832 7.49321,-28.28031 20.52789,-29.5992c13.03467,-1.31889 24.9774,9.79483 26.6748,24.82315c1.69743,15.02832 -7.49319,28.28034 -20.52788,29.59923z" fill="#000000" stroke-width="0"/><path d="M247.80708,202.29385c-13.40162,2.39238 -26.52881,-6.94215 -29.32045,-20.84925c-2.14828,-10.70201 3.32183,-20.12089 11.50103,-26.19147c2.44953,-1.81805 4.0292,-5.72012 7.11777,-6.27148c4.52891,-0.80848 11.25166,-0.7625 15.41917,1.27752c6.77135,3.31457 10.29254,8.82108 12.23739,16.47254c0.40021,1.57439 0.41349,4.96894 0.7289,6.54017c0.62886,3.13285 1.60307,10.41997 1.27111,13.32804c-1.14167,10.00124 -8.57234,13.84047 -18.95495,15.69392z" fill="#0a0300" stroke-width="1"/><path d="M241.84505,152.35855c2.63136,-0.46973 5.54358,3.03091 6.11909,5.89784c0.5755,2.86694 -1.55999,3.23586 -4.19135,3.70562c-2.63136,0.46974 -4.76208,0.86238 -5.33758,-2.00456c-0.5755,-2.86694 0.77846,-7.12918 3.40982,-7.59891z" fill="#000000" stroke-width="1"/><path d="M221.54599,164.47309c1.93273,-0.86046 4.5129,0.59849 5.76293,3.25866c1.25004,2.66017 0.69665,5.51417 -1.23606,6.37466c-1.93273,0.86046 -4.51292,-0.59847 -5.76295,-3.25864c-1.25004,-2.66016 -0.69663,-5.51419 1.23608,-6.37468z" fill="#000000" stroke-width="1"/><path d="M252.59213,182.52304c2.15842,0.40666 3.44487,3.06599 2.87345,5.93984c-0.57147,2.87384 -2.78447,4.87392 -4.94286,4.46726c-2.15842,-0.40666 -3.4449,-3.06601 -2.87343,-5.93984c0.57147,-2.87384 2.78446,-4.87392 4.94285,-4.46725z" fill="#000000" stroke-width="1"/><path d="M239.47006,169.45145c2.167,-0.38683 6.0708,1.31839 6.47365,3.32524c0.40284,2.00686 -2.64779,2.6235 -4.81476,3.01035c-2.167,0.38683 -4.69818,1.66284 -5.10104,-0.34403c-0.40284,-2.00686 1.27519,-5.60472 3.44219,-5.99156z" fill="#000000" stroke-width="1"/><path d="M227.59539,188.69918c0.10788,-2.36673 1.60284,-4.1964 3.33902,-4.08668c1.73619,0.1097 3.05616,2.11729 2.94824,4.48402c-0.10788,2.36673 -1.6028,4.19639 -3.33902,4.08667c-1.73619,-0.1097 -3.0562,-2.11726 -2.94825,-4.48398z" data-paper-data="{&quot;index&quot;:null}" fill="#000000" stroke-width="1"/></g><g stroke="#000000" stroke-width="0" stroke-linecap="butt"><path d="M379.49081,189.45117c-1.65697,12.0727 -13.22185,20.54414 -25.83085,18.92142c-12.60898,-1.62268 -21.4874,-12.72498 -19.83042,-24.79772c1.65697,-12.0727 13.22185,-20.54414 25.83083,-18.92144c12.60898,1.62268 21.48742,12.725 19.83044,24.79773z" fill="#000000"/><g><path d="M370.70194,188.15071c-1.64552,12.07444 -13.87732,20.44459 -27.32044,18.69518c-13.44314,-1.74937 -23.00707,-12.95579 -21.36154,-25.03027c1.64552,-12.07444 13.87732,-20.44459 27.32044,-18.69518c13.44314,1.74937 23.00707,12.9558 21.36155,25.03027z" fill="#000000"/><path d="M374.10876,192.34265c-1.65697,12.0727 -13.22185,20.54414 -25.83085,18.92142c-12.60898,-1.62268 -21.4874,-12.72499 -19.83042,-24.79773c1.65697,-12.0727 13.22185,-20.54414 25.83081,-18.92143c12.60898,1.62268 21.48743,12.72501 19.83046,24.79773z" fill="#000000"/><path d="M375.29487,186.23585c-1.59241,11.60237 -12.70676,19.74381 -24.82455,18.18435c-12.11777,-1.55947 -20.6503,-12.22931 -19.05788,-23.83171c1.59241,-11.60237 12.70674,-19.74377 24.82454,-18.18431c12.11777,1.55947 20.65032,12.22927 19.05789,23.83167z" fill="#000000"/><path d="M372.036,189.61925c-1.46902,10.70327 -14.39043,20.17135 -24.916,18.8168c-3.15748,-0.40635 -8.80461,-0.61293 -11.23718,-2.33247c-5.67644,-4.01263 -6.18944,-12.00771 -5.16111,-19.50023c1.46902,-10.70327 10.94809,-18.64215 21.47365,-17.28758c7.00332,0.90127 13.03516,3.25315 16.50951,8.84333c1.74741,2.81145 3.82271,7.87846 3.33112,11.4602z" fill="#060200"/></g></g><g fill="none" stroke="#000000" stroke-width="1.5" stroke-linecap="round"><path d="M254.60157,206.21104l2.15068,1.86287"/><path d="M259.11514,203.65443l3.38046,2.98197"/><path d="M250.79887,205.48095l1.00406,6.47556"/><path d="M266.26802,198.52715l-2.50471,-1.92798"/><path d="M247.03611,207.52768l0.35315,3.43225"/><path d="M242.47579,206.86564l0.11087,7.64233"/><path d="M229.80541,201.30963l-4.32452,5.17329"/><path d="M225.35344,197.6943l-5.72355,2.80425"/><path d="M216.21619,195.22383l4.83587,-1.25534"/><path d="M215.26201,192.18734l2.39855,-1.96508"/><path d="M213.95863,165.07754l-3.07162,-2.60666"/><path d="M215.72289,161.21553l-2.75172,-1.46713"/><path d="M227.71558,151.39011l-1.86959,-3.39818"/><path d="M247.00372,142.54743l-1.13001,5.75903"/><path d="M258.66695,151.84154l3.25294,-5.80671"/><path d="M264.09836,149.80833l-1.14109,4.99472"/><path d="M237.31947,212.33298l1.41035,-7.34524"/><path d="M214.77459,185.06322l-2.31589,1.38988"/><path d="M210.68275,181.14162l3.60904,-0.08108"/><path d="M213.81678,177.5928l-1.70225,-0.22931l-3.42004,-1.5286"/><path d="M213.52686,172.24793l-1.04596,1.0938l-5.13782,-2.82784"/><path d="M213.06348,169.58267l-3.67112,-4.19865"/><path d="M216.25071,155.06235l3.02649,3.67799"/><path d="M218.33491,152.33982l3.23101,3.13824"/><path d="M221.86979,147.14605l4.68964,7.43759"/><path d="M235.07535,149.82325l-1.14686,-5.86075"/><path d="M237.82745,149.22633l-0.06207,-4.27973"/><path d="M242.44756,145.6441l-2.63961,8.35394"/><g><path d="M255.23606,205.43229l-2.04957,-1.86516"/><path d="M260.7018,203.78054l-3.22156,-2.98555"/><path d="M249.17052,205.56856l0.96072,6.47649"/><path d="M261.76849,197.64072l2.75972,2.14272"/><path d="M246.32092,208.30823l-0.33872,-3.43255"/><path d="M241.63855,204.20879l0.11087,7.64231"/><path d="M222.81585,203.5568l2.83846,-3.50394"/><path d="M222.42466,196.28836l-5.44911,2.79808"/><path d="M221.22594,191.28891l-4.60475,1.25016"/><path d="M217.99332,187.5391l-2.283,1.96249"/><path d="M211.52312,159.78089l2.92715,2.60992"/><path d="M213.50621,157.06062l3.54321,2.05515"/><path d="M226.66219,144.75254l2.74846,7.19579"/><path d="M229.13695,143.33111l2.01006,7.59461"/><path d="M245.90644,139.89645l-1.05359,7.03952"/><path d="M260.11493,143.39971l-4.20018,8.00928"/><path d="M260.44604,153.54714l1.74617,-6.37171"/><path d="M238.11314,205.32528l-1.37768,4.61786"/><path d="M215.2412,182.37706l-2.20466,1.38737"/><path d="M211.34146,178.45114l3.43717,-0.07721"/><path d="M214.32382,174.90578l-1.62137,-0.23114l-3.25825,-1.53223"/><path d="M214.04406,169.56064l-0.99541,1.09261l-4.89515,-2.8333"/><path d="M210.10162,162.69243l3.49924,4.20249"/><path d="M216.62633,152.37821l2.88491,3.68114"/><path d="M223.2708,153.30185l-3.07934,-3.14163"/><path d="M225.38888,151.66158l-2.69825,-4.75562"/><path d="M233.45476,141.29746l1.0963,5.8619"/><path d="M236.07524,147.63149l-0.06207,-4.27969"/><path d="M239.06121,151.33914l2.50816,-8.35097"/></g><path d="M233.77492,206.57699l-1.8641,3.25269"/><path d="M228.69527,207.7614l2.90235,-4.88144"/><path d="M235.90564,204.06921l-0.60588,5.14919l-0.40132,1.61446"/><path d="M249.16616,146.97644l0.15398,-5.65212"/><path d="M251.3912,147.31618l0.7716,-5.36872"/><path d="M255.55955,141.8712l-2.06799,6.89197"/><path d="M262.59301,202.18367l-2.17341,-3.42954"/><path d="M254.00133,210.13617l-2.47086,-6.13935"/><path d="M258.40915,206.55872l-2.17341,-3.42957"/><path d="M243.97293,206.88304l1.14686,5.86075"/><path d="M217.11376,185.27824l-4.81687,4.65687"/></g><g stroke-linecap="butt"><path d="M354.8972,182.18896c0.67561,-4.44839 4.82944,-7.50684 9.27784,-6.83123c4.4484,0.67561 7.50686,4.82943 6.83125,9.27783c-0.67561,4.44839 -4.82944,7.50685 -9.27784,6.83124c-4.4484,-0.67561 -7.50685,-4.82944 -6.83124,-9.27784z" fill="#5100a4" stroke="#000000" stroke-width="2.5"/><path d="M361.09487,184.28679c0.29528,-1.94421 2.11076,-3.28095 4.05499,-2.98566c1.94421,0.29528 3.28094,2.11076 2.98565,4.05497c-0.29528,1.94421 -2.11075,3.28096 -4.05497,2.98568c-1.94421,-0.29528 -3.28095,-2.11077 -2.98567,-4.05499z" fill="#000000" stroke="none" stroke-width="0.5"/><path d="M351.2005,183.14643c1.00228,-7.4348 7.73371,-12.68055 15.03508,-11.71673c7.30136,0.96381 12.40773,7.77222 11.40547,15.20698c-1.00228,7.4348 -7.73368,12.68055 -15.03504,11.71673c-7.30136,-0.96381 -12.40778,-7.77222 -11.4055,-15.20698z" fill="url(#color-4)" stroke="#000000" stroke-width="0"/></g><g fill="#000000" stroke="#000000" stroke-width="1.5" stroke-linecap="butt"><path d="M359.21326,164.449l8.93941,-5.87525l-4.22616,9.65624z"/><g><path d="M347.52549,162.7272l1.985,-10.3299l4.07222,9.78635z"/><path d="M353.54081,162.58734l6.6503,-8.2548l-0.98765,10.47236z"/></g></g><g fill="none" stroke="#000000" stroke-width="1.5" stroke-linecap="round"><path d="M339.94559,164.99653l-1.86158,-1.24623"/><path d="M336.811,167.55592l-2.93248,-2.00196"/><path d="M342.93097,165.14832l-1.53862,-5.06815"/><path d="M331.97193,172.47279l2.13918,1.25808"/><path d="M344.87517,160.37574l0.67906,2.70664"/><path d="M348.11161,156.99002l0.99722,6.1035"/><path d="M359.42887,166.09889l2.67799,-4.632"/><path d="M367.2808,165.59067l-4.02717,2.89518"/><path d="M370.51248,169.42372l-3.53564,1.55465"/><path d="M371.60234,171.74527l-1.59332,1.84545"/><path d="M375.83342,193.29282l2.65229,1.73675"/><path d="M377.22247,197.4454l-2.27239,-0.86116"/><path d="M366.98354,205.81145l1.83072,2.50689"/><path d="M353.51295,210.34449l-0.17342,4.73743"/><path d="M343.34065,208.97043l-1.78567,5.01704"/><path d="M339.44402,211.21534l0.27314,-4.12702"/><path d="M352.18804,164.17035l0.19762,-6.03875"/><path d="M374.42367,176.01553l-1.59902,1.37571"/><path d="M376.41151,180.06428l-2.74087,0.47536"/><path d="M374.4468,183.26083l1.32471,-0.01009l2.78907,0.83434"/><path d="M375.30611,187.50532l0.66653,-0.99432l4.25341,1.67874"/><path d="M375.97758,189.58558l3.29932,2.94261"/><path d="M375.28268,201.56861l-2.74584,-2.59925"/><path d="M371.18214,201.84045l2.83726,2.14403"/><path d="M371.94567,208.54306l-4.46239,-5.41887"/><path d="M363.13557,212.46232l-1.57401,-4.55987"/><path d="M360.09382,212.11115l-0.55844,-3.41797"/><path d="M357.45611,205.09968l-1.01401,6.98581"/><g><path d="M341.33984,166.95149l-1.78479,-1.25957"/><path d="M338.39851,169.65838l-2.81182,-2.02291"/><path d="M342.65581,159.81919l1.50569,5.07382"/><path d="M333.14784,171.26951l2.35917,1.40092"/><path d="M346.67416,165.08488l-0.66811,-2.70853"/><path d="M349.06702,159.02105l0.99723,6.10348"/><path d="M360.70313,166.73149l1.7448,-3.12701"/><path d="M363.59475,170.6235l3.81875,-2.85904"/><path d="M370.52444,171.61839l-3.36011,1.52422"/><path d="M371.58141,173.94566l-1.50556,1.83022"/><path d="M375.77958,195.4989l2.54257,1.75578"/><path d="M377.13569,199.65726l-2.94584,-1.24173"/><path d="M368.57909,211.00363l-2.95409,-5.44614"/><path d="M366.86277,212.42267l-2.43896,-5.8493"/><path d="M354.45467,211.32518l0.03776,5.75351"/><path d="M345.48984,209.00358l-2.24453,6.88748"/><path d="M341.21121,213.10563l0.56983,-5.29783"/><path d="M353.11619,159.97775l-0.49846,3.85233"/><path d="M372.78982,179.59402l1.51454,-1.36105"/><path d="M373.62045,182.74509l2.61035,-0.45271"/><path d="M374.3813,185.46891l1.26331,0.00058l2.66621,0.85565"/><path d="M375.23289,189.71477l0.62815,-0.98762l4.06912,1.71071"/><path d="M375.88902,191.79769l3.16878,2.96524"/><path d="M375.31697,203.75943l-2.63832,-2.61788"/><path d="M371.40842,203.9979l2.72207,2.164"/><path d="M371.34875,208.82857l-2.62438,-3.499"/><path d="M363.8149,214.54126l-1.53561,-4.56654"/><path d="M361.61972,213.18818l-0.55843,-3.41794"/><path d="M358.34278,207.14262l-0.91418,6.9685"/></g><path d="M355.77453,162.33491l1.03222,-2.81512"/><path d="M359.50442,160.80931l-1.62897,4.23669"/><path d="M354.45014,164.58421l-0.15321,-4.18977l0.11304,-1.33767"/><path d="M351.88448,214.63333l-0.55769,-4.54086"/><path d="M349.47932,216.14885l-0.05314,-4.38431"/><path d="M346.89967,216.59621l0.75296,-5.7508"/><path d="M334.33606,169.12851l2.06602,2.49745"/><path d="M342.5506,166.41923l-2.61635,-4.63225"/><path d="M337.0022,165.15133l2.06602,2.49747"/><path d="M347.96577,163.24989l-1.57401,-4.55987"/><path d="M371.01621,177.48522l3.11491,-4.27472"/></g><path d="M381.56086,199.5988l-3.4734,2.86171l14.5366,2.70194l-17.97473,-9.87827l5.33138,-7.08512" data-paper-data="{&quot;index&quot;:null}" fill="none" stroke="#000000" stroke-width="7.5" stroke-linecap="round"/><g fill="none" stroke="#000000" stroke-width="9" stroke-linecap="round"><path d="M289.69221,182.15835l13.74735,-40.90134l2.66128,72.8351l0.94803,-3.03002" data-paper-data="{&quot;index&quot;:null}"/><g><path d="M224.83389,199.55653c0,0 -6.20675,0.947 -6.27282,3.50629c-0.06443,2.49617 -0.48018,12.80259 -0.48018,12.80259l40.10659,-86.70344l-2.90938,42.22074"/><path d="M314.57678,181.26577l18.91902,-34.9576l6.64518,74.74907l-3.69606,-7.31791" data-paper-data="{&quot;index&quot;:null}"/><path d="M258.72923,201.44673l-4.04729,4.83704l0.51527,7.76575l23.08568,-73.72526l0.41301,39.43669"/></g></g></g></g></svg>