<svg version="1.1" xmlns="http://www.w3.org/2000/svg" xmlns:xlink="http://www.w3.org/1999/xlink" width="21.02989" height="35.5644" viewBox="0,0,21.02989,35.5644"><defs><linearGradient x1="240.46378" y1="162.02686" x2="240.60316" y2="176.6135" gradientUnits="userSpaceOnUse" id="color-1"><stop offset="0" stop-color="#000000"/><stop offset="1" stop-color="#000000"/></linearGradient><linearGradient x1="229.8298" y1="165.04132" x2="250.10806" y2="164.7179" gradientUnits="userSpaceOnUse" id="color-2"><stop offset="0" stop-color="#3f2e16"/><stop offset="1" stop-color="#523e22"/></linearGradient><linearGradient x1="233.51417" y1="162.05964" x2="246.32727" y2="161.85528" gradientUnits="userSpaceOnUse" id="color-3"><stop offset="0" stop-color="#3f2e16"/><stop offset="1" stop-color="#523e22"/></linearGradient><linearGradient x1="231.67458" y1="181.79049" x2="248.47919" y2="181.16988" gradientUnits="userSpaceOnUse" id="color-4"><stop offset="0" stop-color="#3f2e16"/><stop offset="1" stop-color="#523e22"/></linearGradient></defs><g transform="translate(-229.454,-158.06532)"><g data-paper-data="{&quot;isPaintingLayer&quot;:true}" fill-rule="nonzero" stroke-linejoin="miter" stroke-miterlimit="10" stroke-dasharray="" stroke-dashoffset="0" style="mix-blend-mode: normal"><path d="M232.79616,170.12957c-0.04234,-4.43031 3.39058,-8.05796 7.66764,-8.10265c4.27703,-0.0447 7.77859,3.51053 7.82091,7.94081c0.04234,4.43031 -2.92481,7.26001 -7.20185,7.30471c-4.27703,0.0447 -8.24433,-2.71255 -8.28667,-7.14284z" fill="#000000" stroke="url(#color-1)" stroke-width="0.5" stroke-linecap="butt"/><path d="M239.20059,170.6757c0.15881,-1.43021 1.1491,-2.44115 2.21191,-2.258c1.0628,0.18314 1.79562,1.49101 1.63683,2.92121c-0.15881,1.43021 -1.14911,2.44115 -2.21191,2.25801c-1.0628,-0.18314 -1.79562,-1.49101 -1.63683,-2.92121z" fill="#ffffff" stroke="none" stroke-width="0" stroke-linecap="butt"/><path d="M250.10887,164.769c0.0135,1.44624 -4.51536,2.66822 -10.11547,2.72931c-5.60014,0.06107 -10.15088,-1.06183 -10.16439,-2.50811c-0.0135,-1.44624 4.51536,-2.66822 10.11547,-2.72931c5.60014,-0.06107 10.15089,1.06185 10.16439,2.50811z" fill="url(#color-2)" stroke="#000000" stroke-width="0.75" stroke-linecap="butt"/><path d="M233.53529,163.09536c0.12032,-0.42681 0.37785,-0.9978 0.51404,-1.59494c0.15887,-0.69669 0.18822,-1.39342 0.18822,-1.39342c0,0 3.68562,-2.01629 6.15557,-2.04167c2.46995,-0.02539 5.57652,1.90583 5.57963,2.22543c0.00438,0.44904 0.09336,1.51731 0.35921,2.42644c0.22809,0.77993 -3.40689,3.1314 -6.84232,3.13082c-3.12794,-0.00054 -6.08287,-2.29676 -5.95439,-2.75265z" fill="url(#color-3)" stroke="#000000" stroke-width="0.75" stroke-linecap="butt"/><path d="M243.74783,170.4032c0.14457,-1.43012 1.05123,-2.44038 2.02505,-2.25658c0.97384,0.18381 1.64604,1.49214 1.50145,2.92224c-0.14457,1.43012 -1.05124,2.44037 -2.02506,2.25658c-0.97384,-0.18381 -1.64604,-1.49213 -1.50146,-2.92222z" fill="#ffffff" stroke="none" stroke-width="0" stroke-linecap="butt"/><path d="M236.61268,184.67296c0.22041,0.53323 2.08048,1.84829 2.62056,4.03593c0.78125,1.35284 -0.41303,3.67083 -0.41303,3.67083" fill="none" stroke="#000000" stroke-width="2.5" stroke-linecap="round"/><path d="M242.15935,184.00353c0.31903,0.72955 1.67879,2.39018 2.5424,4.35403c0.73977,1.46857 -0.4156,3.73768 -0.4156,3.73768" fill="none" stroke="#000000" stroke-width="2.5" stroke-linecap="round"/><path d="M232.02298,186.40233c0.12139,-0.30676 -0.17144,-1.30914 0.29003,-1.87008c0.52353,-0.63639 0.21941,-1.19875 0.35945,-1.58314c0.08601,-0.23609 -0.37718,-0.75678 -0.39665,-0.98963c-0.04794,-0.57311 0.66429,-0.63952 0.88167,-1.1907c0.16284,-0.41291 0.14969,-0.8818 0.43565,-1.18625c0.49265,-0.52449 0.56405,-0.99842 0.69195,-1.36674c0.15123,-0.43561 -0.10863,-0.68843 -0.25389,-1.11405c-0.21426,-0.62779 0.03402,-2.14639 0.03402,-2.14639c0,0 2.9176,2.19565 6.83322,2.10674c4.4938,-0.20168 6.38421,-2.38669 6.38421,-2.38669c0,0 0.39644,1.97278 0.35548,2.54736c0.14775,0.43269 0.06893,0.95584 0.31331,1.31287c0.1532,0.22381 0.38896,0.80932 0.45808,0.9802c0.14914,0.36873 -1.13966,0.94297 -0.9664,1.33616c0.09018,0.20463 -0.10986,1.00652 -0.28165,1.67688c-0.17765,0.69322 0.33919,1.07234 0.24294,1.39413c-0.07409,0.24771 0.03144,1.8297 0.01849,2.36822c-0.02389,0.99418 -0.83593,1.52632 -0.83593,1.52632c0,0 -0.30188,-0.71209 -2.3008,-0.82539c-1.62028,1.49159 -3.44185,1.28009 -4.74355,0.95023c-2.40666,-1.59442 -3.08825,-0.72726 -4.26732,-0.67987c-2.19594,-0.5663 -2.10684,1.1711 -2.10684,1.1711c0,0 -1.83424,-0.29076 -1.14548,-2.03124z" fill="url(#color-4)" stroke="#000000" stroke-width="1" stroke-linecap="butt"/><path d="M242.41608,176.43065c0,0 -0.16416,0.90821 -0.1409,1.64696c0.00813,0.25864 0.2583,1.0171 0.3447,1.45251c0.07699,0.3881 0.00215,0.88171 0.03195,1.35976c0.01453,0.23305 -0.40121,0.62184 -0.4078,0.97497c-0.00928,0.49732 0.38698,0.9789 0.40162,1.33447c0.01304,0.3159 -0.40798,0.7569 -0.2515,1.34579c0.15252,0.57399 0.51502,1.1294 0.54639,1.40023c0.17959,1.55146 -0.3272,1.87593 -0.3272,1.87593" fill="none" stroke="#000000" stroke-width="0.5" stroke-linecap="round"/><path d="M242.00875,179.02937c-0.00857,-0.30421 0.23781,-0.55795 0.55029,-0.56674c0.31248,-0.00881 0.57274,0.23069 0.58129,0.53489c0.00857,0.30421 -0.23781,0.55794 -0.55028,0.56673c-0.31248,0.00881 -0.57274,-0.23068 -0.58131,-0.53488z" fill="#000000" stroke="#000000" stroke-width="0.5" stroke-linecap="butt"/><path d="M242.07037,181.21494c-0.00857,-0.30421 0.23782,-0.55795 0.5503,-0.56674c0.31248,-0.00881 0.57275,0.23069 0.58131,0.53489c0.00857,0.30421 -0.23782,0.55795 -0.5503,0.56673c-0.31248,0.00881 -0.57274,-0.23068 -0.58131,-0.53488z" fill="#000000" stroke="#000000" stroke-width="0.5" stroke-linecap="butt"/><path d="M241.76852,183.51348c-0.00857,-0.30421 0.23781,-0.55794 0.55028,-0.56674c0.31248,-0.00881 0.57275,0.23069 0.58131,0.53489c0.00857,0.30421 -0.23781,0.55795 -0.55029,0.56674c-0.31248,0.00881 -0.57273,-0.23068 -0.58129,-0.53488z" fill="#000000" stroke="#000000" stroke-width="0.5" stroke-linecap="butt"/><path d="M242.0777,185.6674c-0.00857,-0.30421 0.23782,-0.55794 0.55029,-0.56674c0.31248,-0.00881 0.57275,0.23069 0.58131,0.53489c0.00857,0.30421 -0.23782,0.55795 -0.5503,0.56674c-0.31248,0.00881 -0.57274,-0.23069 -0.58129,-0.53489z" fill="#000000" stroke="#000000" stroke-width="0.5" stroke-linecap="butt"/></g></g></svg>