<svg version="1.1" xmlns="http://www.w3.org/2000/svg" xmlns:xlink="http://www.w3.org/1999/xlink" width="37.58792" height="36.44546" viewBox="0,0,37.58792,36.44546"><defs><linearGradient x1="245.17065" y1="162.20955" x2="280.25961" y2="162.20955" gradientUnits="userSpaceOnUse" id="color-1"><stop offset="0" stop-color="#838383"/><stop offset="1" stop-color="#aeaeae"/></linearGradient></defs><g transform="translate(-243.73383,-146.59529)"><g data-paper-data="{&quot;isPaintingLayer&quot;:true}" fill-rule="nonzero" stroke-linejoin="miter" stroke-miterlimit="10" stroke-dasharray="" stroke-dashoffset="0" style="mix-blend-mode: normal"><path d="M262.09833,175.97913c0,0 -1.32062,-9.87571 -4.96394,-14.72252c-3.64333,-4.84681 -11.96374,-11.41307 -11.96374,-11.41307c0,0 3.49751,-1.22775 6.14161,-1.36161c1.23294,-0.06242 5.32873,-0.15083 9.61223,0.52724c3.82433,0.60538 7.79827,1.92599 10.01803,2.76621c5.92579,2.24304 8.81709,5.58302 8.81709,5.58302z" fill="url(#color-1)" stroke="none" stroke-width="0" stroke-linecap="butt"/><g stroke="#000000" stroke-width="0.75" stroke-linecap="butt"><path d="M254.99719,181.26854l4.46599,-4.57995l1.42136,1.38598l-4.46598,4.57997c0,0 -0.94004,-0.06574 -1.19242,-0.31182c-0.21562,-0.21026 -0.22896,-1.07417 -0.22896,-1.07417z" fill="#3f2711"/><path d="M258.9596,175.93336l10.92015,-10.96303l5.13619,-3.05371l-2.71357,5.40607l-10.72553,11.25034z" fill="#d9d9d9"/><path d="M256.87364,174.80219c0.28326,-0.29049 2.59924,0.71592 2.59924,0.71592c0,0 1.79066,1.32106 2.61711,2.55198c0.82646,1.23092 0.94687,2.19233 0.72263,2.42229c-0.23661,0.24265 -1.30677,0.14025 -1.30677,0.14025c0,0 -1.07958,-2.07163 -1.79609,-2.77032c-0.75372,-0.73497 -2.62027,-1.53617 -2.62027,-1.53617c0,0 -0.44095,-1.29308 -0.21585,-1.52395z" fill="#3c3c3c"/><path d="M260.4201,176.27655l9.47012,-9.60154l2.06235,-1.44642l-1.27127,2.05507l-9.40057,9.75073z" fill="#3c3c3c"/><path d="M259.79501,175.80063l1.70203,0.15051l0.1594,1.73255l-1.70203,-0.15051z" fill="#1b1b1b"/></g><path d="M245.73383,149.55106c0,0 18.43999,-3.33456 32.6387,8.03548" fill="none" stroke="#ffffff" stroke-width="3" stroke-linecap="round"/><path d="M244.98383,148.34131c0,0 19.82373,-3.62909 35.08792,8.74522" fill="none" stroke="#000000" stroke-width="2.5" stroke-linecap="round"/></g></g></svg>