<svg version="1.1" xmlns="http://www.w3.org/2000/svg" xmlns:xlink="http://www.w3.org/1999/xlink" width="525.86102" height="449.21431" viewBox="0,0,525.86102,449.21431"><defs><linearGradient x1="392.8042" y1="197.25421" x2="392.8042" y2="217.58755" gradientUnits="userSpaceOnUse" id="color-1"><stop offset="0" stop-color="#023fc3"/><stop offset="1" stop-color="#020daf"/></linearGradient><linearGradient x1="206.641" y1="197.27919" x2="206.641" y2="219.61253" gradientUnits="userSpaceOnUse" id="color-2"><stop offset="0" stop-color="#023fc3"/><stop offset="1" stop-color="#0211b1"/></linearGradient><linearGradient x1="206.44105" y1="297.40417" x2="206.44105" y2="319.73751" gradientUnits="userSpaceOnUse" id="color-3"><stop offset="0" stop-color="#023fc3"/><stop offset="1" stop-color="#0211b1"/></linearGradient><linearGradient x1="55.44101" y1="297.50535" x2="55.44101" y2="319.83869" gradientUnits="userSpaceOnUse" id="color-4"><stop offset="0" stop-color="#023fc3"/><stop offset="1" stop-color="#0211b1"/></linearGradient><linearGradient x1="443.31611" y1="143.12682" x2="443.31611" y2="165.46016" gradientUnits="userSpaceOnUse" id="color-5"><stop offset="0" stop-color="#023fc3"/><stop offset="1" stop-color="#0211b1"/></linearGradient><linearGradient x1="443.21607" y1="51.72682" x2="443.21607" y2="74.06016" gradientUnits="userSpaceOnUse" id="color-6"><stop offset="0" stop-color="#023fc3"/><stop offset="1" stop-color="#0211b1"/></linearGradient><linearGradient x1="34.09099" y1="51.72682" x2="34.09099" y2="74.06016" gradientUnits="userSpaceOnUse" id="color-7"><stop offset="0" stop-color="#023fc3"/><stop offset="1" stop-color="#0211b1"/></linearGradient><linearGradient x1="392.82204" y1="217.84587" x2="392.82204" y2="240.17921" gradientUnits="userSpaceOnUse" id="color-8"><stop offset="0" stop-color="#023fc3"/><stop offset="1" stop-color="#020daf"/></linearGradient><linearGradient x1="34.10171" y1="142.96967" x2="34.10171" y2="165.30301" gradientUnits="userSpaceOnUse" id="color-9"><stop offset="0" stop-color="#023fc3"/><stop offset="1" stop-color="#0211b1"/></linearGradient><linearGradient x1="55.31602" y1="220.61254" x2="55.31602" y2="242.94588" gradientUnits="userSpaceOnUse" id="color-10"><stop offset="0" stop-color="#023fc3"/><stop offset="1" stop-color="#0211b1"/></linearGradient></defs><g transform="translate(3.91271,87.70521)"><g data-paper-data="{&quot;isPaintingLayer&quot;:true}" fill-rule="nonzero" stroke-linejoin="miter" stroke-miterlimit="10" stroke-dasharray="" stroke-dashoffset="0" style="mix-blend-mode: normal"><path d="M-3.91271,361.5091v-65.06889h487.68066v65.06889z" data-paper-data="{&quot;index&quot;:null}" fill="#000000" stroke="none" stroke-width="0" stroke-linecap="butt"/><path d="M46.75325,-86.61051v252.87688h-49.30408v-252.87688z" data-paper-data="{&quot;index&quot;:null}" fill="#000000" stroke="none" stroke-width="0" stroke-linecap="butt"/><path d="M430.58585,166.44316v-254.05727h53.33333v254.05727z" data-paper-data="{&quot;index&quot;:null}" fill="#000000" stroke="none" stroke-width="0" stroke-linecap="butt"/><path d="M435.63115,-87.70521v162.78918h-391.5045v-162.78912z" data-paper-data="{&quot;index&quot;:null}" fill="#000000" stroke="none" stroke-width="0" stroke-linecap="butt"/><path d="M-2.66713,298.21174l0.41345,-78.63339l70.10489,0.07856l0.26277,79.30006z" data-paper-data="{&quot;index&quot;:null}" fill="#000000" stroke="none" stroke-width="0" stroke-linecap="butt"/><path d="M400.89267,298.62264v-82h84.0015l-0.51854,82z" data-paper-data="{&quot;index&quot;:null}" fill="#000000" stroke="none" stroke-width="0" stroke-linecap="butt"/><path d="M193.81206,299.81175v-103.6006h210.92144v103.6006z" fill="#000000" stroke="none" stroke-width="0" stroke-linecap="butt"/><path d="M229.84807,197.71274v-25.52553h57.05706v25.52553h-16.75996l-0.37458,-8.76126l-21.48256,-0.09588c0,0 0.61667,8.85714 0,8.85714c-7.30897,0 -18.43996,0 -18.43996,0z" fill="#000000" stroke="#000000" stroke-width="0" stroke-linecap="butt"/><path d="M381.87563,217.58755v-20.33334h21.85715v20.33334z" fill="url(#color-1)" stroke="#000000" stroke-width="2" stroke-linecap="butt"/><path d="M194.97433,219.61253v-22.33334h23.33334v22.33334z" fill="url(#color-2)" stroke="#000000" stroke-width="2" stroke-linecap="butt"/><path d="M194.77438,319.73751v-22.33334h23.33334v22.33334z" fill="url(#color-3)" stroke="#000000" stroke-width="2" stroke-linecap="butt"/><path d="M43.77434,319.83869v-22.33334h23.33334v22.33334z" fill="url(#color-4)" stroke="#000000" stroke-width="2" stroke-linecap="butt"/><path d="M431.64944,165.46016v-22.33334h23.33334v22.33334z" fill="url(#color-5)" stroke="#000000" stroke-width="2" stroke-linecap="butt"/><path d="M431.5494,74.06016v-22.33334h23.33334v22.33334z" fill="url(#color-6)" stroke="#000000" stroke-width="2" stroke-linecap="butt"/><path d="M22.42432,74.06016v-22.33334h23.33334v22.33334z" fill="url(#color-7)" stroke="#000000" stroke-width="2" stroke-linecap="butt"/><path d="M194.94845,219.66988h11.62005v77.63712h-11.62005z" data-paper-data="{&quot;index&quot;:null}" fill="#b4b4b4" stroke="#000000" stroke-width="2" stroke-linecap="butt"/><path d="M455.06119,165.41217v-11.62005h49.55379v11.62005z" data-paper-data="{&quot;index&quot;:null}" fill="#b4b4b4" stroke="#000000" stroke-width="2" stroke-linecap="butt"/><path d="M520.94831,217.62548v11.62005h-117.22045v-11.62005z" data-paper-data="{&quot;index&quot;:null}" fill="#b4b4b4" stroke="#000000" stroke-width="2" stroke-linecap="butt"/><path d="M381.58672,197.2666v11.62005h-163.19665v-11.62005z" data-paper-data="{&quot;index&quot;:null}" fill="#b4b4b4" stroke="#000000" stroke-width="2" stroke-linecap="butt"/><path d="M194.74368,297.45617v11.62005h-127.52601v-11.62005z" data-paper-data="{&quot;index&quot;:null}" fill="#b4b4b4" stroke="#000000" stroke-width="2" stroke-linecap="butt"/><path d="M66.93354,297.38633h-11.62004v-54.45458h11.62005z" data-paper-data="{&quot;index&quot;:null}" fill="#b4b4b4" stroke="#000000" stroke-width="2" stroke-linecap="butt"/><path d="M45.73356,143.18634h-11.62005v-69.05458h11.62005z" data-paper-data="{&quot;index&quot;:null}" fill="#b4b4b4" stroke="#000000" stroke-width="2" stroke-linecap="butt"/><path d="M45.78514,74.13573v-11.62004h385.67363v11.62005z" data-paper-data="{&quot;index&quot;:null}" fill="#b4b4b4" stroke="#000000" stroke-width="2" stroke-linecap="butt"/><path d="M431.6008,74.08894h11.62005v69.05458h-11.62005z" data-paper-data="{&quot;index&quot;:null}" fill="#b4b4b4" stroke="#000000" stroke-width="2" stroke-linecap="butt"/><path d="M358.85382,175.77862v11.2" fill="none" stroke="#00890b" stroke-width="2" stroke-linecap="round"/><path d="M363.25381,179.9786l-4.8,6.8l-3.8,-7.4" fill="none" stroke="#00890b" stroke-width="2" stroke-linecap="round"/><path d="M355.55331,196.06861l-2.02953,-10.97449l11.2,0.07516l-1.72886,10.89933z" fill="#151515" stroke="#0e0e0e" stroke-width="1" stroke-linecap="butt"/><path d="M232.14517,195.56068v-21.42857h52.42857v21.42857h-12.16343l-0.17286,-8.71962l-26.39095,-0.18576c0,0 0.3467,8.90538 0,8.90538c-5.72749,0 -13.70133,0 -13.70133,0z" fill="#151515" stroke="#000000" stroke-width="0" stroke-linecap="butt"/><path d="M247.60497,177.88409h-11.5" fill="none" stroke="#000000" stroke-width="3" stroke-linecap="round"/><path d="M234.60497,189.63409h5.5" fill="none" stroke="#000000" stroke-width="3" stroke-linecap="round"/><path d="M240.35496,182.88409h19.25" fill="none" stroke="#000000" stroke-width="3" stroke-linecap="round"/><path d="M259.60492,177.38409h12.75" fill="none" stroke="#000000" stroke-width="3" stroke-linecap="round"/><path d="M269.35492,182.88409h9" fill="none" stroke="#000000" stroke-width="3" stroke-linecap="round"/><path d="M281.60492,189.88409h-6.25" fill="none" stroke="#000000" stroke-width="3" stroke-linecap="round"/><path d="M117.16679,164.23117v3.66667h-12v-3.66666z" fill="#024df2" stroke="none" stroke-width="0" stroke-linecap="butt"/><path d="M135.16674,164.23117v3.66666h-12v-3.66666z" fill="#024df2" stroke="none" stroke-width="0" stroke-linecap="butt"/><path d="M153.83337,164.23117v3.66666h-12v-3.66666z" fill="#024df2" stroke="none" stroke-width="0" stroke-linecap="butt"/><path d="M-2.58635,232.84765v-11.69181h45.152v11.69182z" data-paper-data="{&quot;index&quot;:null}" fill="#b4b4b4" stroke="#000000" stroke-width="2" stroke-linecap="butt"/><path d="M381.9887,240.17921v-22.33334h21.66668v22.33334z" fill="url(#color-8)" stroke="#000000" stroke-width="2" stroke-linecap="butt"/><path d="M22.43504,165.30301v-22.33334h23.33334v22.33334z" fill="url(#color-9)" stroke="#000000" stroke-width="2" stroke-linecap="butt"/><path d="M43.64935,242.94588v-22.33334h23.33334v22.33334z" fill="url(#color-10)" stroke="#000000" stroke-width="2" stroke-linecap="butt"/></g></g></svg>