<svg version="1.1" xmlns="http://www.w3.org/2000/svg" xmlns:xlink="http://www.w3.org/1999/xlink" width="40.1903" height="38.17896" viewBox="0,0,40.1903,38.17896"><defs><radialGradient cx="239.65991" cy="179.63806" r="18.78081" gradientUnits="userSpaceOnUse" id="color-1"><stop offset="0" stop-color="#a30000"/><stop offset="1" stop-color="#a30000" stop-opacity="0"/></radialGradient><radialGradient cx="239.65992" cy="179.63806" r="18.78081" gradientUnits="userSpaceOnUse" id="color-2"><stop offset="0" stop-color="#a30000"/><stop offset="1" stop-color="#a30000" stop-opacity="0"/></radialGradient><radialGradient cx="239.65991" cy="179.63806" r="18.78081" gradientUnits="userSpaceOnUse" id="color-3"><stop offset="0" stop-color="#a30000"/><stop offset="1" stop-color="#a30000" stop-opacity="0"/></radialGradient><radialGradient cx="239.65992" cy="179.63806" r="18.78081" gradientUnits="userSpaceOnUse" id="color-4"><stop offset="0" stop-color="#a30000"/><stop offset="1" stop-color="#a30000" stop-opacity="0"/></radialGradient><radialGradient cx="239.65992" cy="179.63806" r="18.78081" gradientUnits="userSpaceOnUse" id="color-5"><stop offset="0" stop-color="#a30000"/><stop offset="1" stop-color="#a30000" stop-opacity="0"/></radialGradient><radialGradient cx="240.34002" cy="179.9101" r="18.78081" gradientUnits="userSpaceOnUse" id="color-6"><stop offset="0" stop-color="#a30000"/><stop offset="1" stop-color="#a30000" stop-opacity="0"/></radialGradient><radialGradient cx="239.99994" cy="180" r="20.09516" gradientUnits="userSpaceOnUse" id="color-7"><stop offset="0" stop-color="#a30000"/><stop offset="1" stop-color="#a30000" stop-opacity="0"/></radialGradient></defs><g transform="translate(-219.90485,-160.91052)"><g data-paper-data="{&quot;isPaintingLayer&quot;:true}" fill-rule="nonzero" stroke="#4e009e" stroke-width="0" stroke-linecap="butt" stroke-linejoin="miter" stroke-miterlimit="10" stroke-dasharray="" stroke-dashoffset="0" style="mix-blend-mode: normal"><path d="M220.87911,179.63806c0,-9.85331 8.40839,-17.84092 18.7808,-17.84092c10.37238,0 18.78081,7.98762 18.78081,17.84092c0,9.85331 -8.40844,17.84092 -18.78081,17.84092c-10.37238,0 -18.7808,-7.98762 -18.7808,-17.84092z" fill="url(#color-1)"/><path d="M220.8791,179.63806c0,-9.85331 8.40839,-17.84092 18.7808,-17.84092c10.37238,0 18.78081,7.98762 18.78081,17.84092c0,9.85331 -8.40844,17.84092 -18.78081,17.84092c-10.37238,0 -18.7808,-7.98762 -18.7808,-17.84092z" fill="url(#color-2)"/><path d="M220.87911,179.63806c0,-9.85331 8.40839,-17.84092 18.7808,-17.84092c10.37238,0 18.78081,7.98762 18.78081,17.84092c0,9.85331 -8.40844,17.84092 -18.78081,17.84092c-10.37238,0 -18.7808,-7.98762 -18.7808,-17.84092z" fill="url(#color-3)"/><path d="M220.8791,179.63806c0,-9.85331 8.40839,-17.84092 18.7808,-17.84092c10.37238,0 18.78081,7.98762 18.78081,17.84092c0,9.85331 -8.40844,17.84092 -18.78081,17.84092c-10.37238,0 -18.7808,-7.98762 -18.7808,-17.84092z" fill="url(#color-4)"/><path d="M220.8791,179.63806c0,-9.85331 8.40839,-17.84092 18.7808,-17.84092c10.37238,0 18.78081,7.98762 18.78081,17.84092c0,9.85331 -8.40844,17.84092 -18.78081,17.84092c-10.37238,0 -18.7808,-7.98762 -18.7808,-17.84092z" fill="url(#color-5)"/><path d="M221.55926,179.9101c0,-9.85331 8.40839,-17.84092 18.7808,-17.84092c10.37238,0 18.78081,7.98762 18.78081,17.84092c0,9.85331 -8.40844,17.84092 -18.78081,17.84092c-10.37238,0 -18.7808,-7.98762 -18.7808,-17.84092z" fill="url(#color-6)"/><path d="M219.90485,180c0,-10.54288 8.99685,-19.08948 20.09515,-19.08948c11.09827,0 20.09516,8.54662 20.09516,19.08948c0,10.54288 -8.99688,19.08948 -20.09516,19.08948c-11.09827,0 -20.09515,-8.54662 -20.09515,-19.08948z" fill="url(#color-7)"/></g></g></svg>