<svg version="1.1" xmlns="http://www.w3.org/2000/svg" xmlns:xlink="http://www.w3.org/1999/xlink" width="294.58794" height="97.08406" viewBox="0,0,294.58794,97.08406"><g transform="translate(-145.5557,-92.43186)"><g data-paper-data="{&quot;isPaintingLayer&quot;:true}" fill="none" fill-rule="nonzero" stroke-width="3" stroke-linecap="round" stroke-linejoin="miter" stroke-miterlimit="10" stroke-dasharray="" stroke-dashoffset="0" style="mix-blend-mode: normal"><g><g><path d="M405.3828,146.40247l21.94584,30.63217l-10.44899,-9.56181" stroke="#5100a4"/><path d="M408.64444,146.83963l21.74726,31.07837l-10.26293,-9.65073" stroke="#000000"/></g><g data-paper-data="{&quot;index&quot;:null}"><path d="M426.81809,159.70555l5.77511,13.30752l-21.68126,-30.86411" stroke="#5100a4"/><path d="M426.71723,163.34887l5.93473,13.18132l-22.1179,-30.75346" stroke="#000000"/></g></g><g><g><path d="M147.0557,116.15484l36.13382,10.69094l-14.11879,-1.12663" stroke="#5100a4"/><path d="M149.89798,114.49626l36.25122,11.16503l-14.02659,-1.3111" stroke="#000000"/></g><g data-paper-data="{&quot;index&quot;:null}"><path d="M172.14188,113.48514l12.73155,6.9534l-36.06752,-11.0365" stroke="#5100a4"/><path d="M174.30028,116.42202l12.77998,6.75576l-36.34409,-10.68096" stroke="#000000"/></g></g><g><g><path d="M260.3898,100.44619l34.70926,14.67025l-13.90381,-2.70068" stroke="#5100a4"/><path d="M263.39993,99.11634l34.77283,15.15451l-13.79153,-2.87367" stroke="#000000"/></g><g data-paper-data="{&quot;index&quot;:null}"><path d="M285.61708,100.60263l11.87276,8.33544l-34.60468,-15.00621" stroke="#5100a4"/><path d="M287.433,103.76275l11.94302,8.14447l-34.91933,-14.68388" stroke="#000000"/></g></g><g><g><path d="M205.38983,103.44619l34.70926,14.67025l-13.90381,-2.70068" stroke="#5100a4"/><path d="M208.39995,102.11634l34.77283,15.15451l-13.79153,-2.87367" stroke="#000000"/></g><g data-paper-data="{&quot;index&quot;:null}"><path d="M230.61709,103.60263l11.87276,8.33544l-34.60468,-15.00621" stroke="#5100a4"/><path d="M232.43308,106.76275l11.94302,8.14447l-34.91933,-14.68388" stroke="#000000"/></g></g></g></g></svg>