<svg version="1.1" xmlns="http://www.w3.org/2000/svg" xmlns:xlink="http://www.w3.org/1999/xlink" width="106.66665" height="122.4254" viewBox="0,0,106.66665,122.4254"><defs><radialGradient cx="264.23148" cy="99.64466" r="24" gradientUnits="userSpaceOnUse" id="color-1"><stop offset="0" stop-color="#dcdcdc"/><stop offset="1" stop-color="#dcdcdc" stop-opacity="0"/></radialGradient><radialGradient cx="233.23149" cy="99.31135" r="24" gradientUnits="userSpaceOnUse" id="color-2"><stop offset="0" stop-color="#dcdcdc"/><stop offset="1" stop-color="#dcdcdc" stop-opacity="0"/></radialGradient><radialGradient cx="212.23149" cy="107.31134" r="24" gradientUnits="userSpaceOnUse" id="color-3"><stop offset="0" stop-color="#dcdcdc"/><stop offset="1" stop-color="#dcdcdc" stop-opacity="0"/></radialGradient><radialGradient cx="221.89814" cy="105.31135" r="24" gradientUnits="userSpaceOnUse" id="color-4"><stop offset="0" stop-color="#dcdcdc"/><stop offset="1" stop-color="#dcdcdc" stop-opacity="0"/></radialGradient><radialGradient cx="227.56483" cy="102.64468" r="24" gradientUnits="userSpaceOnUse" id="color-5"><stop offset="0" stop-color="#dcdcdc"/><stop offset="1" stop-color="#dcdcdc" stop-opacity="0"/></radialGradient><radialGradient cx="262.23149" cy="102.31134" r="24" gradientUnits="userSpaceOnUse" id="color-6"><stop offset="0" stop-color="#dcdcdc"/><stop offset="1" stop-color="#dcdcdc" stop-opacity="0"/></radialGradient><radialGradient cx="246.23149" cy="98.31135" r="24" gradientUnits="userSpaceOnUse" id="color-7"><stop offset="0" stop-color="#dcdcdc"/><stop offset="1" stop-color="#dcdcdc" stop-opacity="0"/></radialGradient><radialGradient cx="249.56483" cy="97.97801" r="24" gradientUnits="userSpaceOnUse" id="color-8"><stop offset="0" stop-color="#dcdcdc"/><stop offset="1" stop-color="#dcdcdc" stop-opacity="0"/></radialGradient><radialGradient cx="257.23149" cy="97.31134" r="24" gradientUnits="userSpaceOnUse" id="color-9"><stop offset="0" stop-color="#dcdcdc"/><stop offset="1" stop-color="#dcdcdc" stop-opacity="0"/></radialGradient><radialGradient cx="205.56484" cy="113.31135" r="24" gradientUnits="userSpaceOnUse" id="color-10"><stop offset="0" stop-color="#dcdcdc"/><stop offset="1" stop-color="#dcdcdc" stop-opacity="0"/></radialGradient><linearGradient x1="237.97622" y1="133.62086" x2="223.68116" y2="162.14703" gradientUnits="userSpaceOnUse" id="color-11"><stop offset="0" stop-color="#122639"/><stop offset="1" stop-color="#141f2b"/></linearGradient><linearGradient x1="237.75871" y1="133.6829" x2="223.46361" y2="162.20907" gradientUnits="userSpaceOnUse" id="color-12"><stop offset="0" stop-color="#310b0b"/><stop offset="1" stop-color="#3a0909"/></linearGradient><linearGradient x1="233.43254" y1="116.70484" x2="236.84523" y2="141.06786" gradientUnits="userSpaceOnUse" id="color-13"><stop offset="0" stop-color="#343434"/><stop offset="1" stop-color="#1f1f1f"/></linearGradient><linearGradient x1="239.6384" y1="147.98271" x2="241.11789" y2="184.89651" gradientUnits="userSpaceOnUse" id="color-14"><stop offset="0" stop-color="#0f0f0f"/><stop offset="1" stop-color="#0c0c0c"/></linearGradient><linearGradient x1="236.70633" y1="148.87568" x2="239.18161" y2="166.54657" gradientUnits="userSpaceOnUse" id="color-15"><stop offset="0" stop-color="#1f180f"/><stop offset="1" stop-color="#0d0b07"/></linearGradient><linearGradient x1="239.54482" y1="162.47755" x2="240.25166" y2="167.54423" gradientUnits="userSpaceOnUse" id="color-16"><stop offset="0" stop-color="#1f180f"/><stop offset="1" stop-color="#0d0b07"/></linearGradient><linearGradient x1="240.68665" y1="163.88632" x2="240.8748" y2="168.82422" gradientUnits="userSpaceOnUse" id="color-17"><stop offset="0" stop-color="#0f0f0f"/><stop offset="1" stop-color="#0c0c0c"/></linearGradient><linearGradient x1="248.7725" y1="188.94779" x2="249.14723" y2="194.53589" gradientUnits="userSpaceOnUse" id="color-18"><stop offset="0" stop-color="#1f180f"/><stop offset="1" stop-color="#0d0b07"/></linearGradient><linearGradient x1="231.63016" y1="189.21579" x2="231.19889" y2="194.79981" gradientUnits="userSpaceOnUse" id="color-19"><stop offset="0" stop-color="#1f180f"/><stop offset="1" stop-color="#0d0b07"/></linearGradient><linearGradient x1="236.0544" y1="140.26318" x2="238.77441" y2="159.68115" gradientUnits="userSpaceOnUse" id="color-20"><stop offset="0" stop-color="#0f0f0f"/><stop offset="1" stop-color="#0c0c0c"/></linearGradient><linearGradient x1="236.09233" y1="139.02406" x2="236.65773" y2="143.06054" gradientUnits="userSpaceOnUse" id="color-21"><stop offset="0" stop-color="#0f0f0f"/><stop offset="1" stop-color="#0c0c0c"/></linearGradient><linearGradient x1="250.69766" y1="155.36109" x2="255.52163" y2="150.75961" gradientUnits="userSpaceOnUse" id="color-22"><stop offset="0" stop-color="#0f0f0f"/><stop offset="1" stop-color="#0c0c0c"/></linearGradient><linearGradient x1="261.27486" y1="98.03813" x2="248.55001" y2="93.66392" gradientUnits="userSpaceOnUse" id="color-23"><stop offset="0" stop-color="#1b1b1b"/><stop offset="1" stop-color="#343434"/></linearGradient><linearGradient x1="266.66821" y1="99.60968" x2="279.34565" y2="104.11963" gradientUnits="userSpaceOnUse" id="color-24"><stop offset="0" stop-color="#1b1b1b"/><stop offset="1" stop-color="#343434"/></linearGradient><linearGradient x1="219.22382" y1="153.90853" x2="225.76536" y2="152.62295" gradientUnits="userSpaceOnUse" id="color-25"><stop offset="0" stop-color="#0f0f0f"/><stop offset="1" stop-color="#0c0c0c"/></linearGradient></defs><g transform="translate(-181.56484,-73.31134)"><g data-paper-data="{&quot;isPaintingLayer&quot;:true}" fill-rule="nonzero" stroke-linejoin="miter" stroke-miterlimit="10" stroke-dasharray="" stroke-dashoffset="0" style="mix-blend-mode: normal"><path d="M240.23149,99.64466c0,-13.25483 10.74517,-24 24,-24c13.25483,0 24,10.74517 24,24c0,13.25483 -10.74517,24 -24,24c-13.25483,0 -24,-10.74517 -24,-24z" fill="url(#color-1)" stroke="#000000" stroke-width="0" stroke-linecap="butt"/><g stroke="#000000" stroke-width="0" stroke-linecap="butt"><path d="M209.23149,99.31135c0,-13.25483 10.74517,-24 24,-24c13.25483,0 24,10.74517 24,24c0,13.25483 -10.74517,24 -24,24c-13.25483,0 -24,-10.74517 -24,-24z" fill="url(#color-2)"/><path d="M188.2315,107.31134c0,-13.25483 10.74517,-24 24,-24c13.25483,0 24,10.74517 24,24c0,13.25483 -10.74517,24 -24,24c-13.25483,0 -24,-10.74517 -24,-24z" fill="url(#color-3)"/><path d="M197.89817,105.31135c0,-13.25483 10.74517,-24 24,-24c13.25483,0 24,10.74517 24,24c0,13.25483 -10.74517,24 -24,24c-13.25483,0 -24,-10.74517 -24,-24z" fill="url(#color-4)"/><path d="M203.56484,102.64468c0,-13.25483 10.74517,-24 24,-24c13.25483,0 24,10.74517 24,24c0,13.25483 -10.74517,24 -24,24c-13.25483,0 -24,-10.74517 -24,-24z" fill="url(#color-5)"/><path d="M238.23149,102.31134c0,-13.25483 10.74517,-24 24,-24c13.25483,0 24,10.74517 24,24c0,13.25483 -10.74517,24 -24,24c-13.25483,0 -24,-10.74517 -24,-24z" fill="url(#color-6)"/><path d="M222.23149,98.31135c0,-13.25483 10.74517,-24 24,-24c13.25483,0 24,10.74517 24,24c0,13.25483 -10.74517,24 -24,24c-13.25483,0 -24,-10.74517 -24,-24z" fill="url(#color-7)"/><path d="M225.56484,97.97801c0,-13.25483 10.74517,-24 24,-24c13.25483,0 24,10.74517 24,24c0,13.25483 -10.74517,24 -24,24c-13.25483,0 -24,-10.74517 -24,-24z" fill="url(#color-8)"/><path d="M233.23149,97.31134c0,-13.25483 10.74517,-24 24,-24c13.25483,0 24,10.74517 24,24c0,13.25483 -10.74517,24 -24,24c-13.25483,0 -24,-10.74517 -24,-24z" fill="url(#color-9)"/><path d="M181.56484,113.31135c0,-13.25483 10.74517,-24 24,-24c13.25483,0 24,10.74517 24,24c0,13.25483 -10.74517,24 -24,24c-13.25483,0 -24,-10.74517 -24,-24z" fill="url(#color-10)"/></g><g stroke="#000000" stroke-width="1.5"><g stroke-linecap="round"><path d="M237.89206,133.60278l-14.24966,28.43557c0,0 -7.26467,-2.62519 -9.47053,-8.54786c-2.42205,-6.50312 1.16742,-13.57223 1.16742,-13.57223l31.1419,15.60586c0,0 2.26177,-5.89691 0.3973,-12.53425c-1.81125,-6.44789 -8.98644,-9.38709 -8.98644,-9.38709z" fill="url(#color-11)"/><path d="M222.89314,147.72306l1.56967,4.12189" fill="none"/><path d="M238.23457,147.79971l-1.40868,-3.69913" fill="none"/><path d="M218.80151,145.84372l3.82357,10.04049" fill="none"/><path d="M239.5859,140.26698l3.13936,8.24376" fill="none"/><path d="M236.29751,163.7325c6.43301,-2.4793 9.80305,-7.82083 9.80305,-7.82083l-31.14191,-15.60585c0,0 3.51436,-7.10675 10.17359,-9.05905c6.06485,-1.77805 12.5162,2.47014 12.5162,2.47014l-14.24965,28.43557c0,0 6.64932,3.98857 12.89872,1.58002z" data-paper-data="{&quot;index&quot;:null}" fill="url(#color-12)"/><path d="M229.89338,140.26411l-4.2415,1.20979" data-paper-data="{&quot;index&quot;:null}" fill="none"/><path d="M231.08965,154.80341l3.80648,-1.08572" data-paper-data="{&quot;index&quot;:null}" fill="none"/><path d="M221.69723,139.32114l10.33183,-2.94692" data-paper-data="{&quot;index&quot;:null}" fill="none"/><path d="M238.15368,156.88947l-8.48298,2.41957" data-paper-data="{&quot;index&quot;:null}" fill="none"/></g><path d="M228.02509,141.25046l8.94026,4.48015l-4.48015,8.94026l-8.94026,-4.48015z" fill="#121212" stroke-linecap="butt"/><path d="M228.27632,146.99888l3.93372,1.97126" fill="none" stroke-linecap="round"/></g><path d="M245.41014,130.16223c0.66179,4.72451 -3.23425,9.17536 -8.70205,9.94127c-5.46779,0.76591 -10.43682,-2.44318 -11.09862,-7.16767c-0.66179,-4.72451 3.23426,-9.17537 8.70206,-9.94127c5.4678,-0.76591 10.43681,2.44317 11.09861,7.16767z" fill="#505050" stroke="#000000" stroke-width="1.5" stroke-linecap="butt"/><path d="M238.14611,133.34889c-0.15132,-1.08025 0.68847,-2.09081 1.87569,-2.25711c1.18721,-0.1663 2.27233,0.57461 2.42364,1.65487c0.15132,1.08025 -0.68845,2.09082 -1.87567,2.25712c-1.18721,0.1663 -2.27235,-0.57462 -2.42366,-1.65488z" fill="#000000" stroke="#000000" stroke-width="0" stroke-linecap="butt"/><path d="M231.90854,134.05528c-0.15484,-1.10539 0.70447,-2.13944 1.91931,-2.30961c1.21484,-0.17017 2.32518,0.58799 2.48001,1.69337c0.15484,1.10539 -0.70447,2.13945 -1.91929,2.30962c-1.21484,0.17017 -2.3252,-0.58799 -2.48004,-1.69338z" fill="#000000" stroke="#000000" stroke-width="0" stroke-linecap="butt"/><g stroke-width="0.875"><path d="M222.6859,130.63069c-0.94238,-6.72765 3.86906,-12.96249 10.74665,-13.92588c6.87759,-0.96339 13.42498,3.68032 14.36737,10.408c0,0 -2.172,3.34359 -7.46069,4.78533c-6.84164,1.8651 -17.24048,1.67998 -17.65335,-1.26745z" fill="url(#color-13)" stroke="#000000" stroke-linecap="butt"/><path d="M247.64009,126.82237c0.17051,0.44536 -0.24038,2.10212 -0.24038,2.10212c0,0 -2.32764,2.93721 -11.54097,4.12825c-9.82533,1.27013 -12.96827,-1.6408 -12.96827,-1.6408c0,0 -0.55674,-1.00476 -0.50509,-1.39873c0.0605,-0.46136 0.21868,-1.34786 0.21868,-1.34786c0,0 8.21977,1.78733 13.10737,1.0793c4.88761,-0.70804 11.51161,-4.34356 11.51161,-4.34356c0,0 0.25357,0.99424 0.41705,1.42128z" fill="#0e0e0e" stroke="#000000" stroke-linecap="round"/><path d="M225.69212,120.35869c0,0 1.28035,-1.09267 1.84005,-1.51547c0.57134,-0.43161 1.48469,-0.86664 1.48469,-0.86664c0,0 5.51012,0.47771 8.1764,2.2844c2.66629,1.80669 5.65153,6.94555 5.65153,6.94555c0,0 -1.45259,0.72328 -1.94517,0.94628c-0.63012,0.28528 -1.87338,0.61496 -1.87338,0.61496c0,0 -1.94428,-4.7207 -4.72041,-6.50079c-2.77612,-1.78004 -8.61372,-1.9083 -8.61372,-1.9083z" fill="#0e0e0e" stroke="#000000" stroke-linecap="round"/><path d="M226.33108,124.73445c-0.82403,0.67253 -2.53432,0.65255 -2.53432,0.65255c0,0 -2.31553,-3.54886 -3.05889,-5.50394c-0.73436,-1.93139 -1.3746,-6.15644 -1.3746,-6.15644c0,0 2.8709,3.9923 4.27815,5.49251c1.288,1.37311 3.83926,3.16123 3.83926,3.16123c0,0 -0.32554,1.68151 -1.14958,2.35406z" fill="#0e0e0e" stroke="#000000" stroke-linecap="butt"/><path d="M238.27611,117.3454c0,0 1.20315,-1.14678 1.40277,-2.68c0.21808,-1.67514 0.16133,-5.72539 0.16133,-5.72539c0,0 1.80822,3.16791 2.31285,4.82206c0.51079,1.67443 0.73367,5.1645 0.73367,5.1645c0,0 -1.40402,0.59836 -2.36687,0.52595c-0.96285,-0.07242 -2.24372,-2.1071 -2.24372,-2.1071z" data-paper-data="{&quot;index&quot;:null}" fill="#0e0e0e" stroke="#000000" stroke-linecap="butt"/><path d="M241.39374,129.79141c-0.07175,-0.51226 0.32643,-0.99143 0.88942,-1.07029c0.56297,-0.07886 1.0775,0.27246 1.14926,0.78472c0.07175,0.51226 -0.32642,0.99144 -0.88942,1.0703c-0.56297,0.07886 -1.0775,-0.27245 -1.14926,-0.78473z" fill="#000000" stroke="none" stroke-linecap="butt"/><path d="M244.4303,128.29668c-0.07175,-0.51226 0.32642,-0.99143 0.88941,-1.0703c0.56297,-0.07886 1.07751,0.27247 1.14927,0.78473c0.07175,0.51225 -0.32643,0.99143 -0.88942,1.07029c-0.56297,0.07886 -1.0775,-0.27247 -1.14925,-0.78472z" fill="#000000" stroke="none" stroke-linecap="butt"/><path d="M238.42466,130.85478c-0.07175,-0.51226 0.32643,-0.99143 0.88942,-1.07029c0.56297,-0.07886 1.0775,0.27245 1.14926,0.78472c0.07175,0.51226 -0.32643,0.99144 -0.88942,1.0703c-0.56297,0.07886 -1.0775,-0.27246 -1.14926,-0.78473z" fill="#000000" stroke="none" stroke-linecap="butt"/><path d="M234.85768,131.6454c-0.07175,-0.51226 0.32643,-0.99144 0.88942,-1.0703c0.56297,-0.07886 1.07751,0.27245 1.14927,0.78473c0.07175,0.51226 -0.32643,0.99144 -0.88943,1.0703c-0.56297,0.07886 -1.0775,-0.27245 -1.14926,-0.78473z" fill="#000000" stroke="none" stroke-linecap="butt"/><path d="M231.2657,131.85758c-0.07175,-0.51226 0.32643,-0.99143 0.88943,-1.07029c0.56297,-0.07886 1.07751,0.27245 1.14926,0.78472c0.07175,0.51226 -0.32643,0.99144 -0.88942,1.0703c-0.56297,0.07886 -1.07752,-0.27245 -1.14927,-0.78472z" fill="#000000" stroke="none" stroke-linecap="butt"/><path d="M227.43307,131.55056c-0.07175,-0.51226 0.32642,-0.99143 0.88941,-1.07029c0.56297,-0.07886 1.07752,0.27245 1.14927,0.78472c0.07175,0.51226 -0.32643,0.99144 -0.88943,1.0703c-0.56297,0.07886 -1.07749,-0.27245 -1.14925,-0.78473z" fill="#000000" stroke="none" stroke-linecap="butt"/><path d="M224.03378,130.85547c-0.07175,-0.51226 0.32643,-0.99143 0.88942,-1.07029c0.56297,-0.07886 1.07751,0.27246 1.14926,0.78472c0.07175,0.51226 -0.32642,0.99143 -0.88942,1.0703c-0.56297,0.07886 -1.07751,-0.27246 -1.14926,-0.78473z" fill="#000000" stroke="none" stroke-linecap="butt"/><path d="M239.1477,126.38501c-0.07175,-0.51226 0.32643,-0.99143 0.88942,-1.07029c0.56297,-0.07886 1.0775,0.27246 1.14926,0.78472c0.07175,0.51226 -0.32642,0.99144 -0.88941,1.0703c-0.56297,0.07886 -1.07751,-0.27246 -1.14926,-0.78473z" fill="#000000" stroke="none" stroke-linecap="butt"/><path d="M237.0628,123.67261c-0.07175,-0.51226 0.32642,-0.99144 0.88942,-1.0703c0.56297,-0.07886 1.07751,0.27247 1.14926,0.78473c0.07175,0.51226 -0.32644,0.99143 -0.88942,1.07029c-0.56297,0.07886 -1.07751,-0.27246 -1.14926,-0.78472z" fill="#000000" stroke="none" stroke-linecap="butt"/><path d="M234.38121,121.10927c-0.07175,-0.51226 0.32642,-0.99142 0.88942,-1.07029c0.56297,-0.07886 1.0775,0.27246 1.14926,0.78472c0.07175,0.51226 -0.32643,0.99143 -0.88941,1.0703c-0.56297,0.07886 -1.07751,-0.27246 -1.14926,-0.78473z" fill="#000000" stroke="none" stroke-linecap="butt"/><path d="M229.99459,119.78685c-0.07175,-0.51226 0.32644,-0.99144 0.88942,-1.0703c0.56297,-0.07886 1.07751,0.27246 1.14927,0.78473c0.07175,0.51226 -0.32643,0.99144 -0.88942,1.0703c-0.56297,0.07886 -1.07751,-0.27247 -1.14926,-0.78473z" fill="#000000" stroke="none" stroke-linecap="butt"/></g><path d="M224.50766,159.98337c-1.27067,-5.18627 -4.11048,-11.22947 -4.11048,-11.22947l36.6034,1.07575c0,0 -1.38305,5.28586 -3.05507,10.37191c-1.51666,4.61343 1.72665,16.03166 1.2883,20.34538c-0.10802,1.06293 -7.94886,4.10241 -15.08307,4.38834c-6.84118,0.27419 -14.96975,-1.49284 -14.96975,-1.49284c0,0 0.74733,-17.66064 -0.67334,-23.45907z" fill="url(#color-14)" stroke="#000000" stroke-width="1.5" stroke-linecap="butt"/><path d="M245.5741,191.48774c-0.83784,0.13039 -1.73773,-0.79551 -2.70125,-4.42724c-0.29455,-1.11028 -0.84329,-4.21603 -1.08297,-5.41006c-0.31001,-1.54448 -0.14353,-3.18556 -0.30136,-4.59573c-0.34921,-3.12016 -0.77533,-5.44285 -0.77533,-5.44285c0,0 2.67453,-1.14708 4.8329,-1.48299c2.15836,-0.33591 4.99337,0.09985 4.99337,0.09985c0,0 -0.29259,1.88423 -0.19832,4.84443c0.04538,1.42473 0.4454,3.36674 0.50906,4.96046c0.0733,1.83506 -0.23704,2.46103 -0.11409,4.15358c0.13801,1.89984 0.70605,4.76411 0.70605,4.76411c0,0 -5.35889,2.45717 -5.86807,2.53643z" data-paper-data="{&quot;index&quot;:null}" fill="#060606" stroke="#000000" stroke-width="1.5" stroke-linecap="butt"/><path d="M234.97262,189.7556c0,0 -6.30996,-0.12217 -6.84318,-0.27339c-0.87741,-0.24883 -1.3614,-1.48105 -0.74421,-5.19056c0.18869,-1.13405 0.98633,-4.1858 1.26484,-5.37162c0.36026,-1.53386 1.22916,-2.94655 1.68086,-4.29223c0.99941,-2.97741 1.58051,-5.2666 1.58051,-5.2666c0,0 3.11512,0.13275 5.37542,0.77377c2.26029,0.64103 4.8521,2.27689 4.8521,2.27689c0,0 -1.0971,1.57755 -2.27767,4.29854c-0.56818,1.3096 -1.01116,3.24274 -1.6341,4.71332c-0.71726,1.69325 -1.29069,2.12402 -1.898,3.71004c-0.68168,1.78024 -1.35656,4.62184 -1.35656,4.62184z" data-paper-data="{&quot;index&quot;:null}" fill="#060606" stroke="#000000" stroke-width="1.5" stroke-linecap="butt"/><path d="M227.12818,153.40723c-0.54417,0.07119 -6.13031,-5.92417 -3.62236,-7.87577c4.37047,-3.40095 10.3972,-2.77873 12.72086,-3.10421c1.97525,-0.27669 8.62211,-2.96045 13.40664,-0.86462c2.0731,0.90812 -3.10408,8.92054 -3.12275,9.18426c-0.33984,4.79925 1.30121,8.64213 1.83476,9.92778c0.16059,0.38698 0.64709,1.7573 1.25168,3.20389c0.53501,1.28011 1.74609,6.77241 1.93423,7.98444c0.16565,1.06706 -0.0832,3.08682 -0.0832,3.08682c0,0 -5.26073,1.78763 -10.49674,2.58194c-4.40247,0.66786 -8.81772,0.41785 -9.77521,-0.05624c-2.25435,-1.11621 -1.15037,-10.4331 -1.02756,-12.45757c0,0 -1.17437,-11.85221 -3.02036,-11.61074z" fill="#505050" stroke="#000000" stroke-width="1.5" stroke-linecap="butt"/><path d="M228.63755,151.21109l3.34828,-1.67417c0,0 4.33628,4.88239 6.92982,7.06901c2.75654,2.32401 8.96686,6.51803 8.96686,6.51803l-0.46651,2.26916c0,0 -8.09422,-3.8809 -10.93513,-6.24228c-2.8869,-2.3996 -7.84338,-7.93976 -7.84338,-7.93976z" fill="url(#color-15)" stroke="#000000" stroke-width="1.5" stroke-linecap="butt"/><path d="M230.70188,163.71116c0,0 6.65834,0.74275 9.19384,0.69c2.69482,-0.05605 9.14055,-1.62249 9.14055,-1.62249l1.10315,3.19373c0,0 -6.95581,1.34865 -9.71254,1.42911c-2.80135,0.08174 -10.38385,-0.58568 -10.38385,-0.58568z" fill="url(#color-16)" stroke="#000000" stroke-width="1.5" stroke-linecap="butt"/><path d="M238.20161,166.03797c0.06494,-0.45517 0.04497,-1.12757 0.33057,-1.46258c0.55002,-0.64517 1.6504,-0.75122 2.58531,-0.63842c0.80712,0.09738 1.66548,0.39759 2.05918,0.99986c0.29915,0.45762 0.2507,1.14682 0.16868,1.72183c-0.10404,0.72926 -0.3991,1.51653 -1.00784,1.89286c-0.50292,0.31091 -1.26545,0.28568 -1.90804,0.20814c-0.73486,-0.08868 -1.5443,-0.32232 -1.94689,-0.84223c-0.37556,-0.48502 -0.37268,-1.2367 -0.28098,-1.87945z" fill="url(#color-17)" stroke="#000000" stroke-width="1.5" stroke-linecap="butt"/><path d="M251.33887,188.79436c3.49944,0.02775 4.06695,1.83432 4.03923,3.3461c-0.0277,1.51177 -2.26717,2.33668 -5.76661,2.30891c-3.49944,-0.02775 -6.95828,0.44286 -6.93057,-1.06889c0.01159,-0.63185 -0.55341,-2.8037 0.7443,-3.37395c0,0 5.87677,-1.22832 7.91366,-1.21216z" data-paper-data="{&quot;index&quot;:null}" fill="url(#color-18)" stroke="#000000" stroke-width="1.5" stroke-linecap="butt"/><path d="M234.192,189.43233c3.45922,0.52978 3.76152,2.39911 3.51709,3.89126c-0.24443,1.49214 -2.57912,1.98703 -6.03833,1.45723c-3.45922,-0.52978 -6.94979,-0.56054 -6.70536,-2.05266c0.10217,-0.62365 -0.14521,-2.8541 1.22091,-3.23217c0,0 5.99224,-0.37201 8.00571,-0.06364z" data-paper-data="{&quot;index&quot;:null}" fill="url(#color-19)" stroke="#000000" stroke-width="1.5" stroke-linecap="butt"/><path d="M217.11267,151.54507c-0.12928,-0.17603 0.64997,-4.74838 2.71796,-6.85116c1.67897,-1.70723 6.10765,-3.19343 10.29762,-3.34823c2.04044,-0.07539 4.44935,1.09103 5.63845,0.9192c4.32581,-0.62505 7.03011,-2.75767 7.05405,-2.75877c0.35268,-0.01598 5.7972,-1.62519 7.56011,-0.24528c0.75713,0.59263 3.07177,2.16918 3.46201,2.42999c1.94499,1.29992 3.57366,5.11798 4.51662,8.82679c0.48759,1.63031 -1.0898,4.22343 -2.54018,5.96777c-0.62851,0.7559 -3.06201,-5.56207 -5.618,-5.86298c-1.88163,-0.22152 -3.32637,8.18162 -4.87086,7.50855c-4.7867,-2.08597 -7.28255,-4.50899 -9.73331,-4.97875c-2.39939,-0.45991 -4.28295,-2.40811 -7.22158,-2.14466c-2.93865,0.26344 -5.38667,-0.5612 -7.85519,-1.03626c0,0 -2.70741,2.52712 -3.40768,1.57379z" data-paper-data="{&quot;index&quot;:null}" fill="url(#color-20)" stroke="#000000" stroke-width="1.5" stroke-linecap="butt"/><path d="M247.4397,142.04979c0.71136,-4.16495 3.31775,-15.48556 3.84725,-15.49373c0.30968,-0.00478 6.44262,0.35525 6.80495,0.67719c0.34551,0.307 -2.19724,5.92147 -2.45671,12.60638c-0.20729,5.34025 0.28767,8.99319 -0.92249,11.39716c-0.50394,1.0011 -1.94435,1.18141 -2.39576,1.56058c-1.05732,0.88813 -3.32409,-0.08249 -3.99353,-1.44807c-1.38654,-2.82833 -1.59507,-5.13456 -0.88369,-9.29952z" data-paper-data="{&quot;index&quot;:null}" fill="#505050" stroke="#000000" stroke-width="1.5" stroke-linecap="butt"/><path d="M229.15961,154.00074c0.03996,1.04858 -1.46835,1.95734 -3.3689,2.02976c-1.90055,0.07243 -3.47365,-0.7189 -3.51361,-1.76748c-0.03996,-1.04858 1.46835,-1.95734 3.3689,-2.02976c1.90055,-0.07243 3.47365,0.7189 3.51361,1.76748z" fill="#000000" stroke="none" stroke-width="NaN" stroke-linecap="butt"/><path d="M230.47298,142.92915l-0.41121,-2.93563c0,0 3.8657,0.68876 5.75927,0.40397c2.10923,-0.31722 6.31899,-2.22056 6.31899,-2.22056l0.42835,3.05794c0,0 -3.60418,1.5026 -5.52351,1.77145c-2.09677,0.29371 -6.5719,-0.07717 -6.5719,-0.07717z" fill="url(#color-21)" stroke="#000000" stroke-width="1" stroke-linecap="butt"/><path d="M255.26752,156.52992c0,0 -2.61416,0.66907 -3.89376,0.03201c-1.20107,-0.59797 -3.60211,-2.0951 -3.60211,-2.0951c0,0 -2.16081,-3.92745 -1.54377,-4.51603c0.88925,-0.84824 5.63859,0.84041 5.63859,0.84041c0,0 4.21038,-2.9245 5.32752,-2.42604c1.0109,0.45106 0.68851,4.88884 0.68851,4.88884z" fill="url(#color-22)" stroke="#000000" stroke-width="1.5" stroke-linecap="butt"/><path d="M232.5493,139.55959c4.89775,-2.0487 15.87019,-7.17026 16.17534,-6.66929c0.17848,0.29299 3.08966,6.73986 2.94462,7.29726c-0.13832,0.53152 -6.4363,1.06971 -13.80362,5.20165c-5.88539,3.30079 -9.51457,6.93932 -12.78898,7.35727c-1.36358,0.17405 -2.34655,-1.37172 -3.00882,-1.55492c-1.55122,-0.42912 -2.33743,-2.35461 -1.23677,-3.8895c2.27967,-3.17901 6.82045,-5.69377 11.71822,-7.74247z" data-paper-data="{&quot;index&quot;:null}" fill="#505050" stroke="#000000" stroke-width="1.5" stroke-linecap="butt"/><g stroke="#000000"><g data-paper-data="{&quot;index&quot;:null}" stroke-linecap="round"><path d="M246.83762,105.10715l-3.02917,-1.21148l2.20306,-2.85823l-2.9613,-2.33745l1.98665,-2.36184l-1.77413,-3.23039l3.11823,-2.09149l-1.34207,-3.13142l3.55649,-0.58036l-0.28935,-3.1974l3.02267,1.16898l0.29955,-3.18218l4.10939,2.0984" data-paper-data="{&quot;index&quot;:null}" fill="#000000" stroke-width="0.5"/><path d="M247.80243,105.5794c0,0 -3.91677,-6.71091 -1.9029,-12.15333c3.22757,-8.72238 10.49721,-9.02653 10.49721,-9.02653l6.73544,9.97405l-4.08668,13.58132z" data-paper-data="{&quot;index&quot;:null}" fill="#000000" stroke-width="0.5"/><path d="M251.93669,94.74757l-4.51229,-1.90646" data-paper-data="{&quot;index&quot;:null}" fill="#000000" stroke-width="0.5"/><path d="M249.27196,98.48814l-3.32513,-1.19216" data-paper-data="{&quot;index&quot;:null}" fill="#000000" stroke-width="0.5"/><path d="M249.15055,103.22369l-2.37563,-0.9501l1.72781,-2.2416l-2.32248,-1.83315l1.55803,-1.85229l-1.39136,-2.53344l2.44552,-1.64026l-1.05254,-2.4558l2.78916,-0.45515l-0.22693,-2.50757l2.37055,0.91676l0.23491,-2.49565l3.22283,1.64568" data-paper-data="{&quot;index&quot;:null}" fill="#343434" stroke-width="0"/><path d="M249.90711,103.59409c0,0 -3.07173,-5.26304 -1.49232,-9.53127c2.53129,-6.84055 8.23247,-7.07911 8.23247,-7.07911l5.2823,7.82221l-3.20498,10.65121z" data-paper-data="{&quot;index&quot;:null}" fill="url(#color-23)" stroke-width="0"/><path d="M248.45195,97.0978l2.60772,0.93496" data-paper-data="{&quot;index&quot;:null}" fill="#585858" stroke-width="0"/></g><g data-paper-data="{&quot;index&quot;:null}"><g data-paper-data="{&quot;index&quot;:null}" fill="#000000" stroke-width="0.5"><g data-paper-data="{&quot;index&quot;:null}"><path d="M279.62784,92.23291l4.52145,0.92015l-1.74903,2.67526l3.09238,0.96968l-2.21904,2.32011l2.41956,2.67042l-3.00117,1.61242l1.13504,3.57902l-3.40073,1.42053l0.08162,3.0852l-3.77262,-0.01767l-0.05852,3.60825l-3.12393,-0.94049" stroke-linecap="round"/><g data-paper-data="{&quot;index&quot;:null}"><path d="M268.98864,91.69248l-19.30149,53.23085l-5.36938,0.12398l20.05779,-53.81339c0,0 2.29463,-1.78446 3.06831,-1.71897c0.66352,0.05616 1.04367,1.99921 1.04367,1.99921z" stroke-linecap="butt"/><path d="M262.23103,108.75432l5.26859,-13.16797l11.48357,-3.60215c0,0 5.4955,4.76863 2.58337,13.60133c-1.81704,5.51125 -9.06261,8.31826 -9.06261,8.31826z" stroke-linecap="round"/></g></g><path d="M280.73868,104.17771l-4.71692,-1.32135" stroke-linecap="round"/><path d="M279.11771,108.58241l-3.34335,-1.14006" stroke-linecap="round"/><path d="M281.44506,99.60116l-3.49947,-0.99022" stroke-linecap="round"/></g><path d="M277.68226,94.04395l3.54599,0.72164l-1.3717,2.09807l2.4252,0.7605l-1.7403,1.81956l1.89754,2.09427l-2.35368,1.26451l0.89017,2.80689l-2.66704,1.11405l0.06399,2.41958l-2.95874,-0.0139l-0.04588,2.82984l-2.44996,-0.7376" fill="#343434" stroke-width="0" stroke-linecap="round"/><path d="M264.03873,107.001l4.13191,-10.32703l9.00606,-2.825c0,0 4.30981,3.73978 2.02601,10.66689c-1.42499,4.32224 -7.10736,6.52363 -7.10736,6.52363z" fill="url(#color-24)" stroke-width="0" stroke-linecap="round"/><path d="M274.85418,102.37543l3.69928,1.0363" fill="#343434" stroke-width="0" stroke-linecap="round"/><path d="M274.66013,105.97207l2.62202,0.89407" fill="#585858" stroke-width="0" stroke-linecap="round"/><path d="M276.36298,99.04593l2.74446,0.7766" fill="#343434" stroke-width="0" stroke-linecap="round"/><path d="M268.01554,92.12593l-19.14919,51.66804l-3.19228,0.15712l19.26872,-52.13992c0,0 1.64383,-1.4938 2.11547,-1.45387z" fill="#1f180f" stroke-width="0.5" stroke-linecap="butt"/></g></g><path d="M244.89652,136.8726c0.01333,-2.1314 2.06853,-3.8476 4.5904,-3.83326c2.52187,0.01434 4.55546,1.75382 4.54213,3.8852c-0.01333,2.1314 -2.06851,3.84759 -4.5904,3.83325c-2.52187,-0.01434 -4.55546,-1.75381 -4.54213,-3.88519z" fill="#000000" stroke="#000000" stroke-width="1.5" stroke-linecap="butt"/><path d="M250.6459,126.30904c0.40258,-2.005 2.56312,-3.26209 4.82573,-2.80779c2.2626,0.4543 3.77045,2.44796 3.36786,4.45295c-0.40258,2.005 -2.56313,3.26209 -4.82572,2.80779c-2.2626,-0.4543 -3.77046,-2.44797 -3.36788,-4.45296z" fill="#000000" stroke="#000000" stroke-width="1.5" stroke-linecap="butt"/><path d="M222.44828,157.35136c0,0 -2.56382,-0.8416 -3.30011,-2.0668c-0.6911,-1.15 -1.9104,-3.70338 -1.9104,-3.70338c0,0 0.29009,-4.47323 1.12683,-4.63767c1.20586,-0.23698 4.30208,3.7406 4.30208,3.7406c0,0 4.96032,0.17574 5.19257,1.35748c0.2748,1.39826 -1.32251,4.50628 -1.32251,4.50628z" fill="url(#color-25)" stroke="#000000" stroke-width="1.5" stroke-linecap="butt"/></g></g></svg>