<svg version="1.1" xmlns="http://www.w3.org/2000/svg" xmlns:xlink="http://www.w3.org/1999/xlink" width="56.93783" height="90.89202" viewBox="0,0,56.93783,90.89202"><defs><linearGradient x1="279.88549" y1="132.74068" x2="268.86821" y2="111.08452" gradientUnits="userSpaceOnUse" id="color-1"><stop offset="0" stop-color="#868686"/><stop offset="1" stop-color="#4c4c4c"/></linearGradient><linearGradient x1="201.99289" y1="188.72252" x2="199.02305" y2="191.69237" gradientUnits="userSpaceOnUse" id="color-2"><stop offset="0" stop-color="#333333"/><stop offset="1" stop-color="#515151"/></linearGradient><linearGradient x1="251.1002" y1="168.30422" x2="228.77877" y2="168.30422" gradientUnits="userSpaceOnUse" id="color-3"><stop offset="0" stop-color="#3d3d3d"/><stop offset="1" stop-color="#2e2e2e"/></linearGradient><linearGradient x1="245.97887" y1="154.2928" x2="235.63949" y2="154.2928" gradientUnits="userSpaceOnUse" id="color-4"><stop offset="0" stop-color="#cc0000"/><stop offset="1" stop-color="#260505"/></linearGradient><linearGradient x1="234.55225" y1="172.35744" x2="245.54292" y2="172.35744" gradientUnits="userSpaceOnUse" id="color-5"><stop offset="0" stop-color="#260505"/><stop offset="1" stop-color="#cc0000"/></linearGradient></defs><g transform="translate(-227.1121,-104.70097)"><g data-paper-data="{&quot;isPaintingLayer&quot;:true}" fill-rule="nonzero" stroke-linejoin="miter" stroke-miterlimit="10" stroke-dasharray="" stroke-dashoffset="0" style="mix-blend-mode: normal"><path d="M239.95254,194.09299c-4.53359,0 -8.20878,-3.77468 -8.20878,-8.43097c0,-4.6563 3.67519,-8.43097 8.20878,-8.43097c4.53359,0 8.20878,3.77468 8.20878,8.43097c0,4.6563 -3.67519,8.43097 -8.20878,8.43097z" data-paper-data="{&quot;index&quot;:null}" fill="#0d0d0d" stroke="#000000" stroke-width="3" stroke-linecap="butt"/><g data-paper-data="{&quot;index&quot;:null}" stroke="#000000"><path d="M281.54992,107.96488l-50.35542,20.4854" fill="none" stroke-width="5" stroke-linecap="round"/><path d="M275.20888,106.01792c0,0 3.93439,4.63727 5.1637,6.59221c1.10825,1.76244 2.58719,6.10437 2.58719,6.10437l-0.09868,3.55519l-2.60834,-1.54267l-0.31503,3.45078l-2.62283,-1.95023l-0.16507,3.70463l-2.79075,-2.45214l-0.13006,3.76571l-2.88407,-2.28062l0.14548,3.10812l-2.28578,-2.17256l-0.22404,2.89333l-2.24232,-1.82711c0,0 -2.59179,-3.43919 -3.36379,-5.37269c-0.85632,-2.14467 -1.91862,-9.90289 -1.38985,-9.84632c1.78458,0.19094 6.58916,3.52543 8.38224,2.61323c2.36892,-1.20517 4.84201,-8.34327 4.84201,-8.34327z" fill="url(#color-1)" stroke-width="2" stroke-linecap="butt"/><path d="M268.20739,108.20097l1.41786,3.38144" fill="none" stroke-width="7" stroke-linecap="round"/></g><path d="M235.92361,184.85852c0,-2.1401 1.7349,-3.875 3.875,-3.875c2.1401,0 3.875,1.7349 3.875,3.875c0,2.1401 -1.7349,3.875 -3.875,3.875c-2.1401,0 -3.875,-1.7349 -3.875,-3.875z" fill="#525252" stroke="none" stroke-width="NaN" stroke-linecap="butt"/><path d="" fill="url(#color-2)" stroke="#000000" stroke-width="1.5" stroke-linecap="butt"/><path d="M251.1002,187.27964c0,0 -2.36213,0 -4.28139,0c-1.18954,0 -4.30543,-3.75 -6.67979,-3.75c-2.83123,0 -5.03001,3.75 -7.46401,3.75c-2.28517,0 -3.89624,0 -3.89624,0c0,0 -0.16667,-29.18012 -0.16667,-35.10553c0,-2.13071 1.72818,-5.84533 3.36123,-5.84533c4.54027,0 12.9629,0 15.50132,0c1.21779,0 3.46064,3.09852 3.46064,5.14533c0,5.8451 0.16491,35.80552 0.16491,35.80552z" data-paper-data="{&quot;index&quot;:null}" fill="url(#color-3)" stroke="#000000" stroke-width="3" stroke-linecap="butt"/><path d="M235.63949,157.18709c0,0 -0.74743,-2.01498 -0.74743,-3.06453c0,-0.82579 0.74743,-2.72403 0.74743,-2.72403h10.33938c0,0 0.74743,1.84472 0.74743,2.89428c0,0.82578 -0.74743,2.89428 -0.74743,2.89428z" data-paper-data="{&quot;index&quot;:null}" fill="url(#color-4)" stroke="#000000" stroke-width="2" stroke-linecap="butt"/><path d="M236.29484,184.86183v-21.66667h7.5v21.66667c0,0 -2.7642,-1.33333 -4,-1.33333c-1.26358,0 -3.5,1.33333 -3.5,1.33333z" fill="#191919" stroke="#000000" stroke-width="3" stroke-linecap="butt"/><path d="M240.04758,177.60278l-5.49533,-5.24533l5.49533,-5.24534l5.49534,5.24534z" data-paper-data="{&quot;index&quot;:null}" fill="url(#color-5)" stroke="#000000" stroke-width="2" stroke-linecap="butt"/><path d="M251.28907,138.08595l-10.63443,7.34087" fill="none" stroke="#000000" stroke-width="3" stroke-linecap="round"/><path d="M252.49917,137.52774l-22.43153,-8.85525" fill="none" stroke="#000000" stroke-width="3" stroke-linecap="round"/></g></g></svg>