<svg version="1.1" xmlns="http://www.w3.org/2000/svg" xmlns:xlink="http://www.w3.org/1999/xlink" width="133.64977" height="89.57637" viewBox="0,0,133.64977,89.57637"><defs><radialGradient cx="345.37935" cy="244.36138" r="6.48727" gradientUnits="userSpaceOnUse" id="color-1"><stop offset="0" stop-color="#ff0000"/><stop offset="1" stop-color="#ff0000" stop-opacity="0"/></radialGradient><radialGradient cx="348.93201" cy="233.53623" r="6.26737" gradientUnits="userSpaceOnUse" id="color-2"><stop offset="0" stop-color="#ff0000"/><stop offset="1" stop-color="#ff0000" stop-opacity="0"/></radialGradient><linearGradient x1="339.93323" y1="234.95856" x2="364.20677" y2="234.95856" gradientUnits="userSpaceOnUse" id="color-3"><stop offset="0" stop-color="#1e0000"/><stop offset="1" stop-color="#400000"/></linearGradient><linearGradient x1="358.69283" y1="210.60386" x2="386.10752" y2="210.60386" gradientUnits="userSpaceOnUse" id="color-4"><stop offset="0" stop-color="#6b0000"/><stop offset="1" stop-color="#ca0000"/></linearGradient></defs><g transform="translate(-259.61609,-188.88416)"><g data-paper-data="{&quot;isPaintingLayer&quot;:true}" fill-rule="nonzero" stroke-linejoin="miter" stroke-miterlimit="10" stroke-dasharray="" stroke-dashoffset="0" style="mix-blend-mode: normal"><path d="M315.35729,207.36542c0,0 -9.44597,9.97316 -12.86151,17.0117c-2.42725,5.0019 -3.46217,18.39184 -5.26042,18.21708c-1.57042,-0.15261 -3.58671,3.57087 -5.64084,3.17822c-1.03574,-0.19798 -3.20556,-1.88357 -4.36583,-2.16697c-2.48122,-0.60605 -8.26194,0.72914 -8.26194,0.72914c0,0 -3.14613,-5.20375 -3.96462,-5.51192c-1.07742,-0.40567 -5.75437,-1.44453 -5.75437,-1.44453c0,0 -1.28362,-3.41874 -2.00176,-3.954c-2.72115,-2.02823 -2.02563,-1.73644 -3.82615,-2.89965c-0.99038,-0.6398 6.89067,-14.60839 6.36112,-14.73375c-0.16615,-0.03935 0.63974,0.34512 5.11213,2.49842c0.75368,0.36286 1.67369,1.57161 3.09073,2.4728c1.60728,1.0222 2.9965,3.17249 3.92697,3.37752c2.62785,0.57904 8.679,-1.13398 9.54335,-1.3257c3.05782,-0.67826 2.09671,-3.96713 1.67174,-4.22525c-0.59908,-0.36391 -3.4941,0.07042 -3.4941,0.07042c0,0 -1.7509,-2.03983 -2.63417,-2.66291c-1.45225,-1.02448 -5.58711,-2.77001 -5.58711,-2.77001c0,0 -1.4544,-2.97846 -2.58395,-4.03626c-2.14181,-2.00573 -3.57737,-3.50328 -3.57737,-3.50328c0,0 1.59354,-4.29532 2.51083,-6.10045c0.88719,-1.74594 5.65499,-7.49849 5.65499,-7.49849c0,0 1.64303,-1.90679 5.33249,0.23161c0.81542,0.47261 2.90249,3.66473 2.90249,3.66473c0,0 2.12848,5.0008 3.02262,5.42947c1.43207,0.68658 6.18855,-0.40142 6.18855,-0.40142c0,0 3.45047,0.62008 4.80508,1.316c5.23846,2.69113 9.69113,5.03754 9.69113,5.03754z" fill="#191919" stroke="#000000" stroke-width="2.5" stroke-linecap="butt"/><path d="M282.55462,189.77859c1.07714,0.54736 5.20485,2.60392 5.20485,2.60392l-7.97614,15.07262c0,0 -3.99487,-1.73964 -5.11011,-2.30636c-0.72369,-0.36774 7.33664,-15.64705 7.88144,-15.3702z" fill="#000000" stroke="#000000" stroke-width="2" stroke-linecap="butt"/><path d="M268.96531,214.64779c1.10243,0.5602 4.78531,2.43162 4.78531,2.43162l-8.0324,15.80731c0,0 -3.20755,-1.8855 -4.32944,-2.45557c-0.65647,-0.3336 -1.14787,-1.91814 -0.3874,-3.4147c1.61991,-3.18789 4.30794,-8.47779 5.26437,-10.36c0.69956,-1.37671 2.1174,-2.30449 2.69954,-2.00869z" fill="#000000" stroke="#000000" stroke-width="2" stroke-linecap="butt"/><path d="M291.75752,198.04527l3.18523,1.61854l-3.64041,9.37248l-5.29673,8.53082l-3.37682,-2.50344l3.83076,-8.67763z" fill="#000000" stroke="#000000" stroke-width="2.5" stroke-linecap="butt"/><path d="M279.2233,222.00644l3.94389,0.99304l-3.28482,9.24984l-5.28975,7.62446l-3.85699,-1.95989l3.11862,-8.51406z" fill="#000000" stroke="#000000" stroke-width="2.5" stroke-linecap="butt"/><path d="M349.47777,224.1664c3.23199,0.87455 16.07143,0.61929 13.55244,3.12174c-2.06351,2.04995 -5.5749,4.17817 -5.5749,4.17817l2.91863,3.69946l-4.91721,2.1691c0,0 8.16697,2.08029 7.00617,2.71846c-0.14054,0.07729 -3.56324,1.96965 -3.56324,1.96965l-1.83161,3.95957l-3.49408,-0.80174l3.3916,3.75077c0,0 -3.04245,1.45923 -3.7031,1.88285c-5.03999,3.23176 -9.22654,-0.13667 -11.16145,-0.15625c-5.59152,-0.05661 -8.43163,-8.15876 -6.49048,-15.33261c1.94115,-7.17387 7.96312,-12.75669 13.86723,-11.15913z" data-paper-data="{&quot;index&quot;:null}" fill="#000000" stroke="none" stroke-width="0" stroke-linecap="butt"/><path d="M343.05383,243.9172c0.38692,-2.23625 2.13563,-3.94435 3.90589,-3.81524c1.14861,0.08379 1.81405,0.65522 2.18158,1.84335c0.19892,0.64303 -1.08999,1.65192 -1.22585,2.43719c-0.16377,0.94659 -0.13968,1.80342 -0.49447,2.38512c-0.48337,0.79249 -0.84152,1.50689 -1.8624,1.43245c-1.77023,-0.12914 -2.89166,-2.04662 -2.50474,-4.28285z" data-paper-data="{&quot;index&quot;:null}" fill="#7b0000" stroke="none" stroke-width="0" stroke-linecap="butt"/><path d="M345.41848,233.23298c0.3869,-2.23622 2.13563,-3.94435 3.90587,-3.81525c0.8366,0.06102 1.6334,0.13311 2.08944,0.83789c0.50896,0.78648 -1.29727,2.58059 -1.50133,3.76c-0.3869,2.23622 -0.21901,3.62933 -1.98926,3.5002c-1.77023,-0.12914 -2.89166,-2.04662 -2.50474,-4.28285z" data-paper-data="{&quot;index&quot;:null}" fill="#7b0000" stroke="none" stroke-width="0" stroke-linecap="butt"/><path d="M299.05945,206.62838c1.14978,-0.18837 3.4983,-2.32624 3.4983,-2.32624l2.75528,-1.79852c0,0 2.06051,4.00761 3.30363,4.29767c0.0687,0.01604 2.44194,0.43074 2.44194,0.43074l2.03795,-3.01023l4.28066,5.76144l0.68678,-3.42698c0,0 1.33018,4.46801 5.7691,8.53111c5.94061,5.43772 15.02716,10.44429 14.67161,11.86288c-0.52342,2.08847 -2.95199,0.13851 -4.94205,8.58955c-2.34718,9.96747 3.69507,8.85826 0.73587,9.90639c-0.3927,0.13909 -8.9152,-3.62411 -16.3471,-3.21567c-1.37774,0.07573 -4.78866,4.09595 -6.59061,5.98968c-2.84185,2.98654 -5.38628,3.88907 -5.38628,3.88907l-1.9757,-5.81318l-3.12882,4.53819l-2.5454,-5.39887c0,0 -2.55002,2.94666 -3.47286,2.90437c-0.83045,-0.03804 -1.81624,-3.14677 -1.81624,-3.14677l-4.8495,-3.72815c0,0 0.92804,-2.86367 0.86573,-5.23988c-0.03764,-1.43501 -1.1127,-5.62415 -0.4425,-7.75866c0.78871,-2.51194 3.37548,-3.01498 3.83724,-5.10346c0,0 -1.74557,-2.08779 -1.12755,-4.54846c0.44868,-1.78641 2.66288,-2.89603 3.8618,-4.7171c0.8181,-1.24264 0.68501,-3.30126 1.07689,-4.22642c0.4472,-1.05576 3.06957,-1.24445 3.14938,-1.25752z" data-paper-data="{&quot;index&quot;:null}" fill="#191919" stroke="#000000" stroke-width="2.5" stroke-linecap="butt"/><path d="M347.07377,238.09931c3.45844,0.93581 5.50346,4.49806 4.56765,7.95652c-0.93581,3.45844 -4.49806,5.50346 -7.95652,4.56765c-3.45844,-0.93581 -5.50346,-4.49806 -4.56765,-7.95652c0.93581,-3.45844 4.49806,-5.50346 7.95652,-4.56765z" fill="url(#color-1)" stroke="none" stroke-width="0" stroke-linecap="butt"/><path d="M334.65954,238.00003c1.30774,-2.10098 4.73083,1.0418 5.75903,1.32003c0.95434,0.25823 -0.30634,4.40224 0.88774,6.6729c0.89275,1.69769 4.20833,1.98182 5.43139,2.68388c0.82562,0.47394 1.65739,5.78706 1.65739,5.78706l-12.67897,-3.65857c0,0 -2.0803,-11.16065 -1.05658,-12.80529z" fill="#191919" stroke="#000000" stroke-width="2" stroke-linecap="butt"/><path d="M350.569,227.4864c3.34122,0.90408 5.31689,4.34557 4.41281,7.68679c-0.90408,3.34122 -4.34559,5.31689 -7.68679,4.41282c-3.34122,-0.90408 -5.3169,-4.3456 -4.4128,-7.6868c0.90408,-3.34122 4.34558,-5.31688 7.6868,-4.41279z" fill="url(#color-2)" stroke="none" stroke-width="0" stroke-linecap="butt"/><path d="M343.17811,220.7024l11.4993,3.39529l-2.57381,4.03178c0,0 -3.52469,-1.09212 -5.7082,-1.64274c-0.5289,-0.1334 -2.46541,6.45597 -4.87853,8.30174c-1.9614,1.50028 -4.44362,-1.6579 -5.08122,-1.82132c-1.3959,-0.3578 3.35607,-8.1691 3.35607,-8.1691z" fill="#191919" stroke="#000000" stroke-width="2" stroke-linecap="butt"/><path d="M300.25343,244.45548c0,0 1.32959,-4.03403 1.76193,-5.68785c0.58756,-2.24757 -1.7877,-4.94242 -1.02721,-6.69038c1.51197,-3.47525 3.84824,-1.47883 4.8194,-4.94573c0.6044,-2.15764 -1.84778,-4.71871 -1.91895,-7.08027c-0.08409,-2.79158 4.70131,-2.03936 5.20291,-3.58077c0.11569,-0.35552 -0.25397,-4.53354 -0.14113,-4.8948c1.63047,-5.21871 4.88425,-6.40207 4.88425,-6.40207" fill="none" stroke="#000000" stroke-width="2.5" stroke-linecap="round"/><path d="M354.29413,224.73902l4.86427,-0.05068l-0.94761,1.7997l5.24476,0.72993l-2.20018,1.23432l5.05752,4.65704l-2.20448,-0.52204l3.36781,5.72534c0,0 0.86015,3.38329 0.51945,4.64242c-0.34121,1.26097 -1.34852,2.77892 -2.48219,4.217c-0.62949,0.7985 -5.8608,2.7396 -5.8608,2.7396l2.11379,1.20991l-7.653,1.88147l1.5807,2.41423l-5.86219,-1.93471l0.7609,2.37687l-3.93798,-2.88809c0,0 0.36197,-10.2523 1.65821,-15.04278c1.24838,-4.61365 5.98109,-13.18962 5.98109,-13.18962z" fill="#191919" stroke="#000000" stroke-width="2" stroke-linecap="butt"/><path d="M308.80072,251.99764c0,0 1.18057,-4.30477 1.55668,-6.06079c0.51114,-2.38645 -1.82317,-5.00777 -1.1352,-6.88739c1.36781,-3.73707 3.64891,-1.84009 4.49939,-5.52629c0.52931,-2.29413 -1.87558,-4.77011 -1.99735,-7.22393c-0.14398,-2.90065 4.45248,-2.4903 4.89744,-4.13467c0.10263,-0.37927 -0.34619,-4.70152 -0.2464,-5.08655c1.44154,-5.56196 4.52833,-7.04801 4.52833,-7.04801" fill="none" stroke="#000000" stroke-width="2.5" stroke-linecap="round"/><path d="M346.96384,259.99603c0.7109,0.09026 -16.63902,14.993 -28.61847,7.73582c0.41024,-21.17798 7.49954,-14.63034 7.49954,-14.63034" data-paper-data="{&quot;index&quot;:null}" fill="none" stroke="#101010" stroke-width="14" stroke-linecap="round"/><path d="M315.18624,245.2502c0,0 2.32038,-2.34151 4.88598,-2.83804c0.2655,-0.05139 0.72924,2.23157 1.27436,2.02549c0.91128,-0.34451 2.05904,-3.14529 2.95429,-2.49422c0.76207,0.55421 0.57352,2.5684 1.67316,2.74274c1.1543,0.18301 1.1883,-0.62646 2.62092,-1.10866c0.58853,-0.19808 0.68723,-1.05799 1.46578,-0.97517c1.2807,0.13624 3.2465,1.34503 3.72519,1.32068c3.2078,-0.1633 1.24594,11.93689 1.24594,11.93689l-3.81658,0.3887l-0.25876,5.08369c0,0 -2.28896,-2.25617 -2.99753,-2.39109c-0.33382,-0.06357 -2.66656,3.13603 -2.66656,3.13603c0,0 -0.95845,-3.20443 -2.35527,-3.55633c-1.24995,-0.31491 -5.3911,0.30422 -5.3911,0.30422c0,0 1.19676,-4.16971 0.71586,-4.46439c-1.68508,-1.03264 -3.98473,-0.69945 -3.98473,-0.69945z" fill="#191919" stroke="#000000" stroke-width="2.5" stroke-linecap="butt"/><path d="M343.36326,247.04859c0.43558,0.85904 -15.77636,-3.63524 -17.90364,-15.26059c0.64405,-13.44566 8.66263,-15.65784 8.66263,-15.65784" fill="none" stroke="#101010" stroke-width="14" stroke-linecap="round"/><path d="M325.57373,207.08285c0,0 1.81786,1.44732 3.79371,1.40528c0.56385,-0.01201 1.63298,-4.21624 1.63298,-4.21624c0,0 3.26392,2.62282 4.50211,2.98117c1.38367,0.40047 3.82719,-1.88343 3.82719,-1.88343c0,0 0.40107,3.93933 0.72139,4.05274c0.67994,0.24077 3.79426,-0.55335 3.79426,-0.55335l-2.34,4.52052l3.09981,2.26019c0,0 -4.40739,11.43845 -7.09515,9.67991c-0.40108,-0.26242 -2.70819,-0.20982 -3.88286,-0.73796c-0.71409,-0.32105 -0.36571,-1.11342 -0.77407,-1.58124c-0.99401,-1.1388 -0.61519,-1.85496 -1.70429,-2.279c-1.0375,-0.40395 -1.89033,1.43053 -2.82789,1.52482c-1.1014,0.1108 -0.68025,-2.88658 -1.29349,-3.64362c-0.36683,-0.45285 -1.91848,1.28478 -2.12185,1.10652c-1.96518,-1.72248 -2.78824,-4.91457 -2.78824,-4.91457z" data-paper-data="{&quot;index&quot;:null}" fill="#191919" stroke="#000000" stroke-width="2.5" stroke-linecap="butt"/><g data-paper-data="{&quot;index&quot;:null}" stroke="#000000"><g data-paper-data="{&quot;index&quot;:null}"><path d="M380.26746,194.52739l6.64338,0.41632l-1.96755,4.1701l4.61128,0.77104l-2.70968,3.75606l3.98778,3.33489l-3.96779,2.90029l2.33299,4.88837l-4.57688,2.70551l0.72964,4.39213l-5.3941,0.72438l0.63335,5.16738l-4.65055,-0.72309" fill="#000000" stroke-width="3" stroke-linecap="round"/><g data-paper-data="{&quot;index&quot;:null}"><path d="M364.20673,195.71412l-16.62609,79.9723l-7.64741,1.24408l17.96674,-80.87733c0,0 2.92408,-3.0057 4.04258,-3.06584c0.95924,-0.05158 2.26422,2.72678 2.26422,2.72678z" fill="url(#color-3)" stroke-width="2.5" stroke-linecap="butt"/><path d="M358.69283,221.59106l4.91149,-19.86207l15.69265,-7.42885c0,0 8.79985,5.72173 6.39394,18.921c-1.50118,8.23588 -11.29626,13.68643 -11.29626,13.68643z" fill="url(#color-4)" stroke-width="3" stroke-linecap="round"/></g></g><path d="M377.2258,210.42335l7.00239,0.95074" fill="none" stroke-width="2.5" stroke-linecap="round"/><path d="M377.78356,217.02524l5.00369,0.96463" fill="none" stroke-width="2.5" stroke-linecap="round"/><path d="M379.13106,203.97493l5.197,0.71955" fill="none" stroke-width="2.5" stroke-linecap="round"/></g><path d="M348.00027,258.94727c-3.03057,-0.82002 -6.60459,-7.38436 -7.57932,-8.96166c-0.24799,-0.40129 0.7242,-3.65668 2.40935,-6.50602c1.31506,-2.22355 3.37291,-4.2176 3.6038,-4.29868c0.5054,-0.17747 7.28545,0.72611 10.21602,5.31526c1.59834,2.50292 -0.02264,6.21437 -0.4676,7.85878c-1.26077,4.65945 -3.39851,7.88672 -8.18222,6.59233z" fill="#000000" stroke="#000000" stroke-width="1.5" stroke-linecap="butt"/><path d="M345.41815,248.44491c3.89497,-3.06406 7.12562,-0.93145 10.1101,2.86235c1.05328,1.3389 3.99801,4.11935 3.50726,7.04826c-0.89979,5.37018 -6.78474,8.85628 -7.31928,8.89084c-0.55704,0.03602 -3.97086,-1.49953 -6.08549,-3.14292c-2.11464,-1.64338 -3.80454,-3.6145 -3.678,-4.4448c0.27933,-1.83302 0.99785,-9.27264 3.46538,-11.21379z" data-paper-data="{&quot;index&quot;:null}" fill="#000000" stroke="#000000" stroke-width="1.5" stroke-linecap="butt"/><path d="M292.73973,244.86732c0,0 1.30993,-4.04047 1.73419,-5.69637c0.57659,-2.25039 -1.81174,-4.93365 -1.05981,-6.68529c1.49502,-3.48258 3.84099,-1.49756 4.79524,-4.96915c0.59388,-2.16057 -1.87076,-4.70964 -1.95341,-7.07084c-0.09768,-2.79112 4.69131,-2.06222 5.18541,-3.60607c0.11396,-0.3561 -0.27607,-4.53225 -0.16496,-4.89405c1.605,-5.22659 4.85298,-6.4258 4.85298,-6.4258" fill="none" stroke="#000000" stroke-width="2.5" stroke-linecap="round"/></g></g></svg>