<svg version="1.1" xmlns="http://www.w3.org/2000/svg" xmlns:xlink="http://www.w3.org/1999/xlink" width="100.81438" height="123.14453" viewBox="0,0,100.81438,123.14453"><defs><linearGradient x1="225.25869" y1="145.97086" x2="257.77711" y2="145.97086" gradientUnits="userSpaceOnUse" id="color-1"><stop offset="0" stop-color="#202020"/><stop offset="1" stop-color="#232323"/></linearGradient><radialGradient cx="236.61584" cy="133.65567" r="3.16667" gradientUnits="userSpaceOnUse" id="color-2"><stop offset="0" stop-color="#ff0000"/><stop offset="1" stop-color="#ff0000" stop-opacity="0"/></radialGradient><linearGradient x1="224.67064" y1="139.99057" x2="234.8135" y2="139.99057" gradientUnits="userSpaceOnUse" id="color-3"><stop offset="0" stop-color="#202020"/><stop offset="1" stop-color="#232323"/></linearGradient><linearGradient x1="256.49104" y1="150.09648" x2="259.35652" y2="150.39975" gradientUnits="userSpaceOnUse" id="color-4"><stop offset="0" stop-color="#222222"/><stop offset="1" stop-color="#100d09"/></linearGradient></defs><g transform="translate(-222.77032,-72.31795)"><g data-paper-data="{&quot;isPaintingLayer&quot;:true}" fill-rule="nonzero" stroke-linejoin="miter" stroke-miterlimit="10" stroke-dasharray="" stroke-dashoffset="0" style="mix-blend-mode: normal"><path d="M322.3347,75.50975c-1.46967,16.12698 -58.73577,60.50013 -61.19778,63.92044c-0.67659,0.93992 -2.46988,4.35129 -3.07985,4.38158" fill="none" stroke="#000000" stroke-width="2.5" stroke-linecap="round"/><path d="M254.94687,97.90325c0,0 10.52157,0.60297 15.45405,2.136c4.98319,1.5488 14.29449,7.10997 14.29449,7.10997" fill="none" stroke="#0a0a0a" stroke-width="2" stroke-linecap="round"/><path d="M266.12623,73.31795c0,0 13.74752,1.11767 20.12039,3.29964c6.52163,2.2329 18.5734,9.9485 18.5734,9.9485" fill="none" stroke="#0a0a0a" stroke-width="2" stroke-linecap="round"/><path d="M251.50301,112.50517c0,0 6.49106,-0.20338 9.56834,0.89821c3.01681,1.07994 8.71755,5.64771 8.71755,5.64771" fill="none" stroke="#0a0a0a" stroke-width="2" stroke-linecap="round"/><path d="M260.17082,85.6709c0,0 11.89214,0.80991 17.44779,2.71208c5.68879,1.94775 16.29499,8.8409 16.29499,8.8409" fill="none" stroke="#0a0a0a" stroke-width="2" stroke-linecap="round"/><path d="M248.53638,132.2197c-2.07987,-0.5991 -3.38791,-2.39709 -2.92161,-4.01591c0.46629,-1.61883 2.53037,-2.44546 4.61024,-1.84636c2.07987,0.5991 3.38789,2.39709 2.9216,4.0159c-0.46629,1.61883 -2.53037,2.44544 -4.61023,1.84635z" fill="#000000" stroke="none" stroke-width="0" stroke-linecap="butt"/><path d="M256.44678,179.70394c0,0 -0.82287,0.96563 -1.40447,1.21073c-0.56567,0.23839 -2.03867,0.24031 -2.03867,0.24031c0,0 -0.0046,-2.40496 -0.56772,-4.08865c-0.83958,-2.51022 -3.9805,-9.50993 -3.9805,-9.50993l2.4389,-1.02782z" fill="#cdcdcd" stroke="#000000" stroke-width="0.5" stroke-linecap="butt"/><path d="M251.15696,165.9493c0,0 1.73985,4.12845 2.64177,6.26861c0.45529,1.08034 1.14584,2.71895 1.74009,4.129c0.64142,1.52201 1.53735,2.57895 1.53735,2.57895l-0.7817,0.55045c0,0 -1.26396,-0.93928 -2.06503,-2.26973c-0.70817,-1.17614 -1.36275,-2.64139 -1.79656,-3.61841c-0.92165,-2.07575 -3.04536,-6.89321 -3.04536,-6.89321l1.76939,-0.74567z" fill="#141414" stroke="#000000" stroke-width="0.5" stroke-linecap="butt"/><path d="M250.56131,167.87663l-1.96067,0.82629c0,0 -1.38859,-3.29495 -1.67849,-3.98284c-0.09545,-0.22651 0.11186,-0.79396 0.27431,-0.86241c0.34309,-0.14458 1.41909,-0.59805 1.41909,-0.59805z" fill="#191919" stroke="#000000" stroke-width="0.5" stroke-linecap="butt"/><path d="M252.67791,150.71355c0,0 1.77244,-0.3914 2.31016,0.21159c0.17866,0.20035 0.07957,1.90298 -0.07851,2.15262c-0.62808,0.56203 -2.39912,1.96397 -3.39588,3.64349c-0.31236,0.481 -1.06518,0.91829 -1.18894,1.53167c-0.06083,0.3015 0.15156,0.83898 0.07032,1.08354c0.22898,0.68631 0.70453,2.09326 1.16119,3.38403c0.45411,1.28364 1.14454,2.25571 0.97497,2.70053c-0.3664,0.96107 -0.61927,1.57488 -0.61927,1.57488l-0.90851,0.34971l-3.54887,-8.31752c0,0 0.95875,-3.45085 1.9359,-4.49712c0.96285,-1.03098 3.28739,-3.81743 3.28739,-3.81743z" fill="#141414" stroke="#000000" stroke-width="1" stroke-linecap="butt"/><path d="M251.61145,167.02792c0,0 -0.18945,0.63308 -0.4177,0.72926c-0.16606,0.06998 -0.82563,-0.20529 -0.82563,-0.20529l-2.92147,-6.93229l1.24335,-0.52398z" fill="#cdcdcd" stroke="#000000" stroke-width="0.5" stroke-linecap="butt"/><path d="M248.85702,163.25594l-0.95535,0.40262c0,0 -0.22903,-0.59395 -0.27572,-0.89145c-0.04176,-0.26614 0.0087,-0.80993 0.0087,-0.80993l0.61546,-0.25937z" fill="#cdcdcd" stroke="none" stroke-width="0" stroke-linecap="butt"/><path d="M250.41892,164.2303l-1.19173,0.50223l-2.11762,-5.50306l0.733,-1.11249z" fill="#cdcdcd" stroke="#000000" stroke-width="0.5" stroke-linecap="butt"/><path d="M251.3246,167.11716c0,0 0.11388,0.09963 0.11893,0.22847c0.00399,0.10143 -0.0958,0.22999 -0.12352,0.28079c-0.05899,0.10804 -0.3621,0.16226 -0.3621,0.16226l-1.73885,-0.17549l0.20541,-0.6533l1.90012,0.15725z" fill="#cdcdcd" stroke="none" stroke-width="0" stroke-linecap="butt"/><path d="M249.99133,167.326l-0.73525,0.30985l-0.65254,-1.5484l0.73524,-0.30986z" fill="#cdcdcd" stroke="none" stroke-width="0" stroke-linecap="butt"/><path d="M249.79308,165.60264l-2.46882,1.05702l-0.19605,-0.36493l2.51653,-1.04396z" fill="#cdcdcd" stroke="none" stroke-width="0" stroke-linecap="butt"/><path d="M250.86794,167.50194c-0.03901,-0.09256 0.02974,-0.20987 0.15355,-0.26205c0.12382,-0.05218 0.25579,-0.01945 0.29478,0.07311c0.03901,0.09256 -0.02974,0.20986 -0.15355,0.26204c-0.1238,0.05217 -0.25579,0.01945 -0.29478,-0.07311z" fill="#000000" stroke="none" stroke-width="0" stroke-linecap="butt"/><path d="M248.84956,163.46413c-0.10155,-0.24097 0.06099,-0.53955 0.36307,-0.66686c0.30207,-0.12731 0.62928,-0.03515 0.73084,0.20586c0.10155,0.24097 -0.06098,0.53955 -0.36306,0.66685c-0.30207,0.12731 -0.62929,0.03515 -0.73086,-0.20585z" fill="#2b2b2b" stroke="none" stroke-width="0" stroke-linecap="butt"/><path d="M249.60729,163.65867c0,0 -0.39863,0.50568 -0.62205,0.65074c-0.21268,0.13808 -0.69395,0.23537 -0.69395,0.23537l-0.19576,-0.46452c0,0 0.40971,-0.03611 0.56407,-0.12165c0.13368,-0.07412 0.30898,-0.36232 0.30898,-0.36232z" fill="#2b2b2b" stroke="none" stroke-width="0" stroke-linecap="butt"/><path d="M249.04088,163.36698c-0.06224,-0.1477 0.03585,-0.33005 0.21906,-0.40726c0.18323,-0.07722 0.38224,-0.02006 0.44448,0.12763c0.06224,0.1477 -0.03585,0.33005 -0.21906,0.40726c-0.18323,0.07722 -0.38224,0.02006 -0.44448,-0.12763z" fill="#000000" stroke="none" stroke-width="0" stroke-linecap="butt"/><path d="M247.73146,165.12056c-0.18837,-0.44701 -0.15241,-0.88891 0.08033,-0.98699c0.23274,-0.09809 0.57415,0.18478 0.76252,0.63179c0.18837,0.44701 0.15242,0.8889 -0.08032,0.98699c-0.23276,0.09809 -0.57416,-0.18478 -0.76253,-0.63179z" fill="#000000" stroke="none" stroke-width="0" stroke-linecap="butt"/><path d="M247.60165,164.56196c-0.07699,-0.18268 0.04928,-0.4103 0.28203,-0.50838c0.23276,-0.09809 0.48384,-0.0295 0.56082,0.15318c0.07699,0.18268 -0.04928,0.4103 -0.28203,0.50839c-0.23276,0.09809 -0.48383,0.0295 -0.56083,-0.15318z" fill="#2b2b2b" stroke="none" stroke-width="0" stroke-linecap="butt"/><path d="M247.73933,164.54907c-0.04587,-0.10884 0.02936,-0.24445 0.16801,-0.30288c0.13865,-0.05843 0.28824,-0.01756 0.33411,0.09127c0.04587,0.10884 -0.02936,0.24445 -0.168,0.30287c-0.13866,0.05843 -0.28825,0.01757 -0.33412,-0.09127z" fill="#000000" stroke="none" stroke-width="0" stroke-linecap="butt"/><path d="M250.31071,158.66797c0,0 1.27797,-0.34538 2.1404,0.07995c0.64817,0.29117 0.99261,0.91248 0.9872,0.93193c0.17526,0.36198 -0.59649,1.14198 -0.77071,1.28008c-0.32846,0.26038 -1.50788,0.60002 -1.50788,0.60002l-0.22135,-0.5887c0,0 1.8559,-0.09825 1.92933,-1.08852c-0.44158,-1.18548 -2.47716,-0.58737 -2.47716,-0.58737z" data-paper-data="{&quot;index&quot;:null}" fill="#cdcdcd" stroke="none" stroke-width="0" stroke-linecap="butt"/><path d="M251.77811,159.36762c0,0 0.49896,-0.00296 0.50961,0.05231c0.01018,0.05285 -0.37465,0.27276 -0.37465,0.27276c0,0 -0.56258,0.25188 -0.6988,0.41057c-0.11362,0.13237 -0.3442,0.56453 -0.3442,0.56453l-0.21791,-0.49778c0,0 0.14636,-0.26432 0.26419,-0.40157c0.13403,-0.15614 0.86178,-0.40086 0.86178,-0.40086z" fill="#cdcdcd" stroke="none" stroke-width="0" stroke-linecap="butt"/><path d="M244.19892,160.51082c0,0 1.0768,-0.43671 1.69617,-0.19621c0.46729,0.18145 0.497,0.86351 0.57114,1.05787c0.06059,0.15888 0.11661,0.30197 0.15731,0.39852c0.11588,0.27496 0.90067,0.3332 0.90067,0.3332c0,0 -0.0605,0.28458 -0.06089,0.42681c-0.00035,0.11918 0.05868,0.36978 0.05868,0.36978c0,0 -0.99641,-0.15372 -1.3311,-0.47486c-0.16424,-0.15756 -0.28753,-0.24509 -0.45295,-0.55531c-0.08483,-0.15909 -0.1798,-0.42375 -0.24778,-0.56717c-0.13503,-0.28483 -0.96714,0.02671 -0.96714,0.02671c0,0 -0.56471,-0.10594 -0.61419,-0.23208c-0.04491,-0.11454 0.29005,-0.58719 0.29005,-0.58719z" fill="#cdcdcd" stroke="#000000" stroke-width="0.5" stroke-linecap="butt"/><path d="M247.48319,162.74423c0,0 0.03992,0.1848 0.06832,0.25221c0.04234,0.10046 0.13956,0.30113 0.13956,0.30113c0,0 -0.97115,-0.0538 -1.36319,-0.19103c-0.3812,-0.1334 -0.87166,-0.76787 -0.87166,-0.76787c0,0 -0.22832,-0.19808 -0.25019,-0.42214c-0.02077,-0.21281 0.21515,-0.51014 0.23846,-0.56022c0.0502,-0.10778 0.2634,0.47848 0.2634,0.47848c0,0 0.49057,0.60536 0.81409,0.75408c0.28073,0.12905 0.96119,0.15537 0.96119,0.15537z" fill="#191919" stroke="#000000" stroke-width="0.5" stroke-linecap="butt"/><path d="M246.45754,133.22793c0,4.83569 -3.25846,8.75579 -7.27798,8.75579c-4.01952,0 -7.27798,-3.9201 -7.27798,-8.75579c0,-4.83569 3.25846,-8.75579 7.27798,-8.75579c4.01952,0 7.27798,3.9201 7.27798,8.75579z" fill="#000000" stroke="#000000" stroke-width="2" stroke-linecap="butt"/><path d="M229.36058,170.43756c0.36975,-4.09292 2.5076,-9.80994 2.5076,-9.80994c0,0 0.94931,0.64817 3.23167,0.56238c1.32176,-0.04969 14.41539,-1.44827 14.41539,-1.44827c0,0 1.0876,6.77094 1.13389,9.97171c0.04987,3.4485 -0.84459,10.03154 -0.84459,10.03154c0,0 -3.98216,2.24979 -5.92292,0.44844c-2.08011,-1.93069 -2.30065,-10.42004 -3.97704,-10.26943c-2.33832,0.21007 -2.84329,8.45533 -3.11115,11.29654c-0.02814,0.2985 -5.37269,2.87922 -7.35653,0.51053c-1.02512,-1.22398 -0.19177,-10.01562 -0.07632,-11.29348z" fill="#0e0d0c" stroke="#000000" stroke-width="2" stroke-linecap="butt"/><path d="M231.11503,156.57826c0.31109,-1.47466 1.2546,-6.59897 1.42102,-10.23874c0.0032,-0.06996 -1.78551,0.87569 -4.71867,1.05947c-2.48748,0.15586 -2.73286,-6.6591 -2.49952,-7.4756c0.42002,-1.46968 2.86974,-3.64657 4.50153,-4.20551c0.37221,-0.12749 3.72373,0.05133 3.72373,0.05133c0,0 3.87687,1.78001 5.61579,1.79816c2.25953,0.02357 5.41828,-1.29369 5.41828,-1.29369c0,0 7.87604,-0.46465 8.42587,1.65385c0.07974,0.30725 0.51653,1.24459 0.8418,2.19559c0.38082,1.11339 4.34216,23.30297 3.19457,22.80978c-0.25533,-0.10973 -4.69497,1.8972 -5.23837,0.49263c-2.23944,-5.78849 -3.241,-22.88985 -3.36487,-22.67788c-0.91983,1.57408 -0.34933,4.55485 -0.31975,5.71542c0.15714,6.1636 0.48984,9.1608 0.47676,10.59548c-0.01104,1.21111 -18.07541,2.35075 -17.47817,-0.4803z" fill="#0e0d0c" stroke="#000000" stroke-width="2" stroke-linecap="butt"/><path d="M229.09443,129.34963c-5.39763,-1.61598 -2.30821,-4.35444 1.16842,-5.26873c2.44996,-0.64429 3.84221,0.45629 3.84221,-0.1669c0,-2.31244 2.81515,-4.3392 2.81515,-4.3392c0,0 2.17965,-1.33333 3.19563,-1.33333c1.15689,0 3.37803,1.33333 3.37803,1.33333c0,0 2.15864,2.24778 2.15864,4.55894c0,0.59466 2.52111,-1.35658 4.51863,-0.63013c3.27668,1.19164 5.66264,5.07959 3.33974,5.84604c-3.62392,1.19572 -15.21513,2.75476 -24.41645,0z" fill="#1f1710" stroke="#000000" stroke-width="2" stroke-linecap="butt"/><path d="M234.80337,133.77971c-0.47844,-0.60378 -0.41564,-0.99752 -0.25036,-1.2885c0.23852,-0.41994 1.30452,-0.12688 1.30452,-0.12688l2.28238,1.27474c0,0 0.50045,0.67149 0.54669,0.92584c0.04303,0.23665 -0.37852,0.75167 -0.37852,0.75167c0,0 -1.08166,-0.52075 -2.14438,-0.63182c-1.01709,-0.10629 -0.88189,-0.30128 -1.36033,-0.90506z" fill="#ff0000" stroke="none" stroke-width="0" stroke-linecap="butt"/><path d="M242.76327,188.92812c0,0 -1.72646,-6.31909 -0.11524,-8.47611c1.04067,-1.39319 5.19781,-0.68734 6.32556,-0.76182c2.49705,-0.16493 2.70861,9.23793 2.70861,9.23793c0,0 3.63591,1.02239 3.63591,2.21944c0,0.39318 0.97798,1.09902 0.8419,1.76632c-0.11241,0.55122 -1.34342,1.11447 -1.34342,1.11447c0,0 -3.87205,0.43413 -4.44266,0.43413c-1.89369,0 -5.41513,0 -6.4345,0c-0.43544,0 -1.17618,-1.02848 -1.17618,-1.02848z" fill="#1f1710" stroke="#000000" stroke-width="1.5" stroke-linecap="butt"/><path d="M244.61203,183.92926l2.28737,-2.28738l2.28737,2.28738l-2.28737,2.28737z" fill="#480d0d" stroke="#000000" stroke-width="1" stroke-linecap="butt"/><path d="M229.01327,189.17812c0,0 -1.72646,-6.31909 -0.11524,-8.47611c1.04067,-1.39319 5.19781,-0.68734 6.32556,-0.76182c2.49705,-0.16493 2.70861,9.23793 2.70861,9.23793c0,0 3.63591,1.02239 3.63591,2.21944c0,0.39318 0.97798,1.09902 0.8419,1.76632c-0.11241,0.55122 -1.34342,1.11447 -1.34342,1.11447c0,0 -3.87205,0.43413 -4.44266,0.43413c-1.89369,0 -5.41513,0 -6.4345,0c-0.43544,0 -1.17618,-1.02848 -1.17618,-1.02848z" fill="#1f1710" stroke="#000000" stroke-width="1.5" stroke-linecap="butt"/><path d="M230.23703,185.05426l2.28737,-2.28738l2.28737,2.28738l-2.28737,2.28737z" fill="#480d0d" stroke="#000000" stroke-width="1" stroke-linecap="butt"/><path d="M231.08691,161.71415l0.5,-2.96732c0,0 7.92546,0.74183 8.125,0.74183c2.97646,0 9.125,-1.03857 9.125,-1.03857v2.96732c0,0 -6.33995,1.23992 -9.37717,1.26531c-2.86997,0.02399 -8.37283,-0.96857 -8.37283,-0.96857z" fill="#272727" stroke="#000000" stroke-width="1.5" stroke-linecap="butt"/><path d="M251.75357,166.05426c0,-2.03655 1.65095,-3.6875 3.6875,-3.6875c2.03655,0 3.6875,1.65095 3.6875,3.6875c0,2.03655 -1.65095,3.6875 -3.6875,3.6875c-2.03655,0 -3.6875,-1.65095 -3.6875,-3.6875z" fill="#000000" stroke="none" stroke-width="0" stroke-linecap="butt"/><path d="M227.80481,140.32509c-0.8256,-1.58653 1.03212,-3.125 1.03212,-3.125c0,0 8.77128,2.55411 12.95898,2.37202c1.16817,-0.05079 3.30199,-0.63905 4.7511,-1.3685c2.54926,-1.28325 3.53872,-3.25352 3.53872,-3.25352c0,0 2.48957,0.42363 3.39853,1.31236c0.84285,0.8241 0.97386,2.10068 1.2391,2.51485c0.34298,0.53556 -1.0281,1.25202 -0.96329,1.76163c0.01184,0.09312 5.62307,14.49827 3.56248,15.30177c-0.66904,0.26089 -4.0657,1.75196 -7.15828,0.88056c-2.20793,-0.62213 -6.50844,-2.23789 -6.86627,-2.42608c-1.38817,-0.73009 -3.6419,-6.09396 -4.58595,-6.08422c-5.22292,0.05394 -8.83573,-3.9051 -10.90724,-7.88587z" fill="url(#color-1)" stroke="#000000" stroke-width="2" stroke-linecap="butt"/><path d="M244.36584,124.82234c0,0 -2.77581,1.16667 -4.5,1.16667c-1.53044,0 -4.66667,-1.16667 -4.66667,-1.16667" fill="none" stroke="#000000" stroke-width="2" stroke-linecap="round"/><path d="M239.86584,128.31742l-2.57843,-2.57842l2.57843,-2.57843l2.57843,2.57843z" fill="#480d0d" stroke="#000000" stroke-width="1" stroke-linecap="butt"/><path d="M233.44916,133.65567c0,-1.7489 1.41777,-3.16666 3.16667,-3.16666c1.7489,0 3.16667,1.41777 3.16667,3.16666c0,1.7489 -1.41777,3.16667 -3.16667,3.16667c-1.7489,0 -3.16667,-1.41777 -3.16667,-3.16667z" fill="url(#color-2)" stroke="none" stroke-width="0" stroke-linecap="butt"/><path d="M237.44916,161.07234c0,-1.24264 1.00736,-2.25 2.25,-2.25c1.24264,0 2.25,1.00736 2.25,2.25c0,1.24264 -1.00736,2.25 -2.25,2.25c-1.24264,0 -2.25,-1.00736 -2.25,-2.25z" fill="#480d0d" stroke="#000000" stroke-width="1.5" stroke-linecap="butt"/><path d="M230.9564,178.99058c0,0 0.52975,-7.11836 0.80653,-9.49411c0.29365,-2.52045 1.47919,-5.22018 1.47919,-5.22018" fill="none" stroke="#000000" stroke-width="0.5" stroke-linecap="round"/><path d="M232.52784,179.13343c0,0 0.52975,-7.11836 0.80653,-9.49411c0.29365,-2.52045 1.47919,-5.22018 1.47919,-5.22018" fill="none" stroke="#000000" stroke-width="0.5" stroke-linecap="round"/><path d="M247.76786,163.3333c0,0 0.82901,2.82962 0.79654,5.36692c-0.03061,2.39163 -0.41942,9.51907 -0.41942,9.51907" data-paper-data="{&quot;index&quot;:null}" fill="none" stroke="#000000" stroke-width="0.5" stroke-linecap="round"/><path d="M246.33928,163.3333c0,0 0.82901,2.82962 0.79654,5.36692c-0.03061,2.39163 -0.41942,9.51907 -0.41942,9.51907" data-paper-data="{&quot;index&quot;:null}" fill="none" stroke="#000000" stroke-width="0.5" stroke-linecap="round"/><path d="M230.12857,138.44099c0,0 -0.79241,-2.27965 -0.45126,-2.95084c0.26369,-0.5188 2.32626,-0.73813 2.32626,-0.73813c0,0 5.91139,2.31488 8.73368,2.08125c2.17227,-0.17982 6.76632,-2.8832 6.76632,-2.8832c0,0 1.57458,0.75884 1.94612,1.86336c0.23116,0.68719 -0.6929,1.60649 -0.64922,2.26038c0.02982,0.44647 -4.85249,3.35933 -8.37246,3.42855c-3.51997,0.06922 -10.29944,-3.06136 -10.29944,-3.06136z" fill="#480d0d" stroke="#000000" stroke-width="2" stroke-linecap="butt"/><path d="M254.9564,153.70485c0,0 -3.60816,-9.23149 -4.22701,-11.8802c-0.56709,-2.42715 0.65559,-3.40551 0.65559,-3.40551" fill="none" stroke="#000000" stroke-width="1" stroke-linecap="round"/><path d="M230.52783,141.41914c0,0 2.35712,2.06776 5.47481,3.42172c0.9569,0.41557 3.55147,0.48125 5.49244,2.08565c1.94097,1.60441 3.67561,5.49264 3.67561,5.49264" fill="none" stroke="#000000" stroke-width="1" stroke-linecap="round"/><path d="M236.9564,143.13342c0,0 6.08813,1.40693 7.87938,2.61167c2.96896,1.99682 3.62062,7.555 3.62062,7.555" fill="none" stroke="#000000" stroke-width="1" stroke-linecap="round"/><path d="M245.9564,142.41914c0,0 2.77753,3.45471 3.71992,5.28629c1.01976,1.98194 2.18485,6.18991 2.18485,6.18991" fill="none" stroke="#000000" stroke-width="1" stroke-linecap="round"/><path d="M235.06543,156.68606c0,0 -0.39474,-3.19539 -0.39474,-4.21053c0,-0.6047 0.39474,-1.31579 0.39474,-1.31579h3.81579c0,0 0.78947,0.80255 0.78947,1.44737c0,1.01954 -0.78947,4.07895 -0.78947,4.07895c0,0 -1.11078,0.65789 -1.71053,0.65789c-0.66536,0 -2.10526,-0.65789 -2.10526,-0.65789z" fill="#272727" stroke="#000000" stroke-width="1" stroke-linecap="butt"/><path d="M236.32545,152.93105v-3c0,0 0.62117,-0.41667 0.89914,-0.41667c0.24036,0 0.67229,0.41667 0.67229,0.41667v3c0,0 -0.51527,0.41667 -0.75563,0.41667c-0.27797,0 -0.8158,-0.41667 -0.8158,-0.41667z" fill="#480d0d" stroke="#000000" stroke-width="0.75" stroke-linecap="butt"/><path d="M226.81351,144.44295c0,0 -0.3729,-4.4878 1.36377,-4.58544c1.52658,-0.08582 2.88756,0.59377 5.01661,1.03277c0.24064,0.04962 2.85664,0.36429 5.09138,1.04544c2.01801,0.61509 3.54057,1.57517 6.01054,2.08674c4.9726,1.0299 9.732,1.34907 9.732,1.34907l-1.16667,4.7381c0,0 -2.62904,-0.22877 -5.83644,-0.63111c-1.8542,-0.23259 -4.01265,-0.74512 -5.68144,-0.73145c-4.42046,0.0362 -12.75537,-1.91682 -12.75537,-1.91682z" fill="#0e0d0c" stroke="#000000" stroke-width="2" stroke-linecap="butt"/><path d="M224.67064,138.13342c0,0 2.8701,-1.81144 4.15839,-2.0023c1.28312,-0.19009 3.5559,0.85944 3.5559,0.85944c0,0 -2.34184,2.21534 -2.9776,4.57746c-0.79301,2.94638 1.17894,6.6291 0.56334,7.0167c-0.87381,0.55017 -3.04726,-0.50092 -4.23015,-2.11201c-0.70665,-0.96245 -1.92702,-3.19644 -1.92702,-3.19644z" fill="url(#color-3)" stroke="#000000" stroke-width="2" stroke-linecap="butt"/><path d="M255.79003,153.97523l1.81071,-11.32811l2.8655,0.30331l-1.81069,11.32811c0,0 -1.20784,1.33081 -1.69291,1.27949c-0.46964,-0.04972 -1.17263,-1.58278 -1.17263,-1.58278z" fill="url(#color-4)" stroke="#000000" stroke-width="1.5" stroke-linecap="butt"/><path d="M253.09031,150.65344c-1.72723,-1.62069 -1.17661,-3.95351 0.17248,-5.21051c1.3491,-1.257 2.98581,-0.96215 4.71306,0.65853c1.72723,1.62069 1.03373,4.23922 -0.31535,5.4962c-1.3491,1.257 -2.84294,0.67643 -4.57018,-0.94425z" fill="#000000" stroke="none" stroke-width="0" stroke-linecap="butt"/></g></g></svg>