<svg version="1.1" xmlns="http://www.w3.org/2000/svg" xmlns:xlink="http://www.w3.org/1999/xlink" width="843.1515" height="371.38748" viewBox="0,0,843.1515,371.38748"><defs><radialGradient cx="340.43418" cy="220.49379" r="25.91098" gradientUnits="userSpaceOnUse" id="color-1"><stop offset="0" stop-color="#13570d"/><stop offset="1" stop-color="#13570d" stop-opacity="0"/></radialGradient><radialGradient cx="336.97673" cy="206.71072" r="25.89414" gradientUnits="userSpaceOnUse" id="color-2"><stop offset="0" stop-color="#13570d"/><stop offset="1" stop-color="#13570d" stop-opacity="0"/></radialGradient><radialGradient cx="350.05215" cy="208.83154" r="26.92947" gradientUnits="userSpaceOnUse" id="color-3"><stop offset="0" stop-color="#13570d"/><stop offset="1" stop-color="#13570d" stop-opacity="0"/></radialGradient><radialGradient cx="368.20152" cy="224.67922" r="26.92947" gradientUnits="userSpaceOnUse" id="color-4"><stop offset="0" stop-color="#13570d"/><stop offset="1" stop-color="#13570d" stop-opacity="0"/></radialGradient><radialGradient cx="369.78135" cy="203.19372" r="26.92947" gradientUnits="userSpaceOnUse" id="color-5"><stop offset="0" stop-color="#13570d"/><stop offset="1" stop-color="#13570d" stop-opacity="0"/></radialGradient><radialGradient cx="346.08408" cy="198.77023" r="26.92947" gradientUnits="userSpaceOnUse" id="color-6"><stop offset="0" stop-color="#13570d"/><stop offset="1" stop-color="#13570d" stop-opacity="0"/></radialGradient><radialGradient cx="358.60488" cy="198.96441" r="26.92947" gradientUnits="userSpaceOnUse" id="color-7"><stop offset="0" stop-color="#13570d"/><stop offset="1" stop-color="#13570d" stop-opacity="0"/></radialGradient><radialGradient cx="351.02176" cy="225.18936" r="26.92947" gradientUnits="userSpaceOnUse" id="color-8"><stop offset="0" stop-color="#13570d"/><stop offset="1" stop-color="#13570d" stop-opacity="0"/></radialGradient><radialGradient cx="371.87533" cy="208.75927" r="26.92947" gradientUnits="userSpaceOnUse" id="color-9"><stop offset="0" stop-color="#13570d"/><stop offset="1" stop-color="#13570d" stop-opacity="0"/></radialGradient><linearGradient x1="388.11321" y1="282.27977" x2="410.79932" y2="282.17596" gradientUnits="userSpaceOnUse" id="color-10"><stop offset="0" stop-color="#a75522"/><stop offset="1" stop-color="#3f1f10"/></linearGradient><linearGradient x1="305.84722" y1="-2.06501" x2="305.84722" y2="54.82389" gradientUnits="userSpaceOnUse" id="color-11"><stop offset="0" stop-color="#000000"/><stop offset="1" stop-color="#191919"/></linearGradient><linearGradient x1="169.34938" y1="231.77929" x2="169.34938" y2="294.44595" gradientUnits="userSpaceOnUse" id="color-12"><stop offset="0" stop-color="#151515"/><stop offset="1" stop-color="#191919"/></linearGradient><linearGradient x1="159.99562" y1="200.86726" x2="159.99562" y2="212.43732" gradientUnits="userSpaceOnUse" id="color-13"><stop offset="0" stop-color="#000000"/><stop offset="1" stop-color="#000000" stop-opacity="0"/></linearGradient><linearGradient x1="184.90247" y1="231.4531" x2="182.79125" y2="230.19562" gradientUnits="userSpaceOnUse" id="color-14"><stop offset="0" stop-color="#5c5c5c"/><stop offset="1" stop-color="#000000"/></linearGradient><linearGradient x1="9.85175" y1="181.32459" x2="132.15139" y2="181.32459" gradientUnits="userSpaceOnUse" id="color-15"><stop offset="0" stop-color="#000000"/><stop offset="1" stop-color="#000000" stop-opacity="0"/></linearGradient></defs><g transform="translate(181.06305,4.91144)"><g data-paper-data="{&quot;isPaintingLayer&quot;:true}" fill-rule="nonzero" stroke-linejoin="miter" stroke-miterlimit="10" stroke-dasharray="" stroke-dashoffset="0" style="mix-blend-mode: normal"><path d="M351.60925,304.28909v-94.8605c0,0 2.75236,2.51208 3.66998,1.42007c1.90926,-2.27211 6.74699,-1.42007 6.74699,-1.42007v94.8605z" fill="#30220a" stroke="none" stroke-width="0" stroke-linecap="butt"/><g stroke="none" stroke-width="0" stroke-linecap="butt"><path d="M329.08844,209.91187c8.84458,-11.24972 10.60473,-10.21989 21.85446,-1.3753c11.24972,8.84458 10.48904,10.26239 1.64445,21.51211c-8.84458,11.24972 -12.36602,11.05095 -23.61575,2.20637c-11.24972,-8.84458 -8.72774,-11.09346 0.11684,-22.34318z" fill="url(#color-1)"/><path d="M321.46316,206.87612c-1.36906,-13.19498 0.61526,-13.63061 14.85985,-14.89879c14.24459,-1.26818 14.67323,0.16839 16.04228,13.36335c1.36906,13.19498 -1.31557,15.31395 -15.56017,16.58213c-14.24459,1.26818 -13.97291,-1.85172 -15.34197,-15.04669z" fill="url(#color-2)"/><path d="M333.98497,207.47376c0,-14.87273 2.09962,-15.16197 16.97235,-15.16197c14.87273,0 15.16197,1.64703 15.16197,16.51975c0,14.87273 -3.00481,16.97235 -17.87754,16.97235c-14.87273,0 -14.25678,-3.45741 -14.25678,-18.33014z" fill="url(#color-3)"/><path d="M356.40982,213.68135c9.19224,-11.69191 11.02158,-10.62161 22.7135,-1.42936c11.69191,9.19224 10.90133,10.66579 1.70909,22.3577c-9.19224,11.69191 -12.8521,11.48534 -24.54402,2.2931c-11.69191,-9.19224 -9.07081,-11.52951 0.12143,-23.22143z" fill="url(#color-4)"/><path d="M357.98966,192.19585c9.19224,-11.69191 11.02157,-10.62161 22.7135,-1.42936c11.69191,9.19224 10.90133,10.66578 1.70909,22.3577c-9.19224,11.69191 -12.8521,11.48534 -24.54402,2.2931c-11.69191,-9.19224 -9.07081,-11.52951 0.12143,-23.22143z" fill="url(#color-5)"/><path d="M334.29241,187.77236c9.19224,-11.69191 11.02157,-10.62161 22.7135,-1.42936c11.69191,9.19224 10.90133,10.66578 1.70909,22.3577c-9.19224,11.69191 -12.8521,11.48534 -24.54402,2.2931c-11.69191,-9.19224 -9.07081,-11.52951 0.12143,-23.22143z" fill="url(#color-6)"/><path d="M342.48151,199.15c-1.42288,-14.80452 0.63944,-15.29329 15.44395,-16.71617c14.80452,-1.42288 15.24999,0.18892 16.67286,14.99344c1.42288,14.80452 -1.36728,17.18196 -16.17179,18.60484c-14.80452,1.42288 -14.52215,-2.0776 -15.94503,-16.88211z" fill="url(#color-7)"/><path d="M334.89841,225.37495c-1.42288,-14.80451 0.63944,-15.29329 15.44396,-16.71617c14.80451,-1.42288 15.24999,0.18893 16.67287,14.99344c1.42288,14.80451 -1.36728,17.18196 -16.1718,18.60484c-14.80451,1.42288 -14.52215,-2.0776 -15.94502,-16.88211z" fill="url(#color-8)"/><path d="M355.75196,208.94486c-1.42288,-14.80451 0.63944,-15.29329 15.44396,-16.71617c14.80451,-1.42288 15.24999,0.18893 16.67287,14.99344c1.42288,14.80451 -1.36728,17.18196 -16.1718,18.60484c-14.80451,1.42288 -14.52215,-2.0776 -15.94502,-16.88211z" fill="url(#color-9)"/></g><path d="M235.59073,176.1841l87.9,87.9" fill="none" stroke="#000000" stroke-width="10" stroke-linecap="round"/><path d="M325.49074,265.58411l-87.9,-87.9" fill="none" stroke="#0e0e0e" stroke-width="5" stroke-linecap="round"/><path d="M174.69235,219.04475l-2.10867,3.92557l-4.87297,4.43214c0,0 -5.30515,0.99377 -7.41397,-1.07467c-4.44493,-4.35984 -17.97083,-22.57412 -17.97083,-22.57412l2.0363,-16.49555l17.19534,2.13784c0,0 12.21489,18.83667 16.16962,24.1339c1.08855,1.45808 -2.68343,2.74954 -3.80802,3.81318c-0.95803,0.9061 0.77319,1.70172 0.77319,1.70172z" data-paper-data="{&quot;index&quot;:null}" fill="#000000" stroke="#000000" stroke-width="0" stroke-linecap="butt"/><path d="M-9.16231,49.33717v-52.08708h490.8672v52.08709z" fill="#000000" stroke="#000000" stroke-width="1" stroke-linecap="butt"/><path d="M443.81193,241.76214v-192h37.25v192z" fill="#000000" stroke="#000000" stroke-width="1" stroke-linecap="butt"/><path d="M73.2905,361.76621v-66.50707h146v66.50707z" fill="#000000" stroke="#000000" stroke-width="1" stroke-linecap="butt"/><path d="M314.92409,233.51744l30.5,-30.5" fill="none" stroke="#000000" stroke-width="6" stroke-linecap="round"/><path d="M390.5908,168.18411v-14h56v14z" fill="#000000" stroke="#000000" stroke-width="2" stroke-linecap="butt"/><path d="M293.59068,82.1841v-35h24.33333v35l-2.47429,0.28467l-1.23607,1.39744l-2.19496,-0.82127l-3.00464,0.87938l-3.00614,-1.6454l-3.21641,1.12042l-3.00889,-1.2232l-3.54645,1.11907z" fill="#000000" stroke="#000000" stroke-width="1" stroke-linecap="butt"/><path d="M217.59078,333.18411v-11h34v11z" fill="#000000" stroke="#000000" stroke-width="1" stroke-linecap="butt"/><path d="M71.59069,192.18411l37,-37" fill="none" stroke="#000000" stroke-width="7.5" stroke-linecap="round"/><path d="M75.59064,294.18411v-41h41v41z" fill="#000000" stroke="#000000" stroke-width="6" stroke-linecap="butt"/><path d="M165.59072,296.18411v-79h7v79z" fill="#000000" stroke="#000000" stroke-width="6" stroke-linecap="butt"/><path d="M164.31744,233.46746l5.87349,-14.26374c0,0 3.53183,-3.85232 4.09984,-3.50857c0.66189,0.40056 3.04978,1.68433 3.04978,1.68433c0,0 2.35927,-1.92952 4.9283,-0.39513c5.52623,3.30063 26.12053,14.8509 26.12053,14.8509l4.40548,16.02628l-16.71193,4.57836z" fill="#000000" stroke="#000000" stroke-width="0" stroke-linecap="butt"/><path d="M278.04268,364.26922v-66.50707h205v66.50707z" fill="#000000" stroke="#000000" stroke-width="1" stroke-linecap="butt"/><path d="M384.46876,296.93402v-30h30v30z" fill="#000000" stroke="#000000" stroke-width="1" stroke-linecap="butt"/><path d="M293.59068,297.70023l-0.22222,-176.44444l2.0899,-2.33334l1.00459,2.04099l2.99701,-1.25956l1.42983,0.88689l4.67936,-1.74273l1.96318,1.19136l2.93451,-0.59228l2.98167,2.51833l1.37,-2.4431l2.77217,1.17789v177z" fill="#000000" stroke="#000000" stroke-width="1" stroke-linecap="butt"/><path d="M-1.75649,357.48389v-167.29978h73.49358v167.29978z" fill="#000000" stroke="#000000" stroke-width="10" stroke-linecap="butt"/><path d="M-4.33977,103.1841v-57h119.9305v57z" fill="#000000" stroke="#000000" stroke-width="10" stroke-linecap="butt"/><path d="M304.6924,314.62224v-15.1h355.14605v15.1z" fill="#0a290a" stroke="#000000" stroke-width="4.5" stroke-linecap="butt"/><path d="M279.88455,324.47932v-24.9h24.9c0,0 0,9.77299 0,14.20027c0,0.76489 -5.03132,-0.31988 -8,2.69973c-2.96868,3.01961 -1.65657,7.99222 -2.51929,8c-3.03826,0.0274 -14.38071,0 -14.38071,0z" data-paper-data="{&quot;index&quot;:null}" fill="#0a290a" stroke="#000000" stroke-width="4.5" stroke-linecap="butt"/><path d="M192.59072,297.0854h24.9v24.9c0,0 -9.77299,0 -14.20027,0c-0.76489,0 0.31988,-5.03132 -2.69973,-8c-3.01961,-2.96868 -7.99222,-1.65657 -8,-2.51929c-0.0274,-3.03826 0,-14.38071 0,-14.38071z" data-paper-data="{&quot;index&quot;:null}" fill="#0a290a" stroke="#000000" stroke-width="4.5" stroke-linecap="butt"/><path d="M92.32403,252.4854h24.9v24.9c0,0 -9.77299,0 -14.20027,0c-0.76489,0 0.31988,-5.03132 -2.69973,-8c-3.01961,-2.96868 -7.99222,-1.65657 -8,-2.51929c-0.0274,-3.03826 0,-14.38071 0,-14.38071z" data-paper-data="{&quot;index&quot;:null}" fill="#0a290a" stroke="#000000" stroke-width="4.5" stroke-linecap="butt"/><path d="M49.62403,187.5854h24.9v24.9c0,0 -9.77299,0 -14.20027,0c-0.76489,0 0.31988,-5.03132 -2.69973,-8c-3.01961,-2.96868 -7.99222,-1.65657 -8,-2.51929c-0.0274,-3.03826 0,-14.38071 0,-14.38071z" data-paper-data="{&quot;index&quot;:null}" fill="#0a290a" stroke="#000000" stroke-width="4.5" stroke-linecap="butt"/><path d="M108.78912,155.01044l-38.10119,38.10119" fill="none" stroke="#0a290a" stroke-width="2.5" stroke-linecap="round"/><path d="M470.87852,239.98541h-24.9v-24.9c0,0 9.77299,0 14.20027,0c0.76489,0 -0.31988,5.03132 2.69973,8c3.01961,2.96868 7.99222,1.65657 8,2.51929c0.0274,3.03826 0,14.38071 0,14.38071z" data-paper-data="{&quot;index&quot;:null}" fill="#0a290a" stroke="#000000" stroke-width="4.5" stroke-linecap="butt"/><path d="M118.21794,80.92481v24.9h-24.9c0,0 0,-9.77299 0,-14.20027c0,-0.76489 5.03132,0.31988 8,-2.69973c2.96868,-3.01961 1.65657,-7.99222 2.51929,-8c3.03826,-0.0274 14.38071,0 14.38071,0z" data-paper-data="{&quot;index&quot;:null}" fill="#0a290a" stroke="#000000" stroke-width="4.5" stroke-linecap="butt"/><path d="M470.59246,240.02224v-14.85h29.72938v14.85z" fill="#0a290a" stroke="#000000" stroke-width="4.5" stroke-linecap="butt"/><path d="M461.50564,47.65168h-15.5v-15.5c0,0 5.85854,0.81603 10.33334,5.41667c4.65244,4.78327 5.16666,10.08333 5.16666,10.08333z" data-paper-data="{&quot;index&quot;:null}" fill="#0a290a" stroke="#000000" stroke-width="4.5" stroke-linecap="butt"/><path d="M108.06115,37.56835c4.4748,-4.60064 10.33334,-5.41667 10.33334,-5.41667v15.5h-15.5c0,0 0.51422,-5.30006 5.16666,-10.08333z" data-paper-data="{&quot;index&quot;:null}" fill="#0a290a" stroke="#000000" stroke-width="4.5" stroke-linecap="butt"/><path d="M64.3444,262.78502c-4.60064,-4.4748 -5.41667,-10.33334 -5.41667,-10.33334h15.5v15.5c0,0 -5.30006,-0.51422 -10.08333,-5.16666z" data-paper-data="{&quot;index&quot;:null}" fill="#0a290a" stroke="#000000" stroke-width="4.5" stroke-linecap="butt"/><path d="M107.34449,307.18503c-4.60064,-4.4748 -5.41667,-10.33334 -5.41667,-10.33334h15.5v15.5c0,0 -5.30006,-0.51422 -10.08333,-5.16666z" data-paper-data="{&quot;index&quot;:null}" fill="#0a290a" stroke="#000000" stroke-width="4.5" stroke-linecap="butt"/><path d="M117.85913,312.12224v-15.1h74.47939v15.1z" fill="#0a290a" stroke="#000000" stroke-width="4.5" stroke-linecap="butt"/><path d="M117.34882,296.9786h-15.1v-19.47938h15.1z" fill="#0a290a" stroke="#000000" stroke-width="4.5" stroke-linecap="butt"/><path d="M74.45909,267.58889l-0.00001,-15.09999h17.47939v15.09999z" fill="#0a290a" stroke="#000000" stroke-width="4.5" stroke-linecap="butt"/><path d="M59.24881,212.69923l15.1,-0.00001v39.47939h-15.09999z" fill="#0a290a" stroke="#000000" stroke-width="4.5" stroke-linecap="butt"/><path d="M446.04884,47.89925l15.09999,-0.00004v166.87939l-15.09999,-0.00002z" fill="#0a290a" stroke="#000000" stroke-width="4.5" stroke-linecap="butt"/><path d="M445.73367,32.56033l0.00008,15.1h-327.45082l0.00004,-15.1z" fill="#0a290a" stroke="#000000" stroke-width="4.5" stroke-linecap="butt"/><path d="M103.32025,47.55636l15.1,-0.00001v33.19368h-15.1z" fill="#0a290a" stroke="#000000" stroke-width="4.5" stroke-linecap="butt"/><path d="M410.85196,293.36267l-22.68608,0.10383l-0.10529,-22.37346l22.6861,-0.10384z" fill="url(#color-10)" stroke="#5e361c" stroke-width="3.5" stroke-linecap="butt"/><path d="M408.37447,291.52529l-18.81611,0.08614l-0.08734,-18.55681l18.81613,-0.08612z" fill="none" stroke="#000000" stroke-width="2" stroke-linecap="butt"/><path d="M391.67601,289.65223l14.07151,-14.00696" fill="none" stroke="#000000" stroke-width="5" stroke-linecap="round"/><path d="M388.88726,292.56041l20.21481,-20.12214" fill="none" stroke="#5e361c" stroke-width="2.5" stroke-linecap="round"/><path d="M-7.47235,202.52224v-15.1h56.81087v15.1z" fill="#0a290a" stroke="#000000" stroke-width="4.5" stroke-linecap="butt"/><path d="M-5.47236,105.9889v-15.1h98.41087v15.1z" fill="#0a290a" stroke="#000000" stroke-width="4.5" stroke-linecap="butt"/><path d="M296.59722,297.72666v-176.30555l3.11667,1.55555l2.77673,-3.22837l3.35303,2.14675l1.47218,1.62569l1.05631,-2.18315l2.22577,1.36404l2.49932,-1.28051v176.30555z" fill="#272727" stroke="#000000" stroke-width="1" stroke-linecap="butt"/><path d="M295.51392,54.82389v-56.88889h20.66667v56.88889z" fill="url(#color-11)" stroke="#000000" stroke-width="2" stroke-linecap="butt"/><path d="M299.68057,48.76833v-9h4.33333v9z" fill="#ff0000" stroke="#000000" stroke-width="1.5" stroke-linecap="butt"/><path d="M297.68057,82.08777v-29.91667h16.5v29.91667l-2.07115,-0.21793l-1.65805,1.36086l-2.21454,-0.56094l-1.9363,-1.69225l-1.72546,1.25577l-1.55847,-1.48344l-3.31936,2.67126z" fill="#272727" stroke="#000000" stroke-width="2.5" stroke-linecap="butt"/><path d="M307.18057,48.76833v-9h4.33333v9z" fill="#ffec00" stroke="#000000" stroke-width="1.5" stroke-linecap="butt"/><path d="M302.34035,134.5856v-7.75" fill="none" stroke="#000000" stroke-width="1.5" stroke-linecap="round"/><path d="M306.17368,145.3356v-11.5" fill="none" stroke="#000000" stroke-width="1.5" stroke-linecap="round"/><path d="M306.34035,128.8356v-1.75" fill="none" stroke="#000000" stroke-width="1.5" stroke-linecap="round"/><path d="M300.17368,150.5856v4" fill="none" stroke="#000000" stroke-width="1.5" stroke-linecap="round"/><path d="M307.17368,164.0856v-7.25" fill="none" stroke="#000000" stroke-width="1.5" stroke-linecap="round"/><path d="M309.92368,153.0856v1.5" fill="none" stroke="#000000" stroke-width="1.5" stroke-linecap="round"/><path d="M303.92368,151.8356v-2.5" fill="none" stroke="#000000" stroke-width="1.5" stroke-linecap="round"/><path d="M301.67368,169.58562v-4" fill="none" stroke="#000000" stroke-width="1.5" stroke-linecap="round"/><path d="M307.17368,184.83562v-5.75" fill="none" stroke="#000000" stroke-width="1.5" stroke-linecap="round"/><path d="M307.25702,192.08562v9.5" fill="none" stroke="#000000" stroke-width="1.5" stroke-linecap="round"/><path d="M302.17368,181.83562v7.5" fill="none" stroke="#000000" stroke-width="1.5" stroke-linecap="round"/><path d="M302.42368,196.33562v2.5" fill="none" stroke="#000000" stroke-width="1.5" stroke-linecap="round"/><path d="M305.92368,173.83562v-3.75" fill="none" stroke="#000000" stroke-width="1.5" stroke-linecap="round"/><path d="M299.67368,214.33562v-9" fill="none" stroke="#000000" stroke-width="1.5" stroke-linecap="round"/><path d="M307.17368,214.08562v6" fill="none" stroke="#000000" stroke-width="1.5" stroke-linecap="round"/><path d="M304.17368,206.33562v2.5" fill="none" stroke="#000000" stroke-width="1.5" stroke-linecap="round"/><path d="M306.92368,233.58562v-9.25" fill="none" stroke="#000000" stroke-width="1.5" stroke-linecap="round"/><path d="M302.42368,226.58562v13" fill="none" stroke="#000000" stroke-width="1.5" stroke-linecap="round"/><path d="M301.42368,218.83562v2.75" fill="none" stroke="#000000" stroke-width="1.5" stroke-linecap="round"/><path d="M308.17368,240.08562v13" fill="none" stroke="#000000" stroke-width="1.5" stroke-linecap="round"/><path d="M300.42368,245.33562v16" fill="none" stroke="#000000" stroke-width="1.5" stroke-linecap="round"/><path d="M304.67368,256.58561v-6.5" fill="none" stroke="#000000" stroke-width="1.5" stroke-linecap="round"/><path d="M308.92368,258.58561v6.75" fill="none" stroke="#000000" stroke-width="1.5" stroke-linecap="round"/><path d="M304.17368,269.33561v-7.25" fill="none" stroke="#000000" stroke-width="1.5" stroke-linecap="round"/><path d="M299.67368,277.08561v-8.25" fill="none" stroke="#000000" stroke-width="1.5" stroke-linecap="round"/><path d="M306.42368,277.08561v3" fill="none" stroke="#000000" stroke-width="1.5" stroke-linecap="round"/><path d="M308.92368,275.83561v-3.75" fill="none" stroke="#000000" stroke-width="1.5" stroke-linecap="round"/><path d="M299.67368,295.08561v-3" fill="none" stroke="#000000" stroke-width="1.5" stroke-linecap="round"/><path d="M309.67368,284.58561v8.75" fill="none" stroke="#000000" stroke-width="1.5" stroke-linecap="round"/><path d="M304.17368,293.08561v-6.25" fill="none" stroke="#000000" stroke-width="1.5" stroke-linecap="round"/><path d="M300.42368,282.08561v5.5" fill="none" stroke="#000000" stroke-width="1.5" stroke-linecap="round"/><path d="M300.42368,142.8356v-5.25" fill="none" stroke="#000000" stroke-width="1.5" stroke-linecap="round"/><path d="M302.17368,177.08562v-2.75" fill="none" stroke="#000000" stroke-width="1.5" stroke-linecap="round"/><path d="M301.42368,55.08561v6.5" fill="none" stroke="#000000" stroke-width="1.5" stroke-linecap="round"/><path d="M304.17368,58.83561v5" fill="none" stroke="#000000" stroke-width="1.5" stroke-linecap="round"/><path d="M307.17368,55.33561v3" fill="none" stroke="#000000" stroke-width="1.5" stroke-linecap="round"/><path d="M310.17368,65.58561v-4.5" fill="none" stroke="#000000" stroke-width="1.5" stroke-linecap="round"/><path d="M309.92368,79.58561v-4.5" fill="none" stroke="#000000" stroke-width="1.5" stroke-linecap="round"/><path d="M304.67368,71.83561v5.25" fill="none" stroke="#000000" stroke-width="1.5" stroke-linecap="round"/><path d="M301.17368,74.58561v1.5" fill="none" stroke="#000000" stroke-width="1.5" stroke-linecap="round"/><path d="M300.42368,69.58561v-3.25" fill="none" stroke="#000000" stroke-width="1.5" stroke-linecap="round"/><path d="M307.17368,70.58561v-2.5" fill="none" stroke="#000000" stroke-width="1.5" stroke-linecap="round"/><path d="M336.20864,212.14958v-10.4h10.4v10.4z" fill="#082208" stroke="#000000" stroke-width="3" stroke-linecap="butt"/><path d="M235.35603,172.64538l1.34645,1.18154l-3.36611,2.95389l-1.34645,-1.18156z" fill="#000000" stroke="#000000" stroke-width="5" stroke-linecap="butt"/><path d="M473.59732,211.98623l-13.25,13.25" fill="none" stroke="#0a290a" stroke-width="5" stroke-linecap="round"/><path d="M486.34732,212.23623v17" fill="none" stroke="#0a290a" stroke-width="5" stroke-linecap="round"/><path d="M473.34732,190.73623h-17.5" fill="none" stroke="#0a290a" stroke-width="5" stroke-linecap="round"/><path d="M455.34732,169.73623h18" fill="none" stroke="#0a290a" stroke-width="5" stroke-linecap="round"/><path d="M473.84732,150.23621h-18" fill="none" stroke="#0a290a" stroke-width="5" stroke-linecap="round"/><path d="M453.34732,131.73621h20.5" fill="none" stroke="#0a290a" stroke-width="5" stroke-linecap="round"/><path d="M455.34732,111.73622h19.5" fill="none" stroke="#0a290a" stroke-width="5" stroke-linecap="round"/><path d="M456.84732,92.23622h18" fill="none" stroke="#0a290a" stroke-width="5" stroke-linecap="round"/><path d="M475.34732,72.23471h-20.5" fill="none" stroke="#0a290a" stroke-width="5" stroke-linecap="round"/><path d="M553.34723,308.73623v17.5" fill="none" stroke="#0a290a" stroke-width="5" stroke-linecap="round"/><path d="M574.34723,326.23623v-18" fill="none" stroke="#0a290a" stroke-width="5" stroke-linecap="round"/><path d="M593.84723,308.73623v18" fill="none" stroke="#0a290a" stroke-width="5" stroke-linecap="round"/><path d="M612.34723,308.23771v20.5" fill="none" stroke="#0a290a" stroke-width="5" stroke-linecap="round"/><path d="M632.34723,309.73771v19.5" fill="none" stroke="#0a290a" stroke-width="5" stroke-linecap="round"/><path d="M455.34732,308.23623v17.5" fill="none" stroke="#0a290a" stroke-width="5" stroke-linecap="round"/><path d="M475.34732,307.73623v18" fill="none" stroke="#0a290a" stroke-width="5" stroke-linecap="round"/><path d="M494.84732,308.73623v18" fill="none" stroke="#0a290a" stroke-width="5" stroke-linecap="round"/><path d="M513.34723,326.73623v-20.5" fill="none" stroke="#0a290a" stroke-width="5" stroke-linecap="round"/><path d="M533.34723,326.73623v-19.5" fill="none" stroke="#0a290a" stroke-width="5" stroke-linecap="round"/><path d="M354.34736,308.23623v17.5" fill="none" stroke="#0a290a" stroke-width="5" stroke-linecap="round"/><path d="M377.34736,307.23623v18" fill="none" stroke="#0a290a" stroke-width="5" stroke-linecap="round"/><path d="M397.34732,307.23623v18" fill="none" stroke="#0a290a" stroke-width="5" stroke-linecap="round"/><path d="M416.34732,304.73623v20.5" fill="none" stroke="#0a290a" stroke-width="5" stroke-linecap="round"/><path d="M436.34732,305.73623v19.5" fill="none" stroke="#0a290a" stroke-width="5" stroke-linecap="round"/><path d="M465.84732,26.48622l-13,13" fill="none" stroke="#0a290a" stroke-width="5" stroke-linecap="round"/><path d="M332.84722,307.23623v18" fill="none" stroke="#0a290a" stroke-width="5" stroke-linecap="round"/><path d="M308.09722,327.23623l-16.25,-16.25" fill="none" stroke="#0a290a" stroke-width="5" stroke-linecap="round"/><path d="M391.32413,153.3841l7.66667,-6.91786h46v6.91786z" fill="#0a290a" stroke="#000000" stroke-width="2" stroke-linecap="butt"/><path d="M296.42475,237.11812l3.79474,-1.25l2.71053,2.25l0.27105,2.75l2.43948,-1.5l0.27105,2.75l3.52369,0.25l-0.27105,3l2.71053,0.75" fill="none" stroke="#000000" stroke-width="2" stroke-linecap="round"/><path d="M295.54187,243.41657l2.33238,1.94121l2.74689,-2.1689l2.32945,2.98917l2.8257,-1.52378l-0.00876,3.14389l2.82571,-1.52378l3.78609,0.97791l1.03629,4.19477" data-paper-data="{&quot;index&quot;:null}" fill="none" stroke="#000000" stroke-width="2" stroke-linecap="round"/><path d="M175.31753,234.85854l5.81747,-5.21424l2.3426,-8.44815l21.06286,12.58012l2.92116,10.6266l-11.08124,3.03579z" fill="#676767" stroke="#000000" stroke-width="0" stroke-linecap="butt"/><path d="M173.77999,213.14903l-7.41736,2.62114l-5.42378,6.96564l-14.77961,-19.79677l1.35966,-11.01423l11.48149,1.42746z" data-paper-data="{&quot;index&quot;:null}" fill="#676767" stroke="#000000" stroke-width="0" stroke-linecap="butt"/><path d="M166.01594,294.44595c0,0 0,-46.66347 0,-57.57784c0,-4.33636 -0.75,-11.08883 -0.75,-11.08883l9.91667,5c0,0 -2.5,4.03231 -2.5,7.08883c0,9.31716 0,56.57784 0,56.57784z" fill="url(#color-12)" stroke="none" stroke-width="0" stroke-linecap="butt"/><path d="M164.84932,224.86261c0,-3.86599 3.13401,-7 7,-7c3.86599,0 7,3.13401 7,7c0,3.86599 -3.13401,7 -7,7c-3.86599,0 -7,-3.13401 -7,-7z" fill="#7f0000" stroke="#000000" stroke-width="3" stroke-linecap="butt"/><path d="M157.56511,212.43732l-2.89251,-11.57005l10.64605,6.38763z" fill="url(#color-13)" stroke="#000000" stroke-width="2" stroke-linecap="round"/><g data-paper-data="{&quot;index&quot;:null}" stroke-width="0.75"><path d="M189.39878,237.02335l5.19191,3.09233" fill="none" stroke="#4c4c4c" stroke-linecap="round"/><path d="M188.58813,235.98825l1.30756,0.77877l-0.49572,0.76716l-1.30755,-0.77878c0,0 -0.06988,-0.43676 0.01614,-0.56988c0.07853,-0.12152 0.47957,-0.19728 0.47957,-0.19728z" fill="#808080" stroke="#000000" stroke-linecap="butt"/><path d="M195.21821,236.34012c0,0 2.49914,-1.59688 3.30647,-1.11603c0.97657,0.58165 3.40521,2.02816 4.9641,2.95664c0.82055,0.48872 0.71796,1.88965 0.278,2.57052c-0.37424,0.57917 -1.11353,1.72328 -1.75335,2.71344c-0.62626,0.96919 -1.63202,1.50807 -2.43006,1.03276c-1.55691,-0.9273 -4.10592,-2.44549 -5.09139,-3.03245c-0.80732,-0.48084 -0.46229,-3.28556 -0.46229,-3.28556z" fill="#4f4f4f" stroke="#000000" stroke-linecap="butt"/><path d="M185.57606,227.30838c0.28356,0.16889 0.61211,0.36458 0.78382,0.46685c0.26384,0.15714 0.47576,0.68621 0.30951,0.94349c-0.45607,0.7058 -2.55583,3.95534 -3.45412,5.3455c-0.24676,0.38188 -0.85649,0.41972 -1.04353,0.30832c-0.17741,-0.10567 -0.52295,-0.31148 -0.83787,-0.49904c-0.35086,-0.20897 -0.44838,-0.72855 -0.24662,-1.04078c0.49355,-0.76381 2.57606,-3.98668 3.43734,-5.31957c0.22941,-0.35503 0.69163,-0.41907 1.05147,-0.20476z" fill="url(#color-14)" stroke="#000000" stroke-linecap="butt"/><path d="M185.48704,230.8191l9.53961,5.68183l-0.91652,1.41839l-9.53961,-5.68183z" fill="#5b2a0d" stroke="#000000" stroke-linecap="butt"/><path d="M197.66283,236.7522l5.02306,2.99175l-2.17346,3.36362l-5.02307,-2.99176z" fill="#ffffff" stroke="#000000" stroke-linecap="butt"/></g><path d="M406.34732,18.73622v17.5" fill="none" stroke="#0a290a" stroke-width="5" stroke-linecap="round"/><path d="M426.34732,18.23622v18" fill="none" stroke="#0a290a" stroke-width="5" stroke-linecap="round"/><path d="M328.34722,35.23622v-18" fill="none" stroke="#0a290a" stroke-width="5" stroke-linecap="round"/><path d="M348.34736,35.73622v-18" fill="none" stroke="#0a290a" stroke-width="5" stroke-linecap="round"/><path d="M367.34736,16.73622v20.5" fill="none" stroke="#0a290a" stroke-width="5" stroke-linecap="round"/><path d="M387.34736,37.73622v-19.5" fill="none" stroke="#0a290a" stroke-width="5" stroke-linecap="round"/><path d="M199.84731,35.23622v-17.5" fill="none" stroke="#0a290a" stroke-width="5" stroke-linecap="round"/><path d="M179.84731,17.73622v18" fill="none" stroke="#0a290a" stroke-width="5" stroke-linecap="round"/><path d="M159.84725,36.23622v-18" fill="none" stroke="#0a290a" stroke-width="5" stroke-linecap="round"/><path d="M139.84725,18.23622v20.5" fill="none" stroke="#0a290a" stroke-width="5" stroke-linecap="round"/><path d="M277.34722,37.23622v-18" fill="none" stroke="#0a290a" stroke-width="5" stroke-linecap="round"/><path d="M257.84722,36.23622v-18" fill="none" stroke="#0a290a" stroke-width="5" stroke-linecap="round"/><path d="M238.84731,18.73622v20.5" fill="none" stroke="#0a290a" stroke-width="5" stroke-linecap="round"/><path d="M218.84731,18.23622v19.5" fill="none" stroke="#0a290a" stroke-width="5" stroke-linecap="round"/><path d="M110.87149,39.21701l-12.5,-12.5" fill="none" stroke="#0a290a" stroke-width="5" stroke-linecap="round"/><path d="M105.87149,55.61701h-17" fill="none" stroke="#0a290a" stroke-width="5" stroke-linecap="round"/><path d="M104.87149,90.21701l-14.5,-14.5" fill="none" stroke="#0a290a" stroke-width="5" stroke-linecap="round"/><path d="M68.87145,77.21701v16.5" fill="none" stroke="#0a290a" stroke-width="5" stroke-linecap="round"/><path d="M187.87149,326.48623l14,-14" fill="none" stroke="#0a290a" stroke-width="5" stroke-linecap="round"/><path d="M165.37143,327.48623v-18.5" fill="none" stroke="#0a290a" stroke-width="5" stroke-linecap="round"/><path d="M138.87143,308.98623v18.5" fill="none" stroke="#0a290a" stroke-width="5" stroke-linecap="round"/><path d="M94.37149,319.48623l16,-16" fill="none" stroke="#0a290a" stroke-width="5" stroke-linecap="round"/><path d="M101.37149,267.48623l-14.5,14.5" fill="none" stroke="#0a290a" stroke-width="5" stroke-linecap="round"/><path d="M65.87148,258.48623l-14.5,14.5" fill="none" stroke="#0a290a" stroke-width="5" stroke-linecap="round"/><path d="M58.87148,201.48623l-16.25,16.25" fill="none" stroke="#0a290a" stroke-width="5" stroke-linecap="round"/><path d="M41.87146,237.98623h20.5" fill="none" stroke="#0a290a" stroke-width="5" stroke-linecap="round"/><path d="M-180.56305,364.99002v-369.40145h189.99842v369.40145z" fill="#000000" stroke="#000000" stroke-width="1" stroke-linecap="butt"/><path d="M9.85175,364.90685v-367.16453h122.29955v367.16453z" fill="url(#color-15)" stroke="none" stroke-width="0" stroke-linecap="butt"/><path d="M202.19343,322.29465h15.1v37.56471h-15.1z" fill="#0a290a" stroke="#000000" stroke-width="4.5" stroke-linecap="butt"/><path d="M219.87649,321.62949v-4.01681h25.90518l5.55197,4.01681z" fill="#0a290a" stroke="#000000" stroke-width="1" stroke-linecap="butt"/><path d="M279.39341,324.49467h15.1v39.73138h-15.1z" fill="#0a290a" stroke="#000000" stroke-width="4.5" stroke-linecap="butt"/><path d="M296.95235,305.10047c0,0 -3,-3.1435 -3,-4.89251c0,-2.02229 0,-6.54082 0,-6.54082h23.15c0,0 0,4.49179 0,6.54082c0,1.6942 -3.5,4.89251 -3.5,4.89251z" fill="#000000" stroke="#000000" stroke-width="2" stroke-linecap="butt"/><path d="M307.09628,342.62773h-14.75" fill="none" stroke="#0a290a" stroke-width="5" stroke-linecap="round"/><path d="M189.59628,347.12773h14.5" fill="none" stroke="#0a290a" stroke-width="5" stroke-linecap="round"/><path d="M310.19444,294.3407v-171h6.08333v171z" fill="#0e0e0e" stroke="#000000" stroke-width="3" stroke-linecap="butt"/><path d="M309.73149,80.96801v-28.66667h7.33333v28.66667z" fill="#0e0e0e" stroke="#000000" stroke-width="3" stroke-linecap="butt"/><path d="M332.32007,262.9668l7.27284,21.43199l-18.3603,-13.89201l0.96013,-9.36804z" fill="#082208" stroke="#000000" stroke-width="2.5" stroke-linecap="butt"/></g></g></svg>