<svg version="1.1" xmlns="http://www.w3.org/2000/svg" xmlns:xlink="http://www.w3.org/1999/xlink" width="151.30701" height="14.59206" viewBox="0,0,151.30701,14.59206"><defs><linearGradient x1="157.78183" y1="269.21452" x2="157.78183" y2="279.94786" gradientUnits="userSpaceOnUse" id="color-1"><stop offset="0" stop-color="#808080"/><stop offset="1" stop-color="#3e3e3e"/></linearGradient><linearGradient x1="133.45726" y1="269.10738" x2="133.45726" y2="279.84072" gradientUnits="userSpaceOnUse" id="color-2"><stop offset="0" stop-color="#808080"/><stop offset="1" stop-color="#3e3e3e"/></linearGradient><linearGradient x1="145.30647" y1="269.20738" x2="145.30647" y2="279.94072" gradientUnits="userSpaceOnUse" id="color-3"><stop offset="0" stop-color="#808080"/><stop offset="1" stop-color="#3e3e3e"/></linearGradient><linearGradient x1="121.18183" y1="269.21452" x2="121.18183" y2="279.94786" gradientUnits="userSpaceOnUse" id="color-4"><stop offset="0" stop-color="#808080"/><stop offset="1" stop-color="#3e3e3e"/></linearGradient><linearGradient x1="96.85726" y1="269.10738" x2="96.85726" y2="279.84072" gradientUnits="userSpaceOnUse" id="color-5"><stop offset="0" stop-color="#808080"/><stop offset="1" stop-color="#3e3e3e"/></linearGradient><linearGradient x1="108.70647" y1="269.20738" x2="108.70647" y2="279.94072" gradientUnits="userSpaceOnUse" id="color-6"><stop offset="0" stop-color="#808080"/><stop offset="1" stop-color="#3e3e3e"/></linearGradient><linearGradient x1="83.58183" y1="269.21452" x2="83.58183" y2="279.94786" gradientUnits="userSpaceOnUse" id="color-7"><stop offset="0" stop-color="#808080"/><stop offset="1" stop-color="#3e3e3e"/></linearGradient><linearGradient x1="59.25726" y1="269.10738" x2="59.25726" y2="279.84072" gradientUnits="userSpaceOnUse" id="color-8"><stop offset="0" stop-color="#808080"/><stop offset="1" stop-color="#3e3e3e"/></linearGradient><linearGradient x1="71.10647" y1="269.20738" x2="71.10647" y2="279.94072" gradientUnits="userSpaceOnUse" id="color-9"><stop offset="0" stop-color="#808080"/><stop offset="1" stop-color="#3e3e3e"/></linearGradient><linearGradient x1="46.98183" y1="269.21452" x2="46.98183" y2="279.94786" gradientUnits="userSpaceOnUse" id="color-10"><stop offset="0" stop-color="#808080"/><stop offset="1" stop-color="#3e3e3e"/></linearGradient><linearGradient x1="22.65726" y1="269.10738" x2="22.65726" y2="279.84072" gradientUnits="userSpaceOnUse" id="color-11"><stop offset="0" stop-color="#808080"/><stop offset="1" stop-color="#3e3e3e"/></linearGradient><linearGradient x1="34.50647" y1="269.20738" x2="34.50647" y2="279.94072" gradientUnits="userSpaceOnUse" id="color-12"><stop offset="0" stop-color="#808080"/><stop offset="1" stop-color="#3e3e3e"/></linearGradient></defs><g transform="translate(-14.48007,-266.3558)"><g data-paper-data="{&quot;isPaintingLayer&quot;:true}" fill-rule="nonzero" stroke="#000000" stroke-width="2" stroke-linecap="butt" stroke-linejoin="miter" stroke-miterlimit="10" stroke-dasharray="" stroke-dashoffset="0" style="mix-blend-mode: normal"><path d="M161.00912,277.01733c0.66211,1.21134 2.37249,2.93053 2.37249,2.93053h-11.19955c0,0 1.5075,-1.37707 2.05532,-2.47968c0.97247,-1.9573 3.27746,-8.25366 3.27746,-8.25366c0,0 2.4139,5.82622 3.49429,7.80281z" data-paper-data="{&quot;index&quot;:null}" fill="url(#color-1)"/><path d="M136.68455,276.91019c0.66211,1.21134 2.37249,2.93053 2.37249,2.93053h-11.19955c0,0 1.5075,-1.37707 2.05532,-2.47968c0.97247,-1.9573 3.27746,-8.25366 3.27746,-8.25366c0,0 2.4139,5.82622 3.49429,7.80281z" data-paper-data="{&quot;index&quot;:null}" fill="url(#color-2)"/><path d="M148.53376,277.01019c0.66211,1.21134 2.37249,2.93053 2.37249,2.93053h-11.19955c0,0 1.5075,-1.37707 2.05532,-2.47968c0.97247,-1.9573 3.27746,-8.25366 3.27746,-8.25366c0,0 2.4139,5.82622 3.49429,7.80281z" data-paper-data="{&quot;index&quot;:null}" fill="url(#color-3)"/><path d="M124.40912,277.01733c0.66211,1.21134 2.37249,2.93053 2.37249,2.93053h-11.19955c0,0 1.5075,-1.37707 2.05532,-2.47968c0.97247,-1.9573 3.27746,-8.25366 3.27746,-8.25366c0,0 2.4139,5.82622 3.49429,7.80281z" data-paper-data="{&quot;index&quot;:null}" fill="url(#color-4)"/><path d="M100.08455,276.91019c0.66211,1.21134 2.37249,2.93053 2.37249,2.93053h-11.19955c0,0 1.5075,-1.37707 2.05532,-2.47968c0.97247,-1.9573 3.27746,-8.25366 3.27746,-8.25366c0,0 2.4139,5.82622 3.49429,7.80281z" data-paper-data="{&quot;index&quot;:null}" fill="url(#color-5)"/><path d="M111.93376,277.01019c0.66211,1.21134 2.37249,2.93053 2.37249,2.93053h-11.19955c0,0 1.5075,-1.37707 2.05532,-2.47968c0.97247,-1.9573 3.27746,-8.25366 3.27746,-8.25366c0,0 2.4139,5.82622 3.49429,7.80281z" data-paper-data="{&quot;index&quot;:null}" fill="url(#color-6)"/><path d="M86.80912,277.01733c0.66211,1.21134 2.37249,2.93053 2.37249,2.93053h-11.19955c0,0 1.5075,-1.37707 2.05532,-2.47968c0.97247,-1.9573 3.27746,-8.25366 3.27746,-8.25366c0,0 2.4139,5.82622 3.49429,7.80281z" data-paper-data="{&quot;index&quot;:null}" fill="url(#color-7)"/><path d="M62.48455,276.91019c0.66211,1.21134 2.37249,2.93053 2.37249,2.93053h-11.19955c0,0 1.5075,-1.37707 2.05532,-2.47968c0.97247,-1.9573 3.27746,-8.25366 3.27746,-8.25366c0,0 2.4139,5.82622 3.49429,7.80281z" data-paper-data="{&quot;index&quot;:null}" fill="url(#color-8)"/><path d="M74.33376,277.01019c0.66211,1.21134 2.37249,2.93053 2.37249,2.93053h-11.19955c0,0 1.5075,-1.37707 2.05532,-2.47968c0.97247,-1.9573 3.27746,-8.25366 3.27746,-8.25366c0,0 2.4139,5.82622 3.49429,7.80281z" data-paper-data="{&quot;index&quot;:null}" fill="url(#color-9)"/><path d="M50.20912,277.01733c0.66211,1.21134 2.37249,2.93053 2.37249,2.93053h-11.19955c0,0 1.5075,-1.37707 2.05532,-2.47968c0.97247,-1.9573 3.27746,-8.25366 3.27746,-8.25366c0,0 2.4139,5.82622 3.49429,7.80281z" data-paper-data="{&quot;index&quot;:null}" fill="url(#color-10)"/><path d="M25.88455,276.91019c0.66211,1.21134 2.37249,2.93053 2.37249,2.93053h-11.19955c0,0 1.5075,-1.37707 2.05532,-2.47968c0.97247,-1.9573 3.27746,-8.25366 3.27746,-8.25366c0,0 2.4139,5.82622 3.49429,7.80281z" data-paper-data="{&quot;index&quot;:null}" fill="url(#color-11)"/><path d="M37.73376,277.01019c0.66211,1.21134 2.37249,2.93053 2.37249,2.93053h-11.19955c0,0 1.5075,-1.37707 2.05532,-2.47968c0.97247,-1.9573 3.27746,-8.25366 3.27746,-8.25366c0,0 2.4139,5.82622 3.49429,7.80281z" data-paper-data="{&quot;index&quot;:null}" fill="url(#color-12)"/></g></g></svg>