<svg version="1.1" xmlns="http://www.w3.org/2000/svg" xmlns:xlink="http://www.w3.org/1999/xlink" width="98.50766" height="263.01765" viewBox="0,0,98.50766,263.01765"><defs><radialGradient cx="259.12157" cy="13.44999" r="23.25531" gradientUnits="userSpaceOnUse" id="color-1"><stop offset="0" stop-color="#ff0000"/><stop offset="1" stop-color="#ff0000" stop-opacity="0"/></radialGradient><radialGradient cx="258.68742" cy="13.88414" r="23.25531" gradientUnits="userSpaceOnUse" id="color-2"><stop offset="0" stop-color="#ff0000"/><stop offset="1" stop-color="#ff0000" stop-opacity="0"/></radialGradient><linearGradient x1="252.35638" y1="229.14786" x2="273.26072" y2="229.14786" gradientUnits="userSpaceOnUse" id="color-3"><stop offset="0" stop-color="#0d0d0d"/><stop offset="1" stop-color="#181818"/></linearGradient><linearGradient x1="218.6626" y1="229.90913" x2="244.67058" y2="229.90913" gradientUnits="userSpaceOnUse" id="color-4"><stop offset="0" stop-color="#0d0d0d"/><stop offset="1" stop-color="#181818"/></linearGradient><linearGradient x1="244.07557" y1="191.63047" x2="271.1092" y2="191.63047" gradientUnits="userSpaceOnUse" id="color-5"><stop offset="0" stop-color="#0d0d0d"/><stop offset="1" stop-color="#181818"/></linearGradient><linearGradient x1="226.74391" y1="192.07025" x2="255.01254" y2="192.07025" gradientUnits="userSpaceOnUse" id="color-6"><stop offset="0" stop-color="#0d0d0d"/><stop offset="1" stop-color="#181818"/></linearGradient><linearGradient x1="251.12912" y1="211.02733" x2="276.22186" y2="211.02733" gradientUnits="userSpaceOnUse" id="color-7"><stop offset="0" stop-color="#050505"/><stop offset="1" stop-color="#0b0b0b"/></linearGradient><linearGradient x1="225.0189" y1="212.44263" x2="248.13727" y2="212.44263" gradientUnits="userSpaceOnUse" id="color-8"><stop offset="0" stop-color="#050505"/><stop offset="1" stop-color="#0b0b0b"/></linearGradient><linearGradient x1="217.32136" y1="244.63277" x2="242.50009" y2="244.63277" gradientUnits="userSpaceOnUse" id="color-9"><stop offset="0" stop-color="#050505"/><stop offset="1" stop-color="#0b0b0b"/></linearGradient><linearGradient x1="219.2577" y1="229.9846" x2="243.45675" y2="229.9846" gradientUnits="userSpaceOnUse" id="color-10"><stop offset="0" stop-color="#050505"/><stop offset="1" stop-color="#0b0b0b"/></linearGradient><linearGradient x1="249.09742" y1="195.22344" x2="273.19831" y2="195.22344" gradientUnits="userSpaceOnUse" id="color-11"><stop offset="0" stop-color="#050505"/><stop offset="1" stop-color="#0b0b0b"/></linearGradient><linearGradient x1="224.46757" y1="195.86574" x2="251.19099" y2="195.86574" gradientUnits="userSpaceOnUse" id="color-12"><stop offset="0" stop-color="#050505"/><stop offset="1" stop-color="#0b0b0b"/></linearGradient><linearGradient x1="249.77767" y1="244.92476" x2="274.95628" y2="244.92476" gradientUnits="userSpaceOnUse" id="color-13"><stop offset="0" stop-color="#050505"/><stop offset="1" stop-color="#0b0b0b"/></linearGradient><linearGradient x1="251.08194" y1="230.3635" x2="272.55933" y2="230.3635" gradientUnits="userSpaceOnUse" id="color-14"><stop offset="0" stop-color="#050505"/><stop offset="1" stop-color="#0b0b0b"/></linearGradient><linearGradient x1="217.31868" y1="239.96973" x2="236.40885" y2="239.96973" gradientUnits="userSpaceOnUse" id="color-15"><stop offset="0" stop-color="#0d0d0d"/><stop offset="1" stop-color="#181818"/></linearGradient><linearGradient x1="249.27194" y1="240.68656" x2="268.50534" y2="240.68656" gradientUnits="userSpaceOnUse" id="color-16"><stop offset="0" stop-color="#0d0d0d"/><stop offset="1" stop-color="#181818"/></linearGradient><linearGradient x1="270.35785" y1="145.94693" x2="290.10064" y2="139.98979" gradientUnits="userSpaceOnUse" id="color-17"><stop offset="0" stop-color="#0d0d0d"/><stop offset="1" stop-color="#181818"/></linearGradient><linearGradient x1="223.14747" y1="175.49696" x2="273.22105" y2="175.49696" gradientUnits="userSpaceOnUse" id="color-18"><stop offset="0" stop-color="#050505"/><stop offset="1" stop-color="#0b0b0b"/></linearGradient><linearGradient x1="219.0521" y1="158.7986" x2="270.24523" y2="158.7986" gradientUnits="userSpaceOnUse" id="color-19"><stop offset="0" stop-color="#050505"/><stop offset="1" stop-color="#0b0b0b"/></linearGradient><linearGradient x1="217.48486" y1="147.09214" x2="271.93111" y2="147.09214" gradientUnits="userSpaceOnUse" id="color-20"><stop offset="0" stop-color="#050505"/><stop offset="1" stop-color="#0b0b0b"/></linearGradient><linearGradient x1="228.61792" y1="136.51033" x2="267.52853" y2="136.51033" gradientUnits="userSpaceOnUse" id="color-21"><stop offset="0" stop-color="#050505"/><stop offset="1" stop-color="#0b0b0b"/></linearGradient><linearGradient x1="225.88054" y1="116.40296" x2="258.60303" y2="116.40296" gradientUnits="userSpaceOnUse" id="color-22"><stop offset="0" stop-color="#050505"/><stop offset="1" stop-color="#0b0b0b"/></linearGradient><linearGradient x1="239.43651" y1="103.4355" x2="261.37793" y2="103.4355" gradientUnits="userSpaceOnUse" id="color-23"><stop offset="0" stop-color="#050505"/><stop offset="1" stop-color="#0b0b0b"/></linearGradient><linearGradient x1="260.25595" y1="138.54883" x2="288.64135" y2="130.52584" gradientUnits="userSpaceOnUse" id="color-24"><stop offset="0" stop-color="#050505"/><stop offset="1" stop-color="#0b0b0b"/></linearGradient><linearGradient x1="221.57634" y1="159.82092" x2="208.43826" y2="133.91198" gradientUnits="userSpaceOnUse" id="color-25"><stop offset="0" stop-color="#0d0d0d"/><stop offset="1" stop-color="#181818"/></linearGradient><linearGradient x1="195.23018" y1="139.00639" x2="231.88924" y2="130.78327" gradientUnits="userSpaceOnUse" id="color-26"><stop offset="0" stop-color="#050505"/><stop offset="1" stop-color="#0b0b0b"/></linearGradient><linearGradient x1="224.76826" y1="172.53316" x2="269.71452" y2="172.53316" gradientUnits="userSpaceOnUse" id="color-27"><stop offset="0" stop-color="#0d0d0d"/><stop offset="1" stop-color="#181818"/></linearGradient><linearGradient x1="254.00965" y1="116.36845" x2="251.06186" y2="124.01949" gradientUnits="userSpaceOnUse" id="color-28"><stop offset="0" stop-color="#ff0000"/><stop offset="1" stop-color="#b50a0a"/></linearGradient><radialGradient cx="252.68175" cy="120.51184" r="13.89578" gradientUnits="userSpaceOnUse" id="color-29"><stop offset="0" stop-color="#b50a0a"/><stop offset="1" stop-color="#b50a0a" stop-opacity="0"/></radialGradient><linearGradient x1="241.66072" y1="166.46621" x2="237.25959" y2="144.07426" gradientUnits="userSpaceOnUse" id="color-30"><stop offset="0" stop-color="#0d0d0d"/><stop offset="1" stop-color="#181818"/></linearGradient><linearGradient x1="221.57795" y1="168.72824" x2="234.16241" y2="147.96618" gradientUnits="userSpaceOnUse" id="color-31"><stop offset="0" stop-color="#050505"/><stop offset="1" stop-color="#0b0b0b"/></linearGradient><linearGradient x1="275.06896" y1="148.76905" x2="275.71349" y2="164.72399" gradientUnits="userSpaceOnUse" id="color-32"><stop offset="0" stop-color="#0d0d0d"/><stop offset="1" stop-color="#181818"/></linearGradient><linearGradient x1="273.15235" y1="146.66899" x2="292.63069" y2="157.67159" gradientUnits="userSpaceOnUse" id="color-33"><stop offset="0" stop-color="#050505"/><stop offset="1" stop-color="#0b0b0b"/></linearGradient><radialGradient cx="263.1408" cy="43.81118" r="12.91056" gradientUnits="userSpaceOnUse" id="color-34"><stop offset="0" stop-color="#b50a0a"/><stop offset="1" stop-color="#b50a0a" stop-opacity="0"/></radialGradient><radialGradient cx="263.22598" cy="47.66867" r="12.91057" gradientUnits="userSpaceOnUse" id="color-35"><stop offset="0" stop-color="#b50a0a"/><stop offset="1" stop-color="#b50a0a" stop-opacity="0"/></radialGradient><radialGradient cx="263.09812" cy="51.78963" r="12.91057" gradientUnits="userSpaceOnUse" id="color-36"><stop offset="0" stop-color="#b50a0a"/><stop offset="1" stop-color="#b50a0a" stop-opacity="0"/></radialGradient><radialGradient cx="263.18327" cy="55.6472" r="12.91057" gradientUnits="userSpaceOnUse" id="color-37"><stop offset="0" stop-color="#b50a0a"/><stop offset="1" stop-color="#b50a0a" stop-opacity="0"/></radialGradient><radialGradient cx="263.2401" cy="58.21885" r="12.91057" gradientUnits="userSpaceOnUse" id="color-38"><stop offset="0" stop-color="#b50a0a"/><stop offset="1" stop-color="#b50a0a" stop-opacity="0"/></radialGradient><radialGradient cx="263.32531" cy="62.07632" r="12.91057" gradientUnits="userSpaceOnUse" id="color-39"><stop offset="0" stop-color="#b50a0a"/><stop offset="1" stop-color="#b50a0a" stop-opacity="0"/></radialGradient><radialGradient cx="263.19744" cy="66.19731" r="12.91057" gradientUnits="userSpaceOnUse" id="color-40"><stop offset="0" stop-color="#b50a0a"/><stop offset="1" stop-color="#b50a0a" stop-opacity="0"/></radialGradient><radialGradient cx="263.28259" cy="70.05487" r="12.91057" gradientUnits="userSpaceOnUse" id="color-41"><stop offset="0" stop-color="#b50a0a"/><stop offset="1" stop-color="#b50a0a" stop-opacity="0"/></radialGradient><radialGradient cx="261.32989" cy="14.45735" r="12.91057" gradientUnits="userSpaceOnUse" id="color-42"><stop offset="0" stop-color="#b50a0a"/><stop offset="1" stop-color="#b50a0a" stop-opacity="0"/></radialGradient><radialGradient cx="262.6282" cy="18.32676" r="12.91057" gradientUnits="userSpaceOnUse" id="color-43"><stop offset="0" stop-color="#b50a0a"/><stop offset="1" stop-color="#b50a0a" stop-opacity="0"/></radialGradient><radialGradient cx="261.69156" cy="22.43983" r="12.91057" gradientUnits="userSpaceOnUse" id="color-44"><stop offset="0" stop-color="#b50a0a"/><stop offset="1" stop-color="#b50a0a" stop-opacity="0"/></radialGradient><radialGradient cx="263.19206" cy="26.31122" r="12.91056" gradientUnits="userSpaceOnUse" id="color-45"><stop offset="0" stop-color="#b50a0a"/><stop offset="1" stop-color="#b50a0a" stop-opacity="0"/></radialGradient><radialGradient cx="262.25904" cy="26.71322" r="12.91057" gradientUnits="userSpaceOnUse" id="color-46"><stop offset="0" stop-color="#b50a0a"/><stop offset="1" stop-color="#b50a0a" stop-opacity="0"/></radialGradient><radialGradient cx="263.33621" cy="32.52436" r="12.91057" gradientUnits="userSpaceOnUse" id="color-47"><stop offset="0" stop-color="#b50a0a"/><stop offset="1" stop-color="#b50a0a" stop-opacity="0"/></radialGradient><radialGradient cx="262.22056" cy="34.25983" r="12.91057" gradientUnits="userSpaceOnUse" id="color-48"><stop offset="0" stop-color="#b50a0a"/><stop offset="1" stop-color="#b50a0a" stop-opacity="0"/></radialGradient><radialGradient cx="263.29137" cy="40.7189" r="12.91057" gradientUnits="userSpaceOnUse" id="color-49"><stop offset="0" stop-color="#b50a0a"/><stop offset="1" stop-color="#b50a0a" stop-opacity="0"/></radialGradient><radialGradient cx="263.58344" cy="103.49925" r="12.91057" gradientUnits="userSpaceOnUse" id="color-50"><stop offset="0" stop-color="#b50a0a"/><stop offset="1" stop-color="#b50a0a" stop-opacity="0"/></radialGradient><radialGradient cx="263.66864" cy="107.35675" r="12.91057" gradientUnits="userSpaceOnUse" id="color-51"><stop offset="0" stop-color="#b50a0a"/><stop offset="1" stop-color="#b50a0a" stop-opacity="0"/></radialGradient><radialGradient cx="263.5408" cy="111.47765" r="12.91057" gradientUnits="userSpaceOnUse" id="color-52"><stop offset="0" stop-color="#b50a0a"/><stop offset="1" stop-color="#b50a0a" stop-opacity="0"/></radialGradient><radialGradient cx="263.62602" cy="115.33513" r="12.91058" gradientUnits="userSpaceOnUse" id="color-53"><stop offset="0" stop-color="#b50a0a"/><stop offset="1" stop-color="#b50a0a" stop-opacity="0"/></radialGradient><radialGradient cx="263.6828" cy="117.90688" r="12.91057" gradientUnits="userSpaceOnUse" id="color-54"><stop offset="0" stop-color="#b50a0a"/><stop offset="1" stop-color="#b50a0a" stop-opacity="0"/></radialGradient><radialGradient cx="263.768" cy="121.76434" r="12.91057" gradientUnits="userSpaceOnUse" id="color-55"><stop offset="0" stop-color="#b50a0a"/><stop offset="1" stop-color="#b50a0a" stop-opacity="0"/></radialGradient><radialGradient cx="263.64011" cy="125.88532" r="12.91057" gradientUnits="userSpaceOnUse" id="color-56"><stop offset="0" stop-color="#b50a0a"/><stop offset="1" stop-color="#b50a0a" stop-opacity="0"/></radialGradient><radialGradient cx="263.72533" cy="129.74279" r="12.91057" gradientUnits="userSpaceOnUse" id="color-57"><stop offset="0" stop-color="#b50a0a"/><stop offset="1" stop-color="#b50a0a" stop-opacity="0"/></radialGradient><radialGradient cx="263.59222" cy="74.16327" r="12.91058" gradientUnits="userSpaceOnUse" id="color-58"><stop offset="0" stop-color="#b50a0a"/><stop offset="1" stop-color="#b50a0a" stop-opacity="0"/></radialGradient><radialGradient cx="263.67742" cy="78.02076" r="12.91057" gradientUnits="userSpaceOnUse" id="color-59"><stop offset="0" stop-color="#b50a0a"/><stop offset="1" stop-color="#b50a0a" stop-opacity="0"/></radialGradient><radialGradient cx="263.54955" cy="82.14174" r="12.91057" gradientUnits="userSpaceOnUse" id="color-60"><stop offset="0" stop-color="#b50a0a"/><stop offset="1" stop-color="#b50a0a" stop-opacity="0"/></radialGradient><radialGradient cx="263.63477" cy="85.99922" r="12.91057" gradientUnits="userSpaceOnUse" id="color-61"><stop offset="0" stop-color="#b50a0a"/><stop offset="1" stop-color="#b50a0a" stop-opacity="0"/></radialGradient><radialGradient cx="263.69151" cy="88.57094" r="12.91058" gradientUnits="userSpaceOnUse" id="color-62"><stop offset="0" stop-color="#b50a0a"/><stop offset="1" stop-color="#b50a0a" stop-opacity="0"/></radialGradient><radialGradient cx="263.77673" cy="92.42844" r="12.91057" gradientUnits="userSpaceOnUse" id="color-63"><stop offset="0" stop-color="#b50a0a"/><stop offset="1" stop-color="#b50a0a" stop-opacity="0"/></radialGradient><radialGradient cx="263.64885" cy="96.5494" r="12.91057" gradientUnits="userSpaceOnUse" id="color-64"><stop offset="0" stop-color="#b50a0a"/><stop offset="1" stop-color="#b50a0a" stop-opacity="0"/></radialGradient><radialGradient cx="263.73404" cy="100.40689" r="12.91057" gradientUnits="userSpaceOnUse" id="color-65"><stop offset="0" stop-color="#b50a0a"/><stop offset="1" stop-color="#b50a0a" stop-opacity="0"/></radialGradient><linearGradient x1="258.10648" y1="70.07319" x2="266.35059" y2="70.15373" gradientUnits="userSpaceOnUse" id="color-66"><stop offset="0" stop-color="#400000"/><stop offset="1" stop-color="#ff0000"/></linearGradient><linearGradient x1="261.69057" y1="129.34666" x2="261.64706" y2="133.8011" gradientUnits="userSpaceOnUse" id="color-67"><stop offset="0" stop-color="#0d0d0d"/><stop offset="1" stop-color="#181818"/></linearGradient><linearGradient x1="263.53932" y1="166.02979" x2="261.38111" y2="147.5922" gradientUnits="userSpaceOnUse" id="color-68"><stop offset="0" stop-color="#050505"/><stop offset="1" stop-color="#0b0b0b"/></linearGradient><linearGradient x1="249.55853" y1="137.71866" x2="260.98955" y2="155.76687" gradientUnits="userSpaceOnUse" id="color-69"><stop offset="0" stop-color="#050505"/><stop offset="1" stop-color="#0b0b0b"/></linearGradient></defs><g transform="translate(-195.8692,9.80532)"><g data-paper-data="{&quot;isPaintingLayer&quot;:true}" fill-rule="nonzero" stroke-linejoin="miter" stroke-miterlimit="10" stroke-dasharray="" stroke-dashoffset="0" style="mix-blend-mode: normal"><path d="M235.86627,13.44999c0,-12.84356 10.41176,-23.25531 23.25531,-23.25531c12.84356,0 23.25531,10.41176 23.25531,23.25531c0,12.84356 -10.41176,23.25531 -23.25531,23.25531c-12.84356,0 -23.25531,-10.41176 -23.25531,-23.25531z" fill="url(#color-1)" stroke="none" stroke-width="0" stroke-linecap="butt"/><path d="M235.43212,13.88414c0,-12.84355 10.41176,-23.25531 23.25532,-23.25531c12.84356,0 23.25531,10.41176 23.25531,23.25531c0,12.84355 -10.41175,23.25531 -23.25531,23.25531c-12.84356,0 -23.25532,-10.41176 -23.25532,-23.25531z" fill="url(#color-2)" stroke="none" stroke-width="0" stroke-linecap="butt"/><g><path d="M212.89085,227.89566l52.53615,-114.7469l11.87672,5.66982l-52.53615,114.74691c0,0 -5.13711,2.6005 -8.0106,1.22873c-2.87349,-1.37177 -3.86612,-6.89855 -3.86612,-6.89855z" fill="#0d0d0d" stroke="#000000" stroke-width="2.5" stroke-linecap="butt"/><path d="M251.62993,174.61774l-7.20177,-3.33553l12.89739,-27.84686l4.13357,-1.58417l7.55385,-16.30957l-1.64904,-4.172l-4.22396,-1.82371l2.08759,-4.71608l11.42707,5.09812z" fill="#050505" stroke="#000000" stroke-width="2.5" stroke-linecap="round"/><path d="M261.67557,114.02333c0,0 -0.40317,-1.69388 -0.03147,-2.48904c0.3717,-0.79516 2.00437,-1.73149 2.00437,-1.73149l18.83486,8.64396c0,0 0.38908,1.72406 -0.03654,2.63458c-0.42562,0.91052 -1.93635,1.58594 -1.93635,1.58594z" fill="#000000" stroke="none" stroke-width="0" stroke-linecap="butt"/><path d="M281.43432,120.07665l1.4796,7.30806l-3.42279,7.80931c0,0 -2.46812,-0.11636 -3.60999,-0.64522c-1.29898,-0.60163 -3.77348,-2.77446 -3.77348,-2.77446" fill="none" stroke="#000000" stroke-width="3.5" stroke-linecap="round"/><path d="M278.30207,128.92243c0,0 -1.80801,0.68796 -2.73306,0.68428c-1.01281,-0.00403 -3.10442,-0.7075 -3.10442,-0.7075" fill="none" stroke="#000000" stroke-width="2.5" stroke-linecap="round"/><path d="M237.61577,174.4373l5.3354,2.47111l-6.36998,13.75347l-7.83834,2.77755z" fill="#050505" stroke="#000000" stroke-width="2.5" stroke-linecap="round"/><path d="M224.47855,233.89269c0,0 -5.11706,2.79324 -7.9861,1.2012c-2.86904,-1.59205 -3.46032,-7.55288 -3.46032,-7.55288l0.63808,-1.38138l4.30192,1.98732l4.40195,-1.36953l6.91124,-14.9221l-1.55944,-4.25021l4.00869,-8.6552l1.73478,-0.63651l8.31259,-2.55789z" fill="#070707" stroke="#000000" stroke-width="2.5" stroke-linecap="round"/></g><path d="M255.65015,181.45542c0,0 -0.41051,-1.17204 -0.5048,-1.70293c-0.15251,-0.85865 -0.04699,-2.95687 -0.04699,-2.95687c0,0 3.01256,-0.2071 4.41421,-0.2071c1.35568,0 3.86244,0.2071 3.86244,0.2071c0,0 0.55176,1.37226 0.55176,2.07103c0,0.71602 -0.27589,2.17457 -0.27589,2.17457c0,0 -2.39944,0.70559 -3.40591,0.75955c-1.422,0.07626 -4.59488,-0.34534 -4.59488,-0.34534z" fill="#060606" stroke="#000000" stroke-width="2" stroke-linecap="butt"/><path d="M252.35638,245.73396c0,0 0.19852,-8.55104 1.38882,-13.71339c1.44892,-6.28392 0.25938,-22.16945 0.25938,-22.16945l19.25626,5.39709c0,0 -5.15498,12.92962 -6.70139,19.15803c-0.74304,2.99272 -2.49826,8.70797 -3.3447,11.54434c-0.64844,2.17292 1.56926,2.49403 1.56926,2.49403c0,0 -5.9345,-1.99421 -8.389,-2.36376c-2.21524,-0.33353 -4.03864,-0.34687 -4.03864,-0.34687z" fill="url(#color-3)" stroke="#000000" stroke-width="2" stroke-linecap="butt"/><path d="M218.6626,245.73644c0,0 2.07196,-9.30716 3.85733,-14.10013c2.17321,-5.83426 4.3477,-19.69113 4.3477,-19.69113c0,0 9.12123,-1.06136 11.26208,-0.25779c3.28691,1.23373 6.54087,6.94003 6.54087,6.94003c0,0 -6.2958,9.9344 -8.55943,15.70563c-1.08765,2.77304 -3.75473,8.89458 -4.92686,11.50795c-0.89798,2.00208 0.3869,2.59056 0.3869,2.59056c0,0 -5.6639,-2.51847 -8.05963,-3.12651c-2.16218,-0.54875 -4.84894,0.43137 -4.84894,0.43137z" fill="url(#color-4)" stroke="#000000" stroke-width="2" stroke-linecap="butt"/><path d="M253.70362,210.48007l-9.62808,-37.31619l24.62305,-0.38301l2.4107,35.75734z" data-paper-data="{&quot;index&quot;:null}" fill="url(#color-5)" stroke="#000000" stroke-width="2" stroke-linecap="butt"/><path d="M226.74391,210.72129l0.12798,-37.30209l28.14064,0.38301l-9.22714,36.63304z" fill="url(#color-6)" stroke="#000000" stroke-width="2" stroke-linecap="butt"/><path d="M256.43944,208.71775c1.98991,-1.30575 4.20666,-3.36318 6.8711,-4.14382c5.40805,-1.58446 9.08934,-1.78869 11.36065,2.5799c2.27132,4.36858 2.59415,9.54547 -2.81392,11.12993c-4.19261,1.22836 -11.08121,-2.70092 -14.85785,-5.34094c-0.72798,-0.50888 -3.79748,0.493 -5.15721,-0.05421c-0.68528,-0.27578 -0.34613,-1.25987 -0.51719,-1.58888c-1.15229,-2.21627 3.0654,-1.23744 5.11443,-2.582z" data-paper-data="{&quot;index&quot;:null}" fill="url(#color-7)" stroke="#000000" stroke-width="2" stroke-linecap="butt"/><path d="M230.66091,208.37642c2.19289,-0.90515 4.79846,-2.47105 7.47357,-2.78793c5.42971,-0.64317 8.74117,-0.47166 9.66315,3.91441c0.92198,4.38607 0.21212,9.38818 -5.21759,10.03134c-4.20938,0.4986 -8.86426,-3.85799 -11.64505,-6.87412c-0.32284,-0.35017 -4.07725,0.55348 -5.57462,-0.06951c-0.56679,-0.2358 -0.25091,-1.3674 -0.2764,-1.48866c-0.46774,-2.22513 3.31887,-1.79349 5.57694,-2.72553z" data-paper-data="{&quot;index&quot;:null}" fill="url(#color-8)" stroke="#000000" stroke-width="2" stroke-linecap="butt"/><path d="M217.78107,251.68747l-0.45973,-7.88836l2.57823,-6.4497l13.97429,2.9044l0.13771,3.18065c0,0 7.27072,5.05523 8.1505,5.19207c1.33914,0.20829 -1.73314,3.2896 -1.73314,3.2896z" fill="url(#color-9)" stroke="#000000" stroke-width="2" stroke-linecap="butt"/><path d="M223.63789,219.62334c0,0 7.32375,-0.14216 10.59776,0.51112c3.33128,0.66471 9.22112,3.44346 9.22112,3.44346l-7.46756,16.78102c0,0 -6.40088,-0.42925 -9.32051,-1.15302c-2.62642,-0.65106 -7.41097,-2.99461 -7.41097,-2.99461z" fill="url(#color-10)" stroke="#000000" stroke-width="2" stroke-linecap="butt"/><path d="M250.30265,202.52905l-1.18906,-5.30443l-0.01616,-6.15706c0,0 7.99965,-2.39951 11.69722,-2.92266c4.07035,-0.57588 11.71417,-0.38958 11.71417,-0.38958l0.68956,5.91016l-1.00554,5.49384c0,0 -6.76982,2.72798 -10.3972,3.28637c-3.66888,0.56477 -11.493,0.08335 -11.493,0.08335z" fill="url(#color-11)" stroke="#000000" stroke-width="2" stroke-linecap="butt"/><path d="M225.15571,201.30139l-0.68814,-5.29685l0.69148,-5.95494c0,0 9.01627,-1.18614 13.11628,-1.16787c4.51333,0.02011 12.84305,1.28353 12.84305,1.28353l0.07267,5.81168l-1.73131,5.16896c0,0 -7.71049,1.67797 -11.73785,1.70374c-4.07344,0.02606 -12.56614,-1.54824 -12.56614,-1.54824z" fill="url(#color-12)" stroke="#000000" stroke-width="2" stroke-linecap="butt"/><path d="M250.23738,251.97945l-0.45973,-7.88836l2.57824,-6.4497l13.69395,1.1617l0.41803,4.92337c0,0 7.27073,5.05523 8.1505,5.19207c1.33914,0.20829 -1.73314,3.2896 -1.73314,3.2896z" fill="url(#color-13)" stroke="#000000" stroke-width="2" stroke-linecap="butt"/><path d="M252.91708,221.00124c0,0 7.24515,-0.89217 10.59255,-0.57974c3.40593,0.31788 9.04974,2.47093 9.04974,2.47093l-5.48998,17.4161c0,0 -5.17448,0.23057 -8.18092,-0.18814c-2.70451,-0.37664 -7.80652,-2.21122 -7.80652,-2.21122z" fill="url(#color-14)" stroke="#000000" stroke-width="2" stroke-linecap="butt"/><path d="M228.84142,239.09443c2.55065,0.35142 7.06808,0.23899 7.06808,0.23899c0,0 0.59389,1.50881 0.48639,2.28905c-0.09993,0.7253 -0.85125,1.57395 -0.85125,1.57395c0,0 -5.10807,-0.07574 -7.86863,-0.45608c-3.01867,-0.4159 -9.33112,-2.47468 -9.33112,-2.47468c0,0 -1.13265,-1.62438 -1.01803,-2.45633c0.08289,-0.6016 1.8636,-1.06628 1.8636,-1.06628c0,0 6.51932,1.91993 9.65095,2.35139z" data-paper-data="{&quot;index&quot;:null}" fill="url(#color-15)" stroke="#000000" stroke-width="2" stroke-linecap="butt"/><path d="M260.83682,239.71927c2.56414,0.23343 7.07159,-0.08719 7.07159,-0.08719c0,0 0.66282,1.47981 0.59142,2.26418c-0.06637,0.72914 -0.77776,1.61154 -0.77776,1.61154c0,0 -5.10612,0.15989 -7.88129,-0.09275c-3.03464,-0.27625 -9.4353,-2.04176 -9.4353,-2.04176c0,0 -1.20636,-1.57041 -1.13022,-2.40678c0.05506,-0.60478 1.81244,-1.15108 1.81244,-1.15108c0,0 6.60092,1.61725 9.74911,1.90385z" data-paper-data="{&quot;index&quot;:null}" fill="url(#color-16)" stroke="#000000" stroke-width="2" stroke-linecap="butt"/><path d="M268.21081,138.82649c-1.51567,-5.31745 6.35043,-7.27336 11.51221,-8.75188c5.16177,-1.47851 11.30025,12.68815 12.81592,18.00561c1.51566,5.31745 -4.83036,5.48616 -9.99213,6.96468c-5.16177,1.47852 -12.82033,-10.90093 -14.33599,-16.21841z" data-paper-data="{&quot;index&quot;:null}" fill="url(#color-17)" stroke="#000000" stroke-width="2" stroke-linecap="butt"/><path d="M223.14747,184.84669l4.00039,-18.52536l39.31412,-2.06721l6.75928,20.59256c0,0 -12.04391,2.39249 -13.0729,1.7983c-1.12221,-0.64802 -3.86044,-13.29454 -4.49228,-13.18316c-1.00223,0.17666 -1.77827,13.08135 -2.90801,13.14121c-4.84922,0.25688 -10.05175,-0.04691 -12.56447,-0.04691c-9.23661,0 -17.03613,-1.70943 -17.03613,-1.70943z" fill="url(#color-18)" stroke="#000000" stroke-width="2" stroke-linecap="butt"/><path d="M270.16051,153.44189c0.41549,2.09214 -0.77823,0.21406 -1.8017,4.12045c-0.27856,1.06328 0.38855,11.18137 0.02358,12.1099c-1.30274,3.31458 -11.53288,1.66588 -11.53288,1.66588c0,0 -10.28101,0.68487 -17.71984,-0.03111c-7.0427,-0.67785 -12.49059,-1.60759 -12.49059,-1.60759c0,0 -2.3633,-5.19414 -3.38571,-7.68453c-1.02241,-2.49039 -3.19977,-7.14184 -4.20131,-11.34106c0,0 21.25847,-3.49429 36.50433,-4.77394c8.31938,-0.69827 14.29661,5.99373 14.6041,7.542z" fill="url(#color-19)" stroke="#000000" stroke-width="2" stroke-linecap="butt"/><path d="M271.84175,144.62294c0.41549,2.09213 -0.66581,10.24573 -2.21552,11.88678c-0.6796,0.71966 0.34261,3.84632 -1.74014,4.78794c-4.01228,1.81397 -12.57056,5.246 -12.57056,5.246c0,0 -15.46288,-3.80982 -24.69227,-4.77925c-5.59527,-0.58772 -1.11313,-3.6446 -4.47902,-5.17345c-1.78763,-0.81199 -6.23974,-1.18899 -6.38254,-1.47929c-1.20257,-2.44462 -0.78574,-0.66989 -1.78729,-4.86913c-1.05996,-4.44417 -0.06891,-3.86697 -0.06891,-6.75865c0,-8.52127 9.31125,-15.84333 9.31125,-15.84333l38.99422,5.21908c0,0 4.75979,7.37776 5.63076,11.76331z" fill="url(#color-20)" stroke="#000000" stroke-width="2" stroke-linecap="butt"/><path d="M234.321,141.47286c-1.59411,-0.0758 -4.8926,-0.15082 -5.55365,-1.24238c-0.74698,-1.23344 1.54076,-10.86086 1.70754,-11.6386c0.36477,-1.7009 22.92839,-0.58068 26.05515,-0.58068c1.6816,0 13.86237,3.6088 10.37372,7.20745c-0.94987,0.97982 0.76245,2.84793 -1.25676,3.83107c-4.34323,2.11469 -7.80272,5.56133 -9.82352,6.29386c-2.4811,0.41031 -21.00143,-3.84687 -21.50248,-3.8707z" fill="url(#color-21)" stroke="#000000" stroke-width="2" stroke-linecap="butt"/><path d="M239.27094,102.20845c2.28053,-0.10414 19.42058,3.03674 19.33192,4.32696c-0.47695,6.93933 -6.75003,24.06458 -16.00647,24.06458c-4.91206,0 -13.32723,-0.91598 -13.32723,-0.91598c0,0 -3.38866,-12.96426 -3.38866,-16.22545c0,-3.26119 13.39043,-11.25009 13.39043,-11.25009z" fill="url(#color-22)" stroke="#000000" stroke-width="2" stroke-linecap="butt"/><path d="M242.11505,95.21297c4.74337,-0.21357 17.56143,10.40572 17.50759,11.18931c-0.07474,1.08728 1.75543,2.39336 1.75543,2.39336l-11.28836,2.86556c0,0 0.8316,-5.16878 -0.82662,-6.67507c0,0 -2.6008,-1.42409 -5.75939,-1.8489c-1.54308,-0.20754 -4.30131,-0.92038 -4.05138,-1.23946c0.34411,-0.43928 4.1667,-1.94732 4.56366,-2.74593c0.59523,-1.1975 -1.90097,-3.93888 -1.90097,-3.93888z" fill="url(#color-23)" stroke="#000000" stroke-width="2" stroke-linecap="butt"/><path d="M231.69949,117.10758l1.45379,-2.00606c0,0 3.33643,1.84276 5.41314,1.04071c5.44136,-2.10151 8.23969,-3.65283 13.71828,-5.69913c3.02499,-1.12987 9.8708,-0.83887 9.8708,-0.83887c0,0 -0.34224,0.24977 -0.84083,3.45537c-0.4986,3.20561 -0.82733,5.36274 -0.82733,5.36274c0,0 -2.35056,8.19971 -5.03504,10.86326c-2.04878,2.0328 -4.74104,3.15363 -4.74104,3.15363l-11.88948,-2.90062c0,0 -0.92524,-5.47614 -2.10244,-7.35331z" fill="#000000" stroke="#000000" stroke-width="1.5" stroke-linecap="butt"/><path d="M280.77536,137.76934c-1.22299,-0.82166 -8.5243,2.17331 -8.7193,1.88696c-1.58544,-2.32809 -13.46059,-5.70634 -13.91677,-6.96974c-1.39221,-3.8558 0.69342,-5.36963 0.69342,-5.36963c0,0 0.5959,0.42374 2.29347,1.29433c2.09864,1.07629 12.35537,-2.1685 15.8591,-1.54773c6.50074,1.1518 11.46279,9.78319 12.06694,11.45637c0.60108,1.66472 4.51535,2.00997 2.95192,2.6603c-1.86568,0.77608 -6.21951,0.59039 -6.21951,0.59039c0,0 -2.20331,-2.11609 -5.00926,-4.00126z" data-paper-data="{&quot;index&quot;:null}" fill="url(#color-24)" stroke="#000000" stroke-width="2" stroke-linecap="butt"/><path d="M218.95517,137.21173c4.53422,6.85064 21.23683,12.4948 15.9706,16.68527c-5.26627,4.19046 -14.05322,17.21564 -18.58742,10.36499c-4.53421,-6.85064 -22.14731,-14.9699 -16.88107,-19.16035c5.26627,-4.19046 19.49789,-7.88992 19.49789,-7.88992z" data-paper-data="{&quot;index&quot;:null}" fill="url(#color-25)" stroke="#000000" stroke-width="2" stroke-linecap="butt"/><path d="M197.0619,147.11296c-0.61523,-1.72348 0.09241,-10.69765 4.33469,-15.15792c3.05929,-3.21644 16.03799,-5.81145 18.28342,-8.20739c1.81631,-1.93806 1.83683,-4.13043 1.83683,-4.13043c0,0 7.73122,1.78173 9.14899,5.75342c0.46455,1.30138 -0.91387,5.3857 -1.20829,8.34447c-0.03621,0.36392 -6.69422,1.99604 -7.8228,3.53974c-2.58939,3.54178 -2.56164,8.34534 -5.06967,9.09309c0,0 -6.60688,2.89992 -8.95068,3.37172c-5.42836,1.09275 -9.61477,0.02015 -10.55245,-2.6067z" fill="url(#color-26)" stroke="#000000" stroke-width="2" stroke-linecap="butt"/><path d="M259.74996,117.91588c0.19876,1.16981 -2.18343,6.49989 -2.18343,6.49989c0,0 -0.5794,2.50747 -2.29843,4.28616c-0.96659,1.1683 -4.37969,2.57042 -4.37969,2.57042c0,0 3.10555,-6.27437 4.73372,-11.49278c0.21787,-0.69828 0.63195,-1.20473 2.71571,-4.61229c1.81131,-2.96202 2.57551,-2.35613 2.57551,-2.35613c0,0 -0.92073,4.07766 -1.16338,5.1047z" fill="#000000" stroke="#000000" stroke-width="1.5" stroke-linecap="butt"/><path d="M224.76835,173.93617c0,0 -0.00748,-1.51106 0.12892,-2.27902c0.13942,-0.78492 0.69876,-2.38078 0.69876,-2.38078c0,0 7.15917,1.05794 15.2409,1.69654c6.02897,0.47638 12.81605,0.58161 16.2104,0.58161c5.33618,0 11.58731,-1.76037 11.58731,-1.76037c0,0 0.90416,1.1461 1.0271,1.68442c0.1482,0.64897 -0.06148,2.35409 -0.06148,2.35409c0,0 -6.75601,1.77632 -11.58634,1.78773c-3.6964,0.00873 -10.99143,0.3803 -17.80844,-0.00488c-8.05205,-0.45496 -15.43712,-1.6793 -15.43712,-1.6793z" fill="url(#color-27)" stroke="#000000" stroke-width="2" stroke-linecap="butt"/><path d="M249.03249,119.08665c0.81401,-2.11279 3.0424,-3.32974 4.9772,-2.7182c1.93483,0.61155 2.84342,2.82005 2.0294,4.93282c-0.81401,2.11279 -3.0424,3.32974 -4.97722,2.7182c-1.93483,-0.61155 -2.84341,-2.82005 -2.02938,-4.93282z" fill="url(#color-28)" stroke="#000000" stroke-width="0" stroke-linecap="butt"/><path d="M239.39012,120.51184c0,-6.31705 5.95087,-11.43802 13.29163,-11.43802c7.34076,0 13.29163,5.12098 13.29163,11.43802c0,6.31705 -5.95086,11.43803 -13.29163,11.43803c-7.34077,0 -13.29163,-5.12099 -13.29163,-11.43803z" fill="url(#color-29)" stroke="#000000" stroke-width="0" stroke-linecap="butt"/><path d="M244.32384,142.74655c5.5555,-1.09193 5.38061,-2.15554 6.73236,4.72185c1.35174,6.87739 -11.11384,19.3356 -16.66933,20.42753c-5.5555,1.09193 -6.72304,-5.84691 -8.07479,-12.72432c-1.35174,-6.87739 12.45626,-11.33316 18.01174,-12.42509z" fill="url(#color-30)" stroke="#000000" stroke-width="2" stroke-linecap="butt"/><path d="M231.10728,146.1144c1.0882,0.65958 0.91317,3.02034 1.55151,4.32387c2.2019,4.49642 4.16923,10.21072 1.3527,14.85749c-3.63306,5.99388 -9.84989,4.99849 -14.69167,2.06375c-4.8418,-2.93475 -3.86962,-5.60222 -0.23656,-11.59611c1.78994,-2.95307 5.06006,-5.29319 7.31105,-7.43873c2.31789,-2.20929 2.25662,-3.69914 4.71296,-2.21028z" fill="url(#color-31)" stroke="#000000" stroke-width="2" stroke-linecap="butt"/><path d="M282.23767,150.69942c1.47924,5.07977 4.15805,10.20997 0.72343,12.60747c-3.43462,2.39747 -14.38481,1.47711 -15.86405,-3.60266c-1.47924,-5.07977 -0.55242,-6.35043 2.88222,-8.74792c3.43462,-2.39747 10.77917,-5.33665 12.25842,-0.25687z" data-paper-data="{&quot;index&quot;:null}" fill="url(#color-32)" stroke="#000000" stroke-width="2" stroke-linecap="butt"/><path d="M276.87281,145.72378c2.5766,-0.27665 5.7914,-1.19156 8.68845,-0.58801c5.88014,1.22505 8.17704,2.2553 7.77001,7.83639c-0.40704,5.58108 -2.81566,10.91591 -8.69581,9.69086c-4.55857,-0.94973 -7.46887,-6.20387 -9.43434,-10.83009c-0.56981,-1.34116 -2.2624,-2.76859 -2.17091,-4.02293c0.20649,-2.8314 1.18944,-1.80137 3.84262,-2.08624z" data-paper-data="{&quot;index&quot;:null}" fill="url(#color-33)" stroke="#000000" stroke-width="2" stroke-linecap="butt"/><g><g stroke="none" stroke-width="0" stroke-linecap="butt"><g><g><g><path d="M245.43344,44.32145c-0.18507,-8.37974 5.44329,-15.33939 12.57131,-15.54478c7.12802,-0.20538 13.05644,6.42123 13.24151,14.80097c0.18507,8.37975 -5.44328,15.33939 -12.5713,15.54478c-7.12802,0.20538 -13.05644,-6.42122 -13.2415,-14.80096z" fill="url(#color-34)"/><path d="M245.51864,48.17891c-0.18507,-8.37974 5.44329,-15.33939 12.57131,-15.54478c7.12802,-0.20538 13.05643,6.42121 13.24149,14.80097c0.18507,8.37975 -5.44329,15.33938 -12.5713,15.54478c-7.12802,0.20539 -13.05643,-6.42122 -13.24151,-14.80096z" fill="url(#color-35)"/><path d="M245.39078,52.2999c-0.18507,-8.37974 5.4433,-15.33938 12.57132,-15.54477c7.12802,-0.20538 13.05644,6.42122 13.2415,14.80097c0.18507,8.37974 -5.44329,15.33939 -12.5713,15.54478c-7.12802,0.20539 -13.05644,-6.42122 -13.2415,-14.80097z" fill="url(#color-36)"/><path d="M245.47594,56.15746c-0.18507,-8.37974 5.44329,-15.33941 12.57131,-15.54478c7.12802,-0.20538 13.05644,6.42124 13.24151,14.80098c0.18507,8.37974 -5.44328,15.33939 -12.5713,15.54478c-7.12802,0.20539 -13.05644,-6.42123 -13.24153,-14.80095z" fill="url(#color-37)"/></g><g><path d="M245.53276,58.7291c-0.18507,-8.37974 5.44329,-15.3394 12.57131,-15.54477c7.12802,-0.20538 13.05642,6.42122 13.2415,14.80097c0.18507,8.37974 -5.4433,15.33938 -12.57131,15.54478c-7.12802,0.20539 -13.05642,-6.42122 -13.24149,-14.80096z" fill="url(#color-38)"/><path d="M245.61795,62.58658c-0.18507,-8.37974 5.44328,-15.33941 12.57131,-15.54479c7.12802,-0.20538 13.05642,6.42123 13.24149,14.80097c0.18507,8.37975 -5.44329,15.33939 -12.5713,15.54478c-7.12802,0.20539 -13.05643,-6.42121 -13.2415,-14.80097z" fill="url(#color-39)"/><path d="M245.49004,66.70763c-0.18507,-8.37974 5.4433,-15.3394 12.57132,-15.54478c7.12802,-0.20538 13.05643,6.42123 13.2415,14.80098c0.18507,8.37975 -5.44329,15.33938 -12.5713,15.54478c-7.12802,0.20539 -13.05643,-6.42122 -13.2415,-14.80097z" fill="url(#color-40)"/><path d="M245.57524,70.56512c-0.18507,-8.37974 5.44329,-15.3394 12.57131,-15.54478c7.12802,-0.20538 13.05644,6.42123 13.24152,14.80098c0.18507,8.37975 -5.44329,15.33938 -12.5713,15.54477c-7.12802,0.20539 -13.05644,-6.42124 -13.24153,-14.80097z" fill="url(#color-41)"/></g></g><g><g><path d="M243.62251,14.96763c-0.18507,-8.37974 5.44329,-15.33937 12.57131,-15.54477c7.12802,-0.20538 13.05644,6.42123 13.24151,14.80097c0.18507,8.37975 -5.4433,15.33941 -12.57132,15.54478c-7.12803,0.20538 -13.05643,-6.42123 -13.2415,-14.80099z" fill="url(#color-42)"/><path d="M244.92084,18.83702c-0.18507,-8.37974 5.44329,-15.33938 12.57131,-15.54477c7.12802,-0.20538 13.05643,6.42123 13.2415,14.80097c0.05874,2.65977 -0.46608,4.96053 -1.44076,7.16358c-2.09608,4.73778 -6.26499,8.241 -11.13054,8.3812c-7.12803,0.20538 -13.05644,-6.42123 -13.24149,-14.80097z" fill="url(#color-43)"/><path d="M243.9842,22.95009c-0.18507,-8.37974 5.44328,-15.3394 12.5713,-15.54479c7.12802,-0.20538 13.05643,6.42122 13.2415,14.80098c0.18507,8.37975 -5.4433,15.33939 -12.57132,15.54477c-7.12803,0.20538 -13.05643,-6.42121 -13.24149,-14.80096z" fill="url(#color-44)"/><path d="M245.48472,26.82147c-0.18507,-8.37975 5.4433,-15.33938 12.57132,-15.54477c7.12802,-0.20538 13.05644,6.42122 13.24152,14.80096c0.18507,8.37975 -5.44328,15.33941 -12.5713,15.54479c-7.12802,0.20538 -13.05645,-6.42122 -13.24152,-14.80099z" fill="url(#color-45)"/></g><g><path d="M244.55169,27.22348c-0.18507,-8.37975 5.44329,-15.33939 12.57131,-15.54477c7.12802,-0.20538 13.05643,6.42122 13.24152,14.80096c0.18507,8.37975 -5.4433,15.33939 -12.57131,15.54478c-7.12803,0.20538 -13.05645,-6.42121 -13.24151,-14.80097z" fill="url(#color-46)"/><path d="M245.62881,33.03469c-0.18507,-8.37975 5.44329,-15.3394 12.5713,-15.54478c7.12802,-0.20538 13.05643,6.42122 13.2415,14.80096c0.18507,8.37975 -5.4433,15.3394 -12.57131,15.54478c-7.12802,0.20538 -13.05643,-6.42121 -13.2415,-14.80097z" fill="url(#color-47)"/><path d="M244.5132,34.77007c-0.18507,-8.37975 5.44327,-15.33939 12.57131,-15.54478c7.12802,-0.20538 13.05642,6.42123 13.24149,14.80097c0.18507,8.37975 -5.44329,15.33939 -12.5713,15.54477c-7.12803,0.20538 -13.05644,-6.42122 -13.2415,-14.80096z" fill="url(#color-48)"/><path d="M245.58401,41.22913c-0.18507,-8.37974 5.44328,-15.3394 12.57131,-15.54478c7.12802,-0.20538 13.05642,6.42122 13.24149,14.80097c0.18507,8.37975 -5.44329,15.33939 -12.5713,15.54478c-7.12802,0.20538 -13.05644,-6.42122 -13.24151,-14.80097z" fill="url(#color-49)"/></g></g></g><g><g><g><path d="M245.87618,104.00935c-0.18507,-8.37974 5.44328,-15.33938 12.5713,-15.54478c7.12802,-0.20539 13.05643,6.42123 13.24151,14.80097c0.18507,8.37975 -5.44331,15.33939 -12.57132,15.54478c-7.12802,0.20539 -13.05644,-6.42122 -13.24149,-14.80097z" fill="url(#color-50)"/><path d="M245.96134,107.86693c-0.18507,-8.37974 5.44329,-15.3394 12.57131,-15.54479c7.12802,-0.20539 13.05644,6.42123 13.24149,14.80097c0.18507,8.37975 -5.4433,15.33939 -12.57131,15.54478c-7.12802,0.20539 -13.05643,-6.42123 -13.24151,-14.80097z" fill="url(#color-51)"/><path d="M245.83343,111.98789c-0.18507,-8.37974 5.4433,-15.33939 12.57132,-15.54478c7.12802,-0.20539 13.05644,6.42123 13.24151,14.80097c0.18507,8.37975 -5.4433,15.33939 -12.57131,15.54478c-7.12802,0.20539 -13.05643,-6.42122 -13.2415,-14.80097z" fill="url(#color-52)"/><path d="M245.91867,115.84538c-0.18507,-8.37974 5.44329,-15.33937 12.57131,-15.54476c7.12802,-0.20539 13.05644,6.42122 13.2415,14.80096c0.18507,8.37975 -5.44329,15.33939 -12.5713,15.54479c-7.12802,0.20539 -13.05643,-6.42123 -13.24151,-14.80097z" fill="url(#color-53)"/></g><g><path d="M245.97547,118.41703c-0.18507,-8.37974 5.4433,-15.3394 12.57132,-15.54478c7.12802,-0.20539 13.05643,6.42122 13.2415,14.80098c0.18507,8.37975 -5.44331,15.33939 -12.57132,15.54479c-7.12802,0.20539 -13.05644,-6.42124 -13.24151,-14.80097z" fill="url(#color-54)"/><path d="M246.06063,122.2746c-0.18507,-8.37974 5.44329,-15.3394 12.57132,-15.54478c7.12802,-0.20539 13.05643,6.42122 13.24149,14.80097c0.18507,8.37975 -5.44328,15.3394 -12.57129,15.54478c-7.12802,0.20539 -13.05642,-6.42123 -13.2415,-14.80098z" fill="url(#color-55)"/><path d="M245.93276,126.39558c-0.18507,-8.37975 5.4433,-15.33939 12.57132,-15.54477c7.12802,-0.20539 13.05644,6.42122 13.2415,14.80097c0.18507,8.37974 -5.44329,15.3394 -12.5713,15.54478c-7.12802,0.20539 -13.05643,-6.42123 -13.24151,-14.80097z" fill="url(#color-56)"/><path d="M246.01798,130.25306c-0.18507,-8.37975 5.44329,-15.33938 12.57131,-15.54478c7.12802,-0.20539 13.05643,6.42122 13.24149,14.80098c0.18507,8.37974 -5.4433,15.33939 -12.57131,15.54477c-7.12802,0.20539 -13.05642,-6.42123 -13.2415,-14.80097z" fill="url(#color-57)"/></g></g><g><g><path d="M245.88487,74.6735c-0.18507,-8.37974 5.44329,-15.33938 12.57131,-15.54477c7.12802,-0.20538 13.05643,6.42121 13.24149,14.80097c0.18507,8.37975 -5.44329,15.33939 -12.5713,15.54478c-7.12802,0.20539 -13.05645,-6.42123 -13.24153,-14.80097z" fill="url(#color-58)"/><path d="M245.97008,78.531c-0.18507,-8.37974 5.44329,-15.3394 12.57131,-15.54479c7.12802,-0.20539 13.05642,6.42123 13.24149,14.80097c0.18507,8.37975 -5.44329,15.33938 -12.5713,15.54477c-7.12802,0.20539 -13.05643,-6.42121 -13.24149,-14.80097z" fill="url(#color-59)"/><path d="M245.84218,82.65198c-0.18507,-8.37974 5.44328,-15.33939 12.5713,-15.54478c7.12802,-0.20539 13.05643,6.42123 13.24151,14.80098c0.18507,8.37975 -5.4433,15.33941 -12.5713,15.54478c-7.12802,0.20539 -13.05643,-6.42122 -13.2415,-14.80097z" fill="url(#color-60)"/><path d="M245.92739,86.50948c-0.18507,-8.37974 5.44329,-15.3394 12.57131,-15.54478c7.12802,-0.20539 13.05643,6.42122 13.24149,14.80097c0.18507,8.37975 -5.4433,15.33939 -12.57131,15.54478c-7.12802,0.20539 -13.05643,-6.42123 -13.24151,-14.80098z" fill="url(#color-61)"/></g><g><path d="M245.98417,89.08117c-0.18507,-8.37974 5.44329,-15.33939 12.57132,-15.54478c7.12802,-0.20539 13.05643,6.42122 13.24149,14.80096c0.18507,8.37975 -5.4433,15.33939 -12.57131,15.54478c-7.12802,0.20539 -13.05645,-6.42122 -13.24153,-14.80097z" fill="url(#color-62)"/><path d="M246.06938,92.93868c-0.18507,-8.37974 5.44329,-15.33939 12.57131,-15.54478c7.12802,-0.20539 13.05643,6.42122 13.24151,14.80097c0.18507,8.37975 -5.4433,15.33939 -12.57131,15.54479c-7.12802,0.20539 -13.05642,-6.42122 -13.2415,-14.80096z" fill="url(#color-63)"/><path d="M245.94151,97.05966c-0.18507,-8.37974 5.44329,-15.3394 12.57131,-15.54479c7.12802,-0.20539 13.05644,6.42122 13.2415,14.80096c0.18507,8.37975 -5.44329,15.33941 -12.5713,15.54478c-7.12802,0.20539 -13.05644,-6.42122 -13.2415,-14.80097z" fill="url(#color-64)"/><path d="M246.02676,100.91708c-0.18507,-8.37974 5.4433,-15.33938 12.57132,-15.54477c7.12802,-0.20539 13.05643,6.42121 13.2415,14.80095c0.18507,8.37975 -5.44329,15.3394 -12.5713,15.54479c-7.12802,0.20539 -13.05642,-6.42122 -13.24149,-14.80097z" fill="url(#color-65)"/></g></g></g></g><path d="M257.95596,128.62732c0,0 0.59515,-19.94747 0.80261,-54.24275c0.23806,-39.35418 -0.07996,-62.8616 -0.07996,-62.8616c0,0 6.19271,4.52044 6.24212,14.79173c0.93361,20.42883 1.26912,20.34975 1.33815,48.21706c-0.51984,30.28842 -0.47984,54.13037 -0.47984,54.13037z" data-paper-data="{&quot;index&quot;:null}" fill="url(#color-66)" stroke="#ff0000" stroke-width="0" stroke-linecap="butt"/><path d="M257.61293,132.95412c0,0 0.60332,-20.78563 0.82486,-56.52158c0.25421,-41.00738 0.14803,-65.50016 0.14803,-65.50016c0,0 6.50631,4.71086 6.55151,15.41359c0.92522,21.28657 1.26076,21.20403 1.31838,50.24191c-0.53228,31.56093 -0.50205,56.40435 -0.50205,56.40435z" data-paper-data="{&quot;index&quot;:null}" fill="none" stroke="#330000" stroke-width="2" stroke-linecap="butt"/><path d="M248.25852,138.87449c0,0 -1.3932,-1.61046 -1.38322,-2.63244c0.00999,-1.02198 1.43622,-2.79198 1.43622,-2.79198l26.96875,0.26349c0,0 1.39285,1.64924 1.38142,2.81948c-0.01144,1.17024 -1.43442,2.60492 -1.43442,2.60492z" fill="#000000" stroke="none" stroke-width="0" stroke-linecap="butt"/><path d="M257.57855,171.44165l0.333,-34.0849l7.90689,0.07725l-0.333,34.08491c0,0 -2.13751,2.86162 -3.98112,2.84362c-1.84363,-0.018 -3.92576,-2.92087 -3.92576,-2.92087z" fill="#070707" stroke="#000000" stroke-width="1.5" stroke-linecap="butt"/><g fill="#0f0f0f" stroke="#000000" stroke-width="1" stroke-linecap="butt"><g><path d="M259.77007,145.01822l0.0638,-6.53009c0,0 1.24865,-1.14882 1.87767,-1.14269c0.64317,0.00629 1.93983,1.17998 1.93983,1.17998l-0.06378,6.53008l-0.97393,1.33358l-1.73424,-0.02041z"/><path d="M260.82728,146.36046l1.73431,0.0135l0.9477,1.35233l-0.06379,6.53009l-1.00714,1.3723l-1.75222,-0.00169l-1.05814,-1.4079l0.06379,-6.53009z" data-paper-data="{&quot;index&quot;:null}"/></g><g><path d="M259.59022,163.42683l0.06378,-6.53009c0,0 1.24865,-1.14881 1.87766,-1.14265c0.64317,0.00629 1.93983,1.17996 1.93983,1.17996l-0.06378,6.53009l-0.97394,1.33356l-1.73423,-0.0204z"/><path d="M260.64743,164.76907l1.7343,0.01348l0.9477,1.35236l-0.06379,6.53008l-1.00714,1.37228l-1.75222,-0.00168l-1.05816,-1.40789l0.0638,-6.53008z" data-paper-data="{&quot;index&quot;:null}"/></g></g><path d="M265.1742,155.98604l-7.09888,-0.06934" fill="none" stroke="#000000" stroke-width="1.5" stroke-linecap="round"/><path d="M258.08965,146.42212l6.97512,0.06815" fill="none" stroke="#000000" stroke-width="1.5" stroke-linecap="round"/><path d="M258.1145,165.00548l6.7687,0.06614" fill="none" stroke="#000000" stroke-width="1.5" stroke-linecap="round"/><path d="M256.21315,133.74802c0,0 0.82396,-4.44682 1.53465,-4.43989c1.32268,0.01291 5.84708,0.05713 8.09204,0.07907c0.77983,0.00761 1.24112,4.467 1.24112,4.467z" fill="url(#color-67)" stroke="#000000" stroke-width="2" stroke-linecap="butt"/></g><path d="M258.20379,164.46528c-0.63503,-0.03966 -3.38447,-1.92953 -2.98426,-2.52597c0.28996,-0.43216 3.81778,0.48697 3.3777,0.04582c-0.69021,-0.69185 -4.37312,-0.30413 -5.74813,-1.06624c-1.41341,-0.7834 -0.51025,-2.72098 -0.52582,-3.76066c-0.01953,-1.30617 -0.97801,-2.21928 -0.32559,-3.11957c1.13876,-1.57136 4.38524,-2.66117 6.01187,-2.55952c1.3417,0.08384 2.43707,0.00815 3.30221,1.33853c0.37945,0.58349 6.77394,-8.11303 9.15088,-5.74835c2.53833,2.5252 3.42859,16.66549 3.44177,17.54627c0.01712,1.14513 -11.13471,-1.72733 -11.49198,-0.81641c0,0 -2.46713,0.77494 -4.20867,0.66611z" data-paper-data="{&quot;index&quot;:null}" fill="url(#color-68)" stroke="#000000" stroke-width="2" stroke-linecap="butt"/><path d="M264.67834,153.4229c-1.68177,0.71031 -2.8088,2.39048 -4.52004,0.85369c-0.8028,-0.72097 -10.50477,5.84793 -11.04945,4.77846c-0.2308,-0.45318 -3.4205,-3.73691 -4.90039,-8.03364c-1.20636,-3.50254 -0.85717,-8.01373 -0.27772,-9.4657c1.20828,-3.02761 11.84544,2.81188 11.93727,2.13724c0.20937,-1.53818 1.33784,-1.85109 2.63352,-2.39832c1.57084,-0.66344 5.34007,-0.78705 7.24548,0.27392c1.09167,0.60785 0.5846,1.79118 1.20588,3.01107c0.49451,0.97098 2.34486,2.45446 1.3209,3.67648c-0.99614,1.18879 -4.85578,2.11715 -5.20406,3.00112c-0.22209,0.56366 2.84197,-1.52409 3.34288,-1.22417c0.69132,0.41394 -1.12101,3.13087 -1.73426,3.38987z" data-paper-data="{&quot;index&quot;:null}" fill="url(#color-69)" stroke="#000000" stroke-width="2" stroke-linecap="butt"/><path d="M251.55012,175.65542c0,0 -0.41051,-1.17204 -0.5048,-1.70293c-0.15251,-0.85865 -0.04699,-2.95687 -0.04699,-2.95687c0,0 3.01256,-0.2071 4.41421,-0.2071c1.35568,0 3.86244,0.2071 3.86244,0.2071c0,0 0.55176,1.37226 0.55176,2.07103c0,0.71602 -0.27589,2.17457 -0.27589,2.17457c0,0 -2.39944,0.70559 -3.40591,0.75955c-1.422,0.07626 -4.59488,-0.34534 -4.59488,-0.34534z" fill="#060606" stroke="#000000" stroke-width="2" stroke-linecap="butt"/></g></g></svg>