<svg version="1.1" xmlns="http://www.w3.org/2000/svg" xmlns:xlink="http://www.w3.org/1999/xlink" width="489.20389" height="369.50175" viewBox="0,0,489.20389,369.50175"><g transform="translate(5.44251,4.34559)"><g data-paper-data="{&quot;isPaintingLayer&quot;:true}" fill-rule="nonzero" stroke-linejoin="miter" stroke-miterlimit="10" stroke-dasharray="" stroke-dashoffset="0" style="mix-blend-mode: normal"><path d="M-4.26197,330.57383v-60.5h131v60.5z" fill="#000000" stroke="none" stroke-width="0" stroke-linecap="butt"/><g fill="#000000" stroke="#000000" stroke-width="0" stroke-linecap="butt"><path d="M415.99472,365.15615v-235.41595h67.76667v235.41596z"/><g><path d="M-5.44251,364.35683v-36.15465h422.2v36.15465z"/><path d="M173.62236,333.32214v-145.58795h98.16667v145.58795z"/></g></g><g fill="#000000" stroke="#000000" stroke-width="0" stroke-linecap="butt"><path d="M306.97191,270.47411v-208.78571h73.51429v208.78571z"/><path d="M124.75498,129.78842v-67.41978h191.46456v67.41978z"/></g><path d="M-3.86425,273.16492v-277.51051h45.80881v277.51051z" fill="#000000" stroke="#000000" stroke-width="0" stroke-linecap="butt"/><g fill="#000000" stroke="#000000"><path d="M40.86196,270.85812l-0.08548,-24.29462l24.67706,-0.08417l0.08549,24.29462z" stroke-width="0" stroke-linecap="butt"/><path d="M43.82319,267.65269l-0.06302,-17.90823l18.19016,-0.06204l0.06302,17.90824z" stroke-width="3.5" stroke-linecap="butt"/><path d="M45.44397,265.69743l-0.05228,-14.85329l15.08712,-0.05147l0.05226,14.8533z" stroke-width="2" stroke-linecap="butt"/><path d="M47.31589,252.85097l10.93021,10.67663" stroke-width="6" stroke-linecap="round"/><path d="M44.62076,250.31343l16.34061,15.97629" stroke-width="2.5" stroke-linecap="round"/></g><g fill="#000000" stroke="#000000"><path d="M210.36197,188.60813l-0.08548,-24.29462l24.67706,-0.08417l0.08549,24.29462z" stroke-width="0" stroke-linecap="butt"/><path d="M213.3232,185.4027l-0.06302,-17.90823l18.19016,-0.06204l0.06302,17.90824z" stroke-width="3.5" stroke-linecap="butt"/><path d="M214.94398,183.44744l-0.05228,-14.85329l15.08712,-0.05147l0.05226,14.8533z" stroke-width="2" stroke-linecap="butt"/><path d="M216.8159,170.60098l10.93022,10.67663" stroke-width="6" stroke-linecap="round"/><path d="M230.46137,184.03974l-16.34061,-15.97629" stroke-width="2.5" stroke-linecap="round"/></g><g fill="#000000" stroke="#000000"><path d="M392.11198,329.10814l-0.08548,-24.29462l24.67706,-0.08417l0.08549,24.29462z" stroke-width="0" stroke-linecap="butt"/><path d="M395.07321,325.90271l-0.06302,-17.90823l18.19016,-0.06204l0.06302,17.90824z" stroke-width="3.5" stroke-linecap="butt"/><path d="M396.69399,323.94745l-0.05228,-14.85329l15.08712,-0.05147l0.05226,14.8533z" stroke-width="2" stroke-linecap="butt"/><path d="M409.49613,321.77762l-10.93022,-10.67663" stroke-width="6" stroke-linecap="round"/><path d="M412.21139,324.53974l-16.34061,-15.97629" stroke-width="2.5" stroke-linecap="round"/></g><path d="M145.5366,82.33895l-40.97357,52.82203" fill="none" stroke="#000000" stroke-width="6" stroke-linecap="round"/><path d="M96.85801,133.61191c0.24048,-4.35641 3.96698,-7.69306 8.3234,-7.45259c4.35641,0.24048 7.69306,3.96699 7.45259,8.3234c-0.24048,4.35641 -3.96698,7.69306 -8.3234,7.4526c-4.35641,-0.24048 -7.69306,-3.96698 -7.45258,-8.32341z" fill="#000000" stroke="none" stroke-width="NaN" stroke-linecap="butt"/><path d="M193.74045,230.66335l-36.9513,-39.16883" fill="none" stroke="#000000" stroke-width="4.5" stroke-linecap="round"/><path d="M158.97876,185.5547c3.43727,0.73236 5.63004,4.11249 4.89769,7.54977c-0.73236,3.43727 -4.11249,5.63005 -7.54976,4.89769c-3.43727,-0.73236 -5.63004,-4.1125 -4.89769,-7.54977c0.73236,-3.43727 4.11249,-5.63004 7.54976,-4.89768z" fill="#000000" stroke="none" stroke-width="NaN" stroke-linecap="butt"/><path d="M259.29709,348.43295l31.52719,-43.65354" fill="none" stroke="#000000" stroke-width="5" stroke-linecap="round"/><path d="M296.75055,305.6785c-0.07981,3.8212 -3.24218,6.8542 -7.06339,6.7744c-3.8212,-0.07981 -6.85422,-3.24217 -6.77441,-7.06337c0.07981,-3.8212 3.2422,-6.8542 7.06339,-6.7744c3.8212,0.07981 6.8542,3.24218 6.7744,7.06338z" fill="#000000" stroke="none" stroke-width="NaN" stroke-linecap="butt"/><g fill="#000000" stroke="#000000"><path d="M210.0118,63.3225l-0.09238,-24.29462l26.67016,-0.08417l0.09239,24.29462z" stroke-width="0" stroke-linecap="butt"/><path d="M213.2122,60.11706l-0.06811,-17.90823l19.65933,-0.06204l0.06811,17.90824z" stroke-width="3.5" stroke-linecap="butt"/><path d="M214.96388,58.16181l-0.0565,-14.85329l16.30566,-0.05147l0.05648,14.8533z" stroke-width="2" stroke-linecap="butt"/><path d="M216.98699,45.31534l11.81302,10.67663" stroke-width="6" stroke-linecap="round"/><path d="M214.07419,42.77782l17.66039,15.97629" stroke-width="2.5" stroke-linecap="round"/></g><path d="M234.37627,63.65441v-64.75h121v64.75z" fill="#000000" stroke="none" stroke-width="0" stroke-linecap="butt"/></g></g></svg>