<svg version="1.1" xmlns="http://www.w3.org/2000/svg" xmlns:xlink="http://www.w3.org/1999/xlink" width="416.87214" height="223.2591" viewBox="0,0,416.87214,223.2591"><defs><linearGradient x1="371.88712" y1="233.95858" x2="371.88712" y2="244.21411" gradientUnits="userSpaceOnUse" id="color-1"><stop offset="0" stop-color="#000000"/><stop offset="1" stop-color="#000000"/></linearGradient><linearGradient x1="359.96974" y1="234.13823" x2="359.96974" y2="244.39378" gradientUnits="userSpaceOnUse" id="color-2"><stop offset="0" stop-color="#000000"/><stop offset="1" stop-color="#000000"/></linearGradient><linearGradient x1="396.48292" y1="234.24323" x2="396.48292" y2="244.49878" gradientUnits="userSpaceOnUse" id="color-3"><stop offset="0" stop-color="#000000"/><stop offset="1" stop-color="#000000"/></linearGradient><linearGradient x1="384.56554" y1="234.02291" x2="384.56554" y2="244.27845" gradientUnits="userSpaceOnUse" id="color-4"><stop offset="0" stop-color="#000000"/><stop offset="1" stop-color="#000000"/></linearGradient><linearGradient x1="306.26428" y1="284.37778" x2="306.26428" y2="292.57981" gradientUnits="userSpaceOnUse" id="color-5"><stop offset="0" stop-color="#520000"/><stop offset="1" stop-color="#000000"/></linearGradient><linearGradient x1="297.25641" y1="284.43409" x2="297.25641" y2="292.63612" gradientUnits="userSpaceOnUse" id="color-6"><stop offset="0" stop-color="#520000"/><stop offset="1" stop-color="#000000"/></linearGradient><linearGradient x1="288.24857" y1="284.43409" x2="288.24857" y2="292.63612" gradientUnits="userSpaceOnUse" id="color-7"><stop offset="0" stop-color="#520000"/><stop offset="1" stop-color="#000000"/></linearGradient><linearGradient x1="279.24068" y1="284.49041" x2="279.24068" y2="292.69244" gradientUnits="userSpaceOnUse" id="color-8"><stop offset="0" stop-color="#520000"/><stop offset="1" stop-color="#000000"/></linearGradient><linearGradient x1="269.94005" y1="284.67017" x2="269.94005" y2="292.87223" gradientUnits="userSpaceOnUse" id="color-9"><stop offset="0" stop-color="#520000"/><stop offset="1" stop-color="#000000"/></linearGradient><linearGradient x1="315.31083" y1="284.37778" x2="315.31083" y2="292.57981" gradientUnits="userSpaceOnUse" id="color-10"><stop offset="0" stop-color="#520000"/><stop offset="1" stop-color="#000000"/></linearGradient><linearGradient x1="324.93176" y1="284.37778" x2="324.93176" y2="292.57981" gradientUnits="userSpaceOnUse" id="color-11"><stop offset="0" stop-color="#520000"/><stop offset="1" stop-color="#000000"/></linearGradient><linearGradient x1="235.72146" y1="190.71002" x2="235.72145" y2="194.57774" gradientUnits="userSpaceOnUse" id="color-12"><stop offset="0" stop-color="#c1c1c1"/><stop offset="1" stop-color="#1a1a1a"/></linearGradient><linearGradient x1="232.79427" y1="189.03306" x2="238.7315" y2="189.03306" gradientUnits="userSpaceOnUse" id="color-13"><stop offset="0" stop-color="#c1c1c1"/><stop offset="1" stop-color="#191919"/></linearGradient><linearGradient x1="242.95856" y1="190.71002" x2="242.95856" y2="194.57774" gradientUnits="userSpaceOnUse" id="color-14"><stop offset="0" stop-color="#c1c1c1"/><stop offset="1" stop-color="#1a1a1a"/></linearGradient><linearGradient x1="240.03136" y1="189.03306" x2="245.96861" y2="189.03306" gradientUnits="userSpaceOnUse" id="color-15"><stop offset="0" stop-color="#c1c1c1"/><stop offset="1" stop-color="#191919"/></linearGradient><linearGradient x1="227.95858" y1="190.71002" x2="227.95857" y2="194.57774" gradientUnits="userSpaceOnUse" id="color-16"><stop offset="0" stop-color="#c1c1c1"/><stop offset="1" stop-color="#1a1a1a"/></linearGradient><linearGradient x1="225.03138" y1="189.03306" x2="230.96861" y2="189.03306" gradientUnits="userSpaceOnUse" id="color-17"><stop offset="0" stop-color="#c1c1c1"/><stop offset="1" stop-color="#191919"/></linearGradient><linearGradient x1="250.62522" y1="190.71002" x2="250.62522" y2="194.57774" gradientUnits="userSpaceOnUse" id="color-18"><stop offset="0" stop-color="#c1c1c1"/><stop offset="1" stop-color="#1a1a1a"/></linearGradient><linearGradient x1="247.69802" y1="189.03307" x2="253.63528" y2="189.03307" gradientUnits="userSpaceOnUse" id="color-19"><stop offset="0" stop-color="#c1c1c1"/><stop offset="1" stop-color="#191919"/></linearGradient><linearGradient x1="177.33242" y1="224.587" x2="175.07666" y2="227.72878" gradientUnits="userSpaceOnUse" id="color-20"><stop offset="0" stop-color="#c1c1c1"/><stop offset="1" stop-color="#1a1a1a"/></linearGradient><linearGradient x1="175.93268" y1="221.51758" x2="180.75555" y2="224.98032" gradientUnits="userSpaceOnUse" id="color-21"><stop offset="0" stop-color="#c1c1c1"/><stop offset="1" stop-color="#191919"/></linearGradient><linearGradient x1="183.21119" y1="228.80786" x2="180.95544" y2="231.94965" gradientUnits="userSpaceOnUse" id="color-22"><stop offset="0" stop-color="#c1c1c1"/><stop offset="1" stop-color="#1a1a1a"/></linearGradient><linearGradient x1="181.81144" y1="225.73843" x2="186.63433" y2="229.20118" gradientUnits="userSpaceOnUse" id="color-23"><stop offset="0" stop-color="#c1c1c1"/><stop offset="1" stop-color="#191919"/></linearGradient><linearGradient x1="171.04648" y1="220.39223" x2="168.79072" y2="223.53402" gradientUnits="userSpaceOnUse" id="color-24"><stop offset="0" stop-color="#c1c1c1"/><stop offset="1" stop-color="#1a1a1a"/></linearGradient><linearGradient x1="169.64673" y1="217.3228" x2="174.4696" y2="220.78554" gradientUnits="userSpaceOnUse" id="color-25"><stop offset="0" stop-color="#c1c1c1"/><stop offset="1" stop-color="#191919"/></linearGradient><linearGradient x1="189.4389" y1="233.27924" x2="187.18315" y2="236.42103" gradientUnits="userSpaceOnUse" id="color-26"><stop offset="0" stop-color="#c1c1c1"/><stop offset="1" stop-color="#1a1a1a"/></linearGradient><linearGradient x1="188.03915" y1="230.20982" x2="192.86205" y2="233.67258" gradientUnits="userSpaceOnUse" id="color-27"><stop offset="0" stop-color="#c1c1c1"/><stop offset="1" stop-color="#191919"/></linearGradient><linearGradient x1="78.52059" y1="88.54303" x2="74.65288" y2="88.54302" gradientUnits="userSpaceOnUse" id="color-28"><stop offset="0" stop-color="#c1c1c1"/><stop offset="1" stop-color="#1a1a1a"/></linearGradient><linearGradient x1="80.19755" y1="85.61584" x2="80.19755" y2="91.55308" gradientUnits="userSpaceOnUse" id="color-29"><stop offset="0" stop-color="#c1c1c1"/><stop offset="1" stop-color="#191919"/></linearGradient><linearGradient x1="78.52059" y1="95.78013" x2="74.65288" y2="95.78013" gradientUnits="userSpaceOnUse" id="color-30"><stop offset="0" stop-color="#c1c1c1"/><stop offset="1" stop-color="#1a1a1a"/></linearGradient><linearGradient x1="80.19755" y1="92.85293" x2="80.19755" y2="98.79018" gradientUnits="userSpaceOnUse" id="color-31"><stop offset="0" stop-color="#c1c1c1"/><stop offset="1" stop-color="#191919"/></linearGradient><linearGradient x1="78.52059" y1="73.54302" x2="74.65287" y2="73.54303" gradientUnits="userSpaceOnUse" id="color-32"><stop offset="0" stop-color="#c1c1c1"/><stop offset="1" stop-color="#1a1a1a"/></linearGradient><linearGradient x1="80.19755" y1="70.61583" x2="80.19755" y2="76.55308" gradientUnits="userSpaceOnUse" id="color-33"><stop offset="0" stop-color="#c1c1c1"/><stop offset="1" stop-color="#191919"/></linearGradient><linearGradient x1="78.52059" y1="80.78014" x2="74.65287" y2="80.78014" gradientUnits="userSpaceOnUse" id="color-34"><stop offset="0" stop-color="#c1c1c1"/><stop offset="1" stop-color="#1a1a1a"/></linearGradient><linearGradient x1="80.19755" y1="77.85293" x2="80.19755" y2="83.79017" gradientUnits="userSpaceOnUse" id="color-35"><stop offset="0" stop-color="#c1c1c1"/><stop offset="1" stop-color="#191919"/></linearGradient><linearGradient x1="78.52059" y1="118.20969" x2="74.65287" y2="118.20968" gradientUnits="userSpaceOnUse" id="color-36"><stop offset="0" stop-color="#c1c1c1"/><stop offset="1" stop-color="#1a1a1a"/></linearGradient><linearGradient x1="80.19755" y1="115.2825" x2="80.19755" y2="121.21972" gradientUnits="userSpaceOnUse" id="color-37"><stop offset="0" stop-color="#c1c1c1"/><stop offset="1" stop-color="#191919"/></linearGradient><linearGradient x1="78.52059" y1="125.44679" x2="74.65287" y2="125.44679" gradientUnits="userSpaceOnUse" id="color-38"><stop offset="0" stop-color="#c1c1c1"/><stop offset="1" stop-color="#1a1a1a"/></linearGradient><linearGradient x1="80.19755" y1="122.51959" x2="80.19755" y2="128.45684" gradientUnits="userSpaceOnUse" id="color-39"><stop offset="0" stop-color="#c1c1c1"/><stop offset="1" stop-color="#191919"/></linearGradient><linearGradient x1="78.52059" y1="103.20969" x2="74.65287" y2="103.20969" gradientUnits="userSpaceOnUse" id="color-40"><stop offset="0" stop-color="#c1c1c1"/><stop offset="1" stop-color="#1a1a1a"/></linearGradient><linearGradient x1="80.19755" y1="100.2825" x2="80.19755" y2="106.21975" gradientUnits="userSpaceOnUse" id="color-41"><stop offset="0" stop-color="#c1c1c1"/><stop offset="1" stop-color="#191919"/></linearGradient><linearGradient x1="78.52059" y1="110.44681" x2="74.65287" y2="110.4468" gradientUnits="userSpaceOnUse" id="color-42"><stop offset="0" stop-color="#c1c1c1"/><stop offset="1" stop-color="#1a1a1a"/></linearGradient><linearGradient x1="80.19755" y1="107.51961" x2="80.19755" y2="113.45684" gradientUnits="userSpaceOnUse" id="color-43"><stop offset="0" stop-color="#c1c1c1"/><stop offset="1" stop-color="#191919"/></linearGradient><linearGradient x1="78.52059" y1="133.11345" x2="74.65287" y2="133.11345" gradientUnits="userSpaceOnUse" id="color-44"><stop offset="0" stop-color="#c1c1c1"/><stop offset="1" stop-color="#1a1a1a"/></linearGradient><linearGradient x1="80.19754" y1="130.18625" x2="80.19754" y2="136.12351" gradientUnits="userSpaceOnUse" id="color-45"><stop offset="0" stop-color="#c1c1c1"/><stop offset="1" stop-color="#191919"/></linearGradient><linearGradient x1="7.48247" y1="218.97131" x2="-2.77306" y2="218.97131" gradientUnits="userSpaceOnUse" id="color-46"><stop offset="0" stop-color="#000000"/><stop offset="1" stop-color="#000000"/></linearGradient><linearGradient x1="7.30282" y1="207.05393" x2="-2.95273" y2="207.05393" gradientUnits="userSpaceOnUse" id="color-47"><stop offset="0" stop-color="#000000"/><stop offset="1" stop-color="#000000"/></linearGradient><linearGradient x1="408.28292" y1="234.44323" x2="408.28292" y2="244.69878" gradientUnits="userSpaceOnUse" id="color-48"><stop offset="0" stop-color="#000000"/><stop offset="1" stop-color="#000000"/></linearGradient></defs><g transform="translate(2.05061,-70.09949)"><g data-paper-data="{&quot;isPaintingLayer&quot;:true}" fill-rule="nonzero" stroke-linejoin="miter" stroke-miterlimit="10" stroke-dasharray="" stroke-dashoffset="0" style="mix-blend-mode: normal"><path d="M372.09082,242.83673l-0.15025,-8.87815l1.22703,4.04419l-1.80635,-2.6544l2.70448,2.25373l-3.60597,-1.65274l3.60597,0.3005l-4.35721,0.90149l3.90647,-2.40397l-2.25372,3.00497l1.50249,-3.75621" fill="none" stroke="url(#color-1)" stroke-width="1.25" stroke-linecap="round"/><path d="M358.99311,234.17579l1.50249,3.75621l-2.25372,-3.00497l3.90647,2.40397l-4.35721,-0.90149l3.60597,-0.3005l-3.60597,1.65274l2.70448,-2.25373l-1.80635,2.6544l1.22703,-4.04419l-0.15025,8.72843" data-paper-data="{&quot;index&quot;:null}" fill="none" stroke="url(#color-2)" stroke-width="1.25" stroke-linecap="round"/><path d="M396.68662,243.12138l-0.15025,-8.87815l1.22703,4.04419l-1.80635,-2.6544l2.70448,2.25373l-3.60597,-1.65274l3.60597,0.3005l-4.35721,0.90149l3.90647,-2.40397l-2.25372,3.00497l1.50249,-3.75621" fill="none" stroke="url(#color-3)" stroke-width="1.25" stroke-linecap="round"/><path d="M383.58891,234.06046l1.50249,3.75621l-2.25372,-3.00497l3.90647,2.40397l-4.35721,-0.90149l3.60597,-0.3005l-3.60597,1.65274l2.70448,-2.25373l-1.80635,2.6544l1.22703,-4.04419l-0.15025,8.72843" data-paper-data="{&quot;index&quot;:null}" fill="none" stroke="url(#color-4)" stroke-width="1.25" stroke-linecap="round"/><path d="M302.63926,288.87125l3.71108,-4.49348l3.53897,4.44651c0,0 -2.06488,-0.0264 -2.31972,2.08661c-0.14193,1.17676 -0.24386,1.65547 -0.24386,1.65547c0,0 -1.68865,0.04598 -1.79349,-0.03209c-0.0504,-0.03753 -0.41249,-0.52463 -0.36048,-1.68403c0.08277,-1.84539 -2.53248,-1.97899 -2.53248,-1.97899z" fill="url(#color-5)" stroke="#000000" stroke-width="1" stroke-linecap="butt"/><path d="M293.63142,288.92757l3.71108,-4.49348l3.53897,4.44652c0,0 -2.06488,-0.02641 -2.31973,2.08661c-0.14194,1.17676 -0.24386,1.65546 -0.24386,1.65546c0,0 -1.68865,0.04598 -1.79349,-0.03208c-0.0504,-0.03753 -0.41248,-0.52464 -0.36048,-1.68404c0.08277,-1.84539 -2.53248,-1.97898 -2.53248,-1.97898z" fill="url(#color-6)" stroke="#000000" stroke-width="1" stroke-linecap="butt"/><path d="M284.62351,288.92757l3.71108,-4.49348l3.53897,4.44652c0,0 -2.06488,-0.02641 -2.31972,2.0866c-0.14194,1.17676 -0.24387,1.65547 -0.24387,1.65547c0,0 -1.68865,0.04598 -1.79349,-0.03208c-0.0504,-0.03753 -0.41248,-0.52464 -0.36047,-1.68403c0.08277,-1.84539 -2.53249,-1.97898 -2.53249,-1.97898z" fill="url(#color-7)" stroke="#000000" stroke-width="1" stroke-linecap="butt"/><path d="M275.61564,288.98388l3.71108,-4.49348l3.53897,4.44651c0,0 -2.06488,-0.02641 -2.31972,2.08661c-0.14194,1.17676 -0.24387,1.65546 -0.24387,1.65546c0,0 -1.68865,0.04598 -1.79349,-0.03208c-0.0504,-0.03753 -0.41248,-0.52464 -0.36048,-1.68403c0.08277,-1.84539 -2.53249,-1.97898 -2.53249,-1.97898z" fill="url(#color-8)" stroke="#000000" stroke-width="1" stroke-linecap="butt"/><path d="M266.31502,289.16367l3.71109,-4.49348l3.53897,4.44652c0,0 -2.06487,-0.02641 -2.31972,2.08661c-0.14194,1.17676 -0.24387,1.65546 -0.24387,1.65546c0,0 -1.68865,0.04598 -1.79349,-0.03208c-0.0504,-0.03753 -0.41248,-0.52464 -0.36048,-1.68404c0.08277,-1.84539 -2.53249,-1.97898 -2.53249,-1.97898z" fill="url(#color-9)" stroke="#000000" stroke-width="1" stroke-linecap="butt"/><path d="M311.68581,288.87125l3.71108,-4.49348l3.53897,4.44651c0,0 -2.06488,-0.0264 -2.31972,2.08661c-0.14193,1.17676 -0.24386,1.65547 -0.24386,1.65547c0,0 -1.68865,0.04598 -1.79349,-0.03209c-0.0504,-0.03753 -0.41249,-0.52463 -0.36048,-1.68403c0.08277,-1.84539 -2.53248,-1.97899 -2.53248,-1.97899z" fill="url(#color-10)" stroke="#000000" stroke-width="1" stroke-linecap="butt"/><path d="M321.30674,288.87125l3.71108,-4.49348l3.53897,4.44651c0,0 -2.06488,-0.0264 -2.31972,2.08661c-0.14193,1.17676 -0.24386,1.65547 -0.24386,1.65547c0,0 -1.68865,0.04598 -1.79349,-0.03209c-0.0504,-0.03753 -0.41249,-0.52463 -0.36048,-1.68403c0.08277,-1.84539 -2.53248,-1.97899 -2.53248,-1.97899z" fill="url(#color-11)" stroke="#000000" stroke-width="1" stroke-linecap="butt"/><path d="M234.62832,194.57774v-3.86772h2.18628v3.86772z" fill="url(#color-12)" stroke="#000000" stroke-width="0.75" stroke-linecap="butt"/><path d="M232.79426,191.84988l3.18021,-6.42761l2.75704,6.42761c0,0 -1.96952,0.79401 -2.92374,0.79401c-1.02041,0 -3.01351,-0.79401 -3.01351,-0.79401z" fill="url(#color-13)" stroke="#000000" stroke-width="0.75" stroke-linecap="round"/><path d="M241.86542,194.57774v-3.86772h2.18629v3.86772z" fill="url(#color-14)" stroke="#000000" stroke-width="0.75" stroke-linecap="butt"/><path d="M240.03137,191.84988l3.18021,-6.42761l2.75704,6.42761c0,0 -1.96951,0.79401 -2.92374,0.79401c-1.02041,0 -3.0135,-0.79401 -3.0135,-0.79401z" fill="url(#color-15)" stroke="#000000" stroke-width="0.75" stroke-linecap="round"/><path d="M226.86542,194.57774v-3.86772h2.18628v3.86772z" fill="url(#color-16)" stroke="#000000" stroke-width="0.75" stroke-linecap="butt"/><path d="M225.03138,191.84988l3.18021,-6.42761l2.75704,6.42761c0,0 -1.96951,0.79401 -2.92374,0.79401c-1.02041,0 -3.01351,-0.79401 -3.01351,-0.79401z" fill="url(#color-17)" stroke="#000000" stroke-width="0.75" stroke-linecap="round"/><path d="M249.53209,194.57774v-3.86772h2.18629v3.86772z" fill="url(#color-18)" stroke="#000000" stroke-width="0.75" stroke-linecap="butt"/><path d="M247.69804,191.84988l3.18021,-6.42761l2.75704,6.42761c0,0 -1.96951,0.794 -2.92374,0.794c-1.02041,0 -3.0135,-0.794 -3.0135,-0.794z" fill="url(#color-19)" stroke="#000000" stroke-width="0.75" stroke-linecap="round"/><path d="M174.1887,227.09124l2.25575,-3.14179l1.77594,1.27509l-2.25575,3.14179z" fill="url(#color-20)" stroke="#000000" stroke-width="0.75" stroke-linecap="butt"/><path d="M174.28983,223.8057l6.33206,-3.36644l-1.50917,6.82919c0,0 -2.06295,-0.50369 -2.83807,-1.06022c-0.82889,-0.59513 -1.98482,-2.40254 -1.98482,-2.40254z" fill="url(#color-21)" stroke="#000000" stroke-width="0.75" stroke-linecap="round"/><path d="M180.06747,231.3121l2.25575,-3.14179l1.77595,1.2751l-2.25575,3.14179z" fill="url(#color-22)" stroke="#000000" stroke-width="0.75" stroke-linecap="butt"/><path d="M180.16861,228.02657l6.33206,-3.36644l-1.50917,6.82919c0,0 -2.06294,-0.50368 -2.83807,-1.06022c-0.82889,-0.59513 -1.98481,-2.40253 -1.98481,-2.40253z" fill="url(#color-23)" stroke="#000000" stroke-width="0.75" stroke-linecap="round"/><path d="M167.90274,222.89646l2.25575,-3.14179l1.77594,1.27509l-2.25575,3.14179z" fill="url(#color-24)" stroke="#000000" stroke-width="0.75" stroke-linecap="butt"/><path d="M168.00389,219.61094l6.33206,-3.36644l-1.50917,6.82919c0,0 -2.06294,-0.50368 -2.83807,-1.06022c-0.82889,-0.59513 -1.98482,-2.40254 -1.98482,-2.40254z" fill="url(#color-25)" stroke="#000000" stroke-width="0.75" stroke-linecap="round"/><path d="M186.29519,235.78349l2.25575,-3.14179l1.77595,1.2751l-2.25575,3.14179z" fill="url(#color-26)" stroke="#000000" stroke-width="0.75" stroke-linecap="butt"/><path d="M186.39633,232.49796l6.33206,-3.36644l-1.50917,6.82919c0,0 -2.06293,-0.50369 -2.83807,-1.06022c-0.82889,-0.59513 -1.98482,-2.40252 -1.98482,-2.40252z" fill="url(#color-27)" stroke="#000000" stroke-width="0.75" stroke-linecap="round"/><path d="M74.65288,87.44987h3.86772v2.18629h-3.86772z" fill="url(#color-28)" stroke="#000000" stroke-width="0.75" stroke-linecap="butt"/><path d="M77.38074,85.61583l6.42761,3.18021l-6.42761,2.75704c0,0 -0.79401,-1.96952 -0.79401,-2.92374c0,-1.02041 0.79401,-3.01351 0.79401,-3.01351z" fill="url(#color-29)" stroke="#000000" stroke-width="0.75" stroke-linecap="round"/><path d="M74.65288,94.68698h3.86772v2.18628h-3.86772z" fill="url(#color-30)" stroke="#000000" stroke-width="0.75" stroke-linecap="butt"/><path d="M77.38074,92.85293l6.42761,3.18021l-6.42761,2.75704c0,0 -0.79401,-1.96951 -0.79401,-2.92374c0,-1.02041 0.79401,-3.0135 0.79401,-3.0135z" fill="url(#color-31)" stroke="#000000" stroke-width="0.75" stroke-linecap="round"/><path d="M74.65287,72.44987h3.86772v2.18628h-3.86772z" fill="url(#color-32)" stroke="#000000" stroke-width="0.75" stroke-linecap="butt"/><path d="M77.38073,70.61583l6.42761,3.18021l-6.42761,2.75704c0,0 -0.79401,-1.96952 -0.79401,-2.92374c0,-1.02041 0.79401,-3.01351 0.79401,-3.01351z" fill="url(#color-33)" stroke="#000000" stroke-width="0.75" stroke-linecap="round"/><path d="M74.65287,79.68699h3.86772v2.18629h-3.86772z" fill="url(#color-34)" stroke="#000000" stroke-width="0.75" stroke-linecap="butt"/><path d="M77.38073,77.85293l6.42761,3.18021l-6.42761,2.75704c0,0 -0.79401,-1.96951 -0.79401,-2.92374c0,-1.02041 0.79401,-3.01351 0.79401,-3.01351z" fill="url(#color-35)" stroke="#000000" stroke-width="0.75" stroke-linecap="round"/><path d="M74.65287,117.11655h3.86772v2.18628h-3.86772z" fill="url(#color-36)" stroke="#000000" stroke-width="0.75" stroke-linecap="butt"/><path d="M77.38073,115.28249l6.42761,3.18021l-6.42761,2.75704c0,0 -0.79401,-1.96952 -0.79401,-2.92374c0,-1.02041 0.79401,-3.01351 0.79401,-3.01351z" fill="url(#color-37)" stroke="#000000" stroke-width="0.75" stroke-linecap="round"/><path d="M74.65287,124.35365h3.86772v2.18629h-3.86772z" fill="url(#color-38)" stroke="#000000" stroke-width="0.75" stroke-linecap="butt"/><path d="M77.38073,122.5196l6.42761,3.18021l-6.42761,2.75704c0,0 -0.79401,-1.96951 -0.79401,-2.92374c0,-1.02041 0.79401,-3.0135 0.79401,-3.0135z" fill="url(#color-39)" stroke="#000000" stroke-width="0.75" stroke-linecap="round"/><path d="M74.65287,102.11655h3.86772v2.18628h-3.86772z" fill="url(#color-40)" stroke="#000000" stroke-width="0.75" stroke-linecap="butt"/><path d="M77.38073,100.2825l6.42761,3.18021l-6.42761,2.75704c0,0 -0.79401,-1.96952 -0.79401,-2.92374c0,-1.02041 0.79401,-3.01351 0.79401,-3.01351z" fill="url(#color-41)" stroke="#000000" stroke-width="0.75" stroke-linecap="round"/><path d="M74.65287,109.35365h3.86772v2.18628h-3.86772z" fill="url(#color-42)" stroke="#000000" stroke-width="0.75" stroke-linecap="butt"/><path d="M77.38073,107.51961l6.42761,3.18021l-6.42761,2.75704c0,0 -0.79401,-1.96951 -0.79401,-2.92374c0,-1.02041 0.79401,-3.01351 0.79401,-3.01351z" fill="url(#color-43)" stroke="#000000" stroke-width="0.75" stroke-linecap="round"/><path d="M74.65287,132.02032h3.86772v2.18629h-3.86772z" fill="url(#color-44)" stroke="#000000" stroke-width="0.75" stroke-linecap="butt"/><path d="M77.38073,130.18627l6.42761,3.18021l-6.42761,2.75704c0,0 -0.794,-1.96951 -0.794,-2.92374c0,-1.02041 0.794,-3.0135 0.794,-3.0135z" fill="url(#color-45)" stroke="#000000" stroke-width="0.75" stroke-linecap="round"/><path d="M-1.39568,219.17501l8.87815,-0.15025l-4.04419,1.22703l2.6544,-1.80635l-2.25373,2.70448l1.65274,-3.60597l-0.3005,3.60597l-0.90149,-4.35721l2.40397,3.90647l-3.00497,-2.25372l3.75621,1.50249" fill="none" stroke="url(#color-46)" stroke-width="1.25" stroke-linecap="round"/><path d="M7.26526,206.0773l-3.75621,1.50249l3.00497,-2.25372l-2.40397,3.90647l0.90149,-4.35721l0.3005,3.60597l-1.65274,-3.60597l2.25373,2.70448l-2.6544,-1.80635l4.04419,1.22703l-8.72843,-0.15025" data-paper-data="{&quot;index&quot;:null}" fill="none" stroke="url(#color-47)" stroke-width="1.25" stroke-linecap="round"/><path d="M408.48662,243.32138l-0.15025,-8.87815l1.22703,4.04419l-1.80635,-2.6544l2.70448,2.25373l-3.60597,-1.65274l3.60597,0.3005l-4.35721,0.90149l3.90647,-2.40397l-2.25372,3.00497l1.50249,-3.75621" fill="none" stroke="url(#color-48)" stroke-width="1.25" stroke-linecap="round"/></g></g></svg>