<svg version="1.1" xmlns="http://www.w3.org/2000/svg" xmlns:xlink="http://www.w3.org/1999/xlink" width="250.91071" height="150.80038" viewBox="0,0,250.91071,150.80038"><g transform="translate(-203.88989,-92.43186)"><g data-paper-data="{&quot;isPaintingLayer&quot;:true}" fill="none" fill-rule="nonzero" stroke-width="3" stroke-linecap="round" stroke-linejoin="miter" stroke-miterlimit="10" stroke-dasharray="" stroke-dashoffset="0" style="mix-blend-mode: normal"><g><g><path d="M221.13547,151.35986l32.5195,19.03762l-13.43754,-4.47685" stroke="#5100a4"/><path d="M224.29234,150.43063l32.51988,19.52604l-13.30381,-4.63385" stroke="#000000"/></g><g data-paper-data="{&quot;index&quot;:null}"><path d="M246.13053,154.77889l10.69453,9.80148l-32.37233,-19.35723" stroke="#5100a4"/><path d="M247.52233,158.14739l10.78891,9.62121l-32.72604,-19.07832" stroke="#000000"/></g></g><g><g><path d="M260.38982,100.44619l34.70926,14.67025l-13.90381,-2.70068" stroke="#5100a4"/><path d="M263.39995,99.11634l34.77283,15.15451l-13.79153,-2.87367" stroke="#000000"/></g><g data-paper-data="{&quot;index&quot;:null}"><path d="M285.61708,100.60263l11.87276,8.33544l-34.60468,-15.00621" stroke="#5100a4"/><path d="M287.433,103.76275l11.94302,8.14447l-34.91933,-14.68388" stroke="#000000"/></g></g><g><g><path d="M432.71723,192.14523l12.54918,35.53122l-7.37353,-12.093" stroke="#5100a4"/><path d="M435.72825,193.47324l12.23422,35.90449l-7.17007,-12.1266" stroke="#000000"/></g><g data-paper-data="{&quot;index&quot;:null}"><path d="M449.601,210.89045l1.84156,14.38925l-12.23048,-35.68033" stroke="#5100a4"/><path d="M448.48973,214.36162l2.03,14.31249l-12.68066,-35.69562" stroke="#000000"/></g></g><g><g><path d="M205.38989,103.44619l34.70926,14.67025l-13.90381,-2.70068" stroke="#5100a4"/><path d="M208.40001,102.11634l34.77283,15.15451l-13.79153,-2.87367" stroke="#000000"/></g><g data-paper-data="{&quot;index&quot;:null}"><path d="M230.61715,103.60263l11.87276,8.33544l-34.60468,-15.00621" stroke="#5100a4"/><path d="M232.43314,106.76275l11.94302,8.14447l-34.91933,-14.68388" stroke="#000000"/></g></g></g></g></svg>