<svg version="1.1" xmlns="http://www.w3.org/2000/svg" xmlns:xlink="http://www.w3.org/1999/xlink" width="250.91071" height="150.80038" viewBox="0,0,250.91071,150.80038"><g transform="translate(-203.88989,-92.43186)"><g data-paper-data="{&quot;isPaintingLayer&quot;:true}" fill="none" fill-rule="nonzero" stroke-width="3" stroke-linecap="round" stroke-linejoin="miter" stroke-miterlimit="10" stroke-dasharray="" stroke-dashoffset="0" style="mix-blend-mode: normal"><g><g><path d="M340.06016,212.70092l37.10407,6.5755l-14.15613,0.46221" stroke="#5100a4"/><path d="M342.69871,210.73436l37.27383,7.03346l-14.08517,0.26857" stroke="#000000"/></g><g data-paper-data="{&quot;index&quot;:null}"><path d="M364.68928,207.23759l13.4304,5.48328l-37.0769,-6.92632" stroke="#5100a4"/><path d="M367.16312,209.91418l13.45638,5.28147l-37.3119,-6.54203" stroke="#000000"/></g></g><g><g><path d="M260.38982,100.44619l34.70926,14.67025l-13.90381,-2.70068" stroke="#5100a4"/><path d="M263.39995,99.11634l34.77283,15.15451l-13.79153,-2.87367" stroke="#000000"/></g><g data-paper-data="{&quot;index&quot;:null}"><path d="M285.61708,100.60263l11.87276,8.33544l-34.60468,-15.00621" stroke="#5100a4"/><path d="M287.433,103.76275l11.94302,8.14447l-34.91933,-14.68388" stroke="#000000"/></g></g><g><g><path d="M432.71723,192.14523l12.54918,35.53122l-7.37353,-12.093" stroke="#5100a4"/><path d="M435.72825,193.47324l12.23422,35.90449l-7.17007,-12.1266" stroke="#000000"/></g><g data-paper-data="{&quot;index&quot;:null}"><path d="M449.601,210.89045l1.84156,14.38925l-12.23048,-35.68033" stroke="#5100a4"/><path d="M448.48973,214.36162l2.03,14.31249l-12.68066,-35.69562" stroke="#000000"/></g></g><g><g><path d="M205.38989,103.44619l34.70926,14.67025l-13.90381,-2.70068" stroke="#5100a4"/><path d="M208.40001,102.11634l34.77283,15.15451l-13.79153,-2.87367" stroke="#000000"/></g><g data-paper-data="{&quot;index&quot;:null}"><path d="M230.61715,103.60263l11.87276,8.33544l-34.60468,-15.00621" stroke="#5100a4"/><path d="M232.43314,106.76275l11.94302,8.14447l-34.91933,-14.68388" stroke="#000000"/></g></g></g></g></svg>