<svg version="1.1" xmlns="http://www.w3.org/2000/svg" xmlns:xlink="http://www.w3.org/1999/xlink" width="64.02905" height="55.259" viewBox="0,0,64.02905,55.259"><defs><radialGradient cx="253.83242" cy="168.28986" r="2.92899" gradientUnits="userSpaceOnUse" id="color-1"><stop offset="0" stop-color="#5100a4"/><stop offset="1" stop-color="#5100a4" stop-opacity="0"/></radialGradient><radialGradient cx="253.69835" cy="168.34792" r="4.46153" gradientUnits="userSpaceOnUse" id="color-2"><stop offset="0" stop-color="#5100a4"/><stop offset="1" stop-color="#5100a4" stop-opacity="0"/></radialGradient><linearGradient x1="206.85671" y1="170.15747" x2="224.69125" y2="170.15747" gradientUnits="userSpaceOnUse" id="color-3"><stop offset="0" stop-color="#050000"/><stop offset="1" stop-color="#0f0707"/></linearGradient></defs><g transform="translate(-205.42912,-140.20712)"><g data-paper-data="{&quot;isPaintingLayer&quot;:true}" fill-rule="nonzero" stroke="#000000" stroke-linejoin="miter" stroke-miterlimit="10" stroke-dasharray="" stroke-dashoffset="0" style="mix-blend-mode: normal"><g fill="none" stroke-width="4" stroke-linecap="round"><path d="M236.72434,159.58349l-0.14757,-8.33017l7.46063,15.81048l0.01778,-2.17937l-1.40103,-1.28942" data-paper-data="{&quot;index&quot;:null}"/><path d="M241.72502,159.69619l1.10268,-13.48351l9.18585,14.14402l2.41925,1.3142l2.27602,0.87002l-2.24545,-2.50024l-3.34276,-1.32248" data-paper-data="{&quot;index&quot;:null}"/><path d="M217.93483,171.91902l0.01616,1.99859l-1.37257,1.48904l3.96552,-24.41863l5.8021,10.08131" data-paper-data="{&quot;index&quot;:null}"/><path d="M227.42391,166.39659l-0.94019,1.65575l0.68266,2.06977l2.27445,-17.33375l2.40409,7.97709" data-paper-data="{&quot;index&quot;:null}"/></g><path d="M259.65141,171.84316c0.06367,3.52733 -3.64206,6.45463 -8.27697,6.53829c-4.6349,0.08367 -8.44387,-2.70797 -8.50754,-6.23531c-0.06367,-3.52733 3.64206,-6.45463 8.27696,-6.53829c4.6349,-0.08367 8.44388,2.70797 8.50755,6.23531z" fill="#000000" stroke-width="0" stroke-linecap="butt"/><path d="M261.52532,169.18689c0.06119,3.38991 -3.50017,6.20318 -7.95452,6.28359c-4.45434,0.08041 -8.11492,-2.60249 -8.17611,-5.99241c-0.06119,-3.38991 3.50017,-6.20317 7.95452,-6.28358c4.45434,-0.08041 8.11492,2.60248 8.17611,5.9924z" fill="#000000" stroke-width="0" stroke-linecap="butt"/><path d="M261.36369,170.73336c0.06367,3.52733 -3.64206,6.45463 -8.27697,6.53829c-4.6349,0.08367 -8.44387,-2.70797 -8.50754,-6.23531c-0.06367,-3.52733 3.64206,-6.45463 8.27696,-6.53829c4.6349,-0.08367 8.44388,2.70797 8.50755,6.23531z" fill="#000000" stroke-width="0" stroke-linecap="butt"/><path d="M258.54193,169.43568c0.06367,3.52733 -3.64206,6.45463 -8.27696,6.53829c-4.6349,0.08367 -8.44387,-2.70797 -8.50754,-6.23531c-0.06367,-3.52733 3.64206,-6.45463 8.27696,-6.53829c4.6349,-0.08367 8.44387,2.70797 8.50754,6.23531z" fill="#000000" stroke-width="0" stroke-linecap="butt"/><path d="M256.13666,171.94497c0,0 2.8118,-1.88926 4.23849,-2.4262c1.42871,-0.5377 5.08567,-1.15016 5.08567,-1.15016l-0.94764,1.05002l-1.94413,-0.63287" data-paper-data="{&quot;index&quot;:null}" fill="none" stroke-width="3" stroke-linecap="round"/><path d="M260.62415,177.21761l2.01778,0.02455l0.64967,1.30835c0,0 -2.65496,-1.0519 -3.56427,-2.35922c-0.90803,-1.30546 -1.88773,-5.47917 -1.88773,-5.47917" fill="none" stroke-width="3" stroke-linecap="round"/><path d="M259.80243,169.798c0.05645,3.12722 -4.0838,6.39873 -7.95286,6.46858c-1.16065,0.02095 -3.20798,0.2073 -4.17918,-0.17911c-2.26631,-0.9017 -2.88906,-3.16766 -2.92858,-5.35678c-0.05645,-3.12722 2.92643,-5.81143 6.79549,-5.88127c2.57433,-0.04647 4.87784,0.36446 6.43659,1.81339c0.78396,0.7287 1.80965,2.08871 1.82854,3.1352z" fill="#0a0300" stroke-width="0" stroke-linecap="butt"/><path d="M251.8607,169.12205l-0.45109,-2.258c0,0 3.56765,-0.09578 4.79713,1.16404c0.35714,0.36597 1.10362,1.15228 1.10362,1.15228c0,0 -1.17875,0.24526 -1.6313,0.39719c-0.76935,0.2583 -3.81837,-0.45553 -3.81837,-0.45553z" fill="url(#color-1)" stroke-width="0.5" stroke-linecap="butt"/><path d="M249.23754,168.42844c-0.04198,-2.32538 1.92117,-4.24652 4.38481,-4.29099c2.46364,-0.04447 4.49483,1.80457 4.53681,4.12994c0.04198,2.32538 -1.92116,4.24652 -4.3848,4.29099c-2.46364,0.04447 -4.49484,-1.80457 -4.53682,-4.12994z" fill="url(#color-2)" stroke-width="0" stroke-linecap="butt"/><g stroke-linecap="butt"><path d="M233.99072,162.41016c-0.10275,-0.74425 0.92583,-1.46071 2.29739,-1.60024c1.37157,-0.13954 2.56673,0.35067 2.66948,1.09492c0.10275,0.74425 -0.92582,1.46071 -2.29739,1.60024c-1.37157,0.13954 -2.56674,-0.35067 -2.66949,-1.09492z" fill="#000000" stroke-width="1"/><path d="M249.59323,173.45826c-0.37103,5.41265 -6.45717,9.47018 -13.59381,9.06275c-7.13661,-0.40744 -12.62119,-5.12557 -12.25016,-10.53821c0.37103,-5.41265 6.45719,-9.47016 13.59381,-9.06272c7.13661,0.40744 12.6212,5.12553 12.25016,10.53819z" fill="#000000" stroke-width="0"/><path d="M251.48917,168.9867c-0.35657,5.20179 -6.20562,9.10125 -13.06423,8.70969c-6.85858,-0.39156 -12.12951,-4.92589 -11.77293,-10.12768c0.35657,-5.20179 6.20564,-9.10123 13.06422,-8.70966c6.85858,0.39156 12.12952,4.92586 11.77293,10.12766z" fill="#000000" stroke-width="0"/><path d="M247.50803,169.39902c-0.37103,5.41265 -6.45717,9.47018 -13.59381,9.06275c-7.13661,-0.40744 -12.62119,-5.12557 -12.25016,-10.53821c0.37103,-5.41265 6.45719,-9.47017 13.5938,-9.06272c7.13661,0.40744 12.6212,5.12554 12.25017,10.5382z" fill="#000000" stroke-width="0"/><path d="M249.87781,169.90715c-0.37103,5.41265 -6.45717,9.47018 -13.59381,9.06274c-7.13661,-0.40744 -12.62119,-5.12555 -12.25016,-10.5382c0.37103,-5.41265 6.45719,-9.47017 13.5938,-9.06272c7.13661,0.40744 12.6212,5.12554 12.25017,10.5382z" fill="#000000" stroke-width="0"/><path d="M249.57778,169.90964c0.10182,5.64086 -5.24425,10.31166 -11.94078,10.43254c-5.15322,0.09302 -9.13174,-2.82719 -11.3439,-6.60727c-0.66251,-1.13207 -2.36268,-2.06187 -2.38614,-3.36188c-0.03441,-1.90626 0.49561,-4.64474 1.76221,-6.19516c2.05795,-2.51912 4.89219,-3.55227 8.60745,-3.78556c0.76446,-0.04801 2.34846,0.19497 3.10504,0.18131c1.50852,-0.02723 4.98045,0.1087 6.31146,0.45689c4.57754,1.19749 5.80578,4.509 5.88466,8.87914z" fill="#0a0300" stroke-width="1"/><path d="M225.84027,168.6871c-0.01999,-1.10756 1.83279,-2.03914 3.21327,-2.06406c1.38049,-0.02492 1.39098,0.87303 1.41098,1.98059c0.01999,1.10756 0.04191,2.0053 -1.33858,2.03022c-1.38049,0.02492 -3.26568,-0.83919 -3.28567,-1.94675z" fill="#000000" stroke-width="1"/><path d="M229.95406,177.8525c-0.25505,-0.85122 0.62049,-1.79677 1.95558,-2.11193c1.33509,-0.31516 2.62415,0.11938 2.87921,0.9706c0.25505,0.85122 -0.62049,1.79678 -1.95558,2.11194c-1.33509,0.31516 -2.62415,-0.11939 -2.87921,-0.97061z" fill="#000000" stroke-width="1"/><path d="M240.71998,166.5113c0.35292,-0.85054 1.69038,-1.18062 2.98732,-0.73726c1.29693,0.44337 2.06222,1.49229 1.7093,2.34282c-0.35292,0.85054 -1.69039,1.18063 -2.98732,0.73726c-1.29693,-0.44337 -2.06222,-1.49229 -1.7093,-2.34282z" fill="#000000" stroke-width="1"/><path d="M233.63159,170.90654c-0.01646,-0.91211 1.07406,-2.37947 2.0404,-2.39692c0.96634,-0.01744 1.02312,1.27187 1.03959,2.18397c0.01646,0.91211 0.42002,2.03781 -0.54633,2.05526c-0.96634,0.01744 -2.5172,-0.93022 -2.53366,-1.84233z" fill="#000000" stroke-width="1"/><path d="M241.70913,177.15807c-1.09552,-0.21719 -1.83567,-0.96079 -1.65316,-1.66086c0.1825,-0.70007 1.21856,-1.09151 2.31408,-0.8743c1.09552,0.21719 1.83567,0.96078 1.65316,1.66086c-0.1825,0.70007 -1.21855,1.09152 -2.31407,0.87431z" data-paper-data="{&quot;index&quot;:null}" fill="#000000" stroke-width="1"/></g><path d="M206.85672,174.31238c0,0 2.95622,-2.63828 4.85838,-4.04575c2.35647,-1.74362 10.27374,-4.26408 10.27374,-4.26408l2.70241,6.83633c0,0 -4.1235,-0.18918 -7.56341,-0.38686c-3.21769,-0.1849 -10.27113,1.86035 -10.27113,1.86035z" fill="url(#color-3)" stroke-width="1.5" stroke-linecap="butt"/><g fill="none" stroke-width="0.5" stroke-linecap="round"><path d="M243.42872,182.58069l-1.04759,-0.72915"/><path d="M244.57969,180.85086l1.6466,1.16717"/><path d="M241.01793,184.10038l-0.48908,-2.5346"/><path d="M246.84379,178.08935l1.22003,0.75463"/><path d="M238.86805,183.71031l-0.17202,-1.34342"/><path d="M236.52872,185.09905l-0.054,-2.99129"/><path d="M228.19657,181.95796l2.10645,-2.02488"/><path d="M225.34656,179.61561l2.78792,-1.09761"/><path d="M223.68376,177.55103l2.35554,-0.49136"/><path d="M223.21898,176.36252l1.16832,-0.76915"/><path d="M221.08793,164.73118l1.49617,1.02028"/><path d="M223.44347,164.23982l-1.34035,-0.57425"/><path d="M228.3744,159.06397l0.91067,1.33008"/><path d="M238.68025,156.93294l-0.55042,2.25414"/><path d="M244.36137,160.57075l1.5845,-2.27281"/><path d="M246.45117,161.72992l0.55582,-1.95499"/><path d="M234.65007,181.37273l-0.68698,2.87501"/><path d="M221.8535,174.11807l1.12806,-0.54401"/><path d="M222.74639,172.00737l-1.75795,0.03173"/><path d="M222.51501,170.65006l-0.82916,-0.08975l-1.66589,-0.59831"/><path d="M222.3738,168.55802l-0.50949,0.42812l-2.50261,-1.10684"/><path d="M220.35989,165.87142l1.78819,1.6434"/><path d="M223.70057,161.83141l1.47419,1.4396"/><path d="M224.71577,160.76578l1.57382,1.22834"/><path d="M226.4376,158.73288l2.28431,2.91115"/><path d="M232.31136,157.48681l0.55863,2.29396"/><path d="M234.18029,157.872l0.03024,1.67513"/><path d="M235.17522,161.41482l1.28574,-3.26982"/><g><path d="M242.6902,181.54673l-0.99834,-0.73004"/><path d="M245.35254,180.90022l-1.56921,-1.16858"/><path d="M239.73569,181.60007l0.46797,2.53497"/><path d="M245.87212,178.49703l1.34425,0.83868"/><path d="M238.18267,181.32887l0.16499,1.34354"/><path d="M236.0669,181.06784l0.054,2.99128"/><path d="M228.18278,180.91093l1.38261,-1.37148"/><path d="M225.46643,178.56614l2.65424,-1.0952"/><path d="M223.88103,176.50019l2.24296,-0.48933"/><path d="M224.54939,174.54315l-1.11204,0.76814"/><path d="M221.39778,163.6783l1.42581,1.02155"/><path d="M222.36373,162.61355l1.27702,0.57541"/><path d="M230.11073,160.61255l-1.33877,-2.81651"/><path d="M230.9565,160.21228l-0.97909,-2.97261"/><path d="M238.14577,155.89531l-0.5132,2.75534"/><path d="M243.02078,160.40144l2.04589,-3.13492"/><path d="M245.22796,161.23834l0.85055,-2.49395"/><path d="M234.34968,181.50484l-0.67106,1.80748"/><path d="M223.20884,172.52267l-1.07388,0.54303"/><path d="M221.3093,170.98602l1.67423,-0.03022"/><path d="M222.76199,169.59833l-0.78976,-0.09047l-1.58708,-0.59973"/><path d="M222.62572,167.50618l-0.48486,0.42766l-2.38441,-1.10898"/><path d="M222.40984,166.4628l-1.70447,-1.6449"/><path d="M223.88353,160.7808l1.40523,1.44084"/><path d="M224.84948,159.7161l1.49994,1.22967"/><path d="M226.83743,158.6389l1.31431,1.8614"/><path d="M232.61461,158.73809l-0.534,-2.29441"/><path d="M233.32679,157.24777l0.03024,1.67512"/><path d="M234.81149,160.3741l1.22171,-3.26866"/></g><path d="M231.32855,183.26792l0.908,-1.27314"/><path d="M229.76227,182.45837l1.41372,-1.91065"/><path d="M232.78382,183.66057l0.19548,-0.63191l0.29512,-0.84317"/><path d="M239.54812,157.25144l-0.075,2.2123"/><path d="M241.19322,156.6981l-0.37584,2.10137"/><path d="M242.84776,156.66825l-1.00731,2.69759"/><path d="M245.21509,178.93282l1.05866,1.34236"/><path d="M240.88522,180.98487l1.20355,2.40301"/><path d="M244.2358,181.98763l-1.05866,-1.34237"/><path d="M237.76259,184.40853l-0.55863,-2.29396"/><path d="M221.77468,175.48097l2.34628,-1.82275"/></g><g fill="none" stroke-width="4" stroke-linecap="round"><path d="M237.38534,174.96714l-0.94246,-9.37654l8.45552,20.38027l0.14825,-6.21741l-1.48196,-1.18795" data-paper-data="{&quot;index&quot;:null}"/><g><path d="M218.126,184.69507l-2.99325,4.79031l1.26783,1.59439l7.83234,-27.96669l6.22482,13.19002"/><path d="M244.41705,172.36109l0.50316,-12.51004l11.11778,20.84323l-3.02351,-1.67801l-0.71703,-1.84959" data-paper-data="{&quot;index&quot;:null}"/><path d="M228.73915,182.40881l-0.83225,1.69548l0.81489,2.00413l0.89654,-18.42918l3.17295,8.88738"/></g></g></g></g></svg>