<svg version="1.1" xmlns="http://www.w3.org/2000/svg" xmlns:xlink="http://www.w3.org/1999/xlink" width="49.4858" height="54.26679" viewBox="0,0,49.4858,54.26679"><defs><linearGradient x1="240.00004" y1="182.95146" x2="240.00004" y2="187.49848" gradientUnits="userSpaceOnUse" id="color-1"><stop offset="0" stop-color="#5c5c5c"/><stop offset="1" stop-color="#000000"/></linearGradient></defs><g transform="translate(-214.70774,-133.98169)"><g data-paper-data="{&quot;isPaintingLayer&quot;:true}" fill-rule="nonzero" stroke-linejoin="miter" stroke-miterlimit="10" stroke-dasharray="" stroke-dashoffset="0" style="mix-blend-mode: normal"><path d="M244.68505,170.77276v-11.18182" fill="none" stroke="#4c4c4c" stroke-width="0.75" stroke-linecap="round"/><path d="M243.79045,173.07366v-2.81607h1.72093v2.81607c0,0 -0.64005,0.54757 -0.93869,0.54757c-0.27262,0 -0.78224,-0.54757 -0.78224,-0.54757z" fill="#808080" stroke="#000000" stroke-width="0.5" stroke-linecap="butt"/><path d="M237.96377,162.40912c0,0 -4.99783,-2.2819 -4.99783,-4.02062c0,-2.10324 0,-7.3338 0,-10.69119c0,-1.76722 2.36827,-3.01546 3.89565,-3.01546c1.29924,0 3.86578,0 6.08696,0c2.17414,0 4.01739,1.02261 4.01739,2.74133c0,3.35311 0,8.8429 0,10.96532c0,1.73872 -5.00109,4.02062 -5.00109,4.02062z" fill="#4f4f4f" stroke="#000000" stroke-width="1" stroke-linecap="butt"/><path d="M238.40913,183.09094v-20.54546h3.18182v20.54546z" fill="#5b2a0d" stroke="#000000" stroke-width="1" stroke-linecap="butt"/><path d="M236.14776,158.3182v-10.81818c0,0 2.51315,-0.26328 3.77033,-0.26328c1.25798,0 3.77513,0.26328 3.77513,0.26328v10.81818c0,0 -1.61136,0.9166 -2.80945,1.27205c-1.00292,0.29756 -1.29539,0.04433 -1.88715,0.04433c-1.21023,0 -2.84886,-1.31638 -2.84886,-1.31638z" fill="#1a1a1a" stroke="#000000" stroke-width="1" stroke-linecap="butt"/><path d="M232.63641,186.06903c0,-0.61069 0,-1.31829 0,-1.68811c0,-0.56822 0.65255,-1.42946 1.22969,-1.42946c1.58331,0 8.87288,0 11.99138,0c0.85666,0 1.5062,0.91021 1.5062,1.31304c0,0.38209 0,1.12628 0,1.80453c0,0.75565 -0.74756,1.42945 -1.44798,1.42945c-1.71343,0 -8.94315,0 -11.93317,0c-0.79642,0 -1.34612,-0.65447 -1.34612,-1.42945z" fill="url(#color-1)" stroke="#000000" stroke-width="1.5" stroke-linecap="butt"/><text transform="translate(214.91615,142.06337) scale(0.20841,0.20841)" font-size="40" xml:space="preserve" fill="#ffffff" fill-rule="nonzero" stroke="#ffffff" stroke-width="2" stroke-linecap="butt" stroke-linejoin="miter" stroke-miterlimit="10" stroke-dasharray="" stroke-dashoffset="0" font-family="Handwriting" font-weight="normal" text-anchor="start" style="mix-blend-mode: normal"><tspan x="0" dy="0">Click/Press E</tspan></text></g></g></svg>