<svg version="1.1" xmlns="http://www.w3.org/2000/svg" xmlns:xlink="http://www.w3.org/1999/xlink" width="21.03097" height="36.77123" viewBox="0,0,21.03097,36.77123"><defs><linearGradient x1="229.91742" y1="165.41713" x2="250.1984" y2="165.41713" gradientUnits="userSpaceOnUse" id="color-1"><stop offset="0" stop-color="#3f2e16"/><stop offset="1" stop-color="#523e22"/></linearGradient><linearGradient x1="233.63364" y1="162.49416" x2="246.44678" y2="162.49416" gradientUnits="userSpaceOnUse" id="color-2"><stop offset="0" stop-color="#3f2e16"/><stop offset="1" stop-color="#523e22"/></linearGradient><linearGradient x1="231.78025" y1="183.42263" x2="247.50215" y2="183.42263" gradientUnits="userSpaceOnUse" id="color-3"><stop offset="0" stop-color="#3f2e16"/><stop offset="1" stop-color="#523e22"/></linearGradient></defs><g transform="translate(-229.54242,-158.60625)"><g data-paper-data="{&quot;isPaintingLayer&quot;:true}" fill-rule="nonzero" stroke-linejoin="miter" stroke-miterlimit="10" stroke-dasharray="" stroke-dashoffset="0" style="mix-blend-mode: normal"><path d="M231.77573,171.21047c-0.01054,-4.83838 3.65231,-8.77054 8.18121,-8.78279c4.52888,-0.01226 8.20882,3.90008 8.21936,8.73841c0.01054,4.83838 -3.15298,7.90312 -7.68185,7.91538c-4.52888,0.01226 -8.70813,-3.03263 -8.71867,-7.87099z" fill="#000000" stroke="#000000" stroke-width="0.5" stroke-linecap="butt"/><path d="M239.14193,172.74187c0.11601,-0.35603 1.03695,-0.33219 1.92438,-0.30742c0.88743,0.02478 2.02558,0.08831 1.91922,0.41474c-0.10636,0.32643 -1.16757,0.60747 -2.22894,0.53579c-1.06139,-0.07168 -1.73067,-0.28708 -1.61466,-0.64311z" fill="#ffffff" stroke="none" stroke-width="0" stroke-linecap="butt"/><path d="M250.1984,165.38329c0.00256,1.44632 -4.53543,2.63396 -10.13585,2.65264c-5.60045,0.01868 -10.14256,-1.13865 -10.14512,-2.58498c-0.00256,-1.44632 4.53543,-2.63396 10.13585,-2.65264c5.60045,-0.01868 10.14256,1.13867 10.14512,2.58498z" fill="url(#color-1)" stroke="#000000" stroke-width="0.75" stroke-linecap="butt"/><path d="M233.63796,163.58422c0.12354,-0.42588 0.3854,-0.99491 0.52611,-1.591c0.16415,-0.69547 0.19875,-1.39196 0.19875,-1.39196c0,0 3.70078,-1.98833 6.17086,-1.99501c2.47007,-0.00669 5.56194,1.94798 5.56262,2.26761c0.00098,0.44905 0.08187,1.51798 0.34083,2.42909c0.22218,0.78163 -3.43049,3.10552 -6.86581,3.07893c-3.12785,-0.02422 -6.06532,-2.34277 -5.93339,-2.79766z" fill="url(#color-2)" stroke="#000000" stroke-width="0.75" stroke-linecap="butt"/><path d="M242.92575,194.02079c0,0 -0.25753,-0.62202 -0.23644,-1.35011c0.03424,-1.18148 0.09435,-2.88212 0.174,-3.67571c0.12918,-1.28688 0.38816,-3.86698 0.38816,-3.86698" fill="none" stroke="#000000" stroke-width="2.5" stroke-linecap="round"/><path d="M237.65924,194.12748c0,0 -0.24303,-0.6886 -0.20588,-1.3743c0.06402,-1.1816 0.07215,-2.80457 0.12967,-3.37745c0.12862,-1.28128 0.38481,-3.8335 0.38481,-3.8335" fill="none" stroke="#000000" stroke-width="2.5" stroke-linecap="round"/><path d="M232.43772,186.85311c0.51189,-0.74206 0.71734,-1.46345 0.85851,-1.9193c0.0867,-0.27996 -0.95095,-0.92563 -0.96492,-1.20628c-0.03439,-0.69072 0.55736,-0.73972 0.77558,-1.39261c0.16347,-0.48912 -0.24131,-1.16941 0.03745,-1.52287c0.48021,-0.60894 0.5037,-1.18804 0.63296,-1.62511c0.15285,-0.51687 -0.09,-0.8319 -0.22015,-1.34958c-0.19196,-0.7636 -0.34938,-1.81702 -0.34938,-1.81702c0,0 4.6379,2.29675 6.98861,2.29675c2.40828,0 6.69209,-2.47334 6.69209,-2.47334c0,0 0.58274,2.38758 0.53232,3.07623c0.21534,0.85617 -0.09382,1.31718 0.06852,1.85783c0.13496,0.44949 -0.83904,1.66557 -0.68156,2.14546c0.08197,0.24978 0.76378,1.08832 0.5867,1.88638c-0.18311,0.82527 -1.11918,1.41952 -1.21733,1.80201c-0.07556,0.29442 0.37948,1.60334 0.35649,2.24988c-0.04242,1.19353 -1.63845,1.64503 -1.63845,1.64503c0,0 -0.01544,-0.7951 -1.91968,-0.9058c-1.15732,-0.06729 -3.15073,1.06912 -4.38572,0.61653c-2.76483,-1.01323 -3.40123,-0.01134 -4.52668,-0.00535c-0.56846,0.00303 -0.66101,0.84315 -1.07792,0.78682c-0.62103,-0.08391 -1.51284,-1.08363 -1.09922,-2.31713c0,0 0.10058,-1.17445 0.55178,-1.82854z" fill="url(#color-3)" stroke="#000000" stroke-width="1" stroke-linecap="butt"/><path d="M242.16885,177.99038c0,0 -0.16409,0.92763 -0.16197,1.68668c0.00073,0.26573 0.19866,1.0516 0.26277,1.50112c0.05714,0.40064 -0.01963,0.90523 -0.00548,1.39685c0.00691,0.23965 -0.36217,0.62679 -0.37647,0.98912c-0.02014,0.51029 0.31089,1.01613 0.3149,1.38155c0.00358,0.32468 -0.37132,0.76525 -0.25031,1.37432c0.11794,0.59367 0.41797,1.17433 0.43849,1.45326c0.11754,1.59792 -0.49182,1.95506 -0.49182,1.95506" fill="none" stroke="#000000" stroke-width="0.5" stroke-linecap="round"/><path d="M241.59669,179.66901c0,-0.30433 0.22736,-0.55103 0.50783,-0.55103c0.28046,0 0.50782,0.24671 0.50782,0.55103c0,0.30433 -0.22736,0.55103 -0.50782,0.55103c-0.28046,0 -0.50783,-0.24671 -0.50783,-0.55103z" fill="#000000" stroke="#000000" stroke-width="0.5" stroke-linecap="butt"/><path d="M241.75294,182.2849c0,-0.30433 0.22737,-0.55103 0.50783,-0.55103c0.28046,0 0.50783,0.24671 0.50783,0.55103c0,0.30433 -0.22736,0.55103 -0.50783,0.55103c-0.28046,0 -0.50783,-0.24671 -0.50783,-0.55103z" fill="#000000" stroke="#000000" stroke-width="0.5" stroke-linecap="butt"/><path d="M241.51857,184.94114c0,-0.30433 0.22736,-0.55103 0.50782,-0.55103c0.28046,0 0.50783,0.24671 0.50783,0.55103c0,0.30433 -0.22736,0.55103 -0.50783,0.55103c-0.28046,0 -0.50782,-0.24671 -0.50782,-0.55103z" fill="#000000" stroke="#000000" stroke-width="0.5" stroke-linecap="butt"/><path d="M241.78086,187.61962c0,-0.30433 0.22736,-0.55103 0.50782,-0.55103c0.28046,0 0.50783,0.24671 0.50783,0.55103c0,0.30433 -0.22737,0.55103 -0.50783,0.55103c-0.28046,0 -0.50782,-0.24671 -0.50782,-0.55103z" fill="#000000" stroke="#000000" stroke-width="0.5" stroke-linecap="butt"/><path d="M243.89414,172.78221c0.18948,-0.30526 0.96889,-0.57433 1.83904,-0.56531c0.87015,0.00902 1.77029,0.29549 1.58081,0.60075c-0.18948,0.30526 -1.06969,0.51702 -2.04209,0.43562c-0.97242,-0.08141 -1.56724,-0.1658 -1.37776,-0.47105z" fill="#ffffff" stroke="none" stroke-width="0" stroke-linecap="butt"/></g></g></svg>