<svg version="1.1" xmlns="http://www.w3.org/2000/svg" xmlns:xlink="http://www.w3.org/1999/xlink" width="482.37558" height="451.29836" viewBox="0,0,482.37558,451.29836"><g transform="translate(2.51855,3.5)"><g data-paper-data="{&quot;isPaintingLayer&quot;:true}" fill-rule="nonzero" stroke-linejoin="miter" stroke-miterlimit="10" stroke-dasharray="" stroke-dashoffset="0" style="mix-blend-mode: normal"><path d="M-2.51855,67.5v-71h482v71z" data-paper-data="{&quot;index&quot;:null}" fill="#000000" stroke="none" stroke-width="0" stroke-linecap="butt"/><path d="M404.78951,115.5v-53h74.49796v53z" data-paper-data="{&quot;index&quot;:null}" fill="#000000" stroke="none" stroke-width="0" stroke-linecap="butt"/><path d="M258.08665,170.25v-23.5l57.90309,0l0.12025,-20.5h30.47666v44z" fill="#000000" stroke="none" stroke-width="0" stroke-linecap="butt"/><path d="M90.58665,317.25v-74h74v74z" fill="#000000" stroke="none" stroke-width="0" stroke-linecap="butt"/><path d="M152.04733,258.06876l-5.63177,-7.94925l63.0972,-44.7022l5.63177,7.94925z" fill="#000000" stroke="none" stroke-width="0" stroke-linecap="butt"/><path d="M98.77415,157.33334v-93.5h93v93.5z" fill="#000000" stroke="none" stroke-width="0" stroke-linecap="butt"/><path d="M394.30892,150.58616l15.31106,-36.79771" fill="none" stroke="#000000" stroke-width="8" stroke-linecap="round"/><path d="M376.54954,155.47669c0.34309,-7.03327 6.3228,-12.45673 13.35607,-12.11364c7.03327,0.34309 12.45673,6.3228 12.11364,13.35607c-0.34309,7.03327 -6.3228,12.45673 -13.35607,12.11364c-7.03327,-0.34309 -12.45673,-6.3228 -12.11364,-13.35607z" fill="#000000" stroke="#000000" stroke-width="0" stroke-linecap="butt"/><path d="M358.3844,319v-116.5h121.32507v116.5z" data-paper-data="{&quot;index&quot;:null}" fill="#000000" stroke="none" stroke-width="0" stroke-linecap="butt"/><path d="M-1.01387,447.79836v-131.79836h480.8709v131.79836z" data-paper-data="{&quot;index&quot;:null}" fill="#000000" stroke="none" stroke-width="0" stroke-linecap="butt"/><path d="M-1.24817,318.25v-130h40.91509v130z" fill="#000000" stroke="none" stroke-width="0" stroke-linecap="butt"/><path d="M188.5842,229.41666c0,0 0,17.85223 0,24.5c0,4.56276 -26,17.04167 -26,17.04167" fill="none" stroke="#000000" stroke-width="7" stroke-linecap="round"/></g></g></svg>