<svg version="1.1" xmlns="http://www.w3.org/2000/svg" xmlns:xlink="http://www.w3.org/1999/xlink" width="351.70744" height="162.30934" viewBox="0,0,351.70744,162.30934"><defs><linearGradient x1="160.80623" y1="154.53345" x2="187.15062" y2="166.33166" gradientUnits="userSpaceOnUse" id="color-1"><stop offset="0" stop-color="#050000"/><stop offset="1" stop-color="#0f0707"/></linearGradient><radialGradient cx="311.47838" cy="157.08422" r="13.33459" gradientUnits="userSpaceOnUse" id="color-2"><stop offset="0" stop-color="#5100a4"/><stop offset="1" stop-color="#5100a4" stop-opacity="0"/></radialGradient><radialGradient cx="156.62249" cy="164.92261" r="11.52692" gradientUnits="userSpaceOnUse" id="color-3"><stop offset="0" stop-color="#5100a4"/><stop offset="1" stop-color="#5100a4" stop-opacity="0"/></radialGradient><radialGradient cx="156.42156" cy="164.8283" r="10.50984" gradientUnits="userSpaceOnUse" id="color-4"><stop offset="0" stop-color="#5100a4"/><stop offset="1" stop-color="#5100a4" stop-opacity="0"/></radialGradient></defs><g transform="translate(-145.09571,-86.90712)"><g data-paper-data="{&quot;isPaintingLayer&quot;:true}" fill-rule="nonzero" stroke-linejoin="miter" stroke-miterlimit="10" stroke-dasharray="" stroke-dashoffset="0" style="mix-blend-mode: normal"><g fill="none"><path d="M418.91692,157.34217c4.09629,1.80289 3.50465,1.11451 8.31923,3.23357c10.78828,4.74825 22.98661,9.17189 22.98661,9.17189l-20.67728,-0.62621l-0.02922,-5.86863" data-paper-data="{&quot;index&quot;:null}" stroke="#5100a4" stroke-width="15" stroke-linecap="round"/><g><path d="M340.20598,120.45293l-2.14683,14.55097" stroke="#000000" stroke-width="1.5" stroke-linecap="round"/><path d="M342.72887,138.48452l1.44088,-17.32604" stroke="#000000" stroke-width="1.5" stroke-linecap="round"/><g><path d="M348.05889,140.50374l-0.01475,-17.63867" stroke="#000000" stroke-width="1.5" stroke-linecap="round"/><path d="M352.42578,141.44162l0.15307,-18.33137" stroke="#000000" stroke-width="1.5" stroke-linecap="round"/><path d="M356.05395,143.53256l0.64555,-19.10008" stroke="#000000" stroke-width="1.5" stroke-linecap="round"/><path d="M361.36923,127.91311l-0.7915,17.17402" stroke="#000000" stroke-width="1.5" stroke-linecap="round"/><path d="M366.29613,129.69999l-1.42994,16.01665" stroke="#000000" stroke-width="1.5" stroke-linecap="round"/><path d="M370.41676,131.02222l-2.24713,16.86139" stroke="#000000" stroke-width="1.5" stroke-linecap="round"/><path d="M372.20092,150.20689l0.89181,-19.48444" stroke="#000000" stroke-width="1.5" stroke-linecap="round"/><g><g><g stroke="#000000" stroke-width="1.5" stroke-linecap="round"><path d="M340.37352,135.635l2.14683,-14.55096"/><path d="M345.04323,139.11562l1.44088,-17.32604"/><path d="M350.35851,123.49617l0.01475,17.63867"/><path d="M354.74016,142.07273l0.15306,-18.33137"/><path d="M358.36832,144.16366l0.64555,-19.10008"/><path d="M362.89209,145.71823l0.7915,-17.17402"/><path d="M367.18055,146.34776l1.42994,-16.01665"/><path d="M372.73114,131.65333l-2.24714,16.86139"/><path d="M375.4071,131.35356l-0.89181,19.48445"/><path d="M378.81468,150.15814l2.7287,-16.32072"/><path d="M387.60124,136.01296l-4.27371,17.00914"/><path d="M391.9572,138.26021l-3.6134,15.54772"/><path d="M391.97194,155.89889l4.82278,-14.85075"/><path d="M397.31292,156.60872l4.99059,-15.54344"/><path d="M401.75825,157.85494l4.82278,-14.85075"/><path d="M409.97387,144.17011l-4.58747,15.77577"/></g><g stroke="none" stroke-width="1" stroke-linecap="butt" font-family="sans-serif" font-weight="normal" font-size="12" text-anchor="start"><g/></g><path d="M379.22902,133.20632l-2.72871,16.32071" stroke="#000000" stroke-width="1.5" stroke-linecap="round"/><path d="M385.28686,135.38185l-4.27371,17.00914" stroke="#000000" stroke-width="1.5" stroke-linecap="round"/><path d="M389.64283,137.62911l-3.61339,15.54772" stroke="#000000" stroke-width="1.5" stroke-linecap="round"/><path d="M394.48036,140.41704l-4.82278,14.85075" stroke="#000000" stroke-width="1.5" stroke-linecap="round"/><path d="M394.99855,155.97762l4.99059,-15.54345" stroke="#000000" stroke-width="1.5" stroke-linecap="round"/><path d="M399.44389,157.22383l4.82278,-14.85074" stroke="#000000" stroke-width="1.5" stroke-linecap="round"/><path d="M403.07203,159.31478l4.58747,-15.77577" stroke="#000000" stroke-width="1.5" stroke-linecap="round"/><path d="M407.27113,160.94534l4.91215,-15.85179" stroke="#000000" stroke-width="1.5" stroke-linecap="round"/></g></g></g></g><g stroke="#000000" stroke-linecap="round"><path d="M308.5057,95.05926" stroke-width="1.5"/><g><path d="" stroke-width="1.5"/><path d="" stroke-width="1.5"/><path d="" stroke-width="1.5"/><path d="" stroke-width="1.5"/><path d="" stroke-width="1.5"/><path d="M323.04542,123.84793" stroke-width="1.5"/><path d="M325.95338,126.75589" stroke-width="1.5"/><g><g><g stroke-width="1.5"><path d="M307.12752,94.6493"/><path d=""/><path d=""/><path d=""/><path d=""/><path d="M324.86599,124.89194"/><path d="M327.77394,127.7999"/><path d="M331.55427,128.09068"/><path d="M334.75301,131.58023"/><path d="M338.82414,133.32499"/><path d="M341.44128,135.94215"/><path d="M345.80321,137.68692"/><path d="M349.29274,139.72248"/><path d="M351.90989,142.33963"/></g><g stroke-width="10"><path d="M258.39429,179.70242l5.532,-41.63753l12.55365,78.08846l1.24692,-7.24815" data-paper-data="{&quot;index&quot;:null}"/><g><path d="M186.7204,211.34191l-0.05034,7.00007l34.74295,-94.33074l2.20424,47.34851"/><path d="M227.8316,203.77882l-3.70909,5.53449l0.90064,7.32049l17.29388,-80.13678l3.96296,42.29943"/></g></g><path d="M329.73371,127.04667" stroke-width="1.5"/><path d="" stroke-width="1.5"/><path d="M337.00358,132.28098" stroke-width="1.5"/><path d="M339.62072,134.89814" stroke-width="1.5"/><path d="M343.98265,136.64291" stroke-width="1.5"/><path d="M347.47218,138.67847" stroke-width="1.5"/><path d="M350.08933,141.29562" stroke-width="1.5"/><path d="M353.28808,143.62197" stroke-width="1.5"/></g></g></g></g><path d="M280.40048,185.40163l53.50565,-60.2847l117.34369,44.5298l-19.40436,-0.85692l1.07486,-5.36503" data-paper-data="{&quot;index&quot;:null}" stroke="#000000" stroke-width="10" stroke-linecap="round"/></g><g stroke="#000000" stroke-linecap="butt"><path d="M221.64731,158.66098c1.64955,-0.50176 3.63833,1.36462 4.44204,4.16866c0.80372,2.80407 0.11803,5.48394 -1.53152,5.9857c-1.64955,0.50176 -3.63834,-1.36459 -4.44203,-4.16865c-0.80372,-2.80407 -0.11804,-5.48396 1.53152,-5.98571z" fill="#000000" stroke-width="1"/><path d="M202.16479,195.4427c-12.39413,1.31889 -23.74997,-9.79479 -25.36403,-24.82316c-1.61402,-15.02832 7.12504,-28.28033 19.51914,-29.59922c12.39413,-1.31889 23.74994,9.79484 25.36397,24.82318c1.61402,15.02832 -7.12494,28.28034 -19.51909,29.59921z" fill="#000000" stroke-width="0"/><path d="M212.96901,197.66506c-11.91128,1.26752 -22.82475,-9.41323 -24.37591,-23.85611c-1.55115,-14.44284 6.84746,-27.17862 18.75874,-28.44612c11.91128,-1.26752 22.82471,9.41327 24.37585,23.85611c1.55115,14.44284 -6.84739,27.17863 -18.7587,28.44611z" fill="#000000" stroke-width="0"/><path d="M210.61961,189.52877c-12.39413,1.31889 -23.74999,-9.79479 -25.36403,-24.82316c-1.61402,-15.02832 7.12503,-28.28032 19.51913,-29.59921c12.39413,-1.31889 23.74997,9.79483 25.36396,24.82315c1.61402,15.02832 -7.12495,28.28033 -19.5191,29.59922z" fill="#000000" stroke-width="0"/><path d="M210.31092,194.66317c-12.39413,1.31889 -23.74999,-9.79479 -25.36402,-24.82317c-1.61402,-15.02832 7.12498,-28.28031 19.51912,-29.5992c12.39413,-1.31889 23.74997,9.79483 25.36396,24.82315c1.61402,15.02832 -7.12496,28.28034 -19.51911,29.59923z" fill="#000000" stroke-width="0"/><path d="M210.19862,194.03894c-12.74304,2.39238 -25.22515,-6.94215 -27.8796,-20.84925c-2.04271,-10.70201 3.15859,-20.12089 10.93585,-26.19147c2.32916,-1.81805 3.8312,-5.72012 6.76799,-6.27148c4.30635,-0.80848 10.69874,-0.7625 14.66145,1.27752c6.4386,3.31457 9.78675,8.82108 11.63603,16.47254c0.38054,1.57439 0.39317,4.96894 0.69308,6.54017c0.59796,3.13285 1.52429,10.41997 1.20865,13.32804c-1.08557,10.00124 -8.15108,13.84047 -18.02348,15.69392z" fill="#0a0300" stroke-width="1"/><path d="M204.52958,144.10364c2.50205,-0.46973 5.27116,3.03091 5.81839,5.89784c0.54722,2.86694 -1.48333,3.23586 -3.98538,3.70562c-2.50205,0.46974 -4.52806,0.86238 -5.07528,-2.00456c-0.54722,-2.86694 0.74021,-7.12918 3.24226,-7.59891z" fill="#000000" stroke-width="1"/><path d="M185.22804,156.21818c1.83775,-0.86046 4.29113,0.59849 5.47973,3.25866c1.18861,2.66017 0.66242,5.51417 -1.17532,6.37466c-1.83775,0.86046 -4.29115,-0.59847 -5.47975,-3.25864c-1.18861,-2.66016 -0.6624,-5.51419 1.17534,-6.37468z" fill="#000000" stroke-width="1"/><path d="M214.74853,174.26813c2.05235,0.40666 3.27558,3.06599 2.73224,5.93984c-0.54339,2.87384 -2.64764,4.87392 -4.69996,4.46726c-2.05235,-0.40666 -3.27561,-3.06601 -2.73223,-5.93984c0.54339,-2.87384 2.64763,-4.87392 4.69995,-4.46725z" fill="#000000" stroke-width="1"/><path d="M202.2713,161.19654c2.06051,-0.38683 5.77247,1.31839 6.15553,3.32524c0.38304,2.00686 -2.51767,2.6235 -4.57816,3.01035c-2.06051,0.38683 -4.4673,1.66284 -4.85037,-0.34403c-0.38304,-2.00686 1.21253,-5.60472 3.27304,-5.99156z" fill="#000000" stroke-width="1"/><path d="M190.98017,180.44427c0.10258,-2.36673 1.52407,-4.1964 3.17494,-4.08668c1.65087,0.1097 2.90598,2.11729 2.80336,4.48402c-0.10258,2.36673 -1.52404,4.19639 -3.17494,4.08667c-1.65087,-0.1097 -2.90601,-2.11726 -2.80337,-4.48398z" data-paper-data="{&quot;index&quot;:null}" fill="#000000" stroke-width="1"/></g><path d="M333.3173,168.21273l4.27156,0.438l2.83662,-2.04527l-14.38407,2.78571l-7.67936,-6.48257" data-paper-data="{&quot;index&quot;:null}" fill="none" stroke="#000000" stroke-width="7.5" stroke-linecap="round"/><path d="M321.49021,157.85735l4.98781,-6.45944l12.20227,0.63875l-2.85627,-1.47577l-3.31604,0.89175" data-paper-data="{&quot;index&quot;:null}" fill="none" stroke="#000000" stroke-width="7.5" stroke-linecap="round"/><path d="M167.93577,157.99462c4.23343,-2.3887 17.01632,-2.85749 17.01632,-2.85749l1.04119,17.26536c0,0 -6.00938,-3.15616 -11.00532,-5.87935c-4.67321,-2.54725 -15.97498,-2.58287 -15.97498,-2.58287c0,0 5.50552,-4.01745 8.92279,-5.94564z" fill="url(#color-1)" stroke="#000000" stroke-width="4" stroke-linecap="butt"/><g stroke="#000000" stroke-width="0" stroke-linecap="butt"><path d="M327.72884,159.6626c0.17459,12.18463 -9.98714,22.29655 -22.69684,22.58553c-12.70968,0.28902 -23.15451,-9.35427 -23.3291,-21.53893c-0.17459,-12.18463 9.98714,-22.29655 22.69682,-22.58555c12.70968,-0.28902 23.15453,9.35428 23.32912,21.53894z" fill="#000000"/><g><path d="M318.84434,159.69655c0.18618,12.18463 -10.65013,22.29655 -24.20352,22.58553c-13.5534,0.28902 -24.6916,-9.35427 -24.87778,-21.53894c-0.18618,-12.18463 10.65012,-22.29655 24.20352,-22.58553c13.5534,-0.28902 24.69161,9.35428 24.87779,21.53894z" fill="#000000"/><path d="M322.842,163.32942c0.17459,12.18463 -9.98714,22.29655 -22.69684,22.58553c-12.70968,0.28902 -23.15451,-9.35428 -23.3291,-21.53894c-0.17459,-12.18463 9.98714,-22.29655 22.6968,-22.58554c12.70968,-0.28902 23.15454,9.35429 23.32914,21.53894z" fill="#000000"/><path d="M323.09767,157.11376c0.1678,11.70994 -9.59806,21.42795 -21.81263,21.70572c-12.21455,0.27776 -22.25247,-8.98991 -22.42026,-20.69988c-0.1678,-11.70994 9.59805,-21.42791 21.81262,-21.70568c12.21455,-0.27776 22.25248,8.98987 22.42027,20.69984z" fill="#000000"/><path d="M320.38381,160.94812c0.15479,10.8025 -11.19845,22.10345 -21.80807,22.34473c-3.1827,0.07237 -8.79682,0.71608 -11.46001,-0.61871c-6.2146,-3.11479 -7.92229,-10.9422 -8.03066,-18.50418c-0.15479,-10.8025 8.02475,-20.07471 18.63437,-20.31596c7.05925,-0.16053 13.37585,1.25897 17.6502,6.26408c2.14975,2.51719 4.96236,7.21514 5.01416,10.83008z" fill="#060200"/></g></g><g stroke="#000000" stroke-linecap="butt"><path d="M245.64878,141.6332c-0.30813,-2.36425 2.7764,-4.64023 6.88945,-5.08348c4.11308,-0.44327 7.69715,1.11397 8.00528,3.47823c0.30813,2.36425 -2.77636,4.64022 -6.88945,5.08348c-4.11308,0.44327 -7.69717,-1.11397 -8.0053,-3.47822z" fill="#000000" stroke-width="1"/><path d="M292.43782,176.72966c-1.11264,17.19435 -19.36387,30.08389 -40.76534,28.7896c-21.40138,-1.29432 -37.84861,-16.28239 -36.73596,-33.47669c1.11264,-17.19435 19.36392,-30.08382 40.76533,-28.7895c21.40138,1.29432 37.84865,16.28226 36.73597,33.47664z" fill="#000000" stroke-width="0"/><path d="M298.12334,162.52488c-1.06928,16.52451 -18.60952,28.9119 -39.17722,27.66804c-20.56761,-1.24386 -36.37416,-15.64807 -35.30485,-32.17256c1.06929,-16.52451 18.60958,-28.91185 39.17719,-27.66795c20.56762,1.24386 36.3742,15.64796 35.30485,32.17251z" fill="#000000" stroke-width="0"/><path d="M286.18469,163.83469c-1.11264,17.19435 -19.36385,30.08389 -40.76533,28.78961c-21.40138,-1.29432 -37.84862,-16.28238 -36.73597,-33.47669c1.11264,-17.19435 19.36393,-30.08385 40.76531,-28.7895c21.40138,1.29431 37.84864,16.28228 36.736,33.47665z" fill="#000000" stroke-width="0"/><path d="M293.29116,165.44886c-1.11264,17.19435 -19.36386,30.08389 -40.76533,28.78958c-21.40138,-1.29432 -37.84862,-16.28231 -36.73598,-33.47665c1.11264,-17.19435 19.36392,-30.08386 40.7653,-28.78951c21.40138,1.29432 37.84864,16.28228 36.736,33.47665z" fill="#000000" stroke-width="0"/><path d="M292.39144,165.45675c0.30534,17.9193 -15.72654,32.75701 -35.8082,33.14101c-15.45355,0.29549 -27.38442,-8.98112 -34.01827,-20.98928c-1.98675,-3.59624 -7.08524,-6.54994 -7.15559,-10.67968c-0.10318,-6.0556 1.48624,-14.75494 5.28454,-19.68014c6.17141,-8.00249 14.67078,-11.28447 25.81216,-12.02557c2.29248,-0.1525 7.04259,0.61936 9.31144,0.57596c4.52377,-0.0865 14.93545,0.34531 18.92691,1.45139c13.72721,3.80406 17.41046,14.32372 17.64702,28.20632z" fill="#0a0300" stroke-width="1"/><path d="M221.20708,161.57313c-0.05995,-3.51837 5.4962,-6.47773 9.63599,-6.5569c4.13983,-0.07917 4.1713,2.77335 4.23127,6.29174c0.05995,3.51837 0.12568,6.37022 -4.01415,6.44939c-4.13983,0.07917 -9.79317,-2.66585 -9.85312,-6.18422z" fill="#000000" stroke-width="1"/><path d="M233.54358,190.68883c-0.76485,-2.70407 1.86074,-5.7078 5.86443,-6.70896c4.00369,-1.00116 7.86935,0.37923 8.63422,3.08329c0.76485,2.70407 -1.86073,5.70783 -5.86442,6.70899c-4.00369,1.00116 -7.86936,-0.37927 -8.63423,-3.08333z" fill="#000000" stroke-width="1"/><path d="M265.82858,154.66126c1.05833,-2.70191 5.06914,-3.75047 8.95842,-2.34206c3.88926,1.40846 6.18421,4.74055 5.12588,7.44244c-1.05833,2.70191 -5.06918,3.75051 -8.95843,2.34205c-3.88926,-1.40846 -6.18421,-4.74056 -5.12587,-7.44243z" fill="#000000" stroke-width="1"/><path d="M244.57182,168.62362c-0.04936,-2.8975 3.22091,-7.55884 6.11878,-7.61428c2.89788,-0.0554 3.06814,4.04034 3.11753,6.93781c0.04936,2.8975 1.25958,6.4735 -1.63833,6.52893c-2.89788,0.0554 -7.54862,-2.95502 -7.59798,-5.85252z" fill="#000000" stroke-width="1"/><path d="M268.79483,188.48284c-3.28526,-0.68995 -5.50483,-3.05214 -4.95752,-5.27605c0.54728,-2.22391 3.65424,-3.46739 6.9395,-2.77738c3.28526,0.68995 5.50482,3.05211 4.95751,5.27605c-0.54728,2.22391 -3.6542,3.46742 -6.93946,2.77742z" data-paper-data="{&quot;index&quot;:null}" fill="#000000" stroke-width="1"/></g><g data-paper-data="{&quot;index&quot;:null}" fill="none" stroke="#000000" stroke-width="1.5" stroke-linecap="round"><path d="M240.67364,203.91697l-3.01334,2.38986"/><path d="M236.11031,198.91992l-4.73636,3.82554"/><path d="M245.49853,203.47099l-1.40681,8.30741"/><path d="M227.33394,192.07664l-3.50935,2.47338"/><path d="M261.08337,204.37952l-0.49482,4.40319"/><path d="M257.00468,215.05162l0.15533,-9.80423"/><path d="M274.91255,198.11966l6.05908,6.63674"/><path d="M289.16954,197.07912l-8.0193,-3.59752"/><path d="M287.1769,188.70176l6.77559,1.61047"/><path d="M295.28942,186.41677l-3.3606,-2.52096"/><path d="M301.41925,148.29388l-4.30366,3.34405"/><path d="M298.49908,144.80122l-3.85544,1.88216"/><path d="M278.04719,133.24785l2.61949,-4.35946"/><path d="M250.51241,123.94845l1.58325,7.38816"/><path d="M229.91675,127.20829l4.55774,7.44937"/><path d="M226.1844,132.38091l1.5988,6.40767"/><path d="M264.38455,212.26138l-1.97606,-9.42313"/><path d="M299.21709,179.06038l-3.2448,-1.78305"/><path d="M296.64876,172.14233l5.05663,0.10399"/><path d="M304.49118,165.43844l-4.79182,1.96101l-2.38503,0.29415"/><path d="M306.38464,158.61216l-7.19862,3.6278l-1.46551,-1.40322"/><path d="M298.36976,157.41755l5.14363,-5.38642"/><path d="M293.90413,138.7896l-4.24044,4.71844"/><path d="M286.45696,139.32289l4.52699,-4.02602"/><path d="M287.05138,128.38509l-6.57069,9.5416"/><path d="M267.52882,132.06841l1.60687,-7.5187"/><path d="M263.67282,131.30263l0.08698,-5.49041"/><path d="M260.8979,137.42419l-3.69835,-10.71718"/><g><path d="M242.15318,201.01577l-2.87166,2.39277"/><path d="M233.37033,198.19536l-4.51374,3.83015"/><path d="M247.78001,203.58339l-1.3461,8.30861"/><path d="M226.26226,196.1617l3.86666,-2.74886"/><path d="M249.25728,207.83402l0.47458,-4.40359"/><path d="M258.17774,211.64317l0.15533,-9.80422"/><path d="M281.01126,201.32465l-3.97699,-4.49516"/><path d="M288.82473,193.63937l-7.63477,-3.58962"/><path d="M286.93331,185.26419l6.45175,1.60382"/><path d="M291.46251,180.45361l3.19872,2.51767"/><path d="M300.52799,144.84298l-4.10125,3.34822"/><path d="M294.07616,143.23912l3.67328,-1.88597"/><path d="M275.46567,132.80471l3.85089,-9.2314"/><path d="M273.03285,133.77351l2.81629,-9.74302"/><path d="M253.86253,123.07137l1.47619,9.0309"/><path d="M239.84821,134.40622l-5.8849,-10.275"/><path d="M227.49489,129.00321l2.44656,8.17417"/><path d="M265.20279,209.19546l-1.93027,-5.92419"/><path d="M295.31856,173.83129l3.08896,1.77983"/><path d="M300.78249,168.79475l-4.81583,-0.09904"/><path d="M303.4407,161.98424l-4.56513,1.9657l-2.27171,0.29652"/><path d="M305.24915,155.15613l-6.85863,3.63479l-1.39467,-1.40169"/><path d="M297.61685,153.96945l4.90281,-5.39133"/><path d="M293.37782,135.34612l-4.04206,4.72249"/><path d="M285.07079,137.70793l4.31451,-4.03037"/><path d="M280.54202,134.83981l3.78055,-6.10092"/><path d="M270.38099,121.71234l-1.53604,7.52017"/><path d="M266.21483,123.76626l-0.08699,5.49037"/><path d="M259.03704,123.60328l3.51419,10.71336"/></g><path d="M271.96263,209.04993l-2.61181,-6.45201"/><path d="M276.46794,206.39654l-4.06648,-6.26233"/><path d="M267.77664,210.33689l-0.56228,-2.07116l-0.84889,-4.71714"/><path d="M248.53528,131.02931l-0.21574,-7.25102"/><path d="M245.67471,131.7959l-1.08108,-6.88746"/><path d="M241.7258,130.70845l-2.89748,-8.84163"/><path d="M232.01882,194.8412l-3.04518,4.39974"/><path d="M241.0115,209.44312l3.46195,-7.87611"/><path d="M237.88086,200.4539l-3.04517,4.39975"/><path d="M255.06238,205.26971l-1.60687,7.51869"/><path d="M292.69488,177.55317l6.74895,5.97423"/></g><g fill="none" stroke="#000000" stroke-width="1.5" stroke-linecap="round"><path d="M218.0803,198.99336l-2.01105,-1.82916"/><path d="M223.45079,197.58186l-3.16099,-2.92799"/><path d="M212.51343,196.44733l0.93888,6.35836"/><path d="M224.63619,187.7263l2.3421,1.89309"/><path d="M208.99496,198.45702l0.33022,3.37013"/><path d="M204.83437,205.31097l-0.10367,-7.50401"/><path d="M192.88292,192.35151l-4.04376,5.07966"/><path d="M183.36801,191.55511l5.35196,-2.75349"/><path d="M180.17594,186.37585l4.52192,-1.23262"/><path d="M179.2837,183.39433l2.24283,-1.92952"/><path d="M175.19274,154.21571l2.8722,2.55949"/><path d="M177.14159,151.5425l2.57307,1.44057"/><path d="M189.18055,139.99882l1.74822,3.33667"/><path d="M207.90803,140.30766l1.05665,-5.65479"/><path d="M219.8707,143.77874l3.04176,-5.70161"/><path d="M223.88248,146.68667l1.06701,-4.90432"/><path d="M201.22794,195.96305l-1.31879,7.2123"/><path d="M178.82793,176.39915l-2.16554,1.36472"/><path d="M175.00174,172.54852l3.37473,-0.07961"/><path d="M177.9323,169.06393l-1.59173,-0.22516l-3.198,-1.50093"/><path d="M177.66121,163.8158l-0.97806,1.074l-4.80426,-2.77665"/><path d="M173.79512,157.07611l3.43278,4.12266"/><path d="M183.03822,150.55268l-2.83,-3.61142"/><path d="M185.17835,147.34946l-3.02125,-3.08144"/><path d="M189.84767,146.47122l-4.38518,-7.30297"/><path d="M196.73832,136.04233l1.0724,5.75467"/><path d="M200.32611,137.0086l0.05804,4.20227"/><path d="M202.23607,145.89622l2.46824,-8.20274"/><g><path d="M216.66255,196.39955l-1.91651,-1.8314"/><path d="M218.76104,191.84618l3.01241,2.93152"/><path d="M211.88914,202.89262l-0.89835,-6.35927"/><path d="M222.77088,188.74901l2.58055,2.10394"/><path d="M208.00947,195.85302l0.31673,3.37043"/><path d="M204.05149,202.70219l-0.10367,-7.50399"/><path d="M189.00131,191.11748l-2.65418,3.44052"/><path d="M185.98134,187.42112l-5.09534,2.74743"/><path d="M184.86044,182.51215l-4.3058,1.22754"/><path d="M181.83769,178.83022l-2.13478,1.92697"/><path d="M175.78756,151.57443l2.73711,2.56268"/><path d="M180.95507,150.92132l-3.31318,-2.01795"/><path d="M192.51378,143.88362l-2.57003,-7.06555"/><path d="M192.25785,135.42235l1.87956,7.45716"/><path d="M206.95344,138.96197l0.98519,-6.91211"/><path d="M217.29718,143.35402l3.92749,-7.86432"/><path d="M221.53429,145.45349l1.6328,-6.25638"/><path d="M200.65128,196.29447l-1.28824,4.53428"/><path d="M177.20271,175.12386l2.06153,-1.36226"/><path d="M175.61769,169.90674l3.21402,-0.07581"/><path d="M178.40642,166.42554l-1.51611,-0.22696l-3.04672,-1.50449"/><path d="M178.14483,161.17714l-0.93079,1.07283l-4.57734,-2.78201"/><path d="M177.7304,158.55969l-3.27206,-4.12643"/><path d="M180.55944,144.30569l2.69762,3.61452"/><path d="M186.77255,145.21266l-2.87943,-3.08477"/><path d="M186.23004,138.93249l2.52307,4.66955"/><path d="M196.29535,133.4255l1.02512,5.7558"/><path d="M198.68765,135.44267l0.05804,4.20223"/><path d="M203.88313,135.0856l-2.34532,8.19983"/></g><path d="M196.59471,197.52354l-1.74308,3.19382"/><path d="M194.55876,193.89342l-2.71392,4.79309"/><path d="M198.58711,195.06115l-0.56654,5.05599l-0.37526,1.58523"/><path d="M211.13071,133.45188l-0.14398,5.54982"/><path d="M213.78881,134.06375l-0.7215,5.27155"/><path d="M215.0313,140.75611l1.93373,-6.76723"/><path d="M223.54188,193.20972l-2.03231,-3.36747"/><path d="M213.19754,194.99006l2.31045,6.02823"/><path d="M219.62965,197.5056l-2.03231,-3.3675"/><path d="M206.13064,197.82404l1.0724,5.75467"/><path d="M181.01524,176.61027l-4.50415,4.57259"/></g><g stroke-linecap="butt"><path d="M301.65693,155.84225c0,-4.4994 3.64749,-8.1469 8.14691,-8.1469c4.49941,0 8.14691,3.64748 8.14691,8.1469c0,4.4994 -3.64749,8.14691 -8.14691,8.14691c-4.49941,0 -8.14691,-3.64749 -8.14691,-8.14691z" fill="#5100a4" stroke="#000000" stroke-width="2.5"/><path d="M308.09936,156.98567c0,-1.96651 1.59418,-3.56069 3.5607,-3.56069c1.96651,0 3.56068,1.59418 3.56068,3.56069c0,1.96651 -1.59417,3.5607 -3.56068,3.5607c-1.96651,0 -3.5607,-1.59419 -3.5607,-3.5607z" fill="#000000" stroke="none" stroke-width="0.5"/><path d="M298.14592,157.34393c-0.12546,-7.501 5.74198,-13.69804 13.10529,-13.84148c7.3633,-0.14345 13.4341,5.82102 13.55957,13.32198c0.12546,7.501 -5.74195,13.69804 -13.10525,13.84148c-7.3633,0.14345 -13.43414,-5.82101 -13.5596,-13.32198z" fill="url(#color-2)" stroke="#000000" stroke-width="0"/></g><g fill="#000000" stroke="#000000" stroke-width="1.5" stroke-linecap="butt"><path d="M312.04159,137.99483l8.93941,-5.87525l-4.22616,9.65624z"/><g><path d="M300.35382,136.27301l1.985,-10.3299l4.07222,9.78635z"/><path d="M306.36915,136.13315l6.6503,-8.2548l-0.98765,10.47236z"/></g></g><g fill="none" stroke="#000000" stroke-width="1.5" stroke-linecap="round"><path d="M284.56514,138.96199l2.0276,0.95258"/><path d="M283.878,142.91562l-3.19984,-1.53894"/><path d="M289.5671,139.61637l-2.28218,-4.77966"/><path d="M282.13595,149.42595l-2.30383,-0.92261"/><path d="M290.77263,134.60596l1.07778,2.57399"/><path d="M295.3664,136.65722l-1.90239,-5.88456"/><path d="M307.97276,133.09732l-1.95211,4.9816"/><path d="M313.70729,136.39745l-3.54679,3.46706"/><path d="M314.21576,141.76973l3.26212,-2.06792"/><path d="M318.90398,141.83339l-1.29815,2.06377"/><path d="M326.32254,162.50131l2.883,1.3188"/><path d="M325.94344,165.88805l2.37593,0.51019"/><path d="M321.63912,178.41044l-2.18639,-2.20358"/><path d="M307.35546,187.42094l-0.5399,-4.70976"/><path d="M295.54017,188.10842l1.01209,-5.22829"/><path d="M292.68721,181.56344l0.34965,4.12124"/><path d="M297.861,131.25953l0.71137,5.99996"/><path d="M322.33452,145.63158l-1.37432,1.60021"/><path d="M324.90774,149.33594l-2.63842,0.88153"/><path d="M323.44527,152.79126l1.30818,-0.20889l2.88273,0.40609"/><path d="M324.93217,156.8586l0.50967,-1.08313l4.45726,1.02104"/><path d="M329.61219,161.22829l-3.70376,-2.41384"/><path d="M323.91571,168.60849l3.105,2.15748"/><path d="M323.0075,171.65044l3.12703,1.69369"/><path d="M324.76876,178.16241l-5.22547,-4.68738"/><path d="M314.40621,179.08829l2.24085,4.27183"/><path d="M312.52171,180.1743l1.06533,3.29537"/><path d="M309.92647,176.93375l0.04644,7.05887"/><g><path d="M288.26473,141.63801l-1.95369,-0.97729"/><path d="M285.76326,144.75586l-3.08369,-1.57777"/><path d="M288.49487,134.38896l2.25048,4.79021"/><path d="M280.81401,147.13714l2.54278,1.0308"/><path d="M293.25829,138.99158l-1.06723,-2.5775"/><path d="M296.61593,138.52178l-1.90239,-5.88454"/><path d="M308.63097,135.15946l-1.25548,3.35355"/><path d="M314.1649,138.52667l-3.34616,3.40003"/><path d="M317.81924,141.86978l-3.09314,2.01148"/><path d="M319.21369,144.01196l-1.21367,2.03554"/><path d="M329.37797,166.04454l-2.77738,-1.35409"/><path d="M325.46681,167.81273l3.09889,0.78532"/><path d="M321.80986,181.10059l-3.73836,-4.94082"/><path d="M320.32602,182.76126l-3.28961,-5.41676"/><path d="M308.7951,189.22196l-0.90125,-5.68261"/><path d="M298.68205,182.59019l-1.18489,7.14642"/><path d="M295.06784,187.28819l-0.23213,-5.32333"/><path d="M298.9461,136.85856l-0.08564,-3.8835"/><path d="M321.25649,149.41482l1.293,-1.57304"/><path d="M325.06368,151.5659l-2.51278,0.83954"/><path d="M323.71209,154.98414l1.24907,-0.18912l2.76446,0.4456"/><path d="M325.19158,159.05399l0.47273,-1.07074l4.27986,1.08032"/><path d="M329.73114,163.47058l-3.5781,-2.45581"/><path d="M324.38209,170.73476l3.0015,2.19204"/><path d="M323.55514,173.74946l3.01614,1.73073"/><path d="M321.1015,175.46905l3.12002,3.06527"/><path d="M317.63086,185.31348l-2.20389,-4.28419"/><path d="M314.19209,181.01002l1.06532,3.29534"/><path d="M311.25237,185.84716l-0.14254,-7.02676"/></g><path d="M301.84259,134.90632l0.59781,-2.9382"/><path d="M304.32678,137.27122l0.97434,-4.43325"/><path d="M300.87093,137.32901l-0.78059,-4.11926l-0.0891,-1.33948"/><path d="M304.61634,182.79029l1.2332,4.40564"/><path d="M303.69918,189.0554l-0.71086,-4.32662"/><path d="M301.09686,184.08638l0.11909,5.79866"/><path d="M284.08491,147.00093l-2.4176,-2.15891"/><path d="M289.38185,140.93001l-3.28224,-4.18687"/><path d="M283.70601,140.50958l2.4176,2.15893"/><path d="M294.25976,136.98346l-2.24085,-4.27183"/><path d="M321.6241,142.90228l-2.43772,4.69397"/></g><path d="M151.7577,164.89675c0,-2.56384 2.07841,-4.64226 4.64226,-4.64226c2.56384,0 4.64226,2.07841 4.64226,4.64226c0,2.56384 -2.07842,4.64226 -4.64226,4.64226c-2.56384,0 -4.64226,-2.07841 -4.64226,-4.64226z" fill="#5100a4" stroke="#000000" stroke-width="0" stroke-linecap="butt"/><path d="M145.09742,165.14712c-0.10845,-6.48415 4.96359,-11.8411 11.32871,-11.9651c6.36511,-0.12401 11.61294,5.03191 11.72141,11.51602c0.10845,6.48415 -4.96356,11.8411 -11.32868,11.96509c-6.36511,0.12401 -11.61298,-5.0319 -11.72143,-11.51601z" fill="url(#color-3)" stroke="#000000" stroke-width="0" stroke-linecap="butt"/><path d="M145.91341,165.03299c-0.09888,-5.91201 4.52562,-10.7963 10.32912,-10.90936c5.80349,-0.11306 10.58828,4.58793 10.68717,10.49991c0.09888,5.91201 -4.5256,10.7963 -10.32909,10.90936c-5.80349,0.11306 -10.58831,-4.58792 -10.68719,-10.49991z" fill="url(#color-4)" stroke="#000000" stroke-width="0" stroke-linecap="butt"/><g fill="none" stroke-linecap="round"><path d="M286.34662,95.87842l-4.94351,12.50417" stroke="#000000" stroke-width="1.5"/><path d="M284.60185,112.45371l4.94351,-15.12132" stroke="#000000" stroke-width="1.5"/><g><path d="M288.67296,115.36166l3.78033,-15.70291" stroke="#000000" stroke-width="1.5"/><path d="M292.16249,117.10643l4.07113,-16.2845" stroke="#000000" stroke-width="1.5"/><path d="M294.77967,119.72358l4.65271,-16.86609" stroke="#000000" stroke-width="1.5"/><path d="M298.2692,122.04994l4.36192,-15.12132" stroke="#000000" stroke-width="1.5"/><path d="M306.41145,109.54577l-4.65271,13.95814" stroke="#000000" stroke-width="1.5"/><path d="M304.08508,126.12106l5.5251,-14.53973" stroke="#000000" stroke-width="1.5"/><path d="M306.99304,129.02901l4.94351,-17.15689" stroke="#000000" stroke-width="1.5"/><g><path d="M346.21047,144.7851c3.73935,2.45911 3.5437,2.06605 7.93876,4.9564c9.84823,6.47651 17.96485,11.65566 17.96485,11.65566l-16.09529,-2.84293l-0.17736,-5.13635" data-paper-data="{&quot;index&quot;:null}" stroke="#5100a4" stroke-width="15"/><g stroke="#000000"><g stroke-width="1.5"><path d="M283.22367,109.4266l4.94351,-12.50417"/><path d="M286.42241,113.49772l4.94351,-15.12132"/><path d="M294.27386,100.70276l-3.78033,15.70291"/><path d="M293.98305,118.15044l4.07113,-16.2845"/><path d="M296.60023,120.76759l4.65271,-16.86609"/><path d="M300.08976,123.09395l4.36192,-15.12132"/><path d="M308.23201,110.58978l-4.65271,13.95814"/><path d="M305.90565,127.16507l5.5251,-14.53973"/><path d="M313.75711,112.91614l-4.94351,17.15689"/><path d="M312.59393,130.36381l5.81589,-13.95814"/><path d="M323.06254,119.60442l-7.26987,14.24894"/><path d="M326.26128,122.51236l-6.39748,13.08576"/><path d="M322.48094,138.21528l7.26987,-12.21338"/><path d="M334.40353,127.16508l-7.56066,12.79497"/><path d="M337.60227,129.78223l-7.26987,12.21338"/><path d="M332.94955,144.61276l7.26987,-13.08576"/></g><g stroke-width="10"><path d="M239.43395,181.97555l5.532,-41.63753l12.55365,78.08846l1.24692,-7.24815" data-paper-data="{&quot;index&quot;:null}"/><g><path d="M167.76006,213.61504l-0.05034,7.00007l34.74295,-94.33074l2.20424,47.34851"/><path d="M261.56327,187.03969l11.50565,-91.45137l96.17702,64.69647l-12.83769,-2.65692l0.2082,-4.69836" data-paper-data="{&quot;index&quot;:null}"/><path d="M208.87126,206.05195l-3.70909,5.53449l0.90064,7.32049l17.29388,-80.13678l3.96296,42.29943"/></g></g><path d="M316.58925,115.36166l-5.81589,13.95814" stroke-width="1.5"/><path d="M321.24198,118.56041l-7.26987,14.24894" stroke-width="1.5"/><path d="M324.44072,121.46835l-6.39748,13.08576" stroke-width="1.5"/><path d="M327.93025,124.95789l-7.26987,12.21338" stroke-width="1.5"/><path d="M325.02231,138.91604l7.56066,-12.79497" stroke-width="1.5"/><path d="M335.78171,128.73822l-7.26987,12.21338" stroke-width="1.5"/><path d="M338.39886,130.48299l-7.26987,13.08576" stroke-width="1.5"/><path d="M334.32774,145.8951l7.56066,-13.08576" stroke-width="1.5"/></g></g></g></g></g></g></svg>