<svg version="1.1" xmlns="http://www.w3.org/2000/svg" xmlns:xlink="http://www.w3.org/1999/xlink" width="618.79805" height="375.21401" viewBox="0,0,618.79805,375.21401"><defs><radialGradient cx="264.38327" cy="322.75279" r="12.78495" gradientUnits="userSpaceOnUse" id="color-1"><stop offset="0" stop-color="#00b11b"/><stop offset="1" stop-color="#00b11b" stop-opacity="0"/></radialGradient><linearGradient x1="267.1418" y1="114.21269" x2="267.1418" y2="124.79193" gradientUnits="userSpaceOnUse" id="color-2"><stop offset="0" stop-color="#007616"/><stop offset="1" stop-color="#001c04"/></linearGradient><linearGradient x1="49.00298" y1="225.87191" x2="49.00298" y2="262.43105" gradientUnits="userSpaceOnUse" id="color-3"><stop offset="0" stop-color="#1e1e1e"/><stop offset="1" stop-color="#121212"/></linearGradient><linearGradient x1="428.54284" y1="39.45143" x2="443.76435" y2="55.93186" gradientUnits="userSpaceOnUse" id="color-4"><stop offset="0" stop-color="#007616"/><stop offset="1" stop-color="#001c04"/></linearGradient><linearGradient x1="229.79724" y1="306.44229" x2="229.79724" y2="340.96797" gradientUnits="userSpaceOnUse" id="color-5"><stop offset="0" stop-color="#007616"/><stop offset="1" stop-color="#001503"/></linearGradient></defs><g transform="translate(130.87335,4.04696)"><g data-paper-data="{&quot;isPaintingLayer&quot;:true}" fill-rule="nonzero" stroke-linejoin="miter" stroke-miterlimit="10" stroke-dasharray="" stroke-dashoffset="0" style="mix-blend-mode: normal"><g stroke="#0a0a0a"><path d="M263.90916,327.83154c0,0 0.34247,2.60681 1.09178,5.66303c0.45819,1.86881 -1.89178,4.07639 -1.89178,5.11418c0,2.3245 0.8,4.30365 0.8,4.30365" fill="none" stroke-width="3" stroke-linecap="round"/><path d="M260.48323,326.20522c0,-0.50461 -0.22222,-1.86338 -0.22222,-3.11111c0,-1.61703 0.22222,-3.12305 0.22222,-3.12305c0,0 1.77117,-1.97674 3.6,-1.97674c1.82883,0 3.8,1.97674 3.8,1.97674c0,0 0.22222,1.57936 0.22222,3.12305c0,1.02534 -0.22222,2.03494 -0.22222,2.55556c0,0.68577 -0.75187,1.56943 -1.3706,1.56943c-0.89149,0 -3.40354,0 -4.88889,0c-0.67685,0 -1.14051,-0.57686 -1.14051,-1.01387z" fill="#007811" stroke-width="2" stroke-linecap="butt"/><path d="M251.59832,322.75279c0,-6.65494 5.72402,-12.04983 12.78495,-12.04983c7.06094,0 12.78495,5.39489 12.78495,12.04983c0,6.65494 -5.72402,12.04983 -12.78495,12.04983c-7.06094,0 -12.78495,-5.39489 -12.78495,-12.04983z" fill="url(#color-1)" stroke-width="0" stroke-linecap="butt"/></g><path d="M332.19443,73.43402l-24.5,-24.5" fill="none" stroke="#000000" stroke-width="8" stroke-linecap="round"/><path d="M335.19443,96.43402l-47.5,-47.5" fill="none" stroke="#000000" stroke-width="8" stroke-linecap="round"/><path d="M332.09512,108.60932v-54.04505h20.01201v54.04505z" fill="#000000" stroke="#000000" stroke-width="5" stroke-linecap="butt"/><path d="M116.25936,291.81239l-24.5,24.5" fill="none" stroke="#000000" stroke-width="7" stroke-linecap="round"/><g fill="none" stroke="#1e1e1e" stroke-width="4" stroke-linecap="round"><path d="M334.59443,75.63402l-24.5,-24.5"/><path d="M337.59443,98.63402l-47.5,-47.5"/></g><path d="M131.00936,292.06239l-35.75,35.75" fill="none" stroke="#000000" stroke-width="7" stroke-linecap="round"/><path d="M96.85188,292.41813v-8.75876h40.54054v8.75876z" fill="#1e1e1e" stroke="#000000" stroke-width="3" stroke-linecap="butt"/><path d="M117.75936,290.31239l-24.5,24.5" fill="none" stroke="#1e1e1e" stroke-width="3" stroke-linecap="round"/><path d="M95.00936,328.06239l38.25,-38.25" fill="none" stroke="#1e1e1e" stroke-width="3" stroke-linecap="round"/><path d="M452.39167,360.96063v-227.5254v-49l-38,-42l28.98248,-9.7379l9.01752,-32.09705h33.03303v360.36037z" fill="#000000" stroke="#000000" stroke-width="5" stroke-linecap="butt"/><path d="M195.95098,231.73244l1.5015,-55.55556l40.54054,-42.04204h214.71471v148.64865l-49.54955,-49.54955z" fill="#000000" stroke="#000000" stroke-width="5" stroke-linecap="butt"/><path d="M-121.5015,359.36007v-96.0961h218.35338v96.0961z" fill="#000000" stroke="#000000" stroke-width="5" stroke-linecap="butt"/><path d="M-128.37335,264.76547v-174.17417l204.2042,-1.5015l-24.02402,33.03303v52.55255l-13.51351,43.54354l24.64897,7.96202l-11.13546,38.58453z" fill="#000000" stroke="#000000" stroke-width="5" stroke-linecap="butt"/><path d="M158.41344,192.6934v-6.00601h39.03904v6.00601z" fill="#000000" stroke="#000000" stroke-width="5" stroke-linecap="butt"/><path d="M-120.86584,90.5913v-90.09009h307.80781v90.09009z" fill="#000000" stroke="#000000" stroke-width="5" stroke-linecap="butt"/><path d="M189.94497,51.56127v-51.06006h178.67868v36.06006l-14.89042,15z" fill="#000000" stroke="#000000" stroke-width="5" stroke-linecap="butt"/><path d="M257.51254,129.63034v-19.51952h19.51952v19.51952z" fill="#000000" stroke="#000000" stroke-width="5" stroke-linecap="butt"/><path d="M349.10413,84.46367v-3.75375h30.03003v3.75375z" fill="#373737" stroke="#000000" stroke-width="5" stroke-linecap="butt"/><path d="M256.3271,263.21444l-22.05706,-28.52853h137.67267l-22.52252,28.52853z" fill="#000000" stroke="#000000" stroke-width="5" stroke-linecap="butt"/><path d="M99.77646,360.35147v-16.997h206.06457v16.997z" fill="#000000" stroke="#000000" stroke-width="5" stroke-linecap="butt"/><path d="M212.46749,341.34205v-34.53453h34.53454v34.53453z" fill="#000000" stroke="#000000" stroke-width="5" stroke-linecap="butt"/><path d="M343.34722,352.92669v4.58527h-33.25v-4.58527z" fill="#000000" stroke="#000000" stroke-width="5" stroke-linecap="butt"/><path d="M308.73744,357.89504v-5.33333h35.33333v5.33333z" fill="#1e1e1e" stroke="none" stroke-width="0" stroke-linecap="butt"/><g stroke="#000000" stroke-linecap="butt"><path d="M290.47246,359.02627v-16.66666h16.66666v16.66666z" fill="#373737" stroke-width="3"/><path d="M294.63729,354.89645v-8.27272h8.27273v8.27272z" fill="#991616" stroke-width="1.5"/></g><g fill="none" stroke="#373737" stroke-width="3" stroke-linecap="round"><path d="M296.03497,357.33903v6.2406"/><path d="M301.78496,363.5837v-6.23851"/></g><g stroke="#000000" stroke-linecap="butt"><path d="M195.63913,233.02627v-16.66666h16.66666v16.66666z" fill="#373737" stroke-width="3"/><path d="M199.80396,228.89645v-8.27272h8.27273v8.27272z" fill="#991616" stroke-width="1.5"/></g><g stroke="#000000" stroke-linecap="butt"><path d="M451.47246,149.8596v-16.66666h16.66666v16.66666z" fill="#373737" stroke-width="3"/><path d="M455.63729,145.72978v-8.27272h8.27273v8.27272z" fill="#991616" stroke-width="1.5"/></g><g stroke="#000000" stroke-linecap="butt"><path d="M81.38913,358.94294v-16.66666h16.66666v16.66666z" fill="#373737" stroke-width="3"/><path d="M85.55396,354.81312v-8.27272h8.27273v8.27272z" fill="#991616" stroke-width="1.5"/></g><g stroke="#000000" stroke-linecap="butt"><path d="M80.93079,278.65127v-16.66666h16.66666v16.66666z" fill="#373737" stroke-width="3"/><path d="M85.09562,274.52145v-8.27272h8.27273v8.27272z" fill="#991616" stroke-width="1.5"/></g><g stroke="#000000" stroke-linecap="butt"><path d="M171.19746,91.60127v-16.66666h16.66666v16.66666z" fill="#373737" stroke-width="3"/><path d="M175.36229,87.47145v-8.27272h8.27273v8.27272z" fill="#991616" stroke-width="1.5"/></g><g stroke="#000000" stroke-linecap="butt"><path d="M171.33635,52.57349v-16.66666h16.66666v16.66666z" fill="#373737" stroke-width="3"/><path d="M175.50118,48.44367v-8.27272h8.27273v8.27272z" fill="#991616" stroke-width="1.5"/></g><path d="M256.56666,130.94055v-21.60622h21.09893v21.60622z" fill="#0e0e0e" stroke="none" stroke-width="0" stroke-linecap="butt"/><path d="M264.6428,131.24619v-22.18394h5.21363v22.18394z" fill="#373737" stroke="#000000" stroke-width="2" stroke-linecap="butt"/><path d="M278.24715,121.92585h-21.81174v-4.92977l21.81172,0.00002z" fill="#373737" stroke="#000000" stroke-width="2" stroke-linecap="butt"/><path d="M261.82264,119.5023l5.31914,-5.28962l5.31914,5.28962l-5.31914,5.28962z" fill="url(#color-2)" stroke="#000000" stroke-width="2" stroke-linecap="butt"/><g fill="none" stroke="#373737" stroke-width="3" stroke-linecap="round"><path d="M96.4543,353.53636h194.78431"/><path d="M96.64657,347.78637h194.71907"/></g><g fill="none" stroke="#373737" stroke-width="3" stroke-linecap="round"><path d="M86.70163,277.2057v66.2015"/><path d="M92.45162,277.27104v66.17933"/></g><g fill="none" stroke="#373737" stroke-width="3" stroke-linecap="round"><path d="M210.51544,227.50569l24.23672,-0.13725l24.64632,31.46479l87.63958,-0.14962l24.02646,-29.76864l35.19031,0.21187l50.59395,51.10154v89.3794"/><path d="M210.26545,221.67864l27.51998,-0.41439l24.38851,31.15543l81.5113,-0.17426l24.48442,-29.30352l40.50344,0.2185l53.94551,54.32058l-0.01982,92.18607"/></g><path d="M158.26587,193.03857v-7.09579h35.80953v7.09579z" fill="#373737" stroke="none" stroke-width="0" stroke-linecap="butt"/><path d="M354.26481,84.77838v-4.66667h25.06667v4.66667z" fill="#373737" stroke="none" stroke-width="0" stroke-linecap="butt"/><g fill="none" stroke="#373737" stroke-width="3" stroke-linecap="round"><path d="M206.7043,218.20303l0.82474,-37.52266l35.36496,-36.144h210.0806"/><path d="M200.91778,217.78637l0.81835,-39.50859l38.49121,-39.49141h212.8883"/></g><g fill="none" stroke="#373737" stroke-width="3" stroke-linecap="round"><path d="M457.45164,-2.12764v137.48835"/><path d="M463.20163,-1.99192v137.4423"/></g><path d="M82.36562,267.28638l-49.76234,-0.33334l0.52078,-47.51488l13.88541,-43.75124l0.49014,-56.25159l25.09969,-33.26512l99.92033,0.11616" fill="none" stroke="#373737" stroke-width="3" stroke-linecap="round"/><path d="M82.70056,273.28638l-56.43059,-0.33334l0.54558,-55.84821l14.21368,-41.75124l0.51349,-58.58493l28.62896,-37.26511l102.68129,0.44949" fill="none" stroke="#373737" stroke-width="3" stroke-linecap="round"/><g fill="none" stroke="#373737" stroke-width="3" stroke-linecap="round"><path d="M176.95163,76.43392v-25.22822"/><path d="M182.70162,51.2306v25.21977"/></g><g fill="none" stroke="#373737" stroke-width="3" stroke-linecap="round"><path d="M364.34291,-2.29697l0.06266,36.95303l-12.4245,12.54697l-165.27678,-0.25"/><path d="M358.44897,-2.54696l0.10623,34.46559l-9.32412,9.28441h-162.36626"/></g><path d="M39.31481,260.68105l0.36559,-41.02419l22.05108,7.21506l-9.62097,33.80914z" fill="url(#color-3)" stroke="none" stroke-width="0" stroke-linecap="butt"/><path d="M450.41491,80.32252l-33.63873,-37.30494l27.97407,-9.37402l5.36693,-20.58738z" data-paper-data="{&quot;index&quot;:null}" fill="#1e1e1e" stroke="none" stroke-width="0" stroke-linecap="butt"/><path d="M438.04936,61.21029l-15.22151,-16.48043l15.41026,-5.33561z" fill="url(#color-4)" stroke="#000000" stroke-width="2" stroke-linecap="butt"/><path d="M442.19301,65.54354l0.25,-27.5l5,-2l0.25,35.5z" fill="#0e0e0e" stroke="#000000" stroke-width="2" stroke-linecap="butt"/><path d="M332.1777,108.63985v-54.6h19.8v54.6z" fill="#1e1e1e" stroke="none" stroke-width="0" stroke-linecap="butt"/><path d="M349.27029,56.93105v49.66667" fill="none" stroke="#000000" stroke-width="2" stroke-linecap="round"/><path d="M340.81746,57.09771v43.33333" fill="none" stroke="#000000" stroke-width="2" stroke-linecap="round"/><path d="M336.60362,92.26438v14.16667" fill="none" stroke="#000000" stroke-width="2" stroke-linecap="round"/><path d="M334.556,57.09771v20.75" fill="none" stroke="#000000" stroke-width="2" stroke-linecap="round"/><path d="M345.21479,74.26438v30.33333" fill="none" stroke="#000000" stroke-width="2" stroke-linecap="round"/><g stroke="#000000"><path d="M212.20376,340.96797v-34.52569h35.18698v34.52569z" fill="url(#color-5)" stroke-width="0" stroke-linecap="butt"/><path d="M215.55712,309.97855v27.189" fill="none" stroke-width="2.5" stroke-linecap="round"/><path d="M243.87243,336.95175v-27.189" fill="none" stroke-width="2.5" stroke-linecap="round"/><path d="M220.58816,337.16755v-27.189" fill="none" stroke-width="2.5" stroke-linecap="round"/><path d="M225.42636,337.16755v-27.189" fill="none" stroke-width="2.5" stroke-linecap="round"/><path d="M230.26457,309.87066v27.189" fill="none" stroke-width="2.5" stroke-linecap="round"/><path d="M234.88287,309.87064v27.189" fill="none" stroke-width="2.5" stroke-linecap="round"/><path d="M239.28124,309.87067v27.189" fill="none" stroke-width="2.5" stroke-linecap="round"/></g><path d="M132.27029,287.14506h-30" fill="none" stroke="#000000" stroke-width="1.5" stroke-linecap="round"/><path d="M117.27029,289.47839h12.33333" fill="none" stroke="#000000" stroke-width="1.5" stroke-linecap="round"/><path d="M55.60362,229.97839l-5.33333,26.66667" fill="none" stroke="#000000" stroke-width="2" stroke-linecap="round"/><path d="M49.93695,228.97839l-2,12" fill="none" stroke="#000000" stroke-width="2" stroke-linecap="round"/><path d="M45.27029,248.97839l-1,7.33333" fill="none" stroke="#000000" stroke-width="2" stroke-linecap="round"/><path d="M42.60362,224.31172v20" fill="none" stroke="#000000" stroke-width="2" stroke-linecap="round"/><path d="M278.54886,131.02058h173" fill="none" stroke="#000000" stroke-width="1" stroke-linecap="round"/></g></g></svg>