<svg version="1.1" xmlns="http://www.w3.org/2000/svg" xmlns:xlink="http://www.w3.org/1999/xlink" width="26.47479" height="26.47479" viewBox="0,0,26.47479,26.47479"><defs><radialGradient cx="239.99996" cy="180.00001" r="13.23673" gradientUnits="userSpaceOnUse" id="color-1"><stop offset="0" stop-color="#001ca1"/><stop offset="1" stop-color="#001ca1" stop-opacity="0"/></radialGradient><radialGradient cx="235.41119" cy="179.84201" r="2.92744" gradientUnits="userSpaceOnUse" id="color-2"><stop offset="0" stop-color="#001ca1"/><stop offset="1" stop-color="#001ca1" stop-opacity="0"/></radialGradient><radialGradient cx="246.10857" cy="179.76753" r="5.22903" gradientUnits="userSpaceOnUse" id="color-3"><stop offset="0" stop-color="#001ca1"/><stop offset="1" stop-color="#001ca1" stop-opacity="0"/></radialGradient></defs><g transform="translate(-226.7626,-166.76261)"><g data-paper-data="{&quot;isPaintingLayer&quot;:true}" fill-rule="nonzero" stroke-linejoin="miter" stroke-miterlimit="10" stroke-dasharray="" stroke-dashoffset="0" style="mix-blend-mode: normal"><path d="M226.80304,178.97413c0.56656,-7.28848 6.93436,-12.73763 14.22284,-12.17105c7.28848,0.56656 12.73762,6.93437 12.17105,14.22282c-0.56656,7.28848 -6.93438,12.73757 -14.22279,12.17103c-7.28848,-0.56656 -12.73762,-6.93435 -12.17107,-14.2228z" fill="url(#color-1)" stroke="none" stroke-width="0" stroke-linecap="butt"/><path d="M240.59766,179.81748c-0.00166,-0.63946 0.31132,-2.08531 0.31132,-2.08531c0,0 4.18277,-0.4082 6.91534,0.05531c2.73261,0.46351 4.14748,1.92027 4.14748,1.92027c0,0 -2.22538,1.79321 -3.95061,2.12283c-1.72522,0.32964 -7.02794,0.09315 -7.02794,0.09315c0,0 -0.39376,-1.40421 -0.39558,-2.10624z" fill="#0024a3" stroke="#000000" stroke-width="1" stroke-linecap="butt"/><path d="M230.5519,177.539c1.20474,-1.07846 3.21906,-0.76546 5.52358,-0.88514c2.30453,-0.11968 5.30509,0.32279 5.30509,0.32279c0,0 -0.74253,1.89894 -0.73189,2.85058c0.01064,0.95088 0.79572,2.85698 0.79572,2.85698c0,0 -3.09146,0.68915 -5.0729,0.50823c-1.98142,-0.18092 -4.20117,0.15074 -5.91204,-1.51126c-1.71086,-1.66201 -1.11232,-3.0637 0.09242,-4.14216z" fill="#17212f" stroke="#000000" stroke-width="1" stroke-linecap="butt"/><path d="M231.50487,176.86488c0,0 -0.76313,1.80859 -0.79208,2.80527c-0.02798,0.96349 0.77156,3.00441 0.77156,3.00441c0,0 -0.80756,0.2055 -1.24351,0.19429c-0.31825,-0.00819 -1.28242,-0.18121 -1.28242,-0.18121c0,0 -0.76268,-1.9781 -0.75406,-2.92247c0.00934,-1.02373 0.69136,-3.04065 0.69136,-3.04065c0,0 1.03325,-0.38601 1.44668,-0.36378c0.45271,0.02435 1.16246,0.50412 1.16246,0.50412z" fill="#0024a3" stroke="#000000" stroke-width="1" stroke-linecap="butt"/><path d="M235.43701,177.97947l1.80039,1.80947l-1.80947,1.80039l-1.80039,-1.80947z" fill="#0024a3" stroke="#000000" stroke-width="1" stroke-linecap="butt"/><path d="M246.25812,179.74585l-8.75403,0.13171" fill="none" stroke="#000000" stroke-width="1" stroke-linecap="round"/><path d="M232.49255,179.61512c0.1253,-1.61192 1.5336,-2.81706 3.14553,-2.69176c1.61192,0.1253 2.81707,1.53361 2.69176,3.14553c-0.1253,1.61192 -1.53361,2.81706 -3.14552,2.69176c-1.61192,-0.1253 -2.81706,-1.5336 -2.69177,-3.14552z" fill="url(#color-2)" stroke="none" stroke-width="0" stroke-linecap="butt"/><path d="M240.89526,179.36227c0.22382,-2.87924 2.73935,-5.03187 5.61859,-4.80805c2.87924,0.22382 5.03187,2.73935 4.80805,5.61858c-0.22382,2.87924 -2.73936,5.03184 -5.61857,4.80804c-2.87924,-0.22382 -5.03186,-2.73934 -4.80805,-5.61857z" fill="url(#color-3)" stroke="none" stroke-width="0" stroke-linecap="butt"/></g></g></svg>