<svg version="1.1" xmlns="http://www.w3.org/2000/svg" xmlns:xlink="http://www.w3.org/1999/xlink" width="98.19967" height="110.80696" viewBox="0,0,98.19967,110.80696"><defs><linearGradient x1="232.71007" y1="155.04033" x2="223.17263" y2="161.86139" gradientUnits="userSpaceOnUse" id="color-1"><stop offset="0" stop-color="#838383"/><stop offset="1" stop-color="#000000"/></linearGradient><linearGradient x1="238.96032" y1="140.59196" x2="232.99329" y2="144.85947" gradientUnits="userSpaceOnUse" id="color-2"><stop offset="0" stop-color="#838383"/><stop offset="1" stop-color="#2c2c2c"/></linearGradient><linearGradient x1="231.23396" y1="141.13184" x2="227.50151" y2="143.8012" gradientUnits="userSpaceOnUse" id="color-3"><stop offset="0" stop-color="#838383"/><stop offset="1" stop-color="#2c2c2c"/></linearGradient><linearGradient x1="239.49265" y1="108.27464" x2="239.49265" y2="132.38208" gradientUnits="userSpaceOnUse" id="color-4"><stop offset="0" stop-color="#cca670"/><stop offset="1" stop-color="#907751"/></linearGradient><linearGradient x1="231.76899" y1="122.09746" x2="237.99319" y2="121.85424" gradientUnits="userSpaceOnUse" id="color-5"><stop offset="0" stop-color="#dadada"/><stop offset="1" stop-color="#898989"/></linearGradient><linearGradient x1="242.21437" y1="121.57911" x2="248.43857" y2="121.33588" gradientUnits="userSpaceOnUse" id="color-6"><stop offset="0" stop-color="#dadada"/><stop offset="1" stop-color="#898989"/></linearGradient><linearGradient x1="240.46158" y1="125.10565" x2="240.76235" y2="132.80148" gradientUnits="userSpaceOnUse" id="color-7"><stop offset="0" stop-color="#272727"/><stop offset="1" stop-color="#000000"/></linearGradient><linearGradient x1="256.31881" y1="153.3441" x2="226.1985" y2="153.3441" gradientUnits="userSpaceOnUse" id="color-8"><stop offset="0" stop-color="#202020"/><stop offset="1" stop-color="#000000"/></linearGradient><linearGradient x1="231.83604" y1="156.77499" x2="231.83604" y2="166.86587" gradientUnits="userSpaceOnUse" id="color-9"><stop offset="0" stop-color="#696969"/><stop offset="1" stop-color="#272727"/></linearGradient><radialGradient cx="249.422" cy="116.16748" r="5.19534" gradientUnits="userSpaceOnUse" id="color-10"><stop offset="0" stop-color="#00059e"/><stop offset="1" stop-color="#1f5cff"/></radialGradient><radialGradient cx="238.52076" cy="120.173" r="5.19534" gradientUnits="userSpaceOnUse" id="color-11"><stop offset="0" stop-color="#00059e"/><stop offset="1" stop-color="#1f5cff"/></radialGradient><radialGradient cx="238.42916" cy="120.18624" r="7.2184" gradientUnits="userSpaceOnUse" id="color-12"><stop offset="0" stop-color="#0015ff"/><stop offset="1" stop-color="#0015ff" stop-opacity="0"/></radialGradient><linearGradient x1="266.29112" y1="170.10736" x2="263.08001" y2="167.99637" gradientUnits="userSpaceOnUse" id="color-13"><stop offset="0" stop-color="#271100"/><stop offset="1" stop-color="#613700"/></linearGradient><linearGradient x1="290.45115" y1="137.3766" x2="284.03265" y2="133.12685" gradientUnits="userSpaceOnUse" id="color-14"><stop offset="0" stop-color="#ffffff"/><stop offset="1" stop-color="#323232"/></linearGradient><radialGradient cx="249.34544" cy="116.25048" r="6.6881" gradientUnits="userSpaceOnUse" id="color-15"><stop offset="0" stop-color="#0021ff"/><stop offset="1" stop-color="#0021ff" stop-opacity="0"/></radialGradient><linearGradient x1="267.93318" y1="150.16883" x2="267.93318" y2="157.87176" gradientUnits="userSpaceOnUse" id="color-16"><stop offset="0" stop-color="#2c2c2c"/><stop offset="1" stop-color="#464646"/></linearGradient><linearGradient x1="260.37495" y1="165.48195" x2="267.36501" y2="173.58052" gradientUnits="userSpaceOnUse" id="color-17"><stop offset="0" stop-color="#000000" stop-opacity="0"/><stop offset="1" stop-color="#000000" stop-opacity="0"/></linearGradient><linearGradient x1="219.22035" y1="166.55416" x2="219.57379" y2="177.24634" gradientUnits="userSpaceOnUse" id="color-18"><stop offset="0" stop-color="#000000" stop-opacity="0"/><stop offset="1" stop-color="#000000" stop-opacity="0"/></linearGradient><linearGradient x1="241.33604" y1="156.64999" x2="241.33604" y2="166.74087" gradientUnits="userSpaceOnUse" id="color-19"><stop offset="0" stop-color="#696969"/><stop offset="1" stop-color="#272727"/></linearGradient><linearGradient x1="250.71104" y1="156.52499" x2="250.71104" y2="166.61587" gradientUnits="userSpaceOnUse" id="color-20"><stop offset="0" stop-color="#696969"/><stop offset="1" stop-color="#272727"/></linearGradient><linearGradient x1="234.05953" y1="144.65416" x2="234.05953" y2="151.95235" gradientUnits="userSpaceOnUse" id="color-21"><stop offset="0" stop-color="#696969"/><stop offset="1" stop-color="#272727"/></linearGradient></defs><g transform="translate(-205.77729,-99.11567)"><g data-paper-data="{&quot;isPaintingLayer&quot;:true}" fill-rule="nonzero" stroke-linejoin="miter" stroke-miterlimit="10" stroke-dasharray="" stroke-dashoffset="0" style="mix-blend-mode: normal"><path d="M244.88296,170.07901l5.74306,5.19724l3.58223,15.57993" data-paper-data="{&quot;index&quot;:null}" fill="none" stroke="#121212" stroke-width="13" stroke-linecap="round"/><path d="M228.92567,191.76615l2.72575,-15.19444l5.31229,-5.60959" data-paper-data="{&quot;index&quot;:null}" fill="none" stroke="#121212" stroke-width="13" stroke-linecap="round"/><path d="M246.07109,185.42494l-0.8676,-4.8075l13.11032,-0.8829l0.7712,4.8075z" data-paper-data="{&quot;index&quot;:null}" fill="#000000" stroke="none" stroke-width="0" stroke-linecap="butt"/><path d="M248.53993,185.72193c-0.47204,-1.91185 -1.10435,-4.92927 -1.38821,-6.11373c-0.22221,-0.92721 0.72742,-2.04746 1.99547,-2.17714c0.94781,-0.09693 2.84493,-0.36118 4.42921,-0.55987c1.21529,-0.15241 2.5294,0.69114 2.71996,1.48629c0.27405,1.14352 1.04776,4.37198 1.53141,6.39015c0.24048,1.00345 -0.56308,1.80593 -1.80411,1.93147c-1.67285,0.16922 -3.8339,0.38805 -4.75972,0.48273c-0.77523,0.07928 -2.49053,-0.4943 -2.724,-1.43989z" data-paper-data="{&quot;index&quot;:null}" fill="#000000" stroke="none" stroke-width="NaN" stroke-linecap="butt"/><path d="M223.22644,184.85156l0.77119,-4.8075l13.11032,0.8829l-0.86759,4.8075z" data-paper-data="{&quot;index&quot;:null}" fill="#000000" stroke="none" stroke-width="0" stroke-linecap="butt"/><path d="M234.69537,185.46791c-0.16388,0.95908 -1.83022,1.65908 -2.60789,1.63837c-0.92874,-0.02473 -3.09644,-0.08029 -4.77443,-0.12312c-1.24483,-0.03179 -2.10319,-0.77048 -1.93654,-1.78771c0.33517,-2.04588 0.87132,-5.31867 1.06123,-6.47789c0.13205,-0.80605 1.37936,-1.74472 2.60051,-1.68425c1.59192,0.07883 3.50012,0.19945 4.45092,0.22478c1.27203,0.03387 2.29889,1.07799 2.14491,2.01795c-0.19671,1.20071 -0.60739,4.25275 -0.9387,6.1919z" data-paper-data="{&quot;index&quot;:null}" fill="#000000" stroke="none" stroke-width="NaN" stroke-linecap="butt"/><path d="M222.41672,207.51728c0,-0.92587 0,-2.91096 0,-4.52485c0,-1.34585 0.7507,-2.43353 1.45596,-2.43353c1.87421,0 10.2823,0 10.2823,0c0,0 0.45158,1.10638 1.07476,2.43703c0.40404,0.86271 0.20801,3.34035 -0.11973,4.33541c-0.54259,1.64737 -0.95502,2.50541 -0.95502,2.50541c0,0 -8.54707,0 -10.38386,0c-0.66336,0 -1.35442,-1.33914 -1.35442,-2.31945z" data-paper-data="{&quot;index&quot;:null}" fill="#000000" stroke="none" stroke-width="0" stroke-linecap="butt"/><path d="M224.52855,201.49848l-1.86065,-9.18172c0,0 4.32644,1.76961 6.05806,1.78843c1.8084,0.01966 6.51892,-1.67289 6.51892,-1.67289l-2.50286,8.83509z" data-paper-data="{&quot;index&quot;:null}" fill="#000000" stroke="none" stroke-width="0" stroke-linecap="butt"/><path d="M248.45907,207.53583c0,-0.95275 0,-2.99548 0,-4.65622c0,-1.38492 0.72796,-2.50419 1.41186,-2.50419c1.81743,0 9.97084,0 9.97084,0c0,0 0.4379,1.1385 1.0422,2.50777c0.3918,0.88775 0.20171,3.43733 -0.1161,4.46129c-0.52615,1.6952 -0.92609,2.57815 -0.92609,2.57815c0,0 -8.28816,0 -10.06931,0c-0.64327,0 -1.31339,-1.37802 -1.31339,-2.3868z" data-paper-data="{&quot;index&quot;:null}" fill="#000000" stroke="none" stroke-width="0" stroke-linecap="butt"/><path d="M250.51476,202.99861l-2.67439,-10.4984c0,0 4.45811,1.76961 6.18973,1.78843c1.8084,0.01966 6.41533,-2.03983 6.41533,-2.03983l-1.63732,10.65036z" data-paper-data="{&quot;index&quot;:null}" fill="#000000" stroke="none" stroke-width="0" stroke-linecap="butt"/><g data-paper-data="{&quot;index&quot;:null}"><path d="M231.89925,146.0175c0,0 1.96218,-1.40333 2.64429,-1.89117c0.46355,-0.33153 1.41686,-0.24294 1.77285,0.25483c0.51202,0.71593 1.90979,2.67034 2.73038,3.81772c0.3407,0.47638 -0.08616,1.42409 -0.58094,1.77795c-0.67847,0.48523 -2.47102,1.76724 -2.47102,1.76724z" fill="#282828" stroke="none" stroke-width="0" stroke-linecap="butt"/><path d="M222.11657,142.76204l3.16307,-2.26218l2.36923,3.31275l-3.16307,2.26218z" fill="#505050" stroke="none" stroke-width="0" stroke-linecap="butt"/><path d="M226.86022,139.10423c0,0 2.06921,-1.47987 2.76142,-1.97492c0.40329,-0.28843 1.47526,-0.08536 1.82135,0.39854c0.4791,0.6699 1.73996,2.43288 2.56809,3.5908c0.42665,0.59656 0.15347,1.51039 -0.24983,1.79882c-0.69221,0.49506 -2.76142,1.97493 -2.76142,1.97493z" fill="#282828" stroke="#000000" stroke-width="0.5" stroke-linecap="butt"/><path d="M227.39227,141.702l2.13026,-1.52353l1.40922,1.97043l-2.13026,1.52353z" fill="#000000" stroke="none" stroke-width="0" stroke-linecap="butt"/><path d="M241.93088,145.19214c-0.68087,-0.08819 -1.3365,-0.36168 -1.88506,-0.80691" fill="none" stroke="#ff9319" stroke-width="3" stroke-linecap="butt"/><path d="M237.5222,143.71166c-0.25573,-0.78104 -0.4489,-1.54899 -0.57973,-2.28982" fill="none" stroke="#000000" stroke-width="3" stroke-linecap="butt"/><path d="M222.29091,160.62858c0,0 0.86178,-1.90975 1.58553,-3.8267c0.55559,-1.47155 1.69714,-2.86475 1.94956,-3.21865c0.43,-0.60285 7.05915,-6.17658 7.05915,-6.17658c0,0 3.61109,5.36443 4.43035,6.27609c0.26566,0.29563 -3.29694,3.18723 -3.29694,3.18723c0,0 -1.55474,1.50372 -2.05268,2.28207c-0.22104,0.3455 -1.04473,1.17088 -1.33797,2.03062c-0.57618,1.68925 -1.75342,3.97394 -1.75342,3.97394z" fill="url(#color-1)" stroke="#000000" stroke-width="1.5" stroke-linecap="butt"/><path d="M232.10637,131.44588l1.16446,-0.8328l12.58171,17.59225l-1.16446,0.8328z" fill="#888888" stroke="#000000" stroke-width="0.5" stroke-linecap="butt"/><path d="M264.13883,184.44554l-11.29093,-15.83905l2.14464,-1.53381l11.38587,15.92018z" fill="#888888" stroke="#000000" stroke-width="1.5" stroke-linecap="round"/><path d="M226.19635,135.35563l5.96699,-4.2675l13.594,19.00768l-5.967,4.26751z" fill="url(#color-2)" stroke="#000000" stroke-width="1" stroke-linecap="butt"/><path d="M232.86425,147.67719l2.22316,-1.72531l4.74634,6.63652l-2.38492,1.38842z" fill="#767676" stroke="#000000" stroke-width="1.5" stroke-linecap="butt"/><path d="M225.2526,140.46437c0,0 1.00194,-0.33501 0.93216,-1.35834c-0.06691,-0.98112 -1.36117,-2.08635 -1.06862,-2.29558c0.64314,-0.45996 2.00276,-1.43235 2.00276,-1.43235l8.22997,11.50747l-3.73242,2.66937z" fill="url(#color-3)" stroke="#000000" stroke-width="1" stroke-linecap="butt"/><path d="M224.82332,146.18992l2.97329,-2.12645l3.44163,4.81222c0,0 -1.34886,0.96468 -1.89187,1.35304c-0.41055,0.29362 -1.78736,-0.21367 -2.23786,-0.84357c-0.63326,-0.88545 -2.28519,-3.19525 -2.28519,-3.19525z" fill="none" stroke="#000000" stroke-width="2" stroke-linecap="butt"/><path d="M235.39469,145.17613l2.53045,-1.80974l4.68859,6.55578l-2.53046,1.80974z" fill="#000000" stroke="none" stroke-width="0" stroke-linecap="butt"/><path d="M230.57709,146.30248l2.02436,-1.44779l1.34673,1.88304l-2.02436,1.44779z" fill="none" stroke="#000000" stroke-width="1" stroke-linecap="butt"/><path d="M232.74892,147.20012c-0.38432,0.27486 -0.91082,0.19714 -1.17596,-0.17359c-0.26514,-0.37074 -0.16853,-0.89409 0.21579,-1.16895c0.38432,-0.27486 0.91081,-0.19715 1.17596,0.17359c0.26514,0.37074 0.16854,0.89409 -0.21579,1.16895z" fill="#9e9e9e" stroke="none" stroke-width="0" stroke-linecap="butt"/><path d="M231.72769,133.02171l12.29691,16.92663" fill="none" stroke="#000000" stroke-width="1" stroke-linecap="round"/><path d="M229.3629,142.53257c-0.47167,0.33733 -1.17784,0.15802 -1.57727,-0.40047c-0.39944,-0.55851 -0.34088,-1.28471 0.13079,-1.62204c0.47167,-0.33733 1.17783,-0.15803 1.57726,0.40047c0.39944,0.55851 0.34088,1.28471 -0.13078,1.62205z" fill="#858585" stroke="none" stroke-width="0" stroke-linecap="butt"/><path d="M228.5369,135.42805l2.27742,-1.62877l4.48907,6.2768c0,0 0.12755,1.80624 -0.24089,2.06975c-0.38951,0.27858 -2.03652,-0.44097 -2.03652,-0.44097z" fill="#c7c7c7" stroke="#000000" stroke-width="1" stroke-linecap="butt"/><path d="M228.42505,134.86691l1.83458,-1.31206l0.49879,0.69743l-1.83458,1.31206z" fill="#888888" stroke="#000000" stroke-width="1" stroke-linecap="butt"/><path d="M228.59409,145.40159l1.04745,1.46459c0,0 -0.94864,0.25681 -1.33822,0.53543c-0.41065,0.29369 -1.06572,1.18383 -1.06572,1.18383c0,0 -0.28065,-1.62236 -0.05092,-2.16158c0.22217,-0.52148 1.40741,-1.02227 1.40741,-1.02227z" fill="#5b5b5b" stroke="none" stroke-width="0" stroke-linecap="butt"/><path d="M240.82888,153.97398l4.22143,-3.0191l0.82458,1.15296l-4.22143,3.0191z" fill="#5b5b5b" stroke="#000000" stroke-width="1.5" stroke-linecap="butt"/><path d="M263.69318,184.69774l2.88672,-2.06454l2.76538,3.86668l-2.88672,2.06453z" fill="#393939" stroke="#000000" stroke-width="2" stroke-linecap="butt"/><path d="M252.01602,170.12787l3.41202,-2.44022l0.96762,1.35296l-3.41202,2.44022z" fill="#000000" stroke="#000000" stroke-width="0.5" stroke-linecap="butt"/><path d="M254.03734,173.02776l8.41123,-6.01559l0.96762,1.35296l-8.41123,6.01559z" fill="#000000" stroke="#000000" stroke-width="0.5" stroke-linecap="butt"/><path d="M256.37181,167.14101l2.96032,4.20169l-0.95478,0.64693l-2.96032,-4.20169z" fill="#000000" stroke="#000000" stroke-width="0.5" stroke-linecap="butt"/><path d="M256.33844,167.00484l5.63229,0.26262l-1.12293,0.91626l-3.54772,0.1657z" fill="#000000" stroke="#000000" stroke-width="0.5" stroke-linecap="butt"/><path d="M231.60395,130.79208l0.99028,-0.70823l2.01703,2.8203l-0.99027,0.70823z" fill="#000000" stroke="none" stroke-width="0" stroke-linecap="butt"/><path d="M241.20576,155.61631l5.05234,-3.61335l10.58784,14.80435l-5.05234,3.61336z" fill="#4d4d4d" stroke="#000000" stroke-width="1.5" stroke-linecap="butt"/><path d="M225.76351,133.96523l5.48801,-3.92495l1.13231,1.58323l-5.48802,3.92494z" fill="#222222" stroke="#000000" stroke-width="1" stroke-linecap="butt"/><path d="M206.5273,119.80452c0.9014,-0.67107 10.72776,-8.6659 10.72776,-8.6659l12.75518,17.47623l-4.73607,3.38716c0,0 -3.64703,-6.96719 -8.78607,-10.7067c-1.95468,-1.42236 -8.48306,0.61782 -9.18995,0.03329c-0.26636,-0.22025 -0.78511,-1.51347 -0.77085,-1.52409z" fill="#3a3a3a" stroke="#000000" stroke-width="1.5" stroke-linecap="butt"/><path d="M210.82851,122.82c0.60461,-0.4468 6.61657,-4.84211 6.61657,-4.84211l6.96942,9.50503l-3.48624,2.2777c0,0 -2.15637,-3.17094 -4.29594,-5.67998c-1.61879,-0.01928 -5.06659,0.16376 -5.47542,-0.13766c-0.15405,-0.11358 -0.33797,-1.11591 -0.32839,-1.12298z" fill="#303030" stroke="#000000" stroke-width="1.5" stroke-linecap="butt"/><path d="M233.42263,131.0076l1.72514,-1.2338l3.43447,4.80221l-1.72514,1.23379z" fill="#888888" stroke="#000000" stroke-width="1" stroke-linecap="butt"/><path d="M235.36201,132.32225c-0.35887,0.25665 -0.87916,0.144 -1.1621,-0.25163c-0.28294,-0.39562 -0.2214,-0.9244 0.13746,-1.18105c0.35887,-0.25665 0.87915,-0.14399 1.16209,0.25163c0.28294,0.39562 0.22141,0.9244 -0.13746,1.18105z" fill="#575757" stroke="#000000" stroke-width="1" stroke-linecap="butt"/><path d="M236.02274,131.08841l1.85451,-1.32632l0.46552,0.6509l-1.85451,1.32632z" fill="#575757" stroke="#000000" stroke-width="1" stroke-linecap="butt"/><path d="M236.91887,135.75857l0.44771,-0.3202l0.82665,1.15586l-0.44771,0.3202z" fill="#575757" stroke="#000000" stroke-width="0.5" stroke-linecap="butt"/><path d="M238.25556,137.53005l0.44771,-0.3202l0.82665,1.15586l-0.44771,0.3202z" fill="#575757" stroke="#000000" stroke-width="0.5" stroke-linecap="butt"/><path d="M239.65552,139.56697l0.44771,-0.3202l0.82665,1.15587l-0.44771,0.32019z" fill="#575757" stroke="#000000" stroke-width="0.5" stroke-linecap="butt"/><path d="M240.95468,141.36532l0.44771,-0.3202l0.82665,1.15586l-0.44771,0.3202z" fill="#575757" stroke="#000000" stroke-width="0.5" stroke-linecap="butt"/><path d="M242.22859,143.14658l0.44771,-0.3202l0.82665,1.15586l-0.44771,0.3202z" fill="#575757" stroke="#000000" stroke-width="0.5" stroke-linecap="butt"/><path d="M243.52767,144.94492l0.44772,-0.3202l0.82665,1.15586l-0.44772,0.3202z" fill="#575757" stroke="#000000" stroke-width="0.5" stroke-linecap="butt"/><path d="M244.81016,146.76943l0.44772,-0.3202l0.82665,1.15586l-0.44772,0.3202z" fill="#575757" stroke="#000000" stroke-width="0.5" stroke-linecap="butt"/><path d="M232.84293,151.72876l2.6315,-1.882l1.00822,1.40973l-2.6315,1.882z" fill="#585858" stroke="#000000" stroke-width="1.5" stroke-linecap="butt"/><path d="M225.40508,131.96759l4.25706,-3.04458l1.37494,1.92251l-4.25706,3.04458z" fill="#c7c7c7" stroke="#000000" stroke-width="1" stroke-linecap="butt"/><path d="M213.51897,141.97956l11.85999,-1.40375c0,0 1.73654,2.3119 2.02684,3.12999c0.28772,0.81089 -2.44221,2.34709 -2.44221,2.34709l-9.75656,1.25913z" fill="#262626" stroke="#000000" stroke-width="2" stroke-linecap="butt"/></g><path d="M230.95721,132.2556c-3.86709,-0.43853 -5.35067,-18.10628 -3.0703,-20.56489c2.61532,-2.81976 10.18105,-4.62519 16.61938,-2.45716c5.40824,1.82115 6.96548,7.10097 7.16398,11.66119c0.1669,3.83428 1.68407,8.98413 -1.50328,10.97866c-7.94804,0.33199 -11.21425,0.71128 -19.20976,0.38221z" data-paper-data="{&quot;index&quot;:null}" fill="url(#color-4)" stroke="none" stroke-width="0" stroke-linecap="butt"/><path d="M234.77775,119.3314c1.71877,-0.06717 3.15837,1.06235 3.21544,2.52284c0.05707,1.46049 -1.28999,2.69891 -3.00875,2.76607c-1.71877,0.06717 -3.15837,-1.06235 -3.21544,-2.52284c-0.05707,-1.46049 1.28999,-2.69891 3.00875,-2.76607z" data-paper-data="{&quot;index&quot;:null}" fill="url(#color-5)" stroke="none" stroke-width="0" stroke-linecap="butt"/><path d="M233.81446,122.4031c-0.03561,-0.91124 0.67423,-1.67882 1.58547,-1.71443c0.91124,-0.03561 1.67882,0.67423 1.71443,1.58547c0.03561,0.91124 -0.67423,1.67883 -1.58547,1.71443c-0.91124,0.03561 -1.67882,-0.67423 -1.71443,-1.58547z" data-paper-data="{&quot;index&quot;:null}" fill="#000000" stroke="none" stroke-width="0" stroke-linecap="butt"/><path d="M231.56976,118.5249c0,0 2.06374,-0.5213 3.06271,-0.56034c1.0173,-0.03976 2.9871,0.32392 2.9871,0.32392" data-paper-data="{&quot;index&quot;:null}" fill="none" stroke="#000000" stroke-width="2.5" stroke-linecap="round"/><path d="M242.34517,117.99365c0,0 2.06373,-0.52131 3.06271,-0.56034c1.0173,-0.03976 2.9871,0.32392 2.9871,0.32392" data-paper-data="{&quot;index&quot;:null}" fill="none" stroke="#000000" stroke-width="2.5" stroke-linecap="round"/><path d="M245.22313,118.81304c1.71877,-0.06717 3.15837,1.06235 3.21544,2.52284c0.05707,1.46049 -1.28999,2.6989 -3.00875,2.76607c-1.71877,0.06717 -3.15837,-1.06235 -3.21544,-2.52283c-0.05707,-1.46049 1.28999,-2.69891 3.00875,-2.76607z" data-paper-data="{&quot;index&quot;:null}" fill="url(#color-6)" stroke="none" stroke-width="0" stroke-linecap="butt"/><path d="M244.25984,121.88476c-0.03561,-0.91124 0.67423,-1.67883 1.58547,-1.71443c0.91124,-0.03561 1.67882,0.67423 1.71443,1.58547c0.03561,0.91124 -0.67423,1.67882 -1.58547,1.71443c-0.91124,0.03561 -1.67882,-0.67423 -1.71442,-1.58547z" data-paper-data="{&quot;index&quot;:null}" fill="#000000" stroke="none" stroke-width="0" stroke-linecap="butt"/><path d="M247.03168,132.43437l-0.75974,-0.62994l-0.75725,0.81132l-1.0138,-0.24542l-1.08028,-0.30328l-0.72639,-0.71224l-1.04156,0.0843l-0.63414,-0.3024l-0.84006,0.31573l-1.44471,0.92204l-1.16246,-0.28842l-1.04632,0.50404l-0.88808,0.39631l-1.0145,-0.94643l-1.23768,-0.19908l0.45385,-0.97008l-1.18041,-0.41343l-0.1862,-1.1451l1.0736,-0.30632l0.13207,-0.78401l0.63848,-1.00399l1.01689,-0.05821l1.09057,-0.49408l0.88015,0.03762l0.80683,-0.66345l1.39755,-0.16378l1.46066,-0.79026l0.83627,0.79634l1.22886,0.18505l0.70236,0.68582l0.95392,-0.02497l0.70642,0.6428l0.94419,-0.55358l0.563,1.03055l0.42978,0.49281l0.94124,-0.20112l0.52432,1.66238l-0.59887,1.13578l-0.51165,1.18231z" data-paper-data="{&quot;index&quot;:null}" fill="url(#color-7)" stroke="#000000" stroke-width="0" stroke-linecap="butt"/><path d="M227.11568,115.6862l-0.7721,-1.79178l0.2731,-1.64288l-0.41436,-1.70734l0.99996,-0.42724l0.82304,-0.31404l0.48663,-1.21404l1.55179,0.46455l1.21053,-0.56512l1.34958,-1.31921l1.02622,0.89461l1.67551,-0.70374l1.99147,-0.27489l1.45759,0.00788c0,0 0.30364,0.93836 0.67386,1.17613c0.37393,0.24015 1.55868,0.25772 1.55868,0.25772l1.06947,-0.92049l1.29686,0.19305l1.52199,0.25354l1.37338,-0.14303l1.33813,-0.14621l-0.74937,1.5379l0.57714,0.83123l0.84929,1.03492l0.80355,1.35584c0,0 -0.06089,0.94316 -0.31601,1.18923c-0.22467,0.21671 -1.36791,0.28994 -1.36791,0.28994l-1.55038,-0.38124l-0.80395,1.22897c0,0 -0.95776,0.18077 -1.1821,0.16523c-0.3366,-0.02332 -0.65864,-0.74035 -0.65864,-0.74035l-1.28974,0.38228c0,0 -0.24125,0.08751 -0.58435,0.05259c-0.2359,-0.02401 -0.58667,-0.60018 -0.72473,-0.67054c-0.24221,-0.12345 -0.55079,-0.76986 -0.55079,-0.76986c0,0 -0.60536,-0.03884 -0.90004,0.09357c-0.36411,0.1636 -0.66373,1.54264 -0.66373,1.54264l-1.52745,-0.06788l-1.07394,-0.16085l-1.54698,-0.35425l-1.0084,0.4247l-1.53101,0.93967l-1.45492,0.47511l-1.20064,-1.10013l-1.03924,1.00849z" data-paper-data="{&quot;index&quot;:null}" fill="#000000" stroke="#000000" stroke-width="0.5" stroke-linecap="butt"/><path d="M252.51647,136.45814c0,0 3.45146,8.78261 5.22827,14.12677c0.99034,2.97865 3.38863,7.78869 4.2239,11.99461c0.61026,3.07292 1.02673,5.39631 1.02673,5.39631" data-paper-data="{&quot;index&quot;:null}" fill="none" stroke="#121212" stroke-width="10" stroke-linecap="round"/><path d="M223.92648,132.34544l28.68318,-0.67499c0,0 -0.61043,13.51675 -0.1832,20.08255c0.41984,6.45212 3.0655,19.29461 3.0655,19.29461c0,0 -9.56789,2.43779 -14.34515,2.57048c-4.76832,0.13244 -14.29162,-1.7751 -14.29162,-1.7751c0,0 -0.26309,-12.63092 -0.74464,-19.12532c-0.49435,-6.66692 -2.18407,-20.37221 -2.18407,-20.37221z" data-paper-data="{&quot;index&quot;:null}" fill="#191919" stroke="none" stroke-width="0" stroke-linecap="butt"/><path d="M218.82422,171.04992c0.48224,-5.08293 -2.12789,-16.76811 1.32191,-24.36243c2.59557,-5.71382 4.28836,-10.60254 4.28836,-10.60254" data-paper-data="{&quot;index&quot;:null}" fill="none" stroke="#121212" stroke-width="10" stroke-linecap="round"/><path d="M253.59411,136.87711c0,0 3.04235,10.71251 2.56378,15.52429c0.15926,4.90767 -0.14054,17.89685 -0.14054,17.89685c0,0 -9.45809,4.04346 -15.28387,4.47772c-5.82578,0.43426 -14.89848,-2.85836 -14.89848,-2.85836c0,0 -0.05404,-15.66487 0.55064,-20.5626c-0.0142,-2.05375 2.15156,-13.89843 2.15156,-13.89843c0,0 3.09276,-0.63735 6.71156,-0.47622c2.44887,0.10904 6.2697,0.09498 8.75296,0.13457c2.65437,0.0423 1.60327,-0.22443 3.0734,-0.20149z" data-paper-data="{&quot;index&quot;:null}" fill="url(#color-8)" stroke="#000000" stroke-width="2" stroke-linecap="butt"/><path d="M228.54297,165.34219c0,-1.66344 0.0757,-8.56714 0.0757,-8.56714c0,0 2.12007,0 3.19491,0c1.09495,0 3.31558,0 3.31558,0c0,0 0,6.86368 0,8.56714c0,0.74305 -0.58047,1.52371 -1.28695,1.52371c-1.36194,0 -3.3978,-0.07703 -4.08797,-0.07703c-0.40142,0 -1.21125,-0.76311 -1.21125,-1.44668z" data-paper-data="{&quot;index&quot;:null}" fill="url(#color-9)" stroke="#000000" stroke-width="1" stroke-linecap="butt"/><path d="M227.87016,159.54808c0,0 0,-2.75859 0,-3.55055c0,-0.36512 0.6805,-1.01416 1.26173,-1.01416c0.95139,0 3.75032,0 5.25716,0c0.55158,0 1.05143,0.66928 1.05143,1.08549c0,0.81575 0,3.47922 0,3.47922z" data-paper-data="{&quot;index&quot;:null}" fill="#282828" stroke="#000000" stroke-width="1" stroke-linecap="butt"/><text transform="translate(241.68893,141.86005) scale(0.06656,0.06656)" font-size="40" xml:space="preserve" data-paper-data="{&quot;index&quot;:null}" fill="#ffffff" fill-rule="nonzero" stroke="#ffffff" stroke-width="2" stroke-linecap="butt" stroke-linejoin="miter" stroke-miterlimit="10" stroke-dasharray="" stroke-dashoffset="0" font-family="Sans Serif" font-weight="normal" text-anchor="start" style="mix-blend-mode: normal"><tspan x="0" dy="0">S.O.A.S.T</tspan></text><path d="M244.79861,150.46722c-0.30462,-0.56394 -0.48903,-1.20237 -0.51889,-1.88095" data-paper-data="{&quot;index&quot;:null}" fill="#e6e016" stroke="#ff1919" stroke-width="3" stroke-linecap="butt"/><path d="M251.91305,131.9804c0,0 1.43413,1.90811 1.4907,2.92744c0.05423,0.97691 -0.32223,3.00167 -0.32223,3.00167l-7.21705,0.07268c0,0 0.95555,-2.82735 0.95491,-2.95487c-0.00446,-0.89417 -0.86493,-2.93059 -0.86493,-2.93059z" data-paper-data="{&quot;index&quot;:null}" fill="#000000" stroke="#000000" stroke-width="0.5" stroke-linecap="butt"/><path d="M244.75071,146.58882c0.34525,-0.61821 0.86008,-1.12883 1.48154,-1.46894" data-paper-data="{&quot;index&quot;:null}" fill="none" stroke="#1921ff" stroke-width="3" stroke-linecap="butt"/><path d="M248.14854,144.66252c0.85164,0.0256 1.63205,0.3346 2.25015,0.8359" data-paper-data="{&quot;index&quot;:null}" fill="none" stroke="#4aff19" stroke-width="3" stroke-linecap="butt"/><path d="M251.59464,147.21633c0.12732,0.37737 0.19634,0.78159 0.19634,1.20192c0,0.28058 -0.03076,0.55398 -0.08908,0.81702" data-paper-data="{&quot;index&quot;:null}" fill="none" stroke="#fff719" stroke-width="3" stroke-linecap="butt"/><path d="M250.96759,150.83122c-0.46781,0.50251 -1.07166,0.8767 -1.75291,1.06389" data-paper-data="{&quot;index&quot;:null}" fill="none" stroke="#ff9319" stroke-width="3" stroke-linecap="butt"/><path d="M246.25249,152.80578l1.91395,-4.54561" data-paper-data="{&quot;index&quot;:null}" fill="none" stroke="#000000" stroke-width="1.5" stroke-linecap="round"/><path d="M246.51405,148.33802c0,-0.84019 0.68111,-1.52132 1.52132,-1.52132c0.84019,0 1.52132,0.68111 1.52132,1.52132c0,0.84019 -0.68111,1.52132 -1.52132,1.52132c-0.84019,0 -1.52132,-0.68111 -1.52132,-1.52132z" data-paper-data="{&quot;index&quot;:null}" fill="#ffffff" stroke="none" stroke-width="3" stroke-linecap="butt"/><path d="M234.00402,132.40416c0,0 0.14889,1.8151 0.26187,2.80823c0.12371,1.08755 0.7052,2.93745 0.7052,2.93745l-6.14536,0.02904c0,0 -1.20962,-1.78516 -1.22744,-2.901c-0.01591,-0.99624 -0.03725,-2.96171 -0.03725,-2.96171z" data-paper-data="{&quot;index&quot;:null}" fill="#000000" stroke="#000000" stroke-width="0.5" stroke-linecap="butt"/><path d="M242.19958,108.53344c4.26635,0.73913 3.98283,-4.75337 7.2017,-1.44825c3.68263,3.79034 4.96356,13.0895 5.24012,19.35764c-0.9874,4.90049 -0.4449,4.71907 -5.68389,6.08957c-4.56897,1.02206 -11.34523,1.92277 -15.99255,1.83006c-0.36332,-0.00724 -1.1367,-0.00211 -1.32301,-0.04891c-3.35314,-2.11221 -4.1698,-3.2105 -5.20544,-6.36868c-0.10616,-0.32397 -0.74642,-6.32074 0.08293,-10.02946c0.77863,-4.01404 -0.66853,-3.96143 1.78687,-6.71283c1.82369,-2.04444 6.80564,-1.19171 9.19967,-0.77433z" data-paper-data="{&quot;index&quot;:null}" fill="#3e3e3e" stroke="#000000" stroke-width="1.5" stroke-linecap="round"/><path d="M248.66018,135.48693c-2.92601,0 -7.49256,-2.51347 -7.49256,-5.81344c0,-1.74284 0.30574,-3.49366 1.02532,-4.83417c0.64289,-1.19766 1.76923,-2.24581 3.14989,-2.24581c1.07765,0 3.11182,-0.03897 4.38128,0.89376c2.17736,1.5998 3.44301,4.80228 3.44301,6.88687c0,0 -1.58094,5.11279 -4.50695,5.11279z" data-paper-data="{&quot;index&quot;:null}" fill="#151515" stroke="#000000" stroke-width="1.5" stroke-linecap="butt"/><path d="M252.82798,130.25758c0,2.56476 -1.83848,4.64392 -4.10635,4.64392c-2.26788,0 -4.10636,-2.07915 -4.10636,-4.64392c0,-2.56476 1.83848,-4.64391 4.10636,-4.64391c2.26788,0 4.10635,2.07915 4.10635,4.64391z" data-paper-data="{&quot;index&quot;:null}" fill="#313131" stroke="#000000" stroke-width="1.5" stroke-linecap="butt"/><path d="M249.24471,109.61784c1.30298,0.22714 2.37425,1.09546 3.05097,2.31156c0.67571,1.2202 0.95672,2.7885 0.68263,4.41629c-0.27414,1.62781 -1.05222,3.01143 -2.08859,3.93316c-1.03602,0.9178 -2.33026,1.37336 -3.63323,1.14622c-1.30327,-0.22719 -2.37465,-1.09518 -3.05097,-2.31157c-0.67598,-1.22025 -0.95671,-2.7885 -0.68262,-4.41629c0.27414,-1.62781 1.05187,-3.01152 2.08859,-3.93316c1.03565,-0.91753 2.32994,-1.37343 3.63322,-1.14622z" data-paper-data="{&quot;index&quot;:null}" fill="#000000" stroke="#000000" stroke-width="2" stroke-linecap="butt"/><path d="M250.23745,110.93233c1.06873,0.20143 1.94743,0.97142 2.50247,2.04983c0.55423,1.08204 0.78472,2.47277 0.55991,3.91622c-0.22485,1.44348 -0.86305,2.67043 -1.71311,3.48781c-0.84976,0.81389 -1.91133,1.21785 -2.98005,1.01644c-1.06897,-0.20146 -1.94774,-0.97117 -2.50248,-2.04982c-0.55446,-1.08208 -0.78472,-2.47277 -0.55991,-3.91623c0.22486,-1.44348 0.86276,-2.67052 1.71312,-3.48781c0.84946,-0.81364 1.91108,-1.21792 2.98005,-1.01644z" data-paper-data="{&quot;index&quot;:null}" fill="url(#color-10)" stroke="#000000" stroke-width="2" stroke-linecap="butt"/><path d="M229.11756,113.01984c0,0 0.70531,20.90028 0.09208,20.69666c-0.95399,-0.31679 -0.65146,-1.1366 -2.57773,-1.4533c-1.04015,-0.17101 -3.58777,0.30546 -5.38936,-0.24386c-1.32265,-0.40328 -1.61682,-22.78894 -1.61682,-22.78894c0,0 1.0452,-7.11665 13.39125,-9.36474c14.52498,-0.08153 15.98806,6.63117 15.98806,6.63117c0,0 -2.31806,1.53768 -6.58996,4.43724c-4.25001,2.8847 -10.91328,2.23981 -10.91328,2.23981z" data-paper-data="{&quot;index&quot;:null}" fill="#1e1e1e" stroke="#000000" stroke-width="1.5" stroke-linecap="butt"/><path d="M238.3434,113.62336c1.30298,0.22714 2.37425,1.09545 3.05097,2.31157c0.67571,1.2202 0.95672,2.78851 0.68263,4.41629c-0.27414,1.62781 -1.05222,3.01142 -2.08859,3.93316c-1.03602,0.9178 -2.33025,1.37336 -3.63322,1.14623c-1.30327,-0.22719 -2.37465,-1.09518 -3.05097,-2.31157c-0.67598,-1.22025 -0.95671,-2.78851 -0.68262,-4.41629c0.27414,-1.62781 1.05186,-3.01152 2.08858,-3.93316c1.03565,-0.91753 2.32995,-1.37343 3.63322,-1.14622z" data-paper-data="{&quot;index&quot;:null}" fill="#000000" stroke="#000000" stroke-width="2" stroke-linecap="butt"/><path d="M239.33614,114.93787c1.06873,0.20143 1.94743,0.97142 2.50247,2.04983c0.55423,1.08204 0.78472,2.47277 0.55991,3.91623c-0.22486,1.44348 -0.86305,2.67044 -1.71311,3.48781c-0.84976,0.81389 -1.91133,1.21785 -2.98005,1.01644c-1.06897,-0.20146 -1.94774,-0.97117 -2.50248,-2.04982c-0.55446,-1.08208 -0.78472,-2.47277 -0.55991,-3.91623c0.22486,-1.44348 0.86276,-2.67052 1.71312,-3.48781c0.84946,-0.81364 1.91108,-1.21792 2.98005,-1.01644z" data-paper-data="{&quot;index&quot;:null}" fill="url(#color-11)" stroke="#000000" stroke-width="2" stroke-linecap="butt"/><path d="M243.03903,116.00141c0.77004,1.42157 1.09029,3.24868 0.77794,5.1451c-0.31241,1.89643 -1.19912,3.50839 -2.38019,4.58225c-1.18066,1.06928 -2.65559,1.1394 -4.14046,0.87477c-1.48521,-0.26469 -2.70618,-0.81532 -3.47693,-2.23243c-0.77036,-1.42162 -1.09029,-3.24868 -0.77794,-5.1451c0.31241,-1.89643 1.19872,-3.39335 2.3802,-4.46709c1.18024,-1.06894 2.65525,-1.02435 4.14047,-0.75963c0,0 2.70573,0.58535 3.47692,2.00214z" data-paper-data="{&quot;index&quot;:null}" fill="url(#color-12)" stroke="#000000" stroke-width="0" stroke-linecap="butt"/><g stroke="#000000"><g data-paper-data="{&quot;index&quot;:null}"><path d="M269.7455,164.85266l-7.30548,11.45314l-3.4566,-2.14884l7.55089,-11.41532z" data-paper-data="{&quot;index&quot;:null}" fill="url(#color-13)" stroke-width="2" stroke-linecap="butt"/><path d="M302.30871,105.77741c0,0 2.14727,6.58758 -1.25637,11.68099c-6.41125,9.5942 -19.60424,32.65555 -24.00037,39.2342c-4.11434,6.15697 -4.87682,8.0334 -4.87682,8.0334l-6.41848,-4.24975l36.55202,-54.69886z" data-paper-data="{&quot;index&quot;:null}" fill="url(#color-14)" stroke-width="2" stroke-linecap="butt"/><path d="M272.09461,165.27434l-6.67497,-4.80442" data-paper-data="{&quot;index&quot;:null}" fill="none" stroke-width="4" stroke-linecap="round"/><path d="M268.19343,166.85346l-2.89469,-1.88955" data-paper-data="{&quot;index&quot;:null}" fill="none" stroke-width="2" stroke-linecap="round"/><path d="M264.08524,167.3222l2.74234,1.7901" data-paper-data="{&quot;index&quot;:null}" fill="none" stroke-width="1.5" stroke-linecap="round"/><path d="M262.20763,169.63943l2.66617,1.74038" data-paper-data="{&quot;index&quot;:null}" fill="none" stroke-width="1.5" stroke-linecap="round"/><path d="M261.07781,172.02725l2.66617,1.74038" data-paper-data="{&quot;index&quot;:null}" fill="none" stroke-width="1.5" stroke-linecap="round"/></g><path d="M301.67367,107.48352c0,0 -0.23586,4.33334 -1.76762,6.73878c-4.8883,7.67644 -30.98238,48.51122 -30.98238,48.51122" fill="none" stroke-width="1" stroke-linecap="round"/></g><path d="M253.61666,112.02055c0.71348,1.43689 1.0102,3.28371 0.72079,5.20054c-0.28946,1.91687 -1.11102,3.54621 -2.20533,4.63162c-1.09392,1.08079 -2.46051,1.15167 -3.83629,0.8842c-1.37611,-0.26754 -2.50738,-0.8241 -3.22149,-2.25648c-0.71377,-1.43695 -1.0102,-3.28371 -0.72079,-5.20055c0.28946,-1.91687 1.11065,-3.42992 2.20534,-4.51523c1.09354,-1.08047 2.46017,-1.03539 3.83629,-0.76781c0,0 2.50697,0.59165 3.22149,2.02371z" data-paper-data="{&quot;index&quot;:null}" fill="url(#color-15)" stroke="#000000" stroke-width="0" stroke-linecap="butt"/><path d="M227.01181,110.75839l-0.9632,-0.9632" data-paper-data="{&quot;index&quot;:null}" fill="none" stroke="#000000" stroke-width="1" stroke-linecap="round"/><path d="M227.14944,109.65758l-0.9632,1.10081" data-paper-data="{&quot;index&quot;:null}" fill="none" stroke="#000000" stroke-width="1" stroke-linecap="round"/><path d="M241.28733,103.68704l0.68466,1.1776" data-paper-data="{&quot;index&quot;:null}" fill="none" stroke="#000000" stroke-width="1" stroke-linecap="round"/><path d="M240.7886,104.5433l1.21282,-0.81767" data-paper-data="{&quot;index&quot;:null}" fill="none" stroke="#000000" stroke-width="1" stroke-linecap="round"/><path d="M230.34678,160.73335v-2.84375h2.56855v2.84375z" data-paper-data="{&quot;index&quot;:null}" fill="#000000" stroke="none" stroke-width="0" stroke-linecap="butt"/><path d="M265.46825,157.87174" data-paper-data="{&quot;index&quot;:null}" fill="none" stroke="url(#color-16)" stroke-width="10" stroke-linecap="round"/><path d="M259.31984,173.89347c-1.93025,-2.23635 -2.22593,-3.91706 -0.08499,-5.76495c1.09211,-0.94264 3.62466,-3.29215 4.98757,-3.56782c1.30885,-0.26476 3.09924,1.3844 4.04486,2.47997c1.93025,2.23635 0.49087,5.33736 -1.65008,7.18526c-2.14093,1.84789 -5.3671,1.90392 -7.29734,-0.33245z" data-paper-data="{&quot;index&quot;:null}" fill="#000000" stroke="url(#color-17)" stroke-width="0" stroke-linecap="butt"/><path d="M213.11657,172.43732c-0.09762,-2.95256 0.72782,-4.44617 3.55439,-4.53961c1.44188,-0.04768 4.88824,-0.28553 6.12197,0.35587c1.18482,0.61597 1.54236,3.02374 1.59019,4.47017c0.09762,2.95256 -2.97001,4.46177 -5.79661,4.55522c-2.82658,0.09346 -5.37234,-1.88907 -5.46996,-4.84163z" data-paper-data="{&quot;index&quot;:null}" fill="#000000" stroke="url(#color-18)" stroke-width="0" stroke-linecap="butt"/><path d="M238.04297,165.21719c0,-1.66344 0.0757,-8.56714 0.0757,-8.56714h6.51049c0,0 0,6.86368 0,8.56714c0,0.74305 -0.58047,1.52371 -1.28695,1.52371c-1.36194,0 -3.3978,-0.07703 -4.08797,-0.07703c-0.40142,0 -1.21125,-0.76311 -1.21125,-1.44668z" data-paper-data="{&quot;index&quot;:null}" fill="url(#color-19)" stroke="#000000" stroke-width="1" stroke-linecap="butt"/><path d="M237.51306,159.42308c0,0 0,-2.75859 0,-3.55055c0,-0.36512 0.6805,-1.01416 1.26173,-1.01416c0.95139,0 3.75032,0 5.25716,0c0.55158,0 1.05143,0.66928 1.05143,1.08549c0,0.81575 0,3.47922 0,3.47922z" data-paper-data="{&quot;index&quot;:null}" fill="#282828" stroke="#000000" stroke-width="1" stroke-linecap="butt"/><path d="M239.84678,160.60835v-2.84375h2.56855v2.84375z" data-paper-data="{&quot;index&quot;:null}" fill="#000000" stroke="none" stroke-width="0" stroke-linecap="butt"/><path d="M247.41797,165.09219c0,-1.66344 0.0757,-8.56714 0.0757,-8.56714h6.51049c0,0 0,6.86368 0,8.56714c0,0.74305 -0.58047,1.52371 -1.28695,1.52371c-1.36194,0 -3.3978,-0.07703 -4.08797,-0.07703c-0.40142,0 -1.21125,-0.76311 -1.21125,-1.44668z" data-paper-data="{&quot;index&quot;:null}" fill="url(#color-20)" stroke="#000000" stroke-width="1" stroke-linecap="butt"/><path d="M246.88806,159.29808c0,0 0,-2.75859 0,-3.55055c0,-0.36512 0.6805,-1.01416 1.26173,-1.01416c0.95139,0 3.75032,0 5.25716,0c0.55158,0 1.05143,0.66928 1.05143,1.08549c0,0.81575 0,3.47922 0,3.47922z" data-paper-data="{&quot;index&quot;:null}" fill="#282828" stroke="#000000" stroke-width="1" stroke-linecap="butt"/><path d="M249.22178,160.48335v-2.84375h2.56855v2.84375z" data-paper-data="{&quot;index&quot;:null}" fill="#000000" stroke="none" stroke-width="0" stroke-linecap="butt"/><g data-paper-data="{&quot;index&quot;:null}" stroke="#000000" stroke-width="1" stroke-linecap="butt"><path d="M231.32763,150.85036c0,-1.20307 0.0628,-6.19616 0.0628,-6.19616h5.40093c0,0 0,4.96414 0,6.19616c0,0.5374 -0.48154,1.10201 -1.06762,1.10201c-1.12983,0 -2.81873,-0.05571 -3.39128,-0.05571c-0.33301,0 -1.00482,-0.55191 -1.00482,-1.0463z" fill="url(#color-21)"/><path d="M230.88806,146.65979c0,0 0,-1.99513 0,-2.56792c0,-0.26407 0.56452,-0.7335 1.0467,-0.7335c0.78925,0 3.11116,0 4.3612,0c0.45758,0 0.87224,0.48405 0.87224,0.78508c0,0.58998 0,2.51634 0,2.51634z" fill="#282828"/></g></g></g></svg>