<svg version="1.1" xmlns="http://www.w3.org/2000/svg" xmlns:xlink="http://www.w3.org/1999/xlink" width="136.68971" height="99.25718" viewBox="0,0,136.68971,99.25718"><g transform="translate(-160.40134,-188.2589)"><g data-paper-data="{&quot;isPaintingLayer&quot;:true}" fill="#000000" fill-rule="nonzero" stroke="#0a0a0a" stroke-width="0" stroke-linecap="butt" stroke-linejoin="miter" stroke-miterlimit="10" stroke-dasharray="" stroke-dashoffset="0" style="mix-blend-mode: normal"><path d="M261.06801,199.18274l2.22605,-9.22187l3.0894,6.53638l2.10739,-7.30517l2.81006,7.10738l2.34282,-7.3559l2.93126,7.43123l2.34296,-7.8282l2.57392,7.70973l2.48085,-6.89527l2.21405,7.06902l2.09583,-6.89451l2.94307,6.44825l2.09436,-7.72491l3.77102,11.10618z"/><path d="M236.09991,287.51608h-75.69857l3.14377,-9.22187l4.36304,6.53638l2.97619,-7.30517l3.96855,7.10738l3.30868,-7.3559l4.13971,7.43123l3.30888,-7.8282l3.63505,7.70973l3.5036,-6.89527l3.12683,7.06902l2.95986,-6.89451l4.15639,6.44825l2.95778,-7.72491l4.15091,7.68799l3.1546,-7.0936l3.66921,6.51179l3.93639,-6.23446l3.28006,6.17087l2.82997,-6.02819l3.26811,6.02189l2.70047,-6.24135z"/></g></g></svg>