<svg version="1.1" xmlns="http://www.w3.org/2000/svg" xmlns:xlink="http://www.w3.org/1999/xlink" width="111.21464" height="71.79298" viewBox="0,0,111.21464,71.79298"><defs><radialGradient cx="237.14931" cy="138.49597" r="9.23737" gradientUnits="userSpaceOnUse" id="color-1"><stop offset="0" stop-color="#a2a2a2"/><stop offset="1" stop-color="#747474"/></radialGradient><radialGradient cx="199.37407" cy="144.34874" r="6.68585" gradientUnits="userSpaceOnUse" id="color-2"><stop offset="0" stop-color="#383838"/><stop offset="1" stop-color="#181818"/></radialGradient><linearGradient x1="198.82834" y1="144.25732" x2="203.4029" y2="145.40131" gradientUnits="userSpaceOnUse" id="color-3"><stop offset="0" stop-color="#320000"/><stop offset="1" stop-color="#ff0000"/></linearGradient><radialGradient cx="233.94012" cy="172.51238" r="7.07005" gradientUnits="userSpaceOnUse" id="color-4"><stop offset="0" stop-color="#a2a2a2"/><stop offset="1" stop-color="#747474"/></radialGradient><radialGradient cx="246.42006" cy="172.80629" r="7.23763" gradientUnits="userSpaceOnUse" id="color-5"><stop offset="0" stop-color="#a2a2a2"/><stop offset="1" stop-color="#747474"/></radialGradient><radialGradient cx="240.28908" cy="153.47199" r="10.2108" gradientUnits="userSpaceOnUse" id="color-6"><stop offset="0" stop-color="#6e6e6e"/><stop offset="1" stop-color="#a2a2a2"/></radialGradient></defs><g transform="translate(-141.68741,-123.53654)"><g data-paper-data="{&quot;isPaintingLayer&quot;:true}" fill-rule="nonzero" stroke-linejoin="miter" stroke-miterlimit="10" stroke-dasharray="" stroke-dashoffset="0" style="mix-blend-mode: normal"><path d="M221.30115,139.07531c0,0 0.18236,-1.73979 1.05932,-1.84071c1.45814,-0.16783 2.11898,0.20899 2.49418,1.10769c0.37521,0.8987 -1.3459,1.65575 -1.27721,1.80721c0.07211,0.15903 2.32273,0.83447 2.5771,1.6548c0.25442,0.82032 -0.64803,1.81946 -2.03379,1.4899c-1.07119,-0.25473 -1.56977,-1.26293 -1.56977,-1.26293l-9.42017,2.0371c0,0 -0.40489,1.32474 -0.9256,1.91132c-0.44156,0.49738 -2.09576,0.40376 -2.63038,-0.51632c-0.5346,-0.92009 1.19946,-2.35642 1.18761,-2.39623c-0.01858,-0.06248 -1.56106,0.15634 -2.35851,-0.28023c-0.7293,-0.39926 -0.97628,-1.30573 -0.17787,-1.88725c1.14998,-0.83756 3.86999,0.34798 3.86999,0.34798z" data-paper-data="{&quot;index&quot;:null}" fill="#464646" stroke="#000000" stroke-width="1.5" stroke-linecap="butt"/><path d="M232.17348,136.76639c0,0 -1.56386,0.92544 -2.19116,0.2566c-1.04303,-1.11211 -1.13805,-1.89657 -0.62096,-2.76607c0.51709,-0.8695 2.21438,0.09697 2.29814,-0.05414c0.08797,-0.15861 -0.7426,-2.45389 -0.21604,-3.17408c0.52655,-0.72023 1.9187,-0.5864 2.5021,0.77337c0.45098,1.0511 -0.08103,2.09132 -0.08103,2.09132l7.53309,6.59443c0,0 1.35554,-0.4828 2.16723,-0.41181c0.68828,0.06021 1.63472,1.49773 1.19848,2.51341c-0.43622,1.0157 -2.70802,0.45908 -2.73389,0.49362c-0.04058,0.05419 1.09719,1.20505 1.22701,2.14048c0.11871,0.8555 -0.48431,1.62287 -1.46374,1.31716c-1.41071,-0.44032 -2.10661,-3.44294 -2.10661,-3.44294z" data-paper-data="{&quot;index&quot;:null}" fill="url(#color-1)" stroke="#000000" stroke-width="1.5" stroke-linecap="butt"/><path d="M200.29451,150.30996c0,0 -22.52441,1.26909 -30.5959,1.72384c-5.28557,0.29779 -13.12715,0.63043 -13.12715,0.63043c0,0 -4.95935,0.00308 -7.28728,-0.41678c-2.19777,-0.39637 -7.46665,-1.70107 -7.46665,-1.70107c0,0 4.87276,-2.35016 7.14454,-3.09839c2.10409,-0.69297 7.02381,-1.56309 7.02381,-1.56309c0,0 7.92325,-0.67436 13.25287,-1.05444c8.09193,-0.5771 30.56672,-2.17993 30.56672,-2.17993z" fill="none" stroke="#ff0000" stroke-width="0" stroke-linecap="butt"/><g data-paper-data="{&quot;index&quot;:null}" stroke="#000000"><path d="M199.63467,148.41009c0,0 -21.84464,-5.63661 -29.67253,-7.65648c-5.12606,-1.3227 -12.6978,-3.38903 -12.6978,-3.38903c0,0 -4.7257,-1.50432 -6.8159,-2.61183c-1.97334,-1.04558 -6.59646,-3.88989 -6.59646,-3.88989c0,0 5.35654,-0.75805 7.74826,-0.78044c2.21517,-0.02071 7.16661,0.64554 7.16661,0.64554c0,0 7.75341,1.76559 12.94644,3.02329c7.88456,1.90952 29.78335,7.2131 29.78335,7.2131z" fill="#ffffff" stroke-width="1.5" stroke-linecap="butt"/><path d="M197.79174,145.33266l-35.443,-8.8636c0,0 -5.1419,-1.41054 -6.94768,-2.08814c-0.88552,-0.33229 -2.73462,-1.15 -2.64697,-1.56669c0.08108,-0.38551 2.0282,-0.3891 2.95587,-0.27235c1.78779,0.225 7.15318,1.34569 7.15318,1.34569l35.56642,8.89448z" fill="#656565" stroke-width="1" stroke-linecap="butt"/><path d="M217.27306,150.58457l-17.73179,-4.43434l0.84779,-3.3901l17.73178,4.43437z" fill="#331b08" stroke-width="1" stroke-linecap="butt"/><path d="M201.46625,143.42314l0.34116,2.93531l2.4939,-2.09408l0.02981,2.73781l2.19483,-2.31374l0.51493,2.85491l1.76898,-2.15982l0.57323,2.62165l2.28888,-1.78198l0.11037,2.62981l2.1735,-1.93473l0.34245,2.31607l1.85519,-1.89042l0.34245,2.99188" fill="none" stroke-width="0.75" stroke-linecap="round"/><path d="M203.56132,137.46031c0,0 -0.82654,1.21885 -1.09938,2.30977c-0.25952,1.03775 0.04055,1.92413 -0.20197,2.89382c-0.13521,0.54067 -1.47011,1.01049 -1.67879,1.84505c-0.22265,0.89027 0.67819,2.15611 0.45277,3.05756c-0.20544,0.82152 -0.90222,1.17376 -1.0704,1.8462c-0.32973,1.31849 -0.31972,3.03755 -0.31972,3.03755c0,0 -1.54776,0.92152 -2.33384,0.72495c-0.65523,-0.16385 -1.79685,-2.20977 -1.79685,-2.20977l0.66934,-2.72263l-0.71494,-1.61533l1.3482,-0.87077c0,0 0.76352,-3.05311 1.01281,-4.04993c0.09176,-0.36676 -0.71551,-1.31137 -0.71551,-1.31137l1.34605,-0.85749l0.70633,-3.17684c0,0 1.78772,-0.86941 2.52258,-0.68563z" fill="#3e0d0d" stroke-width="1" stroke-linecap="butt"/><path d="M204.77144,140.5185l-1.60832,1.84998c0,0 -1.66997,1.33294 -1.91527,2.31377c-0.25068,1.00241 0.51583,3.28211 0.51583,3.28211l0.90254,2.11755l-1.81428,1.52824l-2.60573,-0.65161l-3.04076,-2.6523c0,0 3.39413,-0.66966 3.60923,-1.52977c0.12273,-0.49082 -2.22644,-1.4512 -2.22644,-1.4512l-1.63012,-2.21592l2.43346,-0.88723c0,0 2.54794,0.26845 2.81038,-0.48399c0.00672,-1.24355 -2.42153,-3.32826 -2.42153,-3.32826l3.70981,-0.42355l2.60571,0.65164z" fill="url(#color-2)" stroke-width="1" stroke-linecap="butt"/><path d="M203.40289,145.40133l-2.82704,1.58626l-1.74753,-2.73029l2.82704,-1.5863z" fill="url(#color-3)" stroke-width="1" stroke-linecap="butt"/></g><path d="M235.03272,190.00932c0,0 1.64678,0.60046 1.68049,1.45783c0.05605,1.42559 -0.35056,1.96043 -1.2347,2.09591c-0.88413,0.13549 -1.48356,-1.68449 -1.63296,-1.65648c-0.15685,0.02941 -0.96184,2.00023 -1.76258,2.04025c-0.80075,0.04005 -1.68956,-1.06215 -1.27629,-2.29685c0.31946,-0.95444 1.31686,-1.18015 1.31686,-1.18015l-1.27133,-9.44397c0,0 -1.23493,-0.70978 -1.75739,-1.34824c-0.44303,-0.5414 -0.2357,-2.08891 0.68025,-2.37048c0.91592,-0.28156 2.16248,1.7176 2.20131,1.71613c0.06092,-0.0023 -0.03777,-1.52051 0.43563,-2.17038c0.43294,-0.59434 1.31533,-0.60615 1.81314,0.29471c0.71699,1.29752 -0.60807,3.58873 -0.60807,3.58873z" data-paper-data="{&quot;index&quot;:null}" fill="#464646" stroke="#000000" stroke-width="1.5" stroke-linecap="butt"/><path d="M233.61485,177.35508c0,0 0.96769,1.19286 0.59836,1.90438c-0.6141,1.18306 -1.1676,1.44392 -1.89797,1.17574c-0.73038,-0.26817 -0.34519,-2.0044 -0.47097,-2.04554c-0.13205,-0.04321 -1.64776,1.21471 -2.27118,0.90461c-0.62343,-0.31007 -0.78741,-1.58655 0.09339,-2.41358c0.68086,-0.63931 1.53836,-0.39603 1.53836,-0.39603l3.38823,-8.2224c0,0 -0.60618,-1.10551 -0.70692,-1.84818c-0.08541,-0.62975 0.78383,-1.79923 1.60551,-1.63622c0.82166,0.163 0.84289,2.32181 0.87291,2.33723c0.04708,0.0242 0.67163,-1.2524 1.32854,-1.57822c0.60078,-0.29797 1.2729,0.07001 1.23417,1.01546c-0.05577,1.36175 -2.11196,2.65761 -2.11196,2.65761z" data-paper-data="{&quot;index&quot;:null}" fill="url(#color-4)" stroke="#000000" stroke-width="1.5" stroke-linecap="butt"/><g stroke="#000000" stroke-width="1"><path d="M229.5894,194.33056c0,0 -0.65804,-1.26954 -0.65804,-1.87107c0,-0.64307 1.80303,-1.49686 1.80303,-1.49686c0,0 1.89489,0.24948 3.13622,0.24948c1.34557,0 2.70323,-0.49895 2.70323,-0.49895c0,0 2.12152,0.94877 2.12152,1.6216c0,0.54936 -0.97653,1.99581 -0.97653,1.99581c0,0 -2.78393,0.49895 -4.1167,0.49895c-1.25825,0 -4.01273,-0.49895 -4.01273,-0.49895z" fill="#464646" stroke-linecap="butt"/><path d="M231.89353,192.83371l-1.24738,1.74634" fill="none" stroke-linecap="round"/><path d="M233.63987,192.83372v1.87107" fill="none" stroke-linecap="round"/><path d="M236.50885,194.58005l-0.74843,-1.6216" fill="none" stroke-linecap="round"/></g><path d="M245.80528,180.56964c0,0 -1.32506,-2.29122 -0.60807,-3.58874c0.49782,-0.90086 1.3802,-0.88904 1.81314,-0.2947c0.47339,0.64987 0.37471,2.16808 0.43562,2.17038c0.03884,0.00146 1.28539,-1.99769 2.20131,-1.71613c0.91595,0.28157 1.12328,1.82907 0.68025,2.37047c-0.52246,0.63846 -1.75739,1.34824 -1.75739,1.34824l-1.27133,9.44397c0,0 0.99739,0.22572 1.31686,1.18016c0.41327,1.2347 -0.47554,2.33691 -1.27629,2.29685c-0.80075,-0.04003 -1.60573,-2.01084 -1.76259,-2.04025c-0.1494,-0.02802 -0.74884,1.79197 -1.63297,1.65648c-0.88414,-0.13547 -1.29075,-0.67031 -1.2347,-2.0959c0.03372,-0.85737 1.68049,-1.45784 1.68049,-1.45784z" data-paper-data="{&quot;index&quot;:null}" fill="#464646" stroke="#000000" stroke-width="1.5" stroke-linecap="butt"/><g stroke="#000000" stroke-width="1"><path d="M241.69948,193.46045c0,0 -0.65804,-1.26953 -0.65804,-1.87107c0,-0.64307 1.80303,-1.49686 1.80303,-1.49686c0,0 1.89489,0.24948 3.13622,0.24948c1.34556,0 2.70322,-0.49895 2.70322,-0.49895c0,0 2.12152,0.94878 2.12152,1.6216c0,0.54936 -0.97653,1.99581 -0.97653,1.99581c0,0 -2.78392,0.49896 -4.11669,0.49896c-1.25825,0 -4.01273,-0.49896 -4.01273,-0.49896z" fill="#464646" stroke-linecap="butt"/><path d="M244.00362,191.9636l-1.24738,1.74633" fill="none" stroke-linecap="round"/><path d="M245.74996,191.96359v1.87107" fill="none" stroke-linecap="round"/><path d="M248.61894,193.70993l-0.74843,-1.6216" fill="none" stroke-linecap="round"/></g><path d="M244.30587,145.38506c0,0 -2.28923,-0.11234 -4.89292,-0.30545c-0.89792,-0.0666 -5.19097,-2.8943 -8.0472,-2.22233c-3.70616,0.87188 -5.3967,1.68063 -5.3967,1.68063c0,0 -5.30487,0.94316 -5.89394,-0.35138c-0.78829,-1.73234 -1.43928,-2.67561 -1.42489,-3.69478c0.02369,-1.67796 2.94446,-3.09597 2.94446,-3.09597c0,0 7.6135,-0.11617 11.70699,-0.16601c2.94512,-0.03585 4.19487,-0.49107 6.07021,-0.18692c1.49845,0.24304 4.1104,0.55957 6.05093,1.23668c1.72084,0.60043 2.87195,1.58289 2.87195,1.58289c0,0 -0.85187,1.04148 -0.50919,2.44298c0.41288,1.68876 -3.47972,3.07965 -3.47972,3.07965z" fill="#171513" stroke="#000000" stroke-width="1.5" stroke-linecap="butt"/><path d="M239.47138,159.69034c0,0 -2.35246,-0.8993 -3.16373,-2.55252c-0.4951,-1.0089 -0.51705,-3.02388 -1.17907,-5.06188c-0.65409,-2.01356 -2.12145,-1.68621 -2.7145,-3.03253c-0.40001,-0.90808 -0.0755,-3.88794 -0.0755,-3.88794" fill="none" stroke="#000000" stroke-width="1.5" stroke-linecap="round"/><path d="M248.91628,177.02702c0,0 1.49079,0.40253 1.58876,1.21818c0.16291,1.35621 -0.15068,1.90946 -0.91453,2.1308c-0.76384,0.22134 -1.43429,-1.4552 -1.56296,-1.41291c-0.13509,0.04439 -0.68308,2.01102 -1.38148,2.13251c-0.6984,0.1215 -1.5651,-0.83919 -1.30156,-2.06181c0.20371,-0.94508 1.05959,-1.26441 1.05959,-1.26441l-1.86765,-8.89077c0,0 -1.13867,-0.54978 -1.64737,-1.10547c-0.43137,-0.47121 -0.37322,-1.97129 0.40683,-2.3355c0.78004,-0.36421 2.03177,1.41625 2.06567,1.41081c0.0532,-0.00854 -0.15444,-1.44878 0.20844,-2.11889c0.33188,-0.61284 1.10408,-0.71584 1.61213,0.09311c0.73177,1.16515 -0.24635,3.49192 -0.24635,3.49192z" data-paper-data="{&quot;index&quot;:null}" fill="url(#color-5)" stroke="#000000" stroke-width="1.5" stroke-linecap="butt"/><path d="M239.23279,160.488c0.1048,-1.45082 0.28421,-1.9057 0.18903,-3.43363c-0.15738,-2.27086 -5.75498,2.68431 -6.18765,-0.84751c-0.43269,-3.53183 5.66905,-1.48217 5.59317,-3.45571c-0.68694,-3.09284 -5.66943,2.32766 -6.47705,-1.34902c-0.80762,-3.67668 5.95706,-1.49725 5.72793,-3.32702c0.00344,-1.6575 -1.51822,-0.96021 -2.98653,-1.0265c-0.15308,-0.0069 -3.02974,0.9819 -3.76235,-0.55443c-0.79593,-1.66912 2.23343,-2.30971 2.23343,-2.30971c0,0 1.38373,0.16957 2.56435,-0.06535c0.20844,-0.04147 -0.7725,-3.44767 -0.50054,-3.5094c0.64691,-0.14688 3.72557,-0.78065 3.72557,-0.78065c0,0 0.48361,3.39144 0.81098,3.32629c1.64222,-0.32677 2.98994,-0.78652 2.98994,-0.78652c0,0 2.05951,0.15177 2.37851,1.29003c0.17147,0.61178 -1.55013,1.16435 -3.00536,1.87591c-1.25233,0.61236 -2.57849,0.48888 -2.36784,1.81651c0.36377,2.71899 5.57545,-2.53347 6.37752,1.08578c0.80208,3.61926 -5.90867,1.34969 -5.37729,3.75724c0.34291,2.12251 5.7408,-2.08113 6.33455,1.1423c0.59376,3.22344 -5.98012,0.96086 -5.45166,3.26522c0.22595,1.12211 0.58554,2.1374 1.04633,3.18809c1.89258,4.31543 4.25129,-2.36477 6.3064,1.3385c2.05513,3.70324 -0.14803,2.88111 -2.89171,4.81469c-0.93317,0.65765 -3.86015,-2.11615 -4.70639,-1.7796c-1.68094,0.66852 -2.19212,3.26848 -3.00378,3.43548c-2.16414,0.44528 -4.44131,0.07785 -4.07953,-3.33598c0,0 0.27458,-0.73867 1.4969,-1.3505c0.94485,-0.47294 2.88306,-0.48721 3.02301,-2.42448z" data-paper-data="{&quot;index&quot;:null}" fill="url(#color-6)" stroke="#000000" stroke-width="1.5" stroke-linecap="butt"/><path d="M224.34933,142.1957c0,0 1.79975,-2.14587 3.12374,-1.92184c0.91923,0.15555 1.09183,1.02538 0.64353,1.66952c-0.49022,0.70431 -1.88565,1.16824 -1.87504,1.22883c0.00675,0.03868 2.07615,0.52291 2.01146,1.52525c-0.06473,1.00238 -1.42313,1.77725 -2.00545,1.5427c-0.68674,-0.27662 -1.58609,-1.22572 -1.58609,-1.22572l-8.81682,2.24099c0,0 0.00276,1.06165 -0.79523,1.72746c-1.03234,0.86135 -2.21517,0.39671 -2.34524,-0.40348c-0.13007,-0.80016 1.48756,-2.31759 1.4816,-2.48226c-0.00567,-0.15688 -1.77841,-0.07264 -1.83937,-0.98985c-0.06097,-0.91723 0.3389,-1.51357 1.64162,-1.98511c0.7835,-0.28362 1.66933,1.10981 1.66933,1.10981z" data-paper-data="{&quot;index&quot;:null}" fill="#464646" stroke="#000000" stroke-width="1.5" stroke-linecap="butt"/><path d="M242.35294,141.91278l-2.54224,0.51388l-0.26979,-1.6972l-0.46145,0.08233l0.31837,1.73482l-2.68559,0.49448l-0.33188,-1.71373l-0.41231,0.07642l0.26256,1.75739l-2.27403,0.42725c0,0 -0.73652,-1.18713 -0.86669,-1.86694c-0.43952,-0.65781 -0.64983,-2.29945 -1.0063,-2.60106c-1.69358,-0.11583 -2.7397,-0.88833 -3.32604,-3.95794c-1.13056,-5.91871 0.90182,-10.03948 5.33521,-10.87594c4.43338,-0.83645 8.51573,2.30066 9.64627,8.21938c0,0 0.58745,3.87445 -1.16583,4.48861c-0.36405,1.02193 -0.21751,1.74239 -0.26939,2.76994z" fill="#464646" stroke="#000000" stroke-width="1.5" stroke-linecap="butt"/><path d="M238.2444,133.2756c-0.25336,-1.27323 0.76067,-0.91662 1.87974,-1.13931c1.11906,-0.22266 1.91935,-0.94028 2.17269,0.33292c0.25336,1.27323 -0.44844,2.48586 -1.56748,2.70854c-1.11906,0.22266 -2.23159,-0.62896 -2.48493,-1.90216z" fill="#1d1d1d" stroke="#000000" stroke-width="1" stroke-linecap="butt"/><path d="M231.96329,133.98795c-0.25336,-1.27323 0.76067,-0.91662 1.87974,-1.13931c1.11906,-0.22266 1.91934,-0.94028 2.17268,0.33292c0.25336,1.27323 -0.44844,2.48586 -1.56748,2.70854c-1.11906,0.22266 -2.23159,-0.62896 -2.48493,-1.90216z" fill="#1d1d1d" stroke="#000000" stroke-width="1" stroke-linecap="butt"/><path d="M209.22472,150.08089c-0.51187,2.14594 1.663,-0.42735 1.31557,-0.64675c-0.39951,-0.25228 -2.92874,2.11316 -2.63725,0.16837c0.25784,-1.72026 0.53112,-3.21609 0.36893,-2.91914c-0.23183,0.4244 -0.43925,1.67227 -0.84444,3.01943c-0.7693,2.5576 1.87343,1.30763 1.5809,1.26116c-0.58006,-0.0934 -2.97462,1.12863 -2.67925,-1.46687c0.17774,-1.56174 0.34361,-2.90057 0.29259,-3.20309c-0.03809,-0.22593 -0.01267,0.54345 -0.56476,3.02504c-0.65674,2.95204 1.94266,1.31441 1.68129,1.20677c-0.3237,-0.13332 -2.76585,0.58212 -2.70107,-1.50871c0.04823,-1.55664 0.12073,-2.9792 0.09342,-3.26019c-0.0094,-0.09697 -0.55412,3.26913 -0.85437,3.05183c-0.04274,-0.03092 -0.79912,-0.28077 -0.79574,-0.47029c0.02966,-1.67191 0.25846,-3.23231 0.25749,-3.27658c-0.03272,-1.51172 1.58396,-3.03442 2.42032,-3.60435c0.70241,-0.47868 0.61998,-0.12993 1.41763,0.0347c1.55294,0.32053 2.40648,1.25854 2.4667,4.03991c0.01251,0.57812 -0.35624,2.61319 -0.81796,4.5488z" data-paper-data="{&quot;index&quot;:null}" fill="#464646" stroke="#000000" stroke-width="1" stroke-linecap="butt"/><path d="M228.06277,179.20018c0.64107,-1.63527 2.82968,-3.96535 2.49161,-4.93815c-0.27385,-0.78803 1.65909,-2.24425 1.35634,-3.70346c-0.05315,-0.25618 0.87728,-8.97749 0.87728,-8.97749c0,0 2.53456,-6.25642 2.85774,-6.20376c1.75649,0.28627 3.5527,1.49594 4.91784,1.45979c1.69349,-0.04483 1.80059,-1.1028 4.16097,-1.546c4.14438,-0.77819 3.67358,4.23795 3.67358,4.23795c0,0 1.62914,2.61973 1.97813,3.84005c0.3584,1.25323 -0.53098,4.10536 -0.53098,4.10536c0,0 3.83177,4.58122 1.61826,5.59813c-1.44577,0.66422 0.17653,5.14563 -1.0724,5.83483c-0.26441,0.14592 -0.51393,2.21145 -1.77553,3.00456c-0.97144,0.61072 -3.20846,-0.43114 -4.1256,-0.19069c-0.23391,0.06133 -0.53088,-1.50351 -0.82573,-2.09625c-0.50803,-1.02125 -0.5663,-1.89385 -0.93886,-3.55894c-0.39808,-1.77907 -1.09942,-3.51474 -2.00747,-3.51854c-1.1117,-0.00466 -2.18629,2.4285 -2.55021,4.78804c-0.35322,2.29013 -0.0213,3.69204 -0.79013,4.3588c-1.11524,0.9672 -4.45613,0.25306 -4.45613,0.25306c0,0 -2.37808,2.03212 -1.64033,-0.31261c0,0 -3.30416,-2.21581 -3.21837,-2.43466z" data-paper-data="{&quot;index&quot;:null}" fill="#171513" stroke="#000000" stroke-width="1.5" stroke-linecap="butt"/><path d="M240.03669,165.88767l2.18587,-6.9577l5.55596,-4.08876c0,0 1.15855,2.45029 2.1374,3.68663c0.68525,0.8655 1.22213,2.46505 1.36673,3.25698c0.26249,1.43765 -0.66864,5.246 -0.66864,5.246c0,0 -2.66552,1.95949 -4.87619,2.09179c-1.0273,0.0615 -2.2685,-1.5002 -2.85186,-1.55865c-2.01154,-0.20153 -2.8493,-1.67629 -2.8493,-1.67629z" fill="#171513" stroke="#000000" stroke-width="1.5" stroke-linecap="butt"/><path d="M231.09125,160.69453c0.90197,-1.69883 -3.05715,-2.04608 -3.32436,-3.15592c-0.22443,-0.93211 -0.47527,-3.58121 -1.02124,-5.38087c-1.03251,-3.40332 1.94399,-4.4397 1.94399,-4.4397c0,0 -7.488,3.25389 -7.17938,0.47454c0.07785,-0.70108 -0.48946,-1.32366 -0.66772,-2.1188c-0.26879,-1.1989 -0.1869,-2.7328 0.07871,-3.18709c0.89144,-1.52458 12.25956,-4.67711 13.92681,-4.2019c1.88082,0.53608 3.67795,1.95923 5.17532,2.12909c1.8575,0.21072 2.12022,-0.78274 4.76164,-0.8523c4.63781,-0.12216 3.43269,4.59372 3.43269,4.59372c0,0 1.42042,2.74359 1.63397,3.96025c0.2193,1.24946 0.26678,3.99806 0.26678,3.99806c0,0 -3.1255,4.16027 -5.68529,4.79926c-1.67195,0.41736 -0.27622,2.59373 -1.73643,3.06439c-1.28658,0.41467 -1.28703,3.19455 -1.40561,3.25331c-0.30194,0.14964 -1.7574,-1.31202 -2.95546,-1.14295c-1.51481,0.21377 -2.87013,2.06908 -3.75748,2.37485c-3.25644,1.1222 -3.07129,0.31489 -3.07129,0.31489c0,0 -1.5449,-2.35589 -0.41564,-4.48279z" fill="#171513" stroke="#000000" stroke-width="1.5" stroke-linecap="butt"/><path d="M210.20743,152.77132c-0.72492,0.29205 -0.91232,-3.95265 -0.66783,-5.14723c0.55786,-2.72548 1.56572,-3.49531 3.15096,-3.53225c0.81424,-0.01896 0.79563,-0.37684 1.40089,0.22001c0.72063,0.71065 2.03816,2.49851 1.73496,3.97985c-0.01696,0.08285 -0.78816,4.65499 -1.65955,4.59731c-0.70318,0.12998 0.19533,-4.27024 0.1649,-4.16319c-0.18096,0.63629 -1.02094,3.90991 -1.61817,4.03747c-0.50879,0.10868 0.22568,-4.2481 0.05494,-3.77639c-0.27793,0.76789 -0.69895,3.51933 -1.63984,3.49992c-0.4521,-0.01027 0.38712,-2.08202 -0.05337,-3.41268c-0.22654,-0.68434 -0.04187,3.36443 -0.86779,3.69715z" data-paper-data="{&quot;index&quot;:null}" fill="#464646" stroke="#000000" stroke-width="1" stroke-linecap="butt"/></g></g></svg>