<svg version="1.1" xmlns="http://www.w3.org/2000/svg" xmlns:xlink="http://www.w3.org/1999/xlink" width="558.08418" height="464.10462" viewBox="0,0,558.08418,464.10462"><defs><radialGradient cx="83.47059" cy="256.232" r="20.59931" gradientUnits="userSpaceOnUse" id="color-1"><stop offset="0" stop-color="#13570d"/><stop offset="1" stop-color="#13570d" stop-opacity="0"/></radialGradient><radialGradient cx="80.72191" cy="245.27441" r="20.58592" gradientUnits="userSpaceOnUse" id="color-2"><stop offset="0" stop-color="#13570d"/><stop offset="1" stop-color="#13570d" stop-opacity="0"/></radialGradient><radialGradient cx="91.11692" cy="246.96047" r="21.40901" gradientUnits="userSpaceOnUse" id="color-3"><stop offset="0" stop-color="#13570d"/><stop offset="1" stop-color="#13570d" stop-opacity="0"/></radialGradient><radialGradient cx="105.54573" cy="259.55942" r="21.40901" gradientUnits="userSpaceOnUse" id="color-4"><stop offset="0" stop-color="#13570d"/><stop offset="1" stop-color="#13570d" stop-opacity="0"/></radialGradient><radialGradient cx="106.80169" cy="242.47838" r="21.40901" gradientUnits="userSpaceOnUse" id="color-5"><stop offset="0" stop-color="#13570d"/><stop offset="1" stop-color="#13570d" stop-opacity="0"/></radialGradient><radialGradient cx="87.96231" cy="238.9617" r="21.40901" gradientUnits="userSpaceOnUse" id="color-6"><stop offset="0" stop-color="#13570d"/><stop offset="1" stop-color="#13570d" stop-opacity="0"/></radialGradient><radialGradient cx="97.91636" cy="239.11607" r="21.40901" gradientUnits="userSpaceOnUse" id="color-7"><stop offset="0" stop-color="#13570d"/><stop offset="1" stop-color="#13570d" stop-opacity="0"/></radialGradient><radialGradient cx="91.88776" cy="259.965" r="21.40901" gradientUnits="userSpaceOnUse" id="color-8"><stop offset="0" stop-color="#13570d"/><stop offset="1" stop-color="#13570d" stop-opacity="0"/></radialGradient><radialGradient cx="108.46642" cy="246.90302" r="21.40901" gradientUnits="userSpaceOnUse" id="color-9"><stop offset="0" stop-color="#13570d"/><stop offset="1" stop-color="#13570d" stop-opacity="0"/></radialGradient><linearGradient x1="170.58982" y1="239.22744" x2="170.58982" y2="297.24065" gradientUnits="userSpaceOnUse" id="color-10"><stop offset="0" stop-color="#353535"/><stop offset="1" stop-color="#2a2a2a"/></linearGradient><linearGradient x1="383.13268" y1="185.10855" x2="383.13268" y2="203.10855" gradientUnits="userSpaceOnUse" id="color-11"><stop offset="0" stop-color="#353535"/><stop offset="1" stop-color="#2a2a2a"/></linearGradient><linearGradient x1="202.88269" y1="185.60855" x2="202.88269" y2="202.85855" gradientUnits="userSpaceOnUse" id="color-12"><stop offset="0" stop-color="#353535"/><stop offset="1" stop-color="#2a2a2a"/></linearGradient><radialGradient cx="260.43418" cy="129.49379" r="25.91098" gradientUnits="userSpaceOnUse" id="color-13"><stop offset="0" stop-color="#13570d"/><stop offset="1" stop-color="#13570d" stop-opacity="0"/></radialGradient><radialGradient cx="256.97673" cy="115.71071" r="25.89414" gradientUnits="userSpaceOnUse" id="color-14"><stop offset="0" stop-color="#13570d"/><stop offset="1" stop-color="#13570d" stop-opacity="0"/></radialGradient><radialGradient cx="270.05215" cy="117.83154" r="26.92947" gradientUnits="userSpaceOnUse" id="color-15"><stop offset="0" stop-color="#13570d"/><stop offset="1" stop-color="#13570d" stop-opacity="0"/></radialGradient><radialGradient cx="288.20151" cy="133.67921" r="26.92947" gradientUnits="userSpaceOnUse" id="color-16"><stop offset="0" stop-color="#13570d"/><stop offset="1" stop-color="#13570d" stop-opacity="0"/></radialGradient><radialGradient cx="289.78135" cy="112.19371" r="26.92947" gradientUnits="userSpaceOnUse" id="color-17"><stop offset="0" stop-color="#13570d"/><stop offset="1" stop-color="#13570d" stop-opacity="0"/></radialGradient><radialGradient cx="266.08408" cy="107.77022" r="26.92947" gradientUnits="userSpaceOnUse" id="color-18"><stop offset="0" stop-color="#13570d"/><stop offset="1" stop-color="#13570d" stop-opacity="0"/></radialGradient><radialGradient cx="278.60488" cy="107.96441" r="26.92947" gradientUnits="userSpaceOnUse" id="color-19"><stop offset="0" stop-color="#13570d"/><stop offset="1" stop-color="#13570d" stop-opacity="0"/></radialGradient><radialGradient cx="271.02176" cy="134.18936" r="26.92947" gradientUnits="userSpaceOnUse" id="color-20"><stop offset="0" stop-color="#13570d"/><stop offset="1" stop-color="#13570d" stop-opacity="0"/></radialGradient><radialGradient cx="291.87532" cy="117.75927" r="26.92947" gradientUnits="userSpaceOnUse" id="color-21"><stop offset="0" stop-color="#13570d"/><stop offset="1" stop-color="#13570d" stop-opacity="0"/></radialGradient></defs><g transform="translate(3.7501,7.24992)"><g data-paper-data="{&quot;isPaintingLayer&quot;:true}" fill-rule="nonzero" stroke-linejoin="miter" stroke-miterlimit="10" stroke-dasharray="" stroke-dashoffset="0" style="mix-blend-mode: normal"><path d="M91.60928,335.28908v-94.8605c0,0 2.75236,2.51208 3.66998,1.42007c1.90926,-2.27211 6.74699,-1.42007 6.74699,-1.42007v94.8605z" fill="#30220a" stroke="none" stroke-width="0" stroke-linecap="butt"/><g stroke="none" stroke-width="0" stroke-linecap="butt"><path d="M74.45071,247.81934c7.03147,-8.94356 8.43079,-8.12484 17.37436,-1.09337c8.94356,7.03147 8.33882,8.15864 1.30735,17.1022c-7.03147,8.94356 -9.83103,8.78554 -18.7746,1.75407c-8.94356,-7.03147 -6.93858,-8.81933 0.09289,-17.7629z" fill="url(#color-1)"/><path d="M68.38858,245.40591c-1.08841,-10.49005 0.48913,-10.83638 11.81363,-11.84458c11.3245,-1.0082 11.66526,0.13387 12.75367,10.62391c1.08841,10.49005 -1.04588,12.17464 -12.37038,13.18285c-11.3245,1.0082 -11.10851,-1.47212 -12.19691,-11.96217z" fill="url(#color-2)"/><path d="M78.34346,245.88103c0,-11.82387 1.6692,-12.05381 13.49308,-12.05381c11.82387,0 12.05381,1.30939 12.05381,13.13326c0,11.82387 -2.38883,13.49308 -14.2127,13.49308c-11.82387,0 -11.33418,-2.74865 -11.33418,-14.57252z" fill="url(#color-3)"/><path d="M96.17129,250.81608c7.30786,-9.29511 8.76219,-8.44421 18.0573,-1.13635c9.29511,7.30786 8.6666,8.47933 1.35874,17.77444c-7.30786,9.29511 -10.21746,9.13088 -19.51257,1.82302c-9.29511,-7.30786 -7.21133,-9.166 0.09654,-18.46111z" fill="url(#color-4)"/><path d="M97.42726,233.73504c7.30786,-9.29511 8.76219,-8.44421 18.0573,-1.13635c9.29511,7.30786 8.6666,8.47932 1.35873,17.77444c-7.30786,9.29511 -10.21746,9.13088 -19.51257,1.82302c-9.29511,-7.30786 -7.21132,-9.166 0.09654,-18.46111z" fill="url(#color-5)"/><path d="M78.58786,230.21836c7.30786,-9.29511 8.76219,-8.44421 18.0573,-1.13635c9.29511,7.30786 8.6666,8.47933 1.35873,17.77444c-7.30786,9.29511 -10.21746,9.13088 -19.51257,1.82302c-9.29511,-7.30786 -7.21132,-9.166 0.09654,-18.46111z" fill="url(#color-6)"/><path d="M85.09824,239.26361c-1.13119,-11.76964 0.50836,-12.15821 12.27799,-13.2894c11.76964,-1.13119 12.12379,0.15019 13.25498,11.91983c1.13119,11.76964 -1.08699,13.65972 -12.85662,14.79091c-11.76964,1.13119 -11.54516,-1.6517 -12.67635,-13.42133z" fill="url(#color-7)"/><path d="M79.06964,260.11254c-1.13119,-11.76963 0.50835,-12.15822 12.27799,-13.28941c11.76963,-1.13119 12.12379,0.1502 13.25498,11.91983c1.13119,11.76963 -1.08699,13.65972 -12.85663,14.79091c-11.76963,1.13119 -11.54515,-1.6517 -12.67634,-13.42133z" fill="url(#color-8)"/><path d="M95.64829,247.05056c-1.13119,-11.76963 0.50836,-12.15822 12.278,-13.28941c11.76963,-1.13119 12.12379,0.1502 13.25498,11.91983c1.13119,11.76963 -1.08699,13.65972 -12.85663,14.79091c-11.76963,1.13119 -11.54515,-1.6517 -12.67634,-13.42133z" fill="url(#color-9)"/></g><path d="M271.60925,213.28908v-94.8605c0,0 2.75236,2.51208 3.66998,1.42007c1.90926,-2.27211 6.74699,-1.42007 6.74699,-1.42007v94.8605z" fill="#30220a" stroke="none" stroke-width="0" stroke-linecap="butt"/><path d="M403.99168,280.59459l77.7638,0.5l1.18824,169.04126l-77.13161,-0.58132z" data-paper-data="{&quot;index&quot;:null}" fill="#000000" stroke="none" stroke-width="0" stroke-linecap="butt"/><path d="M452.59349,-5.34377h27.00702l1.91823,242.58859l-27.1162,0.51853l-0.88551,-104.99809l-49.1557,-53.00036l48.873,0.0099z" fill="#000000" stroke="#000000" stroke-width="1" stroke-linecap="butt"/><path d="M361.61488,454.21103v-271.26576h43.54355v271.26577z" fill="#000000" stroke="#000000" stroke-width="1" stroke-linecap="butt"/><path d="M430.2163,219.88714l5,-5h19.625v5z" fill="#0a290a" stroke="#000000" stroke-width="1" stroke-linecap="butt"/><path d="M-3.25009,80.33716v-87.08708h457.95496v87.08709z" fill="#000000" stroke="#000000" stroke-width="1" stroke-linecap="butt"/><path d="M429.54127,228.76214v-8h28v8z" fill="#000000" stroke="#000000" stroke-width="1" stroke-linecap="butt"/><path d="M222.54124,215.76214v-12h141v12z" fill="#000000" stroke="#000000" stroke-width="1" stroke-linecap="butt"/><path d="M178.54124,456.3547v-273.59257h48v273.59257z" fill="#000000" stroke="#000000" stroke-width="1" stroke-linecap="butt"/><path d="M-1.79211,450.2692v-152.50707h184.33333v152.50707z" fill="#000000" stroke="#000000" stroke-width="1" stroke-linecap="butt"/><path d="M-2.45885,211.76214v-132h123.42094l1.57907,132z" fill="#000000" stroke="#000000" stroke-width="1" stroke-linecap="butt"/><path d="M159.93678,299.76214v-53h20v53z" fill="#000000" stroke="#000000" stroke-width="1" stroke-linecap="butt"/><path d="M-2.06318,241.76214v-29.5h54v29.5z" fill="#000000" stroke="#000000" stroke-width="1" stroke-linecap="butt"/><path d="M221.63472,450.14078v-236.20676h154v236.20676z" fill="#000000" stroke="#000000" stroke-width="1" stroke-linecap="butt"/><path d="M479.66787,235.54605v-15.1h72.41622v15.1z" fill="#0a290a" stroke="#000000" stroke-width="4.5" stroke-linecap="butt"/><path d="M403.26785,298.2889v-15.1h136.41622v15.1z" fill="#0a290a" stroke="#000000" stroke-width="4.5" stroke-linecap="butt"/><path d="M205.56786,220.5889v-15.1h173.01622v15.1z" fill="#0a290a" stroke="#000000" stroke-width="4.5" stroke-linecap="butt"/><path d="M389.03236,230.22217c-0.86272,-0.00778 0.44939,-4.98039 -2.51929,-8c-2.96868,-3.01961 -8,-1.93484 -8,-2.69973c0,-4.42728 0,-14.20027 0,-14.20027h24.9v24.9c0,0 -11.34245,0.0274 -14.38071,0z" data-paper-data="{&quot;index&quot;:null}" fill="#0a290a" stroke="#000000" stroke-width="4.5" stroke-linecap="butt"/><path d="M180.31308,230.62217v-24.9h24.9c0,0 0,9.77299 0,14.20027c0,0.76489 -5.03132,-0.31988 -8,2.69973c-2.96868,3.01961 -1.65657,7.99222 -2.51929,8c-3.03826,0.0274 -14.38071,0 -14.38071,0z" data-paper-data="{&quot;index&quot;:null}" fill="#0a290a" stroke="#000000" stroke-width="4.5" stroke-linecap="butt"/><path d="M470.26627,210.48859c0.86272,0.00778 -0.44939,4.98039 2.51929,8c2.96868,3.01961 8,1.93484 8,2.69973c0,4.42728 0,14.20027 0,14.20027h-24.9v-24.9c0,0 11.34245,-0.0274 14.38071,0z" data-paper-data="{&quot;index&quot;:null}" fill="#0a290a" stroke="#000000" stroke-width="4.5" stroke-linecap="butt"/><path d="M120.39893,185.0136v24.9h-24.9c0,0 0,-9.77299 0,-14.20027c0,-0.76489 5.03132,0.31988 8,-2.69973c2.96868,-3.01961 1.65657,-7.99222 2.51929,-8c3.03826,-0.0274 14.38071,0 14.38071,0z" data-paper-data="{&quot;index&quot;:null}" fill="#0a290a" stroke="#000000" stroke-width="4.5" stroke-linecap="butt"/><path d="M50.06559,210.0136v29.9h-29.275c0,0 0,-9.77299 0,-14.20027c0,-0.76489 9.40632,0.31988 12.375,-2.69973c2.96868,-3.01961 1.65657,-12.82555 2.51929,-12.83333c3.03826,-0.0274 14.38071,-0.16667 14.38071,-0.16667z" data-paper-data="{&quot;index&quot;:null}" fill="#0a290a" stroke="#000000" stroke-width="4.5" stroke-linecap="butt"/><path d="M50.02003,194.72875v15.5h-15.5c0,0 0.81603,-5.85854 5.41667,-10.33334c4.78327,-4.65244 10.08333,-5.16666 10.08333,-5.16666z" data-paper-data="{&quot;index&quot;:null}" fill="#0a290a" stroke="#000000" stroke-width="4.5" stroke-linecap="butt"/><path d="M49.95855,209.99911v-15.1h45.34114v15.1z" fill="#0a290a" stroke="#000000" stroke-width="4.5" stroke-linecap="butt"/><path d="M105.32912,78.52854h15.1v106.09114h-15.1z" fill="#0a290a" stroke="#000000" stroke-width="4.5" stroke-linecap="butt"/><path d="M120.4367,63.14542v15.5h-15.5c0,0 0.81603,-5.85854 5.41667,-10.33334c4.78327,-4.65244 10.08333,-5.16666 10.08333,-5.16666z" data-paper-data="{&quot;index&quot;:null}" fill="#0a290a" stroke="#000000" stroke-width="4.5" stroke-linecap="butt"/><path d="M407.68183,63.38125v15.1h-287.20543v-15.10001z" fill="#0a290a" stroke="#000000" stroke-width="4.5" stroke-linecap="butt"/><path d="M455.82598,130.66294h15.1v79.79122h-15.1z" fill="#0a290a" stroke="#000000" stroke-width="4.5" stroke-linecap="butt"/><path d="M408.90055,78.55501l-0.17857,-10l57.22281,59.70213l-10.30852,-0.03071z" fill="#0a290a" stroke="none" stroke-width="0" stroke-linecap="butt"/><path d="M387.80573,283.22875h15.5v15.5c0,0 -5.85854,-0.81603 -10.33334,-5.41667c-4.65244,-4.78327 -5.16666,-10.08333 -5.16666,-10.08333z" data-paper-data="{&quot;index&quot;:null}" fill="#0a290a" stroke="#000000" stroke-width="4.5" stroke-linecap="butt"/><path d="M388.28311,230.17365h15.1v52.98765h-15.1z" fill="#0a290a" stroke="#000000" stroke-width="4.5" stroke-linecap="butt"/><path d="M180.17596,231.03079h15.1v68.66622h-15.1z" fill="#0a290a" stroke="#000000" stroke-width="4.5" stroke-linecap="butt"/><path d="M190.26408,309.81208c-4.4748,4.60064 -10.33334,5.41667 -10.33334,5.41667v-15.5h15.5c0,0 -0.51422,5.30006 -5.16666,10.08333z" data-paper-data="{&quot;index&quot;:null}" fill="#0a290a" stroke="#000000" stroke-width="4.5" stroke-linecap="butt"/><path d="M162.46481,297.24065v-58.01321h16.25v58.01321z" fill="url(#color-10)" stroke="none" stroke-width="0" stroke-linecap="butt"/><path d="M166.10369,294.41185v-13.4" fill="none" stroke="#000000" stroke-width="3" stroke-linecap="round"/><path d="M174.45154,288.81185v-13.4" fill="none" stroke="#000000" stroke-width="3" stroke-linecap="round"/><path d="M164.25152,272.61185v-3.4" fill="none" stroke="#000000" stroke-width="3" stroke-linecap="round"/><path d="M175.45153,261.81185v-12.4" fill="none" stroke="#0b0602" stroke-width="3" stroke-linecap="round"/><path d="M165.6515,255.61185v-6" fill="none" stroke="#000000" stroke-width="3" stroke-linecap="round"/><path d="M169.65154,269.21185v-7.2" fill="none" stroke="#000000" stroke-width="3" stroke-linecap="round"/><path d="M150.85154,241.21185h10" fill="none" stroke="#000000" stroke-width="3" stroke-linecap="round"/><path d="M364.25768,203.10855v-18h37.75v18z" fill="url(#color-11)" stroke="none" stroke-width="0" stroke-linecap="butt"/><path d="M182.50769,202.85855v-17.25h40.75v17.25z" fill="url(#color-12)" stroke="none" stroke-width="0" stroke-linecap="butt"/><path d="M187.65987,189.13372h9.5" fill="none" stroke="#000000" stroke-width="3" stroke-linecap="round"/><path d="M197.65987,194.13372h15" fill="none" stroke="#000000" stroke-width="3" stroke-linecap="round"/><path d="M214.65987,190.63372h4" fill="none" stroke="#000000" stroke-width="3" stroke-linecap="round"/><path d="M185.65987,198.13372h10" fill="none" stroke="#000000" stroke-width="3" stroke-linecap="round"/><path d="M220.65987,200.13372h-12" fill="none" stroke="#000000" stroke-width="3" stroke-linecap="round"/><path d="M380.65987,197.63372h-11" fill="none" stroke="#000000" stroke-width="3" stroke-linecap="round"/><path d="M374.15987,192.63372h16" fill="none" stroke="#000000" stroke-width="3" stroke-linecap="round"/><path d="M386.65987,200.13372h10.5" fill="none" stroke="#000000" stroke-width="3" stroke-linecap="round"/><path d="M393.65987,187.63372h-4.5" fill="none" stroke="#000000" stroke-width="3" stroke-linecap="round"/><path d="M378.65987,188.13372h-8.5" fill="none" stroke="#000000" stroke-width="3" stroke-linecap="round"/><path d="M481.4313,208.09205l-11.5,11.5" fill="none" stroke="#0a290a" stroke-width="5" stroke-linecap="round"/><path d="M465.9313,108.09205l-10.5,10.5" fill="none" stroke="#0a290a" stroke-width="5" stroke-linecap="round"/><path d="M454.9313,94.59205l-11.5,11.5" fill="none" stroke="#0a290a" stroke-width="5" stroke-linecap="round"/><path d="M429.9313,92.09205l10.75,-10.75" fill="none" stroke="#0a290a" stroke-width="5" stroke-linecap="round"/><path d="M417.9313,78.59205l10.5,-10.5" fill="none" stroke="#0a290a" stroke-width="5" stroke-linecap="round"/><path d="M466.9313,142.09205h16" fill="none" stroke="#0a290a" stroke-width="5" stroke-linecap="round"/><path d="M482.9313,158.09205h-16" fill="none" stroke="#0a290a" stroke-width="5" stroke-linecap="round"/><path d="M466.4313,175.09205h16.5" fill="none" stroke="#0a290a" stroke-width="5" stroke-linecap="round"/><path d="M467.4313,192.09205h15" fill="none" stroke="#0a290a" stroke-width="5" stroke-linecap="round"/><path d="M498.4313,222.09205v-14.5" fill="none" stroke="#0a290a" stroke-width="5" stroke-linecap="round"/><path d="M516.43126,207.59205v15.5" fill="none" stroke="#0a290a" stroke-width="5" stroke-linecap="round"/><path d="M534.93126,207.09205v19" fill="none" stroke="#0a290a" stroke-width="5" stroke-linecap="round"/><path d="M528.43126,313.59205v-17" fill="none" stroke="#0a290a" stroke-width="5" stroke-linecap="round"/><path d="M511.93129,295.59205v18" fill="none" stroke="#0a290a" stroke-width="5" stroke-linecap="round"/><path d="M492.9313,292.59205v21.5" fill="none" stroke="#0a290a" stroke-width="5" stroke-linecap="round"/><path d="M475.9313,314.09205v-17" fill="none" stroke="#0a290a" stroke-width="5" stroke-linecap="round"/><path d="M459.4313,314.09205v-18" fill="none" stroke="#0a290a" stroke-width="5" stroke-linecap="round"/><path d="M440.4313,292.49205v21.5" fill="none" stroke="#0a290a" stroke-width="5" stroke-linecap="round"/><path d="M421.53126,292.39205v21.5" fill="none" stroke="#0a290a" stroke-width="5" stroke-linecap="round"/><path d="M382.18127,304.04205l13.1,-13.1" fill="none" stroke="#0a290a" stroke-width="5" stroke-linecap="round"/><path d="M389.28127,219.54205l-12.8,12.8" fill="none" stroke="#0a290a" stroke-width="5" stroke-linecap="round"/><path d="M390.28126,274.74205h-16" fill="none" stroke="#0a290a" stroke-width="5" stroke-linecap="round"/><path d="M374.88127,252.50569h15.2" fill="none" stroke="#0a290a" stroke-width="5" stroke-linecap="round"/><path d="M352.54413,216.73149v18" fill="none" stroke="#0a290a" stroke-width="5" stroke-linecap="round"/><path d="M330.54409,234.39816v-17" fill="none" stroke="#0a290a" stroke-width="5" stroke-linecap="round"/><path d="M310.54409,217.39816v17" fill="none" stroke="#0a290a" stroke-width="5" stroke-linecap="round"/><path d="M290.54409,234.06482v-17" fill="none" stroke="#0a290a" stroke-width="5" stroke-linecap="round"/><path d="M269.87744,233.73149v-17" fill="none" stroke="#0a290a" stroke-width="5" stroke-linecap="round"/><path d="M248.87747,233.39816v-17" fill="none" stroke="#0a290a" stroke-width="5" stroke-linecap="round"/><path d="M228.87747,217.06482v17" fill="none" stroke="#0a290a" stroke-width="5" stroke-linecap="round"/><path d="M208.21079,233.06483l-13.33333,-13.33334" fill="none" stroke="#0a290a" stroke-width="5" stroke-linecap="round"/><path d="M206.87747,251.73149h-15.66667" fill="none" stroke="#0a290a" stroke-width="5" stroke-linecap="round"/><path d="M206.87747,266.73149h-15" fill="none" stroke="#0a290a" stroke-width="5" stroke-linecap="round"/><path d="M206.87747,282.39815h-15.66667" fill="none" stroke="#0a290a" stroke-width="5" stroke-linecap="round"/><path d="M187.87747,307.39815l11.83333,11.83334" fill="none" stroke="#0a290a" stroke-width="5" stroke-linecap="round"/><path d="M398.04413,69.39816v-18" data-paper-data="{&quot;index&quot;:null}" fill="none" stroke="#0a290a" stroke-width="5" stroke-linecap="round"/><path d="M376.04413,51.73149v17" data-paper-data="{&quot;index&quot;:null}" fill="none" stroke="#0a290a" stroke-width="5" stroke-linecap="round"/><path d="M356.04413,51.73149v17" data-paper-data="{&quot;index&quot;:null}" fill="none" stroke="#0a290a" stroke-width="5" stroke-linecap="round"/><path d="M336.04413,52.06483v17" data-paper-data="{&quot;index&quot;:null}" fill="none" stroke="#0a290a" stroke-width="5" stroke-linecap="round"/><path d="M315.37744,52.39816v17" data-paper-data="{&quot;index&quot;:null}" fill="none" stroke="#0a290a" stroke-width="5" stroke-linecap="round"/><path d="M294.37744,52.73149v17" data-paper-data="{&quot;index&quot;:null}" fill="none" stroke="#0a290a" stroke-width="5" stroke-linecap="round"/><path d="M274.37744,69.06483v-17" data-paper-data="{&quot;index&quot;:null}" fill="none" stroke="#0a290a" stroke-width="5" stroke-linecap="round"/><path d="M132.37742,68.89816v-18" data-paper-data="{&quot;index&quot;:null}" fill="none" stroke="#0a290a" stroke-width="5" stroke-linecap="round"/><path d="M154.37742,68.23149v-17" data-paper-data="{&quot;index&quot;:null}" fill="none" stroke="#0a290a" stroke-width="5" stroke-linecap="round"/><path d="M174.37747,68.23149v-17" data-paper-data="{&quot;index&quot;:null}" fill="none" stroke="#0a290a" stroke-width="5" stroke-linecap="round"/><path d="M194.37747,51.56483v17" data-paper-data="{&quot;index&quot;:null}" fill="none" stroke="#0a290a" stroke-width="5" stroke-linecap="round"/><path d="M215.04413,68.89816v-17" data-paper-data="{&quot;index&quot;:null}" fill="none" stroke="#0a290a" stroke-width="5" stroke-linecap="round"/><path d="M236.04413,69.23149v-17" data-paper-data="{&quot;index&quot;:null}" fill="none" stroke="#0a290a" stroke-width="5" stroke-linecap="round"/><path d="M256.04409,51.56483v17" data-paper-data="{&quot;index&quot;:null}" fill="none" stroke="#0a290a" stroke-width="5" stroke-linecap="round"/><path d="M113.00342,70.71709l-11.75,-11.75" fill="none" stroke="#0a290a" stroke-width="5" stroke-linecap="round"/><path d="M110.35664,159.46066h-17" fill="none" stroke="#0a290a" stroke-width="5" stroke-linecap="round"/><path d="M111.00247,143.54399h-17" fill="none" stroke="#0a290a" stroke-width="5" stroke-linecap="round"/><path d="M91.86184,181.39493l12.8125,12.8125" fill="none" stroke="#0a290a" stroke-width="5" stroke-linecap="round"/><path d="M73.94574,182.01993v17.5" fill="none" stroke="#0a290a" stroke-width="5" stroke-linecap="round"/><path d="M41.75823,202.01993l-10.9375,-10.9375" fill="none" stroke="#0a290a" stroke-width="5" stroke-linecap="round"/><path d="M57.07073,181.70743v16.5625" fill="none" stroke="#0a290a" stroke-width="5" stroke-linecap="round"/><path d="M36.13323,224.83243l-13.125,-13.125" fill="none" stroke="#0a290a" stroke-width="5" stroke-linecap="round"/><path d="M136.54119,246.76214v-9.5h45.66667v9.5z" fill="#000000" stroke="#000000" stroke-width="1" stroke-linecap="butt"/><path d="M138.12803,245.11069v-5.875h40.125v5.875z" fill="#141414" stroke="none" stroke-width="0" stroke-linecap="butt"/><g stroke="none" stroke-width="0" stroke-linecap="butt"><path d="M249.08845,118.91187c8.84458,-11.24972 10.60473,-10.21989 21.85446,-1.3753c11.24972,8.84458 10.48904,10.26239 1.64445,21.51211c-8.84458,11.24972 -12.36602,11.05095 -23.61575,2.20637c-11.24972,-8.84458 -8.72774,-11.09346 0.11684,-22.34318z" fill="url(#color-13)"/><path d="M241.46317,115.87611c-1.36906,-13.19498 0.61526,-13.63061 14.85985,-14.89879c14.24459,-1.26818 14.67323,0.16839 16.04228,13.36335c1.36906,13.19498 -1.31557,15.31395 -15.56017,16.58213c-14.24459,1.26818 -13.97291,-1.85172 -15.34197,-15.04669z" fill="url(#color-14)"/><path d="M253.98499,116.47375c0,-14.87273 2.09962,-15.16197 16.97235,-15.16197c14.87273,0 15.16197,1.64703 15.16197,16.51975c0,14.87273 -3.00481,16.97235 -17.87754,16.97235c-14.87273,0 -14.25678,-3.45741 -14.25678,-18.33014z" fill="url(#color-15)"/><path d="M276.40981,122.68134c9.19224,-11.69191 11.02158,-10.62161 22.7135,-1.42936c11.69191,9.19224 10.90133,10.66579 1.70909,22.3577c-9.19224,11.69191 -12.8521,11.48534 -24.54402,2.2931c-11.69191,-9.19224 -9.07081,-11.52951 0.12143,-23.22143z" fill="url(#color-16)"/><path d="M277.98965,101.19584c9.19224,-11.69191 11.02157,-10.62161 22.7135,-1.42936c11.69191,9.19224 10.90133,10.66578 1.70909,22.3577c-9.19224,11.69191 -12.8521,11.48534 -24.54402,2.2931c-11.69191,-9.19224 -9.07081,-11.52951 0.12143,-23.22143z" fill="url(#color-17)"/><path d="M254.29241,96.77236c9.19224,-11.69191 11.02157,-10.62161 22.7135,-1.42936c11.69191,9.19224 10.90133,10.66578 1.70909,22.3577c-9.19224,11.69191 -12.8521,11.48534 -24.54402,2.2931c-11.69191,-9.19224 -9.07081,-11.52951 0.12143,-23.22143z" fill="url(#color-18)"/><path d="M262.4815,108.14999c-1.42288,-14.80452 0.63944,-15.29329 15.44395,-16.71617c14.80452,-1.42288 15.24999,0.18892 16.67286,14.99344c1.42288,14.80452 -1.36728,17.18196 -16.17179,18.60484c-14.80452,1.42288 -14.52215,-2.0776 -15.94503,-16.88211z" fill="url(#color-19)"/><path d="M254.89841,134.37494c-1.42288,-14.80451 0.63944,-15.29329 15.44396,-16.71617c14.80451,-1.42288 15.24999,0.18893 16.67287,14.99344c1.42288,14.80451 -1.36728,17.18196 -16.1718,18.60484c-14.80451,1.42288 -14.52215,-2.0776 -15.94502,-16.88211z" fill="url(#color-20)"/><path d="M275.75194,117.94485c-1.42288,-14.80451 0.63944,-15.29329 15.44396,-16.71617c14.80451,-1.42288 15.24999,0.18893 16.67287,14.99344c1.42288,14.80451 -1.36728,17.18196 -16.1718,18.60484c-14.80451,1.42288 -14.52215,-2.0776 -15.94502,-16.88211z" fill="url(#color-21)"/></g><path d="M48.58572,134.16287v-45.83333h74v45.83333z" fill="#141414" stroke="#000000" stroke-width="0" stroke-linecap="butt"/><path d="M120.14805,135.91287c0,0 -53.83663,0 -63.33334,0c-1.34815,0 -3.67841,-0.98042 -5.29625,-2.67276c-1.51894,-1.58889 -2.3704,-3.84483 -2.3704,-5.32723c0,-9.90484 0,-26.89531 0,-32.66667c0,-2.76188 4.07999,-7.32394 6.99999,-7.32394c9.94012,0 64.33334,0 64.33334,0" fill="none" stroke="#000000" stroke-width="5" stroke-linecap="round"/></g></g></svg>