<svg version="1.1" xmlns="http://www.w3.org/2000/svg" xmlns:xlink="http://www.w3.org/1999/xlink" width="608.44488" height="368.32328" viewBox="0,0,608.44488,368.32328"><g transform="translate(4.50091,4.72936)"><g data-paper-data="{&quot;isPaintingLayer&quot;:true}" fill-rule="nonzero" stroke-linejoin="miter" stroke-miterlimit="10" stroke-dasharray="" stroke-dashoffset="0" style="mix-blend-mode: normal"><path d="M25.54921,362.59392h-29.05012v-366.32328h29.05013z" data-paper-data="{&quot;index&quot;:null}" fill="#000000" stroke="#000000" stroke-width="2" stroke-linecap="butt"/><path d="M69.94361,22.42738v-25.46546h531.44041v25.46546z" fill="#000000" stroke="none" stroke-width="0" stroke-linecap="butt"/><path d="M21.51445,111.10333v-59.024h97.5976v59.02403z" fill="#000000" stroke="none" stroke-width="0" stroke-linecap="butt"/><path d="M99.10797,239.20465v-91h113.5v91z" fill="#000000" stroke="none" stroke-width="0" stroke-linecap="butt"/><path d="M212.10797,239.20465v-220h81v139.5z" fill="#000000" stroke="none" stroke-width="0" stroke-linecap="butt"/><path d="M20.10797,363.20466v-94h303v94z" fill="#000000" stroke="none" stroke-width="0" stroke-linecap="butt"/><path d="M26.10797,270.20466v-32h32v32z" fill="#000000" stroke="none" stroke-width="0" stroke-linecap="butt"/><path d="M321.10796,363.52793v-162h37v162z" fill="#000000" stroke="none" stroke-width="0" stroke-linecap="butt"/><path d="M288.10796,223.52794v-10h33v10z" fill="#000000" stroke="none" stroke-width="0" stroke-linecap="butt"/><path d="M117.10797,85.70466v-10h35.5v10z" fill="#000000" stroke="none" stroke-width="0" stroke-linecap="butt"/><path d="M184.10797,149.70465v-29.5h29.5v29.5z" fill="#000000" stroke="none" stroke-width="0" stroke-linecap="butt"/><path d="M293.00878,157.61756v-141.14114h306.77582v141.14114l-131.24171,36l-39.23971,-36z" fill="#000000" stroke="none" stroke-width="0" stroke-linecap="butt"/><path d="M465.94397,363.17166v-207.5h138v207.5z" fill="#000000" stroke="none" stroke-width="0" stroke-linecap="butt"/><path d="M395.44397,251.10569v-12h76.5v12z" fill="#000000" stroke="none" stroke-width="0" stroke-linecap="butt"/><path d="M440.27597,247.38868l30.75,30.75" fill="none" stroke="#000000" stroke-width="9" stroke-linecap="round"/><path d="M417.27597,245.88868l53.5,53.5" fill="none" stroke="#000000" stroke-width="9" stroke-linecap="round"/><path d="M357.60797,301.52793v-10h33v10z" fill="#000000" stroke="none" stroke-width="0" stroke-linecap="butt"/><path d="M73.10797,188.20465v-10h29v10z" fill="#000000" stroke="none" stroke-width="0" stroke-linecap="butt"/><path d="M25.8463,51.48765v-16.5h16.5v16.5z" fill="#000000" stroke="#000000" stroke-width="2" stroke-linecap="butt"/><path d="M356.84721,363.38874v-25.41667h71v25.41667z" fill="#000000" stroke="none" stroke-width="0" stroke-linecap="butt"/></g></g></svg>