<svg version="1.1" xmlns="http://www.w3.org/2000/svg" xmlns:xlink="http://www.w3.org/1999/xlink" width="269.05315" height="170.90789" viewBox="0,0,269.05315,170.90789"><defs><linearGradient x1="160.80623" y1="154.53346" x2="187.15064" y2="166.33166" gradientUnits="userSpaceOnUse" id="color-1"><stop offset="0" stop-color="#050000"/><stop offset="1" stop-color="#0f0707"/></linearGradient><radialGradient cx="311.47839" cy="157.08423" r="13.33459" gradientUnits="userSpaceOnUse" id="color-2"><stop offset="0" stop-color="#5100a4"/><stop offset="1" stop-color="#5100a4" stop-opacity="0"/></radialGradient><radialGradient cx="156.62249" cy="164.92262" r="11.52692" gradientUnits="userSpaceOnUse" id="color-3"><stop offset="0" stop-color="#5100a4"/><stop offset="1" stop-color="#5100a4" stop-opacity="0"/></radialGradient><radialGradient cx="156.42156" cy="164.82831" r="10.50984" gradientUnits="userSpaceOnUse" id="color-4"><stop offset="0" stop-color="#5100a4"/><stop offset="1" stop-color="#5100a4" stop-opacity="0"/></radialGradient></defs><g transform="translate(-145.09571,-94.64932)"><g data-paper-data="{&quot;isPaintingLayer&quot;:true}" fill-rule="nonzero" stroke-linejoin="miter" stroke-miterlimit="10" stroke-dasharray="" stroke-dashoffset="0" style="mix-blend-mode: normal"><g fill="none"><g stroke="#000000" stroke-linecap="round"><path d="M307.5057,95.05928" stroke-width="1.5"/><g><path d="" stroke-width="1.5"/><path d="" stroke-width="1.5"/><path d="" stroke-width="1.5"/><path d="" stroke-width="1.5"/><path d="" stroke-width="1.5"/><path d="M322.04542,123.84795" stroke-width="1.5"/><path d="M324.95338,126.75591" stroke-width="1.5"/><g><g><g stroke-width="1.5"><path d="M306.12752,94.64932"/><path d=""/><path d=""/><path d=""/><path d=""/><path d="M323.86599,124.89196"/><path d="M326.77394,127.79992"/><path d="M330.55427,128.0907"/><path d="M333.753,131.58025"/><path d="M337.82414,133.32501"/><path d="M340.44128,135.94217"/><path d="M344.80321,137.68694"/><path d="M348.29274,139.7225"/><path d="M350.90989,142.33965"/></g><g stroke-width="10"><path d="M257.39429,179.70244l5.532,-41.63753l12.55365,78.08846l1.24692,-7.24815" data-paper-data="{&quot;index&quot;:null}"/><g><path d="M185.7204,211.34193l-0.05034,7.00007l34.74295,-94.33074l2.20424,47.34851"/><path d="M226.8316,203.77884l-3.70909,5.53449l0.90064,7.32049l17.29388,-80.13678l3.96296,42.29943"/></g></g><path d="M328.73371,127.04669" stroke-width="1.5"/><path d="" stroke-width="1.5"/><path d="M336.00358,132.281" stroke-width="1.5"/><path d="M338.62072,134.89816" stroke-width="1.5"/><path d="M342.98265,136.64293" stroke-width="1.5"/><path d="M346.47218,138.67848" stroke-width="1.5"/><path d="M349.08933,141.29564" stroke-width="1.5"/><path d="M352.28808,143.62198" stroke-width="1.5"/></g></g></g></g><g><path d="M379.87905,194.24713c1.46393,4.22929 1.70416,3.02663 3.42478,7.99755c3.85551,11.13858 8.70664,23.72574 8.70664,23.72574l-14.13765,-16.10455l5.35257,-2.97434" data-paper-data="{&quot;index&quot;:null}" stroke="#5100a4" stroke-width="15" stroke-linecap="round"/><g><path d="M343.99167,121.91286l12.43782,-7.85114" stroke="#000000" stroke-width="1.5" stroke-linecap="round"/><path d="M358.4766,117.52853l-14.08322,10.19465" stroke="#000000" stroke-width="1.5" stroke-linecap="round"/><g><path d="M346.33394,133.08233l13.37207,-11.50265" stroke="#000000" stroke-width="1.5" stroke-linecap="round"/><path d="M348.46742,137.00629l14.00692,-11.82662" stroke="#000000" stroke-width="1.5" stroke-linecap="round"/><path d="M364.15578,129.16727l-14.91096,11.95381" stroke="#000000" stroke-width="1.5" stroke-linecap="round"/><path d="M364.55749,134.97759l-13.54483,10.58826" stroke="#000000" stroke-width="1.5" stroke-linecap="round"/><path d="M353.32898,149.22943l13.08271,-9.34989" stroke="#000000" stroke-width="1.5" stroke-linecap="round"/><path d="M368.09312,143.86711l-14.25598,9.28026" stroke="#000000" stroke-width="1.5" stroke-linecap="round"/><path d="M370.06392,145.70194l-15.36298,12.01738" stroke="#000000" stroke-width="1.5" stroke-linecap="round"/><g><g><g stroke="#000000" stroke-width="1.5" stroke-linecap="round"><path d="M345.02068,124.07983l12.43781,-7.85115"/><path d="M345.42237,129.89014l14.08322,-10.19465"/><path d="M360.73503,123.74664l-13.37207,11.50264"/><path d="M363.50333,127.34666l-14.00691,11.82662"/><path d="M365.1848,131.33423l-14.91096,11.95381"/><path d="M365.58649,137.14454l-13.54483,10.58827"/><path d="M367.44067,142.0465l-13.08272,9.34988"/><path d="M354.86614,155.31435l14.25599,-9.28026"/><path d="M371.09293,147.86892l-15.36299,12.01739"/><path d="M359.04673,162.70514l14.15954,-8.56268"/><path d="M375.50243,160.15561l-15.68836,7.83905"/><path d="M376.63542,164.92437l-14.14947,7.38789"/><path d="M377.67195,170.4107l-14.40861,6.01633"/><path d="M366.20443,180.94143l15.04344,-6.34029"/><path d="M382.56367,179.10949l-14.4086,6.01632"/><path d="M383.88954,182.44307l-14.95707,6.79747"/></g><g stroke="none" stroke-width="1" stroke-linecap="butt" font-family="sans-serif" font-weight="normal" font-size="12" text-anchor="start"><g/></g><path d="M358.01774,160.53815l14.15952,-8.56266" stroke="#000000" stroke-width="1.5" stroke-linecap="round"/><path d="M358.78506,165.8277l15.68836,-7.83905" stroke="#000000" stroke-width="1.5" stroke-linecap="round"/><path d="M375.60642,162.75741l-14.14947,7.3879" stroke="#000000" stroke-width="1.5" stroke-linecap="round"/><path d="M362.23433,174.26007l14.40861,-6.01633" stroke="#000000" stroke-width="1.5" stroke-linecap="round"/><path d="M365.17542,178.77447l15.04346,-6.34029" stroke="#000000" stroke-width="1.5" stroke-linecap="round"/><path d="M381.53468,176.94252l-14.40861,6.01632" stroke="#000000" stroke-width="1.5" stroke-linecap="round"/><path d="M382.86055,180.2761l-14.95708,6.79748" stroke="#000000" stroke-width="1.5" stroke-linecap="round"/><path d="M384.6284,184.72085l-15.22627,6.6007" stroke="#000000" stroke-width="1.5" stroke-linecap="round"/></g></g></g></g><path d="M274.3789,183.38306l74.47008,-72.19437l43.49957,114.49022l-12.8348,-14.80815l5.56848,-2.56438" data-paper-data="{&quot;index&quot;:null}" stroke="#000000" stroke-width="10" stroke-linecap="round"/></g></g><g stroke="#000000" stroke-linecap="butt"><path d="M221.64733,158.66099c1.64955,-0.50176 3.63833,1.36462 4.44204,4.16866c0.80372,2.80407 0.11803,5.48394 -1.53152,5.9857c-1.64955,0.50176 -3.63834,-1.36459 -4.44203,-4.16865c-0.80372,-2.80407 -0.11804,-5.48396 1.53152,-5.98571z" fill="#000000" stroke-width="1"/><path d="M202.16481,195.44271c-12.39413,1.31889 -23.74997,-9.79479 -25.36403,-24.82316c-1.61402,-15.02832 7.12504,-28.28033 19.51914,-29.59922c12.39413,-1.31889 23.74994,9.79484 25.36397,24.82318c1.61402,15.02832 -7.12494,28.28034 -19.51909,29.59921z" fill="#000000" stroke-width="0"/><path d="M212.96903,197.66507c-11.91128,1.26752 -22.82475,-9.41323 -24.37591,-23.85611c-1.55115,-14.44284 6.84746,-27.17862 18.75874,-28.44612c11.91128,-1.26752 22.82471,9.41327 24.37585,23.85611c1.55115,14.44284 -6.84739,27.17863 -18.7587,28.44611z" fill="#000000" stroke-width="0"/><path d="M210.61963,189.52878c-12.39413,1.31889 -23.74999,-9.79479 -25.36403,-24.82316c-1.61402,-15.02832 7.12503,-28.28032 19.51913,-29.59921c12.39413,-1.31889 23.74997,9.79483 25.36396,24.82315c1.61402,15.02832 -7.12495,28.28033 -19.5191,29.59922z" fill="#000000" stroke-width="0"/><path d="M210.31094,194.66318c-12.39413,1.31889 -23.74999,-9.79479 -25.36402,-24.82317c-1.61402,-15.02832 7.12498,-28.28031 19.51912,-29.5992c12.39413,-1.31889 23.74997,9.79483 25.36396,24.82315c1.61402,15.02832 -7.12496,28.28034 -19.51911,29.59923z" fill="#000000" stroke-width="0"/><path d="M210.19864,194.03895c-12.74304,2.39238 -25.22515,-6.94215 -27.8796,-20.84925c-2.04271,-10.70201 3.15859,-20.12089 10.93585,-26.19147c2.32916,-1.81805 3.8312,-5.72012 6.76799,-6.27148c4.30635,-0.80848 10.69874,-0.7625 14.66145,1.27752c6.4386,3.31457 9.78675,8.82108 11.63603,16.47254c0.38054,1.57439 0.39317,4.96894 0.69308,6.54017c0.59796,3.13285 1.52429,10.41997 1.20865,13.32804c-1.08557,10.00124 -8.15108,13.84047 -18.02348,15.69392z" fill="#0a0300" stroke-width="1"/><path d="M204.5296,144.10365c2.50205,-0.46973 5.27116,3.03091 5.81839,5.89784c0.54722,2.86694 -1.48333,3.23586 -3.98538,3.70562c-2.50205,0.46974 -4.52806,0.86238 -5.07528,-2.00456c-0.54722,-2.86694 0.74021,-7.12918 3.24226,-7.59891z" fill="#000000" stroke-width="1"/><path d="M185.22806,156.21819c1.83775,-0.86046 4.29113,0.59849 5.47973,3.25866c1.18861,2.66017 0.66242,5.51417 -1.17532,6.37466c-1.83775,0.86046 -4.29115,-0.59847 -5.47975,-3.25864c-1.18861,-2.66016 -0.6624,-5.51419 1.17534,-6.37468z" fill="#000000" stroke-width="1"/><path d="M214.74855,174.26814c2.05235,0.40666 3.27558,3.06599 2.73224,5.93984c-0.54339,2.87384 -2.64764,4.87392 -4.69996,4.46726c-2.05235,-0.40666 -3.27561,-3.06601 -2.73223,-5.93984c0.54339,-2.87384 2.64763,-4.87392 4.69995,-4.46725z" fill="#000000" stroke-width="1"/><path d="M202.27132,161.19654c2.06051,-0.38683 5.77247,1.31839 6.15553,3.32524c0.38304,2.00686 -2.51767,2.6235 -4.57816,3.01035c-2.06051,0.38683 -4.4673,1.66284 -4.85037,-0.34403c-0.38304,-2.00686 1.21253,-5.60472 3.27304,-5.99156z" fill="#000000" stroke-width="1"/><path d="M190.98019,180.44428c0.10258,-2.36673 1.52407,-4.1964 3.17494,-4.08668c1.65087,0.1097 2.90598,2.11729 2.80336,4.48402c-0.10258,2.36673 -1.52404,4.19639 -3.17494,4.08667c-1.65087,-0.1097 -2.90601,-2.11726 -2.80337,-4.48398z" data-paper-data="{&quot;index&quot;:null}" fill="#000000" stroke-width="1"/></g><path d="M333.3173,168.21274l4.27156,0.438l2.83662,-2.04527l-14.38407,2.78571l-7.67936,-6.48257" data-paper-data="{&quot;index&quot;:null}" fill="none" stroke="#000000" stroke-width="7.5" stroke-linecap="round"/><path d="M321.49021,157.85736l4.98781,-6.45944l12.20227,0.63875l-2.85627,-1.47577l-3.31604,0.89175" data-paper-data="{&quot;index&quot;:null}" fill="none" stroke="#000000" stroke-width="7.5" stroke-linecap="round"/><path d="M167.93579,157.99463c4.23343,-2.3887 17.01632,-2.85749 17.01632,-2.85749l1.04119,17.26536c0,0 -6.00938,-3.15616 -11.00532,-5.87935c-4.67321,-2.54725 -15.97498,-2.58287 -15.97498,-2.58287c0,0 5.50552,-4.01745 8.92279,-5.94564z" fill="url(#color-1)" stroke="#000000" stroke-width="4" stroke-linecap="butt"/><g stroke="#000000" stroke-width="0" stroke-linecap="butt"><path d="M327.72884,159.66261c0.17459,12.18463 -9.98714,22.29655 -22.69684,22.58553c-12.70968,0.28902 -23.15451,-9.35427 -23.3291,-21.53893c-0.17459,-12.18463 9.98714,-22.29655 22.69682,-22.58555c12.70968,-0.28902 23.15453,9.35428 23.32912,21.53894z" fill="#000000"/><g><path d="M318.84434,159.69655c0.18618,12.18463 -10.65013,22.29655 -24.20352,22.58553c-13.5534,0.28902 -24.6916,-9.35427 -24.87778,-21.53894c-0.18618,-12.18463 10.65012,-22.29655 24.20352,-22.58553c13.5534,-0.28902 24.69161,9.35428 24.87779,21.53894z" fill="#000000"/><path d="M322.842,163.32942c0.17459,12.18463 -9.98714,22.29655 -22.69684,22.58553c-12.70968,0.28902 -23.15451,-9.35428 -23.3291,-21.53894c-0.17459,-12.18463 9.98714,-22.29655 22.6968,-22.58554c12.70968,-0.28902 23.15454,9.35429 23.32914,21.53894z" fill="#000000"/><path d="M323.09767,157.11377c0.1678,11.70994 -9.59806,21.42795 -21.81263,21.70572c-12.21455,0.27776 -22.25247,-8.98991 -22.42026,-20.69988c-0.1678,-11.70994 9.59805,-21.42791 21.81262,-21.70568c12.21455,-0.27776 22.25248,8.98987 22.42027,20.69984z" fill="#000000"/><path d="M320.38383,160.94813c0.15479,10.8025 -11.19845,22.10345 -21.80807,22.34473c-3.1827,0.07237 -8.79682,0.71608 -11.46001,-0.61871c-6.2146,-3.11479 -7.92229,-10.9422 -8.03066,-18.50418c-0.15479,-10.8025 8.02475,-20.07471 18.63437,-20.31596c7.05925,-0.16053 13.37585,1.25897 17.6502,6.26408c2.14975,2.51719 4.96236,7.21514 5.01416,10.83008z" fill="#060200"/></g></g><g stroke="#000000" stroke-linecap="butt"><path d="M245.6488,141.63321c-0.30813,-2.36425 2.7764,-4.64023 6.88945,-5.08348c4.11308,-0.44327 7.69715,1.11397 8.00528,3.47823c0.30813,2.36425 -2.77636,4.64022 -6.88945,5.08348c-4.11308,0.44327 -7.69717,-1.11397 -8.0053,-3.47822z" fill="#000000" stroke-width="1"/><path d="M292.43782,176.72967c-1.11264,17.19435 -19.36387,30.08389 -40.76534,28.7896c-21.40138,-1.29432 -37.84861,-16.28239 -36.73596,-33.47669c1.11264,-17.19435 19.36392,-30.08382 40.76533,-28.7895c21.40138,1.29432 37.84865,16.28226 36.73597,33.47664z" fill="#000000" stroke-width="0"/><path d="M298.12334,162.52489c-1.06928,16.52451 -18.60952,28.9119 -39.17722,27.66804c-20.56761,-1.24386 -36.37416,-15.64807 -35.30485,-32.17256c1.06929,-16.52451 18.60958,-28.91185 39.17719,-27.66795c20.56762,1.24386 36.3742,15.64796 35.30485,32.17251z" fill="#000000" stroke-width="0"/><path d="M286.18469,163.8347c-1.11264,17.19435 -19.36385,30.08389 -40.76533,28.78961c-21.40138,-1.29432 -37.84862,-16.28238 -36.73597,-33.47669c1.11264,-17.19435 19.36393,-30.08385 40.76531,-28.7895c21.40138,1.29431 37.84864,16.28228 36.736,33.47665z" fill="#000000" stroke-width="0"/><path d="M293.29116,165.44887c-1.11264,17.19435 -19.36386,30.08389 -40.76533,28.78958c-21.40138,-1.29432 -37.84862,-16.28231 -36.73598,-33.47665c1.11264,-17.19435 19.36392,-30.08386 40.7653,-28.78951c21.40138,1.29432 37.84864,16.28228 36.736,33.47665z" fill="#000000" stroke-width="0"/><path d="M292.39144,165.45675c0.30534,17.9193 -15.72654,32.75701 -35.8082,33.14101c-15.45355,0.29549 -27.38442,-8.98112 -34.01827,-20.98928c-1.98675,-3.59624 -7.08524,-6.54994 -7.15559,-10.67968c-0.10318,-6.0556 1.48624,-14.75494 5.28454,-19.68014c6.17141,-8.00249 14.67078,-11.28447 25.81216,-12.02557c2.29248,-0.1525 7.04259,0.61936 9.31144,0.57596c4.52377,-0.0865 14.93545,0.34531 18.92691,1.45139c13.72721,3.80406 17.41046,14.32372 17.64702,28.20632z" fill="#0a0300" stroke-width="1"/><path d="M221.2071,161.57314c-0.05995,-3.51837 5.4962,-6.47773 9.63599,-6.5569c4.13983,-0.07917 4.1713,2.77335 4.23127,6.29174c0.05995,3.51837 0.12568,6.37022 -4.01415,6.44939c-4.13983,0.07917 -9.79317,-2.66585 -9.85312,-6.18422z" fill="#000000" stroke-width="1"/><path d="M233.5436,190.68884c-0.76485,-2.70407 1.86074,-5.7078 5.86443,-6.70896c4.00369,-1.00116 7.86935,0.37923 8.63422,3.08329c0.76485,2.70407 -1.86073,5.70783 -5.86442,6.70899c-4.00369,1.00116 -7.86936,-0.37927 -8.63423,-3.08333z" fill="#000000" stroke-width="1"/><path d="M265.82858,154.66126c1.05833,-2.70191 5.06914,-3.75047 8.95842,-2.34206c3.88926,1.40846 6.18421,4.74055 5.12588,7.44244c-1.05833,2.70191 -5.06918,3.75051 -8.95843,2.34205c-3.88926,-1.40846 -6.18421,-4.74056 -5.12587,-7.44243z" fill="#000000" stroke-width="1"/><path d="M244.57184,168.62363c-0.04936,-2.8975 3.22091,-7.55884 6.11878,-7.61428c2.89788,-0.0554 3.06814,4.04034 3.11753,6.93781c0.04936,2.8975 1.25958,6.4735 -1.63833,6.52893c-2.89788,0.0554 -7.54862,-2.95502 -7.59798,-5.85252z" fill="#000000" stroke-width="1"/><path d="M268.79483,188.48285c-3.28526,-0.68995 -5.50483,-3.05214 -4.95752,-5.27605c0.54728,-2.22391 3.65424,-3.46739 6.9395,-2.77738c3.28526,0.68995 5.50482,3.05211 4.95751,5.27605c-0.54728,2.22391 -3.6542,3.46742 -6.93946,2.77742z" data-paper-data="{&quot;index&quot;:null}" fill="#000000" stroke-width="1"/></g><g data-paper-data="{&quot;index&quot;:null}" fill="none" stroke="#000000" stroke-width="1.5" stroke-linecap="round"><path d="M240.67366,203.91698l-3.01334,2.38986"/><path d="M231.37397,202.74547l4.73636,-3.82554"/><path d="M244.09174,211.77841l1.40681,-8.30741"/><path d="M223.82461,194.55003l3.50935,-2.47338"/><path d="M260.58857,208.78272l0.49482,-4.40319"/><path d="M257.0047,215.05163l0.15533,-9.80423"/><path d="M280.97165,204.75641l-6.05908,-6.63674"/><path d="M281.15026,193.48161l8.0193,3.59752"/><path d="M287.17691,188.70177l6.77559,1.61047"/><path d="M291.92884,183.89582l3.3606,2.52096"/><path d="M301.41927,148.29389l-4.30366,3.34405"/><path d="M294.64365,146.68338l3.85544,-1.88216"/><path d="M278.04721,133.24785l2.61949,-4.35946"/><path d="M250.51243,123.94846l1.58325,7.38816"/><path d="M229.91677,127.2083l4.55774,7.44937"/><path d="M227.78322,138.78859l-1.5988,-6.40767"/><path d="M262.40851,202.83826l1.97606,9.42313"/><path d="M299.21709,179.06039l-3.2448,-1.78305"/><path d="M296.64878,172.14234l5.05663,0.10399"/><path d="M304.49118,165.43845l-4.79182,1.96101l-2.38503,0.29415"/><path d="M306.38464,158.61217l-7.19862,3.6278l-1.46551,-1.40322"/><path d="M303.51341,152.03114l-5.14363,5.38642"/><path d="M293.90415,138.78961l-4.24044,4.71844"/><path d="M290.98395,135.29687l-4.52699,4.02602"/><path d="M287.0514,128.3851l-6.57069,9.5416"/><path d="M267.52883,132.06841l1.60687,-7.5187"/><path d="M263.75981,125.81223l-0.08698,5.49041"/><path d="M257.19955,126.70702l3.69835,10.71718"/><g><path d="M242.1532,201.01578l-2.87166,2.39277"/><path d="M228.85661,202.02552l4.51374,-3.83015"/><path d="M247.78003,203.5834l-1.3461,8.30861"/><path d="M230.12894,193.41285l-3.86666,2.74886"/><path d="M249.73188,203.43044l-0.47458,4.40359"/><path d="M258.17776,211.64318l0.15533,-9.80422"/><path d="M281.01126,201.32466l-3.97699,-4.49516"/><path d="M281.18996,190.04976l7.63477,3.58962"/><path d="M286.93333,185.2642l6.45175,1.60382"/><path d="M291.46253,180.45362l3.19872,2.51767"/><path d="M300.52799,144.84299l-4.10125,3.34822"/><path d="M297.74944,141.35315l-3.67328,1.88597"/><path d="M275.46569,132.80471l3.85089,-9.2314"/><path d="M275.84916,124.0305l-2.81629,9.74302"/><path d="M255.33874,132.10228l-1.47619,-9.0309"/><path d="M239.84823,134.40623l-5.8849,-10.275"/><path d="M227.49491,129.00322l2.44656,8.17417"/><path d="M263.27252,203.27128l1.93027,5.92419"/><path d="M298.40752,175.61113l-3.08896,-1.77983"/><path d="M300.78251,168.79476l-4.81583,-0.09904"/><path d="M303.4407,161.98424l-4.56513,1.9657l-2.27171,0.29652"/><path d="M305.24915,155.15614l-6.85863,3.63479l-1.39467,-1.40169"/><path d="M297.61687,153.96946l4.90281,-5.39133"/><path d="M293.37782,135.34613l-4.04206,4.72249"/><path d="M289.38532,133.67757l-4.31451,4.03037"/><path d="M280.54203,134.83981l3.78055,-6.10092"/><path d="M270.38101,121.71235l-1.53604,7.52017"/><path d="M266.12784,129.25663l0.08699,-5.49037"/><path d="M259.03704,123.60329l3.51419,10.71336"/></g><path d="M271.96264,209.04994l-2.61181,-6.45201"/><path d="M272.40146,200.13422l4.06648,6.26233"/><path d="M267.77664,210.3369l-0.56228,-2.07116l-0.84889,-4.71714"/><path d="M248.31956,123.7783l0.21574,7.25102"/><path d="M244.59365,124.90845l1.08108,6.88746"/><path d="M238.82834,121.86683l2.89748,8.84163"/><path d="M228.97366,199.24095l3.04518,-4.39974"/><path d="M241.01152,209.44313l3.46195,-7.87611"/><path d="M234.83571,204.85366l3.04517,-4.39975"/><path d="M253.45553,212.78841l1.60687,-7.51869"/><path d="M292.69489,177.55318l6.74895,5.97423"/></g><g fill="none" stroke="#000000" stroke-width="1.5" stroke-linecap="round"><path d="M216.06927,197.16421l2.01105,1.82916"/><path d="M223.45081,197.58187l-3.16099,-2.92799"/><path d="M213.45233,202.8057l-0.93888,-6.35836"/><path d="M224.63621,187.72631l2.3421,1.89309"/><path d="M208.99498,198.45703l0.33022,3.37013"/><path d="M204.73072,197.80697l0.10367,7.50401"/><path d="M192.88294,192.35152l-4.04376,5.07966"/><path d="M188.71999,188.80163l-5.35196,2.75349"/><path d="M184.69788,185.14324l-4.52192,1.23262"/><path d="M181.52655,181.46482l-2.24283,1.92952"/><path d="M178.06496,156.7752l-2.8722,-2.55949"/><path d="M177.14161,151.54251l2.57307,1.44057"/><path d="M190.92879,143.3355l-1.74822,-3.33667"/><path d="M207.90805,140.30767l1.05665,-5.65479"/><path d="M222.91248,138.07714l-3.04176,5.70161"/><path d="M224.94951,141.78236l-1.06701,4.90432"/><path d="M199.90917,203.17536l1.31879,-7.2123"/><path d="M176.66241,177.76388l2.16554,-1.36472"/><path d="M175.00176,172.54853l3.37473,-0.07961"/><path d="M177.93232,169.06394l-1.59173,-0.22516l-3.198,-1.50093"/><path d="M177.66123,163.81581l-0.97806,1.074l-4.80426,-2.77665"/><path d="M177.22792,161.19877l-3.43278,-4.12266"/><path d="M183.03824,150.55268l-2.83,-3.61142"/><path d="M182.15712,144.26803l3.02125,3.08144"/><path d="M185.46251,139.16825l4.38518,7.30297"/><path d="M196.73834,136.04234l1.0724,5.75467"/><path d="M200.38417,141.21087l-0.05804,-4.20227"/><path d="M202.23609,145.89623l2.46824,-8.20274"/><g><path d="M216.66257,196.39956l-1.91651,-1.8314"/><path d="M221.77347,194.77771l-3.01241,-2.93152"/><path d="M211.88916,202.89263l-0.89835,-6.35927"/><path d="M225.35145,190.85296l-2.58055,-2.10394"/><path d="M208.32622,199.22346l-0.31673,-3.37043"/><path d="M204.05151,202.7022l-0.10367,-7.50399"/><path d="M189.00133,191.11749l-2.65418,3.44052"/><path d="M185.98136,187.42113l-5.09534,2.74743"/><path d="M184.86046,182.51216l-4.3058,1.22754"/><path d="M179.70293,180.7572l2.13478,-1.92697"/><path d="M178.52469,154.13712l-2.73711,-2.56268"/><path d="M180.95509,150.92133l-3.31318,-2.01795"/><path d="M192.5138,143.88363l-2.57003,-7.06555"/><path d="M192.25787,135.42236l1.87956,7.45716"/><path d="M206.95346,138.96198l0.98519,-6.91211"/><path d="M221.22469,135.48971l-3.92749,7.86432"/><path d="M221.53431,145.4535l1.6328,-6.25638"/><path d="M200.6513,196.29448l-1.28824,4.53428"/><path d="M179.26426,173.76161l-2.06153,1.36226"/><path d="M178.83173,169.83094l-3.21402,0.07581"/><path d="M178.40644,166.42555l-1.51611,-0.22696l-3.04672,-1.50449"/><path d="M178.14485,161.17715l-0.93079,1.07283l-4.57734,-2.78201"/><path d="M177.73042,158.5597l-3.27206,-4.12643"/><path d="M180.55946,144.3057l2.69762,3.61452"/><path d="M186.77257,145.21267l-2.87943,-3.08477"/><path d="M186.23006,138.9325l2.52307,4.66955"/><path d="M197.32049,139.18131l-1.02512,-5.7558"/><path d="M198.68767,135.44268l0.05804,4.20223"/><path d="M203.88315,135.0856l-2.34532,8.19983"/></g><path d="M196.59473,197.52355l-1.74308,3.19382"/><path d="M194.55878,193.89343l-2.71392,4.79309"/><path d="M198.58713,195.06116l-0.56654,5.05599l-0.37526,1.58523"/><path d="M211.13073,133.45189l-0.14398,5.54982"/><path d="M213.78883,134.06376l-0.7215,5.27155"/><path d="M216.96505,133.98889l-1.93373,6.76723"/><path d="M221.50959,189.84226l2.03231,3.36747"/><path d="M213.19756,194.99007l2.31045,6.02823"/><path d="M219.62967,197.50561l-2.03231,-3.3675"/><path d="M207.20306,203.57872l-1.0724,-5.75467"/><path d="M181.01526,176.61028l-4.50415,4.57259"/></g><g stroke-linecap="butt"><path d="M301.65693,155.84226c0,-4.4994 3.64749,-8.1469 8.14691,-8.1469c4.49941,0 8.14691,3.64748 8.14691,8.1469c0,4.4994 -3.64749,8.14691 -8.14691,8.14691c-4.49941,0 -8.14691,-3.64749 -8.14691,-8.14691z" fill="#5100a4" stroke="#000000" stroke-width="2.5"/><path d="M308.09936,156.98567c0,-1.96651 1.59418,-3.56069 3.5607,-3.56069c1.96651,0 3.56068,1.59418 3.56068,3.56069c0,1.96651 -1.59417,3.5607 -3.56068,3.5607c-1.96651,0 -3.5607,-1.59419 -3.5607,-3.5607z" fill="#000000" stroke="none" stroke-width="0.5"/><path d="M298.14592,157.34393c-0.12546,-7.501 5.74198,-13.69804 13.10529,-13.84148c7.3633,-0.14345 13.4341,5.82102 13.55957,13.32198c0.12546,7.501 -5.74195,13.69804 -13.10525,13.84148c-7.3633,0.14345 -13.43414,-5.82101 -13.5596,-13.32198z" fill="url(#color-2)" stroke="#000000" stroke-width="0"/></g><g fill="#000000" stroke="#000000" stroke-width="1.5" stroke-linecap="butt"><path d="M312.04159,137.99484l8.93941,-5.87525l-4.22616,9.65624z"/><g><path d="M300.35382,136.27301l1.985,-10.3299l4.07222,9.78635z"/><path d="M306.36915,136.13315l6.6503,-8.2548l-0.98765,10.47236z"/></g></g><g fill="none" stroke="#000000" stroke-width="1.5" stroke-linecap="round"><path d="M286.59274,139.91458l-2.0276,-0.95258"/><path d="M280.67816,141.37669l3.19984,1.53894"/><path d="M287.28494,134.83672l2.28218,4.77966"/><path d="M282.13597,149.42595l-2.30383,-0.92261"/><path d="M290.77264,134.60597l1.07778,2.57399"/><path d="M295.36642,136.65722l-1.90239,-5.88456"/><path d="M306.02065,138.07893l1.95211,-4.9816"/><path d="M310.16051,139.86452l3.54679,-3.46706"/><path d="M317.47789,139.70182l-3.26212,2.06792"/><path d="M317.60583,143.89717l1.29815,-2.06377"/><path d="M329.20554,163.82011l-2.883,-1.3188"/><path d="M328.31939,166.39825l-2.37593,-0.51019"/><path d="M319.45275,176.20687l2.18639,2.20358"/><path d="M306.81557,182.71119l0.5399,4.70976"/><path d="M295.54017,188.10843l1.01209,-5.22829"/><path d="M292.68721,181.56345l0.34965,4.12124"/><path d="M297.86101,131.25953l0.71137,5.99996"/><path d="M322.33453,145.63159l-1.37432,1.60021"/><path d="M324.90774,149.33595l-2.63842,0.88153"/><path d="M323.44527,152.79127l1.30818,-0.20889l2.88273,0.40609"/><path d="M324.93217,156.85861l0.50967,-1.08313l4.45726,1.02104"/><path d="M329.61221,161.2283l-3.70376,-2.41384"/><path d="M327.02072,170.76598l-3.105,-2.15748"/><path d="M323.0075,171.65045l3.12703,1.69369"/><path d="M324.76876,178.16242l-5.22547,-4.68738"/><path d="M316.64707,183.36013l-2.24085,-4.27183"/><path d="M312.52173,180.17431l1.06533,3.29537"/><path d="M309.92648,176.93376l0.04644,7.05887"/><g><path d="M286.31104,140.66073l1.95369,0.97729"/><path d="M282.67959,143.1781l3.08369,1.57777"/><path d="M288.49487,134.38897l2.25048,4.79021"/><path d="M280.81402,147.13715l2.54278,1.0308"/><path d="M293.25829,138.99158l-1.06723,-2.5775"/><path d="M296.61594,138.52179l-1.90239,-5.88454"/><path d="M307.3755,138.51302l1.25548,-3.35355"/><path d="M314.1649,138.52668l-3.34616,3.40003"/><path d="M317.81926,141.86979l-3.09314,2.01148"/><path d="M318.00003,146.04751l1.21367,-2.03554"/><path d="M329.37799,166.04455l-2.77738,-1.35409"/><path d="M325.46682,167.81274l3.09889,0.78532"/><path d="M321.80987,181.1006l-3.73836,-4.94082"/><path d="M317.03643,177.34451l3.28961,5.41676"/><path d="M308.7951,189.22197l-0.90125,-5.68261"/><path d="M297.49718,189.73662l1.18489,-7.14642"/><path d="M294.83571,181.96487l0.23213,5.32333"/><path d="M298.86047,132.97507l0.08564,3.8835"/><path d="M322.54949,147.84178l-1.293,1.57304"/><path d="M322.55092,152.40544l2.51278,-0.83954"/><path d="M323.71209,154.98415l1.24907,-0.18912l2.76446,0.4456"/><path d="M325.19158,159.05399l0.47273,-1.07074l4.27986,1.08032"/><path d="M329.73116,163.47058l-3.5781,-2.45581"/><path d="M327.38361,172.92681l-3.0015,-2.19204"/><path d="M326.5713,175.4802l-3.01614,-1.73073"/><path d="M321.1015,175.46906l3.12002,3.06527"/><path d="M315.42698,181.0293l2.20389,4.28419"/><path d="M315.25743,184.30537l-1.06532,-3.29534"/><path d="M311.10983,178.82041l0.14254,7.02676"/></g><path d="M301.84261,134.90633l0.59781,-2.9382"/><path d="M304.32679,137.27123l0.97434,-4.43325"/><path d="M300.87093,137.32902l-0.78059,-4.11926l-0.0891,-1.33948"/><path d="M305.84956,187.19594l-1.2332,-4.40564"/><path d="M302.98832,184.72879l0.71086,4.32662"/><path d="M301.21595,189.88505l-0.11909,-5.79866"/><path d="M284.08491,147.00094l-2.4176,-2.15891"/><path d="M286.09961,136.74315l3.28224,4.18687"/><path d="M286.12361,142.66852l-2.4176,-2.15893"/><path d="M292.01893,132.71164l2.24085,4.27183"/><path d="M321.62411,142.90229l-2.43772,4.69397"/></g><path d="M151.7577,164.89676c0,-2.56384 2.07841,-4.64226 4.64226,-4.64226c2.56384,0 4.64226,2.07841 4.64226,4.64226c0,2.56384 -2.07842,4.64226 -4.64226,4.64226c-2.56384,0 -4.64226,-2.07841 -4.64226,-4.64226z" fill="#5100a4" stroke="#000000" stroke-width="0" stroke-linecap="butt"/><path d="M145.09742,165.14712c-0.10845,-6.48415 4.96359,-11.8411 11.32871,-11.9651c6.36511,-0.12401 11.61294,5.03191 11.72141,11.51602c0.10845,6.48415 -4.96356,11.8411 -11.32868,11.96509c-6.36511,0.12401 -11.61298,-5.0319 -11.72143,-11.51601z" fill="url(#color-3)" stroke="#000000" stroke-width="0" stroke-linecap="butt"/><path d="M145.91341,165.033c-0.09888,-5.91201 4.52562,-10.7963 10.32912,-10.90936c5.80349,-0.11306 10.58828,4.58793 10.68717,10.49991c0.09888,5.91201 -4.5256,10.7963 -10.32909,10.90936c-5.80349,0.11306 -10.58831,-4.58792 -10.68719,-10.49991z" fill="url(#color-4)" stroke="#000000" stroke-width="0" stroke-linecap="butt"/><g fill="none"><g stroke="#000000" stroke-linecap="round"><path d="M286.83903,98.05929" stroke-width="1.5"/><g><path d="" stroke-width="1.5"/><path d="" stroke-width="1.5"/><path d="" stroke-width="1.5"/><path d="" stroke-width="1.5"/><path d="" stroke-width="1.5"/><path d="M301.37875,126.84796" stroke-width="1.5"/><path d="M304.28671,129.75592" stroke-width="1.5"/><g><g><g stroke-width="1.5"><path d="M285.46085,97.64933"/><path d=""/><path d=""/><path d=""/><path d=""/><path d="M303.19932,127.89197"/><path d="M306.10727,130.79993"/><path d="M309.8876,131.09071"/><path d="M313.08633,134.58026"/><path d="M317.15747,136.32502"/><path d="M319.77461,138.94218"/><path d="M324.13654,140.68695"/><path d="M327.62607,142.72251"/><path d="M330.24322,145.33966"/></g><g stroke-width="10"><path d="M236.72762,182.70245l5.532,-41.63753l12.55365,78.08846l1.24692,-7.24815" data-paper-data="{&quot;index&quot;:null}"/><g><path d="M165.05373,214.34194l-0.05034,7.00007l34.74295,-94.33074l2.20424,47.34851"/><path d="M206.16493,206.77885l-3.70909,5.53449l0.90064,7.32049l17.29388,-80.13678l3.96296,42.29943"/></g></g><path d="M308.06704,130.0467" stroke-width="1.5"/><path d="" stroke-width="1.5"/><path d="M315.33691,135.28101" stroke-width="1.5"/><path d="M317.95405,137.89817" stroke-width="1.5"/><path d="M322.31598,139.64294" stroke-width="1.5"/><path d="M325.80551,141.67849" stroke-width="1.5"/><path d="M328.42266,144.29565" stroke-width="1.5"/><path d="M331.62141,146.62199" stroke-width="1.5"/></g></g></g></g><g><path d="M359.21238,197.24714c1.46393,4.22929 1.70416,3.02663 3.42478,7.99755c3.85551,11.13858 8.70664,23.72574 8.70664,23.72574l-14.13765,-16.10455l5.35257,-2.97434" data-paper-data="{&quot;index&quot;:null}" stroke="#5100a4" stroke-width="15" stroke-linecap="round"/><g><path d="M335.76282,117.06173l-12.43782,7.85114" stroke="#000000" stroke-width="1.5" stroke-linecap="round"/><path d="M323.72671,130.72319l14.08322,-10.19465" stroke="#000000" stroke-width="1.5" stroke-linecap="round"/><g><path d="M339.03934,124.57969l-13.37207,11.50265" stroke="#000000" stroke-width="1.5" stroke-linecap="round"/><path d="M341.80767,128.17968l-14.00692,11.82662" stroke="#000000" stroke-width="1.5" stroke-linecap="round"/><path d="M343.48911,132.16728l-14.91096,11.95381" stroke="#000000" stroke-width="1.5" stroke-linecap="round"/><path d="M330.34599,148.56586l13.54483,-10.58826" stroke="#000000" stroke-width="1.5" stroke-linecap="round"/><path d="M332.66231,152.22944l13.08271,-9.34989" stroke="#000000" stroke-width="1.5" stroke-linecap="round"/><path d="M347.42645,146.86712l-14.25598,9.28026" stroke="#000000" stroke-width="1.5" stroke-linecap="round"/><path d="M349.39725,148.70195l-15.36298,12.01738" stroke="#000000" stroke-width="1.5" stroke-linecap="round"/><g><g><g stroke="#000000" stroke-width="1.5" stroke-linecap="round"><path d="M336.79182,119.22869l-12.43781,7.85115"/><path d="M338.83892,122.6955l-14.08322,10.19465"/><path d="M326.69629,138.24929l13.37207,-11.50264"/><path d="M328.82975,142.17329l14.00691,-11.82662"/><path d="M344.51813,134.33424l-14.91096,11.95381"/><path d="M331.37499,150.73282l13.54483,-10.58827"/><path d="M346.774,145.04651l-13.08272,9.34988"/><path d="M348.45546,149.0341l-14.25599,9.28026"/><path d="M335.06327,162.88632l15.36299,-12.01739"/><path d="M352.5396,157.14247l-14.15954,8.56268"/><path d="M339.1474,170.99467l15.68836,-7.83905"/><path d="M355.96875,167.92438l-14.14947,7.38789"/><path d="M357.00528,173.41071l-14.40861,6.01633"/><path d="M345.53776,183.94144l15.04344,-6.34029"/><path d="M361.897,182.1095l-14.4086,6.01632"/><path d="M363.22287,185.44308l-14.95707,6.79747"/></g><g stroke="none" stroke-width="1" stroke-linecap="butt" font-family="sans-serif" font-weight="normal" font-size="12" text-anchor="start"><g/></g><path d="M351.51059,154.9755l-14.15952,8.56266" stroke="#000000" stroke-width="1.5" stroke-linecap="round"/><path d="M353.80675,160.98866l-15.68836,7.83905" stroke="#000000" stroke-width="1.5" stroke-linecap="round"/><path d="M354.93975,165.75742l-14.14947,7.3879" stroke="#000000" stroke-width="1.5" stroke-linecap="round"/><path d="M341.56766,177.26008l14.40861,-6.01633" stroke="#000000" stroke-width="1.5" stroke-linecap="round"/><path d="M359.55221,175.43419l-15.04346,6.34029" stroke="#000000" stroke-width="1.5" stroke-linecap="round"/><path d="M346.4594,185.95885l14.40861,-6.01632" stroke="#000000" stroke-width="1.5" stroke-linecap="round"/><path d="M347.2368,190.07359l14.95708,-6.79748" stroke="#000000" stroke-width="1.5" stroke-linecap="round"/><path d="M363.96173,187.72086l-15.22627,6.6007" stroke="#000000" stroke-width="1.5" stroke-linecap="round"/></g></g></g></g><path d="M253.71223,186.38307l74.47008,-72.19437l43.49957,114.49022l-12.8348,-14.80815l5.56848,-2.56438" data-paper-data="{&quot;index&quot;:null}" stroke="#000000" stroke-width="10" stroke-linecap="round"/></g></g></g></g></svg>