<svg version="1.1" xmlns="http://www.w3.org/2000/svg" xmlns:xlink="http://www.w3.org/1999/xlink" width="218.07648" height="207.33601" viewBox="0,0,218.07648,207.33601"><defs><linearGradient x1="291.32416" y1="127.70558" x2="284.45963" y2="150.84062" gradientUnits="userSpaceOnUse" id="color-1"><stop offset="0" stop-color="#0d0d0d"/><stop offset="1" stop-color="#181818"/></linearGradient><linearGradient x1="252.35638" y1="229.14784" x2="273.26072" y2="229.14784" gradientUnits="userSpaceOnUse" id="color-2"><stop offset="0" stop-color="#0d0d0d"/><stop offset="1" stop-color="#181818"/></linearGradient><linearGradient x1="218.6626" y1="229.90911" x2="244.67058" y2="229.90911" gradientUnits="userSpaceOnUse" id="color-3"><stop offset="0" stop-color="#0d0d0d"/><stop offset="1" stop-color="#181818"/></linearGradient><linearGradient x1="244.07557" y1="191.63045" x2="271.1092" y2="191.63045" gradientUnits="userSpaceOnUse" id="color-4"><stop offset="0" stop-color="#0d0d0d"/><stop offset="1" stop-color="#181818"/></linearGradient><linearGradient x1="226.74391" y1="192.07023" x2="255.01254" y2="192.07023" gradientUnits="userSpaceOnUse" id="color-5"><stop offset="0" stop-color="#0d0d0d"/><stop offset="1" stop-color="#181818"/></linearGradient><linearGradient x1="223.14739" y1="174.99698" x2="273.22105" y2="174.99698" gradientUnits="userSpaceOnUse" id="color-6"><stop offset="0" stop-color="#050505"/><stop offset="1" stop-color="#0b0b0b"/></linearGradient><linearGradient x1="218.80204" y1="158.54862" x2="269.99523" y2="158.54862" gradientUnits="userSpaceOnUse" id="color-7"><stop offset="0" stop-color="#050505"/><stop offset="1" stop-color="#0b0b0b"/></linearGradient><linearGradient x1="217.48478" y1="146.59214" x2="271.93111" y2="146.59214" gradientUnits="userSpaceOnUse" id="color-8"><stop offset="0" stop-color="#050505"/><stop offset="1" stop-color="#0b0b0b"/></linearGradient><linearGradient x1="228.61784" y1="136.01035" x2="267.52853" y2="136.01035" gradientUnits="userSpaceOnUse" id="color-9"><stop offset="0" stop-color="#050505"/><stop offset="1" stop-color="#0b0b0b"/></linearGradient><linearGradient x1="225.88046" y1="115.90298" x2="258.60303" y2="115.90298" gradientUnits="userSpaceOnUse" id="color-10"><stop offset="0" stop-color="#050505"/><stop offset="1" stop-color="#0b0b0b"/></linearGradient><linearGradient x1="239.43643" y1="102.93552" x2="261.37793" y2="102.93552" gradientUnits="userSpaceOnUse" id="color-11"><stop offset="0" stop-color="#050505"/><stop offset="1" stop-color="#0b0b0b"/></linearGradient><linearGradient x1="251.12912" y1="211.02731" x2="276.22186" y2="211.02731" gradientUnits="userSpaceOnUse" id="color-12"><stop offset="0" stop-color="#050505"/><stop offset="1" stop-color="#0b0b0b"/></linearGradient><linearGradient x1="225.0189" y1="212.44261" x2="248.13727" y2="212.44261" gradientUnits="userSpaceOnUse" id="color-13"><stop offset="0" stop-color="#050505"/><stop offset="1" stop-color="#0b0b0b"/></linearGradient><linearGradient x1="224.76818" y1="172.03318" x2="269.71452" y2="172.03318" gradientUnits="userSpaceOnUse" id="color-14"><stop offset="0" stop-color="#0d0d0d"/><stop offset="1" stop-color="#181818"/></linearGradient><linearGradient x1="217.32136" y1="244.63275" x2="242.50009" y2="244.63275" gradientUnits="userSpaceOnUse" id="color-15"><stop offset="0" stop-color="#050505"/><stop offset="1" stop-color="#0b0b0b"/></linearGradient><linearGradient x1="219.2577" y1="229.98458" x2="243.45675" y2="229.98458" gradientUnits="userSpaceOnUse" id="color-16"><stop offset="0" stop-color="#050505"/><stop offset="1" stop-color="#0b0b0b"/></linearGradient><linearGradient x1="249.09742" y1="195.22342" x2="273.19831" y2="195.22342" gradientUnits="userSpaceOnUse" id="color-17"><stop offset="0" stop-color="#050505"/><stop offset="1" stop-color="#0b0b0b"/></linearGradient><linearGradient x1="224.46757" y1="195.86572" x2="251.19099" y2="195.86572" gradientUnits="userSpaceOnUse" id="color-18"><stop offset="0" stop-color="#050505"/><stop offset="1" stop-color="#0b0b0b"/></linearGradient><linearGradient x1="254.00958" y1="115.86847" x2="251.06178" y2="123.51951" gradientUnits="userSpaceOnUse" id="color-19"><stop offset="0" stop-color="#ff0000"/><stop offset="1" stop-color="#b50a0a"/></linearGradient><linearGradient x1="249.77767" y1="244.92474" x2="274.95628" y2="244.92474" gradientUnits="userSpaceOnUse" id="color-20"><stop offset="0" stop-color="#050505"/><stop offset="1" stop-color="#0b0b0b"/></linearGradient><linearGradient x1="251.08194" y1="230.36348" x2="272.55933" y2="230.36348" gradientUnits="userSpaceOnUse" id="color-21"><stop offset="0" stop-color="#050505"/><stop offset="1" stop-color="#0b0b0b"/></linearGradient><linearGradient x1="217.31868" y1="239.96971" x2="236.40885" y2="239.96971" gradientUnits="userSpaceOnUse" id="color-22"><stop offset="0" stop-color="#0d0d0d"/><stop offset="1" stop-color="#181818"/></linearGradient><linearGradient x1="249.27194" y1="240.68654" x2="268.50534" y2="240.68654" gradientUnits="userSpaceOnUse" id="color-23"><stop offset="0" stop-color="#0d0d0d"/><stop offset="1" stop-color="#181818"/></linearGradient><linearGradient x1="187.9001" y1="164.41375" x2="205.21191" y2="179.28219" gradientUnits="userSpaceOnUse" id="color-24"><stop offset="0" stop-color="#0d0d0d"/><stop offset="1" stop-color="#181818"/></linearGradient><linearGradient x1="194.41287" y1="147.6541" x2="215.42986" y2="154.08966" gradientUnits="userSpaceOnUse" id="color-25"><stop offset="0" stop-color="#0d0d0d"/><stop offset="1" stop-color="#181818"/></linearGradient><linearGradient x1="189.867" y1="157.4634" x2="213.35977" y2="163.58879" gradientUnits="userSpaceOnUse" id="color-26"><stop offset="0" stop-color="#050505"/><stop offset="1" stop-color="#0b0b0b"/></linearGradient><linearGradient x1="197.37435" y1="130.92564" x2="234.15455" y2="138.58856" gradientUnits="userSpaceOnUse" id="color-27"><stop offset="0" stop-color="#050505"/><stop offset="1" stop-color="#0b0b0b"/></linearGradient><radialGradient cx="306.03147" cy="183.17325" r="12.91056" gradientUnits="userSpaceOnUse" id="color-28"><stop offset="0" stop-color="#b50a0a"/><stop offset="1" stop-color="#b50a0a" stop-opacity="0"/></radialGradient><radialGradient cx="302.18514" cy="183.47863" r="12.91057" gradientUnits="userSpaceOnUse" id="color-29"><stop offset="0" stop-color="#b50a0a"/><stop offset="1" stop-color="#b50a0a" stop-opacity="0"/></radialGradient><radialGradient cx="298.06359" cy="183.58636" r="12.91057" gradientUnits="userSpaceOnUse" id="color-30"><stop offset="0" stop-color="#b50a0a"/><stop offset="1" stop-color="#b50a0a" stop-opacity="0"/></radialGradient><radialGradient cx="294.21723" cy="183.89176" r="12.91057" gradientUnits="userSpaceOnUse" id="color-31"><stop offset="0" stop-color="#b50a0a"/><stop offset="1" stop-color="#b50a0a" stop-opacity="0"/></radialGradient><radialGradient cx="291.65299" cy="184.09535" r="12.91057" gradientUnits="userSpaceOnUse" id="color-32"><stop offset="0" stop-color="#b50a0a"/><stop offset="1" stop-color="#b50a0a" stop-opacity="0"/></radialGradient><radialGradient cx="287.80665" cy="184.40075" r="12.91057" gradientUnits="userSpaceOnUse" id="color-33"><stop offset="0" stop-color="#b50a0a"/><stop offset="1" stop-color="#b50a0a" stop-opacity="0"/></radialGradient><radialGradient cx="283.6851" cy="184.50849" r="12.91057" gradientUnits="userSpaceOnUse" id="color-34"><stop offset="0" stop-color="#b50a0a"/><stop offset="1" stop-color="#b50a0a" stop-opacity="0"/></radialGradient><radialGradient cx="279.83875" cy="184.81388" r="12.91057" gradientUnits="userSpaceOnUse" id="color-35"><stop offset="0" stop-color="#b50a0a"/><stop offset="1" stop-color="#b50a0a" stop-opacity="0"/></radialGradient><radialGradient cx="335.2339" cy="179.68856" r="12.91057" gradientUnits="userSpaceOnUse" id="color-36"><stop offset="0" stop-color="#b50a0a"/><stop offset="1" stop-color="#b50a0a" stop-opacity="0"/></radialGradient><radialGradient cx="331.445" cy="181.20579" r="12.91057" gradientUnits="userSpaceOnUse" id="color-37"><stop offset="0" stop-color="#b50a0a"/><stop offset="1" stop-color="#b50a0a" stop-opacity="0"/></radialGradient><radialGradient cx="327.28513" cy="180.50562" r="12.91057" gradientUnits="userSpaceOnUse" id="color-38"><stop offset="0" stop-color="#b50a0a"/><stop offset="1" stop-color="#b50a0a" stop-opacity="0"/></radialGradient><radialGradient cx="323.50581" cy="182.22483" r="12.91056" gradientUnits="userSpaceOnUse" id="color-39"><stop offset="0" stop-color="#b50a0a"/><stop offset="1" stop-color="#b50a0a" stop-opacity="0"/></radialGradient><radialGradient cx="323.05111" cy="181.31625" r="12.91057" gradientUnits="userSpaceOnUse" id="color-40"><stop offset="0" stop-color="#b50a0a"/><stop offset="1" stop-color="#b50a0a" stop-opacity="0"/></radialGradient><radialGradient cx="317.311" cy="182.72361" r="12.91057" gradientUnits="userSpaceOnUse" id="color-41"><stop offset="0" stop-color="#b50a0a"/><stop offset="1" stop-color="#b50a0a" stop-opacity="0"/></radialGradient><radialGradient cx="315.51469" cy="181.70893" r="12.91057" gradientUnits="userSpaceOnUse" id="color-42"><stop offset="0" stop-color="#b50a0a"/><stop offset="1" stop-color="#b50a0a" stop-opacity="0"/></radialGradient><radialGradient cx="309.12735" cy="183.14694" r="12.91057" gradientUnits="userSpaceOnUse" id="color-43"><stop offset="0" stop-color="#b50a0a"/><stop offset="1" stop-color="#b50a0a" stop-opacity="0"/></radialGradient><radialGradient cx="246.46617" cy="187.02458" r="12.91057" gradientUnits="userSpaceOnUse" id="color-44"><stop offset="0" stop-color="#b50a0a"/><stop offset="1" stop-color="#b50a0a" stop-opacity="0"/></radialGradient><radialGradient cx="242.61984" cy="187.32999" r="12.91057" gradientUnits="userSpaceOnUse" id="color-45"><stop offset="0" stop-color="#b50a0a"/><stop offset="1" stop-color="#b50a0a" stop-opacity="0"/></radialGradient><radialGradient cx="238.49829" cy="187.43771" r="12.91057" gradientUnits="userSpaceOnUse" id="color-46"><stop offset="0" stop-color="#b50a0a"/><stop offset="1" stop-color="#b50a0a" stop-opacity="0"/></radialGradient><radialGradient cx="234.65195" cy="187.74311" r="12.91058" gradientUnits="userSpaceOnUse" id="color-47"><stop offset="0" stop-color="#b50a0a"/><stop offset="1" stop-color="#b50a0a" stop-opacity="0"/></radialGradient><radialGradient cx="232.0877" cy="187.94671" r="12.91057" gradientUnits="userSpaceOnUse" id="color-48"><stop offset="0" stop-color="#b50a0a"/><stop offset="1" stop-color="#b50a0a" stop-opacity="0"/></radialGradient><radialGradient cx="228.24136" cy="188.25211" r="12.91057" gradientUnits="userSpaceOnUse" id="color-49"><stop offset="0" stop-color="#b50a0a"/><stop offset="1" stop-color="#b50a0a" stop-opacity="0"/></radialGradient><radialGradient cx="224.11981" cy="188.35982" r="12.91057" gradientUnits="userSpaceOnUse" id="color-50"><stop offset="0" stop-color="#b50a0a"/><stop offset="1" stop-color="#b50a0a" stop-opacity="0"/></radialGradient><radialGradient cx="220.27345" cy="188.66522" r="12.91057" gradientUnits="userSpaceOnUse" id="color-51"><stop offset="0" stop-color="#b50a0a"/><stop offset="1" stop-color="#b50a0a" stop-opacity="0"/></radialGradient><radialGradient cx="275.75476" cy="185.35767" r="12.91058" gradientUnits="userSpaceOnUse" id="color-52"><stop offset="0" stop-color="#b50a0a"/><stop offset="1" stop-color="#b50a0a" stop-opacity="0"/></radialGradient><radialGradient cx="271.90844" cy="185.66307" r="12.91057" gradientUnits="userSpaceOnUse" id="color-53"><stop offset="0" stop-color="#b50a0a"/><stop offset="1" stop-color="#b50a0a" stop-opacity="0"/></radialGradient><radialGradient cx="267.78686" cy="185.77079" r="12.91057" gradientUnits="userSpaceOnUse" id="color-54"><stop offset="0" stop-color="#b50a0a"/><stop offset="1" stop-color="#b50a0a" stop-opacity="0"/></radialGradient><radialGradient cx="263.94052" cy="186.07619" r="12.91057" gradientUnits="userSpaceOnUse" id="color-55"><stop offset="0" stop-color="#b50a0a"/><stop offset="1" stop-color="#b50a0a" stop-opacity="0"/></radialGradient><radialGradient cx="261.3763" cy="186.27977" r="12.91058" gradientUnits="userSpaceOnUse" id="color-56"><stop offset="0" stop-color="#b50a0a"/><stop offset="1" stop-color="#b50a0a" stop-opacity="0"/></radialGradient><radialGradient cx="257.52995" cy="186.5852" r="12.91057" gradientUnits="userSpaceOnUse" id="color-57"><stop offset="0" stop-color="#b50a0a"/><stop offset="1" stop-color="#b50a0a" stop-opacity="0"/></radialGradient><radialGradient cx="253.4084" cy="186.69291" r="12.91057" gradientUnits="userSpaceOnUse" id="color-58"><stop offset="0" stop-color="#b50a0a"/><stop offset="1" stop-color="#b50a0a" stop-opacity="0"/></radialGradient><radialGradient cx="249.56206" cy="186.9983" r="12.91057" gradientUnits="userSpaceOnUse" id="color-59"><stop offset="0" stop-color="#b50a0a"/><stop offset="1" stop-color="#b50a0a" stop-opacity="0"/></radialGradient><linearGradient x1="279.52481" y1="179.64726" x2="279.91533" y2="187.88251" gradientUnits="userSpaceOnUse" id="color-60"><stop offset="0" stop-color="#400000"/><stop offset="1" stop-color="#ff0000"/></linearGradient><linearGradient x1="220.55273" y1="186.61116" x2="216.10308" y2="186.82214" gradientUnits="userSpaceOnUse" id="color-61"><stop offset="0" stop-color="#0d0d0d"/><stop offset="1" stop-color="#181818"/></linearGradient><linearGradient x1="318.37784" y1="131.4873" x2="326.21825" y2="154.35275" gradientUnits="userSpaceOnUse" id="color-62"><stop offset="0" stop-color="#0d0d0d"/><stop offset="1" stop-color="#181818"/></linearGradient><linearGradient x1="308.46853" y1="130.56278" x2="304.97938" y2="151.66277" gradientUnits="userSpaceOnUse" id="color-63"><stop offset="0" stop-color="#050505"/><stop offset="1" stop-color="#0b0b0b"/></linearGradient><linearGradient x1="294.55694" y1="131.37992" x2="260.81527" y2="134.10689" gradientUnits="userSpaceOnUse" id="color-64"><stop offset="0" stop-color="#050505"/><stop offset="1" stop-color="#0b0b0b"/></linearGradient><linearGradient x1="185.99662" y1="181.4595" x2="206.61569" y2="187.05044" gradientUnits="userSpaceOnUse" id="color-65"><stop offset="0" stop-color="#050505"/><stop offset="1" stop-color="#0b0b0b"/></linearGradient><linearGradient x1="407.09898" y1="66.1917" x2="321.98124" y2="154.67635" gradientUnits="userSpaceOnUse" id="color-66"><stop offset="0" stop-color="#0d0d0d"/><stop offset="1" stop-color="#181818"/></linearGradient><linearGradient x1="335.98222" y1="134.67567" x2="336.0421" y2="158.30416" gradientUnits="userSpaceOnUse" id="color-67"><stop offset="0" stop-color="#050505"/><stop offset="1" stop-color="#0b0b0b"/></linearGradient><radialGradient cx="252.68168" cy="120.01186" r="13.89578" gradientUnits="userSpaceOnUse" id="color-68"><stop offset="0" stop-color="#b50a0a"/><stop offset="1" stop-color="#b50a0a" stop-opacity="0"/></radialGradient></defs><g transform="translate(-175.35589,-45.8763)"><g data-paper-data="{&quot;isPaintingLayer&quot;:true}" fill-rule="nonzero" stroke-linejoin="miter" stroke-miterlimit="10" stroke-dasharray="" stroke-dashoffset="0" style="mix-blend-mode: normal"><path d="M302.01027,149.08828c0,0 -22.17656,1.79987 -28.72251,-0.4708c-6.5459,-2.2707 -1.81201,-11.70101 1.1014,-18.02925c2.91343,-6.32825 23.17833,-0.94078 29.72426,1.3299c6.5459,2.2707 -2.10316,17.17016 -2.10316,17.17016z" data-paper-data="{&quot;index&quot;:null}" fill="url(#color-1)" stroke="#000000" stroke-width="2" stroke-linecap="butt"/><path d="M252.35638,245.73394c0,0 0.19852,-8.55104 1.38882,-13.71339c1.44892,-6.28392 0.25938,-22.16945 0.25938,-22.16945l19.25626,5.39709c0,0 -5.15498,12.92962 -6.70139,19.15803c-0.74304,2.99272 -2.49826,8.70797 -3.3447,11.54434c-0.64844,2.17292 1.56926,2.49403 1.56926,2.49403c0,0 -5.9345,-1.99421 -8.389,-2.36376c-2.21524,-0.33353 -4.03864,-0.34687 -4.03864,-0.34687z" fill="url(#color-2)" stroke="#000000" stroke-width="2" stroke-linecap="butt"/><path d="M218.6626,245.73642c0,0 2.07196,-9.30716 3.85733,-14.10013c2.17321,-5.83426 4.3477,-19.69113 4.3477,-19.69113c0,0 9.12123,-1.06136 11.26208,-0.25779c3.28691,1.23373 6.54087,6.94003 6.54087,6.94003c0,0 -6.2958,9.9344 -8.55943,15.70563c-1.08765,2.77304 -3.75473,8.89458 -4.92686,11.50795c-0.89798,2.00208 0.3869,2.59056 0.3869,2.59056c0,0 -5.6639,-2.51847 -8.05963,-3.12651c-2.16218,-0.54875 -4.84894,0.43137 -4.84894,0.43137z" fill="url(#color-3)" stroke="#000000" stroke-width="2" stroke-linecap="butt"/><path d="M253.70362,210.48005l-9.62808,-37.31619l24.62305,-0.38301l2.4107,35.75734z" data-paper-data="{&quot;index&quot;:null}" fill="url(#color-4)" stroke="#000000" stroke-width="2" stroke-linecap="butt"/><path d="M226.74391,210.72127l0.12798,-37.30209l28.14064,0.38301l-9.22714,36.63304z" fill="url(#color-5)" stroke="#000000" stroke-width="2" stroke-linecap="butt"/><path d="M223.14739,184.34671l4.00039,-18.52536l39.31412,-2.06721l6.75928,20.59256c0,0 -12.04391,2.39249 -13.0729,1.7983c-1.12221,-0.64802 -3.86044,-13.29454 -4.49228,-13.18316c-1.00223,0.17666 -1.77827,13.08135 -2.90801,13.14121c-4.84922,0.25688 -10.05175,-0.04691 -12.56447,-0.04691c-9.23661,0 -17.03613,-1.70943 -17.03613,-1.70943z" fill="url(#color-6)" stroke="#000000" stroke-width="2" stroke-linecap="butt"/><path d="M269.91051,153.19189c0.41549,2.09214 -0.77823,0.21406 -1.8017,4.12045c-0.27856,1.06328 0.38855,11.18137 0.02358,12.1099c-1.30274,3.31458 -11.53288,1.66588 -11.53288,1.66588c0,0 -10.28101,0.68487 -17.71984,-0.03111c-7.0427,-0.67785 -12.49059,-1.60759 -12.49059,-1.60759c0,0 -2.3633,-5.19414 -3.38571,-7.68453c-1.02241,-2.49039 -3.19977,-7.14184 -4.20131,-11.34106c0,0 21.25847,-3.49429 36.50433,-4.77394c8.31938,-0.69827 14.29661,5.99373 14.6041,7.542z" fill="url(#color-7)" stroke="#000000" stroke-width="2" stroke-linecap="butt"/><path d="M271.84175,144.12294c0.41549,2.09213 -0.66581,10.24573 -2.21552,11.88678c-0.6796,0.71966 0.34261,3.84632 -1.74014,4.78794c-4.01228,1.81397 -12.57056,5.246 -12.57056,5.246c0,0 -15.46288,-3.80982 -24.69227,-4.77925c-5.59527,-0.58772 -1.11313,-3.6446 -4.47902,-5.17345c-1.78763,-0.81199 -6.23974,-1.18899 -6.38254,-1.47929c-1.20257,-2.44462 -0.78574,-0.66989 -1.78729,-4.86913c-1.05996,-4.44417 -0.06891,-3.86697 -0.06891,-6.75865c0,-8.52127 9.31125,-15.84333 9.31125,-15.84333l38.99422,5.21908c0,0 4.75979,7.37776 5.63076,11.76331z" fill="url(#color-8)" stroke="#000000" stroke-width="2" stroke-linecap="butt"/><path d="M234.32092,140.97287c-1.59411,-0.0758 -4.8926,-0.15082 -5.55365,-1.24238c-0.74698,-1.23344 1.54076,-10.86086 1.70754,-11.6386c0.36477,-1.7009 22.92839,-0.58068 26.05515,-0.58068c1.6816,0 13.86237,3.6088 10.37372,7.20745c-0.94987,0.97982 0.76245,2.84793 -1.25676,3.83107c-4.34323,2.11469 -7.80272,5.56133 -9.82352,6.29386c-2.4811,0.41031 -21.00143,-3.84687 -21.50248,-3.8707z" fill="url(#color-9)" stroke="#000000" stroke-width="2" stroke-linecap="butt"/><path d="M239.27086,101.70847c2.28053,-0.10414 19.42058,3.03674 19.33192,4.32696c-0.47695,6.93933 -6.75003,24.06458 -16.00647,24.06458c-4.91206,0 -13.32723,-0.91598 -13.32723,-0.91598c0,0 -3.38866,-12.96426 -3.38866,-16.22545c0,-3.26119 13.39043,-11.25009 13.39043,-11.25009z" fill="url(#color-10)" stroke="#000000" stroke-width="2" stroke-linecap="butt"/><path d="M242.11499,94.71299c4.74337,-0.21357 17.56143,10.40572 17.50759,11.18931c-0.07474,1.08728 1.75543,2.39336 1.75543,2.39336l-11.28836,2.86556c0,0 0.8316,-5.16878 -0.82662,-6.67507c0,0 -2.6008,-1.42409 -5.75939,-1.8489c-1.54308,-0.20754 -4.30131,-0.92038 -4.05138,-1.23946c0.34411,-0.43928 4.1667,-1.94732 4.56366,-2.74593c0.59523,-1.1975 -1.90097,-3.93888 -1.90097,-3.93888z" fill="url(#color-11)" stroke="#000000" stroke-width="2" stroke-linecap="butt"/><path d="M231.69941,116.6076l1.45379,-2.00606c0,0 3.33643,1.84276 5.41314,1.04071c5.44136,-2.10151 8.23969,-3.65283 13.71828,-5.69913c3.02499,-1.12987 9.8708,-0.83887 9.8708,-0.83887c0,0 -0.34224,0.24977 -0.84083,3.45537c-0.4986,3.20561 -0.82733,5.36274 -0.82733,5.36274c0,0 -2.35056,8.19971 -5.03504,10.86326c-2.04878,2.0328 -4.74104,3.15363 -4.74104,3.15363l-11.88948,-2.90062c0,0 -0.92524,-5.47614 -2.10244,-7.35331z" fill="#000000" stroke="#000000" stroke-width="1.5" stroke-linecap="butt"/><path d="M259.74996,117.4159c0.19876,1.16981 -2.18343,6.49989 -2.18343,6.49989c0,0 -0.5794,2.50747 -2.29843,4.28616c-0.96659,1.1683 -4.37969,2.57042 -4.37969,2.57042c0,0 3.10555,-6.27437 4.73372,-11.49278c0.21787,-0.69828 0.63195,-1.20473 2.71571,-4.61229c1.81131,-2.96202 2.57551,-2.35613 2.57551,-2.35613c0,0 -0.92073,4.07766 -1.16338,5.1047z" fill="#000000" stroke="#000000" stroke-width="1.5" stroke-linecap="butt"/><path d="M256.43944,208.71773c1.98991,-1.30575 4.20666,-3.36318 6.8711,-4.14382c5.40805,-1.58446 9.08934,-1.78869 11.36065,2.5799c2.27132,4.36858 2.59415,9.54547 -2.81392,11.12993c-4.19261,1.22836 -11.08121,-2.70092 -14.85785,-5.34094c-0.72798,-0.50888 -3.79748,0.493 -5.15721,-0.05421c-0.68528,-0.27578 -0.34613,-1.25987 -0.51719,-1.58888c-1.15229,-2.21627 3.0654,-1.23744 5.11443,-2.582z" data-paper-data="{&quot;index&quot;:null}" fill="url(#color-12)" stroke="#000000" stroke-width="2" stroke-linecap="butt"/><path d="M230.66091,208.3764c2.19289,-0.90515 4.79846,-2.47105 7.47357,-2.78793c5.42971,-0.64317 8.74117,-0.47166 9.66315,3.91441c0.92198,4.38607 0.21212,9.38818 -5.21759,10.03134c-4.20938,0.4986 -8.86426,-3.85799 -11.64505,-6.87412c-0.32284,-0.35017 -4.07725,0.55348 -5.57462,-0.06951c-0.56679,-0.2358 -0.25091,-1.3674 -0.2764,-1.48866c-0.46774,-2.22513 3.31887,-1.79349 5.57694,-2.72553z" data-paper-data="{&quot;index&quot;:null}" fill="url(#color-13)" stroke="#000000" stroke-width="2" stroke-linecap="butt"/><path d="M224.76827,173.43619c0,0 -0.00748,-1.51106 0.12892,-2.27902c0.13942,-0.78492 0.69876,-2.38078 0.69876,-2.38078c0,0 7.15917,1.05794 15.2409,1.69654c6.02897,0.47638 12.81605,0.58161 16.2104,0.58161c5.33618,0 11.58731,-1.76037 11.58731,-1.76037c0,0 0.90416,1.1461 1.0271,1.68442c0.1482,0.64897 -0.06148,2.35409 -0.06148,2.35409c0,0 -6.75601,1.77632 -11.58634,1.78773c-3.6964,0.00873 -10.99143,0.3803 -17.80844,-0.00488c-8.05205,-0.45496 -15.43712,-1.6793 -15.43712,-1.6793z" fill="url(#color-14)" stroke="#000000" stroke-width="2" stroke-linecap="butt"/><path d="M251.15008,175.45544c0,0 -0.41051,-1.17204 -0.5048,-1.70293c-0.15251,-0.85865 -0.04699,-2.95687 -0.04699,-2.95687c0,0 3.01256,-0.2071 4.41421,-0.2071c1.35568,0 3.86244,0.2071 3.86244,0.2071c0,0 0.55176,1.37226 0.55176,2.07103c0,0.71602 -0.27589,2.17457 -0.27589,2.17457c0,0 -2.39944,0.70559 -3.40591,0.75955c-1.422,0.07626 -4.59488,-0.34534 -4.59488,-0.34534z" fill="#060606" stroke="#000000" stroke-width="2" stroke-linecap="butt"/><path d="M217.78107,251.68745l-0.45973,-7.88836l2.57823,-6.4497l13.97429,2.9044l0.13771,3.18065c0,0 7.27072,5.05523 8.1505,5.19207c1.33914,0.20829 -1.73314,3.2896 -1.73314,3.2896z" fill="url(#color-15)" stroke="#000000" stroke-width="2" stroke-linecap="butt"/><path d="M223.63789,219.62332c0,0 7.32375,-0.14216 10.59776,0.51112c3.33128,0.66471 9.22112,3.44346 9.22112,3.44346l-7.46756,16.78102c0,0 -6.40088,-0.42925 -9.32051,-1.15302c-2.62642,-0.65106 -7.41097,-2.99461 -7.41097,-2.99461z" fill="url(#color-16)" stroke="#000000" stroke-width="2" stroke-linecap="butt"/><path d="M250.30265,202.52903l-1.18906,-5.30443l-0.01616,-6.15706c0,0 7.99965,-2.39951 11.69722,-2.92266c4.07035,-0.57588 11.71417,-0.38958 11.71417,-0.38958l0.68956,5.91016l-1.00554,5.49384c0,0 -6.76982,2.72798 -10.3972,3.28637c-3.66888,0.56477 -11.493,0.08335 -11.493,0.08335z" fill="url(#color-17)" stroke="#000000" stroke-width="2" stroke-linecap="butt"/><path d="M225.15571,201.30137l-0.68814,-5.29685l0.69148,-5.95494c0,0 9.01627,-1.18614 13.11628,-1.16787c4.51333,0.02011 12.84305,1.28353 12.84305,1.28353l0.07267,5.81168l-1.73131,5.16896c0,0 -7.71049,1.67797 -11.73785,1.70374c-4.07344,0.02606 -12.56614,-1.54824 -12.56614,-1.54824z" fill="url(#color-18)" stroke="#000000" stroke-width="2" stroke-linecap="butt"/><path d="M249.03241,118.58667c0.81401,-2.11279 3.0424,-3.32974 4.9772,-2.7182c1.93483,0.61155 2.84342,2.82005 2.0294,4.93282c-0.81401,2.11279 -3.0424,3.32974 -4.97722,2.7182c-1.93483,-0.61155 -2.84341,-2.82005 -2.02938,-4.93282z" fill="url(#color-19)" stroke="#000000" stroke-width="0" stroke-linecap="butt"/><path d="M250.23738,251.97943l-0.45973,-7.88836l2.57824,-6.4497l13.69395,1.1617l0.41803,4.92337c0,0 7.27073,5.05523 8.1505,5.19207c1.33914,0.20829 -1.73314,3.2896 -1.73314,3.2896z" fill="url(#color-20)" stroke="#000000" stroke-width="2" stroke-linecap="butt"/><path d="M252.91708,221.00122c0,0 7.24515,-0.89217 10.59255,-0.57974c3.40593,0.31788 9.04974,2.47093 9.04974,2.47093l-5.48998,17.4161c0,0 -5.17448,0.23057 -8.18092,-0.18814c-2.70451,-0.37664 -7.80652,-2.21122 -7.80652,-2.21122z" fill="url(#color-21)" stroke="#000000" stroke-width="2" stroke-linecap="butt"/><path d="M228.84142,239.09441c2.55065,0.35142 7.06808,0.23899 7.06808,0.23899c0,0 0.59389,1.50881 0.48639,2.28905c-0.09993,0.7253 -0.85125,1.57395 -0.85125,1.57395c0,0 -5.10807,-0.07574 -7.86863,-0.45608c-3.01867,-0.4159 -9.33112,-2.47468 -9.33112,-2.47468c0,0 -1.13265,-1.62438 -1.01803,-2.45633c0.08289,-0.6016 1.8636,-1.06628 1.8636,-1.06628c0,0 6.51932,1.91993 9.65095,2.35139z" data-paper-data="{&quot;index&quot;:null}" fill="url(#color-22)" stroke="#000000" stroke-width="2" stroke-linecap="butt"/><path d="M260.83682,239.71925c2.56414,0.23343 7.07159,-0.08719 7.07159,-0.08719c0,0 0.66282,1.47981 0.59142,2.26418c-0.06637,0.72914 -0.77776,1.61154 -0.77776,1.61154c0,0 -5.10612,0.15989 -7.88129,-0.09275c-3.03464,-0.27625 -9.4353,-2.04176 -9.4353,-2.04176c0,0 -1.20636,-1.57041 -1.13022,-2.40678c0.05506,-0.60478 1.81244,-1.15108 1.81244,-1.15108c0,0 6.60092,1.61725 9.74911,1.90385z" data-paper-data="{&quot;index&quot;:null}" fill="url(#color-23)" stroke="#000000" stroke-width="2" stroke-linecap="butt"/><path d="M200.48364,184.69605c-3.68889,4.2951 -2.89343,5.02248 -8.21052,0.45583c-5.31709,-4.56665 -3.232,-22.06663 0.4569,-26.36174c3.68889,-4.2951 8.89929,0.43379 14.21639,5.00044c5.31709,4.56665 -2.77386,16.61038 -6.46274,20.90547z" fill="url(#color-24)" stroke="#000000" stroke-width="2" stroke-linecap="butt"/><path d="M205.36206,163.50249c-6.10585,-1.03375 -13.22048,-0.58444 -12.79502,-6.28085c0.42548,-5.69643 3.90061,-21.0797 10.00647,-20.04594c6.10585,1.03375 15.33995,2.29903 14.91449,7.99544c-0.42548,5.69643 -6.02009,19.36511 -12.12593,18.33137z" data-paper-data="{&quot;index&quot;:null}" fill="url(#color-25)" stroke="#000000" stroke-width="2" stroke-linecap="butt"/><path d="M214.26109,160.13186c-0.32105,1.23132 -2.63336,1.73833 -3.70006,2.72261c-3.6795,3.39518 -8.59315,6.91369 -13.8511,5.54276c-6.78224,-1.76837 -7.60521,-8.01037 -6.17676,-13.48897c1.42847,-5.47862 4.26253,-5.30939 11.04478,-3.54102c3.34147,0.87124 6.51863,3.33611 9.21802,4.87998c2.77962,1.58974 4.18981,1.10523 3.46511,3.88465z" fill="url(#color-26)" stroke="#000000" stroke-width="2" stroke-linecap="butt"/><path d="M195.69195,139.06451c0.15207,-1.82366 4.5054,-9.70307 10.21181,-12.01129c4.11511,-1.66451 17.00599,1.33648 20.04091,0.08276c2.45491,-1.01413 3.37969,-3.00201 3.37969,-3.00201c0,0 6.30364,4.81769 5.9532,9.02025c-0.11484,1.37703 -3.05802,4.5265 -4.54897,7.09909c-0.18337,0.31642 -6.9207,-0.94908 -8.58638,-0.00983c-3.82168,2.15496 -5.78168,6.54054 -8.37453,6.18489c0,0 -7.21472,-0.0899 -9.54398,-0.62897c-5.39468,-1.24843 -8.76351,-3.95536 -8.53171,-6.73489z" fill="url(#color-27)" stroke="#000000" stroke-width="2" stroke-linecap="butt"/><g><g stroke="none" stroke-width="0" stroke-linecap="butt"><g><g><g><path d="M304.51061,165.52396c8.35548,-0.66343 15.62527,4.5582 16.23747,11.66284c0.61222,7.10465 -5.66494,13.4019 -14.02045,14.06532c-8.35548,0.66343 -15.62526,-4.5582 -16.23748,-11.66285c-0.61221,-7.10464 5.66494,-13.40189 14.02045,-14.06531z" fill="url(#color-28)"/><path d="M300.66427,165.82934c8.35548,-0.66343 15.62527,4.55821 16.23749,11.66286c0.61222,7.10465 -5.66494,13.40189 -14.02046,14.06532c-8.35548,0.66343 -15.62527,-4.55821 -16.23748,-11.66286c-0.61221,-7.10464 5.66495,-13.4019 14.02045,-14.06532z" fill="url(#color-29)"/><path d="M296.54271,165.93706c8.35548,-0.66343 15.62527,4.55821 16.23748,11.66286c0.61222,7.10465 -5.66494,13.40189 -14.02045,14.06531c-8.35548,0.66343 -15.62527,-4.55821 -16.23748,-11.66286c-0.61221,-7.10464 5.66494,-13.40189 14.02046,-14.06531z" fill="url(#color-30)"/><path d="M292.69635,166.24246c8.35548,-0.66343 15.62528,4.55821 16.23749,11.66286c0.61222,7.10465 -5.66495,13.40191 -14.02046,14.06532c-8.35548,0.66343 -15.62527,-4.5582 -16.23749,-11.66285c-0.61222,-7.10465 5.66496,-13.40189 14.02045,-14.06532z" fill="url(#color-31)"/></g><g><path d="M290.13211,166.44607c8.35548,-0.66343 15.62528,4.55821 16.23748,11.66286c0.61221,7.10464 -5.66494,13.40189 -14.02046,14.06531c-8.35548,0.66343 -15.62527,-4.55821 -16.23749,-11.66286c-0.61221,-7.10464 5.66494,-13.40188 14.02044,-14.0653z" fill="url(#color-32)"/><path d="M286.28578,166.75146c8.35548,-0.66343 15.62527,4.5582 16.23749,11.66285c0.61222,7.10465 -5.66495,13.40189 -14.02046,14.06531c-8.35548,0.66343 -15.62527,-4.55821 -16.23748,-11.66286c-0.61221,-7.10464 5.66494,-13.40188 14.02046,-14.06531z" fill="url(#color-33)"/><path d="M282.16423,166.85918c8.35548,-0.66343 15.62527,4.5582 16.23748,11.66285c0.61221,7.10464 -5.66496,13.40188 -14.02046,14.06532c-8.35548,0.66343 -15.62527,-4.5582 -16.23748,-11.66285c-0.61221,-7.10464 5.66495,-13.4019 14.02046,-14.06532z" fill="url(#color-34)"/><path d="M278.31788,167.16457c8.35548,-0.66343 15.62527,4.55821 16.23749,11.66286c0.61222,7.10465 -5.66494,13.4019 -14.02046,14.06532c-8.35548,0.66343 -15.62527,-4.5582 -16.23748,-11.66285c-0.61221,-7.10464 5.66496,-13.4019 14.02045,-14.06533z" fill="url(#color-35)"/></g></g><g><g><path d="M333.71301,162.03925c8.35548,-0.66343 15.62526,4.55821 16.23747,11.66285c0.61221,7.10464 -5.66494,13.4019 -14.02045,14.06532c-8.35548,0.66343 -15.62528,-4.55821 -16.23749,-11.66286c-0.61222,-7.10465 5.66496,-13.40188 14.02047,-14.06533z" fill="url(#color-36)"/><path d="M329.92413,163.5565c8.35548,-0.66343 15.62527,4.5582 16.23748,11.66285c0.61222,7.10465 -5.66494,13.4019 -14.02046,14.06532c-2.65208,0.21057 -4.97906,-0.18198 -7.23417,-1.02925c-4.84978,-1.82204 -8.5854,-5.78403 -9.0033,-10.63361c-0.61221,-7.10464 5.66494,-13.40189 14.02046,-14.06531z" fill="url(#color-37)"/><path d="M325.76427,162.85634c8.35548,-0.66343 15.62528,4.5582 16.23749,11.66285c0.61222,7.10465 -5.66495,13.40189 -14.02047,14.06533c-8.35548,0.66343 -15.62527,-4.55822 -16.23747,-11.66286c-0.61221,-7.10464 5.66494,-13.40188 14.02044,-14.0653z" fill="url(#color-38)"/><path d="M321.98495,164.57555c8.35548,-0.66343 15.62527,4.55821 16.23749,11.66286c0.61221,7.10464 -5.66495,13.4019 -14.02045,14.06533c-8.35548,0.66343 -15.62527,-4.5582 -16.23749,-11.66285c-0.61221,-7.10464 5.66495,-13.4019 14.02046,-14.06533z" fill="url(#color-39)"/></g><g><path d="M321.53024,163.66697c8.35548,-0.66343 15.62527,4.55821 16.23749,11.66286c0.61221,7.10464 -5.66494,13.40189 -14.02045,14.06532c-8.35548,0.66343 -15.62527,-4.5582 -16.23748,-11.66285c-0.61222,-7.10465 5.66493,-13.40191 14.02045,-14.06533z" fill="url(#color-40)"/><path d="M315.7901,165.0743c8.35548,-0.66343 15.62527,4.55821 16.23748,11.66286c0.61222,7.10465 -5.66494,13.40189 -14.02044,14.06531c-8.35548,0.66343 -15.62528,-4.55821 -16.23748,-11.66286c-0.61221,-7.10464 5.66494,-13.40188 14.02046,-14.06531z" fill="url(#color-41)"/><path d="M313.99383,164.05963c8.35548,-0.66343 15.62527,4.55819 16.23748,11.66284c0.61222,7.10465 -5.66495,13.4019 -14.02046,14.06532c-8.35548,0.66343 -15.62527,-4.55821 -16.23749,-11.66286c-0.61222,-7.10465 5.66494,-13.40189 14.02046,-14.06531z" fill="url(#color-42)"/><path d="M307.60647,165.49764c8.35548,-0.66343 15.62527,4.5582 16.23748,11.66285c0.61222,7.10465 -5.66494,13.40189 -14.02046,14.06531c-8.35548,0.66343 -15.62527,-4.55821 -16.23748,-11.66286c-0.61221,-7.10464 5.66494,-13.4019 14.02045,-14.06532z" fill="url(#color-43)"/></g></g></g><g><g><g><path d="M244.94532,169.37529c8.35548,-0.66343 15.62527,4.5582 16.23748,11.66285c0.61221,7.10464 -5.66495,13.4019 -14.02046,14.06532c-8.35548,0.66343 -15.62527,-4.55821 -16.23749,-11.66286c-0.61221,-7.10464 5.66494,-13.4019 14.02045,-14.06532z" fill="url(#color-44)"/><path d="M241.09897,169.6807c8.35548,-0.66343 15.62527,4.5582 16.23748,11.66285c0.61221,7.10464 -5.66494,13.4019 -14.02046,14.06532c-8.35548,0.66343 -15.62527,-4.55821 -16.23748,-11.66286c-0.61221,-7.10464 5.66494,-13.40189 14.02045,-14.06531z" fill="url(#color-45)"/><path d="M236.97741,169.7884c8.35548,-0.66343 15.62527,4.55821 16.23748,11.66286c0.61221,7.10464 -5.66494,13.40189 -14.02045,14.06531c-8.35548,0.66343 -15.62527,-4.55821 -16.23749,-11.66286c-0.61221,-7.10464 5.66494,-13.40189 14.02046,-14.06531z" fill="url(#color-46)"/><path d="M233.13107,170.09381c8.35548,-0.66343 15.62526,4.55822 16.23747,11.66286c0.61221,7.10464 -5.66494,13.40189 -14.02043,14.06531c-8.35548,0.66343 -15.62527,-4.5582 -16.23748,-11.66285c-0.61221,-7.10464 5.66495,-13.4019 14.02045,-14.06532z" fill="url(#color-47)"/></g><g><path d="M230.56685,170.29741c8.35548,-0.66343 15.62528,4.55821 16.23749,11.66286c0.61221,7.10464 -5.66495,13.40189 -14.02047,14.06533c-8.35548,0.66343 -15.62527,-4.55821 -16.23748,-11.66286c-0.61221,-7.10464 5.66496,-13.40189 14.02045,-14.06532z" fill="url(#color-48)"/><path d="M226.72049,170.60282c8.35548,-0.66343 15.62527,4.55821 16.23748,11.66286c0.61221,7.10464 -5.66494,13.40189 -14.02046,14.06531c-8.35548,0.66343 -15.62528,-4.5582 -16.23749,-11.66285c-0.61221,-7.10464 5.66495,-13.40188 14.02047,-14.06531z" fill="url(#color-49)"/><path d="M222.59893,170.71053c8.35548,-0.66343 15.62527,4.55821 16.23747,11.66285c0.61221,7.10464 -5.66494,13.4019 -14.02045,14.06532c-8.35548,0.66343 -15.62528,-4.55821 -16.23748,-11.66286c-0.61221,-7.10464 5.66495,-13.4019 14.02046,-14.06532z" fill="url(#color-50)"/><path d="M218.75259,171.01594c8.35548,-0.66343 15.62526,4.55821 16.23748,11.66286c0.61221,7.10464 -5.66496,13.40188 -14.02047,14.06532c-8.35548,0.66343 -15.62527,-4.55821 -16.23747,-11.66285c-0.61221,-7.10464 5.66495,-13.40189 14.02046,-14.06531z" fill="url(#color-51)"/></g></g><g><g><path d="M274.2339,167.70838c8.35548,-0.66343 15.62527,4.55821 16.23749,11.66286c0.61221,7.10464 -5.66494,13.40188 -14.02046,14.06531c-8.35548,0.66343 -15.62527,-4.55821 -16.23749,-11.66286c-0.61221,-7.10464 5.66494,-13.4019 14.02044,-14.06532z" fill="url(#color-52)"/><path d="M270.38756,168.01378c8.35549,-0.66342 15.62528,4.5582 16.23749,11.66285c0.61222,7.10465 -5.66496,13.40188 -14.02046,14.06531c-8.35548,0.66343 -15.62527,-4.55821 -16.23747,-11.66285c-0.61221,-7.10464 5.66494,-13.40188 14.02046,-14.06531z" fill="url(#color-53)"/><path d="M266.26598,168.1215c8.35549,-0.66342 15.62527,4.5582 16.23749,11.66285c0.61221,7.10464 -5.66495,13.40189 -14.02046,14.06532c-8.35548,0.66343 -15.62528,-4.55821 -16.23749,-11.66286c-0.61221,-7.10464 5.66495,-13.40189 14.02045,-14.06531z" fill="url(#color-54)"/><path d="M262.41965,168.42689c8.35548,-0.66343 15.62528,4.55821 16.23749,11.66286c0.61221,7.10464 -5.66495,13.40189 -14.02046,14.06531c-8.35548,0.66343 -15.62527,-4.55821 -16.23748,-11.66286c-0.61221,-7.10464 5.66494,-13.40189 14.02046,-14.06532z" fill="url(#color-55)"/></g><g><path d="M259.85541,168.63048c8.35548,-0.66343 15.62527,4.55821 16.23749,11.66286c0.61222,7.10465 -5.66495,13.40189 -14.02046,14.06531c-8.35548,0.66343 -15.62527,-4.55821 -16.23747,-11.66285c-0.61221,-7.10464 5.66493,-13.40191 14.02045,-14.06532z" fill="url(#color-56)"/><path d="M256.00908,168.9359c8.35548,-0.66343 15.62527,4.55821 16.23748,11.66286c0.61222,7.10465 -5.66494,13.40188 -14.02046,14.06531c-8.35548,0.66343 -15.62527,-4.5582 -16.23748,-11.66285c-0.61221,-7.10464 5.66494,-13.40189 14.02044,-14.06531z" fill="url(#color-57)"/><path d="M251.88751,169.04361c8.35548,-0.66343 15.62528,4.55821 16.23749,11.66286c0.61221,7.10464 -5.66495,13.4019 -14.02045,14.06532c-8.35548,0.66343 -15.62528,-4.55821 -16.23748,-11.66286c-0.61221,-7.10464 5.66494,-13.40189 14.02046,-14.06531z" fill="url(#color-58)"/><path d="M248.04118,169.34902c8.35548,-0.66343 15.62528,4.55821 16.23748,11.66286c0.61221,7.10464 -5.66493,13.40189 -14.02043,14.06531c-8.35548,0.66343 -15.62528,-4.5582 -16.23749,-11.66285c-0.61221,-7.10464 5.66494,-13.40189 14.02046,-14.06532z" fill="url(#color-59)"/></g></g></g></g><path d="M221.05758,182.84154c0,0 19.94889,-0.54524 54.20003,-2.29708c39.30352,-2.01025 62.7544,-3.67051 62.7544,-3.67051c0,0 -4.15934,6.44081 -14.41102,7.07684c-20.34215,2.099 -20.24402,2.42944 -48.06189,4.09016c-30.26867,1.2111 -54.06939,2.61291 -54.06939,2.61291z" data-paper-data="{&quot;index&quot;:null}" fill="url(#color-60)" stroke="#ff0000" stroke-width="0" stroke-linecap="butt"/><path d="M216.71825,182.74625c0,0 20.78615,-0.58494 56.47641,-2.40503c40.95495,-2.08857 65.40168,-3.59361 65.40168,-3.59361c0,0 -4.33152,6.76479 -15.0142,7.42125c-21.19898,2.13962 -21.09739,2.4699 -50.08457,4.18608c-31.5398,1.27136 -56.34094,2.72062 -56.34094,2.72062z" data-paper-data="{&quot;index&quot;:null}" fill="none" stroke="#330000" stroke-width="2" stroke-linecap="butt"/><path d="M210.27323,173.7453c0,0 1.52825,-1.48292 2.54913,-1.53131c1.02088,-0.0484 2.86944,1.27439 2.86944,1.27439l1.27741,26.93977c0,0 -1.56699,1.48478 -2.73598,1.5402c-1.16899,0.05542 -2.6826,-1.28328 -2.6826,-1.28328z" fill="#000000" stroke="none" stroke-width="0" stroke-linecap="butt"/><path d="M178.29156,184.91032l34.04828,-1.61448l0.37452,7.89838l-34.04827,1.61448c0,0 -2.97905,-1.97056 -3.06637,-3.81219c-0.08733,-1.84165 2.69185,-4.08618 2.69185,-4.08618z" fill="#070707" stroke="#000000" stroke-width="1.5" stroke-linecap="butt"/><g fill="#0f0f0f" stroke="#000000" stroke-width="1" stroke-linecap="butt"><g><path d="M204.79707,185.58897l6.52306,-0.30931c0,0 1.21828,1.181 1.24807,1.80934c0.03046,0.64248 -1.06725,2.00407 -1.06725,2.00407l-6.52306,0.30931l-1.38705,-0.89617l-0.0787,-1.73257z"/><path d="M203.51739,186.72111l0.08561,1.73223l-1.29599,1.02339l-6.52306,0.30931l-1.42757,-0.92711l-0.0984,-1.74944l1.34517,-1.13684l6.52306,-0.30932z" data-paper-data="{&quot;index&quot;:null}"/></g><g><path d="M186.40822,186.46092l6.52307,-0.30931c0,0 1.21825,1.18099 1.24804,1.80935c0.03046,0.64248 -1.06724,2.00406 -1.06724,2.00406l-6.52306,0.30931l-1.38705,-0.89617l-0.0787,-1.73257z"/><path d="M185.12855,187.59306l0.08561,1.73223l-1.296,1.02339l-6.52307,0.30931l-1.42756,-0.92711l-0.09842,-1.74945l1.34516,-1.13685l6.52306,-0.30931z" data-paper-data="{&quot;index&quot;:null}"/></g></g><path d="M194.15582,191.61077l-0.33626,-7.09126" fill="none" stroke="#000000" stroke-width="1.5" stroke-linecap="round"/><path d="M203.29944,183.99146l0.33037,6.96764" fill="none" stroke="#000000" stroke-width="1.5" stroke-linecap="round"/><path d="M184.74789,185.0778l0.3206,6.76142" fill="none" stroke="#000000" stroke-width="1.5" stroke-linecap="round"/><path d="M215.84569,181.39409c0,0 4.48662,0.56861 4.52029,1.27854c0.06266,1.32126 0.27695,5.84078 0.38329,8.08334c0.03693,0.77899 -4.38881,1.49425 -4.38881,1.49425z" fill="url(#color-61)" stroke="#000000" stroke-width="2" stroke-linecap="butt"/></g><path d="M333.97094,152.00511c-3.15634,0.92904 -11.00107,1.18566 -17.86177,0.24722c-6.44832,-0.88203 -12.02737,-2.93638 -12.02737,-2.93638c0,0 0.15617,-13.66665 6.27915,-15.46891c6.123,-1.80226 25.32321,3.37897 27.73131,10.40178c2.40809,7.02281 2.00169,5.95401 -4.12129,7.75627z" data-paper-data="{&quot;index&quot;:null}" fill="url(#color-62)" stroke="#000000" stroke-width="2" stroke-linecap="butt"/><path d="M301.43336,151.21322c-2.85106,-0.36142 -1.85401,-1.33734 -2.24062,-4.12887c-0.37546,-2.71094 -2.43119,-5.98891 -1.93491,-8.99005c1.0073,-6.09147 2.96989,-8.57626 8.58974,-7.86382c5.6198,0.71245 11.06823,3.50718 10.06093,9.59863c-0.78092,4.72241 -5.94663,7.49874 -10.5177,9.31842c-1.32516,0.52753 -2.69438,2.22581 -3.95745,2.06569z" data-paper-data="{&quot;index&quot;:null}" fill="url(#color-63)" stroke="#000000" stroke-width="2" stroke-linecap="butt"/><path d="M293.99728,128.70731c0.81443,2.41125 -0.77022,8.5736 -4.89968,10.66336c-1.78297,0.90231 -5.57706,4.7489 -9.15988,4.78417c-3.5828,0.03526 -4.06563,-3.41583 -7.67435,-4.61848c-1.57286,-0.52419 -5.85942,0.03676 -6.08047,-0.20901c-1.79725,-1.99804 -4.9114,-4.23942 -5.31487,-5.43401c-1.23135,-3.64574 2.83875,-9.05274 2.83875,-9.05274c0,0 1.20296,1.58553 3.43784,2.03131c2.76291,0.55109 12.62653,-4.45818 16.36486,-3.74222c5.18394,0.99287 10.4878,5.5776 10.4878,5.5776z" data-paper-data="{&quot;index&quot;:null}" fill="url(#color-64)" stroke="#000000" stroke-width="2" stroke-linecap="butt"/><path d="M205.46578,191.26697c-0.06635,0.66239 -2.12686,3.19627 -2.72649,2.65805c-0.43447,-0.39 0.65525,-3.93395 0.18232,-3.5553c-0.74169,0.59382 -0.48877,4.55546 -1.33034,5.85825c-0.86511,1.33919 -2.82888,0.00949 -3.90258,-0.17622c-1.34897,-0.2333 -2.32976,0.60063 -3.2329,-0.26282c-1.57636,-1.50708 -2.57143,-5.14469 -2.40152,-6.84141c0.14017,-1.3995 0.10584,-2.57005 1.51358,-3.22434c0.61743,-0.28697 -8.10308,-8.72508 -5.56735,-10.77361c2.70788,-2.18758 17.33842,-0.37826 18.24803,-0.22096c1.18262,0.20455 -2.22798,11.41375 -1.30207,11.96783c1.97362,1.18105 0.70124,2.75402 0.5193,4.57055z" fill="url(#color-65)" stroke="#000000" stroke-width="2" stroke-linecap="butt"/><g><path d="M391.90791,54.38321l-43.87194,118.3307l-12.26488,-4.77241l43.87195,-118.33069c0,0 4.92985,-2.97472 7.89728,-1.82008c2.96741,1.15464 4.36763,6.59247 4.36763,6.59247z" fill="url(#color-66)" stroke="#000000" stroke-width="2.5" stroke-linecap="butt"/><path d="M357.23129,110.39022l7.42952,2.79164l-10.79434,28.72755l-4.00458,1.8867l-6.32212,16.82538l1.95424,4.03805l4.3477,1.50508l-1.73169,4.85807l-11.77402,-4.23567z" fill="#050505" stroke="#000000" stroke-width="2.5" stroke-linecap="round"/><path d="M351.7121,171.56323c0,0 0.52783,1.65927 0.21617,2.47982c-0.31164,0.82056 -1.87029,1.87554 -1.87029,1.87554l-19.42465,-7.22174c0,0 -0.51599,-1.69041 -0.15916,-2.63001c0.35685,-0.93961 1.81325,-1.72531 1.81325,-1.72531z" fill="#000000" stroke="none" stroke-width="0" stroke-linecap="butt"/><path d="M331.55847,166.99358l-2.01809,-7.17805l2.83354,-8.04187c0,0 2.46995,-0.06719 3.64793,0.37541c1.34005,0.50354 3.96904,2.48665 3.96904,2.48665" fill="none" stroke="#000000" stroke-width="3.5" stroke-linecap="round"/><path d="M334.02535,157.93966c0,0 1.75195,-0.82028 2.67471,-0.88531c1.01031,-0.07119 3.14837,0.47507 3.14837,0.47507" fill="none" stroke="#000000" stroke-width="2.5" stroke-linecap="round"/><path d="M371.22016,109.52971l-5.50414,-2.06815l5.33129,-14.18844l7.61049,-3.35185z" fill="#050505" stroke="#000000" stroke-width="2.5" stroke-linecap="round"/><path d="M379.90692,49.26307c0,0 4.89556,-3.16543 7.8749,-1.7908c2.97932,1.37467 4.01151,7.27514 4.01151,7.27514l-0.53375,1.42496l-4.43759,-1.66244l-4.28812,1.69257l-5.78431,15.39402l1.87068,4.12272l-3.35504,8.92893l-1.68274,0.76355l-8.09974,3.16797z" fill="#070707" stroke="#000000" stroke-width="2.5" stroke-linecap="round"/></g><path d="M336.14261,156.41957c-0.32636,-1.14794 -13.27802,-0.71888 -13.15741,-2.04082c0.0928,-1.01675 2.35528,-17.16393 5.46852,-19.42921c2.91536,-2.12127 9.42843,9.61357 9.912,9.03632c1.10257,-1.31613 2.34312,-0.94382 3.87826,-0.69225c1.86115,0.30504 5.46153,2.41102 6.61938,4.52703c0.66337,1.21231 -0.50867,2.02088 -0.64626,3.52875c-0.1095,1.20018 0.74778,3.67917 -0.93081,4.21928c-1.63294,0.52541 -5.79226,-0.88073 -6.63925,-0.25873c-0.54009,0.39662 -3.80876,3.55652 -4.50442,1.10964z" data-paper-data="{&quot;index&quot;:null}" fill="url(#color-67)" stroke="#000000" stroke-width="2" stroke-linecap="butt"/><path d="M346.6379,160.09065c0,-1.00595 0.81548,-1.82143 1.82143,-1.82143c1.00595,0 1.82143,0.81548 1.82143,1.82143c0,1.00595 -0.81548,1.82143 -1.82143,1.82143c-1.00595,0 -1.82143,-0.81548 -1.82143,-1.82143z" fill="#800808" stroke="none" stroke-width="0.5" stroke-linecap="butt"/><path d="M239.39005,120.01186c0,-6.31705 5.95087,-11.43802 13.29163,-11.43802c7.34076,0 13.29163,5.12098 13.29163,11.43802c0,6.31705 -5.95086,11.43803 -13.29163,11.43803c-7.34077,0 -13.29163,-5.12099 -13.29163,-11.43803z" fill="url(#color-68)" stroke="#000000" stroke-width="0" stroke-linecap="butt"/></g></g></svg>