<svg version="1.1" xmlns="http://www.w3.org/2000/svg" xmlns:xlink="http://www.w3.org/1999/xlink" width="117.63814" height="84.63092" viewBox="0,0,117.63814,84.63092"><g transform="translate(-180.97979,-148.58333)"><g data-paper-data="{&quot;isPaintingLayer&quot;:true}" fill-rule="nonzero" stroke-linejoin="miter" stroke-miterlimit="10" stroke-dasharray="" stroke-dashoffset="0" style="mix-blend-mode: normal"><path d="M214.32356,224.45814v-10.92594l-9.5,-12.48596l8.86444,-9.30367l52.9689,-0.02967l8.2671,8.6076l-9.2671,13.37837l-0.16667,10.75928z" fill="#9a9a9a" stroke="#000000" stroke-width="5" stroke-linecap="butt"/><path d="M259.878,201.32234l7.07107,-7.07107l7.07107,7.07107l-7.07107,7.07107z" fill="#272727" stroke="none" stroke-width="0" stroke-linecap="butt"/><path d="M206.37801,201.489l7.07107,-7.07107l7.07107,7.07107l-7.07107,7.07107z" fill="#272727" stroke="none" stroke-width="0" stroke-linecap="butt"/><path d="M218.24941,210.02895l-17.175,17.175l9.43682,-9.43682" fill="none" stroke="#000000" stroke-width="16" stroke-linecap="round"/><path d="M261.20273,210.01573l17.54167,17.54167l-9.91966,-9.91966" data-paper-data="{&quot;index&quot;:null}" fill="none" stroke="#000000" stroke-width="16" stroke-linecap="round"/><path d="M267.91668,180c0,15.41797 -12.49871,27.91667 -27.91667,27.91667c-15.41797,0 -27.91667,-12.4987 -27.91667,-27.91667c0,-15.41796 12.49871,-27.91667 27.91667,-27.91667c15.41796,0 27.91667,12.49871 27.91667,27.91667z" data-paper-data="{&quot;index&quot;:null}" fill="#9a9a9a" stroke="#272727" stroke-width="7" stroke-linecap="butt"/><path d="M225.68258,189.79403l14.59756,-26.31051l14.59757,26.31051z" data-paper-data="{&quot;index&quot;:null}" fill="#000000" stroke="none" stroke-width="0" stroke-linecap="butt"/><path d="M206.38424,220.46092v-15.24122h14.83447v15.24122z" fill="#000000" stroke="#000000" stroke-width="11" stroke-linecap="butt"/><path d="M258.48955,220.74841v-15.4954h14.88853v15.4954z" fill="#000000" stroke="#000000" stroke-width="11" stroke-linecap="butt"/><path d="M268.9943,208.00476l13.37363,-13.37363" data-paper-data="{&quot;index&quot;:null}" fill="none" stroke="#000000" stroke-width="32.5" stroke-linecap="round"/><path d="M209.57979,207.35423l-12.35,-12.35" data-paper-data="{&quot;index&quot;:null}" fill="none" stroke="#000000" stroke-width="32.5" stroke-linecap="round"/></g></g></svg>