<svg version="1.1" xmlns="http://www.w3.org/2000/svg" xmlns:xlink="http://www.w3.org/1999/xlink" width="53.63772" height="40.91124" viewBox="0,0,53.63772,40.91124"><g transform="translate(-237.61091,-137.843)"><g data-paper-data="{&quot;isPaintingLayer&quot;:true}" fill-rule="nonzero" stroke-linejoin="miter" stroke-miterlimit="10" stroke-dasharray="" stroke-dashoffset="0" style="mix-blend-mode: normal"><path d="M258.55848,174.31246c0,0 -0.90378,-1.30445 -1.01128,-4.19851c-0.11621,-3.12884 0.20525,-6.59441 -3.45035,-12.29549c-4.26658,-6.65391 -14.94761,-11.27846 -14.94761,-11.27846c0,0 9.75015,-2.49195 12.96325,-2.65463c1.49827,-0.07584 6.47544,-0.18328 11.68071,0.6407c4.64729,0.73566 9.4764,2.34046 12.17384,3.36148c7.20097,2.72572 10.37383,6.95477 10.37383,6.95477z" fill="#ff7474" stroke="none" stroke-width="0" stroke-linecap="butt"/><path d="M241.06937,143.56089c0,0 26.72711,-5.66004 45.27607,9.37714" fill="none" stroke="#ff0000" stroke-width="5" stroke-linecap="round"/><path d="M239.11091,140.806c0,0 11.8907,-3.00412 26.11527,-0.40276c5.90351,1.07962 12.45901,2.66782 18.48333,6.41578c1.97535,1.22894 4.16353,3.13633 6.03912,4.74513" fill="none" stroke="#000000" stroke-width="3" stroke-linecap="round"/><path d="M240.41327,146.43457c0,0 26.90815,-4.96149 44.16233,8.85531" fill="none" stroke="#ffffff" stroke-width="2.5" stroke-linecap="round"/><g stroke="#ff1212" stroke-width="2.5" stroke-linecap="butt"><path d="M257.30667,171.33682l1.15772,1.69922l-5.4753,3.73041c0,0 -0.94069,-0.26007 -1.14625,-0.56178c-0.17562,-0.25777 -0.01146,-1.13745 -0.01146,-1.13745z" fill="#3f2711"/><path d="M256.93232,170.34469l13.45966,-8.73966l5.57607,-1.88057l-3.82607,4.78411l-12.81462,8.99432z" fill="#1331ff"/><path d="M257.5573,170.15073c0,0 1.54592,1.70927 2.13164,3.12873c0.58573,1.41946 0.51022,2.42012 0.23531,2.60742c-0.29008,0.19763 -1.35531,-0.12643 -1.35531,-0.12643c0,0 -0.66975,-2.3249 -1.25335,-3.18149c-0.61391,-0.90107 -2.3438,-2.09827 -2.3438,-2.09827c0,0 -0.18164,-1.40325 0.09435,-1.59129z" fill="#3c3c3c"/><path d="M251.77639,175.01786c0,0 0.47522,0.51622 0.6785,0.8146c0.19496,0.28617 0.51732,0.94057 0.51732,0.94057c0,0 -0.24317,0.39243 -0.41071,0.50658c-0.15894,0.10829 -0.57013,0.16167 -0.57013,0.16167c0,0 -0.57433,-0.51016 -0.78793,-0.82369c-0.17873,-0.26234 -0.40788,-0.93148 -0.40788,-0.93148c0,0 0.20015,-0.36312 0.35909,-0.47141z" fill="#1b1b1b"/></g><g stroke="#000000" stroke-width="0.75" stroke-linecap="butt"><path d="M251.58207,175.23041l5.38574,-3.63673l1.12865,1.67142l-5.38574,3.63676c0,0 -0.92163,-0.25893 -1.12203,-0.55569c-0.17121,-0.25356 -0.00662,-1.11573 -0.00662,-1.11573z" fill="#3f2711"/><path d="M256.62234,170.73868l13.12056,-8.65793l5.73824,-1.98043l-3.81249,4.81936l-12.9861,8.98382z" fill="#d9d9d9"/><path d="M254.78007,169.18393c0.34159,-0.23067 2.43837,1.24733 2.43837,1.24733c0,0 1.50939,1.68287 2.07813,3.07755c0.56875,1.39469 0.49061,2.3759 0.22018,2.5585c-0.28534,0.19267 -1.32887,-0.12952 -1.32887,-0.12952c0,0 -0.64748,-2.28315 -1.21642,-3.12573c-0.59849,-0.88634 -2.29041,-2.06766 -2.29041,-2.06766c0,0 -0.17245,-1.37715 0.09902,-1.56048z" fill="#3c3c3c"/><path d="M258.0046,171.38079l11.39775,-7.60204l2.34944,-1.01432l-1.68777,1.78268l-11.35928,7.76477z" fill="#3c3c3c"/><path d="M257.48073,170.77863l1.66221,0.50014l-0.19812,1.75638l-1.66221,-0.50014z" fill="#1b1b1b"/></g></g></g></svg>