<svg version="1.1" xmlns="http://www.w3.org/2000/svg" xmlns:xlink="http://www.w3.org/1999/xlink" width="99.54612" height="102.06968" viewBox="0,0,99.54612,102.06968"><defs><linearGradient x1="195.04368" y1="111.68986" x2="182.75469" y2="116.23781" gradientUnits="userSpaceOnUse" id="color-1"><stop offset="0" stop-color="#1b1b1b"/><stop offset="1" stop-color="#343434"/></linearGradient><linearGradient x1="200.07813" y1="109.54934" x2="212.41502" y2="105.13295" gradientUnits="userSpaceOnUse" id="color-2"><stop offset="0" stop-color="#1b1b1b"/><stop offset="1" stop-color="#343434"/></linearGradient><linearGradient x1="255.16987" y1="148.66684" x2="265.13715" y2="169.28223" gradientUnits="userSpaceOnUse" id="color-3"><stop offset="0" stop-color="#343434"/><stop offset="1" stop-color="#0c0c0c"/></linearGradient><linearGradient x1="239.57599" y1="148.59693" x2="239.01379" y2="185.53634" gradientUnits="userSpaceOnUse" id="color-4"><stop offset="0" stop-color="#0f0f0f"/><stop offset="1" stop-color="#0c0c0c"/></linearGradient><linearGradient x1="239.05604" y1="148.02987" x2="238.77212" y2="166.68738" gradientUnits="userSpaceOnUse" id="color-5"><stop offset="0" stop-color="#1f180f"/><stop offset="1" stop-color="#0d0b07"/></linearGradient><linearGradient x1="239.23975" y1="162.76739" x2="239.15947" y2="168.04281" gradientUnits="userSpaceOnUse" id="color-6"><stop offset="0" stop-color="#1f180f"/><stop offset="1" stop-color="#0d0b07"/></linearGradient><linearGradient x1="239.61387" y1="163.6861" x2="239.53255" y2="169.02867" gradientUnits="userSpaceOnUse" id="color-7"><stop offset="0" stop-color="#0f0f0f"/><stop offset="1" stop-color="#0c0c0c"/></linearGradient><linearGradient x1="249.17959" y1="189.12842" x2="249.48408" y2="194.72124" gradientUnits="userSpaceOnUse" id="color-8"><stop offset="0" stop-color="#1f180f"/><stop offset="1" stop-color="#0d0b07"/></linearGradient><linearGradient x1="230.31095" y1="189.15428" x2="230.05942" y2="194.75451" gradientUnits="userSpaceOnUse" id="color-9"><stop offset="0" stop-color="#1f180f"/><stop offset="1" stop-color="#0d0b07"/></linearGradient><linearGradient x1="240.03116" y1="141.69428" x2="239.73277" y2="161.2997" gradientUnits="userSpaceOnUse" id="color-10"><stop offset="0" stop-color="#0f0f0f"/><stop offset="1" stop-color="#0c0c0c"/></linearGradient><linearGradient x1="240.44542" y1="117.54174" x2="240.08152" y2="142.13992" gradientUnits="userSpaceOnUse" id="color-11"><stop offset="0" stop-color="#343434"/><stop offset="1" stop-color="#1f1f1f"/></linearGradient><linearGradient x1="256.56639" y1="163.03816" x2="273.96977" y2="162.49292" gradientUnits="userSpaceOnUse" id="color-12"><stop offset="0" stop-color="#122639"/><stop offset="1" stop-color="#141f2b"/></linearGradient><linearGradient x1="256.655" y1="163.20214" x2="274.05839" y2="162.6569" gradientUnits="userSpaceOnUse" id="color-13"><stop offset="0" stop-color="#310b0b"/><stop offset="1" stop-color="#3a0909"/></linearGradient><linearGradient x1="265.93298" y1="160.2018" x2="266.12478" y2="166.3238" gradientUnits="userSpaceOnUse" id="color-14"><stop offset="0" stop-color="#000000"/><stop offset="1" stop-color="#0c0c0c"/></linearGradient><linearGradient x1="266.91625" y1="160.04593" x2="267.11588" y2="166.41781" gradientUnits="userSpaceOnUse" id="color-15"><stop offset="0" stop-color="#0f0f0f"/><stop offset="1" stop-color="#0c0c0c"/></linearGradient><linearGradient x1="239.43978" y1="139.9827" x2="239.37776" y2="144.05815" gradientUnits="userSpaceOnUse" id="color-16"><stop offset="0" stop-color="#0f0f0f"/><stop offset="1" stop-color="#0c0c0c"/></linearGradient></defs><g transform="translate(-176.1461,-93.51177)"><g data-paper-data="{&quot;isPaintingLayer&quot;:true}" fill-rule="nonzero" stroke-linejoin="miter" stroke-miterlimit="10" stroke-dasharray="" stroke-dashoffset="0" style="mix-blend-mode: normal"><g stroke="#000000"><g data-paper-data="{&quot;index&quot;:null}" stroke-linecap="round"><path d="M188.519,125.91959l-3.03033,0.95433l-0.1015,-3.51282l-3.67338,0.06375l0.04141,-3.00522l-3.32896,-1.34127l1.0611,-3.49908l-2.94229,-1.53305l2.32312,-2.63016l-2.18941,-2.23182l2.99922,-0.98237l-1.73612,-2.58343l4.39141,-0.95179" data-paper-data="{&quot;index&quot;:null}" fill="#000000" stroke-width="0.5"/><path d="M189.53746,125.68071c0,0 -7.09,-2.64395 -8.92734,-7.9881c-2.94468,-8.5649 2.34777,-13.27614 2.34777,-13.27614l11.22656,3.36591l5.29274,12.7573z" data-paper-data="{&quot;index&quot;:null}" fill="#000000" stroke-width="0.5"/><path d="M185.97572,114.96669l-4.57678,1.34487" data-paper-data="{&quot;index&quot;:null}" fill="#000000" stroke-width="0.5"/><path d="M186.27321,119.42926l-3.24151,1.15139" data-paper-data="{&quot;index&quot;:null}" fill="#000000" stroke-width="0.5"/><path d="M189.10129,123.07381l-2.37654,0.74847l-0.07961,-2.75499l-2.88089,0.05004l0.03244,-2.35684l-2.61075,-1.05191l0.83219,-2.7442l-2.3075,-1.20229l1.82188,-2.06273l-1.71704,-1.75033l2.35215,-0.77046l-1.36158,-2.02606l3.44401,-0.74644" data-paper-data="{&quot;index&quot;:null}" fill="#343434" stroke-width="0"/><path d="M189.89997,122.8866c0,0 -5.56034,-2.0735 -7.00126,-6.26469c-2.3093,-6.71709 1.8412,-10.41187 1.8412,-10.41187l8.80449,2.63974l4.15088,10.00496z" data-paper-data="{&quot;index&quot;:null}" fill="url(#color-1)" stroke-width="0"/><path d="M184.79787,118.88678l2.54216,-0.90297" data-paper-data="{&quot;index&quot;:null}" fill="#585858" stroke-width="0"/></g><g data-paper-data="{&quot;index&quot;:null}"><g data-paper-data="{&quot;index&quot;:null}" fill="#000000" stroke-width="0.5"><g data-paper-data="{&quot;index&quot;:null}"><path d="M205.29918,95.99863l3.9756,-2.094l0.33093,3.09498l2.92891,-1.17558l-0.2423,3.11703l3.47029,0.52124l-1.2682,3.06578l3.06219,1.9981l-1.68769,3.16745l1.96366,2.27533l-2.85473,2.31261l2.18047,2.75602l-2.93467,1.21706" stroke-linecap="round"/><g data-paper-data="{&quot;index&quot;:null}"><path d="M196.94608,102.15068l18.26889,52.02586l-3.97107,3.40384l-18.05793,-52.93128c0,0 0.62953,-2.75987 1.25314,-3.18748c0.5348,-0.36673 2.0193,0.86356 2.0193,0.86356z" stroke-linecap="butt"/><path d="M202.3713,119.1783l-4.14695,-13.17439l6.43558,-9.79532c0,0 7.08257,0.20649 10.33303,8.66005c2.02818,5.2747 -1.70299,11.85777 -1.70299,11.85777z" stroke-linecap="round"/></g></g><path d="M213.50093,104.31786l-4.37032,1.91209" stroke-linecap="round"/><path d="M214.99466,108.63756l-3.22314,1.2019" stroke-linecap="round"/><path d="M211.21181,100.43252l-3.24845,1.4111" stroke-linecap="round"/></g><path d="M204.94919,98.5633l3.1179,-1.64227l0.25952,2.42724l2.29703,-0.92193l-0.19003,2.44453l2.72157,0.40877l-0.99463,2.40432l2.40157,1.56705l-1.32356,2.48411l1.53998,1.78445l-2.23887,1.81368l1.71009,2.16146l-2.30155,0.95447" fill="#343434" stroke-width="0" stroke-linecap="round"/><path d="M202.653,116.74212l-3.25225,-10.33206l5.04716,-7.68204c0,0 5.55448,0.16196 8.1037,6.7917c1.59062,4.13671 -1.33557,9.29948 -1.33557,9.29948z" fill="url(#color-2)" stroke-width="0" stroke-linecap="round"/><path d="M207.95395,106.58729l3.42746,-1.49957" fill="#343434" stroke-width="0" stroke-linecap="round"/><path d="M210.02512,109.41807l2.52774,-0.9426" fill="#585858" stroke-width="0" stroke-linecap="round"/><path d="M207.03856,103.14726l2.5476,-1.10664" fill="#343434" stroke-width="0" stroke-linecap="round"/><path d="M196.47979,103.07735l17.42017,50.75391l-2.3095,2.08658l-17.62099,-51.18332c0,0 0.31816,-2.13952 0.6983,-2.40022z" fill="#1f180f" stroke-width="0.5" stroke-linecap="butt"/></g></g><path d="M261.80459,171.05775c0,0 -3.11735,-5.97828 -4.91991,-8.75453c-1.59019,-2.44917 -5.33837,-7.04502 -5.33837,-7.04502l0.37369,-9.52069c0,0 7.15352,6.46202 10.00566,10.21368c2.64949,3.4851 6.54408,11.55555 6.54408,11.55555c0,0 -1.34205,2.25027 -2.45761,2.84461c-1.10605,0.58928 -4.20752,0.7064 -4.20752,0.7064z" data-paper-data="{&quot;index&quot;:null}" fill="url(#color-3)" stroke="#000000" stroke-width="1.5" stroke-linecap="butt"/><path d="M249.60303,132.67675c-0.06993,4.77011 -4.56155,8.57084 -10.03228,8.48917c-5.47074,-0.08167 -9.84898,-4.01483 -9.77904,-8.78492c0.06993,-4.77011 4.56156,-8.57084 10.03229,-8.48917c5.47075,0.08168 9.84897,4.01483 9.77903,8.78492z" fill="#505050" stroke="#000000" stroke-width="1.5" stroke-linecap="butt"/><path d="M223.35681,159.75004c-1.01274,-5.24814 -3.58893,-11.43792 -3.58893,-11.43792l39.57023,3.58992c0,0 -3.75064,4.69304 -5.75499,9.67978c-1.8181,4.52334 0.86945,16.1022 0.17587,20.38541c-0.1709,1.05541 -8.39645,3.66046 -15.74085,3.55484c-7.04274,-0.10128 -15.29276,-2.31128 -15.29276,-2.31128c0,0 1.76372,-17.59311 0.63144,-23.4607z" fill="url(#color-4)" stroke="#000000" stroke-width="1.5" stroke-linecap="butt"/><path d="M213.45643,144.11471c0,0 5.93883,5.83458 9.20138,5.18719c2.87818,-0.5711 8.00291,-2.20844 8.00291,-2.20844l5.30156,5.80364c0,0 -2.58086,2.06887 -4.37948,3.21979c-2.32657,1.48874 -7.78824,2.00638 -11.37233,0.54209c-3.58409,-1.46429 -12.69162,-8.20588 -12.62316,-8.60846c0.36497,-2.1464 5.86912,-3.9358 5.86912,-3.9358z" data-paper-data="{&quot;index&quot;:null}" fill="#505050" stroke="#000000" stroke-width="1.5" stroke-linecap="butt"/><path d="M244.60459,191.45996c-0.86375,0.11846 -1.77586,-0.82016 -2.71382,-4.46523c-0.28674,-1.11436 -0.80574,-4.2276 -1.0348,-5.42492c-0.29629,-1.54874 -0.10102,-3.18728 -0.24272,-4.59955c-0.31354,-3.12482 -0.71788,-5.45332 -0.71788,-5.45332c0,0 2.76793,-1.10891 4.99304,-1.41409c2.22511,-0.30518 5.13493,0.1709 5.13493,0.1709c0,0 -0.32856,1.87987 -0.27491,4.84112c0.02582,1.42524 0.40887,3.37274 0.45103,4.9672c0.04852,1.83592 -0.27986,2.4574 -0.17816,4.15154c0.11416,1.90162 0.65654,4.77366 0.65654,4.77366c0,0 -5.54835,2.38068 -6.07329,2.45268z" data-paper-data="{&quot;index&quot;:null}" fill="#060606" stroke="#000000" stroke-width="1.5" stroke-linecap="butt"/><path d="M225.01558,190.11985c-0.89913,-0.26058 -0.72437,-1.11263 -0.03833,-4.81353c0.20975,-1.13143 2.12561,-4.42293 2.42846,-5.60492c0.39176,-1.52889 -0.40384,-3.0656 0.07936,-4.40512c1.06913,-2.96374 1.69846,-5.24493 1.69846,-5.24493c0,0 3.20256,0.17451 5.51879,0.84578c2.31622,0.67128 4.95973,2.34175 4.95973,2.34175c0,0 -1.15029,1.56269 -2.40224,4.2676c-0.60253,1.30186 0.11135,3.32395 -0.54975,4.78605c-0.76117,1.68348 -1.02917,2.2998 -1.67577,3.87753c-0.72577,1.77093 -2.98322,4.31489 -2.98322,4.31489c0,0 -6.48909,-0.20675 -7.03549,-0.3651z" data-paper-data="{&quot;index&quot;:null}" fill="#060606" stroke="#000000" stroke-width="1.5" stroke-linecap="butt"/><path d="M228.59667,151.89875c-0.53892,-0.01311 -5.05801,-6.79422 -2.3297,-8.33812c4.75452,-2.69048 10.51067,-1.15138 12.81519,-1.11667c1.95896,0.0295 8.81505,-1.60319 13.14346,1.20161c1.87547,1.21529 -4.35676,8.33899 -4.41461,8.59673c-1.05283,4.69035 -0.03879,8.73944 0.28543,10.09172c0.09758,0.40703 0.36339,1.83576 0.73234,3.35794c0.32648,1.34701 1.0473,6.93755 1.04734,8.1641c0.00004,1.07984 -0.29734,3.02252 -0.29734,3.02252c0,0 -5.99669,0.99726 -11.1987,0.9792c-4.37388,-0.01519 -8.99454,-0.91682 -9.85252,-1.53214c-2.02005,-1.44872 0.82763,-10.50862 1.25181,-12.49031c0,0 0.64549,-11.89211 -1.18271,-11.93659z" fill="#505050" stroke="#000000" stroke-width="1.5" stroke-linecap="butt"/><path d="M230.09303,149.14921l3.83567,-1.19306c0,0 3.80429,5.74072 6.20068,8.41622c2.54701,2.84364 7.36712,7.08814 7.36712,7.08814l0.2197,3.35548c0,0 -7.96448,-5.30847 -10.59502,-8.20424c-2.67311,-2.94263 -7.02819,-9.46254 -7.02819,-9.46254z" fill="url(#color-5)" stroke="#000000" stroke-width="1.5" stroke-linecap="butt"/><path d="M229.76774,162.63118c0,0 6.86098,1.8063 9.52805,2.15209c2.83466,0.36753 9.84707,-0.21324 9.84707,-0.21324l0.63891,3.42894c0,0 -7.51195,0.27843 -10.41546,-0.074c-2.95051,-0.35815 -10.79271,-2.23329 -10.79271,-2.23329z" fill="url(#color-6)" stroke="#000000" stroke-width="1.5" stroke-linecap="butt"/><path d="M236.72692,165.86736c0.0989,-0.48777 0.11624,-1.21494 0.45319,-1.56038c0.64892,-0.66521 1.87747,-0.71682 2.90936,-0.54157c0.89085,0.15129 1.82667,0.52449 2.22858,1.19732c0.30539,0.51123 0.21105,1.25264 0.08613,1.86883c-0.15846,0.7815 -0.53249,1.6147 -1.23083,1.98627c-0.57692,0.30697 -1.42247,0.23614 -2.13173,0.11569c-0.81108,-0.13775 -1.69649,-0.43631 -2.1131,-1.0207c-0.38866,-0.54519 -0.34126,-1.35667 -0.2016,-2.04545z" fill="url(#color-7)" stroke="#000000" stroke-width="1.5" stroke-linecap="butt"/><path d="M251.82169,189.01116c3.59929,0.07705 4.15687,1.89143 4.10645,3.40267c-0.0504,1.51123 -2.36599,2.30452 -5.96527,2.22744c-3.59929,-0.07705 -7.16402,0.34479 -7.11362,-1.16641c0.02106,-0.63162 -0.52862,-2.81122 0.81452,-3.36313c0,0 6.06293,-1.14542 8.15793,-1.10056z" data-paper-data="{&quot;index&quot;:null}" fill="url(#color-8)" stroke="#000000" stroke-width="1.5" stroke-linecap="butt"/><path d="M232.95097,189.26513c3.57296,0.38698 3.94779,2.24332 3.74782,3.74513c-0.19996,1.5018 -2.58216,2.09282 -6.1551,1.70581c-3.57296,-0.38698 -7.161,-0.27381 -6.96106,-1.77559c0.08359,-0.62768 -0.24718,-2.84731 1.14368,-3.2816c0,0 6.145,-0.61899 8.22468,-0.39373z" data-paper-data="{&quot;index&quot;:null}" fill="url(#color-9)" stroke="#000000" stroke-width="1.5" stroke-linecap="butt"/><path d="M220.02425,148.36647c-0.10366,-0.19378 0.38114,-3.02111 2.81515,-4.78187c1.97616,-1.42955 6.71271,-2.21901 10.99658,-1.72942c2.08617,0.23842 4.35098,1.76046 5.5869,1.77303c4.49614,0.04573 7.58173,-1.64694 7.60624,-1.64436c0.36106,0.0383 6.14972,-0.71692 7.72416,0.917c0.67618,0.70172 2.78049,2.61459 3.13602,2.93218c0.86817,0.7754 4.73926,6.58718 4.09176,8.32117c-0.67422,1.80557 -3.88953,1.07374 -4.27012,3.74118c-0.38058,2.66744 0.90971,6.09127 -0.58904,6.58642c-1.50034,0.49568 -2.08671,1.20684 -4.25392,0.62121c-1.87789,-0.50746 -4.76205,-3.42777 -6.22597,-4.32973c-4.53697,-2.79537 -6.69193,-5.57248 -9.10921,-6.41253c-2.36662,-0.82243 -4.62472,-0.84555 -7.65362,-1.03588c-1.36522,-0.08579 -0.70874,1.67839 -1.25162,2.77997c-0.66158,1.34242 -2.4627,2.04732 -3.79991,1.58153c0,0 0.80523,-3.92126 -0.62818,-5.78901c-1.34858,-1.75724 -4.17526,-3.53089 -4.17526,-3.53089z" data-paper-data="{&quot;index&quot;:null}" fill="url(#color-10)" stroke="#000000" stroke-width="1.5" stroke-linecap="butt"/><path d="M243.3372,134.27993c0.12908,-1.08313 1.19873,-1.84621 2.38912,-1.70437c1.19038,0.14185 2.05076,1.13492 1.92168,2.21806c-0.12908,1.08313 -1.19871,1.84623 -2.3891,1.70438c-1.19038,-0.14185 -2.05078,-1.13493 -1.9217,-2.21807z" fill="#000000" stroke="#000000" stroke-width="0" stroke-linecap="butt"/><path d="M235.44561,134.68152c0.01652,-1.11606 1.02423,-2.0061 2.2508,-1.98795c1.22656,0.01814 2.2075,0.93762 2.19098,2.05368c-0.01652,1.11606 -1.02424,2.00611 -2.25078,1.98796c-1.22656,-0.01814 -2.20752,-0.93762 -2.191,-2.05368z" fill="#000000" stroke="#000000" stroke-width="0" stroke-linecap="butt"/><g stroke-width="0.875"><path d="M227.69025,129.65478c0.10049,-6.79259 5.81118,-12.2158 12.75514,-12.11308c6.94399,0.10273 12.70177,5.69559 12.60129,12.48821c0,0 -2.65907,2.97094 -8.10631,3.58458c-7.04674,0.79383 -17.29418,-0.98382 -17.25016,-3.9597z" fill="url(#color-11)" stroke="#000000" stroke-linecap="butt"/><path d="M252.93333,129.71839c0.1002,0.46624 -0.5599,2.04038 -0.5599,2.04038c0,0 -2.75055,2.54551 -12.03754,2.30953c-9.9039,-0.25167 -12.56324,-3.61015 -12.56324,-3.61015c0,0 -0.39606,-1.07825 -0.28461,-1.45963c0.13054,-0.44663 0.4228,-1.29838 0.4228,-1.29838c0,0 7.84843,3.02676 12.7868,3.07663c4.93837,0.04988 12.04154,-2.5268 12.04154,-2.5268c0,0 0.09811,1.02138 0.19416,1.46842z" fill="#0e0e0e" stroke="#000000" stroke-linecap="round"/><path d="M232.23622,119.96531c0,0 1.43277,-0.88339 2.05069,-1.21536c0.63077,-0.33889 1.60004,-0.62869 1.60004,-0.62869c0,0 5.37169,1.31707 7.72935,3.51129c2.35769,2.19422 4.51954,7.73008 4.51954,7.73008c0,0 -1.54634,0.49196 -2.06728,0.63679c-0.66642,0.18527 -1.94552,0.3204 -1.94552,0.3204c0,0 -1.19733,-4.96304 -3.66764,-7.1478c-2.47029,-2.18473 -8.21919,-3.2067 -8.21919,-3.2067z" fill="#0e0e0e" stroke="#000000" stroke-linecap="round"/><path d="M232.19656,124.38731c-0.91743,0.53821 -2.60442,0.25617 -2.60442,0.25617c0,0 -1.7439,-3.86198 -2.17864,-5.90793c-0.42948,-2.02116 -0.41422,-6.29442 -0.41422,-6.29442c0,0 2.2247,4.38535 3.38523,6.08363c1.06221,1.55439 3.30904,3.71261 3.30904,3.71261c0,0 -0.57956,1.61169 -1.49698,2.14992z" fill="#0e0e0e" stroke="#000000" stroke-linecap="butt"/><path d="M245.13346,118.91749c0,0 1.36478,-0.9487 1.79716,-2.43317c0.47239,-1.62188 1.03745,-5.63292 1.03745,-5.63292c0,0 1.30102,3.40775 1.54599,5.11971c0.24797,1.73294 -0.06702,5.21592 -0.06702,5.21592c0,0 -1.47917,0.37596 -2.41952,0.15676c-0.94035,-0.21922 -1.89405,-2.42626 -1.89405,-2.42626z" data-paper-data="{&quot;index&quot;:null}" fill="#0e0e0e" stroke="#000000" stroke-linecap="butt"/><path d="M246.30551,131.6944c0.00765,-0.5172 0.47461,-0.92964 1.04303,-0.92123c0.5684,0.0084 1.02298,0.43449 1.01533,0.95168c-0.00765,0.5172 -0.4746,0.92965 -1.04303,0.92124c-0.5684,-0.0084 -1.02298,-0.43448 -1.01532,-0.95169z" fill="#000000" stroke="none" stroke-linecap="butt"/><path d="M249.53537,130.683c0.00765,-0.5172 0.4746,-0.92965 1.04302,-0.92124c0.5684,0.0084 1.02298,0.4345 1.01533,0.95169c-0.00765,0.51719 -0.47461,0.92964 -1.04304,0.92122c-0.5684,-0.0084 -1.02297,-0.43448 -1.01532,-0.95168z" fill="#000000" stroke="none" stroke-linecap="butt"/><path d="M243.20847,132.28985c0.00765,-0.5172 0.47461,-0.92964 1.04303,-0.92123c0.5684,0.0084 1.02298,0.43448 1.01533,0.95168c-0.00765,0.5172 -0.47461,0.92965 -1.04303,0.92124c-0.5684,-0.0084 -1.02298,-0.43449 -1.01532,-0.95169z" fill="#000000" stroke="none" stroke-linecap="butt"/><path d="M239.56246,132.5241c0.00765,-0.5172 0.47461,-0.92965 1.04303,-0.92124c0.5684,0.0084 1.02299,0.43448 1.01533,0.95169c-0.00765,0.5172 -0.47461,0.92965 -1.04304,0.92123c-0.5684,-0.0084 -1.02298,-0.43448 -1.01532,-0.95169z" fill="#000000" stroke="none" stroke-linecap="butt"/><path d="M235.98042,132.18293c0.00765,-0.5172 0.47461,-0.92964 1.04304,-0.92122c0.5684,0.0084 1.02298,0.43448 1.01533,0.95168c-0.00765,0.5172 -0.47461,0.92965 -1.04303,0.92124c-0.5684,-0.0084 -1.02299,-0.43449 -1.01533,-0.95169z" fill="#000000" stroke="none" stroke-linecap="butt"/><path d="M232.24022,131.29176c0.00765,-0.5172 0.4746,-0.92964 1.04302,-0.92123c0.5684,0.0084 1.02299,0.43448 1.01534,0.95168c-0.00765,0.5172 -0.47461,0.92965 -1.04304,0.92123c-0.5684,-0.0084 -1.02297,-0.43447 -1.01531,-0.95169z" fill="#000000" stroke="none" stroke-linecap="butt"/><path d="M228.98772,130.08361c0.00765,-0.5172 0.47461,-0.92964 1.04303,-0.92123c0.5684,0.0084 1.02298,0.43449 1.01533,0.95168c-0.00765,0.5172 -0.4746,0.92965 -1.04303,0.92124c-0.5684,-0.0084 -1.02298,-0.43449 -1.01532,-0.95169z" fill="#000000" stroke="none" stroke-linecap="butt"/><path d="M244.60844,127.98384c0.00765,-0.5172 0.47461,-0.92964 1.04303,-0.92123c0.5684,0.0084 1.02298,0.43449 1.01533,0.95168c-0.00765,0.5172 -0.4746,0.92965 -1.04303,0.92124c-0.5684,-0.0084 -1.02298,-0.43449 -1.01532,-0.95169z" fill="#000000" stroke="none" stroke-linecap="butt"/><path d="M242.96416,124.98379c0.00765,-0.5172 0.4746,-0.92965 1.04303,-0.92124c0.5684,0.0084 1.02297,0.4345 1.01532,0.95169c-0.00765,0.5172 -0.47462,0.92964 -1.04303,0.92123c-0.5684,-0.0084 -1.02298,-0.43449 -1.01533,-0.95168z" fill="#000000" stroke="none" stroke-linecap="butt"/><path d="M240.70739,122.03953c0.00765,-0.5172 0.4746,-0.92964 1.04303,-0.92123c0.5684,0.0084 1.02298,0.43449 1.01533,0.95168c-0.00765,0.5172 -0.47461,0.92965 -1.04303,0.92124c-0.5684,-0.0084 -1.02298,-0.43449 -1.01532,-0.95169z" fill="#000000" stroke="none" stroke-linecap="butt"/><path d="M236.57549,120.06005c0.00765,-0.5172 0.47462,-0.92965 1.04303,-0.92124c0.5684,0.0084 1.02299,0.43449 1.01533,0.95169c-0.00765,0.5172 -0.47461,0.92965 -1.04304,0.92123c-0.5684,-0.0084 -1.02297,-0.4345 -1.01532,-0.95169z" fill="#000000" stroke="none" stroke-linecap="butt"/></g><path d="M260.36457,167.22176c0.12557,-1.98613 2.04428,-3.48133 4.28559,-3.33963c2.2413,0.1417 3.95644,1.86664 3.83087,3.85277c-0.12557,1.98613 -2.04429,3.48133 -4.28558,3.33964c-2.2413,-0.1417 -3.95645,-1.86664 -3.83088,-3.85277z" fill="#000000" stroke="#000000" stroke-width="1.5" stroke-linecap="butt"/><g stroke="#000000" stroke-width="1.5"><g fill="#000000" stroke-linecap="round"><path d="M255.00466,163.04541l18.06819,-0.56607c0,0 0.75584,7.65101 -1.54587,12.35093c-2.52727,5.16054 -7.03232,5.25965 -7.03232,5.25965l-1.09079,-34.81626c0,0 -3.55109,0.73139 -6.30217,5.46037c-2.67255,4.594 -2.09706,12.31137 -2.09706,12.31137z"/><path d="M270.33443,150.4862c-3.04171,-4.54749 -6.63162,-5.05514 -6.63162,-5.05514l1.09078,34.81625c0,0 -4.50241,0.18308 -7.34777,-4.80913c-2.59139,-4.54662 -2.31598,-12.22994 -2.31598,-12.22994l18.06819,-0.56607c0,0 0.09129,-7.73826 -2.86361,-12.15596z" data-paper-data="{&quot;index&quot;:null}"/></g><g stroke-linecap="round"><path d="M256.58074,163.12109l17.34811,-0.54351c0,0 0.7353,7.65166 -1.4689,12.34852c-2.42021,5.15719 -6.74577,5.25067 -6.74577,5.25067l-1.09078,-34.81625c0,0 -3.40879,0.72692 -6.04444,5.45228c-2.56042,4.59049 -1.99821,12.30828 -1.99821,12.30828z" fill="url(#color-12)"/><path d="M268.87782,166.57103l-1.52462,3.29936" fill="none"/><path d="M261.84289,159.20439l1.36825,-2.96097" fill="none"/><path d="M267.57752,174.36558l3.71381,-8.0369" fill="none"/><path d="M262.32479,151.93573l-3.04922,6.59872" fill="none"/><path d="M271.28449,150.58149c-2.92628,-4.55111 -6.37389,-5.06322 -6.37389,-5.06322l1.09078,34.81625c0,0 -4.32292,0.17746 -7.06122,-4.81811c-2.49389,-4.54968 -2.23902,-12.23236 -2.23902,-12.23236l17.34811,-0.54351c0,0 0.07799,-7.73785 -2.76477,-12.15906z" data-paper-data="{&quot;index&quot;:null}" fill="url(#color-13)"/><path d="M263.64223,170.32015l-1.72816,-3.19745" data-paper-data="{&quot;index&quot;:null}" fill="none"/><path d="M266.92314,156.46063l1.55092,2.86951" data-paper-data="{&quot;index&quot;:null}" fill="none"/><path d="M263.69975,174.82057l-4.20962,-7.78866" data-paper-data="{&quot;index&quot;:null}" fill="none"/><path d="M270.99441,158.50079l-3.45631,-6.3949" data-paper-data="{&quot;index&quot;:null}" fill="none"/></g><path d="M267.96446,163.20216c0.05296,1.69054 -0.77068,3.08815 -1.83968,3.12164c-1.069,0.03349 -1.97852,-1.30982 -2.03148,-3.00036c-0.05296,-1.69054 0.77068,-3.08815 1.83968,-3.12164c1.069,-0.03349 1.97852,1.30982 2.03148,3.00036z" fill="url(#color-14)" stroke-linecap="butt"/><path d="M265.42096,163.28184c-0.05513,-1.75955 0.61433,-3.20831 1.49529,-3.23591c0.88095,-0.0276 1.6398,1.37642 1.69492,3.13596c0.05513,1.75955 -0.61433,3.20831 -1.49529,3.23591c-0.88095,0.0276 -1.6398,-1.37642 -1.69492,-3.13596z" fill="url(#color-15)" stroke-linecap="butt"/></g><path d="M206.23246,148.27113c-2.0228,-1.08644 -2.66869,-3.81766 -1.44268,-6.10033c1.22603,-2.28268 3.85972,-3.25243 5.88251,-2.16599c2.0228,1.08644 2.66871,3.81764 1.44268,6.10033c-1.22603,2.28268 -3.85972,3.25243 -5.88251,2.16599z" fill="#000000" stroke="#000000" stroke-width="1.5" stroke-linecap="butt"/><path d="M233.1112,142.97984l0.04512,-2.96397c0,0 3.82113,1.27345 5.79102,1.2824c2.19424,0.00999 6.77408,-1.22525 6.77408,-1.22525l-0.04699,3.08745c0,0 -3.901,0.9321 -5.89457,0.90343c-2.17787,-0.03132 -6.66869,-1.08409 -6.66869,-1.08409z" fill="url(#color-16)" stroke="#000000" stroke-width="1" stroke-linecap="butt"/></g></g></svg>