<svg version="1.1" xmlns="http://www.w3.org/2000/svg" xmlns:xlink="http://www.w3.org/1999/xlink" width="518.38925" height="59.42097" viewBox="0,0,518.38925,59.42097"><g transform="translate(19.36887,-231.39588)"><g data-paper-data="{&quot;isPaintingLayer&quot;:true}" fill-rule="nonzero" stroke-linejoin="miter" stroke-miterlimit="10" stroke-dasharray="" stroke-dashoffset="0" style="mix-blend-mode: normal"><path d="M-19.36887,290.26248v-58.00001h39.99721v58.00001z" fill="#000000" stroke="none" stroke-width="2.5" stroke-linecap="butt"/><path d="M-13.37219,287.93039v-53.6h27.98902v53.6z" fill="#282828" stroke="none" stroke-width="2.5" stroke-linecap="butt"/><path d="M-5.63325,288.81685v-55h12.76117v55z" fill="#ff0000" stroke="#000000" stroke-width="2.5" stroke-linecap="butt"/><path d="M15.39174,236.35008l-15.34882,4.5l-13.99451,-4.5" fill="none" stroke="#000000" stroke-width="2.5" stroke-linecap="round"/><path d="M15.39174,243.60008l-15.34882,4.5l-13.99451,-4.5" fill="none" stroke="#000000" stroke-width="2.5" stroke-linecap="round"/><path d="M15.39174,251.10008l-15.34882,4.5l-13.99451,-4.5" fill="none" stroke="#000000" stroke-width="2.5" stroke-linecap="round"/><path d="M15.39174,258.85006l-15.34882,4.5l-13.99451,-4.5" fill="none" stroke="#000000" stroke-width="2.5" stroke-linecap="round"/><path d="M15.39174,266.10006l-15.34882,4.5l-13.99451,-4.5" fill="none" stroke="#000000" stroke-width="2.5" stroke-linecap="round"/><path d="M15.39174,273.35006l-15.34882,4.5l-13.99451,-4.5" fill="none" stroke="#000000" stroke-width="2.5" stroke-linecap="round"/><path d="M16.29462,280.35006l-15.34882,4.5l-13.99451,-4.5" fill="none" stroke="#000000" stroke-width="2.5" stroke-linecap="round"/><path d="M459.5262,290.75953l-0.22249,-59.36364h39.71667v59.36364z" fill="#000000" stroke="none" stroke-width="1.5" stroke-linecap="butt"/><path d="M465.64501,288.20311v-53.13636h25.86589v53.13636z" fill="#282828" stroke="none" stroke-width="1.5" stroke-linecap="butt"/><path d="M472.8964,289.56685v-56h11.96066v56z" fill="#ff0000" stroke="#000000" stroke-width="2.5" stroke-linecap="butt"/><path d="M465.97109,286.14252l12.93295,-4.5l14.18452,4.5" data-paper-data="{&quot;index&quot;:null}" fill="none" stroke="#000000" stroke-width="2.5" stroke-linecap="round"/><path d="M465.97109,278.64252l12.93295,-4.5l14.18452,4.5" data-paper-data="{&quot;index&quot;:null}" fill="none" stroke="#000000" stroke-width="2.5" stroke-linecap="round"/><path d="M465.97109,271.64252l12.93295,-4.5l14.18452,4.5" data-paper-data="{&quot;index&quot;:null}" fill="none" stroke="#000000" stroke-width="2.5" stroke-linecap="round"/><path d="M465.5539,263.39252l12.93295,-4.5l14.18452,4.5" data-paper-data="{&quot;index&quot;:null}" fill="none" stroke="#000000" stroke-width="2.5" stroke-linecap="round"/><path d="M466.22139,256.34256l12.93295,-4.5l14.18452,4.5" data-paper-data="{&quot;index&quot;:null}" fill="none" stroke="#000000" stroke-width="2.5" stroke-linecap="round"/><path d="M466.22139,248.89255l12.93295,-4.5l14.18452,4.5" data-paper-data="{&quot;index&quot;:null}" fill="none" stroke="#000000" stroke-width="2.5" stroke-linecap="round"/><path d="M465.5539,242.19258l12.93295,-4.5l14.18452,4.5" data-paper-data="{&quot;index&quot;:null}" fill="none" stroke="#000000" stroke-width="2.5" stroke-linecap="round"/></g></g></svg>