<svg version="1.1" xmlns="http://www.w3.org/2000/svg" xmlns:xlink="http://www.w3.org/1999/xlink" width="12.7704" height="27.47047" viewBox="0,0,12.7704,27.47047"><g transform="translate(-228.217,-162.61207)"><g data-paper-data="{&quot;isPaintingLayer&quot;:true}" fill-rule="nonzero" stroke="#000000" stroke-width="0.75" stroke-linejoin="miter" stroke-miterlimit="10" stroke-dasharray="" stroke-dashoffset="0" style="mix-blend-mode: normal"><path d="M233.91261,170.10627c0,0 -0.60011,0.59526 -0.95254,0.75448c-0.34941,0.15787 -1.34917,0.22159 -1.34917,0.22159" fill="none" stroke-linecap="round"/><path d="M231.26771,164.06029l2.3305,5.70801l-1.91151,0.67027l-2.33051,-5.70801c0,0 0.47027,-0.78633 0.80967,-0.90535c0.28998,-0.10168 1.10184,0.23507 1.10184,0.23507z" fill="#3f2711" stroke-linecap="butt"/><path d="M234.64509,169.7238l5.22851,13.9454l0.60228,5.24572l-3.6508,-4.2346l-5.87474,-13.72314z" fill="#d9d9d9" stroke-linecap="butt"/><path d="M236.48478,168.28968c0.14781,0.36204 -1.79871,1.95889 -1.79871,1.95889c0,0 -2.01158,1.01576 -3.51961,1.23412c-1.50804,0.21836 -2.45745,-0.06509 -2.57446,-0.35169c-0.12348,-0.30241 0.43763,-1.18647 0.43763,-1.18647c0,0 2.40257,-0.09832 3.36618,-0.4362c1.01364,-0.35542 2.57321,-1.64638 2.57321,-1.64638c0,0 1.39829,0.14002 1.51576,0.42773z" fill="#3c3c3c" stroke-linecap="butt"/><path d="M230.91073,162.99919c0,0 0.30431,0.25756 0.37196,0.42326c0.07131,0.17467 0.04552,0.59925 0.04552,0.59925c0,0 -0.60946,0.31423 -0.94511,0.43192c-0.32193,0.11286 -1.02933,0.2604 -1.02933,0.2604c0,0 -0.32263,-0.30242 -0.39395,-0.47707c-0.06765,-0.1657 -0.02354,-0.54545 -0.02354,-0.54545c0,0 0.62667,-0.40429 0.97937,-0.52795c0.29512,-0.10348 0.99508,-0.16436 0.99508,-0.16436z" fill="#1b1b1b" stroke-linecap="butt"/><path d="M233.56634,170.76186l4.83896,12.0594l0.45241,2.36637l-1.36444,-1.92772l-5.00841,-12.0594z" fill="#3c3c3c" stroke-linecap="butt"/><path d="M234.28234,170.41323l-0.88086,1.41102l-1.68589,-0.56063l0.88086,-1.41102z" fill="#1b1b1b" stroke-linecap="butt"/></g></g></svg>