<svg version="1.1" xmlns="http://www.w3.org/2000/svg" xmlns:xlink="http://www.w3.org/1999/xlink" width="110.2433" height="79.5843" viewBox="0,0,110.2433,79.5843"><defs><linearGradient x1="323.06761" y1="166.65229" x2="336.42082" y2="163.6055" gradientUnits="userSpaceOnUse" id="color-1"><stop offset="0" stop-color="#323232"/><stop offset="1" stop-color="#1f1f1f"/></linearGradient><linearGradient x1="309.57512" y1="148.73345" x2="328.9262" y2="146.96963" gradientUnits="userSpaceOnUse" id="color-2"><stop offset="0" stop-color="#323232"/><stop offset="1" stop-color="#1f1f1f"/></linearGradient><linearGradient x1="317.82676" y1="154.36413" x2="329.59826" y2="154.23035" gradientUnits="userSpaceOnUse" id="color-3"><stop offset="0" stop-color="#323232"/><stop offset="1" stop-color="#1f1f1f"/></linearGradient><linearGradient x1="307.67422" y1="179.58639" x2="319.53788" y2="177.74285" gradientUnits="userSpaceOnUse" id="color-4"><stop offset="0" stop-color="#323232"/><stop offset="1" stop-color="#1f1f1f"/></linearGradient><linearGradient x1="286.48278" y1="174.46953" x2="300.18778" y2="177.60065" gradientUnits="userSpaceOnUse" id="color-5"><stop offset="0" stop-color="#323232"/><stop offset="1" stop-color="#1f1f1f"/></linearGradient><linearGradient x1="289.46286" y1="161.39837" x2="314.86591" y2="167.84861" gradientUnits="userSpaceOnUse" id="color-6"><stop offset="0" stop-color="#323232"/><stop offset="1" stop-color="#1f1f1f"/></linearGradient><linearGradient x1="290.28961" y1="155.4881" x2="314.12233" y2="158.51024" gradientUnits="userSpaceOnUse" id="color-7"><stop offset="0" stop-color="#323232"/><stop offset="1" stop-color="#1f1f1f"/></linearGradient><linearGradient x1="291.19611" y1="149.57594" x2="315.12944" y2="154.15764" gradientUnits="userSpaceOnUse" id="color-8"><stop offset="0" stop-color="#323232"/><stop offset="1" stop-color="#1f1f1f"/></linearGradient><linearGradient x1="305.40961" y1="140.0925" x2="303.07692" y2="150.13172" gradientUnits="userSpaceOnUse" id="color-9"><stop offset="0" stop-color="#323232"/><stop offset="1" stop-color="#252525"/></linearGradient><linearGradient x1="305.76174" y1="137.24116" x2="304.2331" y2="143.81998" gradientUnits="userSpaceOnUse" id="color-10"><stop offset="0" stop-color="#323232"/><stop offset="1" stop-color="#252525"/></linearGradient><linearGradient x1="286.04508" y1="150.39125" x2="300.4797" y2="140.69143" gradientUnits="userSpaceOnUse" id="color-11"><stop offset="0" stop-color="#323232"/><stop offset="1" stop-color="#1f1f1f"/></linearGradient><linearGradient x1="308.43728" y1="126.45986" x2="315.30677" y2="128.05603" gradientUnits="userSpaceOnUse" id="color-12"><stop offset="0" stop-color="#323232"/><stop offset="1" stop-color="#1f1f1f"/></linearGradient><linearGradient x1="309.71527" y1="137.53346" x2="312.90585" y2="138.27481" gradientUnits="userSpaceOnUse" id="color-13"><stop offset="0" stop-color="#323232"/><stop offset="1" stop-color="#1f1f1f"/></linearGradient><linearGradient x1="299.443" y1="127.14106" x2="312.176" y2="130.09967" gradientUnits="userSpaceOnUse" id="color-14"><stop offset="0" stop-color="#323232"/><stop offset="1" stop-color="#1f1f1f"/></linearGradient><radialGradient cx="312.25687" cy="133.02402" r="3.81401" gradientUnits="userSpaceOnUse" id="color-15"><stop offset="0" stop-color="#005dff"/><stop offset="1" stop-color="#005dff" stop-opacity="0"/></radialGradient><radialGradient cx="308.45059" cy="131.45568" r="4.00151" gradientUnits="userSpaceOnUse" id="color-16"><stop offset="0" stop-color="#005dff"/><stop offset="1" stop-color="#005dff" stop-opacity="0"/></radialGradient><linearGradient x1="309.12451" y1="177.8216" x2="318.2247" y2="174.26605" gradientUnits="userSpaceOnUse" id="color-17"><stop offset="0" stop-color="#323232"/><stop offset="1" stop-color="#1f1f1f"/></linearGradient><linearGradient x1="286.81014" y1="174.09089" x2="297.90169" y2="177.86913" gradientUnits="userSpaceOnUse" id="color-18"><stop offset="0" stop-color="#323232"/><stop offset="1" stop-color="#1f1f1f"/></linearGradient><linearGradient x1="311.60537" y1="190.186" x2="325.34031" y2="186.30408" gradientUnits="userSpaceOnUse" id="color-19"><stop offset="0" stop-color="#323232"/><stop offset="1" stop-color="#1f1f1f"/></linearGradient><linearGradient x1="282.19575" y1="187.72172" x2="297.00395" y2="190.63189" gradientUnits="userSpaceOnUse" id="color-20"><stop offset="0" stop-color="#323232"/><stop offset="1" stop-color="#1f1f1f"/></linearGradient><linearGradient x1="354.82601" y1="160.3748" x2="354.26388" y2="172.74835" gradientUnits="userSpaceOnUse" id="color-21"><stop offset="0" stop-color="#ffffff"/><stop offset="1" stop-color="#a9a9a9"/></linearGradient><linearGradient x1="316.08797" y1="166.58248" x2="315.9299" y2="170.063" gradientUnits="userSpaceOnUse" id="color-22"><stop offset="0" stop-color="#414141"/><stop offset="1" stop-color="#282828"/></linearGradient><linearGradient x1="373.79869" y1="165.52788" x2="328.56989" y2="167.76307" gradientUnits="userSpaceOnUse" id="color-23"><stop offset="0" stop-color="#1a1a1a"/><stop offset="1" stop-color="#0f0f0f"/></linearGradient><linearGradient x1="332.02277" y1="169.86662" x2="329.29954" y2="165.2899" gradientUnits="userSpaceOnUse" id="color-24"><stop offset="0" stop-color="#0046ff"/><stop offset="1" stop-color="#001cad"/></linearGradient><linearGradient x1="300.44444" y1="166.99766" x2="305.41722" y2="160.45276" gradientUnits="userSpaceOnUse" id="color-25"><stop offset="0" stop-color="#323232"/><stop offset="1" stop-color="#1f1f1f"/></linearGradient><linearGradient x1="298.05472" y1="163.47904" x2="305.12796" y2="157.51872" gradientUnits="userSpaceOnUse" id="color-26"><stop offset="0" stop-color="#323232"/><stop offset="1" stop-color="#1f1f1f"/></linearGradient><linearGradient x1="336.99131" y1="187.39486" x2="345.66206" y2="176.53133" gradientUnits="userSpaceOnUse" id="color-27"><stop offset="0" stop-color="#323232"/><stop offset="1" stop-color="#1f1f1f"/></linearGradient><linearGradient x1="290.3891" y1="156.22391" x2="298.99197" y2="150.44294" gradientUnits="userSpaceOnUse" id="color-28"><stop offset="0" stop-color="#323232"/><stop offset="1" stop-color="#1f1f1f"/></linearGradient></defs><g transform="translate(-280.52609,-117.07025)"><g data-paper-data="{&quot;isPaintingLayer&quot;:true}" fill-rule="nonzero" stroke-linejoin="miter" stroke-miterlimit="10" stroke-dasharray="" stroke-dashoffset="0" style="mix-blend-mode: normal"><g fill="#ffffff" stroke="#ffffff" stroke-width="5" stroke-linecap="butt"><path d="M328.83724,161.30567l48.37944,-2.22943l8.99696,5.86653l-9.86576,6.51917l-48.11362,2.21716z"/><path d="M328.27193,165.62495l-0.16959,3.48048l-22.96694,1.05837c0,0 -1.00589,-1.12894 -0.9757,-1.74849c0.02556,-0.5248 1.14528,-1.73201 1.14528,-1.73201z"/><path d="M329.70588,165.25091l45.20197,-2.08299l3.05513,2.00154l-3.33141,2.22196l-45.13137,2.07976z"/><path d="M328.09925,158.2611l1.88156,0.77966l-0.22214,4.55864l3.81278,3.39805l-4.16715,3.87404l-0.25916,5.3184l-1.98732,1.39113l-1.86709,-1.21352c0,0 0.10802,-3.4533 0.21743,-6.5046c0.03417,-0.95308 -2.30622,-2.2366 -2.30622,-2.2366c0,0 2.46221,-1.64338 2.47949,-1.99801c0.12365,-2.53734 0.44495,-6.40993 0.44495,-6.40993z"/><path d="M331.99436,163.99191l3.7445,3.0049l-4.05487,3.36433l-3.74448,-3.00488z"/><path d="M304.73914,165.61742c1.86659,-0.08603 3.31951,1.07994 3.24521,2.60423c-0.07427,1.52431 -1.64762,2.82972 -3.51422,2.91575c-1.86659,0.08603 -1.64863,-1.15692 -1.57436,-2.68123c0.07427,-1.52431 -0.02323,-2.75272 1.84333,-2.83874z"/></g><path d="M329.15281,174.51917l-9.76817,-16.03465l9.17279,-4.26538l9.1888,15.19532l-2.91087,5.71985z" fill="url(#color-1)" stroke="#000000" stroke-width="1.5" stroke-linecap="butt"/><path d="M313.85503,153.7607c-0.10934,-1.35024 -0.4069,-5.02439 -0.4069,-5.02439l-4.30083,-4.69653l4.07253,-1.70943l8.29771,-2.632l7.19404,4.91713l-0.26259,7.69048c0,0 -8.58404,2.42825 -11.09101,3.08008c-1.16594,0.30315 -3.4291,-0.71346 -3.50296,-1.62532z" data-paper-data="{&quot;index&quot;:null}" fill="url(#color-2)" stroke="#000000" stroke-width="1.5" stroke-linecap="butt"/><path d="M328.60338,146.19725l-14.74512,1.4116" fill="none" stroke="#000000" stroke-width="1.5" stroke-linecap="round"/><path d="M318.93566,158.18009l-1.09253,-2.3767l0.15826,-2.56649c0,0 0.34154,0.03284 0.90855,-0.12467c1.58173,-0.43939 9.23814,-2.69399 9.23814,-2.69399l1.43097,2.12503l-0.49671,2.81817z" fill="url(#color-3)" stroke="#000000" stroke-width="1.5" stroke-linecap="butt"/><path d="M303.48008,132.67866l2.08107,-6.3783l9.36023,3.70414l-2.08108,6.3783z" fill="#0c0c0c" stroke="none" stroke-width="0" stroke-linecap="butt"/><path d="M311.9373,186.57689c-0.60257,-2.5004 -1.82405,-4.63555 -2.21398,-6.76202c-0.61087,-3.33127 -5.41091,-14.29498 -5.41091,-14.29498l10.04988,-1.56166c0,0 3.29492,7.02585 4.04205,10.46501c0.1759,0.80972 2.01347,4.66425 2.42401,7.50296c0.5107,3.53115 -0.41026,6.07601 -0.41026,6.07601c0,0 -2.74189,0.81746 -4.1348,0.58337c-1.43291,-0.24079 -4.34602,-2.00863 -4.34602,-2.00863z" fill="url(#color-4)" stroke="#000000" stroke-width="1.5" stroke-linecap="butt"/><path d="M283.96259,185.93394c0,0 1.17446,-2.79888 1.96487,-6.39811c0.4678,-2.13019 0.42878,-4.83676 0.94354,-6.60523c0.8064,-2.77047 1.01376,-2.77049 1.40356,-4.33809c0.60632,-2.4384 1.48112,-5.95662 1.48112,-5.95662l13.39233,3.05969c0,0 -3.68413,6.61352 -3.74218,6.84696c-0.38113,1.53276 -2.84701,6.48665 -3.24956,8.02512c-1.01038,3.86146 -4.22241,7.1874 -4.22241,7.1874c0,0 -0.94031,0.32631 -2.62276,-0.05807c-1.64822,-0.37657 -5.34846,-1.76309 -5.34846,-1.76309z" fill="url(#color-5)" stroke="#000000" stroke-width="1.5" stroke-linecap="butt"/><path d="M289.32683,161.93406l4.8048,-7.6037l19.46909,5.99709l1.01562,8.50399l-13.73565,3.71961z" fill="url(#color-6)" stroke="#000000" stroke-width="1.5" stroke-linecap="butt"/><path d="M290.21297,156.09247l3.57935,-9.28285l17.81178,3.28799l2.13919,11.40176l-11.23194,4.66116z" fill="url(#color-7)" stroke="#000000" stroke-width="1.5" stroke-linecap="butt"/><path d="M291.22029,149.44953l3.62186,-7.14622l18.45377,4.46877l1.35711,9.87424l-11.40138,3.2081z" fill="url(#color-8)" stroke="#000000" stroke-width="1.5" stroke-linecap="butt"/><path d="M294.95568,142.95407l3.24954,-4.53558l15.64943,4.3082l-0.57737,5.63468l-6.08324,2.727z" fill="url(#color-9)" stroke="#000000" stroke-width="1.5" stroke-linecap="butt"/><path d="M298.91119,139.11638l2.12945,-2.97221l10.25523,2.82321l-0.37836,3.69246l-3.98642,1.78704z" fill="url(#color-10)" stroke="#000000" stroke-width="1.5" stroke-linecap="butt"/><path d="M289.38908,153.8278l-4.52405,-5.19262l2.92088,-7.94718l5.42797,-2.53825l4.91306,-0.95952l-0.94919,6.07147l1.9953,6.84114z" fill="url(#color-11)" stroke="#000000" stroke-width="1.5" stroke-linecap="butt"/><path d="M296.62244,143.29148l-11.09617,5.26655" fill="none" stroke="#000000" stroke-width="1.5" stroke-linecap="round"/><path d="M306.13307,130.7432c0.3055,-1.31477 1.51161,-2.1579 2.69397,-1.88317c1.18234,0.27473 1.89316,1.56327 1.58766,2.87803c-0.3055,1.31478 -1.51164,2.1579 -2.69398,1.88318c-1.18234,-0.27473 -1.89316,-1.56327 -1.58766,-2.87805z" fill="#005dff" stroke="none" stroke-width="0" stroke-linecap="butt"/><path d="M311.44861,132.57746c0.24326,-1.0469 1.20366,-1.71825 2.14511,-1.4995c0.94146,0.21875 1.50746,1.24478 1.2642,2.29168c-0.24326,1.04691 -1.20367,1.71825 -2.14511,1.4995c-0.94146,-0.21875 -1.50746,-1.24477 -1.2642,-2.29168z" fill="#005dff" stroke="none" stroke-width="0" stroke-linecap="butt"/><g stroke="#000000" stroke-width="1.5" stroke-linecap="butt"><path d="M311.58716,135.77077l2.1293,-1.41082l0.48313,-2.28049c0,0 -2.18549,0.89353 -2.04557,-0.10794c0.40888,-2.92639 0.86425,-6.61505 0.82352,-7.96069c-0.06269,-2.0714 -2.85218,-4.86428 -2.80493,-5.01924c0.65009,-2.13207 3.9699,2.38665 4.83193,5.20772c0.86203,2.82106 -1.43368,11.17193 -1.43368,11.17193z" data-paper-data="{&quot;index&quot;:null}" fill="url(#color-12)"/><path d="M312.35373,139.67246l-3.36269,0.97775l1.64058,-4.94561l2.99841,-0.54655z" data-paper-data="{&quot;index&quot;:null}" fill="url(#color-13)"/><path d="M306.66252,128.74167l-0.48689,3.54771l4.29696,3.44843l-2.23128,4.99412l-10.51255,-6.21339c0,0 2.46301,-4.02598 3.25112,-7.53827c0.66989,-2.98547 0.577,-5.98837 0.577,-5.98837c0,0 5.31827,-5.03124 9.53209,-2.42013c4.21384,2.61112 0.53902,13.33431 0.53902,13.33431z" data-paper-data="{&quot;index&quot;:null}" fill="url(#color-14)"/></g><path d="M308.54184,132.16079c0.53014,-2.28157 2.62318,-3.74466 4.67494,-3.26791c2.05175,0.47674 3.28529,2.71279 2.75514,4.99435c-0.53014,2.28157 -2.62319,3.74468 -4.67495,3.26793c-2.05175,-0.47674 -3.28528,-2.71281 -2.75513,-4.99437z" fill="url(#color-15)" stroke="none" stroke-width="0" stroke-linecap="butt"/><path d="M304.55289,130.55002c0.55621,-2.39373 2.75215,-3.92876 4.90477,-3.42858c2.15263,0.50018 3.4468,2.84616 2.89059,5.2399c-0.55621,2.39374 -2.75216,3.92877 -4.90478,3.42858c-2.15263,-0.50018 -3.44679,-2.84616 -2.89058,-5.2399z" fill="url(#color-16)" stroke="none" stroke-width="0" stroke-linecap="butt"/><path d="M309.90849,179.40057l-2.35863,-4.95436l5.42525,0.10675l3.46301,-4.01492l2.35866,4.95436l-3.19949,4.22634z" fill="url(#color-17)" stroke="#000000" stroke-width="1.5" stroke-linecap="butt"/><path d="M286.10213,175.96244l2.31017,-5.7979l4.64777,4.0783l6.56967,-0.74516l-2.31016,5.79791l-6.52587,1.11235z" fill="url(#color-18)" stroke="#000000" stroke-width="1.5" stroke-linecap="butt"/><path d="M312.19701,187.17356l-0.89179,-3.0526l4.79921,0.01821l4.05735,-2.52136l0.89179,3.0526c0,0 -0.42498,5.05225 0.52901,4.98866c1.69331,-0.11286 2.90228,-0.13614 4.0427,-0.05189c1.65309,0.1221 0.45161,1.9754 0.29995,2.31525c-0.05485,0.12289 -0.28646,0.26734 -0.64995,0.42663c-2.51169,1.10058 -11.31933,2.90841 -11.59667,3.19452c-0.24134,0.24893 -1.1377,-1.53136 -1.42458,-3.4746c-0.34229,-2.31857 -0.05709,-4.89537 -0.05709,-4.89537z" fill="url(#color-19)" stroke="#000000" stroke-width="1.5" stroke-linecap="butt"/><path d="M284.97551,182.24476l4.49085,2.22888l5.11245,-0.34161l-0.74721,3.08976c0,0 -3.01917,4.23725 -2.09159,4.62132c1.64638,0.68174 2.7921,1.21878 3.81777,1.81853c1.48676,0.86937 -0.60116,1.9416 -0.91967,2.16987c-0.11516,0.08254 -0.40731,0.10249 -0.83075,0.07465c-2.9261,-0.19243 -12.12285,-2.66721 -12.53127,-2.54407c-0.38971,0.11749 -0.23672,-1.62071 0.59864,-3.6567c0.83558,-2.03655 2.35359,-4.37088 2.35359,-4.37088z" fill="url(#color-20)" stroke="#000000" stroke-width="1.5" stroke-linecap="butt"/><g stroke="#000000" stroke-width="1.5" stroke-linecap="butt"><path d="M327.85281,161.70782l45.24534,-2.23601l8.41504,5.86531l-9.22576,6.52051l-44.99675,2.22371z" fill="url(#color-21)"/><path d="M305.84565,167.08866l21.4791,-1.0615l-0.15811,3.4805l-21.47911,1.0615c0,0 -0.94089,-1.12881 -0.91275,-1.74836c0.02384,-0.52481 1.07085,-1.73216 1.07085,-1.73216z" fill="url(#color-22)"/><path d="M328.66576,165.65293l42.27372,-2.08914l2.85752,2.00112l-3.1153,2.22241l-42.20768,2.0859z" fill="url(#color-23)"/><path d="M325.31726,159.62087l1.84493,-0.95753l1.75978,0.77941l-0.20707,4.55867l3.5663,3.39753l-3.89666,3.87461l-0.24159,5.31843l-1.85839,1.3914l-1.74633,-1.21327c0,0 0.10052,-3.45332 0.2024,-6.50463c0.03182,-0.95308 -2.15716,-2.23629 -2.15716,-2.23629c0,0 2.30248,-1.64372 2.3186,-1.99835c0.11527,-2.53735 0.4152,-6.40999 0.4152,-6.40999z" fill="#191919"/><path d="M330.80582,164.39363l3.50239,3.00439l-3.79173,3.36488l-3.50237,-3.00437z" fill="url(#color-24)"/><path d="M305.31629,166.02283c1.74566,-0.08628 3.10465,1.07949 3.03539,2.60379c-0.06924,1.52432 -1.54049,2.82995 -3.28616,2.91623c-1.74566,0.08628 -1.54201,-1.1567 -1.47277,-2.68102c0.06924,-1.52432 -0.02212,-2.75272 1.72352,-2.83899z" fill="#171717"/></g><path d="M310.97387,173.34449c0,0 -3.3502,-2.15365 -6.93472,-4.50076c-2.58712,-1.69406 2.21514,-6.7916 3.59738,-5.88273c2.61901,1.72212 5.51741,3.5123 6.90674,4.42629c0.56175,0.36957 0.73595,4.10302 0.73595,4.10302z" fill="url(#color-25)" stroke="#000000" stroke-width="1.5" stroke-linecap="butt"/><path d="M302.75602,167.80128l-10.55906,-11.2737l7.3878,-4.17108l9.62514,10.00634l-1.38926,4.77446z" fill="url(#color-26)" stroke="#000000" stroke-width="1.5" stroke-linecap="butt"/><path d="M331.46761,169.23308c0,0 5.27389,-0.04167 5.71748,0.54133c0.95101,1.24991 1.57224,2.58003 1.57224,2.58003c0,0 -1.89692,2.52893 -3.0531,3.17296c-1.0664,0.59402 -3.6364,0.55332 -3.6364,0.55332l-1.64112,-2.36312z" data-paper-data="{&quot;index&quot;:null}" fill="url(#color-27)" stroke="#000000" stroke-width="1.5" stroke-linecap="butt"/><path d="M291.04902,156.95939l-1.44806,-1.90832l-0.3363,-2.14717l8.77886,-3.0026l1.71131,1.67689l0.07307,2.37859z" fill="url(#color-28)" stroke="#000000" stroke-width="1.5" stroke-linecap="butt"/></g></g></svg>