<svg version="1.1" xmlns="http://www.w3.org/2000/svg" xmlns:xlink="http://www.w3.org/1999/xlink" width="475.58966" height="220.47109" viewBox="0,0,475.58966,220.47109"><defs><linearGradient x1="439.37279" y1="62.18895" x2="439.37279" y2="54.51204" gradientUnits="userSpaceOnUse" id="color-1"><stop offset="0" stop-color="#0f0d0b"/><stop offset="1" stop-color="#292523"/></linearGradient><linearGradient x1="452.42906" y1="70.87076" x2="458.47861" y2="70.87076" gradientUnits="userSpaceOnUse" id="color-2"><stop offset="0" stop-color="#040404"/><stop offset="1" stop-color="#0c0c0c"/></linearGradient><linearGradient x1="421.00828" y1="70.7611" x2="424.72292" y2="70.7611" gradientUnits="userSpaceOnUse" id="color-3"><stop offset="0" stop-color="#0c0c0c"/><stop offset="1" stop-color="#040404"/></linearGradient><linearGradient x1="439.37279" y1="86.82939" x2="439.37279" y2="79.15246" gradientUnits="userSpaceOnUse" id="color-4"><stop offset="0" stop-color="#0f0d0b"/><stop offset="1" stop-color="#292523"/></linearGradient><linearGradient x1="425.27704" y1="60.83888" x2="417.25013" y2="67.89911" gradientUnits="userSpaceOnUse" id="color-5"><stop offset="0" stop-color="#292523"/><stop offset="1" stop-color="#0f0d0c"/></linearGradient><linearGradient x1="422.20421" y1="63.54165" x2="420.19749" y2="65.3067" gradientUnits="userSpaceOnUse" id="color-6"><stop offset="0" stop-color="#292523"/><stop offset="1" stop-color="#0f0d0c"/></linearGradient><linearGradient x1="424.81851" y1="61.13091" x2="417.72373" y2="67.3713" gradientUnits="userSpaceOnUse" id="color-7"><stop offset="0" stop-color="#292523"/><stop offset="1" stop-color="#0f0d0c"/></linearGradient><linearGradient x1="424.81314" y1="61.21421" x2="417.71834" y2="67.45462" gradientUnits="userSpaceOnUse" id="color-8"><stop offset="0" stop-color="#292523"/><stop offset="1" stop-color="#0f0d0c"/></linearGradient><linearGradient x1="425.84541" y1="79.66471" x2="416.25252" y2="74.94719" gradientUnits="userSpaceOnUse" id="color-9"><stop offset="0" stop-color="#292523"/><stop offset="1" stop-color="#0f0d0c"/></linearGradient><linearGradient x1="422.17308" y1="77.85876" x2="419.77488" y2="76.67937" gradientUnits="userSpaceOnUse" id="color-10"><stop offset="0" stop-color="#292523"/><stop offset="1" stop-color="#0f0d0c"/></linearGradient><linearGradient x1="425.32651" y1="79.50262" x2="416.84759" y2="75.33294" gradientUnits="userSpaceOnUse" id="color-11"><stop offset="0" stop-color="#292523"/><stop offset="1" stop-color="#0f0d0c"/></linearGradient><linearGradient x1="425.29953" y1="79.42363" x2="416.8206" y2="75.25391" gradientUnits="userSpaceOnUse" id="color-12"><stop offset="0" stop-color="#292523"/><stop offset="1" stop-color="#0f0d0c"/></linearGradient><linearGradient x1="453.22842" y1="88.60094" x2="456.72484" y2="78.49877" gradientUnits="userSpaceOnUse" id="color-13"><stop offset="0" stop-color="#292523"/><stop offset="1" stop-color="#0f0d0c"/></linearGradient><linearGradient x1="454.5669" y1="84.73365" x2="455.441" y2="82.20814" gradientUnits="userSpaceOnUse" id="color-14"><stop offset="0" stop-color="#292523"/><stop offset="1" stop-color="#0f0d0c"/></linearGradient><linearGradient x1="453.32515" y1="88.06598" x2="456.41552" y2="79.13693" gradientUnits="userSpaceOnUse" id="color-15"><stop offset="0" stop-color="#292523"/><stop offset="1" stop-color="#0f0d0c"/></linearGradient><linearGradient x1="453.40023" y1="88.02945" x2="456.49063" y2="79.10039" gradientUnits="userSpaceOnUse" id="color-16"><stop offset="0" stop-color="#292523"/><stop offset="1" stop-color="#0f0d0c"/></linearGradient><linearGradient x1="453.70365" y1="53.1674" x2="456.63428" y2="63.44798" gradientUnits="userSpaceOnUse" id="color-17"><stop offset="0" stop-color="#292523"/><stop offset="1" stop-color="#0f0d0c"/></linearGradient><linearGradient x1="454.82556" y1="57.103" x2="455.55819" y2="59.67309" gradientUnits="userSpaceOnUse" id="color-18"><stop offset="0" stop-color="#292523"/><stop offset="1" stop-color="#0f0d0c"/></linearGradient><linearGradient x1="453.77058" y1="53.7069" x2="456.36086" y2="62.79364" gradientUnits="userSpaceOnUse" id="color-19"><stop offset="0" stop-color="#292523"/><stop offset="1" stop-color="#0f0d0c"/></linearGradient><linearGradient x1="453.84352" y1="53.74754" x2="456.43383" y2="62.83429" gradientUnits="userSpaceOnUse" id="color-20"><stop offset="0" stop-color="#292523"/><stop offset="1" stop-color="#0f0d0c"/></linearGradient><linearGradient x1="6.4516" y1="228.20617" x2="6.4516" y2="231.58486" gradientUnits="userSpaceOnUse" id="color-21"><stop offset="0" stop-color="#0e0e0e"/><stop offset="1" stop-color="#060606"/></linearGradient><linearGradient x1="6.4516" y1="222.66513" x2="6.4516" y2="226.04381" gradientUnits="userSpaceOnUse" id="color-22"><stop offset="0" stop-color="#0e0e0e"/><stop offset="1" stop-color="#060606"/></linearGradient><linearGradient x1="6.29229" y1="261.5279" x2="6.29229" y2="264.9066" gradientUnits="userSpaceOnUse" id="color-23"><stop offset="0" stop-color="#0e0e0e"/><stop offset="1" stop-color="#060606"/></linearGradient><linearGradient x1="6.3608" y1="255.98687" x2="6.3608" y2="259.36555" gradientUnits="userSpaceOnUse" id="color-24"><stop offset="0" stop-color="#0e0e0e"/><stop offset="1" stop-color="#060606"/></linearGradient><linearGradient x1="6.4516" y1="250.40896" x2="6.4516" y2="253.78765" gradientUnits="userSpaceOnUse" id="color-25"><stop offset="0" stop-color="#0e0e0e"/><stop offset="1" stop-color="#060606"/></linearGradient><linearGradient x1="6.4516" y1="244.86791" x2="6.4516" y2="248.2466" gradientUnits="userSpaceOnUse" id="color-26"><stop offset="0" stop-color="#0e0e0e"/><stop offset="1" stop-color="#060606"/></linearGradient><linearGradient x1="6.4516" y1="239.32512" x2="6.4516" y2="242.7038" gradientUnits="userSpaceOnUse" id="color-27"><stop offset="0" stop-color="#0e0e0e"/><stop offset="1" stop-color="#060606"/></linearGradient><linearGradient x1="6.52012" y1="233.78407" x2="6.52012" y2="237.16275" gradientUnits="userSpaceOnUse" id="color-28"><stop offset="0" stop-color="#0e0e0e"/><stop offset="1" stop-color="#060606"/></linearGradient><linearGradient x1="6.10378" y1="267.8582" x2="6.10378" y2="271.12425" gradientUnits="userSpaceOnUse" id="color-29"><stop offset="0" stop-color="#0e0e0e"/><stop offset="1" stop-color="#060606"/></linearGradient><linearGradient x1="19.15184" y1="213.80475" x2="19.15184" y2="224.6166" gradientUnits="userSpaceOnUse" id="color-30"><stop offset="0" stop-color="#292523"/><stop offset="1" stop-color="#0f0d0c"/></linearGradient><linearGradient x1="19.15184" y1="217.9437" x2="19.15184" y2="220.64665" gradientUnits="userSpaceOnUse" id="color-31"><stop offset="0" stop-color="#292523"/><stop offset="1" stop-color="#0f0d0c"/></linearGradient><linearGradient x1="19.06738" y1="214.34803" x2="19.06738" y2="223.90438" gradientUnits="userSpaceOnUse" id="color-32"><stop offset="0" stop-color="#292523"/><stop offset="1" stop-color="#0f0d0c"/></linearGradient><linearGradient x1="19.1271" y1="214.40779" x2="19.1271" y2="223.96419" gradientUnits="userSpaceOnUse" id="color-33"><stop offset="0" stop-color="#292523"/><stop offset="1" stop-color="#0f0d0c"/></linearGradient><linearGradient x1="-11.84092" y1="219.60933" x2="-1.039" y2="219.14625" gradientUnits="userSpaceOnUse" id="color-34"><stop offset="0" stop-color="#292523"/><stop offset="1" stop-color="#0f0d0c"/></linearGradient><linearGradient x1="-7.70577" y1="219.43206" x2="-5.0053" y2="219.31629" gradientUnits="userSpaceOnUse" id="color-35"><stop offset="0" stop-color="#292523"/><stop offset="1" stop-color="#0f0d0c"/></linearGradient><linearGradient x1="-11.29452" y1="219.67046" x2="-1.74694" y2="219.26115" gradientUnits="userSpaceOnUse" id="color-36"><stop offset="0" stop-color="#292523"/><stop offset="1" stop-color="#0f0d0c"/></linearGradient><linearGradient x1="-11.23737" y1="219.60823" x2="-1.68975" y2="219.19893" gradientUnits="userSpaceOnUse" id="color-37"><stop offset="0" stop-color="#292523"/><stop offset="1" stop-color="#0f0d0c"/></linearGradient></defs><g transform="translate(13.28913,-51.15316)"><g data-paper-data="{&quot;isPaintingLayer&quot;:true}" fill-rule="nonzero" stroke="#000000" stroke-linejoin="miter" stroke-miterlimit="10" stroke-dasharray="" stroke-dashoffset="0" style="mix-blend-mode: normal"><g><path d="M454.97427,54.51204v7.67693h-31.20296v-7.67693z" fill="url(#color-1)" stroke-width="2" stroke-linecap="butt"/><path d="M428.48094,59.84009h23.95942" fill="none" stroke-width="1.5" stroke-linecap="round"/><path d="M452.68533,57.98552h-25.58457" fill="none" stroke-width="1.5" stroke-linecap="round"/></g><path d="M458.47861,53.32532v35.09095h-6.04955v-35.09095z" fill="url(#color-2)" stroke-width="2.5" stroke-linecap="butt"/><path d="M424.72292,53.14137v35.23953h-3.71463v-35.23953z" fill="url(#color-3)" stroke-width="2" stroke-linecap="butt"/><g><path d="M454.97427,79.15246v7.67691h-31.20296v-7.67691z" fill="url(#color-4)" stroke-width="2" stroke-linecap="butt"/><path d="M428.48095,84.48051h23.95941" fill="none" stroke-width="1.5" stroke-linecap="round"/><path d="M452.68536,82.62596h-25.58457" fill="none" stroke-width="1.5" stroke-linecap="round"/></g><g stroke-linecap="butt"><path d="M416.48547,66.90325l8.02685,-7.06018l1.76504,2.00671l-8.02685,7.06018z" fill="#000000" stroke-width="2.5"/><path d="M423.84536,69.32757l-7.06018,-8.02685l2.00671,-1.76504l7.06018,8.02685z" fill="#000000" stroke-width="2.5"/><path d="M419.71363,69.50719l0.68354,-10.66813l2.66703,0.17088l-0.68354,10.66814z" fill="#000000" stroke-width="2.5"/><path d="M426.63221,66.01729l-10.66812,-0.68354l0.17088,-2.66703l10.66814,0.68355z" fill="#000000" stroke-width="2.5"/><path d="M416.36757,66.8957l8.02685,-7.06018l1.76504,2.00671l-8.02685,7.06018z" fill="url(#color-5)" stroke-width="0"/><path d="M423.7275,69.32004l-7.06017,-8.02685l2.00671,-1.76504l7.06018,8.02685z" fill="url(#color-6)" stroke-width="0"/><path d="M419.59577,69.49969l0.68355,-10.66813l2.66703,0.17089l-0.68354,10.66814z" fill="url(#color-7)" stroke-width="0"/><path d="M426.5144,66.00972l-10.66812,-0.68354l0.17088,-2.66703l10.66814,0.68355z" fill="url(#color-8)" stroke-width="0"/><path d="M418.12287,65.91535l5.11712,-4.50086l1.12522,1.27927l-5.11712,4.50086z" fill="#000000" stroke-width="0"/><path d="M422.81481,67.46096l-4.50086,-5.11711l1.27928,-1.12522l4.50086,5.11712z" fill="#000000" stroke-width="0"/><path d="M420.18084,67.5755l0.43576,-6.80092l1.70023,0.10894l-0.43576,6.80092z" fill="#000000" stroke-width="0"/><path d="M424.59142,65.35058l-6.80092,-0.43576l0.10893,-1.70023l6.80092,0.43576z" fill="#000000" stroke-width="0"/><path d="M420.37028,63.35475c0.53105,-0.4671 1.3402,-0.41525 1.8073,0.1158c0.46709,0.53105 0.41525,1.3402 -0.1158,1.8073c-0.53105,0.4671 -1.3402,0.41525 -1.8073,-0.1158c-0.46709,-0.53105 -0.41525,-1.34021 0.1158,-1.8073z" fill="#1a1715" stroke-width="0.5"/></g><g data-paper-data="{&quot;index&quot;:null}" stroke-linecap="butt"><path d="M416.95403,73.71007l9.59281,4.71747l-1.17936,2.3982l-9.59281,-4.71746z" fill="#000000" stroke-width="2.5"/><path d="M424.64359,73.02438l-4.71746,9.59281l-2.3982,-1.17936l4.71746,-9.59281z" fill="#000000" stroke-width="2.5"/><path d="M420.73994,71.88941l3.44738,10.11888l-2.52973,0.86185l-3.44738,-10.11889z" fill="#000000" stroke-width="2.5"/><path d="M426.66221,76.8418l-10.11889,3.44738l-0.86184,-2.52972l10.11888,-3.44738z" fill="#000000" stroke-width="2.5"/><path d="M416.84219,73.74817l9.59281,4.71747l-1.17936,2.3982l-9.5928,-4.71746z" fill="url(#color-9)" stroke-width="0"/><path d="M424.53177,73.06248l-4.71747,9.59281l-2.3982,-1.17936l4.71747,-9.59281z" fill="url(#color-10)" stroke-width="0"/><path d="M420.62816,71.92749l3.44738,10.11888l-2.52972,0.86185l-3.44738,-10.11888z" fill="url(#color-11)" stroke-width="0"/><path d="M426.55045,76.87989l-10.11889,3.44738l-0.86184,-2.52972l10.11888,-3.44738z" fill="url(#color-12)" stroke-width="0"/><path d="M418.36515,75.10513l6.1154,3.00738l-0.75184,1.52886l-6.11541,-3.00738z" fill="#000000" stroke-width="0"/><path d="M423.26719,74.66791l-3.00738,6.11541l-1.52885,-0.75185l3.00738,-6.1154z" fill="#000000" stroke-width="0"/><path d="M420.77866,73.94435l2.1977,6.45078l-1.61269,0.54943l-2.1977,-6.45078z" fill="#000000" stroke-width="0"/><path d="M424.5541,77.10159l-6.45078,2.1977l-0.54942,-1.6127l6.45078,-2.1977z" fill="#000000" stroke-width="0"/><path d="M419.86769,76.80412c0.3121,-0.63466 1.07959,-0.89614 1.71425,-0.58404c0.63466,0.31211 0.89614,1.0796 0.58404,1.71426c-0.3121,0.63466 -1.0796,0.89614 -1.71425,0.58403c-0.63466,-0.31211 -0.89614,-1.0796 -0.58403,-1.71425z" fill="#1a1715" stroke-width="0.5"/></g><path d="M455.11553,58.79251v24.88807" fill="none" stroke-width="1.5" stroke-linecap="round"/><g data-paper-data="{&quot;index&quot;:null}" stroke-linecap="butt"><path d="M458.03914,79.04206l-3.49636,10.10207l-2.52551,-0.87408l3.49636,-10.10207z" fill="#000000" stroke-width="2.5"/><path d="M459.66942,86.58806l-10.10207,-3.49636l0.87409,-2.52551l10.10207,3.49636z" fill="#000000" stroke-width="2.5"/><path d="M460.31348,82.57415l-9.61555,4.67094l-1.16774,-2.40389l9.61554,-4.67094z" fill="#000000" stroke-width="2.5"/><path d="M456.1306,89.06275l-4.67094,-9.61554l2.40389,-1.16773l4.67093,9.61552z" fill="#000000" stroke-width="2.5"/><path d="M457.98749,78.93582l-3.49636,10.10207l-2.52551,-0.87408l3.49636,-10.10207z" fill="url(#color-13)" stroke-width="0"/><path d="M459.61783,86.48179l-10.10207,-3.49636l0.87408,-2.52552l10.10207,3.49636z" fill="url(#color-14)" stroke-width="0"/><path d="M460.26191,82.46787l-9.61554,4.67095l-1.16775,-2.4039l9.61554,-4.67094z" fill="url(#color-15)" stroke-width="0"/><path d="M456.07902,88.95658l-4.67094,-9.61554l2.40388,-1.16774l4.67093,9.61553z" fill="url(#color-16)" stroke-width="0"/><path d="M456.82905,80.61473l-2.22893,6.44007l-1.61002,-0.55723l2.22893,-6.44007z" fill="#000000" stroke-width="0"/><path d="M457.86846,85.42523l-6.44007,-2.22893l0.55724,-1.61002l6.44006,2.22892z" fill="#000000" stroke-width="0"/><path d="M458.27907,82.86636l-6.12989,2.97773l-0.74443,-1.53248l6.1299,-2.97773z" fill="#000000" stroke-width="0"/><path d="M455.61239,87.00291l-2.97773,-6.1299l1.53247,-0.74443l2.97773,6.1299z" fill="#000000" stroke-width="0"/><path d="M455.32867,82.31561c0.66836,0.23132 1.02263,0.96063 0.79131,1.62898c-0.23132,0.66836 -0.96064,1.02262 -1.62898,0.79131c-0.66836,-0.23132 -1.02263,-0.96063 -0.79131,-1.62898c0.23132,-0.66836 0.96064,-1.02262 1.62898,-0.79131z" fill="#1a1715" stroke-width="0.5"/></g><g stroke-linecap="butt"><path d="M455.40661,63.71106l-2.93057,-10.28047l2.57011,-0.73264l2.93057,10.28047z" fill="#000000" stroke-width="2.5"/><path d="M460.75574,58.1046l-10.28047,2.93058l-0.73264,-2.57011l10.28047,-2.93058z" fill="#000000" stroke-width="2.5"/><path d="M459.1442,61.91338l-9.34162,-5.19716l1.2993,-2.33541l9.34161,5.19716z" fill="#000000" stroke-width="2.5"/><path d="M458.96238,54.16657l-5.19714,9.34161l-2.3354,-1.29929l5.19716,-9.34161z" fill="#000000" stroke-width="2.5"/><path d="M455.34915,63.8143l-2.93058,-10.28047l2.57011,-0.73265l2.93058,10.28047z" fill="url(#color-17)" stroke-width="0"/><path d="M460.69831,58.20784l-10.28046,2.93058l-0.73264,-2.57012l10.28046,-2.93057z" fill="url(#color-18)" stroke-width="0"/><path d="M459.0868,62.01659l-9.34161,-5.19716l1.29929,-2.33541l9.34162,5.19716z" fill="url(#color-19)" stroke-width="0"/><path d="M458.90498,54.26974l-5.19714,9.34161l-2.3354,-1.29928l5.19716,-9.34162z" fill="url(#color-20)" stroke-width="0"/><path d="M455.21726,61.80811l-1.86824,-6.5538l1.63846,-0.46705l1.86824,6.55379z" fill="#000000" stroke-width="0"/><path d="M458.62745,58.23407l-6.5538,1.86824l-0.46706,-1.63846l6.55379,-1.86824z" fill="#000000" stroke-width="0"/><path d="M457.60014,60.66213l-5.95527,-3.31318l0.8283,-1.48882l5.95527,3.31318z" fill="#000000" stroke-width="0"/><path d="M457.48415,55.72351l-3.31318,5.95528l-1.48882,-0.8283l3.31318,-5.95527z" fill="#000000" stroke-width="0"/><path d="M453.86944,58.6791c-0.19389,-0.68015 0.20031,-1.38869 0.88046,-1.58257c0.68014,-0.19389 1.38869,0.20031 1.58257,0.88045c0.19389,0.68015 -0.20031,1.38869 -0.88046,1.58257c-0.68014,0.19389 -1.38869,-0.20031 -1.58257,-0.88046z" fill="#1a1715" stroke-width="0.5"/></g><g stroke-width="1"><path d="M-7.94329,231.58486v-3.37869h28.78978v3.37869z" fill="url(#color-21)" stroke-linecap="butt"/><path d="M-7.94329,226.04381v-3.37869h28.78978v3.37869z" fill="url(#color-22)" stroke-linecap="butt"/><path d="M-8.96165,220.75434v-2.23637h30.39759v2.23637z" fill="#000000" stroke-linecap="butt"/><g><path d="M-8.10262,264.9066v-3.37869h28.78978v3.37869z" fill="url(#color-23)" stroke-linecap="butt"/><path d="M-8.0341,259.36555v-3.37868h28.78978v3.37868z" fill="url(#color-24)" stroke-linecap="butt"/><path d="M-7.94329,253.78765v-3.37869h28.78978v3.37869z" fill="url(#color-25)" stroke-linecap="butt"/><path d="M-7.94329,248.2466v-3.37869h28.78978v3.37869z" fill="url(#color-26)" stroke-linecap="butt"/><path d="M-7.94329,242.7038v-3.37868h28.78978v3.37868z" fill="url(#color-27)" stroke-linecap="butt"/><path d="M-7.87478,237.16275v-3.37868h28.78978v3.37868z" fill="url(#color-28)" stroke-linecap="butt"/><g fill="none" stroke-linecap="round"><path d="M-5.29279,266.35584v-46.25789"/><path d="M-2.55353,266.49055v-45.96709"/><path d="M0.31616,266.28849v-46.14538"/><path d="M3.19615,220.33328v46.21274"/><path d="M6.18602,266.38914v-46.4251"/><path d="M9.18616,220.14311v46.34665"/><path d="M12.05586,266.21005v-45.87676"/><path d="M15.18643,266.37803v-46.04475"/><path d="M18.44747,266.38913v-46.24602"/></g></g></g><path d="M-8.78225,271.12425v-3.26607h29.77206v3.26607z" fill="url(#color-29)" stroke-width="1" stroke-linecap="butt"/><g stroke-linecap="butt"><g fill="#000000" stroke-width="2.5"><path d="M17.88484,224.53213v-10.81179h2.70296v10.81179z"/><path d="M24.64222,220.56218h-10.81179v-2.70295h10.8118z"/><g><path d="M22.01875,223.81992l-7.6451,-7.64509l1.91127,-1.91128l7.6451,7.64509z"/><path d="M23.98975,216.2346l-7.64509,7.64509l-1.91127,-1.91127l7.6451,-7.64509z"/></g></g><g stroke-width="0"><path d="M17.80038,224.6166v-10.8118h2.70295v10.8118z" fill="url(#color-30)"/><path d="M24.55775,220.64665h-10.81179v-2.70295h10.8118z" fill="url(#color-31)"/><g><path d="M21.93428,223.90438l-7.6451,-7.64509l1.91127,-1.91128l7.6451,7.6451z" fill="url(#color-32)"/><path d="M23.90528,216.31907l-7.64508,7.64509l-1.91127,-1.91127l7.64509,-7.64509z" fill="url(#color-33)"/></g></g><g fill="#000000" stroke-width="0"><path d="M18.22835,222.62876v-6.89252h1.72313v6.89252z"/><path d="M22.53617,220.09797h-6.89252v-1.72313h6.89252z"/><g><path d="M20.86374,222.17478l-4.87374,-4.87374l1.21843,-1.21843l4.87374,4.87375z"/><path d="M22.12021,217.3391l-4.87374,4.87376l-1.21844,-1.21844l4.87375,-4.87374z"/></g></g><path d="M17.78499,219.21162c0,-0.7153 0.57986,-1.29517 1.29516,-1.29517c0.7153,0 1.29517,0.57987 1.29517,1.29517c0,0.7153 -0.57987,1.29516 -1.29517,1.29516c-0.7153,0 -1.29516,-0.57986 -1.29516,-1.29516z" fill="#1a1715" stroke-width="0.5"/></g><g stroke-linecap="butt"><g fill="#000000" stroke-width="2.5"><path d="M-1.06911,220.41571l-10.80187,0.46309l-0.11576,-2.70047l10.80188,-0.46309z"/><path d="M-5.32485,213.83458l0.46308,10.80188l-2.70047,0.11576l-0.46308,-10.80187z"/><g><path d="M-1.95774,216.3161l-7.31063,7.96553l-1.99138,-1.82766l7.31063,-7.96553z"/><path d="M-9.62051,214.6718l7.96553,7.31063l-1.82765,1.99139l-7.96553,-7.31063z"/></g></g><g stroke-width="0"><path d="M-0.98111,220.49648l-10.80187,0.46309l-0.11576,-2.70047l10.80188,-0.46309z" fill="url(#color-34)"/><path d="M-5.23684,213.91535l0.46309,10.80188l-2.70047,0.11576l-0.46308,-10.80187z" fill="url(#color-35)"/><g><path d="M-1.86973,216.39687l-7.31063,7.96553l-1.99138,-1.82766l7.31063,-7.96553z" fill="url(#color-36)"/><path d="M-9.5325,214.75258l7.96553,7.31062l-1.82765,1.99139l-7.96553,-7.31063z" fill="url(#color-37)"/></g></g><g fill="#000000" stroke-width="0"><path d="M-2.98544,220.15405l-6.8862,0.29521l-0.07381,-1.72155l6.8862,-0.29521z"/><path d="M-5.69842,215.95858l0.29521,6.8862l-1.72155,0.0738l-0.29522,-6.88619z"/><g><path d="M-3.5519,217.54051l-4.66052,5.07802l-1.26951,-1.16513l4.66053,-5.07802z"/><path d="M-8.43695,216.49231l5.07803,4.66053l-1.16514,1.2695l-5.07802,-4.66052z"/></g></g><path d="M-6.38047,220.74337c-0.71464,0.03063 -1.31882,-0.52386 -1.34945,-1.23851c-0.03064,-0.71464 0.52386,-1.31882 1.23851,-1.34945c0.71465,-0.03063 1.31882,0.52386 1.34945,1.23851c0.03064,0.71464 -0.52386,1.31882 -1.2385,1.34945z" fill="#1a1715" stroke-width="0.5"/></g></g></g></svg>