<svg version="1.1" xmlns="http://www.w3.org/2000/svg" xmlns:xlink="http://www.w3.org/1999/xlink" width="131.31963" height="140.05756" viewBox="0,0,131.31963,140.05756"><defs><radialGradient cx="244.78178" cy="100.66064" r="6.9241" gradientUnits="userSpaceOnUse" id="color-1"><stop offset="0" stop-color="#1048db"/><stop offset="1" stop-color="#1048db" stop-opacity="0"/></radialGradient></defs><g transform="translate(-171.72603,-88.77089)"><g data-paper-data="{&quot;isPaintingLayer&quot;:true}" fill-rule="nonzero" stroke="#000000" stroke-linejoin="miter" stroke-miterlimit="10" stroke-dasharray="" stroke-dashoffset="0" style="mix-blend-mode: normal"><path d="" fill="none" stroke-width="2" stroke-linecap="round"/><path d="M216.02799,159.62742c0,0 -1.68609,-4.40435 -1.48174,-7.1431c0.13789,-1.84809 -0.18576,-4.76308 2.89374,-6.20987c1.92104,-0.90253 4.30731,-2.55714 4.30731,-2.55714c0,0 27.2152,-0.59273 34.36137,0.20466c3.19499,0.3565 4.60184,2.10718 4.60184,2.10718c0,0 2.90773,5.69544 3.1628,8.10314c0.27044,2.55291 -1.92284,6.81771 -1.92284,6.81771z" fill="#090909" stroke-width="2" stroke-linecap="butt"/><path d="M234.38889,200.31964c0,0 6.34264,-8.79129 7.7294,-15.29832c0.94057,-4.41351 0.98708,-9.08859 1.40497,-16.24231c0.42582,-7.28956 1.21408,-17.0176 1.21408,-17.0176c0,0 2.8988,5.65777 4.75132,6.53046c2.85177,1.3434 10.81242,3.80582 10.81242,3.80582c0,0 -4.00737,17.63057 -4.13421,23.90238c-0.1625,8.03609 3.23937,20.34676 3.23937,20.34676c0,0 -5.99167,-4.95427 -8.63477,-5.21891c-2.32726,-0.23302 -6.39718,3.71382 -6.39718,3.71382c0,0 -3.37371,7.29679 -7.32678,9.99657c-5.10647,3.4875 -11.30355,2.52888 -13.737,1.92258c-12.16407,-3.03064 -9.40474,-25.74564 -11.72768,-26.30527c-1.17254,-0.2825 8.85765,7.25943 15.26658,8.90022c6.43564,1.64765 7.53951,0.9638 7.53951,0.9638z" fill="#090909" stroke-width="2" stroke-linecap="butt"/><path d="M208.4237,226.61364c0,0 -12.65632,-4.3558 -16.71013,-8.33508c-4.53082,-4.44752 -9.20329,-17.10193 -9.20329,-17.10193c0,0 6.98821,0.77735 11.74302,3.3507c5.23098,2.83105 8.53202,7.47213 14.7657,7.21569c6.2099,-0.25546 17.38737,-15.57073 17.81125,-17.20684c1.00055,-3.86205 1.52257,-42.25943 2.73207,-45.80948c1.90855,-5.60187 24.30923,-5.31806 27.29108,-1.14793c2.50398,3.50179 -7.24255,27.35595 -8.36279,37.12308c-1.55757,13.58004 0.60476,26.60457 -2.11135,29.7697c-0.52651,0.61356 -2.69544,10.26799 -7.59214,11.08887c-3.61178,0.60547 -8.50453,1.90309 -12.34639,2.26803c-9.40348,0.89321 -18.01704,-1.21481 -18.01704,-1.21481z" fill="#333333" stroke-width="2" stroke-linecap="butt"/><path d="M253.07512,139.40876c-0.10286,2.39708 2.06873,7.00291 0.83728,8.23079c-1.43524,1.43111 -5.15829,1.79284 -8.07743,2.46812c-3.80532,0.88028 -7.0729,1.85863 -10.57088,2.00156c-8.94934,0.36568 -9.95051,-5.03709 -10.29792,-14.52715c-0.09991,-2.72897 1.27224,-12.90826 1.48414,-13.50823c2.96615,-8.39902 9.26797,-14.9428 15.21875,-15.18596c8.0632,-0.32947 13.61519,9.11776 13.85777,18.02472c0.02665,0.97887 -2.43087,12.01145 -2.45166,12.49616z" fill="#0e0e0e" stroke-width="2" stroke-linecap="butt"/><path d="M222.40647,155.7147c0,0 -3.31479,-3.72297 -2.29035,-5.34513c1.18489,-1.87622 3.32505,-2.38895 6.173,-2.51034c2.84795,-0.1214 6.26797,1.90302 14.17788,1.64283c5.55798,-0.18283 10.18602,-0.67016 12.601,-1.52125c0.15899,-0.05603 3.49205,0.50576 4.30141,1.67783c0.99856,1.44609 -0.51961,5.9687 -0.51961,5.9687c0,0 -5.52503,1.91355 -11.70865,3.02909c-3.19338,0.57611 -7.59098,1.85604 -10.14139,1.81351c-6.79309,-0.11332 -12.59327,-4.75521 -12.59327,-4.75521z" fill="#091f57" stroke-width="2" stroke-linecap="butt"/><path d="M207.77584,225.86612c0,0 -12.36698,-4.35097 -16.32727,-8.32873c-1.61776,-1.62491 -7.10158,-8.76038 -4.77054,-8.39963c4.04683,0.62627 18.29725,10.14023 21.24507,11.77189c5.11105,2.82907 4.98208,-1.44738 11.07401,-1.70623c6.06869,-0.25786 13.56378,-0.4594 13.97853,-2.09571c0.09811,-0.38708 6.56338,-4.6264 6.83504,-5.78312c1.56226,-6.65195 1.01386,-38.93844 4.26955,-47.6574c1.82731,-4.89364 7.6158,-1.73751 7.6158,-1.73751c0,0 -2.99107,13.78811 -4.08895,23.5558c-1.52647,13.58084 -0.08003,25.05746 -2.73536,28.22369c-0.51475,0.61378 -2.63743,10.26918 -7.42297,11.09196c-3.5298,0.60686 -8.31163,1.9064 -12.0662,2.27283c-9.18982,0.89686 -17.60672,-1.20784 -17.60672,-1.20784z" fill="#091f57" stroke-width="2" stroke-linecap="butt"/><path d="M212.24583,205.97626c0,0 4.91303,-8.31988 5.986,-14.47906c0.72776,-4.17757 0.76257,-8.60305 1.08453,-15.37472c0.32808,-6.90025 0.93639,-16.10868 0.93639,-16.10868c0,0 2.24796,5.35666 3.68382,6.18336c2.21038,1.27261 11.63433,0.74506 11.63433,0.74506c0,0 -6.35498,19.54912 -6.45162,25.48604c-0.12383,7.60701 2.51577,19.26155 2.51577,19.26155c0,0 -4.64467,-4.69172 -6.69304,-4.94309c-1.80362,-0.22133 -4.95664,3.51347 -4.95664,3.51347c0,0 -2.61258,6.90614 -5.67538,9.46049c-3.95643,3.29966 -9.72309,-1.43169 -11.60908,-2.00641c-9.42756,-2.87279 -6.33133,-20.55232 -8.13167,-21.08283c-0.90876,-0.26779 6.86633,6.87475 11.83347,8.43004c4.98786,1.56177 5.84313,0.9148 5.84313,0.9148z" fill="#090909" stroke-width="2" stroke-linecap="butt"/><path d="M215.62364,163.89081c0,0 0.42664,-4.74779 1.41544,-6.63073c1.14368,-2.17783 3.41245,-4.03973 3.41245,-4.03973c0,0 5.45036,0.67815 10.15367,2.35886c3.33864,1.19305 7.12147,1.94716 10.32724,1.84602c3.94306,-0.1244 11.2843,0.10894 14.53287,-1.76341c2.2563,-1.30043 1.18959,5.53115 1.18959,5.53115c0,0 -14.64719,5.90232 -21.96084,5.70023c-2.27023,-0.06273 -4.62534,-2.36568 -7.47674,-1.57845c-1.88156,0.51948 -4.28165,4.36165 -5.93936,4.04152c-3.17112,-0.61239 -5.65427,-5.46545 -5.65427,-5.46545z" fill="#1a1a1a" stroke-width="2" stroke-linecap="butt"/><path d="M250.89381,142.20602c0,0 -1.62166,2.27531 -2.25635,2.35778c-0.85537,0.11116 -4.6588,-0.28885 -5.53493,-0.18858c-0.74149,0.08483 -3.45983,-0.68988 -3.45983,-0.68988c0,0 -1.21425,0.92462 -1.79735,0.99323c-0.7594,0.08936 -2.3715,-0.50268 -2.3715,-0.50268c0,0 -0.98083,-1.98291 -1.02323,-3.09279c-0.59943,-1.10151 -0.51651,-3.77259 -1.06728,-4.29125c-2.98379,-0.33594 -4.63155,-1.67607 -4.82035,-6.68753c-0.14167,-3.76006 1.7323,-6.9728 3.04034,-9.63138c2.05352,-4.17366 4.52632,-6.88582 9.49179,-7.47355c3.55177,-0.42039 5.51406,3.33633 8.04557,5.17621c3.26199,2.3708 6.63788,3.51169 6.84283,8.95231c0,0 -0.0335,6.31204 -3.32702,7.15038c-0.9331,1.61928 -0.87291,2.79628 -1.25165,4.45208z" fill="#333333" stroke-width="2" stroke-linecap="butt"/><path d="M228.11222,127.86075c0,0 -0.23015,-4.07173 0.87741,-4.77733c1.58612,-1.01044 4.96249,-4.82605 7.42006,-5.76885c4.32538,-1.65936 7.5904,-0.17658 6.01072,-0.00957c-1.14096,0.12063 1.74465,12.52262 0.18583,14.29336c-1.31948,1.49886 -0.81544,3.84895 -0.99657,5.23566c-0.17763,1.35997 1.0708,6.057 0.03893,7.67037c-0.31353,0.4902 -4.18597,0.9965 -5.44504,0.00339c-0.86201,-0.67991 -1.92067,-1.58526 -2.37018,-2.79074c-0.56516,-1.51553 -0.80082,-3.64214 -1.18817,-3.52524c-1.46463,0.44205 -1.89495,-2.38201 -2.82715,-2.90191c-1.09581,-0.61115 -1.17224,-7.43723 -1.17224,-7.43723z" fill="#141414" stroke-width="2" stroke-linecap="butt"/><path d="M232.96386,126.59993c-0.191,-2.19217 1.31807,-4.11505 3.37059,-4.29492c2.05254,-0.17986 3.87125,1.45143 4.06226,3.64359c0.191,2.19217 -1.31805,4.11505 -3.37059,4.29491c-2.05254,0.17986 -3.87126,-1.45144 -4.06226,-3.64358z" fill="#1048db" stroke-width="2" stroke-linecap="butt"/><path d="M245.73106,126.84404c-0.13163,-1.74039 0.90837,-3.267 2.3229,-3.4098c1.41454,-0.14279 2.66795,1.1523 2.79959,2.89269c0.13163,1.74038 -0.90837,3.26698 -2.3229,3.40978c-1.41454,0.14279 -2.66795,-1.15229 -2.79958,-2.89267z" fill="#101010" stroke-width="2" stroke-linecap="butt"/><path d="M228.53946,121.19826c0,0 5.8564,-5.07378 8.2509,-6.25308c2.36499,-1.16476 6.02873,-0.77969 6.02873,-0.77969" fill="none" stroke-width="2" stroke-linecap="round"/><path d="M227.44523,127.94689c0.20485,-0.84507 0.42415,-8.59471 1.45503,-10.36107c1.46686,-2.51341 3.48821,-4.44155 3.48821,-4.44155c0,0 5.17407,-4.19987 9.1268,-3.83255c3.95274,0.36729 8.80005,4.11411 8.80005,4.11411c0,0 2.14187,1.36397 3.70281,3.86907c0.60749,0.97494 1.15033,3.52239 1.40977,4.13572c0.81863,1.93522 -0.33776,6.53119 -0.33776,6.53119c0,0 -3.14959,-4.29294 -6.03035,-7.62171c-2.73787,-3.16367 -3.53323,-1.08535 -6.50577,-1.42348c-2.97253,-0.33813 -5.38972,0.75294 -8.32615,2.36292c-2.20285,1.2078 -4.27809,2.6108 -5.62248,3.84852c-0.99763,0.91845 -1.60826,-0.62693 -1.4885,-1.12104z" fill="#0b0b0b" stroke-width="2" stroke-linecap="butt"/><path d="M241.25935,176.72393l5.69132,-1.67699" fill="none" stroke-width="2" stroke-linecap="round"/><path d="M247.96265,182.04774l-6.15832,2.56577" fill="none" stroke-width="2" stroke-linecap="round"/><path d="M247.47426,189.02863l-6.16919,2.27614" fill="none" stroke-width="2" stroke-linecap="round"/><path d="M246.74693,196.30911l-4.931,1.93676" fill="none" stroke-width="2" stroke-linecap="round"/><path d="M247.21392,202.5718l-6.90775,2.59561" fill="none" stroke-width="2" stroke-linecap="round"/><path d="M188.07933,208.93566l7.09722,12.76118c0,0 -9.06623,-3.89162 -13.33038,-9.33525c-5.30392,-6.771 -8.33128,-17.7078 -9.12014,-19.65582c-0.73427,-1.81325 -0.09158,-6.89095 1.07369,-8.03062c2.93883,-2.87429 9.84089,0.61532 11.06561,7.2117c0.55551,2.99196 2.32189,2.32279 4.29048,3.22747c2.73872,1.25859 5.7874,3.39584 5.7874,3.39584c0,0 6.14655,4.43114 4.30155,4.52296c-1.05041,0.05228 -2.70648,0.42452 -3.52522,1.55028c-0.71321,0.98067 -0.66266,2.7379 -0.66266,2.7379c0,0 -4.55114,-3.4964 -6.03293,-3.51181c-1.03567,-0.01077 -0.94463,5.12616 -0.94463,5.12616z" fill="#101010" stroke-width="2" stroke-linecap="butt"/><path d="M175.76781,179.64155c-0.23424,-9.2392 27.6254,-13.47498 27.6254,-13.47498c0,0 -19.60076,19.51461 -16.89648,26.6609c1.23721,3.26942 -4.95002,3.36495 -8.38522,-0.84969c-0.92215,-1.13139 -3.08173,-2.90402 -3.41181,-4.67686c-0.5277,-2.83419 1.11385,-5.85496 1.06811,-7.65937z" fill="#091f57" stroke-width="2" stroke-linecap="butt"/><path d="M188.12977,177.32995c6.78712,-2.11927 8.8244,-3.93144 8.8244,-3.93144c0,0 -12.21995,11.24771 -9.51567,18.39399c1.23721,3.26942 -5.83708,4.63072 -9.27228,0.41608c-2.39637,-2.94009 2.88319,-12.66781 9.96356,-14.87863z" fill="#090d19" stroke-width="2" stroke-linecap="butt"/><path d="M215.44974,177.69737c0,0 1.07591,-13.22693 1.06507,-17.42277c-0.00799,-3.09495 -1.12422,-5.47028 -1.12422,-5.47028l4.30399,-0.86758c0,0 5.53156,8.72497 5.66349,12.23788c0.15817,4.21173 -2.7542,11.93394 -2.7542,11.93394z" fill="#090909" stroke-width="0" stroke-linecap="butt"/><path d="M220.79862,153.82563c0,0 3.51612,5.20275 4.45718,7.78761c0.91814,2.52193 0.99157,4.06188 0.99157,4.06188" fill="none" stroke-width="2" stroke-linecap="round"/><path d="M231.17893,177.42186c0,0 -13.30854,10.7041 -17.96081,13.63227c-0.26151,0.1646 -1.71017,-1.23687 -1.88894,-2.41969c-0.26109,-1.72749 0.77023,-3.55513 0.46007,-4.03836c-0.88624,-1.3808 13.29833,-12.73281 13.29833,-12.73281c0,0 2.94322,-2.79206 4.90952,-1.96353c1.28576,0.54176 2.28273,2.82388 4.10942,2.41283c2.16082,-0.48624 12.43229,-3.23635 14.83199,-4.00791c7.20659,-2.31707 6.62074,-3.26289 8.072,-3.3207c0.06931,-0.00276 -0.54605,-7.49608 0.41648,-12.47824c0.57196,-2.96051 1.16228,-4.74001 1.53605,-4.73707c0.43023,0.0034 4.23065,4.49661 4.93065,7.98075c0.39159,1.94899 -0.60228,3.29094 -0.46995,4.38304c0.34015,2.80729 -1.85106,5.41689 -1.9977,5.83768c-0.70069,2.01059 -6.73862,6.26117 -6.73862,6.26117c0,0 -5.15083,2.17323 -8.47191,2.90651c-4.27275,0.9434 -15.03658,2.28403 -15.03658,2.28403z" fill="#180f05" stroke-width="2" stroke-linecap="butt"/><path d="M231.5312,172.38011c0,0 -16.9202,12.54825 -18.84928,13.38605c-4.59466,1.99544 0.67085,-5.42516 0.16601,-6.23997c-0.85626,-1.38199 12.80329,-12.7131 12.80329,-12.7131c0,0 2.83369,-2.78769 4.73046,-1.9564c1.24029,0.54358 2.20451,2.827 3.965,2.41859c2.08253,-0.48313 11.98119,-3.21838 14.29363,-3.98647c6.9445,-2.30664 6.37843,-3.25324 7.77746,-3.30897c0.06682,-0.00266 -0.53654,-7.49647 0.38468,-12.47698c0.54742,-2.95953 1.11414,-4.73809 1.47447,-4.7346c0.41477,0.00402 4.08469,4.50242 4.76424,7.98737c0.38013,1.94945 -0.57619,3.28991 -0.44715,4.38214c0.33172,2.80762 -1.77724,5.41395 -1.91804,5.8345c-0.67279,2.00949 -6.48803,6.25119 -6.48803,6.25119c0,0 -4.96281,2.16574 -8.16356,2.89423c-4.11794,0.93723 -14.49319,2.26239 -14.49319,2.26239z" fill="#180f05" stroke-width="2" stroke-linecap="butt"/><g stroke-linecap="butt"><path d="M255.5169,163.12637c0,0 -25.40133,-13.52924 -31.8518,-18.11679c-3.38295,-2.40594 -4.00891,-7.38719 -4.00891,-7.38719l3.21389,-4.66712c0,0 11.9092,3.749 15.25733,6.0546c4.46854,3.07714 9.17642,10.77105 9.17642,10.77105z" fill="#091f57" stroke-width="2.5"/><path d="M198.81126,141.2795c-1.43215,-1.17652 -4.07503,-6.20263 -5.01292,-7.10941c-1.58738,-1.53471 -4.92967,-11.02629 -4.92967,-11.02629c0,0 6.73912,-2.86588 10.18593,-6.17726c3.44681,-3.31137 11.18001,-14.34914 11.18001,-14.34914l12.51699,-1.14269l17.68468,-11.29928c0,0 9.33733,3.87459 14.83469,6.20704c2.57044,1.09059 20.28094,7.61351 20.28094,7.61351c0,0 -37.40867,-1.6128 -57.59737,8.84727c-10.46489,5.422 -17.32456,19.9611 -18.26102,21.65991c-1.33178,2.41602 0.93827,8.27188 -0.88225,6.77632z" fill="#0b0b0b" stroke-width="2.5"/><path d="M208.56707,147.43375c-1.44578,-0.04094 -4.14502,-0.63209 -5.84841,-2.047c-1.34001,-1.11308 -1.74294,-2.9778 -2.61664,-3.84037c-0.73233,-0.72299 -1.69069,-5.51449 -0.96924,-9.94818c0.73533,-4.5189 3.16572,-8.68483 4.00897,-9.79466c1.87408,-2.46655 22.97496,-16.23444 31.96912,-22.04535c2.46598,-1.59322 -5.41265,9.93683 -5.41265,9.93683l16.22456,-8.82145l30.73634,3.2778l-30.23559,4.49822c0,0 -16.28098,8.01755 -24.04874,12.29659c-10.18831,5.61247 -15.68319,19.06778 -16.62923,20.76001c-1.34542,2.40662 5.40467,5.80071 2.82153,5.72758z" fill="#091f57" stroke-width="2"/><path d="M299.85065,201.06609c0,0 -50.72824,-35.26666 -59.96772,-41.72777c-2.59004,-1.8112 -6.02447,-7.11567 -6.02447,-7.11567c0,0 -12.0808,-1.76261 -14.43128,-3.38122c-5.25983,-3.62205 -10.00886,-10.04917 -10.00886,-10.04917l3.59199,-5.21619l6.36362,6.08197c0,0 1.29789,-2.50591 1.93254,-2.06888c1.79017,1.23275 -0.62691,4.05329 2.68447,6.39109c0.23411,0.16528 2.2631,0.39419 4.1606,0.42684c2.27387,0.03912 4.47862,-0.12115 4.79313,0.10069c4.9001,3.4563 9.46914,8.32863 15.54651,12.63229c23.89857,16.92367 52.69665,37.39995 52.69665,37.39995c0,0 1.28409,2.71953 0.71015,3.55301c-0.61984,0.90012 -2.04732,2.97306 -2.04732,2.97306z" fill="#333333" stroke-width="2"/><path d="M226.60936,158.4951c0,0 -2.668,0.65895 -5.61351,-1.36939c-2.01339,-1.38647 -5.25033,-5.70414 -8.69253,-8.74386c-2.93588,-2.59261 -6.28421,-4.06568 -6.28421,-4.06568l-1.66703,-8.86353c0,0 2.54032,-3.52808 6.02037,-6.68838c3.46524,-3.14686 7.8678,-5.92521 9.00866,-6.29211c3.25019,-1.04526 4.251,4.6967 4.45589,5.11333c0.15554,0.31627 0.16463,4.04913 -1.07625,6.69789c-1.48452,3.16887 -4.04631,6.3797 -4.04631,6.3797l-4.08917,-4.60399c0,0 -4.17572,4.75734 -3.04227,5.94787c1.9801,2.07981 4.74412,5.09591 6.82764,6.53068c3.36036,2.31402 12.81552,3.60573 12.81552,3.60573c0,0 1.93252,0.85317 2.31092,1.28036c0.78887,0.89057 51.85909,36.02489 51.85909,36.02489c0,0 4.05892,4.99484 -0.91738,2.37464c-6.58623,-3.4679 -36.07423,-25.99204 -51.31662,-33.99032c-5.45273,-2.86126 -6.55282,0.66219 -6.55282,0.66219z" fill="#0b0b0b" stroke-width="2"/><path d="M243.13239,104.41249c-1.74365,-1.20072 -2.18379,-3.58763 -0.98307,-5.33128c1.20072,-1.74365 3.58762,-2.18378 5.33127,-0.98306c1.74365,1.20072 2.18379,3.58761 0.98307,5.33127c-1.20072,1.74365 -3.58762,2.1838 -5.33127,0.98307z" fill="#1449cd" stroke-width="2"/><g stroke-width="0"><path d="M243.10386,103.43782c-1.68158,-1.05208 -2.25109,-3.1978 -1.27202,-4.79261c0.97907,-1.59481 3.13594,-2.03476 4.81752,-0.9827c1.68158,1.05208 2.25107,3.19778 1.27201,4.79259c-0.97907,1.59481 -3.13593,2.03478 -4.81751,0.98271z" fill="#1048db"/><path d="M241.15918,106.56148c-3.43628,-2.14989 -4.60003,-6.53464 -2.59932,-9.7936c2.00069,-3.25897 6.40823,-4.15804 9.8445,-2.00815c3.43628,2.14989 4.60005,6.53466 2.59935,9.79359c-2.00069,3.25897 -6.40824,4.15801 -9.8445,2.00812z" fill="url(#color-1)"/></g><path d="M289.7591,195.6825c0,0 -1.41162,-0.03254 -2.01745,-0.44973c-0.58295,-0.40144 -1.55152,-2.00795 -1.55152,-2.00795c0,0 1.73021,-2.25678 2.05629,-3.63907c0.4221,-1.78935 0.26342,-6.19454 0.26342,-6.19454c0,0 1.62319,0.33483 2.08159,0.65049c0.65773,0.45292 1.4874,1.8072 1.4874,1.8072c0,0 -0.85479,5.43054 -1.18514,6.8309c-0.4208,1.78379 -1.13456,3.00269 -1.13456,3.00269z" fill="#180f05" stroke-width="2"/><path d="M293.4226,198.00292c0,0 -1.41162,-0.03254 -2.01745,-0.44973c-0.58295,-0.40144 -1.55152,-2.00795 -1.55152,-2.00795c0,0 1.7302,-2.25679 2.05628,-3.63907c0.4221,-1.78935 0.26342,-6.19454 0.26342,-6.19454c0,0 1.62319,0.33483 2.08159,0.65049c0.65773,0.45292 1.4874,1.8072 1.4874,1.8072c0,0 -0.85479,5.43054 -1.18514,6.8309c-0.4208,1.78379 -1.13457,3.0027 -1.13457,3.0027z" fill="#180f05" stroke-width="2"/><path d="M296.43347,200.68335c0,0 -1.41162,-0.03254 -2.01745,-0.44973c-0.58295,-0.40144 -1.55152,-2.00795 -1.55152,-2.00795c0,0 1.7302,-2.25679 2.05628,-3.63907c0.4221,-1.78935 0.26342,-6.19454 0.26342,-6.19454c0,0 1.62319,0.33483 2.08159,0.65049c0.65773,0.45292 1.4874,1.8072 1.4874,1.8072c0,0 -0.85479,5.43054 -1.18514,6.8309c-0.4208,1.78379 -1.13457,3.0027 -1.13457,3.0027z" fill="#180f05" stroke-width="2"/><path d="M199.29578,133.63995l-4.37877,-7.62916c0,0 4.33051,-3.42953 7.07352,-5.50127c3.48646,-2.63324 10.72665,-13.64757 10.72665,-13.64757c0,0 3.71668,0.45975 4.69887,1.1775c0.93614,0.68409 1.06277,3.03294 1.06277,3.03294c0,0 -8.8752,6.2026 -12.06186,9.9515c-3.20754,3.77346 -7.1212,12.61607 -7.1212,12.61607z" fill="#1a1a1a" stroke-width="2"/></g></g></g></svg>