<svg version="1.1" xmlns="http://www.w3.org/2000/svg" xmlns:xlink="http://www.w3.org/1999/xlink" width="130.55137" height="72.35206" viewBox="0,0,130.55137,72.35206"><defs><linearGradient x1="240" y1="180.00005" x2="240" y2="180.00005" gradientUnits="userSpaceOnUse" id="color-1"><stop offset="0" stop-color="#333333"/><stop offset="1" stop-color="#515151"/></linearGradient><linearGradient x1="326.2388" y1="167.85982" x2="314.95942" y2="162.96687" gradientUnits="userSpaceOnUse" id="color-2"><stop offset="0" stop-color="#1f1f1f"/><stop offset="1" stop-color="#0a0a0a"/></linearGradient><linearGradient x1="326.62399" y1="168.0278" x2="314.57385" y2="162.80052" gradientUnits="userSpaceOnUse" id="color-3"><stop offset="0" stop-color="#1f1f1f"/><stop offset="1" stop-color="#0a0a0a"/></linearGradient><linearGradient x1="322.61391" y1="164.07657" x2="320.70776" y2="163.2497" gradientUnits="userSpaceOnUse" id="color-4"><stop offset="0" stop-color="#1f1f1f"/><stop offset="1" stop-color="#0a0a0a"/></linearGradient><linearGradient x1="322.89739" y1="163.33124" x2="321.26968" y2="162.62514" gradientUnits="userSpaceOnUse" id="color-5"><stop offset="0" stop-color="#1f1f1f"/><stop offset="1" stop-color="#0a0a0a"/></linearGradient><linearGradient x1="238.18551" y1="123.72582" x2="237.82061" y2="133.57131" gradientUnits="userSpaceOnUse" id="color-6"><stop offset="0" stop-color="#2e1800"/><stop offset="1" stop-color="#4e3310"/></linearGradient></defs><g transform="translate(-196.96835,-123.15673)"><g data-paper-data="{&quot;isPaintingLayer&quot;:true}" fill-rule="nonzero" stroke-linejoin="miter" stroke-miterlimit="10" stroke-dasharray="" stroke-dashoffset="0" style="mix-blend-mode: normal"><path d="" fill="url(#color-1)" stroke="#000000" stroke-width="1.5" stroke-linecap="butt"/><g stroke="#000000" stroke-linecap="butt"><g stroke-width="1"><path d="M313.78258,166.05473c0.04239,-0.11125 0.08713,-0.21849 0.13382,-0.32211c0.33855,-0.74614 0.93399,-1.36942 1.50964,-1.9721c0.63605,-0.6653 1.29364,-1.35334 1.62193,-2.21476c0.01497,-0.03927 0.02948,-0.07899 0.04302,-0.11914c0.16475,-0.48492 0.25299,-1.07217 0.33868,-1.64017c0.0962,-0.64043 0.19574,-1.30292 0.40809,-1.86007c0.35956,-0.94344 0.99617,-1.43037 1.94571,-1.48905c1.84288,-0.11369 2.23452,0.79612 2.94596,2.44816c0.21843,0.50735 0.46617,1.08243 0.80496,1.76562c0.07593,0.15329 0.3509,0.44718 0.64218,0.7587c1.12233,1.19983 3.21186,3.43337 2.1259,6.2829c-0.83581,2.19304 -3.54123,3.12185 -5.33175,3.73651c-0.41051,0.14113 -0.76549,0.26299 -1.0259,0.37606c-1.45239,0.63062 -5.0966,0.83111 -6.07015,-0.56045c-0.83877,-1.19858 -0.70557,-3.58038 -0.09209,-5.1901z" fill="url(#color-2)"/><path d="M325.91761,167.52546c1.30348,-3.42022 -2.29326,-5.82333 -2.74836,-6.74162c-1.46361,-2.95086 -1.32241,-4.08218 -3.31469,-3.9592c-0.90474,0.05581 -1.36287,0.56379 -1.63149,1.26864c-0.38478,1.0096 -0.38053,2.42295 -0.74269,3.48861c-0.01494,0.04393 -0.03064,0.08749 -0.04712,0.13072c-0.65846,1.72777 -2.46242,2.71216 -3.13949,4.20607c-0.04394,0.09719 -0.08609,0.19848 -0.12593,0.30291c-0.58658,1.53915 -0.69361,3.78716 0.03882,4.83365c0.78215,1.11792 4.1264,1.0054 5.53651,0.39322c1.41006,-0.6122 5.20668,-1.38385 6.17439,-3.923M325.91761,167.52546l0.77045,0.33423v0c-0.8919,2.34028 -3.69029,3.30096 -5.54212,3.93666c-0.40353,0.13843 -0.75167,0.25811 -0.99871,0.36526c-1.42776,0.62005 -5.40369,0.98821 -6.60359,-0.72732c-0.95084,-1.35775 -0.78481,-3.87127 -0.14621,-5.54693c0.0448,-0.11754 0.09266,-0.23213 0.14194,-0.34092c0.36137,-0.79749 0.97673,-1.44155 1.57204,-2.06429c0.6413,-0.67118 1.24701,-1.30496 1.55143,-2.10376c0.01352,-0.0355 0.02659,-0.07127 0.03892,-0.10759c0.15474,-0.45631 0.23685,-1.00237 0.32412,-1.5808c0.09898,-0.65861 0.20141,-1.33969 0.42674,-1.93095c0.40658,-1.06685 1.16714,-1.64191 2.26014,-1.70944c2.16168,-0.1334 2.67757,1.0651 3.39188,2.72385c0.2164,0.50262 0.4615,1.07194 0.79444,1.74306c0.05869,0.10825 0.3415,0.4107 0.56854,0.65353c1.18475,1.26611 3.3893,3.62278 2.22046,6.68964z" fill="url(#color-3)"/></g><path d="M321.86035,163.91219c-0.38336,0.47808 -0.78401,0.90203 -1.35508,1.18239c-0.29116,0.14275 -0.5454,-0.35782 -0.2362,-0.48592c1.14766,-0.47713 1.58564,-2.19729 2.9265,-2.29649c0.04482,-0.00289 0.08549,0.05206 0.05522,0.08523c-0.46279,0.51143 -0.95729,0.97503 -1.39046,1.51479z" fill="url(#color-4)" stroke-width="0.5"/><path d="M321.0542,164.14039c-0.17392,0.11709 -0.4015,-0.15673 -0.22797,-0.27592c0.81328,-0.5579 1.18571,-2.25995 2.48301,-2.04305c0.1068,0.01747 0.15552,0.18566 0.04253,0.21042c-0.67246,0.1492 -1.0432,0.42466 -1.40222,0.96936c-0.26414,0.40176 -0.48074,0.85929 -0.89532,1.13915z" fill="url(#color-5)" stroke-width="0.5"/></g><path d="M247.94182,145.58566c0,0 -3.21038,-3.21444 3.16061,-3.34746c6.37099,-0.13302 10.19141,2.16793 12.62648,3.01783" data-paper-data="{&quot;index&quot;:null}" fill="none" stroke="#000000" stroke-width="10" stroke-linecap="round"/><path d="M248.14181,145.38566c0,0 -3.21038,-3.21444 3.16061,-3.34746c6.37099,-0.13302 10.19141,2.16793 12.62648,3.01783" data-paper-data="{&quot;index&quot;:null}" fill="none" stroke="#333333" stroke-width="7" stroke-linecap="round"/><path d="M267.6992,149.21762c-2.45091,1.23684 -5.04609,1.06055 -5.99212,-1.01051c-0.94603,-2.07107 -0.67749,-4.91933 1.77342,-6.15616c2.45091,-1.23684 6.15606,-0.39388 7.10209,1.67719c0.94603,2.07107 -2.88338,5.48948 -2.88338,5.48948z" fill="#000000" stroke="#000000" stroke-width="0" stroke-linecap="butt"/><path d="M222.68098,169.81765c0.93469,-1.83118 -0.2454,-7.75402 2.31841,-13.6319c2.12306,-4.86742 6.09944,-8.76152 6.09944,-8.76152" data-paper-data="{&quot;index&quot;:null}" fill="none" stroke="#000000" stroke-width="10" stroke-linecap="round"/><path d="M236.08644,176.43687c0,0 2.44481,-1.70037 3.64032,-1.76148c1.32409,-0.06769 3.95794,1.37308 3.95794,1.37308" fill="none" stroke="#000000" stroke-width="10" stroke-linecap="round"/><path d="M222.30655,168.2832c1.06931,-1.75095 0.18286,-7.75683 3.16409,-13.41277c2.46872,-4.68364 6.7985,-8.24511 6.7985,-8.24511" fill="none" stroke="#333333" stroke-width="7" stroke-linecap="round"/><path d="M233.11992,188.4304c0,0 -0.7336,-8.57935 -0.1052,-13.31549c0.6284,-4.73614 3.26111,-10.4703 3.26111,-10.4703" fill="none" stroke="#000000" stroke-width="10" stroke-linecap="round"/><path d="M243.05758,164.98998c0,0 2.72929,6.66483 3.4084,11.09427c0.67911,4.42944 0.1052,12.69777 0.1052,12.69777" fill="none" stroke="#000000" stroke-width="9.5" stroke-linecap="round"/><path d="M229.24489,189.39335c0,0 2.63682,-1.37022 3.9546,-1.37022c1.31693,0 3.94952,1.37022 3.94952,1.37022c0,0 0,2.97828 0,3.91896c0,0.60315 -0.65372,1.17756 -1.1594,1.17756c-1.67822,0 -4.79899,0 -5.70236,0c-0.38589,0 -1.04235,-0.94711 -1.04235,-0.94711z" fill="#232323" stroke="#000000" stroke-width="2" stroke-linecap="butt"/><path d="M242.4062,189.41227c0,0 2.74848,-1.16649 4.07087,-1.16649c1.31225,0 3.83325,1.16649 3.83325,1.16649c0,0 0,2.97828 0,3.91896c0,0.60315 -0.7221,1.17756 -1.22778,1.17756c-1.67822,0 -4.66223,0 -5.5656,0c-0.38589,0 -1.11073,-0.94711 -1.11073,-0.94711z" fill="#232323" stroke="#000000" stroke-width="2" stroke-linecap="butt"/><path d="M229.16473,168.35997c0,0 -0.66741,-0.06673 -0.43413,-3.29308c0.04292,-0.59368 -1.01908,-1.56091 -0.8372,-2.71229c0.16072,-1.01742 1.72838,-2.72473 1.72838,-3.1752c0,-0.53132 -1.14077,-1.87661 -1.30139,-3.16927c-0.12174,-0.9797 0.72359,-1.92917 0.73377,-2.47111c0.03817,-2.03355 0.61325,-2.5039 0.89442,-3.90605c0.3147,-1.56939 0.3544,-3.39892 0.3544,-3.39892c0,0 4.05105,-3.79264 5.96273,-3.80367c2.05131,-0.01184 4.63274,-1.12745 7.85997,-0.31728c2.47367,0.621 5.97948,3.53249 5.97948,3.53249c0,0 -0.63332,1.51327 -0.08112,3.77563c0.29895,1.22483 0.82818,4.03913 0.82818,5.50727c0,0.76271 -0.79761,2.75653 -0.81631,4.88125c-0.0134,1.52213 0.77297,3.16801 0.69096,4.21535c-0.08764,1.11916 -0.99524,5.26428 -0.99524,5.26428c0,0 -7.00004,1.83951 -10.17139,1.83951c-3.08421,0 -10.3955,-2.76891 -10.3955,-2.76891z" fill="#24180f" stroke="#000000" stroke-width="2.5" stroke-linecap="butt"/><path d="M232.51549,138.77776c0,-0.1431 -1.98277,-2.17549 -1.98063,-2.31907c0.08013,-5.38844 4.04824,-9.98357 8.88271,-9.98357c1.17987,0 5.27915,2.8254 6.42766,5.13536c0.35857,0.72117 1.4464,2.2104 1.70236,3.63532c0.3087,1.71854 -0.24911,3.34353 -0.24911,3.41472c0,2.18158 -0.51107,4.47191 -0.51107,4.47191c0,0 -5.01273,2.51624 -7.40424,2.51624c-2.5907,0 -7.59024,-2.51624 -7.59024,-2.51624c0,0 0.72256,-1.8728 0.72256,-4.35467z" fill="#333333" stroke="#000000" stroke-width="2.5" stroke-linecap="butt"/><path d="M247.86271,143.61945c0,0 0.60436,-0.59648 0.91803,-0.50938c0.3298,0.09156 1.01478,1.04604 1.01478,1.04604c0,0 -1.09683,8.38465 -6.31171,14.91017c-5.57928,6.9815 -14.27689,11.44282 -14.27689,11.44282l-0.11759,-0.83601" fill="none" stroke="#000000" stroke-width="4" stroke-linecap="round"/><path d="M237.11728,135.7327c0,-0.94897 0.60766,-1.71827 1.35724,-1.71827c0.74958,0 1.35725,0.7693 1.35725,1.71827c0,0.94897 -0.60767,1.71827 -1.35725,1.71827c-0.74958,0 -1.35724,-0.76929 -1.35724,-1.71827z" fill="#000000" stroke="#000000" stroke-width="1.5" stroke-linecap="butt"/><path d="M242.33512,135.46285c0,-0.94897 0.60767,-1.71827 1.35725,-1.71827c0.74958,0 1.35724,0.76929 1.35724,1.71827c0,0.94897 -0.60766,1.71828 -1.35724,1.71828c-0.74958,0 -1.35725,-0.7693 -1.35725,-1.71828z" fill="#000000" stroke="#000000" stroke-width="1.5" stroke-linecap="butt"/><g stroke="#000000" stroke-width="2" stroke-linecap="butt"><path d="M206.54148,137.0342l22.58451,40.27039l-2.96582,2.01764l-22.58451,-40.27039z" fill="#2f1900"/><path d="M224.18308,141.63125l2.19632,4.92415c0,0 -12.26358,-3.39534 -16.65836,-1.06748c-4.56226,2.41658 -9.46948,15.10296 -9.46948,15.10296l-2.19632,-4.92414c0,0 5.22796,-12.85627 9.84644,-15.30264c4.32561,-2.29123 16.28139,1.26715 16.28139,1.26715z" fill="#242424"/></g><path d="M225.95416,168.2087c0,2.85764 -1.86242,5.17421 -4.15982,5.17421c-2.29741,0 -4.15983,-2.31657 -4.15983,-5.17421c0,-2.85764 1.86242,-5.17421 4.15983,-5.17421c2.29741,0 4.15982,2.31657 4.15982,5.17421z" fill="#000000" stroke="#000000" stroke-width="0" stroke-linecap="butt"/><g stroke="#000000"><path d="M229.97804,132.12962c0,0 -0.28983,-0.99069 0.29817,-2.3728c1.04307,-2.45181 3.6343,-5.93207 6.84614,-5.84861c4.61003,0.11978 9.44246,5.13666 9.44246,5.13666l-0.10245,2.29063c0,0 -5.26683,1.7828 -8.52841,1.93993c-3.26158,0.15713 -7.9559,-1.1458 -7.9559,-1.1458z" fill="url(#color-6)" stroke-width="1.5" stroke-linecap="butt"/><path d="M230.30831,130.00089c0,0 5.19407,0.60722 7.65869,0.46285c2.58491,-0.15142 7.50712,-1.35123 7.50712,-1.35123" fill="none" stroke-width="1.5" stroke-linecap="round"/><path d="M238.0352,129.39962c0.0358,-0.96582 0.9999,-1.72448 2.15339,-1.69451c1.15348,0.02997 2.05955,0.83722 2.02375,1.80304c-0.0358,0.96582 -0.9999,1.72448 -2.15338,1.69451c-1.15348,-0.02997 -2.05955,-0.83722 -2.02376,-1.80305z" fill="#e0e0e0" stroke-width="1" stroke-linecap="butt"/></g></g></g></svg>