<svg version="1.1" xmlns="http://www.w3.org/2000/svg" xmlns:xlink="http://www.w3.org/1999/xlink" width="257.62995" height="190.93575" viewBox="0,0,257.62995,190.93575"><defs><radialGradient cx="244.55035" cy="135.6888" r="3.56128" gradientUnits="userSpaceOnUse" id="color-1"><stop offset="0" stop-color="#ff1c1c"/><stop offset="1" stop-color="#ff1c1c" stop-opacity="0"/></radialGradient></defs><g transform="translate(-115.68223,-76.16732)"><g data-paper-data="{&quot;isPaintingLayer&quot;:true}" fill-rule="nonzero" stroke-linejoin="miter" stroke-miterlimit="10" stroke-dasharray="" stroke-dashoffset="0" style="mix-blend-mode: normal"><g stroke="#000000" stroke-width="1.5" stroke-linecap="butt"><g><path d="M178.07957,115.55509c0,0 -6.08581,-12.57693 -17.27763,-21.21079c-11.19184,-8.63383 -31.96155,-16.95546 -31.96155,-16.95546c0,0 27.57012,2.54903 38.43028,7.84166c10.86015,5.29264 19.29015,17.93199 22.26248,21.3568c0.38749,0.44647 -2.23403,3.93339 -4.77974,6.19408c-1.98594,1.76362 -6.67385,2.7737 -6.67385,2.7737z" data-paper-data="{&quot;index&quot;:null}" fill="#160f3d"/><path d="M182.08306,113.05884c0,0 -2.8303,-3.87424 -6.16575,-8.42378c-2.40675,-3.28282 -5.37954,-7.14496 -7.87737,-9.20647c-5.95953,-4.91851 -15.90898,-11.20031 -15.90898,-11.20031c0,0 7.32264,1.35266 13.6262,4.67776c6.64517,3.50528 12.81905,10.3392 14.04456,11.51617c2.07027,1.98824 6.41466,9.60264 6.41466,9.60264z" data-paper-data="{&quot;index&quot;:null}" fill="#2a2355"/></g><g><path d="M181.08373,117.3744c0,0 -9.63905,-10.11461 -22.93438,-14.91403c-13.29532,-4.79941 -35.61464,-6.37376 -35.61464,-6.37376c0,0 27.02963,-6.00069 38.98781,-4.28116c11.95817,1.71953 23.84829,11.17696 27.72526,13.52925c0.50542,0.30666 -0.92473,4.42801 -2.65752,7.35869c-1.35179,2.28626 -5.50652,4.68103 -5.50652,4.68103z" data-paper-data="{&quot;index&quot;:null}" fill="#160f3d"/><path d="M184.1325,113.77383c0,0 -3.87915,-2.82362 -8.44562,-6.13582c-3.29503,-2.38998 -7.30611,-5.15853 -10.31456,-6.35782c-7.17776,-2.86134 -18.57123,-5.80111 -18.57123,-5.80111c0,0 7.38562,-0.95048 14.40387,0.28857c7.39859,1.30619 15.36597,5.92574 16.89259,6.67175c2.57894,1.26025 9.04295,7.18214 9.04295,7.18214z" data-paper-data="{&quot;index&quot;:null}" fill="#2a2355"/></g><g data-paper-data="{&quot;index&quot;:null}"><path d="M182.30941,117.23117c0,0 -12.99727,-5.12714 -27.07851,-3.89464c-14.08123,1.2325 -34.99551,9.18381 -34.99551,9.18381c0,0 22.00496,-16.80451 33.57848,-20.26975c11.57354,-3.46525 26.33727,0.11956 30.84382,0.6247c0.58749,0.06587 1.0218,4.40663 0.68111,7.79415c-0.26579,2.64268 -3.02938,6.56172 -3.02938,6.56172z" data-paper-data="{&quot;index&quot;:null}" fill="#160f3d"/><path d="M183.5627,112.68275c0,0 -4.7066,-0.93192 -10.24221,-2.0183c-3.99432,-0.78391 -8.79753,-1.61041 -12.03142,-1.43432c-7.71567,0.42013 -19.28956,2.54081 -19.28956,2.54081c0,0 6.30227,-3.96636 13.1914,-5.79151c7.26244,-1.92408 16.43349,-1.08065 18.13226,-1.04529c2.86978,0.05971 11.22398,2.71673 11.22398,2.71673z" data-paper-data="{&quot;index&quot;:null}" fill="#2a2355"/></g><g><path d="M186.4275,111.42973c0,0 3.89632,-0.14855 3.94006,3.82056c0.11601,10.52396 11.62258,32.44259 11.62258,32.44259c0,0 0.4337,3.68086 -1.77489,5.01475c-0.59357,0.35848 -3.16321,-0.83529 -3.63883,-0.64324c-0.63886,0.25796 -9.19305,-17.31123 -9.90813,-33.22761c-0.09977,-2.22058 -0.24081,-7.40705 -0.24081,-7.40705z" fill="#100d25"/><path d="M192.21037,151.71463c-0.51518,0.11071 -6.66191,-19.03494 -7.84835,-24.26921c-1.09834,-4.84548 -1.95923,-15.06408 -1.95923,-15.06408l4.36433,-0.86236c0,0 0.30257,10.61905 1.70573,15.60295c1.37275,4.87596 9.40621,24.91046 9.40621,24.91046c0,0 -1.406,0.25597 -2.72191,0.35813c-1.07659,0.08357 -2.55957,-0.75909 -2.94675,-0.67589z" data-paper-data="{&quot;index&quot;:null}" fill="#160f3d"/></g><g><path d="M199.44807,153.23433c0,0 4.09223,-3.0931 5.79956,0.29897c4.52698,8.994 22.68081,21.4984 22.68081,21.4984c0,0 1.91734,2.9074 0.60235,5.39544c-0.35341,0.66869 -3.03874,1.19854 -3.36199,1.65238c-0.43418,0.60954 -14.14298,-10.30359 -21.44801,-23.57887c-1.01918,-1.85211 -4.27272,-5.26629 -4.27272,-5.26629z" fill="#100d25"/><path d="M222.68003,185.4128c-0.3706,0.38638 -14.0863,-11.41909 -18.19658,-15.93538c-0.22705,-0.24946 -9.25249,-11.72638 -9.25249,-11.72638l4.54315,-4.64571c0,0 4.83636,8.75159 8.12557,12.19346c3.21799,3.36735 18.36223,15.96336 18.36223,15.96336c0,0 -1.08671,1.07298 -2.16163,1.95885c-0.87944,0.72478 -1.12633,1.88537 -1.42023,2.19179z" data-paper-data="{&quot;index&quot;:null}" fill="#160f3d"/></g><g><path d="M211.19068,146.37406l-4.0005,6.44374c0,0 -1.56428,-0.85493 -1.95439,-1.25103c-0.39011,-0.39609 -1.40239,-1.27403 -1.55012,-1.69222c-0.14774,-0.41821 -0.11166,-2.30921 -0.11166,-2.30921z" fill="#160f3d"/><path d="M195.73857,146.44705l7.37822,-1.12474l5.13055,10.32193l-5.91574,5.00637l-7.37543,1.60007l-5.13054,-10.3219z" fill="#2a2355"/></g><path d="M185.46942,120.41614c-4.41644,-0.46342 -7.621,-4.41936 -7.15758,-8.8358c0.46341,-4.41644 4.41937,-7.62099 8.83581,-7.15757c4.41644,0.46342 7.621,4.41936 7.15757,8.83581c-0.46341,4.41644 -4.41937,7.62099 -8.83581,7.15757z" fill="#100d25"/><path d="M182.85179,114.93325c-1.3089,-2.13833 -0.63653,-4.93286 1.50181,-6.24175c2.13833,-1.3089 4.93286,-0.63653 6.24175,1.50181c1.3089,2.13833 0.63653,4.93286 -1.50181,6.24175c-2.13833,1.3089 -4.93286,0.63653 -6.24175,-1.50181z" fill="#2a2355"/><path d="M198.45672,155.79799c-1.3285,-0.56136 -2.15094,-2.34376 -1.58959,-3.67227c0.56136,-1.3285 2.09336,-1.95037 3.42187,-1.38904c1.32849,0.56135 1.95039,2.09336 1.38906,3.42187c-0.56136,1.3285 -1.89283,2.2008 -3.22134,1.63943z" fill="#160f3d"/><g><path d="M219.72287,177.32432l6.19205,-3.77429l9.0602,2.40184l-5.57768,5.30188l0.66916,6.90299l-9.16105,-2.80943z" fill="#2a2355"/><path d="M231.6191,182.84342c-1.14281,1.95652 -3.65532,2.61613 -5.61183,1.47337c-1.9565,-1.14279 -2.61614,-3.6553 -1.47337,-5.61181c1.14281,-1.95648 3.65531,-2.61613 5.61182,-1.47337c1.9565,1.1428 2.61614,3.65532 1.47338,5.61183z" fill="#160f3d"/><path d="M229.63912,188.91093c0,0 -2.48093,-5.34669 -1.55677,-8.40508c0.92416,-3.05838 5.74362,-5.87973 5.74362,-5.87973l6.05152,1.59558l-1.40601,14.69827z" fill="#160f3d"/></g></g><g stroke="#000000" stroke-width="1.5" stroke-linecap="butt"><g><path d="M310.89689,120.9419c0,0 -4.49528,-1.67001 -6.20864,-3.69949c-2.19626,-2.60147 -4.29228,-6.42739 -3.84493,-6.81387c3.43152,-2.96461 13.58217,-14.26869 25.08751,-17.95406c11.50533,-3.68538 39.15664,-2.266 39.15664,-2.266c0,0 -21.7462,5.26629 -34.05756,12.2111c-12.31136,6.94481 -20.13297,18.52234 -20.13297,18.52234z" data-paper-data="{&quot;index&quot;:null}" fill="#160f3d"/><path d="M303.63449,114.30502c0,0 5.38852,-6.91495 7.72182,-8.58676c1.3812,-0.98963 8.46882,-6.87053 15.54692,-9.38962c6.71421,-2.38958 14.15505,-2.68131 14.15505,-2.68131c0,0 -10.74545,4.7946 -17.34702,8.81042c-2.76693,1.68316 -6.26143,5.08058 -9.11284,7.9855c-3.95169,4.02588 -7.30688,7.45559 -7.30688,7.45559z" data-paper-data="{&quot;index&quot;:null}" fill="#2a2355"/></g><g><path d="M307.23311,122.56758c0,0 -3.7696,-2.96422 -4.78058,-5.42028c-1.29592,-3.14831 -2.12208,-7.43183 -1.57802,-7.66306c4.17349,-1.77377 17.29373,-9.43387 29.3749,-9.42585c12.08116,0.00801 37.97502,9.81197 37.97502,9.81197c0,0 -22.31508,-1.63321 -36.16006,1.2158c-13.84496,2.84901 -24.83124,11.48143 -24.83124,11.48143z" data-paper-data="{&quot;index&quot;:null}" fill="#160f3d"/><path d="M302.34714,114.02837c0,0 7.24436,-4.93678 9.97701,-5.8153c1.6176,-0.52004 10.16366,-3.9529 17.67298,-4.18775c7.12331,-0.22279 14.29711,1.77399 14.29711,1.77399c0,0 -11.69672,1.2804 -19.20988,3.08603c-3.14903,0.7568 -7.51475,2.92336 -11.11767,4.81764c-4.99316,2.6252 -9.23619,4.86515 -9.23619,4.86515z" data-paper-data="{&quot;index&quot;:null}" fill="#2a2355"/></g><g data-paper-data="{&quot;index&quot;:null}"><path d="M306.47086,121.99597c0,0 -2.17483,-4.27394 -2.06001,-6.92748c0.14718,-3.40142 1.1977,-7.6355 1.78859,-7.61666c4.53247,0.14444 19.65708,-1.29251 30.61621,3.79201c10.95911,5.08451 30.33511,24.86279 30.33511,24.86279c0,0 -19.56243,-10.86012 -33.32274,-14.09339c-13.76032,-3.23326 -27.35714,-0.01728 -27.35714,-0.01728z" data-paper-data="{&quot;index&quot;:null}" fill="#160f3d"/><path d="M305.62599,112.19409c0,0 8.64828,-1.43516 11.49711,-1.0839c1.68637,0.20792 10.88378,0.6845 17.79648,3.62726c6.55732,2.79147 12.22773,7.61823 12.22773,7.61823c0,0 -11.15175,-3.75382 -18.72805,-5.27288c-3.17548,-0.63668 -8.0475,-0.50547 -12.11289,-0.30078c-5.63408,0.2837 -10.42558,0.53304 -10.42558,0.53304z" data-paper-data="{&quot;index&quot;:null}" fill="#2a2355"/></g><g><path d="M302.96782,115.91237c0,0 -0.35793,5.17602 -0.55051,7.3905c-1.38041,15.87252 -10.66222,33.06839 -11.28976,32.78393c-0.4672,-0.21179 -3.08452,0.87343 -3.66256,0.49042c-2.15086,-1.42512 -1.56352,-5.08463 -1.56352,-5.08463c0,0 12.41362,-21.41798 12.96986,-31.92787c0.20978,-3.96378 4.09648,-3.65235 4.09648,-3.65235z" fill="#100d25"/><path d="M295.50444,155.92005c-0.38337,-0.09932 -1.9003,0.68054 -2.97245,0.55198c-1.31048,-0.15713 -2.70452,-0.47171 -2.70452,-0.47171c0,0 8.86471,-19.68082 10.44026,-24.49506c1.61045,-4.92083 2.35708,-15.51791 2.35708,-15.51791l4.32443,1.04423c0,0 -1.28771,10.17365 -2.58783,14.96892c-1.40443,5.18004 -8.34686,24.05174 -8.85696,23.91957z" data-paper-data="{&quot;index&quot;:null}" fill="#160f3d"/></g><g><path d="M288.20949,157.13556c0,0 -3.39353,3.27504 -4.48933,5.0829c-7.85408,12.958 -22.0075,23.28798 -22.4158,22.66079c-0.30398,-0.46696 -2.96479,-1.1087 -3.28991,-1.7916c-1.20973,-2.5409 0.8276,-5.3655 0.8276,-5.3655c0,0 18.66114,-11.73384 23.56046,-20.53056c1.84778,-3.31764 5.80699,-0.05602 5.80699,-0.05602z" fill="#100d25"/><path d="M263.65145,188.31377c-0.28082,-0.31845 -0.47896,-1.48836 -1.32729,-2.24931c-1.0369,-0.93008 -2.07778,-2.04758 -2.07778,-2.04758c0,0 15.65804,-11.9513 19.01409,-15.18104c3.43035,-3.30123 8.62864,-11.84279 8.62864,-11.84279l4.34479,4.83173c0,0 -9.49774,11.08919 -9.73504,11.32897c-4.29568,4.34035 -18.4933,15.56158 -18.84742,15.16005z" data-paper-data="{&quot;index&quot;:null}" fill="#160f3d"/></g><g><path d="M284.32434,151.29892c0,0 -0.04308,1.89086 -0.20819,2.30251c-0.16509,0.41165 -1.21321,1.24645 -1.61957,1.62587c-0.40636,0.3794 -2.00503,1.16814 -2.00503,1.16814l-3.72737,-6.60549z" fill="#160f3d"/><path d="M297.87811,156.23377l-5.55793,10.09819l-7.302,-1.90726l-5.7011,-5.2495l5.55794,-10.09822l7.3247,1.43248z" fill="#2a2355"/></g><path d="M295.02045,117.41c-0.27824,-4.43197 3.08905,-8.25035 7.52101,-8.52857c4.43197,-0.27823 8.25036,3.08904 8.52858,7.521c0.27824,4.43197 -3.08905,8.25035 -7.521,8.52858c-4.43197,0.27823 -8.25036,-3.08904 -8.52858,-7.521z" fill="#100d25"/><path d="M300.0947,120.80175c-2.08168,-1.39723 -2.63654,-4.21743 -1.23932,-6.29912c1.39723,-2.08168 4.21743,-2.63654 6.29912,-1.23932c2.08168,1.39723 2.63654,4.21743 1.23932,6.29912c-1.39723,2.08168 -4.21743,2.63654 -6.29912,1.23932z" fill="#2a2355"/><path d="M285.94278,157.96565c-0.50527,-1.35083 0.18019,-2.85549 1.53102,-3.36077c1.35083,-0.50527 2.8555,0.18016 3.36076,1.53099c0.50527,1.35083 -0.39101,3.09724 -1.74185,3.60255c-1.35084,0.50528 -2.64465,-0.42194 -3.14993,-1.77279z" fill="#160f3d"/><g><path d="M265.42707,188.32257l-9.27058,2.42367l0.95742,-6.86895l-5.35097,-5.5306l9.15277,-2.02066l6.02871,4.03007z" fill="#2a2355"/><path d="M254.82772,185.37263c-1.05993,-2.0026 -0.29575,-4.48531 1.70688,-5.54526c2.00262,-1.05993 4.48531,-0.29575 5.54523,1.70688c1.05993,2.0026 0.29576,4.4853 -1.70687,5.54523c-2.00262,1.05993 -4.4853,0.29577 -5.54525,-1.70688z" fill="#160f3d"/><path d="M247.64344,193.15538l-0.78978,-14.74422l6.11298,-1.34098c0,0 4.69718,3.02052 5.49256,6.11491c0.79537,3.0944 -1.90711,8.33258 -1.90711,8.33258z" fill="#160f3d"/></g></g><g stroke="#000000"><g><path d="M234.01088,156.44699l0.58562,-6.19175l-5.76891,-5.65072c0,0 5.50112,-1.499 5.53259,-2.04277c0.09199,-1.58929 -0.88006,-5.73125 -0.88006,-5.73125l-4.41961,-12.76642c0,0 10.89339,11.50214 20.68155,11.69318c9.78815,0.19105 19.84656,-10.90212 19.84656,-10.90212l-4.49888,14.78964l-1.78711,5.59203l3.79557,2.21916c0,0 -4.7123,3.10754 -4.78993,4.44876c-0.12136,2.09659 0.32283,6.19889 0.32283,6.19889c0,0 -10.24139,0.92194 -15.34729,0.6264c-4.29221,-0.24845 -13.2729,-2.28305 -13.2729,-2.28305z" fill="#160f3d" stroke-width="1.5" stroke-linecap="butt"/><path d="M255.37586,142.29383c0,0 1.74859,4.06583 1.32383,5.20984c-0.31028,0.8357 -3.55983,-0.13792 -3.55983,-0.13792c0,0 1.42948,4.20305 1.23321,4.38884c-2.29822,2.17581 -7.10901,2.61186 -7.10901,2.61186c0,0 -2.89814,-1.34438 -4.75811,-4.36216c-0.38932,-0.63166 1.32926,-3.67119 1.32926,-3.67119c0,0 -3.00513,0.18232 -3.1809,-0.81484c-0.19838,-1.12543 1.19604,-4.73443 1.19604,-4.73443l-4.32141,0.7514c0,0 -1.12166,-3.37647 -2.59575,-3.83567c-3.34878,-1.04323 -7.70356,-1.07504 -7.52139,-1.71177c0.3473,-1.21388 2.03875,-3.70785 4.30784,-4.65845c2.80695,-1.17595 7.75683,-0.4405 7.75683,-0.4405c0,0 5.12424,-3.95318 10.79738,-3.65918c5.67311,0.29399 9.07334,4.97621 9.07334,4.97621c0,0 4.76436,-1.36082 7.25011,0.11215c2.48576,1.47296 3.2447,4.56745 4.14181,5.74174c0.26626,0.34854 -4.86244,0.78668 -9.03927,1.67955c-1.55064,0.33149 -1.33907,4.7424 -1.33907,4.7424z" fill="#2a2355" stroke-width="1.5" stroke-linecap="butt"/><path d="M254.59728,134.01428c0.85916,-0.37979 4.39705,-1.18001 4.39705,-1.18001c0,0 1.9028,2.04388 -0.17138,2.9608c-0.94969,0.41981 -2.6545,0.56414 -4.21297,0.40992c-1.8453,-0.18261 -3.48949,-0.71429 -3.48949,-0.71429c0,0 2.40337,-1.00186 3.47678,-1.47639z" data-paper-data="{&quot;index&quot;:null}" fill="#c11515" stroke-width="1.25" stroke-linecap="butt"/><path d="M244.57252,143.08991l-0.14981,2.58805" fill="none" stroke-width="1.5" stroke-linecap="round"/><path d="M252.96885,143.70957l-0.14231,2.45866" fill="none" stroke-width="1.5" stroke-linecap="round"/><path d="M250.45452,144.9893l-0.18726,3.23507" fill="none" stroke-width="1.5" stroke-linecap="round"/><path d="M246.99507,144.78904l-0.18726,3.23506" fill="none" stroke-width="1.5" stroke-linecap="round"/><path d="M238.64783,130.09827c0.11223,-0.05388 0.7439,-1.21721 1.5306,-1.51043c0.78669,-0.29325 2.11632,-0.32691 2.4626,0.02196c0.76105,0.76677 1.50652,2.11994 1.96939,2.14673c2.54066,0.14707 4.89491,2.65279 4.74786,5.19344c-0.14708,2.54067 -2.64529,4.76551 -5.18594,4.61844c-0.72143,-0.04175 -2.84821,-1.03155 -3.85746,-2.33091c-0.78495,-1.01058 -1.11409,-1.66775 -1.06292,-2.87253c0.05116,-1.20479 0.72889,-2.14391 1.48555,-2.91236c0,0 -2.5728,-2.12244 -2.08966,-2.35433z" fill="#100d25" stroke-width="1.25" stroke-linecap="butt"/><path d="M241.76188,135.58951c0.08457,-1.46074 1.39649,-2.57298 2.93029,-2.4842c1.53381,0.08877 2.70865,1.34496 2.62409,2.8057c-0.08457,1.46074 -1.39649,2.57297 -2.93029,2.48419c-1.53381,-0.08877 -2.70865,-1.34495 -2.62409,-2.80569z" fill="#c11515" stroke-width="1" stroke-linecap="butt"/><path d="M254.28241,138.54173c0.69609,-0.3077 3.5624,-0.95603 3.5624,-0.95603c0,0 1.5416,1.6559 -0.13886,2.39877c-0.76941,0.34013 -2.15058,0.45706 -3.41325,0.33209c-1.49503,-0.14795 -2.8271,-0.57872 -2.8271,-0.57872c0,0 1.94715,-0.81168 2.81681,-1.19613z" data-paper-data="{&quot;index&quot;:null}" fill="#c11515" stroke-width="1.25" stroke-linecap="butt"/><path d="M240.99501,135.48299c0.11366,-1.96356 1.79757,-3.4632 3.76111,-3.34953c1.96356,0.11366 3.4632,1.79759 3.34954,3.76112c-0.11366,1.96356 -1.79758,3.46319 -3.76113,3.34952c-1.96356,-0.11366 -3.46319,-1.79757 -3.34953,-3.76112z" fill="url(#color-1)" stroke-width="0" stroke-linecap="butt"/></g><path d="M238.21612,125.85732c0.88493,-1.08974 -0.20012,-7.50946 -0.20012,-7.50946c0,0 5.3225,5.13158 6.71635,4.78053c2.13198,-0.53696 3.97438,-2.72153 6.78503,-2.4801c2.81066,0.24143 3.83631,2.43669 6.41435,3.61387c1.38145,0.6308 5.7033,-3.95043 5.7033,-3.95043c0,0 -1.33648,6.68561 -1.10833,7.34087c1.30697,3.75351 0.13343,9.331 0.13343,9.331c0,0 -3.73129,-5.61588 -5.30597,-6.55845c-1.57468,-0.94257 -2.55907,-1.37172 -3.99797,-0.6601c-1.43891,0.7116 -2.64409,2.86083 -2.64409,2.86083c0,0 -0.97059,-2.37437 -2.97023,-3.26968c-1.4984,-0.67088 -2.46436,-0.73375 -3.89218,-0.35842c-0.47764,0.12556 -1.73387,-0.51718 -2.69775,-0.08694c-0.96386,0.43023 -1.20273,1.69186 -1.91749,2.14702c-2.502,1.59333 -4.27137,3.52834 -4.27137,3.52834c0,0 0.27532,-5.06201 3.25305,-8.72891z" fill="#100d25" stroke-width="1.5" stroke-linecap="butt"/><path d="M260.16927,159.32503c-0.69287,0.01977 -2.7105,-1.13276 -2.7105,-1.13276c0,0 -0.94824,-3.09355 -0.76039,-4.38284c0.17318,-1.18873 1.84707,-3.07576 1.84707,-3.07576c0,0 1.77307,-1.30054 2.73979,-1.26753c0.84385,0.02882 1.9512,0.21659 2.86658,1.46659c0.9154,1.24999 1.05064,2.53253 0.88439,3.65545c-0.22424,1.5147 -1.23005,2.64812 -2.06393,3.45971c-0.83388,0.81159 -2.00758,1.25445 -2.803,1.27714z" data-paper-data="{&quot;index&quot;:null}" fill="#100d25" stroke-width="1.5" stroke-linecap="butt"/><path d="M231.62399,155.41529c-0.66896,-0.92102 -1.44724,-2.17789 -1.38715,-3.65023c0.04455,-1.09153 0.41481,-2.27804 1.54545,-3.28938c1.13066,-1.01135 2.25324,-0.98374 3.08755,-0.85477c0.95579,0.14775 2.45687,1.70453 2.45687,1.70453c0,0 1.29509,2.09242 1.24518,3.2474c-0.05412,1.25269 -1.55831,3.99946 -1.55831,3.99946c0,0 -2.19542,0.71526 -2.87242,0.56831c-0.77719,-0.16867 -1.84823,-0.80428 -2.5172,-1.7253z" fill="#100d25" stroke-width="1.5" stroke-linecap="butt"/></g><g stroke="#000000"><path d="M283.15413,238.17518c0,0 -0.87161,-1.92907 -0.80102,-2.34013c0.07058,-0.41106 0.87434,-1.50883 1.22987,-1.91013c0.35552,-0.40131 2.48906,-0.99684 2.48906,-0.99684l6.1542,6.03269z" fill="#2a2355" stroke-width="1.5" stroke-linecap="butt"/><g><path d="M253.40674,199.06298c0.5994,-1.44434 4.58156,0.22304 6.19534,3.32669c1.16713,2.24463 0.01443,4.38666 0.12615,4.25333c2.80911,-3.35182 5.12148,0.66934 7.39701,0.92115c0.68351,0.07565 10.56615,14.36676 10.56615,14.36676l6.08513,14.32994c0,0 -1.37285,3.067 -4.5882,2.77146c-1.03882,-0.09548 -4.42438,-0.46162 -8.76369,-4.00524c-7.17283,-5.85754 -20.04654,-20.44462 -20.04654,-20.44462c0,0 -3.24122,-5.04435 -2.63612,-8.34363c0.60617,-3.30525 5.17265,-5.99004 5.66477,-7.17588z" fill="#100d25" stroke-width="1.5" stroke-linecap="butt"/><path d="M267.53117,226.3987c0,0 -5.1114,-4.21284 -7.16445,-6.51468c-1.80349,-2.02203 -6.47261,-7.94413 -6.47261,-7.94413c0,0 0.60365,-5.50684 2.92317,-7.74036c2.3195,-2.23351 5.80045,-1.60337 6.60985,-1.07173c1.6744,1.09976 12.71177,18.51744 16.77853,22.34715c6.20087,5.83944 1.99771,6.34009 1.99771,6.34009l-3.38587,3.23024z" fill="#160f3d" stroke-width="1.5" stroke-linecap="butt"/><path d="M264.86659,242.74314c0,0 -4.63188,-2.44299 -4.24544,-5.24588c0.32181,-2.33409 9.30992,-6.63435 12.29336,-7.73371c3.60246,-1.32752 12.87579,2.77812 12.14155,3.79032c-0.73424,1.01218 -3.86393,4.63486 -6.49358,5.88335c-2.7666,1.31352 -13.69587,3.30594 -13.69587,3.30594z" fill="#160f3d" stroke-width="1.5" stroke-linecap="butt"/><path d="M260.57379,248.35226c0,0 0.83943,-2.80568 3.09488,-5.21073c0.64715,-0.6901 2.61525,-2.96757 5.65209,-4.76369c3.78116,-2.23634 8.69681,-3.98328 8.69681,-3.98328l4.50817,4.5893c0,0 -4.43372,3.89687 -6.09456,5.78144c-1.63932,1.86014 0.25184,8.19885 0.25184,8.19885c0,0 -6.98034,0.54219 -9.93787,-0.30453c-2.1511,-0.61582 -6.17136,-4.30735 -6.17136,-4.30735z" fill="#100d25" stroke-width="1.5" stroke-linecap="butt"/><path d="M260.28172,257.88142c-1.51207,-2.59576 -1.80438,-9.11829 -2.083,-11.07141c-0.20166,-1.41366 1.80659,-5.54653 3.54961,-6.33768c0.30567,-0.13875 3.28528,-0.89727 5.93466,-0.81436c3.91592,0.12257 8.43862,2.40491 8.7795,2.76429c0.19414,0.20466 0.16241,1.08885 -0.25207,1.58866c-0.41449,0.49981 -0.76451,0.90191 -1.7235,0.79359c-0.49379,-0.05576 -2.66818,-0.91987 -4.93113,-1.31464c-1.19897,-0.20916 -2.74246,-0.73078 -4.209,-0.35858c-1.1414,0.28968 -2.40981,1.38117 -2.31041,1.89969c0.22717,1.18475 2.88882,2.87114 3.46089,5.51166c0.59528,2.74758 -1.07785,6.09083 -0.76371,6.11971c1.68771,0.15512 9.39346,0.8634 13.57828,1.24804c1.61538,0.14847 1.59956,0.93295 1.56876,1.23761c-0.01386,0.13711 -0.806,1.47845 -2.01282,2.73965c-1.19354,1.24733 -2.79271,2.41627 -4.44574,2.26434c-2.52769,-0.23233 -4.66667,-0.69816 -7.5985,-1.87345c-2.93183,-1.17528 -5.02972,-1.80135 -6.54181,-4.3971z" fill="#160f3d" stroke-width="1.5" stroke-linecap="butt"/><path d="M264.23283,249.72861c2.09608,-1.38633 4.19405,-2.62167 6.88339,-2.37449c2.59149,0.2382 3.44486,1.50278 5.10974,3.36001c1.66489,1.85725 1.63034,5.42382 1.63034,5.42382c0,0 -7.69936,0.42236 -8.4926,0.34947c-3.14813,-0.28936 -7.28023,-1.79923 -7.28023,-1.79923c0,0 0.05327,-3.57326 2.14936,-4.95959z" fill="#2a2355" stroke-width="1.5" stroke-linecap="butt"/><path d="M273.83005,233.43541c0.30662,-3.03354 3.17741,-5.25164 6.4121,-4.95432c3.23471,0.29733 5.6084,2.99748 5.30178,6.03103c-0.30662,3.03354 -3.17738,5.25167 -6.4121,4.95434c-3.23471,-0.29733 -5.60839,-2.9975 -5.30178,-6.03102z" fill="#160f3d" stroke-width="1.5" stroke-linecap="butt"/><path d="M267.08224,253.60898c1.98786,-1.31473 3.82718,-2.16778 6.37766,-1.93335c2.4577,0.2259 4.10848,1.28096 5.68739,3.04232c1.57891,1.76135 0.30285,5.50281 0.30285,5.50281c0,0 -4.83027,0.04365 -7.50196,-0.20192c-2.98559,-0.27443 -6.90432,-1.70634 -6.90432,-1.70634c0,0 0.0505,-3.38876 2.03839,-4.70352z" fill="#2a2355" stroke-width="1.5" stroke-linecap="butt"/><path d="M272.93642,264.1026c0,0 0.00365,-3.36192 0.3838,-3.92703c0.38016,-0.56511 2.30603,-1.71114 3.10138,-2.09366c0.79536,-0.38254 4.35267,-0.00241 4.35267,-0.00241l3.8632,8.10246c0,0 -5.9936,-0.77781 -8.15392,-1.16171c-1.4331,-0.25467 -3.54715,-0.91765 -3.54715,-0.91765z" fill="#100d25" stroke-width="1.5" stroke-linecap="butt"/><g data-paper-data="{&quot;index&quot;:null}"><path d="M273.75135,227.53906c0,0 -11.09731,-11.00878 -13.55039,-14.58574c-0.97355,-1.41961 2.01507,-6.14571 2.01507,-6.14571l6.69061,-0.29084c0,0 10.56241,10.77608 12.60322,14.29638c0.88292,1.52298 -0.5688,6.46251 -0.5688,6.46251z" fill="#2a2355" stroke-width="1.5" stroke-linecap="butt"/><path d="M263.78127,213.42119l4.28065,-4.39937" fill="none" stroke-width="1.25" stroke-linecap="round"/><path d="M270.99093,212.75714l-3.80016,3.87955" fill="none" stroke-width="1.25" stroke-linecap="round"/><path d="M278.69007,221.01436l-3.91317,3.57338" fill="none" stroke-width="1.25" stroke-linecap="round"/><path d="M271.25435,221.06604l3.78431,-4.01418" fill="none" stroke-width="1.25" stroke-linecap="round"/></g></g></g><path d="M245.11409,211.35381c0,0 -2.7225,-2.40825 -1.53954,-4.91752c0.28544,-0.60545 3.12836,-4.74908 7.50045,-7.32117c0.811,-0.4771 5.82562,2.70627 4.55495,3.11263c-3.37913,1.08063 -4.1928,0.99922 -5.95852,2.77172c-2.04953,2.05739 -4.55734,6.35433 -4.55734,6.35433z" fill="#160f3d" stroke="#000000" stroke-width="1.5" stroke-linecap="butt"/><g fill="none" stroke="#000000" stroke-width="1.5" stroke-linecap="round"><path d="M243.11733,143.48662"/><path d="M251.66267,144.3074"/></g><path d="M228.07874,210.49721c0.94369,-1.48944 2.67379,-2.26292 2.64667,-3.56271c-0.03674,-1.76065 1.03944,-3.68693 1.45472,-4.30491c0.30118,-0.44817 1.20954,-0.59542 1.73986,-1.11546c0.65916,-0.64637 0.58393,-2.05998 0.47346,-2.23862c-0.20195,-0.32665 9.56083,0.17671 13.49088,2.24968c1.63298,0.86133 -0.30439,4.45892 -0.30439,4.45892c0,0 -0.35657,-0.13192 -0.69555,2.94176c-0.08053,0.73003 1.14194,2.7135 1.06946,3.57918c-0.01198,0.14319 0.66651,3.46561 -0.32129,5.05131c-0.98781,1.5857 -2.17102,2.58595 -5.03475,3.54665c-2.86373,0.96071 -5.59863,1.47697 -8.84556,-0.19458c-3.95893,-2.03807 -5.94894,-6.48922 -5.94894,-6.48922c0,0 -0.65941,-2.44656 0.27541,-3.92204z" fill="#100d25" stroke="#000000" stroke-width="1.5" stroke-linecap="butt"/><path d="M231.10844,213.74699c-0.04119,-1.9869 -0.35268,-9.32054 0.68677,-10.61015c2.46429,-3.05738 2.37074,-4.79309 2.37074,-4.79309l11.76256,0.63517c0,0 2.11917,2.64068 2.0282,5.81619c-0.11029,3.85046 -1.58063,8.71355 -2.23166,12.02005c-0.41984,2.13235 -14.50485,2.32437 -14.61662,-3.06817z" fill="#160f3d" stroke="#000000" stroke-width="1.5" stroke-linecap="butt"/><path d="M232.18013,202.62958c0.30118,-0.44817 -3.69263,5.53595 -3.16231,5.01592c0.65916,-0.64637 -1.29258,-7.10762 -1.40305,-7.28626c-0.28587,-0.46237 5.25398,-2.84212 3.37042,-3.73652c-2.05808,-0.97726 -5.01462,-1.37383 -6.10968,-1.43193c-2.87473,-0.15249 -5.65972,0.45662 -5.54471,0.15388c0.05199,-0.13684 -6.24158,1.7887 -5.81368,0.96999c0.79328,-1.51777 8.69554,-6.17662 10.21337,-6.54456c1.33441,-0.32347 5.11451,-0.03875 6.71892,0.14427c4.63097,0.52832 7.84278,6.40262 8.01059,6.44152c0.68327,0.15839 3.88797,-1.99317 7.45355,-2.89183c2.2525,-0.56772 4.58442,-0.09584 6.72032,0.06521c2.93368,0.2212 6.39531,5.52081 7.05832,6.15536c0.58582,0.56067 -4.7181,0.80395 -6.30647,1.63545c-3.21506,1.68309 -5.80579,4.66398 -5.80579,4.66398c0,0 -15.8151,-2.73655 -15.39983,-3.35451z" fill="#100d25" stroke="#000000" stroke-width="1.5" stroke-linecap="butt"/><path d="M240.66343,210.95138c0,0 -1.40802,2.45719 -2.48747,3.13767c-1.13518,0.71561 -4.16481,1.05591 -4.16481,1.05591c0,0 -2.61652,-0.83521 -3.91305,-2.5108c-1.48364,-1.91743 -1.69551,-4.72644 -2.11167,-5.06235c-0.2795,-0.2256 8.07271,-2.55564 8.07271,-2.55564z" fill="#2a2355" stroke="#000000" stroke-width="1.5" stroke-linecap="butt"/><path d="M230.84693,193.87692c0,0 0.02579,-1.45652 0.13635,-3.81348c0.02041,-0.43498 -2.36318,-2.43948 -2.36318,-2.43948c0,0 2.60758,-0.87837 2.6335,-1.3254c0.0866,-1.494 -0.04286,-1.13537 0.08611,-2.72636c0.04145,-0.51141 -2.89777,-2.17262 -2.89777,-2.17262c0,0 3.21726,-1.15148 3.28773,-1.79538c0.0436,-0.39836 0.45993,-2.36714 0.4977,-2.6826c0.0845,-0.70563 -7.70184,-1.40291 -8.48454,-5.09266c-0.78271,-3.68974 -0.90174,-11.88589 3.68289,-17.76807c4.58461,-5.88217 9.56162,2.84889 9.56162,2.84889l20.64819,1.36009c0,0 8.41121,-3.48779 9.77483,0.34562c1.36363,3.83342 1.50719,13.1269 -2.49862,19.98615c-4.0058,6.85926 -10.91259,1.02143 -11.00845,1.82203c-0.12339,1.03048 -0.17913,1.4793 -0.32927,2.7058c-0.06878,0.56179 1.94129,2.05956 1.94129,2.05956c0,0 -2.41506,1.81619 -2.49264,2.44337c-0.06824,0.55161 -0.19375,1.08991 -0.201,1.62154c-0.01053,0.77154 1.96291,2.44423 1.96291,2.44423c0,0 -2.4219,1.23672 -2.50171,1.87351c-0.21647,1.72686 -0.35584,2.82942 -0.35584,2.82942z" fill="#100d25" stroke="#000000" stroke-width="1.5" stroke-linecap="butt"/><path d="M245.83318,162.56498c3.75305,0.29809 21.23884,1.47146 21.23884,1.47146c0,0 1.299,1.73481 1.40323,3.4547c0.03892,0.64226 -22.26089,-2.21122 -22.34793,-1.48432c-0.0311,0.25973 0.18786,1.79014 0.14551,2.11031c-0.08592,0.64971 20.74848,0.98262 21.85718,2.079c0.24051,0.23784 3.32232,2.16065 3.32232,2.16065c0,0 -3.02507,1.23194 -4.2187,1.2931c-2.30749,0.11822 -21.33869,-2.34612 -21.52505,-1.72268c-0.18012,0.60252 -0.25706,0.71365 0.72116,1.56285c1.04379,0.90611 17.49149,1.70656 19.07841,2.89201c0.95238,0.71143 3.1481,2.63172 3.1481,2.63172c0,0 -3.82801,0.00083 -3.86228,0.21785c-0.09931,0.62895 -18.55618,-3.3075 -18.65689,-2.60244c-0.06215,0.43497 -2.01092,1.66672 -0.11682,2.10818c2.57004,0.59895 10.48372,1.78479 10.48372,1.78479l4.16795,2.59855l-4.87104,0.64767c0,0 -9.93055,-2.33554 -10.16891,-1.84548c-0.15757,0.32396 -2.11765,1.97672 -0.10369,2.8826c2.98921,1.34454 9.90478,2.24924 9.90478,2.24924l3.82554,1.9409c0,0 -3.10099,0.9495 -4.286,1.126c-2.51044,0.37388 -9.26426,-1.8559 -9.38251,-1.34884c-0.23702,1.01613 -1.58013,1.9762 -0.85459,2.92336c0.89213,1.16465 13.84785,2.03413 13.84785,2.03413l-5.44295,3.76639l-24.1286,-4.02798l-4.06399,-4.77433l14.7049,1.983c0,0 1.21694,-1.54904 1.32308,-2.72064c0.04367,-0.48199 -8.19119,-1.13224 -10.91578,-2.11672c-1.02612,-0.37077 -4.16524,-1.45501 -4.16524,-1.45501l4.22937,-1.27772c0,0 6.62159,1.70096 10.37199,1.05196c2.28683,-0.39574 1.55051,-1.90729 1.54502,-2.52694c-0.0062,-0.70143 -11.961,-1.44219 -11.961,-1.44219l-3.24401,-1.88444l3.3195,-1.61694l12.30762,2.03271c0,0 0.28775,-1.96863 0.36008,-2.60016c0.0678,-0.59199 -19.93135,-2.63849 -19.93135,-2.63849l-2.98172,-2.36997l3.28884,-0.71866c0,0 20.64985,3.04499 20.57227,2.63909c-0.02043,-0.10686 0.61273,-1.857 -0.68062,-2.09945c-3.75231,-0.70338 -20.33052,-2.63965 -20.30324,-2.90045c0.0124,-0.11871 -3.22351,-2.2072 -3.22351,-2.2072c0,0 3.39387,-1.10323 4.2649,-1.27803c2.71769,-0.54539 19.37329,3.5577 19.38478,3.21694c0.00444,-0.13172 1.35453,-1.89334 -0.24808,-2.24602c-1.89654,-0.41736 -17.97467,-2.67129 -19.30667,-3.48581c-1.37581,-0.84131 0.35015,-3.0381 0.35015,-3.0381c0,0 17.25597,3.20698 21.82408,3.56979z" data-paper-data="{&quot;index&quot;:null}" fill="#160f3d" stroke="#000000" stroke-width="1.5" stroke-linecap="butt"/><path d="M264.57554,157.48467l1.52616,11.86681l-6.79233,8.65389c0,0 0.8657,-4.3879 -1.35748,-5.24086c-7.92141,-3.03913 -20.75834,-5.05815 -26.30298,-5.7102c-1.29472,-0.15226 -2.65391,4.90166 -2.65391,4.90166l-3.30169,-10.25101c0,0 -8.11242,-5.95725 -7.21395,-7.1841c1.87331,-2.55793 13.51008,-1.48186 13.27047,-1.7057c-0.12111,-0.11314 6.17876,-0.74998 6.17876,-0.74998l3.10294,3.74939c0,0 4.77378,-2.17465 7.32125,-1.79443c1.10186,0.16447 5.16355,3.46529 5.16355,3.46529l5.08725,-2.58405z" fill="#160f3d" stroke="#000000" stroke-width="1.5" stroke-linecap="butt"/><path d="M257.81208,169.10518c0,0 -2.71755,4.78202 -4.90304,6.1351c-2.29834,1.42295 -8.5656,2.20352 -8.5656,2.20352c0,0 -5.50847,-1.49626 -8.34513,-4.66299c-3.24605,-3.62381 -3.92484,-9.01453 -4.81821,-9.64284c-0.59999,-0.42197 16.55954,-5.24943 16.55954,-5.24943z" fill="#2a2355" stroke="#000000" stroke-width="1.5" stroke-linecap="butt"/><path d="M255.03847,175.92452c0,0 -2.33259,4.24558 -4.1981,5.45278c-1.9618,1.26954 -7.29838,1.98693 -7.29838,1.98693c0,0 -4.68136,-1.30178 -7.08204,-4.09386c-2.74715,-3.19507 -3.30222,-7.96538 -4.05983,-8.51797c-0.50882,-0.37113 14.11384,-4.71737 14.11384,-4.71737z" fill="#2a2355" stroke="#000000" stroke-width="1.5" stroke-linecap="butt"/><path d="M252.41029,182.49347c0,0 -2.00879,3.77788 -3.60633,4.85706c-1.68001,1.13489 -6.23876,1.79359 -6.23876,1.79359c0,0 -3.99109,-1.13618 -6.02903,-3.60448c-2.33208,-2.82457 -2.7863,-7.0563 -3.4308,-7.54365c-0.43286,-0.32732 12.06832,-4.24511 12.06832,-4.24511z" fill="#2a2355" stroke="#000000" stroke-width="1.5" stroke-linecap="butt"/><path d="M250.34954,190.04698c0,0 -1.8707,3.51815 -3.35841,4.52315c-1.5645,1.05687 -5.80987,1.6703 -5.80987,1.6703c0,0 -3.7167,-1.05806 -5.61455,-3.35667c-2.17175,-2.63038 -2.59475,-6.5712 -3.19493,-7.02504c-0.40309,-0.3048 11.23864,-3.95329 11.23864,-3.95329z" fill="#2a2355" stroke="#000000" stroke-width="1.5" stroke-linecap="butt"/><path d="M248.45448,198.11695c0,0 -1.66353,3.12856 -2.98651,4.02228c-1.39127,0.93984 -5.1665,1.48533 -5.1665,1.48533c0,0 -3.30513,-0.94089 -4.99282,-2.98497c-1.93128,-2.33911 -2.30742,-5.84355 -2.84116,-6.24713c-0.35847,-0.27106 9.99415,-3.51551 9.99415,-3.51551z" fill="#2a2355" stroke="#000000" stroke-width="1.5" stroke-linecap="butt"/><path d="M246.7463,203.69101c0,0 -1.4295,2.72143 -2.57332,3.50253c-1.20286,0.82144 -4.47565,1.31117 -4.47565,1.31117c0,0 -2.87144,-0.80181 -4.34453,-2.56776c-1.68566,-2.02082 -2.02734,-5.05937 -2.49213,-5.40719c-0.31216,-0.23358 8.65491,-3.09354 8.65491,-3.09354z" fill="#2a2355" stroke="#000000" stroke-width="1.5" stroke-linecap="butt"/><path d="M236.10695,165.32644l10.92665,-3.48916l6.05556,6.66488" fill="none" stroke="#000000" stroke-width="1" stroke-linecap="round"/><path d="M236.49192,173.55883l9.2332,-3.42542l5.14971,5.41415" fill="none" stroke="#000000" stroke-width="1" stroke-linecap="round"/><path d="M237.98454,180.17232l6.43165,-2.19977l4.21732,4.84559" fill="none" stroke="#000000" stroke-width="1" stroke-linecap="round"/><g stroke="#000000"><path d="M227.99619,199.51155c0.90492,1.92989 0.94891,5.42403 1.67573,6.0343c0.50878,0.42724 0.8822,17.28006 0.8822,17.28006c0,0 2.48587,6.67098 1.52264,9.47629c-0.86023,2.50533 -6.09804,6.0102 -6.09804,6.0102c0,0 -8.32658,-2.77866 -9.93578,-7.96901c-2.65998,-8.57957 -4.3839,-25.904 -4.3839,-25.904c0,0 2.70437,-4.80755 5.49686,-6.16004c0,0 10.28421,0.04627 10.84029,1.23219z" fill="#100d25" stroke-width="1.5" stroke-linecap="butt"/><path d="M217.7228,221.06757c0,0 -1.44146,-5.86696 -1.66516,-8.72633c-0.08757,-1.11953 -1.29318,-5.28414 0.54745,-7.62094c0.55626,-0.70622 1.78471,-1.59105 2.5388,-2.51329c2.34909,-2.87286 5.35573,-5.06587 7.06899,-4.72314c2.51727,0.50358 3.93532,8.67811 3.99689,8.84195c0.6355,1.69074 1.20095,16.01271 2.06932,21.07474c1.32406,7.71844 -6.52833,5.00129 -6.52833,5.00129c0,0 -1.15309,-0.11023 -1.77424,-0.04241c-0.82853,0.09045 -2.75644,0.53716 -2.75644,0.53716z" fill="#160f3d" stroke-width="1.5" stroke-linecap="butt"/><g><path d="M228.39036,227.68618c0,0 -4.23867,-1.55289 -4.82876,-2.92249c-1.36395,-3.16577 -3.2144,-15.7457 -3.2144,-15.7457l4.40004,-5.58646c0,0 4.9584,1.62708 5.4273,3.0045c1.18152,3.47074 2.76263,16.28318 2.76263,16.28318z" fill="#2a2355" stroke-width="1.5" stroke-linecap="butt"/><path d="M223.24318,209.73914l4.99513,-0.58169" fill="none" stroke-width="1.25" stroke-linecap="round"/><path d="M228.97325,212.9763l-5.05084,0.96703" fill="none" stroke-width="1.25" stroke-linecap="round"/><path d="M229.96471,221.9822l-4.40834,0.91124" fill="none" stroke-width="1.25" stroke-linecap="round"/><path d="M229.06322,217.90884l-4.31257,0.51448" fill="none" stroke-width="1.25" stroke-linecap="round"/></g></g><path d="M211.50003,200.9171c0,0 -0.25437,-3.86785 2.69703,-5.13772c0.71213,-0.30641 6.29761,-1.79263 11.85109,-0.92471c0.32457,0.05075 4.44342,0.445 5.30602,1.95578c0.65679,1.15031 -0.13456,3.68141 -0.77169,4.12287c-0.90434,0.62659 -4.15914,-1.36774 -7.22394,-2.2715c-0.94065,-0.27738 -2.31017,0.14459 -3.14158,0.17999c-3.54027,0.15071 -8.71691,2.07528 -8.71691,2.07528z" fill="#160f3d" stroke="#000000" stroke-width="1.5" stroke-linecap="butt"/><g stroke-linecap="butt"><path d="M227.61652,239.50429c0,0 -1.0871,-1.813 -1.0729,-2.23052c0.01419,-0.41752 0.64218,-1.6075 0.93092,-2.05003c0.28874,-0.44252 2.25754,-1.29477 2.25754,-1.29477l6.68793,5.25224z" fill="#2a2355" stroke="#000000" stroke-width="1.5"/><g><path d="M210.68064,245.8053c0,0 -4.76055,-1.8664 -4.75478,-4.70188c0.0048,-2.36123 8.06565,-7.73372 10.784,-9.19067c3.28236,-1.75931 12.71104,1.19603 12.1386,2.29242c-0.57244,1.09638 -3.1026,5.08143 -5.46221,6.64366c-2.4825,1.6436 -12.70559,4.9565 -12.70559,4.9565z" fill="#160f3d" stroke="#000000" stroke-width="1.5"/><path d="M206.3457,250.94978c0,0 0.43986,-2.89341 2.29002,-5.56069c0.53087,-0.76535 2.12202,-3.27072 4.80088,-5.42731c3.33545,-2.68519 7.82271,-5.02167 7.82271,-5.02167l4.92129,4.01671c0,0 -3.74517,4.41662 -5.09277,6.4937c-1.33014,2.05014 1.30888,8.1259 1.30888,8.1259c0,0 -6.6244,1.38931 -9.57123,0.90708c-2.14333,-0.35072 -6.47979,-3.53371 -6.47979,-3.53371z" fill="#100d25" stroke="#000000" stroke-width="1.5"/><path d="M207.30608,260.46535c-1.78817,-2.39827 -2.91764,-8.85156 -3.43913,-10.76068c-0.37744,-1.3818 1.01069,-5.7379 2.57946,-6.73721c0.27511,-0.17525 3.03416,-1.29265 5.58603,-1.53276c3.77179,-0.35488 8.4067,1.36503 8.78042,1.68103c0.21284,0.17996 0.29752,1.06345 -0.03496,1.61115c-0.33248,0.54771 -0.61585,0.99035 -1.54975,0.99936c-0.48086,0.00465 -2.67884,-0.59024 -4.90067,-0.70745c-1.17718,-0.06209 -2.72546,-0.39309 -4.08361,0.15576c-1.05703,0.42717 -2.13148,1.66748 -1.96865,2.17121c0.37211,1.15098 3.14449,2.50459 4.03691,5.06182c0.92861,2.66094 -0.24088,6.19067 0.06418,6.18115c1.63889,-0.05117 9.12182,-0.2848 13.18564,-0.41168c1.56867,-0.04898 1.65562,0.73338 1.66574,1.04021c0.00456,0.13809 -0.58058,1.56897 -1.57389,2.97062c-0.98237,1.38622 -2.36399,2.74385 -3.96921,2.79397c-2.4546,0.07664 -4.56677,-0.12636 -7.53175,-0.9386c-2.96497,-0.81225 -5.0586,-1.17962 -6.84677,-3.57788z" fill="#160f3d" stroke="#000000" stroke-width="1.5"/><path d="M216.32719,248.67312c2.51656,-0.07857 3.49966,1.07558 5.33826,2.7205c1.83859,1.64496 2.26977,5.19734 2.26977,5.19734c0,0 -7.32961,1.35766 -8.09991,1.38172c-3.05709,0.09544 -7.21682,-0.90351 -7.21682,-0.90351c0,0 -0.41408,-3.56131 1.41585,-5.19571c0,0 3.68127,-3.1188 6.29285,-3.20034z" fill="#2a2355" stroke="#000000" stroke-width="1.5"/><path d="M218.05661,235.92428c-0.10084,-3.05522 2.36385,-5.61142 5.505,-5.70952c3.14117,-0.09808 5.76932,2.29915 5.87016,5.35438c0.10084,3.05522 -2.36383,5.61144 -5.505,5.70952c-3.14117,0.09808 -5.76931,-2.29916 -5.87015,-5.35437z" fill="#160f3d" stroke="#000000" stroke-width="1.5"/><path d="M213.27239,255.38692c1.73543,-1.54998 3.38851,-2.6226 5.86524,-2.69993c2.38663,-0.07451 4.10727,0.7741 5.85093,2.33412c1.74364,1.56002 1.00682,5.43756 1.00682,5.43756c0,0 -4.62713,0.63156 -7.22156,0.71255c-2.89925,0.09052 -6.84419,-0.85686 -6.84419,-0.85686c0,0 -0.39269,-3.37742 1.34277,-4.92745z" fill="#2a2355" stroke="#000000" stroke-width="1.5"/><path d="M220.2533,265.11359c0,0 -0.43416,-3.34502 -0.1431,-3.9535c0.29106,-0.60849 1.989,-1.9831 2.70205,-2.46049c0.71304,-0.47742 4.17441,-0.53238 4.17441,-0.53238l4.76005,7.59028c0,0 -5.84982,-0.04401 -7.97179,-0.1629c-1.40767,-0.07887 -3.52159,-0.48104 -3.52159,-0.48104z" fill="#100d25" stroke="#000000" stroke-width="1.5"/><g data-paper-data="{&quot;index&quot;:null}" fill="none" stroke="none" stroke-width="1" font-family="sans-serif" font-weight="normal" font-size="12" text-anchor="start"/></g></g><g stroke="#000000" stroke-width="1.5" stroke-linecap="butt"><g><path d="M268.59359,197.99604c1.52956,0.02954 8.43586,0.04845 8.43586,0.04845c0,0 1.48155,7.03874 0.4622,11.37921c-0.87107,3.70908 -4.77783,6.99694 -4.77783,6.99694c0,0 -3.72546,-3.33651 -4.90477,-6.92197c-1.25431,-3.81348 0.42261,-11.50962 0.78455,-11.50262z" fill="#2a2355"/><g><path d="M262.62859,189.77143l1.26148,-13.37255l18.05577,-0.43475l1.14784,15.07581c0,0 -1.53856,2.53061 -3.72313,3.15119c-1.98905,0.56504 -4.55424,-0.7692 -6.18917,-0.87055c-1.75109,-0.10853 -4.60546,1.97215 -6.86234,1.0855c-2.11312,-0.83017 -3.69043,-4.63465 -3.69043,-4.63465z" fill="#100d25"/><path d="M267.49087,193.73667l0.63973,-4.5567l4.82017,-4.02963l4.65399,2.12597l2.25219,5.08857l5.99869,-6.34625c0,0 -0.51508,6.57414 -2.1184,9.53032c-1.28233,2.36441 -6.19905,2.4572 -9.19685,2.76737c-2.99781,0.31018 -5.69884,0.93626 -8.93212,-1.01391c-3.43483,-2.07175 -5.66148,-8.99862 -5.66148,-8.99862z" fill="#160f3d"/><path d="M265.72915,188.33713l0.47916,-10.39601l6.84318,0.74793l6.02854,-1.49099l1.13642,9.60409l-7.0686,5.49589z" fill="#2a2355"/></g></g><g><path d="M282.06952,203.46465c1.48405,5.2421 -1.56245,10.69472 -6.80457,12.17877c-5.24212,1.48404 -10.69472,-1.56245 -12.17877,-6.80454c-1.48405,-5.2421 1.56245,-10.69472 6.80456,-12.17877c5.2421,-1.48405 10.69472,1.56245 12.17877,6.80456z" fill="#160f3d"/><g><path d="M215.09936,221.25899l1.59937,5.05946l-5.97937,1.89016c0,0 -1.2645,-1.33274 -1.54204,-2.21075c-0.25336,-0.80149 -0.05732,-2.84871 -0.05732,-2.84871z" fill="#160f3d"/><path d="M230.10432,214.64148l2.79378,8.67282l-16.58039,5.34106c0,0 -2.86141,-2.32752 -3.3511,-3.84767c-0.4351,-1.35071 0.55731,-4.82515 0.55731,-4.82515z" fill="#100d25"/><path d="M253.27725,223.64758l-19.44705,3.87128c0,0 -3.63991,-4.72784 -4.52087,-7.67769c-0.90801,-3.04045 -0.84841,-10.30137 -0.84841,-10.30137l17.94859,-6.33808z" fill="#2a2355"/><path d="M247.83032,205.77405l4.24937,-9.5323l0.10884,9.24093l14.8845,1.49663l-11.61405,10.66087l5.93627,7.6201l-8.93052,-4.66258l-23.30219,5.88816c0,0 -3.2024,-2.949 -4.12648,-5.81764c-0.92407,-2.86864 -0.20256,-7.62105 -0.20256,-7.62105z" fill="#160f3d"/><path d="M247.428,209.64121l2.67052,8.2902l-18.47637,4.26249c0,0 -1.81449,-1.6996 -2.13392,-2.69122c-0.36037,-1.11871 0.07968,-3.68584 0.07968,-3.68584z" fill="#0028ff"/><path d="M259.71392,204.68033l2.8285,9.64342c0,0 -5.54903,1.62758 -7.88406,2.31247c-0.88996,0.26103 -1.04095,7.21514 -1.04095,7.21514l-4.25011,-5.8671c0,0 -5.33178,-0.20508 -6.26837,-2.62271c-0.93659,-2.41765 2.67443,-6.65444 2.67443,-6.65444l1.0597,-7.16194c0,0 4.04305,5.72739 4.91544,5.47153c2.34172,-0.68685 7.96542,-2.33633 7.96542,-2.33633z" fill="#100d25"/><path d="M263.59753,206.88699c-1.8753,0.63934 -5.56394,1.68464 -5.56394,1.68464c0,0 -4.72943,-0.01505 -5.61619,-1.26402c-0.36865,-0.51926 -1.22713,-1.56431 -0.19288,-3.6285c1.03426,-2.06419 4.0538,-4.07717 4.0538,-4.07717c0,0 -1.41098,3.40677 -0.6087,4.19492c0.80228,0.78815 1.3879,1.15256 2.56557,0.65834c1.408,-0.59085 2.99434,-2.34525 4.02789,-2.6976c1.9407,-0.66165 5.71985,-2.09548 5.71985,-2.09548c0,0 1.33467,1.53704 1.61318,2.42105c0.23849,0.75703 -0.04345,2.5614 -0.04345,2.5614c0,0 -3.99455,1.57405 -5.95514,2.24246z" data-paper-data="{&quot;index&quot;:null}" fill="#2a2355"/><path d="M226.92579,218.32165l4.00668,0.63862l-2.74409,3.28086l-9.83389,3.16781c0,0 -1.56325,-0.96487 -1.78455,-1.65186c-0.19663,-0.61041 0.52196,-2.26761 0.52196,-2.26761z" fill="#2a2355"/><path d="M270.631,208.58915c0,0 1.26785,1.31445 1.50781,2.07103c0.28022,0.88348 0.07154,2.90836 0.07154,2.90836c0,0 -3.91665,0.99891 -5.88504,1.57301c-1.0483,0.30573 -3.35482,-0.21807 -4.8466,0.10773c-1.24777,0.27252 -1.51751,0.90732 -1.72099,2.0134c-0.20349,1.10605 2.9093,3.08282 2.9093,3.08282c0,0 -3.62794,0.08836 -5.66074,-1.00626c-2.03281,-1.09464 -1.931,-2.44328 -1.92779,-3.08007c0.00772,-1.53174 3.86916,-4.26249 3.86916,-4.26249c0,0 3.61925,-1.26482 5.52129,-1.81956c1.98853,-0.57997 6.16204,-1.58797 6.16204,-1.58797z" fill="#2a2355"/><path d="M271.04013,199.79623c0,0 4.01594,2.35923 4.56554,5.39495c0.54959,3.03573 -0.91246,7.60918 -0.91246,7.60918l-1.45689,5.73864l-3.56155,-4.12955l-4.8289,-3.93087l-16.15178,3.20628l15.0142,-6.75236l2.44661,-5.8337l1.86735,-6.11482z" fill="#160f3d"/><path d="M278.84202,203.09506c0,0 1.34977,2.33242 0.56721,4.88892c-0.78257,2.55648 -2.89475,4.05962 -2.89475,4.05962l-7.60044,2.44423l-4.31923,-3.92583l7.60933,-4.36573l-7.83608,0.55605l1.10643,-5.60655c0,0 7.488,-2.22422 8.30052,-2.21558c2.32496,0.02475 5.06704,4.16485 5.06704,4.16485z" fill="#100d25"/><path d="M234.69896,207.49093c0,0 1.5733,6.63212 2.5836,9.76838c0.97001,3.01128 3.36223,8.68943 3.36223,8.68943l-1.12807,1.42764l-1.50948,-0.57801c0,0 -2.46223,-5.89553 -3.45664,-8.9825c-0.98749,-3.06548 -2.48918,-9.47532 -2.48918,-9.47532l0.91943,-1.66451z" fill="#100d25"/></g></g><path d="M265.09184,178.26692c-3.33049,-1.38481 -6.89055,-6.06099 -6.89055,-6.06099l7.34035,1.7764c0,0 4.4078,0.4393 6.38929,0.33493c1.89623,-0.09987 5.4324,-0.71252 5.4324,-0.71252l3.51975,-0.74349l5.80777,1.83215c0,0 -2.20442,2.73113 -7.97614,3.84968c-5.70948,1.1065 -11.96663,0.41249 -13.62286,-0.27616z" fill="#160f3d"/><g><path d="M259.31529,144.98469c0,0 3.6753,9.49243 5.02828,8.94252c1.05748,-0.42981 3.91703,-8.63113 3.91703,-8.63113c0,0 1.49141,7.83796 2.52345,8.04144c1.33964,0.26414 6.03813,-5.77128 6.03813,-5.77128c0,0 -0.52161,7.18096 0.0669,7.74372c0.43311,0.41417 8.92124,-1.23275 8.92124,-1.23275l-5.18431,7.51825l6.32541,3.83905c0,0 -5.67559,-0.69901 -5.97197,1.70675c-0.2964,2.40576 6.13738,2.18525 6.13738,2.18525l-5.47541,2.79262c0,0 -3.86373,1.70962 -6.47968,2.3174c-2.61596,0.60777 -4.48947,0.98549 -7.32212,0.52274c-2.83267,-0.46275 -4.60615,-2.41149 -4.60615,-2.41149c0,0 1.00088,-3.90761 -0.22938,-5.97401c-1.23027,-2.06641 -6.00624,-3.21897 -6.00624,-3.21897c0,0 2.93919,-3.07319 1.81304,-5.33878c-1.12615,-2.2656 -6.20937,-3.50577 -6.20937,-3.50577c0,0 4.57653,-0.28552 6.08643,-2.42779c1.50991,-2.14227 0.62738,-7.09777 0.62738,-7.09777z" data-paper-data="{&quot;index&quot;:null}" fill="#100d25"/><path d="M259.71311,165.39228l-0.27549,-2.81916l11.94402,-1.44828l0.34355,2.52448z" fill="#100d25"/><path d="M256.97319,163.1266c0.13827,-2.06293 1.92268,-3.62317 3.98562,-3.4849c2.06293,0.13827 3.62317,1.92268 3.4849,3.98561c-0.13827,2.06293 -1.92268,3.62317 -3.98562,3.4849c-2.06293,-0.13827 -3.62317,-1.92268 -3.4849,-3.98562z" fill="#160f3d"/></g><g><path d="M271.39194,183.09359l0.71124,-18.05405l2.99272,-0.16001l-1.00606,19.01608z" fill="#100d25"/><path d="M270.47245,161.73834c0.40822,-1.67137 2.09406,-2.69534 3.76543,-2.28714c1.67137,0.40822 2.69535,2.09405 2.28714,3.76543c-0.40822,1.67137 -2.09406,2.69534 -3.76543,2.28712c-1.67137,-0.40822 -2.69535,-2.09405 -2.28713,-3.76541z" fill="#160f3d"/></g><g><path d="M271.37742,207.45664l0.19118,-21.05796l2.75505,-0.35874l-0.41354,20.54913z" fill="#100d25"/><path d="M269.19362,183.23099c0.51591,-1.81282 2.40368,-2.86415 4.21648,-2.34824c1.81283,0.51591 2.86415,2.40368 2.34824,4.21648c-0.51591,1.81282 -2.40366,2.86417 -4.21649,2.34825c-1.81282,-0.51591 -2.86416,-2.40367 -2.34825,-4.21649z" fill="#160f3d"/></g><path d="M269.94879,205.58469c0.57431,-1.5109 2.26473,-2.27014 3.77563,-1.69583c1.5109,0.57431 2.27014,2.26474 1.69583,3.77563c-0.57431,1.5109 -2.26472,2.27013 -3.77563,1.69583c-1.5109,-0.57431 -2.27013,-2.26472 -1.69583,-3.77563z" fill="#160f3d"/></g><g stroke="#000000" stroke-width="1.5" stroke-linecap="butt"><g><path d="M169.97934,224.28742l2.91338,-4.37768l-3.35409,-2.07196l2.5804,-2.50418l-5.2592,-4.77567c0,0 9.39175,0.49798 12.29966,0.06168c0.6065,-0.091 1.6343,-6.25529 2.80138,-7.27876c1.63859,-1.43697 3.49278,2.29499 4.32482,3.71287c0.51003,0.86917 -3.62308,8.15499 -3.62308,8.15499l1.81968,3.93949l-4.92865,1.15983l2.72536,4.04106l-4.90459,1.7954c0,0 5.62591,3.30896 4.83295,3.10982c-0.63217,-0.15876 -5.21686,1.92299 -5.21686,1.92299z" fill="#160f3d"/><path d="M176.74811,219.08796l-1.62865,-7.56212l-5.27133,-1.04474c0,0 2.48941,-2.00295 2.54516,-3.23181c0.05367,-1.18279 -2.24258,-4.18109 -2.24258,-4.18109l5.24266,0.31241l-1.56104,-4.19531c0,0 4.61704,1.21199 5.18431,0.8383c2.81852,-1.85684 8.71886,-1.51629 8.71886,-1.51629l2.20058,2.70762c0,0 -5.5333,1.59633 -7.7467,4.59609c-2.18213,2.95733 -5.44125,13.27698 -5.44125,13.27698z" fill="#100d25"/></g><g><path d="M184.18131,230.85635c0,0 6.98451,-4.14184 9.7099,-8.01922c5.33477,-7.5897 4.72359,-16.21314 6.34919,-16.36527c1.38735,-0.12984 5.13004,14.01249 5.13004,14.01249c0,0 -2.97637,-1.72778 -3.2371,-1.42571c-0.46863,0.54287 -0.35211,3.59943 -1.28511,5.826c-1.03467,2.46915 -3.32941,4.87378 -3.32941,4.87378c0,0 -3.56764,2.80399 -5.48284,2.93645c-2.15839,0.14928 -7.85465,-1.83852 -7.85465,-1.83852z" fill="#160f3d"/><path d="M188.64431,207.88687c-0.04795,-0.32459 7.18377,-5.91656 7.18377,-5.91656l7.18849,3.70246c0,0 2.40125,4.33183 0.95128,7.95077c-0.86393,2.15625 -3.607,2.33542 -4.77301,3.72535c-1.49939,1.78734 -2.01237,8.05935 -4.7671,10.22988c-3.18565,2.51007 -9.25726,-0.75 -9.25726,-0.75l3.87614,-1.66446l2.31236,-1.67446c0,0 -0.23148,-1.49907 -0.82413,-2.08778c-0.54627,-0.54262 -2.60395,-1.31753 -2.60395,-1.31753c0,0 2.14378,-0.47862 3.11118,-0.97656c0.87497,-0.45038 2.44375,-1.88273 2.44375,-1.88273c0,0 -4.51299,-7.11464 -4.84151,-9.33837z" fill="#100d25"/></g><g><path d="M185.83718,202.46143l3.64573,0.85572l-2.02042,7.30515c0,0 -1.21532,0.25549 -1.81915,0.11375c-0.61132,-0.14349 -1.2086,-0.99689 -1.2086,-0.99689z" fill="#100d25"/><g><g><path d="M181.08433,200.68845l-4.56282,-13.47212l3.53928,-1.55621l3.89081,12.9037z" fill="#160f3d"/><path d="M172.38155,187.91321c0.08012,-1.23968 0.32722,-5.06243 0.45241,-6.99916c0.04506,-0.69711 2.42512,-0.99793 2.42512,-0.99793l12.94497,0.83674l-0.63337,9.79884c0,0 -10.81072,-0.69877 -13.28974,-0.85903c-0.96314,-0.06224 -1.94839,-1.0209 -1.89936,-1.77947z" fill="#160f3d"/><path d="M184.66377,182.39739c0,0 -8.71601,-9.05355 -7.54055,-15.77519c1.17546,-6.72166 17.98555,-16.61313 17.98555,-16.61313l0.77754,4.08978c0,0 -13.82174,7.62207 -15.01868,13.45298c-1.19695,5.83089 6.09861,12.38111 6.09861,12.38111z" fill="#160f3d"/><path d="M175.65333,184.54246c0.08532,-1.31994 1.2245,-2.32079 2.54443,-2.23548c1.31994,0.08532 2.32079,1.22449 2.23547,2.54444c-0.08532,1.31994 -1.2245,2.3208 -2.54444,2.23548c-1.31994,-0.08532 -2.32078,-1.2245 -2.23547,-2.54444z" fill="#2a2355"/></g><path d="M210.94087,182.44536c0,0 -0.82439,-1.87141 -0.76513,-2.27412c0.05924,-0.40271 0.7814,-1.48759 1.10191,-1.88515c0.32052,-0.39756 2.26808,-1.01214 2.26808,-1.01214l5.72031,5.7998z" fill="#2a2355"/><path d="M184.92761,206.20551l0.27035,-4.18243l16.38262,-8.93799c0,0 3.25691,1.35767 3.82745,1.39454c1.27013,0.08211 -1.45035,12.95595 -1.45035,12.95595z" fill="#160f3d"/><path d="M179.9524,202.23419c0.19037,-2.94511 2.73219,-5.17828 5.67728,-4.9879c2.9451,0.19037 5.17828,2.73218 4.98791,5.67729c-0.19037,2.94511 -2.73219,5.17827 -5.67728,4.9879c-2.9451,-0.19037 -5.17828,-2.73219 -4.9879,-5.67728z" fill="#160f3d"/><path d="M184.74173,191.87575c1.51086,-3.37966 10.03789,-24.10252 10.03789,-24.10252c0,0 14.81622,6.51361 16.38762,6.46307c0.5997,-0.01931 -10.59957,25.63095 -10.59957,25.63095c0,0 -5.52263,1.37045 -8.63743,-0.08005c-4.61182,-2.14759 -7.39584,-7.44762 -7.1885,-7.91145z" fill="#160f3d"/><path d="M192.49895,189.53274l4.82234,-19.90494l10.3494,3.35613l-10.99295,17.68678l-3.24159,1.99661z" fill="#2a2355"/><path d="M185.64246,188.85729l-2.83804,-1.6559c0,0 -0.69548,-0.52936 -0.30687,-1.47159c1.44358,-3.50018 4.92513,-12.03971 5.59438,-13.66242c0.21895,-0.5309 1.21134,-0.71672 1.21134,-0.71672l2.96924,1.43105z" fill="#100d25"/><path d="M181.37364,195.25507l2.83629,-5.2697l7.77884,7.62475l10.59422,-0.43893l-1.43712,6.3648l-11.31451,-0.37518z" fill="#100d25"/><path d="M193.38975,209.2083c0.08831,-1.36632 1.26754,-2.40235 2.63386,-2.31404c1.36632,0.08831 2.40236,1.26755 2.31404,2.63387c-0.08831,1.36632 -1.26754,2.40236 -2.63385,2.31405c-1.36632,-0.08831 -2.40238,-1.26754 -2.31405,-2.63387z" fill="#2a2355"/><path d="M205.97487,193.5241c0,0 -0.8244,-1.87141 -0.76513,-2.27412c0.05924,-0.40271 0.78139,-1.48759 1.10192,-1.88514c0.32052,-0.39756 2.26809,-1.01215 2.26809,-1.01215l5.72032,5.79981z" fill="#2a2355"/><path d="M208.45228,187.68435c0,0 -0.82439,-1.8714 -0.76513,-2.2741c0.05924,-0.40271 0.78139,-1.48759 1.10192,-1.88515c0.32052,-0.39756 2.26809,-1.01215 2.26809,-1.01215l5.72031,5.79981z" fill="#2a2355"/><path d="M205.92313,196.36927c0,0 -1.77464,-0.17339 -2.70053,-0.14156c-0.83871,0.02884 -2.62941,0.0927 -2.62941,0.0927c0,0 7.39559,-17.84117 8.3239,-20.09197c0.30371,-0.73638 5.3202,-0.11389 5.3202,-0.11389z" fill="#100d25"/><path d="M182.72732,202.34336c0.08957,-1.38595 1.28571,-2.43683 2.67167,-2.34725c1.38595,0.08957 2.43685,1.2857 2.34727,2.67165c-0.08958,1.38596 -1.28572,2.43682 -2.67167,2.34725c-1.38596,-0.08958 -2.43684,-1.2857 -2.34726,-2.67166z" fill="#2a2355"/></g></g><g><g><g><path d="M203.60543,173.18655l-5.69897,-9.05823l5.30462,-10.84755l6.2858,9.2934l9.61622,1.08947l-5.68816,11.30661z" data-paper-data="{&quot;index&quot;:null}" fill="#160f3d"/><path d="M197.87193,162.32307l6.07479,8.08021l10.91247,1.55597l-1.89499,6.78294c0,0 -11.18004,-1.89092 -12.73931,-2.24281c-0.46804,-0.10563 -6.61025,-9.08937 -6.61025,-9.08937z" fill="#2a2355"/></g><path d="M201.62981,171.83897l8.75874,-12.62725c0,0 1.95994,0.68444 2.27858,0.90545c0.55152,0.38255 -9.54899,14.14961 -9.54899,14.14961z" fill="#100d25"/></g><path d="M198.52289,173.99689c0.39888,-1.59032 2.01147,-2.55617 3.60178,-2.1573c1.59032,0.39888 2.55617,2.01146 2.1573,3.60178c-0.39888,1.59032 -2.01147,2.55618 -3.60178,2.15731c-1.59032,-0.39888 -2.55617,-2.01145 -2.1573,-3.60176z" fill="#160f3d"/></g><g><path d="M194.32647,146.55824c0,0 0.57972,-1.12466 2.6155,-2.31722c5.45073,-3.19303 16.01974,-9.18196 18.62601,-10.66218c1.16088,-0.65932 3.97799,0.1014 3.97799,0.1014l4.40162,9.10591l-24.25112,13.42889z" fill="#2a2355"/><path d="M216.54737,129.48509c0.59578,-0.34408 2.07608,-0.8903 2.07608,-0.8903c0,0 1.24505,-0.1004 1.66998,0.59624c1.3309,2.18198 7.2647,13.91299 7.2647,13.91299l-3.2268,1.86349c0,0 -6.82917,-11.82541 -8.02775,-13.9008c-0.34589,-0.59892 -0.14738,-1.35575 0.24376,-1.5816z" fill="#100d25"/><path d="M191.08446,145.34706c0.41128,-0.23753 1.12519,-0.7167 1.39838,-0.87445c0.45193,-0.26099 1.48759,-0.19338 1.80434,0.3551c1.15831,2.00573 8.09123,14.01076 8.09123,14.01076l-3.2268,1.86349c0,0 -6.38124,-11.04971 -7.7281,-13.38193c-0.47673,-0.82549 -0.81242,-1.69959 -0.33904,-1.97295z" fill="#100d25"/><path d="M200.47523,145.448c3.49237,-2.0824 11.71592,-6.64531 13.63466,-7.7894c0.79533,-0.47422 2.10119,-0.06405 2.43805,0.50088c0.48011,0.80518 1.74662,2.92926 1.74662,2.92926c0,0 0.07077,1.27226 -1.5121,2.3931c-3.72465,2.63735 -11.37276,6.70752 -13.05112,7.70829c-0.73414,0.43777 -2.1501,-0.13569 -2.1501,-0.13569c0,0 -1.4405,-2.50903 -1.92171,-3.31609c-0.31835,-0.53393 -0.1748,-1.69968 0.81574,-2.29032z" fill="#0028ff"/><path d="M242.77952,153.38059c0,0 -5.54071,0.24953 -7.5499,1.30951c-1.02473,0.54063 -1.24658,3.42113 -2.90136,4.89914c-2.10441,1.87962 -4.45752,0.16926 -7.22174,1.6513c-1.22612,0.65741 -3.08428,4.53779 -4.09659,5.20825c-0.97917,0.64853 -4.72361,4.02895 -4.72361,4.02895l0.96102,-5.62977c0,0 -9.19656,0.18134 -10.29517,-0.63217c-1.23128,-0.91174 -1.5973,-6.21834 -1.5973,-6.21834l-6.82766,-2.19742c0,0 5.95345,-2.99391 5.86626,-3.38969c-0.38906,-1.76618 -2.59872,-5.43249 -2.59872,-5.43249l7.74768,-1.13952l0.04386,-7.06155c0,0 5.74966,3.99118 6.5024,3.84498c1.02282,-0.19866 4.76624,-5.58776 4.76624,-5.58776c0,0 1.81945,5.65188 3.53807,6.24246c1.32403,0.45498 5.43577,-3.74759 5.43577,-3.74759c0,0 0.73787,7.373 1.71184,8.49379c1.24613,1.43395 7.94028,-2.50478 7.94028,-2.50478l-0.85533,4.71502z" fill="#100d25"/><path d="M218.93293,152.92372l5.15098,-11.63245c0,0 3.44328,-0.43836 2.9052,0.85094c-1.1119,2.66423 -5.19938,11.97379 -5.19938,11.97379z" fill="#100d25"/><path d="M216.84801,152.87935c0.69394,-1.59871 2.55252,-2.33214 4.1512,-1.6382c1.59871,0.69394 2.33215,2.55252 1.63819,4.15121c-0.69394,1.59871 -2.5525,2.33214 -4.15121,1.63819c-1.59871,-0.69394 -2.33215,-2.5525 -1.6382,-4.15121z" fill="#160f3d"/><path d="M208.95224,157.89675c0.65284,-1.504 2.40131,-2.19401 3.90532,-1.54117c1.504,0.65284 2.19401,2.40134 1.54117,3.90534c-0.65284,1.504 -2.40132,2.19398 -3.90532,1.54116c-1.504,-0.65284 -2.19402,-2.40133 -1.54117,-3.90533z" fill="#160f3d"/></g></g></g></g></svg>