<svg version="1.1" xmlns="http://www.w3.org/2000/svg" xmlns:xlink="http://www.w3.org/1999/xlink" width="11.29417" height="8.66917" viewBox="0,0,11.29417,8.66917"><defs><linearGradient x1="264.11465" y1="175.57972" x2="264.11465" y2="178.64853" gradientUnits="userSpaceOnUse" id="color-1"><stop offset="0" stop-color="#0044a1"/><stop offset="1" stop-color="#000e69"/></linearGradient><radialGradient cx="266.68211" cy="177.16885" r="4.27208" gradientUnits="userSpaceOnUse" id="color-2"><stop offset="0" stop-color="#0044a1"/><stop offset="1" stop-color="#0044a1" stop-opacity="0"/></radialGradient><radialGradient cx="263.93211" cy="177.04385" r="4.27208" gradientUnits="userSpaceOnUse" id="color-3"><stop offset="0" stop-color="#0044a1"/><stop offset="1" stop-color="#0044a1" stop-opacity="0"/></radialGradient></defs><g transform="translate(-259.66003,-172.77176)"><g data-paper-data="{&quot;isPaintingLayer&quot;:true}" fill-rule="nonzero" stroke-linecap="butt" stroke-linejoin="miter" stroke-miterlimit="10" stroke-dasharray="" stroke-dashoffset="0" style="mix-blend-mode: normal"><path d="M261.16449,177.10547c0,-0.48549 0.26832,-1.52575 0.26832,-1.52575c0,0 3.29002,-0.35731 5.36371,0c2.07371,0.35731 3.14501,1.46609 3.14501,1.46609c0,0 -1.83455,1.35589 -3.14501,1.60272c-1.31046,0.24684 -5.36371,0 -5.36371,0c0,0 -0.26832,-1.01006 -0.26832,-1.54305z" fill="url(#color-1)" stroke="#000000" stroke-width="0.75"/><path d="M262.41003,177.16885c0,-2.35941 1.91268,-4.27209 4.27209,-4.27209c2.35941,0 4.27208,1.91268 4.27208,4.27209c0,2.35941 -1.91268,4.27208 -4.27208,4.27208c-2.35941,0 -4.27209,-1.91268 -4.27209,-4.27208z" fill="url(#color-2)" stroke="none" stroke-width="0"/><path d="M259.66003,177.04385c0,-2.35941 1.91268,-4.27209 4.27209,-4.27209c2.35941,0 4.27208,1.91268 4.27208,4.27209c0,2.35941 -1.91268,4.27208 -4.27208,4.27208c-2.35941,0 -4.27209,-1.91268 -4.27209,-4.27208z" fill="url(#color-3)" stroke="none" stroke-width="0"/></g></g></svg>