<svg version="1.1" xmlns="http://www.w3.org/2000/svg" xmlns:xlink="http://www.w3.org/1999/xlink" width="106.26965" height="98.91158" viewBox="0,0,106.26965,98.91158"><defs><linearGradient x1="279.6806" y1="171.7734" x2="281.50321" y2="168.39019" gradientUnits="userSpaceOnUse" id="color-1"><stop offset="0" stop-color="#271100"/><stop offset="1" stop-color="#613700"/></linearGradient><linearGradient x1="242.87054" y1="154.45213" x2="246.49912" y2="147.66308" gradientUnits="userSpaceOnUse" id="color-2"><stop offset="0" stop-color="#ffffff"/><stop offset="1" stop-color="#323232"/></linearGradient><linearGradient x1="290.57084" y1="152.04129" x2="266.5207" y2="153.70275" gradientUnits="userSpaceOnUse" id="color-3"><stop offset="0" stop-color="#cca670"/><stop offset="1" stop-color="#907751"/></linearGradient><linearGradient x1="275.77372" y1="144.18344" x2="276.76538" y2="150.33294" gradientUnits="userSpaceOnUse" id="color-4"><stop offset="0" stop-color="#dadada"/><stop offset="1" stop-color="#898989"/></linearGradient><linearGradient x1="277.5473" y1="154.4902" x2="278.53894" y2="160.63969" gradientUnits="userSpaceOnUse" id="color-5"><stop offset="0" stop-color="#dadada"/><stop offset="1" stop-color="#898989"/></linearGradient><linearGradient x1="273.8466" y1="154.16789" x2="266.18983" y2="154.99828" gradientUnits="userSpaceOnUse" id="color-6"><stop offset="0" stop-color="#272727"/><stop offset="1" stop-color="#000000"/></linearGradient><linearGradient x1="246.76811" y1="171.93354" x2="244.69234" y2="141.88483" gradientUnits="userSpaceOnUse" id="color-7"><stop offset="0" stop-color="#202020"/><stop offset="1" stop-color="#000000"/></linearGradient><linearGradient x1="241.65815" y1="147.74543" x2="231.59126" y2="148.44085" gradientUnits="userSpaceOnUse" id="color-8"><stop offset="0" stop-color="#696969"/><stop offset="1" stop-color="#272727"/></linearGradient><linearGradient x1="243.20837" y1="166.55834" x2="233.14146" y2="167.25374" gradientUnits="userSpaceOnUse" id="color-9"><stop offset="0" stop-color="#696969"/><stop offset="1" stop-color="#272727"/></linearGradient><linearGradient x1="248.87882" y1="161.6974" x2="249.0107" y2="163.60673" gradientUnits="userSpaceOnUse" id="color-10"><stop offset="0" stop-color="#000000"/><stop offset="1" stop-color="#414141"/></linearGradient><linearGradient x1="253.90336" y1="149.12824" x2="246.62251" y2="149.63124" gradientUnits="userSpaceOnUse" id="color-11"><stop offset="0" stop-color="#696969"/><stop offset="1" stop-color="#272727"/></linearGradient><radialGradient cx="284.03696" cy="160.57254" r="5.19534" gradientUnits="userSpaceOnUse" id="color-12"><stop offset="0" stop-color="#00059e"/><stop offset="1" stop-color="#1f5cff"/></radialGradient><radialGradient cx="278.49796" cy="150.65403" r="5.19534" gradientUnits="userSpaceOnUse" id="color-13"><stop offset="0" stop-color="#00059e"/><stop offset="1" stop-color="#1f5cff"/></radialGradient><radialGradient cx="278.47376" cy="150.56469" r="7.2184" gradientUnits="userSpaceOnUse" id="color-14"><stop offset="0" stop-color="#0015ff"/><stop offset="1" stop-color="#0015ff" stop-opacity="0"/></radialGradient><radialGradient cx="283.69656" cy="160.92703" r="6.6881" gradientUnits="userSpaceOnUse" id="color-15"><stop offset="0" stop-color="#0021ff"/><stop offset="1" stop-color="#0021ff" stop-opacity="0"/></radialGradient><linearGradient x1="242.43755" y1="157.21423" x2="232.37067" y2="157.90967" gradientUnits="userSpaceOnUse" id="color-16"><stop offset="0" stop-color="#696969"/><stop offset="1" stop-color="#272727"/></linearGradient><linearGradient x1="254.72994" y1="131.90024" x2="243.73686" y2="135.97976" gradientUnits="userSpaceOnUse" id="color-17"><stop offset="0" stop-color="#838383"/><stop offset="1" stop-color="#000000"/></linearGradient><linearGradient x1="270.19978" y1="134.81648" x2="263.32211" y2="137.36876" gradientUnits="userSpaceOnUse" id="color-18"><stop offset="0" stop-color="#838383"/><stop offset="1" stop-color="#2c2c2c"/></linearGradient><linearGradient x1="265.42439" y1="140.91435" x2="261.12234" y2="142.51083" gradientUnits="userSpaceOnUse" id="color-19"><stop offset="0" stop-color="#838383"/><stop offset="1" stop-color="#2c2c2c"/></linearGradient><linearGradient x1="252.03633" y1="118.23584" x2="260.52418" y2="111.72389" gradientUnits="userSpaceOnUse" id="color-20"><stop offset="0" stop-color="#000000" stop-opacity="0"/><stop offset="1" stop-color="#000000" stop-opacity="0"/></linearGradient><linearGradient x1="255.65666" y1="157.55358" x2="257.26668" y2="146.9774" gradientUnits="userSpaceOnUse" id="color-21"><stop offset="0" stop-color="#000000" stop-opacity="0"/><stop offset="1" stop-color="#000000" stop-opacity="0"/></linearGradient></defs><g transform="translate(-192.99389,-82.64425)"><g data-paper-data="{&quot;isPaintingLayer&quot;:true}" fill-rule="nonzero" stroke-linejoin="miter" stroke-miterlimit="10" stroke-dasharray="" stroke-dashoffset="0" style="mix-blend-mode: normal"><g data-paper-data="{&quot;index&quot;:null}" stroke="#000000"><g data-paper-data="{&quot;index&quot;:null}"><path d="M275.96699,165.40778l12.0679,6.45691l-2.02056,3.53313l-11.86991,-6.60678z" data-paper-data="{&quot;index&quot;:null}" fill="url(#color-1)" stroke-width="2" stroke-linecap="butt"/><path d="M217.42326,132.28123l58.15166,30.76364l-3.62857,6.78903c0,0 -1.56242,-1.2888 -8.10806,-4.7516c-6.99392,-3.69989 -29.55976,-17.7237 -39.75958,-23.11964c-5.41498,-2.86461 -6.65547,-9.68138 -6.65547,-9.68138z" data-paper-data="{&quot;index&quot;:null}" fill="url(#color-2)" stroke-width="2" stroke-linecap="butt"/><path d="M272.27775,170.27814l3.59073,-7.39898" data-paper-data="{&quot;index&quot;:null}" fill="none" stroke-width="4" stroke-linecap="round"/><path d="M276.46074,169.81408l1.64927,-3.03803" data-paper-data="{&quot;index&quot;:null}" fill="none" stroke-width="2" stroke-linecap="round"/><path d="M278.73579,171.15269l1.56254,-2.87811" data-paper-data="{&quot;index&quot;:null}" fill="none" stroke-width="1.5" stroke-linecap="round"/><path d="M281.53235,172.21964l1.51912,-2.79819" data-paper-data="{&quot;index&quot;:null}" fill="none" stroke-width="1.5" stroke-linecap="round"/><path d="M283.66097,173.78397l1.5191,-2.79815" data-paper-data="{&quot;index&quot;:null}" fill="none" stroke-width="1.5" stroke-linecap="round"/></g><path d="M273.86069,166.53586c0,0 -42.36229,-23.53322 -50.31087,-27.96534c-2.49069,-1.38883 -4.75711,-5.08974 -4.75711,-5.08974" fill="none" stroke-width="1" stroke-linecap="round"/></g><path d="M259.63505,167.55174c0,0 -0.37006,4.10095 -5.40719,7.20629c-5.63234,3.47231 -2.81049,-0.34868 -3.08409,0.77914" data-paper-data="{&quot;index&quot;:null}" fill="none" stroke="#121212" stroke-width="10" stroke-linecap="round"/><path d="M233.12882,163.57063l-5.0165,5.90159l-15.46126,4.06402" data-paper-data="{&quot;index&quot;:null}" fill="none" stroke="#121212" stroke-width="13" stroke-linecap="round"/><path d="M210.95687,148.29408l15.27171,2.25286l5.77178,5.13563" data-paper-data="{&quot;index&quot;:null}" fill="none" stroke="#121212" stroke-width="13" stroke-linecap="round"/><path d="M215.04209,165.75864l4.7771,-1.05386l1.30693,13.643l-4.78023,0.95334z" data-paper-data="{&quot;index&quot;:null}" fill="#000000" stroke="none" stroke-width="0" stroke-linecap="butt"/><path d="M214.80827,167.79822c1.89627,-0.53114 4.89264,-1.2568 6.06771,-1.57728c0.91985,-0.25088 2.06905,0.66352 2.23803,1.92694c0.12629,0.94435 0.4493,2.83235 0.69707,4.40968c0.19006,1.20999 -0.61231,2.54963 -1.40115,2.76478c-1.13446,0.30941 -4.33737,1.18293 -6.33955,1.72899c-0.99549,0.2715 -1.82253,-0.50676 -1.98653,-1.74329c-0.22105,-1.6668 -0.50684,-3.82 -0.63019,-4.74244c-0.1033,-0.77241 0.41677,-2.50467 1.35465,-2.76738z" data-paper-data="{&quot;index&quot;:null}" fill="#000000" stroke="none" stroke-width="NaN" stroke-linecap="butt"/><path d="M214.66787,141.6765l4.8305,0.66605l-0.45212,13.8866l-4.83365,-0.76795z" data-paper-data="{&quot;index&quot;:null}" fill="#000000" stroke="none" stroke-width="0" stroke-linecap="butt"/><path d="M213.60816,153.18386c-0.96369,-0.13402 -1.71509,-1.77785 -1.7185,-2.55578c-0.00412,-0.92906 -0.01585,-3.09746 -0.02512,-4.77595c-0.00686,-1.24522 0.70485,-2.12607 1.72675,-1.99109c2.0553,0.27151 5.34317,0.70584 6.5077,0.85968c0.80976,0.10698 1.78669,1.32455 1.76414,2.547c-0.02939,1.59361 -0.09071,3.50464 -0.08655,4.45576c0.00561,1.27247 -1.00611,2.33125 -1.95041,2.20649c-1.20625,-0.15935 -4.26956,-0.47512 -6.21806,-0.74606z" data-paper-data="{&quot;index&quot;:null}" fill="#000000" stroke="none" stroke-width="NaN" stroke-linecap="butt"/><path d="M198.15503,137.80609c0.89689,0.22989 2.81982,0.7227 4.38318,1.1234c1.30371,0.33413 2.17098,1.33139 1.99587,2.01457c-0.46532,1.81554 -2.55283,9.96035 -2.55283,9.96035c0,0 -1.18385,0.16274 -2.62759,0.43605c-0.936,0.1772 -3.28741,-0.62784 -4.16994,-1.19238c-1.4611,-0.93459 -2.18983,-1.54717 -2.18983,-1.54717c0,0 2.12203,-8.27946 2.57806,-10.05873c0.16471,-0.64257 1.63348,-0.97954 2.58308,-0.73615z" data-paper-data="{&quot;index&quot;:null}" fill="#000000" stroke="none" stroke-width="0" stroke-linecap="butt"/><path d="M202.19872,141.13079l9.35619,0.47723c0,0 -2.78836,3.75164 -3.2365,5.42434c-0.46803,1.7469 0.00203,6.73015 0.00203,6.73015l-7.93708,-4.61803z" data-paper-data="{&quot;index&quot;:null}" fill="#000000" stroke="none" stroke-width="0" stroke-linecap="butt"/><path d="M196.15506,165.98578c0.95221,0.03112 2.99389,0.09785 4.65374,0.15209c1.3842,0.04523 2.47906,0.80939 2.45674,1.49291c-0.05936,1.81646 -0.32568,9.96553 -0.32568,9.96553c0,0 -1.1522,0.40049 -2.54049,0.95975c-0.90008,0.36261 -3.44208,0.08932 -4.45513,-0.26178c-1.6771,-0.58124 -2.54652,-1.00978 -2.54652,-1.00978c0,0 0.27071,-8.28373 0.32891,-10.06393c0.02101,-0.64294 1.42018,-1.26767 2.42844,-1.23472z" data-paper-data="{&quot;index&quot;:null}" fill="#000000" stroke="none" stroke-width="0" stroke-linecap="butt"/><path d="M199.85282,169.17468l10.58276,-2.31821c0,0 -1.91921,4.39579 -1.99652,6.12577c-0.08074,1.80671 1.82193,6.48058 1.82193,6.48058l-10.58898,-1.99619z" data-paper-data="{&quot;index&quot;:null}" fill="#000000" stroke="none" stroke-width="0" stroke-linecap="butt"/><path d="M266.05866,145.17887c0.17097,-3.8881 17.69447,-6.58577 20.30442,-4.48028c2.9933,2.41478 5.31584,9.83809 3.59669,16.41052c-1.44413,5.5209 -6.60403,7.43829 -11.13973,7.9506c-3.81367,0.43077 -8.8467,2.29924 -11.05615,-0.74309c-0.87896,-7.90624 -1.48246,-11.13857 -1.7052,-19.13774z" data-paper-data="{&quot;index&quot;:null}" fill="url(#color-3)" stroke="none" stroke-width="0" stroke-linecap="butt"/><path d="M278.88225,146.83689c0.27386,1.69814 -0.67391,3.26337 -2.11688,3.49608c-1.44296,0.23269 -2.8347,-0.95526 -3.10855,-2.65344c-0.27386,-1.69814 0.67391,-3.26337 2.11688,-3.49608c1.44296,-0.23269 2.8347,0.95527 3.10855,2.65344z" data-paper-data="{&quot;index&quot;:null}" fill="url(#color-4)" stroke="none" stroke-width="0" stroke-linecap="butt"/><path d="M275.71686,146.25082c0.90031,-0.14519 1.74785,0.46698 1.89303,1.36727c0.14519,0.90031 -0.46698,1.74785 -1.36727,1.89303c-0.90031,0.14519 -1.74784,-0.46697 -1.89303,-1.36727c-0.14519,-0.90031 0.46698,-1.74785 1.36727,-1.89303z" data-paper-data="{&quot;index&quot;:null}" fill="#000000" stroke="none" stroke-width="0" stroke-linecap="butt"/><path d="M279.29626,143.55502c0,0 0.76623,1.98586 0.92538,2.97284c0.1621,1.00508 0.03848,3.00436 0.03848,3.00436" data-paper-data="{&quot;index&quot;:null}" fill="none" stroke="#000000" stroke-width="2.5" stroke-linecap="round"/><path d="M287.66736,157.85022c0,0 0.76625,1.98585 0.9254,2.97283c0.1621,1.00508 0.03847,3.00435 0.03847,3.00435" data-paper-data="{&quot;index&quot;:null}" fill="none" stroke="#000000" stroke-width="2.5" stroke-linecap="round"/><path d="M280.65582,157.14364c0.27386,1.69814 -0.67391,3.26337 -2.11688,3.49608c-1.44296,0.23269 -2.8347,-0.95526 -3.10855,-2.65344c-0.27386,-1.69814 0.67392,-3.26339 2.11687,-3.49608c1.44296,-0.23269 2.8347,0.95526 3.10855,2.65344z" data-paper-data="{&quot;index&quot;:null}" fill="url(#color-5)" stroke="none" stroke-width="0" stroke-linecap="butt"/><path d="M277.49039,156.55758c0.90031,-0.14519 1.74784,0.46697 1.89303,1.36727c0.14519,0.90031 -0.46698,1.74785 -1.36727,1.89303c-0.90031,0.14519 -1.74785,-0.46698 -1.89303,-1.36727c-0.14519,-0.90031 0.46698,-1.74785 1.36727,-1.89303z" data-paper-data="{&quot;index&quot;:null}" fill="#000000" stroke="none" stroke-width="0" stroke-linecap="butt"/><path d="M266.98812,161.22742l0.5761,-0.80135l-0.86157,-0.69952l0.17496,-1.02831l0.22812,-1.0986l0.66049,-0.77376l-0.15588,-1.03328l0.25799,-0.65346l-0.37287,-0.8163l-1.01941,-1.37776l0.20762,-1.1796l-0.57494,-1.00909l-0.45658,-0.85867l0.87427,-1.07731l0.1133,-1.24845l0.99905,0.3859l0.33109,-1.20608l1.12955,-0.26467l0.3796,1.04992l0.79124,0.07771l1.04561,0.56777l0.12814,1.01045l0.56807,1.05391l0.02313,0.88065l0.71747,0.75919l0.25971,1.38295l0.88904,1.40272l-0.73682,0.88915l-0.0999,1.23871l-0.63579,0.74794l0.09064,0.94994l-0.59259,0.74904l0.61735,0.90379l-0.98931,0.63267l-0.46203,0.46271l0.26551,0.92515l-1.62226,0.63762l-1.17434,-0.51919l-1.21474,-0.42895z" data-paper-data="{&quot;index&quot;:null}" fill="url(#color-6)" stroke="#000000" stroke-width="0" stroke-linecap="butt"/><path d="M281.57741,138.79129l1.68566,-0.98245l1.6638,0.0731l1.64497,-0.61712l0.54466,0.94117l0.41095,0.7792l1.26383,0.33674l-0.27411,1.59647l0.7069,1.1336l1.47227,1.18073l-0.76442,1.12657l0.90056,1.57848l0.51293,1.9438l0.16785,1.44791c0,0 -0.89491,0.41454 -1.08635,0.81071c-0.19335,0.40014 -0.06798,1.57836 -0.06798,1.57836l1.04267,0.95072l-0.03532,1.31067l-0.06825,1.54143l0.30754,1.34613l0.30643,1.31075l-1.61701,-0.55854l-0.75561,0.67313l-0.925,0.96785l-1.2491,0.96112c0,0 -0.94361,0.05323 -1.21866,-0.17036c-0.24221,-0.1969 -0.45269,-1.32298 -0.45269,-1.32298l0.19159,-1.58502l-1.3169,-0.64996c0,0 -0.2949,-0.92899 -0.30652,-1.15358c-0.01742,-0.33699 0.65556,-0.74307 0.65556,-0.74307l-0.53494,-1.23424c0,0 -0.11595,-0.22893 -0.12264,-0.57376c-0.0046,-0.23707 0.52509,-0.65475 0.57833,-0.80026c0.09335,-0.25531 0.69786,-0.63957 0.69786,-0.63957c0,0 -0.03439,-0.60563 -0.20135,-0.8822c-0.20631,-0.34174 -1.61142,-0.47298 -1.61142,-0.47298l-0.11671,-1.52447l0.03024,-1.0855l0.16522,-1.57839l-0.54316,-0.94987l-1.11734,-1.40659l-0.64701,-1.38705l0.9474,-1.32449l-1.12642,-0.91011z" data-paper-data="{&quot;index&quot;:null}" fill="#000000" stroke="#000000" stroke-width="0.5" stroke-linecap="butt"/><path d="M265.48452,138.17102l2.65016,28.56846c0,0 -13.52669,0.32256 -20.04742,1.20128c-6.40785,0.86353 -19.03746,4.38797 -19.03746,4.38797c0,0 -3.09139,-9.37713 -3.55299,-14.13388c-0.46075,-4.74786 0.78593,-14.37999 0.78593,-14.37999c0,0 12.58275,-1.13296 19.02853,-2.06093c6.61701,-0.95266 20.17324,-3.58289 20.17324,-3.58289z" data-paper-data="{&quot;index&quot;:null}" fill="#191919" stroke="none" stroke-width="0" stroke-linecap="butt"/><path d="M263.00821,168.08048c0,0 -10.47736,3.77339 -15.31069,3.62757c-4.88503,0.49711 -17.86398,1.09321 -17.86398,1.09321c0,0 -4.68567,-9.15693 -5.52038,-14.93894c-0.83474,-5.78201 1.82477,-15.06004 1.82477,-15.06004c0,0 15.62388,-1.1335 20.55165,-0.86781c2.0479,-0.15569 14.01366,1.18859 14.01366,1.18859c0,0 0.84897,3.04149 0.93764,6.6628c0.06,2.45055 0.33732,6.26135 0.469,8.74144c0.14072,2.65097 0.33441,1.58399 0.41282,3.05219z" data-paper-data="{&quot;index&quot;:null}" fill="url(#color-7)" stroke="#000000" stroke-width="2" stroke-linecap="butt"/><path d="M232.88437,145.05063c1.65949,-0.11464 8.552,-0.51491 8.552,-0.51491c0,0 0.14613,2.11503 0.22019,3.1873c0.07545,1.09235 0.22851,3.30772 0.22851,3.30772c0,0 -6.84735,0.47301 -8.54677,0.59044c-0.74129,0.0512 -1.56011,-0.47408 -1.6088,-1.17887c-0.09386,-1.3587 -0.15731,-3.39502 -0.20488,-4.08356c-0.02767,-0.40045 0.67781,-1.26094 1.35978,-1.30806z" data-paper-data="{&quot;index&quot;:null}" fill="url(#color-8)" stroke="#000000" stroke-width="1" stroke-linecap="butt"/><path d="M238.61831,143.98008c0,0 2.75202,-0.19012 3.5421,-0.2447c0.36426,-0.02517 1.05865,0.609 1.09871,1.18885c0.06557,0.94912 0.25846,3.7414 0.3623,5.24468c0.03803,0.55027 -0.59523,1.09506 -1.01043,1.12373c-0.8138,0.0562 -3.47094,0.23978 -3.47094,0.23978z" data-paper-data="{&quot;index&quot;:null}" fill="#282828" stroke="#000000" stroke-width="1" stroke-linecap="butt"/><text transform="translate(257.21661,156.54701) rotate(86.04674) scale(0.06656,0.06656)" font-size="40" xml:space="preserve" data-paper-data="{&quot;index&quot;:null}" fill="#ffffff" fill-rule="nonzero" stroke="#ffffff" stroke-width="2" stroke-linecap="butt" stroke-linejoin="miter" stroke-miterlimit="10" stroke-dasharray="" stroke-dashoffset="0" font-family="Sans Serif" font-weight="normal" text-anchor="start" style="mix-blend-mode: normal"><tspan x="0" dy="0">S.O.A.S.T</tspan></text><path d="M248.84423,160.24249c0.54162,-0.34278 1.16581,-0.57074 1.84073,-0.6473" data-paper-data="{&quot;index&quot;:null}" fill="#e6e016" stroke="#ff1919" stroke-width="3" stroke-linecap="butt"/><path d="M267.77744,166.06593c0,0 -1.80475,1.56222 -2.81773,1.68891c-0.97086,0.12143 -3.01674,-0.11462 -3.01674,-0.11462l-0.5699,-7.19487c0,0 2.88648,0.75843 3.01365,0.74899c0.89174,-0.06608 2.86402,-1.06486 2.86402,-1.06486z" data-paper-data="{&quot;index&quot;:null}" fill="#000000" stroke="#000000" stroke-width="0.5" stroke-linecap="butt"/><path d="M252.71012,159.9274c0.64053,0.30182 1.18541,0.78023 1.56753,1.37677" data-paper-data="{&quot;index&quot;:null}" fill="none" stroke="#1921ff" stroke-width="3" stroke-linecap="butt"/><path d="M254.86599,163.18438c0.03316,0.85138 -0.22133,1.65122 -0.67885,2.30241" data-paper-data="{&quot;index&quot;:null}" fill="none" stroke="#4aff19" stroke-width="3" stroke-linecap="butt"/><path d="M252.55575,166.79829c-0.36771,0.15304 -0.76621,0.24973 -1.18554,0.2787c-0.27992,0.01934 -0.55477,0.00749 -0.82121,-0.03256" data-paper-data="{&quot;index&quot;:null}" fill="none" stroke="#fff719" stroke-width="3" stroke-linecap="butt"/><path d="M248.90628,166.42187c-0.53355,-0.43206 -0.94847,-1.0087 -1.18216,-1.67544" data-paper-data="{&quot;index&quot;:null}" fill="none" stroke="#ff9319" stroke-width="3" stroke-linecap="butt"/><path d="M234.43457,163.86348c1.65949,-0.11464 8.552,-0.51491 8.552,-0.51491l0.4487,6.49501c0,0 -6.84735,0.47301 -8.54677,0.59044c-0.74129,0.0512 -1.56011,-0.47408 -1.6088,-1.17887c-0.09386,-1.3587 -0.15731,-3.39502 -0.20488,-4.08356c-0.02767,-0.40045 0.67781,-1.26094 1.35978,-1.30806z" data-paper-data="{&quot;index&quot;:null}" fill="url(#color-9)" stroke="#000000" stroke-width="1" stroke-linecap="butt"/><path d="M251.27813,163.45016l-4.66672,-1.59612" data-paper-data="{&quot;index&quot;:null}" fill="none" stroke="url(#color-10)" stroke-width="1.5" stroke-linecap="round"/><path d="M251.08657,161.80706c0.83819,-0.05791 1.56464,0.57463 1.62253,1.41288c0.05792,0.83819 -0.57465,1.56463 -1.41288,1.62255c-0.83819,0.05791 -1.56462,-0.57464 -1.62254,-1.41289c-0.05792,-0.83819 0.57463,-1.56464 1.41288,-1.62253z" data-paper-data="{&quot;index&quot;:null}" fill="#ffffff" stroke="none" stroke-width="3" stroke-linecap="butt"/><path d="M266.12041,148.22871c0,0 -1.80051,0.27365 -2.78351,0.45481c-1.07645,0.19836 -2.88189,0.90595 -2.88189,0.90595l-0.45247,-6.12874c0,0 1.69755,-1.32979 2.80953,-1.42445c0.99277,-0.08453 2.9521,-0.24126 2.9521,-0.24126z" data-paper-data="{&quot;index&quot;:null}" fill="#000000" stroke="#000000" stroke-width="0.5" stroke-linecap="butt"/><path d="M290.4992,154.75962c-0.44334,4.30713 5.01656,3.64576 1.94113,7.08478c-3.52753,3.93508 -12.71631,5.85384 -18.95048,6.56174c-4.95689,-0.64733 -4.73852,-0.11863 -6.46681,-5.25069c-1.33452,-4.48767 -2.70011,-11.18573 -2.92788,-15.8284c-0.01782,-0.36296 -0.07622,-1.13415 -0.04237,-1.32325c1.87611,-3.49072 2.91548,-4.38115 5.99479,-5.63198c0.31588,-0.12825 6.25428,-1.18025 10.01133,-0.60848c4.05817,0.50014 3.90595,-0.93996 6.82003,1.32001c2.16527,1.67846 1.6579,6.70734 1.40651,9.12442z" data-paper-data="{&quot;index&quot;:null}" fill="#3e3e3e" stroke="#000000" stroke-width="1.5" stroke-linecap="round"/><path d="M240.17839,162.93553c0,0 2.75205,-0.19011 3.54211,-0.24468c0.36426,-0.02517 1.05864,0.60899 1.09869,1.18885c0.06557,0.94912 0.25848,3.74142 0.36231,5.24468c0.03803,0.55027 -0.59523,1.09505 -1.01044,1.12373c-0.8138,0.0562 -3.47094,0.2398 -3.47094,0.2398z" data-paper-data="{&quot;index&quot;:null}" fill="#282828" stroke="#000000" stroke-width="1" stroke-linecap="butt"/><path d="M264.05505,163.0624c-0.20166,-2.91905 1.99113,-7.64797 5.28324,-7.87541c1.73868,-0.12011 3.50642,0.06422 4.89333,0.68973c1.23912,0.55883 2.36243,1.61025 2.45757,2.98764c0.07429,1.0751 0.25333,3.10173 -0.58969,4.43247c-1.44594,2.28244 -4.55356,3.76578 -6.63321,3.90945c0,0 -5.20959,-1.22481 -5.41124,-4.14386z" data-paper-data="{&quot;index&quot;:null}" fill="#151515" stroke="#000000" stroke-width="1.5" stroke-linecap="butt"/><path d="M269.55923,166.85994c-2.55866,0.17676 -4.75957,-1.51404 -4.91588,-3.77654c-0.15629,-2.2625 1.79121,-4.2399 4.3499,-4.41666c2.55866,-0.17676 4.75956,1.51408 4.91586,3.77655c0.15631,2.2625 -1.7912,4.23987 -4.34988,4.41663z" data-paper-data="{&quot;index&quot;:null}" fill="#313131" stroke="#000000" stroke-width="1.5" stroke-linecap="butt"/><g data-paper-data="{&quot;index&quot;:null}" stroke="#000000" stroke-width="1" stroke-linecap="butt"><path d="M247.53362,146.82994c1.2002,-0.0829 6.18575,-0.36437 6.18575,-0.36437l0.37221,5.38809c0,0 -4.95233,0.3421 -6.18144,0.42705c-0.53615,0.03704 -1.13256,-0.40446 -1.17295,-0.98914c-0.07787,-1.12714 -0.13871,-2.81586 -0.17814,-3.38706c-0.02296,-0.33223 0.48135,-1.04048 0.97455,-1.07456z" fill="url(#color-11)"/><path d="M251.68394,146.10258c0,0 1.99037,-0.13751 2.56183,-0.17699c0.26345,-0.01821 0.77067,0.51264 0.80389,0.99365c0.05439,0.78737 0.21441,3.10376 0.30056,4.35083c0.03155,0.45647 -0.42279,0.90351 -0.72313,0.92428c-0.58858,0.04066 -2.51038,0.17341 -2.51038,0.17341z" fill="#282828"/></g><path d="M290.26873,160.02758c-0.06844,1.32088 -0.80132,2.48899 -1.92699,3.30732c-1.12988,0.81785 -2.65287,1.28584 -4.30185,1.20995c-1.64899,-0.07596 -3.11632,-0.68157 -4.15621,-1.5993c-1.03599,-0.91783 -1.6442,-2.14775 -1.57577,-3.46858c0.06846,-1.32115 0.80097,-2.48934 1.92698,-3.30734c1.12987,-0.81813 2.65286,-1.28583 4.30181,-1.20992c1.64899,0.07596 3.11633,0.68123 4.15621,1.5993c1.03567,0.91749 1.64425,2.14741 1.57579,3.46857z" data-paper-data="{&quot;index&quot;:null}" fill="#000000" stroke="#000000" stroke-width="2" stroke-linecap="butt"/><path d="M267.04269,137.56824c0,0 -2.31524,-0.49367 -7.82623,-0.45328c-1.2843,-0.58514 -4.406,-0.79148 -9.42426,-4.95677c-4.17012,-3.4613 5.53743,-13.61085 4.1835,-14.65126" data-paper-data="{&quot;index&quot;:null}" fill="none" stroke="#121212" stroke-width="10" stroke-linecap="round"/><path d="M289.33218,160.751c-0.07116,1.08522 -0.72961,2.05035 -1.73327,2.73129c-1.00735,0.6806 -2.36017,1.07705 -3.82017,1.02784c-1.46006,-0.04921 -2.75498,-0.53488 -3.66885,-1.28021c-0.91038,-0.74547 -1.43934,-1.75062 -1.36823,-2.83582c0.07114,-1.08547 0.72933,-2.05059 1.73327,-2.73129c1.00738,-0.68083 2.36017,-1.07704 3.82019,-1.02787c1.46007,0.04923 2.75504,0.53458 3.66887,1.28024c0.91008,0.74521 1.43938,1.75034 1.36823,2.83582z" data-paper-data="{&quot;index&quot;:null}" fill="url(#color-12)" stroke="#000000" stroke-width="2" stroke-linecap="butt"/><path d="M285.12191,142.01791c0,0 -20.80196,2.14402 -20.64111,1.51822c0.25027,-0.97356 1.08901,-0.72824 1.27219,-2.67175c0.09889,-1.04942 -0.552,-3.55818 -0.12815,-5.39335c0.31117,-1.3473 22.62333,-3.18354 22.62333,-3.18354c0,0 7.17177,0.55223 10.26537,12.71402c1.08237,14.48482 -5.51353,16.40705 -5.51353,16.40705c0,0 -1.69378,-2.20657 -4.88087,-6.26849c-3.17074,-4.0411 -2.98662,-10.73297 -2.98662,-10.73297z" data-paper-data="{&quot;index&quot;:null}" fill="#1e1e1e" stroke="#000000" stroke-width="1.5" stroke-linecap="butt"/><path d="M284.9785,149.68853c-0.06844,1.32088 -0.80132,2.48898 -1.92699,3.30732c-1.12988,0.81785 -2.65288,1.28583 -4.30185,1.20995c-1.64899,-0.07596 -3.11628,-0.68157 -4.15621,-1.5993c-1.03599,-0.91783 -1.64422,-2.14772 -1.57579,-3.46858c0.06846,-1.32115 0.80097,-2.48934 1.92699,-3.30732c1.12987,-0.81813 2.65286,-1.28582 4.30182,-1.20993c1.64899,0.07596 3.11636,0.68121 4.15624,1.59929c1.03567,0.91749 1.64423,2.14744 1.57577,3.46857z" data-paper-data="{&quot;index&quot;:null}" fill="#000000" stroke="#000000" stroke-width="2" stroke-linecap="butt"/><path d="M283.7932,150.83248c-0.07116,1.08522 -0.72961,2.05035 -1.73327,2.73129c-1.00735,0.6806 -2.36017,1.07704 -3.82019,1.02784c-1.46007,-0.04923 -2.755,-0.53489 -3.66885,-1.28021c-0.91038,-0.74547 -1.43934,-1.75062 -1.36823,-2.83582c0.07114,-1.08547 0.72933,-2.05059 1.73327,-2.73129c1.00738,-0.68083 2.36015,-1.07706 3.82018,-1.02786c1.46007,0.04923 2.75504,0.53458 3.66887,1.28024c0.91008,0.74521 1.43938,1.75034 1.36823,2.83582z" data-paper-data="{&quot;index&quot;:null}" fill="url(#color-13)" stroke="#000000" stroke-width="2" stroke-linecap="butt"/><path d="M283.18375,154.63652c-1.3184,0.93578 -3.09358,1.47392 -5.01381,1.39241c-1.92025,-0.08154 -3.62734,-0.76752 -4.83574,-1.81054c-1.20377,-1.04316 -1.45117,-2.4989 -1.36745,-4.00484c0.08376,-1.50631 0.48319,-2.78472 1.79709,-3.72066c1.31839,-0.9361 3.09358,-1.47391 5.01381,-1.39241c1.92025,0.08154 3.5131,0.78098 4.72143,1.82444c1.20339,1.04279 1.33693,2.51243 1.25316,4.01872c0,0 -0.25497,2.75657 -1.56848,3.6929z" data-paper-data="{&quot;index&quot;:null}" fill="url(#color-14)" stroke="#000000" stroke-width="0" stroke-linecap="butt"/><path d="M288.4105,164.65723c-1.34041,0.88146 -3.13801,1.39861 -5.07575,1.34235c-1.93777,-0.05632 -3.65426,-0.67549 -4.86366,-1.63099c-1.20477,-0.95567 -1.43983,-2.30375 -1.34014,-3.70175c0.09973,-1.39833 0.51588,-2.58843 1.85174,-3.46998c1.34045,-0.88177 3.138,-1.39861 5.07574,-1.34233c1.93777,0.05632 3.53877,0.68913 4.74813,1.64503c1.2044,0.95534 1.32436,2.31743 1.2246,3.71578c0,0 -0.28516,2.56001 -1.62068,3.44195z" data-paper-data="{&quot;index&quot;:null}" fill="url(#color-15)" stroke="#000000" stroke-width="0" stroke-linecap="butt"/><path d="M279.42371,141.38244l-0.84008,1.07226" data-paper-data="{&quot;index&quot;:null}" fill="none" stroke="#000000" stroke-width="1" stroke-linecap="round"/><path d="M279.69302,142.45865l-1.20888,-0.82349" data-paper-data="{&quot;index&quot;:null}" fill="none" stroke="#000000" stroke-width="1" stroke-linecap="round"/><path d="M292.04071,156.531l1.08648,-0.82162" data-paper-data="{&quot;index&quot;:null}" fill="none" stroke="#000000" stroke-width="1" stroke-linecap="round"/><path d="M293.17496,156.42291l-0.9579,-1.1054" data-paper-data="{&quot;index&quot;:null}" fill="none" stroke="#000000" stroke-width="1" stroke-linecap="round"/><path d="M237.60656,146.53247l2.837,-0.19596l0.17701,2.56242l-2.837,0.19596z" data-paper-data="{&quot;index&quot;:null}" fill="#000000" stroke="none" stroke-width="0" stroke-linecap="butt"/><path d="M233.66376,154.51939c1.65949,-0.11464 8.552,-0.51491 8.552,-0.51491l0.4487,6.49501c0,0 -6.84735,0.47301 -8.54677,0.59044c-0.74129,0.0512 -1.56011,-0.47408 -1.60878,-1.17889c-0.09386,-1.3587 -0.15731,-3.39502 -0.20488,-4.08356c-0.02767,-0.40045 0.67781,-1.26094 1.35978,-1.30806z" data-paper-data="{&quot;index&quot;:null}" fill="url(#color-16)" stroke="#000000" stroke-width="1" stroke-linecap="butt"/><path d="M239.40762,153.59141c0,0 2.75203,-0.19011 3.54211,-0.24468c0.36426,-0.02517 1.05865,0.60899 1.0987,1.18885c0.06557,0.94912 0.25848,3.74142 0.36231,5.24468c0.03803,0.55027 -0.59523,1.09505 -1.01044,1.12373c-0.8138,0.0562 -3.47095,0.23978 -3.47095,0.23978z" data-paper-data="{&quot;index&quot;:null}" fill="#282828" stroke="#000000" stroke-width="1" stroke-linecap="butt"/><path d="M238.38599,156.00131l2.837,-0.19596l0.17701,2.56243l-2.837,0.19596z" data-paper-data="{&quot;index&quot;:null}" fill="#000000" stroke="none" stroke-width="0" stroke-linecap="butt"/><path d="M239.15678,165.34539l2.837,-0.19596l0.17701,2.56243l-2.837,0.19596z" data-paper-data="{&quot;index&quot;:null}" fill="#000000" stroke="none" stroke-width="0" stroke-linecap="butt"/><g data-paper-data="{&quot;index&quot;:null}"><path d="M259.30049,131.0258c0,0 2.06612,-0.76673 2.84814,-1.05694c0.57028,-0.21163 1.59446,-0.03433 1.79823,0.51475c0.49077,1.32249 1.32674,3.57518 1.63297,4.40039c0.21292,0.57374 -0.24773,1.41306 -0.78203,1.61133c-0.78621,0.29177 -3.04787,1.13106 -3.04787,1.13106z" fill="#282828" stroke="none" stroke-width="0" stroke-linecap="butt"/><path d="M257.54962,143.73531l3.64582,-1.35296l1.41698,3.81835l-3.64582,1.35296z" fill="#505050" stroke="none" stroke-width="0" stroke-linecap="butt"/><path d="M262.17812,139.00167c0,0 2.38502,-0.88507 3.18286,-1.18116c0.46485,-0.1725 1.37487,0.1131 1.63003,0.80072c0.49528,1.33464 1.24937,3.36669 1.53591,4.13882c0.20699,0.55776 -0.22531,1.5595 -0.69015,1.73202c-0.79786,0.29608 -3.18286,1.18116 -3.18286,1.18116z" fill="#282828" stroke="#000000" stroke-width="0.5" stroke-linecap="butt"/><path d="M261.95725,141.50609l2.45538,-0.91119l0.84283,2.27115l-2.45538,0.91119z" fill="#000000" stroke="none" stroke-width="0" stroke-linecap="butt"/><path d="M267.66565,131.79233c-0.06152,-0.70381 0.0792,-1.40012 0.38756,-2.01354" fill="none" stroke="#ff9319" stroke-width="3" stroke-linecap="butt"/><path d="M268.38198,136.02313c-0.5404,-0.52337 -1.06833,-1.11358 -1.57207,-1.76296" fill="none" stroke="#000000" stroke-width="3" stroke-linecap="butt"/><path d="M244.20131,129.41055c0,0 2.55203,0.30465 4.27413,0.77365c0.87645,0.23871 2.02158,0.01875 2.4316,0.02918c0.92369,0.02353 3.04027,-0.422 3.04027,-0.422c0,0 4.39102,-1.33132 4.48709,-0.94565c0.29626,1.18933 2.71712,7.18572 2.71712,7.18572c0,0 -8.33064,2.3691 -9.0709,2.38757c-0.43456,0.01086 -2.22812,0.17602 -3.75835,-0.18808c-1.99337,-0.47431 -4.05811,-0.83025 -4.05811,-0.83025z" fill="url(#color-17)" stroke="#000000" stroke-width="1.5" stroke-linecap="butt"/><path d="M266.41187,125.34034l1.34217,-0.49809l7.52483,20.27718l-1.34217,0.49809z" fill="#888888" stroke="#000000" stroke-width="0.5" stroke-linecap="butt"/><path d="M250.4354,88.35185l6.80962,18.34991l-2.47196,0.91734l-6.79561,-18.22582z" fill="#888888" stroke="#000000" stroke-width="1.5" stroke-linecap="round"/><path d="M259.25698,126.41445l6.87768,-2.55229l8.13025,21.90862l-6.87768,2.5523z" fill="url(#color-18)" stroke="#000000" stroke-width="1" stroke-linecap="butt"/><path d="M258.2655,128.57056l2.48611,-1.19783l2.83867,7.64938l-2.67456,0.87511z" fill="#767676" stroke="#000000" stroke-width="1.5" stroke-linecap="butt"/><path d="M258.66123,135.87897l4.30206,-1.59649l4.92216,13.26374c0,0 -1.56713,0.58157 -2.30842,0.85666c-0.3372,0.12513 -0.52773,-1.56613 -1.30296,-2.17117c-0.80859,-0.63106 -1.64738,0.01125 -1.64738,0.01125z" fill="url(#color-19)" stroke="#000000" stroke-width="1" stroke-linecap="butt"/><path d="M257.64333,143.39122c0,0 -0.98799,-2.6623 -1.36673,-3.6829c-0.26942,-0.72604 0.08162,-2.15072 0.55482,-2.32632c0.62589,-0.23228 2.1806,-0.80923 2.1806,-0.80923l2.05835,5.54666l-3.42706,1.27178z" fill="none" stroke="#000000" stroke-width="2" stroke-linecap="butt"/><path d="M261.60083,127.64588l2.91665,-1.08236l2.80414,7.55631l-2.91665,1.08236z" fill="#000000" stroke="none" stroke-width="0" stroke-linecap="butt"/><path d="M259.96776,136.39154l2.33331,-0.86589l0.80544,2.17042l-2.33331,0.86589z" fill="none" stroke="#000000" stroke-width="1" stroke-linecap="butt"/><path d="M262.33548,136.73611c0.15858,0.42732 -0.07198,0.90698 -0.51496,1.07137c-0.44298,0.16439 -0.93063,-0.04875 -1.08921,-0.47607c-0.15857,-0.42732 0.07198,-0.90698 0.51496,-1.07137c0.44298,-0.16439 0.93063,0.04875 1.08921,0.47607z" fill="#9e9e9e" stroke="none" stroke-width="0" stroke-linecap="butt"/><path d="M265.28617,125.38011l7.13298,19.66839" fill="none" stroke="#000000" stroke-width="1" stroke-linecap="round"/><path d="M264.63289,142.47986c0.23888,0.64374 -0.00816,1.32914 -0.55182,1.5309c-0.54365,0.20175 -1.17802,-0.15655 -1.41692,-0.80031c-0.23889,-0.64373 0.00816,-1.32914 0.55182,-1.5309c0.54365,-0.20175 1.17802,0.15655 1.41692,0.80031z" fill="#858585" stroke="none" stroke-width="0" stroke-linecap="butt"/><path d="M265.9536,139.10886c0,0 0.32657,-1.76741 0.77553,-1.93401c0.42468,-0.1576 1.84946,0.95989 1.84946,0.95989l2.68481,7.23477l-2.62499,0.97413z" fill="#c7c7c7" stroke="#000000" stroke-width="1" stroke-linecap="butt"/><path d="M268.74229,145.94673l2.11457,-0.78471l0.29832,0.80386l-2.11457,0.78471z" fill="#888888" stroke="#000000" stroke-width="1" stroke-linecap="butt"/><path d="M260.40863,140.70929c0,0 -1.0788,0.70127 -1.63522,0.59321c-0.57537,-0.11177 -1.76206,-1.25307 -1.76206,-1.25307c0,0 1.10432,-0.04399 1.57764,-0.21965c0.44904,-0.16663 1.19317,-0.8086 1.19317,-0.8086l0.62646,1.68812z" fill="#5b5b5b" stroke="none" stroke-width="0" stroke-linecap="butt"/><path d="M259.66811,124.44333l4.86569,-1.80565l0.49317,1.32892l-4.86569,1.80565z" fill="#5b5b5b" stroke="#000000" stroke-width="1.5" stroke-linecap="butt"/><path d="M245.86493,85.16444l3.3273,-1.23475l1.65392,4.4568l-3.3273,1.23475z" fill="#393939" stroke="#000000" stroke-width="2" stroke-linecap="butt"/><path d="M252.46803,105.8966l3.93276,-1.45943l0.57871,1.55945l-3.93276,1.45943z" fill="#000000" stroke="#000000" stroke-width="0.5" stroke-linecap="butt"/><path d="M251.19817,102.59768l9.69495,-3.59778l0.57871,1.55945l-9.69495,3.59778z" fill="#000000" stroke="#000000" stroke-width="0.5" stroke-linecap="butt"/><path d="M256.89025,105.94952l-1.82223,-4.80596l1.07075,-0.42852l1.82223,4.80596z" fill="#000000" stroke="#000000" stroke-width="0.5" stroke-linecap="butt"/><path d="M257.48002,104.07505l2.12463,-2.846l1.38806,-0.41692l-2.93757,4.81273z" fill="#000000" stroke="#000000" stroke-width="0.5" stroke-linecap="butt"/><path d="M272.99045,143.14924l1.14141,-0.42358l1.20634,3.25073l-1.14141,0.42358z" fill="#000000" stroke="none" stroke-width="0" stroke-linecap="butt"/><path d="M252.67959,107.47625l5.82342,-2.16106l6.33235,17.06379l-5.82342,2.16106z" fill="#4d4d4d" stroke="#000000" stroke-width="1.5" stroke-linecap="butt"/><path d="M267.61933,147.63562l6.3256,-2.34743l0.67721,1.82486l-6.3256,2.34743z" fill="#222222" stroke="#000000" stroke-width="1" stroke-linecap="butt"/><path d="M268.42036,171.83544c-0.08821,-0.91301 5.2589,-5.17804 5.17563,-7.59402c-0.21889,-6.35183 -3.9473,-13.27582 -3.9473,-13.27582l5.45888,-2.02578l7.33155,20.35588c0,0 -12.12722,3.6613 -13.18807,4.03206c-0.01679,0.00586 -0.79745,-1.1483 -0.83069,-1.49231z" fill="#3a3a3a" stroke="#000000" stroke-width="1.5" stroke-linecap="butt"/><path d="M268.41628,167.17445c-0.02067,-0.5075 2.06237,-3.26102 2.95321,-4.61279c-0.87987,-3.17787 -2.29862,-6.74045 -2.29862,-6.74045l3.83972,-1.61197l3.96953,11.0978c0,0 -7.00872,2.51795 -7.71754,2.7685c-0.01122,0.00397 -0.7385,-0.70986 -0.74629,-0.9011z" fill="#303030" stroke="#000000" stroke-width="1.5" stroke-linecap="butt"/><path d="M272.98301,139.23759l1.98842,-0.73789l2.05408,5.53511l-1.98842,0.73789z" fill="#888888" stroke="#000000" stroke-width="1" stroke-linecap="butt"/><path d="M275.03445,142.42975c0.41363,-0.1535 0.88613,0.09173 1.05534,0.54773c0.16922,0.45601 -0.0289,0.9501 -0.44253,1.1036c-0.41362,0.1535 -0.88613,-0.09173 -1.05534,-0.54773c-0.16922,-0.45601 0.0289,-0.95009 0.44255,-1.1036z" fill="#575757" stroke="#000000" stroke-width="1" stroke-linecap="butt"/><path d="M276.14827,141.82332l2.13756,-0.79325l0.27841,0.75025l-2.13756,0.79325z" fill="#575757" stroke="#000000" stroke-width="1" stroke-linecap="butt"/><path d="M272.56566,137.88285l0.51604,-0.19151l0.49439,1.33227l-0.51604,0.19151z" fill="#575757" stroke="#000000" stroke-width="0.5" stroke-linecap="butt"/><path d="M271.84703,135.7832l0.51604,-0.19151l0.49439,1.33227l-0.51604,0.19151z" fill="#575757" stroke="#000000" stroke-width="0.5" stroke-linecap="butt"/><path d="M270.94391,133.48248l0.51604,-0.19151l0.4944,1.33226l-0.51604,0.19151z" fill="#575757" stroke="#000000" stroke-width="0.5" stroke-linecap="butt"/><path d="M270.18195,131.39893l0.51604,-0.19151l0.4944,1.33226l-0.51604,0.19151z" fill="#575757" stroke="#000000" stroke-width="0.5" stroke-linecap="butt"/><path d="M269.42005,129.34583l0.51604,-0.19151l0.49439,1.33227l-0.51604,0.19151z" fill="#575757" stroke="#000000" stroke-width="0.5" stroke-linecap="butt"/><path d="M268.65809,127.26228l0.51605,-0.1915l0.49439,1.33227l-0.51605,0.1915z" fill="#575757" stroke="#000000" stroke-width="0.5" stroke-linecap="butt"/><path d="M267.86514,125.17787l0.51605,-0.1915l0.49439,1.33227l-0.51605,0.1915z" fill="#575757" stroke="#000000" stroke-width="0.5" stroke-linecap="butt"/><path d="M256.94455,132.02043l3.03311,-1.12558l0.60298,1.62489l-3.03311,1.12558z" fill="#585858" stroke="#000000" stroke-width="1.5" stroke-linecap="butt"/><path d="M268.92822,148.66051l4.90678,-1.8209l0.82233,2.21592l-4.90678,1.8209z" fill="#c7c7c7" stroke="#000000" stroke-width="1" stroke-linecap="butt"/><path d="M251.32693,150.72852l6.50847,-7.37668c0,0 2.80181,-1.40084 3.31234,-0.70826c0.51507,0.69875 1.45739,3.43233 1.45739,3.43233l-7.80657,9.03809z" fill="#262626" stroke="#000000" stroke-width="2" stroke-linecap="butt"/></g><path d="M260.37315,119.77375c-1.73132,1.3283 -3.10859,1.78362 -4.40402,1.02656c-0.4583,-0.26786 -0.90636,-0.68746 -1.3562,-1.27378c-0.87815,-1.1446 -3.07787,-3.80829 -3.27456,-5.1848c-0.18891,-1.32196 1.56063,-3.01434 2.70884,-3.89527c2.34383,-1.79823 5.35679,-0.18257 7.07827,2.06126c1.72147,2.24381 1.59158,5.46786 -0.75227,7.26609z" data-paper-data="{&quot;index&quot;:null}" fill="#000000" stroke="url(#color-20)" stroke-width="0" stroke-linecap="butt"/><path d="M249.48373,176.55583c0,0 -0.84135,-3.37411 -0.06291,-6.6269c1.05802,-4.42111 6.68998,-14.60518 6.68998,-14.60518" fill="none" stroke="#121212" stroke-width="10" stroke-linecap="round"/><path d="M262.73432,152.88735c-0.44461,2.92052 -1.77417,5.10529 -4.5701,4.6797c-1.42623,-0.21709 -4.93491,-0.85205 -6.03035,-1.70852c-1.05202,-0.82248 -0.64105,-3.8847 -0.42324,-5.31545c0.44461,-2.92052 3.73667,-3.84262 6.53262,-3.41698c2.79591,0.4256 4.93573,2.84073 4.4911,5.76124z" data-paper-data="{&quot;index&quot;:null}" fill="#000000" stroke="url(#color-21)" stroke-width="0" stroke-linecap="butt"/></g></g></svg>