<svg version="1.1" xmlns="http://www.w3.org/2000/svg" xmlns:xlink="http://www.w3.org/1999/xlink" width="264.92827" height="26.73492" viewBox="0,0,264.92827,26.73492"><defs><linearGradient x1="190.66231" y1="327.51452" x2="190.66231" y2="338.24786" gradientUnits="userSpaceOnUse" id="color-1"><stop offset="0" stop-color="#808080"/><stop offset="1" stop-color="#3e3e3e"/></linearGradient><linearGradient x1="202.51152" y1="327.61452" x2="202.51152" y2="338.34786" gradientUnits="userSpaceOnUse" id="color-2"><stop offset="0" stop-color="#808080"/><stop offset="1" stop-color="#3e3e3e"/></linearGradient><linearGradient x1="166.33774" y1="327.40738" x2="166.33774" y2="338.14072" gradientUnits="userSpaceOnUse" id="color-3"><stop offset="0" stop-color="#808080"/><stop offset="1" stop-color="#3e3e3e"/></linearGradient><linearGradient x1="178.18695" y1="327.50738" x2="178.18695" y2="338.24072" gradientUnits="userSpaceOnUse" id="color-4"><stop offset="0" stop-color="#808080"/><stop offset="1" stop-color="#3e3e3e"/></linearGradient><linearGradient x1="153.27748" y1="327.36452" x2="153.27748" y2="338.09786" gradientUnits="userSpaceOnUse" id="color-5"><stop offset="0" stop-color="#808080"/><stop offset="1" stop-color="#3e3e3e"/></linearGradient><linearGradient x1="378.13774" y1="315.40738" x2="378.13774" y2="326.14072" gradientUnits="userSpaceOnUse" id="color-6"><stop offset="0" stop-color="#808080"/><stop offset="1" stop-color="#3e3e3e"/></linearGradient><linearGradient x1="389.98695" y1="315.50738" x2="389.98695" y2="326.24072" gradientUnits="userSpaceOnUse" id="color-7"><stop offset="0" stop-color="#808080"/><stop offset="1" stop-color="#3e3e3e"/></linearGradient><linearGradient x1="365.07748" y1="315.36452" x2="365.07748" y2="326.09786" gradientUnits="userSpaceOnUse" id="color-8"><stop offset="0" stop-color="#808080"/><stop offset="1" stop-color="#3e3e3e"/></linearGradient><linearGradient x1="141.24112" y1="327.36452" x2="141.24112" y2="338.09786" gradientUnits="userSpaceOnUse" id="color-9"><stop offset="0" stop-color="#808080"/><stop offset="1" stop-color="#3e3e3e"/></linearGradient></defs><g transform="translate(-133.06393,-312.61293)"><g data-paper-data="{&quot;isPaintingLayer&quot;:true}" fill-rule="nonzero" stroke="#000000" stroke-width="2" stroke-linecap="butt" stroke-linejoin="miter" stroke-miterlimit="10" stroke-dasharray="" stroke-dashoffset="0" style="mix-blend-mode: normal"><path d="M193.8896,335.31733c0.66211,1.21134 2.37249,2.93053 2.37249,2.93053h-11.19955c0,0 1.5075,-1.37707 2.05532,-2.47968c0.97247,-1.9573 3.27746,-8.25366 3.27746,-8.25366c0,0 2.4139,5.82622 3.49429,7.80281z" data-paper-data="{&quot;index&quot;:null}" fill="url(#color-1)"/><path d="M205.73881,335.41733c0.66211,1.21134 2.37249,2.93053 2.37249,2.93053h-11.19955c0,0 1.5075,-1.37707 2.05532,-2.47968c0.97247,-1.9573 3.27746,-8.25366 3.27746,-8.25366c0,0 2.4139,5.82622 3.49429,7.80281z" data-paper-data="{&quot;index&quot;:null}" fill="url(#color-2)"/><path d="M169.56503,335.21019c0.66211,1.21134 2.37249,2.93053 2.37249,2.93053h-11.19955c0,0 1.5075,-1.37707 2.05532,-2.47968c0.97247,-1.9573 3.27746,-8.25366 3.27746,-8.25366c0,0 2.4139,5.82622 3.49429,7.80281z" data-paper-data="{&quot;index&quot;:null}" fill="url(#color-3)"/><path d="M181.41424,335.31019c0.66211,1.21134 2.37249,2.93053 2.37249,2.93053h-11.19955c0,0 1.5075,-1.37707 2.05532,-2.47968c0.97247,-1.9573 3.27746,-8.25366 3.27746,-8.25366c0,0 2.4139,5.82622 3.49429,7.80281z" data-paper-data="{&quot;index&quot;:null}" fill="url(#color-4)"/><path d="M156.50477,335.16733c0.66211,1.21134 2.37249,2.93053 2.37249,2.93053h-11.19955c0,0 1.5075,-1.37707 2.05532,-2.47968c0.97247,-1.9573 3.27746,-8.25366 3.27746,-8.25366c0,0 2.4139,5.82622 3.49429,7.80281z" data-paper-data="{&quot;index&quot;:null}" fill="url(#color-5)"/><path d="M381.36503,323.21019c0.66211,1.21134 2.37249,2.93053 2.37249,2.93053h-11.19955c0,0 1.5075,-1.37707 2.05532,-2.47968c0.97247,-1.9573 3.27746,-8.25366 3.27746,-8.25366c0,0 2.4139,5.82622 3.49429,7.80281z" data-paper-data="{&quot;index&quot;:null}" fill="url(#color-6)"/><path d="M393.21424,323.31019c0.66211,1.21134 2.37249,2.93053 2.37249,2.93053h-11.19955c0,0 1.5075,-1.37707 2.05532,-2.47968c0.97247,-1.9573 3.27746,-8.25366 3.27746,-8.25366c0,0 2.4139,5.82622 3.49429,7.80281z" data-paper-data="{&quot;index&quot;:null}" fill="url(#color-7)"/><path d="M368.30477,323.16733c0.66211,1.21134 2.37249,2.93053 2.37249,2.93053h-11.19955c0,0 1.5075,-1.37707 2.05532,-2.47968c0.97247,-1.9573 3.27746,-8.25366 3.27746,-8.25366c0,0 2.4139,5.82622 3.49429,7.80281z" data-paper-data="{&quot;index&quot;:null}" fill="url(#color-8)"/><path d="M144.46841,335.16733c0.66211,1.21134 2.37249,2.93053 2.37249,2.93053h-11.19955c0,0 1.5075,-1.37707 2.05532,-2.47968c0.97247,-1.9573 3.27746,-8.25366 3.27746,-8.25366c0,0 2.4139,5.82622 3.49429,7.80281z" data-paper-data="{&quot;index&quot;:null}" fill="url(#color-9)"/></g></g></svg>