<svg version="1.1" xmlns="http://www.w3.org/2000/svg" xmlns:xlink="http://www.w3.org/1999/xlink" width="33.50124" height="101.91493" viewBox="0,0,33.50124,101.91493"><defs><radialGradient cx="241.86581" cy="110.57235" r="15.91666" gradientUnits="userSpaceOnUse" id="color-1"><stop offset="0" stop-color="#ff0000"/><stop offset="1" stop-color="#ff0000" stop-opacity="0"/></radialGradient><radialGradient cx="250.03602" cy="149.4614" r="8.39357" gradientUnits="userSpaceOnUse" id="color-2"><stop offset="0" stop-color="#a2a2a2"/><stop offset="1" stop-color="#747474"/></radialGradient><radialGradient cx="245.72426" cy="169.78527" r="7.23763" gradientUnits="userSpaceOnUse" id="color-3"><stop offset="0" stop-color="#a2a2a2"/><stop offset="1" stop-color="#747474"/></radialGradient><radialGradient cx="234.77355" cy="170.17907" r="7.07005" gradientUnits="userSpaceOnUse" id="color-4"><stop offset="0" stop-color="#a2a2a2"/><stop offset="1" stop-color="#747474"/></radialGradient><radialGradient cx="241.10295" cy="153.26379" r="10.2108" gradientUnits="userSpaceOnUse" id="color-5"><stop offset="0" stop-color="#6e6e6e"/><stop offset="1" stop-color="#a2a2a2"/></radialGradient><radialGradient cx="242.00574" cy="155.79817" r="6.68585" gradientUnits="userSpaceOnUse" id="color-6"><stop offset="0" stop-color="#383838"/><stop offset="1" stop-color="#181818"/></radialGradient><linearGradient x1="241.95543" y1="155.24713" x2="242.012" y2="159.9622" gradientUnits="userSpaceOnUse" id="color-7"><stop offset="0" stop-color="#320000"/><stop offset="1" stop-color="#ff0000"/></linearGradient></defs><g transform="translate(-224.28121,-93.41463)"><g data-paper-data="{&quot;isPaintingLayer&quot;:true}" fill-rule="nonzero" stroke-linejoin="miter" stroke-miterlimit="10" stroke-dasharray="" stroke-dashoffset="0" style="mix-blend-mode: normal"><path d="M225.94914,110.57235c0,-8.79053 7.12613,-15.91668 15.91666,-15.91668c8.79054,0 15.91666,7.12613 15.91666,15.91668c0,8.79053 -7.12613,15.91666 -15.91666,15.91666c-8.79054,0 -15.91666,-7.12612 -15.91666,-15.91666z" fill="url(#color-1)" stroke="none" stroke-width="NaN" stroke-linecap="butt"/><path d="M253.17485,153.07521c0,0 1.65102,-0.02189 1.84281,0.78896c0.31891,1.34822 0.03893,2.00939 -0.76189,2.4607c-0.80081,0.45131 -1.70118,-1.07809 -1.83555,-0.99692c-0.14108,0.08521 -0.52481,2.26971 -1.26555,2.59907c-0.74076,0.3294 -1.7773,-0.40581 -1.62197,-1.74129c0.12007,-1.03233 1.00987,-1.61142 1.00987,-1.61142l-2.95349,-8.60438c0,0 -1.28664,-0.2327 -1.89418,-0.65581c-0.51517,-0.35879 -0.61074,-1.91976 0.1925,-2.52284c0.80322,-0.60309 2.34173,0.8632 2.37775,0.84768c0.05649,-0.02434 -0.31954,-1.44597 0.00129,-2.24186c0.29343,-0.72789 1.11576,-1.05984 1.74933,-0.37588c0.91254,0.98513 0.10271,3.66616 0.10271,3.66616z" data-paper-data="{&quot;index&quot;:null}" fill="url(#color-2)" stroke="#000000" stroke-width="1.5" stroke-linecap="butt"/><path d="M231.80286,145.65105c0,0 -0.47634,-3.23551 0.74641,-4.21716c0.84895,-0.68154 1.74196,-0.15729 1.95627,0.73371c0.23433,0.97427 -0.44347,2.55197 -0.38237,2.58978c0.03895,0.02409 2.06715,-1.40616 2.89167,-0.572c0.82454,0.83418 0.44687,2.62085 -0.20964,2.94707c-0.77421,0.38468 -2.30024,0.43318 -2.30024,0.43318l-4.88489,9.43311c0,0 0.92863,0.82126 0.89055,2.03425c-0.04926,1.5692 -1.37246,2.24095 -2.17169,1.73362c-0.79923,-0.50729 -0.86841,-3.09631 -1.01678,-3.21888c-0.14131,-0.11677 -1.44319,1.49567 -2.29093,0.83724c-0.84775,-0.65843 -1.05794,-1.47008 -0.45871,-2.97279c0.36035,-0.90377 2.2637,-0.59579 2.2637,-0.59579z" data-paper-data="{&quot;index&quot;:null}" fill="#464646" stroke="#000000" stroke-width="1.5" stroke-linecap="butt"/><path d="M247.79714,189.29165c0,0 1.562,0.85023 1.45323,1.7901c-0.18085,1.56275 -0.68031,2.09843 -1.59519,2.14172c-0.91487,0.0433 -1.21672,-2.01422 -1.37217,-2.00132c-0.16321,0.01354 -1.30386,2.06956 -2.11868,2.01854c-0.81483,-0.05101 -1.52827,-1.35927 -0.90554,-2.65812c0.48136,-1.00401 1.52558,-1.13241 1.52558,-1.13241l0.28984,-10.45892c0,0 -1.12814,-0.92085 -1.54908,-1.67957c-0.35694,-0.64337 0.11005,-2.30803 1.08136,-2.507c0.97129,-0.19898 1.89638,2.13064 1.93582,2.13363c0.06187,0.00469 0.21513,-1.66416 0.80113,-2.31753c0.53592,-0.59753 1.42846,-0.50604 1.78082,0.53617c0.50752,1.50112 -1.21141,3.84533 -1.21141,3.84533z" data-paper-data="{&quot;index&quot;:null}" fill="#464646" stroke="#000000" stroke-width="1.5" stroke-linecap="butt"/><path d="M235.63172,188.88327c0,0 1.51312,0.91645 1.38966,1.83142c-0.20529,1.52136 -0.70374,2.01951 -1.5998,2.01303c-0.89605,-0.00646 -1.15417,-2.03835 -1.30652,-2.03401c-0.15995,0.00455 -1.31341,1.9579 -2.10984,1.86436c-0.79644,-0.09351 -1.47091,-1.41334 -0.838,-2.65256c0.48925,-0.95793 1.51341,-1.02792 1.51341,-1.02792l0.47304,-10.23124c0,0 -1.08728,-0.96244 -1.48547,-1.72826c-0.33765,-0.64939 0.14948,-2.25532 1.10358,-2.39837c0.95407,-0.14305 1.81717,2.18875 1.85571,2.19379c0.06045,0.00791 0.24066,-1.61892 0.82594,-2.22771c0.53527,-0.55677 1.407,-0.41945 1.73295,0.62045c0.46945,1.49778 -1.25509,3.70259 -1.25509,3.70259z" data-paper-data="{&quot;index&quot;:null}" fill="#464646" stroke="#000000" stroke-width="1.5" stroke-linecap="butt"/><path d="M247.48671,174.36125c0,0 1.4035,0.64395 1.36498,1.46456c-0.06403,1.36446 -0.46495,1.85811 -1.25491,1.94984c-0.78995,0.09173 -1.17338,-1.67272 -1.30728,-1.65233c-0.14058,0.0214 -1.00682,1.87006 -1.71569,1.87416c-0.70888,0.00411 -1.40444,-1.08689 -0.94198,-2.24895c0.35747,-0.89827 1.25443,-1.07139 1.25443,-1.07139l-0.36885,-9.07733c0,0 -1.03185,-0.73083 -1.44145,-1.36312c-0.34734,-0.53617 -0.04147,-2.00588 0.78814,-2.23582c0.8296,-0.22994 1.76905,1.73329 1.80339,1.73354c0.05388,0.00039 0.08772,-1.45435 0.55661,-2.05507c0.42883,-0.54939 1.20742,-0.52303 1.57443,0.35891c0.52862,1.27028 -0.82147,3.40285 -0.82147,3.40285z" data-paper-data="{&quot;index&quot;:null}" fill="url(#color-3)" stroke="#000000" stroke-width="1.5" stroke-linecap="butt"/><path d="M235.93418,174.89189c0,0 1.28422,0.84268 1.14839,1.63276c-0.22585,1.31367 -0.674,1.73029 -1.45132,1.69656c-0.77732,-0.03372 -0.93755,-1.80493 -1.06988,-1.80594c-0.13894,-0.00107 -1.20109,1.65771 -1.88924,1.55156c-0.68815,-0.10612 -1.232,-1.27253 -0.64393,-2.32797c0.45458,-0.81587 1.34546,-0.84447 1.34546,-0.84447l0.73141,-8.86301c0,0 -0.91326,-0.86923 -1.23476,-1.54624c-0.27261,-0.57408 0.20046,-1.95229 1.03284,-2.04649c0.83236,-0.0942 1.50813,1.95622 1.54142,1.9618c0.05221,0.00876 0.25961,-1.39721 0.78656,-1.90712c0.48193,-0.46633 1.23405,-0.31983 1.48425,0.59274c0.36037,1.31438 -1.20522,3.17344 -1.20522,3.17344z" data-paper-data="{&quot;index&quot;:null}" fill="url(#color-4)" stroke="#000000" stroke-width="1.5" stroke-linecap="butt"/><path d="M238.69774,159.93875c0.38593,-1.40247 0.65067,-1.81359 0.85551,-3.33072c0.28883,-2.25791 -6.16819,1.50955 -5.90328,-2.03879c0.2649,-3.54835 5.84931,-0.3473 6.16004,-2.29769c-0.07012,-3.16744 -6.01468,1.17646 -6.08923,-2.58714c-0.07455,-3.7636 6.13472,-0.30589 6.2671,-2.14519c0.32685,-1.62496 -1.30164,-1.23804 -2.72877,-1.58961c-0.14879,-0.03665 -3.16311,0.37174 -3.58179,-1.27802c-0.45487,-1.79235 2.64124,-1.82943 2.64124,-1.82943c0,0 1.32403,0.43636 2.5278,0.43636c0.21252,0 -0.0848,-3.53214 0.19398,-3.53962c0.66314,-0.0178 3.80628,-0.03856 3.80628,-0.03856c0,0 -0.18757,3.4206 0.14623,3.4206c1.67442,0 3.08596,-0.18788 3.08596,-0.18788c0,0 1.99028,0.55078 2.08101,1.72942c0.04877,0.63349 -1.74755,0.83943 -3.31367,1.25331c-1.34776,0.35618 -2.62432,-0.02375 -2.67681,1.31947c-0.17387,2.73769 5.96267,-1.39665 6.04299,2.30954c0.08032,3.70619 -6.05846,0.1706 -6.00714,2.63556c-0.07791,2.14862 6.03656,-0.92075 5.98982,2.35658c-0.04674,3.27733 -6.05265,-0.2247 -5.98408,2.13849c0.00261,1.14462 0.15715,2.21057 0.40403,3.331c1.01399,4.60181 4.63105,-1.48961 5.92392,2.54351c1.29288,4.03312 -0.70747,2.79682 -3.77574,4.15776c-1.04358,0.46288 -3.37293,-2.8288 -4.2686,-2.66388c-1.77908,0.3276 -2.78784,2.77782 -3.61649,2.7832c-2.20942,0.01436 -4.37109,-0.79041 -3.35003,-4.06799c0,0 0.41346,-0.67088 1.73167,-1.0324c1.01898,-0.27945 2.92271,0.08482 3.43804,-1.78788z" data-paper-data="{&quot;index&quot;:null}" fill="url(#color-5)" stroke="#000000" stroke-width="1.5" stroke-linecap="butt"/><path d="M245.38305,143.99632l-2.59365,0.00786l0.06663,-1.71721l-0.46864,-0.0093l-0.02632,1.76361l-2.73045,-0.03914l0.00895,-1.74555l-0.41929,-0.00552l-0.08546,1.77484l-2.31368,-0.02477c0,0 -0.49067,-1.30803 -0.48567,-2.00018c-0.30269,-0.73094 -0.18858,-2.38204 -0.47933,-2.74743c-1.6384,-0.44413 -2.51365,-1.40593 -2.48967,-4.53094c0.04627,-6.02554 2.84378,-9.67044 7.35517,-9.6256c4.51138,0.04485 7.90299,3.91834 7.8567,9.9439c0,0 -0.17998,3.9146 -2.01941,4.17479c-0.55648,0.93123 -0.55337,1.66644 -0.80479,2.6641z" fill="#464646" stroke="#000000" stroke-width="1.5" stroke-linecap="butt"/><path d="M242.83977,134.2962c0,-1.29819 0.92494,-0.75054 2.06594,-0.75054c1.141,0 2.06594,-0.54763 2.06594,0.75054c0,1.29819 -0.92495,2.35054 -2.06594,2.35054c-1.141,0 -2.06594,-1.05237 -2.06594,-2.35054z" fill="#1d1d1d" stroke="#000000" stroke-width="1" stroke-linecap="butt"/><g stroke="#000000" stroke-width="1"><path d="M229.5895,194.3306c0,0 -0.65804,-1.26954 -0.65804,-1.87107c0,-0.64307 1.80303,-1.49686 1.80303,-1.49686c0,0 1.89489,0.24948 3.13622,0.24948c1.34557,0 2.70323,-0.49895 2.70323,-0.49895c0,0 2.12152,0.94877 2.12152,1.6216c0,0.54936 -0.97653,1.99581 -0.97653,1.99581c0,0 -2.78393,0.49895 -4.1167,0.49895c-1.25825,0 -4.01273,-0.49895 -4.01273,-0.49895z" fill="#464646" stroke-linecap="butt"/><path d="M231.89364,192.83375l-1.24738,1.74634" fill="none" stroke-linecap="round"/><path d="M233.63998,192.83376v1.87107" fill="none" stroke-linecap="round"/><path d="M235.76053,192.95849l0.74843,1.6216" fill="none" stroke-linecap="round"/></g><g stroke="#000000" stroke-width="1"><path d="M241.69958,194.12714c0,0 -0.65804,-1.26953 -0.65804,-1.87107c0,-0.64307 1.80303,-1.49686 1.80303,-1.49686c0,0 1.89489,0.24948 3.13622,0.24948c1.34556,0 2.70322,-0.49895 2.70322,-0.49895c0,0 2.12152,0.94878 2.12152,1.6216c0,0.54936 -0.97653,1.99581 -0.97653,1.99581c0,0 -2.78392,0.49896 -4.11669,0.49896c-1.25825,0 -4.01273,-0.49896 -4.01273,-0.49896z" fill="#464646" stroke-linecap="butt"/><path d="M244.00372,192.6303l-1.24738,1.74633" fill="none" stroke-linecap="round"/><path d="M245.75006,192.63028v1.87107" fill="none" stroke-linecap="round"/><path d="M248.61904,194.37663l-0.74843,-1.6216" fill="none" stroke-linecap="round"/></g><path d="M236.73977,134.19619c0,-1.29819 0.92494,-0.75054 2.06594,-0.75054c1.141,0 2.06594,-0.54763 2.06594,0.75054c0,1.29819 -0.92495,2.35054 -2.06594,2.35054c-1.141,0 -2.06594,-1.05237 -2.06594,-2.35054z" fill="#1d1d1d" stroke="#000000" stroke-width="1" stroke-linecap="butt"/><g fill="#171513" stroke="#000000" stroke-width="1.5" stroke-linecap="butt"><path d="M231.96828,179.92301c0.07022,-0.21913 -1.62514,-2.30249 -1.53984,-2.51899c0.63736,-1.61774 2.96603,-3.88908 2.67517,-4.87048c-0.23561,-0.795 -0.0299,-2.19956 -0.27588,-3.66627c-0.04318,-0.2575 1.03839,-8.95112 1.03839,-8.95112c0,0 2.51474,-6.18716 2.81443,-6.12596c1.6288,0.33265 3.27181,1.58943 4.54409,1.58943c1.57828,0 1.70412,-1.05476 3.91332,-1.43535c3.87894,-0.66824 3.31677,4.33369 3.31677,4.33369c0,0 1.45267,2.66192 1.74759,3.89105c0.30288,1.26227 -0.59572,4.08988 -0.59572,4.08988c0,0 2.524,4.93102 0.43744,5.88899c-1.36285,0.62572 0.27046,4.89851 -0.90971,5.5544c-0.24986,0.13886 -0.06734,1.94708 -1.26184,2.70652c-0.91979,0.58479 -2.74456,-0.2659 -3.60464,-0.0498c-0.21936,0.05511 -0.45735,-1.51704 -0.71734,-2.11737c-0.44795,-1.03433 -0.48072,-1.90818 -0.78664,-3.58254c-0.32687,-1.78899 -0.93725,-3.5426 -1.78284,-3.57044c-1.03523,-0.03408 -2.09601,2.36978 -2.49312,4.71887c-0.38542,2.27998 -0.11087,3.69018 -0.84333,4.33636c-1.0625,0.93735 -4.15634,0.13504 -4.15634,0.13504c0,0 -2.26486,1.96847 -1.51996,-0.35592z" data-paper-data="{&quot;index&quot;:null}"/><path d="M240.20277,162.55444l3.4,-6.45195l6.2,-3.02435c0,0 0.6996,2.61853 1.44048,4.01058c0.51865,0.9745 0.75951,2.64448 0.75951,3.4495c0,1.46142 -1.6,5.04059 -1.6,5.04059c0,0 -2.97413,1.44886 -5.1726,1.18196c-1.02164,-0.12403 -1.96215,-1.88325 -2.52552,-2.04552c-1.94263,-0.55955 -2.50188,-2.16079 -2.50188,-2.16079z"/><path d="M232.42281,162.24326c0.70473,-1.78967 -0.3986,-3.32952 -0.78921,-4.40217c-0.32807,-0.90088 0.56988,-2.1544 -0.17548,-3.88103c-1.40956,-3.26524 -1.242,-7.01834 -1.242,-7.01834c0,0 0.81099,-7.88924 4.70861,-7.24141c1.92926,0.32066 3.87536,1.53215 5.38233,1.53215c1.86942,0 2.01848,-1.01675 4.63521,-1.38362c4.59449,-0.64416 3.92862,4.17751 3.92862,4.17751c0,0 1.72063,2.56599 2.06996,3.75083c0.35875,1.21678 0.71575,3.9425 0.71575,3.9425c0,0 -2.63663,4.48607 -5.10809,5.40953c-1.61426,0.60317 0.01792,2.60833 -1.37996,3.24059c-1.23163,0.55706 -0.91874,3.31926 -1.02993,3.39101c-0.28315,0.18273 -1.89409,-1.10556 -3.06546,-0.80253c-1.48107,0.38315 -2.61862,2.37942 -3.46584,2.78327c-3.1092,1.48212 -5.51621,0.65907 -5.51621,0.65907c0,0 -0.55061,-1.91673 0.3317,-4.15736z"/></g><path d="M247.33617,167.13946c0,0 0.81146,1.43802 0.1921,1.99537c-1.02981,0.92676 -1.74426,0.99839 -2.52449,0.51236c-0.78023,-0.48602 0.12953,-2.00987 -0.00616,-2.08879c-0.14245,-0.08288 -2.24315,0.62871 -2.88757,0.13688c-0.64446,-0.49182 -0.49682,-1.75404 0.74939,-2.25861c0.96332,-0.39003 1.89836,0.11274 1.89836,0.11274l6.13174,-6.72014c0,0 -0.41324,-1.24048 -0.33357,-1.97654c0.06757,-0.62415 1.39121,-1.45705 2.30577,-1.04173c0.91455,0.41531 0.36639,2.46872 0.39729,2.49288c0.04847,0.03789 1.11527,-0.97421 1.96751,-1.07464c0.7794,-0.09184 1.46524,0.47033 1.1692,1.3544c-0.4264,1.27334 -3.16719,1.84936 -3.16719,1.84936z" data-paper-data="{&quot;index&quot;:null}" fill="#464646" stroke="#000000" stroke-width="1.5" stroke-linecap="butt"/><path d="M247.98484,160.91534c0,0 0.93755,-1.66038 0.3603,-3.94522c-0.19907,-0.78797 -0.25141,-5.55231 -1.72974,-7.82504c-1.91824,-2.94902 -3.18625,-4.18547 -3.18625,-4.18547c0,0 -1.57684,-3.10631 -0.51135,-3.95407c1.42582,-1.13448 2.21115,-1.57217 3.18989,-1.82937c1.61142,-0.42348 3.82205,1.7073 3.82205,1.7073c0,0 1.72111,3.2687 2.9666,6.76743c0.89607,2.51721 3.36377,5.46902 3.62168,7.15837c0.20608,1.34984 -0.99896,2.67442 -1.07857,4.51836c-0.0706,1.63517 -2.00652,2.54926 -2.00652,2.54926c0,0 -0.24516,0.54461 -1.48504,1.20927c-1.49401,0.80088 -3.96306,-2.17081 -3.96306,-2.17081z" fill="#171513" stroke="#000000" stroke-width="1.5" stroke-linecap="butt"/><path d="M239.33742,159.61963c0,0 -2.1317,-1.34111 -2.60475,-3.12087c-0.28869,-1.08612 0.08303,-3.06664 -0.16852,-5.19465c-0.24854,-2.1025 -1.75158,-2.06781 -2.07048,-3.50398c-0.2151,-0.96869 0.68472,-3.82792 0.68472,-3.82792" fill="none" stroke="#000000" stroke-width="1.5" stroke-linecap="round"/><path d="M228.14214,160.60463c0,0 -2.75176,0.5212 -3.63463,-0.49061c-0.61297,-0.70247 -0.19572,-1.48499 0.55912,-1.69965c0.8254,-0.2347 2.19919,0.28987 2.22937,0.23627c0.01925,-0.03419 -1.27575,-1.71941 -0.59094,-2.45422c0.68482,-0.73481 2.22686,-0.47436 2.52903,0.07593c0.35635,0.64895 0.45141,1.953 0.45141,1.953l8.24298,3.84861c0,0 0.67013,-0.82343 1.70936,-0.83343c1.34443,-0.01294 1.96566,1.09568 1.55962,1.79736c-0.406,0.70166 -2.61887,0.85176 -2.71856,0.98301c-0.09495,0.12501 1.33043,1.18237 0.79681,1.93085c-0.53363,0.7485 -1.22074,0.95684 -2.52758,0.49687c-0.78598,-0.27661 -0.58924,-1.91604 -0.58924,-1.91604z" data-paper-data="{&quot;index&quot;:null}" fill="#464646" stroke="#000000" stroke-width="1.5" stroke-linecap="butt"/><g><path d="M238.12141,156.24181c0,0 -0.1022,-22.55991 -0.13882,-30.64412c-0.02398,-5.2939 0.04948,-13.14218 0.04948,-13.14218c0,0 0.25346,-4.95285 0.79319,-7.25596c0.50953,-2.17433 2.08503,-7.36865 2.08503,-7.36865c0,0 2.09496,4.98779 2.72466,7.29527c0.58319,2.1371 1.19764,7.09526 1.19764,7.09526c0,0 0.26359,7.94753 0.36746,13.28968c0.15773,8.11094 0.5958,30.63859 0.5958,30.63859z" fill="none" stroke="#ff0000" stroke-width="3" stroke-linecap="butt"/><g data-paper-data="{&quot;index&quot;:null}" stroke="#000000"><path d="M238.14412,157.08272c0,0 -0.1022,-22.55991 -0.13882,-30.64412c-0.02398,-5.2939 0.04948,-13.14218 0.04948,-13.14218c0,0 0.25346,-4.95285 0.79319,-7.25596c0.50953,-2.17433 2.08503,-7.36865 2.08503,-7.36865c0,0 2.09496,4.98779 2.72466,7.29527c0.58319,2.1371 1.19764,7.09526 1.19764,7.09526c0,0 0.26359,7.94753 0.36746,13.28968c0.15773,8.11094 0.5958,30.63859 0.5958,30.63859z" fill="#ffffff" stroke-width="1.5" stroke-linecap="butt"/><path d="M240.6519,154.51795l-0.43839,-36.53187c0,0 0.05695,-5.33156 0.2532,-7.25027c0.09623,-0.94091 0.41699,-2.93711 0.84229,-2.95828c0.39348,-0.01959 0.89195,1.86266 1.01489,2.7895c0.23692,1.78625 0.51709,7.26027 0.51709,7.26027l0.43991,36.65907z" fill="#656565" stroke-width="1" stroke-linecap="butt"/><path d="M240.5253,174.69438l-0.21933,-18.27652l3.49425,-0.04193l0.21933,18.27651z" fill="#331b08" stroke-width="1" stroke-linecap="butt"/><path d="M243.43282,157.58627l-2.75216,1.07621l2.65933,1.87958l-2.64028,0.72488l2.79571,1.5345l-2.63018,1.22378l2.53858,1.16175l-2.38977,1.22089l2.30533,1.76064l-2.51534,0.77531l2.42374,1.61021l-2.15292,0.91999l2.29997,1.31364l-2.80654,1.09182" fill="none" stroke-width="0.75" stroke-linecap="round"/><path d="M251.03255,155.74442c0.00904,0.75286 -1.30015,2.35212 -1.30015,2.35212c0,0 -1.38893,-0.48951 -2.51339,-0.47602c-1.06963,0.01283 -1.85057,0.52838 -2.85009,0.54038c-0.55728,0.00668 -1.35103,-1.1649 -2.21122,-1.15457c-0.91763,0.01101 -1.91283,1.20406 -2.84199,1.21521c-0.84675,0.01017 -1.36455,-0.57417 -2.05765,-0.56586c-1.35899,0.01631 -3.019,0.46304 -3.019,0.46304c0,0 -1.28474,-1.26263 -1.29447,-2.07288c-0.0081,-0.67535 1.68034,-2.2996 1.68034,-2.2996l2.80335,-0.04482l1.38048,-1.10214l1.18492,1.08252c0,0 3.14693,-0.03775 4.17438,-0.05009c0.37804,-0.00453 1.08637,-1.0254 1.08637,-1.0254l1.17154,1.08379l3.25203,-0.12451c0,0 1.34547,1.42142 1.35455,2.17883z" fill="#3e0d0d" stroke-width="1" stroke-linecap="butt"/><path d="M247.08235,160.04441l-2.19809,-1.08514c0,0 -1.71372,-1.27622 -2.72467,-1.26408c-1.0332,0.01241 -3.0431,1.3333 -3.0431,1.3333l-1.81853,1.41123l-1.93927,-1.36613l-0.03223,-2.68578l1.79209,-3.61513c0,0 1.51058,3.11236 2.3971,3.10172c0.50592,-0.00607 0.83748,-2.52221 0.83748,-2.52221l1.72867,-2.13992l1.47675,2.12794c0,0 0.38815,2.53248 1.18258,2.59499c1.20441,-0.30963 2.60326,-3.18809 2.60326,-3.18809l1.3528,3.48024l0.03223,2.68578z" fill="url(#color-6)" stroke-width="1" stroke-linecap="butt"/><path d="M242.01202,159.96221l-2.25288,-2.33086l2.19631,-2.38425l2.25288,2.33085z" fill="url(#color-7)" stroke-width="1" stroke-linecap="butt"/></g></g><path d="M240.23214,171.27816c-2.16237,0.43726 1.0866,1.32948 1.13968,0.92201c0.06104,-0.46853 -3.1482,-1.76965 -1.26098,-2.32235c1.66935,-0.4889 3.14154,-0.86948 2.80393,-0.89188c-0.48252,-0.03202 -1.70204,0.30411 -3.09475,0.50251c-2.6441,0.37665 -0.39934,2.24948 -0.4801,1.96449c-0.15901,-0.56561 -2.2741,-2.22499 0.20523,-3.0476c1.49187,-0.49498 2.77646,-0.90706 3.02952,-1.08046c0.18901,-0.1295 -0.49845,0.21686 -2.98232,0.75867c-2.95473,0.64453 -0.3764,2.31515 -0.38856,2.03275c-0.01505,-0.34974 -1.69047,-2.26519 0.23403,-3.085c1.4328,-0.61036 2.75414,-1.14233 2.99765,-1.28518c0.08405,-0.0493 -3.19934,0.87089 -3.12834,0.50713c0.0101,-0.05177 -0.08101,-0.84312 0.09237,-0.9197c1.52961,-0.67564 3.04169,-1.12371 3.08146,-1.14319c1.35801,-0.66493 3.41911,0.16224 4.28774,0.68168c0.72954,0.43625 0.37843,0.50798 0.56422,1.30097c0.36171,1.54387 -0.13081,2.71255 -2.62938,3.93595c-0.51933,0.25428 -2.52097,0.77482 -4.47142,1.16922z" data-paper-data="{&quot;index&quot;:null}" fill="#464646" stroke="#000000" stroke-width="1" stroke-linecap="butt"/><path d="M245.59649,164.28071c0.44495,0.64251 -3.65353,1.76283 -4.87258,1.78823c-2.78139,0.05792 -3.75481,-0.75502 -4.14097,-2.29296c-0.19834,-0.78995 -0.54327,-0.69277 -0.09484,-1.41488c0.53393,-0.85979 1.98663,-2.53968 3.49836,-2.57116c0.08455,-0.00175 4.7141,-0.25947 4.85031,0.60314c0.28209,0.65711 -4.20792,0.75267 -4.09678,0.75872c0.66056,0.03595 4.03885,0.13216 4.29517,0.68643c0.21837,0.47223 -4.19303,0.71819 -3.69524,0.78052c0.81029,0.10146 3.58679,-0.09562 3.77568,0.82632c0.08984,0.4432 -2.1161,0.0823 -3.3166,0.80583c-0.6174,0.37211 3.29057,-0.70225 3.79751,0.02977z" data-paper-data="{&quot;index&quot;:null}" fill="#464646" stroke="#000000" stroke-width="1" stroke-linecap="butt"/></g></g></svg>