<svg version="1.1" xmlns="http://www.w3.org/2000/svg" xmlns:xlink="http://www.w3.org/1999/xlink" width="520.2065" height="366.36787" viewBox="0,0,520.2065,366.36787"><defs><radialGradient cx="291.76671" cy="222.09432" r="31.6875" gradientUnits="userSpaceOnUse" id="color-1"><stop offset="0" stop-color="#1494cc"/><stop offset="1" stop-color="#1494cc" stop-opacity="0"/></radialGradient><linearGradient x1="292.28049" y1="223.20017" x2="292.28049" y2="226.57954" gradientUnits="userSpaceOnUse" id="color-2"><stop offset="0" stop-color="#00b2ff"/><stop offset="1" stop-color="#1000ff"/></linearGradient><radialGradient cx="330.76671" cy="97.09432" r="31.6875" gradientUnits="userSpaceOnUse" id="color-3"><stop offset="0" stop-color="#1494cc"/><stop offset="1" stop-color="#1494cc" stop-opacity="0"/></radialGradient><linearGradient x1="331.28047" y1="98.20017" x2="331.28047" y2="101.57954" gradientUnits="userSpaceOnUse" id="color-4"><stop offset="0" stop-color="#00b2ff"/><stop offset="1" stop-color="#1000ff"/></linearGradient><radialGradient cx="123.26673" cy="253.59432" r="31.6875" gradientUnits="userSpaceOnUse" id="color-5"><stop offset="0" stop-color="#1494cc"/><stop offset="1" stop-color="#1494cc" stop-opacity="0"/></radialGradient><linearGradient x1="123.78047" y1="254.70017" x2="123.78047" y2="258.07954" gradientUnits="userSpaceOnUse" id="color-6"><stop offset="0" stop-color="#00b2ff"/><stop offset="1" stop-color="#1000ff"/></linearGradient></defs><g transform="translate(3.49264,3.25175)"><g data-paper-data="{&quot;isPaintingLayer&quot;:true}" fill-rule="nonzero" stroke-linejoin="miter" stroke-miterlimit="10" stroke-dasharray="" stroke-dashoffset="0" style="mix-blend-mode: normal"><g fill="#000000" stroke="#000000" stroke-width="0.75" stroke-linecap="butt" font-family="&quot;Helvetica Neue&quot;, Helvetica, Arial, sans-serif" font-weight="400" font-size="16" text-anchor="start"/><g stroke="#000000" stroke-linecap="butt"><path d="M260.07921,222.09432c0,-17.50052 14.18698,-31.6875 31.6875,-31.6875c17.50052,0 31.6875,14.18698 31.6875,31.6875c0,17.50053 -14.18698,31.6875 -31.6875,31.6875c-17.50052,0 -31.6875,-14.18697 -31.6875,-31.6875z" fill="url(#color-1)" stroke-width="0"/><path d="M294.47533,229.26562v3.95204h-4.89971v-3.95204z" fill="#323324" stroke-width="1"/><g stroke-width="0.75"><path d="M292.08673,215.22684c0.33907,-0.45842 0.61784,2.04462 0.59166,2.929c-0.02344,0.79161 0.15883,1.49602 0.08386,2.08609c-0.01159,0.09117 0.10472,1.05691 0.17785,1.32572c0.01914,0.07037 0.54694,-1.26689 0.95195,-1.85811c0.2366,-0.34539 0.5058,-0.39572 0.66246,-0.23831c0.1196,0.12018 0.18793,0.35164 0.22265,0.64319c0.08859,0.74399 -0.04165,1.87931 -0.09694,2.55555c-0.04857,0.59401 -0.02254,1.22305 -0.20004,1.78245c-0.1775,0.5594 -0.83204,1.58019 -0.88234,1.6286c-0.144,0.13859 -1.16059,0.63963 -1.31734,0.63963c-0.26598,0 -0.73816,-0.07472 -1.01281,-0.19919c-0.21345,-0.09674 -1.36238,-0.6838 -1.76552,-1.65358c-0.48287,-1.1616 -1.0065,-2.98487 -1.10044,-3.28986c-0.06579,-0.21361 -0.02559,-3.17825 0.48151,-2.62096c0.53012,0.58259 2.1685,4.07417 2.13903,3.7559c-0.01779,-0.1921 -0.37593,-2.0437 -0.20391,-3.89963c0.12984,-1.40087 0.67184,-2.77999 1.26839,-3.58649z" fill="url(#color-2)"/><path d="M291.33198,231.21987v-4.66593h1.23858v4.66593z" fill="#311800"/></g></g><g stroke="#000000" stroke-linecap="butt"><path d="M299.07921,97.09432c0,-17.50052 14.18698,-31.6875 31.6875,-31.6875c17.50052,0 31.6875,14.18698 31.6875,31.6875c0,17.50053 -14.18698,31.6875 -31.6875,31.6875c-17.50052,0 -31.6875,-14.18697 -31.6875,-31.6875z" fill="url(#color-3)" stroke-width="0"/><path d="M333.47533,104.26562v3.95204h-4.89971v-3.95204z" fill="#323324" stroke-width="1"/><g stroke-width="0.75"><path d="M331.08673,90.22684c0.33907,-0.45842 0.61784,2.04462 0.59166,2.929c-0.02344,0.79161 0.15883,1.49602 0.08386,2.08609c-0.01159,0.09117 0.10472,1.05691 0.17785,1.32572c0.01914,0.07037 0.54694,-1.26689 0.95195,-1.85811c0.2366,-0.34539 0.5058,-0.39572 0.66246,-0.23831c0.1196,0.12018 0.18793,0.35164 0.22265,0.64319c0.08859,0.74399 -0.04165,1.87931 -0.09694,2.55555c-0.04857,0.59401 -0.02254,1.22305 -0.20004,1.78245c-0.1775,0.5594 -0.83204,1.58019 -0.88234,1.6286c-0.144,0.13859 -1.16059,0.63963 -1.31734,0.63963c-0.26598,0 -0.73816,-0.07472 -1.01281,-0.19919c-0.21345,-0.09674 -1.36238,-0.6838 -1.76552,-1.65358c-0.48287,-1.1616 -1.0065,-2.98487 -1.10044,-3.28986c-0.06579,-0.21361 -0.02559,-3.17825 0.48151,-2.62096c0.53012,0.58259 2.1685,4.07417 2.13903,3.7559c-0.01779,-0.1921 -0.37593,-2.0437 -0.20391,-3.89963c0.12984,-1.40087 0.67184,-2.77999 1.26839,-3.58649z" fill="url(#color-4)"/><path d="M330.33198,106.21987v-4.66593h1.23858v4.66593z" fill="#311800"/></g></g><path d="M437.69735,308.80906v-181.68168h45.04505v181.68168z" fill="#000000" stroke="#000000" stroke-width="2.5" stroke-linecap="butt"/><path d="M148.41799,361.86612v-62.06607h333.82583v62.06607z" fill="#000000" stroke="#000000" stroke-width="2.5" stroke-linecap="butt"/><path d="M-2.24264,25.02528v-27.02703h489.48949v27.02703z" fill="#000000" stroke="#000000" stroke-width="2.5" stroke-linecap="butt"/><path d="M-2.24264,361.36161v-166.66667h72.07207v166.66667z" fill="#000000" stroke="#000000" stroke-width="2.5" stroke-linecap="butt"/><path d="M-2.24264,199.19945v-174.17417h202.7027v174.17417z" fill="#000000" stroke="#000000" stroke-width="2.5" stroke-linecap="butt"/><path d="M440.67954,117.82799v-12.42564h49.74445v12.42564z" data-paper-data="{&quot;index&quot;:null}" fill="#141619" stroke="#000000" stroke-width="2.5" stroke-linecap="butt"/><path d="M440.71795,130.27774v-12.42564h24.83334v12.42564z" data-paper-data="{&quot;index&quot;:null}" fill="#141619" stroke="#000000" stroke-width="2.5" stroke-linecap="butt"/><path d="M465.67954,130.25653v-12.42564h49.74444v12.42564z" data-paper-data="{&quot;index&quot;:null}" fill="#141619" stroke="#000000" stroke-width="2.5" stroke-linecap="butt"/><path d="M415.81686,130.24937c0,0 0,-16.72313 0,-20.89061c0,-1.75559 2.51512,-3.94272 4.09362,-3.94272c4.0367,0 20.73972,0 20.73972,0v24.83333z" data-paper-data="{&quot;index&quot;:null}" fill="#060709" stroke="#000000" stroke-width="2.5" stroke-linecap="butt"/><path d="M415.73317,255.08317v-12.42564h24.83334v12.42564z" fill="#141619" stroke="#000000" stroke-width="2.5" stroke-linecap="butt"/><path d="M415.68312,267.58315v-12.42564h24.83333v12.42564z" fill="#141619" stroke="#000000" stroke-width="2.5" stroke-linecap="butt"/><path d="M415.69906,280.08315v-12.42564h24.83333v12.42564z" fill="#141619" stroke="#000000" stroke-width="2.5" stroke-linecap="butt"/><path d="M415.76711,217.61174v-12.42564h24.83334v12.42564z" fill="#141619" stroke="#000000" stroke-width="2.5" stroke-linecap="butt"/><path d="M415.71705,230.11174v-12.42564h24.83333v12.42564z" fill="#141619" stroke="#000000" stroke-width="2.5" stroke-linecap="butt"/><path d="M415.7329,242.61174v-12.42564h24.83333v12.42564z" fill="#141619" stroke="#000000" stroke-width="2.5" stroke-linecap="butt"/><path d="M415.76711,180.21175v-12.42564h24.83334v12.42564z" fill="#141619" stroke="#000000" stroke-width="2.5" stroke-linecap="butt"/><path d="M415.71705,192.71175v-12.42564h24.85098v12.42564z" fill="#141619" stroke="#000000" stroke-width="2.5" stroke-linecap="butt"/><path d="M415.7329,205.21175v-12.42564h24.83333v12.42564z" fill="#141619" stroke="#000000" stroke-width="2.5" stroke-linecap="butt"/><path d="M415.82451,142.75187v-12.42564h24.83334v12.42564z" fill="#141619" stroke="#000000" stroke-width="2.5" stroke-linecap="butt"/><path d="M415.77459,155.25187v-12.42564h24.83333v12.42564z" fill="#141619" stroke="#000000" stroke-width="2.5" stroke-linecap="butt"/><path d="M415.79047,167.75187v-12.42564h24.83333v12.42564z" fill="#141619" stroke="#000000" stroke-width="2.5" stroke-linecap="butt"/><path d="M266.42521,34.87178v12.42564h-49.74445v-12.42564z" data-paper-data="{&quot;index&quot;:null}" fill="#141619" stroke="#000000" stroke-width="2.5" stroke-linecap="butt"/><path d="M241.55261,22.42202v12.42564h-24.83334v-12.42564z" data-paper-data="{&quot;index&quot;:null}" fill="#141619" stroke="#000000" stroke-width="2.5" stroke-linecap="butt"/><path d="M291.42521,22.44323v12.42564h-49.74444v-12.42564z" data-paper-data="{&quot;index&quot;:null}" fill="#141619" stroke="#000000" stroke-width="2.5" stroke-linecap="butt"/><path d="M316.24906,34.86381v12.42564h-49.74444v-12.42564z" data-paper-data="{&quot;index&quot;:null}" fill="#141619" stroke="#000000" stroke-width="2.5" stroke-linecap="butt"/><path d="M440.88298,34.97737v-12.42564h49.74444v12.42564z" data-paper-data="{&quot;index&quot;:null}" fill="#141619" stroke="#000000" stroke-width="2.5" stroke-linecap="butt"/><path d="M415.88298,47.406v-12.42564h49.74444v12.42564z" data-paper-data="{&quot;index&quot;:null}" fill="#141619" stroke="#000000" stroke-width="2.5" stroke-linecap="butt"/><path d="M391.05919,34.98531v-12.42564h49.74444v12.42564z" data-paper-data="{&quot;index&quot;:null}" fill="#141619" stroke="#000000" stroke-width="2.5" stroke-linecap="butt"/><path d="M515.46386,35.06022v12.42564h-49.74444v-12.42564z" data-paper-data="{&quot;index&quot;:null}" fill="#141619" stroke="#000000" stroke-width="2.5" stroke-linecap="butt"/><path d="M191.84962,47.29408c0,0 0,-16.72313 0,-20.89061c0,-1.75559 2.51512,-3.94272 4.09362,-3.94272c4.0367,0 20.73972,0 20.73972,0v24.83333z" data-paper-data="{&quot;index&quot;:null}" fill="#060709" stroke="#000000" stroke-width="2.5" stroke-linecap="butt"/><path d="M440.49544,280.1436c0,0 0,16.72313 0,20.89061c0,1.75559 -2.51512,3.94272 -4.09362,3.94272c-4.0367,0 -20.73972,0 -20.73972,0v-24.83333z" data-paper-data="{&quot;index&quot;:null}" fill="#060709" stroke="#000000" stroke-width="2.5" stroke-linecap="butt"/><path d="M341.25798,34.89404v-12.42564h49.74444v12.42564z" data-paper-data="{&quot;index&quot;:null}" fill="#141619" stroke="#000000" stroke-width="2.5" stroke-linecap="butt"/><path d="M316.25793,47.32266v-12.42564h49.74444v12.42564z" data-paper-data="{&quot;index&quot;:null}" fill="#141619" stroke="#000000" stroke-width="2.5" stroke-linecap="butt"/><path d="M291.43411,34.90197v-12.42564h49.74444v12.42564z" data-paper-data="{&quot;index&quot;:null}" fill="#141619" stroke="#000000" stroke-width="2.5" stroke-linecap="butt"/><path d="M415.83892,34.97687v12.42564h-49.74444v-12.42564z" data-paper-data="{&quot;index&quot;:null}" fill="#141619" stroke="#000000" stroke-width="2.5" stroke-linecap="butt"/><path d="M191.77763,196.9555v-12.42564h24.83334v12.42564z" fill="#141619" stroke="#000000" stroke-width="2.5" stroke-linecap="butt"/><path d="M191.81156,134.58211v-12.42564h24.83334v12.42564z" fill="#141619" stroke="#000000" stroke-width="2.5" stroke-linecap="butt"/><path d="M191.76152,147.08211v-12.42564h24.83333v12.42564z" fill="#141619" stroke="#000000" stroke-width="2.5" stroke-linecap="butt"/><path d="M191.77745,184.48407v-12.42564h24.83333v12.42564z" fill="#141619" stroke="#000000" stroke-width="2.5" stroke-linecap="butt"/><path d="M191.81156,97.18212v-12.42564h24.83334v12.42564z" fill="#141619" stroke="#000000" stroke-width="2.5" stroke-linecap="butt"/><path d="M191.76152,109.68212v-12.42564h24.85098v12.42564z" fill="#141619" stroke="#000000" stroke-width="2.5" stroke-linecap="butt"/><path d="M191.77745,122.18212v-12.42564h24.83333v12.42564z" fill="#141619" stroke="#000000" stroke-width="2.5" stroke-linecap="butt"/><path d="M191.86905,59.72225v-12.42564h24.83334v12.42564z" fill="#141619" stroke="#000000" stroke-width="2.5" stroke-linecap="butt"/><path d="M191.819,72.22223v-12.42564h24.83333v12.42564z" fill="#141619" stroke="#000000" stroke-width="2.5" stroke-linecap="butt"/><path d="M191.83494,84.72225v-12.42564h24.83333v12.42564z" fill="#141619" stroke="#000000" stroke-width="2.5" stroke-linecap="butt"/><path d="M365.88298,292.53121v-12.42564h49.74445v12.42564z" data-paper-data="{&quot;index&quot;:null}" fill="#141619" stroke="#000000" stroke-width="2.5" stroke-linecap="butt"/><path d="M390.75564,304.98098v-12.42564h24.83334v12.42564z" data-paper-data="{&quot;index&quot;:null}" fill="#141619" stroke="#000000" stroke-width="2.5" stroke-linecap="butt"/><path d="M340.88298,304.95975v-12.42564h49.74444v12.42564z" data-paper-data="{&quot;index&quot;:null}" fill="#141619" stroke="#000000" stroke-width="2.5" stroke-linecap="butt"/><path d="M316.05911,292.53918v-12.42564h49.74444v12.42564z" data-paper-data="{&quot;index&quot;:null}" fill="#141619" stroke="#000000" stroke-width="2.5" stroke-linecap="butt"/><path d="M216.42528,279.99701v12.42564h-49.74444v-12.42564z" data-paper-data="{&quot;index&quot;:null}" fill="#141619" stroke="#000000" stroke-width="2.5" stroke-linecap="butt"/><path d="M241.24906,292.41767v12.42564h-49.74444v-12.42564z" data-paper-data="{&quot;index&quot;:null}" fill="#141619" stroke="#000000" stroke-width="2.5" stroke-linecap="butt"/><path d="M291.05021,292.50897v12.42564h-49.74444v-12.42564z" data-paper-data="{&quot;index&quot;:null}" fill="#141619" stroke="#000000" stroke-width="2.5" stroke-linecap="butt"/><path d="M316.05021,280.08034v12.42564h-49.74444v-12.42564z" data-paper-data="{&quot;index&quot;:null}" fill="#141619" stroke="#000000" stroke-width="2.5" stroke-linecap="butt"/><path d="M340.87411,292.50102v12.42564h-49.74444v-12.42564z" data-paper-data="{&quot;index&quot;:null}" fill="#141619" stroke="#000000" stroke-width="2.5" stroke-linecap="butt"/><path d="M216.46934,292.42609v-12.42564h49.74444v12.42564z" data-paper-data="{&quot;index&quot;:null}" fill="#141619" stroke="#000000" stroke-width="2.5" stroke-linecap="butt"/><path d="M216.62487,196.97382c0,0 0,16.72313 0,20.89061c0,1.75559 -2.51512,3.94272 -4.09362,3.94272c-4.0367,0 -20.73972,0 -20.73972,0v-24.83333z" data-paper-data="{&quot;index&quot;:null}" fill="#060709" stroke="#000000" stroke-width="2.5" stroke-linecap="butt"/><path d="M191.77405,159.58211v-12.42564h24.83334v12.42564z" fill="#141619" stroke="#000000" stroke-width="2.5" stroke-linecap="butt"/><path d="M191.72408,172.08211v-12.42564h24.83333v12.42564z" fill="#141619" stroke="#000000" stroke-width="2.5" stroke-linecap="butt"/><path d="M415.31672,259.35267c0,2.77948 0,10.74105 0,15.875c0,2.67971 -2.39933,4.58906 -4.63828,4.58906c-5.17253,0 -13.2842,0 -16.10144,0c-1.5785,0 -4.09362,-2.18713 -4.09362,-3.94272c0,-2.89028 0,-11.06966 0,-16.27133c0,-2.2986 2.45796,-4.61927 4.19506,-4.61927c2.83376,0 11.0364,0 16.125,0c2.37217,0 4.51328,2.51725 4.51328,4.36927z" data-paper-data="{&quot;index&quot;:null}" fill="#060709" stroke="#000000" stroke-width="2.5" stroke-linecap="butt"/><path d="M415.32978,234.37217c0,2.77948 0,10.74105 0,15.875c0,2.67971 -2.39933,4.58906 -4.63828,4.58906c-5.17253,0 -13.2842,0 -16.10144,0c-1.5785,0 -4.09362,-2.18713 -4.09362,-3.94272c0,-2.89028 0,-11.06966 0,-16.27133c0,-2.2986 2.45796,-4.61927 4.19506,-4.61927c2.83376,0 11.0364,0 16.125,0c2.37217,0 4.51328,2.51725 4.51328,4.36927z" data-paper-data="{&quot;index&quot;:null}" fill="#060709" stroke="#000000" stroke-width="2.5" stroke-linecap="butt"/><path d="M415.39712,209.42412c0,2.77948 0,10.74105 0,15.875c0,2.67971 -2.39933,4.58906 -4.63828,4.58906c-5.17253,0 -13.2842,0 -16.10144,0c-1.5785,0 -4.09362,-2.18713 -4.09362,-3.94272c0,-2.89028 0,-11.06966 0,-16.27133c0,-2.2986 2.45796,-4.61927 4.19506,-4.61927c2.83376,0 11.0364,0 16.125,0c2.37217,0 4.51328,2.51725 4.51328,4.36927z" data-paper-data="{&quot;index&quot;:null}" fill="#060709" stroke="#000000" stroke-width="2.5" stroke-linecap="butt"/><path d="M415.41011,184.4436c0,2.77948 0,10.74105 0,15.875c0,2.67971 -2.39933,4.58906 -4.63828,4.58906c-5.17253,0 -13.2842,0 -16.10144,0c-1.5785,0 -4.09362,-2.18713 -4.09362,-3.94272c0,-2.89028 0,-11.06966 0,-16.27133c0,-2.2986 2.45796,-4.61927 4.19506,-4.61927c2.83376,0 11.0364,0 16.125,0c2.37217,0 4.51328,2.51725 4.51328,4.36927z" data-paper-data="{&quot;index&quot;:null}" fill="#060709" stroke="#000000" stroke-width="2.5" stroke-linecap="butt"/><path d="M273.29945,279.69248c0,0 0,-28.2248 0,-33.80198c0,-1.83429 2.2328,-3.65636 4.3693,-3.65636c4.46513,0 21.23245,0 29.04106,0c2.47341,0 4.04797,2.28619 4.04797,3.68862c0,5.04333 0,33.76972 0,33.76972z" data-paper-data="{&quot;index&quot;:null}" fill="#0b0b0b" stroke="#000000" stroke-width="3" stroke-linecap="butt"/><path d="M279.51347,273.08579l24.36666,-24.36667" data-paper-data="{&quot;index&quot;:null}" fill="none" stroke="#000000" stroke-width="8" stroke-linecap="round"/><path d="M279.79918,248.7191l24.36666,24.36667" data-paper-data="{&quot;index&quot;:null}" fill="none" stroke="#000000" stroke-width="8" stroke-linecap="round"/><path d="M304.50708,248.71912l-24.42222,24.42222" data-paper-data="{&quot;index&quot;:null}" fill="none" stroke="#001e52" stroke-width="3.5" stroke-linecap="round"/><path d="M304.22139,272.99846l-24.42222,-24.42222" data-paper-data="{&quot;index&quot;:null}" fill="none" stroke="#001e52" stroke-width="3.5" stroke-linecap="round"/><path d="M241.42969,126.65471c0,2.77948 0,10.74105 0,15.875c0,2.67971 -2.39933,4.58906 -4.63828,4.58906c-5.17253,0 -20.19506,0.03228 -20.19506,0.03228v-24.77133c0,0 15.23146,-0.09427 20.32006,-0.09427c2.37217,0 4.51328,2.51725 4.51328,4.36927z" data-paper-data="{&quot;index&quot;:null}" fill="#060709" stroke="#000000" stroke-width="2.5" stroke-linecap="butt"/><path d="M241.67949,140.62798v-12.42564h49.74445v12.42564z" data-paper-data="{&quot;index&quot;:null}" fill="#141619" stroke="#000000" stroke-width="2.5" stroke-linecap="butt"/><path d="M316.29895,126.48804c0,2.77948 0,10.74105 0,15.875c0,2.67971 -2.39933,4.58906 -4.63828,4.58906c-5.17253,0 -13.2842,0 -16.10144,0c-1.5785,0 -4.09362,-2.18713 -4.09362,-3.94272c0,-2.89028 0,-11.06966 0,-16.27133c0,-2.2986 2.45796,-4.61927 4.19506,-4.61927c2.83376,0 11.0364,0 16.125,0c2.37217,0 4.51328,2.51725 4.51328,4.36927z" data-paper-data="{&quot;index&quot;:null}" fill="#060709" stroke="#000000" stroke-width="2.5" stroke-linecap="butt"/><path d="M166.65097,304.85596v-12.42564h24.83334v12.42564z" data-paper-data="{&quot;index&quot;:null}" fill="#141619" stroke="#000000" stroke-width="2.5" stroke-linecap="butt"/><path d="M141.79151,304.85978c0,0 0,-16.72313 0,-20.89061c0,-1.75559 2.51512,-3.94272 4.09362,-3.94272c4.0367,0 20.73972,0 20.73972,0v24.83333z" data-paper-data="{&quot;index&quot;:null}" fill="#060709" stroke="#000000" stroke-width="2.5" stroke-linecap="butt"/><path d="M141.77758,342.393v-12.42564h24.83334v12.42564z" fill="#141619" stroke="#000000" stroke-width="2.5" stroke-linecap="butt"/><path d="M116.3774,354.67157v-12.42564h50.23333v12.42564z" fill="#141619" stroke="#000000" stroke-width="2.5" stroke-linecap="butt"/><path d="M141.774,317.26959v-12.42564h24.83334v12.42564z" fill="#141619" stroke="#000000" stroke-width="2.5" stroke-linecap="butt"/><path d="M141.72402,329.76959v-12.42564h24.83333v12.42564z" fill="#141619" stroke="#000000" stroke-width="2.5" stroke-linecap="butt"/><path d="M141.951,221.8096v-12.42564h49.74444v12.42564z" data-paper-data="{&quot;index&quot;:null}" fill="#141619" stroke="#000000" stroke-width="2.5" stroke-linecap="butt"/><path d="M117.12719,209.38894v-12.42564h49.74444v12.42564z" data-paper-data="{&quot;index&quot;:null}" fill="#141619" stroke="#000000" stroke-width="2.5" stroke-linecap="butt"/><path d="M141.90695,209.38051v12.42564h-49.74444v-12.42564z" data-paper-data="{&quot;index&quot;:null}" fill="#141619" stroke="#000000" stroke-width="2.5" stroke-linecap="butt"/><path d="M191.72525,196.95064v12.42564h-24.83334v-12.42564z" data-paper-data="{&quot;index&quot;:null}" fill="#141619" stroke="#000000" stroke-width="2.5" stroke-linecap="butt"/><path d="M67.12484,221.80715c0,0 0,-16.72313 0,-20.89061c0,-1.75559 2.51512,-3.94272 4.09362,-3.94272c4.0367,0 20.73972,0 20.73972,0v24.83333z" data-paper-data="{&quot;index&quot;:null}" fill="#060709" stroke="#000000" stroke-width="2.5" stroke-linecap="butt"/><path d="M117.07909,196.93379v12.42564h-24.83334v-12.42564z" data-paper-data="{&quot;index&quot;:null}" fill="#141619" stroke="#000000" stroke-width="2.5" stroke-linecap="butt"/><path d="M67.08661,346.57003v-12.42564h24.83334v12.42564z" fill="#141619" stroke="#000000" stroke-width="2.5" stroke-linecap="butt"/><path d="M67.0366,359.07001v-12.42564h24.83333v12.42564z" fill="#141619" stroke="#000000" stroke-width="2.5" stroke-linecap="butt"/><path d="M67.12056,309.0986v-12.42564h24.83334v12.42564z" fill="#141619" stroke="#000000" stroke-width="2.5" stroke-linecap="butt"/><path d="M67.07056,321.5986v-12.42564h24.83333v12.42564z" fill="#141619" stroke="#000000" stroke-width="2.5" stroke-linecap="butt"/><path d="M67.08643,334.0986v-12.42564h24.83333v12.42564z" fill="#141619" stroke="#000000" stroke-width="2.5" stroke-linecap="butt"/><path d="M67.12056,271.69861v-12.42564h24.83334v12.42564z" fill="#141619" stroke="#000000" stroke-width="2.5" stroke-linecap="butt"/><path d="M67.07056,284.19861v-12.42564h24.85098v12.42564z" fill="#141619" stroke="#000000" stroke-width="2.5" stroke-linecap="butt"/><path d="M67.08643,296.69861v-12.42564h24.83333v12.42564z" fill="#141619" stroke="#000000" stroke-width="2.5" stroke-linecap="butt"/><path d="M67.17803,234.23873v-12.42564h24.83334v12.42564z" fill="#141619" stroke="#000000" stroke-width="2.5" stroke-linecap="butt"/><path d="M67.12802,246.73873v-12.42564h24.83333v12.42564z" fill="#141619" stroke="#000000" stroke-width="2.5" stroke-linecap="butt"/><path d="M67.14392,259.23873v-12.42564h24.83333v12.42564z" fill="#141619" stroke="#000000" stroke-width="2.5" stroke-linecap="butt"/><g stroke="#000000" stroke-linecap="butt"><path d="M91.5792,253.59432c0,-17.50052 14.18698,-31.6875 31.6875,-31.6875c17.50052,0 31.6875,14.18698 31.6875,31.6875c0,17.50053 -14.18698,31.6875 -31.6875,31.6875c-17.50052,0 -31.6875,-14.18697 -31.6875,-31.6875z" fill="url(#color-5)" stroke-width="0"/><path d="M125.97536,260.76562v3.95204h-4.89971v-3.95204z" fill="#323324" stroke-width="1"/><g stroke-width="0.75"><path d="M123.58673,246.72684c0.33907,-0.45842 0.61784,2.04462 0.59166,2.929c-0.02344,0.79161 0.15883,1.49602 0.08386,2.08609c-0.01159,0.09117 0.10472,1.05691 0.17785,1.32572c0.01914,0.07037 0.54694,-1.26689 0.95195,-1.85811c0.2366,-0.34539 0.5058,-0.39572 0.66246,-0.23831c0.1196,0.12018 0.18793,0.35164 0.22265,0.64319c0.08859,0.74399 -0.04165,1.87931 -0.09694,2.55555c-0.04857,0.59401 -0.02254,1.22305 -0.20004,1.78245c-0.1775,0.5594 -0.83204,1.58019 -0.88234,1.6286c-0.144,0.13859 -1.16059,0.63963 -1.31734,0.63963c-0.26598,0 -0.73816,-0.07472 -1.01281,-0.19919c-0.21345,-0.09674 -1.36238,-0.6838 -1.76552,-1.65358c-0.48287,-1.1616 -1.0065,-2.98487 -1.10044,-3.28986c-0.06579,-0.21361 -0.02559,-3.17825 0.48151,-2.62096c0.53012,0.58259 2.1685,4.07417 2.13903,3.7559c-0.01779,-0.1921 -0.37593,-2.0437 -0.20391,-3.89963c0.12984,-1.40087 0.67184,-2.77999 1.26839,-3.58649z" fill="url(#color-6)"/><path d="M122.83197,262.71987v-4.66593h1.23858v4.66593z" fill="#311800"/></g></g></g></g></svg>