<svg version="1.1" xmlns="http://www.w3.org/2000/svg" xmlns:xlink="http://www.w3.org/1999/xlink" width="98.66666" height="99.12429" viewBox="0,0,98.66666,99.12429"><defs><radialGradient cx="234.25" cy="154.18786" r="23.75" gradientUnits="userSpaceOnUse" id="color-1"><stop offset="0" stop-color="#ff0000"/><stop offset="1" stop-color="#ff0000" stop-opacity="0"/></radialGradient><radialGradient cx="239.79096" cy="180.43786" r="49.12429" gradientUnits="userSpaceOnUse" id="color-2"><stop offset="0" stop-color="#ff0000"/><stop offset="1" stop-color="#ff0000" stop-opacity="0"/></radialGradient><radialGradient cx="248.57062" cy="164.55085" r="30.72881" gradientUnits="userSpaceOnUse" id="color-3"><stop offset="0" stop-color="#ff0000"/><stop offset="1" stop-color="#ff0000" stop-opacity="0"/></radialGradient><radialGradient cx="255.67797" cy="169.14972" r="30.72881" gradientUnits="userSpaceOnUse" id="color-4"><stop offset="0" stop-color="#ff0000"/><stop offset="1" stop-color="#ff0000" stop-opacity="0"/></radialGradient><radialGradient cx="258.60452" cy="179.18362" r="30.72881" gradientUnits="userSpaceOnUse" id="color-5"><stop offset="0" stop-color="#ff0000"/><stop offset="1" stop-color="#ff0000" stop-opacity="0"/></radialGradient><radialGradient cx="257.35028" cy="187.5452" r="30.72881" gradientUnits="userSpaceOnUse" id="color-6"><stop offset="0" stop-color="#ff0000"/><stop offset="1" stop-color="#ff0000" stop-opacity="0"/></radialGradient><radialGradient cx="247.31638" cy="197.5791" r="30.72881" gradientUnits="userSpaceOnUse" id="color-7"><stop offset="0" stop-color="#ff0000"/><stop offset="1" stop-color="#ff0000" stop-opacity="0"/></radialGradient><radialGradient cx="233.10169" cy="197.99718" r="30.72881" gradientUnits="userSpaceOnUse" id="color-8"><stop offset="0" stop-color="#ff0000"/><stop offset="1" stop-color="#ff0000" stop-opacity="0"/></radialGradient><radialGradient cx="226.83051" cy="188.38136" r="30.72881" gradientUnits="userSpaceOnUse" id="color-9"><stop offset="0" stop-color="#ff0000"/><stop offset="1" stop-color="#ff0000" stop-opacity="0"/></radialGradient><radialGradient cx="220.9774" cy="205.10453" r="19.85876" gradientUnits="userSpaceOnUse" id="color-10"><stop offset="0" stop-color="#ff0000"/><stop offset="1" stop-color="#ff0000" stop-opacity="0"/></radialGradient><radialGradient cx="232.68362" cy="206.35876" r="19.85876" gradientUnits="userSpaceOnUse" id="color-11"><stop offset="0" stop-color="#ff0000"/><stop offset="1" stop-color="#ff0000" stop-opacity="0"/></radialGradient><radialGradient cx="251.49718" cy="207.19492" r="19.85876" gradientUnits="userSpaceOnUse" id="color-12"><stop offset="0" stop-color="#ff0000"/><stop offset="1" stop-color="#ff0000" stop-opacity="0"/></radialGradient><radialGradient cx="266.54802" cy="195.48871" r="19.85876" gradientUnits="userSpaceOnUse" id="color-13"><stop offset="0" stop-color="#ff0000"/><stop offset="1" stop-color="#ff0000" stop-opacity="0"/></radialGradient><radialGradient cx="267.80226" cy="177.92939" r="19.85876" gradientUnits="userSpaceOnUse" id="color-14"><stop offset="0" stop-color="#ff0000"/><stop offset="1" stop-color="#ff0000" stop-opacity="0"/></radialGradient><radialGradient cx="261.11298" cy="161.62429" r="19.85876" gradientUnits="userSpaceOnUse" id="color-15"><stop offset="0" stop-color="#ff0000"/><stop offset="1" stop-color="#ff0000" stop-opacity="0"/></radialGradient><radialGradient cx="218.46893" cy="160.78814" r="19.85876" gradientUnits="userSpaceOnUse" id="color-16"><stop offset="0" stop-color="#ff0000"/><stop offset="1" stop-color="#ff0000" stop-opacity="0"/></radialGradient><radialGradient cx="213.45198" cy="193.39831" r="19.85876" gradientUnits="userSpaceOnUse" id="color-17"><stop offset="0" stop-color="#ff0000"/><stop offset="1" stop-color="#ff0000" stop-opacity="0"/></radialGradient><radialGradient cx="213.45198" cy="176.25707" r="19.85876" gradientUnits="userSpaceOnUse" id="color-18"><stop offset="0" stop-color="#ff0000"/><stop offset="1" stop-color="#ff0000" stop-opacity="0"/></radialGradient></defs><g transform="translate(-190.66667,-130.43786)"><g data-paper-data="{&quot;isPaintingLayer&quot;:true}" fill-rule="nonzero" stroke-linejoin="miter" stroke-miterlimit="10" stroke-dasharray="" stroke-dashoffset="0" style="mix-blend-mode: normal"><path d="M210.5,154.18786c0,-13.11676 10.63324,-23.75 23.75,-23.75c13.11676,0 23.75,10.63324 23.75,23.75c0,13.11676 -10.63324,23.75 -23.75,23.75c-13.11676,0 -23.75,-10.63324 -23.75,-23.75z" fill="url(#color-1)" stroke="#000000" stroke-width="0" stroke-linecap="butt"/><path d="M270.75622,216.52712l-8.30512,-0.58204l1.56377,-4.52491l-4.22421,1.00296l-0.74113,-6.1948l-5.67474,0.44927l-4.73715,-6.00379l2.02016,-6.14879l-7.3835,-1.78314l3.99958,-3.84032l-3.53962,-1.43286l-11.5033,-7.90544l3.58037,-7.0244l-8.66594,-8.13007l2.30847,-1.97942l-7.76027,-4.07921l2.54023,-6.44065l-10.97796,-2.50135l1.08418,-3.89906l-5.51434,-1.16045" fill="none" stroke="#9a0000" stroke-width="2.5" stroke-linecap="round"/><path d="M257.98865,224.37106l-7.71168,-3.13752l2.89419,-3.81365l-4.32658,-0.36133l1.22335,-6.11786l-5.5328,-1.3389l-2.63371,-7.17981l3.83323,-5.21488l-6.46205,-3.9922l4.99604,-2.40507l-2.91801,-2.46318l-8.47218,-11.09252l5.58845,-5.56151l-5.70578,-10.42308l2.80981,-1.1628l-6.10562,-6.29151l4.4183,-5.33042l-9.65456,-5.79326l2.24365,-3.3681l-4.87945,-2.81878" fill="none" stroke="#9a0000" stroke-width="2.5" stroke-linecap="round"/><path d="M216.84556,221.69261l5.97636,-4.51851l-3.53481,-5.9461l4.9568,0.12455l-2.16869,-4.87018l4.10233,-2.63881l-0.78486,-7.35471l6.39798,-0.97698l-1.8683,-4.95751l1.47943,-4.20662l5.5307,-2.39947l0.5009,-6.18459l6.03133,-0.97105l0.72541,-10.88934l7.63585,-4.91133l-5.74453,-0.37359l9.17999,-11.19131l3.62107,-0.12414l-4.94536,-7.02021l8.79921,-3.0996" fill="none" stroke="#9a0000" stroke-width="2.5" stroke-linecap="round"/><path d="M245.51609,227.64489l-6.58518,-5.09404l3.81238,-2.89585l-4.07043,-1.51047l2.82204,-5.56424l-4.96965,-2.77615l-0.60789,-7.62342l5.09337,-3.99328l-5.15187,-5.58156l5.45851,-0.97436l-2.14894,-3.15659l-5.18046,-12.96089l6.87718,-3.85558l-2.69564,-11.57281l3.0189,-0.36513l-4.1908,-7.70058l5.68797,-3.94738l-7.74312,-8.17414l3.06607,-2.64147l-3.94272,-4.0261" fill="none" stroke="#9a0000" stroke-width="2.5" stroke-linecap="round"/><path d="M206.60534,214.01105l6.97061,-2.74671l-1.80731,-6.67716l4.74108,1.45171l-0.78049,-5.27378l4.66046,-1.43962l1.21998,-7.29516l6.42522,0.77789l-0.46766,-5.2772l2.55522,-3.65447l5.97201,-0.82532l2.14409,-5.82263l6.07047,0.68509l3.62436,-10.29407l8.67462,-2.67924l-5.43295,-1.90323l11.84921,-8.31345l3.52128,0.85329l-2.87741,-8.09076l9.30846,-0.62157" fill="none" stroke="#9a0000" stroke-width="2.5" stroke-linecap="round"/><path d="M223.50372,224.74554l5.20542,-5.38863l-4.4121,-5.32769l4.9164,-0.64374l-2.89599,-4.47606l3.64473,-3.24166l-1.91315,-7.14475l6.16983,-1.95495l-2.6127,-4.60882l0.81087,-4.38484l5.09293,-3.22617l-0.46186,-6.18763l5.80852,-1.89238l-0.96786,-10.87047l6.78416,-6.03345l-5.73318,0.51957l7.33823,-12.4767l3.55827,-0.68282l-5.97183,-6.17067l8.21378,-4.42349" fill="none" stroke="#9a0000" stroke-width="2.5" stroke-linecap="round"/><path d="M287.19522,176.68053l-5.36344,6.36768l-2.73483,-3.92949l-1.67841,4.0041l-5.44209,-3.05097l-2.98039,4.84992l-7.6421,0.29039l-3.77804,-5.25501l-5.79096,4.91534l-0.74656,-5.4943l-3.24321,2.01584l-13.16508,4.63707l-3.56631,-7.03156l-11.67489,2.21212l-0.2393,-3.03147l-7.86816,3.86699l-3.70747,-5.84719l-8.48902,7.39655l-2.51169,-3.17325l-4.18656,3.77191" fill="none" stroke="#9a0000" stroke-width="2.5" stroke-linecap="round"/><path d="M271.95527,214.99073l-2.4545,-7.07877l-6.74653,1.52811l1.64759,-4.67662l-5.30167,0.56054l-1.2446,-4.71629l-7.23812,-1.52226l1.04437,-6.38732l-5.29208,0.24784l-3.54507,-2.70496l-0.5763,-6.00117l-5.72844,-2.38435l0.93691,-6.03674l-10.13446,-4.04925l-2.31625,-8.77852l-2.12748,5.34912l-7.81358,-12.18464l0.99897,-3.48276l-8.2034,2.53852l-0.23399,-9.32624" fill="none" stroke="#9a0000" stroke-width="2.5" stroke-linecap="round"/><path d="M284.65268,164.66744l-3.55412,7.52875l-3.64985,-3.09821l-0.59716,4.30039l-6.04189,-1.55574l-1.63915,5.45139l-7.31296,2.23754l-4.99769,-4.1124l-4.33926,6.2343l-2.12854,-5.11996l-2.61891,2.77909l-11.5388,7.85354l-5.2479,-5.88394l-10.71921,5.12785l-1.00756,-2.86913l-6.61567,5.75279l-5.08109,-4.7029l-6.31204,9.32366l-3.24051,-2.42431l-3.08113,4.71816" fill="none" stroke="#9a0000" stroke-width="2.5" stroke-linecap="round"/><path d="M279.73059,205.60278l-4.18526,-6.21428l-6.13033,3.20469l0.39516,-4.9426l-4.98139,1.8994l-2.41076,-4.24037l-7.3866,0.3819l-0.62599,-6.4418l-5.05218,1.59467l-4.11952,-1.70703l-2.09376,-5.65352l-6.148,-0.83802l-0.6401,-6.07537l-10.83344,-1.31922l-4.48686,-7.89275l-0.68685,5.71555l-10.67309,-9.77767l0.07387,-3.62245l-7.27989,4.55445l-2.61427,-8.9554" fill="none" stroke="#9a0000" stroke-width="2.5" stroke-linecap="round"/><path d="M199.07305,205.00072l1.94903,-8.09414l4.20357,2.29135l-0.28972,-4.33197l6.232,0.29473l0.49647,-5.6708l6.70523,-3.67777l5.72947,3.01029l2.98097,-6.98638l3.12513,4.5802l1.99911,-3.25354l9.70086,-10.03569l6.33468,4.69394l9.45263,-7.20029l1.5699,2.60432l5.30773,-6.9778l5.9312,3.57151l4.28437,-10.41233l3.66575,1.71475l2.05742,-5.2461" fill="none" stroke="#9a0000" stroke-width="2.5" stroke-linecap="round"/><path d="M195.56884,163.91968l5.3614,5.23346l5.35063,-4.38424l0.61809,4.9197l4.49111,-2.8726l3.2226,3.6616l7.15465,-1.87585l1.92275,6.17994l4.62238,-2.58863l4.38055,0.83374l3.19956,5.10969l6.18995,-0.42958l1.86205,5.81831l10.87537,-0.91114l5.99799,6.81555l-0.48965,-5.73581l12.43825,7.40322l0.66424,3.56178l6.20174,-5.93955l4.38059,8.23675" fill="none" stroke="#9a0000" stroke-width="2.5" stroke-linecap="round"/><path d="M190.66667,180.43786c0,-27.13061 21.99369,-49.12429 49.12429,-49.12429c27.13061,0 49.12429,21.99369 49.12429,49.12429c0,27.13061 -21.99369,49.12429 -49.12429,49.12429c-27.13061,0 -49.12429,-21.99369 -49.12429,-49.12429z" fill="url(#color-2)" stroke="#000000" stroke-width="0" stroke-linecap="butt"/><path d="M217.84181,164.55085c0,-16.97106 13.75775,-30.72881 30.72881,-30.72881c16.97106,0 30.72881,13.75775 30.72881,30.72881c0,16.97106 -13.75775,30.72881 -30.72881,30.72881c-16.97106,0 -30.72881,-13.75775 -30.72881,-30.72881z" fill="url(#color-3)" stroke="#000000" stroke-width="0" stroke-linecap="butt"/><path d="M224.94915,169.14972c0,-16.97106 13.75775,-30.72881 30.72881,-30.72881c16.97106,0 30.72881,13.75775 30.72881,30.72881c0,16.97106 -13.75775,30.72881 -30.72881,30.72881c-16.97106,0 -30.72881,-13.75775 -30.72881,-30.72881z" fill="url(#color-4)" stroke="#000000" stroke-width="0" stroke-linecap="butt"/><path d="M227.87571,179.18362c0,-16.97106 13.75775,-30.72881 30.72881,-30.72881c16.97106,0 30.72881,13.75775 30.72881,30.72881c0,16.97106 -13.75775,30.72881 -30.72881,30.72881c-16.97106,0 -30.72881,-13.75775 -30.72881,-30.72881z" fill="url(#color-5)" stroke="#000000" stroke-width="0" stroke-linecap="butt"/><path d="M226.62147,187.5452c0,-16.97106 13.75775,-30.72881 30.72881,-30.72881c16.97106,0 30.72881,13.75775 30.72881,30.72881c0,16.97106 -13.75775,30.72881 -30.72881,30.72881c-16.97106,0 -30.72881,-13.75775 -30.72881,-30.72881z" fill="url(#color-6)" stroke="#000000" stroke-width="0" stroke-linecap="butt"/><path d="M216.58757,197.5791c0,-16.97106 13.75775,-30.72881 30.72881,-30.72881c16.97106,0 30.72881,13.75775 30.72881,30.72881c0,16.97106 -13.75775,30.72881 -30.72881,30.72881c-16.97106,0 -30.72881,-13.75775 -30.72881,-30.72881z" fill="url(#color-7)" stroke="#000000" stroke-width="0" stroke-linecap="butt"/><path d="M202.37288,197.99718c0,-16.97106 13.75775,-30.72881 30.72881,-30.72881c16.97106,0 30.72881,13.75775 30.72881,30.72881c0,16.97106 -13.75775,30.72881 -30.72881,30.72881c-16.97106,0 -30.72881,-13.75775 -30.72881,-30.72881z" fill="url(#color-8)" stroke="#000000" stroke-width="0" stroke-linecap="butt"/><path d="M196.10169,188.38136c0,-16.97106 13.75775,-30.72881 30.72881,-30.72881c16.97106,0 30.72881,13.75775 30.72881,30.72881c0,16.97106 -13.75775,30.72881 -30.72881,30.72881c-16.97106,0 -30.72881,-13.75775 -30.72881,-30.72881z" fill="url(#color-9)" stroke="#000000" stroke-width="0" stroke-linecap="butt"/><path d="M201.11864,205.10453c0,-10.96769 8.89107,-19.85876 19.85876,-19.85876c10.96769,0 19.85876,8.89107 19.85876,19.85876c0,10.96769 -8.89107,19.85876 -19.85876,19.85876c-10.96769,0 -19.85876,-8.89107 -19.85876,-19.85876z" fill="url(#color-10)" stroke="#000000" stroke-width="0" stroke-linecap="butt"/><path d="M212.82486,206.35876c0,-10.96769 8.89107,-19.85876 19.85876,-19.85876c10.96769,0 19.85876,8.89107 19.85876,19.85876c0,10.96769 -8.89107,19.85876 -19.85876,19.85876c-10.96769,0 -19.85876,-8.89107 -19.85876,-19.85876z" fill="url(#color-11)" stroke="#000000" stroke-width="0" stroke-linecap="butt"/><path d="M231.63842,207.19492c0,-10.96769 8.89107,-19.85876 19.85876,-19.85876c10.96769,0 19.85876,8.89107 19.85876,19.85876c0,10.96769 -8.89107,19.85876 -19.85876,19.85876c-10.96769,0 -19.85876,-8.89107 -19.85876,-19.85876z" fill="url(#color-12)" stroke="#000000" stroke-width="0" stroke-linecap="butt"/><path d="M246.68927,195.48871c0,-10.96769 8.89107,-19.85876 19.85876,-19.85876c10.96769,0 19.85876,8.89107 19.85876,19.85876c0,10.96769 -8.89107,19.85876 -19.85876,19.85876c-10.96769,0 -19.85876,-8.89107 -19.85876,-19.85876z" fill="url(#color-13)" stroke="#000000" stroke-width="0" stroke-linecap="butt"/><path d="M247.9435,177.92939c0,-10.96769 8.89107,-19.85876 19.85876,-19.85876c10.96769,0 19.85876,8.89107 19.85876,19.85876c0,10.96769 -8.89107,19.85876 -19.85876,19.85876c-10.96769,0 -19.85876,-8.89107 -19.85876,-19.85876z" fill="url(#color-14)" stroke="#000000" stroke-width="0" stroke-linecap="butt"/><path d="M241.25424,161.62429c0,-10.96769 8.89107,-19.85876 19.85876,-19.85876c10.96769,0 19.85876,8.89107 19.85876,19.85876c0,10.96769 -8.89107,19.85876 -19.85876,19.85876c-10.96769,0 -19.85876,-8.89107 -19.85876,-19.85876z" fill="url(#color-15)" stroke="#000000" stroke-width="0" stroke-linecap="butt"/><path d="M198.61017,160.78814c0,-10.96769 8.89107,-19.85876 19.85876,-19.85876c10.96769,0 19.85876,8.89107 19.85876,19.85876c0,10.96769 -8.89107,19.85876 -19.85876,19.85876c-10.96769,0 -19.85876,-8.89107 -19.85876,-19.85876z" fill="url(#color-16)" stroke="#000000" stroke-width="0" stroke-linecap="butt"/><path d="M193.59322,193.39831c0,-10.96769 8.89107,-19.85876 19.85876,-19.85876c10.96769,0 19.85876,8.89107 19.85876,19.85876c0,10.96769 -8.89107,19.85876 -19.85876,19.85876c-10.96769,0 -19.85876,-8.89107 -19.85876,-19.85876z" fill="url(#color-17)" stroke="#000000" stroke-width="0" stroke-linecap="butt"/><path d="M193.59322,176.25707c0,-10.96769 8.89107,-19.85876 19.85876,-19.85876c10.96769,0 19.85876,8.89107 19.85876,19.85876c0,10.96769 -8.89107,19.85876 -19.85876,19.85876c-10.96769,0 -19.85876,-8.89107 -19.85876,-19.85876z" fill="url(#color-18)" stroke="#000000" stroke-width="0" stroke-linecap="butt"/></g></g></svg>