<svg version="1.1" xmlns="http://www.w3.org/2000/svg" xmlns:xlink="http://www.w3.org/1999/xlink" width="64.5322" height="77.18487" viewBox="0,0,64.5322,77.18487"><defs><linearGradient x1="242.08044" y1="124.49018" x2="247.89455" y2="133.95702" gradientUnits="userSpaceOnUse" id="color-1"><stop offset="0" stop-color="#ffffff"/><stop offset="1" stop-color="#000000"/></linearGradient><radialGradient cx="240.94136" cy="136.04698" r="9.62192" gradientUnits="userSpaceOnUse" id="color-2"><stop offset="0" stop-color="#d6d6d6"/><stop offset="1" stop-color="#b2b2b2"/></radialGradient></defs><g transform="translate(-211.18913,-118.14465)"><g data-paper-data="{&quot;isPaintingLayer&quot;:true}" fill-rule="nonzero" stroke="#000000" stroke-linejoin="miter" stroke-miterlimit="10" stroke-dasharray="" stroke-dashoffset="0" style="mix-blend-mode: normal"><path d="M266.59346,169.77859c0,7.63093 -5.42765,13.81702 -12.123,13.81702c-6.69535,0 -12.123,-6.18609 -12.123,-13.81702c0,-7.63093 5.42764,-13.81701 12.123,-13.81701c6.69535,0 12.123,6.18608 12.123,13.81701z" fill="#101f36" stroke-width="1.5" stroke-linecap="butt"/><g data-paper-data="{&quot;index&quot;:null}" stroke-width="1.5" stroke-linecap="butt"><path d="M211.82823,148.49228c-0.37236,-0.6063 0.60099,-2.42734 0.60099,-2.42734l13.48009,-8.27885c0,0 1.12372,0.64085 1.42885,1.13869c0.27583,0.45004 0.32295,1.71947 0.32295,1.71947l-13.48009,8.27885z" fill="#1b0c00"/><path d="M226.2603,137.29477c0,0 -1.43136,-2.63252 2.2631,-4.95927c1.08767,-0.68501 3.59548,-0.35788 5.46656,-1.42992c1.90524,-1.09162 4.41254,-3.71724 7.83557,-5.71048c4.88501,-2.84455 10.7753,-5.07655 12.10302,-5.48967c7.83997,-2.43942 17.70959,1.40347 17.70959,1.40347c0,0 -5.67306,-0.0486 -10.86642,1.3095c-3.83565,1.00305 -12.57283,4.9599 -16.02191,6.56235c-8.11901,3.77212 -15.29707,15.20767 -15.29707,15.20767z" data-paper-data="{&quot;index&quot;:null}" fill="url(#color-1)"/><path d="M220.51971,134.19129l2.49901,-1.52899c0,0 4.95851,2.90222 6.26664,5.03219c1.37302,2.23563 1.68013,8.14553 1.68013,8.14553l-2.28682,1.39778c0,0 -0.53107,-5.97662 -1.90409,-8.21224c-1.30812,-2.12997 -6.25486,-4.83427 -6.25486,-4.83427z" fill="#151515"/></g><g data-paper-data="{&quot;index&quot;:null}" fill="#d6d6d6" stroke-linecap="butt"><path d="M253.32308,153.70025c0,0 1.62694,-0.28184 1.94413,0.48865c0.52742,1.2811 0.35515,1.97814 -0.36453,2.55003c-0.71967,0.57189 -1.84984,-0.79649 -1.96973,-0.69515c-0.12588,0.10638 -0.16051,2.32406 -0.84008,2.76606c-0.67958,0.44203 -1.81905,-0.12061 -1.87615,-1.46388c-0.04414,-1.03835 0.74326,-1.75045 0.74326,-1.75045l-4.27275,-8.03132c0,0 -1.30723,-0.027 -1.97387,-0.34906c-0.56528,-0.2731 -0.90569,-1.7995 -0.20755,-2.52165c0.69813,-0.72215 2.44851,0.48332 2.48164,0.46231c0.05195,-0.03294 -0.54345,-1.37753 -0.35207,-2.21404c0.17504,-0.76504 0.93477,-1.22245 1.66822,-0.6469c1.05641,0.82898 0.67927,3.60415 0.67927,3.60415z" data-paper-data="{&quot;index&quot;:null}" stroke-width="1.5"/><path d="M255.03789,167.06279c0,0 1.58183,0.47348 1.52203,1.30455c-0.0994,1.38185 -0.56452,1.92887 -1.46373,2.11968c-0.8992,0.19082 -1.30033,-1.53802 -1.45283,-1.50079c-0.16011,0.03906 -1.18033,2.00844 -1.98571,2.1009c-0.80539,0.09249 -1.57425,-0.91936 -1.02617,-2.14706c0.42366,-0.94901 1.44602,-1.23511 1.44602,-1.23511l-0.24163,-9.09396c0,0 -1.15792,-0.60728 -1.61091,-1.19288c-0.3841,-0.49658 -0.0079,-2.01455 0.93906,-2.34946c0.94695,-0.33491 1.97583,1.52476 2.01485,1.52074c0.0612,-0.00631 0.12808,-1.4753 0.67251,-2.13861c0.49791,-0.60662 1.3819,-0.67713 1.78161,0.16516c0.57571,1.21317 -0.99973,3.52871 -0.99973,3.52871z" data-paper-data="{&quot;index&quot;:null}" stroke-width="1.5"/><path d="M258.2274,173.79312c0.46364,2.15687 1.31611,-1.10276 0.90802,-1.15086c-0.46924,-0.05531 -1.73107,3.16958 -2.30678,1.28925c-0.50925,-1.66325 -0.90779,-3.13069 -0.92606,-2.79283c-0.02612,0.48288 0.32488,1.6982 0.54027,3.08838c0.40892,2.6393 2.25419,0.37184 1.97021,0.45607c-0.56363,0.16591 -2.19705,2.30111 -3.04988,-0.16799c-0.51316,-1.48571 -0.9409,-2.76517 -1.11738,-3.0161c-0.1318,-0.18741 0.22293,0.49576 0.79504,2.97283c0.68057,2.94664 2.31957,0.3481 2.03734,0.3637c-0.34953,0.01932 -2.24437,1.71801 -3.08763,-0.19633c-0.62781,-1.42524 -1.17588,-2.73998 -1.3217,-2.98173c-0.05032,-0.08344 0.9099,3.18846 0.5453,3.12191c-0.05189,-0.00947 -0.84207,0.0913 -0.92076,-0.08113c-0.69427,-1.52124 -1.16078,-3.02774 -1.18074,-3.06727c-0.68147,-1.34979 0.12047,-3.42084 0.62926,-4.29575c0.42731,-0.73481 0.50332,-0.38461 1.29398,-0.58007c1.53934,-0.38054 2.71395,0.09767 3.96777,2.58111c0.2606,0.51619 0.80555,2.51132 1.22375,4.45681z" data-paper-data="{&quot;index&quot;:null}" stroke-width="1"/></g><g data-paper-data="{&quot;index&quot;:null}" fill="#d6d6d6" stroke-linecap="butt"><path d="M233.04084,146.34599c0,0 -0.0049,-3.27038 1.3466,-4.06549c0.93834,-0.55203 1.74644,0.09549 1.83005,1.00808c0.09142,0.99787 -0.80675,2.46138 -0.75175,2.50759c0.03507,0.02946 2.24828,-1.09345 2.94393,-0.14913c0.69566,0.94434 0.06435,2.65789 -0.63233,2.88606c-0.82158,0.26905 -2.33866,0.09702 -2.33866,0.09702l-6.19383,8.6303c0,0 0.80052,0.94656 0.58796,2.14139c-0.27498,1.5457 -1.68119,2.01967 -2.39894,1.40242c-0.71774,-0.61722 -0.41295,-3.18916 -0.54209,-3.33185c-0.123,-0.13593 -1.64374,1.27198 -2.3877,0.49821c-0.74397,-0.77377 -0.83494,-1.60725 -0.02533,-3.00787c0.48689,-0.84238 2.32595,-0.2632 2.32595,-0.2632z" data-paper-data="{&quot;index&quot;:null}" stroke-width="1.5"/><path d="M227.43277,155.25098c0,0 2.59392,1.05612 2.78611,2.38513c0.13344,0.92271 -0.64177,1.35338 -1.39224,1.12387c-0.8206,-0.25097 -1.68956,-1.43729 -1.74401,-1.40867c-0.03472,0.01826 0.138,2.13656 -0.83601,2.3819c-0.97403,0.24534 -2.12768,-0.81049 -2.08272,-1.43668c0.05303,-0.73845 0.68111,-1.88523 0.68111,-1.88523l-4.83335,-7.70695c0,0 -1.00979,0.32774 -1.88799,-0.22803c-1.1361,-0.71897 -1.056,-1.98726 -0.33408,-2.35612c0.72188,-0.36887 2.66177,0.70636 2.81674,0.65025c0.14761,-0.05344 -0.47547,-1.71522 0.37901,-2.05413c0.85449,-0.33892 1.54464,-0.14088 2.39245,0.95485c0.50991,0.65898 -0.54529,1.92901 -0.54529,1.92901z" data-paper-data="{&quot;index&quot;:null}" stroke-width="1.5"/><path d="M216.54093,141.12187c0.8818,0.12359 1.67962,4.09725 1.73433,3.37846c0.10638,-1.39763 -1.20798,-3.20564 -0.77172,-3.3247c0.9084,-0.24588 1.98097,2.32265 2.43598,3.00076c0.27952,0.41658 -1.4846,-3.63419 -0.96461,-3.65151c0.61034,-0.02032 2.21549,2.95383 2.54465,3.52766c0.05538,0.09654 -1.87842,-3.95681 -1.16465,-4.00036c0.83173,-0.26626 2.68345,3.98465 2.7199,4.06096c0.65171,1.36441 -0.19545,3.41738 -0.72329,4.28092c-0.44332,0.72527 -0.51163,0.37348 -1.30639,0.55156c-1.54731,0.3467 -2.71116,-0.15715 -3.91022,-2.66748c-0.52553,-1.10025 -1.36797,-5.26474 -0.594,-5.15626z" stroke-width="1"/></g><path d="M247.79699,189.29161c0,0 1.562,0.85023 1.45323,1.7901c-0.18085,1.56275 -0.68031,2.09843 -1.59519,2.14172c-0.91487,0.0433 -1.21672,-2.01422 -1.37217,-2.00132c-0.16321,0.01354 -1.30386,2.06956 -2.11868,2.01854c-0.81483,-0.05101 -1.52827,-1.35927 -0.90554,-2.65812c0.48136,-1.00401 1.52558,-1.13241 1.52558,-1.13241l0.28984,-10.45892c0,0 -1.12814,-0.92085 -1.54908,-1.67957c-0.35694,-0.64337 0.11005,-2.30803 1.08136,-2.507c0.97129,-0.19898 1.89638,2.13064 1.93582,2.13363c0.06187,0.00469 0.21513,-1.66416 0.80113,-2.31753c0.53592,-0.59753 1.42846,-0.50604 1.78082,0.53617c0.50752,1.50112 -1.21141,3.84533 -1.21141,3.84533z" data-paper-data="{&quot;index&quot;:null}" fill="#d6d6d6" stroke-width="1.5" stroke-linecap="butt"/><path d="M235.63158,188.88322c0,0 1.51312,0.91645 1.38966,1.83142c-0.20529,1.52136 -0.70374,2.01951 -1.5998,2.01303c-0.89605,-0.00646 -1.15417,-2.03835 -1.30652,-2.03401c-0.15995,0.00455 -1.31341,1.9579 -2.10984,1.86436c-0.79644,-0.09351 -1.47091,-1.41334 -0.838,-2.65256c0.48925,-0.95793 1.51341,-1.02792 1.51341,-1.02792l0.47304,-10.23124c0,0 -1.08728,-0.96244 -1.48547,-1.72826c-0.33765,-0.64939 0.14948,-2.25532 1.10358,-2.39837c0.95407,-0.14305 1.81717,2.18875 1.85571,2.19379c0.06045,0.00791 0.24066,-1.61892 0.82594,-2.22771c0.53527,-0.55677 1.407,-0.41945 1.73295,0.62045c0.46945,1.49778 -1.25509,3.70259 -1.25509,3.70259z" data-paper-data="{&quot;index&quot;:null}" fill="#d6d6d6" stroke-width="1.5" stroke-linecap="butt"/><path d="M247.48656,174.3612c0,0 1.4035,0.64395 1.36498,1.46456c-0.06403,1.36446 -0.46495,1.85811 -1.25491,1.94984c-0.78995,0.09173 -1.17338,-1.67272 -1.30728,-1.65233c-0.14058,0.0214 -1.00682,1.87006 -1.71569,1.87416c-0.70888,0.00411 -1.40444,-1.08689 -0.94198,-2.24895c0.35747,-0.89827 1.25443,-1.07139 1.25443,-1.07139l-0.36885,-9.07733c0,0 -1.03185,-0.73083 -1.44145,-1.36312c-0.34734,-0.53617 -0.04147,-2.00588 0.78814,-2.23582c0.8296,-0.22994 1.76905,1.73329 1.80339,1.73354c0.05388,0.00039 0.08772,-1.45435 0.55661,-2.05507c0.42883,-0.54939 1.20742,-0.52303 1.57443,0.35891c0.52862,1.27028 -0.82147,3.40285 -0.82147,3.40285z" data-paper-data="{&quot;index&quot;:null}" fill="#d6d6d6" stroke-width="1.5" stroke-linecap="butt"/><path d="M235.93404,174.89184c0,0 1.28422,0.84268 1.14839,1.63276c-0.22585,1.31367 -0.674,1.73029 -1.45132,1.69656c-0.77732,-0.03372 -0.93755,-1.80493 -1.06988,-1.80594c-0.13894,-0.00107 -1.20109,1.65771 -1.88924,1.55156c-0.68815,-0.10612 -1.232,-1.27253 -0.64393,-2.32797c0.45458,-0.81587 1.34546,-0.84447 1.34546,-0.84447l0.73141,-8.86301c0,0 -0.91326,-0.86923 -1.23476,-1.54624c-0.27261,-0.57408 0.20046,-1.95229 1.03284,-2.04649c0.83236,-0.0942 1.50813,1.95622 1.54142,1.9618c0.05221,0.00876 0.25961,-1.39721 0.78656,-1.90712c0.48193,-0.46633 1.23405,-0.31983 1.48425,0.59274c0.36037,1.31438 -1.20522,3.17344 -1.20522,3.17344z" data-paper-data="{&quot;index&quot;:null}" fill="#d6d6d6" stroke-width="1.5" stroke-linecap="butt"/><path d="M238.69759,159.93873c0.38593,-1.40247 0.65067,-1.81359 0.85551,-3.33072c0.28883,-2.25791 -6.16819,1.50955 -5.90328,-2.03879c0.2649,-3.54835 5.84931,-0.3473 6.16004,-2.29769c-0.07012,-3.16744 -6.01468,1.17646 -6.08923,-2.58714c-0.07455,-3.7636 6.13472,-0.30589 6.2671,-2.14519c0.32685,-1.62496 -1.30164,-1.23804 -2.72877,-1.58961c-0.14879,-0.03665 -3.16311,0.37174 -3.58179,-1.27802c-0.45487,-1.79235 2.64124,-1.82943 2.64124,-1.82943c0,0 1.32403,0.43636 2.5278,0.43636c0.21252,0 -0.0848,-3.53214 0.19398,-3.53962c0.66314,-0.0178 3.80628,-0.03856 3.80628,-0.03856c0,0 -0.18757,3.4206 0.14623,3.4206c1.67442,0 3.08596,-0.18788 3.08596,-0.18788c0,0 1.99028,0.55078 2.08101,1.72942c0.04877,0.63349 -1.74755,0.83943 -3.31367,1.25331c-1.34776,0.35618 -2.62432,-0.02375 -2.67681,1.31947c-0.17387,2.73769 5.96267,-1.39665 6.04299,2.30954c0.08032,3.70619 -6.05846,0.1706 -6.00714,2.63556c-0.07791,2.14862 6.03656,-0.92075 5.98982,2.35658c-0.04674,3.27733 -6.05265,-0.2247 -5.98408,2.13849c0.00261,1.14462 0.15715,2.21057 0.40403,3.331c1.01399,4.60181 4.63105,-1.48961 5.92392,2.54351c1.29288,4.03312 -0.70747,2.79682 -3.77574,4.15776c-1.04358,0.46288 -3.37293,-2.8288 -4.2686,-2.66388c-1.77908,0.3276 -2.78784,2.77782 -3.61649,2.7832c-2.20942,0.01436 -4.37109,-0.79041 -3.35003,-4.06799c0,0 0.41346,-0.67088 1.73167,-1.0324c1.01898,-0.27945 2.92271,0.08482 3.43804,-1.78788z" data-paper-data="{&quot;index&quot;:null}" fill="#d6d6d6" stroke-width="1.5" stroke-linecap="butt"/><path d="M245.3829,143.99628l-2.59365,0.00786l0.06663,-1.71721l-0.46864,-0.0093l-0.02632,1.76361l-2.73045,-0.03914l0.00895,-1.74555l-0.41929,-0.00552l-0.08546,1.77484l-2.31368,-0.02477c0,0 -0.49067,-1.30803 -0.48567,-2.00018c-0.30269,-0.73094 -0.18858,-2.38204 -0.47933,-2.74743c-1.6384,-0.44413 -2.51365,-1.40593 -2.48967,-4.53094c0.04627,-6.02554 2.84378,-9.67044 7.35517,-9.6256c4.51138,0.04485 7.90299,3.91834 7.8567,9.9439c0,0 -0.17998,3.9146 -2.01941,4.17479c-0.55648,0.93123 -0.55337,1.66644 -0.80479,2.6641z" fill="url(#color-2)" stroke-width="1.5" stroke-linecap="butt"/><path d="M237.96463,134.51563c0,-1.10182 0.78503,-1.99499 1.75344,-1.99499c0.96841,0 1.75344,0.89318 1.75344,1.99499c0,1.10182 -0.78504,1.99499 -1.75344,1.99499c-0.96841,0 -1.75344,-0.89319 -1.75344,-1.99499z" fill="#1d1d1d" stroke-width="1" stroke-linecap="butt"/><path d="M243.20039,134.56751c0,-1.10182 0.78505,-1.99501 1.75347,-1.99501c0.96841,0 1.75347,0.89319 1.75347,1.99501c0,1.10182 -0.78505,1.99502 -1.75347,1.99502c-0.96841,0 -1.75347,-0.8932 -1.75347,-1.99502z" fill="#1d1d1d" stroke-width="1" stroke-linecap="butt"/><g stroke-width="1"><path d="M229.58936,194.33056c0,0 -0.65804,-1.26954 -0.65804,-1.87107c0,-0.64307 1.80303,-1.49686 1.80303,-1.49686c0,0 1.89489,0.24948 3.13622,0.24948c1.34557,0 2.70323,-0.49895 2.70323,-0.49895c0,0 2.12152,0.94877 2.12152,1.6216c0,0.54936 -0.97653,1.99581 -0.97653,1.99581c0,0 -2.78393,0.49895 -4.1167,0.49895c-1.25825,0 -4.01273,-0.49895 -4.01273,-0.49895z" fill="#d6d6d6" stroke-linecap="butt"/><path d="M230.64611,194.58004l1.24738,-1.74634" fill="none" stroke-linecap="round"/><path d="M233.63983,194.70478v-1.87107" fill="none" stroke-linecap="round"/><path d="M235.76038,192.95844l0.74843,1.6216" fill="none" stroke-linecap="round"/></g><g stroke-width="1"><path d="M241.69944,194.12711c0,0 -0.65804,-1.26953 -0.65804,-1.87107c0,-0.64307 1.80303,-1.49686 1.80303,-1.49686c0,0 1.89489,0.24948 3.13622,0.24948c1.34556,0 2.70322,-0.49895 2.70322,-0.49895c0,0 2.12152,0.94878 2.12152,1.6216c0,0.54936 -0.97653,1.99581 -0.97653,1.99581c0,0 -2.78392,0.49896 -4.11669,0.49896c-1.25825,0 -4.01273,-0.49896 -4.01273,-0.49896z" fill="#d6d6d6" stroke-linecap="butt"/><path d="M244.00358,192.63026l-1.24738,1.74633" fill="none" stroke-linecap="round"/><path d="M245.74992,192.63025v1.87107" fill="none" stroke-linecap="round"/><path d="M247.87047,192.75499l0.74843,1.6216" fill="none" stroke-linecap="round"/></g><path d="M258.19667,168.23257c0,0 1.1349,0.62012 1.19861,1.06086c0.05753,0.39797 -0.833,1.46839 -0.833,1.46839c0,0 -8.68379,1.78962 -8.79688,1.15899c-0.45028,0.04108 -1.00992,-0.5047 -0.83161,-1.28127c0.13878,-0.60439 0.98666,-1.31343 0.98666,-1.31343z" fill="#111111" stroke-width="1.5" stroke-linecap="butt"/></g></g></svg>