<svg version="1.1" xmlns="http://www.w3.org/2000/svg" xmlns:xlink="http://www.w3.org/1999/xlink" width="148.10274" height="209.89122" viewBox="0,0,148.10274,209.89122"><defs><linearGradient x1="107.20129" y1="153.82886" x2="95.71921" y2="153.82886" gradientUnits="userSpaceOnUse" id="color-1"><stop offset="0" stop-color="#121533"/><stop offset="1" stop-color="#000000"/></linearGradient><linearGradient x1="107.08955" y1="166.88092" x2="95.60747" y2="166.88092" gradientUnits="userSpaceOnUse" id="color-2"><stop offset="0" stop-color="#121533"/><stop offset="1" stop-color="#000000"/></linearGradient><linearGradient x1="107.20129" y1="179.93296" x2="95.71922" y2="179.93296" gradientUnits="userSpaceOnUse" id="color-3"><stop offset="0" stop-color="#121533"/><stop offset="1" stop-color="#000000"/></linearGradient><linearGradient x1="107.08955" y1="193.28506" x2="95.60747" y2="193.28506" gradientUnits="userSpaceOnUse" id="color-4"><stop offset="0" stop-color="#121533"/><stop offset="1" stop-color="#000000"/></linearGradient><linearGradient x1="106.97781" y1="206.33712" x2="95.49573" y2="206.33712" gradientUnits="userSpaceOnUse" id="color-5"><stop offset="0" stop-color="#121533"/><stop offset="1" stop-color="#000000"/></linearGradient><linearGradient x1="107.08955" y1="219.38918" x2="95.60747" y2="219.38918" gradientUnits="userSpaceOnUse" id="color-6"><stop offset="0" stop-color="#121533"/><stop offset="1" stop-color="#000000"/></linearGradient><linearGradient x1="222.34641" y1="19.48227" x2="222.34641" y2="30.96434" gradientUnits="userSpaceOnUse" id="color-7"><stop offset="0" stop-color="#121533"/><stop offset="1" stop-color="#000000"/></linearGradient><linearGradient x1="235.69851" y1="19.59401" x2="235.69851" y2="31.07609" gradientUnits="userSpaceOnUse" id="color-8"><stop offset="0" stop-color="#121533"/><stop offset="1" stop-color="#000000"/></linearGradient></defs><g transform="translate(-94.74573,-16.6479)"><g data-paper-data="{&quot;isPaintingLayer&quot;:true}" fill-rule="nonzero" stroke="#000000" stroke-width="1.5" stroke-linecap="round" stroke-linejoin="miter" stroke-miterlimit="10" stroke-dasharray="" stroke-dashoffset="0" style="mix-blend-mode: normal"><path d="M95.71921,158.92968v-10.2016c0,0 1.92916,2.31116 3.34304,2.7108c2.84665,0.80461 8.13904,2.27665 8.13904,2.27665c0,0 -5.19539,1.40606 -8.07438,2.42325c-1.49524,0.52829 -3.4077,2.79091 -3.4077,2.79091z" fill="url(#color-1)"/><path d="M95.60747,171.98173v-10.2016c0,0 1.92916,2.31117 3.34304,2.71081c2.84665,0.8046 8.13903,2.27664 8.13903,2.27664c0,0 -5.1954,1.40607 -8.07438,2.42325c-1.49524,0.52829 -3.40769,2.7909 -3.40769,2.7909z" fill="url(#color-2)"/><path d="M95.71922,185.03378v-10.2016c0,0 1.92916,2.31116 3.34304,2.7108c2.84665,0.8046 8.13903,2.27665 8.13903,2.27665c0,0 -5.19539,1.40607 -8.07437,2.42325c-1.49524,0.52829 -3.4077,2.79091 -3.4077,2.79091z" fill="url(#color-3)"/><path d="M95.60747,198.38587v-10.2016c0,0 1.92916,2.31117 3.34304,2.7108c2.84665,0.8046 8.13903,2.27665 8.13903,2.27665c0,0 -5.1954,1.40607 -8.07438,2.42325c-1.49524,0.52829 -3.40769,2.7909 -3.40769,2.7909z" fill="url(#color-4)"/><path d="M95.49573,211.43791v-10.20161c0,0 1.92916,2.31118 3.34304,2.71082c2.84665,0.8046 8.13904,2.27664 8.13904,2.27664c0,0 -5.1954,1.40607 -8.07438,2.42325c-1.49524,0.52829 -3.4077,2.7909 -3.4077,2.7909z" fill="url(#color-5)"/><path d="M95.60747,224.48997v-10.2016c0,0 1.92916,2.31117 3.34304,2.7108c2.84665,0.8046 8.13903,2.27665 8.13903,2.27665c0,0 -5.1954,1.40606 -8.07438,2.42324c-1.49524,0.52829 -3.40769,2.79091 -3.40769,2.79091z" fill="url(#color-6)"/><path d="M227.44723,30.96434h-10.2016c0,0 2.31116,-1.92916 2.7108,-3.34304c0.8046,-2.84665 2.27665,-8.13903 2.27665,-8.13903c0,0 1.40607,5.19539 2.42325,8.07437c0.52829,1.49524 2.79091,3.4077 2.79091,3.4077z" fill="url(#color-7)"/><path d="M240.79932,31.07609h-10.2016c0,0 2.31117,-1.92916 2.7108,-3.34304c0.8046,-2.84665 2.27665,-8.13903 2.27665,-8.13903c0,0 1.40607,5.1954 2.42325,8.07438c0.52829,1.49524 2.7909,3.40769 2.7909,3.40769z" fill="url(#color-8)"/></g></g></svg>