<svg version="1.1" xmlns="http://www.w3.org/2000/svg" xmlns:xlink="http://www.w3.org/1999/xlink" width="110.42602" height="73.77497" viewBox="0,0,110.42602,73.77497"><g transform="translate(-377.47706,-171.70945)"><g data-paper-data="{&quot;isPaintingLayer&quot;:true}" fill="none" fill-rule="nonzero" stroke-width="3" stroke-linecap="round" stroke-linejoin="miter" stroke-miterlimit="10" stroke-dasharray="" stroke-dashoffset="0" style="mix-blend-mode: normal"><g><g><path d="M415.24947,203.48519l35.82123,11.69566l-14.08183,-1.52041" stroke="#5100a4"/><path d="M418.13692,201.9066l35.92535,12.17285l-13.98451,-1.70221" stroke="#000000"/></g><g data-paper-data="{&quot;index&quot;:null}"><path d="M440.40039,201.51696l12.53245,7.30615l-35.74532,-12.03922" stroke="#5100a4"/><path d="M442.47592,204.51296l12.58638,7.10996l-36.03171,-11.69155" stroke="#000000"/></g></g><g><g><path d="M460.27623,179.81298l16.71949,33.76992l-8.77051,-11.1215" stroke="#5100a4"/><path d="M463.42469,180.77033l16.45154,34.17829l-8.57253,-11.17926" stroke="#000000"/></g><g data-paper-data="{&quot;index&quot;:null}"><path d="M479.28595,196.39821l3.55381,14.06458l-16.42097,-33.95618" stroke="#5100a4"/><path d="M478.59893,199.97759l3.7317,13.96577l-16.86974,-33.91737" stroke="#000000"/></g></g><g><g><path d="M470.07442,197.33597l-20.45153,31.6494l5.0644,-13.22729" stroke="#5100a4"/><path d="M470.86375,200.53079l-20.93947,31.62826l5.21535,-13.0868" stroke="#000000"/></g><g data-paper-data="{&quot;index&quot;:null}"><path d="M465.55783,222.15623l-10.26301,10.25243l20.76434,-31.48829" stroke="#5100a4"/><path d="M462.13127,223.39831l-10.08708,10.35465l20.50129,-31.85394" stroke="#000000"/></g></g><g><g><path d="M378.97706,180.12712l37.1804,6.12918l-14.14955,0.63228" stroke="#5100a4"/><path d="M381.5918,178.12899l37.35567,6.58507l-14.08093,0.4378" stroke="#000000"/></g><g data-paper-data="{&quot;index&quot;:null}"><path d="M403.53873,174.36824l13.49531,5.32151l-37.15745,-6.4803" stroke="#5100a4"/><path d="M406.04461,177.01489l13.51887,5.11939l-37.38781,-6.09321" stroke="#000000"/></g></g></g></g></svg>