<svg version="1.1" xmlns="http://www.w3.org/2000/svg" xmlns:xlink="http://www.w3.org/1999/xlink" width="16.22727" height="44.47803" viewBox="0,0,16.22727,44.47803"><defs><linearGradient x1="239.96597" y1="143.73603" x2="239.96597" y2="185.22385" gradientUnits="userSpaceOnUse" id="color-1"><stop offset="0" stop-color="#242424"/><stop offset="1" stop-color="#141414"/></linearGradient><linearGradient x1="239.9228" y1="171.83341" x2="239.9228" y2="180.20361" gradientUnits="userSpaceOnUse" id="color-2"><stop offset="0" stop-color="#323232"/><stop offset="1" stop-color="#656565"/></linearGradient></defs><g transform="translate(-231.88643,-143.23603)"><g data-paper-data="{&quot;isPaintingLayer&quot;:true}" fill-rule="nonzero" stroke-linecap="butt" stroke-linejoin="miter" stroke-miterlimit="10" stroke-dasharray="" stroke-dashoffset="0" style="mix-blend-mode: normal"><path d="M242.08989,143.73603c0,0 4.87609,2.44075 4.87609,4.3005c0,2.27016 0,30.66864 0,34.25516c0,1.83836 -1.84325,2.93216 -4.01739,2.93216c-2.22118,0 -4.78772,0 -6.08696,0c-1.52738,0 -3.89565,-1.33513 -3.89565,-3.22537c0,-3.5911 0,-31.7123 0,-33.96195c0,-1.85975 4.99783,-4.3005 4.99783,-4.3005z" data-paper-data="{&quot;index&quot;:null}" fill="url(#color-1)" stroke="#000000" stroke-width="1"/><path d="M236.01278,168.84763v-19.59338h7.54546v19.59338z" fill="#4b4d00" stroke="#000000" stroke-width="1"/><path d="M232.63644,185.53461c0,-0.61069 0,-1.31829 0,-1.68811c0,-0.56822 0.65255,-1.42946 1.22969,-1.42946c1.58331,0 8.87288,0 11.99138,0c0.85666,0 1.5062,0.91021 1.5062,1.31304c0,0.38209 0,1.12628 0,1.80453c0,0.75565 -0.74756,1.42945 -1.44798,1.42945c-1.71343,0 -8.94315,0 -11.93317,0c-0.79642,0 -1.34612,-0.65447 -1.34612,-1.42945z" fill="#545454" stroke="#000000" stroke-width="1.5"/><path d="M235.19769,180.20361v-8.37019h9.45022v8.37019z" fill="url(#color-2)" stroke="#000000" stroke-width="1"/><path d="M237.86315,174.88334c0,-0.84527 1.04397,-1.77324 1.99492,-1.77324c0.95095,0 1.99492,0.92796 1.99492,1.77324c0,0.66989 -0.48418,1.23926 -1.15845,1.44669c-0.09476,0.02915 0.2752,2.24856 0.2752,2.24856c0,0 -0.78207,0.49372 -1.38517,0.49727c-0.49829,0.00294 -1.09191,-0.53809 -1.09191,-0.53809c0,0 0.73096,-2.14472 0.47009,-2.28615c-0.49563,-0.2687 -1.09961,-0.81448 -1.09961,-1.36827z" fill="#000000" stroke="#000000" stroke-width="1"/><path d="M238.2958,174.99462c0,-0.75672 0.78811,-1.58747 1.50598,-1.58747c0.71788,0 1.50598,0.83075 1.50598,1.58747c0,0.59971 -0.36551,1.10944 -0.87452,1.29514c-0.07153,0.0261 0.20775,2.013 0.20775,2.013c0,0 -0.59039,0.44199 -1.04568,0.44518c-0.37617,0.00263 -0.82429,-0.48173 -0.82429,-0.48173c0,0 0.55181,-1.92005 0.35488,-2.04666c-0.37416,-0.24056 -0.83011,-0.72916 -0.83011,-1.22493z" fill="#000000" stroke="#fbff00" stroke-width="0.5"/></g></g></svg>