<svg version="1.1" xmlns="http://www.w3.org/2000/svg" xmlns:xlink="http://www.w3.org/1999/xlink" width="192.9073" height="147.23049" viewBox="0,0,192.9073,147.23049"><defs><radialGradient cx="339.16561" cy="143.40488" r="6.9241" gradientUnits="userSpaceOnUse" id="color-1"><stop offset="0" stop-color="#1048db"/><stop offset="1" stop-color="#1048db" stop-opacity="0"/></radialGradient><radialGradient cx="351.22647" cy="198.34375" r="23.30182" gradientUnits="userSpaceOnUse" id="color-2"><stop offset="0" stop-color="#091f57"/><stop offset="1" stop-color="#091f57" stop-opacity="0"/></radialGradient><radialGradient cx="303.5547" cy="225.69624" r="23.30182" gradientUnits="userSpaceOnUse" id="color-3"><stop offset="0" stop-color="#091f57"/><stop offset="1" stop-color="#091f57" stop-opacity="0"/></radialGradient><radialGradient cx="317.11108" cy="216.98497" r="23.30182" gradientUnits="userSpaceOnUse" id="color-4"><stop offset="0" stop-color="#091f57"/><stop offset="1" stop-color="#091f57" stop-opacity="0"/></radialGradient><radialGradient cx="332.44012" cy="133.83322" r="22.47223" gradientUnits="userSpaceOnUse" id="color-5"><stop offset="0" stop-color="#091f57"/><stop offset="1" stop-color="#091f57" stop-opacity="0"/></radialGradient><radialGradient cx="336.11746" cy="198.25886" r="22.47222" gradientUnits="userSpaceOnUse" id="color-6"><stop offset="0" stop-color="#091f57"/><stop offset="1" stop-color="#091f57" stop-opacity="0"/></radialGradient><radialGradient cx="325.79841" cy="224.8092" r="22.47223" gradientUnits="userSpaceOnUse" id="color-7"><stop offset="0" stop-color="#091f57"/><stop offset="1" stop-color="#091f57" stop-opacity="0"/></radialGradient><radialGradient cx="348.46647" cy="193.38674" r="22.47222" gradientUnits="userSpaceOnUse" id="color-8"><stop offset="0" stop-color="#091f57"/><stop offset="1" stop-color="#091f57" stop-opacity="0"/></radialGradient><radialGradient cx="342.93923" cy="181.414" r="22.47222" gradientUnits="userSpaceOnUse" id="color-9"><stop offset="0" stop-color="#091f57"/><stop offset="1" stop-color="#091f57" stop-opacity="0"/></radialGradient><radialGradient cx="345.56374" cy="174.65507" r="22.47221" gradientUnits="userSpaceOnUse" id="color-10"><stop offset="0" stop-color="#091f57"/><stop offset="1" stop-color="#091f57" stop-opacity="0"/></radialGradient><radialGradient cx="348.58029" cy="161.74105" r="22.47223" gradientUnits="userSpaceOnUse" id="color-11"><stop offset="0" stop-color="#091f57"/><stop offset="1" stop-color="#091f57" stop-opacity="0"/></radialGradient><radialGradient cx="338.08455" cy="212.08592" r="22.47223" gradientUnits="userSpaceOnUse" id="color-12"><stop offset="0" stop-color="#091f57"/><stop offset="1" stop-color="#091f57" stop-opacity="0"/></radialGradient><radialGradient cx="353.22084" cy="176.22246" r="22.47222" gradientUnits="userSpaceOnUse" id="color-13"><stop offset="0" stop-color="#091f57"/><stop offset="1" stop-color="#091f57" stop-opacity="0"/></radialGradient><radialGradient cx="297.39972" cy="235.19946" r="22.47223" gradientUnits="userSpaceOnUse" id="color-14"><stop offset="0" stop-color="#091f57"/><stop offset="1" stop-color="#091f57" stop-opacity="0"/></radialGradient><radialGradient cx="310.48882" cy="231.8121" r="22.47223" gradientUnits="userSpaceOnUse" id="color-15"><stop offset="0" stop-color="#091f57"/><stop offset="1" stop-color="#091f57" stop-opacity="0"/></radialGradient><radialGradient cx="274.82235" cy="236.65726" r="22.47223" gradientUnits="userSpaceOnUse" id="color-16"><stop offset="0" stop-color="#091f57"/><stop offset="1" stop-color="#091f57" stop-opacity="0"/></radialGradient><radialGradient cx="287.79873" cy="233.34998" r="22.47222" gradientUnits="userSpaceOnUse" id="color-17"><stop offset="0" stop-color="#091f57"/><stop offset="1" stop-color="#091f57" stop-opacity="0"/></radialGradient><radialGradient cx="343.58416" cy="157.49873" r="22.47224" gradientUnits="userSpaceOnUse" id="color-18"><stop offset="0" stop-color="#091f57"/><stop offset="1" stop-color="#091f57" stop-opacity="0"/></radialGradient><radialGradient cx="339.48602" cy="142.40991" r="22.47222" gradientUnits="userSpaceOnUse" id="color-19"><stop offset="0" stop-color="#091f57"/><stop offset="1" stop-color="#091f57" stop-opacity="0"/></radialGradient><radialGradient cx="320.45729" cy="124.93097" r="22.47223" gradientUnits="userSpaceOnUse" id="color-20"><stop offset="0" stop-color="#091f57"/><stop offset="1" stop-color="#091f57" stop-opacity="0"/></radialGradient><radialGradient cx="341.77689" cy="135.49666" r="22.47223" gradientUnits="userSpaceOnUse" id="color-21"><stop offset="0" stop-color="#091f57"/><stop offset="1" stop-color="#091f57" stop-opacity="0"/></radialGradient><radialGradient cx="348.18623" cy="145.76241" r="22.47223" gradientUnits="userSpaceOnUse" id="color-22"><stop offset="0" stop-color="#091f57"/><stop offset="1" stop-color="#091f57" stop-opacity="0"/></radialGradient><radialGradient cx="333.4509" cy="218.4797" r="23.30182" gradientUnits="userSpaceOnUse" id="color-23"><stop offset="0" stop-color="#091f57"/><stop offset="1" stop-color="#091f57" stop-opacity="0"/></radialGradient></defs><g transform="translate(-183.94571,-106.91921)"><g data-paper-data="{&quot;isPaintingLayer&quot;:true}" fill-rule="nonzero" stroke-linejoin="miter" stroke-miterlimit="10" stroke-dasharray="" stroke-dashoffset="0" style="mix-blend-mode: normal"><g stroke="#000000"><path d="M237.28497,159.8721c0,0 -0.02553,-4.71599 1.13101,-7.20695c0.78041,-1.68089 1.50496,-4.52289 4.89678,-4.79144c2.11587,-0.16752 4.93219,-0.87488 4.93219,-0.87488c0,0 25.67762,9.03759 32.08415,12.30254c2.8643,1.45973 3.56383,3.59392 3.56383,3.59392c0,0 0.71371,6.3548 0.10379,8.69789c-0.64671,2.4844 -4.20242,5.70247 -4.20242,5.70247z" fill="#090909" stroke-width="2" stroke-linecap="butt"/><path d="M240.12522,204.42447c0,0 9.03419,-5.99159 12.62543,-11.59227c2.43581,-3.79877 4.1271,-8.15744 7.03958,-14.7048c2.96778,-6.67168 7.1342,-15.49761 7.1342,-15.49761c0,0 0.71864,6.3164 2.14469,7.78604c2.19527,2.26232 8.77714,7.37254 8.77714,7.37254c0,0 -9.96429,15.08672 -12.29355,20.91133c-2.98448,7.46311 -4.13994,20.1828 -4.13994,20.1828c0,0 -3.86098,-6.74817 -6.24119,-7.92741c-2.09578,-1.03833 -7.29563,1.22074 -7.29563,1.22074c0,0 -5.72904,5.63943 -10.37999,6.77266c-6.00798,1.46387 -11.46949,-1.61746 -13.53309,-3.04254c-10.31528,-7.12351 0.27312,-27.40826 -1.7035,-28.75072c-0.99772,-0.67764 5.73057,9.91554 11.1499,13.70993c5.44191,3.81023 6.71598,3.55932 6.71598,3.55932z" fill="#090909" stroke-width="2" stroke-linecap="butt"/><path d="M206.5587,219.8794c0,0 -10.30888,-8.53712 -12.7,-13.68985c-2.67249,-5.75905 -2.58493,-19.24824 -2.58493,-19.24824c0,0 6.26577,3.19053 9.80845,7.27463c3.89745,4.49308 5.35087,9.99982 11.27489,11.95696c5.90143,1.94967 21.75963,-8.44314 22.73297,-9.82486c2.29756,-3.26155 16.31964,-39.01086 18.70277,-41.90678c3.76051,-4.56969 24.62363,3.59126 25.94432,8.54477c1.10904,4.15962 -16.41967,23.04771 -20.91055,31.79321c-6.24404,12.15959 -8.81111,25.11042 -12.46851,27.11512c-0.70898,0.38861 -6.14152,8.65903 -11.01331,7.70133c-3.5934,-0.70639 -8.62954,-1.21654 -12.35347,-2.22913c-9.11485,-2.47847 -16.43265,-7.48715 -16.43265,-7.48715z" fill="#333333" stroke-width="2" stroke-linecap="butt"/><path d="M279.08097,154.0086c-0.94113,2.20699 -0.53228,7.28266 -2.11749,7.99771c-1.84754,0.8334 -5.45917,-0.14031 -8.42899,-0.53724c-3.87138,-0.51744 -7.2741,-0.75356 -10.59798,-1.85271c-8.50391,-2.81207 -7.53658,-8.22101 -4.51683,-17.22451c0.86835,-2.58905 5.74025,-11.63148 6.15002,-12.11827c5.73612,-6.81458 13.93996,-10.71728 19.59457,-8.84742c7.66189,2.53363 9.52782,13.33146 6.61547,21.75233c-0.32007,0.92545 -6.50844,10.38386 -6.69873,10.83012z" fill="#0e0e0e" stroke-width="2" stroke-linecap="butt"/><path d="M244.6332,158.45863c0,0 -1.78987,-4.65239 -0.25942,-5.80938c1.77015,-1.3382 3.95367,-1.06369 6.66165,-0.17351c2.70798,0.89018 5.195,3.99011 12.68901,6.53455c5.26574,1.78786 9.76855,2.96301 12.32853,3.01773c0.16853,0.0036 3.08969,1.70412 3.43401,3.08623c0.42479,1.70524 -2.58998,5.40253 -2.58998,5.40253c0,0 -5.84492,-0.1566 -12.0249,-1.29213c-3.19151,-0.5864 -7.75802,-0.93859 -10.12978,-1.87731c-6.31722,-2.50034 -10.1091,-8.88869 -10.1091,-8.88869z" fill="#091f57" stroke-width="2" stroke-linecap="butt"/><path d="M206.21586,218.95149c0,0 -10.0398,-8.43063 -12.34394,-13.54897c-0.94123,-2.09082 -3.55816,-10.70123 -1.50386,-9.54203c3.56639,2.01243 13.54902,15.93855 15.73257,18.50449c3.78592,4.44896 5.17251,0.40149 10.96473,2.30641c5.77013,1.89766 12.85527,4.35078 13.82014,2.96566c0.22824,-0.32766 7.77281,-2.01617 8.43473,-3.00292c3.80655,-5.67443 14.67306,-36.08228 20.7929,-43.09422c3.43486,-3.93554 7.73947,1.05825 7.73947,1.05825c0,0 -7.65888,11.84904 -12.12904,20.60295c-6.21522,12.17129 -8.90666,23.42123 -12.50755,25.44838c-0.69805,0.39297 -6.08766,8.68058 -10.85609,7.76385c-3.51718,-0.6762 -8.45018,-1.14546 -12.09296,-2.12589c-8.91619,-2.39974 -16.05112,-7.336 -16.05112,-7.336z" fill="#091f57" stroke-width="2" stroke-linecap="butt"/><path d="M217.40939,201.91353c0,0 7.53017,-6.05431 10.70515,-11.44006c2.15348,-3.65298 3.74587,-7.78219 6.43391,-14.00582c2.73909,-6.3418 6.55397,-14.74489 6.55397,-14.74489c0,0 0.21569,5.80522 1.26802,7.08496c1.61999,1.97001 10.62511,4.79789 10.62511,4.79789c0,0 -12.83745,16.05472 -15.02042,21.57657c-2.79705,7.07519 -4.43461,18.91218 -4.43461,18.91218c0,0 -2.69297,-6.0277 -4.52128,-6.98491c-1.60987,-0.84283 -5.87691,1.54098 -5.87691,1.54098c0,0 -4.87906,5.54212 -8.64562,6.85303c-4.86554,1.69342 -8.59451,-4.76682 -10.1569,-5.96939c-7.81002,-6.01127 1.31886,-21.46496 -0.17897,-22.59597c-0.75605,-0.57091 4.00262,8.85368 8.10282,12.05989c4.11731,3.21957 5.14572,2.91557 5.14572,2.91557z" fill="#090909" stroke-width="2" stroke-linecap="butt"/><path d="M235.40391,163.71938c0,0 2.07267,-4.29273 3.66168,-5.70632c1.83788,-1.63497 4.61731,-2.57773 4.61731,-2.57773c0,0 4.86157,2.55567 8.67067,5.78625c2.70389,2.29323 5.97816,4.33224 9.01386,5.3675c3.73387,1.27336 10.52175,4.07922 14.22179,3.47202c2.56986,-0.42172 -0.83627,5.59548 -0.83627,5.59548c0,0 -15.78757,0.36099 -22.56065,-2.40589c-2.10243,-0.85886 -3.49471,-3.84412 -6.44059,-4.1124c-1.94392,-0.17703 -5.54419,2.57264 -6.98269,1.68877c-2.75178,-1.69079 -3.36506,-7.10762 -3.36506,-7.10762z" fill="#1a1a1a" stroke-width="2" stroke-linecap="butt"/><path d="M276.0537,155.85752c0,0 -2.31955,1.55772 -2.94258,1.4112c-0.83966,-0.19746 -4.25802,-1.91236 -5.11327,-2.12731c-0.7238,-0.18196 -2.99464,-1.86506 -2.99464,-1.86506c0,0 -1.46222,0.4373 -2.03208,0.29599c-0.74216,-0.18404 -2.04213,-1.30628 -2.04213,-1.30628c0,0 -0.21899,-2.20137 0.13252,-3.25497c-0.17272,-1.2421 0.84632,-3.71254 0.51371,-4.39204c-2.67391,-1.36605 -3.74359,-3.20095 -2.15393,-7.95736c1.19269,-3.5687 4.07876,-5.91476 6.23991,-7.94171c3.39279,-3.18203 6.66283,-4.84858 11.51679,-3.64847c3.47201,0.85844 3.98428,5.06572 5.70485,7.67978c2.21704,3.36838 4.97418,5.62592 3.24837,10.78964c0,0 -2.2561,5.89517 -5.63374,5.51887c-1.44396,1.18649 -1.80247,2.30916 -2.74051,3.72522z" fill="#333333" stroke-width="2" stroke-linecap="butt"/><path d="M259.79023,134.40323c0,0 1.21975,-3.89155 2.50492,-4.16151c1.84048,-0.38655 6.34503,-2.76726 8.97718,-2.78337c4.63267,-0.02834 7.16554,2.51007 5.62837,2.10958c-1.11026,-0.28926 -2.78104,12.33393 -4.86393,13.4416c-1.76309,0.93761 -2.11971,3.31454 -2.77798,4.54842c-0.64557,1.21009 -1.13277,6.04572 -2.66707,7.19186c-0.46619,0.34824 -4.26857,-0.54283 -5.09681,-1.91599c-0.56705,-0.9401 -1.23868,-2.16049 -1.23446,-3.44704c0.00527,-1.61746 0.53429,-3.69066 0.13059,-3.71779c-1.52644,-0.10254 -0.93378,-2.89704 -1.62292,-3.71215c-0.81008,-0.95816 1.52432,-7.37313 1.52432,-7.37313z" fill="#141414" stroke-width="2" stroke-linecap="butt"/><path d="M266.00676,134.37552c0.59391,-2.1188 2.68388,-3.38641 4.66808,-2.8313c1.98422,0.55512 3.11124,2.72275 2.51734,4.84155c-0.59391,2.1188 -2.68386,3.38641 -4.66807,2.83128c-1.98422,-0.55512 -3.11126,-2.72277 -2.51736,-4.84155z" fill="#1048db" stroke-width="2" stroke-linecap="butt"/><path d="M276.63675,139.6617c0.49024,-1.6751 2.00157,-2.73719 3.37565,-2.37226c1.37409,0.36494 2.0906,2.0187 1.60037,3.6938c-0.49024,1.67509 -2.00156,2.73717 -3.37564,2.37223c-1.37409,-0.36494 -2.0906,-2.01869 -1.60037,-3.69377z" fill="#101010" stroke-width="2" stroke-linecap="butt"/><path d="M262.53828,128.31886c0,0 7.26888,-2.68403 9.92538,-2.94368c2.62375,-0.25646 5.91665,1.39524 5.91665,1.39524" fill="none" stroke-width="2" stroke-linecap="round"/><path d="M259.13568,134.24875c0.48955,-0.71864 3.42622,-7.89366 5.01352,-9.18332c2.25861,-1.8351 4.82983,-2.92707 4.82983,-2.92707c0,0 6.32232,-2.10669 9.89192,-0.36977c3.56963,1.7369 6.78526,6.95177 6.78526,6.95177c0,0 1.52368,2.03136 2.10149,4.92587c0.22488,1.12649 -0.16499,3.7018 -0.13838,4.3672c0.08401,2.09956 -2.61807,5.99301 -2.61807,5.99301c0,0 -1.43438,-5.12755 -2.95701,-9.25805c-1.44709,-3.92564 -2.92395,-2.26102 -5.58655,-3.62515c-2.6626,-1.36413 -5.30923,-1.19504 -8.62467,-0.72335c-2.48719,0.35387 -4.92375,0.93539 -6.61812,1.61985c-1.25732,0.50788 -1.28408,-1.15355 -0.99786,-1.57373z" fill="#0b0b0b" stroke-width="2" stroke-linecap="butt"/><path d="M260.78849,185.20113l-5.91716,-0.43659" fill="none" stroke-width="2" stroke-linecap="round"/><path d="M259.268,192.10934l-6.66745,0.23055" fill="none" stroke-width="2" stroke-linecap="round"/><path d="M249.77492,198.42578l6.57555,0.04432" fill="none" stroke-width="2" stroke-linecap="round"/><path d="M253.10372,205.02701l-5.29719,0.07449" fill="none" stroke-width="2" stroke-linecap="round"/><path d="M243.95411,211.04676l7.37931,0.00567" fill="none" stroke-width="2" stroke-linecap="round"/><path d="M193.75069,196.16529l2.14396,14.44374c0,0 -7.11277,-6.83737 -9.18462,-13.43462c-2.57704,-8.2059 -1.55533,-19.50788 -1.60697,-21.60893c-0.04806,-1.9557 2.34308,-6.48101 3.83527,-7.13684c3.76331,-1.65402 8.9925,4.04436 7.81365,10.6491c-0.53468,2.99575 1.35419,2.9921 2.87759,4.53258c2.11936,2.14311 4.2191,5.21774 4.2191,5.21774c0,0 4.19031,6.3132 2.43134,5.74883c-1.00143,-0.32131 -2.68242,-0.55665 -3.84541,0.20829c-1.01309,0.66636 -1.58514,2.32864 -1.58514,2.32864c0,0 -3.02673,-4.87612 -4.408,-5.41281c-0.96541,-0.37512 -2.69078,4.46426 -2.69078,4.46426z" fill="#101010" stroke-width="2" stroke-linecap="butt"/><path d="M192.55426,164.41176c3.03725,-8.72886 30.60199,-2.87339 30.60199,-2.87339c0,0 -25.22105,11.3538 -25.20909,18.99464c0.00548,3.49568 -5.81837,1.40432 -7.54764,-3.75062c-0.4642,-1.38381 -1.86041,-3.80384 -1.54445,-5.57926c0.50511,-2.83831 3.10601,-5.08664 3.6992,-6.79138z" fill="#091f57" stroke-width="2" stroke-linecap="butt"/><path d="M204.93765,166.6056c7.09853,0.40893 9.64378,-0.5689 9.64378,-0.5689c0,0 -15.40013,6.21887 -15.38817,13.85969c0.00548,3.49568 -7.09464,2.27621 -8.82389,-2.87873c-1.20633,-3.59604 7.16307,-10.83866 14.56829,-10.41205z" fill="#090d19" stroke-width="2" stroke-linecap="butt"/><path d="M230.37488,176.57865c0,0 5.66883,-11.9989 7.13756,-15.9293c1.08337,-2.89914 0.87598,-5.51548 0.87598,-5.51548l4.33358,0.70508c0,0 2.10138,10.11472 0.98668,13.44869c-1.33645,3.99719 -6.7837,10.19735 -6.7837,10.19735z" fill="#090909" stroke-width="0" stroke-linecap="butt"/><path d="M243.79438,156.1241c0,0 1.45671,6.10817 1.42633,8.85882c-0.02966,2.6837 -0.50372,4.15071 -0.50372,4.15071" fill="none" stroke-width="2" stroke-linecap="round"/><path d="M245.1918,181.86474c0,0 -16.22726,5.32644 -21.61305,6.42697c-0.30274,0.06187 -1.16448,-1.76026 -0.91487,-2.93018c0.36454,-1.70865 1.97385,-3.05551 1.85391,-3.61706c-0.34269,-1.60456 16.93274,-7.22856 16.93274,-7.22856c0,0 3.73843,-1.57551 5.28653,-0.10711c1.0123,0.96018 1.14094,3.44724 2.99528,3.7064c2.19353,0.30657 12.77515,1.35322 15.2928,1.47698c7.5608,0.37166 7.3459,-0.71995 8.72441,-0.26254c0.06583,0.02185 2.13107,-7.20749 4.78784,-11.53068c1.57872,-2.56893 2.75837,-4.02617 3.10711,-3.89168c0.40142,0.15482 2.37428,5.69918 1.80133,9.20646c-0.32048,1.96193 -1.72356,2.86747 -1.98464,3.93613c-0.67114,2.74703 -3.64152,4.41685 -3.92705,4.75894c-1.36438,1.6346 -8.513,3.48428 -8.513,3.48428c0,0 -5.58626,0.2183 -8.95267,-0.26602c-4.33107,-0.62311 -14.87666,-3.16235 -14.87666,-3.16235z" fill="#180f05" stroke-width="2" stroke-linecap="butt"/><path d="M247.29848,177.27068c0,0 -20.25714,5.77929 -22.35771,5.8834c-5.00311,0.24795 2.53995,-4.84057 2.3547,-5.78102c-0.31422,-1.5951 16.46252,-7.38461 16.46252,-7.38461c0,0 3.6344,-1.61004 5.11645,-0.16355c0.96911,0.94585 1.06664,3.42258 2.8581,3.66088c2.11916,0.28188 12.34667,1.21105 14.78143,1.30729c7.31185,0.28904 7.11574,-0.79632 8.44464,-0.35538c0.06347,0.02106 2.1401,-7.20451 4.75763,-11.54071c1.5554,-2.57667 2.71263,-4.04135 3.04861,-3.91107c0.38673,0.14995 2.23563,5.65318 1.64327,9.154c-0.33137,1.95833 -1.69877,2.8757 -1.96299,3.94332c-0.67915,2.74437 -3.57139,4.44011 -3.85139,4.78405c-1.33787,1.6434 -8.27497,3.56326 -8.27497,3.56326c0,0 -5.40766,0.27756 -8.65978,-0.16884c-4.18402,-0.57432 -14.36052,-2.99108 -14.36052,-2.99108z" fill="#180f05" stroke-width="2" stroke-linecap="butt"/></g><path d="" fill="none" stroke="#000000" stroke-width="2" stroke-linecap="round"/><path d="M257.26712,180.66931l5.76122,1.41836" fill="none" stroke="#000000" stroke-width="2" stroke-linecap="round"/><path d="M253.76349,187.75923l6.61236,0.88585" fill="none" stroke="#000000" stroke-width="2" stroke-linecap="round"/><g data-paper-data="{&quot;index&quot;:null}" stroke="#000000" stroke-linecap="butt"><path d="M301.37291,174.88305c0,0 8.84611,-1.76258 14.13855,-0.56818c3.96547,0.8949 14.80035,7.0989 14.80035,7.0989l-1.24744,5.52763c0,0 -4.08374,2.92023 -8.14653,2.06785c-7.74678,-1.62528 -34.92086,-11.10353 -34.92086,-11.10353z" fill="#091f57" stroke-width="2.5"/><path d="M340.52252,204.73468c-2.33388,-0.32245 3.50789,-2.62848 4.37891,-5.24614c0.61243,-1.8406 6.63746,-16.74491 3.51924,-28.11107c-6.01568,-21.92736 -32.58413,-48.31159 -32.58413,-48.31159c0,0 16.80891,8.58311 19.35422,9.73122c5.44353,2.4554 14.6255,6.68504 14.6255,6.68504l3.70008,20.65744l7.6541,9.96975c0,0 -2.86044,13.17014 -2.95394,17.94892c-0.09352,4.77878 2.3742,11.67368 2.3742,11.67368c0,0 -9.23998,3.98545 -11.44441,3.86083c-1.3025,-0.07363 -6.78776,1.3955 -8.62375,1.14186z" fill="#0b0b0b" stroke-width="2.5"/><path d="M329.38194,201.74449c-1.80649,-1.84783 5.26693,0.80739 6.12177,-1.81393c0.60107,-1.84315 6.75612,-15.00959 3.96544,-26.30178c-2.12766,-8.60935 -7.28587,-26.00893 -7.28587,-26.00893l-17.21228,-25.26189l23.26397,20.35326l4.52943,17.90358c0,0 3.12334,-13.61102 3.62634,-10.71854c1.83457,10.54967 6.03944,35.3916 5.49929,38.4419c-0.24304,1.3725 -1.65398,5.98454 -4.47437,9.59099c-2.76723,3.53846 -6.93714,6.08576 -7.96512,6.03842c-1.22643,-0.05647 -2.86957,0.91286 -4.59645,0.68382c-2.19518,-0.29118 -4.46099,-1.87274 -5.4721,-2.90698z" fill="#091f57" stroke-width="2"/><path d="M228.04541,171.08442c0,0 0.55404,-2.45516 0.79464,-3.52124c0.22277,-0.98715 3.09176,-1.88927 3.09176,-1.88927c0,0 34.5819,7.2594 63.22965,13.33052c7.2851,1.54388 13.96444,1.5939 19.82823,2.84802c0.37635,0.08053 1.75468,1.80877 3.32634,3.45249c1.31155,1.37166 2.85646,2.70673 3.13672,2.76654c3.96419,0.84609 4.39592,-2.84328 6.51615,-2.3648c0.75169,0.16963 -0.20835,2.82341 -0.20835,2.82341l8.78557,0.54746l-1.3942,6.17794c0,0 -7.94353,0.87276 -14.17318,-0.53313c-2.78385,-0.62821 -12.27604,-8.30617 -12.27604,-8.30617c0,0 -6.22686,1.07663 -9.31475,0.4031c-11.01546,-2.40267 -71.34243,-15.73485 -71.34243,-15.73485z" fill="#333333" stroke-width="2"/><path d="M305.05415,190.73455c-16.21795,-5.76908 -52.77222,-12.14567 -59.7887,-14.63043c-5.30139,-1.87739 1.12179,-2.28518 1.12179,-2.28518c0,0 60.46184,13.67317 61.65127,13.64834c0.57051,-0.01191 2.50855,0.8287 2.50855,0.8287c0,0 7.36466,6.06877 11.34462,6.96698c2.46771,0.55689 6.55872,0.54065 9.43005,0.58384c1.64361,0.02472 2.30469,-6.27067 2.30469,-6.27067l-6.15659,0.12033c0,0 0.62023,-4.06047 1.94059,-7.30117c1.10363,-2.70882 3.85178,-5.23508 4.18963,-5.33544c0.44505,-0.13222 5.34193,-3.29329 6.77956,-0.19659c0.50462,1.08698 1.45114,6.20614 1.49099,10.88688c0.04004,4.7007 -0.82779,8.9607 -0.82779,8.9607l-7.64188,4.78985c0,0 -3.35407,-1.46 -7.25062,-1.85733c-4.56849,-0.46581 -9.93649,0.0862 -12.32115,-0.45192c-3.48858,-0.7873 -4.81495,-3.19423 -4.81495,-3.19423c0,0 1.84163,-3.19884 -3.96005,-5.26265z" fill="#0b0b0b" stroke-width="2"/><path d="M337.52889,147.16227c-2.06516,-0.46603 -3.36148,-2.518 -2.89543,-4.58314c0.46607,-2.06514 2.518,-3.36148 4.58314,-2.89543c2.06516,0.46603 3.36151,2.518 2.89546,4.58316c-0.46605,2.06513 -2.518,3.36148 -4.58314,2.89543z" fill="#1449cd" stroke-width="2"/><g stroke-width="0"><path d="M338.26415,146.52187c-1.91382,-0.52131 -3.05416,-2.40421 -2.54706,-4.20555c0.50714,-1.80137 2.46968,-2.839 4.38355,-2.31769c1.91385,0.52133 3.05423,2.40422 2.5471,4.20553c-0.50712,1.80135 -2.4697,2.83903 -4.38355,2.31769z" fill="#1048db"/><path d="M337.28925,150.06992c-3.91088,-1.06529 -6.24124,-4.9129 -5.20494,-8.59389c1.03629,-3.68097 5.04681,-5.80142 8.95772,-4.73612c3.9109,1.06529 6.24124,4.9129 5.20494,8.59389c-1.03629,3.68101 -5.04675,5.80146 -8.95766,4.73617z" fill="url(#color-1)"/></g><path d="M238.84766,174.84414c0,0 0.41102,-1.35139 1.43578,-2.87087c0.80449,-1.19288 4.21349,-5.50567 4.21349,-5.50567c0,0 1.55776,-0.30951 2.33677,-0.13372c0.54288,0.1225 1.89027,1.08764 1.89027,1.08764c0,0 -3.3435,2.87262 -4.37146,4.3968c-0.79408,1.17747 -1.27779,3.97975 -1.27779,3.97975c0,0 -1.83728,0.37867 -2.52774,0.22283c-0.71759,-0.16196 -1.69934,-1.17678 -1.69934,-1.17678z" fill="#180f05" stroke-width="2"/><path d="M234.65738,173.72765c0,0 0.41099,-1.3514 1.43574,-2.87088c0.80449,-1.19288 4.21349,-5.50567 4.21349,-5.50567c0,0 1.55776,-0.30951 2.33677,-0.13372c0.54288,0.1225 1.89027,1.08764 1.89027,1.08764c0,0 -3.3435,2.87262 -4.37146,4.3968c-0.79409,1.17747 -1.27779,3.97975 -1.27779,3.97975c0,0 -1.83728,0.37867 -2.52774,0.22283c-0.71759,-0.16196 -1.69934,-1.17678 -1.69934,-1.17678z" fill="#180f05" stroke-width="2"/><path d="M230.64544,173.33482c0,0 0.41099,-1.3514 1.43574,-2.87088c0.80449,-1.19288 4.21349,-5.50567 4.21349,-5.50567c0,0 1.55776,-0.30951 2.33677,-0.13372c0.54288,0.1225 1.89027,1.08764 1.89027,1.08764c0,0 -3.3435,2.87262 -4.37146,4.3968c-0.79409,1.17747 -1.27779,3.97975 -1.27779,3.97975c0,0 -1.83728,0.37867 -2.52774,0.22283c-0.71759,-0.16196 -1.69934,-1.17678 -1.69934,-1.17678z" fill="#180f05" stroke-width="2"/><path d="M345.80528,199.19492c0,0 3.83972,-8.87495 4.43502,-13.79156c0.59145,-4.88458 -0.87472,-15.61267 -0.87472,-15.61267c0,0 1.8113,-1.50078 2.949,-1.27736c1.19369,0.23443 4.05336,2.65256 4.05336,2.65256c0,0 -3.17773,12.7921 -2.74624,17.13987c0.33948,3.42067 0.75882,8.92877 0.75882,8.92877l-8.57525,1.96035z" fill="#1a1a1a" stroke-width="2"/></g><g stroke="none" stroke-linecap="butt"><path d="M344.62426,176.52756c10.53955,-5.85438 20.1997,-1.0751 23.846,10.97364c3.6463,12.04871 -1.94182,26.56203 -12.48137,32.41639c-10.53955,5.85438 -20.1997,1.07511 -23.84599,-10.97361c-3.6463,-12.04871 1.94181,-26.56204 12.48137,-32.4164z" fill="url(#color-2)" stroke-width="NaN"/><path d="M324.32226,216.30243c7.18021,9.68506 3.70297,19.88647 -7.76662,25.07453c-11.46957,5.18806 -26.58821,1.54248 -33.76841,-8.14258c-7.18021,-9.68506 -3.70298,-19.88647 7.7666,-25.07452c11.46957,-5.18806 26.58822,-1.54249 33.76842,8.14258z" fill="url(#color-3)" stroke-width="NaN"/><path d="M337.87864,207.59116c7.18021,9.68506 3.70297,19.88647 -7.76662,25.07453c-11.46957,5.18806 -26.58821,1.54248 -33.76841,-8.14258c-7.18021,-9.68506 -3.70298,-19.88647 7.7666,-25.07452c11.46957,-5.18806 26.58822,-1.54249 33.76842,8.14258z" fill="url(#color-4)" stroke-width="NaN"/><g data-paper-data="{&quot;index&quot;:null}"><path d="M353.77522,126.73824c5.17635,9.1406 -0.17945,19.72705 -11.9625,23.64548c-11.78305,3.91844 -25.53135,-0.31496 -30.7077,-9.45554c-5.17635,-9.1406 0.17945,-19.72705 11.96248,-23.64548c11.78305,-3.91844 25.53136,0.31495 30.70771,9.45554z" fill="url(#color-5)" stroke-width="NaN"/><g><path d="M357.45259,191.16387c5.60897,9.90453 0.6039,21.11028 -11.17916,25.02873c-11.78305,3.91844 -25.88206,-0.93425 -31.49103,-10.8388c-5.60897,-9.90453 -0.6039,-21.11028 11.17915,-25.02873c11.78305,-3.91844 25.88207,0.93425 31.49104,10.83879z" fill="url(#color-6)" stroke-width="NaN"/><path d="M347.13352,217.71423c5.60897,9.90453 0.6039,19.31134 -11.17916,23.22978c-11.78305,3.91844 -25.88206,-0.93425 -31.49104,-10.8388c-5.60897,-9.90453 -0.6039,-19.31133 11.17915,-23.22977c11.78305,-3.91844 25.88207,0.93424 31.49105,10.83879z" fill="url(#color-7)" stroke-width="NaN"/><path d="M353.93298,174.96772c12.69589,3.15808 20.54054,13.9647 17.52146,24.13724c-3.01907,10.17255 -15.75855,15.85889 -28.45446,12.70081c-12.69589,-3.15808 -20.54053,-13.9647 -17.52146,-24.13724c3.01907,-10.17255 15.75857,-15.8589 28.45447,-12.70081z" fill="url(#color-8)" stroke-width="NaN"/><path d="M348.40574,162.99498c12.69589,3.15808 20.54053,13.9647 17.52147,24.13725c-3.01907,10.17255 -15.75857,15.85888 -28.45448,12.7008c-12.69589,-3.15808 -20.54053,-13.9647 -17.52146,-24.13724c3.01907,-10.17255 15.75858,-15.8589 28.45447,-12.70081z" fill="url(#color-9)" stroke-width="NaN"/><path d="M344.8172,155.38127c13.04342,0.38286 23.95147,9.32238 24.36382,19.96699c0.41235,10.64461 -9.82713,18.96339 -22.87053,18.58054c-13.04342,-0.38286 -23.95148,-9.32238 -24.36383,-19.96698c-0.41235,-10.64461 9.82715,-18.96339 22.87055,-18.58054z" fill="url(#color-10)" stroke-width="NaN"/><path d="M347.83364,142.4673c13.04342,0.38286 23.95148,9.32239 24.36383,19.96698c0.41235,10.64461 -9.82715,18.96338 -22.87055,18.58053c-13.04342,-0.38286 -23.95147,-9.32239 -24.36382,-19.96697c-0.41235,-10.64461 9.82715,-18.96339 22.87055,-18.58054z" fill="url(#color-11)" stroke-width="NaN"/><path d="M350.58565,196.44602c11.07397,6.23255 14.45427,18.28727 7.55008,26.92494c-6.90418,8.63768 -21.47835,8.78845 -32.55232,2.5559c-11.07397,-6.23255 -14.45427,-16.4883 -7.55009,-25.12597c6.90418,-8.63768 21.47836,-10.58741 32.55233,-4.35487z" fill="url(#color-12)" stroke-width="NaN"/><path d="M365.72195,160.58256c11.07397,6.23255 14.45427,18.28727 7.55009,26.92493c-6.90418,8.63768 -21.47835,10.5874 -32.55234,4.35486c-11.07397,-6.23255 -14.45427,-18.28726 -7.55009,-26.92492c6.90418,-8.63768 21.47837,-10.58741 32.55234,-4.35487z" fill="url(#color-13)" stroke-width="NaN"/><path d="M317.42782,226.09264c6.92458,9.38921 3.57114,19.27901 -7.49011,24.30859c-11.06123,5.02958 -25.64162,1.49536 -32.5662,-7.89385c-6.92458,-9.38921 -3.57115,-19.27901 7.49009,-24.30858c11.06123,-5.02958 25.64164,-1.49537 32.56621,7.89385z" fill="url(#color-14)" stroke-width="NaN"/><path d="M330.51701,222.70524c6.92458,9.38921 3.57114,19.27901 -7.49011,24.30859c-11.06123,5.02958 -25.64162,1.49536 -32.56619,-7.89385c-6.92458,-9.38921 -3.57115,-19.27901 7.49009,-24.30858c11.06123,-5.02958 25.64163,-1.49537 32.5662,7.89385z" fill="url(#color-15)" stroke-width="NaN"/><path d="M296.15743,227.76334c5.60897,9.90453 0.6039,21.11029 -11.17916,25.02874c-11.78305,3.91844 -25.88205,-0.93425 -31.49103,-10.8388c-5.60897,-9.90453 -0.6039,-19.31133 11.17914,-23.22977c11.78305,-3.91844 25.88207,-0.86471 31.49105,9.03984z" fill="url(#color-16)" stroke-width="NaN"/><path d="M309.13386,226.25501c5.60897,9.90453 0.6039,19.31133 -11.17916,23.22977c-11.78305,3.91844 -25.88205,-0.93425 -31.49103,-10.83879c-5.60897,-9.90453 -0.6039,-19.31134 11.17915,-23.22977c11.78305,-3.91844 25.88207,0.93424 31.49105,10.83879z" fill="url(#color-17)" stroke-width="NaN"/><path d="M364.91927,150.40375c5.60897,9.90454 0.6039,21.11029 -11.17915,25.02875c-11.78305,3.91844 -25.88207,-0.93424 -31.49104,-10.8388c-5.60897,-9.90454 -0.60392,-21.11029 11.17914,-25.02874c11.78305,-3.91844 25.88208,0.93424 31.49106,10.8388z" fill="url(#color-18)" stroke-width="NaN"/><path d="M360.82111,135.31492c5.60897,9.90453 0.6039,21.11028 -11.17915,25.02873c-11.78305,3.91844 -25.88206,-0.93425 -31.49103,-10.83879c-5.60897,-9.90453 -0.6039,-21.11029 11.17914,-25.02873c11.78305,-3.91844 25.88207,0.93424 31.49104,10.83879z" fill="url(#color-19)" stroke-width="NaN"/></g><path d="M341.79234,117.83602c5.17635,9.1406 -0.17944,19.72704 -11.96249,23.64549c-11.78305,3.91844 -25.53134,-0.31496 -30.70769,-9.45555c-5.17635,-9.1406 0.17944,-19.72704 11.96248,-23.64548c3.59567,-1.19573 7.37436,-1.63238 11.03662,-1.40211c8.33898,0.52432 16.07434,4.50637 19.67109,10.85766z" fill="url(#color-20)" stroke-width="NaN"/><path d="M363.11197,128.40168c5.60897,9.90453 0.6039,21.11028 -11.17916,25.02873c-11.78305,3.91844 -25.88206,-0.93425 -31.49103,-10.8388c-5.60897,-9.90453 -0.6039,-21.11029 11.17915,-25.02873c11.78305,-3.91844 25.88207,0.93425 31.49104,10.83879z" fill="url(#color-21)" stroke-width="NaN"/><path d="M369.52127,138.66747c5.17635,9.1406 -0.17944,19.72704 -11.96249,23.64549c-11.78305,3.91844 -25.53135,-0.31496 -30.7077,-9.45555c-5.17635,-9.1406 0.17944,-19.72704 11.96248,-23.64548c11.78305,-3.91844 25.53136,0.31495 30.70771,9.45554z" fill="url(#color-22)" stroke-width="NaN"/></g><path d="M354.21847,209.08589c7.18021,9.68506 3.70297,19.88647 -7.76662,25.07453c-11.46957,5.18806 -26.58821,1.54248 -33.76841,-8.14258c-7.18021,-9.68506 -3.70298,-19.88647 7.7666,-25.07452c11.46957,-5.18806 26.58822,-1.54249 33.76842,8.14258z" fill="url(#color-23)" stroke-width="NaN"/></g></g></g></svg>