<svg version="1.1" xmlns="http://www.w3.org/2000/svg" xmlns:xlink="http://www.w3.org/1999/xlink" width="116.57877" height="140.32897" viewBox="0,0,116.57877,140.32897"><g transform="translate(-348.61385,-133.29122)"><g data-paper-data="{&quot;isPaintingLayer&quot;:true}" fill="#000000" fill-rule="nonzero" stroke="#0028ff" stroke-width="3" stroke-linecap="butt" stroke-linejoin="miter" stroke-miterlimit="10" stroke-dasharray="" stroke-dashoffset="0" style="mix-blend-mode: normal"><path d="M452.54053,217.88377l-1.82842,-15.69052l-10.56276,9.73784l-6.02167,-11.88268l-9.09385,10.61325l-6.95013,-9.52826c0,0 -4.03652,1.51375 -6.60277,3.32333c-2.22091,1.56606 -5.74221,8.44403 -5.74221,8.44403c0,0 -2.24707,-8.29034 -4.64305,-10.83621c-0.63613,-0.67595 -7.57922,-0.35839 -13.20446,2.40002c-5.66521,2.77801 -10.01103,7.99867 -10.13632,7.78568c-0.69714,-1.18518 -9.73139,7.89166 -8.44187,-0.07595c0.82544,-5.10012 -1.88326,-12.12145 2.37219,-20.44128c0.39145,-0.76532 0.27419,-8.6438 -2.71564,-16.15257c-3.56578,-8.95524 -10.15108,-17.70901 -10.15108,-17.70901c0,0 10.409,4.28968 17.88191,10.13392c5.01405,3.92127 8.00664,10.2217 8.26045,10.12128c0.19172,-0.07588 5.15405,-7.92881 3.2226,-16.60453c-2.49696,-11.21587 -12.07081,-23.89965 -12.07081,-23.89965c0,0 16.68634,8.57195 20.06935,20.22968c2.87204,9.89707 -0.39357,20.54705 1.11405,19.79323c4.13142,-2.06567 9.91693,-10.53414 9.91693,-10.53414c0,0 3.96999,20.33607 4.5587,19.52564c4.78012,-6.58023 15.71791,-30.2825 15.71791,-30.2825l4.4874,19.04841l9.23782,-3.12013l0.56383,10.89752l14.08865,-1.53153c0,0 6.57348,8.27441 7.82534,12.79569c1.14418,4.13234 -0.60814,13.27031 -0.60814,13.27031z"/><path d="M422.07124,186.56299c1.77587,-3.19621 5.62264,-4.48892 8.59198,-2.88731c2.96933,1.60159 3.93682,5.49099 2.16092,8.68721c-1.77587,3.19621 -5.62264,4.48892 -8.59198,2.88731c-2.96933,-1.60159 -3.93681,-5.49098 -2.16092,-8.68721z"/><path d="M455.68815,238.71252c-0.36766,4.1877 -6.0801,11.75605 -6.0801,11.75605c0,0 -4.85604,4.81337 -9.76831,6.85775c-4.4297,1.84352 -5.97843,-0.61719 -7.07201,0.36107c-0.60846,0.54427 -3.64324,8.20353 -3.64324,8.20353c0,0 -2.88238,-10.23288 -5.92336,-11.10288c-2.26591,-0.64828 -9.23657,18.71076 -19.36679,17.25382c-2.32929,0.11615 -9.88859,-9.32022 -9.88859,-9.32022c0,0 -6.24271,-0.05263 -9.90361,-0.96066c-5.14324,-1.27573 -16.93189,-5.95733 -16.93189,-5.95733c0,0 8.14696,-0.50566 13.71241,-2.8586c1.44114,-0.60928 -1.4685,-6.46899 -4.88222,-9.30414c-3.41372,-2.83513 -14.58567,-5.21942 -14.58567,-5.21942c0,0 11.17655,-4.25593 8.34638,-7.6921c-2.83019,-3.43616 -16.22644,-8.3977 -16.22644,-8.3977c0,0 8.75891,-2.44447 9.93376,-4.2895c0.30774,-0.48328 -4.58992,-5.0446 -4.75517,-5.32911c-2.52152,-4.34135 -0.14271,-10.87324 2.38864,-20.18227c1.41962,-5.22065 1.34167,-12.10167 4.30754,-12.6221c2.43107,-0.42661 3.89233,-2.14669 6.17534,1.84834c1.22286,2.13993 7.67162,5.61182 7.67162,5.61182c0,0 -5.23938,1.08407 -6.51463,2.70055c-1.03344,1.30996 -0.5651,6.27351 -0.5651,6.27351c0,0 2.21648,5.6783 5.13434,7.30541c2.91784,1.62712 7.57658,-1.30931 8.90256,0.52216c1.06207,1.46699 -0.44401,5.85425 0.1328,9.27851c0.66668,3.95778 3.45851,7.08329 5.59929,10.26046c2.69269,3.99623 6.85375,7.21288 9.84901,9.09942c4.0264,2.53601 10.82666,-6.77853 10.82666,-6.77853l5.3972,12.09769l8.99687,-11.8993l4.38063,11.99572l7.71363,-13.74093c0,0 4.76118,9.52195 5.50899,8.58616c4.91663,-6.15257 7.9548,-11.74857 7.9548,-11.74857c0,0 3.58905,12.67187 3.1747,17.3913z"/></g></g></svg>