<svg version="1.1" xmlns="http://www.w3.org/2000/svg" xmlns:xlink="http://www.w3.org/1999/xlink" width="484.7955" height="447.3662" viewBox="0,0,484.7955,447.3662"><g transform="translate(4.81108,0.65213)"><g data-paper-data="{&quot;isPaintingLayer&quot;:true}" fill-rule="nonzero" stroke-linejoin="miter" stroke-miterlimit="10" stroke-dasharray="" stroke-dashoffset="0" style="mix-blend-mode: normal"><path d="M-0.20307,445.60658l-0.16667,-205.58559h148.35021v205.58559z" data-paper-data="{&quot;index&quot;:null}" fill="#000000" stroke="none" stroke-width="0" stroke-linecap="butt"/><path d="M145.98442,446.71408v-155.10336h334v155.10336z" data-paper-data="{&quot;index&quot;:null}" fill="#000000" stroke="none" stroke-width="0" stroke-linecap="butt"/><path d="M377.3473,293.02243v-67h102.35519v67z" data-paper-data="{&quot;index&quot;:null}" fill="#000000" stroke="#000000" stroke-width="0" stroke-linecap="butt"/><path d="M-4.31108,170.06864v-169.19704h50.003v169.19704z" data-paper-data="{&quot;index&quot;:null}" fill="#000000" stroke="#000000" stroke-width="1" stroke-linecap="butt"/><path d="M478.35711,-0.65213v66.5h-433.99918v-66.5z" data-paper-data="{&quot;index&quot;:null}" fill="#000000" stroke="none" stroke-width="0" stroke-linecap="butt"/><path d="M402.51958,149.49999v-85.5015h76.1821v85.5015z" data-paper-data="{&quot;index&quot;:null}" fill="#000000" stroke="none" stroke-width="0" stroke-linecap="butt"/><path d="M146.34389,295.19822v-107.6066h238.73874v107.6066z" fill="#000000" stroke="none" stroke-width="0" stroke-linecap="butt"/><path d="M112.07289,240.78316v-62.33334" fill="none" stroke="#000000" stroke-width="10" stroke-linecap="round"/><path d="M96.37626,174.28311c0,-9.1127 7.3873,-16.5 16.5,-16.5c9.1127,0 16.5,7.3873 16.5,16.5c0,9.1127 -7.3873,16.5 -16.5,16.5c-9.1127,0 -16.5,-7.3873 -16.5,-16.5z" fill="#000000" stroke="none" stroke-width="0" stroke-linecap="butt"/><path d="M53.37625,240.78311v-31h31v31z" fill="#000000" stroke="none" stroke-width="0" stroke-linecap="butt"/><path d="M328.37626,188.28311v-31.5h31v31.5z" fill="#000000" stroke="none" stroke-width="0" stroke-linecap="butt"/><path d="M448.37625,226.78309l31,-31v31z" fill="#000000" stroke="#000000" stroke-width="0" stroke-linecap="round"/><path d="M158.70863,187.7198l1.6804,-22.45834c0,0 3.50974,-8.96141 12.07995,-8.68453c9.01176,-0.47733 12.3385,8.06889 12.3385,8.06889l1.39282,23.19898" fill="#000000" stroke="#000000" stroke-width="2" stroke-linecap="round"/></g></g></svg>