<svg version="1.1" xmlns="http://www.w3.org/2000/svg" xmlns:xlink="http://www.w3.org/1999/xlink" width="77.10701" height="14.59206" viewBox="0,0,77.10701,14.59206"><defs><linearGradient x1="208.58182" y1="285.84072" x2="208.58182" y2="275.10738" gradientUnits="userSpaceOnUse" id="color-1"><stop offset="0" stop-color="#808080"/><stop offset="1" stop-color="#3e3e3e"/></linearGradient><linearGradient x1="184.25725" y1="285.94786" x2="184.25725" y2="275.21452" gradientUnits="userSpaceOnUse" id="color-2"><stop offset="0" stop-color="#808080"/><stop offset="1" stop-color="#3e3e3e"/></linearGradient><linearGradient x1="196.10647" y1="285.84786" x2="196.10647" y2="275.11452" gradientUnits="userSpaceOnUse" id="color-3"><stop offset="0" stop-color="#808080"/><stop offset="1" stop-color="#3e3e3e"/></linearGradient><linearGradient x1="171.98183" y1="285.84072" x2="171.98183" y2="275.10738" gradientUnits="userSpaceOnUse" id="color-4"><stop offset="0" stop-color="#808080"/><stop offset="1" stop-color="#3e3e3e"/></linearGradient><linearGradient x1="147.65726" y1="285.94786" x2="147.65726" y2="275.21452" gradientUnits="userSpaceOnUse" id="color-5"><stop offset="0" stop-color="#808080"/><stop offset="1" stop-color="#3e3e3e"/></linearGradient><linearGradient x1="159.50647" y1="285.84786" x2="159.50647" y2="275.11452" gradientUnits="userSpaceOnUse" id="color-6"><stop offset="0" stop-color="#808080"/><stop offset="1" stop-color="#3e3e3e"/></linearGradient></defs><g transform="translate(-139.48007,-274.10738)"><g data-paper-data="{&quot;isPaintingLayer&quot;:true}" fill-rule="nonzero" stroke="#000000" stroke-width="2" stroke-linecap="butt" stroke-linejoin="miter" stroke-miterlimit="10" stroke-dasharray="" stroke-dashoffset="0" style="mix-blend-mode: normal"><path d="M211.80912,278.03791c-1.08039,1.97659 -3.49429,7.80281 -3.49429,7.80281c0,0 -2.30499,-6.29636 -3.27746,-8.25366c-0.54782,-1.10261 -2.05532,-2.47968 -2.05532,-2.47968h11.19955c0,0 -1.71038,1.71919 -2.37249,2.93053z" data-paper-data="{&quot;index&quot;:null}" fill="url(#color-1)"/><path d="M187.48455,278.14505c-1.08039,1.97659 -3.49429,7.80281 -3.49429,7.80281c0,0 -2.30499,-6.29636 -3.27746,-8.25366c-0.54782,-1.10261 -2.05532,-2.47968 -2.05532,-2.47968h11.19955c0,0 -1.71038,1.71919 -2.37249,2.93053z" data-paper-data="{&quot;index&quot;:null}" fill="url(#color-2)"/><path d="M199.33377,278.04505c-1.08039,1.97659 -3.49429,7.80281 -3.49429,7.80281c0,0 -2.30499,-6.29636 -3.27746,-8.25366c-0.54782,-1.10261 -2.05532,-2.47968 -2.05532,-2.47968h11.19955c0,0 -1.71038,1.71919 -2.37249,2.93053z" data-paper-data="{&quot;index&quot;:null}" fill="url(#color-3)"/><path d="M175.20912,278.03791c-1.08039,1.97659 -3.49429,7.80281 -3.49429,7.80281c0,0 -2.30499,-6.29636 -3.27746,-8.25366c-0.54782,-1.10261 -2.05532,-2.47968 -2.05532,-2.47968h11.19955c0,0 -1.71038,1.71919 -2.37249,2.93053z" data-paper-data="{&quot;index&quot;:null}" fill="url(#color-4)"/><path d="M150.88455,278.14505c-1.08039,1.97659 -3.49429,7.80281 -3.49429,7.80281c0,0 -2.30499,-6.29636 -3.27746,-8.25366c-0.54782,-1.10261 -2.05532,-2.47968 -2.05532,-2.47968h11.19955c0,0 -1.71038,1.71919 -2.37249,2.93053z" data-paper-data="{&quot;index&quot;:null}" fill="url(#color-5)"/><path d="M162.73377,278.04505c-1.08039,1.97659 -3.49429,7.80281 -3.49429,7.80281c0,0 -2.30499,-6.29636 -3.27746,-8.25366c-0.54782,-1.10261 -2.05532,-2.47968 -2.05532,-2.47968h11.19955c0,0 -1.71038,1.71919 -2.37249,2.93053z" data-paper-data="{&quot;index&quot;:null}" fill="url(#color-6)"/></g></g></svg>