<svg version="1.1" xmlns="http://www.w3.org/2000/svg" xmlns:xlink="http://www.w3.org/1999/xlink" width="14.97174" height="14.66483" viewBox="0,0,14.97174,14.66483"><defs><radialGradient cx="240.31545" cy="179.96499" r="7.09112" gradientUnits="userSpaceOnUse" id="color-1"><stop offset="0" stop-color="#006bff"/><stop offset="1" stop-color="#006bff" stop-opacity="0"/></radialGradient><radialGradient cx="242.40875" cy="177.76054" r="4.43572" gradientUnits="userSpaceOnUse" id="color-2"><stop offset="0" stop-color="#005fff"/><stop offset="1" stop-color="#005fff" stop-opacity="0"/></radialGradient><radialGradient cx="237.46454" cy="182.07561" r="4.43572" gradientUnits="userSpaceOnUse" id="color-3"><stop offset="0" stop-color="#005fff"/><stop offset="1" stop-color="#005fff" stop-opacity="0"/></radialGradient><radialGradient cx="243.05015" cy="179.88261" r="4.43572" gradientUnits="userSpaceOnUse" id="color-4"><stop offset="0" stop-color="#005fff"/><stop offset="1" stop-color="#005fff" stop-opacity="0"/></radialGradient><radialGradient cx="242.26842" cy="181.831" r="4.43572" gradientUnits="userSpaceOnUse" id="color-5"><stop offset="0" stop-color="#005fff"/><stop offset="1" stop-color="#005fff" stop-opacity="0"/></radialGradient><radialGradient cx="236.94985" cy="180.05802" r="4.43572" gradientUnits="userSpaceOnUse" id="color-6"><stop offset="0" stop-color="#005fff"/><stop offset="1" stop-color="#005fff" stop-opacity="0"/></radialGradient><radialGradient cx="239.77794" cy="177.10331" r="4.43572" gradientUnits="userSpaceOnUse" id="color-7"><stop offset="0" stop-color="#005fff"/><stop offset="1" stop-color="#005fff" stop-opacity="0"/></radialGradient><radialGradient cx="244.21119" cy="180.06259" r="2.86662" gradientUnits="userSpaceOnUse" id="color-8"><stop offset="0" stop-color="#005fff"/><stop offset="1" stop-color="#005fff" stop-opacity="0"/></radialGradient><radialGradient cx="240.09223" cy="184.41122" r="2.86662" gradientUnits="userSpaceOnUse" id="color-9"><stop offset="0" stop-color="#005fff"/><stop offset="1" stop-color="#005fff" stop-opacity="0"/></radialGradient><radialGradient cx="239.9433" cy="175.55758" r="2.86662" gradientUnits="userSpaceOnUse" id="color-10"><stop offset="0" stop-color="#005fff"/><stop offset="1" stop-color="#005fff" stop-opacity="0"/></radialGradient><radialGradient cx="242.82093" cy="176.72021" r="2.86662" gradientUnits="userSpaceOnUse" id="color-11"><stop offset="0" stop-color="#005fff"/><stop offset="1" stop-color="#005fff" stop-opacity="0"/></radialGradient><radialGradient cx="236.03007" cy="180.59417" r="2.86662" gradientUnits="userSpaceOnUse" id="color-12"><stop offset="0" stop-color="#005fff"/><stop offset="1" stop-color="#005fff" stop-opacity="0"/></radialGradient><radialGradient cx="242.74674" cy="183.28649" r="2.86662" gradientUnits="userSpaceOnUse" id="color-13"><stop offset="0" stop-color="#005fff"/><stop offset="1" stop-color="#005fff" stop-opacity="0"/></radialGradient><radialGradient cx="239.84947" cy="182.89669" r="4.43572" gradientUnits="userSpaceOnUse" id="color-14"><stop offset="0" stop-color="#006bff"/><stop offset="1" stop-color="#006bff" stop-opacity="0"/></radialGradient><radialGradient cx="236.92283" cy="183.29836" r="2.86662" gradientUnits="userSpaceOnUse" id="color-15"><stop offset="0" stop-color="#006bff"/><stop offset="1" stop-color="#006bff" stop-opacity="0"/></radialGradient><radialGradient cx="236.68858" cy="177.28572" r="2.86662" gradientUnits="userSpaceOnUse" id="color-16"><stop offset="0" stop-color="#006bff"/><stop offset="1" stop-color="#006bff" stop-opacity="0"/></radialGradient><radialGradient cx="237.40875" cy="177.66054" r="4.43572" gradientUnits="userSpaceOnUse" id="color-17"><stop offset="0" stop-color="#005fff"/><stop offset="1" stop-color="#005fff" stop-opacity="0"/></radialGradient></defs><g transform="translate(-232.51413,-172.66759)"><g data-paper-data="{&quot;isPaintingLayer&quot;:true}" fill-rule="nonzero" stroke-linejoin="miter" stroke-miterlimit="10" stroke-dasharray="" stroke-dashoffset="0" style="mix-blend-mode: normal"><g><path d="M244.48531,184.96617l-1.19885,-0.08402l0.22574,-0.65318l-0.60977,0.14478l-0.10698,-0.89422l-0.81916,0.06485l-0.68381,-0.86665l0.29161,-0.88759l-1.06581,-0.2574l0.57734,-0.55436l-0.51094,-0.20683l-1.66051,-1.14115l0.51683,-1.01398l-1.25093,-1.17358l0.33323,-0.28573l-1.1202,-0.58884l0.36668,-0.92971l-1.58468,-0.36107l0.1565,-0.56283l-0.796,-0.16751" fill="none" stroke="#004099" stroke-width="0.5" stroke-linecap="round"/><path d="M242.6423,186.09844l-1.11318,-0.4529l0.41778,-0.5505l-0.62454,-0.05216l0.17659,-0.88312l-0.79866,-0.19327l-0.38018,-1.03641l0.55333,-0.75277l-0.9328,-0.57628l0.72118,-0.34717l-0.42122,-0.35556l-1.22296,-1.60121l0.80669,-0.80281l-0.82363,-1.50457l0.4056,-0.16785l-0.88135,-0.90819l0.63779,-0.76945l-1.39364,-0.83626l0.32387,-0.48619l-0.70435,-0.40689" fill="none" stroke="#004099" stroke-width="0.5" stroke-linecap="round"/><path d="M236.70327,185.71181l0.86269,-0.65225l-0.51025,-0.85833l0.71552,0.01798l-0.31305,-0.70301l0.59217,-0.38091l-0.11329,-1.06166l0.92355,-0.14103l-0.26969,-0.71562l0.21356,-0.60723l0.79836,-0.34637l0.07231,-0.89275l0.87062,-0.14017l0.10471,-1.57188l1.10224,-0.70896l-0.82922,-0.05393l1.32513,-1.61547l0.52271,-0.01792l-0.71386,-1.01337l1.27017,-0.44743" fill="none" stroke="#004099" stroke-width="0.5" stroke-linecap="round"/><path d="M240.84188,186.57102l-0.95058,-0.73533l0.55032,-0.41801l-0.58757,-0.21804l0.40736,-0.8032l-0.71737,-0.40074l-0.08775,-1.10045l0.73523,-0.57643l-0.74367,-0.8057l0.78794,-0.14065l-0.3102,-0.45566l-0.7478,-1.87091l0.99273,-0.55656l-0.38912,-1.67054l0.43578,-0.05271l-0.60494,-1.11158l0.82106,-0.56981l-1.11773,-1.17994l0.44259,-0.3813l-0.56914,-0.58117" fill="none" stroke="#004099" stroke-width="0.5" stroke-linecap="round"/><path d="M235.22509,184.60297l1.00621,-0.39649l-0.26089,-0.96385l0.68438,0.20956l-0.11266,-0.76128l0.67274,-0.20781l0.17611,-1.05307l0.92748,0.11229l-0.06751,-0.76176l0.36885,-0.52752l0.86207,-0.11913l0.3095,-0.8405l0.87627,0.09889l0.52318,-1.48595l1.25218,-0.38675l-0.78425,-0.27473l1.71044,-1.20005l0.5083,0.12317l-0.41536,-1.1679l1.34368,-0.08973" fill="none" stroke="#004099" stroke-width="0.5" stroke-linecap="round"/><path d="M237.66438,186.1525l0.75141,-0.77785l-0.63689,-0.76906l0.70969,-0.09292l-0.41804,-0.64612l0.52612,-0.46793l-0.27617,-1.03135l0.89062,-0.2822l-0.37715,-0.66529l0.11705,-0.63296l0.73516,-0.4657l-0.06667,-0.89318l0.83846,-0.27317l-0.13971,-1.56916l0.97929,-0.87094l-0.82758,0.075l1.05928,-1.80102l0.51364,-0.09857l-0.86204,-0.89074l1.18567,-0.63853" fill="none" stroke="#004099" stroke-width="0.5" stroke-linecap="round"/><path d="M246.85829,179.21429l-0.77422,0.91917l-0.39477,-0.56722l-0.24228,0.57799l-0.78557,-0.4404l-0.43022,0.70009l-1.10314,0.04192l-0.54536,-0.75856l-0.83593,0.70953l-0.10777,-0.7931l-0.46816,0.29099l-1.90038,0.66936l-0.5148,-1.01501l-1.68528,0.31932l-0.03454,-0.43759l-1.13578,0.5582l-0.53517,-0.84404l-1.2254,1.06769l-0.36256,-0.45806l-0.60433,0.54448" fill="none" stroke="#004099" stroke-width="0.5" stroke-linecap="round"/><path d="M244.65839,184.74439l-0.35431,-1.02183l-0.97386,0.22058l0.23783,-0.67507l-0.7653,0.08092l-0.17966,-0.6808l-1.04483,-0.21974l0.15076,-0.92202l-0.76391,0.03578l-0.51173,-0.39047l-0.08319,-0.86627l-0.82691,-0.34418l0.13524,-0.87141l-1.46291,-0.58451l-0.33436,-1.26719l-0.3071,0.77215l-1.12789,-1.75886l0.1442,-0.50274l-1.18416,0.36644l-0.03378,-1.34625" fill="none" stroke="#004099" stroke-width="0.5" stroke-linecap="round"/><path d="M246.49127,177.48018l-0.51304,1.08678l-0.52686,-0.44723l-0.0862,0.62077l-0.87215,-0.22457l-0.23662,0.78691l-1.05563,0.32299l-0.72142,-0.59363l-0.62637,0.89992l-0.30725,-0.73907l-0.37804,0.40117l-1.66564,1.13366l-0.75753,-0.84935l-1.54733,0.74021l-0.14544,-0.41416l-0.95498,0.83042l-0.73345,-0.67887l-0.91115,1.34587l-0.46777,-0.34995l-0.44476,0.68107" fill="none" stroke="#004099" stroke-width="0.5" stroke-linecap="round"/><path d="M245.78076,183.38923l-0.60415,-0.89704l-0.88492,0.4626l0.05704,-0.71346l-0.71907,0.27418l-0.34799,-0.6121l-1.06626,0.05513l-0.09036,-0.92988l-0.72929,0.23019l-0.59465,-0.24641l-0.30223,-0.81609l-0.88747,-0.12097l-0.0924,-0.87698l-1.56382,-0.19043l-0.64768,-1.13932l-0.09915,0.82504l-1.54067,-1.41142l0.01066,-0.5229l-1.05085,0.65743l-0.37738,-1.29271" fill="none" stroke="#004099" stroke-width="0.5" stroke-linecap="round"/><path d="M234.1378,183.30232l0.28134,-1.1684l0.60679,0.33076l-0.04183,-0.62532l0.8996,0.04254l0.07166,-0.81859l0.96791,-0.53088l0.82705,0.43453l0.4303,-1.00848l0.45112,0.66115l0.28858,-0.46965l1.40032,-1.44866l0.91441,0.67757l1.3645,-1.03937l0.22662,0.37593l0.76617,-1.00724l0.85617,0.51554l0.61845,-1.50302l0.52915,0.24752l0.29699,-0.75727" fill="none" stroke="#004099" stroke-width="0.5" stroke-linecap="round"/><path d="M233.63196,177.37225l0.77393,0.75545l0.77236,-0.63286l0.08922,0.71016l0.64829,-0.41466l0.46519,0.52855l1.03278,-0.27078l0.27755,0.89208l0.66724,-0.37367l0.63234,0.12036l0.46186,0.73758l0.89352,-0.06201l0.26879,0.83988l1.56986,-0.13153l0.86581,0.98383l-0.07068,-0.82797l1.79546,1.06866l0.09589,0.51414l0.89523,-0.85737l0.63234,1.18898" fill="none" stroke="#004099" stroke-width="0.5" stroke-linecap="round"/><path d="M233.22433,179.96499c0,-3.91632 3.1748,-7.09112 7.09112,-7.09112c3.91632,0 7.09112,3.1748 7.09112,7.09112c0,3.91632 -3.1748,7.09112 -7.09112,7.09112c-3.91632,0 -7.09112,-3.1748 -7.09112,-7.09112z" fill="url(#color-1)" stroke="#000000" stroke-width="0" stroke-linecap="butt"/><path d="M237.97303,177.76054c0,-2.44978 1.98594,-4.43572 4.43572,-4.43572c2.44978,0 4.43572,1.98594 4.43572,4.43572c0,2.44978 -1.98594,4.43572 -4.43572,4.43572c-2.44978,0 -4.43572,-1.98594 -4.43572,-4.43572z" fill="url(#color-2)" stroke="#000000" stroke-width="0" stroke-linecap="butt"/><path d="M233.02881,182.07561c0,-2.44978 1.98594,-4.43572 4.43572,-4.43572c2.44978,0 4.43572,1.98594 4.43572,4.43572c0,2.44978 -1.98594,4.43572 -4.43572,4.43572c-2.44978,0 -4.43572,-1.98594 -4.43572,-4.43572z" fill="url(#color-3)" stroke="#000000" stroke-width="0" stroke-linecap="butt"/><path d="M238.61443,179.88261c0,-2.44978 1.98594,-4.43572 4.43572,-4.43572c2.44978,0 4.43572,1.98594 4.43572,4.43572c0,2.44978 -1.98594,4.43572 -4.43572,4.43572c-2.44978,0 -4.43572,-1.98594 -4.43572,-4.43572z" fill="url(#color-4)" stroke="#000000" stroke-width="0" stroke-linecap="butt"/><path d="M237.83269,181.831c0,-2.44978 1.98594,-4.43572 4.43572,-4.43572c2.44978,0 4.43572,1.98594 4.43572,4.43572c0,2.44978 -1.98594,4.43572 -4.43572,4.43572c-2.44978,0 -4.43572,-1.98594 -4.43572,-4.43572z" fill="url(#color-5)" stroke="#000000" stroke-width="0" stroke-linecap="butt"/><path d="M232.51413,180.05802c0,-2.44978 1.98594,-4.43572 4.43572,-4.43572c2.44978,0 4.43572,1.98594 4.43572,4.43572c0,2.44978 -1.98594,4.43572 -4.43572,4.43572c-2.44978,0 -4.43572,-1.98594 -4.43572,-4.43572z" fill="url(#color-6)" stroke="#000000" stroke-width="0" stroke-linecap="butt"/><path d="M235.34222,177.10331c0,-2.44978 1.98594,-4.43572 4.43572,-4.43572c2.44978,0 4.43572,1.98593 4.43572,4.43572c0,2.44978 -1.98594,4.43572 -4.43572,4.43572c-2.44978,0 -4.43572,-1.98594 -4.43572,-4.43572z" fill="url(#color-7)" stroke="#000000" stroke-width="0" stroke-linecap="butt"/><path d="M241.34456,180.06259c0,-1.58319 1.28343,-2.86662 2.86662,-2.86662c1.58319,0 2.86662,1.28343 2.86662,2.86662c0,1.58319 -1.28343,2.86662 -2.86662,2.86662c-1.58319,0 -2.86662,-1.28343 -2.86662,-2.86662z" fill="url(#color-8)" stroke="#000000" stroke-width="0" stroke-linecap="butt"/><path d="M237.22561,184.41122c0,-1.58319 1.28343,-2.86662 2.86662,-2.86662c1.58319,0 2.86662,1.28343 2.86662,2.86662c0,1.58319 -1.28342,2.86662 -2.86662,2.86662c-1.58319,0 -2.86662,-1.28343 -2.86662,-2.86662z" fill="url(#color-9)" stroke="#000000" stroke-width="0" stroke-linecap="butt"/><path d="M237.07668,175.55758c0,-1.58319 1.28343,-2.86662 2.86662,-2.86662c1.58319,0 2.86662,1.28343 2.86662,2.86662c0,1.58319 -1.28343,2.86662 -2.86662,2.86662c-1.58319,0 -2.86662,-1.28343 -2.86662,-2.86662z" fill="url(#color-10)" stroke="#000000" stroke-width="0" stroke-linecap="butt"/><path d="M239.95431,176.72021c0,-1.58319 1.28342,-2.86662 2.86662,-2.86662c1.58319,0 2.86662,1.28343 2.86662,2.86662c0,1.58319 -1.28343,2.86662 -2.86662,2.86662c-1.58319,0 -2.86662,-1.28343 -2.86662,-2.86662z" fill="url(#color-11)" stroke="#000000" stroke-width="0" stroke-linecap="butt"/><path d="M233.16345,180.59417c0,-1.58319 1.28343,-2.86662 2.86662,-2.86662c1.58319,0 2.86662,1.28343 2.86662,2.86662c0,1.58319 -1.28343,2.86662 -2.86662,2.86662c-1.58319,0 -2.86662,-1.28343 -2.86662,-2.86662z" fill="url(#color-12)" stroke="#000000" stroke-width="0" stroke-linecap="butt"/><path d="M239.88011,183.28649c0,-1.58319 1.28343,-2.86662 2.86662,-2.86662c1.58319,0 2.86662,1.28342 2.86662,2.86662c0,1.58319 -1.28342,2.86662 -2.86662,2.86662c-1.58319,0 -2.86662,-1.28343 -2.86662,-2.86662z" fill="url(#color-13)" stroke="#000000" stroke-width="0" stroke-linecap="butt"/><path d="M235.41374,182.89669c0,-2.44978 1.98594,-4.43572 4.43572,-4.43572c2.44978,0 4.43572,1.98594 4.43572,4.43572c0,2.44978 -1.98594,4.43572 -4.43572,4.43572c-2.44978,0 -4.43572,-1.98594 -4.43572,-4.43572z" fill="url(#color-14)" stroke="#000000" stroke-width="0" stroke-linecap="butt"/><path d="M234.05621,183.29836c0,-1.58319 1.28343,-2.86662 2.86662,-2.86662c1.58319,0 2.86662,1.28343 2.86662,2.86662c0,1.58319 -1.28343,2.86662 -2.86662,2.86662c-1.58319,0 -2.86662,-1.28342 -2.86662,-2.86662z" fill="url(#color-15)" stroke="#000000" stroke-width="0" stroke-linecap="butt"/><path d="M233.82196,177.28572c0,-1.58319 1.28343,-2.86662 2.86662,-2.86662c1.58319,0 2.86662,1.28343 2.86662,2.86662c0,1.58319 -1.28343,2.86662 -2.86662,2.86662c-1.58319,0 -2.86662,-1.28343 -2.86662,-2.86662z" fill="url(#color-16)" stroke="#000000" stroke-width="0" stroke-linecap="butt"/><path d="M232.97303,177.66054c0,-2.44978 1.98594,-4.43572 4.43572,-4.43572c2.44978,0 4.43572,1.98594 4.43572,4.43572c0,2.44978 -1.98594,4.43572 -4.43572,4.43572c-2.44978,0 -4.43572,-1.98594 -4.43572,-4.43572z" fill="url(#color-17)" stroke="#000000" stroke-width="0" stroke-linecap="butt"/></g></g></g></svg>