<svg version="1.1" xmlns="http://www.w3.org/2000/svg" xmlns:xlink="http://www.w3.org/1999/xlink" width="183.12379" height="228.46379" viewBox="0,0,183.12379,228.46379"><defs><linearGradient x1="253.85949" y1="304.71203" x2="260.38203" y2="304.71203" gradientUnits="userSpaceOnUse" id="color-1"><stop offset="0" stop-color="#101010"/><stop offset="1" stop-color="#3d3d3d"/></linearGradient><linearGradient x1="260.54652" y1="304.71203" x2="267.06907" y2="304.71203" gradientUnits="userSpaceOnUse" id="color-2"><stop offset="0" stop-color="#101010"/><stop offset="1" stop-color="#3d3d3d"/></linearGradient><linearGradient x1="266.86881" y1="304.61986" x2="273.39136" y2="304.61986" gradientUnits="userSpaceOnUse" id="color-3"><stop offset="0" stop-color="#101010"/><stop offset="1" stop-color="#3d3d3d"/></linearGradient><linearGradient x1="273.43427" y1="304.61986" x2="279.95681" y2="304.61986" gradientUnits="userSpaceOnUse" id="color-4"><stop offset="0" stop-color="#101010"/><stop offset="1" stop-color="#3d3d3d"/></linearGradient><linearGradient x1="280.48605" y1="304.60165" x2="287.0086" y2="304.60166" gradientUnits="userSpaceOnUse" id="color-5"><stop offset="0" stop-color="#101010"/><stop offset="1" stop-color="#3d3d3d"/></linearGradient><linearGradient x1="287.17309" y1="304.60166" x2="293.69563" y2="304.60165" gradientUnits="userSpaceOnUse" id="color-6"><stop offset="0" stop-color="#101010"/><stop offset="1" stop-color="#3d3d3d"/></linearGradient><linearGradient x1="293.49537" y1="304.50949" x2="300.01792" y2="304.50949" gradientUnits="userSpaceOnUse" id="color-7"><stop offset="0" stop-color="#101010"/><stop offset="1" stop-color="#3d3d3d"/></linearGradient><linearGradient x1="300.74451" y1="304.4588" x2="307.26705" y2="304.45879" gradientUnits="userSpaceOnUse" id="color-8"><stop offset="0" stop-color="#101010"/><stop offset="1" stop-color="#3d3d3d"/></linearGradient><linearGradient x1="307.06679" y1="304.36663" x2="313.58934" y2="304.36663" gradientUnits="userSpaceOnUse" id="color-9"><stop offset="0" stop-color="#101010"/><stop offset="1" stop-color="#3d3d3d"/></linearGradient><linearGradient x1="266.39531" y1="99.8554" x2="259.97025" y2="101.93153" gradientUnits="userSpaceOnUse" id="color-10"><stop offset="0" stop-color="#101010"/><stop offset="1" stop-color="#3d3d3d"/></linearGradient><linearGradient x1="259.80821" y1="101.98389" x2="253.38314" y2="104.06002" gradientUnits="userSpaceOnUse" id="color-11"><stop offset="0" stop-color="#101010"/><stop offset="1" stop-color="#3d3d3d"/></linearGradient><linearGradient x1="279.77031" y1="95.4804" x2="273.34525" y2="97.55653" gradientUnits="userSpaceOnUse" id="color-12"><stop offset="0" stop-color="#101010"/><stop offset="1" stop-color="#3d3d3d"/></linearGradient><linearGradient x1="273.18321" y1="97.60889" x2="266.75814" y2="99.68502" gradientUnits="userSpaceOnUse" id="color-13"><stop offset="0" stop-color="#101010"/><stop offset="1" stop-color="#3d3d3d"/></linearGradient><linearGradient x1="292.77031" y1="91.3554" x2="286.34525" y2="93.43153" gradientUnits="userSpaceOnUse" id="color-14"><stop offset="0" stop-color="#101010"/><stop offset="1" stop-color="#3d3d3d"/></linearGradient><linearGradient x1="286.18321" y1="93.48389" x2="279.75814" y2="95.56002" gradientUnits="userSpaceOnUse" id="color-15"><stop offset="0" stop-color="#101010"/><stop offset="1" stop-color="#3d3d3d"/></linearGradient><linearGradient x1="306.14531" y1="86.9804" x2="299.72025" y2="89.05653" gradientUnits="userSpaceOnUse" id="color-16"><stop offset="0" stop-color="#101010"/><stop offset="1" stop-color="#3d3d3d"/></linearGradient><linearGradient x1="299.55821" y1="89.10889" x2="293.13314" y2="91.18502" gradientUnits="userSpaceOnUse" id="color-17"><stop offset="0" stop-color="#101010"/><stop offset="1" stop-color="#3d3d3d"/></linearGradient><linearGradient x1="343.98606" y1="129.10165" x2="350.50861" y2="129.10166" gradientUnits="userSpaceOnUse" id="color-18"><stop offset="0" stop-color="#101010"/><stop offset="1" stop-color="#3d3d3d"/></linearGradient><linearGradient x1="350.6731" y1="129.10166" x2="357.19564" y2="129.10165" gradientUnits="userSpaceOnUse" id="color-19"><stop offset="0" stop-color="#101010"/><stop offset="1" stop-color="#3d3d3d"/></linearGradient><linearGradient x1="356.99538" y1="129.00949" x2="363.51793" y2="129.00949" gradientUnits="userSpaceOnUse" id="color-20"><stop offset="0" stop-color="#101010"/><stop offset="1" stop-color="#3d3d3d"/></linearGradient><linearGradient x1="364.24452" y1="128.9588" x2="370.76706" y2="128.95879" gradientUnits="userSpaceOnUse" id="color-21"><stop offset="0" stop-color="#101010"/><stop offset="1" stop-color="#3d3d3d"/></linearGradient><linearGradient x1="193.80754" y1="116.69652" x2="193.74249" y2="123.21874" gradientUnits="userSpaceOnUse" id="color-22"><stop offset="0" stop-color="#101010"/><stop offset="1" stop-color="#3d3d3d"/></linearGradient><linearGradient x1="193.74085" y1="123.38323" x2="193.67581" y2="129.90544" gradientUnits="userSpaceOnUse" id="color-23"><stop offset="0" stop-color="#101010"/><stop offset="1" stop-color="#3d3d3d"/></linearGradient></defs><g transform="translate(-188.49387,-81.42195)"><g data-paper-data="{&quot;isPaintingLayer&quot;:true}" fill-rule="nonzero" stroke="#000000" stroke-width="1.5" stroke-linecap="butt" stroke-linejoin="miter" stroke-miterlimit="10" stroke-dasharray="" stroke-dashoffset="0" style="mix-blend-mode: normal"><path d="M254.21128,306.58651l2.89041,-6.29824l2.9485,6.21781l0.33185,2.62966h-6.52254z" fill="url(#color-1)"/><path d="M260.89832,306.58651l2.89041,-6.29824l2.9485,6.21781l0.33185,2.62966h-6.52254z" fill="url(#color-2)"/><path d="M267.2206,306.49436l2.89041,-6.29824l2.9485,6.2178l0.33185,2.62966h-6.52254z" fill="url(#color-3)"/><path d="M273.78605,306.49435l2.89041,-6.29824l2.9485,6.21781l0.33185,2.62967h-6.52254z" fill="url(#color-4)"/><path d="M280.83784,306.47614l2.89041,-6.29824l2.9485,6.21781l0.33185,2.62966h-6.52254z" fill="url(#color-5)"/><path d="M287.52488,306.47614l2.89041,-6.29824l2.9485,6.21781l0.33185,2.62966h-6.52254z" fill="url(#color-6)"/><path d="M293.84717,306.38398l2.89041,-6.29824l2.9485,6.21781l0.33185,2.62966h-6.52254z" fill="url(#color-7)"/><path d="M301.0963,306.33328l2.89041,-6.29824l2.9485,6.21781l0.33185,2.62966h-6.52254z" fill="url(#color-8)"/><path d="M307.41859,306.24112l2.89041,-6.29824l2.9485,6.21781l0.33185,2.62966h-6.52254z" fill="url(#color-9)"/><path d="M267.93585,104.62299l-6.42507,2.07613l-0.58888,-2.93969l0.73911,-7.63962l5.04056,5.86777z" data-paper-data="{&quot;index&quot;:null}" fill="url(#color-10)"/><path d="M261.34875,106.75149l-6.42507,2.07613l-0.58888,-2.9397l0.7391,-7.63963l5.04057,5.86778z" data-paper-data="{&quot;index&quot;:null}" fill="url(#color-11)"/><path d="M281.31085,100.24799l-6.42507,2.07613l-0.58888,-2.93969l0.7391,-7.63962l5.04056,5.86777z" data-paper-data="{&quot;index&quot;:null}" fill="url(#color-12)"/><path d="M274.72374,102.37649l-6.42507,2.07613l-0.58888,-2.9397l0.7391,-7.63963l5.04057,5.86778z" data-paper-data="{&quot;index&quot;:null}" fill="url(#color-13)"/><path d="M294.31085,96.12299l-6.42507,2.07613l-0.58888,-2.93969l0.7391,-7.63962l5.04056,5.86777z" data-paper-data="{&quot;index&quot;:null}" fill="url(#color-14)"/><path d="M287.72375,98.25149l-6.42507,2.07613l-0.58888,-2.9397l0.7391,-7.63963l5.04057,5.86778z" data-paper-data="{&quot;index&quot;:null}" fill="url(#color-15)"/><path d="M307.68585,91.74799l-6.42507,2.07613l-0.58888,-2.93969l0.7391,-7.63962l5.04056,5.86777z" data-paper-data="{&quot;index&quot;:null}" fill="url(#color-16)"/><path d="M301.09875,93.87649l-6.42507,2.07613l-0.58888,-2.9397l0.7391,-7.63963l5.04057,5.86778z" data-paper-data="{&quot;index&quot;:null}" fill="url(#color-17)"/><path d="M344.33785,130.97614l2.89041,-6.29824l2.9485,6.21781l0.33185,2.62966h-6.52254z" fill="url(#color-18)"/><path d="M351.02489,130.97614l2.89041,-6.29824l2.9485,6.21781l0.33185,2.62966h-6.52254z" fill="url(#color-19)"/><path d="M357.34718,130.88398l2.89041,-6.29824l2.9485,6.21781l0.33185,2.62966h-6.52254z" fill="url(#color-20)"/><path d="M364.59631,130.83328l2.89041,-6.29824l2.9485,6.21781l0.33185,2.62966h-6.52254z" fill="url(#color-21)"/><path d="M191.92964,117.0296l6.2691,2.95308l-6.2469,2.88635l-2.63284,0.30561l0.06505,-6.52222z" fill="url(#color-22)"/><path d="M191.86295,123.71631l6.2691,2.95308l-6.2469,2.88635l-2.63284,0.30561l0.06505,-6.52222z" fill="url(#color-23)"/></g></g></svg>