<svg version="1.1" xmlns="http://www.w3.org/2000/svg" xmlns:xlink="http://www.w3.org/1999/xlink" width="109.26007" height="98.70595" viewBox="0,0,109.26007,98.70595"><defs><linearGradient x1="255.16987" y1="148.66685" x2="265.13714" y2="169.28224" gradientUnits="userSpaceOnUse" id="color-1"><stop offset="0" stop-color="#343434"/><stop offset="1" stop-color="#0c0c0c"/></linearGradient><linearGradient x1="239.82401" y1="123.89186" x2="239.57076" y2="141.16592" gradientUnits="userSpaceOnUse" id="color-2"><stop offset="0" stop-color="#343434"/><stop offset="1" stop-color="#1f1f1f"/></linearGradient><linearGradient x1="239.57599" y1="148.59694" x2="239.01379" y2="185.53635" gradientUnits="userSpaceOnUse" id="color-3"><stop offset="0" stop-color="#0f0f0f"/><stop offset="1" stop-color="#0c0c0c"/></linearGradient><linearGradient x1="233.73656" y1="153.01306" x2="210.89559" y2="154.46335" gradientUnits="userSpaceOnUse" id="color-4"><stop offset="0" stop-color="#343434"/><stop offset="1" stop-color="#0c0c0c"/></linearGradient><linearGradient x1="239.04978" y1="141.90476" x2="238.50795" y2="177.86576" gradientUnits="userSpaceOnUse" id="color-5"><stop offset="0" stop-color="#343434"/><stop offset="1" stop-color="#0c0c0c"/></linearGradient><linearGradient x1="239.05604" y1="148.02988" x2="238.77212" y2="166.68739" gradientUnits="userSpaceOnUse" id="color-6"><stop offset="0" stop-color="#1f180f"/><stop offset="1" stop-color="#0d0b07"/></linearGradient><linearGradient x1="239.23975" y1="162.7674" x2="239.15947" y2="168.04282" gradientUnits="userSpaceOnUse" id="color-7"><stop offset="0" stop-color="#1f180f"/><stop offset="1" stop-color="#0d0b07"/></linearGradient><linearGradient x1="239.61387" y1="163.68611" x2="239.53255" y2="169.02868" gradientUnits="userSpaceOnUse" id="color-8"><stop offset="0" stop-color="#0f0f0f"/><stop offset="1" stop-color="#0c0c0c"/></linearGradient><linearGradient x1="249.40784" y1="188.99576" x2="249.90709" y2="194.57457" gradientUnits="userSpaceOnUse" id="color-9"><stop offset="0" stop-color="#1f180f"/><stop offset="1" stop-color="#0d0b07"/></linearGradient><linearGradient x1="230.55156" y1="189.27932" x2="230.49539" y2="194.88491" gradientUnits="userSpaceOnUse" id="color-10"><stop offset="0" stop-color="#1f180f"/><stop offset="1" stop-color="#0d0b07"/></linearGradient><linearGradient x1="239.6383" y1="141.69401" x2="239.33458" y2="161.64918" gradientUnits="userSpaceOnUse" id="color-11"><stop offset="0" stop-color="#0f0f0f"/><stop offset="1" stop-color="#0c0c0c"/></linearGradient><linearGradient x1="184.9981" y1="119.26729" x2="175.40988" y2="128.19865" gradientUnits="userSpaceOnUse" id="color-12"><stop offset="0" stop-color="#1b1b1b"/><stop offset="1" stop-color="#343434"/></linearGradient><linearGradient x1="188.81926" y1="115.35242" x2="198.50238" y2="106.52404" gradientUnits="userSpaceOnUse" id="color-13"><stop offset="0" stop-color="#1b1b1b"/><stop offset="1" stop-color="#343434"/></linearGradient><linearGradient x1="240.44542" y1="117.54175" x2="240.08152" y2="142.13993" gradientUnits="userSpaceOnUse" id="color-14"><stop offset="0" stop-color="#343434"/><stop offset="1" stop-color="#1f1f1f"/></linearGradient><linearGradient x1="256.56639" y1="163.03817" x2="273.96977" y2="162.49293" gradientUnits="userSpaceOnUse" id="color-15"><stop offset="0" stop-color="#122639"/><stop offset="1" stop-color="#141f2b"/></linearGradient><linearGradient x1="256.655" y1="163.20215" x2="274.05839" y2="162.65691" gradientUnits="userSpaceOnUse" id="color-16"><stop offset="0" stop-color="#310b0b"/><stop offset="1" stop-color="#3a0909"/></linearGradient><linearGradient x1="265.93298" y1="160.20181" x2="266.12478" y2="166.32381" gradientUnits="userSpaceOnUse" id="color-17"><stop offset="0" stop-color="#000000"/><stop offset="1" stop-color="#0c0c0c"/></linearGradient><linearGradient x1="266.91625" y1="160.04593" x2="267.11588" y2="166.41781" gradientUnits="userSpaceOnUse" id="color-18"><stop offset="0" stop-color="#0f0f0f"/><stop offset="1" stop-color="#0c0c0c"/></linearGradient><linearGradient x1="239.43978" y1="139.98271" x2="239.37776" y2="144.05816" gradientUnits="userSpaceOnUse" id="color-19"><stop offset="0" stop-color="#0f0f0f"/><stop offset="1" stop-color="#0c0c0c"/></linearGradient></defs><g transform="translate(-166.43216,-96.92905)"><g data-paper-data="{&quot;isPaintingLayer&quot;:true}" fill-rule="nonzero" stroke-linejoin="miter" stroke-miterlimit="10" stroke-dasharray="" stroke-dashoffset="0" style="mix-blend-mode: normal"><path d="M261.80458,171.05776c0,0 -3.11735,-5.97828 -4.91991,-8.75453c-1.59019,-2.44917 -5.33837,-7.04502 -5.33837,-7.04502l0.37369,-9.52069c0,0 7.15352,6.46202 10.00566,10.21368c2.64949,3.4851 6.54408,11.55555 6.54408,11.55555c0,0 -1.34205,2.25027 -2.45761,2.84461c-1.10605,0.58928 -4.20752,0.7064 -4.20752,0.7064z" data-paper-data="{&quot;index&quot;:null}" fill="url(#color-1)" stroke="#000000" stroke-width="1.5" stroke-linecap="butt"/><path d="M249.60303,132.67676c-0.06993,4.77011 -4.56155,8.57084 -10.03228,8.48917c-5.47074,-0.08167 -9.84898,-4.01483 -9.77904,-8.78492c0.06993,-4.77011 4.56156,-8.57084 10.03229,-8.48917c5.47075,0.08168 9.84897,4.01483 9.77903,8.78492z" fill="url(#color-2)" stroke="#000000" stroke-width="1.5" stroke-linecap="butt"/><path d="M223.35681,159.75005c-1.01274,-5.24814 -3.58893,-11.43792 -3.58893,-11.43792l39.57023,3.58992c0,0 -3.75064,4.69304 -5.75499,9.67978c-1.8181,4.52334 0.86945,16.1022 0.17587,20.38541c-0.1709,1.05541 -8.39645,3.66046 -15.74085,3.55484c-7.04274,-0.10128 -15.29276,-2.31128 -15.29276,-2.31128c0,0 1.76372,-17.59311 0.63144,-23.4607z" fill="url(#color-3)" stroke="#000000" stroke-width="1.5" stroke-linecap="butt"/><path d="M213.45643,144.11471c0,0 5.93883,5.83458 9.20138,5.18719c2.87818,-0.5711 8.00291,-2.20844 8.00291,-2.20844l5.30156,5.80364c0,0 -2.58086,1.56887 -4.37948,2.71979c-2.32657,1.48874 -7.78824,1.50638 -11.37233,0.04209c-3.58409,-1.46429 -12.69162,-7.20588 -12.62316,-7.60846c0.36497,-2.1464 5.86912,-3.9358 5.86912,-3.9358z" data-paper-data="{&quot;index&quot;:null}" fill="url(#color-4)" stroke="#000000" stroke-width="1.5" stroke-linecap="butt"/><path d="M244.91689,191.28536c-0.8591,0.1485 -1.80337,-0.75776 -2.86782,-4.36792c-0.32541,-1.10369 -0.95261,-4.19695 -1.22327,-5.38555c-0.35009,-1.53747 -0.21206,-3.18182 -0.4029,-4.58829c-0.42227,-3.11199 -0.90753,-5.42498 -0.90753,-5.42498c0,0 2.72759,-1.20472 4.94071,-1.58727c2.21312,-0.38256 5.13777,-0.00819 5.13777,-0.00819c0,0 -0.26283,1.89018 -0.106,4.84776c0.07548,1.42347 0.52619,3.35644 0.6239,4.94846c0.11249,1.83311 -0.19403,2.46566 -0.03334,4.15523c0.18038,1.89649 0.82254,4.74787 0.82254,4.74787c0,0 -5.46199,2.57263 -5.98411,2.66289z" data-paper-data="{&quot;index&quot;:null}" fill="#060606" stroke="#000000" stroke-width="1.5" stroke-linecap="butt"/><path d="M225.29307,190.62888c-0.90767,-0.22908 -0.76271,-1.0867 -0.20609,-4.80927c0.17018,-1.13805 1.97015,-4.49433 2.23161,-5.68616c0.33823,-1.54162 -0.51045,-3.04966 -0.07424,-4.40521c0.96517,-2.99921 1.5146,-5.30095 1.5146,-5.30095c0,0 3.2067,0.06277 5.54492,0.6529c2.33821,0.59014 5.03834,2.16744 5.03834,2.16744c0,0 -1.09512,1.60184 -2.25202,4.34874c-0.55678,1.32207 0.22715,3.31805 -0.38259,4.8023c-0.70203,1.70899 -0.94838,2.33428 -1.53959,3.93359c-0.6636,1.79515 -2.831,4.41625 -2.831,4.41625c0,0 -6.49235,0.01957 -7.04394,-0.11964z" data-paper-data="{&quot;index&quot;:null}" fill="#060606" stroke="#000000" stroke-width="1.5" stroke-linecap="butt"/><path d="M227.96436,151.89876c-0.55875,-0.01311 -5.24411,-6.79422 -2.41542,-8.33812c4.92945,-2.69048 10.89738,-1.15138 13.28669,-1.11667c2.03104,0.0295 9.13938,-1.60319 13.62704,1.20161c1.94447,1.21529 -4.51706,8.33899 -4.57703,8.59673c-1.09157,4.69035 -0.04022,8.73944 0.29593,10.09172c0.10117,0.40703 0.37676,1.83576 0.75928,3.35794c0.33849,1.34701 1.08583,6.93755 1.08587,8.1641c0.00004,1.07984 -0.30828,3.02252 -0.30828,3.02252c0,0 -6.21732,0.99726 -11.61073,0.9792c-4.53481,-0.01519 -9.32547,-0.91682 -10.21502,-1.53214c-2.09437,-1.44872 0.85808,-10.50862 1.29787,-12.49031c0,0 0.66924,-11.89211 -1.22622,-11.93659z" fill="url(#color-5)" stroke="#000000" stroke-width="1.5" stroke-linecap="butt"/><path d="M230.09303,149.14922l3.83567,-1.19306c0,0 3.80429,5.74072 6.20068,8.41622c2.54701,2.84364 7.36712,7.08814 7.36712,7.08814l0.2197,3.35548c0,0 -7.96448,-5.30847 -10.59502,-8.20424c-2.67311,-2.94263 -7.02819,-9.46254 -7.02819,-9.46254z" fill="url(#color-6)" stroke="#000000" stroke-width="1.5" stroke-linecap="butt"/><path d="M229.76774,162.63118c0,0 6.86098,1.8063 9.52805,2.15209c2.83466,0.36753 9.84707,-0.21324 9.84707,-0.21324l0.63891,3.42894c0,0 -7.51195,0.27843 -10.41546,-0.074c-2.95051,-0.35815 -10.79271,-2.23329 -10.79271,-2.23329z" fill="url(#color-7)" stroke="#000000" stroke-width="1.5" stroke-linecap="butt"/><path d="M236.72692,165.86737c0.0989,-0.48777 0.11624,-1.21494 0.45319,-1.56038c0.64892,-0.66521 1.87747,-0.71682 2.90936,-0.54157c0.89085,0.15129 1.82667,0.52449 2.22858,1.19732c0.30539,0.51123 0.21105,1.25264 0.08613,1.86883c-0.15846,0.7815 -0.53249,1.6147 -1.23083,1.98627c-0.57692,0.30697 -1.42247,0.23614 -2.13173,0.11569c-0.81108,-0.13775 -1.69649,-0.43631 -2.1131,-1.0207c-0.38866,-0.54519 -0.34126,-1.35667 -0.2016,-2.04545z" fill="url(#color-8)" stroke="#000000" stroke-width="1.5" stroke-linecap="butt"/><path d="M252.04424,188.78648c3.59979,-0.04846 4.22027,1.74538 4.22256,3.25746c0.00231,1.51207 -2.28422,2.38559 -5.884,2.43402c-3.59979,0.04846 -7.14765,0.5943 -7.14995,-0.91774c-0.00097,-0.63197 -0.62629,-2.79109 0.6968,-3.38948c0,0 6.01932,-1.35606 8.11461,-1.38425z" data-paper-data="{&quot;index&quot;:null}" fill="url(#color-9)" stroke="#000000" stroke-width="1.5" stroke-linecap="butt"/><path d="M233.19384,189.29807c3.58428,0.2622 4.02359,2.10435 3.87609,3.61222c-0.14749,1.50786 -2.50764,2.18155 -6.0919,1.91932c-3.58428,-0.2622 -7.16619,-0.02403 -7.01872,-1.53187c0.06166,-0.63021 -0.34628,-2.83696 1.0286,-3.31947c0,0 6.11969,-0.83281 8.20596,-0.68018z" data-paper-data="{&quot;index&quot;:null}" fill="url(#color-10)" stroke="#000000" stroke-width="1.5" stroke-linecap="butt"/><path d="M219.27448,148.48523c-0.10551,-0.19724 0.38794,-3.075 2.86537,-4.86717c2.01141,-1.45505 6.83246,-2.2586 11.19275,-1.76027c2.12339,0.24267 4.4286,1.79187 5.68657,1.80466c4.57635,0.04655 7.71698,-1.67632 7.74193,-1.67369c0.3675,0.03898 6.25943,-0.72971 7.86195,0.93336c0.68824,0.71424 2.83009,2.66123 3.19196,2.98449c0.88366,0.78923 4.8238,6.70469 4.16475,8.46961c-0.68625,1.83778 -3.95892,1.09289 -4.3463,3.80792c-0.38737,2.71502 0.92594,6.19993 -0.59955,6.70392c-1.5271,0.50452 -2.12394,1.22837 -4.32981,0.63229c-1.91139,-0.51651 -4.847,-3.48892 -6.33704,-4.40697c-4.61791,-2.84524 -6.81131,-5.67189 -9.27171,-6.52692c-2.40884,-0.8371 -1.39924,0.92058 -4.48218,0.72686c-1.38957,-0.08732 -2.5026,1.19941 -3.05517,2.32064c-0.67338,1.36637 -4.03339,0.81154 -5.39446,0.33744c0,0 0.81959,-3.99121 -0.63939,-5.89228c-1.37264,-1.78859 -4.24974,-3.59388 -4.24974,-3.59388z" data-paper-data="{&quot;index&quot;:null}" fill="url(#color-11)" stroke="#000000" stroke-width="1.5" stroke-linecap="butt"/><g stroke="#000000"><g data-paper-data="{&quot;index&quot;:null}" stroke-linecap="round"><path d="M184.45922,134.91231l-2.42874,2.04813l-1.44701,-3.20255l-3.36526,1.47404l-1.11958,-2.78919l-3.58874,0.04478l-0.36887,-3.63777l-3.30579,-0.28117l1.13048,-3.32214l-2.88024,-1.21606l2.38924,-2.06203l-2.5974,-1.71517l3.68574,-2.57015" data-paper-data="{&quot;index&quot;:null}" fill="#000000" stroke-width="0.5"/><path d="M185.30705,134.2995c0,0 -7.56131,0.29164 -11.31571,-3.93212c-6.01709,-6.7693 -2.94825,-13.15583 -2.94825,-13.15583l11.65671,-1.21906l9.79908,9.73345z" data-paper-data="{&quot;index&quot;:null}" fill="#000000" stroke-width="0.5"/><path d="M174.18718,128.78904l3.70538,-3.00432" data-paper-data="{&quot;index&quot;:null}" fill="#000000" stroke-width="0.5"/><path d="M179.88632,129.78819l-2.5477,2.31134" data-paper-data="{&quot;index&quot;:null}" fill="#000000" stroke-width="0.5"/><path d="M183.90022,132.06187l-1.90473,1.60628l-1.13485,-2.51165l-2.63923,1.15607l-0.87806,-2.18742l-2.81449,0.03512l-0.28928,-2.85297l-2.59257,-0.2205l0.88656,-2.6054l-2.25884,-0.9537l1.87376,-1.61718l-2.03703,-1.34512l2.89058,-2.01566" data-paper-data="{&quot;index&quot;:null}" fill="#343434" stroke-width="0"/><path d="M184.56511,131.58139c0,0 -5.92996,0.22874 -8.87435,-3.0838c-4.71889,-5.3089 -2.31221,-10.31751 -2.31221,-10.31751l9.14183,-0.95606l7.68498,7.63348z" data-paper-data="{&quot;index&quot;:null}" fill="url(#color-12)" stroke-width="0"/><path d="M178.31588,129.85596l1.99805,-1.81265" data-paper-data="{&quot;index&quot;:null}" fill="#585858" stroke-width="0"/></g><g data-paper-data="{&quot;index&quot;:null}"><g data-paper-data="{&quot;index&quot;:null}" fill="#000000" stroke-width="0.5"><g data-paper-data="{&quot;index&quot;:null}"><path d="M188.41674,100.83627l2.86199,-3.46401l1.49777,2.72856l2.24991,-2.21324l0.97727,2.96976l3.40322,-0.85596l0.01081,3.31772l3.5956,0.66413l-0.33711,3.57316l2.68867,1.34317l-1.7434,3.23392l3.07396,1.70322l-2.23926,2.25372" stroke-linecap="round"/><g data-paper-data="{&quot;index&quot;:null}"><path d="M183.07857,109.73154l36.90221,40.97158l-2.35316,4.67099l-37.05635,-41.88839c0,0 -0.48233,-2.78936 -0.07162,-3.42423c0.35222,-0.54446 2.19612,0.01895 2.19612,0.01895z" stroke-linecap="butt"/><path d="M194.64509,123.35464l-8.90242,-10.55977l2.16504,-11.51859c0,0 6.61539,-2.53809 12.87177,4.01065c3.90374,4.08616 2.99679,11.59853 2.99679,11.59853z" stroke-linecap="round"/></g></g><path d="M195.89414,108.8017l3.29631,-3.4482" stroke-linecap="round"/><path d="M199.72179,111.11515l2.5113,-2.35086" stroke-linecap="round"/><path d="M193.12711,105.20365l2.45405,-2.55367" stroke-linecap="round"/></g><path d="M189.08183,103.33781l2.24453,-2.7167l1.17462,2.13989l1.76453,-1.73573l0.76643,2.32904l2.66897,-0.67129l0.00845,2.60192l2.8199,0.52085l-0.26438,2.80226l2.10859,1.05341l-1.36732,2.53623l2.41081,1.33577l-1.75617,1.76749" fill="#343434" stroke-width="0" stroke-linecap="round"/><path d="M193.96648,120.99799l-6.98175,-8.28154l1.69795,-9.03352c0,0 5.18811,-1.99047 10.09473,3.14539c3.06155,3.20457 2.35026,9.09617 2.35026,9.09617z" fill="url(#color-13)" stroke-width="0" stroke-linecap="round"/><path d="M197.53115,106.88048l-2.58516,2.70427" fill="#343434" stroke-width="0" stroke-linecap="round"/><path d="M197.94787,111.3991l1.96946,-1.84367" fill="#585858" stroke-width="0" stroke-linecap="round"/><path d="M194.70053,104.76024l-1.92459,2.00271" fill="#343434" stroke-width="0" stroke-linecap="round"/><path d="M183.0053,110.76633l35.62897,40.12478l-1.32735,2.81527l-35.9797,-40.4437c0,0 -0.53067,-2.09694 -0.28031,-2.48396z" fill="#1f180f" stroke-width="0.5" stroke-linecap="butt"/></g></g><path d="M243.3372,134.27994c0.12908,-1.08313 1.19873,-1.84621 2.38912,-1.70437c1.19038,0.14185 2.05076,1.13492 1.92168,2.21806c-0.12908,1.08313 -1.19871,1.84623 -2.3891,1.70438c-1.19038,-0.14185 -2.05078,-1.13493 -1.9217,-2.21807z" fill="#000000" stroke="#000000" stroke-width="0" stroke-linecap="butt"/><path d="M235.44561,134.68153c0.01652,-1.11606 1.02423,-2.0061 2.2508,-1.98795c1.22656,0.01814 2.2075,0.93762 2.19098,2.05368c-0.01652,1.11606 -1.02424,2.00611 -2.25078,1.98796c-1.22656,-0.01814 -2.20752,-0.93762 -2.191,-2.05368z" fill="#000000" stroke="#000000" stroke-width="0" stroke-linecap="butt"/><g data-paper-data="{&quot;index&quot;:null}" stroke-width="0.875"><path d="M227.69025,129.65479c0.10049,-6.79259 5.81118,-12.2158 12.75514,-12.11308c6.94399,0.10273 12.70177,5.69559 12.60129,12.48821c0,0 -2.65907,2.97094 -8.10631,3.58458c-7.04674,0.79383 -17.29418,-0.98382 -17.25016,-3.9597z" fill="url(#color-14)" stroke="#000000" stroke-linecap="butt"/><path d="M252.93333,129.71839c0.1002,0.46624 -0.5599,2.04038 -0.5599,2.04038c0,0 -2.75055,2.54551 -12.03754,2.30953c-9.9039,-0.25167 -12.56324,-3.61015 -12.56324,-3.61015c0,0 -0.39606,-1.07825 -0.28461,-1.45963c0.13054,-0.44663 0.4228,-1.29838 0.4228,-1.29838c0,0 7.84843,3.02676 12.7868,3.07663c4.93837,0.04988 12.04154,-2.5268 12.04154,-2.5268c0,0 0.09811,1.02138 0.19416,1.46842z" fill="#0e0e0e" stroke="#000000" stroke-linecap="round"/><path d="M232.23622,119.96532c0,0 1.43277,-0.88339 2.05069,-1.21536c0.63077,-0.33889 1.60004,-0.62869 1.60004,-0.62869c0,0 5.37169,1.31707 7.72935,3.51129c2.35769,2.19422 4.51954,7.73008 4.51954,7.73008c0,0 -1.54634,0.49196 -2.06728,0.63679c-0.66642,0.18527 -1.94552,0.3204 -1.94552,0.3204c0,0 -1.19733,-4.96304 -3.66764,-7.1478c-2.47029,-2.18473 -8.21919,-3.2067 -8.21919,-3.2067z" fill="#0e0e0e" stroke="#000000" stroke-linecap="round"/><path d="M232.19656,124.38732c-0.91743,0.53821 -2.60442,0.25617 -2.60442,0.25617c0,0 -1.7439,-3.86198 -2.17864,-5.90793c-0.42948,-2.02116 -0.41422,-6.29442 -0.41422,-6.29442c0,0 2.2247,4.38535 3.38523,6.08363c1.06221,1.55439 3.30904,3.71261 3.30904,3.71261c0,0 -0.57956,1.61169 -1.49698,2.14992z" fill="#0e0e0e" stroke="#000000" stroke-linecap="butt"/><path d="M245.13346,118.9175c0,0 1.36478,-0.9487 1.79716,-2.43317c0.47239,-1.62188 1.03745,-5.63292 1.03745,-5.63292c0,0 1.30102,3.40775 1.54599,5.11971c0.24797,1.73294 -0.06702,5.21592 -0.06702,5.21592c0,0 -1.47917,0.37596 -2.41952,0.15676c-0.94035,-0.21922 -1.89405,-2.42626 -1.89405,-2.42626z" data-paper-data="{&quot;index&quot;:null}" fill="#0e0e0e" stroke="#000000" stroke-linecap="butt"/><path d="M246.30551,131.6944c0.00765,-0.5172 0.47461,-0.92964 1.04303,-0.92123c0.5684,0.0084 1.02298,0.43449 1.01533,0.95168c-0.00765,0.5172 -0.4746,0.92965 -1.04303,0.92124c-0.5684,-0.0084 -1.02298,-0.43448 -1.01532,-0.95169z" fill="#000000" stroke="none" stroke-linecap="butt"/><path d="M249.53537,130.68301c0.00765,-0.5172 0.4746,-0.92965 1.04302,-0.92124c0.5684,0.0084 1.02298,0.4345 1.01533,0.95169c-0.00765,0.51719 -0.47461,0.92964 -1.04304,0.92122c-0.5684,-0.0084 -1.02297,-0.43448 -1.01532,-0.95168z" fill="#000000" stroke="none" stroke-linecap="butt"/><path d="M243.20847,132.28985c0.00765,-0.5172 0.47461,-0.92964 1.04303,-0.92123c0.5684,0.0084 1.02298,0.43448 1.01533,0.95168c-0.00765,0.5172 -0.47461,0.92965 -1.04303,0.92124c-0.5684,-0.0084 -1.02298,-0.43449 -1.01532,-0.95169z" fill="#000000" stroke="none" stroke-linecap="butt"/><path d="M239.56246,132.52411c0.00765,-0.5172 0.47461,-0.92965 1.04303,-0.92124c0.5684,0.0084 1.02299,0.43448 1.01533,0.95169c-0.00765,0.5172 -0.47461,0.92965 -1.04304,0.92123c-0.5684,-0.0084 -1.02298,-0.43448 -1.01532,-0.95169z" fill="#000000" stroke="none" stroke-linecap="butt"/><path d="M235.98042,132.18293c0.00765,-0.5172 0.47461,-0.92964 1.04304,-0.92122c0.5684,0.0084 1.02298,0.43448 1.01533,0.95168c-0.00765,0.5172 -0.47461,0.92965 -1.04303,0.92124c-0.5684,-0.0084 -1.02299,-0.43449 -1.01533,-0.95169z" fill="#000000" stroke="none" stroke-linecap="butt"/><path d="M232.24022,131.29177c0.00765,-0.5172 0.4746,-0.92964 1.04302,-0.92123c0.5684,0.0084 1.02299,0.43448 1.01534,0.95168c-0.00765,0.5172 -0.47461,0.92965 -1.04304,0.92123c-0.5684,-0.0084 -1.02297,-0.43447 -1.01531,-0.95169z" fill="#000000" stroke="none" stroke-linecap="butt"/><path d="M228.98772,130.08362c0.00765,-0.5172 0.47461,-0.92964 1.04303,-0.92123c0.5684,0.0084 1.02298,0.43449 1.01533,0.95168c-0.00765,0.5172 -0.4746,0.92965 -1.04303,0.92124c-0.5684,-0.0084 -1.02298,-0.43449 -1.01532,-0.95169z" fill="#000000" stroke="none" stroke-linecap="butt"/><path d="M244.60844,127.98385c0.00765,-0.5172 0.47461,-0.92964 1.04303,-0.92123c0.5684,0.0084 1.02298,0.43449 1.01533,0.95168c-0.00765,0.5172 -0.4746,0.92965 -1.04303,0.92124c-0.5684,-0.0084 -1.02298,-0.43449 -1.01532,-0.95169z" fill="#000000" stroke="none" stroke-linecap="butt"/><path d="M242.96416,124.9838c0.00765,-0.5172 0.4746,-0.92965 1.04303,-0.92124c0.5684,0.0084 1.02297,0.4345 1.01532,0.95169c-0.00765,0.5172 -0.47462,0.92964 -1.04303,0.92123c-0.5684,-0.0084 -1.02298,-0.43449 -1.01533,-0.95168z" fill="#000000" stroke="none" stroke-linecap="butt"/><path d="M240.70739,122.03954c0.00765,-0.5172 0.4746,-0.92964 1.04303,-0.92123c0.5684,0.0084 1.02298,0.43449 1.01533,0.95168c-0.00765,0.5172 -0.47461,0.92965 -1.04303,0.92124c-0.5684,-0.0084 -1.02298,-0.43449 -1.01532,-0.95169z" fill="#000000" stroke="none" stroke-linecap="butt"/><path d="M236.57549,120.06006c0.00765,-0.5172 0.47462,-0.92965 1.04303,-0.92124c0.5684,0.0084 1.02299,0.43449 1.01533,0.95169c-0.00765,0.5172 -0.47461,0.92965 -1.04304,0.92123c-0.5684,-0.0084 -1.02297,-0.4345 -1.01532,-0.95169z" fill="#000000" stroke="none" stroke-linecap="butt"/></g><path d="M260.36457,167.22177c0.12557,-1.98613 2.04428,-3.48133 4.28559,-3.33963c2.2413,0.1417 3.95644,1.86664 3.83087,3.85277c-0.12557,1.98613 -2.04429,3.48133 -4.28558,3.33964c-2.2413,-0.1417 -3.95645,-1.86664 -3.83088,-3.85277z" fill="#000000" stroke="#000000" stroke-width="1.5" stroke-linecap="butt"/><g stroke="#000000" stroke-width="1.5"><g fill="#000000" stroke-linecap="round"><path d="M255.00466,163.04542l18.06819,-0.56607c0,0 0.75584,7.65101 -1.54587,12.35093c-2.52727,5.16054 -7.03232,5.25965 -7.03232,5.25965l-1.09079,-34.81626c0,0 -3.55109,0.73139 -6.30217,5.46037c-2.67255,4.594 -2.09706,12.31137 -2.09706,12.31137z"/><path d="M270.33443,150.48621c-3.04171,-4.54749 -6.63162,-5.05514 -6.63162,-5.05514l1.09078,34.81625c0,0 -4.50241,0.18308 -7.34777,-4.80913c-2.59139,-4.54662 -2.31598,-12.22994 -2.31598,-12.22994l18.06819,-0.56607c0,0 0.09129,-7.73826 -2.86361,-12.15596z" data-paper-data="{&quot;index&quot;:null}"/></g><g stroke-linecap="round"><path d="M256.58074,163.1211l17.34811,-0.54351c0,0 0.7353,7.65166 -1.4689,12.34852c-2.42021,5.15719 -6.74577,5.25067 -6.74577,5.25067l-1.09078,-34.81625c0,0 -3.40879,0.72692 -6.04444,5.45228c-2.56042,4.59049 -1.99821,12.30828 -1.99821,12.30828z" fill="url(#color-15)"/><path d="M268.87782,166.57104l-1.52462,3.29936" fill="none"/><path d="M263.21114,156.24343l-1.36825,2.96097" fill="none"/><path d="M271.29132,166.32869l-3.71381,8.0369" fill="none"/><path d="M259.27556,158.53446l3.04922,-6.59872" fill="none"/><path d="M271.28449,150.58149c-2.92628,-4.55111 -6.37389,-5.06322 -6.37389,-5.06322l1.09078,34.81625c0,0 -4.32292,0.17746 -7.06122,-4.81811c-2.49389,-4.54968 -2.23902,-12.23236 -2.23902,-12.23236l17.34811,-0.54351c0,0 0.07799,-7.73785 -2.76477,-12.15906z" data-paper-data="{&quot;index&quot;:null}" fill="url(#color-16)"/><path d="M261.91407,167.12271l1.72816,3.19745" data-paper-data="{&quot;index&quot;:null}" fill="none"/><path d="M266.92314,156.46064l1.55092,2.86951" data-paper-data="{&quot;index&quot;:null}" fill="none"/><path d="M263.69974,174.82058l-4.20962,-7.78866" data-paper-data="{&quot;index&quot;:null}" fill="none"/><path d="M270.9944,158.5008l-3.45631,-6.3949" data-paper-data="{&quot;index&quot;:null}" fill="none"/></g><path d="M267.96446,163.20217c0.05296,1.69054 -0.77068,3.08815 -1.83968,3.12164c-1.069,0.03349 -1.97852,-1.30982 -2.03148,-3.00036c-0.05296,-1.69054 0.77068,-3.08815 1.83968,-3.12164c1.069,-0.03349 1.97852,1.30982 2.03148,3.00036z" fill="url(#color-17)" stroke-linecap="butt"/><path d="M265.42096,163.28185c-0.05513,-1.75955 0.61433,-3.20831 1.49529,-3.23591c0.88095,-0.0276 1.6398,1.37642 1.69492,3.13596c0.05513,1.75955 -0.61433,3.20831 -1.49529,3.23591c-0.88095,0.0276 -1.6398,-1.37642 -1.69492,-3.13596z" fill="url(#color-18)" stroke-linecap="butt"/></g><path d="M205.77014,144.17529c0.14488,-2.29152 2.35864,-4.01663 4.94455,-3.85314c2.58593,0.16349 4.5648,2.15366 4.41993,4.44518c-0.14488,2.29152 -2.35861,4.01663 -4.94455,3.85314c-2.58593,-0.16349 -4.5648,-2.15366 -4.41993,-4.44518z" fill="#000000" stroke="#000000" stroke-width="1.5" stroke-linecap="butt"/><path d="M233.1112,142.97985l0.04512,-2.96397c0,0 3.82113,1.27345 5.79102,1.2824c2.19424,0.00999 6.77408,-1.22525 6.77408,-1.22525l-0.04699,3.08745c0,0 -3.901,0.9321 -5.89457,0.90343c-2.17787,-0.03132 -6.66869,-1.08409 -6.66869,-1.08409z" fill="url(#color-19)" stroke="#000000" stroke-width="1" stroke-linecap="butt"/></g></g></svg>