<svg version="1.1" xmlns="http://www.w3.org/2000/svg" xmlns:xlink="http://www.w3.org/1999/xlink" width="630.23587" height="365.15006" viewBox="0,0,630.23587,365.15006"><defs><linearGradient x1="403.93535" y1="178.51939" x2="460.43535" y2="178.51939" gradientUnits="userSpaceOnUse" id="color-1"><stop offset="0" stop-color="#000000" stop-opacity="0"/><stop offset="1" stop-color="#000000"/></linearGradient><radialGradient cx="97.6941" cy="211.74126" r="17.77966" gradientUnits="userSpaceOnUse" id="color-2"><stop offset="0" stop-color="#182315"/><stop offset="1" stop-color="#182315" stop-opacity="0"/></radialGradient><radialGradient cx="100.06653" cy="202.28354" r="17.76809" gradientUnits="userSpaceOnUse" id="color-3"><stop offset="0" stop-color="#182315"/><stop offset="1" stop-color="#182315" stop-opacity="0"/></radialGradient><radialGradient cx="91.09437" cy="203.7388" r="18.47851" gradientUnits="userSpaceOnUse" id="color-4"><stop offset="0" stop-color="#182315"/><stop offset="1" stop-color="#182315" stop-opacity="0"/></radialGradient><radialGradient cx="78.6406" cy="214.61316" r="18.47853" gradientUnits="userSpaceOnUse" id="color-5"><stop offset="0" stop-color="#182315"/><stop offset="1" stop-color="#182315" stop-opacity="0"/></radialGradient><radialGradient cx="77.55657" cy="199.87021" r="18.47851" gradientUnits="userSpaceOnUse" id="color-6"><stop offset="0" stop-color="#182315"/><stop offset="1" stop-color="#182315" stop-opacity="0"/></radialGradient><radialGradient cx="93.81721" cy="196.83492" r="18.47851" gradientUnits="userSpaceOnUse" id="color-7"><stop offset="0" stop-color="#182315"/><stop offset="1" stop-color="#182315" stop-opacity="0"/></radialGradient><radialGradient cx="85.22571" cy="196.96817" r="18.47851" gradientUnits="userSpaceOnUse" id="color-8"><stop offset="0" stop-color="#182315"/><stop offset="1" stop-color="#182315" stop-opacity="0"/></radialGradient><radialGradient cx="90.42906" cy="214.96326" r="18.47851" gradientUnits="userSpaceOnUse" id="color-9"><stop offset="0" stop-color="#182315"/><stop offset="1" stop-color="#182315" stop-opacity="0"/></radialGradient><radialGradient cx="76.11969" cy="203.6892" r="18.47851" gradientUnits="userSpaceOnUse" id="color-10"><stop offset="0" stop-color="#182315"/><stop offset="1" stop-color="#182315" stop-opacity="0"/></radialGradient><radialGradient cx="254.4829" cy="87.85499" r="16.59534" gradientUnits="userSpaceOnUse" id="color-11"><stop offset="0" stop-color="#182315"/><stop offset="1" stop-color="#182315" stop-opacity="0"/></radialGradient><radialGradient cx="252.26849" cy="79.0272" r="16.58454" gradientUnits="userSpaceOnUse" id="color-12"><stop offset="0" stop-color="#182315"/><stop offset="1" stop-color="#182315" stop-opacity="0"/></radialGradient><radialGradient cx="260.64288" cy="80.38558" r="17.24765" gradientUnits="userSpaceOnUse" id="color-13"><stop offset="0" stop-color="#182315"/><stop offset="1" stop-color="#182315" stop-opacity="0"/></radialGradient><radialGradient cx="272.26716" cy="90.53564" r="17.24765" gradientUnits="userSpaceOnUse" id="color-14"><stop offset="0" stop-color="#182315"/><stop offset="1" stop-color="#182315" stop-opacity="0"/></radialGradient><radialGradient cx="273.27898" cy="76.7747" r="17.24765" gradientUnits="userSpaceOnUse" id="color-15"><stop offset="0" stop-color="#182315"/><stop offset="1" stop-color="#182315" stop-opacity="0"/></radialGradient><radialGradient cx="258.1015" cy="73.94159" r="17.24764" gradientUnits="userSpaceOnUse" id="color-16"><stop offset="0" stop-color="#182315"/><stop offset="1" stop-color="#182315" stop-opacity="0"/></radialGradient><radialGradient cx="266.12068" cy="74.06593" r="17.24765" gradientUnits="userSpaceOnUse" id="color-17"><stop offset="0" stop-color="#182315"/><stop offset="1" stop-color="#182315" stop-opacity="0"/></radialGradient><radialGradient cx="261.26392" cy="90.86239" r="17.24764" gradientUnits="userSpaceOnUse" id="color-18"><stop offset="0" stop-color="#182315"/><stop offset="1" stop-color="#182315" stop-opacity="0"/></radialGradient><radialGradient cx="274.62012" cy="80.33931" r="17.24765" gradientUnits="userSpaceOnUse" id="color-19"><stop offset="0" stop-color="#182315"/><stop offset="1" stop-color="#182315" stop-opacity="0"/></radialGradient><radialGradient cx="133.76594" cy="87.45927" r="16.97474" gradientUnits="userSpaceOnUse" id="color-20"><stop offset="0" stop-color="#182315"/><stop offset="1" stop-color="#182315" stop-opacity="0"/></radialGradient><radialGradient cx="131.5009" cy="78.42969" r="16.9637" gradientUnits="userSpaceOnUse" id="color-21"><stop offset="0" stop-color="#182315"/><stop offset="1" stop-color="#182315" stop-opacity="0"/></radialGradient><radialGradient cx="140.06689" cy="79.81906" r="17.64196" gradientUnits="userSpaceOnUse" id="color-22"><stop offset="0" stop-color="#182315"/><stop offset="1" stop-color="#182315" stop-opacity="0"/></radialGradient><radialGradient cx="151.95684" cy="90.20119" r="17.64197" gradientUnits="userSpaceOnUse" id="color-23"><stop offset="0" stop-color="#182315"/><stop offset="1" stop-color="#182315" stop-opacity="0"/></radialGradient><radialGradient cx="152.99176" cy="76.12564" r="17.64196" gradientUnits="userSpaceOnUse" id="color-24"><stop offset="0" stop-color="#182315"/><stop offset="1" stop-color="#182315" stop-opacity="0"/></radialGradient><radialGradient cx="137.46737" cy="73.22777" r="17.64196" gradientUnits="userSpaceOnUse" id="color-25"><stop offset="0" stop-color="#182315"/><stop offset="1" stop-color="#182315" stop-opacity="0"/></radialGradient><radialGradient cx="145.66987" cy="73.35498" r="17.64196" gradientUnits="userSpaceOnUse" id="color-26"><stop offset="0" stop-color="#182315"/><stop offset="1" stop-color="#182315" stop-opacity="0"/></radialGradient><radialGradient cx="140.70214" cy="90.53542" r="17.64196" gradientUnits="userSpaceOnUse" id="color-27"><stop offset="0" stop-color="#182315"/><stop offset="1" stop-color="#182315" stop-opacity="0"/></radialGradient><radialGradient cx="154.36363" cy="79.77175" r="17.64196" gradientUnits="userSpaceOnUse" id="color-28"><stop offset="0" stop-color="#182315"/><stop offset="1" stop-color="#182315" stop-opacity="0"/></radialGradient><linearGradient x1="186.25982" y1="28.86015" x2="186.25982" y2="16.19346" gradientUnits="userSpaceOnUse" id="color-29"><stop offset="0" stop-color="#182315"/><stop offset="1" stop-color="#182315" stop-opacity="0"/></linearGradient><linearGradient x1="160.44153" y1="187.73898" x2="160.44153" y2="200.40563" gradientUnits="userSpaceOnUse" id="color-30"><stop offset="0" stop-color="#182315"/><stop offset="1" stop-color="#182315" stop-opacity="0"/></linearGradient><linearGradient x1="320.45824" y1="178.68897" x2="320.45824" y2="191.93897" gradientUnits="userSpaceOnUse" id="color-31"><stop offset="0" stop-color="#182315"/><stop offset="1" stop-color="#182315" stop-opacity="0"/></linearGradient><linearGradient x1="285.82491" y1="265.88883" x2="285.82491" y2="278.55557" gradientUnits="userSpaceOnUse" id="color-32"><stop offset="0" stop-color="#182315"/><stop offset="1" stop-color="#182315" stop-opacity="0"/></linearGradient><linearGradient x1="59.05415" y1="264.13883" x2="59.05415" y2="276.80557" gradientUnits="userSpaceOnUse" id="color-33"><stop offset="0" stop-color="#182315"/><stop offset="1" stop-color="#182315" stop-opacity="0"/></linearGradient><linearGradient x1="332.11967" y1="332.63822" x2="332.11967" y2="345.30496" gradientUnits="userSpaceOnUse" id="color-34"><stop offset="0" stop-color="#182315"/><stop offset="1" stop-color="#182315" stop-opacity="0"/></linearGradient><linearGradient x1="227.7417" y1="138.55552" x2="227.7417" y2="151.22224" gradientUnits="userSpaceOnUse" id="color-35"><stop offset="0" stop-color="#182315"/><stop offset="1" stop-color="#182315" stop-opacity="0"/></linearGradient><linearGradient x1="328.736" y1="97.60563" x2="328.736" y2="84.93896" gradientUnits="userSpaceOnUse" id="color-36"><stop offset="0" stop-color="#182315"/><stop offset="1" stop-color="#182315" stop-opacity="0"/></linearGradient><linearGradient x1="201.37883" y1="106.27437" x2="201.21191" y2="128.78098" gradientUnits="userSpaceOnUse" id="color-37"><stop offset="0" stop-color="#a75522"/><stop offset="1" stop-color="#3f1f10"/></linearGradient><radialGradient cx="287.73393" cy="61.60457" r="16.27777" gradientUnits="userSpaceOnUse" id="color-38"><stop offset="0" stop-color="#000000"/><stop offset="1" stop-color="#000000" stop-opacity="0"/></radialGradient><radialGradient cx="85.73398" cy="94.60459" r="16.27777" gradientUnits="userSpaceOnUse" id="color-39"><stop offset="0" stop-color="#000000"/><stop offset="1" stop-color="#000000" stop-opacity="0"/></radialGradient><radialGradient cx="30.73398" cy="232.60456" r="16.27777" gradientUnits="userSpaceOnUse" id="color-40"><stop offset="0" stop-color="#000000"/><stop offset="1" stop-color="#000000" stop-opacity="0"/></radialGradient><radialGradient cx="269.73393" cy="207.60456" r="16.27777" gradientUnits="userSpaceOnUse" id="color-41"><stop offset="0" stop-color="#000000"/><stop offset="1" stop-color="#000000" stop-opacity="0"/></radialGradient><radialGradient cx="352.73407" cy="248.60456" r="16.27777" gradientUnits="userSpaceOnUse" id="color-42"><stop offset="0" stop-color="#000000"/><stop offset="1" stop-color="#000000" stop-opacity="0"/></radialGradient><radialGradient cx="79.14911" cy="207.96007" r="14.22558" gradientUnits="userSpaceOnUse" id="color-43"><stop offset="0" stop-color="#182315"/><stop offset="1" stop-color="#182315" stop-opacity="0"/></radialGradient><radialGradient cx="80.3281" cy="200.24807" r="14.21633" gradientUnits="userSpaceOnUse" id="color-44"><stop offset="0" stop-color="#182315"/><stop offset="1" stop-color="#182315" stop-opacity="0"/></radialGradient><radialGradient cx="86.49638" cy="204.10044" r="14.78474" gradientUnits="userSpaceOnUse" id="color-45"><stop offset="0" stop-color="#182315"/><stop offset="1" stop-color="#182315" stop-opacity="0"/></radialGradient><radialGradient cx="92.31595" cy="215.97992" r="14.78476" gradientUnits="userSpaceOnUse" id="color-46"><stop offset="0" stop-color="#182315"/><stop offset="1" stop-color="#182315" stop-opacity="0"/></radialGradient><radialGradient cx="97.6818" cy="205.43935" r="14.78474" gradientUnits="userSpaceOnUse" id="color-47"><stop offset="0" stop-color="#182315"/><stop offset="1" stop-color="#182315" stop-opacity="0"/></radialGradient><radialGradient cx="86.62593" cy="198.16398" r="14.78474" gradientUnits="userSpaceOnUse" id="color-48"><stop offset="0" stop-color="#182315"/><stop offset="1" stop-color="#182315" stop-opacity="0"/></radialGradient><radialGradient cx="92.92289" cy="200.92318" r="14.78474" gradientUnits="userSpaceOnUse" id="color-49"><stop offset="0" stop-color="#182315"/><stop offset="1" stop-color="#182315" stop-opacity="0"/></radialGradient><radialGradient cx="83.51084" cy="212.58712" r="14.78475" gradientUnits="userSpaceOnUse" id="color-50"><stop offset="0" stop-color="#182315"/><stop offset="1" stop-color="#182315" stop-opacity="0"/></radialGradient><radialGradient cx="97.559" cy="208.70176" r="14.78474" gradientUnits="userSpaceOnUse" id="color-51"><stop offset="0" stop-color="#182315"/><stop offset="1" stop-color="#182315" stop-opacity="0"/></radialGradient><radialGradient cx="133.14914" cy="83.46007" r="14.22558" gradientUnits="userSpaceOnUse" id="color-52"><stop offset="0" stop-color="#182315"/><stop offset="1" stop-color="#182315" stop-opacity="0"/></radialGradient><radialGradient cx="134.32809" cy="75.74806" r="14.21633" gradientUnits="userSpaceOnUse" id="color-53"><stop offset="0" stop-color="#182315"/><stop offset="1" stop-color="#182315" stop-opacity="0"/></radialGradient><radialGradient cx="140.49638" cy="79.60045" r="14.78474" gradientUnits="userSpaceOnUse" id="color-54"><stop offset="0" stop-color="#182315"/><stop offset="1" stop-color="#182315" stop-opacity="0"/></radialGradient><radialGradient cx="146.31595" cy="91.47992" r="14.78476" gradientUnits="userSpaceOnUse" id="color-55"><stop offset="0" stop-color="#182315"/><stop offset="1" stop-color="#182315" stop-opacity="0"/></radialGradient><radialGradient cx="151.68179" cy="80.93935" r="14.78474" gradientUnits="userSpaceOnUse" id="color-56"><stop offset="0" stop-color="#182315"/><stop offset="1" stop-color="#182315" stop-opacity="0"/></radialGradient><radialGradient cx="140.62595" cy="73.66397" r="14.78474" gradientUnits="userSpaceOnUse" id="color-57"><stop offset="0" stop-color="#182315"/><stop offset="1" stop-color="#182315" stop-opacity="0"/></radialGradient><radialGradient cx="146.92287" cy="76.42318" r="14.78475" gradientUnits="userSpaceOnUse" id="color-58"><stop offset="0" stop-color="#182315"/><stop offset="1" stop-color="#182315" stop-opacity="0"/></radialGradient><radialGradient cx="137.51083" cy="88.08712" r="14.78475" gradientUnits="userSpaceOnUse" id="color-59"><stop offset="0" stop-color="#182315"/><stop offset="1" stop-color="#182315" stop-opacity="0"/></radialGradient><radialGradient cx="151.55901" cy="84.20175" r="14.78474" gradientUnits="userSpaceOnUse" id="color-60"><stop offset="0" stop-color="#182315"/><stop offset="1" stop-color="#182315" stop-opacity="0"/></radialGradient><radialGradient cx="255.44795" cy="78.51153" r="14.22558" gradientUnits="userSpaceOnUse" id="color-61"><stop offset="0" stop-color="#182315"/><stop offset="1" stop-color="#182315" stop-opacity="0"/></radialGradient><radialGradient cx="261.078" cy="73.11086" r="14.21633" gradientUnits="userSpaceOnUse" id="color-62"><stop offset="0" stop-color="#182315"/><stop offset="1" stop-color="#182315" stop-opacity="0"/></radialGradient><radialGradient cx="263.62654" cy="79.92215" r="14.78474" gradientUnits="userSpaceOnUse" id="color-63"><stop offset="0" stop-color="#182315"/><stop offset="1" stop-color="#182315" stop-opacity="0"/></radialGradient><radialGradient cx="261.01187" cy="92.88951" r="14.78476" gradientUnits="userSpaceOnUse" id="color-64"><stop offset="0" stop-color="#182315"/><stop offset="1" stop-color="#182315" stop-opacity="0"/></radialGradient><radialGradient cx="271.68555" cy="87.79351" r="14.78474" gradientUnits="userSpaceOnUse" id="color-65"><stop offset="0" stop-color="#182315"/><stop offset="1" stop-color="#182315" stop-opacity="0"/></radialGradient><radialGradient cx="267.34315" cy="75.29122" r="14.78474" gradientUnits="userSpaceOnUse" id="color-66"><stop offset="0" stop-color="#182315"/><stop offset="1" stop-color="#182315" stop-opacity="0"/></radialGradient><radialGradient cx="270.65923" cy="81.31356" r="14.78475" gradientUnits="userSpaceOnUse" id="color-67"><stop offset="0" stop-color="#182315"/><stop offset="1" stop-color="#182315" stop-opacity="0"/></radialGradient><radialGradient cx="256.09164" cy="84.83768" r="14.78475" gradientUnits="userSpaceOnUse" id="color-68"><stop offset="0" stop-color="#182315"/><stop offset="1" stop-color="#182315" stop-opacity="0"/></radialGradient><radialGradient cx="269.60213" cy="90.30702" r="14.78474" gradientUnits="userSpaceOnUse" id="color-69"><stop offset="0" stop-color="#182315"/><stop offset="1" stop-color="#182315" stop-opacity="0"/></radialGradient></defs><g transform="translate(120.35518,2.3624)"><g data-paper-data="{&quot;isPaintingLayer&quot;:true}" fill-rule="nonzero" stroke-linejoin="miter" stroke-miterlimit="10" stroke-dasharray="" stroke-dashoffset="0" style="mix-blend-mode: normal"><path d="M411.54483,361.48194v-362h51v362z" fill="#001e00" stroke="none" stroke-width="0" stroke-linecap="butt"/><path d="M403.93535,358.68607v-360.33333h56.5v360.33334z" fill="url(#color-1)" stroke="none" stroke-width="0" stroke-linecap="butt"/><path d="M82.73961,266.28911v-54.66548c0,0 5.07358,-0.49101 7.07592,0.81835c0.96235,0.62929 3.8489,-0.81835 3.8489,-0.81835v54.66548z" data-paper-data="{&quot;index&quot;:null}" fill="#1e190f" stroke="#0c0c0c" stroke-width="0" stroke-linecap="butt"/><g data-paper-data="{&quot;index&quot;:null}" stroke="none" stroke-width="0" stroke-linecap="butt"><path d="M105.55948,219.81158c-7.71937,6.06898 -10.13571,6.20539 -16.20471,-1.51397c-6.06899,-7.71936 -6.59096,-8.69224 1.12839,-14.76124c7.71937,-6.06898 8.92715,-6.77565 14.99614,0.94371c6.06898,7.71937 7.79953,9.2625 0.08017,15.33149z" fill="url(#color-2)"/><path d="M110.71164,202.39703c-0.93942,9.05416 -0.75299,11.19498 -10.52738,10.32477c-9.77439,-0.87021 -11.61654,-2.3242 -10.67711,-11.37836c0.93943,-9.05415 1.23354,-10.0399 11.00794,-9.1697c9.77439,0.8702 11.136,1.16912 10.19657,10.22328z" fill="url(#color-3)"/><path d="M102.11943,202.80713c0,10.20541 0.42266,12.57781 -9.78274,12.57781c-10.20541,0 -12.26725,-1.44072 -12.26725,-11.64613c0,-10.2054 0.19846,-11.33556 10.40387,-11.33556c10.20541,0 11.64613,0.19846 11.64613,10.40387z" fill="url(#color-4)"/><path d="M86.81518,223.0008c-8.02279,6.30754 -10.53412,6.4493 -16.84167,-1.57348c-6.30755,-8.02279 -6.85003,-9.0339 1.17275,-15.34145c8.02279,-6.30755 9.27804,-7.04198 15.5856,0.9808c6.30755,8.02279 8.10611,9.62658 0.08332,15.93414z" fill="url(#color-5)"/><path d="M85.64783,192.32367c6.30754,8.02279 8.10611,9.62658 0.08332,15.93414c-8.02279,6.30754 -10.53411,6.4493 -16.84166,-1.57348c-6.30755,-8.02279 -6.85004,-9.03389 1.17274,-15.34144c8.02279,-6.30754 9.27804,-7.04198 15.5856,0.9808z" fill="url(#color-6)"/><path d="M101.99177,205.22249c-8.02279,6.30754 -10.53412,6.4493 -16.84167,-1.57348c-6.30755,-8.02279 -6.85003,-9.0339 1.17275,-15.34145c8.02279,-6.30755 9.27803,-7.04198 15.58559,0.9808c6.30755,8.02279 8.10612,9.62658 0.08333,15.93414z" fill="url(#color-7)"/><path d="M96.28925,197.0955c-0.97635,10.1586 -0.7826,12.56056 -10.9412,11.58421c-10.1586,-0.97636 -12.07314,-2.60773 -11.09679,-12.76632c0.97636,-10.1586 1.28203,-11.26457 11.44063,-10.28822c10.15859,0.97635 11.57371,1.31172 10.59736,11.47032z" fill="url(#color-8)"/><path d="M90.55147,226.67479c-10.1586,-0.97635 -12.07315,-2.60772 -11.0968,-12.7663c0.97635,-10.1586 1.28203,-11.26459 11.44062,-10.28824c10.1586,0.97635 11.57372,1.31176 10.59737,11.47034c-0.97635,10.15859 -0.7826,12.56055 -10.94119,11.5842z" fill="url(#color-9)"/><path d="M87.18332,203.81657c-0.97635,10.15859 -0.7826,12.56056 -10.94119,11.58421c-10.1586,-0.97635 -12.07315,-2.60773 -11.0968,-12.76631c0.97636,-10.1586 1.28204,-11.26459 11.44063,-10.28824c10.1586,0.97635 11.57372,1.31174 10.59737,11.47033z" fill="url(#color-10)"/></g><path d="M256.77959,144.28913v-54.66548c0,0 3.14896,1.44764 4.1988,0.81835c2.18437,-1.30936 7.71918,-0.81835 7.71918,-0.81835v54.66548z" fill="#1e190f" stroke="#0c0c0c" stroke-width="0" stroke-linecap="butt"/><g stroke="none" stroke-width="0" stroke-linecap="butt"><path d="M247.21626,81.07752c5.66473,-7.20516 6.79206,-6.54558 13.99723,-0.88085c7.20516,5.66473 6.71796,6.57281 1.05323,13.77797c-5.66473,7.20516 -7.92012,7.07785 -15.12529,1.41312c-7.20516,-5.66473 -5.5899,-7.10507 0.07483,-14.31024z" fill="url(#color-11)"/><path d="M242.33243,79.1332c-0.87685,-8.45105 0.39405,-8.73006 9.51736,-9.54229c9.12331,-0.81224 9.39783,0.10785 10.27469,8.55889c0.87685,8.45105 -0.84259,9.8082 -9.96589,10.62044c-9.12331,0.81224 -8.9493,-1.18598 -9.82614,-9.63703z" fill="url(#color-12)"/><path d="M250.35236,79.51596c0,-9.52561 1.34475,-9.71086 10.87037,-9.71086c9.52561,0 9.71086,1.05488 9.71086,10.58049c0,9.52561 -1.9245,10.87037 -11.45011,10.87037c-9.52561,0 -9.1311,-2.21438 -9.1311,-11.73999z" fill="url(#color-13)"/><path d="M264.71486,83.49174c5.8874,-7.48838 7.05904,-6.80287 14.54742,-0.91547c7.48838,5.8874 6.98203,6.83117 1.09464,14.31954c-5.8874,7.48838 -8.23145,7.35607 -15.71983,1.46867c-7.48838,-5.8874 -5.80963,-7.38436 0.07777,-14.87274z" fill="url(#color-14)"/><path d="M265.72668,69.73083c5.8874,-7.48838 7.05904,-6.80286 14.54742,-0.91547c7.48838,5.8874 6.98203,6.83115 1.09462,14.31954c-5.8874,7.48838 -8.23144,7.35607 -15.71982,1.46867c-7.48838,-5.8874 -5.80962,-7.38436 0.07777,-14.87274z" fill="url(#color-15)"/><path d="M250.54927,66.89772c5.8874,-7.48838 7.05904,-6.80287 14.54742,-0.91547c7.48838,5.8874 6.98203,6.83117 1.09463,14.31954c-5.8874,7.48838 -8.23145,7.35607 -15.71983,1.46867c-7.48838,-5.8874 -5.80962,-7.38436 0.07778,-14.87274z" fill="url(#color-16)"/><path d="M255.79418,74.1848c-0.91132,-9.48192 0.40954,-9.79495 9.89146,-10.70627c9.48192,-0.91132 9.76723,0.12099 10.67855,9.60291c0.91132,9.48192 -0.8757,11.00462 -10.35762,11.91594c-9.48192,0.91132 -9.30108,-1.33065 -10.21239,-10.81257z" fill="url(#color-17)"/><path d="M250.93737,90.98125c-0.91132,-9.48192 0.40954,-9.79497 9.89147,-10.70629c9.48192,-0.91132 9.76723,0.12101 10.67855,9.60292c0.91132,9.48192 -0.87571,11.00461 -10.35763,11.91593c-9.48192,0.91132 -9.30106,-1.33065 -10.21238,-10.81256z" fill="url(#color-18)"/><path d="M264.29348,80.45816c-0.91132,-9.48192 0.40955,-9.79497 9.89147,-10.70628c9.48192,-0.91132 9.76723,0.12101 10.67855,9.60292c0.91132,9.48192 -0.87571,11.00462 -10.35763,11.91594c-9.48192,0.91132 -9.30106,-1.33066 -10.21238,-10.81257z" fill="url(#color-19)"/></g><path d="M135.27812,143.28913v-54.66548c0,0 3.14896,1.44764 4.1988,0.81835c2.18437,-1.30936 7.71919,-0.81835 7.71919,-0.81835v54.66548z" fill="#1e190f" stroke="#0c0c0c" stroke-width="0" stroke-linecap="butt"/><g stroke="none" stroke-width="0" stroke-linecap="butt"><path d="M126.33321,80.52684c5.79424,-7.36989 6.94734,-6.69522 14.31724,-0.90099c7.36989,5.79424 6.87155,6.72308 1.07731,14.09297c-5.79424,7.36989 -8.10119,7.23966 -15.47109,1.44543c-7.36989,-5.79424 -5.71769,-7.26751 0.07654,-14.63741z" fill="url(#color-20)"/><path d="M121.33775,78.53807c-0.8969,-8.64426 0.40306,-8.92965 9.73495,-9.76045c9.33189,-0.83081 9.61269,0.11032 10.50959,8.75457c0.8969,8.64426 -0.86185,10.03243 -10.19374,10.86324c-9.33189,0.83081 -9.1539,-1.21309 -10.05079,-9.85735z" fill="url(#color-21)"/><path d="M129.54093,78.92959c0,-9.74339 1.3755,-9.93287 11.11889,-9.93287c9.74339,0 9.93287,1.079 9.93287,10.82238c0,9.74339 -1.9685,11.11889 -11.71189,11.11889c-9.74339,0 -9.33986,-2.265 -9.33986,-12.00839z" fill="url(#color-22)"/><path d="M144.23192,82.9963c6.022,-7.65958 7.22043,-6.9584 14.88001,-0.9364c7.65958,6.022 7.14166,6.98734 1.11966,14.64692c-6.022,7.65958 -8.41964,7.52424 -16.07922,1.50225c-7.65958,-6.022 -5.94245,-7.55319 0.07955,-15.21277z" fill="url(#color-23)"/><path d="M145.26684,68.92069c6.022,-7.65958 7.22043,-6.95839 14.88001,-0.9364c7.65958,6.022 7.14165,6.98733 1.11965,14.64691c-6.022,7.65958 -8.41963,7.52424 -16.07921,1.50225c-7.65958,-6.022 -5.94244,-7.55319 0.07955,-15.21277z" fill="url(#color-24)"/><path d="M129.74239,66.02287c6.022,-7.65958 7.22042,-6.9584 14.88,-0.9364c7.65958,6.022 7.14166,6.98734 1.11966,14.64692c-6.022,7.65958 -8.41964,7.52424 -16.07922,1.50225c-7.65958,-6.022 -5.94244,-7.55319 0.07956,-15.21277z" fill="url(#color-25)"/><path d="M135.10719,73.47652c-0.93215,-9.6987 0.41891,-10.01889 10.1176,-10.95104c9.6987,-0.93215 9.99053,0.12375 10.92269,9.82245c0.93215,9.6987 -0.89572,11.25621 -10.59442,12.18837c-9.6987,0.93215 -9.51372,-1.36107 -10.44587,-11.05977z" fill="url(#color-26)"/><path d="M130.13939,90.65699c-0.93215,-9.69869 0.41891,-10.01891 10.11761,-10.95106c9.69869,-0.93215 9.99053,0.12377 10.92268,9.82247c0.93215,9.69869 -0.89573,11.2562 -10.59443,12.18835c-9.69869,0.93215 -9.51371,-1.36107 -10.44586,-11.05976z" fill="url(#color-27)"/><path d="M143.80086,79.89329c-0.93215,-9.69869 0.41891,-10.0189 10.11761,-10.95105c9.69869,-0.93215 9.99053,0.12377 10.92269,9.82247c0.93215,9.69869 -0.89573,11.25621 -10.59443,12.18836c-9.69869,0.93215 -9.51371,-1.36108 -10.44586,-11.05977z" fill="url(#color-28)"/></g><path d="M-117.66723,33.78754v-35.08651h493.10179v35.08651z" fill="#000000" stroke="#000000" stroke-width="1" stroke-linecap="butt"/><path d="M404.46459,340.67331l-1.2,-342.22183h22v342.22183z" fill="#000000" stroke="#000000" stroke-width="1" stroke-linecap="butt"/><path d="M460.13069,361.25944v-363.12183h49.25v363.12183z" fill="#000000" stroke="#000000" stroke-width="1" stroke-linecap="butt"/><path d="M320.14468,102.66429v-71h17v71z" fill="#000000" stroke="#000000" stroke-width="1" stroke-linecap="butt"/><path d="M374.64492,71.1324v-9h32.5v9z" fill="#000000" stroke="#000000" stroke-width="1" stroke-linecap="butt"/><path d="M54.64483,150.07146v-16h351.5v16z" fill="#000000" stroke="#000000" stroke-width="1" stroke-linecap="butt"/><path d="M-119.85518,362.28767v-331.5h120v331.5z" fill="#000000" stroke="#000000" stroke-width="1" stroke-linecap="butt"/><path d="M185.50559,134.07146v-32h32v32z" fill="#000000" stroke="#000000" stroke-width="1" stroke-linecap="butt"/><path d="M-4.88675,285.07142v-23h373.60086v23z" fill="#000000" stroke="#000000" stroke-width="1" stroke-linecap="butt"/><path d="M117.50555,264.07142v-81h86v81z" fill="#000000" stroke="#000000" stroke-width="1" stroke-linecap="butt"/><path d="M202.20718,212.72168v-12h34.25v12z" fill="#000000" stroke="#000000" stroke-width="1" stroke-linecap="butt"/><path d="M311.457,282.22159v-109.5h18v109.5z" fill="#000000" stroke="#000000" stroke-width="1" stroke-linecap="butt"/><path d="M-3.54287,362.22171v-79.5h201v79.5z" fill="#000000" stroke="#000000" stroke-width="1" stroke-linecap="butt"/><path d="M260.332,361.72171v-34h165v34z" fill="#000000" stroke="#000000" stroke-width="1" stroke-linecap="butt"/><path d="M-1.96495,32.10716h376" fill="none" stroke="#182315" stroke-width="7.5" stroke-linecap="round"/><path d="M403.03505,329.44052l-141.66666,-0.33333" fill="none" stroke="#182315" stroke-width="7.5" stroke-linecap="round"/><path d="M116.28508,261.09767h-116.5" fill="none" stroke="#182315" stroke-width="7.5" stroke-linecap="round"/><path d="M367.13515,263.60715h-163" fill="none" stroke="#182315" stroke-width="7.5" stroke-linecap="round"/><path d="M117.03507,184.10724h86" fill="none" stroke="#182315" stroke-width="7.5" stroke-linecap="round"/><path d="M312.87093,175.39628h15.08333" fill="none" stroke="#182315" stroke-width="7.5" stroke-linecap="round"/><path d="M376.00997,16.19346v12.66667h-379.5v-12.66667z" fill="url(#color-29)" stroke="#182315" stroke-width="0" stroke-linecap="butt"/><path d="M116.78258,200.40563v-12.66667h87.31819v12.66667z" fill="url(#color-30)" stroke="#182315" stroke-width="0" stroke-linecap="butt"/><path d="M310.88248,191.93897v-13.25h19.15152v13.25z" fill="url(#color-31)" stroke="#182315" stroke-width="0" stroke-linecap="butt"/><path d="M202.08259,278.55557v-12.66667h167.48486v12.66667z" fill="url(#color-32)" stroke="#182315" stroke-width="0" stroke-linecap="butt"/><path d="M-1.41745,276.80557v-12.66667h120.44319v12.66667z" fill="url(#color-33)" stroke="#182315" stroke-width="0" stroke-linecap="butt"/><path d="M259.78632,345.30496v-12.66667h144.66667v12.66667z" fill="url(#color-34)" stroke="#182315" stroke-width="0" stroke-linecap="butt"/><path d="M204.19921,211.1138v-9.25h31.08333v9.25z" fill="#242424" stroke="none" stroke-width="0" stroke-linecap="butt"/><path d="M376.11966,69.27429v-5.4h26.2v5.4z" fill="#0e0e0e" stroke="none" stroke-width="0" stroke-linecap="butt"/><path d="M400.92342,136.63583h-348.33333" fill="none" stroke="#182315" stroke-width="7.5" stroke-linecap="round"/><path d="M51.58254,151.22224v-12.66667h352.31819v12.66667z" fill="url(#color-35)" stroke="#182315" stroke-width="0" stroke-linecap="butt"/><path d="M321.03756,100.01283h14.5" fill="none" stroke="#182315" stroke-width="7.5" stroke-linecap="round"/><path d="M337.81188,84.93896v12.66667h-18.15152v-12.66667z" fill="url(#color-36)" stroke="#182315" stroke-width="0" stroke-linecap="butt"/><path d="M311.3275,280.71477v-24h18.66667v24z" fill="#000000" stroke="none" stroke-width="0" stroke-linecap="butt"/><path d="M319.7942,39.38149v-23.66667h18v23.66667z" fill="#000000" stroke="none" stroke-width="0" stroke-linecap="butt"/><path d="M185.5304,133.10996l0.22645,-30.95182l32.00651,0.21601l-0.22644,30.5329z" fill="#000000" stroke="none" stroke-width="0" stroke-linecap="butt"/><path d="M189.41544,129.12025l0.16693,-22.92556l23.5929,0.15925l-0.16693,22.50665z" fill="url(#color-37)" stroke="#3d1f0c" stroke-width="3.5" stroke-linecap="butt"/><path d="M191.38309,126.26529l0.13843,-18.66727l19.56822,0.13207l-0.13845,18.66728z" fill="none" stroke="#000000" stroke-width="2" stroke-linecap="butt"/><path d="M207.98206,123.8464l-14.59815,-14.1245" fill="none" stroke="#000000" stroke-width="6" stroke-linecap="round"/><path d="M190.52899,106.92107l20.9714,20.29095" fill="none" stroke="#3d1f0c" stroke-width="2.5" stroke-linecap="round"/><g stroke="none" stroke-linecap="butt"><path d="M284.87631,61.82781c0,-1.48191 1.20132,-2.68324 2.68323,-2.68324c1.48191,0 2.68324,1.20133 2.68324,2.68324c0,1.48191 -1.20133,2.68324 -2.68324,2.68324c-1.48191,0 -2.68323,-1.20133 -2.68323,-2.68324z" fill="#000000" stroke-width="NaN"/><path d="M271.45617,61.60457c0,-8.98997 7.28781,-16.27778 16.27778,-16.27778c8.98997,0 16.27777,7.28781 16.27777,16.27778c0,8.98997 -7.2878,16.27778 -16.27777,16.27778c-8.98997,0 -16.27778,-7.28781 -16.27778,-16.27778z" fill="url(#color-38)" stroke-width="0"/></g><g stroke="none" stroke-linecap="butt"><path d="M82.87634,94.82783c0,-1.48191 1.20132,-2.68324 2.68323,-2.68324c1.48191,0 2.68324,1.20133 2.68324,2.68324c0,1.48191 -1.20133,2.68324 -2.68324,2.68324c-1.48191,0 -2.68323,-1.20133 -2.68323,-2.68324z" fill="#000000" stroke-width="NaN"/><path d="M69.45619,94.60459c0,-8.98997 7.28781,-16.27778 16.27778,-16.27778c8.98997,0 16.27777,7.28781 16.27777,16.27778c0,8.98997 -7.2878,16.27778 -16.27777,16.27778c-8.98997,0 -16.27778,-7.28781 -16.27778,-16.27778z" fill="url(#color-39)" stroke-width="0"/></g><g stroke="none" stroke-linecap="butt"><path d="M27.87632,232.82782c0,-1.48191 1.20132,-2.68324 2.68323,-2.68324c1.48191,0 2.68324,1.20133 2.68324,2.68324c0,1.48191 -1.20133,2.68324 -2.68324,2.68324c-1.48191,0 -2.68323,-1.20133 -2.68323,-2.68324z" fill="#000000" stroke-width="NaN"/><path d="M14.45618,232.60456c0,-8.98997 7.28781,-16.27778 16.27778,-16.27778c8.98997,0 16.27777,7.28781 16.27777,16.27778c0,8.98997 -7.2878,16.27778 -16.27777,16.27778c-8.98997,0 -16.27778,-7.28781 -16.27778,-16.27778z" fill="url(#color-40)" stroke-width="0"/></g><g stroke="none" stroke-linecap="butt"><path d="M266.87631,207.82782c0,-1.48191 1.20132,-2.68324 2.68323,-2.68324c1.48191,0 2.68324,1.20133 2.68324,2.68324c0,1.48191 -1.20133,2.68324 -2.68324,2.68324c-1.48191,0 -2.68323,-1.20133 -2.68323,-2.68324z" fill="#000000" stroke-width="NaN"/><path d="M253.45624,207.60456c0,-8.98997 7.28781,-16.27778 16.27778,-16.27778c8.98997,0 16.27777,7.28781 16.27777,16.27778c0,8.98997 -7.2878,16.27778 -16.27777,16.27778c-8.98997,0 -16.27778,-7.28781 -16.27778,-16.27778z" fill="url(#color-41)" stroke-width="0"/></g><g stroke="none" stroke-linecap="butt"><path d="M349.87646,248.82782c0,-1.48191 1.20132,-2.68324 2.68323,-2.68324c1.48191,0 2.68324,1.20133 2.68324,2.68324c0,1.48191 -1.20133,2.68324 -2.68324,2.68324c-1.48191,0 -2.68323,-1.20133 -2.68323,-2.68324z" fill="#000000" stroke-width="NaN"/><path d="M336.45625,248.60456c0,-8.98997 7.28781,-16.27778 16.27778,-16.27778c8.98997,0 16.27777,7.28781 16.27777,16.27778c0,8.98997 -7.2878,16.27778 -16.27777,16.27778c-8.98997,0 -16.27778,-7.28781 -16.27778,-16.27778z" fill="url(#color-42)" stroke-width="0"/></g><path d="M37.50538,215.07158v-144h18v144z" fill="#000000" stroke="#000000" stroke-width="1" stroke-linecap="butt"/><path d="M39.35992,213.38381v-140h14.5v140z" fill="#0e0e0e" stroke="none" stroke-width="0" stroke-linecap="butt"/><path d="M44.53754,207.402v-129.5h4.5v129.5z" fill="#182315" stroke="#000000" stroke-width="1.5" stroke-linecap="butt"/><path d="M7.38475,286.26822v-21" fill="none" stroke="#182315" stroke-width="7.5" stroke-linecap="round"/><path d="M27.38475,261.26822v15" fill="none" stroke="#182315" stroke-width="7.5" stroke-linecap="round"/><path d="M47.38476,263.26822v20" fill="none" stroke="#182315" stroke-width="7.5" stroke-linecap="round"/><path d="M63.25976,275.26822v-11" fill="none" stroke="#182315" stroke-width="7.5" stroke-linecap="round"/><path d="M97.38476,289.26822v-26" fill="none" stroke="#182315" stroke-width="7.5" stroke-linecap="round"/><path d="M110.38476,261.26822v22" fill="none" stroke="#182315" stroke-width="7.5" stroke-linecap="round"/><path d="M124.49235,210.6683v-26.4" fill="none" stroke="#182315" stroke-width="7.5" stroke-linecap="round"/><path d="M139.38468,204.2683v-18" fill="none" stroke="#182315" stroke-width="7.5" stroke-linecap="round"/><path d="M157.50473,210.46828v-25.2" fill="none" stroke="#182315" stroke-width="7.5" stroke-linecap="round"/><path d="M174.39869,199.8683v-15.6" fill="none" stroke="#182315" stroke-width="7.5" stroke-linecap="round"/><path d="M320.60992,178.25465v12" fill="none" stroke="#182315" stroke-width="7.5" stroke-linecap="round"/><path d="M196.85999,283.69212v-5.875h172.25v5.875z" fill="#242424" stroke="#000000" stroke-width="2" stroke-linecap="butt"/><path d="M276.22785,332.50467v16" fill="none" stroke="#182315" stroke-width="7.5" stroke-linecap="round"/><path d="M309.8945,330.33802v22.83333" fill="none" stroke="#182315" stroke-width="7.5" stroke-linecap="round"/><path d="M334.22785,347.50467v-16.5" fill="none" stroke="#182315" stroke-width="7.5" stroke-linecap="round"/><path d="M357.72793,354.67133v-22" fill="none" stroke="#182315" stroke-width="7.5" stroke-linecap="round"/><path d="M376.72793,342.50468v-11.5" fill="none" stroke="#182315" stroke-width="7.5" stroke-linecap="round"/><path d="M292.45716,350.22169v-18" fill="none" stroke="#182315" stroke-width="7.5" stroke-linecap="round"/><path d="M207.43636,208.27114v-3.75h24v3.75z" fill="#0e0e0e" stroke="#000000" stroke-width="1.5" stroke-linecap="butt"/><path d="M328.10992,96.25466v-16" fill="none" stroke="#182315" stroke-width="7.5" stroke-linecap="round"/><path d="M347.10999,14.25463v16.5" fill="none" stroke="#182315" stroke-width="7.5" stroke-linecap="round"/><path d="M361.60999,6.25463v22" fill="none" stroke="#182315" stroke-width="7.5" stroke-linecap="round"/><path d="M297.60992,9.25462v21" fill="none" stroke="#182315" stroke-width="7.5" stroke-linecap="round"/><path d="M271.60992,30.9213v-19" fill="none" stroke="#182315" stroke-width="7.5" stroke-linecap="round"/><path d="M253.04778,31.75463v-24.5" fill="none" stroke="#182315" stroke-width="7.5" stroke-linecap="round"/><path d="M224.10997,12.75463v16" fill="none" stroke="#182315" stroke-width="7.5" stroke-linecap="round"/><path d="M202.10997,7.25463v22.5" fill="none" stroke="#182315" stroke-width="7.5" stroke-linecap="round"/><path d="M6.60993,29.25464v-14.5" fill="none" stroke="#182315" stroke-width="7.5" stroke-linecap="round"/><path d="M24.26549,3.25461v27.66667" fill="none" stroke="#182315" stroke-width="7.5" stroke-linecap="round"/><path d="M49.60994,29.25463v-18.5" fill="none" stroke="#182315" stroke-width="7.5" stroke-linecap="round"/><path d="M81.60989,29.75464v-25.5" fill="none" stroke="#182315" stroke-width="7.5" stroke-linecap="round"/><path d="M101.60995,8.75463v21.5" fill="none" stroke="#182315" stroke-width="7.5" stroke-linecap="round"/><path d="M133.14442,4.25462v24" fill="none" stroke="#182315" stroke-width="7.5" stroke-linecap="round"/><path d="M145.10996,29.25463v-16.5" fill="none" stroke="#182315" stroke-width="7.5" stroke-linecap="round"/><path d="M169.78918,5.25463v23.5" fill="none" stroke="#182315" stroke-width="7.5" stroke-linecap="round"/><path d="M391.81459,351.68408v-19" fill="none" stroke="#182315" stroke-width="7.5" stroke-linecap="round"/><path d="M76.87517,283.93406v-23" fill="none" stroke="#182315" stroke-width="7.5" stroke-linecap="round"/><path d="M192.77518,185.53409v22.5" fill="none" stroke="#182315" stroke-width="7.5" stroke-linecap="round"/><g stroke="none" stroke-width="0" stroke-linecap="butt"><path d="M75.65462,200.19212c6.86807,-3.81514 7.54022,-2.91975 11.35537,3.94832c3.81514,6.86807 3.12874,7.42413 -3.73933,11.23927c-6.86807,3.81514 -8.60843,2.96612 -12.42358,-3.90193c-3.81514,-6.86807 -2.06053,-7.47051 4.80754,-11.28566z" fill="url(#color-43)"/><path d="M72.43973,197.03484c2.11115,-6.97047 3.20823,-6.76929 10.6886,-4.38399c7.48037,2.3853 7.39204,3.20361 5.28089,10.17407c-2.11115,6.97047 -3.92048,7.47259 -11.40085,5.08729c-7.48037,-2.3853 -6.6798,-3.9069 -4.56863,-10.87736z" fill="url(#color-44)"/><path d="M78.65148,199.99853c3.16076,-7.52883 4.28509,-7.22902 11.81392,-4.06826c7.52883,3.16076 7.32521,4.05598 4.16445,11.5848c-3.16076,7.52883 -5.12805,7.9531 -12.65688,4.79234c-7.52883,-3.16076 -6.48225,-4.78004 -3.32149,-12.30887z" fill="url(#color-45)"/><path d="M88.68406,207.90665c7.13804,-3.96509 7.83663,-3.03452 11.80172,4.10352c3.96509,7.13804 3.25175,7.71596 -3.8863,11.68105c-7.13804,3.96509 -8.94682,3.08273 -12.91192,-4.0553c-3.96509,-7.13804 -2.14153,-7.76418 4.99651,-11.72927z" fill="url(#color-46)"/><path d="M94.04992,197.36608c7.13804,-3.96509 7.83661,-3.03451 11.80172,4.10352c3.96509,7.13804 3.25174,7.71595 -3.8863,11.68104c-7.13804,3.96509 -8.94681,3.08273 -12.91192,-4.05529c-3.96509,-7.13804 -2.14153,-7.76417 4.9965,-11.72927z" fill="url(#color-47)"/><path d="M82.99406,190.0907c7.13804,-3.96509 7.83661,-3.03453 11.80171,4.10351c3.96509,7.13804 3.25174,7.71597 -3.8863,11.68106c-7.13804,3.96509 -8.94681,3.08272 -12.91192,-4.05531c-3.96509,-7.13804 -2.14153,-7.76416 4.99651,-11.72926z" fill="url(#color-48)"/><path d="M84.72153,197.59058c2.42598,-7.79668 3.57383,-7.6058 11.37051,-5.17983c7.79668,2.42598 7.67965,3.33655 5.25367,11.13323c-2.42598,7.79668 -4.34366,8.40723 -12.14034,5.98125c-7.79668,-2.42598 -6.90982,-4.13797 -4.48384,-11.93466z" fill="url(#color-49)"/><path d="M75.30948,209.25453c2.42598,-7.79667 3.57384,-7.60583 11.37052,-5.17985c7.79667,2.42598 7.67964,3.33658 5.25367,11.13327c-2.42598,7.79668 -4.34366,8.40721 -12.14035,5.98123c-7.79667,-2.42598 -6.90982,-4.13797 -4.48384,-11.93464z" fill="url(#color-50)"/><path d="M89.35763,205.36914c2.42598,-7.79667 3.57384,-7.60581 11.37052,-5.17983c7.79667,2.42598 7.67965,3.33657 5.25367,11.13326c-2.42598,7.79667 -4.34367,8.40722 -12.14035,5.98124c-7.79667,-2.42598 -6.90981,-4.13797 -4.48383,-11.93464z" fill="url(#color-51)"/></g><g stroke="none" stroke-width="0" stroke-linecap="butt"><path d="M129.65462,75.69209c6.86807,-3.81514 7.54022,-2.91976 11.35537,3.94831c3.81514,6.86807 3.12874,7.42414 -3.73933,11.23928c-6.86807,3.81514 -8.60843,2.96612 -12.42357,-3.90194c-3.81514,-6.86807 -2.06054,-7.47051 4.80753,-11.28565z" fill="url(#color-52)"/><path d="M126.43973,72.53481c2.11115,-6.97047 3.20823,-6.76928 10.68861,-4.38398c7.48037,2.3853 7.39203,3.20361 5.28089,10.17407c-2.11115,6.97047 -3.92048,7.47259 -11.40085,5.0873c-7.48037,-2.3853 -6.6798,-3.9069 -4.56863,-10.87736z" fill="url(#color-53)"/><path d="M132.65147,75.49851c3.16076,-7.52883 4.2851,-7.22902 11.81392,-4.06825c7.52883,3.16076 7.32521,4.05598 4.16445,11.58479c-3.16076,7.52883 -5.12805,7.95311 -12.65688,4.79235c-7.52882,-3.16076 -6.48225,-4.78005 -3.32149,-12.30887z" fill="url(#color-54)"/><path d="M142.68406,83.40664c7.13804,-3.96509 7.83662,-3.03451 11.80172,4.10353c3.9651,7.13804 3.25174,7.71595 -3.8863,11.68104c-7.13804,3.96509 -8.94681,3.08273 -12.91192,-4.0553c-3.96509,-7.13804 -2.14153,-7.76417 4.99651,-11.72928z" fill="url(#color-55)"/><path d="M148.04992,72.86607c7.13804,-3.96509 7.83661,-3.03451 11.80172,4.10351c3.9651,7.13804 3.25174,7.71595 -3.88629,11.68105c-7.13804,3.96509 -8.94681,3.08273 -12.91192,-4.05529c-3.96509,-7.13804 -2.14153,-7.76417 4.9965,-11.72928z" fill="url(#color-56)"/><path d="M136.99406,65.59069c7.13804,-3.96509 7.83661,-3.03453 11.80171,4.10351c3.9651,7.13804 3.25174,7.71596 -3.8863,11.68106c-7.13804,3.96509 -8.94681,3.08272 -12.91191,-4.05531c-3.9651,-7.13804 -2.14153,-7.76416 4.9965,-11.72926z" fill="url(#color-57)"/><path d="M138.72155,73.09055c2.42597,-7.79668 3.57384,-7.6058 11.37051,-5.17982c7.79668,2.42597 7.67964,3.33656 5.25367,11.13324c-2.42597,7.79668 -4.34366,8.40722 -12.14034,5.98125c-7.79668,-2.42597 -6.90982,-4.13797 -4.48385,-11.93466z" fill="url(#color-58)"/><path d="M129.30951,84.75453c2.42597,-7.79667 3.57385,-7.60583 11.37052,-5.17984c7.79667,2.42597 7.67964,3.33658 5.25367,11.13327c-2.42597,7.79668 -4.34366,8.4072 -12.14035,5.98123c-7.79667,-2.42597 -6.90981,-4.13797 -4.48384,-11.93464z" fill="url(#color-59)"/><path d="M143.35763,80.86914c2.42597,-7.79667 3.57384,-7.60581 11.37051,-5.17983c7.79667,2.42597 7.67965,3.33657 5.25367,11.13326c-2.42597,7.79667 -4.34366,8.40722 -12.14035,5.98123c-7.79667,-2.42597 -6.90981,-4.13797 -4.48383,-11.93464z" fill="url(#color-60)"/></g><g stroke="none" stroke-width="0" stroke-linecap="butt"><path d="M257.4043,70.22146c7.77133,1.15417 7.75952,2.27371 6.60536,10.04504c-1.15417,7.77133 -2.03724,7.79464 -9.80857,6.64047c-7.77133,-1.15417 -8.63522,-2.8872 -7.48106,-10.65852c1.15417,-7.77133 2.91294,-7.18116 10.68427,-6.027z" fill="url(#color-61)"/><path d="M256.77574,65.75955c5.91819,-4.24493 6.6661,-3.41747 11.14868,3.02863c4.48257,6.44609 3.91435,7.04153 -2.00384,11.28646c-5.91819,4.24493 -7.65931,3.54186 -12.14188,-2.90423c-4.48257,-6.44609 -2.92116,-7.16592 2.99705,-11.41084z" fill="url(#color-62)"/><path d="M259.89973,71.89222c7.09081,-4.04895 7.8003,-3.12666 11.84926,3.96415c4.04895,7.09081 3.34244,7.67709 -3.74836,11.72603c-7.09081,4.04895 -8.90987,3.18797 -12.95882,-3.90284c-4.04895,-7.09081 -2.2329,-7.73838 4.85791,-11.78734z" fill="url(#color-63)"/><path d="M263.0451,84.27358c8.0768,1.19955 8.06453,2.36309 6.86499,10.43989c-1.19955,8.0768 -2.11729,8.10104 -10.19409,6.90149c-8.0768,-1.19955 -8.97467,-3.00067 -7.77514,-11.07747c1.19955,-8.0768 3.02746,-7.46345 11.10425,-6.26391z" fill="url(#color-64)"/><path d="M273.71876,79.17758c8.0768,1.19955 8.06453,2.36309 6.865,10.43989c-1.19955,8.0768 -2.11729,8.10103 -10.19409,6.90149c-8.0768,-1.19955 -8.97467,-3.00067 -7.77514,-11.07746c1.19955,-8.0768 3.02745,-7.46345 11.10425,-6.26391z" fill="url(#color-65)"/><path d="M269.37638,66.6753c8.0768,1.19955 8.06454,2.36308 6.86499,10.43988c-1.19955,8.0768 -2.11731,8.10105 -10.19411,6.9015c-8.0768,-1.19955 -8.97466,-3.00068 -7.77513,-11.07748c1.19955,-8.0768 3.02744,-7.46344 11.10424,-6.2639z" fill="url(#color-66)"/><path d="M266.18134,73.67701c6.67092,-4.70876 7.46539,-3.85856 12.17414,2.81235c4.70876,6.67092 4.06159,7.32209 -2.60932,12.03085c-6.67092,4.70876 -8.564,4.02575 -13.27276,-2.64517c-4.70876,-6.67092 -2.96298,-7.48927 3.70794,-12.19804z" fill="url(#color-67)"/><path d="M251.61375,77.20114c6.67091,-4.70876 7.46541,-3.85858 12.17416,2.81234c4.70876,6.67091 4.06158,7.3221 -2.60935,12.03087c-6.67092,4.70876 -8.56399,4.02574 -13.27276,-2.64519c-4.70876,-6.67091 -2.96298,-7.48927 3.70794,-12.19802z" fill="url(#color-68)"/><path d="M265.1242,82.67047c6.67091,-4.70876 7.46539,-3.85857 12.17415,2.81235c4.70876,6.67091 4.06159,7.32211 -2.60934,12.03087c-6.67091,4.70876 -8.564,4.02574 -13.27276,-2.64519c-4.70876,-6.67091 -2.96297,-7.48926 3.70794,-12.19801z" fill="url(#color-69)"/></g></g></g></svg>