<svg version="1.1" xmlns="http://www.w3.org/2000/svg" xmlns:xlink="http://www.w3.org/1999/xlink" width="52.78244" height="14.59206" viewBox="0,0,52.78244,14.59206"><defs><linearGradient x1="338.78183" y1="294.21452" x2="338.78183" y2="304.94786" gradientUnits="userSpaceOnUse" id="color-1"><stop offset="0" stop-color="#808080"/><stop offset="1" stop-color="#3e3e3e"/></linearGradient><linearGradient x1="314.45726" y1="294.10738" x2="314.45726" y2="304.84072" gradientUnits="userSpaceOnUse" id="color-2"><stop offset="0" stop-color="#808080"/><stop offset="1" stop-color="#3e3e3e"/></linearGradient><linearGradient x1="326.30647" y1="294.20738" x2="326.30647" y2="304.94072" gradientUnits="userSpaceOnUse" id="color-3"><stop offset="0" stop-color="#808080"/><stop offset="1" stop-color="#3e3e3e"/></linearGradient><linearGradient x1="302.18183" y1="294.21452" x2="302.18183" y2="304.94786" gradientUnits="userSpaceOnUse" id="color-4"><stop offset="0" stop-color="#808080"/><stop offset="1" stop-color="#3e3e3e"/></linearGradient></defs><g transform="translate(-294.00465,-291.35579)"><g data-paper-data="{&quot;isPaintingLayer&quot;:true}" fill-rule="nonzero" stroke="#000000" stroke-width="2" stroke-linecap="butt" stroke-linejoin="miter" stroke-miterlimit="10" stroke-dasharray="" stroke-dashoffset="0" style="mix-blend-mode: normal"><path d="M342.00912,302.01733c0.66211,1.21134 2.37249,2.93053 2.37249,2.93053h-11.19955c0,0 1.5075,-1.37707 2.05532,-2.47968c0.97247,-1.9573 3.27746,-8.25366 3.27746,-8.25366c0,0 2.4139,5.82622 3.49429,7.80281z" data-paper-data="{&quot;index&quot;:null}" fill="url(#color-1)"/><path d="M317.68455,301.91019c0.66211,1.21134 2.37249,2.93053 2.37249,2.93053h-11.19955c0,0 1.5075,-1.37707 2.05532,-2.47968c0.97247,-1.9573 3.27746,-8.25366 3.27746,-8.25366c0,0 2.4139,5.82622 3.49429,7.80281z" data-paper-data="{&quot;index&quot;:null}" fill="url(#color-2)"/><path d="M329.53376,302.01019c0.66211,1.21134 2.37249,2.93053 2.37249,2.93053h-11.19955c0,0 1.5075,-1.37707 2.05532,-2.47968c0.97247,-1.9573 3.27746,-8.25366 3.27746,-8.25366c0,0 2.4139,5.82622 3.49429,7.80281z" data-paper-data="{&quot;index&quot;:null}" fill="url(#color-3)"/><path d="M305.40912,302.01733c0.66211,1.21134 2.37249,2.93053 2.37249,2.93053h-11.19955c0,0 1.5075,-1.37707 2.05532,-2.47968c0.97247,-1.9573 3.27746,-8.25366 3.27746,-8.25366c0,0 2.4139,5.82622 3.49429,7.80281z" data-paper-data="{&quot;index&quot;:null}" fill="url(#color-4)"/></g></g></svg>