<svg version="1.1" xmlns="http://www.w3.org/2000/svg" xmlns:xlink="http://www.w3.org/1999/xlink" width="181.52268" height="204.00442" viewBox="0,0,181.52268,204.00442"><defs><linearGradient x1="268.04972" y1="147.25106" x2="289.56828" y2="140.53214" gradientUnits="userSpaceOnUse" id="color-1"><stop offset="0" stop-color="#0d0d0d"/><stop offset="1" stop-color="#181818"/></linearGradient><linearGradient x1="262.85972" y1="140.9971" x2="282.49791" y2="125.03507" gradientUnits="userSpaceOnUse" id="color-2"><stop offset="0" stop-color="#050505"/><stop offset="1" stop-color="#0b0b0b"/></linearGradient><linearGradient x1="252.35633" y1="229.14784" x2="273.26072" y2="229.14784" gradientUnits="userSpaceOnUse" id="color-3"><stop offset="0" stop-color="#0d0d0d"/><stop offset="1" stop-color="#181818"/></linearGradient><linearGradient x1="218.66252" y1="229.90911" x2="244.6705" y2="229.90911" gradientUnits="userSpaceOnUse" id="color-4"><stop offset="0" stop-color="#0d0d0d"/><stop offset="1" stop-color="#181818"/></linearGradient><linearGradient x1="244.07549" y1="191.63045" x2="271.1092" y2="191.63045" gradientUnits="userSpaceOnUse" id="color-5"><stop offset="0" stop-color="#0d0d0d"/><stop offset="1" stop-color="#181818"/></linearGradient><linearGradient x1="226.74386" y1="192.07023" x2="255.01248" y2="192.07023" gradientUnits="userSpaceOnUse" id="color-6"><stop offset="0" stop-color="#0d0d0d"/><stop offset="1" stop-color="#181818"/></linearGradient><linearGradient x1="223.14735" y1="174.99698" x2="273.22105" y2="174.99698" gradientUnits="userSpaceOnUse" id="color-7"><stop offset="0" stop-color="#050505"/><stop offset="1" stop-color="#0b0b0b"/></linearGradient><linearGradient x1="218.80201" y1="158.54862" x2="269.99523" y2="158.54862" gradientUnits="userSpaceOnUse" id="color-8"><stop offset="0" stop-color="#050505"/><stop offset="1" stop-color="#0b0b0b"/></linearGradient><linearGradient x1="217.4847" y1="146.59214" x2="271.93111" y2="146.59214" gradientUnits="userSpaceOnUse" id="color-9"><stop offset="0" stop-color="#050505"/><stop offset="1" stop-color="#0b0b0b"/></linearGradient><linearGradient x1="228.61776" y1="136.01035" x2="267.52847" y2="136.01035" gradientUnits="userSpaceOnUse" id="color-10"><stop offset="0" stop-color="#050505"/><stop offset="1" stop-color="#0b0b0b"/></linearGradient><linearGradient x1="225.88038" y1="115.90298" x2="258.60303" y2="115.90298" gradientUnits="userSpaceOnUse" id="color-11"><stop offset="0" stop-color="#050505"/><stop offset="1" stop-color="#0b0b0b"/></linearGradient><linearGradient x1="239.43635" y1="102.93552" x2="261.37793" y2="102.93552" gradientUnits="userSpaceOnUse" id="color-12"><stop offset="0" stop-color="#050505"/><stop offset="1" stop-color="#0b0b0b"/></linearGradient><linearGradient x1="251.12904" y1="211.02731" x2="276.22186" y2="211.02731" gradientUnits="userSpaceOnUse" id="color-13"><stop offset="0" stop-color="#050505"/><stop offset="1" stop-color="#0b0b0b"/></linearGradient><linearGradient x1="225.01887" y1="212.44261" x2="248.13722" y2="212.44261" gradientUnits="userSpaceOnUse" id="color-14"><stop offset="0" stop-color="#050505"/><stop offset="1" stop-color="#0b0b0b"/></linearGradient><linearGradient x1="224.76812" y1="172.03318" x2="269.71452" y2="172.03318" gradientUnits="userSpaceOnUse" id="color-15"><stop offset="0" stop-color="#0d0d0d"/><stop offset="1" stop-color="#181818"/></linearGradient><linearGradient x1="217.3213" y1="244.63275" x2="242.50001" y2="244.63275" gradientUnits="userSpaceOnUse" id="color-16"><stop offset="0" stop-color="#050505"/><stop offset="1" stop-color="#0b0b0b"/></linearGradient><linearGradient x1="219.25766" y1="229.98458" x2="243.45669" y2="229.98458" gradientUnits="userSpaceOnUse" id="color-17"><stop offset="0" stop-color="#050505"/><stop offset="1" stop-color="#0b0b0b"/></linearGradient><linearGradient x1="249.09739" y1="195.22342" x2="273.19831" y2="195.22342" gradientUnits="userSpaceOnUse" id="color-18"><stop offset="0" stop-color="#050505"/><stop offset="1" stop-color="#0b0b0b"/></linearGradient><linearGradient x1="224.46749" y1="195.86572" x2="251.19096" y2="195.86572" gradientUnits="userSpaceOnUse" id="color-19"><stop offset="0" stop-color="#050505"/><stop offset="1" stop-color="#0b0b0b"/></linearGradient><linearGradient x1="254.00955" y1="115.86847" x2="251.06174" y2="123.51951" gradientUnits="userSpaceOnUse" id="color-20"><stop offset="0" stop-color="#ff0000"/><stop offset="1" stop-color="#b50a0a"/></linearGradient><radialGradient cx="252.68163" cy="120.01186" r="13.89578" gradientUnits="userSpaceOnUse" id="color-21"><stop offset="0" stop-color="#b50a0a"/><stop offset="1" stop-color="#b50a0a" stop-opacity="0"/></radialGradient><linearGradient x1="275.48697" y1="159.11807" x2="295.17354" y2="154.83766" gradientUnits="userSpaceOnUse" id="color-22"><stop offset="0" stop-color="#0d0d0d"/><stop offset="1" stop-color="#181818"/></linearGradient><linearGradient x1="280.23544" y1="176.15631" x2="301.78951" y2="174.20588" gradientUnits="userSpaceOnUse" id="color-23"><stop offset="0" stop-color="#050505"/><stop offset="1" stop-color="#0b0b0b"/></linearGradient><linearGradient x1="274.50338" y1="154.97216" x2="294.71619" y2="143.67429" gradientUnits="userSpaceOnUse" id="color-24"><stop offset="0" stop-color="#050505"/><stop offset="1" stop-color="#0b0b0b"/></linearGradient><linearGradient x1="249.77762" y1="244.92474" x2="274.95628" y2="244.92474" gradientUnits="userSpaceOnUse" id="color-25"><stop offset="0" stop-color="#050505"/><stop offset="1" stop-color="#0b0b0b"/></linearGradient><linearGradient x1="251.08191" y1="230.36348" x2="272.55927" y2="230.36348" gradientUnits="userSpaceOnUse" id="color-26"><stop offset="0" stop-color="#050505"/><stop offset="1" stop-color="#0b0b0b"/></linearGradient><linearGradient x1="217.31865" y1="239.96971" x2="236.40882" y2="239.96971" gradientUnits="userSpaceOnUse" id="color-27"><stop offset="0" stop-color="#0d0d0d"/><stop offset="1" stop-color="#181818"/></linearGradient><linearGradient x1="249.2719" y1="240.68654" x2="268.50528" y2="240.68654" gradientUnits="userSpaceOnUse" id="color-28"><stop offset="0" stop-color="#0d0d0d"/><stop offset="1" stop-color="#181818"/></linearGradient><radialGradient cx="353.14295" cy="264.25327" r="12.91056" gradientUnits="userSpaceOnUse" id="color-29"><stop offset="0" stop-color="#b50a0a"/><stop offset="1" stop-color="#b50a0a" stop-opacity="0"/></radialGradient><radialGradient cx="350.63029" cy="261.32516" r="12.91057" gradientUnits="userSpaceOnUse" id="color-30"><stop offset="0" stop-color="#b50a0a"/><stop offset="1" stop-color="#b50a0a" stop-opacity="0"/></radialGradient><radialGradient cx="348.11513" cy="258.05818" r="12.91057" gradientUnits="userSpaceOnUse" id="color-31"><stop offset="0" stop-color="#b50a0a"/><stop offset="1" stop-color="#b50a0a" stop-opacity="0"/></radialGradient><radialGradient cx="345.60243" cy="255.13007" r="12.91057" gradientUnits="userSpaceOnUse" id="color-32"><stop offset="0" stop-color="#b50a0a"/><stop offset="1" stop-color="#b50a0a" stop-opacity="0"/></radialGradient><radialGradient cx="343.9273" cy="253.17797" r="12.91057" gradientUnits="userSpaceOnUse" id="color-33"><stop offset="0" stop-color="#b50a0a"/><stop offset="1" stop-color="#b50a0a" stop-opacity="0"/></radialGradient><radialGradient cx="341.41458" cy="250.24986" r="12.91058" gradientUnits="userSpaceOnUse" id="color-34"><stop offset="0" stop-color="#b50a0a"/><stop offset="1" stop-color="#b50a0a" stop-opacity="0"/></radialGradient><radialGradient cx="338.89945" cy="246.9829" r="12.91057" gradientUnits="userSpaceOnUse" id="color-35"><stop offset="0" stop-color="#b50a0a"/><stop offset="1" stop-color="#b50a0a" stop-opacity="0"/></radialGradient><radialGradient cx="336.38675" cy="244.05476" r="12.91057" gradientUnits="userSpaceOnUse" id="color-36"><stop offset="0" stop-color="#b50a0a"/><stop offset="1" stop-color="#b50a0a" stop-opacity="0"/></radialGradient><radialGradient cx="373.16231" cy="285.7974" r="12.91057" gradientUnits="userSpaceOnUse" id="color-37"><stop offset="0" stop-color="#b50a0a"/><stop offset="1" stop-color="#b50a0a" stop-opacity="0"/></radialGradient><radialGradient cx="369.70426" cy="283.62962" r="12.91057" gradientUnits="userSpaceOnUse" id="color-38"><stop offset="0" stop-color="#b50a0a"/><stop offset="1" stop-color="#b50a0a" stop-opacity="0"/></radialGradient><radialGradient cx="367.81939" cy="279.85577" r="12.91057" gradientUnits="userSpaceOnUse" id="color-39"><stop offset="0" stop-color="#b50a0a"/><stop offset="1" stop-color="#b50a0a" stop-opacity="0"/></radialGradient><radialGradient cx="364.20372" cy="277.81469" r="12.91056" gradientUnits="userSpaceOnUse" id="color-40"><stop offset="0" stop-color="#b50a0a"/><stop offset="1" stop-color="#b50a0a" stop-opacity="0"/></radialGradient><radialGradient cx="364.67002" cy="276.91201" r="12.91057" gradientUnits="userSpaceOnUse" id="color-41"><stop offset="0" stop-color="#b50a0a"/><stop offset="1" stop-color="#b50a0a" stop-opacity="0"/></radialGradient><radialGradient cx="360.15122" cy="273.10281" r="12.91057" gradientUnits="userSpaceOnUse" id="color-42"><stop offset="0" stop-color="#b50a0a"/><stop offset="1" stop-color="#b50a0a" stop-opacity="0"/></radialGradient><radialGradient cx="359.91291" cy="271.05355" r="12.91057" gradientUnits="userSpaceOnUse" id="color-43"><stop offset="0" stop-color="#b50a0a"/><stop offset="1" stop-color="#b50a0a" stop-opacity="0"/></radialGradient><radialGradient cx="354.98802" cy="266.73939" r="12.91057" gradientUnits="userSpaceOnUse" id="color-44"><stop offset="0" stop-color="#b50a0a"/><stop offset="1" stop-color="#b50a0a" stop-opacity="0"/></radialGradient><radialGradient cx="314.94011" cy="218.39042" r="12.91057" gradientUnits="userSpaceOnUse" id="color-45"><stop offset="0" stop-color="#b50a0a"/><stop offset="1" stop-color="#b50a0a" stop-opacity="0"/></radialGradient><radialGradient cx="312.4274" cy="215.4623" r="12.91057" gradientUnits="userSpaceOnUse" id="color-46"><stop offset="0" stop-color="#b50a0a"/><stop offset="1" stop-color="#b50a0a" stop-opacity="0"/></radialGradient><radialGradient cx="309.91231" cy="212.19536" r="12.91057" gradientUnits="userSpaceOnUse" id="color-47"><stop offset="0" stop-color="#b50a0a"/><stop offset="1" stop-color="#b50a0a" stop-opacity="0"/></radialGradient><radialGradient cx="307.39957" cy="209.26723" r="12.91058" gradientUnits="userSpaceOnUse" id="color-48"><stop offset="0" stop-color="#b50a0a"/><stop offset="1" stop-color="#b50a0a" stop-opacity="0"/></radialGradient><radialGradient cx="305.72443" cy="207.31513" r="12.91057" gradientUnits="userSpaceOnUse" id="color-49"><stop offset="0" stop-color="#b50a0a"/><stop offset="1" stop-color="#b50a0a" stop-opacity="0"/></radialGradient><radialGradient cx="303.21173" cy="204.38702" r="12.91057" gradientUnits="userSpaceOnUse" id="color-50"><stop offset="0" stop-color="#b50a0a"/><stop offset="1" stop-color="#b50a0a" stop-opacity="0"/></radialGradient><radialGradient cx="300.69663" cy="201.12005" r="12.91057" gradientUnits="userSpaceOnUse" id="color-51"><stop offset="0" stop-color="#b50a0a"/><stop offset="1" stop-color="#b50a0a" stop-opacity="0"/></radialGradient><radialGradient cx="298.18392" cy="198.19193" r="12.91057" gradientUnits="userSpaceOnUse" id="color-52"><stop offset="0" stop-color="#b50a0a"/><stop offset="1" stop-color="#b50a0a" stop-opacity="0"/></radialGradient><radialGradient cx="333.54142" cy="241.07504" r="12.91058" gradientUnits="userSpaceOnUse" id="color-53"><stop offset="0" stop-color="#b50a0a"/><stop offset="1" stop-color="#b50a0a" stop-opacity="0"/></radialGradient><radialGradient cx="331.02871" cy="238.14695" r="12.91057" gradientUnits="userSpaceOnUse" id="color-54"><stop offset="0" stop-color="#b50a0a"/><stop offset="1" stop-color="#b50a0a" stop-opacity="0"/></radialGradient><radialGradient cx="328.51358" cy="234.87999" r="12.91057" gradientUnits="userSpaceOnUse" id="color-55"><stop offset="0" stop-color="#b50a0a"/><stop offset="1" stop-color="#b50a0a" stop-opacity="0"/></radialGradient><radialGradient cx="326.00087" cy="231.95187" r="12.91057" gradientUnits="userSpaceOnUse" id="color-56"><stop offset="0" stop-color="#b50a0a"/><stop offset="1" stop-color="#b50a0a" stop-opacity="0"/></radialGradient><radialGradient cx="324.32573" cy="229.99975" r="12.91058" gradientUnits="userSpaceOnUse" id="color-57"><stop offset="0" stop-color="#b50a0a"/><stop offset="1" stop-color="#b50a0a" stop-opacity="0"/></radialGradient><radialGradient cx="321.81302" cy="227.07164" r="12.91057" gradientUnits="userSpaceOnUse" id="color-58"><stop offset="0" stop-color="#b50a0a"/><stop offset="1" stop-color="#b50a0a" stop-opacity="0"/></radialGradient><radialGradient cx="319.29791" cy="223.8047" r="12.91057" gradientUnits="userSpaceOnUse" id="color-59"><stop offset="0" stop-color="#b50a0a"/><stop offset="1" stop-color="#b50a0a" stop-opacity="0"/></radialGradient><radialGradient cx="316.78519" cy="220.87657" r="12.91057" gradientUnits="userSpaceOnUse" id="color-60"><stop offset="0" stop-color="#b50a0a"/><stop offset="1" stop-color="#b50a0a" stop-opacity="0"/></radialGradient><linearGradient x1="340.37668" y1="240.75736" x2="333.95223" y2="245.92441" gradientUnits="userSpaceOnUse" id="color-61"><stop offset="0" stop-color="#400000"/><stop offset="1" stop-color="#ff0000"/></linearGradient><linearGradient x1="300.00822" y1="197.20751" x2="297.21638" y2="193.73628" gradientUnits="userSpaceOnUse" id="color-62"><stop offset="0" stop-color="#0d0d0d"/><stop offset="1" stop-color="#181818"/></linearGradient><linearGradient x1="243.3775" y1="159.19793" x2="247.25351" y2="134.99172" gradientUnits="userSpaceOnUse" id="color-63"><stop offset="0" stop-color="#0d0d0d"/><stop offset="1" stop-color="#181818"/></linearGradient><linearGradient x1="201.96065" y1="148.59713" x2="235.71985" y2="124.50494" gradientUnits="userSpaceOnUse" id="color-64"><stop offset="0" stop-color="#050505"/><stop offset="1" stop-color="#0b0b0b"/></linearGradient><linearGradient x1="261.10884" y1="170.85267" x2="282.15352" y2="157.05693" gradientUnits="userSpaceOnUse" id="color-65"><stop offset="0" stop-color="#0d0d0d"/><stop offset="1" stop-color="#181818"/></linearGradient><linearGradient x1="251.3877" y1="163.7174" x2="270.21506" y2="135.88" gradientUnits="userSpaceOnUse" id="color-66"><stop offset="0" stop-color="#050505"/><stop offset="1" stop-color="#0b0b0b"/></linearGradient><linearGradient x1="266.78292" y1="173.13477" x2="294.3584" y2="176.12646" gradientUnits="userSpaceOnUse" id="color-67"><stop offset="0" stop-color="#050505"/><stop offset="1" stop-color="#0b0b0b"/></linearGradient></defs><g transform="translate(-209.14083,-92.94064)"><g data-paper-data="{&quot;isPaintingLayer&quot;:true}" fill-rule="nonzero" stroke-linejoin="miter" stroke-miterlimit="10" stroke-dasharray="" stroke-dashoffset="0" style="mix-blend-mode: normal"><g><path d="M210.39083,224.39567l52.53615,-114.7469l11.87672,5.66982l-52.53615,114.74691c0,0 -5.13711,2.6005 -8.0106,1.22873c-2.87349,-1.37177 -3.86612,-6.89855 -3.86612,-6.89855z" fill="#0d0d0d" stroke="#000000" stroke-width="2.5" stroke-linecap="butt"/><path d="M249.12991,171.11775l-7.20177,-3.33553l12.89739,-27.84686l4.13357,-1.58417l7.55385,-16.30957l-1.64904,-4.172l-4.22396,-1.82371l2.08759,-4.71608l11.42707,5.09812z" fill="#050505" stroke="#000000" stroke-width="2.5" stroke-linecap="round"/><path d="M259.17557,110.52334c0,0 -0.40317,-1.69388 -0.03147,-2.48904c0.3717,-0.79516 2.00437,-1.73149 2.00437,-1.73149l18.83486,8.64396c0,0 0.38908,1.72406 -0.03654,2.63458c-0.42562,0.91052 -1.93635,1.58594 -1.93635,1.58594z" fill="#000000" stroke="none" stroke-width="0" stroke-linecap="butt"/><path d="M278.93431,116.57666l1.4796,7.30806l-3.42279,7.80931c0,0 -2.46812,-0.11636 -3.60999,-0.64522c-1.29898,-0.60163 -3.77348,-2.77446 -3.77348,-2.77446" fill="none" stroke="#000000" stroke-width="3.5" stroke-linecap="round"/><path d="M275.80206,125.42244c0,0 -1.80801,0.68796 -2.73306,0.68428c-1.01281,-0.00403 -3.10442,-0.7075 -3.10442,-0.7075" fill="none" stroke="#000000" stroke-width="2.5" stroke-linecap="round"/><path d="M235.11575,170.93731l5.3354,2.47111l-6.36998,13.75347l-7.83834,2.77755z" fill="#050505" stroke="#000000" stroke-width="2.5" stroke-linecap="round"/><path d="M221.97853,230.3927c0,0 -5.11706,2.79324 -7.9861,1.2012c-2.86904,-1.59205 -3.46032,-7.55288 -3.46032,-7.55288l0.63808,-1.38138l4.30192,1.98732l4.40195,-1.36953l6.91124,-14.9221l-1.55944,-4.25021l4.00869,-8.6552l1.73478,-0.63651l8.31259,-2.55789z" fill="#070707" stroke="#000000" stroke-width="2.5" stroke-linecap="round"/></g><path d="M264.7489,138.43679c-2.36615,-6.57971 6.25907,-8.74362 11.89486,-10.40322c5.63579,-1.65959 14.30739,15.93384 16.67357,22.51354c2.36613,6.5797 -4.76657,6.5939 -10.40237,8.25352c-5.63579,1.65961 -15.79989,-13.78411 -18.16606,-20.36384z" data-paper-data="{&quot;index&quot;:null}" fill="url(#color-1)" stroke="#000000" stroke-width="2" stroke-linecap="butt"/><path d="M278.53147,134.32934c-1.18923,-0.4449 -5.96686,4.56447 -6.20214,4.34282c-1.91289,-1.80211 -12.10818,-1.65879 -12.83304,-2.75318c-2.21219,-3.34007 -1.04097,-5.40974 -1.04097,-5.40974c0,0 0.58633,0.23947 2.15771,0.5951c1.94262,0.43969 8.93705,-5.66351 11.83461,-6.07058c5.37611,-0.75526 11.75836,6.18996 12.71832,7.63932c0.9551,1.44206 4.08984,0.64938 3.06946,1.73078c-1.21764,1.29049 -4.64609,2.36463 -4.64609,2.36463c0,0 -2.32938,-1.41841 -5.05789,-2.43915z" data-paper-data="{&quot;index&quot;:null}" fill="url(#color-2)" stroke="#000000" stroke-width="2" stroke-linecap="butt"/><path d="M252.35633,245.73394c0,0 0.19852,-8.55104 1.38882,-13.71339c1.44892,-6.28392 0.25938,-22.16945 0.25938,-22.16945l19.25626,5.39709c0,0 -5.15498,12.92962 -6.70139,19.15803c-0.74304,2.99272 -2.49826,8.70797 -3.3447,11.54434c-0.64844,2.17292 1.56926,2.49403 1.56926,2.49403c0,0 -5.9345,-1.99421 -8.389,-2.36376c-2.21524,-0.33353 -4.03864,-0.34687 -4.03864,-0.34687z" fill="url(#color-3)" stroke="#000000" stroke-width="2" stroke-linecap="butt"/><path d="M218.66252,245.73642c0,0 2.07196,-9.30716 3.85733,-14.10013c2.17321,-5.83426 4.3477,-19.69113 4.3477,-19.69113c0,0 9.12123,-1.06136 11.26208,-0.25779c3.28691,1.23373 6.54087,6.94003 6.54087,6.94003c0,0 -6.2958,9.9344 -8.55943,15.70563c-1.08765,2.77304 -3.75473,8.89458 -4.92686,11.50795c-0.89798,2.00208 0.3869,2.59056 0.3869,2.59056c0,0 -5.6639,-2.51847 -8.05963,-3.12651c-2.16218,-0.54875 -4.84894,0.43137 -4.84894,0.43137z" fill="url(#color-4)" stroke="#000000" stroke-width="2" stroke-linecap="butt"/><path d="M253.70357,210.48005l-9.62808,-37.31619l24.62305,-0.38301l2.4107,35.75734z" data-paper-data="{&quot;index&quot;:null}" fill="url(#color-5)" stroke="#000000" stroke-width="2" stroke-linecap="butt"/><path d="M226.74386,210.72127l0.12798,-37.30209l28.14064,0.38301l-9.22714,36.63304z" fill="url(#color-6)" stroke="#000000" stroke-width="2" stroke-linecap="butt"/><path d="M223.14735,184.34671l4.00039,-18.52536l39.31412,-2.06721l6.75928,20.59256c0,0 -12.04391,2.39249 -13.0729,1.7983c-1.12221,-0.64802 -3.86044,-13.29454 -4.49228,-13.18316c-1.00223,0.17666 -1.77827,13.08135 -2.90801,13.14121c-4.84922,0.25688 -10.05175,-0.04691 -12.56447,-0.04691c-9.23661,0 -17.03613,-1.70943 -17.03613,-1.70943z" fill="url(#color-7)" stroke="#000000" stroke-width="2" stroke-linecap="butt"/><path d="M269.91045,153.19189c0.41549,2.09214 -0.77823,0.21406 -1.8017,4.12045c-0.27856,1.06328 0.38855,11.18137 0.02358,12.1099c-1.30274,3.31458 -11.53288,1.66588 -11.53288,1.66588c0,0 -10.28101,0.68487 -17.71984,-0.03111c-7.0427,-0.67785 -12.49059,-1.60759 -12.49059,-1.60759c0,0 -2.3633,-5.19414 -3.38571,-7.68453c-1.02241,-2.49039 -3.19977,-7.14184 -4.20131,-11.34106c0,0 21.25847,-3.49429 36.50433,-4.77394c8.31938,-0.69827 14.29661,5.99373 14.6041,7.542z" fill="url(#color-8)" stroke="#000000" stroke-width="2" stroke-linecap="butt"/><path d="M271.84169,144.12294c0.41549,2.09213 -0.66581,10.24573 -2.21552,11.88678c-0.6796,0.71966 0.34261,3.84632 -1.74014,4.78794c-4.01228,1.81397 -12.57056,5.246 -12.57056,5.246c0,0 -15.46288,-3.80982 -24.69227,-4.77925c-5.59527,-0.58772 -1.11313,-3.6446 -4.47902,-5.17345c-1.78763,-0.81199 -6.23974,-1.18899 -6.38254,-1.47929c-1.20257,-2.44462 -0.78574,-0.66989 -1.78729,-4.86913c-1.05996,-4.44417 -0.06891,-3.86697 -0.06891,-6.75865c0,-8.52127 9.31125,-15.84333 9.31125,-15.84333l38.99422,5.21908c0,0 4.75979,7.37776 5.63076,11.76331z" fill="url(#color-9)" stroke="#000000" stroke-width="2" stroke-linecap="butt"/><path d="M234.32085,140.97287c-1.59411,-0.0758 -4.8926,-0.15082 -5.55365,-1.24238c-0.74698,-1.23344 1.54076,-10.86086 1.70754,-11.6386c0.36477,-1.7009 22.92839,-0.58068 26.05515,-0.58068c1.6816,0 13.86237,3.6088 10.37372,7.20745c-0.94987,0.97982 0.76245,2.84793 -1.25676,3.83107c-4.34323,2.11469 -7.80272,5.56133 -9.82352,6.29386c-2.4811,0.41031 -21.00143,-3.84687 -21.50248,-3.8707z" fill="url(#color-10)" stroke="#000000" stroke-width="2" stroke-linecap="butt"/><path d="M239.27082,101.70847c2.28053,-0.10414 19.42058,3.03674 19.33192,4.32696c-0.47695,6.93933 -6.75003,24.06458 -16.00647,24.06458c-4.91206,0 -13.32723,-0.91598 -13.32723,-0.91598c0,0 -3.38866,-12.96426 -3.38866,-16.22545c0,-3.26119 13.39043,-11.25009 13.39043,-11.25009z" fill="url(#color-11)" stroke="#000000" stroke-width="2" stroke-linecap="butt"/><path d="M242.11496,94.71299c4.74337,-0.21357 17.56143,10.40572 17.50759,11.18931c-0.07474,1.08728 1.75543,2.39336 1.75543,2.39336l-11.28836,2.86556c0,0 0.8316,-5.16878 -0.82662,-6.67507c0,0 -2.6008,-1.42409 -5.75939,-1.8489c-1.54308,-0.20754 -4.30131,-0.92038 -4.05138,-1.23946c0.34411,-0.43928 4.1667,-1.94732 4.56366,-2.74593c0.59523,-1.1975 -1.90097,-3.93888 -1.90097,-3.93888z" fill="url(#color-12)" stroke="#000000" stroke-width="2" stroke-linecap="butt"/><path d="M231.69933,116.6076l1.45379,-2.00606c0,0 3.33643,1.84276 5.41314,1.04071c5.44136,-2.10151 8.23969,-3.65283 13.71828,-5.69913c3.02499,-1.12987 9.8708,-0.83887 9.8708,-0.83887c0,0 -0.34224,0.24977 -0.84083,3.45537c-0.4986,3.20561 -0.82733,5.36274 -0.82733,5.36274c0,0 -2.35056,8.19971 -5.03504,10.86326c-2.04878,2.0328 -4.74104,3.15363 -4.74104,3.15363l-11.88948,-2.90062c0,0 -0.92524,-5.47614 -2.10244,-7.35331z" fill="#000000" stroke="#000000" stroke-width="1.5" stroke-linecap="butt"/><path d="M259.74996,117.4159c0.19876,1.16981 -2.18343,6.49989 -2.18343,6.49989c0,0 -0.5794,2.50747 -2.29843,4.28616c-0.96659,1.1683 -4.37969,2.57042 -4.37969,2.57042c0,0 3.10555,-6.27437 4.73372,-11.49278c0.21787,-0.69828 0.63195,-1.20473 2.71571,-4.61229c1.81131,-2.96202 2.57551,-2.35613 2.57551,-2.35613c0,0 -0.92073,4.07766 -1.16338,5.1047z" fill="#000000" stroke="#000000" stroke-width="1.5" stroke-linecap="butt"/><path d="M256.43944,208.71773c1.98991,-1.30575 4.20666,-3.36318 6.8711,-4.14382c5.40805,-1.58446 9.08934,-1.78869 11.36065,2.5799c2.27132,4.36858 2.59415,9.54547 -2.81392,11.12993c-4.19261,1.22836 -11.08121,-2.70092 -14.85785,-5.34094c-0.72798,-0.50888 -3.79748,0.493 -5.15721,-0.05421c-0.68528,-0.27578 -0.34613,-1.25987 -0.51719,-1.58888c-1.15229,-2.21627 3.0654,-1.23744 5.11443,-2.582z" data-paper-data="{&quot;index&quot;:null}" fill="url(#color-13)" stroke="#000000" stroke-width="2" stroke-linecap="butt"/><path d="M230.66087,208.3764c2.19289,-0.90515 4.79846,-2.47105 7.47357,-2.78793c5.42971,-0.64317 8.74117,-0.47166 9.66315,3.91441c0.92198,4.38607 0.21212,9.38818 -5.21759,10.03134c-4.20938,0.4986 -8.86426,-3.85799 -11.64505,-6.87412c-0.32284,-0.35017 -4.07725,0.55348 -5.57462,-0.06951c-0.56679,-0.2358 -0.25091,-1.3674 -0.2764,-1.48866c-0.46774,-2.22513 3.31887,-1.79349 5.57694,-2.72553z" data-paper-data="{&quot;index&quot;:null}" fill="url(#color-14)" stroke="#000000" stroke-width="2" stroke-linecap="butt"/><path d="M224.76819,173.43619c0,0 -0.00748,-1.51106 0.12892,-2.27902c0.13942,-0.78492 0.69876,-2.38078 0.69876,-2.38078c0,0 7.15917,1.05794 15.2409,1.69654c6.02897,0.47638 12.81605,0.58161 16.2104,0.58161c5.33618,0 11.58731,-1.76037 11.58731,-1.76037c0,0 0.90416,1.1461 1.0271,1.68442c0.1482,0.64897 -0.06148,2.35409 -0.06148,2.35409c0,0 -6.75601,1.77632 -11.58634,1.78773c-3.6964,0.00873 -10.99143,0.3803 -17.80844,-0.00488c-8.05205,-0.45496 -15.43712,-1.6793 -15.43712,-1.6793z" fill="url(#color-15)" stroke="#000000" stroke-width="2" stroke-linecap="butt"/><path d="M251.15005,175.45544c0,0 -0.41051,-1.17204 -0.5048,-1.70293c-0.15251,-0.85865 -0.04699,-2.95687 -0.04699,-2.95687c0,0 3.01256,-0.2071 4.41421,-0.2071c1.35568,0 3.86244,0.2071 3.86244,0.2071c0,0 0.55176,1.37226 0.55176,2.07103c0,0.71602 -0.27589,2.17457 -0.27589,2.17457c0,0 -2.39944,0.70559 -3.40591,0.75955c-1.422,0.07626 -4.59488,-0.34534 -4.59488,-0.34534z" fill="#060606" stroke="#000000" stroke-width="2" stroke-linecap="butt"/><path d="M217.78103,251.68745l-0.45973,-7.88836l2.57823,-6.4497l13.97429,2.9044l0.13771,3.18065c0,0 7.27072,5.05523 8.1505,5.19207c1.33914,0.20829 -1.73314,3.2896 -1.73314,3.2896z" fill="url(#color-16)" stroke="#000000" stroke-width="2" stroke-linecap="butt"/><path d="M223.63781,219.62332c0,0 7.32375,-0.14216 10.59776,0.51112c3.33128,0.66471 9.22112,3.44346 9.22112,3.44346l-7.46756,16.78102c0,0 -6.40088,-0.42925 -9.32051,-1.15302c-2.62642,-0.65106 -7.41097,-2.99461 -7.41097,-2.99461z" fill="url(#color-17)" stroke="#000000" stroke-width="2" stroke-linecap="butt"/><path d="M250.30261,202.52903l-1.18906,-5.30443l-0.01616,-6.15706c0,0 7.99965,-2.39951 11.69722,-2.92266c4.07035,-0.57588 11.71417,-0.38958 11.71417,-0.38958l0.68956,5.91016l-1.00554,5.49384c0,0 -6.76982,2.72798 -10.3972,3.28637c-3.66888,0.56477 -11.493,0.08335 -11.493,0.08335z" fill="url(#color-18)" stroke="#000000" stroke-width="2" stroke-linecap="butt"/><path d="M225.15563,201.30137l-0.68814,-5.29685l0.69148,-5.95494c0,0 9.01627,-1.18614 13.11628,-1.16787c4.51333,0.02011 12.84305,1.28353 12.84305,1.28353l0.07267,5.81168l-1.73131,5.16896c0,0 -7.71049,1.67797 -11.73785,1.70374c-4.07344,0.02606 -12.56614,-1.54824 -12.56614,-1.54824z" fill="url(#color-19)" stroke="#000000" stroke-width="2" stroke-linecap="butt"/><path d="M249.03233,118.58667c0.81401,-2.11279 3.0424,-3.32974 4.9772,-2.7182c1.93483,0.61155 2.84342,2.82005 2.0294,4.93282c-0.81401,2.11279 -3.0424,3.32974 -4.97722,2.7182c-1.93483,-0.61155 -2.84341,-2.82005 -2.02938,-4.93282z" fill="url(#color-20)" stroke="#000000" stroke-width="0" stroke-linecap="butt"/><path d="M239.39002,120.01186c0,-6.31705 5.95087,-11.43802 13.29163,-11.43802c7.34076,0 13.29163,5.12098 13.29163,11.43802c0,6.31705 -5.95086,11.43803 -13.29163,11.43803c-7.34077,0 -13.29163,-5.12099 -13.29163,-11.43803z" fill="url(#color-21)" stroke="#000000" stroke-width="0" stroke-linecap="butt"/><path d="M291.6276,142.94045c0.9266,1.28129 2.38459,4.24363 3.76783,7.04c1.60547,3.24562 5.17009,12.21703 5.17406,15.43084c0.00673,5.45406 -6.67993,3.24298 -9.5195,4.91399c-5.95437,3.50411 -5.06179,2.93413 -8.88897,-2.35808c-1.7385,-2.404 -3.92439,-3.12479 -5.72283,-6.98198c-2.16064,-4.63398 -3.56363,-12.39026 -0.31406,-14.30256c0,0 11.67631,-9.03442 15.50349,-3.74224z" data-paper-data="{&quot;index&quot;:null}" fill="url(#color-22)" stroke="#000000" stroke-width="2" stroke-linecap="butt"/><path d="M279.09062,161.66149c0.60531,-0.1298 5.45609,-3.63841 11.03499,-3.78315c3.69052,-0.09579 8.43336,2.70765 9.84594,3.81765c3.3224,2.61077 -4.87464,13.62824 -4.10983,13.99038c1.74375,0.82569 1.94866,2.33788 2.40055,4.14337c0.54787,2.18887 0.17033,6.90043 -1.3152,8.86847c-0.8511,1.12756 -2.14485,0.06408 -3.63637,0.38389c-1.18723,0.25455 -3.15208,1.99882 -4.41909,0.28121c-1.23257,-1.67095 -1.76993,-6.79076 -2.74059,-7.54749c-0.61894,-0.48249 1.36429,4.07944 0.94959,4.58906c-0.57236,0.70337 -3.45344,-2.54075 -3.6673,-3.39529c-0.58656,-2.34353 -2.36733,-4.35748 -0.36023,-5.90988c0,0 -5.29014,-15.15781 -3.98251,-15.43822z" data-paper-data="{&quot;index&quot;:null}" fill="url(#color-23)" stroke="#000000" stroke-width="2" stroke-linecap="butt"/><path d="M292.84856,140.333c0.6652,1.19012 -0.52967,3.1763 -0.54365,4.6836c-0.04831,5.19922 -0.83981,11.34252 -5.36365,13.87109c-5.83532,3.26161 -10.85849,-1.08985 -13.81829,-6.38517c-2.95982,-5.29535 -1.3029,-7.90289 4.53242,-11.16451c2.87496,-1.60694 7.1537,-1.05006 10.07761,-1.68661c3.01081,-0.65545 3.61399,-2.00484 5.11557,0.68159z" data-paper-data="{&quot;index&quot;:null}" fill="url(#color-24)" stroke="#000000" stroke-width="2" stroke-linecap="butt"/><path d="M250.23735,251.97943l-0.45973,-7.88836l2.57824,-6.4497l13.69395,1.1617l0.41803,4.92337c0,0 7.27073,5.05523 8.1505,5.19207c1.33914,0.20829 -1.73314,3.2896 -1.73314,3.2896z" fill="url(#color-25)" stroke="#000000" stroke-width="2" stroke-linecap="butt"/><path d="M252.91704,221.00122c0,0 7.24515,-0.89217 10.59255,-0.57974c3.40593,0.31788 9.04974,2.47093 9.04974,2.47093l-5.48998,17.4161c0,0 -5.17448,0.23057 -8.18092,-0.18814c-2.70451,-0.37664 -7.80652,-2.21122 -7.80652,-2.21122z" fill="url(#color-26)" stroke="#000000" stroke-width="2" stroke-linecap="butt"/><path d="M228.84134,239.09441c2.55065,0.35142 7.06808,0.23899 7.06808,0.23899c0,0 0.59389,1.50881 0.48639,2.28905c-0.09993,0.7253 -0.85125,1.57395 -0.85125,1.57395c0,0 -5.10807,-0.07574 -7.86863,-0.45608c-3.01867,-0.4159 -9.33112,-2.47468 -9.33112,-2.47468c0,0 -1.13265,-1.62438 -1.01803,-2.45633c0.08289,-0.6016 1.8636,-1.06628 1.8636,-1.06628c0,0 6.51932,1.91993 9.65095,2.35139z" data-paper-data="{&quot;index&quot;:null}" fill="url(#color-27)" stroke="#000000" stroke-width="2" stroke-linecap="butt"/><path d="M260.83682,239.71925c2.56414,0.23343 7.07159,-0.08719 7.07159,-0.08719c0,0 0.66282,1.47981 0.59142,2.26418c-0.06637,0.72914 -0.77776,1.61154 -0.77776,1.61154c0,0 -5.10612,0.15989 -7.88129,-0.09275c-3.03464,-0.27625 -9.4353,-2.04176 -9.4353,-2.04176c0,0 -1.20636,-1.57041 -1.13022,-2.40678c0.05506,-0.60478 1.81244,-1.15108 1.81244,-1.15108c0,0 6.60092,1.61725 9.74911,1.90385z" data-paper-data="{&quot;index&quot;:null}" fill="url(#color-28)" stroke="#000000" stroke-width="2" stroke-linecap="butt"/><g><g stroke="none" stroke-width="0" stroke-linecap="butt"><g><g><g><path d="M366.50853,252.62689c5.45842,6.36082 5.52179,15.31132 0.14155,19.99143c-5.38025,4.68013 -14.16669,3.31768 -19.62511,-3.04314c-5.45842,-6.36082 -5.52183,-15.3113 -0.14158,-19.99145c5.38025,-4.68013 14.1667,-3.31767 19.62511,3.04314z" fill="url(#color-29)"/><path d="M363.99581,249.6988c5.45842,6.36082 5.52181,15.3113 0.14156,19.99146c-5.38025,4.68013 -14.16669,3.31766 -19.62511,-3.04314c-5.45842,-6.36082 -5.52179,-15.31131 -0.14157,-19.99145c5.38025,-4.68013 14.1667,-3.31767 19.62512,3.04313z" fill="url(#color-30)"/><path d="M361.48071,246.43181c5.45842,6.36082 5.52179,15.31131 0.14157,19.99145c-5.38025,4.68013 -14.1667,3.3177 -19.62512,-3.04311c-5.45842,-6.36082 -5.5218,-15.31133 -0.14156,-19.99143c5.38025,-4.68013 14.16672,-3.31768 19.62513,3.04316z" fill="url(#color-31)"/><path d="M358.96797,243.50366c5.45842,6.36082 5.52181,15.31133 0.14155,19.99145c-5.38025,4.68013 -14.16671,3.31769 -19.62513,-3.04313c-5.45842,-6.36082 -5.52179,-15.31132 -0.14156,-19.99146c5.38025,-4.68013 14.1667,-3.31768 19.62514,3.04311z" fill="url(#color-32)"/></g><g><path d="M357.29284,241.55158c5.45842,6.36082 5.52179,15.31132 0.14154,19.99145c-5.38025,4.68013 -14.16668,3.3177 -19.62511,-3.04313c-5.45842,-6.36082 -5.52179,-15.31132 -0.14157,-19.99146c5.38025,-4.68013 14.1667,-3.31767 19.62511,3.04314z" fill="url(#color-33)"/><path d="M354.78014,238.62348c5.45842,6.36082 5.5218,15.31131 0.14157,19.99145c-5.38025,4.68013 -14.1667,3.31768 -19.62511,-3.04313c-5.45842,-6.36082 -5.52179,-15.31131 -0.14157,-19.99144c5.38025,-4.68013 14.1667,-3.3177 19.62512,3.04313z" fill="url(#color-34)"/><path d="M352.26501,235.35648c5.45842,6.36082 5.52179,15.31131 0.14157,19.99144c-5.38025,4.68013 -14.16672,3.31768 -19.62513,-3.04313c-5.45842,-6.36082 -5.52179,-15.31131 -0.14154,-19.99145c5.38025,-4.68013 14.16671,-3.31768 19.62512,3.04312z" fill="url(#color-35)"/><path d="M349.75231,232.42836c5.45842,6.36082 5.52179,15.31132 0.14154,19.99146c-5.38025,4.68013 -14.1667,3.31769 -19.62513,-3.04313c-5.45842,-6.36082 -5.5218,-15.3113 -0.14156,-19.99143c5.38025,-4.68013 14.1667,-3.31769 19.62511,3.04312z" fill="url(#color-36)"/></g></g><g><g><path d="M386.52787,274.171c5.45842,6.36082 5.5218,15.3113 0.14157,19.99147c-5.38025,4.68013 -14.1667,3.3177 -19.62512,-3.04311c-5.45842,-6.36082 -5.52181,-15.31132 -0.14156,-19.99146c5.38025,-4.68013 14.1667,-3.31768 19.62513,3.04314z" fill="url(#color-37)"/><path d="M383.0698,272.00323c5.45842,6.36082 5.52179,15.31132 0.14157,19.99147c-5.38025,4.68013 -14.16671,3.31768 -19.62513,-3.04314c-1.73253,-2.01896 -2.78619,-4.13053 -3.43007,-6.45192c-1.38479,-4.99223 -0.38398,-10.34489 3.28853,-13.53952c5.38025,-4.68013 14.1667,-3.31766 19.62511,3.04314z" fill="url(#color-38)"/><path d="M381.18492,268.22936c5.45842,6.36082 5.5218,15.31131 0.14157,19.99145c-5.38025,4.68013 -14.1667,3.31768 -19.62513,-3.04314c-5.45842,-6.36082 -5.5218,-15.3113 -0.14155,-19.99142c5.38025,-4.68013 14.16669,-3.3177 19.62511,3.04312z" fill="url(#color-39)"/><path d="M377.56924,266.18829c5.45842,6.36082 5.52182,15.31132 0.14157,19.99145c-5.38025,4.68014 -14.16671,3.31768 -19.62513,-3.04313c-5.45842,-6.36082 -5.5218,-15.31131 -0.14157,-19.99145c5.38025,-4.68013 14.16672,-3.31769 19.62514,3.04313z" fill="url(#color-40)"/></g><g><path d="M378.03555,265.28564c5.45842,6.36082 5.5218,15.31134 0.14155,19.99146c-5.38025,4.68014 -14.16671,3.31769 -19.62513,-3.04312c-5.45842,-6.36082 -5.52179,-15.31131 -0.14157,-19.99144c5.38025,-4.68013 14.16671,-3.3177 19.62513,3.04313z" fill="url(#color-41)"/><path d="M373.51675,261.4764c5.45842,6.36082 5.52179,15.31132 0.14157,19.99146c-5.38025,4.68013 -14.1667,3.31766 -19.62511,-3.04314c-5.45842,-6.36082 -5.5218,-15.31131 -0.14157,-19.99144c5.38025,-4.68013 14.1667,-3.31768 19.62512,3.04313z" fill="url(#color-42)"/><path d="M373.27846,259.42715c5.45842,6.36082 5.52181,15.31129 0.14157,19.99144c-5.38025,4.68013 -14.16671,3.31768 -19.62513,-3.04314c-5.45842,-6.36082 -5.5218,-15.31129 -0.14155,-19.99145c5.38025,-4.68013 14.1667,-3.31768 19.62512,3.04315z" fill="url(#color-43)"/><path d="M368.35358,255.11301c5.45842,6.36082 5.52181,15.31129 0.14157,19.99144c-5.38025,4.68013 -14.1667,3.3177 -19.62512,-3.04311c-5.45842,-6.36082 -5.52179,-15.31132 -0.14157,-19.99146c5.38025,-4.68013 14.16671,-3.31768 19.62512,3.04313z" fill="url(#color-44)"/></g></g></g><g><g><g><path d="M328.30568,206.76405c5.45842,6.36082 5.52181,15.3113 0.14157,19.99146c-5.38025,4.68013 -14.1667,3.31768 -19.62511,-3.04314c-5.45842,-6.36082 -5.52179,-15.31133 -0.14155,-19.99146c5.38025,-4.68013 14.16669,-3.3177 19.62511,3.04314z" fill="url(#color-45)"/><path d="M325.79294,203.83592c5.45842,6.36082 5.5218,15.31131 0.14157,19.99144c-5.38025,4.68013 -14.1667,3.31769 -19.62513,-3.04314c-5.45842,-6.36082 -5.52179,-15.31132 -0.14154,-19.99142c5.38025,-4.68013 14.16669,-3.31769 19.6251,3.04312z" fill="url(#color-46)"/><path d="M323.27785,200.56897c5.45842,6.36082 5.52179,15.31131 0.14157,19.99144c-5.38025,4.68013 -14.1667,3.31768 -19.62511,-3.04314c-5.45842,-6.36082 -5.5218,-15.31131 -0.14156,-19.99144c5.38025,-4.68013 14.1667,-3.31769 19.62513,3.04312z" fill="url(#color-47)"/><path d="M320.76516,197.64082c5.45842,6.36082 5.52179,15.31132 0.14154,19.99142c-5.38025,4.68014 -14.1667,3.31769 -19.62511,-3.0431c-5.45842,-6.36082 -5.52179,-15.3113 -0.14155,-19.99143c5.38025,-4.68013 14.1667,-3.31768 19.62512,3.04313z" fill="url(#color-48)"/></g><g><path d="M319.09,195.68873c5.45842,6.36082 5.5218,15.31133 0.14156,19.99144c-5.38025,4.68013 -14.16672,3.31769 -19.62514,-3.04314c-5.45842,-6.36082 -5.52179,-15.31132 -0.14155,-19.99144c5.38025,-4.68013 14.16672,-3.31769 19.62512,3.04313z" fill="url(#color-49)"/><path d="M316.57727,192.76064c5.45842,6.36082 5.5218,15.3113 0.14155,19.99143c-5.38025,4.68013 -14.1667,3.31768 -19.62512,-3.04315c-5.45842,-6.36082 -5.52181,-15.31131 -0.14157,-19.99144c5.38025,-4.68013 14.16668,-3.31767 19.6251,3.04315z" fill="url(#color-50)"/><path d="M314.06216,189.49365c5.45842,6.36082 5.5218,15.31131 0.14155,19.99143c-5.38025,4.68013 -14.16671,3.31769 -19.62511,-3.04311c-5.45842,-6.36082 -5.52181,-15.31134 -0.14155,-19.99146c5.38025,-4.68013 14.1667,-3.31767 19.62511,3.04314z" fill="url(#color-51)"/><path d="M311.54944,186.56556c5.45842,6.36082 5.52181,15.31129 0.14156,19.99142c-5.38025,4.68013 -14.1667,3.31768 -19.62512,-3.04313c-5.45842,-6.36082 -5.52179,-15.31132 -0.14154,-19.99142c5.38025,-4.68013 14.1667,-3.31768 19.62511,3.04313z" fill="url(#color-52)"/></g></g><g><g><path d="M346.90695,229.44867c5.45842,6.36082 5.52179,15.31131 0.14155,19.99144c-5.38025,4.68013 -14.16668,3.3177 -19.62512,-3.04313c-5.45842,-6.36082 -5.52179,-15.31132 -0.14155,-19.99145c5.38025,-4.68013 14.16672,-3.31769 19.62513,3.04313z" fill="url(#color-53)"/><path d="M344.39423,226.52055c5.45842,6.36082 5.5218,15.31131 0.14157,19.99144c-5.38025,4.68013 -14.16671,3.31769 -19.62512,-3.04311c-5.45842,-6.36082 -5.5218,-15.31131 -0.14156,-19.99141c5.38025,-4.68013 14.1667,-3.31768 19.62513,3.04313z" fill="url(#color-54)"/><path d="M341.87912,223.2536c5.45842,6.36082 5.52179,15.31131 0.14157,19.99145c-5.38025,4.68013 -14.16672,3.31768 -19.62513,-3.04313c-5.45842,-6.36082 -5.52179,-15.31132 -0.14155,-19.99144c5.38025,-4.68013 14.16672,-3.31769 19.62512,3.04312z" fill="url(#color-55)"/><path d="M339.36642,220.32545c5.45842,6.36082 5.52181,15.31133 0.14155,19.99145c-5.38025,4.68013 -14.1667,3.31768 -19.62513,-3.04311c-5.45842,-6.36082 -5.52179,-15.31132 -0.14155,-19.99143c5.38025,-4.68013 14.16671,-3.31768 19.62513,3.04314z" fill="url(#color-56)"/></g><g><path d="M337.69128,218.37338c5.45842,6.36082 5.52179,15.31132 0.14155,19.99146c-5.38025,4.68013 -14.1667,3.31766 -19.62512,-3.04314c-5.45842,-6.36082 -5.52179,-15.31131 -0.14156,-19.99144c5.38025,-4.68013 14.16669,-3.31771 19.62511,3.04312z" fill="url(#color-57)"/><path d="M335.17855,215.44526c5.45842,6.36082 5.52179,15.31132 0.14155,19.99143c-5.38025,4.68013 -14.16669,3.3177 -19.62511,-3.04314c-5.45842,-6.36082 -5.52179,-15.31132 -0.14155,-19.99143c5.38025,-4.68013 14.16669,-3.3177 19.62509,3.04313z" fill="url(#color-58)"/><path d="M332.66345,212.1783c5.45842,6.36082 5.52179,15.31131 0.14154,19.99145c-5.38025,4.68013 -14.1667,3.31769 -19.62511,-3.04311c-5.45842,-6.36082 -5.52181,-15.31133 -0.14156,-19.99144c5.38025,-4.68013 14.16671,-3.31768 19.62513,3.04313z" fill="url(#color-59)"/><path d="M330.15072,209.25018c5.45842,6.36082 5.52179,15.31132 0.14157,19.99146c-5.38025,4.68013 -14.1667,3.31767 -19.62511,-3.04314c-5.45842,-6.36082 -5.52181,-15.31131 -0.14155,-19.99143c5.38025,-4.68013 14.1667,-3.3177 19.62513,3.04313z" fill="url(#color-60)"/></g></g></g></g><path d="M303.35168,195.39472c0,0 12.19277,15.7985 33.78616,42.44307c24.77867,30.57495 39.93545,48.54634 39.93545,48.54634c0,0 -7.65479,0.43343 -14.20817,-7.47575c-13.67993,-15.20091 -13.88916,-14.92696 -31.619,-36.42683c-18.81033,-23.74511 -33.96439,-42.15145 -33.96439,-42.15145z" data-paper-data="{&quot;index&quot;:null}" fill="url(#color-61)" stroke="#ff0000" stroke-width="0" stroke-linecap="butt"/><path d="M300.87232,191.8322c0,0 12.71808,16.45164 35.21445,44.2189c25.8148,31.86323 41.43286,50.73076 41.43286,50.73076c0,0 -8.01802,0.48512 -14.8418,-7.76027c-14.21753,-15.86932 -14.42459,-15.59268 -32.8881,-38.00475c-19.60786,-24.73674 -35.38964,-43.92351 -35.38964,-43.92351z" data-paper-data="{&quot;index&quot;:null}" fill="none" stroke="#330000" stroke-width="2" stroke-linecap="butt"/><path d="M304.34869,181.32172c0,0 2.09859,0.36129 2.73911,1.15771c0.64053,0.7964 0.66065,3.06943 0.66065,3.06943l-21.01614,16.90281c0,0 -2.12293,-0.39148 -2.85637,-1.30344c-0.73345,-0.91192 -0.54341,-2.92368 -0.54341,-2.92368z" fill="#000000" stroke="none" stroke-width="0" stroke-linecap="butt"/><path d="M276.48592,162.05641l21.36289,26.56159l-6.16165,4.95569l-21.36289,-26.56159c0,0 -0.16268,-3.56811 1.27399,-4.72359c1.43671,-1.1555 4.88766,-0.23209 4.88766,-0.23209z" fill="#070707" stroke="#000000" stroke-width="1.5" stroke-linecap="butt"/><g fill="#0f0f0f" stroke="#000000" stroke-width="1" stroke-linecap="butt"><g><path d="M291.55232,183.87395l4.09277,5.08872c0,0 -0.2366,1.68018 -0.72679,2.07442c-0.50121,0.40311 -2.24812,0.31826 -2.24812,0.31826l-4.09276,-5.08874l-0.09298,-1.64873l1.35366,-1.08427z"/><path d="M289.8836,183.50687l-1.34931,1.08965l-1.59044,-0.44432l-4.09277,-5.08873l-0.09186,-1.69974l1.35567,-1.11016l1.71108,0.41723l4.09279,5.08874z" data-paper-data="{&quot;index&quot;:null}"/></g><g><path d="M280.0146,169.52852l4.09276,5.08873c0,0 -0.2366,1.68016 -0.7268,2.07437c-0.50121,0.40311 -2.2481,0.31824 -2.2481,0.31824l-4.09277,-5.08873l-0.09298,-1.64874l1.35366,-1.08427z"/><path d="M278.34589,169.16148l-1.34932,1.08966l-1.59046,-0.44434l-4.09277,-5.08874l-0.09185,-1.69973l1.35565,-1.11015l1.71108,0.41722l4.09277,5.08873z" data-paper-data="{&quot;index&quot;:null}"/></g></g><path d="M280.41752,178.82284l5.53196,-4.44927" fill="none" stroke="#000000" stroke-width="1.5" stroke-linecap="round"/><path d="M291.96092,181.72268l-5.43556,4.37171" fill="none" stroke="#000000" stroke-width="1.5" stroke-linecap="round"/><path d="M274.87943,171.61443l5.27468,-4.24231" fill="none" stroke="#000000" stroke-width="1.5" stroke-linecap="round"/><path d="M301.45089,190.33054c0,0 2.18365,3.96039 1.62985,4.4058c-1.03071,0.829 -4.55649,3.66468 -6.30595,5.07172c-0.60771,0.48876 -3.79295,-2.66608 -3.79295,-2.66608z" fill="url(#color-62)" stroke="#000000" stroke-width="2" stroke-linecap="butt"/></g><path d="M260.71463,148.22183c-0.2877,7.0947 -1.74982,14.78189 -7.51513,13.85745c-5.76532,-0.92446 -21.62,-6.15312 -21.33229,-13.24781c0.28769,-7.09469 0.42385,-17.84648 6.18912,-16.92209c5.76532,0.92446 23.62204,8.3793 23.33432,15.47398z" data-paper-data="{&quot;index&quot;:null}" fill="url(#color-63)" stroke="#000000" stroke-width="2" stroke-linecap="butt"/><path d="M213.35364,133.42671c0.60448,-5.35027 8.35884,-9.27477 10.3119,-10.14929c2.48548,-1.11293 3.75048,-3.81319 3.75048,-3.81319c0,0 4.4453,4.41827 7.73414,7.19946c3.12834,2.64547 11.54151,6.76761 11.54151,6.76761c0,0 -1.22774,11.29576 -5.4283,14.53867c-4.20056,3.24291 -9.3043,4.76804 -15.72163,4.21223c-6.41733,-0.55581 -4.62005,-2.07243 -9.32805,-6.17971c-3.54015,-3.08845 -3.46454,-7.2255 -2.86006,-12.57577z" fill="url(#color-64)" stroke="#000000" stroke-width="2" stroke-linecap="butt"/><path d="M286.44382,163.72135c3.42276,5.22123 4.43655,4.60084 -2.02705,8.83801c-6.46359,4.23715 -24.36658,-3.32168 -27.78934,-8.54293c-3.42276,-5.22123 0.43546,-10.80951 6.89907,-15.04667c6.46359,-4.23715 19.49459,9.53034 22.91734,14.75155z" fill="url(#color-65)" stroke="#000000" stroke-width="2" stroke-linecap="butt"/><path d="M264.50616,138.85555c2.66292,1.21358 0.42262,4.5369 0.62716,5.04983c2.42973,6.09302 7.56671,10.17597 3.68012,15.92254c-5.43536,8.03652 -13.96168,6.2324 -20.45347,1.84179c-6.49179,-4.39063 -4.96416,-8.01149 0.47124,-16.04803c0.219,-0.32379 0.44984,-0.59882 0.6909,-0.83241c2.70676,-2.62295 6.00239,-2.94829 11.21306,-3.58717c3.35658,-2.89482 1.10807,-3.56012 3.77099,-2.34654z" fill="url(#color-66)" stroke="#000000" stroke-width="2" stroke-linecap="butt"/><path d="M290.78031,185.7282c-0.63621,-0.41213 0.04316,-5.17781 -0.48666,-4.59639c-0.83083,0.91184 0.29632,5.94112 -0.51895,7.78237c-0.83807,1.89273 -3.62593,0.58543 -5.04052,0.56484c-1.77724,-0.02582 -2.86604,1.24236 -4.19921,0.31804c-2.32698,-1.61327 -4.34019,-6.07665 -4.46614,-8.28697c-0.10384,-1.82316 -0.3851,-3.31736 1.2877,-4.44173c0.73365,-0.49312 -12.78313,-6.23686 -9.94636,-9.37783c1.41733,-1.5693 9.29208,-7.19956 14.41786,-8.56349c5.82993,-1.55129 8.92493,1.26263 9.56261,1.27191c1.55809,0.0227 -0.54437,15.08885 0.75536,15.61178c2.77035,1.11467 1.45737,3.38968 1.59217,5.75616c0,0 -2.07984,4.52992 -2.9579,3.96121z" fill="url(#color-67)" stroke="#000000" stroke-width="2" stroke-linecap="butt"/><path d="M218.5876,133.28689c0,0 4.93035,-2.81397 6.83295,-4.21845c1.41472,-1.04432 3.55901,-3.45274 3.55901,-3.45274c0,0 0.7577,3.95512 1.76011,4.84781c1.16456,1.03713 4.20122,5.05894 4.20122,5.05894" fill="none" stroke="#000000" stroke-width="2" stroke-linecap="round"/></g></g></svg>