<svg version="1.1" xmlns="http://www.w3.org/2000/svg" xmlns:xlink="http://www.w3.org/1999/xlink" width="69.57501" height="65.28878" viewBox="0,0,69.57501,65.28878"><defs><linearGradient x1="248.23748" y1="133.95261" x2="251.13466" y2="144.67789" gradientUnits="userSpaceOnUse" id="color-1"><stop offset="0" stop-color="#ffffff"/><stop offset="1" stop-color="#000000"/></linearGradient></defs><g transform="translate(-211.66279,-130.06328)"><g data-paper-data="{&quot;isPaintingLayer&quot;:true}" fill-rule="nonzero" stroke="#000000" stroke-linejoin="miter" stroke-miterlimit="10" stroke-dasharray="" stroke-dashoffset="0" style="mix-blend-mode: normal"><path d="M233.92847,150.69302c0,0 0.45719,-3.23827 1.90746,-3.83447c1.00692,-0.41393 1.71543,0.34127 1.66927,1.25652c-0.05048,1.00078 -1.1464,2.32271 -1.09848,2.37623c0.03056,0.03412 2.38021,-0.76485 2.93547,0.26828c0.55527,1.03315 -0.3118,2.64032 -1.03373,2.76778c-0.85135,0.15028 -2.32891,-0.23436 -2.32891,-0.23436l-7.35099,7.66868c0,0 0.65876,1.05016 0.27953,2.20298c-0.4906,1.49135 -1.94966,1.7619 -2.57301,1.04943c-0.62334,-0.71243 0.04175,-3.21551 -0.06593,-3.37502c-0.10256,-0.15194 -1.80696,1.027 -2.43414,0.15588c-0.62719,-0.87112 -0.59949,-1.70909 0.39987,-2.98128c0.60102,-0.76514 2.3398,0.06805 2.3398,0.06805z" data-paper-data="{&quot;index&quot;:null}" fill="#d6d6d6" stroke-width="1.5" stroke-linecap="butt"/><path d="M258.97943,151.92816c0,0 1.17779,-1.61826 2.104,-1.2155c1.54006,0.66961 1.97842,1.42151 1.83483,2.52646c-0.14355,1.10495 -2.28177,0.86806 -2.30056,1.05743c-0.01976,0.19881 1.82165,2.15767 1.60335,3.11577c-0.21828,0.95813 -1.68459,1.43018 -2.86788,0.30956c-0.91469,-0.86624 -0.83051,-2.15035 -0.83051,-2.15035l-10.49558,-3.38238c0,0 -1.16024,1.0797 -2.01208,1.36205c-0.72235,0.23942 -2.30668,-0.80146 -2.30866,-2.01899c-0.00197,-1.21753 2.53838,-1.6458 2.54948,-1.69203c0.0174,-0.07251 -1.6354,-0.73998 -2.17482,-1.62937c-0.49332,-0.8134 -0.21828,-1.85256 0.90563,-1.97073c1.61881,-0.17021 3.63265,2.56281 3.63265,2.56281z" data-paper-data="{&quot;index&quot;:null}" fill="#d6d6d6" stroke-width="1.5" stroke-linecap="butt"/><path d="M252.82095,176.30807c0,0 1.50729,-0.33549 1.97269,0.34148c0.77385,1.12562 0.75291,1.76122 0.17909,2.31184c-0.57381,0.55062 -1.9459,-0.62312 -2.04024,-0.52593c-0.09905,0.10203 0.32849,2.09831 -0.23371,2.53011c-0.5622,0.43181 -1.77581,-0.01678 -2.10992,-1.22203c-0.25827,-0.93165 0.35157,-1.61179 0.35157,-1.61179l-5.78132,-7.00788c0,0 -1.26376,0.04161 -1.97228,-0.21444c-0.60082,-0.21713 -1.24564,-1.57278 -0.72379,-2.25747c0.52184,-0.68468 2.45702,0.31127 2.48452,0.29071c0.04316,-0.03226 -0.80932,-1.21154 -0.79896,-1.97352c0.00948,-0.69687 0.64563,-1.14656 1.47114,-0.66588c1.18901,0.69232 1.40275,3.20726 1.40275,3.20726z" data-paper-data="{&quot;index&quot;:null}" fill="#d6d6d6" stroke-width="1.5" stroke-linecap="butt"/><path d="M230.87985,178.14974c0,0 0.51819,1.44596 -0.06588,1.99509c-0.97114,0.91302 -1.5798,0.97592 -2.18019,0.48106c-0.60041,-0.49486 0.33788,-2.00565 0.23283,-2.0861c-0.1103,-0.0845 -1.957,0.60067 -2.44258,0.10166c-0.48561,-0.49899 -0.21773,-1.75777 0.8872,-2.24655c0.85412,-0.37783 1.58272,0.13562 1.58272,0.13562l5.91938,-6.63692c0,0 -0.20599,-1.24386 -0.05516,-1.97799c0.1279,-0.62252 1.33531,-1.43825 2.05668,-1.0124c0.72136,0.42585 0.02666,2.46993 0.04988,2.49442c0.03643,0.03843 1.04839,-0.9594 1.77612,-1.04937c0.66555,-0.08226 1.17794,0.48748 0.82837,1.3668c-0.50347,1.26648 -2.87273,1.80851 -2.87273,1.80851z" data-paper-data="{&quot;index&quot;:null}" fill="#d6d6d6" stroke-width="1.5" stroke-linecap="butt"/><path d="M238.69764,165.65544c0.38593,-1.40247 0.65067,-1.81359 0.85551,-3.33072c0.28883,-2.25791 -6.16819,1.50955 -5.90328,-2.03879c0.2649,-3.54835 5.84931,-0.3473 6.16004,-2.29769c-0.07012,-3.16744 -6.01468,1.17646 -6.08923,-2.58714c-0.07455,-3.7636 6.13472,-0.30589 6.2671,-2.14519c0.32685,-1.62496 -1.30164,-1.23804 -2.72877,-1.58961c-0.14879,-0.03665 -3.16311,0.37174 -3.58179,-1.27802c-0.45487,-1.79235 2.64124,-1.82943 2.64124,-1.82943c0,0 1.32403,0.43636 2.5278,0.43636c0.21252,0 -0.0848,-3.53214 0.19398,-3.53962c0.66314,-0.0178 3.80628,-0.03856 3.80628,-0.03856c0,0 -0.18757,3.4206 0.14623,3.4206c1.67442,0 3.08596,-0.18788 3.08596,-0.18788c0,0 1.99028,0.55078 2.08101,1.72942c0.04877,0.63349 -1.74755,0.83943 -3.31367,1.25331c-1.34776,0.35618 -2.62432,-0.02375 -2.67681,1.31947c-0.17387,2.73769 5.96267,-1.39665 6.04299,2.30954c0.08032,3.70619 -6.05846,0.1706 -6.00714,2.63556c-0.07791,2.14862 6.03656,-0.92075 5.98982,2.35658c-0.04674,3.27733 -6.05265,-0.2247 -5.98408,2.13849c0.00261,1.14462 0.15715,2.21057 0.40403,3.331c1.01399,4.60181 4.63105,-1.48961 5.92392,2.54351c1.29288,4.03312 -0.70747,2.79682 -3.77574,4.15776c-1.04358,0.46288 -3.37293,-2.8288 -4.2686,-2.66388c-1.77908,0.3276 -2.78784,2.77782 -3.61649,2.7832c-2.20942,0.01436 -4.37109,-0.79041 -3.35003,-4.06799c0,0 0.41346,-0.67088 1.73167,-1.0324c1.01898,-0.27945 2.92271,0.08482 3.43804,-1.78788z" data-paper-data="{&quot;index&quot;:null}" fill="#d6d6d6" stroke-width="1.5" stroke-linecap="butt"/><path d="M245.38295,149.71302l-2.59365,0.00786l0.06663,-1.71721l-0.46864,-0.0093l-0.02632,1.76361l-2.73045,-0.03914l0.00895,-1.74555l-0.41929,-0.00552l-0.08546,1.77484l-2.31368,-0.02477c0,0 -0.49067,-1.30803 -0.48567,-2.00018c-0.30269,-0.73094 -0.18858,-2.38204 -0.47933,-2.74743c-1.6384,-0.44413 -2.51365,-1.40593 -2.48967,-4.53094c0.04627,-6.02554 2.84378,-9.67044 7.35517,-9.6256c4.51138,0.04485 7.90299,3.91834 7.8567,9.9439c0,0 -0.17998,3.9146 -2.01941,4.17479c-0.55648,0.93123 -0.55337,1.66644 -0.80479,2.6641z" fill="#d6d6d6" stroke-width="1.5" stroke-linecap="butt"/><path d="M237.96468,140.23236c0,-1.10182 0.78503,-1.99499 1.75344,-1.99499c0.96841,0 1.75344,0.89318 1.75344,1.99499c0,1.10182 -0.78504,1.99499 -1.75344,1.99499c-0.96841,0 -1.75344,-0.89319 -1.75344,-1.99499z" fill="#1d1d1d" stroke-width="1" stroke-linecap="butt"/><path d="M243.20044,140.28424c0,-1.10182 0.78505,-1.99501 1.75347,-1.99501c0.96841,0 1.75347,0.89319 1.75347,1.99501c0,1.10182 -0.78505,1.99502 -1.75347,1.99502c-0.96841,0 -1.75347,-0.8932 -1.75347,-1.99502z" fill="#1d1d1d" stroke-width="1" stroke-linecap="butt"/><path d="M250.98251,190.4113c0,0 1.3722,1.13129 1.08699,2.03342c-0.47423,1.5 -1.06629,1.93113 -1.97275,1.79996c-0.90646,-0.13117 -0.81223,-2.20857 -0.96731,-2.22541c-0.16281,-0.01769 -1.67302,1.78442 -2.46334,1.57964c-0.79033,-0.20476 -1.24244,-1.62466 -0.38448,-2.78169c0.6632,-0.89437 1.71281,-0.82222 1.71281,-0.82222l2.27001,-10.21372c0,0 -0.93283,-1.11827 -1.20207,-1.9431c-0.22832,-0.69943 0.54618,-2.24517 1.53761,-2.25613c0.9914,-0.01098 1.45743,2.45189 1.49559,2.46232c0.05985,0.01636 0.52714,-1.59306 1.22651,-2.12331c0.63961,-0.48493 1.49854,-0.22568 1.64665,0.86447c0.21333,1.57017 -1.91935,3.54544 -1.91935,3.54544z" data-paper-data="{&quot;index&quot;:null}" fill="#d6d6d6" stroke-width="1.5" stroke-linecap="butt"/><path d="M226.5371,190.05891c0,0 1.06117,1.41539 0.60483,2.21798c-0.7588,1.33451 -1.40726,1.61036 -2.23602,1.26959c-0.82875,-0.34076 -0.30909,-2.32195 -0.45202,-2.37484c-0.15006,-0.05554 -1.94977,1.32545 -2.65358,0.94113c-0.70383,-0.38429 -0.83639,-1.86052 0.21367,-2.77357c0.8117,-0.70579 1.78786,-0.38808 1.78786,-0.38808l4.26113,-9.31369c0,0 -0.64899,-1.29894 -0.73224,-2.15809c-0.07059,-0.72851 0.98123,-2.03617 1.91969,-1.81241c0.93843,0.22375 0.86788,2.70915 0.90175,2.72823c0.05311,0.02992 0.82806,-1.41178 1.5984,-1.75784c0.70451,-0.31647 1.46182,0.13657 1.37567,1.22296c-0.12411,1.56471 -2.54749,2.96559 -2.54749,2.96559z" data-paper-data="{&quot;index&quot;:null}" fill="#d6d6d6" stroke-width="1.5" stroke-linecap="butt"/><g stroke-width="1"><path d="M219.94972,194.3531c0,0 -0.65804,-1.26954 -0.65804,-1.87107c0,-0.64307 1.80303,-1.49686 1.80303,-1.49686c0,0 1.89489,0.24948 3.13622,0.24948c1.34557,0 2.70323,-0.49895 2.70323,-0.49895c0,0 2.12152,0.94877 2.12152,1.6216c0,0.54936 -0.97653,1.99581 -0.97653,1.99581c0,0 -2.78393,0.49895 -4.1167,0.49895c-1.25825,0 -4.01273,-0.49895 -4.01273,-0.49895z" fill="#d6d6d6" stroke-linecap="butt"/><path d="M222.25385,192.85624l-1.24738,1.74634" fill="none" stroke-linecap="round"/><path d="M224.00019,192.85625v1.87107" fill="none" stroke-linecap="round"/><path d="M226.12074,192.98098l0.74843,1.6216" fill="none" stroke-linecap="round"/></g><g stroke-width="1"><path d="M245.18973,194.19702c0,0 -0.65804,-1.26953 -0.65804,-1.87107c0,-0.64307 1.80303,-1.49686 1.80303,-1.49686c0,0 1.89489,0.24948 3.13622,0.24948c1.34556,0 2.70322,-0.49895 2.70322,-0.49895c0,0 2.12152,0.94878 2.12152,1.6216c0,0.54936 -0.97653,1.99581 -0.97653,1.99581c0,0 -2.78392,0.49896 -4.11669,0.49896c-1.25825,0 -4.01273,-0.49896 -4.01273,-0.49896z" fill="#d6d6d6" stroke-linecap="butt"/><path d="M247.49387,192.70017l-1.24738,1.74633" fill="none" stroke-linecap="round"/><path d="M249.24021,194.57123v-1.87107" fill="none" stroke-linecap="round"/><path d="M251.36076,192.8249l0.74843,1.6216" fill="none" stroke-linecap="round"/></g><path d="M265.12977,140.95944c0,0 -1.34569,-1.35706 -0.82477,-2.16867c0.86612,-1.34952 1.64173,-1.64804 2.66136,-1.3441c1.01963,0.30389 0.47017,2.28323 0.64578,2.32983c0.18437,0.04894 2.31172,-1.38795 3.18153,-1.03603c0.86984,0.3519 1.09112,1.80606 -0.14571,2.7505c-0.95605,0.73006 -2.15362,0.4548 -2.15362,0.4548l-4.78934,9.37721c0,0 0.84074,1.25834 0.97693,2.10438c0.11548,0.71741 -1.10735,2.05204 -2.25529,1.86816c-1.14794,-0.18389 -1.16411,-2.64378 -1.20599,-2.66128c-0.0657,-0.02745 -0.94698,1.42865 -1.86763,1.80143c-0.84195,0.34091 -1.77952,-0.07683 -1.71945,-1.15429c0.08652,-1.55185 2.96986,-3.03321 2.96986,-3.03321z" data-paper-data="{&quot;index&quot;:null}" fill="#d6d6d6" stroke-width="1.5" stroke-linecap="butt"/><path d="M263.56935,133.52265c-0.41388,-2.16696 -1.34114,1.07216 -0.93427,1.12966c0.46784,0.06611 1.80357,-3.1289 2.33585,-1.2358c0.47082,1.67453 0.83549,3.15075 0.86153,2.8134c0.03723,-0.48214 -0.2857,-1.70523 -0.46904,-3.1c-0.34807,-2.64801 -2.24503,-0.42362 -1.9592,-0.50129c0.56729,-0.15289 2.24944,-2.24993 3.04521,0.23814c0.47882,1.49713 0.87701,2.78609 1.04766,3.04102c0.12746,0.1904 -0.21145,-0.50076 -0.7264,-2.99034c-0.61256,-2.96152 -2.31095,-0.40139 -2.02843,-0.4105c0.34988,-0.01128 2.28332,-1.66591 3.08229,0.26735c0.59484,1.43932 1.11251,2.76632 1.25272,3.01136c0.04838,0.08457 -0.83627,-3.20855 -0.4733,-3.13363c0.05166,0.01066 0.84396,-0.0719 0.91866,0.1023c0.65908,1.53682 1.09079,3.05364 1.10983,3.09363c0.65022,1.36511 -0.19917,3.41716 -0.72796,4.28012c-0.44411,0.72478 -0.51204,0.37292 -1.30698,0.55014c-1.54768,0.34501 -2.711,-0.16011 -3.90732,-2.67175c-0.24865,-0.52206 -0.74754,-2.5292 -1.12085,-4.48379z" data-paper-data="{&quot;index&quot;:null}" fill="#d6d6d6" stroke-width="1" stroke-linecap="butt"/><g stroke-width="1.5" stroke-linecap="butt"><g><path d="M267.81129,144.07957l-0.83114,1.92353c0,0 -6.46027,-2.68027 -6.27143,-3.17074c0.09626,-0.25 -0.36865,-0.61881 -0.33185,-1.00977c0.04997,-0.5309 0.58236,-1.06668 0.58236,-1.06668z" fill="#101010"/><path d="M265.27923,145.20794c3.05042,-7.10007 7.53446,-12.07173 10.01545,-11.1045c2.48098,0.96722 2.01935,7.50707 -1.03106,14.60714c-3.05042,7.10007 -7.5345,12.07174 -10.01547,11.1045c-2.48098,-0.96722 -2.01933,-7.50708 1.03108,-14.60714z" fill="#101f36"/></g><path d="M268.66688,146.32457c2.09559,-4.60322 5.38407,-7.74222 7.34505,-7.01116c1.96097,0.73107 4.46066,6.55688 2.36506,11.16011c-2.09559,4.60322 -7.99286,6.24072 -9.95384,5.50964c-1.96097,-0.73107 -1.85185,-5.05536 0.24375,-9.65858z" fill="#0f0f0f"/></g><g data-paper-data="{&quot;index&quot;:null}" stroke-width="1.5" stroke-linecap="butt"><path d="M212.4292,148.41161c-0.18554,-0.68689 1.2634,-2.15802 1.2634,-2.15802l15.27201,-4.12533c0,0 0.89642,0.93267 1.04817,1.49651c0.13717,0.50971 -0.17688,1.74058 -0.17688,1.74058l-15.272,4.12532z" fill="#1b0c00"/><path d="M229.44028,141.75639c0,0 -0.6278,-2.92999 3.57411,-4.11602c1.23706,-0.34917 3.54977,0.67434 5.64775,0.17566c2.13629,-0.50778 5.28416,-2.31647 9.13137,-3.25944c5.49034,-1.34573 11.7715,-1.81945 13.16185,-1.83991c8.20982,-0.12086 16.58835,6.35815 16.58835,6.35815c0,0 -5.42737,-1.65216 -10.79276,-1.81938c-3.96272,-0.1235 -13.46252,1.19885 -17.2241,1.75964c-8.85463,1.3201 -18.97565,10.25663 -18.97565,10.25663z" data-paper-data="{&quot;index&quot;:null}" fill="url(#color-1)"/><path d="M224.8127,137.15514l2.82957,-0.75922c0,0 3.93441,4.18689 4.58626,6.59999c0.68416,2.53282 -0.69386,8.28801 -0.69386,8.28801l-2.58891,0.69344c0,0 1.1821,-5.88256 0.49793,-8.41537c-0.65183,-2.41311 -4.63098,-6.40684 -4.63098,-6.40684z" fill="#151515"/></g><path d="M227.04872,158.79931c0,0 2.41089,1.42528 2.406,2.76811c-0.00339,0.9323 -0.8334,1.24457 -1.54207,0.90744c-0.7749,-0.36866 -1.46039,-1.66964 -1.51845,-1.64931c-0.03702,0.01298 -0.17697,2.13368 -1.17644,2.23346c-0.99949,0.09977 -1.98573,-1.1139 -1.84938,-1.72672c0.16081,-0.72268 0.95035,-1.76489 0.95035,-1.76489l-3.65024,-8.33271c0,0 -1.04695,0.17603 -1.8341,-0.50258c-1.01831,-0.87789 -0.75299,-2.12069 0.01524,-2.37964c0.76818,-0.25895 2.52932,1.08927 2.69085,1.05649c0.15385,-0.0312 -0.21866,-1.76642 0.6763,-1.97629c0.89498,-0.20987 1.54859,0.08728 2.22646,1.29555c0.4077,0.72667 -0.82242,1.82813 -0.82242,1.82813z" data-paper-data="{&quot;index&quot;:null}" fill="#d6d6d6" stroke-width="1.5" stroke-linecap="butt"/><path d="M215.72448,145.00367c0.88201,-0.12207 2.73527,3.48236 2.5915,2.77597c-0.27958,-1.37351 -2.03796,-2.75357 -1.65083,-2.9873c0.80664,-0.48475 2.54026,1.69296 3.16323,2.22092c0.38271,0.32435 -2.42114,-3.09022 -1.92569,-3.24897c0.58156,-0.18632 2.93831,2.23602 3.41174,2.69808c0.07964,0.07773 -2.88814,-3.29294 -2.21344,-3.52987c0.72733,-0.48339 3.67013,3.09975 3.72606,3.16319c0.99973,1.1344 0.7458,3.34073 0.474,4.31564c-0.22827,0.8188 -0.39011,0.49907 -1.10596,0.88754c-1.39369,0.75632 -2.65093,0.58967 -4.4903,-1.49748c-0.80617,-0.91477 -2.7545,-4.69058 -1.98035,-4.79772z" fill="#d6d6d6" stroke-width="1" stroke-linecap="butt"/></g></g></svg>