<svg version="1.1" xmlns="http://www.w3.org/2000/svg" xmlns:xlink="http://www.w3.org/1999/xlink" width="90.46101" height="92.75531" viewBox="0,0,90.46101,92.75531"><defs><linearGradient x1="263.95043" y1="179.65655" x2="259.53193" y2="205.82418" gradientUnits="userSpaceOnUse" id="color-1"><stop offset="0" stop-color="#333333"/><stop offset="1" stop-color="#b3b3b3"/></linearGradient></defs><g transform="translate(-219.76274,-116.68271)"><g data-paper-data="{&quot;isPaintingLayer&quot;:true}" fill-rule="nonzero" stroke-linejoin="miter" stroke-miterlimit="10" stroke-dasharray="" stroke-dashoffset="0" style="mix-blend-mode: normal"><path d="M244.45161,170.60828c0,0 2.89718,2.72617 5.22082,6.5101c2.12135,3.45452 2.32429,3.59606 3.63186,6.5491" data-paper-data="{&quot;index&quot;:null}" fill="none" stroke="#7f7f7f" stroke-width="4" stroke-linecap="round"/><path d="M228.81067,187.87549c-4.72088,0 -8.54793,-4.46858 -8.54793,-9.98086c0,-5.51228 3.82853,-10.07066 8.54793,-9.98086c8.52956,0.16229 8.54793,8.65535 8.54793,9.98086c0,5.51228 -3.82704,9.98086 -8.54793,9.98086z" data-paper-data="{&quot;index&quot;:null}" fill="#151515" stroke="#000000" stroke-width="1" stroke-linecap="butt"/><path d="M231.24307,178.42626c0,0 -1.9143,0.11787 -1.77682,-0.02412c-0.3363,-0.55509 -1.42674,-0.24473 -2.38922,-0.69777c-0.9363,-0.85397 -3.49014,-3.41741 1.06701,-5.69029c1.42346,-1.30622 8.74767,-1.46968 8.74767,-1.46968" data-paper-data="{&quot;index&quot;:null}" fill="none" stroke="#7f7f7f" stroke-width="3.5" stroke-linecap="round"/><path d="" fill="none" stroke="#000000" stroke-width="5" stroke-linecap="round"/><path d="M233.49862,161.18096c0.60002,-4.46444 4.30944,-4.17635 5.58443,-3.97433c1.65797,0.26272 1.83844,-2.32739 3.82001,-1.926c2.52535,-0.04196 7.32502,4.13448 6.4027,7.67822c-0.03123,0.11997 0.01805,0.23974 -0.00795,0.34551c-1.26156,5.13024 -4.6232,7.60824 -8.98603,7.02188c-4.36283,-0.58636 -7.41319,-4.68084 -6.81317,-9.14528z" data-paper-data="{&quot;index&quot;:null}" fill="#979797" stroke="#000000" stroke-width="1" stroke-linecap="butt"/><path d="M233.44838,196.8152c0,0 -0.50391,-2.02339 0.04468,-5.02248c0.40558,-2.21725 2.87647,-3.2585 2.87647,-3.2585c0,0 2.55519,-1.17273 3.81504,-1.12968c1.20975,0.04134 3.97407,1.08225 3.97407,1.08225c0,0 1.69205,1.41049 2.14829,3.81662c0.51205,2.70049 0.29547,4.16334 0.29547,4.16334" data-paper-data="{&quot;index&quot;:null}" fill="none" stroke="#000000" stroke-width="5.5" stroke-linecap="round"/><path d="M235.515,202.85235c-0.56,0 -2.39758,0 -3.63636,0c-0.68606,0 -1.18846,-0.55941 -1.18846,-1.01192c0,-0.92198 0,-4.20077 0,-4.20077h5.48837c0,0 0,3.40005 0,4.3035c0,0.41527 -0.34086,0.90919 -0.66355,0.90919z" data-paper-data="{&quot;index&quot;:null}" fill="#191919" stroke="#000000" stroke-width="1" stroke-linecap="butt"/><path d="M248.70743,202.53265c-0.6089,0 -2.68886,0.10273 -3.90909,0.10273c-0.50592,0 -0.93933,-0.53265 -0.93933,-0.90919c0,-0.88016 0,-4.40623 0,-4.40623h5.48837c0,0 0,3.52607 0,4.40623c0,0.37655 -0.32701,0.80646 -0.63995,0.80646z" data-paper-data="{&quot;index&quot;:null}" fill="#191919" stroke="#000000" stroke-width="1" stroke-linecap="butt"/><path d="M231.74944,180.27592c-1.10457,0 -2,-0.89543 -2,-2c0,-1.10457 0.89543,-2 2,-2c1.10457,0 2,0.89543 2,2c0,1.10457 -0.89543,2 -2,2z" data-paper-data="{&quot;index&quot;:null}" fill="#000000" stroke="none" stroke-width="0.5" stroke-linecap="butt"/><path d="M228.91373,180.75594v-5.71429h1.91131v5.71429z" data-paper-data="{&quot;index&quot;:null}" fill="#7d7d7d" stroke="#000000" stroke-width="0.75" stroke-linecap="butt"/><path d="M252.83726,188.26448c-0.50264,-0.56788 1.39245,-2.54927 1.39245,-2.54927c0,0 -4.16909,-4.9135 -3.69026,-5.45822c0.47883,-0.54471 5.23571,4.24037 5.23571,4.24037c0,0 2.13378,-1.37809 2.40188,-1.11118c0.4327,0.43065 -0.44436,2.59714 -0.44436,2.59714l11.92733,15.2409c0,0 -11.80106,-10.83385 -13.5083,-12.40117c-0.39936,-0.36663 -0.73918,-0.67859 -0.73918,-0.67859z" data-paper-data="{&quot;index&quot;:null}" fill="url(#color-1)" stroke="#000000" stroke-width="0.75" stroke-linecap="round"/><path d="M257.65396,186.00835c0,0 -0.46288,0.78435 -0.76552,1.06685c-0.34946,0.3262 -1.21108,0.7782 -1.21108,0.7782" data-paper-data="{&quot;index&quot;:null}" fill="none" stroke="#000000" stroke-width="0.75" stroke-linecap="round"/><path d="M251.3164,183.30756c0.17401,-1.08303 1.74222,-1.82318 2.82525,-1.64918c1.08304,0.17401 1.58117,0.97183 1.40715,2.05487c-0.08092,0.50358 -0.41162,0.98087 -0.8512,1.32991c-0.50583,0.40165 -1.15582,0.63357 -1.73527,0.54046c-1.08304,-0.17401 -1.81998,-1.19306 -1.64597,-2.27609z" data-paper-data="{&quot;index&quot;:null}" fill="#000000" stroke="none" stroke-width="0.5" stroke-linecap="butt"/><path d="M239.27764,119.72115c0,0 60.04993,-13.8945 68.92771,41.82955c4.50065,44.52261 -21.78414,45.95197 -21.78414,45.95197l5.63268,-2.53164" fill="none" stroke="#4c4c4c" stroke-width="3" stroke-linecap="round"/><path d="M239.59183,122.3608c0,0 56.64644,-13.031 65.61162,37.55292c5.32609,45.05903 -19.69633,44.80696 -19.69633,44.80696l6.33188,-2.2966" fill="none" stroke="#bebebe" stroke-width="3" stroke-linecap="round"/><path d="M244.33207,168.87804l-4.28777,-12.00575" data-paper-data="{&quot;index&quot;:null}" fill="none" stroke="#000000" stroke-width="2" stroke-linecap="round"/><path d="M233.93039,178.39343c-0.08565,-3.63107 2.83057,-9.62907 2.83057,-9.62907c0.89462,0 3.89451,1.53765 3.89451,1.53765c1.53525,0.04255 4.31315,-0.8906 4.31315,-0.8906c0.76843,0 1.34719,6.02822 1.20866,9.69254c-0.14388,3.80567 -0.98081,7.24732 -0.98081,7.24732c-0.72415,0.49769 -0.82085,-1.1547 -5.69905,-0.64402c-6.39067,-0.22121 -4.12178,1.69186 -4.87473,0.55083c-0.19973,-0.60986 -0.60607,-4.20844 -0.69231,-7.86465z" data-paper-data="{&quot;index&quot;:null}" fill="#1f1f1f" stroke="#000000" stroke-width="1" stroke-linecap="butt"/><path d="M243.15299,175.93162c0,0 -0.40696,-2.98342 -0.42905,-3.87949c-0.02072,-0.84059 0.83113,-2.35452 0.83113,-2.35452l2.64396,-0.95433c0,0 1.09477,2.12392 1.31931,3.24599c0.10058,0.50267 -0.13774,1.80936 -0.58929,2.64341c-0.62268,1.15012 -1.54081,1.79958 -1.54081,1.79958z" data-paper-data="{&quot;index&quot;:null}" fill="#444444" stroke="#000000" stroke-width="1" stroke-linecap="butt"/><path d="M233.72534,174.73232c0,0 -0.75772,-0.83102 -1.11963,-2.08782c-0.26245,-0.91141 -0.21541,-2.23883 -0.00949,-2.70828c0.45965,-1.04794 2.03682,-3.10394 2.03682,-3.10394l2.21738,1.6878c0,0 0.61574,1.6877 0.41547,2.50436c-0.21348,0.87054 -1.24997,3.69759 -1.24997,3.69759z" data-paper-data="{&quot;index&quot;:null}" fill="#444444" stroke="#000000" stroke-width="1" stroke-linecap="butt"/><path d="M248.95385,178.01701c0,0 -1.04024,0.16362 -1.50137,-0.19634c-0.4566,-0.35642 -1.25196,-1.95289 -1.25196,-1.95289l1.60123,-4.43066l1.13577,1.52645c0,0 0.56705,1.22957 0.69412,2.05602c0.1369,0.89031 -0.6778,2.99742 -0.6778,2.99742z" data-paper-data="{&quot;index&quot;:null}" fill="#1f1f1f" stroke="#000000" stroke-width="1" stroke-linecap="butt"/><path d="M230.71227,174.41817c-0.57002,0.13154 -1.30902,-0.53685 -1.30902,-0.53685c0,0 0.25922,-2.22699 0.75932,-2.9762c0.46423,-0.69545 1.25494,-1.51679 1.25494,-1.51679l1.78197,-0.87691l-0.5276,4.66534c0,0 -1.39519,1.11118 -1.9596,1.24142z" data-paper-data="{&quot;index&quot;:null}" fill="#1f1f1f" stroke="#000000" stroke-width="1" stroke-linecap="butt"/><path d="M239.93307,185.3997c-1.77101,0 -5.26144,0.59938 -5.26144,0.59938v-1.34861c0,0 3.57778,-0.52446 5.36667,-0.52446c1.78888,0 5.36666,0.52446 5.36666,0.52446v1.34861c0,0 -4.10535,-0.59938 -5.47189,-0.59938z" data-paper-data="{&quot;index&quot;:null}" fill="#1f1f1f" stroke="#000000" stroke-width="1" stroke-linecap="butt"/><path d="M242.6272,172.43712c0,0 -1.62556,0.57312 -2.46044,0.42133c-0.79254,-0.1441 -2.42844,-1.31022 -2.42844,-1.31022" data-paper-data="{&quot;index&quot;:null}" fill="none" stroke="#000000" stroke-width="1" stroke-linecap="round"/><path d="M276.42618,196.18426c0,-0.5042 0.40873,-0.91292 0.91292,-0.91292c0.5042,0 0.91292,0.40873 0.91292,0.91292c0,0.5042 -0.40873,0.91292 -0.91292,0.91292c-0.5042,0 -0.91292,-0.40873 -0.91292,-0.91292z" fill="#000000" stroke="none" stroke-width="0.5" stroke-linecap="butt"/><path d="M283.62843,194.72359c0,-0.5042 0.40873,-0.91292 0.91292,-0.91292c0.5042,0 0.91292,0.40873 0.91292,0.91292c0,0.5042 -0.40873,0.91292 -0.91292,0.91292c-0.5042,0 -0.91292,-0.40873 -0.91292,-0.91292z" fill="#000000" stroke="none" stroke-width="0.5" stroke-linecap="butt"/><path d="M289.43366,191.80224c0,-0.5042 0.40873,-0.91292 0.91292,-0.91292c0.5042,0 0.91292,0.40873 0.91292,0.91292c0,0.5042 -0.40873,0.91292 -0.91292,0.91292c-0.5042,0 -0.91292,-0.40873 -0.91292,-0.91292z" fill="#000000" stroke="none" stroke-width="0.5" stroke-linecap="butt"/><path d="M247.95586,157.59077c0,0 -5.07675,2.17741 -7.62306,2.70812c-2.59219,0.54028 -7.79489,0.50536 -7.79489,0.50536c0,0 -0.59588,-2.98683 -0.19079,-3.67128c0.97428,-1.64618 3.93528,-4.38452 6.72186,-4.96532c3.85342,-0.80315 7.94437,1.59012 7.94437,1.59012c0,0 0.68595,1.024 0.83374,1.62502c0.16458,0.66927 0.10879,2.20795 0.10879,2.20795z" fill="#1b1b1b" stroke="#000000" stroke-width="1" stroke-linecap="butt"/><path d="M234.66052,186.99917v-3.34897c0,0 3.57778,-1.30238 5.36666,-1.30238c1.78889,0 5.36667,1.30238 5.36667,1.30238v3.34897c0,0 -3.49043,-1.48842 -5.26144,-1.48842c-1.36654,0 -5.47189,1.48842 -5.47189,1.48842z" fill="#484848" stroke="#000000" stroke-width="1.5" stroke-linecap="butt"/><path d="M240.78167,159.6608c2.65319,-0.42918 7.75817,-2.04238 7.75817,-2.04238l0.27928,1.72653c0,0 -5.25135,1.53846 -7.93133,1.97197c-2.67996,0.43351 -8.14854,0.6291 -8.14854,0.6291l-0.27928,-1.72653c0,0 6.27445,-0.22753 8.3217,-0.55869z" data-paper-data="{&quot;index&quot;:null}" fill="#484848" stroke="#000000" stroke-width="1" stroke-linecap="butt"/></g></g></svg>