<svg version="1.1" xmlns="http://www.w3.org/2000/svg" xmlns:xlink="http://www.w3.org/1999/xlink" width="490.35284" height="461.04882" viewBox="0,0,490.35284,461.04882"><defs><radialGradient cx="321.86533" cy="139.61499" r="17.77529" gradientUnits="userSpaceOnUse" id="color-1"><stop offset="0" stop-color="#182315"/><stop offset="1" stop-color="#182315" stop-opacity="0"/></radialGradient><radialGradient cx="312.17337" cy="138.5679" r="17.76373" gradientUnits="userSpaceOnUse" id="color-2"><stop offset="0" stop-color="#182315"/><stop offset="1" stop-color="#182315" stop-opacity="0"/></radialGradient><radialGradient cx="316.64275" cy="130.65581" r="18.47397" gradientUnits="userSpaceOnUse" id="color-3"><stop offset="0" stop-color="#182315"/><stop offset="1" stop-color="#182315" stop-opacity="0"/></radialGradient><radialGradient cx="331.15162" cy="122.73704" r="18.47399" gradientUnits="userSpaceOnUse" id="color-4"><stop offset="0" stop-color="#182315"/><stop offset="1" stop-color="#182315" stop-opacity="0"/></radialGradient><radialGradient cx="317.69822" cy="116.61917" r="18.47398" gradientUnits="userSpaceOnUse" id="color-5"><stop offset="0" stop-color="#182315"/><stop offset="1" stop-color="#182315" stop-opacity="0"/></radialGradient><radialGradient cx="309.22502" cy="130.82098" r="18.47398" gradientUnits="userSpaceOnUse" id="color-6"><stop offset="0" stop-color="#182315"/><stop offset="1" stop-color="#182315" stop-opacity="0"/></radialGradient><radialGradient cx="312.32264" cy="122.80846" r="18.47398" gradientUnits="userSpaceOnUse" id="color-7"><stop offset="0" stop-color="#182315"/><stop offset="1" stop-color="#182315" stop-opacity="0"/></radialGradient><radialGradient cx="327.40117" cy="133.91541" r="18.47398" gradientUnits="userSpaceOnUse" id="color-8"><stop offset="0" stop-color="#182315"/><stop offset="1" stop-color="#182315" stop-opacity="0"/></radialGradient><radialGradient cx="321.77747" cy="116.59281" r="18.47398" gradientUnits="userSpaceOnUse" id="color-9"><stop offset="0" stop-color="#182315"/><stop offset="1" stop-color="#182315" stop-opacity="0"/></radialGradient><linearGradient x1="447.94847" y1="171.58502" x2="447.94847" y2="158.91834" gradientUnits="userSpaceOnUse" id="color-10"><stop offset="0" stop-color="#182315"/><stop offset="1" stop-color="#182315" stop-opacity="0"/></linearGradient><linearGradient x1="227.73189" y1="73.08502" x2="227.73189" y2="60.41834" gradientUnits="userSpaceOnUse" id="color-11"><stop offset="0" stop-color="#182315"/><stop offset="1" stop-color="#182315" stop-opacity="0"/></linearGradient><linearGradient x1="416.60128" y1="260.72085" x2="416.60128" y2="273.38752" gradientUnits="userSpaceOnUse" id="color-12"><stop offset="0" stop-color="#182315"/><stop offset="1" stop-color="#182315" stop-opacity="0"/></linearGradient><linearGradient x1="195.68457" y1="191.27641" x2="195.68457" y2="203.94308" gradientUnits="userSpaceOnUse" id="color-13"><stop offset="0" stop-color="#182315"/><stop offset="1" stop-color="#182315" stop-opacity="0"/></linearGradient><radialGradient cx="384.73389" cy="205.60449" r="16.27777" gradientUnits="userSpaceOnUse" id="color-14"><stop offset="0" stop-color="#000000"/><stop offset="1" stop-color="#000000" stop-opacity="0"/></radialGradient><radialGradient cx="212.73392" cy="94.60449" r="16.27777" gradientUnits="userSpaceOnUse" id="color-15"><stop offset="0" stop-color="#000000"/><stop offset="1" stop-color="#000000" stop-opacity="0"/></radialGradient><radialGradient cx="67.73391" cy="152.60449" r="16.27777" gradientUnits="userSpaceOnUse" id="color-16"><stop offset="0" stop-color="#000000"/><stop offset="1" stop-color="#000000" stop-opacity="0"/></radialGradient><radialGradient cx="99.18149" cy="131.76696" r="18.87176" gradientUnits="userSpaceOnUse" id="color-17"><stop offset="0" stop-color="#182315"/><stop offset="1" stop-color="#182315" stop-opacity="0"/></radialGradient><radialGradient cx="96.66333" cy="121.72831" r="18.85949" gradientUnits="userSpaceOnUse" id="color-18"><stop offset="0" stop-color="#182315"/><stop offset="1" stop-color="#182315" stop-opacity="0"/></radialGradient><radialGradient cx="106.18657" cy="123.27297" r="19.61355" gradientUnits="userSpaceOnUse" id="color-19"><stop offset="0" stop-color="#182315"/><stop offset="1" stop-color="#182315" stop-opacity="0"/></radialGradient><radialGradient cx="119.40531" cy="134.81531" r="19.61357" gradientUnits="userSpaceOnUse" id="color-20"><stop offset="0" stop-color="#182315"/><stop offset="1" stop-color="#182315" stop-opacity="0"/></radialGradient><radialGradient cx="120.55595" cy="119.16676" r="19.61355" gradientUnits="userSpaceOnUse" id="color-21"><stop offset="0" stop-color="#182315"/><stop offset="1" stop-color="#182315" stop-opacity="0"/></radialGradient><radialGradient cx="103.29652" cy="115.94501" r="19.61355" gradientUnits="userSpaceOnUse" id="color-22"><stop offset="0" stop-color="#182315"/><stop offset="1" stop-color="#182315" stop-opacity="0"/></radialGradient><radialGradient cx="112.41578" cy="116.08644" r="19.61355" gradientUnits="userSpaceOnUse" id="color-23"><stop offset="0" stop-color="#182315"/><stop offset="1" stop-color="#182315" stop-opacity="0"/></radialGradient><radialGradient cx="106.89277" cy="135.18688" r="19.61355" gradientUnits="userSpaceOnUse" id="color-24"><stop offset="0" stop-color="#182315"/><stop offset="1" stop-color="#182315" stop-opacity="0"/></radialGradient><radialGradient cx="122.08107" cy="123.22033" r="19.61355" gradientUnits="userSpaceOnUse" id="color-25"><stop offset="0" stop-color="#182315"/><stop offset="1" stop-color="#182315" stop-opacity="0"/></radialGradient><radialGradient cx="98.00688" cy="129.0566" r="18.87176" gradientUnits="userSpaceOnUse" id="color-26"><stop offset="0" stop-color="#182315"/><stop offset="1" stop-color="#182315" stop-opacity="0"/></radialGradient><radialGradient cx="99.57092" cy="118.8258" r="18.85949" gradientUnits="userSpaceOnUse" id="color-27"><stop offset="0" stop-color="#182315"/><stop offset="1" stop-color="#182315" stop-opacity="0"/></radialGradient><radialGradient cx="107.75381" cy="123.93641" r="19.61355" gradientUnits="userSpaceOnUse" id="color-28"><stop offset="0" stop-color="#182315"/><stop offset="1" stop-color="#182315" stop-opacity="0"/></radialGradient><radialGradient cx="115.47407" cy="139.6958" r="19.61357" gradientUnits="userSpaceOnUse" id="color-29"><stop offset="0" stop-color="#182315"/><stop offset="1" stop-color="#182315" stop-opacity="0"/></radialGradient><radialGradient cx="122.59245" cy="125.7126" r="19.61355" gradientUnits="userSpaceOnUse" id="color-30"><stop offset="0" stop-color="#182315"/><stop offset="1" stop-color="#182315" stop-opacity="0"/></radialGradient><radialGradient cx="107.92566" cy="116.06102" r="19.61355" gradientUnits="userSpaceOnUse" id="color-31"><stop offset="0" stop-color="#182315"/><stop offset="1" stop-color="#182315" stop-opacity="0"/></radialGradient><radialGradient cx="116.27925" cy="119.72142" r="19.61355" gradientUnits="userSpaceOnUse" id="color-32"><stop offset="0" stop-color="#182315"/><stop offset="1" stop-color="#182315" stop-opacity="0"/></radialGradient><radialGradient cx="103.79317" cy="135.19489" r="19.61355" gradientUnits="userSpaceOnUse" id="color-33"><stop offset="0" stop-color="#182315"/><stop offset="1" stop-color="#182315" stop-opacity="0"/></radialGradient><radialGradient cx="122.42956" cy="130.04052" r="19.61355" gradientUnits="userSpaceOnUse" id="color-34"><stop offset="0" stop-color="#182315"/><stop offset="1" stop-color="#182315" stop-opacity="0"/></radialGradient><radialGradient cx="311.00687" cy="128.0566" r="18.87176" gradientUnits="userSpaceOnUse" id="color-35"><stop offset="0" stop-color="#182315"/><stop offset="1" stop-color="#182315" stop-opacity="0"/></radialGradient><radialGradient cx="312.57092" cy="117.8258" r="18.85949" gradientUnits="userSpaceOnUse" id="color-36"><stop offset="0" stop-color="#182315"/><stop offset="1" stop-color="#182315" stop-opacity="0"/></radialGradient><radialGradient cx="320.7538" cy="122.93642" r="19.61355" gradientUnits="userSpaceOnUse" id="color-37"><stop offset="0" stop-color="#182315"/><stop offset="1" stop-color="#182315" stop-opacity="0"/></radialGradient><radialGradient cx="328.47407" cy="138.6958" r="19.61357" gradientUnits="userSpaceOnUse" id="color-38"><stop offset="0" stop-color="#182315"/><stop offset="1" stop-color="#182315" stop-opacity="0"/></radialGradient><radialGradient cx="335.59245" cy="124.7126" r="19.61355" gradientUnits="userSpaceOnUse" id="color-39"><stop offset="0" stop-color="#182315"/><stop offset="1" stop-color="#182315" stop-opacity="0"/></radialGradient><radialGradient cx="320.92566" cy="115.06102" r="19.61355" gradientUnits="userSpaceOnUse" id="color-40"><stop offset="0" stop-color="#182315"/><stop offset="1" stop-color="#182315" stop-opacity="0"/></radialGradient><radialGradient cx="329.27924" cy="118.72142" r="19.61355" gradientUnits="userSpaceOnUse" id="color-41"><stop offset="0" stop-color="#182315"/><stop offset="1" stop-color="#182315" stop-opacity="0"/></radialGradient><radialGradient cx="316.79316" cy="134.19489" r="19.61355" gradientUnits="userSpaceOnUse" id="color-42"><stop offset="0" stop-color="#182315"/><stop offset="1" stop-color="#182315" stop-opacity="0"/></radialGradient><radialGradient cx="335.42956" cy="129.04052" r="19.61355" gradientUnits="userSpaceOnUse" id="color-43"><stop offset="0" stop-color="#182315"/><stop offset="1" stop-color="#182315" stop-opacity="0"/></radialGradient></defs><g transform="translate(3.95184,97.03899)"><g data-paper-data="{&quot;isPaintingLayer&quot;:true}" fill-rule="nonzero" stroke-linejoin="miter" stroke-miterlimit="10" stroke-dasharray="" stroke-dashoffset="0" style="mix-blend-mode: normal"><path d="M313.27806,194.28908v-54.66548c0,0 3.14895,1.44764 4.1988,0.81835c2.18437,-1.30936 7.71919,-0.81835 7.71919,-0.81835v54.66548z" fill="#1e190f" stroke="#0c0c0c" stroke-width="0" stroke-linecap="butt"/><g stroke="none" stroke-width="0" stroke-linecap="butt"><path d="M312.36087,144.40496c-5.14068,-8.36345 -4.05996,-9.25181 4.30349,-14.3925c8.36345,-5.14068 9.09539,-4.31447 14.23606,4.04898c5.14068,8.36345 4.17668,10.58272 -4.18677,15.72341c-8.36345,5.14068 -9.21209,2.98356 -14.35278,-5.37989z" fill="url(#color-1)"/><path d="M308.59664,148.59201c-8.81759,-2.25158 -8.62687,-3.63215 -6.06114,-13.10135c2.56571,-9.46921 3.59208,-9.404 12.40967,-7.15243c8.81759,2.25158 9.54402,4.48254 6.97831,13.95175c-2.56571,9.46921 -4.50923,8.55362 -13.32683,6.30203z" fill="url(#color-2)"/><path d="M311.95417,140.67461c-9.57239,-3.53107 -9.26006,-4.9511 -5.72899,-14.52349c3.53107,-9.57239 4.6598,-9.36751 14.23218,-5.83645c9.57239,3.53107 10.21035,5.96351 6.67928,15.53591c-3.53107,9.57239 -5.61008,8.3551 -15.18247,4.82403z" fill="url(#color-3)"/><path d="M321.2736,127.71532c-5.34274,-8.6922 -4.21955,-9.61548 4.47265,-14.95822c8.6922,-5.34274 9.4529,-4.48407 14.79564,4.20813c5.34274,8.6922 4.34085,10.99871 -4.35133,16.34145c-8.6922,5.34274 -9.57422,3.10084 -14.91696,-5.59136z" fill="url(#color-4)"/><path d="M307.82021,121.59744c-5.34274,-8.6922 -4.21954,-9.61548 4.47265,-14.95822c8.6922,-5.34274 9.45289,-4.48406 14.79563,4.20814c5.34274,8.6922 4.34085,10.9987 -4.35133,16.34145c-8.6922,5.34274 -9.57421,3.10082 -14.91696,-5.59136z" fill="url(#color-5)"/><path d="M299.34695,135.79924c-5.34274,-8.6922 -4.21956,-9.61547 4.47264,-14.95821c8.6922,-5.34274 9.4529,-4.48407 14.79564,4.20813c5.34274,8.6922 4.34085,10.99871 -4.35133,16.34145c-8.6922,5.34274 -9.57421,3.10083 -14.91695,-5.59137z" fill="url(#color-6)"/><path d="M308.61408,133.22984c-9.86631,-2.59908 -9.69124,-4.04247 -7.09216,-13.90877c2.59908,-9.86631 3.74221,-9.77034 13.60852,-7.17127c9.86631,2.59908 10.73404,4.95932 8.13497,14.82563c-2.59908,9.86631 -4.78502,8.85349 -14.65132,6.25441z" fill="url(#color-7)"/><path d="M323.69264,144.33679c-9.8663,-2.59908 -9.69126,-4.04247 -7.09218,-13.90878c2.59908,-9.8663 3.74223,-9.77035 13.60854,-7.17126c9.8663,2.59908 10.73403,4.95934 8.13495,14.82564c-2.59908,9.8663 -4.78502,8.85348 -14.65131,6.2544z" fill="url(#color-8)"/><path d="M318.0689,127.0142c-9.8663,-2.59908 -9.69125,-4.04247 -7.09217,-13.90878c2.59908,-9.8663 3.74223,-9.77034 13.60854,-7.17127c9.8663,2.59908 10.73404,4.95934 8.13496,14.82565c-2.59908,9.8663 -4.78502,8.85348 -14.65132,6.2544z" fill="url(#color-9)"/></g><path d="M104.2781,190.28908v-54.66548c0,0 2.75262,1.44764 3.67034,0.81835c1.90944,-1.30936 6.74765,-0.81835 6.74765,-0.81835v54.66548z" fill="#1e190f" stroke="#0c0c0c" stroke-width="0" stroke-linecap="butt"/><path d="M40.15511,361.77134v-104.60661h440.98349v104.60661z" fill="#000000" stroke="#000000" stroke-width="1" stroke-linecap="butt"/><path d="M414.13565,177.30957v-268.74494h67.4955v268.74494z" fill="#000000" stroke="#000000" stroke-width="1" stroke-linecap="butt"/><path d="M45.659,261.51063v-72.99099h305v72.99099z" fill="#000000" stroke="#000000" stroke-width="1" stroke-linecap="butt"/><path d="M45.659,77.93402v-169h376v169z" fill="#000000" stroke="#000000" stroke-width="1" stroke-linecap="butt"/><path d="M479.76368,257.88487h-127.2381" fill="none" stroke="#182315" stroke-width="7.5" stroke-linecap="round"/><path d="M482.651,174.31752h-68.28571" fill="none" stroke="#182315" stroke-width="7.5" stroke-linecap="round"/><path d="M348.66538,188.42165h-308.25" fill="none" stroke="#182315" stroke-width="7.5" stroke-linecap="round"/><path d="M41.66538,75.84277h371" fill="none" stroke="#182315" stroke-width="7.5" stroke-linecap="round"/><path d="M482.11352,158.91834v12.66667h-68.33009v-12.66667z" fill="url(#color-10)" stroke="#182315" stroke-width="0" stroke-linecap="butt"/><path d="M414.94685,60.41834v12.66667h-374.4301v-12.66667z" fill="url(#color-11)" stroke="#182315" stroke-width="0" stroke-linecap="butt"/><path d="M-2.28052,99.13008v-195.66907h50.15556v195.66907z" fill="#000000" stroke="#000000" stroke-width="1" stroke-linecap="butt"/><path d="M350.48925,273.38752v-12.66667h132.22414v12.66667z" fill="url(#color-12)" stroke="#182315" stroke-width="0" stroke-linecap="butt"/><path d="M40.10035,203.94308v-12.66667h311.16859v12.66667z" fill="url(#color-13)" stroke="#182315" stroke-width="0" stroke-linecap="butt"/><path d="M0.05115,91.30265v-180.21701h40.66066v180.21701z" fill="#0e0e0e" stroke="none" stroke-width="0" stroke-linecap="butt"/><path d="M-2.23602,361.41897v-187.12913h50.05105v187.12913z" fill="#000000" stroke="#000000" stroke-width="1" stroke-linecap="butt"/><path d="M-3.95184,364.00983v-183h44.4955v183z" fill="#0e0e0e" stroke="none" stroke-width="0" stroke-linecap="butt"/><g stroke="none" stroke-linecap="butt"><path d="M381.87627,205.82774c0,-1.48191 1.20132,-2.68324 2.68323,-2.68324c1.48191,0 2.68324,1.20133 2.68324,2.68324c0,1.48191 -1.20133,2.68324 -2.68324,2.68324c-1.48191,0 -2.68323,-1.20133 -2.68323,-2.68324z" fill="#000000" stroke-width="NaN"/><path d="M368.45612,205.60449c0,-8.98997 7.28781,-16.27778 16.27778,-16.27778c8.98997,0 16.27777,7.28781 16.27777,16.27778c0,8.98997 -7.2878,16.27778 -16.27777,16.27778c-8.98997,0 -16.27778,-7.28781 -16.27778,-16.27778z" fill="url(#color-14)" stroke-width="0"/></g><g stroke="none" stroke-linecap="butt"><path d="M209.87627,94.82774c0,-1.48191 1.20132,-2.68324 2.68323,-2.68324c1.48191,0 2.68324,1.20133 2.68324,2.68324c0,1.48191 -1.20133,2.68324 -2.68324,2.68324c-1.48191,0 -2.68323,-1.20133 -2.68323,-2.68324z" fill="#000000" stroke-width="NaN"/><path d="M196.45614,94.60449c0,-8.98997 7.28781,-16.27778 16.27778,-16.27778c8.98997,0 16.27777,7.28781 16.27777,16.27778c0,8.98997 -7.2878,16.27778 -16.27777,16.27778c-8.98997,0 -16.27778,-7.28781 -16.27778,-16.27778z" fill="url(#color-15)" stroke-width="0"/></g><g stroke="none" stroke-linecap="butt"><path d="M64.87627,152.82774c0,-1.48191 1.20132,-2.68324 2.68323,-2.68324c1.48191,0 2.68324,1.20133 2.68324,2.68324c0,1.48191 -1.20133,2.68324 -2.68324,2.68324c-1.48191,0 -2.68323,-1.20133 -2.68323,-2.68324z" fill="#000000" stroke-width="NaN"/><path d="M51.45614,152.60449c0,-8.98997 7.28781,-16.27778 16.27778,-16.27778c8.98997,0 16.27777,7.28781 16.27777,16.27778c0,8.98997 -7.2878,16.27778 -16.27777,16.27778c-8.98997,0 -16.27778,-7.28781 -16.27778,-16.27778z" fill="url(#color-16)" stroke-width="0"/></g><path d="M62.6808,214.48351v-24.25" fill="none" stroke="#182315" stroke-width="7.5" stroke-linecap="round"/><path d="M82.4308,188.23351v18.25" fill="none" stroke="#182315" stroke-width="7.5" stroke-linecap="round"/><path d="M111.6808,216.48351v-26.5" fill="none" stroke="#182315" stroke-width="7.5" stroke-linecap="round"/><path d="M126.6808,204.23351v-14.5" fill="none" stroke="#182315" stroke-width="7.5" stroke-linecap="round"/><path d="M146.18079,188.73351v22" fill="none" stroke="#182315" stroke-width="7.5" stroke-linecap="round"/><path d="M168.1808,191.23351v19" fill="none" stroke="#182315" stroke-width="7.5" stroke-linecap="round"/><path d="M194.9308,191.48351v10.5" fill="none" stroke="#182315" stroke-width="7.5" stroke-linecap="round"/><path d="M215.4308,216.23351v-25.5" fill="none" stroke="#182315" stroke-width="7.5" stroke-linecap="round"/><path d="M234.6808,189.48351v16.5" fill="none" stroke="#182315" stroke-width="7.5" stroke-linecap="round"/><path d="M253.1808,189.98351v11.25" fill="none" stroke="#182315" stroke-width="7.5" stroke-linecap="round"/><path d="M269.4308,216.23351v-26.75" fill="none" stroke="#182315" stroke-width="7.5" stroke-linecap="round"/><path d="M288.9308,211.23351v-19.5" fill="none" stroke="#182315" stroke-width="7.5" stroke-linecap="round"/><path d="M306.9308,204.98351v-14.25" fill="none" stroke="#182315" stroke-width="7.5" stroke-linecap="round"/><path d="M326.9308,191.23351v23" fill="none" stroke="#182315" stroke-width="7.5" stroke-linecap="round"/><path d="M342.9308,191.73351v11.75" fill="none" stroke="#182315" stroke-width="7.5" stroke-linecap="round"/><path d="M474.88699,259.7335v17.5" fill="none" stroke="#182315" stroke-width="7.5" stroke-linecap="round"/><path d="M358.63699,259.4835v16.25" fill="none" stroke="#182315" stroke-width="7.5" stroke-linecap="round"/><path d="M375.63699,259.4835v10.75" fill="none" stroke="#182315" stroke-width="7.5" stroke-linecap="round"/><path d="M391.38699,260.7335v21.75" fill="none" stroke="#182315" stroke-width="7.5" stroke-linecap="round"/><path d="M409.13699,259.4835v11.75" fill="none" stroke="#182315" stroke-width="7.5" stroke-linecap="round"/><path d="M434.13699,259.4835v19.25" fill="none" stroke="#182315" stroke-width="7.5" stroke-linecap="round"/><path d="M456.38699,259.4835v27.5" fill="none" stroke="#182315" stroke-width="7.5" stroke-linecap="round"/><path d="M481.63699,170.73351v-19" fill="none" stroke="#182315" stroke-width="7.5" stroke-linecap="round"/><path d="M464.63699,159.23351v13.75" fill="none" stroke="#182315" stroke-width="7.5" stroke-linecap="round"/><path d="M423.63699,149.73351v23.75" fill="none" stroke="#182315" stroke-width="7.5" stroke-linecap="round"/><path d="M444.38699,172.73351v-16.5" fill="none" stroke="#182315" stroke-width="7.5" stroke-linecap="round"/><path d="M408.38699,50.2335v24" fill="none" stroke="#182315" stroke-width="7.5" stroke-linecap="round"/><path d="M391.63699,72.7335v-15.5" fill="none" stroke="#182315" stroke-width="7.5" stroke-linecap="round"/><path d="M373.13699,58.4835v13.5" fill="none" stroke="#182315" stroke-width="7.5" stroke-linecap="round"/><path d="M355.63699,51.73351v21.75" fill="none" stroke="#182315" stroke-width="7.5" stroke-linecap="round"/><path d="M336.13699,55.98351v19.5" fill="none" stroke="#182315" stroke-width="7.5" stroke-linecap="round"/><path d="M312.38699,73.23351v-21.5" fill="none" stroke="#182315" stroke-width="7.5" stroke-linecap="round"/><path d="M292.88699,73.48351v-24.25" fill="none" stroke="#182315" stroke-width="7.5" stroke-linecap="round"/><path d="M271.38699,73.48351v-21" fill="none" stroke="#182315" stroke-width="7.5" stroke-linecap="round"/><path d="M248.88699,74.73351v-27" fill="none" stroke="#182315" stroke-width="7.5" stroke-linecap="round"/><path d="M227.63699,55.23351v19" fill="none" stroke="#182315" stroke-width="7.5" stroke-linecap="round"/><path d="M209.38699,73.48351v-22.5" fill="none" stroke="#182315" stroke-width="7.5" stroke-linecap="round"/><path d="M187.63699,73.23351v-18.25" fill="none" stroke="#182315" stroke-width="7.5" stroke-linecap="round"/><path d="M169.88699,52.73351v21.75" fill="none" stroke="#182315" stroke-width="7.5" stroke-linecap="round"/><path d="M54.38699,73.23351v-14.75" fill="none" stroke="#182315" stroke-width="7.5" stroke-linecap="round"/><path d="M77.13699,56.98351v16.5" fill="none" stroke="#182315" stroke-width="7.5" stroke-linecap="round"/><path d="M91.63699,61.23351v10.75" fill="none" stroke="#182315" stroke-width="7.5" stroke-linecap="round"/><path d="M111.63699,52.98351v22" fill="none" stroke="#182315" stroke-width="7.5" stroke-linecap="round"/><path d="M130.88699,60.73351v13" fill="none" stroke="#182315" stroke-width="7.5" stroke-linecap="round"/><path d="M147.38699,73.23351v-18" fill="none" stroke="#182315" stroke-width="7.5" stroke-linecap="round"/><g stroke="none" stroke-width="0" stroke-linecap="butt"><path d="M90.91806,124.05981c6.44178,-8.19352 7.72374,-7.44345 15.91727,-1.00168c8.19352,6.44178 7.63948,7.47442 1.1977,15.66794c-6.44178,8.19352 -9.00655,8.04873 -17.20007,1.60697c-8.19352,-6.44178 -6.35667,-8.0797 0.0851,-16.27323z" fill="url(#color-17)"/><path d="M85.36433,121.84878c-0.99714,-9.6103 0.4481,-9.92759 10.82289,-10.85124c10.37478,-0.92366 10.68696,0.12265 11.6841,9.73294c0.99714,9.6103 -0.95816,11.15361 -11.33294,12.07727c-10.37478,0.92366 -10.1769,-1.34866 -11.17402,-10.95896z" fill="url(#color-18)"/><path d="M94.48435,122.28406c0,-10.83227 1.52922,-11.04292 12.36149,-11.04292c10.83227,0 11.04292,1.19958 11.04292,12.03184c0,10.83227 -2.18849,12.36149 -13.02076,12.36149c-10.83227,0 -10.38365,-2.51812 -10.38365,-13.35039z" fill="url(#color-19)"/><path d="M110.81706,126.80523c6.695,-8.51558 8.02736,-7.73604 16.54294,-1.04104c8.51558,6.695 7.93979,7.76821 1.24479,16.28379c-6.695,8.51558 -9.36058,8.36512 -17.87616,1.67014c-8.51558,-6.695 -6.60655,-8.39731 0.08844,-16.91289z" fill="url(#color-20)"/><path d="M111.9677,111.15668c6.695,-8.51558 8.02736,-7.73603 16.54294,-1.04105c8.51558,6.695 7.93977,7.76821 1.24478,16.28379c-6.695,8.51558 -9.36057,8.36511 -17.87615,1.67014c-8.51558,-6.695 -6.60654,-8.39731 0.08844,-16.91289z" fill="url(#color-21)"/><path d="M94.70827,107.93493c6.695,-8.51558 8.02734,-7.73605 16.54292,-1.04105c8.51558,6.695 7.93979,7.76822 1.24479,16.2838c-6.695,8.51558 -9.36058,8.36511 -17.87616,1.67013c-8.51558,-6.695 -6.60654,-8.3973 0.08845,-16.91288z" fill="url(#color-22)"/><path d="M100.67264,116.2216c-1.03633,-10.78258 0.46573,-11.13855 11.2483,-12.17488c10.78258,-1.03633 11.10703,0.13758 12.14336,10.92016c1.03633,10.78258 -0.99582,12.51416 -11.7784,13.55049c-10.78258,1.03633 -10.57693,-1.51318 -11.61326,-12.29577z" fill="url(#color-23)"/><path d="M95.14963,135.32205c-1.03633,-10.78257 0.46573,-11.13858 11.24831,-12.1749c10.78257,-1.03633 11.10703,0.1376 12.14336,10.92019c1.03633,10.78258 -0.99583,12.51414 -11.77842,13.55047c-10.78257,1.03633 -10.57692,-1.51318 -11.61325,-12.29575z" fill="url(#color-24)"/><path d="M110.33791,123.3555c-1.03633,-10.78257 0.46573,-11.13856 11.24831,-12.17489c10.78257,-1.03633 11.10703,0.1376 12.14337,10.92019c1.03633,10.78257 -0.99583,12.51416 -11.77842,13.55048c-10.78257,1.03633 -10.57692,-1.51319 -11.61324,-12.29576z" fill="url(#color-25)"/></g><g stroke="none" stroke-width="0" stroke-linecap="butt"><path d="M93.37104,118.75158c9.11124,-5.06119 10.00291,-3.87336 15.06412,5.23787c5.06119,9.11124 4.15062,9.84891 -4.96062,14.9101c-9.11124,5.06119 -11.42001,3.93489 -16.48121,-5.17633c-5.06119,-9.11124 -2.73352,-9.91043 6.37771,-14.97164z" fill="url(#color-26)"/><path d="M89.10614,114.56312c2.80067,-9.24707 4.25606,-8.98019 14.17958,-5.81583c9.92351,3.16435 9.80634,4.24993 7.00567,13.497c-2.80067,9.24707 -5.20094,9.91319 -15.12446,6.74884c-9.92351,-3.16435 -8.86146,-5.18292 -6.06077,-14.42999z" fill="url(#color-27)"/><path d="M97.34668,118.49475c4.19309,-9.9878 5.68464,-9.59007 15.67243,-5.39698c9.9878,4.19309 9.71767,5.38069 5.52459,15.36848c-4.19309,9.9878 -6.80292,10.55065 -16.79071,6.35756c-9.9878,-4.19309 -8.5994,-6.34124 -4.40631,-16.32904z" fill="url(#color-28)"/><path d="M110.656,128.98573c9.46938,-5.26013 10.39612,-4.02561 15.65625,5.44377c5.26013,9.46938 4.31379,10.23604 -5.15559,15.49617c-9.46938,5.26013 -11.86891,4.08957 -17.12905,-5.37979c-5.26013,-9.46938 -2.84097,-10.30001 6.6284,-15.56014z" fill="url(#color-29)"/><path d="M117.77437,115.00253c9.46938,-5.26013 10.39611,-4.0256 15.65625,5.44376c5.26013,9.46938 4.31378,10.23603 -5.1556,15.49616c-9.46938,5.26013 -11.8689,4.08957 -17.12904,-5.37979c-5.26013,-9.46938 -2.84096,-10.30001 6.6284,-15.56014z" fill="url(#color-30)"/><path d="M103.10759,105.35095c9.46938,-5.26013 10.3961,-4.02563 15.65623,5.44375c5.26013,9.46938 4.31379,10.23605 -5.15559,15.49618c-9.46938,5.26013 -11.86891,4.08956 -17.12904,-5.3798c-5.26013,-9.46938 -2.84097,-10.3 6.62841,-15.56013z" fill="url(#color-31)"/><path d="M105.39927,115.30036c3.21832,-10.34313 4.74107,-10.08992 15.0842,-6.8716c10.34313,3.21832 10.18788,4.4263 6.96956,14.76944c-3.21832,10.34313 -5.76233,11.15309 -16.10546,7.93477c-10.34313,-3.21832 -9.16662,-5.48947 -5.9483,-15.83261z" fill="url(#color-32)"/><path d="M92.91319,130.77384c3.21831,-10.34313 4.74108,-10.08995 15.08422,-6.87162c10.34313,3.21831 10.18787,4.42632 6.96955,14.76947c-3.21832,10.34313 -5.76233,11.15307 -16.10547,7.93475c-10.34313,-3.21831 -9.16661,-5.48946 -5.9483,-15.83259z" fill="url(#color-33)"/><path d="M111.54956,125.61946c3.21831,-10.34313 4.74108,-10.08993 15.08421,-6.87161c10.34313,3.21831 10.18787,4.42632 6.96956,14.76947c-3.21831,10.34313 -5.76233,11.15309 -16.10547,7.93476c-10.34313,-3.21831 -9.16661,-5.48947 -5.94828,-15.83259z" fill="url(#color-34)"/></g><g stroke="none" stroke-width="0" stroke-linecap="butt"><path d="M306.37104,117.75159c9.11123,-5.06119 10.00291,-3.87337 15.06412,5.23786c5.06119,9.11123 4.15061,9.84891 -4.96062,14.9101c-9.11123,5.06119 -11.42001,3.93489 -16.48121,-5.17633c-5.06119,-9.11123 -2.73352,-9.91043 6.37771,-14.97164z" fill="url(#color-35)"/><path d="M302.10614,113.56312c2.80067,-9.24707 4.25606,-8.98018 14.17958,-5.81582c9.92352,3.16435 9.80634,4.24994 7.00567,13.497c-2.80067,9.24707 -5.20094,9.91318 -15.12446,6.74883c-9.92351,-3.16435 -8.86146,-5.18292 -6.06077,-14.42999z" fill="url(#color-36)"/><path d="M310.34668,117.49476c4.19309,-9.9878 5.68464,-9.59007 15.67243,-5.39698c9.9878,4.19309 9.71767,5.38069 5.52459,15.36848c-4.19309,9.9878 -6.80292,10.55065 -16.79071,6.35756c-9.9878,-4.19309 -8.5994,-6.34124 -4.40631,-16.32904z" fill="url(#color-37)"/><path d="M323.65599,127.98573c9.46938,-5.26013 10.39612,-4.02561 15.65625,5.44377c5.26013,9.46938 4.3138,10.23604 -5.15558,15.49617c-9.46938,5.26012 -11.86892,4.08957 -17.12905,-5.37979c-5.26013,-9.46938 -2.84097,-10.30001 6.6284,-15.56014z" fill="url(#color-38)"/><path d="M330.77437,114.00253c9.46938,-5.26013 10.39612,-4.0256 15.65625,5.44376c5.26013,9.46938 4.31377,10.23603 -5.1556,15.49616c-9.46938,5.26012 -11.8689,4.08957 -17.12904,-5.37979c-5.26013,-9.46938 -2.84096,-10.3 6.6284,-15.56014z" fill="url(#color-39)"/><path d="M316.10758,104.35095c9.46938,-5.26013 10.39611,-4.02563 15.65624,5.44375c5.26012,9.46938 4.31378,10.23605 -5.1556,15.49618c-9.46938,5.26012 -11.86891,4.08956 -17.12905,-5.37981c-5.26012,-9.46938 -2.84096,-10.29999 6.62841,-15.56012z" fill="url(#color-40)"/><path d="M318.39927,114.30036c3.21832,-10.34314 4.74107,-10.08992 15.0842,-6.8716c10.34313,3.21832 10.18788,4.4263 6.96956,14.76944c-3.21832,10.34313 -5.76233,11.1531 -16.10546,7.93478c-10.34314,-3.21832 -9.16662,-5.48946 -5.9483,-15.83261z" fill="url(#color-41)"/><path d="M305.91319,129.77384c3.21831,-10.34312 4.74108,-10.08995 15.08421,-6.87162c10.34312,3.21832 10.18787,4.42633 6.96955,14.76947c-3.21832,10.34313 -5.76233,11.15306 -16.10547,7.93474c-10.34313,-3.21831 -9.16661,-5.48946 -5.94829,-15.83258z" fill="url(#color-42)"/><path d="M324.54956,124.61946c3.21832,-10.34312 4.74107,-10.08993 15.08421,-6.87161c10.34312,3.21832 10.18787,4.42632 6.96956,14.76947c-3.21832,10.34313 -5.76233,11.15309 -16.10548,7.93475c-10.34312,-3.21831 -9.16661,-5.48947 -5.94828,-15.83259z" fill="url(#color-43)"/></g></g></g></svg>