<svg version="1.1" xmlns="http://www.w3.org/2000/svg" xmlns:xlink="http://www.w3.org/1999/xlink" width="266.83337" height="281.20317" viewBox="0,0,266.83337,281.20317"><defs><radialGradient cx="258.77556" cy="123.92881" r="3.56128" gradientUnits="userSpaceOnUse" id="color-1"><stop offset="0" stop-color="#ff1c1c"/><stop offset="1" stop-color="#ff1c1c" stop-opacity="0"/></radialGradient><radialGradient cx="346.03676" cy="321.09331" r="5.13825" gradientUnits="userSpaceOnUse" id="color-2"><stop offset="0" stop-color="#0028ff"/><stop offset="1" stop-color="#0028ff" stop-opacity="0"/></radialGradient><radialGradient cx="325.42474" cy="241.32249" r="5.13826" gradientUnits="userSpaceOnUse" id="color-3"><stop offset="0" stop-color="#0028ff"/><stop offset="1" stop-color="#0028ff" stop-opacity="0"/></radialGradient><radialGradient cx="325.89239" cy="244.57285" r="5.13825" gradientUnits="userSpaceOnUse" id="color-4"><stop offset="0" stop-color="#0028ff"/><stop offset="1" stop-color="#0028ff" stop-opacity="0"/></radialGradient><radialGradient cx="327.17877" cy="247.96049" r="5.13826" gradientUnits="userSpaceOnUse" id="color-5"><stop offset="0" stop-color="#0028ff"/><stop offset="1" stop-color="#0028ff" stop-opacity="0"/></radialGradient><radialGradient cx="328.46303" cy="251.14587" r="5.13826" gradientUnits="userSpaceOnUse" id="color-6"><stop offset="0" stop-color="#0028ff"/><stop offset="1" stop-color="#0028ff" stop-opacity="0"/></radialGradient><radialGradient cx="328.73189" cy="253.93739" r="5.13826" gradientUnits="userSpaceOnUse" id="color-7"><stop offset="0" stop-color="#0028ff"/><stop offset="1" stop-color="#0028ff" stop-opacity="0"/></radialGradient><radialGradient cx="329.81182" cy="256.92267" r="5.13826" gradientUnits="userSpaceOnUse" id="color-8"><stop offset="0" stop-color="#0028ff"/><stop offset="1" stop-color="#0028ff" stop-opacity="0"/></radialGradient><radialGradient cx="330.64507" cy="259.92643" r="5.13826" gradientUnits="userSpaceOnUse" id="color-9"><stop offset="0" stop-color="#0028ff"/><stop offset="1" stop-color="#0028ff" stop-opacity="0"/></radialGradient><radialGradient cx="331.65219" cy="263.40732" r="5.13826" gradientUnits="userSpaceOnUse" id="color-10"><stop offset="0" stop-color="#0028ff"/><stop offset="1" stop-color="#0028ff" stop-opacity="0"/></radialGradient><radialGradient cx="332.6736" cy="266.68645" r="5.13826" gradientUnits="userSpaceOnUse" id="color-11"><stop offset="0" stop-color="#0028ff"/><stop offset="1" stop-color="#0028ff" stop-opacity="0"/></radialGradient><radialGradient cx="332.71495" cy="269.49057" r="5.13826" gradientUnits="userSpaceOnUse" id="color-12"><stop offset="0" stop-color="#0028ff"/><stop offset="1" stop-color="#0028ff" stop-opacity="0"/></radialGradient><radialGradient cx="333.95128" cy="272.3472" r="5.13826" gradientUnits="userSpaceOnUse" id="color-13"><stop offset="0" stop-color="#0028ff"/><stop offset="1" stop-color="#0028ff" stop-opacity="0"/></radialGradient><radialGradient cx="334.88574" cy="275.01423" r="5.13825" gradientUnits="userSpaceOnUse" id="color-14"><stop offset="0" stop-color="#0028ff"/><stop offset="1" stop-color="#0028ff" stop-opacity="0"/></radialGradient><radialGradient cx="335.89287" cy="278.49512" r="5.13826" gradientUnits="userSpaceOnUse" id="color-15"><stop offset="0" stop-color="#0028ff"/><stop offset="1" stop-color="#0028ff" stop-opacity="0"/></radialGradient><radialGradient cx="336.9143" cy="281.77428" r="5.13826" gradientUnits="userSpaceOnUse" id="color-16"><stop offset="0" stop-color="#0028ff"/><stop offset="1" stop-color="#0028ff" stop-opacity="0"/></radialGradient><radialGradient cx="336.95561" cy="284.5784" r="5.13826" gradientUnits="userSpaceOnUse" id="color-17"><stop offset="0" stop-color="#0028ff"/><stop offset="1" stop-color="#0028ff" stop-opacity="0"/></radialGradient><radialGradient cx="337.78961" cy="287.64148" r="5.13826" gradientUnits="userSpaceOnUse" id="color-18"><stop offset="0" stop-color="#0028ff"/><stop offset="1" stop-color="#0028ff" stop-opacity="0"/></radialGradient><radialGradient cx="338.31957" cy="290.31277" r="5.13826" gradientUnits="userSpaceOnUse" id="color-19"><stop offset="0" stop-color="#0028ff"/><stop offset="1" stop-color="#0028ff" stop-opacity="0"/></radialGradient><radialGradient cx="339.3267" cy="293.79365" r="5.13826" gradientUnits="userSpaceOnUse" id="color-20"><stop offset="0" stop-color="#0028ff"/><stop offset="1" stop-color="#0028ff" stop-opacity="0"/></radialGradient><radialGradient cx="340.34813" cy="297.07279" r="5.13826" gradientUnits="userSpaceOnUse" id="color-21"><stop offset="0" stop-color="#0028ff"/><stop offset="1" stop-color="#0028ff" stop-opacity="0"/></radialGradient><radialGradient cx="340.38945" cy="299.87691" r="5.13825" gradientUnits="userSpaceOnUse" id="color-22"><stop offset="0" stop-color="#0028ff"/><stop offset="1" stop-color="#0028ff" stop-opacity="0"/></radialGradient><radialGradient cx="341.22346" cy="302.93999" r="5.13826" gradientUnits="userSpaceOnUse" id="color-23"><stop offset="0" stop-color="#0028ff"/><stop offset="1" stop-color="#0028ff" stop-opacity="0"/></radialGradient><radialGradient cx="342.15154" cy="305.00032" r="5.13826" gradientUnits="userSpaceOnUse" id="color-24"><stop offset="0" stop-color="#0028ff"/><stop offset="1" stop-color="#0028ff" stop-opacity="0"/></radialGradient><radialGradient cx="343.15866" cy="308.48123" r="5.13825" gradientUnits="userSpaceOnUse" id="color-25"><stop offset="0" stop-color="#0028ff"/><stop offset="1" stop-color="#0028ff" stop-opacity="0"/></radialGradient><radialGradient cx="344.18009" cy="311.76037" r="5.13826" gradientUnits="userSpaceOnUse" id="color-26"><stop offset="0" stop-color="#0028ff"/><stop offset="1" stop-color="#0028ff" stop-opacity="0"/></radialGradient><radialGradient cx="344.22141" cy="314.56447" r="5.13825" gradientUnits="userSpaceOnUse" id="color-27"><stop offset="0" stop-color="#0028ff"/><stop offset="1" stop-color="#0028ff" stop-opacity="0"/></radialGradient><radialGradient cx="345.0554" cy="317.62758" r="5.13825" gradientUnits="userSpaceOnUse" id="color-28"><stop offset="0" stop-color="#0028ff"/><stop offset="1" stop-color="#0028ff" stop-opacity="0"/></radialGradient><radialGradient cx="335.09644" cy="298.7793" r="5.13825" gradientUnits="userSpaceOnUse" id="color-29"><stop offset="0" stop-color="#0028ff"/><stop offset="1" stop-color="#0028ff" stop-opacity="0"/></radialGradient><radialGradient cx="336.22808" cy="302.40865" r="5.13826" gradientUnits="userSpaceOnUse" id="color-30"><stop offset="0" stop-color="#0028ff"/><stop offset="1" stop-color="#0028ff" stop-opacity="0"/></radialGradient><radialGradient cx="338.12978" cy="305.03914" r="5.13826" gradientUnits="userSpaceOnUse" id="color-31"><stop offset="0" stop-color="#0028ff"/><stop offset="1" stop-color="#0028ff" stop-opacity="0"/></radialGradient><radialGradient cx="339.13063" cy="307.81108" r="5.13826" gradientUnits="userSpaceOnUse" id="color-32"><stop offset="0" stop-color="#0028ff"/><stop offset="1" stop-color="#0028ff" stop-opacity="0"/></radialGradient><radialGradient cx="339.91227" cy="310.75483" r="5.13826" gradientUnits="userSpaceOnUse" id="color-33"><stop offset="0" stop-color="#0028ff"/><stop offset="1" stop-color="#0028ff" stop-opacity="0"/></radialGradient><radialGradient cx="346.10972" cy="324.49367" r="5.13826" gradientUnits="userSpaceOnUse" id="color-34"><stop offset="0" stop-color="#0028ff"/><stop offset="1" stop-color="#0028ff" stop-opacity="0"/></radialGradient><radialGradient cx="329.43843" cy="285.09748" r="5.13826" gradientUnits="userSpaceOnUse" id="color-35"><stop offset="0" stop-color="#0028ff"/><stop offset="1" stop-color="#0028ff" stop-opacity="0"/></radialGradient><radialGradient cx="330.68621" cy="288.40023" r="5.13826" gradientUnits="userSpaceOnUse" id="color-36"><stop offset="0" stop-color="#0028ff"/><stop offset="1" stop-color="#0028ff" stop-opacity="0"/></radialGradient><radialGradient cx="332.16804" cy="291.49866" r="5.13826" gradientUnits="userSpaceOnUse" id="color-37"><stop offset="0" stop-color="#0028ff"/><stop offset="1" stop-color="#0028ff" stop-opacity="0"/></radialGradient><radialGradient cx="332.61171" cy="294.26778" r="5.13826" gradientUnits="userSpaceOnUse" id="color-38"><stop offset="0" stop-color="#0028ff"/><stop offset="1" stop-color="#0028ff" stop-opacity="0"/></radialGradient><radialGradient cx="334.00142" cy="297.17801" r="5.13827" gradientUnits="userSpaceOnUse" id="color-39"><stop offset="0" stop-color="#0028ff"/><stop offset="1" stop-color="#0028ff" stop-opacity="0"/></radialGradient><radialGradient cx="324.69945" cy="271.66733" r="5.13826" gradientUnits="userSpaceOnUse" id="color-40"><stop offset="0" stop-color="#0028ff"/><stop offset="1" stop-color="#0028ff" stop-opacity="0"/></radialGradient><radialGradient cx="326.05145" cy="275.02932" r="5.13826" gradientUnits="userSpaceOnUse" id="color-41"><stop offset="0" stop-color="#0028ff"/><stop offset="1" stop-color="#0028ff" stop-opacity="0"/></radialGradient><radialGradient cx="327.3974" cy="278.18913" r="5.13825" gradientUnits="userSpaceOnUse" id="color-42"><stop offset="0" stop-color="#0028ff"/><stop offset="1" stop-color="#0028ff" stop-opacity="0"/></radialGradient><radialGradient cx="327.92271" cy="280.97278" r="5.13825" gradientUnits="userSpaceOnUse" id="color-43"><stop offset="0" stop-color="#0028ff"/><stop offset="1" stop-color="#0028ff" stop-opacity="0"/></radialGradient><radialGradient cx="327.91352" cy="282.12347" r="5.13825" gradientUnits="userSpaceOnUse" id="color-44"><stop offset="0" stop-color="#0028ff"/><stop offset="1" stop-color="#0028ff" stop-opacity="0"/></radialGradient><radialGradient cx="319.67241" cy="258.32391" r="4.72428" gradientUnits="userSpaceOnUse" id="color-45"><stop offset="0" stop-color="#0028ff"/><stop offset="1" stop-color="#0028ff" stop-opacity="0"/></radialGradient><radialGradient cx="320.91547" cy="261.41503" r="4.72428" gradientUnits="userSpaceOnUse" id="color-46"><stop offset="0" stop-color="#0028ff"/><stop offset="1" stop-color="#0028ff" stop-opacity="0"/></radialGradient><radialGradient cx="322.153" cy="264.32027" r="4.72428" gradientUnits="userSpaceOnUse" id="color-47"><stop offset="0" stop-color="#0028ff"/><stop offset="1" stop-color="#0028ff" stop-opacity="0"/></radialGradient><radialGradient cx="322.45003" cy="266.88158" r="4.72428" gradientUnits="userSpaceOnUse" id="color-48"><stop offset="0" stop-color="#0028ff"/><stop offset="1" stop-color="#0028ff" stop-opacity="0"/></radialGradient><radialGradient cx="323.49612" cy="269.60652" r="4.72428" gradientUnits="userSpaceOnUse" id="color-49"><stop offset="0" stop-color="#0028ff"/><stop offset="1" stop-color="#0028ff" stop-opacity="0"/></radialGradient><radialGradient cx="314.97134" cy="243.37809" r="5.13826" gradientUnits="userSpaceOnUse" id="color-50"><stop offset="0" stop-color="#0028ff"/><stop offset="1" stop-color="#0028ff" stop-opacity="0"/></radialGradient><radialGradient cx="316.32334" cy="246.74008" r="5.13826" gradientUnits="userSpaceOnUse" id="color-51"><stop offset="0" stop-color="#0028ff"/><stop offset="1" stop-color="#0028ff" stop-opacity="0"/></radialGradient><radialGradient cx="317.6693" cy="249.89988" r="5.13825" gradientUnits="userSpaceOnUse" id="color-52"><stop offset="0" stop-color="#0028ff"/><stop offset="1" stop-color="#0028ff" stop-opacity="0"/></radialGradient><radialGradient cx="317.99237" cy="252.68566" r="5.13825" gradientUnits="userSpaceOnUse" id="color-53"><stop offset="0" stop-color="#0028ff"/><stop offset="1" stop-color="#0028ff" stop-opacity="0"/></radialGradient><radialGradient cx="319.13012" cy="255.64936" r="5.13825" gradientUnits="userSpaceOnUse" id="color-54"><stop offset="0" stop-color="#0028ff"/><stop offset="1" stop-color="#0028ff" stop-opacity="0"/></radialGradient><radialGradient cx="346.78305" cy="327.28095" r="5.13826" gradientUnits="userSpaceOnUse" id="color-55"><stop offset="0" stop-color="#0028ff"/><stop offset="1" stop-color="#0028ff" stop-opacity="0"/></radialGradient><radialGradient cx="314.96813" cy="240.80705" r="5.13826" gradientUnits="userSpaceOnUse" id="color-56"><stop offset="0" stop-color="#0028ff"/><stop offset="1" stop-color="#0028ff" stop-opacity="0"/></radialGradient><radialGradient cx="315.05965" cy="237.90606" r="5.13826" gradientUnits="userSpaceOnUse" id="color-57"><stop offset="0" stop-color="#0028ff"/><stop offset="1" stop-color="#0028ff" stop-opacity="0"/></radialGradient><radialGradient cx="317.27166" cy="235.75997" r="5.13826" gradientUnits="userSpaceOnUse" id="color-58"><stop offset="0" stop-color="#0028ff"/><stop offset="1" stop-color="#0028ff" stop-opacity="0"/></radialGradient><radialGradient cx="320.95602" cy="236.41305" r="5.13826" gradientUnits="userSpaceOnUse" id="color-59"><stop offset="0" stop-color="#0028ff"/><stop offset="1" stop-color="#0028ff" stop-opacity="0"/></radialGradient><radialGradient cx="323.62288" cy="237.81172" r="5.13826" gradientUnits="userSpaceOnUse" id="color-60"><stop offset="0" stop-color="#0028ff"/><stop offset="1" stop-color="#0028ff" stop-opacity="0"/></radialGradient><radialGradient cx="340.97223" cy="314.9564" r="4.02613" gradientUnits="userSpaceOnUse" id="color-61"><stop offset="0" stop-color="#0028ff"/><stop offset="1" stop-color="#0028ff" stop-opacity="0"/></radialGradient><radialGradient cx="342.3313" cy="318.99553" r="4.02614" gradientUnits="userSpaceOnUse" id="color-62"><stop offset="0" stop-color="#0028ff"/><stop offset="1" stop-color="#0028ff" stop-opacity="0"/></radialGradient><radialGradient cx="344.49076" cy="323.33123" r="3.90624" gradientUnits="userSpaceOnUse" id="color-63"><stop offset="0" stop-color="#0028ff"/><stop offset="1" stop-color="#0028ff" stop-opacity="0"/></radialGradient><radialGradient cx="348.18303" cy="329.86188" r="4.08892" gradientUnits="userSpaceOnUse" id="color-64"><stop offset="0" stop-color="#0028ff"/><stop offset="1" stop-color="#0028ff" stop-opacity="0"/></radialGradient><radialGradient cx="349.20505" cy="332.90777" r="3.01511" gradientUnits="userSpaceOnUse" id="color-65"><stop offset="0" stop-color="#0028ff"/><stop offset="1" stop-color="#0028ff" stop-opacity="0"/></radialGradient><radialGradient cx="313.96852" cy="220.15265" r="6.15427" gradientUnits="userSpaceOnUse" id="color-66"><stop offset="0" stop-color="#0028ff"/><stop offset="1" stop-color="#0028ff" stop-opacity="0"/></radialGradient><radialGradient cx="315.79959" cy="228.4072" r="5.01273" gradientUnits="userSpaceOnUse" id="color-67"><stop offset="0" stop-color="#0028ff"/><stop offset="1" stop-color="#0028ff" stop-opacity="0"/></radialGradient></defs><g transform="translate(-127.52269,-54.72035)"><g data-paper-data="{&quot;isPaintingLayer&quot;:true}" fill-rule="nonzero" stroke-linejoin="miter" stroke-miterlimit="10" stroke-dasharray="" stroke-dashoffset="0" style="mix-blend-mode: normal"><g stroke="#000000" stroke-width="1.5" stroke-linecap="butt"><g><path d="M331.21495,115.95646c0,0 -4.27658,-2.16965 -5.74841,-4.38055c-1.88666,-2.83403 -3.53469,-6.87321 -3.04635,-7.20639c3.74596,-2.55579 15.11453,-12.63415 26.96393,-14.98925c11.84939,-2.35511 39.16069,2.19489 39.16069,2.19489c0,0 -22.20354,2.76295 -35.22386,8.26489c-13.02032,5.50194 -22.10597,16.11644 -22.10597,16.11644z" data-paper-data="{&quot;index&quot;:null}" fill="#160f3d"/><path d="M324.75313,108.53786c0,0 6.13886,-6.25836 8.6469,-7.65441c1.48464,-0.82639 9.19419,-5.86446 16.51256,-7.56354c6.94212,-1.61173 14.36796,-1.05666 14.36796,-1.05666c0,0 -11.22038,3.54344 -18.23525,6.78368c-2.94016,1.35809 -6.79783,4.33673 -9.96065,6.89909c-4.38327,3.55113 -8.1062,6.57767 -8.1062,6.57767z" data-paper-data="{&quot;index&quot;:null}" fill="#2a2355"/></g><g><path d="M327.39027,117.1556c0,0 -3.40863,-3.37309 -4.13419,-5.92806c-0.93005,-3.2751 -1.26447,-7.62473 -0.69767,-7.79268c4.34791,-1.2884 18.2531,-7.40915 30.25522,-6.02937c12.00211,1.37977 36.61526,14.06057 36.61526,14.06057c0,0 -21.9853,-4.15652 -36.06424,-2.89804c-14.07892,1.25849 -25.97435,8.58758 -25.97435,8.58758z" data-paper-data="{&quot;index&quot;:null}" fill="#160f3d"/><path d="M323.50552,108.11682c0,0 7.75808,-4.08225 10.57281,-4.6448c1.66619,-0.333 10.54678,-2.77325 18.0342,-2.1539c7.10254,0.5875 14.0032,3.38595 14.0032,3.38595c0,0 -11.76646,-0.05604 -19.43605,0.88479c-3.2146,0.39433 -7.79809,2.05115 -11.59281,3.52407c-5.25896,2.04125 -9.72889,3.78491 -9.72889,3.78491z" data-paper-data="{&quot;index&quot;:null}" fill="#2a2355"/></g><g data-paper-data="{&quot;index&quot;:null}"><path d="M326.69785,116.50114c0,0 -1.67546,-4.49325 -1.26007,-7.11659c0.53246,-3.36271 2.05696,-7.45012 2.64189,-7.3643c4.48675,0.65817 19.67671,0.94791 29.98761,7.24396c10.31088,6.29603 27.31574,28.14654 27.31574,28.14654c0,0 -18.20274,-13.01119 -31.50691,-17.78604c-13.30419,-4.77483 -27.17824,-3.12357 -27.17824,-3.12357z" data-paper-data="{&quot;index&quot;:null}" fill="#160f3d"/><path d="M326.97145,106.66672c0,0 8.75531,-0.44387 11.54583,0.22861c1.65185,0.39806 10.73566,1.91593 17.2695,5.62459c6.19794,3.518 11.28359,8.95742 11.28359,8.95742c0,0 -10.65338,-4.99582 -18.00819,-7.36535c-3.08265,-0.99314 -7.93805,-1.41599 -12.00039,-1.67425c-5.62985,-0.35788 -10.41868,-0.65423 -10.41868,-0.65423z" data-paper-data="{&quot;index&quot;:null}" fill="#2a2355"/></g><g><path d="M323.90826,110.05911c0,0 -0.94335,5.1019 -1.38614,7.28019c-3.17381,15.61312 -14.34818,31.64382 -14.93936,31.28994c-0.44013,-0.26347 -3.16375,0.51753 -3.69456,0.07136c-1.97513,-1.66013 -0.97605,-5.22928 -0.97605,-5.22928c0,0 14.76534,-19.86989 16.51138,-30.24864c0.65851,-3.91432 4.48471,-3.16357 4.48471,-3.16357z" fill="#100d25"/><path d="M311.95028,148.96057c-0.36961,-0.14221 -1.96528,0.46036 -3.0159,0.21089c-1.28416,-0.30492 -2.63347,-0.77576 -2.63347,-0.77576c0,0 11.04213,-18.54694 13.15415,-23.15114c2.15879,-4.70614 4.10389,-15.1499 4.10389,-15.1499l4.17789,1.52852c0,0 -2.4346,9.96163 -4.27081,14.57826c-1.98354,4.98706 -11.02395,22.94839 -11.51574,22.75916z" data-paper-data="{&quot;index&quot;:null}" fill="#160f3d"/></g><g><path d="M304.56449,149.33988c0,0 -3.74346,2.86852 -5.03746,4.54026c-9.27466,11.98236 -24.50951,20.63841 -24.84395,19.96891c-0.24899,-0.49846 -2.81972,-1.43818 -3.0652,-2.15358c-0.91339,-2.66183 1.4315,-5.23682 1.4315,-5.23682c0,0 19.87282,-9.53898 25.73932,-17.72248c2.21255,-3.08637 5.77579,0.60373 5.77579,0.60373z" fill="#100d25"/><path d="M276.625,177.52787c-0.24284,-0.34828 -0.30686,-1.53312 -1.0633,-2.38548c-0.92458,-1.0418 -1.83184,-2.27027 -1.83184,-2.27027c0,0 16.91384,-10.09603 20.61492,-12.9238c3.78302,-2.89036 9.91758,-10.78641 9.91758,-10.78641l3.76805,5.29383c0,0 -10.69549,9.939 -10.95848,10.15028c-4.76074,3.8245 -20.14071,13.36102 -20.44694,12.92187z" data-paper-data="{&quot;index&quot;:null}" fill="#160f3d"/></g><g><path d="M301.36722,143.09983c0,0 -0.25751,1.87374 -0.46829,2.26398c-0.21077,0.39024 -1.3469,1.10063 -1.79371,1.43145c-0.44681,0.3308 -2.1247,0.93291 -2.1247,0.93291l-2.95321,-6.98601z" fill="#160f3d"/><path d="M314.27298,149.54179l-6.66863,9.40177l-7.0382,-2.72407l-5.06815,-5.86291l6.66865,-9.4018l7.11467,2.25493z" fill="#2a2355"/></g><path d="M315.84224,110.64463c0.22681,-4.4349 4.0059,-7.84623 8.44079,-7.6194c4.4349,0.22682 7.84624,4.00589 7.61941,8.44078c-0.22681,4.4349 -4.0059,7.84623 -8.44078,7.61941c-4.4349,-0.22682 -7.84624,-4.00589 -7.61941,-8.44078z" fill="#100d25"/><path d="M320.49854,114.59063c-1.90956,-1.62457 -2.1406,-4.48953 -0.51604,-6.3991c1.62457,-1.90956 4.48953,-2.1406 6.3991,-0.51604c1.90956,1.62457 2.1406,4.48953 0.51604,6.3991c-1.62457,1.90956 -4.48953,2.1406 -6.3991,0.51604z" fill="#2a2355"/><path d="M302.21819,149.90721c-0.34862,-1.39947 0.50327,-2.81656 1.90273,-3.16519c1.39947,-0.34862 2.81657,0.50324 3.16518,1.9027c0.34862,1.39947 -0.74017,3.03281 -2.13965,3.38146c-1.39948,0.34862 -2.57963,-0.71951 -2.92826,-2.119z" fill="#160f3d"/><g><path d="M278.38814,177.73823l-9.48583,1.35532l1.7312,-6.71581l-4.68836,-6.10243l9.32302,-0.96829l5.5321,4.68856z" fill="#2a2355"/><path d="M268.19231,173.60382c-0.82568,-2.11 0.21547,-4.48988 2.3255,-5.31558c2.11002,-0.82568 4.48988,0.21547 5.31555,2.3255c0.82568,2.11 -0.21546,4.48987 -2.32549,5.31555c-2.11002,0.82568 -4.48988,-0.21545 -5.31557,-2.3255z" fill="#160f3d"/><path d="M260.17076,180.52045l0.88953,-14.73854l6.22571,-0.63818c0,0 4.32382,3.53435 4.76269,6.69904c0.43886,3.1647 -2.84094,8.06213 -2.84094,8.06213z" fill="#160f3d"/></g></g><g stroke="#000000" stroke-width="1.5" stroke-linecap="butt"><g><path d="M190.42303,97.72465c0,0 -5.21272,-12.96317 -15.7888,-22.34117c-10.57611,-9.37797 -30.72904,-19.09855 -30.72904,-19.09855c0,0 27.33168,4.42585 37.80505,10.44777c10.47336,6.02193 18.02054,19.20746 20.75205,22.82726c0.3561,0.47189 -2.49743,3.77164 -5.19158,5.85321c-2.10174,1.62388 -6.84768,2.31147 -6.84768,2.31147z" data-paper-data="{&quot;index&quot;:null}" fill="#160f3d"/><path d="M194.58764,95.50763c0,0 -2.55911,-4.05848 -5.57609,-8.82518c-2.17694,-3.43951 -4.87905,-7.49565 -7.23027,-9.72293c-5.60973,-5.314 -15.10697,-12.26059 -15.10697,-12.26059c0,0 7.21318,1.84957 13.27495,5.59738c6.39028,3.9509 12.08305,11.19048 13.22533,12.44839c1.92966,2.12498 5.74392,10.01828 5.74392,10.01828z" data-paper-data="{&quot;index&quot;:null}" fill="#2a2355"/></g><g><path d="M193.29593,99.74487c0,0 -8.92581,-10.74926 -21.86235,-16.44542c-12.93653,-5.69615 -35.09623,-8.79102 -35.09623,-8.79102c0,0 27.37632,-4.14082 39.18916,-1.60867c11.81283,2.53215 23.02934,12.77948 26.73662,15.39104c0.4833,0.34046 -1.22497,4.35452 -3.15385,7.16003c-1.50476,2.18861 -5.81333,4.29406 -5.81333,4.29406z" data-paper-data="{&quot;index&quot;:null}" fill="#160f3d"/><path d="M196.58347,96.3609c0,0 -3.67727,-3.08194 -8.00689,-6.69825c-3.12412,-2.60942 -6.93678,-5.64543 -9.8563,-7.04736c-6.9656,-3.34484 -18.13171,-7.05581 -18.13171,-7.05581c0,0 7.43329,-0.44389 14.35054,1.27155c7.29212,1.8084 14.92543,6.96126 16.39754,7.80978c2.48685,1.43342 8.53137,7.78293 8.53137,7.78293z" data-paper-data="{&quot;index&quot;:null}" fill="#2a2355"/></g><g data-paper-data="{&quot;index&quot;:null}"><path d="M194.52853,99.68567c0,0 -12.61679,-6.00276 -26.74932,-5.73475c-14.13252,0.26801 -35.54098,6.77251 -35.54098,6.77251c0,0 23.10118,-15.26255 34.88432,-17.92934c11.78316,-2.6668 26.26762,1.91786 30.72915,2.72958c0.58162,0.10583 0.71849,4.46612 0.14726,7.82247c-0.44564,2.61836 -3.47041,6.33952 -3.47041,6.33952z" data-paper-data="{&quot;index&quot;:null}" fill="#160f3d"/><path d="M196.08951,95.23346c0,0 -4.63197,-1.25115 -10.08047,-2.71303c-3.93146,-1.05486 -8.66702,-2.20744 -11.90538,-2.25261c-7.72635,-0.10775 -19.41804,1.21758 -19.41804,1.21758c0,0 6.55841,-3.52671 13.55611,-4.87714c7.37688,-1.42364 16.46893,0.04412 18.16132,0.19541c2.859,0.25555 11.01225,3.47688 11.01225,3.47688z" data-paper-data="{&quot;index&quot;:null}" fill="#2a2355"/></g><g><path d="M199.03319,94.179c0,0 3.89737,0.11788 3.66996,4.08071c-0.60295,10.50732 9.37993,33.16057 9.37993,33.16057c0,0 0.18131,3.70189 -2.11321,4.88183c-0.61667,0.31711 -3.09878,-1.04936 -3.5864,-0.89024c-0.65499,0.21373 -7.9894,-17.89861 -7.61587,-33.82667c0.05211,-2.22221 0.26558,-7.4062 0.26558,-7.4062z" fill="#100d25"/><path d="M202.05149,134.76476c-0.52154,0.07527 -5.34645,-19.44545 -6.17267,-24.74852c-0.76487,-4.90918 -0.92593,-15.16271 -0.92593,-15.16271l4.41304,-0.56231c0,0 -0.42332,10.61493 0.63621,15.68301c1.03656,4.95833 7.68311,25.49466 7.68311,25.49466c0,0 -1.4202,0.15936 -2.74001,0.17141c-1.07978,0.00985 -2.50175,-0.93212 -2.89371,-0.87555z" data-paper-data="{&quot;index&quot;:null}" fill="#160f3d"/></g><g><path d="M209.16851,136.77517c0,0 4.2939,-2.80641 5.7656,0.69433c3.90221,9.28215 21.15973,22.9971 21.15973,22.9971c0,0 1.71431,3.03155 0.23248,5.42398c-0.39825,0.643 -3.11349,0.98823 -3.46698,1.41893c-0.47479,0.57846 -13.40633,-11.24537 -19.78773,-24.98852c-0.89032,-1.91738 -3.90311,-5.54578 -3.90311,-5.54578z" fill="#100d25"/><path d="M230.14875,170.46506c-0.39612,0.36017 -13.2736,-12.35439 -17.06587,-17.14083c-0.20949,-0.26439 -8.43009,-12.33086 -8.43009,-12.33086l4.84981,-4.32461c0,0 4.22742,9.06143 7.2739,12.71989c2.98052,3.57924 17.22922,17.18006 17.22922,17.18006c0,0 -1.15745,0.99626 -2.29036,1.80666c-0.92688,0.66303 -1.25245,1.80405 -1.56659,2.08969z" data-paper-data="{&quot;index&quot;:null}" fill="#160f3d"/></g><g><path d="M221.3522,130.73284l-4.43121,6.1555c0,0 -1.50224,-0.95976 -1.86439,-1.38157c-0.36215,-0.42181 -1.31211,-1.36683 -1.43094,-1.79413c-0.11883,-0.42732 0.04629,-2.31144 0.04629,-2.31144z" fill="#160f3d"/><path d="M205.93118,129.75043l7.4378,-0.61825l4.41369,10.6482l-6.24382,4.5907l-7.46748,1.09267l-4.41368,-10.64817z" fill="#2a2355"/></g><path d="M197.46366,103.07901c-4.37448,-0.76394 -7.30141,-4.92948 -6.53747,-9.30397c0.76393,-4.37448 4.9295,-7.3014 9.30398,-6.53746c4.37448,0.76394 7.30141,4.92949 6.53746,9.30398c-0.76393,4.37449 -4.9295,7.3014 -9.30398,6.53746z" fill="#100d25"/><path d="M195.22657,97.43016c-1.15982,-2.22272 -0.29818,-4.96481 1.92456,-6.12462c2.22272,-1.15981 4.96481,-0.29818 6.12462,1.92455c1.15982,2.22272 0.29818,4.96481 -1.92455,6.12462c-2.22272,1.15981 -4.96481,0.29818 -6.12462,-1.92455z" fill="#2a2355"/><path d="M208.0044,139.26516c-1.28707,-0.65078 -1.98586,-2.48518 -1.33509,-3.77226c0.65078,-1.28707 2.22167,-1.80286 3.50874,-1.15211c1.28706,0.65077 1.80288,2.22167 1.15214,3.50874c-0.65078,1.28707 -2.03871,2.06641 -3.32578,1.41562z" fill="#160f3d"/><g><path d="M227.75086,162.19352l6.43534,-3.34262l8.87502,3.01495l-5.92673,4.9086l0.19619,6.93257l-8.94781,-3.42848z" fill="#2a2355"/><path d="M239.24242,168.51213c-1.27375,1.87391 -3.82545,2.3604 -5.69935,1.08669c-1.87389,-1.27373 -2.36041,-3.82543 -1.08669,-5.69933c1.27375,-1.87387 3.82543,-2.3604 5.69933,-1.0867c1.87389,1.27374 2.36041,3.82544 1.0867,5.69935z" fill="#160f3d"/><path d="M236.85271,174.43026c0,0 -2.11001,-5.50363 -0.97915,-8.49177c1.13086,-2.98813 6.13174,-5.47377 6.13174,-5.47377l5.92843,2.00511l-2.40648,14.56794z" fill="#160f3d"/></g></g><g stroke="#000000"><g><path d="M246.84312,143.91878l1.00709,-6.1373l-5.36955,-6.03149c0,0 5.59064,-1.11983 5.65917,-1.66018c0.20031,-1.5793 -0.48661,-5.77797 -0.48661,-5.77797l-3.53747,-13.03843c0,0 10.08247,12.2192 19.83473,13.07823c9.75225,0.85904 20.54474,-9.52134 20.54474,-9.52134l-5.49837,14.44788l-2.16482,5.45693l3.63516,2.47318c0,0 -4.91352,2.77848 -5.08256,4.11127c-0.26425,2.08341 -0.10125,6.20647 -0.10125,6.20647c0,0 -10.28044,0.22039 -15.35424,-0.42314c-4.26522,-0.54099 -13.086,-3.18413 -13.086,-3.18413z" fill="#160f3d" stroke-width="1.5" stroke-linecap="butt"/><path d="M269.12475,131.2577c0,0 1.46685,4.17575 0.96496,5.28808c-0.36662,0.81256 -3.5421,-0.3807 -3.5421,-0.3807c0,0 1.13912,4.29086 0.93061,4.46281c-2.44144,2.01379 -7.27078,2.12028 -7.27078,2.12028c0,0 -2.79957,-1.53915 -4.44911,-4.67691c-0.34527,-0.65677 1.57687,-3.57185 1.57687,-3.57185c0,0 -3.01056,-0.02332 -3.11783,-1.03016c-0.12106,-1.13635 1.51656,-4.6417 1.51656,-4.6417l-4.36263,0.45453c0,0 -0.88846,-3.44518 -2.32775,-4.00398c-3.26972,-1.26949 -7.61216,-1.59861 -7.38693,-2.22141c0.42938,-1.18733 2.2872,-3.55997 4.61591,-4.35339c2.88071,-0.98152 7.7688,0.09024 7.7688,0.09024c0,0 5.38225,-3.59401 11.02206,-2.91328c5.63979,0.68072 8.71233,5.58422 8.71233,5.58422c0,0 4.84617,-1.03228 7.22553,0.60701c2.37937,1.63927 2.92521,4.77836 3.74003,6.01118c0.24183,0.36591 -4.90481,0.45279 -9.13286,1.05833c-1.56966,0.22482 -1.65981,4.63988 -1.65981,4.63988z" fill="#2a2355" stroke-width="1.5" stroke-linecap="butt"/><path d="M268.91339,122.94431c0.88309,-0.32023 4.46737,-0.87698 4.46737,-0.87698c0,0 1.75878,2.16905 -0.37318,2.94218c-0.97614,0.35398 -2.68683,0.38155 -4.23113,0.12126c-1.82852,-0.3082 -3.43257,-0.95092 -3.43257,-0.95092c0,0 2.46618,-0.8354 3.56949,-1.23552z" data-paper-data="{&quot;index&quot;:null}" fill="#c11515" stroke-width="1.25" stroke-linecap="butt"/><path d="M258.29226,131.31414l-0.3262,2.57178" fill="none" stroke-width="1.5" stroke-linecap="round"/><path d="M266.62667,132.50575l-0.30988,2.44321" fill="none" stroke-width="1.5" stroke-linecap="round"/><path d="M263.62307,136.82553l0.40774,-3.21473" fill="none" stroke-width="1.5" stroke-linecap="round"/><path d="M260.18537,136.38947l0.40775,-3.21472" fill="none" stroke-width="1.5" stroke-linecap="round"/><path d="M253.26861,117.94825c0.11565,-0.04609 0.82529,-1.16357 1.63018,-1.40238c0.80488,-0.23884 2.1337,-0.18163 2.45535,0.19008c0.70691,0.81695 1.35823,2.21788 1.81819,2.27621c2.52468,0.32023 4.70232,2.98087 4.38211,5.50555c-0.32024,2.52469 -2.96456,4.57373 -5.48923,4.2535c-0.7169,-0.09092 -2.77112,-1.22364 -3.68928,-2.58889c-0.7141,-1.06182 -0.9976,-1.73994 -0.86427,-2.93841c0.13332,-1.19849 0.8736,-2.08913 1.68097,-2.80411c0,0 -2.42185,-2.29318 -1.924,-2.49153z" fill="#100d25" stroke-width="1.25" stroke-linecap="butt"/><path d="M256.00038,123.63933c0.18412,-1.45155 1.56894,-2.4716 3.0931,-2.27829c1.52416,0.1933 2.61048,1.52679 2.42636,2.97835c-0.18412,1.45155 -1.56894,2.4716 -3.0931,2.27828c-1.52417,-0.1933 -2.61048,-1.52679 -2.42637,-2.97834z" fill="#c11515" stroke-width="1" stroke-linecap="butt"/><path d="M268.29008,127.43968c0.71548,-0.25944 3.61937,-0.71052 3.61937,-0.71052c0,0 1.42492,1.75731 -0.30235,2.38368c-0.79084,0.28679 -2.17677,0.30913 -3.42796,0.09823c-1.48143,-0.2497 -2.78098,-0.77044 -2.78098,-0.77044c0,0 1.99804,-0.67681 2.89192,-1.00097z" data-paper-data="{&quot;index&quot;:null}" fill="#c11515" stroke-width="1.25" stroke-linecap="butt"/><path d="M255.24258,123.48067c0.24749,-1.95122 2.02987,-3.33236 3.98107,-3.08486c1.95121,0.24748 3.33236,2.0299 3.08488,3.98108c-0.24749,1.95122 -2.02988,3.33235 -3.98109,3.08485c-1.95121,-0.24748 -3.33235,-2.02988 -3.08487,-3.98108z" fill="url(#color-1)" stroke-width="0" stroke-linecap="butt"/></g><path d="M253.12752,113.68771c0.95729,-1.02676 0.31317,-7.50559 0.31317,-7.50559c0,0 4.95963,5.48308 6.37421,5.22804c2.16367,-0.39011 4.15096,-2.44376 6.93856,-2.01096c2.78761,0.43281 3.66095,2.69299 6.15258,4.04348c1.33515,0.72366 5.95977,-3.55173 5.95977,-3.55173c0,0 -1.78992,6.57874 -1.60706,7.24805c1.04759,3.834 -0.5041,9.31833 -0.5041,9.31833c0,0 -3.33907,-5.85758 -4.84571,-6.90549c-1.50664,-1.04791 -2.45941,-1.54328 -3.94356,-0.93158c-1.48415,0.61168 -2.83328,2.67359 -2.83328,2.67359c0,0 -0.80618,-2.43511 -2.74001,-3.46488c-1.44908,-0.77164 -2.40849,-0.90032 -3.85861,-0.62338c-0.4851,0.09265 -1.6945,-0.63438 -2.68551,-0.27097c-0.99099,0.36341 -1.31546,1.60578 -2.05963,2.01107c-2.60497,1.41875 -4.50235,3.22841 -4.50235,3.22841c0,0 0.62036,-5.03139 3.84155,-8.48638z" fill="#100d25" stroke-width="1.5" stroke-linecap="butt"/><path d="M272.74388,148.57648c-0.69261,-0.02759 -2.62681,-1.31521 -2.62681,-1.31521c0,0 -0.73477,-3.15109 -0.45931,-4.42454c0.25396,-1.17413 2.0528,-2.94244 2.0528,-2.94244c0,0 1.85774,-1.17641 2.81995,-1.07746c0.83991,0.08638 1.93186,0.34933 2.75974,1.65892c0.8279,1.30958 0.87524,2.59837 0.6327,3.70731c-0.32716,1.49585 -1.40803,2.55794 -2.29538,3.31069c-0.88736,0.75275 -2.08855,1.11443 -2.88367,1.08274z" data-paper-data="{&quot;index&quot;:null}" fill="#100d25" stroke-width="1.5" stroke-linecap="butt"/><path d="M244.53225,142.72649c-0.6045,-0.96455 -1.29513,-2.27164 -1.13464,-3.73644c0.11899,-1.08594 0.56941,-2.24439 1.76648,-3.17616c1.19708,-0.93177 2.31516,-0.82757 3.13871,-0.64192c0.94347,0.21267 2.33473,1.86833 2.33473,1.86833c0,0 1.14918,2.17598 1.02051,3.32486c-0.13954,1.24607 -1.8278,3.8837 -1.8278,3.8837c0,0 -2.23914,0.56366 -2.90453,0.37082c-0.76386,-0.22135 -1.78899,-0.92862 -2.39351,-1.89317z" fill="#100d25" stroke-width="1.5" stroke-linecap="butt"/></g><g fill="none" stroke="#000000" stroke-width="1.5" stroke-linecap="round"><path d="M256.81336,131.61056"/><path d="M265.28272,133.01298"/></g><path d="M236.90038,197.43772c1.0432,-1.42152 1.89271,-3.141 1.95442,-4.4396c0.08358,-1.75905 2.21816,-2.54138 2.67468,-3.12956c0.33109,-0.42656 1.24738,-0.51143 1.81197,-0.99404c0.70176,-0.59984 0.72325,-2.0153 0.62523,-2.20106c-0.17917,-0.33968 9.52644,0.82921 13.30576,3.16573c1.57035,0.97083 -0.60818,4.42773 -0.60818,4.42773c0,0 2.18158,-0.48407 1.63349,2.55928c-0.1302,0.72283 -1.24624,5.64157 -1.37767,6.50028c-0.02173,0.14204 0.10018,0.97472 -0.9936,2.48926c-1.09379,1.51454 -2.34255,2.43166 -5.2652,3.19455c-2.92265,0.7629 -5.68642,1.09119 -8.81162,-0.79819c-3.81051,-2.30367 -5.4919,-6.88033 -5.4919,-6.88033c0,0 -0.4908,-2.48588 0.5426,-3.89407z" fill="#100d25" stroke="#000000" stroke-width="1.5" stroke-linecap="butt"/><path d="M240.44793,189.05004c2.66733,-2.88196 3.60483,-3.30463 3.60483,-3.30463l11.69173,1.43696c0,0 3.67981,2.89874 3.37219,6.06062c-0.37298,3.83394 -3.75606,9.91338 -6.50499,11.10174c-4.49384,1.94269 -8.76046,0.30343 -11.89588,-3.63904c-3.13542,-3.94247 -1.39297,-10.44004 -0.26788,-11.65565z" fill="#160f3d" stroke="#000000" stroke-width="1.5" stroke-linecap="butt"/><path d="M241.84574,190.11796c0.33109,-0.42656 -4.06206,5.27085 -3.49746,4.78825c0.70176,-0.59984 3.00535,-7.92087 2.90734,-8.10664c-0.25362,-0.48082 1.62627,-0.40178 -0.19181,-1.42272c-1.98654,-1.11552 -6.24243,-1.37974 -7.33096,-1.51249c-2.85761,-0.34845 -11.01102,1.06905 -10.87561,0.77487c0.06122,-0.13297 0.31751,-0.97505 0.80032,-1.76262c0.89507,-1.46006 9.09704,-4.90171 10.63646,-5.16514c1.35339,-0.23158 5.10522,-0.68939 6.69338,-0.39723c4.58408,0.84334 7.38724,6.92326 7.552,6.97353c0.67086,0.20468 4.01501,-1.72301 7.63363,-2.37608c2.28601,-0.41257 4.58026,0.21746 6.70018,0.52399c2.91172,0.42102 6.00336,5.94466 6.62149,6.62301c0.54616,0.59937 -4.76199,0.47987 -6.40344,1.20096c-3.3225,1.45961 -6.11074,4.25661 -6.11074,4.25661c0,0 -15.5913,-3.81018 -15.1348,-4.39834z" fill="#100d25" stroke="#000000" stroke-width="1.5" stroke-linecap="butt"/><path d="M241.13045,181.04528c0,0 0.12519,-1.45136 0.39646,-3.79527c0.05006,-0.43257 -2.19107,-2.59517 -2.19107,-2.59517c0,0 2.66148,-0.69825 2.71786,-1.14247c0.18842,-1.4846 0.03477,-1.13564 0.27209,-2.71411c0.07628,-0.50738 -2.74264,-2.36544 -2.74264,-2.36544c0,0 3.28839,-0.92909 3.40267,-1.56667c0.0707,-0.39445 0.62051,-2.33021 0.67973,-2.64235c0.13249,-0.69821 -7.58805,-1.92559 -8.11695,-5.66018c-0.52891,-3.73458 -0.08795,-11.91972 4.88768,-17.47509c4.97561,-5.55535 9.34475,3.4952 9.34475,3.4952l20.5071,2.76699c0,0 8.62975,-2.90524 9.72841,1.01234c1.09866,3.9176 0.60723,13.19918 -3.85765,19.76886c-4.46487,6.56969 -10.95687,0.27382 -11.10718,1.066c-0.19348,1.01965 -0.27973,1.46361 -0.51328,2.677c-0.10699,0.55578 1.79611,2.18733 1.79611,2.18733c0,0 -2.53345,1.64702 -2.65368,2.26744c-0.10575,0.54566 -0.26772,1.07413 -0.31126,1.60403c-0.0632,0.76902 1.79141,2.57258 1.79141,2.57258c0,0 -2.50071,1.06844 -2.62382,1.69829c-0.3339,1.70804 -0.54823,2.79851 -0.54823,2.79851z" fill="#100d25" stroke="#000000" stroke-width="1.5" stroke-linecap="butt"/><path d="M258.40514,150.40129c3.69652,0.71412 20.94293,3.82718 20.94293,3.82718c0,0 1.09775,1.86865 1.00984,3.58946c-0.03283,0.6426 -21.87625,-4.67613 -22.04369,-3.96344c-0.05983,0.25465 -0.01264,1.79993 -0.09037,2.11339c-0.15773,0.6361 20.51004,3.28678 21.48978,4.4998c0.21253,0.26314 3.06108,2.51714 3.06108,2.51714c0,0 -3.14343,0.88745 -4.33645,0.81533c-2.30631,-0.13945 -20.94476,-4.70752 -21.19938,-4.1087c-0.24608,0.57872 -0.33492,0.68059 0.54266,1.63343c0.93641,1.0167 17.1927,3.64356 18.63776,4.99833c0.86724,0.81305 2.83549,2.96588 2.83549,2.96588c0,0 -3.8043,-0.42541 -3.86252,-0.21356c-0.16872,0.61398 -18.07251,-5.3531 -18.2511,-4.66363c-0.1102,0.42534 -2.184,1.43244 -0.35083,2.08206c2.48737,0.88139 10.2198,2.94101 10.2198,2.94101l3.8527,3.04648l-4.91287,0.10127c0,0 -9.60874,-3.42675 -9.90019,-2.96627c-0.19267,0.3044 -2.32458,1.72864 -0.42401,2.85313c2.82091,1.66902 9.59274,3.33811 9.59274,3.33811l3.58564,2.35478c0,0 -3.18743,0.59831 -4.38472,0.64177c-2.53646,0.09203 -9,-2.8759 -9.17397,-2.38516c-0.34869,0.98342 -1.79035,1.78797 -1.17478,2.81002c0.75691,1.25675 13.53525,3.56339 13.53525,3.56339l-5.82848,3.13692l-23.53006,-6.68956l-3.50711,-5.19716l14.39266,3.608c0,0 1.38185,-1.40391 1.61779,-2.5564c0.09706,-0.47413 -8.01418,-2.03725 -10.61221,-3.31899c-0.97845,-0.48272 -3.97733,-1.90975 -3.97733,-1.90975l4.34534,-0.79885c0,0 6.39102,2.42767 10.19036,2.2003c2.31668,-0.13864 1.75324,-1.72278 1.81678,-2.33919c0.07194,-0.69776 -11.72604,-2.76504 -11.72604,-2.76504l-3.014,-2.23393l3.4789,-1.23728l12.00475,3.39048c0,0 0.50516,-1.92435 0.64736,-2.5439c0.1333,-0.58076 -19.51362,-4.84136 -19.51362,-4.84136l-2.6993,-2.68724l3.34841,-0.348c0,0 20.1824,5.32534 20.15049,4.91333c-0.0084,-0.10846 0.81568,-1.77723 -0.44262,-2.16218c-3.65066,-1.11682 -19.91019,-4.88696 -19.85403,-5.1431c0.02554,-0.11658 -2.9577,-2.5524 -2.9577,-2.5524c0,0 3.49561,-0.71848 4.38068,-0.79521c2.76152,-0.23939 18.85668,5.69273 18.90604,5.35536c0.01908,-0.13041 1.55693,-1.73075 0.00355,-2.25968c-1.83827,-0.62594 -17.56546,-4.65609 -18.79848,-5.61386c-1.27358,-0.98927 0.68625,-2.98022 0.68625,-2.98022c0,0 16.79158,5.10844 21.29089,5.97763z" data-paper-data="{&quot;index&quot;:null}" fill="#160f3d" stroke="#000000" stroke-width="1.5" stroke-linecap="butt"/><path d="M277.26554,147.04133l0.71221,11.94332l-7.36745,8.16984c0,0 1.16333,-4.31854 -0.99641,-5.32133c-7.69538,-3.57299 -20.36446,-6.46393 -25.85162,-7.49311c-1.2813,-0.24032 -2.98245,4.70898 -2.98245,4.70898l-2.59393,-10.45255c0,0 -7.68666,-6.49734 -6.70651,-7.65997c2.04362,-2.42403 13.57974,-0.5558 13.35597,-0.79548c-0.1131,-0.12115 6.21555,-0.32628 6.21555,-0.32628l2.83965,3.95254c0,0 4.91115,-1.84357 7.4267,-1.29027c1.08805,0.23934 4.91485,3.80982 4.91485,3.80982l5.25183,-2.23061z" fill="#160f3d" stroke="#000000" stroke-width="1.5" stroke-linecap="butt"/><path d="M269.72432,158.17282c0,0 -3.03777,4.58528 -5.31056,5.78595c-2.39015,1.26268 -8.69609,1.61343 -8.69609,1.61343c0,0 -5.39343,-1.86894 -8.00721,-5.222c-2.991,-3.83703 -3.30007,-9.26152 -4.14845,-9.94937c-0.56977,-0.46196 16.87937,-4.10631 16.87937,-4.10631z" fill="#2a2355" stroke="#000000" stroke-width="1.5" stroke-linecap="butt"/><path d="M266.49147,164.78684c0,0 -2.61707,4.07637 -4.56067,5.15336c-2.04392,1.13261 -7.41703,1.48388 -7.41703,1.48388c0,0 -4.58153,-1.61843 -6.78594,-4.56793c-2.52255,-3.37521 -2.75055,-8.1723 -3.46866,-8.77534c-0.48229,-0.40501 14.40305,-3.74251 14.40305,-3.74251z" fill="#2a2355" stroke="#000000" stroke-width="1.5" stroke-linecap="butt"/><path d="M263.42085,171.16097c0,0 -2.26209,3.63188 -3.9296,4.59945c-1.75359,1.01751 -6.34668,1.36336 -6.34668,1.36336c0,0 -3.90418,-1.40608 -5.7688,-4.00779c-2.13375,-2.97724 -2.29792,-7.23011 -2.90763,-7.76033c-0.40949,-0.35611 12.33005,-3.41105 12.33005,-3.41105z" fill="#2a2355" stroke="#000000" stroke-width="1.5" stroke-linecap="butt"/><path d="M260.84908,178.55612c0,0 -2.10659,3.38219 -3.65946,4.28324c-1.63302,0.94756 -5.91037,1.26964 -5.91037,1.26964c0,0 -3.63577,-1.3094 -5.37222,-3.73225c-1.98705,-2.77255 -2.13995,-6.73306 -2.70773,-7.22682c-0.38134,-0.33161 11.48238,-3.17657 11.48238,-3.17657z" fill="#2a2355" stroke="#000000" stroke-width="1.5" stroke-linecap="butt"/><path d="M258.40734,186.47784c0,0 -1.87329,3.00766 -3.25422,3.80894c-1.4522,0.84264 -5.25588,1.12904 -5.25588,1.12904c0,0 -3.23316,-1.16441 -4.77732,-3.31897c-1.76703,-2.46553 -1.90297,-5.98748 -2.4079,-6.42657c-0.33912,-0.2949 10.21089,-2.8248 10.21089,-2.8248z" fill="#2a2355" stroke="#000000" stroke-width="1.5" stroke-linecap="butt"/><path d="M256.07307,191.90516c0,0 -1.61201,2.61745 -2.8065,3.31862c-1.25615,0.73738 -4.55474,1.00247 -4.55474,1.00247c0,0 -2.80998,-0.99603 -4.15903,-2.85845c-1.54372,-2.13121 -1.6771,-5.186 -2.11705,-5.56475c-0.29548,-0.25435 8.84597,-2.49527 8.84597,-2.49527z" fill="#2a2355" stroke="#000000" stroke-width="1.5" stroke-linecap="butt"/><path d="M248.32791,152.92066l11.13941,-2.73483l5.58628,7.06286" fill="none" stroke="#000000" stroke-width="1" stroke-linecap="round"/><path d="M248.14979,161.16011l9.44557,-2.78688l4.76795,5.75319" fill="none" stroke="#000000" stroke-width="1" stroke-linecap="round"/><path d="M249.18729,167.8601l6.56686,-1.75541l3.87656,5.12228" fill="none" stroke="#000000" stroke-width="1" stroke-linecap="round"/><g stroke="#000000" stroke-width="1.5" stroke-linecap="butt"><g><path d="M178.25992,207.72577l3.20553,-4.16851l-3.20477,-2.29618l2.74539,-2.32211l-4.92079,-5.12367c0,0 9.33582,1.13818 12.26673,0.90148c0.6113,-0.04937 2.05766,-6.12908 3.29191,-7.07046c1.7329,-1.32172 3.3279,2.52815 4.06117,3.99955c0.44949,0.90197 -4.17153,7.88853 -4.17153,7.88853l1.5464,4.05456l-4.99635,0.82055l2.44303,4.21774l-5.01575,1.45627c0,0 5.38681,3.68543 4.6093,3.4326c-0.61985,-0.20156 -5.336,1.56224 -5.336,1.56224z" fill="#160f3d"/><path d="M185.36796,203.00069l-1.10843,-7.65569l-5.18767,-1.40228c0,0 2.62038,-1.82827 2.75992,-3.05045c0.13432,-1.17637 -1.95182,-4.32448 -1.95182,-4.32448l5.20909,0.6697l-1.27089,-4.29212c0,0 4.52349,1.52446 5.11495,1.19038c2.93875,-1.66002 8.80205,-0.91733 8.80205,-0.91733l2.01054,2.85158c0,0 -5.62939,1.21473 -8.04248,4.05634c-2.379,2.8014 -6.33524,12.87439 -6.33524,12.87439z" fill="#100d25"/></g><g><path d="M191.98014,215.24923c0,0 7.25105,-3.65519 10.23487,-7.3374c5.84062,-7.20767 5.81977,-15.85272 7.45196,-15.89348c1.39298,-0.0348 4.16114,14.33012 4.16114,14.33012c0,0 -2.85143,-1.92701 -3.13218,-1.64345c-0.50461,0.5096 -0.5971,3.56698 -1.67997,5.72464c-1.20087,2.39273 -3.65447,4.63504 -3.65447,4.63504c0,0 -3.7508,2.55381 -5.67057,2.55517c-2.16354,0.00153 -7.71076,-2.37063 -7.71076,-2.37063z" fill="#160f3d"/><path d="M198.00131,192.63815c-0.02567,-0.3271 7.57105,-5.41217 7.57105,-5.41217l6.91886,4.18473c0,0 2.09982,4.4857 0.40609,7.99717c-1.00916,2.09222 -3.75806,2.08364 -5.01627,3.3907c-1.61795,1.68078 -2.55805,7.90311 -5.45458,9.88045c-3.34963,2.28666 -9.18443,-1.38044 -9.18443,-1.38044l3.98075,-1.39587l2.42132,-1.51264c0,0 -0.12857,-1.51137 -0.67964,-2.13918c-0.50794,-0.57866 -2.50789,-1.49228 -2.50789,-1.49228c0,0 2.17147,-0.3311 3.17061,-0.76182c0.90368,-0.38958 2.56661,-1.71145 2.56661,-1.71145c0,0 -4.01659,-7.40623 -4.19249,-9.6472z" fill="#100d25"/></g><g><path d="M195.57124,187.03367l3.57878,1.1027l-2.51458,7.15012c0,0 -1.22993,0.1719 -1.82267,-0.01074c-0.6001,-0.1849 -1.1377,-1.0771 -1.1377,-1.0771z" fill="#100d25"/><g><g><path d="M190.95056,184.94026l-3.63215,-13.75226l3.63729,-1.31088l3.00053,13.13928z" fill="#160f3d"/><path d="M183.14053,171.60053c0.16459,-1.23131 0.67217,-5.02827 0.92933,-6.95193c0.09256,-0.69241 2.48761,-0.82999 2.48761,-0.82999l12.85761,1.71881l-1.30106,9.73271c0,0 -10.73776,-1.43541 -13.20005,-1.76459c-0.95664,-0.12787 -1.87412,-1.15158 -1.7734,-1.90502z" fill="#160f3d"/><path d="M195.77075,166.93634c0,0 -8.07739,-9.62763 -6.44565,-16.25331c1.63174,-6.6257 19.07808,-15.3461 19.07808,-15.3461l0.49643,4.13333c0,0 -14.30998,6.66038 -15.90232,12.39594c-1.59235,5.73553 5.23886,12.76869 5.23886,12.76869z" fill="#160f3d"/><path d="M186.63486,168.46108c0.17526,-1.31103 1.38012,-2.23175 2.69115,-2.0565c1.31103,0.17526 2.23175,1.38012 2.05649,2.69116c-0.17526,1.31103 -1.38013,2.23176 -2.69116,2.0565c-1.31103,-0.17526 -2.23174,-1.38012 -2.05649,-2.69116z" fill="#2a2355"/></g><path d="M221.98323,168.77868c0,0 -0.69467,-1.92334 -0.60804,-2.32107c0.0866,-0.39773 0.88117,-1.43076 1.22808,-1.8055c0.34692,-0.37474 2.3319,-0.85489 2.3319,-0.85489l5.31088,6.1769z" fill="#2a2355"/><path d="M194.40811,190.7069l0.55534,-4.1542l16.95476,-7.79835c0,0 3.15659,1.57692 3.72328,1.65267c1.26156,0.16866 -2.33173,12.82665 -2.33173,12.82665z" fill="#160f3d"/><path d="M189.71572,186.40509c0.39105,-2.92523 3.07944,-4.97961 6.00465,-4.58856c2.92523,0.39105 4.97961,3.07943 4.58856,6.00467c-0.39105,2.92523 -3.07944,4.97959 -6.00466,4.58855c-2.92523,-0.39105 -4.9796,-3.07943 -4.58855,-6.00465z" fill="#160f3d"/><path d="M195.20125,176.3979c1.73813,-3.2686 11.66043,-23.36076 11.66043,-23.36076c0,0 14.33682,7.51021 15.908,7.5671c0.59962,0.02169 -12.32518,24.84727 -12.32518,24.84727c0,0 -5.60332,0.99011 -8.6118,-0.66971c-4.4544,-2.45752 -6.86998,-7.9353 -6.63145,-8.38389z" fill="#160f3d"/><path d="M203.10037,174.5901l6.1704,-19.52915l10.09605,4.05506l-12.17513,16.89478l-3.37037,1.77058z" fill="#2a2355"/><path d="M196.30601,173.448l-2.71833,-1.84584c0,0 -0.65771,-0.57562 -0.20566,-1.48911c1.67924,-3.39343 5.73583,-11.67527 6.51434,-13.24849c0.25469,-0.51471 1.25745,-0.63233 1.25745,-0.63233l2.86458,1.63048z" fill="#100d25"/><path d="M191.61025,179.53932l3.18954,-5.06371l7.23998,8.13818l10.59946,0.28557l-1.86842,6.2518l-11.26247,-1.14697z" fill="#100d25"/><path d="M202.64543,194.28056c0.18141,-1.3571 1.42864,-2.31018 2.78574,-2.12877c1.3571,0.18141 2.31019,1.42865 2.12877,2.78575c-0.18141,1.3571 -1.42864,2.31019 -2.78573,2.12878c-1.3571,-0.18141 -2.31021,-1.42864 -2.12878,-2.78575z" fill="#2a2355"/><path d="M216.27225,179.49242c0,0 -0.69468,-1.92335 -0.60804,-2.32107c0.0866,-0.39773 0.88116,-1.43075 1.22808,-1.80549c0.34692,-0.37474 2.33192,-0.8549 2.33192,-0.8549l5.3109,6.17692z" fill="#2a2355"/><path d="M219.14268,173.83549c0,0 -0.69466,-1.92333 -0.60804,-2.32104c0.0866,-0.39773 0.88116,-1.43076 1.22808,-1.8055c0.34692,-0.37474 2.33192,-0.8549 2.33192,-0.8549l5.31088,6.17691z" fill="#2a2355"/><path d="M216.02634,182.32742c0,0 -1.75866,-0.29417 -2.68456,-0.32565c-0.83872,-0.0285 -2.6296,-0.08708 -2.6296,-0.08708c0,0 8.59671,-17.29447 9.67656,-19.47662c0.35329,-0.71392 5.31556,0.2497 5.31556,0.2497z" fill="#100d25"/><path d="M192.4767,186.70351c0.18401,-1.3766 1.44913,-2.34334 2.82573,-2.15932c1.3766,0.18401 2.34336,1.44912 2.15934,2.82571c-0.18402,1.37661 -1.44913,2.34333 -2.82573,2.15932c-1.37661,-0.18402 -2.34335,-1.44911 -2.15933,-2.82572z" fill="#2a2355"/></g></g><g><g><g><path d="M215.29721,159.04054l-5.06707,-9.42627l6.03302,-10.45998l5.63648,9.70096l9.51937,1.74363l-6.44701,10.89176z" data-paper-data="{&quot;index&quot;:null}" fill="#160f3d"/><path d="M210.31896,147.81087l5.50881,8.47619l10.78073,2.29756l-2.35378,6.63769c0,0 -11.02481,-2.64999 -12.55641,-3.10754c-0.45973,-0.13735 -5.9741,-9.51957 -5.9741,-9.51957z" fill="#2a2355"/></g><path d="M213.41823,157.56119l9.60061,-11.99963c0,0 1.90863,0.81669 2.21143,1.05894c0.52411,0.41932 -10.49299,13.46447 -10.49299,13.46447z" fill="#100d25"/></g><path d="M210.17119,159.50189c0.50655,-1.55937 2.18134,-2.41284 3.7407,-1.90629c1.55937,0.50655 2.41284,2.18133 1.9063,3.7407c-0.50655,1.55937 -2.18134,2.41285 -3.7407,1.90631c-1.55937,-0.50655 -2.41284,-2.18132 -1.90629,-3.74068z" fill="#160f3d"/></g><g><path d="M207.85837,131.84073c0,0 0.65517,-1.08245 2.76764,-2.1332c5.65606,-2.81334 16.60938,-8.06653 19.31065,-9.36531c1.20319,-0.57851 3.96178,0.37282 3.96178,0.37282l3.7695,9.38525l-25.11157,11.74142z" fill="#2a2355"/><path d="M231.19333,116.32491c0.61789,-0.30259 2.13203,-0.74645 2.13203,-0.74645c0,0 1.249,-0.01514 1.62536,0.70889c1.17879,2.26778 6.29762,14.37662 6.29762,14.37662l-3.34652,1.63878c0,0 -6.00566,-12.26417 -7.05972,-14.41656c-0.30418,-0.62114 -0.05446,-1.36265 0.35119,-1.56126z" fill="#100d25"/><path d="M204.70664,130.41097c0.42654,-0.20889 1.17151,-0.63819 1.45484,-0.77691c0.4687,-0.22952 1.49732,-0.09134 1.77587,0.47749c1.01863,2.08015 7.11554,14.5306 7.11554,14.5306l-3.34653,1.63878c0,0 -5.61175,-11.45969 -6.7962,-13.87844c-0.41924,-0.85612 -0.69446,-1.7511 -0.20351,-1.9915z" fill="#100d25"/><path d="M214.06859,131.15298c3.62643,-1.83904 12.14238,-5.82972 14.13477,-6.8401c0.82586,-0.4188 2.10066,0.07959 2.39816,0.66621c0.424,0.83608 1.5425,3.04169 1.5425,3.04169c0,0 -0.01628,1.27412 -1.67199,2.28426c-3.89606,2.37683 -11.80427,5.9152 -13.54705,6.79903c-0.76232,0.38662 -2.13582,-0.28221 -2.13582,-0.28221c0,0 -1.26579,-2.60154 -1.69076,-3.43958c-0.28115,-0.55443 -0.05832,-1.70765 0.97024,-2.22926z" fill="#0028ff"/><path d="M255.7324,141.95603c0,0 -5.54482,-0.12943 -7.62171,0.79086c-1.05926,0.46939 -1.4773,3.32801 -3.22915,4.68957c-2.22786,1.73152 -4.45868,-0.13554 -7.31765,1.15427c-1.26815,0.57215 -3.38697,4.31657 -4.4427,4.91634c-1.02117,0.58015 -4.98772,3.69697 -4.98772,3.69697l1.34323,-5.551c0,0 -9.18747,-0.44712 -10.22796,-1.33375c-1.16614,-0.9937 -1.16891,-6.31291 -1.16891,-6.31291l-6.66166,-2.65855c0,0 6.14401,-2.58035 6.08405,-2.98117c-0.26754,-1.78862 -2.22167,-5.59727 -2.22167,-5.59727l7.80741,-0.60777l0.52599,-7.04206c0,0 5.46368,4.37451 6.22465,4.28005c1.034,-0.12834 5.13671,-5.24923 5.13671,-5.24923c0,0 1.42924,5.76294 3.10351,6.46951c1.28987,0.54433 5.679,-3.36763 5.679,-3.36763c0,0 0.23265,7.40618 1.1278,8.59086c1.1453,1.5157 8.09279,-1.95669 8.09279,-1.95669l-1.17532,4.64561z" fill="#100d25"/><path d="M231.97268,139.87173l5.93334,-11.25353c0,0 3.46517,-0.20219 2.84031,1.04736c-1.29125,2.58208 -6.00494,11.59077 -6.00494,11.59077z" fill="#100d25"/><path d="M229.89566,139.68508c0.80149,-1.54759 2.70583,-2.15238 4.25339,-1.35088c1.54759,0.80149 2.15239,2.70583 1.35088,4.25339c-0.80149,1.54759 -2.7058,2.15238 -4.25339,1.35088c-1.54759,-0.80149 -2.15239,-2.7058 -1.35089,-4.25339z" fill="#160f3d"/><path d="M221.67568,144.15157c0.75403,-1.45591 2.54554,-2.0249 4.00145,-1.27088c1.45591,0.75403 2.0249,2.54557 1.27087,4.00147c-0.75403,1.45591 -2.54554,2.02487 -4.00145,1.27087c-1.45591,-0.75403 -2.02491,-2.54556 -1.27087,-4.00146z" fill="#160f3d"/></g></g><g stroke="#000000"><g><path d="M231.37405,185.51788c2.89417,0.1213 6.01699,2.09363 7.29129,1.95999c1.71854,-0.18019 2.93716,3.00043 2.75715,6.30221c-0.13529,2.48147 -1.61186,5.07869 -1.20203,6.1065c0.28687,0.71953 -8.62745,18.23531 -8.62745,18.23531c0,0 -1.12716,8.22335 -3.66421,10.5733c-2.26577,2.09867 -9.57929,2.80881 -9.57929,2.80881c0,0 -7.01933,-7.44786 -5.8086,-13.66674c2.00133,-10.27972 9.78872,-29.02501 9.78872,-29.02501c0,0 5.43006,-3.44588 9.04444,-3.29439z" fill="#100d25" stroke-width="1.5" stroke-linecap="butt"/><path d="M219.38386,209.23671c0,0 1.75633,-6.8213 3.10412,-9.88162c0.5277,-1.1982 1.55644,-4.73006 4.7362,-6.11475c3.95453,-1.72207 10.31381,-1.05466 12.38863,0.65901c2.30771,1.90603 0.75693,6.88282 0.72978,7.08509c-0.28006,2.08719 -7.60085,17.10946 -9.5017,22.78784c-2.89837,8.65823 -9.46461,1.53516 -9.46461,1.53516c0,0 -1.12354,-0.7494 -1.79895,-1.02244c-0.90089,-0.36419 -3.12754,-0.96903 -3.12754,-0.96903z" fill="#160f3d" stroke-width="1.5" stroke-linecap="butt"/><path d="M230.59894,225.83077c0,0 -1.3111,5.92788 -1.93168,5.83727c-6.65045,-0.97104 -13.626,0.39676 -14.50529,0.37275c-0.59077,-0.01613 -3.22514,7.54817 -4.78549,7.55989c-1.07467,0.00809 -2.17104,-2.09492 -2.54577,-4.08992c-0.44942,-2.39259 0.02024,-4.84598 1.21346,-6.21945c7.46327,-8.59052 10.5087,-5.63019 13.04952,-5.13161c4.68537,0.91936 9.50523,1.67106 9.50523,1.67106z" data-paper-data="{&quot;index&quot;:null}" fill="#160f3d" stroke-width="1.5" stroke-linecap="butt"/><path d="M204.38643,247.72609c0,0 0.26403,-3.97778 3.36424,-9.49141c1.3152,-2.33908 2.50139,-5.41307 4.42406,-7.32001c2.37163,-2.35222 5.16407,-3.79902 5.91566,-3.95019c3.84341,-0.77306 5.57278,2.42513 6.05328,2.79907c1.35802,1.0569 0.34698,4.3217 0.34698,4.3217c0,0 -1.9848,2.4313 -4.00772,3.10554c-1.46144,0.48709 -2.4985,1.78873 -2.73001,2.26395c-0.6339,1.30127 2.29395,5.80195 3.97566,9.20705c1.5025,3.04224 1.74896,5.09185 1.74896,5.09185c0,0 -8.45296,-1.28973 -11.81407,-1.43106c-2.44464,-0.10279 -7.27703,-4.59652 -7.27703,-4.59652z" fill="#100d25" stroke-width="1.5" stroke-linecap="butt"/><path d="M202.94484,247.95536c-0.36684,-1.72338 0.8026,-7.14702 2.19892,-8.38673c0.24487,-0.21741 2.70244,-1.86423 5.00017,-2.15426c1.22932,-0.15517 2.21599,-0.53411 3.33503,-0.61156c1.9724,-0.13652 3.79819,0.39258 4.01714,0.64471c0.19544,0.22504 2.3843,1.77352 2.09478,2.45487c-0.28953,0.68136 -2.10331,1.02871 -2.94571,1.03658c-0.24024,0.00226 -2.31649,-0.04293 -4.31837,0.26744c-1.61243,0.24999 -3.17299,0.82344 -3.71496,1.12641c-0.94551,0.52854 -1.89129,2.07036 -1.73477,2.69871c0.35763,1.43572 2.88465,3.13257 3.73849,6.32263c0.88846,3.31943 5.06601,5.13015 5.34105,5.11937c1.47764,-0.05788 3.05883,2.2617 6.72277,2.11819c1.41432,-0.0554 1.50767,0.91989 1.52265,1.30233c0.01341,0.34231 0.12971,3.3117 0.12971,3.3117c0,0 -2.1806,1.94323 -5.09124,2.05724c-1.20982,0.04739 -5.21006,0.00749 -8.35201,-1.66674c-1.19073,-0.63449 -4.10641,-1.81279 -5.16309,-3.89336c-1.05668,-2.08057 -2.27375,-9.36651 -2.78057,-11.74754z" fill="#160f3d" stroke-width="1.5" stroke-linecap="butt"/><path d="M209.94031,247.8355c1.71114,-1.70675 3.45845,-3.27866 6.1148,-3.65424c2.55972,-0.3619 3.67244,0.58113 5.70462,1.87478c2.03217,1.29366 2.81017,4.49526 2.81017,4.49526c0,0 -6.98348,2.03569 -8.13131,2.19797c-3.10951,0.43963 -7.44801,0.0047 -7.44801,0.0047c0,0 -0.76142,-3.21175 0.94971,-4.91849z" fill="#2a2355" stroke-width="1.5" stroke-linecap="butt"/><path d="M217.43084,229.65816c-0.13105,-3.34602 2.4752,-6.16473 5.82122,-6.29579c3.34602,-0.13105 6.16476,2.47516 6.29582,5.82123c0.13105,3.34602 -2.47516,6.16475 -5.82122,6.29581c-3.34602,0.13105 -6.16475,-2.4752 -6.29581,-5.82122z" fill="#160f3d" stroke-width="1.5" stroke-linecap="butt"/><path d="M212.41347,254.01384c1.47569,-1.85378 2.94604,-3.20704 5.39422,-3.67215c2.35912,-0.44817 4.20456,0.15037 6.1869,1.47197c1.98235,1.3216 1.87182,5.39709 1.87182,5.39709c0,0 -4.49571,1.36644 -7.06024,1.85367c-2.86585,0.54445 -6.9369,0.1918 -6.9369,0.1918c0,0 -0.93148,-3.38858 0.54419,-5.24237z" fill="#2a2355" stroke-width="1.5" stroke-linecap="butt"/><g><path d="M226.6891,221.92017c0,0 -3.49685,-3.93352 -3.34731,-5.66581c0.34565,-4.00412 5.3855,-17.94603 5.3855,-17.94603l7.60146,-3.3104c0,0 4.19517,4.40679 3.91684,6.08027c-0.70131,4.2167 -6.14605,18.24884 -6.14605,18.24884z" fill="#2a2355" stroke-width="1.5" stroke-linecap="butt"/><path d="M236.7554,202.80515l-5.45148,-2.15839" fill="none" stroke-width="1.25" stroke-linecap="round"/><path d="M229.68208,205.33968l5.72132,1.79335" fill="none" stroke-width="1.25" stroke-linecap="round"/><path d="M231.45306,216.93012l-5.0306,-1.49618" fill="none" stroke-width="1.25" stroke-linecap="round"/><path d="M232.77444,212.24896l-4.71333,-1.85086" fill="none" stroke-width="1.25" stroke-linecap="round"/></g><path d="M225.11554,234.76074c0,0 -0.31173,-2.33639 -0.1168,-2.76317c0.19489,-0.42678 1.34266,-1.3959 1.82515,-1.73308c0.48248,-0.33718 2.8358,-0.3922 2.8358,-0.3922l4.47019,8.25722z" fill="#2a2355" stroke-width="1.5" stroke-linecap="butt"/></g><path d="M217.15076,265.32345c0,0 -0.51876,-3.88823 -0.1944,-4.59847c0.32435,-0.71025 2.53918,-2.99729 3.34214,-3.55841c0.80295,-0.56113 5.39358,-0.34799 5.39358,-0.34799l4.80044,9.14926c0,0 -6.54864,0.17617 -9.0062,0.11832c-1.6988,-0.03999 -4.33557,-0.76271 -4.33557,-0.76271z" fill="#100d25" stroke-width="1.5" stroke-linecap="butt"/></g><g stroke="#000000"><path d="M282.515,235.8718c0,0 -0.94953,-1.92148 -0.90606,-2.34588c0.04346,-0.4244 0.74953,-1.59368 1.06682,-2.02474c0.31728,-0.43106 2.32816,-1.16443 2.32816,-1.16443l6.25713,5.80895z" fill="#2a2355" stroke-width="1.5" stroke-linecap="butt"/><path d="M265.66952,188.96838c0.98709,-1.24529 4.14257,1.50312 4.68792,4.99281c0.39441,2.52383 -1.31185,4.29669 -1.16892,4.19755c3.59377,-2.49218 4.50389,2.09127 6.51877,2.97585c0.60522,0.26572 5.36927,17.02201 5.36927,17.02201l1.26283,15.72933c0,0 -2.18799,2.61626 -5.05325,1.42533c-0.92572,-0.38477 -3.92608,-1.69251 -6.84297,-6.3771c-4.82161,-7.74357 -12.2447,-25.62829 -12.2447,-25.62829c0,0 -1.45454,-5.8452 0.0981,-8.90407c1.55544,-3.06441 6.56253,-4.41101 7.37296,-5.43342z" fill="#100d25" stroke-width="1.5" stroke-linecap="butt"/><path d="M270.39085,219.67925c0,0 -3.42423,-5.556 -4.61541,-8.38425c-1.04641,-2.48446 -3.54788,-9.58906 -3.54788,-9.58906c0,0 2.21819,-5.2195 5.02425,-6.75466c2.80606,-1.53515 5.8143,0.05768 6.39746,0.80491c1.20637,1.54577 6.08703,21.68546 8.66706,26.57356c3.93395,7.45327 -0.07952,6.76444 -0.07952,6.76444l-4.08701,2.21146z" fill="#160f3d" stroke-width="1.5" stroke-linecap="butt"/><path d="M267.42589,243.01638c0,0 -5.02125,-0.88202 -5.61724,-3.71564c-0.49629,-2.35968 6.19567,-9.38975 8.52768,-11.40609c2.81584,-2.43474 12.60362,-1.42825 12.28004,-0.21493c-0.32358,1.21331 -1.93636,5.71617 -3.89748,7.76364c-2.06325,2.15411 -11.29298,7.57301 -11.29298,7.57301z" fill="#160f3d" stroke-width="1.5" stroke-linecap="butt"/><path d="M261.46216,247.50866c0,0 0.24855,-2.97652 1.90971,-5.81145c0.47664,-0.81345 1.89154,-3.46704 4.40726,-5.83376c3.1323,-2.94679 7.42896,-5.61079 7.42896,-5.61079l5.13851,3.78347c0,0 -3.42625,4.73718 -4.6275,6.93895c-1.18567,2.17323 1.82392,8.19896 1.82392,8.19896c0,0 -6.47645,1.83338 -9.42877,1.52762c-2.14731,-0.22238 -6.6521,-3.193 -6.6521,-3.193z" fill="#100d25" stroke-width="1.5" stroke-linecap="butt"/><path d="M263.4045,260.87404c-1.83027,-2.4089 -3.09876,-8.97237 -3.66006,-10.90992c-0.40626,-1.40239 0.873,-5.88048 2.40806,-6.93546c0.2692,-0.18501 2.98352,-1.38692 5.51209,-1.68856c3.73735,-0.44582 8.37901,1.20747 8.75732,1.52182c0.21544,0.17903 0.31964,1.07914 0.00197,1.64568c-0.31769,0.56654 -0.589,1.02473 -1.51616,1.0546c-0.47739,0.01539 -2.67356,-0.5433 -4.88253,-0.61375c-1.17036,-0.03733 -2.71536,-0.34097 -4.05152,0.24944c-1.03992,0.45952 -2.07863,1.74961 -1.90546,2.26029c0.39572,1.16685 3.17953,2.48742 4.12394,5.07846c0.98271,2.69611 -0.09827,6.32566 0.20444,6.30918c1.62628,-0.08853 9.05159,-0.49275 13.08411,-0.71227c1.55659,-0.08474 1.66074,0.71208 1.67778,1.02512c0.00767,0.14088 -0.5408,1.61468 -1.49525,3.06767c-0.94396,1.43702 -2.28499,2.85368 -3.87786,2.94039c-2.4357,0.1326 -4.53773,-0.02787 -7.50048,-0.79149c-2.96274,-0.76361 -5.05009,-1.09233 -6.88038,-3.50123z" fill="#160f3d" stroke-width="1.5" stroke-linecap="butt"/><path d="M267.18228,251.11583c1.77992,-1.70915 3.58456,-3.26566 6.17603,-3.40674c2.49718,-0.13594 3.49969,1.02061 5.36288,2.6593c1.86319,1.63871 2.37221,5.25594 2.37221,5.25594c0,0 -6.89203,1.52905 -8.01185,1.59001c-3.03356,0.16514 -7.18695,-0.76263 -7.18695,-0.76263c0,0 -0.49226,-3.62674 1.28767,-5.3359z" fill="#2a2355" stroke-width="1.5" stroke-linecap="butt"/><path d="M273.32256,231.25091c0.11525,-3.11947 2.73752,-5.55484 5.85697,-5.43958c3.11947,0.11525 5.55486,2.73749 5.4396,5.85697c-0.11525,3.11947 -2.73749,5.55486 -5.85696,5.4396c-3.11947,-0.11525 -5.55486,-2.73751 -5.4396,-5.85697z" fill="#160f3d" stroke-width="1.5" stroke-linecap="butt"/><path d="M269.5322,254.89052c1.68802,-1.6209 3.30512,-2.75256 5.76279,-2.88635c2.36826,-0.12892 4.09619,0.69938 5.86317,2.25346c1.76698,1.55408 1.12356,5.52915 1.12356,5.52915c0,0 -4.5804,0.74724 -7.15486,0.88739c-2.87693,0.15661 -6.81586,-0.72325 -6.81586,-0.72325c0,0 -0.46684,-3.43948 1.2212,-5.0604z" fill="#2a2355" stroke-width="1.5" stroke-linecap="butt"/><path d="M275.08734,265.29842c0,0 -0.50727,-3.40549 -0.2321,-4.03314c0.27516,-0.62767 1.92995,-2.06867 2.62714,-2.57187c0.69719,-0.50321 4.13311,-0.63596 4.13311,-0.63596l4.89958,7.64387c0,0 -5.80993,0.08461 -7.91979,0.01022c-1.39962,-0.04935 -3.50793,-0.41313 -3.50793,-0.41313z" fill="#100d25" stroke-width="1.5" stroke-linecap="butt"/><g data-paper-data="{&quot;index&quot;:null}"><path d="M275.762,222.53958c0,0 -6.87171,-13.88496 -8.0453,-18.07321c-0.46575,-1.66221 3.24166,-6.11567 3.24166,-6.11567l6.70222,2.25853c0,0 6.45049,13.50724 7.26237,17.52442c0.35125,1.73794 -2.47484,6.16447 -2.47484,6.16447z" fill="#2a2355" stroke-width="1.5" stroke-linecap="butt"/><path d="M276.12768,202.82368l-5.26239,3.1046" fill="none" stroke-width="1.25" stroke-linecap="round"/><path d="M277.69077,207.30036l-4.66384,2.73067" fill="none" stroke-width="1.25" stroke-linecap="round"/><path d="M282.2711,217.53976l-4.67521,2.39936" fill="none" stroke-width="1.25" stroke-linecap="round"/><path d="M275.4229,215.50503l4.68995,-2.86686" fill="none" stroke-width="1.25" stroke-linecap="round"/></g></g><path d="M222.34793,188.90724c0,0 0.01078,-3.43779 3.16361,-4.38265c0.76073,-0.22799 6.66227,-1.20475 12.3634,-0.10043c0.3332,0.06456 4.57927,0.66287 5.36707,2.0519c0.59983,1.05761 -0.40112,3.24927 -1.09362,3.60129c-0.98293,0.49965 -4.21874,-1.46212 -7.33484,-2.44742c-0.9564,-0.30241 -2.4075,-0.01198 -3.27276,-0.03101c-3.68439,-0.08107 -9.19283,1.30831 -9.19283,1.30831z" fill="#160f3d" stroke="#000000" stroke-width="1.5" stroke-linecap="butt"/><path d="M254.84732,198.15854c0,0 -1.57254,2.3553 -2.69594,2.96048c-1.1814,0.63641 -4.22719,0.76902 -4.22719,0.76902c0,0 -2.55337,-1.01194 -3.73245,-2.77216c-1.34923,-2.01427 -1.36878,-4.8312 -1.76103,-5.19474c-0.26344,-0.24416 8.22839,-1.99838 8.22839,-1.99838z" fill="#2a2355" stroke="#000000" stroke-width="1.5" stroke-linecap="butt"/><path d="M257.33905,198.11519c0,0 -2.11939,-3.06134 -0.32906,-5.26821c0.43199,-0.53248 4.2732,-3.95928 9.25132,-5.44885c0.92341,-0.2763 5.13338,4.11656 3.77001,4.21009c-3.62566,0.24872 -4.41517,-0.03122 -6.60505,1.30025c-2.54186,1.54547 -6.08721,5.20671 -6.08721,5.20671z" fill="#160f3d" stroke="#000000" stroke-width="1.5" stroke-linecap="butt"/><g stroke-linecap="butt"><g><path d="M348.34801,325.68243c-2.53449,1.27646 -5.62387,0.25663 -6.90035,-2.27785c-1.27646,-2.53449 -0.25663,-5.62387 2.27785,-6.90035c2.53449,-1.27646 5.62387,-0.25663 6.90035,2.27785c1.27646,2.53449 0.25663,5.62387 -2.27785,6.90035z" fill="url(#color-2)" stroke="#000000" stroke-width="0"/><path d="M327.73598,245.91162c-2.53449,1.27646 -5.62387,0.25665 -6.90035,-2.27785c-1.27646,-2.53449 -0.25663,-5.62387 2.27785,-6.90035c2.53449,-1.27646 5.62386,-0.25665 6.90034,2.27783c1.27646,2.53449 0.25665,5.62387 -2.27785,6.90035z" fill="url(#color-3)" stroke="#000000" stroke-width="0"/><path d="M328.20363,249.16195c-2.53449,1.27646 -5.62387,0.25663 -6.90035,-2.27785c-1.27646,-2.53449 -0.25663,-5.62387 2.27785,-6.90035c2.53449,-1.27646 5.62385,-0.25662 6.90033,2.27785c1.27646,2.53449 0.25665,5.62387 -2.27785,6.90035z" fill="url(#color-4)" stroke="#000000" stroke-width="0"/><path d="M329.49003,252.54958c-2.53449,1.27646 -5.62388,0.25662 -6.90036,-2.27784c-1.27646,-2.53449 -0.25662,-5.62385 2.27785,-6.90033c2.53449,-1.27646 5.62386,-0.25665 6.90033,2.27785c1.27646,2.53449 0.25665,5.62387 -2.27783,6.90036z" fill="url(#color-5)" stroke="#000000" stroke-width="0"/><path d="M330.77431,255.73496c-2.53449,1.27646 -5.62387,0.25663 -6.90035,-2.27785c-1.27646,-2.53449 -0.25662,-5.62385 2.27785,-6.90033c2.53449,-1.27646 5.62386,-0.25665 6.90033,2.27785c1.27646,2.53449 0.25665,5.62387 -2.27783,6.90036z" fill="url(#color-6)" stroke="#000000" stroke-width="0"/><path d="M331.04315,258.52649c-2.53449,1.27646 -5.62387,0.25665 -6.90035,-2.27785c-1.27646,-2.53449 -0.25665,-5.62386 2.27783,-6.90034c2.53449,-1.27646 5.62387,-0.25665 6.90036,2.27783c1.27646,2.53449 0.25665,5.62387 -2.27785,6.90035z" fill="url(#color-7)" stroke="#000000" stroke-width="0"/><path d="M332.12306,261.51177c-2.53449,1.27646 -5.62387,0.25663 -6.90035,-2.27785c-1.27646,-2.53449 -0.25662,-5.62385 2.27785,-6.90033c2.53449,-1.27646 5.62387,-0.25665 6.90036,2.27783c1.27646,2.53449 0.25665,5.62387 -2.27785,6.90035z" fill="url(#color-8)" stroke="#000000" stroke-width="0"/><path d="M332.57612,264.68801c-2.62977,1.06649 -5.62614,-0.20078 -6.69265,-2.83054c-1.06649,-2.62977 0.20078,-5.62613 2.83054,-6.69263c2.62977,-1.06649 5.62613,0.20078 6.69265,2.83053c1.06649,2.62977 -0.20078,5.62614 -2.83053,6.69265z" fill="url(#color-9)" stroke="#000000" stroke-width="0"/><path d="M333.58325,268.16889c-2.62977,1.06649 -5.62614,-0.20078 -6.69265,-2.83054c-1.06649,-2.62977 0.20078,-5.62614 2.83054,-6.69265c2.62977,-1.06649 5.62613,0.20078 6.69265,2.83054c1.06649,2.62977 -0.20078,5.62613 -2.83053,6.69265z" fill="url(#color-10)" stroke="#000000" stroke-width="0"/><path d="M334.60467,271.44805c-2.62977,1.06649 -5.62614,-0.20078 -6.69265,-2.83054c-1.06649,-2.62977 0.20078,-5.62613 2.83054,-6.69265c2.62977,-1.06649 5.62613,0.20078 6.69265,2.83054c1.06649,2.62977 -0.20078,5.62613 -2.83054,6.69265z" fill="url(#color-11)" stroke="#000000" stroke-width="0"/><path d="M334.64599,274.25217c-2.62977,1.06649 -5.62614,-0.20078 -6.69265,-2.83054c-1.06649,-2.62977 0.20078,-5.62614 2.83054,-6.69265c2.62977,-1.06649 5.62613,0.20078 6.69265,2.83054c1.06649,2.62977 -0.20078,5.62614 -2.83053,6.69265z" fill="url(#color-12)" stroke="#000000" stroke-width="0"/><path d="M335.88235,277.10879c-2.62977,1.06649 -5.62614,-0.20078 -6.69265,-2.83053c-1.06649,-2.62977 0.20078,-5.62614 2.83054,-6.69265c2.62977,-1.06649 5.62614,0.20078 6.69265,2.83054c1.06649,2.62977 -0.20078,5.62613 -2.83054,6.69265z" fill="url(#color-13)" stroke="#000000" stroke-width="0"/><path d="M336.81679,279.77583c-2.62977,1.06649 -5.62613,-0.20078 -6.69265,-2.83053c-1.06649,-2.62977 0.20078,-5.62614 2.83054,-6.69263c2.62977,-1.06649 5.62614,0.20078 6.69265,2.83054c1.06649,2.62977 -0.20078,5.62613 -2.83054,6.69265z" fill="url(#color-14)" stroke="#000000" stroke-width="0"/><path d="M337.82391,283.25672c-2.62977,1.06649 -5.62614,-0.20078 -6.69265,-2.83054c-1.06649,-2.62977 0.20078,-5.62613 2.83054,-6.69263c2.62977,-1.06649 5.62613,0.20078 6.69265,2.83054c1.06649,2.62977 -0.20078,5.62614 -2.83054,6.69265z" fill="url(#color-15)" stroke="#000000" stroke-width="0"/><path d="M338.84535,286.53585c-2.62977,1.06649 -5.62614,-0.20078 -6.69265,-2.83054c-1.06649,-2.62977 0.20078,-5.62613 2.83054,-6.69265c2.62977,-1.06649 5.62613,0.20078 6.69265,2.83054c1.06649,2.62977 -0.20078,5.62613 -2.83053,6.69265z" fill="url(#color-16)" stroke="#000000" stroke-width="0"/><path d="M338.88666,289.33997c-2.62977,1.06649 -5.62614,-0.20078 -6.69265,-2.83054c-1.06649,-2.62977 0.20078,-5.62613 2.83055,-6.69263c2.62977,-1.06649 5.62613,0.20078 6.69265,2.83053c1.06649,2.62977 -0.20078,5.62614 -2.83054,6.69265z" fill="url(#color-17)" stroke="#000000" stroke-width="0"/><path d="M339.72067,292.40307c-2.62977,1.06649 -5.62613,-0.20078 -6.69265,-2.83054c-1.06649,-2.62977 0.20078,-5.62614 2.83054,-6.69265c2.62977,-1.06649 5.62613,0.20078 6.69265,2.83053c1.06649,2.62977 -0.20078,5.62614 -2.83053,6.69265z" fill="url(#color-18)" stroke="#000000" stroke-width="0"/><path d="M340.25063,295.07436c-2.62977,1.06649 -5.62614,-0.20078 -6.69263,-2.83054c-1.06649,-2.62977 0.20078,-5.62613 2.83055,-6.69263c2.62977,-1.06649 5.62613,0.20078 6.69265,2.83054c1.06649,2.62977 -0.20078,5.62614 -2.83054,6.69265z" fill="url(#color-19)" stroke="#000000" stroke-width="0"/><path d="M341.25775,298.55524c-2.62977,1.06649 -5.62614,-0.20078 -6.69263,-2.83054c-1.06649,-2.62977 0.20078,-5.62613 2.83053,-6.69262c2.62977,-1.06649 5.62613,0.20078 6.69265,2.83054c1.06649,2.62977 -0.20078,5.62614 -2.83054,6.69265z" fill="url(#color-20)" stroke="#000000" stroke-width="0"/><path d="M342.27917,301.83439c-2.62977,1.06649 -5.62614,-0.20078 -6.69265,-2.83054c-1.06649,-2.62977 0.20078,-5.62613 2.83054,-6.69265c2.62977,-1.06649 5.62613,0.20078 6.69265,2.83054c1.06649,2.62977 -0.20078,5.62613 -2.83054,6.69265z" fill="url(#color-21)" stroke="#000000" stroke-width="0"/><path d="M342.3205,304.6385c-2.62977,1.06649 -5.62613,-0.20078 -6.69265,-2.83054c-1.06649,-2.62977 0.20078,-5.62613 2.83054,-6.69263c2.62977,-1.06649 5.62613,0.20078 6.69265,2.83054c1.06649,2.62977 -0.20078,5.62613 -2.83054,6.69263z" fill="url(#color-22)" stroke="#000000" stroke-width="0"/><path d="M343.1545,307.70159c-2.62977,1.06649 -5.62614,-0.20078 -6.69265,-2.83053c-1.06649,-2.62977 0.20078,-5.62614 2.83054,-6.69265c2.62977,-1.06649 5.62613,0.20078 6.69265,2.83054c1.06649,2.62977 -0.20078,5.62613 -2.83053,6.69265z" fill="url(#color-23)" stroke="#000000" stroke-width="0"/><path d="M344.08259,309.76193c-2.62977,1.06649 -5.62614,-0.20078 -6.69265,-2.83053c-1.06649,-2.62977 0.20078,-5.62613 2.83054,-6.69265c2.62977,-1.06649 5.62613,0.20078 6.69265,2.83053c1.06649,2.62977 -0.20078,5.62614 -2.83054,6.69265z" fill="url(#color-24)" stroke="#000000" stroke-width="0"/><path d="M345.0897,313.2428c-2.62977,1.06649 -5.62614,-0.20078 -6.69265,-2.83054c-1.06649,-2.62977 0.20078,-5.62613 2.83054,-6.69265c2.62977,-1.06649 5.62613,0.20078 6.69265,2.83054c1.06649,2.62977 -0.20078,5.62613 -2.83054,6.69265z" fill="url(#color-25)" stroke="#000000" stroke-width="0"/><path d="M346.11113,316.52194c-2.62977,1.06649 -5.62613,-0.20078 -6.69265,-2.83054c-1.06649,-2.62977 0.20078,-5.62614 2.83054,-6.69263c2.62977,-1.06649 5.62613,0.20078 6.69262,2.83053c1.06649,2.62977 -0.20078,5.62613 -2.83054,6.69265z" fill="url(#color-26)" stroke="#000000" stroke-width="0"/><path d="M346.15246,319.32607c-2.62977,1.06649 -5.62614,-0.20078 -6.69265,-2.83054c-1.06649,-2.62977 0.20078,-5.62614 2.83054,-6.69265c2.62977,-1.06649 5.62613,0.20078 6.69265,2.83054c1.06649,2.62977 -0.20078,5.62613 -2.83054,6.69265z" fill="url(#color-27)" stroke="#000000" stroke-width="0"/><path d="M346.98646,322.38918c-2.62977,1.06649 -5.62614,-0.20078 -6.69263,-2.83054c-1.06649,-2.62977 0.20078,-5.62614 2.83054,-6.69265c2.62977,-1.06649 5.62614,0.20078 6.69265,2.83054c1.06649,2.62977 -0.20078,5.62614 -2.83053,6.69265z" fill="url(#color-28)" stroke="#000000" stroke-width="0"/><path d="M337.59057,303.27164c-2.48104,1.37746 -5.60898,0.48287 -6.98647,-1.99816c-1.37746,-2.48104 -0.48285,-5.60897 1.99817,-6.98646c2.48104,-1.37746 5.60897,-0.48285 6.98646,1.99817c1.37746,2.48104 0.48286,5.60897 -1.99817,6.98646z" fill="url(#color-29)" stroke="#000000" stroke-width="0"/><path d="M338.72222,306.90095c-2.48104,1.37746 -5.60897,0.48285 -6.98646,-1.99817c-1.37746,-2.48104 -0.48285,-5.60896 1.99817,-6.98646c2.48104,-1.37746 5.60897,-0.48286 6.98646,1.99817c1.37746,2.48104 0.48286,5.60897 -1.99816,6.98646z" fill="url(#color-30)" stroke="#000000" stroke-width="0"/><path d="M340.62391,309.53148c-2.48104,1.37746 -5.60896,0.48285 -6.98646,-1.99817c-1.37746,-2.48104 -0.48286,-5.60897 1.99817,-6.98646c2.48104,-1.37746 5.60897,-0.48286 6.98646,1.99816c1.37746,2.48104 0.48285,5.60897 -1.99817,6.98646z" fill="url(#color-31)" stroke="#000000" stroke-width="0"/><path d="M341.62476,312.30341c-2.48104,1.37746 -5.60897,0.48285 -6.98646,-1.99817c-1.37746,-2.48104 -0.48286,-5.60897 1.99817,-6.98646c2.48104,-1.37746 5.60897,-0.48286 6.98646,1.99817c1.37746,2.48104 0.48285,5.60897 -1.99817,6.98646z" fill="url(#color-32)" stroke="#000000" stroke-width="0"/><path d="M342.40642,315.24716c-2.48104,1.37746 -5.60897,0.48285 -6.98646,-1.99817c-1.37746,-2.48104 -0.48286,-5.60897 1.99817,-6.98646c2.48104,-1.37746 5.60898,-0.48287 6.98647,1.99816c1.37746,2.48104 0.48285,5.60897 -1.99817,6.98646z" fill="url(#color-33)" stroke="#000000" stroke-width="0"/><path d="M348.42098,329.08276c-2.53449,1.27646 -5.62387,0.25665 -6.90035,-2.27785c-1.27646,-2.53449 -0.25665,-5.62387 2.27785,-6.90035c2.53449,-1.27646 5.62387,-0.25665 6.90035,2.27785c1.27646,2.53449 0.25665,5.62387 -2.27785,6.90035z" fill="url(#color-34)" stroke="#000000" stroke-width="0"/><path d="M332.03335,289.53234c-2.44931,1.43314 -5.59665,0.60939 -7.02981,-1.83991c-1.43314,-2.44931 -0.60939,-5.59665 1.83989,-7.02979c2.44931,-1.43314 5.59665,-0.60939 7.02981,1.83991c1.43314,2.44931 0.60939,5.59665 -1.83989,7.02979z" fill="url(#color-35)" stroke="#000000" stroke-width="0"/><path d="M333.28116,292.8351c-2.44931,1.43314 -5.59665,0.60939 -7.02979,-1.83989c-1.43314,-2.44931 -0.60939,-5.59665 1.83989,-7.02979c2.44931,-1.43314 5.59665,-0.60939 7.02979,1.83989c1.43314,2.44931 0.60939,5.59665 -1.83991,7.02981z" fill="url(#color-36)" stroke="#000000" stroke-width="0"/><path d="M334.76297,295.93353c-2.44931,1.43314 -5.59665,0.60939 -7.0298,-1.83991c-1.43314,-2.44931 -0.60938,-5.59664 1.83992,-7.02979c2.44931,-1.43314 5.59664,-0.60938 7.02978,1.8399c1.43314,2.44931 0.60939,5.59665 -1.83989,7.02979z" fill="url(#color-37)" stroke="#000000" stroke-width="0"/><path d="M335.20666,298.70262c-2.44931,1.43314 -5.59665,0.60939 -7.02979,-1.83989c-1.43314,-2.44931 -0.60939,-5.59665 1.83989,-7.02979c2.44931,-1.43314 5.59665,-0.60939 7.02979,1.83989c1.43314,2.44931 0.60939,5.59665 -1.83989,7.02979z" fill="url(#color-38)" stroke="#000000" stroke-width="0"/><path d="M336.59636,301.61286c-2.44931,1.43314 -5.59665,0.60939 -7.02979,-1.83989c-1.43314,-2.44931 -0.60939,-5.59665 1.83992,-7.02979c2.44931,-1.43314 5.59665,-0.60939 7.02979,1.83989c1.43314,2.44931 0.60939,5.59665 -1.83991,7.0298z" fill="url(#color-39)" stroke="#000000" stroke-width="0"/><path d="M327.09947,276.21065c-2.50919,1.32549 -5.61783,0.36592 -6.94332,-2.14325c-1.32549,-2.50919 -0.36593,-5.61781 2.14325,-6.94332c2.50919,-1.32549 5.61783,-0.36592 6.94332,2.14325c1.32549,2.50919 0.36592,5.61783 -2.14325,6.94332z" fill="url(#color-40)" stroke="#000000" stroke-width="0"/><path d="M328.45148,279.57262c-2.50919,1.32549 -5.61781,0.36593 -6.94333,-2.14326c-1.32549,-2.50919 -0.36592,-5.61783 2.14326,-6.94333c2.50919,-1.32549 5.61781,-0.36593 6.94332,2.14325c1.32549,2.50919 0.36593,5.61781 -2.14325,6.94332z" fill="url(#color-41)" stroke="#000000" stroke-width="0"/><path d="M329.79743,282.73245c-2.50919,1.32549 -5.61783,0.36592 -6.94332,-2.14325c-1.32549,-2.50919 -0.36592,-5.6178 2.14326,-6.94332c2.50919,-1.32549 5.61781,-0.36593 6.9433,2.14326c1.32549,2.50919 0.36592,5.61783 -2.14325,6.94332z" fill="url(#color-42)" stroke="#000000" stroke-width="0"/><path d="M330.32273,285.51607c-2.50919,1.32549 -5.6178,0.36592 -6.94332,-2.14326c-1.32549,-2.50919 -0.36592,-5.6178 2.14326,-6.94332c2.50919,-1.32549 5.61779,-0.36593 6.9433,2.14326c1.32549,2.50919 0.36593,5.61781 -2.14325,6.94332z" fill="url(#color-43)" stroke="#000000" stroke-width="0"/><path d="M330.31353,286.66677c-2.50919,1.32549 -5.61783,0.36592 -6.94332,-2.14325c-1.32549,-2.50919 -0.36593,-5.61781 2.14325,-6.94332c2.50919,-1.32549 5.61783,-0.36592 6.94332,2.14325c1.32549,2.50919 0.36592,5.61783 -2.14325,6.94332z" fill="url(#color-44)" stroke="#000000" stroke-width="0"/><path d="M321.87907,262.50117c-2.30705,1.21869 -5.16521,0.33644 -6.38392,-1.9706c-1.21869,-2.30705 -0.33644,-5.16521 1.97059,-6.38391c2.30705,-1.21869 5.16521,-0.33644 6.38392,1.97058c1.21869,2.30705 0.33644,5.16521 -1.9706,6.38392z" fill="url(#color-45)" stroke="#000000" stroke-width="0"/><path d="M323.12213,265.59229c-2.30705,1.21869 -5.16521,0.33644 -6.38391,-1.97059c-1.21869,-2.30705 -0.33644,-5.16521 1.97057,-6.38391c2.30705,-1.21869 5.16521,-0.33644 6.38391,1.97057c1.21869,2.30705 0.33646,5.16519 -1.97057,6.38391z" fill="url(#color-46)" stroke="#000000" stroke-width="0"/><path d="M324.35964,268.49752c-2.30705,1.21869 -5.16521,0.33644 -6.38391,-1.97059c-1.21869,-2.30705 -0.33644,-5.16521 1.97059,-6.38391c2.30705,-1.21869 5.16521,-0.33644 6.38391,1.97057c1.21869,2.30705 0.33644,5.16521 -1.97059,6.38391z" fill="url(#color-47)" stroke="#000000" stroke-width="0"/><path d="M324.65668,271.05885c-2.30705,1.21869 -5.16518,0.33644 -6.38391,-1.97059c-1.21869,-2.30705 -0.33644,-5.16521 1.97057,-6.38391c2.30705,-1.21869 5.16521,-0.33644 6.38391,1.97059c1.21869,2.30705 0.33643,5.16521 -1.97059,6.38391z" fill="url(#color-48)" stroke="#000000" stroke-width="0"/><path d="M325.70276,273.78377c-2.30705,1.21869 -5.16521,0.33644 -6.38391,-1.97057c-1.21869,-2.30705 -0.33644,-5.16521 1.97058,-6.38392c2.30705,-1.21869 5.16521,-0.33644 6.38392,1.97058c1.21869,2.30705 0.33643,5.16522 -1.9706,6.38392z" fill="url(#color-49)" stroke="#000000" stroke-width="0"/><path d="M317.37137,247.92139c-2.50919,1.32549 -5.61783,0.36592 -6.94333,-2.14326c-1.32549,-2.50919 -0.36593,-5.61781 2.14326,-6.9433c2.50919,-1.32549 5.61781,-0.36594 6.94333,2.14326c1.32549,2.50919 0.36592,5.61783 -2.14325,6.94332z" fill="url(#color-50)" stroke="#000000" stroke-width="0"/><path d="M318.72336,251.28337c-2.50919,1.32549 -5.61781,0.36593 -6.94332,-2.14325c-1.32549,-2.50919 -0.36592,-5.61783 2.14326,-6.94333c2.50919,-1.32549 5.6178,-0.36592 6.94332,2.14326c1.32549,2.50919 0.36593,5.61781 -2.14325,6.94332z" fill="url(#color-51)" stroke="#000000" stroke-width="0"/><path d="M320.06932,254.4432c-2.50919,1.32549 -5.61781,0.36593 -6.94332,-2.14325c-1.32549,-2.50919 -0.36592,-5.6178 2.14326,-6.94332c2.50919,-1.32549 5.61781,-0.36593 6.9433,2.14326c1.32549,2.50919 0.36593,5.61781 -2.14325,6.94332z" fill="url(#color-52)" stroke="#000000" stroke-width="0"/><path d="M320.39238,257.22895c-2.50919,1.32549 -5.6178,0.36592 -6.94332,-2.14326c-1.32549,-2.50919 -0.36593,-5.61781 2.14326,-6.9433c2.50919,-1.32549 5.61781,-0.36593 6.94332,2.14325c1.32549,2.50919 0.36591,5.61782 -2.14326,6.94332z" fill="url(#color-53)" stroke="#000000" stroke-width="0"/><path d="M321.53013,260.19268c-2.50919,1.32549 -5.61783,0.36592 -6.94332,-2.14325c-1.32549,-2.50919 -0.36591,-5.61782 2.14326,-6.94332c2.50919,-1.32549 5.61781,-0.36593 6.94332,2.14325c1.32549,2.50919 0.36592,5.61783 -2.14326,6.94333z" fill="url(#color-54)" stroke="#000000" stroke-width="0"/><path d="M349.09429,331.87004c-2.53449,1.27646 -5.62387,0.25665 -6.90035,-2.27785c-1.27646,-2.53449 -0.25665,-5.62387 2.27785,-6.90035c2.53449,-1.27646 5.62387,-0.25665 6.90035,2.27785c1.27646,2.53449 0.25665,5.62387 -2.27785,6.90035z" fill="url(#color-55)" stroke="#000000" stroke-width="0"/><path d="M317.27938,245.39614c-2.53449,1.27646 -5.62387,0.25665 -6.90036,-2.27783c-1.27646,-2.53449 -0.25665,-5.62387 2.27785,-6.90035c2.53449,-1.27646 5.62387,-0.25665 6.90036,2.27783c1.27646,2.53449 0.25665,5.62387 -2.27785,6.90035z" fill="url(#color-56)" stroke="#000000" stroke-width="0"/><path d="M317.3709,242.49516c-2.53449,1.27646 -5.62387,0.25665 -6.90035,-2.27785c-1.27646,-2.53449 -0.25662,-5.62385 2.27785,-6.90033c2.53449,-1.27646 5.62386,-0.25665 6.90034,2.27783c1.27646,2.53449 0.25665,5.62387 -2.27783,6.90036z" fill="url(#color-57)" stroke="#000000" stroke-width="0"/><path d="M319.5829,240.34905c-2.53449,1.27646 -5.62387,0.25665 -6.90035,-2.27785c-1.27646,-2.53449 -0.25665,-5.62387 2.27785,-6.90035c2.53449,-1.27646 5.62387,-0.25663 6.90035,2.27785c1.27646,2.53449 0.25665,5.62387 -2.27785,6.90035z" fill="url(#color-58)" stroke="#000000" stroke-width="0"/><path d="M323.26727,241.00215c-2.53449,1.27646 -5.62387,0.25663 -6.90035,-2.27785c-1.27646,-2.53449 -0.25665,-5.62386 2.27785,-6.90033c2.53449,-1.27646 5.62387,-0.25665 6.90035,2.27785c1.27646,2.53449 0.25665,5.62387 -2.27785,6.90035z" fill="url(#color-59)" stroke="#000000" stroke-width="0"/><path d="M325.93413,242.40081c-2.53449,1.27646 -5.62387,0.25663 -6.90035,-2.27785c-1.27646,-2.53449 -0.25665,-5.62386 2.27783,-6.90034c2.53449,-1.27646 5.62387,-0.25665 6.90035,2.27785c1.27646,2.53449 0.25665,5.62387 -2.27785,6.90035z" fill="url(#color-60)" stroke="#000000" stroke-width="0"/><path d="M342.78322,318.55224c-1.98592,1.00018 -4.40663,0.20109 -5.40684,-1.78484c-1.00018,-1.98592 -0.20109,-4.40663 1.78484,-5.40684c1.98592,-1.00018 4.40662,-0.20109 5.40686,1.78482c1.00018,1.98592 0.20109,4.40662 -1.78484,5.40684z" fill="url(#color-61)" stroke="#000000" stroke-width="0"/><path d="M344.14229,322.59136c-1.98592,1.00018 -4.40663,0.20109 -5.40684,-1.78484c-1.00018,-1.98592 -0.20109,-4.40663 1.78482,-5.40686c1.98592,-1.00018 4.40663,-0.20109 5.40684,1.78484c1.00018,1.98592 0.20109,4.40663 -1.78484,5.40684z" fill="url(#color-62)" stroke="#000000" stroke-width="0"/><path d="M346.24782,326.81996c-1.92678,0.97039 -4.27541,0.1951 -5.24582,-1.73168c-0.97039,-1.92678 -0.1951,-4.27541 1.73169,-5.24581c1.92678,-0.97039 4.27541,-0.1951 5.24582,1.73168c0.97039,1.92678 0.1951,4.27541 -1.73166,5.24581z" fill="url(#color-63)" stroke="#000000" stroke-width="0"/><path d="M350.02229,333.5138c-2.0169,1.01578 -4.47535,0.20422 -5.49114,-1.81266c-1.01578,-2.0169 -0.20422,-4.47535 1.81264,-5.49115c2.0169,-1.01578 4.47535,-0.20422 5.49115,1.81264c1.01578,2.0169 0.20422,4.47535 -1.81266,5.49117z" fill="url(#color-64)" stroke="#000000" stroke-width="0"/><path d="M350.56131,335.60062c-1.48722,0.74903 -3.30006,0.15061 -4.04911,-1.33663c-0.74903,-1.48722 -0.15061,-3.30006 1.33664,-4.04911c1.48722,-0.74903 3.30006,-0.15061 4.04911,1.33664c0.74903,1.48722 0.15061,3.30006 -1.33663,4.0491z" fill="url(#color-65)" stroke="#000000" stroke-width="0"/><path d="M337.19859,282.50299c1.85971,7.87964 9.5233,43.41673 9.5233,43.41673c0,0 -11.5097,-26.08927 -17.53963,-41.03066c-6.02995,-14.94139 -14.92782,-45.56826 -14.92782,-45.56826c0,0 2.03621,-3.01953 3.90159,-3.47909c1.86541,-0.45956 5.66616,1.122 5.66616,1.122c0,0 11.51671,37.65961 13.37642,45.53927z" fill="none" stroke="#0028ff" stroke-width="1.75"/></g><g stroke="#000000" stroke-width="1.5"><path d="M296.08992,181.93614c1.42232,-0.56344 7.80014,-3.21306 7.80014,-3.21306c0,0 4.08483,5.92055 4.82078,10.31796c0.62888,3.75774 -1.7051,8.29925 -1.7051,8.29925c0,0 -4.72494,-1.63897 -7.1974,-4.49085c-2.6297,-3.03325 -4.05497,-10.77994 -3.71839,-10.91325z" fill="#2a2355"/><g><path d="M287.41148,176.65313l-4.0006,-12.82231l16.48718,-7.3738l6.88078,13.46301c0,0 -0.44193,2.92845 -2.21737,4.34453c-1.61654,1.28934 -4.49799,1.04924 -6.04522,1.58712c-1.65716,0.57613 -3.48659,3.59769 -5.91078,3.65139c-2.2698,0.05027 -5.19395,-2.84994 -5.19395,-2.84994z" fill="#100d25"/><path d="M293.42785,178.43306l-1.1696,-4.45026l2.89007,-5.57848l5.11396,0.16377l4.04259,3.82406l3.08254,-8.1705c0,0 2.06368,6.26306 1.72636,9.60907c-0.26977,2.67621 -4.76922,4.66054 -7.41469,6.10433c-2.64546,1.44381 -4.89518,3.0644 -8.63075,2.51415c-3.96842,-0.58458 -8.69736,-6.11418 -8.69736,-6.11418z" fill="#160f3d"/><path d="M289.7176,174.13273l-3.57275,-9.77456l6.60114,-1.95279l4.98508,-3.70343l4.75717,8.42017l-4.39784,7.79928z" fill="#2a2355"/></g></g><g stroke="#000000" stroke-width="1.5"><path d="M301.44533,178.78755c5.2548,-1.43841 10.68074,1.65535 12.11916,6.91019c1.43841,5.25483 -1.65536,10.68073 -6.91016,12.11916c-5.2548,1.43841 -10.68074,-1.65535 -12.11917,-6.91017c-1.43841,-5.25479 1.65536,-10.68073 6.91017,-12.11915z" fill="#160f3d"/><g><path d="M318.65681,245.90986l5.07317,-1.55534l1.83811,5.99558c0,0 -1.34367,1.25285 -2.22406,1.52275c-0.80366,0.24638 -2.84909,0.03256 -2.84909,0.03256z" fill="#160f3d"/><path d="M311.92702,230.84583l8.69679,-2.71828l5.19672,16.6262c0,0 -2.35229,2.84106 -3.87666,3.31752c-1.35443,0.42333 -4.82013,-0.59923 -4.82013,-0.59923z" fill="#100d25"/><path d="M321.3772,207.75419l3.70207,19.47997c0,0 -4.7593,3.59869 -7.7167,4.45396c-3.04823,0.88156 -10.30836,0.75882 -10.30836,0.75882l-6.18181,-18.00302z" fill="#2a2355"/><path d="M303.45699,213.04553l-9.49499,-4.33208l9.24152,-0.0285l1.62597,-14.87093l10.55949,11.70629l7.67142,-5.86981l-4.74004,8.88965l6.17127,23.35672c0,0 -3.46267,3.17242 -6.33922,4.07153c-2.87656,0.89909 -7.62252,0.1363 -7.62252,0.1363z" fill="#160f3d"/><path d="M307.32052,213.48146l8.3131,-2.59835l4.1017,18.51273c0,0 -1.7153,1.79965 -2.70967,2.11046c-1.12182,0.35063 -3.685,-0.11172 -3.685,-0.11172z" fill="#0028ff"/><path d="M302.46662,201.15287l9.66764,-2.74456c0,0 1.57928,5.56297 2.24384,7.90386c0.25329,0.89218 7.20581,1.10364 7.20581,1.10364l-5.90383,4.19894c0,0 -0.25142,5.32979 -2.67709,6.24533c-2.4257,0.91554 -6.63093,-2.73219 -6.63093,-2.73219l-7.15245,-1.12193c0,0 5.76232,-3.99311 5.51405,-4.86768c-0.66646,-2.34761 -2.267,-7.98543 -2.267,-7.98543z" fill="#100d25"/><path d="M304.70696,197.28859c0.62301,1.88078 1.63621,5.57837 1.63621,5.57837c0,0 -0.05616,4.72912 -1.31279,5.605c-0.52245,0.36412 -1.57492,1.21349 -3.63004,0.16133c-2.05512,-1.05216 -4.04178,-4.08909 -4.04178,-4.08909c0,0 3.39437,1.44055 4.18946,0.64513c0.7951,-0.79539 1.16459,-1.37782 0.68061,-2.55974c-0.5786,-1.4131 -2.31913,-3.01461 -2.66248,-4.0512c-0.64476,-1.94639 -2.04567,-5.73784 -2.04567,-5.73784c0,0 1.54859,-1.32125 2.43499,-1.59206c0.75908,-0.2319 2.56091,0.06571 2.56091,0.06571c0,0 1.53925,4.00808 2.19061,5.97441z" data-paper-data="{&quot;index&quot;:null}" fill="#2a2355"/><path d="M315.82238,234.05836l0.67342,-4.00097l3.25689,2.77251l3.0822,9.86105c0,0 -0.97843,1.5548 -1.6673,1.77013c-0.6121,0.19132 -2.26297,-0.54165 -2.26297,-0.54165z" fill="#2a2355"/><path d="M306.47022,190.27019c0,0 1.32541,-1.25638 2.08405,-1.48975c0.88588,-0.27253 2.90887,-0.04625 2.90887,-0.04625c0,0 0.96482,3.92518 1.5218,5.89849c0.2966,1.05093 -0.24722,3.35279 0.0656,4.84735c0.26166,1.25009 0.89409,1.52534 1.99836,1.73843c1.10424,0.21309 3.108,-2.88238 3.108,-2.88238c0,0 0.05682,3.62858 -1.05544,5.65178c-1.11226,2.02322 -2.45997,1.90969 -3.09671,1.90095c-1.53162,-0.02104 -4.2287,-3.90607 -4.2287,-3.90607c0,0 -1.23331,-3.63011 -1.77149,-5.53691c-0.56266,-1.99351 -1.53434,-6.17562 -1.53434,-6.17562z" fill="#2a2355"/><path d="M297.68117,189.78463c0,0 2.39406,-3.99528 5.43445,-4.51845c3.04038,-0.52319 7.60095,0.97856 7.60095,0.97856l5.72576,1.50672l-4.16034,3.52551l-3.97271,4.79455l3.06575,16.17904l-6.62158,-15.07234l-5.81222,-2.49724l-6.09837,-1.92045z" fill="#160f3d"/><path d="M301.0477,182.01172c0,0 2.34407,-1.32943 4.89366,-0.52468c2.54957,0.80475 4.0343,2.92993 4.0343,2.92993l2.37807,7.6214l-3.96323,4.28494l-4.29942,-7.64698l0.48791,7.84061l-5.59671,-1.15512c0,0 -2.15906,-7.50706 -2.14333,-8.31947c0.04496,-2.32467 4.20874,-5.03064 4.20874,-5.03064z" fill="#100d25"/><path d="M305.05965,226.19133c0,0 6.64554,-1.51559 9.79046,-2.49859c3.0196,-0.94381 8.71833,-3.28655 8.71833,-3.28655l1.41778,1.14044l-0.59112,1.50441c0,0 -5.91671,2.41089 -9.01221,3.37842c-3.07394,0.96081 -9.49659,2.40671 -9.49659,2.40671l-1.65646,-0.93386z" fill="#100d25"/></g></g><path d="M285.67435,164.98011c-3.60691,0.00879 -8.69664,-2.9298 -8.69664,-2.9298l7.45692,-1.1961c0,0 4.23551,-1.29699 6.02297,-2.15846c1.71056,-0.82441 4.73581,-2.75513 4.73581,-2.75513l2.95958,-2.04507l6.06476,-0.55283c0,0 -0.9787,3.37056 -5.87071,6.63126c-4.83925,3.22555 -10.879,5.00176 -12.67269,5.00614z" fill="#160f3d" stroke="#000000" stroke-width="1.5"/><g stroke="#000000" stroke-width="1.5"><path d="M267.493,136.51058c0,0 7.05597,7.33671 8.09163,6.30696c0.80946,-0.80485 0.27999,-9.47423 0.27999,-9.47423c0,0 4.40258,6.65396 5.43314,6.4431c1.33773,-0.27369 3.34096,-7.65537 3.34096,-7.65537c0,0 2.292,6.82533 3.05219,7.11715c0.55946,0.21478 7.7531,-4.58233 7.7531,-4.58233l-1.87872,8.93709l7.31727,1.09848c0,0 -5.50524,1.54701 -4.84957,3.8806c0.65565,2.33359 6.50517,-0.35442 6.50517,-0.35442l-3.9722,4.69047c0,0 -2.90378,3.06909 -5.08207,4.63994c-2.17832,1.57085 -3.76062,2.64278 -6.55223,3.30984c-2.79163,0.66708 -5.18009,-0.44561 -5.18009,-0.44561c0,0 -0.5858,-3.99099 -2.51863,-5.42199c-1.93284,-1.431 -6.7834,-0.64976 -6.7834,-0.64976c0,0 1.52437,-3.96984 -0.38933,-5.62478c-1.91372,-1.65495 -7.08152,-0.83587 -7.08152,-0.83587c0,0 4.11123,-2.03074 4.6767,-4.58991c0.56548,-2.55918 -2.16231,-6.78943 -2.16231,-6.78943z" data-paper-data="{&quot;index&quot;:null}" fill="#100d25"/><path d="M275.74096,155.18142l-1.34282,-2.49406l10.45815,-5.94847l1.2918,2.19596z" fill="#100d25"/><path d="M274.66927,149.39587c1.95629,-0.66912 4.08459,0.37433 4.75372,2.33061c0.66912,1.95629 -0.37433,4.08459 -2.33064,4.75373c-1.95629,0.66912 -4.08459,-0.62433 -4.75373,-2.58064c-0.66914,-1.95631 0.37434,-3.83457 2.33064,-4.50371z" fill="#160f3d"/></g><g stroke="#000000" stroke-width="1.5"><path d="M293.34967,166.99938l-6.31605,-16.92815l2.69876,-1.30332l6.41561,17.9294z" fill="#100d25"/><path d="M284.25454,147.65588c-0.2689,-1.69936 0.89072,-3.29493 2.59007,-3.56384c1.69936,-0.2689 3.29494,0.89071 3.56384,2.59007c0.2689,1.69936 -0.89072,3.29493 -2.59007,3.56382c-1.69936,0.2689 -3.29494,-0.89071 -3.56383,-2.59006z" fill="#160f3d"/></g><g stroke="#000000" stroke-width="1.5"><path d="M302.74482,189.47802l-7.95582,-19.49818l2.40278,-1.39485l7.55421,19.1147z" fill="#100d25"/><path d="M291.37495,167.97506c-0.22418,-1.87142 1.11113,-3.57022 2.98254,-3.79439c1.87143,-0.22419 3.57022,1.11113 3.79439,2.98254c0.22418,1.87142 -1.1111,3.57023 -2.98254,3.79441c-1.87142,0.22418 -3.57022,-1.11113 -3.79441,-2.98254z" fill="#160f3d"/></g><path d="M300.7041,188.303c-0.05372,-1.61547 1.21236,-2.96862 2.82783,-3.02235c1.61547,-0.05372 2.96862,1.21237 3.02235,2.82783c0.05372,1.61547 -1.21234,2.96861 -2.82783,3.02235c-1.61547,0.05372 -2.96861,-1.21234 -3.02235,-2.82783z" fill="#160f3d" stroke="#000000" stroke-width="1.5"/><path d="M312.70269,226.17534c-3.32622,-0.6991 -5.45595,-3.96226 -4.75684,-7.2885c0.6991,-3.32622 3.96226,-5.45595 7.2885,-4.75684c3.32622,0.6991 5.45595,3.96226 4.75684,7.2885c-0.6991,3.32622 -3.96226,5.45595 -7.2885,4.75684z" fill="url(#color-66)" stroke="#000000" stroke-width="0"/><path d="M314.76855,233.31276c-2.70926,-0.56941 -4.44393,-3.22731 -3.87453,-5.93658c0.56941,-2.70926 3.22731,-4.44393 5.93658,-3.87453c2.70926,0.56941 4.44393,3.22731 3.87453,5.93658c-0.56941,2.70926 -3.22731,4.44393 -5.93658,3.87453z" fill="url(#color-67)" stroke="#000000" stroke-width="0"/></g></g></g></svg>