<svg version="1.1" xmlns="http://www.w3.org/2000/svg" xmlns:xlink="http://www.w3.org/1999/xlink" width="257.36348" height="206.37683" viewBox="0,0,257.36348,206.37683"><defs><radialGradient cx="330.92994" cy="294.82976" r="5.13825" gradientUnits="userSpaceOnUse" id="color-1"><stop offset="0" stop-color="#0028ff"/><stop offset="1" stop-color="#0028ff" stop-opacity="0"/></radialGradient><radialGradient cx="318.42913" cy="213.39286" r="5.13826" gradientUnits="userSpaceOnUse" id="color-2"><stop offset="0" stop-color="#0028ff"/><stop offset="1" stop-color="#0028ff" stop-opacity="0"/></radialGradient><radialGradient cx="318.56814" cy="216.67373" r="5.13825" gradientUnits="userSpaceOnUse" id="color-3"><stop offset="0" stop-color="#0028ff"/><stop offset="1" stop-color="#0028ff" stop-opacity="0"/></radialGradient><radialGradient cx="319.508" cy="220.17338" r="5.13826" gradientUnits="userSpaceOnUse" id="color-4"><stop offset="0" stop-color="#0028ff"/><stop offset="1" stop-color="#0028ff" stop-opacity="0"/></radialGradient><radialGradient cx="320.46605" cy="223.47159" r="5.13826" gradientUnits="userSpaceOnUse" id="color-5"><stop offset="0" stop-color="#0028ff"/><stop offset="1" stop-color="#0028ff" stop-opacity="0"/></radialGradient><radialGradient cx="320.45334" cy="226.27599" r="5.13826" gradientUnits="userSpaceOnUse" id="color-6"><stop offset="0" stop-color="#0028ff"/><stop offset="1" stop-color="#0028ff" stop-opacity="0"/></radialGradient><radialGradient cx="321.22815" cy="229.35459" r="5.13826" gradientUnits="userSpaceOnUse" id="color-7"><stop offset="0" stop-color="#0028ff"/><stop offset="1" stop-color="#0028ff" stop-opacity="0"/></radialGradient><radialGradient cx="321.7557" cy="232.42682" r="5.13826" gradientUnits="userSpaceOnUse" id="color-8"><stop offset="0" stop-color="#0028ff"/><stop offset="1" stop-color="#0028ff" stop-opacity="0"/></radialGradient><radialGradient cx="322.40834" cy="235.99122" r="5.13826" gradientUnits="userSpaceOnUse" id="color-9"><stop offset="0" stop-color="#0028ff"/><stop offset="1" stop-color="#0028ff" stop-opacity="0"/></radialGradient><radialGradient cx="323.09545" cy="239.35632" r="5.13826" gradientUnits="userSpaceOnUse" id="color-10"><stop offset="0" stop-color="#0028ff"/><stop offset="1" stop-color="#0028ff" stop-opacity="0"/></radialGradient><radialGradient cx="322.85511" cy="242.15042" r="5.13826" gradientUnits="userSpaceOnUse" id="color-11"><stop offset="0" stop-color="#0028ff"/><stop offset="1" stop-color="#0028ff" stop-opacity="0"/></radialGradient><radialGradient cx="323.79847" cy="245.11672" r="5.13826" gradientUnits="userSpaceOnUse" id="color-12"><stop offset="0" stop-color="#0028ff"/><stop offset="1" stop-color="#0028ff" stop-opacity="0"/></radialGradient><radialGradient cx="324.46049" cy="247.86409" r="5.13825" gradientUnits="userSpaceOnUse" id="color-13"><stop offset="0" stop-color="#0028ff"/><stop offset="1" stop-color="#0028ff" stop-opacity="0"/></radialGradient><radialGradient cx="325.11313" cy="251.42849" r="5.13826" gradientUnits="userSpaceOnUse" id="color-14"><stop offset="0" stop-color="#0028ff"/><stop offset="1" stop-color="#0028ff" stop-opacity="0"/></radialGradient><radialGradient cx="325.80026" cy="254.7936" r="5.13826" gradientUnits="userSpaceOnUse" id="color-15"><stop offset="0" stop-color="#0028ff"/><stop offset="1" stop-color="#0028ff" stop-opacity="0"/></radialGradient><radialGradient cx="325.5599" cy="257.5877" r="5.13826" gradientUnits="userSpaceOnUse" id="color-16"><stop offset="0" stop-color="#0028ff"/><stop offset="1" stop-color="#0028ff" stop-opacity="0"/></radialGradient><radialGradient cx="326.08222" cy="260.71904" r="5.13826" gradientUnits="userSpaceOnUse" id="color-17"><stop offset="0" stop-color="#0028ff"/><stop offset="1" stop-color="#0028ff" stop-opacity="0"/></radialGradient><radialGradient cx="326.34138" cy="263.43002" r="5.13826" gradientUnits="userSpaceOnUse" id="color-18"><stop offset="0" stop-color="#0028ff"/><stop offset="1" stop-color="#0028ff" stop-opacity="0"/></radialGradient><radialGradient cx="326.99402" cy="266.99442" r="5.13826" gradientUnits="userSpaceOnUse" id="color-19"><stop offset="0" stop-color="#0028ff"/><stop offset="1" stop-color="#0028ff" stop-opacity="0"/></radialGradient><radialGradient cx="327.68113" cy="270.35953" r="5.13826" gradientUnits="userSpaceOnUse" id="color-20"><stop offset="0" stop-color="#0028ff"/><stop offset="1" stop-color="#0028ff" stop-opacity="0"/></radialGradient><radialGradient cx="327.44078" cy="273.15364" r="5.13825" gradientUnits="userSpaceOnUse" id="color-21"><stop offset="0" stop-color="#0028ff"/><stop offset="1" stop-color="#0028ff" stop-opacity="0"/></radialGradient><radialGradient cx="327.96311" cy="276.28497" r="5.13826" gradientUnits="userSpaceOnUse" id="color-22"><stop offset="0" stop-color="#0028ff"/><stop offset="1" stop-color="#0028ff" stop-opacity="0"/></radialGradient><radialGradient cx="328.6797" cy="278.42805" r="5.13826" gradientUnits="userSpaceOnUse" id="color-23"><stop offset="0" stop-color="#0028ff"/><stop offset="1" stop-color="#0028ff" stop-opacity="0"/></radialGradient><radialGradient cx="329.33233" cy="281.99247" r="5.13825" gradientUnits="userSpaceOnUse" id="color-24"><stop offset="0" stop-color="#0028ff"/><stop offset="1" stop-color="#0028ff" stop-opacity="0"/></radialGradient><radialGradient cx="330.01946" cy="285.35758" r="5.13826" gradientUnits="userSpaceOnUse" id="color-25"><stop offset="0" stop-color="#0028ff"/><stop offset="1" stop-color="#0028ff" stop-opacity="0"/></radialGradient><radialGradient cx="329.77911" cy="288.15167" r="5.13825" gradientUnits="userSpaceOnUse" id="color-26"><stop offset="0" stop-color="#0028ff"/><stop offset="1" stop-color="#0028ff" stop-opacity="0"/></radialGradient><radialGradient cx="330.30142" cy="291.283" r="5.13825" gradientUnits="userSpaceOnUse" id="color-27"><stop offset="0" stop-color="#0028ff"/><stop offset="1" stop-color="#0028ff" stop-opacity="0"/></radialGradient><radialGradient cx="322.28467" cy="271.53029" r="5.13825" gradientUnits="userSpaceOnUse" id="color-28"><stop offset="0" stop-color="#0028ff"/><stop offset="1" stop-color="#0028ff" stop-opacity="0"/></radialGradient><radialGradient cx="323.0463" cy="275.2549" r="5.13826" gradientUnits="userSpaceOnUse" id="color-29"><stop offset="0" stop-color="#0028ff"/><stop offset="1" stop-color="#0028ff" stop-opacity="0"/></radialGradient><radialGradient cx="324.67436" cy="278.06298" r="5.13826" gradientUnits="userSpaceOnUse" id="color-30"><stop offset="0" stop-color="#0028ff"/><stop offset="1" stop-color="#0028ff" stop-opacity="0"/></radialGradient><radialGradient cx="325.39191" cy="280.92138" r="5.13826" gradientUnits="userSpaceOnUse" id="color-31"><stop offset="0" stop-color="#0028ff"/><stop offset="1" stop-color="#0028ff" stop-opacity="0"/></radialGradient><radialGradient cx="325.87412" cy="283.92872" r="5.13826" gradientUnits="userSpaceOnUse" id="color-32"><stop offset="0" stop-color="#0028ff"/><stop offset="1" stop-color="#0028ff" stop-opacity="0"/></radialGradient><radialGradient cx="330.66122" cy="298.22025" r="5.13826" gradientUnits="userSpaceOnUse" id="color-33"><stop offset="0" stop-color="#0028ff"/><stop offset="1" stop-color="#0028ff" stop-opacity="0"/></radialGradient><radialGradient cx="318.02856" cy="257.34962" r="5.13826" gradientUnits="userSpaceOnUse" id="color-34"><stop offset="0" stop-color="#0028ff"/><stop offset="1" stop-color="#0028ff" stop-opacity="0"/></radialGradient><radialGradient cx="318.93854" cy="260.76094" r="5.13826" gradientUnits="userSpaceOnUse" id="color-35"><stop offset="0" stop-color="#0028ff"/><stop offset="1" stop-color="#0028ff" stop-opacity="0"/></radialGradient><radialGradient cx="320.10187" cy="263.99247" r="5.13826" gradientUnits="userSpaceOnUse" id="color-36"><stop offset="0" stop-color="#0028ff"/><stop offset="1" stop-color="#0028ff" stop-opacity="0"/></radialGradient><radialGradient cx="320.26533" cy="266.79213" r="5.13826" gradientUnits="userSpaceOnUse" id="color-37"><stop offset="0" stop-color="#0028ff"/><stop offset="1" stop-color="#0028ff" stop-opacity="0"/></radialGradient><radialGradient cx="321.35591" cy="269.82719" r="5.13827" gradientUnits="userSpaceOnUse" id="color-38"><stop offset="0" stop-color="#0028ff"/><stop offset="1" stop-color="#0028ff" stop-opacity="0"/></radialGradient><radialGradient cx="314.6616" cy="243.51163" r="5.13826" gradientUnits="userSpaceOnUse" id="color-39"><stop offset="0" stop-color="#0028ff"/><stop offset="1" stop-color="#0028ff" stop-opacity="0"/></radialGradient><radialGradient cx="315.6693" cy="246.99234" r="5.13826" gradientUnits="userSpaceOnUse" id="color-40"><stop offset="0" stop-color="#0028ff"/><stop offset="1" stop-color="#0028ff" stop-opacity="0"/></radialGradient><radialGradient cx="316.69129" cy="250.2713" r="5.13825" gradientUnits="userSpaceOnUse" id="color-41"><stop offset="0" stop-color="#0028ff"/><stop offset="1" stop-color="#0028ff" stop-opacity="0"/></radialGradient><radialGradient cx="316.93453" cy="253.09362" r="5.13825" gradientUnits="userSpaceOnUse" id="color-42"><stop offset="0" stop-color="#0028ff"/><stop offset="1" stop-color="#0028ff" stop-opacity="0"/></radialGradient><radialGradient cx="316.80988" cy="254.23756" r="5.13825" gradientUnits="userSpaceOnUse" id="color-43"><stop offset="0" stop-color="#0028ff"/><stop offset="1" stop-color="#0028ff" stop-opacity="0"/></radialGradient><radialGradient cx="310.99931" cy="229.73099" r="4.72428" gradientUnits="userSpaceOnUse" id="color-44"><stop offset="0" stop-color="#0028ff"/><stop offset="1" stop-color="#0028ff" stop-opacity="0"/></radialGradient><radialGradient cx="311.92581" cy="232.93127" r="4.72428" gradientUnits="userSpaceOnUse" id="color-45"><stop offset="0" stop-color="#0028ff"/><stop offset="1" stop-color="#0028ff" stop-opacity="0"/></radialGradient><radialGradient cx="312.86547" cy="235.94606" r="4.72428" gradientUnits="userSpaceOnUse" id="color-46"><stop offset="0" stop-color="#0028ff"/><stop offset="1" stop-color="#0028ff" stop-opacity="0"/></radialGradient><radialGradient cx="312.9039" cy="238.52426" r="4.72428" gradientUnits="userSpaceOnUse" id="color-47"><stop offset="0" stop-color="#0028ff"/><stop offset="1" stop-color="#0028ff" stop-opacity="0"/></radialGradient><radialGradient cx="313.6712" cy="241.34043" r="4.72428" gradientUnits="userSpaceOnUse" id="color-48"><stop offset="0" stop-color="#0028ff"/><stop offset="1" stop-color="#0028ff" stop-opacity="0"/></radialGradient><radialGradient cx="307.8222" cy="214.38878" r="5.13826" gradientUnits="userSpaceOnUse" id="color-49"><stop offset="0" stop-color="#0028ff"/><stop offset="1" stop-color="#0028ff" stop-opacity="0"/></radialGradient><radialGradient cx="308.8299" cy="217.8695" r="5.13826" gradientUnits="userSpaceOnUse" id="color-50"><stop offset="0" stop-color="#0028ff"/><stop offset="1" stop-color="#0028ff" stop-opacity="0"/></radialGradient><radialGradient cx="309.85189" cy="221.14846" r="5.13825" gradientUnits="userSpaceOnUse" id="color-51"><stop offset="0" stop-color="#0028ff"/><stop offset="1" stop-color="#0028ff" stop-opacity="0"/></radialGradient><radialGradient cx="309.8937" cy="223.95258" r="5.13825" gradientUnits="userSpaceOnUse" id="color-52"><stop offset="0" stop-color="#0028ff"/><stop offset="1" stop-color="#0028ff" stop-opacity="0"/></radialGradient><radialGradient cx="310.72822" cy="227.01553" r="5.13825" gradientUnits="userSpaceOnUse" id="color-53"><stop offset="0" stop-color="#0028ff"/><stop offset="1" stop-color="#0028ff" stop-opacity="0"/></radialGradient><radialGradient cx="331.05136" cy="301.06105" r="5.13826" gradientUnits="userSpaceOnUse" id="color-54"><stop offset="0" stop-color="#0028ff"/><stop offset="1" stop-color="#0028ff" stop-opacity="0"/></radialGradient><radialGradient cx="308.07707" cy="211.83042" r="5.13826" gradientUnits="userSpaceOnUse" id="color-55"><stop offset="0" stop-color="#0028ff"/><stop offset="1" stop-color="#0028ff" stop-opacity="0"/></radialGradient><radialGradient cx="308.45931" cy="208.95325" r="5.13826" gradientUnits="userSpaceOnUse" id="color-56"><stop offset="0" stop-color="#0028ff"/><stop offset="1" stop-color="#0028ff" stop-opacity="0"/></radialGradient><radialGradient cx="310.87557" cy="207.04004" r="5.13826" gradientUnits="userSpaceOnUse" id="color-57"><stop offset="0" stop-color="#0028ff"/><stop offset="1" stop-color="#0028ff" stop-opacity="0"/></radialGradient><radialGradient cx="314.47577" cy="208.05964" r="5.13826" gradientUnits="userSpaceOnUse" id="color-58"><stop offset="0" stop-color="#0028ff"/><stop offset="1" stop-color="#0028ff" stop-opacity="0"/></radialGradient><radialGradient cx="316.98876" cy="209.71893" r="5.13826" gradientUnits="userSpaceOnUse" id="color-59"><stop offset="0" stop-color="#0028ff"/><stop offset="1" stop-color="#0028ff" stop-opacity="0"/></radialGradient><radialGradient cx="326.50699" cy="288.21549" r="4.02613" gradientUnits="userSpaceOnUse" id="color-60"><stop offset="0" stop-color="#0028ff"/><stop offset="1" stop-color="#0028ff" stop-opacity="0"/></radialGradient><radialGradient cx="327.45377" cy="292.37061" r="4.02614" gradientUnits="userSpaceOnUse" id="color-61"><stop offset="0" stop-color="#0028ff"/><stop offset="1" stop-color="#0028ff" stop-opacity="0"/></radialGradient><radialGradient cx="329.16711" cy="296.90119" r="3.90624" gradientUnits="userSpaceOnUse" id="color-62"><stop offset="0" stop-color="#0028ff"/><stop offset="1" stop-color="#0028ff" stop-opacity="0"/></radialGradient><radialGradient cx="332.18523" cy="303.76946" r="4.08892" gradientUnits="userSpaceOnUse" id="color-63"><stop offset="0" stop-color="#0028ff"/><stop offset="1" stop-color="#0028ff" stop-opacity="0"/></radialGradient><radialGradient cx="332.89635" cy="306.90254" r="3.01511" gradientUnits="userSpaceOnUse" id="color-64"><stop offset="0" stop-color="#0028ff"/><stop offset="1" stop-color="#0028ff" stop-opacity="0"/></radialGradient><radialGradient cx="236.18765" cy="124.88328" r="3.56128" gradientUnits="userSpaceOnUse" id="color-65"><stop offset="0" stop-color="#ff1c1c"/><stop offset="1" stop-color="#ff1c1c" stop-opacity="0"/></radialGradient><radialGradient cx="308.64937" cy="194.37862" r="6" gradientUnits="userSpaceOnUse" id="color-66"><stop offset="0" stop-color="#0028ff"/><stop offset="1" stop-color="#0028ff" stop-opacity="0"/></radialGradient><radialGradient cx="310.3827" cy="203.47862" r="4.5" gradientUnits="userSpaceOnUse" id="color-67"><stop offset="0" stop-color="#0028ff"/><stop offset="1" stop-color="#0028ff" stop-opacity="0"/></radialGradient></defs><g transform="translate(-110.4855,-103.54163)"><g data-paper-data="{&quot;isPaintingLayer&quot;:true}" fill-rule="nonzero" stroke-linejoin="miter" stroke-miterlimit="10" stroke-dasharray="" stroke-dashoffset="0" style="mix-blend-mode: normal"><g stroke-linecap="butt"><path d="M332.76887,299.62766c-2.64982,1.01561 -5.62123,-0.30917 -6.63686,-2.95897c-1.01561,-2.64982 0.30917,-5.62123 2.95897,-6.63686c2.64982,-1.01561 5.62123,0.30917 6.63686,2.95897c1.01561,2.64982 -0.30917,5.62123 -2.95897,6.63686z" fill="url(#color-1)" stroke="#000000" stroke-width="0"/><path d="M320.26807,218.19077c-2.64982,1.01561 -5.62123,-0.30916 -6.63686,-2.95897c-1.01561,-2.64982 0.30917,-5.62123 2.95897,-6.63686c2.64982,-1.01561 5.62122,0.30916 6.63685,2.95896c1.01561,2.64982 -0.30916,5.62123 -2.95897,6.63686z" fill="url(#color-2)" stroke="#000000" stroke-width="0"/><path d="M320.40708,221.47165c-2.64982,1.01561 -5.62123,-0.30917 -6.63686,-2.95897c-1.01561,-2.64982 0.30917,-5.62123 2.95897,-6.63686c2.64982,-1.01561 5.62122,0.30917 6.63685,2.95897c1.01561,2.64982 -0.30916,5.62123 -2.95897,6.63686z" fill="url(#color-3)" stroke="#000000" stroke-width="0"/><path d="M321.34695,224.9713c-2.64982,1.01561 -5.62124,-0.30917 -6.63687,-2.95897c-1.01561,-2.64982 0.30917,-5.62122 2.95897,-6.63685c2.64982,-1.01561 5.62122,0.30916 6.63685,2.95897c1.01561,2.64982 -0.30915,5.62123 -2.95896,6.63686z" fill="url(#color-4)" stroke="#000000" stroke-width="0"/><path d="M322.305,228.2695c-2.64982,1.01561 -5.62123,-0.30917 -6.63686,-2.95897c-1.01561,-2.64982 0.30917,-5.62122 2.95897,-6.63685c2.64982,-1.01561 5.62122,0.30916 6.63685,2.95897c1.01561,2.64982 -0.30916,5.62123 -2.95896,6.63686z" fill="url(#color-5)" stroke="#000000" stroke-width="0"/><path d="M322.29228,231.07391c-2.64982,1.01561 -5.62123,-0.30916 -6.63686,-2.95897c-1.01561,-2.64982 0.30916,-5.62122 2.95896,-6.63685c2.64982,-1.01561 5.62123,0.30915 6.63686,2.95896c1.01561,2.64982 -0.30916,5.62123 -2.95897,6.63686z" fill="url(#color-6)" stroke="#000000" stroke-width="0"/><path d="M323.06709,234.15249c-2.64982,1.01561 -5.62123,-0.30917 -6.63686,-2.95897c-1.01561,-2.64982 0.30917,-5.62122 2.95897,-6.63685c2.64982,-1.01561 5.62123,0.30916 6.63686,2.95896c1.01561,2.64982 -0.30916,5.62123 -2.95897,6.63686z" fill="url(#color-7)" stroke="#000000" stroke-width="0"/><path d="M323.19904,237.35819c-2.72353,0.79714 -5.57757,-0.76451 -6.37472,-3.48801c-0.79714,-2.72353 0.76451,-5.57756 3.48802,-6.37472c2.72353,-0.79714 5.57757,0.7645 6.37472,3.488c0.79714,2.72353 -0.76451,5.57757 -3.48802,6.37473z" fill="url(#color-8)" stroke="#000000" stroke-width="0"/><path d="M323.85168,240.92258c-2.72353,0.79714 -5.57757,-0.76451 -6.37472,-3.48801c-0.79714,-2.72353 0.76451,-5.57757 3.48801,-6.37472c2.72353,-0.79714 5.57757,0.7645 6.37472,3.48801c0.79714,2.72353 -0.7645,5.57757 -3.48802,6.37473z" fill="url(#color-9)" stroke="#000000" stroke-width="0"/><path d="M324.53881,244.2877c-2.72353,0.79714 -5.57757,-0.76451 -6.37472,-3.48801c-0.79714,-2.72353 0.76451,-5.57756 3.48801,-6.37472c2.72353,-0.79714 5.57757,0.7645 6.37472,3.48801c0.79714,2.72353 -0.7645,5.57757 -3.48801,6.37472z" fill="url(#color-10)" stroke="#000000" stroke-width="0"/><path d="M324.29845,247.0818c-2.72353,0.79714 -5.57757,-0.76451 -6.37472,-3.48801c-0.79714,-2.72353 0.76451,-5.57757 3.48801,-6.37472c2.72353,-0.79714 5.57757,0.7645 6.37472,3.48801c0.79714,2.72353 -0.76451,5.57757 -3.48802,6.37473z" fill="url(#color-11)" stroke="#000000" stroke-width="0"/><path d="M325.24182,250.0481c-2.72353,0.79714 -5.57757,-0.76451 -6.37473,-3.48802c-0.79714,-2.72353 0.76451,-5.57757 3.48801,-6.37472c2.72353,-0.79714 5.57757,0.76451 6.37472,3.48801c0.79714,2.72353 -0.7645,5.57757 -3.48801,6.37472z" fill="url(#color-12)" stroke="#000000" stroke-width="0"/><path d="M325.90384,252.79546c-2.72353,0.79714 -5.57757,-0.7645 -6.37473,-3.48802c-0.79714,-2.72353 0.76451,-5.57757 3.48802,-6.37472c2.72353,-0.79714 5.57757,0.76451 6.37472,3.48801c0.79714,2.72353 -0.76451,5.57756 -3.48801,6.37472z" fill="url(#color-13)" stroke="#000000" stroke-width="0"/><path d="M326.55648,256.35986c-2.72353,0.79714 -5.57757,-0.76451 -6.37472,-3.48801c-0.79714,-2.72353 0.76451,-5.57756 3.48802,-6.37472c2.72353,-0.79714 5.57757,0.7645 6.37472,3.48801c0.79714,2.72353 -0.76451,5.57757 -3.48801,6.37472z" fill="url(#color-14)" stroke="#000000" stroke-width="0"/><path d="M327.2436,259.72497c-2.72353,0.79714 -5.57757,-0.76451 -6.37472,-3.48801c-0.79714,-2.72353 0.7645,-5.57757 3.48801,-6.37472c2.72353,-0.79714 5.57757,0.7645 6.37472,3.48801c0.79714,2.72353 -0.7645,5.57757 -3.488,6.37472z" fill="url(#color-15)" stroke="#000000" stroke-width="0"/><path d="M327.00324,262.51907c-2.72353,0.79714 -5.57757,-0.76451 -6.37472,-3.48801c-0.79714,-2.72353 0.76451,-5.57756 3.48802,-6.37471c2.72353,-0.79714 5.57757,0.7645 6.37472,3.488c0.79714,2.72353 -0.76451,5.57757 -3.48801,6.37472z" fill="url(#color-16)" stroke="#000000" stroke-width="0"/><path d="M327.52557,265.65041c-2.72353,0.79714 -5.57757,-0.7645 -6.37472,-3.48801c-0.79714,-2.72353 0.76451,-5.57757 3.48801,-6.37472c2.72353,-0.79714 5.57757,0.7645 6.37472,3.488c0.79714,2.72353 -0.76451,5.57757 -3.48802,6.37473z" fill="url(#color-17)" stroke="#000000" stroke-width="0"/><path d="M327.78472,268.36142c-2.72353,0.79714 -5.57757,-0.76451 -6.37472,-3.48802c-0.79714,-2.72353 0.76451,-5.57756 3.48802,-6.37471c2.72353,-0.79714 5.57757,0.7645 6.37472,3.48801c0.79714,2.72353 -0.76451,5.57757 -3.48801,6.37472z" fill="url(#color-18)" stroke="#000000" stroke-width="0"/><path d="M328.43736,271.9258c-2.72353,0.79714 -5.57757,-0.76451 -6.37472,-3.48802c-0.79714,-2.72353 0.76451,-5.57756 3.48801,-6.37471c2.72353,-0.79714 5.57757,0.7645 6.37472,3.48801c0.79714,2.72353 -0.76451,5.57757 -3.48801,6.37472z" fill="url(#color-19)" stroke="#000000" stroke-width="0"/><path d="M329.12448,275.2909c-2.72353,0.79714 -5.57757,-0.76451 -6.37472,-3.48801c-0.79714,-2.72353 0.76451,-5.57756 3.48801,-6.37472c2.72353,-0.79714 5.57757,0.7645 6.37472,3.48801c0.79714,2.72353 -0.7645,5.57757 -3.48801,6.37472z" fill="url(#color-20)" stroke="#000000" stroke-width="0"/><path d="M328.88413,278.08501c-2.72353,0.79714 -5.57756,-0.76451 -6.37472,-3.48801c-0.79714,-2.72353 0.76451,-5.57756 3.48802,-6.37472c2.72353,-0.79714 5.57756,0.76451 6.37472,3.48801c0.79714,2.72353 -0.76451,5.57756 -3.48802,6.37472z" fill="url(#color-21)" stroke="#000000" stroke-width="0"/><path d="M329.40646,281.21636c-2.72353,0.79714 -5.57757,-0.76451 -6.37473,-3.48802c-0.79714,-2.72353 0.76451,-5.57757 3.48801,-6.37472c2.72353,-0.79714 5.57757,0.7645 6.37472,3.48801c0.79714,2.72353 -0.7645,5.57757 -3.48802,6.37473z" fill="url(#color-22)" stroke="#000000" stroke-width="0"/><path d="M330.12305,283.35943c-2.72353,0.79714 -5.57757,-0.76451 -6.37473,-3.48802c-0.79714,-2.72353 0.76451,-5.57756 3.48801,-6.37472c2.72353,-0.79714 5.57757,0.7645 6.37473,3.48802c0.79714,2.72353 -0.76451,5.57757 -3.48801,6.37472z" fill="url(#color-23)" stroke="#000000" stroke-width="0"/><path d="M330.77569,286.92383c-2.72353,0.79714 -5.57757,-0.76451 -6.37472,-3.48801c-0.79714,-2.72353 0.76451,-5.57756 3.48801,-6.37472c2.72353,-0.79714 5.57757,0.7645 6.37472,3.48801c0.79714,2.72353 -0.7645,5.57757 -3.48801,6.37472z" fill="url(#color-24)" stroke="#000000" stroke-width="0"/><path d="M331.4628,290.28893c-2.72353,0.79714 -5.57757,-0.7645 -6.37472,-3.48801c-0.79714,-2.72353 0.76451,-5.57757 3.48802,-6.37472c2.72353,-0.79714 5.57756,0.76451 6.37471,3.48801c0.79714,2.72353 -0.7645,5.57757 -3.48801,6.37472z" fill="url(#color-25)" stroke="#000000" stroke-width="0"/><path d="M331.22245,293.08305c-2.72353,0.79714 -5.57757,-0.76451 -6.37472,-3.48801c-0.79714,-2.72353 0.76451,-5.57757 3.48801,-6.37472c2.72353,-0.79714 5.57756,0.76451 6.37472,3.48801c0.79714,2.72353 -0.7645,5.57757 -3.48801,6.37472z" fill="url(#color-26)" stroke="#000000" stroke-width="0"/><path d="M331.74477,296.21439c-2.72353,0.79714 -5.57757,-0.76451 -6.37472,-3.48802c-0.79714,-2.72353 0.76451,-5.57757 3.48801,-6.37472c2.72353,-0.79714 5.57757,0.76451 6.37472,3.48801c0.79714,2.72353 -0.76451,5.57757 -3.48802,6.37473z" fill="url(#color-27)" stroke="#000000" stroke-width="0"/><path d="M324.31529,276.25027c-2.60678,1.12147 -5.62912,-0.08258 -6.75061,-2.68935c-1.12147,-2.60678 0.08259,-5.62912 2.68936,-6.75061c2.60678,-1.12147 5.62912,0.08259 6.75061,2.68936c1.12147,2.60678 -0.08259,5.62911 -2.68936,6.7506z" fill="url(#color-28)" stroke="#000000" stroke-width="0"/><path d="M325.07693,279.97486c-2.60678,1.12147 -5.62912,-0.08259 -6.75061,-2.68936c-1.12147,-2.60678 0.0826,-5.62911 2.68937,-6.7506c2.60678,-1.12147 5.62911,0.08259 6.7506,2.68936c1.12147,2.60678 -0.08258,5.62911 -2.68935,6.7506z" fill="url(#color-29)" stroke="#000000" stroke-width="0"/><path d="M326.70497,282.783c-2.60678,1.12147 -5.62911,-0.0826 -6.7506,-2.68937c-1.12147,-2.60678 0.08259,-5.62911 2.68936,-6.7506c2.60678,-1.12147 5.62911,0.08258 6.7506,2.68935c1.12147,2.60678 -0.08259,5.62912 -2.68936,6.75061z" fill="url(#color-30)" stroke="#000000" stroke-width="0"/><path d="M327.42253,285.64136c-2.60678,1.12147 -5.62912,-0.08259 -6.75061,-2.68936c-1.12147,-2.60678 0.08259,-5.62911 2.68936,-6.7506c2.60678,-1.12147 5.62911,0.08259 6.7506,2.68936c1.12147,2.60678 -0.08259,5.62912 -2.68936,6.75061z" fill="url(#color-31)" stroke="#000000" stroke-width="0"/><path d="M327.90475,288.6487c-2.60678,1.12147 -5.62912,-0.08259 -6.75061,-2.68936c-1.12147,-2.60678 0.08259,-5.62911 2.68936,-6.7506c2.60678,-1.12147 5.62912,0.08258 6.75061,2.68935c1.12147,2.60678 -0.08259,5.62912 -2.68936,6.75061z" fill="url(#color-32)" stroke="#000000" stroke-width="0"/><path d="M332.50016,303.01817c-2.64982,1.01561 -5.62123,-0.30916 -6.63686,-2.95897c-1.01561,-2.64982 0.30916,-5.62123 2.95897,-6.63686c2.64982,-1.01561 5.62123,0.30916 6.63686,2.95897c1.01561,2.64982 -0.30916,5.62123 -2.95897,6.63686z" fill="url(#color-33)" stroke="#000000" stroke-width="0"/><path d="M320.16524,262.02255c-2.58079,1.18005 -5.62954,0.04454 -6.80962,-2.53623c-1.18005,-2.58079 -0.04454,-5.62954 2.53623,-6.80961c2.58079,-1.18005 5.62954,-0.04454 6.80962,2.53623c1.18005,2.58079 0.04454,5.62954 -2.53623,6.80961z" fill="url(#color-34)" stroke="#000000" stroke-width="0"/><path d="M321.07522,265.43388c-2.58079,1.18005 -5.62954,0.04454 -6.80961,-2.53623c-1.18005,-2.58079 -0.04454,-5.62954 2.53623,-6.80961c2.58079,-1.18005 5.62954,-0.04455 6.80961,2.53623c1.18005,2.58079 0.04454,5.62954 -2.53623,6.80962z" fill="url(#color-35)" stroke="#000000" stroke-width="0"/><path d="M322.23855,268.6654c-2.58079,1.18005 -5.62954,0.04454 -6.80962,-2.53624c-1.18005,-2.58079 -0.04454,-5.62953 2.53624,-6.80961c2.58079,-1.18005 5.62953,-0.04454 6.8096,2.53623c1.18005,2.58079 0.04455,5.62954 -2.53623,6.80961z" fill="url(#color-36)" stroke="#000000" stroke-width="0"/><path d="M322.40202,271.46508c-2.58079,1.18005 -5.62954,0.04454 -6.80961,-2.53623c-1.18005,-2.58079 -0.04454,-5.62954 2.53623,-6.80961c2.58079,-1.18005 5.62954,-0.04454 6.80961,2.53623c1.18005,2.58079 0.04454,5.62954 -2.53623,6.80961z" fill="url(#color-37)" stroke="#000000" stroke-width="0"/><path d="M323.4926,274.50009c-2.58079,1.18005 -5.62954,0.04454 -6.80961,-2.53623c-1.18005,-2.58079 -0.04454,-5.62954 2.53624,-6.80961c2.58079,-1.18005 5.62954,-0.04455 6.80961,2.53623c1.18005,2.58079 0.04454,5.62954 -2.53624,6.80962z" fill="url(#color-38)" stroke="#000000" stroke-width="0"/><path d="M316.59345,248.27289c-2.62956,1.06693 -5.62618,-0.19982 -6.69312,-2.82938c-1.06693,-2.62956 0.19982,-5.62617 2.82938,-6.69312c2.62956,-1.06693 5.62618,0.19982 6.69312,2.82938c1.06693,2.62956 -0.19982,5.62618 -2.82938,6.69312z" fill="url(#color-39)" stroke="#000000" stroke-width="0"/><path d="M317.60117,251.7536c-2.62956,1.06693 -5.62617,-0.19982 -6.69312,-2.82937c-1.06693,-2.62956 0.19982,-5.62618 2.82938,-6.69313c2.62956,-1.06693 5.62617,0.19982 6.69312,2.82938c1.06693,2.62956 -0.19982,5.62617 -2.82938,6.69312z" fill="url(#color-40)" stroke="#000000" stroke-width="0"/><path d="M318.62315,255.03257c-2.62956,1.06693 -5.62618,-0.19982 -6.69312,-2.82938c-1.06693,-2.62956 0.19983,-5.62617 2.82939,-6.69312c2.62956,-1.06693 5.62617,0.19982 6.69311,2.82938c1.06693,2.62956 -0.19982,5.62618 -2.82938,6.69312z" fill="url(#color-41)" stroke="#000000" stroke-width="0"/><path d="M318.86639,257.85488c-2.62956,1.06693 -5.62617,-0.19983 -6.69312,-2.82939c-1.06693,-2.62956 0.19983,-5.62617 2.82939,-6.69311c2.62956,-1.06693 5.62616,0.19982 6.69311,2.82938c1.06693,2.62956 -0.19982,5.62617 -2.82938,6.69312z" fill="url(#color-42)" stroke="#000000" stroke-width="0"/><path d="M318.74173,258.99883c-2.62956,1.06693 -5.62618,-0.19982 -6.69312,-2.82938c-1.06693,-2.62956 0.19982,-5.62617 2.82938,-6.69312c2.62956,-1.06693 5.62618,0.19982 6.69312,2.82938c1.06693,2.62956 -0.19982,5.62618 -2.82938,6.69312z" fill="url(#color-43)" stroke="#000000" stroke-width="0"/><path d="M312.77552,234.10865c-2.41771,0.98097 -5.17289,-0.18372 -6.15388,-2.60144c-0.98097,-2.41771 0.18372,-5.17288 2.60144,-6.15387c2.41771,-0.98097 5.17289,0.18372 6.15388,2.60143c0.98097,2.41771 -0.18372,5.17289 -2.60144,6.15388z" fill="url(#color-44)" stroke="#000000" stroke-width="0"/><path d="M313.70204,237.30893c-2.41771,0.98097 -5.17288,-0.18372 -6.15387,-2.60144c-0.98097,-2.41771 0.18372,-5.17288 2.60143,-6.15387c2.41771,-0.98097 5.17288,0.18372 6.15387,2.60143c0.98097,2.41771 -0.18371,5.17288 -2.60143,6.15387z" fill="url(#color-45)" stroke="#000000" stroke-width="0"/><path d="M314.64169,240.32371c-2.41771,0.98097 -5.17288,-0.18372 -6.15387,-2.60144c-0.98097,-2.41771 0.18372,-5.17288 2.60144,-6.15387c2.41771,-0.98097 5.17288,0.18372 6.15387,2.60143c0.98097,2.41771 -0.18372,5.17288 -2.60144,6.15387z" fill="url(#color-46)" stroke="#000000" stroke-width="0"/><path d="M314.68012,242.90191c-2.41771,0.98097 -5.17287,-0.18372 -6.15387,-2.60144c-0.98097,-2.41771 0.18372,-5.17288 2.60143,-6.15387c2.41771,-0.98097 5.17288,0.18372 6.15387,2.60144c0.98097,2.41771 -0.18373,5.17288 -2.60144,6.15387z" fill="url(#color-47)" stroke="#000000" stroke-width="0"/><path d="M315.4474,245.71809c-2.41771,0.98097 -5.17288,-0.18372 -6.15387,-2.60143c-0.98097,-2.41771 0.18372,-5.17289 2.60143,-6.15388c2.41771,-0.98097 5.17289,0.18372 6.15388,2.60143c0.98097,2.41771 -0.18373,5.17289 -2.60144,6.15388z" fill="url(#color-48)" stroke="#000000" stroke-width="0"/><path d="M309.75406,219.15004c-2.62956,1.06693 -5.62618,-0.19982 -6.69313,-2.82938c-1.06693,-2.62956 0.19982,-5.62617 2.82938,-6.69311c2.62956,-1.06693 5.62618,0.19981 6.69312,2.82937c1.06693,2.62956 -0.19982,5.62618 -2.82938,6.69312z" fill="url(#color-49)" stroke="#000000" stroke-width="0"/><path d="M310.76177,222.63076c-2.62956,1.06693 -5.62617,-0.19982 -6.69312,-2.82938c-1.06693,-2.62956 0.19982,-5.62618 2.82938,-6.69313c2.62956,-1.06693 5.62617,0.19983 6.69311,2.82939c1.06693,2.62956 -0.19982,5.62617 -2.82938,6.69312z" fill="url(#color-50)" stroke="#000000" stroke-width="0"/><path d="M311.78375,225.90973c-2.62956,1.06693 -5.62617,-0.19982 -6.69312,-2.82938c-1.06693,-2.62956 0.19983,-5.62617 2.82939,-6.69312c2.62956,-1.06693 5.62617,0.19982 6.69311,2.82938c1.06693,2.62956 -0.19982,5.62617 -2.82938,6.69312z" fill="url(#color-51)" stroke="#000000" stroke-width="0"/><path d="M311.82555,228.71384c-2.62956,1.06693 -5.62617,-0.19983 -6.69311,-2.82939c-1.06693,-2.62956 0.19982,-5.62617 2.82938,-6.69311c2.62956,-1.06693 5.62617,0.19982 6.69312,2.82938c1.06693,2.62956 -0.19983,5.62618 -2.82939,6.69312z" fill="url(#color-52)" stroke="#000000" stroke-width="0"/><path d="M312.66007,231.7768c-2.62956,1.06693 -5.62618,-0.19982 -6.69312,-2.82938c-1.06693,-2.62956 0.19983,-5.62618 2.82939,-6.69312c2.62956,-1.06693 5.62617,0.19982 6.69312,2.82938c1.06693,2.62956 -0.19982,5.62618 -2.82938,6.69313z" fill="url(#color-53)" stroke="#000000" stroke-width="0"/><path d="M332.8903,305.85894c-2.64982,1.01561 -5.62123,-0.30916 -6.63686,-2.95897c-1.01561,-2.64982 0.30916,-5.62123 2.95897,-6.63686c2.64982,-1.01561 5.62123,0.30916 6.63686,2.95897c1.01561,2.64982 -0.30916,5.62123 -2.95897,6.63686z" fill="url(#color-54)" stroke="#000000" stroke-width="0"/><path d="M309.91601,216.62833c-2.64982,1.01561 -5.62123,-0.30916 -6.63686,-2.95896c-1.01561,-2.64982 0.30916,-5.62123 2.95897,-6.63686c2.64982,-1.01561 5.62123,0.30916 6.63686,2.95896c1.01561,2.64982 -0.30916,5.62123 -2.95897,6.63686z" fill="url(#color-55)" stroke="#000000" stroke-width="0"/><path d="M310.29825,213.75117c-2.64982,1.01561 -5.62123,-0.30916 -6.63686,-2.95897c-1.01561,-2.64982 0.30917,-5.62122 2.95897,-6.63685c2.64982,-1.01561 5.62122,0.30916 6.63685,2.95896c1.01561,2.64982 -0.30916,5.62123 -2.95896,6.63686z" fill="url(#color-56)" stroke="#000000" stroke-width="0"/><path d="M312.71451,211.83795c-2.64982,1.01561 -5.62123,-0.30916 -6.63686,-2.95897c-1.01561,-2.64982 0.30916,-5.62123 2.95897,-6.63686c2.64982,-1.01561 5.62123,0.30917 6.63686,2.95897c1.01561,2.64982 -0.30916,5.62123 -2.95897,6.63686z" fill="url(#color-57)" stroke="#000000" stroke-width="0"/><path d="M316.31471,212.85756c-2.64982,1.01561 -5.62123,-0.30917 -6.63686,-2.95897c-1.01561,-2.64982 0.30916,-5.62122 2.95897,-6.63685c2.64982,-1.01561 5.62123,0.30916 6.63686,2.95897c1.01561,2.64982 -0.30916,5.62123 -2.95897,6.63686z" fill="url(#color-58)" stroke="#000000" stroke-width="0"/><path d="M318.82771,214.51684c-2.64982,1.01561 -5.62123,-0.30917 -6.63686,-2.95897c-1.01561,-2.64982 0.30916,-5.62122 2.95896,-6.63685c2.64982,-1.01561 5.62123,0.30916 6.63686,2.95897c1.01561,2.64982 -0.30916,5.62123 -2.95897,6.63686z" fill="url(#color-59)" stroke="#000000" stroke-width="0"/><path d="M327.94791,291.97494c-2.07628,0.79579 -4.40456,-0.24225 -5.20037,-2.31853c-0.79579,-2.07628 0.24225,-4.40456 2.31853,-5.20037c2.07628,-0.79579 4.40456,0.24226 5.20038,2.31853c0.79579,2.07628 -0.24226,4.40456 -2.31853,5.20037z" fill="url(#color-60)" stroke="#000000" stroke-width="0"/><path d="M328.89469,296.13007c-2.07628,0.79579 -4.40456,-0.24225 -5.20037,-2.31853c-0.79579,-2.07628 0.24225,-4.40456 2.31853,-5.20038c2.07628,-0.79579 4.40456,0.24225 5.20037,2.31853c0.79579,2.07628 -0.24225,4.40456 -2.31853,5.20037z" fill="url(#color-61)" stroke="#000000" stroke-width="0"/><path d="M330.56512,300.54868c-2.01446,0.77209 -4.2734,-0.23503 -5.04551,-2.24949c-0.77209,-2.01446 0.23503,-4.2734 2.24949,-5.0455c2.01446,-0.77209 4.2734,0.23503 5.04551,2.24949c0.77209,2.01446 -0.23503,4.2734 -2.24948,5.0455z" fill="url(#color-62)" stroke="#000000" stroke-width="0"/><path d="M333.64861,307.58755c-2.10866,0.8082 -4.47324,-0.24603 -5.28147,-2.35469c-0.8082,-2.10866 0.24603,-4.47324 2.35468,-5.28147c2.10866,-0.8082 4.47324,0.24603 5.28147,2.35468c0.8082,2.10866 -0.24603,4.47325 -2.35468,5.28148z" fill="url(#color-63)" stroke="#000000" stroke-width="0"/><path d="M333.97544,309.71793c-1.55491,0.59596 -3.29852,-0.18141 -3.89449,-1.7363c-0.59596,-1.55491 0.18141,-3.29851 1.73631,-3.89448c1.55491,-0.59596 3.29851,0.18141 3.89448,1.73631c0.59596,1.55491 -0.18141,3.29851 -1.7363,3.89448z" fill="url(#color-64)" stroke="#000000" stroke-width="0"/><path d="M326.00996,255.54716c1.05939,8.02652 5.11718,44.15337 5.11718,44.15337c0,0 -8.83281,-27.11282 -13.33255,-42.584c-4.49974,-15.47118 -10.27846,-46.83652 -10.27846,-46.83652c0,0 2.329,-2.7999 4.23111,-3.06989c1.9021,-0.26999 5.52492,1.68509 5.52492,1.68509c0,0 7.6784,38.62543 8.7378,46.65195z" fill="none" stroke="#0028ff" stroke-width="1.75"/></g><g stroke="#000000"><g><path d="M227.66266,146.54682l-0.00375,-6.21937l-6.27841,-5.07862c0,0 5.33431,-2.01355 5.31412,-2.55784c-0.05903,-1.59085 -1.4192,-5.62207 -1.4192,-5.62207l-5.60948,-12.29018c0,0 11.93432,10.41812 21.69654,9.68077c9.76221,-0.73735 18.72417,-12.73374 18.72417,-12.73374l-3.07715,15.14941l-1.24917,5.73621l3.98877,1.84951c0,0 -4.39662,3.54009 -4.34681,4.88265c0.07786,2.09865 0.90878,6.1404 0.90878,6.1404c0,0 -10.10795,1.88827 -15.21887,2.0779c-4.29643,0.1594 -13.42951,-1.01502 -13.42951,-1.01502z" fill="#160f3d" stroke-width="1.5" stroke-linecap="butt"/><path d="M247.59034,130.43275c0,0 2.12601,3.88184 1.81157,5.06095c-0.2297,0.86134 -3.55688,0.20003 -3.55688,0.20003c0,0 1.82132,4.04868 1.64355,4.25223c-2.08169,2.3838 -6.82952,3.27377 -6.82952,3.27377c0,0 -3.01249,-1.0637 -5.15006,-3.89164c-0.44743,-0.59193 0.97539,-3.78064 0.97539,-3.78064c0,0 -2.97432,0.46627 -3.2438,-0.50975c-0.30413,-1.10156 0.74202,-4.82646 0.74202,-4.82646l-4.23076,1.15752c0,0 -1.43657,-3.25498 -2.94754,-3.57244c-3.43256,-0.7212 -7.77076,-0.34021 -7.64976,-0.99133c0.23071,-1.24133 1.67822,-3.88436 3.84701,-5.0457c2.68288,-1.43664 7.68018,-1.17356 7.68018,-1.17356c0,0 4.72658,-4.42097 10.40204,-4.66589c5.67544,-0.24492 9.50407,4.09403 9.50407,4.09403c0,0 4.61397,-1.80618 7.22812,-0.57539c2.61416,1.23078 3.66291,4.23943 4.66726,5.32341c0.2981,0.32174 -4.76601,1.2439 -8.83944,2.52856c-1.51225,0.47694 -0.88364,4.84796 -0.88364,4.84796z" fill="#2a2355" stroke-width="1.5" stroke-linecap="butt"/><path d="M246.03068,122.26424c0.81931,-0.4595 4.26545,-1.59137 4.26545,-1.59137c0,0 2.08792,1.85438 0.10996,2.96371c-0.90564,0.50792 -2.58909,0.81314 -4.15517,0.80731c-1.8543,-0.00692 -3.54147,-0.38041 -3.54147,-0.38041c0,0 2.29762,-1.2251 3.32124,-1.79921z" data-paper-data="{&quot;index&quot;:null}" fill="#c11515" stroke-width="1.25" stroke-linecap="butt"/><path d="M237.00716,134.83962l-0.09611,-2.5906" fill="none" stroke-width="1.5" stroke-linecap="round"/><path d="M245.41963,134.53132l-0.09131,-2.46108" fill="none" stroke-width="1.5" stroke-linecap="round"/><path d="M243.0667,136.82071l-0.12014,-3.23826" fill="none" stroke-width="1.5" stroke-linecap="round"/><path d="M239.60384,136.94914l-0.12014,-3.23825" fill="none" stroke-width="1.5" stroke-linecap="round"/><path d="M229.78193,119.87724c0.10662,-0.06427 0.62521,-1.28222 1.38058,-1.64867c0.75537,-0.36648 2.07582,-0.52599 2.4536,-0.2115c0.83028,0.6912 1.70063,1.96764 2.16395,1.95045c2.54316,-0.09435 5.12427,2.17701 5.21862,4.72016c0.09435,2.54317 -2.1818,4.99473 -4.72497,5.08908c-0.72215,0.0268 -2.93314,-0.75702 -4.06098,-1.95488c-0.87718,-0.93165 -1.26712,-1.55468 -1.33034,-2.75888c-0.06323,-1.20421 0.52246,-2.20334 1.20289,-3.04003c0,0 -2.76236,-1.86909 -2.30335,-2.14572z" fill="#100d25" stroke-width="1.25" stroke-linecap="butt"/><path d="M233.40231,125.04868c-0.05424,-1.46219 1.14639,-2.69373 2.6817,-2.7507c1.53532,-0.05697 2.82391,1.08223 2.87815,2.54442c0.05424,1.46219 -1.14639,2.69372 -2.6817,2.75069c-1.53532,0.05697 -2.82391,-1.08222 -2.87815,-2.54441z" fill="#c11515" stroke-width="1" stroke-linecap="butt"/><path d="M246.14627,126.80117c0.6638,-0.37227 3.45578,-1.2893 3.45578,-1.2893c0,0 1.69158,1.50237 0.08908,2.40113c-0.73372,0.41151 -2.0976,0.65879 -3.36642,0.65405c-1.50232,-0.00561 -2.86922,-0.30821 -2.86922,-0.30821c0,0 1.86147,-0.99254 2.69079,-1.45768z" data-paper-data="{&quot;index&quot;:null}" fill="#c11515" stroke-width="1.25" stroke-linecap="butt"/><path d="M232.62881,125.01532c-0.07292,-1.96549 1.46131,-3.61795 3.42678,-3.69086c1.96549,-0.07292 3.61795,1.46133 3.69087,3.42679c0.07292,1.96549 -1.46132,3.61794 -3.4268,3.69085c-1.96549,0.07292 -3.61794,-1.46131 -3.69086,-3.42679z" fill="url(#color-65)" stroke-width="0" stroke-linecap="butt"/></g><path d="M225.92068,124.39259c0,0 -0.23131,-5.08808 2.38554,-9.02065c0.77769,-1.1687 -0.91082,-7.4567 -0.91082,-7.4567c0,0 5.78482,4.60412 7.13913,4.12257c2.0715,-0.73656 3.6986,-3.08589 6.51948,-3.11189c2.82088,-0.026 4.04995,2.06219 6.72794,2.98979c1.43501,0.49706 5.30329,-4.47309 5.30329,-4.47309c0,0 -0.69694,6.78218 -0.40772,7.41286c1.18508,2.58421 1.99796,8.38025 1.99796,8.38025c0,0 -5.22758,-4.34091 -6.8845,-5.13003c-1.65692,-0.78912 -2.67754,-1.12304 -4.04254,-0.27828c-1.365,0.84475 -2.3611,3.09852 -2.3611,3.09852c0,0 -1.19121,-2.27171 -3.26671,-2.9735c-1.55523,-0.52587 -2.5228,-0.49692 -3.90862,0.01201c-0.46359,0.17025 -1.77509,-0.35055 -2.69384,0.16909c-0.91875,0.51964 -1.03701,1.79822 -1.7054,2.31906c-2.33977,1.82326 -3.89209,3.93999 -3.89209,3.93999z" fill="#100d25" stroke-width="1.5" stroke-linecap="butt"/><path d="M253.97607,146.93308c-0.68788,0.08534 -2.80564,-0.87081 -2.80564,-0.87081c0,0 -1.23712,-2.98977 -1.1723,-4.29106c0.05976,-1.1998 1.5473,-3.23695 1.5473,-3.23695c0,0 1.64185,-1.4627 2.60734,-1.52145c0.84278,-0.05127 1.96293,0.03072 2.99266,1.18835c1.02973,1.15763 1.28589,2.42157 1.2268,3.5552c-0.0797,1.52912 -0.97358,2.75276 -1.7268,3.63972c-0.75322,0.88696 -1.87967,1.43904 -2.66936,1.53701z" data-paper-data="{&quot;index&quot;:null}" fill="#100d25" stroke-width="1.5" stroke-linecap="butt"/><path d="M225.18875,145.74594c-0.75322,-0.85348 -1.6471,-2.03094 -1.7268,-3.50236c-0.05909,-1.09085 0.19707,-2.30709 1.2268,-3.42103c1.02973,-1.11394 2.14988,-1.19284 2.99266,-1.1435c0.96549,0.05652 2.60734,1.46403 2.60734,1.46403c0,0 1.48754,1.96028 1.5473,3.1148c0.06482,1.25218 -1.1723,4.12912 -1.1723,4.12912c0,0 -2.11776,0.92007 -2.80564,0.83795c-0.78968,-0.09427 -1.91614,-0.62552 -2.66936,-1.479z" fill="#100d25" stroke-width="1.5" stroke-linecap="butt"/></g><path d="" fill="#160f3d" stroke="#000000" stroke-width="1.5" stroke-linecap="butt"/><g data-paper-data="{&quot;index&quot;:null}" stroke="#000000" stroke-width="1.5" stroke-linecap="butt"><g><path d="M174.83811,120.30494c0,0 -13.67593,-2.86103 -27.34743,0.72926c-13.6715,3.5903 -32.94466,14.95588 -32.94466,14.95588c0,0 18.85468,-20.27586 29.67776,-25.64386c10.82308,-5.368 25.97996,-4.3252 30.50713,-4.58755c0.59018,-0.0342 1.75055,4.1711 1.98621,7.56753c0.18383,2.64963 -1.87902,6.97875 -1.87902,6.97875z" data-paper-data="{&quot;index&quot;:null}" fill="#160f3d"/><path d="M175.30614,115.61026c0,0 -4.79635,-0.12457 -10.43591,-0.26153c-4.06933,-0.09883 -8.94311,-0.10319 -12.10094,0.61593c-7.5342,1.71572 -18.58447,5.7585 -18.58447,5.7585c0,0 5.54285,-4.97269 12.02532,-7.93388c6.83376,-3.12167 16.01565,-3.83747 17.69604,-4.0892c2.83872,-0.42527 11.52144,0.78431 11.52144,0.78431z" data-paper-data="{&quot;index&quot;:null}" fill="#2a2355"/></g><g><path d="M178.59946,118.92c0,0 -13.89588,1.45642 -25.81549,9.05399c-11.9196,7.59758 -26.79596,24.31059 -26.79596,24.31059c0,0 11.75419,-25.06888 20.4183,-33.48836c8.66412,-8.41948 23.41425,-12.05979 27.64453,-13.69347c0.55148,-0.21297 2.94179,3.43633 4.2044,6.59815c0.98498,2.4666 0.34421,7.21908 0.34421,7.21908z" data-paper-data="{&quot;index&quot;:null}" fill="#160f3d"/><path d="M177.60999,114.30698c0,0 -4.60485,1.34756 -10.01633,2.94106c-3.90475,1.14982 -8.54658,2.6355 -11.33344,4.28548c-6.64909,3.93667 -15.93463,11.16381 -15.93463,11.16381c0,0 3.75747,-6.42901 9.02446,-11.23004c5.55242,-5.06121 14.076,-8.54949 15.599,-9.30284c2.57284,-1.27266 11.20969,-2.77513 11.20969,-2.77513z" data-paper-data="{&quot;index&quot;:null}" fill="#2a2355"/></g><g data-paper-data="{&quot;index&quot;:null}"><path d="M178.7484,117.97892c0,0 -11.99711,7.16143 -19.62004,19.06483c-7.62293,11.90341 -14.098,33.32078 -14.098,33.32078c0,0 0.13037,-27.68741 4.45385,-38.96845c4.32348,-11.28105 16.17794,-20.78316 19.32995,-24.04338c0.41091,-0.42501 4.11354,1.88183 6.58802,4.22025c1.9304,1.82427 3.34622,6.40596 3.34622,6.40596z" data-paper-data="{&quot;index&quot;:null}" fill="#160f3d"/><path d="M175.91189,114.20888c0,0 -3.61213,3.15801 -7.85284,6.87819c-3.05996,2.68436 -6.64761,5.98325 -8.48299,8.65165c-4.37899,6.3665 -9.76744,16.82676 -9.76744,16.82676c0,0 0.70769,-7.41282 3.4693,-13.9828c2.91127,-6.92602 9.17961,-13.67341 10.24499,-14.99706c1.79976,-2.23608 9.00544,-7.22914 9.00544,-7.22914z" data-paper-data="{&quot;index&quot;:null}" fill="#2a2355"/></g><g><path d="M174.904,111.33541c0,0 3.85641,-0.57573 4.33597,3.36453c1.27156,10.4475 15.11667,30.96922 15.11667,30.96922c0,0 0.83549,3.61094 -1.21319,5.17939c-0.55059,0.42153 -3.23583,-0.4827 -3.68748,-0.23955c-0.60666,0.32659 -11.03936,-16.1964 -13.49883,-31.93785c-0.34314,-2.19618 -1.05316,-7.33575 -1.05316,-7.33575z" fill="#100d25"/><path d="M185.07792,150.7411c-0.4999,0.16664 -8.71293,-18.18777 -10.46729,-23.25999c-1.62406,-4.69548 -3.60245,-14.75763 -3.60245,-14.75763l4.24316,-1.33665c0,0 1.46744,10.52152 3.40967,15.32108c1.90016,4.69561 12.08616,23.7262 12.08616,23.7262c0,0 -1.36937,0.4089 -2.66608,0.65502c-1.0609,0.20136 -2.62748,-0.47327 -3.00317,-0.34803z" data-paper-data="{&quot;index&quot;:null}" fill="#160f3d"/></g><g><path d="M192.43875,151.45638c0,0 3.72761,-3.52398 5.79729,-0.34004c5.48774,8.44218 24.9055,18.87633 24.9055,18.87633c0,0 2.22516,2.67913 1.19151,5.29659c-0.27781,0.70346 -2.88866,1.52515 -3.1601,2.01175c-0.36459,0.65356 -15.18941,-8.68734 -23.90876,-21.07965c-1.2165,-1.72892 -4.82545,-4.76496 -4.82545,-4.76496z" fill="#100d25"/><path d="M219.0655,180.88757c-0.32591,0.42475 -15.25562,-9.80232 -19.83724,-13.83967c-0.25309,-0.22302 -10.48485,-10.63882 -10.48485,-10.63882l4.00523,-5.11673c0,0 5.76861,8.16724 9.41606,11.22689c3.56847,2.9934 20.00495,13.84926 20.00495,13.84926c0,0 -0.96225,1.18588 -1.93332,2.1845c-0.79448,0.81701 -0.91237,1.99771 -1.17083,2.33457z" data-paper-data="{&quot;index&quot;:null}" fill="#160f3d"/></g><g><path d="M203.35656,143.34749l-3.26831,6.84426c0,0 -1.64873,-0.67789 -2.08001,-1.02872c-0.43127,-0.35082 -1.53387,-1.11224 -1.72666,-1.51166c-0.1928,-0.39944 -0.3647,-2.28295 -0.3647,-2.28295z" fill="#160f3d"/><path d="M188.00601,145.11775l7.20998,-1.92856l6.23355,9.69576l-5.32989,5.62601l-7.15497,2.40071l-6.23354,-9.69573z" fill="#2a2355"/></g><path d="M174.93903,120.37268c-4.44063,0.02461 -8.06042,-3.55529 -8.08503,-7.99591c-0.02462,-4.44063 3.5553,-8.06041 7.99592,-8.08503c4.44063,-0.02461 8.06042,3.55529 8.08503,7.99592c0.02462,4.44063 -3.5553,8.06041 -7.99592,8.08503z" fill="#100d25"/><path d="M171.73485,115.21059c-1.53592,-1.98157 -1.17464,-4.83305 0.80693,-6.36896c1.98157,-1.53592 4.83305,-1.17464 6.36896,0.80693c1.53592,1.98157 1.17464,4.83305 -0.80693,6.36896c-1.98157,1.53592 -4.83305,1.17464 -6.36896,-0.80693z" fill="#2a2355"/><path d="M191.73508,154.11343c-1.38214,-0.412 -2.39542,-2.09325 -1.98343,-3.4754c0.41199,-1.38214 1.86641,-2.16857 3.24855,-1.75658c1.38213,0.41199 2.16859,1.8664 1.7566,3.24854c-0.41199,1.38214 -1.63958,2.39543 -3.02172,1.98343z" fill="#160f3d"/><g><path d="M215.23758,173.17295l5.73989,-4.43176l9.26924,1.39187l-4.96141,5.88259l1.42354,6.78768l-9.41426,-1.78591z" fill="#2a2355"/><path d="M227.66816,177.35161c-0.92093,2.07024 -3.34576,3.00191 -5.41597,2.081c-2.07023,-0.92092 -3.00191,-3.34574 -2.081,-5.41595c0.92093,-2.07021 3.34575,-3.00191 5.41596,-2.081c2.07023,0.92093 3.00192,3.34576 2.08101,5.41597z" fill="#160f3d"/><path d="M226.3668,183.59993c0,0 -3.05335,-5.04173 -2.47082,-8.18316c0.58254,-3.14141 5.06284,-6.47518 5.06284,-6.47518l6.19019,0.92104l0.21739,14.76376z" fill="#160f3d"/></g></g><g stroke="#000000" stroke-width="1.5" stroke-linecap="butt"><path d="M303.49635,120.30492c0,0 -2.06286,-4.3291 -1.87901,-6.97874c0.23565,-3.39643 1.39602,-7.60173 1.98621,-7.56753c4.52719,0.26236 19.68405,-0.78044 30.50713,4.58756c10.82308,5.368 29.67776,25.64386 29.67776,25.64386c0,0 -19.27316,-11.36558 -32.94466,-14.95588c-13.6715,-3.59029 -27.34743,-0.72926 -27.34743,-0.72926z" data-paper-data="{&quot;index&quot;:null}" fill="#160f3d"/><path d="M302.90687,110.48438c0,0 8.68272,-1.20958 11.52144,-0.78431c1.68039,0.25174 10.86228,0.96753 17.69604,4.0892c6.48247,2.96119 12.02532,7.93388 12.02532,7.93388c0,0 -11.05027,-4.04278 -18.58447,-5.7585c-3.15783,-0.71911 -8.03162,-0.71475 -12.10094,-0.61592c-5.63956,0.13697 -10.4359,0.26153 -10.4359,0.26153z" data-paper-data="{&quot;index&quot;:null}" fill="#2a2355"/></g><g stroke="#000000" stroke-width="1.5" stroke-linecap="butt"><path d="M299.73501,118.91998c0,0 -0.64078,-4.75247 0.34421,-7.21907c1.26261,-3.16182 3.65292,-6.81113 4.20439,-6.59816c4.23029,1.63367 18.98042,5.27398 27.64453,13.69347c8.66411,8.41948 20.4183,33.48835 20.4183,33.48835c0,0 -14.87636,-16.71301 -26.79596,-24.31059c-11.9196,-7.59757 -25.81548,-9.05399 -25.81548,-9.05399z" data-paper-data="{&quot;index&quot;:null}" fill="#160f3d"/><path d="M302.17571,109.38932c0,0 8.63685,1.50247 11.20969,2.77513c1.523,0.75335 10.04658,4.24163 15.599,9.30283c5.26699,4.80103 9.02446,11.23004 9.02446,11.23004c0,0 -9.28553,-7.22714 -15.93463,-11.16381c-2.78686,-1.64999 -7.42868,-3.13566 -11.33344,-4.28548c-5.41148,-1.5935 -10.01633,-2.94106 -10.01633,-2.94106z" data-paper-data="{&quot;index&quot;:null}" fill="#2a2355"/></g><g data-paper-data="{&quot;index&quot;:null}" stroke="#000000" stroke-width="1.5" stroke-linecap="butt"><path d="M299.58608,117.97891c0,0 1.41582,-4.5817 3.34622,-6.40596c2.47448,-2.33843 6.17711,-4.64527 6.58802,-4.22025c3.15201,3.26022 15.00647,12.76233 19.32995,24.04338c4.32348,11.28105 4.45385,38.96845 4.45385,38.96845c0,0 -6.47506,-21.41738 -14.098,-33.32078c-7.62294,-11.9034 -19.62004,-19.06483 -19.62004,-19.06483z" data-paper-data="{&quot;index&quot;:null}" fill="#160f3d"/><path d="M305.80613,110.35648c0,0 7.20568,4.99306 9.00544,7.22914c1.06538,1.32365 7.33372,8.07104 10.24498,14.99706c2.76161,6.56997 3.4693,13.9828 3.4693,13.9828c0,0 -5.38845,-10.46027 -9.76744,-16.82677c-1.83538,-2.6684 -5.42302,-5.96729 -8.48299,-8.65165c-4.24071,-3.72018 -7.85284,-6.87819 -7.85284,-6.87819z" data-paper-data="{&quot;index&quot;:null}" fill="#2a2355"/></g><g stroke="#000000" stroke-width="1.5" stroke-linecap="butt"><path d="M303.43048,111.33541c0,0 -0.71002,5.13956 -1.05315,7.33575c-2.45946,15.74145 -12.89216,32.26443 -13.49883,31.93785c-0.45166,-0.24315 -3.1369,0.66108 -3.68748,0.23955c-2.04869,-1.56846 -1.21319,-5.17939 -1.21319,-5.17939c0,0 13.84512,-20.52173 15.11667,-30.96922c0.47955,-3.94025 4.33597,-3.36453 4.33597,-3.36453z" fill="#100d25"/><path d="M293.25656,150.7411c-0.37569,-0.12523 -1.94228,0.54939 -3.00317,0.34803c-1.29672,-0.24612 -2.66607,-0.65502 -2.66607,-0.65502c0,0 10.186,-19.03058 12.08615,-23.7262c1.94223,-4.79956 3.40967,-15.32108 3.40967,-15.32108l4.24315,1.33665c0,0 -1.97839,10.06216 -3.60245,14.75763c-1.75436,5.07222 -9.96739,23.42664 -10.46729,23.25999z" data-paper-data="{&quot;index&quot;:null}" fill="#160f3d"/></g><g stroke="#000000" stroke-width="1.5" stroke-linecap="butt"><path d="M285.89573,151.45638c0,0 -3.60895,3.03604 -4.82545,4.76496c-8.71934,12.39231 -23.54416,21.73321 -23.90875,21.07965c-0.27144,-0.48658 -2.88229,-1.30828 -3.1601,-2.01175c-1.03366,-2.61746 1.19151,-5.29659 1.19151,-5.29659c0,0 19.41777,-10.43414 24.9055,-18.87633c2.06969,-3.18394 5.79729,0.34004 5.79729,0.34004z" fill="#100d25"/><path d="M259.26896,180.88757c-0.25845,-0.33686 -0.37635,-1.51756 -1.17083,-2.33457c-0.97107,-0.99862 -1.93332,-2.1845 -1.93332,-2.1845c0,0 16.43648,-10.85586 20.00495,-13.84926c3.64745,-3.05965 9.41606,-11.22689 9.41606,-11.22689l4.00523,5.11673c0,0 -10.23175,10.4158 -10.48485,10.63882c-4.58163,4.03735 -19.51132,14.26442 -19.83724,13.83967z" data-paper-data="{&quot;index&quot;:null}" fill="#160f3d"/></g><g stroke="#000000" stroke-width="1.5" stroke-linecap="butt"><path d="M282.41757,145.36842c0,0 -0.1719,1.88352 -0.3647,2.28295c-0.19278,0.39943 -1.29538,1.16084 -1.72666,1.51166c-0.43127,0.35082 -2.08001,1.02872 -2.08001,1.02872l-3.26831,-6.84426z" fill="#160f3d"/><path d="M295.60333,151.21595l-6.23354,9.69573l-7.15497,-2.40071l-5.32989,-5.62601l6.23354,-9.69576l7.20998,1.92856z" fill="#2a2355"/></g><path d="M295.3995,112.28766c0.0246,-4.44063 3.6444,-8.02053 8.08503,-7.99591c4.44063,0.02461 8.02054,3.6444 7.99592,8.08503c-0.0246,4.44063 -3.6444,8.02053 -8.08502,7.99592c-4.44063,-0.02461 -8.02054,-3.6444 -7.99592,-8.08503z" fill="#100d25" stroke="#000000" stroke-width="1.5" stroke-linecap="butt"/><path d="M300.23066,116.01752c-1.98157,-1.53592 -2.34284,-4.38739 -0.80693,-6.36896c1.53592,-1.98157 4.38739,-2.34284 6.36896,-0.80693c1.98157,1.53592 2.34284,4.38739 0.80693,6.36896c-1.53592,1.98157 -4.38739,2.34284 -6.36896,0.80693z" fill="#2a2355" stroke="#000000" stroke-width="1.5" stroke-linecap="butt"/><path d="M283.57767,152.12998c-0.41199,-1.38214 0.37447,-2.83655 1.7566,-3.24854c1.38214,-0.41199 2.83656,0.37444 3.24855,1.75658c0.41199,1.38214 -0.60128,3.06338 -1.98342,3.4754c-1.38214,0.412 -2.60973,-0.60129 -3.02172,-1.98343z" fill="#160f3d" stroke="#000000" stroke-width="1.5" stroke-linecap="butt"/><g stroke="#000000" stroke-width="1.5" stroke-linecap="butt"><path d="M261.03987,181.01741l-9.41426,1.78591l1.42354,-6.78768l-4.96141,-5.88259l9.26924,-1.39187l5.73989,4.43176z" fill="#2a2355"/><path d="M250.66631,177.35162c-0.92092,-2.07021 0.01078,-4.49504 2.08101,-5.41597c2.07022,-0.92092 4.49504,0.01078 5.41595,2.081c0.92092,2.07021 -0.01077,4.49504 -2.08099,5.41595c-2.07022,0.92092 -4.49504,-0.01076 -5.41597,-2.081z" fill="#160f3d"/><path d="M242.96809,184.62641l0.21738,-14.76376l6.19018,-0.92104c0,0 4.4803,3.33376 5.06284,6.47518c0.58253,3.14142 -2.47082,8.18316 -2.47082,8.18316z" fill="#160f3d"/></g><g stroke="#000000"><path d="M285.39983,233.97014c0,0 -1.06201,-1.96309 -1.03309,-2.40641c0.02891,-0.44332 0.71873,-1.68729 1.03234,-2.14807c0.31361,-0.46078 2.37804,-1.30128 2.37804,-1.30128l6.73486,5.80453z" fill="#2a2355" stroke-width="1.5" stroke-linecap="butt"/><g><path d="M250.26548,193.59624c0.45147,-1.59201 4.58431,-0.21031 6.5035,2.92744c1.38801,2.2693 0.45583,4.65606 0.55365,4.5036c2.45972,-3.83288 5.16683,0.21085 7.45791,0.25615c0.68819,0.01362 11.96658,14.22251 11.96658,14.22251l7.50112,14.62073c0,0 -1.05831,3.39032 -4.28957,3.39032c-1.04397,0 -4.45182,-0.05834 -9.12909,-3.39725c-7.73149,-5.51916 -22.01786,-19.75038 -22.01786,-19.75038c0,0 -3.73494,-5.03944 -3.46449,-8.60144c0.27093,-3.56845 4.54758,-6.86461 4.91825,-8.17169z" fill="#100d25" stroke-width="1.5" stroke-linecap="butt"/><path d="M267.08022,221.24105c0,0 -5.51342,-3.97409 -7.78928,-6.21766c-1.99924,-1.97085 -7.24427,-7.80289 -7.24427,-7.80289c0,0 0.04687,-5.9057 2.13163,-8.50346c2.08476,-2.59775 5.61414,-2.26842 6.47357,-1.78296c1.77788,1.00426 14.52069,18.42004 18.95537,22.08929c6.76188,5.59479 2.62718,6.53653 2.62718,6.53653l-3.04622,3.76008z" fill="#160f3d" stroke-width="1.5" stroke-linecap="butt"/><path d="M268.33355,240.30621c0,0 -4.85782,-2.14177 -4.75513,-5.15541c0.08553,-2.50959 8.60222,-7.95247 11.4622,-9.41086c3.45337,-1.76103 13.10001,1.69308 12.4708,2.83942c-0.62921,1.14633 -3.38087,5.29806 -5.87357,6.88025c-2.62251,1.6646 -13.30428,4.8466 -13.30428,4.8466z" fill="#160f3d" stroke-width="1.5" stroke-linecap="butt"/><path d="M262.36211,245.22884c0,0 0.55346,-3.0608 2.55718,-5.83443c0.57493,-0.79586 2.30535,-3.40599 5.14838,-5.60935c3.53983,-2.74339 8.25855,-5.07791 8.25855,-5.07791l4.95064,4.43266c0,0 -4.02248,4.57011 -5.48652,6.73311c-1.44506,2.13496 1.07588,8.6804 1.07588,8.6804c0,0 -6.89577,1.25687 -9.92579,0.64651c-2.20383,-0.44392 -6.57832,-3.971 -6.57832,-3.971z" fill="#100d25" stroke-width="1.5" stroke-linecap="butt"/><path d="M264.13878,259.77101c-1.7668,-2.60844 -2.71428,-9.5051 -3.18826,-11.55159c-0.34306,-1.48124 1.24064,-6.06525 2.89654,-7.07535c0.2904,-0.17714 3.18084,-1.27327 5.82719,-1.44379c3.91142,-0.25202 8.64436,1.72986 9.01994,2.07814c0.21389,0.19835 0.27129,1.14021 -0.09111,1.71133c-0.36241,0.57112 -0.67046,1.0322 -1.63624,1.01078c-0.49727,-0.01102 -2.74928,-0.71627 -5.04223,-0.91457c-1.21486,-0.10506 -2.8042,-0.50826 -4.22699,0.03004c-1.10734,0.41896 -2.26045,1.70162 -2.10929,2.24244c0.34543,1.23572 3.16535,2.76646 4.00071,5.51415c0.86923,2.85911 -0.46025,6.57202 -0.14455,6.57202c1.69606,0 9.43996,0 13.6455,0c1.62338,0 1.68657,0.83444 1.68657,1.16091c0,0.14692 -0.65374,1.64838 -1.72845,3.10521c-1.06289,1.44081 -2.53753,2.83798 -4.19874,2.83798c-2.54021,0 -4.46687,0.21416 -7.50438,-0.74757c-3.03751,-0.96173 -5.43938,-1.92169 -7.2062,-4.53013z" fill="#160f3d" stroke-width="1.5" stroke-linecap="butt"/><path d="M267.65394,249.41489c1.94755,-1.67647 3.91217,-3.19281 6.61483,-3.19281c2.60433,0 3.58129,1.25935 5.42593,3.06877c1.84463,1.80944 2.16917,5.59954 2.16917,5.59954c0,0 -7.25306,1.19982 -8.42092,1.19982c-3.16372,0 -7.43,-1.19982 -7.43,-1.19982c0,0 -0.30657,-3.79904 1.64099,-5.47551z" fill="#2a2355" stroke-width="1.5" stroke-linecap="butt"/><path d="M275.656,229.51482c0,-3.25072 2.63524,-5.88592 5.88594,-5.88592c3.25072,0 5.88594,2.6352 5.88594,5.88594c0,3.25072 -2.6352,5.88594 -5.88593,5.88594c-3.25072,0 -5.88594,-2.63523 -5.88594,-5.88594z" fill="#160f3d" stroke-width="1.5" stroke-linecap="butt"/><path d="M271.26309,253.95684c1.847,-1.5899 3.59255,-2.67509 6.15567,-2.67509c2.46987,0 4.21973,0.9591 5.96912,2.67509c1.74938,1.71599 0.85533,5.81295 0.85533,5.81295c0,0 -4.80511,0.51773 -7.49003,0.51773c-3.00037,0 -7.04636,-1.13787 -7.04636,-1.13787c0,0 -0.29074,-3.60289 1.55628,-5.19281z" fill="#2a2355" stroke-width="1.5" stroke-linecap="butt"/><path d="M277.03227,265.12408c0,0 -0.33471,-3.56982 -0.01305,-4.2069c0.32165,-0.63709 2.12391,-2.04181 2.87735,-2.52558c0.75344,-0.48378 4.33371,-0.42733 4.33371,-0.42733l4.66202,8.22563c0,0 -6.0461,-0.2409 -8.23577,-0.43768c-1.45257,-0.13054 -3.62425,-0.62815 -3.62425,-0.62815z" fill="#100d25" stroke-width="1.5" stroke-linecap="butt"/><g data-paper-data="{&quot;index&quot;:null}"><path d="M273.3884,221.8448c0,0 -12.15751,-10.60539 -14.96002,-14.16378c-1.11223,-1.41224 0.67287,-7.17653 0.67287,-7.17653l7.34762,-0.50695c0,0 11.60149,10.41052 13.9878,13.94898c1.03239,1.53083 0.08402,6.91697 0.08402,6.91697z" fill="#2a2355" stroke-width="1.5" stroke-linecap="butt"/><path d="M262.04039,207.82837l3.8195,-5.08871" fill="none" stroke-width="1.25" stroke-linecap="round"/><path d="M269.15224,206.41973l-3.39339,4.4899" fill="none" stroke-width="1.25" stroke-linecap="round"/><path d="M274.11253,218.61119l3.53673,-4.17586" fill="none" stroke-width="1.25" stroke-linecap="round"/><path d="M270.25072,215.21585l3.36406,-4.6313" fill="none" stroke-width="1.25" stroke-linecap="round"/></g></g></g><path d="M227.9017,204.019c0.75992,-1.59107 2.38579,-2.56475 2.20432,-3.85211c-0.24581,-1.7438 0.59372,-3.78436 0.93258,-4.44732c0.24575,-0.48081 1.13017,-0.735 1.5949,-1.3144c0.57764,-0.72015 0.33487,-2.11479 0.20395,-2.27904c-0.23935,-0.30032 9.51403,-0.96124 13.66266,0.62978c1.72381,0.66108 0.2279,4.46348 0.2279,4.46348c0,0 -0.36972,-0.08859 -0.34087,3.0036c0.00685,0.73443 1.45645,2.55849 1.48742,3.42665c0.00513,0.1436 1.07381,3.36178 0.28155,5.05367c-0.79227,1.6919 -1.84818,2.82572 -4.57737,4.12009c-2.72919,1.29437 -5.38332,2.13212 -8.80596,0.85846c-4.17315,-1.55294 -6.67826,-5.73592 -6.67826,-5.73592c0,0 -0.94561,-2.35081 -0.19283,-3.92696z" fill="#100d25" stroke="#000000" stroke-width="1.5" stroke-linecap="butt"/><path d="M231.29629,206.88552c-0.27712,-1.96792 -1.4583,-9.2125 -0.57956,-10.61654c2.08332,-3.32868 1.78407,-5.04096 1.78407,-5.04096l11.75465,-0.7678c0,0 2.4181,2.37 2.70531,5.53381c0.34827,3.83627 -0.53346,8.83966 -0.78675,12.20012c-0.16335,2.16714 -14.12563,4.03238 -14.87773,-1.30862z" fill="#160f3d" stroke="#000000" stroke-width="1.5" stroke-linecap="butt"/><path d="M232.11539,195.71956c0.23654,-0.48081 1.08781,-0.735 1.53512,-1.3144c0.55599,-0.72015 0.32232,-2.11479 0.19631,-2.27904c-0.32612,-0.4251 -1.65836,-1.56465 -3.56081,-2.22875c-2.07873,-0.72564 -4.94964,-0.7679 -6.00282,-0.69539c-2.76481,0.19037 -5.35669,1.12627 -5.28141,0.812c0.03402,-0.14205 -5.76032,2.51809 -5.44506,1.65431c0.58444,-1.60132 7.60342,-7.16664 9.01189,-7.71242c1.23827,-0.47983 4.88344,-0.64654 6.43772,-0.65556c4.48623,-0.02601 8.22795,5.42476 8.39277,5.44344c0.67112,0.07603 3.48761,-2.44127 6.79237,-3.75748c2.08773,-0.8315 4.37033,-0.6402 6.43001,-0.73423c2.829,-0.12916 8.39046,5.26453 9.09671,5.81575c0.62402,0.48704 -5.05701,1.40785 -6.47984,2.42231c-2.87999,2.0534 -6.0216,4.72928 -6.0216,4.72928c0,0 -15.42749,-0.83686 -15.10133,-1.49982z" fill="#100d25" stroke="#000000" stroke-width="1.5" stroke-linecap="butt"/><path d="M228.43647,185.20167c0,0 -0.14756,-1.44925 -0.318,-3.80264c-0.03145,-0.43433 -2.63645,-2.14121 -2.63645,-2.14121c0,0 2.48466,-1.18216 2.45724,-1.62911c-0.09164,-1.49371 -0.17754,-1.12222 -0.23864,-2.71726c-0.01964,-0.51271 -3.13553,-1.81269 -3.13553,-1.81269c0,0 3.05754,-1.52582 3.05095,-2.17353c-0.00407,-0.40071 0.17523,-2.40503 0.17523,-2.72274c0,-0.71067 -7.81401,-0.47728 -9.02984,-4.0478c-1.21583,-3.57052 -2.30846,-11.69438 1.5443,-18.07991c3.85276,-6.38552 9.83251,1.6919 9.83251,1.6919l20.66344,-1.10444c0,0 7.93688,-4.46308 9.74659,-0.81897c1.80971,3.64411 3.05717,12.8546 -0.10471,20.14145c-3.16188,7.28686 -10.71375,2.3116 -10.71375,3.11792c0,1.03784 -0.00199,1.49011 -0.00524,2.72576c-0.00149,0.56598 2.17238,1.81415 2.17238,1.81415c0,0 -2.182,2.09044 -2.18447,2.72239c-0.00217,0.55581 -0.0628,1.10521 -0.00678,1.63393c0.08129,0.76732 2.23959,2.19353 2.23959,2.19353c0,0 -2.25768,1.5159 -2.26122,2.15765c-0.00963,1.74035 -0.01693,2.85166 -0.01693,2.85166z" fill="#100d25" stroke="#000000" stroke-width="1.5" stroke-linecap="butt"/><path d="M239.59372,152.33005c3.76187,-0.15024 21.26315,-1.06408 21.26315,-1.06408c0,0 1.49604,1.56806 1.80401,3.26337c0.115,0.63308 -22.3659,0.45107 -22.3659,1.18318c0,0.2616 0.39936,1.7551 0.39538,2.07805c-0.00808,0.65532 20.71814,-1.49115 21.94932,-0.53436c0.26708,0.20757 3.55564,1.75034 3.55564,1.75034c0,0 -2.85714,1.58286 -4.03504,1.7855c-2.27707,0.39172 -21.46627,0.20749 -21.5772,0.84867c-0.10721,0.61965 -0.17039,0.73915 0.90185,1.46602c1.14411,0.77558 17.57032,-0.38513 19.28693,0.60324c1.03021,0.59316 3.43867,2.23878 3.43867,2.23878c0,0 -3.80076,0.45595 -3.80898,0.6755c-0.02383,0.6363 -18.8178,-1.07788 -18.83397,-0.36584c-0.00999,0.43928 -1.7985,1.89399 0.13466,2.10711c2.62302,0.28915 10.62156,0.52571 10.62156,0.52571l4.44733,2.08459l-4.75949,1.22219c0,0 -10.13779,-1.13832 -10.31619,-0.6234c-0.11794,0.34039 -1.86762,2.21447 0.23976,2.87448c3.12786,0.97961 10.10195,1.05571 10.10195,1.05571l4.02916,1.47232c0,0 -2.96612,1.31145 -4.12173,1.62757c-2.44817,0.66969 -9.41919,-0.74131 -9.47634,-0.22377c-0.11454,1.03711 -1.33396,2.15004 -0.50097,3.00423c1.02427,1.05032 13.99147,0.37331 13.99147,0.37331l-4.95656,4.38679l-24.43636,-1.13074l-4.60279,-4.2573l14.83636,0.22066c0,0 1.02413,-1.68272 0.99024,-2.85864c-0.01395,-0.48377 -8.26771,-0.15036 -11.09001,-0.80392c-1.06291,-0.24614 -4.30868,-0.94948 -4.30868,-0.94948l4.04746,-1.77149c0,0 6.77686,0.90165 10.42349,-0.18864c2.22356,-0.66482 1.31275,-2.0781 1.23363,-2.69271c-0.08955,-0.69572 -12.04762,-0.00991 -12.04762,-0.00991l-3.44504,-1.48539l3.10372,-2.00013l12.462,0.55503c0,0 0.05166,-1.98887 0.0484,-2.62453c-0.00306,-0.59586 -20.10367,-0.25011 -20.10367,-0.25011l-3.24235,-1.99866l3.18007,-1.10458c0,0 20.86541,0.56832 20.74013,0.17452c-0.03299,-0.10368 0.38761,-1.91668 -0.92539,-2.00364c-3.80932,-0.25228 -20.50016,-0.20381 -20.50407,-0.466c-0.00179,-0.11934 -3.46306,-1.8083 -3.46306,-1.8083c0,0 3.23863,-1.49891 4.08269,-1.77602c2.63358,-0.86463 19.65886,1.22916 19.62976,0.88944c-0.01125,-0.13131 1.11982,-2.04095 -0.51334,-2.20058c-1.93271,-0.18891 -18.16477,-0.51532 -19.58417,-1.1657c-1.46608,-0.67176 -0.01354,-3.05819 -0.01354,-3.05819c0,0 17.51486,1.13265 22.0937,0.94979z" data-paper-data="{&quot;index&quot;:null}" fill="#160f3d" stroke="#000000" stroke-width="1.5" stroke-linecap="butt"/><path d="M246.20479,203.26862c0,0 -2.74167,-3.10066 -1.05546,-5.77189c0.40687,-0.64453 4.19659,-4.93181 9.49579,-7.23013c0.98297,-0.42631 6.20722,3.8694 4.7146,4.15179c-3.96938,0.75095 -4.87764,0.54568 -7.11991,2.30312c-2.60267,2.03991 -6.03501,6.5471 -6.03501,6.5471z" fill="#160f3d" stroke="#000000" stroke-width="1.5" stroke-linecap="butt"/><path d="M257.59915,145.05749l2.92619,11.60119l-5.7153,9.40006c0,0 0.33787,-4.45971 -1.97095,-5.04229c-8.22656,-2.07579 -21.21248,-2.55429 -26.79531,-2.54252c-1.30364,0.00275 -2.05232,5.18242 -2.05232,5.18242l-4.49703,-9.78576c0,0 5.34805,-9.2601 4.95664,-9.54681c-0.13369,-0.09794 6.04577,-1.47926 6.04577,-1.47926l3.52671,3.35389c0,0 4.48137,-2.72679 7.05598,-2.65213c1.1136,0.0323 5.53892,2.8268 5.53892,2.8268l4.74395,-3.17055z" fill="#160f3d" stroke="#000000" stroke-width="1.5" stroke-linecap="butt"/><path d="M252.26523,157.39971c0,0 -2.12972,5.0712 -4.13886,6.67452c-2.11286,1.68611 -8.24286,3.20626 -8.24286,3.20626c0,0 -5.64731,-0.83075 -8.84033,-3.63776c-3.65386,-3.21218 -4.96874,-8.48397 -5.93048,-9.0016c-0.64591,-0.34765 15.81798,-7.18097 15.81798,-7.18097z" fill="#2a2355" stroke="#000000" stroke-width="1.5" stroke-linecap="butt"/><path d="M250.32205,164.50044c0,0 -1.81128,4.49278 -3.52003,5.91323c-1.79695,1.49378 -7.01038,2.84055 -7.01038,2.84055c0,0 -4.80292,-0.73598 -7.51853,-3.22284c-3.10753,-2.8458 -4.22581,-7.51629 -5.04375,-7.97488c-0.54934,-0.308 13.45288,-6.36191 13.45288,-6.36191z" fill="#2a2355" stroke="#000000" stroke-width="1.5" stroke-linecap="butt"/><path d="M248.49349,171.33526c0,0 -1.54539,3.98991 -3.00329,5.25136c-1.53316,1.32658 -5.98127,2.5226 -5.98127,2.5226c0,0 -4.09786,-0.65361 -6.41481,-2.86211c-2.65135,-2.52727 -3.60547,-6.67499 -4.30334,-7.08225c-0.46869,-0.27353 11.47801,-5.64982 11.47801,-5.64982z" fill="#2a2355" stroke="#000000" stroke-width="1.5" stroke-linecap="butt"/><path d="M247.34541,179.0802c0,0 -1.43915,3.71561 -2.79682,4.89034c-1.42775,1.23538 -5.57007,2.34919 -5.57007,2.34919c0,0 -3.81614,-0.60868 -5.97381,-2.66535c-2.46907,-2.35352 -3.35761,-6.2161 -4.00749,-6.59537c-0.43647,-0.25472 10.68892,-5.26141 10.68892,-5.26141z" fill="#2a2355" stroke="#000000" stroke-width="1.5" stroke-linecap="butt"/><path d="M246.42325,186.51824c0,0 -1.27978,3.30416 -2.48712,4.34881c-1.26966,1.09858 -4.95327,2.08905 -4.95327,2.08905c0,0 -3.39356,-0.54127 -5.3123,-2.3702c-2.19567,-2.09291 -2.9858,-5.52777 -3.56372,-5.86503c-0.38814,-0.22652 9.5053,-4.67879 9.5053,-4.67879z" fill="#2a2355" stroke="#000000" stroke-width="1.5" stroke-linecap="butt"/><path d="M245.62766,195.04167c0,0 -1.0958,2.87208 -2.13865,3.78363c-1.09667,0.95862 -4.28801,1.83399 -4.28801,1.83399c0,0 -2.94641,-0.45473 -4.61899,-2.03301c-1.91397,-1.80607 -2.61447,-4.78247 -3.11732,-5.07255c-0.33772,-0.19481 8.22573,-4.10059 8.22573,-4.10059z" fill="#2a2355" stroke="#000000" stroke-width="1.5" stroke-linecap="butt"/><path d="M230.26478,156.22833l10.43433,-4.7635l6.805,5.89767" fill="none" stroke="#000000" stroke-width="1" stroke-linecap="round"/><path d="M231.62578,164.35654l8.76046,-4.49887l5.75688,4.7635" fill="none" stroke="#000000" stroke-width="1" stroke-linecap="round"/><path d="M244.91921,202.43872c0,0 -1.1059,2.60716 -2.09679,3.41116c-1.04205,0.8455 -4.00973,1.54358 -4.00973,1.54358c0,0 -2.69726,-0.51821 -4.18379,-2.02776c-1.70109,-1.72744 -2.24542,-4.49134 -2.69857,-4.77538c-0.30434,-0.19077 7.7116,-3.49729 7.7116,-3.49729z" fill="#2a2355" stroke="#000000" stroke-width="1.5" stroke-linecap="butt"/><path d="M233.89411,170.74567l6.1245,-2.94883l4.7635,4.30983" fill="none" stroke="#000000" stroke-width="1" stroke-linecap="round"/><g data-paper-data="{&quot;index&quot;:null}" stroke="#000000" stroke-width="1.5" stroke-linecap="butt"><g><path d="M158.13386,219.73979l3.21529,-4.29345l-3.29863,-2.30031l2.76999,-2.40421l-5.08572,-5.16193c0,0 9.53704,1.03941 12.52339,0.75983c0.62286,-0.05831 2.01899,-6.27823 3.26563,-7.25447c1.75029,-1.37066 3.42724,2.53532 4.1943,4.02655c0.4702,0.91413 -4.15216,8.10033 -4.15216,8.10033l1.63005,4.1154l-5.08543,0.90194l2.54669,4.27016l-5.09695,1.55064c0,0 5.54232,3.68891 4.746,3.44116c-0.63485,-0.19751 -5.42221,1.66287 -5.42221,1.66287z" fill="#160f3d"/><path d="M165.32233,214.82786l-1.23019,-7.79412l-5.30952,-1.36276c0,0 2.64891,-1.89888 2.77533,-3.14728c0.12169,-1.2016 -2.04706,-4.38543 -2.04706,-4.38543l5.32181,0.61529l-1.35213,-4.36128c0,0 4.63365,1.49603 5.23258,1.14757c2.97583,-1.73141 8.96587,-1.0502 8.96587,-1.0502l2.0878,2.88235c0,0 -5.72598,1.31224 -8.15028,4.24198c-2.39003,2.8883 -6.29419,13.2139 -6.29419,13.2139z" fill="#100d25"/></g><g><path d="M171.90842,225.76883c0,0 7.89587,-2.50279 11.49891,-5.72611c7.05269,-6.30939 8.43625,-15.01858 10.08653,-14.79445c1.40843,0.19128 1.86218,15.10688 1.86218,15.10688c0,0 -2.55838,-2.40382 -2.88718,-2.16388c-0.59094,0.43121 -1.18081,3.49504 -2.62186,5.49193c-1.59805,2.21444 -4.4332,4.07387 -4.4332,4.07387c0,0 -4.19207,1.96236 -6.12556,1.65182c-2.179,-0.34997 -7.3798,-3.64004 -7.3798,-3.64004z" fill="#160f3d"/><path d="M181.64553,203.97711c0.02729,-0.33358 8.50356,-4.22014 8.50356,-4.22014l6.28759,5.33824c0,0 1.38579,4.85838 -0.89035,8.11935c-1.35618,1.94296 -4.12301,1.48772 -5.60241,2.59954c-1.90239,1.42972 -3.86004,7.54304 -7.09818,9.06368c-3.74468,1.75852 -9.0247,-2.88233 -9.0247,-2.88233l4.23551,-0.75892l2.68409,-1.12987c0,0 0.11608,-1.54289 -0.33685,-2.26463c-0.41749,-0.66526 -2.28307,-1.91022 -2.28307,-1.91022c0,0 2.24052,0.01936 3.31665,-0.25204c0.97333,-0.24549 2.86271,-1.30648 2.86271,-1.30648c0,0 -2.84153,-8.11085 -2.65458,-10.39615z" fill="#100d25"/></g><g><path d="M179.68144,199.84383l3.64817,1.13242l-2.58022,7.2881c0,0 -1.25496,0.17272 -1.85919,-0.01485c-0.61173,-0.18989 -1.15821,-1.10112 -1.15821,-1.10112z" fill="#100d25"/><g><g><path d="M174.97259,197.6986l-3.67564,-14.0357l3.71299,-1.3294l3.03268,13.40908z" fill="#160f3d"/><path d="M167.03442,184.07479c0.17052,-1.25565 0.69637,-5.12763 0.96278,-7.08931c0.09589,-0.70609 2.53924,-0.84132 2.53924,-0.84132l13.1117,1.78067l-1.34789,9.92505c0,0 -10.94996,-1.48708 -13.46092,-1.8281c-0.97554,-0.13248 -1.90923,-1.17866 -1.80489,-1.947z" fill="#160f3d"/><path d="M179.92779,179.34402c0,0 -8.2188,-9.83788 -6.54022,-16.5929c1.67858,-6.75504 14.84112,-10.8556 14.84112,-10.8556l2.20737,3.66835c0,0 -11.66873,2.55482 -13.30521,8.40196c-1.6365,5.84713 5.31667,13.03583 5.31667,13.03583z" fill="#160f3d"/><path d="M170.60549,180.87986c0.18157,-1.33694 1.41255,-2.27355 2.74949,-2.09199c1.33694,0.18157 2.27356,1.41254 2.09199,2.7495c-0.18157,1.33694 -1.41255,2.27356 -2.7495,2.09199c-1.33694,-0.18157 -2.27355,-1.41255 -2.09199,-2.7495z" fill="#2a2355"/></g><path d="M206.66183,181.27917c0,0 -0.70449,-1.96338 -0.61529,-2.36889c0.08919,-0.40551 0.90187,-1.45756 1.25655,-1.83908c0.35468,-0.38151 2.38048,-0.86705 2.38048,-0.86705l5.40418,6.31206z" fill="#2a2355"/><path d="M178.48716,203.58821l0.57533,-4.2363l17.31127,-7.91854c0,0 3.21652,1.61526 3.7944,1.69373c1.28648,0.17473 -2.40583,13.07883 -2.40583,13.07883z" fill="#160f3d"/><path d="M173.70986,199.19017c0.40512,-2.98304 3.15178,-5.07288 6.13481,-4.66775c2.98304,0.40512 5.07288,3.15178 4.66775,6.13482c-0.40512,2.98304 -3.15178,5.07287 -6.13481,4.66774c-2.98304,-0.40512 -5.07287,-3.15178 -4.66774,-6.13481z" fill="#160f3d"/><path d="M179.32669,188.99404c1.77994,-3.33041 11.94399,-23.80422 11.94399,-23.80422c0,0 14.60821,7.69134 16.21077,7.75271c0.6116,0.02341 -12.62523,25.31911 -12.62523,25.31911c0,0 -5.71776,0.99801 -8.78301,-0.7015c-4.53846,-2.51629 -6.99078,-8.10903 -6.74651,-8.5661z" fill="#160f3d"/><path d="M187.38803,187.16685l6.33574,-19.90751l10.2898,4.15787l-12.45523,17.20752l-3.44171,1.7989z" fill="#2a2355"/><path d="M180.45989,185.98736l-2.76889,-1.88865c0,0 -0.66966,-0.58856 -0.20661,-1.5194c1.72013,-3.45787 5.87571,-11.8971 6.67318,-13.5002c0.2609,-0.52449 1.28401,-0.64232 1.28401,-0.64232l2.91853,1.66928z" fill="#100d25"/><path d="M175.65701,192.19078l3.26428,-5.15842l7.36777,8.31675l10.81135,0.3139l-1.9192,6.37315l-11.48581,-1.19399z" fill="#100d25"/><path d="M186.882,207.25108c0.18794,-1.38392 1.4622,-2.35345 2.84612,-2.16551c1.38392,0.18794 2.35345,1.46221 2.16551,2.84613c-0.18794,1.38392 -1.4622,2.35345 -2.84612,2.16551c-1.38392,-0.18794 -2.35347,-1.46221 -2.16551,-2.84613z" fill="#2a2355"/><path d="M200.81353,192.19553c0,0 -0.7045,-1.96338 -0.61529,-2.36889c0.08919,-0.40551 0.90186,-1.45756 1.25655,-1.83908c0.35468,-0.38151 2.38049,-0.86707 2.38049,-0.86707l5.40419,6.31207z" fill="#2a2355"/><path d="M203.75355,186.43132c0,0 -0.70449,-1.96338 -0.61529,-2.36888c0.08919,-0.40551 0.90186,-1.45756 1.25655,-1.83908c0.35468,-0.38151 2.38049,-0.86707 2.38049,-0.86707l5.40418,6.31207z" fill="#2a2355"/><path d="M200.55663,195.08683c0,0 -1.79329,-0.30382 -2.73769,-0.3379c-0.85547,-0.03087 -2.68213,-0.09442 -2.68213,-0.09442c0,0 8.80592,-17.62285 9.91206,-19.84644c0.36189,-0.72748 5.42159,0.26603 5.42159,0.26603z" fill="#100d25"/><path d="M176.52556,199.50045c0.19063,-1.40381 1.48317,-2.38723 2.88697,-2.19659c1.40381,0.19063 2.38724,1.48317 2.1966,2.88697c-0.19063,1.40381 -1.48317,2.38722 -2.88697,2.19659c-1.40381,-0.19063 -2.38723,-1.48317 -2.19659,-2.88697z" fill="#2a2355"/></g></g><g><g><g><path d="M200.5287,170.97134l-6.799,-8.54061l4.15466,-11.59537l7.42045,8.71287l9.87175,0.02019l-4.49173,12.10401z" data-paper-data="{&quot;index&quot;:null}" fill="#160f3d"/><path d="M193.49113,160.60449l7.06972,7.50671l11.23849,0.34697l-1.1563,7.09021c0,0 -11.54751,-0.65636 -13.16797,-0.83729c-0.48641,-0.05431 -7.72637,-8.46942 -7.72637,-8.46942z" fill="#2a2355"/></g><path d="M197.86696,169.88432l7.45575,-13.78911c0,0 2.06415,0.47288 2.41212,0.66102c0.60227,0.32564 -8.08526,15.42158 -8.08526,15.42158z" fill="#100d25"/></g><path d="M194.90412,171.91545c0.22506,-1.65724 1.75099,-2.81825 3.40822,-2.59319c1.65724,0.22506 2.81826,1.75098 2.5932,3.40822c-0.22506,1.65724 -1.75099,2.81827 -3.40822,2.59321c-1.65724,-0.22506 -2.81826,-1.75098 -2.5932,-3.40821z" fill="#160f3d"/></g><g><path d="M186.50293,147.45828c0,0 0.25818,-1.26456 1.92719,-2.99847c4.46876,-4.64245 13.18967,-13.4455 15.33929,-15.6196c0.95747,-0.9684 3.93381,-1.00054 3.93381,-1.00054l6.83994,7.72334l-20.09714,19.89172z" fill="#2a2355"/><path d="M203.59889,124.54992c0.48982,-0.50259 1.79219,-1.44827 1.79219,-1.44827c0,0 1.19469,-0.4429 1.80456,0.12358c1.91016,1.77431 10.98044,11.65138 10.98044,11.65138l-2.65288,2.72203c0,0 -9.97551,-9.72214 -11.72626,-11.4284c-0.50524,-0.49239 -0.51963,-1.29037 -0.19805,-1.62031z" fill="#100d25"/><path d="M182.98483,147.16565c0.33813,-0.34695 0.90657,-1.01485 1.13117,-1.2453c0.37155,-0.38124 1.40711,-0.60126 1.86979,-0.15033c1.69196,1.64899 11.819,11.5188 11.819,11.5188l-2.65288,2.72203c0,0 -9.32118,-9.08441 -11.28856,-11.00182c-0.69636,-0.67866 -1.26769,-1.44406 -0.87851,-1.84337z" fill="#100d25"/><path d="M192.23303,144.66776c2.85309,-3.01041 9.66548,-9.7647 11.233,-11.41863c0.64975,-0.68557 2.04533,-0.64396 2.5323,-0.18245c0.69407,0.6578 2.525,2.39305 2.525,2.39305c0,0 0.42133,1.22959 -0.82286,2.76782c-2.92768,3.61952 -9.31135,9.73087 -10.68248,11.17762c-0.59975,0.63284 -2.1486,0.46137 -2.1486,0.46137c0,0 -2.10821,-2.06512 -2.80388,-2.72445c-0.46023,-0.43619 -0.64168,-1.62049 0.16755,-2.47433z" fill="#0028ff"/><path d="M235.96309,140.75716c0,0 -5.37112,1.77728 -7.05071,3.37365c-0.85662,0.8142 -0.27784,3.70376 -1.49384,5.61256c-1.5464,2.42747 -4.32979,1.39892 -6.63397,3.61848c-1.02206,0.98456 -1.77338,5.30836 -2.58189,6.2466c-0.78205,0.90754 -3.52366,5.26212 -3.52366,5.26212l-0.61333,-5.79334c0,0 -8.97946,2.72134 -10.2831,2.22643c-1.46107,-0.55468 -3.28797,-5.66372 -3.28797,-5.66372l-7.31141,-0.26936c0,0 5.01741,-4.58597 4.82235,-4.95046c-0.87042,-1.62652 -4.05388,-4.61521 -4.05388,-4.61521l7.29191,-3.26144l-1.9098,-6.94549c0,0 6.74905,2.32866 7.44768,1.97695c0.94931,-0.4779 3.13442,-6.80442 3.13442,-6.80442c0,0 3.34944,5.04612 5.20019,5.15068c1.42582,0.08057 4.3007,-5.1828 4.3007,-5.1828c0,0 2.76347,7.0351 4.0297,7.86619c1.62007,1.06331 7.10344,-4.65518 7.10344,-4.65518l0.46412,4.86597z" fill="#100d25"/><path d="M212.42306,146.90333l1.84054,-12.84578c0,0 3.25955,-1.38263 3.0878,0.03207c-0.35492,2.92336 -1.79367,13.1943 -1.79367,13.1943z" fill="#100d25"/><path d="M210.36371,147.43634c0.23922,-1.76159 1.86123,-2.9957 3.6228,-2.75647c1.76159,0.23922 2.9957,1.86123 2.75646,3.62281c-0.23922,1.76159 -1.86122,2.99569 -3.62281,2.75646c-1.76159,-0.23922 -2.9957,-1.86122 -2.75647,-3.62281z" fill="#160f3d"/><path d="M203.99883,154.54621c0.22506,-1.65724 1.75098,-2.81826 3.40823,-2.5932c1.65724,0.22506 2.81826,1.75099 2.5932,3.40823c-0.22506,1.65724 -1.75098,2.81824 -3.40822,2.59319c-1.65724,-0.22506 -2.81827,-1.75098 -2.59321,-3.40822z" fill="#160f3d"/></g></g><g stroke="#000000"><g><path d="M223.40409,192.22654c2.63901,0.21432 5.42064,2.12743 6.58929,2.05096c1.57605,-0.1031 2.57528,2.84547 2.29276,5.85467c-0.21233,2.26158 -1.65385,4.58089 -1.31631,5.53429c0.23627,0.66743 -8.5321,16.34635 -8.5321,16.34635c0,0 -1.32365,7.47036 -3.7249,9.5259c-2.14449,1.83574 -8.84959,2.22271 -8.84959,2.22271c0,0 -6.14458,-7.05351 -4.81631,-12.69013c2.19563,-9.31725 9.97871,-26.15943 9.97871,-26.15943c0,0 5.08274,-2.953 8.37847,-2.68534z" fill="#100d25" stroke-width="1.5" stroke-linecap="butt"/><path d="M211.60452,213.46089c0,0 1.84814,-6.16732 3.1886,-8.9142c0.52483,-1.07548 1.59076,-4.26446 4.54449,-5.4154c3.67342,-1.43137 9.45771,-0.5943 11.29142,1.04508c2.03953,1.8234 0.44511,6.31341 0.41308,6.49718c-0.33045,1.89629 -7.55419,15.35479 -9.49344,20.47306c-2.95692,7.80419 -8.69929,1.06354 -8.69929,1.06354c0,0 -0.99936,-0.72464 -1.60647,-0.99818c-0.80979,-0.36486 -2.82183,-0.99693 -2.82183,-0.99693z" fill="#160f3d" stroke-width="1.5" stroke-linecap="butt"/><path d="M221.25404,229.01805c0,0 -1.40953,5.36725 -1.97309,5.26229c-6.03936,-1.12479 -12.45932,-0.12507 -13.26155,-0.17845c-0.539,-0.03587 -3.21566,6.77865 -4.6412,6.73354c-0.98183,-0.03106 -1.90795,-1.99103 -2.17884,-3.82654c-0.32488,-2.20132 0.19185,-4.42529 1.33079,-5.63704c7.12378,-7.57905 9.79939,-4.76633 12.10218,-4.22007c4.24643,1.0073 8.62169,1.86627 8.62169,1.86627z" data-paper-data="{&quot;index&quot;:null}" fill="#160f3d" stroke-width="1.5" stroke-linecap="butt"/><path d="M196.52994,248.07814c0,0 0.38344,-3.62361 3.41222,-8.5485c1.2849,-2.08932 2.47825,-4.85448 4.30252,-6.52737c2.25024,-2.06353 4.85244,-3.28505 5.5443,-3.39623c3.53798,-0.56857 5.00307,2.41431 5.42855,2.77304c1.20252,1.01388 0.16231,3.95958 0.16231,3.95958c0,0 -1.89977,2.14959 -3.77149,2.69303c-1.35221,0.3926 -2.34596,1.54433 -2.5744,1.97009c-0.62551,1.16582 1.88759,5.38119 3.30175,8.55136c1.26346,2.83234 1.41524,4.71314 1.41524,4.71314c0,0 -7.67426,-1.48035 -10.73903,-1.72967c-2.2291,-0.18134 -6.48195,-4.45849 -6.48195,-4.45849z" fill="#100d25" stroke-width="1.5" stroke-linecap="butt"/><path d="M195.20508,248.23597c-0.2734,-1.58715 0.98871,-6.49892 2.30837,-7.58124c0.23143,-0.18981 2.53493,-1.60599 4.6439,-1.78869c1.12834,-0.09775 2.04305,-0.40855 3.06788,-0.43926c1.80635,-0.05413 3.45498,0.49443 3.64594,0.73254c0.17045,0.21253 2.11423,1.70511 1.82542,2.31706c-0.28881,0.61195 -1.95783,0.86432 -2.72751,0.84137c-0.2195,-0.00653 -2.1142,-0.12208 -3.95369,0.08978c-1.48163,0.17064 -2.92746,0.63857 -3.4333,0.8959c-0.88248,0.44891 -1.80145,1.82328 -1.68097,2.40277c0.27528,1.32409 2.52259,2.96428 3.18832,5.90842c0.69272,3.06354 4.44345,4.86678 4.69504,4.86678c1.35165,0 2.71283,2.17512 6.06438,2.17512c1.29373,0 1.3441,0.8941 1.3441,1.24393c0,0.31312 0,3.02934 0,3.02934c0,0 -1.56113,2.44682 -4.22361,2.44682c-1.10667,0 -5.00881,0.07046 -7.81857,-1.57107c-1.06484,-0.6221 -3.93569,-2.80258 -4.82636,-4.74065c-0.89067,-1.93806 -1.74163,-8.63612 -2.11935,-10.82893z" fill="#160f3d" stroke-width="1.5" stroke-linecap="butt"/><path d="M201.59858,248.37675c1.6239,-1.49762 3.27602,-2.8708 5.7156,-3.1188c2.35083,-0.23897 3.33338,0.66214 5.14317,1.91638c1.80978,1.25424 2.40583,4.20621 2.40583,4.20621c0,0 -6.45109,1.60945 -7.50525,1.71661c-2.85576,0.2903 -6.80271,-0.26215 -6.80271,-0.26215c0,0 -0.58054,-2.96064 1.04335,-4.45826z" fill="#2a2355" stroke-width="1.5" stroke-linecap="butt"/><path d="M209.09022,232.04268c0,-3.06073 2.48122,-5.54193 5.54195,-5.54193c3.06073,0 5.54196,2.48119 5.54196,5.54196c0,3.06073 -2.48119,5.54195 -5.54195,5.54195c-3.06073,0 -5.54195,-2.48122 -5.54195,-5.54195z" fill="#160f3d" stroke-width="1.5" stroke-linecap="butt"/><path d="M203.6364,254.10812c1.41412,-1.64033 2.80545,-2.82372 5.0581,-3.16094c2.1707,-0.32494 3.8348,0.28775 5.59807,1.56573c1.76327,1.27798 1.51653,4.99632 1.51653,4.99632c0,0 -4.15498,1.0872 -6.51468,1.44046c-2.63696,0.39474 -6.34259,-0.07298 -6.34259,-0.07298c0,0 -0.72953,-3.12824 0.68457,-4.76858z" fill="#2a2355" stroke-width="1.5" stroke-linecap="butt"/><g><path d="M217.82294,225.30649c0,0 -3.05309,-3.71772 -2.85454,-5.29453c0.45893,-3.64475 5.56076,-16.19811 5.56076,-16.19811l7.06111,-2.75158c0,0 3.67396,4.17496 3.35989,5.69345c-0.79137,3.82618 -6.26623,16.44747 -6.26623,16.44747z" fill="#2a2355" stroke-width="1.5" stroke-linecap="butt"/><path d="M227.70066,208.20814l-4.90182,-2.16635" fill="none" stroke-width="1.25" stroke-linecap="round"/><path d="M221.14967,210.26999l5.16134,1.8426" fill="none" stroke-width="1.25" stroke-linecap="round"/><path d="M217.81144,219.37284l4.54111,1.54647" fill="none" stroke-width="1.25" stroke-linecap="round"/><path d="M219.48822,214.83204l4.23865,1.85907" fill="none" stroke-width="1.25" stroke-linecap="round"/></g><path d="M215.9264,236.97796c0,0 -0.20113,-2.14506 -0.00783,-2.52788c0.19327,-0.38282 1.27624,-1.22689 1.72897,-1.51759c0.45273,-0.2907 2.60407,-0.25677 2.60407,-0.25677l3.7874,7.70153z" fill="#2a2355" stroke-width="1.5" stroke-linecap="butt"/></g><path d="M207.55856,264.60706c0,0 -0.33471,-3.56982 -0.01305,-4.2069c0.32165,-0.63709 2.42635,-2.6467 3.1798,-3.13047c0.75344,-0.48378 4.9386,-0.12489 4.9386,-0.12489l4.05712,8.52808c0,0 -5.98741,-0.07336 -8.22992,-0.21411c-1.55015,-0.09729 -3.93255,-0.85171 -3.93255,-0.85171z" fill="#100d25" stroke-width="1.5" stroke-linecap="butt"/></g><path d="M214.15707,194.912c0,0 0.09459,-3.87182 3.03101,-4.86722c0.70852,-0.24019 6.18549,-1.21154 11.42604,0.15667c0.30628,0.07997 4.21484,0.84654 4.90856,2.42821c0.52821,1.20429 -1.48395,2.77065 -2.13246,3.15204c-1.20303,0.70747 -4.82473,-2.52405 -8.22705,-2.69574c-3.40232,-0.1717 -9.00607,1.82606 -9.00607,1.82606z" fill="#160f3d" stroke="#000000" stroke-width="1.5" stroke-linecap="butt"/><g stroke="#000000" stroke-width="1.5" stroke-linecap="butt"><g><path d="M299.44391,152.47632c5.34757,-1.04185 10.52722,2.44862 11.56907,7.79622c1.04183,5.34759 -2.44862,10.52722 -7.79621,11.56907c-5.34757,1.04185 -10.52722,-2.44862 -11.56908,-7.79621c-1.04185,-5.34757 2.44862,-10.52722 7.79621,-11.56908z" fill="#160f3d"/><g><path d="M311.59299,220.69684l5.17519,-1.17201l1.38508,6.11613c0,0 -1.43352,1.14897 -2.33161,1.35236c-0.81982,0.18567 -2.84358,-0.18038 -2.84358,-0.18038z" fill="#160f3d"/><path d="M306.2495,205.19241l8.87554,-2.061l3.94014,16.96796c0,0 -2.55796,2.65739 -4.11366,3.01866c-1.38228,0.32097 -4.76187,-0.95765 -4.76187,-0.95765z" fill="#100d25"/><path d="M317.15615,182.851l2.2365,19.7021c0,0 -5.01484,3.23308 -8.02787,3.86504c-3.10555,0.65137 -10.33624,-0.01336 -10.33624,-0.01336l-4.81963,-18.41452z" fill="#2a2355"/><path d="M298.89075,186.78886l-9.14483,-5.0293l9.21783,0.66196l2.73234,-14.7079l9.6555,12.46243l8.08849,-5.28031l-5.39088,8.5107l3.92496,23.71197c0,0 -3.20572,2.94538 -6.14141,3.62709c-2.93569,0.6817 -7.61141,-0.43352 -7.61141,-0.43352z" fill="#160f3d"/><path d="M302.71091,187.51217l8.48398,-1.97008l2.70727,18.76742c0,0 -1.84495,1.66648 -2.85976,1.90213c-1.14486,0.26586 -3.66637,-0.38669 -3.66637,-0.38669z" fill="#0028ff"/><path d="M298.79158,174.85543l9.84566,-2.01468c0,0 1.15929,5.66541 1.64711,8.04941c0.18593,0.90864 7.10323,1.63885 7.10323,1.63885l-6.20101,3.74617c0,0 -0.64888,5.29611 -3.13619,6.02788c-2.48732,0.73177 -6.4083,-3.2199 -6.4083,-3.2199l-7.04866,-1.65309c0,0 6.04452,-3.55148 5.86227,-4.44217c-0.48922,-2.39084 -1.66412,-8.13247 -1.66412,-8.13247z" fill="#100d25"/><path d="M301.31434,171.1693c0.48076,1.92208 1.21491,5.68502 1.21491,5.68502c0,0 -0.4093,4.71172 -1.72784,5.49126c-0.54819,0.32409 -1.66117,1.09244 -3.63196,-0.11029c-1.97077,-1.20274 -3.72502,-4.37958 -3.72502,-4.37958c0,0 3.27728,1.69009 4.12957,0.95632c0.85228,-0.73378 1.26426,-1.28697 0.86994,-2.50175c-0.47141,-1.45235 -2.08745,-3.17943 -2.35241,-4.23878c-0.49753,-1.98912 -1.61132,-5.87465 -1.61132,-5.87465c0,0 1.64295,-1.20187 2.54712,-1.40573c0.77428,-0.17456 2.54886,0.25683 2.54886,0.25683c0,0 1.23555,4.11187 1.73816,6.12137z" data-paper-data="{&quot;index&quot;:null}" fill="#2a2355"/><path d="M309.65185,208.66671l0.97043,-3.93948l3.04067,3.00806l2.33693,10.06375c0,0 -1.09185,1.47737 -1.79489,1.64063c-0.62468,0.14507 -2.21621,-0.70921 -2.21621,-0.70921z" fill="#2a2355"/><path d="M303.59694,164.30226c0,0 1.41558,-1.15386 2.18951,-1.3299c0.90378,-0.20558 2.9042,0.1712 2.9042,0.1712c0,0 0.66891,3.9863 1.07689,5.99568c0.21728,1.07013 -0.49702,3.32496 -0.2967,4.83871c0.16753,1.26613 0.77764,1.58787 1.86291,1.88284c1.08525,0.29498 3.31464,-2.64215 3.31464,-2.64215c0,0 -0.21441,3.62267 -1.47469,5.55714c-1.2603,1.93446 -2.59576,1.72059 -3.23007,1.66429c-1.52576,-0.13539 -3.92506,-4.21106 -3.92506,-4.21106c0,0 -0.95869,-3.7121 -1.35291,-5.65377c-0.41216,-2.02998 -1.06871,-6.27296 -1.06871,-6.27296z" fill="#2a2355"/><path d="M294.86875,163.16146c0,0 2.68581,-3.80526 5.7568,-4.09987c3.07099,-0.29459 7.50662,1.54366 7.50662,1.54366l5.59719,1.93025l-4.41209,3.20487l-4.31977,4.48436l1.84854,16.36287l-5.47711,-15.52488l-5.60942,-2.92444l-5.93785,-2.37065z" fill="#160f3d"/><path d="M298.80655,155.66177c0,0 2.43682,-1.15061 4.9192,-0.15764c2.48235,0.99299 3.80416,3.22312 3.80416,3.22312l1.80208,7.77774l-4.27226,3.9769l-3.71614,-7.94681l-0.09916,7.85516l-5.49478,-1.56999c0,0 -1.59221,-7.64736 -1.51585,-8.45634c0.21849,-2.31481 4.57279,-4.70218 4.57279,-4.70218z" fill="#100d25"/><path d="M299.50688,200.01763c0,0 6.74019,-1.0149 9.94975,-1.76021c3.08165,-0.71559 8.93949,-2.62609 8.93949,-2.62609l1.32862,1.24317l-0.70184,1.45604c0,0 -6.08028,1.96214 -9.2394,2.69574c-3.13715,0.72848 -9.64986,1.69057 -9.64986,1.69057l-1.58206,-1.05499z" fill="#100d25"/></g></g><g><path d="M290.48379,160.53392c0.75093,-1.33287 4.04068,-7.40532 4.04068,-7.40532c0,0 6.90019,2.03129 10.23914,4.98599c2.85324,2.52489 3.89686,7.52324 3.89686,7.52324c0,0 -4.70362,1.69921 -8.41976,1.0384c-3.95245,-0.70283 -9.93463,-5.82692 -9.75695,-6.14231z" fill="#2a2355"/><g><path d="M280.41451,161.88855l-11.1775,-7.4485l8.17439,-16.10526l13.81917,6.13417c0,0 1.49917,2.55413 1.01032,4.77189c-0.44512,2.01929 -2.83573,3.64574 -3.69981,5.03736c-0.92546,1.4905 -0.44609,4.99007 -2.29644,6.55717c-1.7325,1.46728 -5.83011,1.05314 -5.83011,1.05314z" fill="#100d25"/><path d="M277.85113,163.55444l8.35942,-4.06818l-3.70927,-2.72288l-1.2639,-6.15423l4.07773,-3.09055l5.54817,0.42845l-2.74529,-8.2899c0,0 5.54482,3.56926 7.38806,6.3821c1.47428,2.24975 -0.77422,6.62318 -1.92184,9.40993c-1.14763,2.78675 -1.87644,5.46191 -5.12603,7.38475c-3.45217,2.0427 -10.607,0.72054 -10.607,0.72054z" fill="#160f3d"/><path d="M280.62097,158.47856l-8.92724,-5.34894l3.9018,-5.67136l1.54421,-6.01514l8.99556,3.55098l1.48944,8.82902z" fill="#2a2355"/></g></g><g><path d="M239.41613,136.89411c0,0 9.59991,3.38466 10.06252,1.99939c0.3616,-1.08271 -4.00626,-8.59007 -4.00626,-8.59007c0,0 6.92263,3.96674 7.74861,3.31539c1.07217,-0.84551 -0.45443,-8.34027 -0.45443,-8.34027c0,0 5.11404,5.06804 5.92429,4.98725c0.59631,-0.05946 4.86795,-7.57703 4.86795,-7.57703l2.33663,8.82842l7.03077,-2.30597c0,0 -4.22336,3.8554 -2.5892,5.64566c1.63415,1.79027 5.6525,-3.23914 5.6525,-3.23914l-1.44151,5.97502c0,0 -1.21542,4.04647 -2.45578,6.4285c-1.24038,2.38204 -2.17243,4.05056 -4.36677,5.90069c-2.19435,1.85014 -4.8281,1.9291 -4.8281,1.9291c0,0 -2.31635,-3.30238 -4.68602,-3.71248c-2.36969,-0.41011 -6.35222,2.46702 -6.35222,2.46702c0,0 -0.42162,-4.2315 -2.87483,-4.85027c-2.45321,-0.61877 -6.70217,2.43469 -6.70217,2.43469c0,0 2.76065,-3.66128 2.11609,-6.20169c-0.64454,-2.54042 -4.98204,-5.09424 -4.98204,-5.09424z" data-paper-data="{&quot;index&quot;:null}" fill="#100d25"/><path d="M255.17293,149.86914l-2.32016,-1.62494l6.6709,-10.0128l2.14066,1.38151z" fill="#100d25"/><path d="M251.66972,150.47585c-1.47668,-1.44713 -1.50064,-3.81735 -0.05348,-5.29402c1.44713,-1.47668 3.81735,-1.50064 5.29402,-0.05349c1.47668,1.44713 1.50064,3.81735 0.05348,5.29402c-1.44713,1.47668 -3.81735,1.50064 -5.29402,0.05348z" fill="#160f3d"/></g><path d="M271.52347,153.31425c-2.80371,2.26916 -8.61097,3.17277 -8.61097,3.17277l5.05759,-5.60865c0,0 2.48532,-3.66673 3.33715,-5.45881c0.81518,-1.71497 1.96043,-5.11618 1.96043,-5.11618l1.02237,-3.44908l4.37678,-4.23447c0,0 1.35179,3.23901 -0.41317,8.84694c-1.74594,5.54746 -5.33591,10.71907 -6.73019,11.84751z" fill="#160f3d"/><g><path d="M277.30019,150.88608l-14.4542,-10.84114l1.56836,-2.55386l15.07845,11.63027z" fill="#100d25"/><path d="M259.20279,139.51171c-1.14362,-1.2854 -1.02868,-3.25451 0.25674,-4.39812c1.2854,-1.14362 3.25451,-1.02869 4.39812,0.25674c1.14362,1.2854 1.02868,3.25451 -0.25675,4.39812c-1.2854,1.14362 -3.25451,1.02869 -4.39811,-0.25673z" fill="#160f3d"/></g><g><path d="M300.21841,162.41725l-18.61434,-9.84786l0.94758,-2.61171l18.06025,9.81149z" fill="#100d25"/><path d="M277.6992,153.22285c-1.37291,-1.29135 -1.43903,-3.45112 -0.14769,-4.82402c1.29135,-1.37291 3.45112,-1.43903 4.82402,-0.14769c1.37291,1.29135 1.43905,3.45112 0.1477,4.82403c-1.29135,1.37291 -3.45112,1.43904 -4.82403,0.1477z" fill="#160f3d"/></g><path d="M298.36644,163.18866c-0.99823,-1.27129 -0.77686,-3.11111 0.49444,-4.10933c1.27129,-0.99823 3.11112,-0.77685 4.10933,0.49444c0.99823,1.27129 0.77685,3.1111 -0.49444,4.10933c-1.27129,0.99823 -3.1111,0.77685 -4.10933,-0.49444z" fill="#160f3d"/></g><path d="M302.64937,194.37862c0,-3.31371 2.68629,-6 6,-6c3.31371,0 6,2.68629 6,6c0,3.31371 -2.68629,6 -6,6c-3.31371,0 -6,-2.68629 -6,-6z" fill="url(#color-66)" stroke="none" stroke-width="0" stroke-linecap="butt"/><path d="M305.8827,203.47862c0,-2.48529 2.01472,-4.5 4.5,-4.5c2.48528,0 4.5,2.01471 4.5,4.5c0,2.48529 -2.01472,4.5 -4.5,4.5c-2.48528,0 -4.5,-2.01471 -4.5,-4.5z" fill="url(#color-67)" stroke="none" stroke-width="0" stroke-linecap="butt"/></g></g></svg>