<svg version="1.1" xmlns="http://www.w3.org/2000/svg" xmlns:xlink="http://www.w3.org/1999/xlink" width="50.99999" height="50.99999" viewBox="0,0,50.99999,50.99999"><defs><radialGradient cx="276.39814" cy="170.81135" r="25.5" gradientUnits="userSpaceOnUse" id="color-1"><stop offset="0" stop-color="#000000"/><stop offset="1" stop-color="#000000" stop-opacity="0"/></radialGradient></defs><g transform="translate(-250.89814,-145.31135)"><g data-paper-data="{&quot;isPaintingLayer&quot;:true}" fill-rule="nonzero" stroke-linecap="butt" stroke-linejoin="miter" stroke-miterlimit="10" stroke-dasharray="" stroke-dashoffset="0" style="mix-blend-mode: normal"><path d="M263.46139,187.8721c0,0 -0.58849,-15.76545 0.75138,-21.54807c0.28679,-1.2377 0.69179,-3.77794 2.17282,-5.78381c1.87685,-2.54196 4.8758,-4.46811 4.8758,-4.46811c0,0 3.31927,-0.2 4.98311,-0.2c1.66947,0 5.01689,0.2 5.01689,0.2c0,0 5.70285,3.35832 6.86524,7.73111c0.47085,1.77131 1.39725,4.70519 1.62351,7.92073c0.51063,7.25684 -0.08875,15.94816 -0.08875,15.94816z" fill="#000000" stroke="#000000" stroke-width="1"/><text transform="translate(274.26032,153.8819) scale(0.19985,0.19363)" font-size="40" xml:space="preserve" data-paper-data="{&quot;index&quot;:null}" fill="#000000" fill-rule="nonzero" stroke="#000000" stroke-width="6" stroke-linecap="butt" stroke-linejoin="miter" stroke-miterlimit="10" stroke-dasharray="" stroke-dashoffset="0" font-family="Handwriting" font-weight="normal" text-anchor="start" style="mix-blend-mode: normal"><tspan x="0" dy="0">E</tspan></text><path d="M250.89814,170.81135c0,-14.08327 11.41674,-25.5 25.5,-25.5c14.08327,0 25.5,11.41674 25.5,25.5c0,14.08327 -11.41674,25.5 -25.5,25.5c-14.08327,0 -25.5,-11.41674 -25.5,-25.5z" fill="url(#color-1)" stroke="none" stroke-width="0"/></g></g></svg>