<svg version="1.1" xmlns="http://www.w3.org/2000/svg" xmlns:xlink="http://www.w3.org/1999/xlink" width="278.5591" height="130.73264" viewBox="0,0,278.5591,130.73264"><defs><linearGradient x1="365.22572" y1="289.3694" x2="365.22572" y2="296.30465" gradientUnits="userSpaceOnUse" id="color-1"><stop offset="0" stop-color="#520000"/><stop offset="1" stop-color="#000000"/></linearGradient><linearGradient x1="356.05165" y1="289.41701" x2="356.05165" y2="296.35227" gradientUnits="userSpaceOnUse" id="color-2"><stop offset="0" stop-color="#520000"/><stop offset="1" stop-color="#000000"/></linearGradient><linearGradient x1="346.87758" y1="289.41701" x2="346.87758" y2="296.35227" gradientUnits="userSpaceOnUse" id="color-3"><stop offset="0" stop-color="#520000"/><stop offset="1" stop-color="#000000"/></linearGradient><linearGradient x1="337.7035" y1="289.46465" x2="337.7035" y2="296.39989" gradientUnits="userSpaceOnUse" id="color-4"><stop offset="0" stop-color="#520000"/><stop offset="1" stop-color="#000000"/></linearGradient><linearGradient x1="328.2313" y1="289.61665" x2="328.2313" y2="296.5519" gradientUnits="userSpaceOnUse" id="color-5"><stop offset="0" stop-color="#520000"/><stop offset="1" stop-color="#000000"/></linearGradient><linearGradient x1="318.91679" y1="289.7833" x2="318.91679" y2="296.71858" gradientUnits="userSpaceOnUse" id="color-6"><stop offset="0" stop-color="#520000"/><stop offset="1" stop-color="#000000"/></linearGradient><linearGradient x1="244.50694" y1="236.56414" x2="244.50694" y2="241.06046" gradientUnits="userSpaceOnUse" id="color-7"><stop offset="0" stop-color="#c1c1c1"/><stop offset="1" stop-color="#1a1a1a"/></linearGradient><linearGradient x1="242.04232" y1="234.61465" x2="247.04133" y2="234.61465" gradientUnits="userSpaceOnUse" id="color-8"><stop offset="0" stop-color="#c1c1c1"/><stop offset="1" stop-color="#191919"/></linearGradient><linearGradient x1="250.60041" y1="236.56414" x2="250.6004" y2="241.06046" gradientUnits="userSpaceOnUse" id="color-9"><stop offset="0" stop-color="#c1c1c1"/><stop offset="1" stop-color="#1a1a1a"/></linearGradient><linearGradient x1="248.13577" y1="234.61465" x2="253.1348" y2="234.61465" gradientUnits="userSpaceOnUse" id="color-10"><stop offset="0" stop-color="#c1c1c1"/><stop offset="1" stop-color="#191919"/></linearGradient><linearGradient x1="262.88765" y1="236.56414" x2="262.88765" y2="241.06047" gradientUnits="userSpaceOnUse" id="color-11"><stop offset="0" stop-color="#c1c1c1"/><stop offset="1" stop-color="#1a1a1a"/></linearGradient><linearGradient x1="260.42302" y1="234.61465" x2="265.42204" y2="234.61465" gradientUnits="userSpaceOnUse" id="color-12"><stop offset="0" stop-color="#c1c1c1"/><stop offset="1" stop-color="#191919"/></linearGradient><linearGradient x1="256.7942" y1="236.56414" x2="256.7942" y2="241.06047" gradientUnits="userSpaceOnUse" id="color-13"><stop offset="0" stop-color="#c1c1c1"/><stop offset="1" stop-color="#1a1a1a"/></linearGradient><linearGradient x1="254.32957" y1="234.61465" x2="259.32858" y2="234.61465" gradientUnits="userSpaceOnUse" id="color-14"><stop offset="0" stop-color="#c1c1c1"/><stop offset="1" stop-color="#191919"/></linearGradient><linearGradient x1="275.38764" y1="236.7308" x2="275.38764" y2="241.22714" gradientUnits="userSpaceOnUse" id="color-15"><stop offset="0" stop-color="#c1c1c1"/><stop offset="1" stop-color="#1a1a1a"/></linearGradient><linearGradient x1="272.92302" y1="234.78132" x2="277.92204" y2="234.78132" gradientUnits="userSpaceOnUse" id="color-16"><stop offset="0" stop-color="#c1c1c1"/><stop offset="1" stop-color="#191919"/></linearGradient><linearGradient x1="269.2942" y1="236.7308" x2="269.2942" y2="241.22714" gradientUnits="userSpaceOnUse" id="color-17"><stop offset="0" stop-color="#c1c1c1"/><stop offset="1" stop-color="#1a1a1a"/></linearGradient><linearGradient x1="266.82957" y1="234.78132" x2="271.82858" y2="234.78132" gradientUnits="userSpaceOnUse" id="color-18"><stop offset="0" stop-color="#c1c1c1"/><stop offset="1" stop-color="#191919"/></linearGradient><linearGradient x1="202.15561" y1="237.76854" x2="206.236" y2="237.76854" gradientUnits="userSpaceOnUse" id="color-19"><stop offset="0" stop-color="#c1c1c1"/><stop offset="1" stop-color="#1a1a1a"/></linearGradient><linearGradient x1="200.38646" y1="240.09526" x2="200.38646" y2="235.37596" gradientUnits="userSpaceOnUse" id="color-20"><stop offset="0" stop-color="#c1c1c1"/><stop offset="1" stop-color="#191919"/></linearGradient><linearGradient x1="202.15561" y1="232.01603" x2="206.236" y2="232.01604" gradientUnits="userSpaceOnUse" id="color-21"><stop offset="0" stop-color="#c1c1c1"/><stop offset="1" stop-color="#1a1a1a"/></linearGradient><linearGradient x1="200.38646" y1="234.34276" x2="200.38646" y2="229.62345" gradientUnits="userSpaceOnUse" id="color-22"><stop offset="0" stop-color="#c1c1c1"/><stop offset="1" stop-color="#191919"/></linearGradient><linearGradient x1="202.15561" y1="220.41631" x2="206.23601" y2="220.41631" gradientUnits="userSpaceOnUse" id="color-23"><stop offset="0" stop-color="#c1c1c1"/><stop offset="1" stop-color="#1a1a1a"/></linearGradient><linearGradient x1="200.38646" y1="222.74304" x2="200.38646" y2="218.02373" gradientUnits="userSpaceOnUse" id="color-24"><stop offset="0" stop-color="#c1c1c1"/><stop offset="1" stop-color="#191919"/></linearGradient><linearGradient x1="202.15561" y1="226.16881" x2="206.23601" y2="226.16881" gradientUnits="userSpaceOnUse" id="color-25"><stop offset="0" stop-color="#c1c1c1"/><stop offset="1" stop-color="#1a1a1a"/></linearGradient><linearGradient x1="200.38646" y1="228.49553" x2="200.38646" y2="223.77623" gradientUnits="userSpaceOnUse" id="color-26"><stop offset="0" stop-color="#c1c1c1"/><stop offset="1" stop-color="#191919"/></linearGradient><linearGradient x1="202.30686" y1="214.36824" x2="206.38726" y2="214.36824" gradientUnits="userSpaceOnUse" id="color-27"><stop offset="0" stop-color="#c1c1c1"/><stop offset="1" stop-color="#1a1a1a"/></linearGradient><linearGradient x1="200.53771" y1="216.69496" x2="200.53771" y2="211.97566" gradientUnits="userSpaceOnUse" id="color-28"><stop offset="0" stop-color="#c1c1c1"/><stop offset="1" stop-color="#191919"/></linearGradient><linearGradient x1="96.39566" y1="206.34682" x2="91.89934" y2="206.34682" gradientUnits="userSpaceOnUse" id="color-29"><stop offset="0" stop-color="#c1c1c1"/><stop offset="1" stop-color="#1a1a1a"/></linearGradient><linearGradient x1="98.34515" y1="203.8822" x2="98.34515" y2="208.88121" gradientUnits="userSpaceOnUse" id="color-30"><stop offset="0" stop-color="#c1c1c1"/><stop offset="1" stop-color="#191919"/></linearGradient><linearGradient x1="96.50677" y1="212.44029" x2="92.01045" y2="212.44028" gradientUnits="userSpaceOnUse" id="color-31"><stop offset="0" stop-color="#c1c1c1"/><stop offset="1" stop-color="#1a1a1a"/></linearGradient><linearGradient x1="98.45626" y1="209.97565" x2="98.45626" y2="214.97468" gradientUnits="userSpaceOnUse" id="color-32"><stop offset="0" stop-color="#c1c1c1"/><stop offset="1" stop-color="#191919"/></linearGradient><linearGradient x1="96.50677" y1="224.72753" x2="92.01044" y2="224.72753" gradientUnits="userSpaceOnUse" id="color-33"><stop offset="0" stop-color="#c1c1c1"/><stop offset="1" stop-color="#1a1a1a"/></linearGradient><linearGradient x1="98.45626" y1="222.2629" x2="98.45626" y2="227.26192" gradientUnits="userSpaceOnUse" id="color-34"><stop offset="0" stop-color="#c1c1c1"/><stop offset="1" stop-color="#191919"/></linearGradient><linearGradient x1="96.50677" y1="218.63408" x2="92.01044" y2="218.63408" gradientUnits="userSpaceOnUse" id="color-35"><stop offset="0" stop-color="#c1c1c1"/><stop offset="1" stop-color="#1a1a1a"/></linearGradient><linearGradient x1="98.45626" y1="216.16945" x2="98.45626" y2="221.16847" gradientUnits="userSpaceOnUse" id="color-36"><stop offset="0" stop-color="#c1c1c1"/><stop offset="1" stop-color="#191919"/></linearGradient><linearGradient x1="96.34011" y1="237.22752" x2="91.84377" y2="237.22752" gradientUnits="userSpaceOnUse" id="color-37"><stop offset="0" stop-color="#c1c1c1"/><stop offset="1" stop-color="#1a1a1a"/></linearGradient><linearGradient x1="98.28959" y1="234.7629" x2="98.28959" y2="239.76192" gradientUnits="userSpaceOnUse" id="color-38"><stop offset="0" stop-color="#c1c1c1"/><stop offset="1" stop-color="#191919"/></linearGradient><linearGradient x1="96.34011" y1="231.13408" x2="91.84377" y2="231.13408" gradientUnits="userSpaceOnUse" id="color-39"><stop offset="0" stop-color="#c1c1c1"/><stop offset="1" stop-color="#1a1a1a"/></linearGradient><linearGradient x1="98.28959" y1="228.66945" x2="98.28959" y2="233.66847" gradientUnits="userSpaceOnUse" id="color-40"><stop offset="0" stop-color="#c1c1c1"/><stop offset="1" stop-color="#191919"/></linearGradient><linearGradient x1="96.39565" y1="169.34682" x2="91.89933" y2="169.34682" gradientUnits="userSpaceOnUse" id="color-41"><stop offset="0" stop-color="#c1c1c1"/><stop offset="1" stop-color="#1a1a1a"/></linearGradient><linearGradient x1="98.34514" y1="166.8822" x2="98.34514" y2="171.88121" gradientUnits="userSpaceOnUse" id="color-42"><stop offset="0" stop-color="#c1c1c1"/><stop offset="1" stop-color="#191919"/></linearGradient><linearGradient x1="96.28454" y1="175.44029" x2="91.78822" y2="175.44028" gradientUnits="userSpaceOnUse" id="color-43"><stop offset="0" stop-color="#c1c1c1"/><stop offset="1" stop-color="#1a1a1a"/></linearGradient><linearGradient x1="98.23403" y1="172.97565" x2="98.23403" y2="177.97468" gradientUnits="userSpaceOnUse" id="color-44"><stop offset="0" stop-color="#c1c1c1"/><stop offset="1" stop-color="#191919"/></linearGradient><linearGradient x1="96.28454" y1="187.72753" x2="91.78821" y2="187.72753" gradientUnits="userSpaceOnUse" id="color-45"><stop offset="0" stop-color="#c1c1c1"/><stop offset="1" stop-color="#1a1a1a"/></linearGradient><linearGradient x1="98.23403" y1="185.2629" x2="98.23403" y2="190.26192" gradientUnits="userSpaceOnUse" id="color-46"><stop offset="0" stop-color="#c1c1c1"/><stop offset="1" stop-color="#191919"/></linearGradient><linearGradient x1="96.28454" y1="181.63408" x2="91.78821" y2="181.63408" gradientUnits="userSpaceOnUse" id="color-47"><stop offset="0" stop-color="#c1c1c1"/><stop offset="1" stop-color="#1a1a1a"/></linearGradient><linearGradient x1="98.23403" y1="179.16945" x2="98.23403" y2="184.16847" gradientUnits="userSpaceOnUse" id="color-48"><stop offset="0" stop-color="#c1c1c1"/><stop offset="1" stop-color="#191919"/></linearGradient><linearGradient x1="96.85122" y1="200.22752" x2="92.35488" y2="200.22752" gradientUnits="userSpaceOnUse" id="color-49"><stop offset="0" stop-color="#c1c1c1"/><stop offset="1" stop-color="#1a1a1a"/></linearGradient><linearGradient x1="98.4007" y1="197.7629" x2="98.4007" y2="202.76192" gradientUnits="userSpaceOnUse" id="color-50"><stop offset="0" stop-color="#c1c1c1"/><stop offset="1" stop-color="#191919"/></linearGradient><linearGradient x1="96.11788" y1="194.13408" x2="91.62154" y2="194.13408" gradientUnits="userSpaceOnUse" id="color-51"><stop offset="0" stop-color="#c1c1c1"/><stop offset="1" stop-color="#1a1a1a"/></linearGradient><linearGradient x1="98.06736" y1="191.66945" x2="98.06736" y2="196.66847" gradientUnits="userSpaceOnUse" id="color-52"><stop offset="0" stop-color="#c1c1c1"/><stop offset="1" stop-color="#191919"/></linearGradient></defs><g transform="translate(-91.24654,-166.34946)"><g data-paper-data="{&quot;isPaintingLayer&quot;:true}" fill-rule="nonzero" stroke="#000000" stroke-width="0.75" stroke-linejoin="miter" stroke-miterlimit="10" stroke-dasharray="" stroke-dashoffset="0" style="mix-blend-mode: normal"><path d="M361.53382,293.16887l3.77955,-3.79948l3.60425,3.75976c0,0 -2.10297,-0.02232 -2.36252,1.76434c-0.14455,0.99502 -0.24835,1.39978 -0.24835,1.39978c0,0 -1.71981,0.03889 -1.82658,-0.02712c-0.05132,-0.03173 -0.42009,-0.44361 -0.36714,-1.42393c0.08429,-1.56037 -2.57923,-1.67334 -2.57923,-1.67334z" fill="url(#color-1)" stroke-linecap="butt"/><path d="M352.35975,293.21648l3.77957,-3.79948l3.60425,3.75978c0,0 -2.10297,-0.02233 -2.36253,1.76434c-0.14456,0.99502 -0.24835,1.39978 -0.24835,1.39978c0,0 -1.71981,0.0389 -1.82658,-0.02712c-0.05132,-0.03173 -0.42008,-0.44361 -0.36714,-1.42393c0.08429,-1.56037 -2.57923,-1.67333 -2.57923,-1.67333z" fill="url(#color-2)" stroke-linecap="butt"/><path d="M343.18567,293.21648l3.77955,-3.79948l3.60425,3.75978c0,0 -2.10297,-0.02233 -2.36252,1.76434c-0.14456,0.99502 -0.24837,1.39978 -0.24837,1.39978c0,0 -1.71981,0.0389 -1.82658,-0.02712c-0.05132,-0.03173 -0.42008,-0.44361 -0.36713,-1.42393c0.08429,-1.56037 -2.57923,-1.67333 -2.57923,-1.67333z" fill="url(#color-3)" stroke-linecap="butt"/><path d="M334.01159,293.2641l3.77957,-3.79948l3.60425,3.75976c0,0 -2.10297,-0.02233 -2.36253,1.76434c-0.14456,0.99502 -0.24837,1.39978 -0.24837,1.39978c0,0 -1.71981,0.03888 -1.82658,-0.02713c-0.05132,-0.03173 -0.42008,-0.44361 -0.36714,-1.42394c0.08429,-1.56037 -2.57923,-1.67333 -2.57923,-1.67333z" fill="url(#color-4)" stroke-linecap="butt"/><path d="M324.53936,293.41613l3.77955,-3.79948l3.60426,3.75978c0,0 -2.10297,-0.02234 -2.36252,1.76433c-0.14456,0.99502 -0.24837,1.39978 -0.24837,1.39978c0,0 -1.71981,0.0389 -1.82658,-0.02712c-0.05132,-0.03173 -0.42008,-0.44361 -0.36713,-1.42394c0.08429,-1.56037 -2.57923,-1.67333 -2.57923,-1.67333z" fill="url(#color-5)" stroke-linecap="butt"/><path d="M315.22488,293.58279l3.77955,-3.79948l3.60426,3.75978c0,0 -2.10297,-0.02234 -2.36252,1.76433c-0.14456,0.99502 -0.24837,1.39978 -0.24837,1.39978c0,0 -1.71981,0.0389 -1.82658,-0.02712c-0.05132,-0.03173 -0.42008,-0.44361 -0.36713,-1.42394c0.08429,-1.56037 -2.57923,-1.67333 -2.57923,-1.67333z" fill="url(#color-6)" stroke-linecap="butt"/><path d="M243.58654,241.06047v-4.49634h1.8408v4.49634z" fill="url(#color-7)" stroke-linecap="butt"/><path d="M242.04232,237.88926l2.67766,-7.47227l2.32136,7.47227c0,0 -1.65829,0.92305 -2.46171,0.92305c-0.85916,0 -2.5373,-0.92305 -2.5373,-0.92305z" fill="url(#color-8)" stroke-linecap="round"/><path d="M249.68,241.06046v-4.49634h1.8408v4.49634z" fill="url(#color-9)" stroke-linecap="butt"/><path d="M248.13577,237.88926l2.67766,-7.47227l2.32136,7.47227c0,0 -1.65829,0.92305 -2.46171,0.92305c-0.85916,0 -2.5373,-0.92305 -2.5373,-0.92305z" fill="url(#color-10)" stroke-linecap="round"/><path d="M261.96724,241.06046v-4.49634h1.8408v4.49634z" fill="url(#color-11)" stroke-linecap="butt"/><path d="M260.42303,237.88925l2.67766,-7.47227l2.32136,7.47227c0,0 -1.65829,0.92305 -2.46171,0.92305c-0.85916,0 -2.5373,-0.92305 -2.5373,-0.92305z" fill="url(#color-12)" stroke-linecap="round"/><path d="M255.87378,241.06047v-4.49634h1.8408v4.49634z" fill="url(#color-13)" stroke-linecap="butt"/><path d="M254.32957,237.88926l2.67766,-7.47227l2.32136,7.47227c0,0 -1.65829,0.92305 -2.46171,0.92305c-0.85916,0 -2.5373,-0.92305 -2.5373,-0.92305z" fill="url(#color-14)" stroke-linecap="round"/><path d="M274.46724,241.22713v-4.49633h1.8408v4.49633z" fill="url(#color-15)" stroke-linecap="butt"/><path d="M272.92303,238.05592l2.67766,-7.47227l2.32136,7.47227c0,0 -1.65828,0.92305 -2.46171,0.92305c-0.85917,0 -2.53731,-0.92305 -2.53731,-0.92305z" fill="url(#color-16)" stroke-linecap="round"/><path d="M268.37379,241.22714v-4.49634h1.84079v4.49634z" fill="url(#color-17)" stroke-linecap="butt"/><path d="M266.82957,238.05593l2.67765,-7.47227l2.32136,7.47227c0,0 -1.65828,0.92305 -2.46171,0.92305c-0.85917,0 -2.53731,-0.92305 -2.53731,-0.92305z" fill="url(#color-18)" stroke-linecap="round"/><path d="M206.23601,238.63744h-4.0804v-1.7378l4.0804,0z" fill="url(#color-19)" stroke-linecap="butt"/><path d="M203.35815,240.09526l-6.78104,-2.52783l6.78104,-2.19147c0,0 0.83766,1.5655 0.83766,2.32397c0,0.81109 -0.83766,2.39533 -0.83766,2.39533z" fill="url(#color-20)" stroke-linecap="round"/><path d="M206.236,232.88494l-4.0804,0v-1.7378l4.0804,0z" fill="url(#color-21)" stroke-linecap="butt"/><path d="M203.35815,234.34276l-6.78104,-2.52783l6.78104,-2.19147c0,0 0.83766,1.5655 0.83766,2.32397c0,0.81109 -0.83766,2.39533 -0.83766,2.39533z" fill="url(#color-22)" stroke-linecap="round"/><path d="M206.236,221.28522l-4.0804,0v-1.7378l4.0804,0z" fill="url(#color-23)" stroke-linecap="butt"/><path d="M203.35814,222.74303l-6.78104,-2.52783l6.78104,-2.19147c0,0 0.83766,1.5655 0.83766,2.32397c0,0.81109 -0.83766,2.39533 -0.83766,2.39533z" fill="url(#color-24)" stroke-linecap="round"/><path d="M206.23601,227.03773h-4.0804v-1.7378l4.0804,0z" fill="url(#color-25)" stroke-linecap="butt"/><path d="M203.35815,228.49553l-6.78104,-2.52783l6.78104,-2.19147c0,0 0.83766,1.5655 0.83766,2.32397c0,0.81109 -0.83766,2.39533 -0.83766,2.39533z" fill="url(#color-26)" stroke-linecap="round"/><path d="M206.38726,215.23714l-4.0804,0v-1.73779h4.0804z" fill="url(#color-27)" stroke-linecap="butt"/><path d="M203.5094,216.69496l-6.78104,-2.52782l6.78104,-2.19147c0,0 0.83766,1.56549 0.83766,2.32397c0,0.8111 -0.83766,2.39534 -0.83766,2.39534z" fill="url(#color-28)" stroke-linecap="round"/><path d="M91.89933,205.42642h4.49634l0,1.8408l-4.49634,0z" fill="url(#color-29)" stroke-linecap="butt"/><path d="M95.07054,203.8822l7.47227,2.67766l-7.47227,2.32136c0,0 -0.92305,-1.65829 -0.92305,-2.46171c0,-0.85916 0.92305,-2.5373 0.92305,-2.5373z" fill="url(#color-30)" stroke-linecap="round"/><path d="M92.01045,211.51988h4.49634v1.8408l-4.49634,0z" fill="url(#color-31)" stroke-linecap="butt"/><path d="M95.18165,209.97565l7.47227,2.67766l-7.47227,2.32136c0,0 -0.92305,-1.65829 -0.92305,-2.46171c0,-0.85916 0.92305,-2.5373 0.92305,-2.5373z" fill="url(#color-32)" stroke-linecap="round"/><path d="M92.01045,223.80712l4.49634,0l0,1.8408h-4.49634z" fill="url(#color-33)" stroke-linecap="butt"/><path d="M95.18166,222.26291l7.47227,2.67766l-7.47227,2.32136c0,0 -0.92305,-1.65829 -0.92305,-2.46171c0,-0.85916 0.92305,-2.5373 0.92305,-2.5373z" fill="url(#color-34)" stroke-linecap="round"/><path d="M92.01044,217.71366l4.49634,0v1.8408h-4.49634z" fill="url(#color-35)" stroke-linecap="butt"/><path d="M95.18165,216.16945l7.47227,2.67766l-7.47227,2.32136c0,0 -0.92305,-1.65829 -0.92305,-2.46171c0,-0.85916 0.92305,-2.5373 0.92305,-2.5373z" fill="url(#color-36)" stroke-linecap="round"/><path d="M91.84378,236.30712l4.49633,0l0,1.8408l-4.49633,0z" fill="url(#color-37)" stroke-linecap="butt"/><path d="M95.01499,234.76291l7.47227,2.67766l-7.47227,2.32136c0,0 -0.92305,-1.65828 -0.92305,-2.46171c0,-0.85917 0.92305,-2.53731 0.92305,-2.53731z" fill="url(#color-38)" stroke-linecap="round"/><path d="M91.84377,230.21367h4.49634l0,1.84079l-4.49634,0z" fill="url(#color-39)" stroke-linecap="butt"/><path d="M95.01498,228.66945l7.47227,2.67765l-7.47227,2.32136c0,0 -0.92305,-1.65828 -0.92305,-2.46171c0,-0.85917 0.92305,-2.53731 0.92305,-2.53731z" fill="url(#color-40)" stroke-linecap="round"/><path d="M91.89932,168.42642h4.49634v1.8408h-4.49634z" fill="url(#color-41)" stroke-linecap="butt"/><path d="M95.07053,166.8822l7.47227,2.67766l-7.47227,2.32136c0,0 -0.92305,-1.65829 -0.92305,-2.46171c0,-0.85916 0.92305,-2.5373 0.92305,-2.5373z" fill="url(#color-42)" stroke-linecap="round"/><path d="M91.78822,174.51988h4.49634v1.8408h-4.49634z" fill="url(#color-43)" stroke-linecap="butt"/><path d="M94.95942,172.97565l7.47227,2.67766l-7.47227,2.32136c0,0 -0.92305,-1.65829 -0.92305,-2.46171c0,-0.85916 0.92305,-2.5373 0.92305,-2.5373z" fill="url(#color-44)" stroke-linecap="round"/><path d="M91.78822,186.80712h4.49634v1.8408h-4.49634z" fill="url(#color-45)" stroke-linecap="butt"/><path d="M94.95943,185.26291l7.47227,2.67766l-7.47227,2.32136c0,0 -0.92305,-1.65829 -0.92305,-2.46171c0,-0.85916 0.92305,-2.5373 0.92305,-2.5373z" fill="url(#color-46)" stroke-linecap="round"/><path d="M91.78821,180.71366h4.49634v1.8408h-4.49634z" fill="url(#color-47)" stroke-linecap="butt"/><path d="M94.95942,179.16945l7.47227,2.67766l-7.47227,2.32136c0,0 -0.92305,-1.65829 -0.92305,-2.46171c0,-0.85916 0.92305,-2.5373 0.92305,-2.5373z" fill="url(#color-48)" stroke-linecap="round"/><path d="M92.35489,199.30712h4.49633v1.8408h-4.49633z" fill="url(#color-49)" stroke-linecap="butt"/><path d="M95.1261,197.76291l7.47227,2.67766l-7.47227,2.32136c0,0 -0.92305,-1.65828 -0.92305,-2.46171c0,-0.85917 0.92305,-2.53731 0.92305,-2.53731z" fill="url(#color-50)" stroke-linecap="round"/><path d="M91.62154,193.21367h4.49634v1.84079h-4.49634z" fill="url(#color-51)" stroke-linecap="butt"/><path d="M94.79275,191.66945l7.47227,2.67765l-7.47227,2.32136c0,0 -0.92305,-1.65828 -0.92305,-2.46171c0,-0.85917 0.92305,-2.53731 0.92305,-2.53731z" fill="url(#color-52)" stroke-linecap="round"/></g></g></svg>