<svg version="1.1" xmlns="http://www.w3.org/2000/svg" xmlns:xlink="http://www.w3.org/1999/xlink" width="71.89359" height="13.17081" viewBox="0,0,71.89359,13.17081"><defs><linearGradient x1="354.13747" y1="220.25463" x2="354.13747" y2="229.58429" gradientUnits="userSpaceOnUse" id="color-1"><stop offset="0" stop-color="#000000"/><stop offset="1" stop-color="#404040"/></linearGradient><linearGradient x1="361.07081" y1="220.32129" x2="361.07081" y2="229.65095" gradientUnits="userSpaceOnUse" id="color-2"><stop offset="0" stop-color="#000000"/><stop offset="1" stop-color="#404040"/></linearGradient><linearGradient x1="368.00414" y1="220.38796" x2="368.00414" y2="229.71762" gradientUnits="userSpaceOnUse" id="color-3"><stop offset="0" stop-color="#000000"/><stop offset="1" stop-color="#404040"/></linearGradient><linearGradient x1="374.80414" y1="220.38796" x2="374.80414" y2="229.71762" gradientUnits="userSpaceOnUse" id="color-4"><stop offset="0" stop-color="#000000"/><stop offset="1" stop-color="#404040"/></linearGradient><linearGradient x1="381.73747" y1="220.45463" x2="381.73747" y2="229.78429" gradientUnits="userSpaceOnUse" id="color-5"><stop offset="0" stop-color="#000000"/><stop offset="1" stop-color="#404040"/></linearGradient><linearGradient x1="319.13748" y1="220.25463" x2="319.13748" y2="229.58429" gradientUnits="userSpaceOnUse" id="color-6"><stop offset="0" stop-color="#000000"/><stop offset="1" stop-color="#404040"/></linearGradient><linearGradient x1="326.07081" y1="220.32129" x2="326.07081" y2="229.65095" gradientUnits="userSpaceOnUse" id="color-7"><stop offset="0" stop-color="#000000"/><stop offset="1" stop-color="#404040"/></linearGradient><linearGradient x1="333.00415" y1="220.38796" x2="333.00415" y2="229.71762" gradientUnits="userSpaceOnUse" id="color-8"><stop offset="0" stop-color="#000000"/><stop offset="1" stop-color="#404040"/></linearGradient><linearGradient x1="339.80414" y1="220.38796" x2="339.80414" y2="229.71762" gradientUnits="userSpaceOnUse" id="color-9"><stop offset="0" stop-color="#000000"/><stop offset="1" stop-color="#404040"/></linearGradient><linearGradient x1="346.73748" y1="220.45463" x2="346.73748" y2="229.78429" gradientUnits="userSpaceOnUse" id="color-10"><stop offset="0" stop-color="#000000"/><stop offset="1" stop-color="#404040"/></linearGradient></defs><g transform="translate(-314.4967,-217.61347)"><g data-paper-data="{&quot;isPaintingLayer&quot;:true}" fill-rule="nonzero" stroke="#000000" stroke-width="2" stroke-linecap="round" stroke-linejoin="miter" stroke-miterlimit="10" stroke-dasharray="" stroke-dashoffset="0" style="mix-blend-mode: normal"><path d="M353.91618,229.58428c-1.0833,-0.00257 -3.14639,-1.10536 -3.14639,-1.10536l3.43505,-8.22429l3.30033,8.2403c0,0 -2.432,1.09211 -3.58898,1.08936z" fill="url(#color-1)"/><path d="M360.84952,229.65095c-1.0833,-0.00257 -3.1464,-1.10536 -3.1464,-1.10536l3.43505,-8.2243l3.30032,8.2403c0,0 -2.432,1.09211 -3.58898,1.08936z" fill="url(#color-2)"/><path d="M367.78285,229.71761c-1.0833,-0.00257 -3.1464,-1.10536 -3.1464,-1.10536l3.43505,-8.2243l3.30032,8.2403c0,0 -2.432,1.09211 -3.58898,1.08936z" fill="url(#color-3)"/><path d="M374.58285,229.71762c-1.0833,-0.00257 -3.1464,-1.10536 -3.1464,-1.10536l3.43505,-8.22429l3.30032,8.24029c0,0 -2.432,1.09211 -3.58898,1.08936z" fill="url(#color-4)"/><path d="M381.51618,229.78428c-1.0833,-0.00257 -3.1464,-1.10536 -3.1464,-1.10536l3.43505,-8.2243l3.30032,8.2403c0,0 -2.432,1.09211 -3.58898,1.08936z" fill="url(#color-5)"/><path d="M318.91619,229.58428c-1.0833,-0.00257 -3.14639,-1.10536 -3.14639,-1.10536l3.43505,-8.22429l3.30032,8.2403c0,0 -2.432,1.09211 -3.58898,1.08936z" fill="url(#color-6)"/><path d="M325.84952,229.65095c-1.0833,-0.00257 -3.14639,-1.10536 -3.14639,-1.10536l3.43505,-8.22429l3.30032,8.2403c0,0 -2.432,1.09211 -3.58898,1.08936z" fill="url(#color-7)"/><path d="M332.78286,229.71761c-1.0833,-0.00257 -3.14639,-1.10536 -3.14639,-1.10536l3.43505,-8.22429l3.30032,8.2403c0,0 -2.432,1.09211 -3.58898,1.08936z" fill="url(#color-8)"/><path d="M339.58285,229.71762c-1.0833,-0.00257 -3.14639,-1.10536 -3.14639,-1.10536l3.43505,-8.2243l3.30032,8.2403c0,0 -2.432,1.09211 -3.58898,1.08936z" fill="url(#color-9)"/><path d="M346.51619,229.78428c-1.0833,-0.00257 -3.14639,-1.10536 -3.14639,-1.10536l3.43505,-8.2243l3.30032,8.2403c0,0 -2.432,1.09211 -3.58898,1.08936z" fill="url(#color-10)"/></g></g></svg>