<svg version="1.1" xmlns="http://www.w3.org/2000/svg" xmlns:xlink="http://www.w3.org/1999/xlink" width="75.03346" height="110.80696" viewBox="0,0,75.03346,110.80696"><defs><linearGradient x1="231.83472" y1="156.26995" x2="222.50048" y2="163.36659" gradientUnits="userSpaceOnUse" id="color-1"><stop offset="0" stop-color="#838383"/><stop offset="1" stop-color="#000000"/></linearGradient><linearGradient x1="237.66039" y1="141.64524" x2="231.82054" y2="146.08515" gradientUnits="userSpaceOnUse" id="color-2"><stop offset="0" stop-color="#838383"/><stop offset="1" stop-color="#2c2c2c"/></linearGradient><linearGradient x1="229.95305" y1="142.41049" x2="226.30018" y2="145.1877" gradientUnits="userSpaceOnUse" id="color-3"><stop offset="0" stop-color="#838383"/><stop offset="1" stop-color="#2c2c2c"/></linearGradient><linearGradient x1="264.63347" y1="126.34878" x2="261.64171" y2="123.93688" gradientUnits="userSpaceOnUse" id="color-4"><stop offset="0" stop-color="#271100"/><stop offset="1" stop-color="#613700"/></linearGradient><linearGradient x1="240.85761" y1="159.35966" x2="234.84884" y2="154.54799" gradientUnits="userSpaceOnUse" id="color-5"><stop offset="0" stop-color="#ffffff"/><stop offset="1" stop-color="#323232"/></linearGradient><linearGradient x1="239.4926" y1="108.27463" x2="239.4926" y2="132.38207" gradientUnits="userSpaceOnUse" id="color-6"><stop offset="0" stop-color="#cca670"/><stop offset="1" stop-color="#907751"/></linearGradient><linearGradient x1="231.76897" y1="122.09745" x2="237.99315" y2="121.85423" gradientUnits="userSpaceOnUse" id="color-7"><stop offset="0" stop-color="#dadada"/><stop offset="1" stop-color="#898989"/></linearGradient><linearGradient x1="242.21435" y1="121.5791" x2="248.43855" y2="121.33587" gradientUnits="userSpaceOnUse" id="color-8"><stop offset="0" stop-color="#dadada"/><stop offset="1" stop-color="#898989"/></linearGradient><linearGradient x1="240.46152" y1="125.10564" x2="240.76227" y2="132.80147" gradientUnits="userSpaceOnUse" id="color-9"><stop offset="0" stop-color="#272727"/><stop offset="1" stop-color="#000000"/></linearGradient><linearGradient x1="200.65635" y1="164.97034" x2="205.00817" y2="159.51794" gradientUnits="userSpaceOnUse" id="color-10"><stop offset="0" stop-color="#404040"/><stop offset="1" stop-color="#262626"/></linearGradient><linearGradient x1="209.74013" y1="167.91695" x2="205.76736" y2="177.5095" gradientUnits="userSpaceOnUse" id="color-11"><stop offset="0" stop-color="#000000" stop-opacity="0"/><stop offset="1" stop-color="#000000" stop-opacity="0"/></linearGradient><linearGradient x1="256.31881" y1="153.34409" x2="226.19847" y2="153.34409" gradientUnits="userSpaceOnUse" id="color-12"><stop offset="0" stop-color="#202020"/><stop offset="1" stop-color="#000000"/></linearGradient><linearGradient x1="231.83601" y1="156.77498" x2="231.83601" y2="166.86587" gradientUnits="userSpaceOnUse" id="color-13"><stop offset="0" stop-color="#696969"/><stop offset="1" stop-color="#272727"/></linearGradient><radialGradient cx="249.42196" cy="116.16747" r="5.19534" gradientUnits="userSpaceOnUse" id="color-14"><stop offset="0" stop-color="#00059e"/><stop offset="1" stop-color="#1f5cff"/></radialGradient><radialGradient cx="238.52071" cy="120.17299" r="5.19534" gradientUnits="userSpaceOnUse" id="color-15"><stop offset="0" stop-color="#00059e"/><stop offset="1" stop-color="#1f5cff"/></radialGradient><radialGradient cx="238.4291" cy="120.18623" r="7.2184" gradientUnits="userSpaceOnUse" id="color-16"><stop offset="0" stop-color="#0015ff"/><stop offset="1" stop-color="#0015ff" stop-opacity="0"/></radialGradient><radialGradient cx="249.34541" cy="116.25047" r="6.6881" gradientUnits="userSpaceOnUse" id="color-17"><stop offset="0" stop-color="#0021ff"/><stop offset="1" stop-color="#0021ff" stop-opacity="0"/></radialGradient><linearGradient x1="267.93318" y1="150.16882" x2="267.93318" y2="157.87175" gradientUnits="userSpaceOnUse" id="color-18"><stop offset="0" stop-color="#2c2c2c"/><stop offset="1" stop-color="#464646"/></linearGradient><linearGradient x1="263.11334" y1="164.50686" x2="265.37379" y2="174.96334" gradientUnits="userSpaceOnUse" id="color-19"><stop offset="0" stop-color="#000000" stop-opacity="0"/><stop offset="1" stop-color="#000000" stop-opacity="0"/></linearGradient><linearGradient x1="241.33601" y1="156.64998" x2="241.33601" y2="166.74087" gradientUnits="userSpaceOnUse" id="color-20"><stop offset="0" stop-color="#696969"/><stop offset="1" stop-color="#272727"/></linearGradient><linearGradient x1="250.71101" y1="156.52498" x2="250.71101" y2="166.61587" gradientUnits="userSpaceOnUse" id="color-21"><stop offset="0" stop-color="#696969"/><stop offset="1" stop-color="#272727"/></linearGradient><linearGradient x1="234.05945" y1="144.65415" x2="234.05945" y2="151.95234" gradientUnits="userSpaceOnUse" id="color-22"><stop offset="0" stop-color="#696969"/><stop offset="1" stop-color="#272727"/></linearGradient></defs><g transform="translate(-195.72478,-99.11566)"><g data-paper-data="{&quot;isPaintingLayer&quot;:true}" fill-rule="nonzero" stroke-linejoin="miter" stroke-miterlimit="10" stroke-dasharray="" stroke-dashoffset="0" style="mix-blend-mode: normal"><g><path d="M230.76072,147.27465c0,0 1.92037,-1.46002 2.58795,-1.96757c0.45367,-0.34492 1.40915,-0.28421 1.77953,0.20296c0.53271,0.70067 1.98695,2.61344 2.84069,3.73637c0.35446,0.46623 -0.04454,1.426 -0.52877,1.79416c-0.66401,0.50484 -2.41836,1.83863 -2.41836,1.83863z" fill="#282828" stroke="none" stroke-width="0" stroke-linecap="butt"/><path d="M220.8872,144.30623l3.09567,-2.35357l2.46495,3.24216l-3.09567,2.35357z" fill="#505050" stroke="none" stroke-width="0" stroke-linecap="butt"/><path d="M225.52202,140.51145c0,0 2.02512,-1.53966 2.70257,-2.05471c0.3947,-0.30008 1.47214,-0.1284 1.83221,0.34519c0.49846,0.65562 1.81026,2.38104 2.67184,3.51428c0.44389,0.58385 0.19751,1.50527 -0.19719,1.80535c-0.67746,0.51506 -2.70257,2.05471 -2.70257,2.05471z" fill="#282828" stroke="#000000" stroke-width="0.5" stroke-linecap="butt"/><path d="M226.12971,143.09258l2.08487,-1.58508l1.46616,1.92844l-2.08487,1.58508z" fill="#000000" stroke="none" stroke-width="0" stroke-linecap="butt"/><path d="M240.76404,146.15672c-0.68316,-0.06827 -1.3465,-0.3225 -1.90782,-0.75152" fill="none" stroke="#ff9319" stroke-width="3" stroke-linecap="butt"/><path d="M236.31395,144.8056c-0.27843,-0.77325 -0.49394,-1.53523 -0.64634,-2.27193" fill="none" stroke="#000000" stroke-width="3" stroke-linecap="butt"/><path d="M221.58317,162.16006c0,0 0.80565,-1.9341 1.47312,-3.87137c0.51239,-1.48715 1.61276,-2.91309 1.85475,-3.27421c0.41222,-0.61515 6.87579,-6.38006 6.87579,-6.38006c0,0 3.76619,5.2567 4.61172,6.14404c0.27418,0.28775 -3.20247,3.28214 -3.20247,3.28214c0,0 -1.51017,1.54847 -1.98516,2.34103c-0.21085,0.3518 -1.01009,1.20088 -1.2781,2.06882c-0.52661,1.70536 -1.63664,4.02345 -1.63664,4.02345z" fill="url(#color-1)" stroke="#000000" stroke-width="1" stroke-linecap="butt"/><path d="M230.54233,132.70318l1.13965,-0.86645l13.09003,17.21737l-1.13965,0.86645z" fill="#888888" stroke="#000000" stroke-width="0.5" stroke-linecap="butt"/><path d="M264.10875,184.74492l-11.74861,-15.50261l2.09894,-1.59578l11.84588,15.58093z" fill="#888888" stroke="#000000" stroke-width="1" stroke-linecap="round"/><path d="M224.74893,136.78385l5.83984,-4.43992l14.14322,18.60263l-5.83985,4.43992z" fill="url(#color-2)" stroke="#000000" stroke-width="1" stroke-linecap="butt"/><path d="M231.77381,148.90544l2.17183,-1.78949l4.9381,6.49511l-2.34336,1.45746z" fill="#767676" stroke="#000000" stroke-width="1.5" stroke-linecap="butt"/><path d="M223.95482,141.91797c0,0 0.99173,-0.36413 0.8921,-1.38498c-0.09553,-0.97874 -1.42151,-2.04572 -1.13519,-2.2634c0.62943,-0.47855 1.96009,-1.49021 1.96009,-1.49021l8.56247,11.26225l-3.65289,2.77722z" fill="url(#color-3)" stroke="#000000" stroke-width="1" stroke-linecap="butt"/><path d="M223.69291,147.65361l2.90993,-2.21236l3.58067,4.70967c0,0 -1.32011,1.00366 -1.85156,1.4077c-0.4018,0.30548 -1.79284,-0.16139 -2.26153,-0.77787c-0.65885,-0.86659 -2.37752,-3.12716 -2.37752,-3.12716z" fill="none" stroke="#000000" stroke-width="2" stroke-linecap="butt"/><path d="M234.2301,146.33158l2.47653,-1.88286l4.87801,6.41607l-2.47653,1.88286z" fill="#000000" stroke="none" stroke-width="0" stroke-linecap="butt"/><path d="M229.44744,147.59813l1.98122,-1.50628l1.40113,1.84291l-1.98122,1.50628z" fill="none" stroke="#000000" stroke-width="1" stroke-linecap="butt"/><path d="M231.64457,148.43195c-0.37613,0.28596 -0.90467,0.22365 -1.18053,-0.13918c-0.27586,-0.36283 -0.19457,-0.88879 0.18157,-1.17476c0.37613,-0.28596 0.90467,-0.22366 1.18053,0.13918c0.27586,0.36283 0.19457,0.88879 -0.18157,1.17476z" fill="#9e9e9e" stroke="none" stroke-width="0" stroke-linecap="butt"/><path d="M230.20978,134.2894l12.78592,16.56036" fill="none" stroke="#000000" stroke-width="0.75" stroke-linecap="round"/><path d="M228.12376,143.86525c-0.46162,0.35096 -1.17272,0.19235 -1.58828,-0.35425c-0.41557,-0.5466 -0.37825,-1.27421 0.08337,-1.62517c0.46162,-0.35096 1.17271,-0.19235 1.58828,0.35425c0.41557,0.5466 0.37825,1.27421 -0.08337,1.62517z" fill="#858585" stroke="none" stroke-width="0" stroke-linecap="butt"/><path d="M227.09066,136.78788l2.22888,-1.69457l4.67044,6.14305c0,0 0.18024,1.80174 -0.18036,2.0759c-0.38121,0.28983 -2.04852,-0.38132 -2.04852,-0.38132z" fill="#c7c7c7" stroke="#000000" stroke-width="0.5" stroke-linecap="butt"/><path d="M226.96247,136.23025l1.79549,-1.36507l0.51894,0.68257l-1.79549,1.36507z" fill="#888888" stroke="#000000" stroke-width="1" stroke-linecap="butt"/><path d="M227.43899,146.75552l1.08977,1.43338c0,0 -0.94074,0.2844 -1.32201,0.57428c-0.4019,0.30555 -1.0307,1.21444 -1.0307,1.21444c0,0 -0.32791,-1.61347 -0.11402,-2.15918c0.20685,-0.52774 1.37696,-1.06293 1.37696,-1.06293z" fill="#5b5b5b" stroke="none" stroke-width="0" stroke-linecap="butt"/><path d="M239.91889,154.96699l4.13147,-3.14107l0.85789,1.12839l-4.13147,3.14107z" fill="#5b5b5b" stroke="#000000" stroke-width="1.5" stroke-linecap="butt"/><path d="M263.67059,185.01002l2.82521,-2.14795l2.87711,3.78428c0,0 -0.73106,1.11686 -1.21314,1.48337c-0.45848,0.34857 -1.61207,0.66458 -1.61207,0.66458z" fill="#393939" stroke="#000000" stroke-width="1.5" stroke-linecap="butt"/><path d="M251.57294,170.78732l3.33931,-2.53881l1.00671,1.32413l-3.33931,2.53881z" fill="#000000" stroke="#000000" stroke-width="0.5" stroke-linecap="butt"/><path d="M253.67812,173.62697l8.23199,-6.25862l1.00671,1.32413l-8.23199,6.25862z" fill="#000000" stroke="#000000" stroke-width="0.5" stroke-linecap="butt"/><path d="M255.83969,167.67457l3.08175,4.11346l-0.93548,0.67454l-3.08175,-4.11346z" fill="#000000" stroke="#000000" stroke-width="0.5" stroke-linecap="butt"/><path d="M255.80244,167.53943l5.63755,0.09805l-1.0957,0.94866l-3.54137,0.26922z" fill="#000000" stroke="#000000" stroke-width="0.5" stroke-linecap="butt"/><path d="M230.02102,132.06435l0.96917,-0.73684l2.09853,2.7602l-0.96917,0.73684z" fill="#000000" stroke="none" stroke-width="0" stroke-linecap="butt"/><path d="M240.34356,156.59764l4.94468,-3.75934l11.01561,14.48888l-4.94468,3.75934z" fill="#4d4d4d" stroke="#000000" stroke-width="1" stroke-linecap="butt"/><path d="M224.2757,135.40667l5.37107,-4.08352l1.17805,1.5495l-5.37107,4.08352z" fill="#222222" stroke="#000000" stroke-width="1" stroke-linecap="butt"/><path d="M204.63422,121.81369c0.88141,-0.69711 10.47014,-8.97545 10.47014,-8.97545l13.26003,17.09634l-4.63514,3.52401c0,0 -1.35437,-2.41311 -3.55132,-5.12535c-1.50663,-1.86 -3.40953,-3.86069 -5.54363,-5.32024c-1.99538,-1.36468 -8.4614,0.86525 -9.18506,0.30162c-0.27267,-0.21237 -0.82897,-1.4899 -0.81502,-1.50093z" fill="#3a3a3a" stroke="#000000" stroke-width="1" stroke-linecap="butt"/><path d="M209.02162,124.70229c0.59131,-0.46427 6.47236,-5.03325 6.47236,-5.03325l7.24399,9.29747l-3.41825,2.37853c0,0 -2.24804,-3.10662 -4.45996,-5.55212c-1.61866,0.02799 -5.05965,0.31163 -5.4771,0.02228c-0.1573,-0.10903 -0.3704,-1.10557 -0.36104,-1.11292z" fill="#303030" stroke="#000000" stroke-width="1" stroke-linecap="butt"/><path d="M231.84521,132.22666l1.68838,-1.28364l3.57322,4.69987l-1.68838,1.28364z" fill="#888888" stroke="#000000" stroke-width="1" stroke-linecap="butt"/><path d="M233.82214,133.48413c-0.35122,0.26703 -0.87458,0.16961 -1.16895,-0.21759c-0.29438,-0.38719 -0.2483,-0.91754 0.10291,-1.18456c0.35122,-0.26703 0.87457,-0.1696 1.16894,0.21759c0.29438,0.38719 0.24831,0.91754 -0.10291,1.18456z" fill="#575757" stroke="#000000" stroke-width="1" stroke-linecap="butt"/><path d="M234.44659,132.23152l1.815,-1.37991l0.48433,0.63703l-1.815,1.37991z" fill="#575757" stroke="#000000" stroke-width="1" stroke-linecap="butt"/><path d="M235.47869,136.87352l0.43817,-0.33313l0.86005,1.13123l-0.43817,0.33313z" fill="#575757" stroke="#000000" stroke-width="0.5" stroke-linecap="butt"/><path d="M236.86656,138.60521l0.43817,-0.33313l0.86005,1.13123l-0.43817,0.33313z" fill="#575757" stroke="#000000" stroke-width="0.5" stroke-linecap="butt"/><path d="M238.3254,140.60038l0.43817,-0.33313l0.86005,1.13123l-0.43817,0.33313z" fill="#575757" stroke="#000000" stroke-width="0.5" stroke-linecap="butt"/><path d="M239.67646,142.36004l0.43817,-0.33313l0.86005,1.13123l-0.43817,0.33313z" fill="#575757" stroke="#000000" stroke-width="0.5" stroke-linecap="butt"/><path d="M241.00185,144.10333l0.43817,-0.33313l0.86005,1.13123l-0.43817,0.33313z" fill="#575757" stroke="#000000" stroke-width="0.5" stroke-linecap="butt"/><path d="M242.35293,145.86298l0.43818,-0.33314l0.86005,1.13123l-0.43818,0.33314z" fill="#575757" stroke="#000000" stroke-width="0.5" stroke-linecap="butt"/><path d="M243.68812,147.64927l0.43818,-0.33314l0.86005,1.13123l-0.43818,0.33314z" fill="#575757" stroke="#000000" stroke-width="0.5" stroke-linecap="butt"/><path d="M231.87078,152.95591l2.57542,-1.95804l1.04895,1.37969l-2.57542,1.95804z" fill="#585858" stroke="#000000" stroke-width="1.5" stroke-linecap="butt"/><path d="M223.85912,133.42037l4.16634,-3.16759l1.4305,1.88154l-4.16634,3.16759z" fill="#c7c7c7" stroke="#000000" stroke-width="1" stroke-linecap="butt"/><path d="M212.27039,143.77512l11.81395,-1.74946c0,0 1.80331,2.2602 2.11737,3.06947c0.31128,0.80214 -2.37264,2.4174 -2.37264,2.4174l-9.71563,1.54347z" fill="#262626" stroke="#000000" stroke-width="1.5" stroke-linecap="butt"/></g><g stroke="#000000"><path d="M257.69489,128.83252l8.5598,-10.67967l3.10283,2.63401l-8.67085,10.45757z" data-paper-data="{&quot;index&quot;:null}" fill="url(#color-4)" stroke-width="2" stroke-linecap="butt"/><path d="M214.39745,180.31126l40.90278,-51.52647l6.00877,4.81165c0,0 -1.55342,1.29971 -6.15749,7.09959c-4.91939,6.19711 -22.84229,25.80963 -30.01665,34.8474c-3.80876,4.79802 -10.7374,4.76784 -10.7374,4.76784z" data-paper-data="{&quot;index&quot;:null}" fill="url(#color-5)" stroke-width="2" stroke-linecap="butt"/><path d="M255.03825,127.98974l7.15909,5.76192" data-paper-data="{&quot;index&quot;:null}" fill="none" stroke-width="5" stroke-linecap="round"/><path d="M262.11708,129.15491l-2.68415,-2.17829" data-paper-data="{&quot;index&quot;:null}" fill="none" stroke-width="2" stroke-linecap="round"/><path d="M263.8501,127.1638l-2.54288,-2.06365" data-paper-data="{&quot;index&quot;:null}" fill="none" stroke-width="1.5" stroke-linecap="round"/><path d="M262.93935,122.60393l2.47225,2.00633" data-paper-data="{&quot;index&quot;:null}" fill="none" stroke-width="1.5" stroke-linecap="round"/><path d="M264.86734,120.79811l2.47225,2.00633" data-paper-data="{&quot;index&quot;:null}" fill="none" stroke-width="1.5" stroke-linecap="round"/></g><path d="M244.88293,170.079l5.74306,5.19724l3.58223,15.57993" fill="none" stroke="#121212" stroke-width="13" stroke-linecap="round"/><path d="M228.92561,191.76614l2.72575,-15.19444l5.31229,-5.60959" fill="none" stroke="#121212" stroke-width="13" stroke-linecap="round"/><path d="M246.07105,185.42493l-0.8676,-4.8075l13.11032,-0.8829l0.7712,4.8075z" data-paper-data="{&quot;index&quot;:null}" fill="#000000" stroke="none" stroke-width="0" stroke-linecap="butt"/><path d="M248.53989,185.72192c-0.47204,-1.91185 -1.10435,-4.92927 -1.38821,-6.11373c-0.22221,-0.92721 0.72742,-2.04746 1.99547,-2.17714c0.94781,-0.09693 2.84493,-0.36118 4.42921,-0.55987c1.21529,-0.15241 2.5294,0.69114 2.71996,1.48629c0.27405,1.14352 1.04776,4.37198 1.53141,6.39015c0.24048,1.00345 -0.56308,1.80593 -1.80411,1.93147c-1.67285,0.16922 -3.8339,0.38805 -4.75972,0.48273c-0.77523,0.07928 -2.49053,-0.4943 -2.724,-1.43989z" fill="#000000" stroke="none" stroke-width="NaN" stroke-linecap="butt"/><path d="M223.22641,184.85155l0.77119,-4.8075l13.11032,0.8829l-0.86759,4.8075z" fill="#000000" stroke="none" stroke-width="0" stroke-linecap="butt"/><path d="M234.69534,185.4679c-0.16388,0.95908 -1.83022,1.65908 -2.60789,1.63837c-0.92874,-0.02473 -3.09644,-0.08029 -4.77443,-0.12312c-1.24483,-0.03179 -2.10319,-0.77048 -1.93654,-1.78771c0.33517,-2.04588 0.87132,-5.31867 1.06123,-6.47789c0.13205,-0.80605 1.37936,-1.74472 2.60051,-1.68425c1.59192,0.07883 3.50012,0.19945 4.45092,0.22478c1.27203,0.03387 2.29889,1.07799 2.14491,2.01795c-0.19671,1.20071 -0.60739,4.25275 -0.9387,6.1919z" data-paper-data="{&quot;index&quot;:null}" fill="#000000" stroke="none" stroke-width="NaN" stroke-linecap="butt"/><path d="M222.41668,207.51727c0,-0.92587 0,-2.91096 0,-4.52485c0,-1.34585 0.7507,-2.43353 1.45596,-2.43353c1.87421,0 10.2823,0 10.2823,0c0,0 0.45158,1.10638 1.07476,2.43703c0.40404,0.86271 0.20801,3.34035 -0.11973,4.33541c-0.54259,1.64737 -0.95502,2.50541 -0.95502,2.50541c0,0 -8.54707,0 -10.38386,0c-0.66336,0 -1.35442,-1.33914 -1.35442,-2.31945z" fill="#000000" stroke="none" stroke-width="0" stroke-linecap="butt"/><path d="M224.52851,201.49847l-1.86065,-9.18172c0,0 4.32644,1.76961 6.05806,1.78843c1.8084,0.01966 6.51892,-1.67289 6.51892,-1.67289l-2.50286,8.83509z" fill="#000000" stroke="none" stroke-width="0" stroke-linecap="butt"/><path d="M248.45903,207.53582c0,-0.95275 0,-2.99548 0,-4.65622c0,-1.38492 0.72796,-2.50419 1.41186,-2.50419c1.81743,0 9.97084,0 9.97084,0c0,0 0.4379,1.1385 1.0422,2.50777c0.3918,0.88775 0.20171,3.43733 -0.1161,4.46129c-0.52615,1.6952 -0.92609,2.57815 -0.92609,2.57815c0,0 -8.28816,0 -10.06931,0c-0.64327,0 -1.31339,-1.37802 -1.31339,-2.3868z" fill="#000000" stroke="none" stroke-width="0" stroke-linecap="butt"/><path d="M250.51473,202.9986l-2.67439,-10.4984c0,0 4.45811,1.76961 6.18973,1.78843c1.8084,0.01966 6.41533,-2.03983 6.41533,-2.03983l-1.63732,10.65036z" fill="#000000" stroke="none" stroke-width="0" stroke-linecap="butt"/><path d="M230.95719,132.25559c-3.86709,-0.43853 -5.35067,-18.10628 -3.0703,-20.56489c2.61532,-2.81976 10.18105,-4.62519 16.61938,-2.45716c5.40824,1.82115 6.96548,7.10097 7.16398,11.66119c0.1669,3.83428 1.68407,8.98413 -1.50328,10.97866c-7.94804,0.33199 -11.21425,0.71128 -19.20976,0.38221z" fill="url(#color-6)" stroke="none" stroke-width="0" stroke-linecap="butt"/><path d="M234.77771,119.33139c1.71877,-0.06717 3.15837,1.06235 3.21544,2.52284c0.05707,1.46049 -1.28999,2.69891 -3.00875,2.76607c-1.71877,0.06717 -3.15837,-1.06235 -3.21544,-2.52284c-0.05707,-1.46049 1.28999,-2.69891 3.00875,-2.76607z" fill="url(#color-7)" stroke="none" stroke-width="0" stroke-linecap="butt"/><path d="M233.81441,122.40309c-0.03561,-0.91124 0.67423,-1.67882 1.58547,-1.71443c0.91124,-0.03561 1.67882,0.67423 1.71443,1.58547c0.03561,0.91124 -0.67423,1.67883 -1.58547,1.71443c-0.91124,0.03561 -1.67882,-0.67423 -1.71443,-1.58547z" fill="#000000" stroke="none" stroke-width="0" stroke-linecap="butt"/><path d="M231.56974,118.52489c0,0 2.06374,-0.5213 3.06271,-0.56034c1.0173,-0.03976 2.9871,0.32392 2.9871,0.32392" fill="none" stroke="#000000" stroke-width="2.5" stroke-linecap="round"/><path d="M242.3451,117.99364c0,0 2.06373,-0.52131 3.06271,-0.56034c1.0173,-0.03976 2.9871,0.32392 2.9871,0.32392" fill="none" stroke="#000000" stroke-width="2.5" stroke-linecap="round"/><path d="M245.22309,118.81303c1.71877,-0.06717 3.15837,1.06235 3.21544,2.52284c0.05707,1.46049 -1.28999,2.6989 -3.00875,2.76607c-1.71877,0.06717 -3.15837,-1.06235 -3.21544,-2.52283c-0.05707,-1.46049 1.28999,-2.69891 3.00875,-2.76607z" fill="url(#color-8)" stroke="none" stroke-width="0" stroke-linecap="butt"/><path d="M244.25979,121.88475c-0.03561,-0.91124 0.67423,-1.67883 1.58547,-1.71443c0.91124,-0.03561 1.67882,0.67423 1.71443,1.58547c0.03561,0.91124 -0.67423,1.67882 -1.58547,1.71443c-0.91124,0.03561 -1.67882,-0.67423 -1.71442,-1.58547z" fill="#000000" stroke="none" stroke-width="0" stroke-linecap="butt"/><path d="M247.0316,132.43436l-0.75974,-0.62994l-0.75725,0.81132l-1.0138,-0.24542l-1.08028,-0.30328l-0.72639,-0.71224l-1.04156,0.0843l-0.63414,-0.3024l-0.84006,0.31573l-1.44471,0.92204l-1.16246,-0.28842l-1.04632,0.50404l-0.88808,0.39631l-1.0145,-0.94643l-1.23768,-0.19908l0.45385,-0.97008l-1.18041,-0.41343l-0.1862,-1.1451l1.0736,-0.30632l0.13207,-0.78401l0.63848,-1.00399l1.01689,-0.05821l1.09057,-0.49408l0.88015,0.03762l0.80683,-0.66345l1.39755,-0.16378l1.46066,-0.79026l0.83627,0.79634l1.22886,0.18505l0.70236,0.68582l0.95392,-0.02497l0.70642,0.6428l0.94419,-0.55358l0.563,1.03055l0.42978,0.49281l0.94124,-0.20112l0.52432,1.66238l-0.59887,1.13578l-0.51165,1.18231z" data-paper-data="{&quot;index&quot;:null}" fill="url(#color-9)" stroke="#000000" stroke-width="0" stroke-linecap="butt"/><path d="M227.11562,115.68619l-0.7721,-1.79178l0.2731,-1.64288l-0.41436,-1.70734l0.99996,-0.42724l0.82304,-0.31404l0.48663,-1.21404l1.55179,0.46455l1.21053,-0.56512l1.34958,-1.31921l1.02622,0.89461l1.67551,-0.70374l1.99147,-0.27489l1.45759,0.00788c0,0 0.30364,0.93836 0.67386,1.17613c0.37393,0.24015 1.55868,0.25772 1.55868,0.25772l1.06947,-0.92049l1.29686,0.19305l1.52199,0.25354l1.37338,-0.14303l1.33813,-0.14621l-0.74937,1.5379l0.57714,0.83123l0.84929,1.03492l0.80355,1.35584c0,0 -0.06089,0.94316 -0.31601,1.18923c-0.22467,0.21671 -1.36791,0.28994 -1.36791,0.28994l-1.55038,-0.38124l-0.80395,1.22897c0,0 -0.95776,0.18077 -1.1821,0.16523c-0.3366,-0.02332 -0.65864,-0.74035 -0.65864,-0.74035l-1.28974,0.38228c0,0 -0.24125,0.08751 -0.58435,0.05259c-0.2359,-0.02401 -0.58667,-0.60018 -0.72473,-0.67054c-0.24221,-0.12345 -0.55079,-0.76986 -0.55079,-0.76986c0,0 -0.60536,-0.03884 -0.90004,0.09357c-0.36411,0.1636 -0.66373,1.54264 -0.66373,1.54264l-1.52745,-0.06788l-1.07394,-0.16085l-1.54698,-0.35425l-1.0084,0.4247l-1.53101,0.93967l-1.45492,0.47511l-1.20064,-1.10013l-1.03924,1.00849z" fill="#000000" stroke="#000000" stroke-width="0.5" stroke-linecap="butt"/><path d="M252.51641,136.45813c0,0 4.65146,7.98261 6.42827,13.32677c1.71389,5.15491 4.05063,18.19092 4.05063,18.19092" fill="none" stroke="#121212" stroke-width="10" stroke-linecap="round"/><path d="M223.92646,132.34543l28.68318,-0.67499c0,0 -0.61043,13.51675 -0.1832,20.08255c0.41984,6.45212 3.0655,19.29461 3.0655,19.29461c0,0 -9.56789,2.43779 -14.34515,2.57048c-4.76832,0.13244 -14.29162,-1.7751 -14.29162,-1.7751c0,0 -0.26309,-12.63092 -0.74464,-19.12532c-0.49435,-6.66692 -2.18407,-20.37221 -2.18407,-20.37221z" fill="#191919" stroke="none" stroke-width="0" stroke-linecap="butt"/><path d="M224.43444,136.08494c0,0 -1.26397,5.88416 -2.88379,10.47601c-1.25354,3.55352 -2.8539,5.53087 -3.40457,8.45986c-3.4498,7.59432 -5.173,10.2795 -10.32191,16.0291" fill="none" stroke="#121212" stroke-width="10" stroke-linecap="round"/><g stroke="#000000"><path d="M211.86455,162.60562c3.39453,2.70934 4.60536,6.8364 2.70446,9.21805c-1.90091,2.38165 -6.19371,2.11601 -9.58825,-0.59333c-3.39453,-2.70934 -4.60536,-6.83639 -2.70445,-9.21805c1.90091,-2.38165 6.19371,-2.11601 9.58824,0.59333z" fill="#1e53b5" stroke-width="1.5" stroke-linecap="butt"/><path d="M197.67919,168.59877c-1.09501,-0.87398 -1.27419,-2.47016 -0.40021,-3.56518c0.87398,-1.09501 2.47016,-1.27419 3.56517,-0.40021c1.09501,0.87398 1.27419,2.47016 0.40021,3.56517c-0.87398,1.09501 -2.47016,1.2742 -3.56517,0.40022z" fill="none" stroke-width="2" stroke-linecap="butt"/><path d="M205.61528,162.11223l9.21769,5.7342" fill="none" stroke-width="1" stroke-linecap="round"/><path d="M202.66676,164.78979l7.21958,8.0343" fill="none" stroke-width="1" stroke-linecap="round"/><path d="M213.8071,171.57169l-9.45781,-7.8733" fill="none" stroke-width="1" stroke-linecap="round"/><path d="M202.0938,166.11764c0,0 -1.65659,-1.3222 -2.18096,-1.74073c-0.29578,-0.23608 -0.02093,-0.99043 -0.02093,-0.99043c0,0 1.28197,-1.92977 1.85188,-2.70821c0.62491,-0.85354 2.42265,-1.02073 2.42265,-1.02073l2.27918,1.00768z" fill="url(#color-10)" stroke-width="1.5" stroke-linecap="butt"/><path d="M212.43097,163.33268c0,0 -0.46938,-0.36877 -0.81192,1.9757c-0.06941,0.47511 1.52919,5.04773 1.3182,5.40561c-0.11001,0.18661 -0.56843,-0.37339 -1.32429,-0.22004c-0.90464,0.18354 -3.14703,-0.4699 -4.04412,-0.19528c-1.14898,0.35173 -1.8043,1.18307 -1.8043,1.18307" fill="none" stroke-width="1" stroke-linecap="round"/><path d="M209.00127,160.91986c0,0 -0.46931,-0.36885 -0.78109,1.93708c-0.06319,0.4673 1.57415,4.9914 1.36934,5.34153c-0.10679,0.18257 -0.56749,-0.37457 -1.31446,-0.23236c-0.894,0.1702 -3.12303,-0.49996 -4.00849,-0.23992c-1.13407,0.33305 -1.77348,1.14445 -1.77348,1.14445" fill="none" stroke-width="1" stroke-linecap="round"/></g><path d="M201.98712,170.67083c1.09704,-2.64891 2.42527,-3.63829 4.96113,-2.58805c1.29359,0.53573 4.43517,1.70674 5.26861,2.76813c0.8004,1.01931 0.15144,3.29085 -0.38599,4.58852c-1.09704,2.64891 -4.4134,2.75345 -6.9493,1.70321c-2.53588,-1.05023 -3.99153,-3.82289 -2.89449,-6.4718z" fill="#000000" stroke="url(#color-11)" stroke-width="0" stroke-linecap="butt"/><path d="M253.59409,136.8771c0,0 3.04235,10.71251 2.56378,15.52429c0.15926,4.90767 -0.14054,17.89685 -0.14054,17.89685c0,0 -9.45809,4.04346 -15.28387,4.47772c-5.82578,0.43426 -14.89848,-2.85836 -14.89848,-2.85836c0,0 -0.05404,-15.66487 0.55064,-20.5626c-0.0142,-2.05375 2.15156,-13.89843 2.15156,-13.89843c0,0 3.09276,-0.63735 6.71156,-0.47622c2.44887,0.10904 6.2697,0.09498 8.75296,0.13457c2.65437,0.0423 1.60327,-0.22443 3.0734,-0.20149z" data-paper-data="{&quot;index&quot;:null}" fill="url(#color-12)" stroke="#000000" stroke-width="2" stroke-linecap="butt"/><path d="M228.54292,165.34218c0,-1.66344 0.0757,-8.56714 0.0757,-8.56714c0,0 2.12007,0 3.19491,0c1.09495,0 3.31558,0 3.31558,0c0,0 0,6.86368 0,8.56714c0,0.74305 -0.58047,1.52371 -1.28695,1.52371c-1.36194,0 -3.3978,-0.07703 -4.08797,-0.07703c-0.40142,0 -1.21125,-0.76311 -1.21125,-1.44668z" fill="url(#color-13)" stroke="#000000" stroke-width="1" stroke-linecap="butt"/><path d="M227.87014,159.54807c0,0 0,-2.75859 0,-3.55055c0,-0.36512 0.6805,-1.01416 1.26173,-1.01416c0.95139,0 3.75032,0 5.25716,0c0.55158,0 1.05143,0.66928 1.05143,1.08549c0,0.81575 0,3.47922 0,3.47922z" fill="#282828" stroke="#000000" stroke-width="1" stroke-linecap="butt"/><text transform="translate(241.68891,141.86005) scale(0.06656,0.06656)" font-size="40" xml:space="preserve" fill="#ffffff" fill-rule="nonzero" stroke="#ffffff" stroke-width="2" stroke-linecap="butt" stroke-linejoin="miter" stroke-miterlimit="10" stroke-dasharray="" stroke-dashoffset="0" font-family="Sans Serif" font-weight="normal" text-anchor="start" style="mix-blend-mode: normal"><tspan x="0" dy="0">S.O.A.S.T</tspan></text><path d="M244.79858,150.46721c-0.30462,-0.56394 -0.48903,-1.20237 -0.51889,-1.88095" fill="#e6e016" stroke="#ff1919" stroke-width="3" stroke-linecap="butt"/><path d="M251.913,131.98039c0,0 1.43413,1.90811 1.4907,2.92744c0.05423,0.97691 -0.32223,3.00167 -0.32223,3.00167l-7.21705,0.07268c0,0 0.95555,-2.82735 0.95491,-2.95487c-0.00446,-0.89417 -0.86493,-2.93059 -0.86493,-2.93059z" fill="#000000" stroke="#000000" stroke-width="0.5" stroke-linecap="butt"/><path d="M244.75067,146.58881c0.34525,-0.61821 0.86008,-1.12883 1.48154,-1.46894" fill="none" stroke="#1921ff" stroke-width="3" stroke-linecap="butt"/><path d="M248.14847,144.66252c0.85164,0.0256 1.63205,0.3346 2.25015,0.8359" fill="none" stroke="#4aff19" stroke-width="3" stroke-linecap="butt"/><path d="M251.59459,147.21633c0.12732,0.37737 0.19634,0.78159 0.19634,1.20192c0,0.28058 -0.03076,0.55398 -0.08908,0.81702" fill="none" stroke="#fff719" stroke-width="3" stroke-linecap="butt"/><path d="M250.96757,150.83121c-0.46781,0.50251 -1.07166,0.8767 -1.75291,1.06389" fill="none" stroke="#ff9319" stroke-width="3" stroke-linecap="butt"/><path d="M246.25241,152.80578l1.91395,-4.54561" fill="none" stroke="#000000" stroke-width="1.5" stroke-linecap="round"/><path d="M246.514,148.33802c0,-0.84019 0.68111,-1.52132 1.52132,-1.52132c0.84019,0 1.52132,0.68111 1.52132,1.52132c0,0.84019 -0.68111,1.52132 -1.52132,1.52132c-0.84019,0 -1.52132,-0.68111 -1.52132,-1.52132z" fill="#ffffff" stroke="none" stroke-width="3" stroke-linecap="butt"/><path d="M234.00397,132.40415c0,0 0.14889,1.8151 0.26187,2.80823c0.12371,1.08755 0.7052,2.93745 0.7052,2.93745l-6.14536,0.02904c0,0 -1.20962,-1.78516 -1.22744,-2.901c-0.01591,-0.99624 -0.03725,-2.96171 -0.03725,-2.96171z" fill="#000000" stroke="#000000" stroke-width="0.5" stroke-linecap="butt"/><path d="M242.19951,108.53343c4.26635,0.73913 3.98283,-4.75337 7.2017,-1.44825c3.68263,3.79034 4.96356,13.0895 5.24012,19.35764c-0.9874,4.90049 -0.4449,4.71907 -5.68389,6.08957c-4.56897,1.02206 -11.34523,1.92277 -15.99255,1.83006c-0.36332,-0.00724 -1.1367,-0.00211 -1.32301,-0.04891c-3.35314,-2.11221 -4.1698,-3.2105 -5.20544,-6.36868c-0.10616,-0.32397 -0.74642,-6.32074 0.08293,-10.02946c0.77863,-4.01404 -0.66853,-3.96143 1.78687,-6.71283c1.82369,-2.04444 6.80564,-1.19171 9.19967,-0.77433z" fill="#3e3e3e" stroke="#000000" stroke-width="1" stroke-linecap="round"/><path d="M248.6601,135.48692c-2.92601,0 -7.49256,-2.51347 -7.49256,-5.81344c0,-1.74284 0.30574,-3.49366 1.02532,-4.83417c0.64289,-1.19766 1.76923,-2.24581 3.14989,-2.24581c1.07765,0 3.11182,-0.03897 4.38128,0.89376c2.17736,1.5998 3.44301,4.80228 3.44301,6.88687c0,0 -1.58094,5.11279 -4.50695,5.11279z" fill="#151515" stroke="#000000" stroke-width="1" stroke-linecap="butt"/><path d="M252.82794,130.25757c0,2.56476 -1.83848,4.64392 -4.10635,4.64392c-2.26788,0 -4.10636,-2.07915 -4.10636,-4.64392c0,-2.56476 1.83848,-4.64391 4.10636,-4.64391c2.26788,0 4.10635,2.07915 4.10635,4.64391z" fill="#313131" stroke="#000000" stroke-width="1" stroke-linecap="butt"/><path d="M249.24464,109.61783c1.30298,0.22714 2.37425,1.09546 3.05097,2.31156c0.67571,1.2202 0.95672,2.7885 0.68263,4.41629c-0.27414,1.62781 -1.05222,3.01143 -2.08859,3.93316c-1.03602,0.9178 -2.33026,1.37336 -3.63323,1.14622c-1.30327,-0.22719 -2.37465,-1.09518 -3.05097,-2.31157c-0.67598,-1.22025 -0.95671,-2.7885 -0.68262,-4.41629c0.27414,-1.62781 1.05187,-3.01152 2.08859,-3.93316c1.03565,-0.91753 2.32994,-1.37343 3.63322,-1.14622z" fill="#000000" stroke="#000000" stroke-width="2" stroke-linecap="butt"/><path d="M250.23737,110.93232c1.06873,0.20143 1.94743,0.97142 2.50247,2.04983c0.55423,1.08204 0.78472,2.47277 0.55991,3.91622c-0.22485,1.44348 -0.86305,2.67043 -1.71311,3.48781c-0.84976,0.81389 -1.91133,1.21785 -2.98005,1.01644c-1.06897,-0.20146 -1.94774,-0.97117 -2.50248,-2.04982c-0.55446,-1.08208 -0.78472,-2.47277 -0.55991,-3.91623c0.22486,-1.44348 0.86276,-2.67052 1.71312,-3.48781c0.84946,-0.81364 1.91108,-1.21792 2.98005,-1.01644z" fill="url(#color-14)" stroke="#000000" stroke-width="2" stroke-linecap="butt"/><path d="M229.1175,113.01983c0,0 0.70531,20.90028 0.09208,20.69666c-0.95399,-0.31679 -0.65146,-1.1366 -2.57773,-1.4533c-1.04015,-0.17101 -3.58777,0.30546 -5.38936,-0.24386c-1.32265,-0.40328 -1.61682,-22.78894 -1.61682,-22.78894c0,0 1.0452,-7.11665 13.39125,-9.36474c14.52498,-0.08153 15.98806,6.63117 15.98806,6.63117c0,0 -2.31806,1.53768 -6.58996,4.43724c-4.25001,2.8847 -10.91328,2.23981 -10.91328,2.23981z" fill="#1e1e1e" stroke="#000000" stroke-width="1.5" stroke-linecap="butt"/><path d="M238.34338,113.62335c1.30298,0.22714 2.37425,1.09545 3.05097,2.31157c0.67571,1.2202 0.95672,2.78851 0.68263,4.41629c-0.27414,1.62781 -1.05222,3.01142 -2.08859,3.93316c-1.03602,0.9178 -2.33025,1.37336 -3.63322,1.14623c-1.30327,-0.22719 -2.37465,-1.09518 -3.05097,-2.31157c-0.67598,-1.22025 -0.95671,-2.78851 -0.68262,-4.41629c0.27414,-1.62781 1.05186,-3.01152 2.08858,-3.93316c1.03565,-0.91753 2.32995,-1.37343 3.63322,-1.14622z" fill="#000000" stroke="#000000" stroke-width="2" stroke-linecap="butt"/><path d="M239.33612,114.93786c1.06873,0.20143 1.94743,0.97142 2.50247,2.04983c0.55423,1.08204 0.78472,2.47277 0.55991,3.91623c-0.22486,1.44348 -0.86305,2.67044 -1.71311,3.48781c-0.84976,0.81389 -1.91133,1.21785 -2.98005,1.01644c-1.06897,-0.20146 -1.94774,-0.97117 -2.50248,-2.04982c-0.55446,-1.08208 -0.78472,-2.47277 -0.55991,-3.91623c0.22486,-1.44348 0.86276,-2.67052 1.71312,-3.48781c0.84946,-0.81364 1.91108,-1.21792 2.98005,-1.01644z" fill="url(#color-15)" stroke="#000000" stroke-width="2" stroke-linecap="butt"/><path d="M243.03895,116.0014c0.77004,1.42157 1.09029,3.24868 0.77794,5.1451c-0.31241,1.89643 -1.19912,3.50839 -2.38019,4.58225c-1.18066,1.06928 -2.65559,1.1394 -4.14046,0.87477c-1.48521,-0.26469 -2.70618,-0.81532 -3.47693,-2.23243c-0.77036,-1.42162 -1.09029,-3.24868 -0.77794,-5.1451c0.31241,-1.89643 1.19872,-3.39335 2.3802,-4.46709c1.18024,-1.06894 2.65525,-1.02435 4.14047,-0.75963c0,0 2.70573,0.58535 3.47692,2.00214z" fill="url(#color-16)" stroke="#000000" stroke-width="0" stroke-linecap="butt"/><path d="M253.61661,112.02054c0.71348,1.43689 1.0102,3.28371 0.72079,5.20054c-0.28946,1.91687 -1.11102,3.54621 -2.20533,4.63162c-1.09392,1.08079 -2.46051,1.15167 -3.83629,0.8842c-1.37611,-0.26754 -2.50738,-0.8241 -3.22149,-2.25648c-0.71377,-1.43695 -1.0102,-3.28371 -0.72079,-5.20055c0.28946,-1.91687 1.11065,-3.42992 2.20534,-4.51523c1.09354,-1.08047 2.46017,-1.03539 3.83629,-0.76781c0,0 2.50697,0.59165 3.22149,2.02371z" fill="url(#color-17)" stroke="#000000" stroke-width="0" stroke-linecap="butt"/><path d="M226.04856,109.79518l0.9632,0.9632" fill="none" stroke="#000000" stroke-width="1" stroke-linecap="round"/><path d="M226.18616,110.75838l0.9632,-1.10081" fill="none" stroke="#000000" stroke-width="1" stroke-linecap="round"/><path d="M241.2873,103.68703l0.68466,1.1776" fill="none" stroke="#000000" stroke-width="1" stroke-linecap="round"/><path d="M242.00139,103.72562l-1.21282,0.81767" fill="none" stroke="#000000" stroke-width="1" stroke-linecap="round"/><path d="M230.34672,160.73334v-2.84375h2.56855v2.84375z" fill="#000000" stroke="none" stroke-width="0" stroke-linecap="butt"/><path d="M265.46823,157.87173" fill="none" stroke="url(#color-18)" stroke-width="10" stroke-linecap="round"/><path d="M258.16049,171.38698c-0.62421,-2.88747 -0.07927,-4.50464 2.685,-5.10222c1.41009,-0.30484 4.75832,-1.15536 6.08689,-0.74499c1.27589,0.39408 2.05838,2.69906 2.36418,4.11361c0.62421,2.88747 -2.12396,4.92109 -4.88825,5.51867c-2.76427,0.59758 -5.62361,-0.89757 -6.24781,-3.78505z" fill="#000000" stroke="url(#color-19)" stroke-width="0" stroke-linecap="butt"/><path d="M238.04292,165.21718c0,-1.66344 0.0757,-8.56714 0.0757,-8.56714h6.51049c0,0 0,6.86368 0,8.56714c0,0.74305 -0.58047,1.52371 -1.28695,1.52371c-1.36194,0 -3.3978,-0.07703 -4.08797,-0.07703c-0.40142,0 -1.21125,-0.76311 -1.21125,-1.44668z" fill="url(#color-20)" stroke="#000000" stroke-width="1" stroke-linecap="butt"/><path d="M237.513,159.42307c0,0 0,-2.75859 0,-3.55055c0,-0.36512 0.6805,-1.01416 1.26173,-1.01416c0.95139,0 3.75032,0 5.25716,0c0.55158,0 1.05143,0.66928 1.05143,1.08549c0,0.81575 0,3.47922 0,3.47922z" fill="#282828" stroke="#000000" stroke-width="1" stroke-linecap="butt"/><path d="M239.84672,160.60834v-2.84375h2.56855v2.84375z" fill="#000000" stroke="none" stroke-width="0" stroke-linecap="butt"/><path d="M247.41792,165.09218c0,-1.66344 0.0757,-8.56714 0.0757,-8.56714h6.51049c0,0 0,6.86368 0,8.56714c0,0.74305 -0.58047,1.52371 -1.28695,1.52371c-1.36194,0 -3.3978,-0.07703 -4.08797,-0.07703c-0.40142,0 -1.21125,-0.76311 -1.21125,-1.44668z" fill="url(#color-21)" stroke="#000000" stroke-width="1" stroke-linecap="butt"/><path d="M246.888,159.29807c0,0 0,-2.75859 0,-3.55055c0,-0.36512 0.6805,-1.01416 1.26173,-1.01416c0.95139,0 3.75032,0 5.25716,0c0.55158,0 1.05143,0.66928 1.05143,1.08549c0,0.81575 0,3.47922 0,3.47922z" fill="#282828" stroke="#000000" stroke-width="1" stroke-linecap="butt"/><path d="M249.22172,160.48334v-2.84375h2.56855v2.84375z" fill="#000000" stroke="none" stroke-width="0" stroke-linecap="butt"/><g stroke="#000000" stroke-width="1" stroke-linecap="butt"><path d="M231.32761,150.85035c0,-1.20307 0.0628,-6.19616 0.0628,-6.19616h5.40093c0,0 0,4.96414 0,6.19616c0,0.5374 -0.48154,1.10201 -1.06762,1.10201c-1.12983,0 -2.81873,-0.05571 -3.39128,-0.05571c-0.33301,0 -1.00482,-0.55191 -1.00482,-1.0463z" fill="url(#color-22)"/><path d="M230.888,146.65978c0,0 0,-1.99513 0,-2.56792c0,-0.26407 0.56452,-0.7335 1.0467,-0.7335c0.78925,0 3.11116,0 4.3612,0c0.45758,0 0.87224,0.48405 0.87224,0.78508c0,0.58998 0,2.51634 0,2.51634z" fill="#282828"/></g></g></g></svg>