<svg version="1.1" xmlns="http://www.w3.org/2000/svg" xmlns:xlink="http://www.w3.org/1999/xlink" width="175.805" height="87.1697" viewBox="0,0,175.805,87.1697"><defs><linearGradient x1="230.8818" y1="169.1022" x2="230.8818" y2="189.97157" gradientUnits="userSpaceOnUse" id="color-1"><stop offset="0" stop-color="#1a1a1a"/><stop offset="1" stop-color="#181818"/></linearGradient><linearGradient x1="249.88374" y1="169.1022" x2="249.88374" y2="189.97157" gradientUnits="userSpaceOnUse" id="color-2"><stop offset="0" stop-color="#1a1a1a"/><stop offset="1" stop-color="#181818"/></linearGradient><linearGradient x1="202.52798" y1="136.91954" x2="202.52798" y2="153.9421" gradientUnits="userSpaceOnUse" id="color-3"><stop offset="0" stop-color="#1a1a1a"/><stop offset="1" stop-color="#181818"/></linearGradient><linearGradient x1="239.03255" y1="144.25466" x2="239.03255" y2="173.53203" gradientUnits="userSpaceOnUse" id="color-4"><stop offset="0" stop-color="#1a1a1a"/><stop offset="1" stop-color="#181818"/></linearGradient><linearGradient x1="239.34149" y1="151.8308" x2="239.34149" y2="165.44221" gradientUnits="userSpaceOnUse" id="color-5"><stop offset="0" stop-color="#1a1a1a"/><stop offset="1" stop-color="#181818"/></linearGradient><linearGradient x1="238.82782" y1="144.7612" x2="238.82782" y2="160.17743" gradientUnits="userSpaceOnUse" id="color-6"><stop offset="0" stop-color="#1a1a1a"/><stop offset="1" stop-color="#181818"/></linearGradient><linearGradient x1="262.54184" y1="147.55051" x2="262.54184" y2="174.02546" gradientUnits="userSpaceOnUse" id="color-7"><stop offset="0" stop-color="#1a1a1a"/><stop offset="1" stop-color="#181818"/></linearGradient><linearGradient x1="275.11412" y1="135.04088" x2="275.11412" y2="194.70967" gradientUnits="userSpaceOnUse" id="color-8"><stop offset="0" stop-color="#1a1a1a"/><stop offset="1" stop-color="#181818"/></linearGradient><linearGradient x1="175.61839" y1="146.90933" x2="146.32492" y2="137.38375" gradientUnits="userSpaceOnUse" id="color-9"><stop offset="0" stop-color="#051b00"/><stop offset="1" stop-color="#186600"/></linearGradient></defs><g transform="translate(-109.81567,-108.68366)"><g data-paper-data="{&quot;isPaintingLayer&quot;:true}" fill-rule="nonzero" stroke-linejoin="miter" stroke-miterlimit="10" stroke-dasharray="" stroke-dashoffset="0" style="mix-blend-mode: normal"><path d="M236.53211,175.45815c0,0 -10.22924,-0.999 -12.01253,-1.55761c-0.74573,-0.23359 0.33977,-2.55149 0.33977,-2.55149" fill="none" stroke="#0a1e00" stroke-width="2.5" stroke-linecap="round"/><path d="M255.20465,170.63541c0,0 1.0855,2.3179 0.33977,2.55149c-1.78329,0.55862 -12.21253,1.95762 -12.21253,1.95762" data-paper-data="{&quot;index&quot;:null}" fill="none" stroke="#0a1e00" stroke-width="2.5" stroke-linecap="round"/><path d="M241.73501,194.77159c0,0 1.05638,-2.22416 1.05638,-3.12817c0,-1.06871 2.17567,-2.39857 2.17567,-2.39857c0,0 1.63027,0.61286 4.43565,0.61286c2.92031,0 4.1718,-0.771 4.1718,-0.771c0,0 2.47371,1.40263 2.47371,2.36918c0,1.02983 2.58629,3.31571 2.58629,3.31571c0,0 -1.49872,0.29509 -2.90952,0.21408c-1.0854,-0.06233 -0.65403,-0.27346 -1.52322,-0.28088c-1.72751,-0.01478 -2.35322,0.32202 -3.04279,0.19484c-0.22949,-0.04235 -2.02263,-0.26447 -3.55324,-0.24874c-1.37073,0.01407 -2.48467,0.26462 -2.83393,0.25841c-1.97334,-0.03507 0.02323,-0.24027 -0.86166,-0.24027c-1.0968,0 -2.75795,0.1026 -2.75795,0.1026z" data-paper-data="{&quot;index&quot;:null}" fill="#060606" stroke="#000000" stroke-width="1.5" stroke-linecap="butt"/><path d="M223.31553,194.50901c0,0 0.98427,-2.14137 0.98427,-3.01172c0,-1.02893 2.02716,-2.30927 2.02716,-2.30927c0,0 1.51899,0.59005 4.13287,0.59005c2.72098,0 3.88706,-0.7423 3.88706,-0.7423c0,0 2.30487,1.35041 2.30487,2.28097c0,0.99149 2.40976,3.19227 2.40976,3.19227c0,0 -1.39641,0.28411 -2.71094,0.20611c-1.01131,-0.06001 -0.60939,-0.26327 -1.41926,-0.27042c-1.60959,-0.01424 -2.1926,0.31003 -2.8351,0.18758c-0.21383,-0.04077 -1.88455,-0.25462 -3.31069,-0.23948c-1.27717,0.01355 -2.31507,0.25477 -2.64051,0.2488c-1.83866,-0.03376 0.02167,-0.23132 -0.80282,-0.23132c-1.02194,0 -2.56969,0.09877 -2.56969,0.09877z" data-paper-data="{&quot;index&quot;:null}" fill="#060606" stroke="#000000" stroke-width="1.5" stroke-linecap="butt"/><path d="M224.33316,185.19434c0,0 5.24528,-6.01839 7.19905,-5.33342c1.95377,0.68498 6.15176,1.70836 6.15176,1.70836" data-paper-data="{&quot;index&quot;:null}" fill="none" stroke="#0a1e00" stroke-width="2.5" stroke-linecap="round"/><path d="M225.69929,189.97156c0,0 0.73253,-6.37553 0.73253,-9.89068c0,-3.43967 -0.73253,-10.97868 -0.73253,-10.97868h9.04647c0,0 1.31856,7.32551 1.31856,10.85028c0,3.42906 -1.31856,10.01909 -1.31856,10.01909z" fill="url(#color-1)" stroke="#000000" stroke-width="1.5" stroke-linecap="butt"/><path d="M237.67952,182.39227l0.14651,2.05455c0,0 -4.91139,2.34466 -6.86643,2.30015c-1.79088,-0.04077 -6.17263,-1.27286 -6.17263,-1.27286" fill="none" stroke="#0a1e00" stroke-width="2.5" stroke-linecap="round"/><path d="M236.56209,181.71691c0,0 -4.47331,0.37853 -6.0538,-0.28754c-1.75339,-0.73895 -7.68905,-1.74662 -5.61815,-3.88314c0.11617,-0.11987 5.99309,0.37413 8.19072,-0.10008c1.6815,-0.36284 3.86615,-1.60277 3.86615,-1.60277" fill="none" stroke="#0a1e00" stroke-width="2.5" stroke-linecap="round"/><path d="M243.48027,182.46814c0,0 4.09428,-1.02338 5.99979,-1.70836c1.90551,-0.68498 7.0212,5.33342 7.0212,5.33342" data-paper-data="{&quot;index&quot;:null}" fill="none" stroke="#0a1e00" stroke-width="2.5" stroke-linecap="round"/><path d="M244.18627,189.97156c0,0 0.71444,-6.40322 0.71444,-9.76227c0,-3.58295 -0.71444,-11.10709 -0.71444,-11.10709h8.82298c0,0 2.57197,7.41458 2.57197,10.97869c0,3.38289 -2.57197,9.89068 -2.57197,9.89068z" fill="url(#color-2)" stroke="#000000" stroke-width="1.5" stroke-linecap="butt"/><path d="M256.34442,186.37296c0,0 -4.27349,1.23209 -6.02014,1.27286c-1.90674,0.04451 -6.6968,-2.30014 -6.6968,-2.30014l0.14288,-2.05455" data-paper-data="{&quot;index&quot;:null}" fill="none" stroke="#0a1e00" stroke-width="2.5" stroke-linecap="round"/><path d="M243.34174,175.32974c0,0 2.13067,1.23993 3.77063,1.60277c2.14334,0.47421 7.87507,-0.01979 7.98837,0.10008c2.01974,2.13652 -3.76928,3.14418 -5.47935,3.88313c-1.54144,0.66608 -5.90425,0.28754 -5.90425,0.28754" data-paper-data="{&quot;index&quot;:null}" fill="none" stroke="#0a1e00" stroke-width="2.5" stroke-linecap="round"/><path d="M204.4814,137.40213c4.02475,-1.43808 12.36294,0.79608 12.36294,0.79608c0,0 2.98468,3.09794 3.4407,4.43852c0.52283,1.53701 -0.47666,4.27506 -0.47666,4.27506c0,0 -1.78749,1.05665 -3.59916,0.98343c-3.09268,-0.12499 -10.34985,-0.98363 -12.92155,-0.06476c-3.20089,0.5958 -15.37981,6.11164 -15.37981,6.11164c0,0 -2.69056,-1.89539 -3.21946,-3.45024c-0.44428,-1.3061 1.40772,-6.58282 1.40772,-6.58282c0,0 14.11433,-4.98086 18.38527,-6.5069z" data-paper-data="{&quot;index&quot;:null}" fill="url(#color-3)" stroke="#000000" stroke-width="2" stroke-linecap="butt"/><path d="" fill="#191919" stroke="#000000" stroke-width="2" stroke-linecap="butt"/><path d="M253.68728,155.31391c0,0 1.68106,0.17507 2.13471,0.54004c0.42848,0.34473 0.51602,1.59248 0.51602,1.59248" fill="none" stroke="#0a1e00" stroke-width="2.5" stroke-linecap="round"/><path d="M251.97759,162.67706l3.03416,0.65074" fill="none" stroke="#0a1e00" stroke-width="2.5" stroke-linecap="round"/><path d="M223.31843,169.93655l0.89887,-4.62275l-0.86987,-2.71428l1.40807,-2.80757l-1.26846,-3.86763l0.96801,-3.20365l-1.16829,-2.00681l1.68398,-1.96243l-2.95321,-1.7468l1.30091,-2.74997h31.71715l-1.79773,2.43978l1.15111,2.49974l-1.32976,2.78265l1.41504,2.3568l-1.57859,3.16416l1.8664,3.02358l-1.72505,2.50185l3.01057,3.37647l-1.012,3.53688c0,0 -10.60235,3.59546 -15.81519,3.59546c-5.35568,0 -15.90196,-3.59546 -15.90196,-3.59546z" fill="url(#color-4)" stroke="#000000" stroke-width="1.5" stroke-linecap="butt"/><path d="M212.38681,140.6096c1.61412,-0.21649 5.47389,-5.31962 7.5695,-5.8013c1.26458,-0.29067 2.86146,2.497 4.14963,2.83845c3.98188,1.05549 7.86562,1.55082 13.07517,1.1719c8.15461,-0.59314 16.79918,1.04986 25.71059,0.9775c0.60586,-0.00492 3.09583,3.39395 3.15124,5.89225c0.03573,1.61131 -2.1093,2.65333 -2.52061,2.81679c-7.28045,2.89342 -5.88124,0.42587 -13.06326,0.94593c-3.85664,0.27927 -10.83469,5.54815 -10.83469,5.54815c0,0 -10.17879,-3.76904 -12.71449,-3.58542c-2.82872,0.20483 -5.36638,-0.69181 -7.71188,-1.45725c-0.61612,-0.20106 -0.96898,0.94873 -1.56038,0.89013c-1.76182,-0.17458 -3.67188,-2.72998 -5.27756,-3.73335c0,0 -0.22048,-6.47064 0.02675,-6.50379z" fill="#060606" stroke="#000000" stroke-width="1.5" stroke-linecap="butt"/><path d="M250.02759,160.43424l-1.92614,2.95342" fill="none" stroke="#0a1e00" stroke-width="2.5" stroke-linecap="round"/><path d="M255.42081,163.77289c0,0 -0.36783,1.56482 -1.24589,2.11547c-1.39732,0.87628 -13.77802,4.04819 -13.77802,4.04819c0,0 -4.88633,-1.33359 -5.90684,-1.92614c-1.0536,-0.61176 -4.63119,-2.39552 -5.42552,-3.61347c-0.98329,-1.50768 1.57323,-2.807 1.57323,-2.807" fill="none" stroke="#0a1e00" stroke-width="2.5" stroke-linecap="round"/><path d="M224.98776,160.69106v-8.86026h28.64741v8.86026c0,0 0.78762,0.51363 -3.34142,0.51363c-2.21724,0 -10.59515,4.23752 -10.59515,4.23752c0,0 -8.55145,-4.49433 -10.00925,-4.49433c-3.32611,0 -4.70157,-0.25682 -4.70157,-0.25682z" fill="url(#color-5)" stroke="#000000" stroke-width="1.5" stroke-linecap="butt"/><path d="M226.87925,153.32749l0.92563,4.04631" fill="none" stroke="#0a1e00" stroke-width="2.5" stroke-linecap="round"/><path d="M247.97307,163.51607c0,0 -5.43127,0.43051 -6.29876,-0.32102c-0.0467,-0.04046 -1.70087,-0.39873 -3.85576,-0.92114c-2.48353,-0.60208 -5.46752,-3.16728 -5.4177,-3.57952c0.06594,-0.54571 2.49486,-1.23172 5.1913,-1.39727c1.56232,-0.09591 4.98345,0.97961 7.82462,1.67605c2.70698,0.66355 10.01201,-1.74917 10.01201,-1.74917" fill="none" stroke="#0a1e00" stroke-width="2.5" stroke-linecap="round"/><path d="M224.6025,155.42627l-0.12841,-8.0898c0,0 1.19396,-0.74419 5.07537,-1.72544c2.26544,-0.57271 9.52663,4.9907 9.52663,4.9907c0,0 6.60998,-6.25718 9.0185,-5.81849c4.14622,0.75517 5.02718,1.78277 5.02718,1.78277v8.86026c0,0 0.7841,0.51364 -3.32648,0.51364c-2.20732,0 -10.54776,4.23752 -10.54776,4.23752c0,0 -8.5132,-4.49434 -9.9645,-4.49434c-3.31124,0 -4.68053,-0.25682 -4.68053,-0.25682z" fill="url(#color-6)" stroke="#000000" stroke-width="1.5" stroke-linecap="butt"/><path d="M226.05601,132.21705c0,-2.56214 -2.75477,-11.99514 -0.40282,-10.63461c1.92666,1.1145 4.20053,3.28286 4.20053,3.28286l2.14929,-2.8953l2.58505,3.19862c0,0 -0.09572,-6.44844 0.60768,-5.71854c0.08517,0.08836 2.16711,2.23835 2.16711,2.23835l3.29087,0.56154l0.10615,2.74119l2.09266,-3.25491c0,0 1.68597,1.95569 2.13093,2.35902c3.39453,3.07693 1.74317,6.84261 2.11544,8.27578c1.07576,4.14156 -4.34132,7.85883 -10.02836,7.85883c-5.68706,0 -11.0145,-3.33234 -11.0145,-8.01281z" data-paper-data="{&quot;index&quot;:null}" fill="#000000" stroke="none" stroke-width="0" stroke-linecap="butt"/><path d="M223.0855,119.49611l2.93991,5.80616l-0.94637,-7.29955l1.78877,4.65804l4.18169,-6.01933c0,0 4.18559,-1.85818 5.18378,-1.85818c0.99963,0 3.08744,0.54999 4.3763,1.09997c0.71563,0.30537 3.31036,2.9385 3.31036,2.9385l3.1293,-3.59273c0,0 -2.94608,5.92569 -0.98161,6.70706c1.96447,0.78136 4.01612,-3.94581 4.01612,-3.94581l-2.18636,10.5547c0,0 -7.64533,1.78178 -11.44297,1.78178c-3.65745,0 -10.93813,-1.78177 -10.93813,-1.78177z" fill="#0b0b0b" stroke="#000000" stroke-width="2" stroke-linecap="butt"/><path d="M238.14296,140.39778c-9.4428,0.73561 -10.72644,-3.59437 -10.72644,-3.59437c0,0 -1.11031,-7.88792 -1.00083,-8.34163c0.08325,-0.34497 4.39707,-1.167 5.41152,1.25628c0.1883,0.4498 -0.68467,3.65191 0.57293,4.84544c0.73943,0.70175 2.97207,0.58631 5.47432,0.62955c2.75914,0.04766 5.03368,0.06033 5.69015,-1.00783c0.67113,-1.09203 -0.59145,-4.36952 -0.49578,-4.7338c0.18507,-0.70459 4.81796,-2.59957 4.81796,-2.59957l0.59695,10.20606c0,0 0.81835,3.58613 -10.34079,3.33987z" fill="#0b0b0b" stroke="#000000" stroke-width="2" stroke-linecap="butt"/><path d="M247.82404,124.27698c0,0 -2.91668,-0.69787 -5.08837,-0.21453c-1.99587,0.4442 -3.94089,2.18225 -5.73411,2.18225c-1.4508,0 -3.53823,-1.30232 -5.77242,-1.74741c-2.42252,-0.48261 -5.26871,-0.32964 -5.26871,-0.32964" fill="none" stroke="#000000" stroke-width="2" stroke-linecap="round"/><path d="M250.31551,137.83296c0,0 1.08059,0.63267 0.45537,1.67471c-0.77465,1.29107 -5.68576,10.86911 -7.99393,14.13675c-2.96779,4.20145 -14.21768,4.14704 -14.21768,4.14704" fill="none" stroke="#0a1e00" stroke-width="2.5" stroke-linecap="round"/><path d="M250.43502,158.11178c0,0 -8.37948,-0.33998 -14.537,-4.85486c-5.67462,-4.16082 -9.09445,-12.46726 -10.66053,-13.72816c-0.86451,-0.69603 0.67131,-1.83409 0.67131,-1.83409" fill="none" stroke="#0a1e00" stroke-width="2.5" stroke-linecap="round"/><g data-paper-data="{&quot;index&quot;:null}" fill="none" stroke="#000000" stroke-width="3" stroke-linecap="round"><path d="M260.65761,167.17637c0,0 6.20912,-3.06113 9.31523,-3.50593c3.32477,-0.47611 10.02209,0.73677 10.02209,0.73677"/><path d="M259.17754,162.82099c0,0 6.20911,-3.06114 9.31522,-3.50594c3.32477,-0.47611 10.02209,0.73677 10.02209,0.73677"/><path d="M258.57992,157.95448c0,0 6.20912,-3.06113 9.31523,-3.50594c3.32477,-0.47611 10.02209,0.73677 10.02209,0.73677"/></g><path d="M265.57272,173.98059c-1.49514,0.26885 -5.24549,-0.7582 -5.24549,-0.7582c0,0 0.02895,-7.72262 -0.64328,-11.81962c-0.6486,-3.9529 -3.32174,-12.34558 -3.32174,-12.34558c0,0 2.95032,-0.23556 4.32769,-0.48324c1.41463,-0.25437 4.05128,-1.02344 4.05128,-1.02344c0,0 2.80084,8.1436 3.44094,12.04471c0.67926,4.13977 0.52409,12.12049 0.52409,12.12049c0,0 -1.87754,2.03904 -3.13349,2.26488z" data-paper-data="{&quot;index&quot;:null}" fill="url(#color-7)" stroke="#000000" stroke-width="2" stroke-linecap="butt"/><path d="M260.6187,176.18108c0,0 -0.47794,-1.39056 -0.42075,-2.19065c0.05671,-0.79339 0.76246,-2.58997 0.76246,-2.58997l8.33207,-0.1763c0,0 0.84839,1.44559 0.8736,2.20558c0.02631,0.79328 -0.7189,2.45852 -0.7189,2.45852c0,0 -3.19702,1.80697 -4.70769,1.85708c-1.42744,0.04735 -4.12079,-1.56426 -4.12079,-1.56426z" fill="#000000" stroke="#000000" stroke-width="2" stroke-linecap="butt"/><path d="M276.91328,194.70967l-9.27797,-58.77218l5.67966,-0.89661l9.27797,58.77218z" fill="url(#color-8)" stroke="#000000" stroke-width="2" stroke-linecap="butt"/><path d="M278.10438,154.17855c0,0 -5.95091,3.3033 -9.25208,3.92227c-3.08405,0.57826 -9.94792,-0.32227 -9.94792,-0.32227" fill="none" stroke="#000000" stroke-width="3" stroke-linecap="round"/><path d="M278.10438,158.77856c0,0 -5.95091,3.3033 -9.25208,3.92227c-3.08405,0.57826 -9.94792,-0.32226 -9.94792,-0.32226" fill="none" stroke="#000000" stroke-width="3" stroke-linecap="round"/><path d="M279.10438,163.57857c0,0 -5.95091,3.3033 -9.25208,3.92227c-3.08405,0.57826 -9.94792,-0.32227 -9.94792,-0.32227" fill="none" stroke="#000000" stroke-width="3" stroke-linecap="round"/><path d="M281.04372,182.70967l-5.60838,-35.5268l3.43326,-0.54199l5.60838,35.52681z" fill="#0d0d0d" stroke="#000000" stroke-width="2" stroke-linecap="butt"/><g><path d="M174.44164,146.39017l-28.75361,-8.32906l6.56802,0.03397" fill="none" stroke="#000000" stroke-width="10" stroke-linecap="round"/><path d="M175.66204,146.77502l-29.61922,-8.52368l6.38143,0.15641" fill="none" stroke="url(#color-9)" stroke-width="5" stroke-linecap="round"/><path d="M193.09076,153.86605l-16.80553,-4.88096c0,0 -0.22227,-1.62495 -0.03591,-2.26661c0.22478,-0.77391 1.29101,-2.05481 1.29101,-2.05481l16.80553,4.88096c0,0 1.01445,1.88523 0.78968,2.65911c-0.18636,0.64167 -2.04478,1.66233 -2.04478,1.66233z" fill="#3d3d3d" stroke="#000000" stroke-width="1.5" stroke-linecap="butt"/><path d="M176.79008,159.19787l-3.6812,-1.0692c0,0 -0.76129,-8.13486 0.28006,-11.72032c1.08008,-3.71877 6.08844,-10.20693 6.08844,-10.20693l3.68121,1.06917c0,0 -5.06214,6.67328 -6.13492,10.36695c-1.04953,3.61367 -0.23357,11.56027 -0.23357,11.56027z" fill="#0a0a0a" stroke="#000000" stroke-width="1.5" stroke-linecap="butt"/></g><path d="M187.67332,154.38229c-0.7347,0.56238 -2.37762,0.98349 -2.37762,0.98349c0,0 -3.26055,-1.57349 -4.11996,-2.97897c-0.90951,-1.48743 -1.1953,-5.71369 -1.1953,-5.71369c0,0 1.13212,-1.77385 1.9132,-2.25146c0.7483,-0.45756 2.67914,-0.55661 2.67914,-0.55661c0,0 2.24648,1.78013 3.0752,3.09959c0.87322,1.39031 2.03762,5.04084 2.03762,5.04084z" data-paper-data="{&quot;index&quot;:null}" fill="#000000" stroke="#000000" stroke-width="2" stroke-linecap="butt"/></g></g></svg>