<svg version="1.1" xmlns="http://www.w3.org/2000/svg" xmlns:xlink="http://www.w3.org/1999/xlink" width="130.99999" height="121.75873" viewBox="0,0,130.99999,121.75873"><defs><radialGradient cx="288.23148" cy="142.978" r="24" gradientUnits="userSpaceOnUse" id="color-1"><stop offset="0" stop-color="#dcdcdc"/><stop offset="1" stop-color="#dcdcdc" stop-opacity="0"/></radialGradient><radialGradient cx="287.16267" cy="142.8252" r="24" gradientUnits="userSpaceOnUse" id="color-2"><stop offset="0" stop-color="#dcdcdc"/><stop offset="1" stop-color="#dcdcdc" stop-opacity="0"/></radialGradient><radialGradient cx="284.82935" cy="125.8252" r="24" gradientUnits="userSpaceOnUse" id="color-3"><stop offset="0" stop-color="#dcdcdc"/><stop offset="1" stop-color="#dcdcdc" stop-opacity="0"/></radialGradient><radialGradient cx="281.82935" cy="119.49186" r="24" gradientUnits="userSpaceOnUse" id="color-4"><stop offset="0" stop-color="#dcdcdc"/><stop offset="1" stop-color="#dcdcdc" stop-opacity="0"/></radialGradient><radialGradient cx="276.82935" cy="113.49186" r="24" gradientUnits="userSpaceOnUse" id="color-5"><stop offset="0" stop-color="#dcdcdc"/><stop offset="1" stop-color="#dcdcdc" stop-opacity="0"/></radialGradient><radialGradient cx="279.496" cy="123.8252" r="24" gradientUnits="userSpaceOnUse" id="color-6"><stop offset="0" stop-color="#dcdcdc"/><stop offset="1" stop-color="#dcdcdc" stop-opacity="0"/></radialGradient><radialGradient cx="275.496" cy="108.15853" r="24" gradientUnits="userSpaceOnUse" id="color-7"><stop offset="0" stop-color="#dcdcdc"/><stop offset="1" stop-color="#dcdcdc" stop-opacity="0"/></radialGradient><radialGradient cx="267.16267" cy="103.15853" r="24" gradientUnits="userSpaceOnUse" id="color-8"><stop offset="0" stop-color="#dcdcdc"/><stop offset="1" stop-color="#dcdcdc" stop-opacity="0"/></radialGradient><radialGradient cx="286.16267" cy="131.8252" r="24" gradientUnits="userSpaceOnUse" id="color-9"><stop offset="0" stop-color="#dcdcdc"/><stop offset="1" stop-color="#dcdcdc" stop-opacity="0"/></radialGradient><radialGradient cx="263.16267" cy="102.8252" r="24" gradientUnits="userSpaceOnUse" id="color-10"><stop offset="0" stop-color="#dcdcdc"/><stop offset="1" stop-color="#dcdcdc" stop-opacity="0"/></radialGradient><radialGradient cx="211.89816" cy="107.31134" r="24" gradientUnits="userSpaceOnUse" id="color-11"><stop offset="0" stop-color="#dcdcdc"/><stop offset="1" stop-color="#dcdcdc" stop-opacity="0"/></radialGradient><radialGradient cx="221.56485" cy="105.31135" r="24" gradientUnits="userSpaceOnUse" id="color-12"><stop offset="0" stop-color="#dcdcdc"/><stop offset="1" stop-color="#dcdcdc" stop-opacity="0"/></radialGradient><radialGradient cx="227.23151" cy="102.64468" r="24" gradientUnits="userSpaceOnUse" id="color-13"><stop offset="0" stop-color="#dcdcdc"/><stop offset="1" stop-color="#dcdcdc" stop-opacity="0"/></radialGradient><radialGradient cx="205.23151" cy="113.31135" r="24" gradientUnits="userSpaceOnUse" id="color-14"><stop offset="0" stop-color="#dcdcdc"/><stop offset="1" stop-color="#dcdcdc" stop-opacity="0"/></radialGradient><radialGradient cx="232.89816" cy="99.31135" r="24" gradientUnits="userSpaceOnUse" id="color-15"><stop offset="0" stop-color="#dcdcdc"/><stop offset="1" stop-color="#dcdcdc" stop-opacity="0"/></radialGradient><radialGradient cx="261.89815" cy="102.31134" r="24" gradientUnits="userSpaceOnUse" id="color-16"><stop offset="0" stop-color="#dcdcdc"/><stop offset="1" stop-color="#dcdcdc" stop-opacity="0"/></radialGradient><radialGradient cx="245.89816" cy="98.31135" r="24" gradientUnits="userSpaceOnUse" id="color-17"><stop offset="0" stop-color="#dcdcdc"/><stop offset="1" stop-color="#dcdcdc" stop-opacity="0"/></radialGradient><radialGradient cx="249.23151" cy="97.97801" r="24" gradientUnits="userSpaceOnUse" id="color-18"><stop offset="0" stop-color="#dcdcdc"/><stop offset="1" stop-color="#dcdcdc" stop-opacity="0"/></radialGradient><radialGradient cx="255.89816" cy="100.64467" r="24" gradientUnits="userSpaceOnUse" id="color-19"><stop offset="0" stop-color="#dcdcdc"/><stop offset="1" stop-color="#dcdcdc" stop-opacity="0"/></radialGradient><linearGradient x1="237.97623" y1="133.62086" x2="223.68117" y2="162.14703" gradientUnits="userSpaceOnUse" id="color-20"><stop offset="0" stop-color="#122639"/><stop offset="1" stop-color="#141f2b"/></linearGradient><linearGradient x1="237.75872" y1="133.6829" x2="223.46361" y2="162.20907" gradientUnits="userSpaceOnUse" id="color-21"><stop offset="0" stop-color="#310b0b"/><stop offset="1" stop-color="#3a0909"/></linearGradient><linearGradient x1="233.43254" y1="116.70484" x2="236.84523" y2="141.06786" gradientUnits="userSpaceOnUse" id="color-22"><stop offset="0" stop-color="#343434"/><stop offset="1" stop-color="#1f1f1f"/></linearGradient><linearGradient x1="239.6384" y1="147.98271" x2="241.11789" y2="184.89651" gradientUnits="userSpaceOnUse" id="color-23"><stop offset="0" stop-color="#0f0f0f"/><stop offset="1" stop-color="#0c0c0c"/></linearGradient><linearGradient x1="236.70634" y1="148.87568" x2="239.18162" y2="166.54657" gradientUnits="userSpaceOnUse" id="color-24"><stop offset="0" stop-color="#1f180f"/><stop offset="1" stop-color="#0d0b07"/></linearGradient><linearGradient x1="239.54482" y1="162.47755" x2="240.25166" y2="167.54423" gradientUnits="userSpaceOnUse" id="color-25"><stop offset="0" stop-color="#1f180f"/><stop offset="1" stop-color="#0d0b07"/></linearGradient><linearGradient x1="240.68665" y1="163.88632" x2="240.8748" y2="168.82422" gradientUnits="userSpaceOnUse" id="color-26"><stop offset="0" stop-color="#0f0f0f"/><stop offset="1" stop-color="#0c0c0c"/></linearGradient><linearGradient x1="248.77251" y1="188.94779" x2="249.14724" y2="194.53589" gradientUnits="userSpaceOnUse" id="color-27"><stop offset="0" stop-color="#1f180f"/><stop offset="1" stop-color="#0d0b07"/></linearGradient><linearGradient x1="231.63016" y1="189.21579" x2="231.1989" y2="194.79981" gradientUnits="userSpaceOnUse" id="color-28"><stop offset="0" stop-color="#1f180f"/><stop offset="1" stop-color="#0d0b07"/></linearGradient><linearGradient x1="236.0544" y1="140.26318" x2="238.77441" y2="159.68115" gradientUnits="userSpaceOnUse" id="color-29"><stop offset="0" stop-color="#0f0f0f"/><stop offset="1" stop-color="#0c0c0c"/></linearGradient><linearGradient x1="236.09234" y1="139.02406" x2="236.65773" y2="143.06054" gradientUnits="userSpaceOnUse" id="color-30"><stop offset="0" stop-color="#0f0f0f"/><stop offset="1" stop-color="#0c0c0c"/></linearGradient><linearGradient x1="288.24742" y1="139.05859" x2="285.19228" y2="125.95431" gradientUnits="userSpaceOnUse" id="color-31"><stop offset="0" stop-color="#1b1b1b"/><stop offset="1" stop-color="#343434"/></linearGradient><linearGradient x1="289.78162" y1="144.46268" x2="292.69656" y2="157.59888" gradientUnits="userSpaceOnUse" id="color-32"><stop offset="0" stop-color="#1b1b1b"/><stop offset="1" stop-color="#343434"/></linearGradient><linearGradient x1="218.83422" y1="151.74613" x2="225.44302" y2="152.62241" gradientUnits="userSpaceOnUse" id="color-33"><stop offset="0" stop-color="#0f0f0f"/><stop offset="1" stop-color="#0c0c0c"/></linearGradient></defs><g transform="translate(-181.23151,-73.97801)"><g data-paper-data="{&quot;isPaintingLayer&quot;:true}" fill-rule="nonzero" stroke-linejoin="miter" stroke-miterlimit="10" stroke-dasharray="" stroke-dashoffset="0" style="mix-blend-mode: normal"><path d="M264.2315,142.978c0,-13.25483 10.74517,-24 24,-24c13.25483,0 24,10.74517 24,24c0,13.25483 -10.74517,24 -24,24c-13.25483,0 -24,-10.74517 -24,-24z" fill="url(#color-1)" stroke="#000000" stroke-width="0" stroke-linecap="butt"/><g stroke="#000000" stroke-width="0" stroke-linecap="butt"><path d="M263.402,146.20602c-1.86718,-13.12266 7.2572,-25.27433 20.37986,-27.14151c13.12266,-1.86718 25.27433,7.2572 27.14151,20.37986c1.86718,13.12266 -7.2572,25.27433 -20.37986,27.14151c-13.12266,1.86718 -25.27433,-7.2572 -27.14151,-20.37986z" fill="url(#color-2)"/><g><path d="M261.06868,129.20602c-1.86718,-13.12266 7.2572,-25.27433 20.37986,-27.14151c13.12266,-1.86718 25.27433,7.2572 27.14151,20.37986c1.86718,13.12266 -7.2572,25.27433 -20.37986,27.14151c-13.12266,1.86718 -25.27433,-7.2572 -27.14151,-20.37986z" fill="url(#color-3)"/><path d="M258.06868,122.87268c-1.86718,-13.12266 7.2572,-25.27433 20.37986,-27.14151c13.12266,-1.86718 25.27433,7.2572 27.14151,20.37986c1.86718,13.12266 -7.2572,25.27433 -20.37986,27.14151c-13.12266,1.86718 -25.27433,-7.2572 -27.14151,-20.37986z" fill="url(#color-4)"/><path d="M253.0687,116.87268c-1.86718,-13.12266 7.2572,-25.27433 20.37986,-27.14151c13.12266,-1.86718 25.27433,7.2572 27.14151,20.37986c1.86718,13.12266 -7.2572,25.27433 -20.37986,27.14151c-13.12266,1.86718 -25.27433,-7.2572 -27.14151,-20.37986z" fill="url(#color-5)"/><path d="M255.73536,127.20602c-1.86718,-13.12266 7.2572,-25.27433 20.37986,-27.14151c13.12266,-1.86718 25.27433,7.2572 27.14151,20.37986c1.86718,13.12266 -7.2572,25.27433 -20.37986,27.14151c-13.12266,1.86718 -25.27433,-7.2572 -27.14151,-20.37986z" fill="url(#color-6)"/><path d="M251.73536,111.53935c-1.86718,-13.12266 7.2572,-25.27433 20.37986,-27.14151c13.12266,-1.86718 25.27433,7.2572 27.14151,20.37986c1.86718,13.12266 -7.2572,25.27433 -20.37986,27.14151c-13.12266,1.86718 -25.27433,-7.2572 -27.14151,-20.37986z" fill="url(#color-7)"/><path d="M243.402,106.53935c-1.86718,-13.12266 7.2572,-25.27433 20.37986,-27.14151c13.12266,-1.86718 25.27433,7.2572 27.14151,20.37986c1.86718,13.12266 -7.2572,25.27433 -20.37986,27.14151c-13.12266,1.86718 -25.27433,-7.2572 -27.14151,-20.37986z" fill="url(#color-8)"/><path d="M262.402,135.20602c-1.86718,-13.12266 7.2572,-25.27433 20.37986,-27.14151c13.12266,-1.86718 25.27433,7.2572 27.14151,20.37986c1.86718,13.12266 -7.2572,25.27433 -20.37986,27.14151c-13.12266,1.86718 -25.27433,-7.2572 -27.14151,-20.37986z" fill="url(#color-9)"/><g><path d="M239.402,106.20602c-1.86718,-13.12266 7.2572,-25.27433 20.37986,-27.14151c13.12266,-1.86718 25.27433,7.2572 27.14151,20.37986c1.86718,13.12266 -7.2572,25.27433 -20.37986,27.14151c-13.12266,1.86718 -25.27433,-7.2572 -27.14151,-20.37986z" fill="url(#color-10)"/><path d="M187.89817,107.31134c0,-13.25483 10.74517,-24 24,-24c13.25483,0 24,10.74517 24,24c0,13.25483 -10.74517,24 -24,24c-13.25483,0 -24,-10.74517 -24,-24z" fill="url(#color-11)"/><path d="M197.56488,105.31135c0,-13.25483 10.74517,-24 24,-24c13.25483,0 24,10.74517 24,24c0,13.25483 -10.74517,24 -24,24c-13.25483,0 -24,-10.74517 -24,-24z" fill="url(#color-12)"/><path d="M203.23151,102.64468c0,-13.25483 10.74517,-24 24,-24c13.25483,0 24,10.74517 24,24c0,13.25483 -10.74517,24 -24,24c-13.25483,0 -24,-10.74517 -24,-24z" fill="url(#color-13)"/><path d="M181.23151,113.31135c0,-13.25483 10.74517,-24 24,-24c13.25483,0 24,10.74517 24,24c0,13.25483 -10.74517,24 -24,24c-13.25483,0 -24,-10.74517 -24,-24z" fill="url(#color-14)"/><path d="M208.89816,99.31135c0,-13.25483 10.74517,-24 24,-24c13.25483,0 24,10.74517 24,24c0,13.25483 -10.74517,24 -24,24c-13.25483,0 -24,-10.74517 -24,-24z" fill="url(#color-15)"/><path d="M237.89816,102.31134c0,-13.25483 10.74517,-24 24,-24c13.25483,0 24,10.74517 24,24c0,13.25483 -10.74517,24 -24,24c-13.25483,0 -24,-10.74517 -24,-24z" fill="url(#color-16)"/><path d="M221.89816,98.31135c0,-13.25483 10.74517,-24 24,-24c13.25483,0 24,10.74517 24,24c0,13.25483 -10.74517,24 -24,24c-13.25483,0 -24,-10.74517 -24,-24z" fill="url(#color-17)"/><path d="M225.23151,97.97801c0,-13.25483 10.74517,-24 24,-24c13.25483,0 24,10.74517 24,24c0,13.25483 -10.74517,24 -24,24c-13.25483,0 -24,-10.74517 -24,-24z" fill="url(#color-18)"/><path d="M231.89816,100.64467c0,-13.25483 10.74517,-24 24,-24c13.25483,0 24,10.74517 24,24c0,13.25483 -10.74517,24 -24,24c-13.25483,0 -24,-10.74517 -24,-24z" fill="url(#color-19)"/></g></g></g><path d="M256.58086,144.09474c0.44268,0.0527 8.7337,-0.61637 9.20796,-0.58187c4.32428,0.31466 1.79151,0.66896 1.82516,1.17729c0.02183,0.3299 2.81621,5.10878 2.49257,5.51247c-0.30863,0.38496 -3.58522,2.42549 -10.72633,2.51021c-5.70469,0.06767 -9.5725,0.79283 -12.2009,-0.36744c-1.09457,-0.48316 -1.36466,-2.00909 -1.79331,-2.46988c-1.00403,-1.07925 -0.09173,-3.54842 1.32799,-4.33597c2.94046,-1.63114 5.38797,-1.97813 9.86687,-1.44483z" data-paper-data="{&quot;index&quot;:null}" fill="#505050" stroke="#000000" stroke-width="1.5" stroke-linecap="butt"/><g stroke="#000000" stroke-width="1.5"><g stroke-linecap="round"><path d="M237.89206,133.60278l-14.24966,28.43557c0,0 -7.26467,-2.62519 -9.47053,-8.54786c-2.42205,-6.50312 1.16742,-13.57223 1.16742,-13.57223l31.1419,15.60586c0,0 2.26177,-5.89691 0.3973,-12.53425c-1.81125,-6.44789 -8.98644,-9.38709 -8.98644,-9.38709z" fill="url(#color-20)"/><path d="M222.89314,147.72306l1.56967,4.12189" fill="none"/><path d="M238.23456,147.79971l-1.40868,-3.69913" fill="none"/><path d="M218.80151,145.84372l3.82357,10.04049" fill="none"/><path d="M242.72528,148.51074l-3.13936,-8.24376" fill="none"/><path d="M236.29751,163.7325c6.43301,-2.4793 9.80305,-7.82083 9.80305,-7.82083l-31.14191,-15.60585c0,0 3.51436,-7.10675 10.17359,-9.05905c6.06485,-1.77805 12.5162,2.47014 12.5162,2.47014l-14.24965,28.43557c0,0 6.64932,3.98857 12.89872,1.58002z" data-paper-data="{&quot;index&quot;:null}" fill="url(#color-21)"/><path d="M225.65189,141.4739l4.2415,-1.20979" data-paper-data="{&quot;index&quot;:null}" fill="none"/><path d="M231.08966,154.80341l3.80648,-1.08572" data-paper-data="{&quot;index&quot;:null}" fill="none"/><path d="M232.02906,136.37422l-10.33183,2.94692" data-paper-data="{&quot;index&quot;:null}" fill="none"/><path d="M229.67071,159.30904l8.48298,-2.41957" data-paper-data="{&quot;index&quot;:null}" fill="none"/></g><path d="M228.0251,141.25046l8.94026,4.48015l-4.48015,8.94026l-8.94026,-4.48015z" fill="#121212" stroke-linecap="butt"/><path d="M232.21007,148.97014l-3.93372,-1.97126" fill="none" stroke-linecap="round"/></g><path d="M245.41015,130.16223c0.66179,4.72451 -3.23425,9.17536 -8.70205,9.94127c-5.46779,0.76591 -10.43682,-2.44318 -11.09862,-7.16767c-0.66179,-4.72451 3.23426,-9.17537 8.70206,-9.94127c5.4678,-0.76591 10.43681,2.44317 11.09861,7.16767z" fill="#505050" stroke="#000000" stroke-width="1.5" stroke-linecap="butt"/><path d="M238.14611,133.34889c-0.15132,-1.08025 0.68847,-2.09081 1.87569,-2.25711c1.18721,-0.1663 2.27233,0.57461 2.42364,1.65487c0.15132,1.08025 -0.68845,2.09082 -1.87567,2.25712c-1.18721,0.1663 -2.27235,-0.57462 -2.42366,-1.65488z" fill="#000000" stroke="#000000" stroke-width="0" stroke-linecap="butt"/><path d="M231.90854,134.05528c-0.15484,-1.10539 0.70447,-2.13944 1.91931,-2.30961c1.21484,-0.17017 2.32518,0.58799 2.48001,1.69337c0.15484,1.10539 -0.70447,2.13945 -1.91929,2.30962c-1.21484,0.17017 -2.3252,-0.58799 -2.48004,-1.69338z" fill="#000000" stroke="#000000" stroke-width="0" stroke-linecap="butt"/><g stroke-width="0.875"><path d="M222.68591,130.63069c-0.94238,-6.72765 3.86906,-12.96249 10.74665,-13.92588c6.87759,-0.96339 13.42498,3.68032 14.36737,10.408c0,0 -2.172,3.34359 -7.46069,4.78533c-6.84164,1.8651 -17.24048,1.67998 -17.65335,-1.26745z" fill="url(#color-22)" stroke="#000000" stroke-linecap="butt"/><path d="M247.64009,126.82237c0.17051,0.44536 -0.24038,2.10212 -0.24038,2.10212c0,0 -2.32764,2.93721 -11.54097,4.12825c-9.82533,1.27013 -12.96827,-1.6408 -12.96827,-1.6408c0,0 -0.55674,-1.00476 -0.50509,-1.39873c0.0605,-0.46136 0.21868,-1.34786 0.21868,-1.34786c0,0 8.21977,1.78733 13.10737,1.0793c4.88761,-0.70804 11.51161,-4.34356 11.51161,-4.34356c0,0 0.25357,0.99424 0.41705,1.42128z" fill="#0e0e0e" stroke="#000000" stroke-linecap="round"/><path d="M225.69212,120.35869c0,0 1.28035,-1.09267 1.84005,-1.51547c0.57134,-0.43161 1.48469,-0.86664 1.48469,-0.86664c0,0 5.51012,0.47771 8.1764,2.2844c2.66629,1.80669 5.65153,6.94555 5.65153,6.94555c0,0 -1.45259,0.72328 -1.94517,0.94628c-0.63012,0.28528 -1.87338,0.61496 -1.87338,0.61496c0,0 -1.94428,-4.7207 -4.72041,-6.50079c-2.77612,-1.78004 -8.61372,-1.9083 -8.61372,-1.9083z" fill="#0e0e0e" stroke="#000000" stroke-linecap="round"/><path d="M226.33108,124.73445c-0.82403,0.67253 -2.53432,0.65255 -2.53432,0.65255c0,0 -2.31553,-3.54886 -3.05889,-5.50394c-0.73436,-1.93139 -1.3746,-6.15644 -1.3746,-6.15644c0,0 2.8709,3.9923 4.27815,5.49251c1.288,1.37311 3.83926,3.16123 3.83926,3.16123c0,0 -0.32554,1.68151 -1.14958,2.35406z" fill="#0e0e0e" stroke="#000000" stroke-linecap="butt"/><path d="M238.27611,117.3454c0,0 1.20315,-1.14678 1.40277,-2.68c0.21808,-1.67514 0.16133,-5.72539 0.16133,-5.72539c0,0 1.80822,3.16791 2.31285,4.82206c0.51079,1.67443 0.73367,5.1645 0.73367,5.1645c0,0 -1.40402,0.59836 -2.36687,0.52595c-0.96285,-0.07242 -2.24372,-2.1071 -2.24372,-2.1071z" data-paper-data="{&quot;index&quot;:null}" fill="#0e0e0e" stroke="#000000" stroke-linecap="butt"/><path d="M241.39375,129.79141c-0.07175,-0.51226 0.32643,-0.99143 0.88942,-1.07029c0.56297,-0.07886 1.0775,0.27246 1.14926,0.78472c0.07175,0.51226 -0.32642,0.99144 -0.88942,1.0703c-0.56297,0.07886 -1.0775,-0.27245 -1.14926,-0.78473z" fill="#000000" stroke="none" stroke-linecap="butt"/><path d="M244.4303,128.29668c-0.07175,-0.51226 0.32642,-0.99143 0.88941,-1.0703c0.56297,-0.07886 1.07751,0.27247 1.14927,0.78473c0.07175,0.51225 -0.32643,0.99143 -0.88942,1.07029c-0.56297,0.07886 -1.0775,-0.27247 -1.14925,-0.78472z" fill="#000000" stroke="none" stroke-linecap="butt"/><path d="M238.42466,130.85478c-0.07175,-0.51226 0.32643,-0.99143 0.88942,-1.07029c0.56297,-0.07886 1.0775,0.27245 1.14926,0.78472c0.07175,0.51226 -0.32643,0.99144 -0.88942,1.0703c-0.56297,0.07886 -1.0775,-0.27246 -1.14926,-0.78473z" fill="#000000" stroke="none" stroke-linecap="butt"/><path d="M234.85768,131.6454c-0.07175,-0.51226 0.32643,-0.99144 0.88942,-1.0703c0.56297,-0.07886 1.07751,0.27245 1.14927,0.78473c0.07175,0.51226 -0.32643,0.99144 -0.88943,1.0703c-0.56297,0.07886 -1.0775,-0.27245 -1.14926,-0.78473z" fill="#000000" stroke="none" stroke-linecap="butt"/><path d="M231.26571,131.85758c-0.07175,-0.51226 0.32643,-0.99143 0.88943,-1.07029c0.56297,-0.07886 1.07751,0.27245 1.14926,0.78472c0.07175,0.51226 -0.32643,0.99144 -0.88942,1.0703c-0.56297,0.07886 -1.07752,-0.27245 -1.14927,-0.78472z" fill="#000000" stroke="none" stroke-linecap="butt"/><path d="M227.43307,131.55056c-0.07175,-0.51226 0.32642,-0.99143 0.88941,-1.07029c0.56297,-0.07886 1.07752,0.27245 1.14927,0.78472c0.07175,0.51226 -0.32643,0.99144 -0.88943,1.0703c-0.56297,0.07886 -1.07749,-0.27245 -1.14925,-0.78473z" fill="#000000" stroke="none" stroke-linecap="butt"/><path d="M224.03379,130.85547c-0.07175,-0.51226 0.32643,-0.99143 0.88942,-1.07029c0.56297,-0.07886 1.07751,0.27246 1.14926,0.78472c0.07175,0.51226 -0.32642,0.99143 -0.88942,1.0703c-0.56297,0.07886 -1.07751,-0.27246 -1.14926,-0.78473z" fill="#000000" stroke="none" stroke-linecap="butt"/><path d="M239.1477,126.38501c-0.07175,-0.51226 0.32643,-0.99143 0.88942,-1.07029c0.56297,-0.07886 1.0775,0.27246 1.14926,0.78472c0.07175,0.51226 -0.32642,0.99144 -0.88941,1.0703c-0.56297,0.07886 -1.07751,-0.27246 -1.14926,-0.78473z" fill="#000000" stroke="none" stroke-linecap="butt"/><path d="M237.06281,123.67261c-0.07175,-0.51226 0.32642,-0.99144 0.88942,-1.0703c0.56297,-0.07886 1.07751,0.27247 1.14926,0.78473c0.07175,0.51226 -0.32644,0.99143 -0.88942,1.07029c-0.56297,0.07886 -1.07751,-0.27246 -1.14926,-0.78472z" fill="#000000" stroke="none" stroke-linecap="butt"/><path d="M234.38122,121.10927c-0.07175,-0.51226 0.32642,-0.99142 0.88942,-1.07029c0.56297,-0.07886 1.0775,0.27246 1.14926,0.78472c0.07175,0.51226 -0.32643,0.99143 -0.88941,1.0703c-0.56297,0.07886 -1.07751,-0.27246 -1.14926,-0.78473z" fill="#000000" stroke="none" stroke-linecap="butt"/><path d="M229.99459,119.78685c-0.07175,-0.51226 0.32644,-0.99144 0.88942,-1.0703c0.56297,-0.07886 1.07751,0.27246 1.14927,0.78473c0.07175,0.51226 -0.32643,0.99144 -0.88942,1.0703c-0.56297,0.07886 -1.07751,-0.27247 -1.14926,-0.78473z" fill="#000000" stroke="none" stroke-linecap="butt"/></g><path d="M224.50766,159.98337c-1.27067,-5.18627 -4.11048,-11.22947 -4.11048,-11.22947l36.6034,1.07575c0,0 -1.38305,5.28586 -3.05507,10.37191c-1.51666,4.61343 1.72665,16.03166 1.2883,20.34538c-0.10802,1.06293 -7.94886,4.10241 -15.08307,4.38834c-6.84118,0.27419 -14.96975,-1.49284 -14.96975,-1.49284c0,0 0.74733,-17.66064 -0.67334,-23.45907z" fill="url(#color-23)" stroke="#000000" stroke-width="1.5" stroke-linecap="butt"/><path d="M245.5741,191.48774c-0.83784,0.13039 -1.73773,-0.79551 -2.70125,-4.42724c-0.29455,-1.11028 -0.84329,-4.21603 -1.08297,-5.41006c-0.31001,-1.54448 -0.14353,-3.18556 -0.30136,-4.59573c-0.34921,-3.12016 -0.77533,-5.44285 -0.77533,-5.44285c0,0 2.67453,-1.14708 4.8329,-1.48299c2.15836,-0.33591 4.99337,0.09985 4.99337,0.09985c0,0 -0.29259,1.88423 -0.19832,4.84443c0.04538,1.42473 0.4454,3.36674 0.50906,4.96046c0.0733,1.83506 -0.23704,2.46103 -0.11409,4.15358c0.13801,1.89984 0.70605,4.76411 0.70605,4.76411c0,0 -5.35889,2.45717 -5.86807,2.53643z" data-paper-data="{&quot;index&quot;:null}" fill="#060606" stroke="#000000" stroke-width="1.5" stroke-linecap="butt"/><path d="M234.97263,189.7556c0,0 -6.30996,-0.12217 -6.84318,-0.27339c-0.87741,-0.24883 -1.3614,-1.48105 -0.74421,-5.19056c0.18869,-1.13405 0.98633,-4.1858 1.26484,-5.37162c0.36026,-1.53386 1.22916,-2.94655 1.68086,-4.29223c0.99941,-2.97741 1.58051,-5.2666 1.58051,-5.2666c0,0 3.11512,0.13275 5.37542,0.77377c2.26029,0.64103 4.8521,2.27689 4.8521,2.27689c0,0 -1.0971,1.57755 -2.27767,4.29854c-0.56818,1.3096 -1.01116,3.24274 -1.6341,4.71332c-0.71726,1.69325 -1.29069,2.12402 -1.898,3.71004c-0.68168,1.78024 -1.35656,4.62184 -1.35656,4.62184z" data-paper-data="{&quot;index&quot;:null}" fill="#060606" stroke="#000000" stroke-width="1.5" stroke-linecap="butt"/><path d="M227.12818,153.40723c-0.54417,0.07119 -6.13031,-5.92417 -3.62236,-7.87577c4.37047,-3.40095 10.3972,-2.77873 12.72086,-3.10421c1.97525,-0.27669 8.62211,-2.96045 13.40664,-0.86462c2.0731,0.90812 -3.10408,8.92054 -3.12275,9.18426c-0.33984,4.79925 1.30121,8.64213 1.83476,9.92778c0.16059,0.38698 0.64709,1.7573 1.25168,3.20389c0.53501,1.28011 1.74609,6.77241 1.93423,7.98444c0.16565,1.06706 -0.0832,3.08682 -0.0832,3.08682c0,0 -5.26073,1.78763 -10.49674,2.58194c-4.40247,0.66786 -8.81772,0.41785 -9.77521,-0.05624c-2.25435,-1.11621 -1.15037,-10.4331 -1.02756,-12.45757c0,0 -1.17437,-11.85221 -3.02036,-11.61074z" fill="#505050" stroke="#000000" stroke-width="1.5" stroke-linecap="butt"/><path d="M228.63756,151.21109l3.34828,-1.67417c0,0 4.33628,4.88239 6.92982,7.06901c2.75654,2.32401 8.96686,6.51803 8.96686,6.51803l-0.46651,2.26916c0,0 -8.09422,-3.8809 -10.93513,-6.24228c-2.8869,-2.3996 -7.84338,-7.93976 -7.84338,-7.93976z" fill="url(#color-24)" stroke="#000000" stroke-width="1.5" stroke-linecap="butt"/><path d="M230.70188,163.71116c0,0 6.65834,0.74275 9.19384,0.69c2.69482,-0.05605 9.14055,-1.62249 9.14055,-1.62249l1.10315,3.19373c0,0 -6.95581,1.34865 -9.71254,1.42911c-2.80135,0.08174 -10.38385,-0.58568 -10.38385,-0.58568z" fill="url(#color-25)" stroke="#000000" stroke-width="1.5" stroke-linecap="butt"/><path d="M238.20161,166.03797c0.06494,-0.45517 0.04497,-1.12757 0.33057,-1.46258c0.55002,-0.64517 1.6504,-0.75122 2.58531,-0.63842c0.80712,0.09738 1.66548,0.39759 2.05918,0.99986c0.29915,0.45762 0.2507,1.14682 0.16868,1.72183c-0.10404,0.72926 -0.3991,1.51653 -1.00784,1.89286c-0.50292,0.31091 -1.26545,0.28568 -1.90804,0.20814c-0.73486,-0.08868 -1.5443,-0.32232 -1.94689,-0.84223c-0.37556,-0.48502 -0.37268,-1.2367 -0.28098,-1.87945z" fill="url(#color-26)" stroke="#000000" stroke-width="1.5" stroke-linecap="butt"/><path d="M251.33887,188.79436c3.49944,0.02775 4.06695,1.83432 4.03923,3.3461c-0.0277,1.51177 -2.26717,2.33668 -5.76661,2.30891c-3.49944,-0.02775 -6.95828,0.44286 -6.93057,-1.06889c0.01159,-0.63185 -0.55341,-2.8037 0.7443,-3.37395c0,0 5.87677,-1.22832 7.91366,-1.21216z" data-paper-data="{&quot;index&quot;:null}" fill="url(#color-27)" stroke="#000000" stroke-width="1.5" stroke-linecap="butt"/><path d="M234.19201,189.43233c3.45922,0.52978 3.76152,2.39911 3.51709,3.89126c-0.24443,1.49214 -2.57912,1.98703 -6.03833,1.45723c-3.45922,-0.52978 -6.94979,-0.56054 -6.70536,-2.05266c0.10217,-0.62365 -0.14521,-2.8541 1.22091,-3.23217c0,0 5.99224,-0.37201 8.00571,-0.06364z" data-paper-data="{&quot;index&quot;:null}" fill="url(#color-28)" stroke="#000000" stroke-width="1.5" stroke-linecap="butt"/><path d="M217.11268,151.54507c-0.12928,-0.17603 0.64997,-4.74838 2.71796,-6.85116c1.67897,-1.70723 6.10765,-3.19343 10.29762,-3.34823c2.04044,-0.07539 4.44935,1.09103 5.63845,0.9192c4.32581,-0.62505 7.03011,-2.75767 7.05405,-2.75877c0.35268,-0.01598 5.7972,-1.62519 7.56011,-0.24528c0.75713,0.59263 3.07177,2.16918 3.46201,2.42999c1.94499,1.29992 3.57366,5.11798 4.51662,8.82679c0.48759,1.63031 -1.0898,4.22343 -2.54018,5.96777c-0.62851,0.7559 -3.06201,-5.56207 -5.618,-5.86298c-1.88163,-0.22152 -3.32637,8.18162 -4.87086,7.50855c-4.7867,-2.08597 -7.28255,-4.50899 -9.73331,-4.97875c-2.39939,-0.45991 -4.28295,-2.40811 -7.22158,-2.14466c-2.93865,0.26344 -5.38667,-0.5612 -7.85519,-1.03626c0,0 -2.70741,2.52712 -3.40768,1.57379z" data-paper-data="{&quot;index&quot;:null}" fill="url(#color-29)" stroke="#000000" stroke-width="1.5" stroke-linecap="butt"/><path d="M229.15961,154.00074c0.03996,1.04858 -1.46835,1.95734 -3.3689,2.02976c-1.90055,0.07243 -3.47365,-0.7189 -3.51361,-1.76748c-0.03996,-1.04858 1.46835,-1.95734 3.3689,-2.02976c1.90055,-0.07243 3.47365,0.7189 3.51361,1.76748z" fill="#000000" stroke="none" stroke-width="NaN" stroke-linecap="butt"/><path d="M230.47299,142.92915l-0.41121,-2.93563c0,0 3.8657,0.68876 5.75927,0.40397c2.10923,-0.31722 6.31899,-2.22056 6.31899,-2.22056l0.42835,3.05794c0,0 -3.60418,1.5026 -5.52351,1.77145c-2.09677,0.29371 -6.5719,-0.07717 -6.5719,-0.07717z" fill="url(#color-30)" stroke="#000000" stroke-width="1" stroke-linecap="butt"/><path d="M251.54815,145.68192c0.01378,0.34279 0.22879,7.39225 -0.16863,7.80913c-0.37898,0.39751 -6.7736,-0.65588 -15.22044,-0.62054c-6.74776,0.02822 -11.05961,1.11327 -14.12512,-0.11111c-1.27659,-0.50988 -1.38544,-2.33848 -1.87547,-2.82018c-1.14778,-1.12829 -0.72541,-3.09622 0.98202,-3.90368c3.5364,-1.67238 8.55219,-1.96335 13.82864,-1.37646c0,0 16.55545,0.43673 16.579,1.02284z" data-paper-data="{&quot;index&quot;:null}" fill="#505050" stroke="#000000" stroke-width="1.5" stroke-linecap="butt"/><g stroke="#000000"><g data-paper-data="{&quot;index&quot;:null}" stroke-linecap="round"><path d="M274.58804,130.58353l-0.5831,-3.20991l3.59194,0.34777l0.40686,-3.75066l3.05643,0.42817l1.79409,-3.21935l3.42862,1.53046l1.9398,-2.80073l2.38127,2.70463l2.55503,-1.94395l0.61565,3.18183l2.85502,-1.43696l0.40565,4.59628" data-paper-data="{&quot;index&quot;:null}" fill="#000000" stroke-width="0.5"/><path d="M274.70059,131.65183c0,0 3.6043,-6.88378 9.28497,-8.0693c9.10424,-1.89999 13.22436,4.09709 13.22436,4.09709l-4.87116,11.00543l-13.67707,3.75379z" data-paper-data="{&quot;index&quot;:null}" fill="#000000" stroke-width="0.5"/><path d="M285.29128,124.56354l0.78233,4.83563" data-paper-data="{&quot;index&quot;:null}" fill="#000000" stroke-width="0.5"/><path d="M280.7322,125.67871l0.75671,3.45038" data-paper-data="{&quot;index&quot;:null}" fill="#000000" stroke-width="0.5"/><path d="M277.41254,131.54228l-0.4573,-2.51737l2.81703,0.27277l0.31904,-2.94152l2.39702,0.33578l1.40702,-2.52477l2.68893,1.2003l1.52127,-2.19648l1.8675,2.12108l2.00378,-1.52455l0.48284,2.49537l2.23907,-1.12696l0.31815,3.60468" data-paper-data="{&quot;index&quot;:null}" fill="#343434" stroke-width="0"/><path d="M277.50073,132.38003c0,0 2.82668,-5.39861 7.28178,-6.32834c7.14005,-1.49002 10.37126,3.21313 10.37126,3.21313l-3.82024,8.63107l-10.72629,2.94393z" data-paper-data="{&quot;index&quot;:null}" fill="url(#color-31)" stroke-width="0"/><path d="M282.23112,127.69569l0.59344,2.70596" data-paper-data="{&quot;index&quot;:null}" fill="#585858" stroke-width="0"/></g><g data-paper-data="{&quot;index&quot;:null}"><g data-paper-data="{&quot;index&quot;:null}" fill="#000000" stroke-width="0.5"><g data-paper-data="{&quot;index&quot;:null}"><path d="M302.91664,151.52241l1.62278,4.31934l-3.1957,-0.06033l0.82152,3.135l-3.14455,-0.64722l-0.97677,3.46861l-2.96056,-1.68581l-2.42899,2.86316l-3.01029,-2.12627l-2.57034,1.70835l-1.98946,-3.20546l-3.08792,1.86753l-0.86302,-3.14621" stroke-linecap="round"/><g data-paper-data="{&quot;index&quot;:null}"><path d="M297.72173,142.22198l-55.35103,11.93042l-2.95785,-4.48294l56.24637,-11.59922c0,0 2.73091,0.99585 3.0865,1.68609c0.30497,0.59195 -1.13917,1.94638 -1.13917,1.94638z" stroke-linecap="butt"/><path d="M279.67695,145.56227l13.95485,-2.53287l9.15301,7.81474c0,0 -1.12005,7.18929 -10.15015,9.41511c-5.63441,1.38885 -11.8621,-3.25803 -11.8621,-3.25803z" stroke-linecap="round"/></g></g><path d="M292.00075,154.11179l1.38674,4.69811" stroke-linecap="round"/><path d="M287.98416,156.33879l0.81052,3.43813" stroke-linecap="round"/><path d="M297.63993,156.97676l-1.02042,-3.49078" stroke-linecap="round"/></g><path d="M300.34869,150.8364l1.27267,3.38749l-2.50624,-0.04733l0.64426,2.45863l-2.46612,-0.50758l-0.76603,2.72026l-2.3218,-1.32213l-1.90497,2.24547l-2.36082,-1.66754l-2.01581,1.33976l-1.56024,-2.51396l-2.42176,1.46466l-0.67682,-2.46745" fill="#343434" stroke-width="0" stroke-linecap="round"/><path d="M282.12278,146.16215l10.94414,-1.98642l7.17829,6.12876c0,0 -0.87839,5.63816 -7.96029,7.38384c-4.41881,1.08925 -9.3029,-2.55511 -9.3029,-2.55511z" fill="url(#color-32)" stroke-width="0" stroke-linecap="round"/><path d="M292.87537,156.55166l-1.08754,-3.68454" fill="#343434" stroke-width="0" stroke-linecap="round"/><path d="M289.27342,157.31001l-0.63568,-2.69634" fill="#585858" stroke-width="0" stroke-linecap="round"/><path d="M296.2104,155.114l-0.80025,-2.73766" fill="#343434" stroke-width="0" stroke-linecap="round"/><path d="M296.8375,141.6279l-53.94613,11.22912l-1.82921,-2.62095l54.40941,-11.37856c0,0 2.1389,0.59894 2.35567,1.01972z" fill="#1f180f" stroke-width="0.5" stroke-linecap="butt"/></g></g><path d="M247.26626,145.76374c1.7751,-1.17986 4.34675,-0.43432 5.74394,1.66518c1.39719,2.0995 1.09083,4.75796 -0.68425,5.9378c-1.7751,1.17986 -4.34673,0.43433 -5.74393,-1.66519c-1.39719,-2.0995 -1.09084,-4.75795 0.68424,-5.9378z" fill="#000000" stroke="#000000" stroke-width="1.5" stroke-linecap="butt"/><path d="M263.64588,146.50206c0.40258,-2.1845 2.56312,-3.55414 4.82573,-3.05917c2.2626,0.49497 3.77045,2.66712 3.36786,4.85162c-0.40258,2.1845 -2.56313,3.55414 -4.82572,3.05917c-2.2626,-0.49497 -3.77046,-2.66713 -3.36788,-4.85163z" fill="#000000" stroke="#000000" stroke-width="1.5" stroke-linecap="butt"/><path d="M220.78676,156.04003c0,0 -2.15946,-1.61809 -2.46476,-3.01452c-0.28657,-1.31072 -0.62426,-4.12007 -0.62426,-4.12007c0,0 1.70688,-4.14494 2.55223,-4.03285c1.21826,0.16154 2.87815,4.921 2.87815,4.921c0,0 4.643,1.75449 4.4847,2.94838c-0.1873,1.41264 -2.69555,3.84573 -2.69555,3.84573z" fill="url(#color-33)" stroke="#000000" stroke-width="1.5" stroke-linecap="butt"/></g></g></svg>