<svg version="1.1" xmlns="http://www.w3.org/2000/svg" xmlns:xlink="http://www.w3.org/1999/xlink" width="93.37394" height="86.28633" viewBox="0,0,93.37394,86.28633"><defs><linearGradient x1="252.82509" y1="148.91687" x2="262.7008" y2="169.53226" gradientUnits="userSpaceOnUse" id="color-1"><stop offset="0" stop-color="#343434"/><stop offset="1" stop-color="#0c0c0c"/></linearGradient><linearGradient x1="239.34591" y1="148.84696" x2="238.838" y2="185.78637" gradientUnits="userSpaceOnUse" id="color-2"><stop offset="0" stop-color="#0f0f0f"/><stop offset="1" stop-color="#0c0c0c"/></linearGradient><linearGradient x1="238.87618" y1="148.2799" x2="238.61964" y2="166.93741" gradientUnits="userSpaceOnUse" id="color-3"><stop offset="0" stop-color="#1f180f"/><stop offset="1" stop-color="#0d0b07"/></linearGradient><linearGradient x1="240.80315" y1="162.04232" x2="240.71736" y2="168.28178" gradientUnits="userSpaceOnUse" id="color-4"><stop offset="0" stop-color="#1f180f"/><stop offset="1" stop-color="#0d0b07"/></linearGradient><linearGradient x1="239.38015" y1="163.93613" x2="239.30667" y2="169.2787" gradientUnits="userSpaceOnUse" id="color-5"><stop offset="0" stop-color="#0f0f0f"/><stop offset="1" stop-color="#0c0c0c"/></linearGradient><linearGradient x1="248.02253" y1="189.37845" x2="248.29762" y2="194.97127" gradientUnits="userSpaceOnUse" id="color-6"><stop offset="0" stop-color="#1f180f"/><stop offset="1" stop-color="#0d0b07"/></linearGradient><linearGradient x1="230.79825" y1="189.14712" x2="230.48371" y2="194.73753" gradientUnits="userSpaceOnUse" id="color-7"><stop offset="0" stop-color="#1f180f"/><stop offset="1" stop-color="#0d0b07"/></linearGradient><linearGradient x1="239.75928" y1="141.51574" x2="239.48969" y2="161.12115" gradientUnits="userSpaceOnUse" id="color-8"><stop offset="0" stop-color="#0f0f0f"/><stop offset="1" stop-color="#0c0c0c"/></linearGradient><linearGradient x1="254.70323" y1="163.28819" x2="271.22382" y2="162.74293" gradientUnits="userSpaceOnUse" id="color-9"><stop offset="0" stop-color="#122639"/><stop offset="1" stop-color="#141f2b"/></linearGradient><linearGradient x1="254.78734" y1="163.45217" x2="271.30795" y2="162.90693" gradientUnits="userSpaceOnUse" id="color-10"><stop offset="0" stop-color="#310b0b"/><stop offset="1" stop-color="#3a0909"/></linearGradient><linearGradient x1="263.5947" y1="160.45183" x2="263.77677" y2="166.57383" gradientUnits="userSpaceOnUse" id="color-11"><stop offset="0" stop-color="#000000"/><stop offset="1" stop-color="#0c0c0c"/></linearGradient><linearGradient x1="264.52808" y1="160.29593" x2="264.71759" y2="166.66781" gradientUnits="userSpaceOnUse" id="color-12"><stop offset="0" stop-color="#0f0f0f"/><stop offset="1" stop-color="#0c0c0c"/></linearGradient><linearGradient x1="238.19543" y1="117.79177" x2="237.83153" y2="142.38995" gradientUnits="userSpaceOnUse" id="color-13"><stop offset="0" stop-color="#343434"/><stop offset="1" stop-color="#1f1f1f"/></linearGradient><linearGradient x1="239.41078" y1="140.23272" x2="239.35475" y2="144.30818" gradientUnits="userSpaceOnUse" id="color-14"><stop offset="0" stop-color="#0f0f0f"/><stop offset="1" stop-color="#0c0c0c"/></linearGradient><linearGradient x1="292.23107" y1="143.17455" x2="293.05001" y2="150.67807" gradientUnits="userSpaceOnUse" id="color-15"><stop offset="0" stop-color="#1b1b1b"/><stop offset="1" stop-color="#343434"/></linearGradient><linearGradient x1="297.65691" y1="137.44561" x2="296.36051" y2="129.49712" gradientUnits="userSpaceOnUse" id="color-16"><stop offset="0" stop-color="#1b1b1b"/><stop offset="1" stop-color="#343434"/></linearGradient></defs><g transform="translate(-219.89959,-109.3601)"><g data-paper-data="{&quot;isPaintingLayer&quot;:true}" fill-rule="nonzero" stroke-linejoin="miter" stroke-miterlimit="10" stroke-dasharray="" stroke-dashoffset="0" style="mix-blend-mode: normal"><path d="M259.39885,171.30778c0,0 -3.08871,-5.97828 -4.87471,-8.75453c-1.57558,-2.44917 -5.28933,-7.04502 -5.28933,-7.04502l0.37026,-9.52069c0,0 7.0878,6.46202 9.91373,10.21368c2.62515,3.4851 6.48396,11.55555 6.48396,11.55555c0,0 -1.32972,2.25027 -2.43503,2.84461c-1.09589,0.58928 -4.16886,0.7064 -4.16886,0.7064z" data-paper-data="{&quot;index&quot;:null}" fill="url(#color-1)" stroke="#000000" stroke-width="1.5" stroke-linecap="butt"/><path d="M224.69233,160.00007c-0.91499,-5.24814 -3.24251,-11.43792 -3.24251,-11.43792l35.75067,3.58992c0,0 -3.3886,4.69304 -5.19948,9.67978c-1.64261,4.52334 0.78553,16.1022 0.1589,20.38541c-0.1544,1.05541 -7.58597,3.66046 -14.22145,3.55484c-6.36292,-0.10128 -13.81662,-2.31128 -13.81662,-2.31128c0,0 1.59347,-17.59311 0.57049,-23.4607z" fill="url(#color-2)" stroke="#000000" stroke-width="1.5" stroke-linecap="butt"/><path d="M247.9763,132.92676c-0.06559,4.77011 -4.27834,8.57084 -9.40942,8.48917c-5.13108,-0.08167 -9.23749,-4.01483 -9.17189,-8.78492c0.06559,-4.77011 4.27835,-8.57084 9.40943,-8.48917c5.13109,0.08168 9.23748,4.01483 9.17189,8.78492z" fill="#505050" stroke="#000000" stroke-width="1.5" stroke-linecap="butt"/><path d="M243.88913,191.70999c-0.78037,0.11846 -1.60444,-0.82016 -2.45186,-4.46523c-0.25907,-1.11436 -0.72796,-4.2276 -0.93491,-5.42492c-0.26769,-1.54874 -0.09127,-3.18728 -0.21929,-4.59955c-0.28327,-3.12482 -0.64857,-5.45332 -0.64857,-5.45332c0,0 2.50075,-1.10891 4.51109,-1.41409c2.01033,-0.30518 4.63928,0.1709 4.63928,0.1709c0,0 -0.29685,1.87987 -0.24838,4.84112c0.02332,1.42524 0.36941,3.37274 0.4075,4.9672c0.04384,1.83592 -0.25284,2.4574 -0.16096,4.15154c0.10314,1.90162 0.59316,4.77366 0.59316,4.77366c0,0 -5.01279,2.38068 -5.48706,2.45268z" data-paper-data="{&quot;index&quot;:null}" fill="#060606" stroke="#000000" stroke-width="1.5" stroke-linecap="butt"/><path d="M232.54737,190.73502c0,0 -5.86273,-0.20679 -6.35639,-0.36514c-0.81233,-0.26058 -0.65445,-1.11263 -0.03462,-4.81353c0.1895,-1.13143 1.92043,-4.42293 2.19404,-5.60492c0.35394,-1.52889 -0.36486,-3.0656 0.0717,-4.40512c0.96593,-2.96374 1.53451,-5.24493 1.53451,-5.24493c0,0 2.89343,0.17451 4.98608,0.84578c2.09264,0.67128 4.48099,2.34175 4.48099,2.34175c0,0 -1.03927,1.56269 -2.17037,4.2676c-0.54437,1.30186 0.1006,3.32395 -0.49668,4.78605c-0.6877,1.68348 -0.92982,2.2998 -1.51402,3.87753c-0.65571,1.77093 -2.69526,4.31489 -2.69526,4.31489z" data-paper-data="{&quot;index&quot;:null}" fill="#060606" stroke="#000000" stroke-width="1.5" stroke-linecap="butt"/><path d="M228.86604,152.14878c-0.50994,-0.01311 -4.78599,-6.79422 -2.2044,-8.33812c4.49882,-2.69048 9.9454,-1.15138 12.12598,-1.11667c1.8536,0.0295 8.34098,-1.60319 12.43661,1.20161c1.7746,1.21529 -4.12245,8.33899 -4.17719,8.59673c-0.9962,4.69035 -0.03671,8.73944 0.27008,10.09172c0.09234,0.40703 0.34385,1.83576 0.69295,3.35794c0.30892,1.34701 0.99097,6.93755 0.99101,8.1641c0.00004,1.07984 -0.28135,3.02252 -0.28135,3.02252c0,0 -5.67419,0.99726 -10.59643,0.9792c-4.13865,-0.01519 -8.51081,-0.91682 -9.32265,-1.53214c-1.9114,-1.44872 0.78311,-10.50862 1.18448,-12.49031c0,0 0.61077,-11.89211 -1.1191,-11.93659z" fill="#505050" stroke="#000000" stroke-width="1.5" stroke-linecap="butt"/><path d="M230.77833,149.39924l3.46543,-1.19306c0,0 3.43708,5.74072 5.60216,8.41622c2.30115,2.84364 6.65599,7.08814 6.65599,7.08814l0.19848,3.35548c0,0 -7.19571,-5.30847 -9.57232,-8.20424c-2.41508,-2.94263 -6.34979,-9.46254 -6.34979,-9.46254z" fill="url(#color-3)" stroke="#000000" stroke-width="1.5" stroke-linecap="butt"/><path d="M230.68158,161.88118c0,0 7.33148,2.13639 10.18144,2.54537c3.02906,0.43469 10.52235,-0.25221 10.52235,-0.25221l0.68273,4.05555c0,0 -8.02708,0.32931 -11.12971,-0.08752c-3.15286,-0.4236 -11.53283,-2.6414 -11.53283,-2.6414z" fill="url(#color-4)" stroke="#000000" stroke-width="1.5" stroke-linecap="butt"/><path d="M236.77187,166.11739c0.08936,-0.48777 0.10502,-1.21494 0.40945,-1.56038c0.58627,-0.66521 1.69624,-0.71682 2.62853,-0.54157c0.80485,0.15129 1.65035,0.52449 2.01347,1.19732c0.27592,0.51123 0.19068,1.25264 0.07782,1.86883c-0.14316,0.7815 -0.48109,1.6147 -1.11202,1.98627c-0.52124,0.30697 -1.28517,0.23614 -1.92596,0.11569c-0.73278,-0.13775 -1.53274,-0.43631 -1.90913,-1.0207c-0.35115,-0.54519 -0.30832,-1.35667 -0.18215,-2.04545z" fill="url(#color-5)" stroke="#000000" stroke-width="1.5" stroke-linecap="butt"/><path d="M247.40774,162.76811l-12.06629,-2.55693c0,0 -6.97308,-1.00804 -8.72997,-3.4664c-1.75691,-2.45839 0.99544,-4.7768 0.99544,-4.7768c0,0 11.7179,1.01971 12.342,1.09786c3.67201,0.45986 9.0887,1.74033 9.0887,1.74033c0,0 2.15689,3.7466 1.59299,4.82345c-0.53323,1.01829 -3.22287,3.13848 -3.22287,3.13848z" data-paper-data="{&quot;index&quot;:null}" fill="#505050" stroke="#000000" stroke-width="1.5" stroke-linecap="butt"/><path d="M250.4096,189.26119c3.25186,0.07705 3.75562,1.89143 3.71007,3.40267c-0.04554,1.51123 -2.13761,2.30452 -5.38947,2.22744c-3.25186,-0.07705 -6.47251,0.34479 -6.42697,-1.16641c0.01903,-0.63162 -0.4776,-2.81122 0.73589,-3.36313c0,0 5.47769,-1.14542 7.37047,-1.10056z" data-paper-data="{&quot;index&quot;:null}" fill="url(#color-6)" stroke="#000000" stroke-width="1.5" stroke-linecap="butt"/><path d="M236.51096,193.15331c-0.2041,1.496 -2.36613,2.02962 -5.58902,1.5574c-3.2229,-0.4722 -6.46722,-0.44494 -6.26314,-1.94093c0.08531,-0.62526 -0.17903,-2.8513 1.08468,-3.25202c0,0 5.56296,-0.47156 7.43888,-0.1967c0,0 3.5327,2.33623 3.32859,3.83224z" data-paper-data="{&quot;index&quot;:null}" fill="url(#color-7)" stroke="#000000" stroke-width="1.5" stroke-linecap="butt"/><path d="M220.75411,149.75936c-0.09366,-0.19378 1.27378,-4.59254 3.47287,-6.3533c1.78542,-1.42955 6.06476,-2.21901 9.93512,-1.72942c1.88479,0.23842 3.931,1.76046 5.04763,1.77303c4.06215,0.04573 6.8499,-1.64694 6.87204,-1.64436c0.3262,0.0383 5.55611,-0.71692 6.97857,0.917c0.61092,0.70172 2.5121,2.61459 2.83332,2.93218c0.78437,0.7754 4.2818,6.58718 3.6968,8.32117c-0.60914,1.80557 -3.51408,1.07374 -3.85793,3.74118c-0.34385,2.66744 0.8219,6.09127 -0.53217,6.58642c-1.35552,0.49568 -1.88529,1.20684 -3.8433,0.62121c-1.69662,-0.50746 -0.70239,-10.02777 -2.025,-10.92973c-4.09903,-2.79537 -7.1015,-1.18864 -11.82993,-0.81253c-4.72843,0.37611 -3.99378,0.50572 -6.09735,1.68623c-2.10357,1.18051 0.15081,2.90253 0.11916,4.48734c-0.03032,1.51807 -1.84055,2.88103 -1.84055,2.88103c0,0 -5.39255,-1.75798 -6.76032,-2.5266c-1.36776,-0.76862 -0.95293,-3.50874 -2.27348,-6.04413c-1.32055,-2.53539 0.33039,-3.43939 0.10451,-3.9067z" data-paper-data="{&quot;index&quot;:null}" fill="url(#color-8)" stroke="#000000" stroke-width="1.5" stroke-linecap="butt"/><path d="M258.30875,167.47179c0.1192,-1.98613 1.94058,-3.48133 4.0682,-3.33963c2.12761,0.1417 3.75575,1.86664 3.63655,3.85277c-0.1192,1.98613 -1.94059,3.48133 -4.06819,3.33964c-2.12761,-0.1417 -3.75576,-1.86664 -3.63656,-3.85277z" fill="#000000" stroke="#000000" stroke-width="1.5" stroke-linecap="butt"/><g stroke="#000000" stroke-width="1.5"><g fill="#000000" stroke-linecap="round"><path d="M253.22072,163.29544l17.15168,-0.56607c0,0 0.7175,7.65101 -1.46746,12.35093c-2.39907,5.16054 -6.67561,5.25965 -6.67561,5.25965l-1.03546,-34.81626c0,0 -3.37096,0.73139 -5.98249,5.46037c-2.53698,4.594 -1.99069,12.31137 -1.99069,12.31137z"/><path d="M267.77288,150.73621c-2.88742,-4.54749 -6.29523,-5.05514 -6.29523,-5.05514l1.03545,34.81625c0,0 -4.27403,0.18308 -6.97505,-4.80913c-2.45994,-4.54662 -2.1985,-12.22994 -2.1985,-12.22994l17.15168,-0.56607c0,0 0.08666,-7.73826 -2.71835,-12.15596z" data-paper-data="{&quot;index&quot;:null}"/></g><g stroke-linecap="round"><path d="M254.71685,163.37112l16.46813,-0.54351c0,0 0.698,7.65166 -1.39439,12.34852c-2.29744,5.15719 -6.40359,5.25067 -6.40359,5.25067l-1.03545,-34.81625c0,0 -3.23588,0.72692 -5.73784,5.45228c-2.43054,4.59049 -1.89685,12.30828 -1.89685,12.30828z" fill="url(#color-9)"/><path d="M266.39016,166.82106l-1.44728,3.29936" fill="none"/><path d="M259.71208,159.45442l1.29885,-2.96097" fill="none"/><path d="M265.15582,174.61561l3.52543,-8.0369" fill="none"/><path d="M257.27498,158.78448l2.89455,-6.59872" fill="none"/><path d="M268.67474,150.83149c-2.77784,-4.55111 -6.05057,-5.06322 -6.05057,-5.06322l1.03545,34.81625c0,0 -4.10364,0.17746 -6.70304,-4.81811c-2.36739,-4.54968 -2.12545,-12.23236 -2.12545,-12.23236l16.46813,-0.54351c0,0 0.07403,-7.73785 -2.62453,-12.15906z" data-paper-data="{&quot;index&quot;:null}" fill="url(#color-10)"/><path d="M261.42015,170.57018l-1.6405,-3.19745" data-paper-data="{&quot;index&quot;:null}" fill="none"/><path d="M264.53462,156.71063l1.47225,2.86951" data-paper-data="{&quot;index&quot;:null}" fill="none"/><path d="M261.47475,175.0706l-3.99609,-7.78866" data-paper-data="{&quot;index&quot;:null}" fill="none"/><path d="M265.1184,152.35592l3.28099,6.3949" data-paper-data="{&quot;index&quot;:null}" fill="none"/></g><path d="M265.52313,163.45218c0.05027,1.69054 -0.73159,3.08815 -1.74636,3.12164c-1.01477,0.03349 -1.87816,-1.30982 -1.92843,-3.00036c-0.05027,-1.69054 0.73159,-3.08815 1.74636,-3.12164c1.01477,-0.03349 1.87816,1.30982 1.92843,3.00036z" fill="url(#color-11)" stroke-linecap="butt"/><path d="M263.10865,163.53187c-0.05233,-1.75955 0.58317,-3.20831 1.41944,-3.23591c0.83626,-0.0276 1.55662,1.37642 1.60895,3.13596c0.05233,1.75955 -0.58317,3.20831 -1.41944,3.23591c-0.83626,0.0276 -1.55662,-1.37642 -1.60895,-3.13596z" fill="url(#color-12)" stroke-linecap="butt"/></g><path d="M242.47251,134.52996c0.12638,-1.08313 1.17369,-1.84621 2.33922,-1.70437c1.16552,0.14185 2.00793,1.13492 1.88154,2.21806c-0.12638,1.08313 -1.17367,1.84623 -2.3392,1.70438c-1.16552,-0.14185 -2.00795,-1.13493 -1.88156,-2.21807z" fill="#000000" stroke="#000000" stroke-width="0" stroke-linecap="butt"/><path d="M234.74575,134.93155c0.01617,-1.11606 1.00284,-2.0061 2.20379,-1.98795c1.20094,0.01814 2.16139,0.93762 2.14522,2.05368c-0.01617,1.11606 -1.00285,2.00611 -2.20377,1.98796c-1.20094,-0.01814 -2.16141,-0.93762 -2.14524,-2.05368z" fill="#000000" stroke="#000000" stroke-width="0" stroke-linecap="butt"/><g stroke-width="0.875"><path d="M225.44026,129.90481c0.10049,-6.79259 5.81118,-12.2158 12.75514,-12.11308c6.94399,0.10273 12.70177,5.69559 12.60129,12.48821c0,0 -2.65907,2.97094 -8.10631,3.58458c-7.04674,0.79383 -17.29418,-0.98382 -17.25016,-3.9597z" fill="url(#color-13)" stroke="#000000" stroke-linecap="butt"/><path d="M250.68334,129.96839c0.1002,0.46624 -0.5599,2.04038 -0.5599,2.04038c0,0 -2.75055,2.54551 -12.03754,2.30953c-9.9039,-0.25167 -12.56324,-3.61015 -12.56324,-3.61015c0,0 -0.39606,-1.07825 -0.28461,-1.45963c0.13054,-0.44663 0.4228,-1.29838 0.4228,-1.29838c0,0 7.84843,3.02676 12.7868,3.07663c4.93837,0.04988 12.04154,-2.5268 12.04154,-2.5268c0,0 0.09811,1.02138 0.19416,1.46842z" fill="#0e0e0e" stroke="#000000" stroke-linecap="round"/><path d="M229.98623,120.21534c0,0 1.43277,-0.88339 2.05069,-1.21536c0.63077,-0.33889 1.60004,-0.62869 1.60004,-0.62869c0,0 5.37169,1.31707 7.72935,3.51129c2.35769,2.19422 4.51954,7.73008 4.51954,7.73008c0,0 -1.54634,0.49196 -2.06728,0.63679c-0.66642,0.18527 -1.94552,0.3204 -1.94552,0.3204c0,0 -1.19733,-4.96304 -3.66764,-7.1478c-2.47029,-2.18473 -8.21919,-3.2067 -8.21919,-3.2067z" fill="#0e0e0e" stroke="#000000" stroke-linecap="round"/><path d="M229.94657,124.63734c-0.91743,0.53821 -2.60442,0.25617 -2.60442,0.25617c0,0 -1.7439,-3.86198 -2.17864,-5.90793c-0.42948,-2.02116 -0.41422,-6.29442 -0.41422,-6.29442c0,0 2.2247,4.38535 3.38523,6.08363c1.06221,1.55439 3.30904,3.71261 3.30904,3.71261c0,0 -0.57956,1.61169 -1.49698,2.14992z" fill="#0e0e0e" stroke="#000000" stroke-linecap="butt"/><path d="M242.88347,119.16752c0,0 1.36478,-0.9487 1.79716,-2.43317c0.47239,-1.62188 1.03745,-5.63292 1.03745,-5.63292c0,0 1.30102,3.40775 1.54599,5.11971c0.24797,1.73294 -0.06702,5.21592 -0.06702,5.21592c0,0 -1.47917,0.37596 -2.41952,0.15676c-0.94035,-0.21922 -1.89405,-2.42626 -1.89405,-2.42626z" data-paper-data="{&quot;index&quot;:null}" fill="#0e0e0e" stroke="#000000" stroke-linecap="butt"/><path d="M244.05552,131.9444c0.00765,-0.5172 0.47461,-0.92964 1.04303,-0.92123c0.5684,0.0084 1.02298,0.43449 1.01533,0.95168c-0.00765,0.5172 -0.4746,0.92965 -1.04303,0.92124c-0.5684,-0.0084 -1.02298,-0.43448 -1.01532,-0.95169z" fill="#000000" stroke="none" stroke-linecap="butt"/><path d="M247.28538,130.93302c0.00765,-0.5172 0.4746,-0.92965 1.04302,-0.92124c0.5684,0.0084 1.02298,0.4345 1.01533,0.95169c-0.00765,0.51719 -0.47461,0.92964 -1.04304,0.92122c-0.5684,-0.0084 -1.02297,-0.43448 -1.01532,-0.95168z" fill="#000000" stroke="none" stroke-linecap="butt"/><path d="M240.95848,132.53985c0.00765,-0.5172 0.47461,-0.92964 1.04303,-0.92123c0.5684,0.0084 1.02298,0.43448 1.01533,0.95168c-0.00765,0.5172 -0.47461,0.92965 -1.04303,0.92124c-0.5684,-0.0084 -1.02298,-0.43449 -1.01532,-0.95169z" fill="#000000" stroke="none" stroke-linecap="butt"/><path d="M237.31247,132.77413c0.00765,-0.5172 0.47461,-0.92965 1.04303,-0.92124c0.5684,0.0084 1.02299,0.43448 1.01533,0.95169c-0.00765,0.5172 -0.47461,0.92965 -1.04304,0.92123c-0.5684,-0.0084 -1.02298,-0.43448 -1.01532,-0.95169z" fill="#000000" stroke="none" stroke-linecap="butt"/><path d="M233.73043,132.43293c0.00765,-0.5172 0.47461,-0.92964 1.04304,-0.92122c0.5684,0.0084 1.02298,0.43448 1.01533,0.95168c-0.00765,0.5172 -0.47461,0.92965 -1.04303,0.92124c-0.5684,-0.0084 -1.02299,-0.43449 -1.01533,-0.95169z" fill="#000000" stroke="none" stroke-linecap="butt"/><path d="M229.99023,131.54179c0.00765,-0.5172 0.4746,-0.92964 1.04302,-0.92123c0.5684,0.0084 1.02299,0.43448 1.01534,0.95168c-0.00765,0.5172 -0.47461,0.92965 -1.04304,0.92123c-0.5684,-0.0084 -1.02297,-0.43447 -1.01531,-0.95169z" fill="#000000" stroke="none" stroke-linecap="butt"/><path d="M226.73773,130.33363c0.00765,-0.5172 0.47461,-0.92964 1.04303,-0.92123c0.5684,0.0084 1.02298,0.43449 1.01533,0.95168c-0.00765,0.5172 -0.4746,0.92965 -1.04303,0.92124c-0.5684,-0.0084 -1.02298,-0.43449 -1.01532,-0.95169z" fill="#000000" stroke="none" stroke-linecap="butt"/><path d="M242.35845,128.23387c0.00765,-0.5172 0.47461,-0.92964 1.04303,-0.92123c0.5684,0.0084 1.02298,0.43449 1.01533,0.95168c-0.00765,0.5172 -0.4746,0.92965 -1.04303,0.92124c-0.5684,-0.0084 -1.02298,-0.43449 -1.01532,-0.95169z" fill="#000000" stroke="none" stroke-linecap="butt"/><path d="M240.71417,125.23382c0.00765,-0.5172 0.4746,-0.92965 1.04303,-0.92124c0.5684,0.0084 1.02297,0.4345 1.01532,0.95169c-0.00765,0.5172 -0.47462,0.92964 -1.04303,0.92123c-0.5684,-0.0084 -1.02298,-0.43449 -1.01533,-0.95168z" fill="#000000" stroke="none" stroke-linecap="butt"/><path d="M238.4574,122.28956c0.00765,-0.5172 0.4746,-0.92964 1.04303,-0.92123c0.5684,0.0084 1.02298,0.43449 1.01533,0.95168c-0.00765,0.5172 -0.47461,0.92965 -1.04303,0.92124c-0.5684,-0.0084 -1.02298,-0.43449 -1.01532,-0.95169z" fill="#000000" stroke="none" stroke-linecap="butt"/><path d="M234.3255,120.31008c0.00765,-0.5172 0.47462,-0.92965 1.04303,-0.92124c0.5684,0.0084 1.02299,0.43449 1.01533,0.95169c-0.00765,0.5172 -0.47461,0.92965 -1.04304,0.92123c-0.5684,-0.0084 -1.02297,-0.4345 -1.01532,-0.95169z" fill="#000000" stroke="none" stroke-linecap="butt"/></g><path d="M233.73383,140.2659c0,0 3.45229,1.27345 5.23203,1.2824c1.98244,0.00999 6.1202,-1.22525 6.1202,-1.22525l-0.04245,3.08745c0,0 -3.52446,0.9321 -5.32558,0.90343c-1.96765,-0.03132 -6.02498,-1.08409 -6.02498,-1.08409z" fill="url(#color-14)" stroke="#000000" stroke-width="1" stroke-linecap="butt"/><g data-paper-data="{&quot;index&quot;:null}" stroke="#000000"><g data-paper-data="{&quot;index&quot;:null}" stroke-linecap="round"><path d="M305.35517,145.10947l0.00672,1.88849l-4.14051,0.87346l-1.2687,2.53906l-3.49532,0.65808l-2.78407,2.62076l-3.69935,0.06209l-2.86669,2.3958l-2.2229,-1.01381l-3.40763,2.03211l-0.05082,-1.86048l-3.65263,1.79736l0.49398,-2.83522" data-paper-data="{&quot;index&quot;:null}" fill="#000000" stroke-width="0.5"/><path d="M305.44861,144.45607c0,0 -5.68096,5.53304 -12.59549,8.03177c-11.08162,4.00464 -14.6497,1.40226 -14.6497,1.40226l8.03691,-8.57368l16.83746,-6.59514z" data-paper-data="{&quot;index&quot;:null}" fill="#000000" stroke-width="0.5"/><path d="M291.63091,149.38085l-0.1026,2.87428" data-paper-data="{&quot;index&quot;:null}" fill="#000000" stroke-width="0.5"/><path d="M296.95251,148.1541l0.15968,1.99023" data-paper-data="{&quot;index&quot;:null}" fill="#000000" stroke-width="0.5"/><path d="M303.35605,144.70368l0.00529,1.48103l-3.24728,0.68501l-0.995,1.99129l-2.74122,0.51612l-2.18344,2.05534l-2.90126,0.04868l-2.24816,1.87887l-1.7433,-0.79506l-2.67245,1.59369l-0.0399,-1.45904l-2.86456,1.40959l0.3874,-2.22356" data-paper-data="{&quot;index&quot;:null}" fill="#343434" stroke-width="0"/><path d="M303.42938,144.19124c0,0 -4.45532,4.3393 -9.87804,6.29891c-8.69084,3.14062 -11.48912,1.09976 -11.48912,1.09976l6.30303,-6.72396l13.20485,-5.17229z" data-paper-data="{&quot;index&quot;:null}" fill="url(#color-15)" stroke-width="0"/><path d="M295.65411,147.74284l0.12517,1.56086" data-paper-data="{&quot;index&quot;:null}" fill="#585858" stroke-width="0"/></g><path d="M312.12629,136.50737l-68.67301,25.63601l-4.52098,-3.37939l69.87096,-25.56444c0,0 3.65161,0.20482 4.22027,0.75142c0.48768,0.46876 -1.13059,2.10516 -1.13059,2.10516z" data-paper-data="{&quot;index&quot;:null}" fill="#000000" stroke-width="0.5" stroke-linecap="butt"/><path d="M310.56579,135.57106l-66.99618,24.61568l-2.7707,-1.94946l67.56275,-24.87622c0,0 2.82988,-0.00749 3.17658,0.3257z" data-paper-data="{&quot;index&quot;:null}" fill="#1f180f" stroke-width="0.5" stroke-linecap="butt"/><g data-paper-data="{&quot;index&quot;:null}" stroke-linecap="round"><path d="M283.10364,135.93941l-0.12036,-1.99444l4.22327,-0.79737l1.15766,-2.64299l3.56993,-0.58943l2.7176,-2.68353l3.81641,0.04607l2.81643,-2.44345l2.35635,1.13768l3.39684,-2.04308l0.16422,1.96618l3.66393,-1.7878l-0.3398,2.97913" data-paper-data="{&quot;index&quot;:null}" fill="#000000" stroke-width="0.5"/><path d="M282.82146,136.34774c0,0 5.53416,-5.67149 12.52438,-8.10146c11.20298,-3.89444 15.04386,-1.03862 15.04386,-1.03862l-7.86392,9.09076l-16.99116,6.45632z" data-paper-data="{&quot;index&quot;:null}" fill="#000000" stroke-width="0.5"/><path d="M297.01958,131.84297l-0.0667,-3.03216" data-paper-data="{&quot;index&quot;:null}" fill="#000000" stroke-width="0.5"/><path d="M291.31347,130.87128l0.28444,2.10655" data-paper-data="{&quot;index&quot;:null}" fill="#000000" stroke-width="0.5"/><path d="M286.30176,135.77391l-0.09443,-1.56414l3.31217,-0.62536l0.90787,-2.07279l2.79975,-0.46229l2.13125,-2.10458l2.9931,0.03616l2.20872,-1.91628l1.848,0.89223l2.66404,-1.6023l0.12886,1.54197l2.87344,-1.40208l-0.26651,2.33643" data-paper-data="{&quot;index&quot;:null}" fill="#343434" stroke-width="0"/><path d="M286.03181,136.03399c0,0 4.34016,-4.44787 9.82226,-6.35357c8.78601,-3.05419 11.79824,-0.81455 11.79824,-0.81455l-6.10496,6.91035l-13.32538,5.06341z" data-paper-data="{&quot;index&quot;:null}" fill="url(#color-16)" stroke-width="0"/><path d="M292.96336,133.45131l-0.22302,-1.65205" data-paper-data="{&quot;index&quot;:null}" fill="#585858" stroke-width="0"/></g></g><path d="M249.93606,161.75401c-1.65931,1.19631 -3.81838,0.61198 -4.82238,-1.30516c-1.00403,-1.91714 -0.47283,-4.44108 1.18647,-5.63741c1.65931,-1.19631 3.81836,-0.61199 4.82238,1.30516c1.00403,1.91714 0.47283,4.44108 -1.18647,5.63741z" fill="#000000" stroke="#000000" stroke-width="1.5" stroke-linecap="butt"/></g></g></svg>