<svg version="1.1" xmlns="http://www.w3.org/2000/svg" xmlns:xlink="http://www.w3.org/1999/xlink" width="15.61538" height="15.83849" viewBox="0,0,15.61538,15.83849"><defs><radialGradient cx="237.60695" cy="178.09535" r="4.58417" gradientUnits="userSpaceOnUse" id="color-1"><stop offset="0" stop-color="#14ac00"/><stop offset="1" stop-color="#14ac00" stop-opacity="0"/></radialGradient><radialGradient cx="240.04723" cy="180.54445" r="7.32844" gradientUnits="userSpaceOnUse" id="color-2"><stop offset="0" stop-color="#14ac00"/><stop offset="1" stop-color="#14ac00" stop-opacity="0"/></radialGradient><radialGradient cx="240.1494" cy="183.33509" r="4.58418" gradientUnits="userSpaceOnUse" id="color-3"><stop offset="0" stop-color="#14ac00"/><stop offset="1" stop-color="#14ac00" stop-opacity="0"/></radialGradient><radialGradient cx="243.13578" cy="180.58484" r="4.58417" gradientUnits="userSpaceOnUse" id="color-4"><stop offset="0" stop-color="#14ac00"/><stop offset="1" stop-color="#14ac00" stop-opacity="0"/></radialGradient><radialGradient cx="237.03872" cy="180.56369" r="4.58418" gradientUnits="userSpaceOnUse" id="color-5"><stop offset="0" stop-color="#14ac00"/><stop offset="1" stop-color="#14ac00" stop-opacity="0"/></radialGradient><radialGradient cx="237.03199" cy="183.99242" r="2.96256" gradientUnits="userSpaceOnUse" id="color-6"><stop offset="0" stop-color="#14ac00"/><stop offset="1" stop-color="#14ac00" stop-opacity="0"/></radialGradient><radialGradient cx="243.40545" cy="183.90019" r="2.96255" gradientUnits="userSpaceOnUse" id="color-7"><stop offset="0" stop-color="#14ac00"/><stop offset="1" stop-color="#14ac00" stop-opacity="0"/></radialGradient><radialGradient cx="244.47273" cy="180.51713" r="2.96256" gradientUnits="userSpaceOnUse" id="color-8"><stop offset="0" stop-color="#14ac00"/><stop offset="1" stop-color="#14ac00" stop-opacity="0"/></radialGradient><radialGradient cx="240.19235" cy="175.66738" r="2.96256" gradientUnits="userSpaceOnUse" id="color-9"><stop offset="0" stop-color="#14ac00"/><stop offset="1" stop-color="#14ac00" stop-opacity="0"/></radialGradient><radialGradient cx="236.81155" cy="176.83231" r="2.96255" gradientUnits="userSpaceOnUse" id="color-10"><stop offset="0" stop-color="#14ac00"/><stop offset="1" stop-color="#14ac00" stop-opacity="0"/></radialGradient><radialGradient cx="235.24261" cy="179.89639" r="2.96256" gradientUnits="userSpaceOnUse" id="color-11"><stop offset="0" stop-color="#14ac00"/><stop offset="1" stop-color="#14ac00" stop-opacity="0"/></radialGradient><radialGradient cx="240.20355" cy="176.66494" r="4.58418" gradientUnits="userSpaceOnUse" id="color-12"><stop offset="0" stop-color="#14ac00"/><stop offset="1" stop-color="#14ac00" stop-opacity="0"/></radialGradient><radialGradient cx="240.01725" cy="184.94594" r="2.96256" gradientUnits="userSpaceOnUse" id="color-13"><stop offset="0" stop-color="#14ac00"/><stop offset="1" stop-color="#14ac00" stop-opacity="0"/></radialGradient><radialGradient cx="243.69748" cy="176.96415" r="2.96256" gradientUnits="userSpaceOnUse" id="color-14"><stop offset="0" stop-color="#14ac00"/><stop offset="1" stop-color="#14ac00" stop-opacity="0"/></radialGradient><radialGradient cx="242.64402" cy="178.32701" r="4.58417" gradientUnits="userSpaceOnUse" id="color-15"><stop offset="0" stop-color="#14ac00"/><stop offset="1" stop-color="#14ac00" stop-opacity="0"/></radialGradient><radialGradient cx="237.70613" cy="182.54327" r="4.58417" gradientUnits="userSpaceOnUse" id="color-16"><stop offset="0" stop-color="#14ac00"/><stop offset="1" stop-color="#14ac00" stop-opacity="0"/></radialGradient><radialGradient cx="242.05672" cy="182.38189" r="4.58417" gradientUnits="userSpaceOnUse" id="color-17"><stop offset="0" stop-color="#14ac00"/><stop offset="1" stop-color="#14ac00" stop-opacity="0"/></radialGradient><radialGradient cx="240" cy="180" r="7.80769" gradientUnits="userSpaceOnUse" id="color-18"><stop offset="0" stop-color="#14ac00"/><stop offset="1" stop-color="#14ac00" stop-opacity="0"/></radialGradient></defs><g transform="translate(-232.19231,-172.08076)"><g data-paper-data="{&quot;isPaintingLayer&quot;:true}" fill-rule="nonzero" stroke-width="0" stroke-linecap="butt" stroke-linejoin="miter" stroke-miterlimit="10" stroke-dasharray="" stroke-dashoffset="0" style="mix-blend-mode: normal"><path d="M233.02278,178.09535c0,-2.53177 2.0524,-4.58417 4.58417,-4.58417c2.53177,0 4.58417,2.0524 4.58417,4.58417c0,2.53177 -2.0524,4.58417 -4.58417,4.58417c-2.53177,0 -4.58417,-2.0524 -4.58417,-4.58417z" fill="url(#color-1)" stroke="#25b509"/><path d="M232.71879,180.54445c0,-4.04738 3.28105,-7.32845 7.32845,-7.32845c4.04738,0 7.32844,3.28105 7.32844,7.32845c0,4.04738 -3.28105,7.32844 -7.32844,7.32844c-4.04738,0 -7.32845,-3.28105 -7.32845,-7.32844z" fill="url(#color-2)" stroke="#25b509"/><path d="M235.56523,183.33509c0,-2.53177 2.0524,-4.58418 4.58417,-4.58418c2.53177,0 4.58418,2.0524 4.58418,4.58418c0,2.53177 -2.05241,4.58417 -4.58418,4.58417c-2.53177,0 -4.58417,-2.0524 -4.58417,-4.58417z" fill="url(#color-3)" stroke="#25b509"/><path d="M238.55162,180.58484c0,-2.53177 2.0524,-4.58417 4.58417,-4.58417c2.53177,0 4.58417,2.0524 4.58417,4.58417c0,2.53177 -2.0524,4.58417 -4.58417,4.58417c-2.53177,0 -4.58417,-2.0524 -4.58417,-4.58417z" fill="url(#color-4)" stroke="#25b509"/><path d="M232.45455,180.56369c0,-2.53177 2.0524,-4.58417 4.58417,-4.58417c2.53177,0 4.58418,2.0524 4.58418,4.58417c0,2.53177 -2.05241,4.58417 -4.58418,4.58417c-2.53177,0 -4.58417,-2.0524 -4.58417,-4.58417z" fill="url(#color-5)" stroke="#25b509"/><path d="M234.06943,183.99242c0,-1.63618 1.32638,-2.96256 2.96255,-2.96256c1.63618,0 2.96256,1.32639 2.96256,2.96256c0,1.63618 -1.32639,2.96256 -2.96256,2.96256c-1.63618,0 -2.96255,-1.32639 -2.96255,-2.96256z" fill="url(#color-6)" stroke="#25b509"/><path d="M240.44289,183.90019c0,-1.63618 1.32639,-2.96256 2.96256,-2.96256c1.63618,0 2.96255,1.32638 2.96255,2.96256c0,1.63618 -1.32637,2.96255 -2.96255,2.96255c-1.63618,0 -2.96256,-1.32638 -2.96256,-2.96255z" fill="url(#color-7)" stroke="#25b509"/><path d="M241.51021,180.51713c0,-1.63618 1.32638,-2.96256 2.96255,-2.96256c1.63618,0 2.96256,1.32639 2.96256,2.96256c0,1.63618 -1.32639,2.96256 -2.96256,2.96256c-1.63618,0 -2.96255,-1.32639 -2.96255,-2.96256z" fill="url(#color-8)" stroke="#25b509"/><path d="M237.2298,175.66738c0,-1.63618 1.32639,-2.96256 2.96256,-2.96256c1.63618,0 2.96256,1.32639 2.96256,2.96256c0,1.63618 -1.32637,2.96256 -2.96256,2.96256c-1.63618,0 -2.96256,-1.32639 -2.96256,-2.96256z" fill="url(#color-9)" stroke="#25b509"/><path d="M233.84898,176.83231c0,-1.63618 1.32637,-2.96256 2.96256,-2.96256c1.63618,0 2.96255,1.32639 2.96255,2.96256c0,1.63618 -1.32638,2.96256 -2.96255,2.96256c-1.63618,0 -2.96256,-1.32639 -2.96256,-2.96256z" fill="url(#color-10)" stroke="#25b509"/><path d="M232.28004,179.89639c0,-1.63618 1.32639,-2.96255 2.96256,-2.96255c1.63618,0 2.96256,1.32638 2.96256,2.96255c0,1.63618 -1.32639,2.96256 -2.96256,2.96256c-1.63618,0 -2.96256,-1.32639 -2.96256,-2.96256z" fill="url(#color-11)" stroke="#25b509"/><path d="M235.61938,176.66494c0,-2.53177 2.0524,-4.58417 4.58417,-4.58417c2.53177,0 4.58418,2.0524 4.58418,4.58417c0,2.53177 -2.05241,4.58417 -4.58418,4.58417c-2.53177,0 -4.58417,-2.0524 -4.58417,-4.58417z" fill="url(#color-12)" stroke="#25b509"/><path d="M237.05472,184.94594c0,-1.63618 1.32639,-2.96256 2.96256,-2.96256c1.63618,0 2.96256,1.32639 2.96256,2.96256c0,1.63618 -1.32639,2.96255 -2.96256,2.96255c-1.63618,0 -2.96256,-1.32637 -2.96256,-2.96255z" fill="url(#color-13)" stroke="#25b509"/><path d="M240.73497,176.96415c0,-1.63618 1.32638,-2.96255 2.96255,-2.96255c1.63618,0 2.96256,1.32638 2.96256,2.96255c0,1.63618 -1.32639,2.96256 -2.96256,2.96256c-1.63618,0 -2.96255,-1.32639 -2.96255,-2.96256z" fill="url(#color-14)" stroke="#25b509"/><path d="M238.05985,178.32701c0,-2.53177 2.05241,-4.58417 4.58418,-4.58417c2.53177,0 4.58417,2.0524 4.58417,4.58417c0,2.53177 -2.0524,4.58418 -4.58417,4.58418c-2.53177,0 -4.58418,-2.05241 -4.58418,-4.58418z" fill="url(#color-15)" stroke="#25b509"/><path d="M233.12192,182.54327c0,-2.53177 2.05241,-4.58417 4.58418,-4.58417c2.53177,0 4.58417,2.0524 4.58417,4.58417c0,2.53177 -2.0524,4.58417 -4.58417,4.58417c-2.53177,0 -4.58418,-2.0524 -4.58418,-4.58417z" fill="url(#color-16)" stroke="#25b509"/><path d="M237.47255,182.38189c0,-2.53177 2.0524,-4.58417 4.58417,-4.58417c2.53177,0 4.58417,2.0524 4.58417,4.58417c0,2.53177 -2.0524,4.58417 -4.58417,4.58417c-2.53177,0 -4.58417,-2.0524 -4.58417,-4.58417z" fill="url(#color-17)" stroke="#25b509"/><path d="M232.19231,180c0,-4.31207 3.49562,-7.80769 7.80769,-7.80769c4.31207,0 7.80769,3.49562 7.80769,7.80769c0,4.31207 -3.49562,7.80769 -7.80769,7.80769c-4.31207,0 -7.80769,-3.49562 -7.80769,-7.80769z" fill="url(#color-18)" stroke="none"/></g></g></svg>