<svg version="1.1" xmlns="http://www.w3.org/2000/svg" xmlns:xlink="http://www.w3.org/1999/xlink" width="172.32631" height="125.00242" viewBox="0,0,172.32631,125.00242"><defs><radialGradient cx="332.34397" cy="160.42403" r="6.9241" gradientUnits="userSpaceOnUse" id="color-1"><stop offset="0" stop-color="#1048db"/><stop offset="1" stop-color="#1048db" stop-opacity="0"/></radialGradient></defs><g transform="translate(-171.72606,-103.82603)"><g data-paper-data="{&quot;isPaintingLayer&quot;:true}" fill-rule="nonzero" stroke="#000000" stroke-linejoin="miter" stroke-miterlimit="10" stroke-dasharray="" stroke-dashoffset="0" style="mix-blend-mode: normal"><path d="" fill="none" stroke-width="2" stroke-linecap="round"/><path d="M216.028,159.62742c0,0 -1.68609,-4.40435 -1.48174,-7.1431c0.13789,-1.84809 -0.18576,-4.76308 2.89374,-6.20987c1.92104,-0.90253 4.30731,-2.55714 4.30731,-2.55714c0,0 27.2152,-0.59273 34.36137,0.20466c3.19499,0.3565 4.60184,2.10718 4.60184,2.10718c0,0 2.90773,5.69544 3.1628,8.10314c0.27044,2.55291 -1.92284,6.81771 -1.92284,6.81771z" fill="#090909" stroke-width="2" stroke-linecap="butt"/><path d="M234.38893,200.31964c0,0 6.34264,-8.79129 7.7294,-15.29832c0.94057,-4.41351 0.98708,-9.08859 1.40497,-16.24231c0.42582,-7.28956 1.21408,-17.0176 1.21408,-17.0176c0,0 2.8988,5.65777 4.75132,6.53046c2.85177,1.3434 10.81242,3.80582 10.81242,3.80582c0,0 -4.00737,17.63057 -4.13421,23.90238c-0.1625,8.03609 3.23937,20.34676 3.23937,20.34676c0,0 -5.99167,-4.95427 -8.63477,-5.21891c-2.32726,-0.23302 -6.39718,3.71382 -6.39718,3.71382c0,0 -3.37371,7.29679 -7.32678,9.99657c-5.10647,3.4875 -11.30355,2.52888 -13.737,1.92258c-12.16407,-3.03064 -9.40474,-25.74564 -11.72768,-26.30527c-1.17254,-0.2825 8.85765,7.25943 15.26658,8.90022c6.43564,1.64765 7.53951,0.9638 7.53951,0.9638z" fill="#090909" stroke-width="2" stroke-linecap="butt"/><path d="M208.42374,226.61364c0,0 -12.65632,-4.3558 -16.71013,-8.33508c-4.53082,-4.44752 -9.20329,-17.10193 -9.20329,-17.10193c0,0 6.98821,0.77735 11.74302,3.3507c5.23098,2.83105 8.53202,7.47213 14.7657,7.21569c6.2099,-0.25546 17.38737,-15.57073 17.81125,-17.20684c1.00055,-3.86205 1.52257,-42.25943 2.73207,-45.80948c1.90855,-5.60187 24.30923,-5.31806 27.29108,-1.14793c2.50398,3.50179 -7.24255,27.35595 -8.36279,37.12308c-1.55757,13.58004 0.60476,26.60457 -2.11135,29.7697c-0.52651,0.61356 -2.69544,10.26799 -7.59214,11.08887c-3.61178,0.60547 -8.50453,1.90309 -12.34639,2.26803c-9.40348,0.89321 -18.01704,-1.21481 -18.01704,-1.21481z" fill="#333333" stroke-width="2" stroke-linecap="butt"/><path d="M253.07516,139.40876c-0.10286,2.39708 2.06873,7.00291 0.83728,8.23079c-1.43524,1.43111 -5.15829,1.79284 -8.07743,2.46812c-3.80532,0.88028 -7.0729,1.85863 -10.57088,2.00156c-8.94934,0.36568 -9.95051,-5.03709 -10.29792,-14.52715c-0.09991,-2.72897 1.27224,-12.90826 1.48414,-13.50823c2.96615,-8.39902 9.26797,-14.9428 15.21875,-15.18596c8.0632,-0.32947 13.61519,9.11776 13.85777,18.02472c0.02665,0.97887 -2.43087,12.01145 -2.45166,12.49616z" fill="#0e0e0e" stroke-width="2" stroke-linecap="butt"/><path d="M222.40649,155.7147c0,0 -3.31479,-3.72297 -2.29035,-5.34513c1.18489,-1.87622 3.32505,-2.38895 6.173,-2.51034c2.84795,-0.1214 6.26797,1.90302 14.17788,1.64283c5.55798,-0.18283 10.18602,-0.67016 12.601,-1.52125c0.15899,-0.05603 3.49205,0.50576 4.30141,1.67783c0.99856,1.44609 -0.51961,5.9687 -0.51961,5.9687c0,0 -5.52503,1.91355 -11.70865,3.02909c-3.19338,0.57611 -7.59098,1.85604 -10.14139,1.81351c-6.79309,-0.11332 -12.59327,-4.75521 -12.59327,-4.75521z" fill="#091f57" stroke-width="2" stroke-linecap="butt"/><path d="M207.77585,225.86612c0,0 -12.36698,-4.35097 -16.32727,-8.32873c-1.61776,-1.62491 -7.10158,-8.76038 -4.77054,-8.39963c4.04683,0.62627 18.29725,10.14023 21.24507,11.77189c5.11105,2.82907 4.98208,-1.44738 11.07401,-1.70623c6.06869,-0.25786 13.56378,-0.4594 13.97853,-2.09571c0.09811,-0.38708 6.56338,-4.6264 6.83504,-5.78312c1.56226,-6.65195 1.01386,-38.93844 4.26955,-47.6574c1.82731,-4.89364 7.6158,-1.73751 7.6158,-1.73751c0,0 -2.99107,13.78811 -4.08895,23.5558c-1.52647,13.58084 -0.08003,25.05746 -2.73536,28.22369c-0.51475,0.61378 -2.63743,10.26918 -7.42297,11.09196c-3.5298,0.60686 -8.31163,1.9064 -12.0662,2.27283c-9.18982,0.89686 -17.60672,-1.20784 -17.60672,-1.20784z" fill="#091f57" stroke-width="2" stroke-linecap="butt"/><path d="M212.24585,205.97626c0,0 4.91303,-8.31988 5.986,-14.47906c0.72776,-4.17757 0.76257,-8.60305 1.08453,-15.37472c0.32808,-6.90025 0.93639,-16.10868 0.93639,-16.10868c0,0 2.24796,5.35666 3.68382,6.18336c2.21038,1.27261 11.63433,0.74506 11.63433,0.74506c0,0 -6.35498,19.54912 -6.45162,25.48604c-0.12383,7.60701 2.51577,19.26155 2.51577,19.26155c0,0 -4.64467,-4.69172 -6.69304,-4.94309c-1.80362,-0.22133 -4.95664,3.51347 -4.95664,3.51347c0,0 -2.61258,6.90614 -5.67538,9.46049c-3.95643,3.29966 -9.72309,-1.43169 -11.60908,-2.00641c-9.42756,-2.87279 -6.33133,-20.55232 -8.13167,-21.08283c-0.90876,-0.26779 6.86633,6.87475 11.83347,8.43004c4.98786,1.56177 5.84313,0.9148 5.84313,0.9148z" fill="#090909" stroke-width="2" stroke-linecap="butt"/><path d="M215.62368,163.89081c0,0 0.42664,-4.74779 1.41544,-6.63073c1.14368,-2.17783 3.41245,-4.03973 3.41245,-4.03973c0,0 5.45036,0.67815 10.15367,2.35886c3.33864,1.19305 7.12147,1.94716 10.32724,1.84602c3.94306,-0.1244 11.2843,0.10894 14.53287,-1.76341c2.2563,-1.30043 1.18959,5.53115 1.18959,5.53115c0,0 -14.64719,5.90232 -21.96084,5.70023c-2.27023,-0.06273 -4.62534,-2.36568 -7.47674,-1.57845c-1.88156,0.51948 -4.28165,4.36165 -5.93936,4.04152c-3.17112,-0.61239 -5.65427,-5.46545 -5.65427,-5.46545z" fill="#1a1a1a" stroke-width="2" stroke-linecap="butt"/><path d="M250.89385,142.20602c0,0 -1.62166,2.27531 -2.25635,2.35778c-0.85537,0.11116 -4.6588,-0.28885 -5.53493,-0.18858c-0.74149,0.08483 -3.45983,-0.68988 -3.45983,-0.68988c0,0 -1.21425,0.92462 -1.79735,0.99323c-0.7594,0.08936 -2.3715,-0.50268 -2.3715,-0.50268c0,0 -0.98083,-1.98291 -1.02323,-3.09279c-0.59943,-1.10151 -0.51651,-3.77259 -1.06728,-4.29125c-2.98379,-0.33594 -4.63155,-1.67607 -4.82035,-6.68753c-0.14167,-3.76006 1.7323,-6.9728 3.04034,-9.63138c2.05352,-4.17366 4.52632,-6.88582 9.49179,-7.47355c3.55177,-0.42039 5.51406,3.33633 8.04557,5.17621c3.26199,2.3708 6.63788,3.51169 6.84283,8.95231c0,0 -0.0335,6.31204 -3.32702,7.15038c-0.9331,1.61928 -0.87291,2.79628 -1.25165,4.45208z" fill="#333333" stroke-width="2" stroke-linecap="butt"/><path d="M228.11226,127.86075c0,0 -0.23015,-4.07173 0.87741,-4.77733c1.58612,-1.01044 4.96249,-4.82605 7.42006,-5.76885c4.32538,-1.65936 7.5904,-0.17658 6.01072,-0.00957c-1.14096,0.12063 1.74465,12.52262 0.18583,14.29336c-1.31948,1.49886 -0.81544,3.84895 -0.99657,5.23566c-0.17763,1.35997 1.0708,6.057 0.03893,7.67037c-0.31353,0.4902 -4.18597,0.9965 -5.44504,0.00339c-0.86201,-0.67991 -1.92067,-1.58526 -2.37018,-2.79074c-0.56516,-1.51553 -0.80082,-3.64214 -1.18817,-3.52524c-1.46463,0.44205 -1.89495,-2.38201 -2.82715,-2.90191c-1.09581,-0.61115 -1.17224,-7.43723 -1.17224,-7.43723z" fill="#141414" stroke-width="2" stroke-linecap="butt"/><path d="M233.9201,125.64373c-0.191,-2.19217 1.31807,-4.11505 3.37059,-4.29492c2.05254,-0.17986 3.87125,1.45143 4.06226,3.64359c0.191,2.19217 -1.31805,4.11505 -3.37059,4.29491c-2.05254,0.17986 -3.87126,-1.45144 -4.06226,-3.64358z" fill="#091f57" stroke-width="2" stroke-linecap="butt"/><path d="M245.73108,126.84404c-0.13163,-1.74039 0.90837,-3.267 2.3229,-3.4098c1.41454,-0.14279 2.66795,1.1523 2.79959,2.89269c0.13163,1.74038 -0.90837,3.26698 -2.3229,3.40978c-1.41454,0.14279 -2.66795,-1.15229 -2.79958,-2.89267z" fill="#101010" stroke-width="2" stroke-linecap="butt"/><path d="M228.53947,121.19826c0,0 5.8564,-5.07378 8.2509,-6.25308c2.36499,-1.16476 6.02873,-0.77969 6.02873,-0.77969" fill="none" stroke-width="2" stroke-linecap="round"/><path d="M227.44526,127.94689c0.20485,-0.84507 0.42415,-8.59471 1.45503,-10.36107c1.46686,-2.51341 3.48821,-4.44155 3.48821,-4.44155c0,0 5.17407,-4.19987 9.1268,-3.83255c3.95274,0.36729 8.80005,4.11411 8.80005,4.11411c0,0 2.14187,1.36397 3.70281,3.86907c0.60749,0.97494 1.15033,3.52239 1.40977,4.13572c0.81863,1.93522 -0.33776,6.53119 -0.33776,6.53119c0,0 -3.14959,-4.29294 -6.03035,-7.62171c-2.73787,-3.16367 -3.53323,-1.08535 -6.50577,-1.42348c-2.97253,-0.33813 -5.38972,0.75294 -8.32615,2.36292c-2.20285,1.2078 -4.27809,2.6108 -5.62248,3.84852c-0.99763,0.91845 -1.60826,-0.62693 -1.4885,-1.12104z" fill="#0b0b0b" stroke-width="2" stroke-linecap="butt"/><path d="M241.25939,176.72393l5.69132,-1.67699" fill="none" stroke-width="2" stroke-linecap="round"/><path d="M241.80435,184.61351l6.15832,-2.56577" fill="none" stroke-width="2" stroke-linecap="round"/><path d="M241.30509,191.30477l6.16919,-2.27614" fill="none" stroke-width="2" stroke-linecap="round"/><path d="M241.81594,198.24587l4.931,-1.93676" fill="none" stroke-width="2" stroke-linecap="round"/><path d="M247.21395,202.5718l-6.90775,2.59561" fill="none" stroke-width="2" stroke-linecap="round"/><path d="M188.07937,208.93566l7.09722,12.76118c0,0 -9.06623,-3.89162 -13.33038,-9.33525c-5.30392,-6.771 -8.33128,-17.7078 -9.12014,-19.65582c-0.73427,-1.81325 -0.09158,-6.89095 1.07369,-8.03062c2.93883,-2.87429 9.84089,0.61532 11.06561,7.2117c0.55551,2.99196 2.32189,2.32279 4.29048,3.22747c2.73872,1.25859 5.7874,3.39584 5.7874,3.39584c0,0 6.14655,4.43114 4.30155,4.52296c-1.05041,0.05228 -2.70648,0.42452 -3.52522,1.55028c-0.71321,0.98067 -0.66266,2.7379 -0.66266,2.7379c0,0 -4.55114,-3.4964 -6.03293,-3.51181c-1.03567,-0.01077 -0.94463,5.12616 -0.94463,5.12616z" fill="#101010" stroke-width="2" stroke-linecap="butt"/><path d="M175.76785,179.64155c-0.23424,-9.2392 27.6254,-13.47498 27.6254,-13.47498c0,0 -19.60076,19.51461 -16.89648,26.6609c1.23721,3.26942 -4.95002,3.36495 -8.38522,-0.84969c-0.92215,-1.13139 -3.08173,-2.90402 -3.41181,-4.67686c-0.5277,-2.83419 1.11385,-5.85496 1.06811,-7.65937z" fill="#091f57" stroke-width="2" stroke-linecap="butt"/><path d="M188.12981,177.32995c6.78712,-2.11927 8.8244,-3.93144 8.8244,-3.93144c0,0 -12.21995,11.24771 -9.51567,18.39399c1.23721,3.26942 -5.83708,4.63072 -9.27228,0.41608c-2.39637,-2.94009 2.88319,-12.66781 9.96356,-14.87863z" fill="#090d19" stroke-width="2" stroke-linecap="butt"/><path d="M215.44975,177.69737c0,0 1.07591,-13.22693 1.06507,-17.42277c-0.00799,-3.09495 -1.12422,-5.47028 -1.12422,-5.47028l4.30399,-0.86758c0,0 5.53156,8.72497 5.66349,12.23788c0.15817,4.21173 -2.7542,11.93394 -2.7542,11.93394z" fill="#090909" stroke-width="0" stroke-linecap="butt"/><path d="M220.79866,153.82563c0,0 3.51612,5.20275 4.45718,7.78761c0.91814,2.52193 0.99157,4.06188 0.99157,4.06188" fill="none" stroke-width="2" stroke-linecap="round"/><path d="M231.17896,177.42186c0,0 -13.30854,10.7041 -17.96081,13.63227c-0.26151,0.1646 -1.71017,-1.23687 -1.88894,-2.41969c-0.26109,-1.72749 0.77023,-3.55513 0.46007,-4.03836c-0.88624,-1.3808 13.29833,-12.73281 13.29833,-12.73281c0,0 2.94322,-2.79206 4.90952,-1.96353c1.28576,0.54176 2.28273,2.82388 4.10942,2.41283c2.16082,-0.48624 12.43229,-3.23635 14.83199,-4.00791c7.20659,-2.31707 6.62074,-3.26289 8.072,-3.3207c0.06931,-0.00276 -0.54605,-7.49608 0.41648,-12.47824c0.57196,-2.96051 1.16228,-4.74001 1.53605,-4.73707c0.43023,0.0034 4.23065,4.49661 4.93065,7.98075c0.39159,1.94899 -0.60228,3.29094 -0.46995,4.38304c0.34015,2.80729 -1.85106,5.41689 -1.9977,5.83768c-0.70069,2.01059 -6.73862,6.26117 -6.73862,6.26117c0,0 -5.15083,2.17323 -8.47191,2.90651c-4.27275,0.9434 -15.03658,2.28403 -15.03658,2.28403z" fill="#180f05" stroke-width="2" stroke-linecap="butt"/><path d="M231.53122,172.38011c0,0 -16.9202,12.54825 -18.84928,13.38605c-4.59466,1.99544 0.67085,-5.42516 0.16601,-6.23997c-0.85626,-1.38199 12.80329,-12.7131 12.80329,-12.7131c0,0 2.83369,-2.78769 4.73046,-1.9564c1.24029,0.54358 2.20451,2.827 3.965,2.41859c2.08253,-0.48313 11.98119,-3.21838 14.29363,-3.98647c6.9445,-2.30664 6.37843,-3.25324 7.77746,-3.30897c0.06682,-0.00266 -0.53654,-7.49647 0.38468,-12.47698c0.54742,-2.95953 1.11414,-4.73809 1.47447,-4.7346c0.41477,0.00402 4.08469,4.50242 4.76424,7.98737c0.38013,1.94945 -0.57619,3.28991 -0.44715,4.38214c0.33172,2.80762 -1.77724,5.41395 -1.91804,5.8345c-0.67279,2.00949 -6.48803,6.25119 -6.48803,6.25119c0,0 -4.96281,2.16574 -8.16356,2.89423c-4.11794,0.93723 -14.49319,2.26239 -14.49319,2.26239z" fill="#180f05" stroke-width="2" stroke-linecap="butt"/><g stroke-linecap="butt"><path d="M270.33903,173.56169c0,0 12.53894,-25.9045 16.87417,-32.52719c2.27359,-3.47328 7.22698,-4.29101 7.22698,-4.29101l4.78765,3.03139c0,0 -3.28664,12.045 -5.46132,15.47962c-2.9024,4.58397 -10.4089,9.58523 -10.4089,9.58523z" fill="#091f57" stroke-width="2.5"/><path d="M289.98136,116.05523c1.12039,-1.47648 6.04075,-4.31135 6.91066,-5.28355c1.47231,-1.64541 10.82783,-5.3515 10.82783,-5.3515c0,0 3.12382,6.6235 6.56573,9.93995c3.4419,3.31645 14.76989,10.61795 14.76989,10.61795l1.62487,12.46357l11.97331,17.23545c0,0 -3.51137,9.4799 -5.62994,15.06315c-0.99059,2.61062 -6.8252,20.55963 -6.8252,20.55963c0,0 0.168,-37.44304 -11.06335,-57.21308c-5.82181,-10.24786 -20.61479,-16.54135 -22.34847,-17.41156c-2.46563,-1.23757 -8.2295,1.25678 -6.80532,-0.62009z" fill="#0b0b0b" stroke-width="2.5"/><path d="M284.20817,126.04127c-0.0149,-1.44629 0.47168,-4.16631 1.81978,-5.92307c1.06054,-1.38197 2.90832,-1.85657 3.73651,-2.76287c0.69421,-0.75968 5.44512,-1.90224 9.90337,-1.35241c4.54391,0.56041 8.80052,2.82822 9.94208,3.62802c2.53703,1.77751 17.10895,22.33138 23.26263,31.09457c1.6872,2.40267 -10.1383,-5.02516 -10.1383,-5.02516l9.44097,15.87205l-2.08925,30.83995l-5.66166,-30.03949c0,0 -8.63985,-15.95946 -13.21546,-23.5563c-6.00145,-9.96413 -19.6588,-14.93569 -21.38625,-15.81572c-2.45674,-1.25156 -5.58783,5.62447 -5.61444,3.04045z" fill="#091f57" stroke-width="2"/><path d="M234.1384,219.32649c0,0 33.2828,-52.0514 39.38252,-61.5333c1.70989,-2.658 6.8779,-6.29456 6.8779,-6.29456c0,0 1.2951,-12.13983 2.82179,-14.55098c3.41636,-5.39568 9.65545,-10.38919 9.65545,-10.38919l5.35091,3.388l-5.83187,6.59359c0,0 2.55415,1.20021 2.14192,1.85127c-1.16274,1.83639 -4.07447,-0.47003 -6.28274,2.92912c-0.15612,0.24032 -0.30655,2.27662 -0.26597,4.17397c0.04866,2.27367 0.29387,4.47059 0.08435,4.79345c-3.26462,5.02983 -7.95702,9.78349 -12.02296,16.02242c-15.98882,24.53385 -35.33855,54.10064 -35.33855,54.10064c0,0 -2.66795,1.38809 -3.52296,0.84674c-0.92337,-0.58464 -3.04984,-1.93107 -3.04984,-1.93107z" fill="#333333" stroke-width="2"/><path d="M275.00307,138.83477c1.30775,-2.06539 5.49728,-5.46656 8.4019,-9.02345c2.47739,-3.03374 3.82013,-6.43645 3.82013,-6.43645l8.7926,-2.00784c0,0 3.6235,2.40228 6.91571,5.7578c3.27824,3.34124 6.22441,7.63329 6.63507,8.75915c1.16992,3.20743 -4.52916,4.4291 -4.93758,4.64989c-0.31004,0.16763 -4.03977,0.32077 -6.73444,-0.81699c-3.2238,-1.36113 -6.5311,-3.79709 -6.5311,-3.79709l4.44275,-4.2638c0,0 -4.91492,-3.98902 -6.06084,-2.81048c-2.00186,2.05886 -4.90902,4.93724 -6.26234,7.07457c-2.1826,3.44715 -3.1085,12.94511 -3.1085,12.94511c0,0 -0.77797,1.964 -1.19022,2.3586c-0.85947,0.82266 -33.99683,53.21066 -33.99683,53.21066c0,0 -4.83451,4.24864 -2.40826,-0.82507c3.21115,-6.71515 24.58057,-37.05037 31.98471,-52.59007c2.64868,-5.55907 -0.91457,-6.52239 -0.91457,-6.52239c0,0 -0.76133,-2.64056 1.15181,-5.66215z" fill="#0b0b0b" stroke-width="2"/><path d="M328.53128,158.92065c1.13254,-1.78869 3.50068,-2.32062 5.28935,-1.18808c1.78869,1.13254 2.32061,3.50067 1.18806,5.28936c-1.13254,1.78869 -3.50067,2.32059 -5.28935,1.18808c-1.78869,-1.13254 -2.32063,-3.50066 -1.18808,-5.28935z" fill="#1449cd" stroke-width="2"/><g stroke-width="0"><path d="M329.5041,158.85453c0.98641,-1.72093 3.10855,-2.3728 4.73996,-1.45601c1.63138,0.91679 2.15428,3.05507 1.16788,4.77601c-0.98641,1.72093 -3.10852,2.3728 -4.73994,1.456c-1.63138,-0.91679 -2.15428,-3.05507 -1.16791,-4.77598z" fill="#1048db"/><path d="M326.30771,157.03181c2.01569,-3.51668 6.35225,-4.84876 9.686,-2.97531c3.33375,1.87345 4.40224,6.24299 2.38653,9.75967c-2.01569,3.51668 -6.35228,4.84879 -9.686,2.97535c-3.33375,-1.87345 -4.40222,-6.24301 -2.38652,-9.75967z" fill="url(#color-1)"/></g><path d="M239.12853,209.03472c0,0 -0.02196,-1.41181 0.37156,-2.03334c0.37864,-0.59802 1.94658,-1.62785 1.94658,-1.62785c0,0 2.32188,1.64184 3.71572,1.91433c1.80429,0.35271 6.20008,0.02417 6.20008,0.02417c0,0 -0.27195,1.63493 -0.56967,2.10513c-0.4272,0.67473 -1.74845,1.55603 -1.74845,1.55603c0,0 -5.45947,-0.64459 -6.87156,-0.92064c-1.7987,-0.35163 -3.04424,-1.01783 -3.04424,-1.01783z" fill="#180f05" stroke-width="2"/><path d="M236.95124,212.78504c0,0 -0.02196,-1.41181 0.37156,-2.03334c0.37864,-0.59802 1.94658,-1.62785 1.94658,-1.62785c0,0 2.32188,1.64183 3.71573,1.91431c1.80429,0.35271 6.20008,0.02417 6.20008,0.02417c0,0 -0.27195,1.63493 -0.56967,2.10513c-0.4272,0.67473 -1.74845,1.55603 -1.74845,1.55603c0,0 -5.45947,-0.64459 -6.87156,-0.92064c-1.7987,-0.35163 -3.04422,-1.01786 -3.04422,-1.01786z" fill="#180f05" stroke-width="2"/><path d="M234.38899,215.89711c0,0 -0.02196,-1.41181 0.37156,-2.03334c0.37864,-0.59802 1.94658,-1.62785 1.94658,-1.62785c0,0 2.32188,1.64183 3.71573,1.91431c1.80429,0.35271 6.20008,0.02417 6.20008,0.02417c0,0 -0.27195,1.63493 -0.56967,2.10513c-0.4272,0.67473 -1.74845,1.55603 -1.74845,1.55603c0,0 -5.45947,-0.64459 -6.87156,-0.92064c-1.7987,-0.35163 -3.04422,-1.01786 -3.04422,-1.01786z" fill="#180f05" stroke-width="2"/><path d="M297.63391,116.24458l7.4545,-4.66992c0,0 3.59407,4.19495 5.77013,6.85597c2.76581,3.38225 14.05134,10.19201 14.05134,10.19201c0,0 -0.31596,3.73166 -0.9953,4.7408c-0.64747,0.96182 -2.98967,1.17901 -2.98967,1.17901c0,0 -6.54048,-8.62923 -10.40956,-11.66884c-3.89442,-3.05953 -12.88146,-6.62904 -12.88146,-6.62904z" fill="#1a1a1a" stroke-width="2"/></g></g></g></svg>