<svg version="1.1" xmlns="http://www.w3.org/2000/svg" xmlns:xlink="http://www.w3.org/1999/xlink" width="214.32246" height="160.27168" viewBox="0,0,214.32246,160.27168"><defs><linearGradient x1="252.35641" y1="229.14782" x2="273.26072" y2="229.14782" gradientUnits="userSpaceOnUse" id="color-1"><stop offset="0" stop-color="#0d0d0d"/><stop offset="1" stop-color="#181818"/></linearGradient><linearGradient x1="218.66263" y1="229.90909" x2="244.67061" y2="229.90909" gradientUnits="userSpaceOnUse" id="color-2"><stop offset="0" stop-color="#0d0d0d"/><stop offset="1" stop-color="#181818"/></linearGradient><linearGradient x1="244.0756" y1="191.63043" x2="271.1092" y2="191.63043" gradientUnits="userSpaceOnUse" id="color-3"><stop offset="0" stop-color="#0d0d0d"/><stop offset="1" stop-color="#181818"/></linearGradient><linearGradient x1="226.74394" y1="192.07021" x2="255.01257" y2="192.07021" gradientUnits="userSpaceOnUse" id="color-4"><stop offset="0" stop-color="#0d0d0d"/><stop offset="1" stop-color="#181818"/></linearGradient><linearGradient x1="255.6279" y1="146.47954" x2="281.91652" y2="146.47954" gradientUnits="userSpaceOnUse" id="color-5"><stop offset="0" stop-color="#0d0d0d"/><stop offset="1" stop-color="#181818"/></linearGradient><linearGradient x1="264.39171" y1="166.49873" x2="282.06444" y2="166.49873" gradientUnits="userSpaceOnUse" id="color-6"><stop offset="0" stop-color="#0d0d0d"/><stop offset="1" stop-color="#181818"/></linearGradient><linearGradient x1="262.38617" y1="153.75761" x2="284.75721" y2="153.75761" gradientUnits="userSpaceOnUse" id="color-7"><stop offset="0" stop-color="#050505"/><stop offset="1" stop-color="#0b0b0b"/></linearGradient><linearGradient x1="263.95682" y1="178.11346" x2="282.52029" y2="178.11346" gradientUnits="userSpaceOnUse" id="color-8"><stop offset="0" stop-color="#050505"/><stop offset="1" stop-color="#0b0b0b"/></linearGradient><linearGradient x1="223.14742" y1="174.99696" x2="273.22105" y2="174.99696" gradientUnits="userSpaceOnUse" id="color-9"><stop offset="0" stop-color="#050505"/><stop offset="1" stop-color="#0b0b0b"/></linearGradient><linearGradient x1="218.80207" y1="158.5486" x2="269.99523" y2="158.5486" gradientUnits="userSpaceOnUse" id="color-10"><stop offset="0" stop-color="#050505"/><stop offset="1" stop-color="#0b0b0b"/></linearGradient><linearGradient x1="217.48481" y1="146.59214" x2="271.93111" y2="146.59214" gradientUnits="userSpaceOnUse" id="color-11"><stop offset="0" stop-color="#050505"/><stop offset="1" stop-color="#0b0b0b"/></linearGradient><linearGradient x1="228.61787" y1="136.01033" x2="267.52853" y2="136.01033" gradientUnits="userSpaceOnUse" id="color-12"><stop offset="0" stop-color="#050505"/><stop offset="1" stop-color="#0b0b0b"/></linearGradient><linearGradient x1="225.88049" y1="115.90296" x2="258.60303" y2="115.90296" gradientUnits="userSpaceOnUse" id="color-13"><stop offset="0" stop-color="#050505"/><stop offset="1" stop-color="#0b0b0b"/></linearGradient><linearGradient x1="239.43646" y1="102.9355" x2="261.37793" y2="102.9355" gradientUnits="userSpaceOnUse" id="color-14"><stop offset="0" stop-color="#050505"/><stop offset="1" stop-color="#0b0b0b"/></linearGradient><linearGradient x1="257.08164" y1="134.03734" x2="283.44624" y2="134.03734" gradientUnits="userSpaceOnUse" id="color-15"><stop offset="0" stop-color="#050505"/><stop offset="1" stop-color="#0b0b0b"/></linearGradient><linearGradient x1="218.18729" y1="156.00597" x2="225.06072" y2="135.70961" gradientUnits="userSpaceOnUse" id="color-16"><stop offset="0" stop-color="#0d0d0d"/><stop offset="1" stop-color="#181818"/></linearGradient><linearGradient x1="197.13009" y1="140.38711" x2="233.90097" y2="132.67939" gradientUnits="userSpaceOnUse" id="color-17"><stop offset="0" stop-color="#050505"/><stop offset="1" stop-color="#0b0b0b"/></linearGradient><linearGradient x1="251.12915" y1="211.02729" x2="276.22186" y2="211.02729" gradientUnits="userSpaceOnUse" id="color-18"><stop offset="0" stop-color="#050505"/><stop offset="1" stop-color="#0b0b0b"/></linearGradient><linearGradient x1="225.01893" y1="212.44259" x2="248.1373" y2="212.44259" gradientUnits="userSpaceOnUse" id="color-19"><stop offset="0" stop-color="#050505"/><stop offset="1" stop-color="#0b0b0b"/></linearGradient><linearGradient x1="224.76821" y1="172.03316" x2="269.71452" y2="172.03316" gradientUnits="userSpaceOnUse" id="color-20"><stop offset="0" stop-color="#0d0d0d"/><stop offset="1" stop-color="#181818"/></linearGradient><linearGradient x1="217.32139" y1="244.63273" x2="242.50012" y2="244.63273" gradientUnits="userSpaceOnUse" id="color-21"><stop offset="0" stop-color="#050505"/><stop offset="1" stop-color="#0b0b0b"/></linearGradient><linearGradient x1="219.25773" y1="229.98456" x2="243.45678" y2="229.98456" gradientUnits="userSpaceOnUse" id="color-22"><stop offset="0" stop-color="#050505"/><stop offset="1" stop-color="#0b0b0b"/></linearGradient><linearGradient x1="249.09745" y1="195.2234" x2="273.19831" y2="195.2234" gradientUnits="userSpaceOnUse" id="color-23"><stop offset="0" stop-color="#050505"/><stop offset="1" stop-color="#0b0b0b"/></linearGradient><linearGradient x1="224.4676" y1="195.8657" x2="251.19102" y2="195.8657" gradientUnits="userSpaceOnUse" id="color-24"><stop offset="0" stop-color="#050505"/><stop offset="1" stop-color="#0b0b0b"/></linearGradient><linearGradient x1="254.00961" y1="115.86845" x2="251.06181" y2="123.51949" gradientUnits="userSpaceOnUse" id="color-25"><stop offset="0" stop-color="#ff0000"/><stop offset="1" stop-color="#b50a0a"/></linearGradient><radialGradient cx="252.68171" cy="120.01184" r="13.89578" gradientUnits="userSpaceOnUse" id="color-26"><stop offset="0" stop-color="#b50a0a"/><stop offset="1" stop-color="#b50a0a" stop-opacity="0"/></radialGradient><linearGradient x1="249.7777" y1="244.92472" x2="274.95628" y2="244.92472" gradientUnits="userSpaceOnUse" id="color-27"><stop offset="0" stop-color="#050505"/><stop offset="1" stop-color="#0b0b0b"/></linearGradient><linearGradient x1="251.08197" y1="230.36346" x2="272.55933" y2="230.36346" gradientUnits="userSpaceOnUse" id="color-28"><stop offset="0" stop-color="#050505"/><stop offset="1" stop-color="#0b0b0b"/></linearGradient><linearGradient x1="217.31871" y1="239.96969" x2="236.40888" y2="239.96969" gradientUnits="userSpaceOnUse" id="color-29"><stop offset="0" stop-color="#0d0d0d"/><stop offset="1" stop-color="#181818"/></linearGradient><linearGradient x1="249.27197" y1="240.68652" x2="268.50534" y2="240.68652" gradientUnits="userSpaceOnUse" id="color-30"><stop offset="0" stop-color="#0d0d0d"/><stop offset="1" stop-color="#181818"/></linearGradient><radialGradient cx="372.9576" cy="127.85578" r="12.91056" gradientUnits="userSpaceOnUse" id="color-31"><stop offset="0" stop-color="#b50a0a"/><stop offset="1" stop-color="#b50a0a" stop-opacity="0"/></radialGradient><radialGradient cx="369.27722" cy="129.01436" r="12.91057" gradientUnits="userSpaceOnUse" id="color-32"><stop offset="0" stop-color="#b50a0a"/><stop offset="1" stop-color="#b50a0a" stop-opacity="0"/></radialGradient><radialGradient cx="365.28438" cy="130.04193" r="12.91057" gradientUnits="userSpaceOnUse" id="color-33"><stop offset="0" stop-color="#b50a0a"/><stop offset="1" stop-color="#b50a0a" stop-opacity="0"/></radialGradient><radialGradient cx="361.60391" cy="131.20053" r="12.91057" gradientUnits="userSpaceOnUse" id="color-34"><stop offset="0" stop-color="#b50a0a"/><stop offset="1" stop-color="#b50a0a" stop-opacity="0"/></radialGradient><radialGradient cx="359.15036" cy="131.97293" r="12.91057" gradientUnits="userSpaceOnUse" id="color-35"><stop offset="0" stop-color="#b50a0a"/><stop offset="1" stop-color="#b50a0a" stop-opacity="0"/></radialGradient><radialGradient cx="355.47" cy="133.13155" r="12.91057" gradientUnits="userSpaceOnUse" id="color-36"><stop offset="0" stop-color="#b50a0a"/><stop offset="1" stop-color="#b50a0a" stop-opacity="0"/></radialGradient><radialGradient cx="351.47713" cy="134.15911" r="12.91057" gradientUnits="userSpaceOnUse" id="color-37"><stop offset="0" stop-color="#b50a0a"/><stop offset="1" stop-color="#b50a0a" stop-opacity="0"/></radialGradient><radialGradient cx="347.79667" cy="135.31768" r="12.91057" gradientUnits="userSpaceOnUse" id="color-38"><stop offset="0" stop-color="#b50a0a"/><stop offset="1" stop-color="#b50a0a" stop-opacity="0"/></radialGradient><radialGradient cx="400.63906" cy="117.92294" r="12.91057" gradientUnits="userSpaceOnUse" id="color-39"><stop offset="0" stop-color="#b50a0a"/><stop offset="1" stop-color="#b50a0a" stop-opacity="0"/></radialGradient><radialGradient cx="397.28591" cy="120.24976" r="12.91057" gradientUnits="userSpaceOnUse" id="color-40"><stop offset="0" stop-color="#b50a0a"/><stop offset="1" stop-color="#b50a0a" stop-opacity="0"/></radialGradient><radialGradient cx="393.07488" cy="120.49848" r="12.91057" gradientUnits="userSpaceOnUse" id="color-41"><stop offset="0" stop-color="#b50a0a"/><stop offset="1" stop-color="#b50a0a" stop-opacity="0"/></radialGradient><radialGradient cx="389.77623" cy="123.02002" r="12.91056" gradientUnits="userSpaceOnUse" id="color-42"><stop offset="0" stop-color="#b50a0a"/><stop offset="1" stop-color="#b50a0a" stop-opacity="0"/></radialGradient><radialGradient cx="389.12976" cy="122.2363" r="12.91057" gradientUnits="userSpaceOnUse" id="color-43"><stop offset="0" stop-color="#b50a0a"/><stop offset="1" stop-color="#b50a0a" stop-opacity="0"/></radialGradient><radialGradient cx="383.85029" cy="124.89278" r="12.91057" gradientUnits="userSpaceOnUse" id="color-44"><stop offset="0" stop-color="#b50a0a"/><stop offset="1" stop-color="#b50a0a" stop-opacity="0"/></radialGradient><radialGradient cx="381.87239" cy="124.30593" r="12.91057" gradientUnits="userSpaceOnUse" id="color-45"><stop offset="0" stop-color="#b50a0a"/><stop offset="1" stop-color="#b50a0a" stop-opacity="0"/></radialGradient><radialGradient cx="375.96899" cy="127.13718" r="12.91057" gradientUnits="userSpaceOnUse" id="color-46"><stop offset="0" stop-color="#b50a0a"/><stop offset="1" stop-color="#b50a0a" stop-opacity="0"/></radialGradient><radialGradient cx="315.76571" cy="144.94233" r="12.91057" gradientUnits="userSpaceOnUse" id="color-47"><stop offset="0" stop-color="#b50a0a"/><stop offset="1" stop-color="#b50a0a" stop-opacity="0"/></radialGradient><radialGradient cx="312.08534" cy="146.10095" r="12.91057" gradientUnits="userSpaceOnUse" id="color-48"><stop offset="0" stop-color="#b50a0a"/><stop offset="1" stop-color="#b50a0a" stop-opacity="0"/></radialGradient><radialGradient cx="308.09254" cy="147.12849" r="12.91057" gradientUnits="userSpaceOnUse" id="color-49"><stop offset="0" stop-color="#b50a0a"/><stop offset="1" stop-color="#b50a0a" stop-opacity="0"/></radialGradient><radialGradient cx="304.41217" cy="148.28711" r="12.91058" gradientUnits="userSpaceOnUse" id="color-50"><stop offset="0" stop-color="#b50a0a"/><stop offset="1" stop-color="#b50a0a" stop-opacity="0"/></radialGradient><radialGradient cx="301.95854" cy="149.05951" r="12.91057" gradientUnits="userSpaceOnUse" id="color-51"><stop offset="0" stop-color="#b50a0a"/><stop offset="1" stop-color="#b50a0a" stop-opacity="0"/></radialGradient><radialGradient cx="298.27816" cy="150.21811" r="12.91057" gradientUnits="userSpaceOnUse" id="color-52"><stop offset="0" stop-color="#b50a0a"/><stop offset="1" stop-color="#b50a0a" stop-opacity="0"/></radialGradient><radialGradient cx="294.28529" cy="151.24565" r="12.91057" gradientUnits="userSpaceOnUse" id="color-53"><stop offset="0" stop-color="#b50a0a"/><stop offset="1" stop-color="#b50a0a" stop-opacity="0"/></radialGradient><radialGradient cx="290.60493" cy="152.40426" r="12.91057" gradientUnits="userSpaceOnUse" id="color-54"><stop offset="0" stop-color="#b50a0a"/><stop offset="1" stop-color="#b50a0a" stop-opacity="0"/></radialGradient><radialGradient cx="343.93803" cy="136.76182" r="12.91058" gradientUnits="userSpaceOnUse" id="color-55"><stop offset="0" stop-color="#b50a0a"/><stop offset="1" stop-color="#b50a0a" stop-opacity="0"/></radialGradient><radialGradient cx="340.25766" cy="137.92043" r="12.91057" gradientUnits="userSpaceOnUse" id="color-56"><stop offset="0" stop-color="#b50a0a"/><stop offset="1" stop-color="#b50a0a" stop-opacity="0"/></radialGradient><radialGradient cx="336.26479" cy="138.94798" r="12.91057" gradientUnits="userSpaceOnUse" id="color-57"><stop offset="0" stop-color="#b50a0a"/><stop offset="1" stop-color="#b50a0a" stop-opacity="0"/></radialGradient><radialGradient cx="332.58443" cy="140.1066" r="12.91057" gradientUnits="userSpaceOnUse" id="color-58"><stop offset="0" stop-color="#b50a0a"/><stop offset="1" stop-color="#b50a0a" stop-opacity="0"/></radialGradient><radialGradient cx="330.13079" cy="140.87898" r="12.91058" gradientUnits="userSpaceOnUse" id="color-59"><stop offset="0" stop-color="#b50a0a"/><stop offset="1" stop-color="#b50a0a" stop-opacity="0"/></radialGradient><radialGradient cx="326.45042" cy="142.03759" r="12.91057" gradientUnits="userSpaceOnUse" id="color-60"><stop offset="0" stop-color="#b50a0a"/><stop offset="1" stop-color="#b50a0a" stop-opacity="0"/></radialGradient><radialGradient cx="322.45756" cy="143.06514" r="12.91057" gradientUnits="userSpaceOnUse" id="color-61"><stop offset="0" stop-color="#b50a0a"/><stop offset="1" stop-color="#b50a0a" stop-opacity="0"/></radialGradient><radialGradient cx="318.77719" cy="144.22375" r="12.91057" gradientUnits="userSpaceOnUse" id="color-62"><stop offset="0" stop-color="#b50a0a"/><stop offset="1" stop-color="#b50a0a" stop-opacity="0"/></radialGradient><linearGradient x1="346.33422" y1="130.35245" x2="348.55818" y2="138.29132" gradientUnits="userSpaceOnUse" id="color-63"><stop offset="0" stop-color="#400000"/><stop offset="1" stop-color="#ff0000"/></linearGradient><linearGradient x1="290.41734" y1="150.33981" x2="286.12783" y2="151.54144" gradientUnits="userSpaceOnUse" id="color-64"><stop offset="0" stop-color="#0d0d0d"/><stop offset="1" stop-color="#181818"/></linearGradient><linearGradient x1="246.71034" y1="161.31297" x2="257.93881" y2="141.97381" gradientUnits="userSpaceOnUse" id="color-65"><stop offset="0" stop-color="#0d0d0d"/><stop offset="1" stop-color="#181818"/></linearGradient><linearGradient x1="231.17626" y1="158.95849" x2="242.15968" y2="139.52936" gradientUnits="userSpaceOnUse" id="color-66"><stop offset="0" stop-color="#050505"/><stop offset="1" stop-color="#0b0b0b"/></linearGradient><linearGradient x1="260.12739" y1="163.46038" x2="273.79967" y2="147.04469" gradientUnits="userSpaceOnUse" id="color-67"><stop offset="0" stop-color="#050505"/><stop offset="1" stop-color="#0b0b0b"/></linearGradient></defs><g transform="translate(-199.8554,-92.94061)"><g data-paper-data="{&quot;isPaintingLayer&quot;:true}" fill-rule="nonzero" stroke-linejoin="miter" stroke-miterlimit="10" stroke-dasharray="" stroke-dashoffset="0" style="mix-blend-mode: normal"><g><path d="M210.39088,224.39565l52.53615,-114.7469l11.87672,5.66982l-52.53615,114.74691c0,0 -5.13711,2.6005 -8.0106,1.22873c-2.87349,-1.37177 -3.86612,-6.89855 -3.86612,-6.89855z" fill="#0d0d0d" stroke="#000000" stroke-width="2.5" stroke-linecap="butt"/><path d="M249.12996,171.11773l-7.20177,-3.33553l12.89739,-27.84686l4.13357,-1.58417l7.55385,-16.30957l-1.64904,-4.172l-4.22396,-1.82371l2.08759,-4.71608l11.42707,5.09812z" fill="#050505" stroke="#000000" stroke-width="2.5" stroke-linecap="round"/><path d="M259.17557,110.52332c0,0 -0.40317,-1.69388 -0.03147,-2.48904c0.3717,-0.79516 2.00437,-1.73149 2.00437,-1.73149l18.83486,8.64396c0,0 0.38908,1.72406 -0.03654,2.63458c-0.42562,0.91052 -1.93635,1.58594 -1.93635,1.58594z" fill="#000000" stroke="none" stroke-width="0" stroke-linecap="butt"/><path d="M278.93433,116.57664l1.4796,7.30806l-3.42279,7.80931c0,0 -2.46812,-0.11636 -3.60999,-0.64522c-1.29898,-0.60163 -3.77348,-2.77446 -3.77348,-2.77446" fill="none" stroke="#000000" stroke-width="3.5" stroke-linecap="round"/><path d="M275.80208,125.42242c0,0 -1.80801,0.68796 -2.73306,0.68428c-1.01281,-0.00403 -3.10442,-0.7075 -3.10442,-0.7075" fill="none" stroke="#000000" stroke-width="2.5" stroke-linecap="round"/><path d="M235.11581,170.93729l5.3354,2.47111l-6.36998,13.75347l-7.83834,2.77755z" fill="#050505" stroke="#000000" stroke-width="2.5" stroke-linecap="round"/><path d="M221.97861,230.39268c0,0 -5.11706,2.79324 -7.9861,1.2012c-2.86904,-1.59205 -3.46032,-7.55288 -3.46032,-7.55288l0.63808,-1.38138l4.30192,1.98732l4.40195,-1.36953l6.91124,-14.9221l-1.55944,-4.25021l4.00869,-8.6552l1.73478,-0.63651l8.31259,-2.55789z" fill="#070707" stroke="#000000" stroke-width="2.5" stroke-linecap="round"/></g><path d="M252.35641,245.73392c0,0 0.19852,-8.55104 1.38882,-13.71339c1.44892,-6.28392 0.25938,-22.16945 0.25938,-22.16945l19.25626,5.39709c0,0 -5.15498,12.92962 -6.70139,19.15803c-0.74304,2.99272 -2.49826,8.70797 -3.3447,11.54434c-0.64844,2.17292 1.56926,2.49403 1.56926,2.49403c0,0 -5.9345,-1.99421 -8.389,-2.36376c-2.21524,-0.33353 -4.03864,-0.34687 -4.03864,-0.34687z" fill="url(#color-1)" stroke="#000000" stroke-width="2" stroke-linecap="butt"/><path d="M218.66263,245.7364c0,0 2.07196,-9.30716 3.85733,-14.10013c2.17321,-5.83426 4.3477,-19.69113 4.3477,-19.69113c0,0 9.12123,-1.06136 11.26208,-0.25779c3.28691,1.23373 6.54087,6.94003 6.54087,6.94003c0,0 -6.2958,9.9344 -8.55943,15.70563c-1.08765,2.77304 -3.75473,8.89458 -4.92686,11.50795c-0.89798,2.00208 0.3869,2.59056 0.3869,2.59056c0,0 -5.6639,-2.51847 -8.05963,-3.12651c-2.16218,-0.54875 -4.84894,0.43137 -4.84894,0.43137z" fill="url(#color-2)" stroke="#000000" stroke-width="2" stroke-linecap="butt"/><path d="M253.70365,210.48003l-9.62808,-37.31619l24.62305,-0.38301l2.4107,35.75734z" data-paper-data="{&quot;index&quot;:null}" fill="url(#color-3)" stroke="#000000" stroke-width="2" stroke-linecap="butt"/><path d="M226.74394,210.72125l0.12798,-37.30209l28.14064,0.38301l-9.22714,36.63304z" fill="url(#color-4)" stroke="#000000" stroke-width="2" stroke-linecap="butt"/><path d="M255.62969,139.04244c0.10838,-5.52859 10.42874,-5.12881 17.27284,-5.05319c6.84409,0.07562 9.11882,15.41156 9.01044,20.94016c-0.10839,5.52859 -7.91545,3.85691 -14.75954,3.78129c-6.84409,-0.07561 -11.63213,-14.13965 -11.52373,-19.66826z" data-paper-data="{&quot;index&quot;:null}" fill="url(#color-5)" stroke="#000000" stroke-width="2" stroke-linecap="butt"/><path d="M267.06219,156.33971c5.72232,-1.82534 11.59038,-5.36641 13.98091,-0.3068c2.3905,5.05961 0.55186,20.6949 -5.17046,22.52023c-5.72232,1.82534 -4.85689,1.51479 -7.24741,-3.54484c-2.3905,-5.05961 -7.28535,-16.84326 -1.56303,-18.66861z" data-paper-data="{&quot;index&quot;:null}" fill="url(#color-6)" stroke="#000000" stroke-width="2" stroke-linecap="butt"/><path d="M265.16069,151.1048c2.10737,-1.50811 4.45651,-3.88583 7.27579,-4.78516c5.72232,-1.82534 8.22892,-2.05798 10.61943,3.00164c2.3905,5.05961 2.91712,10.88924 -2.80521,12.71459c-4.43623,1.41509 -9.55432,-1.72831 -13.54092,-4.78967c-1.15575,-0.8875 -3.33152,-1.2979 -3.86878,-2.43504c-1.21276,-2.56685 0.14969,-2.15344 2.31969,-3.70637z" data-paper-data="{&quot;index&quot;:null}" fill="url(#color-7)" stroke="#000000" stroke-width="2" stroke-linecap="butt"/><path d="M266.30332,178.97334c0.8632,-0.46075 -3.2863,-11.203 -2.14694,-11.31913c0.87633,-0.08931 15.02423,-0.84904 17.82742,1.37849c2.62499,2.08591 -5.26913,9.4481 -4.64548,9.75714c1.42194,0.70461 1.47411,1.80134 1.71337,3.1242c0.29008,1.60378 -0.41491,4.95495 -1.84322,6.26867c-0.81833,0.75266 -1.83669,-0.09316 -3.13627,0.0393c-1.03443,0.10542 -2.85388,1.22772 -3.79629,-0.08503c-0.9168,-1.27707 -0.95989,-4.98009 -1.72729,-5.58518c-0.48933,-0.38581 0.83371,3.01123 0.4382,3.34947c-0.54586,0.46683 -2.74256,-2.04425 -2.85579,-2.67036c-0.31056,-1.71708 -1.66761,-3.27545 0.17232,-4.25758z" data-paper-data="{&quot;index&quot;:null}" fill="url(#color-8)" stroke="#000000" stroke-width="2" stroke-linecap="butt"/><path d="M223.14742,184.34669l4.00039,-18.52536l39.31412,-2.06721l6.75928,20.59256c0,0 -12.04391,2.39249 -13.0729,1.7983c-1.12221,-0.64802 -3.86044,-13.29454 -4.49228,-13.18316c-1.00223,0.17666 -1.77827,13.08135 -2.90801,13.14121c-4.84922,0.25688 -10.05175,-0.04691 -12.56447,-0.04691c-9.23661,0 -17.03613,-1.70943 -17.03613,-1.70943z" fill="url(#color-9)" stroke="#000000" stroke-width="2" stroke-linecap="butt"/><path d="M269.91051,153.19189c0.41549,2.09214 -0.77823,0.21406 -1.8017,4.12045c-0.27856,1.06328 0.38855,11.18137 0.02358,12.1099c-1.30274,3.31458 -11.53288,1.66588 -11.53288,1.66588c0,0 -10.28101,0.68487 -17.71984,-0.03111c-7.0427,-0.67785 -12.49059,-1.60759 -12.49059,-1.60759c0,0 -2.3633,-5.19414 -3.38571,-7.68453c-1.02241,-2.49039 -3.19977,-7.14184 -4.20131,-11.34106c0,0 21.25847,-3.49429 36.50433,-4.77394c8.31938,-0.69827 14.29661,5.99373 14.6041,7.542z" fill="url(#color-10)" stroke="#000000" stroke-width="2" stroke-linecap="butt"/><path d="M271.84175,144.12294c0.41549,2.09213 -0.66581,10.24573 -2.21552,11.88678c-0.6796,0.71966 0.34261,3.84632 -1.74014,4.78794c-4.01228,1.81397 -12.57056,5.246 -12.57056,5.246c0,0 -15.46288,-3.80982 -24.69227,-4.77925c-5.59527,-0.58772 -1.11313,-3.6446 -4.47902,-5.17345c-1.78763,-0.81199 -6.23974,-1.18899 -6.38254,-1.47929c-1.20257,-2.44462 -0.78574,-0.66989 -1.78729,-4.86913c-1.05996,-4.44417 -0.06891,-3.86697 -0.06891,-6.75865c0,-8.52127 9.31125,-15.84333 9.31125,-15.84333l38.99422,5.21908c0,0 4.75979,7.37776 5.63076,11.76331z" fill="url(#color-11)" stroke="#000000" stroke-width="2" stroke-linecap="butt"/><path d="M234.32095,140.97286c-1.59411,-0.0758 -4.8926,-0.15082 -5.55365,-1.24238c-0.74698,-1.23344 1.54076,-10.86086 1.70754,-11.6386c0.36477,-1.7009 22.92839,-0.58068 26.05515,-0.58068c1.6816,0 13.86237,3.6088 10.37372,7.20745c-0.94987,0.97982 0.76245,2.84793 -1.25676,3.83107c-4.34323,2.11469 -7.80272,5.56133 -9.82352,6.29386c-2.4811,0.41031 -21.00143,-3.84687 -21.50248,-3.8707z" fill="url(#color-12)" stroke="#000000" stroke-width="2" stroke-linecap="butt"/><path d="M239.27089,101.70845c2.28053,-0.10414 19.42058,3.03674 19.33192,4.32696c-0.47695,6.93933 -6.75003,24.06458 -16.00647,24.06458c-4.91206,0 -13.32723,-0.91598 -13.32723,-0.91598c0,0 -3.38866,-12.96426 -3.38866,-16.22545c0,-3.26119 13.39043,-11.25009 13.39043,-11.25009z" fill="url(#color-13)" stroke="#000000" stroke-width="2" stroke-linecap="butt"/><path d="M242.11502,94.71297c4.74337,-0.21357 17.56143,10.40572 17.50759,11.18931c-0.07474,1.08728 1.75543,2.39336 1.75543,2.39336l-11.28836,2.86556c0,0 0.8316,-5.16878 -0.82662,-6.67507c0,0 -2.6008,-1.42409 -5.75939,-1.8489c-1.54308,-0.20754 -4.30131,-0.92038 -4.05138,-1.23946c0.34411,-0.43928 4.1667,-1.94732 4.56366,-2.74593c0.59523,-1.1975 -1.90097,-3.93888 -1.90097,-3.93888z" fill="url(#color-14)" stroke="#000000" stroke-width="2" stroke-linecap="butt"/><path d="M231.69944,116.60758l1.45379,-2.00606c0,0 3.33643,1.84276 5.41314,1.04071c5.44136,-2.10151 8.23969,-3.65283 13.71828,-5.69913c3.02499,-1.12987 9.8708,-0.83887 9.8708,-0.83887c0,0 -0.34224,0.24977 -0.84083,3.45537c-0.4986,3.20561 -0.82733,5.36274 -0.82733,5.36274c0,0 -2.35056,8.19971 -5.03504,10.86326c-2.04878,2.0328 -4.74104,3.15363 -4.74104,3.15363l-11.88948,-2.90062c0,0 -0.92524,-5.47614 -2.10244,-7.35331z" fill="#000000" stroke="#000000" stroke-width="1.5" stroke-linecap="butt"/><path d="M277.61672,143.97967c-1.28979,0 -1.21301,-2.60896 -3.00419,-5.1602c-0.78069,-1.11197 -7.84562,-0.22485 -7.92283,-0.55012c-0.62774,-2.64454 -9.60807,-9.05984 -9.60807,-10.38614c0,-4.04777 2.21844,-4.92827 2.21844,-4.92827c0,0 0.37328,0.56409 1.53906,1.85044c1.4412,1.59028 11.07297,1.26091 13.837,2.79558c5.12831,2.84743 6.68371,12.40545 6.68371,14.16194c0,1.7476 3.19388,3.13036 1.67832,3.32891c-1.80856,0.23696 -5.42145,-1.11215 -5.42145,-1.11215z" data-paper-data="{&quot;index&quot;:null}" fill="url(#color-15)" stroke="#000000" stroke-width="2" stroke-linecap="butt"/><path d="M237.37534,144.38968c-0.9528,5.82675 0.00265,12.47818 -7.13582,12.55345c-7.13849,0.07524 -27.92387,-5.63268 -26.97104,-11.45943c0.95282,-5.82675 3.4004,-10.88973 10.53887,-10.96498c7.13849,-0.07524 24.52082,4.04422 23.568,9.87097z" data-paper-data="{&quot;index&quot;:null}" fill="url(#color-16)" stroke="#000000" stroke-width="2" stroke-linecap="butt"/><path d="M201.29623,150.27015c-0.59097,-1.73195 -1.28675,-8.52189 3.01772,-12.92218c1.92257,-1.96533 6.53308,-7.57782 10.88512,-10.27503c2.67468,-1.65766 5.72522,-0.69995 6.59265,-1.59986c1.84334,-1.91237 1.89463,-4.10423 1.89463,-4.10423c0,0 7.70545,1.89009 9.06732,5.88129c0.44624,1.30778 -0.98938,5.37233 -1.3253,8.32668c-0.04132,0.36337 -4.48413,1.66458 -5.63427,3.19229c-2.63885,3.50508 -8.07537,1.71126 -10.44765,4.54987c-2.37227,2.83861 1.76041,10.96573 -0.58978,11.40458c-2.82548,0.52762 -6.10727,1.54495 -8.83854,0.24939c-2.5304,-1.20028 -4.62189,-4.70278 -4.62189,-4.70278z" fill="url(#color-17)" stroke="#000000" stroke-width="2" stroke-linecap="butt"/><path d="M259.74996,117.41588c0.19876,1.16981 -2.18343,6.49989 -2.18343,6.49989c0,0 -0.5794,2.50747 -2.29843,4.28616c-0.96659,1.1683 -4.37969,2.57042 -4.37969,2.57042c0,0 3.10555,-6.27437 4.73372,-11.49278c0.21787,-0.69828 0.63195,-1.20473 2.71571,-4.61229c1.81131,-2.96202 2.57551,-2.35613 2.57551,-2.35613c0,0 -0.92073,4.07766 -1.16338,5.1047z" fill="#000000" stroke="#000000" stroke-width="1.5" stroke-linecap="butt"/><path d="M256.43944,208.71771c1.98991,-1.30575 4.20666,-3.36318 6.8711,-4.14382c5.40805,-1.58446 9.08934,-1.78869 11.36065,2.5799c2.27132,4.36858 2.59415,9.54547 -2.81392,11.12993c-4.19261,1.22836 -11.08121,-2.70092 -14.85785,-5.34094c-0.72798,-0.50888 -3.79748,0.493 -5.15721,-0.05421c-0.68528,-0.27578 -0.34613,-1.25987 -0.51719,-1.58888c-1.15229,-2.21627 3.0654,-1.23744 5.11443,-2.582z" data-paper-data="{&quot;index&quot;:null}" fill="url(#color-18)" stroke="#000000" stroke-width="2" stroke-linecap="butt"/><path d="M230.66094,208.37638c2.19289,-0.90515 4.79846,-2.47105 7.47357,-2.78793c5.42971,-0.64317 8.74117,-0.47166 9.66315,3.91441c0.92198,4.38607 0.21212,9.38818 -5.21759,10.03134c-4.20938,0.4986 -8.86426,-3.85799 -11.64505,-6.87412c-0.32284,-0.35017 -4.07725,0.55348 -5.57462,-0.06951c-0.56679,-0.2358 -0.25091,-1.3674 -0.2764,-1.48866c-0.46774,-2.22513 3.31887,-1.79349 5.57694,-2.72553z" data-paper-data="{&quot;index&quot;:null}" fill="url(#color-19)" stroke="#000000" stroke-width="2" stroke-linecap="butt"/><path d="M224.7683,173.43617c0,0 -0.00748,-1.51106 0.12892,-2.27902c0.13942,-0.78492 0.69876,-2.38078 0.69876,-2.38078c0,0 7.15917,1.05794 15.2409,1.69654c6.02897,0.47638 12.81605,0.58161 16.2104,0.58161c5.33618,0 11.58731,-1.76037 11.58731,-1.76037c0,0 0.90416,1.1461 1.0271,1.68442c0.1482,0.64897 -0.06148,2.35409 -0.06148,2.35409c0,0 -6.75601,1.77632 -11.58634,1.78773c-3.6964,0.00873 -10.99143,0.3803 -17.80844,-0.00488c-8.05205,-0.45496 -15.43712,-1.6793 -15.43712,-1.6793z" fill="url(#color-20)" stroke="#000000" stroke-width="2" stroke-linecap="butt"/><path d="M251.15011,175.45542c0,0 -0.41051,-1.17204 -0.5048,-1.70293c-0.15251,-0.85865 -0.04699,-2.95687 -0.04699,-2.95687c0,0 3.01256,-0.2071 4.41421,-0.2071c1.35568,0 3.86244,0.2071 3.86244,0.2071c0,0 0.55176,1.37226 0.55176,2.07103c0,0.71602 -0.27589,2.17457 -0.27589,2.17457c0,0 -2.39944,0.70559 -3.40591,0.75955c-1.422,0.07626 -4.59488,-0.34534 -4.59488,-0.34534z" fill="#060606" stroke="#000000" stroke-width="2" stroke-linecap="butt"/><path d="M217.7811,251.68743l-0.45973,-7.88836l2.57823,-6.4497l13.97429,2.9044l0.13771,3.18065c0,0 7.27072,5.05523 8.1505,5.19207c1.33914,0.20829 -1.73314,3.2896 -1.73314,3.2896z" fill="url(#color-21)" stroke="#000000" stroke-width="2" stroke-linecap="butt"/><path d="M223.63792,219.6233c0,0 7.32375,-0.14216 10.59776,0.51112c3.33128,0.66471 9.22112,3.44346 9.22112,3.44346l-7.46756,16.78102c0,0 -6.40088,-0.42925 -9.32051,-1.15302c-2.62642,-0.65106 -7.41097,-2.99461 -7.41097,-2.99461z" fill="url(#color-22)" stroke="#000000" stroke-width="2" stroke-linecap="butt"/><path d="M250.30268,202.52901l-1.18906,-5.30443l-0.01616,-6.15706c0,0 7.99965,-2.39951 11.69722,-2.92266c4.07035,-0.57588 11.71417,-0.38958 11.71417,-0.38958l0.68956,5.91016l-1.00554,5.49384c0,0 -6.76982,2.72798 -10.3972,3.28637c-3.66888,0.56477 -11.493,0.08335 -11.493,0.08335z" fill="url(#color-23)" stroke="#000000" stroke-width="2" stroke-linecap="butt"/><path d="M225.15574,201.30135l-0.68814,-5.29685l0.69148,-5.95494c0,0 9.01627,-1.18614 13.11628,-1.16787c4.51333,0.02011 12.84305,1.28353 12.84305,1.28353l0.07267,5.81168l-1.73131,5.16896c0,0 -7.71049,1.67797 -11.73785,1.70374c-4.07344,0.02606 -12.56614,-1.54824 -12.56614,-1.54824z" fill="url(#color-24)" stroke="#000000" stroke-width="2" stroke-linecap="butt"/><path d="M249.03244,118.58665c0.81401,-2.11279 3.0424,-3.32974 4.9772,-2.7182c1.93483,0.61155 2.84342,2.82005 2.0294,4.93282c-0.81401,2.11279 -3.0424,3.32974 -4.97722,2.7182c-1.93483,-0.61155 -2.84341,-2.82005 -2.02938,-4.93282z" fill="url(#color-25)" stroke="#000000" stroke-width="0" stroke-linecap="butt"/><path d="M239.39008,120.01184c0,-6.31705 5.95087,-11.43802 13.29163,-11.43802c7.34076,0 13.29163,5.12098 13.29163,11.43802c0,6.31705 -5.95086,11.43803 -13.29163,11.43803c-7.34077,0 -13.29163,-5.12099 -13.29163,-11.43803z" fill="url(#color-26)" stroke="#000000" stroke-width="0" stroke-linecap="butt"/><path d="M250.23741,251.97941l-0.45973,-7.88836l2.57824,-6.4497l13.69395,1.1617l0.41803,4.92337c0,0 7.27073,5.05523 8.1505,5.19207c1.33914,0.20829 -1.73314,3.2896 -1.73314,3.2896z" fill="url(#color-27)" stroke="#000000" stroke-width="2" stroke-linecap="butt"/><path d="M252.91711,221.0012c0,0 7.24515,-0.89217 10.59255,-0.57974c3.40593,0.31788 9.04974,2.47093 9.04974,2.47093l-5.48998,17.4161c0,0 -5.17448,0.23057 -8.18092,-0.18814c-2.70451,-0.37664 -7.80652,-2.21122 -7.80652,-2.21122z" fill="url(#color-28)" stroke="#000000" stroke-width="2" stroke-linecap="butt"/><path d="M228.84145,239.09439c2.55065,0.35142 7.06808,0.23899 7.06808,0.23899c0,0 0.59389,1.50881 0.48639,2.28905c-0.09993,0.7253 -0.85125,1.57395 -0.85125,1.57395c0,0 -5.10807,-0.07574 -7.86863,-0.45608c-3.01867,-0.4159 -9.33112,-2.47468 -9.33112,-2.47468c0,0 -1.13265,-1.62438 -1.01803,-2.45633c0.08289,-0.6016 1.8636,-1.06628 1.8636,-1.06628c0,0 6.51932,1.91993 9.65095,2.35139z" data-paper-data="{&quot;index&quot;:null}" fill="url(#color-29)" stroke="#000000" stroke-width="2" stroke-linecap="butt"/><path d="M260.83682,239.71923c2.56414,0.23343 7.07159,-0.08719 7.07159,-0.08719c0,0 0.66282,1.47981 0.59142,2.26418c-0.06637,0.72914 -0.77776,1.61154 -0.77776,1.61154c0,0 -5.10612,0.15989 -7.88129,-0.09275c-3.03464,-0.27625 -9.4353,-2.04176 -9.4353,-2.04176c0,0 -1.20636,-1.57041 -1.13022,-2.40678c0.05506,-0.60478 1.81244,-1.15108 1.81244,-1.15108c0,0 6.60092,1.61725 9.74911,1.90385z" data-paper-data="{&quot;index&quot;:null}" fill="url(#color-30)" stroke="#000000" stroke-width="2" stroke-linecap="butt"/><g><g stroke="none" stroke-width="0" stroke-linecap="butt"><g><g><g><path d="M367.52473,110.99473c7.99499,-2.51686 16.2491,0.94503 18.43605,7.73238c2.18695,6.78734 -2.52136,14.32987 -10.51635,16.84673c-7.99499,2.51686 -16.2491,-0.94502 -18.43605,-7.73236c-2.18695,-6.78734 2.52136,-14.32987 10.51635,-16.84673z" fill="url(#color-31)"/><path d="M363.84438,112.15335c7.99499,-2.51686 16.24911,0.94503 18.43606,7.73238c2.18695,6.78734 -2.52136,14.32986 -10.51636,16.84673c-7.99499,2.51686 -16.2491,-0.94503 -18.43605,-7.73237c-2.18695,-6.78734 2.52137,-14.32987 10.51635,-16.84674z" fill="url(#color-32)"/><path d="M359.85151,113.18089c7.99499,-2.51686 16.2491,0.94503 18.43605,7.73237c2.18695,6.78734 -2.52136,14.32987 -10.51635,16.84672c-7.99499,2.51686 -16.2491,-0.94503 -18.43605,-7.73237c-2.18695,-6.78734 2.52136,-14.32987 10.51636,-16.84673z" fill="url(#color-33)"/><path d="M356.17106,114.33948c7.99499,-2.51686 16.24911,0.94503 18.43606,7.73239c2.18695,6.78734 -2.52137,14.32988 -10.51636,16.84673c-7.99499,2.51686 -16.24911,-0.94503 -18.43606,-7.73237c-2.18695,-6.78734 2.52137,-14.32988 10.51635,-16.84675z" fill="url(#color-34)"/></g><g><path d="M353.71751,115.1119c7.99499,-2.51686 16.24912,0.94504 18.43606,7.73238c2.18695,6.78734 -2.52136,14.32986 -10.51636,16.84673c-7.99499,2.51686 -16.24911,-0.94503 -18.43606,-7.73238c-2.18695,-6.78734 2.52136,-14.32986 10.51635,-16.84673z" fill="url(#color-35)"/><path d="M350.03714,116.2705c7.99499,-2.51686 16.24911,0.94503 18.43606,7.73237c2.18695,6.78734 -2.52137,14.32987 -10.51635,16.84672c-7.99499,2.51686 -16.2491,-0.94503 -18.43605,-7.73237c-2.18695,-6.78734 2.52136,-14.32986 10.51635,-16.84672z" fill="url(#color-36)"/><path d="M346.0442,117.29803c7.99499,-2.51686 16.2491,0.94503 18.43605,7.73237c2.18695,6.78734 -2.52137,14.32987 -10.51636,16.84673c-7.99499,2.51686 -16.24911,-0.94503 -18.43606,-7.73238c-2.18695,-6.78734 2.52137,-14.32987 10.51635,-16.84672z" fill="url(#color-37)"/><path d="M342.36384,118.45663c7.99499,-2.51686 16.24911,0.94503 18.43606,7.73238c2.18695,6.78734 -2.52136,14.32988 -10.51636,16.84674c-7.99499,2.51686 -16.24911,-0.94503 -18.43605,-7.73238c-2.18695,-6.78734 2.52137,-14.32988 10.51635,-16.84674z" fill="url(#color-38)"/></g></g><g><g><path d="M395.20622,101.06188c7.99499,-2.51686 16.2491,0.94503 18.43605,7.73237c2.18695,6.78734 -2.52136,14.32987 -10.51635,16.84672c-7.99499,2.51686 -16.24911,-0.94503 -18.43606,-7.73238c-2.18695,-6.78734 2.52137,-14.32987 10.51637,-16.84673z" fill="url(#color-39)"/><path d="M391.85305,103.38871c7.99499,-2.51686 16.2491,0.94503 18.43605,7.73237c2.18695,6.78734 -2.52137,14.32987 -10.51637,16.84673c-2.53765,0.79887 -4.89344,0.93714 -7.281,0.61616c-5.13456,-0.69023 -9.66224,-3.71553 -11.15506,-8.34853c-2.18695,-6.78734 2.52136,-14.32987 10.51636,-16.84673z" fill="url(#color-40)"/><path d="M387.64202,103.63745c7.99499,-2.51686 16.24911,0.94503 18.43607,7.73237c2.18695,6.78734 -2.52138,14.32986 -10.51638,16.84673c-7.99499,2.51686 -16.24908,-0.94504 -18.43604,-7.73238c-2.18695,-6.78734 2.52136,-14.32986 10.51635,-16.84673z" fill="url(#color-41)"/><path d="M384.34339,106.15899c7.99499,-2.51686 16.24911,0.94503 18.43606,7.73239c2.18695,6.78734 -2.52136,14.32987 -10.51635,16.84674c-7.99499,2.51686 -16.24911,-0.94503 -18.43607,-7.73237c-2.18695,-6.78734 2.52137,-14.32988 10.51637,-16.84674z" fill="url(#color-42)"/></g><g><path d="M383.69691,105.37525c7.99499,-2.51686 16.24911,0.94503 18.43606,7.73238c2.18695,6.78734 -2.52136,14.32987 -10.51636,16.84674c-7.99499,2.51686 -16.2491,-0.94503 -18.43605,-7.73237c-2.18695,-6.78734 2.52136,-14.32988 10.51636,-16.84674z" fill="url(#color-43)"/><path d="M378.41737,108.03172c7.99499,-2.51686 16.24911,0.94503 18.43605,7.73238c2.18695,6.78734 -2.52136,14.32986 -10.51635,16.84672c-7.99499,2.51686 -16.2491,-0.94503 -18.43605,-7.73237c-2.18695,-6.78734 2.52136,-14.32987 10.51636,-16.84673z" fill="url(#color-44)"/><path d="M376.43957,107.44487c7.99499,-2.51686 16.2491,0.94502 18.43605,7.73236c2.18695,6.78734 -2.52137,14.32987 -10.51635,16.84672c-7.99499,2.51686 -16.2491,-0.94503 -18.43606,-7.73238c-2.18695,-6.78734 2.52136,-14.32987 10.51635,-16.84672z" fill="url(#color-45)"/><path d="M370.53615,110.27613c7.99499,-2.51686 16.2491,0.94502 18.43605,7.73236c2.18695,6.78734 -2.52137,14.32986 -10.51636,16.84672c-7.99499,2.51686 -16.2491,-0.94503 -18.43605,-7.73237c-2.18695,-6.78734 2.52136,-14.32987 10.51635,-16.84672z" fill="url(#color-46)"/></g></g></g><g><g><g><path d="M310.33299,128.08132c7.99499,-2.51686 16.2491,0.94503 18.43605,7.73237c2.18695,6.78734 -2.52137,14.32987 -10.51636,16.84673c-7.99499,2.51686 -16.24911,-0.94503 -18.43606,-7.73238c-2.18695,-6.78734 2.52136,-14.32987 10.51636,-16.84673z" fill="url(#color-47)"/><path d="M306.65255,129.23991c7.99499,-2.51686 16.2491,0.94503 18.43605,7.73237c2.18695,6.78734 -2.52136,14.32987 -10.51636,16.84673c-7.99499,2.51686 -16.2491,-0.94503 -18.43605,-7.73237c-2.18695,-6.78734 2.52136,-14.32987 10.51635,-16.84674z" fill="url(#color-48)"/><path d="M302.65968,130.26744c7.99499,-2.51686 16.2491,0.94503 18.43605,7.73237c2.18695,6.78734 -2.52136,14.32987 -10.51636,16.84673c-7.99499,2.51686 -16.24909,-0.94504 -18.43606,-7.73239c-2.18695,-6.78734 2.52136,-14.32986 10.51635,-16.84672z" fill="url(#color-49)"/><path d="M298.97931,131.42605c7.99499,-2.51686 16.24909,0.94504 18.43605,7.73238c2.18695,6.78734 -2.52137,14.32987 -10.51635,16.84673c-7.99499,2.51686 -16.2491,-0.94503 -18.43605,-7.73237c-2.18695,-6.78734 2.52138,-14.32986 10.51635,-16.84672z" fill="url(#color-50)"/></g><g><path d="M296.52575,132.19846c7.99499,-2.51686 16.24912,0.94504 18.43606,7.73238c2.18695,6.78734 -2.52138,14.32986 -10.51638,16.84673c-7.99499,2.51686 -16.2491,-0.94503 -18.43605,-7.73237c-2.18695,-6.78734 2.52138,-14.32987 10.51636,-16.84673z" fill="url(#color-51)"/><path d="M292.84532,133.35706c7.99499,-2.51686 16.2491,0.94503 18.43605,7.73238c2.18695,6.78734 -2.52136,14.32987 -10.51635,16.84672c-7.99499,2.51686 -16.2491,-0.94502 -18.43606,-7.73237c-2.18695,-6.78734 2.52138,-14.32986 10.51636,-16.84672z" fill="url(#color-52)"/><path d="M288.85244,134.38462c7.99499,-2.51686 16.24911,0.94503 18.43605,7.73237c2.18695,6.78734 -2.52136,14.32987 -10.51635,16.84673c-7.99499,2.51686 -16.24912,-0.94504 -18.43606,-7.73238c-2.18695,-6.78734 2.52137,-14.32987 10.51635,-16.84672z" fill="url(#color-53)"/><path d="M285.17207,135.54323c7.99499,-2.51686 16.2491,0.94503 18.43605,7.73237c2.18695,6.78734 -2.52138,14.32986 -10.51637,16.84672c-7.99499,2.51686 -16.2491,-0.94503 -18.43605,-7.73237c-2.18695,-6.78734 2.52137,-14.32987 10.51635,-16.84672z" fill="url(#color-54)"/></g></g><g><g><path d="M338.50519,119.90078c7.99499,-2.51686 16.2491,0.94503 18.43606,7.73238c2.18695,6.78734 -2.52136,14.32986 -10.51636,16.84673c-7.99498,2.51686 -16.24911,-0.94503 -18.43606,-7.73238c-2.18695,-6.78734 2.52136,-14.32988 10.51636,-16.84673z" fill="url(#color-55)"/><path d="M334.82482,121.0594c7.99499,-2.51686 16.24911,0.94503 18.43606,7.73237c2.18695,6.78734 -2.52137,14.32987 -10.51636,16.84673c-7.99498,2.51686 -16.2491,-0.94503 -18.43605,-7.73237c-2.18695,-6.78734 2.52136,-14.32986 10.51635,-16.84672z" fill="url(#color-56)"/><path d="M330.83195,122.08694c7.99499,-2.51686 16.24911,0.94503 18.43607,7.73237c2.18695,6.78734 -2.52137,14.32987 -10.51636,16.84673c-7.99499,2.51686 -16.24912,-0.94504 -18.43606,-7.73238c-2.18695,-6.78734 2.52137,-14.32987 10.51636,-16.84673z" fill="url(#color-57)"/><path d="M327.15158,123.24554c7.99499,-2.51686 16.24912,0.94504 18.43606,7.73238c2.18695,6.78734 -2.52138,14.32986 -10.51637,16.84673c-7.99499,2.51686 -16.2491,-0.94503 -18.43605,-7.73237c-2.18695,-6.78734 2.52136,-14.32987 10.51636,-16.84673z" fill="url(#color-58)"/></g><g><path d="M324.69795,124.01794c7.99499,-2.51686 16.24911,0.94503 18.43606,7.73238c2.18695,6.78734 -2.52138,14.32986 -10.51636,16.84672c-7.99499,2.51686 -16.2491,-0.94503 -18.43605,-7.73237c-2.18695,-6.78734 2.52136,-14.32988 10.51636,-16.84673z" fill="url(#color-59)"/><path d="M321.01757,125.17655c7.99499,-2.51686 16.24911,0.94503 18.43605,7.73238c2.18695,6.78734 -2.52137,14.32986 -10.51637,16.84673c-7.99499,2.51686 -16.24909,-0.94504 -18.43605,-7.73238c-2.18695,-6.78734 2.52136,-14.32986 10.51635,-16.84672z" fill="url(#color-60)"/><path d="M317.02471,126.2041c7.99499,-2.51686 16.2491,0.94503 18.43606,7.73238c2.18695,6.78734 -2.52136,14.32987 -10.51635,16.84674c-7.99499,2.51686 -16.24912,-0.94504 -18.43606,-7.73238c-2.18695,-6.78734 2.52136,-14.32987 10.51636,-16.84673z" fill="url(#color-61)"/><path d="M313.34439,127.36274c7.99499,-2.51686 16.2491,0.94503 18.43605,7.73237c2.18695,6.78734 -2.52135,14.32986 -10.51634,16.84673c-7.99499,2.51686 -16.24911,-0.94503 -18.43606,-7.73237c-2.18695,-6.78734 2.52136,-14.32986 10.51636,-16.84673z" fill="url(#color-62)"/></g></g></g></g><path d="M290.0656,146.55283c0,0 19.32067,-4.99671 52.31061,-14.37078c37.85629,-10.75684 60.34051,-17.62415 60.34051,-17.62415c0,0 -2.61211,7.20839 -12.46131,10.123c-19.35617,6.59906 -19.18656,6.89917 -45.92687,14.74442c-29.22956,7.95561 -52.1126,14.64935 -52.1126,14.64935z" data-paper-data="{&quot;index&quot;:null}" fill="url(#color-63)" stroke="#ff0000" stroke-width="0" stroke-linecap="butt"/><path d="M285.81503,147.43126c0,0 20.12781,-5.2228 54.50507,-14.98552c39.44829,-11.20281 62.93782,-18.14176 62.93782,-18.14176c0,0 -2.70742,7.56269 -12.9721,10.59367c-20.18215,6.83044 -20.00923,7.1296 -47.87676,15.29066c-30.45495,8.29889 -54.3024,15.26278 -54.3024,15.26278z" data-paper-data="{&quot;index&quot;:null}" fill="none" stroke="#330000" stroke-width="2" stroke-linecap="butt"/><path d="M277.51878,140.10133c0,0 1.15756,-1.78737 2.14169,-2.06307c0.98413,-0.27568 3.0819,0.59977 3.0819,0.59977l7.27511,25.97029c0,0 -1.1949,1.79786 -2.3218,2.11354c-1.12691,0.31569 -2.90178,-0.65025 -2.90178,-0.65025z" fill="#000000" stroke="none" stroke-width="0" stroke-linecap="butt"/><path d="M248.84779,158.14176l32.82297,-9.19479l2.13297,7.61415l-32.82297,9.19478c0,0 -3.34455,-1.25374 -3.84189,-3.02909c-0.49736,-1.77537 1.70891,-4.58505 1.70891,-4.58505z" fill="#070707" stroke="#000000" stroke-width="1.5" stroke-linecap="butt"/><g fill="#0f0f0f" stroke="#000000" stroke-width="1" stroke-linecap="butt"><g><path d="M274.83265,152.87025l6.28831,-1.76157c0,0 1.45171,0.87834 1.6214,1.48407c0.1735,0.61936 -0.59158,2.19211 -0.59158,2.19211l-6.28832,1.76157l-1.55244,-0.56296l-0.46452,-1.67099z"/><path d="M273.83888,154.26011l0.47116,1.66913l-1.03403,1.28752l-6.28832,1.76157l-1.59888,-0.58404l-0.48749,-1.68304l1.05657,-1.4091l6.28832,-1.76157z" data-paper-data="{&quot;index&quot;:null}"/></g><g><path d="M257.10558,157.8362l6.28831,-1.76157c0,0 1.45169,0.87834 1.62138,1.48408c0.1735,0.61936 -0.59157,2.1921 -0.59157,2.1921l-6.28832,1.76157l-1.55244,-0.56296l-0.46451,-1.671z"/><path d="M256.1118,159.22605l0.47117,1.66912l-1.03405,1.28752l-6.28832,1.76157l-1.59886,-0.58405l-0.48752,-1.68303l1.05656,-1.40909l6.28832,-1.76157z" data-paper-data="{&quot;index&quot;:null}"/></g></g><path d="M265.80931,161.12116l-1.91501,-6.83606" fill="none" stroke="#000000" stroke-width="1.5" stroke-linecap="round"/><path d="M274.89706,158.36541l-1.88163,-6.71688" fill="none" stroke="#000000" stroke-width="1.5" stroke-linecap="round"/><path d="M257.00369,163.3779l-1.82594,-6.51809" fill="none" stroke="#000000" stroke-width="1.5" stroke-linecap="round"/><path d="M284.66197,146.30872c0,0 4.50006,-0.45009 4.69178,0.23429c0.35681,1.27371 1.57731,5.63059 2.18292,7.79244c0.21037,0.75097 -3.94298,2.43871 -3.94298,2.43871z" fill="url(#color-64)" stroke="#000000" stroke-width="2" stroke-linecap="butt"/></g><path d="M265.51057,144.85843c5.98742,2.23245 6.55298,1.33264 3.1043,7.27241c-3.44867,5.93976 -23.75652,8.49164 -29.74393,6.2592c-5.98742,-2.23245 -2.32288,-8.11726 1.12581,-14.05704c3.44868,-5.93976 19.52642,-1.70703 25.51382,0.52541z" fill="url(#color-65)" stroke="#000000" stroke-width="2" stroke-linecap="butt"/><path d="M238.97365,138.07907c1.13483,0.51658 1.13826,2.64081 1.87306,3.76402c2.53461,3.87441 4.92714,8.85446 2.46894,13.20291c-3.17084,5.60907 -9.44504,5.13897 -14.49429,2.84052c-5.04927,-2.29845 -5.53095,-5.00106 -2.36009,-10.61014c1.56222,-2.76347 5.89661,-4.82864 7.97944,-6.90073c2.14473,-2.13367 1.97133,-3.46264 4.53292,-2.29658z" fill="url(#color-66)" stroke="#000000" stroke-width="2" stroke-linecap="butt"/><path d="M277.15385,149.84665c0.57454,0.33626 2.01972,3.26503 1.28061,3.58594c-0.53554,0.23251 -3.30338,-2.23449 -3.15617,-1.64683c0.23086,0.92163 3.93775,2.34206 4.77153,3.64986c0.85707,1.34435 -1.16984,2.57567 -1.78594,3.47443c-0.77405,1.12914 -0.4245,2.36819 -1.58571,2.82952c-2.02678,0.80525 -5.74825,0.1945 -7.21993,-0.6668c-1.21389,-0.71042 -2.29234,-1.16686 -2.30072,-2.7192c-0.00368,-0.68085 -11.30756,3.73176 -12.11353,0.57316c-0.41296,-1.61844 -0.98815,-6.36666 0.81153,-9.89387c1.95112,-3.82399 6.31791,-6.39133 6.58943,-6.78741c0.67861,-0.98991 9.44807,6.78023 10.33749,6.16931c1.89586,-1.30221 2.7958,0.50978 4.37139,1.43192z" fill="url(#color-67)" stroke="#000000" stroke-width="2" stroke-linecap="butt"/></g></g></svg>