<svg version="1.1" xmlns="http://www.w3.org/2000/svg" xmlns:xlink="http://www.w3.org/1999/xlink" width="104.15794" height="84.60477" viewBox="0,0,104.15794,84.60477"><defs><linearGradient x1="279.23667" y1="176.74535" x2="277.00516" y2="181.05371" gradientUnits="userSpaceOnUse" id="color-1"><stop offset="0" stop-color="#343434"/><stop offset="1" stop-color="#ffffff"/></linearGradient></defs><g transform="translate(-206.92746,-138.32606)"><g data-paper-data="{&quot;isPaintingLayer&quot;:true}" fill-rule="nonzero" stroke-linejoin="miter" stroke-miterlimit="10" stroke-dasharray="" stroke-dashoffset="0" style="mix-blend-mode: normal"><path d="M258.32583,163.23862c0,0 1.29351,-0.08605 1.47769,0.54166c0.3063,1.0437 0.11437,1.57376 -0.49465,1.96101c-0.60901,0.38725 -1.37873,-0.77425 -1.48068,-0.705c-0.10704,0.0727 -0.31674,1.80138 -0.88375,2.0905c-0.56701,0.28917 -1.41035,-0.24399 -1.34429,-1.29751c0.05105,-0.81436 0.7245,-1.30551 0.7245,-1.30551l-2.6746,-6.62263c0,0 -1.01843,-0.12876 -1.5124,-0.43511c-0.41886,-0.25979 -0.55893,-1.47963 0.04564,-1.98596c0.60457,-0.50633 1.87196,0.57904 1.89955,0.56537c0.04328,-0.02144 -0.31085,-1.12032 -0.09252,-1.75768c0.19967,-0.5829 0.83053,-0.87747 1.3558,-0.36769c0.75655,0.73427 0.23351,2.86999 0.23351,2.86999z" data-paper-data="{&quot;index&quot;:null}" fill="#d6d6d6" stroke="#000000" stroke-width="1" stroke-linecap="butt"/><path d="M252.95903,154.23542c0,0 0.48494,-1.31665 1.18665,-1.22213c1.16675,0.15715 1.60618,0.58046 1.72062,1.35317c0.11445,0.77271 -1.37298,1.02178 -1.34945,1.15308c0.02468,0.13786 1.64121,1.10695 1.67719,1.79489c0.03598,0.68796 -0.86272,1.28672 -1.87509,0.75717c-0.78256,-0.40934 -0.97133,-1.29153 -0.97133,-1.29153l-7.72564,-0.27439c0,0 -0.57608,0.95008 -1.09663,1.3034c-0.44141,0.2996 -1.70903,-0.09948 -1.94317,-0.92029c-0.23414,-0.82079 1.39734,-1.5954 1.39599,-1.6287c-0.00213,-0.05224 -1.24451,-0.18639 -1.77839,-0.6831c-0.48826,-0.45428 -0.50145,-1.20774 0.23399,-1.50234c1.05928,-0.42433 2.94013,1.03391 2.94013,1.03391z" data-paper-data="{&quot;index&quot;:null}" fill="#d6d6d6" stroke="#000000" stroke-width="1" stroke-linecap="butt"/><path d="M296.9372,184.46087l4.8573,-1.1136c-11.90369,12.39352 -20.56528,21.32941 -40.07737,28.8711c-19.51209,7.54169 -52.07678,7.26309 -52.07678,7.26309" fill="none" stroke="#818181" stroke-width="5" stroke-linecap="round"/><g stroke="#000000" stroke-width="1" stroke-linecap="butt"><path d="M263.76479,168.78019c0,0 12.00806,6.50929 17.35507,9.54249c4.65468,2.64045 7.8156,5.74818 7.8156,5.74818c0,0 -7.04727,-1.82435 -9.25689,-2.78283c-4.35496,-1.88907 -18.12547,-8.23774 -18.12547,-8.23774z" fill="url(#color-1)"/><path d="M251.695,164.21065l10.07981,5.22085l-1.2001,2.31702l-10.07981,-5.22085c0,0 -0.41164,-1.19975 -0.19024,-1.62721c0.15124,-0.29202 1.39034,-0.68981 1.39034,-0.68981z" fill="#4d4d4d"/><path d="M262.37331,164.13469c0,0 0.78707,1.15251 1.34024,1.43903c0.43732,0.22652 1.7137,0.14276 1.7137,0.14276c0,0 -0.65881,4.30221 -1.62187,6.16158c-0.98334,1.89851 -4.21861,5.11452 -4.21861,5.11452c0,0 -0.48549,-1.44322 -0.92281,-1.66973c-0.55318,-0.28652 -2.13113,0.08794 -2.13113,0.08794c0,0 3.66455,-2.89434 4.62762,-4.7537c0.98334,-1.89851 1.21286,-6.52237 1.21286,-6.52237z" fill="#191919"/></g><path d="M248.73802,190.15694c0,0 1.31793,0.71738 1.22616,1.51039c-0.15259,1.31856 -0.57401,1.77053 -1.34593,1.80706c-0.77192,0.03653 -1.0266,-1.69949 -1.15776,-1.6886c-0.13771,0.01143 -1.10012,1.74618 -1.78762,1.70313c-0.68751,-0.04304 -1.28947,-1.14688 -0.76405,-2.24277c0.40615,-0.84713 1.2872,-0.95546 1.2872,-0.95546l0.24455,-8.82466c0,0 -0.95186,-0.77696 -1.30703,-1.41712c-0.30116,-0.54284 0.09286,-1.94738 0.9124,-2.11526c0.81952,-0.16789 1.60006,1.79771 1.63333,1.80023c0.0522,0.00395 0.18151,-1.40412 0.67595,-1.9554c0.45218,-0.50416 1.20525,-0.42697 1.50256,0.45239c0.42821,1.26656 -1.02212,3.24447 -1.02212,3.24447z" data-paper-data="{&quot;index&quot;:null}" fill="#d6d6d6" stroke="#000000" stroke-width="1" stroke-linecap="butt"/><path d="M231.80687,189.81236c0,0 1.27669,0.77325 1.17252,1.54525c-0.17321,1.28364 -0.59377,1.70395 -1.34982,1.69848c-0.75603,-0.00545 -0.97383,-1.71984 -1.10237,-1.71618c-0.13495,0.00384 -1.10818,1.65196 -1.78017,1.57304c-0.67199,-0.0789 -1.24107,-1.1925 -0.70706,-2.23808c0.4128,-0.80825 1.27693,-0.8673 1.27693,-0.8673l0.39912,-8.63255c0,0 -0.91738,-0.81205 -1.25335,-1.45821c-0.28489,-0.54792 0.12613,-1.90291 0.93114,-2.02361c0.80499,-0.1207 1.53323,1.84674 1.56575,1.851c0.05101,0.00668 0.20306,-1.36595 0.69688,-1.87962c0.45163,-0.46977 1.18714,-0.35391 1.46216,0.5235c0.3961,1.26375 -1.05897,3.12404 -1.05897,3.12404z" data-paper-data="{&quot;index&quot;:null}" fill="#d6d6d6" stroke="#000000" stroke-width="1" stroke-linecap="butt"/><path d="M248.01998,178.43817c0,0 1.29355,-0.15569 1.62771,0.45159c0.55563,1.00974 0.48492,1.54164 -0.04288,1.95597c-0.5278,0.41433 -1.58169,-0.68582 -1.66901,-0.61211c-0.09169,0.07739 0.10042,1.78919 -0.4077,2.10473c-0.50812,0.31556 -1.48956,-0.16252 -1.66933,-1.20237c-0.13897,-0.80379 0.4299,-1.32386 0.4299,-1.32386l-4.26819,-6.36701c0,0 -1.06453,-0.0707 -1.638,-0.3449c-0.48629,-0.23252 -0.91437,-1.42462 -0.419,-1.95586c0.49536,-0.53124 2.03689,0.46672 2.06169,0.45176c0.03893,-0.02348 -0.57823,-1.08485 -0.50584,-1.72375c0.06621,-0.58431 0.6379,-0.90867 1.29082,-0.43611c0.94042,0.68065 0.90965,2.81005 0.90965,2.81005z" data-paper-data="{&quot;index&quot;:null}" fill="#d6d6d6" stroke="#000000" stroke-width="1" stroke-linecap="butt"/><path d="M232.91281,179.23508c0,0 0.52388,1.1854 0.0657,1.68298c-0.76183,0.82733 -1.27022,0.91722 -1.80554,0.53722c-0.53532,-0.37999 0.16257,-1.70838 0.06927,-1.76971c-0.09796,-0.06441 -1.61045,0.62432 -2.04941,0.23386c-0.43897,-0.39044 -0.28996,-1.46604 0.61022,-1.94446c0.69585,-0.36984 1.34018,0.01803 1.34018,0.01803l4.57849,-5.94478c0,0 -0.24888,-1.03427 -0.16653,-1.66124c0.06983,-0.53165 1.03641,-1.29146 1.66934,-0.97688c0.63292,0.31457 0.17241,2.07697 0.19344,2.09617c0.03298,0.03012 0.82402,-0.87105 1.43099,-0.99094c0.55509,-0.10964 1.0209,0.33871 0.78012,1.09994c-0.3468,1.09639 -2.30775,1.6964 -2.30775,1.6964z" data-paper-data="{&quot;index&quot;:null}" fill="#d6d6d6" stroke="#000000" stroke-width="1" stroke-linecap="butt"/><path d="M238.06045,168.22396c0.32563,-1.18332 0.549,-1.53021 0.72183,-2.81028c0.2437,-1.9051 -5.20437,1.27367 -4.98086,-1.72022c0.22351,-2.9939 4.93532,-0.29303 5.1975,-1.93866c-0.05917,-2.67251 -5.07485,0.99263 -5.13775,-2.18288c-0.0629,-3.17551 5.17614,-0.25809 5.28783,-1.80999c0.27578,-1.37105 -1.09825,-1.04459 -2.30238,-1.34123c-0.12554,-0.03092 -2.66886,0.31365 -3.02212,-1.07833c-0.38379,-1.51228 2.22853,-1.54357 2.22853,-1.54357c0,0 1.11714,0.36817 2.13281,0.36817c0.17931,0 -0.07155,-2.98022 0.16367,-2.98653c0.55952,-0.01502 3.21153,-0.03253 3.21153,-0.03253c0,0 -0.15826,2.88611 0.12338,2.88611c1.41278,0 2.60376,-0.15852 2.60376,-0.15852c0,0 1.67928,0.46471 1.75584,1.45918c0.04115,0.5345 -1.47449,0.70827 -2.79589,1.05748c-1.13717,0.30052 -2.21426,-0.02004 -2.25854,1.11329c-0.1467,2.30991 5.03097,-1.17841 5.09874,1.94866c0.06777,3.12707 -5.11179,0.14394 -5.06849,2.22373c-0.06573,1.81288 5.09331,-0.77687 5.05388,1.98836c-0.03943,2.76523 -5.10688,-0.18959 -5.04903,1.80434c0.0022,0.96577 0.13259,1.86515 0.34089,2.81051c0.85555,3.88275 3.90743,-1.25684 4.99828,2.14607c1.09086,3.40292 -0.59692,2.3598 -3.18576,3.50808c-0.88052,0.39055 -2.84589,-2.38679 -3.60161,-2.24764c-1.50109,0.27641 -2.35223,2.34377 -3.0514,2.34831c-1.86418,0.01211 -3.68808,-0.6669 -2.82656,-3.43234c0,0 0.34885,-0.56605 1.46108,-0.87108c0.85976,-0.23578 2.46602,0.07157 2.90082,-1.50851z" data-paper-data="{&quot;index&quot;:null}" fill="#d6d6d6" stroke="#000000" stroke-width="1" stroke-linecap="butt"/><path d="M243.70114,154.77261l-2.18838,0.00663l0.05622,-1.44888l-0.39541,-0.00785l-0.02221,1.48803l-2.30381,-0.03303l0.00756,-1.47279l-0.35378,-0.00466l-0.0721,1.49751l-1.95216,-0.0209c0,0 -0.414,-1.10365 -0.40978,-1.68764c-0.25539,-0.61673 -0.15911,-2.00983 -0.40443,-2.31813c-1.38239,-0.37473 -2.12088,-1.18625 -2.10065,-3.82296c0.03904,-5.08401 2.39943,-8.15938 6.20588,-8.12154c3.80645,0.03784 6.6681,3.30608 6.62905,8.39011c0,0 -0.15186,3.30292 -1.70387,3.52245c-0.46953,0.78572 -0.4669,1.40605 -0.67903,2.24782z" fill="#d6d6d6" stroke="#000000" stroke-width="1" stroke-linecap="butt"/><path d="M237.44203,146.77337c0,-0.92965 0.66236,-1.68327 1.47945,-1.68327c0.81709,0 1.47946,0.75362 1.47946,1.68327c0,0.92965 -0.66237,1.68326 -1.47946,1.68326c-0.81709,0 -1.47945,-0.75362 -1.47945,-1.68326z" fill="#1d1d1d" stroke="#000000" stroke-width="1" stroke-linecap="butt"/><path d="M241.85967,146.81714c0,-0.92965 0.66238,-1.68328 1.47948,-1.68328c0.81709,0 1.47948,0.75362 1.47948,1.68328c0,0.92965 -0.66238,1.68329 -1.47948,1.68329c-0.81709,0 -1.47948,-0.75364 -1.47948,-1.68329z" fill="#1d1d1d" stroke="#000000" stroke-width="1" stroke-linecap="butt"/><g stroke="#000000" stroke-width="1"><path d="M226.70879,194.40852c0,0 -0.55522,-1.07117 -0.55522,-1.57871c0,-0.54259 1.5213,-1.26297 1.5213,-1.26297c0,0 1.5988,0.2105 2.64617,0.2105c1.13531,0 2.28083,-0.42099 2.28083,-0.42099c0,0 1.79002,0.80052 1.79002,1.36821c0,0.46352 -0.82394,1.68396 -0.82394,1.68396c0,0 -2.34893,0.42098 -3.47344,0.42098c-1.06164,0 -3.38572,-0.42098 -3.38572,-0.42098z" fill="#d6d6d6" stroke-linecap="butt"/><path d="M228.65287,193.14555l-1.05247,1.47347" fill="none" stroke-linecap="round"/><path d="M230.12635,194.72427v-1.57871" fill="none" stroke-linecap="round"/><path d="M231.91555,193.2508l0.63148,1.36822" fill="none" stroke-linecap="round"/></g><g stroke="#000000" stroke-width="1"><path d="M243.59326,194.23686c0,0 -0.55522,-1.07116 -0.55522,-1.57871c0,-0.54259 1.5213,-1.26296 1.5213,-1.26296c0,0 1.5988,0.21049 2.64617,0.21049c1.13531,0 2.28082,-0.42099 2.28082,-0.42099c0,0 1.79002,0.80053 1.79002,1.36822c0,0.46352 -0.82394,1.68395 -0.82394,1.68395c0,0 -2.34892,0.42099 -3.47343,0.42099c-1.06164,0 -3.38572,-0.42099 -3.38572,-0.42099z" fill="#d6d6d6" stroke-linecap="butt"/><path d="M245.53735,192.9739l-1.05247,1.47346" fill="none" stroke-linecap="round"/><path d="M247.01082,194.55261v-1.57871" fill="none" stroke-linecap="round"/><path d="M248.80003,193.07915l0.63148,1.36821" fill="none" stroke-linecap="round"/></g><path d="M260.7316,171.60497c-0.10518,1.87176 1.32653,-0.60765 1.00294,-0.73886c-0.37209,-0.15087 -2.13144,2.20801 -2.1803,0.53766c-0.04322,-1.47751 -0.03976,-2.76968 -0.13072,-2.49692c-0.13001,0.38983 -0.11573,1.46468 -0.25189,2.65235c-0.25853,2.25479 1.76359,0.81171 1.51194,0.81687c-0.49919,0.00918 -2.31796,1.39153 -2.46148,-0.82364c-0.08636,-1.3329 -0.14911,-2.47759 -0.23729,-2.72292c-0.06585,-0.18322 0.07118,0.45639 -0.01713,2.61495c-0.10504,2.56774 1.82251,0.80697 1.58773,0.75628c-0.29077,-0.06278 -2.2256,0.90306 -2.48605,-0.85535c-0.1939,-1.30914 -0.34733,-2.5098 -0.41245,-2.7407c-0.02246,-0.0797 0.02849,2.81749 -0.25532,2.68094c-0.04039,-0.01944 -0.71058,-0.11458 -0.73628,-0.27358c-0.22678,-1.40275 -0.27024,-2.74221 -0.27769,-2.77908c-0.25486,-1.25937 0.86812,-2.77616 1.48184,-3.3787c0.51543,-0.50605 0.49895,-0.20197 1.19085,-0.1843c1.34702,0.03438 2.20202,0.69045 2.67091,3.00756c0.09744,0.48162 0.09528,2.23912 0.00042,3.92745z" data-paper-data="{&quot;index&quot;:null}" fill="#d6d6d6" stroke="#000000" stroke-width="1" stroke-linecap="butt"/><path d="M298.17334,183.58305l8.266,-1.87716c-9.65197,9.83676 -22.87476,23.8382 -43.65622,32.25368c-20.78146,8.41548 -54.35566,7.43636 -54.35566,7.43636" fill="none" stroke="#000000" stroke-width="3" stroke-linecap="round"/><path d="M245.70585,164.38192c0,0 -2.11183,-0.26792 -2.51314,-1.2064c-0.27862,-0.65156 0.20643,-1.11961 0.80253,-1.09795c0.65182,0.0237 1.52225,0.7249 1.55663,0.69321c0.02193,-0.02021 -0.51958,-1.54218 0.14776,-1.91303c0.66735,-0.37085 1.72132,0.17879 1.81088,0.64749c0.1056,0.55273 -0.13121,1.51793 -0.13121,1.51793l5.05845,4.71428c0,0 0.67748,-0.43838 1.43127,-0.20208c0.97514,0.30567 1.16458,1.25284 0.70656,1.66507c-0.45798,0.41222 -2.09321,0.00224 -2.19604,0.07378c-0.09795,0.06814 0.68495,1.16668 0.12372,1.58285c-0.56124,0.41617 -1.10689,0.40581 -1.94404,-0.23299c-0.50349,-0.38418 0.0229,-1.52349 0.0229,-1.52349z" data-paper-data="{&quot;index&quot;:null}" fill="#d6d6d6" stroke="#000000" stroke-width="1" stroke-linecap="butt"/><path d="M254.77809,163.96124c0.30844,0.68505 -2.16916,3.04205 -1.63147,2.75777c1.04553,-0.55278 1.74489,-2.30432 2.02612,-2.04646c0.58415,0.53784 -0.76687,2.45888 -1.04624,3.08874c-0.17163,0.38693 1.92635,-2.69454 2.17264,-2.33115c0.28905,0.42653 -1.11191,2.91023 -1.37347,3.40331c-0.044,0.08296 1.9795,-3.12078 2.33166,-2.63087c0.56421,0.47394 -1.63725,3.70797 -1.67531,3.7683c-0.68079,1.07897 -2.52734,1.39775 -3.3812,1.40942c-0.71713,0.0098 -0.49676,-0.19721 -0.98138,-0.68443c-0.94353,-0.94856 -1.1074,-2.00601 0.14516,-3.99116c0.54899,-0.87007 3.14276,-3.34476 3.41348,-2.74348z" fill="#d6d6d6" stroke="#000000" stroke-width="1" stroke-linecap="butt"/><path d="M235.90055,159.65542c0,0 -2.26468,0.61854 -3.0697,-0.16818c-0.55892,-0.54621 -0.26235,-1.22785 0.35414,-1.45741c0.67409,-0.25103 1.8569,0.09592 1.87857,0.04912c0.01382,-0.02983 -1.1804,-1.35185 -0.65705,-2.0114c0.52336,-0.65955 1.82919,-0.54451 2.1183,-0.1048c0.34092,0.51854 0.5071,1.60189 0.5071,1.60189l7.14377,2.66755c0,0 0.50517,-0.73261 1.37289,-0.8101c1.12253,-0.10025 1.71537,0.78478 1.42277,1.39811c-0.29259,0.61332 -2.13167,0.88594 -2.20622,1.00223c-0.07103,0.11077 1.19036,0.89946 0.79426,1.5604c-0.39609,0.66094 -0.9564,0.88073 -2.07898,0.5833c-0.67516,-0.17885 -0.61983,-1.56182 -0.61983,-1.56182z" data-paper-data="{&quot;index&quot;:null}" fill="#d6d6d6" stroke="#000000" stroke-width="1" stroke-linecap="butt"/><path d="M273.86383,188.98624c0,-0.308 0.24969,-0.55769 0.55769,-0.55769c0.308,0 0.55769,0.24969 0.55769,0.55769c0,0.308 -0.24969,0.55769 -0.55769,0.55769c-0.308,0 -0.55769,-0.24969 -0.55769,-0.55769z" fill="#000000" stroke="none" stroke-width="0.5" stroke-linecap="butt"/><path d="M264.14589,190.74425c0,-0.34252 0.27767,-0.62019 0.62019,-0.62019c0.34252,0 0.62019,0.27767 0.62019,0.62019c0,0.34252 -0.27767,0.62019 -0.62019,0.62019c-0.34252,0 -0.62019,-0.27768 -0.62019,-0.62019z" fill="#000000" stroke="none" stroke-width="0.5" stroke-linecap="butt"/></g></g></svg>