<svg version="1.1" xmlns="http://www.w3.org/2000/svg" xmlns:xlink="http://www.w3.org/1999/xlink" width="133.05444" height="63.57041" viewBox="0,0,133.05444,63.57041"><defs><linearGradient x1="249.43216" y1="189.64957" x2="249.19623" y2="194.83513" gradientUnits="userSpaceOnUse" id="color-1"><stop offset="0" stop-color="#1a1a1a"/><stop offset="1" stop-color="#121212"/></linearGradient><linearGradient x1="233.14394" y1="188.68483" x2="232.4089" y2="193.82344" gradientUnits="userSpaceOnUse" id="color-2"><stop offset="0" stop-color="#1a1a1a"/><stop offset="1" stop-color="#121212"/></linearGradient><radialGradient cx="249.2306" cy="145.55629" r="2.29919" gradientUnits="userSpaceOnUse" id="color-3"><stop offset="0" stop-color="#ffffff"/><stop offset="1" stop-color="#ffffff" stop-opacity="0"/></radialGradient><radialGradient cx="243.86332" cy="145.41114" r="2.29919" gradientUnits="userSpaceOnUse" id="color-4"><stop offset="0" stop-color="#ffffff"/><stop offset="1" stop-color="#ffffff" stop-opacity="0"/></radialGradient></defs><g transform="translate(-217.70422,-131.98704)"><g data-paper-data="{&quot;isPaintingLayer&quot;:true}" fill-rule="nonzero" stroke-linejoin="miter" stroke-miterlimit="10" stroke-dasharray="" stroke-dashoffset="0" style="mix-blend-mode: normal"><g><path d="M231.805,154.14305c0,0 -1.13558,-0.5365 -0.49959,-1.64934c0.59607,-1.04304 1.63896,-0.45629 1.63896,-0.45629z" fill="none" stroke="#000000" stroke-width="0.5" stroke-linecap="butt"/><path d="M232.03784,152.70026c0,0 0.2009,-0.10546 0.35768,-0.16097c0.15395,-0.05451 0.45469,0.04632 0.45469,0.04632" fill="none" stroke="#8d8d8d" stroke-width="0.375" stroke-linecap="round"/><path d="M224.37129,168.67966l2.83845,-1.055" fill="none" stroke="#000000" stroke-width="1" stroke-linecap="round"/><path d="M232.97868,152.72287l3.21366,-1.19442" fill="none" stroke="#000000" stroke-width="1" stroke-linecap="round"/><path d="M235.30567,153.24795l-3.24286,1.2053" fill="none" stroke="#000000" stroke-width="1" stroke-linecap="round"/><path d="M227.98222,166.25889l-2.90519,1.07979" fill="none" stroke="#000000" stroke-width="1" stroke-linecap="round"/><path d="M233.86659,141.69049c1.32052,-1.73214 3.76013,-0.03481 5.50248,0.35528c-0.95847,3.28841 -0.40856,3.36709 -2.06219,5.32502c-0.84211,0.99708 -0.35374,2.87942 -0.35374,2.87942l-14.15627,25.44264l-1.60353,-1.90232c0,0 9.43126,-17.19508 12.42273,-22.57155c0.22206,-0.39912 -1.62309,-1.23961 -1.16969,-2.05449c0.5057,-0.90887 2.3555,-1.08815 2.3555,-1.08815z" fill="#382918" stroke="#000000" stroke-width="0.5" stroke-linecap="butt"/><path d="M237.81003,146.98118c0.23185,-0.32473 0.4231,-0.32059 0.63084,-0.98464c0.44185,-1.41223 1.06657,-3.95834 1.11048,-3.85463c0.07686,0.18151 0.73642,1.3291 0.7324,1.37152c-0.08704,0.91896 -0.76113,2.60133 -0.90897,3.39256c-0.0293,0.1567 -0.27319,0.64309 -0.60126,0.91178c-0.36931,0.30247 -0.53234,0.62828 -0.6603,0.84246c-0.19984,0.33442 -0.09896,0.77096 -0.07919,1.067c0.04669,0.69934 -0.25594,1.78523 -0.25594,1.78523l-12.16529,21.86433l-0.67153,-1.24343c0,0 10.4171,-18.72235 12.04178,-21.64232c0.16921,-0.30411 -0.04673,-0.83922 -0.02654,-1.39538c0.02381,-0.65548 0.23933,-1.34277 0.23933,-1.34277c0,0 0.35935,-0.41483 0.61417,-0.7717z" fill="#5a370b" stroke="#000000" stroke-width="0.5" stroke-linecap="butt"/><path d="M219.97239,165.97019c0,0 2.96273,-2.17445 8.41334,-6.67314c6.21273,-4.27017 6.60161,-4.08395 6.86549,-3.8531c0.47983,0.32132 0.02856,2.16518 -1.56257,8.00854c-1.77163,5.79138 -2.85191,9.15965 -2.85191,9.15965" fill="none" stroke="#000000" stroke-width="1" stroke-linecap="round"/><path d="M219.12363,165.76773c0,0 3.60143,5.19107 7.53436,6.32483c2.40422,0.69308 4.88261,0.60711 4.88261,0.60711c0,0 -1.15007,2.51808 -1.16829,2.54655c-0.05715,0.0892 -3.13514,0.67377 -6.3276,-0.94718c-4.90791,-2.9605 -6.05367,-6.33388 -6.05367,-6.33388z" fill="#382918" stroke="#000000" stroke-width="0.5" stroke-linecap="butt"/><path d="M221.55844,166.09626c0,0 2.73048,4.87949 6.1259,5.79846c2.07564,0.56177 4.18615,0.75425 4.18615,0.75425c0,0 -0.07932,0.99271 -0.31925,1.41122c-0.23135,0.40355 -1.02848,1.19159 -1.02848,1.19159c0,0 -3.5533,-0.45679 -5.91628,-1.73211c-2.97111,-1.4427 -4.57586,-4.92173 -4.57586,-4.92173c0,0 -0.1501,-1.19023 0.09371,-1.58947c0.26386,-0.43207 1.4341,-0.91226 1.4341,-0.91226z" fill="#5a370b" stroke="#000000" stroke-width="0.5" stroke-linecap="butt"/><path d="M218.69807,166.24965c0.21686,-0.34882 0.82954,-0.70244 0.82954,-0.70244l1.72827,0.45789c0,0 -0.84943,0.77838 -1.11128,1.22535c-0.2438,0.41616 -0.40955,1.37052 -0.40955,1.37052l-1.71987,-0.62112c0,0 0.409,-1.28972 0.68287,-1.7302z" fill="#382918" stroke="#000000" stroke-width="0.5" stroke-linecap="round"/><path d="M226.9462,170.9175l-2.96772,5.33378c0,0 -0.45762,0.00265 -0.63046,-0.05095c-0.20434,-0.06335 -0.35919,-0.58836 -0.35919,-0.58836l2.86365,-5.14675" fill="#5a370b" stroke="#000000" stroke-width="0.5" stroke-linecap="round"/><path d="M237.89158,152.15121c0,0 -0.53298,1.42826 -0.90159,2.09076c-0.3716,0.66789 -1.31917,1.90056 -1.31917,1.90056l-0.78907,-0.43904c0,0 0.80531,-1.44735 1.18735,-2.13399c0.35643,-0.64061 1.03342,-1.85733 1.03342,-1.85733z" fill="#484848" stroke="#000000" stroke-width="0.5" stroke-linecap="butt"/></g><path d="M252.82996,147.10618c-0.53614,4.14927 -3.85387,7.14037 -7.41039,6.68082c-3.5565,-0.45954 -6.00501,-4.19572 -5.46887,-8.34498c0.53614,-4.14927 3.85388,-7.14037 7.4104,-6.68082c3.5565,0.45954 6.005,4.19572 5.46886,8.34498z" fill="#000000" stroke="#000000" stroke-width="0" stroke-linecap="butt"/><path d="M251.27405,155.31356c0.44066,-0.9661 5.40356,3.17831 9.8409,5.89558c3.86443,2.36642 3.99775,1.96738 4.65817,2.50192c0.43583,0.35275 -0.03358,0.98158 -1.01764,2.15239c-1.07488,1.27885 -1.69672,1.37317 -2.04256,1.48294c-0.69785,0.22155 -8.6275,-5.01405 -11.99392,-8.56707c-1.51831,-1.60248 0.41972,-3.16905 0.55507,-3.46576z" data-paper-data="{&quot;index&quot;:null}" fill="#201a0c" stroke="#000000" stroke-width="1.5" stroke-linecap="butt"/><path d="M221.28581,183.85499l13.12224,-23.79809c0,0 12.89335,-2.44337 16.26852,-1.968c1.55854,0.2195 2.17861,4.57771 2.17861,4.57771l-6.64472,25.33926c0,0 -5.20714,1.04621 -10.37751,0.20432c-5.23879,-0.85301 -10.61818,-1.82062 -10.61818,-1.82062z" fill="#0c0c0c" stroke="#000000" stroke-width="1.5" stroke-linecap="butt"/><path d="M243.54918,173.02067c0.35736,-1.61141 3.30542,-0.87903 3.70134,-0.92407c1.67824,-0.19097 4.48149,18.08939 4.48149,18.08939c0,0 -2.06276,0.88962 -3.74099,1.08058c-1.67824,0.19097 -3.90284,-0.3418 -3.90284,-0.3418c0,0 -1.69649,-12.68501 -0.53902,-17.9041z" data-paper-data="{&quot;index&quot;:null}" fill="#201a0c" stroke="#000000" stroke-width="1.5" stroke-linecap="butt"/><path d="M244.65692,190.58501c1.54952,-0.66048 5.00399,-0.92501 6.72707,-0.84662c2.96033,0.13469 3.39436,1.78374 3.33229,3.14797c-0.06207,1.36422 -1.97806,2.03891 -4.93839,1.90422c-2.96033,-0.13469 -5.89903,0.1819 -5.83696,-1.1823c0.02595,-0.57017 -0.39665,-2.54899 0.71598,-3.02325z" data-paper-data="{&quot;index&quot;:null}" fill="url(#color-1)" stroke="#000000" stroke-width="1.5" stroke-linecap="butt"/><path d="M236.73849,170.93703c1.0696,-1.2571 3.3327,0.76919 3.7037,0.91456c1.57265,0.61622 -4.50033,18.08471 -4.50033,18.08471c0,0 -2.23931,-0.17855 -3.81196,-0.79477c-1.57265,-0.61622 -3.28968,-2.12767 -3.28968,-2.12767c0,0 4.43398,-12.0053 7.89827,-16.07684z" data-paper-data="{&quot;index&quot;:null}" fill="#201a0c" stroke="#000000" stroke-width="1.5" stroke-linecap="butt"/><path d="M235.07811,188.96151c2.93353,0.41962 3.20648,2.10285 3.01311,3.45473c-0.19337,1.35187 -2.1655,1.8386 -5.09904,1.41898c-2.93353,-0.41962 -5.88907,-0.38798 -5.6957,-1.73982c0.08082,-0.56501 -0.14891,-2.57536 1.00427,-2.94009c0,0 5.06987,-0.43802 6.77736,-0.19377z" data-paper-data="{&quot;index&quot;:null}" fill="url(#color-2)" stroke="#000000" stroke-width="1.5" stroke-linecap="butt"/><path d="M233.84392,174.4064c0.62804,-1.52526 1.7739,-3.07152 2.34724,-4.68316c0.64246,-1.80593 0.51386,-4.01736 1.12323,-5.80709c2.20546,-6.4774 4.37052,-12.12296 7.77095,-11.68358c3.34485,0.4322 3.91918,6.38202 4.63621,13.13927c0.18513,1.74465 -0.33229,3.976 -0.07799,5.74723c0.22791,1.58744 0.86303,3.87012 1.0404,5.3619c0.67312,5.66114 1.44202,9.72066 1.44202,9.72066c0,0 0.61413,0.62214 -2.06737,0.5762c-1.16973,-0.02004 -1.55836,0.06102 -3.12307,-0.05053c-0.80063,-0.05708 -0.29337,-13.60331 -1.23306,-13.70802c-0.42605,-0.04747 -2.08161,13.68687 -2.53683,13.62805c-1.79274,-0.23164 -6.18081,-0.64485 -7.38481,-0.87609c-2.74897,-0.52798 -5.51056,-2.26244 -5.51056,-2.26244c0,0 1.52037,-4.11583 3.57363,-9.10241z" fill="#201a0c" stroke="#000000" stroke-width="1.5" stroke-linecap="butt"/><path d="M253.07188,140.69815c0.13249,-0.96234 1.02003,-1.63505 1.98237,-1.50256c0.96235,0.13249 1.63505,1.02004 1.50256,1.98237c-0.13249,0.96234 -1.02003,1.63505 -1.98237,1.50256c-0.96235,-0.13249 -1.63505,-1.02003 -1.50256,-1.98237z" fill="#000000" stroke="none" stroke-width="0.5" stroke-linecap="butt"/><path d="M240.92993,156.30917l2.08838,-0.75927c0,0 1.83373,3.99425 3.0211,5.86534c1.26199,1.98868 3.68931,4.97264 3.68931,4.97264l0.00214,2.30397c0,0 -4.06922,-3.7616 -5.37402,-5.7873c-1.32591,-2.05849 -3.42692,-6.5954 -3.42692,-6.5954z" fill="#4e4e4e" stroke="#000000" stroke-width="1.25" stroke-linecap="butt"/><path d="M235.33501,171.03184l0.84085,-2.77827c0,0 4.21906,1.3325 6.41684,1.61648c2.33588,0.30183 7.20941,0.14421 7.20941,0.14421l0.00524,2.75637c0,0 -4.84434,0.33548 -7.23672,0.04804c-2.43111,-0.2921 -7.23562,-1.78683 -7.23562,-1.78683z" fill="#4e4e4e" stroke="#000000" stroke-width="2" stroke-linecap="butt"/><path d="M250.05832,159.1002c-1.3023,-1.47095 -3.26624,-2.67632 -3.26624,-2.67632l-1.90606,1.90113c0,0 -0.63101,1.1428 -4.15446,4.13662c-2.07339,1.76173 -5.82044,0.37131 -5.82044,0.37131c0,0 -3.01123,6.15345 -3.86063,8.51199c-2.80626,7.79214 -1.73582,12.92785 -6.63259,19.60724c-0.6079,0.8292 -4.63891,-5.00628 -3.89255,-6.97079c1.01424,-2.66961 9.56582,-21.63235 14.38642,-27.89163c0.93482,-1.2138 2.78002,-1.54379 3.19942,-2.06736c0.48275,-0.28579 -2.99412,-3.86236 -2.53762,-3.97121c0.02167,-0.00517 -1.11838,-8.20943 1.28592,-11.42543c3.8204,-5.11015 11.11049,-5.71701 11.11049,-5.71701c0,0 0.0119,0.93386 -0.1646,2.11229c-0.15701,1.04825 -0.43853,3.8914 -0.43853,3.8914c0,0 -6.07818,1.92746 -6.63463,5.81706c-0.55646,3.88961 2.02789,8.39838 6.05645,7.8965c3.38138,-0.42125 4.5024,-2.7886 5.08337,-7.06235c0.58097,-4.27375 -4.40485,-6.75374 -4.40485,-6.75374l0.25197,-3.7267l0.61081,-2.1396c0,0 3.48755,1.14852 5.08869,2.75144c1.60112,1.60292 2.05824,3.06432 2.29227,5.75897c0.24456,2.81587 -0.7714,5.88508 -1.4343,7.83333c-1.29726,3.81264 -3.23701,4.75348 -2.79315,5.75883c1.5689,3.55351 1.93739,6.95173 1.87765,8.15114c-0.00305,0.06115 -2.0005,-2.62612 -3.3028,-4.09706z" fill="#0f0f0f" stroke="#000000" stroke-width="1.5" stroke-linecap="butt"/><path d="M246.08032,137.06886l3.10762,0.52367" fill="none" stroke="#000000" stroke-width="1.5" stroke-linecap="round"/><path d="M249.43093,135.44385l-3.33854,-0.43138" fill="none" stroke="#000000" stroke-width="1.5" stroke-linecap="round"/><path d="M244.45408,155.98102c0,0 -2.37726,-0.34612 -3.48226,-0.71493c-1.11776,-0.37304 -3.18648,-1.51075 -3.18648,-1.51075" fill="none" stroke="#000000" stroke-width="1.5" stroke-linecap="round"/><path d="M251.03692,154.64922l-2.23775,1.48404" fill="none" stroke="#000000" stroke-width="1.5" stroke-linecap="round"/><path d="M245.23534,153.83843c1.30142,-1.34129 1.771,-1.40602 3.11229,-0.10461c1.34129,1.30142 1.29422,2.00334 -0.00721,3.34463c-1.30142,1.34129 -2.00508,1.1789 -3.34637,-0.12252c-1.34129,-1.30142 -1.06012,-1.77623 0.2413,-3.1175z" fill="#4e4e4e" stroke="#000000" stroke-width="1.5" stroke-linecap="butt"/><g stroke="none" stroke-width="0" stroke-linecap="butt"><path d="M248.04574,145.41653c0.0789,-0.6106 0.63785,-1.04165 1.24847,-0.96275c0.6106,0.0789 1.04165,0.63785 0.96275,1.24847c-0.0789,0.6106 -0.63785,1.04165 -1.24847,0.96275c-0.6106,-0.0789 -1.04165,-0.63784 -0.96275,-1.24847z" fill="#ffffff"/><path d="M246.95036,145.26164c0.16272,-1.25935 1.31554,-2.14832 2.57487,-1.9856c1.25934,0.16272 2.14832,1.31554 1.9856,2.57487c-0.16272,1.25935 -1.31554,2.14832 -2.57487,1.9856c-1.25934,-0.16272 -2.14832,-1.31554 -1.9856,-2.57487z" fill="url(#color-3)"/></g><g stroke="none" stroke-width="0" stroke-linecap="butt"><path d="M242.67846,145.27138c0.0789,-0.61061 0.63785,-1.04165 1.24847,-0.96275c0.61061,0.0789 1.04164,0.63785 0.96274,1.24847c-0.0789,0.61061 -0.63785,1.04165 -1.24846,0.96275c-0.61061,-0.0789 -1.04165,-0.63784 -0.96275,-1.24847z" fill="#ffffff"/><path d="M241.58308,145.11649c0.16272,-1.25935 1.31553,-2.14832 2.57486,-1.9856c1.25934,0.16272 2.14832,1.31554 1.9856,2.57487c-0.16272,1.25935 -1.31554,2.14832 -2.57487,1.9856c-1.25934,-0.16272 -2.14831,-1.31554 -1.98559,-2.57487z" fill="url(#color-4)"/></g><path d="M266.51484,165.78299c-0.34835,1.35904 -1.72666,2.1963 -3.07858,1.87008c-1.35191,-0.32623 -2.16547,-1.69241 -1.81711,-3.05147c0.34835,-1.35904 1.72666,-2.1963 3.07858,-1.87008c1.35191,0.32623 2.16547,1.69241 1.81711,3.05147z" fill="#000000" stroke="#000000" stroke-width="1.5" stroke-linecap="butt"/><g fill="none" stroke-linecap="round"><path d="M278.09657,151.57199l59.70623,-7.49519l-10.28592,4.63302l-2.35196,-2.89259" stroke="#000000" stroke-width="4"/><path d="M278.53355,151.47695l59.70625,-7.49521l-10.28592,4.63303l-2.35196,-2.89261" stroke="#4e4e4e" stroke-width="1.5"/></g><path d="M244.24389,157.44567c2.54182,-0.71569 8.46198,-1.19844 8.46198,-1.19844l1.33932,4.76828c0,0 -5.90166,0.97102 -8.20921,1.62728c-2.98497,0.84893 -8.19726,3.0387 -8.19726,3.0387c0,0 -2.35091,-1.54669 -2.40487,-2.25126c-0.04179,-0.54575 0.83856,-2.49964 0.83856,-2.49964c0,0 5.22796,-2.65613 8.17148,-3.48492z" fill="#201a0c" stroke="#000000" stroke-width="1.5" stroke-linecap="butt"/><path d="M254.39058,158.91883c-0.03564,1.51919 -1.28039,2.70837 -2.78027,2.65612c-1.49987,-0.05226 -2.68686,-1.32615 -2.65123,-2.84535c0.03564,-1.51919 1.2804,-2.70836 2.78027,-2.65612c1.49987,0.05226 2.68685,1.32615 2.65122,2.84534z" fill="#000000" stroke="#000000" stroke-width="1.5" stroke-linecap="butt"/></g></g></svg>