<svg version="1.1" xmlns="http://www.w3.org/2000/svg" xmlns:xlink="http://www.w3.org/1999/xlink" width="51.28247" height="81.65355" viewBox="0,0,51.28247,81.65355"><defs><linearGradient x1="237.60905" y1="161.53099" x2="235.46156" y2="160.27718" gradientUnits="userSpaceOnUse" id="color-1"><stop offset="0" stop-color="#333333"/><stop offset="1" stop-color="#515151"/></linearGradient><linearGradient x1="250.25916" y1="125.53971" x2="266.99123" y2="121.14335" gradientUnits="userSpaceOnUse" id="color-2"><stop offset="0" stop-color="#0e0e0e"/><stop offset="1" stop-color="#141414"/></linearGradient><linearGradient x1="253.3585" y1="123.41728" x2="263.78312" y2="123.41728" gradientUnits="userSpaceOnUse" id="color-3"><stop offset="0" stop-color="#002864"/><stop offset="1" stop-color="#004c7d"/></linearGradient><linearGradient x1="201.99289" y1="188.72249" x2="199.02305" y2="191.69233" gradientUnits="userSpaceOnUse" id="color-4"><stop offset="0" stop-color="#333333"/><stop offset="1" stop-color="#515151"/></linearGradient><linearGradient x1="227.16042" y1="187.80848" x2="238.91132" y2="187.80848" gradientUnits="userSpaceOnUse" id="color-5"><stop offset="0" stop-color="#002864"/><stop offset="1" stop-color="#004c7d"/></linearGradient><linearGradient x1="240.93733" y1="187.80848" x2="252.68823" y2="187.80848" gradientUnits="userSpaceOnUse" id="color-6"><stop offset="0" stop-color="#002864"/><stop offset="1" stop-color="#004c7d"/></linearGradient><linearGradient x1="253.43353" y1="168.30419" x2="226.36211" y2="168.30419" gradientUnits="userSpaceOnUse" id="color-7"><stop offset="0" stop-color="#252525"/><stop offset="1" stop-color="#151515"/></linearGradient><linearGradient x1="236.22539" y1="158.31519" x2="249.22629" y2="158.31519" gradientUnits="userSpaceOnUse" id="color-8"><stop offset="0" stop-color="#002864"/><stop offset="1" stop-color="#004c7d"/></linearGradient><linearGradient x1="258.42629" y1="170.95129" x2="263.42629" y2="170.95129" gradientUnits="userSpaceOnUse" id="color-9"><stop offset="0" stop-color="#002864"/><stop offset="1" stop-color="#004c7d"/></linearGradient><linearGradient x1="235.55225" y1="172.77408" x2="246.54292" y2="172.77408" gradientUnits="userSpaceOnUse" id="color-10"><stop offset="0" stop-color="#002864"/><stop offset="1" stop-color="#004c7d"/></linearGradient></defs><g transform="translate(-216.70875,-113.68941)"><g data-paper-data="{&quot;isPaintingLayer&quot;:true}" fill-rule="nonzero" stroke="#000000" stroke-linecap="butt" stroke-linejoin="miter" stroke-miterlimit="10" stroke-dasharray="" stroke-dashoffset="0" style="mix-blend-mode: normal"><g data-paper-data="{&quot;index&quot;:null}"><path d="M253.31616,129.13503l2.8803,1.68165l-33.30754,56.48771l-4.61142,4.67022l1.86654,-6.30326z" fill="url(#color-1)" stroke-width="1.5"/><path d="M256.42701,114.9755c4.62042,-1.21402 9.35021,1.54742 10.56421,6.16785c1.21402,4.62042 -1.54742,9.35021 -6.16785,10.56421c-4.62042,1.21402 -9.35021,-1.54742 -10.56421,-6.16785c-1.21402,-4.62042 1.54742,-9.35021 6.16785,-10.56421z" fill="url(#color-2)" stroke-width="2"/><path d="M261.61398,118.20497l2.16914,8.25548l-8.25548,2.16914l-2.16914,-8.25548z" fill="url(#color-3)" stroke-width="1.5"/></g><path d="" fill="url(#color-4)" stroke-width="1.5"/><path d="M233.03587,193.84296c-3.24492,0 -5.87545,-2.70173 -5.87545,-6.03448c0,-3.33275 2.63053,-6.03448 5.87545,-6.03448c3.24492,0 5.87545,2.70173 5.87545,6.03448c0,3.33275 -2.63053,6.03448 -5.87545,6.03448z" data-paper-data="{&quot;index&quot;:null}" fill="url(#color-5)" stroke-width="3"/><path d="M246.81278,193.84296c-3.24492,0 -5.87545,-2.70173 -5.87545,-6.03448c0,-3.33275 2.63053,-6.03448 5.87545,-6.03448c3.24492,0 5.87545,2.70173 5.87545,6.03448c0,3.33275 -2.63053,6.03448 -5.87545,6.03448z" data-paper-data="{&quot;index&quot;:null}" fill="url(#color-6)" stroke-width="3"/><path d="M253.43353,187.27962c0,0 -2.86479,0 -5.19247,0c-1.44268,0 -4.00883,0 -6.88845,0c-3.43372,0 -7.31319,0 -10.26515,0c-2.77145,0 -4.72536,0 -4.72536,0c0,0 0,-27.68012 0,-33.60553c0,-2.13071 1.8938,-4.34533 3.87437,-4.34533c5.50644,0 15.72141,0 18.8,0c1.47693,0 4.19706,2.09852 4.19706,4.14533c0,5.8451 0.2,33.80552 0.2,33.80552z" data-paper-data="{&quot;index&quot;:null}" fill="url(#color-7)" stroke-width="3"/><path d="M237.0465,161.89852c0,0 -0.82111,-2.49469 -0.82111,-3.79412c0,-1.02239 0.82111,-3.37255 0.82111,-3.37255h11.35868c0,0 0.82111,2.2839 0.82111,3.58333c0,1.02238 -0.82111,3.58333 -0.82111,3.58333z" data-paper-data="{&quot;index&quot;:null}" fill="url(#color-8)" stroke-width="2"/><path d="M258.42629,193.68462v-45.46667h5v45.46667z" data-paper-data="{&quot;index&quot;:null}" fill="url(#color-9)" stroke-width="2"/><path d="M239.63647,175.67409v-5.6h18.8v5.6z" data-paper-data="{&quot;index&quot;:null}" fill="#5a5a5a" stroke-width="2"/><path d="M241.04758,180.26942l-5.49533,-7.49533l5.49533,-7.49534l5.49534,7.49534z" data-paper-data="{&quot;index&quot;:null}" fill="url(#color-10)" stroke-width="2"/></g></g></svg>