<svg version="1.1" xmlns="http://www.w3.org/2000/svg" xmlns:xlink="http://www.w3.org/1999/xlink" width="534.09993" height="365.75157" viewBox="0,0,534.09993,365.75157"><g transform="translate(26.47838,2.18588)"><g data-paper-data="{&quot;isPaintingLayer&quot;:true}" fill-rule="nonzero" stroke-linecap="butt" stroke-linejoin="miter" stroke-miterlimit="10" stroke-dasharray="" stroke-dashoffset="0" style="mix-blend-mode: normal"><g stroke="#000000" stroke-width="4"><g><g><g><path d="M-23.47838,180.94084v-14.0811h46.22521v14.0811z" fill="#0d1527"/><path d="M22.24437,180.94084v-14.0811h46.22521v14.0811z" fill="#182540"/><path d="M68.46958,180.94084v-14.0811h46.2252v14.0811z" fill="#0d1527"/><path d="M114.19233,180.94084v-14.0811h46.22521v14.0811z" fill="#0d1527"/></g><g><path d="M0.63912,194.85869v-14.0811h46.2252v14.0811z" fill="#0d1527"/><path d="M46.36186,194.85869v-14.0811h46.22521v14.0811z" fill="#0d1527"/><path d="M92.58707,194.85869v-14.0811h46.22521v14.0811z" fill="#182540"/><path d="M138.30982,194.85869v-14.0811h46.22519v14.0811z" fill="#0d1527"/></g></g><g><g><path d="M160.41752,180.94084v-14.0811h46.22519v14.0811z" fill="#182540"/><path d="M206.14028,180.94084v-14.0811h46.22519v14.0811z" fill="#0d1527"/><path d="M252.36547,180.94084v-14.0811h46.2252v14.0811z" fill="#0d1527"/><path d="M298.08823,180.94084v-14.0811h46.2252v14.0811z" fill="#182540"/></g><g><path d="M184.53503,194.85869v-14.0811h46.2252v14.0811z" fill="#0d1527"/><path d="M230.25776,194.85869v-14.0811h46.2252v14.0811z" fill="#182540"/><path d="M276.48296,194.85869v-14.0811h46.22521v14.0811z" fill="#0d1527"/><path d="M322.20572,194.85869v-14.0811h46.22521v14.0811z" fill="#0d1527"/></g></g></g><g><g><g><path d="M342.66425,180.92736v-14.08111h46.2252v14.08111z" fill="#0d1527"/><path d="M388.38701,180.92736v-14.08111h46.22521v14.08111z" fill="#0d1527"/><path d="M434.61219,180.92736v-14.08111h46.22519v14.08111z" fill="#182540"/><path d="M480.33495,180.92737v-14.08111z" fill="#182272"/></g><g><path d="M366.78174,194.84521v-14.08111h46.22521v14.08111z" fill="#182540"/><path d="M412.5045,194.84521v-14.08111h46.22519v14.08111z" fill="#0d1527"/><path d="M458.7297,194.84521v-14.08111h46.22521v14.08111z" fill="#0d1527"/><path d="M504.45245,180.7641v14.08111z" fill="#182272"/></g></g><g fill="#182272"><g><path d=""/><path d=""/><path d=""/><path d=""/></g><g><path d=""/><path d=""/><path d=""/><path d=""/></g></g></g></g><g data-paper-data="{&quot;index&quot;:null}" stroke="#000000" stroke-width="4"><g><g><g><path d="M21.89261,83.21206v14.0811h-46.37099v-14.0811z" fill="#182540"/><path d="M67.75958,83.21206v14.0811h-46.371v-14.0811z" fill="#0d1527"/><path d="M114.13056,83.21206v14.0811h-46.37099v-14.0811z" fill="#0d1527"/><path d="M159.99752,83.21206v14.0811h-46.371v-14.0811z" fill="#182540"/></g><g><path d="M46.08616,69.29421v14.0811h-46.37098v-14.0811z" fill="#0d1527"/><path d="M91.95313,69.29421v14.0811h-46.37098v-14.0811z" fill="#182540"/><path d="M138.32412,69.29421v14.0811h-46.37099v-14.0811z" fill="#0d1527"/><path d="M184.1911,69.29421v14.0811h-46.37099v-14.0811z" fill="#0d1527"/></g></g><g><g><path d="M206.36851,83.21206v14.0811h-46.37099v-14.0811z" fill="#0d1527"/><path d="M252.23548,83.21206v14.0811h-46.37099v-14.0811z" fill="#0d1527"/><path d="M298.60648,83.21206v14.0811h-46.37099v-14.0811z" fill="#182540"/><path d="M344.47344,83.21206v14.0811h-46.37098v-14.0811z" fill="#0d1527"/></g><g><path d="M230.56206,69.29421v14.0811h-46.37099v-14.0811z" fill="#182540"/><path d="M276.42903,69.29421v14.0811h-46.371v-14.0811z" fill="#0d1527"/><path d="M322.80002,69.29421v14.0811h-46.37099v-14.0811z" fill="#0d1527"/><path d="M368.667,69.29421v14.0811h-46.37101v-14.0811z" fill="#182540"/></g></g></g><g><g><g><path d="M389.19005,83.22553v14.0811h-46.37099v-14.0811z" fill="#0d1527"/><path d="M435.057,83.22553v14.0811h-46.371v-14.0811z" fill="#182540"/><path d="M481.428,83.22553v14.0811h-46.37098v-14.0811z" fill="#0d1527"/><path d="M480.92396,83.22553v14.0811z" fill="#182272"/></g><g><path d="M413.3836,69.3077v14.0811h-46.371v-14.0811z" fill="#0d1527"/><path d="M459.25057,69.3077v14.0811h-46.37099v-14.0811z" fill="#0d1527"/><path d="M505.62155,69.3077v14.0811h-46.371v-14.0811z" fill="#182540"/><path d="M505.11753,83.3888v-14.08111z" fill="#182272"/></g></g><g fill="#182272"><g><path d=""/><path d=""/><path d=""/><path d=""/></g><g><path d=""/><path d=""/><path d=""/><path d=""/></g></g></g></g><g data-paper-data="{&quot;index&quot;:null}"><g fill="none" stroke="none" stroke-width="1" font-family="sans-serif" font-weight="normal" font-size="12" text-anchor="start"/><path d="M412.0238,166.37201v-68.9705h69.12347v68.9705z" fill="#182540" stroke="#000000" stroke-width="4"/><path d="M343.66269,166.24522v-68.97051h69.12349v68.97051z" fill="#0d1527" stroke="#000000" stroke-width="4"/><g stroke="#000000" stroke-width="4"><g><path d="M274.79336,166.37201v-68.9705h69.12347v68.9705z" fill="#182540"/><path d="M206.43231,166.24522v-68.97051h69.12347v68.97051z" fill="#0d1527"/></g><path d="M137.56298,166.37201v-68.9705h69.12347v68.9705z" fill="#182540"/><path d="M69.20189,166.24522v-68.97051h69.12347v68.97051z" fill="#0d1527"/></g><g stroke="#000000" stroke-width="4"><g><path d="M0.06241,166.36515v-68.9705h69.12347v68.9705z" fill="#182540"/><path d="M0.8248,166.23837v-68.97052z" fill="#2b3d98"/></g><path d="" fill="#182272"/></g></g><g data-paper-data="{&quot;index&quot;:null}"><g fill="none" stroke="none" stroke-width="1" font-family="sans-serif" font-weight="normal" font-size="12" text-anchor="start"/><path d="M411.07325,68.91142v-68.9705h68.97979v68.97051z" fill="#0d1527" stroke="#000000" stroke-width="4"/><path d="M342.85424,68.78463v-68.97051h68.9798v68.97051z" fill="#182540" stroke="#000000" stroke-width="4"/><g stroke="#000000" stroke-width="4"><g><path d="M274.12807,68.91142v-68.9705h68.97978v68.97051z" fill="#0d1527"/><path d="M205.90911,68.78463v-68.97051h68.97979v68.97051z" fill="#182540"/></g><path d="M137.18293,68.91142v-68.9705h68.97978v68.97051z" fill="#0d1527"/><path d="M68.96395,68.78463v-68.97051h68.97978v68.97051z" fill="#182540"/></g><g stroke="#000000" stroke-width="4"><g><path d="M-0.03182,68.90457v-68.9705h68.97978v68.97051z" fill="#0d1527"/><path d="M0.72899,68.77778v-68.97052z" fill="#2b3d98"/></g><path d="" fill="#182272"/></g></g><g data-paper-data="{&quot;index&quot;:null}" fill="none" stroke="none" stroke-width="1" font-family="sans-serif" font-weight="normal" font-size="12" text-anchor="start"><g><g><g/><g/></g><g><g/><g/></g></g><g><g><g/><g/></g><g><g/><g/></g></g></g><g data-paper-data="{&quot;index&quot;:null}" fill="none" stroke="none" stroke-width="1" font-family="sans-serif" font-weight="normal" font-size="12" text-anchor="start"><g/><g><g/></g><g><g/></g></g><g data-paper-data="{&quot;index&quot;:null}" fill="none" stroke="none" stroke-width="1" font-family="sans-serif" font-weight="normal" font-size="12" text-anchor="start"><g/><g><g/></g><g><g/></g></g><g data-paper-data="{&quot;index&quot;:null}" stroke="#000000" stroke-width="4"><g><g><g><path d="M22.62495,278.40575v14.0811h-46.28352v-14.0811z" fill="#182540"/><path d="M68.40539,278.40575v14.0811h-46.28353v-14.0811z" fill="#0d1527"/><path d="M114.6889,278.40575v14.0811h-46.28352v-14.0811z" fill="#0d1527"/><path d="M160.46933,278.40575v14.0811h-46.28353v-14.0811z" fill="#182540"/></g><g><path d="M46.77287,264.48789v14.0811h-46.28351v-14.0811z" fill="#0d1527"/><path d="M92.55331,264.48789v14.0811h-46.28351v-14.0811z" fill="#182540"/><path d="M138.83683,264.48789v14.0811h-46.28352v-14.0811z" fill="#0d1527"/><path d="M184.61728,264.48789v14.0811h-46.28352v-14.0811z" fill="#0d1527"/></g></g><g><g><path d="M206.75285,278.40575v14.0811h-46.28352v-14.0811z" fill="#0d1527"/><path d="M252.53329,278.40575v14.0811h-46.28352v-14.0811z" fill="#0d1527"/><path d="M298.81682,278.40575v14.0811h-46.28352v-14.0811z" fill="#182540"/><path d="M344.59725,278.40575v14.0811h-46.28351v-14.0811z" fill="#0d1527"/></g><g><path d="M230.90076,264.48789v14.0811h-46.28352v-14.0811z" fill="#182540"/><path d="M276.68121,264.48789v14.0811h-46.28353v-14.0811z" fill="#0d1527"/><path d="M322.96472,264.48789v14.0811h-46.28352v-14.0811z" fill="#0d1527"/><path d="M368.74517,264.48789v14.0811h-46.28354v-14.0811z" fill="#182540"/></g></g></g><g><g><g><path d="M389.22951,278.41924v14.0811h-46.28352v-14.0811z" fill="#0d1527"/><path d="M435.00993,278.41924v14.0811h-46.28353v-14.0811z" fill="#182540"/><path d="M481.29346,278.41924v14.0811h-46.28351v-14.0811z" fill="#0d1527"/><path d="M480.79037,292.50032v-14.0811z" fill="#182272"/></g><g><path d="M413.37742,264.50139v14.0811h-46.28353v-14.0811z" fill="#0d1527"/><path d="M459.15786,264.50139v14.0811h-46.28352v-14.0811z" fill="#0d1527"/><path d="M505.44137,264.50139v14.0811h-46.28353v-14.0811z" fill="#182540"/><path d="M504.93829,278.58249v-14.08111z" fill="#182272"/></g></g><g fill="#182272"><g><path d=""/><path d=""/><path d=""/><path d=""/></g><g><path d=""/><path d=""/><path d=""/><path d=""/></g></g></g></g><g data-paper-data="{&quot;index&quot;:null}"><g fill="none" stroke="none" stroke-width="1" font-family="sans-serif" font-weight="normal" font-size="12" text-anchor="start"/><path d="M412.51028,361.5657v-68.9705h69.12347v68.9705z" fill="#182540" stroke="#000000" stroke-width="4"/><path d="M344.14917,361.43891v-68.97051h69.12349v68.97051z" fill="#0d1527" stroke="#000000" stroke-width="4"/><g stroke="#000000" stroke-width="4"><g><path d="M275.27984,361.5657v-68.9705h69.12347v68.9705z" fill="#182540"/><path d="M206.91879,361.43891v-68.97051h69.12347v68.97051z" fill="#0d1527"/></g><path d="M138.04946,361.5657v-68.9705h69.12347v68.9705z" fill="#182540"/><path d="M69.68837,361.43891v-68.97051h69.12347v68.97051z" fill="#0d1527"/></g><g stroke="#000000" stroke-width="4"><g><path d="M0.54889,361.55884v-68.9705h69.12347v68.9705z" fill="#182540"/><path d="M1.31128,292.46155v68.97052z" fill="#2b3d98"/></g><path d="" fill="#182272"/></g></g><g data-paper-data="{&quot;index&quot;:null}"><g fill="none" stroke="none" stroke-width="1" font-family="sans-serif" font-weight="normal" font-size="12" text-anchor="start"/><path d="M411.55973,264.10513v-68.9705h68.97979v68.97051z" fill="#0d1527" stroke="#000000" stroke-width="4"/><path d="M343.34072,263.97835v-68.97051h68.9798v68.97051z" fill="#182540" stroke="#000000" stroke-width="4"/><g stroke="#000000" stroke-width="4"><g><path d="M274.61455,264.10513v-68.9705h68.97978v68.97051z" fill="#0d1527"/><path d="M206.39559,263.97835v-68.97051h68.97979v68.97051z" fill="#182540"/></g><path d="M137.66942,264.10513v-68.9705h68.97978v68.97051z" fill="#0d1527"/><path d="M69.45043,263.97835v-68.97051h68.97978v68.97051z" fill="#182540"/></g><g stroke="#000000" stroke-width="4"><g><path d="M0.45467,264.09828v-68.9705h68.97978v68.97051z" fill="#0d1527"/><path d="M1.21547,263.97148v-68.97052z" fill="#2b3d98"/></g><path d="" fill="#182272"/></g></g></g></g></svg>