<svg version="1.1" xmlns="http://www.w3.org/2000/svg" xmlns:xlink="http://www.w3.org/1999/xlink" width="26.26453" height="5.95" viewBox="0,0,26.26453,5.95"><defs><radialGradient cx="269.09743" cy="167.63747" r="2.975" gradientUnits="userSpaceOnUse" id="color-1"><stop offset="0" stop-color="#ffffff"/><stop offset="1" stop-color="#ffffff" stop-opacity="0"/></radialGradient><linearGradient x1="269.84899" y1="166.63082" x2="269.84899" y2="168.8957" gradientUnits="userSpaceOnUse" id="color-2"><stop offset="0" stop-color="#3e3e3e"/><stop offset="1" stop-color="#181818"/></linearGradient><linearGradient x1="250.41766" y1="166.38321" x2="250.41766" y2="168.94396" gradientUnits="userSpaceOnUse" id="color-3"><stop offset="0" stop-color="#a31616"/><stop offset="1" stop-color="#3a0e13"/></linearGradient></defs><g transform="translate(-246.66121,-164.66247)"><g data-paper-data="{&quot;isPaintingLayer&quot;:true}" fill-rule="nonzero" stroke-linejoin="miter" stroke-miterlimit="10" stroke-dasharray="" stroke-dashoffset="0" style="mix-blend-mode: normal"><path d="M266.12243,167.63747c0,-1.64305 1.33195,-2.975 2.975,-2.975c1.64305,0 2.975,1.33195 2.975,2.975c0,1.64305 -1.33195,2.975 -2.975,2.975c-1.64305,0 -2.975,-1.33195 -2.975,-2.975z" fill="url(#color-1)" stroke="none" stroke-width="NaN" stroke-linecap="butt"/><path d="M252.11338,167.87899h15.97695" fill="none" stroke="#050505" stroke-width="1" stroke-linecap="round"/><path d="M267.60132,167.74817c0,-0.60709 0.91459,-1.11736 0.91459,-1.11736l3.58072,1.10184l-3.58072,1.16303c0,0 -0.91459,-0.54045 -0.91459,-1.14752z" data-paper-data="{&quot;index&quot;:null}" fill="url(#color-2)" stroke="#000000" stroke-width="0.5" stroke-linecap="butt"/><path d="M247.55564,168.86523l1.9393,-1.23625l-1.84545,-1.35626l3.69088,0.35726l1.84544,0.999l-1.84544,1.13634z" data-paper-data="{&quot;index&quot;:null}" fill="url(#color-3)" stroke="#000000" stroke-width="0.5" stroke-linecap="butt"/></g></g></svg>