<svg version="1.1" xmlns="http://www.w3.org/2000/svg" xmlns:xlink="http://www.w3.org/1999/xlink" width="93.32834" height="110.80697" viewBox="0,0,93.32834,110.80697"><defs><linearGradient x1="264.63343" y1="126.34877" x2="261.64165" y2="123.93687" gradientUnits="userSpaceOnUse" id="color-1"><stop offset="0" stop-color="#271100"/><stop offset="1" stop-color="#613700"/></linearGradient><linearGradient x1="240.85753" y1="159.35965" x2="234.84876" y2="154.54799" gradientUnits="userSpaceOnUse" id="color-2"><stop offset="0" stop-color="#ffffff"/><stop offset="1" stop-color="#323232"/></linearGradient><linearGradient x1="239.49252" y1="108.27462" x2="239.49252" y2="132.38207" gradientUnits="userSpaceOnUse" id="color-3"><stop offset="0" stop-color="#cca670"/><stop offset="1" stop-color="#907751"/></linearGradient><linearGradient x1="231.76889" y1="122.09744" x2="237.99308" y2="121.85422" gradientUnits="userSpaceOnUse" id="color-4"><stop offset="0" stop-color="#dadada"/><stop offset="1" stop-color="#898989"/></linearGradient><linearGradient x1="242.21427" y1="121.57909" x2="248.43847" y2="121.33586" gradientUnits="userSpaceOnUse" id="color-5"><stop offset="0" stop-color="#dadada"/><stop offset="1" stop-color="#898989"/></linearGradient><linearGradient x1="240.46144" y1="125.10563" x2="240.76219" y2="132.80146" gradientUnits="userSpaceOnUse" id="color-6"><stop offset="0" stop-color="#272727"/><stop offset="1" stop-color="#000000"/></linearGradient><linearGradient x1="249.36122" y1="156.77498" x2="249.36122" y2="166.78884" gradientUnits="userSpaceOnUse" id="color-7"><stop offset="0" stop-color="#676767"/><stop offset="1" stop-color="#292929"/></linearGradient><linearGradient x1="256.06877" y1="154.34408" x2="225.9484" y2="154.34408" gradientUnits="userSpaceOnUse" id="color-8"><stop offset="0" stop-color="#202020"/><stop offset="1" stop-color="#000000"/></linearGradient><linearGradient x1="231.83594" y1="156.77498" x2="231.83594" y2="166.86587" gradientUnits="userSpaceOnUse" id="color-9"><stop offset="0" stop-color="#696969"/><stop offset="1" stop-color="#272727"/></linearGradient><radialGradient cx="249.42189" cy="116.16746" r="5.19534" gradientUnits="userSpaceOnUse" id="color-10"><stop offset="0" stop-color="#00059e"/><stop offset="1" stop-color="#1f5cff"/></radialGradient><radialGradient cx="238.52063" cy="120.17298" r="5.19534" gradientUnits="userSpaceOnUse" id="color-11"><stop offset="0" stop-color="#00059e"/><stop offset="1" stop-color="#1f5cff"/></radialGradient><radialGradient cx="238.42902" cy="120.18622" r="7.2184" gradientUnits="userSpaceOnUse" id="color-12"><stop offset="0" stop-color="#0015ff"/><stop offset="1" stop-color="#0015ff" stop-opacity="0"/></radialGradient><radialGradient cx="249.34534" cy="116.25046" r="6.6881" gradientUnits="userSpaceOnUse" id="color-13"><stop offset="0" stop-color="#0021ff"/><stop offset="1" stop-color="#0021ff" stop-opacity="0"/></radialGradient><linearGradient x1="256.36595" y1="166.81226" x2="256.36595" y2="178.53789" gradientUnits="userSpaceOnUse" id="color-14"><stop offset="0" stop-color="#838383"/><stop offset="1" stop-color="#000000"/></linearGradient><linearGradient x1="248.24972" y1="153.32347" x2="248.24972" y2="160.65946" gradientUnits="userSpaceOnUse" id="color-15"><stop offset="0" stop-color="#838383"/><stop offset="1" stop-color="#2c2c2c"/></linearGradient><linearGradient x1="244.19423" y1="159.92208" x2="244.19423" y2="164.5108" gradientUnits="userSpaceOnUse" id="color-16"><stop offset="0" stop-color="#838383"/><stop offset="1" stop-color="#2c2c2c"/></linearGradient><linearGradient x1="266.62365" y1="150.60614" x2="266.62365" y2="159.45702" gradientUnits="userSpaceOnUse" id="color-17"><stop offset="0" stop-color="#000000" stop-opacity="0"/><stop offset="1" stop-color="#000000" stop-opacity="0"/></linearGradient><linearGradient x1="238.3608" y1="162.5829" x2="238.3608" y2="172.19421" gradientUnits="userSpaceOnUse" id="color-18"><stop offset="0" stop-color="#000000" stop-opacity="0"/><stop offset="1" stop-color="#000000" stop-opacity="0"/></linearGradient><linearGradient x1="234.05946" y1="144.65416" x2="234.05946" y2="151.95235" gradientUnits="userSpaceOnUse" id="color-19"><stop offset="0" stop-color="#696969"/><stop offset="1" stop-color="#272727"/></linearGradient></defs><g transform="translate(-211.13455,-99.11565)"><g data-paper-data="{&quot;isPaintingLayer&quot;:true}" fill-rule="nonzero" stroke-linejoin="miter" stroke-miterlimit="10" stroke-dasharray="" stroke-dashoffset="0" style="mix-blend-mode: normal"><g stroke="#000000"><path d="M257.69489,128.83251l8.5598,-10.67967l3.10283,2.63401l-8.67085,10.45757z" data-paper-data="{&quot;index&quot;:null}" fill="url(#color-1)" stroke-width="2" stroke-linecap="butt"/><path d="M214.39737,180.31125l40.90278,-51.52647l6.00877,4.81165c0,0 -1.55342,1.29971 -6.15749,7.09959c-4.91939,6.19711 -22.84229,25.80963 -30.01665,34.8474c-3.80876,4.79802 -10.7374,4.76784 -10.7374,4.76784z" data-paper-data="{&quot;index&quot;:null}" fill="url(#color-2)" stroke-width="2" stroke-linecap="butt"/><path d="M255.03821,127.98973l7.15909,5.76192" data-paper-data="{&quot;index&quot;:null}" fill="none" stroke-width="5" stroke-linecap="round"/><path d="M259.43288,126.97662l2.68415,2.17829" data-paper-data="{&quot;index&quot;:null}" fill="none" stroke-width="2" stroke-linecap="round"/><path d="M263.85004,127.16379l-2.54288,-2.06365" data-paper-data="{&quot;index&quot;:null}" fill="none" stroke-width="1.5" stroke-linecap="round"/><path d="M262.93932,122.60392l2.47225,2.00633" data-paper-data="{&quot;index&quot;:null}" fill="none" stroke-width="1.5" stroke-linecap="round"/><path d="M267.33959,122.80443l-2.47225,-2.00633" data-paper-data="{&quot;index&quot;:null}" fill="none" stroke-width="1.5" stroke-linecap="round"/></g><path d="M244.88293,170.079l5.74306,5.19724l3.58223,15.57993" fill="none" stroke="#121212" stroke-width="13" stroke-linecap="round"/><path d="M228.92561,191.76614l2.72575,-15.19444l5.31229,-5.60959" fill="none" stroke="#121212" stroke-width="13" stroke-linecap="round"/><path d="M246.07105,185.42493c0,0 -0.68842,-1.30411 -0.83595,-2.12157c-0.14142,-0.7836 -0.03165,-2.68593 -0.03165,-2.68593l13.11032,-0.8829c0,0 0.64171,1.6077 0.77041,2.40998c0.12837,0.80021 0.00079,2.39752 0.00079,2.39752z" data-paper-data="{&quot;index&quot;:null}" fill="#000000" stroke="none" stroke-width="0" stroke-linecap="butt"/><path d="M248.53989,185.72192c-0.47204,-1.91185 -1.10435,-4.92927 -1.38821,-6.11373c-0.22221,-0.92721 0.72742,-2.04746 1.99547,-2.17714c0.94781,-0.09693 2.84493,-0.36118 4.42921,-0.55987c1.21529,-0.15241 2.5294,0.69114 2.71996,1.48629c0.27405,1.14352 1.04776,4.37198 1.53141,6.39015c0.24048,1.00345 -0.56308,1.80593 -1.80411,1.93147c-1.67285,0.16922 -3.8339,0.38805 -4.75972,0.48273c-0.77523,0.07928 -2.49053,-0.4943 -2.724,-1.43989z" fill="#000000" stroke="none" stroke-width="NaN" stroke-linecap="butt"/><path d="M223.22641,184.85155c0,0 -0.26713,-1.67999 -0.12757,-2.52657c0.12234,-0.74213 0.92008,-2.28093 0.92008,-2.28093l13.4728,0.8829c0,0 0.14134,1.95837 -0.02293,2.84412c-0.11491,0.61961 -0.86865,1.96338 -0.86865,1.96338z" fill="#000000" stroke="none" stroke-width="0" stroke-linecap="butt"/><path d="M234.69534,185.4679c-0.16388,0.95908 -1.83022,1.65908 -2.60789,1.63837c-0.92874,-0.02473 -3.09644,-0.08029 -4.77443,-0.12312c-1.24483,-0.03179 -2.10319,-0.77048 -1.93654,-1.78771c0.33517,-2.04588 0.87132,-5.31867 1.06123,-6.47789c0.13205,-0.80605 1.37936,-1.74472 2.60051,-1.68425c1.59192,0.07883 3.50012,0.19945 4.45092,0.22478c1.27203,0.03387 2.29889,1.07799 2.14491,2.01795c-0.19671,1.20071 -0.60739,4.25275 -0.9387,6.1919z" data-paper-data="{&quot;index&quot;:null}" fill="#000000" stroke="none" stroke-width="NaN" stroke-linecap="butt"/><path d="M222.41668,207.51727c0,-0.92587 0,-2.91096 0,-4.52485c0,-1.34585 0.7507,-2.43353 1.45596,-2.43353c1.87421,0 10.2823,0 10.2823,0c0,0 0.45158,1.10638 1.07476,2.43703c0.40404,0.86271 0.20801,3.34035 -0.11973,4.33541c-0.54259,1.64737 -0.95502,2.50541 -0.95502,2.50541c0,0 -8.54707,0 -10.38386,0c-0.66336,0 -1.35442,-1.33914 -1.35442,-2.31945z" fill="#000000" stroke="none" stroke-width="0" stroke-linecap="butt"/><path d="M224.52851,201.49847l-1.86065,-9.18172c0,0 4.32644,1.76961 6.05806,1.78843c1.8084,0.01966 6.51892,-1.67289 6.51892,-1.67289l-2.50286,8.83509z" fill="#000000" stroke="none" stroke-width="0" stroke-linecap="butt"/><path d="M248.45903,207.53582c0,-0.95275 0,-2.99548 0,-4.65622c0,-1.38492 0.72796,-2.50419 1.41186,-2.50419c1.81743,0 9.97084,0 9.97084,0c0,0 0.4379,1.1385 1.0422,2.50777c0.3918,0.88775 0.20171,3.43733 -0.1161,4.46129c-0.52615,1.6952 -0.92609,2.57815 -0.92609,2.57815c0,0 -8.28816,0 -10.06931,0c-0.64327,0 -1.31339,-1.37802 -1.31339,-2.3868z" fill="#000000" stroke="none" stroke-width="0" stroke-linecap="butt"/><path d="M250.51473,202.9986l-2.67439,-10.4984c0,0 4.45811,1.76961 6.18973,1.78843c1.8084,0.01966 6.41533,-2.03983 6.41533,-2.03983l-1.63732,10.65036z" fill="#000000" stroke="none" stroke-width="0" stroke-linecap="butt"/><path d="M230.95711,132.25558c-3.86709,-0.43853 -5.35067,-18.10628 -3.0703,-20.56489c2.61532,-2.81976 10.18105,-4.62519 16.61938,-2.45716c5.40824,1.82115 6.96548,7.10097 7.16398,11.66119c0.1669,3.83428 1.68407,8.98413 -1.50328,10.97866c-7.94804,0.33199 -11.21425,0.71128 -19.20976,0.38221z" fill="url(#color-3)" stroke="none" stroke-width="0" stroke-linecap="butt"/><path d="M234.77764,119.33138c1.71877,-0.06717 3.15837,1.06235 3.21544,2.52284c0.05707,1.46049 -1.28999,2.69891 -3.00875,2.76607c-1.71877,0.06717 -3.15837,-1.06235 -3.21544,-2.52284c-0.05707,-1.46049 1.28999,-2.69891 3.00875,-2.76607z" fill="url(#color-4)" stroke="none" stroke-width="0" stroke-linecap="butt"/><path d="M233.81434,122.40308c-0.03561,-0.91124 0.67423,-1.67882 1.58547,-1.71443c0.91124,-0.03561 1.67882,0.67423 1.71443,1.58547c0.03561,0.91124 -0.67423,1.67883 -1.58547,1.71443c-0.91124,0.03561 -1.67882,-0.67423 -1.71443,-1.58547z" fill="#000000" stroke="none" stroke-width="0" stroke-linecap="butt"/><path d="M231.56966,118.52488c0,0 2.06374,-0.5213 3.06271,-0.56034c1.0173,-0.03976 2.9871,0.32392 2.9871,0.32392" fill="none" stroke="#000000" stroke-width="2.5" stroke-linecap="round"/><path d="M242.34502,117.99363c0,0 2.06373,-0.52131 3.06271,-0.56034c1.0173,-0.03976 2.9871,0.32392 2.9871,0.32392" fill="none" stroke="#000000" stroke-width="2.5" stroke-linecap="round"/><path d="M245.22302,118.81302c1.71877,-0.06717 3.15837,1.06235 3.21544,2.52284c0.05707,1.46049 -1.28999,2.6989 -3.00875,2.76607c-1.71877,0.06717 -3.15837,-1.06235 -3.21544,-2.52283c-0.05707,-1.46049 1.28999,-2.69891 3.00875,-2.76607z" fill="url(#color-5)" stroke="none" stroke-width="0" stroke-linecap="butt"/><path d="M244.25972,121.88474c-0.03561,-0.91124 0.67423,-1.67883 1.58547,-1.71443c0.91124,-0.03561 1.67882,0.67423 1.71443,1.58547c0.03561,0.91124 -0.67423,1.67882 -1.58547,1.71443c-0.91124,0.03561 -1.67882,-0.67423 -1.71442,-1.58547z" fill="#000000" stroke="none" stroke-width="0" stroke-linecap="butt"/><path d="M247.03152,132.43435l-0.75974,-0.62994l-0.75725,0.81132l-1.0138,-0.24542l-1.08028,-0.30328l-0.72639,-0.71224l-1.04156,0.0843l-0.63414,-0.3024l-0.84006,0.31573l-1.44471,0.92204l-1.16246,-0.28842l-1.04632,0.50404l-0.88808,0.39631l-1.0145,-0.94643l-1.23768,-0.19908l0.45385,-0.97008l-1.18041,-0.41343l-0.1862,-1.1451l1.0736,-0.30632l0.13207,-0.78401l0.63848,-1.00399l1.01689,-0.05821l1.09057,-0.49408l0.88015,0.03762l0.80683,-0.66345l1.39755,-0.16378l1.46066,-0.79026l0.83627,0.79634l1.22886,0.18505l0.70236,0.68582l0.95392,-0.02497l0.70642,0.6428l0.94419,-0.55358l0.563,1.03055l0.42978,0.49281l0.94124,-0.20112l0.52432,1.66238l-0.59887,1.13578l-0.51165,1.18231z" data-paper-data="{&quot;index&quot;:null}" fill="url(#color-6)" stroke="#000000" stroke-width="0" stroke-linecap="butt"/><path d="M227.11554,115.68618l-0.7721,-1.79178l0.2731,-1.64288l-0.41436,-1.70734l0.99996,-0.42724l0.82304,-0.31404l0.48663,-1.21404l1.55179,0.46455l1.21053,-0.56512l1.34958,-1.31921l1.02622,0.89461l1.67551,-0.70374l1.99147,-0.27489l1.45759,0.00788c0,0 0.30364,0.93836 0.67386,1.17613c0.37393,0.24015 1.55868,0.25772 1.55868,0.25772l1.06947,-0.92049l1.29686,0.19305l1.52199,0.25354l1.37338,-0.14303l1.33813,-0.14621l-0.74937,1.5379l0.57714,0.83123l0.84929,1.03492l0.80355,1.35584c0,0 -0.06089,0.94316 -0.31601,1.18923c-0.22467,0.21671 -1.36791,0.28994 -1.36791,0.28994l-1.55038,-0.38124l-0.80395,1.22897c0,0 -0.95776,0.18077 -1.1821,0.16523c-0.3366,-0.02332 -0.65864,-0.74035 -0.65864,-0.74035l-1.28974,0.38228c0,0 -0.24125,0.08751 -0.58435,0.05259c-0.2359,-0.02401 -0.58667,-0.60018 -0.72473,-0.67054c-0.24221,-0.12345 -0.55079,-0.76986 -0.55079,-0.76986c0,0 -0.60536,-0.03884 -0.90004,0.09357c-0.36411,0.1636 -0.66373,1.54264 -0.66373,1.54264l-1.52745,-0.06788l-1.07394,-0.16085l-1.54698,-0.35425l-1.0084,0.4247l-1.53101,0.93967l-1.45492,0.47511l-1.20064,-1.10013l-1.03924,1.00849z" fill="#000000" stroke="#000000" stroke-width="0.5" stroke-linecap="butt"/><path d="M265.54524,158.02581l-13.0289,-21.56769" fill="none" stroke="#121212" stroke-width="10" stroke-linecap="round"/><path d="M223.92638,132.59542l28.68318,-0.67499c0,0 -0.61043,13.51675 -0.1832,20.08255c0.41984,6.45212 3.0655,19.29461 3.0655,19.29461c0,0 -9.56789,2.43779 -14.34515,2.57048c-4.76832,0.13244 -14.29162,-1.7751 -14.29162,-1.7751c0,0 -0.26309,-12.63092 -0.74464,-19.12532c-0.49435,-6.66692 -2.18407,-20.37221 -2.18407,-20.37221z" fill="#444444" stroke="none" stroke-width="0" stroke-linecap="butt"/><path d="M246.10598,165.41919c0,-1.49425 0,-8.64418 0,-8.64418h6.51047c0,0 0,6.80583 0,8.49012c0,0.71353 -0.73519,1.52371 -1.66546,1.52371c-1.24102,0 -2.82923,0 -3.48235,0c-0.54631,0 -1.36265,-0.87623 -1.36265,-1.36964z" fill="url(#color-7)" stroke="none" stroke-width="0" stroke-linecap="butt"/><path d="M245.80317,159.47103c0,0 0,-2.41236 0,-3.25097c0,-0.5699 0.62661,-1.29377 1.23858,-1.29377c0.88018,0 3.28299,0 4.69361,0c0.58567,0 1.10822,0.89851 1.10822,1.5068c0,0.83413 0,3.03793 0,3.03793z" fill="#282828" stroke="none" stroke-width="0" stroke-linecap="butt"/><path d="M253.34401,137.87709c0,0 3.04235,10.71251 2.56378,15.52429c0.15926,4.90767 -2.14054,14.14685 -2.14054,14.14685c0,0 -11.3669,2.485 -13.53387,2.47772c-1.27859,-0.0043 -13.64848,-3.10836 -13.64848,-3.10836c0,0 -1.05404,-9.66487 -0.44936,-14.5626c-0.03381,-4.88976 2.15156,-13.89843 2.15156,-13.89843c0,0 3.09276,-0.63735 6.71156,-0.47622c2.44887,0.10904 6.2697,0.09498 8.75296,0.13457c2.65437,0.0423 1.60327,-0.22443 3.0734,-0.20149z" data-paper-data="{&quot;index&quot;:null}" fill="url(#color-8)" stroke="#000000" stroke-width="1.5" stroke-linecap="butt"/><path d="M228.54284,165.34217c0,-1.66344 0.0757,-8.56714 0.0757,-8.56714h6.51049c0,0 0,6.86368 0,8.56714c0,0.74305 -0.58047,1.52371 -1.28695,1.52371c-1.36194,0 -3.3978,-0.07703 -4.08797,-0.07703c-0.40142,0 -1.21125,-0.76311 -1.21125,-1.44668z" fill="url(#color-9)" stroke="#000000" stroke-width="0.5" stroke-linecap="butt"/><path d="M228.01292,159.54806c0,0 0,-2.75859 0,-3.55055c0,-0.36512 0.6805,-1.01416 1.26173,-1.01416c0.95139,0 3.75032,0 5.25716,0c0.55158,0 1.05143,0.66928 1.05143,1.08549c0,0.81575 0,3.47922 0,3.47922z" fill="#282828" stroke="#000000" stroke-width="0.5" stroke-linecap="butt"/><path d="M237.83138,165.53432v-6.45731h6.18268v6.45731z" fill="#505050" stroke="none" stroke-width="0" stroke-linecap="butt"/><path d="M237.24871,159.54806c0,0 0,-2.54394 0,-3.39496c0,-0.49582 0.78876,-1.24962 1.38369,-1.24962c0.82359,0 2.99105,0 4.41462,0c0.73343,0 1.31781,0.7538 1.31781,1.24962c0,0.85102 0,3.39496 0,3.39496z" fill="#282828" stroke="#000000" stroke-width="0.5" stroke-linecap="butt"/><path d="M239.67122,160.62648v-2.619h2.4225v2.619z" fill="#000000" stroke="none" stroke-width="0" stroke-linecap="butt"/><text transform="translate(241.68883,141.86005) scale(0.06656,0.06656)" font-size="40" xml:space="preserve" fill="#ffffff" fill-rule="nonzero" stroke="#ffffff" stroke-width="2" stroke-linecap="butt" stroke-linejoin="miter" stroke-miterlimit="10" stroke-dasharray="" stroke-dashoffset="0" font-family="Sans Serif" font-weight="normal" text-anchor="start" style="mix-blend-mode: normal"><tspan x="0" dy="0">S.O.A.S.T</tspan></text><path d="M244.79851,150.4672c-0.30462,-0.56394 -0.48903,-1.20237 -0.51889,-1.88095" fill="#e6e016" stroke="#ff1919" stroke-width="3" stroke-linecap="butt"/><path d="M251.91292,131.98039c0,0 1.43413,1.90811 1.4907,2.92744c0.05423,0.97691 -0.32223,3.00167 -0.32223,3.00167l-7.21705,0.07268c0,0 0.95555,-2.82735 0.95491,-2.95487c-0.00446,-0.89417 -0.86493,-2.93059 -0.86493,-2.93059z" fill="#000000" stroke="#000000" stroke-width="0.5" stroke-linecap="butt"/><path d="M244.7506,146.5888c0.34525,-0.61821 0.86008,-1.12883 1.48154,-1.46894" fill="none" stroke="#1921ff" stroke-width="3" stroke-linecap="butt"/><path d="M248.14839,144.66251c0.85164,0.0256 1.63205,0.3346 2.25015,0.8359" fill="none" stroke="#4aff19" stroke-width="3" stroke-linecap="butt"/><path d="M251.59451,147.21633c0.12732,0.37737 0.19634,0.78159 0.19634,1.20192c0,0.28058 -0.03076,0.55398 -0.08908,0.81702" fill="none" stroke="#fff719" stroke-width="3" stroke-linecap="butt"/><path d="M250.96749,150.83121c-0.46781,0.50251 -1.07166,0.8767 -1.75291,1.06389" fill="none" stroke="#ff9319" stroke-width="3" stroke-linecap="butt"/><path d="M246.25233,152.80578l1.91395,-4.54561" fill="none" stroke="#000000" stroke-width="3" stroke-linecap="round"/><path d="M246.51392,148.33801c0,-0.84019 0.68111,-1.52132 1.52132,-1.52132c0.84019,0 1.52132,0.68111 1.52132,1.52132c0,0.84019 -0.68111,1.52132 -1.52132,1.52132c-0.84019,0 -1.52132,-0.68111 -1.52132,-1.52132z" fill="#ffffff" stroke="none" stroke-width="3" stroke-linecap="butt"/><path d="M247.19863,153.55603c-0.78406,-0.24634 -1.52107,-0.53595 -2.19976,-0.8605" fill="none" stroke="#000000" stroke-width="3" stroke-linecap="butt"/><path d="M235.89627,169.27966c0,0 -14.9804,-4.49575 -14.0976,-7.21575c-1.96485,-6.55816 2.88571,-26.02898 2.88571,-26.02898" fill="none" stroke="#121212" stroke-width="10" stroke-linecap="round"/><path d="M234.24138,132.64162c0,0 0.14889,1.8151 0.26187,2.80823c0.12371,1.08755 0.7052,2.93745 0.7052,2.93745l-5.67041,0.26652c0,0 -1.68457,-2.02264 -1.70239,-3.13848c-0.01591,-0.99624 -0.03725,-2.96171 -0.03725,-2.96171z" fill="#000000" stroke="#000000" stroke-width="0.5" stroke-linecap="butt"/><path d="M242.19943,108.53342c4.26635,0.73913 3.98283,-4.75337 7.2017,-1.44825c3.68263,3.79034 4.96356,13.0895 5.24012,19.35764c-0.9874,4.90049 -0.4449,4.71907 -5.68389,6.08957c-4.56897,1.02206 -11.34523,1.92277 -15.99255,1.83006c-0.36332,-0.00724 -1.1367,-0.00211 -1.32301,-0.04891c-3.35314,-2.11221 -4.1698,-3.2105 -5.20544,-6.36868c-0.10616,-0.32397 -0.74642,-6.32074 0.08293,-10.02946c0.77863,-4.01404 -0.66853,-3.96143 1.78687,-6.71283c1.82369,-2.04444 6.80564,-1.19171 9.19967,-0.77433z" fill="#3e3e3e" stroke="#000000" stroke-width="1" stroke-linecap="round"/><path d="M248.66002,135.19939c-2.92601,0 -7.49256,-2.51347 -7.49256,-5.81344c0,-1.74284 0.30574,-3.49366 1.02532,-4.83417c0.64289,-1.19766 1.76923,-2.24581 3.14989,-2.24581c1.07765,0 3.11182,-0.03897 4.38128,0.89376c2.17736,1.5998 3.44301,4.80228 3.44301,6.88687c0,0 -1.58094,5.11279 -4.50695,5.11279z" fill="#151515" stroke="#000000" stroke-width="1" stroke-linecap="butt"/><path d="M252.54035,130.25756c0,2.56476 -1.83848,4.64392 -4.10635,4.64392c-2.26788,0 -4.10636,-2.07915 -4.10636,-4.64392c0,-2.56476 1.83848,-4.64391 4.10636,-4.64391c2.26788,0 4.10635,2.07915 4.10635,4.64391z" fill="#313131" stroke="#000000" stroke-width="1" stroke-linecap="butt"/><path d="M249.24456,109.61782c1.30298,0.22714 2.37425,1.09546 3.05097,2.31156c0.67571,1.2202 0.95672,2.7885 0.68263,4.41629c-0.27414,1.62781 -1.05222,3.01143 -2.08859,3.93316c-1.03602,0.9178 -2.33026,1.37336 -3.63323,1.14622c-1.30327,-0.22719 -2.37465,-1.09518 -3.05097,-2.31157c-0.67598,-1.22025 -0.95671,-2.7885 -0.68262,-4.41629c0.27414,-1.62781 1.05187,-3.01152 2.08859,-3.93316c1.03565,-0.91753 2.32994,-1.37343 3.63322,-1.14622z" fill="#000000" stroke="#000000" stroke-width="2" stroke-linecap="butt"/><path d="M250.23729,110.93231c1.06873,0.20143 1.94743,0.97142 2.50247,2.04983c0.55423,1.08204 0.78472,2.47277 0.55991,3.91622c-0.22485,1.44348 -0.86305,2.67043 -1.71311,3.48781c-0.84976,0.81389 -1.91133,1.21785 -2.98005,1.01644c-1.06897,-0.20146 -1.94774,-0.97117 -2.50248,-2.04982c-0.55446,-1.08208 -0.78472,-2.47277 -0.55991,-3.91623c0.22486,-1.44348 0.86276,-2.67052 1.71312,-3.48781c0.84946,-0.81364 1.91108,-1.21792 2.98005,-1.01644z" fill="url(#color-10)" stroke="#000000" stroke-width="2" stroke-linecap="butt"/><path d="M229.11742,113.01982c0,0 0.70531,20.90028 0.09208,20.69666c-0.95399,-0.31679 -0.65146,-1.1366 -2.57773,-1.4533c-1.04015,-0.17101 -3.58777,0.30546 -5.38936,-0.24386c-1.32265,-0.40328 -1.61682,-22.78894 -1.61682,-22.78894c0,0 1.0452,-7.11665 13.39125,-9.36474c14.52498,-0.08153 15.98806,6.63117 15.98806,6.63117c0,0 -2.31806,1.53768 -6.58996,4.43724c-4.25001,2.8847 -10.91328,2.23981 -10.91328,2.23981z" fill="#1e1e1e" stroke="#000000" stroke-width="1.5" stroke-linecap="butt"/><path d="M238.3433,113.62334c1.30298,0.22714 2.37425,1.09545 3.05097,2.31157c0.67571,1.2202 0.95672,2.78851 0.68263,4.41629c-0.27414,1.62781 -1.05222,3.01142 -2.08859,3.93316c-1.03602,0.9178 -2.33025,1.37336 -3.63322,1.14623c-1.30327,-0.22719 -2.37465,-1.09518 -3.05097,-2.31157c-0.67598,-1.22025 -0.95671,-2.78851 -0.68262,-4.41629c0.27414,-1.62781 1.05186,-3.01152 2.08858,-3.93316c1.03565,-0.91753 2.32995,-1.37343 3.63322,-1.14622z" fill="#000000" stroke="#000000" stroke-width="2" stroke-linecap="butt"/><path d="M239.33604,114.93785c1.06873,0.20143 1.94743,0.97142 2.50247,2.04983c0.55423,1.08204 0.78472,2.47277 0.55991,3.91623c-0.22486,1.44348 -0.86305,2.67044 -1.71311,3.48781c-0.84976,0.81389 -1.91133,1.21785 -2.98005,1.01644c-1.06897,-0.20146 -1.94774,-0.97117 -2.50248,-2.04982c-0.55446,-1.08208 -0.78472,-2.47277 -0.55991,-3.91623c0.22486,-1.44348 0.86276,-2.67052 1.71312,-3.48781c0.84946,-0.81364 1.91108,-1.21792 2.98005,-1.01644z" fill="url(#color-11)" stroke="#000000" stroke-width="2" stroke-linecap="butt"/><path d="M243.03887,116.00139c0.77004,1.42157 1.09029,3.24868 0.77794,5.1451c-0.31241,1.89643 -1.19912,3.50839 -2.38019,4.58225c-1.18066,1.06928 -2.65559,1.1394 -4.14046,0.87477c-1.48521,-0.26469 -2.70618,-0.81532 -3.47693,-2.23243c-0.77036,-1.42162 -1.09029,-3.24868 -0.77794,-5.1451c0.31241,-1.89643 1.19872,-3.39335 2.3802,-4.46709c1.18024,-1.06894 2.65525,-1.02435 4.14047,-0.75963c0,0 2.70573,0.58535 3.47692,2.00214z" fill="url(#color-12)" stroke="#000000" stroke-width="0" stroke-linecap="butt"/><path d="M253.61654,112.02053c0.71348,1.43689 1.0102,3.28371 0.72079,5.20054c-0.28946,1.91687 -1.11102,3.54621 -2.20533,4.63162c-1.09392,1.08079 -2.46051,1.15167 -3.83629,0.8842c-1.37611,-0.26754 -2.50738,-0.8241 -3.22149,-2.25648c-0.71377,-1.43695 -1.0102,-3.28371 -0.72079,-5.20055c0.28946,-1.91687 1.11065,-3.42992 2.20534,-4.51523c1.09354,-1.08047 2.46017,-1.03539 3.83629,-0.76781c0,0 2.50697,0.59165 3.22149,2.02371z" fill="url(#color-13)" stroke="#000000" stroke-width="0" stroke-linecap="butt"/><path d="M227.01168,110.75837l-0.9632,-0.9632" fill="none" stroke="#000000" stroke-width="1" stroke-linecap="round"/><path d="M226.18608,110.75837l0.9632,-1.10081" fill="none" stroke="#000000" stroke-width="1" stroke-linecap="round"/><path d="M241.28722,103.68702l0.68466,1.1776" fill="none" stroke="#000000" stroke-width="1" stroke-linecap="round"/><path d="M242.00131,103.72561l-1.21282,0.81767" fill="none" stroke="#000000" stroke-width="1" stroke-linecap="round"/><path d="M230.34664,160.73333v-2.84375h2.56855v2.84375z" fill="#000000" stroke="none" stroke-width="0" stroke-linecap="butt"/><g><path d="M248.55518,162.22304c0,0 0,-2.41236 0,-3.25097c0,-0.5699 0.62661,-1.29377 1.23858,-1.29377c0.88018,0 3.28299,0 4.69361,0c0.58567,0 1.10822,0.89851 1.10822,1.5068c0,0.83413 0,3.03793 0,3.03793z" fill="#282828" stroke="none" stroke-width="0" stroke-linecap="butt"/><path d="M240.21646,168.28634v-3.88876h4.07279v3.88876z" fill="#505050" stroke="none" stroke-width="0" stroke-linecap="butt"/><path d="M240.00072,162.30008c0,0 0,-2.54394 0,-3.39496c0,-0.49582 0.78876,-1.24962 1.38369,-1.24962c0.82359,0 2.99105,0 4.41462,0c0.73343,0 1.31781,0.7538 1.31781,1.24962c0,0.85102 0,3.39496 0,3.39496z" fill="#282828" stroke="#000000" stroke-width="0.5" stroke-linecap="butt"/><path d="M242.42323,163.37849v-2.619h2.4225v2.619z" fill="#000000" stroke="none" stroke-width="0" stroke-linecap="butt"/><path d="M253.71951,153.58325c-0.46781,0.50251 -1.07166,0.8767 -1.75291,1.06389" fill="none" stroke="#ff9319" stroke-width="3" stroke-linecap="butt"/><path d="M249.95064,156.30802c-0.78406,-0.24634 -1.52107,-0.53595 -2.19976,-0.8605" fill="none" stroke="#000000" stroke-width="3" stroke-linecap="butt"/><path d="M254.85031,178.53789c0,0 -1.05205,-1.81191 -2.19025,-3.51573c-0.87374,-1.30795 -1.34289,-3.04692 -1.48391,-3.45811c-0.24021,-0.70045 -0.91748,-9.33488 -0.91748,-9.33488c0,0 6.46401,0.18339 7.68212,0.04735c0.395,-0.04411 0.67455,4.53577 0.67455,4.53577c0,0 0.31868,2.13935 0.66212,2.99715c0.15244,0.38077 0.34463,1.53089 0.87335,2.26954c1.03884,1.45134 2.21235,3.73794 2.21235,3.73794z" fill="url(#color-14)" stroke="#000000" stroke-width="1" stroke-linecap="butt"/><path d="M236.82333,153.57788v-1.43162h21.62838v1.43162z" fill="#888888" stroke="#000000" stroke-width="0.5" stroke-linecap="butt"/><path d="M298.56662,158.35412l-19.45147,-0.03003v-2.63668h19.57269z" fill="#888888" stroke="#000000" stroke-width="1" stroke-linecap="round"/><path d="M236.56545,160.65946v-7.33598h23.36854v7.33599z" fill="url(#color-15)" stroke="#000000" stroke-width="1" stroke-linecap="butt"/><path d="M250.46653,162.40356l-0.11008,-2.81194h8.15912l-0.25804,2.74753z" fill="#767676" stroke="#000000" stroke-width="1.5" stroke-linecap="butt"/><path d="M240.17188,164.39891c0,0 0.31035,-1.00985 -0.5626,-1.54838c-0.83695,-0.51631 -2.48884,-0.10652 -2.48884,-0.46619c0,-0.79069 0,-2.46225 0,-2.46225h14.14759v4.58874z" fill="url(#color-16)" stroke="#000000" stroke-width="1" stroke-linecap="butt"/><path d="M244.57924,168.07876v-3.65544h5.91627c0,0 0,1.65832 0,2.32592c0,0.50474 -1.21355,1.32952 -1.98796,1.32952c-1.0886,0 -3.92832,0 -3.92832,0z" fill="none" stroke="#000000" stroke-width="2" stroke-linecap="butt"/><path d="M249.90422,158.89046v-3.11101h8.05984v3.11101z" fill="#000000" stroke="none" stroke-width="0" stroke-linecap="butt"/><path d="M248.01787,163.46426v-2.4888h2.31506v2.4888z" fill="none" stroke="#000000" stroke-width="1" stroke-linecap="butt"/><path d="M250.01139,162.21987c0,0.47249 -0.36949,0.85553 -0.82528,0.85553c-0.45579,0 -0.82528,-0.38303 -0.82528,-0.85553c0,-0.47249 0.36948,-0.85553 0.82528,-0.85553c0.45579,0 0.82528,0.38303 0.82528,0.85553z" fill="#9e9e9e" stroke="none" stroke-width="0" stroke-linecap="butt"/><path d="M258.80608,154.64707l-20.9213,0.15555" fill="none" stroke="#000000" stroke-width="0.75" stroke-linecap="round"/><path d="M244.24517,161.81213c0,0.57988 -0.55664,1.04996 -1.24327,1.04996c-0.68664,0 -1.24327,-0.47008 -1.24327,-1.04996c0,-0.57988 0.55663,-1.04996 1.24327,-1.04996c0.68664,0 1.24327,0.47008 1.24327,1.04996z" fill="#858585" stroke="none" stroke-width="0" stroke-linecap="butt"/><path d="M237.98594,158.79776v-2.79991h7.71687c0,0 1.54337,0.94698 1.54337,1.39996c0,0.47888 -1.54337,1.39995 -1.54337,1.39995z" fill="#c7c7c7" stroke="#000000" stroke-width="0.5" stroke-linecap="butt"/><path d="M237.46445,158.56231v-2.25548h0.85744v2.25548z" fill="#888888" stroke="#000000" stroke-width="1" stroke-linecap="butt"/><path d="M246.13154,164.55313h1.8006c0,0 -0.34296,0.92101 -0.34296,1.39996c0,0.50486 0.34296,1.5555 0.34296,1.5555c0,0 -1.48287,-0.71548 -1.78783,-1.21602c-0.29492,-0.48407 -0.01278,-1.73945 -0.01278,-1.73945z" fill="#5b5b5b" stroke="none" stroke-width="0" stroke-linecap="butt"/><path d="M260.22146,159.58823v-5.18993h1.41748v5.18993z" fill="#5b5b5b" stroke="#000000" stroke-width="1.5" stroke-linecap="butt"/><path d="M298.51247,158.86336v-3.54901h4.75379c0,0 0.44663,1.25791 0.44663,1.86349c0,0.57594 -0.44663,1.68552 -0.44663,1.68552z" fill="#393939" stroke="#000000" stroke-width="1.5" stroke-linecap="butt"/><path d="M279.86863,159.88583v-4.19482h1.66337v4.19482z" fill="#000000" stroke="#000000" stroke-width="0.5" stroke-linecap="butt"/><path d="M283.40325,159.92861v-10.34099h1.66337v10.34099z" fill="#000000" stroke="#000000" stroke-width="0.5" stroke-linecap="butt"/><path d="M279.97305,154.60534l5.13969,0.03633l-0.02921,1.15294l-5.13969,-0.03633z" fill="#000000" stroke="#000000" stroke-width="0.5" stroke-linecap="butt"/><path d="M279.84292,154.55321l3.49004,-4.42846l0.09204,1.44639l-1.92901,2.98206z" fill="#000000" stroke="#000000" stroke-width="0.5" stroke-linecap="butt"/><path d="M235.99927,153.60623v-1.21747h3.46735v1.21747z" fill="#000000" stroke="none" stroke-width="0" stroke-linecap="butt"/><path d="M261.77657,160.23708v-6.21148h18.20086v6.21148z" fill="#4d4d4d" stroke="#000000" stroke-width="1" stroke-linecap="butt"/><path d="M235.18273,160.20268v-6.74711h1.94647v6.74711z" fill="#222222" stroke="#000000" stroke-width="1" stroke-linecap="butt"/><path d="M212.47447,167.61156c-0.02148,-1.12356 -0.80816,-13.76697 -0.80816,-13.76697l21.63492,-0.20858v5.82264c0,0 -2.74067,-0.38233 -6.22941,-0.27495c-2.39252,0.07364 -5.13685,0.37759 -7.59034,1.19309c-2.29401,0.76249 -4.43226,7.25941 -5.31892,7.49436c-0.33409,0.08853 -1.68775,-0.24182 -1.68809,-0.2596z" fill="#3a3a3a" stroke="#000000" stroke-width="1" stroke-linecap="butt"/><path d="M217.42931,165.8672c-0.01171,-0.7517 -0.08951,-8.1986 -0.08951,-8.1986l11.78554,-0.13955l-0.17537,4.16066c0,0 -3.83361,-0.09064 -7.11907,0.19009c-0.95737,1.30548 -2.81415,4.21637 -3.29714,4.37356c-0.182,0.05923 -1.10427,-0.37426 -1.10445,-0.38616z" fill="#303030" stroke="#000000" stroke-width="1" stroke-linecap="butt"/><path d="M237.23253,152.25231v-2.12093h5.90396v2.12093z" fill="#888888" stroke="#000000" stroke-width="1" stroke-linecap="butt"/><path d="M239.43002,151.43962c0,0.4412 -0.3943,0.79886 -0.88069,0.79886c-0.48639,0 -0.88069,-0.35766 -0.88069,-0.79885c0,-0.4412 0.3943,-0.79885 0.88069,-0.79885c0.48639,0 0.88069,0.35765 0.88069,0.79885z" fill="#575757" stroke="#000000" stroke-width="1" stroke-linecap="butt"/><path d="M238.81081,150.18441v-2.27999h0.80024v2.27999z" fill="#575757" stroke="#000000" stroke-width="1" stroke-linecap="butt"/><path d="M243.13075,152.17226v-0.55043h1.42104v0.55043z" fill="#575757" stroke="#000000" stroke-width="0.5" stroke-linecap="butt"/><path d="M245.34924,152.1155v-0.55043h1.42104v0.55043z" fill="#575757" stroke="#000000" stroke-width="0.5" stroke-linecap="butt"/><path d="M247.82043,152.16171v-0.55043h1.42105v0.55043z" fill="#575757" stroke="#000000" stroke-width="0.5" stroke-linecap="butt"/><path d="M250.03891,152.15118v-0.55043h1.42105v0.55043z" fill="#575757" stroke="#000000" stroke-width="0.5" stroke-linecap="butt"/><path d="M252.22883,152.15118v-0.55043h1.42104v0.55043z" fill="#575757" stroke="#000000" stroke-width="0.5" stroke-linecap="butt"/><path d="M254.44731,152.14063v-0.55044h1.42104v0.55044z" fill="#575757" stroke="#000000" stroke-width="0.5" stroke-linecap="butt"/><path d="M256.67739,152.15885v-0.55044h1.42104v0.55044z" fill="#575757" stroke="#000000" stroke-width="0.5" stroke-linecap="butt"/><path d="M253.74962,164.77781v-3.23523h1.73316v3.23523z" fill="#585858" stroke="#000000" stroke-width="1.5" stroke-linecap="butt"/><path d="M233.3494,159.33214v-5.23374h2.36358v5.23374z" fill="#c7c7c7" stroke="#000000" stroke-width="1" stroke-linecap="butt"/><path d="M234.57857,174.82435l5.75743,-10.46336c0,0 2.89065,-0.0676 3.72495,0.17218c0.82694,0.23768 0.4884,3.35182 0.4884,3.35182l-4.65145,8.66832z" fill="#262626" stroke="#000000" stroke-width="1.5" stroke-linecap="butt"/></g><path d="M265.46819,157.87172l0.83837,-0.88135" fill="none" stroke="#121212" stroke-width="10" stroke-linecap="round"/><path d="M261.4157,155.30398c0,-2.4441 0.72338,-3.65658 3.06319,-3.65658c1.19357,0 4.04983,-0.10247 5.05245,0.46163c0.96287,0.54173 1.19269,2.54246 1.19269,3.7398c0,2.4441 -2.57784,3.60818 -4.91767,3.60818c-2.33982,0 -4.39067,-1.70892 -4.39067,-4.15302z" fill="#000000" stroke="url(#color-17)" stroke-width="0" stroke-linecap="butt"/><path d="M234.3811,163.43954c1.00885,-1.24061 1.90851,0.48375 3.43209,0.48375c3.28279,0 2.96852,-0.22963 2.96852,2.42447c0,2.65408 0.60202,5.6394 -2.68076,5.6394c-0.08447,0 -7.24362,1.77205 -7.24362,0.01506c0,0 2.35889,-7.13019 3.52378,-8.56269z" fill="#000000" stroke="url(#color-18)" stroke-width="0" stroke-linecap="butt"/><g stroke="#000000" stroke-width="1" stroke-linecap="butt"><path d="M231.32762,150.85036c0,-1.20307 0.0628,-6.19616 0.0628,-6.19616h5.40093c0,0 0,4.96414 0,6.19616c0,0.5374 -0.48154,1.10201 -1.06762,1.10201c-1.12983,0 -2.81873,-0.05571 -3.39128,-0.05571c-0.33301,0 -1.00482,-0.55191 -1.00482,-1.0463z" fill="url(#color-19)"/><path d="M230.88801,146.65979c0,0 0,-1.99513 0,-2.56792c0,-0.26407 0.56452,-0.7335 1.0467,-0.7335c0.78925,0 3.11116,0 4.3612,0c0.45758,0 0.87224,0.48405 0.87224,0.78508c0,0.58998 0,2.51634 0,2.51634z" fill="#282828"/></g></g></g></svg>