<svg version="1.1" xmlns="http://www.w3.org/2000/svg" xmlns:xlink="http://www.w3.org/1999/xlink" width="567.66236" height="366.81271" viewBox="0,0,567.66236,366.81271"><defs><linearGradient x1="104.33263" y1="334.37371" x2="104.33263" y2="356.00774" gradientUnits="userSpaceOnUse" id="color-1"><stop offset="0" stop-color="#363636"/><stop offset="1" stop-color="#303030"/></linearGradient><radialGradient cx="277.13088" cy="289.95872" r="29.91667" gradientUnits="userSpaceOnUse" id="color-2"><stop offset="0" stop-color="#1629ff"/><stop offset="1" stop-color="#1629ff" stop-opacity="0"/></radialGradient><radialGradient cx="298.7202" cy="278.8887" r="36.52381" gradientUnits="userSpaceOnUse" id="color-3"><stop offset="0" stop-color="#ff1414"/><stop offset="1" stop-color="#ff1414" stop-opacity="0"/></radialGradient><linearGradient x1="188.49571" y1="141.6195" x2="188.49571" y2="162.26678" gradientUnits="userSpaceOnUse" id="color-4"><stop offset="0" stop-color="#363636"/><stop offset="1" stop-color="#303030"/></linearGradient><linearGradient x1="10.83457" y1="50.56335" x2="10.83457" y2="72.89669" gradientUnits="userSpaceOnUse" id="color-5"><stop offset="0" stop-color="#d80202"/><stop offset="1" stop-color="#9a0202"/></linearGradient><linearGradient x1="10.58455" y1="21.81335" x2="10.58455" y2="44.14669" gradientUnits="userSpaceOnUse" id="color-6"><stop offset="0" stop-color="#d80202"/><stop offset="1" stop-color="#9a0202"/></linearGradient><linearGradient x1="5.69731" y1="44.08952" x2="5.69731" y2="50.55699" gradientUnits="userSpaceOnUse" id="color-7"><stop offset="0" stop-color="#1a1a1a"/><stop offset="1" stop-color="#242424"/></linearGradient><linearGradient x1="87.19171" y1="133.06335" x2="87.19171" y2="155.39669" gradientUnits="userSpaceOnUse" id="color-8"><stop offset="0" stop-color="#d80202"/><stop offset="1" stop-color="#9a0202"/></linearGradient><linearGradient x1="-3.99334" y1="132.94776" x2="-3.99334" y2="144.56781" gradientUnits="userSpaceOnUse" id="color-9"><stop offset="0" stop-color="#1a1a1a"/><stop offset="1" stop-color="#242424"/></linearGradient><linearGradient x1="87.26313" y1="161.70621" x2="87.26313" y2="184.03955" gradientUnits="userSpaceOnUse" id="color-10"><stop offset="0" stop-color="#d80202"/><stop offset="1" stop-color="#9a0202"/></linearGradient><linearGradient x1="87.38813" y1="184.33121" x2="87.38813" y2="206.66455" gradientUnits="userSpaceOnUse" id="color-11"><stop offset="0" stop-color="#d80202"/><stop offset="1" stop-color="#9a0202"/></linearGradient><linearGradient x1="390.81678" y1="161.75978" x2="390.81678" y2="184.09312" gradientUnits="userSpaceOnUse" id="color-12"><stop offset="0" stop-color="#d80202"/><stop offset="1" stop-color="#9a0202"/></linearGradient><linearGradient x1="390.81678" y1="184.3312" x2="390.81678" y2="206.66454" gradientUnits="userSpaceOnUse" id="color-13"><stop offset="0" stop-color="#d80202"/><stop offset="1" stop-color="#9a0202"/></linearGradient><linearGradient x1="92.60667" y1="155.3691" x2="92.60667" y2="161.52339" gradientUnits="userSpaceOnUse" id="color-14"><stop offset="0" stop-color="#1a1a1a"/><stop offset="1" stop-color="#242424"/></linearGradient><linearGradient x1="239.04907" y1="161.80429" x2="239.04907" y2="173.42434" gradientUnits="userSpaceOnUse" id="color-15"><stop offset="0" stop-color="#1a1a1a"/><stop offset="1" stop-color="#242424"/></linearGradient><linearGradient x1="239.07998" y1="194.8519" x2="239.07998" y2="206.47195" gradientUnits="userSpaceOnUse" id="color-16"><stop offset="0" stop-color="#1a1a1a"/><stop offset="1" stop-color="#242424"/></linearGradient><linearGradient x1="159.65004" y1="279.92644" x2="159.65004" y2="302.25978" gradientUnits="userSpaceOnUse" id="color-17"><stop offset="0" stop-color="#d80202"/><stop offset="1" stop-color="#9a0202"/></linearGradient><linearGradient x1="211.35006" y1="279.84073" x2="211.35006" y2="302.17407" gradientUnits="userSpaceOnUse" id="color-18"><stop offset="0" stop-color="#d80202"/><stop offset="1" stop-color="#9a0202"/></linearGradient><linearGradient x1="211.27862" y1="336.69787" x2="211.27862" y2="359.03121" gradientUnits="userSpaceOnUse" id="color-19"><stop offset="0" stop-color="#d80202"/><stop offset="1" stop-color="#9a0202"/></linearGradient><linearGradient x1="453.76438" y1="336.68285" x2="453.76438" y2="359.01619" gradientUnits="userSpaceOnUse" id="color-20"><stop offset="0" stop-color="#d80202"/><stop offset="1" stop-color="#9a0202"/></linearGradient><linearGradient x1="453.71894" y1="50.6374" x2="453.71894" y2="72.97074" gradientUnits="userSpaceOnUse" id="color-21"><stop offset="0" stop-color="#d80202"/><stop offset="1" stop-color="#9a0202"/></linearGradient><linearGradient x1="232.30127" y1="61.19468" x2="232.30127" y2="72.81473" gradientUnits="userSpaceOnUse" id="color-22"><stop offset="0" stop-color="#1a1a1a"/><stop offset="1" stop-color="#242424"/></linearGradient><linearGradient x1="448.49475" y1="72.99871" x2="448.49475" y2="336.65227" gradientUnits="userSpaceOnUse" id="color-23"><stop offset="0" stop-color="#1a1a1a"/><stop offset="1" stop-color="#242424"/></linearGradient><linearGradient x1="332.53227" y1="336.70615" x2="332.53227" y2="348.3262" gradientUnits="userSpaceOnUse" id="color-24"><stop offset="0" stop-color="#1a1a1a"/><stop offset="1" stop-color="#242424"/></linearGradient><linearGradient x1="185.49656" y1="279.849" x2="185.49656" y2="291.46905" gradientUnits="userSpaceOnUse" id="color-25"><stop offset="0" stop-color="#1a1a1a"/><stop offset="1" stop-color="#242424"/></linearGradient><linearGradient x1="216.61963" y1="302.25266" x2="216.61963" y2="336.68078" gradientUnits="userSpaceOnUse" id="color-26"><stop offset="0" stop-color="#1a1a1a"/><stop offset="1" stop-color="#242424"/></linearGradient><linearGradient x1="181.33752" y1="127.35439" x2="181.33752" y2="160.62106" gradientUnits="userSpaceOnUse" id="color-27"><stop offset="0" stop-color="#363636"/><stop offset="1" stop-color="#303030"/></linearGradient><linearGradient x1="431.75605" y1="216.98027" x2="431.75605" y2="222.48027" gradientUnits="userSpaceOnUse" id="color-28"><stop offset="0" stop-color="#363636"/><stop offset="1" stop-color="#303030"/></linearGradient><radialGradient cx="276.67744" cy="289.6972" r="7.07143" gradientUnits="userSpaceOnUse" id="color-29"><stop offset="0" stop-color="#6270ee"/><stop offset="1" stop-color="#2a3de8"/></radialGradient><radialGradient cx="298.64874" cy="279.03156" r="7.80358" gradientUnits="userSpaceOnUse" id="color-30"><stop offset="0" stop-color="#ff4d4d"/><stop offset="1" stop-color="#ff0000"/></radialGradient><linearGradient x1="382.46137" y1="258.70723" x2="382.46137" y2="275.66822" gradientUnits="userSpaceOnUse" id="color-31"><stop offset="0" stop-color="#363636"/><stop offset="1" stop-color="#303030"/></linearGradient><linearGradient x1="92.56676" y1="206.81934" x2="92.56676" y2="360.33004" gradientUnits="userSpaceOnUse" id="color-32"><stop offset="0" stop-color="#1a1a1a"/><stop offset="1" stop-color="#242424"/></linearGradient><linearGradient x1="154.40009" y1="302.49502" x2="154.40009" y2="363.75572" gradientUnits="userSpaceOnUse" id="color-33"><stop offset="0" stop-color="#1a1a1a"/><stop offset="1" stop-color="#242424"/></linearGradient></defs><g transform="translate(84.98203,2.05699)"><g data-paper-data="{&quot;isPaintingLayer&quot;:true}" fill-rule="nonzero" stroke-linejoin="miter" stroke-miterlimit="10" stroke-dasharray="" stroke-dashoffset="0" style="mix-blend-mode: normal"><path d="M398.41569,207.41632l6.07459,61.52959" fill="none" stroke="#0d0d0d" stroke-width="3" stroke-linecap="round"/><path d="M393.93929,204.81321l-30.44811,53.23582" fill="none" stroke="#0d0d0d" stroke-width="3" stroke-linecap="round"/><path d="M115.93946,334.37371l-23.21366,21.63403" fill="none" stroke="#000000" stroke-width="8" stroke-linecap="round"/><path d="M115.93946,334.37371l-23.21366,21.63403" fill="none" stroke="url(#color-1)" stroke-width="4" stroke-linecap="round"/><path d="M247.21423,289.95872c0,-16.52252 13.39415,-29.91667 29.91667,-29.91667c16.52252,0 29.91667,13.39415 29.91667,29.91667c0,16.52252 -13.39415,29.91667 -29.91667,29.91667c-16.52252,0 -29.91667,-13.39415 -29.91667,-29.91667z" fill="url(#color-2)" stroke="none" stroke-width="0" stroke-linecap="butt"/><path d="M262.19638,278.8887c0,-20.17154 16.35227,-36.52381 36.52381,-36.52381c20.17154,0 36.52381,16.35227 36.52381,36.52381c0,20.17154 -16.35227,36.52381 -36.52381,36.52381c-20.17154,0 -36.52381,-16.35227 -36.52381,-36.52381z" fill="url(#color-3)" stroke="none" stroke-width="0" stroke-linecap="butt"/><path d="M296.6688,309.68772l-16.5,-16.5" fill="none" stroke="#000000" stroke-width="7" stroke-linecap="round"/><path d="M298.6688,336.18772v-48.928" fill="none" stroke="#000000" stroke-width="8" stroke-linecap="round"/><path d="M281.94158,294.67506l16.84732,16.84732" fill="none" stroke="#333333" stroke-width="3" stroke-linecap="round"/><path d="M298.89581,287.75972v49.678" fill="none" stroke="#333333" stroke-width="4.5" stroke-linecap="round"/><path d="M183.07955,141.48321l10.63693,21.03357" fill="none" stroke="#000000" stroke-width="5" stroke-linecap="round"/><path d="M176.35637,161v-36h10v36z" fill="#000000" stroke="none" stroke-width="0" stroke-linecap="butt"/><path d="M-3.97062,361.43268v-229.5h103.41982v229.5z" data-paper-data="{&quot;index&quot;:null}" fill="#000000" stroke="none" stroke-width="0" stroke-linecap="butt"/><path d="M183.27491,141.6195l10.44157,20.64728" fill="none" stroke="url(#color-4)" stroke-width="2.5" stroke-linecap="round"/><path d="M-1.89599,73.94602v-76.00301h484.0893v76.00301z" data-paper-data="{&quot;index&quot;:null}" fill="#000000" stroke="none" stroke-width="0" stroke-linecap="butt"/><path d="M441.64429,362.43243v-289.78979h41.03604v289.78979z" fill="#000000" stroke="none" stroke-width="0" stroke-linecap="butt"/><path d="M96.7944,207.72973v-47.01502h306.23123v47.01502z" fill="#000000" stroke="none" stroke-width="0" stroke-linecap="butt"/><path d="M420.48143,223.68772v-8h22v8z" fill="#000000" stroke="none" stroke-width="0" stroke-linecap="butt"/><path d="M409.35898,275.66822l-53.79525,-16.96099" fill="none" stroke="#000000" stroke-width="11.5" stroke-linecap="round"/><path d="M147.48129,362.68772v-27h295v27z" fill="#000000" stroke="none" stroke-width="0" stroke-linecap="butt"/><path d="M289.1688,279.00172c0,-5.14398 4.25329,-9.314 9.5,-9.314c5.24671,0 9.5,4.17002 9.5,9.314c0,5.14398 -4.25329,9.314 -9.5,9.314c-5.24671,0 -9.5,-4.17002 -9.5,-9.314z" fill="#000000" stroke="none" stroke-width="0" stroke-linecap="butt"/><path d="M268.1688,289.68772c0,-4.69442 3.80558,-8.5 8.5,-8.5c4.69442,0 8.5,3.80558 8.5,8.5c0,4.69442 -3.80558,8.5 -8.5,8.5c-4.69442,0 -8.5,-3.80558 -8.5,-8.5z" fill="#000000" stroke="#000000" stroke-width="0" stroke-linecap="butt"/><path d="M147.48129,337.31687v-58.5015h76v58.5015z" fill="#000000" stroke="none" stroke-width="0" stroke-linecap="butt"/><path d="M-0.3321,72.89669v-22.33334h22.33334v22.33334z" fill="url(#color-5)" stroke="#000000" stroke-width="2" stroke-linecap="butt"/><path d="M-0.58212,44.14669v-22.33334h22.33334v22.33334z" fill="url(#color-6)" stroke="#000000" stroke-width="2" stroke-linecap="butt"/><path d="M-0.11272,44.08952h11.62005v6.46747h-11.62005z" data-paper-data="{&quot;index&quot;:null}" fill="url(#color-7)" stroke="#000000" stroke-width="2" stroke-linecap="butt"/><path d="M76.02504,155.39669v-22.33334h22.33334v22.33334z" fill="url(#color-8)" stroke="#000000" stroke-width="2" stroke-linecap="butt"/><path d="M75.99534,132.94776v11.62005h-159.97737v-11.62005z" data-paper-data="{&quot;index&quot;:null}" fill="url(#color-9)" stroke="#000000" stroke-width="2" stroke-linecap="butt"/><path d="M76.09646,184.03955v-22.33334h22.33334v22.33334z" fill="url(#color-10)" stroke="#000000" stroke-width="2" stroke-linecap="butt"/><path d="M76.22146,206.66455v-22.33334h22.33334v22.33334z" fill="url(#color-11)" stroke="#000000" stroke-width="2" stroke-linecap="butt"/><path d="M379.65011,184.09312v-22.33334h22.33334v22.33334z" fill="url(#color-12)" stroke="#000000" stroke-width="2" stroke-linecap="butt"/><path d="M379.65011,206.66454v-22.33334h22.33334v22.33334z" fill="url(#color-13)" stroke="#000000" stroke-width="2" stroke-linecap="butt"/><path d="M98.41669,161.52339h-11.62005v-6.15429h11.62005z" data-paper-data="{&quot;index&quot;:null}" fill="url(#color-14)" stroke="#000000" stroke-width="2" stroke-linecap="butt"/><path d="M379.70443,161.80429v11.62005h-281.3107v-11.62005z" data-paper-data="{&quot;index&quot;:null}" fill="url(#color-15)" stroke="#000000" stroke-width="2" stroke-linecap="butt"/><path d="M98.57462,206.47195v-11.62005h281.0107v11.62005z" data-paper-data="{&quot;index&quot;:null}" fill="url(#color-16)" stroke="#000000" stroke-width="2" stroke-linecap="butt"/><path d="M148.48337,302.25978v-22.33334h22.33334v22.33334z" fill="url(#color-17)" stroke="#000000" stroke-width="2" stroke-linecap="butt"/><path d="M200.18339,302.17407v-22.33334h22.33334v22.33334z" fill="url(#color-18)" stroke="#000000" stroke-width="2" stroke-linecap="butt"/><path d="M200.11195,359.03121v-22.33334h22.33334v22.33334z" fill="url(#color-19)" stroke="#000000" stroke-width="2" stroke-linecap="butt"/><path d="M442.59769,359.01619v-22.33334h22.33334v22.33334z" fill="url(#color-20)" stroke="#000000" stroke-width="2" stroke-linecap="butt"/><path d="M442.55225,72.97074v-22.33334h22.33334v22.33334z" fill="url(#color-21)" stroke="#000000" stroke-width="2" stroke-linecap="butt"/><path d="M21.97924,72.81473v-11.62005h420.64404v11.62005z" data-paper-data="{&quot;index&quot;:null}" fill="url(#color-22)" stroke="#000000" stroke-width="2" stroke-linecap="butt"/><path d="M442.68472,72.99871h11.62005v263.65356h-11.62005z" data-paper-data="{&quot;index&quot;:null}" fill="url(#color-23)" stroke="#000000" stroke-width="2" stroke-linecap="butt"/><path d="M442.56775,336.70615v11.62005h-220.07098v-11.62005z" data-paper-data="{&quot;index&quot;:null}" fill="url(#color-24)" stroke="#000000" stroke-width="2" stroke-linecap="butt"/><path d="M200.21061,279.849v11.62005h-29.42812v-11.62005z" data-paper-data="{&quot;index&quot;:null}" fill="url(#color-25)" stroke="#000000" stroke-width="2" stroke-linecap="butt"/><path d="M222.42965,336.68078h-11.62005v-34.42812h11.62005z" data-paper-data="{&quot;index&quot;:null}" fill="url(#color-26)" stroke="#000000" stroke-width="2" stroke-linecap="butt"/><path d="M178.17501,160.62106v-33.26667h6.325v33.26667z" fill="url(#color-27)" stroke="none" stroke-width="0" stroke-linecap="butt"/><path d="M421.71437,222.48027v-5.5h20.08333v5.5z" fill="url(#color-28)" stroke="#000000" stroke-width="1.5" stroke-linecap="butt"/><path d="M269.60603,289.6972c0,-3.90544 3.16598,-7.07143 7.07142,-7.07143c3.90544,0 7.07143,3.16599 7.07143,7.07143c0,3.90544 -3.16599,7.07142 -7.07143,7.07142c-3.90544,0 -7.07142,-3.16598 -7.07142,-7.07142z" fill="url(#color-29)" stroke="none" stroke-width="0" stroke-linecap="butt"/><path d="M290.8452,279.03156c0,-4.3098 3.49377,-7.80357 7.80357,-7.80357c4.3098,0 7.80358,3.49378 7.80358,7.80357c0,4.3098 -3.49378,7.80357 -7.80358,7.80357c-4.3098,0 -7.80357,-3.49377 -7.80357,-7.80357z" fill="url(#color-30)" stroke="none" stroke-width="0" stroke-linecap="butt"/><path d="M409.35898,275.66822l-53.79525,-16.96099" fill="none" stroke="url(#color-31)" stroke-width="6.5" stroke-linecap="round"/><path d="M98.37678,360.33004h-11.62005v-153.5107h11.62005z" data-paper-data="{&quot;index&quot;:null}" fill="url(#color-32)" stroke="#000000" stroke-width="2" stroke-linecap="butt"/><path d="M148.59006,302.49502h11.62005v61.2607h-11.62005z" data-paper-data="{&quot;index&quot;:null}" fill="url(#color-33)" stroke="#000000" stroke-width="2" stroke-linecap="butt"/></g></g></svg>