<svg version="1.1" xmlns="http://www.w3.org/2000/svg" xmlns:xlink="http://www.w3.org/1999/xlink" width="488.21403" height="365.81731" viewBox="0,0,488.21403,365.81731"><defs><radialGradient cx="387.75773" cy="147.52423" r="31.6875" gradientUnits="userSpaceOnUse" id="color-1"><stop offset="0" stop-color="#1494cc"/><stop offset="1" stop-color="#1494cc" stop-opacity="0"/></radialGradient><linearGradient x1="388.27151" y1="148.63006" x2="388.27151" y2="152.00939" gradientUnits="userSpaceOnUse" id="color-2"><stop offset="0" stop-color="#00b4ff"/><stop offset="1" stop-color="#1000ff"/></linearGradient><radialGradient cx="32.39737" cy="164.53625" r="31.6875" gradientUnits="userSpaceOnUse" id="color-3"><stop offset="0" stop-color="#1494cc"/><stop offset="1" stop-color="#1494cc" stop-opacity="0"/></radialGradient><linearGradient x1="32.91115" y1="165.64208" x2="32.91115" y2="169.02141" gradientUnits="userSpaceOnUse" id="color-4"><stop offset="0" stop-color="#00b4ff"/><stop offset="1" stop-color="#1000ff"/></linearGradient><radialGradient cx="174.03401" cy="43.41012" r="31.6875" gradientUnits="userSpaceOnUse" id="color-5"><stop offset="0" stop-color="#1494cc"/><stop offset="1" stop-color="#1494cc" stop-opacity="0"/></radialGradient><linearGradient x1="174.54779" y1="44.51595" x2="174.54779" y2="47.89528" gradientUnits="userSpaceOnUse" id="color-6"><stop offset="0" stop-color="#00b4ff"/><stop offset="1" stop-color="#1000ff"/></linearGradient></defs><g transform="translate(1.87726,2.35942)"><g data-paper-data="{&quot;isPaintingLayer&quot;:true}" fill-rule="nonzero" stroke-linejoin="miter" stroke-miterlimit="10" stroke-dasharray="" stroke-dashoffset="0" style="mix-blend-mode: normal"><path d="M70.90801,225.84389l4.72619,-3.15254l-0.47619,8.55872l-3.53572,1.58111l-2.80444,0.01407c0,0 2.05369,-1.28492 2.05642,-1.71362c0.00879,-1.37759 0.03374,-5.28775 0.03374,-5.28775z" data-paper-data="{&quot;index&quot;:null}" fill="#262626" stroke="#101010" stroke-width="2.5" stroke-linecap="butt"/><path d="M-0.78005,362.67339v-72.9985h123.5v72.9985z" fill="#000000" stroke="#000000" stroke-width="0" stroke-linecap="butt"/><path d="M113.88957,135.35278l1.62687,-5.12687l31.69786,25.69786l-3.37687,3.37687z" data-paper-data="{&quot;index&quot;:null}" fill="#242424" stroke="#000000" stroke-width="2.5" stroke-linecap="butt"/><path d="M235.80744,174.17421v182.94977h-109.23906v-182.94977z" data-paper-data="{&quot;index&quot;:null}" fill="#000000" stroke="#000000" stroke-width="10" stroke-linecap="butt"/><path d="M237.24728,357.67485v-26.5h113.5v26.5z" fill="#000000" stroke="#000000" stroke-width="10" stroke-linecap="butt"/><path d="M228.3149,113.66837v-110.44977h109.23906v110.44977z" fill="#000000" stroke="#000000" stroke-width="10" stroke-linecap="butt"/><path d="M352.40569,358.4579v-163.13604h126.43684v163.13604z" fill="#000000" stroke="#000000" stroke-width="10" stroke-linecap="butt"/><path d="M331.31264,208.66275c0,0 0,-14.77828 0,-18.41995c0,-1.41064 2.59167,-4.08005 4.21172,-4.08005c3.79564,0 18.28828,0 18.28828,0v22.5z" fill="#0b0b0b" stroke="#000000" stroke-width="2.5" stroke-linecap="butt"/><path d="M448.30105,193.38893v-7.21049h31.42857v7.21049z" fill="#242424" stroke="#000000" stroke-width="2.5" stroke-linecap="butt"/><path d="M416.80106,193.42627v-7.21049h31.42857v7.21049z" fill="#242424" stroke="#000000" stroke-width="2.5" stroke-linecap="butt"/><path d="M432.58677,200.65361v-7.2105h31.42857v7.2105z" fill="#242424" stroke="#000000" stroke-width="2.5" stroke-linecap="butt"/><path d="M464.1582,200.15361v-7.2105h20.92857v7.2105z" fill="#242424" stroke="#000000" stroke-width="2.5" stroke-linecap="butt"/><path d="M385.42606,193.42628v-7.2105h31.42857v7.2105z" fill="#242424" stroke="#000000" stroke-width="2.5" stroke-linecap="butt"/><path d="M401.08677,200.65361v-7.2105h31.42857v7.2105z" fill="#242424" stroke="#000000" stroke-width="2.5" stroke-linecap="butt"/><path d="M369.92011,200.65361v-7.2105h31.42857v7.2105z" fill="#242424" stroke="#000000" stroke-width="2.5" stroke-linecap="butt"/><path d="M353.72011,200.57777v-7.2105h16.12857v7.2105z" fill="#242424" stroke="#000000" stroke-width="2.5" stroke-linecap="butt"/><path d="M479.80105,193.38893v-7.21049h3.92857v7.21049z" fill="#242424" stroke="#000000" stroke-width="2.5" stroke-linecap="butt"/><path d="M331.26545,216.01411v-7.2105h16.12857v7.2105z" fill="#242424" stroke="#000000" stroke-width="2.5" stroke-linecap="butt"/><path d="M331.26545,223.28685v-7.2105h16.12857v7.2105z" fill="#242424" stroke="#000000" stroke-width="2.5" stroke-linecap="butt"/><path d="M331.26545,230.55959v-7.2105h16.12857v7.2105z" fill="#242424" stroke="#000000" stroke-width="2.5" stroke-linecap="butt"/><path d="M331.26545,237.83226v-7.2105h16.12857v7.2105z" fill="#242424" stroke="#000000" stroke-width="2.5" stroke-linecap="butt"/><path d="M331.17456,245.01411v-7.2105h16.12857v7.2105z" fill="#242424" stroke="#000000" stroke-width="2.5" stroke-linecap="butt"/><path d="M331.17456,252.28685v-7.2105h16.12857v7.2105z" fill="#242424" stroke="#000000" stroke-width="2.5" stroke-linecap="butt"/><path d="M331.17456,259.5596v-7.2105h16.12857v7.2105z" fill="#242424" stroke="#000000" stroke-width="2.5" stroke-linecap="butt"/><path d="M331.17456,266.83225v-7.2105h16.12857v7.2105z" fill="#242424" stroke="#000000" stroke-width="2.5" stroke-linecap="butt"/><path d="M331.22382,274.1391v-7.2105h16.12857v7.2105z" fill="#242424" stroke="#000000" stroke-width="2.5" stroke-linecap="butt"/><path d="M331.22382,281.41186v-7.2105h16.12857v7.2105z" fill="#242424" stroke="#000000" stroke-width="2.5" stroke-linecap="butt"/><path d="M331.22382,288.6846v-7.2105h16.12857v7.2105z" fill="#242424" stroke="#000000" stroke-width="2.5" stroke-linecap="butt"/><path d="M331.22382,295.95725v-7.2105h16.12857v7.2105z" fill="#242424" stroke="#000000" stroke-width="2.5" stroke-linecap="butt"/><path d="M331.13286,303.1391v-7.2105h16.12857v7.2105z" fill="#242424" stroke="#000000" stroke-width="2.5" stroke-linecap="butt"/><path d="M331.13286,310.41186v-7.2105h16.12857v7.2105z" fill="#242424" stroke="#000000" stroke-width="2.5" stroke-linecap="butt"/><path d="M331.13286,317.6846v-7.2105h16.12857v7.2105z" fill="#242424" stroke="#000000" stroke-width="2.5" stroke-linecap="butt"/><path d="M426.76125,95.7045v-93.06392h51.23178v93.06392z" fill="#000000" stroke="#000000" stroke-width="10" stroke-linecap="butt"/><path d="M436.27107,84.37392v22.5c0,0 -14.49264,0 -18.28828,0c-1.62005,0 -4.21172,-2.66941 -4.21172,-4.08005c0,-3.64167 0,-18.41995 0,-18.41995z" data-paper-data="{&quot;index&quot;:null}" fill="#0b0b0b" stroke="#000000" stroke-width="2.5" stroke-linecap="butt"/><path d="M484.31297,99.61039v7.2105h-16.42857v-7.2105z" data-paper-data="{&quot;index&quot;:null}" fill="#242424" stroke="#000000" stroke-width="2.5" stroke-linecap="butt"/><path d="M467.80646,99.65968v7.21049h-31.42857v-7.21049z" data-paper-data="{&quot;index&quot;:null}" fill="#242424" stroke="#000000" stroke-width="2.5" stroke-linecap="butt"/><path d="M483.80701,92.38305v7.2105h-31.42857v-7.2105z" data-paper-data="{&quot;index&quot;:null}" fill="#242424" stroke="#000000" stroke-width="2.5" stroke-linecap="butt"/><path d="M452.30701,92.45895v7.2105h-16.12857v-7.2105z" data-paper-data="{&quot;index&quot;:null}" fill="#242424" stroke="#000000" stroke-width="2.5" stroke-linecap="butt"/><path d="M350.71652,108.47393c0,0 0,14.77828 0,18.41995c0,1.41064 -2.59167,4.08005 -4.21172,4.08005c-3.79564,0 -18.28828,0 -18.28828,0v-22.5z" data-paper-data="{&quot;index&quot;:null}" fill="#0b0b0b" stroke="#000000" stroke-width="2.5" stroke-linecap="butt"/><path d="M265.22818,123.71041v7.21049h-31.42857v-7.21049z" data-paper-data="{&quot;index&quot;:null}" fill="#242424" stroke="#000000" stroke-width="2.5" stroke-linecap="butt"/><path d="M296.60318,123.71041v7.2105h-31.42857v-7.2105z" data-paper-data="{&quot;index&quot;:null}" fill="#242424" stroke="#000000" stroke-width="2.5" stroke-linecap="butt"/><path d="M328.10971,123.75968v7.21049h-31.42857v-7.21049z" data-paper-data="{&quot;index&quot;:null}" fill="#242424" stroke="#000000" stroke-width="2.5" stroke-linecap="butt"/><path d="M280.60913,116.48306v7.2105h-30.59524v-7.2105z" data-paper-data="{&quot;index&quot;:null}" fill="#242424" stroke="#000000" stroke-width="2.5" stroke-linecap="butt"/><path d="M312.10911,116.48306v7.2105h-31.42857v-7.2105z" data-paper-data="{&quot;index&quot;:null}" fill="#242424" stroke="#000000" stroke-width="2.5" stroke-linecap="butt"/><path d="M328.30913,116.55895v7.2105h-16.12857v-7.2105z" data-paper-data="{&quot;index&quot;:null}" fill="#242424" stroke="#000000" stroke-width="2.5" stroke-linecap="butt"/><path d="M350.76371,101.12259v7.2105h-16.12857v-7.2105z" data-paper-data="{&quot;index&quot;:null}" fill="#242424" stroke="#000000" stroke-width="2.5" stroke-linecap="butt"/><path d="M350.76371,93.84987v7.2105h-16.12857v-7.2105z" data-paper-data="{&quot;index&quot;:null}" fill="#242424" stroke="#000000" stroke-width="2.5" stroke-linecap="butt"/><path d="M350.76371,86.57713v7.2105h-16.12857v-7.2105z" data-paper-data="{&quot;index&quot;:null}" fill="#242424" stroke="#000000" stroke-width="2.5" stroke-linecap="butt"/><path d="M350.76371,79.30439v7.2105h-16.12857v-7.2105z" data-paper-data="{&quot;index&quot;:null}" fill="#242424" stroke="#000000" stroke-width="2.5" stroke-linecap="butt"/><path d="M350.85463,72.12258v7.2105h-16.12857v-7.2105z" data-paper-data="{&quot;index&quot;:null}" fill="#242424" stroke="#000000" stroke-width="2.5" stroke-linecap="butt"/><path d="M350.85463,64.84985v7.2105h-16.12857v-7.2105z" data-paper-data="{&quot;index&quot;:null}" fill="#242424" stroke="#000000" stroke-width="2.5" stroke-linecap="butt"/><path d="M350.85463,57.57713v7.2105h-16.12857v-7.2105z" data-paper-data="{&quot;index&quot;:null}" fill="#242424" stroke="#000000" stroke-width="2.5" stroke-linecap="butt"/><path d="M350.85463,50.30442v7.2105h-16.12857v-7.2105z" data-paper-data="{&quot;index&quot;:null}" fill="#242424" stroke="#000000" stroke-width="2.5" stroke-linecap="butt"/><path d="M350.80537,42.99758v7.2105h-16.12857v-7.2105z" data-paper-data="{&quot;index&quot;:null}" fill="#242424" stroke="#000000" stroke-width="2.5" stroke-linecap="butt"/><path d="M350.80537,35.72486v7.2105h-16.12857v-7.2105z" data-paper-data="{&quot;index&quot;:null}" fill="#242424" stroke="#000000" stroke-width="2.5" stroke-linecap="butt"/><path d="M350.82354,28.45214v7.2105h-16.12857v-7.2105z" data-paper-data="{&quot;index&quot;:null}" fill="#242424" stroke="#000000" stroke-width="2.5" stroke-linecap="butt"/><path d="M331.12307,332.30539v-14.58333h16.08333c0,0 0,7.40238 0,10.08744c0,1.64133 -3.16895,4.4959 -4.875,4.4959c-2.94479,0 -11.20833,0 -11.20833,0z" fill="#0b0b0b" stroke="#000000" stroke-width="2.5" stroke-linecap="butt"/><path d="M249.84247,116.51453v7.2105h-16.12857v-7.2105z" data-paper-data="{&quot;index&quot;:null}" fill="#242424" stroke="#000000" stroke-width="2.5" stroke-linecap="butt"/><path d="M233.67487,108.45011v22.5c0,0 -14.49264,0 -18.28828,0c-1.62005,0 -4.21172,-2.66941 -4.21172,-4.08005c0,-3.64167 0,-18.41995 0,-18.41995z" data-paper-data="{&quot;index&quot;:null}" fill="#0b0b0b" stroke="#000000" stroke-width="2.5" stroke-linecap="butt"/><path d="M227.31297,101.22377v7.2105h-16.12857v-7.2105z" data-paper-data="{&quot;index&quot;:null}" fill="#242424" stroke="#000000" stroke-width="2.5" stroke-linecap="butt"/><path d="M227.31297,93.95105v7.2105h-16.12857v-7.2105z" data-paper-data="{&quot;index&quot;:null}" fill="#242424" stroke="#000000" stroke-width="2.5" stroke-linecap="butt"/><path d="M227.15911,86.83218v7.2105h-34.3978v-7.2105z" data-paper-data="{&quot;index&quot;:null}" fill="#242424" stroke="#000000" stroke-width="2.5" stroke-linecap="butt"/><path d="M227.31297,79.40559v7.2105h-16.12857v-7.2105z" data-paper-data="{&quot;index&quot;:null}" fill="#242424" stroke="#000000" stroke-width="2.5" stroke-linecap="butt"/><path d="M227.22206,72.22376v7.2105h-16.12857v-7.2105z" data-paper-data="{&quot;index&quot;:null}" fill="#242424" stroke="#000000" stroke-width="2.5" stroke-linecap="butt"/><path d="M227.22206,64.95105v7.2105h-16.12857v-7.2105z" data-paper-data="{&quot;index&quot;:null}" fill="#242424" stroke="#000000" stroke-width="2.5" stroke-linecap="butt"/><path d="M227.22206,57.67832v7.2105h-16.12857v-7.2105z" data-paper-data="{&quot;index&quot;:null}" fill="#242424" stroke="#000000" stroke-width="2.5" stroke-linecap="butt"/><path d="M227.22206,50.40561v7.2105h-16.12857v-7.2105z" data-paper-data="{&quot;index&quot;:null}" fill="#242424" stroke="#000000" stroke-width="2.5" stroke-linecap="butt"/><path d="M227.27132,43.09877v7.2105h-16.12857v-7.2105z" data-paper-data="{&quot;index&quot;:null}" fill="#242424" stroke="#000000" stroke-width="2.5" stroke-linecap="butt"/><path d="M227.27132,35.82604v7.2105h-16.12857v-7.2105z" data-paper-data="{&quot;index&quot;:null}" fill="#242424" stroke="#000000" stroke-width="2.5" stroke-linecap="butt"/><path d="M227.25313,28.55333v7.2105h-16.12857v-7.2105z" data-paper-data="{&quot;index&quot;:null}" fill="#242424" stroke="#000000" stroke-width="2.5" stroke-linecap="butt"/><path d="M350.75463,21.20442v7.2105h-16.12857v-7.2105z" data-paper-data="{&quot;index&quot;:null}" fill="#242424" stroke="#000000" stroke-width="2.5" stroke-linecap="butt"/><path d="M350.70537,13.89758v7.2105h-16.12857v-7.2105z" data-paper-data="{&quot;index&quot;:null}" fill="#242424" stroke="#000000" stroke-width="2.5" stroke-linecap="butt"/><path d="M350.70537,6.62486v7.2105h-16.12857v-7.2105z" data-paper-data="{&quot;index&quot;:null}" fill="#242424" stroke="#000000" stroke-width="2.5" stroke-linecap="butt"/><path d="M113.40583,179.1186c0,0 0,-14.77828 0,-18.41995c0,-1.41064 2.59167,-4.08005 4.21172,-4.08005c3.79564,0 18.28828,0 18.28828,0v22.5z" data-paper-data="{&quot;index&quot;:null}" fill="#0b0b0b" stroke="#000000" stroke-width="2.5" stroke-linecap="butt"/><path d="M198.89416,163.88212v-7.21049h31.42857v7.21049z" data-paper-data="{&quot;index&quot;:null}" fill="#242424" stroke="#000000" stroke-width="2.5" stroke-linecap="butt"/><path d="M167.51907,163.88212v-7.2105h31.42857v7.2105z" data-paper-data="{&quot;index&quot;:null}" fill="#242424" stroke="#000000" stroke-width="2.5" stroke-linecap="butt"/><path d="M136.01263,163.83282v-7.21049h31.42857v7.21049z" data-paper-data="{&quot;index&quot;:null}" fill="#242424" stroke="#000000" stroke-width="2.5" stroke-linecap="butt"/><path d="M183.17985,171.35947v-7.2105h31.42857v7.2105z" data-paper-data="{&quot;index&quot;:null}" fill="#242424" stroke="#000000" stroke-width="2.5" stroke-linecap="butt"/><path d="M152.01316,171.35947v-7.2105h31.42857v7.2105z" data-paper-data="{&quot;index&quot;:null}" fill="#242424" stroke="#000000" stroke-width="2.5" stroke-linecap="butt"/><path d="M135.81313,171.28354v-7.2105h16.12857v7.2105z" data-paper-data="{&quot;index&quot;:null}" fill="#242424" stroke="#000000" stroke-width="2.5" stroke-linecap="butt"/><path d="M113.35864,186.59496v-7.2105h16.12857v7.2105z" data-paper-data="{&quot;index&quot;:null}" fill="#242424" stroke="#000000" stroke-width="2.5" stroke-linecap="butt"/><path d="M98.35864,193.86771v-7.2105h31.12857v7.2105z" data-paper-data="{&quot;index&quot;:null}" fill="#242424" stroke="#000000" stroke-width="2.5" stroke-linecap="butt"/><path d="M113.35864,201.14036v-7.2105h16.12857v7.2105z" data-paper-data="{&quot;index&quot;:null}" fill="#242424" stroke="#000000" stroke-width="2.5" stroke-linecap="butt"/><path d="M113.35864,208.4131v-7.2105h16.12857v7.2105z" data-paper-data="{&quot;index&quot;:null}" fill="#242424" stroke="#000000" stroke-width="2.5" stroke-linecap="butt"/><path d="M113.26773,215.59496v-7.2105h16.12857v7.2105z" data-paper-data="{&quot;index&quot;:null}" fill="#242424" stroke="#000000" stroke-width="2.5" stroke-linecap="butt"/><path d="M113.26773,222.86771v-7.2105h16.12857v7.2105z" data-paper-data="{&quot;index&quot;:null}" fill="#242424" stroke="#000000" stroke-width="2.5" stroke-linecap="butt"/><path d="M113.26773,230.01536v-7.2105h16.12857v7.2105z" data-paper-data="{&quot;index&quot;:null}" fill="#242424" stroke="#000000" stroke-width="2.5" stroke-linecap="butt"/><path d="M113.26773,237.4131v-7.2105h16.12857v7.2105z" data-paper-data="{&quot;index&quot;:null}" fill="#242424" stroke="#000000" stroke-width="2.5" stroke-linecap="butt"/><path d="M113.31699,244.71996v-7.2105h16.12857v7.2105z" data-paper-data="{&quot;index&quot;:null}" fill="#242424" stroke="#000000" stroke-width="2.5" stroke-linecap="butt"/><path d="M113.31699,251.99271v-7.2105h16.12857v7.2105z" data-paper-data="{&quot;index&quot;:null}" fill="#242424" stroke="#000000" stroke-width="2.5" stroke-linecap="butt"/><path d="M113.29881,259.26536v-7.2105h16.12857v7.2105z" data-paper-data="{&quot;index&quot;:null}" fill="#242424" stroke="#000000" stroke-width="2.5" stroke-linecap="butt"/><path d="M214.27986,171.32804v-7.2105h16.12857v7.2105z" data-paper-data="{&quot;index&quot;:null}" fill="#242424" stroke="#000000" stroke-width="2.5" stroke-linecap="butt"/><path d="M230.44748,179.24953v-22.5c0,0 14.49264,0 18.28828,0c1.62005,0 4.21172,2.66941 4.21172,4.08005c0,3.64167 0,18.41995 0,18.41995z" data-paper-data="{&quot;index&quot;:null}" fill="#0b0b0b" stroke="#000000" stroke-width="2.5" stroke-linecap="butt"/><path d="M236.8094,186.61878v-7.2105h16.12857v7.2105z" data-paper-data="{&quot;index&quot;:null}" fill="#242424" stroke="#000000" stroke-width="2.5" stroke-linecap="butt"/><path d="M236.8094,193.89144v-7.2105h16.12857v7.2105z" data-paper-data="{&quot;index&quot;:null}" fill="#242424" stroke="#000000" stroke-width="2.5" stroke-linecap="butt"/><path d="M236.8094,201.16418v-7.2105h16.18412v7.2105z" data-paper-data="{&quot;index&quot;:null}" fill="#242424" stroke="#000000" stroke-width="2.5" stroke-linecap="butt"/><path d="M236.8094,208.43692v-7.2105h16.12857v7.2105z" data-paper-data="{&quot;index&quot;:null}" fill="#242424" stroke="#000000" stroke-width="2.5" stroke-linecap="butt"/><path d="M236.90029,215.61878v-7.2105h16.12857v7.2105z" data-paper-data="{&quot;index&quot;:null}" fill="#242424" stroke="#000000" stroke-width="2.5" stroke-linecap="butt"/><path d="M236.90029,222.89144v-7.2105h16.12857v7.2105z" data-paper-data="{&quot;index&quot;:null}" fill="#242424" stroke="#000000" stroke-width="2.5" stroke-linecap="butt"/><path d="M236.90029,230.16418v-7.2105h16.12857v7.2105z" data-paper-data="{&quot;index&quot;:null}" fill="#242424" stroke="#000000" stroke-width="2.5" stroke-linecap="butt"/><path d="M236.90029,237.43692v-7.2105h16.12857v7.2105z" data-paper-data="{&quot;index&quot;:null}" fill="#242424" stroke="#000000" stroke-width="2.5" stroke-linecap="butt"/><path d="M236.85103,244.74378v-7.2105h16.12857v7.2105z" data-paper-data="{&quot;index&quot;:null}" fill="#242424" stroke="#000000" stroke-width="2.5" stroke-linecap="butt"/><path d="M236.85103,252.15934v-7.2105h16.12857v7.2105z" data-paper-data="{&quot;index&quot;:null}" fill="#242424" stroke="#000000" stroke-width="2.5" stroke-linecap="butt"/><path d="M236.86922,259.28918v-7.2105h16.12857v7.2105z" data-paper-data="{&quot;index&quot;:null}" fill="#242424" stroke="#000000" stroke-width="2.5" stroke-linecap="butt"/><path d="M113.36773,266.67976v-7.2105h16.12857v7.2105z" data-paper-data="{&quot;index&quot;:null}" fill="#242424" stroke="#000000" stroke-width="2.5" stroke-linecap="butt"/><path d="M113.41699,273.98661v-7.2105h16.12857v7.2105z" data-paper-data="{&quot;index&quot;:null}" fill="#242424" stroke="#000000" stroke-width="2.5" stroke-linecap="butt"/><path d="M113.41699,280.926v-7.2105h16.12857v7.2105z" data-paper-data="{&quot;index&quot;:null}" fill="#242424" stroke="#000000" stroke-width="2.5" stroke-linecap="butt"/><path d="M299.68692,324.85355v-7.21049h31.42857v7.21049z" data-paper-data="{&quot;index&quot;:null}" fill="#242424" stroke="#000000" stroke-width="2.5" stroke-linecap="butt"/><path d="M269.0897,324.85355v-7.2105h30.65079v7.2105z" data-paper-data="{&quot;index&quot;:null}" fill="#242424" stroke="#000000" stroke-width="2.5" stroke-linecap="butt"/><path d="M283.97265,332.3309v-7.2105h31.42857v7.2105z" data-paper-data="{&quot;index&quot;:null}" fill="#242424" stroke="#000000" stroke-width="2.5" stroke-linecap="butt"/><path d="M252.80605,332.3309v-7.2105h31.42857v7.2105z" data-paper-data="{&quot;index&quot;:null}" fill="#242424" stroke="#000000" stroke-width="2.5" stroke-linecap="butt"/><path d="M252.82829,324.9217v-7.2105h16.12857v7.2105z" data-paper-data="{&quot;index&quot;:null}" fill="#242424" stroke="#000000" stroke-width="2.5" stroke-linecap="butt"/><path d="M315.07266,332.29947v-7.2105h16.12857v7.2105z" data-paper-data="{&quot;index&quot;:null}" fill="#242424" stroke="#000000" stroke-width="2.5" stroke-linecap="butt"/><path d="M236.7503,281.301v-7.2105h16.12857v7.2105z" data-paper-data="{&quot;index&quot;:null}" fill="#242424" stroke="#000000" stroke-width="2.5" stroke-linecap="butt"/><path d="M236.7503,288.57374v-7.2105h16.12857v7.2105z" data-paper-data="{&quot;index&quot;:null}" fill="#242424" stroke="#000000" stroke-width="2.5" stroke-linecap="butt"/><path d="M236.7503,295.84641v-7.2105h16.12857v7.2105z" data-paper-data="{&quot;index&quot;:null}" fill="#242424" stroke="#000000" stroke-width="2.5" stroke-linecap="butt"/><path d="M236.70104,303.15326v-7.2105h16.12857v7.2105z" data-paper-data="{&quot;index&quot;:null}" fill="#242424" stroke="#000000" stroke-width="2.5" stroke-linecap="butt"/><path d="M236.70104,310.426v-7.2105h16.12857v7.2105z" data-paper-data="{&quot;index&quot;:null}" fill="#242424" stroke="#000000" stroke-width="2.5" stroke-linecap="butt"/><path d="M236.71923,317.69874v-7.2105h16.12857v7.2105z" data-paper-data="{&quot;index&quot;:null}" fill="#242424" stroke="#000000" stroke-width="2.5" stroke-linecap="butt"/><path d="M241.56953,332.3703c-1.70605,0 -4.875,-2.85457 -4.875,-4.4959c0,-2.68506 0,-10.08744 0,-10.08744h16.08333v14.58333c0,0 -8.26353,0 -11.20833,0z" data-paper-data="{&quot;index&quot;:null}" fill="#0b0b0b" stroke="#000000" stroke-width="2.5" stroke-linecap="butt"/><path d="M236.7503,266.676v-7.2105h16.12857v7.2105z" data-paper-data="{&quot;index&quot;:null}" fill="#242424" stroke="#000000" stroke-width="2.5" stroke-linecap="butt"/><path d="M236.7503,273.94874v-7.2105h16.12857v7.2105z" data-paper-data="{&quot;index&quot;:null}" fill="#242424" stroke="#000000" stroke-width="2.5" stroke-linecap="butt"/><path d="M350.70537,-0.69181v7.2105h-16.12857v-7.2105z" data-paper-data="{&quot;index&quot;:null}" fill="#242424" stroke="#000000" stroke-width="2.5" stroke-linecap="butt"/><path d="M227.27132,21.32099v7.2105h-16.12857v-7.2105z" data-paper-data="{&quot;index&quot;:null}" fill="#242424" stroke="#000000" stroke-width="2.5" stroke-linecap="butt"/><path d="M227.27132,14.04827v7.2105h-16.12857v-7.2105z" data-paper-data="{&quot;index&quot;:null}" fill="#242424" stroke="#000000" stroke-width="2.5" stroke-linecap="butt"/><path d="M3.54696,118.22075v-115.04977h32.73906v115.04977z" data-paper-data="{&quot;index&quot;:null}" fill="#000000" stroke="#000000" stroke-width="10" stroke-linecap="butt"/><path d="M30.80131,123.66278v7.21049h-31.42857v-7.21049z" data-paper-data="{&quot;index&quot;:null}" fill="#242424" stroke="#000000" stroke-width="2.5" stroke-linecap="butt"/><path d="M30.88701,116.46691v7.2105h-16.12857v-7.2105z" data-paper-data="{&quot;index&quot;:null}" fill="#242424" stroke="#000000" stroke-width="2.5" stroke-linecap="butt"/><path d="M53.42606,108.40252c0,0 0,14.77828 0,18.41995c0,1.41064 -2.59167,4.08005 -4.21172,4.08005c-3.79564,0 -18.28828,0 -18.28828,0v-22.5z" data-paper-data="{&quot;index&quot;:null}" fill="#0b0b0b" stroke="#000000" stroke-width="2.5" stroke-linecap="butt"/><path d="M53.41652,101.17616v7.2105h-16.12857v-7.2105z" data-paper-data="{&quot;index&quot;:null}" fill="#242424" stroke="#000000" stroke-width="2.5" stroke-linecap="butt"/><path d="M53.41652,93.90346v7.2105h-16.12857v-7.2105z" data-paper-data="{&quot;index&quot;:null}" fill="#242424" stroke="#000000" stroke-width="2.5" stroke-linecap="butt"/><path d="M72.07036,86.63072v7.2105h-34.78242v-7.2105z" data-paper-data="{&quot;index&quot;:null}" fill="#242424" stroke="#000000" stroke-width="2.5" stroke-linecap="butt"/><path d="M53.41652,79.35798v7.2105h-16.12857v-7.2105z" data-paper-data="{&quot;index&quot;:null}" fill="#242424" stroke="#000000" stroke-width="2.5" stroke-linecap="butt"/><path d="M53.50743,72.17614v7.2105h-16.12857v-7.2105z" data-paper-data="{&quot;index&quot;:null}" fill="#242424" stroke="#000000" stroke-width="2.5" stroke-linecap="butt"/><path d="M53.50743,64.90344v7.2105h-16.12857v-7.2105z" data-paper-data="{&quot;index&quot;:null}" fill="#242424" stroke="#000000" stroke-width="2.5" stroke-linecap="butt"/><path d="M53.50743,57.63071v7.2105h-16.12857v-7.2105z" data-paper-data="{&quot;index&quot;:null}" fill="#242424" stroke="#000000" stroke-width="2.5" stroke-linecap="butt"/><path d="M53.50743,50.358v7.2105h-16.12857v-7.2105z" data-paper-data="{&quot;index&quot;:null}" fill="#242424" stroke="#000000" stroke-width="2.5" stroke-linecap="butt"/><path d="M53.45817,43.05116v7.2105h-16.12857v-7.2105z" data-paper-data="{&quot;index&quot;:null}" fill="#242424" stroke="#000000" stroke-width="2.5" stroke-linecap="butt"/><path d="M53.45817,35.77843v7.2105h-16.12857v-7.2105z" data-paper-data="{&quot;index&quot;:null}" fill="#242424" stroke="#000000" stroke-width="2.5" stroke-linecap="butt"/><path d="M53.47636,28.50572v7.2105h-16.12857v-7.2105z" data-paper-data="{&quot;index&quot;:null}" fill="#242424" stroke="#000000" stroke-width="2.5" stroke-linecap="butt"/><path d="M53.45817,21.27338v7.2105h-16.12857v-7.2105z" data-paper-data="{&quot;index&quot;:null}" fill="#242424" stroke="#000000" stroke-width="2.5" stroke-linecap="butt"/><path d="M53.45817,14.00066v7.2105h-16.12857v-7.2105z" data-paper-data="{&quot;index&quot;:null}" fill="#242424" stroke="#000000" stroke-width="2.5" stroke-linecap="butt"/><g stroke="#000000" stroke-linecap="butt"><path d="M356.07023,147.52423c0,-17.50052 14.18698,-31.6875 31.6875,-31.6875c17.50052,0 31.6875,14.18698 31.6875,31.6875c0,17.50053 -14.18698,31.6875 -31.6875,31.6875c-17.50052,0 -31.6875,-14.18697 -31.6875,-31.6875z" fill="url(#color-1)" stroke-width="0"/><path d="M390.46638,154.69552v3.95204h-4.89971v-3.95204z" fill="#323324" stroke-width="1"/><g stroke-width="0.75"><path d="M388.07775,140.65675c0.33907,-0.45842 0.61784,2.04462 0.59166,2.929c-0.02344,0.79161 0.15883,1.49602 0.08386,2.08609c-0.01159,0.09117 0.10472,1.05691 0.17785,1.32572c0.01914,0.07037 0.54694,-1.26689 0.95195,-1.85811c0.2366,-0.34539 0.5058,-0.39572 0.66246,-0.23831c0.1196,0.12018 0.18793,0.35164 0.22265,0.64319c0.08859,0.74399 -0.04165,1.87931 -0.09694,2.55555c-0.04857,0.59401 -0.02254,1.22305 -0.20004,1.78245c-0.1775,0.5594 -0.83204,1.58019 -0.88234,1.6286c-0.144,0.13859 -1.16059,0.63963 -1.31734,0.63963c-0.26598,0 -0.73816,-0.07472 -1.01281,-0.19919c-0.21345,-0.09674 -1.36238,-0.6838 -1.76552,-1.65358c-0.48287,-1.1616 -1.0065,-2.98487 -1.10044,-3.28986c-0.06579,-0.21361 -0.02559,-3.17825 0.48151,-2.62096c0.53012,0.58259 2.1685,4.07417 2.13903,3.7559c-0.01779,-0.1921 -0.37593,-2.0437 -0.20391,-3.89963c0.12984,-1.40087 0.67184,-2.77999 1.26839,-3.58649z" fill="url(#color-2)"/><path d="M387.323,156.64976v-4.66593h1.23858v4.66593z" fill="#311800"/></g></g><path d="M353.72606,193.42628v-7.2105h31.42857v7.2105z" fill="#242424" stroke="#000000" stroke-width="2.5" stroke-linecap="butt"/><path d="M179.56082,6.71545v-7.21049h31.42857v7.21049z" data-paper-data="{&quot;index&quot;:null}" fill="#242424" stroke="#000000" stroke-width="2.5" stroke-linecap="butt"/><path d="M148.18578,6.71545v-7.2105h31.42857v7.2105z" data-paper-data="{&quot;index&quot;:null}" fill="#242424" stroke="#000000" stroke-width="2.5" stroke-linecap="butt"/><path d="M116.67931,6.71878v-7.21049h31.42857v7.21049z" data-paper-data="{&quot;index&quot;:null}" fill="#242424" stroke="#000000" stroke-width="2.5" stroke-linecap="butt"/><path d="M85.14598,6.71352v-7.21049h31.42857v7.21049z" data-paper-data="{&quot;index&quot;:null}" fill="#242424" stroke="#000000" stroke-width="2.5" stroke-linecap="butt"/><path d="M53.64598,6.76615v-7.21049h31.42857v7.21049z" data-paper-data="{&quot;index&quot;:null}" fill="#242424" stroke="#000000" stroke-width="2.5" stroke-linecap="butt"/><path d="M42.2838,-0.54639c2.9448,0 11.20833,0 11.20833,0v14.58333h-16.08333c0,0 0,-7.40238 0,-10.08744c0,-1.64133 3.16895,-4.4959 4.875,-4.4959z" data-paper-data="{&quot;index&quot;:null}" fill="#101010" stroke="#000000" stroke-width="2.5" stroke-linecap="butt"/><path d="M222.32546,-0.50472c1.70605,0 4.875,2.85457 4.875,4.4959c0,2.68506 0,10.08744 0,10.08744h-16.08333v-14.58333c0,0 8.26353,0 11.20833,0z" data-paper-data="{&quot;index&quot;:null}" fill="#101010" stroke="#000000" stroke-width="2.5" stroke-linecap="butt"/><path d="M429.85246,77.18213v7.05094h-16.12857v-7.05094z" data-paper-data="{&quot;index&quot;:null}" fill="#242424" stroke="#000000" stroke-width="2.5" stroke-linecap="butt"/><path d="M429.85246,70.07035v7.05094h-16.12857v-7.05094z" data-paper-data="{&quot;index&quot;:null}" fill="#242424" stroke="#000000" stroke-width="2.5" stroke-linecap="butt"/><path d="M429.85246,62.95855v7.05095h-16.12857v-7.05095z" data-paper-data="{&quot;index&quot;:null}" fill="#242424" stroke="#000000" stroke-width="2.5" stroke-linecap="butt"/><path d="M429.85246,55.84675v7.05094h-16.12857v-7.05094z" data-paper-data="{&quot;index&quot;:null}" fill="#242424" stroke="#000000" stroke-width="2.5" stroke-linecap="butt"/><path d="M429.76153,48.82385v7.05094h-16.12857v-7.05094z" data-paper-data="{&quot;index&quot;:null}" fill="#242424" stroke="#000000" stroke-width="2.5" stroke-linecap="butt"/><path d="M429.76153,41.71207v7.05094h-16.12857v-7.05094z" data-paper-data="{&quot;index&quot;:null}" fill="#242424" stroke="#000000" stroke-width="2.5" stroke-linecap="butt"/><path d="M429.76153,34.60026v7.05094h-16.12857v-7.05094z" data-paper-data="{&quot;index&quot;:null}" fill="#242424" stroke="#000000" stroke-width="2.5" stroke-linecap="butt"/><path d="M429.76153,27.48849v7.05094h-16.12857v-7.05094z" data-paper-data="{&quot;index&quot;:null}" fill="#242424" stroke="#000000" stroke-width="2.5" stroke-linecap="butt"/><path d="M429.81081,20.34334v7.05095h-16.12857v-7.05095z" data-paper-data="{&quot;index&quot;:null}" fill="#242424" stroke="#000000" stroke-width="2.5" stroke-linecap="butt"/><path d="M429.81081,13.23155v7.05094h-16.12857v-7.05094z" data-paper-data="{&quot;index&quot;:null}" fill="#242424" stroke="#000000" stroke-width="2.5" stroke-linecap="butt"/><path d="M429.86762,6.11974v7.05095h-16.12857v-7.05094z" data-paper-data="{&quot;index&quot;:null}" fill="#242424" stroke="#000000" stroke-width="2.5" stroke-linecap="butt"/><path d="M429.86762,-0.74981v7.05095h-16.12857v-7.05094z" data-paper-data="{&quot;index&quot;:null}" fill="#242424" stroke="#000000" stroke-width="2.5" stroke-linecap="butt"/><path d="M121.92169,74.53471h7.21049v82.00714h-7.21049z" data-paper-data="{&quot;index&quot;:null}" fill="#242424" stroke="#000000" stroke-width="2.5" stroke-linecap="butt"/><path d="M117.54246,74.51714v-17.4h16.4v17.4z" fill="#0b0b0b" stroke="#000000" stroke-width="2.5" stroke-linecap="butt"/><path d="M124.63013,295.55217c-2.9448,0 -11.20833,0 -11.20833,0v-14.58333h16.08333c0,0 0,7.40238 0,10.08744c0,1.64133 -3.16895,4.4959 -4.875,4.4959z" data-paper-data="{&quot;index&quot;:null}" fill="#0b0b0b" stroke="#000000" stroke-width="2.5" stroke-linecap="butt"/><path d="M50.39057,288.13212v-7.2105h31.42857v7.2105z" data-paper-data="{&quot;index&quot;:null}" fill="#242424" stroke="#000000" stroke-width="2.5" stroke-linecap="butt"/><path d="M81.89701,288.08288v-7.21049h31.42857v7.21049z" data-paper-data="{&quot;index&quot;:null}" fill="#242424" stroke="#000000" stroke-width="2.5" stroke-linecap="butt"/><path d="M34.7298,295.60947v-7.2105h31.42857v7.2105z" data-paper-data="{&quot;index&quot;:null}" fill="#242424" stroke="#000000" stroke-width="2.5" stroke-linecap="butt"/><path d="M65.89648,295.60947v-7.2105h31.42857v7.2105z" data-paper-data="{&quot;index&quot;:null}" fill="#242424" stroke="#000000" stroke-width="2.5" stroke-linecap="butt"/><path d="M97.39651,295.53355v-7.2105h16.12857v7.2105z" data-paper-data="{&quot;index&quot;:null}" fill="#242424" stroke="#000000" stroke-width="2.5" stroke-linecap="butt"/><path d="M18.95043,288.08923v-7.21049h31.42857v7.21049z" data-paper-data="{&quot;index&quot;:null}" fill="#242424" stroke="#000000" stroke-width="2.5" stroke-linecap="butt"/><path d="M2.9499,295.61591v-7.2105h31.42857v7.2105z" data-paper-data="{&quot;index&quot;:null}" fill="#242424" stroke="#000000" stroke-width="2.5" stroke-linecap="butt"/><path d="M0.90328,225.75803l3.5,-4.25h70l-3.5,4.25c0,0 -54.05803,0 -66.54213,0c-1.01296,0 -3.49999,1.5 -3.49999,1.5z" fill="#262626" stroke="#101010" stroke-width="2.5" stroke-linecap="butt"/><path d="M56.6755,198.1272v-6h4.6v6z" fill="#242424" stroke="#0c0c0c" stroke-width="2" stroke-linecap="butt"/><path d="M0.81995,232.84138v-7h70v7z" fill="#0b0b0b" stroke="#000000" stroke-width="2.5" stroke-linecap="butt"/><path d="M14.67551,197.96056v-6h4.6v6z" fill="#242424" stroke="#0c0c0c" stroke-width="2" stroke-linecap="butt"/><path d="M16.86038,198.24271v25.28571v-3.06986" fill="none" stroke="#0c0c0c" stroke-width="2" stroke-linecap="round"/><path d="M58.79349,198.40934v25.19048v-3.85557" fill="none" stroke="#0c0c0c" stroke-width="2" stroke-linecap="round"/><g stroke="#000000" stroke-linecap="butt"><path d="M0.70987,164.53625c0,-17.50052 14.18698,-31.6875 31.6875,-31.6875c17.50052,0 31.6875,14.18698 31.6875,31.6875c0,17.50053 -14.18698,31.6875 -31.6875,31.6875c-17.50052,0 -31.6875,-14.18697 -31.6875,-31.6875z" fill="url(#color-3)" stroke-width="0"/><path d="M35.10602,171.70754v3.95204h-4.89971v-3.95204z" fill="#323324" stroke-width="1"/><g stroke-width="0.75"><path d="M32.71739,157.66877c0.33907,-0.45842 0.61784,2.04462 0.59166,2.929c-0.02344,0.79161 0.15883,1.49602 0.08386,2.08609c-0.01159,0.09117 0.10472,1.05691 0.17785,1.32572c0.01914,0.07037 0.54694,-1.26689 0.95195,-1.85811c0.2366,-0.34539 0.5058,-0.39572 0.66246,-0.23831c0.1196,0.12018 0.18793,0.35164 0.22265,0.64319c0.08859,0.74399 -0.04165,1.87931 -0.09694,2.55555c-0.04857,0.59401 -0.02254,1.22305 -0.20004,1.78245c-0.1775,0.5594 -0.83204,1.58019 -0.88234,1.6286c-0.144,0.13859 -1.16059,0.63963 -1.31734,0.63963c-0.26598,0 -0.73816,-0.07472 -1.01281,-0.19919c-0.21345,-0.09674 -1.36238,-0.6838 -1.76552,-1.65358c-0.48287,-1.1616 -1.0065,-2.98487 -1.10044,-3.28986c-0.06579,-0.21361 -0.02559,-3.17825 0.48151,-2.62096c0.53012,0.58259 2.1685,4.07417 2.13903,3.7559c-0.01779,-0.1921 -0.37593,-2.0437 -0.20391,-3.89963c0.12984,-1.40087 0.67184,-2.77999 1.26839,-3.58649z" fill="url(#color-4)"/><path d="M31.96264,173.66178v-4.66593h1.23858v4.66593z" fill="#311800"/></g></g><g stroke="#000000" stroke-linecap="butt"><path d="M142.34651,43.41012c0,-17.50052 14.18698,-31.6875 31.6875,-31.6875c17.50052,0 31.6875,14.18698 31.6875,31.6875c0,17.50053 -14.18698,31.6875 -31.6875,31.6875c-17.50052,0 -31.6875,-14.18697 -31.6875,-31.6875z" fill="url(#color-5)" stroke-width="0"/><path d="M176.74266,50.58141v3.95204h-4.89971v-3.95204z" fill="#323324" stroke-width="1"/><g stroke-width="0.75"><path d="M174.35403,36.54264c0.33907,-0.45842 0.61784,2.04462 0.59166,2.929c-0.02344,0.79161 0.15883,1.49602 0.08386,2.08609c-0.01159,0.09117 0.10472,1.05691 0.17785,1.32572c0.01914,0.07037 0.54694,-1.26689 0.95195,-1.85811c0.2366,-0.34539 0.5058,-0.39572 0.66246,-0.23831c0.1196,0.12018 0.18793,0.35164 0.22265,0.64319c0.08859,0.74399 -0.04165,1.87931 -0.09694,2.55555c-0.04857,0.59401 -0.02254,1.22305 -0.20004,1.78245c-0.1775,0.5594 -0.83204,1.58019 -0.88234,1.6286c-0.144,0.13859 -1.16059,0.63963 -1.31734,0.63963c-0.26598,0 -0.73816,-0.07472 -1.01281,-0.19919c-0.21345,-0.09674 -1.36238,-0.6838 -1.76552,-1.65358c-0.48287,-1.1616 -1.0065,-2.98487 -1.10044,-3.28986c-0.06579,-0.21361 -0.02559,-3.17825 0.48151,-2.62096c0.53012,0.58259 2.1685,4.07417 2.13903,3.7559c-0.01779,-0.1921 -0.37593,-2.0437 -0.20391,-3.89963c0.12984,-1.40087 0.67184,-2.77999 1.26839,-3.58649z" fill="url(#color-6)"/><path d="M173.59928,52.53565v-4.66593h1.23858v4.66593z" fill="#311800"/></g></g></g></g></svg>