<svg version="1.1" xmlns="http://www.w3.org/2000/svg" xmlns:xlink="http://www.w3.org/1999/xlink" width="735.7399" height="402.69303" viewBox="0,0,735.7399,402.69303"><defs><radialGradient cx="219.82168" cy="274.71261" r="18.38959" gradientUnits="userSpaceOnUse" id="color-1"><stop offset="0" stop-color="#13570d"/><stop offset="1" stop-color="#13570d" stop-opacity="0"/></radialGradient><radialGradient cx="217.36786" cy="264.93044" r="18.37763" gradientUnits="userSpaceOnUse" id="color-2"><stop offset="0" stop-color="#13570d"/><stop offset="1" stop-color="#13570d" stop-opacity="0"/></radialGradient><radialGradient cx="226.64778" cy="266.43564" r="19.11243" gradientUnits="userSpaceOnUse" id="color-3"><stop offset="0" stop-color="#13570d"/><stop offset="1" stop-color="#13570d" stop-opacity="0"/></radialGradient><radialGradient cx="239.52879" cy="277.68309" r="19.11243" gradientUnits="userSpaceOnUse" id="color-4"><stop offset="0" stop-color="#13570d"/><stop offset="1" stop-color="#13570d" stop-opacity="0"/></radialGradient><radialGradient cx="240.65002" cy="262.43437" r="19.11243" gradientUnits="userSpaceOnUse" id="color-5"><stop offset="0" stop-color="#13570d"/><stop offset="1" stop-color="#13570d" stop-opacity="0"/></radialGradient><radialGradient cx="223.83157" cy="259.29494" r="19.11242" gradientUnits="userSpaceOnUse" id="color-6"><stop offset="0" stop-color="#13570d"/><stop offset="1" stop-color="#13570d" stop-opacity="0"/></radialGradient><radialGradient cx="232.71783" cy="259.43273" r="19.11243" gradientUnits="userSpaceOnUse" id="color-7"><stop offset="0" stop-color="#13570d"/><stop offset="1" stop-color="#13570d" stop-opacity="0"/></radialGradient><radialGradient cx="227.33593" cy="278.04517" r="19.11242" gradientUnits="userSpaceOnUse" id="color-8"><stop offset="0" stop-color="#13570d"/><stop offset="1" stop-color="#13570d" stop-opacity="0"/></radialGradient><radialGradient cx="242.13617" cy="266.38437" r="19.11243" gradientUnits="userSpaceOnUse" id="color-9"><stop offset="0" stop-color="#13570d"/><stop offset="1" stop-color="#13570d" stop-opacity="0"/></radialGradient><radialGradient cx="146.82167" cy="127.71262" r="18.38959" gradientUnits="userSpaceOnUse" id="color-10"><stop offset="0" stop-color="#13570d"/><stop offset="1" stop-color="#13570d" stop-opacity="0"/></radialGradient><radialGradient cx="144.36785" cy="117.93043" r="18.37763" gradientUnits="userSpaceOnUse" id="color-11"><stop offset="0" stop-color="#13570d"/><stop offset="1" stop-color="#13570d" stop-opacity="0"/></radialGradient><radialGradient cx="153.64777" cy="119.43563" r="19.11243" gradientUnits="userSpaceOnUse" id="color-12"><stop offset="0" stop-color="#13570d"/><stop offset="1" stop-color="#13570d" stop-opacity="0"/></radialGradient><radialGradient cx="166.52878" cy="130.68307" r="19.11243" gradientUnits="userSpaceOnUse" id="color-13"><stop offset="0" stop-color="#13570d"/><stop offset="1" stop-color="#13570d" stop-opacity="0"/></radialGradient><radialGradient cx="167.65001" cy="115.43435" r="19.11243" gradientUnits="userSpaceOnUse" id="color-14"><stop offset="0" stop-color="#13570d"/><stop offset="1" stop-color="#13570d" stop-opacity="0"/></radialGradient><radialGradient cx="150.83156" cy="112.29493" r="19.11242" gradientUnits="userSpaceOnUse" id="color-15"><stop offset="0" stop-color="#13570d"/><stop offset="1" stop-color="#13570d" stop-opacity="0"/></radialGradient><radialGradient cx="159.71782" cy="112.43274" r="19.11243" gradientUnits="userSpaceOnUse" id="color-16"><stop offset="0" stop-color="#13570d"/><stop offset="1" stop-color="#13570d" stop-opacity="0"/></radialGradient><radialGradient cx="154.33592" cy="131.04517" r="19.11242" gradientUnits="userSpaceOnUse" id="color-17"><stop offset="0" stop-color="#13570d"/><stop offset="1" stop-color="#13570d" stop-opacity="0"/></radialGradient><radialGradient cx="169.13616" cy="119.38437" r="19.11243" gradientUnits="userSpaceOnUse" id="color-18"><stop offset="0" stop-color="#13570d"/><stop offset="1" stop-color="#13570d" stop-opacity="0"/></radialGradient></defs><g transform="translate(125.36904,40.50266)"><g data-paper-data="{&quot;isPaintingLayer&quot;:true}" fill-rule="nonzero" stroke-linejoin="miter" stroke-miterlimit="10" stroke-dasharray="" stroke-dashoffset="0" style="mix-blend-mode: normal"><path d="M227.08732,345.28911v-84.68465c0,0 2.45711,2.24261 3.2763,1.26774c1.70445,-2.02837 6.02323,-1.26774 6.02323,-1.26774v84.68465z" fill="#30220a" stroke="#0c0c0c" stroke-width="0" stroke-linecap="butt"/><g stroke="none" stroke-width="0" stroke-linecap="butt"><path d="M211.76938,267.20239c6.27719,-7.98417 7.52641,-7.25327 15.51058,-0.97608c7.98417,6.27719 7.4443,7.28345 1.16711,15.26762c-6.27719,7.98417 -8.77644,7.8431 -16.76062,1.56591c-7.98417,-6.27719 -6.19427,-7.87326 0.08292,-15.85744z" fill="url(#color-1)"/><path d="M206.35755,265.04785c-0.97165,-9.36477 0.43666,-9.67394 10.54636,-10.57399c10.1097,-0.90005 10.41391,0.11951 11.38557,9.48426c0.97165,9.36476 -0.93369,10.86865 -11.04339,11.76871c-10.1097,0.90005 -9.91688,-1.31421 -10.88852,-10.67897z" fill="url(#color-2)"/><path d="M215.24456,265.472c0,-10.55551 1.49014,-10.76078 12.04566,-10.76078c10.5555,0 10.76078,1.16893 10.76078,11.72443c0,10.5555 -2.13257,12.04566 -12.68808,12.04566c-10.5555,0 -10.11835,-2.4538 -10.11835,-13.0093z" fill="url(#color-3)"/><path d="M231.15996,269.87766c6.52393,-8.29801 7.82226,-7.53839 16.12026,-1.01445c8.29801,6.52393 7.73692,7.56974 1.21299,15.86775c-6.52393,8.29801 -9.12141,8.1514 -17.41942,1.62747c-8.29801,-6.52393 -6.43775,-8.18275 0.08619,-16.48076z" fill="url(#color-4)"/><path d="M232.2812,254.62892c6.52393,-8.29801 7.82226,-7.53839 16.12027,-1.01445c8.29801,6.52393 7.73691,7.56973 1.21297,15.86775c-6.52393,8.29801 -9.12141,8.15139 -17.41942,1.62746c-8.29801,-6.52393 -6.43775,-8.18275 0.08618,-16.48075z" fill="url(#color-5)"/><path d="M215.46275,251.48949c6.52393,-8.29801 7.82225,-7.53839 16.12026,-1.01445c8.29801,6.52393 7.73692,7.56974 1.21298,15.86774c-6.52393,8.29801 -9.12142,8.1514 -17.41942,1.62746c-8.29801,-6.52393 -6.43775,-8.18275 0.08619,-16.48076z" fill="url(#color-6)"/><path d="M221.27473,259.56444c-1.00984,-10.50709 0.45383,-10.85398 10.96091,-11.86382c10.50709,-1.00985 10.82325,0.13407 11.83309,10.64117c1.00985,10.50709 -0.97038,12.19442 -11.47746,13.20427c-10.50709,1.00984 -10.30669,-1.47452 -11.31654,-11.9816z" fill="url(#color-7)"/><path d="M215.89283,278.17686c-1.00984,-10.50708 0.45382,-10.85399 10.96091,-11.86383c10.50708,-1.00984 10.82325,0.13409 11.8331,10.64117c1.00984,10.50708 -0.97039,12.19441 -11.47748,13.20426c-10.50708,1.00984 -10.30668,-1.47452 -11.31653,-11.9816z" fill="url(#color-8)"/><path d="M230.69306,266.51608c-1.00984,-10.50708 0.45383,-10.85398 10.96092,-11.86383c10.50708,-1.00985 10.82325,0.13409 11.83309,10.64117c1.00984,10.50708 -0.97039,12.19442 -11.47748,13.20427c-10.50708,1.00984 -10.30668,-1.47453 -11.31653,-11.98161z" fill="url(#color-9)"/></g><path d="M154.08731,198.28909v-84.68465c0,0 2.45711,2.24261 3.2763,1.26774c1.70445,-2.02837 6.02323,-1.26774 6.02323,-1.26774v84.68465z" fill="#30220a" stroke="#0c0c0c" stroke-width="0" stroke-linecap="butt"/><g stroke="none" stroke-width="0" stroke-linecap="butt"><path d="M138.76937,120.20237c6.27719,-7.98417 7.52641,-7.25327 15.51058,-0.97608c7.98417,6.27719 7.4443,7.28345 1.16711,15.26762c-6.27719,7.98417 -8.77644,7.8431 -16.76062,1.56591c-7.98417,-6.27719 -6.19427,-7.87326 0.08292,-15.85744z" fill="url(#color-10)"/><path d="M133.35754,118.04786c-0.97165,-9.36477 0.43666,-9.67394 10.54636,-10.57399c10.1097,-0.90005 10.41391,0.11951 11.38557,9.48426c0.97165,9.36476 -0.93369,10.86865 -11.04339,11.76871c-10.1097,0.90005 -9.91688,-1.31421 -10.88852,-10.67897z" fill="url(#color-11)"/><path d="M142.24455,118.47198c0,-10.55551 1.49014,-10.76078 12.04566,-10.76078c10.5555,0 10.76078,1.16893 10.76078,11.72443c0,10.5555 -2.13257,12.04566 -12.68808,12.04566c-10.5555,0 -10.11835,-2.4538 -10.11835,-13.0093z" fill="url(#color-12)"/><path d="M158.15995,122.87767c6.52393,-8.29801 7.82226,-7.53839 16.12026,-1.01445c8.29801,6.52393 7.73692,7.56974 1.21299,15.86775c-6.52393,8.29801 -9.12141,8.1514 -17.41942,1.62747c-8.29801,-6.52393 -6.43775,-8.18275 0.08619,-16.48076z" fill="url(#color-13)"/><path d="M159.28119,107.62892c6.52393,-8.29801 7.82226,-7.53839 16.12027,-1.01445c8.29801,6.52393 7.73691,7.56973 1.21297,15.86775c-6.52393,8.29801 -9.12141,8.15139 -17.41942,1.62746c-8.29801,-6.52393 -6.43775,-8.18275 0.08618,-16.48075z" fill="url(#color-14)"/><path d="M142.46274,104.4895c6.52393,-8.29801 7.82225,-7.53839 16.12026,-1.01445c8.29801,6.52393 7.73692,7.56974 1.21298,15.86774c-6.52393,8.29801 -9.12142,8.1514 -17.41942,1.62746c-8.29801,-6.52393 -6.43775,-8.18275 0.08619,-16.48076z" fill="url(#color-15)"/><path d="M148.27472,112.56445c-1.00984,-10.50709 0.45383,-10.85398 10.96091,-11.86382c10.50709,-1.00985 10.82325,0.13407 11.83309,10.64117c1.00985,10.50709 -0.97038,12.19442 -11.47746,13.20427c-10.50709,1.00984 -10.30669,-1.47452 -11.31654,-11.9816z" fill="url(#color-16)"/><path d="M142.89282,131.17685c-1.00984,-10.50708 0.45382,-10.85399 10.96091,-11.86383c10.50708,-1.00984 10.82325,0.13409 11.8331,10.64117c1.00984,10.50708 -0.97039,12.19441 -11.47748,13.20426c-10.50708,1.00984 -10.30668,-1.47452 -11.31653,-11.9816z" fill="url(#color-17)"/><path d="M157.69305,119.51608c-1.00984,-10.50708 0.45383,-10.85398 10.96092,-11.86383c10.50708,-1.00985 10.82325,0.13409 11.83309,10.64117c1.00984,10.50708 -0.97039,12.19442 -11.47748,13.20427c-10.50708,1.00984 -10.30668,-1.47453 -11.31653,-11.98161z" fill="url(#color-18)"/></g><path d="M160.17553,314.85578l29.66666,-29.66666" fill="none" stroke="#000000" stroke-width="5" stroke-linecap="round"/><path d="M274.27477,47.46102l0.21904,-45.33587l321.07132,1.02267l0.43194,44.52538z" data-paper-data="{&quot;index&quot;:null}" fill="#000000" stroke="#000000" stroke-width="7" stroke-linecap="round"/><path d="M-124.86904,50.72446v-51.06607h358.56731v52.06607l-46.17039,0.33333l-0.33334,-27.33333l-127.13528,0.2671l-0.11471,25.7329z" fill="#000000" stroke="#000000" stroke-width="1" stroke-linecap="butt"/><path d="M232.85214,46.32994v-9h18v9z" fill="#000000" stroke="#000000" stroke-width="1" stroke-linecap="butt"/><path d="M-121.86038,360.91872v-311.81381h181.68168v311.81381z" fill="#000000" stroke="#000000" stroke-width="1" stroke-linecap="butt"/><path d="M411.67266,361.42013v-312.31381h198.1982v312.31381z" fill="#000000" stroke="#000000" stroke-width="1" stroke-linecap="butt"/><path d="M364.19456,227.30665v-137.33333h14v137.33334z" fill="#000000" stroke="#000000" stroke-width="1" stroke-linecap="butt"/><path d="M367.19457,222.97328h-34v-104.72454h-64.72454l-106.72454,106.72453h-57.55093v-171.5h15.5v132h71.5c0,0 1.02306,-3.46137 2.14024,-7.24117c4.03071,-13.63722 27.85976,-94.25883 27.85976,-94.25883" fill="#000000" stroke="#000000" stroke-width="10" stroke-linecap="round"/><path d="M57.89733,78.87538v-8h13.5v8z" fill="#000000" stroke="none" stroke-width="0" stroke-linecap="butt"/><path d="M88.09733,128.12536v-8h13.5v8z" fill="#000000" stroke="none" stroke-width="0" stroke-linecap="butt"/><path d="M58.29733,173.00882v-8h13.5v8z" fill="#000000" stroke="none" stroke-width="0" stroke-linecap="butt"/><path d="M88.09733,222.45878v-8h13.5v8z" fill="#000000" stroke="none" stroke-width="0" stroke-linecap="butt"/><path d="M221.19454,118.9733v-33h142v33z" fill="#000000" stroke="#000000" stroke-width="10" stroke-linecap="butt"/><path d="M335.19444,218.97328v-95h33v95z" fill="#000000" stroke="#000000" stroke-width="10" stroke-linecap="butt"/><path d="M287.52781,280.47328v-21.5h123.66667v21.5z" fill="#000000" stroke="none" stroke-width="0" stroke-linecap="butt"/><path d="M259.97686,281.04555v-78.5h28v78.5z" fill="#000000" stroke="none" stroke-width="0" stroke-linecap="butt"/><path d="M309.97686,227.54564v-7h19v7z" fill="#000000" stroke="#000000" stroke-width="1" stroke-linecap="butt"/><path d="M236.97695,230.54564v-9.5h25.5v9.5z" fill="#000000" stroke="#000000" stroke-width="1" stroke-linecap="butt"/><path d="M56.97694,291.63705v-22h141.5v22z" fill="#000000" stroke="none" stroke-width="0" stroke-linecap="butt"/><path d="M59.32416,361.97339v-71h104v71z" fill="#000000" stroke="none" stroke-width="0" stroke-linecap="butt"/><path d="M161.9769,360.97056v-30h198v30z" fill="#000000" stroke="#000000" stroke-width="1" stroke-linecap="butt"/><path d="M385.84734,361.69037v-9.5h28v9.5z" fill="#000000" stroke="#000000" stroke-width="1" stroke-linecap="butt"/><path d="M218.19454,89.9733v-10h160v10z" fill="#000000" stroke="#000000" stroke-width="1" stroke-linecap="butt"/><path d="M297.94516,48.31879h-24.9v-24.9c0,0 9.77299,0 14.20027,0c0.76489,0 -0.31988,5.03132 2.69973,8c3.01961,2.96868 7.99222,1.65657 8,2.51929c0.0274,3.03826 0,14.38071 0,14.38071z" data-paper-data="{&quot;index&quot;:null}" fill="#0a290a" stroke="#000000" stroke-width="4.5" stroke-linecap="butt"/><path d="M203.59867,22.94975c0.86272,0.00845 -0.2304,9.26703 2.51929,11.40224c3.13601,2.4352 7.26705,1.95698 9.16667,0.06435c2.13922,-2.77746 1.37049,-11.34683 1.37049,-11.34683l14.95281,0.26365l0.17777,26.66479l-42.56773,-0.00693v-27.04126c0,0 11.34245,-0.02976 14.38071,0z" data-paper-data="{&quot;index&quot;:null}" fill="#0a290a" stroke="#000000" stroke-width="4.5" stroke-linecap="butt"/><path d="M351.2575,81.81879h25.0999v25.09991c0,0 -9.85145,0 -14.31428,0c-0.77103,0 0.32245,-5.07171 -2.7214,-8.06423c-3.04385,-2.99251 -8.05638,-1.66987 -8.06422,-2.53952c-0.02762,-3.06265 0,-14.49616 0,-14.49616z" data-paper-data="{&quot;index&quot;:null}" fill="#0a290a" stroke="#000000" stroke-width="4.5" stroke-linecap="butt"/><path d="M345.09869,200.75829c0.86272,0.00778 -0.67936,7.04879 2.18595,10.16666c2.46868,2.68627 11.07657,1.94251 12.66667,0.36641c2.71065,-2.68907 1.37049,-10.4228 1.37049,-10.4228l14.95281,0.24277l0.17777,24.55334l-45.90106,-0.00638l-0.16667,-24.9z" data-paper-data="{&quot;index&quot;:null}" fill="#0a290a" stroke="#000000" stroke-width="4.5" stroke-linecap="butt"/><path d="M117.94894,198.90479c-2.83079,3.14924 -1.27584,10.65991 0.46693,12.41667c2.68907,2.71065 7.6728,1.37049 7.6728,1.37049l0.00723,14.95281l-24.55334,0.17777l0.00638,-45.31773l24.9,0.25c0,0 0.0274,11.34245 0,14.38071c0,0 -6.73039,-0.1994 -8.5,1.76928z" data-paper-data="{&quot;index&quot;:null}" fill="#0a290a" stroke="#000000" stroke-width="4.5" stroke-linecap="butt"/><path d="M428.85008,48.67954h-15.5v-15.5c0,0 5.85854,0.81603 10.33334,5.41667c4.65244,4.78327 5.16666,10.08333 5.16666,10.08333z" data-paper-data="{&quot;index&quot;:null}" fill="#0a290a" stroke="#000000" stroke-width="4.5" stroke-linecap="butt"/><path d="M204.30247,23.01287h-15.5v-15.5c0,0 5.85854,0.81603 10.33334,5.41667c4.65244,4.78327 5.16666,10.08333 5.16666,10.08333z" data-paper-data="{&quot;index&quot;:null}" fill="#0a290a" stroke="#000000" stroke-width="4.5" stroke-linecap="butt"/><path d="M48.15959,13.26287c4.4748,-4.60064 10.33334,-5.41667 10.33334,-5.41667v15.5h-15.5c0,0 0.51422,-5.30006 5.16666,-10.08333z" data-paper-data="{&quot;index&quot;:null}" fill="#0a290a" stroke="#000000" stroke-width="4.5" stroke-linecap="butt"/><path d="M48.07627,282.01286c-4.60064,-4.4748 -5.41667,-10.33334 -5.41667,-10.33334h15.5v15.5c0,0 -5.30006,-0.51422 -10.08333,-5.16666z" data-paper-data="{&quot;index&quot;:null}" fill="#0a290a" stroke="#000000" stroke-width="4.5" stroke-linecap="butt"/><path d="M151.15007,342.89435c-4.60064,-4.4748 -5.41667,-10.33334 -5.41667,-10.33334h15.5v15.5c0,0 -5.30006,-0.51422 -10.08333,-5.16666z" data-paper-data="{&quot;index&quot;:null}" fill="#0a290a" stroke="#000000" stroke-width="4.5" stroke-linecap="butt"/><path d="M136.25734,271.87595h24.9v24.9c0,0 -9.77299,0 -14.20027,0c-0.76489,0 0.31988,-5.03132 -2.69973,-8c-3.01961,-2.96868 -7.99222,-1.65657 -8,-2.51929c-0.0274,-3.03826 0,-14.38071 0,-14.38071z" data-paper-data="{&quot;index&quot;:null}" fill="#0a290a" stroke="#000000" stroke-width="4.5" stroke-linecap="butt"/><path d="M231.89217,22.79538h-15.1v-61.04804h15.1z" fill="#0a290a" stroke="#000000" stroke-width="4.5" stroke-linecap="butt"/><path d="M288.31129,23.12013h-15.1v-21.86947h15.1z" fill="#0a290a" stroke="#000000" stroke-width="4.5" stroke-linecap="butt"/><path d="M292.32662,-6.83353l-11.42857,11.42857" fill="none" stroke="#0a290a" stroke-width="11" stroke-linecap="round"/><path d="M376.83514,200.43451h-15.1v-93.73137h15.1z" fill="#0a290a" stroke="#000000" stroke-width="4.5" stroke-linecap="butt"/><path d="M412.9662,33.32135v15.1h-115.04804v-15.1z" fill="#0a290a" stroke="#000000" stroke-width="4.5" stroke-linecap="butt"/><path d="M428.57553,261.07874h-15.1v-212.21471h15.1z" fill="#0a290a" stroke="#000000" stroke-width="4.5" stroke-linecap="butt"/><path d="M262.63232,278.26401v-72.75h22.75v72.75z" fill="#0a290a" stroke="#000000" stroke-width="4.5" stroke-linecap="butt"/><path d="M262.13232,278.13901v-16.75h165.25v16.75z" fill="#0a290a" stroke="#000000" stroke-width="4.5" stroke-linecap="butt"/><path d="M273.88232,265.51401v-37.25" fill="none" stroke="#0a290a" stroke-width="18.6" stroke-linecap="round"/><path d="M413.33895,280.84711v-21.4h32.6v21.4z" fill="#051405" stroke="#000000" stroke-width="4.5" stroke-linecap="butt"/><path d="M445.71818,277.72132v-15.1h154.55718v15.1z" fill="#0a290a" stroke="#000000" stroke-width="4.5" stroke-linecap="butt"/><path d="M161.5848,347.78806v-15.1h175.09051v15.1z" fill="#0a290a" stroke="#000000" stroke-width="4.5" stroke-linecap="butt"/><path d="M237.43893,220.16006l4.8,-5.6h18.4v5.6z" fill="#0a290a" stroke="#000000" stroke-width="1" stroke-linecap="butt"/><path d="M310.23893,220.3601l4.8,-5.6h15.6l-0.4,5.6z" fill="#0a290a" stroke="#000000" stroke-width="1" stroke-linecap="butt"/><path d="M161.07322,332.62489h-15.1v-35.87423h15.1z" fill="#0a290a" stroke="#000000" stroke-width="4.5" stroke-linecap="butt"/><path d="M196.03176,271.85209v17.38571h-34.87423v-17.38571z" fill="#333333" stroke="#000000" stroke-width="4.5" stroke-linecap="butt"/><path d="M173.84219,290.52243l-11.33333,11.33333" fill="none" stroke="#000000" stroke-width="5" stroke-linecap="round"/><path d="M58.51339,287.03801v-15.1h77.41194v15.1z" fill="#0a290a" stroke="#000000" stroke-width="4.5" stroke-linecap="butt"/><path d="M58.51338,23.03803v-15.1h130.41194v15.1z" fill="#0a290a" stroke="#000000" stroke-width="4.5" stroke-linecap="butt"/><path d="M58.06935,271.49402h-15.1v-248.21194h15.1z" fill="#0a290a" stroke="#000000" stroke-width="4.5" stroke-linecap="butt"/><path d="M386.43068,351.27365l6.9085,-6.33333h18.25817v6.33333z" fill="#0a290a" stroke="#000000" stroke-width="1" stroke-linecap="butt"/><path d="M88.38304,214.45877l3.48044,-4.14286h7.44813v4.14286z" fill="#0a290a" stroke="#000000" stroke-width="0.5" stroke-linecap="butt"/><path d="M60.33304,165.17304v-4.14285h7.44814l3.48044,4.14285z" data-paper-data="{&quot;index&quot;:null}" fill="#0a290a" stroke="#000000" stroke-width="0.5" stroke-linecap="butt"/><path d="M88.66875,120.03017l3.48044,-4.14285h7.44814v4.14285z" fill="#0a290a" stroke="#000000" stroke-width="0.5" stroke-linecap="butt"/><path d="M60.3259,71.03019v-4.14285h7.44814l3.48044,4.14285z" data-paper-data="{&quot;index&quot;:null}" fill="#0a290a" stroke="#000000" stroke-width="0.5" stroke-linecap="butt"/><path d="M111.64288,65.39203v-12.08068v131.66666" fill="none" stroke="#0a290a" stroke-width="16" stroke-linecap="round"/><path d="M161.27248,212.51054v15.1h-35.04804v-15.1z" fill="#0a290a" stroke="#000000" stroke-width="4.5" stroke-linecap="butt"/><path d="M189.5225,181.51054v16.1h-62.79804v-15.1z" fill="#0a290a" stroke="#000000" stroke-width="4.5" stroke-linecap="butt"/><path d="M351.0225,81.76055v15.1h-131.04804v-15.1z" fill="#0a290a" stroke="#000000" stroke-width="4.5" stroke-linecap="butt"/><path d="M345.54849,200.70958h-15.1v-21.21471h15.1z" fill="#0a290a" stroke="#000000" stroke-width="4.5" stroke-linecap="butt"/><path d="M159.39816,220.00498c0,0 20.35527,-20.29176 33.75228,-33.64697c19.71326,-19.65176 73.08105,-72.85304 73.08105,-72.85304l71.66667,68" fill="none" stroke="#0a290a" stroke-width="11" stroke-linecap="round"/><path d="M225.17936,89.09168l-27.16666,92" fill="none" stroke="#0a290a" stroke-width="11" stroke-linecap="round"/><path d="M210.34722,38.46437v-14.5" fill="none" stroke="#0a290a" stroke-width="5" stroke-linecap="round"/><path d="M286.65414,33.39202l10,-10" fill="none" stroke="#0a290a" stroke-width="5" stroke-linecap="round"/><path d="M310.98747,24.39202v13.33334" fill="none" stroke="#0a290a" stroke-width="5" stroke-linecap="round"/><path d="M326.32079,37.05867v-12.33333" fill="none" stroke="#0a290a" stroke-width="5" stroke-linecap="round"/><path d="M341.65415,24.39202v13.66666" fill="none" stroke="#0a290a" stroke-width="5" stroke-linecap="round"/><path d="M357.32081,36.05868v-11.66666" fill="none" stroke="#0a290a" stroke-width="5" stroke-linecap="round"/><path d="M371.98747,35.05868v-11" fill="none" stroke="#0a290a" stroke-width="5" stroke-linecap="round"/><path d="M387.65415,24.05868v11.66666" fill="none" stroke="#0a290a" stroke-width="5" stroke-linecap="round"/><path d="M403.3208,23.72535v12" fill="none" stroke="#0a290a" stroke-width="5" stroke-linecap="round"/><path d="M421.32085,40.39202l8.66667,-8.66667" fill="none" stroke="#0a290a" stroke-width="5" stroke-linecap="round"/><path d="M437.47196,56.89202h-13.95349" fill="none" stroke="#0a290a" stroke-width="5" stroke-linecap="round"/><path d="M436.77429,88.63116h-12.90698" fill="none" stroke="#0a290a" stroke-width="5" stroke-linecap="round"/><path d="M422.82081,121.07565h14.30232" fill="none" stroke="#0a290a" stroke-width="5" stroke-linecap="round"/><path d="M437.12313,154.22535h-12.2093" fill="none" stroke="#0a290a" stroke-width="5" stroke-linecap="round"/><path d="M437.47196,185.25918h-11.51162" fill="none" stroke="#0a290a" stroke-width="5" stroke-linecap="round"/><path d="M437.47197,218.409h-12.2093" fill="none" stroke="#0a290a" stroke-width="5" stroke-linecap="round"/><path d="M425.26267,251.5587h12.55814" fill="none" stroke="#0a290a" stroke-width="5" stroke-linecap="round"/><path d="M436.44099,71.96452h-12.90698" fill="none" stroke="#0a290a" stroke-width="5" stroke-linecap="round"/><path d="M422.48747,104.40893h14.30232" fill="none" stroke="#0a290a" stroke-width="5" stroke-linecap="round"/><path d="M436.78979,137.5587h-12.20931" fill="none" stroke="#0a290a" stroke-width="5" stroke-linecap="round"/><path d="M437.13868,168.59255h-11.51163" fill="none" stroke="#0a290a" stroke-width="5" stroke-linecap="round"/><path d="M424.92933,201.74226h12.2093" fill="none" stroke="#0a290a" stroke-width="5" stroke-linecap="round"/><path d="M424.92933,234.89207h12.55814" fill="none" stroke="#0a290a" stroke-width="5" stroke-linecap="round"/><path d="M65.40412,-1.92581v13.95349" fill="none" stroke="#0a290a" stroke-width="5" stroke-linecap="round"/><path d="M84.34435,-1.22814v12.90698" fill="none" stroke="#0a290a" stroke-width="5" stroke-linecap="round"/><path d="M103.70547,12.72535v-14.30233" fill="none" stroke="#0a290a" stroke-width="5" stroke-linecap="round"/><path d="M123.48747,-1.57698v12.20931" fill="none" stroke="#0a290a" stroke-width="5" stroke-linecap="round"/><path d="M142.0068,9.58582v-11.51163" fill="none" stroke="#0a290a" stroke-width="5" stroke-linecap="round"/><path d="M161.78878,-1.92581v12.2093" fill="none" stroke="#0a290a" stroke-width="5" stroke-linecap="round"/><path d="M181.5708,-2.27464v12.55814" fill="none" stroke="#0a290a" stroke-width="5" stroke-linecap="round"/><path d="M49.77868,15.21068l-9.16667,-9.16666" fill="none" stroke="#0a290a" stroke-width="5" stroke-linecap="round"/><path d="M195.22775,16.46435l11,-11" fill="none" stroke="#0a290a" stroke-width="5" stroke-linecap="round"/><path d="M218.72775,-30.03565h-17.5" fill="none" stroke="#0a290a" stroke-width="5" stroke-linecap="round"/><path d="M200.22775,-15.53565h19" fill="none" stroke="#0a290a" stroke-width="5" stroke-linecap="round"/><path d="M32.17404,245.13651h13.95349" fill="none" stroke="#0a290a" stroke-width="5" stroke-linecap="round"/><path d="M32.87171,210.13651h12.90698" fill="none" stroke="#0a290a" stroke-width="5" stroke-linecap="round"/><path d="M46.8252,174.35875h-14.30232" fill="none" stroke="#0a290a" stroke-width="5" stroke-linecap="round"/><path d="M32.52288,137.80318h12.20931" fill="none" stroke="#0a290a" stroke-width="5" stroke-linecap="round"/><path d="M43.68566,103.58102h-11.51162" fill="none" stroke="#0a290a" stroke-width="5" stroke-linecap="round"/><path d="M44.38334,67.02541h-12.2093" fill="none" stroke="#0a290a" stroke-width="5" stroke-linecap="round"/><path d="M44.38334,30.46985h-12.55814" fill="none" stroke="#0a290a" stroke-width="5" stroke-linecap="round"/><path d="M31.53063,262.80319h14.88372" fill="none" stroke="#0a290a" stroke-width="5" stroke-linecap="round"/><path d="M32.27481,227.80325h13.76745" fill="none" stroke="#0a290a" stroke-width="5" stroke-linecap="round"/><path d="M31.90272,192.0254h15.25581" fill="none" stroke="#0a290a" stroke-width="5" stroke-linecap="round"/><path d="M31.90272,155.46987h13.02326" fill="none" stroke="#0a290a" stroke-width="5" stroke-linecap="round"/><path d="M31.53063,121.24765h12.27907" fill="none" stroke="#0a290a" stroke-width="5" stroke-linecap="round"/><path d="M44.55389,84.69214h-13.02326" fill="none" stroke="#0a290a" stroke-width="5" stroke-linecap="round"/><path d="M44.55389,48.13653h-13.39535" fill="none" stroke="#0a290a" stroke-width="5" stroke-linecap="round"/><path d="M136.22524,296.66092l9.86661,-9.86662" fill="none" stroke="#0a290a" stroke-width="5" stroke-linecap="round"/><path d="M120.86898,281.05319v14.30233" fill="none" stroke="#0a290a" stroke-width="5" stroke-linecap="round"/><path d="M103.7002,295.35555v-12.20931" fill="none" stroke="#0a290a" stroke-width="5" stroke-linecap="round"/><path d="M86.57943,295.70435v-11.51162" fill="none" stroke="#0a290a" stroke-width="5" stroke-linecap="round"/><path d="M67.16065,283.49505v12.2093" fill="none" stroke="#0a290a" stroke-width="5" stroke-linecap="round"/><path d="M48.93184,281.08417l-8.87994,8.87995" fill="none" stroke="#0a290a" stroke-width="5" stroke-linecap="round"/><path d="M148.41751,309.37721h-12.75" fill="none" stroke="#0a290a" stroke-width="5" stroke-linecap="round"/><path d="M144.16751,349.12724l9,-9" fill="none" stroke="#0a290a" stroke-width="5" stroke-linecap="round"/><path d="M149.41751,325.62721h-13.5" fill="none" stroke="#0a290a" stroke-width="5" stroke-linecap="round"/><path d="M350.52289,181.09631h16.30232" fill="none" stroke="#0a290a" stroke-width="5" stroke-linecap="round"/><path d="M350.18955,164.02163h13.54264" fill="none" stroke="#0a290a" stroke-width="5" stroke-linecap="round"/><path d="M349.84072,146.13624h13.17829" fill="none" stroke="#0a290a" stroke-width="5" stroke-linecap="round"/><path d="M350.17405,128.43128h13.87597" fill="none" stroke="#0a290a" stroke-width="5" stroke-linecap="round"/><path d="M353.61496,201.50463v14.33333" fill="none" stroke="#0a290a" stroke-width="5" stroke-linecap="round"/><path d="M361.61495,96.50455l-11.33333,11.33334" fill="none" stroke="#0a290a" stroke-width="5" stroke-linecap="round"/><path d="M333.61494,107.50464v-15.33333" fill="none" stroke="#0a290a" stroke-width="5" stroke-linecap="round"/><path d="M315.94829,92.83794v14.33334" fill="none" stroke="#0a290a" stroke-width="5" stroke-linecap="round"/><path d="M298.61494,106.83791v-13.66666" fill="none" stroke="#0a290a" stroke-width="5" stroke-linecap="round"/><path d="M281.61494,107.50455v-15.33333" fill="none" stroke="#0a290a" stroke-width="5" stroke-linecap="round"/><path d="M239.28162,93.50455v14.66667" fill="none" stroke="#0a290a" stroke-width="5" stroke-linecap="round"/><path d="M234.61496,121.50464l-13.33334,-3.33333" fill="none" stroke="#0a290a" stroke-width="5" stroke-linecap="round"/><path d="M224.28162,135.1712l10.16667,10.16667" fill="none" stroke="#0a290a" stroke-width="5" stroke-linecap="round"/><path d="M251.28162,101.83791l10.16667,10.16667" fill="none" stroke="#0a290a" stroke-width="5" stroke-linecap="round"/><path d="M289.78162,132.00455l10.83333,-10.83333" fill="none" stroke="#0a290a" stroke-width="5" stroke-linecap="round"/><path d="M312.61496,131.83789l-9.66667,9.66667" fill="none" stroke="#0a290a" stroke-width="5" stroke-linecap="round"/><path d="M323.28162,141.83789l-9.5,9.5" fill="none" stroke="#0a290a" stroke-width="5" stroke-linecap="round"/><path d="M334.61494,153.50455l-12.16667,12.16667" fill="none" stroke="#0a290a" stroke-width="5" stroke-linecap="round"/><path d="M110.84722,204.82732h17.5" fill="none" stroke="#0a290a" stroke-width="5" stroke-linecap="round"/><path d="M137.84722,208.32732v-15" fill="none" stroke="#0a290a" stroke-width="5" stroke-linecap="round"/><path d="M150.34722,213.32732v-11" fill="none" stroke="#0a290a" stroke-width="5" stroke-linecap="round"/><path d="M245.4885,32.57994l4.72727,3.96591h-16.47727v-3.96591z" fill="#0a290a" stroke="#000000" stroke-width="1" stroke-linecap="butt"/><path d="M172.46515,280.32662l6.09966,-6.09966l6.09966,6.09966l-6.09966,6.09966z" fill="#141414" stroke="#000000" stroke-width="2.5" stroke-linecap="butt"/><path d="M262.73148,214.61806v-9.33333h22v9.33333z" fill="#333333" stroke="#000000" stroke-width="4.5" stroke-linecap="butt"/><path d="M261.73148,278.95135v-7h151.66667v7z" fill="#333333" stroke="#000000" stroke-width="4.5" stroke-linecap="butt"/><path d="M101.23147,59.61802v-9.33334h21.5v9.33334z" fill="#333333" stroke="#000000" stroke-width="4.5" stroke-linecap="butt"/></g></g></svg>