<svg version="1.1" xmlns="http://www.w3.org/2000/svg" xmlns:xlink="http://www.w3.org/1999/xlink" width="38.78285" height="39.08632" viewBox="0,0,38.78285,39.08632"><defs><linearGradient x1="201.99291" y1="188.72255" x2="199.02307" y2="191.69239" gradientUnits="userSpaceOnUse" id="color-1"><stop offset="0" stop-color="#333333"/><stop offset="1" stop-color="#515151"/></linearGradient><linearGradient x1="247.95045" y1="175.01369" x2="231.59141" y2="175.01369" gradientUnits="userSpaceOnUse" id="color-2"><stop offset="0" stop-color="#3d3d3d"/><stop offset="1" stop-color="#2e2e2e"/></linearGradient><linearGradient x1="237.51102" y1="166.74845" x2="242.05388" y2="166.74845" gradientUnits="userSpaceOnUse" id="color-3"><stop offset="0" stop-color="#054e00"/><stop offset="1" stop-color="#1aa800"/></linearGradient><linearGradient x1="251.93553" y1="167.26491" x2="258.1536" y2="163.8656" gradientUnits="userSpaceOnUse" id="color-4"><stop offset="0" stop-color="#00cb24"/><stop offset="1" stop-color="#062505"/></linearGradient><linearGradient x1="239.54037" y1="175.43523" x2="239.54037" y2="183.35189" gradientUnits="userSpaceOnUse" id="color-5"><stop offset="0" stop-color="#101010"/><stop offset="1" stop-color="#202020"/></linearGradient></defs><g transform="translate(-230.71925,-156.4924)"><g data-paper-data="{&quot;isPaintingLayer&quot;:true}" fill-rule="nonzero" stroke-linejoin="miter" stroke-miterlimit="10" stroke-dasharray="" stroke-dashoffset="0" style="mix-blend-mode: normal"><path d="M238.13703,169.3097c0,0 4.17599,-0.20272 6.36787,0.52156c2.54643,0.84143 8.00713,4.22844 8.00713,4.22844" data-paper-data="{&quot;index&quot;:null}" fill="none" stroke="#000000" stroke-width="2" stroke-linecap="round"/><path d="M236.20907,194.37872c-1.82354,0 -3.30181,-1.6045 -3.30181,-3.58375c0,-1.97925 1.47827,-3.58375 3.30181,-3.58375c1.82354,0 3.30181,1.6045 3.30181,3.58375c0,1.97925 -1.47827,3.58375 -3.30181,3.58375z" data-paper-data="{&quot;index&quot;:null}" fill="#232323" stroke="#000000" stroke-width="2" stroke-linecap="butt"/><path d="M239.39478,194.27872c-1.82354,0 -3.30181,-1.6045 -3.30181,-3.58374c0,-1.97925 1.47827,-3.58374 3.30181,-3.58374c1.82354,0 3.30181,1.6045 3.30181,3.58374c0,1.97925 -1.47826,3.58374 -3.30181,3.58374z" data-paper-data="{&quot;index&quot;:null}" fill="#232323" stroke="#000000" stroke-width="2" stroke-linecap="butt"/><path d="M242.7805,194.57872c-1.82354,0 -3.30181,-1.60451 -3.30181,-3.58375c0,-1.97925 1.47827,-3.58374 3.30181,-3.58374c1.82354,0 3.30181,1.6045 3.30181,3.58374c0,1.97925 -1.47826,3.58375 -3.30181,3.58375z" data-paper-data="{&quot;index&quot;:null}" fill="#232323" stroke="#000000" stroke-width="2" stroke-linecap="butt"/><path d="" fill="url(#color-1)" stroke="#000000" stroke-width="1.5" stroke-linecap="butt"/><path d="M247.95045,190.35892c0,0 -1.73117,0 -3.13777,0c-0.8718,0 -3.15539,-1.43258 -4.89552,-1.43258c-2.07497,0 -3.68642,1.43258 -5.47026,1.43258c-1.67477,0 -2.8555,0 -2.8555,0c0,0 -0.12215,-23.59765 -0.12215,-28.38946c0,-1.72308 1.26656,-4.72706 2.4634,-4.72706c3.3275,0 9.50032,0 11.36069,0c0.8925,0 2.53625,2.50574 2.53625,4.16098c0,4.72687 0.12086,28.95553 0.12086,28.95553z" data-paper-data="{&quot;index&quot;:null}" fill="url(#color-2)" stroke="#000000" stroke-width="1.5" stroke-linecap="butt"/><path d="M237.51102,172.44845v-11.4h4.54286v11.4z" fill="url(#color-3)" stroke="#000000" stroke-width="1.5" stroke-linecap="butt"/><g stroke-linecap="butt"><path d="M247.31275,169.62497c0,0 -0.93206,-0.54552 -1.2264,-0.91699c-0.2682,-0.33846 -0.46852,-1.22205 -0.46852,-1.22205c0,0 5.50135,-1.78124 8.00145,-3.14801c1.46223,-0.79937 3.95723,-2.26508 4.99537,-3.5195c0.77678,-0.93858 0.3113,-1.83407 0.3113,-1.83407c0,0 1.23252,0.38901 1.68699,0.72396c0.51575,0.38012 1.24695,1.43844 1.24695,1.43844z" fill="#6d6d6d" stroke="#000000" stroke-width="0.75"/><path d="M255.26926,171.94919c0,0 -1.04578,-0.35129 -1.31097,-0.6507c-0.25223,-0.28476 -1.07476,-0.64946 -1.07476,-0.64946l0.57033,-0.71486c0,0 0.88845,0.30398 1.1475,0.59643c0.25905,0.29245 0.66791,1.41856 0.66791,1.41856z" fill="#9d1919" stroke="#000000" stroke-width="0.5"/><path d="M251.13758,176.2908c0,0 -3.95575,-2.26638 -3.83273,-5.81772c0.08394,-2.42299 3.64135,-6.23364 5.45988,-7.2278c3.03974,-1.66178 6.94598,-1.65994 8.12481,-2.30438c0.97022,-0.53041 1.66429,-0.16003 1.96718,0.39398c0.17168,0.31405 -0.74744,1.37939 -0.48135,1.86613c0.40577,0.74226 2.14791,1.18236 2.56164,1.93916c0.30163,0.55177 -0.12,2.06934 -0.12,2.06934c0,0 -1.58768,1.55487 -2.89008,1.57997c-1.3024,0.02509 -2.68197,-1.47262 -2.68197,-1.47262c0,0 -5.44432,1.81268 -6.8912,3.49447c-1.44688,1.68178 1.41343,1.61665 1.19235,3.39693c-0.23556,1.89676 0.82335,2.67425 0.39696,3.38102c-1.11552,1.84901 -2.80545,-1.29847 -2.80545,-1.29847z" fill="#292929" stroke="#000000" stroke-width="1"/><path d="M261.78671,164.81836c0,0 -0.94606,-0.39345 -1.16369,-0.74674c-0.16291,-0.26445 -0.02612,-1.18469 -0.02612,-1.18469l7.3208,-4.00217c0,0 0.81853,0.35713 0.99463,0.67925c0.18563,0.33955 0.09208,1.30855 0.09208,1.30855z" fill="#121212" stroke="#000000" stroke-width="1"/><path d="M252.40089,168.11615c0,0 -0.48382,-0.51526 -0.62901,-0.78085c-0.16299,-0.29814 -0.30171,-0.92162 -0.30171,-0.92162l6.21807,-3.39931c0,0 0.44996,0.45335 0.61295,0.75149c0.14519,0.26558 0.31777,0.95099 0.31777,0.95099z" fill="url(#color-4)" stroke="#000000" stroke-width="1"/><path d="M249.61589,168.44079c-0.11056,-0.20223 -0.04922,-0.44871 0.13699,-0.5505c0.18622,-0.1018 0.4268,-0.02039 0.53736,0.18185c0.11056,0.20223 0.04922,0.44871 -0.13699,0.5505c-0.18622,0.1018 -0.4268,0.02039 -0.53736,-0.18185z" fill="#0d0d0d" stroke="none" stroke-width="0.5"/><path d="M250.98312,169.03702c-0.11056,-0.20223 -0.04922,-0.44871 0.13699,-0.5505c0.18622,-0.1018 0.4268,-0.02039 0.53736,0.18185c0.11056,0.20223 0.04922,0.44871 -0.13699,0.5505c-0.18622,0.1018 -0.4268,0.02039 -0.53736,-0.18185z" fill="#0d0d0d" stroke="none" stroke-width="0.5"/><path d="M248.50274,170.99831c-0.11056,-0.20223 -0.04922,-0.44871 0.13699,-0.5505c0.18622,-0.1018 0.4268,-0.02039 0.53736,0.18185c0.11056,0.20223 0.04922,0.44871 -0.13699,0.5505c-0.18622,0.1018 -0.4268,0.02039 -0.53736,-0.18185z" fill="#0d0d0d" stroke="none" stroke-width="0.5"/><path d="M249.93381,170.99424c-0.11056,-0.20223 -0.04922,-0.44871 0.13699,-0.5505c0.18622,-0.1018 0.4268,-0.02039 0.53736,0.18185c0.11056,0.20223 0.04922,0.44871 -0.13699,0.5505c-0.18622,0.1018 -0.4268,0.02039 -0.53736,-0.18185z" fill="#0d0d0d" stroke="none" stroke-width="0.5"/><path d="M252.92931,177.81117c0,0 -0.18831,-0.26632 -0.51708,-0.71547c-0.3144,-0.4295 -0.76134,-1.03372 -1.11918,-1.41068c-0.34302,-0.36135 -1.0676,-0.56645 -1.60259,-1.04639c-0.75401,-0.67641 -0.89411,-1.22654 -0.89411,-1.22654c0,0 0.79111,-0.99065 1.27536,-1.24269c0.44226,-0.23019 1.51561,-0.20991 1.51561,-0.20991c0,0 -0.01436,0.20034 0.49478,0.75968c0.28974,0.31829 0.78589,0.56681 0.97843,0.91901c0.18498,0.33838 0.24889,1.70482 0.20643,2.3477c-0.05603,0.84833 0.40012,1.1833 0.40012,1.1833c0,0 -0.18282,0.30858 -0.29281,0.4043c-0.13192,0.11479 -0.44496,0.23771 -0.44496,0.23771z" fill="#0d0d0d" stroke="#000000" stroke-width="0.5"/><path d="M262.41353,166.33852c-0.11056,-0.20223 -0.04922,-0.44871 0.13699,-0.5505c0.18622,-0.1018 0.4268,-0.02039 0.53736,0.18185c0.11056,0.20223 0.04922,0.44871 -0.13699,0.5505c-0.18622,0.1018 -0.4268,0.02039 -0.53736,-0.18185z" fill="#0d0d0d" stroke="none" stroke-width="0.5"/><path d="M260.82198,166.63166c-0.11056,-0.20223 -0.04922,-0.44871 0.13699,-0.5505c0.18622,-0.1018 0.4268,-0.02039 0.53736,0.18185c0.11056,0.20223 0.04922,0.44871 -0.13699,0.5505c-0.18622,0.1018 -0.4268,0.02039 -0.53736,-0.18185z" fill="#0d0d0d" stroke="none" stroke-width="0.5"/><path d="M258.91095,163.50567c-0.11056,-0.20223 -0.04922,-0.44871 0.13699,-0.5505c0.18622,-0.1018 0.4268,-0.02039 0.53736,0.18185c0.11056,0.20223 0.04922,0.44871 -0.13699,0.5505c-0.18622,0.1018 -0.4268,0.02039 -0.53736,-0.18185z" fill="#0d0d0d" stroke="none" stroke-width="0.5"/><path d="M259.39879,165.50726c-0.11056,-0.20223 -0.04922,-0.44871 0.13699,-0.5505c0.18622,-0.1018 0.4268,-0.02039 0.53736,0.18185c0.11056,0.20223 0.04922,0.44871 -0.13699,0.5505c-0.18622,0.1018 -0.4268,0.02039 -0.53736,-0.18185z" fill="#0d0d0d" stroke="none" stroke-width="0.5"/></g><path d="M252.76202,174.78359c0,0 -5.46069,3.38701 -8.00712,4.22844c-2.19189,0.72428 -6.36788,0.52156 -6.36788,0.52156" fill="none" stroke="#000000" stroke-width="2" stroke-linecap="round"/><path d="M235.58204,179.39356l3.95833,-3.95833l3.95833,3.95833l-3.95833,3.95833z" fill="url(#color-5)" stroke="#000000" stroke-width="1.5" stroke-linecap="butt"/></g></g></svg>