<svg version="1.1" xmlns="http://www.w3.org/2000/svg" xmlns:xlink="http://www.w3.org/1999/xlink" width="178.77329" height="94.20608" viewBox="0,0,178.77329,94.20608"><defs><linearGradient x1="237.87024" y1="147.08402" x2="238.91538" y2="184.01292" gradientUnits="userSpaceOnUse" id="color-1"><stop offset="0" stop-color="#0f0f0f"/><stop offset="1" stop-color="#0c0c0c"/></linearGradient><linearGradient x1="237.86652" y1="147.08644" x2="238.80673" y2="184.01816" gradientUnits="userSpaceOnUse" id="color-2"><stop offset="0" stop-color="#0f0f0f"/><stop offset="1" stop-color="#0c0c0c"/></linearGradient><linearGradient x1="237.32395" y1="146.54099" x2="237.79887" y2="165.19461" gradientUnits="userSpaceOnUse" id="color-3"><stop offset="0" stop-color="#1f180f"/><stop offset="1" stop-color="#0d0b07"/></linearGradient><linearGradient x1="238.22912" y1="163.16495" x2="238.44702" y2="168.43648" gradientUnits="userSpaceOnUse" id="color-4"><stop offset="0" stop-color="#1f180f"/><stop offset="1" stop-color="#0d0b07"/></linearGradient><linearGradient x1="239.65537" y1="163.87185" x2="240.04789" y2="169.20061" gradientUnits="userSpaceOnUse" id="color-5"><stop offset="0" stop-color="#0f0f0f"/><stop offset="1" stop-color="#0c0c0c"/></linearGradient><linearGradient x1="249.17961" y1="189.12843" x2="249.4841" y2="194.72125" gradientUnits="userSpaceOnUse" id="color-6"><stop offset="0" stop-color="#1f180f"/><stop offset="1" stop-color="#0d0b07"/></linearGradient><linearGradient x1="230.31097" y1="189.15429" x2="230.05944" y2="194.75452" gradientUnits="userSpaceOnUse" id="color-7"><stop offset="0" stop-color="#1f180f"/><stop offset="1" stop-color="#0d0b07"/></linearGradient><linearGradient x1="237.47254" y1="116.02158" x2="238.1091" y2="140.61422" gradientUnits="userSpaceOnUse" id="color-8"><stop offset="0" stop-color="#343434"/><stop offset="1" stop-color="#1f1f1f"/></linearGradient><linearGradient x1="238.00699" y1="139.76066" x2="238.56169" y2="159.36049" gradientUnits="userSpaceOnUse" id="color-9"><stop offset="0" stop-color="#0f0f0f"/><stop offset="1" stop-color="#0c0c0c"/></linearGradient><linearGradient x1="237.38017" y1="138.48487" x2="237.48391" y2="142.55947" gradientUnits="userSpaceOnUse" id="color-10"><stop offset="0" stop-color="#0f0f0f"/><stop offset="1" stop-color="#0c0c0c"/></linearGradient><linearGradient x1="221.94346" y1="142.09411" x2="228.58973" y2="152.68075" gradientUnits="userSpaceOnUse" id="color-11"><stop offset="0" stop-color="#0f0f0f"/><stop offset="1" stop-color="#0c0c0c"/></linearGradient><linearGradient x1="377.45708" y1="178.3412" x2="385.52007" y2="168.01204" gradientUnits="userSpaceOnUse" id="color-12"><stop offset="0" stop-color="#1b1b1b"/><stop offset="1" stop-color="#343434"/></linearGradient><linearGradient x1="374.29974" y1="182.8087" x2="366.12685" y2="193.05109" gradientUnits="userSpaceOnUse" id="color-13"><stop offset="0" stop-color="#1b1b1b"/><stop offset="1" stop-color="#343434"/></linearGradient><linearGradient x1="254.23309" y1="159.70485" x2="271.63646" y2="159.1596" gradientUnits="userSpaceOnUse" id="color-14"><stop offset="0" stop-color="#122639"/><stop offset="1" stop-color="#141f2b"/></linearGradient><linearGradient x1="254.32171" y1="159.86883" x2="271.72512" y2="159.32359" gradientUnits="userSpaceOnUse" id="color-15"><stop offset="0" stop-color="#310b0b"/><stop offset="1" stop-color="#3a0909"/></linearGradient><linearGradient x1="263.59967" y1="156.86849" x2="263.79145" y2="162.99049" gradientUnits="userSpaceOnUse" id="color-16"><stop offset="0" stop-color="#000000"/><stop offset="1" stop-color="#0c0c0c"/></linearGradient><linearGradient x1="264.58292" y1="156.7126" x2="264.78258" y2="163.08448" gradientUnits="userSpaceOnUse" id="color-17"><stop offset="0" stop-color="#0f0f0f"/><stop offset="1" stop-color="#0c0c0c"/></linearGradient></defs><g transform="translate(-216.86226,-107.29902)"><g data-paper-data="{&quot;isPaintingLayer&quot;:true}" fill-rule="nonzero" stroke-linejoin="miter" stroke-miterlimit="10" stroke-dasharray="" stroke-dashoffset="0" style="mix-blend-mode: normal"><path d="M222.15156,158.93208c-1.24006,-5.19912 -4.08306,-11.27099 -4.08306,-11.27099l39.68893,1.86529c0,0 -3.54295,4.85174 -5.32849,9.92095c-1.61962,4.59814 1.56904,16.04914 1.06244,20.35846c-0.12483,1.06185 -8.22928,4.02223 -15.57133,4.23617c-7.04048,0.20516 -15.37882,-1.64389 -15.37882,-1.64389c0,0 0.99678,-17.65318 -0.38965,-23.46596z" fill="url(#color-1)" stroke="#000000" stroke-width="1.5" stroke-linecap="butt"/><path d="M247.23796,130.77173c0.12408,4.76901 -4.20929,8.74922 -9.67882,8.89006c-5.46954,0.14083 -10.00408,-3.61106 -10.12814,-8.38004c-0.12408,-4.76901 4.2093,-8.74922 9.67883,-8.89006c5.46955,-0.14082 10.00407,3.61106 10.12813,8.38004z" fill="#505050" stroke="#000000" stroke-width="1.5" stroke-linecap="butt"/><path d="M222.11424,158.88979c-1.22529,-5.20263 -2.55102,-11.28255 -2.55102,-11.28255l38.18347,1.97805c0,0 -3.55673,4.84166 -5.35666,9.90577c-1.63268,4.59352 1.52344,16.05353 1.00458,20.3614c-0.12785,1.06149 -8.24068,3.99883 -15.5833,4.19192c-7.04103,0.18516 -15.37409,-1.68757 -15.37409,-1.68757c0,0 1.04693,-17.65027 -0.32298,-23.46698z" fill="url(#color-2)" stroke="#000000" stroke-width="1.5" stroke-linecap="butt"/><path d="M244.60461,191.45997c-0.86375,0.11846 -1.77586,-0.82016 -2.71382,-4.46523c-0.28674,-1.11436 -0.80574,-4.2276 -1.0348,-5.42492c-0.29629,-1.54874 -0.10102,-3.18728 -0.24272,-4.59955c-0.31354,-3.12482 -0.71788,-5.45332 -0.71788,-5.45332c0,0 2.76793,-1.10891 4.99304,-1.41409c2.22511,-0.30518 5.13493,0.1709 5.13493,0.1709c0,0 -0.32856,1.87987 -0.27491,4.84112c0.02582,1.42524 0.40887,3.37274 0.45103,4.9672c0.04852,1.83592 -0.27986,2.4574 -0.17816,4.15154c0.11416,1.90162 0.65654,4.77366 0.65654,4.77366c0,0 -5.54835,2.38068 -6.07329,2.45268z" data-paper-data="{&quot;index&quot;:null}" fill="#060606" stroke="#000000" stroke-width="1.5" stroke-linecap="butt"/><path d="M225.0156,190.11986c-0.89913,-0.26058 -0.72437,-1.11263 -0.03833,-4.81353c0.20975,-1.13143 2.12561,-4.42293 2.42846,-5.60492c0.39176,-1.52889 -0.40384,-3.0656 0.07936,-4.40512c1.06913,-2.96374 1.69846,-5.24493 1.69846,-5.24493c0,0 3.20256,0.17451 5.51879,0.84578c2.31622,0.67128 4.95973,2.34175 4.95973,2.34175c0,0 -1.15029,1.56269 -2.40224,4.2676c-0.60253,1.30186 0.11135,3.32395 -0.54975,4.78605c-0.76117,1.68348 -1.02917,2.2998 -1.67577,3.87753c-0.72577,1.77093 -2.98322,4.31489 -2.98322,4.31489c0,0 -6.48909,-0.20675 -7.03549,-0.3651z" data-paper-data="{&quot;index&quot;:null}" fill="#060606" stroke="#000000" stroke-width="1.5" stroke-linecap="butt"/><path d="M227.03053,150.83195c-0.53901,0.00882 -5.33008,-6.58295 -2.6668,-8.2365c4.6412,-2.88157 10.45516,-1.57779 12.75919,-1.63681c1.95855,-0.05017 8.74257,-1.96027 13.18146,0.66621c1.92333,1.13803 -4.0141,8.50924 -4.06142,8.76912c-0.86125,4.72927 0.31659,8.73379 0.69551,10.07177c0.11405,0.40273 0.43773,1.81947 0.86826,3.32539c0.38098,1.33262 1.32851,6.88923 1.37842,8.11477c0.04395,1.07894 -0.1742,3.03211 -0.1742,3.03211c0,0 -5.95119,1.24026 -11.14962,1.43373c-4.37088,0.16267 -9.02437,-0.55035 -9.90666,-1.13027c-2.07728,-1.36539 0.39966,-10.53358 0.74292,-12.53088c0,0 0.16143,-11.90852 -1.66707,-11.87863z" fill="#505050" stroke="#000000" stroke-width="1.5" stroke-linecap="butt"/><path d="M228.41386,148.02384l3.78399,-1.34803c0,0 4.03455,5.58129 6.53775,8.15714c2.66052,2.73773 7.64923,6.78274 7.64923,6.78274l0.35595,3.34377c0,0 -8.17373,-4.98025 -10.91984,-7.76668c-2.79054,-2.8315 -7.40712,-9.16895 -7.40712,-9.16895z" fill="url(#color-3)" stroke="#000000" stroke-width="1.5" stroke-linecap="butt"/><path d="M228.76455,163.5641c0,0 6.95208,1.41579 9.63442,1.61033c2.8509,0.20679 9.81929,-0.76924 9.81929,-0.76924l0.83162,3.38737c0,0 -7.48422,0.70239 -10.40301,0.51457c-2.96603,-0.19089 -10.90165,-1.61995 -10.90165,-1.61995z" fill="url(#color-4)" stroke="#000000" stroke-width="1.5" stroke-linecap="butt"/><path d="M236.9731,166.30041c0.05528,-0.49461 0.0081,-1.22046 0.31311,-1.59441c0.58742,-0.7201 1.80655,-0.8804 2.84992,-0.79729c0.90075,0.07174 1.86597,0.36053 2.32593,0.99509c0.3495,0.48215 0.32124,1.22901 0.25142,1.85385c-0.08857,0.79247 -0.38728,1.65555 -1.04994,2.08753c-0.54744,0.3569 -1.39594,0.36128 -2.1131,0.30417c-0.8201,-0.06532 -1.72848,-0.28423 -2.19525,-0.8294c-0.43545,-0.5086 -0.46016,-1.32109 -0.3821,-2.01954z" fill="url(#color-5)" stroke="#000000" stroke-width="1.5" stroke-linecap="butt"/><path d="M251.82171,189.01117c3.59929,0.07705 4.15687,1.89143 4.10645,3.40267c-0.0504,1.51123 -2.36599,2.30452 -5.96527,2.22744c-3.59929,-0.07705 -7.16402,0.34479 -7.11362,-1.16641c0.02106,-0.63162 -0.52862,-2.81122 0.81452,-3.36313c0,0 6.06293,-1.14542 8.15793,-1.10056z" data-paper-data="{&quot;index&quot;:null}" fill="url(#color-6)" stroke="#000000" stroke-width="1.5" stroke-linecap="butt"/><path d="M232.95099,189.26514c3.57296,0.38698 3.94779,2.24332 3.74782,3.74513c-0.19996,1.5018 -2.58216,2.09282 -6.1551,1.70581c-3.57296,-0.38698 -7.161,-0.27381 -6.96106,-1.77559c0.08359,-0.62768 -0.24718,-2.84731 1.14368,-3.2816c0,0 6.145,-0.61899 8.22468,-0.39373z" data-paper-data="{&quot;index&quot;:null}" fill="url(#color-7)" stroke="#000000" stroke-width="1.5" stroke-linecap="butt"/><path d="M241.0425,132.62834c0.08493,-1.08748 1.12267,-1.89343 2.31785,-1.8001c1.19516,0.09333 2.09521,1.05059 2.01028,2.13808c-0.08493,1.08748 -1.12265,1.89344 -2.31782,1.8001c-1.19516,-0.09333 -2.09524,-1.0506 -2.0103,-2.1381z" fill="#000000" stroke="#000000" stroke-width="0" stroke-linecap="butt"/><path d="M233.17378,133.35047c-0.02887,-1.11581 0.94181,-2.04609 2.16811,-2.07783c1.22628,-0.03174 2.2438,0.84709 2.27266,1.9629c0.02887,1.11581 -0.94182,2.0461 -2.16809,2.07783c-1.22628,0.03174 -2.24382,-0.84709 -2.27268,-1.9629z" fill="#000000" stroke="#000000" stroke-width="0" stroke-linecap="butt"/><g stroke-width="0.875"><path d="M225.22044,128.64322c-0.17578,-6.79106 5.30969,-12.44197 12.25207,-12.62168c6.94242,-0.1797 12.92285,5.17443 13.09864,11.96552c0,0 -2.53608,3.0766 -7.95385,3.91122c-7.00864,1.07969 -17.31988,-0.27984 -17.3969,-3.25504z" fill="url(#color-8)" stroke="#000000" stroke-linecap="butt"/><path d="M250.44523,127.68041c0.11907,0.46178 -0.47647,2.06145 -0.47647,2.06145c0,0 -2.64478,2.65525 -11.93368,2.79706c-9.90594,0.15122 -12.69964,-3.09635 -12.69964,-3.09635c0,0 -0.43957,-1.06125 -0.34372,-1.44685c0.11228,-0.45157 0.36966,-1.3145 0.36966,-1.3145c0,0 7.96501,2.70514 12.90132,2.55418c4.93631,-0.15095 11.92884,-3.01431 11.92884,-3.01431c0,0 0.13956,1.01654 0.2537,1.45931z" fill="#0e0e0e" stroke="#000000" stroke-linecap="round"/><path d="M229.36867,118.77693c0,0 1.39567,-0.94092 1.99958,-1.29773c0.61647,-0.36426 1.57315,-0.69322 1.57315,-0.69322c0,0 5.4208,1.09757 7.86573,3.19411c2.44495,2.09654 4.8301,7.53992 4.8301,7.53992c0,0 -1.52506,0.55442 -2.03969,0.72032c-0.65834,0.21222 -1.93088,0.39924 -1.93088,0.39924c0,0 -1.39813,-4.91025 -3.95523,-6.99276c-2.55707,-2.08248 -8.34277,-2.86986 -8.34277,-2.86986z" fill="#0e0e0e" stroke="#000000" stroke-linecap="round"/><path d="M229.50885,123.19688c-0.89479,0.57507 -2.59185,0.36186 -2.59185,0.36186c0,0 -1.89948,-3.78788 -2.41705,-5.81446c-0.51131,-2.00203 -0.66981,-6.27237 -0.66981,-6.27237c0,0 2.40117,4.29127 3.62979,5.94096c1.12453,1.50991 3.45726,3.575 3.45726,3.575c0,0 -0.51355,1.63392 -1.40833,2.20901z" fill="#0e0e0e" stroke="#000000" stroke-linecap="butt"/><path d="M242.21264,117.20558c0,0 1.32508,-1.0034 1.69674,-2.50423c0.40605,-1.63974 0.80756,-5.67045 0.80756,-5.67045c0,0 1.43851,3.35203 1.75288,5.05261c0.31823,1.72143 0.14511,5.21433 0.14511,5.21433c0,0 -1.46266,0.43579 -2.41114,0.255c-0.94848,-0.18081 -1.99114,-2.34724 -1.99114,-2.34724z" data-paper-data="{&quot;index&quot;:null}" fill="#0e0e0e" stroke="#000000" stroke-linecap="butt"/><path d="M243.90324,129.92427c-0.01339,-0.51708 0.43642,-0.94818 1.00471,-0.96288c0.56827,-0.01471 1.03979,0.39254 1.05319,0.90961c0.01339,0.51708 -0.43641,0.94818 -1.00471,0.96289c-0.56827,0.01471 -1.03979,-0.39253 -1.05318,-0.90962z" fill="#000000" stroke="none" stroke-linecap="butt"/><path d="M247.08931,128.78238c-0.01339,-0.51708 0.43641,-0.94818 1.0047,-0.96289c0.56827,-0.01471 1.0398,0.39255 1.05319,0.90962c0.01339,0.51707 -0.43642,0.94818 -1.00473,0.96286c-0.56827,0.01471 -1.03978,-0.39253 -1.05318,-0.90961z" fill="#000000" stroke="none" stroke-linecap="butt"/><path d="M240.83296,130.64514c-0.01339,-0.51708 0.43642,-0.94818 1.00471,-0.96288c0.56827,-0.01471 1.03979,0.39253 1.05319,0.90961c0.01339,0.51708 -0.43642,0.94819 -1.00471,0.96289c-0.56827,0.01471 -1.03979,-0.39254 -1.05318,-0.90962z" fill="#000000" stroke="none" stroke-linecap="butt"/><path d="M237.1995,131.02745c-0.01339,-0.51708 0.43642,-0.94819 1.00471,-0.96289c0.56827,-0.01471 1.0398,0.39253 1.05319,0.90962c0.01339,0.51708 -0.43642,0.94819 -1.00472,0.96287c-0.56827,0.01471 -1.03979,-0.39253 -1.05318,-0.90962z" fill="#000000" stroke="none" stroke-linecap="butt"/><path d="M233.60654,130.83221c-0.01339,-0.51708 0.43642,-0.94818 1.00473,-0.96286c0.56827,-0.01471 1.03979,0.39253 1.05319,0.90961c0.01339,0.51708 -0.43642,0.94819 -1.00471,0.96289c-0.56827,0.01471 -1.0398,-0.39254 -1.05319,-0.90962z" fill="#000000" stroke="none" stroke-linecap="butt"/><path d="M229.83321,130.09385c-0.01339,-0.51708 0.43641,-0.94817 1.0047,-0.96288c0.56827,-0.01471 1.0398,0.39253 1.0532,0.9096c0.01339,0.51708 -0.43642,0.94819 -1.00472,0.96287c-0.56827,0.01471 -1.03978,-0.39252 -1.05317,-0.90962z" fill="#000000" stroke="none" stroke-linecap="butt"/><path d="M226.53426,129.01894c-0.01339,-0.51708 0.43642,-0.94818 1.00471,-0.96288c0.56827,-0.01471 1.03979,0.39254 1.05319,0.90961c0.01339,0.51708 -0.43641,0.94818 -1.00471,0.96289c-0.56827,0.01471 -1.03979,-0.39254 -1.05318,-0.90962z" fill="#000000" stroke="none" stroke-linecap="butt"/><path d="M242.0567,126.28578c-0.01339,-0.51708 0.43642,-0.94818 1.00471,-0.96288c0.56827,-0.01471 1.03979,0.39254 1.05319,0.90961c0.01339,0.51708 -0.43641,0.94818 -1.00471,0.96289c-0.56827,0.01471 -1.03979,-0.39254 -1.05318,-0.90962z" fill="#000000" stroke="none" stroke-linecap="butt"/><path d="M240.29179,123.35507c-0.01339,-0.51708 0.43641,-0.94818 1.00471,-0.96289c0.56827,-0.01471 1.03979,0.39255 1.05318,0.90962c0.01339,0.51708 -0.43643,0.94818 -1.00471,0.96288c-0.56827,0.01471 -1.03979,-0.39254 -1.05319,-0.90961z" fill="#000000" stroke="none" stroke-linecap="butt"/><path d="M237.91717,120.50501c-0.01339,-0.51708 0.43641,-0.94817 1.00471,-0.96288c0.56827,-0.01471 1.03979,0.39254 1.05319,0.90961c0.01339,0.51708 -0.43642,0.94819 -1.00471,0.96289c-0.56827,0.01471 -1.03979,-0.39254 -1.05318,-0.90962z" fill="#000000" stroke="none" stroke-linecap="butt"/><path d="M233.70821,118.69516c-0.01339,-0.51708 0.43643,-0.94819 1.00471,-0.96289c0.56827,-0.01471 1.0398,0.39254 1.05319,0.90962c0.01339,0.51708 -0.43642,0.94819 -1.00472,0.96287c-0.56827,0.01471 -1.03979,-0.39255 -1.05318,-0.90962z" fill="#000000" stroke="none" stroke-linecap="butt"/></g><path d="M220.91373,142.397c1.9121,-1.51416 6.60983,-2.5089 10.91094,-2.20612c2.09456,0.14745 4.42344,1.56953 5.65873,1.52833c4.49387,-0.14989 7.50291,-1.97517 7.52752,-1.97366c0.36239,0.02256 6.11271,-0.98374 7.75674,0.58015c0.70606,0.67164 2.89159,2.49117 3.2606,2.79299c0.39549,0.32343 2.1611,2.09097 3.12799,3.56042c1.23607,1.87855 -1.93407,2.07538 -1.92815,4.32489c0.00592,2.24951 2.5413,2.57119 1.95095,4.33786c-0.95465,2.85687 -2.19438,6.09539 -3.10627,6.44133c-1.47735,0.56048 -2.03224,1.29647 -4.22287,0.80566c-1.89819,-0.42529 -4.90664,-3.21739 -6.40841,-4.05481c-4.65427,-2.59537 -11.82545,-7.86636 -14.27698,-8.60047c-2.40015,-0.71871 -10.32709,3.74384 -11.30674,1.09822c-0.97965,-2.64562 -1.02608,-5.79884 -1.02608,-5.79884c0,0 -0.27307,-0.97096 2.08204,-2.83593z" data-paper-data="{&quot;index&quot;:null}" fill="url(#color-9)" stroke="#000000" stroke-width="1.5" stroke-linecap="butt"/><path d="M231.17869,141.73685l-0.07543,-2.96336c0,0 3.86974,1.11703 5.83837,1.04587c2.19283,-0.07924 6.71866,-1.49967 6.71866,-1.49967l0.07859,3.08681c0,0 -3.85987,1.08995 -5.85296,1.14235c-2.17735,0.05726 -6.70725,-0.81204 -6.70725,-0.81204z" fill="url(#color-10)" stroke="#000000" stroke-width="1" stroke-linecap="butt"/><path d="M245.00552,156.85673l-9.35023,-3.63554l-8.11773,-2.20677c0,0 -1.75544,-1.56635 -2.14366,-4.06229c-0.26643,-1.71296 1.07103,-3.36997 1.80594,-3.83382c2.33578,-1.47427 6.96944,-0.19114 10.54437,1.29535c3.57493,1.48651 12.57081,5.16023 12.49984,5.56237c-0.37831,2.1441 -5.23855,6.8807 -5.23855,6.8807z" data-paper-data="{&quot;index&quot;:null}" fill="#505050" stroke="#000000" stroke-width="1.5" stroke-linecap="butt"/><path d="M219.36859,149.87575c-0.90632,-0.90165 -1.34116,-3.30782 -0.42269,-5.12462c1.36256,-2.69521 4.58319,-4.83321 4.58319,-4.83321c0,0 6.729,-0.66999 8.56431,2.25343c0.82737,1.3179 -3.86877,2.76314 -4.25346,4.91693c-0.3847,2.1538 3.87438,4.0537 1.40237,4.56084c-2.472,0.50713 -7.82921,0.26063 -9.87375,-1.77337z" fill="url(#color-11)" stroke="#000000" stroke-width="1.5" stroke-linecap="butt"/><g stroke="#000000"><g data-paper-data="{&quot;index&quot;:null}" stroke-linecap="round"><path d="M375.52683,162.80635l2.07612,-2.40487l1.93302,2.93487l3.0913,-1.98533l1.54463,2.57819l3.53696,-0.60906l0.93686,3.53437l3.30883,-0.24267l-0.59351,3.45865l3.03573,0.74756l-2.03491,2.41239l2.83497,1.28497l-3.23528,3.11821" data-paper-data="{&quot;index&quot;:null}" fill="#000000" stroke-width="0.5"/><path d="M374.78601,163.54498c0,0 7.42116,-1.47811 11.79355,2.10208c7.00755,5.73788 4.98213,12.52783 4.98213,12.52783l-11.31954,3.03857l-11.20894,-8.06982z" data-paper-data="{&quot;index&quot;:null}" fill="#000000" stroke-width="0.5"/><path d="M383.44826,170.78665l3.18636,-3.55009" data-paper-data="{&quot;index&quot;:null}" fill="#000000" stroke-width="0.5"/><path d="M380.84923,167.14687l2.15217,-2.68354" data-paper-data="{&quot;index&quot;:null}" fill="#000000" stroke-width="0.5"/><path d="M376.52751,165.53328l1.62817,-1.88605l1.51605,2.30174l2.42438,-1.55704l1.2114,2.02195l2.77387,-0.47765l0.73472,2.77189l2.59493,-0.19031l-0.46543,2.71247l2.3808,0.5863l-1.59588,1.89194l2.22336,1.00773l-2.53732,2.44549" data-paper-data="{&quot;index&quot;:null}" fill="#343434" stroke-width="0"/><path d="M375.94653,166.11243c0,0 5.82005,-1.15922 9.24912,1.64858c5.49566,4.50001 3.9073,9.82496 3.9073,9.82496l-8.8774,2.38301l-8.79066,-6.32876z" data-paper-data="{&quot;index&quot;:null}" fill="url(#color-12)" stroke-width="0"/><path d="M380.70156,168.93728l1.68786,-2.10453" data-paper-data="{&quot;index&quot;:null}" fill="#585858" stroke-width="0"/></g><g data-paper-data="{&quot;index&quot;:null}"><g data-paper-data="{&quot;index&quot;:null}" fill="#000000" stroke-width="0.5"><g data-paper-data="{&quot;index&quot;:null}"><path d="M376.98197,197.08053l-2.28112,3.87128l-1.90853,-2.45882l-1.87351,2.53976l-1.4325,-2.77893l-3.22609,1.38091l-0.53286,-3.27466l-3.65531,-0.08992l-0.22948,-3.58167l-2.86656,-0.90324l1.21269,-3.468l-3.30372,-1.19817l1.85663,-2.57807" stroke-linecap="round"/><g data-paper-data="{&quot;index&quot;:null}"><path d="M380.85357,187.45595l-42.89095,-34.65273l1.58863,-4.98316l43.18744,35.53386c0,0 0.91535,2.67867 0.60969,3.37029c-0.26214,0.59311 -2.17175,0.32695 -2.17175,0.32695z" stroke-linecap="butt"/><path d="M367.28701,175.82316l10.45351,9.02697l-0.3251,11.71579c0,0 -6.13346,3.54766 -13.34257,-1.93473c-4.49823,-3.4208 -4.78496,-10.9823 -4.78496,-10.9823z" stroke-linecap="round"/></g></g><path d="M365.63158,194.31532l2.7125,-3.92404" stroke-linecap="round"/><path d="M362.09002,191.42596l2.11002,-2.71683" stroke-linecap="round"/><path d="M371.64293,193.50899l-2.02154,2.9081" stroke-linecap="round"/></g><path d="M375.93146,194.71486l-1.78897,3.03611l-1.49678,-1.92834l-1.46931,1.9918l-1.12347,-2.17939l-2.53003,1.083l-0.41789,-2.56817l-2.86676,-0.07054l-0.17997,-2.80895l-2.24811,-0.70842l0.9511,-2.71981l-2.59101,-0.93968l1.45611,-2.02186" fill="#343434" stroke-width="0" stroke-linecap="round"/><path d="M368.32808,178.04364l8.1982,7.07944l-0.25499,9.18818c0,0 -4.81017,2.78225 -10.464,-1.51734c-3.52775,-2.68275 -3.75265,-8.61288 -3.75265,-8.61288z" fill="url(#color-13)" stroke-width="0" stroke-linecap="round"/><path d="M369.15715,189.46876l-2.1273,3.07746" fill="#343434" stroke-width="0" stroke-linecap="round"/><path d="M365.90714,188.14953l-1.65475,2.13067" fill="#585858" stroke-width="0" stroke-linecap="round"/><path d="M371.74428,191.91388l-1.58539,2.28067" fill="#343434" stroke-width="0" stroke-linecap="round"/><path d="M380.76306,186.42256l-41.50026,-34.0169l0.86769,-2.98908l41.89682,34.27661c0,0 0.85409,1.98728 0.66777,2.40888z" fill="#1f180f" stroke-width="0.5" stroke-linecap="butt"/></g></g><path d="M247.54118,147.693c2.06147,0.64046 3.14672,3.04549 2.42398,5.3718c-0.72275,2.32632 -2.97978,3.69298 -5.04125,3.05255c-2.06147,-0.64046 -3.14672,-3.04547 -2.42398,-5.3718c0.72275,-2.32632 2.97978,-3.69298 5.04125,-3.05255z" fill="#000000" stroke="#000000" stroke-width="1.5" stroke-linecap="butt"/><g stroke="#000000" stroke-width="1.5"><g fill="#000000" stroke-linecap="round"><path d="M252.67141,159.7121l18.06819,-0.56607c0,0 0.75584,7.65101 -1.54587,12.35093c-2.52727,5.16054 -7.03232,5.25965 -7.03232,5.25965l-1.09079,-34.81626c0,0 -3.55109,0.73139 -6.30217,5.46037c-2.67255,4.594 -2.09706,12.31137 -2.09706,12.31137z"/><path d="M268.00115,147.15288c-3.04171,-4.54749 -6.63162,-5.05514 -6.63162,-5.05514l1.09078,34.81625c0,0 -4.50241,0.18308 -7.34777,-4.80913c-2.59139,-4.54662 -2.31598,-12.22994 -2.31598,-12.22994l18.06819,-0.56607c0,0 0.09129,-7.73826 -2.86361,-12.15596z" data-paper-data="{&quot;index&quot;:null}"/></g><g stroke-linecap="round"><path d="M254.24741,159.78778l17.34811,-0.54351c0,0 0.7353,7.65166 -1.4689,12.34852c-2.42021,5.15719 -6.74577,5.25067 -6.74577,5.25067l-1.09078,-34.81625c0,0 -3.40879,0.72692 -6.04444,5.45228c-2.56042,4.59049 -1.99821,12.30828 -1.99821,12.30828z" fill="url(#color-14)"/><path d="M266.5445,163.23772l-1.52462,3.29936" fill="none"/><path d="M259.50957,155.87108l1.36825,-2.96097" fill="none"/><path d="M268.95803,162.99537l-3.71381,8.0369" fill="none"/><path d="M259.99147,148.60242l-3.04922,6.59872" fill="none"/><path d="M268.95121,147.24816c-2.92628,-4.55111 -6.37389,-5.06322 -6.37389,-5.06322l1.09078,34.81625c0,0 -4.32292,0.17746 -7.06122,-4.81811c-2.49389,-4.54968 -2.23902,-12.23236 -2.23902,-12.23236l17.34811,-0.54351c0,0 0.07799,-7.73785 -2.76477,-12.15906z" data-paper-data="{&quot;index&quot;:null}" fill="url(#color-15)"/><path d="M261.30892,166.98684l-1.72816,-3.19745" data-paper-data="{&quot;index&quot;:null}" fill="none"/><path d="M264.58987,153.12731l1.55092,2.86951" data-paper-data="{&quot;index&quot;:null}" fill="none"/><path d="M261.36646,171.48726l-4.20962,-7.78866" data-paper-data="{&quot;index&quot;:null}" fill="none"/><path d="M265.20479,148.77258l3.45631,6.3949" data-paper-data="{&quot;index&quot;:null}" fill="none"/></g><path d="M265.63119,159.86885c0.05296,1.69054 -0.77068,3.08815 -1.83968,3.12164c-1.069,0.03349 -1.97852,-1.30982 -2.03148,-3.00036c-0.05296,-1.69054 0.77068,-3.08815 1.83968,-3.12164c1.069,-0.03349 1.97852,1.30982 2.03148,3.00036z" fill="url(#color-16)" stroke-linecap="butt"/><path d="M263.08765,159.94853c-0.05513,-1.75955 0.61433,-3.20831 1.49529,-3.23591c0.88095,-0.0276 1.6398,1.37642 1.69492,3.13596c0.05513,1.75955 -0.61433,3.20831 -1.49529,3.23591c-0.88095,0.0276 -1.6398,-1.37642 -1.69492,-3.13596z" fill="url(#color-17)" stroke-linecap="butt"/></g></g></g></svg>