<svg version="1.1" xmlns="http://www.w3.org/2000/svg" xmlns:xlink="http://www.w3.org/1999/xlink" width="90.70765" height="50.28357" viewBox="0,0,90.70765,50.28357"><defs><linearGradient x1="229.87724" y1="154.45859" x2="230.36288" y2="152.01976" gradientUnits="userSpaceOnUse" id="color-1"><stop offset="0" stop-color="#333333"/><stop offset="1" stop-color="#515151"/></linearGradient><linearGradient x1="268.0262" y1="154.69084" x2="277.63464" y2="169.07722" gradientUnits="userSpaceOnUse" id="color-2"><stop offset="0" stop-color="#0e0e0e"/><stop offset="1" stop-color="#141414"/></linearGradient><linearGradient x1="266.82164" y1="161.8573" x2="278.66052" y2="161.8573" gradientUnits="userSpaceOnUse" id="color-3"><stop offset="0" stop-color="#002864"/><stop offset="1" stop-color="#004c7d"/></linearGradient><linearGradient x1="201.99289" y1="188.72249" x2="199.02305" y2="191.69233" gradientUnits="userSpaceOnUse" id="color-4"><stop offset="0" stop-color="#333333"/><stop offset="1" stop-color="#515151"/></linearGradient><linearGradient x1="227.16042" y1="187.80848" x2="238.91132" y2="187.80848" gradientUnits="userSpaceOnUse" id="color-5"><stop offset="0" stop-color="#002864"/><stop offset="1" stop-color="#004c7d"/></linearGradient><linearGradient x1="240.93733" y1="187.80848" x2="252.68823" y2="187.80848" gradientUnits="userSpaceOnUse" id="color-6"><stop offset="0" stop-color="#002864"/><stop offset="1" stop-color="#004c7d"/></linearGradient><linearGradient x1="253.43353" y1="168.30419" x2="226.36211" y2="168.30419" gradientUnits="userSpaceOnUse" id="color-7"><stop offset="0" stop-color="#252525"/><stop offset="1" stop-color="#151515"/></linearGradient><linearGradient x1="236.22539" y1="158.31519" x2="249.22629" y2="158.31519" gradientUnits="userSpaceOnUse" id="color-8"><stop offset="0" stop-color="#002864"/><stop offset="1" stop-color="#004c7d"/></linearGradient><linearGradient x1="258.42629" y1="170.95129" x2="263.42629" y2="170.95129" gradientUnits="userSpaceOnUse" id="color-9"><stop offset="0" stop-color="#002864"/><stop offset="1" stop-color="#004c7d"/></linearGradient><linearGradient x1="235.55225" y1="172.77408" x2="246.54292" y2="172.77408" gradientUnits="userSpaceOnUse" id="color-10"><stop offset="0" stop-color="#002864"/><stop offset="1" stop-color="#004c7d"/></linearGradient></defs><g transform="translate(-191.77367,-145.05939)"><g data-paper-data="{&quot;isPaintingLayer&quot;:true}" fill-rule="nonzero" stroke="#000000" stroke-linecap="butt" stroke-linejoin="miter" stroke-miterlimit="10" stroke-dasharray="" stroke-dashoffset="0" style="mix-blend-mode: normal"><g data-paper-data="{&quot;index&quot;:null}"><path d="M265.6232,158.75251l-0.65135,3.27105l-64.25785,-13.08368l-5.91793,-2.83799l6.56745,-0.2892z" fill="url(#color-1)" stroke-width="1.5"/><path d="M280.0236,157.07981c2.65328,3.97268 1.58373,9.34412 -2.38897,11.9974c-3.97268,2.65328 -9.34412,1.58373 -11.9974,-2.38897c-2.65328,-3.97268 -1.58373,-9.34412 2.38897,-11.9974c3.97268,-2.65328 9.34412,-1.58373 11.9974,2.38897z" fill="url(#color-2)" stroke-width="2"/><path d="M278.66052,163.036l-7.09814,4.74074l-4.74074,-7.09814l7.09814,-4.74074z" fill="url(#color-3)" stroke-width="1.5"/></g><path d="" fill="url(#color-4)" stroke-width="1.5"/><path d="M233.03587,193.84296c-3.24492,0 -5.87545,-2.70173 -5.87545,-6.03448c0,-3.33275 2.63053,-6.03448 5.87545,-6.03448c3.24492,0 5.87545,2.70173 5.87545,6.03448c0,3.33275 -2.63053,6.03448 -5.87545,6.03448z" data-paper-data="{&quot;index&quot;:null}" fill="url(#color-5)" stroke-width="3"/><path d="M246.81278,193.84296c-3.24492,0 -5.87545,-2.70173 -5.87545,-6.03448c0,-3.33275 2.63053,-6.03448 5.87545,-6.03448c3.24492,0 5.87545,2.70173 5.87545,6.03448c0,3.33275 -2.63053,6.03448 -5.87545,6.03448z" data-paper-data="{&quot;index&quot;:null}" fill="url(#color-6)" stroke-width="3"/><path d="M253.43353,187.27962c0,0 -2.86479,0 -5.19247,0c-1.44268,0 -4.00883,0 -6.88845,0c-3.43372,0 -7.31319,0 -10.26515,0c-2.77145,0 -4.72536,0 -4.72536,0c0,0 0,-27.68012 0,-33.60553c0,-2.13071 1.8938,-4.34533 3.87437,-4.34533c5.50644,0 15.72141,0 18.8,0c1.47693,0 4.19706,2.09852 4.19706,4.14533c0,5.8451 0.2,33.80552 0.2,33.80552z" data-paper-data="{&quot;index&quot;:null}" fill="url(#color-7)" stroke-width="3"/><path d="M237.0465,161.89852c0,0 -0.82111,-2.49469 -0.82111,-3.79412c0,-1.02239 0.82111,-3.37255 0.82111,-3.37255h11.35868c0,0 0.82111,2.2839 0.82111,3.58333c0,1.02238 -0.82111,3.58333 -0.82111,3.58333z" data-paper-data="{&quot;index&quot;:null}" fill="url(#color-8)" stroke-width="2"/><path d="M258.42629,193.68462v-45.46667h5v45.46667z" data-paper-data="{&quot;index&quot;:null}" fill="url(#color-9)" stroke-width="2"/><path d="M239.63647,175.67409v-5.6h18.8v5.6z" data-paper-data="{&quot;index&quot;:null}" fill="#5a5a5a" stroke-width="2"/><path d="M241.04758,180.26942l-5.49533,-7.49533l5.49533,-7.49534l5.49534,7.49534z" data-paper-data="{&quot;index&quot;:null}" fill="url(#color-10)" stroke-width="2"/></g></g></svg>