<svg version="1.1" xmlns="http://www.w3.org/2000/svg" xmlns:xlink="http://www.w3.org/1999/xlink" width="78.16585" height="64.583" viewBox="0,0,78.16585,64.583"><defs><radialGradient cx="248.76817" cy="158.0545" r="8.39357" gradientUnits="userSpaceOnUse" id="color-1"><stop offset="0" stop-color="#a2a2a2"/><stop offset="1" stop-color="#747474"/></radialGradient><radialGradient cx="247.57493" cy="174.85624" r="7.23763" gradientUnits="userSpaceOnUse" id="color-2"><stop offset="0" stop-color="#a2a2a2"/><stop offset="1" stop-color="#747474"/></radialGradient><radialGradient cx="232.46605" cy="174.09158" r="7.07005" gradientUnits="userSpaceOnUse" id="color-3"><stop offset="0" stop-color="#a2a2a2"/><stop offset="1" stop-color="#747474"/></radialGradient><radialGradient cx="241.10291" cy="160.0638" r="10.2108" gradientUnits="userSpaceOnUse" id="color-4"><stop offset="0" stop-color="#6e6e6e"/><stop offset="1" stop-color="#a2a2a2"/></radialGradient><radialGradient cx="237.10867" cy="151.88818" r="6.68585" gradientUnits="userSpaceOnUse" id="color-5"><stop offset="0" stop-color="#383838"/><stop offset="1" stop-color="#181818"/></radialGradient><linearGradient x1="237.65438" y1="151.97971" x2="233.08003" y2="150.83494" gradientUnits="userSpaceOnUse" id="color-6"><stop offset="0" stop-color="#320000"/><stop offset="1" stop-color="#ff0000"/></linearGradient></defs><g transform="translate(-216.62723,-130.74657)"><g data-paper-data="{&quot;isPaintingLayer&quot;:true}" fill-rule="nonzero" stroke="#000000" stroke-linejoin="miter" stroke-miterlimit="10" stroke-dasharray="" stroke-dashoffset="0" style="mix-blend-mode: normal"><path d="M223.2181,160.00183c0,0 -1.42602,2.94311 -2.98917,3.06698c-1.08527,0.08601 -1.52877,-0.84975 -1.2048,-1.70699c0.35425,-0.93735 1.80208,-1.86058 1.77283,-1.92621c-0.01866,-0.04183 -2.5001,-0.00008 -2.71263,-1.15353c-0.21255,-1.15349 1.10467,-2.41831 1.83097,-2.31877c0.8565,0.11741 2.14553,0.93566 2.14553,0.93566l9.34475,-5.05188c0,0 -0.30588,-1.20136 0.40788,-2.18286c0.92335,-1.26974 2.39525,-1.08089 2.7707,-0.21189c0.37549,0.86898 -1.02356,3.04854 -0.96982,3.23334c0.05116,0.17603 2.03453,-0.42491 2.36508,0.59634c0.33059,1.02125 0.04786,1.81055 -1.29283,2.71596c-0.80629,0.54457 -2.20679,-0.78064 -2.20679,-0.78064z" data-paper-data="{&quot;index&quot;:null}" fill="#464646" stroke-width="1.5" stroke-linecap="butt"/><path d="M252.32577,161.25689c0,0 1.63593,-0.22383 1.92553,0.55745c0.48154,1.29905 0.2846,1.98952 -0.45496,2.53546c-0.73954,0.54594 -1.82035,-0.86174 -1.94377,-0.76474c-0.12959,0.10184 -0.24303,2.31688 -0.93789,2.73444c-0.69487,0.4176 -1.81361,-0.1852 -1.82292,-1.52965c-0.0072,-1.03927 0.80503,-1.72292 0.80503,-1.72292l-3.98452,-8.17815c0,0 -1.30545,-0.07345 -1.96021,-0.41902c-0.55522,-0.29303 -0.84114,-1.83057 -0.11776,-2.52743c0.72335,-0.69688 2.42978,0.57006 2.46363,0.55025c0.05309,-0.03107 -0.49413,-1.39599 -0.27314,-2.22516c0.20212,-0.75833 0.97764,-1.18845 1.69017,-0.58718c1.02626,0.86602 0.5507,3.62602 0.5507,3.62602z" data-paper-data="{&quot;index&quot;:null}" fill="url(#color-1)" stroke-width="1.5" stroke-linecap="butt"/><path d="M248.10264,190.61133c0,0 1.11535,1.38517 0.65378,2.21109c-0.76747,1.37327 -1.43442,1.6759 -2.29571,1.36431c-0.86127,-0.31158 -0.34931,-2.32711 -0.49778,-2.37494c-0.15588,-0.05022 -1.99901,1.40964 -2.73167,1.04943c-0.73268,-0.36021 -0.88862,-1.84217 0.18541,-2.802c0.83021,-0.74195 1.8436,-0.45925 1.8436,-0.45925l4.28657,-9.54455c0,0 -0.68769,-1.28365 -0.78476,-2.14588c-0.08231,-0.73114 0.98849,-2.08854 1.96169,-1.89899c0.97318,0.18952 0.93206,2.69577 0.96731,2.71368c0.05532,0.0281 0.83809,-1.45372 1.63017,-1.83175c0.72438,-0.34573 1.51324,0.08171 1.43805,1.17931c-0.10827,1.5809 -2.59602,3.0846 -2.59602,3.0846z" data-paper-data="{&quot;index&quot;:null}" fill="#464646" stroke-width="1.5" stroke-linecap="butt"/><path d="M234.34741,188.64038c0,0 1.74369,0.29823 1.96411,1.19479c0.36648,1.49076 0.08526,2.13691 -0.75085,2.45925c-0.83609,0.32235 -1.82083,-1.47362 -1.96099,-1.41376c-0.14716,0.06285 -0.50458,2.303 -1.27988,2.50781c-0.77531,0.20485 -1.88651,-0.77601 -1.75173,-2.16097c0.1042,-1.07058 1.03147,-1.511 1.03147,-1.511l-3.30907,-9.69289c0,0 -1.36432,-0.49706 -2.01544,-1.0637c-0.55212,-0.48049 -0.68738,-2.15321 0.14793,-2.63594c0.83529,-0.48271 2.49283,1.37059 2.53053,1.36117c0.05914,-0.01479 -0.36933,-1.5945 -0.04785,-2.37542c0.29401,-0.7142 1.15542,-0.90586 1.83976,-0.05773c0.98565,1.22157 0.18902,3.90495 0.18902,3.90495z" data-paper-data="{&quot;index&quot;:null}" fill="#464646" stroke-width="1.5" stroke-linecap="butt"/><path d="M252.18369,176.53109c0,0 1.40718,-0.63589 2.00087,-0.06807c0.98717,0.94411 1.09632,1.57061 0.64687,2.2267c-0.44943,0.65608 -2.0321,-0.21311 -2.10462,-0.09873c-0.07615,0.12009 0.74957,1.9872 0.28727,2.52459c-0.4623,0.53741 -1.7419,0.34579 -2.31482,-0.76597c-0.44287,-0.85938 0.01542,-1.64961 0.01542,-1.64961l-7.08918,-5.68133c0,0 -1.22871,0.29851 -1.97456,0.19235c-0.63247,-0.09001 -1.54026,-1.28564 -1.16904,-2.06238c0.37122,-0.77673 2.46886,-0.19643 2.49159,-0.22217c0.03567,-0.04039 -1.03943,-1.02099 -1.18471,-1.76907c-0.13287,-0.68416 0.39819,-1.25414 1.30439,-0.95195c1.30523,0.43524 2.02745,2.85371 2.02745,2.85371z" data-paper-data="{&quot;index&quot;:null}" fill="url(#color-2)" stroke-width="1.5" stroke-linecap="butt"/><path d="M229.4874,177.92374c0,0 0.13483,1.53008 -0.56933,1.91326c-1.17083,0.63711 -1.77555,0.5437 -2.23093,-0.08716c-0.4554,-0.63085 0.83513,-1.85454 0.7539,-1.959c-0.08529,-0.10969 -2.04533,0.08512 -2.38861,-0.52067c-0.3433,-0.60576 0.23484,-1.75557 1.42757,-1.94837c0.922,-0.14904 1.49668,0.5323 1.49668,0.5323l7.40811,-4.92015c0,0 0.11597,-1.25545 0.44791,-1.9274c0.28149,-0.56978 1.65621,-1.05291 2.24611,-0.45814c0.58989,0.59475 -0.60016,2.39605 -0.5839,2.42563c0.02549,0.0464 1.25731,-0.6624 1.98407,-0.56499c0.66467,0.08909 1.01595,0.77008 0.45496,1.53211c-0.808,1.09755 -3.23727,1.02146 -3.23727,1.02146z" data-paper-data="{&quot;index&quot;:null}" fill="url(#color-3)" stroke-width="1.5" stroke-linecap="butt"/><path d="M238.69769,166.73876c0.38593,-1.40247 0.65067,-1.81359 0.85551,-3.33072c0.28883,-2.25791 -6.16819,1.50955 -5.90328,-2.03879c0.2649,-3.54835 5.84931,-0.3473 6.16004,-2.29769c-0.07012,-3.16744 -6.01468,1.17646 -6.08923,-2.58714c-0.07455,-3.7636 6.13472,-0.30589 6.2671,-2.14519c0.32685,-1.62496 -1.30164,-1.23804 -2.72877,-1.58961c-0.14879,-0.03665 -3.16311,0.37174 -3.58179,-1.27802c-0.45487,-1.79235 2.64124,-1.82943 2.64124,-1.82943c0,0 1.32403,0.43636 2.5278,0.43636c0.21252,0 -0.0848,-3.53214 0.19398,-3.53962c0.66314,-0.0178 3.80628,-0.03856 3.80628,-0.03856c0,0 -0.18757,3.4206 0.14623,3.4206c1.67442,0 3.08596,-0.18788 3.08596,-0.18788c0,0 1.99028,0.55078 2.08101,1.72942c0.04877,0.63349 -1.74755,0.83943 -3.31367,1.25331c-1.34776,0.35618 -2.62432,-0.02375 -2.67681,1.31947c-0.17387,2.73769 5.96267,-1.39665 6.04299,2.30954c0.08032,3.70619 -6.05846,0.1706 -6.00714,2.63556c-0.07791,2.14862 6.03656,-0.92075 5.98982,2.35658c-0.04674,3.27733 -6.05265,-0.2247 -5.98408,2.13849c0.00261,1.14462 0.15715,2.21057 0.40403,3.331c1.01399,4.60181 4.63105,-1.48961 5.92392,2.54351c1.29288,4.03312 -0.70747,2.79682 -3.77574,4.15776c-1.04358,0.46288 -3.37293,-2.8288 -4.2686,-2.66388c-1.77908,0.3276 -2.78784,2.77782 -3.61649,2.7832c-2.20942,0.01436 -4.37109,-0.79041 -3.35003,-4.06799c0,0 0.41346,-0.67088 1.73167,-1.0324c1.01898,-0.27945 2.92271,0.08482 3.43804,-1.78788z" data-paper-data="{&quot;index&quot;:null}" fill="url(#color-4)" stroke-width="1.5" stroke-linecap="butt"/><path d="M245.383,150.39631l-2.59365,0.00786l0.06663,-1.71721l-0.46864,-0.0093l-0.02632,1.76361l-2.73045,-0.03914l0.00895,-1.74555l-0.41929,-0.00552l-0.08546,1.77484l-2.31368,-0.02477c0,0 -0.49067,-1.30803 -0.48567,-2.00018c-0.30269,-0.73094 -0.18858,-2.38204 -0.47933,-2.74743c-1.6384,-0.44413 -2.51365,-1.40593 -2.48967,-4.53094c0.04627,-6.02554 2.84378,-9.67044 7.35517,-9.6256c4.51138,0.04485 7.90299,3.91834 7.8567,9.9439c0,0 -0.17998,3.9146 -2.01941,4.17479c-0.55648,0.93123 -0.55337,1.66644 -0.80479,2.6641z" fill="#464646" stroke-width="1.5" stroke-linecap="butt"/><path d="M242.83973,140.69619c0,-1.29819 0.92494,-0.75054 2.06594,-0.75054c1.141,0 2.06594,-0.54763 2.06594,0.75054c0,1.29819 -0.92495,2.35054 -2.06594,2.35054c-1.141,0 -2.06594,-1.05237 -2.06594,-2.35054z" fill="#1d1d1d" stroke-width="1" stroke-linecap="butt"/><g stroke-width="1"><path d="M229.58946,194.33061c0,0 -0.65804,-1.26954 -0.65804,-1.87107c0,-0.64307 1.80303,-1.49686 1.80303,-1.49686c0,0 1.89489,0.24948 3.13622,0.24948c1.34557,0 2.70323,-0.49895 2.70323,-0.49895c0,0 2.12152,0.94877 2.12152,1.6216c0,0.54936 -0.97653,1.99581 -0.97653,1.99581c0,0 -2.78393,0.49895 -4.1167,0.49895c-1.25825,0 -4.01273,-0.49895 -4.01273,-0.49895z" fill="#464646" stroke-linecap="butt"/><path d="M231.89359,192.83376l-1.24738,1.74634" fill="none" stroke-linecap="round"/><path d="M233.63993,194.70484v-1.87107" fill="none" stroke-linecap="round"/><path d="M235.76048,192.9585l0.74843,1.6216" fill="none" stroke-linecap="round"/></g><g stroke-width="1"><path d="M241.69954,194.12715c0,0 -0.65804,-1.26953 -0.65804,-1.87107c0,-0.64307 1.80303,-1.49686 1.80303,-1.49686c0,0 1.89489,0.24948 3.13622,0.24948c1.34556,0 2.70322,-0.49895 2.70322,-0.49895c0,0 2.12152,0.94878 2.12152,1.6216c0,0.54936 -0.97653,1.99581 -0.97653,1.99581c0,0 -2.78392,0.49896 -4.11669,0.49896c-1.25825,0 -4.01273,-0.49896 -4.01273,-0.49896z" fill="#464646" stroke-linecap="butt"/><path d="M244.00368,192.63031l-1.24738,1.74633" fill="none" stroke-linecap="round"/><path d="M245.75002,194.50136v-1.87107" fill="none" stroke-linecap="round"/><path d="M248.619,194.37664l-0.74843,-1.6216" fill="none" stroke-linecap="round"/></g><path d="M236.73973,140.5962c0,-1.29819 0.92494,-0.75054 2.06594,-0.75054c1.141,0 2.06594,-0.54763 2.06594,0.75054c0,1.29819 -0.92495,2.35054 -2.06594,2.35054c-1.141,0 -2.06594,-1.05237 -2.06594,-2.35054z" fill="#1d1d1d" stroke-width="1" stroke-linecap="butt"/><path d="M264.68412,165.37645c0,0 0.8873,-1.39249 1.67047,-1.1081c1.30224,0.47283 1.70151,1.06961 1.63962,1.98676c-0.06188,0.91713 -1.83456,0.8311 -1.84038,0.98797c-0.00613,0.16468 1.60995,1.68376 1.47905,2.48378c-0.13087,0.80007 -1.31418,1.2635 -2.34565,0.40109c-0.79732,-0.66664 -0.79346,-1.72826 -0.79346,-1.72826l-8.81454,-2.25001c0,0 -0.90031,0.94817 -1.58733,1.22409c-0.58258,0.23396 -1.9402,-0.54232 -2.00389,-1.54475c-0.0637,-1.0024 2.00622,-1.48456 2.01301,-1.52319c0.01064,-0.0606 -1.3843,-0.52594 -1.87382,-1.23076c-0.44767,-0.6446 -0.27418,-1.51425 0.64523,-1.66885c1.32423,-0.22267 3.12177,1.92502 3.12177,1.92502z" data-paper-data="{&quot;index&quot;:null}" fill="#464646" stroke-width="1.5" stroke-linecap="butt"/><path d="M226.3044,182.00403c0.60535,-1.61774 -1.79209,-3.05575 -2.06834,-4.03715c-0.06096,-0.21654 0.02509,-1.56787 0.44418,-2.16954c0.50355,-0.72293 1.41397,-0.73334 2.14243,-1.32012c1.41305,-1.13824 3.78026,-1.25568 3.66012,-2.00994c-0.04101,-0.2575 2.69585,-7.35112 2.69585,-7.35112c0,0 2.38846,-6.18716 2.6731,-6.12596c1.54701,0.33265 3.10751,1.58943 4.3159,1.58943c1.49902,0 1.61854,-1.05476 3.7168,-1.43535c3.68415,-0.66824 3.15021,4.33369 3.15021,4.33369c0,0 1.37972,2.66192 1.65983,3.89105c0.28767,1.26227 -0.5658,4.08988 -0.5658,4.08988c0,0 6.76625,1.93102 4.78447,2.88899c-0.64693,0.31273 0.86282,1.96983 2.32524,3.09774c1.46372,1.12889 0.71715,3.36191 0.15644,3.69c-0.23731,0.13886 -2.05668,2.91375 -3.1912,3.67319c-0.8736,0.58479 -1.99029,-0.1659 -2.80718,0.0502c-0.20834,0.05511 -1.64399,-2.21704 -1.89093,-2.81737c-0.21282,-0.51738 -3.73288,-1.51687 -7.0497,-1.70805c-3.31396,-0.19101 -5.42473,0.7592 -5.49668,1.20727c-2.03273,1.94665 -0.6053,2.82351 -1.30098,3.46969c-1.00914,0.93735 -3.21108,0.96837 -3.21108,0.96837c0,0 -2.81779,1.46847 -2.1103,-0.85592c0,0 -2.1134,-2.90248 -2.03238,-3.11898z" data-paper-data="{&quot;index&quot;:null}" fill="#171513" stroke-width="1.5" stroke-linecap="butt"/><path d="M240.28723,172.44387l3.86053,-6.76556l7.03979,-3.17135c0,0 0.79436,2.74581 1.63559,4.20552c0.5889,1.02187 0.86239,2.77302 0.86239,3.61717c0,1.53246 -1.81672,5.2856 -1.81672,5.2856c0,0 -3.37697,1.51928 -5.87323,1.23941c-1.16002,-0.13006 -2.22792,-1.97479 -2.8676,-2.14495c-2.20576,-0.58675 -2.84076,-2.26582 -2.84076,-2.26582z" fill="#171513" stroke-width="1.5" stroke-linecap="butt"/><path d="M230.11948,172.01061c1.01639,-1.74147 0.20935,-3.5692 0.01891,-4.76957c-0.15995,-1.00815 0.94964,-2.15002 0.52841,-4.10471c-0.79659,-3.69652 0.04611,-7.60096 0.04611,-7.60096c0,0 2.22263,-8.11899 5.93913,-6.68867c1.83961,0.70798 3.53488,2.35362 5.01706,2.6439c1.83867,0.3601 2.16893,-0.67768 4.80888,-0.55844c4.63527,0.20936 3.10945,5.13866 3.10945,5.13866c0,0 1.22885,3.02298 1.35842,4.33307c0.13307,1.34541 -0.00813,4.27326 -0.00813,4.27326c0,0 -3.40355,4.19766 -6.00116,4.69022c-1.69665,0.32172 -0.4535,2.73938 -1.94259,3.13332c-1.31199,0.34706 -1.50317,3.30468 -1.62549,3.35851c-0.3115,0.13712 -1.66324,-1.52451 -2.87008,-1.4323c-1.52591,0.1166 -3.00533,1.99142 -3.91156,2.25182c-3.32576,0.9557 -5.54452,-0.37127 -5.54452,-0.37127c0,0 -0.19535,-2.11656 1.07716,-4.29685z" fill="#171513" stroke-width="1.5" stroke-linecap="butt"/><path d="M251.53444,164.72346c-0.54327,-0.60446 -2.80939,-4.79568 -5.17636,-6.11788c-3.07132,-1.71562 -4.76938,-2.21888 -4.76938,-2.21888c0,0 -2.84252,-2.01386 -2.29474,-3.26041c0.73302,-1.66813 1.22398,-2.42133 1.97016,-3.10491c1.22852,-1.1255 4.17732,-0.27012 4.17732,-0.27012c0,0 3.04583,2.09034 5.77801,4.6058c1.96569,1.8098 5.52448,3.27188 6.53979,4.64651c0.81126,1.09836 0.36217,2.83184 1.15086,4.5005c0.69939,1.47974 -0.58767,3.19054 -0.58767,3.19054c0,0 0.03682,0.59611 -0.75058,1.7619c-0.9488,1.40472 -4.51805,-0.07432 -4.51805,-0.07432c0,0 0.05596,-1.90599 -1.51936,-3.65873z" fill="#171513" stroke-width="1.5" stroke-linecap="butt"/><path d="M237.61301,171.2889c0,0 -1.92547,-1.76761 -2.1434,-3.81829c-0.133,-1.25146 0.51556,-3.42097 0.56659,-5.83359c0.05041,-2.38369 -1.4457,-2.53313 -1.55922,-4.18005c-0.07657,-1.11084 1.22005,-4.19744 1.22005,-4.19744" fill="none" stroke-width="1.5" stroke-linecap="round"/><path d="M226.56656,149.90724c0,0 0.3859,-3.0738 1.71595,-3.7816c0.92344,-0.49142 1.58464,0.14077 1.55214,1.00088c-0.03558,0.9405 -1.03113,2.28976 -0.98638,2.33479c0.02855,0.02872 2.18524,-0.962 2.70827,-0.05417c0.52304,0.90785 -0.25848,2.49988 -0.92241,2.69396c-0.78296,0.22887 -2.14887,0.02291 -2.14887,0.02291l-6.69073,7.93029c0,0 0.61861,0.91301 0.28172,2.02975c-0.43583,1.4447 -1.77754,1.84909 -2.35979,1.24801c-0.58225,-0.60102 0.00333,-3.00937 -0.09766,-3.14726c-0.09618,-0.13134 -1.65405,1.14745 -2.24157,0.39851c-0.58754,-0.74894 -0.57119,-1.53493 0.3359,-2.82766c0.54552,-0.7775 2.15707,-0.17943 2.15707,-0.17943z" data-paper-data="{&quot;index&quot;:null}" fill="#464646" stroke-width="1.5" stroke-linecap="butt"/><g data-paper-data="{&quot;index&quot;:null}"><path d="M236.84874,147.82679c0,0 21.84372,5.64017 29.67129,7.66131c5.12585,1.32353 12.69724,3.39109 12.69724,3.39109c0,0 4.72542,1.50511 6.81546,2.61295c1.97316,1.0459 6.59584,3.89095 6.59584,3.89095c0,0 -5.35666,0.75718 -7.7484,0.77918c-2.21517,0.02036 -7.16651,-0.64672 -7.16651,-0.64672c0,0 -7.75312,-1.76685 -12.94597,-3.02539c-7.88424,-1.91081 -29.78219,-7.21796 -29.78219,-7.21796z" fill="#ffffff" stroke-width="1.5" stroke-linecap="butt"/><path d="M238.69117,150.90452l35.44155,8.86939c0,0 5.14166,1.41138 6.94734,2.08926c0.88547,0.33243 2.73442,1.15047 2.64671,1.56713c-0.08115,0.38551 -2.02828,0.38876 -2.95592,0.27187c-1.78773,-0.22528 -7.15296,-1.34687 -7.15296,-1.34687l-35.56495,-8.90027z" fill="#656565" stroke-width="1" stroke-linecap="butt"/><path d="M219.2107,145.64942l17.73107,4.43724l-0.84835,3.38996l-17.73106,-4.43727z" fill="#331b08" stroke-width="1" stroke-linecap="butt"/><path d="M235.01636,152.81342l-0.34067,-2.93539l-2.49426,2.0937l-0.02935,-2.73783l-2.19522,2.31339l-0.51444,-2.85499l-1.76933,2.15951l-0.57279,-2.62173l-2.28917,1.78161l-0.10992,-2.62984l-2.17381,1.93439l-0.34206,-2.31614l-1.8555,1.89013l-0.34195,-2.99195" fill="none" stroke-width="0.75" stroke-linecap="round"/><path d="M232.9203,158.77592c0,0 0.82674,-1.2187 1.09975,-2.3096c0.25969,-1.03771 -0.04025,-1.92412 0.20244,-2.89378c0.1353,-0.54064 1.47027,-1.01024 1.67909,-1.84476c0.2228,-0.89023 -0.67783,-2.1562 -0.45225,-3.05762c0.20556,-0.82147 0.90242,-1.17361 1.07068,-1.84602c0.32995,-1.31843 0.32022,-3.03747 0.32022,-3.03747c0,0 1.54791,-0.92129 2.33397,-0.72457c0.6552,0.16396 1.79648,2.21006 1.79648,2.21006l-0.66979,2.72252l0.71467,1.61544l-1.34834,0.87054c0,0 -0.76403,3.05299 -1.01349,4.04977c-0.0918,0.36675 0.7153,1.31149 0.7153,1.31149l-1.34616,0.85727l-0.70686,3.17673c0,0 -1.78785,0.86914 -2.52267,0.68523z" fill="#3e0d0d" stroke-width="1" stroke-linecap="butt"/><path d="M231.71067,155.71755l1.60862,-1.84974c0,0 1.67019,-1.33267 1.91564,-2.31345c0.25084,-1.00238 -0.5153,-3.28217 -0.5153,-3.28217l-0.9022,-2.11771l1.81453,-1.52793l2.60562,0.65207l3.04033,2.65279c0,0 -3.39426,0.66912 -3.60948,1.52918c-0.12282,0.4908 2.22621,1.45155 2.22621,1.45155l1.62975,2.21618l-2.43362,0.88683c0,0 -2.5479,-0.26887 -2.81046,0.48353c-0.00694,1.24356 2.42099,3.32865 2.42099,3.32865l-3.70989,0.42296l-2.60563,-0.65207z" fill="url(#color-5)" stroke-width="1" stroke-linecap="butt"/><path d="M233.08002,150.83494l2.8273,-1.58582l1.74709,2.73058l-2.82729,1.58583z" fill="url(#color-6)" stroke-width="1" stroke-linecap="butt"/></g><path d="M232.45122,146.18597c0.7815,-0.00486 -0.60592,4.01107 -1.27276,5.03189c-1.52147,2.32908 -2.74188,2.6741 -4.22954,2.12518c-0.76411,-0.28196 -0.8785,0.05768 -1.22166,-0.72c-0.4086,-0.92595 -0.97595,-3.07315 -0.14901,-4.33904c0.04627,-0.0708 2.44554,-4.03849 3.23458,-3.66424c0.70168,0.13785 -1.75275,3.89887 -1.68505,3.81051c0.40238,-0.5251 2.38789,-3.26002 2.99013,-3.15893c0.5131,0.08615 -1.77281,3.8671 -1.44048,3.49129c0.54094,-0.61176 1.94477,-3.01532 2.81253,-2.6511c0.4166,0.17589 -1.12599,1.79356 -1.20596,3.19295c-0.0411,0.71969 1.27679,-3.11302 2.1672,-3.11855z" data-paper-data="{&quot;index&quot;:null}" fill="#464646" stroke-width="1" stroke-linecap="butt"/><path d="M269.37749,160.41781c1.56504,-1.5549 -1.63885,-0.51227 -1.45897,-0.14282c0.20683,0.42481 3.6025,-0.25452 2.33076,1.24538c-1.12492,1.32676 -2.14483,2.45458 -1.85061,2.28752c0.42053,-0.23876 1.25391,-1.19045 2.30768,-2.12241c2.00064,-1.76935 -0.90426,-2.09809 -0.68002,-1.90455c0.44399,0.38481 3.12315,0.60664 1.50549,2.65772c-0.97339,1.23417 -1.81931,2.28508 -1.93521,2.56912c-0.08657,0.21213 0.2969,-0.45534 2.07285,-2.27445c2.11261,-2.16396 -0.95955,-2.1403 -0.79401,-1.91117c0.205,0.28376 2.65793,0.96133 1.50202,2.7048c-0.86058,1.29802 -1.67122,2.46924 -1.79595,2.72253c-0.04306,0.08742 2.19231,-2.48756 2.33319,-2.14475c0.02006,0.04879 0.53154,0.65944 0.4289,0.8188c-0.9055,1.4058 -1.92157,2.61192 -1.94407,2.65008c-0.76811,1.30244 -2.94429,1.7458 -3.95542,1.79c-0.84922,0.03714 -0.5955,-0.21596 -1.18696,-0.77588c-1.15151,-1.09014 -1.38327,-2.33701 0.02993,-4.73334c0.29374,-0.49807 1.67873,-2.03408 3.09038,-3.4366z" data-paper-data="{&quot;index&quot;:null}" fill="#464646" stroke-width="1" stroke-linecap="butt"/></g></g></svg>