<svg version="1.1" xmlns="http://www.w3.org/2000/svg" xmlns:xlink="http://www.w3.org/1999/xlink" width="246.80738" height="194.49634" viewBox="0,0,246.80738,194.49634"><g transform="translate(-116.64189,-72.59245)"><g data-paper-data="{&quot;isPaintingLayer&quot;:true}" fill-rule="nonzero" stroke="#000000" stroke-width="1.5" stroke-linejoin="miter" stroke-miterlimit="10" stroke-dasharray="" stroke-dashoffset="0" style="mix-blend-mode: normal"><g stroke-linecap="butt"><g data-paper-data="{&quot;index&quot;:null}"><path d="M335.91204,191.28306c0,0 1.86907,-4.10714 3.88886,-5.5791c2.58905,-1.88685 6.32065,-3.59739 6.65337,-3.1516c2.55227,3.41967 12.48099,13.70537 15.16802,24.75136c2.68703,11.04596 -0.50051,36.90373 -0.50051,36.90373c0,0 -3.48371,-20.76393 -9.17591,-32.78514c-5.69223,-12.02119 -16.03383,-20.13926 -16.03383,-20.13926z" data-paper-data="{&quot;index&quot;:null}" fill="#160f3d"/><path d="M342.62858,184.91199c0,0 6.12868,5.52155 7.54125,7.82371c0.83617,1.36278 5.88031,8.40968 7.76975,15.22208c1.79232,6.46219 1.56685,13.46557 1.56685,13.46557c0,0 -3.77913,-10.40718 -7.10534,-16.87275c-1.39413,-2.70995 -4.34837,-6.21775 -6.88357,-9.08894c-3.51345,-3.97912 -6.50741,-7.35837 -6.50741,-7.35837z" data-paper-data="{&quot;index&quot;:null}" fill="#2a2355"/></g><g data-paper-data="{&quot;index&quot;:null}"><path d="M334.1332,187.70151c0,0 3.03511,-3.33919 5.40815,-4.12328c3.04191,-1.00507 7.11777,-1.49306 7.29828,-0.96691c1.38477,4.03617 7.69407,16.86456 6.87593,28.20317c-0.81816,11.33861 -11.7574,34.98428 -11.7574,34.98428c0,0 3.03022,-20.83497 1.28516,-34.02074c-1.74506,-13.1858 -9.11011,-24.07654 -9.11011,-24.07654z" data-paper-data="{&quot;index&quot;:null}" fill="#160f3d"/><path d="M342.97463,183.72229c0,0 4.14748,7.13067 4.78871,9.75443c0.37955,1.55314 3.02815,9.80464 2.74471,16.86851c-0.26887,6.70075 -2.62433,13.29996 -2.62433,13.29996c0,0 -0.41693,-11.06424 -1.60753,-18.23709c-0.499,-3.00638 -2.23958,-7.24936 -3.77576,-10.75811c-2.12893,-4.86263 -3.94659,-8.99535 -3.94659,-8.99535z" data-paper-data="{&quot;index&quot;:null}" fill="#2a2355"/></g><g data-paper-data="{&quot;index&quot;:null}"><path d="M335.21969,187.05812c0,0 4.15738,-1.75448 6.64023,-1.46865c3.18263,0.36637 7.08617,1.63649 7.02885,2.1898c-0.43969,4.2444 -0.10586,18.53651 -5.61342,28.48135c-5.50756,9.94487 -25.37118,26.80372 -25.37118,26.80372c0,0 11.5057,-17.63223 15.4637,-30.33046c3.95799,-12.69823 1.85185,-25.67573 1.85185,-25.67573z" data-paper-data="{&quot;index&quot;:null}" fill="#160f3d"/><path d="M344.47623,186.92281c0,0 0.76671,8.21342 0.2459,10.8637c-0.3083,1.56887 -1.37274,10.16939 -4.59859,16.46006c-3.06002,5.96729 -7.97077,10.96555 -7.97077,10.96555c0,0 4.27151,-10.21493 6.20565,-17.22399c0.81064,-2.93772 1.0144,-7.51931 1.09505,-11.34873c0.11177,-5.30709 0.19923,-9.82101 0.19923,-9.82101z" data-paper-data="{&quot;index&quot;:null}" fill="#2a2355"/></g><g><path d="M342.13615,185.22021c0,0 -2.41563,2.76159 -5.15929,0.22724c-7.27478,-6.71974 -29.70408,-13.00841 -29.70408,-13.00841c0,0 -2.79843,-2.08135 -2.28409,-4.45409c0.13824,-0.63768 2.61508,-1.62439 2.79096,-2.07389c0.23627,-0.60373 17.78252,4.89476 29.13349,14.68849c1.58363,1.36638 5.22302,4.62067 5.22302,4.62067z" fill="#100d25"/><path d="M310.83966,163.15004c0.25711,-0.42397 17.32649,7.74004 21.67398,10.31001c4.02456,2.37906 11.57168,8.39191 11.57168,8.39191l-2.22964,3.54294c0,0 -7.46035,-6.65353 -11.77655,-8.91347c-4.22269,-2.21101 -23.11915,-9.65849 -23.11915,-9.65849c0,0 0.73324,-1.12727 1.5135,-2.09352c0.63838,-0.79055 2.17293,-1.26069 2.36618,-1.57933z" data-paper-data="{&quot;index&quot;:null}" fill="#160f3d"/></g><g><path d="M307.25831,167.62756c0,0 -0.85752,4.75012 -4.20242,3.4929c-8.86896,-3.3335 -29.40333,-0.40231 -29.40333,-0.40231c0,0 -3.18098,-0.78801 -3.85857,-3.34792c-0.1821,-0.68799 1.3374,-2.76756 1.2715,-3.2877c-0.08851,-0.69861 16.35604,-1.89492 29.87777,2.62786c1.88651,0.631 6.31505,0.91715 6.31505,0.91715z" fill="#100d25"/><path d="M270.66063,160.18916c0.00988,-0.50367 17.02839,-1.08714 22.75267,-0.58517c0.3162,0.02772 13.88077,2.20902 13.88077,2.20902l-0.17899,6.11175c0,0 -8.9283,-2.96846 -13.39922,-3.25101c-4.37409,-0.27645 -22.8851,0.6715 -22.8851,0.6715c0,0 0.06722,-1.43544 0.24565,-2.73394c0.14598,-1.06236 -0.42362,-2.02269 -0.4158,-2.42213z" data-paper-data="{&quot;index&quot;:null}" fill="#160f3d"/></g><g><path d="M308.94927,153.87214l1.16895,7.04053c0,0 -1.63703,0.36599 -2.15877,0.3279c-0.52172,-0.03808 -1.78258,-0.03094 -2.14659,-0.23505c-0.36402,-0.20414 -1.51197,-1.56412 -1.51197,-1.56412z" fill="#160f3d"/><path d="M298.06449,163.51271l4.52105,-5.37419l10.03446,4.11743l-1.07778,7.21232l-4.22408,5.70869l-10.03444,-4.11742z" fill="#2a2355"/></g><path d="M337.22423,178.46533c3.65279,-2.02923 8.25899,-0.71302 10.28821,2.93975c2.02923,3.65279 0.71302,8.25898 -2.93976,10.28821c-3.65279,2.02923 -8.25898,0.71302 -10.28821,-2.93976c-2.02923,-3.65279 -0.71302,-8.25898 2.93976,-10.28821z" fill="#100d25"/><path d="M342.20329,181.27497c2.16371,0.94015 3.15563,3.45631 2.21548,5.62004c-0.94015,2.16371 -3.45631,3.15563 -5.62004,2.21548c-2.16371,-0.94015 -3.15563,-3.45631 -2.21548,-5.62004c0.94015,-2.16371 3.45631,-3.15563 5.62004,-2.21548z" fill="#2a2355"/><path d="M304.0106,164.7853c1.24233,-0.54621 2.99308,0.04268 3.53931,1.28501c0.54621,1.24233 -0.01811,2.6922 -1.26046,3.23844c-1.24231,0.5462 -2.69222,-0.0181 -3.23843,-1.26045c-0.54621,-1.24233 -0.28276,-2.7168 0.95958,-3.26301z" fill="#160f3d"/><g><path d="M278.58097,165.25227l-2.73106,6.25329l-8.27766,3.04492l1.43238,-7.09817l-4.24523,-4.95645l8.57557,-2.7854z" fill="#2a2355"/><path d="M266.4342,167.42798c-0.17671,-2.12476 1.40252,-3.99045 3.52724,-4.16718c2.12475,-0.1767 3.99043,1.4025 4.16717,3.52725c0.1767,2.12474 -1.40251,3.99043 -3.52725,4.16717c-2.12475,0.1767 -3.99045,-1.40251 -4.16718,-3.52724z" fill="#160f3d"/><path d="M264.68125,161.6838c0,0 4.80012,2.77858 5.74065,5.63409c0.9405,2.8555 -1.24799,7.63302 -1.24799,7.63302l-5.52415,2.04044l-6.85838,-12.08314z" fill="#160f3d"/></g></g><g stroke-linecap="butt"><path d="M261.46736,150.58157c0,0 -8.72556,2.94227 -12.96986,3.62833c-5.04891,0.8161 -15.33089,0.94626 -15.33089,0.94626c0,0 0.02237,-4.12621 -0.31275,-6.1994c-0.21437,-1.32626 -5.21974,-3.93564 -5.21974,-3.93564l3.54874,-2.59565l-2.34958,-5.37996l-5.98764,-14.25207c0,0 11.14005,10.00647 20.85736,8.81552c9.71732,-1.19095 19.37742,-13.74673 19.37742,-13.74673l-3.09098,13.15144c0,0 -0.54341,4.21965 -0.28939,5.7912c0.08691,0.53769 5.71247,1.46631 5.71247,1.46631l-5.16084,6.211l1.2157,6.0994z" fill="#160f3d"/><path d="M233.69877,139.77884c0,0 -0.24058,-4.02595 -1.81699,-4.18225c-4.24625,-0.42098 -9.39288,-0.34008 -9.16364,-0.6815c0.77233,-1.15029 1.21084,-4.0317 3.53296,-5.6016c2.3221,-1.56989 7.20064,-0.77875 7.20064,-0.77875c0,0 2.90362,-4.57007 8.51693,-5.36676c5.61332,-0.79669 11.11495,2.31535 11.11495,2.31535c0,0 4.84873,-1.13011 7.76121,-0.32414c2.3544,0.65152 4.29201,2.75874 4.76162,3.82882c0.24631,0.5613 -4.08239,0.99677 -7.30693,2.25693c-1.41939,0.55469 -2.18991,3.72608 -2.18991,3.72608l-4.37559,-0.279c0,0 1.75615,3.14768 1.6739,4.18836c-0.07289,0.92208 -6.26688,-1.2764 -6.26688,-1.2764l-1.38236,3.72073l-2.39441,-3.97906c0,0 -5.32049,5.56609 -5.71461,4.83604c-0.53952,-0.99938 0.78415,-4.85541 0.78415,-4.85541z" fill="#2a2355"/><path d="M254.15618,120.58232c3.33709,3.34319 4.12859,8.35051 4.12859,8.35051c0,0 -1.95796,-1.74393 -4.60978,-3.07307c-0.75754,-0.3797 -1.12418,-1.61028 -2.12698,-1.9397c-1.00281,-0.32942 -2.18673,0.43841 -2.67471,0.36235c-1.4587,-0.22735 0.58683,5.93396 -0.83511,6.75455c-0.85001,0.49053 -3.63963,3.74704 -3.63963,3.74704c0,0 -5.07308,-1.79001 -5.90346,-2.09958c-1.50413,-0.56075 -1.43948,-6.69987 -2.90952,-5.60121c-1.47004,1.09866 -4.6075,7.06665 -4.6075,7.06665c0,0 -1.73773,-5.42824 -0.82144,-9.29572c0.15996,-0.67515 -1.85318,-7.18905 -1.85318,-7.18905c0,0 4.76765,4.11527 6.07736,3.34651c2.44415,-1.43465 3.23995,-3.72328 6.01118,-4.25085c2.77123,-0.52757 4.82736,1.45714 7.00307,1.77327c1.42244,0.20667 6.1923,-5.44227 6.1923,-5.44227c0,0 -0.42291,6.49701 0.56882,7.49055z" fill="#100d25"/><path d="M235.74041,156.11944c-0.79358,0.05876 -2.0064,-0.26175 -2.9189,-0.98382c-0.91249,-0.72207 -2.02894,-1.7467 -2.40689,-3.23052c-0.2802,-1.10004 -0.27681,-2.38968 0.50596,-3.72673c0.78278,-1.33705 1.86512,-1.63707 2.70159,-1.75203c0.95827,-0.13168 2.85504,0.98073 2.85504,0.98073c0,0 1.85808,1.70596 2.15191,2.87076c0.3187,1.26332 -0.30823,4.43762 -0.30823,4.43762c0,0 -1.8892,1.3528 -2.58046,1.40398z" data-paper-data="{&quot;index&quot;:null}" fill="#100d25"/><path d="M263.73627,149.31127c-0.57127,0.98459 -1.57171,1.72639 -2.32758,1.97365c-0.65843,0.2154 -2.91548,-0.27161 -2.91548,-0.27161c0,0 -1.77717,-2.57855 -1.95911,-3.81914c-0.16776,-1.14383 0.90658,-3.35771 0.90658,-3.35771c0,0 1.33403,-1.7021 2.2697,-1.94682c0.81675,-0.21362 1.93062,-0.35587 3.15877,0.53456c1.22814,0.89042 1.71779,2.03284 1.87372,3.1141c0.21033,1.45849 -0.43534,2.78836 -1.00661,3.77295z" fill="#100d25"/></g><path d="M241.16993,142.34143l4.96869,2.80529c0,0 4.20293,-3.11899 5.31096,-3.23484c2.56173,-0.26782 7.23525,2.11468 7.23525,2.11468l3.26484,-3.6093c0,0 6.26576,0.9133 6.1398,1.021c-0.24923,0.21309 11.42361,-0.35017 13.18261,2.28768c0.84365,1.26517 -7.52292,6.85988 -7.52292,6.85988l-3.74934,10.09588c0,0 -1.13561,-5.1088 -2.43577,-5.01363c-5.56795,0.40758 -18.48125,1.86007 -26.52866,4.54788c-2.25854,0.75435 -1.58666,5.17608 -1.58666,5.17608l-6.40517,-8.94424l2.04658,-11.78821z" data-paper-data="{&quot;index&quot;:null}" fill="#160f3d" stroke-linecap="butt"/><g stroke-linecap="butt"><g><path d="M287.09843,214.59047c0,0 -4.86779,0.06551 -5.73633,-1.4691c-2.00759,-3.54717 -5.818,-18.11496 -5.818,-18.11496l4.29823,-6.41198c0,0 1.98402,-0.31348 2.95108,-0.17278c1.86473,0.27133 3.40511,1.21711 3.88456,2.24427c1.83458,3.93042 5.3611,18.80761 5.3611,18.80761z" fill="#2a2355"/><path d="M283.14866,215.73629c0,0 -3.48568,-1.37285 -6.95082,-6.2486c-0.82026,-1.15416 -2.91934,-1.47138 -3.26498,-2.23288c-2.50249,-5.5131 -6.92114,-11.71905 -6.92114,-11.71905c0,0 10.8401,-3.60985 13.90588,-4.22694c1.42401,-0.28662 5.07014,1.14776 5.07014,1.14776l4.86387,23.52604c0,0 -1.94219,-1.12016 -3.07405,-1.25513c-1.38716,-0.16543 -3.6289,1.00881 -3.6289,1.00881z" fill="#160f3d"/><path d="M281.13687,223.74673c0,0 -8.17018,-7.17906 -9.59607,-9.84001c-0.85543,-1.59639 -3.21144,-6.00087 -3.80794,-10.57103c-0.37124,-2.84432 -3.28278,-4.78416 -3.47291,-6.45301c-0.21002,-1.84357 2.32087,-3.26906 2.32087,-3.26906c0,0 1.6652,-3.0538 4.20993,-4.30306c1.7727,-0.87024 4.42045,-0.0606 5.34734,-0.10973c1.46544,-0.07765 6.78133,7.56611 6.78133,7.56611c0,0 3.83133,13.34036 3.73597,17.77909c-0.00771,0.35915 -3.27651,0.88583 -4.5913,2.8855c-1.54217,2.34547 -0.92718,6.31523 -0.92718,6.31523z" fill="#100d25"/><path d="M265.52872,200.83762c0,0 -0.87758,-1.4846 -1.03124,-2.20235c-0.16245,-0.75875 0.7381,-1.87017 0.7381,-1.87017c0,0 4.68674,-0.24257 7.08199,-0.77596c2.85639,-0.63607 8.91773,-2.7869 8.91773,-2.7869c0,0 1.2309,0.53033 1.45645,1.1798c0.21025,0.60544 -0.14588,2.59422 -0.14588,2.59422c0,0 -6.57611,1.79936 -9.49872,2.46253c-2.73768,0.62121 -7.51841,1.39885 -7.51841,1.39885z" fill="#160f3d"/><path d="M268.76979,208.89506c0,0 -0.87759,-1.4846 -1.03125,-2.20235c-0.16245,-0.75875 0.7381,-1.87018 0.7381,-1.87018c0,0 4.68674,-0.24257 7.08199,-0.77596c2.85639,-0.63607 8.91773,-2.7869 8.91773,-2.7869c0,0 0.97733,0.80487 1.20255,1.45346c0.21065,0.6066 0.10801,2.32055 0.10801,2.32055c0,0 -6.5761,1.79937 -9.4987,2.46254c-2.73768,0.62121 -7.51841,1.39884 -7.51841,1.39884z" fill="#160f3d"/><path d="M276.74988,204.18363c0,0 6.88572,2.31301 6.65574,2.49735c-0.34241,0.27447 -0.60301,2.25129 -1.8282,3.82358c-1.07068,1.37398 -3.21561,2.04652 -3.21561,2.04652c0,0 -2.54535,-0.63848 -3.46923,-1.23586c-0.87854,-0.56803 -2.01476,-2.60364 -2.01476,-2.60364z" fill="#2a2355"/></g><path d="M290.89882,221.16302c0,0 -2.3599,-0.26959 -2.7293,-0.56711c-0.36942,-0.2975 -1.03566,-1.66831 -1.2471,-2.22721c-0.21144,-0.55889 0.31087,-2.89245 0.31087,-2.89245l9.16492,-2.36802z" fill="#2a2355"/><path d="M278.65676,220.39383c0.36135,-3.38354 3.37371,-5.83095 6.72831,-5.46649c3.3546,0.36447 5.78113,3.4028 5.41978,6.78638c-0.36135,3.38354 -3.37369,5.83098 -6.72831,5.46651c-3.3546,-0.36447 -5.7811,-3.40283 -5.41976,-6.78637z" fill="#160f3d"/><path d="M273.21502,242.44817c0,0 -0.22712,-7.59317 0.13157,-9.70205c0.71174,-4.1846 3.30355,-11.93277 3.30355,-11.93277c0,0 3.83368,4.38424 5.89019,5.16313c1.61579,0.61196 5.44869,-0.86866 5.44869,-0.86866c0,0 -2.01299,6.07173 -2.16123,8.79941c-0.08891,1.63614 -0.63012,1.9234 -1.04415,4.39911c-0.26176,1.5652 0.36187,3.48632 0.013,5.39407c-0.35954,1.96607 -1.68781,3.89587 -1.68781,3.89587z" fill="#100d25"/><path d="M274.9603,265.50127c-4.20303,-1.47433 -2.86124,-7.31015 -1.86147,-7.95004c4.47687,-2.86528 11.65944,-4.48674 11.44806,-5.0855c-0.31826,-0.90147 1.05753,-5.17084 1.05753,-5.17084l9.77558,-2.15665c0,0 -0.49799,7.1121 -1.18195,9.41222c-0.4728,1.58997 -1.34288,4.77924 -2.17649,6.32526c-0.23777,0.44098 -1.2642,1.88506 -2.791,2.97527c-1.41341,1.00924 -3.34411,1.68602 -3.34411,1.68602c0,0 -5.61407,1.82762 -10.92615,-0.03576z" fill="#100d25"/><path d="M293.65141,250.67494c1.11716,1.94289 -0.2145,4.99136 -0.2145,4.99136c0,0 -3.83335,-0.23361 -6.42293,-1.1414c-2.3173,-0.81236 -6.30922,-2.7169 -6.30922,-2.7169c0,0 0.45735,-3.83702 2.48196,-4.80154c2.02462,-0.96452 3.82261,-1.26998 5.9543,-0.52271c2.21216,0.77547 3.3932,2.24829 4.5104,4.19118z" data-paper-data="{&quot;index&quot;:null}" fill="#2a2355"/><path d="M290.28433,254.46398c1.04854,1.8235 -0.20134,4.68465 -0.20134,4.68465c0,0 -3.59782,-0.21927 -6.02828,-1.07129c-2.17492,-0.76245 -5.92156,-2.54995 -5.92156,-2.54995c0,0 0.42925,-3.60126 2.32946,-4.50653c1.90022,-0.90524 3.58773,-1.19195 5.58845,-0.4906c2.07623,0.72784 3.18471,2.11015 4.23326,3.93366z" data-paper-data="{&quot;index&quot;:null}" fill="#2a2355"/><path d="M269.38186,241.86758c-0.11226,-1.78709 1.85089,-7.06657 3.42503,-8.10591c0.08644,-0.05708 -3.33097,-6.18855 -1.65638,-9.99533c0.65453,-1.48793 2.99809,-9.30907 3.95112,-10.25378c0.19784,-0.19611 6.3131,-0.36743 6.3131,-0.36743l2.04188,3.33041l-3.93415,5.16312c0,0 7.13394,-0.35478 7.29589,-0.40089c0.85421,-0.24315 -9.62005,11.08034 -8.71052,11.0995c1.24823,0.0263 2.28743,-0.20834 3.41429,-0.12026c1.98617,0.15526 3.72831,0.95799 3.90951,1.24395c0.16171,0.25524 2.11591,2.1367 1.72712,2.77876c-0.38878,0.6421 -2.24785,0.72233 -3.08872,0.60533c-0.07354,-0.01023 -2.25188,-0.45342 -2.65012,1.56911c-0.66772,3.39113 -1.75036,9.41855 -0.91271,12.64592c0.29167,1.12375 3.08498,2.48328 3.09682,2.48458c0.58468,0.06352 2.54262,3.06462 3.35978,2.75209c0.71568,-0.27372 1.95364,-2.65076 2.90085,-2.83265c0.71153,-0.13663 1.28773,0.03478 2.24156,0.1384c1.41793,0.15406 -1.79662,4.51991 -1.83792,4.90663c-0.03696,0.34615 -1.81025,1.86294 -1.81025,1.86294c0,0 -2.45935,1.63033 -5.37745,1.31329c-1.21291,-0.13179 -8.42538,1.18435 -11.31111,-0.96487c-1.09363,-0.81451 -0.59587,-4.38109 -1.34324,-6.6296c-0.74737,-2.24852 -0.88926,-9.7543 -1.04436,-12.22337z" fill="#160f3d"/><path d="M274.74952,244.32268c2.06157,-0.32692 6.90547,2.34577 6.90547,2.34577l0.73965,5.03319l-3.77775,1.51619l-4.63699,0.16839c0,0 -4.90149,-0.6871 -5.01255,-1.40047c-0.29045,-1.86541 -0.11055,-3.95825 -0.11055,-3.95825c0,0 3.71314,-3.35924 5.89272,-3.70483z" data-paper-data="{&quot;index&quot;:null}" fill="#100d25"/></g><g stroke-linecap="butt"><g><path d="M232.14716,220.60454c0,0 -3.15185,-4.11822 -2.41553,-5.83693c1.70197,-3.97272 11.51288,-16.49859 11.51288,-16.49859l8.11974,-0.4068c0,0 1.5255,1.49603 2.02256,2.412c0.95845,1.76621 1.14408,3.68439 0.5864,4.7477c-2.1339,4.06874 -12.38529,16.54885 -12.38529,16.54885z" fill="#2a2355"/><path d="M229.38725,218.31626c0,0 -1.2549,-3.79355 0.33147,-9.94535c0.37551,-1.45622 -0.79144,-3.39525 -0.41113,-4.19544c2.7534,-5.79333 4.76703,-13.63016 4.76703,-13.63016c0,0 10.26237,6.45514 12.83881,8.55458c1.19671,0.97515 2.51073,4.94224 2.51073,4.94224l-15.69168,19.94616c0,0 -0.41252,-2.3546 -1.07087,-3.37568c-0.80687,-1.25142 -3.27435,-2.29633 -3.27435,-2.29633z" fill="#160f3d"/><path d="M220.45676,221.79852c0,0 0.84802,-11.54893 2.17985,-14.45873c0.79902,-1.74567 3.00614,-6.55849 6.46984,-9.97129c2.1557,-2.12403 1.93787,-5.84681 3.22024,-7.06934c1.41665,-1.35052 4.22225,-0.09069 4.22225,-0.09069c0,0 3.62491,-0.51492 6.2911,0.86868c1.85731,0.96384 2.85785,3.74318 3.48771,4.50491c0.99583,1.20435 -2.05532,10.60657 -2.05532,10.60657c0,0 -8.78334,11.75009 -12.57584,14.48754c-0.30686,0.22149 -2.82529,-2.24044 -5.34144,-2.09524c-2.95125,0.1703 -5.89839,3.21759 -5.89839,3.21759z" fill="#100d25"/><path d="M229.89242,194.6891c0,0 0.60336,-1.72735 1.07852,-2.34021c0.50229,-0.64789 2.00988,-0.66187 2.00988,-0.66187c0,0 3.37302,3.68465 5.42732,5.29016c2.44979,1.91462 8.29492,5.43431 8.29492,5.43431c0,0 0.4064,1.37051 0.03507,1.9961c-0.34615,0.58319 -2.19281,1.63917 -2.19281,1.63917c0,0 -5.91041,-4.18078 -8.42696,-6.1314c-2.35732,-1.82719 -6.22593,-5.22624 -6.22593,-5.22624z" fill="#160f3d"/><path d="M225.2154,202.99887c0,0 0.60337,-1.72736 1.07851,-2.34022c0.50229,-0.64789 2.00988,-0.66187 2.00988,-0.66187c0,0 3.37301,3.68466 5.42732,5.29016c2.44979,1.91462 8.29493,5.43434 8.29493,5.43434c0,0 0.0129,1.34839 -0.35792,1.97314c-0.34681,0.58431 -1.7998,1.66212 -1.7998,1.66212c0,0 -5.91041,-4.18078 -8.42697,-6.1314c-2.35732,-1.82719 -6.22592,-5.22623 -6.22592,-5.22623z" fill="#160f3d"/></g><path d="M230.66034,228.15351c0,0 -1.80774,-1.71061 -1.9328,-2.19206c-0.12508,-0.48143 0.16525,-2.04778 0.334,-2.64853c0.16873,-0.60074 2.04893,-2.22484 2.04893,-2.22484l9.1325,3.78566z" fill="#2a2355"/><path d="M221.64448,220.81772c1.918,-2.97893 5.86663,-3.82528 8.81956,-1.89038c2.95292,1.93489 3.79193,5.9183 1.8739,8.89727c-1.918,2.97893 -5.86663,3.82531 -8.81957,1.8904c-2.95292,-1.93489 -3.79189,-5.91832 -1.87389,-8.89726z" fill="#160f3d"/><path d="M205.36893,238.11895c0,0 3.33781,-7.17888 4.65754,-8.9721c2.61868,-3.55824 8.65348,-9.54075 8.65348,-9.54075c0,0 1.52001,5.90601 3.07064,7.60942c1.21833,1.33835 5.47901,1.78256 5.47901,1.78256c0,0 -4.71228,4.69665 -6.1253,7.16622c-0.84756,1.48131 -1.48574,1.4914 -3.02843,3.5999c-0.97533,1.33303 -1.29269,3.41861 -2.50925,5.02921c-1.25375,1.65983 -3.39247,2.82514 -3.39247,2.82514z" fill="#100d25"/><path d="M196.71848,260.72763c-0.80602,-1.08949 -1.54863,-2.34036 -2.09199,-3.73668c-1.697,-4.36093 3.79845,-7.25344 4.98022,-6.88912c5.29175,1.63139 11.44443,6.2704 11.77117,5.69465c0.4919,-0.86684 4.78002,-2.6679 4.78002,-2.6679c0,0 1.78038,2.96989 3.76177,4.02263c1.88591,1.002 7.8543,2.14911 7.8543,2.14911c0,0 -4.13559,5.09855 -9.71234,5.40444c-8.77804,0.48147 -19.89047,-2.01358 -21.34314,-3.97712z" fill="#100d25"/><path d="M218.78,261.64716c-0.58845,2.26797 -3.79668,3.53905 -3.79668,3.53905c0,0 -2.66937,-3.01581 -3.92605,-5.60878c-1.12452,-2.32036 -2.69356,-6.69173 -2.69356,-6.69173c0,0 3.13528,-2.5037 5.33803,-1.71692c2.20274,0.78679 3.75725,1.89384 4.79173,4.02832c1.07352,2.21506 0.87498,4.18209 0.28655,6.45009z" data-paper-data="{&quot;index&quot;:null}" fill="#2a2355"/><path d="M215.04459,256.99469c0.12387,2.19678 -2.37719,4.26667 -2.37719,4.26667c0,0 -3.24724,-1.91536 -5.11187,-3.86474c-1.66856,-1.74443 -4.32131,-5.19092 -4.32131,-5.19092c0,0 2.08298,-3.14938 4.27533,-3.08861c2.19233,0.06079 3.8975,0.59641 5.43242,2.20108c1.59285,1.66526 1.97875,3.4797 2.10264,5.67648z" data-paper-data="{&quot;index&quot;:null}" fill="#2a2355"/><path d="M200.74375,236.62603c0.87762,-1.64613 5.50349,-5.23253 7.46645,-5.27784c0.10779,-0.00249 0.43225,-7.33718 3.99727,-9.77904c1.39344,-0.95443 7.746,-6.58155 9.1069,-6.88854c0.2825,-0.06373 7.41198,1.22132 7.41198,1.22132l-1.62935,6.05238l-6.30859,2.38679c0,0 6.51472,3.6543 6.68343,3.70355c0.88979,0.25974 -14.58156,4.46731 -13.78617,4.99027c1.09156,0.71771 2.14061,1.08791 3.09084,1.79284c1.67489,1.24252 2.77957,2.92305 2.78376,3.27726c0.00373,0.31615 0.70649,3.07059 0.01098,3.42329c-0.69554,0.35273 -2.38655,-0.61041 -3.0676,-1.18188c-0.05957,-0.04998 -1.74728,-1.65458 -3.20592,-0.0838c-2.44567,2.63366 -6.70035,7.3727 -7.72272,10.69869c-0.35598,1.1581 1.37562,3.91684 1.3854,3.92457c0.4833,0.38156 0.57725,4.13027 1.47214,4.3079c0.78375,0.15557 3.22408,0.59651 4.16277,0.96228c0.35844,0.13968 6.00726,4.11665 5.25893,5.17955c-0.72378,1.02804 -19.82215,1.06105 -22.23428,-0.84328c-1.00261,-0.79154 -1.68667,-6.32118 -3.0684,-9.83114c-0.52365,-1.33019 1.86737,-4.21389 2.43454,-6.62223c0.56717,-2.40835 4.54517,-9.1387 5.75768,-11.41299z" fill="#160f3d"/><path d="M205.40729,240.68108c2.07222,0.67609 5.33282,5.46877 5.33282,5.46877l-1.66401,5.03876l-4.22597,-0.38486l-4.39595,-2.04861c0,0 -4.24234,-2.97106 -4.0123,-3.68818c0.60153,-1.87523 1.74728,-3.73854 1.74728,-3.73854c0,0 5.0273,-1.36216 7.21814,-0.64735z" data-paper-data="{&quot;index&quot;:null}" fill="#100d25"/><path d="M233.71406,204.74456c0,0 2.57687,7.5893 2.26119,7.49439c-0.47004,-0.1413 -2.70323,1.16891 -4.92306,1.04231c-1.93986,-0.11065 -3.93011,-1.66808 -3.93011,-1.66808c0,0 -1.31633,-2.48836 -1.36503,-3.72886c-0.04632,-1.17961 1.07959,-3.54067 1.07959,-3.54067z" fill="#2a2355"/></g><path d="" fill="#160f3d" stroke-linecap="butt"/><g data-paper-data="{&quot;index&quot;:null}" stroke-linecap="butt"><g><path d="M166.40194,146.97749c0,0 -13.56314,3.35528 -24.32349,12.52124c-10.76036,9.16597 -23.19461,27.76759 -23.19461,27.76759c0,0 8.19164,-26.44819 15.61436,-35.98012c7.42272,-9.53193 21.53136,-15.1679 25.49651,-17.36832c0.51692,-0.28686 3.3868,2.99868 5.0726,5.95661c1.31514,2.30756 1.33462,7.10298 1.33462,7.10298z" data-paper-data="{&quot;index&quot;:null}" fill="#160f3d"/><path d="M164.78688,142.54458c0,0 -4.37551,1.96858 -9.51614,4.29179c-3.7093,1.67636 -8.10246,3.78683 -10.63567,5.80471c-6.04392,4.81443 -14.24627,13.25091 -14.24627,13.25091c0,0 2.83677,-6.88503 7.39277,-12.36534c4.8029,-5.77731 12.76519,-10.40563 14.17,-11.36145c2.37318,-1.61469 10.72101,-4.29171 10.72101,-4.29171z" data-paper-data="{&quot;index&quot;:null}" fill="#2a2355"/></g><g><path d="M169.19005,144.09787c0,0 -11.88826,7.34071 -19.33168,19.35717c-7.44342,12.01648 -13.59629,33.52863 -13.59629,33.52863c0,0 -0.28522,-27.68623 3.86845,-39.0309c4.15366,-11.34466 15.86416,-21.02364 18.96689,-24.3308c0.40448,-0.43114 4.14131,1.81988 6.65062,4.1209c1.95756,1.79506 3.442,6.355 3.442,6.355z" data-paper-data="{&quot;index&quot;:null}" fill="#160f3d"/><path d="M166.29728,140.37079c0,0 -3.56433,3.21187 -7.74873,6.99528c-3.01934,2.72999 -6.55705,6.08234 -8.35218,8.778c-4.28295,6.43151 -9.51379,16.97147 -9.51379,16.97147c0,0 0.59634,-7.42261 3.25903,-14.0333c2.80698,-6.96892 8.97335,-13.80964 10.01874,-15.14913c1.76599,-2.26284 8.89592,-7.3635 8.89592,-7.3635z" data-paper-data="{&quot;index&quot;:null}" fill="#2a2355"/></g><g data-paper-data="{&quot;index&quot;:null}"><path d="M168.91595,143.18536c0,0 -7.70245,11.65713 -9.4066,25.68909c-1.70416,14.03197 1.75339,36.13799 1.75339,36.13799c0,0 -11.8942,-25.00274 -12.89285,-37.04256c-0.99866,-12.03982 5.55983,-25.74401 6.98539,-30.04888c0.18584,-0.56121 4.52267,-0.08908 7.76665,0.94432c2.5307,0.80618 5.79403,4.32004 5.79403,4.32004z" data-paper-data="{&quot;index&quot;:null}" fill="#160f3d"/><path d="M164.7247,141.01907c0,0 -1.88446,4.41241 -4.09138,9.60402c-1.59245,3.74611 -3.39373,8.27482 -3.88976,11.47528c-1.18345,7.63591 -1.50042,19.39824 -1.50042,19.39824c0,0 -2.57829,-6.98594 -2.94036,-14.10351c-0.38169,-7.5033 2.33882,-16.30206 2.72447,-17.95686c0.65149,-2.79548 4.97762,-10.42025 4.97762,-10.42025z" data-paper-data="{&quot;index&quot;:null}" fill="#2a2355"/></g><g><path d="M162.57001,138.86744c0,0 3.22485,-2.19176 5.36633,1.15034c5.67812,8.86149 27.05546,21.34499 27.05546,21.34499c0,0 2.31932,2.89098 1.15391,5.19293c-0.3132,0.61867 -3.12486,0.9689 -3.42632,1.38392c-0.40492,0.55744 -16.97291,-9.80363 -26.01801,-22.91959c-1.26193,-1.8299 -4.13137,-6.15258 -4.13137,-6.15258z" fill="#100d25"/><path d="M188.83211,169.95797c-0.37811,0.36703 -15.74073,-12.60712 -19.52189,-16.41607c-3.50031,-3.52602 -9.64812,-11.73368 -9.64812,-11.73368l3.24318,-3.04513c0,0 5.88672,8.84321 9.71886,12.32498c3.74912,3.40638 21.18272,16.13381 21.18272,16.13381c0,0 -1.05638,0.96248 -2.11794,1.74679c-0.8685,0.64167 -2.57265,0.71348 -2.85682,0.9893z" data-paper-data="{&quot;index&quot;:null}" fill="#160f3d"/></g><g><path d="M195.77445,167.40905c0,0 1.82973,-4.79224 5.0758,-2.82143c8.60689,5.22561 30.62885,6.20266 30.62885,6.20266c0,0 3.16715,1.44853 3.37137,4.25528c0.0549,0.75435 -1.94099,2.62736 -1.97446,3.18353c-0.04496,0.74703 -17.45441,-1.23759 -30.68666,-8.62026c-1.84613,-1.03 -6.41489,-2.19977 -6.41489,-2.19977z" fill="#100d25"/><path d="M232.53319,182.37487c-0.10938,0.52409 -17.99777,-2.21347 -23.87731,-3.86344c-0.3248,-0.09114 -14.06224,-5.03686 -14.06224,-5.03686l1.38889,-6.34774c0,0 8.74068,4.85603 13.35439,6.03038c4.5138,1.14892 24.03259,3.79931 24.03259,3.79931c0,0 -0.35251,1.48592 -0.79421,2.80695c-0.36137,1.0808 0.04462,2.19575 -0.0421,2.61138z" data-paper-data="{&quot;index&quot;:null}" fill="#160f3d"/></g><g><path d="M202.09347,155.36647l0.02453,7.58454c0,0 -1.77959,0.10449 -2.32037,-0.02449c-0.54077,-0.12898 -1.86453,-0.33666 -2.21151,-0.61291c-0.347,-0.27625 -1.31901,-1.89871 -1.31901,-1.89871z" fill="#160f3d"/><path d="M189.0307,163.62104l5.65947,-4.86554l9.82272,6.03152l-2.36145,7.38128l-5.40507,5.26707l-9.8227,-6.03149z" fill="#2a2355"/></g><path d="M170.219,136.24131c1.94866,3.99029 0.29357,8.80478 -3.69674,10.75344c-3.99029,1.94865 -8.80479,0.29357 -10.75344,-3.69674c-1.94866,-3.99029 -0.29357,-8.80478 3.69674,-10.75344c3.99029,-1.94866 8.80479,-0.29358 10.75344,3.69673z" fill="#100d25"/><path d="M161.39582,143.73379c-2.24352,-1.11906 -3.15507,-3.84495 -2.03602,-6.08847c1.11906,-2.24352 3.84495,-3.15507 6.08847,-2.03602c2.24352,1.11906 3.15507,3.84495 2.03602,6.08847c-1.11906,2.24352 -3.84495,3.15507 -6.08847,2.03602z" fill="#2a2355"/><path d="M198.15527,167.01032c0.22841,1.42404 -0.43804,2.86958 -1.86208,3.09798c-1.42406,0.22837 -3.06639,-0.84682 -3.2948,-2.27085c-0.22843,-1.42403 0.74083,-2.76358 2.16486,-2.99199c1.42403,-0.2284 2.7636,0.74082 2.99201,2.16485z" fill="#160f3d"/><g><path d="M225.73742,177.08467l3.24897,-6.48313l8.95537,-2.76722l-1.91815,7.45259l4.22731,5.49809l-9.25697,2.47512z" fill="#2a2355"/><path d="M238.75012,175.45685c0.06838,2.26481 -1.71216,4.1562 -3.97695,4.22459c-2.26478,0.0684 -4.15619,-1.71215 -4.22457,-3.97693c-0.0684,-2.26478 1.71214,-4.15619 3.97693,-4.22458c2.2648,-0.06838 4.15622,1.71217 4.2246,3.97695z" fill="#160f3d"/><path d="M240.28832,181.65112c0,0 -4.93832,-3.21793 -5.77631,-6.30105c-0.83798,-3.08312 1.75245,-8.03051 1.75245,-8.03051l5.9769,-1.85564l6.60085,13.20775z" fill="#160f3d"/></g></g><g fill="none" stroke-linecap="round"><path d="M248.81076,133.66299"/><path d="M240.34143,135.0653"/></g><path d="M243.47054,185.83363c0,0 -0.18747,-1.09541 -0.47926,-2.81115c-0.10759,-0.63269 -2.58126,-1.7623 -2.58126,-1.7623c0,0 1.89838,-1.75741 1.85413,-2.52775c-0.0305,-0.53082 -0.17943,-1.0631 -0.27173,-1.6112c-0.10494,-0.62317 -2.59712,-2.332 -2.59712,-2.332c0,0 1.94263,-1.58426 1.84935,-2.1425c-0.20364,-1.21876 -0.27896,-1.66471 -0.4473,-2.68881c-0.13079,-0.79564 -6.77564,5.33869 -11.07761,-1.3388c-4.30198,-6.67748 -4.56503,-15.96835 -3.37038,-19.85774c1.19464,-3.88939 9.75035,-0.77282 9.75035,-0.77282l20.56894,-2.26191c0,0 4.59036,-8.94039 9.42786,-3.26437c4.83751,5.67604 5.07708,13.86954 4.45651,17.58999c-0.62058,3.72045 -8.36896,4.75762 -8.25369,5.45888c0.05153,0.3135 0.55357,2.26219 0.61455,2.65826c0.09856,0.64021 3.36311,1.64987 3.36311,1.64987c0,0 -2.86376,1.78819 -2.79998,2.29729c0.19844,1.58383 0.05342,1.23119 0.20528,2.71998c0.04545,0.44547 2.68895,1.20895 2.68895,1.20895c0,0 -2.29364,2.10682 -2.25422,2.5405c0.21355,2.34988 0.30302,3.80387 0.30302,3.80387z" fill="#100d25" stroke-linecap="butt"/><path d="M248.07859,151.76326c4.54787,-0.56227 21.64706,-4.52092 21.64706,-4.52092c0,0 1.8204,2.11921 0.4827,3.01988c-1.29511,0.872 -17.25927,3.82701 -19.13574,4.32692c-1.58564,0.42242 -0.15979,2.12331 -0.1496,2.25471c0.02639,0.33995 16.48658,-4.48771 19.22553,-4.06171c0.87784,0.13653 4.31671,1.09027 4.31671,1.09027c0,0 -3.14148,2.22803 -3.12389,2.34608c0.03866,0.25935 -16.439,2.91886 -20.15695,3.7857c-1.28151,0.29879 -0.57241,2.01956 -0.58814,2.12721c-0.05974,0.40891 20.43716,-3.53636 20.43716,-3.53636l3.31712,0.57413l-2.87522,2.49812c0,0 -19.89049,2.91926 -19.79686,3.50772c0.09989,0.62776 0.47347,2.58192 0.47347,2.58192l12.20694,-2.56908l3.38705,1.4702l-3.15848,2.02452c0,0 -11.91095,1.26293 -11.88647,1.96396c0.02161,0.6193 -0.64789,2.16161 1.65406,2.45695c3.77519,0.48435 10.31605,-1.5046 10.31605,-1.5046l4.2812,1.09151c0,0 -3.0887,1.2205 -4.09761,1.63579c-2.67892,1.1027 -10.87746,2.1125 -10.81275,2.59213c0.15729,1.16584 1.44081,2.66017 1.44081,2.66017l14.60409,-2.62428l-3.85128,4.94752l-23.92934,5.07947l-5.60248,-3.52472c0,0 12.9053,-1.43531 13.74563,-2.63786c0.68341,-0.978 -0.70039,-1.8784 -0.98164,-2.88319c-0.14034,-0.50142 -6.79017,2.02164 -9.31455,1.75792c-1.1916,-0.12449 -4.33115,-0.93745 -4.33115,-0.93745l3.73699,-2.10637c0,0 6.86939,-1.20633 9.79693,-2.68032c1.97241,-0.99309 -0.05808,-2.55855 -0.22967,-2.8753c-0.25956,-0.47916 -10.07845,2.28849 -10.07845,2.28849l-4.8947,-0.43399l4.05031,-2.77836c0,0 7.85425,-1.53083 10.39563,-2.24162c1.87298,-0.52387 -0.1278,-1.66921 -0.20891,-2.10105c-0.13145,-0.69998 -18.39848,4.03998 -18.52521,3.41597c-0.04373,-0.21531 -3.86811,-0.04872 -3.86811,-0.04872c0,0 2.10962,-2.01449 3.02998,-2.7669c1.53355,-1.25372 17.93051,-2.7728 18.93366,-3.72369c0.94014,-0.89117 0.85841,-0.99884 0.65211,-1.59289c-0.21346,-0.6147 -19.11866,2.67967 -21.42911,2.6625c-1.19517,-0.0089 -4.27123,-1.10735 -4.27123,-1.10735c0,0 2.99477,-2.05576 3.22464,-2.3039c1.05967,-1.14382 21.85959,-2.38768 21.74532,-3.03301c-0.05632,-0.31802 0.0955,-1.85653 0.05307,-2.11466c-0.11874,-0.72241 -22.27241,3.10371 -22.26162,2.46036c0.0289,-1.72281 1.25078,-3.51277 1.25078,-3.51277c0,0 17.41774,-1.93705 21.15416,-2.399z" data-paper-data="{&quot;index&quot;:null}" fill="#160f3d" stroke-linecap="butt"/><path d="M249.21111,166.13806c0,0 9.13873,2.43059 8.83692,2.6803c-0.44937,0.37179 -0.64334,3.43779 -2.2359,5.54831c-1.39171,1.84431 -4.23395,2.78966 -4.23395,2.78966c0,0 -3.30829,-0.3311 -4.55562,-1.09647c-1.1861,-0.7278 -2.754,-3.38874 -2.754,-3.38874z" fill="#2a2355" stroke-linecap="butt"/><path d="M247.96111,159.23805c0,0 9.13872,2.43059 8.83691,2.6803c-0.44937,0.37179 -0.64333,3.43779 -2.2359,5.54831c-1.39171,1.84431 -4.23395,2.78966 -4.23395,2.78966c0,0 -3.3083,-0.3311 -4.55563,-1.09647c-1.1861,-0.7278 -2.75399,-3.38873 -2.75399,-3.38873z" fill="#2a2355" stroke-linecap="butt"/><path d="M246.76112,153.03805c0,0 9.13872,2.43059 8.83691,2.6803c-0.44937,0.37179 -0.64333,3.43779 -2.2359,5.54831c-1.39171,1.84431 -4.23395,2.78966 -4.23395,2.78966c0,0 -3.3083,-0.3311 -4.55563,-1.09647c-1.1861,-0.7278 -2.75399,-3.38873 -2.75399,-3.38873z" fill="#2a2355" stroke-linecap="butt"/><path d="M263.50841,192.63804c0.39513,0.63103 -18.47233,2.3791 -18.47233,2.3791c0,0 -2.49328,-3.06288 -5.65238,-4.84878c-1.56072,-0.8823 -6.85403,-1.29648 -6.25045,-1.83796c0.68312,-0.61283 4.31386,-5.79807 7.25315,-5.92455c2.13998,-0.0921 4.48591,-0.48855 6.71893,0.15152c3.53476,1.01319 6.66839,3.26696 7.35643,3.13068c0.16897,-0.03348 3.56853,-5.80115 8.21414,-6.17985c1.6095,-0.13118 5.3968,-0.29388 6.72009,0.07246c1.50518,0.41669 7.06654,4.40926 7.81046,5.95182c0.20224,0.41935 -4.19959,0.20453 -8.25342,1.65698c-3.98985,1.42952 -5.44458,5.44861 -5.44458,5.44861z" fill="#100d25" stroke-linecap="butt"/><path d="M268.68294,201.88412c1.0675,1.57391 0.13987,4.0066 0.13987,4.0066c0,0 -2.65263,4.36257 -7.58834,6.11579c-4.04805,1.43794 -7.3614,0.69423 -10.80974,-0.51132c-3.44835,-1.20555 -4.84291,-2.31658 -5.96957,-4.00673c-1.12663,-1.69015 -0.13184,-5.01113 -0.13929,-5.15757c-0.04513,-0.8853 1.54675,-2.80239 1.48501,-3.55049c-0.25996,-3.14984 -0.7019,-3.04441 -0.7019,-3.04441c0,0 -1.46963,-2.70062 0.5673,-3.44479c4.90221,-1.791 18.67714,-3.19823 18.41421,-2.88256c-0.14383,0.17264 -0.1223,1.82887 0.65012,2.53837c0.62146,0.57083 -1.00653,1.13592 -0.66125,1.61539c0.47608,0.66112 1.69358,2.70434 1.56054,4.49011c-0.0982,1.31834 1.97544,2.24281 3.05302,3.83163z" fill="#100d25" stroke-linecap="butt"/><path d="M266.85575,203.04907c0.09657,3.74819 -7.01936,7.94533 -12.71994,7.35036c-3.21905,-0.33597 -6.40361,-4.75767 -6.55576,-5.3465c-0.4108,-1.58974 0.54925,-2.67096 0.73024,-4.64114c0.13547,-1.47477 -0.51557,-3.88074 -0.59502,-5.00771c-0.24289,-3.44536 1.7095,-6.42553 1.7095,-6.42553l11.51504,-1.30693c0,0 -0.00786,1.89072 2.5589,5.08327c1.08264,1.34661 0.9201,6.56276 0.97579,8.72365z" fill="#160f3d" stroke-linecap="butt"/><path d="M255.15302,197.28666c0,0 8.19986,1.9609 8.025,2.11669c-0.39139,0.34871 -0.46474,3.10879 -1.8257,5.05673c-1.18932,1.70225 -3.71098,2.64476 -3.71098,2.64476c0,0 -2.98219,-0.18857 -4.12766,-0.83496c-1.08924,-0.61468 -2.58493,-2.95303 -2.58493,-2.95303z" fill="#2a2355" stroke-linecap="butt"/><path d="M253.92331,191.29267c0,0 8.28785,1.88249 8.02499,2.11668c-0.39139,0.34871 -0.46473,3.10879 -1.8257,5.05673c-1.18932,1.70225 -3.71098,2.64476 -3.71098,2.64476c0,0 -2.98219,-0.18857 -4.12766,-0.83496c-1.08924,-0.61469 -2.58494,-2.95303 -2.58494,-2.95303z" fill="#2a2355" stroke-linecap="butt"/><path d="M252.61705,184.1196c0,0 9.42665,2.50801 9.1153,2.76556c-0.46357,0.38349 -0.66395,3.54612 -2.30691,5.72305c-1.43576,1.90236 -4.36769,2.87726 -4.36769,2.87726c0,0 -3.41255,-0.34181 -4.69915,-1.13143c-1.22345,-0.75084 -2.84053,-3.49582 -2.84053,-3.49582z" fill="#2a2355" stroke-linecap="butt"/><path d="M280.84208,189.64925c0,0 -6.39334,-1.60383 -9.6266,-0.53923c-3.23324,1.0646 -6.29726,5.22466 -7.62512,4.65578c-0.71581,-0.30667 -2.21906,-1.05405 -2.00012,-2.66854c0.28756,-2.1204 4.83985,-3.5426 5.11542,-3.71783c4.71488,-2.99806 9.37523,-2.47725 10.11484,-2.35937c3.06533,0.48848 4.02157,4.62918 4.02157,4.62918z" data-paper-data="{&quot;index&quot;:null}" fill="#160f3d" stroke-linecap="butt"/><path d="M246.69497,198.5464c0,0 -4.42498,-4.1628 -7.62156,-5.94044c-2.75391,-1.53149 -3.76369,-1.23396 -8.36675,-1.58305c-1.7309,-0.13128 3.7182,-4.96013 4.8858,-4.63315c6.29452,1.76285 11.10083,5.66932 11.63807,6.27312c2.22655,2.50239 -0.53555,5.88354 -0.53555,5.88354z" data-paper-data="{&quot;index&quot;:null}" fill="#160f3d" stroke-linecap="butt"/><g data-paper-data="{&quot;index&quot;:null}" stroke-linecap="butt"><g><path d="M207.45104,178.71799c4.66233,2.81865 6.15695,8.88316 3.3383,13.54549c-2.81865,4.66233 -8.88316,6.15695 -13.54549,3.3383c-4.66234,-2.81864 -6.15694,-8.88315 -3.3383,-13.54548c2.81864,-4.66235 8.88315,-6.15696 13.54548,-3.33831z" fill="#160f3d"/><g><path d="M169.15976,243.85546c0,0 -2.02608,-0.35284 -2.73193,-0.8093c-0.77323,-0.50006 -1.72375,-2.0722 -1.72375,-2.0722l3.40542,-5.2658l4.45567,2.88151z" fill="#160f3d"/><path d="M173.37912,240.44677c0,0 -3.6132,0.03738 -4.80056,-0.73971c-1.33633,-0.8746 -2.82345,-4.25001 -2.82345,-4.25001l9.53918,-14.57533l7.62401,4.98972z" fill="#100d25"/><path d="M198.26581,213.17572l-10.86278,15.63085c0,0 -7.01773,-1.86439 -9.70941,-3.54479c-2.61147,-1.63031 -6.20725,-6.39181 -6.20725,-6.39181l8.8806,-17.72879z" fill="#2a2355"/><path d="M183.06063,231.37625c0,0 -4.7739,-0.56212 -7.29563,-2.21253c-2.52175,-1.65041 -4.51793,-5.51915 -4.51793,-5.51915l11.84596,-20.91258l-2.13249,-9.84614l5.77707,7.7415l13.35474,-8.37803l-2.49648,14.74976l8.88255,2.55092l-10.31707,1.57474z" fill="#160f3d"/><path d="M181.64289,226.07761c0,0 -2.59205,-0.25514 -3.57549,-0.89876c-0.87171,-0.5705 -2.03042,-2.77014 -2.03042,-2.77014l9.00093,-16.68917l7.28766,4.76959z" fill="#0028ff"/><path d="M200.36146,199.9545c0,0 -3.07918,4.98652 -4.36136,7.06292c-0.47766,0.77355 3.97533,6.18837 3.97533,6.18837l-7.18699,-0.87378c0,0 -5.04147,2.3608 -7.12499,0.8177c-2.0835,-1.5431 -0.87002,-6.739 -0.87002,-6.739l-4.5329,-5.65147c0,0 6.74603,1.69508 7.23333,0.90593c1.2785,-2.07048 4.3168,-6.9908 4.3168,-6.9908l8.55082,5.28012z" fill="#100d25"/><path d="M199.26144,195.62532c1.16351,-1.71375 3.73874,-5.1492 3.73874,-5.1492c0,0 1.81464,0.2057 2.48155,0.63608c0.77877,0.50257 1.90771,2.19648 1.90771,2.19648c0,0 -2.383,3.26485 -3.53472,4.9612c-0.61336,0.90343 -2.72508,1.96883 -3.66753,3.17022c-0.7883,1.00486 -0.5919,1.66604 -0.04422,2.64832c0.54769,0.98227 4.20642,0.52335 4.20642,0.52335c0,0 -2.74043,2.37903 -5.00476,2.83002c-2.26431,0.451 -3.04487,-0.65349 -3.44803,-1.14644c-0.96971,-1.18573 0.26759,-5.75046 0.26759,-5.75046c0,0 1.98437,-3.28039 3.09726,-4.91959z" data-paper-data="{&quot;index&quot;:null}" fill="#2a2355"/><path d="M172.87035,236.60718c0,0 -1.78831,0.25433 -2.32491,-0.09686c-0.6039,-0.39524 -1.1206,-2.15812 -1.1206,-2.15812l5.65773,-8.64466l3.89017,-1.77782l-0.44467,4.03281z" fill="#2a2355"/><path d="M199.48165,188.39216c0,0 -2.07671,3.75783 -3.16233,5.52194c-1.0384,1.68739 -3.21608,4.84276 -3.21608,4.84276c0,0 -3.65543,3.00092 -5.13458,2.60293c-0.61493,-0.16546 -1.94243,-0.42426 -2.45995,-2.67429c-0.51752,-2.25004 0.52795,-5.72519 0.52795,-5.72519c0,0 1.08234,3.52499 2.20281,3.62153c1.1205,0.09654 1.80406,0.00443 2.39711,-1.12669c0.70904,-1.35235 0.81441,-3.71525 1.38672,-4.64523c1.07461,-1.74622 3.07458,-5.25877 3.07458,-5.25877c0,0 2.00791,0.33472 2.78571,0.8388c0.66607,0.43167 1.59806,2.00221 1.59806,2.00221z" fill="#2a2355"/><path d="M211.9111,194.50896l-6.39099,0.18224l-6.27324,0.81523l-10.48559,12.69145l7.3671,-14.72706l-2.51253,-5.69712l-3.03957,-4.52755l5.91959,0.11401c0,0 4.79731,-0.19937 7.57931,1.13413c2.78199,1.33352 3.99409,5.83069 3.99409,5.83069z" fill="#160f3d"/><path d="M206.95316,181.92815c0,0 3.26667,3.74011 2.67513,5.9887c-0.20674,0.78583 -4.3336,7.41804 -4.3336,7.41804l-5.69943,-0.41701l2.61033,-7.40942l-6.22412,6.18238l-2.64257,-5.2043l4.36879,-6.6824c0,0 2.00859,-1.63898 4.68104,-1.71696c2.67245,-0.07798 4.56442,1.84101 4.56442,1.84101z" fill="#100d25"/><path d="M191.36103,225.20587l-1.84851,0.44606c0,0 -5.78375,-3.14475 -8.47852,-4.9084c-2.71367,-1.77602 -7.7472,-5.71091 -7.7472,-5.71091l-0.15786,-1.60863l1.67532,-0.70995c0,0 4.84245,3.80984 7.48956,5.5423c2.75699,1.80438 8.73613,5.077 8.73613,5.077z" fill="#100d25"/></g></g><g><path d="M209.91099,179.61478c0.33455,0.13831 -1.20567,7.86295 -3.88015,10.8568c-2.51457,2.81484 -7.26335,4.38342 -7.26335,4.38342c0,0 -2.26624,-4.57569 -1.5816,-8.32366c0.80117,-4.38598 4.97355,-10.24518 4.97355,-10.24518c0,0 6.33775,2.74411 7.75154,3.32862z" fill="#2a2355"/><g><path d="M218.66695,174.46131c0,0 -2.96694,2.85644 -5.23572,2.77244c-2.42313,-0.08972 -4.20746,-3.13813 -5.85588,-3.73881c-1.53906,-0.56084 -4.42377,-0.36356 -6.02097,-1.67679c-1.7542,-1.44231 -2.15257,-4.37701 -2.15257,-4.37701l7.08005,-13.35927l16.37578,7.61797l-4.19068,12.76146z" fill="#100d25"/><path d="M221.71186,174.18835c0,0 -4.81058,5.45874 -8.78726,5.98428c-3.74332,0.49469 -5.96871,-1.15917 -8.59243,-2.64212c-2.62371,-1.48294 -7.09317,-3.53391 -7.32315,-6.21383c-0.28755,-3.35065 1.86896,-9.58235 1.86896,-9.58235l2.96078,8.2154l4.09896,-3.76356l5.11581,-0.08776l2.80687,5.62081l-1.23561,4.43239l9.08713,-1.96328z" fill="#160f3d"/><path d="M208.01495,172.57105l-4.28146,-7.86377l4.88176,-8.34854l4.92951,3.7771l6.57139,2.05066l-3.71761,9.7204z" fill="#2a2355"/></g></g><g><path d="M241.84885,134.32247c0,0 -2.75868,4.21017 -2.21198,6.77342c0.5467,2.56324 4.64297,4.62403 4.64297,4.62403c0,0 -5.16169,-0.8569 -7.08746,0.78399c-1.92578,1.64088 -0.43051,5.62178 -0.43051,5.62178c0,0 -4.84472,-0.81673 -6.78799,0.60009c-1.94325,1.41681 -2.55826,5.4034 -2.55826,5.4034c0,0 -2.39655,1.09517 -5.1832,0.40767c-2.78665,-0.68749 -4.36106,-1.77096 -6.52781,-3.35774c-2.16675,-1.58677 -5.04797,-4.67703 -5.04797,-4.67703l-3.93775,-4.71943c0,0 5.82967,2.73075 6.50239,0.40203c0.67273,-2.32873 -4.82104,-3.91601 -4.82104,-3.91601l7.32512,-1.04488l-1.81324,-8.9506c0,0 7.15832,4.84966 7.71934,4.63898c0.76229,-0.28626 3.10422,-7.09461 3.10422,-7.09461c0,0 1.94913,7.39614 3.28481,7.67961c1.029,0.21839 5.48016,-6.40317 5.48016,-6.40317c0,0 -0.59295,8.66527 0.21061,9.47601c1.02808,1.0373 8.13759,-6.24755 8.13759,-6.24755z" data-paper-data="{&quot;index&quot;:null}" fill="#100d25"/><path d="M223.10328,146.60976l1.30785,-2.18644l10.41431,6.02488l-1.36105,2.48418z" fill="#100d25"/><path d="M236.87419,151.9255c-0.68343,1.95135 -2.81933,2.97917 -4.77066,2.29576c-1.95135,-0.68343 -2.97917,-2.81933 -2.29576,-4.77066c0.68343,-1.95134 2.81933,-2.97916 4.77065,-2.29575c1.95135,0.68343 2.97917,2.81933 2.29576,4.77066z" fill="#160f3d"/></g><path d="M222.37858,162.25444c-1.79349,-0.02696 -7.8104,-1.87909 -12.60864,-5.16533c-4.85056,-3.32206 -5.78674,-6.70467 -5.78674,-6.70467l6.05731,0.62917l2.93358,2.08217c0,0 3.00071,1.96865 4.70074,2.81454c1.77648,0.88393 5.99532,2.23415 5.99532,2.23415l7.44126,1.28991c0,0 -5.12633,2.87428 -8.73284,2.82006z" fill="#160f3d"/><g><path d="M211.32652,163.02842l8.37154,-17.1038l2.53691,1.59564l-8.16113,16.11987z" fill="#100d25"/><path d="M221.43566,147.60652c-1.65887,-0.45638 -2.63367,-2.17112 -2.17729,-3.82999c0.45639,-1.65887 2.17113,-2.63366 3.83,-2.17728c1.65886,0.45639 2.63366,2.17113 2.17728,3.83c-0.45638,1.65886 -2.17111,2.63366 -3.82999,2.17727z" fill="#160f3d"/></g><g><path d="M201.36921,185.93014l7.83912,-18.99964l2.38166,1.43061l-8.2464,19.37707z" fill="#100d25"/><path d="M215.03361,166.4076c-0.25214,1.86786 -1.97073,3.17764 -3.83859,2.92549c-1.86787,-0.25214 -3.17764,-1.97073 -2.92549,-3.83859c0.25214,-1.86786 1.97071,-3.17764 3.83858,-2.9255c1.86786,0.25214 3.17764,1.97072 2.9255,3.83858z" fill="#160f3d"/></g><path d="M202.04742,188.90632c-1.58186,-0.33226 -2.59485,-1.88395 -2.26258,-3.46581c0.33226,-1.58185 1.88395,-2.59485 3.46581,-2.26258c1.58186,0.33225 2.59485,1.88395 2.26258,3.46581c-0.33226,1.58186 -1.88395,2.59485 -3.46581,2.26258z" fill="#160f3d"/></g><g stroke-linecap="butt"><path d="M346.39857,76.79087c0,0 0.12243,4.99426 0.53745,5.49021c0.52055,0.62211 -4.86621,-2.97208 -4.86621,-2.97208l0.5164,5.15618l-4.78692,-0.68735l1.09441,4.90297l-4.30477,0.07759c0,0 -4.7204,6.84024 -5.71709,6.76041c-1.62592,-0.13028 -5.76024,-0.17317 -5.18515,-2.25764c0.4096,-1.48463 5.47056,-5.06689 5.28969,-5.64784c-0.86717,-2.78553 -5.37116,-10.95789 -5.37116,-10.95789l6.53815,2.63275l1.12112,-3.38683l3.30012,2.09995l2.6504,-4.49396z" fill="#160f3d"/><path d="M335.49704,81.79966c0,0 -7.80759,7.37097 -9.50554,10.59799c-1.72233,3.27328 -0.75639,8.9049 -0.75639,8.9049l-3.36923,-0.79503c0,0 -2.85436,-5.12228 -2.41429,-8.44199c0.08859,-0.66812 -2.98939,-4.26768 -2.98939,-4.26768l4.42143,-0.41914l-2.54498,-4.54706c0,0 3.67019,0.75481 4.70332,0.19566c1.07338,-0.58092 1.78621,-3.66988 1.78621,-3.66988l3.21139,4.25614l7.45748,-1.81397z" fill="#100d25"/></g><g stroke-linecap="butt"><path d="M348.31532,84.3675c0,0 4.71988,3.6815 5.75574,5.56164c0.91915,1.66831 0.49879,6.15075 0.49879,6.15075c0,0 -0.77161,3.20629 -2.27442,5.39651c-1.35517,1.97505 -3.96664,3.52105 -4.16745,4.20368c-0.11173,0.3798 2.92913,1.93299 2.92913,1.93299c0,0 -13.80533,4.48177 -14.44292,3.25504c-0.74704,-1.43739 6.77264,-5.56364 10.23377,-14.09243c1.7682,-4.35717 1.46728,-12.40816 1.46728,-12.40816z" fill="#160f3d"/><path d="M331.56026,100.43737c2.03099,-0.92149 10.39004,-0.98288 10.39004,-0.98288c0,0 0.35107,-2.07824 0.25628,-3.04999c-0.10484,-1.07439 -0.85818,-3.11939 -0.85818,-3.11939c0,0 1.75238,1.29932 2.49855,1.46314c0.80952,0.17773 2.18405,-0.43512 2.18405,-0.43512l0.15325,-2.82848l-0.6958,-4.12709c0,0 5.98262,3.31053 5.60205,7.31646c-0.3291,3.46403 -5.28357,7.26357 -5.96797,9.47479c-0.53223,1.71954 0.793,4.10333 -0.54065,5.98294c-2.23834,3.15463 -7.14156,3.48098 -7.14156,3.48098l-6.95194,-4.00409c0,0 0.77547,-9.03674 1.07192,-9.17124z" fill="#100d25"/></g><g stroke-linecap="butt"><path d="M332.98857,95.29399c0,0 1.01056,0.41813 1.29666,1.01207c0.28257,0.58667 0.29712,1.89045 0.29712,1.89045l-7.02804,3.73224l-1.70622,-3.54215z" fill="#100d25"/><g><g><path d="M321.42436,97.34036l-14.11075,-1.05336l0.79015,-3.98158l14.84619,1.61285z" fill="#160f3d"/><path d="M307.87647,87.90368c0.76637,-0.22276 1.97299,0.56902 2.25585,1.54207c0.72804,2.50446 3.90293,13.42618 3.90293,13.42618l-9.89945,2.87767l-3.80163,-13.07789c0,0 -0.23298,-2.50789 0.47129,-2.71261c1.95659,-0.56877 5.81859,-1.69144 7.07102,-2.05549z" fill="#160f3d"/><path d="M303.01381,104.66739c0,0 -6.46142,-4.82783 -12.16569,-2.27489c-5.7043,2.55292 -8.44664,13.65924 -8.44664,13.65924l-4.06927,-1.69073c0,0 4.0894,-12.8615 10.71155,-15.59501c6.62213,-2.73348 15.97248,2.98093 15.97248,2.98093z" fill="#160f3d"/><path d="M308.28206,93.73637c0.38761,1.3335 -0.37915,2.72871 -1.71263,3.11635c-1.33348,0.3876 -2.72871,-0.37915 -3.11635,-1.71263c-0.3876,-1.33348 0.37915,-2.72871 1.71263,-3.11635c1.33348,-0.3876 2.72871,0.37915 3.11635,1.71263z" fill="#2a2355"/></g><path d="M313.57887,137.05932l-7.24553,-4.5441c0,0 0.18702,-2.13594 0.5216,-2.5549c0.33461,-0.4189 1.28234,-1.40584 1.68162,-1.55816c0.39932,-0.15231 2.50491,0.26705 2.50491,0.26705z" fill="#2a2355"/><path d="M335.06746,115.8283c0,0 -12.57657,5.71623 -12.94958,4.43307c-0.16755,-0.57639 -2.29982,-3.60586 -2.29982,-3.60586l5.43535,-18.82438l4.22538,-1.22829z" fill="#160f3d"/><path d="M324.27682,92.40661c2.97535,-0.86493 6.08847,0.84593 6.9534,3.82127c0.86493,2.97535 -0.84593,6.08847 -3.82127,6.9534c-2.97535,0.86493 -6.0885,-0.84593 -6.95342,-3.82128c-0.86493,-2.97535 0.84593,-6.08849 3.82131,-6.9534z" fill="#160f3d"/><path d="M314.74899,99.67128c0.42823,-0.31802 6.49378,1.33015 9.74383,5.56872c2.19509,2.86271 2.04641,8.83489 2.04641,8.83489c0,0 -26.11393,19.38199 -26.23052,18.76293c-0.30556,-1.62216 -7.98117,-17.39653 -7.98117,-17.39653c0,0 19.30102,-13.45283 22.42145,-15.77002z" fill="#160f3d"/><path d="M317.53767,108.40273l-1.30927,3.77663l-15.62833,15.28984l-5.79362,-9.84454l19.3052,-9.46963z" fill="#2a2355"/><path d="M296.89087,111.73248l-2.14207,-2.7179c0,0 -0.03523,-1.05943 0.45912,-1.40458c1.51105,-1.05502 9.47199,-6.56558 12.73126,-8.84125c0.87736,-0.6126 1.57809,-0.02014 1.57809,-0.02014l2.34269,2.5323z" fill="#100d25"/><path d="M326.32354,101.00464l3.64763,12.30175l-6.19688,2.92051l-2.94614,-11.02537l-8.5976,-6.17217l4.75624,-4.10558z" fill="#100d25"/><path d="M334.48104,104.59332c1.38035,-0.40126 2.82468,0.39248 3.22592,1.77282c0.40125,1.38035 -0.39248,2.82465 -1.77282,3.22591c-1.38034,0.40123 -2.82466,-0.39247 -3.22591,-1.77282c-0.40126,-1.38034 0.39248,-2.82465 1.77282,-3.22591z" fill="#2a2355"/><path d="M323.80487,129.44976l-7.24557,-4.5441c0,0 0.18704,-2.13596 0.52162,-2.5549c0.3346,-0.41893 1.28234,-1.40584 1.68162,-1.55816c0.3993,-0.15233 2.50492,0.26705 2.50492,0.26705z" fill="#2a2355"/><path d="M318.38275,133.31713l-7.24557,-4.54411c0,0 0.18704,-2.13596 0.52162,-2.5549c0.3346,-0.41893 1.28234,-1.40584 1.68162,-1.55816c0.39929,-0.15231 2.50491,0.26705 2.50491,0.26705z" fill="#2a2355"/><path d="M304.32914,134.4921c0,0 -5.05289,-1.83198 -4.36719,-2.31073c2.09589,-1.46335 22.94769,-17.27372 22.94769,-17.27372c0,0 0.3418,1.84994 0.50298,2.71616c0.17795,0.95624 0.75927,2.73576 0.75927,2.73576z" fill="#100d25"/><path d="M325.01981,95.22594c1.40019,-0.40704 2.86518,0.39806 3.27221,1.79825c0.40701,1.4002 -0.39806,2.86518 -1.79825,3.27221c-1.40017,0.40704 -2.86516,-0.39807 -3.27218,-1.79826c-0.40703,-1.40017 0.39806,-2.86518 1.79825,-3.27221z" fill="#2a2355"/></g></g><g stroke-linecap="butt"><g><g><path d="M298.90461,135.71461l-13.1993,6.41957l-1.11345,-11.16751l-10.67832,-7.43353l12.66101,-5.98199l10.41471,6.74942z" data-paper-data="{&quot;index&quot;:null}" fill="#160f3d"/><path d="M290.44673,112.62573c0,0 10.32144,7.26221 10.43664,7.8066c0.38376,1.81354 2.40216,14.80685 2.40216,14.80685l-7.89474,2.09165l-1.63421,-12.67787l-9.27476,-7.16996z" fill="#2a2355"/></g><path d="M298.25727,123.17257c0,0 -16.12105,11.4976 -16.55606,10.85213c-0.2513,-0.37293 -1.0144,-2.65626 -1.0144,-2.65626l14.77848,-9.95947z" fill="#100d25"/></g><path d="M297.72748,118.08566c1.85027,-0.43773 3.70505,0.70735 4.14281,2.55764c0.43774,1.85027 -0.70735,3.7051 -2.55765,4.14286c-1.85028,0.43774 -3.70507,-0.70735 -4.14284,-2.55764c-0.43775,-1.85029 0.70733,-3.70509 2.55762,-4.14287z" fill="#160f3d"/></g><g stroke-linecap="butt"><path d="M287.15569,118.88459l-26.09401,12.80986l-5.19407,-9.24669c0,0 1.03479,-2.87959 2.29808,-3.48287c2.83617,-1.3545 14.32568,-6.85543 20.34094,-9.62984c2.24663,-1.03618 3.56175,-0.86053 3.56175,-0.86053z" fill="#2a2355"/><path d="M254.0567,117.35261c0.42885,-0.20104 1.19899,0.082 1.50677,0.73868c1.06668,2.27554 7.14461,15.24126 7.14461,15.24126l-3.53797,1.6585c0,0 -6.53362,-12.13885 -7.61263,-14.59214c-0.34449,-0.78327 0.48847,-1.79414 0.48847,-1.79414c0,0 1.35753,-0.94591 2.01077,-1.25211z" fill="#100d25"/><path d="M282.97039,104.95926c0.51902,-0.24331 1.06968,0.56962 1.49393,1.47469c1.19872,2.55711 6.87794,14.67238 6.87794,14.67238l-3.53797,1.6585c0,0 -6.17024,-13.16266 -7.20112,-15.3618c-0.28191,-0.60137 0.28094,-1.53286 0.77646,-1.76514c0.29952,-0.14042 1.13982,-0.46723 1.59077,-0.67864z" fill="#100d25"/><path d="M277.42625,113.0983c1.10205,-0.49799 2.19098,0.07756 2.4594,0.67159c0.40573,0.89791 1.7004,3.64158 1.7004,3.64158c0,0 -0.35573,1.56197 -1.17253,1.931c-1.86733,0.84373 -9.95474,4.98247 -14.45696,6.60522c-1.91334,0.68958 -2.96539,-0.13417 -2.96539,-0.13417c0,0 -1.06781,-2.36318 -1.47259,-3.25902c-0.28399,-0.62851 0.1462,-1.99785 1.03103,-2.39768c2.13471,-0.96459 10.99108,-5.30291 14.87663,-7.05857z" fill="#0028ff"/><path d="M258.66649,148.78656l-4.56901,-2.09147c0,0 7.40232,-3.39687 6.91597,-5.32875c-0.38013,-1.50991 -6.28038,-6.56575 -6.28038,-6.56575c0,0 6.08084,-1.01716 6.48335,-2.42899c0.52249,-1.8326 -3.24859,-6.78682 -3.24859,-6.78682c0,0 6.88067,0.01118 7.66489,-0.7496c0.57713,-0.55986 0.59136,-7.8993 0.59136,-7.8993l6.10105,4.19658l5.626,-5.98175c0,0 1.82902,4.0993 3.1151,5.49303c0.2882,0.31234 6.43356,-3.01394 6.43356,-3.01394l-2.20373,7.19119c0,0 4.3456,3.49687 4.3916,5.10277c0.04105,1.43289 -5.62947,9.23556 -5.62947,9.23556l5.4193,2.54902c0,0 -5.15333,1.19417 -6.29836,1.64763c-1.18377,0.46884 -5.63609,-0.25947 -6.93685,0.4011c-2.93245,1.48927 -2.87209,4.53913 -5.75092,5.22239c-2.26372,0.53729 -4.8747,-0.9991 -5.95427,-0.44175c-2.11661,1.09285 -5.65367,5.70966 -5.65367,5.70966z" fill="#100d25"/><path d="M272.10213,136.63187c0,0 -10.45957,-2.06598 -13.41825,-2.70702c-1.43176,-0.31022 1.01004,-3.00949 1.01004,-3.00949l13.09559,2.54399z" fill="#100d25"/><path d="M274.00151,131.6391c1.7914,0.36165 2.95046,2.10708 2.58883,3.89847c-0.36165,1.7914 -2.10706,2.95046 -3.89847,2.58881c-1.7914,-0.36163 -2.95046,-2.10706 -2.58881,-3.89847c0.36164,-1.7914 2.10708,-2.95045 3.89847,-2.58879z" fill="#160f3d"/><path d="M283.05232,127.85532c1.6853,0.34024 2.77568,1.98227 2.43544,3.66756c-0.34026,1.68528 -1.98224,2.7757 -3.66754,2.43545c-1.68528,-0.34026 -2.77568,-1.98227 -2.43544,-3.66756c0.34024,-1.6853 1.98227,-2.77568 3.66756,-2.43544z" fill="#160f3d"/></g></g></g></svg>