<svg version="1.1" xmlns="http://www.w3.org/2000/svg" xmlns:xlink="http://www.w3.org/1999/xlink" width="44.98342" height="39.08632" viewBox="0,0,44.98342,39.08632"><defs><linearGradient x1="201.99291" y1="188.72255" x2="199.02307" y2="191.69239" gradientUnits="userSpaceOnUse" id="color-1"><stop offset="0" stop-color="#333333"/><stop offset="1" stop-color="#515151"/></linearGradient><linearGradient x1="247.95045" y1="175.01369" x2="231.59141" y2="175.01369" gradientUnits="userSpaceOnUse" id="color-2"><stop offset="0" stop-color="#3d3d3d"/><stop offset="1" stop-color="#2e2e2e"/></linearGradient><linearGradient x1="237.51102" y1="166.74845" x2="242.05388" y2="166.74845" gradientUnits="userSpaceOnUse" id="color-3"><stop offset="0" stop-color="#054e00"/><stop offset="1" stop-color="#1aa800"/></linearGradient><linearGradient x1="256.61253" y1="170.18221" x2="263.69911" y2="170.18221" gradientUnits="userSpaceOnUse" id="color-4"><stop offset="0" stop-color="#00cb24"/><stop offset="1" stop-color="#062505"/></linearGradient><linearGradient x1="239.54037" y1="175.43523" x2="239.54037" y2="183.35189" gradientUnits="userSpaceOnUse" id="color-5"><stop offset="0" stop-color="#101010"/><stop offset="1" stop-color="#202020"/></linearGradient></defs><g transform="translate(-230.71925,-156.4924)"><g data-paper-data="{&quot;isPaintingLayer&quot;:true}" fill-rule="nonzero" stroke-linejoin="miter" stroke-miterlimit="10" stroke-dasharray="" stroke-dashoffset="0" style="mix-blend-mode: normal"><path d="M238.13703,169.3097c0,0 4.17599,-0.20272 6.36787,0.52156c2.54643,0.84143 8.00713,4.22844 8.00713,4.22844" data-paper-data="{&quot;index&quot;:null}" fill="none" stroke="#000000" stroke-width="2" stroke-linecap="round"/><path d="M236.20907,194.37872c-1.82354,0 -3.30181,-1.6045 -3.30181,-3.58375c0,-1.97925 1.47827,-3.58375 3.30181,-3.58375c1.82354,0 3.30181,1.6045 3.30181,3.58375c0,1.97925 -1.47827,3.58375 -3.30181,3.58375z" data-paper-data="{&quot;index&quot;:null}" fill="#232323" stroke="#000000" stroke-width="2" stroke-linecap="butt"/><path d="M239.39478,194.27872c-1.82354,0 -3.30181,-1.6045 -3.30181,-3.58374c0,-1.97925 1.47827,-3.58374 3.30181,-3.58374c1.82354,0 3.30181,1.6045 3.30181,3.58374c0,1.97925 -1.47826,3.58374 -3.30181,3.58374z" data-paper-data="{&quot;index&quot;:null}" fill="#232323" stroke="#000000" stroke-width="2" stroke-linecap="butt"/><path d="M242.7805,194.57872c-1.82354,0 -3.30181,-1.60451 -3.30181,-3.58375c0,-1.97925 1.47827,-3.58374 3.30181,-3.58374c1.82354,0 3.30181,1.6045 3.30181,3.58374c0,1.97925 -1.47826,3.58375 -3.30181,3.58375z" data-paper-data="{&quot;index&quot;:null}" fill="#232323" stroke="#000000" stroke-width="2" stroke-linecap="butt"/><path d="" fill="url(#color-1)" stroke="#000000" stroke-width="1.5" stroke-linecap="butt"/><path d="M247.95045,190.35892c0,0 -1.73117,0 -3.13777,0c-0.8718,0 -3.15539,-1.43258 -4.89552,-1.43258c-2.07497,0 -3.68642,1.43258 -5.47026,1.43258c-1.67477,0 -2.8555,0 -2.8555,0c0,0 -0.12215,-23.59765 -0.12215,-28.38946c0,-1.72308 1.26656,-4.72706 2.4634,-4.72706c3.3275,0 9.50032,0 11.36069,0c0.8925,0 2.53625,2.50574 2.53625,4.16098c0,4.72687 0.12086,28.95553 0.12086,28.95553z" data-paper-data="{&quot;index&quot;:null}" fill="url(#color-2)" stroke="#000000" stroke-width="1.5" stroke-linecap="butt"/><path d="M237.51102,172.44845v-11.4h4.54286v11.4z" fill="url(#color-3)" stroke="#000000" stroke-width="1.5" stroke-linecap="butt"/><g stroke-linecap="butt"><path d="M251.42422,170.03556c0,0 -0.55615,-0.92575 -0.63623,-1.39289c-0.07297,-0.42563 0.1751,-1.29702 0.1751,-1.29702c0,0 5.68154,1.07596 8.53085,1.07596c1.66646,0 4.55876,-0.08926 6.0714,-0.69196c1.1318,-0.45095 1.15292,-1.45997 1.15292,-1.45997c0,0 0.89487,0.93255 1.13296,1.44445c0.2702,0.58093 0.40413,1.8603 0.40413,1.8603z" fill="#6d6d6d" stroke="#000000" stroke-width="0.75"/><path d="M257.29071,175.89153c0,0 -0.7491,-0.80988 -0.83818,-1.1998c-0.08472,-0.37086 -0.63151,-1.0854 -0.63151,-1.0854l0.84334,-0.35366c0,0 0.63375,0.6929 0.72076,1.07377c0.08701,0.38087 -0.09441,1.56509 -0.09441,1.56509z" fill="#9d1919" stroke="#000000" stroke-width="0.5"/><path d="M251.58281,177.71914c0,0 -2.3838,-3.88612 -0.57233,-6.9432c1.23592,-2.08577 6.18525,-3.72296 8.25778,-3.72296c3.46432,0 6.89094,1.87537 8.23442,1.87537c1.10574,0 1.53709,0.65791 1.53709,1.28932c0,0.35792 -1.31751,0.85181 -1.31751,1.40653c0,0.84593 1.31751,2.06777 1.31751,2.93027c0,0.62883 -1.09792,1.75816 -1.09792,1.75816c0,0 -2.13895,0.60272 -3.29376,0c-1.15481,-0.60272 -1.64688,-2.57863 -1.64688,-2.57863c0,0 -5.64659,-1.02102 -7.72287,-0.2394c-2.07627,0.78162 0.46473,2.09651 -0.58323,3.55255c-1.11653,1.55131 -0.56035,2.74145 -1.27351,3.15706c-1.86574,1.08731 -1.83877,-2.48506 -1.83877,-2.48506z" fill="#292929" stroke="#000000" stroke-width="1"/><path d="M266.42993,172.76095c0,0 -0.64138,-0.79904 -0.66287,-1.21342c-0.01609,-0.31018 0.54536,-1.05203 0.54536,-1.05203h8.34335c0,0 0.5469,0.70599 0.5469,1.0731c0,0.38698 -0.5469,1.19234 -0.5469,1.19234z" fill="#121212" stroke="#000000" stroke-width="1"/><path d="M256.61253,171.15235c0,0 -0.17736,-0.68419 -0.17736,-0.98687c0,-0.33978 0.17736,-0.9534 0.17736,-0.9534h7.08659c0,0 0.17735,0.61362 0.17735,0.9534c0,0.30268 -0.17735,0.98687 -0.17735,0.98687z" fill="url(#color-4)" stroke="#000000" stroke-width="1"/><path d="M254.01313,170.10128c0,-0.23048 0.17205,-0.41732 0.38427,-0.41732c0.21223,0 0.38427,0.18684 0.38427,0.41732c0,0.23048 -0.17205,0.41732 -0.38427,0.41732c-0.21223,0 -0.38427,-0.18684 -0.38427,-0.41732z" fill="#0d0d0d" stroke="none" stroke-width="0.5"/><path d="M254.92679,171.28028c0,-0.23048 0.17205,-0.41732 0.38427,-0.41732c0.21223,0 0.38427,0.18684 0.38427,0.41732c0,0.23048 -0.17205,0.41732 -0.38427,0.41732c-0.21223,0 -0.38427,-0.18684 -0.38427,-0.41732z" fill="#0d0d0d" stroke="none" stroke-width="0.5"/><path d="M251.80961,171.8114c0,-0.23048 0.17205,-0.41732 0.38427,-0.41732c0.21223,0 0.38427,0.18684 0.38427,0.41732c0,0.23048 -0.17205,0.41732 -0.38427,0.41732c-0.21223,0 -0.38427,-0.18684 -0.38427,-0.41732z" fill="#0d0d0d" stroke="none" stroke-width="0.5"/><path d="M253.06723,172.49429c0,-0.23048 0.17205,-0.41732 0.38427,-0.41732c0.21223,0 0.38427,0.18684 0.38427,0.41732c0,0.23048 -0.17205,0.41732 -0.38427,0.41732c-0.21223,0 -0.38427,-0.18684 -0.38427,-0.41732z" fill="#0d0d0d" stroke="none" stroke-width="0.5"/><path d="M252.42565,179.91264c0,0 -0.03748,-0.32401 -0.11051,-0.87582c-0.06984,-0.52768 -0.17218,-1.27223 -0.30534,-1.77464c-0.12765,-0.4816 -0.66504,-1.00915 -0.90424,-1.68688c-0.33713,-0.9552 -0.19617,-1.50511 -0.19617,-1.50511c0,0 1.16935,-0.48976 1.71515,-0.47862c0.49847,0.01017 1.43055,0.54282 1.43055,0.54282c0,0 -0.1087,0.1689 0.06974,0.90392c0.10154,0.41826 0.41768,0.87431 0.41768,1.27571c0,0.38564 -0.59939,1.61526 -0.94503,2.15899c-0.4561,0.71749 -0.21652,1.23021 -0.21652,1.23021c0,0 -0.30844,0.18306 -0.45086,0.21429c-0.17082,0.03745 -0.50445,-0.00486 -0.50445,-0.00486z" fill="#0d0d0d" stroke="#000000" stroke-width="0.5"/><path d="M266.25073,174.39547c0,-0.23048 0.17205,-0.41732 0.38427,-0.41732c0.21223,0 0.38427,0.18684 0.38427,0.41732c0,0.23048 -0.17205,0.41732 -0.38427,0.41732c-0.21223,0 -0.38427,-0.18684 -0.38427,-0.41732z" fill="#0d0d0d" stroke="none" stroke-width="0.5"/><path d="M264.71364,173.88925c0,-0.23048 0.17205,-0.41732 0.38427,-0.41732c0.21223,0 0.38427,0.18684 0.38427,0.41732c0,0.23048 -0.17205,0.41732 -0.38427,0.41732c-0.21223,0 -0.38427,-0.18684 -0.38427,-0.41732z" fill="#0d0d0d" stroke="none" stroke-width="0.5"/><path d="M264.53629,170.22968c0,-0.23048 0.17205,-0.41732 0.38427,-0.41732c0.21223,0 0.38427,0.18684 0.38427,0.41732c0,0.23048 -0.17205,0.41732 -0.38427,0.41732c-0.21223,0 -0.38427,-0.18684 -0.38427,-0.41732z" fill="#0d0d0d" stroke="none" stroke-width="0.5"/><path d="M264.00422,172.21997c0,-0.23048 0.17205,-0.41732 0.38427,-0.41732c0.21223,0 0.38427,0.18684 0.38427,0.41732c0,0.23048 -0.17205,0.41732 -0.38427,0.41732c-0.21223,0 -0.38427,-0.18684 -0.38427,-0.41732z" fill="#0d0d0d" stroke="none" stroke-width="0.5"/></g><path d="M252.76202,174.78359c0,0 -5.46069,3.38701 -8.00712,4.22844c-2.19189,0.72428 -6.36788,0.52156 -6.36788,0.52156" fill="none" stroke="#000000" stroke-width="2" stroke-linecap="round"/><path d="M235.58204,179.39356l3.95833,-3.95833l3.95833,3.95833l-3.95833,3.95833z" fill="url(#color-5)" stroke="#000000" stroke-width="1.5" stroke-linecap="butt"/></g></g></svg>