<svg version="1.1" xmlns="http://www.w3.org/2000/svg" xmlns:xlink="http://www.w3.org/1999/xlink" width="599.30462" height="360.53152" viewBox="0,0,599.30462,360.53152"><g transform="translate(117.53292,-0.97736)"><g data-paper-data="{&quot;isPaintingLayer&quot;:true}" fill-rule="nonzero" stroke-linejoin="miter" stroke-miterlimit="10" stroke-dasharray="" stroke-dashoffset="0" style="mix-blend-mode: normal"><path d="M481.7717,0.98615v16.35462h-257.02703v-16.35462z" data-paper-data="{&quot;index&quot;:null}" fill="#000000" stroke="none" stroke-width="0" stroke-linecap="butt"/><path d="M481.0842,15.85091v345.65797h-52v-345.65797z" data-paper-data="{&quot;index&quot;:null}" fill="#000000" stroke="none" stroke-width="0" stroke-linecap="butt"/><path d="M181.92701,0.97736v119.12294h-299.45993v-119.12294z" data-paper-data="{&quot;index&quot;:null}" fill="#000000" stroke="none" stroke-width="0" stroke-linecap="butt"/><path d="M-115.55799,360.17801v-244.76276h160.41519v244.76276z" fill="#000000" stroke="none" stroke-width="0" stroke-linecap="butt"/><path d="M178.625,119.16667v-56.66666h66v56.66666z" fill="#000000" stroke="#000000" stroke-width="2" stroke-linecap="butt"/><path d="M254.625,198.5v-8.3301h39.5v8.3301z" fill="#000000" stroke="#000000" stroke-width="2" stroke-linecap="butt"/><path d="M86.625,361.5v-31h343v31z" fill="#000000" stroke="none" stroke-width="0" stroke-linecap="butt"/><path d="M41.30295,252.74312v-26h201v26z" fill="#000000" stroke="#000000" stroke-width="2" stroke-linecap="butt"/><path d="M41.30295,174.74312l52.5,52.5" fill="none" stroke="#000000" stroke-width="15" stroke-linecap="round"/><path d="M156.30295,228.74312l-111,-111" fill="none" stroke="#000000" stroke-width="15" stroke-linecap="round"/><path d="M394.30295,254.74312v-8h37v8z" fill="#000000" stroke="#000000" stroke-width="2" stroke-linecap="butt"/><path d="M301.30295,330.74312v-38h44v38z" fill="#000000" stroke="#000000" stroke-width="2" stroke-linecap="butt"/><path d="M347.00629,16.26716l-41.91887,70.10164" fill="none" stroke="#000000" stroke-width="10" stroke-linecap="round"/><path d="M291.30295,89.24312c0,-6.90356 5.59644,-12.5 12.5,-12.5c6.90356,0 12.5,5.59644 12.5,12.5c0,6.90356 -5.59644,12.5 -12.5,12.5c-6.90356,0 -12.5,-5.59644 -12.5,-12.5z" fill="#000000" stroke="none" stroke-width="0" stroke-linecap="butt"/><path d="M181.30295,62.74312v-26h26v26z" fill="#000000" stroke="#000000" stroke-width="2" stroke-linecap="butt"/><path d="M64.51086,358.90856v-4h22v4z" fill="#000000" stroke="#000000" stroke-width="2" stroke-linecap="butt"/><path d="M349.37623,98.78311v-83h81v83z" fill="#000000" stroke="none" stroke-width="0" stroke-linecap="butt"/></g></g></svg>