<svg version="1.1" xmlns="http://www.w3.org/2000/svg" xmlns:xlink="http://www.w3.org/1999/xlink" width="511.03049" height="363.17863" viewBox="0,0,511.03049,363.17863"><g transform="translate(29.48333,1.66963)"><g data-paper-data="{&quot;isPaintingLayer&quot;:true}" fill="#000000" fill-rule="nonzero" stroke="none" stroke-width="0" stroke-linecap="butt" stroke-linejoin="miter" stroke-miterlimit="10" stroke-dasharray="" stroke-dashoffset="0" style="mix-blend-mode: normal"><path d="M-1.9248,361.509v-65.06889h481.67766v65.06889z" data-paper-data="{&quot;index&quot;:null}"/><path d="M481.39099,0.3894v165.87688h-49.30408v-165.87688z" data-paper-data="{&quot;index&quot;:null}"/><path d="M-2.24415,172.44315v-173.05727h33.4985v173.05727z" data-paper-data="{&quot;index&quot;:null}"/><path d="M435.71355,-0.70528v52.78916h-199.57357v-52.78918z" data-paper-data="{&quot;index&quot;:null}"/><path d="M90.10671,301.31624v-60.1051h189.92144v60.1051z" data-paper-data="{&quot;index&quot;:null}"/><path d="M-2.5509,298.62264v-82h94.48157v82z" data-paper-data="{&quot;index&quot;:null}"/><path d="M62.7024,217.5045v-62h29.34265v62z"/><path d="M185.37839,114.5045v-14h50v14z"/><path d="M206.04504,242.5045v-36h34v36z"/><path d="M279.04504,297.5045v-131h34v131z"/><path d="M229.63516,114.17583l6.06899,-13.71741l34.75078,15.37478l-6.069,13.71742z"/><path d="M185.91607,-1.66963v124.66666h-156.75v-124.66666z" data-paper-data="{&quot;index&quot;:null}"/><path d="M363.77614,296.92571v-76.6815h117.77102v76.6815z"/><g><path d="M-29.48331,161.41264h5.10375v64.1235h-5.10377z"/><path d="M-28.60179,225.37173v-8.87864h26.53954v8.87864z"/><path d="M-27.92129,172.31696l0.00001,-10.85168h25.51877v10.85168z"/></g></g></g></svg>