<svg version="1.1" xmlns="http://www.w3.org/2000/svg" xmlns:xlink="http://www.w3.org/1999/xlink" width="601.88259" height="397.97959" viewBox="0,0,601.88259,397.97959"><g transform="translate(1.85348,2.09333)"><g data-paper-data="{&quot;isPaintingLayer&quot;:true}" fill="#000000" fill-rule="nonzero" stroke="none" stroke-width="0" stroke-linecap="butt" stroke-linejoin="miter" stroke-miterlimit="10" stroke-dasharray="" stroke-dashoffset="0" style="mix-blend-mode: normal"><path d="M-0.43801,361.98353v-361.48348h54.45045v361.48349z"/><path d="M434.09956,361.05261v-363.04204h165.92955v363.04205z"/><path d="M52.29924,361.93098v-34.53454h163.17117v34.53454z"/><path d="M284.0109,360.92193v-26.53454h151.17117v26.53454z"/><path d="M260.12514,361.27634v-96h25.06186v96z"/><path d="M98.18699,295.2763v-30h162.90206v30z"/><path d="M480.10195,-2.09333v32.18667h-191.62041v-32.18667z" data-paper-data="{&quot;index&quot;:null}"/><path d="M210.8173,-0.99995v63h-212.67078v-63z" data-paper-data="{&quot;index&quot;:null}"/><path d="M389.18701,335.2763v-63h46v63z"/><path d="M335.86425,214.09863l26.16713,-13.81172l14.14505,27.8338l-19.8338,-4.85495z"/><path d="M212.18701,231.27634v-65h91v65z"/><path d="M328.187,302.9013v-11.25h36v11.25z"/><path d="M338.18701,137.27634v-20h99v20z"/><path d="M53.187,86.27634v-26h254v26z"/><path d="M147.47923,231.09152v-201h93v201z"/><path d="M89.47925,295.25816v-164h18v164z"/><path d="M130.66673,226.34152v-7.5h18v7.5z"/><path d="M106.66675,170.84152v-7.5h18v7.5z"/><path d="M71.54234,273.81688v-6.5h18.16667v6.5z"/><path d="M53.70901,215.65021v-6.5h17.66667v6.5z"/><path d="M71.04234,152.48354v-6.5h19.16667v6.5z"/><g><path d="M204.93589,395.88626v-6.52904h64.23184v6.52904z"/><path d="M269.00303,394.75857h-8.89364v-33.95102h8.89364z"/><path d="M215.85863,393.88802h-10.87001v-32.64523h10.87001z"/></g></g></g></svg>