<svg version="1.1" xmlns="http://www.w3.org/2000/svg" xmlns:xlink="http://www.w3.org/1999/xlink" width="129.65556" height="69.11676" viewBox="0,0,129.65556,69.11676"><defs><linearGradient x1="239.4835" y1="153.17206" x2="239.4835" y2="178.38391" gradientUnits="userSpaceOnUse" id="color-1"><stop offset="0" stop-color="#181818"/><stop offset="1" stop-color="#0e0e0e"/></linearGradient><linearGradient x1="228.00623" y1="152.42017" x2="228.00623" y2="160.79916" gradientUnits="userSpaceOnUse" id="color-2"><stop offset="0" stop-color="#181818"/><stop offset="1" stop-color="#0e0e0e"/></linearGradient><linearGradient x1="248.92527" y1="152.62016" x2="248.92527" y2="161.02019" gradientUnits="userSpaceOnUse" id="color-3"><stop offset="0" stop-color="#181818"/><stop offset="1" stop-color="#0e0e0e"/></linearGradient></defs><g transform="translate(-223.09342,-135.45588)"><g data-paper-data="{&quot;isPaintingLayer&quot;:true}" fill-rule="nonzero" stroke-linejoin="miter" stroke-miterlimit="10" stroke-dasharray="" stroke-dashoffset="0" style="mix-blend-mode: normal"><path d="M305.34225,188.87802c6.05862,1.48076 12.55681,3.06893 12.55681,3.06893l-13.21878,0.04086" data-paper-data="{&quot;index&quot;:null}" fill="none" stroke="#000000" stroke-width="8.5" stroke-linecap="round"/><path d="M246.07989,155.93139c0,0 6.41235,4.9886 10.16525,9.40749c3.7529,4.41889 8.2021,13.37012 8.2021,13.37012" data-paper-data="{&quot;index&quot;:null}" fill="none" stroke="#000000" stroke-width="7.5" stroke-linecap="round"/><path d="M228.45092,196.95012c0,0 0.18088,-10.40209 0.45217,-11.66728c0.47826,-2.23033 7.95017,-7.79649 10.51456,-7.851c2.07002,-0.044 9.8193,2.16283 10.549,8.71202c1.13703,3.70773 0.63077,11.88162 0.63077,11.88162" data-paper-data="{&quot;index&quot;:null}" fill="none" stroke="#000000" stroke-width="7.5" stroke-linecap="round"/><path d="M246.07989,155.93139c0,0 6.41235,4.9886 10.16525,9.40749c3.7529,4.41889 8.2021,13.37012 8.2021,13.37012" data-paper-data="{&quot;index&quot;:null}" fill="none" stroke="#585858" stroke-width="5.5" stroke-linecap="round"/><path d="M228.76403,143.58605c8.20973,-6.19202 -1.78235,-5.97871 -1.78235,-5.97871c0,0 4.91903,-2.22596 8.20278,0.68129c2.79973,2.93737 1.60228,2.40914 3.47389,3.20798c4.53063,-5.34012 -2.92908,-4.90776 -2.92908,-4.90776c0,0 5.77764,-1.52144 7.80317,1.50065c0.03347,0.07404 5.35044,6.08049 4.37719,11.68534c-0.8289,4.82061 -5.17222,7.55544 -8.17254,7.91464c-4.12661,0.49406 -13.50869,-4.59508 -10.97306,-14.10342z" fill="#555555" stroke="#000000" stroke-width="1.5" stroke-linecap="butt"/><path d="M234.31892,140.87174c0,0 1.28395,1.12225 2.58079,1.9297c1.31089,0.8162 2.76267,0.69393 3.30069,0.92357c2.00509,-2.36334 2.22552,-3.76708 2.22552,-3.76708c0,0 4.1729,5.3498 3.54365,9.11371c-0.28882,1.72761 -1.14182,2.40667 -2.36047,3.28522c-1.14403,0.82476 -2.61029,1.89317 -4.23454,2.1494c-1.19449,0.14301 -6.66017,-2.07471 -7.77097,-5.60216c-1.10352,-3.50433 2.71532,-8.03236 2.71532,-8.03236z" fill="#101010" stroke="#000000" stroke-width="1.5" stroke-linecap="butt"/><path d="M247.67549,169.46342c0,0 -5.65325,1.67473 -8.70027,1.92632c-3.00803,0.24837 -8.96639,-0.42632 -8.96639,-0.42632" fill="none" stroke="#000000" stroke-width="1.5" stroke-linecap="round"/><path d="M234.51306,148.20156c0,-1.44482 1.12044,-2.61611 2.50253,-2.61611c1.38209,0 2.50253,1.17129 2.50253,2.61611c0,1.44482 -1.12044,2.6161 -2.50253,2.6161c-1.38209,0 -2.50253,-1.17128 -2.50253,-2.6161z" fill="#000000" stroke="none" stroke-width="0" stroke-linecap="butt"/><path d="M240.94762,148.20156c0,-1.44482 1.12042,-2.6161 2.50252,-2.6161c1.38209,0 2.50252,1.17128 2.50252,2.6161c0,1.44482 -1.12043,2.61611 -2.50252,2.61611c-1.38209,0 -2.50252,-1.17129 -2.50252,-2.61611z" fill="#000000" stroke="none" stroke-width="0" stroke-linecap="butt"/><path d="M239.7554,175.87082c-5.68922,0.3512 -9.09103,3.05236 -9.5854,2.41662c-0.27009,-0.69992 -0.95739,-8.62202 -1.07403,-12.81813c-0.11584,-4.16726 0.30414,-12.29725 1.74006,-12.29725c1.2099,0 2.39135,3.77129 7.26732,3.69475c5.75091,-0.09026 6.79016,-4.75557 7.81789,-3.14345c1.02775,1.61211 0.73208,5.66583 1.11697,11.80282c0.3849,6.13699 2.85103,12.2778 2.85103,12.2778c0,0 -3.7826,-2.32522 -10.13384,-1.93316z" data-paper-data="{&quot;index&quot;:null}" fill="url(#color-1)" stroke="#000000" stroke-width="1.5" stroke-linecap="butt"/><path d="M247.60407,169.32055c0,0 -5.65325,1.67473 -8.70027,1.92632c-3.00803,0.24837 -8.96639,-0.42632 -8.96639,-0.42632" fill="none" stroke="#000000" stroke-width="1.5" stroke-linecap="round"/><path d="M236.92743,171.68018c0,0 -1.11392,-2.57705 -1.11392,-3.74684c0,-1.08551 1.11392,-3.03797 1.11392,-3.03797c0,0 1.82274,0.70886 2.53164,0.70886c0.87581,0 2.32912,-0.70886 2.32912,-0.70886c0,0 0.91139,2.01471 0.91139,3.03797c0,1.20765 -0.91139,3.74684 -0.91139,3.74684c0,0 -1.57577,1.21519 -2.32912,1.21519c-0.85421,0 -2.53164,-1.21519 -2.53164,-1.21519z" fill="#2e0000" stroke="#000000" stroke-width="2" stroke-linecap="butt"/><path d="M247.2651,173.82373c0.11451,-0.05604 -10.15056,-5.31635 -13.6635,-7.05346c-10.11189,-6.11539 -3.96602,-10.88223 -3.96602,-10.88223" fill="none" stroke="#000000" stroke-width="7.5" stroke-linecap="round"/><path d="M247.2651,173.65706c0.11451,-0.05604 -10.15056,-5.31635 -13.6635,-7.05346c-10.11189,-6.11539 -3.96602,-10.88223 -3.96602,-10.88223" fill="none" stroke="#585858" stroke-width="5.5" stroke-linecap="round"/><path d="M240.29738,172.66048l78.8948,19.28217l-12.76189,-0.16735" data-paper-data="{&quot;index&quot;:null}" fill="none" stroke="#000000" stroke-width="6" stroke-linecap="round"/><path d="M306.29768,189.30015c5.1931,1.26922 10.76298,2.63051 10.76298,2.63051l-11.33038,0.03502" data-paper-data="{&quot;index&quot;:null}" fill="none" stroke="#d40000" stroke-width="6" stroke-linecap="round"/><path d="M240.29738,172.66048l78.8948,19.28217l-12.76189,-0.16735" data-paper-data="{&quot;index&quot;:null}" fill="none" stroke="#a60000" stroke-width="3" stroke-linecap="round"/><path d="M244.5972,174.1903c0,-2.04321 1.57031,-3.69958 3.50736,-3.69958c1.93705,0 3.50736,1.65637 3.50736,3.69959c0,2.04321 -1.5703,3.69958 -3.50736,3.69958c-1.93705,0 -3.50736,-1.65638 -3.50736,-3.69958z" fill="#000000" stroke="none" stroke-width="0" stroke-linecap="butt"/><path d="M260.7282,177.91591c0,-2.04321 1.57032,-3.69959 3.50737,-3.69959c1.93705,0 3.50736,1.65637 3.50736,3.69959c0,2.04321 -1.5703,3.69958 -3.50736,3.69958c-1.93706,0 -3.50737,-1.65637 -3.50737,-3.69957z" fill="#000000" stroke="none" stroke-width="0" stroke-linecap="butt"/><path d="M231.18897,204.07264c-0.76818,0 -3.28887,0 -4.98816,0c-0.94111,0 -1.63027,-0.70491 -1.63027,-1.27511c0,-1.16179 0,-5.29338 0,-5.29338h7.52865c0,0 0,4.28439 0,5.42284c0,0.52328 -0.46758,1.14566 -0.91022,1.14566z" data-paper-data="{&quot;index&quot;:null}" fill="#191919" stroke="#000000" stroke-width="1" stroke-linecap="butt"/><path d="M253.37769,203.82091c-0.76818,0 -3.28887,0 -4.98816,0c-0.94111,0 -1.63025,-0.70491 -1.63025,-1.27511c0,-1.16179 0,-5.29338 0,-5.29338h7.52863c0,0 0,4.28439 0,5.42284c0,0.52328 -0.46758,1.14566 -0.91022,1.14566z" data-paper-data="{&quot;index&quot;:null}" fill="#191919" stroke="#000000" stroke-width="1" stroke-linecap="butt"/><path d="M224.33889,156.02015c0,-1.31624 3,-3.40001 3,-3.40001l3.05714,0.08571c0,0 0.70615,1.25819 0.84524,1.89183c0.0475,0.21639 1.11522,2.99634 0.76011,3.82151c-0.5894,1.36961 -2.0625,2.00096 -2.0625,2.00096c0,0 -1.57732,0.56845 -2.78155,0.313c-0.91582,-0.19426 -3.21845,-1.513 -3.21845,-1.513c0,0 0.40001,-1.91709 0.40001,-3.2z" fill="url(#color-2)" stroke="#000000" stroke-width="1.5" stroke-linecap="butt"/><path d="M246.31165,160.82018c0,0 -1.38336,-4.95519 -1.07382,-6.36532c0.13909,-0.63363 2.87382,-1.83467 2.87382,-1.83467l3.2,0.2c0,0 0.8,2.48377 0.8,3.80001c0,1.2829 -1.6,4.39999 -1.6,4.39999z" data-paper-data="{&quot;index&quot;:null}" fill="url(#color-3)" stroke="#000000" stroke-width="1.5" stroke-linecap="butt"/><path d="M232.04907,159.33173l-1.25679,-6.11246c0,0 2.03544,2.42625 4.45119,3.42944c2.04172,0.84786 4.43674,0.3119 5.26943,0.19207c1.99317,-0.28683 5.11806,-3.13576 5.11806,-3.13576l0.43056,6.26301c0,0 -4.09749,1.85178 -6.08373,2.18773c-1.81127,0.30635 -5.35729,-0.25262 -5.35729,-0.25262z" fill="#2e0000" stroke="#000000" stroke-width="1.5" stroke-linecap="butt"/><path d="M242.7118,148.67031c0,-0.69036 0.55964,-1.25 1.25,-1.25c0.69036,0 1.25,0.55964 1.25,1.25c0,0.69036 -0.55964,1.25 -1.25,1.25c-0.69036,0 -1.25,-0.55964 -1.25,-1.25z" fill="#a60000" stroke="none" stroke-width="0.5" stroke-linecap="butt"/><path d="M236.2118,148.67031c0,-0.69036 0.55964,-1.25 1.25,-1.25c0.69036,0 1.25,0.55964 1.25,1.25c0,0.69036 -0.55964,1.25 -1.25,1.25c-0.69036,0 -1.25,-0.55964 -1.25,-1.25z" fill="#a60000" stroke="none" stroke-width="0.5" stroke-linecap="butt"/></g></g></svg>