<svg version="1.1" xmlns="http://www.w3.org/2000/svg" xmlns:xlink="http://www.w3.org/1999/xlink" width="256.52308" height="160.75489" viewBox="0,0,256.52308,160.75489"><defs><radialGradient cx="223.6007" cy="135.35315" r="3.56128" gradientUnits="userSpaceOnUse" id="color-1"><stop offset="0" stop-color="#ff1c1c"/><stop offset="1" stop-color="#ff1c1c" stop-opacity="0"/></radialGradient></defs><g transform="translate(-99.52101,-106.86905)"><g data-paper-data="{&quot;isPaintingLayer&quot;:true}" fill-rule="nonzero" stroke="#000000" stroke-linejoin="miter" stroke-miterlimit="10" stroke-dasharray="" stroke-dashoffset="0" style="mix-blend-mode: normal"><g><g><path d="M217.46349,157.81019l-0.67494,-6.18264l-6.78984,-4.37138c0,0 5.08585,-2.57748 5.00703,-3.11641c-0.23037,-1.57519 -2.01766,-5.43607 -2.01766,-5.43607l-6.9031,-11.61301c0,0 12.98896,9.06929 22.61459,7.28268c9.62562,-1.7866 17.24055,-14.68012 17.24055,-14.68012l-1.42422,15.39302l-0.62281,5.83752l4.16508,1.40823c0,0 -3.98889,3.99391 -3.79447,5.32325c0.3039,2.07799 1.56616,6.00646 1.56616,6.00646c0,0 -9.84513,2.96812 -14.90573,3.70822c-4.25413,0.62215 -13.46062,0.44025 -13.46062,0.44025z" fill="#160f3d" stroke-width="1.5" stroke-linecap="butt"/><path d="M235.53571,139.63959c0,0 2.53253,3.62972 2.34718,4.83588c-0.1354,0.8811 -3.51452,0.58273 -3.51452,0.58273c0,0 2.24763,3.82847 2.09286,4.05002c-1.81227,2.59454 -6.43632,3.99171 -6.43632,3.99171c0,0 -3.10969,-0.73237 -5.53998,-3.3131c-0.5087,-0.54019 0.56168,-3.86382 0.56168,-3.86382c0,0 -2.90663,0.78454 -3.27987,-0.15669c-0.42124,-1.0623 0.2168,-4.87835 0.2168,-4.87835l-4.08113,1.60735c0,0 -1.77946,-3.08093 -3.31587,-3.23347c-3.49035,-0.34654 -7.76209,0.50042 -7.71207,-0.15996c0.0954,-1.25898 1.24921,-4.04279 3.28,-5.43141c2.51216,-1.71779 7.50867,-1.99557 7.50867,-1.99557c0,0 4.22185,-4.90525 9.83773,-5.76125c5.61586,-0.856 9.8904,3.04442 9.8904,3.04442c0,0 4.39209,-2.29358 7.12381,-1.35211c2.73172,0.94146 4.09905,3.81936 5.21452,4.78862c0.33108,0.28769 -4.60393,1.75099 -8.51492,3.46777c-1.45194,0.63736 -0.35528,4.91501 -0.35528,4.91501z" fill="#2a2355" stroke-width="1.5" stroke-linecap="butt"/><path d="M233.10359,131.68711c0.76493,-0.54524 4.06879,-2.04241 4.06879,-2.04241c0,0 2.27585,1.61822 0.42917,2.93453c-0.84553,0.60269 -2.48621,1.08781 -4.04377,1.25103c-1.84422,0.19324 -3.56184,0.00402 -3.56184,0.00402c0,0 2.15198,-1.46591 3.10767,-2.14714z" data-paper-data="{&quot;index&quot;:null}" fill="#c11515" stroke-width="1.25" stroke-linecap="butt"/><path d="M225.48994,145.16288l-0.37513,-2.5651" fill="none" stroke-width="1.5" stroke-linecap="round"/><path d="M233.46362,141.51165l0.35638,2.43685" fill="none" stroke-width="1.5" stroke-linecap="round"/><path d="M231.72789,146.47845l-0.46892,-3.20638" fill="none" stroke-width="1.5" stroke-linecap="round"/><path d="M228.29912,146.97984l-0.46892,-3.20637" fill="none" stroke-width="1.5" stroke-linecap="round"/><path d="M216.69213,131.06766c0.09906,-0.0754 0.48318,-1.34221 1.19459,-1.78804c0.71141,-0.44586 2.00693,-0.74695 2.41644,-0.47506c0.90003,0.59756 1.90305,1.77261 2.36181,1.70552c2.51812,-0.36826 5.32929,1.61127 5.69755,4.12939c0.36826,2.51813 -1.63001,5.20102 -4.14815,5.56929c-0.71504,0.10458 -2.99771,-0.43605 -4.24824,-1.50519c-0.9726,-0.83154 -1.4275,-1.40885 -1.62031,-2.59919c-0.19282,-1.19035 0.28162,-2.24686 0.86778,-3.15209c0,0 -2.94794,-1.56005 -2.52147,-1.8846z" fill="#100d25" stroke-width="1.25" stroke-linecap="butt"/><path d="M220.84948,135.81818c-0.21173,-1.4478 0.84898,-2.80172 2.36917,-3.02405c1.5202,-0.22233 2.92421,0.77115 3.13594,2.21894c0.21173,1.4478 -0.84898,2.80171 -2.36918,3.02404c-1.5202,0.22233 -2.92421,-0.77114 -3.13594,-2.21893z" fill="#c11515" stroke-width="1" stroke-linecap="butt"/><path d="M233.70814,136.18508c0.61975,-0.44173 3.29645,-1.65473 3.29645,-1.65473c0,0 1.84384,1.31104 0.3477,2.37749c-0.68502,0.48829 -2.01425,0.88132 -3.27617,1.01354c-1.49415,0.15656 -2.88572,0.00324 -2.88572,0.00324c0,0 1.74348,-1.18764 2.51776,-1.73956z" data-paper-data="{&quot;index&quot;:null}" fill="#c11515" stroke-width="1.25" stroke-linecap="butt"/><path d="M220.0769,135.86848c-0.28461,-1.94614 1.06232,-3.75453 3.00844,-4.03913c1.94614,-0.28461 3.75453,1.06234 4.03914,3.00845c0.28461,1.94614 -1.06233,3.75452 -3.00846,4.03912c-1.94614,0.28461 -3.75452,-1.06232 -4.03913,-3.00845z" fill="url(#color-1)" stroke-width="0" stroke-linecap="butt"/></g><path d="M213.34074,135.97336c0,0 -0.77908,-5.0334 1.39808,-9.22542c0.64702,-1.2458 -1.71025,-7.31485 -1.71025,-7.31485c0,0 6.24792,3.95292 7.54235,3.32802c1.97991,-0.95582 3.34396,-3.46703 6.14556,-3.79731c2.8016,-0.33028 4.24885,1.61307 7.01131,2.24623c1.48027,0.33929 4.78957,-5.01931 4.78957,-5.01931c0,0 0.03908,6.81778 0.39468,7.41357c1.45705,2.44122 2.89071,8.11568 2.89071,8.11568c0,0 -5.66553,-3.75138 -7.39794,-4.35708c-1.73241,-0.60569 -2.7831,-0.82751 -4.04896,0.15963c-1.26586,0.98713 -2.01291,3.33524 -2.01291,3.33524c0,0 -1.42942,-2.12988 -3.56854,-2.60358c-1.6029,-0.35495 -2.56169,-0.22175 -3.88449,0.43377c-0.44251,0.21929 -1.80255,-0.15693 -2.65986,0.45883c-0.8573,0.61576 -0.83688,1.89963 -1.44516,2.48957c-2.12933,2.06512 -3.44414,4.33702 -3.44414,4.33702z" fill="#100d25" stroke-width="1.5" stroke-linecap="butt"/><path d="M243.66489,155.35439c-0.67465,0.15908 -2.88323,-0.56293 -2.88323,-0.56293c0,0 -1.55256,-2.83879 -1.62855,-4.13948c-0.07007,-1.19924 1.18892,-3.38503 1.18892,-3.38503c0,0 1.4744,-1.63135 2.42791,-1.79395c0.83232,-0.14193 1.95478,-0.1813 3.10343,0.85843c1.14865,1.03974 1.53972,2.26865 1.60332,3.40204c0.08579,1.52879 -0.67081,2.84175 -1.32391,3.80482c-0.6531,0.96307 -1.71339,1.63349 -2.48789,1.81612z" data-paper-data="{&quot;index&quot;:null}" fill="#100d25" stroke-width="1.5" stroke-linecap="butt"/><path d="M214.91759,157.28098c-0.84093,-0.76721 -1.85666,-1.84132 -2.0947,-3.29554c-0.17647,-1.0781 -0.05307,-2.31488 0.85043,-3.53345c0.9035,-1.21856 2.00859,-1.41789 2.85177,-1.4598c0.96595,-0.04801 2.75011,1.17409 2.75011,1.17409c0,0 1.69041,1.78829 1.87442,2.92962c0.19958,1.23787 -0.71983,4.23152 -0.71983,4.23152c0,0 -2.00609,1.14325 -2.69882,1.13585c-0.79524,-0.0085 -1.97246,-0.41507 -2.81339,-1.18228z" fill="#100d25" stroke-width="1.5" stroke-linecap="butt"/></g><g data-paper-data="{&quot;index&quot;:null}" stroke-width="1.5" stroke-linecap="butt"><g><path d="M161.4526,137.49449c0,0 -13.90482,-1.36838 -27.109,3.6764c-13.20418,5.04479 -31.13817,18.42399 -31.13817,18.42399c0,0 16.55634,-22.19228 26.73687,-28.69698c10.18054,-6.5047 25.36143,-7.10376 29.83385,-7.85316c0.58304,-0.09769 2.19048,3.95781 2.79132,7.30897c0.46871,2.61431 -1.11488,7.14078 -1.11488,7.14078z" data-paper-data="{&quot;index&quot;:null}" fill="#160f3d"/><path d="M161.41124,132.77671c0,0 -4.78178,0.39379 -10.40318,0.86627c-4.05623,0.34092 -8.90201,0.86257 -11.96379,1.9183c-7.30503,2.51881 -17.85445,7.73055 -17.85445,7.73055c0,0 4.97381,-5.54184 11.09884,-9.18534c6.45695,-3.84095 15.50796,-5.5435 17.15137,-5.97512c2.77624,-0.72915 11.53879,-0.46369 11.53879,-0.46369z" data-paper-data="{&quot;index&quot;:null}" fill="#2a2355"/></g><g><path d="M165.04252,135.7117c0,0 -13.65754,2.94759 -24.68758,11.78718c-11.03003,8.8396 -24.0158,27.06048 -24.0158,27.06048c0,0 8.98004,-26.191 16.6849,-35.49636c7.70487,-9.30536 21.97597,-14.51627 26.00523,-16.59696c0.52527,-0.27124 3.29546,3.09877 4.89193,6.10586c1.24543,2.34589 1.1213,7.13977 1.1213,7.13977z" data-paper-data="{&quot;index&quot;:null}" fill="#160f3d"/><path d="M163.56098,131.23241c0,0 -4.43252,1.83666 -9.64042,4.00487c-3.75785,1.56451 -8.21223,3.54247 -10.80475,5.48358c-6.1854,4.63126 -14.63674,12.81831 -14.63674,12.81831c0,0 3.04169,-6.79698 7.75978,-12.13839c4.97377,-5.63088 13.07111,-10.01867 14.50391,-10.93199c2.42046,-1.54289 10.84472,-3.9687 10.84472,-3.9687z" data-paper-data="{&quot;index&quot;:null}" fill="#2a2355"/></g><g data-paper-data="{&quot;index&quot;:null}"><path d="M165.08903,134.76004c0,0 -11.15416,8.41436 -17.44792,21.07092c-6.29376,12.65657 -10.4196,34.64765 -10.4196,34.64765c0,0 -2.85848,-27.53977 0.22227,-39.22152c3.08075,-11.68176 13.84048,-22.40773 16.62223,-25.98909c0.36264,-0.46687 4.29261,1.4269 7.005,3.48461c2.116,1.60528 4.01802,6.00741 4.01802,6.00741z" data-paper-data="{&quot;index&quot;:null}" fill="#160f3d"/><path d="M161.86221,131.31815c0,0 -3.25021,3.52939 -7.06466,7.68551c-2.75239,2.99892 -5.96306,6.66573 -7.49974,9.51662c-3.66633,6.80191 -7.89441,17.78261 -7.89441,17.78261c0,0 -0.09645,-7.4459 1.93998,-14.27555c2.14679,-7.19976 7.65033,-14.58423 8.56663,-16.01513c1.54793,-2.41725 8.17266,-8.15881 8.17266,-8.15881z" data-paper-data="{&quot;index&quot;:null}" fill="#2a2355"/></g><g><path d="M160.5501,128.57023c0,0 3.77175,-0.98856 4.67375,2.87693c2.39165,10.24925 18.37065,29.15691 18.37065,29.15691c0,0 1.22031,3.49968 -0.64713,5.28007c-0.50188,0.47849 -3.26902,-0.13066 -3.6918,0.15981c-0.56787,0.39015 -12.72284,-14.91041 -16.8668,-30.29449c-0.57815,-2.14632 -1.8387,-7.17924 -1.8387,-7.17924z" fill="#100d25"/><path d="M174.91735,166.64777c-0.479,0.21962 -10.62491,-17.14122 -12.91643,-21.99448c-2.12132,-4.49278 -5.17409,-14.28265 -5.17409,-14.28265l4.07412,-1.78678c0,0 2.59438,10.3017 5.04324,14.86361c2.39582,4.46311 14.57616,22.28326 14.57616,22.28326c0,0 -1.31724,0.5543 -2.57982,0.93892c-1.03297,0.31468 -2.66321,-0.18694 -3.02319,-0.02189z" data-paper-data="{&quot;index&quot;:null}" fill="#160f3d"/></g><g><path d="M182.31238,166.56448c0,0 3.32552,-3.90569 5.72673,-0.96371c6.36679,7.80062 26.79721,16.07822 26.79721,16.07822c0,0 2.5013,2.42334 1.75617,5.13706c-0.20027,0.72933 -2.70719,1.82799 -2.92453,2.34105c-0.29193,0.68909 -16.03825,-6.99732 -26.04408,-18.37624c-1.39598,-1.58753 -5.31151,-4.21636 -5.31151,-4.21636z" fill="#100d25"/><path d="M211.9599,192.95015c-0.27817,0.45744 -16.22441,-8.09864 -21.21499,-11.61795c-0.27568,-0.1944 -11.57178,-9.44513 -11.57178,-9.44513l3.42963,-5.5191c0,0 6.61635,7.49698 10.5727,10.14511c3.87068,2.5908 21.38275,11.60939 21.38275,11.60939c0,0 -0.82865,1.2828 -1.68627,2.38039c-0.70167,0.89798 -0.69144,2.08451 -0.91204,2.44729z" data-paper-data="{&quot;index&quot;:null}" fill="#160f3d"/></g><g><path d="M192.2913,157.32467l-2.51057,7.15701c0,0 -1.71226,-0.496 -2.17888,-0.79823c-0.46661,-0.30223 -1.64495,-0.9402 -1.87972,-1.31649c-0.23478,-0.3763 -0.60895,-2.23026 -0.60895,-2.23026z" fill="#160f3d"/><path d="M177.22145,160.74125l6.95973,-2.69541l7.24353,8.96639l-4.69159,6.16836l-6.85409,3.15887l-7.24352,-8.96636z" fill="#2a2355"/></g><path d="M161.56024,137.55093c-4.41204,0.50371 -8.39704,-2.66462 -8.90075,-7.07665c-0.50372,-4.41204 2.66464,-8.39703 7.07666,-8.90075c4.41204,-0.50371 8.39704,2.66462 8.90075,7.07666c0.50372,4.41204 -2.66464,8.39703 -7.07666,8.90075z" fill="#100d25"/><path d="M157.81768,132.7648c-1.7408,-1.80424 -1.68937,-4.67805 0.11486,-6.41885c1.80424,-1.7408 4.67805,-1.68937 6.41885,0.11486c1.7408,1.80424 1.68937,4.67805 -0.11486,6.41885c-1.80424,1.7408 -4.67805,1.68937 -6.41885,-0.11486z" fill="#2a2355"/><path d="M181.89958,169.28195c-1.41853,-0.26043 -2.60734,-1.8225 -2.34692,-3.24104c0.26042,-1.41853 1.62147,-2.35733 3.04,-2.09691c1.41852,0.26042 2.35735,1.62146 2.09693,3.03999c-0.26042,1.41853 -1.37148,2.55839 -2.79001,2.29796z" fill="#160f3d"/><g><path d="M207.32176,185.6937l5.22808,-5.02534l9.36532,0.38338l-4.29757,6.38368l2.14777,6.5944l-9.55201,-0.75947z" fill="#2a2355"/><path d="M220.13071,188.50642c-0.69213,2.15754 -3.00225,3.34546 -5.15975,2.65335c-2.15753,-0.69212 -3.34546,-3.00223 -2.65335,-5.15973c0.69213,-2.15751 3.00224,-3.34546 5.15974,-2.65335c2.15753,0.69213 3.34547,3.00224 2.65336,5.15975z" fill="#160f3d"/><path d="M219.51128,194.85869c0,0 -3.57963,-4.68276 -3.33954,-7.86871c0.24011,-3.18593 4.33445,-6.98375 4.33445,-6.98375l6.25344,0.2476l1.80946,14.65407z" fill="#160f3d"/></g></g><g stroke-width="1.5" stroke-linecap="butt"><g><path d="M290.02217,123.53741c0,0 -2.51802,-4.08119 -2.6212,-6.73519c-0.13228,-3.40202 0.56747,-7.70799 1.1579,-7.73769c4.52906,-0.22776 19.48485,-2.90023 30.82405,1.26836c11.33919,4.16859 32.27197,22.29119 32.27197,22.29119c0,0 -20.38719,-9.21919 -34.36632,-11.31306c-13.97912,-2.09386 -27.26641,2.2264 -27.26641,2.2264z" data-paper-data="{&quot;index&quot;:null}" fill="#160f3d"/><path d="M288.37627,113.83785c0,0 8.50147,-2.13958 11.3695,-2.02315c1.69774,0.06892 10.90326,-0.2104 18.034,2.15552c6.76419,2.24429 12.81133,6.58974 12.81133,6.58974c0,0 -11.42204,-2.8266 -19.0974,-3.71919c-3.21699,-0.37411 -8.06185,0.15622 -12.09673,0.69364c-5.59184,0.7448 -10.34672,1.38627 -10.34672,1.38627z" data-paper-data="{&quot;index&quot;:null}" fill="#2a2355"/></g><g><path d="M286.13333,122.56649c0,0 -1.14994,-4.65556 -0.4369,-7.21405c0.914,-3.27962 2.89651,-7.16558 3.46774,-7.01337c4.38189,1.16759 19.43874,3.19476 28.9609,10.63003c9.52216,7.43525 23.91319,31.08916 23.91319,31.08916c0,0 -16.59318,-15.0099 -29.26311,-21.27672c-12.66993,-6.2668 -26.64183,-6.21504 -26.64183,-6.21504z" data-paper-data="{&quot;index&quot;:null}" fill="#160f3d"/><path d="M287.5312,112.82809c0,0 8.74856,0.56158 11.44372,1.54914c1.59541,0.58458 10.44567,3.1326 16.51188,7.56501c5.75437,4.20456 10.18372,10.19051 10.18372,10.19051c0,0 -10.01127,-6.18281 -17.04639,-9.3789c-2.94865,-1.33959 -7.7237,-2.31562 -11.72974,-3.03732c-5.55185,-1.00017 -10.27523,-1.8429 -10.27523,-1.8429z" data-paper-data="{&quot;index&quot;:null}" fill="#2a2355"/></g><g data-paper-data="{&quot;index&quot;:null}"><path d="M285.88371,121.64699c0,0 0.91308,-4.70774 2.63533,-6.72968c2.20766,-2.59182 5.6397,-5.28479 6.09408,-4.9066c3.48545,2.90101 16.29616,11.06825 21.81187,21.81682c5.51571,10.74856 8.63341,38.26018 8.63341,38.26018c0,0 -8.74866,-20.59348 -17.61172,-31.60467c-8.86306,-11.01119 -21.56297,-16.83604 -21.56297,-16.83604z" data-paper-data="{&quot;index&quot;:null}" fill="#160f3d"/><path d="M291.2448,113.3978c0,0 7.70246,4.18624 9.73303,6.21503c1.20201,1.20094 8.16193,7.23243 11.80366,13.8038c3.45453,6.23356 4.95809,13.52672 4.95809,13.52672c0,0 -6.48588,-9.81764 -11.52638,-15.67436c-2.11264,-2.45474 -6.03535,-5.34717 -9.36715,-7.68561c-4.61743,-3.24078 -8.54928,-5.99052 -8.54928,-5.99052z" data-paper-data="{&quot;index&quot;:null}" fill="#2a2355"/></g><g><path d="M288.98867,114.6274c0,0 -0.1512,5.18617 -0.25531,7.40656c-0.74624,15.91494 -9.33481,33.46734 -9.97318,33.20814c-0.47526,-0.19299 -3.04723,0.99576 -3.64009,0.63611c-2.206,-1.3382 -1.76508,-5.01821 -1.76508,-5.01821c0,0 11.5495,-21.89607 11.68611,-32.41977c0.05151,-3.96899 3.94754,-3.81283 3.94754,-3.81283z" fill="#100d25"/><path d="M283.12693,154.90092c-0.38701,-0.08395 -1.87164,0.7558 -2.94807,0.67011c-1.31571,-0.10474 -2.72119,-0.36347 -2.72119,-0.36347c0,0 8.07268,-20.01873 9.45497,-24.89199c1.41291,-4.98114 1.73627,-15.59957 1.73627,-15.59957l4.36262,0.87091c0,0 -0.8809,10.2169 -1.98873,15.06022c-1.19671,5.23193 -7.38091,24.36552 -7.89588,24.25379z" data-paper-data="{&quot;index&quot;:null}" fill="#160f3d"/></g><g><path d="M275.88629,156.40643c0,0 -3.26021,3.40779 -4.28302,5.2579c-7.33101,13.26094 -21.06115,24.14722 -21.49414,23.53682c-0.32237,-0.45444 -3.00665,-0.98958 -3.35876,-1.65895c-1.31011,-2.49062 0.61293,-5.39424 0.61293,-5.39424c0,0 18.17828,-12.46881 22.72286,-21.45394c1.71398,-3.38871 5.80013,-0.2876 5.80013,-0.2876z" fill="#100d25"/><path d="M252.59132,188.53934c-0.2933,-0.307 -0.53793,-1.46808 -1.41594,-2.19458c-1.07317,-0.88799 -2.15778,-1.96309 -2.15778,-1.96309c0,0 15.16889,-12.56632 18.39346,-15.92735c3.29594,-3.43542 8.14943,-12.17752 8.14943,-12.17752l4.53405,4.65459c0,0 -9.04789,11.4592 -9.27544,11.70823c-4.11915,4.50823 -17.85791,16.28681 -18.22777,15.89972z" data-paper-data="{&quot;index&quot;:null}" fill="#160f3d"/></g><g><path d="M271.77141,150.72939c0,0 0.03238,1.89107 -0.11619,2.30898c-0.14855,0.4179 -1.16253,1.29386 -1.55343,1.68918c-0.39089,0.39531 -1.95684,1.24719 -1.95684,1.24719l-3.98787,-6.45156z" fill="#160f3d"/><path d="M285.51124,155.11973l-5.15075,10.31184l-7.37227,-1.61451l-5.90593,-5.01794l5.15074,-10.31187l7.376,1.13918z" fill="#2a2355"/></g><path d="M281.10737,116.44081c-0.45479,-4.41735 2.75752,-8.367 7.17487,-8.82176c4.41735,-0.45478 8.36701,2.75752 8.82177,7.17487c0.45479,4.41735 -2.75752,8.367 -7.17486,8.82177c-4.41735,0.45478 -8.36701,-2.75752 -8.82177,-7.17487z" fill="#100d25"/><path d="M286.31284,119.62749c-2.13576,-1.31309 -2.80265,-4.10892 -1.48957,-6.24468c1.31309,-2.13576 4.10892,-2.80265 6.24468,-1.48957c2.13576,1.31309 2.80265,4.10892 1.48957,6.24468c-1.31309,2.13576 -4.10892,2.80265 -6.24468,1.48957z" fill="#2a2355"/><path d="M273.65446,157.32626c-0.55875,-1.3296 0.06616,-2.8604 1.39575,-3.41914c1.3296,-0.55875 2.8604,0.06612 3.41915,1.39573c0.55875,1.3296 -0.26716,3.11038 -1.59676,3.66916c-1.3296,0.55876 -2.65938,-0.31613 -3.21813,-1.64573z" fill="#160f3d"/><g><path d="M254.3659,188.4773l-9.16653,2.79149l0.68268,-6.90167l-5.5673,-5.31278l9.06489,-2.3841l6.18465,3.78641z" fill="#2a2355"/><path d="M243.65731,185.95246c-1.13896,-1.95873 -0.4744,-4.46995 1.48435,-5.60892c1.95874,-1.13896 4.46995,-0.4744 5.6089,1.48434c1.13896,1.95873 0.47441,4.46995 -1.48433,5.6089c-1.95874,1.13896 -4.46995,0.47442 -5.60892,-1.48434z" fill="#160f3d"/><path d="M236.78916,194.01557l-1.37723,-14.70099l6.05462,-1.58372c0,0 4.81392,2.83076 5.73209,5.89097c0.91816,3.0602 -1.57324,8.40202 -1.57324,8.40202z" fill="#160f3d"/></g></g><path d="M222.4045,196.15576c0,0 -0.3031,-1.42486 -0.72653,-3.74611c-0.07814,-0.4284 -2.85214,-1.84417 -2.85214,-1.84417c0,0 2.34257,-1.44341 2.26707,-1.88479c-0.25231,-1.4751 -0.29762,-1.0965 -0.5305,-2.67563c-0.07486,-0.5076 -3.31285,-1.46371 -3.31285,-1.46371c0,0 2.87501,-1.84689 2.79856,-2.4901c-0.04729,-0.39793 -0.08535,-2.40989 -0.11964,-2.72575c-0.0767,-0.70652 -7.81988,0.36881 -9.41395,-3.04964c-1.59407,-3.41845 -3.55706,-11.37694 -0.41595,-18.14098c3.14112,-6.76402 9.95768,0.62087 9.95768,0.62087l20.42356,-3.32804c0,0 7.40886,-5.29358 9.60128,-1.86606c2.19242,3.42752 4.42661,12.44958 2.06962,20.03511c-2.357,7.58554 -10.4017,3.45435 -10.31468,4.25596c0.11201,1.03178 0.15884,1.48162 0.28896,2.71041c0.0596,0.56284 2.35548,1.56911 2.35548,1.56911c0,0 -1.94365,2.31372 -1.8779,2.94224c0.05783,0.5528 0.05684,1.10553 0.1696,1.62512c0.16363,0.75407 2.46324,1.93902 2.46324,1.93902c0,0 -2.08089,1.7507 -2.01515,2.38908c0.17825,1.73122 0.29093,2.83683 0.29093,2.83683z" fill="#100d25" stroke-width="1.5" stroke-linecap="butt"/><g><path d="M279.69368,235.70439c0,0 -1.09249,-1.96663 -1.08679,-2.42503c0.00569,-0.45838 0.59334,-1.777 0.86558,-2.26852c0.27224,-0.49151 2.17045,-1.46734 2.17045,-1.46734l6.60644,5.62401z" fill="#2a2355" stroke-width="1.5" stroke-linecap="butt"/><g><path d="M252.55789,200.35515c1.4135,2.26487 0.65356,4.77403 0.73804,4.61172c2.1246,-4.08061 4.86291,-0.05719 7.01691,-0.13221c0.647,-0.02252 11.92766,14.02115 11.92766,14.02115l7.75296,14.66875c0,0 -0.82983,3.55008 -3.86464,3.72174c-0.9805,0.05545 -4.18399,0.17638 -8.73857,-3.01602c-7.52867,-5.27698 -21.63552,-19.18388 -21.63552,-19.18388c0,0 -4.79371,-4.63294 -4.71215,-8.31808c0.03545,-1.60228 0.65602,-5.45801 2.54977,-7.78198c2.46967,-3.03072 6.37462,0.235 6.53586,-0.53855c0,0 0.47527,-1.18423 2.42969,1.94739z" fill="#100d25" stroke-width="1.5" stroke-linecap="butt"/><path d="M263.43896,225.27961c0,0 -5.37062,-3.80257 -7.61677,-5.99375c-1.97312,-1.92484 -7.18162,-7.65635 -7.18162,-7.65635c0,0 -0.24192,-6.08855 1.59032,-8.87639c1.83225,-2.78784 5.16302,-2.63593 5.99369,-2.18131c1.71841,0.94048 14.52971,18.21119 18.87243,21.75692c6.62166,5.40644 2.78392,6.59658 2.78392,6.59658l-2.67897,4.03674z" fill="#160f3d" stroke-width="1.5" stroke-linecap="butt"/><path d="M263.34477,243.48455c0,0 -4.6662,-1.94911 -4.71564,-5.06024c-0.04118,-2.59077 7.69421,-8.6523 10.30973,-10.30716c3.15817,-1.99827 12.38556,1.04887 11.85011,2.26364c-0.53546,1.21475 -2.91883,5.63949 -5.18338,7.40241c-2.3825,1.85475 -12.26079,5.70138 -12.26079,5.70138z" fill="#160f3d" stroke-width="1.5" stroke-linecap="butt"/><path d="M260.16907,250.25061c0,0 0.37161,-3.18366 2.11923,-6.14845c0.50143,-0.85071 2.00029,-3.63248 4.56381,-6.05417c3.1918,-3.01522 7.51062,-5.67171 7.51062,-5.67171l4.86428,4.30503c0,0 -3.55668,4.92337 -4.82699,7.23021c-1.25385,2.27693 1.43074,8.88835 1.43074,8.88835c0,0 -6.41568,1.66158 -9.29104,1.19356c-2.09134,-0.3404 -6.37064,-3.74282 -6.37064,-3.74282z" fill="#100d25" stroke-width="1.5" stroke-linecap="butt"/><path d="M261.28785,260.67092c-1.78568,-2.59425 -3.00945,-9.65119 -3.5537,-11.73499c-0.39392,-1.50824 0.87155,-6.31638 2.37788,-7.4453c0.26417,-0.19799 2.92583,-1.48114 5.40303,-1.79745c3.66142,-0.46751 8.20258,1.32346 8.57219,1.66244c0.2105,0.19303 0.31001,1.16062 -0.00271,1.76843c-0.31272,0.60781 -0.57973,1.09935 -1.48782,1.12858c-0.46756,0.01506 -2.61682,-0.5921 -4.77997,-0.67464c-1.1461,-0.04373 -2.65832,-0.37481 -3.96855,0.25552c-1.01973,0.49058 -2.04065,1.87367 -1.87249,2.42298c0.38426,1.25511 3.10685,2.6828 4.02445,5.47002c0.95481,2.90025 -0.11408,6.79718 0.18242,6.78041c1.59295,-0.0901 8.86606,-0.5015 12.81592,-0.7249c1.52467,-0.08624 1.62443,0.77034 1.64025,1.10678c0.0071,0.15141 -0.53419,1.73345 -1.47303,3.29187c-0.92851,1.54128 -2.24587,3.05945 -3.80608,3.1477c-2.38578,0.13496 -4.44394,-0.04398 -7.34335,-0.87372c-2.89941,-0.82974 -4.94272,-1.18943 -6.7284,-3.78367z" fill="#160f3d" stroke-width="1.5" stroke-linecap="butt"/><path d="M263.77443,251.18767c1.74798,-1.83114 3.51975,-3.49815 6.0581,-3.64173c2.44599,-0.13835 3.42454,1.10757 5.24463,2.87424c1.82009,1.76669 2.3084,5.65532 2.3084,5.65532c0,0 -7.10218,1.64145 -7.85087,1.68382c-2.97138,0.16807 -7.03639,-0.84175 -7.03639,-0.84175c0,0 -0.47185,-3.89877 1.27613,-5.72991z" fill="#2a2355" stroke-width="1.5" stroke-linecap="butt"/><path d="M275.56967,225.59625c3.05309,-0.17268 5.65568,2.403 5.81306,5.75301c0.15738,3.34999 -2.19003,5.51111 -5.24312,5.68379c-2.35422,0.13316 -5.659,-1.96669 -5.81308,-5.05844c-0.15408,-3.09175 2.19006,-6.20569 5.24313,-6.37837z" fill="#160f3d" stroke-width="1.5" stroke-linecap="butt"/><path d="M266.9919,254.97537c1.65773,-1.73656 3.24463,-2.94765 5.65192,-3.08381c2.31971,-0.1312 4.00962,0.76422 5.73573,2.43968c1.72611,1.67547 1.08477,5.94505 1.08477,5.94505c0,0 -4.48792,0.78882 -7.0096,0.93144c-2.81797,0.15939 -6.67307,-0.79829 -6.67307,-0.79829c0,0 -0.44751,-3.69747 1.21025,-5.43406z" fill="#2a2355" stroke-width="1.5" stroke-linecap="butt"/><path d="M273.97014,265.50252c0,0 -0.4872,-3.66105 -0.21594,-4.33467c0.27125,-0.67364 1.89593,-2.21701 2.58015,-2.75558c0.68422,-0.53859 4.04956,-0.6706 4.04956,-0.6706l4.77683,8.22916c0,0 -5.69017,0.07294 -7.75626,-0.01353c-1.37057,-0.05736 -3.43432,-0.45479 -3.43432,-0.45479z" fill="#100d25" stroke-width="1.5" stroke-linecap="butt"/><g data-paper-data="{&quot;index&quot;:null}"><path d="M268.73303,224.84268c0,0 -11.93184,-10.28342 -14.73627,-13.8016c-1.11298,-1.39629 0.9781,-7.00077 0.9781,-7.00077l6.18277,-1.34344c0,0 11.4002,10.11214 13.81276,13.63189c1.04374,1.52273 0.41381,7.12374 0.41381,7.12374z" fill="#2a2355" stroke-width="1.5" stroke-linecap="butt"/><path d="M261.39707,206.27802l-3.34092,5.44702" fill="none" stroke-width="1.25" stroke-linecap="round"/><path d="M264.66743,209.89557l-2.96971,4.80729" fill="none" stroke-width="1.25" stroke-linecap="round"/><path d="M269.91641,222.19585l3.11954,-4.49128" fill="none" stroke-width="1.25" stroke-linecap="round"/><path d="M266.12498,218.90198l2.93531,-4.95145" fill="none" stroke-width="1.25" stroke-linecap="round"/></g></g></g><path d="M225.6304,216.49975c0.31372,-1.7351 1.62549,-3.10286 1.11114,-4.29688c-0.69671,-1.61736 -0.42466,-3.80704 -0.2725,-4.53587c0.11034,-0.52858 0.8965,-1.00687 1.19209,-1.68827c0.36742,-0.84693 -0.23433,-2.12828 -0.40391,-2.25221c-0.31005,-0.22663 8.92431,-3.43473 13.34558,-2.99337c1.8371,0.18338 1.39622,4.2456 1.39622,4.2456c0,0 -0.37999,0.01198 0.4628,2.98724c0.20017,0.70666 2.07926,2.08418 2.33795,2.91348c0.04279,0.13717 1.92187,2.95991 1.60352,4.80078c-0.31835,1.84088 -1.03811,3.21291 -3.32966,5.18082c-2.29156,1.9679 -4.63105,3.47554 -8.26836,3.14897c-4.43489,-0.39818 -7.95388,-3.77303 -7.95388,-3.77303c0,0 -1.53175,-2.01847 -1.22099,-3.73729z" fill="#100d25" stroke-width="1.5" stroke-linecap="butt"/><path d="M228.94403,217.43936c-0.66079,-1.87427 -3.25123,-8.74221 -2.66748,-10.29229c1.38395,-3.67491 0.75202,-5.29421 0.75202,-5.29421l11.3707,-3.07706c0,0 2.83901,1.84504 3.74618,4.88958c1.1,3.69165 1.22507,8.7706 1.64129,12.11479c0.26841,2.15664 -13.04932,6.74602 -14.84272,1.65921z" fill="#160f3d" stroke-width="1.5" stroke-linecap="butt"/><path d="M225.29483,206.89686c0.14835,-0.53227 -0.97605,-5.18778 -3.09351,-5.45052c-2.31364,-0.28709 -5.31319,0.27895 -6.3956,0.57486c-2.84155,0.77683 -5.35086,2.2646 -5.33655,1.93352c0.00646,-0.14965 -5.48746,3.7458 -5.33523,2.81283c0.28222,-1.72958 5.31782,-10.7808 6.67384,-11.62657c1.19216,-0.74357 5.99723,-1.40277 7.61463,-1.7412c4.66845,-0.97684 9.77849,5.3985 9.95402,5.38229c0.71468,-0.06599 3.13543,-3.18712 6.30984,-5.20733c2.00539,-1.27624 4.42243,-1.56815 6.54903,-2.09894c2.92092,-0.72907 9.81508,3.50083 10.66329,3.9039c0.74946,0.35614 -4.98121,2.48345 -6.25659,3.80224c-2.58151,2.66941 -5.30861,6.01846 -5.30861,6.01846c0,0 -16.2431,2.43037 -16.03854,1.69646z" fill="#100d25" stroke-width="1.5" stroke-linecap="butt"/><path d="M229.61567,162.27201c3.72368,-0.55535 21.02412,-3.35264 21.02412,-3.35264c0,0 1.65653,1.39745 2.14566,3.04962c0.18265,0.61697 -22.18659,2.86222 -22.10758,3.59005c0.02823,0.26007 0.58644,1.70175 0.61734,2.02324c0.06269,0.65236 20.4362,-3.71839 21.76345,-2.90006c0.28792,0.17753 3.72377,1.35638 3.72377,1.35638c0,0 -2.66963,1.88196 -3.81878,2.21054c-2.22149,0.63518 -21.3185,2.52297 -21.35958,3.17238c-0.03971,0.6276 -0.08962,0.75322 1.0548,1.36013c1.22113,0.64757 17.42613,-2.27911 19.23938,-1.48178c1.08821,0.47851 3.6602,1.85459 3.6602,1.85459c0,0 -3.72935,0.86347 -3.71383,1.08263c0.04498,0.63516 -18.82422,0.95928 -18.76345,1.6689c0.03748,0.43779 -1.58359,2.07703 0.36128,2.08027c2.63891,0.00438 10.61626,-0.62366 10.61626,-0.62366l4.64633,1.59245l-4.59979,1.72871c0,0 -10.20143,-0.03758 -10.32322,0.49359c-0.08052,0.35113 -1.61772,2.40309 0.54858,2.83182c3.21531,0.63632 10.15688,-0.04068 10.15688,-0.04068l4.16452,1.02888c0,0 -2.80726,1.6239 -3.92201,2.06289c-2.3616,0.92999 -9.44418,0.27956 -9.44514,0.80025c-0.00194,1.04341 -1.09413,2.28145 -0.17382,3.04075c1.13164,0.93364 13.95004,-1.13886 13.95004,-1.13886l-4.45418,4.89609l-24.41567,1.5131l-5.03536,-3.73569l14.77352,-1.3818c0,0 0.83655,-1.78342 0.67595,-2.94881c-0.06608,-0.47944 -8.23565,0.74279 -11.112,0.39764c-1.08327,-0.12999 -4.38598,-0.47893 -4.38598,-0.47893l3.83264,-2.19795c0,0 6.83459,0.16501 10.34225,-1.31247c2.13882,-0.90091 1.08081,-2.20764 0.93582,-2.81012c-0.16411,-0.68199 -11.97832,1.29036 -11.97832,1.29036l-3.58523,-1.10492l2.86973,-2.32341l12.44911,-0.79314c0,0 -0.16329,-1.98283 -0.23513,-2.61442c-0.06735,-0.59205 -20.01324,1.92099 -20.01324,1.92099l-3.43911,-1.63706l3.04229,-1.44133c0,0 20.80488,-1.68684 20.63783,-2.06482c-0.04399,-0.09951 0.17849,-1.94732 -1.13622,-1.89207c-3.8143,0.1603 -20.40242,2.00981 -20.4346,1.74957c-0.01466,-0.11845 -3.63799,-1.424 -3.63799,-1.424c0,0 3.05795,-1.83968 3.86717,-2.20626c2.52489,-1.1438 19.67669,-0.89965 19.6111,-1.23425c-0.02536,-0.12933 0.89302,-2.14988 -0.74783,-2.13233c-1.94181,0.02078 -18.11429,1.44808 -19.59559,0.95468c-1.53002,-0.50961 -0.34351,-3.03887 -0.34351,-3.03887c0,0 17.5348,-0.76421 22.06716,-1.44016z" data-paper-data="{&quot;index&quot;:null}" fill="#160f3d" stroke-width="1.5" stroke-linecap="butt"/><path d="" fill="#160f3d" stroke-width="1.5" stroke-linecap="butt"/><path d="M247.06439,153.09873l4.16113,11.21763l-4.66744,9.96197c0,0 -0.14541,-4.47013 -2.50361,-4.80013c-8.40254,-1.17584 -21.36425,-0.25007 -26.9132,0.36414c-1.29573,0.14343 -1.48103,5.37364 -1.48103,5.37364l-5.52687,-9.24327c0,0 4.31744,-9.78319 3.89738,-10.02598c-0.14348,-0.08294 5.85081,-2.12309 5.85081,-2.12309l3.86807,2.95369c0,0 4.16091,-3.1945 6.72854,-3.39814c1.11058,-0.08807 5.81164,2.21252 5.81164,2.21252l4.37407,-3.66401z" fill="#160f3d" stroke-width="1.5" stroke-linecap="butt"/><path d="M243.09363,165.94452c0,0 -1.56998,5.27143 -3.39436,7.08221c-1.91855,1.90429 -7.84869,4.07712 -7.84869,4.07712c0,0 -5.70398,-0.21643 -9.18129,-2.66244c-3.97919,-2.79909 -5.85533,-7.89818 -6.86732,-8.30899c-0.67966,-0.27591 14.9506,-8.84614 14.9506,-8.84614z" fill="#2a2355" stroke-width="1.5" stroke-linecap="butt"/><path d="M241.92813,173.2135c0,0 -1.31583,4.66202 -2.8613,6.25858c-1.62524,1.67899 -6.66288,3.58054 -6.66288,3.58054c0,0 -4.8543,-0.21334 -7.82243,-2.3926c-3.39651,-2.49381 -5.0123,-7.01633 -5.87496,-7.38397c-0.57937,-0.24691 12.68771,-7.77662 12.68771,-7.77662z" fill="#2a2355" stroke-width="1.5" stroke-linecap="butt"/><path d="M240.84788,180.20574c0,0 -1.10576,4.13339 -2.41901,5.54481c-1.38104,1.48429 -5.67409,3.15338 -5.67409,3.15338c0,0 -4.14446,-0.20754 -6.68623,-2.15309c-2.90861,-2.22637 -4.30479,-6.24689 -5.04254,-6.57646c-0.49547,-0.22135 10.80123,-6.85556 10.80123,-6.85556z" fill="#2a2355" stroke-width="1.5" stroke-linecap="butt"/><path d="M240.54236,188.02935c0,0 -1.02975,3.84922 -2.25271,5.16362c-1.28609,1.38225 -5.28401,2.9366 -5.28401,2.9366c0,0 -3.85954,-0.19328 -6.22657,-2.00507c-2.70865,-2.07331 -4.00886,-5.81743 -4.69587,-6.12435c-0.46141,-0.20613 10.05867,-6.38425 10.05867,-6.38425z" fill="#2a2355" stroke-width="1.5" stroke-linecap="butt"/><path d="M240.04156,195.17667c0,0 -0.62582,3.48764 -1.61166,4.74347c-1.03671,1.32065 -4.46368,2.99577 -4.46368,2.99577c0,0 -3.43448,0.11618 -5.66695,-1.31305c-2.55466,-1.63551 -3.98567,-4.85652 -4.61732,-5.07731c-0.42423,-0.1483 8.43794,-6.40648 8.43794,-6.40648z" fill="#2a2355" stroke-width="1.5" stroke-linecap="butt"/><path d="M240.50265,203.83667c0,0 -0.6783,2.99826 -1.58165,4.04822c-0.94996,1.10417 -3.9853,2.42238 -3.9853,2.42238c0,0 -2.9811,-0.03317 -4.86021,-1.35885c-2.15031,-1.51702 -3.26499,-4.36433 -3.80383,-4.58032c-0.36189,-0.14506 7.56261,-5.22345 7.56261,-5.22345z" fill="#2a2355" stroke-width="1.5" stroke-linecap="butt"/><path d="M243.23415,210.80447c0,0 -3.31499,-2.31593 -2.32623,-5.23961c0.23859,-0.70544 3.5211,-5.31305 8.02672,-8.71124c0.38518,-0.2905 2.0477,-0.57255 3.23653,-0.01363c1.39069,0.65383 2.25596,2.21284 1.52663,2.542c-3.59756,1.62361 -4.50724,1.63698 -6.23369,3.82035c-2.00394,2.53429 -4.22993,7.60212 -4.22993,7.60212z" fill="#160f3d" stroke-width="1.5" stroke-linecap="butt"/><g><path d="M212.15522,200.76963c2.3422,-1.16389 5.67829,-0.97755 6.6274,-1.6365c1.28,-0.88863 3.64086,1.07226 4.9488,3.73641c0.98299,2.00228 0.95602,4.6786 1.73161,5.30529c0.54293,0.43873 1.18664,18.03409 1.18664,18.03409c0,0 2.72066,6.93057 1.74639,9.87454c-0.8701,2.62916 -6.34221,6.3665 -6.34221,6.3665c0,0 -8.82287,-2.77975 -10.59696,-8.17682c-2.93255,-8.92131 -5.00757,-26.98938 -5.00757,-26.98938c0,0 2.78088,-5.06065 5.70593,-6.51415z" fill="#100d25" stroke-width="1.5" stroke-linecap="butt"/><path d="M213.6199,224.22627c0,0 -1.60722,-6.1062 -1.88553,-9.0892c-0.10896,-1.16793 -1.34672,-5.38145 0.55984,-7.84903c2.3711,-3.0688 7.69363,-4.81219 10.08729,-4.37261c2.66233,0.48895 4.12192,5.56119 4.1893,5.73143c0.6953,1.75644 1.50401,16.70581 2.4949,21.97976c1.51088,8.0416 -6.81098,5.31914 -6.81098,5.31914c0,0 -1.21774,-0.09819 -1.87183,-0.01824c-0.87246,0.10663 -2.89911,0.60148 -2.89911,0.60148z" fill="#160f3d" stroke-width="1.5" stroke-linecap="butt"/><g><path d="M225.02208,232.07234c0,0 -4.58166,-1.71137 -5.27373,-3.31295c-1.5997,-3.70198 -4.15949,-18.51719 -4.15949,-18.51719l4.41762,-6.73206c0,0 5.35075,1.77797 5.91427,3.39236c1.41995,4.06781 3.70422,19.16572 3.70422,19.16572z" fill="#2a2355" stroke-width="1.5" stroke-linecap="butt"/><path d="M223.98914,210.1759l-5.28593,0.83386" fill="none" stroke-width="1.25" stroke-linecap="round"/><path d="M219.62339,215.95919l5.3271,-1.29096" fill="none" stroke-width="1.25" stroke-linecap="round"/><path d="M226.42852,225.28415l-4.64627,1.20619" fill="none" stroke-width="1.25" stroke-linecap="round"/><path d="M225.27808,220.49589l-4.56306,0.7344" fill="none" stroke-width="1.25" stroke-linecap="round"/></g><path d="M229.28541,239.29199c0,0 -3.49511,4.1955 -3.95783,3.87039c-4.95883,-3.48414 -11.1418,-5.23463 -11.84038,-5.61201c-0.46935,-0.25355 -5.70385,4.70851 -6.96586,4.0822c-0.86921,-0.43137 -0.88737,-2.55592 -0.36855,-4.30034c0.62222,-2.09207 2.00997,-3.85819 3.5364,-4.4679c9.54736,-3.81356 10.78321,-0.21093 12.62525,1.222c3.39682,2.64234 6.97096,5.20567 6.97096,5.20567z" data-paper-data="{&quot;index&quot;:null}" fill="#160f3d" stroke-width="1.5" stroke-linecap="butt"/><path d="M201.21102,247.49101c0,0 1.33496,-3.3177 5.53882,-7.16236c1.78341,-1.63106 3.66043,-3.9241 5.84637,-5.01929c2.69637,-1.35094 5.50285,-1.81408 6.19186,-1.73568c3.52346,0.40095 4.12136,3.60383 4.43082,4.05507c0.87459,1.27533 -0.90481,3.77933 -0.90481,3.77933c0,0 -2.38545,1.525 -4.3144,1.54185c-1.39356,0.01218 -2.64867,0.83564 -2.98027,1.17687c-0.908,0.93433 0.35882,5.57793 0.85811,8.94405c0.44608,3.00741 0.08745,4.82238 0.08745,4.82238c0,0 -6.91663,-3.43031 -9.77031,-4.47764c-2.07557,-0.76175 -4.98362,-5.92459 -4.98362,-5.92459z" fill="#100d25" stroke-width="1.5" stroke-linecap="butt"/><path d="M199.82339,247.6547c-0.08698,-1.57613 1.71643,-6.21469 3.13775,-7.11868c0.24926,-0.15854 2.67605,-1.27594 4.7703,-1.21456c1.12046,0.03283 2.05531,-0.16601 3.06633,-0.07964c1.78202,0.1522 3.33993,0.87324 3.50039,1.12672c0.14322,0.22624 1.88317,1.89979 1.52914,2.46278c-0.35403,0.56299 -2.02374,0.61935 -2.77778,0.5097c-0.21504,-0.03125 -2.06447,-0.35866 -3.89713,-0.36107c-1.47613,-0.00194 -2.95112,0.28959 -3.47789,0.48272c-0.91898,0.33693 -1.97984,1.57068 -1.92778,2.14848c0.11895,1.32026 2.14039,3.17194 2.45762,6.11365c0.33008,3.06102 3.81086,5.24195 4.05819,5.2705c1.3288,0.15332 2.41782,2.42527 5.71271,2.80544c1.27185,0.14675 1.21896,1.02288 1.17889,1.36344c-0.03587,0.30482 -0.347,2.94914 -0.347,2.94914c0,0 -2.22066,1.4181 -4.83812,1.1161c-1.08795,-0.12554 -4.6578,-0.7146 -7.23203,-2.63138c-0.97558,-0.72641 -3.4169,-2.17293 -4.07052,-4.16072c-0.65361,-1.98778 -0.72294,-8.60502 -0.84308,-10.78262z" fill="#160f3d" stroke-width="1.5" stroke-linecap="butt"/><path d="M206.73108,247.40947c1.96973,-0.93972 3.93025,-1.7547 6.31141,-1.28972c2.29452,0.44808 2.96454,1.57376 4.31576,3.26701c1.3512,1.69325 1.06323,4.63109 1.06323,4.63109c0,0 -6.57192,-0.33554 -7.60084,-0.53647c-2.78737,-0.54432 -6.36444,-2.19066 -6.36444,-2.19066c0,0 0.30517,-2.94154 2.27489,-3.88126z" fill="#2a2355" stroke-width="1.5" stroke-linecap="butt"/><path d="M218.32065,238.07975c1.27097,-2.72306 4.53048,-3.91024 7.2803,-2.65163c2.74983,1.2586 3.94872,4.48634 2.67773,7.20944c-1.27097,2.72306 -4.53044,3.91027 -7.2803,2.65166c-2.74983,-1.2586 -3.9487,-4.48637 -2.67773,-7.20943z" fill="#160f3d" stroke-width="1.5" stroke-linecap="butt"/><path d="M207.43953,254.32779c1.57811,-1.4365 3.08146,-2.43073 5.33467,-2.5035c2.17122,-0.07012 3.73702,0.71513 5.32407,2.15928c1.58707,1.44416 0.91858,5.03606 0.91858,5.03606c0,0 -4.20928,0.58711 -6.56956,0.66336c-2.6376,0.08517 -6.22701,-0.7905 -6.22701,-0.7905c0,0 -0.35887,-3.12816 1.21923,-4.56466z" fill="#2a2355" stroke-width="1.5" stroke-linecap="butt"/><path d="M209.86606,264.30998c0,0 0.07986,-3.51327 0.46906,-4.09699c0.38919,-0.58373 2.68851,-2.30139 3.48463,-2.68689c0.79612,-0.38551 4.86942,0.43862 4.86942,0.43862l3.01165,8.7625c0,0 -5.87778,-0.75059 -8.06626,-1.14198c-1.5128,-0.27055 -3.76851,-1.27524 -3.76851,-1.27524z" fill="#100d25" stroke-width="1.5" stroke-linecap="butt"/><path d="M223.14015,245.8659c0,0 0.23609,-2.30444 0.52235,-2.66808c0.28623,-0.36362 1.61701,-1.0288 2.16028,-1.24133c0.54327,-0.21251 2.82771,0.27053 2.82771,0.27053l2.41741,8.91105z" fill="#2a2355" stroke-width="1.5" stroke-linecap="butt"/></g><path d="M219.10803,202.10874c-2.62053,-0.02132 -2.9842,-0.87745 -5.73366,0.56937c-0.90414,0.47578 -2.70187,0.76798 -3.41387,1.40204c-1.45317,1.29409 -1.5492,2.95701 -2.46392,3.12129c-0.73469,0.13193 -2.6269,0.77362 -2.8914,-0.35025c-0.34737,-1.47604 2.17611,-3.72673 2.37494,-3.96354c1.13268,-1.34897 2.08186,-2.91953 4.91773,-4.05515c2.83587,-1.13563 5.34508,-0.54488 7.11996,-0.6319c2.6607,-0.13042 6.69745,2.72709 6.69745,2.72709c0,0 0.12133,1.70783 -1.08384,1.75107c-1.4671,0.05264 -4.0847,-0.55831 -5.52339,-0.57002z" data-paper-data="{&quot;index&quot;:null}" fill="#160f3d" stroke-width="1.5" stroke-linecap="butt"/><path d="M221.09526,167.15432l9.8593,-5.86178l7.40174,5.12881" fill="none" stroke-width="1" stroke-linecap="round"/><path d="M223.32553,175.08818l8.22376,-5.41804l6.23734,4.11438" fill="none" stroke-width="1" stroke-linecap="round"/><path d="M241.32811,209.11661c0,0 -0.0135,2.832 -0.61713,3.95623c-0.63478,1.18228 -3.10281,2.97206 -3.10281,2.97206c0,0 -2.68818,0.56341 -4.64229,-0.25512c-2.23615,-0.93668 -3.80543,-3.27608 -4.3331,-3.36313c-0.3544,-0.05848 5.76328,-6.20359 5.76328,-6.20359z" fill="#2a2355" stroke-width="1.5" stroke-linecap="butt"/><path d="M226.27014,181.19519l5.77048,-3.59258l5.20081,3.77057" fill="none" stroke-width="1" stroke-linecap="round"/><g stroke-width="1.5" stroke-linecap="butt"><g><path d="M269.52812,187.6498c4.8446,-2.49238 10.79238,-0.58552 13.28475,4.25908c2.49237,4.8446 0.58552,10.79238 -4.25907,13.28475c-4.8446,2.49238 -10.79238,0.58552 -13.28476,-4.25907c-2.49238,-4.8446 -0.58552,-10.79238 4.25907,-13.28476z" fill="#160f3d"/><g><path d="M300.22728,249.77227l4.64274,-2.56926l3.0364,5.48687c0,0 -1.05606,1.50328 -1.86175,1.94915c-0.73548,0.407 -2.78099,0.6201 -2.78099,0.6201z" fill="#160f3d"/><path d="M290.77044,236.37418l7.94816,-4.45531l8.5175,15.19501c0,0 -1.71502,3.26552 -3.10817,4.04645c-1.23785,0.69386 -4.83998,0.40886 -4.83998,0.40886z" fill="#100d25"/><path d="M295.01118,211.87703l7.64428,18.29589c0,0 -3.91376,4.50379 -6.63085,5.95123c-2.80054,1.4919 -9.92958,2.87081 -9.92958,2.87081l-9.76562,-16.33879z" fill="#2a2355"/><path d="M278.56957,220.75428l-10.18484,-2.27833l9.03653,-1.93596l-1.47942,-14.8862l12.74895,9.27388l6.29421,-7.32722l-2.8025,9.67677l10.38439,21.67549c0,0 -2.25672,3.72278 -4.88567,5.19643c-2.62896,1.47364 -7.43016,1.70716 -7.43016,1.70716z" fill="#160f3d"/><path d="M282.43985,220.38314l7.59751,-4.25875l7.8356,17.26697c0,0 -1.30678,2.11502 -2.21556,2.62443c-1.02524,0.57469 -3.62868,0.65152 -3.62868,0.65152z" fill="#0028ff"/><path d="M275.1451,209.32236l8.89268,-4.68148c0,0 2.69382,5.11703 3.82737,7.27029c0.43204,0.82069 7.27842,-0.40791 7.27842,-0.40791l-4.90968,5.32741c0,0 0.85441,5.26686 -1.32998,6.66349c-2.1844,1.39663 -7.05217,-1.30424 -7.05217,-1.30424l-7.22998,0.37901c0,0 4.81373,-5.0968 4.39022,-5.90127c-1.13681,-2.15943 -3.86689,-7.34531 -3.86689,-7.34531z" fill="#100d25"/><path d="M276.53932,205.07878c0.9979,1.71163 2.75271,5.12036 2.75271,5.12036c0,0 0.92144,4.63882 -0.12727,5.75527c-0.436,0.46415 -1.29044,1.51252 -3.51852,0.90735c-2.22808,-0.60518 -4.79896,-3.16648 -4.79896,-3.16648c0,0 3.61867,0.70867 4.2324,-0.23375c0.61374,-0.94242 0.85501,-1.58858 0.13745,-2.64512c-0.85788,-1.26317 -2.89159,-2.47083 -3.44157,-3.41419c-1.03271,-1.77132 -3.18628,-5.19186 -3.18628,-5.19186c0,0 1.24241,-1.61252 2.0538,-2.06052c0.69484,-0.38364 2.51931,-0.46445 2.51931,-0.46445c0,0 2.33364,3.60392 3.37693,5.39339z" data-paper-data="{&quot;index&quot;:null}" fill="#2a2355"/><path d="M295.00699,238.76132l-0.16714,-4.05381l3.75913,2.04033l5.05177,9.01221c0,0 -0.63633,1.72331 -1.26592,2.07623c-0.55941,0.31357 -2.32608,-0.06275 -2.32608,-0.06275z" fill="#2a2355"/><path d="M276.81551,197.84755c0,0 1.03747,-1.50295 1.73156,-1.88794c0.81053,-0.44956 2.83666,-0.64584 2.83666,-0.64584c0,0 1.75447,3.6414 2.70683,5.45719c0.50721,0.96703 0.45034,3.3316 1.065,4.72936c0.51412,1.16912 1.18976,1.30787 2.31423,1.28838c1.12445,-0.01949 2.44591,-3.46199 2.44591,-3.46199c0,0 0.80477,3.53866 0.1342,5.74792c-0.67057,2.20926 -2.01267,2.37644 -2.63751,2.49935c-1.50295,0.29564 -4.94405,-2.94882 -4.94405,-2.94882c0,0 -1.95623,-3.29725 -2.87651,-5.05185c-0.96213,-1.83439 -2.77633,-5.72575 -2.77633,-5.72575z" fill="#2a2355"/><path d="M268.11559,199.1871c0,0 1.51756,-4.40349 4.38443,-5.54314c2.86687,-1.13965 7.63923,-0.61186 7.63923,-0.61186l5.91347,0.29208l-3.34281,4.30852l-2.8972,5.51146l6.34013,15.19747l-9.59085,-13.38044l-6.20259,-1.24338l-6.36346,-0.61996z" fill="#160f3d"/><path d="M269.80473,190.88658c0,0 2.01908,-1.78477 4.6799,-1.52376c2.66081,0.26101 4.55231,2.03383 4.55231,2.03383l3.90039,6.9662l-2.99315,5.01088l-5.78563,-6.59454l2.09623,7.57095l-5.71462,0.02529c0,0 -3.66247,-6.89952 -3.81484,-7.69768c-0.43599,-2.28386 3.0794,-5.79121 3.0794,-5.79121z" fill="#100d25"/><path d="M282.85186,233.28594c0,0 6.18944,-2.85501 9.06364,-4.46615c2.75966,-1.5469 7.8519,-5.0158 7.8519,-5.0158l1.6227,0.82314l-0.26776,1.59403c0,0 -5.29145,3.58055 -8.12049,5.16636c-2.80935,1.57476 -8.79507,4.31559 -8.79507,4.31559l-1.81358,-0.57174z" fill="#100d25"/></g></g><g><path d="M267.01246,188.37582c1.45053,-0.4862 7.9615,-2.78937 7.9615,-2.78937c0,0 3.76087,6.13146 4.25947,10.56205c0.42608,3.78609 -2.14851,8.19565 -2.14851,8.19565c0,0 -4.63007,-1.89045 -6.94574,-4.87106c-2.46294,-3.17016 -3.46995,-10.98222 -3.12672,-11.09726z" fill="#2a2355"/><g><path d="M258.63039,182.63418l-3.30594,-13.01873l16.85952,-6.47738l6.14753,13.81323c0,0 -0.59862,2.90048 -2.44758,4.21914c-1.68348,1.20065 -4.54786,0.80605 -6.12176,1.26006c-1.68572,0.48626 -3.67484,3.40518 -6.09842,3.32856c-2.26922,-0.07174 -5.03334,-3.12486 -5.03334,-3.12486z" fill="#100d25"/><path d="M255.61133,182.15311l8.93115,2.58164l-0.92884,-4.50667l3.1856,-5.41516l5.09776,0.43828l3.83129,4.03572l3.51704,-7.99309c0,0 1.72421,6.36488 1.20763,9.68793c-0.41316,2.65784 -5.01272,4.39757 -7.73193,5.69715c-2.71921,1.29959 -5.05275,2.79699 -8.75335,2.04684c-3.9313,-0.79693 -8.35633,-6.57262 -8.35633,-6.57262z" fill="#160f3d"/><path d="M261.0686,180.24131l-3.04246,-9.9524l6.69652,-1.59532l5.17685,-3.43026l4.29793,8.66359l-4.8105,7.55175z" fill="#2a2355"/></g></g><g><path d="M238.25484,141.00048c0,0 6.59335,7.75511 7.69013,6.79074c0.85724,-0.75376 0.85976,-9.43929 0.85976,-9.43929c0,0 3.98674,6.91113 5.02829,6.7638c1.35198,-0.19124 3.80358,-7.43635 3.80358,-7.43635c0,0 1.86965,6.95289 2.61052,7.29074c0.54526,0.24864 8.01921,-4.09885 8.01921,-4.09885l-2.42259,8.80523l7.23624,1.54461c0,0 -5.58965,1.20692 -5.07816,3.57629c0.51149,2.36938 6.51465,0.0447 6.51465,0.0447l-4.25203,4.43837c0,0 -3.0863,2.88546 -5.35674,4.31995c-2.27044,1.43449 -3.91542,2.40748 -6.74265,2.90231c-2.82723,0.49484 -5.14306,-0.76206 -5.14306,-0.76206c0,0 -0.34026,-4.01938 -2.18181,-5.56607c-1.84156,-1.5467 -6.73088,-1.06403 -6.73088,-1.06403c0,0 1.76466,-3.86901 -0.04409,-5.63806c-1.80875,-1.76905 -7.01703,-1.26804 -7.01703,-1.26804c0,0 4.22791,-1.77511 4.94906,-4.29485c0.72116,-2.51974 -1.74241,-6.90913 -1.74241,-6.90913z" data-paper-data="{&quot;index&quot;:null}" fill="#100d25"/><path d="M245.34371,160.14147l-1.18753,-2.57164l10.80286,-5.29674l1.15488,2.27096z" fill="#100d25"/><path d="M242.01098,158.90319c-0.54804,-1.9936 0.62381,-4.054 2.61741,-4.60205c1.9936,-0.54804 4.054,0.62381 4.60205,2.6174c0.54804,1.9936 -0.62381,4.054 -2.61741,4.60205c-1.9936,0.54804 -4.054,-0.62381 -4.60205,-2.61741z" fill="#160f3d"/></g><path d="M255.76438,170.20158c-3.60174,-0.19316 -8.51896,-3.41212 -8.51896,-3.41212l7.51219,-0.77673c0,0 4.30148,-1.05781 6.13437,-1.81787c1.75403,-0.72735 4.88264,-2.48565 4.88264,-2.48565l3.06943,-1.87616l6.08619,-0.21242c0,0 -1.16588,3.31048 -6.23278,6.29218c-5.01225,2.94955 -11.14198,4.38483 -12.93309,4.28877z" fill="#160f3d"/><g><path d="M263.95458,172.15337l-7.0368,-16.64144l2.64033,-1.41796l7.17926,17.63749z" fill="#100d25"/><path d="M254.03756,153.21809c-0.34159,-1.68625 0.74849,-3.33013 2.43473,-3.67172c1.68625,-0.34159 3.33013,0.74848 3.67172,2.43473c0.34159,1.68625 -0.74849,3.33013 -2.43474,3.67171c-1.68625,0.34159 -3.33013,-0.74848 -3.67171,-2.43472z" fill="#160f3d"/></g><g><path d="M273.00751,196.93036l-6.89858,-19.89683l2.47413,-1.26397l6.51812,19.49237z" fill="#100d25"/><path d="M262.80733,174.84853c-0.1235,-1.88075 1.30102,-3.50548 3.18177,-3.62898c1.88076,-0.1235 3.50548,1.30102 3.62898,3.18177c0.1235,1.88075 -1.30101,3.50549 -3.18176,3.62899c-1.88075,0.1235 -3.50549,-1.30102 -3.62899,-3.18176z" fill="#160f3d"/></g><path d="M270.91799,195.68975c-0.22304,-1.60091 0.89395,-3.07951 2.49486,-3.30254c1.60091,-0.22304 3.07951,0.89396 3.30254,2.49486c0.22304,1.60091 -0.89395,3.0795 -2.49486,3.30254c-1.60091,0.22304 -3.0795,-0.89395 -3.30254,-2.49486z" fill="#160f3d"/></g><g data-paper-data="{&quot;index&quot;:null}" stroke-width="1.5" stroke-linecap="butt"><g><path d="M156.23994,238.07938l2.73315,-4.61538l-3.52762,-1.93088l2.49434,-2.68911l-5.6131,-4.58292c0,0 9.59351,0.00408 12.53225,-0.59616c0.61293,-0.12519 1.32964,-6.45946 2.46364,-7.56453c1.59214,-1.55155 3.68084,2.15064 4.60436,3.55037c0.56611,0.85805 -3.2537,8.50113 -3.2537,8.50113l2.06467,3.91544l-4.95839,1.4455l2.99266,3.97037l-4.89983,2.09166c0,0 5.90807,3.06922 5.08966,2.90886c-0.65246,-0.12784 -5.21108,2.23834 -5.21108,2.23834z" fill="#160f3d"/><path d="M162.85632,232.42034l-2.06417,-7.61583l-5.42558,-0.78178c0,0 2.42851,-2.17367 2.41946,-3.42842c-0.0087,-1.20771 -2.50839,-4.13889 -2.50839,-4.13889l5.35713,0.03735l-1.81491,-4.18988c0,0 4.76804,0.98722 5.32587,0.57615c2.77159,-2.04246 8.80016,-2.01168 8.80016,-2.01168l2.38668,2.64019c0,0 -5.55092,1.92254 -7.64487,5.0968c-2.06436,3.12937 -4.83135,13.81601 -4.83135,13.81601z" fill="#100d25"/></g><g><path d="M170.58472,242.58662c0,0 7.57965,-3.34031 10.81377,-6.93366c6.33057,-7.03368 6.76614,-15.84132 8.43097,-15.7966c1.42085,0.03816 3.48167,14.81767 3.48167,14.81767c0,0 -2.80286,-2.11367 -3.10385,-1.83965c-0.54095,0.49247 -0.79672,3.60206 -2.01384,5.74281c-1.34973,2.37397 -3.96765,4.52852 -3.96765,4.52852c0,0 -3.9558,2.40332 -5.91151,2.30326c-2.20404,-0.11276 -7.72954,-2.82233 -7.72954,-2.82233z" fill="#160f3d"/><path d="M177.91314,219.87133c-0.00887,-0.33458 7.99845,-5.11322 7.99845,-5.11322l6.82698,4.62849c0,0 1.90202,4.68045 -0.00889,8.16802c-1.13857,2.07797 -3.93837,1.924 -5.28914,3.18898c-1.73698,1.62668 -3.02343,7.91557 -6.07855,9.77679c-3.53302,2.15238 -9.28306,-1.89153 -9.28306,-1.89153l4.12887,-1.21159l2.54647,-1.41294c0,0 -0.05111,-1.54641 -0.57929,-2.21505c-0.48685,-0.61632 -2.47589,-1.65267 -2.47589,-1.65267c0,0 2.22952,-0.22256 3.27008,-0.60851c0.94115,-0.3491 2.70499,-1.6078 2.70499,-1.6078c0,0 -3.70028,-7.75681 -3.76105,-10.04894z" fill="#100d25"/></g><g><path d="M175.51445,215.97416l3.74908,0.73209l-1.7786,7.524c0,0 -1.22899,0.30715 -1.84993,0.18588c-0.62865,-0.12276 -1.27028,-0.96969 -1.27028,-0.96969z" fill="#100d25"/><g><g><path d="M170.60159,214.34965l-5.16894,-13.55704l3.54783,-1.72235l4.46211,13.00347z" fill="#160f3d"/><path d="M161.23947,201.66212c0.03401,-1.26672 0.13892,-5.17284 0.19206,-7.15181c0.01913,-0.71231 2.43361,-1.11045 2.43361,-1.11045l13.22729,0.35522l-0.26888,10.01255c0,0 -11.04649,-0.29665 -13.57959,-0.36469c-0.98414,-0.02642 -2.02528,-0.96573 -2.00447,-1.74084z" fill="#160f3d"/><path d="M173.54697,195.5675c0,0 -9.23252,-8.89343 -8.29277,-15.79015c0.93976,-6.89674 13.58288,-12.39389 13.58288,-12.39389l2.59037,3.4087c0,0 -11.32485,3.79922 -12.32074,9.78882c-0.99591,5.98959 6.69248,12.3859 6.69248,12.3859z" fill="#160f3d"/><path d="M164.44486,198.10045c0.03622,-1.34873 1.15893,-2.41272 2.50766,-2.3765c1.34873,0.03622 2.41273,1.15892 2.3765,2.50767c-0.03622,1.34873 -1.15893,2.41273 -2.50767,2.3765c-1.34873,-0.03622 -2.41272,-1.15893 -2.3765,-2.50767z" fill="#2a2355"/></g><path d="M200.33371,194.60614c0,0 -0.91227,-1.87588 -0.86735,-2.28865c0.04491,-0.41277 0.7393,-1.54638 1.05073,-1.96395c0.31143,-0.41756 2.273,-1.11889 2.273,-1.11889l6.05383,5.69196z" fill="#2a2355"/><path d="M174.73125,219.82556l0.11478,-4.27365l16.35557,-9.74056c0,0 3.37206,1.25869 3.95503,1.27434c1.29782,0.03487 -0.98028,13.26208 -0.98028,13.26208z" fill="#160f3d"/><path d="M169.5072,215.96879c0.08082,-3.00934 2.58589,-5.3834 5.59522,-5.30257c3.00934,0.08082 5.3834,2.58589 5.30257,5.59523c-0.08082,3.00934 -2.5859,5.38339 -5.59522,5.30256c-3.00934,-0.08082 -5.38339,-2.5859 -5.30256,-5.59522z" fill="#160f3d"/><path d="M173.99084,205.22603c1.41012,-3.50305 9.30522,-24.95421 9.30522,-24.95421c0,0 15.35296,6.06986 16.95278,5.95792c0.61055,-0.04273 -9.81899,26.53377 -9.81899,26.53377c0,0 -5.57666,1.60926 -8.80742,0.25048c-4.78352,-2.01179 -7.8251,-7.30721 -7.63158,-7.78797z" fill="#160f3d"/><path d="M181.8079,202.53951l4.15027,-20.475l10.67843,3.02309l-10.52541,18.45121l-3.22747,2.15983z" fill="#2a2355"/><path d="M174.79293,202.11461l-2.95655,-1.57879c0,0 -0.72927,-0.51285 -0.36938,-1.48823c1.3369,-3.62331 4.55743,-12.46173 5.17723,-14.14154c0.20277,-0.54958 1.20719,-0.77714 1.20719,-0.77714l3.08164,1.34456z" fill="#100d25"/><path d="M170.68759,208.80014l2.68851,-5.48058l8.2223,7.47303l10.78208,-0.85472l-1.22018,6.54305l-11.54758,0.05256z" fill="#100d25"/><path d="M183.47236,222.56105c0.03749,-1.39612 1.19967,-2.49751 2.59579,-2.46002c1.39612,0.03749 2.49751,1.19968 2.46002,2.5958c-0.03749,1.39612 -1.19967,2.49751 -2.59579,2.46002c-1.39612,-0.03749 -2.49753,-1.19968 -2.46002,-2.5958z" fill="#2a2355"/><path d="M195.69769,206.08991c0,0 -0.91228,-1.87588 -0.86735,-2.28865c0.04491,-0.41277 0.73929,-1.54638 1.05073,-1.96395c0.31143,-0.41756 2.27301,-1.11891 2.27301,-1.11891l6.05384,5.69197z" fill="#2a2355"/><path d="M197.99845,200.04207c0,0 -0.91227,-1.87588 -0.86735,-2.28864c0.04491,-0.41277 0.73929,-1.54638 1.05073,-1.96395c0.31143,-0.41756 2.27301,-1.11891 2.27301,-1.11891l6.05383,5.69197z" fill="#2a2355"/><path d="M195.75433,208.99204c0,0 -1.8156,-0.10851 -2.75817,-0.04047c-0.85381,0.06163 -2.67665,0.19559 -2.67665,0.19559c0,0 6.85259,-18.47028 7.71229,-20.80026c0.28126,-0.76229 5.41863,-0.32063 5.41863,-0.32063z" fill="#100d25"/><path d="M172.33995,215.97338c0.03801,-1.41618 1.21687,-2.53335 2.63305,-2.49533c1.41618,0.03801 2.53336,1.21687 2.49534,2.63305c-0.03801,1.41618 -1.21687,2.53334 -2.63305,2.49533c-1.41618,-0.03801 -2.53335,-1.21687 -2.49533,-2.63305z" fill="#2a2355"/></g></g><g><g><g><path d="M193.12396,185.02042l-7.68101,-7.75696l2.87899,-11.97603l8.31742,7.86115l9.81627,-1.04531l-3.1592,12.51807z" data-paper-data="{&quot;index&quot;:null}" fill="#160f3d"/><path d="M185.00868,175.47363l7.83857,6.69988l11.2103,-0.86794l-0.38435,7.17359c0,0 -11.5509,0.59371 -13.18142,0.58872c-0.48943,-0.0015 -8.59528,-7.5861 -8.59528,-7.5861z" fill="#2a2355"/></g><path d="M190.36045,184.22701l5.92405,-14.51321c0,0 2.10313,0.24735 2.46937,0.39684c0.6339,0.25874 -6.3737,16.20409 -6.3737,16.20409z" fill="#100d25"/></g><path d="M187.63412,186.56603c0.04489,-1.67185 1.43661,-2.99076 3.10845,-2.94587c1.67185,0.04489 2.99077,1.4366 2.94588,3.10845c-0.04489,1.67185 -1.43661,2.99078 -3.10845,2.94589c-1.67185,-0.04489 -2.99077,-1.4366 -2.94588,-3.10844z" fill="#160f3d"/></g><g><path d="M176.64252,163.15838c0,0 0.1202,-1.28504 1.59233,-3.18894c3.94164,-5.09761 11.66156,-14.79043 13.56399,-17.18382c0.84737,-1.06608 3.80285,-1.41924 3.80285,-1.41924l7.63351,6.94005l-17.833,21.94447z" fill="#2a2355"/><path d="M191.16631,138.53879c0.43272,-0.55252 1.62542,-1.63323 1.62542,-1.63323c0,0 1.13991,-0.56925 1.80736,-0.07189c2.09049,1.5578 12.17375,10.39829 12.17375,10.39829l-2.34362,2.99244c0,0 -10.96648,-8.58878 -12.89115,-10.09612c-0.55543,-0.43499 -0.65585,-1.22675 -0.37176,-1.58947z" fill="#100d25"/><path d="M173.11339,163.24714c0.29871,-0.38142 0.79175,-1.10676 0.99017,-1.36011c0.32824,-0.41911 1.334,-0.74961 1.84265,-0.35124c1.86004,1.45676 12.99311,10.17599 12.99311,10.17599l-2.34362,2.99244c0,0 -10.24715,-8.02539 -12.40997,-9.71927c-0.76554,-0.59954 -1.41613,-1.29881 -1.07232,-1.73779z" fill="#100d25"/><path d="M182.038,159.76576c2.51154,-3.30074 8.5552,-10.75079 9.93507,-12.56423c0.57197,-0.75169 1.96389,-0.86094 2.49782,-0.45468c0.76101,0.57905 2.76852,2.10657 2.76852,2.10657c0,0 0.55157,1.17694 -0.51934,2.84046c-2.51995,3.91434 -8.20679,10.67894 -9.41377,12.26521c-0.52795,0.69387 -2.08626,0.69056 -2.08626,0.69056c0,0 -2.31877,-1.82554 -3.08153,-2.40594c-0.50462,-0.38397 -0.81282,-1.54177 -0.10046,-2.47796z" fill="#0028ff"/><path d="M225.0906,151.15854c0,0 -5.14794,2.34656 -6.64544,4.11488c-0.76375,0.90189 0.1235,3.71211 -0.87939,5.741c-1.27539,2.58018 -4.15353,1.85803 -6.20471,4.3133c-0.90983,1.08911 -1.19013,5.46874 -1.89266,6.48876c-0.67954,0.98664 -2.93518,5.61167 -2.93518,5.61167l-1.23498,-5.69331c0,0 -8.63332,3.67453 -9.98276,3.3232c-1.5124,-0.39376 -3.88001,-5.27579 -3.88001,-5.27579l-7.29778,0.52128c0,0 4.49318,-5.10068 4.25992,-5.44199c-1.04087,-1.52308 -4.52829,-4.15075 -4.52829,-4.15075l6.89734,-4.02935l-2.64822,-6.69881c0,0 6.96095,1.58669 7.61754,1.16163c0.89219,-0.57756 2.38176,-7.10295 2.38176,-7.10295c0,0 3.87447,4.65517 5.72569,4.55938c1.42619,-0.07378 3.71624,-5.61667 3.71624,-5.61667c0,0 3.50657,6.69577 4.8551,7.38535c1.72536,0.88226 6.55955,-5.39461 6.55955,-5.39461l0.98656,4.78746z" fill="#100d25"/><path d="M202.35137,159.80932l0.44344,-12.96939c0,0 3.0913,-1.72633 3.07323,-0.30136c-0.03735,2.94459 -0.35923,13.31081 -0.35923,13.31081z" fill="#100d25"/><path d="M200.36157,160.56145c0.04771,-1.77712 1.52706,-3.17907 3.30416,-3.13135c1.77712,0.04771 3.17907,1.52706 3.13134,3.30417c-0.04771,1.77712 -1.52705,3.17906 -3.30417,3.13134c-1.77712,-0.04771 -3.17907,-1.52705 -3.13135,-3.30417z" fill="#160f3d"/><path d="M194.80118,168.31671c0.04489,-1.67185 1.4366,-2.99077 3.10846,-2.94588c1.67185,0.04489 2.99077,1.43661 2.94588,3.10846c-0.04489,1.67185 -1.4366,2.99075 -3.10845,2.94587c-1.67185,-0.04489 -2.99078,-1.4366 -2.94589,-3.10845z" fill="#160f3d"/></g></g></g></g></svg>