<svg version="1.1" xmlns="http://www.w3.org/2000/svg" xmlns:xlink="http://www.w3.org/1999/xlink" width="10.42516" height="21.94932" viewBox="0,0,10.42516,21.94932"><defs><linearGradient x1="49.54335" y1="226.11188" x2="53.41107" y2="226.11189" gradientUnits="userSpaceOnUse" id="color-1"><stop offset="0" stop-color="#c1c1c1"/><stop offset="1" stop-color="#1a1a1a"/></linearGradient><linearGradient x1="47.86639" y1="229.03907" x2="47.86639" y2="223.10184" gradientUnits="userSpaceOnUse" id="color-2"><stop offset="0" stop-color="#c1c1c1"/><stop offset="1" stop-color="#191919"/></linearGradient><linearGradient x1="49.54335" y1="218.87478" x2="53.41107" y2="218.87478" gradientUnits="userSpaceOnUse" id="color-3"><stop offset="0" stop-color="#c1c1c1"/><stop offset="1" stop-color="#1a1a1a"/></linearGradient><linearGradient x1="47.86639" y1="221.80198" x2="47.86639" y2="215.86473" gradientUnits="userSpaceOnUse" id="color-4"><stop offset="0" stop-color="#c1c1c1"/><stop offset="1" stop-color="#191919"/></linearGradient><linearGradient x1="49.54335" y1="233.87476" x2="53.41107" y2="233.87477" gradientUnits="userSpaceOnUse" id="color-5"><stop offset="0" stop-color="#c1c1c1"/><stop offset="1" stop-color="#1a1a1a"/></linearGradient><linearGradient x1="47.86639" y1="236.80196" x2="47.86639" y2="230.86473" gradientUnits="userSpaceOnUse" id="color-6"><stop offset="0" stop-color="#c1c1c1"/><stop offset="1" stop-color="#191919"/></linearGradient></defs><g transform="translate(-43.36091,-215.36897)"><g data-paper-data="{&quot;isPaintingLayer&quot;:true}" fill-rule="nonzero" stroke="#000000" stroke-width="0.75" stroke-linejoin="miter" stroke-miterlimit="10" stroke-dasharray="" stroke-dashoffset="0" style="mix-blend-mode: normal"><path d="M53.41107,227.20502h-3.86772v-2.18628h3.86772z" fill="url(#color-1)" stroke-linecap="butt"/><path d="M50.68321,229.03908l-6.42761,-3.18021l6.42761,-2.75704c0,0 0.79401,1.96952 0.79401,2.92374c0,1.02041 -0.79401,3.01351 -0.79401,3.01351z" fill="url(#color-2)" stroke-linecap="round"/><path d="M53.41107,219.96792h-3.86772v-2.18629l3.86772,0z" fill="url(#color-3)" stroke-linecap="butt"/><path d="M50.68321,221.80197l-6.42761,-3.18021l6.42761,-2.75704c0,0 0.79401,1.96951 0.79401,2.92374c0,1.02041 -0.79401,3.0135 -0.79401,3.0135z" fill="url(#color-4)" stroke-linecap="round"/><path d="M53.41107,234.96792l-3.86772,0v-2.18628h3.86772z" fill="url(#color-5)" stroke-linecap="butt"/><path d="M50.68321,236.80196l-6.42761,-3.18021l6.42761,-2.75704c0,0 0.79401,1.96951 0.79401,2.92374c0,1.02041 -0.79401,3.01351 -0.79401,3.01351z" fill="url(#color-6)" stroke-linecap="round"/></g></g></svg>