<svg version="1.1" xmlns="http://www.w3.org/2000/svg" xmlns:xlink="http://www.w3.org/1999/xlink" width="112.29852" height="248.42468" viewBox="0,0,112.29852,248.42468"><g transform="translate(-197.73221,-156.75873)"><g data-paper-data="{&quot;isPaintingLayer&quot;:true}" fill-rule="nonzero" stroke-linejoin="miter" stroke-miterlimit="10" stroke-dasharray="" stroke-dashoffset="0" style="mix-blend-mode: normal"><path d="M297.16963,184.22129v218.46212h-13.68559v-217.34108" fill="#292929" stroke="#050505" stroke-width="5" stroke-linecap="round"/><path d="M215.74019,189.7015l-10.50454,-15.45938l10.50454,-14.89638h72.79896v30.35576z" fill="#151515" stroke="#000000" stroke-width="4" stroke-linecap="butt"/><path d="M199.73221,174.81944c0,-4.13452 3.3517,-7.48622 7.48622,-7.48622c4.13452,0 7.48622,3.3517 7.48622,7.48622c0,4.13452 -3.3517,7.48623 -7.48622,7.48623c-4.13452,0 -7.48622,-3.3517 -7.48622,-7.48623z" fill="#2c337e" stroke="#000000" stroke-width="4" stroke-linecap="butt"/><text transform="translate(225.96341,180.61118) scale(0.53526,0.53182)" font-size="40" xml:space="preserve" fill="#0038a1" fill-rule="nonzero" stroke="#000000" stroke-width="8" stroke-linecap="butt" stroke-linejoin="miter" stroke-miterlimit="10" stroke-dasharray="" stroke-dashoffset="0" font-family="Handwriting" font-weight="normal" text-anchor="start" style="mix-blend-mode: normal"><tspan x="0" dy="0">Easy</tspan></text><text transform="translate(226.00507,180.13449) scale(0.52671,0.51025)" font-size="40" xml:space="preserve" fill="#2c337e" fill-rule="nonzero" stroke="#2c337f" stroke-width="1" stroke-linecap="butt" stroke-linejoin="miter" stroke-miterlimit="10" stroke-dasharray="" stroke-dashoffset="0" font-family="Handwriting" font-weight="normal" text-anchor="start" style="mix-blend-mode: normal"><tspan x="0" dy="0">Easy</tspan></text><path d="M271.11415,176.21702l19.45829,-19.45829l19.45829,19.45829l-19.45829,19.4583z" fill="#000000" stroke="#0038a1" stroke-width="0" stroke-linecap="butt"/><path d="M278.20394,176.37115l12.2144,-12.2144l12.2144,12.2144l-12.2144,12.21441z" fill="#000000" stroke="#2c337e" stroke-width="3.5" stroke-linecap="butt"/></g></g></svg>