<svg version="1.1" xmlns="http://www.w3.org/2000/svg" xmlns:xlink="http://www.w3.org/1999/xlink" width="604.70463" height="517.60565" viewBox="0,0,604.70463,517.60565"><defs><radialGradient cx="194.24554" cy="168.13098" r="35.625" gradientUnits="userSpaceOnUse" id="color-1"><stop offset="0" stop-color="#cf0000"/><stop offset="1" stop-color="#cf0000" stop-opacity="0"/></radialGradient><linearGradient x1="87.22145" y1="230.99788" x2="87.22145" y2="253.33122" gradientUnits="userSpaceOnUse" id="color-2"><stop offset="0" stop-color="#d80202"/><stop offset="1" stop-color="#9a0202"/></linearGradient><linearGradient x1="368.88812" y1="230.90899" x2="368.88812" y2="253.24233" gradientUnits="userSpaceOnUse" id="color-3"><stop offset="0" stop-color="#d80202"/><stop offset="1" stop-color="#9a0202"/></linearGradient><linearGradient x1="368.76312" y1="259.03399" x2="368.76312" y2="281.36733" gradientUnits="userSpaceOnUse" id="color-4"><stop offset="0" stop-color="#d80202"/><stop offset="1" stop-color="#9a0202"/></linearGradient><linearGradient x1="159.62026" y1="82.60541" x2="159.62026" y2="104.93875" gradientUnits="userSpaceOnUse" id="color-5"><stop offset="0" stop-color="#d80202"/><stop offset="1" stop-color="#9a0202"/></linearGradient><linearGradient x1="428.22027" y1="83.00541" x2="428.22027" y2="105.33875" gradientUnits="userSpaceOnUse" id="color-6"><stop offset="0" stop-color="#d80202"/><stop offset="1" stop-color="#9a0202"/></linearGradient><linearGradient x1="275.72026" y1="338.13042" x2="275.72026" y2="360.46376" gradientUnits="userSpaceOnUse" id="color-7"><stop offset="0" stop-color="#d80202"/><stop offset="1" stop-color="#9a0202"/></linearGradient><linearGradient x1="201.00598" y1="259.13041" x2="201.00598" y2="281.46375" gradientUnits="userSpaceOnUse" id="color-8"><stop offset="0" stop-color="#d80202"/><stop offset="1" stop-color="#9a0202"/></linearGradient><linearGradient x1="92.56674" y1="-153.15438" x2="92.56674" y2="230.85632" gradientUnits="userSpaceOnUse" id="color-9"><stop offset="0" stop-color="#1a1a1a"/><stop offset="1" stop-color="#242424"/></linearGradient><linearGradient x1="154.40008" y1="-57.48771" x2="154.40008" y2="82.52299" gradientUnits="userSpaceOnUse" id="color-10"><stop offset="0" stop-color="#1a1a1a"/><stop offset="1" stop-color="#242424"/></linearGradient><linearGradient x1="294.04153" y1="93.30461" x2="294.04153" y2="104.92466" gradientUnits="userSpaceOnUse" id="color-11"><stop offset="0" stop-color="#1a1a1a"/><stop offset="1" stop-color="#242424"/></linearGradient><linearGradient x1="228.06495" y1="230.93824" x2="228.06495" y2="242.55829" gradientUnits="userSpaceOnUse" id="color-12"><stop offset="0" stop-color="#1a1a1a"/><stop offset="1" stop-color="#242424"/></linearGradient><linearGradient x1="423.05715" y1="105.39477" x2="423.05715" y2="338.08676" gradientUnits="userSpaceOnUse" id="color-13"><stop offset="0" stop-color="#1a1a1a"/><stop offset="1" stop-color="#242424"/></linearGradient><linearGradient x1="284.84157" y1="269.763" x2="284.84157" y2="281.38305" gradientUnits="userSpaceOnUse" id="color-14"><stop offset="0" stop-color="#1a1a1a"/><stop offset="1" stop-color="#242424"/></linearGradient><linearGradient x1="352.00824" y1="338.17966" x2="352.00824" y2="349.79971" gradientUnits="userSpaceOnUse" id="color-15"><stop offset="0" stop-color="#1a1a1a"/><stop offset="1" stop-color="#242424"/></linearGradient><linearGradient x1="206.26769" y1="281.50988" x2="206.26769" y2="362.45127" gradientUnits="userSpaceOnUse" id="color-16"><stop offset="0" stop-color="#1a1a1a"/><stop offset="1" stop-color="#242424"/></linearGradient><linearGradient x1="428.22027" y1="338.13042" x2="428.22027" y2="360.46376" gradientUnits="userSpaceOnUse" id="color-17"><stop offset="0" stop-color="#d80202"/><stop offset="1" stop-color="#9a0202"/></linearGradient></defs><g transform="translate(123.52589,154.15438)"><g data-paper-data="{&quot;isPaintingLayer&quot;:true}" fill-rule="nonzero" stroke-linejoin="miter" stroke-miterlimit="10" stroke-dasharray="" stroke-dashoffset="0" style="mix-blend-mode: normal"><path d="M97.88489,104.58891l15.36089,-16.20615" data-paper-data="{&quot;index&quot;:null}" fill="none" stroke="#000000" stroke-width="8" stroke-linecap="round"/><path d="M158.62054,168.13098c0,-19.67514 15.94986,-35.625 35.625,-35.625c19.67514,0 35.625,15.94986 35.625,35.625c0,19.67514 -15.94986,35.625 -35.625,35.625c-19.67514,0 -35.625,-15.94986 -35.625,-35.625z" fill="url(#color-1)" stroke="none" stroke-width="0" stroke-linecap="butt"/><path d="M92.00386,111.77337l21.32417,-23.49862" data-paper-data="{&quot;index&quot;:null}" fill="none" stroke="#363636" stroke-width="4" stroke-linecap="round"/><path d="M149.14457,51.19117l-15.15849,-16.39563" data-paper-data="{&quot;index&quot;:null}" fill="none" stroke="#000000" stroke-width="8" stroke-linecap="round"/><path d="M155.32803,58.27337l-21.32417,-23.49862" data-paper-data="{&quot;index&quot;:null}" fill="none" stroke="#363636" stroke-width="4" stroke-linecap="round"/><path d="M99.44916,-0.96862v361.63214h-222.97505v-361.63213z" data-paper-data="{&quot;index&quot;:null}" fill="#000000" stroke="none" stroke-width="0" stroke-linecap="butt"/><path d="M481.17874,-1.8017v363.36337h-65.06007v-363.36336z" data-paper-data="{&quot;index&quot;:null}" fill="#000000" stroke="none" stroke-width="0" stroke-linecap="butt"/><path d="M381.02557,229.89199v52.51953h-282.23123v-52.51953z" data-paper-data="{&quot;index&quot;:null}" fill="#000000" stroke="none" stroke-width="0" stroke-linecap="butt"/><path d="M418.48128,-2.05699v108.03904h-271v-108.03904z" data-paper-data="{&quot;index&quot;:null}" fill="#000000" stroke="none" stroke-width="0" stroke-linecap="butt"/><path d="M185.72233,231.07137v-58.5h16.71429v58.5z" fill="#000000" stroke="none" stroke-width="0" stroke-linecap="butt"/><path d="M234.69555,184.65472v-9l40.28572,0.5v9z" fill="#000000" stroke="none" stroke-width="0" stroke-linecap="butt"/><path d="M161.93839,207.40471h15.31054l13.56279,-45l45.26775,18.50547" fill="none" stroke="#000000" stroke-width="4" stroke-linecap="round"/><path d="M182.16879,168.50985c0,-6.62742 5.37258,-12 12,-12c6.62742,0 12,5.37258 12,12c0,6.62742 -5.37258,12 -12,12c-6.62742,0 -12,-5.37258 -12,-12z" fill="#000000" stroke="none" stroke-width="0" stroke-linecap="butt"/><path d="M309.48129,230.25384v-76.5h14.5v76.5z" fill="#000000" stroke="none" stroke-width="0" stroke-linecap="butt"/><path d="M347.48129,230.75384v-76.5h14.5v76.5z" fill="#000000" stroke="none" stroke-width="0" stroke-linecap="butt"/><path d="M397.98128,209.25384v-6.5h19v6.5z" fill="#000000" stroke="none" stroke-width="0" stroke-linecap="butt"/><path d="M94.44072,360.68327v-80.07508h118.61862v80.07508z" fill="#000000" stroke="none" stroke-width="0" stroke-linecap="butt"/><path d="M263.6239,361.68327v-24.52853h154.64264v24.52853z" fill="#000000" stroke="none" stroke-width="0" stroke-linecap="butt"/><path d="M380.48128,279.75384v-6h19v6z" fill="#000000" stroke="none" stroke-width="0" stroke-linecap="butt"/><path d="M119.36222,211.48805v-9l43.61905,0.5v9z" fill="#000000" stroke="none" stroke-width="0" stroke-linecap="butt"/><path d="M76.05478,253.33122v-22.33334h22.33334v22.33334z" fill="url(#color-2)" stroke="#000000" stroke-width="2" stroke-linecap="butt"/><path d="M357.72145,253.24233v-22.33334h22.33334v22.33334z" fill="url(#color-3)" stroke="#000000" stroke-width="2" stroke-linecap="butt"/><path d="M357.59645,281.36733v-22.33334h22.33334v22.33334z" fill="url(#color-4)" stroke="#000000" stroke-width="2" stroke-linecap="butt"/><path d="M148.45359,104.93875v-22.33334h22.33334v22.33334z" fill="url(#color-5)" stroke="#000000" stroke-width="2" stroke-linecap="butt"/><path d="M417.0536,105.33875v-22.33334h22.33334v22.33334z" fill="url(#color-6)" stroke="#000000" stroke-width="2" stroke-linecap="butt"/><path d="M264.55359,360.46376v-22.33334h22.33334v22.33334z" fill="url(#color-7)" stroke="#000000" stroke-width="2" stroke-linecap="butt"/><path d="M189.83931,281.46375v-22.33334h22.33334v22.33334z" fill="url(#color-8)" stroke="#000000" stroke-width="2" stroke-linecap="butt"/><path d="M98.37677,230.85632h-11.62005v-384.0107h11.62005z" data-paper-data="{&quot;index&quot;:null}" fill="url(#color-9)" stroke="#000000" stroke-width="2" stroke-linecap="butt"/><path d="M148.59005,-57.48771h11.62005v140.0107h-11.62005z" data-paper-data="{&quot;index&quot;:null}" fill="url(#color-10)" stroke="#000000" stroke-width="2" stroke-linecap="butt"/><path d="M379.98788,258.96743h-11.62005v-5.67737h11.62005z" data-paper-data="{&quot;index&quot;:null}" fill="#0e0e0e" stroke="#000000" stroke-width="2" stroke-linecap="butt"/><path d="M170.99553,104.92466v-11.62005h246.09199v11.62005z" data-paper-data="{&quot;index&quot;:null}" fill="url(#color-11)" stroke="#000000" stroke-width="2" stroke-linecap="butt"/><path d="M357.71094,230.93824v11.62005h-259.29199v-11.62005z" data-paper-data="{&quot;index&quot;:null}" fill="url(#color-12)" stroke="#000000" stroke-width="2" stroke-linecap="butt"/><path d="M417.24712,105.39477h11.62005v232.69199h-11.62005z" data-paper-data="{&quot;index&quot;:null}" fill="url(#color-13)" stroke="#000000" stroke-width="2" stroke-linecap="butt"/><path d="M212.18047,281.38305v-11.62005h145.32219v11.62005z" data-paper-data="{&quot;index&quot;:null}" fill="url(#color-14)" stroke="#000000" stroke-width="2" stroke-linecap="butt"/><path d="M417.086,338.17966v11.62005h-130.15553v-11.62005z" data-paper-data="{&quot;index&quot;:null}" fill="url(#color-15)" stroke="#000000" stroke-width="2" stroke-linecap="butt"/><path d="M399.00604,208.36941v-4.66667h16.83333v4.66667z" fill="#363636" stroke="none" stroke-width="0" stroke-linecap="butt"/><path d="M381.50604,278.70274v-3.83333h16.83333v3.83333z" fill="#363636" stroke="none" stroke-width="0" stroke-linecap="butt"/><path d="M310.71437,158.41108v-3.25h12v3.25z" fill="#0e0e0e" stroke="none" stroke-width="0" stroke-linecap="butt"/><path d="M348.71437,158.91108v-3.25h12v3.25z" fill="#0e0e0e" stroke="none" stroke-width="0" stroke-linecap="butt"/><path d="M312.21437,228.98052v-68.94444h9v68.94444z" fill="#363636" stroke="none" stroke-width="0" stroke-linecap="butt"/><path d="M350.38104,229.31385v-68.94444h9v68.94445z" fill="#363636" stroke="none" stroke-width="0" stroke-linecap="butt"/><path d="M314.90253,159.78608v69.25" fill="none" stroke="#000000" stroke-width="2" stroke-linecap="round"/><path d="M353.13104,229.6333v-68.75" fill="none" stroke="#000000" stroke-width="2" stroke-linecap="round"/><path d="M318.56919,159.78608v69.25" fill="none" stroke="#000000" stroke-width="2" stroke-linecap="round"/><path d="M356.63104,229.8833v-68.75" fill="none" stroke="#000000" stroke-width="2" stroke-linecap="round"/><path d="M189.08333,229.86111v-54.88889h10.66667v54.88889z" fill="#0e0e0e" stroke="none" stroke-width="0" stroke-linecap="butt"/><path d="M184.75,168.625c0,-5.26972 4.27195,-9.54167 9.54167,-9.54167c5.26972,0 9.54167,4.27195 9.54167,9.54167c0,5.26972 -4.27195,9.54167 -9.54167,9.54167c-5.26972,0 -9.54167,-4.27195 -9.54167,-9.54167z" fill="#d80202" stroke="none" stroke-width="0" stroke-linecap="butt"/><path d="M121.16222,209.65056v-5.36251l40.01905,0.69008v5.36251z" fill="#363636" stroke="none" stroke-width="0" stroke-linecap="butt"/><path d="M237.16222,182.69617v-5.00812l35.41905,0.64447v5.00811z" fill="#363636" stroke="none" stroke-width="0" stroke-linecap="butt"/><path d="M212.07771,362.45127h-11.62005v-80.94139h11.62005z" data-paper-data="{&quot;index&quot;:null}" fill="url(#color-16)" stroke="#000000" stroke-width="2" stroke-linecap="butt"/><path d="M417.0536,360.46376v-22.33334h22.33334v22.33334z" fill="url(#color-17)" stroke="#000000" stroke-width="2" stroke-linecap="butt"/></g></g></svg>