<svg version="1.1" xmlns="http://www.w3.org/2000/svg" xmlns:xlink="http://www.w3.org/1999/xlink" width="225.0278" height="208.20469" viewBox="0,0,225.0278,208.20469"><defs><radialGradient cx="350.93032" cy="186.37144" r="26.78665" gradientUnits="userSpaceOnUse" id="color-1"><stop offset="0" stop-color="#091f57"/><stop offset="1" stop-color="#091f57" stop-opacity="0"/></radialGradient><radialGradient cx="302.70762" cy="219.59199" r="23.57111" gradientUnits="userSpaceOnUse" id="color-2"><stop offset="0" stop-color="#091f57"/><stop offset="1" stop-color="#091f57" stop-opacity="0"/></radialGradient><radialGradient cx="316.42067" cy="209.01185" r="23.57111" gradientUnits="userSpaceOnUse" id="color-3"><stop offset="0" stop-color="#091f57"/><stop offset="1" stop-color="#091f57" stop-opacity="0"/></radialGradient><radialGradient cx="331.92686" cy="108.02117" r="22.73193" gradientUnits="userSpaceOnUse" id="color-4"><stop offset="0" stop-color="#091f57"/><stop offset="1" stop-color="#091f57" stop-opacity="0"/></radialGradient><radialGradient cx="335.6467" cy="186.26834" r="22.73192" gradientUnits="userSpaceOnUse" id="color-5"><stop offset="0" stop-color="#091f57"/><stop offset="1" stop-color="#091f57" stop-opacity="0"/></radialGradient><radialGradient cx="325.20839" cy="218.51465" r="22.73193" gradientUnits="userSpaceOnUse" id="color-6"><stop offset="0" stop-color="#091f57"/><stop offset="1" stop-color="#091f57" stop-opacity="0"/></radialGradient><radialGradient cx="348.13842" cy="180.35098" r="22.73192" gradientUnits="userSpaceOnUse" id="color-7"><stop offset="0" stop-color="#091f57"/><stop offset="1" stop-color="#091f57" stop-opacity="0"/></radialGradient><radialGradient cx="342.5473" cy="165.80967" r="22.73192" gradientUnits="userSpaceOnUse" id="color-8"><stop offset="0" stop-color="#091f57"/><stop offset="1" stop-color="#091f57" stop-opacity="0"/></radialGradient><radialGradient cx="345.20215" cy="157.60072" r="22.73191" gradientUnits="userSpaceOnUse" id="color-9"><stop offset="0" stop-color="#091f57"/><stop offset="1" stop-color="#091f57" stop-opacity="0"/></radialGradient><radialGradient cx="348.25356" cy="141.9162" r="22.73193" gradientUnits="userSpaceOnUse" id="color-10"><stop offset="0" stop-color="#091f57"/><stop offset="1" stop-color="#091f57" stop-opacity="0"/></radialGradient><radialGradient cx="337.63652" cy="203.06178" r="22.73193" gradientUnits="userSpaceOnUse" id="color-11"><stop offset="0" stop-color="#091f57"/><stop offset="1" stop-color="#091f57" stop-opacity="0"/></radialGradient><radialGradient cx="352.94774" cy="159.50437" r="22.73192" gradientUnits="userSpaceOnUse" id="color-12"><stop offset="0" stop-color="#091f57"/><stop offset="1" stop-color="#091f57" stop-opacity="0"/></radialGradient><radialGradient cx="296.48151" cy="231.13398" r="22.73193" gradientUnits="userSpaceOnUse" id="color-13"><stop offset="0" stop-color="#091f57"/><stop offset="1" stop-color="#091f57" stop-opacity="0"/></radialGradient><radialGradient cx="309.72188" cy="227.01991" r="22.73193" gradientUnits="userSpaceOnUse" id="color-14"><stop offset="0" stop-color="#091f57"/><stop offset="1" stop-color="#091f57" stop-opacity="0"/></radialGradient><radialGradient cx="273.64322" cy="232.90453" r="22.73193" gradientUnits="userSpaceOnUse" id="color-15"><stop offset="0" stop-color="#091f57"/><stop offset="1" stop-color="#091f57" stop-opacity="0"/></radialGradient><radialGradient cx="286.76956" cy="228.88772" r="22.73192" gradientUnits="userSpaceOnUse" id="color-16"><stop offset="0" stop-color="#091f57"/><stop offset="1" stop-color="#091f57" stop-opacity="0"/></radialGradient><radialGradient cx="343.19969" cy="136.76375" r="22.73194" gradientUnits="userSpaceOnUse" id="color-17"><stop offset="0" stop-color="#091f57"/><stop offset="1" stop-color="#091f57" stop-opacity="0"/></radialGradient><radialGradient cx="339.05419" cy="118.43785" r="22.73192" gradientUnits="userSpaceOnUse" id="color-18"><stop offset="0" stop-color="#091f57"/><stop offset="1" stop-color="#091f57" stop-opacity="0"/></radialGradient><radialGradient cx="319.80555" cy="97.20907" r="22.73193" gradientUnits="userSpaceOnUse" id="color-19"><stop offset="0" stop-color="#091f57"/><stop offset="1" stop-color="#091f57" stop-opacity="0"/></radialGradient><radialGradient cx="341.37153" cy="110.04148" r="22.73193" gradientUnits="userSpaceOnUse" id="color-20"><stop offset="0" stop-color="#091f57"/><stop offset="1" stop-color="#091f57" stop-opacity="0"/></radialGradient><radialGradient cx="347.85494" cy="122.50958" r="22.73193" gradientUnits="userSpaceOnUse" id="color-21"><stop offset="0" stop-color="#091f57"/><stop offset="1" stop-color="#091f57" stop-opacity="0"/></radialGradient><radialGradient cx="332.94932" cy="210.82725" r="23.57111" gradientUnits="userSpaceOnUse" id="color-22"><stop offset="0" stop-color="#091f57"/><stop offset="1" stop-color="#091f57" stop-opacity="0"/></radialGradient><radialGradient cx="325.31378" cy="86.14732" r="26.78665" gradientUnits="userSpaceOnUse" id="color-23"><stop offset="0" stop-color="#091f57"/><stop offset="1" stop-color="#091f57" stop-opacity="0"/></radialGradient><radialGradient cx="268.14965" cy="78.67406" r="23.57111" gradientUnits="userSpaceOnUse" id="color-24"><stop offset="0" stop-color="#091f57"/><stop offset="1" stop-color="#091f57" stop-opacity="0"/></radialGradient><radialGradient cx="185.6014" cy="95.73428" r="23.57111" gradientUnits="userSpaceOnUse" id="color-25"><stop offset="0" stop-color="#091f57"/><stop offset="1" stop-color="#091f57" stop-opacity="0"/></radialGradient><radialGradient cx="288.80706" cy="69.20733" r="22.73193" gradientUnits="userSpaceOnUse" id="color-26"><stop offset="0" stop-color="#091f57"/><stop offset="1" stop-color="#091f57" stop-opacity="0"/></radialGradient><radialGradient cx="306.41363" cy="77.32236" r="22.73193" gradientUnits="userSpaceOnUse" id="color-27"><stop offset="0" stop-color="#091f57"/><stop offset="1" stop-color="#091f57" stop-opacity="0"/></radialGradient><radialGradient cx="257.74422" cy="71.19537" r="22.73193" gradientUnits="userSpaceOnUse" id="color-28"><stop offset="0" stop-color="#091f57"/><stop offset="1" stop-color="#091f57" stop-opacity="0"/></radialGradient><radialGradient cx="271.3513" cy="68.75028" r="22.73193" gradientUnits="userSpaceOnUse" id="color-29"><stop offset="0" stop-color="#091f57"/><stop offset="1" stop-color="#091f57" stop-opacity="0"/></radialGradient><radialGradient cx="236.49457" cy="80.19605" r="22.73193" gradientUnits="userSpaceOnUse" id="color-30"><stop offset="0" stop-color="#091f57"/><stop offset="1" stop-color="#091f57" stop-opacity="0"/></radialGradient><radialGradient cx="240.6805" cy="68.4383" r="22.73192" gradientUnits="userSpaceOnUse" id="color-31"><stop offset="0" stop-color="#091f57"/><stop offset="1" stop-color="#091f57" stop-opacity="0"/></radialGradient><radialGradient cx="301.74882" cy="79.94427" r="23.57111" gradientUnits="userSpaceOnUse" id="color-32"><stop offset="0" stop-color="#091f57"/><stop offset="1" stop-color="#091f57" stop-opacity="0"/></radialGradient><radialGradient cx="177.57395" cy="120.83244" r="22.73194" gradientUnits="userSpaceOnUse" id="color-33"><stop offset="0" stop-color="#091f57"/><stop offset="1" stop-color="#091f57" stop-opacity="0"/></radialGradient><radialGradient cx="204.64457" cy="95.56662" r="23.57111" gradientUnits="userSpaceOnUse" id="color-34"><stop offset="0" stop-color="#091f57"/><stop offset="1" stop-color="#091f57" stop-opacity="0"/></radialGradient><radialGradient cx="189.53255" cy="105.82195" r="23.57111" gradientUnits="userSpaceOnUse" id="color-35"><stop offset="0" stop-color="#091f57"/><stop offset="1" stop-color="#091f57" stop-opacity="0"/></radialGradient><radialGradient cx="176.0103" cy="141.14055" r="22.73192" gradientUnits="userSpaceOnUse" id="color-36"><stop offset="0" stop-color="#091f57"/><stop offset="1" stop-color="#091f57" stop-opacity="0"/></radialGradient><radialGradient cx="179.06869" cy="107.48207" r="22.73193" gradientUnits="userSpaceOnUse" id="color-37"><stop offset="0" stop-color="#091f57"/><stop offset="1" stop-color="#091f57" stop-opacity="0"/></radialGradient><radialGradient cx="179.15168" cy="128.76315" r="22.73193" gradientUnits="userSpaceOnUse" id="color-38"><stop offset="0" stop-color="#091f57"/><stop offset="1" stop-color="#091f57" stop-opacity="0"/></radialGradient><radialGradient cx="208.514" cy="83.03627" r="22.73193" gradientUnits="userSpaceOnUse" id="color-39"><stop offset="0" stop-color="#091f57"/><stop offset="1" stop-color="#091f57" stop-opacity="0"/></radialGradient><radialGradient cx="196.32291" cy="84.07317" r="22.73193" gradientUnits="userSpaceOnUse" id="color-40"><stop offset="0" stop-color="#091f57"/><stop offset="1" stop-color="#091f57" stop-opacity="0"/></radialGradient><radialGradient cx="230.57527" cy="76.87004" r="22.73193" gradientUnits="userSpaceOnUse" id="color-41"><stop offset="0" stop-color="#091f57"/><stop offset="1" stop-color="#091f57" stop-opacity="0"/></radialGradient><radialGradient cx="218.47718" cy="83.35633" r="22.73192" gradientUnits="userSpaceOnUse" id="color-42"><stop offset="0" stop-color="#091f57"/><stop offset="1" stop-color="#091f57" stop-opacity="0"/></radialGradient><radialGradient cx="215.6453" cy="76.62859" r="23.57111" gradientUnits="userSpaceOnUse" id="color-43"><stop offset="0" stop-color="#091f57"/><stop offset="1" stop-color="#091f57" stop-opacity="0"/></radialGradient><radialGradient cx="179.53044" cy="112.0525" r="6.9241" gradientUnits="userSpaceOnUse" id="color-44"><stop offset="0" stop-color="#1048db"/><stop offset="1" stop-color="#1048db" stop-opacity="0"/></radialGradient></defs><g transform="translate(-151.82521,-45.945)"><g data-paper-data="{&quot;isPaintingLayer&quot;:true}" fill-rule="nonzero" stroke-linejoin="miter" stroke-miterlimit="10" stroke-dasharray="" stroke-dashoffset="0" style="mix-blend-mode: normal"><g><g stroke="none" stroke-linecap="butt"><path d="M344.25181,159.87493c10.66135,-7.11034 20.43314,-1.30574 24.12158,13.32786c3.68844,14.63357 -1.96426,32.26051 -12.62561,39.37083c-10.66135,7.11034 -20.43314,1.30574 -24.12157,-13.32784c-3.68844,-14.63357 1.96425,-32.26052 12.62561,-39.37085z" fill="url(#color-1)" stroke-width="NaN"/><path d="M323.71518,208.18288c7.26319,11.76284 3.74576,24.15281 -7.85638,30.45389c-11.60212,6.30108 -26.89548,1.8734 -34.15866,-9.88945c-7.26319,-11.76284 -3.74577,-24.15281 7.85636,-30.45388c11.60212,-6.30108 26.89549,-1.87341 34.15867,9.88945z" fill="url(#color-2)" stroke-width="NaN"/><path d="M337.42823,197.60274c7.26319,11.76284 3.74576,24.1528 -7.85638,30.45388c-11.60212,6.30108 -26.89548,1.8734 -34.15866,-9.88944c-7.26319,-11.76284 -3.74577,-24.15281 7.85636,-30.45388c11.60212,-6.30108 26.89549,-1.87341 34.15867,9.88945z" fill="url(#color-3)" stroke-width="NaN"/><g data-paper-data="{&quot;index&quot;:null}"><path d="M353.50852,99.40407c5.23617,11.10157 -0.18152,23.95918 -12.10075,28.71825c-11.91922,4.75908 -25.82641,-0.38252 -31.06258,-11.48408c-5.23617,-11.10157 0.18152,-23.95919 12.10073,-28.71826c11.91922,-4.75908 25.82642,0.38252 31.06259,11.48409z" fill="url(#color-4)" stroke-width="NaN"/><g><path d="M357.22839,177.65123c5.67379,12.02939 0.61088,25.63916 -11.30835,30.39826c-11.91922,4.75908 -26.18117,-1.13467 -31.85496,-13.1641c-5.67379,-12.02939 -0.61088,-25.63916 11.30834,-30.39826c11.91922,-4.75908 26.18118,1.13467 31.85497,13.16409z" fill="url(#color-5)" stroke-width="NaN"/><path d="M346.79007,209.89756c5.67379,12.02939 0.61088,23.45429 -11.30835,28.21337c-11.91922,4.75908 -26.18117,-1.13467 -31.85497,-13.1641c-5.67379,-12.02939 -0.61088,-23.45428 11.30834,-28.21336c11.91922,-4.75908 26.18118,1.13467 31.85498,13.16409z" fill="url(#color-6)" stroke-width="NaN"/><path d="M353.66811,157.98044c12.84261,3.83559 20.77792,16.96061 17.72395,29.31551c-3.05396,12.35491 -15.94067,19.26118 -28.7833,15.42558c-12.84261,-3.83559 -20.77791,-16.96062 -17.72395,-29.31552c3.05396,-12.35491 15.94069,-19.26118 28.78331,-15.42558z" fill="url(#color-7)" stroke-width="NaN"/><path d="M348.07699,143.43913c12.84261,3.83559 20.77791,16.96061 17.72396,29.31552c-3.05396,12.35491 -15.94069,19.26116 -28.78332,15.42556c-12.84261,-3.83559 -20.77791,-16.96061 -17.72395,-29.31551c3.05396,-12.35491 15.9407,-19.26118 28.78331,-15.42558z" fill="url(#color-8)" stroke-width="NaN"/><path d="M344.44698,134.19203c13.19416,0.465 24.22827,11.32236 24.64538,24.2506c0.41712,12.92824 -9.9407,23.03169 -23.13484,22.56671c-13.19416,-0.465 -24.22828,-11.32235 -24.64539,-24.25059c-0.41712,-12.92824 9.94072,-23.0317 23.13486,-22.56671z" fill="url(#color-9)" stroke-width="NaN"/><path d="M347.49828,118.50756c13.19416,0.465 24.22828,11.32237 24.64539,24.25059c0.41712,12.92824 -9.94072,23.03168 -23.13486,22.56669c-13.19416,-0.465 -24.22827,-11.32236 -24.64538,-24.25057c-0.41712,-12.92824 9.94072,-23.03169 23.13486,-22.56671z" fill="url(#color-10)" stroke-width="NaN"/><path d="M350.28209,184.06658c11.20195,7.56965 14.62131,22.21052 7.63733,32.70127c-6.98397,10.49076 -21.72657,10.67388 -32.92852,3.10423c-11.20195,-7.56965 -14.62131,-20.02562 -7.63734,-30.51636c6.98397,-10.49076 21.72658,-12.85878 32.92853,-5.28914z" fill="url(#color-11)" stroke-width="NaN"/><path d="M365.59332,140.50918c11.20195,7.56965 14.62131,22.21052 7.63734,32.70125c-6.98397,10.49076 -21.72657,12.85877 -32.92854,5.28913c-11.20195,-7.56965 -14.62131,-22.21051 -7.63734,-32.70125c6.98397,-10.49076 21.72659,-12.85878 32.92854,-5.28914z" fill="url(#color-12)" stroke-width="NaN"/><path d="M316.74107,220.07343c7.00461,11.40352 3.61241,23.41503 -7.57667,29.52362c-11.18906,6.1086 -25.93795,1.81616 -32.94256,-9.58736c-7.00461,-11.40352 -3.61242,-23.41502 7.57665,-29.5236c11.18906,-6.1086 25.93797,-1.81618 32.94257,9.58735z" fill="url(#color-13)" stroke-width="NaN"/><path d="M329.98153,215.95931c7.00461,11.40352 3.61241,23.41503 -7.57667,29.52362c-11.18906,6.1086 -25.93795,1.81617 -32.94255,-9.58735c-7.00461,-11.40352 -3.61242,-23.41503 7.57665,-29.52361c11.18906,-6.1086 25.93796,-1.81618 32.94256,9.58736z" fill="url(#color-14)" stroke-width="NaN"/><path d="M295.22486,222.10255c5.67379,12.02939 0.61088,25.63918 -11.30835,30.39827c-11.91922,4.75908 -26.18116,-1.13469 -31.85496,-13.1641c-5.67379,-12.02939 -0.61088,-23.45428 11.30833,-28.21336c11.91922,-4.75908 26.18118,-1.05023 31.85498,10.9792z" fill="url(#color-15)" stroke-width="NaN"/><path d="M308.35126,220.27063c5.67379,12.02939 0.61088,23.45428 -11.30835,28.21336c-11.91922,4.75908 -26.18116,-1.13467 -31.85496,-13.16409c-5.67379,-12.02939 -0.61088,-23.45429 11.30834,-28.21336c11.91922,-4.75908 26.18118,1.13466 31.85498,13.16409z" fill="url(#color-16)" stroke-width="NaN"/><path d="M364.78136,128.14667c5.67379,12.0294 0.61088,25.63918 -11.30834,30.39829c-11.91922,4.75908 -26.18118,-1.13466 -31.85497,-13.1641c-5.67379,-12.0294 -0.6109,-25.63917 11.30833,-30.39827c11.91922,-4.75908 26.18119,1.13466 31.85499,13.16409z" fill="url(#color-17)" stroke-width="NaN"/><path d="M360.63584,109.82076c5.67379,12.02939 0.61088,25.63916 -11.30834,30.39826c-11.91922,4.75908 -26.18117,-1.13467 -31.85496,-13.16409c-5.67379,-12.02939 -0.61088,-25.63918 11.30833,-30.39826c11.91922,-4.75908 26.18118,1.13467 31.85497,13.16409z" fill="url(#color-18)" stroke-width="NaN"/></g><path d="M341.38716,88.59201c5.23617,11.10157 -0.18151,23.95917 -12.10074,28.71826c-11.91922,4.75908 -25.8264,-0.38253 -31.06257,-11.48409c-5.23617,-11.10157 0.18151,-23.95917 12.10073,-28.71826c3.63722,-1.45225 7.45958,-1.98258 11.16417,-1.70291c8.43535,0.6368 16.26011,5.47315 19.89842,13.18701z" fill="url(#color-19)" stroke-width="NaN"/><path d="M362.95317,101.42437c5.67379,12.02939 0.61088,25.63917 -11.30835,30.39826c-11.91922,4.75908 -26.18117,-1.13469 -31.85496,-13.1641c-5.67379,-12.02939 -0.61088,-25.63918 11.30834,-30.39826c11.91922,-4.75908 26.18118,1.13469 31.85497,13.16409z" fill="url(#color-20)" stroke-width="NaN"/><path d="M369.43654,113.89253c5.23617,11.10157 -0.18151,23.95917 -12.10074,28.71826c-11.91922,4.75908 -25.82641,-0.38253 -31.06258,-11.4841c-5.23617,-11.10157 0.18151,-23.95917 12.10073,-28.71825c11.91922,-4.75908 25.82642,0.38252 31.06259,11.48409z" fill="url(#color-21)" stroke-width="NaN"/></g><path d="M353.9569,199.41814c7.26319,11.76284 3.74576,24.15281 -7.85638,30.45389c-11.60212,6.30108 -26.89548,1.8734 -34.15866,-9.88945c-7.26319,-11.76284 -3.74577,-24.15281 7.85636,-30.45388c11.60212,-6.30108 26.89549,-1.87341 34.15867,9.88945z" fill="url(#color-22)" stroke-width="NaN"/></g><g stroke="none" stroke-linecap="butt"><path d="M330.36642,113.04103c-12.54048,-1.44183 -24.96871,-14.65139 -27.75918,-29.50434c-2.79049,-14.85296 3.56476,-24.59759 16.10523,-23.15574c12.54047,1.44184 24.96871,14.65138 27.75918,29.50433c2.79049,14.85298 -3.56476,24.59761 -16.10524,23.15577z" data-paper-data="{&quot;index&quot;:null}" fill="url(#color-23)" stroke-width="NaN"/><path d="M291.77496,79.17881c-1.61729,13.93246 -13.50576,25.00099 -26.55364,24.72221c-13.04788,-0.27877 -21.37426,-9.77515 -19.75697,-23.7076c1.61729,-13.93245 13.50576,-25.00099 26.55364,-24.72221c13.0479,0.27877 21.37428,9.77515 19.75699,23.70761z" data-paper-data="{&quot;index&quot;:null}" fill="url(#color-24)" stroke-width="NaN"/><path d="M209.22671,96.23902c-1.61729,13.93246 -13.50576,25.00099 -26.55364,24.72221c-13.04788,-0.27877 -21.37426,-9.77515 -19.75697,-23.7076c1.61729,-13.93245 13.50576,-25.00098 26.55364,-24.7222c13.0479,0.27877 21.37428,9.77514 19.75699,23.7076z" data-paper-data="{&quot;index&quot;:null}" fill="url(#color-25)" stroke-width="NaN"/><path d="M288.6646,93.5332c-12.68956,1.25315 -22.00147,-6.65979 -21.92279,-20.09459c0.07868,-13.43482 10.42938,-25.34176 23.11895,-26.5949c12.68956,-1.25316 22.00148,6.65979 21.9228,20.09459c-0.07868,13.43482 -10.42939,25.34174 -23.11896,26.59489z" data-paper-data="{&quot;index&quot;:null}" fill="url(#color-26)" stroke-width="NaN"/><path d="M293.91363,99.03769c-10.64764,-6.18314 -12.77157,-18.95559 -5.86803,-30.94863c6.90354,-11.99304 20.22035,-18.66518 30.86799,-12.48204c10.64764,6.18313 13.68282,20.91786 6.77927,32.9109c-6.90355,11.99303 -21.13159,16.7029 -31.77923,10.51976z" data-paper-data="{&quot;index&quot;:null}" fill="url(#color-27)" stroke-width="NaN"/><path d="M280.55239,71.73393c-1.53491,13.48983 -12.99082,24.18441 -25.58744,23.88696c-12.59663,-0.29745 -20.65271,-9.51199 -19.11778,-23.00183c1.53493,-13.48983 12.9908,-24.18441 25.58743,-23.88696c12.59665,0.29745 20.65273,9.512 19.1178,23.00184z" data-paper-data="{&quot;index&quot;:null}" fill="url(#color-28)" stroke-width="NaN"/><path d="M294.15956,69.28884c-1.53491,13.48983 -12.9908,24.18441 -25.58743,23.88695c-12.59663,-0.29745 -20.65271,-9.512 -19.11778,-23.00184c1.53492,-13.48982 12.9908,-24.1844 25.58742,-23.88695c12.59665,0.29745 20.65273,9.512 19.1178,23.00184z" data-paper-data="{&quot;index&quot;:null}" fill="url(#color-29)" stroke-width="NaN"/><path d="M260.38227,79.88929c-0.07868,13.43482 -11.34062,23.37947 -24.03019,24.63263c-12.68955,1.25315 -22.00146,-6.65979 -21.92278,-20.09459c0.07868,-13.43482 10.42937,-25.34174 23.11894,-26.59489c12.68958,-1.25314 22.91272,8.62207 22.83404,22.05687z" data-paper-data="{&quot;index&quot;:null}" fill="url(#color-30)" stroke-width="NaN"/><path d="M263.65703,66.16926c-0.07868,13.43482 -10.42939,25.34174 -23.11896,26.59489c-12.68955,1.25316 -22.00147,-6.65979 -21.92278,-20.09459c0.07869,-13.4348 10.42937,-25.34173 23.11894,-26.59488c12.68956,-1.25316 22.00148,6.65978 21.9228,20.09458z" data-paper-data="{&quot;index&quot;:null}" fill="url(#color-31)" stroke-width="NaN"/><path d="M325.37413,80.44901c-1.61729,13.93246 -13.50576,25.00099 -26.55364,24.72221c-13.04788,-0.27877 -21.37426,-9.77515 -19.75697,-23.7076c1.61729,-13.93245 13.50576,-25.00098 26.55364,-24.7222c13.0479,0.27877 21.37428,9.77515 19.75699,23.7076z" data-paper-data="{&quot;index&quot;:null}" fill="url(#color-32)" stroke-width="NaN"/></g><path d="M255.8851,175.77155l5.8278,1.5129" fill="none" stroke="#000000" stroke-width="2" stroke-linecap="round"/></g><path d="M158.07327,133.4715c-7.89907,-10.7006 -5.14805,-22.89049 5.62189,-29.87085c10.76993,-6.98036 25.90413,-3.96449 33.80321,6.73614c7.89907,10.7006 5.14804,22.89048 -5.62188,29.87084c-10.76993,6.98036 -25.90414,3.96449 -33.80322,-6.73613z" fill="url(#color-33)" stroke="none" stroke-width="NaN" stroke-linecap="butt"/><g stroke="none" stroke-linecap="butt"><path d="M186.24858,110.83335c-9.40659,-10.13086 -8.35888,-22.96776 1.80092,-31.39934c10.15979,-8.43157 26.02149,-7.05398 35.42807,3.07689c9.40659,10.13086 8.35889,22.96776 -1.80091,31.39932c-10.15979,8.43157 -26.02149,7.05399 -35.42808,-3.07689z" fill="url(#color-34)" stroke-width="NaN"/><path d="M171.13656,121.08868c-9.40659,-10.13086 -8.35888,-22.96775 1.80093,-31.39933c10.15979,-8.43157 26.02149,-7.05398 35.42807,3.07688c9.40659,10.13086 8.35889,22.96776 -1.80091,31.39932c-10.15979,8.43157 -26.02149,7.05399 -35.42808,-3.07689z" fill="url(#color-35)" stroke-width="NaN"/><path d="M156.5096,153.77964c-7.89906,-10.7006 -5.57179,-25.03388 5.19815,-32.01425c10.76993,-6.98036 25.90413,-3.96449 33.8032,6.73615c4.9029,6.6418 5.86599,14.68313 3.3158,21.49701c-1.55842,4.16396 -4.42885,7.86954 -8.51394,10.51724c-10.76993,6.98036 -25.90414,3.96449 -33.80321,-6.73613z" fill="url(#color-36)" stroke-width="NaN"/><path d="M159.568,120.12114c-7.89906,-10.7006 -5.14805,-22.89049 5.62189,-29.87085c10.76993,-6.98036 25.90413,-3.96449 33.80322,6.73614c7.89906,10.7006 5.14805,22.89048 -5.62188,29.87083c-10.76993,6.98036 -25.90414,3.96449 -33.80322,-6.73613z" fill="url(#color-37)" stroke-width="NaN"/><path d="M170.43017,149.85018c-12.45733,-5.2534 -18.65125,-18.95312 -13.83447,-30.59917c4.81677,-11.64606 19.24393,-14.6849 31.70126,-9.43151c12.45733,5.2534 18.2275,16.80971 13.41073,28.45575c-4.81677,11.64606 -18.8202,16.82832 -31.27753,11.57493z" fill="url(#color-38)" stroke-width="NaN"/><path d="M190.78421,97.81599c-9.08323,-9.82852 -8.08497,-22.26985 1.70695,-30.4325c9.7919,-8.16264 25.09324,-6.81213 34.17647,3.01639c9.08323,9.82852 8.08498,22.26984 -1.70693,30.43247c-9.7919,8.16264 -25.09326,6.81216 -34.17648,-3.01637z" fill="url(#color-39)" stroke-width="NaN"/><path d="M178.59305,98.85296c-9.08323,-9.82852 -8.08497,-22.26985 1.70695,-30.43249c9.7919,-8.16264 25.09324,-6.81214 34.17645,3.01638c9.08323,9.82852 8.08498,22.26985 -1.70693,30.43248c-9.7919,8.16264 -25.09324,6.81216 -34.17647,-3.01639z" fill="url(#color-40)" stroke-width="NaN"/><path d="M211.49835,91.6525c-7.89906,-10.7006 -5.57179,-25.03389 5.19815,-32.01426c10.76993,-6.98036 25.90412,-3.96448 33.8032,6.73615c7.89906,10.7006 5.14805,22.89047 -5.62187,29.87083c-10.76993,6.98036 -25.4804,6.10792 -33.37948,-4.59272z" fill="url(#color-41)" stroke-width="NaN"/><path d="M198.97648,95.9954c-7.89906,-10.7006 -5.14805,-22.89047 5.62189,-29.87083c10.76993,-6.98036 25.90412,-3.9645 33.8032,6.73613c7.89906,10.7006 5.14805,22.89049 -5.62188,29.87083c-10.76993,6.98036 -25.90414,3.96451 -33.80322,-6.73613z" fill="url(#color-42)" stroke-width="NaN"/><path d="M197.2493,91.89533c-9.40659,-10.13086 -8.35888,-22.96776 1.80092,-31.39934c10.15979,-8.43157 26.02149,-7.05398 35.42807,3.07689c9.40659,10.13086 8.35889,22.96776 -1.80091,31.39932c-10.15979,8.43157 -26.02149,7.05399 -35.42808,-3.07689z" fill="url(#color-43)" stroke-width="NaN"/></g><g stroke="#000000"><path d="M220.73853,159.57435c0,0 -1.10058,-4.58584 -0.54273,-7.27494c0.37642,-1.81459 0.43361,-4.74694 3.67475,-5.78209c2.02188,-0.64574 4.6026,-1.97686 4.6026,-1.97686c0,0 27.06218,2.94222 34.04456,4.65976c3.12176,0.7679 4.28966,2.68626 4.28966,2.68626c0,0 2.14444,6.02447 2.08506,8.44492c-0.06296,2.56642 -2.79089,6.51072 -2.79089,6.51072z" fill="#090909" stroke-width="2" stroke-linecap="butt"/><path d="M233.66638,202.30434c0,0 7.42933,-7.89435 9.64837,-14.16655c1.50509,-4.25424 2.15757,-8.88379 3.49981,-15.92288c1.36772,-7.17275 3.41109,-16.71637 3.41109,-16.71637c0,0 2.14048,5.98596 3.86416,7.09157c2.65344,1.70193 10.22744,5.1761 10.22744,5.1761c0,0 -6.2603,16.96187 -7.19955,23.16423c-1.20345,7.94713 0.57293,20.59505 0.57293,20.59505c0,0 -5.29846,-5.68957 -7.88491,-6.29479c-2.27737,-0.53291 -6.82484,2.8527 -6.82484,2.8527c0,0 -4.29164,6.79756 -8.56149,8.96181c-5.51568,2.79571 -11.53607,1.04139 -13.87033,0.12459c-11.66823,-4.58278 -5.98595,-26.748 -8.21668,-27.6042c-1.12599,-0.43219 7.84125,8.34699 13.98322,10.80519c6.16757,2.46847 7.35082,1.93356 7.35082,1.93356z" fill="#090909" stroke-width="2" stroke-linecap="butt"/><path d="M204.51006,225.00842c0,0 -11.98444,-5.96058 -15.48787,-10.43205c-3.91569,-4.99763 -6.90734,-18.15118 -6.90734,-18.15118c0,0 6.82835,1.67719 11.20923,4.84553c4.81958,3.48561 7.49078,8.51565 13.70506,9.06992c6.19058,0.55214 19.26009,-13.18397 19.8926,-14.75128c1.49302,-3.69964 6.99096,-41.70497 8.6507,-45.06814c2.61902,-5.307 24.79366,-2.12011 27.20943,2.40156c2.02862,3.79699 -10.72958,26.18547 -13.1072,35.72479c-3.30581,13.26331 -2.85109,26.45827 -5.9548,29.24438c-0.60165,0.54008 -4.00447,9.83165 -8.96628,10.01046c-3.6598,0.13189 -8.67954,0.78395 -12.53627,0.64749c-9.4399,-0.33402 -17.70727,-3.54145 -17.70727,-3.54145z" fill="#333333" stroke-width="2" stroke-linecap="butt"/><path d="M260.0952,144.33169c-0.4129,2.36348 1.14294,7.21208 -0.23737,8.26987c-1.60873,1.23286 -5.34726,1.10864 -8.32932,1.39959c-3.88735,0.37927 -7.25422,0.92554 -10.74119,0.61355c-8.92116,-0.79818 -9.21312,-6.28517 -8.3267,-15.74013c0.25489,-2.71887 2.93576,-12.6342 3.22369,-13.20163c4.03048,-7.94335 11.12783,-13.61447 17.05989,-13.08374c8.03783,0.71915 12.31757,10.80669 11.40281,19.66988c-0.10054,0.97406 -3.96828,11.5947 -4.05176,12.0726z" fill="#0e0e0e" stroke-width="2" stroke-linecap="butt"/><path d="M227.57062,156.52201c0,0 -2.8039,-4.12147 -1.57771,-5.59705c1.41824,-1.7067 3.60681,-1.93749 6.44645,-1.68847c2.83964,0.24902 5.9682,2.69993 13.84504,3.46789c5.53473,0.5396 10.18689,0.65667 12.69187,0.12601c0.16491,-0.03494 3.39695,0.95443 4.04745,2.22156c0.80256,1.56339 -1.28937,5.85088 -1.28937,5.85088c0,0 -5.72655,1.18077 -12.00263,1.48484c-3.24113,0.15705 -7.76759,0.85577 -10.29095,0.4828c-6.72101,-0.99345 -11.87012,-6.34846 -11.87012,-6.34846z" fill="#091f57" stroke-width="2" stroke-linecap="butt"/><path d="M203.9646,224.18317c0,0 -11.69817,-5.91828 -15.10907,-10.37611c-1.39334,-1.821 -5.90533,-9.60749 -3.64077,-8.94744c3.93141,1.14588 16.82744,12.42781 19.53872,14.42803c4.70093,3.4681 5.12773,-0.78895 11.20177,-0.25547c6.05087,0.53146 13.50879,1.30377 14.13228,-0.26492c0.14748,-0.37108 7.10801,-3.73601 7.5274,-4.84773c2.41185,-6.39312 6.0558,-38.478 10.41487,-46.70104c2.4466,-4.61529 7.77683,-0.73504 7.77683,-0.73504c0,0 -4.75418,13.28367 -7.10971,22.82646c-3.27508,13.26812 -3.32943,24.83541 -6.37299,27.63049c-0.59001,0.54184 -3.94712,9.84034 -8.79895,10.03547c-3.5787,0.1439 -8.48869,0.81224 -12.25908,0.68858c-9.22852,-0.30268 -17.30132,-3.48131 -17.30132,-3.48131z" fill="#091f57" stroke-width="2" stroke-linecap="butt"/><path d="M210.97665,205.04111c0,0 5.95065,-7.61235 7.81343,-13.58033c1.26346,-4.04789 1.87199,-8.43147 3.06954,-15.10418c1.2203,-6.7994 3.01785,-15.85115 3.01785,-15.85115c0,0 1.53419,5.60298 2.85068,6.60894c2.02665,1.54855 11.43941,2.2478 11.43941,2.2478c0,0 -8.83691,18.55972 -9.70279,24.43394c-1.10945,7.52668 -0.0038,19.42515 -0.0038,19.42515c0,0 -3.99691,-5.25452 -5.99536,-5.76946c-1.75968,-0.4534 -5.37048,2.84089 -5.37048,2.84089c0,0 -3.48627,6.50894 -6.85451,8.64445c-4.351,2.75862 -9.45526,-2.68073 -11.25077,-3.49521c-8.97531,-4.07132 -3.61211,-21.19992 -5.32843,-21.95946c-0.86634,-0.3834 5.91664,7.70727 10.64009,9.89369c4.74316,2.19553 5.67511,1.66496 5.67511,1.66496z" fill="#090909" stroke-width="2" stroke-linecap="butt"/><path d="M219.78463,163.74929c0,0 1.03885,-4.65234 2.26353,-6.39112c1.41649,-2.01109 3.9076,-3.56299 3.9076,-3.56299c0,0 5.31636,1.37936 9.76194,3.65591c3.1557,1.61601 6.80875,2.8544 10.00057,3.16992c3.92589,0.38809 11.17485,1.57165 14.63884,0.13647c2.40592,-0.99679 0.46212,5.63872 0.46212,5.63872c0,0 -15.28902,3.95265 -22.51468,2.80366c-2.24291,-0.35665 -4.27943,-2.94563 -7.20884,-2.53488c-1.93305,0.27105 -4.81121,3.76946 -6.4134,3.23701c-3.06491,-1.01853 -4.89761,-6.15267 -4.89761,-6.15267z" fill="#1a1a1a" stroke-width="2" stroke-linecap="butt"/><path d="M257.56949,146.82239c0,0 -1.90308,2.04575 -2.54311,2.0452c-0.86257,-0.00073 -4.58198,-0.89068 -5.46371,-0.90488c-0.74622,-0.01206 -3.34112,-1.13281 -3.34112,-1.13281c0,0 -1.32392,0.75931 -1.91099,0.75171c-0.76457,-0.0099 -2.28626,-0.80603 -2.28626,-0.80603c0,0 -0.71535,-2.09338 -0.61344,-3.19939c-0.45149,-1.16996 -0.02283,-3.80771 -0.50167,-4.39343c-2.91502,-0.72011 -4.37504,-2.26264 -3.91224,-7.25627c0.34722,-3.74667 2.62207,-6.6892 4.26389,-9.15568c2.57752,-3.87204 5.38121,-6.24056 10.38095,-6.17929c3.57629,0.04384 5.03474,4.02335 7.30623,6.17603c2.92693,2.77387 6.12633,4.34299 5.62387,9.76424c0,0 -0.85192,6.25438 -4.22635,6.65844c-1.13525,1.48458 -1.22823,2.65943 -1.81853,4.25213z" fill="#333333" stroke-width="2" stroke-linecap="butt"/><path d="M236.84099,129.64342c0,0 0.29992,-4.06719 1.48964,-4.62318c1.70379,-0.79618 5.54654,-4.14162 8.10563,-4.7577c4.50408,-1.08431 7.54919,0.80942 5.96119,0.77012c-1.14697,-0.02838 0.10567,12.64313 -1.66965,14.19671c-1.50274,1.31506 -1.30778,3.71067 -1.66724,5.06217c-0.35253,1.32544 0.27613,6.14473 -0.95628,7.61063c-0.37447,0.4454 -4.27986,0.44515 -5.39949,-0.70289c-0.76654,-0.78597 -1.69884,-1.82099 -1.98819,-3.07458c-0.36381,-1.57602 -0.32164,-3.71524 -0.72089,-3.64957c-1.50959,0.24835 -1.56998,-2.60767 -2.42688,-3.2441c-1.00728,-0.74812 -0.19769,-7.52645 -0.19769,-7.52645z" fill="#141414" stroke-width="2" stroke-linecap="butt"/><path d="M242.88733,128.19844c0.09495,-2.19841 1.84068,-3.90933 3.89919,-3.82146c2.05853,0.08788 3.65028,1.94129 3.55534,4.1397c-0.09495,2.19841 -1.84066,3.90933 -3.89919,3.82144c-2.05853,-0.08788 -3.65031,-1.94131 -3.55536,-4.1397z" fill="#1048db" stroke-width="2" stroke-linecap="butt"/><path d="M254.44286,130.92054c0.09522,-1.74276 1.32445,-3.12159 2.74554,-3.07971c1.42111,0.04189 2.49596,1.48861 2.40074,3.23137c-0.09522,1.74275 -1.32444,3.12157 -2.74554,3.07968c-1.42111,-0.04189 -2.49595,-1.4886 -2.40074,-3.23134z" fill="#101010" stroke-width="2" stroke-linecap="butt"/><path d="M238.12875,123.09261c0,0 6.46502,-4.27132 8.99226,-5.13007c2.49608,-0.84818 6.07893,0.00886 6.07893,0.00886" fill="none" stroke-width="2" stroke-linecap="round"/><path d="M236.16846,129.64232c0.31272,-0.81136 1.53534,-8.46709 2.78662,-10.08482c1.78048,-2.30191 4.03483,-3.9516 4.03483,-3.9516c0,0 5.67511,-3.49328 9.5468,-2.61639c3.87171,0.87687 8.19209,5.22077 8.19209,5.22077c0,0 1.94687,1.63025 3.16969,4.31666c0.47591,1.0455 0.68375,3.64184 0.86143,4.28363c0.56071,2.02505 -1.18203,6.4322 -1.18203,6.4322c0,0 -2.56617,-4.66519 -4.99083,-8.33948c-2.30439,-3.49207 -3.36261,-1.53445 -6.26618,-2.25528c-2.90357,-0.72082 -5.44186,0.04751 -8.5623,1.26302c-2.3409,0.91187 -4.58058,2.03385 -6.07416,3.08675c-1.10833,0.78129 -1.51336,-0.83024 -1.33052,-1.30463z" fill="#0b0b0b" stroke-width="2" stroke-linecap="butt"/><path d="M249.40002,178.87445l-5.86075,0.92463" fill="none" stroke-width="2" stroke-linecap="round"/><path d="M243.05631,187.69269l6.43909,-1.74533" fill="none" stroke-width="2" stroke-linecap="round"/><path d="M241.69337,194.26267l6.41231,-1.45674" fill="none" stroke-width="2" stroke-linecap="round"/><path d="M241.29962,201.2114l5.14055,-1.28083" fill="none" stroke-width="2" stroke-linecap="round"/><path d="M238.90489,207.87866l7.18606,-1.67771" fill="none" stroke-width="2" stroke-linecap="round"/><path d="M186.63047,204.84101l5.38208,13.57392c0,0 -8.48487,-5.03468 -12.00695,-10.98542c-4.38088,-7.40174 -5.96411,-18.63883 -6.49364,-20.67271c-0.49289,-1.89318 0.80298,-6.84461 2.10624,-7.82353c3.28681,-2.46883 9.67796,1.88653 10.03674,8.58605c0.16275,3.03874 2.00099,2.60433 3.83562,3.75671c2.55234,1.60318 5.29805,4.1178 5.29805,4.1178c0,0 5.51989,5.19095 3.67856,5.04268c-1.04832,-0.08441 -2.73868,0.06989 -3.69652,1.07994c-0.83438,0.87988 -1.01218,2.62882 -1.01218,2.62882c0,0 -4.05919,-4.05717 -5.52647,-4.26464c-1.02552,-0.14502 -1.60154,4.96034 -1.60154,4.96034z" fill="#101010" stroke-width="2" stroke-linecap="butt"/><path d="M178.22255,174.19749c0.96611,-9.19155 29.13981,-9.77801 29.13981,-9.77801c0,0 -21.96633,16.80745 -20.2118,24.24413c0.80271,3.40227 -5.34465,2.69448 -8.20419,-1.93011c-0.76761,-1.24144 -2.67903,-3.2792 -2.77637,-5.07988c-0.15563,-2.8787 1.86386,-5.66103 2.05255,-7.45614z" fill="#091f57" stroke-width="2" stroke-linecap="butt"/><path d="M190.77989,173.50882c7.00467,-1.22104 9.25978,-2.75367 9.25978,-2.75367c0,0 -13.5756,9.56772 -11.82108,17.00438c0.80271,3.40227 -6.3884,3.8345 -9.24791,-0.79009c-1.99479,-3.22607 4.50191,-12.18683 11.80922,-13.46061z" fill="#090d19" stroke-width="2" stroke-linecap="butt"/><path d="M217.8214,177.41668c0,0 2.78241,-12.97565 3.31589,-17.13745c0.39351,-3.06983 -0.4052,-5.56989 -0.4052,-5.56989l4.38017,-0.30201c0,0 4.35317,9.36874 4.02834,12.86908c-0.38945,4.19666 -4.27883,11.47589 -4.27883,11.47589z" fill="#090909" stroke-width="0" stroke-linecap="butt"/><path d="M226.22141,154.44035c0,0 2.81159,5.61486 3.40944,8.29993c0.58328,2.61972 0.45634,4.15619 0.45634,4.15619" fill="none" stroke-width="2" stroke-linecap="round"/><path d="M233.45347,179.18365c0,0 -14.58449,8.88749 -19.57727,11.18751c-0.28065,0.12929 -1.5353,-1.44823 -1.55913,-2.64425c-0.03482,-1.74676 1.22485,-3.4252 0.97998,-3.94458c-0.69966,-1.48409 14.8375,-10.90038 14.8375,-10.90038c0,0 3.2805,-2.38672 5.12273,-1.31015c1.20463,0.70396 1.89718,3.09611 3.76175,2.92546c2.20563,-0.20186 12.74703,-1.59649 15.22654,-2.05027c7.44625,-1.36277 6.98802,-2.37658 8.43452,-2.24567c0.06908,0.00626 0.43085,-7.50358 2.03145,-12.31882c0.95112,-2.86131 1.76728,-4.54922 2.1375,-4.49782c0.42615,0.05917 3.61168,5.00736 3.85385,8.55287c0.13549,1.98331 -1.02405,3.18502 -1.03448,4.28506c-0.02684,2.8277 -2.53803,5.13105 -2.738,5.52925c-0.95556,1.90273 -7.4938,5.33426 -7.4938,5.33426c0,0 -5.3892,1.48678 -8.77733,1.78311c-4.35902,0.38124 -15.20581,0.31441 -15.20581,0.31441z" fill="#180f05" stroke-width="2" stroke-linecap="butt"/><path d="M234.4567,174.23016c0,0 -18.40484,10.24762 -20.42629,10.82813c-4.81466,1.38263 1.36885,-5.29233 0.97396,-6.16573c-0.66978,-1.48137 14.34408,-10.94506 14.34408,-10.94506c0,0 3.17133,-2.39661 4.94426,-1.32631c1.15931,0.69986 1.81922,3.08905 3.61781,2.91243c2.12759,-0.20894 12.29742,-1.63717 14.68995,-2.09885c7.18502,-1.38643 6.74651,-2.39844 8.14095,-2.27225c0.0666,0.00603 0.44032,-7.50274 1.99975,-12.32169c0.92665,-2.86353 1.71928,-4.55356 2.07612,-4.50336c0.41074,0.05778 3.46619,4.9942 3.68799,8.53784c0.12406,1.98229 -0.99803,3.18738 -1.01176,4.28712c-0.03525,2.82694 -2.46444,5.1377 -2.65861,5.53644c-0.92774,1.90525 -7.24403,5.35686 -7.24403,5.35686c0,0 -5.20179,1.50374 -8.47,1.81092c-4.20472,0.3952 -14.66421,0.36343 -14.66421,0.36343z" fill="#180f05" stroke-width="2" stroke-linecap="butt"/></g><path d="" fill="none" stroke="#000000" stroke-width="2" stroke-linecap="round"/><path d="M257.26711,180.6693l5.76122,1.41836" fill="none" stroke="#000000" stroke-width="2" stroke-linecap="round"/><g data-paper-data="{&quot;index&quot;:null}" stroke="#000000" stroke-linecap="butt"><path d="M226.98369,124.98895c0,0 -6.51332,-6.23996 -8.56698,-11.2618c-1.53877,-3.76271 -2.66257,-16.19739 -2.66257,-16.19739l5.245,-2.14496c0,0 4.73327,1.67358 6.36265,5.49169c3.10686,7.28023 10.90953,34.98197 10.90953,34.98197z" fill="#091f57" stroke-width="2.5"/><path d="M229.01628,75.79871c1.07304,2.09751 -4.16421,-1.36881 -6.80862,-0.58275c-1.8594,0.55274 -17.52666,4.15498 -25.05517,13.2233c-14.52379,17.49449 -20.92359,54.38693 -20.92359,54.38693c0,0 -2.59708,-18.69397 -3.11459,-21.43785c-1.10678,-5.86822 -2.90158,-15.81695 -2.90158,-15.81695l14.80985,-14.86906l3.78503,-11.98562c0,0 12.43272,-5.20213 16.40278,-7.86373c3.97006,-2.66157 8.20685,-8.63476 8.20685,-8.63476c0,0 8.56078,5.28906 9.72177,7.16712c0.68598,1.10966 5.03305,4.76334 5.87719,6.41339z" fill="#0b0b0b" stroke-width="2.5"/><path d="M232.94913,86.64242c-0.4793,2.53932 -2.35622,-4.77918 -4.99437,-3.97777c-1.85498,0.56351 -16.17247,3.06339 -23.82802,11.8209c-5.83673,6.67687 -17.14106,20.8742 -17.14106,20.8742l-10.84102,28.58141l3.35052,-30.72851l12.07769,-13.97081c0,0 -12.94468,5.2393 -10.86236,3.16969c7.59488,-7.54845 25.5449,-25.22891 28.35431,-26.53404c1.2641,-0.58725 5.85241,-2.07358 10.42418,-1.82859c4.48559,0.24039 8.96258,2.19827 9.51282,3.06788c0.65646,1.03749 2.3924,1.82872 3.19417,3.37524c1.01918,1.96593 1.02131,4.72911 0.75305,6.1504z" fill="#091f57" stroke-width="2"/><path d="M265.88684,187.26171c0,0 -2.32961,0.95272 -3.34118,1.3664c-0.93669,0.38305 -3.31993,-1.45132 -3.31993,-1.45132c0,0 -13.86579,-32.5015 -25.30518,-59.45872c-2.90903,-6.8552 -6.69527,-12.35797 -9.02739,-17.88229c-0.14964,-0.35459 0.47697,-2.47449 0.92354,-4.70439c0.37264,-1.86085 0.58158,-3.89198 0.47001,-4.15593c-1.57804,-3.73369 -4.84909,-1.97353 -5.67183,-3.98534c-0.29169,-0.71325 2.43334,-1.44704 2.43334,-1.44704l-4.58541,-7.51398l5.86204,-2.39731c0,0 5.26689,6.0101 7.68425,11.92124c1.08028,2.64149 0.22673,14.82034 0.22673,14.82034c0,0 4.45033,4.48637 5.66768,7.403c4.34268,10.40453 27.98329,67.48529 27.98329,67.48529z" fill="#333333" stroke-width="2"/><path d="M237.86558,112.88913c4.56472,16.59721 20.28419,50.20932 22.2682,57.38349c1.49905,5.42054 -2.51562,0.39002 -2.51562,0.39002c0,0 -23.43843,-57.38667 -24.14031,-58.34724c-0.33667,-0.46074 -0.75821,-2.53074 -0.75821,-2.53074c0,0 0.75378,-9.51315 -0.79057,-13.28963c-0.95758,-2.34152 -3.31503,-5.68504 -4.92489,-8.06302c-0.92152,-1.3612 -6.45975,1.70423 -6.45975,1.70423l3.62632,4.97674c0,0 -3.68318,1.81831 -7.09568,2.59311c-2.85241,0.64766 -6.49752,-0.15708 -6.77335,-0.37645c-0.36339,-0.28899 -5.75994,-2.49099 -4.04577,-5.44359c0.60171,-1.0364 4.2548,-4.74539 8.06809,-7.4601c3.82956,-2.7263 7.81813,-4.45602 7.81813,-4.45602l8.30434,3.5184c0,0 0.72532,3.58543 2.6324,7.00655c2.23597,4.01105 5.76422,8.09415 6.68958,10.35685c1.3537,3.31022 0.14109,5.77641 0.14109,5.77641c0,0 -3.67689,0.3236 -2.04395,6.26097z" fill="#0b0b0b" stroke-width="2"/><path d="M183.54767,111.24093c0.80139,1.95955 -0.13753,4.19772 -2.09708,4.99909c-1.95955,0.80134 -4.19773,-0.13753 -4.9991,-2.09708c-0.80139,-1.95955 0.13752,-4.19775 2.09707,-4.99912c1.95954,-0.80137 4.19773,0.13753 4.9991,2.09709z" fill="#1449cd" stroke-width="2"/><g stroke-width="0"><path d="M182.60152,111.00529c0.66936,1.86719 -0.22036,3.88067 -1.98724,4.49723c-1.76692,0.61654 -3.74184,-0.39731 -4.41124,-2.26455c-0.66937,-1.86723 0.22033,-3.88072 1.9872,-4.49724c1.76689,-0.61654 3.74188,0.39731 4.41124,2.26454z" fill="#1048db"/><path d="M186.06798,109.77125c1.36785,3.8156 -0.4502,7.93013 -4.06079,9.19001c-3.61056,1.25988 -7.6464,-0.81197 -9.01426,-4.6276c-1.36786,-3.81563 0.4502,-7.93013 4.06079,-9.19001c3.61059,-1.2599 7.6464,0.8119 9.01426,4.62752z" fill="url(#color-44)"/></g><path d="M262.77851,176.25435c0,0 -1.34304,0.43749 -3.17553,0.4683c-1.43861,0.02419 -6.92653,-0.29847 -6.92653,-0.29847c0,0 -1.14625,-1.09932 -1.44855,-1.83849c-0.21068,-0.51511 -0.19173,-2.1724 -0.19173,-2.1724c0,0 4.2701,1.09419 6.10825,1.06332c1.42002,-0.02389 3.99382,-1.23315 3.99382,-1.23315c0,0 1.36309,1.28879 1.631,1.94395c0.27844,0.68089 0.00928,2.06699 0.00928,2.06699z" fill="#180f05" stroke-width="2"/><path d="M264.26449,180.32827c0,0 -1.34304,0.43751 -3.17553,0.46834c-1.43861,0.02419 -6.92653,-0.29847 -6.92653,-0.29847c0,0 -1.14625,-1.09932 -1.44855,-1.8385c-0.21068,-0.51511 -0.19173,-2.1724 -0.19173,-2.1724c0,0 4.2701,1.09419 6.10826,1.06332c1.42003,-0.02388 3.99381,-1.23315 3.99381,-1.23315c0,0 1.36309,1.28879 1.631,1.94395c0.27844,0.68089 0.00928,2.06699 0.00928,2.06699z" fill="#180f05" stroke-width="2"/><path d="M266.24138,183.84138c0,0 -1.34303,0.43751 -3.17552,0.46834c-1.43861,0.02419 -6.92653,-0.29847 -6.92653,-0.29847c0,0 -1.14625,-1.09932 -1.44855,-1.8385c-0.21068,-0.51511 -0.19173,-2.17239 -0.19173,-2.17239c0,0 4.2701,1.09419 6.10826,1.06331c1.42003,-0.02388 3.99381,-1.23315 3.99381,-1.23315c0,0 1.36309,1.28879 1.631,1.94395c0.27844,0.68089 0.00928,2.06699 0.00928,2.06699z" fill="#180f05" stroke-width="2"/><path d="M221.44912,74.64345c0,0 -9.47369,1.93844 -13.84423,4.26775c-4.34209,2.31411 -12.29429,9.66288 -12.29429,9.66288c0,0 -2.26784,-0.62453 -2.73664,-1.68496c-0.49186,-1.11262 -0.14865,-4.84188 -0.14865,-4.84188c0,0 12.3047,-4.72548 15.62071,-7.57036c2.60891,-2.23826 6.88285,-5.73804 6.88285,-5.73804l6.5202,5.90464z" fill="#1a1a1a" stroke-width="2"/></g></g></g></svg>