<svg version="1.1" xmlns="http://www.w3.org/2000/svg" xmlns:xlink="http://www.w3.org/1999/xlink" width="247.07504" height="12.70088" viewBox="0,0,247.07504,12.70088"><defs><linearGradient x1="396.10807" y1="253.13063" x2="396.10807" y2="257.62696" gradientUnits="userSpaceOnUse" id="color-1"><stop offset="0" stop-color="#c1c1c1"/><stop offset="1" stop-color="#1a1a1a"/></linearGradient><linearGradient x1="393.64344" y1="251.18113" x2="398.64247" y2="251.18113" gradientUnits="userSpaceOnUse" id="color-2"><stop offset="0" stop-color="#c1c1c1"/><stop offset="1" stop-color="#191919"/></linearGradient><linearGradient x1="371.10807" y1="253.13062" x2="371.10807" y2="257.62695" gradientUnits="userSpaceOnUse" id="color-3"><stop offset="0" stop-color="#c1c1c1"/><stop offset="1" stop-color="#1a1a1a"/></linearGradient><linearGradient x1="368.64344" y1="251.18113" x2="373.64246" y2="251.18113" gradientUnits="userSpaceOnUse" id="color-4"><stop offset="0" stop-color="#c1c1c1"/><stop offset="1" stop-color="#191919"/></linearGradient><linearGradient x1="377.20153" y1="253.13062" x2="377.20153" y2="257.62695" gradientUnits="userSpaceOnUse" id="color-5"><stop offset="0" stop-color="#c1c1c1"/><stop offset="1" stop-color="#1a1a1a"/></linearGradient><linearGradient x1="374.7369" y1="251.18113" x2="379.73593" y2="251.18113" gradientUnits="userSpaceOnUse" id="color-6"><stop offset="0" stop-color="#c1c1c1"/><stop offset="1" stop-color="#191919"/></linearGradient><linearGradient x1="389.48877" y1="253.13062" x2="389.48877" y2="257.62695" gradientUnits="userSpaceOnUse" id="color-7"><stop offset="0" stop-color="#c1c1c1"/><stop offset="1" stop-color="#1a1a1a"/></linearGradient><linearGradient x1="387.02416" y1="251.18113" x2="392.02317" y2="251.18113" gradientUnits="userSpaceOnUse" id="color-8"><stop offset="0" stop-color="#c1c1c1"/><stop offset="1" stop-color="#191919"/></linearGradient><linearGradient x1="383.39533" y1="253.13062" x2="383.39533" y2="257.62695" gradientUnits="userSpaceOnUse" id="color-9"><stop offset="0" stop-color="#c1c1c1"/><stop offset="1" stop-color="#1a1a1a"/></linearGradient><linearGradient x1="380.9307" y1="251.18113" x2="385.92972" y2="251.18113" gradientUnits="userSpaceOnUse" id="color-10"><stop offset="0" stop-color="#c1c1c1"/><stop offset="1" stop-color="#191919"/></linearGradient><linearGradient x1="352.44141" y1="253.13063" x2="352.4414" y2="257.62696" gradientUnits="userSpaceOnUse" id="color-11"><stop offset="0" stop-color="#c1c1c1"/><stop offset="1" stop-color="#1a1a1a"/></linearGradient><linearGradient x1="349.97678" y1="251.18113" x2="354.9758" y2="251.18113" gradientUnits="userSpaceOnUse" id="color-12"><stop offset="0" stop-color="#c1c1c1"/><stop offset="1" stop-color="#191919"/></linearGradient><linearGradient x1="358.53487" y1="253.13063" x2="358.53487" y2="257.62696" gradientUnits="userSpaceOnUse" id="color-13"><stop offset="0" stop-color="#c1c1c1"/><stop offset="1" stop-color="#1a1a1a"/></linearGradient><linearGradient x1="356.07024" y1="251.18113" x2="361.06926" y2="251.18113" gradientUnits="userSpaceOnUse" id="color-14"><stop offset="0" stop-color="#c1c1c1"/><stop offset="1" stop-color="#191919"/></linearGradient><linearGradient x1="364.72865" y1="253.13063" x2="364.72865" y2="257.62696" gradientUnits="userSpaceOnUse" id="color-15"><stop offset="0" stop-color="#c1c1c1"/><stop offset="1" stop-color="#1a1a1a"/></linearGradient><linearGradient x1="362.26403" y1="251.18113" x2="367.26304" y2="251.18113" gradientUnits="userSpaceOnUse" id="color-16"><stop offset="0" stop-color="#c1c1c1"/><stop offset="1" stop-color="#191919"/></linearGradient><linearGradient x1="173.60807" y1="252.63062" x2="173.60807" y2="257.12695" gradientUnits="userSpaceOnUse" id="color-17"><stop offset="0" stop-color="#c1c1c1"/><stop offset="1" stop-color="#1a1a1a"/></linearGradient><linearGradient x1="171.14344" y1="250.68113" x2="176.14246" y2="250.68113" gradientUnits="userSpaceOnUse" id="color-18"><stop offset="0" stop-color="#c1c1c1"/><stop offset="1" stop-color="#191919"/></linearGradient><linearGradient x1="179.70153" y1="252.63062" x2="179.70153" y2="257.12695" gradientUnits="userSpaceOnUse" id="color-19"><stop offset="0" stop-color="#c1c1c1"/><stop offset="1" stop-color="#1a1a1a"/></linearGradient><linearGradient x1="177.2369" y1="250.68113" x2="182.23593" y2="250.68113" gradientUnits="userSpaceOnUse" id="color-20"><stop offset="0" stop-color="#c1c1c1"/><stop offset="1" stop-color="#191919"/></linearGradient><linearGradient x1="191.98877" y1="252.63062" x2="191.98877" y2="257.12695" gradientUnits="userSpaceOnUse" id="color-21"><stop offset="0" stop-color="#c1c1c1"/><stop offset="1" stop-color="#1a1a1a"/></linearGradient><linearGradient x1="189.52416" y1="250.68113" x2="194.52317" y2="250.68113" gradientUnits="userSpaceOnUse" id="color-22"><stop offset="0" stop-color="#c1c1c1"/><stop offset="1" stop-color="#191919"/></linearGradient><linearGradient x1="185.89533" y1="252.63062" x2="185.89533" y2="257.12695" gradientUnits="userSpaceOnUse" id="color-23"><stop offset="0" stop-color="#c1c1c1"/><stop offset="1" stop-color="#1a1a1a"/></linearGradient><linearGradient x1="183.4307" y1="250.68113" x2="188.42972" y2="250.68113" gradientUnits="userSpaceOnUse" id="color-24"><stop offset="0" stop-color="#c1c1c1"/><stop offset="1" stop-color="#191919"/></linearGradient><linearGradient x1="154.94141" y1="252.63063" x2="154.9414" y2="257.12696" gradientUnits="userSpaceOnUse" id="color-25"><stop offset="0" stop-color="#c1c1c1"/><stop offset="1" stop-color="#1a1a1a"/></linearGradient><linearGradient x1="152.47678" y1="250.68113" x2="157.4758" y2="250.68113" gradientUnits="userSpaceOnUse" id="color-26"><stop offset="0" stop-color="#c1c1c1"/><stop offset="1" stop-color="#191919"/></linearGradient><linearGradient x1="161.03487" y1="252.63063" x2="161.03487" y2="257.12696" gradientUnits="userSpaceOnUse" id="color-27"><stop offset="0" stop-color="#c1c1c1"/><stop offset="1" stop-color="#1a1a1a"/></linearGradient><linearGradient x1="158.57024" y1="250.68113" x2="163.56926" y2="250.68113" gradientUnits="userSpaceOnUse" id="color-28"><stop offset="0" stop-color="#c1c1c1"/><stop offset="1" stop-color="#191919"/></linearGradient><linearGradient x1="167.22865" y1="252.63063" x2="167.22865" y2="257.12696" gradientUnits="userSpaceOnUse" id="color-29"><stop offset="0" stop-color="#c1c1c1"/><stop offset="1" stop-color="#1a1a1a"/></linearGradient><linearGradient x1="164.76403" y1="250.68113" x2="169.76304" y2="250.68113" gradientUnits="userSpaceOnUse" id="color-30"><stop offset="0" stop-color="#c1c1c1"/><stop offset="1" stop-color="#191919"/></linearGradient><linearGradient x1="198.44141" y1="253.13063" x2="198.4414" y2="257.62696" gradientUnits="userSpaceOnUse" id="color-31"><stop offset="0" stop-color="#c1c1c1"/><stop offset="1" stop-color="#1a1a1a"/></linearGradient><linearGradient x1="195.97678" y1="250.68113" x2="200.9758" y2="250.68113" gradientUnits="userSpaceOnUse" id="color-32"><stop offset="0" stop-color="#c1c1c1"/><stop offset="1" stop-color="#191919"/></linearGradient><linearGradient x1="204.53487" y1="252.63063" x2="204.53487" y2="257.12696" gradientUnits="userSpaceOnUse" id="color-33"><stop offset="0" stop-color="#c1c1c1"/><stop offset="1" stop-color="#1a1a1a"/></linearGradient><linearGradient x1="202.07024" y1="250.68113" x2="207.06926" y2="250.68113" gradientUnits="userSpaceOnUse" id="color-34"><stop offset="0" stop-color="#c1c1c1"/><stop offset="1" stop-color="#191919"/></linearGradient><linearGradient x1="211.28487" y1="252.63063" x2="211.28487" y2="257.12696" gradientUnits="userSpaceOnUse" id="color-35"><stop offset="0" stop-color="#c1c1c1"/><stop offset="1" stop-color="#1a1a1a"/></linearGradient><linearGradient x1="208.82024" y1="250.93113" x2="213.81926" y2="250.93113" gradientUnits="userSpaceOnUse" id="color-36"><stop offset="0" stop-color="#c1c1c1"/><stop offset="1" stop-color="#191919"/></linearGradient></defs><g transform="translate(-152.01589,-245.30108)"><g data-paper-data="{&quot;isPaintingLayer&quot;:true}" fill-rule="nonzero" stroke="#000000" stroke-width="0.75" stroke-linejoin="miter" stroke-miterlimit="10" stroke-dasharray="" stroke-dashoffset="0" style="mix-blend-mode: normal"><path d="M395.18768,257.62696v-4.49633h1.8408v4.49633z" fill="url(#color-1)" stroke-linecap="butt"/><path d="M393.64345,254.45575l2.67766,-7.47227l2.32136,7.47227c0,0 -1.65829,0.92305 -2.46172,0.92305c-0.85916,0 -2.5373,-0.92305 -2.5373,-0.92305z" fill="url(#color-2)" stroke-linecap="round"/><path d="M370.18767,257.62695v-4.49633h1.8408v4.49633z" fill="url(#color-3)" stroke-linecap="butt"/><path d="M368.64344,254.45574l2.67766,-7.47227l2.32136,7.47227c0,0 -1.65829,0.92305 -2.46172,0.92305c-0.85916,0 -2.5373,-0.92305 -2.5373,-0.92305z" fill="url(#color-4)" stroke-linecap="round"/><path d="M376.28114,257.62695v-4.49633h1.8408v4.49633z" fill="url(#color-5)" stroke-linecap="butt"/><path d="M374.7369,254.45574l2.67766,-7.47227l2.32136,7.47227c0,0 -1.65828,0.92305 -2.46172,0.92305c-0.85916,0 -2.5373,-0.92305 -2.5373,-0.92305z" fill="url(#color-6)" stroke-linecap="round"/><path d="M388.56838,257.62695v-4.49633h1.8408v4.49633z" fill="url(#color-7)" stroke-linecap="butt"/><path d="M387.02416,254.45574l2.67766,-7.47227l2.32136,7.47227c0,0 -1.65829,0.92305 -2.46172,0.92305c-0.85916,0 -2.5373,-0.92305 -2.5373,-0.92305z" fill="url(#color-8)" stroke-linecap="round"/><path d="M382.47492,257.62695v-4.49633h1.8408v4.49633z" fill="url(#color-9)" stroke-linecap="butt"/><path d="M380.9307,254.45574l2.67766,-7.47227l2.32136,7.47227c0,0 -1.65829,0.92305 -2.46172,0.92305c-0.85916,0 -2.5373,-0.92305 -2.5373,-0.92305z" fill="url(#color-10)" stroke-linecap="round"/><path d="M351.521,257.62696v-4.49633h1.8408v4.49633z" fill="url(#color-11)" stroke-linecap="butt"/><path d="M349.97677,254.45575l2.67766,-7.47227l2.32136,7.47227c0,0 -1.65829,0.92305 -2.46172,0.92305c-0.85916,0 -2.5373,-0.92305 -2.5373,-0.92305z" fill="url(#color-12)" stroke-linecap="round"/><path d="M357.61447,257.62696v-4.49633h1.8408v4.49633z" fill="url(#color-13)" stroke-linecap="butt"/><path d="M356.07024,254.45575l2.67766,-7.47227l2.32136,7.47227c0,0 -1.65828,0.92305 -2.46172,0.92305c-0.85916,0 -2.5373,-0.92305 -2.5373,-0.92305z" fill="url(#color-14)" stroke-linecap="round"/><path d="M363.80826,257.62696v-4.49633h1.8408v4.49633z" fill="url(#color-15)" stroke-linecap="butt"/><path d="M362.26403,254.45575l2.67766,-7.47227l2.32136,7.47227c0,0 -1.65829,0.92305 -2.46172,0.92305c-0.85916,0 -2.5373,-0.92305 -2.5373,-0.92305z" fill="url(#color-16)" stroke-linecap="round"/><path d="M172.68767,257.12695v-4.49633h1.8408v4.49633z" fill="url(#color-17)" stroke-linecap="butt"/><path d="M171.14344,253.95574l2.67766,-7.47227l2.32136,7.47227c0,0 -1.65829,0.92305 -2.46172,0.92305c-0.85916,0 -2.5373,-0.92305 -2.5373,-0.92305z" fill="url(#color-18)" stroke-linecap="round"/><path d="M178.78114,257.12695v-4.49633h1.8408v4.49633z" fill="url(#color-19)" stroke-linecap="butt"/><path d="M177.2369,253.95574l2.67766,-7.47227l2.32136,7.47227c0,0 -1.65828,0.92305 -2.46172,0.92305c-0.85916,0 -2.5373,-0.92305 -2.5373,-0.92305z" fill="url(#color-20)" stroke-linecap="round"/><path d="M191.06838,257.12695v-4.49633h1.8408v4.49633z" fill="url(#color-21)" stroke-linecap="butt"/><path d="M189.52416,253.95574l2.67766,-7.47227l2.32136,7.47227c0,0 -1.65829,0.92305 -2.46172,0.92305c-0.85916,0 -2.5373,-0.92305 -2.5373,-0.92305z" fill="url(#color-22)" stroke-linecap="round"/><path d="M184.97492,257.12695v-4.49633h1.8408v4.49633z" fill="url(#color-23)" stroke-linecap="butt"/><path d="M183.4307,253.95574l2.67766,-7.47227l2.32136,7.47227c0,0 -1.65829,0.92305 -2.46172,0.92305c-0.85916,0 -2.5373,-0.92305 -2.5373,-0.92305z" fill="url(#color-24)" stroke-linecap="round"/><path d="M154.021,257.12696v-4.49633h1.8408v4.49633z" fill="url(#color-25)" stroke-linecap="butt"/><path d="M152.47677,253.95575l2.67766,-7.47227l2.32136,7.47227c0,0 -1.65829,0.92305 -2.46172,0.92305c-0.85916,0 -2.5373,-0.92305 -2.5373,-0.92305z" fill="url(#color-26)" stroke-linecap="round"/><path d="M160.11447,257.12696v-4.49633h1.8408v4.49633z" fill="url(#color-27)" stroke-linecap="butt"/><path d="M158.57024,253.95575l2.67766,-7.47227l2.32136,7.47227c0,0 -1.65828,0.92305 -2.46172,0.92305c-0.85916,0 -2.5373,-0.92305 -2.5373,-0.92305z" fill="url(#color-28)" stroke-linecap="round"/><path d="M166.30826,257.12696v-4.49633h1.8408v4.49633z" fill="url(#color-29)" stroke-linecap="butt"/><path d="M164.76403,253.95575l2.67766,-7.47227l2.32136,7.47227c0,0 -1.65829,0.92305 -2.46172,0.92305c-0.85916,0 -2.5373,-0.92305 -2.5373,-0.92305z" fill="url(#color-30)" stroke-linecap="round"/><path d="M197.521,257.62696v-4.49633h1.8408v4.49633z" fill="url(#color-31)" stroke-linecap="butt"/><path d="M195.97677,253.95575l2.67766,-7.47227l2.32136,7.47227c0,0 -1.65829,0.92305 -2.46172,0.92305c-0.85916,0 -2.5373,-0.92305 -2.5373,-0.92305z" fill="url(#color-32)" stroke-linecap="round"/><path d="M203.61447,257.12696v-4.49633h1.8408v4.49633z" fill="url(#color-33)" stroke-linecap="butt"/><path d="M202.07024,253.95575l2.67766,-7.47227l2.32136,7.47227c0,0 -1.65828,0.92305 -2.46172,0.92305c-0.85916,0 -2.5373,-0.92305 -2.5373,-0.92305z" fill="url(#color-34)" stroke-linecap="round"/><path d="M210.36447,257.12696v-4.49633h1.8408v4.49633z" fill="url(#color-35)" stroke-linecap="butt"/><path d="M208.82024,254.20575l2.67766,-7.47227l2.32136,7.47227c0,0 -1.65828,0.92305 -2.46172,0.92305c-0.85916,0 -2.5373,-0.92305 -2.5373,-0.92305z" fill="url(#color-36)" stroke-linecap="round"/></g></g></svg>