<svg version="1.1" xmlns="http://www.w3.org/2000/svg" xmlns:xlink="http://www.w3.org/1999/xlink" width="142.92465" height="136.69581" viewBox="0,0,142.92465,136.69581"><defs><radialGradient cx="302.21273" cy="207.81402" r="6.9241" gradientUnits="userSpaceOnUse" id="color-1"><stop offset="0" stop-color="#1048db"/><stop offset="1" stop-color="#1048db" stop-opacity="0"/></radialGradient></defs><g transform="translate(-171.72603,-115.56057)"><g data-paper-data="{&quot;isPaintingLayer&quot;:true}" fill-rule="nonzero" stroke="#000000" stroke-linejoin="miter" stroke-miterlimit="10" stroke-dasharray="" stroke-dashoffset="0" style="mix-blend-mode: normal"><path d="" fill="none" stroke-width="2" stroke-linecap="round"/><path d="M222.74396,160.30745c0,0 -0.64175,-4.6722 0.17927,-7.29296c0.55402,-1.76848 0.90086,-4.6808 4.22847,-5.39039c2.07582,-0.44266 4.77551,-1.51207 4.77551,-1.51207c0,0 26.63864,5.60369 33.41697,8.00323c3.03053,1.07281 4.00302,3.09725 4.00302,3.09725c0,0 1.53823,6.20699 1.23982,8.60971c-0.31643,2.54762 -3.42099,6.20285 -3.42099,6.20285z" fill="#090909" stroke-width="2" stroke-linecap="butt"/><path d="M227.87356,202.18306c0,0 9.32454,-5.5289 13.19335,-10.94156c2.62406,-3.67124 4.53278,-7.93918 7.77138,-14.33151c3.30008,-6.51371 7.90582,-15.11856 7.90582,-15.11856c0,0 0.39954,6.34459 1.74975,7.88418c2.07852,2.37004 8.39462,7.80532 8.39462,7.80532c0,0 -10.71161,14.56562 -13.33133,20.26551c-3.35663,7.3033 -5.15137,19.94862 -5.15137,19.94862c0,0 -3.51615,-6.93409 -5.83393,-8.23174c-2.04082,-1.14259 -7.34786,0.85168 -7.34786,0.85168c0,0 -6.00585,5.34367 -10.70798,6.24118c-6.07409,1.15936 -11.37345,-2.19317 -13.36264,-3.7204c-9.94335,-7.63409 1.65342,-27.35971 -0.25306,-28.80003c-0.96233,-0.72705 5.2238,10.19162 10.44512,14.25419c5.24307,4.07951 6.52815,3.89312 6.52815,3.89312z" fill="#090909" stroke-width="2" stroke-linecap="butt"/><path d="M198.61737,220.78264c0,0 -11.00017,-7.62574 -13.82252,-12.55548c-3.15446,-5.50982 -4.21899,-18.95724 -4.21899,-18.95724c0,0 6.51531,2.64388 10.39376,6.41057c4.26687,4.14389 6.18515,9.50642 12.25465,10.9506c6.04635,1.43867 20.95925,-10.27024 21.81106,-11.73001c2.01068,-3.44582 12.92912,-40.26184 15.05629,-43.35067c3.3566,-4.8741 24.84035,1.47568 26.57917,6.29832c1.46016,4.04973 -14.39179,24.36553 -18.11954,33.46255c-5.18301,12.64832 -6.63489,25.77105 -10.10776,28.08071c-0.6732,0.44773 -5.37975,9.15179 -10.31553,8.61357c-3.6406,-0.397 -8.70189,-0.47528 -12.4987,-1.16619c-9.29318,-1.69115 -17.01192,-6.05671 -17.01192,-6.05671z" fill="#333333" stroke-width="2" stroke-linecap="butt"/><path d="M263.41492,149.03104c-0.64458,2.31108 0.42422,7.28975 -1.05392,8.20587c-1.72276,1.06775 -5.43067,0.57447 -8.4269,0.56913c-3.9058,-0.00696 -7.31019,0.20371 -10.74922,-0.45153c-8.79853,-1.67639 -8.5465,-7.16535 -6.72951,-16.48632c0.52249,-2.68035 4.17063,-12.282 4.51326,-12.81817c4.79617,-7.50589 12.41949,-12.44744 18.26999,-11.33274c7.92732,1.5104 11.18864,11.97168 9.40199,20.70098c-0.19636,0.95934 -5.09531,11.14549 -5.22564,11.61281z" fill="#0e0e0e" stroke-width="2" stroke-linecap="butt"/><path d="M204.62129,203.26372c0,0 6.60155,-7.37354 8.8165,-13.26402c1.50231,-3.99532 2.32663,-8.35171 3.86796,-14.97242c1.57061,-6.74643 3.84427,-15.72084 3.84427,-15.72084c0,0 1.38885,5.65875 2.738,6.71547c2.07691,1.62671 11.99192,2.69393 11.99192,2.69393c0,0 -7.14893,19.51279 -8.30682,25.34862c-1.48361,7.47748 -3.76295,18.09683 -3.76295,18.09683c0,0 -4.00495,-5.40697 -6.09489,-5.99975c-1.8402,-0.52194 -5.79115,2.62846 -5.79115,2.62846c0,0 -3.95243,6.36746 -7.59913,8.36945c-4.7107,2.58616 -9.87787,-3.04886 -11.741,-3.93301c-9.31328,-4.41959 -2.93844,-21.32507 -4.72018,-22.15123c-0.89938,-0.41702 5.9315,7.933 10.83102,10.30268c4.91995,2.37954 5.92646,1.88587 5.92646,1.88587z" fill="#090909" stroke-width="2" stroke-linecap="butt"/><path d="M229.84439,157.94561c0,0 -2.38263,-4.37851 -1.01655,-5.72563c1.58004,-1.55809 3.78073,-1.57136 6.58182,-1.04277c2.8011,0.52858 5.67198,3.27683 13.43428,4.81989c5.45426,1.08424 10.07204,1.66073 12.61721,1.38036c0.16756,-0.01846 3.28593,1.28564 3.80795,2.61089c0.64404,1.63509 -1.86161,5.69471 -1.86161,5.69471c0,0 -5.81524,0.60873 -12.09063,0.29074c-3.24078,-0.1642 -7.81415,0.08353 -10.28826,-0.53712c-6.58984,-1.65316 -11.18422,-7.49105 -11.18422,-7.49105z" fill="#091f57" stroke-width="2" stroke-linecap="butt"/><path d="M201.59602,224.20862c0,0 -11.42992,-6.42106 -14.64387,-11.02291c-1.31288,-1.87985 -5.48222,-9.85504 -3.24849,-9.0972c3.8779,1.31565 16.27145,13.14737 18.89325,15.26353c4.54578,3.66912 5.15716,-0.56536 11.20228,0.23159c6.02206,0.79392 13.43936,1.88961 14.13044,0.34949c0.16347,-0.36433 7.26365,-3.42358 7.73096,-4.51602c2.6874,-6.28227 7.72228,-38.17848 12.4346,-46.2043c2.64486,-4.5046 7.80143,-0.39637 7.80143,-0.39637c0,0 -5.32698,13.06453 -8.095,22.49592c-3.8486,13.11327 -4.4056,24.66726 -7.56776,27.32742c-0.613,0.51568 -4.37103,9.65951 -9.22676,9.6436c-3.58157,-0.01175 -8.51596,0.44257 -12.27741,0.15517c-9.20664,-0.70345 -17.13369,-4.22992 -17.13369,-4.22992z" fill="#091f57" stroke-width="2" stroke-linecap="butt"/><path d="M220.8931,164.3676c0,0 1.49378,-4.52683 2.88438,-6.136c1.60841,-1.86117 4.24075,-3.15915 4.24075,-3.15915c0,0 5.15392,1.89828 9.35261,4.60325c2.98044,1.92012 6.49315,3.51366 9.63812,4.14323c3.86828,0.77437 10.96468,2.66891 14.5536,1.58327c2.49268,-0.75401 -0.09769,5.65678 -0.09769,5.65678c0,0 -15.60493,2.42151 -22.68157,0.56367c-2.19666,-0.57669 -3.96719,-3.35434 -6.92287,-3.23527c-1.95037,0.07858 -5.16035,3.27525 -6.70204,2.587c-2.94917,-1.31659 -4.26524,-6.60679 -4.26524,-6.60679z" fill="#1a1a1a" stroke-width="2" stroke-linecap="butt"/><path d="M260.65531,151.2598c0,0 -2.09604,1.84755 -2.73287,1.78373c-0.85826,-0.08601 -4.47145,-1.33938 -5.34746,-1.44071c-0.74138,-0.08579 -3.21274,-1.45763 -3.21274,-1.45763c0,0 -1.39252,0.62469 -1.97596,0.55907c-0.75985,-0.08545 -2.19536,-1.02814 -2.19536,-1.02814c0,0 -0.50485,-2.15386 -0.29407,-3.24436c-0.3336,-1.20887 0.35379,-3.79131 -0.06479,-4.4215c-2.82953,-1.00482 -4.12986,-2.68415 -3.17556,-7.60754c0.71599,-3.69397 3.27065,-6.39716 5.14831,-8.68919c2.94775,-3.59821 5.97191,-5.6779 10.9411,-5.12255c3.55443,0.39725 4.61224,4.50147 6.65974,6.8682c2.63831,3.04969 5.66687,4.92748 4.63082,10.27247c0,0 -1.46618,6.13949 -4.86403,6.20791c-1.27647,1.36505 -1.48518,2.52496 -2.23007,4.05147z" fill="#333333" stroke-width="2" stroke-linecap="butt"/><path d="M241.72704,132.11539c0,0 0.70061,-4.01759 1.93947,-4.45322c1.77416,-0.62381 5.92887,-3.57289 8.53635,-3.93291c4.58922,-0.63365 7.43215,1.55191 5.85582,1.3558c-1.13854,-0.14165 -1.14499,12.59161 -3.06523,13.96205c-1.62541,1.16002 -1.66828,3.56317 -2.15962,4.87251c-0.48186,1.28409 -0.33281,6.14191 -1.70414,7.47877c-0.41667,0.40619 -4.3029,0.01977 -5.30352,-1.23334c-0.68507,-0.85792 -1.51044,-1.98005 -1.67443,-3.25611c-0.2062,-1.60428 0.04728,-3.72884 -0.3565,-3.70297c-1.52675,0.09787 -1.30444,-2.75013 -2.09421,-3.46816c-0.92838,-0.84405 0.54749,-7.50911 0.54749,-7.50911z" fill="#141414" stroke-width="2" stroke-linecap="butt"/><path d="M246.73825,131.98939c0.31186,-2.17826 2.21821,-3.70817 4.25794,-3.41718c2.03975,0.291 3.44045,2.29271 3.12859,4.47097c-0.31186,2.17826 -2.21819,3.70817 -4.25794,3.41717c-2.03975,-0.291 -3.44046,-2.29272 -3.1286,-4.47097z" fill="#1048db" stroke-width="2" stroke-linecap="butt"/><path d="M259.11638,135.12672c0.26707,-1.72481 1.62661,-2.97533 3.03661,-2.79314c1.41001,0.1822 2.33653,1.72811 2.06947,3.45292c-0.26707,1.7248 -1.62661,2.97531 -3.03661,2.79312c-1.41001,-0.1822 -2.33653,-1.7281 -2.06946,-3.4529z" fill="#101010" stroke-width="2" stroke-linecap="butt"/><path d="M243.65626,125.72403c0,0 6.85569,-3.61113 9.45544,-4.21578c2.56773,-0.5972 6.04827,0.60988 6.04827,0.60988" fill="none" stroke-width="2" stroke-linecap="round"/><path d="M241.05791,132.04779c0.39142,-0.77646 2.36504,-8.27379 3.77014,-9.75986c1.99936,-2.11459 4.40579,-3.53327 4.40579,-3.53327c0,0 5.99271,-2.91502 9.75872,-1.65958c3.76603,1.25541 7.63573,6.00521 7.63573,6.00521c0,0 1.77612,1.81477 2.72734,4.60892c0.37019,1.08743 0.32029,3.6916 0.43366,4.34782c0.35772,2.07057 -1.81225,6.28381 -1.81225,6.28381c0,0 -2.0923,-4.89607 -4.14177,-8.79212c-1.94782,-3.70281 -3.1944,-1.85944 -6.01247,-2.86383c-2.81806,-1.0044 -5.41988,-0.49081 -8.64522,0.4102c-2.41959,0.67594 -4.75925,1.57097 -6.34961,2.47102c-1.18015,0.66788 -1.42385,-0.97581 -1.195,-1.42981z" fill="#0b0b0b" stroke-width="2" stroke-linecap="butt"/><path d="M246.95067,172.60291l-5.69132,1.67699" fill="none" stroke-width="2" stroke-linecap="round"/><path d="M241.80433,182.16948l6.15832,-2.56577" fill="none" stroke-width="2" stroke-linecap="round"/><path d="M241.30507,188.86074l6.16919,-2.27614" fill="none" stroke-width="2" stroke-linecap="round"/><path d="M246.74693,193.86508l-4.931,1.93676" fill="none" stroke-width="2" stroke-linecap="round"/><path d="M247.21392,200.12777l-6.90775,2.59561" fill="none" stroke-width="2" stroke-linecap="round"/><path d="M188.07933,206.49163l7.09722,12.76118c0,0 -9.06623,-3.89162 -13.33038,-9.33525c-5.30392,-6.771 -8.33128,-17.7078 -9.12014,-19.65582c-0.73427,-1.81325 -0.09158,-6.89095 1.07369,-8.03062c2.93883,-2.87429 9.84089,0.61532 11.06561,7.2117c0.55551,2.99196 2.32189,2.32279 4.29048,3.22747c2.73872,1.25859 5.7874,3.39584 5.7874,3.39584c0,0 6.14655,4.43114 4.30155,4.52296c-1.05041,0.05228 -2.70648,0.42452 -3.52522,1.55028c-0.71321,0.98067 -0.66266,2.7379 -0.66266,2.7379c0,0 -4.55114,-3.4964 -6.03293,-3.51181c-1.03567,-0.01077 -0.94463,5.12616 -0.94463,5.12616z" fill="#101010" stroke-width="2" stroke-linecap="butt"/><path d="M175.76781,177.19752c-0.23424,-9.2392 27.6254,-13.47498 27.6254,-13.47498c0,0 -19.60076,19.51461 -16.89648,26.6609c1.23721,3.26942 -4.95002,3.36495 -8.38522,-0.84969c-0.92215,-1.13139 -3.08173,-2.90402 -3.41181,-4.67686c-0.5277,-2.83419 1.11385,-5.85496 1.06811,-7.65937z" fill="#091f57" stroke-width="2" stroke-linecap="butt"/><path d="M188.12977,174.88592c6.78712,-2.11927 8.8244,-3.93144 8.8244,-3.93144c0,0 -12.21995,11.24771 -9.51567,18.39399c1.23721,3.26942 -5.83708,4.63072 -9.27228,0.41608c-2.39637,-2.94009 2.88319,-12.66781 9.96356,-14.87863z" fill="#090d19" stroke-width="2" stroke-linecap="butt"/><path d="M217.8197,176.51993c0,0 4.59399,-12.45008 5.71213,-16.4942c0.82478,-2.98304 0.38859,-5.57107 0.38859,-5.57107l4.37873,0.32207c0,0 2.98089,9.89129 2.16307,13.31022c-0.98051,4.09906 -5.86265,10.75332 -5.86265,10.75332z" fill="#090909" stroke-width="0" stroke-linecap="butt"/><path d="M228.21878,155.74075c0,0 2.24263,5.86535 2.57204,8.59639c0.32138,2.66455 0.04316,4.18093 0.04316,4.18093" fill="none" stroke-width="2" stroke-linecap="round"/><path d="M232.1238,180.65819c0,0 -15.77541,6.54456 -21.06196,8.0513c-0.29716,0.0847 -1.29491,-1.66665 -1.13497,-2.85216c0.2336,-1.73142 1.73587,-3.19671 1.57359,-3.74751c-0.46367,-1.57386 16.33426,-8.4948 16.33426,-8.4948c0,0 3.60786,-1.85513 5.26309,-0.50866c1.08236,0.88045 1.39968,3.35053 3.26836,3.46799c2.21049,0.13894 12.84106,0.3782 15.36083,0.31021c7.56717,-0.20415 7.26992,-1.27628 8.6792,-0.92497c0.06731,0.01678 1.57701,-7.34864 3.89748,-11.86126c1.37887,-2.6815 2.44432,-4.2242 2.80228,-4.11661c0.41203,0.12386 2.80064,5.50221 2.49595,9.04289c-0.17041,1.98063 -1.50059,2.99019 -1.67969,4.0756c-0.46038,2.7901 -3.29523,4.68088 -3.55394,5.0437c-1.23617,1.73358 -8.22351,4.12131 -8.22351,4.12131c0,0 -5.5535,0.64232 -8.94699,0.4153c-4.3659,-0.29209 -15.074,-2.02233 -15.074,-2.02233z" fill="#180f05" stroke-width="2" stroke-linecap="butt"/><path d="M232.88761,174.2049c0,0 -19.99358,6.6339 -22.08784,6.82708c-4.98809,0.46009 2.33221,-4.94401 2.1072,-5.87575c-0.38164,-1.58032 16.13425,-8.07671 16.13425,-8.07671c0,0 3.56278,-1.76285 5.10489,-0.38058c1.00838,0.90386 1.21095,3.37422 3.01091,3.53628c2.12923,0.19168 12.38694,0.6859 14.8236,0.67871c7.31752,-0.02157 7.07553,-1.09763 8.42194,-0.71349c0.06431,0.01835 1.83238,-7.28885 4.26349,-11.73224c1.44464,-2.64036 2.53865,-4.15283 2.87985,-4.03695c0.39275,0.1334 2.47358,5.55319 2.03033,9.076c-0.24795,1.97063 -1.57519,2.94521 -1.79384,4.02309c-0.56204,2.77071 -3.37971,4.5877 -3.64485,4.94322c-1.26692,1.69871 -8.11627,3.91129 -8.11627,3.91129c0,0 -5.39102,0.50685 -8.65915,0.19889c-4.20463,-0.39621 -14.47453,-2.37884 -14.47453,-2.37884z" fill="#180f05" stroke-width="2" stroke-linecap="butt"/><g data-paper-data="{&quot;index&quot;:null}" stroke-linecap="butt"><path d="M257.96001,186.34634c0,0 5.25052,7.33432 6.34263,12.64883c0.8183,3.98198 -0.37089,16.41058 -0.37089,16.41058l-5.55065,1.14066c0,0 -4.34334,-2.51796 -5.24046,-6.5711c-1.71064,-7.72839 -4.26955,-36.39404 -4.26955,-36.39404z" fill="#091f57" stroke-width="2.5"/><path d="M246.88869,234.31755c-0.66772,-2.25944 3.84024,2.11345 6.58428,1.82867c1.92946,-0.20028 17.99235,-0.85072 27.06438,-8.37472c17.5016,-14.51523 30.59673,-49.5941 30.59673,-49.5941c0,0 -0.89577,18.85224 -0.89328,21.64449c0.00534,5.97169 -0.0658,16.08075 -0.0658,16.08075l-17.29846,11.8821l-5.93093,11.08174c0,0 -13.17896,2.81954 -17.57187,4.70314c-4.3929,1.88358 -9.65879,6.97274 -9.65879,6.97274c0,0 -7.43825,-6.77741 -8.2329,-8.83741c-0.46951,-1.21715 -4.06803,-5.61001 -4.59334,-7.38744z" fill="#0b0b0b" stroke-width="2.5"/><path d="M245.02353,222.93447c0.93947,-2.40734 1.43423,5.13181 4.17493,4.83078c1.9271,-0.21167 16.46002,-0.02766 25.59962,-7.22274c6.96819,-5.48565 20.69736,-17.35417 20.69736,-17.35417l15.92711,-26.09124l-8.9612,29.58317l-14.44748,11.50322c0,0 13.689,-2.76163 11.26063,-1.11163c-8.85694,6.01798 -29.76028,20.08398 -32.76222,20.84849c-1.35073,0.34399 -6.13448,0.95847 -10.5826,-0.12563c-4.36427,-1.06368 -8.40329,-3.81378 -8.78367,-4.76998c-0.45381,-1.14076 -2.01401,-2.23863 -2.51677,-3.9065c-0.63907,-2.12019 -0.13146,-4.83635 0.39437,-6.18376z" fill="#091f57" stroke-width="2"/><path d="M231.21125,117.96611c0,0 2.46537,-0.50665 3.5359,-0.72664c0.99127,-0.2037 2.99524,2.03882 2.99524,2.03882c0,0 7.63264,34.50144 13.90323,63.10619c1.59461,7.27416 4.30082,13.38091 5.57391,19.24061c0.08168,0.37611 -0.92522,2.34405 -1.77545,4.45332c-0.70949,1.76018 -1.28952,3.7179 -1.22855,3.99793c0.86226,3.9607 4.40183,2.83412 4.83936,4.96318c0.15512,0.75482 -2.65849,0.97336 -2.65849,0.97336l3.12071,8.23088l-6.20367,1.27486c0,0 -4.06788,-6.8785 -5.3534,-13.13408c-0.5745,-2.79543 2.51091,-14.60784 2.51091,-14.60784c0,0 -3.5464,-5.23029 -4.20486,-8.32144c-2.34894,-11.02705 -15.05479,-71.48904 -15.05479,-71.48904z" fill="#333333" stroke-width="2"/><path d="M245.03292,196.23128c-1.42489,-17.15441 -10.67452,-53.08936 -11.30113,-60.50638c-0.47345,-5.60403 2.5444,0.0807 2.5444,0.0807c0,0 12.45069,60.72535 12.96335,61.79894c0.2459,0.51496 0.27839,2.62718 0.27839,2.62718c0,0 -2.49565,9.21087 -1.67439,13.2074c0.50925,2.47797 2.20948,6.19898 3.35307,8.83309c0.65462,1.50783 6.66326,-0.48343 6.66326,-0.48343l-2.64608,-5.56024c0,0 3.95539,-1.10773 7.45225,-1.23976c2.92294,-0.11038 6.35705,1.3529 6.58768,1.61941c0.30384,0.35105 5.20162,3.51072 2.97223,6.09648c-0.78255,0.90763 -5.05713,3.87912 -9.30573,5.84383c-4.26673,1.97311 -8.50593,2.93743 -8.50593,2.93743l-7.51283,-4.98984c0,0 -0.0515,-3.65769 -1.29479,-7.37188c-1.45772,-4.35468 -4.17227,-9.01852 -4.66437,-11.41308c-0.71987,-3.50313 0.92684,-5.70331 0.92684,-5.70331c0,0 3.67348,0.36019 3.16378,-5.77651z" fill="#0b0b0b" stroke-width="2"/><path d="M298.11472,207.87066c-0.42617,-2.07376 0.90948,-4.10033 2.98324,-4.52648c2.07374,-0.42614 4.10033,0.90948 4.52648,2.98324c0.42617,2.07376 -0.90947,4.10035 -2.98323,4.52651c-2.07373,0.42616 -4.10033,-0.90948 -4.52648,-2.98324z" fill="#1449cd" stroke-width="2"/><g stroke-width="0"><path d="M299.00118,208.27678c-0.31345,-1.95862 0.93242,-3.77343 2.7827,-4.05348c1.85031,-0.28004 3.60434,1.08071 3.91782,3.03937c0.31346,1.95866 -0.93239,3.77348 -2.78266,4.05352c-1.8503,0.28004 -3.60436,-1.08072 -3.91782,-3.03938z" fill="#1048db"/><path d="M295.36658,208.85022c-0.64056,-4.00244 1.90527,-7.71101 5.6863,-8.28327c3.781,-0.57226 7.36542,2.20848 8.00597,6.21094c0.64056,4.00246 -1.90527,7.711 -5.6863,8.28327c-3.78103,0.57227 -7.36542,-2.20843 -8.00598,-6.21089z" fill="url(#color-1)"/></g><path d="M232.23583,129.35797c0,0 1.4007,-0.18225 3.20743,0.12551c1.41838,0.24159 6.75261,1.57101 6.75261,1.57101c0,0 0.9238,1.2919 1.08455,2.07415c0.11204,0.54514 -0.21228,2.17049 -0.21228,2.17049c0,0 -3.99499,-1.86309 -5.8073,-2.17179c-1.40005,-0.23846 -4.15274,0.47531 -4.15274,0.47531c0,0 -1.10197,-1.51811 -1.24444,-2.21144c-0.14806,-0.72058 0.37215,-2.03322 0.37215,-2.03322z" fill="#180f05" stroke-width="2"/><path d="M231.52682,125.07985c0,0 1.4007,-0.18228 3.20742,0.12547c1.41838,0.24159 6.75261,1.57101 6.75261,1.57101c0,0 0.9238,1.2919 1.08455,2.07415c0.11204,0.54514 -0.21228,2.17049 -0.21228,2.17049c0,0 -3.99499,-1.86309 -5.8073,-2.17179c-1.40006,-0.23847 -4.15274,0.47529 -4.15274,0.47529c0,0 -1.10197,-1.51811 -1.24444,-2.21144c-0.14806,-0.72058 0.37215,-2.03322 0.37215,-2.03322z" fill="#180f05" stroke-width="2"/><path d="M230.23189,121.26237c0,0 1.4007,-0.18228 3.20742,0.12547c1.41838,0.24159 6.75261,1.57101 6.75261,1.57101c0,0 0.9238,1.2919 1.08455,2.07415c0.11204,0.54514 -0.21228,2.17049 -0.21228,2.17049c0,0 -3.99499,-1.86309 -5.8073,-2.17179c-1.40006,-0.23847 -4.15274,0.47529 -4.15274,0.47529c0,0 -1.10197,-1.51811 -1.24444,-2.21144c-0.14806,-0.72058 0.37215,-2.03322 0.37215,-2.03322z" fill="#180f05" stroke-width="2"/><path d="M254.11289,236.84883c0,0 9.66867,-0.15766 14.39389,-1.6408c4.69445,-1.47348 13.86572,-7.22926 13.86572,-7.22926c0,0 2.11373,1.03212 2.37887,2.16084c0.27819,1.18426 -0.74704,4.7862 -0.74704,4.7862c0,0 -12.96521,2.37467 -16.74909,4.55909c-2.97702,1.71861 -7.82318,4.36997 -7.82318,4.36997l-5.31915,-7.00602z" fill="#1a1a1a" stroke-width="2"/></g></g></g></svg>