<svg version="1.1" xmlns="http://www.w3.org/2000/svg" xmlns:xlink="http://www.w3.org/1999/xlink" width="352.37412" height="155.7107" viewBox="0,0,352.37412,155.7107"><defs><linearGradient x1="160.80623" y1="154.53345" x2="187.15063" y2="166.33166" gradientUnits="userSpaceOnUse" id="color-1"><stop offset="0" stop-color="#050000"/><stop offset="1" stop-color="#0f0707"/></linearGradient><radialGradient cx="311.47839" cy="157.08422" r="13.33459" gradientUnits="userSpaceOnUse" id="color-2"><stop offset="0" stop-color="#5100a4"/><stop offset="1" stop-color="#5100a4" stop-opacity="0"/></radialGradient><radialGradient cx="156.62249" cy="164.92261" r="11.52692" gradientUnits="userSpaceOnUse" id="color-3"><stop offset="0" stop-color="#5100a4"/><stop offset="1" stop-color="#5100a4" stop-opacity="0"/></radialGradient><radialGradient cx="156.42156" cy="164.8283" r="10.50984" gradientUnits="userSpaceOnUse" id="color-4"><stop offset="0" stop-color="#5100a4"/><stop offset="1" stop-color="#5100a4" stop-opacity="0"/></radialGradient></defs><g transform="translate(-145.09571,-94.6493)"><g data-paper-data="{&quot;isPaintingLayer&quot;:true}" fill-rule="nonzero" stroke-linejoin="miter" stroke-miterlimit="10" stroke-dasharray="" stroke-dashoffset="0" style="mix-blend-mode: normal"><g fill="none"><path d="M419.5836,157.34217c4.09629,1.80289 3.50465,1.11451 8.31923,3.23357c10.78828,4.74825 22.98661,9.17189 22.98661,9.17189l-20.67728,-0.62621l-0.02922,-5.86863" data-paper-data="{&quot;index&quot;:null}" stroke="#5100a4" stroke-width="15" stroke-linecap="round"/><g><path d="M340.87266,120.45293l-2.14683,14.55097" stroke="#000000" stroke-width="1.5" stroke-linecap="round"/><path d="M344.83643,121.15848l-1.44088,17.32604" stroke="#000000" stroke-width="1.5" stroke-linecap="round"/><g><path d="M348.72557,140.50374l-0.01475,-17.63867" stroke="#000000" stroke-width="1.5" stroke-linecap="round"/><path d="M353.09246,141.44162l0.15307,-18.33137" stroke="#000000" stroke-width="1.5" stroke-linecap="round"/><path d="M357.36618,124.43248l-0.64555,19.10008" stroke="#000000" stroke-width="1.5" stroke-linecap="round"/><path d="M362.03591,127.91311l-0.7915,17.17402" stroke="#000000" stroke-width="1.5" stroke-linecap="round"/><path d="M365.53287,145.71664l1.42994,-16.01665" stroke="#000000" stroke-width="1.5" stroke-linecap="round"/><path d="M368.83631,147.88361l2.24713,-16.86139" stroke="#000000" stroke-width="1.5" stroke-linecap="round"/><path d="M373.75941,130.72245l-0.89181,19.48444" stroke="#000000" stroke-width="1.5" stroke-linecap="round"/><g><g><g stroke="#000000" stroke-width="1.5" stroke-linecap="round"><path d="M341.0402,135.635l2.14683,-14.55096"/><path d="M347.15079,121.78958l-1.44088,17.32604"/><path d="M351.03994,141.13484l-0.01475,-17.63867"/><path d="M355.5599,123.74136l-0.15306,18.33137"/><path d="M359.68055,125.06358l-0.64555,19.10008"/><path d="M364.35027,128.54421l-0.7915,17.17402"/><path d="M367.84723,146.34776l1.42994,-16.01665"/><path d="M373.39782,131.65333l-2.24714,16.86139"/><path d="M375.18197,150.83801l0.89181,-19.48445"/><path d="M382.21006,133.83742l-2.7287,16.32072"/><path d="M383.99421,153.0221l4.27371,-17.00914"/><path d="M392.62388,138.26021l-3.6134,15.54772"/><path d="M397.4614,141.04814l-4.82278,14.85075"/><path d="M397.9796,156.60872l4.99059,-15.54344"/><path d="M407.24771,143.00419l-4.82278,14.85075"/><path d="M410.64055,144.17011l-4.58747,15.77577"/></g><g stroke="none" stroke-width="1" stroke-linecap="butt" font-family="sans-serif" font-weight="normal" font-size="12" text-anchor="start"><g/></g><path d="M377.16699,149.52703l2.72871,-16.32071" stroke="#000000" stroke-width="1.5" stroke-linecap="round"/><path d="M381.67983,152.39099l4.27371,-17.00914" stroke="#000000" stroke-width="1.5" stroke-linecap="round"/><path d="M390.30951,137.62911l-3.61339,15.54772" stroke="#000000" stroke-width="1.5" stroke-linecap="round"/><path d="M395.14704,140.41704l-4.82278,14.85075" stroke="#000000" stroke-width="1.5" stroke-linecap="round"/><path d="M400.65582,140.43417l-4.99059,15.54345" stroke="#000000" stroke-width="1.5" stroke-linecap="round"/><path d="M400.11057,157.22383l4.82278,-14.85074" stroke="#000000" stroke-width="1.5" stroke-linecap="round"/><path d="M403.73871,159.31478l4.58747,-15.77577" stroke="#000000" stroke-width="1.5" stroke-linecap="round"/><path d="M407.93781,160.94534l4.91215,-15.85179" stroke="#000000" stroke-width="1.5" stroke-linecap="round"/></g></g></g></g><g stroke="#000000" stroke-linecap="round"><path d="M309.17237,95.05926" stroke-width="1.5"/><g><path d="" stroke-width="1.5"/><path d="" stroke-width="1.5"/><path d="" stroke-width="1.5"/><path d="" stroke-width="1.5"/><path d="" stroke-width="1.5"/><path d="M323.7121,123.84793" stroke-width="1.5"/><path d="M326.62006,126.75589" stroke-width="1.5"/><g><g><g stroke-width="1.5"><path d="M307.7942,94.6493"/><path d=""/><path d=""/><path d=""/><path d=""/><path d="M325.53267,124.89194"/><path d="M328.44062,127.7999"/><path d="M332.22095,128.09068"/><path d="M335.41969,131.58023"/><path d="M339.49082,133.32499"/><path d="M342.10796,135.94215"/><path d="M346.46989,137.68692"/><path d="M349.95942,139.72248"/><path d="M352.57657,142.33963"/></g><g stroke-width="10"><path d="M259.06097,179.70242l5.532,-41.63753l12.55365,78.08846l1.24692,-7.24815" data-paper-data="{&quot;index&quot;:null}"/><g><path d="M187.38708,211.34191l-0.05034,7.00007l34.74295,-94.33074l2.20424,47.34851"/><path d="M228.49828,203.77882l-3.70909,5.53449l0.90064,7.32049l17.29388,-80.13678l3.96296,42.29943"/></g></g><path d="M330.40039,127.04667" stroke-width="1.5"/><path d="" stroke-width="1.5"/><path d="M337.67026,132.28098" stroke-width="1.5"/><path d="M340.2874,134.89814" stroke-width="1.5"/><path d="M344.64933,136.64291" stroke-width="1.5"/><path d="M348.13886,138.67847" stroke-width="1.5"/><path d="M350.75601,141.29562" stroke-width="1.5"/><path d="M353.95476,143.62197" stroke-width="1.5"/></g></g></g></g><path d="M281.06716,185.40163l53.50565,-60.2847l117.34369,44.5298l-19.40436,-0.85692l1.07486,-5.36503" data-paper-data="{&quot;index&quot;:null}" stroke="#000000" stroke-width="10" stroke-linecap="round"/></g><g stroke="#000000" stroke-linecap="butt"><path d="M221.64732,158.66098c1.64955,-0.50176 3.63833,1.36462 4.44204,4.16866c0.80372,2.80407 0.11803,5.48394 -1.53152,5.9857c-1.64955,0.50176 -3.63834,-1.36459 -4.44203,-4.16865c-0.80372,-2.80407 -0.11804,-5.48396 1.53152,-5.98571z" fill="#000000" stroke-width="1"/><path d="M202.1648,195.4427c-12.39413,1.31889 -23.74997,-9.79479 -25.36403,-24.82316c-1.61402,-15.02832 7.12504,-28.28033 19.51914,-29.59922c12.39413,-1.31889 23.74994,9.79484 25.36397,24.82318c1.61402,15.02832 -7.12494,28.28034 -19.51909,29.59921z" fill="#000000" stroke-width="0"/><path d="M212.96902,197.66506c-11.91128,1.26752 -22.82475,-9.41323 -24.37591,-23.85611c-1.55115,-14.44284 6.84746,-27.17862 18.75874,-28.44612c11.91128,-1.26752 22.82471,9.41327 24.37585,23.85611c1.55115,14.44284 -6.84739,27.17863 -18.7587,28.44611z" fill="#000000" stroke-width="0"/><path d="M210.61962,189.52877c-12.39413,1.31889 -23.74999,-9.79479 -25.36403,-24.82316c-1.61402,-15.02832 7.12503,-28.28032 19.51913,-29.59921c12.39413,-1.31889 23.74997,9.79483 25.36396,24.82315c1.61402,15.02832 -7.12495,28.28033 -19.5191,29.59922z" fill="#000000" stroke-width="0"/><path d="M210.31093,194.66317c-12.39413,1.31889 -23.74999,-9.79479 -25.36402,-24.82317c-1.61402,-15.02832 7.12498,-28.28031 19.51912,-29.5992c12.39413,-1.31889 23.74997,9.79483 25.36396,24.82315c1.61402,15.02832 -7.12496,28.28034 -19.51911,29.59923z" fill="#000000" stroke-width="0"/><path d="M210.19863,194.03894c-12.74304,2.39238 -25.22515,-6.94215 -27.8796,-20.84925c-2.04271,-10.70201 3.15859,-20.12089 10.93585,-26.19147c2.32916,-1.81805 3.8312,-5.72012 6.76799,-6.27148c4.30635,-0.80848 10.69874,-0.7625 14.66145,1.27752c6.4386,3.31457 9.78675,8.82108 11.63603,16.47254c0.38054,1.57439 0.39317,4.96894 0.69308,6.54017c0.59796,3.13285 1.52429,10.41997 1.20865,13.32804c-1.08557,10.00124 -8.15108,13.84047 -18.02348,15.69392z" fill="#0a0300" stroke-width="1"/><path d="M204.52959,144.10364c2.50205,-0.46973 5.27116,3.03091 5.81839,5.89784c0.54722,2.86694 -1.48333,3.23586 -3.98538,3.70562c-2.50205,0.46974 -4.52806,0.86238 -5.07528,-2.00456c-0.54722,-2.86694 0.74021,-7.12918 3.24226,-7.59891z" fill="#000000" stroke-width="1"/><path d="M185.22805,156.21818c1.83775,-0.86046 4.29113,0.59849 5.47973,3.25866c1.18861,2.66017 0.66242,5.51417 -1.17532,6.37466c-1.83775,0.86046 -4.29115,-0.59847 -5.47975,-3.25864c-1.18861,-2.66016 -0.6624,-5.51419 1.17534,-6.37468z" fill="#000000" stroke-width="1"/><path d="M214.74854,174.26813c2.05235,0.40666 3.27558,3.06599 2.73224,5.93984c-0.54339,2.87384 -2.64764,4.87392 -4.69996,4.46726c-2.05235,-0.40666 -3.27561,-3.06601 -2.73223,-5.93984c0.54339,-2.87384 2.64763,-4.87392 4.69995,-4.46725z" fill="#000000" stroke-width="1"/><path d="M202.27131,161.19654c2.06051,-0.38683 5.77247,1.31839 6.15553,3.32524c0.38304,2.00686 -2.51767,2.6235 -4.57816,3.01035c-2.06051,0.38683 -4.4673,1.66284 -4.85037,-0.34403c-0.38304,-2.00686 1.21253,-5.60472 3.27304,-5.99156z" fill="#000000" stroke-width="1"/><path d="M190.98018,180.44427c0.10258,-2.36673 1.52407,-4.1964 3.17494,-4.08668c1.65087,0.1097 2.90598,2.11729 2.80336,4.48402c-0.10258,2.36673 -1.52404,4.19639 -3.17494,4.08667c-1.65087,-0.1097 -2.90601,-2.11726 -2.80337,-4.48398z" data-paper-data="{&quot;index&quot;:null}" fill="#000000" stroke-width="1"/></g><path d="M333.3173,168.21273l4.27156,0.438l2.83662,-2.04527l-14.38407,2.78571l-7.67936,-6.48257" data-paper-data="{&quot;index&quot;:null}" fill="none" stroke="#000000" stroke-width="7.5" stroke-linecap="round"/><path d="M321.49021,157.85735l4.98781,-6.45944l12.20227,0.63875l-2.85627,-1.47577l-3.31604,0.89175" data-paper-data="{&quot;index&quot;:null}" fill="none" stroke="#000000" stroke-width="7.5" stroke-linecap="round"/><path d="M167.93578,157.99462c4.23343,-2.3887 17.01632,-2.85749 17.01632,-2.85749l1.04119,17.26536c0,0 -6.00938,-3.15616 -11.00532,-5.87935c-4.67321,-2.54725 -15.97498,-2.58287 -15.97498,-2.58287c0,0 5.50552,-4.01745 8.92279,-5.94564z" fill="url(#color-1)" stroke="#000000" stroke-width="4" stroke-linecap="butt"/><g stroke="#000000" stroke-width="0" stroke-linecap="butt"><path d="M327.72884,159.6626c0.17459,12.18463 -9.98714,22.29655 -22.69684,22.58553c-12.70968,0.28902 -23.15451,-9.35427 -23.3291,-21.53893c-0.17459,-12.18463 9.98714,-22.29655 22.69682,-22.58555c12.70968,-0.28902 23.15453,9.35428 23.32912,21.53894z" fill="#000000"/><g><path d="M318.84434,159.69655c0.18618,12.18463 -10.65013,22.29655 -24.20352,22.58553c-13.5534,0.28902 -24.6916,-9.35427 -24.87778,-21.53894c-0.18618,-12.18463 10.65012,-22.29655 24.20352,-22.58553c13.5534,-0.28902 24.69161,9.35428 24.87779,21.53894z" fill="#000000"/><path d="M322.842,163.32942c0.17459,12.18463 -9.98714,22.29655 -22.69684,22.58553c-12.70968,0.28902 -23.15451,-9.35428 -23.3291,-21.53894c-0.17459,-12.18463 9.98714,-22.29655 22.6968,-22.58554c12.70968,-0.28902 23.15454,9.35429 23.32914,21.53894z" fill="#000000"/><path d="M323.09767,157.11376c0.1678,11.70994 -9.59806,21.42795 -21.81263,21.70572c-12.21455,0.27776 -22.25247,-8.98991 -22.42026,-20.69988c-0.1678,-11.70994 9.59805,-21.42791 21.81262,-21.70568c12.21455,-0.27776 22.25248,8.98987 22.42027,20.69984z" fill="#000000"/><path d="M320.38382,160.94812c0.15479,10.8025 -11.19845,22.10345 -21.80807,22.34473c-3.1827,0.07237 -8.79682,0.71608 -11.46001,-0.61871c-6.2146,-3.11479 -7.92229,-10.9422 -8.03066,-18.50418c-0.15479,-10.8025 8.02475,-20.07471 18.63437,-20.31596c7.05925,-0.16053 13.37585,1.25897 17.6502,6.26408c2.14975,2.51719 4.96236,7.21514 5.01416,10.83008z" fill="#060200"/></g></g><g stroke="#000000" stroke-linecap="butt"><path d="M245.64879,141.6332c-0.30813,-2.36425 2.7764,-4.64023 6.88945,-5.08348c4.11308,-0.44327 7.69715,1.11397 8.00528,3.47823c0.30813,2.36425 -2.77636,4.64022 -6.88945,5.08348c-4.11308,0.44327 -7.69717,-1.11397 -8.0053,-3.47822z" fill="#000000" stroke-width="1"/><path d="M292.43782,176.72966c-1.11264,17.19435 -19.36387,30.08389 -40.76534,28.7896c-21.40138,-1.29432 -37.84861,-16.28239 -36.73596,-33.47669c1.11264,-17.19435 19.36392,-30.08382 40.76533,-28.7895c21.40138,1.29432 37.84865,16.28226 36.73597,33.47664z" fill="#000000" stroke-width="0"/><path d="M298.12334,162.52488c-1.06928,16.52451 -18.60952,28.9119 -39.17722,27.66804c-20.56761,-1.24386 -36.37416,-15.64807 -35.30485,-32.17256c1.06929,-16.52451 18.60958,-28.91185 39.17719,-27.66795c20.56762,1.24386 36.3742,15.64796 35.30485,32.17251z" fill="#000000" stroke-width="0"/><path d="M286.18469,163.83469c-1.11264,17.19435 -19.36385,30.08389 -40.76533,28.78961c-21.40138,-1.29432 -37.84862,-16.28238 -36.73597,-33.47669c1.11264,-17.19435 19.36393,-30.08385 40.76531,-28.7895c21.40138,1.29431 37.84864,16.28228 36.736,33.47665z" fill="#000000" stroke-width="0"/><path d="M293.29116,165.44886c-1.11264,17.19435 -19.36386,30.08389 -40.76533,28.78958c-21.40138,-1.29432 -37.84862,-16.28231 -36.73598,-33.47665c1.11264,-17.19435 19.36392,-30.08386 40.7653,-28.78951c21.40138,1.29432 37.84864,16.28228 36.736,33.47665z" fill="#000000" stroke-width="0"/><path d="M292.39144,165.45675c0.30534,17.9193 -15.72654,32.75701 -35.8082,33.14101c-15.45355,0.29549 -27.38442,-8.98112 -34.01827,-20.98928c-1.98675,-3.59624 -7.08524,-6.54994 -7.15559,-10.67968c-0.10318,-6.0556 1.48624,-14.75494 5.28454,-19.68014c6.17141,-8.00249 14.67078,-11.28447 25.81216,-12.02557c2.29248,-0.1525 7.04259,0.61936 9.31144,0.57596c4.52377,-0.0865 14.93545,0.34531 18.92691,1.45139c13.72721,3.80406 17.41046,14.32372 17.64702,28.20632z" fill="#0a0300" stroke-width="1"/><path d="M221.20709,161.57313c-0.05995,-3.51837 5.4962,-6.47773 9.63599,-6.5569c4.13983,-0.07917 4.1713,2.77335 4.23127,6.29174c0.05995,3.51837 0.12568,6.37022 -4.01415,6.44939c-4.13983,0.07917 -9.79317,-2.66585 -9.85312,-6.18422z" fill="#000000" stroke-width="1"/><path d="M233.54359,190.68883c-0.76485,-2.70407 1.86074,-5.7078 5.86443,-6.70896c4.00369,-1.00116 7.86935,0.37923 8.63422,3.08329c0.76485,2.70407 -1.86073,5.70783 -5.86442,6.70899c-4.00369,1.00116 -7.86936,-0.37927 -8.63423,-3.08333z" fill="#000000" stroke-width="1"/><path d="M265.82858,154.66126c1.05833,-2.70191 5.06914,-3.75047 8.95842,-2.34206c3.88926,1.40846 6.18421,4.74055 5.12588,7.44244c-1.05833,2.70191 -5.06918,3.75051 -8.95843,2.34205c-3.88926,-1.40846 -6.18421,-4.74056 -5.12587,-7.44243z" fill="#000000" stroke-width="1"/><path d="M244.57183,168.62362c-0.04936,-2.8975 3.22091,-7.55884 6.11878,-7.61428c2.89788,-0.0554 3.06814,4.04034 3.11753,6.93781c0.04936,2.8975 1.25958,6.4735 -1.63833,6.52893c-2.89788,0.0554 -7.54862,-2.95502 -7.59798,-5.85252z" fill="#000000" stroke-width="1"/><path d="M268.79483,188.48284c-3.28526,-0.68995 -5.50483,-3.05214 -4.95752,-5.27605c0.54728,-2.22391 3.65424,-3.46739 6.9395,-2.77738c3.28526,0.68995 5.50482,3.05211 4.95751,5.27605c-0.54728,2.22391 -3.6542,3.46742 -6.93946,2.77742z" data-paper-data="{&quot;index&quot;:null}" fill="#000000" stroke-width="1"/></g><g data-paper-data="{&quot;index&quot;:null}" fill="none" stroke="#000000" stroke-width="1.5" stroke-linecap="round"><path d="M240.67365,203.91697l-3.01334,2.38986"/><path d="M231.37396,202.74546l4.73636,-3.82554"/><path d="M245.49854,203.47099l-1.40681,8.30741"/><path d="M227.33395,192.07664l-3.50935,2.47338"/><path d="M260.58856,208.78271l0.49482,-4.40319"/><path d="M257.16002,205.24739l-0.15533,9.80423"/><path d="M274.91256,198.11966l6.05908,6.63674"/><path d="M281.15025,193.4816l8.0193,3.59752"/><path d="M287.1769,188.70176l6.77559,1.61047"/><path d="M295.28943,186.41677l-3.3606,-2.52096"/><path d="M297.1156,151.63793l4.30366,-3.34405"/><path d="M298.49908,144.80122l-3.85544,1.88216"/><path d="M278.0472,133.24785l2.61949,-4.35946"/><path d="M250.51242,123.94845l1.58325,7.38816"/><path d="M234.4745,134.65766l-4.55774,-7.44937"/><path d="M227.78321,138.78858l-1.5988,-6.40767"/><path d="M262.4085,202.83825l1.97606,9.42313"/><path d="M299.21709,179.06038l-3.2448,-1.78305"/><path d="M296.64877,172.14233l5.05663,0.10399"/><path d="M304.49118,165.43844l-4.79182,1.96101l-2.38503,0.29415"/><path d="M306.38464,158.61216l-7.19862,3.6278l-1.46551,-1.40322"/><path d="M303.5134,152.03113l-5.14363,5.38642"/><path d="M293.90414,138.7896l-4.24044,4.71844"/><path d="M290.98395,135.29687l-4.52699,4.02602"/><path d="M280.4807,137.92669l6.57069,-9.5416"/><path d="M267.52883,132.06841l1.60687,-7.5187"/><path d="M263.7598,125.81222l-0.08698,5.49041"/><path d="M260.8979,137.42419l-3.69835,-10.71718"/><g><path d="M242.15319,201.01577l-2.87166,2.39277"/><path d="M233.37034,198.19536l-4.51374,3.83015"/><path d="M247.78002,203.58339l-1.3461,8.30861"/><path d="M226.26227,196.1617l3.86666,-2.74886"/><path d="M249.25729,207.83402l0.47458,-4.40359"/><path d="M258.33308,201.83895l-0.15533,9.80422"/><path d="M281.01126,201.32465l-3.97699,-4.49516"/><path d="M281.18996,190.04975l7.63477,3.58962"/><path d="M293.38507,186.86801l-6.45175,-1.60382"/><path d="M291.46252,180.45361l3.19872,2.51767"/><path d="M300.52799,144.84298l-4.10125,3.34822"/><path d="M297.74945,141.35315l-3.67328,1.88597"/><path d="M279.31657,123.57331l-3.85089,9.2314"/><path d="M273.03286,133.77351l2.81629,-9.74302"/><path d="M255.33873,132.10227l-1.47619,-9.0309"/><path d="M233.96332,124.13122l5.8849,10.275"/><path d="M227.4949,129.00321l2.44656,8.17417"/><path d="M265.20279,209.19546l-1.93027,-5.92419"/><path d="M295.31856,173.83129l3.08896,1.77983"/><path d="M300.7825,168.79475l-4.81583,-0.09904"/><path d="M303.4407,161.98424l-4.56513,1.9657l-2.27171,0.29652"/><path d="M305.24915,155.15613l-6.85863,3.63479l-1.39467,-1.40169"/><path d="M297.61686,153.96945l4.90281,-5.39133"/><path d="M293.37782,135.34612l-4.04206,4.72249"/><path d="M289.38531,133.67756l-4.31451,4.03037"/><path d="M284.32257,128.73889l-3.78055,6.10092"/><path d="M268.84496,129.23251l1.53604,-7.52017"/><path d="M266.12785,129.25663l0.08699,-5.49037"/><path d="M259.03705,123.60328l3.51419,10.71336"/></g><path d="M271.96263,209.04993l-2.61181,-6.45201"/><path d="M272.40146,200.13421l4.06648,6.26233"/><path d="M267.77664,210.33689l-0.56228,-2.07116l-0.84889,-4.71714"/><path d="M248.31955,123.77829l0.21574,7.25102"/><path d="M244.59364,124.90844l1.08108,6.88746"/><path d="M238.82833,121.86682l2.89748,8.84163"/><path d="M228.97365,199.24094l3.04518,-4.39974"/><path d="M241.01151,209.44312l3.46195,-7.87611"/><path d="M237.88087,200.4539l-3.04517,4.39975"/><path d="M255.06239,205.26971l-1.60687,7.51869"/><path d="M292.69489,177.55317l6.74895,5.97423"/></g><g fill="none" stroke="#000000" stroke-width="1.5" stroke-linecap="round"><path d="M216.06926,197.1642l2.01105,1.82916"/><path d="M223.4508,197.58186l-3.16099,-2.92799"/><path d="M212.51344,196.44733l0.93888,6.35836"/><path d="M224.6362,187.7263l2.3421,1.89309"/><path d="M208.99497,198.45702l0.33022,3.37013"/><path d="M204.73071,197.80696l0.10367,7.50401"/><path d="M192.88293,192.35151l-4.04376,5.07966"/><path d="M188.71998,188.80162l-5.35196,2.75349"/><path d="M184.69787,185.14323l-4.52192,1.23262"/><path d="M181.52654,181.46481l-2.24283,1.92952"/><path d="M175.19275,154.21571l2.8722,2.55949"/><path d="M179.71467,152.98307l-2.57307,-1.44057"/><path d="M189.18056,139.99882l1.74822,3.33667"/><path d="M207.90804,140.30766l1.05665,-5.65479"/><path d="M219.87071,143.77874l3.04176,-5.70161"/><path d="M224.9495,141.78235l-1.06701,4.90432"/><path d="M201.22795,195.96305l-1.31879,7.2123"/><path d="M178.82794,176.39915l-2.16554,1.36472"/><path d="M175.00175,172.54852l3.37473,-0.07961"/><path d="M177.93231,169.06393l-1.59173,-0.22516l-3.198,-1.50093"/><path d="M177.66122,163.8158l-0.97806,1.074l-4.80426,-2.77665"/><path d="M173.79513,157.07611l3.43278,4.12266"/><path d="M183.03823,150.55268l-2.83,-3.61142"/><path d="M182.15711,144.26802l3.02125,3.08144"/><path d="M185.4625,139.16825l4.38518,7.30297"/><path d="M196.73833,136.04233l1.0724,5.75467"/><path d="M200.32612,137.0086l0.05804,4.20227"/><path d="M202.23608,145.89622l2.46824,-8.20274"/><g><path d="M216.66256,196.39955l-1.91651,-1.8314"/><path d="M218.76105,191.84618l3.01241,2.93152"/><path d="M211.88915,202.89262l-0.89835,-6.35927"/><path d="M225.35144,190.85295l-2.58055,-2.10394"/><path d="M208.32621,199.22345l-0.31673,-3.37043"/><path d="M204.0515,202.70219l-0.10367,-7.50399"/><path d="M186.34714,194.558l2.65418,-3.44052"/><path d="M185.98135,187.42112l-5.09534,2.74743"/><path d="M180.55465,183.73969l4.3058,-1.22754"/><path d="M181.8377,178.83022l-2.13478,1.92697"/><path d="M178.52468,154.13711l-2.73711,-2.56268"/><path d="M180.95508,150.92132l-3.31318,-2.01795"/><path d="M192.51379,143.88362l-2.57003,-7.06555"/><path d="M192.25786,135.42235l1.87956,7.45716"/><path d="M207.93864,132.04986l-0.98519,6.91211"/><path d="M221.22468,135.4897l-3.92749,7.86432"/><path d="M223.1671,139.19711l-1.6328,6.25638"/><path d="M199.36305,200.82875l1.28824,-4.53428"/><path d="M177.20272,175.12386l2.06153,-1.36226"/><path d="M175.6177,169.90674l3.21402,-0.07581"/><path d="M178.40643,166.42554l-1.51611,-0.22696l-3.04672,-1.50449"/><path d="M178.14484,161.17714l-0.93079,1.07283l-4.57734,-2.78201"/><path d="M177.73041,158.55969l-3.27206,-4.12643"/><path d="M180.55945,144.30569l2.69762,3.61452"/><path d="M186.77256,145.21266l-2.87943,-3.08477"/><path d="M186.23005,138.93249l2.52307,4.66955"/><path d="M196.29536,133.4255l1.02512,5.7558"/><path d="M198.7457,139.6449l-0.05804,-4.20223"/><path d="M203.88314,135.0856l-2.34532,8.19983"/></g><path d="M196.59472,197.52354l-1.74308,3.19382"/><path d="M194.55877,193.89342l-2.71392,4.79309"/><path d="M198.58712,195.06115l-0.56654,5.05599l-0.37526,1.58523"/><path d="M211.13072,133.45188l-0.14398,5.54982"/><path d="M213.78882,134.06375l-0.7215,5.27155"/><path d="M215.03131,140.75611l1.93373,-6.76723"/><path d="M223.54189,193.20972l-2.03231,-3.36747"/><path d="M213.19755,194.99006l2.31045,6.02823"/><path d="M217.59735,194.1381l2.03231,3.3675"/><path d="M206.13065,197.82404l1.0724,5.75467"/><path d="M176.5111,181.18286l4.50415,-4.57259"/></g><g stroke-linecap="butt"><path d="M301.65693,155.84225c0,-4.4994 3.64749,-8.1469 8.14691,-8.1469c4.49941,0 8.14691,3.64748 8.14691,8.1469c0,4.4994 -3.64749,8.14691 -8.14691,8.14691c-4.49941,0 -8.14691,-3.64749 -8.14691,-8.14691z" fill="#5100a4" stroke="#000000" stroke-width="2.5"/><path d="M308.09936,156.98567c0,-1.96651 1.59418,-3.56069 3.5607,-3.56069c1.96651,0 3.56068,1.59418 3.56068,3.56069c0,1.96651 -1.59417,3.5607 -3.56068,3.5607c-1.96651,0 -3.5607,-1.59419 -3.5607,-3.5607z" fill="#000000" stroke="none" stroke-width="0.5"/><path d="M298.14592,157.34393c-0.12546,-7.501 5.74198,-13.69804 13.10529,-13.84148c7.3633,-0.14345 13.4341,5.82102 13.55957,13.32198c0.12546,7.501 -5.74195,13.69804 -13.10525,13.84148c-7.3633,0.14345 -13.43414,-5.82101 -13.5596,-13.32198z" fill="url(#color-2)" stroke="#000000" stroke-width="0"/></g><g fill="#000000" stroke="#000000" stroke-width="1.5" stroke-linecap="butt"><path d="M312.04159,137.99483l8.93941,-5.87525l-4.22616,9.65624z"/><g><path d="M300.35382,136.27301l1.985,-10.3299l4.07222,9.78635z"/><path d="M306.36915,136.13315l6.6503,-8.2548l-0.98765,10.47236z"/></g></g><g fill="none" stroke="#000000" stroke-width="1.5" stroke-linecap="round"><path d="M284.56514,138.96199l2.0276,0.95258"/><path d="M283.878,142.91562l-3.19984,-1.53894"/><path d="M289.56711,139.61637l-2.28218,-4.77966"/><path d="M282.13596,149.42595l-2.30383,-0.92261"/><path d="M291.85041,137.17995l-1.07778,-2.57399"/><path d="M295.36641,136.65722l-1.90239,-5.88456"/><path d="M306.02065,138.07892l1.95211,-4.9816"/><path d="M310.16051,139.86451l3.54679,-3.46706"/><path d="M317.47788,139.70181l-3.26212,2.06792"/><path d="M318.90398,141.83339l-1.29815,2.06377"/><path d="M329.20554,163.82011l-2.883,-1.3188"/><path d="M325.94345,165.88805l2.37593,0.51019"/><path d="M319.45274,176.20686l2.18639,2.20358"/><path d="M307.35547,187.42094l-0.5399,-4.70976"/><path d="M295.54017,188.10842l1.01209,-5.22829"/><path d="M292.68721,181.56344l0.34965,4.12124"/><path d="M297.861,131.25953l0.71137,5.99996"/><path d="M320.9602,147.23179l1.37432,-1.60021"/><path d="M324.90774,149.33594l-2.63842,0.88153"/><path d="M323.44527,152.79126l1.30818,-0.20889l2.88273,0.40609"/><path d="M324.93217,156.8586l0.50967,-1.08313l4.45726,1.02104"/><path d="M329.6122,161.22829l-3.70376,-2.41384"/><path d="M323.91571,168.60849l3.105,2.15748"/><path d="M323.0075,171.65044l3.12703,1.69369"/><path d="M324.76876,178.16241l-5.22547,-4.68738"/><path d="M314.40621,179.08829l2.24085,4.27183"/><path d="M313.58705,183.46967l-1.06533,-3.29537"/><path d="M309.92648,176.93375l0.04644,7.05887"/><g><path d="M288.26473,141.63801l-1.95369,-0.97729"/><path d="M285.76327,144.75586l-3.08369,-1.57777"/><path d="M288.49487,134.38896l2.25048,4.79021"/><path d="M283.35679,148.16794l-2.54278,-1.0308"/><path d="M293.25829,138.99158l-1.06723,-2.5775"/><path d="M296.61593,138.52178l-1.90239,-5.88454"/><path d="M307.3755,138.51301l1.25548,-3.35355"/><path d="M314.1649,138.52667l-3.34616,3.40003"/><path d="M317.81925,141.86978l-3.09314,2.01148"/><path d="M319.21369,144.01196l-1.21367,2.03554"/><path d="M329.37798,166.04454l-2.77738,-1.35409"/><path d="M328.56571,168.59805l-3.09889,-0.78532"/><path d="M321.80987,181.10059l-3.73836,-4.94082"/><path d="M320.32603,182.76126l-3.28961,-5.41676"/><path d="M308.7951,189.22196l-0.90125,-5.68261"/><path d="M298.68206,182.59019l-1.18489,7.14642"/><path d="M295.06784,187.28819l-0.23213,-5.32333"/><path d="M298.86046,132.97506l0.08564,3.8835"/><path d="M321.25649,149.41482l1.293,-1.57304"/><path d="M325.06369,151.5659l-2.51278,0.83954"/><path d="M323.71209,154.98414l1.24907,-0.18912l2.76446,0.4456"/><path d="M325.19158,159.05399l0.47273,-1.07074l4.27986,1.08032"/><path d="M326.15305,161.01477l3.5781,2.45581"/><path d="M324.3821,170.73476l3.0015,2.19204"/><path d="M326.57129,175.48019l-3.01614,-1.73073"/><path d="M321.1015,175.46905l3.12002,3.06527"/><path d="M317.63086,185.31348l-2.20389,-4.28419"/><path d="M314.1921,181.01002l1.06532,3.29534"/><path d="M311.10983,178.8204l0.14254,7.02676"/></g><path d="M302.44041,131.96812l-0.59781,2.9382"/><path d="M304.32678,137.27122l0.97434,-4.43325"/><path d="M300.87093,137.32901l-0.78059,-4.11926l-0.0891,-1.33948"/><path d="M304.61635,182.79029l1.2332,4.40564"/><path d="M302.98832,184.72878l0.71086,4.32662"/><path d="M301.09686,184.08638l0.11909,5.79866"/><path d="M281.66732,144.84202l2.4176,2.15891"/><path d="M286.09961,136.74314l3.28224,4.18687"/><path d="M286.12361,142.66851l-2.4176,-2.15893"/><path d="M294.25977,136.98346l-2.24085,-4.27183"/><path d="M319.18639,147.59625l2.43772,-4.69397"/></g><path d="M151.7577,164.89675c0,-2.56384 2.07841,-4.64226 4.64226,-4.64226c2.56384,0 4.64226,2.07841 4.64226,4.64226c0,2.56384 -2.07842,4.64226 -4.64226,4.64226c-2.56384,0 -4.64226,-2.07841 -4.64226,-4.64226z" fill="#5100a4" stroke="#000000" stroke-width="0" stroke-linecap="butt"/><path d="M145.09742,165.14712c-0.10845,-6.48415 4.96359,-11.8411 11.32871,-11.9651c6.36511,-0.12401 11.61294,5.03191 11.72141,11.51602c0.10845,6.48415 -4.96356,11.8411 -11.32868,11.96509c-6.36511,0.12401 -11.61298,-5.0319 -11.72143,-11.51601z" fill="url(#color-3)" stroke="#000000" stroke-width="0" stroke-linecap="butt"/><path d="M145.91341,165.03299c-0.09888,-5.91201 4.52562,-10.7963 10.32912,-10.90936c5.80349,-0.11306 10.58828,4.58793 10.68717,10.49991c0.09888,5.91201 -4.5256,10.7963 -10.32909,10.90936c-5.80349,0.11306 -10.58831,-4.58792 -10.68719,-10.49991z" fill="url(#color-4)" stroke="#000000" stroke-width="0" stroke-linecap="butt"/><g fill="none"><path d="M396.91693,160.75884c4.09629,1.80289 3.50465,1.11451 8.31923,3.23357c10.78828,4.74825 22.98661,9.17189 22.98661,9.17189l-20.67728,-0.62621l-0.02922,-5.86863" data-paper-data="{&quot;index&quot;:null}" stroke="#5100a4" stroke-width="15" stroke-linecap="round"/><g><path d="M316.05916,138.42057l2.14683,-14.55097" stroke="#000000" stroke-width="1.5" stroke-linecap="round"/><path d="M320.72888,141.90119l1.44088,-17.32604" stroke="#000000" stroke-width="1.5" stroke-linecap="round"/><g><path d="M326.0589,143.9204l-0.01475,-17.63867" stroke="#000000" stroke-width="1.5" stroke-linecap="round"/><path d="M330.42579,144.85829l0.15307,-18.33137" stroke="#000000" stroke-width="1.5" stroke-linecap="round"/><path d="M334.05396,146.94923l0.64555,-19.10008" stroke="#000000" stroke-width="1.5" stroke-linecap="round"/><path d="M338.57774,148.5038l0.7915,-17.17402" stroke="#000000" stroke-width="1.5" stroke-linecap="round"/><path d="M342.8662,149.13331l1.42994,-16.01665" stroke="#000000" stroke-width="1.5" stroke-linecap="round"/><path d="M346.16964,151.30028l2.24713,-16.86139" stroke="#000000" stroke-width="1.5" stroke-linecap="round"/><path d="M351.09274,134.13912l-0.89181,19.48444" stroke="#000000" stroke-width="1.5" stroke-linecap="round"/><g><g><g stroke="#000000" stroke-width="1.5" stroke-linecap="round"><path d="M318.37353,139.05167l2.14683,-14.55096"/><path d="M323.04324,142.53229l1.44088,-17.32604"/><path d="M328.37327,144.55151l-0.01475,-17.63867"/><path d="M332.89323,127.15803l-0.15306,18.33137"/><path d="M336.36833,147.58032l0.64555,-19.10008"/><path d="M341.6836,131.96088l-0.7915,17.17402"/><path d="M346.6105,133.74777l-1.42994,16.01665"/><path d="M348.48401,151.93139l2.24714,-16.86139"/><path d="M352.5153,154.25468l0.89181,-19.48445"/><path d="M359.54339,137.25409l-2.7287,16.32072"/><path d="M365.60125,139.42962l-4.27371,17.00914"/><path d="M369.95721,141.67688l-3.6134,15.54772"/><path d="M374.79473,144.4648l-4.82278,14.85075"/><path d="M380.30352,144.48195l-4.99059,15.54344"/><path d="M379.75826,161.2716l4.82278,-14.85075"/><path d="M383.38641,163.36254l4.58747,-15.77577"/></g><g stroke="none" stroke-width="1" stroke-linecap="butt" font-family="sans-serif" font-weight="normal" font-size="12" text-anchor="start"><g/></g><path d="M354.50032,152.9437l2.72871,-16.32071" stroke="#000000" stroke-width="1.5" stroke-linecap="round"/><path d="M363.28687,138.79852l-4.27371,17.00914" stroke="#000000" stroke-width="1.5" stroke-linecap="round"/><path d="M367.64284,141.04578l-3.61339,15.54772" stroke="#000000" stroke-width="1.5" stroke-linecap="round"/><path d="M367.65759,158.68446l4.82278,-14.85075" stroke="#000000" stroke-width="1.5" stroke-linecap="round"/><path d="M372.99856,159.39429l4.99059,-15.54345" stroke="#000000" stroke-width="1.5" stroke-linecap="round"/><path d="M377.4439,160.64049l4.82278,-14.85074" stroke="#000000" stroke-width="1.5" stroke-linecap="round"/><path d="M381.07204,162.73145l4.58747,-15.77577" stroke="#000000" stroke-width="1.5" stroke-linecap="round"/><path d="M390.18329,148.51022l-4.91215,15.85179" stroke="#000000" stroke-width="1.5" stroke-linecap="round"/></g></g></g></g><g stroke="#000000" stroke-linecap="round"><path d="M286.50571,98.47593" stroke-width="1.5"/><g><path d="" stroke-width="1.5"/><path d="" stroke-width="1.5"/><path d="" stroke-width="1.5"/><path d="" stroke-width="1.5"/><path d="" stroke-width="1.5"/><path d="M301.04543,127.2646" stroke-width="1.5"/><path d="M303.95339,130.17255" stroke-width="1.5"/><g><g><g stroke-width="1.5"><path d="M285.12753,98.06597"/><path d=""/><path d=""/><path d=""/><path d=""/><path d="M302.866,128.30861"/><path d="M305.77395,131.21657"/><path d="M309.55428,131.50734"/><path d="M312.75302,134.9969"/><path d="M316.82415,136.74166"/><path d="M319.44129,139.35882"/><path d="M323.80322,141.10359"/><path d="M327.29275,143.13915"/><path d="M329.9099,145.7563"/></g><g stroke-width="10"><path d="M236.3943,183.11909l5.532,-41.63753l12.55365,78.08846l1.24692,-7.24815" data-paper-data="{&quot;index&quot;:null}"/><g><path d="M164.72041,214.75858l-0.05034,7.00007l34.74295,-94.33074l2.20424,47.34851"/><path d="M205.83161,207.19549l-3.70909,5.53449l0.90064,7.32049l17.29388,-80.13678l3.96296,42.29943"/></g></g><path d="M307.73372,130.46334" stroke-width="1.5"/><path d="" stroke-width="1.5"/><path d="M315.00359,135.69765" stroke-width="1.5"/><path d="M317.62073,138.31481" stroke-width="1.5"/><path d="M321.98266,140.05958" stroke-width="1.5"/><path d="M325.47219,142.09514" stroke-width="1.5"/><path d="M328.08934,144.71229" stroke-width="1.5"/><path d="M331.28809,147.03864" stroke-width="1.5"/></g></g></g></g><path d="M258.40049,188.8183l53.50565,-60.2847l117.34369,44.5298l-19.40436,-0.85692l1.07486,-5.36503" data-paper-data="{&quot;index&quot;:null}" stroke="#000000" stroke-width="10" stroke-linecap="round"/></g></g></g></svg>