<svg version="1.1" xmlns="http://www.w3.org/2000/svg" xmlns:xlink="http://www.w3.org/1999/xlink" width="32.30816" height="51.97209" viewBox="0,0,32.30816,51.97209"><g transform="translate(-225.88848,-143.3044)"><g data-paper-data="{&quot;isPaintingLayer&quot;:true}" fill-rule="nonzero" stroke="#000000" stroke-width="1" stroke-linejoin="miter" stroke-miterlimit="10" stroke-dasharray="" stroke-dashoffset="0" style="mix-blend-mode: normal"><path d="M227.79585,191.75297c5.47389,-5.41673 8.83114,-0.61634 9.72993,-0.61634c0.07869,0 2.0082,-4.13553 1.53831,-7.40162c-0.43853,-3.04804 1.04162,-7.52027 1.07891,-11.10655c0.17482,-4.16379 1.12239,-5.81117 1.12239,-5.81117l4.49281,-0.54629c0,0 -1.68088,3.52448 -1.59329,6.42888c-0.03912,2.12253 -1.109,8.49918 -1.06363,10.3278c0.11339,4.57082 -0.28838,7.9857 -0.15811,7.9857c1.30497,0 4.55653,-3.67314 9.18034,0.73959c4.62336,4.41232 -9.01926,1.72572 -9.01926,1.72572c0,0 -2.57025,0.61633 -3.86541,0.61633c-1.30867,0 -3.94648,-0.61633 -3.94648,-0.61633c0,0 -13.13737,3.85622 -7.49652,-1.72572z" fill="#155b00" stroke-linecap="butt"/><path d="M243.7078,190.54509l2.7796,-4.79071l3.13561,-3.91571l2.19995,-1.37271l2.16389,0.65172l0.97924,1.52625l0.28467,1.40398l-1.38088,2.32922l-4.23103,4.12904l-4.78291,2.9488l-4.88044,1.03621l-4.50578,-1.74091l-4.50539,-3.50088l-2.77761,-4.00899l-0.74773,-1.48548l-0.09754,-1.91257l0.26762,-1.98368l1.63897,-1.60686l1.51408,-0.68115l1.37137,0.3768l1.57593,1.49591l1.17471,3.59142l2.10004,7.27437c0,0 1.61066,-0.66413 2.44023,-0.5181c0.96388,0.1697 3.00083,1.47598 3.00083,1.47598z" fill="#081e00" stroke-linecap="round"/><path d="M233.55,179.47557l-1.88541,3.50196l-4.07203,-1.36158" fill="none" stroke-linecap="round"/><path d="M234.58062,182.68845l-1.88541,3.50196l-4.07205,-1.36158" fill="none" stroke-linecap="round"/><path d="M253.73989,185.38823l-3.40519,-0.46141l-0.13545,-3.70718" fill="none" stroke-linecap="round"/><path d="M251.22203,187.8295l-3.35427,-0.45451l-0.13342,-3.65176" fill="none" stroke-linecap="round"/><path d="M257.69664,157.85401c-0.1678,0.70934 -1.42571,-2.26472 -2.52787,-2.65775c-0.42171,-0.15038 -1.02736,1.2453 -1.02736,1.2453c0,0 -0.4548,-1.35794 -0.993,-1.44293c-0.37626,-0.05942 -0.78131,1.45759 -0.78131,1.45759c0,0 -0.62535,-1.07683 -1.26968,-1.06657c-0.2756,0.00439 -0.27754,1.32211 -0.27754,1.32211c0,0 -0.84378,-0.73457 -1.56654,-0.75438c-0.52144,-0.0143 -0.23062,1.6025 -0.23062,1.6025c0,0 -0.95882,-0.60497 -1.52536,-0.59122c-0.99088,0.02402 -1.737,1.49622 -1.98605,1.79427c-0.30509,0.36514 -0.83702,1.00094 -0.12968,1.59412c0.55126,0.46227 1.92539,0.30101 1.92539,0.30101c0,0 -1.49833,1.06089 -1.09046,1.3685c0.50881,0.38376 1.8739,0.23022 1.8739,0.23022c0,0 -1.06358,1.14641 -0.63448,1.40202c0.41637,0.24805 1.6378,0.09671 1.6378,0.09671c0,0 -0.68764,0.96538 -0.24402,1.22365c0.3449,0.20081 1.57697,-0.09264 1.57697,-0.09264c0,0 -0.25,0.47649 -0.00571,0.88253c0.37509,0.62348 2.19974,0.55908 1.99534,0.81989c-1.10486,1.40964 -7.75403,1.63221 -9.93866,1.11544c-7.2592,-1.71722 -9.41991,-6.7046 -8.87078,-10.45691c0.0335,-0.22892 -2.47068,-1.99258 -1.93509,-2.55957c0.45066,-0.47707 3.66338,-0.64383 3.5575,-1.09303c-0.15677,-0.6652 -2.54459,-1.97464 -2.23158,-2.4176c0.34419,-0.48711 3.01074,0.47724 3.20288,-0.09994c0.21499,-0.64584 -1.33591,-2.28392 -0.96048,-2.71663c0.52807,-0.60859 2.46628,1.17632 2.94261,0.52105c0.39549,-0.54406 -0.59815,-2.51488 -0.14305,-2.91831c0.44046,-0.39044 2.29498,1.5464 2.6844,1.17869c0.69684,-0.65799 -0.6728,-2.41502 0.08072,-2.75223c0.69141,-0.30941 1.78076,1.74017 2.45051,1.60299c0.60759,-0.12446 2.02283,-1.8144 2.02283,-1.8144c0,0 1.17847,2.08227 1.66856,2.08256c1.42285,0.00084 0.5543,-1.39654 2.01982,-1.04984c0.47984,0.11351 0.97318,2.28026 1.42744,2.42493c0.78766,0.25087 2.01945,-2.24621 2.72222,-1.96212c0.55526,0.22445 0.06495,2.62441 0.55157,2.93337c0.63325,0.40205 2.63363,-2.23913 3.19141,-1.81007c0.54484,0.41913 -0.3334,3.01655 0.03873,3.64723c1.60284,2.71646 1.53072,4.31525 0.79877,7.40947z" fill="#0f0f0f" stroke-linecap="butt"/><path d="M254.40601,155.23706c-0.41243,-0.1471 -0.42291,1.24936 -0.42291,1.24936c0,0 -1.02947,-1.35147 -1.5566,-1.43254c-0.36849,-0.05666 -0.31491,1.32766 -0.31491,1.32766c0,0 -1.06687,-0.93809 -1.69869,-0.92341c-0.27025,0.00629 -0.0177,1.3208 -0.0177,1.3208c0,0 -1.08574,-0.72692 -1.79425,-0.74171c-0.51115,-0.01066 0.28989,1.66607 0.28989,1.66607c0,0 -1.46299,-0.66274 -2.01854,-0.64512c-0.97166,0.03081 -1.7134,1.50456 -1.95963,1.80362c-0.30167,0.36635 -0.8276,1.00428 -0.13816,1.59111c0.53729,0.45732 1.88568,0.28696 1.88568,0.28696c0,0 -1.47639,1.06865 -1.0786,1.3727c0.49622,0.37929 1.83567,0.21671 1.83567,0.21671c0,0 -1.05069,1.15094 -0.63178,1.40299c0.4065,0.24457 1.60513,0.08515 1.60513,0.08515c0,0 -0.68088,0.96778 -0.24772,1.22235c0.33678,0.19792 1.5468,-0.10331 1.5468,-0.10331c0,0 -0.2484,0.47707 -0.01169,0.88042c0.36345,0.61936 2.1529,0.54251 1.95067,0.80409c-1.093,1.41383 -7.61377,1.68184 -9.75214,1.18142c-7.10545,-1.66282 -8.8189,-5.09426 -8.2546,-8.84118c0.01478,-0.09817 3.07062,-8.18684 7.80735,-9.8047c8.15135,-2.78415 11.5322,1.62983 11.73786,1.9873c1.55273,2.69875 2.31678,4.47771 1.23889,4.09329z" fill="#155b00" stroke-linecap="butt"/><path d="M244.32642,159.05496c0,0 -3.634,-1.77264 -3.53314,-3.20774c0.13773,-1.95985 4.2839,-7.47568 4.2839,-7.47568l2.7677,-0.10103c0,0 -4.19569,5.16995 -4.32346,6.92338c-0.0767,1.05248 2.36565,2.08353 2.36565,2.08353z" fill="#0f0f0f" stroke-linecap="butt"/><path d="M239.57905,169.86238c0,0 -0.14013,-1.24803 0.41754,-1.82937c0.51369,-0.53551 1.69755,-0.41103 2.36996,-0.3478c0.92323,0.08681 2.83122,0.40971 2.83122,0.40971c0,0 0.21313,0.7853 0.17747,1.16458c-0.03566,0.37928 -0.39145,1.1111 -0.39145,1.1111c0,0 -2.03923,0.09522 -3.01358,0.0036c-0.78686,-0.07399 -2.39116,-0.51181 -2.39116,-0.51181z" fill="#0f0f0f" stroke-linecap="butt"/><path d="M235.11574,194.55118c0,0 -0.66667,-0.81857 -0.66667,-1.24619c0,-0.45356 0.66667,-1.40196 0.66667,-1.40196h10.33333c0,0 0.66667,0.94839 0.66667,1.40196c0,0.42763 -0.66667,1.24619 -0.66667,1.24619z" fill="#0f0f0f" stroke-linecap="butt"/></g></g></svg>