<svg version="1.1" xmlns="http://www.w3.org/2000/svg" xmlns:xlink="http://www.w3.org/1999/xlink" width="482.48048" height="363.44906" viewBox="0,0,482.48048,363.44906"><defs><linearGradient x1="124.47474" y1="158.83143" x2="124.34163" y2="179.65192" gradientUnits="userSpaceOnUse" id="color-1"><stop offset="0" stop-color="#000000"/><stop offset="1" stop-color="#000000"/></linearGradient><linearGradient x1="109.66527" y1="162.3893" x2="138.6129" y2="162.3893" gradientUnits="userSpaceOnUse" id="color-2"><stop offset="0" stop-color="#3f2e16"/><stop offset="1" stop-color="#523e22"/></linearGradient><linearGradient x1="114.65427" y1="158.21773" x2="132.94481" y2="158.21773" gradientUnits="userSpaceOnUse" id="color-3"><stop offset="0" stop-color="#3f2e16"/><stop offset="1" stop-color="#523e22"/></linearGradient><linearGradient x1="110.36242" y1="186.23474" x2="133.81148" y2="186.23474" gradientUnits="userSpaceOnUse" id="color-4"><stop offset="0" stop-color="#3f2e16"/><stop offset="1" stop-color="#523e22"/></linearGradient><radialGradient cx="123.07983" cy="180.72623" r="46.54671" gradientUnits="userSpaceOnUse" id="color-5"><stop offset="0" stop-color="#00a616" stop-opacity="0"/><stop offset="1" stop-color="#00a616"/></radialGradient><radialGradient cx="158.81678" cy="177.56499" r="12.26254" gradientUnits="userSpaceOnUse" id="color-6"><stop offset="0" stop-color="#00a616"/><stop offset="1" stop-color="#00a616" stop-opacity="0"/></radialGradient><linearGradient x1="146.55424" y1="177.56499" x2="171.07932" y2="177.56499" gradientUnits="userSpaceOnUse" id="color-7"><stop offset="0" stop-color="#00b219"/><stop offset="1" stop-color="#007f11"/></linearGradient><radialGradient cx="311.54059" cy="162.98571" r="37.54636" gradientUnits="userSpaceOnUse" id="color-8"><stop offset="0" stop-color="#14ac00"/><stop offset="1" stop-color="#14ac00" stop-opacity="0"/></radialGradient><radialGradient cx="331.52755" cy="183.04491" r="60.02314" gradientUnits="userSpaceOnUse" id="color-9"><stop offset="0" stop-color="#14ac00"/><stop offset="1" stop-color="#14ac00" stop-opacity="0"/></radialGradient><radialGradient cx="332.36437" cy="205.90148" r="37.54645" gradientUnits="userSpaceOnUse" id="color-10"><stop offset="0" stop-color="#14ac00"/><stop offset="1" stop-color="#14ac00" stop-opacity="0"/></radialGradient><radialGradient cx="356.82414" cy="183.37572" r="37.54636" gradientUnits="userSpaceOnUse" id="color-11"><stop offset="0" stop-color="#14ac00"/><stop offset="1" stop-color="#14ac00" stop-opacity="0"/></radialGradient><radialGradient cx="306.88653" cy="183.20249" r="37.54645" gradientUnits="userSpaceOnUse" id="color-12"><stop offset="0" stop-color="#14ac00"/><stop offset="1" stop-color="#14ac00" stop-opacity="0"/></radialGradient><radialGradient cx="306.83141" cy="211.2853" r="24.26467" gradientUnits="userSpaceOnUse" id="color-13"><stop offset="0" stop-color="#14ac00"/><stop offset="1" stop-color="#14ac00" stop-opacity="0"/></radialGradient><radialGradient cx="359.03285" cy="210.52989" r="24.26458" gradientUnits="userSpaceOnUse" id="color-14"><stop offset="0" stop-color="#14ac00"/><stop offset="1" stop-color="#14ac00" stop-opacity="0"/></radialGradient><radialGradient cx="367.77434" cy="182.82115" r="24.26467" gradientUnits="userSpaceOnUse" id="color-15"><stop offset="0" stop-color="#14ac00"/><stop offset="1" stop-color="#14ac00" stop-opacity="0"/></radialGradient><radialGradient cx="332.71615" cy="143.09956" r="24.26466" gradientUnits="userSpaceOnUse" id="color-16"><stop offset="0" stop-color="#14ac00"/><stop offset="1" stop-color="#14ac00" stop-opacity="0"/></radialGradient><radialGradient cx="305.02591" cy="152.64085" r="24.26458" gradientUnits="userSpaceOnUse" id="color-17"><stop offset="0" stop-color="#14ac00"/><stop offset="1" stop-color="#14ac00" stop-opacity="0"/></radialGradient><radialGradient cx="292.1756" cy="177.73701" r="24.26467" gradientUnits="userSpaceOnUse" id="color-18"><stop offset="0" stop-color="#14ac00"/><stop offset="1" stop-color="#14ac00" stop-opacity="0"/></radialGradient><radialGradient cx="332.80788" cy="151.27002" r="37.54645" gradientUnits="userSpaceOnUse" id="color-19"><stop offset="0" stop-color="#14ac00"/><stop offset="1" stop-color="#14ac00" stop-opacity="0"/></radialGradient><radialGradient cx="331.282" cy="219.09504" r="24.26467" gradientUnits="userSpaceOnUse" id="color-20"><stop offset="0" stop-color="#14ac00"/><stop offset="1" stop-color="#14ac00" stop-opacity="0"/></radialGradient><radialGradient cx="361.4247" cy="153.72068" r="24.26466" gradientUnits="userSpaceOnUse" id="color-21"><stop offset="0" stop-color="#14ac00"/><stop offset="1" stop-color="#14ac00" stop-opacity="0"/></radialGradient><radialGradient cx="352.7964" cy="164.8831" r="37.54636" gradientUnits="userSpaceOnUse" id="color-22"><stop offset="0" stop-color="#14ac00"/><stop offset="1" stop-color="#14ac00" stop-opacity="0"/></radialGradient><radialGradient cx="312.35292" cy="199.41612" r="37.54637" gradientUnits="userSpaceOnUse" id="color-23"><stop offset="0" stop-color="#14ac00"/><stop offset="1" stop-color="#14ac00" stop-opacity="0"/></radialGradient><radialGradient cx="347.98616" cy="198.09435" r="37.54636" gradientUnits="userSpaceOnUse" id="color-24"><stop offset="0" stop-color="#14ac00"/><stop offset="1" stop-color="#14ac00" stop-opacity="0"/></radialGradient><radialGradient cx="331.14072" cy="178.58562" r="63.94841" gradientUnits="userSpaceOnUse" id="color-25"><stop offset="0" stop-color="#14ac00"/><stop offset="1" stop-color="#14ac00" stop-opacity="0"/></radialGradient><linearGradient x1="331.97474" y1="160.83143" x2="331.84163" y2="181.65192" gradientUnits="userSpaceOnUse" id="color-26"><stop offset="0" stop-color="#000000"/><stop offset="1" stop-color="#000000"/></linearGradient><linearGradient x1="317.16527" y1="164.3893" x2="346.1129" y2="164.3893" gradientUnits="userSpaceOnUse" id="color-27"><stop offset="0" stop-color="#3f2e16"/><stop offset="1" stop-color="#523e22"/></linearGradient><linearGradient x1="322.15427" y1="160.21773" x2="340.44481" y2="160.21773" gradientUnits="userSpaceOnUse" id="color-28"><stop offset="0" stop-color="#3f2e16"/><stop offset="1" stop-color="#523e22"/></linearGradient><linearGradient x1="317.86242" y1="188.23474" x2="341.31148" y2="188.23474" gradientUnits="userSpaceOnUse" id="color-29"><stop offset="0" stop-color="#3f2e16"/><stop offset="1" stop-color="#523e22"/></linearGradient></defs><g transform="translate(1.24024,1.72453)"><g data-paper-data="{&quot;isPaintingLayer&quot;:true}" fill-rule="nonzero" stroke-linejoin="miter" stroke-miterlimit="10" stroke-dasharray="" stroke-dashoffset="0" style="mix-blend-mode: normal"><path d="M-0.24024,360.72453v-361.44906h480.48048v361.44906z" fill="#3e3e3e" stroke="#000000" stroke-width="2" stroke-linecap="butt"/><text transform="translate(31.17301,82.38768) scale(1.77414,1.77414)" font-size="40" xml:space="preserve" fill="#000000" fill-rule="nonzero" stroke="#000000" stroke-width="2" stroke-linecap="butt" stroke-linejoin="miter" stroke-miterlimit="10" stroke-dasharray="" stroke-dashoffset="0" font-family="Handwriting" font-weight="normal" text-anchor="start" style="mix-blend-mode: normal"><tspan x="0" dy="0">Energy Shield</tspan></text><g><g><path d="M113.34749,170.22068c0.04042,-6.32367 5.02228,-11.42274 11.1273,-11.38917c6.10498,0.03356 11.02129,5.1871 10.98087,11.51073c-0.04042,6.32367 -4.3394,10.29453 -10.44437,10.26098c-6.10498,-0.03356 -11.70415,-4.05887 -11.66373,-10.38251z" fill="#000000" stroke="url(#color-1)" stroke-width="0.5" stroke-linecap="butt"/><path d="M122.76349,170.76476c0.25919,-2.0375 1.69551,-3.45772 3.20812,-3.17216c1.5126,0.28557 2.52867,2.16876 2.26951,4.20626c-0.25919,2.0375 -1.69553,3.45772 -3.20812,3.17217c-1.5126,-0.28557 -2.52867,-2.16876 -2.26951,-4.20626z" fill="#ffffff" stroke="none" stroke-width="0" stroke-linecap="butt"/><path d="M129.25927,170.47937c0.23888,-2.0377 1.5558,-3.45886 2.94141,-3.17438c1.38564,0.2845 2.31519,2.16697 2.07628,4.20464c-0.23888,2.0377 -1.55582,3.45885 -2.94143,3.17438c-1.38564,-0.2845 -2.31519,-2.16696 -2.07629,-4.20462z" fill="#ffffff" stroke="none" stroke-width="0" stroke-linecap="butt"/><path d="M138.61289,162.44154c-0.01069,2.06435 -6.49951,3.71447 -14.49314,3.68562c-7.99368,-0.02886 -14.46516,-1.72573 -14.45446,-3.7901c0.01069,-2.06435 6.49952,-3.71447 14.49314,-3.68562c7.99368,0.02886 14.46514,1.72576 14.45446,3.7901z" fill="url(#color-2)" stroke="#000000" stroke-width="1" stroke-linecap="butt"/><path d="M114.66075,159.70959c0.18056,-0.60663 0.55994,-1.41623 0.76668,-2.26563c0.24119,-0.99101 0.29748,-1.98477 0.29748,-1.98477c0,0 5.30182,-2.80125 8.82742,-2.78629c3.52559,0.01494 7.91923,2.83548 7.91702,3.29171c-0.00305,0.64093 0.10181,2.1674 0.46238,3.47041c0.30937,1.11783 -4.9271,4.39849 -9.83007,4.32648c-4.46412,-0.06557 -8.63378,-3.40395 -8.44096,-4.05191z" fill="url(#color-3)" stroke="#000000" stroke-width="1" stroke-linecap="butt"/><path d="M126.48441,203.9072c0,0 0.10228,-2.96636 0.32946,-3.98065c0.36869,-1.6459 0.03024,-3.23838 0.36637,-4.32407c0.54507,-1.76055 0.98532,-5.27119 0.98532,-5.27119" fill="none" stroke="#000000" stroke-width="3" stroke-linecap="round"/><path d="M120.62058,203.66007c0,0 0.03541,-2.29219 0.29864,-3.23861c0.45361,-1.63085 0.16888,-3.15868 0.42997,-3.93976c0.58388,-1.74689 1.25735,-5.22999 1.25735,-5.22999" fill="none" stroke="#000000" stroke-width="3" stroke-linecap="round"/><path d="M110.62181,194.07711c0.18034,-0.48973 -0.27503,-2.36424 0.38952,-3.24228c0.75393,-0.99611 1.42743,-1.63596 1.63653,-2.25057c0.12845,-0.37746 -0.23582,-1.25494 -0.25495,-1.63486c-0.0471,-0.9351 0.68563,-0.99368 1.00862,-1.87367c0.24198,-0.65927 -0.03841,-1.73716 0.37191,-2.21109c0.70686,-0.81649 1.08304,-1.42141 1.27461,-2.01078c0.22653,-0.69697 -0.12796,-1.12696 -0.31624,-1.82941c-0.27772,-1.03611 -0.33034,-3.39756 -0.33034,-3.39756c0,0 6.61459,4.11289 10.06049,4.14921c3.53029,0.0372 8.19693,-2.99124 8.19693,-2.99124c0,0 0.31002,2.50148 0.23281,3.43247c0.31156,1.16175 0.66425,2.25256 0.89963,2.98656c0.19569,0.61026 -1.10351,2.39646 -0.87495,3.04821c0.11897,0.33923 0.98109,1.01957 0.71769,2.09663c-0.27238,1.11379 -1.24362,2.2165 -1.38933,2.7325c-0.11216,0.3972 0.27869,2.17238 0.24189,3.04681c-0.0679,1.61422 -1.4612,1.13618 -1.4612,1.13618c0,0 0.24728,0.00103 -2.54362,-0.17815c-1.69618,-0.10892 -4.62376,1.39788 -6.43196,0.76642c-4.04812,-1.41363 -5.66502,-0.07502 -7.31484,-0.08431c-2.07464,-0.01165 -2.80159,1.07444 -2.80159,1.07444c0,0 -2.33487,0.01315 -1.31166,-2.76552z" fill="url(#color-4)" stroke="#000000" stroke-width="1" stroke-linecap="butt"/><path d="M127.0946,180.25189c0,0 -0.26991,1.276 -0.27379,2.32162c-0.00137,0.36605 0.30596,1.45081 0.40366,2.07073c0.08707,0.55252 -0.03989,1.24673 -0.0221,1.92411c0.00871,0.33018 -0.58215,0.85944 -0.60837,1.35838c-0.03693,0.7027 0.48484,1.40317 0.48773,1.90658c0.00258,0.44731 -0.59802,1.05003 -0.41134,1.89037c0.18196,0.8191 0.65372,1.62227 0.68368,2.00673c0.17171,2.20246 -0.53378,1.56244 -0.53378,1.56244" fill="none" stroke="#000000" stroke-width="1" stroke-linecap="round"/><path d="M126.0833,182.19325c0.00303,-0.43437 0.36718,-0.78398 0.81335,-0.78088c0.44617,0.0031 0.80541,0.35773 0.80242,0.7921c-0.00303,0.43437 -0.36717,0.78398 -0.81332,0.78088c-0.44617,-0.0031 -0.80543,-0.35773 -0.80243,-0.7921z" fill="#000000" stroke="#000000" stroke-width="0.5" stroke-linecap="butt"/><path d="M126.25866,185.29146c0.00303,-0.43437 0.36717,-0.78398 0.81334,-0.78088c0.44617,0.0031 0.80543,0.35773 0.80243,0.7921c-0.00303,0.43437 -0.36717,0.78398 -0.81334,0.78088c-0.44617,-0.0031 -0.80543,-0.35773 -0.80243,-0.7921z" fill="#000000" stroke="#000000" stroke-width="0.5" stroke-linecap="butt"/><path d="M125.94245,188.56407c0.00303,-0.43437 0.36717,-0.78398 0.81332,-0.78088c0.44617,0.0031 0.80543,0.35773 0.80243,0.79211c-0.00303,0.43437 -0.36718,0.78396 -0.81335,0.78088c-0.44617,-0.0031 -0.80541,-0.35773 -0.80242,-0.7921z" fill="#000000" stroke="#000000" stroke-width="0.5" stroke-linecap="butt"/><path d="M125.91632,192.37267c0.00303,-0.43437 0.36715,-0.78398 0.81332,-0.78088c0.44617,0.0031 0.80543,0.35773 0.80243,0.79211c-0.00303,0.43437 -0.36718,0.78398 -0.81335,0.78088c-0.44617,-0.0031 -0.8054,-0.35775 -0.8024,-0.79211z" fill="#000000" stroke="#000000" stroke-width="0.5" stroke-linecap="butt"/></g><g stroke-linecap="butt"><path d="M88.92684,180.05149c0.34155,-17.85888 14.60974,-35.09165 34.25046,-35.09165c19.64072,0 34.20652,15.39597 33.82985,35.09165c-0.37668,19.69569 -15.65418,32.98867 -35.09165,32.98867c-19.43749,0 -33.3302,-15.12979 -32.98867,-32.98867z" fill="none" stroke="#000000" stroke-width="4"/><path d="M90.24315,179.91974c0.32744,-17.12169 14.00667,-33.64314 32.83665,-33.64314c18.82998,0 32.79455,14.76045 32.43343,33.64314c-0.36112,18.88269 -15.00801,31.62695 -33.64314,31.62695c-18.63514,0 -31.95439,-14.50526 -31.62695,-31.62695z" fill="url(#color-5)" stroke="#00a717" stroke-width="2.5"/><g><path d="M146.55424,177.56499c0,-6.77242 5.49014,-12.26256 12.26256,-12.26256c6.77242,0 12.26254,5.49014 12.26254,12.26256c0,6.77242 -5.49012,12.26256 -12.26254,12.26256c-6.77242,0 -12.26256,-5.49014 -12.26256,-12.26256z" fill="url(#color-6)" stroke="url(#color-7)" stroke-width="0"/><path d="M154.2407,187.826c0,-5.51849 0,-17.02796 0,-19.4382c0,-0.72228 -4.13241,-4.35685 -4.13241,-4.35685c0,0 6.37919,-0.49723 7.98653,1.84327c1.60733,2.34051 2.51355,7.96294 2.51355,12.0651c0,3.90012 0.78591,9.17049 -2.68112,13.0705c-1.53435,1.72596 -7.54069,1.17299 -7.54069,1.17299c0,0 3.85414,-2.90807 3.85414,-4.35681z" fill="#2f2f2f" stroke="#000000" stroke-width="1.5"/><path d="M144.12167,177.96492c0,-0.5978 1.41962,-3.43504 3.57101,-4.18831c2.45833,-0.86075 5.98819,0.0935 5.98819,0.0935c0,0 -2.35592,0.9676 -4.01901,1.92445c-1.29322,0.74405 -1.98765,1.42164 -1.98765,2.01873c0,0.58539 0.40141,1.93257 1.72613,2.76077c1.76416,1.10295 4.57928,1.6374 4.57928,1.6374c0,0 -3.63558,1.39157 -5.93519,0.47953c-2.33042,-0.92421 -3.92273,-4.00525 -3.92273,-4.72604z" fill="#2f2f2f" stroke="#000000" stroke-width="1.5"/><path d="M151.65252,178.01365c0,-3.63991 2.95074,-6.59065 6.59065,-6.59065c3.63991,0 6.59064,2.95073 6.59064,6.59065c0,3.63991 -2.95072,6.59064 -6.59064,6.59064c-3.63991,0 -6.59065,-2.95072 -6.59065,-6.59064z" fill="#00a718" stroke="#000000" stroke-width="1.5"/><path d="M151.64503,178.12222c-0.05764,-3.45775 -1.51955,-9.56686 -1.51955,-9.56686c0,0 2.26393,-0.97203 3.43574,-0.78126c1.22744,0.19982 3.76978,1.95426 3.76978,1.95426c0,0 -1.78667,5.20888 -1.75861,7.87591c0.02777,2.63909 1.92617,8.04331 1.92617,8.04331c0,0 -2.09859,2.52721 -3.07302,2.94483c-1.28468,0.55059 -3.96494,0.07143 -3.96494,0.07143c0,0 1.22749,-7.95783 1.18444,-10.54162z" fill="#0e0e0e" stroke="#000000" stroke-width="1.5"/><path d="M155.47244,177.78793c0,-1.06717 0.86511,-1.93229 1.93229,-1.93229c1.06717,0 1.93228,0.86511 1.93228,1.93229c0,1.06717 -0.8651,1.93228 -1.93228,1.93228c-1.06717,0 -1.93229,-0.8651 -1.93229,-1.93228z" fill="#0e0e0e" stroke="#000000" stroke-width="1.5"/></g></g></g><g stroke-width="0" stroke-linecap="butt"><path d="M273.99422,162.98571c0,-20.73631 16.81006,-37.54637 37.54637,-37.54637c20.73631,0 37.54636,16.81006 37.54636,37.54637c0,20.73631 -16.81005,37.54636 -37.54636,37.54636c-20.73631,0 -37.54637,-16.81005 -37.54637,-37.54636z" fill="url(#color-8)" stroke="#25b509"/><path d="M271.50441,183.04491c0,-33.14982 26.87324,-60.02322 60.02322,-60.02322c33.14982,0 60.02314,26.87324 60.02314,60.02322c0,33.14982 -26.87324,60.02314 -60.02314,60.02314c-33.14982,0 -60.02322,-26.87324 -60.02322,-60.02314z" fill="url(#color-9)" stroke="#25b509"/><path d="M294.81801,205.90148c0,-20.73631 16.81005,-37.54645 37.54636,-37.54645c20.73631,0 37.54645,16.81006 37.54645,37.54645c0,20.73631 -16.81014,37.54636 -37.54645,37.54636c-20.73631,0 -37.54636,-16.81005 -37.54636,-37.54636z" fill="url(#color-10)" stroke="#25b509"/><path d="M319.27785,183.37572c0,-20.73631 16.81005,-37.54637 37.54636,-37.54637c20.73631,0 37.54636,16.81006 37.54636,37.54637c0,20.73631 -16.81005,37.54636 -37.54636,37.54636c-20.73631,0 -37.54636,-16.81005 -37.54636,-37.54636z" fill="url(#color-11)" stroke="#25b509"/><path d="M269.34017,183.20249c0,-20.73631 16.81005,-37.54636 37.54636,-37.54636c20.73631,0 37.54645,16.81005 37.54645,37.54636c0,20.73631 -16.81014,37.54636 -37.54645,37.54636c-20.73631,0 -37.54636,-16.81005 -37.54636,-37.54636z" fill="url(#color-12)" stroke="#25b509"/><path d="M282.56675,211.2853c0,-13.40103 10.86364,-24.26466 24.26458,-24.26466c13.40103,0 24.26466,10.86372 24.26466,24.26466c0,13.40103 -10.86372,24.26467 -24.26466,24.26467c-13.40103,0 -24.26458,-10.86372 -24.26458,-24.26467z" fill="url(#color-13)" stroke="#25b509"/><path d="M334.76818,210.52989c0,-13.40103 10.86372,-24.26466 24.26467,-24.26466c13.40103,0 24.26458,10.86363 24.26458,24.26466c0,13.40103 -10.86355,24.26458 -24.26458,24.26458c-13.40103,0 -24.26467,-10.86364 -24.26467,-24.26458z" fill="url(#color-14)" stroke="#25b509"/><path d="M343.51,182.82115c0,-13.40103 10.86364,-24.26466 24.26458,-24.26466c13.40103,0 24.26467,10.86372 24.26467,24.26466c0,13.40103 -10.86372,24.26466 -24.26467,24.26466c-13.40103,0 -24.26458,-10.86372 -24.26458,-24.26466z" fill="url(#color-15)" stroke="#25b509"/><path d="M308.45157,143.09956c0,-13.40103 10.86372,-24.26466 24.26466,-24.26466c13.40103,0 24.26467,10.86372 24.26467,24.26466c0,13.40103 -10.86356,24.26467 -24.26467,24.26467c-13.40103,0 -24.26466,-10.86372 -24.26466,-24.26467z" fill="url(#color-16)" stroke="#25b509"/><path d="M280.76116,152.64085c0,-13.40103 10.86356,-24.26466 24.26467,-24.26466c13.40103,0 24.26458,10.86372 24.26458,24.26466c0,13.40103 -10.86364,24.26467 -24.26458,24.26467c-13.40103,0 -24.26467,-10.86372 -24.26467,-24.26467z" fill="url(#color-17)" stroke="#25b509"/><path d="M267.91086,177.73701c0,-13.40103 10.86372,-24.26458 24.26466,-24.26458c13.40103,0 24.26466,10.86364 24.26466,24.26458c0,13.40103 -10.86372,24.26467 -24.26466,24.26467c-13.40103,0 -24.26466,-10.86372 -24.26466,-24.26467z" fill="url(#color-18)" stroke="#25b509"/><path d="M295.26152,151.27002c0,-20.73631 16.81005,-37.54636 37.54636,-37.54636c20.73631,0 37.54645,16.81005 37.54645,37.54636c0,20.73631 -16.81014,37.54636 -37.54645,37.54636c-20.73631,0 -37.54636,-16.81005 -37.54636,-37.54636z" fill="url(#color-19)" stroke="#25b509"/><path d="M307.01758,219.09504c0,-13.40103 10.86372,-24.26466 24.26467,-24.26466c13.40103,0 24.26466,10.86372 24.26466,24.26466c0,13.40103 -10.86372,24.26458 -24.26466,24.26458c-13.40103,0 -24.26467,-10.86355 -24.26467,-24.26458z" fill="url(#color-20)" stroke="#25b509"/><path d="M337.16045,153.72068c0,-13.40103 10.86364,-24.26458 24.26458,-24.26458c13.40103,0 24.26466,10.86364 24.26466,24.26458c0,13.40103 -10.86372,24.26467 -24.26466,24.26467c-13.40103,0 -24.26458,-10.86372 -24.26458,-24.26467z" fill="url(#color-21)" stroke="#25b509"/><path d="M315.25004,164.8831c0,-20.73631 16.81014,-37.54637 37.54645,-37.54637c20.73631,0 37.54636,16.81006 37.54636,37.54637c0,20.73631 -16.81005,37.54644 -37.54636,37.54644c-20.73631,0 -37.54645,-16.81013 -37.54645,-37.54644z" fill="url(#color-22)" stroke="#25b509"/><path d="M274.80623,199.41612c0,-20.73631 16.81013,-37.54636 37.54644,-37.54636c20.73631,0 37.54636,16.81005 37.54636,37.54636c0,20.73631 -16.81005,37.54636 -37.54636,37.54636c-20.73631,0 -37.54644,-16.81005 -37.54644,-37.54636z" fill="url(#color-23)" stroke="#25b509"/><path d="M310.43979,198.09435c0,-20.73631 16.81006,-37.54637 37.54637,-37.54637c20.73631,0 37.54636,16.81006 37.54636,37.54637c0,20.73631 -16.81005,37.54636 -37.54636,37.54636c-20.73631,0 -37.54637,-16.81005 -37.54637,-37.54636z" fill="url(#color-24)" stroke="#25b509"/><path d="M267.19231,178.58562c0,-35.31775 28.63066,-63.94841 63.94841,-63.94841c35.31775,0 63.94841,28.63066 63.94841,63.94841c0,35.31775 -28.63066,63.94841 -63.94841,63.94841c-35.31775,0 -63.94841,-28.63066 -63.94841,-63.94841z" fill="url(#color-25)" stroke="none"/></g><g><g><path d="M320.84749,172.22068c0.04042,-6.32367 5.02228,-11.42274 11.1273,-11.38917c6.10498,0.03356 11.02129,5.1871 10.98087,11.51073c-0.04042,6.32367 -4.3394,10.29453 -10.44437,10.26098c-6.10498,-0.03356 -11.70415,-4.05887 -11.66373,-10.38251z" fill="#000000" stroke="url(#color-26)" stroke-width="0.5" stroke-linecap="butt"/><path d="M330.26349,172.76476c0.25919,-2.0375 1.69551,-3.45772 3.20812,-3.17216c1.5126,0.28557 2.52867,2.16876 2.26951,4.20626c-0.25919,2.0375 -1.69553,3.45772 -3.20812,3.17217c-1.5126,-0.28557 -2.52867,-2.16876 -2.26951,-4.20626z" fill="#ffffff" stroke="none" stroke-width="0" stroke-linecap="butt"/><path d="M336.75927,172.47937c0.23888,-2.0377 1.5558,-3.45886 2.94141,-3.17438c1.38564,0.2845 2.31519,2.16697 2.07628,4.20464c-0.23888,2.0377 -1.55582,3.45885 -2.94143,3.17438c-1.38564,-0.2845 -2.31519,-2.16696 -2.07629,-4.20462z" fill="#ffffff" stroke="none" stroke-width="0" stroke-linecap="butt"/><path d="M346.11289,164.44154c-0.01069,2.06435 -6.49951,3.71447 -14.49314,3.68562c-7.99368,-0.02886 -14.46516,-1.72573 -14.45446,-3.7901c0.01069,-2.06435 6.49952,-3.71447 14.49314,-3.68562c7.99368,0.02886 14.46514,1.72576 14.45446,3.7901z" fill="url(#color-27)" stroke="#000000" stroke-width="1" stroke-linecap="butt"/><path d="M322.16075,161.70959c0.18056,-0.60663 0.55994,-1.41623 0.76668,-2.26563c0.24119,-0.99101 0.29748,-1.98477 0.29748,-1.98477c0,0 5.30182,-2.80125 8.82742,-2.78629c3.52559,0.01494 7.91923,2.83548 7.91702,3.29171c-0.00305,0.64093 0.10181,2.1674 0.46238,3.47041c0.30937,1.11783 -4.9271,4.39849 -9.83007,4.32648c-4.46412,-0.06557 -8.63378,-3.40395 -8.44096,-4.05191z" fill="url(#color-28)" stroke="#000000" stroke-width="1" stroke-linecap="butt"/><path d="M333.98441,205.9072c0,0 0.10228,-2.96636 0.32946,-3.98065c0.36869,-1.6459 0.03024,-3.23838 0.36637,-4.32407c0.54507,-1.76055 0.98532,-5.27119 0.98532,-5.27119" fill="none" stroke="#000000" stroke-width="3" stroke-linecap="round"/><path d="M328.12058,205.66007c0,0 0.03541,-2.29219 0.29864,-3.23861c0.45361,-1.63085 0.16888,-3.15868 0.42997,-3.93976c0.58388,-1.74689 1.25735,-5.22999 1.25735,-5.22999" fill="none" stroke="#000000" stroke-width="3" stroke-linecap="round"/><path d="M318.12181,196.07711c0.18034,-0.48973 -0.27503,-2.36424 0.38952,-3.24228c0.75393,-0.99611 1.42743,-1.63596 1.63653,-2.25057c0.12845,-0.37746 -0.23582,-1.25494 -0.25495,-1.63486c-0.0471,-0.9351 0.68563,-0.99368 1.00862,-1.87367c0.24198,-0.65927 -0.03841,-1.73716 0.37191,-2.21109c0.70686,-0.81649 1.08304,-1.42141 1.27461,-2.01078c0.22653,-0.69697 -0.12796,-1.12696 -0.31624,-1.82941c-0.27772,-1.03611 -0.33034,-3.39756 -0.33034,-3.39756c0,0 6.61459,4.11289 10.06049,4.14921c3.53029,0.0372 8.19693,-2.99124 8.19693,-2.99124c0,0 0.31002,2.50148 0.23281,3.43247c0.31156,1.16175 0.66425,2.25256 0.89963,2.98656c0.19569,0.61026 -1.10351,2.39646 -0.87495,3.04821c0.11897,0.33923 0.98109,1.01957 0.71769,2.09663c-0.27238,1.11379 -1.24362,2.2165 -1.38933,2.7325c-0.11216,0.3972 0.27869,2.17238 0.24189,3.04681c-0.0679,1.61422 -1.4612,1.13618 -1.4612,1.13618c0,0 0.24728,0.00103 -2.54362,-0.17815c-1.69618,-0.10892 -4.62376,1.39788 -6.43196,0.76642c-4.04812,-1.41363 -5.66502,-0.07502 -7.31484,-0.08431c-2.07464,-0.01165 -2.80159,1.07444 -2.80159,1.07444c0,0 -2.33487,0.01315 -1.31166,-2.76552z" fill="url(#color-29)" stroke="#000000" stroke-width="1" stroke-linecap="butt"/><path d="M334.5946,182.25189c0,0 -0.26991,1.276 -0.27379,2.32162c-0.00137,0.36605 0.30596,1.45081 0.40366,2.07073c0.08707,0.55252 -0.03989,1.24673 -0.0221,1.92411c0.00871,0.33018 -0.58215,0.85944 -0.60837,1.35838c-0.03693,0.7027 0.48484,1.40317 0.48773,1.90658c0.00258,0.44731 -0.59802,1.05003 -0.41134,1.89037c0.18196,0.8191 0.65372,1.62227 0.68368,2.00673c0.17171,2.20246 -0.53378,1.56244 -0.53378,1.56244" fill="none" stroke="#000000" stroke-width="1" stroke-linecap="round"/><path d="M333.5833,184.19325c0.00303,-0.43437 0.36718,-0.78398 0.81335,-0.78088c0.44617,0.0031 0.80541,0.35773 0.80242,0.7921c-0.00303,0.43437 -0.36717,0.78398 -0.81332,0.78088c-0.44617,-0.0031 -0.80543,-0.35773 -0.80243,-0.7921z" fill="#000000" stroke="#000000" stroke-width="0.5" stroke-linecap="butt"/><path d="M333.75866,187.29146c0.00303,-0.43437 0.36717,-0.78398 0.81334,-0.78088c0.44617,0.0031 0.80543,0.35773 0.80243,0.7921c-0.00303,0.43437 -0.36717,0.78398 -0.81334,0.78088c-0.44617,-0.0031 -0.80543,-0.35773 -0.80243,-0.7921z" fill="#000000" stroke="#000000" stroke-width="0.5" stroke-linecap="butt"/><path d="M333.44245,190.56407c0.00303,-0.43437 0.36717,-0.78398 0.81332,-0.78088c0.44617,0.0031 0.80543,0.35773 0.80243,0.79211c-0.00303,0.43437 -0.36718,0.78396 -0.81335,0.78088c-0.44617,-0.0031 -0.80541,-0.35773 -0.80242,-0.7921z" fill="#000000" stroke="#000000" stroke-width="0.5" stroke-linecap="butt"/><path d="M333.41632,194.37267c0.00303,-0.43437 0.36715,-0.78398 0.81332,-0.78088c0.44617,0.0031 0.80543,0.35773 0.80243,0.79211c-0.00303,0.43437 -0.36718,0.78398 -0.81335,0.78088c-0.44617,-0.0031 -0.8054,-0.35775 -0.8024,-0.79211z" fill="#000000" stroke="#000000" stroke-width="0.5" stroke-linecap="butt"/></g><g fill="none" stroke="none" stroke-width="1" stroke-linecap="butt" font-family="sans-serif" font-weight="normal" font-size="12" text-anchor="start"><g/></g></g><text transform="translate(185.10848,339.9955) scale(0.5,0.5)" font-size="40" xml:space="preserve" fill="#000000" fill-rule="nonzero" stroke="#000000" stroke-width="2" stroke-linecap="butt" stroke-linejoin="miter" stroke-miterlimit="10" stroke-dasharray="" stroke-dashoffset="0" font-family="Handwriting" font-weight="normal" text-anchor="start" style="mix-blend-mode: normal"><tspan x="0" dy="0">Press E to close</tspan></text><text transform="translate(44.48319,281.82079) scale(0.61193,0.61193)" font-size="40" xml:space="preserve" fill="#000000" fill-rule="nonzero" stroke="#000000" stroke-width="3" stroke-linecap="butt" stroke-linejoin="miter" stroke-miterlimit="10" stroke-dasharray="" stroke-dashoffset="0" font-family="Handwriting" font-weight="normal" text-anchor="start" style="mix-blend-mode: normal"><tspan x="0" dy="0">Press S or down arrow to use the shield</tspan><tspan x="0" dy="48px">Hold S or down arrow to activate parry</tspan></text></g></g></svg>