<svg version="1.1" xmlns="http://www.w3.org/2000/svg" xmlns:xlink="http://www.w3.org/1999/xlink" width="210.05076" height="135.37781" viewBox="0,0,210.05076,135.37781"><defs><linearGradient x1="156.84948" y1="171.87844" x2="185.12929" y2="177.66418" gradientUnits="userSpaceOnUse" id="color-1"><stop offset="0" stop-color="#050000"/><stop offset="1" stop-color="#0f0707"/></linearGradient><radialGradient cx="309.72815" cy="165.39761" r="13.33459" gradientUnits="userSpaceOnUse" id="color-2"><stop offset="0" stop-color="#5100a4"/><stop offset="1" stop-color="#5100a4" stop-opacity="0"/></radialGradient><radialGradient cx="155.02555" cy="182.92887" r="11.52692" gradientUnits="userSpaceOnUse" id="color-3"><stop offset="0" stop-color="#5100a4"/><stop offset="1" stop-color="#5100a4" stop-opacity="0"/></radialGradient><radialGradient cx="154.80895" cy="182.88051" r="10.50984" gradientUnits="userSpaceOnUse" id="color-4"><stop offset="0" stop-color="#5100a4"/><stop offset="1" stop-color="#5100a4" stop-opacity="0"/></radialGradient></defs><g transform="translate(-143.49102,-112.37377)"><g data-paper-data="{&quot;isPaintingLayer&quot;:true}" fill-rule="nonzero" stroke-linejoin="miter" stroke-miterlimit="10" stroke-dasharray="" stroke-dashoffset="0" style="mix-blend-mode: normal"><g fill="none" stroke="#000000" stroke-width="9" stroke-linecap="round"><path d="M241.21485,187.07957l0.63998,-40.2641l18.36868,73.64073l1.00694,-11.71557" data-paper-data="{&quot;index&quot;:null}"/><g><path d="M170.73903,218.03066l0.44737,5.57799l27.09524,-87.02361l13.03448,47.46588"/><path d="M262.92957,181.11322l9.91006,-44.88397l23.24778,78.08547l-3.50194,-5.51305" data-paper-data="{&quot;index&quot;:null}"/><path d="M211.08197,207.83361l-3.23764,5.42527l1.57678,7.54019l10.97606,-71.44945l5.39922,40.5321"/></g></g><path d="M326.33036,177.37492l-2.50565,2.86171l10.48643,2.70194l-12.96664,-9.87827l3.84596,-7.08512" data-paper-data="{&quot;index&quot;:null}" fill="none" stroke="#000000" stroke-width="7.5" stroke-linecap="round"/><path d="M323.4797,165.67159l8.53642,-6.44901l6.29753,0.78956l-15.83042,6.12393l-1.81725,8.99531" data-paper-data="{&quot;index&quot;:null}" fill="none" stroke="#000000" stroke-width="7.5" stroke-linecap="round"/><g stroke="#000000" stroke-linecap="butt"><path d="M220.77218,166.09928c1.64955,-0.50176 3.63833,1.36462 4.44204,4.16866c0.80372,2.80407 0.11803,5.48394 -1.53152,5.9857c-1.64955,0.50176 -3.63834,-1.36459 -4.44203,-4.16865c-0.80372,-2.80407 -0.11804,-5.48396 1.53152,-5.98571z" fill="#000000" stroke-width="1"/><path d="M201.28966,202.881c-12.39413,1.31889 -23.74997,-9.79479 -25.36403,-24.82316c-1.61402,-15.02832 7.12504,-28.28033 19.51914,-29.59922c12.39413,-1.31889 23.74994,9.79484 25.36397,24.82318c1.61402,15.02832 -7.12494,28.28034 -19.51909,29.59921z" fill="#000000" stroke-width="0"/><path d="M212.09388,205.10336c-11.91128,1.26752 -22.82475,-9.41323 -24.37591,-23.85611c-1.55115,-14.44284 6.84746,-27.17862 18.75874,-28.44612c11.91128,-1.26752 22.82471,9.41327 24.37585,23.85611c1.55115,14.44284 -6.84739,27.17863 -18.7587,28.44611z" fill="#000000" stroke-width="0"/><path d="M209.74448,196.96707c-12.39413,1.31889 -23.74999,-9.79479 -25.36403,-24.82316c-1.61402,-15.02832 7.12503,-28.28032 19.51913,-29.59921c12.39413,-1.31889 23.74997,9.79483 25.36396,24.82315c1.61402,15.02832 -7.12495,28.28033 -19.5191,29.59922z" fill="#000000" stroke-width="0"/><path d="M209.43579,202.10147c-12.39413,1.31889 -23.74999,-9.79479 -25.36402,-24.82317c-1.61402,-15.02832 7.12498,-28.28031 19.51912,-29.5992c12.39413,-1.31889 23.74997,9.79483 25.36396,24.82315c1.61402,15.02832 -7.12496,28.28034 -19.51911,29.59923z" fill="#000000" stroke-width="0"/><path d="M209.32349,201.47724c-12.74304,2.39238 -25.22515,-6.94215 -27.8796,-20.84925c-2.04271,-10.70201 3.15859,-20.12089 10.93585,-26.19147c2.32916,-1.81805 3.8312,-5.72012 6.76799,-6.27148c4.30635,-0.80848 10.69874,-0.7625 14.66145,1.27752c6.4386,3.31457 9.78675,8.82108 11.63603,16.47254c0.38054,1.57439 0.39317,4.96894 0.69308,6.54017c0.59796,3.13285 1.52429,10.41997 1.20865,13.32804c-1.08557,10.00124 -8.15108,13.84047 -18.02348,15.69392z" fill="#0a0300" stroke-width="1"/><path d="M203.65445,151.54194c2.50205,-0.46973 5.27116,3.03091 5.81839,5.89784c0.54722,2.86694 -1.48333,3.23586 -3.98538,3.70562c-2.50205,0.46974 -4.52806,0.86238 -5.07528,-2.00456c-0.54722,-2.86694 0.74021,-7.12918 3.24226,-7.59891z" fill="#000000" stroke-width="1"/><path d="M184.35291,163.65648c1.83775,-0.86046 4.29113,0.59849 5.47973,3.25866c1.18861,2.66017 0.66242,5.51417 -1.17532,6.37466c-1.83775,0.86046 -4.29115,-0.59847 -5.47975,-3.25864c-1.18861,-2.66016 -0.6624,-5.51419 1.17534,-6.37468z" fill="#000000" stroke-width="1"/><path d="M213.8734,181.70643c2.05235,0.40666 3.27558,3.06599 2.73224,5.93984c-0.54339,2.87384 -2.64764,4.87392 -4.69996,4.46726c-2.05235,-0.40666 -3.27561,-3.06601 -2.73223,-5.93984c0.54339,-2.87384 2.64763,-4.87392 4.69995,-4.46725z" fill="#000000" stroke-width="1"/><path d="M201.39617,168.63484c2.06051,-0.38683 5.77247,1.31839 6.15553,3.32524c0.38304,2.00686 -2.51767,2.6235 -4.57816,3.01035c-2.06051,0.38683 -4.4673,1.66284 -4.85037,-0.34403c-0.38304,-2.00686 1.21253,-5.60472 3.27304,-5.99156z" fill="#000000" stroke-width="1"/><path d="M190.10504,187.88257c0.10258,-2.36673 1.52407,-4.1964 3.17494,-4.08668c1.65087,0.1097 2.90598,2.11729 2.80336,4.48402c-0.10258,2.36673 -1.52404,4.19639 -3.17494,4.08667c-1.65087,-0.1097 -2.90601,-2.11726 -2.80337,-4.48398z" data-paper-data="{&quot;index&quot;:null}" fill="#000000" stroke-width="1"/></g><path d="M164.56111,173.70605c3.61252,-3.2523 15.98742,-6.49021 15.98742,-6.49021l4.77156,16.62555c0,0 -6.55199,-1.77353 -12.02063,-3.34488c-5.11537,-1.46982 -16.15431,0.9536 -16.15431,0.9536c0,0 4.4999,-5.11875 7.41597,-7.74405z" fill="url(#color-1)" stroke="#000000" stroke-width="4" stroke-linecap="butt"/><g stroke="#000000" stroke-width="0" stroke-linecap="butt"><path d="M325.31198,167.64264c0.17459,12.18463 -9.98714,22.29655 -22.69684,22.58553c-12.70968,0.28902 -23.15451,-9.35427 -23.3291,-21.53893c-0.17459,-12.18463 9.98714,-22.29655 22.69682,-22.58555c12.70968,-0.28902 23.15453,9.35428 23.32912,21.53894z" fill="#000000"/><g><path d="M316.42748,167.67662c0.18618,12.18463 -10.65013,22.29655 -24.20352,22.58553c-13.5534,0.28902 -24.6916,-9.35427 -24.87778,-21.53894c-0.18618,-12.18463 10.65012,-22.29655 24.20352,-22.58553c13.5534,-0.28902 24.69161,9.35428 24.87779,21.53894z" fill="#000000"/><path d="M320.42512,171.30948c0.17459,12.18463 -9.98714,22.29655 -22.69684,22.58553c-12.70968,0.28902 -23.15451,-9.35428 -23.3291,-21.53894c-0.17459,-12.18463 9.98714,-22.29655 22.6968,-22.58554c12.70968,-0.28902 23.15454,9.35429 23.32914,21.53894z" fill="#000000"/><path d="M320.68081,165.09382c0.1678,11.70994 -9.59806,21.42795 -21.81263,21.70572c-12.21455,0.27776 -22.25247,-8.98991 -22.42026,-20.69988c-0.1678,-11.70994 9.59805,-21.42791 21.81262,-21.70568c12.21455,-0.27776 22.25248,8.98987 22.42027,20.69984z" fill="#000000"/><path d="M317.96693,168.92819c0.15479,10.8025 -11.19845,22.10345 -21.80807,22.34473c-3.1827,0.07237 -8.79682,0.71608 -11.46001,-0.61871c-6.2146,-3.11479 -7.92229,-10.9422 -8.03066,-18.50418c-0.15479,-10.8025 8.02475,-20.07471 18.63437,-20.31596c7.05925,-0.16053 13.37585,1.25897 17.6502,6.26408c2.14975,2.51719 4.96236,7.21514 5.01416,10.83008z" fill="#060200"/></g></g><g stroke="#000000" stroke-linecap="butt"><path d="M241.71082,149.50904c-0.30813,-2.36425 2.7764,-4.64023 6.88945,-5.08348c4.11308,-0.44327 7.69715,1.11397 8.00528,3.47823c0.30813,2.36425 -2.77636,4.64022 -6.88945,5.08348c-4.11308,0.44327 -7.69717,-1.11397 -8.0053,-3.47822z" fill="#000000" stroke-width="1"/><path d="M288.49987,184.60551c-1.11264,17.19435 -19.36387,30.08389 -40.76534,28.7896c-21.40138,-1.29432 -37.84861,-16.28239 -36.73596,-33.47669c1.11264,-17.19435 19.36392,-30.08382 40.76533,-28.7895c21.40138,1.29432 37.84865,16.28226 36.73597,33.47664z" fill="#000000" stroke-width="0"/><path d="M294.18543,170.40073c-1.06928,16.52451 -18.60952,28.9119 -39.17722,27.66804c-20.56761,-1.24386 -36.37416,-15.64807 -35.30485,-32.17256c1.06929,-16.52451 18.60958,-28.91185 39.17719,-27.66795c20.56762,1.24386 36.3742,15.64796 35.30485,32.17251z" fill="#000000" stroke-width="0"/><path d="M282.24674,171.71054c-1.11264,17.19435 -19.36385,30.08389 -40.76533,28.78961c-21.40138,-1.29432 -37.84862,-16.28238 -36.73597,-33.47669c1.11264,-17.19435 19.36393,-30.08385 40.76531,-28.7895c21.40138,1.29431 37.84864,16.28228 36.736,33.47665z" fill="#000000" stroke-width="0"/><path d="M289.35325,173.32471c-1.11264,17.19435 -19.36386,30.08389 -40.76533,28.78958c-21.40138,-1.29432 -37.84862,-16.28231 -36.73598,-33.47665c1.11264,-17.19435 19.36392,-30.08386 40.7653,-28.78951c21.40138,1.29432 37.84864,16.28228 36.736,33.47665z" fill="#000000" stroke-width="0"/><path d="M288.45353,173.33262c0.30534,17.9193 -15.72654,32.75701 -35.8082,33.14101c-15.45355,0.29549 -27.38442,-8.98112 -34.01827,-20.98928c-1.98675,-3.59624 -7.08524,-6.54994 -7.15559,-10.67968c-0.10318,-6.0556 1.48624,-14.75494 5.28454,-19.68014c6.17141,-8.00249 14.67078,-11.28447 25.81216,-12.02557c2.29248,-0.1525 7.04259,0.61936 9.31144,0.57596c4.52377,-0.0865 14.93545,0.34531 18.92691,1.45139c13.72721,3.80406 17.41046,14.32372 17.64702,28.20632z" fill="#0a0300" stroke-width="1"/><path d="M217.26912,169.44898c-0.05995,-3.51837 5.4962,-6.47773 9.63599,-6.5569c4.13983,-0.07917 4.1713,2.77335 4.23127,6.29174c0.05995,3.51837 0.12568,6.37022 -4.01415,6.44939c-4.13983,0.07917 -9.79317,-2.66585 -9.85312,-6.18422z" fill="#000000" stroke-width="1"/><path d="M229.60562,198.56468c-0.76485,-2.70407 1.86074,-5.7078 5.86443,-6.70896c4.00369,-1.00116 7.86935,0.37923 8.63422,3.08329c0.76485,2.70407 -1.86073,5.70783 -5.86442,6.70899c-4.00369,1.00116 -7.86936,-0.37927 -8.63423,-3.08333z" fill="#000000" stroke-width="1"/><path d="M261.89063,162.53713c1.05833,-2.70191 5.06914,-3.75047 8.95842,-2.34206c3.88926,1.40846 6.18421,4.74055 5.12588,7.44244c-1.05833,2.70191 -5.06918,3.75051 -8.95843,2.34205c-3.88926,-1.40846 -6.18421,-4.74056 -5.12587,-7.44243z" fill="#000000" stroke-width="1"/><path d="M240.63386,176.49947c-0.04936,-2.8975 3.22091,-7.55884 6.11878,-7.61428c2.89788,-0.0554 3.06814,4.04034 3.11753,6.93781c0.04936,2.8975 1.25958,6.4735 -1.63833,6.52893c-2.89788,0.0554 -7.54862,-2.95502 -7.59798,-5.85252z" fill="#000000" stroke-width="1"/><path d="M264.8569,196.35869c-3.28526,-0.68995 -5.50483,-3.05214 -4.95752,-5.27605c0.54728,-2.22391 3.65424,-3.46739 6.9395,-2.77738c3.28526,0.68995 5.50482,3.05211 4.95751,5.27605c-0.54728,2.22391 -3.6542,3.46742 -6.93946,2.77742z" data-paper-data="{&quot;index&quot;:null}" fill="#000000" stroke-width="1"/></g><g data-paper-data="{&quot;index&quot;:null}" fill="none" stroke="#000000" stroke-width="1.5" stroke-linecap="round"><path d="M235.76517,212.09309l-2.98582,2.36803"/><path d="M226.55042,210.93228l4.6931,-3.7906"/><path d="M240.54599,211.65118l-1.39396,8.23154"/><path d="M222.54731,200.3609l-3.4773,2.45079"/><path d="M255.49822,216.91438l0.4903,-4.36297"/><path d="M251.94706,223.12605l0.15391,-9.71469"/><path d="M275.69512,212.92486l-6.00374,-6.57613"/><path d="M275.8721,201.75303l7.94606,3.56466"/><path d="M288.55743,198.61261l-6.7137,-1.59576"/><path d="M286.55223,192.25479l3.32991,2.49794"/><path d="M295.95599,156.97802l-4.26435,3.31351"/><path d="M289.2423,155.38224l3.82023,-1.86497"/><path d="M273.09815,141.16717l2.59557,-4.31964"/><path d="M247.38363,138.97261l-1.56879,-7.32069"/><path d="M225.10653,136.08498l4.51612,7.38133"/><path d="M221.40827,141.21039l1.5842,6.34915"/><path d="M257.30154,211.02422l1.95801,9.33707"/><path d="M293.77396,187.46351l-3.21516,-1.76677"/><path d="M296.23954,180.71169l-5.01045,-0.10304"/><path d="M298.99987,173.96599l-4.74806,1.9431l-2.36325,0.29146"/><path d="M300.87603,167.20206l-7.13287,3.59466l-1.45213,-1.3904"/><path d="M298.03103,160.68114l-5.09666,5.33722"/><path d="M288.50951,147.56052l-4.20171,4.67535"/><path d="M285.61602,144.0997l-4.48565,3.98925"/><path d="M275.20869,146.70551l6.51068,-9.45446"/><path d="M262.37508,140.90074l1.59219,-7.45003"/><path d="M258.64047,134.70169l-0.08619,5.44027"/><path d="M255.80477,146.20759l-3.66457,-10.6193"/><g><path d="M237.2312,209.21839l-2.84543,2.37092"/><path d="M224.05605,210.21891l4.47252,-3.79517"/><path d="M242.80664,211.76255l-1.3338,8.23273"/><path d="M225.31677,201.6849l-3.83135,2.72375"/><path d="M244.27042,215.97437l0.47024,-4.36337"/><path d="M253.10941,219.74873l0.15391,-9.71468"/><path d="M271.79376,205.07034l3.94067,4.45411"/><path d="M283.47651,201.90936l-7.56504,-3.55684"/><path d="M281.60235,193.61067l6.39283,1.58917"/><path d="M286.09022,188.84403l3.1695,2.49467"/><path d="M291.00907,156.87627l4.06379,-3.31764"/><path d="M292.31973,150.10064l-3.63973,1.86874"/><path d="M270.23945,141.6303l3.81572,-9.14709"/><path d="M270.61942,132.64811l-2.79057,9.65403"/><path d="M250.29631,140.63354l-1.46271,-8.94842"/><path d="M233.44356,142.91644l-5.83115,-10.18116"/><path d="M225.13101,145.96307l-2.42421,-8.09952"/><path d="M258.15769,211.45328l1.91264,5.87009"/><path d="M289.91103,182.28219l3.06074,1.76357"/><path d="M295.32504,177.29164l-4.77184,-0.09813"/><path d="M297.95902,170.54334l-4.52343,1.94774l-2.25096,0.29381"/><path d="M299.75095,163.77759l-6.79599,3.6016l-1.38193,-1.38889"/><path d="M292.18831,162.60174l4.85803,-5.34209"/><path d="M283.9829,148.82786l4.00514,-4.67936"/><path d="M280.95983,144.68428l4.27511,-3.99356"/><path d="M279.31621,136.69939l-3.74602,6.0452"/><path d="M264.62495,130.06297l-1.52201,7.45148"/><path d="M260.98693,138.11464l0.0862,-5.44023"/><path d="M256.84146,142.82768l-3.48209,-10.61552"/></g><path d="M264.18048,210.78609l2.58795,6.39308"/><path d="M271.2326,214.55002l-4.02934,-6.20514"/><path d="M262.62068,218.45437l-0.55715,-2.05225l-0.84114,-4.67405"/><path d="M243.55502,139.87111l-0.21377,-7.1848"/><path d="M239.64936,133.80615l1.0712,6.82456"/><path d="M236.80772,139.55318l-2.87102,-8.76088"/><path d="M224.17203,207.45976l3.01737,-4.35955"/><path d="M236.09995,217.56876l3.43033,-7.80417"/><path d="M229.98055,213.02121l3.01736,-4.35956"/><path d="M248.43031,220.88349l1.59219,-7.45002"/><path d="M293.99864,191.88974l-6.68731,-5.91967"/></g><g fill="none" stroke="#000000" stroke-width="1.5" stroke-linecap="round"><path d="M215.19412,204.6025l2.01105,1.82916"/><path d="M219.41467,202.09217l3.16099,2.92799"/><path d="M212.57718,210.24399l-0.93888,-6.35836"/><path d="M223.76106,195.1646l2.3421,1.89309"/><path d="M208.11983,205.89532l0.33022,3.37013"/><path d="M203.85557,205.24526l0.10367,7.50401"/><path d="M187.96403,204.86947l4.04376,-5.07966"/><path d="M187.84484,196.23992l-5.35196,2.75349"/><path d="M183.82273,192.58153l-4.52192,1.23262"/><path d="M178.40857,190.83263l2.24283,-1.92952"/><path d="M174.31761,161.65401l2.8722,2.55949"/><path d="M176.26646,158.9808l2.57307,1.44057"/><path d="M188.30542,147.43712l1.74822,3.33667"/><path d="M207.0329,147.74595l1.05665,-5.65479"/><path d="M222.03733,145.51544l-3.04176,5.70161"/><path d="M224.07436,149.22063l-1.06701,4.90432"/><path d="M200.35281,203.40135l-1.31879,7.2123"/><path d="M177.9528,183.83745l-2.16554,1.36472"/><path d="M177.50134,179.90721l-3.37473,0.07961"/><path d="M177.05717,176.50223l-1.59173,-0.22516l-3.198,-1.50093"/><path d="M176.78608,171.2541l-0.97806,1.074l-4.80426,-2.77665"/><path d="M172.91999,164.51442l3.43278,4.12266"/><path d="M182.16309,157.99099l-2.83,-3.61142"/><path d="M184.30322,154.78776l-3.02125,-3.08144"/><path d="M184.58736,146.60655l4.38518,7.30297"/><path d="M195.86319,143.48063l1.0724,5.75467"/><path d="M199.50902,148.64917l-0.05804,-4.20227"/><path d="M201.36094,153.33452l2.46824,-8.20274"/><g><path d="M213.87091,202.00645l1.91651,1.8314"/><path d="M217.88591,199.28448l3.01241,2.93152"/><path d="M210.11566,203.97165l0.89835,6.35927"/><path d="M224.4763,198.29125l-2.58055,-2.10394"/><path d="M207.13434,203.29132l0.31673,3.37043"/><path d="M203.07269,202.6365l0.10367,7.50399"/><path d="M188.12618,198.55578l-2.65418,3.44052"/><path d="M185.10621,194.85942l-5.09534,2.74743"/><path d="M179.67951,191.17799l4.3058,-1.22754"/><path d="M180.96256,186.26852l-2.13478,1.92697"/><path d="M177.64954,161.57539l-2.73711,-2.56268"/><path d="M176.76676,156.34167l3.31318,2.01795"/><path d="M191.63865,151.3219l-2.57003,-7.06555"/><path d="M191.38272,142.86065l1.87956,7.45716"/><path d="M206.07831,146.40025l0.98519,-6.91211"/><path d="M216.42205,150.79233l3.92749,-7.86432"/><path d="M222.29196,146.63539l-1.6328,6.25638"/><path d="M199.77615,203.73277l-1.28824,4.53428"/><path d="M176.32758,182.56216l2.06153,-1.36226"/><path d="M177.95658,177.26923l-3.21402,0.07581"/><path d="M177.53129,173.86384l-1.51611,-0.22696l-3.04672,-1.50449"/><path d="M177.2697,168.61544l-0.93079,1.07283l-4.57734,-2.78201"/><path d="M176.85527,165.99799l-3.27206,-4.12643"/><path d="M182.38193,155.35852l-2.69762,-3.61452"/><path d="M183.01799,149.56617l2.87943,3.08477"/><path d="M187.87798,151.04034l-2.52307,-4.66955"/><path d="M195.42022,140.86381l1.02512,5.7558"/><path d="M197.81252,142.88095l0.05804,4.20223"/><path d="M203.008,142.52391l-2.34532,8.19983"/></g><path d="M195.71958,204.96184l-1.74308,3.19382"/><path d="M193.68363,201.33172l-2.71392,4.79309"/><path d="M197.71198,202.49945l-0.56654,5.05599l-0.37526,1.58523"/><path d="M210.25558,140.89018l-0.14398,5.54982"/><path d="M212.19218,146.7736l0.7215,-5.27155"/><path d="M214.15617,148.19439l1.93373,-6.76723"/><path d="M220.63444,197.28055l2.03231,3.36747"/><path d="M212.32241,202.42836l2.31045,6.02823"/><path d="M216.72221,201.5764l2.03231,3.3675"/><path d="M205.25551,205.26234l1.0724,5.75467"/><path d="M180.14011,184.04857l-4.50415,4.57259"/></g><g stroke-linecap="butt"><path d="M299.90674,164.15562c0,-4.4994 3.64749,-8.1469 8.14691,-8.1469c4.49941,0 8.14691,3.64748 8.14691,8.1469c0,4.4994 -3.64749,8.14691 -8.14691,8.14691c-4.49941,0 -8.14691,-3.64749 -8.14691,-8.14691z" fill="#5100a4" stroke="#000000" stroke-width="2.5"/><path d="M306.34915,165.29906c0,-1.96651 1.59418,-3.56069 3.5607,-3.56069c1.96651,0 3.56068,1.59418 3.56068,3.56069c0,1.96651 -1.59417,3.5607 -3.56068,3.5607c-1.96651,0 -3.5607,-1.59419 -3.5607,-3.5607z" fill="#000000" stroke="none" stroke-width="0.5"/><path d="M296.39573,165.65732c-0.12546,-7.501 5.74198,-13.69804 13.10529,-13.84148c7.3633,-0.14345 13.4341,5.82102 13.55957,13.32198c0.12546,7.501 -5.74195,13.69804 -13.10525,13.84148c-7.3633,0.14345 -13.43414,-5.82101 -13.5596,-13.32198z" fill="url(#color-2)" stroke="#000000" stroke-width="0"/></g><g fill="#000000" stroke="#000000" stroke-width="1.5" stroke-linecap="butt"><path d="M310.29141,146.3082l8.93941,-5.87525l-4.22616,9.65624z"/><g><path d="M298.60364,144.5864l1.985,-10.3299l4.07222,9.78635z"/><path d="M304.61897,144.44654l6.6503,-8.2548l-0.98765,10.47236z"/></g></g><g fill="none" stroke="#000000" stroke-width="1.5" stroke-linecap="round"><path d="M282.81496,147.27538l2.0276,0.95258"/><path d="M282.12782,151.22901l-3.19984,-1.53894"/><path d="M285.5347,143.1501l2.28218,4.77966"/><path d="M280.38574,157.73934l-2.30383,-0.92261"/><path d="M290.10019,145.49334l-1.07778,-2.57399"/><path d="M293.61617,144.97062l-1.90239,-5.88456"/><path d="M306.22258,141.41071l-1.95211,4.9816"/><path d="M308.41028,148.1779l3.54679,-3.46706"/><path d="M315.72766,148.01518l-3.26212,2.06792"/><path d="M317.15376,150.14675l-1.29815,2.06377"/><path d="M324.57235,170.8147l2.883,1.3188"/><path d="M324.19324,174.20144l2.37593,0.51019"/><path d="M317.70253,184.52025l2.18639,2.20358"/><path d="M305.60522,195.73433l-0.5399,-4.70976"/><path d="M294.80204,191.19352l-1.01209,5.22829"/><path d="M291.28668,193.99807l-0.34965,-4.12124"/><path d="M296.11079,139.57292l0.71137,5.99996"/><path d="M319.20998,155.54518l1.37432,-1.60021"/><path d="M320.51912,158.53086l2.63842,-0.88153"/><path d="M321.69509,161.10465l1.30818,-0.20889l2.88273,0.40609"/><path d="M323.18199,165.17199l0.50967,-1.08313l4.45726,1.02104"/><path d="M324.15821,167.12784l3.70376,2.41384"/><path d="M322.1655,176.92188l3.105,2.15748"/><path d="M324.3843,181.65752l-3.12703,-1.69369"/><path d="M317.7931,181.78842l5.22547,4.68738"/><path d="M312.65601,187.40168l2.24085,4.27183"/><path d="M310.77153,188.48769l1.06533,3.29537"/><path d="M308.17625,185.24714l0.04644,7.05887"/><g><path d="M286.51455,149.9514l-1.95369,-0.97729"/><path d="M284.01303,153.06925l-3.08369,-1.57777"/><path d="M286.74465,142.70236l2.25048,4.79021"/><path d="M279.06381,155.45053l2.54278,1.0308"/><path d="M291.50811,147.30498l-1.06723,-2.5775"/><path d="M294.86572,146.83515l-1.90239,-5.88454"/><path d="M305.62527,146.8264l1.25548,-3.35355"/><path d="M312.41467,146.84006l-3.34616,3.40003"/><path d="M316.06903,150.18317l-3.09314,2.01148"/><path d="M317.46347,152.32535l-1.21367,2.03554"/><path d="M324.85037,173.00385l2.77738,1.35409"/><path d="M326.8155,176.91144l-3.09889,-0.78532"/><path d="M316.32127,184.47316l3.73836,4.94082"/><path d="M318.57584,191.07465l-3.28961,-5.41676"/><path d="M306.14363,191.85274l0.90125,5.68261"/><path d="M295.74694,198.05l1.18489,-7.14642"/><path d="M293.08553,190.27825l0.23213,5.32333"/><path d="M297.19588,145.17195l-0.08564,-3.8835"/><path d="M319.50631,157.72822l1.293,-1.57304"/><path d="M320.80066,160.71884l2.51278,-0.83954"/><path d="M321.96189,163.29753l1.24907,-0.18912l2.76446,0.4456"/><path d="M323.44136,167.36738l0.47273,-1.07074l4.27986,1.08032"/><path d="M327.98091,171.78398l-3.5781,-2.45581"/><path d="M322.63187,179.04815l3.0015,2.19204"/><path d="M321.80494,182.06285l3.01614,1.73073"/><path d="M322.47129,186.84771l-3.12002,-3.06527"/><path d="M313.67676,189.34268l2.20389,4.28419"/><path d="M312.44186,189.32341l1.06532,3.29534"/><path d="M309.50216,194.16055l-0.14254,-7.02676"/></g><path d="M300.09238,143.21972l0.59781,-2.9382"/><path d="M302.57657,145.58461l0.97434,-4.43325"/><path d="M299.12075,145.64237l-0.78059,-4.11926l-0.0891,-1.33948"/><path d="M302.86611,191.10368l1.2332,4.40564"/><path d="M301.23813,193.04217l0.71086,4.32662"/><path d="M299.34666,192.39977l0.11909,5.79866"/><path d="M279.91708,153.15538l2.4176,2.15891"/><path d="M287.63167,149.24337l-3.28224,-4.18687"/><path d="M281.95579,148.82298l2.4176,2.15893"/><path d="M290.26869,141.02502l2.24085,4.27183"/><path d="M319.87388,151.21567l-2.43772,4.69397"/></g><path d="M150.27164,183.96174c-0.55765,-2.50246 1.01894,-4.98319 3.52141,-5.54084c2.50246,-0.55765 4.98319,1.01894 5.54084,3.52141c0.55765,2.50246 -1.01895,4.98319 -3.52141,5.54084c-2.50246,0.55765 -4.98319,-1.01894 -5.54084,-3.52141z" fill="#5100a4" stroke="#000000" stroke-width="0" stroke-linecap="butt"/><path d="M143.82525,185.65476c-1.51619,-6.30533 2.26926,-12.63722 8.45502,-14.1427c6.18575,-1.50548 12.42938,2.38557 13.94558,8.69085c1.51619,6.30533 -2.26923,12.63721 -8.455,14.14268c-6.18575,1.50548 -12.42942,-2.38555 -13.9456,-8.69084z" fill="url(#color-3)" stroke="#000000" stroke-width="0" stroke-linecap="butt"/><path d="M144.59688,185.36588c-1.3824,-5.74896 2.06902,-11.52217 7.70899,-12.89482c5.63996,-1.37264 11.33269,2.17509 12.71509,7.92402c1.3824,5.74896 -2.069,11.52217 -7.70896,12.89481c-5.63996,1.37264 -11.33271,-2.17507 -12.71511,-7.92402z" fill="url(#color-4)" stroke="#000000" stroke-width="0" stroke-linecap="butt"/><g fill="none" stroke="#000000" stroke-width="9" stroke-linecap="round"><path d="M255.78649,186.60978l-0.02718,-39.19909l22.77784,70.68344l0.2767,-6.85874" data-paper-data="{&quot;index&quot;:null}"/><g><path d="M188.05531,218.8356l1.31408,5.63399l21.95314,-85.20107l8.45119,43.52641"/><path d="M279.93172,180.52316l6.27505,-44.67854l28.1337,79.70673l-4.20716,-5.71033" data-paper-data="{&quot;index&quot;:null}"/><path d="M228.67903,212.65587l-2.944,5.57766l1.86155,5.87456l6.53606,-75.47877l9.52622,38.63865"/></g></g></g></g></svg>