<svg version="1.1" xmlns="http://www.w3.org/2000/svg" xmlns:xlink="http://www.w3.org/1999/xlink" width="51.51465" height="48.46197" viewBox="0,0,51.51465,48.46197"><g transform="translate(-224.01728,-154.93771)"><g data-paper-data="{&quot;isPaintingLayer&quot;:true}" fill-rule="nonzero" stroke-linejoin="miter" stroke-miterlimit="10" stroke-dasharray="" stroke-dashoffset="0" style="mix-blend-mode: normal"><path d="M245.90612,171.25805c0,0 3.60872,2.24817 4.62,3.48251c1.29979,1.58648 5.59304,5.01171 5.59304,5.01171" data-paper-data="{&quot;index&quot;:null}" fill="none" stroke="#000000" stroke-width="6" stroke-linecap="round"/><path d="M246.12558,171.38306c0,0 3.60872,2.24817 4.62,3.48251c1.29979,1.58648 5.04207,4.46074 5.04207,4.46074" data-paper-data="{&quot;index&quot;:null}" fill="none" stroke="#979797" stroke-width="4" stroke-linecap="round"/><path d="M234.45547,185.24513c0,0 -2.80095,-5.64077 -2.36711,-8.18626c0.2936,-3.86009 3.20877,-4.73747 3.20877,-4.73747" data-paper-data="{&quot;index&quot;:null}" fill="none" stroke="#000000" stroke-width="6" stroke-linecap="round"/><path d="M234.48737,184.79766c0,0 -2.70786,-5.42154 -2.27402,-7.96703c0.2936,-3.86009 3.87544,-5.62636 3.87544,-5.62636" data-paper-data="{&quot;index&quot;:null}" fill="none" stroke="#979797" stroke-width="4" stroke-linecap="round"/><path d="M233.55023,197.33222c0,0 -0.50391,-2.02339 0.04468,-5.02248c0.40558,-2.21725 2.87647,-3.2585 2.87647,-3.2585c0,0 2.55519,-1.3394 3.81504,-1.29635c1.20975,0.04134 3.97407,1.24892 3.97407,1.24892c0,0 1.69205,1.41049 2.14829,3.81662c0.51205,2.70049 0.29547,4.16334 0.29547,4.16334" data-paper-data="{&quot;index&quot;:null}" fill="none" stroke="#000000" stroke-width="6.5" stroke-linecap="round"/><path d="M235.73555,202.89967c-0.60047,0 -2.57083,0 -3.89912,0c-0.73564,0 -1.27433,-0.53084 -1.27433,-0.96023c0,-0.87489 0,-3.9862 0,-3.9862h5.88495c0,0 0,3.22638 0,4.08369c0,0.39406 -0.36549,0.86275 -0.7115,0.86275z" data-paper-data="{&quot;index&quot;:null}" fill="#191919" stroke="#000000" stroke-width="1" stroke-linecap="butt"/><path d="M241.06902,171.2573c2.70231,0.02418 4.86871,-2.39059 4.86871,-2.39059c0.76844,0 1.34719,5.69487 1.20866,9.3592c-0.14388,3.80567 -1.52983,8.18849 -1.52983,8.18849c-0.72415,0.49768 -0.18172,-1.4082 -5.05992,-0.89752c-6.39067,-0.22121 -4.41113,2.11529 -5.16408,0.97426c-0.19971,-0.60986 -1.27469,-4.55979 -1.36093,-8.216c-0.08565,-3.63107 0.47003,-9.44437 1.53177,-9.44437c0.89462,0 2.80348,2.40236 5.50563,2.42654z" data-paper-data="{&quot;index&quot;:null}" fill="#1e1e1e" stroke="#000000" stroke-width="1" stroke-linecap="butt"/><path d="M249.06888,202.89968c-0.60047,0 -2.57083,0 -3.89912,0c-0.73564,0 -1.27433,-0.53083 -1.27433,-0.96023c0,-0.87489 0,-3.98621 0,-3.98621h5.88495c0,0 0,3.22638 0,4.08369c0,0.39406 -0.36549,0.86275 -0.71149,0.86275z" data-paper-data="{&quot;index&quot;:null}" fill="#191919" stroke="#000000" stroke-width="1" stroke-linecap="butt"/><path d="M237.81373,175.88399l2.8887,-2.8887l2.8887,2.8887l-2.8887,2.8887z" fill="#565656" stroke="#000000" stroke-width="1" stroke-linecap="butt"/><path d="M237.31837,178.79423l3.32214,-3.32214l3.32214,3.32214l-3.32214,3.32214z" fill="#565656" stroke="#000000" stroke-width="1" stroke-linecap="butt"/><g><path d="M250.70698,178.28391h1.85191" data-paper-data="{&quot;index&quot;:null}" fill="none" stroke="#353535" stroke-width="0.75" stroke-linecap="round"/><path d="M239.70371,181.75319c0,0 -0.49292,-0.37811 -0.60515,-0.64748c-0.12051,-0.28923 -0.16486,-0.96967 -0.16486,-0.96967" data-paper-data="{&quot;index&quot;:null}" fill="none" stroke="#000000" stroke-width="0.75" stroke-linecap="round"/><path d="M241.59375,180.47748c0,0.35909 0.28782,1.01636 -0.14332,1.43571c-0.38474,0.37422 -1.61033,0.81292 -1.95673,0.81292c-0.11795,0 -1.6786,-0.46545 -1.73211,-0.83928c-0.07348,-0.5132 0.07881,-1.52745 0.4721,-1.52745c0.73455,0 3.36007,-0.56142 3.36007,0.11811z" data-paper-data="{&quot;index&quot;:null}" fill="none" stroke="#000000" stroke-width="0.75" stroke-linecap="butt"/><path d="M270.49422,178.94404v-3.01969" data-paper-data="{&quot;index&quot;:null}" fill="none" stroke="#000000" stroke-width="0.75" stroke-linecap="round"/><path d="M248.7164,177.77374v-1.08528h26.56554v1.08528c0,0 -1.24816,0 -2.51522,0c-3.91804,0 -24.05032,0 -24.05032,0z" data-paper-data="{&quot;index&quot;:null}" fill="#353535" stroke="#000000" stroke-width="0.5" stroke-linecap="butt"/><path d="M238.334,180.39857l-0.15283,-2.87006c0,0 1.24796,-0.84651 1.90219,-0.90991c0.97652,-0.09462 5.80402,-0.15257 8.45812,-0.1495c0.17209,0.0002 0.19592,1.19068 0.34995,1.19139c0.8483,0.00395 1.32998,0.00801 1.32998,0.00801v2.73006z" data-paper-data="{&quot;index&quot;:null}" fill="#353535" stroke="#000000" stroke-width="0.75" stroke-linecap="butt"/><path d="M225.80939,186.17558l-1.34848,-6.40703c0,0 4.23451,-0.92405 7.01495,-1.13147c0.47833,-0.03569 0.98364,0.9688 1.34694,0.91103c1.94712,-0.30955 5.28839,-1.94961 5.28839,-1.94961l0.14,2.80006c0,0 -1.1589,0.54504 -1.68633,1.10954c-0.05257,0.05627 -0.80184,1.65907 -1.22232,1.8354c-0.11115,0.04662 -0.95525,0.0443 -1.22157,0.0447c-0.37006,0.00055 -1.05199,-0.05608 -1.21329,0.00083c-0.27002,0.09527 0.01275,-1.06097 -0.26812,-0.95103c-2.78974,1.09189 -6.70861,3.98068 -6.70861,3.98068z" data-paper-data="{&quot;index&quot;:null}" fill="#9a5e1f" stroke="#000000" stroke-width="0.75" stroke-linecap="butt"/><path d="M241.26125,176.47849l1.57144,-1.20168h5.6387v1.20168z" data-paper-data="{&quot;index&quot;:null}" fill="#353535" stroke="#000000" stroke-width="0.75" stroke-linecap="butt"/><path d="M242.31126,178.89161v-2.27314h5.87631v2.27314z" data-paper-data="{&quot;index&quot;:null}" fill="#8c8c8c" stroke="#000000" stroke-width="0.75" stroke-linecap="butt"/><path d="M245.32132,177.72006h2.38005" data-paper-data="{&quot;index&quot;:null}" fill="none" stroke="#000000" stroke-width="0.75" stroke-linecap="round"/><path d="M250.32643,179.84662v-1.02061c0,0 2.40682,-0.02193 2.5953,-0.02193c3.33306,0 18.26158,0 18.26158,0v1.04255z" data-paper-data="{&quot;index&quot;:null}" fill="#353535" stroke="#000000" stroke-width="0.75" stroke-linecap="butt"/><path d="M241.73375,181.32608v-0.98002h1.33003v0.98002z" data-paper-data="{&quot;index&quot;:null}" fill="#353535" stroke="#000000" stroke-width="0.75" stroke-linecap="butt"/><path d="M253.0757,177.99503v0.47374" data-paper-data="{&quot;index&quot;:null}" fill="none" stroke="#000000" stroke-width="0.75" stroke-linecap="round"/><path d="M252.752,180.34604v-2.7298l10.83662,0.11142v2.11424c0,0 -2.18485,0.50414 -3.34677,0.50414c-1.98653,0 -7.48985,0 -7.48985,0z" data-paper-data="{&quot;index&quot;:null}" fill="#9a5e1f" stroke="#000000" stroke-width="0.75" stroke-linecap="butt"/></g><path d="M239.95489,182.53504l-4.995,2.83758" fill="none" stroke="#979797" stroke-width="4.5" stroke-linecap="round"/><path d="M233.30261,162.50308c0.55069,-4.27654 5.09763,-5.51397 6.26781,-5.32045c0.74208,0.12273 1.25887,1.46149 2.58575,1.45c1.371,0.13927 1.70659,-1.52451 2.63834,-1.32753c2.31775,-0.04019 3.86223,3.50646 3.01573,6.90105c-0.02866,0.11492 0.01657,0.22965 -0.00729,0.33097c-1.15784,4.91432 -4.24312,7.28804 -8.24729,6.72635c-4.00417,-0.56168 -6.80376,-4.48384 -6.25306,-8.76039z" data-paper-data="{&quot;index&quot;:null}" fill="#979797" stroke="#000000" stroke-width="1" stroke-linecap="butt"/><path d="M242.81954,164.82677c0,-1.06567 0.86391,-1.92959 1.92958,-1.92959c1.06567,0 1.92959,0.86391 1.92959,1.92959c0,1.06567 -0.86391,1.92959 -1.92959,1.92959c-1.06567,0 -1.92958,-0.86391 -1.92958,-1.92959z" fill="#000000" stroke="none" stroke-width="0" stroke-linecap="butt"/><path d="M237.56479,165.05378c0,-1.06567 0.86391,-1.92959 1.92959,-1.92959c1.06567,0 1.92959,0.86391 1.92959,1.92959c0,1.06567 -0.86391,1.92959 -1.92959,1.92959c-1.06567,0 -1.92959,-0.86391 -1.92959,-1.92959z" fill="#000000" stroke="none" stroke-width="0" stroke-linecap="butt"/><path d="M237.56232,182.54577c0,-1.30094 1.05462,-2.35556 2.35556,-2.35556c1.30094,0 2.35556,1.05462 2.35556,2.35556c0,1.30094 -1.05462,2.35556 -2.35556,2.35556c-1.30094,0 -2.35556,-1.05462 -2.35556,-2.35556z" fill="#000000" stroke="#000000" stroke-width="0.5" stroke-linecap="butt"/><path d="M253.58823,180.37806c0,-1.33602 1.08306,-2.41907 2.41908,-2.41907c1.33602,0 2.41908,1.08306 2.41908,2.41907c0,1.33602 -1.08306,2.41908 -2.41908,2.41908c-1.33602,0 -2.41908,-1.08306 -2.41908,-2.41908z" fill="#000000" stroke="#000000" stroke-width="0.5" stroke-linecap="butt"/><g fill="#1a1a1a" stroke="#000000" stroke-width="1" stroke-linecap="butt"><path d="M250.45374,161.71475c0.00256,1.44632 -4.53543,2.63396 -10.13585,2.65264c-5.60045,0.01868 -10.14256,-1.13865 -10.14512,-2.58498c-0.00256,-1.44632 4.53543,-2.63396 10.13585,-2.65264c5.60045,-0.01868 10.14256,1.13867 10.14512,2.58498z"/><path d="M233.8933,159.91568c0.12354,-0.42588 0.3854,-0.99491 0.52611,-1.591c0.16415,-0.69547 0.19875,-1.39196 0.19875,-1.39196c0,0 3.70078,-1.98833 6.17086,-1.99501c2.47007,-0.00669 5.56194,1.94798 5.56262,2.26761c0.00098,0.44905 0.08187,1.51798 0.34083,2.42909c0.22218,0.78163 -3.43049,3.10552 -6.86581,3.07893c-3.12785,-0.02422 -6.06532,-2.34277 -5.93339,-2.79766z"/></g><path d="M238.7317,158.32451l1.87991,-1.87991l1.8799,1.87991l-1.8799,1.8799z" fill="#565656" stroke="#000000" stroke-width="1" stroke-linecap="butt"/></g></g></svg>