<svg version="1.1" xmlns="http://www.w3.org/2000/svg" xmlns:xlink="http://www.w3.org/1999/xlink" width="98.31218" height="108.77453" viewBox="0,0,98.31218,108.77453"><defs><linearGradient x1="269.40963" y1="118.31611" x2="266.24677" y2="116.13339" gradientUnits="userSpaceOnUse" id="color-1"><stop offset="0" stop-color="#271100"/><stop offset="1" stop-color="#613700"/></linearGradient><linearGradient x1="248.1551" y1="153.00402" x2="241.80506" y2="148.65264" gradientUnits="userSpaceOnUse" id="color-2"><stop offset="0" stop-color="#ffffff"/><stop offset="1" stop-color="#323232"/></linearGradient><linearGradient x1="241.55972" y1="166.60953" x2="239.92294" y2="184.17972" gradientUnits="userSpaceOnUse" id="color-3"><stop offset="0" stop-color="#141414"/><stop offset="1" stop-color="#101010"/></linearGradient><linearGradient x1="250.99119" y1="105.32713" x2="250.00449" y2="129.41438" gradientUnits="userSpaceOnUse" id="color-4"><stop offset="0" stop-color="#cca670"/><stop offset="1" stop-color="#907751"/></linearGradient><linearGradient x1="241.55761" y1="119.173" x2="247.77879" y2="118.86189" gradientUnits="userSpaceOnUse" id="color-5"><stop offset="0" stop-color="#dadada"/><stop offset="1" stop-color="#898989"/></linearGradient><linearGradient x1="251.99673" y1="118.5407" x2="258.21789" y2="118.2296" gradientUnits="userSpaceOnUse" id="color-6"><stop offset="0" stop-color="#dadada"/><stop offset="1" stop-color="#898989"/></linearGradient><linearGradient x1="251.27042" y1="122.18371" x2="251.25591" y2="129.88536" gradientUnits="userSpaceOnUse" id="color-7"><stop offset="0" stop-color="#272727"/><stop offset="1" stop-color="#000000"/></linearGradient><linearGradient x1="265.95856" y1="151.04756" x2="235.86349" y2="149.81469" gradientUnits="userSpaceOnUse" id="color-8"><stop offset="0" stop-color="#202020"/><stop offset="1" stop-color="#000000"/></linearGradient><linearGradient x1="241.35589" y1="153.47343" x2="240.94285" y2="163.55585" gradientUnits="userSpaceOnUse" id="color-9"><stop offset="0" stop-color="#696969"/><stop offset="1" stop-color="#272727"/></linearGradient><linearGradient x1="260.22532" y1="153.9962" x2="259.81226" y2="164.07865" gradientUnits="userSpaceOnUse" id="color-10"><stop offset="0" stop-color="#696969"/><stop offset="1" stop-color="#272727"/></linearGradient><linearGradient x1="256.01571" y1="147.82676" x2="257.92798" y2="147.90511" gradientUnits="userSpaceOnUse" id="color-11"><stop offset="0" stop-color="#000000"/><stop offset="1" stop-color="#414141"/></linearGradient><linearGradient x1="244.07356" y1="141.45379" x2="243.77486" y2="148.74588" gradientUnits="userSpaceOnUse" id="color-12"><stop offset="0" stop-color="#696969"/><stop offset="1" stop-color="#272727"/></linearGradient><radialGradient cx="258.75424" cy="112.75738" r="5.19534" gradientUnits="userSpaceOnUse" id="color-13"><stop offset="0" stop-color="#00059e"/><stop offset="1" stop-color="#1f5cff"/></radialGradient><radialGradient cx="248.28798" cy="117.17498" r="5.19534" gradientUnits="userSpaceOnUse" id="color-14"><stop offset="0" stop-color="#00059e"/><stop offset="1" stop-color="#1f5cff"/></radialGradient><radialGradient cx="248.19654" cy="117.18923" r="7.2184" gradientUnits="userSpaceOnUse" id="color-15"><stop offset="0" stop-color="#0015ff"/><stop offset="1" stop-color="#0015ff" stop-opacity="0"/></radialGradient><radialGradient cx="259.06924" cy="113.13463" r="6.6881" gradientUnits="userSpaceOnUse" id="color-16"><stop offset="0" stop-color="#0021ff"/><stop offset="1" stop-color="#0021ff" stop-opacity="0"/></radialGradient><linearGradient x1="250.85304" y1="153.73739" x2="250.44001" y2="163.8198" gradientUnits="userSpaceOnUse" id="color-17"><stop offset="0" stop-color="#696969"/><stop offset="1" stop-color="#272727"/></linearGradient><linearGradient x1="227.04019" y1="138.74242" x2="229.88922" y2="150.11665" gradientUnits="userSpaceOnUse" id="color-18"><stop offset="0" stop-color="#838383"/><stop offset="1" stop-color="#000000"/></linearGradient><linearGradient x1="231.63576" y1="123.68581" x2="233.41822" y2="130.80193" gradientUnits="userSpaceOnUse" id="color-19"><stop offset="0" stop-color="#838383"/><stop offset="1" stop-color="#2c2c2c"/></linearGradient><linearGradient x1="237.17302" y1="129.10128" x2="238.28795" y2="133.55249" gradientUnits="userSpaceOnUse" id="color-20"><stop offset="0" stop-color="#838383"/><stop offset="1" stop-color="#2c2c2c"/></linearGradient><linearGradient x1="213.16278" y1="139.92088" x2="207.62118" y2="130.76993" gradientUnits="userSpaceOnUse" id="color-21"><stop offset="0" stop-color="#000000" stop-opacity="0"/><stop offset="1" stop-color="#000000" stop-opacity="0"/></linearGradient><linearGradient x1="252.64038" y1="140.63528" x2="242.30463" y2="137.87484" gradientUnits="userSpaceOnUse" id="color-22"><stop offset="0" stop-color="#000000" stop-opacity="0"/><stop offset="1" stop-color="#000000" stop-opacity="0"/></linearGradient></defs><g transform="translate(-177.53866,-95.90829)"><g data-paper-data="{&quot;isPaintingLayer&quot;:true}" fill-rule="nonzero" stroke-linejoin="miter" stroke-miterlimit="10" stroke-dasharray="" stroke-dashoffset="0" style="mix-blend-mode: normal"><g data-paper-data="{&quot;index&quot;:null}" stroke="#000000"><g data-paper-data="{&quot;index&quot;:null}"><path d="M262.67508,121.30906l7.74171,-11.28681l3.29017,2.39592l-7.86896,11.07357z" data-paper-data="{&quot;index&quot;:null}" fill="url(#color-1)" stroke-width="2" stroke-linecap="butt"/><path d="M223.32661,175.86577l36.95681,-54.4262l6.35004,4.35138c0,0 -1.45241,1.41161 -5.61232,7.53792c-4.44475,6.54586 -20.85924,27.43722 -27.34145,36.9836c-3.4413,5.06807 -10.35301,5.55333 -10.35301,5.55333z" data-paper-data="{&quot;index&quot;:null}" fill="url(#color-2)" stroke-width="2" stroke-linecap="butt"/><path d="M267.11136,125.51029l-6.96045,-4.38069" data-paper-data="{&quot;index&quot;:null}" fill="none" stroke-width="4" stroke-linecap="round"/><path d="M267.10895,121.30162l-2.83878,-1.97257" data-paper-data="{&quot;index&quot;:null}" fill="none" stroke-width="2" stroke-linecap="round"/><path d="M268.68905,119.18714l-2.68934,-1.86882" data-paper-data="{&quot;index&quot;:null}" fill="none" stroke-width="1.5" stroke-linecap="round"/><path d="M267.44165,114.70759l2.61466,1.8169" data-paper-data="{&quot;index&quot;:null}" fill="none" stroke-width="1.5" stroke-linecap="round"/><path d="M271.8447,114.58031l-2.61463,-1.81687" data-paper-data="{&quot;index&quot;:null}" fill="none" stroke-width="1.5" stroke-linecap="round"/></g><path d="M263.56531,123.52638c0,0 -28.03804,39.52524 -33.31532,46.93968c-1.65366,2.32331 -5.58086,4.17009 -5.58086,4.17009" fill="none" stroke-width="1" stroke-linecap="round"/></g><path d="M263.01462,137.77762c0,0 4.03561,0.81768 6.56968,6.16503c2.83353,5.97924 -0.65487,2.75529 0.43613,3.15095" data-paper-data="{&quot;index&quot;:null}" fill="none" stroke="#121212" stroke-width="10" stroke-linecap="round"/><path d="M256.14998,163.68718l5.3157,5.63359l2.34351,15.81375" data-paper-data="{&quot;index&quot;:null}" fill="none" stroke="#121212" stroke-width="13" stroke-linecap="round"/><path d="M238.53352,184.04962l3.91445,-14.93243l5.73776,-5.17361" data-paper-data="{&quot;index&quot;:null}" fill="none" stroke="url(#color-3)" stroke-width="13" stroke-linecap="round"/><path d="M256.3408,181.90479l-0.5235,-4.86387l13.70404,0.19749l0.42323,4.85595z" data-paper-data="{&quot;index&quot;:null}" fill="#000000" stroke="none" stroke-width="0" stroke-linecap="butt"/><path d="M258.34243,182.36093c-0.31992,-1.94309 -0.71254,-5.00097 -0.90217,-6.20411c-0.14846,-0.94182 0.88648,-1.98378 2.16081,-2.01316c0.95251,-0.02194 2.86454,-0.13591 4.45953,-0.20916c1.22353,-0.05619 2.46708,0.88829 2.5944,1.69597c0.1831,1.16156 0.70001,4.44097 1.02316,6.49096c0.16067,1.01927 -0.70362,1.75595 -1.95068,1.78332c-1.68098,0.03688 -3.85254,0.08474 -4.78296,0.10617c-0.77907,0.01794 -2.44384,-0.689 -2.60208,-1.65003z" data-paper-data="{&quot;index&quot;:null}" fill="#000000" stroke="none" stroke-width="NaN" stroke-linecap="butt"/><path d="M232.36294,179.63511l1.19189,-4.72828l13.7532,1.97264l-1.29353,4.72024z" data-paper-data="{&quot;index&quot;:null}" fill="#000000" stroke="none" stroke-width="0" stroke-linecap="butt"/><path d="M243.68461,181.9507c-0.23893,0.94317 -1.95526,1.50971 -2.72886,1.42779c-0.92391,-0.09782 -3.0805,-0.32401 -4.74989,-0.49893c-1.23846,-0.12978 -2.03592,-0.93382 -1.78966,-1.93473c0.49533,-2.01311 1.2877,-5.2335 1.56834,-6.37413c0.19516,-0.79314 1.51254,-1.63061 2.72514,-1.47411c1.58076,0.20402 3.47354,0.47459 4.41938,0.57479c1.2654,0.13401 2.20682,1.25576 1.97922,2.18067c-0.2907,1.18149 -0.94058,4.19167 -1.42363,6.09869z" data-paper-data="{&quot;index&quot;:null}" fill="#000000" stroke="none" stroke-width="NaN" stroke-linecap="butt"/><path d="M226.70455,195.62376c0.32688,-0.86625 1.02765,-2.72353 1.59743,-4.2335c0.47513,-1.2592 1.56149,-2.01184 2.22135,-1.76283c1.75354,0.66166 9.62022,3.63001 9.62022,3.63001c0,0 0.0319,1.19455 0.14519,2.65956c0.07346,0.9498 -0.98466,3.1987 -1.6426,4.01399c-1.08922,1.34977 -1.77804,2.0069 -1.77804,2.0069c0,0 -7.99671,-3.01742 -9.71524,-3.66586c-0.62063,-0.2342 -0.79446,-1.73108 -0.44837,-2.64825z" data-paper-data="{&quot;index&quot;:null}" fill="#000000" stroke="none" stroke-width="0" stroke-linecap="butt"/><path d="M230.45275,191.96915l1.50067,-9.24737c0,0 3.42313,3.18305 5.03659,3.81197c1.68502,0.65683 6.68975,0.73622 6.68975,0.73622l-5.4608,7.38261z" data-paper-data="{&quot;index&quot;:null}" fill="#000000" stroke="none" stroke-width="0" stroke-linecap="butt"/><path d="M254.49481,200.70275c0.13538,-0.94305 0.42565,-2.96509 0.66166,-4.60897c0.19679,-1.37089 1.07645,-2.37531 1.75339,-2.27816c1.79898,0.25825 9.86967,1.41686 9.86967,1.41686c0,0 0.2717,1.18918 0.67528,2.63043c0.26168,0.93442 -0.28878,3.43111 -0.74889,4.39952c-0.7617,1.60323 -1.28303,2.42039 -1.28303,2.42039c0,0 -8.20405,-1.17775 -9.96712,-1.43088c-0.63675,-0.09142 -1.10423,-1.55066 -0.96089,-2.54922z" data-paper-data="{&quot;index&quot;:null}" fill="#000000" stroke="none" stroke-width="0" stroke-linecap="butt"/><path d="M258.07009,197.37712l-1.14336,-10.7732c0,0 4.15873,2.38981 5.86979,2.65643c1.78695,0.27843 6.64133,-1.10007 6.64133,-1.10007l-3.14567,10.3061z" data-paper-data="{&quot;index&quot;:null}" fill="#000000" stroke="none" stroke-width="0" stroke-linecap="butt"/><path d="M241.48136,128.93863c-3.84588,-0.59643 -4.60508,-18.31011 -2.22599,-20.67334c2.72856,-2.71035 10.36183,-4.20461 16.70603,-1.77487c5.32918,2.04102 6.66899,7.3801 6.68067,11.94464c0.00984,3.83791 1.31496,9.04553 -1.95139,10.90793c-7.95495,0.0064 -11.23399,0.25169 -19.20931,-0.40437z" data-paper-data="{&quot;index&quot;:null}" fill="url(#color-4)" stroke="none" stroke-width="0" stroke-linecap="butt"/><path d="M244.53603,116.3743c1.71795,-0.08593 3.16975,1.02782 3.24277,2.48761c0.073,1.45977 -1.26044,2.71281 -2.9784,2.79874c-1.71795,0.08593 -3.16975,-1.02782 -3.24277,-2.48761c-0.073,-1.45977 1.26047,-2.71281 2.9784,-2.79874z" data-paper-data="{&quot;index&quot;:null}" fill="url(#color-5)" stroke="none" stroke-width="0" stroke-linecap="butt"/><path d="M243.60629,119.4563c-0.04555,-0.9108 0.65588,-1.68609 1.56666,-1.73163c0.9108,-0.04555 1.68609,0.65588 1.73163,1.56666c0.04555,0.9108 -0.65587,1.68606 -1.56666,1.73163c-0.9108,0.04555 -1.68609,-0.65588 -1.73163,-1.56666z" data-paper-data="{&quot;index&quot;:null}" fill="#000000" stroke="none" stroke-width="0" stroke-linecap="butt"/><path d="M241.31938,115.60278c0,0 2.05793,-0.54377 3.0564,-0.59369c1.0168,-0.05088 2.99045,0.29131 2.99045,0.29131" data-paper-data="{&quot;index&quot;:null}" fill="none" stroke="#000000" stroke-width="2.5" stroke-linecap="round"/><path d="M256.44658,108.85028c0,0 2.05792,-0.5438 3.05641,-0.59372c1.0168,-0.05088 2.99043,0.29132 2.99043,0.29132" data-paper-data="{&quot;index&quot;:null}" fill="none" stroke="#000000" stroke-width="2.5" stroke-linecap="round"/><path d="M254.97515,115.742c1.71795,-0.08593 3.16975,1.02782 3.24277,2.48761c0.073,1.45977 -1.26044,2.71281 -2.9784,2.79874c-1.71795,0.08593 -3.16978,-1.02781 -3.24278,-2.48759c-0.073,-1.45977 1.26044,-2.71281 2.9784,-2.79874z" data-paper-data="{&quot;index&quot;:null}" fill="url(#color-6)" stroke="none" stroke-width="0" stroke-linecap="butt"/><path d="M254.04539,118.82405c-0.04555,-0.9108 0.65587,-1.68606 1.56666,-1.73163c0.9108,-0.04555 1.68609,0.65588 1.73163,1.56666c0.04555,0.9108 -0.65588,1.68609 -1.56666,1.73163c-0.9108,0.04555 -1.68609,-0.65588 -1.73163,-1.56666z" data-paper-data="{&quot;index&quot;:null}" fill="#000000" stroke="none" stroke-width="0" stroke-linecap="butt"/><path d="M257.53504,129.77519l-0.73332,-0.66053l-0.78981,0.77965l-1.00292,-0.28671l-1.06695,-0.34725l-0.69664,-0.74139l-1.04414,0.04159l-0.62122,-0.32812l-0.85227,0.28108l-1.48127,0.86212l-1.1497,-0.33576l-1.06607,0.46079l-0.90357,0.35964l-0.97491,-0.98716l-1.2285,-0.24957l0.49316,-0.95068l-1.16249,-0.46139l-0.13916,-1.15177l1.08522,-0.26214l0.16404,-0.77795l0.67905,-0.97703l1.01842,-0.01653l1.10987,-0.44903l0.87787,0.07361l0.8333,-0.62986l1.4031,-0.10644l1.49178,-0.72981l0.80296,0.82992l1.22026,0.23518l0.67369,0.71401l0.95416,0.01411l0.67952,0.67118l0.96606,-0.51449l0.52032,1.05274l0.40924,0.51l0.94869,-0.16242l0.45582,1.68241l-0.64488,1.1103l-0.55962,1.16036z" data-paper-data="{&quot;index&quot;:null}" fill="url(#color-7)" stroke="#000000" stroke-width="0" stroke-linecap="butt"/><path d="M236.83464,112.81285l-0.79161,-1.78325l0.25516,-1.64575l-0.43296,-1.70274l0.99523,-0.43814l0.81957,-0.32299l0.47333,-1.21926l1.55677,0.44758l1.20429,-0.57828l1.3351,-1.33386l1.03592,0.88338l1.66774,-0.72197l1.98835,-0.29661l1.45759,-0.00801c0,0 0.31387,0.93498 0.68666,1.16872c0.37651,0.23608 1.56138,0.24071 1.56138,0.24071l1.05937,-0.93209l1.29888,0.17888l1.52464,0.23693l1.37175,-0.15802l1.33646,-0.1608l-0.73255,1.546l0.58618,0.82489l0.86053,1.02559l0.81831,1.347c0,0 -0.0506,0.94376 -0.30301,1.19262c-0.22227,0.21916 -1.36466,0.30484 -1.36466,0.30484l-1.55445,-0.3643l-0.79049,1.23766c0,0 -0.95573,0.19121 -1.18024,0.17813c-0.33687,-0.01965 -0.66667,-0.73311 -0.66667,-0.73311l-1.28547,0.39633c0,0 -0.24027,0.09015 -0.58375,0.05895c-0.23615,-0.02143 -0.5932,-0.59375 -0.732,-0.66262c-0.24352,-0.12079 -0.55915,-0.76381 -0.55915,-0.76381c0,0 -0.60576,-0.03226 -0.89896,0.10336c-0.36231,0.16757 -0.64689,1.54981 -0.64689,1.54981l-1.52807,-0.05122l-1.07563,-0.14913l-1.55075,-0.33736l-1.00372,0.43568l-1.52066,0.95631l-1.44964,0.49095l-1.21257,-1.08697l-1.02818,1.01979z" data-paper-data="{&quot;index&quot;:null}" fill="#000000" stroke="#000000" stroke-width="0.5" stroke-linecap="butt"/><path d="M234.45284,128.74059l28.68678,0.49958c0,0 -1.16316,13.48044 -1.00503,20.05823c0.15543,6.4639 2.27322,19.40391 2.27322,19.40391c0,0 -9.65965,2.04412 -14.43833,1.98117c-4.76975,-0.06283 -14.207,-2.35857 -14.207,-2.35857c0,0 0.25411,-12.6311 0.0388,-19.13977c-0.22107,-6.68157 -1.34841,-20.44452 -1.34841,-20.44452z" data-paper-data="{&quot;index&quot;:null}" fill="#191919" stroke="none" stroke-width="0" stroke-linecap="butt"/><path d="M263.91017,134.4828c0,0 2.60132,10.82805 1.9262,15.61621c-0.04175,4.91008 -0.87294,17.8761 -0.87294,17.8761c0,0 -9.61566,3.65295 -15.45433,3.84838c-5.83869,0.19547 -14.769,-3.46574 -14.769,-3.46574c0,0 0.58716,-15.65394 1.39179,-20.52283c0.06989,-2.05262 2.7186,-13.79872 2.7186,-13.79872c0,0 3.11627,-0.51022 6.72544,-0.20112c2.44234,0.20917 6.26057,0.35154 8.74013,0.4927c2.6504,0.15091 1.61111,-0.15864 3.07906,-0.07552z" data-paper-data="{&quot;index&quot;:null}" fill="url(#color-8)" stroke="#000000" stroke-width="2" stroke-linecap="butt"/><path d="M237.71493,161.89866c0.06809,-1.66206 0.4263,-8.55687 0.4263,-8.55687c0,0 2.1183,0.08676 3.19222,0.13075c1.09403,0.04483 3.31282,0.13569 3.31282,0.13569c0,0 -0.28096,6.85792 -0.35063,8.55996c-0.03043,0.74243 -0.64236,1.49869 -1.34823,1.46976c-1.3608,-0.05574 -3.39179,-0.21606 -4.08139,-0.24429c-0.40106,-0.01642 -1.17899,-0.81204 -1.15101,-1.49506z" data-paper-data="{&quot;index&quot;:null}" fill="url(#color-9)" stroke="#000000" stroke-width="1" stroke-linecap="butt"/><path d="M237.27981,156.08188c0,0 0.11291,-2.75626 0.14532,-3.54757c0.01495,-0.36483 0.72146,-0.98546 1.3022,-0.96168c0.95059,0.03894 3.74718,0.1535 5.25276,0.2152c0.55112,0.02256 1.02315,0.71176 1.00612,1.1276c-0.03341,0.81506 -0.14241,3.4763 -0.14241,3.4763z" data-paper-data="{&quot;index&quot;:null}" fill="#282828" stroke="#000000" stroke-width="1" stroke-linecap="butt"/><text transform="translate(251.811,138.97433) rotate(2.34205) scale(0.06656,0.06656)" font-size="40" xml:space="preserve" data-paper-data="{&quot;index&quot;:null}" fill="#ffffff" fill-rule="nonzero" stroke="#ffffff" stroke-width="2" stroke-linecap="butt" stroke-linejoin="miter" stroke-miterlimit="10" stroke-dasharray="" stroke-dashoffset="0" font-family="Sans Serif" font-weight="normal" text-anchor="start" style="mix-blend-mode: normal"><tspan x="0" dy="0">S.O.A.S.T</tspan></text><path d="M254.56578,147.70154c-0.2813,-0.57595 -0.43941,-1.22139 -0.44147,-1.90063" data-paper-data="{&quot;index&quot;:null}" fill="#e6e016" stroke="#ff1919" stroke-width="3" stroke-linecap="butt"/><path d="M262.43093,129.52138c0,0 1.35482,1.96522 1.36965,2.98599c0.0142,0.97832 -0.44484,2.98597 -0.44484,2.98597l-7.21396,-0.22277c0,0 1.07048,-2.78586 1.07504,-2.9133c0.03213,-0.89361 -0.74428,-2.96353 -0.74428,-2.96353z" data-paper-data="{&quot;index&quot;:null}" fill="#000000" stroke="#000000" stroke-width="0.5" stroke-linecap="butt"/><path d="M254.67667,143.82442c0.37026,-0.60356 0.90555,-1.09267 1.5404,-1.40705" data-paper-data="{&quot;index&quot;:null}" fill="none" stroke="#1921ff" stroke-width="3" stroke-linecap="butt"/><path d="M258.15047,142.03883c0.84989,0.06044 1.61698,0.40112 2.21405,0.92731" data-paper-data="{&quot;index&quot;:null}" fill="none" stroke="#4aff19" stroke-width="3" stroke-linecap="butt"/><path d="M261.48916,144.73153c0.11177,0.38228 0.16417,0.78898 0.14697,1.20895c-0.01149,0.28036 -0.05342,0.55224 -0.12245,0.81268" data-paper-data="{&quot;index&quot;:null}" fill="none" stroke="#fff719" stroke-width="3" stroke-linecap="butt"/><path d="M260.71468,148.31771c-0.48798,0.48294 -1.10666,0.8321 -1.795,0.99124" data-paper-data="{&quot;index&quot;:null}" fill="none" stroke="#ff9319" stroke-width="3" stroke-linecap="butt"/><path d="M256.5843,162.42145c0.06809,-1.66206 0.4263,-8.55687 0.4263,-8.55687l6.50503,0.26647c0,0 -0.28096,6.85792 -0.35063,8.55996c-0.03043,0.74243 -0.64236,1.49869 -1.34823,1.46976c-1.3608,-0.05574 -3.39179,-0.21606 -4.08139,-0.24429c-0.40106,-0.01642 -1.17899,-0.81204 -1.15101,-1.49506z" data-paper-data="{&quot;index&quot;:null}" fill="url(#color-10)" stroke="#000000" stroke-width="1" stroke-linecap="butt"/><path d="M255.9227,150.09767l2.09839,-4.46348" data-paper-data="{&quot;index&quot;:null}" fill="none" stroke="url(#color-11)" stroke-width="1.5" stroke-linecap="round"/><path d="M256.3669,145.64435c0.03439,-0.83949 0.7428,-1.49217 1.58233,-1.45777c0.83948,0.03437 1.49216,0.74281 1.45777,1.58234c-0.03439,0.83949 -0.74281,1.49213 -1.58234,1.45776c-0.83948,-0.03437 -1.49217,-0.7428 -1.45777,-1.58233z" data-paper-data="{&quot;index&quot;:null}" fill="#ffffff" stroke="none" stroke-width="3" stroke-linecap="butt"/><path d="M244.51958,129.21178c0,0 0.0745,1.81966 0.14674,2.81661c0.07909,1.09172 0.58436,2.96388 0.58436,2.96388l-6.14138,-0.22253c0,0 -1.13555,-1.83317 -1.10767,-2.94883c0.02488,-0.99605 0.08401,-2.96075 0.08401,-2.96075z" data-paper-data="{&quot;index&quot;:null}" fill="#000000" stroke="#000000" stroke-width="0.5" stroke-linecap="butt"/><path d="M253.68525,105.69651c4.2325,0.91313 4.17405,-4.58637 7.25496,-1.15226c3.52439,3.9379 4.42363,13.2817 4.44342,19.55589c-1.18716,4.85598 -0.63769,4.69691 -5.92837,5.85183c-4.60698,0.8342 -11.41441,1.45682 -16.05405,1.17395c-0.36273,-0.0221 -1.13567,-0.04865 -1.31991,-0.10305c-3.26386,-2.24769 -4.03491,-3.37848 -4.9404,-6.5764c-0.09282,-0.32804 -0.48709,-6.346 0.49336,-10.01767c0.94227,-3.97882 -0.50583,-3.98549 2.06016,-6.63408c1.90584,-1.96809 6.84873,-0.91215 9.22365,-0.39714z" data-paper-data="{&quot;index&quot;:null}" fill="#3e3e3e" stroke="#000000" stroke-width="1.5" stroke-linecap="round"/><path d="M256.292,156.61049c0,0 0.11291,-2.75628 0.14534,-3.54757c0.01495,-0.36483 0.72144,-0.98545 1.3022,-0.96166c0.95059,0.03894 3.7472,0.1535 5.25278,0.21517c0.55112,0.02256 1.02315,0.71176 1.0061,1.12761c-0.03341,0.81506 -0.14239,3.47631 -0.14239,3.47631z" data-paper-data="{&quot;index&quot;:null}" fill="#282828" stroke="#000000" stroke-width="1" stroke-linecap="butt"/><path d="M259.0372,132.89185c-2.92356,-0.11975 -7.3834,-2.81805 -7.24835,-6.11524c0.07134,-1.74137 0.44846,-3.47822 1.22233,-4.78814c0.69138,-1.17034 1.85967,-2.17154 3.23919,-2.11502c1.07676,0.04409 3.1108,0.08843 4.34104,1.07234c2.11007,1.68759 3.24356,4.93915 3.15825,7.02202c0,0 -1.78887,5.0438 -4.71243,4.92403z" data-paper-data="{&quot;index&quot;:null}" fill="#151515" stroke="#000000" stroke-width="1.5" stroke-linecap="butt"/><path d="M263.41559,127.83743c-0.10497,2.56261 -2.02701,4.56477 -4.29299,4.47196c-2.26599,-0.09283 -4.01783,-2.24548 -3.91286,-4.80812c0.10497,-2.56261 2.02703,-4.56476 4.29299,-4.47194c2.266,0.09282 4.01781,2.24548 3.91284,4.80811z" data-paper-data="{&quot;index&quot;:null}" fill="#313131" stroke="#000000" stroke-width="1.5" stroke-linecap="butt"/><g data-paper-data="{&quot;index&quot;:null}" stroke="#000000" stroke-width="1" stroke-linecap="butt"><path d="M241.09041,147.53299c0.04925,-1.20206 0.31635,-6.18839 0.31635,-6.18839l5.39641,0.22107c0,0 -0.20321,4.95998 -0.25359,6.19098c-0.022,0.53696 -0.52625,1.08136 -1.11183,1.05737c-1.12889,-0.04624 -2.81408,-0.171 -3.38616,-0.19447c-0.33276,-0.01363 -0.98139,-0.59259 -0.96117,-1.08655z" fill="url(#color-12)"/><path d="M240.82269,143.32793c0,0 0.08165,-1.99343 0.1051,-2.56578c0.01079,-0.26386 0.59408,-0.70979 1.07583,-0.69004c0.78858,0.03232 3.10854,0.12735 4.35754,0.17851c0.45718,0.01872 0.85169,0.51935 0.83938,0.82015c-0.02415,0.58949 -0.10301,2.51425 -0.10301,2.51425z" fill="#282828"/></g><path d="M258.89614,106.50345c1.3054,0.21291 2.38607,1.06951 3.07599,2.27814c0.68897,1.21277 0.98708,2.7779 0.73077,4.40861c-0.25638,1.63071 -1.01929,3.02276 -2.04555,3.95569c-1.02593,0.92907 -2.31515,1.39868 -3.6205,1.18579c-1.30567,-0.21298 -2.38645,-1.0692 -3.076,-2.27815c-0.68926,-1.2128 -0.98706,-2.7779 -0.73075,-4.40857c0.25638,-1.63071 1.01896,-3.0228 2.04555,-3.95569c1.02555,-0.92878 2.31482,-1.39879 3.62049,-1.18581z" data-paper-data="{&quot;index&quot;:null}" fill="#000000" stroke="#000000" stroke-width="2" stroke-linecap="butt"/><path d="M234.0246,127.12571c0,0 -0.74466,2.24711 -1.30903,7.72928c-0.72249,1.21237 -1.27002,4.29258 -5.96063,8.82366c-3.89784,3.76528 -12.9213,-6.99702 -14.10395,-5.76539" data-paper-data="{&quot;index&quot;:null}" fill="none" stroke="#121212" stroke-width="10" stroke-linecap="round"/><path d="M259.51247,107.51369c1.07087,0.18977 1.95795,0.95011 2.52469,2.02241c0.566,1.07593 0.81166,2.46406 0.60259,3.90985c-0.20908,1.44586 -0.83385,2.67968 -1.67494,3.50628c-0.84083,0.82312 -1.89794,1.23862 -2.96879,1.0489c-1.07111,-0.18978 -1.95822,-0.94987 -2.52469,-2.02241c-0.56622,-1.07598 -0.81165,-2.46407 -0.60263,-3.90989c0.2091,-1.44586 0.83357,-2.67977 1.67495,-3.5063c0.84056,-0.82285 1.89767,-1.2387 2.96879,-1.0489z" data-paper-data="{&quot;index&quot;:null}" fill="url(#color-13)" stroke="#000000" stroke-width="2" stroke-linecap="butt"/><path d="M240.43058,109.64368c0,0 -0.15074,20.91162 -0.75513,20.68309c-0.94023,-0.35556 -0.6044,-1.16232 -2.51608,-1.55758c-1.03224,-0.21342 -3.59726,0.15836 -5.37487,-0.46423c-1.30504,-0.45708 -0.68271,-22.83603 -0.68271,-22.83603c0,0 1.33559,-7.06792 13.76333,-8.80879c14.51614,0.51303 15.70324,7.28 15.70324,7.28c0,0 -2.37904,1.4415 -6.76606,4.16381c-4.36451,2.70833 -10.99581,1.79127 -10.99581,1.79127z" data-paper-data="{&quot;index&quot;:null}" fill="#1e1e1e" stroke="#000000" stroke-width="1.5" stroke-linecap="butt"/><path d="M248.03919,110.62762c1.3054,0.21291 2.38606,1.06951 3.07599,2.27814c0.68897,1.21277 0.98706,2.77791 0.73077,4.40861c-0.25638,1.63071 -1.01929,3.02271 -2.04555,3.95569c-1.02593,0.92907 -2.31512,1.39871 -3.62051,1.1858c-1.30567,-0.21298 -2.38645,-1.0692 -3.07599,-2.27814c-0.68926,-1.2128 -0.98706,-2.7779 -0.73075,-4.40858c0.25638,-1.63071 1.01894,-3.02284 2.04555,-3.95573c1.02555,-0.92878 2.31485,-1.39875 3.62049,-1.18578z" data-paper-data="{&quot;index&quot;:null}" fill="#000000" stroke="#000000" stroke-width="2" stroke-linecap="butt"/><path d="M249.04621,111.93126c1.07087,0.18977 1.95795,0.95011 2.52469,2.02241c0.566,1.07593 0.81165,2.46407 0.6026,3.90987c-0.2091,1.44586 -0.83387,2.6797 -1.67494,3.50628c-0.84083,0.82312 -1.89794,1.23862 -2.96879,1.0489c-1.07111,-0.18978 -1.95822,-0.94987 -2.52469,-2.02241c-0.56622,-1.07598 -0.81167,-2.46406 -0.60261,-3.90988c0.2091,-1.44586 0.83357,-2.67977 1.67495,-3.5063c0.84056,-0.82285 1.89767,-1.2387 2.96879,-1.0489z" data-paper-data="{&quot;index&quot;:null}" fill="url(#color-14)" stroke="#000000" stroke-width="2" stroke-linecap="butt"/><path d="M252.76044,112.95431c0.78552,1.41308 1.12568,3.2366 0.83403,5.1363c-0.29169,1.89972 -1.16078,3.52126 -2.33006,4.60797c-1.16891,1.08207 -2.64299,1.1683 -4.13068,0.91989c-1.48804,-0.24849 -2.71492,-0.78574 -3.50108,-2.19438c-0.78583,-1.41311 -1.12567,-3.23659 -0.83403,-5.1363c0.29169,-1.89972 1.16162,-3.40623 2.33133,-4.4928c1.16851,-1.08175 2.64391,-1.05327 4.13193,-0.80478c0,0 2.71197,0.5558 3.49857,1.9641z" data-paper-data="{&quot;index&quot;:null}" fill="url(#color-15)" stroke="#000000" stroke-width="0" stroke-linecap="butt"/><path d="M263.29402,108.85831c0.7291,1.42901 1.04595,3.2725 0.77747,5.19236c-0.26853,1.9199 -1.07225,3.55812 -2.15466,4.65541c-1.08206,1.09267 -2.44779,1.17844 -3.82642,0.92599c-1.37896,-0.25252 -2.51623,-0.79671 -3.24592,-2.22119c-0.72942,-1.42909 -1.04595,-3.27249 -0.77746,-5.19235c0.26853,-1.9199 1.07314,-3.44182 2.15594,-4.53902c1.0817,-1.09234 2.44872,-1.06216 3.82769,-0.80962c0,0 2.51329,0.56425 3.2434,1.98846z" data-paper-data="{&quot;index&quot;:null}" fill="url(#color-16)" stroke="#000000" stroke-width="0" stroke-linecap="butt"/><path d="M240.14754,116.19042l-0.97365,-0.95263" data-paper-data="{&quot;index&quot;:null}" fill="none" stroke="#000000" stroke-width="1" stroke-linecap="round"/><path d="M239.32203,116.1994l0.95112,-1.11125" data-paper-data="{&quot;index&quot;:null}" fill="none" stroke="#000000" stroke-width="1" stroke-linecap="round"/><path d="M259.59091,104.79738l-0.69748,-1.17005" data-paper-data="{&quot;index&quot;:null}" fill="none" stroke="#000000" stroke-width="1" stroke-linecap="round"/><path d="M258.40407,104.48898l1.2038,-0.83086" data-paper-data="{&quot;index&quot;:null}" fill="none" stroke="#000000" stroke-width="1" stroke-linecap="round"/><path d="M239.70582,157.36752l0.11642,-2.84138l2.56637,0.10514l-0.11642,2.84138z" data-paper-data="{&quot;index&quot;:null}" fill="#000000" stroke="none" stroke-width="0" stroke-linecap="butt"/><path d="M247.21205,162.16263c0.06809,-1.66206 0.42628,-8.55687 0.42628,-8.55687l6.50503,0.26647c0,0 -0.28096,6.85792 -0.35063,8.55996c-0.03043,0.74243 -0.64236,1.49869 -1.34824,1.46976c-1.3608,-0.05574 -3.39179,-0.21606 -4.08139,-0.24429c-0.40106,-0.01642 -1.17899,-0.81204 -1.15101,-1.49506z" data-paper-data="{&quot;index&quot;:null}" fill="url(#color-17)" stroke="#000000" stroke-width="1" stroke-linecap="butt"/><path d="M246.91971,156.35164c0,0 0.11292,-2.75627 0.14534,-3.54757c0.01495,-0.36483 0.72145,-0.98545 1.3022,-0.96166c0.95059,0.03894 3.7472,0.1535 5.25278,0.21517c0.55112,0.02256 1.02315,0.71176 1.0061,1.12761c-0.03341,0.81506 -0.1424,3.4763 -0.1424,3.4763z" data-paper-data="{&quot;index&quot;:null}" fill="#282828" stroke="#000000" stroke-width="1" stroke-linecap="butt"/><path d="M249.20302,157.63146l0.11642,-2.84138l2.56637,0.10514l-0.11642,2.84138z" data-paper-data="{&quot;index&quot;:null}" fill="#000000" stroke="none" stroke-width="0" stroke-linecap="butt"/><path d="M258.57526,157.89029l0.11642,-2.84138l2.56637,0.10514l-0.11642,2.84138z" data-paper-data="{&quot;index&quot;:null}" fill="#000000" stroke="none" stroke-width="0" stroke-linecap="butt"/><g data-paper-data="{&quot;index&quot;:null}"><path d="M226.67239,134.10352c0,0 -0.53546,-2.13777 -0.73814,-2.94689c-0.14779,-0.59005 0.14077,-1.58859 0.70889,-1.73091c1.36835,-0.34275 3.69914,-0.92656 4.55296,-1.14044c0.59364,-0.1487 1.37736,0.40123 1.51581,0.95406c0.20376,0.81348 0.78991,3.15354 0.78991,3.15354z" fill="#282828" stroke="none" stroke-width="0" stroke-linecap="butt"/><path d="M239.11314,137.23797l-0.94488,-3.77223l3.95073,-0.98959l0.94488,3.77223z" fill="#505050" stroke="none" stroke-width="0" stroke-linecap="butt"/><path d="M234.91578,132.11815c0,0 -0.61811,-2.46772 -0.8249,-3.29322c-0.12047,-0.48096 0.26322,-1.35417 0.97469,-1.53236c1.3809,-0.3459 3.48341,-0.87252 4.28233,-1.07264c0.57711,-0.14456 1.52538,0.39501 1.64586,0.87597c0.20677,0.82552 0.8249,3.29322 0.8249,3.29322z" fill="#282828" stroke="#000000" stroke-width="0.5" stroke-linecap="butt"/><path d="M237.38086,132.6124l-0.63635,-2.54051l2.3499,-0.58861l0.63635,2.54051z" fill="#000000" stroke="none" stroke-width="0" stroke-linecap="butt"/><path d="M228.35188,125.87292c-0.70632,-0.01606 -1.38299,-0.2323 -1.95888,-0.6061" fill="none" stroke="#ff9319" stroke-width="3" stroke-linecap="butt"/><path d="M232.63573,125.62502c-0.57949,0.47973 -1.22405,0.93973 -1.92476,1.3692" fill="none" stroke="#000000" stroke-width="3" stroke-linecap="butt"/><path d="M223.4106,148.93441c0,0 0.58276,-2.50321 1.23783,-4.16348c0.3334,-0.84497 0.24038,-2.00733 0.29573,-2.41372c0.12472,-0.91553 -0.08595,-3.06821 -0.08595,-3.06821c0,0 -0.84163,-4.51057 -0.44775,-4.56375c1.21466,-0.16402 7.4404,-1.9125 7.4404,-1.9125c0,0 1.44099,8.54024 1.37815,9.27807c-0.03687,0.43312 -0.06946,2.23398 -0.59921,3.71504c-0.69011,1.92932 -1.27038,3.94255 -1.27038,3.94255z" fill="url(#color-18)" stroke="#000000" stroke-width="1.5" stroke-linecap="butt"/><path d="M221.8013,126.41141l-0.34785,-1.38871l20.98023,-5.25516l0.34785,1.38871z" fill="#888888" stroke="#000000" stroke-width="0.5" stroke-linecap="butt"/><path d="M183.28351,138.23409l18.98615,-4.75569l0.64064,2.55767l-18.86126,4.75537z" fill="#888888" stroke="#000000" stroke-width="1.5" stroke-linecap="round"/><path d="M222.08409,133.64093l-1.78245,-7.11614l22.66825,-5.67797l1.78247,7.11614z" fill="url(#color-19)" stroke="#000000" stroke-width="1" stroke-linecap="butt"/><path d="M224.11843,134.86295l-0.9179,-2.6025l7.9146,-1.98246l0.57644,2.75442z" fill="#767676" stroke="#000000" stroke-width="1.5" stroke-linecap="butt"/><path d="M231.42614,135.27128l-1.11495,-4.45122l13.72362,-3.43752c0,0 0.40616,1.62146 0.59827,2.38846c0.08738,0.34889 -1.61457,0.35276 -2.30099,1.05693c-0.71595,0.7345 -0.16954,1.63868 -0.16954,1.63868z" fill="url(#color-20)" stroke="#000000" stroke-width="1" stroke-linecap="butt"/><path d="M238.78142,137.10708c0,0 -2.75462,0.68999 -3.81059,0.9545c-0.7512,0.18815 -2.12878,-0.31704 -2.25142,-0.80666c-0.16221,-0.64759 -0.56515,-2.2562 -0.56515,-2.2562l5.73897,-1.43751l0.88818,3.54588z" fill="none" stroke="#000000" stroke-width="2" stroke-linecap="butt"/><path d="M223.56518,131.44631l-0.7559,-3.01779l7.81829,-1.95836l0.7559,3.01779z" fill="#000000" stroke="none" stroke-width="0" stroke-linecap="butt"/><path d="M232.07894,134.02886l-0.60471,-2.41421l2.24567,-0.56251l0.60471,2.41421z" fill="none" stroke="#000000" stroke-width="1" stroke-linecap="butt"/><path d="M232.68115,131.71322c0.44213,-0.11075 0.89362,0.17103 1.00843,0.62938c0.11481,0.45833 -0.15055,0.91967 -0.59267,1.03042c-0.44213,0.11074 -0.89362,-0.17103 -1.00843,-0.62938c-0.11481,-0.45833 0.15055,-0.91967 0.59267,-1.03042z" fill="#9e9e9e" stroke="none" stroke-width="0" stroke-linecap="butt"/><path d="M221.71735,127.53467l20.33214,-4.93246" fill="none" stroke="#000000" stroke-width="1" stroke-linecap="round"/><path d="M238.64226,130.05974c0.66605,-0.16684 1.32023,0.15391 1.46113,0.71642c0.14089,0.5625 -0.28483,1.15373 -0.9509,1.32058c-0.66606,0.16684 -1.32023,-0.15391 -1.46113,-0.71642c-0.14089,-0.5625 0.28483,-1.15373 0.9509,-1.32058z" fill="#858585" stroke="none" stroke-width="0" stroke-linecap="butt"/><path d="M235.43647,128.37721c0,0 -1.72091,-0.51847 -1.83726,-0.983c-0.11006,-0.43941 1.15697,-1.73301 1.15697,-1.73301l7.48561,-1.875l0.68031,2.71601z" fill="#c7c7c7" stroke="#000000" stroke-width="1" stroke-linecap="butt"/><path d="M242.53898,126.35542l-0.54802,-2.18788l0.83173,-0.20834l0.54802,2.18788z" fill="#888888" stroke="#000000" stroke-width="1" stroke-linecap="butt"/><path d="M236.41899,134.06429c0,0 0.57871,1.14922 0.41025,1.69043c-0.17422,0.55963 -1.43879,1.61397 -1.43879,1.61397c0,0 0.07741,-1.10248 -0.04527,-1.59222c-0.11638,-0.46461 -0.67284,-1.27468 -0.67284,-1.27468l1.74664,-0.4375z" fill="#5b5b5b" stroke="none" stroke-width="0" stroke-linecap="butt"/><path d="M220.16996,133.01608l-1.26102,-5.0344l1.37501,-0.34441l1.26102,5.0344z" fill="#5b5b5b" stroke="#000000" stroke-width="1.5" stroke-linecap="butt"/><path d="M179.61399,142.42735l-0.86232,-3.44265l4.61133,-1.15505l0.86232,3.44265z" fill="#393939" stroke="#000000" stroke-width="2" stroke-linecap="butt"/><path d="M200.94535,138.13827l-1.01923,-4.06912l1.61352,-0.40415l1.01923,4.06912z" fill="#000000" stroke="#000000" stroke-width="0.5" stroke-linecap="butt"/><path d="M197.52704,139.03859l-2.5126,-10.03109l1.61352,-0.40415l2.5126,10.03109z" fill="#000000" stroke="#000000" stroke-width="0.5" stroke-linecap="butt"/><path d="M201.48303,133.74854l-4.97685,1.28405l-0.30848,-1.1113l4.97685,-1.28405z" fill="#000000" stroke="#000000" stroke-width="0.5" stroke-linecap="butt"/><path d="M199.68458,132.95671l-2.59577,-2.424l-0.26215,-1.42542l4.46145,3.44776z" fill="#000000" stroke="#000000" stroke-width="0.5" stroke-linecap="butt"/><path d="M240.22434,121.82603l-0.29582,-1.18098l3.36344,-0.84248l0.29582,1.18098z" fill="#000000" stroke="none" stroke-width="0" stroke-linecap="butt"/><path d="M202.53868,138.10126l-1.50924,-6.02534l17.65543,-4.42236l1.50924,6.02534z" fill="#4d4d4d" stroke="#000000" stroke-width="1.5" stroke-linecap="butt"/><path d="M244.09449,127.65686l-1.63939,-6.54492l1.88813,-0.47295l1.63939,6.54492z" fill="#222222" stroke="#000000" stroke-width="1" stroke-linecap="butt"/><path d="M268.23615,129.51521c-0.91717,-0.01247 -4.56994,-5.79517 -6.98048,-5.97741c-6.33751,-0.47917 -13.6287,2.46722 -13.6287,2.46722l-1.41476,-5.64814l21.03725,-5.05442c0,0 2.30893,12.45566 2.56109,13.55078c0.00398,0.01732 -1.22885,0.66669 -1.57443,0.66198z" fill="#3a3a3a" stroke="#000000" stroke-width="1.5" stroke-linecap="butt"/><path d="M263.60283,129.00799c-0.50671,-0.03512 -3.01512,-2.40763 -4.26101,-3.44137c-3.25522,0.52597 -6.95191,1.54536 -6.95191,1.54536l-1.18105,-3.99337l11.46626,-2.72823c0,0 1.73394,7.24263 1.90523,7.97465c0.0027,0.01158 -0.78659,0.65618 -0.97752,0.64294z" fill="#303030" stroke="#000000" stroke-width="1.5" stroke-linecap="butt"/><path d="M236.33549,121.40436l-0.51532,-2.05736l5.72702,-1.43452l0.51532,2.05736z" fill="#888888" stroke="#000000" stroke-width="1" stroke-linecap="butt"/><path d="M239.73342,119.71544c-0.1072,-0.42798 0.18838,-0.87073 0.66019,-0.9889c0.47182,-0.11818 0.9412,0.13295 1.0484,0.56093c0.1072,0.42797 -0.18838,0.87073 -0.66019,0.9889c-0.47182,0.11818 -0.94119,-0.13295 -1.04839,-0.56093z" fill="#575757" stroke="#000000" stroke-width="1" stroke-linecap="butt"/><path d="M239.25282,118.54182l-0.55399,-2.21167l0.77626,-0.19443l0.55399,2.21167z" fill="#575757" stroke="#000000" stroke-width="1" stroke-linecap="butt"/><path d="M234.94315,121.67059l-0.13375,-0.53394l1.37846,-0.34527l0.13375,0.53394z" fill="#575757" stroke="#000000" stroke-width="0.5" stroke-linecap="butt"/><path d="M232.77735,122.15456l-0.13375,-0.53394l1.37846,-0.34527l0.13375,0.53394z" fill="#575757" stroke="#000000" stroke-width="0.5" stroke-linecap="butt"/><path d="M230.39144,122.79984l-0.13375,-0.53394l1.37846,-0.34528l0.13375,0.53394z" fill="#575757" stroke="#000000" stroke-width="0.5" stroke-linecap="butt"/><path d="M228.23688,123.32865l-0.13375,-0.53394l1.37846,-0.34528l0.13375,0.53394z" fill="#575757" stroke="#000000" stroke-width="0.5" stroke-linecap="butt"/><path d="M226.1126,123.86075l-0.13375,-0.53394l1.37846,-0.34527l0.13375,0.53394z" fill="#575757" stroke="#000000" stroke-width="0.5" stroke-linecap="butt"/><path d="M223.95804,124.38957l-0.13374,-0.53394l1.37846,-0.34527l0.13374,0.53394z" fill="#575757" stroke="#000000" stroke-width="0.5" stroke-linecap="butt"/><path d="M221.79921,124.94908l-0.13374,-0.53394l1.37846,-0.34527l0.13374,0.53394z" fill="#575757" stroke="#000000" stroke-width="0.5" stroke-linecap="butt"/><path d="M227.40258,136.55436l-0.78607,-3.13828l1.68123,-0.4211l0.78607,3.13828z" fill="#585858" stroke="#000000" stroke-width="1.5" stroke-linecap="butt"/><path d="M245.25677,126.46829l-1.27167,-5.0769l2.29275,-0.57429l1.27167,5.0769z" fill="#c7c7c7" stroke="#000000" stroke-width="1" stroke-linecap="butt"/><path d="M245.38157,144.19022l-6.61824,-7.27836c0,0 -1.08506,-2.93857 -0.34065,-3.37005c0.75104,-0.43531 3.57147,-1.0721 3.57147,-1.0721l8.12722,8.75088z" fill="#262626" stroke="#000000" stroke-width="2" stroke-linecap="butt"/></g><path d="M215.60589,131.80307c1.13038,1.86658 1.43187,3.28548 0.53729,4.49005c-0.31651,0.42615 -0.78274,0.82547 -1.41485,1.2083c-1.23402,0.7473 -4.12292,2.64157 -5.51271,2.68607c-1.3347,0.04276 -2.82496,-1.88186 -3.57462,-3.11978c-1.53028,-2.52693 0.40613,-5.34449 2.82526,-6.80945c2.4191,-1.46495 5.60945,-0.98219 7.13972,1.54476z" data-paper-data="{&quot;index&quot;:null}" fill="#000000" stroke="url(#color-21)" stroke-width="0" stroke-linecap="butt"/><path d="M270.85084,148.85536c0,0 -3.44603,0.46616 -6.59381,-0.66439c-4.27837,-1.53659 -13.78321,-8.25169 -13.78321,-8.25169" fill="none" stroke="#121212" stroke-width="10" stroke-linecap="round"/><path d="M248.77867,133.08847c2.85412,0.76229 4.87988,2.32348 4.15016,5.05584c-0.37222,1.39382 -1.38823,4.81167 -2.35969,5.80655c-0.93292,0.95545 -3.93157,0.21105 -5.3298,-0.16237c-2.85412,-0.76229 -3.40954,-4.13563 -2.67978,-6.86802c0.72972,-2.73234 3.365,-4.59434 6.21912,-3.83204z" data-paper-data="{&quot;index&quot;:null}" fill="#000000" stroke="url(#color-22)" stroke-width="0" stroke-linecap="butt"/></g></g></svg>