<svg version="1.1" xmlns="http://www.w3.org/2000/svg" xmlns:xlink="http://www.w3.org/1999/xlink" width="440.90701" height="22.09206" viewBox="0,0,440.90701,22.09206"><defs><linearGradient x1="21.18182" y1="315.71452" x2="21.18182" y2="326.44786" gradientUnits="userSpaceOnUse" id="color-1"><stop offset="0" stop-color="#808080"/><stop offset="1" stop-color="#3e3e3e"/></linearGradient><linearGradient x1="-3.14275" y1="315.60738" x2="-3.14275" y2="326.34072" gradientUnits="userSpaceOnUse" id="color-2"><stop offset="0" stop-color="#808080"/><stop offset="1" stop-color="#3e3e3e"/></linearGradient><linearGradient x1="8.70646" y1="315.70738" x2="8.70646" y2="326.44072" gradientUnits="userSpaceOnUse" id="color-3"><stop offset="0" stop-color="#808080"/><stop offset="1" stop-color="#3e3e3e"/></linearGradient><linearGradient x1="421.58182" y1="323.21452" x2="421.58182" y2="333.94786" gradientUnits="userSpaceOnUse" id="color-4"><stop offset="0" stop-color="#808080"/><stop offset="1" stop-color="#3e3e3e"/></linearGradient><linearGradient x1="397.25725" y1="323.10738" x2="397.25725" y2="333.84072" gradientUnits="userSpaceOnUse" id="color-5"><stop offset="0" stop-color="#808080"/><stop offset="1" stop-color="#3e3e3e"/></linearGradient><linearGradient x1="409.10646" y1="323.20738" x2="409.10646" y2="333.94072" gradientUnits="userSpaceOnUse" id="color-6"><stop offset="0" stop-color="#808080"/><stop offset="1" stop-color="#3e3e3e"/></linearGradient><linearGradient x1="384.98182" y1="323.21452" x2="384.98182" y2="333.94786" gradientUnits="userSpaceOnUse" id="color-7"><stop offset="0" stop-color="#808080"/><stop offset="1" stop-color="#3e3e3e"/></linearGradient><linearGradient x1="360.65725" y1="323.10738" x2="360.65725" y2="333.84072" gradientUnits="userSpaceOnUse" id="color-8"><stop offset="0" stop-color="#808080"/><stop offset="1" stop-color="#3e3e3e"/></linearGradient><linearGradient x1="372.50646" y1="323.20738" x2="372.50646" y2="333.94072" gradientUnits="userSpaceOnUse" id="color-9"><stop offset="0" stop-color="#808080"/><stop offset="1" stop-color="#3e3e3e"/></linearGradient></defs><g transform="translate(11.31994,-312.8558)"><g data-paper-data="{&quot;isPaintingLayer&quot;:true}" fill-rule="nonzero" stroke="#000000" stroke-width="2" stroke-linecap="butt" stroke-linejoin="miter" stroke-miterlimit="10" stroke-dasharray="" stroke-dashoffset="0" style="mix-blend-mode: normal"><path d="M24.40911,323.51733c0.66211,1.21134 2.37249,2.93053 2.37249,2.93053h-11.19955c0,0 1.5075,-1.37707 2.05532,-2.47968c0.97247,-1.9573 3.27746,-8.25366 3.27746,-8.25366c0,0 2.4139,5.82622 3.49429,7.80281z" data-paper-data="{&quot;index&quot;:null}" fill="url(#color-1)"/><path d="M0.08454,323.41019c0.66211,1.21134 2.37249,2.93053 2.37249,2.93053h-11.19955c0,0 1.5075,-1.37707 2.05532,-2.47968c0.97247,-1.9573 3.27746,-8.25366 3.27746,-8.25366c0,0 2.4139,5.82622 3.49429,7.80281z" data-paper-data="{&quot;index&quot;:null}" fill="url(#color-2)"/><path d="M11.93375,323.51019c0.66211,1.21134 2.37249,2.93053 2.37249,2.93053h-11.19955c0,0 1.5075,-1.37707 2.05532,-2.47968c0.97247,-1.9573 3.27746,-8.25366 3.27746,-8.25366c0,0 2.4139,5.82622 3.49429,7.80281z" data-paper-data="{&quot;index&quot;:null}" fill="url(#color-3)"/><path d="M424.80911,331.01733c0.66211,1.21134 2.37249,2.93053 2.37249,2.93053h-11.19955c0,0 1.5075,-1.37707 2.05532,-2.47968c0.97247,-1.9573 3.27746,-8.25366 3.27746,-8.25366c0,0 2.4139,5.82622 3.49429,7.80281z" data-paper-data="{&quot;index&quot;:null}" fill="url(#color-4)"/><path d="M400.48454,330.91019c0.66211,1.21134 2.37249,2.93053 2.37249,2.93053h-11.19955c0,0 1.5075,-1.37707 2.05532,-2.47968c0.97247,-1.9573 3.27746,-8.25366 3.27746,-8.25366c0,0 2.4139,5.82622 3.49429,7.80281z" data-paper-data="{&quot;index&quot;:null}" fill="url(#color-5)"/><path d="M412.33375,331.01019c0.66211,1.21134 2.37249,2.93053 2.37249,2.93053h-11.19955c0,0 1.5075,-1.37707 2.05532,-2.47968c0.97247,-1.9573 3.27746,-8.25366 3.27746,-8.25366c0,0 2.4139,5.82622 3.49429,7.80281z" data-paper-data="{&quot;index&quot;:null}" fill="url(#color-6)"/><path d="M388.20911,331.01733c0.66211,1.21134 2.37249,2.93053 2.37249,2.93053h-11.19955c0,0 1.5075,-1.37707 2.05532,-2.47968c0.97247,-1.9573 3.27746,-8.25366 3.27746,-8.25366c0,0 2.4139,5.82622 3.49429,7.80281z" data-paper-data="{&quot;index&quot;:null}" fill="url(#color-7)"/><path d="M363.88454,330.91019c0.66211,1.21134 2.37249,2.93053 2.37249,2.93053h-11.19955c0,0 1.5075,-1.37707 2.05532,-2.47968c0.97247,-1.9573 3.27746,-8.25366 3.27746,-8.25366c0,0 2.4139,5.82622 3.49429,7.80281z" data-paper-data="{&quot;index&quot;:null}" fill="url(#color-8)"/><path d="M375.73375,331.01019c0.66211,1.21134 2.37249,2.93053 2.37249,2.93053h-11.19955c0,0 1.5075,-1.37707 2.05532,-2.47968c0.97247,-1.9573 3.27746,-8.25366 3.27746,-8.25366c0,0 2.4139,5.82622 3.49429,7.80281z" data-paper-data="{&quot;index&quot;:null}" fill="url(#color-9)"/></g></g></svg>