<svg version="1.1" xmlns="http://www.w3.org/2000/svg" xmlns:xlink="http://www.w3.org/1999/xlink" width="49.18983" height="114.49341" viewBox="0,0,49.18983,114.49341"><defs><linearGradient x1="225.77067" y1="174.64743" x2="239.80232" y2="173.78548" gradientUnits="userSpaceOnUse" id="color-1"><stop offset="0" stop-color="#323232"/><stop offset="1" stop-color="#1f1f1f"/></linearGradient><linearGradient x1="225.67995" y1="173.40974" x2="237.35117" y2="174.4493" gradientUnits="userSpaceOnUse" id="color-2"><stop offset="0" stop-color="#323232"/><stop offset="1" stop-color="#1f1f1f"/></linearGradient><linearGradient x1="224.96548" y1="188.80654" x2="240.05693" y2="188.78038" gradientUnits="userSpaceOnUse" id="color-3"><stop offset="0" stop-color="#323232"/><stop offset="1" stop-color="#1f1f1f"/></linearGradient><linearGradient x1="243.37475" y1="144.8101" x2="261.40092" y2="145.61309" gradientUnits="userSpaceOnUse" id="color-4"><stop offset="0" stop-color="#323232"/><stop offset="1" stop-color="#1f1f1f"/></linearGradient><linearGradient x1="250.64013" y1="153.49373" x2="261.58136" y2="151.52887" gradientUnits="userSpaceOnUse" id="color-5"><stop offset="0" stop-color="#323232"/><stop offset="1" stop-color="#1f1f1f"/></linearGradient><linearGradient x1="240.20889" y1="178.05561" x2="252.18202" y2="178.94377" gradientUnits="userSpaceOnUse" id="color-6"><stop offset="0" stop-color="#323232"/><stop offset="1" stop-color="#1f1f1f"/></linearGradient><linearGradient x1="226.36645" y1="164.08046" x2="252.56885" y2="164.67692" gradientUnits="userSpaceOnUse" id="color-7"><stop offset="0" stop-color="#323232"/><stop offset="1" stop-color="#1f1f1f"/></linearGradient><linearGradient x1="227.01058" y1="157.96359" x2="250.94741" y2="155.92384" gradientUnits="userSpaceOnUse" id="color-8"><stop offset="0" stop-color="#323232"/><stop offset="1" stop-color="#1f1f1f"/></linearGradient><linearGradient x1="227.14678" y1="151.88796" x2="251.50885" y2="151.35205" gradientUnits="userSpaceOnUse" id="color-9"><stop offset="0" stop-color="#323232"/><stop offset="1" stop-color="#1f1f1f"/></linearGradient><linearGradient x1="239.54605" y1="139.53152" x2="239.36914" y2="149.83667" gradientUnits="userSpaceOnUse" id="color-10"><stop offset="0" stop-color="#323232"/><stop offset="1" stop-color="#252525"/></linearGradient><linearGradient x1="240.27058" y1="136.46012" x2="240.15464" y2="143.2132" gradientUnits="userSpaceOnUse" id="color-11"><stop offset="0" stop-color="#323232"/><stop offset="1" stop-color="#252525"/></linearGradient><linearGradient x1="232.12339" y1="151.27183" x2="233.3106" y2="133.92146" gradientUnits="userSpaceOnUse" id="color-12"><stop offset="0" stop-color="#323232"/><stop offset="1" stop-color="#1f1f1f"/></linearGradient><linearGradient x1="238.72682" y1="125.51629" x2="245.72593" y2="124.65033" gradientUnits="userSpaceOnUse" id="color-13"><stop offset="0" stop-color="#323232"/><stop offset="1" stop-color="#1f1f1f"/></linearGradient><linearGradient x1="243.73841" y1="135.47329" x2="246.98921" y2="135.07109" gradientUnits="userSpaceOnUse" id="color-14"><stop offset="0" stop-color="#323232"/><stop offset="1" stop-color="#1f1f1f"/></linearGradient><linearGradient x1="230.51663" y1="129.25184" x2="243.48996" y2="127.64675" gradientUnits="userSpaceOnUse" id="color-15"><stop offset="0" stop-color="#323232"/><stop offset="1" stop-color="#1f1f1f"/></linearGradient><radialGradient cx="244.17422" cy="130.9575" r="3.81401" gradientUnits="userSpaceOnUse" id="color-16"><stop offset="0" stop-color="#005dff"/><stop offset="1" stop-color="#005dff" stop-opacity="0"/></radialGradient><radialGradient cx="240.74426" cy="130.18739" r="4.00151" gradientUnits="userSpaceOnUse" id="color-17"><stop offset="0" stop-color="#005dff"/><stop offset="1" stop-color="#005dff" stop-opacity="0"/></radialGradient><linearGradient x1="251.14372" y1="158.65591" x2="261.67794" y2="153.42274" gradientUnits="userSpaceOnUse" id="color-18"><stop offset="0" stop-color="#323232"/><stop offset="1" stop-color="#1f1f1f"/></linearGradient><linearGradient x1="242.31541" y1="177.02111" x2="252.05924" y2="176.30473" gradientUnits="userSpaceOnUse" id="color-19"><stop offset="0" stop-color="#323232"/><stop offset="1" stop-color="#1f1f1f"/></linearGradient><linearGradient x1="241.45426" y1="189.18286" x2="255.71528" y2="188.59803" gradientUnits="userSpaceOnUse" id="color-20"><stop offset="0" stop-color="#323232"/><stop offset="1" stop-color="#1f1f1f"/></linearGradient><linearGradient x1="270.53489" y1="202.56571" x2="258.15238" y2="202.87146" gradientUnits="userSpaceOnUse" id="color-21"><stop offset="0" stop-color="#ffffff"/><stop offset="1" stop-color="#a9a9a9"/></linearGradient><linearGradient x1="261.62983" y1="164.35753" x2="258.14678" y2="164.44354" gradientUnits="userSpaceOnUse" id="color-22"><stop offset="0" stop-color="#414141"/><stop offset="1" stop-color="#282828"/></linearGradient><linearGradient x1="266.72304" y1="221.85266" x2="261.32618" y2="176.89146" gradientUnits="userSpaceOnUse" id="color-23"><stop offset="0" stop-color="#1a1a1a"/><stop offset="1" stop-color="#0f0f0f"/></linearGradient><linearGradient x1="258.96958" y1="180.48316" x2="263.34437" y2="177.44614" gradientUnits="userSpaceOnUse" id="color-24"><stop offset="0" stop-color="#0046ff"/><stop offset="1" stop-color="#001cad"/></linearGradient><linearGradient x1="248.09957" y1="177.10247" x2="265.01569" y2="175.9796" gradientUnits="userSpaceOnUse" id="color-25"><stop offset="0" stop-color="#323232"/><stop offset="1" stop-color="#1f1f1f"/></linearGradient><linearGradient x1="247.83173" y1="155.7886" x2="251.82094" y2="148.60178" gradientUnits="userSpaceOnUse" id="color-26"><stop offset="0" stop-color="#323232"/><stop offset="1" stop-color="#1f1f1f"/></linearGradient><linearGradient x1="246.01472" y1="155.37279" x2="250.81782" y2="147.46795" gradientUnits="userSpaceOnUse" id="color-27"><stop offset="0" stop-color="#323232"/><stop offset="1" stop-color="#1f1f1f"/></linearGradient><linearGradient x1="238.70363" y1="152.24358" x2="240.85542" y2="142.10462" gradientUnits="userSpaceOnUse" id="color-28"><stop offset="0" stop-color="#323232"/><stop offset="1" stop-color="#1f1f1f"/></linearGradient></defs><g transform="translate(-224.30055,-116.34348)"><g data-paper-data="{&quot;isPaintingLayer&quot;:true}" fill-rule="nonzero" stroke-linejoin="miter" stroke-miterlimit="10" stroke-dasharray="" stroke-dashoffset="0" style="mix-blend-mode: normal"><path d="M226.58667,186.35716c0,0 0.33725,-3.01652 0.0803,-6.69254c-0.15206,-2.17564 -0.95297,-4.7613 -0.958,-6.60316c-0.00784,-2.88545 0.1911,-2.94395 0.12287,-4.55783c-0.10615,-2.51042 2.16929,-6.13251 2.16929,-6.13251l11.28297,-0.84228c0,0 -1.66898,7.38417 -1.6588,7.62453c0.06671,1.57802 -0.90165,7.02632 -0.85387,8.61586c0.11989,3.98966 -2.02351,8.08659 -2.02351,8.08659c0,0 -0.81008,0.57829 -2.53263,0.68412c-1.68751,0.10365 -5.62861,-0.18278 -5.62861,-0.18278z" fill="url(#color-1)" stroke="#000000" stroke-width="1.5" stroke-linecap="butt"/><path d="M225.43608,175.39581l0.869,-6.18039l5.4825,2.85949l6.20544,-2.2822l-0.86899,6.1804l-6.07579,2.62852z" fill="url(#color-2)" stroke="#000000" stroke-width="1.5" stroke-linecap="butt"/><path d="M226.62671,182.89344l4.83865,1.31266l4.94832,-1.32965l-0.13185,3.1761c0,0 -2.13719,4.74363 -1.15262,4.93993c1.74756,0.34843 2.97584,0.65233 4.09861,1.0411c1.62749,0.56352 -0.21197,2.02146 -0.47997,2.30732c-0.09691,0.10336 -0.37957,0.17977 -0.80035,0.23484c-2.90763,0.38049 -12.41012,-0.25791 -12.78679,-0.05769c-0.3594,0.19106 -0.54747,-1.54371 -0.12417,-3.70329c0.42342,-2.16019 1.45833,-4.74524 1.45833,-4.74524z" fill="url(#color-3)" stroke="#000000" stroke-width="1.5" stroke-linecap="butt"/><path d="M250.56581,152.14113l-2.87786,-6.83588l-4.11844,-4.86745l3.96148,-1.06234l7.96474,-1.3815l6.00288,5.42616l-1.20569,7.04315z" data-paper-data="{&quot;index&quot;:null}" fill="url(#color-4)" stroke="#000000" stroke-width="1.5" stroke-linecap="butt"/><path d="M252.26933,156.87397l-1.38897,-2.0425l-0.25384,-2.41478l9.00841,-4.21113l1.66479,1.75521l-0.02199,2.70206z" fill="url(#color-5)" stroke="#000000" stroke-width="1.5" stroke-linecap="butt"/><path d="M249.48505,144.80811l10.56588,-2.11848" fill="none" stroke="#000000" stroke-width="1.5" stroke-linecap="round"/><path d="M236.21317,133.0614l-0.24162,-6.70487l10.06324,0.25584l0.24161,6.70487z" fill="#0c0c0c" stroke="none" stroke-width="0" stroke-linecap="butt"/><path d="M242.15317,178.74172c0.1586,-3.38311 -2.03669,-15.14848 -2.03669,-15.14848l10.14262,0.75237c0,0 1.62004,7.5891 1.56975,11.10811c-0.01184,0.82852 0.90609,4.99883 0.66378,7.85681c-0.30139,3.55516 -1.77419,5.82568 -1.77419,5.82568c0,0 -2.85574,0.17598 -4.15957,-0.36717c-1.34128,-0.55871 -3.77892,-2.93975 -3.77892,-2.93975c0,0 -0.72805,-4.92802 -0.62678,-7.08757z" fill="url(#color-6)" stroke="#000000" stroke-width="1.5" stroke-linecap="butt"/><path d="M226.35388,164.633l2.97962,-8.48671l20.31769,1.48394l2.89458,8.06044l-12.55353,6.70169z" fill="url(#color-7)" stroke="#000000" stroke-width="1.5" stroke-linecap="butt"/><path d="M227.0623,158.57056l1.5544,-9.82685l18.1053,-0.51795l4.48122,10.70024l-10.00563,6.91159z" fill="url(#color-8)" stroke="#000000" stroke-width="1.5" stroke-linecap="butt"/><path d="M227.14396,151.75928l2.04375,-7.74658l18.9805,0.50207l3.39638,9.37055l-10.47584,5.52631z" fill="url(#color-9)" stroke="#000000" stroke-width="1.5" stroke-linecap="butt"/><path d="M229.924,144.52042l2.22683,-5.11588l16.20479,0.93277l0.61634,5.63056l-5.37663,3.94134z" fill="url(#color-10)" stroke="#000000" stroke-width="1.5" stroke-linecap="butt"/><path d="M233.96515,139.72941l1.45926,-3.35248l10.61916,0.61126l0.4039,3.68976l-3.52337,2.58281z" fill="url(#color-11)" stroke="#000000" stroke-width="1.5" stroke-linecap="butt"/><path d="M236.8885,150.73707l-6.8759,0.39035l-4.48744,-7.18l1.32274,-5.84431l2.25424,-4.46961l4.21448,4.47235l6.62781,2.61809z" fill="url(#color-12)" stroke="#000000" stroke-width="1.5" stroke-linecap="butt"/><path d="M230.43003,150.26991l3.88216,-11.65292" fill="none" stroke="#000000" stroke-width="1.5" stroke-linecap="round"/><path d="M238.03781,130.33103c-0.16574,-1.33958 0.67645,-2.54635 1.88112,-2.69539c1.20465,-0.14904 2.31558,0.81608 2.48131,2.15566c0.16574,1.33959 -0.67648,2.54637 -1.88114,2.69541c-1.20465,0.14904 -2.31558,-0.81608 -2.48131,-2.15568z" fill="#005dff" stroke="none" stroke-width="0" stroke-linecap="butt"/><path d="M243.14922,130.94c0.01845,-1.07463 0.81683,-1.93236 1.78321,-1.91577c0.96639,0.01658 1.73487,0.9012 1.7164,1.97584c-0.01845,1.07464 -0.81684,1.93236 -1.78321,1.91577c-0.96639,-0.01658 -1.73486,-0.9012 -1.7164,-1.97584z" fill="#005dff" stroke="none" stroke-width="0" stroke-linecap="butt"/><g stroke="#000000" stroke-width="1.5" stroke-linecap="butt"><path d="M244.88917,133.17397l1.51355,-2.05755l-0.33138,-2.30743c0,0 -1.74437,1.5912 -1.95772,0.60277c-0.62341,-2.88831 -1.46557,-6.5083 -1.96699,-7.75769c-0.77187,-1.92324 -4.35224,-3.58527 -4.36123,-3.74702c-0.12353,-2.22555 4.54882,0.87429 6.32923,3.22625c1.7804,2.35194 2.49949,10.98271 2.49949,10.98271z" data-paper-data="{&quot;index&quot;:null}" fill="url(#color-13)"/><path d="M246.95191,136.57338l-2.82064,2.07549l-0.16203,-5.20809l2.62705,-1.54525z" data-paper-data="{&quot;index&quot;:null}" fill="url(#color-14)"/><path d="M237.84594,128.26957l0.76404,3.49851l5.22139,1.75861l-0.37587,5.45697l-12.00887,-2.21511c0,0 0.92668,-4.62777 0.45766,-8.19669c-0.39869,-3.03361 -1.51955,-5.82103 -1.51955,-5.82103c0,0 3.26144,-6.55442 8.11654,-5.55334c4.85512,1.00109 5.09596,12.33392 5.09596,12.33392z" data-paper-data="{&quot;index&quot;:null}" fill="url(#color-15)"/></g><path d="M240.38906,131.42577c-0.28762,-2.32464 1.17391,-4.41877 3.26439,-4.6774c2.09047,-0.25864 4.01832,1.41617 4.30591,3.74079c0.28762,2.32464 -1.17391,4.41879 -3.26439,4.67743c-2.09047,0.25864 -4.01831,-1.41619 -4.3059,-3.74081z" fill="url(#color-16)" stroke="none" stroke-width="0" stroke-linecap="butt"/><path d="M236.77302,130.67871c-0.30174,-2.43892 1.23162,-4.63602 3.42487,-4.90736c2.19327,-0.27135 4.21587,1.48579 4.5176,3.92471c0.30175,2.43893 -1.23163,4.63603 -3.42488,4.90736c-2.19327,0.27135 -4.21586,-1.48579 -4.51759,-3.92471z" fill="url(#color-17)" stroke="none" stroke-width="0" stroke-linecap="butt"/><path d="M253.83215,163.73767l-2.18251,-11.47475l8.16046,-5.65511l1.5188,11.22572l-3.4501,5.21935z" fill="url(#color-18)" stroke="#000000" stroke-width="1.5" stroke-linecap="butt"/><path d="M242.59938,178.76096l-0.79414,-5.42939l5.15294,1.70054l4.49226,-2.81632l0.79416,5.42939l-4.30274,3.096z" fill="url(#color-19)" stroke="#000000" stroke-width="1.5" stroke-linecap="butt"/><path d="M242.57134,183.21405l4.66367,1.13265l4.5321,-1.50978l0.15822,3.17626c0,0 -1.58708,4.8153 -0.64441,4.97508c1.67321,0.2836 2.8545,0.54185 3.94415,0.88873c1.57949,0.5028 -0.01966,2.02625 -0.24612,2.32157c-0.08188,0.10678 -0.34072,0.19348 -0.73127,0.26394c-2.69865,0.48694 -11.6853,0.19916 -12.02153,0.413c-0.29257,0.18604 -0.75082,-1.75377 -0.57841,-3.71048c0.20573,-2.33465 1.08177,-4.77469 1.08177,-4.77469z" fill="url(#color-20)" stroke="#000000" stroke-width="1.5" stroke-linecap="butt"/><g stroke="#000000" stroke-width="1.5" stroke-linecap="butt"><path d="M267.31636,175.75209l5.39884,44.97769l-5.26165,8.80512l-7.15054,-8.74652l-5.36917,-44.73057z" fill="url(#color-21)"/><path d="M260.40767,154.17578l2.56298,21.35204l-3.48303,0.086l-2.56296,-21.35205c0,0 1.06015,-1.01762 1.68014,-1.03293c0.52519,-0.01297 1.80291,0.94693 1.80291,0.94693z" fill="url(#color-22)"/><path d="M263.43785,176.83932l5.04423,42.02365l-1.7961,2.99064l-2.4351,-2.95202l-5.03638,-41.95801z" fill="url(#color-23)"/><path d="M269.83367,174.68309l-0.65426,1.81003l-4.56198,0.11265l-3.13947,3.79546l-4.13796,-3.61578l-5.32229,0.13143l-1.51812,-1.75639l1.088,-1.82699c0,0 3.45189,-0.14155 6.50284,-0.25359c0.95296,-0.03499 2.32751,-2.27521 2.32751,-2.27521c0,0 1.80313,2.14847 2.15803,2.13971c2.53919,-0.06271 6.17333,-0.03468 6.17333,-0.03468z" fill="#191919"/><path d="M264.34392,178.88597l-2.75175,3.70419l-3.62214,-3.54679l2.75173,-3.70416z" fill="url(#color-24)"/><path d="M261.4338,153.57308c0.20831,1.73534 -0.85944,3.17261 -2.38484,3.21029c-1.52542,0.03767 -2.93088,-1.33853 -3.13918,-3.07388c-0.20831,-1.73534 1.04587,-1.61923 2.5713,-1.6569c1.52542,-0.03767 2.74441,-0.21483 2.95271,1.52049z" fill="#171717"/></g><path d="M258.12579,159.10225c0,0 4.84344,4.21631 4.76439,5.00857c-0.16948,1.69856 -0.70618,3.19135 -0.70618,3.19135c0,0 -3.82709,0.35926 -5.41546,-0.09132c-1.46503,-0.41561 -3.77467,-2.51575 -3.77467,-2.51575l0.46348,-3.08499z" data-paper-data="{&quot;index&quot;:null}" fill="url(#color-25)" stroke="#000000" stroke-width="1.5" stroke-linecap="butt"/><path d="M259.15823,160.56996c0,0 -3.62296,-1.65416 -7.50539,-3.46645c-2.80215,-1.30805 1.22456,-7.03798 2.72225,-6.33538c2.83771,1.33127 5.96167,2.69007 7.46708,3.39671c0.60867,0.28572 1.31322,3.95625 1.31322,3.95625z" fill="url(#color-26)" stroke="#000000" stroke-width="1.5" stroke-linecap="butt"/><path d="M251.84893,157.97005l-13.60302,-7.31766l5.67186,-6.30933l12.31368,6.41434l0.2059,4.96821z" fill="url(#color-27)" stroke="#000000" stroke-width="1.5" stroke-linecap="butt"/><path d="M239.68938,152.3122l-2.36801,-0.36196l-1.73615,-1.30738l4.21228,-8.26685l2.39591,0.01256l1.70826,1.65675z" fill="url(#color-28)" stroke="#000000" stroke-width="1.5" stroke-linecap="butt"/></g></g></svg>