<svg version="1.1" xmlns="http://www.w3.org/2000/svg" xmlns:xlink="http://www.w3.org/1999/xlink" width="496.30684" height="378.26027" viewBox="0,0,496.30684,378.26027"><defs><linearGradient x1="425.65249" y1="124.16586" x2="434.65249" y2="124.16586" gradientUnits="userSpaceOnUse" id="color-1"><stop offset="0" stop-color="#100b02"/><stop offset="1" stop-color="#27170c"/></linearGradient><linearGradient x1="423.02292" y1="133.82611" x2="437.02291" y2="133.82611" gradientUnits="userSpaceOnUse" id="color-2"><stop offset="0" stop-color="#0c0c0c"/><stop offset="1" stop-color="#1b1b1b"/></linearGradient><linearGradient x1="423.3562" y1="193.84446" x2="437.3562" y2="193.84446" gradientUnits="userSpaceOnUse" id="color-3"><stop offset="0" stop-color="#0c0c0c"/><stop offset="1" stop-color="#1b1b1b"/></linearGradient><linearGradient x1="67.98582" y1="163.69098" x2="76.98582" y2="163.69098" gradientUnits="userSpaceOnUse" id="color-4"><stop offset="0" stop-color="#100b02"/><stop offset="1" stop-color="#27170c"/></linearGradient><linearGradient x1="65.35625" y1="175.3285" x2="79.35624" y2="175.3285" gradientUnits="userSpaceOnUse" id="color-5"><stop offset="0" stop-color="#0c0c0c"/><stop offset="1" stop-color="#1b1b1b"/></linearGradient><linearGradient x1="65.68953" y1="247.63144" x2="79.68953" y2="247.63144" gradientUnits="userSpaceOnUse" id="color-6"><stop offset="0" stop-color="#0c0c0c"/><stop offset="1" stop-color="#1b1b1b"/></linearGradient><radialGradient cx="227.2838" cy="256.80016" r="31.6875" gradientUnits="userSpaceOnUse" id="color-7"><stop offset="0" stop-color="#cca300"/><stop offset="1" stop-color="#cca300" stop-opacity="0"/></radialGradient><linearGradient x1="227.79758" y1="258.90599" x2="227.79758" y2="262.2854" gradientUnits="userSpaceOnUse" id="color-8"><stop offset="0" stop-color="#b58f00"/><stop offset="1" stop-color="#ff0000"/></linearGradient><linearGradient x1="350.74034" y1="96.32348" x2="359.74034" y2="96.32348" gradientUnits="userSpaceOnUse" id="color-9"><stop offset="0" stop-color="#100b02"/><stop offset="1" stop-color="#27170c"/></linearGradient><linearGradient x1="348.11077" y1="126.55214" x2="362.11075" y2="126.55214" gradientUnits="userSpaceOnUse" id="color-10"><stop offset="0" stop-color="#0c0c0c"/><stop offset="1" stop-color="#1b1b1b"/></linearGradient><linearGradient x1="348.44405" y1="314.36018" x2="362.44405" y2="314.36018" gradientUnits="userSpaceOnUse" id="color-11"><stop offset="0" stop-color="#0c0c0c"/><stop offset="1" stop-color="#1b1b1b"/></linearGradient><linearGradient x1="175.49034" y1="145.55753" x2="184.49034" y2="145.55753" gradientUnits="userSpaceOnUse" id="color-12"><stop offset="0" stop-color="#100b02"/><stop offset="1" stop-color="#27170c"/></linearGradient><linearGradient x1="172.86077" y1="168.7693" x2="186.86075" y2="168.7693" gradientUnits="userSpaceOnUse" id="color-13"><stop offset="0" stop-color="#0c0c0c"/><stop offset="1" stop-color="#1b1b1b"/></linearGradient><linearGradient x1="173.19405" y1="312.982" x2="187.19405" y2="312.982" gradientUnits="userSpaceOnUse" id="color-14"><stop offset="0" stop-color="#0c0c0c"/><stop offset="1" stop-color="#1b1b1b"/></linearGradient><linearGradient x1="243.66151" y1="131.86457" x2="243.66151" y2="136.53124" gradientUnits="userSpaceOnUse" id="color-15"><stop offset="0" stop-color="#1b1b1b"/><stop offset="1" stop-color="#0c0c0c"/></linearGradient><radialGradient cx="243.84721" cy="44.92183" r="12.5" gradientUnits="userSpaceOnUse" id="color-16"><stop offset="0" stop-color="#232323"/><stop offset="1" stop-color="#0c0c0c"/></radialGradient><linearGradient x1="312.23509" y1="227.80672" x2="312.23509" y2="232.96297" gradientUnits="userSpaceOnUse" id="color-17"><stop offset="0" stop-color="#1b1b1b"/><stop offset="1" stop-color="#0c0c0c"/></linearGradient><radialGradient cx="311.84721" cy="46.42183" r="12.5" gradientUnits="userSpaceOnUse" id="color-18"><stop offset="0" stop-color="#232323"/><stop offset="1" stop-color="#0c0c0c"/></radialGradient><linearGradient x1="393.416" y1="337.53653" x2="381.49935" y2="325.95313" gradientUnits="userSpaceOnUse" id="color-19"><stop offset="0" stop-color="#180902" stop-opacity="0"/><stop offset="1" stop-color="#180902"/></linearGradient><linearGradient x1="136.49933" y1="337.33654" x2="148.41598" y2="325.75316" gradientUnits="userSpaceOnUse" id="color-20"><stop offset="0" stop-color="#180902" stop-opacity="0"/><stop offset="1" stop-color="#180902"/></linearGradient><linearGradient x1="72.016" y1="297.90315" x2="60.09935" y2="286.3198" gradientUnits="userSpaceOnUse" id="color-21"><stop offset="0" stop-color="#180902" stop-opacity="0"/><stop offset="1" stop-color="#180902"/></linearGradient><linearGradient x1="21.02357" y1="87.16078" x2="32.94022" y2="75.57742" gradientUnits="userSpaceOnUse" id="color-22"><stop offset="0" stop-color="#180902" stop-opacity="0"/><stop offset="1" stop-color="#180902"/></linearGradient><linearGradient x1="366.32282" y1="0.89178" x2="354.40617" y2="12.47515" gradientUnits="userSpaceOnUse" id="color-23"><stop offset="0" stop-color="#180902" stop-opacity="0"/><stop offset="1" stop-color="#180902"/></linearGradient><linearGradient x1="32.91024" y1="36.54574" x2="15.48168" y2="36.54574" gradientUnits="userSpaceOnUse" id="color-24"><stop offset="0" stop-color="#180902"/><stop offset="1" stop-color="#180902" stop-opacity="0"/></linearGradient><linearGradient x1="110.52931" y1="75.83146" x2="110.52931" y2="93.26006" gradientUnits="userSpaceOnUse" id="color-25"><stop offset="0" stop-color="#180902"/><stop offset="1" stop-color="#180902" stop-opacity="0"/></linearGradient><linearGradient x1="188.07691" y1="117.96244" x2="170.64834" y2="117.96244" gradientUnits="userSpaceOnUse" id="color-26"><stop offset="0" stop-color="#180902"/><stop offset="1" stop-color="#180902" stop-opacity="0"/></linearGradient><linearGradient x1="91.77929" y1="159.67667" x2="91.77929" y2="142.24812" gradientUnits="userSpaceOnUse" id="color-27"><stop offset="0" stop-color="#180902"/><stop offset="1" stop-color="#180902" stop-opacity="0"/></linearGradient><linearGradient x1="94.34836" y1="3.71243" x2="111.77692" y2="3.71243" gradientUnits="userSpaceOnUse" id="color-28"><stop offset="0" stop-color="#180902"/><stop offset="1" stop-color="#180902" stop-opacity="0"/></linearGradient><linearGradient x1="354.24836" y1="67.01238" x2="371.67693" y2="67.01238" gradientUnits="userSpaceOnUse" id="color-29"><stop offset="0" stop-color="#180902"/><stop offset="1" stop-color="#180902" stop-opacity="0"/></linearGradient><linearGradient x1="420.20428" y1="121.32671" x2="420.20428" y2="103.89815" gradientUnits="userSpaceOnUse" id="color-30"><stop offset="0" stop-color="#180902"/><stop offset="1" stop-color="#180902" stop-opacity="0"/></linearGradient><linearGradient x1="432.60432" y1="207.83149" x2="432.60432" y2="225.26005" gradientUnits="userSpaceOnUse" id="color-31"><stop offset="0" stop-color="#180902"/><stop offset="1" stop-color="#180902" stop-opacity="0"/></linearGradient><linearGradient x1="381.64836" y1="267.1124" x2="399.07692" y2="267.1124" gradientUnits="userSpaceOnUse" id="color-32"><stop offset="0" stop-color="#180902"/><stop offset="1" stop-color="#180902" stop-opacity="0"/></linearGradient><linearGradient x1="264.96267" y1="325.54814" x2="264.96267" y2="342.97671" gradientUnits="userSpaceOnUse" id="color-33"><stop offset="0" stop-color="#180902"/><stop offset="1" stop-color="#180902" stop-opacity="0"/></linearGradient><linearGradient x1="104.39598" y1="262.99812" x2="104.39598" y2="280.4267" gradientUnits="userSpaceOnUse" id="color-34"><stop offset="0" stop-color="#180902"/><stop offset="1" stop-color="#180902" stop-opacity="0"/></linearGradient><linearGradient x1="148.36025" y1="294.37906" x2="130.93168" y2="294.37906" gradientUnits="userSpaceOnUse" id="color-35"><stop offset="0" stop-color="#180902"/><stop offset="1" stop-color="#180902" stop-opacity="0"/></linearGradient><linearGradient x1="60.34836" y1="274.62906" x2="77.77692" y2="274.62906" gradientUnits="userSpaceOnUse" id="color-36"><stop offset="0" stop-color="#180902"/><stop offset="1" stop-color="#180902" stop-opacity="0"/></linearGradient><linearGradient x1="28.56264" y1="285.9148" x2="28.56264" y2="303.34334" gradientUnits="userSpaceOnUse" id="color-37"><stop offset="0" stop-color="#180902"/><stop offset="1" stop-color="#180902" stop-opacity="0"/></linearGradient><radialGradient cx="278.2838" cy="84.80016" r="31.6875" gradientUnits="userSpaceOnUse" id="color-38"><stop offset="0" stop-color="#cca300"/><stop offset="1" stop-color="#cca300" stop-opacity="0"/></radialGradient><linearGradient x1="278.79758" y1="86.906" x2="278.79758" y2="90.28541" gradientUnits="userSpaceOnUse" id="color-39"><stop offset="0" stop-color="#b58f00"/><stop offset="1" stop-color="#ff0000"/></linearGradient><radialGradient cx="36.2838" cy="210.80016" r="31.6875" gradientUnits="userSpaceOnUse" id="color-40"><stop offset="0" stop-color="#cca300"/><stop offset="1" stop-color="#cca300" stop-opacity="0"/></radialGradient><linearGradient x1="36.79758" y1="212.906" x2="36.79758" y2="216.28541" gradientUnits="userSpaceOnUse" id="color-41"><stop offset="0" stop-color="#b58f00"/><stop offset="1" stop-color="#ff0000"/></linearGradient></defs><g transform="translate(7.6025,7.45703)"><g data-paper-data="{&quot;isPaintingLayer&quot;:true}" fill-rule="nonzero" stroke-linejoin="miter" stroke-miterlimit="10" stroke-dasharray="" stroke-dashoffset="0" style="mix-blend-mode: normal"><g stroke="none" stroke-width="0" stroke-linecap="butt"><path d="M425.65249,192.46211v-60.18397h9v60.18397z" fill="url(#color-1)"/><path d="M423.02292,138.52726v-7.15561h14v7.15561z" fill="url(#color-2)"/><path d="M423.3562,198.09627v-7.60493h14c0,0 0.37529,7.45044 -0.2667,7.52257c-2.03543,0.22863 -13.7333,0.08236 -13.7333,0.08236z" fill="url(#color-3)"/></g><g stroke="none" stroke-width="0" stroke-linecap="butt"><path d="M67.98582,245.96615v-72.50246h9v72.50246z" fill="url(#color-4)"/><path d="M65.35625,180.99188v-8.62022h14v8.62022z" fill="url(#color-5)"/><path d="M65.68953,252.75351v-9.16151h14c0,0 0.37529,8.9754 -0.2667,9.06229c-2.03543,0.27543 -13.7333,0.09922 -13.7333,0.09922z" fill="url(#color-6)"/></g><g stroke="#000000" stroke-linecap="butt"><path d="M195.59629,256.80016c0,-17.50052 14.18698,-31.6875 31.6875,-31.6875c17.50052,0 31.6875,14.18698 31.6875,31.6875c0,17.50053 -14.18698,31.6875 -31.6875,31.6875c-17.50052,0 -31.6875,-14.18697 -31.6875,-31.6875z" fill="url(#color-7)" stroke-width="0"/><path d="M229.99246,264.97145v3.95204h-4.89971v-3.95204z" fill="#323324" stroke-width="1"/><path d="M227.60379,250.93269c0.33907,-0.45842 0.61784,2.04462 0.59166,2.929c-0.02344,0.79161 0.15883,1.49602 0.08386,2.08609c-0.01159,0.09117 0.10472,1.05691 0.17785,1.32572c0.01914,0.07037 0.54694,-1.26689 0.95195,-1.85811c0.2366,-0.34539 0.5058,-0.39572 0.66246,-0.23831c0.1196,0.12018 0.18793,0.35164 0.22265,0.64319c0.08859,0.74399 -0.04165,1.87931 -0.09694,2.55555c-0.04857,0.59401 -0.02254,1.22305 -0.20004,1.78245c-0.1775,0.5594 -0.83204,1.58019 -0.88234,1.6286c-0.144,0.13859 -1.16059,0.63963 -1.31734,0.63963c-0.26598,0 -0.73816,-0.07472 -1.01281,-0.19919c-0.21345,-0.09674 -1.36238,-0.6838 -1.76552,-1.65358c-0.48287,-1.1616 -1.0065,-2.98487 -1.10044,-3.28986c-0.06579,-0.21361 -0.02559,-3.17825 0.48151,-2.62096c0.53012,0.58259 2.1685,4.07417 2.13903,3.7559c-0.01779,-0.1921 -0.37593,-2.0437 -0.20391,-3.89963c0.12984,-1.40087 0.67184,-2.77999 1.26839,-3.58649z" fill="url(#color-8)" stroke-width="0.75"/><path d="M226.84907,266.9257v-4.66593h1.23858v4.66593z" fill="#311800" stroke-width="0.75"/></g><g fill="none" stroke="#060606" stroke-width="3" stroke-linecap="round"><path d="M251.16027,35.71029h51.63553"/><path d="M251.02729,53.02451h51.85714"/></g><g fill="none" stroke="#060606" stroke-width="3" stroke-linecap="round"><path d="M253.57726,48.68611v82.14743"/><path d="M232.97732,130.97454v-82.5"/></g><g fill="none" stroke="#060606" stroke-width="3" stroke-linecap="round"><path d="M322.07726,53.63548v173.42235"/><path d="M301.47731,227.35549v-174.16667"/></g><g stroke="none" stroke-width="0" stroke-linecap="butt"><path d="M350.74034,310.03458v-188.32634h9v188.32634z" fill="url(#color-9)"/><path d="M348.11077,141.26284v-22.39118h14v22.39118z" fill="url(#color-10)"/><path d="M348.44405,327.66481v-23.79716h14c0,0 0.37529,23.31375 -0.2667,23.53944c-2.03543,0.71544 -13.7333,0.25771 -13.7333,0.25771z" fill="url(#color-11)"/></g><g stroke="none" stroke-width="0" stroke-linecap="butt"><path d="M175.49034,309.66049v-144.61071h9v144.61071z" fill="url(#color-12)"/><path d="M172.86077,180.06525v-17.19358h14v17.19358z" fill="url(#color-13)"/><path d="M173.19405,323.19827v-18.2732h14c0,0 0.37529,17.902 -0.2667,18.0753c-2.03543,0.54937 -13.7333,0.19789 -13.7333,0.19789z" fill="url(#color-14)"/></g><path d="M44.19451,-1.05957v74.39339h-45.82282v-74.39339z" data-paper-data="{&quot;index&quot;:null}" fill="#000000" stroke="#000000" stroke-width="2.5" stroke-linecap="butt"/><path d="M482.59324,-2.05952v26h-399.39875v-26z" data-paper-data="{&quot;index&quot;:null}" fill="#000000" stroke="#000000" stroke-width="2.5" stroke-linecap="butt"/><path d="M-2.88283,171.35506v-106.60662h201.88352v106.60662z" fill="#000000" stroke="#000000" stroke-width="2.5" stroke-linecap="butt"/><path d="M343.14483,132.31599v-111.11111h139.14415v111.11111z" fill="#000000" stroke="#000000" stroke-width="2.5" stroke-linecap="butt"/><path d="M225.41151,136.53124v-4.66667h36.5v4.66667z" fill="url(#color-15)" stroke="#000000" stroke-width="2.5" stroke-linecap="butt"/><g stroke="#000000" stroke-width="2.5" stroke-linecap="butt"><path d="M239.65444,36.54263v-10.54167h8v10.54167z" fill="#000000"/><path d="M230.60563,45.96111c0,-6.90356 5.59644,-12.5 12.5,-12.5c6.90356,0 12.5,5.59644 12.5,12.5c0,6.90356 -5.59644,12.5 -12.5,12.5c-6.90356,0 -12.5,-5.59644 -12.5,-12.5z" fill="url(#color-16)"/></g><path d="M293.98509,232.96297v-5.15625h36.5v5.15625z" fill="url(#color-17)" stroke="#000000" stroke-width="2.5" stroke-linecap="butt"/><g stroke="#000000" stroke-width="2.5" stroke-linecap="butt"><path d="M308.22802,36.87145v-10.54167h8v10.54167z" fill="#000000"/><path d="M299.17921,46.28994c0,-6.90356 5.59644,-12.5 12.5,-12.5c6.90356,0 12.5,5.59644 12.5,12.5c0,6.90356 -5.59644,12.5 -12.5,12.5c-6.90356,0 -12.5,-5.59644 -12.5,-12.5z" fill="url(#color-18)"/></g><path d="M48.85052,368.05175v-115.61562h111.11111v115.61562z" fill="#000000" stroke="#000000" stroke-width="2.5" stroke-linecap="butt"/><path d="M159.96163,369.55324v-55.55555h322.32433v55.55555z" fill="#000000" stroke="#000000" stroke-width="2.5" stroke-linecap="butt"/><path d="M370.17184,320.00365v-123.12312h111.72072v123.12312z" fill="#000000" stroke="#000000" stroke-width="2.5" stroke-linecap="butt"/><path d="M-1.70204,367.38509v-91.59159h50.55255v91.59159z" fill="#000000" stroke="#000000" stroke-width="2.5" stroke-linecap="butt"/><path d="M36.35184,-1.94643l0.49688,73.90244h154.81485v91.62916h-195.26607" data-paper-data="{&quot;index&quot;:null}" fill="none" stroke="#180902" stroke-width="8" stroke-linecap="round"/><path d="M90.74166,-3.45703v19.78753h259.74387l-0.25,108.83543h134.46881" data-paper-data="{&quot;index&quot;:null}" fill="none" stroke="#180902" stroke-width="8" stroke-linecap="round"/><path d="M393.416,337.53651h-11.91667v-11.58333h11.91667z" data-paper-data="{&quot;index&quot;:null}" fill="url(#color-19)" stroke="none" stroke-width="0" stroke-linecap="butt"/><path d="M136.49933,325.75316h11.91667v11.58333h-11.91667z" data-paper-data="{&quot;index&quot;:null}" fill="url(#color-20)" stroke="none" stroke-width="0" stroke-linecap="butt"/><path d="M72.016,297.90315h-11.91667v-11.58333h11.91667z" data-paper-data="{&quot;index&quot;:null}" fill="url(#color-21)" stroke="none" stroke-width="0" stroke-linecap="butt"/><path d="M21.02357,75.57742h11.91667v11.58333h-11.91667z" data-paper-data="{&quot;index&quot;:null}" fill="url(#color-22)" stroke="none" stroke-width="0" stroke-linecap="butt"/><path d="M366.32282,12.47515h-11.91667v-11.58333h11.91667z" data-paper-data="{&quot;index&quot;:null}" fill="url(#color-23)" stroke="none" stroke-width="0" stroke-linecap="butt"/><path d="M15.48168,-2.70776h17.42857v78.50705h-17.42857z" data-paper-data="{&quot;index&quot;:null}" fill="url(#color-24)" stroke="none" stroke-width="0" stroke-linecap="butt"/><path d="M32.94244,93.26005v-17.42857h155.17371v17.42857z" data-paper-data="{&quot;index&quot;:null}" fill="url(#color-25)" stroke="none" stroke-width="0" stroke-linecap="butt"/><path d="M170.64835,75.62556h17.42857v84.67372h-17.42857z" data-paper-data="{&quot;index&quot;:null}" fill="url(#color-26)" stroke="none" stroke-width="0" stroke-linecap="butt"/><path d="M188.19949,142.24812v17.42857h-192.84038v-17.42857z" data-paper-data="{&quot;index&quot;:null}" fill="url(#color-27)" stroke="none" stroke-width="0" stroke-linecap="butt"/><path d="M111.77692,12.59929h-17.42857v-17.77371h17.42857z" data-paper-data="{&quot;index&quot;:null}" fill="url(#color-28)" stroke="none" stroke-width="0" stroke-linecap="butt"/><path d="M371.67692,121.59929l-17.42857,0.00001v-109.17371h17.42857z" data-paper-data="{&quot;index&quot;:null}" fill="url(#color-29)" stroke="none" stroke-width="0" stroke-linecap="butt"/><path d="M486.23282,103.89815v17.42857l-132.05705,-0.00001v-17.42856z" data-paper-data="{&quot;index&quot;:null}" fill="url(#color-30)" stroke="none" stroke-width="0" stroke-linecap="butt"/><path d="M381.77578,225.26005v-17.42857h101.65704v17.42857z" data-paper-data="{&quot;index&quot;:null}" fill="url(#color-31)" stroke="none" stroke-width="0" stroke-linecap="butt"/><path d="M399.07692,325.99924h-17.42857v-117.77371h17.42857z" data-paper-data="{&quot;index&quot;:null}" fill="url(#color-32)" stroke="none" stroke-width="0" stroke-linecap="butt"/><path d="M148.27578,342.97671v-17.42857h233.37371v17.42857z" data-paper-data="{&quot;index&quot;:null}" fill="url(#color-33)" stroke="none" stroke-width="0" stroke-linecap="butt"/><path d="M60.20911,280.4267v-17.42857h88.37371v17.42857z" data-paper-data="{&quot;index&quot;:null}" fill="url(#color-34)" stroke="none" stroke-width="0" stroke-linecap="butt"/><path d="M130.93168,262.94219h17.42857v62.87371h-17.42857z" data-paper-data="{&quot;index&quot;:null}" fill="url(#color-35)" stroke="none" stroke-width="0" stroke-linecap="butt"/><path d="M77.77692,286.23258h-17.42857v-23.20704h17.42857z" data-paper-data="{&quot;index&quot;:null}" fill="url(#color-36)" stroke="none" stroke-width="0" stroke-linecap="butt"/><path d="M-3.04089,303.34334v-17.42857h63.20704v17.42857z" data-paper-data="{&quot;index&quot;:null}" fill="url(#color-37)" stroke="none" stroke-width="0" stroke-linecap="butt"/><g stroke="#000000" stroke-linecap="butt"><path d="M246.59629,84.80016c0,-17.50052 14.18698,-31.6875 31.6875,-31.6875c17.50052,0 31.6875,14.18698 31.6875,31.6875c0,17.50053 -14.18698,31.6875 -31.6875,31.6875c-17.50052,0 -31.6875,-14.18697 -31.6875,-31.6875z" fill="url(#color-38)" stroke-width="0"/><path d="M280.99246,92.97145v3.95204h-4.89971v-3.95204z" fill="#323324" stroke-width="1"/><path d="M278.60379,78.9327c0.33907,-0.45842 0.61784,2.04462 0.59166,2.929c-0.02344,0.79161 0.15883,1.49602 0.08386,2.08609c-0.01159,0.09117 0.10472,1.05691 0.17785,1.32572c0.01914,0.07037 0.54694,-1.26689 0.95195,-1.85811c0.2366,-0.34539 0.5058,-0.39572 0.66246,-0.23831c0.1196,0.12018 0.18793,0.35164 0.22265,0.64319c0.08859,0.74399 -0.04165,1.87931 -0.09694,2.55555c-0.04857,0.59401 -0.02254,1.22305 -0.20004,1.78245c-0.1775,0.5594 -0.83204,1.58019 -0.88234,1.6286c-0.144,0.13859 -1.16059,0.63963 -1.31734,0.63963c-0.26598,0 -0.73816,-0.07472 -1.01281,-0.19919c-0.21345,-0.09674 -1.36238,-0.6838 -1.76552,-1.65358c-0.48287,-1.1616 -1.0065,-2.98487 -1.10044,-3.28986c-0.06579,-0.21361 -0.02559,-3.17825 0.48151,-2.62096c0.53012,0.58259 2.1685,4.07417 2.13903,3.7559c-0.01779,-0.1921 -0.37593,-2.0437 -0.20391,-3.89963c0.12984,-1.40087 0.67184,-2.77999 1.26839,-3.58649z" fill="url(#color-39)" stroke-width="0.75"/><path d="M277.84908,94.9257v-4.66593h1.23858v4.66593z" fill="#311800" stroke-width="0.75"/></g><g fill="none" stroke="#000000" stroke-width="4" stroke-linecap="round"><g><path d="M307.03917,51.59463l9.79847,-9.79847"/><path d="M316.77335,51.78747l-9.79848,-9.79848"/></g><g><path d="M311.82086,39.46745v13.85715"/><path d="M318.84034,46.57785h-13.85714"/></g></g><g fill="none" stroke="#000000" stroke-width="4" stroke-linecap="round"><g><path d="M248.08764,41.29616l-9.79847,9.79847"/><path d="M248.02335,51.28747l-9.79848,-9.79848"/></g><g><path d="M243.07086,52.8246v-13.85715"/><path d="M250.09034,46.07785h-13.85714"/></g></g><g><path d="M218.88627,313.94268v-3.06481h5.16666v3.06481z" fill="#000000" stroke="#333333" stroke-width="0" stroke-linecap="butt"/><path d="M230.88627,314.10929v-3.06482h5.16666v3.06482z" fill="#000000" stroke="#333333" stroke-width="0" stroke-linecap="butt"/><path d="M242.71953,314.27603v-3.06481h5.16666v3.06481z" fill="#000000" stroke="#333333" stroke-width="0" stroke-linecap="butt"/><path d="M254.88623,314.10929v-3.06482h5.16666v3.06482z" fill="#000000" stroke="#333333" stroke-width="0" stroke-linecap="butt"/><path d="M271.88626,311.21119v3.06481h-5.16666v-3.06481z" data-paper-data="{&quot;index&quot;:null}" fill="#000000" stroke="#333333" stroke-width="0" stroke-linecap="butt"/><path d="M283.88626,311.21119v3.06482h-5.16666v-3.06482z" data-paper-data="{&quot;index&quot;:null}" fill="#000000" stroke="#333333" stroke-width="0" stroke-linecap="butt"/><path d="M295.71961,311.37784v3.06481h-5.16666v-3.06481z" data-paper-data="{&quot;index&quot;:null}" fill="#000000" stroke="#333333" stroke-width="0" stroke-linecap="butt"/><path d="M307.88626,311.21119v3.06482h-5.16667v-3.06482z" data-paper-data="{&quot;index&quot;:null}" fill="#000000" stroke="#333333" stroke-width="0" stroke-linecap="butt"/><path d="M320.02915,311.21119v3.06482h-5.16667v-3.06482z" data-paper-data="{&quot;index&quot;:null}" fill="#000000" stroke="#333333" stroke-width="0" stroke-linecap="butt"/><path d="M331.88626,311.35402v3.06482h-5.16667v-3.06482z" data-paper-data="{&quot;index&quot;:null}" fill="#000000" stroke="#333333" stroke-width="0" stroke-linecap="butt"/><path d="M344.02915,311.49694v3.06482h-5.16667v-3.06482z" data-paper-data="{&quot;index&quot;:null}" fill="#000000" stroke="#333333" stroke-width="0" stroke-linecap="butt"/><path d="M355.88627,311.63973v3.06482h-5.16667v-3.06482z" data-paper-data="{&quot;index&quot;:null}" fill="#000000" stroke="#333333" stroke-width="0" stroke-linecap="butt"/><path d="M367.60048,311.63973v3.06482h-5.16667v-3.06482z" data-paper-data="{&quot;index&quot;:null}" fill="#000000" stroke="#333333" stroke-width="0" stroke-linecap="butt"/><path d="M217.23457,316.14513h-2.9712h154.55h-2.82879" fill="none" stroke="#141414" stroke-width="3" stroke-linecap="round"/></g><g><path d="M159.13627,313.94268v-3.06481h5.16666v3.06481z" fill="#000000" stroke="#333333" stroke-width="0" stroke-linecap="butt"/><path d="M171.13627,314.10929v-3.06482h5.16666v3.06482z" fill="#000000" stroke="#333333" stroke-width="0" stroke-linecap="butt"/><path d="M182.96953,314.27603v-3.06481h5.16666v3.06481z" fill="#000000" stroke="#333333" stroke-width="0" stroke-linecap="butt"/><path d="M195.13623,314.10929v-3.06482h5.16666v3.06482z" fill="#000000" stroke="#333333" stroke-width="0" stroke-linecap="butt"/><path d="M212.13627,311.21119v3.06481h-5.16666v-3.06481z" data-paper-data="{&quot;index&quot;:null}" fill="#000000" stroke="#333333" stroke-width="0" stroke-linecap="butt"/><path d="M224.13627,311.21119v3.06482h-5.16666v-3.06482z" data-paper-data="{&quot;index&quot;:null}" fill="#000000" stroke="#333333" stroke-width="0" stroke-linecap="butt"/><path d="M235.96962,311.37784v3.06481h-5.16666v-3.06481z" data-paper-data="{&quot;index&quot;:null}" fill="#000000" stroke="#333333" stroke-width="0" stroke-linecap="butt"/><path d="M248.13627,311.21119v3.06482h-5.16667v-3.06482z" data-paper-data="{&quot;index&quot;:null}" fill="#000000" stroke="#333333" stroke-width="0" stroke-linecap="butt"/><path d="M260.27915,311.21119v3.06482h-5.16667v-3.06482z" data-paper-data="{&quot;index&quot;:null}" fill="#000000" stroke="#333333" stroke-width="0" stroke-linecap="butt"/><path d="M272.13626,311.35402v3.06482h-5.16667v-3.06482z" data-paper-data="{&quot;index&quot;:null}" fill="#000000" stroke="#333333" stroke-width="0" stroke-linecap="butt"/><path d="M284.27915,311.49694v3.06482h-5.16667v-3.06482z" data-paper-data="{&quot;index&quot;:null}" fill="#000000" stroke="#333333" stroke-width="0" stroke-linecap="butt"/><path d="M296.13626,311.63973v3.06482h-5.16667v-3.06482z" data-paper-data="{&quot;index&quot;:null}" fill="#000000" stroke="#333333" stroke-width="0" stroke-linecap="butt"/><path d="M307.85048,311.63973v3.06482h-5.16667v-3.06482z" data-paper-data="{&quot;index&quot;:null}" fill="#000000" stroke="#333333" stroke-width="0" stroke-linecap="butt"/><path d="M306.23458,316.14513h2.82879h-153.3h1.7212" fill="none" stroke="#141414" stroke-width="3" stroke-linecap="round"/></g><g stroke="#000000"><path d="M264.46949,311.89216c0,0 -3.77819,-13.13253 -4.73555,-17.28436c-0.53924,-2.33855 -0.51445,-5.48365 -0.51445,-5.48365h31.81802c0,0 -0.07168,3.35317 -0.52481,5.41655c-0.89245,4.06385 -4.47519,17.35147 -4.47519,17.35147z" fill="#000000" stroke-width="2.5" stroke-linecap="butt"/><path d="M265.64159,310.89216c0,0 -3.38803,-11.65773 -4.24653,-15.34331c-0.48356,-2.07593 -0.46133,-4.86783 -0.46133,-4.86783h28.53232c0,0 -0.06428,2.97661 -0.47062,4.80827c-0.80029,3.60748 -4.01306,15.40288 -4.01306,15.40288z" fill="#190f07" stroke-width="0" stroke-linecap="butt"/><path d="M258.86195,295.00568v-5.725h32.55v5.725z" fill="#141414" stroke-width="2.5" stroke-linecap="butt"/><path d="M265.57153,295.79049l5,15.71428" fill="none" stroke-width="2.5" stroke-linecap="round"/><path d="M261.69941,310.70574c0,-2.14011 1.73489,-3.875 3.875,-3.875c2.14011,0 3.875,1.73489 3.875,3.875c0,2.14011 -1.73489,3.875 -3.875,3.875c-2.14011,0 -3.875,-1.73489 -3.875,-3.875z" fill="#191919" stroke-width="2.5" stroke-linecap="butt"/><path d="M279.71436,311.79053l5.125,-15.83929" data-paper-data="{&quot;index&quot;:null}" fill="none" stroke-width="2.5" stroke-linecap="round"/><path d="M280.69941,310.43485c0,-2.17462 1.76288,-3.9375 3.9375,-3.9375c2.17462,0 3.9375,1.76288 3.9375,3.9375c0,2.17462 -1.76288,3.9375 -3.9375,3.9375c-2.17462,0 -3.9375,-1.76288 -3.9375,-3.9375z" fill="#191919" stroke-width="2.5" stroke-linecap="butt"/><path d="M282.57153,300.93336h-15.42857" fill="none" stroke-width="2.5" stroke-linecap="round"/><path d="M269.57158,306.4729h10.57143" fill="none" stroke-width="2.5" stroke-linecap="round"/></g><g stroke="#000000" stroke-linecap="butt"><path d="M4.59629,210.80016c0,-17.50052 14.18698,-31.6875 31.6875,-31.6875c17.50052,0 31.6875,14.18698 31.6875,31.6875c0,17.50053 -14.18698,31.6875 -31.6875,31.6875c-17.50052,0 -31.6875,-14.18697 -31.6875,-31.6875z" fill="url(#color-40)" stroke-width="0"/><path d="M38.99246,218.97145v3.95204h-4.89971v-3.95204z" fill="#323324" stroke-width="1"/><path d="M36.60379,204.9327c0.33907,-0.45842 0.61784,2.04462 0.59166,2.929c-0.02344,0.79161 0.15883,1.49602 0.08386,2.08609c-0.01159,0.09117 0.10472,1.05691 0.17785,1.32572c0.01914,0.07037 0.54694,-1.26689 0.95195,-1.85811c0.2366,-0.34539 0.5058,-0.39572 0.66246,-0.23831c0.1196,0.12018 0.18793,0.35164 0.22265,0.64319c0.08859,0.74399 -0.04165,1.87931 -0.09694,2.55555c-0.04857,0.59401 -0.02254,1.22305 -0.20004,1.78245c-0.1775,0.5594 -0.83204,1.58019 -0.88234,1.6286c-0.144,0.13859 -1.16059,0.63963 -1.31734,0.63963c-0.26598,0 -0.73816,-0.07472 -1.01281,-0.19919c-0.21345,-0.09674 -1.36238,-0.6838 -1.76552,-1.65358c-0.48287,-1.1616 -1.0065,-2.98487 -1.10044,-3.28986c-0.06579,-0.21361 -0.02559,-3.17825 0.48151,-2.62096c0.53012,0.58259 2.1685,4.07417 2.13903,3.7559c-0.01779,-0.1921 -0.37593,-2.0437 -0.20391,-3.89963c0.12984,-1.40087 0.67184,-2.77999 1.26839,-3.58649z" fill="url(#color-41)" stroke-width="0.75"/><path d="M35.84908,220.9257v-4.66593h1.23858v4.66593z" fill="#311800" stroke-width="0.75"/></g><path d="M483.12101,204.09443h-105.33333v117.56226h-225.6746v-62.38318h-95.66667v22.98233h-59.66667" data-paper-data="{&quot;index&quot;:null}" fill="none" stroke="#180902" stroke-width="8" stroke-linecap="round"/><g><path d="M369.77586,196.91415v-3.06482h5.31471v3.06482z" fill="#000000" stroke="#333333" stroke-width="0" stroke-linecap="butt"/><path d="M386.7773,194.01605v3.06481h-5.31471v-3.06481z" data-paper-data="{&quot;index&quot;:null}" fill="#000000" stroke="#333333" stroke-width="0" stroke-linecap="butt"/><path d="M398.40689,193.91602v3.06482h-5.31471v-3.06482z" data-paper-data="{&quot;index&quot;:null}" fill="#000000" stroke="#333333" stroke-width="0" stroke-linecap="butt"/><path d="M410.63645,193.88272v3.06481h-5.31471v-3.06481z" data-paper-data="{&quot;index&quot;:null}" fill="#000000" stroke="#333333" stroke-width="0" stroke-linecap="butt"/><path d="M422.95174,193.91602v3.06482h-5.31472v-3.06482z" data-paper-data="{&quot;index&quot;:null}" fill="#000000" stroke="#333333" stroke-width="0" stroke-linecap="butt"/><path d="M433.64256,193.81607v3.06482h-5.31472v-3.06482z" data-paper-data="{&quot;index&quot;:null}" fill="#000000" stroke="#333333" stroke-width="0" stroke-linecap="butt"/><path d="M443.78228,193.8589v3.06482h-5.31472v-3.06482z" data-paper-data="{&quot;index&quot;:null}" fill="#000000" stroke="#333333" stroke-width="0" stroke-linecap="butt"/><path d="M456.55884,194.40179v3.06482h-5.31472v-3.06482z" data-paper-data="{&quot;index&quot;:null}" fill="#000000" stroke="#333333" stroke-width="0" stroke-linecap="butt"/><path d="M468.47002,194.5446v3.06482h-5.31472v-3.06482z" data-paper-data="{&quot;index&quot;:null}" fill="#000000" stroke="#333333" stroke-width="0" stroke-linecap="butt"/><path d="M479.80556,194.11606v3.06482h-5.31472v-3.06482z" data-paper-data="{&quot;index&quot;:null}" fill="#000000" stroke="#333333" stroke-width="0" stroke-linecap="butt"/><path d="M372.43096,199.04998h111.19367h-2.90985" fill="none" stroke="#141414" stroke-width="3" stroke-linecap="round"/></g></g></g></svg>