<svg version="1.1" xmlns="http://www.w3.org/2000/svg" xmlns:xlink="http://www.w3.org/1999/xlink" width="490.3607" height="364.99472" viewBox="0,0,490.3607,364.99472"><g transform="translate(5.90622,2.54638)"><g data-paper-data="{&quot;isPaintingLayer&quot;:true}" fill-rule="nonzero" stroke-linejoin="miter" stroke-miterlimit="10" stroke-dasharray="" stroke-dashoffset="0" style="mix-blend-mode: normal"><path d="M407.53901,362.44834v-333.32432h76.57357v333.32433z" fill="#000000" stroke="none" stroke-width="0" stroke-linecap="butt"/><path d="M-2.97593,362.38235v-300h100v300z" fill="#000000" stroke="none" stroke-width="0" stroke-linecap="butt"/><path d="M90.0241,362.38235v-63h246v63z" fill="#000000" stroke="none" stroke-width="0" stroke-linecap="butt"/><path d="M160.69447,245.1414v-57h248.47147v57z" fill="#000000" stroke="none" stroke-width="0" stroke-linecap="butt"/><g data-paper-data="{&quot;index&quot;:null}" fill="#000000" stroke="#000000"><g><path d="M118.37321,299.21405l-7.51663,-103.29963" stroke-width="2.5" stroke-linecap="round"/><path d="M99.83312,196.70188l8.22015,102.86315" stroke-width="2.5" stroke-linecap="round"/><path d="M98.81993,228.07024l-0.28254,-3.48857l16.94451,-1.37236l0.28255,3.48858z" stroke-width="1" stroke-linecap="butt"/><path d="M100.34672,250.01867l-0.28254,-3.48857l16.94451,-1.37236l0.28254,3.48857z" stroke-width="1" stroke-linecap="butt"/><path d="M101.94781,272.16441l-0.28254,-3.48857l16.94451,-1.37236l0.28255,3.48857z" stroke-width="1" stroke-linecap="butt"/><path d="M104.23527,294.01973l-0.28255,-3.48857l16.94451,-1.37236l0.28255,3.48857z" stroke-width="1" stroke-linecap="butt"/><path d="M97.57267,205.61287l-0.28254,-3.48857l16.94451,-1.37236l0.28254,3.48858z" stroke-width="1" stroke-linecap="butt"/></g><path d="M102.87261,282.6183l-0.28254,-3.48857l16.94451,-1.37236l0.28255,3.48857z" stroke-width="1" stroke-linecap="butt"/><path d="M101.55011,261.42211l-0.28254,-3.48857l16.94451,-1.37236l0.28255,3.48857z" stroke-width="1" stroke-linecap="butt"/><path d="M100.16337,239.0492l-0.28254,-3.48857l16.94451,-1.37236l0.28255,3.48857z" stroke-width="1" stroke-linecap="butt"/><path d="M97.97036,216.35517l-0.28254,-3.48857l16.94451,-1.37236l0.28254,3.48858z" stroke-width="1" stroke-linecap="butt"/></g><g data-paper-data="{&quot;index&quot;:null}" fill="#000000" stroke="#000000" stroke-linecap="butt"><path d="M139.37437,204.49048v-6.5h20.29246v6.5z" data-paper-data="{&quot;index&quot;:null}" stroke-width="2"/><g><g stroke-width="2.5"><path d="M158.42086,209.19777v-16h4v16z"/><path d="M168.421,203.32277h-16v-4h16z"/><g><path d="M164.53858,208.14378l-11.31371,-11.31371l2.82843,-2.82843l11.31371,11.31371z"/><path d="M167.4554,196.91858l-11.3137,11.3137l-2.82843,-2.82842l11.31371,-11.31371z"/></g></g><g stroke-width="0"><path d="M158.29586,209.32277v-16h4v16z"/><path d="M168.296,203.44777h-16v-4h16z"/><g><path d="M164.41358,208.26878l-11.31371,-11.31371l2.82843,-2.82843l11.31371,11.31371z"/><path d="M167.3304,197.04358l-11.3137,11.3137l-2.82843,-2.82842l11.31371,-11.31371z"/></g></g><g stroke-width="0"><path d="M158.92926,206.38106v-10.2h2.55v10.2z"/><path d="M165.30427,202.63581h-10.2v-2.55h10.2z"/><g><path d="M162.82925,205.70923l-7.21249,-7.21249l1.80312,-1.80312l7.21249,7.21249z"/><path d="M164.68867,198.55307l-7.21249,7.21249l-1.80312,-1.80312l7.21249,-7.21249z"/></g></g><path d="M158.27309,201.32412c0,-1.05855 0.85812,-1.91667 1.91667,-1.91667c1.05855,0 1.91667,0.85812 1.91667,1.91667c0,1.05855 -0.85812,1.91667 -1.91667,1.91667c-1.05855,0 -1.91667,-0.85812 -1.91667,-1.91667z" stroke-width="0.5"/></g></g><path d="M174.74471,299.6024v-3.83021h31.39644v3.83021z" fill="#000000" stroke="#000000" stroke-width="1.5" stroke-linecap="butt"/><path d="M176.2377,270.44951v-3.58805h27.90132v3.58805z" fill="#000000" stroke="#000000" stroke-width="1" stroke-linecap="butt"/><path d="M176.30407,264.56512v-3.58805h27.90131v3.58805z" fill="#000000" stroke="#000000" stroke-width="1" stroke-linecap="butt"/><path d="M176.2377,258.64158v-3.58804h27.90132v3.58804z" fill="#000000" stroke="#000000" stroke-width="1" stroke-linecap="butt"/><path d="M176.2377,252.75721v-3.58805h27.90132v3.58805z" fill="#000000" stroke="#000000" stroke-width="1" stroke-linecap="butt"/><g fill="#000000" stroke="#000000" stroke-width="1.5" stroke-linecap="round"><path d="M178.80639,272.48143v-26.03854"/><path d="M181.46112,272.62447v-25.72972"/><path d="M184.2422,246.49086v25.91905"/><path d="M187.03338,272.68336v-25.99058"/><path d="M189.93095,246.30072v26.2161"/><path d="M192.83852,246.49083v26.13279"/><path d="M195.61962,246.69281v25.63378"/><path d="M198.65362,272.50501v-25.81218"/><path d="M201.81401,272.51675v-26.02592"/></g><g fill="#000000" stroke="#000000" stroke-linecap="butt"><g stroke-width="2.5"><path d="M181.23762,246.78031l-11.67569,0.49178l-0.12513,-2.8678l11.67569,-0.49178z"/><path d="M176.63762,239.79141l0.50054,11.47121l-2.91893,0.12294l-0.50054,-11.47121z"/><g><path d="M180.27711,242.42671l-7.90202,8.45911l-2.15248,-1.94091l7.90202,-8.45911z"/><path d="M171.99441,240.68056l8.60989,7.76363l-1.9755,2.11478l-8.6099,-7.76363z"/></g></g><g stroke-width="0"><path d="M181.33273,246.8661l-11.6757,0.49178l-0.12513,-2.8678l11.67569,-0.49177z"/><path d="M176.73271,239.87719l0.50054,11.47121l-2.91892,0.12294l-0.50054,-11.47121z"/><g><path d="M180.37221,242.51249l-7.90203,8.45911l-2.15247,-1.94091l7.90202,-8.45911z"/><path d="M172.08954,240.76626l8.60989,7.76363l-1.9755,2.11478l-8.6099,-7.76363z"/></g></g><g stroke-width="0"><path d="M179.16626,246.50246l-7.44325,0.31351l-0.07977,-1.82823l7.44325,-0.31351z"/><path d="M176.23379,242.04705l0.3191,7.3129l-1.86082,0.07838l-0.3191,-7.3129z"/><g><path d="M178.55398,243.72695l-5.03753,5.39268l-1.3722,-1.23733l5.03754,-5.39268z"/><path d="M173.27375,242.61385l5.48881,4.94931l-1.25939,1.34817l-5.48881,-4.94932z"/></g></g><path d="M175.49659,247.12827c-0.77245,0.03254 -1.4255,-0.55632 -1.45861,-1.31525c-0.03312,-0.75893 0.56624,-1.40053 1.33869,-1.43306c0.77245,-0.03254 1.4255,0.55632 1.45861,1.31525c0.03312,0.75893 -0.56624,1.40053 -1.3387,1.43306z" stroke-width="0.5"/></g><g fill="#000000" stroke="#000000" stroke-linecap="butt"><g stroke-width="2.5"><path d="M204.22483,251.15182v-11.48174h2.9216v11.48174z"/><path d="M211.52889,246.93593h-11.68641v-2.87043h11.68641z"/><g><path d="M208.6932,250.39547l-8.26354,-8.11882l2.06588,-2.02971l8.26355,8.11882z"/><path d="M210.8236,242.34013l-8.26353,8.11881l-2.06589,-2.0297l8.26354,-8.11882z"/></g></g><g stroke-width="0"><path d="M204.13358,251.24154v-11.48174h2.9216v11.48174z"/><path d="M211.43757,247.02557h-11.68642v-2.87043h11.68642z"/><g><path d="M208.60188,250.48518l-8.26354,-8.11882l2.06588,-2.02971l8.26355,8.11882z"/><path d="M210.73234,242.42984l-8.26353,8.11881l-2.06589,-2.0297l8.26354,-8.11882z"/></g></g><g stroke-width="0"><path d="M204.59615,249.13051v-7.31961h1.86252v7.31961z"/><path d="M209.25241,246.44292h-7.45009v-1.8299h7.45009z"/><g><path d="M207.44473,248.64842l-5.26801,-5.17575l1.317,-1.29393l5.26801,5.17575z"/><path d="M208.80282,243.51312l-5.26801,5.17574l-1.317,-1.29393l5.26801,-5.17574z"/></g></g><path d="M204.11692,245.50166c0,-0.75962 0.62677,-1.37542 1.39993,-1.37542c0.77317,0 1.39994,0.61579 1.39994,1.37542c0,0.75962 -0.62678,1.37542 -1.39994,1.37542c-0.77317,0 -1.39993,-0.6158 -1.39993,-1.37542z" stroke-width="0.5"/></g><g fill="#000000" stroke="#000000"><path d="M249.74909,300.07651v-23.39221h23.10853v23.39222z" stroke-width="0" stroke-linecap="butt"/><path d="M252.13033,297.63059v-18.53827h18.31346v18.53827z" stroke-width="3" stroke-linecap="butt"/><path d="M254.13987,295.46979v-14.39521h14.22063v14.39521z" stroke-width="0" stroke-linecap="butt"/><path d="M256.08193,293.57061l10.69839,-10.82973" stroke-width="5" stroke-linecap="round"/><path d="M255.46136,295.44354v-14.67747" stroke-width="1" stroke-linecap="round"/><path d="M257.02204,296.00415v-15.28903" stroke-width="1" stroke-linecap="round"/><path d="M258.58277,295.95316v-15.08518" stroke-width="1" stroke-linecap="round"/><path d="M260.29445,280.71511v14.98326" stroke-width="1" stroke-linecap="round"/><path d="M261.90549,295.90217v-15.28903" stroke-width="1" stroke-linecap="round"/><path d="M263.66751,280.56215v14.88132" stroke-width="1" stroke-linecap="round"/><path d="M265.32894,295.80028v-15.23808" stroke-width="1" stroke-linecap="round"/><path d="M267.04071,295.95322v-15.13613" stroke-width="1" stroke-linecap="round"/><path d="M253.5801,296.03637l15.10942,-15.29492" stroke-width="3" stroke-linecap="round"/><path d="M253.54738,296.00298v-15.52817h15.33986v15.52817z" stroke-width="1.25" stroke-linecap="butt"/></g><g fill="#000000" stroke="#000000" stroke-linecap="butt"><path d="M337.12094,322.32381v-6.5h20.29246v6.5z" data-paper-data="{&quot;index&quot;:null}" stroke-width="2"/><g data-paper-data="{&quot;index&quot;:null}"><g stroke-width="2.5"><path d="M334.36678,327.03108v-16h4v16z"/><path d="M328.36678,317.15608h16v4h-16z"/><g><path d="M329.42071,323.14869l11.31371,-11.31371l2.82843,2.82843l-11.31371,11.31371z"/><path d="M332.16081,311.92346l11.31371,11.31371l-2.82843,2.82842l-11.3137,-11.3137z"/></g></g><g stroke-width="0"><path d="M334.49178,327.15608v-16h4v16z"/><path d="M328.49178,317.28108h16v4h-16z"/><g><path d="M329.54571,323.27369l11.31371,-11.31371l2.82843,2.82843l-11.31371,11.31371z"/><path d="M332.28581,312.04846l11.31371,11.31371l-2.82843,2.82842l-11.3137,-11.3137z"/></g></g><g stroke-width="0"><path d="M335.30845,324.21434v-10.2h2.55v10.2z"/><path d="M331.48345,317.91916h10.2v2.55h-10.2z"/><g><path d="M332.15531,321.73938l7.21249,-7.21249l1.80312,1.80312l-7.21249,7.21249z"/><path d="M333.90211,314.58322l7.21249,7.21249l-1.80312,1.80312l-7.21249,-7.21249z"/></g></g><path d="M336.59795,321.07412c-1.05855,0 -1.91667,-0.85812 -1.91667,-1.91667c0,-1.05855 0.85812,-1.91667 1.91667,-1.91667c1.05855,0 1.91667,0.85812 1.91667,1.91667c0,1.05855 -0.85812,1.91667 -1.91667,1.91667z" stroke-width="0.5"/></g></g><path d="M-5.90622,69.20736v-71h224.59299v71z" fill="#000000" stroke="none" stroke-width="0" stroke-linecap="butt"/><path d="M259.82966,31.45362v-34h224.62482v34z" fill="#000000" stroke="none" stroke-width="0" stroke-linecap="butt"/><g data-paper-data="{&quot;index&quot;:null}" fill="#000000" stroke="#000000"><path d="M364.0403,168.81989l-57.12782,-10.77949l57.53825,5.78171" stroke-width="10" stroke-linecap="round"/><path d="M363.72482,168.98653l-54.64566,-10.77949l55.03825,5.78171" stroke-width="6.5" stroke-linecap="round"/><path d="M329.1255,179.82088c0,0 0,-12.45543 0,-15.62416c0,-1.50672 1.14975,-2.39477 2.31822,-2.32069c4.64902,0.29475 34.59421,2.20122 34.59421,2.20122l12.72965,5.36356v10.38007z" stroke-width="0" stroke-linecap="butt"/><path d="M310.58871,157.90379c0.12417,2.79179 -1.45181,5.19083 -3.52005,5.35843c-2.06824,0.16759 -3.84552,-1.95973 -3.96969,-4.75152c-0.12416,-2.79179 1.45183,-5.19082 3.52007,-5.35842c2.06824,-0.1676 3.8455,1.9597 3.96967,4.75149z" stroke-width="0" stroke-linecap="butt"/><path d="M331.1255,177.96853c0,0 -0.08444,-9.41643 -0.10557,-11.77279c-0.00906,-1.01096 0.92337,-2.13679 1.63627,-2.09879c3.60679,0.19226 32.40744,1.74748 32.40744,1.74748l11.70394,4.62494v7.49917z" stroke-width="0" stroke-linecap="butt"/><path d="M341.53612,189.39476c-5.09165,0 -9.21925,-4.12759 -9.21925,-9.21924c0,-5.09165 4.1276,-9.21925 9.21925,-9.21925c5.09165,0 9.21924,4.1276 9.21924,9.21925c0,5.09165 -4.12759,9.21924 -9.21924,9.21924z" stroke-width="0" stroke-linecap="butt"/><path d="M341.61947,187.56145c-3.94105,0 -7.13591,-3.19485 -7.13591,-7.13591c0,-3.94105 3.19485,-7.13591 7.13591,-7.13591c3.94106,0 7.13591,3.19485 7.13591,7.13591c0,3.94105 -3.19485,7.13591 -7.13591,7.13591z" stroke-width="0" stroke-linecap="butt"/><path d="M367.06626,189.33095c-4.89582,0 -8.86466,-3.96884 -8.86466,-8.86466c0,-4.89581 3.96884,-8.86465 8.86466,-8.86465c4.89581,0 8.86465,3.96883 8.86465,8.86465c0,4.89582 -3.96883,8.86466 -8.86465,8.86466z" stroke-width="0" stroke-linecap="butt"/><path d="M367.11941,187.72813c-3.94105,0 -7.13591,-3.19485 -7.13591,-7.13591c0,-3.94106 3.19485,-7.13592 7.13591,-7.13592c3.94105,0 7.13591,3.19486 7.13591,7.13592c0,3.94105 -3.19485,7.13591 -7.13591,7.13591z" stroke-width="0" stroke-linecap="butt"/><path d="M308.55021,157.83362c0.06671,1.90363 -0.77999,3.53945 -1.89115,3.65373c-1.11116,0.11428 -2.06601,-1.33627 -2.13272,-3.23989c-0.0667,-1.90362 0.78,-3.53944 1.89116,-3.65372c1.11117,-0.11428 2.06601,1.33626 2.13272,3.23988z" stroke-width="0" stroke-linecap="butt"/><path d="M370.50828,180.80566l-1,-0.875" stroke-width="0.5" stroke-linecap="round"/><path d="M366.13328,188.18066v-15.5h2.25v15.5z" stroke-width="1.5" stroke-linecap="butt"/><path d="M359.63328,179.30566h15.5v2.25h-15.5z" stroke-width="1.5" stroke-linecap="butt"/><path d="M364.00828,183.68066v-6.5h6.5v6.5z" stroke-width="1.5" stroke-linecap="butt"/><path d="M340.50835,187.93066v-15.5h2.25v15.5z" stroke-width="1.5" stroke-linecap="butt"/><path d="M334.00829,179.05566h15.5v2.25h-15.5z" stroke-width="1.5" stroke-linecap="butt"/><path d="M338.38335,183.43066v-6.5h6.5v6.5z" stroke-width="1.5" stroke-linecap="butt"/><path d="M345.88326,169.80566v-3.125h13.125v3.125z" stroke-width="0" stroke-linecap="butt"/><path d="M352.25826,176.93066v-6.5h4.75v6.5z" stroke-width="0" stroke-linecap="butt"/><path d="M358.75828,169.30566v-1.375h4.625v1.375z" stroke-width="0" stroke-linecap="butt"/><path d="M338.13335,168.93066v-2h5v2z" stroke-width="0" stroke-linecap="butt"/><path d="M332.88329,168.43066v-2.125h1.125v2.125z" stroke-width="0" stroke-linecap="butt"/><path d="M354.00826,172.18066v-4.25h3.875v4.25z" stroke-width="0" stroke-linecap="butt"/><path d="M356.75828,172.55566v-3.875h6.25v3.875z" stroke-width="0" stroke-linecap="butt"/><path d="M369.38328,171.18066v-1.125h3.75v1.125z" stroke-width="0" stroke-linecap="butt"/><path d="M359.63328,169.30566v-2.875h2.5v2.875z" stroke-width="0" stroke-linecap="butt"/><path d="M353.00826,174.18066v-3.625h2.875v3.625z" stroke-width="0" stroke-linecap="butt"/><path d="M351.75826,171.18066v-4.5h4.25v4.5z" stroke-width="0" stroke-linecap="butt"/><path d="M332.65257,174.16149v-3.6923h1.53846v3.6923z" stroke-width="0" stroke-linecap="butt"/><path d="M349.57567,174.16149v-2.76923h3.30769v2.76923z" stroke-width="0" stroke-linecap="butt"/><path d="M367.2679,170.31531v-1.61539h2.23076v1.61539z" stroke-width="0" stroke-linecap="butt"/><path d="M371.42174,171.46916v-1.92308h2.23077v1.92308z" stroke-width="0" stroke-linecap="butt"/><path d="M351.96017,169.46916v-3.46154h3.92308v3.46154z" stroke-width="0" stroke-linecap="butt"/><path d="M332.11407,170.08454v-5.38462h3.76923v5.38462z" stroke-width="0" stroke-linecap="butt"/><path d="M342.88335,169.54607v-4.07692h2.84615v4.07692z" stroke-width="0" stroke-linecap="butt"/><path d="M335.72952,170.93066v-2.61539h3.07693v2.61539z" stroke-width="0" stroke-linecap="butt"/><path d="M347.34485,172.39222v-3.15384h2.61539v3.15384z" stroke-width="0" stroke-linecap="butt"/><path d="M349.03716,170.31531v-1.23076h4.38461v1.23076z" stroke-width="0" stroke-linecap="butt"/><path d="M346.88326,169.08454v-0.69231h8.84615v0.69231z" stroke-width="0" stroke-linecap="butt"/><path d="M345.11411,169.54607v-3.92307h3.69231v3.92307z" stroke-width="0" stroke-linecap="butt"/><path d="M354.49866,167.54607v-1.76923h1.53847v1.76923z" stroke-width="0" stroke-linecap="butt"/><path d="M358.2679,170.08454v-1.69231h1.46153v1.69231z" stroke-width="0" stroke-linecap="butt"/><path d="M352.65249,171.93066v-1.30769h1.53846v1.30769z" stroke-width="0" stroke-linecap="butt"/><path d="M355.49866,176.85381v-2.61539h1.23077v2.61539z" stroke-width="0" stroke-linecap="butt"/><path d="M364.5756,168.54607v-2.53846h1.53846v2.53846z" stroke-width="0" stroke-linecap="butt"/><path d="M337.80644,167.23835v-2h1.84615v2z" stroke-width="0" stroke-linecap="butt"/><path d="M358.11405,167.0076v-1.3077h2v1.3077z" stroke-width="0" stroke-linecap="butt"/><path d="M364.96017,169.85381v-0.92308h1.61539v0.92308z" stroke-width="0" stroke-linecap="butt"/><path d="M334.57566,165.85377v-1h3.07692v1z" stroke-width="0" stroke-linecap="butt"/><path d="M340.72944,167.0076v-1.53846h2.69231v1.53846z" stroke-width="0" stroke-linecap="butt"/><path d="M348.26793,166.62293v-1.23077h2.07692v1.23077z" stroke-width="0" stroke-linecap="butt"/></g><g fill="#000000" stroke="#000000"><path d="M384.45751,188.86213v-71.4061h23.73944v71.4061z" stroke-width="0" stroke-linecap="butt"/><path d="M386.90373,181.39598v-56.58916h18.81345v56.58916z" stroke-width="3" stroke-linecap="butt"/><path d="M388.96805,174.79997v-43.94221h14.60888v43.94221z" stroke-width="0" stroke-linecap="butt"/><path d="M401.95379,135.94447l-10.99048,33.05839" stroke-width="5" stroke-linecap="round"/><path d="M390.32562,174.72001v-44.80383" stroke-width="1" stroke-linecap="round"/><path d="M391.92901,176.4311v-46.67063" stroke-width="1" stroke-linecap="round"/><path d="M393.53228,176.27566v-46.04841" stroke-width="1" stroke-linecap="round"/><path d="M395.2907,175.49815v-45.73727" stroke-width="1" stroke-linecap="round"/><path d="M396.94576,176.12025v-46.67066" stroke-width="1" stroke-linecap="round"/><path d="M398.75592,129.2937v45.42608" stroke-width="1" stroke-linecap="round"/><path d="M400.46269,175.8089v-46.51515" stroke-width="1" stroke-linecap="round"/><path d="M402.2212,176.27611v-46.20398" stroke-width="1" stroke-linecap="round"/><path d="M403.91514,129.84111l-15.52194,46.68862" stroke-width="3" stroke-linecap="round"/><path d="M388.35944,176.42758v-47.40068h15.75866v47.40068z" stroke-width="1.25" stroke-linecap="butt"/></g><path d="" data-paper-data="{&quot;index&quot;:null}" fill="none" stroke="#131313" stroke-width="1.5" stroke-linecap="round"/><path d="" data-paper-data="{&quot;index&quot;:null}" fill="none" stroke="#131313" stroke-width="1.5" stroke-linecap="round"/><path d="M219.12095,60.07381v-6.5h20.29246v6.5z" data-paper-data="{&quot;index&quot;:null}" fill="#000000" stroke="#000000" stroke-width="2" stroke-linecap="butt"/><path d="M247.69755,73.3738v-6.5h20.3097v6.5z" data-paper-data="{&quot;index&quot;:null}" fill="#000000" stroke="#000000" stroke-width="2" stroke-linecap="butt"/><path d="M277.94822,85.57381v-6.5h20.3097v6.5z" data-paper-data="{&quot;index&quot;:null}" fill="#000000" stroke="#000000" stroke-width="2" stroke-linecap="butt"/><g data-paper-data="{&quot;index&quot;:null}" fill="#000000" stroke="#000000" stroke-linecap="butt"><g stroke-width="2.5"><path d="M216.36683,64.78111v-16h4v16z"/><path d="M210.36683,54.90611h16v4h-16z"/><g><path d="M211.42078,60.89869l11.31371,-11.31371l2.82843,2.82843l-11.31371,11.31371z"/><path d="M214.16081,49.67345l11.31371,11.31371l-2.82843,2.82842l-11.3137,-11.3137z"/></g></g><g stroke-width="0"><path d="M216.49183,64.90611v-16h4v16z"/><path d="M210.49183,55.0311h16v4h-16z"/><g><path d="M211.54578,61.02369l11.31371,-11.31371l2.82843,2.82843l-11.31371,11.31371z"/><path d="M214.28581,49.79845l11.31371,11.31371l-2.82843,2.82842l-11.3137,-11.3137z"/></g></g><g stroke-width="0"><path d="M217.3085,61.96437v-10.2h2.55v10.2z"/><path d="M213.4835,55.66915h10.2v2.55h-10.2z"/><g><path d="M214.15535,59.48942l7.21249,-7.21249l1.80312,1.80312l-7.21249,7.21249z"/><path d="M215.90217,52.33326l7.21249,7.21249l-1.80312,1.80312l-7.21249,-7.21249z"/></g></g><path d="M218.59795,58.82413c-1.05855,0 -1.91667,-0.85812 -1.91667,-1.91667c0,-1.05855 0.85812,-1.91667 1.91667,-1.91667c1.05855,0 1.91667,0.85812 1.91667,1.91667c0,1.05855 -0.85812,1.91667 -1.91667,1.91667z" stroke-width="0.5"/></g><g fill="#000000" stroke="#000000"><path d="M168.45751,189.02879v-23.73943h23.73944v23.73943z" stroke-width="0" stroke-linecap="butt"/><path d="M170.90373,186.54661v-18.81344h18.81345v18.81344z" stroke-width="3" stroke-linecap="butt"/><path d="M172.96808,184.35373v-14.60888h14.60888v14.60888z" stroke-width="0" stroke-linecap="butt"/><path d="M174.96332,182.42645l10.99048,-10.99048" stroke-width="5" stroke-linecap="round"/><path d="M174.32561,169.43182v14.89533" stroke-width="1" stroke-linecap="round"/><path d="M175.92901,169.38005v15.51596" stroke-width="1" stroke-linecap="round"/><path d="M177.5323,169.53524v15.3091" stroke-width="1" stroke-linecap="round"/><path d="M179.29072,184.58584v-15.20566" stroke-width="1" stroke-linecap="round"/><path d="M180.94576,169.2767v15.51597" stroke-width="1" stroke-linecap="round"/><path d="M182.75595,169.22486v15.1022" stroke-width="1" stroke-linecap="round"/><path d="M184.46269,169.22489v15.46427" stroke-width="1" stroke-linecap="round"/><path d="M186.2212,184.8445v-15.36082" stroke-width="1" stroke-linecap="round"/><path d="M187.91514,169.40685l-15.52194,15.52194" stroke-width="3" stroke-linecap="round"/><path d="M172.35947,184.89484v-15.75867h15.75866v15.75867z" stroke-width="1.25" stroke-linecap="butt"/></g><g data-paper-data="{&quot;index&quot;:null}" fill="#000000"><path d="M386.77708,351.85492" data-paper-data="{&quot;index&quot;:null}" stroke="#131313" stroke-width="1.5" stroke-linecap="round"/><path d="M386.70008,345.31647" data-paper-data="{&quot;index&quot;:null}" stroke="#131313" stroke-width="1.5" stroke-linecap="round"/><path d="M386.78444,351.82383v-6.5h20.29246v6.5z" data-paper-data="{&quot;index&quot;:null}" stroke="#000000" stroke-width="2" stroke-linecap="butt"/><path d="" data-paper-data="{&quot;index&quot;:null}" stroke="#000000" stroke-width="2" stroke-linecap="butt"/><g data-paper-data="{&quot;index&quot;:null}" stroke="#000000" stroke-linecap="butt"><g stroke-width="2.5"><path d="M405.83107,356.53113v-16h4v16z"/><path d="M415.83107,350.65613h-16v-4h16z"/><g><path d="M411.94868,355.47714l-11.31371,-11.31371l2.82843,-2.82843l11.31371,11.31371z"/><path d="M414.86546,344.25189l-11.3137,11.3137l-2.82843,-2.82842l11.31371,-11.31371z"/></g></g><g stroke-width="0"><path d="M405.70607,356.65613v-16h4v16z"/><path d="M415.70607,350.78111h-16v-4h16z"/><g><path d="M411.82368,355.60214l-11.31371,-11.31371l2.82843,-2.82843l11.31371,11.31371z"/><path d="M414.74046,344.37689l-11.3137,11.3137l-2.82843,-2.82842l11.31371,-11.31371z"/></g></g><g stroke-width="0"><path d="M406.33939,353.71439v-10.2h2.55v10.2z"/><path d="M412.7144,349.96916h-10.2v-2.55h10.2z"/><g><path d="M410.23939,353.04254l-7.21249,-7.21249l1.80312,-1.80312l7.21249,7.21249z"/><path d="M412.09885,345.88638l-7.21249,7.21249l-1.80312,-1.80312l7.21249,-7.21249z"/></g></g><path d="M405.68319,348.65747c0,-1.05855 0.85812,-1.91667 1.91667,-1.91667c1.05855,0 1.91667,0.85812 1.91667,1.91667c0,1.05855 -0.85812,1.91667 -1.91667,1.91667c-1.05855,0 -1.91667,-0.85812 -1.91667,-1.91667z" stroke-width="0.5"/></g></g><path d="M137.16482,78.50827v-10h25v10z" fill="#000000" stroke="#000000" stroke-width="2.5" stroke-linecap="butt"/></g></g></svg>