<svg version="1.1" xmlns="http://www.w3.org/2000/svg" xmlns:xlink="http://www.w3.org/1999/xlink" width="51.30507" height="69.33313" viewBox="0,0,51.30507,69.33313"><defs><linearGradient x1="247.01519" y1="189.24363" x2="247.01519" y2="194.43455" gradientUnits="userSpaceOnUse" id="color-1"><stop offset="0" stop-color="#1a1a1a"/><stop offset="1" stop-color="#121212"/></linearGradient><linearGradient x1="235.82422" y1="189.3717" x2="235.82422" y2="194.56262" gradientUnits="userSpaceOnUse" id="color-2"><stop offset="0" stop-color="#1a1a1a"/><stop offset="1" stop-color="#121212"/></linearGradient><radialGradient cx="243.08762" cy="144.4614" r="2.29919" gradientUnits="userSpaceOnUse" id="color-3"><stop offset="0" stop-color="#ffffff"/><stop offset="1" stop-color="#ffffff" stop-opacity="0"/></radialGradient><radialGradient cx="237.74599" cy="145.00525" r="2.29919" gradientUnits="userSpaceOnUse" id="color-4"><stop offset="0" stop-color="#ffffff"/><stop offset="1" stop-color="#ffffff" stop-opacity="0"/></radialGradient></defs><g transform="translate(-218.7579,-131.17742)"><g data-paper-data="{&quot;isPaintingLayer&quot;:true}" fill-rule="nonzero" stroke-linejoin="miter" stroke-miterlimit="10" stroke-dasharray="" stroke-dashoffset="0" style="mix-blend-mode: normal"><g fill="none" stroke-linecap="round"><path d="M250.66401,133.2315l-25.73594,54.39369l1.61448,-11.16506l3.70311,-0.43099" stroke="#000000" stroke-width="4"/><path d="M250.50956,133.65119l-25.73594,54.39371l1.61448,-11.16507l3.70313,-0.43098" stroke="#4e4e4e" stroke-width="1.5"/></g><path d="M246.85592,145.53726c0,4.18376 -2.90708,7.57536 -6.49316,7.57536c-3.58607,0 -6.49317,-3.3916 -6.49317,-7.57536c0,-4.18376 2.90709,-7.57536 6.49317,-7.57536c3.58607,0 6.49316,3.3916 6.49316,7.57536z" fill="#000000" stroke="#000000" stroke-width="0" stroke-linecap="butt"/><path d="M242.45066,158.04473c0.06683,-1.05975 6.18204,1.0404 11.29695,1.995c4.4545,0.83132 4.43662,0.41098 5.24433,0.6746c0.53302,0.17397 0.31896,0.92893 -0.18241,2.37385c-0.54765,1.57825 -1.09488,1.8883 -1.37877,2.11428c-0.57282,0.45602 -9.84885,-1.60459 -14.26166,-3.7221c-1.99025,-0.95504 -0.73899,-3.11012 -0.71845,-3.43561z" data-paper-data="{&quot;index&quot;:null}" fill="#201a0c" stroke="#000000" stroke-width="1.5" stroke-linecap="butt"/><path d="M220.2811,186.02538l9.96439,-25.28346c0,0 12.47394,-4.07547 15.88219,-4.03654c1.57382,0.01797 2.74727,4.26078 2.74727,4.26078l-3.34278,25.98184c0,0 -5.03014,1.70486 -10.26577,1.53249c-5.30491,-0.17464 -10.76394,-0.44492 -10.76394,-0.44492z" fill="#0c0c0c" stroke="#000000" stroke-width="1.5" stroke-linecap="butt"/><path d="M239.95955,171.93375c0.27148,-1.62808 3.2542,-1.05294 3.64718,-1.1189c1.66576,-0.27963 5.43371,17.82651 5.43371,17.82651c0,0 -2.01272,0.99767 -3.67847,1.27729c-1.66576,0.27963 -3.91547,-0.13451 -3.91547,-0.13451c0,0 -2.36625,-12.57729 -1.48696,-17.85039z" data-paper-data="{&quot;index&quot;:null}" fill="#201a0c" stroke="#000000" stroke-width="1.5" stroke-linecap="butt"/><path d="M242.28741,190.39515c1.5179,-0.73022 4.95678,-1.1515 6.68164,-1.1515c2.96339,0 3.47193,1.62762 3.47193,2.99326c0,1.36563 -1.88334,2.12671 -4.84673,2.12671c-2.96339,0 -5.88466,0.44983 -5.88466,-0.91578c0,-0.57076 -0.51209,-2.52833 0.57783,-3.05267z" data-paper-data="{&quot;index&quot;:null}" fill="url(#color-1)" stroke="#000000" stroke-width="1.5" stroke-linecap="butt"/><path d="M234.59386,172.90489c0.71447,-1.48791 3.41872,-0.10427 3.8145,-0.0581c1.67769,0.19571 0.25017,18.63457 0.25017,18.63457c0,0 -2.21102,0.3972 -3.88871,0.2015c-1.67769,-0.19571 -3.72283,-1.22043 -3.72283,-1.22043c0,0 1.2328,-12.73843 3.54688,-17.55754z" data-paper-data="{&quot;index&quot;:null}" fill="#201a0c" stroke="#000000" stroke-width="1.5" stroke-linecap="butt"/><path d="M237.77808,189.3717c2.96339,0 3.47193,1.62762 3.47193,2.99326c0,1.36563 -1.88334,2.12671 -4.84673,2.12671c-2.96339,0 -5.88466,0.44983 -5.88466,-0.91578c0,-0.57076 -0.51208,-2.52833 0.57784,-3.05267c0,0 4.95677,-1.1515 6.68164,-1.1515z" data-paper-data="{&quot;index&quot;:null}" fill="url(#color-2)" stroke="#000000" stroke-width="1.5" stroke-linecap="butt"/><path d="M231.52486,175.04541c0.4274,-1.59317 1.36567,-3.27352 1.72775,-4.94534c0.40574,-1.87337 -0.00519,-4.05009 0.36981,-5.90315c1.35722,-6.70662 2.78096,-12.58308 6.20966,-12.58308c3.37266,0 4.70471,5.82717 6.28175,12.43682c0.40718,1.70654 0.17996,3.9858 0.65914,5.70984c0.42946,1.54515 1.35186,3.72762 1.71894,5.18437c1.39303,5.52821 2.67581,9.45572 2.67581,9.45572c0,0 0.68879,0.53831 -1.97649,0.83638c-1.16265,0.13002 -1.53769,0.26022 -3.1038,0.3501c-0.80134,0.04599 -2.03418,-13.45356 -2.97954,-13.43699c-0.42862,0.00752 -0.31051,13.84078 -0.76952,13.84078c-1.80764,0 -6.21249,0.15252 -7.43619,0.07748c-2.79396,-0.17135 -5.75505,-1.53762 -5.75505,-1.53762c0,0 0.9804,-4.27673 2.37772,-9.48531z" fill="#201a0c" stroke="#000000" stroke-width="1.5" stroke-linecap="butt"/><path d="M246.27467,139.15108c0.00808,-0.97138 0.80209,-1.75228 1.77348,-1.74421c0.97139,0.00808 1.75228,0.8021 1.74421,1.77348c-0.00808,0.97138 -0.80209,1.75228 -1.77348,1.74421c-0.97139,-0.00808 -1.75228,-0.80209 -1.74421,-1.77348z" fill="#000000" stroke="none" stroke-width="0.5" stroke-linecap="butt"/><path d="M236.23334,156.18933l1.97386,-1.02063c0,0 2.33046,3.72633 3.74782,5.42984c1.50643,1.81056 4.29612,4.45887 4.29612,4.45887l0.29737,2.2847c0,0 -4.51771,-3.20913 -6.07134,-5.05092c-1.57877,-1.87161 -4.24385,-6.10187 -4.24385,-6.10187z" fill="#4e4e4e" stroke="#000000" stroke-width="1.25" stroke-linecap="butt"/><path d="M232.57122,171.50759l0.47789,-2.86312c0,0 4.35503,0.78085 6.57108,0.78085c2.3553,0 7.16845,-0.78085 7.16845,-0.78085l0.35842,2.73297c0,0 -4.76141,0.9535 -7.1709,0.97501c-2.4485,0.02185 -7.40494,-0.84487 -7.40494,-0.84487z" fill="#141008" stroke="#000000" stroke-width="2" stroke-linecap="butt"/><path d="M245.64413,157.78757c-1.48006,-1.29194 -3.58227,-2.23569 -3.58227,-2.23569l-1.64672,2.12971c0,0 -0.47936,1.21424 -3.59011,4.6349c-1.83053,2.0129 -5.72487,1.11412 -5.72487,1.11412c0,0 -2.19785,6.4886 -2.73801,8.93654c-1.78458,8.08751 -0.06484,13.0437 -4.06529,20.29553c-0.49663,0.90026 -5.2422,-4.37054 -4.75374,-6.4145c0.66377,-2.77757 6.71482,-22.67983 10.69357,-29.50525c0.77157,-1.32359 2.55927,-1.88731 2.90811,-2.46031c0.44215,-0.3453 -3.46439,-3.44683 -3.0256,-3.61328c0.02083,-0.0079 -2.16118,-7.99843 -0.18882,-11.49602c3.13405,-5.55759 10.28627,-7.09365 10.28627,-7.09365c0,0 0.13147,0.92464 0.10744,2.11597c-0.02138,1.05973 0.06376,3.91551 0.06376,3.91551c0,0 -5.78107,2.69047 -5.83449,6.61931c-0.05343,3.92885 3.0874,8.06927 7.01843,7.05528c3.29952,-0.85109 4.10793,-3.34258 4.13644,-7.65554c0.02851,-4.31296 -5.23401,-6.13359 -5.23401,-6.13359l-0.22767,-3.72826l0.33159,-2.20023c0,0 3.60598,0.69213 5.39932,2.07665c1.79333,1.38452 2.43395,2.7753 3.01137,5.41774c0.60339,2.76131 -0.01088,5.93541 -0.41865,7.95255c-0.79798,3.94745 -2.60118,5.1291 -2.03214,6.06928c2.01134,3.32316 2.81226,6.64614 2.90672,7.84332c0.00481,0.06104 -2.32054,-2.34811 -3.8006,-3.64004z" fill="#0f0f0f" stroke="#000000" stroke-width="1.5" stroke-linecap="butt"/><path d="M241.82478,136.36877l-3.14911,-0.12112" fill="none" stroke="#000000" stroke-width="1.5" stroke-linecap="round"/><path d="M238.62413,134.40666h3.36629" fill="none" stroke="#000000" stroke-width="1.5" stroke-linecap="round"/><path d="M261.81151,163.4697c-0.18579,1.51012 -1.55188,2.60219 -3.05127,2.43921c-1.49939,-0.163 -2.56427,-1.51933 -2.37848,-3.02947c0.18579,-1.51012 1.55188,-2.60219 3.05127,-2.43921c1.49939,0.163 2.56427,1.51933 2.37848,3.02947z" fill="#000000" stroke="#000000" stroke-width="1.5" stroke-linecap="butt"/><g><path d="M251.48947,169.1118c0,0 0.81899,0.95216 -0.2148,1.70991c-0.96893,0.71022 -1.68281,-0.25012 -1.68281,-0.25012z" fill="none" stroke="#000000" stroke-width="0.5" stroke-linecap="butt"/><path d="M250.68968,170.33498c0,0 -0.22643,0.01458 -0.39222,0.0015c-0.16281,-0.01284 -0.3965,-0.22734 -0.3965,-0.22734" fill="none" stroke="#8d8d8d" stroke-width="0.375" stroke-linecap="round"/><path d="M264.19518,158.85813l-3.02211,-0.19134" fill="none" stroke="#000000" stroke-width="1" stroke-linecap="round"/><path d="M249.83947,169.93146l-3.4216,-0.21665" fill="none" stroke="#000000" stroke-width="1" stroke-linecap="round"/><path d="M247.92751,168.5049l3.45269,0.2186" fill="none" stroke="#000000" stroke-width="1" stroke-linecap="round"/><path d="M263.00484,159.79587l-3.09316,-0.19585" fill="none" stroke="#000000" stroke-width="1" stroke-linecap="round"/><path d="M244.53903,179.64781c-1.91109,1.0449 -3.4489,-1.4983 -4.88173,-2.56362c2.21366,-2.61381 1.74335,-2.90944 4.05061,-4.02504c1.17497,-0.56813 1.49484,-2.48629 1.49484,-2.48629l23.28446,-17.48034l0.69066,2.39022c0,0 -15.6122,11.86923 -20.5326,15.56311c-0.36526,0.27422 0.97819,1.79282 0.23244,2.35268c-0.83177,0.62444 -2.59447,0.03548 -2.59447,0.03548z" fill="#382918" stroke="#000000" stroke-width="0.5" stroke-linecap="butt"/><path d="M243.08976,173.21028c-0.34393,0.20229 -0.51695,0.12068 -0.97692,0.64272c-0.97828,1.11022 -2.58501,3.18177 -2.58292,3.06916c0.00364,-0.19707 -0.13185,-1.51374 -0.1109,-1.55085c0.45346,-0.80401 1.7538,-2.0665 2.21082,-2.72909c0.09052,-0.13122 0.51123,-0.47627 0.92025,-0.58821c0.46043,-0.12601 0.74193,-0.35729 0.94598,-0.50086c0.31862,-0.22416 0.40412,-0.66398 0.50652,-0.94244c0.24192,-0.65781 0.96024,-1.52659 0.96024,-1.52659l20.00966,-15.02185l0.10743,1.40907c0,0 -17.13421,12.86317 -19.8065,14.86933c-0.27832,0.20895 -0.29882,0.78559 -0.54357,1.28543c-0.28848,0.58908 -0.76503,1.12918 -0.76503,1.12918c0,0 -0.49706,0.23271 -0.87504,0.455z" fill="#5a370b" stroke="#000000" stroke-width="0.5" stroke-linecap="butt"/><path d="M267.11087,163.12312c0,0 -3.59118,0.78066 -10.40074,2.67206c-7.41274,1.37252 -7.69218,1.0442 -7.8393,0.72592c-0.30755,-0.48876 0.85496,-1.98942 4.68622,-6.67964c3.97497,-4.56929 6.3324,-7.20647 6.3324,-7.20647" fill="none" stroke="#000000" stroke-width="1" stroke-linecap="round"/><path d="M267.80379,163.65345c0,0 -1.17739,-6.20735 -4.30863,-8.84341c-1.91412,-1.61143 -4.21303,-2.54141 -4.21303,-2.54141c0,0 2.07521,-1.83218 2.10344,-1.85077c0.08851,-0.05822 3.138,0.6603 5.3946,3.44007c3.27849,4.70147 2.95238,8.24915 2.95238,8.24915z" fill="#382918" stroke="#000000" stroke-width="0.5" stroke-linecap="butt"/><path d="M265.71337,162.36256c0,0 -0.50859,-5.56833 -3.23624,-7.78946c-1.66743,-1.35778 -3.51697,-2.39244 -3.51697,-2.39244c0,0 0.4764,-0.87452 0.86589,-1.1592c0.37556,-0.27448 1.42436,-0.66995 1.42436,-0.66995c0,0 3.05993,1.86319 4.69947,3.98969c2.12692,2.52688 2.17709,6.35785 2.17709,6.35785c0,0 -0.34722,1.14831 -0.73239,1.41379c-0.41685,0.28731 -1.68121,0.24972 -1.68121,0.24972z" fill="#5a370b" stroke="#000000" stroke-width="0.5" stroke-linecap="butt"/><path d="M268.38864,163.38639c-0.34004,0.23039 -1.0436,0.30408 -1.0436,0.30408l-1.39238,-1.12154c0,0 1.09265,-0.36537 1.51372,-0.66709c0.39205,-0.28092 0.93182,-1.08525 0.93182,-1.08525l1.31827,1.26723c0,0 -0.89843,1.01169 -1.32782,1.30259z" fill="#382918" stroke="#000000" stroke-width="0.5" stroke-linecap="round"/><path d="M262.75376,155.76615l4.88134,-3.66457c0,0 0.4191,0.18379 0.55516,0.30308c0.16088,0.14101 0.08869,0.6836 0.08869,0.6836l-4.71018,3.53607" fill="#5a370b" stroke="#000000" stroke-width="0.5" stroke-linecap="round"/><path d="M245.11908,168.45449c0,0 1.06804,-1.08777 1.67436,-1.54295c0.61123,-0.45887 1.9784,-1.19928 1.9784,-1.19928l0.54214,0.72214c0,0 -1.32458,0.9944 -1.95297,1.46615c-0.58627,0.44012 -1.6998,1.27608 -1.6998,1.27608z" fill="#484848" stroke="#000000" stroke-width="0.5" stroke-linecap="butt"/></g><path d="M246.7376,170.47532c0.16016,1.51908 -0.92756,2.86493 -2.42953,3.00604c-1.50196,0.14111 -2.84938,-0.97595 -3.00955,-2.49504c-0.16016,-1.51908 0.92757,-2.86492 2.42953,-3.00604c1.50196,-0.14111 2.84937,0.97595 3.00954,2.49503z" fill="#000000" stroke="#000000" stroke-width="1.5" stroke-linecap="butt"/><path d="M232.59183,168.51257c-0.88233,-1.73736 -1.49145,-4.43844 -0.83024,-4.77792c0.48693,-0.25 1.37966,0.11827 2.35012,0.10266c0.56344,-0.00907 1.15307,-0.40746 1.70472,-0.45364c0.91796,-0.44662 0.02238,-1.23789 1.3521,2.42099c2.84039,3.11068 5.92674,1.64912 6.38836,2.3762c0,0 0.01061,1.69957 -0.27548,2.48199c-0.33356,0.91228 -0.40477,1.46981 -0.66105,1.85329c-4.28473,0.5853 -7.98464,0.02094 -10.02851,-4.00358z" fill="#201a0c" stroke="#000000" stroke-width="1.5" stroke-linecap="butt"/><path d="M239.68638,155.41228c0,0 -2.40201,-0.03863 -3.54517,-0.26279c-1.15635,-0.22673 -3.35381,-1.08995 -3.35381,-1.08995" fill="none" stroke="#000000" stroke-width="1.5" stroke-linecap="round"/><path d="M244.01516,155.00646l2.02912,-1.75857" fill="none" stroke="#000000" stroke-width="1.5" stroke-linecap="round"/><path d="M240.18663,153.18725c1.11881,-1.497 1.57622,-1.62138 3.07322,-0.50258c1.497,1.11881 1.54027,1.82097 0.42145,3.31798c-1.11881,1.497 -1.83748,1.42613 -3.33448,0.30732c-1.497,-1.11881 -1.279,-1.62573 -0.16019,-3.12272z" fill="#4e4e4e" stroke="#000000" stroke-width="1.5" stroke-linecap="butt"/><g stroke="none" stroke-width="0" stroke-linecap="butt"><path d="M241.89462,144.47463c0,-0.61568 0.49911,-1.1148 1.1148,-1.1148c0.61568,0 1.1148,0.49911 1.1148,1.1148c0,0.61568 -0.49911,1.1148 -1.1148,1.1148c-0.61568,0 -1.1148,-0.4991 -1.1148,-1.1148z" fill="#ffffff"/><path d="M240.78842,144.4614c0,-1.26982 1.02939,-2.29919 2.29919,-2.29919c1.26981,0 2.29919,1.02939 2.29919,2.29919c0,1.26982 -1.02939,2.29919 -2.29919,2.29919c-1.26981,0 -2.29919,-1.02939 -2.29919,-2.29919z" fill="url(#color-3)"/></g><g stroke="none" stroke-width="0" stroke-linecap="butt"><path d="M236.55299,145.01848c0,-0.61569 0.49911,-1.1148 1.1148,-1.1148c0.61569,0 1.11479,0.49911 1.11479,1.1148c0,0.61569 -0.49911,1.1148 -1.11479,1.1148c-0.61569,0 -1.1148,-0.4991 -1.1148,-1.1148z" fill="#ffffff"/><path d="M235.4468,145.00525c0,-1.26982 1.02938,-2.29919 2.29918,-2.29919c1.26981,0 2.29919,1.02939 2.29919,2.29919c0,1.26982 -1.02939,2.29919 -2.29919,2.29919c-1.26981,0 -2.29918,-1.02939 -2.29918,-2.29919z" fill="url(#color-4)"/></g></g></g></svg>