<svg version="1.1" xmlns="http://www.w3.org/2000/svg" xmlns:xlink="http://www.w3.org/1999/xlink" width="339.58077" height="305.68858" viewBox="0,0,339.58077,305.68858"><defs><linearGradient x1="384.55478" y1="327.28608" x2="384.55478" y2="334.22132" gradientUnits="userSpaceOnUse" id="color-1"><stop offset="0" stop-color="#810000"/><stop offset="1" stop-color="#000000"/></linearGradient><linearGradient x1="375.19802" y1="327.33368" x2="375.19802" y2="334.26894" gradientUnits="userSpaceOnUse" id="color-2"><stop offset="0" stop-color="#810000"/><stop offset="1" stop-color="#000000"/></linearGradient><linearGradient x1="365.84125" y1="327.33368" x2="365.84125" y2="334.26894" gradientUnits="userSpaceOnUse" id="color-3"><stop offset="0" stop-color="#810000"/><stop offset="1" stop-color="#000000"/></linearGradient><linearGradient x1="356.48447" y1="327.38133" x2="356.48447" y2="334.31658" gradientUnits="userSpaceOnUse" id="color-4"><stop offset="0" stop-color="#810000"/><stop offset="1" stop-color="#000000"/></linearGradient><linearGradient x1="346.82363" y1="327.53332" x2="346.82363" y2="334.46859" gradientUnits="userSpaceOnUse" id="color-5"><stop offset="0" stop-color="#810000"/><stop offset="1" stop-color="#000000"/></linearGradient><linearGradient x1="336.88811" y1="327.70274" x2="336.88811" y2="334.63799" gradientUnits="userSpaceOnUse" id="color-6"><stop offset="0" stop-color="#810000"/><stop offset="1" stop-color="#000000"/></linearGradient><linearGradient x1="327.53135" y1="327.75035" x2="327.53135" y2="334.68561" gradientUnits="userSpaceOnUse" id="color-7"><stop offset="0" stop-color="#810000"/><stop offset="1" stop-color="#000000"/></linearGradient><linearGradient x1="318.17458" y1="327.75035" x2="318.17458" y2="334.68561" gradientUnits="userSpaceOnUse" id="color-8"><stop offset="0" stop-color="#810000"/><stop offset="1" stop-color="#000000"/></linearGradient><linearGradient x1="308.8178" y1="327.79799" x2="308.8178" y2="334.73323" gradientUnits="userSpaceOnUse" id="color-9"><stop offset="0" stop-color="#810000"/><stop offset="1" stop-color="#000000"/></linearGradient><linearGradient x1="299.15696" y1="327.94999" x2="299.15696" y2="334.88525" gradientUnits="userSpaceOnUse" id="color-10"><stop offset="0" stop-color="#810000"/><stop offset="1" stop-color="#000000"/></linearGradient><linearGradient x1="289.65697" y1="328.11665" x2="289.65697" y2="335.05193" gradientUnits="userSpaceOnUse" id="color-11"><stop offset="0" stop-color="#810000"/><stop offset="1" stop-color="#000000"/></linearGradient><linearGradient x1="427.86293" y1="98.36084" x2="435.03851" y2="98.36084" gradientUnits="userSpaceOnUse" id="color-12"><stop offset="0" stop-color="#000000"/><stop offset="1" stop-color="#000000"/></linearGradient><linearGradient x1="427.7554" y1="110.27822" x2="434.93098" y2="110.27822" gradientUnits="userSpaceOnUse" id="color-13"><stop offset="0" stop-color="#000000"/><stop offset="1" stop-color="#000000"/></linearGradient><linearGradient x1="427.17584" y1="73.76504" x2="434.35142" y2="73.76504" gradientUnits="userSpaceOnUse" id="color-14"><stop offset="0" stop-color="#000000"/><stop offset="1" stop-color="#000000"/></linearGradient><linearGradient x1="427.768" y1="85.68242" x2="434.94358" y2="85.68242" gradientUnits="userSpaceOnUse" id="color-15"><stop offset="0" stop-color="#000000"/><stop offset="1" stop-color="#000000"/></linearGradient><linearGradient x1="427.51309" y1="62.36084" x2="434.68867" y2="62.36084" gradientUnits="userSpaceOnUse" id="color-16"><stop offset="0" stop-color="#000000"/><stop offset="1" stop-color="#000000"/></linearGradient><linearGradient x1="427.66715" y1="38.09836" x2="434.84273" y2="38.09836" gradientUnits="userSpaceOnUse" id="color-17"><stop offset="0" stop-color="#000000"/><stop offset="1" stop-color="#000000"/></linearGradient><linearGradient x1="427.18494" y1="49.68242" x2="434.36052" y2="49.68242" gradientUnits="userSpaceOnUse" id="color-18"><stop offset="0" stop-color="#000000"/><stop offset="1" stop-color="#000000"/></linearGradient><linearGradient x1="244.52059" y1="108.54303" x2="240.65288" y2="108.54302" gradientUnits="userSpaceOnUse" id="color-19"><stop offset="0" stop-color="#c1c1c1"/><stop offset="1" stop-color="#1a1a1a"/></linearGradient><linearGradient x1="246.19755" y1="105.61584" x2="246.19755" y2="111.55308" gradientUnits="userSpaceOnUse" id="color-20"><stop offset="0" stop-color="#c1c1c1"/><stop offset="1" stop-color="#191919"/></linearGradient><linearGradient x1="244.52059" y1="115.78013" x2="240.65288" y2="115.78013" gradientUnits="userSpaceOnUse" id="color-21"><stop offset="0" stop-color="#c1c1c1"/><stop offset="1" stop-color="#1a1a1a"/></linearGradient><linearGradient x1="246.19755" y1="112.85293" x2="246.19755" y2="118.79018" gradientUnits="userSpaceOnUse" id="color-22"><stop offset="0" stop-color="#c1c1c1"/><stop offset="1" stop-color="#191919"/></linearGradient><linearGradient x1="244.52059" y1="93.54302" x2="240.65287" y2="93.54303" gradientUnits="userSpaceOnUse" id="color-23"><stop offset="0" stop-color="#c1c1c1"/><stop offset="1" stop-color="#1a1a1a"/></linearGradient><linearGradient x1="246.19755" y1="90.61583" x2="246.19755" y2="96.55308" gradientUnits="userSpaceOnUse" id="color-24"><stop offset="0" stop-color="#c1c1c1"/><stop offset="1" stop-color="#191919"/></linearGradient><linearGradient x1="244.52059" y1="100.78014" x2="240.65287" y2="100.78014" gradientUnits="userSpaceOnUse" id="color-25"><stop offset="0" stop-color="#c1c1c1"/><stop offset="1" stop-color="#1a1a1a"/></linearGradient><linearGradient x1="246.19755" y1="97.85293" x2="246.19755" y2="103.79017" gradientUnits="userSpaceOnUse" id="color-26"><stop offset="0" stop-color="#c1c1c1"/><stop offset="1" stop-color="#191919"/></linearGradient><linearGradient x1="244.52059" y1="138.20969" x2="240.65287" y2="138.20968" gradientUnits="userSpaceOnUse" id="color-27"><stop offset="0" stop-color="#c1c1c1"/><stop offset="1" stop-color="#1a1a1a"/></linearGradient><linearGradient x1="246.19755" y1="135.2825" x2="246.19755" y2="141.21973" gradientUnits="userSpaceOnUse" id="color-28"><stop offset="0" stop-color="#c1c1c1"/><stop offset="1" stop-color="#191919"/></linearGradient><linearGradient x1="244.52059" y1="145.44679" x2="240.65287" y2="145.44679" gradientUnits="userSpaceOnUse" id="color-29"><stop offset="0" stop-color="#c1c1c1"/><stop offset="1" stop-color="#1a1a1a"/></linearGradient><linearGradient x1="246.19755" y1="142.51959" x2="246.19755" y2="148.45684" gradientUnits="userSpaceOnUse" id="color-30"><stop offset="0" stop-color="#c1c1c1"/><stop offset="1" stop-color="#191919"/></linearGradient><linearGradient x1="244.52059" y1="123.20969" x2="240.65287" y2="123.20969" gradientUnits="userSpaceOnUse" id="color-31"><stop offset="0" stop-color="#c1c1c1"/><stop offset="1" stop-color="#1a1a1a"/></linearGradient><linearGradient x1="246.19755" y1="120.2825" x2="246.19755" y2="126.21975" gradientUnits="userSpaceOnUse" id="color-32"><stop offset="0" stop-color="#c1c1c1"/><stop offset="1" stop-color="#191919"/></linearGradient><linearGradient x1="244.52059" y1="130.44681" x2="240.65287" y2="130.4468" gradientUnits="userSpaceOnUse" id="color-33"><stop offset="0" stop-color="#c1c1c1"/><stop offset="1" stop-color="#1a1a1a"/></linearGradient><linearGradient x1="246.19755" y1="127.51961" x2="246.19755" y2="133.45684" gradientUnits="userSpaceOnUse" id="color-34"><stop offset="0" stop-color="#c1c1c1"/><stop offset="1" stop-color="#191919"/></linearGradient><linearGradient x1="244.52059" y1="160.87634" x2="240.65287" y2="160.87634" gradientUnits="userSpaceOnUse" id="color-35"><stop offset="0" stop-color="#c1c1c1"/><stop offset="1" stop-color="#1a1a1a"/></linearGradient><linearGradient x1="246.19754" y1="157.94915" x2="246.19754" y2="163.88641" gradientUnits="userSpaceOnUse" id="color-36"><stop offset="0" stop-color="#c1c1c1"/><stop offset="1" stop-color="#191919"/></linearGradient><linearGradient x1="244.52059" y1="153.11345" x2="240.65287" y2="153.11345" gradientUnits="userSpaceOnUse" id="color-37"><stop offset="0" stop-color="#c1c1c1"/><stop offset="1" stop-color="#1a1a1a"/></linearGradient><linearGradient x1="246.19754" y1="150.18625" x2="246.19754" y2="156.12351" gradientUnits="userSpaceOnUse" id="color-38"><stop offset="0" stop-color="#c1c1c1"/><stop offset="1" stop-color="#191919"/></linearGradient><linearGradient x1="360.43695" y1="228.82785" x2="362.00862" y2="225.29386" gradientUnits="userSpaceOnUse" id="color-39"><stop offset="0" stop-color="#c1c1c1"/><stop offset="1" stop-color="#1a1a1a"/></linearGradient><linearGradient x1="362.43014" y1="231.5496" x2="357.00518" y2="229.13697" gradientUnits="userSpaceOnUse" id="color-40"><stop offset="0" stop-color="#c1c1c1"/><stop offset="1" stop-color="#191919"/></linearGradient><linearGradient x1="346.33873" y1="222.55797" x2="347.9104" y2="219.02398" gradientUnits="userSpaceOnUse" id="color-41"><stop offset="0" stop-color="#c1c1c1"/><stop offset="1" stop-color="#1a1a1a"/></linearGradient><linearGradient x1="348.33191" y1="225.27971" x2="342.90695" y2="222.86708" gradientUnits="userSpaceOnUse" id="color-42"><stop offset="0" stop-color="#c1c1c1"/><stop offset="1" stop-color="#191919"/></linearGradient><linearGradient x1="353.4318" y1="225.71246" x2="355.00347" y2="222.17847" gradientUnits="userSpaceOnUse" id="color-43"><stop offset="0" stop-color="#c1c1c1"/><stop offset="1" stop-color="#1a1a1a"/></linearGradient><linearGradient x1="355.42499" y1="228.4342" x2="350.00003" y2="226.02157" gradientUnits="userSpaceOnUse" id="color-44"><stop offset="0" stop-color="#c1c1c1"/><stop offset="1" stop-color="#191919"/></linearGradient><linearGradient x1="312.12271" y1="193.01574" x2="301.86717" y2="193.01574" gradientUnits="userSpaceOnUse" id="color-45"><stop offset="0" stop-color="#000000"/><stop offset="1" stop-color="#000000"/></linearGradient><linearGradient x1="311.94306" y1="181.09836" x2="301.68751" y2="181.09836" gradientUnits="userSpaceOnUse" id="color-46"><stop offset="0" stop-color="#000000"/><stop offset="1" stop-color="#000000"/></linearGradient><linearGradient x1="312.25838" y1="205.69416" x2="302.00284" y2="205.69416" gradientUnits="userSpaceOnUse" id="color-47"><stop offset="0" stop-color="#000000"/><stop offset="1" stop-color="#000000"/></linearGradient><linearGradient x1="99.22476" y1="127.32898" x2="99.22477" y2="132.00811" gradientUnits="userSpaceOnUse" id="color-48"><stop offset="0" stop-color="#c1c1c1"/><stop offset="1" stop-color="#1a1a1a"/></linearGradient><linearGradient x1="95.72016" y1="125.54216" x2="102.82852" y2="125.54216" gradientUnits="userSpaceOnUse" id="color-49"><stop offset="0" stop-color="#c1c1c1"/><stop offset="1" stop-color="#191919"/></linearGradient></defs><g transform="translate(-95.119,-29.72687)"><g data-paper-data="{&quot;isPaintingLayer&quot;:true}" fill-rule="nonzero" stroke-linejoin="miter" stroke-miterlimit="10" stroke-dasharray="" stroke-dashoffset="0" style="mix-blend-mode: normal"><path d="M380.78936,331.08555l3.85482,-3.79948l3.67603,3.75976c0,0 -2.14485,-0.02232 -2.40957,1.76434c-0.14743,0.99502 -0.2533,1.39978 -0.2533,1.39978c0,0 -1.75406,0.03889 -1.86296,-0.02712c-0.05234,-0.03173 -0.42846,-0.44361 -0.37445,-1.42393c0.08597,-1.56037 -2.63059,-1.67334 -2.63059,-1.67334z" fill="url(#color-1)" stroke="#000000" stroke-width="0.75" stroke-linecap="butt"/><path d="M371.43259,331.13317l3.85484,-3.79948l3.67603,3.75978c0,0 -2.14485,-0.02233 -2.40958,1.76434c-0.14744,0.99502 -0.2533,1.39978 -0.2533,1.39978c0,0 -1.75406,0.0389 -1.86296,-0.02712c-0.05234,-0.03173 -0.42845,-0.44361 -0.37445,-1.42393c0.08597,-1.56037 -2.63059,-1.67333 -2.63059,-1.67333z" fill="url(#color-2)" stroke="#000000" stroke-width="0.75" stroke-linecap="butt"/><path d="M362.07582,331.13317l3.85482,-3.79948l3.67603,3.75978c0,0 -2.14485,-0.02233 -2.40957,1.76434c-0.14744,0.99502 -0.25332,1.39978 -0.25332,1.39978c0,0 -1.75406,0.0389 -1.86296,-0.02712c-0.05234,-0.03173 -0.42845,-0.44361 -0.37444,-1.42393c0.08597,-1.56037 -2.63059,-1.67333 -2.63059,-1.67333z" fill="url(#color-3)" stroke="#000000" stroke-width="0.75" stroke-linecap="butt"/><path d="M352.71904,331.18079l3.85484,-3.79948l3.67603,3.75976c0,0 -2.14485,-0.02233 -2.40958,1.76434c-0.14744,0.99502 -0.25332,1.39978 -0.25332,1.39978c0,0 -1.75406,0.03888 -1.86296,-0.02713c-0.05234,-0.03173 -0.42845,-0.44361 -0.37445,-1.42394c0.08597,-1.56037 -2.63059,-1.67333 -2.63059,-1.67333z" fill="url(#color-4)" stroke="#000000" stroke-width="0.75" stroke-linecap="butt"/><path d="M343.05819,331.33279l3.85482,-3.79948l3.67604,3.75978c0,0 -2.14485,-0.02234 -2.40957,1.76433c-0.14744,0.99502 -0.25332,1.39978 -0.25332,1.39978c0,0 -1.75406,0.0389 -1.86296,-0.02712c-0.05234,-0.03173 -0.42845,-0.44361 -0.37444,-1.42394c0.08597,-1.56037 -2.63059,-1.67333 -2.63059,-1.67333z" fill="url(#color-5)" stroke="#000000" stroke-width="0.75" stroke-linecap="butt"/><path d="M333.12269,331.50221l3.85482,-3.79948l3.67603,3.75976c0,0 -2.14485,-0.02232 -2.40957,1.76434c-0.14743,0.99502 -0.2533,1.39978 -0.2533,1.39978c0,0 -1.75406,0.03889 -1.86296,-0.02712c-0.05234,-0.03173 -0.42846,-0.44361 -0.37445,-1.42393c0.08597,-1.56037 -2.63059,-1.67334 -2.63059,-1.67334z" fill="url(#color-6)" stroke="#000000" stroke-width="0.75" stroke-linecap="butt"/><path d="M323.76592,331.54983l3.85484,-3.79948l3.67603,3.75978c0,0 -2.14485,-0.02233 -2.40958,1.76434c-0.14744,0.99502 -0.2533,1.39978 -0.2533,1.39978c0,0 -1.75406,0.0389 -1.86296,-0.02712c-0.05234,-0.03173 -0.42845,-0.44361 -0.37445,-1.42393c0.08597,-1.56037 -2.63059,-1.67333 -2.63059,-1.67333z" fill="url(#color-7)" stroke="#000000" stroke-width="0.75" stroke-linecap="butt"/><path d="M314.40915,331.54983l3.85482,-3.79948l3.67603,3.75978c0,0 -2.14485,-0.02233 -2.40957,1.76434c-0.14744,0.99502 -0.25332,1.39978 -0.25332,1.39978c0,0 -1.75406,0.0389 -1.86296,-0.02712c-0.05234,-0.03173 -0.42845,-0.44361 -0.37444,-1.42393c0.08597,-1.56037 -2.63059,-1.67333 -2.63059,-1.67333z" fill="url(#color-8)" stroke="#000000" stroke-width="0.75" stroke-linecap="butt"/><path d="M305.05237,331.59745l3.85484,-3.79948l3.67603,3.75976c0,0 -2.14485,-0.02233 -2.40958,1.76434c-0.14744,0.99502 -0.25332,1.39978 -0.25332,1.39978c0,0 -1.75406,0.03888 -1.86296,-0.02713c-0.05234,-0.03173 -0.42845,-0.44361 -0.37445,-1.42394c0.08597,-1.56037 -2.63059,-1.67333 -2.63059,-1.67333z" fill="url(#color-9)" stroke="#000000" stroke-width="0.75" stroke-linecap="butt"/><path d="M295.39152,331.74947l3.85482,-3.79948l3.67604,3.75978c0,0 -2.14485,-0.02234 -2.40957,1.76433c-0.14744,0.99502 -0.25332,1.39978 -0.25332,1.39978c0,0 -1.75406,0.0389 -1.86296,-0.02712c-0.05234,-0.03173 -0.42845,-0.44361 -0.37444,-1.42394c0.08597,-1.56037 -2.63059,-1.67333 -2.63059,-1.67333z" fill="url(#color-10)" stroke="#000000" stroke-width="0.75" stroke-linecap="butt"/><path d="M285.89153,331.91614l3.85482,-3.79948l3.67604,3.75978c0,0 -2.14485,-0.02234 -2.40957,1.76433c-0.14744,0.99502 -0.25332,1.39978 -0.25332,1.39978c0,0 -1.75406,0.0389 -1.86296,-0.02712c-0.05234,-0.03173 -0.42845,-0.44361 -0.37444,-1.42394c0.08597,-1.56037 -2.63059,-1.67333 -2.63059,-1.67333z" fill="url(#color-11)" stroke="#000000" stroke-width="0.75" stroke-linecap="butt"/><path d="M434.07478,98.15714l-6.21185,0.15025l2.82963,-1.22703l-1.85723,1.80635l1.57689,-2.70448l-1.15639,3.60597l0.21025,-3.60597l0.63075,4.35721l-1.68201,-3.90647l2.10251,2.25372l-2.62814,-1.50249" fill="none" stroke="url(#color-12)" stroke-width="1.25" stroke-linecap="round"/><path d="M427.78168,111.25485l2.62814,-1.50249l-2.10251,2.25372l1.68201,-3.90647l-0.63075,4.35721l-0.21025,-3.60597l1.15639,3.60597l-1.57689,-2.70448l1.85723,1.80635l-2.82963,-1.22703l6.10709,0.15025" data-paper-data="{&quot;index&quot;:null}" fill="none" stroke="url(#color-13)" stroke-width="1.25" stroke-linecap="round"/><path d="M433.38769,73.56134l-6.21185,0.15025l2.82963,-1.22703l-1.85723,1.80635l1.57689,-2.70448l-1.15639,3.60597l0.21025,-3.60597l0.63075,4.35721l-1.68201,-3.90647l2.10251,2.25372l-2.62814,-1.50249" fill="none" stroke="url(#color-14)" stroke-width="1.25" stroke-linecap="round"/><path d="M427.79427,86.65905l2.62814,-1.50249l-2.10251,2.25372l1.68201,-3.90647l-0.63075,4.35721l-0.21025,-3.60597l1.15639,3.60597l-1.57689,-2.70448l1.85723,1.80635l-2.82963,-1.22703l6.10709,0.15025" data-paper-data="{&quot;index&quot;:null}" fill="none" stroke="url(#color-15)" stroke-width="1.25" stroke-linecap="round"/><path d="M433.72494,62.15714l-6.21185,0.15025l2.82963,-1.22703l-1.85723,1.80635l1.57689,-2.70448l-1.15639,3.60597l0.21025,-3.60597l0.63075,4.35721l-1.68201,-3.90647l2.10251,2.25372l-2.62814,-1.50249" fill="none" stroke="url(#color-16)" stroke-width="1.25" stroke-linecap="round"/><path d="M433.879,37.89467l-6.21185,0.15025l2.82963,-1.22703l-1.85723,1.80635l1.57689,-2.70448l-1.15639,3.60597l0.21025,-3.60597l0.63075,4.35721l-1.68201,-3.90647l2.10251,2.25372l-2.62814,-1.50249" fill="none" stroke="url(#color-17)" stroke-width="1.25" stroke-linecap="round"/><path d="M427.21122,50.65905l2.62814,-1.50249l-2.10251,2.25372l1.68201,-3.90647l-0.63075,4.35721l-0.21025,-3.60597l1.15639,3.60597l-1.57689,-2.70448l1.85723,1.80635l-2.82963,-1.22703l6.10709,0.15025" data-paper-data="{&quot;index&quot;:null}" fill="none" stroke="url(#color-18)" stroke-width="1.25" stroke-linecap="round"/><path d="M240.65288,107.44987h3.86772v2.18629h-3.86772z" fill="url(#color-19)" stroke="#000000" stroke-width="0.75" stroke-linecap="butt"/><path d="M243.38074,105.61583l6.42761,3.18021l-6.42761,2.75704c0,0 -0.79401,-1.96952 -0.79401,-2.92374c0,-1.02041 0.79401,-3.01351 0.79401,-3.01351z" fill="url(#color-20)" stroke="#000000" stroke-width="0.75" stroke-linecap="round"/><path d="M240.65288,114.68698h3.86772v2.18628h-3.86772z" fill="url(#color-21)" stroke="#000000" stroke-width="0.75" stroke-linecap="butt"/><path d="M243.38074,112.85293l6.42761,3.18021l-6.42761,2.75704c0,0 -0.79401,-1.96951 -0.79401,-2.92374c0,-1.02041 0.79401,-3.0135 0.79401,-3.0135z" fill="url(#color-22)" stroke="#000000" stroke-width="0.75" stroke-linecap="round"/><path d="M240.65287,92.44987h3.86772v2.18628h-3.86772z" fill="url(#color-23)" stroke="#000000" stroke-width="0.75" stroke-linecap="butt"/><path d="M243.38073,90.61583l6.42761,3.18021l-6.42761,2.75704c0,0 -0.79401,-1.96952 -0.79401,-2.92374c0,-1.02041 0.79401,-3.01351 0.79401,-3.01351z" fill="url(#color-24)" stroke="#000000" stroke-width="0.75" stroke-linecap="round"/><path d="M240.65287,99.68699h3.86772v2.18629h-3.86772z" fill="url(#color-25)" stroke="#000000" stroke-width="0.75" stroke-linecap="butt"/><path d="M243.38073,97.85293l6.42761,3.18021l-6.42761,2.75704c0,0 -0.79401,-1.96951 -0.79401,-2.92374c0,-1.02041 0.79401,-3.01351 0.79401,-3.01351z" fill="url(#color-26)" stroke="#000000" stroke-width="0.75" stroke-linecap="round"/><path d="M240.65287,137.11655h3.86772v2.18628h-3.86772z" fill="url(#color-27)" stroke="#000000" stroke-width="0.75" stroke-linecap="butt"/><path d="M243.38073,135.28249l6.42761,3.18021l-6.42761,2.75704c0,0 -0.79401,-1.96952 -0.79401,-2.92374c0,-1.02041 0.79401,-3.01351 0.79401,-3.01351z" fill="url(#color-28)" stroke="#000000" stroke-width="0.75" stroke-linecap="round"/><path d="M240.65287,144.35365h3.86772v2.18629h-3.86772z" fill="url(#color-29)" stroke="#000000" stroke-width="0.75" stroke-linecap="butt"/><path d="M243.38073,142.5196l6.42761,3.18021l-6.42761,2.75704c0,0 -0.79401,-1.96951 -0.79401,-2.92374c0,-1.02041 0.79401,-3.0135 0.79401,-3.0135z" fill="url(#color-30)" stroke="#000000" stroke-width="0.75" stroke-linecap="round"/><path d="M240.65287,122.11655h3.86772v2.18628h-3.86772z" fill="url(#color-31)" stroke="#000000" stroke-width="0.75" stroke-linecap="butt"/><path d="M243.38073,120.2825l6.42761,3.18021l-6.42761,2.75704c0,0 -0.79401,-1.96952 -0.79401,-2.92374c0,-1.02041 0.79401,-3.01351 0.79401,-3.01351z" fill="url(#color-32)" stroke="#000000" stroke-width="0.75" stroke-linecap="round"/><path d="M240.65287,129.35365h3.86772v2.18628h-3.86772z" fill="url(#color-33)" stroke="#000000" stroke-width="0.75" stroke-linecap="butt"/><path d="M243.38073,127.51961l6.42761,3.18021l-6.42761,2.75704c0,0 -0.79401,-1.96951 -0.79401,-2.92374c0,-1.02041 0.79401,-3.01351 0.79401,-3.01351z" fill="url(#color-34)" stroke="#000000" stroke-width="0.75" stroke-linecap="round"/><path d="M240.65287,159.7832h3.86772v2.18628h-3.86772z" fill="url(#color-35)" stroke="#000000" stroke-width="0.75" stroke-linecap="butt"/><path d="M243.38073,157.94914l6.42761,3.18021l-6.42761,2.75704c0,0 -0.794,-1.96952 -0.794,-2.92374c0,-1.02041 0.794,-3.0135 0.794,-3.0135z" fill="url(#color-36)" stroke="#000000" stroke-width="0.75" stroke-linecap="round"/><path d="M240.65287,152.02032h3.86772v2.18629h-3.86772z" fill="url(#color-37)" stroke="#000000" stroke-width="0.75" stroke-linecap="butt"/><path d="M243.38073,150.18627l6.42761,3.18021l-6.42761,2.75704c0,0 -0.794,-1.96951 -0.794,-2.92374c0,-1.02041 0.794,-3.0135 0.794,-3.0135z" fill="url(#color-38)" stroke="#000000" stroke-width="0.75" stroke-linecap="round"/><path d="M363.00744,225.73806l-1.57167,3.53399l-1.99765,-0.88841l1.57167,-3.53399z" fill="url(#color-39)" stroke="#000000" stroke-width="0.75" stroke-linecap="butt"/><path d="M363.57477,228.97583l-5.5177,4.58071l0.09274,-6.99334c0,0 2.12222,0.07482 2.99412,0.46258c0.93236,0.41465 2.43083,1.95005 2.43083,1.95005z" fill="url(#color-40)" stroke="#000000" stroke-width="0.75" stroke-linecap="round"/><path d="M348.90922,219.46819l-1.57167,3.53399l-1.99764,-0.88841l1.57167,-3.53399z" fill="url(#color-41)" stroke="#000000" stroke-width="0.75" stroke-linecap="butt"/><path d="M349.47654,222.70595l-5.5177,4.58071l0.09274,-6.99334c0,0 2.12223,0.07483 2.99411,0.46259c0.93236,0.41465 2.43084,1.95004 2.43084,1.95004z" fill="url(#color-42)" stroke="#000000" stroke-width="0.75" stroke-linecap="round"/><path d="M356.00228,222.62267l-1.57167,3.53399l-1.99765,-0.88841l1.57167,-3.53399z" fill="url(#color-43)" stroke="#000000" stroke-width="0.75" stroke-linecap="butt"/><path d="M356.56961,225.86044l-5.5177,4.58071l0.09274,-6.99334c0,0 2.12222,0.07483 2.99411,0.46259c0.93236,0.41465 2.43084,1.95004 2.43084,1.95004z" fill="url(#color-44)" stroke="#000000" stroke-width="0.75" stroke-linecap="round"/><path d="M303.24456,193.21944l8.87815,-0.15025l-4.04419,1.22703l2.6544,-1.80635l-2.25373,2.70448l1.65274,-3.60597l-0.3005,3.60597l-0.90149,-4.35721l2.40397,3.90647l-3.00497,-2.25372l3.75621,1.50249" fill="none" stroke="url(#color-45)" stroke-width="1.25" stroke-linecap="round"/><path d="M311.90549,180.12173l-3.75621,1.50249l3.00497,-2.25372l-2.40397,3.90647l0.90149,-4.35721l0.3005,3.60597l-1.65274,-3.60597l2.25373,2.70448l-2.6544,-1.80635l4.04419,1.22703l-8.72843,-0.15025" data-paper-data="{&quot;index&quot;:null}" fill="none" stroke="url(#color-46)" stroke-width="1.25" stroke-linecap="round"/><path d="M312.22083,204.71753l-3.75621,1.50249l3.00497,-2.25372l-2.40397,3.90647l0.90149,-4.35721l0.3005,3.60597l-1.65274,-3.60597l2.25373,2.70448l-2.6544,-1.80635l4.04419,1.22703l-8.72843,-0.15025" data-paper-data="{&quot;index&quot;:null}" fill="none" stroke="url(#color-47)" stroke-width="1.25" stroke-linecap="round"/><path d="M97.916,132.00811v-4.67914h2.61753v4.67914z" fill="url(#color-48)" stroke="#000000" stroke-width="0.75" stroke-linecap="butt"/><path d="M95.72016,128.94993l3.80751,-7.77607l3.30086,7.77607c0,0 -2.358,0.96059 -3.50044,0.96059c-1.22168,0 -3.60792,-0.96059 -3.60792,-0.96059z" fill="url(#color-49)" stroke="#000000" stroke-width="0.75" stroke-linecap="round"/></g></g></svg>