<svg version="1.1" xmlns="http://www.w3.org/2000/svg" xmlns:xlink="http://www.w3.org/1999/xlink" width="163.99258" height="170.50226" viewBox="0,0,163.99258,170.50226"><defs><linearGradient x1="240.38811" y1="281.45274" x2="240.38811" y2="288.38799" gradientUnits="userSpaceOnUse" id="color-1"><stop offset="0" stop-color="#810000"/><stop offset="1" stop-color="#000000"/></linearGradient><linearGradient x1="231.03135" y1="281.50035" x2="231.03135" y2="288.43561" gradientUnits="userSpaceOnUse" id="color-2"><stop offset="0" stop-color="#810000"/><stop offset="1" stop-color="#000000"/></linearGradient><linearGradient x1="221.67458" y1="281.50035" x2="221.67458" y2="288.43561" gradientUnits="userSpaceOnUse" id="color-3"><stop offset="0" stop-color="#810000"/><stop offset="1" stop-color="#000000"/></linearGradient><linearGradient x1="212.3178" y1="281.54799" x2="212.3178" y2="288.48324" gradientUnits="userSpaceOnUse" id="color-4"><stop offset="0" stop-color="#810000"/><stop offset="1" stop-color="#000000"/></linearGradient><linearGradient x1="202.65696" y1="281.69999" x2="202.65696" y2="288.63526" gradientUnits="userSpaceOnUse" id="color-5"><stop offset="0" stop-color="#810000"/><stop offset="1" stop-color="#000000"/></linearGradient><linearGradient x1="250.42187" y1="281.50035" x2="250.42187" y2="288.43561" gradientUnits="userSpaceOnUse" id="color-6"><stop offset="0" stop-color="#810000"/><stop offset="1" stop-color="#000000"/></linearGradient><linearGradient x1="259.59702" y1="281.69999" x2="259.59702" y2="288.63526" gradientUnits="userSpaceOnUse" id="color-7"><stop offset="0" stop-color="#810000"/><stop offset="1" stop-color="#000000"/></linearGradient><linearGradient x1="103.73731" y1="126.65856" x2="103.7373" y2="131.79363" gradientUnits="userSpaceOnUse" id="color-8"><stop offset="0" stop-color="#c1c1c1"/><stop offset="1" stop-color="#1a1a1a"/></linearGradient><linearGradient x1="100.81011" y1="124.43211" x2="106.74736" y2="124.43211" gradientUnits="userSpaceOnUse" id="color-9"><stop offset="0" stop-color="#c1c1c1"/><stop offset="1" stop-color="#191919"/></linearGradient><linearGradient x1="110.97441" y1="126.65856" x2="110.97441" y2="131.79363" gradientUnits="userSpaceOnUse" id="color-10"><stop offset="0" stop-color="#c1c1c1"/><stop offset="1" stop-color="#1a1a1a"/></linearGradient><linearGradient x1="108.04721" y1="124.43211" x2="113.98446" y2="124.43211" gradientUnits="userSpaceOnUse" id="color-11"><stop offset="0" stop-color="#c1c1c1"/><stop offset="1" stop-color="#191919"/></linearGradient></defs><g transform="translate(-100.27015,-118.49652)"><g data-paper-data="{&quot;isPaintingLayer&quot;:true}" fill-rule="nonzero" stroke="#000000" stroke-width="0.75" stroke-linejoin="miter" stroke-miterlimit="10" stroke-dasharray="" stroke-dashoffset="0" style="mix-blend-mode: normal"><path d="M236.62269,285.25221l3.85482,-3.79948l3.67603,3.75976c0,0 -2.14485,-0.02232 -2.40957,1.76434c-0.14743,0.99502 -0.2533,1.39978 -0.2533,1.39978c0,0 -1.75406,0.03889 -1.86296,-0.02712c-0.05234,-0.03173 -0.42846,-0.44361 -0.37445,-1.42393c0.08597,-1.56037 -2.63059,-1.67334 -2.63059,-1.67334z" fill="url(#color-1)" stroke-linecap="butt"/><path d="M227.26592,285.29983l3.85484,-3.79948l3.67603,3.75978c0,0 -2.14485,-0.02233 -2.40958,1.76434c-0.14744,0.99502 -0.2533,1.39978 -0.2533,1.39978c0,0 -1.75406,0.0389 -1.86296,-0.02712c-0.05234,-0.03173 -0.42845,-0.44361 -0.37445,-1.42393c0.08597,-1.56037 -2.63059,-1.67333 -2.63059,-1.67333z" fill="url(#color-2)" stroke-linecap="butt"/><path d="M217.90915,285.29983l3.85482,-3.79948l3.67603,3.75978c0,0 -2.14485,-0.02233 -2.40957,1.76434c-0.14744,0.99502 -0.25332,1.39978 -0.25332,1.39978c0,0 -1.75406,0.0389 -1.86296,-0.02712c-0.05234,-0.03173 -0.42845,-0.44361 -0.37444,-1.42393c0.08597,-1.56037 -2.63059,-1.67333 -2.63059,-1.67333z" fill="url(#color-3)" stroke-linecap="butt"/><path d="M208.55237,285.34745l3.85484,-3.79948l3.67603,3.75976c0,0 -2.14485,-0.02233 -2.40958,1.76434c-0.14744,0.99502 -0.25332,1.39978 -0.25332,1.39978c0,0 -1.75406,0.03888 -1.86296,-0.02713c-0.05234,-0.03173 -0.42845,-0.44361 -0.37445,-1.42394c0.08597,-1.56037 -2.63059,-1.67333 -2.63059,-1.67333z" fill="url(#color-4)" stroke-linecap="butt"/><path d="M198.89152,285.49947l3.85482,-3.79948l3.67604,3.75978c0,0 -2.14485,-0.02234 -2.40957,1.76433c-0.14744,0.99502 -0.25332,1.39978 -0.25332,1.39978c0,0 -1.75406,0.0389 -1.86296,-0.02712c-0.05234,-0.03173 -0.42845,-0.44361 -0.37444,-1.42394c0.08597,-1.56037 -2.63059,-1.67333 -2.63059,-1.67333z" fill="url(#color-5)" stroke-linecap="butt"/><path d="M246.65643,285.29983l3.85484,-3.79948l3.67603,3.75978c0,0 -2.14485,-0.02233 -2.40957,1.76434c-0.14744,0.99502 -0.2533,1.39978 -0.2533,1.39978c0,0 -1.75406,0.0389 -1.86296,-0.02712c-0.05234,-0.03173 -0.42845,-0.44361 -0.37445,-1.42393c0.08597,-1.56037 -2.63059,-1.67333 -2.63059,-1.67333z" fill="url(#color-6)" stroke-linecap="butt"/><path d="M255.83159,285.49947l3.85482,-3.79948l3.67604,3.75978c0,0 -2.14485,-0.02234 -2.40957,1.76433c-0.14744,0.99502 -0.25332,1.39978 -0.25332,1.39978c0,0 -1.75406,0.0389 -1.86296,-0.02712c-0.05234,-0.03173 -0.42845,-0.44361 -0.37444,-1.42394c0.08597,-1.56037 -2.63059,-1.67333 -2.63059,-1.67333z" fill="url(#color-7)" stroke-linecap="butt"/><path d="M102.64415,131.79363v-5.13507h2.18628v5.13507z" fill="url(#color-8)" stroke-linecap="butt"/><path d="M100.8101,128.17192l3.18021,-8.53376l2.75704,8.53376c0,0 -1.96952,1.05418 -2.92374,1.05418c-1.02041,0 -3.0135,-1.05418 -3.0135,-1.05418z" fill="url(#color-9)" stroke-linecap="round"/><path d="M109.88126,131.79363v-5.13507h2.18628v5.13507z" fill="url(#color-10)" stroke-linecap="butt"/><path d="M108.04721,128.17192l3.18021,-8.53376l2.75704,8.53376c0,0 -1.96951,1.05418 -2.92374,1.05418c-1.02041,0 -3.0135,-1.05418 -3.0135,-1.05418z" fill="url(#color-11)" stroke-linecap="round"/></g></g></svg>