<svg version="1.1" xmlns="http://www.w3.org/2000/svg" xmlns:xlink="http://www.w3.org/1999/xlink" width="213.01939" height="160.27168" viewBox="0,0,213.01939,160.27168"><defs><linearGradient x1="273.7157" y1="145.28272" x2="289.58907" y2="133.77312" gradientUnits="userSpaceOnUse" id="color-1"><stop offset="0" stop-color="#0d0d0d"/><stop offset="1" stop-color="#181818"/></linearGradient><linearGradient x1="252.35637" y1="229.14785" x2="273.26072" y2="229.14785" gradientUnits="userSpaceOnUse" id="color-2"><stop offset="0" stop-color="#0d0d0d"/><stop offset="1" stop-color="#181818"/></linearGradient><linearGradient x1="218.66259" y1="229.90912" x2="244.67057" y2="229.90912" gradientUnits="userSpaceOnUse" id="color-3"><stop offset="0" stop-color="#0d0d0d"/><stop offset="1" stop-color="#181818"/></linearGradient><linearGradient x1="244.07556" y1="191.63046" x2="271.1092" y2="191.63046" gradientUnits="userSpaceOnUse" id="color-4"><stop offset="0" stop-color="#0d0d0d"/><stop offset="1" stop-color="#181818"/></linearGradient><linearGradient x1="226.7439" y1="192.07024" x2="255.01253" y2="192.07024" gradientUnits="userSpaceOnUse" id="color-5"><stop offset="0" stop-color="#0d0d0d"/><stop offset="1" stop-color="#181818"/></linearGradient><linearGradient x1="223.14738" y1="174.99699" x2="273.22105" y2="174.99699" gradientUnits="userSpaceOnUse" id="color-6"><stop offset="0" stop-color="#050505"/><stop offset="1" stop-color="#0b0b0b"/></linearGradient><linearGradient x1="218.80203" y1="158.54862" x2="269.99523" y2="158.54862" gradientUnits="userSpaceOnUse" id="color-7"><stop offset="0" stop-color="#050505"/><stop offset="1" stop-color="#0b0b0b"/></linearGradient><linearGradient x1="217.48477" y1="146.59214" x2="271.93111" y2="146.59214" gradientUnits="userSpaceOnUse" id="color-8"><stop offset="0" stop-color="#050505"/><stop offset="1" stop-color="#0b0b0b"/></linearGradient><linearGradient x1="228.61783" y1="136.01036" x2="267.52852" y2="136.01036" gradientUnits="userSpaceOnUse" id="color-9"><stop offset="0" stop-color="#050505"/><stop offset="1" stop-color="#0b0b0b"/></linearGradient><linearGradient x1="225.88045" y1="115.90299" x2="258.60303" y2="115.90299" gradientUnits="userSpaceOnUse" id="color-10"><stop offset="0" stop-color="#050505"/><stop offset="1" stop-color="#0b0b0b"/></linearGradient><linearGradient x1="239.43642" y1="102.93553" x2="261.37793" y2="102.93553" gradientUnits="userSpaceOnUse" id="color-11"><stop offset="0" stop-color="#050505"/><stop offset="1" stop-color="#0b0b0b"/></linearGradient><linearGradient x1="251.12911" y1="211.02732" x2="276.22186" y2="211.02732" gradientUnits="userSpaceOnUse" id="color-12"><stop offset="0" stop-color="#050505"/><stop offset="1" stop-color="#0b0b0b"/></linearGradient><linearGradient x1="225.01889" y1="212.44262" x2="248.13726" y2="212.44262" gradientUnits="userSpaceOnUse" id="color-13"><stop offset="0" stop-color="#050505"/><stop offset="1" stop-color="#0b0b0b"/></linearGradient><linearGradient x1="224.76817" y1="172.03319" x2="269.71452" y2="172.03319" gradientUnits="userSpaceOnUse" id="color-14"><stop offset="0" stop-color="#0d0d0d"/><stop offset="1" stop-color="#181818"/></linearGradient><linearGradient x1="217.32135" y1="244.63276" x2="242.50008" y2="244.63276" gradientUnits="userSpaceOnUse" id="color-15"><stop offset="0" stop-color="#050505"/><stop offset="1" stop-color="#0b0b0b"/></linearGradient><linearGradient x1="219.25769" y1="229.98459" x2="243.45674" y2="229.98459" gradientUnits="userSpaceOnUse" id="color-16"><stop offset="0" stop-color="#050505"/><stop offset="1" stop-color="#0b0b0b"/></linearGradient><linearGradient x1="249.09741" y1="195.22343" x2="273.19831" y2="195.22343" gradientUnits="userSpaceOnUse" id="color-17"><stop offset="0" stop-color="#050505"/><stop offset="1" stop-color="#0b0b0b"/></linearGradient><linearGradient x1="224.46756" y1="195.86573" x2="251.19098" y2="195.86573" gradientUnits="userSpaceOnUse" id="color-18"><stop offset="0" stop-color="#050505"/><stop offset="1" stop-color="#0b0b0b"/></linearGradient><linearGradient x1="254.00957" y1="115.86848" x2="251.06177" y2="123.51952" gradientUnits="userSpaceOnUse" id="color-19"><stop offset="0" stop-color="#ff0000"/><stop offset="1" stop-color="#b50a0a"/></linearGradient><linearGradient x1="249.77766" y1="244.92475" x2="274.95628" y2="244.92475" gradientUnits="userSpaceOnUse" id="color-20"><stop offset="0" stop-color="#050505"/><stop offset="1" stop-color="#0b0b0b"/></linearGradient><linearGradient x1="251.08193" y1="230.36349" x2="272.55932" y2="230.36349" gradientUnits="userSpaceOnUse" id="color-21"><stop offset="0" stop-color="#050505"/><stop offset="1" stop-color="#0b0b0b"/></linearGradient><linearGradient x1="217.31867" y1="239.96972" x2="236.40884" y2="239.96972" gradientUnits="userSpaceOnUse" id="color-22"><stop offset="0" stop-color="#0d0d0d"/><stop offset="1" stop-color="#181818"/></linearGradient><linearGradient x1="249.27193" y1="240.68655" x2="268.50533" y2="240.68655" gradientUnits="userSpaceOnUse" id="color-23"><stop offset="0" stop-color="#0d0d0d"/><stop offset="1" stop-color="#181818"/></linearGradient><linearGradient x1="204.93381" y1="167.74431" x2="226.51045" y2="166.34636" gradientUnits="userSpaceOnUse" id="color-24"><stop offset="0" stop-color="#0d0d0d"/><stop offset="1" stop-color="#181818"/></linearGradient><linearGradient x1="201.15326" y1="152.85831" x2="221.37894" y2="148.57754" gradientUnits="userSpaceOnUse" id="color-25"><stop offset="0" stop-color="#0d0d0d"/><stop offset="1" stop-color="#181818"/></linearGradient><linearGradient x1="201.98144" y1="161.24311" x2="223.7121" y2="157.57846" gradientUnits="userSpaceOnUse" id="color-26"><stop offset="0" stop-color="#050505"/><stop offset="1" stop-color="#0b0b0b"/></linearGradient><linearGradient x1="200.50676" y1="130.92565" x2="234.73348" y2="138.58856" gradientUnits="userSpaceOnUse" id="color-27"><stop offset="0" stop-color="#050505"/><stop offset="1" stop-color="#0b0b0b"/></linearGradient><radialGradient cx="271.71815" cy="171.62877" r="12.91057" gradientUnits="userSpaceOnUse" id="color-28"><stop offset="0" stop-color="#b50a0a"/><stop offset="1" stop-color="#b50a0a" stop-opacity="0"/></radialGradient><radialGradient cx="268.02475" cy="172.74514" r="12.91057" gradientUnits="userSpaceOnUse" id="color-29"><stop offset="0" stop-color="#b50a0a"/><stop offset="1" stop-color="#b50a0a" stop-opacity="0"/></radialGradient><radialGradient cx="264.02038" cy="173.72686" r="12.91057" gradientUnits="userSpaceOnUse" id="color-30"><stop offset="0" stop-color="#b50a0a"/><stop offset="1" stop-color="#b50a0a" stop-opacity="0"/></radialGradient><radialGradient cx="260.32696" cy="174.84321" r="12.91058" gradientUnits="userSpaceOnUse" id="color-31"><stop offset="0" stop-color="#b50a0a"/><stop offset="1" stop-color="#b50a0a" stop-opacity="0"/></radialGradient><radialGradient cx="257.86465" cy="175.58746" r="12.91057" gradientUnits="userSpaceOnUse" id="color-32"><stop offset="0" stop-color="#b50a0a"/><stop offset="1" stop-color="#b50a0a" stop-opacity="0"/></radialGradient><radialGradient cx="254.17123" cy="176.70381" r="12.91057" gradientUnits="userSpaceOnUse" id="color-33"><stop offset="0" stop-color="#b50a0a"/><stop offset="1" stop-color="#b50a0a" stop-opacity="0"/></radialGradient><radialGradient cx="250.16686" cy="177.68552" r="12.91057" gradientUnits="userSpaceOnUse" id="color-34"><stop offset="0" stop-color="#b50a0a"/><stop offset="1" stop-color="#b50a0a" stop-opacity="0"/></radialGradient><radialGradient cx="246.47342" cy="178.80188" r="12.91057" gradientUnits="userSpaceOnUse" id="color-35"><stop offset="0" stop-color="#b50a0a"/><stop offset="1" stop-color="#b50a0a" stop-opacity="0"/></radialGradient><radialGradient cx="278.43106" cy="169.82841" r="12.91057" gradientUnits="userSpaceOnUse" id="color-36"><stop offset="0" stop-color="#b50a0a"/><stop offset="1" stop-color="#b50a0a" stop-opacity="0"/></radialGradient><radialGradient cx="274.73764" cy="170.94475" r="12.91057" gradientUnits="userSpaceOnUse" id="color-37"><stop offset="0" stop-color="#b50a0a"/><stop offset="1" stop-color="#b50a0a" stop-opacity="0"/></radialGradient><linearGradient x1="302.45184" y1="157.39014" x2="304.58468" y2="165.35399" gradientUnits="userSpaceOnUse" id="color-38"><stop offset="0" stop-color="#400000"/><stop offset="1" stop-color="#ff0000"/></linearGradient><linearGradient x1="246.3095" y1="176.73542" x2="242.0065" y2="177.88781" gradientUnits="userSpaceOnUse" id="color-39"><stop offset="0" stop-color="#0d0d0d"/><stop offset="1" stop-color="#181818"/></linearGradient><linearGradient x1="213.63615" y1="181.7433" x2="233.92608" y2="175.05577" gradientUnits="userSpaceOnUse" id="color-40"><stop offset="0" stop-color="#050505"/><stop offset="1" stop-color="#0b0b0b"/></linearGradient><linearGradient x1="405.42736" y1="160.72777" x2="284.08682" y2="141.99176" gradientUnits="userSpaceOnUse" id="color-41"><stop offset="0" stop-color="#0d0d0d"/><stop offset="1" stop-color="#181818"/></linearGradient><linearGradient x1="287.57077" y1="126.82609" x2="261.04537" y2="132.87403" gradientUnits="userSpaceOnUse" id="color-42"><stop offset="0" stop-color="#050505"/><stop offset="1" stop-color="#0b0b0b"/></linearGradient><radialGradient cx="252.68167" cy="120.01187" r="13.89578" gradientUnits="userSpaceOnUse" id="color-43"><stop offset="0" stop-color="#b50a0a"/><stop offset="1" stop-color="#b50a0a" stop-opacity="0"/></radialGradient><linearGradient x1="291.40845" y1="133.78063" x2="280.52475" y2="142.41082" gradientUnits="userSpaceOnUse" id="color-44"><stop offset="0" stop-color="#050505"/><stop offset="1" stop-color="#0b0b0b"/></linearGradient><linearGradient x1="283.84731" y1="158.34792" x2="301.50829" y2="148.73454" gradientUnits="userSpaceOnUse" id="color-45"><stop offset="0" stop-color="#050505"/><stop offset="1" stop-color="#0b0b0b"/></linearGradient></defs><g transform="translate(-197.86056,-92.94064)"><g data-paper-data="{&quot;isPaintingLayer&quot;:true}" fill-rule="nonzero" stroke-linejoin="miter" stroke-miterlimit="10" stroke-dasharray="" stroke-dashoffset="0" style="mix-blend-mode: normal"><path d="M269.49807,134.41887c3.95091,-5.36623 6.91535,-12.3684 12.35762,-9.38082c5.44225,2.98761 13.9735,18.22843 10.02257,23.59465c-3.95091,5.36623 -3.37586,4.52367 -8.81813,1.53605c-5.44225,-2.98761 -17.51298,-10.38367 -13.56206,-15.74991z" data-paper-data="{&quot;index&quot;:null}" fill="url(#color-1)" stroke="#000000" stroke-width="2" stroke-linecap="butt"/><path d="M252.35637,245.73395c0,0 0.19852,-8.55104 1.38882,-13.71339c1.44892,-6.28392 0.25938,-22.16945 0.25938,-22.16945l19.25626,5.39709c0,0 -5.15498,12.92962 -6.70139,19.15803c-0.74304,2.99272 -2.49826,8.70797 -3.3447,11.54434c-0.64844,2.17292 1.56926,2.49403 1.56926,2.49403c0,0 -5.9345,-1.99421 -8.389,-2.36376c-2.21524,-0.33353 -4.03864,-0.34687 -4.03864,-0.34687z" fill="url(#color-2)" stroke="#000000" stroke-width="2" stroke-linecap="butt"/><path d="M218.66259,245.73643c0,0 2.07196,-9.30716 3.85733,-14.10013c2.17321,-5.83426 4.3477,-19.69113 4.3477,-19.69113c0,0 9.12123,-1.06136 11.26208,-0.25779c3.28691,1.23373 6.54087,6.94003 6.54087,6.94003c0,0 -6.2958,9.9344 -8.55943,15.70563c-1.08765,2.77304 -3.75473,8.89458 -4.92686,11.50795c-0.89798,2.00208 0.3869,2.59056 0.3869,2.59056c0,0 -5.6639,-2.51847 -8.05963,-3.12651c-2.16218,-0.54875 -4.84894,0.43137 -4.84894,0.43137z" fill="url(#color-3)" stroke="#000000" stroke-width="2" stroke-linecap="butt"/><path d="M253.70361,210.48006l-9.62808,-37.31619l24.62305,-0.38301l2.4107,35.75734z" data-paper-data="{&quot;index&quot;:null}" fill="url(#color-4)" stroke="#000000" stroke-width="2" stroke-linecap="butt"/><path d="M226.7439,210.72128l0.12798,-37.30209l28.14064,0.38301l-9.22714,36.63304z" fill="url(#color-5)" stroke="#000000" stroke-width="2" stroke-linecap="butt"/><path d="M223.14738,184.34672l4.00039,-18.52536l39.31412,-2.06721l6.75928,20.59256c0,0 -12.04391,2.39249 -13.0729,1.7983c-1.12221,-0.64802 -3.86044,-13.29454 -4.49228,-13.18316c-1.00223,0.17666 -1.77827,13.08135 -2.90801,13.14121c-4.84922,0.25688 -10.05175,-0.04691 -12.56447,-0.04691c-9.23661,0 -17.03613,-1.70943 -17.03613,-1.70943z" fill="url(#color-6)" stroke="#000000" stroke-width="2" stroke-linecap="butt"/><path d="M269.9105,153.19189c0.41549,2.09214 -0.77823,0.21406 -1.8017,4.12045c-0.27856,1.06328 0.38855,11.18137 0.02358,12.1099c-1.30274,3.31458 -11.53288,1.66588 -11.53288,1.66588c0,0 -10.28101,0.68487 -17.71984,-0.03111c-7.0427,-0.67785 -12.49059,-1.60759 -12.49059,-1.60759c0,0 -2.3633,-5.19414 -3.38571,-7.68453c-1.02241,-2.49039 -3.19977,-7.14184 -4.20131,-11.34106c0,0 21.25847,-3.49429 36.50433,-4.77394c8.31938,-0.69827 14.29661,5.99373 14.6041,7.542z" fill="url(#color-7)" stroke="#000000" stroke-width="2" stroke-linecap="butt"/><path d="M271.84174,144.12294c0.41549,2.09213 -0.66581,10.24573 -2.21552,11.88678c-0.6796,0.71966 0.34261,3.84632 -1.74014,4.78794c-4.01228,1.81397 -12.57056,5.246 -12.57056,5.246c0,0 -15.46288,-3.80982 -24.69227,-4.77925c-5.59527,-0.58772 -1.11313,-3.6446 -4.47902,-5.17345c-1.78763,-0.81199 -6.23974,-1.18899 -6.38254,-1.47929c-1.20257,-2.44462 -0.78574,-0.66989 -1.78729,-4.86913c-1.05996,-4.44417 -0.06891,-3.86697 -0.06891,-6.75865c0,-8.52127 9.31125,-15.84333 9.31125,-15.84333l38.99422,5.21908c0,0 4.75979,7.37776 5.63076,11.76331z" fill="url(#color-8)" stroke="#000000" stroke-width="2" stroke-linecap="butt"/><path d="M234.32091,140.97287c-1.59411,-0.0758 -4.8926,-0.15082 -5.55365,-1.24238c-0.74698,-1.23344 1.54076,-10.86086 1.70754,-11.6386c0.36477,-1.7009 22.92839,-0.58068 26.05515,-0.58068c1.6816,0 13.86237,3.6088 10.37372,7.20745c-0.94987,0.97982 0.76245,2.84793 -1.25676,3.83107c-4.34323,2.11469 -7.80272,5.56133 -9.82352,6.29386c-2.4811,0.41031 -21.00143,-3.84687 -21.50248,-3.8707z" fill="url(#color-9)" stroke="#000000" stroke-width="2" stroke-linecap="butt"/><path d="M239.27085,101.70848c2.28053,-0.10414 19.42058,3.03674 19.33192,4.32696c-0.47695,6.93933 -6.75003,24.06458 -16.00647,24.06458c-4.91206,0 -13.32723,-0.91598 -13.32723,-0.91598c0,0 -3.38866,-12.96426 -3.38866,-16.22545c0,-3.26119 13.39043,-11.25009 13.39043,-11.25009z" fill="url(#color-10)" stroke="#000000" stroke-width="2" stroke-linecap="butt"/><path d="M242.11498,94.713c4.74337,-0.21357 17.56143,10.40572 17.50759,11.18931c-0.07474,1.08728 1.75543,2.39336 1.75543,2.39336l-11.28836,2.86556c0,0 0.8316,-5.16878 -0.82662,-6.67507c0,0 -2.6008,-1.42409 -5.75939,-1.8489c-1.54308,-0.20754 -4.30131,-0.92038 -4.05138,-1.23946c0.34411,-0.43928 4.1667,-1.94732 4.56366,-2.74593c0.59523,-1.1975 -1.90097,-3.93888 -1.90097,-3.93888z" fill="url(#color-11)" stroke="#000000" stroke-width="2" stroke-linecap="butt"/><path d="M231.6994,116.60761l1.45379,-2.00606c0,0 3.33643,1.84276 5.41314,1.04071c5.44136,-2.10151 8.23969,-3.65283 13.71828,-5.69913c3.02499,-1.12987 9.8708,-0.83887 9.8708,-0.83887c0,0 -0.34224,0.24977 -0.84083,3.45537c-0.4986,3.20561 -0.82733,5.36274 -0.82733,5.36274c0,0 -2.35056,8.19971 -5.03504,10.86326c-2.04878,2.0328 -4.74104,3.15363 -4.74104,3.15363l-11.88948,-2.90062c0,0 -0.92524,-5.47614 -2.10244,-7.35331z" fill="#000000" stroke="#000000" stroke-width="1.5" stroke-linecap="butt"/><path d="M259.74996,117.41591c0.19876,1.16981 -2.18343,6.49989 -2.18343,6.49989c0,0 -0.5794,2.50747 -2.29843,4.28616c-0.96659,1.1683 -4.37969,2.57042 -4.37969,2.57042c0,0 3.10555,-6.27437 4.73372,-11.49278c0.21787,-0.69828 0.63195,-1.20473 2.71571,-4.61229c1.81131,-2.96202 2.57551,-2.35613 2.57551,-2.35613c0,0 -0.92073,4.07766 -1.16338,5.1047z" fill="#000000" stroke="#000000" stroke-width="1.5" stroke-linecap="butt"/><path d="M256.43944,208.71774c1.98991,-1.30575 4.20666,-3.36318 6.8711,-4.14382c5.40805,-1.58446 9.08934,-1.78869 11.36065,2.5799c2.27132,4.36858 2.59415,9.54547 -2.81392,11.12993c-4.19261,1.22836 -11.08121,-2.70092 -14.85785,-5.34094c-0.72798,-0.50888 -3.79748,0.493 -5.15721,-0.05421c-0.68528,-0.27578 -0.34613,-1.25987 -0.51719,-1.58888c-1.15229,-2.21627 3.0654,-1.23744 5.11443,-2.582z" data-paper-data="{&quot;index&quot;:null}" fill="url(#color-12)" stroke="#000000" stroke-width="2" stroke-linecap="butt"/><path d="M230.6609,208.37641c2.19289,-0.90515 4.79846,-2.47105 7.47357,-2.78793c5.42971,-0.64317 8.74117,-0.47166 9.66315,3.91441c0.92198,4.38607 0.21212,9.38818 -5.21759,10.03134c-4.20938,0.4986 -8.86426,-3.85799 -11.64505,-6.87412c-0.32284,-0.35017 -4.07725,0.55348 -5.57462,-0.06951c-0.56679,-0.2358 -0.25091,-1.3674 -0.2764,-1.48866c-0.46774,-2.22513 3.31887,-1.79349 5.57694,-2.72553z" data-paper-data="{&quot;index&quot;:null}" fill="url(#color-13)" stroke="#000000" stroke-width="2" stroke-linecap="butt"/><path d="M224.76826,173.4362c0,0 -0.00748,-1.51106 0.12892,-2.27902c0.13942,-0.78492 0.69876,-2.38078 0.69876,-2.38078c0,0 7.15917,1.05794 15.2409,1.69654c6.02897,0.47638 12.81605,0.58161 16.2104,0.58161c5.33618,0 11.58731,-1.76037 11.58731,-1.76037c0,0 0.90416,1.1461 1.0271,1.68442c0.1482,0.64897 -0.06148,2.35409 -0.06148,2.35409c0,0 -6.75601,1.77632 -11.58634,1.78773c-3.6964,0.00873 -10.99143,0.3803 -17.80844,-0.00488c-8.05205,-0.45496 -15.43712,-1.6793 -15.43712,-1.6793z" fill="url(#color-14)" stroke="#000000" stroke-width="2" stroke-linecap="butt"/><path d="M251.15007,175.45545c0,0 -0.41051,-1.17204 -0.5048,-1.70293c-0.15251,-0.85865 -0.04699,-2.95687 -0.04699,-2.95687c0,0 3.01256,-0.2071 4.41421,-0.2071c1.35568,0 3.86244,0.2071 3.86244,0.2071c0,0 0.55176,1.37226 0.55176,2.07103c0,0.71602 -0.27589,2.17457 -0.27589,2.17457c0,0 -2.39944,0.70559 -3.40591,0.75955c-1.422,0.07626 -4.59488,-0.34534 -4.59488,-0.34534z" fill="#060606" stroke="#000000" stroke-width="2" stroke-linecap="butt"/><path d="M217.78106,251.68746l-0.45973,-7.88836l2.57823,-6.4497l13.97429,2.9044l0.13771,3.18065c0,0 7.27072,5.05523 8.1505,5.19207c1.33914,0.20829 -1.73314,3.2896 -1.73314,3.2896z" fill="url(#color-15)" stroke="#000000" stroke-width="2" stroke-linecap="butt"/><path d="M223.63788,219.62333c0,0 7.32375,-0.14216 10.59776,0.51112c3.33128,0.66471 9.22112,3.44346 9.22112,3.44346l-7.46756,16.78102c0,0 -6.40088,-0.42925 -9.32051,-1.15302c-2.62642,-0.65106 -7.41097,-2.99461 -7.41097,-2.99461z" fill="url(#color-16)" stroke="#000000" stroke-width="2" stroke-linecap="butt"/><path d="M250.30264,202.52904l-1.18906,-5.30443l-0.01616,-6.15706c0,0 7.99965,-2.39951 11.69722,-2.92266c4.07035,-0.57588 11.71417,-0.38958 11.71417,-0.38958l0.68956,5.91016l-1.00554,5.49384c0,0 -6.76982,2.72798 -10.3972,3.28637c-3.66888,0.56477 -11.493,0.08335 -11.493,0.08335z" fill="url(#color-17)" stroke="#000000" stroke-width="2" stroke-linecap="butt"/><path d="M225.1557,201.30138l-0.68814,-5.29685l0.69148,-5.95494c0,0 9.01627,-1.18614 13.11628,-1.16787c4.51333,0.02011 12.84305,1.28353 12.84305,1.28353l0.07267,5.81168l-1.73131,5.16896c0,0 -7.71049,1.67797 -11.73785,1.70374c-4.07344,0.02606 -12.56614,-1.54824 -12.56614,-1.54824z" fill="url(#color-18)" stroke="#000000" stroke-width="2" stroke-linecap="butt"/><path d="M249.0324,118.58668c0.81401,-2.11279 3.0424,-3.32974 4.9772,-2.7182c1.93483,0.61155 2.84342,2.82005 2.0294,4.93282c-0.81401,2.11279 -3.0424,3.32974 -4.97722,2.7182c-1.93483,-0.61155 -2.84341,-2.82005 -2.02938,-4.93282z" fill="url(#color-19)" stroke="#000000" stroke-width="0" stroke-linecap="butt"/><path d="M250.23737,251.97944l-0.45973,-7.88836l2.57824,-6.4497l13.69395,1.1617l0.41803,4.92337c0,0 7.27073,5.05523 8.1505,5.19207c1.33914,0.20829 -1.73314,3.2896 -1.73314,3.2896z" fill="url(#color-20)" stroke="#000000" stroke-width="2" stroke-linecap="butt"/><path d="M252.91707,221.00123c0,0 7.24515,-0.89217 10.59255,-0.57974c3.40593,0.31788 9.04974,2.47093 9.04974,2.47093l-5.48998,17.4161c0,0 -5.17448,0.23057 -8.18092,-0.18814c-2.70451,-0.37664 -7.80652,-2.21122 -7.80652,-2.21122z" fill="url(#color-21)" stroke="#000000" stroke-width="2" stroke-linecap="butt"/><path d="M228.84141,239.09442c2.55065,0.35142 7.06808,0.23899 7.06808,0.23899c0,0 0.59389,1.50881 0.48639,2.28905c-0.09993,0.7253 -0.85125,1.57395 -0.85125,1.57395c0,0 -5.10807,-0.07574 -7.86863,-0.45608c-3.01867,-0.4159 -9.33112,-2.47468 -9.33112,-2.47468c0,0 -1.13265,-1.62438 -1.01803,-2.45633c0.08289,-0.6016 1.8636,-1.06628 1.8636,-1.06628c0,0 6.51932,1.91993 9.65095,2.35139z" data-paper-data="{&quot;index&quot;:null}" fill="url(#color-22)" stroke="#000000" stroke-width="2" stroke-linecap="butt"/><path d="M260.83682,239.71926c2.56414,0.23343 7.07159,-0.08719 7.07159,-0.08719c0,0 0.66282,1.47981 0.59142,2.26418c-0.06637,0.72914 -0.77776,1.61154 -0.77776,1.61154c0,0 -5.10612,0.15989 -7.88129,-0.09275c-3.03464,-0.27625 -9.4353,-2.04176 -9.4353,-2.04176c0,0 -1.20636,-1.57041 -1.13022,-2.40678c0.05506,-0.60478 1.81244,-1.15108 1.81244,-1.15108c0,0 6.60092,1.61725 9.74911,1.90385z" data-paper-data="{&quot;index&quot;:null}" fill="url(#color-23)" stroke="#000000" stroke-width="2" stroke-linecap="butt"/><path d="M226.83333,173.02006c0.29869,5.25405 1.31911,5.21915 -5.30787,5.64852c-6.62699,0.42936 -16.68404,-12.54939 -16.98274,-17.80344c-0.29869,-5.25405 6.00944,-9.07897 12.63643,-9.50834c5.58588,-0.26446 9.35549,16.40922 9.65419,21.66325z" fill="url(#color-24)" stroke="#000000" stroke-width="2" stroke-linecap="butt"/><path d="M217.64868,161.57432c-5.47736,1.9759 -11.07104,5.72702 -13.44002,0.53621c-2.36897,-5.19084 -6.86753,-20.30649 -1.39015,-22.28238c5.47736,-1.9759 13.61882,-5.22526 15.98781,-0.03445c2.36897,5.19084 4.31973,19.80473 -1.15762,21.78064z" data-paper-data="{&quot;index&quot;:null}" fill="url(#color-25)" stroke="#000000" stroke-width="2" stroke-linecap="butt"/><path d="M223.12418,154.19111c0.20941,1.20654 -1.50208,2.54331 -2.00266,3.81989c-1.72672,4.40345 -4.42362,9.39085 -9.28719,10.21103c-6.27354,1.05797 -9.35573,-4.11427 -10.28748,-9.48262c-0.93172,-5.36836 1.47038,-6.31147 7.74392,-7.36944c3.09083,-0.52125 6.65984,0.4223 9.48023,0.73996c2.90421,0.3271 3.88048,-0.64232 4.35316,2.08117z" fill="url(#color-26)" stroke="#000000" stroke-width="2" stroke-linecap="butt"/><path d="M198.94116,139.06452c0.14151,-1.82366 4.19261,-9.70307 9.50285,-12.01129c3.82942,-1.66451 15.82534,1.33648 18.64956,0.08276c2.28448,-1.01413 3.14505,-3.00201 3.14505,-3.00201c0,0 5.86601,4.81769 5.5399,9.02025c-0.10687,1.37703 -2.84572,4.5265 -4.23316,7.09909c-0.17064,0.31642 -6.44023,-0.94908 -7.99027,-0.00983c-3.55636,2.15496 -5.38028,6.54054 -7.79313,6.18489c0,0 -6.71384,-0.0899 -8.88139,-0.62897c-5.02015,-1.24843 -8.1551,-3.95536 -7.93939,-6.73489z" fill="url(#color-27)" stroke="#000000" stroke-width="2" stroke-linecap="butt"/><g><g stroke="none" stroke-linecap="butt"><g fill="none" stroke-width="1" font-family="sans-serif" font-weight="normal" font-size="12" text-anchor="start"><g><g/><g/></g><g><g/><g/></g></g><g><g stroke-width="0"><g><path d="M266.4789,154.70658c8.02329,-2.42508 16.2372,1.13116 18.34624,7.94313c2.10904,6.81195 -2.68541,14.30004 -10.70873,16.72512c-8.02329,2.42508 -16.2372,-1.13117 -18.34625,-7.94314c-2.10904,-6.81195 2.6854,-14.30004 10.70872,-16.72512z" fill="url(#color-28)"/><path d="M262.78547,155.82295c8.02329,-2.42508 16.2372,1.13116 18.34624,7.94313c2.10904,6.81195 -2.6854,14.30004 -10.70873,16.72512c-8.02329,2.42508 -16.2372,-1.13117 -18.34624,-7.94314c-2.10904,-6.81195 2.6854,-14.30003 10.70872,-16.72511z" fill="url(#color-29)"/><path d="M258.78108,156.80465c8.02329,-2.42508 16.2372,1.13117 18.34624,7.94314c2.10904,6.81195 -2.6854,14.30003 -10.70872,16.72511c-8.02329,2.42508 -16.2372,-1.13117 -18.34625,-7.94314c-2.10904,-6.81195 2.6854,-14.30003 10.70873,-16.72511z" fill="url(#color-30)"/><path d="M255.08766,157.92102c8.02329,-2.42508 16.23719,1.13118 18.34623,7.94314c2.10904,6.81195 -2.6854,14.30003 -10.7087,16.7251c-8.02329,2.42508 -16.2372,-1.13116 -18.34624,-7.94313c-2.10904,-6.81195 2.68541,-14.30004 10.70872,-16.72512z" fill="url(#color-31)"/></g><g><path d="M252.62539,158.66526c8.02329,-2.42508 16.23721,1.13117 18.34625,7.94314c2.10904,6.81195 -2.68541,14.30003 -10.70874,16.72513c-8.02329,2.42508 -16.2372,-1.13117 -18.34624,-7.94314c-2.10904,-6.81195 2.68542,-14.30003 10.70872,-16.72512z" fill="url(#color-32)"/><path d="M248.93196,159.78162c8.02329,-2.42508 16.2372,1.13117 18.34624,7.94314c2.10904,6.81195 -2.6854,14.30003 -10.70873,16.72511c-8.02329,2.42508 -16.23721,-1.13116 -18.34625,-7.94313c-2.10904,-6.81195 2.68541,-14.30002 10.70874,-16.72511z" fill="url(#color-33)"/><path d="M244.92757,160.76334c8.02329,-2.42508 16.2372,1.13117 18.34623,7.94313c2.10904,6.81195 -2.6854,14.30004 -10.70872,16.72512c-8.02329,2.42508 -16.23721,-1.13117 -18.34624,-7.94314c-2.10904,-6.81195 2.68541,-14.30004 10.70873,-16.72512z" fill="url(#color-34)"/><path d="M241.23415,161.8797c8.02329,-2.42508 16.23719,1.13117 18.34624,7.94314c2.10904,6.81195 -2.68542,14.30002 -10.70874,16.72512c-8.02329,2.42508 -16.2372,-1.13117 -18.34623,-7.94313c-2.10904,-6.81195 2.68541,-14.30003 10.70873,-16.72511z" fill="url(#color-35)"/></g></g><g><g fill="none" stroke-width="1" font-family="sans-serif" font-weight="normal" font-size="12" text-anchor="start"/><g stroke-width="0"><path d="M273.19176,152.90621c8.02329,-2.42508 16.23721,1.13117 18.34625,7.94314c2.10904,6.81195 -2.68541,14.30004 -10.70872,16.72512c-8.02329,2.42508 -16.23721,-1.13117 -18.34624,-7.94314c-2.10904,-6.81195 2.6854,-14.30003 10.70873,-16.72511z" fill="url(#color-36)"/><path d="M269.49836,154.02257c8.02329,-2.42508 16.23721,1.13117 18.34624,7.94314c2.10904,6.81195 -2.68539,14.30003 -10.7087,16.7251c-8.02329,2.42508 -16.23721,-1.13116 -18.34625,-7.94313c-2.10904,-6.81195 2.6854,-14.30003 10.70873,-16.72512z" fill="url(#color-37)"/></g></g></g></g><path d="M246.00118,172.94465c0,0 19.37666,-4.77498 52.47186,-13.77039c37.97707,-10.32232 60.53851,-16.93154 60.53851,-16.93154c0,0 -2.69454,7.17799 -12.57649,9.97953c-19.43051,6.37683 -19.26436,6.67884 -46.09281,14.21716c-29.3188,7.62015 -52.27704,14.05122 -52.27704,14.05122z" data-paper-data="{&quot;index&quot;:null}" fill="url(#color-38)" stroke="#ff0000" stroke-width="0" stroke-linecap="butt"/><path d="M241.74084,173.77432c0,0 20.18633,-4.99182 54.67322,-14.35996c39.57407,-10.75004 63.14159,-17.41935 63.14159,-17.41935c0,0 -2.79389,7.53118 -13.09263,10.44434c-20.25911,6.59873 -20.08961,6.89986 -48.04883,14.74102c-30.54805,7.94935 -54.47374,14.63953 -54.47374,14.63953z" data-paper-data="{&quot;index&quot;:null}" fill="none" stroke="#330000" stroke-width="2" stroke-linecap="butt"/><path d="M233.52914,166.34981c0,0 1.17795,-1.77399 2.16519,-2.03836c0.98724,-0.26439 3.07481,0.63504 3.07481,0.63504l6.97704,26.05194c0,0 -1.2154,1.78405 -2.34587,2.08679c-1.13047,0.30274 -2.89413,-0.68346 -2.89413,-0.68346z" fill="#000000" stroke="none" stroke-width="0" stroke-linecap="butt"/><path d="M204.65326,184.06049l32.92618,-8.81806l2.04557,7.63808l-32.92617,8.81806c0,0 -3.32996,-1.29198 -3.80691,-3.07292c-0.47697,-1.78096 1.76134,-4.56515 1.76134,-4.56515z" fill="#070707" stroke="#000000" stroke-width="1.5" stroke-linecap="butt"/><g fill="#0f0f0f" stroke="#000000" stroke-width="1" stroke-linecap="butt"><g><path d="M230.69684,179.08711l6.30809,-1.68939c0,0 1.44156,0.89491 1.60429,1.50255c0.16639,0.62131 -0.61667,2.18519 -0.61667,2.18519l-6.30809,1.68939l-1.5459,-0.58071l-0.44534,-1.67621z"/><path d="M229.68719,180.46548l0.45202,1.6744l-1.04872,1.27558l-6.30809,1.68939l-1.59207,-0.60233l-0.46817,-1.6885l1.07265,-1.3969l6.30809,-1.6894z" data-paper-data="{&quot;index&quot;:null}"/></g><g><path d="M212.91401,183.84958l6.3081,-1.68939c0,0 1.44153,0.89491 1.60426,1.50257c0.16639,0.62131 -0.61666,2.18518 -0.61666,2.18518l-6.30809,1.68939l-1.5459,-0.58071l-0.44534,-1.67621z"/><path d="M211.90437,185.22795l0.45202,1.6744l-1.04873,1.27559l-6.3081,1.68939l-1.59206,-0.60233l-0.46819,-1.6885l1.07264,-1.3969l6.30809,-1.68939z" data-paper-data="{&quot;index&quot;:null}"/></g></g><path d="M219.74299,180.37652l1.83656,6.85756" fill="none" stroke="#000000" stroke-width="1.5" stroke-linecap="round"/><path d="M230.69826,184.58263l-1.80451,-6.73802" fill="none" stroke="#000000" stroke-width="1.5" stroke-linecap="round"/><path d="M210.99753,182.85117l1.75111,6.53859" fill="none" stroke="#000000" stroke-width="1.5" stroke-linecap="round"/><path d="M240.60069,172.63864c0,0 4.50492,-0.39849 4.68879,0.28804c0.3422,1.27771 1.51268,5.64829 2.09347,7.81695c0.20174,0.75332 -3.97067,2.39337 -3.97067,2.39337z" fill="url(#color-39)" stroke="#000000" stroke-width="2" stroke-linecap="butt"/></g><path d="M235.28818,179.20861c0.30937,0.58945 -0.01522,3.8392 -0.81213,3.72013c-0.57743,-0.08629 -1.61938,-3.64457 -1.80563,-3.06807c-0.2921,0.90411 2.10059,4.07168 2.11554,5.62258c0.01533,1.59424 -2.3561,1.56572 -3.35462,2.00196c-1.25448,0.5481 -1.61393,1.7843 -2.8433,1.5609c-2.14573,-0.38992 -4.97948,-2.87833 -5.77199,-4.38819c-0.65366,-1.24537 -1.32692,-2.20356 -0.51216,-3.52492c0.35735,-0.57955 -11.56847,-2.82083 -10.57993,-5.92714c0.47085,-1.47952 3.64937,-3.97145 7.14505,-5.9444c4.34186,-2.45054 9.15174,-4.28008 9.62035,-4.48483c1.0998,-0.4805 2.77044,10.95022 3.84843,10.90285c2.29779,-0.10097 2.10192,1.91268 2.95035,3.52916z" fill="url(#color-40)" stroke="#000000" stroke-width="2" stroke-linecap="butt"/><g><path d="M406.34974,141.50907l-122.03248,32.17102l-3.15034,-12.77804l122.03248,-32.17101c0,0 5.26892,2.32183 6.03115,5.41341c0.76222,3.09156 -2.88077,7.36465 -2.88077,7.36465z" fill="url(#color-41)" stroke="#000000" stroke-width="2.5" stroke-linecap="butt"/><path d="M340.58914,145.3557l1.98955,7.68327l-29.70873,7.69297l-3.84669,-2.19073l-17.40004,4.50567l-2.17926,3.92119l1.26945,4.42225l-4.97009,1.37761l-3.3071,-12.06779z" fill="#050505" stroke="#000000" stroke-width="2.5" stroke-linecap="round"/><path d="M287.37295,176.02547c0,0 -1.05375,1.38614 -1.90425,1.60314c-0.85049,0.21702 -2.60998,-0.45122 -2.60998,-0.45122l-5.26477,-20.04377c0,0 1.08603,-1.39437 2.0599,-1.64289c0.97389,-0.24852 2.45429,0.49097 2.45429,0.49097z" fill="#000000" stroke="none" stroke-width="0" stroke-linecap="butt"/><path d="M279.51939,156.91075l4.71117,-5.77945l8.2083,-2.30748c0,0 1.4756,1.98186 1.79107,3.20006c0.35884,1.38583 0.24869,4.67706 0.24869,4.67706" fill="none" stroke="#000000" stroke-width="3.5" stroke-linecap="round"/><path d="M288.34468,153.72125c0,0 1.67868,0.96136 2.26262,1.6788c0.63933,0.78552 1.42222,2.84872 1.42222,2.84872" fill="none" stroke="#000000" stroke-width="2.5" stroke-linecap="round"/><path d="M349.339,156.30416l-1.47397,-5.69211l14.67304,-3.79953l7.11923,4.29778z" fill="#050505" stroke="#000000" stroke-width="2.5" stroke-linecap="round"/><path d="M403.63563,128.74689c0,0 5.4052,2.1841 5.99432,5.41195c0.58908,3.22785 -3.64404,7.46598 -3.64404,7.46598l-1.47266,0.38296l-1.19242,-4.58629l-3.85097,-2.53433l-15.91981,4.12235l-2.29658,3.90153l-9.23389,2.39108l-1.59247,-0.93737l-7.25021,-4.80377z" fill="#070707" stroke="#000000" stroke-width="2.5" stroke-linecap="round"/></g><path d="M284.3368,134.30812c-1.29541,0.97273 -7.86847,4.35613 -10.72068,4.77926c-2.68336,0.39809 -3.68291,-3.47243 -3.86323,-3.51034c-1.32774,-0.27914 -3.4849,1.39319 -3.69562,1.20571c-1.71317,-1.52419 -4.5106,-3.11361 -4.99973,-4.09846c-1.49275,-3.00561 0.99539,-8.1096 0.99539,-8.1096c0,0 1.18146,1.23398 3.02613,1.37299c2.28052,0.17185 9.44446,-5.22461 12.52592,-5.01765c4.27307,0.28702 6.95411,3.13588 6.95411,3.13588c0,0 2.77796,7.98932 -0.22231,10.24221z" data-paper-data="{&quot;index&quot;:null}" fill="url(#color-42)" stroke="#000000" stroke-width="2" stroke-linecap="butt"/><path d="M297.80456,165.09065c0,-1.00594 0.81548,-1.82143 1.82142,-1.82143c1.00594,0 1.82143,0.81549 1.82143,1.82143c0,1.00594 -0.81549,1.82142 -1.82143,1.82142c-1.00594,0 -1.82142,-0.81548 -1.82142,-1.82142z" fill="#800808" stroke="none" stroke-width="0.5" stroke-linecap="butt"/><path d="M239.39004,120.01187c0,-6.31705 5.95087,-11.43802 13.29163,-11.43802c7.34076,0 13.29163,5.12098 13.29163,11.43802c0,6.31705 -5.95086,11.43803 -13.29163,11.43803c-7.34077,0 -13.29163,-5.12099 -13.29163,-11.43803z" fill="url(#color-43)" stroke="#000000" stroke-width="0" stroke-linecap="butt"/><path d="M277.86317,142.18663c-1.07605,-1.9235 0.38671,-2.80499 1.3623,-4.4205c0.46719,-0.77364 -0.10701,-4.74433 0.64307,-5.46917c0.77104,-0.74508 1.62121,-1.4468 2.4059,-2.069c3.14208,-2.49148 5.06743,-1.57379 7.84066,1.92219c2.7732,3.49599 4.56702,7.94023 1.42494,10.43171c-1.50417,1.19272 -3.28772,2.54714 -5.53529,2.27862c-1.39222,-0.16634 -2.79992,-2.23991 -4.05301,-2.86747c-0.94973,-0.47563 -3.01252,2.11711 -4.08856,0.19361z" data-paper-data="{&quot;index&quot;:null}" fill="url(#color-44)" stroke="#000000" stroke-width="2" stroke-linecap="butt"/><path d="M286.52505,157.95083c0.58263,-0.88538 -8.92817,-8.95649 -7.90435,-9.65701c0.78748,-0.53879 13.8541,-8.58828 17.67456,-7.92074c3.57759,0.62509 -0.1201,11.71748 0.63325,11.68851c1.71771,-0.06602 2.33529,0.95037 3.24799,2.08501c1.10653,1.37559 2.17125,4.92891 1.49271,6.91844c-0.38878,1.13985 -1.79563,0.86252 -2.96345,1.66155c-0.92954,0.63599 -2.07934,2.64597 -3.65575,1.88507c-1.53357,-0.74022 -3.49224,-4.2409 -4.53569,-4.41915c-0.66533,-0.11364 2.35259,2.4331 2.15146,2.9597c-0.27757,0.72683 -3.66789,-0.52459 -4.09983,-1.06162c-1.18468,-1.47276 -3.28277,-2.25262 -2.04091,-4.13982z" data-paper-data="{&quot;index&quot;:null}" fill="url(#color-45)" stroke="#000000" stroke-width="2" stroke-linecap="butt"/></g></g></svg>