<svg version="1.1" xmlns="http://www.w3.org/2000/svg" xmlns:xlink="http://www.w3.org/1999/xlink" width="47.75797" height="60.64389" viewBox="0,0,47.75797,60.64389"><defs><linearGradient x1="247.31237" y1="177.82545" x2="285.46423" y2="177.82545" gradientUnits="userSpaceOnUse" id="color-1"><stop offset="0" stop-color="#838383"/><stop offset="1" stop-color="#aeaeae"/></linearGradient></defs><g transform="translate(-242.7839,-146.32602)"><g data-paper-data="{&quot;isPaintingLayer&quot;:true}" fill-rule="nonzero" stroke-linejoin="miter" stroke-miterlimit="10" stroke-dasharray="" stroke-dashoffset="0" style="mix-blend-mode: normal"><path d="M258.73735,193.34848c0,0 4.4435,-9.24914 4.88967,-16.24599c0.44617,-6.99684 1.00598,-10.95055 -2.33889,-16.4394c-3.34487,-5.48885 -13.97578,-10.33255 -13.97578,-10.33255c0,0 1.73559,-1.27885 4.30767,-1.41557c1.19935,-0.06375 5.18361,-0.15404 9.35045,0.53845c3.72017,0.61825 7.58589,1.96695 9.74519,2.82504c5.76441,2.29074 8.32525,5.49107 8.32525,5.49107c0,0 4.70791,7.10823 5.73825,11.18155c0.2806,1.10932 2.31611,4.47805 2.21519,9.22824c-0.04905,2.30874 -1.78171,5.38592 -2.2032,7.84015c-1.83861,10.70565 -8.56898,18.75926 -8.56898,18.75926z" fill="url(#color-1)" stroke="none" stroke-width="0" stroke-linecap="butt"/><path d="" fill="#808080" stroke="#000000" stroke-width="1" stroke-linecap="round"/><path d="" fill="#808080" stroke="#000000" stroke-width="1" stroke-linecap="round"/><path d="M245.99577,150.07981c0,0 20.87395,-3.72992 31.21563,5.38729c1.62954,1.4366 6.4631,7.29821 8.65349,12.98878c0.60715,1.57735 1.28537,7.20869 1.03384,10.27913c-0.23533,2.87271 -0.86582,5.38125 -1.69393,8.91679c-0.65857,2.81172 -1.51626,5.59059 -3.30742,8.84899c-1.79116,3.2584 -6.01745,7.37751 -6.01745,7.37751" fill="none" stroke="#ffffff" stroke-width="3" stroke-linecap="round"/><path d="M244.0339,148.89134c0,0 0.27099,-0.52205 2.11759,-0.72486c3.63943,-0.39971 11.5759,-1.16847 18.79674,0.14101c5.2563,0.95321 7.01591,1.1977 11.70852,4.46684c2.01648,1.4048 6.57082,5.11981 9.33424,10.24686c2.54107,4.71452 3.38904,10.80179 3.29375,13.4479c-0.12088,3.35689 -1.34332,11.0968 -3.69861,17.02363c-0.6894,1.73479 -2.06057,4.7963 -3.9862,7.20281c-2.32099,2.90061 -5.18539,5.02438 -5.18539,5.02438" fill="none" stroke="#000000" stroke-width="2.5" stroke-linecap="round"/><path d="M259.05287,197.12948c0,-0.17259 0.13991,-0.3125 0.3125,-0.3125c0.17259,0 0.3125,0.13991 0.3125,0.3125c0,0.17259 -0.13991,0.3125 -0.3125,0.3125c-0.17259,0 -0.3125,-0.13991 -0.3125,-0.3125z" fill="#000000" stroke="none" stroke-width="0.5" stroke-linecap="butt"/><path d="M262.55287,199.87948c0,-0.17259 0.13991,-0.3125 0.3125,-0.3125c0.17259,0 0.3125,0.13991 0.3125,0.3125c0,0.17259 -0.13991,0.3125 -0.3125,0.3125c-0.17259,0 -0.3125,-0.13991 -0.3125,-0.3125z" fill="#000000" stroke="none" stroke-width="0.5" stroke-linecap="butt"/><path d="M267.30287,202.37948c0,-0.17259 0.13991,-0.3125 0.3125,-0.3125c0.17259,0 0.3125,0.13991 0.3125,0.3125c0,0.17259 -0.13991,0.3125 -0.3125,0.3125c-0.17259,0 -0.3125,-0.13991 -0.3125,-0.3125z" fill="#000000" stroke="none" stroke-width="0.5" stroke-linecap="butt"/><path d="M270.30287,203.37948c0,-0.17259 0.13991,-0.3125 0.3125,-0.3125c0.17259,0 0.3125,0.13991 0.3125,0.3125c0,0.17259 -0.13991,0.3125 -0.3125,0.3125c-0.17259,0 -0.3125,-0.13991 -0.3125,-0.3125z" fill="#000000" stroke="none" stroke-width="0.5" stroke-linecap="butt"/><path d="M264.30287,203.12948c0,-0.17259 0.13991,-0.3125 0.3125,-0.3125c0.17259,0 0.3125,0.13991 0.3125,0.3125c0,0.17259 -0.13991,0.3125 -0.3125,0.3125c-0.17259,0 -0.3125,-0.13991 -0.3125,-0.3125z" fill="#000000" stroke="none" stroke-width="0.5" stroke-linecap="butt"/><path d="M259.80287,203.37948c0,-0.17259 0.13991,-0.3125 0.3125,-0.3125c0.17259,0 0.3125,0.13991 0.3125,0.3125c0,0.17259 -0.13991,0.3125 -0.3125,0.3125c-0.17259,0 -0.3125,-0.13991 -0.3125,-0.3125z" fill="#000000" stroke="none" stroke-width="0.5" stroke-linecap="butt"/><path d="M258.55287,200.37948c0,-0.17259 0.13991,-0.3125 0.3125,-0.3125c0.17259,0 0.3125,0.13991 0.3125,0.3125c0,0.17259 -0.13991,0.3125 -0.3125,0.3125c-0.17259,0 -0.3125,-0.13991 -0.3125,-0.3125z" fill="#000000" stroke="none" stroke-width="0.5" stroke-linecap="butt"/><g stroke="#000000" stroke-width="0.75" stroke-linecap="butt"><path d="M250.44409,184.93802l5.25999,3.64055l-1.12981,1.6324l-5.26,-3.64053c0,0 -0.09179,-0.93786 0.1088,-1.22771c0.1714,-0.24764 1.02102,-0.40472 1.02102,-0.40472z" fill="#3f2711"/><path d="M256.36483,187.9562l12.62913,8.94108l3.86673,4.55566l-5.7826,-1.77499l-12.88,-8.70131z" fill="#d9d9d9"/><path d="M257.13268,185.71094c0.33362,0.23091 -0.27287,2.68219 -0.27287,2.68219c0,0 -1.00427,1.98572 -2.0803,3.0057c-1.07602,1.01998 -2.00394,1.29888 -2.26805,1.11609c-0.27867,-0.19288 -0.35601,-1.26514 -0.35601,-1.26514c0,0 1.86282,-1.40963 2.43238,-2.23253c0.59912,-0.86563 1.07816,-2.83958 1.07816,-2.83958c0,0 1.20154,-0.65023 1.46669,-0.46673z" fill="#3c3c3c"/><path d="M256.26975,189.45347l11.04509,7.73814l1.76979,1.79254l-2.23814,-0.91112l-11.18061,-7.6447z" fill="#3c3c3c"/><path d="M256.63489,188.75782l0.13515,1.70332l-1.68178,0.44582l-0.13516,-1.70332z" fill="#1b1b1b"/></g></g></g></svg>