<svg version="1.1" xmlns="http://www.w3.org/2000/svg" xmlns:xlink="http://www.w3.org/1999/xlink" width="137.62946" height="134.93051" viewBox="0,0,137.62946,134.93051"><defs><linearGradient x1="230.88176" y1="169.10221" x2="230.88176" y2="189.97158" gradientUnits="userSpaceOnUse" id="color-1"><stop offset="0" stop-color="#1a1a1a"/><stop offset="1" stop-color="#181818"/></linearGradient><linearGradient x1="249.88369" y1="169.10221" x2="249.88369" y2="189.97158" gradientUnits="userSpaceOnUse" id="color-2"><stop offset="0" stop-color="#1a1a1a"/><stop offset="1" stop-color="#181818"/></linearGradient><linearGradient x1="265.1008" y1="143.8881" x2="265.1008" y2="169.96386" gradientUnits="userSpaceOnUse" id="color-3"><stop offset="0" stop-color="#1a1a1a"/><stop offset="1" stop-color="#181818"/></linearGradient><linearGradient x1="206.76467" y1="118.81601" x2="206.76467" y2="144.49952" gradientUnits="userSpaceOnUse" id="color-4"><stop offset="0" stop-color="#1a1a1a"/><stop offset="1" stop-color="#181818"/></linearGradient><linearGradient x1="239.0325" y1="144.25466" x2="239.0325" y2="173.53204" gradientUnits="userSpaceOnUse" id="color-5"><stop offset="0" stop-color="#1a1a1a"/><stop offset="1" stop-color="#181818"/></linearGradient><linearGradient x1="239.54144" y1="151.63081" x2="239.54144" y2="165.24221" gradientUnits="userSpaceOnUse" id="color-6"><stop offset="0" stop-color="#060606"/><stop offset="1" stop-color="#181818"/></linearGradient><linearGradient x1="238.8278" y1="144.76122" x2="238.8278" y2="160.17744" gradientUnits="userSpaceOnUse" id="color-7"><stop offset="0" stop-color="#1a1a1a"/><stop offset="1" stop-color="#181818"/></linearGradient><linearGradient x1="278.33666" y1="129.87722" x2="278.33666" y2="187.51583" gradientUnits="userSpaceOnUse" id="color-8"><stop offset="0" stop-color="#1a1a1a"/><stop offset="1" stop-color="#181818"/></linearGradient><linearGradient x1="193.88174" y1="115.92085" x2="178.93743" y2="88.98556" gradientUnits="userSpaceOnUse" id="color-9"><stop offset="0" stop-color="#051b00"/><stop offset="1" stop-color="#186600"/></linearGradient></defs><g transform="translate(-155.29313,-60.80394)"><g data-paper-data="{&quot;isPaintingLayer&quot;:true}" fill-rule="nonzero" stroke-linejoin="miter" stroke-miterlimit="10" stroke-dasharray="" stroke-dashoffset="0" style="mix-blend-mode: normal"><path d="M255.2046,170.83542c0,0 1.0855,2.3179 0.33977,2.55149c-1.78329,0.55862 -10.61253,1.55762 -10.61253,1.55762" data-paper-data="{&quot;index&quot;:null}" fill="none" stroke="#0a1e00" stroke-width="2.5" stroke-linecap="round"/><path d="M235.13206,175.45816c0,0 -8.82924,-0.999 -10.61253,-1.55761c-0.74573,-0.23359 0.33977,-2.55149 0.33977,-2.55149" fill="none" stroke="#0a1e00" stroke-width="2.5" stroke-linecap="round"/><path d="M241.73496,194.7716c0,0 1.05638,-2.22416 1.05638,-3.12817c0,-1.06871 2.17567,-2.39857 2.17567,-2.39857c0,0 1.63027,0.61286 4.43565,0.61286c2.92031,0 4.1718,-0.771 4.1718,-0.771c0,0 2.47371,1.40263 2.47371,2.36918c0,1.02983 2.58629,3.31571 2.58629,3.31571c0,0 -1.49872,0.29509 -2.90952,0.21408c-1.0854,-0.06233 -0.65403,-0.27346 -1.52322,-0.28088c-1.72751,-0.01478 -2.35322,0.32202 -3.04279,0.19484c-0.22949,-0.04235 -2.02263,-0.26447 -3.55324,-0.24874c-1.37073,0.01407 -2.48467,0.26462 -2.83393,0.25841c-1.97334,-0.03507 0.02323,-0.24027 -0.86166,-0.24027c-1.0968,0 -2.75795,0.1026 -2.75795,0.1026z" data-paper-data="{&quot;index&quot;:null}" fill="#060606" stroke="#000000" stroke-width="1.5" stroke-linecap="butt"/><path d="M223.3155,194.50902c0,0 0.98427,-2.14137 0.98427,-3.01172c0,-1.02893 2.02716,-2.30927 2.02716,-2.30927c0,0 1.51899,0.59005 4.13287,0.59005c2.72098,0 3.88706,-0.7423 3.88706,-0.7423c0,0 2.30487,1.35041 2.30487,2.28097c0,0.99149 2.40976,3.19227 2.40976,3.19227c0,0 -1.39641,0.28411 -2.71094,0.20611c-1.01131,-0.06001 -0.60939,-0.26327 -1.41926,-0.27042c-1.60959,-0.01424 -2.1926,0.31003 -2.8351,0.18758c-0.21383,-0.04077 -1.88455,-0.25462 -3.31069,-0.23948c-1.27717,0.01355 -2.31507,0.25477 -2.64051,0.2488c-1.83866,-0.03376 0.02167,-0.23132 -0.80282,-0.23132c-1.02194,0 -2.56969,0.09877 -2.56969,0.09877z" data-paper-data="{&quot;index&quot;:null}" fill="#060606" stroke="#000000" stroke-width="1.5" stroke-linecap="butt"/><path d="M224.33314,185.19435c0,0 5.24528,-6.01839 7.19905,-5.33342c1.95377,0.68498 6.15176,1.70836 6.15176,1.70836" data-paper-data="{&quot;index&quot;:null}" fill="none" stroke="#0a1e00" stroke-width="2.5" stroke-linecap="round"/><path d="M225.69925,189.97157c0,0 0.73253,-6.37553 0.73253,-9.89068c0,-3.43967 -0.73253,-10.97868 -0.73253,-10.97868h9.04647c0,0 1.31856,7.32551 1.31856,10.85028c0,3.42906 -1.31856,10.01909 -1.31856,10.01909z" fill="url(#color-1)" stroke="#000000" stroke-width="1.5" stroke-linecap="butt"/><path d="M237.67949,182.39228l0.14651,2.05455c0,0 -4.91139,2.34466 -6.86643,2.30015c-1.79088,-0.04077 -6.17263,-1.27286 -6.17263,-1.27286" fill="none" stroke="#0a1e00" stroke-width="2.5" stroke-linecap="round"/><path d="M236.56204,181.71692c0,0 -4.47331,0.37853 -6.0538,-0.28754c-1.75339,-0.73895 -7.68905,-1.74662 -5.61815,-3.88314c0.11617,-0.11987 5.99309,0.37413 8.19072,-0.10008c1.6815,-0.36284 3.86615,-1.60277 3.86615,-1.60277" fill="none" stroke="#0a1e00" stroke-width="2.5" stroke-linecap="round"/><path d="M243.48024,182.46815c0,0 4.09428,-1.02338 5.99979,-1.70836c1.90551,-0.68498 7.0212,5.33342 7.0212,5.33342" data-paper-data="{&quot;index&quot;:null}" fill="none" stroke="#0a1e00" stroke-width="2.5" stroke-linecap="round"/><path d="M244.18622,189.97157c0,0 0.71444,-6.40322 0.71444,-9.76227c0,-3.58295 -0.71444,-11.10709 -0.71444,-11.10709h8.82298c0,0 2.57197,7.41458 2.57197,10.97869c0,3.38289 -2.57197,9.89068 -2.57197,9.89068z" fill="url(#color-2)" stroke="#000000" stroke-width="1.5" stroke-linecap="butt"/><path d="M256.3444,186.37297c0,0 -4.27349,1.23209 -6.02014,1.27286c-1.90674,0.04451 -6.6968,-2.30014 -6.6968,-2.30014l0.14288,-2.05455" data-paper-data="{&quot;index&quot;:null}" fill="none" stroke="#0a1e00" stroke-width="2.5" stroke-linecap="round"/><path d="M243.34169,175.32975c0,0 2.13067,1.23993 3.77063,1.60277c2.14334,0.47421 7.87507,-0.01979 7.98837,0.10008c2.01974,2.13652 -3.76928,3.14418 -5.47935,3.88313c-1.54144,0.66608 -5.90425,0.28754 -5.90425,0.28754" data-paper-data="{&quot;index&quot;:null}" fill="none" stroke="#0a1e00" stroke-width="2.5" stroke-linecap="round"/><g data-paper-data="{&quot;index&quot;:null}" fill="none" stroke="#000000" stroke-width="3" stroke-linecap="round"><path d="M264.66724,163.93419c0,0 5.44288,-4.2777 8.39012,-5.35452c3.15472,-1.15262 9.95813,-1.34934 9.95813,-1.34934"/><path d="M262.31942,159.97849c0,0 5.44287,-4.2777 8.39011,-5.35453c3.15472,-1.15262 9.95813,-1.34934 9.95813,-1.34934"/><path d="M260.72945,155.34038c0,0 5.44288,-4.27771 8.39012,-5.35453c3.15472,-1.15262 9.95813,-1.34933 9.95813,-1.34933"/></g><path d="M270.88187,169.57638c-1.40736,0.5719 -5.28898,0.34169 -5.28898,0.34169c0,0 -1.5669,-7.56204 -3.07093,-11.43182c-1.45114,-3.73367 -5.80027,-11.39316 -5.80027,-11.39316l7.88703,-3.20499c0,0 4.42262,7.38941 5.85475,11.07416c1.51974,3.91017 3.01646,11.75083 3.01646,11.75083c0,0 -1.41585,2.3829 -2.59806,2.8633z" data-paper-data="{&quot;index&quot;:null}" fill="url(#color-3)" stroke="#000000" stroke-width="2" stroke-linecap="butt"/><path d="M194.38688,125.22866c0,0 0.45158,-2.9624 1.44121,-3.92361c1.1781,-1.14427 5.16104,-2.48904 5.16104,-2.48904c0,0 3.40683,9.36654 6.48459,12.63375c2.9695,3.15229 11.66874,6.6371 11.66874,6.6371l-6.60225,6.41266c0,0 -8.44216,-1.8019 -11.37275,-4.9129c-3.10986,-3.3013 -6.78058,-14.35795 -6.78058,-14.35795z" data-paper-data="{&quot;index&quot;:null}" fill="url(#color-4)" stroke="#000000" stroke-width="2" stroke-linecap="butt"/><path d="" fill="#191919" stroke="#000000" stroke-width="2" stroke-linecap="butt"/><path d="M265.54266,174.09469c0,0 -0.66177,-1.31307 -0.71341,-2.11353c-0.05121,-0.79376 0.40486,-2.66934 0.40486,-2.66934l8.23152,-1.30252c0,0 1.03626,1.31745 1.16411,2.06703c0.13345,0.78242 -0.3795,2.5332 -0.3795,2.5332c0,0 -2.923,2.22309 -4.41299,2.47723c-1.40789,0.24013 -4.2946,-0.99207 -4.2946,-0.99207z" fill="#000000" stroke="#000000" stroke-width="2" stroke-linecap="butt"/><path d="M253.68723,155.31392c0,0 1.68106,0.17507 2.13471,0.54004c0.42848,0.34473 0.51602,1.59248 0.51602,1.59248" fill="none" stroke="#0a1e00" stroke-width="2.5" stroke-linecap="round"/><path d="M251.97754,162.67707l3.03416,0.65074" fill="none" stroke="#0a1e00" stroke-width="2.5" stroke-linecap="round"/><path d="M223.31838,169.93656l0.89887,-4.62275l-0.86987,-2.71428l1.40807,-2.80757l-1.26846,-3.86763l0.96801,-3.20365l-1.16829,-2.00681l1.68398,-1.96243l-2.95321,-1.7468l1.30091,-2.74997h31.71715l-1.79773,2.43978l1.15111,2.49974l-1.32976,2.78265l1.41504,2.3568l-1.57859,3.16416l1.8664,3.02358l-1.72505,2.50185l3.01057,3.37647l-1.012,3.53688c0,0 -10.60235,3.59546 -15.81519,3.59546c-5.35568,0 -15.90196,-3.59546 -15.90196,-3.59546z" fill="url(#color-5)" stroke="#000000" stroke-width="1.5" stroke-linecap="butt"/><path d="M212.38679,140.60962c1.61412,-0.21649 5.47389,-5.31962 7.5695,-5.8013c1.26458,-0.29067 2.86146,2.497 4.14963,2.83845c3.98188,1.05549 7.86562,1.55082 13.07517,1.1719c8.15461,-0.59314 16.79918,1.04986 25.71059,0.9775c0.60586,-0.00492 3.09583,3.39395 3.15124,5.89225c0.03573,1.61131 -2.1093,2.65333 -2.52061,2.81679c-7.28045,2.89342 -5.88124,0.42587 -13.06326,0.94593c-3.85664,0.27927 -10.83469,5.54815 -10.83469,5.54815c0,0 -10.17879,-3.76904 -12.71449,-3.58542c-2.82872,0.20483 -5.36638,-2.19181 -7.71188,-2.95725c-2.4516,-0.80006 -4.69327,-0.00304 -6.83794,-1.34322c0,0 -0.22048,-6.47064 0.02675,-6.50379z" fill="#060606" stroke="#000000" stroke-width="1.5" stroke-linecap="butt"/><path d="M250.02756,160.43425l-1.92614,2.95342" fill="none" stroke="#0a1e00" stroke-width="2.5" stroke-linecap="round"/><path d="M255.42076,163.7729c0,0 -0.36783,1.56482 -1.24589,2.11547c-1.39732,0.87628 -13.77802,4.04819 -13.77802,4.04819c0,0 -4.88633,-1.33359 -5.90684,-1.92614c-1.0536,-0.61176 -4.63119,-2.39552 -5.42552,-3.61347c-0.98329,-1.50768 1.57323,-2.807 1.57323,-2.807" fill="none" stroke="#0a1e00" stroke-width="2.5" stroke-linecap="round"/><path d="M225.18771,160.49107v-8.86026h28.64741v8.86026c0,0 0.78762,0.51363 -3.34142,0.51363c-2.21724,0 -10.59515,4.23752 -10.59515,4.23752c0,0 -8.55145,-4.49433 -10.00925,-4.49433c-3.32611,0 -4.70157,-0.25682 -4.70157,-0.25682z" fill="url(#color-6)" stroke="#000000" stroke-width="1.5" stroke-linecap="butt"/><path d="M226.87922,153.3275l0.92563,4.04631" fill="none" stroke="#0a1e00" stroke-width="2.5" stroke-linecap="round"/><path d="M247.97302,163.51608c0,0 -5.43127,0.43051 -6.29876,-0.32102c-0.0467,-0.04046 -1.70087,-0.39873 -3.85576,-0.92114c-2.48353,-0.60208 -5.46752,-3.16728 -5.4177,-3.57952c0.06594,-0.54571 2.49486,-1.23172 5.1913,-1.39727c1.56232,-0.09591 4.98345,0.97961 7.82462,1.67605c2.70698,0.66355 10.01201,-1.74917 10.01201,-1.74917" fill="none" stroke="#0a1e00" stroke-width="2.5" stroke-linecap="round"/><path d="M224.60248,155.42628l-0.12841,-8.0898c0,0 1.19396,-0.74419 5.07537,-1.72544c2.26544,-0.57271 9.52663,4.9907 9.52663,4.9907c0,0 6.60998,-6.25718 9.0185,-5.81849c4.14622,0.75517 5.02718,1.78277 5.02718,1.78277v8.86026c0,0 0.7841,0.51364 -3.32648,0.51364c-2.20732,0 -10.54776,4.23752 -10.54776,4.23752c0,0 -8.5132,-4.49434 -9.9645,-4.49434c-3.31124,0 -4.68053,-0.25682 -4.68053,-0.25682z" fill="url(#color-7)" stroke="#000000" stroke-width="1.5" stroke-linecap="butt"/><path d="M226.05596,132.21705c0,-2.56214 -2.75477,-11.99514 -0.40282,-10.63461c1.92666,1.1145 4.20053,3.28286 4.20053,3.28286l2.14929,-2.8953l2.58505,3.19862c0,0 -0.09572,-6.44844 0.60768,-5.71854c0.08517,0.08836 2.16711,2.23835 2.16711,2.23835l3.29087,0.56154l0.10615,2.74119l2.09266,-3.25491c0,0 1.68597,1.95569 2.13093,2.35902c3.39453,3.07693 1.74317,6.84261 2.11544,8.27578c1.07576,4.14156 -4.34132,7.85883 -10.02836,7.85883c-5.68706,0 -11.0145,-3.33234 -11.0145,-8.01281z" data-paper-data="{&quot;index&quot;:null}" fill="#000000" stroke="none" stroke-width="0" stroke-linecap="butt"/><path d="M223.08547,119.49612l2.93991,5.80616l-0.94637,-7.29955l1.78877,4.65804l4.18169,-6.01933c0,0 4.18559,-1.85818 5.18378,-1.85818c0.99963,0 3.08744,0.54999 4.3763,1.09997c0.71563,0.30537 3.31036,2.9385 3.31036,2.9385l3.1293,-3.59273c0,0 -2.94608,5.92569 -0.98161,6.70706c1.96447,0.78136 4.01612,-3.94581 4.01612,-3.94581l-2.18636,10.5547c0,0 -7.64533,1.78178 -11.44297,1.78178c-3.65745,0 -10.93813,-1.78177 -10.93813,-1.78177z" fill="#0b0b0b" stroke="#000000" stroke-width="2" stroke-linecap="butt"/><path d="M238.14291,140.39779c-9.4428,0.73561 -10.72644,-3.59437 -10.72644,-3.59437c0,0 -1.11031,-7.88792 -1.00083,-8.34163c0.08325,-0.34497 4.39707,-1.167 5.41152,1.25628c0.1883,0.4498 -0.68467,3.65191 0.57293,4.84544c0.73943,0.70175 2.97207,0.58631 5.47432,0.62955c2.75914,0.04766 5.03368,0.06033 5.69015,-1.00783c0.67113,-1.09203 -0.59145,-4.36952 -0.49578,-4.7338c0.18507,-0.70459 4.81796,-2.59957 4.81796,-2.59957l0.59695,10.20606c0,0 0.81835,3.58613 -10.34079,3.33987z" fill="#1f1f1f" stroke="#000000" stroke-width="2" stroke-linecap="butt"/><path d="M247.82402,124.27699c0,0 -2.91668,-0.69787 -5.08837,-0.21453c-1.99587,0.4442 -3.94089,2.18225 -5.73411,2.18225c-1.4508,0 -3.53823,-1.30232 -5.77242,-1.74741c-2.42252,-0.48261 -5.26871,-0.32964 -5.26871,-0.32964" fill="none" stroke="#000000" stroke-width="2" stroke-linecap="round"/><path d="M250.31546,137.83297c0,0 1.08059,0.63267 0.45537,1.67471c-0.77465,1.29107 -5.68576,10.86911 -7.99393,14.13675c-2.96779,4.20145 -14.21768,4.14704 -14.21768,4.14704" fill="none" stroke="#0a1e00" stroke-width="2.5" stroke-linecap="round"/><path d="M250.43497,158.11179c0,0 -8.37948,-0.33998 -14.537,-4.85486c-5.67462,-4.16082 -9.09445,-12.46726 -10.66053,-13.72816c-0.86451,-0.69603 0.67131,-1.83409 0.67131,-1.83409" fill="none" stroke="#0a1e00" stroke-width="2.5" stroke-linecap="round"/><path d="M286.25977,187.51583l-21.21817,-55.58812l5.37196,-2.05049l21.21817,55.58812z" fill="url(#color-8)" stroke="#000000" stroke-width="2" stroke-linecap="butt"/><path d="M279.05286,147.61281c0,0 -5.14022,4.46131 -8.24233,5.74884c-2.89809,1.20285 -9.79994,1.73958 -9.79994,1.73958" fill="none" stroke="#000000" stroke-width="3" stroke-linecap="round"/><path d="M280.00307,152.11361c0,0 -5.14022,4.46131 -8.24233,5.74884c-2.89809,1.20285 -9.79994,1.73959 -9.79994,1.73959" fill="none" stroke="#000000" stroke-width="3" stroke-linecap="round"/><path d="M282.15231,159.10593c0,0 -5.449,4.07842 -8.636,5.13854c-2.97739,0.9904 -9.89999,1.02726 -9.89999,1.02726" fill="none" stroke="#000000" stroke-width="3" stroke-linecap="round"/><path d="M287.8223,174.92143l-12.82603,-33.60209l3.24726,-1.23949l12.82604,33.6021z" fill="#0d0d0d" stroke="#000000" stroke-width="2" stroke-linecap="butt"/><g><path d="M193.37443,114.73893l-15.36475,-25.69176l4.7832,4.50123" fill="none" stroke="#000000" stroke-width="10" stroke-linecap="round"/><path d="M194.00523,115.85233l-15.86556,-26.42416l4.5632,4.46365" fill="none" stroke="url(#color-9)" stroke-width="5" stroke-linecap="round"/><path d="M201.92638,132.91976l-8.9714,-15.02544c0,0 0.94481,-1.34059 1.51852,-1.68314c0.69193,-0.41313 2.34518,-0.62379 2.34518,-0.62379l8.9714,15.02544c0,0 -0.54251,2.07097 -1.23442,2.48408c-0.5737,0.34255 -2.62928,-0.17714 -2.62928,-0.17714z" fill="#3d3d3d" stroke="#000000" stroke-width="1.5" stroke-linecap="butt"/><path d="M186.36404,125.71194l-1.96514,-3.2913c0,0 4.98714,-6.47179 8.19281,-8.38584c3.32487,-1.98521 11.41183,-3.31971 11.41183,-3.31971l1.96516,3.29129c0,0 -8.25249,1.43332 -11.55491,3.40515c-3.23088,1.92911 -8.04971,8.3004 -8.04971,8.3004z" fill="#0a0a0a" stroke="#000000" stroke-width="1.5" stroke-linecap="butt"/></g><path d="M203.90346,123.53076c0,0 -2.85065,2.56046 -4.30708,3.31829c-1.3822,0.71921 -4.22048,1.11887 -4.22048,1.11887c0,0 -1.61566,-1.06191 -2.02982,-1.83506c-0.4323,-0.80704 -0.51192,-2.90986 -0.51192,-2.90986c0,0 2.38383,-3.50148 3.92067,-4.32473c1.45218,-0.77789 5.0608,-0.48645 5.0608,-0.48645c0,0 1.20439,1.19414 1.55381,2.05085z" fill="#000000" stroke="#000000" stroke-width="2" stroke-linecap="butt"/></g></g></svg>