<svg version="1.1" xmlns="http://www.w3.org/2000/svg" xmlns:xlink="http://www.w3.org/1999/xlink" width="600.89294" height="476.04696" viewBox="0,0,600.89294,476.04696"><g transform="translate(1.11808,1.61294)"><g data-paper-data="{&quot;isPaintingLayer&quot;:true}" fill-rule="nonzero" stroke-linejoin="miter" stroke-miterlimit="10" stroke-dasharray="" stroke-dashoffset="0" style="mix-blend-mode: normal"><path d="M161.97687,15.88706v-17h198v17z" fill="#000000" stroke="#000000" stroke-width="1" stroke-linecap="butt"/><path d="M411.67266,188.05068v-187.94143h187.60221v187.94144z" fill="#000000" stroke="#000000" stroke-width="1" stroke-linecap="butt"/><path d="M383.58191,452.06598v-229.32884h214.15205v229.32884z" fill="#000000" stroke="#000000" stroke-width="1" stroke-linecap="butt"/><path d="M537.58183,225.73714v-40h60.36716v40z" fill="#000000" stroke="#000000" stroke-width="1" stroke-linecap="butt"/><path d="M-0.61808,143.04026v-144h171v144z" fill="#000000" stroke="#000000" stroke-width="1" stroke-linecap="butt"/><path d="M234.38545,169.66526v-19.25h177.33333v19.25z" fill="#000000" stroke="#000000" stroke-width="1" stroke-linecap="butt"/><path d="M365.38549,61.04026c0,-7.1797 5.8203,-13 13,-13c7.1797,0 13,5.8203 13,13c0,7.1797 -5.8203,13 -13,13c-7.1797,0 -13,-5.8203 -13,-13z" fill="#000000" stroke="#000000" stroke-width="0" stroke-linecap="butt"/><path d="M377.56357,152.04026v-83" fill="none" stroke="#000000" stroke-width="10" stroke-linecap="round"/><path d="M199.38545,81.70693v-11h39v11z" fill="#000000" stroke="none" stroke-width="NaN" stroke-linecap="butt"/><path d="M169.38545,117.04026v-10h30v10z" fill="#000000" stroke="none" stroke-width="0" stroke-linecap="butt"/><path d="M234.38545,169.04026v-98h16v98z" fill="#000000" stroke="#000000" stroke-width="1" stroke-linecap="butt"/><path d="M131.38539,217.04026v-12h158v12z" fill="#000000" stroke="none" stroke-width="0" stroke-linecap="butt"/><path d="M50.28993,259.17116v-13h85v13z" fill="#000000" stroke="none" stroke-width="0" stroke-linecap="butt"/><path d="M183.28993,450v-233.32884h106v233.32884z" fill="#000000" stroke="none" stroke-width="0" stroke-linecap="butt"/><path d="M-1.06814,465.94655v-270.27027h25.52553v270.27027z" fill="#000000" stroke="none" stroke-width="0" stroke-linecap="butt"/><path d="M23.03123,316.81141v-10h40v10z" fill="#000000" stroke="none" stroke-width="0" stroke-linecap="butt"/><path d="M24.03123,460.81141v-124h160v124z" fill="#000000" stroke="none" stroke-width="0" stroke-linecap="butt"/><path d="M146.03123,316.31141v-10h40v10z" fill="#000000" stroke="none" stroke-width="0" stroke-linecap="butt"/><path d="M286.63464,473.93402v-160h99v160z" fill="#000000" stroke="#000000" stroke-width="1" stroke-linecap="butt"/><path d="M249.81319,105.60407v-6h23.5v6z" fill="#000000" stroke="#000000" stroke-width="1" stroke-linecap="butt"/><path d="M65.38541,274.04026l-14.58333,-15.14552h14.58333v-115.85448h28v115.81178h17.5l-17.5,15.18823z" fill="#000000" stroke="#000000" stroke-width="0" stroke-linecap="butt"/><path d="M356.88548,255.79026l27.5,-27.5" fill="none" stroke="#000000" stroke-width="12" stroke-linecap="round"/><path d="M163.66043,206.08666v-35.5h35.5v35.5z" fill="#000000" stroke="none" stroke-width="0" stroke-linecap="butt"/><path d="M379.50033,154.68627v-40h36v40z" fill="#000000" stroke="none" stroke-width="0" stroke-linecap="butt"/></g></g></svg>