<svg version="1.1" xmlns="http://www.w3.org/2000/svg" xmlns:xlink="http://www.w3.org/1999/xlink" width="487.26947" height="455.85801" viewBox="0,0,487.26947,455.85801"><g transform="translate(3.70242,5.15529)"><g data-paper-data="{&quot;isPaintingLayer&quot;:true}" fill="#000000" fill-rule="nonzero" stroke-linecap="butt" stroke-linejoin="miter" stroke-miterlimit="10" stroke-dasharray="" stroke-dashoffset="0" style="mix-blend-mode: normal"><path d="M-3.5152,93.97327v-99h72v99z" stroke="none" stroke-width="0"/><path d="M-3.70242,364.16371v-273.1021h38.63364v273.1021z" stroke="none" stroke-width="0"/><path d="M160.14443,36.93247v-42.04204h322.82282v42.04204z" stroke="none" stroke-width="0"/><path d="M436.42073,271.16671v-243.24325h46.54655v243.24325z" stroke="none" stroke-width="0"/><path d="M313.2976,272.16371v-106.1021h133.63363v106.1021z" stroke="none" stroke-width="0"/><path d="M165.98179,-2.96075v12.42564z" stroke="#000000" stroke-width="2.5"/><path d="M165.98179,9.51544v12.42564z" stroke="#000000" stroke-width="2.5"/><path d="M-1.38649,101.28554v-12.42564h92.83334v12.42564z" stroke="#000000" stroke-width="2.5"/><path d="M165.99262,59.43668c0,0 -16.72313,0 -20.89061,0c-1.75559,0 -3.94272,-2.51512 -3.94272,-4.09362c0,-4.0367 0,-57.73972 0,-57.73972h24.83333z" data-paper-data="{&quot;index&quot;:null}" stroke="#000000" stroke-width="2.5"/><path d="M91.44145,126.17352c0,0 -16.72313,0 -20.89061,0c-1.75559,0 -3.94272,-2.51512 -3.94272,-4.09362c0,-4.0367 0,-125.96945 0,-125.96945l24.83333,0.31081z" data-paper-data="{&quot;index&quot;:null}" stroke="#000000" stroke-width="2.5"/><path d="M90.13524,101.27538c0,0 117.78319,0 121.95067,0c1.75559,0 3.94272,2.51512 3.94272,4.09362c0,4.0367 0,20.73972 0,20.73972h-125.89339z" data-paper-data="{&quot;index&quot;:null}" stroke="#000000" stroke-width="2.5"/><path d="M166.16745,34.68906c0,0 265.65782,0 269.8253,0c1.75559,0 3.94272,2.51512 3.94272,4.09362c0,4.0367 0,20.73972 0,20.73972h-273.82207z" data-paper-data="{&quot;index&quot;:null}" stroke="#000000" stroke-width="2.5"/><path d="M439.90766,59.51796v85.99641h-24.83334v-85.99641z" data-paper-data="{&quot;index&quot;:null}" stroke="#000000" stroke-width="2.5"/><path d="M439.91754,146.88372c0,0 0,16.72313 0,20.89061c0,1.75559 -2.51512,3.94272 -4.09362,3.94272c-4.0367,0 -20.73972,0 -20.73972,0v-24.83333z" data-paper-data="{&quot;index&quot;:null}" stroke="#000000" stroke-width="2.5"/><path d="M415.61197,171.69205h-124.83333c0,0 0,-16.70302 0,-20.73972c0,-1.5785 2.18713,-4.09362 3.94272,-4.09362c4.16748,0 120.68866,0 120.68866,0z" data-paper-data="{&quot;index&quot;:null}" stroke="#000000" stroke-width="2.5"/><path d="M315.62193,171.71656v86.42564h-24.83334v-86.42564z" data-paper-data="{&quot;index&quot;:null}" stroke="#000000" stroke-width="2.5"/><path d="M216.02669,125.05465v38.42564h-24.83334v-38.42564z" data-paper-data="{&quot;index&quot;:null}" stroke="#000000" stroke-width="2.5"/><path d="M191.18657,213.41965v-12.42564h49.97619v12.42564z" stroke="#000000" stroke-width="2.5"/><path d="M482.29125,259.00158l-0.5075,24.83333c0,0 -182.86218,0 -186.89888,0c-1.5785,0 -4.09362,-2.18713 -4.09362,-3.94272c0,-4.16748 0,-20.89061 0,-20.89061z" data-paper-data="{&quot;index&quot;:null}" stroke="#000000" stroke-width="2.5"/><path d="M216.03076,212.42012c0,0 0,30.22313 0,34.39061c0,1.75559 -2.51512,3.94272 -4.09362,3.94272c-4.0367,0 -20.73972,0 -20.73972,0v-38.33333z" data-paper-data="{&quot;index&quot;:null}" stroke="#000000" stroke-width="2.5"/><path d="M190.633,225.93286v12.42564h-74.24444v-12.42564z" data-paper-data="{&quot;index&quot;:null}" stroke="#000000" stroke-width="2.5"/><path d="M191.72034,238.37096v12.42564h-100.32136v-12.42564z" data-paper-data="{&quot;index&quot;:null}" stroke="#000000" stroke-width="2.5"/><path d="M41.50588,250.72804h-24.83333c0,0 0,-16.70302 0,-20.73972c0,-1.5785 2.18713,-4.09362 3.94272,-4.09362c4.16748,0 20.89061,0 20.89061,0z" data-paper-data="{&quot;index&quot;:null}" stroke="#000000" stroke-width="2.5"/><path d="M41.51071,250.80116v87.92564h-24.83334v-87.92564z" data-paper-data="{&quot;index&quot;:null}" stroke="#000000" stroke-width="2.5"/><path d="M65.03859,288.2213v12.42564h-48.33334v-12.42564z" data-paper-data="{&quot;index&quot;:null}" stroke="#000000" stroke-width="2.5"/><path d="M41.56471,362.95493c0,0 -16.72313,0 -20.89061,0c-1.75559,0 -3.94272,-2.51512 -3.94272,-4.09362c0,-4.0367 0,-20.73972 0,-20.73972h24.83333z" data-paper-data="{&quot;index&quot;:null}" stroke="#000000" stroke-width="2.5"/><path d="M41.54798,350.5127v-12.42564h438.63334v12.42564z" data-paper-data="{&quot;index&quot;:null}" stroke="#000000" stroke-width="2.5"/><path d="M41.44025,225.8381h-12.42564v-124.44444h12.42564z" data-paper-data="{&quot;index&quot;:null}" stroke="#000000" stroke-width="2.5"/><path d="M-2.51925,450.70272v-100.96243h482.97898v100.96243z" stroke="none" stroke-width="0"/><path d="M66.60904,51.38389v-12.42564h49.83334v12.42564z" stroke="#000000" stroke-width="2.5"/></g></g></svg>