<svg version="1.1" xmlns="http://www.w3.org/2000/svg" xmlns:xlink="http://www.w3.org/1999/xlink" width="121.8444" height="105.15926" viewBox="0,0,121.8444,105.15926"><g transform="translate(-116.28755,-186.23841)"><g data-paper-data="{&quot;isPaintingLayer&quot;:true}" fill="#000000" fill-rule="nonzero" stroke="none" stroke-width="0" stroke-linecap="butt" stroke-linejoin="miter" stroke-miterlimit="10" stroke-dasharray="" stroke-dashoffset="0" style="mix-blend-mode: normal"><g><path d="M199.39399,288.8445h2.68774v2.27391h-2.68774z"/><path d="M200.78027,281.82095l2.10745,5.76583l-2.10745,3.6109l-2.38416,-3.6109z"/></g><g><path d="M195.01465,288.7072h2.68774v2.2739h-2.68774z"/><path d="M196.40093,281.68362l2.10747,5.76582l-2.10747,3.61091l-2.38416,-3.61091z"/></g><g><path d="M190.70305,288.55327h2.68775v2.2739h-2.68775z"/><path d="M192.08934,281.52968l2.10747,5.76582l-2.10747,3.61092l-2.38415,-3.61092z"/></g><g><path d="M185.77324,288.80327h2.68774v2.2739h-2.68774z"/><path d="M187.15958,281.77968l2.10747,5.76582l-2.10747,3.61092l-2.38415,-3.61092z"/></g><g><path d="M180.77575,288.55327h2.68775v2.2739h-2.68775z"/><path d="M182.16205,281.52968l2.10746,5.76582l-2.10746,3.61092l-2.38415,-3.61092z"/></g><g><path d="M176.0722,288.55327h2.68775v2.2739h-2.68775z"/><path d="M177.4585,281.52968l2.10747,5.76582l-2.10747,3.61092l-2.38414,-3.61092z"/></g><g><path d="M171.32156,288.49629h2.68775v2.2739h-2.68775z"/><path d="M172.70784,281.47272l2.10746,5.76583l-2.10746,3.6109l-2.38415,-3.6109z"/></g><g><path d="M166.71598,288.49629h2.68775v2.2739h-2.68775z"/><path d="M168.1023,281.47272l2.10746,5.76583l-2.10746,3.6109l-2.38416,-3.6109z"/></g><g><path d="M161.8164,288.49629h2.68775v2.2739h-2.68775z"/><path d="M163.20272,281.47272l2.10747,5.76583l-2.10747,3.6109l-2.38414,-3.6109z"/></g><g><path d="M156.86602,288.50564h2.68775v2.27391h-2.68775z"/><path d="M158.25228,281.48207l2.10747,5.76583l-2.10747,3.61091l-2.38415,-3.61091z"/></g><g><path d="M209.23225,288.55327h2.68775v2.2739h-2.68775z"/><path d="M210.61853,281.52968l2.10747,5.76582l-2.10747,3.61092l-2.38416,-3.61092z"/></g><g><path d="M204.7078,288.49629h2.68776v2.2739h-2.68776z"/><path d="M206.09412,281.47272l2.10747,5.76583l-2.10747,3.6109l-2.38414,-3.6109z"/></g><g><path d="M223.93442,289.0445h2.86222v2.27391h-2.86222z"/><path d="M225.41069,282.02095l2.24427,5.76583l-2.24427,3.6109l-2.53893,-3.6109z"/></g><g><path d="M219.27082,288.9072h2.86222v2.2739h-2.86222z"/><path d="M220.74709,281.88361l2.24429,5.76582l-2.24429,3.61091l-2.53893,-3.61091z"/></g><g><path d="M214.67931,288.75327h2.86223v2.2739h-2.86223z"/><path d="M216.15559,281.72969l2.24429,5.76582l-2.24429,3.61092l-2.53893,-3.61092z"/></g><g><path d="M234.4114,288.75327h2.86222v2.2739h-2.86222z"/><path d="M235.88767,281.72969l2.24429,5.76582l-2.24429,3.61092l-2.53893,-3.61092z"/></g><g><path d="M229.59324,288.69629h2.86224v2.2739h-2.86224z"/><path d="M231.06953,281.67273l2.24429,5.76583l-2.24429,3.6109l-2.53892,-3.6109z"/></g><g><path d="M123.36809,189.73218v-2.68775h2.2739v2.68775z"/><path d="M116.34451,188.34589l5.76582,-2.10747l3.61092,2.10747l-3.61092,2.38415z"/></g><g><path d="M123.61809,194.662v-2.68774h2.2739v2.68774z"/><path d="M116.59451,193.27567l5.76582,-2.10747l3.61092,2.10747l-3.61092,2.38415z"/></g><g><path d="M123.36809,199.65948v-2.68775h2.2739v2.68775z"/><path d="M116.34451,198.27318l5.76582,-2.10746l3.61092,2.10746l-3.61092,2.38415z"/></g><g><path d="M123.36809,204.36305v-2.68775h2.2739v2.68775z"/><path d="M116.34451,202.97675l5.76582,-2.10747l3.61092,2.10747l-3.61092,2.38414z"/></g><g><path d="M123.31111,209.11369v-2.68775h2.2739v2.68775z"/><path d="M116.28755,207.72741l5.76583,-2.10746l3.6109,2.10746l-3.6109,2.38415z"/></g><g><path d="M123.31111,213.71925v-2.68775h2.2739v2.68775z"/><path d="M116.28755,212.33295l5.76583,-2.10746l3.6109,2.10746l-3.6109,2.38416z"/></g><g><path d="M123.31111,218.61883v-2.68775h2.2739v2.68775z"/><path d="M116.28755,217.23251l5.76583,-2.10747l3.6109,2.10747l-3.6109,2.38414z"/></g></g></g></svg>