<svg version="1.1" xmlns="http://www.w3.org/2000/svg" xmlns:xlink="http://www.w3.org/1999/xlink" width="22.48419" height="36.82062" viewBox="0,0,22.48419,36.82062"><defs><linearGradient x1="240.92746" y1="162.46963" x2="238.87471" y2="178.26704" gradientUnits="userSpaceOnUse" id="color-1"><stop offset="0" stop-color="#000000"/><stop offset="1" stop-color="#000000"/></linearGradient><linearGradient x1="230.44521" y1="165.95614" x2="250.57183" y2="165.95614" gradientUnits="userSpaceOnUse" id="color-2"><stop offset="0" stop-color="#3f2e16"/><stop offset="1" stop-color="#523e22"/></linearGradient><linearGradient x1="234.37423" y1="162.81971" x2="247.11234" y2="162.81971" gradientUnits="userSpaceOnUse" id="color-3"><stop offset="0" stop-color="#3f2e16"/><stop offset="1" stop-color="#523e22"/></linearGradient><linearGradient x1="228.96886" y1="182.64257" x2="246.33982" y2="182.64257" gradientUnits="userSpaceOnUse" id="color-4"><stop offset="0" stop-color="#3f2e16"/><stop offset="1" stop-color="#523e22"/></linearGradient></defs><g transform="translate(-228.45684,-158.59221)"><g data-paper-data="{&quot;isPaintingLayer&quot;:true}" fill-rule="nonzero" stroke-linejoin="miter" stroke-miterlimit="10" stroke-dasharray="" stroke-dashoffset="0" style="mix-blend-mode: normal"><path d="M231.66608,170.10488c0.62347,-4.79806 4.76993,-8.21641 9.26139,-7.63519c4.49144,0.58121 7.62708,4.94197 7.00361,9.73997c-0.62347,4.79806 -4.16126,7.4219 -8.65269,6.84069c-4.49144,-0.58121 -8.23574,-4.14741 -7.61227,-8.94545z" fill="#000000" stroke="url(#color-1)" stroke-width="0.5" stroke-linecap="butt"/><path d="M238.97747,170.94279c0.35539,-1.39443 1.47618,-2.25843 2.50337,-1.92983c1.02719,0.32861 1.57178,1.72536 1.2164,3.11978c-0.35539,1.39443 -1.47619,2.25843 -2.50337,1.92984c-1.02719,-0.32861 -1.57177,-1.72536 -1.2164,-3.11979z" fill="#ffffff" stroke="none" stroke-width="0" stroke-linecap="butt"/><path d="M250.56602,167.25121c-0.18696,1.43419 -4.84144,2.01702 -10.39603,1.30178c-5.55462,-0.71525 -9.90594,-2.4577 -9.71898,-3.8919c0.18696,-1.43419 4.84143,-2.01703 10.39602,-1.30179c5.55462,0.71525 9.90595,2.45772 9.71899,3.8919z" fill="url(#color-2)" stroke="#000000" stroke-width="0.75" stroke-linecap="butt"/><path d="M234.38405,163.04315c0.17827,-0.40602 0.51243,-0.93584 0.73002,-1.50835c0.25385,-0.66797 0.37941,-1.35393 0.37941,-1.35393c0,0 3.92938,-1.48632 6.37905,-1.16931c2.44965,0.31699 5.25877,2.65991 5.21758,2.97688c-0.05786,0.44531 -0.11772,1.51562 0.01964,2.4528c0.11785,0.804 -3.80779,2.62929 -7.21002,2.15284c-3.09771,-0.43382 -5.70609,-3.11724 -5.5157,-3.55093z" fill="url(#color-3)" stroke="#000000" stroke-width="0.75" stroke-linecap="butt"/><path d="M243.646,171.17541c0.3413,-1.3963 1.37914,-2.27124 2.31812,-1.95432c0.93899,0.31694 1.42348,1.70576 1.08219,3.10204c-0.3413,1.3963 -1.37916,2.27125 -2.31812,1.95432c-0.93899,-0.31694 -1.42348,-1.70577 -1.08219,-3.10204z" fill="#ffffff" stroke="none" stroke-width="0" stroke-linecap="butt"/><path d="M239.06176,184.14799c0,0 -0.42108,2.56182 -0.6311,3.83959c-0.12952,0.78797 -0.28394,2.48291 -0.38287,3.66086c-0.06095,0.72591 -0.64682,2.51439 -0.64682,2.51439" fill="none" stroke="#000000" stroke-width="2.5" stroke-linecap="round"/><path d="M242.36172,184.1641c0,0 -0.41652,2.53414 -0.62564,3.80634c-0.09351,0.56882 -0.79936,4.23691 -0.79936,4.23691" fill="none" stroke="#000000" stroke-width="2.5" stroke-linecap="round"/><path d="M230.84777,182.45527c0.04969,-0.69 0.18595,-0.6947 0.49233,-1.31282c0.22951,-0.46307 0.49393,-1.11435 0.82598,-1.42715c0.57203,-0.5389 0.27723,-1.46238 0.46492,-1.87847c0.22195,-0.49206 0.00957,-0.83763 -0.06117,-1.36895c-0.10434,-0.78372 0.13687,-1.7619 0.13687,-1.7619c0,0 4.2411,2.8208 6.67331,3.14031c2.49177,0.32735 6.8618,-1.77804 6.8618,-1.77804c0,0 -0.37248,1.90467 -0.50966,2.58108c0.08822,0.6619 0.20167,1.32486 0.08968,1.91133c-0.03669,0.19214 0.49095,1.17922 0.51594,1.31703c0.0417,0.23008 -0.56113,0.48926 -0.82173,1.13438c-0.14716,0.36427 0.27395,1.20404 0.28235,1.24439c0.05397,0.25897 0.07988,0.82716 -0.20186,1.59492c-0.29135,0.79393 -1.24011,0.6713 -1.38888,1.03746c-0.11452,0.28185 0.24386,1.62072 0.14026,2.25909c-0.19123,1.17843 -1.61099,1.43123 -1.61099,1.43123c0,0 0.08217,-0.79098 -1.87441,-1.15965c-0.75074,-0.14146 -1.93355,0.52892 -3.16515,0.59295c-0.7192,0.03739 -1.59274,-0.39498 -2.04322,-0.62241c-2.7356,-1.38112 -2.45258,0.37863 -3.61779,0.2316c-1.46524,-0.18489 -3.06749,-1.69709 -3.06749,-1.69709c0,0 0.0963,-1.74582 0.64389,-2.33347c0,0 -0.06429,-0.8737 0.30137,-1.80777c0.16877,-0.43112 0.92726,-1.23949 0.93364,-1.32803z" fill="url(#color-4)" stroke="#000000" stroke-width="1" stroke-linecap="butt"/><path d="M241.88218,177.78422c0,0 -0.23039,0.91699 -0.2671,1.67515c-0.01286,0.26542 0.167,1.0616 0.21523,1.5142c0.04298,0.40339 -0.06844,0.9029 -0.078,1.39468c-0.00465,0.23973 -0.4354,0.60518 -0.46996,0.96621c-0.04868,0.50846 0.29375,1.03262 0.27941,1.39778c-0.01273,0.32446 -0.4527,0.74293 -0.34936,1.35814c0.10073,0.59965 0.40481,1.19675 0.41329,1.47649c0.04859,1.60255 -0.64808,1.92425 -0.64808,1.92425" fill="none" stroke="#000000" stroke-width="0.5" stroke-linecap="round"/><path d="M241.15892,179.42781c0.01566,-0.30393 0.28145,-0.53726 0.59363,-0.52117c0.31219,0.01609 0.55256,0.27552 0.5369,0.57943c-0.01566,0.30393 -0.28144,0.53726 -0.59362,0.52117c-0.31219,-0.01609 -0.55257,-0.27552 -0.53691,-0.57943z" fill="#000000" stroke="#000000" stroke-width="0.5" stroke-linecap="butt"/><path d="M241.19299,182.04922c0.01566,-0.30393 0.28145,-0.53726 0.59363,-0.52117c0.31219,0.01609 0.55257,0.27552 0.53691,0.57943c-0.01566,0.30393 -0.28145,0.53726 -0.59363,0.52117c-0.31219,-0.01609 -0.55257,-0.27552 -0.53691,-0.57943z" fill="#000000" stroke="#000000" stroke-width="0.5" stroke-linecap="butt"/><path d="M240.80059,184.68848c0.01566,-0.30393 0.28144,-0.53726 0.59362,-0.52117c0.31219,0.01609 0.55257,0.27552 0.53691,0.57943c-0.01566,0.30393 -0.28145,0.53726 -0.59363,0.52117c-0.31219,-0.01609 -0.55256,-0.27552 -0.5369,-0.57943z" fill="#000000" stroke="#000000" stroke-width="0.5" stroke-linecap="butt"/><path d="M240.95469,187.37846c0.01566,-0.30393 0.28144,-0.53726 0.59362,-0.52117c0.31219,0.01609 0.55257,0.27552 0.53691,0.57943c-0.01566,0.30393 -0.28145,0.53726 -0.59363,0.52117c-0.31219,-0.01609 -0.55256,-0.27552 -0.5369,-0.57943z" fill="#000000" stroke="#000000" stroke-width="0.5" stroke-linecap="butt"/></g></g></svg>