<svg version="1.1" xmlns="http://www.w3.org/2000/svg" xmlns:xlink="http://www.w3.org/1999/xlink" width="92.82957" height="119.24802" viewBox="0,0,92.82957,119.24802"><defs><radialGradient cx="272.74172" cy="192.32786" r="6.48727" gradientUnits="userSpaceOnUse" id="color-1"><stop offset="0" stop-color="#ff0000"/><stop offset="1" stop-color="#ff0000" stop-opacity="0"/></radialGradient><radialGradient cx="261.69424" cy="189.54246" r="6.26737" gradientUnits="userSpaceOnUse" id="color-2"><stop offset="0" stop-color="#ff0000"/><stop offset="1" stop-color="#ff0000" stop-opacity="0"/></radialGradient><linearGradient x1="219" y1="188.46572" x2="305.58119" y2="188.46572" gradientUnits="userSpaceOnUse" id="color-3"><stop offset="0" stop-color="#1e0000"/><stop offset="1" stop-color="#400000"/></linearGradient><linearGradient x1="217.09288" y1="172.19249" x2="250.04428" y2="172.19249" gradientUnits="userSpaceOnUse" id="color-4"><stop offset="0" stop-color="#6b0000"/><stop offset="1" stop-color="#ca0000"/></linearGradient></defs><g transform="translate(-214.55513,-153.39852)"><g data-paper-data="{&quot;isPaintingLayer&quot;:true}" fill-rule="nonzero" stroke-linejoin="miter" stroke-miterlimit="10" stroke-dasharray="" stroke-dashoffset="0" style="mix-blend-mode: normal"><path d="M290.66799,175.44041c0.56378,3.45301 -0.30662,7.37576 -1.45435,8.66331c-2.67363,2.9993 -9.12907,4.82248 -9.12907,4.82248c0,0 -2.25704,-3.80684 -2.62866,-5.11151c-0.33307,-1.16935 0.92265,-3.68189 0.92265,-3.68189c0,0 3.45056,1.35123 5.88501,0.3121c2.02666,-0.86506 3.10353,-4.09998 3.17706,-4.53511c0.52747,-3.12142 0.68795,-6.82315 0.68795,-6.82315c0,0 1.98309,2.94653 2.5394,6.35377z" data-paper-data="{&quot;index&quot;:null}" fill="#360000" stroke="#000000" stroke-width="2.5" stroke-linecap="butt"/><path d="M260.52302,158.41478c0,0 -2.28596,2.91599 -3.91569,5.62992c-0.22718,0.37832 -1.51347,3.53583 -0.53684,5.51115c1.17315,2.37278 4.67289,3.59094 4.67289,3.59094c0,0 -0.68055,2.72517 -1.69415,3.39668c-1.1309,0.74922 -4.79261,2.73671 -4.79261,2.73671c0,0 -4.24604,-6.14798 -4.32582,-10.16517c-0.03425,-1.7245 1.85627,-5.27014 4.53054,-7.5261c2.63883,-2.22606 6.06168,-3.17413 6.06168,-3.17413z" fill="#360000" stroke="#000000" stroke-width="2.5" stroke-linecap="butt"/><path d="M238.2737,224.86846c0,0 10.61052,8.08789 17.8711,10.7894c5.15968,1.91982 18.58923,2.0071 18.54091,3.68151c-0.0422,1.46227 3.81342,3.08507 3.56566,5.01027c-0.12492,0.97072 -1.65433,3.08692 -1.85573,4.17834c-0.4307,2.33404 1.30626,7.5934 1.30626,7.5934c0,0 -4.97051,3.24764 -5.22057,4.0246c-0.32919,1.02278 -1.03777,5.41558 -1.03777,5.41558c0,0 -3.32039,1.4092 -3.80403,2.10812c-1.83257,2.64832 -1.59024,1.98613 -2.62443,3.72686c-0.56883,0.95748 -15.05532,-5.42361 -15.14326,-4.92573c-0.0276,0.15622 0.29944,-0.61405 2.13407,-4.89008c0.30916,-0.72058 1.45047,-1.64994 2.25016,-3.01899c0.90705,-1.55285 2.95472,-2.97729 3.09405,-3.85114c0.39349,-2.4679 -1.73932,-7.9528 -1.99115,-8.73971c-0.89086,-2.78385 -4.10429,-1.68135 -4.332,-1.27157c-0.32104,0.57767 0.31507,3.22683 0.31507,3.22683c0,0 -1.91212,1.75177 -2.47177,2.60911c-0.92019,1.40963 -2.37171,5.34699 -2.37171,5.34699c0,0 -2.86921,1.53853 -3.84527,2.65189c-1.85073,2.11108 -3.244,3.53599 -3.244,3.53599c0,0 -4.39642,-1.1947 -6.26139,-1.92575c-1.80382,-0.70707 -7.8763,-4.74271 -7.8763,-4.74271c0,0 -2.01722,-1.39563 -0.14261,-4.9466c0.41432,-0.78481 3.45235,-2.92234 3.45235,-2.92234c0,0 4.83936,-2.29331 5.20434,-3.14806c0.58454,-1.36901 -0.83407,-5.69719 -0.83407,-5.69719c0,0 0.37678,-3.23133 0.97605,-4.5293c2.31744,-5.01943 4.34608,-9.28973 4.34608,-9.28973z" fill="#191919" stroke="#000000" stroke-width="2.5" stroke-linecap="butt"/><path d="M222.69526,258.8228c0.47053,-1.11286 2.23282,-5.37451 2.23282,-5.37451l15.59446,6.90041c0,0 -1.45546,4.10694 -1.94263,5.25916c-0.31613,0.74767 -16.12266,-6.22221 -15.88467,-6.78507z" fill="#000000" stroke="#000000" stroke-width="2" stroke-linecap="butt"/><path d="M249.95273,265.69572c0.4468,-1.05672 1.93936,-4.58686 1.93936,-4.58686l17.48506,7.4063c0,0 -2.86982,1.7578 -3.32449,2.83317c-0.26606,0.62925 -1.7006,1.18705 -3.1351,0.58053c-3.05568,-1.29197 -9.12619,-3.10249 -10.93035,-3.86532c-1.31961,-0.55794 -2.27044,-1.80983 -2.03451,-2.36783z" fill="#000000" stroke="#000000" stroke-width="2" stroke-linecap="butt"/><path d="M230.04675,248.23382l1.14638,-2.71135l7.91333,2.45093l7.3172,3.86084l-1.8626,2.91989l-7.35323,-2.64749z" fill="#000000" stroke="#000000" stroke-width="2.5" stroke-linecap="butt"/><path d="M256.44147,257.96999l-0.11235,-3.67308l8.8511,0.56713l7.93438,2.71152l-0.7494,3.83668l-8.17055,-0.60464z" fill="#000000" stroke="#000000" stroke-width="2.5" stroke-linecap="butt"/><path d="M252.30922,189.65459c0.64592,-3.28532 -0.50836,-16.07533 2.16446,-13.73786c2.1895,1.91479 4.55855,5.26843 4.55855,5.26843l3.48585,-3.17069l2.50832,4.75313c0,0 1.50292,-8.29267 2.22084,-7.17943c0.08693,0.13478 2.21449,3.41647 2.21449,3.41647l4.07816,1.54966l-0.55494,3.54167l3.5039,-3.64607c0,0 1.66882,2.93271 2.13769,3.56208c3.57696,4.80116 0.51017,9.21344 0.62621,11.14497c0.33532,5.58173 -7.5479,8.98259 -14.84014,7.54889c-7.29225,-1.4337 -13.28333,-7.04967 -12.10338,-13.05123z" data-paper-data="{&quot;index&quot;:null}" fill="#000000" stroke="none" stroke-width="0" stroke-linecap="butt"/><path d="M272.46159,194.6788c-2.25786,-0.22927 -4.0843,-1.854 -4.07954,-3.62895c0.00309,-1.15166 0.5265,-1.85551 1.68596,-2.30538c0.6275,-0.24347 1.72424,0.97156 2.5171,1.05206c0.95575,0.09704 1.80877,0.01296 2.41391,0.32614c0.82441,0.42665 1.56216,0.73385 1.55942,1.75746c-0.00479,1.77493 -1.83896,3.02796 -4.09682,2.79868z" data-paper-data="{&quot;index&quot;:null}" fill="#7b0000" stroke="none" stroke-width="0" stroke-linecap="butt"/><path d="M261.63794,193.06861c-2.25784,-0.22926 -4.0843,-1.854 -4.07955,-3.62895c0.00225,-0.83882 0.01834,-1.63871 0.68942,-2.14302c0.74888,-0.56281 2.66515,1.11327 3.85595,1.23418c2.25784,0.22926 3.63577,-0.03583 3.631,1.73911c-0.00479,1.77493 -1.83896,3.02796 -4.09682,2.79868z" data-paper-data="{&quot;index&quot;:null}" fill="#7b0000" stroke="none" stroke-width="0" stroke-linecap="butt"/><path d="M238.34713,241.17788c-0.26849,-1.13375 -2.56565,-3.3267 -2.56565,-3.3267l-1.98717,-2.62249c0,0 3.85338,-2.33626 4.05563,-3.59667c0.01118,-0.06965 0.25857,-2.46613 0.25857,-2.46613l-3.14563,-1.82201l5.44733,-4.67385l-3.46668,-0.44497c0,0 4.36381,-1.63999 8.10591,-6.3527c5.00809,-6.30703 9.36566,-15.72206 10.80568,-15.46679c2.12,0.3758 0.34501,2.93504 8.91473,4.32803c10.10744,1.64298 8.57757,-4.30668 9.83049,-1.42821c0.16626,0.38198 -2.99051,9.14723 -2.06231,16.53224c0.17208,1.36905 4.42143,4.48989 6.43676,6.15471c3.17834,2.6256 4.25692,5.10053 4.25692,5.10053l-5.66046,2.37817l4.74627,2.80314l-5.20723,2.91744c0,0 3.1181,2.33727 3.14058,3.26079c0.02023,0.83107 -3.01176,2.03228 -3.01176,2.03228l-3.37919,5.09882c0,0 -2.92167,-0.7251 -5.28766,-0.49644c-1.42884,0.13809 -5.53236,1.50405 -7.70858,0.98506c-2.56103,-0.61076 -3.24409,-3.15593 -5.35981,-3.47021c0,0 -1.96034,1.88757 -4.45826,1.44349c-1.81346,-0.3224 -3.07549,-2.4534 -4.9761,-3.52178c-1.29691,-0.72901 -3.34114,-0.45199 -4.29149,-0.7781c-1.0845,-0.37214 -1.45646,-2.97484 -1.4751,-3.05353z" data-paper-data="{&quot;index&quot;:null}" fill="#191919" stroke="#000000" stroke-width="2.5" stroke-linecap="butt"/><path d="M266.37633,191.07638c0.69118,-3.51552 4.10137,-5.80511 7.6169,-5.11393c3.51552,0.69118 5.80511,4.10137 5.11393,7.6169c-0.69118,3.51552 -4.10137,5.80511 -7.6169,5.11393c-3.51552,-0.69118 -5.80511,-4.10137 -5.11393,-7.6169z" fill="url(#color-1)" stroke="none" stroke-width="0" stroke-linecap="butt"/><path d="M267.14716,203.46707c-2.18745,-1.1573 0.70776,-4.79221 0.91324,-5.83739c0.19073,-0.97008 4.41287,-0.00289 6.59428,-1.35312c1.63096,-1.00952 1.68207,-4.33686 2.29671,-5.6061c0.41492,-0.8568 5.6567,-2.05881 5.6567,-2.05881l-2.76116,12.90418c0,0 -10.98745,2.85721 -12.69978,1.95126z" fill="#191919" stroke="#000000" stroke-width="2" stroke-linecap="butt"/><path d="M255.5446,188.33341c0.66774,-3.39635 3.96233,-5.60832 7.35869,-4.94057c3.39635,0.66774 5.60833,3.96234 4.94058,7.35869c-0.66774,3.39635 -3.96235,5.60833 -7.3587,4.94058c-3.39635,-0.66774 -5.60832,-3.96234 -4.94057,-7.3587z" fill="url(#color-2)" stroke="none" stroke-width="0" stroke-linecap="butt"/><path d="M249.29514,196.18149l2.58119,-11.70894l4.2022,2.28496c0,0 -0.84246,3.59255 -1.23872,5.80928c-0.09599,0.53694 6.61286,2.00699 8.62317,4.28483c1.63403,1.85146 -1.34245,4.54887 -1.4608,5.19635c-0.25911,1.41753 -8.38419,-2.77541 -8.38419,-2.77541z" fill="#191919" stroke="#000000" stroke-width="2" stroke-linecap="butt"/><path d="M275.99759,237.33629c0,0 -4.11727,-1.04366 -5.79733,-1.35905c-2.28321,-0.42863 -4.805,2.12963 -6.60195,1.49348c-3.57266,-1.26475 -1.74485,-3.73516 -5.27127,-4.461c-2.19469,-0.45173 -4.57763,2.1739 -6.92841,2.41034c-2.77882,0.27948 -2.36376,-4.54686 -3.93653,-4.93922c-0.36275,-0.09049 -4.5046,0.57102 -4.87288,0.48376c-5.32012,-1.26078 -6.72857,-4.42365 -6.72857,-4.42365" fill="none" stroke="#000000" stroke-width="2.5" stroke-linecap="round"/><path d="M252.54295,184.80994l-0.3914,-4.84876l1.86168,0.81917l0.36064,-5.28302l1.38545,2.10829l4.29122,-5.37141l-0.36629,2.23563l5.47529,-3.7607c0,0 3.31469,-1.09511 4.59462,-0.84347c1.28178,0.25201 2.86659,1.15049 4.38058,2.18061c0.84064,0.57198 3.14354,5.65444 3.14354,5.65444l1.05883,-2.19338l2.41309,7.50237l2.29753,-1.74598l-1.51919,5.98336l2.31772,-0.92558l-2.60505,4.13067c0,0 -10.25245,0.35731 -15.12199,-0.60007c-4.68979,-0.92204 -13.5763,-5.04219 -13.5763,-5.04219z" fill="#191919" stroke="#000000" stroke-width="2" stroke-linecap="butt"/><path d="M282.9223,228.28151c0,0 -4.3769,-0.87604 -6.15497,-1.12816c-2.4164,-0.34265 -4.86771,2.16958 -6.79093,1.615c-3.82372,-1.1026 -2.09125,-3.51101 -5.82798,-4.1011c-2.32557,-0.36725 -4.62696,2.20521 -7.06623,2.49864c-2.88343,0.34687 -2.79617,-4.26704 -4.46767,-4.59567c-0.38553,-0.0758 -4.66571,0.67477 -5.05677,0.6022c-5.6493,-1.04827 -7.34798,-4.02333 -7.34798,-4.02333" fill="none" stroke="#000000" stroke-width="2.5" stroke-linecap="round"/><path d="M288.22693,189.65175c0.04024,-0.71548 16.12204,15.54756 9.72212,28.00607c-21.15467,1.07472 -15.11987,-6.45595 -15.11987,-6.45595" data-paper-data="{&quot;index&quot;:null}" fill="none" stroke="#101010" stroke-width="14" stroke-linecap="round"/><path d="M275.74403,222.3845c0,0 -2.49835,-2.15061 -3.17343,-4.67512c-0.06987,-0.26125 2.175,-0.88381 1.93122,-1.41316c-0.40751,-0.8849 -3.28183,-1.83358 -2.6951,-2.77226c0.49944,-0.79903 2.5219,-0.75207 2.61876,-1.86122c0.10168,-1.1643 -0.70818,-1.14148 -1.28958,-2.53681c-0.23884,-0.57321 -1.10354,-0.61141 -1.07548,-1.39385c0.04616,-1.28712 1.11424,-3.33276 1.05639,-3.80857c-0.38765,-3.18846 11.82025,-2.07931 11.82025,-2.07931l0.65517,3.77996l5.08931,-0.09809c0,0 -2.09024,2.44142 -2.17519,3.15771c-0.04003,0.33745 3.31516,2.44027 3.31516,2.44027c0,0 -3.12938,1.18064 -3.38255,2.59867c-0.22654,1.26893 0.68122,5.35652 0.68122,5.35652c0,0 -4.24332,-0.90163 -4.50358,-0.40129c-0.91203,1.7533 -0.41853,4.02393 -0.41853,4.02393z" fill="#191919" stroke="#000000" stroke-width="2.5" stroke-linecap="butt"/><path d="M275.56361,194.15071c0.82642,-0.49471 -2.52085,15.99231 -13.96856,18.92894c-13.45775,0.29967 -16.22635,-7.54419 -16.22635,-7.54419" fill="none" stroke="#101010" stroke-width="14" stroke-linecap="round"/><path d="M236.94263,214.69692c0,0 1.31639,-1.91481 1.136,-3.88287c-0.05149,-0.56163 -4.3203,-1.33354 -4.3203,-1.33354c0,0 2.38768,-3.43969 2.65839,-4.69993c0.30252,-1.40833 -2.14698,-3.68582 -2.14698,-3.68582c0,0 3.90154,-0.67611 3.99224,-1.00359c0.19254,-0.69514 -0.81785,-3.74616 -0.81785,-3.74616l4.67339,2.0175l2.03742,-3.25058c0,0 11.71917,3.59505 10.15328,6.39944c-0.23367,0.41849 -0.01953,2.71624 -0.46408,3.92502c-0.27024,0.73483 -1.08505,0.44283 -1.52311,0.88296c-1.06636,1.07137 -1.8073,0.74366 -2.15397,1.85979c-0.33025,1.06326 1.55947,1.78546 1.71923,2.7141c0.1877,1.09093 -2.83183,0.88085 -3.54402,1.54562c-0.42603,0.39766 1.41606,1.82373 1.25248,2.03909c-1.58055,2.08104 -4.70713,3.12575 -4.70713,3.12575z" data-paper-data="{&quot;index&quot;:null}" fill="#191919" stroke="#000000" stroke-width="2.5" stroke-linecap="butt"/><g data-paper-data="{&quot;index&quot;:null}" stroke="#000000"><g data-paper-data="{&quot;index&quot;:null}"><path d="M217.13657,168.49103l-0.82045,-6.60564l4.4622,1.16175l-0.09574,-4.67431l4.19268,1.96768l2.53919,-4.53612l3.58453,3.36246l4.37211,-3.19744l3.50588,3.99706l4.1812,-1.52995l1.71021,5.16684l4.96085,-1.57882l0.15015,4.70404" fill="#000000" stroke-width="3" stroke-linecap="round"/><g data-paper-data="{&quot;index&quot;:null}"><path d="M221.27539,184.05463l81.66781,1.53723l2.638,7.28502l-82.80534,-2.68721c0,0 -3.49497,-2.31725 -3.76108,-3.4053c-0.22822,-0.9331 2.26061,-2.7298 2.26061,-2.7298z" fill="url(#color-3)" stroke-width="2.5" stroke-linecap="butt"/><path d="M247.72578,184.68384l-20.42795,-1.1505l-10.20495,-14.04656c0,0 3.99416,-9.70679 17.41069,-9.78544c8.37141,-0.04909 15.54071,8.56794 15.54071,8.56794z" fill="url(#color-4)" stroke-width="3" stroke-linecap="round"/></g></g><path d="M233.32084,168.53806l-0.3617,-7.05739" fill="none" stroke-width="2.5" stroke-linecap="round"/><path d="M239.70546,166.76802l0.02185,-5.09576" fill="none" stroke-width="2.5" stroke-linecap="round"/><path d="M226.37645,162.61881l0.25476,5.24039" fill="none" stroke-width="2.5" stroke-linecap="round"/></g><path d="M287.10812,188.69135c-0.60566,3.08058 -6.90342,7.10579 -8.40855,8.18864c-0.38293,0.2755 -3.69844,-0.46619 -6.65884,-1.94755c-2.31024,-1.15602 -4.44359,-3.06909 -4.54063,-3.29371c-0.21246,-0.49173 0.21384,-7.31841 4.58634,-10.56335c2.38478,-1.76979 6.20068,-0.41286 7.87222,-0.08422c4.73635,0.93119 8.10547,2.83753 7.14944,7.70018z" fill="#000000" stroke="#000000" stroke-width="1.5" stroke-linecap="butt"/><path d="M276.81251,192.00303c-3.32945,-3.6707 -1.42845,-7.04285 2.1469,-10.28582c1.2618,-1.14451 3.82909,-4.27683 6.78519,-3.99253c5.42002,0.52129 9.30992,6.1475 9.38185,6.67831c0.07496,0.55315 -1.2176,4.06618 -2.70878,6.29076c-1.49117,2.22458 -3.33905,4.04846 -4.17616,3.98042c-1.84809,-0.15021 -9.31977,-0.34566 -11.42905,-2.67111z" data-paper-data="{&quot;index&quot;:null}" fill="#000000" stroke="#000000" stroke-width="1.5" stroke-linecap="butt"/><path d="M276.93491,244.80265c0,0 -4.12231,-1.02359 -5.80388,-1.33078c-2.28526,-0.41749 -4.79458,2.15301 -6.5946,1.52565c-3.57878,-1.24732 -1.76302,-3.72663 -5.29294,-4.43527c-2.19687,-0.44103 -4.56698,2.19618 -6.91657,2.44408c-2.77742,0.29303 -2.38588,-4.53528 -3.96056,-4.91998c-0.3632,-0.08874 -4.50176,0.59297 -4.87046,0.50749c-5.32621,-1.23482 -6.75005,-4.3908 -6.75005,-4.3908" fill="none" stroke="#000000" stroke-width="2.5" stroke-linecap="round"/></g></g></svg>