<svg version="1.1" xmlns="http://www.w3.org/2000/svg" xmlns:xlink="http://www.w3.org/1999/xlink" width="497.26343" height="366.55427" viewBox="0,0,497.26343,366.55427"><g transform="translate(13.24787,3.21971)"><g data-paper-data="{&quot;isPaintingLayer&quot;:true}" fill-rule="nonzero" stroke-linejoin="miter" stroke-miterlimit="10" stroke-dasharray="" stroke-dashoffset="0" style="mix-blend-mode: normal"><path d="M393.31022,155.43273l-0.35388,66.84965" fill="#000000" stroke="#000000" stroke-width="6" stroke-linecap="round"/><path d="M400.36621,151.9715c2.46105,3.60269 1.5356,8.51833 -2.06711,10.97939c-3.60269,2.46105 -8.51835,1.53558 -10.9794,-2.06709c-2.46105,-3.60269 -1.53559,-8.51834 2.06709,-10.9794c3.60269,-2.46105 8.51833,-1.53559 10.9794,2.06712z" fill="#000000" stroke="#000000" stroke-width="NaN" stroke-linecap="butt"/><path d="M290.00002,83.21714v-5.5h60v5.5z" fill="#000000" stroke="#000000" stroke-width="2" stroke-linecap="butt"/><path d="M-5.20969,29.64815v-32.5h447v32.5z" fill="#000000" stroke="#000000" stroke-width="0" stroke-linecap="butt"/><path d="M436.29376,231.51604v-234.73574h46.74569v234.73574z" fill="#000000" stroke="#000000" stroke-width="0" stroke-linecap="butt"/><path d="M160.01556,285.50703v-60h324v60z" fill="#000000" stroke="#000000" stroke-width="0" stroke-linecap="butt"/><path d="M436.38214,362.04498v-77.62027h46.54655v77.62027z" fill="#000000" stroke="#000000" stroke-width="0" stroke-linecap="butt"/><path d="M-3.6531,362.24623v-285.58333h61.16967v285.58333z" fill="#000000" stroke="#000000" stroke-width="0" stroke-linecap="butt"/><path d="M151.91205,292.47938c0,0 0,-3.93848 0,-5.46711c0,-0.95886 16.08516,-2.82178 31.74968,-2.82178c33.59482,0 162.61002,0 224.22766,0c20.18205,0 33.13377,1.62227 33.13377,2.58113c0,1.52863 0,5.70775 0,5.70775z" data-paper-data="{&quot;index&quot;:null}" fill="#000000" stroke="#000000" stroke-width="1.5" stroke-linecap="butt"/><g data-paper-data="{&quot;index&quot;:null}" stroke-linecap="butt"><g fill="#000000" stroke="#000000" stroke-width="1.5"><path d="M162.1068,270.97648c0,10.10706 -1.84352,21.33435 -2.68088,21.33435c-2.00399,0 -9.3,0 -9.3,0v-65.78888c0,0 7.8112,0 9.33303,0c1.30638,0 2.64784,14.786 2.64784,22.39648c0,5.67853 0,13.16574 0,22.05805z"/></g><g fill="none" stroke="none" stroke-width="1" font-family="sans-serif" font-weight="normal" font-size="12" text-anchor="start"/></g><path d="M440.7731,218.97163c0,0 0,7.20422 0,9.83937c0,1.65294 -13.01892,4.44951 -33.30568,4.44951c-61.93734,0 -191.62191,0 -225.39102,0c-15.74579,0 -31.9144,-3.21142 -31.9144,-4.86436c0,-2.63514 0,-9.42453 0,-9.42453z" data-paper-data="{&quot;index&quot;:null}" fill="#000000" stroke="#000000" stroke-width="1.5" stroke-linecap="butt"/><path d="M64.87179,70.93685c0,0 0,4.17912 0,5.70775c0,0.95886 -3.0662,2.58113 -7.84412,2.58113c-14.58742,0 -45.1306,0 -53.08387,0c-3.70843,0 -7.51645,-1.86292 -7.51645,-2.82178c0,-1.52863 0,-5.46711 0,-5.46711z" data-paper-data="{&quot;index&quot;:null}" fill="#000000" stroke="#000000" stroke-width="1.5" stroke-linecap="butt"/><g data-paper-data="{&quot;index&quot;:null}" stroke-linecap="butt"><g fill="#000000" stroke="#000000" stroke-width="1.5"><path d="M-7.24013,58.38044c0,-5.64837 0,-10.40422 0,-14.0112c0,-4.83415 1.34146,-14.22617 2.64784,-14.22617c1.52183,0 9.33303,0 9.33303,0v41.78888c0,0 -7.29601,0 -9.3,0c-0.83736,0 -2.68088,-7.13154 -2.68088,-13.55151z"/></g><g fill="none" stroke="none" stroke-width="1" font-family="sans-serif" font-weight="normal" font-size="12" text-anchor="start"/></g><path d="M-12.49787,36.66257c0,0 0,-4.41363 0,-6.12668c0,-1.07454 25.23564,-3.16221 49.81132,-3.16221c52.70615,0 255.11482,0 351.78511,0c31.66301,0 51.98271,1.81799 51.98271,2.89253c0,1.71305 0,6.39635 0,6.39635z" data-paper-data="{&quot;index&quot;:null}" fill="#000000" stroke="#000000" stroke-width="1.5" stroke-linecap="butt"/><g data-paper-data="{&quot;index&quot;:null}" stroke-linecap="butt"><g fill="#000000" stroke="#000000" stroke-width="1.5"><path d="M442.09038,160.14143c0,28.00481 -1.84352,59.11356 -2.68088,59.11356c-2.00399,0 -9.3,0 -9.3,0v-182.28888c0,0 7.8112,0 9.33303,0c1.30638,0 2.64784,40.96929 2.64784,62.05653c0,15.73416 0,36.47986 0,61.11879z"/></g><g fill="none" stroke="none" stroke-width="1" font-family="sans-serif" font-weight="normal" font-size="12" text-anchor="start"/></g><path d="M149.00001,91.21714v-5.5h60v5.5z" fill="#000000" stroke="#000000" stroke-width="2" stroke-linecap="butt"/><g fill="#000000" stroke="#000000"><path d="M337.58827,218.33923l-0.08548,-24.29462l24.67706,-0.08417l0.08549,24.29462z" stroke-width="0" stroke-linecap="butt"/><path d="M340.5495,215.13379l-0.06302,-17.90823l18.19016,-0.06204l0.06302,17.90824z" stroke-width="3.5" stroke-linecap="butt"/><path d="M342.17029,213.17856l-0.05228,-14.85329l15.08712,-0.05147l0.05226,14.8533z" stroke-width="2" stroke-linecap="butt"/><path d="M344.04219,200.33206l10.93022,10.67663" stroke-width="6" stroke-linecap="round"/><path d="M357.68767,213.77084l-16.34061,-15.97629" stroke-width="2.5" stroke-linecap="round"/></g><g data-paper-data="{&quot;index&quot;:null}" stroke-linecap="butt"><g fill="#000000" stroke="#000000" stroke-width="1.5"><path d="M53.50394,267.96182c0,-39.43939 0,-72.64692 0,-97.83253c0,-33.75425 1.34146,-99.33361 2.64784,-99.33361c1.52183,0 9.33303,0 9.33303,0v291.78888c0,0 -7.29601,0 -9.3,0c-0.83736,0 -2.68088,-49.79563 -2.68088,-94.62282z"/></g><g fill="none" stroke="none" stroke-width="1" font-family="sans-serif" font-weight="normal" font-size="12" text-anchor="start"/></g><g data-paper-data="{&quot;index&quot;:null}" stroke-linecap="butt"><g fill="#000000" stroke="#000000" stroke-width="1.5"><path d="M441.69771,331.37676c0,14.33185 -1.84352,30.25219 -2.68088,30.25219c-2.00399,0 -9.3,0 -9.3,0v-93.28888c0,0 7.8112,0 9.33303,0c1.30638,0 2.64784,20.96661 2.64784,31.75829c0,8.05218 0,18.66908 0,31.27839z"/></g><g fill="none" stroke="none" stroke-width="1" font-family="sans-serif" font-weight="normal" font-size="12" text-anchor="start"/></g><g fill="#000000" stroke="#000000"><path d="M5.15726,70.25826l-0.05924,-16.83538l17.1004,-0.05833l0.05925,16.83538z" stroke-width="0" stroke-linecap="butt"/><path d="M7.2093,68.03698l-0.04367,-12.40982l12.60519,-0.04299l0.04367,12.40982z" stroke-width="2" stroke-linecap="butt"/><path d="M8.33245,66.68207l-0.03623,-10.29284l10.45488,-0.03567l0.03621,10.29285z" stroke-width="1.5" stroke-linecap="butt"/><path d="M9.62961,57.77988l7.57429,7.39856" stroke-width="4" stroke-linecap="round"/><path d="M19.08549,67.0925l-11.32351,-11.07105" stroke-width="1.5" stroke-linecap="round"/></g><g fill="#000000" stroke="#000000"><path d="M5.15726,53.82969l-0.05924,-16.83537l17.1004,-0.05833l0.05925,16.83538z" stroke-width="0" stroke-linecap="butt"/><path d="M7.2093,51.60841l-0.04367,-12.40982l12.60519,-0.04299l0.04367,12.40982z" stroke-width="2" stroke-linecap="butt"/><path d="M8.33245,50.25351l-0.03623,-10.29284l10.45488,-0.03567l0.03621,10.29285z" stroke-width="1.5" stroke-linecap="butt"/><path d="M9.62961,41.3513l7.57429,7.39856" stroke-width="4" stroke-linecap="round"/><path d="M19.08549,50.66393l-11.32351,-11.07105" stroke-width="1.5" stroke-linecap="round"/></g><g fill="#000000" stroke="#000000"><path d="M150.42161,85.63923l-0.08548,-24.29462l24.67706,-0.08417l0.08549,24.29462z" stroke-width="0" stroke-linecap="butt"/><path d="M153.38284,82.43376l-0.06302,-17.90823l18.19016,-0.06204l0.06302,17.90824z" stroke-width="3.5" stroke-linecap="butt"/><path d="M155.00363,80.47853l-0.05228,-14.85329l15.08712,-0.05147l0.05226,14.8533z" stroke-width="2" stroke-linecap="butt"/><path d="M167.80575,78.30867l-10.93022,-10.67663" stroke-width="6" stroke-linecap="round"/><path d="M154.1804,65.09452l16.34061,15.97629" stroke-width="2.5" stroke-linecap="round"/></g></g></g></svg>