<svg version="1.1" xmlns="http://www.w3.org/2000/svg" xmlns:xlink="http://www.w3.org/1999/xlink" width="64.96351" height="73.71124" viewBox="0,0,64.96351,73.71124"><g transform="translate(-236.72767,-138.18532)"><g data-paper-data="{&quot;isPaintingLayer&quot;:true}" fill-rule="nonzero" stroke-linejoin="miter" stroke-miterlimit="10" stroke-dasharray="" stroke-dashoffset="0" style="mix-blend-mode: normal"><path d="M257.15657,188.62082c0,0 4.39724,-7.20641 4.80144,-8.87927c0.9028,-3.73641 1.84029,-10.79756 -1.53631,-17.39549c-5.63839,-11.30196 -21.145,-15.20814 -21.145,-15.20814c0,0 10.02093,-2.84505 12.96384,-2.99507c1.37226,-0.06995 5.93093,-0.16904 10.6985,0.59088c4.2565,0.67845 8.67955,2.15847 11.15015,3.10012c6.59546,2.51378 11.68254,7.50908 11.68254,7.50908c0,0 8.22423,11.53258 8.27491,11.9711c0.58697,5.07871 -0.39445,10.82425 -2.93486,17.15392c-0.78689,1.96061 -0.91898,6.40974 -2.12174,9.40833c-2.68026,6.68214 -6.71146,12.50649 -7.05561,12.49454c-2.88023,-0.10001 -24.77786,-17.75 -24.77786,-17.75z" fill="#8293ff" stroke="none" stroke-width="0" stroke-linecap="butt"/><g stroke="#1331ff" stroke-width="2.5" stroke-linecap="butt"><path d="M259.1085,186.43972l-1.2786,1.60951l-5.05274,-4.05549c0,0 -0.01818,-0.96908 0.20885,-1.25485c0.19397,-0.24416 1.06977,-0.35464 1.06977,-0.35464z" fill="#3f2711"/><path d="M259.93953,185.78549l12.01469,10.09957l3.33597,4.71l-5.58473,-2.17582l-12.07422,-9.412z" fill="#1331ff"/><path d="M260.29757,186.31848c0,0 -1.17934,1.98002 -2.35428,2.9635c-1.17493,0.98349 -2.14002,1.21446 -2.39372,1.01084c-0.26769,-0.21486 -0.26039,-1.32117 -0.26039,-1.32117c0,0 2.00551,-1.33669 2.65007,-2.14804c0.67803,-0.85349 1.32279,-2.85288 1.32279,-2.85288c0,0 1.27284,-0.59608 1.52753,-0.39165z" fill="#3c3c3c"/><path d="M254.08693,182.31727c0,0 -0.35384,0.60588 -0.57837,0.88849c-0.21534,0.27105 -0.74235,0.77399 -0.74235,0.77399c0,0 -0.43831,-0.11158 -0.59292,-0.23567c-0.14668,-0.11772 -0.31221,-0.49083 -0.31221,-0.49083c0,0 0.32036,-0.69787 0.55629,-0.99483c0.1974,-0.24848 0.76443,-0.66765 0.76443,-0.66765c0,0 0.3986,0.07971 0.54528,0.19744z" fill="#1b1b1b"/></g><path d="M239.52212,143.74173c0,0 28.23507,-5.11629 46.19431,8.39929c0.21096,0.15876 8.3736,5.86294 10.12537,13.22921c0.53306,2.24154 1.33622,7.64131 0.78675,13.98442c-0.45589,5.2628 -3.23241,12.54821 -3.32852,12.80663c-2.68537,7.22025 -8.80355,15.51306 -8.80355,15.51306" fill="none" stroke="#1331ff" stroke-width="5" stroke-linecap="round"/><path d="M238.22767,140.7072c0,0 5.71422,-0.92628 12.99787,-1.02201c5.44701,-0.07159 11.77175,0.43151 17.24071,1.53495c7.33395,1.47973 14.85731,4.32713 20.37298,8.83763c3.2995,2.6982 7.95645,6.12627 10.73591,15.52705c0.60368,2.04179 1.11768,7.89029 0.61604,12.58081c-0.50164,4.69052 -1.94946,11.78454 -4.57395,18.41429c-2.62449,6.62975 -8.93518,13.81664 -8.93518,13.81664" fill="none" stroke="#000000" stroke-width="3" stroke-linecap="round"/><path d="M239.36936,146.55381c0,0 26.82891,-4.2712 43.53405,7.8886c0.27812,0.20245 8.3025,5.96816 9.8763,13.11938c1.03041,4.68215 0.27151,12.98238 -0.58613,16.43983c-0.06336,0.25542 -1.77654,7.22767 -4.47091,12.73003c-2.6884,5.49018 -6.15807,9.91078 -6.15807,9.91078" fill="none" stroke="#ffffff" stroke-width="2.5" stroke-linecap="round"/><path d="" data-paper-data="{&quot;index&quot;:null}" fill="none" stroke="#000000" stroke-width="1" stroke-linecap="round"/><g stroke="#000000" stroke-width="0.75" stroke-linecap="butt"><path d="M253.98377,182.10127l4.94342,4.05998l-1.25998,1.53418l-4.94345,-4.05998c0,0 -0.0145,-0.94223 0.2092,-1.21463c0.19114,-0.23272 1.05078,-0.31954 1.05078,-0.31954z" fill="#3f2711"/><path d="M259.63678,185.59521l11.85265,9.94747l3.47976,4.85765l-5.6174,-2.24361l-12.12235,-9.72911z" fill="#d9d9d9"/><path d="M260.58634,183.42055c0.31355,0.2575 -0.4921,2.65075 -0.4921,2.65075c0,0 -1.16385,1.8966 -2.31997,2.82481c-1.15611,0.92821 -2.10378,1.13003 -2.352,0.92617c-0.26191,-0.2151 -0.25096,-1.29011 -0.25096,-1.29011c0,0 1.97224,-1.25199 2.6074,-2.02535c0.66816,-0.81353 1.30758,-2.74151 1.30758,-2.74151c0,0 1.25086,-0.54939 1.50005,-0.34478z" fill="#3c3c3c"/><path d="M259.41917,187.07965l10.3727,8.61857l1.61669,1.93176l-2.1558,-1.09176l-10.51543,-8.53659z" fill="#3c3c3c"/><path d="M259.84017,186.41631l-0.00511,1.70866l-1.7127,0.30629l0.00511,-1.70866z" fill="#1b1b1b"/></g><path d="M270.46639,208.20531c0,-0.17513 0.24206,-0.3171 0.54065,-0.3171c0.29859,0 0.54065,0.14198 0.54065,0.3171c0,0.17513 -0.24206,0.3171 -0.54065,0.3171c-0.29859,0 -0.54065,-0.14198 -0.54065,-0.3171z" fill="#000000" stroke="none" stroke-width="0.5" stroke-linecap="butt"/><path d="M263.32978,208.04041c0,-0.16112 0.22269,-0.29174 0.4974,-0.29174c0.2747,0 0.4974,0.13062 0.4974,0.29174c0,0.16112 -0.2227,0.29173 -0.4974,0.29173c-0.2747,0 -0.4974,-0.13061 -0.4974,-0.29173z" fill="#000000" stroke="none" stroke-width="0.5" stroke-linecap="butt"/><path d="M255.47951,208.20531c0,-0.17513 0.24206,-0.3171 0.54065,-0.3171c0.29859,0 0.54066,0.14198 0.54066,0.3171c0,0.17513 -0.24207,0.3171 -0.54066,0.3171c-0.29859,0 -0.54065,-0.14198 -0.54065,-0.3171z" fill="#000000" stroke="none" stroke-width="0.5" stroke-linecap="butt"/></g></g></svg>