<svg version="1.1" xmlns="http://www.w3.org/2000/svg" xmlns:xlink="http://www.w3.org/1999/xlink" width="651.38199" height="477.26321" viewBox="0,0,651.38199,477.26321"><defs><radialGradient cx="445.46726" cy="109.66805" r="14.76439" gradientUnits="userSpaceOnUse" id="color-1"><stop offset="0" stop-color="#13570d"/><stop offset="1" stop-color="#13570d" stop-opacity="0"/></radialGradient><radialGradient cx="450.94339" cy="103.70356" r="14.75478" gradientUnits="userSpaceOnUse" id="color-2"><stop offset="0" stop-color="#13570d"/><stop offset="1" stop-color="#13570d" stop-opacity="0"/></radialGradient><radialGradient cx="454.03135" cy="110.59089" r="15.34473" gradientUnits="userSpaceOnUse" id="color-3"><stop offset="0" stop-color="#13570d"/><stop offset="1" stop-color="#13570d" stop-opacity="0"/></radialGradient><radialGradient cx="452.17652" cy="124.1944" r="15.34473" gradientUnits="userSpaceOnUse" id="color-4"><stop offset="0" stop-color="#13570d"/><stop offset="1" stop-color="#13570d" stop-opacity="0"/></radialGradient><radialGradient cx="462.89676" cy="118.21359" r="15.34473" gradientUnits="userSpaceOnUse" id="color-5"><stop offset="0" stop-color="#13570d"/><stop offset="1" stop-color="#13570d" stop-opacity="0"/></radialGradient><radialGradient cx="457.57622" cy="105.54966" r="15.34472" gradientUnits="userSpaceOnUse" id="color-6"><stop offset="0" stop-color="#13570d"/><stop offset="1" stop-color="#13570d" stop-opacity="0"/></radialGradient><radialGradient cx="461.4073" cy="111.56929" r="15.34473" gradientUnits="userSpaceOnUse" id="color-7"><stop offset="0" stop-color="#13570d"/><stop offset="1" stop-color="#13570d" stop-opacity="0"/></radialGradient><radialGradient cx="446.55029" cy="116.17821" r="15.34472" gradientUnits="userSpaceOnUse" id="color-8"><stop offset="0" stop-color="#13570d"/><stop offset="1" stop-color="#13570d" stop-opacity="0"/></radialGradient><radialGradient cx="460.90422" cy="120.95416" r="15.34473" gradientUnits="userSpaceOnUse" id="color-9"><stop offset="0" stop-color="#13570d"/><stop offset="1" stop-color="#13570d" stop-opacity="0"/></radialGradient><radialGradient cx="185.11962" cy="309.75549" r="19.46093" gradientUnits="userSpaceOnUse" id="color-10"><stop offset="0" stop-color="#13570d"/><stop offset="1" stop-color="#13570d" stop-opacity="0"/></radialGradient><radialGradient cx="182.52285" cy="299.40344" r="19.44827" gradientUnits="userSpaceOnUse" id="color-11"><stop offset="0" stop-color="#13570d"/><stop offset="1" stop-color="#13570d" stop-opacity="0"/></radialGradient><radialGradient cx="192.34339" cy="300.99633" r="20.22588" gradientUnits="userSpaceOnUse" id="color-12"><stop offset="0" stop-color="#13570d"/><stop offset="1" stop-color="#13570d" stop-opacity="0"/></radialGradient><radialGradient cx="205.97481" cy="312.89901" r="20.22588" gradientUnits="userSpaceOnUse" id="color-13"><stop offset="0" stop-color="#13570d"/><stop offset="1" stop-color="#13570d" stop-opacity="0"/></radialGradient><radialGradient cx="207.16137" cy="296.76194" r="20.22588" gradientUnits="userSpaceOnUse" id="color-14"><stop offset="0" stop-color="#13570d"/><stop offset="1" stop-color="#13570d" stop-opacity="0"/></radialGradient><radialGradient cx="189.36312" cy="293.43961" r="20.22587" gradientUnits="userSpaceOnUse" id="color-15"><stop offset="0" stop-color="#13570d"/><stop offset="1" stop-color="#13570d" stop-opacity="0"/></radialGradient><radialGradient cx="198.76707" cy="293.58544" r="20.22588" gradientUnits="userSpaceOnUse" id="color-16"><stop offset="0" stop-color="#13570d"/><stop offset="1" stop-color="#13570d" stop-opacity="0"/></radialGradient><radialGradient cx="193.07163" cy="313.28219" r="20.22587" gradientUnits="userSpaceOnUse" id="color-17"><stop offset="0" stop-color="#13570d"/><stop offset="1" stop-color="#13570d" stop-opacity="0"/></radialGradient><radialGradient cx="208.7341" cy="300.94206" r="20.22588" gradientUnits="userSpaceOnUse" id="color-18"><stop offset="0" stop-color="#13570d"/><stop offset="1" stop-color="#13570d" stop-opacity="0"/></radialGradient><radialGradient cx="357.95672" cy="180.53164" r="20.66602" gradientUnits="userSpaceOnUse" id="color-19"><stop offset="0" stop-color="#13570d"/><stop offset="1" stop-color="#13570d" stop-opacity="0"/></radialGradient><radialGradient cx="346.75554" cy="182.25966" r="20.65258" gradientUnits="userSpaceOnUse" id="color-20"><stop offset="0" stop-color="#13570d"/><stop offset="1" stop-color="#13570d" stop-opacity="0"/></radialGradient><radialGradient cx="349.40527" cy="172.03238" r="21.47834" gradientUnits="userSpaceOnUse" id="color-21"><stop offset="0" stop-color="#13570d"/><stop offset="1" stop-color="#13570d" stop-opacity="0"/></radialGradient><radialGradient cx="363.33084" cy="158.78916" r="21.47834" gradientUnits="userSpaceOnUse" id="color-22"><stop offset="0" stop-color="#13570d"/><stop offset="1" stop-color="#13570d" stop-opacity="0"/></radialGradient><radialGradient cx="346.38474" cy="155.94811" r="21.47834" gradientUnits="userSpaceOnUse" id="color-23"><stop offset="0" stop-color="#13570d"/><stop offset="1" stop-color="#13570d" stop-opacity="0"/></radialGradient><radialGradient cx="341.12208" cy="174.44071" r="21.47833" gradientUnits="userSpaceOnUse" id="color-24"><stop offset="0" stop-color="#13570d"/><stop offset="1" stop-color="#13570d" stop-opacity="0"/></radialGradient><radialGradient cx="342.20078" cy="164.51165" r="21.47834" gradientUnits="userSpaceOnUse" id="color-25"><stop offset="0" stop-color="#13570d"/><stop offset="1" stop-color="#13570d" stop-opacity="0"/></radialGradient><radialGradient cx="362.46748" cy="172.47019" r="21.47833" gradientUnits="userSpaceOnUse" id="color-26"><stop offset="0" stop-color="#13570d"/><stop offset="1" stop-color="#13570d" stop-opacity="0"/></radialGradient><radialGradient cx="350.95926" cy="154.69611" r="21.47834" gradientUnits="userSpaceOnUse" id="color-27"><stop offset="0" stop-color="#13570d"/><stop offset="1" stop-color="#13570d" stop-opacity="0"/></radialGradient><linearGradient x1="134.74367" y1="5.75229" x2="134.74367" y2="83.87391" gradientUnits="userSpaceOnUse" id="color-28"><stop offset="0" stop-color="#000000"/><stop offset="1" stop-color="#000000" stop-opacity="0"/></linearGradient></defs><g transform="translate(5.33269,94.01081)"><g data-paper-data="{&quot;isPaintingLayer&quot;:true}" fill-rule="nonzero" stroke-linejoin="miter" stroke-miterlimit="10" stroke-dasharray="" stroke-dashoffset="0" style="mix-blend-mode: normal"><path d="M449.8591,166.40322v-50.40786c0,0 2.01675,1.3349 2.68912,0.75461c1.39898,-1.20737 4.94374,-0.75461 4.94374,-0.75461v50.40786z" fill="#30220a" stroke="#0c0c0c" stroke-width="0" stroke-linecap="butt"/><g stroke="none" stroke-width="0" stroke-linecap="butt"><path d="M446.94805,100.95255c8.1254,0.68405 8.18684,1.84444 7.50279,9.96983c-0.68405,8.1254 -1.59717,8.20767 -9.72256,7.52362c-8.1254,-0.68405 -9.13428,-2.42223 -8.45024,-10.54764c0.68405,-8.1254 2.54459,-7.62986 10.66999,-6.94582z" fill="url(#color-1)"/><path d="M446.00335,96.37231c5.85065,-4.78631 6.67976,-3.97846 11.74696,2.40332c5.0672,6.38178 4.51784,7.03593 -1.33279,11.82224c-5.85064,4.78631 -7.70034,4.17266 -12.76755,-2.20911c-5.0672,-6.38178 -3.49727,-7.23013 2.35337,-12.01643z" fill="url(#color-2)"/><path d="M449.64276,102.51886c7.07811,-4.6605 7.87369,-3.7519 12.53419,3.32622c4.66049,7.07811 3.96729,7.73187 -3.11082,12.39236c-7.07811,4.66049 -9.01893,3.88841 -13.67943,-3.1897c-4.66049,-7.07811 -2.82206,-7.86838 4.25605,-12.52887z" fill="url(#color-3)"/><path d="M453.71549,115.13633c8.44479,0.71093 8.50866,1.91693 7.79771,10.36171c-0.71093,8.44479 -1.65995,8.53029 -10.10473,7.81936c-8.44479,-0.71093 -9.49332,-2.51744 -8.78239,-10.96222c0.71093,-8.44479 2.64462,-7.92977 11.08941,-7.21884z" fill="url(#color-4)"/><path d="M464.43576,109.15551c8.44479,0.71093 8.50866,1.91693 7.79772,10.36173c-0.71093,8.44479 -1.65995,8.53028 -10.10474,7.81935c-8.44479,-0.71093 -9.49331,-2.51744 -8.78238,-10.96223c0.71093,-8.44479 2.64462,-7.92977 11.0894,-7.21884z" fill="url(#color-5)"/><path d="M459.11521,96.49158c8.44479,0.71093 8.50865,1.91692 7.79771,10.36171c-0.71093,8.44479 -1.65995,8.53029 -10.10473,7.81935c-8.44479,-0.71093 -9.49332,-2.51744 -8.78238,-10.96223c0.71093,-8.44479 2.64462,-7.92977 11.08941,-7.21884z" fill="url(#color-6)"/><path d="M456.26659,103.95414c6.59978,-5.31628 7.47864,-4.48796 12.79491,2.11181c5.31629,6.59978 4.68881,7.31685 -1.91097,12.63313c-6.59978,5.31629 -8.60555,4.73341 -13.92183,-1.86635c-5.31628,-6.59978 -3.56188,-7.5623 3.03788,-12.87858z" fill="url(#color-7)"/><path d="M441.40959,108.56306c6.59977,-5.31627 7.47864,-4.48797 12.79492,2.11181c5.31627,6.59977 4.68879,7.31685 -1.91097,12.63314c-6.59977,5.31627 -8.60555,4.7334 -13.92183,-1.86637c-5.31627,-6.59977 -3.56188,-7.5623 3.03789,-12.87857z" fill="url(#color-8)"/><path d="M455.76349,113.33902c6.59977,-5.31627 7.47864,-4.48796 12.79492,2.11182c5.31628,6.59977 4.68879,7.31685 -1.91097,12.63313c-6.59977,5.31627 -8.60556,4.73341 -13.92184,-1.86636c-5.31627,-6.59977 -3.56187,-7.5623 3.03789,-12.87858z" fill="url(#color-9)"/></g><path d="M190.68965,361.28911v-46.72771c0,0 3.01071,1.23744 4.01447,0.69952c2.08847,-1.11922 7.3803,-0.69952 7.3803,-0.69952v46.72771z" fill="#30220a" stroke="#0c0c0c" stroke-width="0" stroke-linecap="butt"/><g stroke="none" stroke-width="0" stroke-linecap="butt"><path d="M176.59822,301.80773c6.64289,-8.44931 7.96488,-7.67582 16.41419,-1.03295c8.44931,6.64289 7.87798,7.70776 1.2351,16.15708c-6.64289,8.44931 -9.28773,8.30002 -17.73706,1.65714c-8.44931,-6.64289 -6.55513,-8.33194 0.08776,-16.78126z" fill="url(#color-10)"/><path d="M170.8711,299.52768c-1.02826,-9.91034 0.4621,-10.23752 11.16077,-11.19c10.69866,-0.95249 11.0206,0.12647 12.04887,10.03679c1.02826,9.91032 -0.98809,11.50184 -11.68675,12.45433c-10.69866,0.95249 -10.49461,-1.39078 -11.52286,-11.3011z" fill="url(#color-11)"/><path d="M180.27584,299.97653c0,-11.17045 1.57695,-11.38768 12.74741,-11.38768c11.17044,0 11.38768,1.23703 11.38768,12.40747c0,11.17044 -2.25681,12.74741 -13.42726,12.74741c-11.17044,0 -10.70782,-2.59676 -10.70782,-13.76719z" fill="url(#color-12)"/><path d="M197.11844,304.63887c6.904,-8.78143 8.27797,-7.97755 17.05939,-1.07355c8.78143,6.904 8.18765,8.01074 1.28366,16.79217c-6.904,8.78143 -9.6528,8.62628 -18.43423,1.72228c-8.78143,-6.904 -6.8128,-8.65946 0.09121,-17.44089z" fill="url(#color-13)"/><path d="M198.30501,288.50177c6.904,-8.78143 8.27797,-7.97755 17.0594,-1.07355c8.78143,6.904 8.18764,8.01073 1.28363,16.79217c-6.904,8.78143 -9.6528,8.62627 -18.43423,1.72227c-8.78143,-6.904 -6.8128,-8.65946 0.0912,-17.44088z" fill="url(#color-14)"/><path d="M180.50675,285.17945c6.904,-8.78143 8.27796,-7.97755 17.05939,-1.07355c8.78143,6.904 8.18765,8.01074 1.28364,16.79216c-6.904,8.78143 -9.65281,8.62628 -18.43423,1.72227c-8.78143,-6.904 -6.8128,-8.65946 0.09121,-17.44089z" fill="url(#color-15)"/><path d="M186.65732,293.72483c-1.06867,-11.1192 0.48026,-11.48631 11.59947,-12.55498c11.1192,-1.06868 11.45379,0.14188 12.52246,11.2611c1.06868,11.1192 -1.02691,12.90484 -12.14611,13.97352c-11.1192,1.06867 -10.90713,-1.56042 -11.97582,-12.67961z" fill="url(#color-16)"/><path d="M180.96188,313.42156c-1.06867,-11.11919 0.48025,-11.48632 11.59947,-12.55499c11.11919,-1.06867 11.45379,0.14191 12.52246,11.2611c1.06867,11.11919 -1.02692,12.90482 -12.14613,13.97351c-11.11919,1.06867 -10.90712,-1.56042 -11.9758,-12.67961z" fill="url(#color-17)"/><path d="M196.62434,301.08144c-1.06867,-11.11919 0.48026,-11.48631 11.59948,-12.55499c11.11919,-1.06868 11.45379,0.14191 12.52246,11.2611c1.06867,11.11919 -1.02692,12.90484 -12.14613,13.97352c-11.11919,1.06867 -10.90712,-1.56043 -11.9758,-12.67963z" fill="url(#color-18)"/></g><path d="M347.59484,242.28911v-84.68465c0,0 2.45711,2.24261 3.2763,1.26774c1.70445,-2.02837 6.02323,-1.26774 6.02323,-1.26774v84.68465z" fill="#30220a" stroke="#0c0c0c" stroke-width="0" stroke-linecap="butt"/><g stroke="none" stroke-width="0" stroke-linecap="butt"><path d="M348.71531,188.76052c-8.28093,-7.8546 -7.33311,-9.17639 0.52149,-17.45731c7.8546,-8.28093 8.9244,-7.57214 17.20532,0.28245c8.28093,7.8546 7.86306,10.63649 0.00846,18.91743c-7.8546,8.28093 -9.45432,6.11204 -17.73526,-1.74255z" fill="url(#color-19)"/><path d="M345.74143,194.59201c-10.57992,0.11295 -10.77935,-1.49506 -10.73468,-12.90108c0.04467,-11.40602 1.21717,-11.64035 11.79706,-11.75331c10.57991,-0.11295 12.06448,2.17551 12.01982,13.58153c-0.04467,11.40602 -2.50228,10.95989 -13.08219,11.07284z" fill="url(#color-20)"/><path d="M347.14061,184.6919c-11.81122,-1.09817 -11.88588,-2.78694 -10.78771,-14.59817c1.09817,-11.81121 2.42751,-11.9193 14.23873,-10.82113c11.81121,1.09817 13.25678,3.63947 12.15861,15.45069c-1.09817,11.81121 -3.7984,11.06677 -15.60961,9.9686z" fill="url(#color-21)"/><path d="M353.72621,167.34151c-8.60643,-8.16334 -7.62137,-9.53709 0.54198,-18.14351c8.16334,-8.60643 9.27519,-7.86979 17.88162,0.29355c8.60643,8.16334 8.17214,11.05457 0.0088,19.661c-8.16334,8.60643 -9.82596,6.35229 -18.43239,-1.81106z" fill="url(#color-22)"/><path d="M336.78007,164.50045c-8.60643,-8.16334 -7.62137,-9.53709 0.54198,-18.14353c8.16334,-8.60643 9.27518,-7.86978 17.88162,0.29357c8.60643,8.16334 8.17213,11.05457 0.00879,19.661c-8.16334,8.60643 -9.82596,6.35229 -18.43238,-1.81105z" fill="url(#color-23)"/><path d="M331.51742,182.99305c-8.60643,-8.16334 -7.62137,-9.53708 0.54198,-18.14351c8.16334,-8.60643 9.27519,-7.86979 17.88161,0.29356c8.60643,8.16334 8.17214,11.05458 0.00879,19.661c-8.16334,8.60643 -9.82596,6.35229 -18.43239,-1.81106z" fill="url(#color-24)"/><path d="M341.15765,177.32976c-11.86211,0.03684 -12.09799,-1.63704 -12.13483,-13.49913c-0.03685,-11.86211 1.27604,-12.09687 13.13816,-12.13371c11.86211,-0.03685 13.54415,2.3545 13.581,14.21659c0.03684,11.86211 -2.72222,11.3794 -14.58431,11.41625z" fill="url(#color-25)"/><path d="M361.42434,185.28829c-11.86209,0.03684 -12.098,-1.63703 -12.13484,-13.49914c-0.03684,-11.86209 1.27607,-12.09686 13.13816,-12.13372c11.86209,-0.03684 13.54414,2.35451 13.58099,14.21661c0.03684,11.86209 -2.72222,11.37939 -14.58431,11.41624z" fill="url(#color-26)"/><path d="M349.91614,167.51423c-11.86209,0.03684 -12.09799,-1.63704 -12.13484,-13.49915c-0.03685,-11.8621 1.27607,-12.09686 13.13816,-12.13371c11.86209,-0.03684 13.54415,2.35451 13.581,14.21661c0.03684,11.86209 -2.72223,11.37939 -14.58432,11.41624z" fill="url(#color-27)"/></g><path d="M278.26869,82.05108l-48,-83.56156l-0.44601,-90.08829l251.19376,1.4997v172.15015z" fill="#000000" stroke="none" stroke-width="0" stroke-linecap="butt"/><path d="M410.32275,366.79999v-209.17233h71.14114v209.17233z" fill="#000000" stroke="none" stroke-width="NaN" stroke-linecap="butt"/><path d="M381.40526,202.02636v-12.01201h30.03003v12.01201z" fill="#000000" stroke="none" stroke-width="0" stroke-linecap="butt"/><path d="M313.83769,365.78312v-130.72372h97.5976v130.72372z" fill="#000000" stroke="none" stroke-width="0" stroke-linecap="butt"/><path d="M277.42637,295.28917v-12h39v12z" fill="#000000" stroke="none" stroke-width="0" stroke-linecap="butt"/><path d="M101.42637,273.29818v-13h32v13z" fill="#000000" stroke="none" stroke-width="0" stroke-linecap="butt"/><path d="M66.42637,196.28917v-13h33v13z" fill="#000000" stroke="none" stroke-width="0" stroke-linecap="butt"/><path d="M154.7476,-56.96877v-33.03303h124.62462v33.03303z" fill="#000000" stroke="none" stroke-width="0" stroke-linecap="butt"/><path d="M67.44854,330.75618v-8h31v8z" fill="#000000" stroke="none" stroke-width="0" stroke-linecap="butt"/><path d="M-2.88288,39.8642v-41.12449l-0.86956,-91.47901l188.53007,0.09125l-0.52553,89.02082l-38,43.49144z" fill="#000000" stroke="none" stroke-width="0" stroke-linecap="butt"/><path d="M130.61521,121.26519v-25.497h86v25.497z" fill="#000000" stroke="none" stroke-width="0" stroke-linecap="butt"/><path d="M130.90649,293.76519v-165.95789l32,0.4904v165.4675z" fill="#000000" stroke="none" stroke-width="0" stroke-linecap="butt"/><path d="M130.82916,131.04818v-10.5h107.5v10.5z" fill="#000000" stroke="none" stroke-width="0" stroke-linecap="butt"/><path d="M437.55718,175.07133v-15.1h152.7771v15.1z" fill="#0a290a" stroke="#000000" stroke-width="4.5" stroke-linecap="butt"/><path d="M437.60913,174.28311c-0.00778,0.86272 -4.98039,-0.44939 -8,2.51929c-3.01961,2.96868 -1.93484,8 -2.69973,8c-4.42728,0 -14.20027,0 -14.20027,0v-24.9h24.9c0,0 0.0274,11.34245 0,14.38071z" data-paper-data="{&quot;index&quot;:null}" fill="#0a290a" stroke="#000000" stroke-width="4.5" stroke-linecap="butt"/><path d="M341.00912,251.68311c-0.00778,0.86272 -4.98039,-0.44939 -8,2.51929c-3.01961,2.96868 -1.93484,8 -2.69973,8c-4.42728,0 -14.20027,0 -14.20027,0v-24.9h24.9c0,0 0.0274,11.34245 0,14.38071z" data-paper-data="{&quot;index&quot;:null}" fill="#0a290a" stroke="#000000" stroke-width="4.5" stroke-linecap="butt"/><path d="M158.00912,112.43311c-0.00778,0.86272 -4.98039,-0.44939 -8,2.51929c-3.01961,2.96868 -1.93484,8 -2.69973,8c-4.42728,0 -14.20027,0 -14.20027,0v-24.9h24.9c0,0 0.0274,11.34245 0,14.38071z" data-paper-data="{&quot;index&quot;:null}" fill="#0a290a" stroke="#000000" stroke-width="4.5" stroke-linecap="butt"/><path d="M189.6213,98.0524h24.9v24.9c0,0 -9.77299,0 -14.20027,0c-0.76489,0 0.31988,-5.03132 -2.69973,-8c-3.01961,-2.96868 -7.99222,-1.65657 -8,-2.51929c-0.0274,-3.03826 0,-14.38071 0,-14.38071z" data-paper-data="{&quot;index&quot;:null}" fill="#0a290a" stroke="#000000" stroke-width="4.5" stroke-linecap="butt"/><path d="M147.49592,266.55849c0.86272,0.00778 -0.44939,4.98039 2.51929,8c2.96868,3.01961 8,1.93484 8,2.69973c0,4.42728 0,14.20027 0,14.20027h-24.9v-24.9c0,0 11.34245,-0.0274 14.38071,0z" data-paper-data="{&quot;index&quot;:null}" fill="#0a290a" stroke="#000000" stroke-width="4.5" stroke-linecap="butt"/><path d="M132.98792,122.82888h15.1v143.5771h-15.1z" fill="#0a290a" stroke="#000000" stroke-width="4.5" stroke-linecap="butt"/><path d="M155.60884,289.17594v-188.84444h4.8v188.84445z" fill="#0a290a" stroke="none" stroke-width="0" stroke-linecap="butt"/><path d="M235.39583,123.68455v4.26363h-70.76667v-4.26363z" fill="#191919" stroke="none" stroke-width="0" stroke-linecap="butt"/><path d="M189.42647,98.16743v15.1h-26.6771v-15.1z" fill="#0a290a" stroke="#000000" stroke-width="4.5" stroke-linecap="butt"/><path d="M164.93106,115.9315h37.28889v4.8h-37.28889z" fill="#0a290a" stroke="none" stroke-width="0" stroke-linecap="butt"/><path d="M412.53466,252.95451v-15.5h15.5c0,0 -0.81603,5.85854 -5.41667,10.33334c-4.78327,4.65244 -10.08333,5.16666 -10.08333,5.16666z" data-paper-data="{&quot;index&quot;:null}" fill="#0a290a" stroke="#000000" stroke-width="4.5" stroke-linecap="butt"/><path d="M66.16561,23.77594v15.5h-15.5c0,0 0.81603,-5.85854 5.41667,-10.33334c4.78327,-4.65244 10.08333,-5.16666 10.08333,-5.16666z" data-paper-data="{&quot;index&quot;:null}" fill="#0a290a" stroke="#000000" stroke-width="4.5" stroke-linecap="butt"/><path d="M280.7222,79.72373v-15.1h363.0771v15.1z" fill="#0a290a" stroke="#000000" stroke-width="4.5" stroke-linecap="butt"/><path d="M-2.88288,366.30256v-330.54637h71.33143v330.54638z" fill="#000000" stroke="none" stroke-width="0" stroke-linecap="butt"/><path d="M51.07604,38.44073h15.1v317.8378h-15.1z" fill="#0a290a" stroke="#000000" stroke-width="4.5" stroke-linecap="butt"/><path d="M315.95104,262.2018h15.1v103.75696h-15.1z" fill="#0a290a" stroke="#000000" stroke-width="4.5" stroke-linecap="butt"/><path d="M412.07952,237.23029v15.1h-71.15696v-15.1z" fill="#0a290a" stroke="#000000" stroke-width="4.5" stroke-linecap="butt"/><path d="M427.73676,237.38734h-15.1v-52.58553h15.1z" fill="#0a290a" stroke="#000000" stroke-width="4.5" stroke-linecap="butt"/><path d="M382.64276,189.60553l4.17525,-3.94951h23.97978v3.94951z" fill="#0a290a" stroke="#000000" stroke-width="1" stroke-linecap="butt"/><path d="M278.58721,283.04997l5.21332,-4.44025h29.94171v4.44025z" fill="#0a290a" stroke="#000000" stroke-width="1" stroke-linecap="butt"/><path d="M258.14276,321.04997l8.22865,-5.69025h47.25971v5.69025z" fill="#0a290a" stroke="#000000" stroke-width="1" stroke-linecap="butt"/><path d="M68.63849,322.37476v-3.59409h24.28552l4.22849,3.59409z" data-paper-data="{&quot;index&quot;:null}" fill="#0a290a" stroke="#000000" stroke-width="1" stroke-linecap="butt"/><path d="M102.75515,259.89142l4.19142,-3.59409h24.07259v3.59409z" data-paper-data="{&quot;index&quot;:null}" fill="#0a290a" stroke="#000000" stroke-width="1" stroke-linecap="butt"/><path d="M68.06626,182.8692v-3.82016h25.58673l4.45506,3.82016z" data-paper-data="{&quot;index&quot;:null}" fill="#0a290a" stroke="#000000" stroke-width="1" stroke-linecap="butt"/><path d="M66.30928,39.06757v-15.1h77.6792v15.1z" fill="#0a290a" stroke="#000000" stroke-width="4.5" stroke-linecap="butt"/><path d="M140.80799,31.52984l31.6,-36.4" fill="none" stroke="#0a290a" stroke-width="10.5" stroke-linecap="round"/><path d="M284.90799,72.27984l-44.85,-79.4" data-paper-data="{&quot;index&quot;:null}" fill="none" stroke="#0a290a" stroke-width="10.5" stroke-linecap="round"/><path d="M620.90604,54.21701v13" fill="none" stroke="#0a290a" stroke-width="5" stroke-linecap="round"/><path d="M597.97384,54.88368v12.33334" fill="none" stroke="#0a290a" stroke-width="5" stroke-linecap="round"/><path d="M572.07035,54.55035v12.33333" fill="none" stroke="#0a290a" stroke-width="5" stroke-linecap="round"/><path d="M548.18813,67.21701v-13" fill="none" stroke="#0a290a" stroke-width="5" stroke-linecap="round"/><path d="M525.40604,67.71701v-13" fill="none" stroke="#0a290a" stroke-width="5" stroke-linecap="round"/><path d="M502.47384,67.71702v-12.33334" fill="none" stroke="#0a290a" stroke-width="5" stroke-linecap="round"/><path d="M476.57035,55.05035v12.33333" fill="none" stroke="#0a290a" stroke-width="5" stroke-linecap="round"/><path d="M452.68813,67.71701v-13" fill="none" stroke="#0a290a" stroke-width="5" stroke-linecap="round"/><path d="M431.40604,67.71701v-13" fill="none" stroke="#0a290a" stroke-width="5" stroke-linecap="round"/><path d="M408.47384,67.71702v-12.33334" fill="none" stroke="#0a290a" stroke-width="5" stroke-linecap="round"/><path d="M382.57035,67.38368v-12.33333" fill="none" stroke="#0a290a" stroke-width="5" stroke-linecap="round"/><path d="M358.68813,67.71701v-13" fill="none" stroke="#0a290a" stroke-width="5" stroke-linecap="round"/><path d="M332.57035,54.05035v12.33333" fill="none" stroke="#0a290a" stroke-width="5" stroke-linecap="round"/><path d="M308.68813,53.71701v13" fill="none" stroke="#0a290a" stroke-width="5" stroke-linecap="round"/><path d="M573.90604,186.21701v-13" data-paper-data="{&quot;index&quot;:null}" fill="none" stroke="#0a290a" stroke-width="5" stroke-linecap="round"/><path d="M551.97384,185.55035v-12.33334" data-paper-data="{&quot;index&quot;:null}" fill="none" stroke="#0a290a" stroke-width="5" stroke-linecap="round"/><path d="M536.07035,185.88368v-12.33333" data-paper-data="{&quot;index&quot;:null}" fill="none" stroke="#0a290a" stroke-width="5" stroke-linecap="round"/><path d="M512.18813,186.21701v-13" data-paper-data="{&quot;index&quot;:null}" fill="none" stroke="#0a290a" stroke-width="5" stroke-linecap="round"/><path d="M486.07035,185.88368v-12.33333" data-paper-data="{&quot;index&quot;:null}" fill="none" stroke="#0a290a" stroke-width="5" stroke-linecap="round"/><path d="M462.18813,186.21701v-13" data-paper-data="{&quot;index&quot;:null}" fill="none" stroke="#0a290a" stroke-width="5" stroke-linecap="round"/><path d="M427.84722,174.21701l11.75,11.75" fill="none" stroke="#0a290a" stroke-width="5" stroke-linecap="round"/><path d="M424.34722,204.71701h14" fill="none" stroke="#0a290a" stroke-width="5" stroke-linecap="round"/><path d="M420.34722,245.71701l9.75,9.75" fill="none" stroke="#0a290a" stroke-width="5" stroke-linecap="round"/><path d="M422.34722,225.21701h16" fill="none" stroke="#0a290a" stroke-width="5" stroke-linecap="round"/><path d="M403.47384,248.71701v12.33334" data-paper-data="{&quot;index&quot;:null}" fill="none" stroke="#0a290a" stroke-width="5" stroke-linecap="round"/><path d="M382.07035,261.38368v-12.33333" data-paper-data="{&quot;index&quot;:null}" fill="none" stroke="#0a290a" stroke-width="5" stroke-linecap="round"/><path d="M362.18813,261.71701v-13" data-paper-data="{&quot;index&quot;:null}" fill="none" stroke="#0a290a" stroke-width="5" stroke-linecap="round"/><path d="M330.34722,251.71701l11.75,11.75" fill="none" stroke="#0a290a" stroke-width="5" stroke-linecap="round"/><path d="M328.34722,280.21701h12.5" fill="none" stroke="#0a290a" stroke-width="5" stroke-linecap="round"/><path d="M327.34722,297.71701h14.5" fill="none" stroke="#0a290a" stroke-width="5" stroke-linecap="round"/><path d="M340.84722,314.21701h-14" fill="none" stroke="#0a290a" stroke-width="5" stroke-linecap="round"/><path d="M326.84722,331.71701h13.5" fill="none" stroke="#0a290a" stroke-width="5" stroke-linecap="round"/><path d="M327.34722,349.21701h14" fill="none" stroke="#0a290a" stroke-width="5" stroke-linecap="round"/><path d="M52.34722,348.21701h-16" fill="none" stroke="#0a290a" stroke-width="5" stroke-linecap="round"/><path d="M52.84722,332.21701h-16.5" fill="none" stroke="#0a290a" stroke-width="5" stroke-linecap="round"/><path d="M53.84722,308.71701h-18.5" fill="none" stroke="#0a290a" stroke-width="5" stroke-linecap="round"/><path d="M35.34722,284.71701h18" fill="none" stroke="#0a290a" stroke-width="5" stroke-linecap="round"/><path d="M53.34722,264.21701h-18" fill="none" stroke="#0a290a" stroke-width="5" stroke-linecap="round"/><path d="M52.84722,241.71701h-16.5" fill="none" stroke="#0a290a" stroke-width="5" stroke-linecap="round"/><path d="M37.34722,217.21701h16" fill="none" stroke="#0a290a" stroke-width="5" stroke-linecap="round"/><path d="M55.34722,194.63637h-18.5" fill="none" stroke="#0a290a" stroke-width="5" stroke-linecap="round"/><path d="M54.04709,169.4093h-17.66667" data-paper-data="{&quot;index&quot;:null}" fill="none" stroke="#0a290a" stroke-width="5" stroke-linecap="round"/><path d="M37.28639,146.4771h16.76069" data-paper-data="{&quot;index&quot;:null}" fill="none" stroke="#0a290a" stroke-width="5" stroke-linecap="round"/><path d="M36.83341,120.57362h16.76068" data-paper-data="{&quot;index&quot;:null}" fill="none" stroke="#0a290a" stroke-width="5" stroke-linecap="round"/><path d="M36.38042,96.69139h17.66667" data-paper-data="{&quot;index&quot;:null}" fill="none" stroke="#0a290a" stroke-width="5" stroke-linecap="round"/><path d="M52.26075,70.57362h-16.76068" data-paper-data="{&quot;index&quot;:null}" fill="none" stroke="#0a290a" stroke-width="5" stroke-linecap="round"/><path d="M52.71375,46.69139h-17.66667" data-paper-data="{&quot;index&quot;:null}" fill="none" stroke="#0a290a" stroke-width="5" stroke-linecap="round"/><path d="M45.76286,18.31134l12.5,12.5" fill="none" stroke="#0a290a" stroke-width="5" stroke-linecap="round"/><path d="M293.34722,42.46701l-13.75,13.75" fill="none" stroke="#0a290a" stroke-width="5" stroke-linecap="round"/><path d="M280.84722,23.96701l-11.75,11.75" fill="none" stroke="#0a290a" stroke-width="5" stroke-linecap="round"/><path d="M260.34722,18.46701l12,-12" fill="none" stroke="#0a290a" stroke-width="5" stroke-linecap="round"/><path d="M138.34722,4.96701l11.75,11.75" fill="none" stroke="#0a290a" stroke-width="5" stroke-linecap="round"/><path d="M102.34722,10.96701v16.5" fill="none" stroke="#0a290a" stroke-width="5" stroke-linecap="round"/><path d="M79.34722,27.96701v-17" fill="none" stroke="#0a290a" stroke-width="5" stroke-linecap="round"/><path d="M121.84722,10.46701v15.5" fill="none" stroke="#0a290a" stroke-width="5" stroke-linecap="round"/><path d="M2.75661,6.08528v-100.09609h388.07507v100.09609z" fill="#000000" stroke="none" stroke-width="0" stroke-linecap="butt"/><path d="M-5.33269,83.87391v-78.12162h280.15273l73.14306,78.12162z" fill="url(#color-28)" stroke="none" stroke-width="0" stroke-linecap="butt"/><path d="M257.59304,333.28917v-12h58.33334v12z" fill="#000000" stroke="none" stroke-width="0" stroke-linecap="butt"/><path d="M241.07952,356.13029v15.1h-175.4141v-15.1z" fill="#0a290a" stroke="#000000" stroke-width="4.5" stroke-linecap="butt"/><path d="M238.9213,356.1024h24.9v24.9c0,0 -9.77299,0 -14.20027,0c-0.76489,0 0.31988,-5.03132 -2.69973,-8c-3.01961,-2.96868 -7.99222,-1.65657 -8,-2.51929c-0.0274,-3.03826 0,-14.38071 0,-14.38071z" data-paper-data="{&quot;index&quot;:null}" fill="#0a290a" stroke="#000000" stroke-width="4.5" stroke-linecap="butt"/><path d="M56.02276,366.4069c-4.60064,-4.40263 -5.41667,-10.16667 -5.41667,-10.16667h15.5v15.25c0,0 -5.30006,-0.50592 -10.08333,-5.08333z" data-paper-data="{&quot;index&quot;:null}" fill="#0a290a" stroke="#000000" stroke-width="4.5" stroke-linecap="butt"/></g></g></svg>