<svg version="1.1" xmlns="http://www.w3.org/2000/svg" xmlns:xlink="http://www.w3.org/1999/xlink" width="156.38547" height="160.63562" viewBox="0,0,156.38547,160.63562"><defs><linearGradient x1="224.62891" y1="220.74267" x2="253.02665" y2="220.74267" gradientUnits="userSpaceOnUse" id="color-1"><stop offset="0" stop-color="#0d0d0d"/><stop offset="1" stop-color="#181818"/></linearGradient><linearGradient x1="234.84646" y1="190.07875" x2="264.26171" y2="190.07875" gradientUnits="userSpaceOnUse" id="color-2"><stop offset="0" stop-color="#151515"/><stop offset="1" stop-color="#272727"/></linearGradient><linearGradient x1="234.84646" y1="190.07875" x2="264.26173" y2="190.07875" gradientUnits="userSpaceOnUse" id="color-3"><stop offset="0" stop-color="#0d0d0d"/><stop offset="1" stop-color="#181818"/></linearGradient><linearGradient x1="229.89266" y1="207.71929" x2="254.45837" y2="212.83527" gradientUnits="userSpaceOnUse" id="color-4"><stop offset="0" stop-color="#050505"/><stop offset="1" stop-color="#0b0b0b"/></linearGradient><linearGradient x1="235.53223" y1="191.27973" x2="258.76425" y2="197.69249" gradientUnits="userSpaceOnUse" id="color-5"><stop offset="0" stop-color="#050505"/><stop offset="1" stop-color="#0b0b0b"/></linearGradient><linearGradient x1="221.42665" y1="244.96327" x2="246.60301" y2="245.30097" gradientUnits="userSpaceOnUse" id="color-6"><stop offset="0" stop-color="#050505"/><stop offset="1" stop-color="#0b0b0b"/></linearGradient><linearGradient x1="227.50377" y1="226.68787" x2="245.65324" y2="231.17916" gradientUnits="userSpaceOnUse" id="color-7"><stop offset="0" stop-color="#050505"/><stop offset="1" stop-color="#0b0b0b"/></linearGradient><linearGradient x1="222.5995" y1="237.36471" x2="240.99684" y2="237.36471" gradientUnits="userSpaceOnUse" id="color-8"><stop offset="0" stop-color="#0d0d0d"/><stop offset="1" stop-color="#181818"/></linearGradient><linearGradient x1="253.04658" y1="221.03565" x2="273.23886" y2="221.03565" gradientUnits="userSpaceOnUse" id="color-9"><stop offset="0" stop-color="#0d0d0d"/><stop offset="1" stop-color="#181818"/></linearGradient><linearGradient x1="230.97523" y1="186.91382" x2="268.80095" y2="186.91382" gradientUnits="userSpaceOnUse" id="color-10"><stop offset="0" stop-color="#0d0d0d"/><stop offset="1" stop-color="#181818"/></linearGradient><linearGradient x1="255.62795" y1="146.47953" x2="281.91652" y2="146.47953" gradientUnits="userSpaceOnUse" id="color-11"><stop offset="0" stop-color="#0d0d0d"/><stop offset="1" stop-color="#181818"/></linearGradient><linearGradient x1="244.72374" y1="198.13595" x2="265.50374" y2="184.73285" gradientUnits="userSpaceOnUse" id="color-12"><stop offset="0" stop-color="#050505"/><stop offset="1" stop-color="#0b0b0b"/></linearGradient><linearGradient x1="264.3917" y1="166.49872" x2="282.06446" y2="166.49872" gradientUnits="userSpaceOnUse" id="color-13"><stop offset="0" stop-color="#0d0d0d"/><stop offset="1" stop-color="#181818"/></linearGradient><linearGradient x1="262.38617" y1="153.75761" x2="284.75721" y2="153.75761" gradientUnits="userSpaceOnUse" id="color-14"><stop offset="0" stop-color="#050505"/><stop offset="1" stop-color="#0b0b0b"/></linearGradient><linearGradient x1="263.95682" y1="178.11345" x2="282.52032" y2="178.11345" gradientUnits="userSpaceOnUse" id="color-15"><stop offset="0" stop-color="#050505"/><stop offset="1" stop-color="#0b0b0b"/></linearGradient><linearGradient x1="223.14746" y1="174.99695" x2="273.22105" y2="174.99695" gradientUnits="userSpaceOnUse" id="color-16"><stop offset="0" stop-color="#050505"/><stop offset="1" stop-color="#0b0b0b"/></linearGradient><linearGradient x1="218.80212" y1="158.54859" x2="269.99523" y2="158.54859" gradientUnits="userSpaceOnUse" id="color-17"><stop offset="0" stop-color="#050505"/><stop offset="1" stop-color="#0b0b0b"/></linearGradient><linearGradient x1="200.14527" y1="171.74008" x2="222.96564" y2="171.74008" gradientUnits="userSpaceOnUse" id="color-18"><stop offset="0" stop-color="#0d0d0d"/><stop offset="1" stop-color="#181818"/></linearGradient><linearGradient x1="217.48481" y1="146.59213" x2="271.93111" y2="146.59213" gradientUnits="userSpaceOnUse" id="color-19"><stop offset="0" stop-color="#050505"/><stop offset="1" stop-color="#0b0b0b"/></linearGradient><linearGradient x1="228.61787" y1="136.01032" x2="267.52856" y2="136.01032" gradientUnits="userSpaceOnUse" id="color-20"><stop offset="0" stop-color="#050505"/><stop offset="1" stop-color="#0b0b0b"/></linearGradient><linearGradient x1="225.88049" y1="115.90295" x2="258.60303" y2="115.90295" gradientUnits="userSpaceOnUse" id="color-21"><stop offset="0" stop-color="#050505"/><stop offset="1" stop-color="#0b0b0b"/></linearGradient><linearGradient x1="239.43646" y1="102.93549" x2="261.37793" y2="102.93549" gradientUnits="userSpaceOnUse" id="color-22"><stop offset="0" stop-color="#050505"/><stop offset="1" stop-color="#0b0b0b"/></linearGradient><linearGradient x1="257.08164" y1="134.03734" x2="283.44624" y2="134.03734" gradientUnits="userSpaceOnUse" id="color-23"><stop offset="0" stop-color="#050505"/><stop offset="1" stop-color="#0b0b0b"/></linearGradient><linearGradient x1="195.47033" y1="151.76772" x2="220.12828" y2="151.76772" gradientUnits="userSpaceOnUse" id="color-24"><stop offset="0" stop-color="#0d0d0d"/><stop offset="1" stop-color="#181818"/></linearGradient><linearGradient x1="193.77887" y1="161.32067" x2="218.05708" y2="161.32067" gradientUnits="userSpaceOnUse" id="color-25"><stop offset="0" stop-color="#050505"/><stop offset="1" stop-color="#0b0b0b"/></linearGradient><linearGradient x1="194.7747" y1="136.89483" x2="232.34467" y2="136.89483" gradientUnits="userSpaceOnUse" id="color-26"><stop offset="0" stop-color="#050505"/><stop offset="1" stop-color="#0b0b0b"/></linearGradient><linearGradient x1="224.76822" y1="172.03315" x2="269.71468" y2="172.03315" gradientUnits="userSpaceOnUse" id="color-27"><stop offset="0" stop-color="#0d0d0d"/><stop offset="1" stop-color="#181818"/></linearGradient><linearGradient x1="251.87439" y1="245.31759" x2="277.79067" y2="244.94018" gradientUnits="userSpaceOnUse" id="color-28"><stop offset="0" stop-color="#050505"/><stop offset="1" stop-color="#0b0b0b"/></linearGradient><linearGradient x1="252.17944" y1="229.82285" x2="273.41505" y2="226.66086" gradientUnits="userSpaceOnUse" id="color-29"><stop offset="0" stop-color="#050505"/><stop offset="1" stop-color="#0b0b0b"/></linearGradient><linearGradient x1="254.00966" y1="115.86844" x2="251.06184" y2="123.51948" gradientUnits="userSpaceOnUse" id="color-30"><stop offset="0" stop-color="#ff0000"/><stop offset="1" stop-color="#b50a0a"/></linearGradient><radialGradient cx="252.68173" cy="120.01183" r="13.89578" gradientUnits="userSpaceOnUse" id="color-31"><stop offset="0" stop-color="#b50a0a"/><stop offset="1" stop-color="#b50a0a" stop-opacity="0"/></radialGradient><linearGradient x1="251.85598" y1="237.76908" x2="271.1161" y2="237.76908" gradientUnits="userSpaceOnUse" id="color-32"><stop offset="0" stop-color="#0d0d0d"/><stop offset="1" stop-color="#181818"/></linearGradient><radialGradient cx="312.8782" cy="132.63986" r="12.91056" gradientUnits="userSpaceOnUse" id="color-33"><stop offset="0" stop-color="#b50a0a"/><stop offset="1" stop-color="#b50a0a" stop-opacity="0"/></radialGradient><radialGradient cx="309.61154" cy="134.69323" r="12.91057" gradientUnits="userSpaceOnUse" id="color-34"><stop offset="0" stop-color="#b50a0a"/><stop offset="1" stop-color="#b50a0a" stop-opacity="0"/></radialGradient><radialGradient cx="306.00937" cy="136.69905" r="12.91057" gradientUnits="userSpaceOnUse" id="color-35"><stop offset="0" stop-color="#b50a0a"/><stop offset="1" stop-color="#b50a0a" stop-opacity="0"/></radialGradient><radialGradient cx="302.74262" cy="138.75245" r="12.91057" gradientUnits="userSpaceOnUse" id="color-36"><stop offset="0" stop-color="#b50a0a"/><stop offset="1" stop-color="#b50a0a" stop-opacity="0"/></radialGradient><radialGradient cx="300.56489" cy="140.12138" r="12.91057" gradientUnits="userSpaceOnUse" id="color-37"><stop offset="0" stop-color="#b50a0a"/><stop offset="1" stop-color="#b50a0a" stop-opacity="0"/></radialGradient><radialGradient cx="297.29823" cy="142.17477" r="12.91057" gradientUnits="userSpaceOnUse" id="color-38"><stop offset="0" stop-color="#b50a0a"/><stop offset="1" stop-color="#b50a0a" stop-opacity="0"/></radialGradient><radialGradient cx="293.69606" cy="144.18058" r="12.91057" gradientUnits="userSpaceOnUse" id="color-39"><stop offset="0" stop-color="#b50a0a"/><stop offset="1" stop-color="#b50a0a" stop-opacity="0"/></radialGradient><radialGradient cx="290.42931" cy="146.23397" r="12.91057" gradientUnits="userSpaceOnUse" id="color-40"><stop offset="0" stop-color="#b50a0a"/><stop offset="1" stop-color="#b50a0a" stop-opacity="0"/></radialGradient><radialGradient cx="337.13925" cy="116.01673" r="12.91057" gradientUnits="userSpaceOnUse" id="color-41"><stop offset="0" stop-color="#b50a0a"/><stop offset="1" stop-color="#b50a0a" stop-opacity="0"/></radialGradient><radialGradient cx="334.4851" cy="119.1173" r="12.91057" gradientUnits="userSpaceOnUse" id="color-42"><stop offset="0" stop-color="#b50a0a"/><stop offset="1" stop-color="#b50a0a" stop-opacity="0"/></radialGradient><radialGradient cx="330.4746" cy="120.42498" r="12.91057" gradientUnits="userSpaceOnUse" id="color-43"><stop offset="0" stop-color="#b50a0a"/><stop offset="1" stop-color="#b50a0a" stop-opacity="0"/></radialGradient><radialGradient cx="327.92251" cy="123.70009" r="12.91056" gradientUnits="userSpaceOnUse" id="color-44"><stop offset="0" stop-color="#b50a0a"/><stop offset="1" stop-color="#b50a0a" stop-opacity="0"/></radialGradient><radialGradient cx="327.09858" cy="123.10577" r="12.91057" gradientUnits="userSpaceOnUse" id="color-45"><stop offset="0" stop-color="#b50a0a"/><stop offset="1" stop-color="#b50a0a" stop-opacity="0"/></radialGradient><radialGradient cx="322.66454" cy="127.01336" r="12.91057" gradientUnits="userSpaceOnUse" id="color-46"><stop offset="0" stop-color="#b50a0a"/><stop offset="1" stop-color="#b50a0a" stop-opacity="0"/></radialGradient><radialGradient cx="320.60249" cy="126.94685" r="12.91057" gradientUnits="userSpaceOnUse" id="color-47"><stop offset="0" stop-color="#b50a0a"/><stop offset="1" stop-color="#b50a0a" stop-opacity="0"/></radialGradient><radialGradient cx="315.6092" cy="131.18162" r="12.91057" gradientUnits="userSpaceOnUse" id="color-48"><stop offset="0" stop-color="#b50a0a"/><stop offset="1" stop-color="#b50a0a" stop-opacity="0"/></radialGradient><radialGradient cx="261.88266" cy="163.66112" r="12.91057" gradientUnits="userSpaceOnUse" id="color-49"><stop offset="0" stop-color="#b50a0a"/><stop offset="1" stop-color="#b50a0a" stop-opacity="0"/></radialGradient><radialGradient cx="258.616" cy="165.71452" r="12.91057" gradientUnits="userSpaceOnUse" id="color-50"><stop offset="0" stop-color="#b50a0a"/><stop offset="1" stop-color="#b50a0a" stop-opacity="0"/></radialGradient><radialGradient cx="255.01396" cy="167.72031" r="12.91057" gradientUnits="userSpaceOnUse" id="color-51"><stop offset="0" stop-color="#b50a0a"/><stop offset="1" stop-color="#b50a0a" stop-opacity="0"/></radialGradient><radialGradient cx="251.74727" cy="169.77371" r="12.91058" gradientUnits="userSpaceOnUse" id="color-52"><stop offset="0" stop-color="#b50a0a"/><stop offset="1" stop-color="#b50a0a" stop-opacity="0"/></radialGradient><radialGradient cx="249.56949" cy="171.14265" r="12.91057" gradientUnits="userSpaceOnUse" id="color-53"><stop offset="0" stop-color="#b50a0a"/><stop offset="1" stop-color="#b50a0a" stop-opacity="0"/></radialGradient><radialGradient cx="246.30282" cy="173.19605" r="12.91057" gradientUnits="userSpaceOnUse" id="color-54"><stop offset="0" stop-color="#b50a0a"/><stop offset="1" stop-color="#b50a0a" stop-opacity="0"/></radialGradient><radialGradient cx="242.70063" cy="175.20184" r="12.91057" gradientUnits="userSpaceOnUse" id="color-55"><stop offset="0" stop-color="#b50a0a"/><stop offset="1" stop-color="#b50a0a" stop-opacity="0"/></radialGradient><radialGradient cx="239.43396" cy="177.25524" r="12.91057" gradientUnits="userSpaceOnUse" id="color-56"><stop offset="0" stop-color="#b50a0a"/><stop offset="1" stop-color="#b50a0a" stop-opacity="0"/></radialGradient><radialGradient cx="287.06255" cy="148.60876" r="12.91058" gradientUnits="userSpaceOnUse" id="color-57"><stop offset="0" stop-color="#b50a0a"/><stop offset="1" stop-color="#b50a0a" stop-opacity="0"/></radialGradient><radialGradient cx="283.79589" cy="150.66216" r="12.91057" gradientUnits="userSpaceOnUse" id="color-58"><stop offset="0" stop-color="#b50a0a"/><stop offset="1" stop-color="#b50a0a" stop-opacity="0"/></radialGradient><radialGradient cx="280.19372" cy="152.66797" r="12.91057" gradientUnits="userSpaceOnUse" id="color-59"><stop offset="0" stop-color="#b50a0a"/><stop offset="1" stop-color="#b50a0a" stop-opacity="0"/></radialGradient><radialGradient cx="276.92714" cy="154.72135" r="12.91057" gradientUnits="userSpaceOnUse" id="color-60"><stop offset="0" stop-color="#b50a0a"/><stop offset="1" stop-color="#b50a0a" stop-opacity="0"/></radialGradient><radialGradient cx="274.74924" cy="156.09028" r="12.91058" gradientUnits="userSpaceOnUse" id="color-61"><stop offset="0" stop-color="#b50a0a"/><stop offset="1" stop-color="#b50a0a" stop-opacity="0"/></radialGradient><radialGradient cx="271.48258" cy="158.14369" r="12.91057" gradientUnits="userSpaceOnUse" id="color-62"><stop offset="0" stop-color="#b50a0a"/><stop offset="1" stop-color="#b50a0a" stop-opacity="0"/></radialGradient><radialGradient cx="267.88049" cy="160.14949" r="12.91057" gradientUnits="userSpaceOnUse" id="color-63"><stop offset="0" stop-color="#b50a0a"/><stop offset="1" stop-color="#b50a0a" stop-opacity="0"/></radialGradient><radialGradient cx="264.61383" cy="162.20288" r="12.91057" gradientUnits="userSpaceOnUse" id="color-64"><stop offset="0" stop-color="#b50a0a"/><stop offset="1" stop-color="#b50a0a" stop-opacity="0"/></radialGradient><linearGradient x1="287.7564" y1="141.80138" x2="291.91959" y2="148.9176" gradientUnits="userSpaceOnUse" id="color-65"><stop offset="0" stop-color="#400000"/><stop offset="1" stop-color="#ff0000"/></linearGradient><linearGradient x1="238.72936" y1="175.3057" x2="234.88434" y2="177.55507" gradientUnits="userSpaceOnUse" id="color-66"><stop offset="0" stop-color="#0d0d0d"/><stop offset="1" stop-color="#181818"/></linearGradient><linearGradient x1="207.48276" y1="184.67723" x2="228.3118" y2="179.92785" gradientUnits="userSpaceOnUse" id="color-67"><stop offset="0" stop-color="#050505"/><stop offset="1" stop-color="#0b0b0b"/></linearGradient><linearGradient x1="252.04364" y1="212.60084" x2="273.22399" y2="203.33536" gradientUnits="userSpaceOnUse" id="color-68"><stop offset="0" stop-color="#050505"/><stop offset="1" stop-color="#0b0b0b"/></linearGradient></defs><g transform="translate(-192.77886,-92.9406)"><g data-paper-data="{&quot;isPaintingLayer&quot;:true}" fill-rule="nonzero" stroke-linejoin="miter" stroke-miterlimit="10" stroke-dasharray="" stroke-dashoffset="0" style="mix-blend-mode: normal"><g><path d="M210.39083,224.39565l52.53615,-114.7469l11.87672,5.66982l-52.53615,114.74691c0,0 -5.13711,2.6005 -8.0106,1.22873c-2.87349,-1.37177 -3.86612,-6.89855 -3.86612,-6.89855z" fill="#0d0d0d" stroke="#000000" stroke-width="2.5" stroke-linecap="butt"/><path d="M249.12991,171.11773l-7.20177,-3.33553l12.89739,-27.84686l4.13357,-1.58417l7.55385,-16.30957l-1.64904,-4.172l-4.22396,-1.82371l2.08759,-4.71608l11.42707,5.09812z" fill="#050505" stroke="#000000" stroke-width="2.5" stroke-linecap="round"/><path d="M259.17557,110.52332c0,0 -0.40317,-1.69388 -0.03147,-2.48904c0.3717,-0.79516 2.00437,-1.73149 2.00437,-1.73149l18.83486,8.64396c0,0 0.38908,1.72406 -0.03654,2.63458c-0.42562,0.91052 -1.93635,1.58594 -1.93635,1.58594z" fill="#000000" stroke="none" stroke-width="0" stroke-linecap="butt"/><path d="M278.9343,116.57664l1.4796,7.30806l-3.42279,7.80931c0,0 -2.46812,-0.11636 -3.60999,-0.64522c-1.29898,-0.60163 -3.77348,-2.77446 -3.77348,-2.77446" fill="none" stroke="#000000" stroke-width="3.5" stroke-linecap="round"/><path d="M275.80205,125.42242c0,0 -1.80801,0.68796 -2.73306,0.68428c-1.01281,-0.00403 -3.10442,-0.7075 -3.10442,-0.7075" fill="none" stroke="#000000" stroke-width="2.5" stroke-linecap="round"/><path d="M235.11574,170.93729l5.3354,2.47111l-6.36998,13.75347l-7.83834,2.77755z" fill="#050505" stroke="#000000" stroke-width="2.5" stroke-linecap="round"/><path d="M221.97852,230.39268c0,0 -5.11706,2.79324 -7.9861,1.2012c-2.86904,-1.59205 -3.46032,-7.55288 -3.46032,-7.55288l0.63808,-1.38138l4.30192,1.98732l4.40195,-1.36953l6.91124,-14.9221l-1.55944,-4.25021l4.00869,-8.6552l1.73478,-0.63651l8.31259,-2.55789z" fill="#070707" stroke="#000000" stroke-width="2.5" stroke-linecap="round"/></g><path d="M224.62893,234.87899c0,0 2.51321,-8.17578 5.0607,-12.82089c3.10096,-5.6543 6.27006,-21.26589 6.27006,-21.26589l17.06696,10.42358c0,0 -6.72248,12.04382 -9.90219,17.61823c-1.29007,2.26164 -4.29951,5.73248 -6.39251,8.18518c-0.38575,0.45204 -1.21489,0.62799 -1.46153,1.01703c-0.38025,0.59978 0.5278,2.75481 -0.17545,2.65342c-1.54229,-0.22235 -5.11985,-3.67795 -6.67339,-4.38004c-2.04141,-0.92258 -3.79267,-1.43058 -3.79267,-1.43058z" fill="url(#color-1)" stroke="#000000" stroke-width="2" stroke-linecap="butt"/><path d="M234.84646,206.27051l6.89886,-37.91575l22.51641,9.97258l-12.79833,33.47539z" data-paper-data="{&quot;index&quot;:null}" fill="url(#color-2)" stroke="url(#color-3)" stroke-width="2" stroke-linecap="butt"/><path d="M235.5624,206.54092c2.21433,-0.87262 4.80399,-2.43487 7.57163,-2.65588c5.6175,-0.44857 9.2631,0.10204 10.59603,4.84195c1.33293,4.7399 0.59351,9.87387 -5.02401,10.32244c-4.35499,0.34776 -10.29778,-4.90345 -13.45684,-8.25801c-0.60894,-0.64661 -3.81823,-0.29159 -5.03783,-1.10454c-0.61466,-0.4097 -0.08199,-1.30398 -0.18238,-1.66095c-0.67623,-2.40465 3.2533,-0.58647 5.53343,-1.48502z" data-paper-data="{&quot;index&quot;:null}" fill="url(#color-4)" stroke="#000000" stroke-width="2" stroke-linecap="butt"/><path d="M234.75011,198.64266l0.26521,-5.42959l1.62269,-5.9394c0,0 8.34974,-0.18446 12.05321,0.2951c4.07685,0.52792 11.39554,2.74137 11.39554,2.74137l-0.90787,5.88058l-2.43109,5.02824c0,0 -7.25164,0.82833 -10.89683,0.40141c-3.68689,-0.4318 -11.10086,-2.97771 -11.10086,-2.97771z" fill="url(#color-5)" stroke="#000000" stroke-width="2" stroke-linecap="butt"/><path d="M221.7917,252.0235l-0.35389,-7.89382l2.6645,-6.41455l13.67714,1.34526l0.35196,4.92852c0,0 7.20228,5.1523 8.08013,5.30092c1.33623,0.22622 -1.7771,3.26605 -1.7771,3.26605z" fill="url(#color-6)" stroke="#000000" stroke-width="2" stroke-linecap="butt"/><path d="M230.82278,218.31179c0,0 6.29103,0.68033 9.06075,1.67265c2.81815,1.00967 7.18083,4.20439 7.18083,4.20439l-7.92866,15.14741c0,0 -4.41625,-0.86634 -6.87777,-1.8868c-2.21431,-0.91796 -6.17928,-3.70142 -6.17928,-3.70142z" fill="url(#color-7)" stroke="#000000" stroke-width="2" stroke-linecap="butt"/><path d="M233.83302,236.7198c2.46935,0.72913 6.95275,1.29394 6.95275,1.29394c0,0 0.36142,1.58068 0.13839,2.33605c-0.20733,0.70219 -1.07718,1.42886 -1.07718,1.42886c0,0 -5.03922,-0.83923 -7.71179,-1.62837c-2.92245,-0.86291 -8.85576,-3.84308 -8.85576,-3.84308c0,0 -0.87685,-1.77557 -0.63902,-2.58102c0.17198,-0.58242 2.00216,-0.77542 2.00216,-0.77542c0,0 6.15864,2.87382 9.19044,3.76903z" data-paper-data="{&quot;index&quot;:null}" fill="url(#color-8)" stroke="#000000" stroke-width="2" stroke-linecap="butt"/><path d="M255.72894,241.43341c0,0 -0.92905,-10.0941 -0.68039,-15.52588c0.30264,-6.61186 -2.00197,-21.34435 -2.00197,-21.34435c0,0 8.88709,-4.04004 11.31528,-3.9228c3.72805,0.18 8.877,4.8977 8.877,4.8977c0,0 -3.14223,12.10234 -3.55688,18.6798c-0.19923,3.16041 -0.90833,10.22364 -1.24498,13.24991c-0.25793,2.31842 1.23391,2.49628 1.23391,2.49628c0,0 -6.55168,-0.70751 -9.17427,-0.54397c-2.36692,0.14761 -4.76767,2.01325 -4.76767,2.01325z" fill="url(#color-9)" stroke="#000000" stroke-width="2" stroke-linecap="butt"/><path d="M252.93801,209.81454l-21.96278,-26.99142l20.93384,-18.81003c0,0 14.96118,31.37742 16.88521,34.90878c0.38298,0.70292 -15.85627,10.89267 -15.85627,10.89267z" fill="url(#color-10)" stroke="#000000" stroke-width="2" stroke-linecap="butt"/><path d="M255.62974,139.04244c0.10838,-5.52859 10.42874,-5.12881 17.27284,-5.05319c6.84409,0.07562 9.11882,15.41156 9.01044,20.94016c-0.10839,5.52859 -7.91545,3.85691 -14.75954,3.78129c-6.84409,-0.07561 -11.63213,-14.13965 -11.52373,-19.66826z" data-paper-data="{&quot;index&quot;:null}" fill="url(#color-11)" stroke="#000000" stroke-width="2" stroke-linecap="butt"/><path d="M247.98508,202.01754l-3.19172,-3.77366l-2.44899,-4.97734c0,0 6.4161,-5.44443 9.61339,-7.48657c3.51962,-2.24801 10.63043,-5.44334 10.63043,-5.44334l2.97134,4.48269l1.24622,4.88768c0,0 -5.15405,5.17197 -8.27277,7.21191c-3.15442,2.06329 -10.54788,5.09862 -10.54788,5.09862z" fill="url(#color-12)" stroke="#000000" stroke-width="2" stroke-linecap="butt"/><path d="M267.06219,156.3397c5.72232,-1.82534 11.59038,-5.36641 13.98091,-0.3068c2.3905,5.05961 0.55186,20.6949 -5.17046,22.52023c-5.72232,1.82534 -4.85689,1.51479 -7.24741,-3.54484c-2.3905,-5.05961 -7.28535,-16.84326 -1.56303,-18.66861z" data-paper-data="{&quot;index&quot;:null}" fill="url(#color-13)" stroke="#000000" stroke-width="2" stroke-linecap="butt"/><path d="M265.16081,151.10479c2.10737,-1.50811 4.45651,-3.88583 7.27579,-4.78516c5.72232,-1.82534 8.22892,-2.05798 10.61943,3.00164c2.3905,5.05961 2.91712,10.88924 -2.80521,12.71459c-4.43623,1.41509 -9.55432,-1.72831 -13.54092,-4.78967c-1.15575,-0.8875 -3.33152,-1.2979 -3.86878,-2.43504c-1.21276,-2.56685 0.14969,-2.15344 2.31969,-3.70637z" data-paper-data="{&quot;index&quot;:null}" fill="url(#color-14)" stroke="#000000" stroke-width="2" stroke-linecap="butt"/><path d="M266.30332,178.97333c0.8632,-0.46075 -3.2863,-11.203 -2.14694,-11.31913c0.87633,-0.08931 15.02423,-0.84904 17.82742,1.37849c2.62499,2.08591 -5.26913,9.4481 -4.64548,9.75714c1.42194,0.70461 1.47411,1.80134 1.71337,3.1242c0.29008,1.60378 -0.41491,4.95495 -1.84322,6.26867c-0.81833,0.75266 -1.83669,-0.09316 -3.13627,0.0393c-1.03443,0.10542 -2.85388,1.22772 -3.79629,-0.08503c-0.9168,-1.27707 -0.95989,-4.98009 -1.72729,-5.58518c-0.48933,-0.38581 0.83371,3.01123 0.4382,3.34947c-0.54586,0.46683 -2.74256,-2.04425 -2.85579,-2.67036c-0.31056,-1.71708 -1.66761,-3.27545 0.17232,-4.25758z" data-paper-data="{&quot;index&quot;:null}" fill="url(#color-15)" stroke="#000000" stroke-width="2" stroke-linecap="butt"/><path d="M223.14746,184.34668l4.00039,-18.52536l39.31412,-2.06721l6.75928,20.59256c0,0 -12.04391,2.39249 -13.0729,1.7983c-1.12221,-0.64802 -3.86044,-13.29454 -4.49228,-13.18316c-1.00223,0.17666 -1.77827,13.08135 -2.90801,13.14121c-4.84922,0.25688 -10.05175,-0.04691 -12.56447,-0.04691c-9.23661,0 -17.03613,-1.70943 -17.03613,-1.70943z" fill="url(#color-16)" stroke="#000000" stroke-width="2" stroke-linecap="butt"/><path d="M269.91054,153.19189c0.41549,2.09214 -0.77823,0.21406 -1.8017,4.12045c-0.27856,1.06328 0.38855,11.18137 0.02358,12.1099c-1.30274,3.31458 -11.53288,1.66588 -11.53288,1.66588c0,0 -10.28101,0.68487 -17.71984,-0.03111c-7.0427,-0.67785 -12.49059,-1.60759 -12.49059,-1.60759c0,0 -2.3633,-5.19414 -3.38571,-7.68453c-1.02241,-2.49039 -3.19977,-7.14184 -4.20131,-11.34106c0,0 21.25847,-3.49429 36.50433,-4.77394c8.31938,-0.69827 14.29661,5.99373 14.6041,7.542z" fill="url(#color-17)" stroke="#000000" stroke-width="2" stroke-linecap="butt"/><path d="M222.90607,178.92777c0,5.66179 1.07737,5.69531 -5.93161,5.69531c-7.00897,0 -16.82919,-14.63425 -16.82919,-20.29603c0,-5.66179 7.03374,-5.46919 14.04273,-5.46919c7.00897,0 8.71809,14.40812 8.71809,20.06989z" fill="url(#color-18)" stroke="#000000" stroke-width="2" stroke-linecap="butt"/><path d="M271.84178,144.12294c0.41549,2.09213 -0.66581,10.24573 -2.21552,11.88678c-0.6796,0.71966 0.34261,3.84632 -1.74014,4.78794c-4.01228,1.81397 -12.57056,5.246 -12.57056,5.246c0,0 -15.46288,-3.80982 -24.69227,-4.77925c-5.59527,-0.58772 -1.11313,-3.6446 -4.47902,-5.17345c-1.78763,-0.81199 -6.23974,-1.18899 -6.38254,-1.47929c-1.20257,-2.44462 -0.78574,-0.66989 -1.78729,-4.86913c-1.05996,-4.44417 -0.06891,-3.86697 -0.06891,-6.75865c0,-8.52127 9.31125,-15.84333 9.31125,-15.84333l38.99422,5.21908c0,0 4.75979,7.37776 5.63076,11.76331z" fill="url(#color-19)" stroke="#000000" stroke-width="2" stroke-linecap="butt"/><path d="M234.32096,140.97285c-1.59411,-0.0758 -4.8926,-0.15082 -5.55365,-1.24238c-0.74698,-1.23344 1.54076,-10.86086 1.70754,-11.6386c0.36477,-1.7009 22.92839,-0.58068 26.05515,-0.58068c1.6816,0 13.86237,3.6088 10.37372,7.20745c-0.94987,0.97982 0.76245,2.84793 -1.25676,3.83107c-4.34323,2.11469 -7.80272,5.56133 -9.82352,6.29386c-2.4811,0.41031 -21.00143,-3.84687 -21.50248,-3.8707z" fill="url(#color-20)" stroke="#000000" stroke-width="2" stroke-linecap="butt"/><path d="M239.27092,101.70844c2.28053,-0.10414 19.42058,3.03674 19.33192,4.32696c-0.47695,6.93933 -6.75003,24.06458 -16.00647,24.06458c-4.91206,0 -13.32723,-0.91598 -13.32723,-0.91598c0,0 -3.38866,-12.96426 -3.38866,-16.22545c0,-3.26119 13.39043,-11.25009 13.39043,-11.25009z" fill="url(#color-21)" stroke="#000000" stroke-width="2" stroke-linecap="butt"/><path d="M242.11507,94.71296c4.74337,-0.21357 17.56143,10.40572 17.50759,11.18931c-0.07474,1.08728 1.75543,2.39336 1.75543,2.39336l-11.28836,2.86556c0,0 0.8316,-5.16878 -0.82662,-6.67507c0,0 -2.6008,-1.42409 -5.75939,-1.8489c-1.54308,-0.20754 -4.30131,-0.92038 -4.05138,-1.23946c0.34411,-0.43928 4.1667,-1.94732 4.56366,-2.74593c0.59523,-1.1975 -1.90097,-3.93888 -1.90097,-3.93888z" fill="url(#color-22)" stroke="#000000" stroke-width="2" stroke-linecap="butt"/><path d="M231.69944,116.60757l1.45379,-2.00606c0,0 3.33643,1.84276 5.41314,1.04071c5.44136,-2.10151 8.23969,-3.65283 13.71828,-5.69913c3.02499,-1.12987 9.8708,-0.83887 9.8708,-0.83887c0,0 -0.34224,0.24977 -0.84083,3.45537c-0.4986,3.20561 -0.82733,5.36274 -0.82733,5.36274c0,0 -2.35056,8.19971 -5.03504,10.86326c-2.04878,2.0328 -4.74104,3.15363 -4.74104,3.15363l-11.88948,-2.90062c0,0 -0.92524,-5.47614 -2.10244,-7.35331z" fill="#000000" stroke="#000000" stroke-width="1.5" stroke-linecap="butt"/><path d="M277.61672,143.97967c-1.28979,0 -1.21301,-2.60896 -3.00419,-5.1602c-0.78069,-1.11197 -7.84562,-0.22485 -7.92283,-0.55012c-0.62774,-2.64454 -9.60807,-9.05984 -9.60807,-10.38614c0,-4.04777 2.21844,-4.92827 2.21844,-4.92827c0,0 0.37328,0.56409 1.53906,1.85044c1.4412,1.59028 11.07297,1.26091 13.837,2.79558c5.12831,2.84743 6.68371,12.40545 6.68371,14.16194c0,1.7476 3.19388,3.13036 1.67832,3.32891c-1.80856,0.23696 -5.42145,-1.11215 -5.42145,-1.11215z" data-paper-data="{&quot;index&quot;:null}" fill="url(#color-23)" stroke="#000000" stroke-width="2" stroke-linecap="butt"/><path d="M211.85464,163.76755c-6.92692,0.80274 -14.52996,3.32633 -15.6807,-2.26916c-1.15072,-5.59551 -1.73082,-21.39024 5.1961,-22.19296c6.92692,-0.80273 17.31836,-2.30302 18.46908,3.29247c1.15072,5.59551 -1.05756,20.36693 -7.98448,21.16966z" data-paper-data="{&quot;index&quot;:null}" fill="url(#color-24)" stroke="#000000" stroke-width="2" stroke-linecap="butt"/><path d="M218.05706,157.74815c0,1.27249 -2.10958,2.34649 -2.89344,3.56806c-2.70387,4.21369 -6.57083,8.85808 -12.00455,8.85808c-7.00897,0 -9.3802,-5.83242 -9.3802,-11.49418c0,-5.66179 2.78507,-6.21307 9.79406,-6.21307c3.45318,0 7.14944,1.58353 10.15103,2.39639c3.09079,0.83702 4.33311,0.01238 4.33311,2.88471z" fill="url(#color-25)" stroke="#000000" stroke-width="2" stroke-linecap="butt"/><path d="M194.7877,145.20576c-0.22308,-1.81635 2.43161,-10.41804 7.54727,-13.84164c3.68911,-2.46885 16.92109,-2.16023 19.63649,-4.00661c2.19646,-1.49352 2.69634,-3.62824 2.69634,-3.62824c0,0 7.15378,3.4307 7.66787,7.6164c0.16845,1.37151 -2.0705,5.05508 -3.00538,7.87767c-0.11499,0.34717 -6.96879,0.48245 -8.40788,1.7417c-3.30181,2.88915 -4.32611,7.58231 -6.937,7.76299c0,0 -7.0814,1.38353 -9.47163,1.33089c-5.53591,-0.12188 -9.38605,-2.08477 -9.72604,-4.85316z" fill="url(#color-26)" stroke="#000000" stroke-width="2" stroke-linecap="butt"/><path d="M259.74996,117.41587c0.19876,1.16981 -2.18343,6.49989 -2.18343,6.49989c0,0 -0.5794,2.50747 -2.29843,4.28616c-0.96659,1.1683 -4.37969,2.57042 -4.37969,2.57042c0,0 3.10555,-6.27437 4.73372,-11.49278c0.21787,-0.69828 0.63195,-1.20473 2.71571,-4.61229c1.81131,-2.96202 2.57551,-2.35613 2.57551,-2.35613c0,0 -0.92073,4.07766 -1.16338,5.1047z" fill="#000000" stroke="#000000" stroke-width="1.5" stroke-linecap="butt"/><path d="M224.7683,173.43616c0,0 -0.00748,-1.51106 0.12892,-2.27902c0.13942,-0.78492 0.69876,-2.38078 0.69876,-2.38078c0,0 7.15917,1.05794 15.2409,1.69654c6.02897,0.47638 12.81605,0.58161 16.2104,0.58161c5.33618,0 11.58731,-1.76037 11.58731,-1.76037c0,0 0.90416,1.1461 1.0271,1.68442c0.1482,0.64897 -0.06148,2.35409 -0.06148,2.35409c0,0 -6.75601,1.77632 -11.58634,1.78773c-3.6964,0.00873 -10.99143,0.3803 -17.80844,-0.00488c-8.05205,-0.45496 -15.43712,-1.6793 -15.43712,-1.6793z" fill="url(#color-27)" stroke="#000000" stroke-width="2" stroke-linecap="butt"/><path d="M251.15016,175.45541c0,0 -0.41051,-1.17204 -0.5048,-1.70293c-0.15251,-0.85865 -0.04699,-2.95687 -0.04699,-2.95687c0,0 3.01256,-0.2071 4.41421,-0.2071c1.35568,0 3.86244,0.2071 3.86244,0.2071c0,0 0.55176,1.37226 0.55176,2.07103c0,0.71602 -0.27589,2.17457 -0.27589,2.17457c0,0 -2.39944,0.70559 -3.40591,0.75955c-1.422,0.07626 -4.59488,-0.34534 -4.59488,-0.34534z" fill="#060606" stroke="#000000" stroke-width="2" stroke-linecap="butt"/><path d="M252.45333,252.57206l-0.59144,-8.11255l2.55707,-6.67728l14.42717,2.78l0.18942,3.27176c0,0 7.55948,5.09432 8.46708,5.22198c1.38148,0.19431 -1.73459,3.41195 -1.73459,3.41195z" fill="url(#color-28)" stroke="#000000" stroke-width="2" stroke-linecap="butt"/><path d="M254.66932,220.15808c0,0 6.40831,-1.08172 9.36675,-0.93623c3.01019,0.14801 6.17904,1.58059 6.17904,1.58059l-1.99757,15.93806c0,0 -5.67312,0.45969 -8.3298,0.20605c-2.38986,-0.22815 -6.89473,-1.65952 -6.89473,-1.65952z" fill="url(#color-29)" stroke="#000000" stroke-width="2" stroke-linecap="butt"/><path d="M249.03244,118.58664c0.81401,-2.11279 3.0424,-3.32974 4.9772,-2.7182c1.93483,0.61155 2.84342,2.82005 2.0294,4.93282c-0.81401,2.11279 -3.0424,3.32974 -4.97722,2.7182c-1.93483,-0.61155 -2.84341,-2.82005 -2.02938,-4.93282z" fill="url(#color-30)" stroke="#000000" stroke-width="0" stroke-linecap="butt"/><path d="M239.39013,120.01183c0,-6.31705 5.95087,-11.43802 13.29163,-11.43802c7.34076,0 13.29163,5.12098 13.29163,11.43802c0,6.31705 -5.95086,11.43803 -13.29163,11.43803c-7.34077,0 -13.29163,-5.12099 -13.29163,-11.43803z" fill="url(#color-31)" stroke="#000000" stroke-width="0" stroke-linecap="butt"/><path d="M263.4273,236.7672c2.56636,0.2075 7.07034,-0.15866 7.07034,-0.15866c0,0 0.67775,1.47303 0.61427,2.2581c-0.059,0.72978 -0.76144,1.61931 -0.76144,1.61931c0,0 -5.10425,0.21148 -7.88183,-0.01309c-3.03728,-0.24557 -9.45546,-1.9463 -9.45546,-1.9463c0,0 -1.22216,-1.55815 -1.15448,-2.39524c0.04895,-0.60532 1.80073,-1.16933 1.80073,-1.16933c0,0 6.61692,1.55047 9.76785,1.80523z" data-paper-data="{&quot;index&quot;:null}" fill="url(#color-32)" stroke="#000000" stroke-width="2" stroke-linecap="butt"/><g><g stroke="none" stroke-width="0" stroke-linecap="butt"><g><g><g><path d="M303.35006,117.70581c7.09627,-4.46064 15.95823,-3.20332 19.79371,2.80832c3.83549,6.01164 1.19211,14.50108 -5.90416,18.96172c-7.09627,4.46064 -15.95822,3.20333 -19.79371,-2.80831c-3.83549,-6.01164 -1.19211,-14.50108 5.90416,-18.96172z" fill="url(#color-33)"/><path d="M300.08348,119.7592c7.09627,-4.46064 15.95823,-3.20332 19.79372,2.80832c3.83549,6.01164 1.19211,14.50107 -5.90417,18.96172c-7.09627,4.46064 -15.95823,3.20332 -19.79371,-2.80832c-3.83549,-6.01164 -1.1921,-14.50108 5.90416,-18.96172z" fill="url(#color-34)"/><path d="M296.48131,121.765c7.09627,-4.46064 15.95823,-3.20332 19.79371,2.80832c3.83549,6.01164 1.19211,14.50108 -5.90416,18.96172c-7.09627,4.46064 -15.95823,3.20332 -19.79371,-2.80832c-3.83549,-6.01164 -1.19211,-14.50108 5.90417,-18.96172z" fill="url(#color-35)"/><path d="M293.21452,123.8184c7.09627,-4.46064 15.95824,-3.20332 19.79372,2.80832c3.83549,6.01164 1.1921,14.50109 -5.90417,18.96173c-7.09627,4.46064 -15.95823,3.20333 -19.79372,-2.80831c-3.83549,-6.01164 -1.1921,-14.50109 5.90416,-18.96173z" fill="url(#color-36)"/></g><g><path d="M291.03683,125.18734c7.09627,-4.46064 15.95824,-3.20332 19.79372,2.80832c3.83549,6.01164 1.19211,14.50107 -5.90417,18.96172c-7.09627,4.46064 -15.95823,3.20332 -19.79372,-2.80832c-3.83549,-6.01164 -1.19211,-14.50107 5.90416,-18.96171z" fill="url(#color-37)"/><path d="M287.77017,127.24073c7.09627,-4.46064 15.95823,-3.20333 19.79372,2.80831c3.83549,6.01164 1.1921,14.50108 -5.90417,18.96172c-7.09627,4.46064 -15.95823,3.20332 -19.79371,-2.80832c-3.83549,-6.01164 -1.19211,-14.50107 5.90417,-18.96172z" fill="url(#color-38)"/><path d="M284.16787,129.24653c7.09627,-4.46064 15.95823,-3.20332 19.79371,2.80832c3.83549,6.01164 1.1921,14.50108 -5.90417,18.96173c-7.09627,4.46064 -15.95823,3.20332 -19.79372,-2.80832c-3.83549,-6.01164 -1.1921,-14.50108 5.90417,-18.96172z" fill="url(#color-39)"/><path d="M280.90121,131.29992c7.09627,-4.46064 15.95823,-3.20332 19.79372,2.80832c3.83549,6.01164 1.19211,14.50108 -5.90417,18.96173c-7.09627,4.46064 -15.95823,3.20332 -19.79371,-2.80832c-3.83549,-6.01164 -1.1921,-14.50109 5.90416,-18.96173z" fill="url(#color-40)"/></g></g><g><g><path d="M327.61109,101.08267c7.09627,-4.46064 15.95822,-3.20332 19.79371,2.80832c3.83549,6.01164 1.19211,14.50108 -5.90416,18.96172c-7.09627,4.46064 -15.95824,3.20332 -19.79372,-2.80832c-3.83549,-6.01164 -1.1921,-14.50108 5.90418,-18.96173z" fill="url(#color-41)"/><path d="M324.957,104.18326c7.09627,-4.46064 15.95823,-3.20332 19.79371,2.80832c3.83549,6.01164 1.19211,14.50108 -5.90417,18.96172c-2.2524,1.41583 -4.49626,2.14655 -6.88723,2.44105c-5.14188,0.63338 -10.2884,-1.14586 -12.90649,-5.24937c-3.83549,-6.01164 -1.19211,-14.50108 5.90417,-18.96172z" fill="url(#color-42)"/><path d="M320.94642,105.49094c7.09627,-4.46064 15.95823,-3.20333 19.79372,2.80831c3.83549,6.01164 1.1921,14.50108 -5.90418,18.96173c-7.09627,4.46064 -15.95822,3.20331 -19.7937,-2.80833c-3.83549,-6.01164 -1.19211,-14.50107 5.90416,-18.96171z" fill="url(#color-43)"/><path d="M318.39441,108.76605c7.09627,-4.46064 15.95823,-3.20332 19.79372,2.80832c3.83549,6.01164 1.19211,14.50108 -5.90416,18.96173c-7.09627,4.46064 -15.95823,3.20333 -19.79372,-2.80831c-3.83549,-6.01164 -1.19211,-14.50109 5.90417,-18.96174z" fill="url(#color-44)"/></g><g><path d="M317.57043,108.17172c7.09627,-4.46064 15.95823,-3.20332 19.79372,2.80832c3.83549,6.01164 1.19211,14.50108 -5.90416,18.96173c-7.09627,4.46064 -15.95823,3.20332 -19.79371,-2.80832c-3.83549,-6.01164 -1.19212,-14.50109 5.90416,-18.96173z" fill="url(#color-45)"/><path d="M313.13635,112.07932c7.09627,-4.46064 15.95823,-3.20332 19.79371,2.80832c3.83549,6.01164 1.19211,14.50107 -5.90416,18.96171c-7.09627,4.46064 -15.95823,3.20332 -19.79371,-2.80832c-3.83549,-6.01164 -1.19211,-14.50107 5.90417,-18.96172z" fill="url(#color-46)"/><path d="M311.07439,112.0128c7.09627,-4.46064 15.95822,-3.20333 19.79371,2.80831c3.83549,6.01164 1.1921,14.50108 -5.90417,18.96172c-7.09627,4.46064 -15.95823,3.20332 -19.79372,-2.80832c-3.83549,-6.01164 -1.19211,-14.50108 5.90417,-18.96172z" fill="url(#color-47)"/><path d="M306.0811,116.24757c7.09627,-4.46064 15.95822,-3.20333 19.79371,2.80831c3.83549,6.01164 1.19211,14.50107 -5.90417,18.96172c-7.09627,4.46064 -15.95823,3.20332 -19.79371,-2.80832c-3.83549,-6.01164 -1.19211,-14.50108 5.90416,-18.96172z" fill="url(#color-48)"/></g></g></g><g><g><g><path d="M252.3547,148.72706c7.09627,-4.46064 15.95822,-3.20332 19.79371,2.80832c3.83549,6.01164 1.1921,14.50108 -5.90417,18.96172c-7.09627,4.46064 -15.95823,3.20332 -19.79372,-2.80832c-3.83549,-6.01164 -1.19211,-14.50108 5.90417,-18.96172z" fill="url(#color-49)"/><path d="M249.08802,150.78047c7.09627,-4.46064 15.95823,-3.20332 19.79371,2.80832c3.83549,6.01164 1.19211,14.50108 -5.90417,18.96172c-7.09627,4.46064 -15.95823,3.20332 -19.79371,-2.80832c-3.83549,-6.01164 -1.19211,-14.50108 5.90416,-18.96172z" fill="url(#color-50)"/><path d="M245.48585,152.78626c7.09627,-4.46064 15.95823,-3.20332 19.79371,2.80832c3.83549,6.01164 1.19211,14.50108 -5.90416,18.96172c-7.09627,4.46064 -15.95823,3.20332 -19.79372,-2.80832c-3.83549,-6.01164 -1.19211,-14.50107 5.90417,-18.96172z" fill="url(#color-51)"/><path d="M242.21916,154.83966c7.09627,-4.46064 15.95822,-3.20331 19.79371,2.80833c3.83549,6.01164 1.19211,14.50108 -5.90415,18.96172c-7.09627,4.46064 -15.95823,3.20332 -19.79371,-2.80832c-3.83549,-6.01164 -1.1921,-14.50108 5.90416,-18.96172z" fill="url(#color-52)"/></g><g><path d="M240.04138,156.20859c7.09627,-4.46064 15.95824,-3.20332 19.79372,2.80832c3.83549,6.01164 1.1921,14.50108 -5.90418,18.96173c-7.09627,4.46064 -15.95823,3.20332 -19.79371,-2.80832c-3.83549,-6.01164 -1.1921,-14.50109 5.90416,-18.96173z" fill="url(#color-53)"/><path d="M236.77471,158.262c7.09627,-4.46064 15.95823,-3.20332 19.79371,2.80832c3.83549,6.01164 1.19211,14.50108 -5.90417,18.96172c-7.09627,4.46064 -15.95823,3.20333 -19.79372,-2.80831c-3.83549,-6.01164 -1.19209,-14.50107 5.90418,-18.96171z" fill="url(#color-54)"/><path d="M233.17253,160.2678c7.09627,-4.46064 15.95823,-3.20332 19.79371,2.80832c3.83549,6.01164 1.19211,14.50108 -5.90416,18.96172c-7.09627,4.46064 -15.95824,3.20332 -19.79372,-2.80832c-3.83549,-6.01164 -1.1921,-14.50108 5.90417,-18.96172z" fill="url(#color-55)"/><path d="M229.90586,162.32119c7.09627,-4.46064 15.95822,-3.20332 19.79371,2.80832c3.83549,6.01164 1.1921,14.50108 -5.90418,18.96172c-7.09627,4.46064 -15.95823,3.20332 -19.79371,-2.80832c-3.83549,-6.01164 -1.1921,-14.50108 5.90417,-18.96172z" fill="url(#color-56)"/></g></g><g><g><path d="M277.53445,133.6747c7.09627,-4.46064 15.95823,-3.20332 19.79372,2.80832c3.83549,6.01164 1.19211,14.50107 -5.90417,18.96172c-7.09627,4.46064 -15.95823,3.20332 -19.79372,-2.80832c-3.83549,-6.01164 -1.19211,-14.50109 5.90416,-18.96173z" fill="url(#color-57)"/><path d="M274.26779,135.72812c7.09627,-4.46064 15.95823,-3.20333 19.79372,2.80831c3.83549,6.01164 1.1921,14.50108 -5.90417,18.96172c-7.09627,4.46064 -15.95823,3.20332 -19.79371,-2.80832c-3.83549,-6.01164 -1.19211,-14.50107 5.90417,-18.96172z" fill="url(#color-58)"/><path d="M270.66562,137.73391c7.09627,-4.46064 15.95823,-3.20333 19.79372,2.80831c3.83549,6.01164 1.1921,14.50108 -5.90417,18.96173c-7.09627,4.46064 -15.95824,3.20332 -19.79372,-2.80832c-3.83549,-6.01164 -1.1921,-14.50108 5.90417,-18.96172z" fill="url(#color-59)"/><path d="M267.39896,139.78731c7.09627,-4.46064 15.95824,-3.20332 19.79372,2.80832c3.83549,6.01164 1.1921,14.50108 -5.90417,18.96172c-7.09627,4.46064 -15.95823,3.20332 -19.79371,-2.80832c-3.83549,-6.01164 -1.19211,-14.50108 5.90417,-18.96173z" fill="url(#color-60)"/></g><g><path d="M265.22114,141.15624c7.09627,-4.46064 15.95823,-3.20332 19.79372,2.80832c3.83549,6.01164 1.1921,14.50108 -5.90417,18.96172c-7.09627,4.46064 -15.95823,3.20332 -19.79371,-2.80832c-3.83549,-6.01164 -1.19212,-14.50109 5.90416,-18.96173z" fill="url(#color-61)"/><path d="M261.95448,143.20965c7.09627,-4.46064 15.95823,-3.20332 19.79371,2.80832c3.83549,6.01164 1.19211,14.50107 -5.90417,18.96172c-7.09627,4.46064 -15.95823,3.20332 -19.79371,-2.80832c-3.83549,-6.01164 -1.19211,-14.50107 5.90416,-18.96171z" fill="url(#color-62)"/><path d="M258.35231,145.21544c7.09627,-4.46064 15.95823,-3.20332 19.79372,2.80832c3.83549,6.01164 1.19211,14.50108 -5.90416,18.96172c-7.09627,4.46064 -15.95824,3.20332 -19.79372,-2.80832c-3.83549,-6.01164 -1.19211,-14.50108 5.90417,-18.96172z" fill="url(#color-63)"/><path d="M255.08574,147.26885c7.09627,-4.46064 15.95823,-3.20332 19.79371,2.80832c3.83549,6.01164 1.19212,14.50107 -5.90415,18.96171c-7.09627,4.46064 -15.95823,3.20333 -19.79372,-2.80831c-3.83549,-6.01164 -1.19211,-14.50107 5.90417,-18.96172z" fill="url(#color-64)"/></g></g></g></g><path d="M237.42948,171.73146c0,0 17.42392,-9.72948 46.96174,-27.15722c33.89495,-19.99852 53.90515,-32.33918 53.90515,-32.33918c0,0 -0.70025,7.63503 -9.48943,12.95029c-17.05221,11.28852 -16.8121,11.53585 -40.69167,25.90103c-26.2596,15.10271 -46.6996,27.37652 -46.6996,27.37652z" data-paper-data="{&quot;index&quot;:null}" fill="url(#color-65)" stroke="#ff0000" stroke-width="0" stroke-linecap="butt"/><path d="M233.54025,173.6583c0,0 18.14741,-10.15272 48.9288,-28.30798c35.32197,-20.83334 56.28653,-33.49806 56.28653,-33.49806c0,0 -0.70267,8.00191 -9.86427,13.53504c-17.79261,11.72166 -17.54952,11.96724 -42.4395,26.92353c-27.35802,15.74529 -48.66248,28.52483 -48.66248,28.52483z" data-paper-data="{&quot;index&quot;:null}" fill="none" stroke="#330000" stroke-width="2" stroke-linecap="butt"/><path d="M223.6574,168.66987c0,0 0.66685,-2.02236 1.54901,-2.53843c0.88216,-0.51607 3.13329,-0.20075 3.13329,-0.20075l13.61853,23.27915c0,0 -0.70031,2.04196 -1.71045,2.6329c-1.01014,0.59094 -2.97184,0.10628 -2.97184,0.10628z" fill="#000000" stroke="none" stroke-width="0" stroke-linecap="butt"/><path d="M200.49357,193.38671l29.42173,-17.21201l3.99278,6.82514l-29.42173,17.21201c0,0 -3.55308,-0.36531 -4.48406,-1.9567c-0.93099,-1.5914 0.49129,-4.86843 0.49129,-4.86843z" fill="#070707" stroke="#000000" stroke-width="1.5" stroke-linecap="butt"/><g fill="#0f0f0f" stroke="#000000" stroke-width="1" stroke-linecap="butt"><g><path d="M224.29454,181.70271l5.6367,-3.29753c0,0 1.6269,0.48181 1.94454,1.02477c0.32478,0.55518 -0.01679,2.27047 -0.01679,2.27047l-5.6367,3.29753l-1.64442,-0.1512l-0.87278,-1.49875z"/><path d="M223.68538,183.29903l0.87874,1.49526l-0.67403,1.50752l-5.6367,3.29753l-1.69469,-0.15983l-0.89807,-1.50457l0.66502,-1.63084l5.6367,-3.29753z" data-paper-data="{&quot;index&quot;:null}"/></g><g><path d="M208.40441,190.9986l5.6367,-3.29753c0,0 1.62688,0.48181 1.94452,1.02478c0.32478,0.55518 -0.01678,2.27045 -0.01678,2.27045l-5.6367,3.29753l-1.64442,-0.1512l-0.87278,-1.49875z"/><path d="M207.79525,192.59491l0.87875,1.49526l-0.67405,1.50753l-5.6367,3.29753l-1.69468,-0.15984l-0.89808,-1.50456l0.66501,-1.63084l5.6367,-3.29753z" data-paper-data="{&quot;index&quot;:null}"/></g></g><path d="M214.07173,185.84315l3.58476,6.12768" fill="none" stroke="#000000" stroke-width="1.5" stroke-linecap="round"/><path d="M225.74931,187.00218l-3.52226,-6.02086" fill="none" stroke="#000000" stroke-width="1.5" stroke-linecap="round"/><path d="M206.29212,190.54259l3.41802,5.84267" fill="none" stroke="#000000" stroke-width="1.5" stroke-linecap="round"/><path d="M232.14035,172.86459c0,0 4.23913,-1.57571 4.59801,-0.96225c0.66792,1.14172 2.95262,5.04712 4.08627,6.98496c0.3938,0.67315 -3.19632,3.35827 -3.19632,3.35827z" fill="url(#color-66)" stroke="#000000" stroke-width="2" stroke-linecap="butt"/></g><path d="M229.27722,184.19042c0.25257,0.61593 -0.37627,3.82074 -1.15846,3.62724c-0.56675,-0.14021 -1.26939,-3.78074 -1.50904,-3.22432c-0.37585,0.87261 1.70829,4.25122 1.57728,5.79665c-0.13469,1.58861 -2.49293,1.33715 -3.52804,1.67756c-1.30047,0.42767 -1.77462,1.62457 -2.97751,1.28652c-2.09955,-0.59003 -4.68666,-3.33397 -5.33362,-4.91167c-0.53363,-1.30134 -1.11376,-2.3186 -0.17832,-3.55747c0.41028,-0.54336 -11.25186,-3.89649 -9.97551,-6.89604c1.36302,-3.20318 15.12896,-8.47809 16.00589,-8.76648c1.14012,-0.37493 3.39434,11.12277 4.472,11.177c2.29711,0.1156 1.91268,2.1019 2.60531,3.79103z" fill="url(#color-67)" stroke="#000000" stroke-width="2" stroke-linecap="butt"/><path d="M255.58301,206.61426c1.64629,-1.70815 3.40586,-4.18706 5.72971,-5.54951c4.71677,-2.7654 7.81938,-3.93545 10.42195,-0.28656c2.60256,3.64889 3.95698,8.51617 -0.7598,11.28157c-3.65669,2.14386 -9.66741,0.01807 -13.42392,-1.63072c-0.43612,-0.19143 -3.51363,2.14119 -5.13517,2.17054c-0.61378,0.01112 -0.77791,-1.15221 -0.84987,-1.25309c-1.32032,-1.85114 2.32185,-2.9733 4.01708,-4.73221z" data-paper-data="{&quot;index&quot;:null}" fill="url(#color-68)" stroke="#000000" stroke-width="2" stroke-linecap="butt"/></g></g></svg>