<svg version="1.1" xmlns="http://www.w3.org/2000/svg" xmlns:xlink="http://www.w3.org/1999/xlink" width="397.04354" height="236.09621" viewBox="0,0,397.04354,236.09621"><defs><linearGradient x1="240.89686" y1="350.35481" x2="240.89686" y2="370.54933" gradientUnits="userSpaceOnUse" id="color-1"><stop offset="0" stop-color="#000000" stop-opacity="0"/><stop offset="1" stop-color="#000000"/></linearGradient></defs><g transform="translate(-41.95714,-350.35481)"><g data-paper-data="{&quot;isPaintingLayer&quot;:true}" fill-rule="nonzero" stroke-linecap="butt" stroke-linejoin="miter" stroke-miterlimit="10" stroke-dasharray="" stroke-dashoffset="0" style="mix-blend-mode: normal"><path d="M439.00068,370.54933h-396.20765v-20.19452h396.20765z" data-paper-data="{&quot;index&quot;:null}" fill="url(#color-1)" stroke="#000000" stroke-width="0"/><path d="M435.24746,582.70102h-389.54032v-208.5801h389.54032z" fill="#000000" stroke="#000000" stroke-width="7.5"/><g data-paper-data="{&quot;index&quot;:null}" fill="#000000" stroke="none" stroke-width="0"><g><g><path d="M144.36804,368.86705h-1.85119v-3.97819h1.85119z"/><path d="M145.05532,362.68848l-1.64209,6.31725l-1.45152,-6.31725l1.45152,-10.08727z"/></g><g><path d="M147.54013,368.6268h-1.85119v-3.97818h1.85119z"/><path d="M148.22742,362.44821l-1.64209,6.31726l-1.45153,-6.31726l1.45153,-10.08726z"/></g><g><path d="M150.50976,368.35752h-1.8512v-3.97818h1.8512z"/><path d="M151.19703,362.17889l-1.64209,6.31728l-1.45153,-6.31728l1.45153,-10.08726z"/></g><g><path d="M153.74934,368.79489h-1.8512v-3.97817h1.8512z"/><path d="M154.43661,362.61627l-1.64209,6.31728l-1.45153,-6.31728l1.45153,-10.08726z"/></g><g><path d="M157.1914,368.35752h-1.8512v-3.97818h1.8512z"/><path d="M157.87867,362.17889l-1.64209,6.31728l-1.45153,-6.31728l1.45153,-10.08726z"/></g><g><path d="M160.43099,368.35752h-1.8512v-3.97818h1.8512z"/><path d="M161.11826,362.17889l-1.64209,6.31728l-1.45153,-6.31728l1.45153,-10.08726z"/></g><g><path d="M163.70301,368.25781h-1.8512v-3.97817h1.8512z"/><path d="M164.39029,362.07929l-1.64209,6.31724l-1.45153,-6.31724l1.45153,-10.08728z"/></g><g><path d="M166.87511,368.25781h-1.8512v-3.97817h1.8512z"/><path d="M167.56238,362.07929l-1.64209,6.31724l-1.45152,-6.31724l1.45152,-10.08728z"/></g><g><path d="M170.24969,368.25781h-1.8512v-3.97817h1.8512z"/><path d="M170.93695,362.07929l-1.64209,6.31724l-1.45153,-6.31724l1.45153,-10.08728z"/></g><g><path d="M173.6593,367.77434h-1.8512v-3.97819h1.8512z"/><path d="M174.34659,361.59573l-1.64209,6.31726l-1.45153,-6.31726l1.45153,-10.08728z"/></g><g><path d="M176.89889,367.77434h-1.8512v-3.97819h1.8512z"/><path d="M177.58617,361.59573l-1.64209,6.31726l-1.45153,-6.31726l1.45153,-10.08728z"/></g><g><path d="M180.17093,367.67466h-1.8512v-3.97817h1.8512z"/><path d="M180.85819,361.49608l-1.64209,6.31724l-1.45153,-6.31724l1.45153,-10.08728z"/></g><g><path d="M183.34301,367.67466h-1.8512v-3.97817h1.8512z"/><path d="M184.03026,361.49608l-1.64209,6.31724l-1.45152,-6.31724l1.45152,-10.08728z"/></g><g><path d="M186.71757,368.11203h-1.8512v-3.97818h1.8512z"/><path d="M187.40486,361.93345l-1.64209,6.31725l-1.45153,-6.31725l1.45153,-10.08727z"/></g><g><path d="M95.50428,370.32495h-1.85119v-3.97819h1.85119z"/><path d="M96.19156,364.14639l-1.64209,6.31725l-1.45152,-6.31725l1.45152,-10.08728z"/></g><g><path d="M98.67637,370.0847h-1.85119v-3.97817h1.85119z"/><path d="M99.36366,363.90613l-1.64209,6.31727l-1.45153,-6.31727l1.45153,-10.08726z"/></g><g><path d="M101.64599,369.8154h-1.8512v-3.97817h1.8512z"/><path d="M102.33326,363.63678l-1.64209,6.31728l-1.45153,-6.31728l1.45153,-10.08726z"/></g><g><path d="M104.88558,370.25278h-1.8512v-3.97818h1.8512z"/><path d="M105.57285,364.07415l-1.64209,6.31728l-1.45153,-6.31728l1.45153,-10.08726z"/></g><g><path d="M108.32764,369.8154h-1.8512v-3.97817h1.8512z"/><path d="M109.01491,363.63678l-1.64209,6.31728l-1.45153,-6.31728l1.45153,-10.08726z"/></g><g><path d="M111.56723,369.8154h-1.8512v-3.97817h1.8512z"/><path d="M112.2545,363.63678l-1.64209,6.31728l-1.45153,-6.31728l1.45153,-10.08726z"/></g><g><path d="M114.83925,369.71573h-1.8512v-3.97818h1.8512z"/><path d="M115.52653,363.53714l-1.64209,6.31724l-1.45153,-6.31724l1.45153,-10.08728z"/></g><g><path d="M118.01134,369.71573h-1.8512v-3.97818h1.8512z"/><path d="M118.69862,363.53714l-1.64209,6.31724l-1.45152,-6.31724l1.45152,-10.08728z"/></g><g><path d="M121.38592,369.71573h-1.8512v-3.97818h1.8512z"/><path d="M122.07318,363.53714l-1.64209,6.31724l-1.45153,-6.31724l1.45153,-10.08728z"/></g><g><path d="M124.79552,369.23227h-1.8512v-3.97819h1.8512z"/><path d="M125.48282,363.05365l-1.64209,6.31726l-1.45153,-6.31726l1.45153,-10.08728z"/></g><g><path d="M128.03511,369.23227h-1.8512v-3.97819h1.8512z"/><path d="M128.72241,363.05365l-1.64209,6.31726l-1.45153,-6.31726l1.45153,-10.08728z"/></g><g><path d="M131.30715,369.13257h-1.8512v-3.97818h1.8512z"/><path d="M131.99442,362.95404l-1.64209,6.31725l-1.45153,-6.31725l1.45153,-10.08728z"/></g><g><path d="M134.47924,369.13257h-1.8512v-3.97818h1.8512z"/><path d="M135.1665,362.95404l-1.64209,6.31725l-1.45152,-6.31725l1.45152,-10.08728z"/></g><g><path d="M137.85381,369.56993h-1.8512v-3.97817h1.8512z"/><path d="M138.5411,363.39141l-1.64209,6.31724l-1.45153,-6.31724l1.45153,-10.08728z"/></g><g><path d="M141.12038,369.91985h-1.8512v-3.97819h1.8512z"/><path d="M141.80767,363.74128l-1.64209,6.31724l-1.45152,-6.31724l1.45152,-10.08728z"/></g><g><path d="M46.56338,371.57461h-1.85119v-3.97819h1.85119z"/><path d="M47.25066,365.39602l-1.64209,6.31725l-1.45152,-6.31725l1.45152,-10.08727z"/></g><g><path d="M49.73547,371.33437h-1.85119v-3.97817h1.85119z"/><path d="M50.42276,365.15574l-1.64209,6.31726l-1.45153,-6.31726l1.45153,-10.08726z"/></g><g><path d="M52.70509,371.06506h-1.8512v-3.97817h1.8512z"/><path d="M53.39237,364.88645l-1.64209,6.31728l-1.45153,-6.31728l1.45153,-10.08726z"/></g><g><path d="M55.94468,371.50242h-1.8512v-3.97817h1.8512z"/><path d="M56.63195,365.32383l-1.64209,6.31728l-1.45153,-6.31728l1.45153,-10.08726z"/></g><g><path d="M59.38674,371.06506h-1.8512v-3.97817h1.8512z"/><path d="M60.07401,364.88645l-1.64209,6.31728l-1.45153,-6.31728l1.45153,-10.08726z"/></g><g><path d="M62.62633,371.06506h-1.8512v-3.97817h1.8512z"/><path d="M63.3136,364.88645l-1.64209,6.31728l-1.45153,-6.31728l1.45153,-10.08726z"/></g><g><path d="M65.89835,370.96539h-1.8512v-3.97817h1.8512z"/><path d="M66.58563,364.78686l-1.64209,6.31724l-1.45153,-6.31724l1.45153,-10.08728z"/></g><g><path d="M69.07044,370.96539h-1.8512v-3.97817h1.8512z"/><path d="M69.75772,364.78686l-1.64209,6.31724l-1.45152,-6.31724l1.45152,-10.08728z"/></g><g><path d="M72.44501,370.96539h-1.8512v-3.97817h1.8512z"/><path d="M73.13228,364.78686l-1.64209,6.31724l-1.45153,-6.31724l1.45153,-10.08728z"/></g><g><path d="M75.85462,370.48191h-1.8512v-3.97819h1.8512z"/><path d="M76.54193,364.30329l-1.64209,6.31726l-1.45153,-6.31726l1.45153,-10.08727z"/></g><g><path d="M79.09421,370.48191h-1.8512v-3.97819h1.8512z"/><path d="M79.78151,364.30329l-1.64209,6.31726l-1.45153,-6.31726l1.45153,-10.08727z"/></g><g><path d="M82.36626,370.38223h-1.8512v-3.97817h1.8512z"/><path d="M83.05352,364.20368l-1.64209,6.31725l-1.45153,-6.31725l1.45153,-10.08728z"/></g><g><path d="M85.53835,370.38223h-1.8512v-3.97817h1.8512z"/><path d="M86.2256,364.20368l-1.64209,6.31725l-1.45152,-6.31725l1.45152,-10.08728z"/></g><g><path d="M88.91291,370.8196h-1.8512v-3.97817h1.8512z"/><path d="M89.6002,364.64105l-1.64209,6.31724l-1.45153,-6.31724l1.45153,-10.08728z"/></g><g><path d="M92.17948,371.16951h-1.8512v-3.97819h1.8512z"/><path d="M92.86677,364.99092l-1.64209,6.31724l-1.45152,-6.31724l1.45152,-10.08728z"/></g></g><g><g><path d="M287.71975,368.3422h-1.85119v-3.97819h1.85119z"/><path d="M288.40703,362.16364l-1.64209,6.31725l-1.45152,-6.31725l1.45152,-10.08727z"/></g><g><path d="M290.89184,368.10195h-1.85119v-3.97818h1.85119z"/><path d="M291.57913,361.92336l-1.64209,6.31726l-1.45153,-6.31726l1.45153,-10.08726z"/></g><g><path d="M293.86147,367.83268h-1.8512v-3.97818h1.8512z"/><path d="M294.54874,361.65404l-1.64209,6.31728l-1.45153,-6.31728l1.45153,-10.08726z"/></g><g><path d="M297.10105,368.27004h-1.8512v-3.97817h1.8512z"/><path d="M297.78833,362.09142l-1.64209,6.31728l-1.45153,-6.31728l1.45153,-10.08726z"/></g><g><path d="M300.54312,367.83268h-1.8512v-3.97818h1.8512z"/><path d="M301.23039,361.65404l-1.64209,6.31728l-1.45153,-6.31728l1.45153,-10.08726z"/></g><g><path d="M303.7827,367.83268h-1.8512v-3.97818h1.8512z"/><path d="M304.46997,361.65404l-1.64209,6.31728l-1.45153,-6.31728l1.45153,-10.08726z"/></g><g><path d="M307.05473,367.73297h-1.8512v-3.97817h1.8512z"/><path d="M307.742,361.55445l-1.64209,6.31724l-1.45153,-6.31724l1.45153,-10.08728z"/></g><g><path d="M310.22682,367.73297h-1.8512v-3.97817h1.8512z"/><path d="M310.91409,361.55445l-1.64209,6.31724l-1.45152,-6.31724l1.45152,-10.08728z"/></g><g><path d="M313.6014,367.73297h-1.8512v-3.97817h1.8512z"/><path d="M314.28867,361.55445l-1.64209,6.31724l-1.45153,-6.31724l1.45153,-10.08728z"/></g><g><path d="M317.01101,367.2495h-1.8512v-3.97819h1.8512z"/><path d="M317.6983,361.07088l-1.64209,6.31726l-1.45153,-6.31726l1.45153,-10.08728z"/></g><g><path d="M320.2506,367.2495h-1.8512v-3.97819h1.8512z"/><path d="M320.93789,361.07088l-1.64209,6.31726l-1.45153,-6.31726l1.45153,-10.08728z"/></g><g><path d="M323.52264,367.14981h-1.8512v-3.97817h1.8512z"/><path d="M324.2099,360.97123l-1.64209,6.31724l-1.45153,-6.31724l1.45153,-10.08728z"/></g><g><path d="M326.69472,367.14981h-1.8512v-3.97817h1.8512z"/><path d="M327.38197,360.97123l-1.64209,6.31724l-1.45152,-6.31724l1.45152,-10.08728z"/></g><g><path d="M330.06928,367.58718h-1.8512v-3.97818h1.8512z"/><path d="M330.75657,361.4086l-1.64209,6.31725l-1.45153,-6.31725l1.45153,-10.08727z"/></g><g><path d="M238.85599,369.8001h-1.85119v-3.97819h1.85119z"/><path d="M239.54327,363.62154l-1.64209,6.31725l-1.45152,-6.31725l1.45152,-10.08728z"/></g><g><path d="M242.02808,369.55986h-1.85119v-3.97817h1.85119z"/><path d="M242.71537,363.38128l-1.64209,6.31727l-1.45153,-6.31727l1.45153,-10.08726z"/></g><g><path d="M244.9977,369.29056h-1.8512v-3.97817h1.8512z"/><path d="M245.68497,363.11193l-1.64209,6.31728l-1.45153,-6.31728l1.45153,-10.08726z"/></g><g><path d="M248.23729,369.72793h-1.8512v-3.97818h1.8512z"/><path d="M248.92456,363.5493l-1.64209,6.31728l-1.45153,-6.31728l1.45153,-10.08726z"/></g><g><path d="M251.67935,369.29056h-1.8512v-3.97817h1.8512z"/><path d="M252.36662,363.11193l-1.64209,6.31728l-1.45153,-6.31728l1.45153,-10.08726z"/></g><g><path d="M254.91894,369.29056h-1.8512v-3.97817h1.8512z"/><path d="M255.60621,363.11193l-1.64209,6.31728l-1.45153,-6.31728l1.45153,-10.08726z"/></g><g><path d="M258.19096,369.19088h-1.8512v-3.97818h1.8512z"/><path d="M258.87824,363.01229l-1.64209,6.31724l-1.45153,-6.31724l1.45153,-10.08728z"/></g><g><path d="M261.36305,369.19088h-1.8512v-3.97818h1.8512z"/><path d="M262.05033,363.01229l-1.64209,6.31724l-1.45152,-6.31724l1.45152,-10.08728z"/></g><g><path d="M264.73763,369.19088h-1.8512v-3.97818h1.8512z"/><path d="M265.42489,363.01229l-1.64209,6.31724l-1.45153,-6.31724l1.45153,-10.08728z"/></g><g><path d="M268.14723,368.70742h-1.8512v-3.97819h1.8512z"/><path d="M268.83454,362.5288l-1.64209,6.31726l-1.45153,-6.31726l1.45153,-10.08728z"/></g><g><path d="M271.38682,368.70742h-1.8512v-3.97819h1.8512z"/><path d="M272.07412,362.5288l-1.64209,6.31726l-1.45153,-6.31726l1.45153,-10.08728z"/></g><g><path d="M274.65887,368.60772h-1.8512v-3.97818h1.8512z"/><path d="M275.34613,362.42919l-1.64209,6.31725l-1.45153,-6.31725l1.45153,-10.08728z"/></g><g><path d="M277.83096,368.60772h-1.8512v-3.97818h1.8512z"/><path d="M278.51821,362.42919l-1.64209,6.31725l-1.45152,-6.31725l1.45152,-10.08728z"/></g><g><path d="M281.20552,369.04509h-1.8512v-3.97817h1.8512z"/><path d="M281.89281,362.86657l-1.64209,6.31724l-1.45153,-6.31724l1.45153,-10.08728z"/></g><g><path d="M284.47209,369.395h-1.8512v-3.97819h1.8512z"/><path d="M285.15938,363.21643l-1.64209,6.31724l-1.45152,-6.31724l1.45152,-10.08728z"/></g><g><path d="M189.91509,371.04976h-1.85119v-3.97819h1.85119z"/><path d="M190.60237,364.87117l-1.64209,6.31725l-1.45152,-6.31725l1.45152,-10.08727z"/></g><g><path d="M193.08718,370.80952h-1.85119v-3.97817h1.85119z"/><path d="M193.77447,364.63089l-1.64209,6.31726l-1.45153,-6.31726l1.45153,-10.08726z"/></g><g><path d="M196.05681,370.54021h-1.8512v-3.97817h1.8512z"/><path d="M196.74408,364.3616l-1.64209,6.31728l-1.45153,-6.31728l1.45153,-10.08726z"/></g><g><path d="M199.29639,370.97758h-1.8512v-3.97817h1.8512z"/><path d="M199.98366,364.79898l-1.64209,6.31728l-1.45153,-6.31728l1.45153,-10.08726z"/></g><g><path d="M202.73845,370.54021h-1.8512v-3.97817h1.8512z"/><path d="M203.42572,364.3616l-1.64209,6.31728l-1.45153,-6.31728l1.45153,-10.08726z"/></g><g><path d="M205.97804,370.54021h-1.8512v-3.97817h1.8512z"/><path d="M206.66531,364.3616l-1.64209,6.31728l-1.45153,-6.31728l1.45153,-10.08726z"/></g><g><path d="M209.25006,370.44054h-1.8512v-3.97817h1.8512z"/><path d="M209.93734,364.26201l-1.64209,6.31724l-1.45153,-6.31724l1.45153,-10.08728z"/></g><g><path d="M212.42215,370.44054h-1.8512v-3.97817h1.8512z"/><path d="M213.10943,364.26201l-1.64209,6.31724l-1.45152,-6.31724l1.45152,-10.08728z"/></g><g><path d="M215.79673,370.44054h-1.8512v-3.97817h1.8512z"/><path d="M216.484,364.26201l-1.64209,6.31724l-1.45153,-6.31724l1.45153,-10.08728z"/></g><g><path d="M219.20633,369.95706h-1.8512v-3.97819h1.8512z"/><path d="M219.89364,363.77845l-1.64209,6.31726l-1.45153,-6.31726l1.45153,-10.08727z"/></g><g><path d="M222.44592,369.95706h-1.8512v-3.97819h1.8512z"/><path d="M223.13322,363.77845l-1.64209,6.31726l-1.45153,-6.31726l1.45153,-10.08727z"/></g><g><path d="M225.71797,369.85738h-1.8512v-3.97818h1.8512z"/><path d="M226.40523,363.67883l-1.64209,6.31725l-1.45153,-6.31725l1.45153,-10.08728z"/></g><g><path d="M228.89006,369.85738h-1.8512v-3.97818h1.8512z"/><path d="M229.57731,363.67883l-1.64209,6.31725l-1.45152,-6.31725l1.45152,-10.08728z"/></g><g><path d="M232.26462,370.29475h-1.8512v-3.97817h1.8512z"/><path d="M232.95191,364.11621l-1.64209,6.31724l-1.45153,-6.31724l1.45153,-10.08728z"/></g><g><path d="M235.5312,370.64466h-1.8512v-3.97819h1.8512z"/><path d="M236.21848,364.46607l-1.64209,6.31724l-1.45152,-6.31724l1.45152,-10.08728z"/></g></g><g><path d="M430.66652,367.81735h-1.85119v-3.97819h1.85119z"/><path d="M431.3538,361.63879l-1.64209,6.31725l-1.45152,-6.31725l1.45152,-10.08727z"/></g><g><path d="M433.83861,367.57711h-1.85119v-3.97818h1.85119z"/><path d="M434.52589,361.39851l-1.64209,6.31726l-1.45153,-6.31726l1.45153,-10.08726z"/></g><g><path d="M436.80823,368.35752h-1.8512v-3.97818h1.8512z"/><path d="M437.4955,362.17889l-1.64209,6.31728l-1.45153,-6.31728l1.45153,-10.08726z"/></g><g><path d="M381.80275,369.27525h-1.85119v-3.97819h1.85119z"/><path d="M382.49003,363.09669l-1.64209,6.31725l-1.45152,-6.31725l1.45152,-10.08728z"/></g><g><path d="M384.97484,369.03501h-1.85119v-3.97817h1.85119z"/><path d="M385.66213,362.85644l-1.64209,6.31727l-1.45153,-6.31727l1.45153,-10.08726z"/></g><g><path d="M387.94447,368.76571h-1.8512v-3.97817h1.8512z"/><path d="M388.63174,362.58708l-1.64209,6.31728l-1.45153,-6.31728l1.45153,-10.08726z"/></g><g><path d="M391.18405,369.20309h-1.8512v-3.97818h1.8512z"/><path d="M391.87133,363.02445l-1.64209,6.31728l-1.45153,-6.31728l1.45153,-10.08726z"/></g><g><path d="M394.62612,368.76571h-1.8512v-3.97817h1.8512z"/><path d="M395.31339,362.58708l-1.64209,6.31728l-1.45153,-6.31728l1.45153,-10.08726z"/></g><g><path d="M397.8657,368.76571h-1.8512v-3.97817h1.8512z"/><path d="M398.55297,362.58708l-1.64209,6.31728l-1.45153,-6.31728l1.45153,-10.08726z"/></g><g><path d="M401.13773,368.66603h-1.8512v-3.97818h1.8512z"/><path d="M401.825,362.48745l-1.64209,6.31724l-1.45153,-6.31724l1.45153,-10.08728z"/></g><g><path d="M404.30982,368.66603h-1.8512v-3.97818h1.8512z"/><path d="M404.99709,362.48745l-1.64209,6.31724l-1.45152,-6.31724l1.45152,-10.08728z"/></g><g><path d="M407.6844,368.66603h-1.8512v-3.97818h1.8512z"/><path d="M408.37166,362.48745l-1.64209,6.31724l-1.45153,-6.31724l1.45153,-10.08728z"/></g><g><path d="M411.094,368.18257h-1.8512v-3.97819h1.8512z"/><path d="M411.7813,362.00396l-1.64209,6.31726l-1.45153,-6.31726l1.45153,-10.08728z"/></g><g><path d="M414.33358,368.18257h-1.8512v-3.97819h1.8512z"/><path d="M415.02089,362.00396l-1.64209,6.31726l-1.45153,-6.31726l1.45153,-10.08728z"/></g><g><path d="M417.60563,368.08287h-1.8512v-3.97818h1.8512z"/><path d="M418.29289,361.90434l-1.64209,6.31725l-1.45153,-6.31725l1.45153,-10.08728z"/></g><g><path d="M420.77772,368.08287h-1.8512v-3.97818h1.8512z"/><path d="M421.46497,361.90434l-1.64209,6.31725l-1.45152,-6.31725l1.45152,-10.08728z"/></g><g><path d="M424.15228,368.52024h-1.8512v-3.97817h1.8512z"/><path d="M424.83957,362.34172l-1.64209,6.31724l-1.45153,-6.31724l1.45153,-10.08728z"/></g><g><path d="M427.41886,368.87015h-1.8512v-3.97819h1.8512z"/><path d="M428.10614,362.69158l-1.64209,6.31724l-1.45152,-6.31724l1.45152,-10.08728z"/></g><g><path d="M332.86186,370.52492h-1.85119v-3.97819h1.85119z"/><path d="M333.54913,364.34632l-1.64209,6.31725l-1.45152,-6.31725l1.45152,-10.08727z"/></g><g><path d="M336.03395,370.28467h-1.85119v-3.97817h1.85119z"/><path d="M336.72123,364.10605l-1.64209,6.31726l-1.45153,-6.31726l1.45153,-10.08726z"/></g><g><path d="M339.00357,370.01536h-1.8512v-3.97818h1.8512z"/><path d="M339.69084,363.83676l-1.64209,6.31728l-1.45153,-6.31728l1.45153,-10.08726z"/></g><g><path d="M342.24316,370.45273h-1.8512v-3.97817h1.8512z"/><path d="M342.93043,364.27413l-1.64209,6.31728l-1.45153,-6.31728l1.45153,-10.08726z"/></g><g><path d="M345.68522,370.01536h-1.8512v-3.97818h1.8512z"/><path d="M346.37249,363.83676l-1.64209,6.31728l-1.45153,-6.31728l1.45153,-10.08726z"/></g><g><path d="M348.9248,370.01536h-1.8512v-3.97818h1.8512z"/><path d="M349.61207,363.83676l-1.64209,6.31728l-1.45153,-6.31728l1.45153,-10.08726z"/></g><g><path d="M352.19683,369.91569h-1.8512v-3.97817h1.8512z"/><path d="M352.88411,363.73716l-1.64209,6.31724l-1.45153,-6.31724l1.45153,-10.08728z"/></g><g><path d="M355.36892,369.91569h-1.8512v-3.97817h1.8512z"/><path d="M356.0562,363.73716l-1.64209,6.31724l-1.45152,-6.31724l1.45152,-10.08728z"/></g><g><path d="M358.74349,369.91569h-1.8512v-3.97817h1.8512z"/><path d="M359.43076,363.73716l-1.64209,6.31724l-1.45153,-6.31724l1.45153,-10.08728z"/></g><g><path d="M362.1531,369.43221h-1.8512v-3.97819h1.8512z"/><path d="M362.8404,363.2536l-1.64209,6.31726l-1.45153,-6.31726l1.45153,-10.08727z"/></g><g><path d="M365.39268,369.43221h-1.8512v-3.97819h1.8512z"/><path d="M366.07999,363.2536l-1.64209,6.31726l-1.45153,-6.31726l1.45153,-10.08727z"/></g><g><path d="M368.66473,369.33253h-1.8512v-3.97818h1.8512z"/><path d="M369.35199,363.15398l-1.64209,6.31725l-1.45153,-6.31725l1.45153,-10.08728z"/></g><g><path d="M371.83682,369.33253h-1.8512v-3.97818h1.8512z"/><path d="M372.52408,363.15398l-1.64209,6.31725l-1.45152,-6.31725l1.45152,-10.08728z"/></g><g><path d="M375.21139,369.7699h-1.8512v-3.97817h1.8512z"/><path d="M375.89867,363.59136l-1.64209,6.31724l-1.45153,-6.31724l1.45153,-10.08728z"/></g><g><path d="M378.47796,370.11982h-1.8512v-3.97819h1.8512z"/><path d="M379.16524,363.94122l-1.64209,6.31724l-1.45152,-6.31724l1.45152,-10.08728z"/></g></g></g></g></svg>