<svg version="1.1" xmlns="http://www.w3.org/2000/svg" xmlns:xlink="http://www.w3.org/1999/xlink" width="317.06455" height="205.56249" viewBox="0,0,317.06455,205.56249"><defs><linearGradient x1="212.0373" y1="308.60094" x2="212.0373" y2="315.68277" gradientUnits="userSpaceOnUse" id="color-1"><stop offset="0" stop-color="#7b0000"/><stop offset="1" stop-color="#000000"/></linearGradient><linearGradient x1="201.51948" y1="308.64956" x2="201.51948" y2="315.7314" gradientUnits="userSpaceOnUse" id="color-2"><stop offset="0" stop-color="#7b0000"/><stop offset="1" stop-color="#000000"/></linearGradient><linearGradient x1="191.00166" y1="308.64956" x2="191.00166" y2="315.7314" gradientUnits="userSpaceOnUse" id="color-3"><stop offset="0" stop-color="#7b0000"/><stop offset="1" stop-color="#000000"/></linearGradient><linearGradient x1="180.48383" y1="308.6982" x2="180.48383" y2="315.78003" gradientUnits="userSpaceOnUse" id="color-4"><stop offset="0" stop-color="#7b0000"/><stop offset="1" stop-color="#000000"/></linearGradient><linearGradient x1="169.6242" y1="308.85342" x2="169.6242" y2="315.93526" gradientUnits="userSpaceOnUse" id="color-5"><stop offset="0" stop-color="#7b0000"/><stop offset="1" stop-color="#000000"/></linearGradient><linearGradient x1="223.31611" y1="308.64956" x2="223.31611" y2="315.7314" gradientUnits="userSpaceOnUse" id="color-6"><stop offset="0" stop-color="#7b0000"/><stop offset="1" stop-color="#000000"/></linearGradient><linearGradient x1="276.04289" y1="308.60094" x2="276.04289" y2="315.68277" gradientUnits="userSpaceOnUse" id="color-7"><stop offset="0" stop-color="#7b0000"/><stop offset="1" stop-color="#000000"/></linearGradient><linearGradient x1="265.52507" y1="308.64956" x2="265.52507" y2="315.7314" gradientUnits="userSpaceOnUse" id="color-8"><stop offset="0" stop-color="#7b0000"/><stop offset="1" stop-color="#000000"/></linearGradient><linearGradient x1="255.00725" y1="308.64956" x2="255.00725" y2="315.7314" gradientUnits="userSpaceOnUse" id="color-9"><stop offset="0" stop-color="#7b0000"/><stop offset="1" stop-color="#000000"/></linearGradient><linearGradient x1="244.48941" y1="308.6982" x2="244.48941" y2="315.78003" gradientUnits="userSpaceOnUse" id="color-10"><stop offset="0" stop-color="#7b0000"/><stop offset="1" stop-color="#000000"/></linearGradient><linearGradient x1="233.62978" y1="308.85342" x2="233.62978" y2="315.93526" gradientUnits="userSpaceOnUse" id="color-11"><stop offset="0" stop-color="#7b0000"/><stop offset="1" stop-color="#000000"/></linearGradient><linearGradient x1="287.32169" y1="308.64956" x2="287.32169" y2="315.7314" gradientUnits="userSpaceOnUse" id="color-12"><stop offset="0" stop-color="#7b0000"/><stop offset="1" stop-color="#000000"/></linearGradient><linearGradient x1="340.11983" y1="308.26759" x2="340.11983" y2="315.34944" gradientUnits="userSpaceOnUse" id="color-13"><stop offset="0" stop-color="#7b0000"/><stop offset="1" stop-color="#000000"/></linearGradient><linearGradient x1="329.60201" y1="308.31622" x2="329.60201" y2="315.39806" gradientUnits="userSpaceOnUse" id="color-14"><stop offset="0" stop-color="#7b0000"/><stop offset="1" stop-color="#000000"/></linearGradient><linearGradient x1="319.08419" y1="308.31622" x2="319.08419" y2="315.39806" gradientUnits="userSpaceOnUse" id="color-15"><stop offset="0" stop-color="#7b0000"/><stop offset="1" stop-color="#000000"/></linearGradient><linearGradient x1="308.56635" y1="308.36485" x2="308.56635" y2="315.44669" gradientUnits="userSpaceOnUse" id="color-16"><stop offset="0" stop-color="#7b0000"/><stop offset="1" stop-color="#000000"/></linearGradient><linearGradient x1="297.70672" y1="308.52009" x2="297.70672" y2="315.60192" gradientUnits="userSpaceOnUse" id="color-17"><stop offset="0" stop-color="#7b0000"/><stop offset="1" stop-color="#000000"/></linearGradient><linearGradient x1="351.39864" y1="308.31622" x2="351.39864" y2="315.39806" gradientUnits="userSpaceOnUse" id="color-18"><stop offset="0" stop-color="#7b0000"/><stop offset="1" stop-color="#000000"/></linearGradient><linearGradient x1="338.62521" y1="116.55001" x2="338.62521" y2="127.39104" gradientUnits="userSpaceOnUse" id="color-19"><stop offset="0" stop-color="#000000"/><stop offset="1" stop-color="#000000"/></linearGradient><linearGradient x1="326.02745" y1="116.73992" x2="326.02745" y2="127.58096" gradientUnits="userSpaceOnUse" id="color-20"><stop offset="0" stop-color="#000000"/><stop offset="1" stop-color="#000000"/></linearGradient><linearGradient x1="57.98712" y1="307.22525" x2="57.98712" y2="317.48078" gradientUnits="userSpaceOnUse" id="color-21"><stop offset="0" stop-color="#000000"/><stop offset="1" stop-color="#000000"/></linearGradient><linearGradient x1="46.06974" y1="307.4049" x2="46.06974" y2="317.66044" gradientUnits="userSpaceOnUse" id="color-22"><stop offset="0" stop-color="#000000"/><stop offset="1" stop-color="#000000"/></linearGradient><linearGradient x1="82.58292" y1="306.90991" x2="82.58292" y2="317.16545" gradientUnits="userSpaceOnUse" id="color-23"><stop offset="0" stop-color="#000000"/><stop offset="1" stop-color="#000000"/></linearGradient><linearGradient x1="70.66554" y1="307.08957" x2="70.66554" y2="317.34511" gradientUnits="userSpaceOnUse" id="color-24"><stop offset="0" stop-color="#000000"/><stop offset="1" stop-color="#000000"/></linearGradient></defs><g transform="translate(-39.53114,-111.19584)"><g data-paper-data="{&quot;isPaintingLayer&quot;:true}" fill-rule="nonzero" stroke-linejoin="miter" stroke-miterlimit="10" stroke-dasharray="" stroke-dashoffset="0" style="mix-blend-mode: normal"><path d="M207.80464,312.48071l4.33315,-3.87978l4.13218,3.83922c0,0 -2.411,-0.02279 -2.70857,1.80163c-0.16572,1.01605 -0.28473,1.42937 -0.28473,1.42937c0,0 -1.97172,0.03971 -2.09413,-0.02769c-0.05884,-0.0324 -0.48163,-0.45299 -0.42091,-1.45403c0.09664,-1.59335 -2.95701,-1.70871 -2.95701,-1.70871z" fill="url(#color-1)" stroke="#000000" stroke-width="0.75" stroke-linecap="butt"/><path d="M197.28681,312.52934l4.33317,-3.87978l4.13218,3.83924c0,0 -2.411,-0.0228 -2.70858,1.80163c-0.16573,1.01605 -0.28473,1.42936 -0.28473,1.42936c0,0 -1.97172,0.03972 -2.09413,-0.02769c-0.05884,-0.0324 -0.48162,-0.45299 -0.42091,-1.45403c0.09664,-1.59335 -2.95701,-1.7087 -2.95701,-1.7087z" fill="url(#color-2)" stroke="#000000" stroke-width="0.75" stroke-linecap="butt"/><path d="M186.76899,312.52934l4.33315,-3.87978l4.13218,3.83924c0,0 -2.411,-0.0228 -2.70857,1.80163c-0.16573,1.01605 -0.28475,1.42936 -0.28475,1.42936c0,0 -1.97172,0.03972 -2.09413,-0.02769c-0.05884,-0.0324 -0.48162,-0.45299 -0.4209,-1.45403c0.09664,-1.59335 -2.95701,-1.7087 -2.95701,-1.7087z" fill="url(#color-3)" stroke="#000000" stroke-width="0.75" stroke-linecap="butt"/><path d="M176.25116,312.57797l4.33317,-3.87978l4.13218,3.83922c0,0 -2.411,-0.0228 -2.70858,1.80163c-0.16573,1.01605 -0.28475,1.42937 -0.28475,1.42937c0,0 -1.97172,0.0397 -2.09413,-0.0277c-0.05884,-0.0324 -0.48162,-0.45299 -0.42091,-1.45404c0.09664,-1.59335 -2.95701,-1.7087 -2.95701,-1.7087z" fill="url(#color-4)" stroke="#000000" stroke-width="0.75" stroke-linecap="butt"/><path d="M165.39152,312.7332l4.33315,-3.87978l4.13219,3.83924c0,0 -2.411,-0.02281 -2.70857,1.80162c-0.16573,1.01605 -0.28475,1.42937 -0.28475,1.42937c0,0 -1.97172,0.03972 -2.09413,-0.02769c-0.05884,-0.0324 -0.48162,-0.45299 -0.4209,-1.45404c0.09664,-1.59335 -2.95701,-1.7087 -2.95701,-1.7087z" fill="url(#color-5)" stroke="#000000" stroke-width="0.75" stroke-linecap="butt"/><path d="M219.08343,312.52934l4.33317,-3.87978l4.13218,3.83924c0,0 -2.411,-0.0228 -2.70857,1.80163c-0.16573,1.01605 -0.28473,1.42936 -0.28473,1.42936c0,0 -1.97172,0.03972 -2.09413,-0.02769c-0.05884,-0.0324 -0.48162,-0.45299 -0.42091,-1.45403c0.09664,-1.59335 -2.95701,-1.7087 -2.95701,-1.7087z" fill="url(#color-6)" stroke="#000000" stroke-width="0.75" stroke-linecap="butt"/><path d="M271.81023,312.48071l4.33315,-3.87978l4.13218,3.83922c0,0 -2.411,-0.02279 -2.70857,1.80163c-0.16572,1.01605 -0.28474,1.42937 -0.28474,1.42937c0,0 -1.97172,0.03971 -2.09413,-0.02769c-0.05884,-0.0324 -0.48163,-0.45299 -0.42091,-1.45403c0.09665,-1.59335 -2.95701,-1.70871 -2.95701,-1.70871z" fill="url(#color-7)" stroke="#000000" stroke-width="0.75" stroke-linecap="butt"/><path d="M261.2924,312.52934l4.33317,-3.87978l4.13218,3.83924c0,0 -2.411,-0.0228 -2.70858,1.80163c-0.16573,1.01605 -0.28474,1.42936 -0.28474,1.42936c0,0 -1.97172,0.03972 -2.09413,-0.02769c-0.05885,-0.0324 -0.48162,-0.45299 -0.42091,-1.45403c0.09665,-1.59335 -2.957,-1.7087 -2.957,-1.7087z" fill="url(#color-8)" stroke="#000000" stroke-width="0.75" stroke-linecap="butt"/><path d="M250.77457,312.52934l4.33315,-3.87978l4.13217,3.83924c0,0 -2.411,-0.0228 -2.70857,1.80163c-0.16573,1.01605 -0.28475,1.42936 -0.28475,1.42936c0,0 -1.97172,0.03972 -2.09413,-0.02769c-0.05884,-0.0324 -0.48162,-0.45299 -0.4209,-1.45403c0.09664,-1.59335 -2.95701,-1.7087 -2.95701,-1.7087z" fill="url(#color-9)" stroke="#000000" stroke-width="0.75" stroke-linecap="butt"/><path d="M240.25674,312.57797l4.33317,-3.87978l4.13218,3.83922c0,0 -2.41099,-0.0228 -2.70857,1.80163c-0.16573,1.01605 -0.28475,1.42937 -0.28475,1.42937c0,0 -1.97172,0.0397 -2.09413,-0.0277c-0.05884,-0.0324 -0.48162,-0.45299 -0.42091,-1.45404c0.09664,-1.59335 -2.95701,-1.7087 -2.95701,-1.7087z" fill="url(#color-10)" stroke="#000000" stroke-width="0.75" stroke-linecap="butt"/><path d="M229.39711,312.7332l4.33315,-3.87978l4.13219,3.83924c0,0 -2.411,-0.02281 -2.70857,1.80162c-0.16573,1.01605 -0.28475,1.42937 -0.28475,1.42937c0,0 -1.97172,0.03972 -2.09413,-0.02769c-0.05884,-0.0324 -0.48162,-0.45299 -0.4209,-1.45404c0.09664,-1.59335 -2.95701,-1.7087 -2.95701,-1.7087z" fill="url(#color-11)" stroke="#000000" stroke-width="0.75" stroke-linecap="butt"/><path d="M283.08902,312.52934l4.33317,-3.87978l4.13218,3.83924c0,0 -2.411,-0.0228 -2.70857,1.80163c-0.16573,1.01605 -0.28474,1.42936 -0.28474,1.42936c0,0 -1.97171,0.03972 -2.09412,-0.02769c-0.05885,-0.0324 -0.48162,-0.45299 -0.42091,-1.45403c0.09665,-1.59335 -2.957,-1.7087 -2.957,-1.7087z" fill="url(#color-12)" stroke="#000000" stroke-width="0.75" stroke-linecap="butt"/><path d="M335.88717,312.14736l4.33315,-3.87978l4.13217,3.83922c0,0 -2.411,-0.02279 -2.70857,1.80163c-0.16572,1.01605 -0.28474,1.42937 -0.28474,1.42937c0,0 -1.97172,0.03971 -2.09413,-0.02769c-0.05884,-0.0324 -0.48163,-0.45299 -0.42091,-1.45404c0.09665,-1.59335 -2.957,-1.70871 -2.957,-1.70871z" fill="url(#color-13)" stroke="#000000" stroke-width="0.75" stroke-linecap="butt"/><path d="M325.36933,312.19601l4.33317,-3.87978l4.13218,3.83923c0,0 -2.411,-0.0228 -2.70858,1.80163c-0.16573,1.01605 -0.28474,1.42936 -0.28474,1.42936c0,0 -1.97171,0.03972 -2.09412,-0.02769c-0.05885,-0.0324 -0.48163,-0.45299 -0.42091,-1.45404c0.09665,-1.59335 -2.957,-1.7087 -2.957,-1.7087z" fill="url(#color-14)" stroke="#000000" stroke-width="0.75" stroke-linecap="butt"/><path d="M314.85151,312.19601l4.33315,-3.87978l4.13218,3.83923c0,0 -2.411,-0.0228 -2.70857,1.80163c-0.16573,1.01605 -0.28475,1.42936 -0.28475,1.42936c0,0 -1.97172,0.03972 -2.09413,-0.02769c-0.05885,-0.0324 -0.48162,-0.45299 -0.4209,-1.45404c0.09665,-1.59335 -2.957,-1.7087 -2.957,-1.7087z" fill="url(#color-15)" stroke="#000000" stroke-width="0.75" stroke-linecap="butt"/><path d="M304.33368,312.24464l4.33317,-3.87978l4.13218,3.83922c0,0 -2.411,-0.0228 -2.70857,1.80163c-0.16573,1.01605 -0.28475,1.42937 -0.28475,1.42937c0,0 -1.97171,0.0397 -2.09412,-0.0277c-0.05885,-0.0324 -0.48163,-0.45299 -0.42091,-1.45403c0.09665,-1.59335 -2.957,-1.7087 -2.957,-1.7087z" fill="url(#color-16)" stroke="#000000" stroke-width="0.75" stroke-linecap="butt"/><path d="M293.47405,312.39986l4.33315,-3.87978l4.13218,3.83923c0,0 -2.411,-0.02281 -2.70857,1.80162c-0.16573,1.01605 -0.28475,1.42937 -0.28475,1.42937c0,0 -1.97172,0.03971 -2.09413,-0.0277c-0.05885,-0.0324 -0.48162,-0.45299 -0.4209,-1.45403c0.09665,-1.59335 -2.957,-1.7087 -2.957,-1.7087z" fill="url(#color-17)" stroke="#000000" stroke-width="0.75" stroke-linecap="butt"/><path d="M347.16596,312.19601l4.33317,-3.87978l4.13218,3.83923c0,0 -2.411,-0.0228 -2.70857,1.80163c-0.16573,1.01605 -0.28474,1.42936 -0.28474,1.42936c0,0 -1.97171,0.03972 -2.09412,-0.02769c-0.05885,-0.0324 -0.48163,-0.45299 -0.42092,-1.45404c0.09665,-1.59335 -2.957,-1.7087 -2.957,-1.7087z" fill="url(#color-18)" stroke="#000000" stroke-width="0.75" stroke-linecap="butt"/><path d="M338.84054,125.93502l-0.15883,-9.38501l1.29708,4.27508l-1.90948,-2.80594l2.85888,2.3824l-3.81184,-1.7471l3.81184,0.31766l-4.60597,0.95296l4.12949,-2.54122l-2.38239,3.17653l1.58827,-3.97066" fill="none" stroke="url(#color-19)" stroke-width="1.5" stroke-linecap="round"/><path d="M324.99507,116.77963l1.58827,3.97066l-2.38239,-3.17653l4.12949,2.54122l-4.60597,-0.95296l3.81184,-0.31766l-3.81184,1.7471l2.85888,-2.3824l-1.90948,2.80594l1.29708,-4.27508l-0.15883,9.22675" data-paper-data="{&quot;index&quot;:null}" fill="none" stroke="url(#color-20)" stroke-width="1.5" stroke-linecap="round"/><path d="M58.19082,316.10339l-0.15025,-8.87815l1.22703,4.04419l-1.80635,-2.6544l2.70448,2.25373l-3.60597,-1.65274l3.60597,0.3005l-4.35721,0.90149l3.90647,-2.40397l-2.25372,3.00497l1.50249,-3.75621" fill="none" stroke="url(#color-21)" stroke-width="1.25" stroke-linecap="round"/><path d="M45.09311,307.44246l1.50249,3.75621l-2.25372,-3.00497l3.90647,2.40397l-4.35721,-0.90149l3.60597,-0.3005l-3.60597,1.65274l2.70448,-2.25373l-1.80635,2.6544l1.22703,-4.04419l-0.15025,8.72843" data-paper-data="{&quot;index&quot;:null}" fill="none" stroke="url(#color-22)" stroke-width="1.25" stroke-linecap="round"/><path d="M82.78662,315.78806l-0.15025,-8.87815l1.22703,4.04419l-1.80635,-2.6544l2.70448,2.25373l-3.60597,-1.65274l3.60597,0.3005l-4.35721,0.90149l3.90647,-2.40397l-2.25372,3.00497l1.50249,-3.75621" fill="none" stroke="url(#color-23)" stroke-width="1.25" stroke-linecap="round"/><path d="M69.68891,307.12713l1.50249,3.75621l-2.25372,-3.00497l3.90647,2.40397l-4.35721,-0.90149l3.60597,-0.3005l-3.60597,1.65274l2.70448,-2.25373l-1.80635,2.6544l1.22703,-4.04419l-0.15025,8.72843" data-paper-data="{&quot;index&quot;:null}" fill="none" stroke="url(#color-24)" stroke-width="1.25" stroke-linecap="round"/></g></g></svg>