<svg version="1.1" xmlns="http://www.w3.org/2000/svg" xmlns:xlink="http://www.w3.org/1999/xlink" width="151.27026" height="29.63595" viewBox="0,0,151.27026,29.63595"><defs><linearGradient x1="17.70001" y1="7.65047" x2="17.70001" y2="32.49777" gradientUnits="userSpaceOnUse" id="color-1"><stop offset="0" stop-color="#414141"/><stop offset="1" stop-color="#252525"/></linearGradient><linearGradient x1="50.83334" y1="7.65047" x2="50.83334" y2="32.49777" gradientUnits="userSpaceOnUse" id="color-2"><stop offset="0" stop-color="#414141"/><stop offset="1" stop-color="#252525"/></linearGradient><linearGradient x1="84.68334" y1="7.65047" x2="84.68334" y2="32.49777" gradientUnits="userSpaceOnUse" id="color-3"><stop offset="0" stop-color="#414141"/><stop offset="1" stop-color="#252525"/></linearGradient><linearGradient x1="119.15001" y1="7.65047" x2="119.15001" y2="32.49777" gradientUnits="userSpaceOnUse" id="color-4"><stop offset="0" stop-color="#414141"/><stop offset="1" stop-color="#252525"/></linearGradient><linearGradient x1="151.36667" y1="7.65047" x2="151.36667" y2="32.49777" gradientUnits="userSpaceOnUse" id="color-5"><stop offset="0" stop-color="#414141"/><stop offset="1" stop-color="#252525"/></linearGradient><linearGradient x1="17.63481" y1="7.65047" x2="17.63481" y2="32.49777" gradientUnits="userSpaceOnUse" id="color-6"><stop offset="0" stop-color="#ffffff"/><stop offset="1" stop-color="#999999"/></linearGradient><linearGradient x1="51.88636" y1="7.65047" x2="51.88636" y2="32.49777" gradientUnits="userSpaceOnUse" id="color-7"><stop offset="0" stop-color="#ffffff"/><stop offset="1" stop-color="#999999"/></linearGradient><linearGradient x1="84.44847" y1="7.65047" x2="84.44847" y2="32.49777" gradientUnits="userSpaceOnUse" id="color-8"><stop offset="0" stop-color="#ffffff"/><stop offset="1" stop-color="#999999"/></linearGradient><linearGradient x1="118.22202" y1="7.65047" x2="118.22202" y2="32.49777" gradientUnits="userSpaceOnUse" id="color-9"><stop offset="0" stop-color="#ffffff"/><stop offset="1" stop-color="#999999"/></linearGradient><linearGradient x1="150.76468" y1="7.65047" x2="150.76468" y2="32.49777" gradientUnits="userSpaceOnUse" id="color-10"><stop offset="0" stop-color="#ffffff"/><stop offset="1" stop-color="#999999"/></linearGradient></defs><g transform="translate(-8.56463,-5.25615)"><g data-paper-data="{&quot;isPaintingLayer&quot;:true}" fill-rule="nonzero" stroke="#000000" stroke-width="2.5" stroke-linecap="butt" stroke-linejoin="miter" stroke-miterlimit="10" stroke-dasharray="" stroke-dashoffset="0" style="mix-blend-mode: normal"><path d="" fill="url(#color-1)"/><path d="" fill="url(#color-2)"/><path d="" fill="url(#color-3)"/><path d="" fill="url(#color-4)"/><path d="" fill="url(#color-5)"/><path d="M10.03021,20.07412l7.6046,-12.42365l7.6046,12.42365l-7.6046,12.42365z" fill="url(#color-6)"/><path d="M44.28175,20.07412l7.6046,-12.42365l7.6046,12.42365l-7.6046,12.42365z" fill="url(#color-7)"/><path d="M76.84386,20.07412l7.6046,-12.42365l7.6046,12.42365l-7.6046,12.42365z" fill="url(#color-8)"/><path d="M110.61742,20.07412l7.6046,-12.42365l7.6046,12.42365l-7.6046,12.42365z" fill="url(#color-9)"/><path d="M143.1601,20.07412l7.60461,-12.42365l7.6046,12.42365l-7.6046,12.42365z" fill="url(#color-10)"/></g></g></svg>