<svg version="1.1" xmlns="http://www.w3.org/2000/svg" xmlns:xlink="http://www.w3.org/1999/xlink" width="122.90547" height="85.36423" viewBox="0,0,122.90547,85.36423"><defs><linearGradient x1="262.61672" y1="157.18427" x2="283.25007" y2="173.87353" gradientUnits="userSpaceOnUse" id="color-1"><stop offset="0" stop-color="#333333"/><stop offset="1" stop-color="#b3b3b3"/></linearGradient></defs><g transform="translate(-183.85093,-118.41589)"><g data-paper-data="{&quot;isPaintingLayer&quot;:true}" fill-rule="nonzero" stroke-linejoin="miter" stroke-miterlimit="10" stroke-dasharray="" stroke-dashoffset="0" style="mix-blend-mode: normal"><path d="M244.03481,171.74059c0,0 3.41768,-2.37323 8.21096,-3.17344c5.75741,-0.9358 8.76375,-0.15853 8.76375,-0.15853" data-paper-data="{&quot;index&quot;:null}" fill="none" stroke="#7f7f7f" stroke-width="4" stroke-linecap="round"/><path d="M228.81054,188.7578c-4.72088,0 -8.54793,-4.46858 -8.54793,-9.98086c0,-5.51228 3.82853,-10.07066 8.54793,-9.98086c8.52956,0.16229 8.54793,8.65535 8.54793,9.98086c0,5.51228 -3.82704,9.98086 -8.54793,9.98086z" data-paper-data="{&quot;index&quot;:null}" fill="#151515" stroke="#000000" stroke-width="1" stroke-linecap="butt"/><path d="M231.24297,179.30857c0,0 -1.9143,0.11787 -1.77682,-0.02412c-0.3363,-0.55509 -1.42674,-0.24473 -2.38922,-0.69777c-0.9363,-0.85397 -3.49014,-3.41741 1.06701,-5.69029c1.42346,-1.30622 8.74767,-1.46968 8.74767,-1.46968" data-paper-data="{&quot;index&quot;:null}" fill="none" stroke="#7f7f7f" stroke-width="3.5" stroke-linecap="round"/><path d="" fill="none" stroke="#000000" stroke-width="5" stroke-linecap="round"/><path d="M233.49852,162.06327c0.60002,-4.46444 4.30944,-4.17635 5.58443,-3.97433c1.65797,0.26272 1.83844,-2.32739 3.82001,-1.926c2.52535,-0.04196 7.32502,4.13448 6.4027,7.67822c-0.03123,0.11997 0.01805,0.23974 -0.00795,0.34551c-1.26156,5.13024 -4.6232,7.60824 -8.98603,7.02188c-4.36283,-0.58636 -7.41319,-4.68084 -6.81317,-9.14528z" data-paper-data="{&quot;index&quot;:null}" fill="#979797" stroke="#000000" stroke-width="1" stroke-linecap="butt"/><path d="M233.44827,197.69751c0,0 -0.50391,-2.02339 0.04468,-5.02248c0.40558,-2.21725 2.87647,-3.2585 2.87647,-3.2585c0,0 2.55519,-1.17273 3.81504,-1.12968c1.20975,0.04134 3.97407,1.08225 3.97407,1.08225c0,0 1.69205,1.41049 2.14829,3.81662c0.51205,2.70049 0.29547,4.16334 0.29547,4.16334" data-paper-data="{&quot;index&quot;:null}" fill="none" stroke="#000000" stroke-width="5.5" stroke-linecap="round"/><path d="M235.51487,203.28012c-0.56,0 -2.39758,0 -3.63636,0c-0.68606,0 -1.18846,-0.51344 -1.18846,-0.92878c0,-0.84623 0,-3.85564 0,-3.85564h5.48837c0,0 0,3.1207 0,3.94992c0,0.38115 -0.34086,0.83449 -0.66355,0.83449z" data-paper-data="{&quot;index&quot;:null}" fill="#191919" stroke="#000000" stroke-width="1" stroke-linecap="butt"/><path d="M248.70734,202.98668c-0.6089,0 -2.68886,0.09429 -3.90909,0.09429c-0.50592,0 -0.93933,-0.48889 -0.93933,-0.83449c0,-0.80785 0,-4.04421 0,-4.04421h5.48837c0,0 0,3.23636 0,4.04421c0,0.34562 -0.32701,0.7402 -0.63995,0.7402z" data-paper-data="{&quot;index&quot;:null}" fill="#191919" stroke="#000000" stroke-width="1" stroke-linecap="butt"/><path d="M231.74937,181.15823c-1.10457,0 -2,-0.89543 -2,-2c0,-1.10457 0.89543,-2 2,-2c1.10457,0 2,0.89543 2,2c0,1.10457 -0.89543,2 -2,2z" data-paper-data="{&quot;index&quot;:null}" fill="#000000" stroke="none" stroke-width="0.5" stroke-linecap="butt"/><path d="M228.91365,181.63825v-5.71429h1.91131v5.71429z" data-paper-data="{&quot;index&quot;:null}" fill="#7d7d7d" stroke="#000000" stroke-width="0.75" stroke-linecap="butt"/><path d="M264.66458,171.09129c-0.74145,0.15935 -1.53811,-2.46413 -1.53811,-2.46413c0,0 -6.32698,1.22193 -6.56668,0.53743c-0.2397,-0.6845 6.26379,-2.48161 6.26379,-2.48161c0,0 -0.15386,-2.53544 0.21026,-2.6381c0.58756,-0.16574 2.045,1.66149 2.045,1.66149l19.13242,-2.91494c0,0 -15.23036,4.96725 -17.43371,5.68585c-0.51541,0.1681 -0.95397,0.31113 -0.95397,0.31113z" data-paper-data="{&quot;index&quot;:null}" fill="url(#color-1)" stroke="#000000" stroke-width="0.75" stroke-linecap="round"/><path d="M265.06201,165.78727c0,0 0.45633,0.78817 0.554,1.19049c0.11277,0.46456 0.08387,1.43711 0.08387,1.43711" data-paper-data="{&quot;index&quot;:null}" fill="none" stroke="#000000" stroke-width="0.75" stroke-linecap="round"/><path d="M259.14288,167.50629c0.50025,-1.07975 2.3555,-1.39138 3.43525,-0.89113c1.07975,0.50026 1.36524,1.47987 0.86499,2.55962c-0.23262,0.50205 -0.71832,0.90317 -1.28,1.13837c-0.64632,0.27063 -1.39328,0.32163 -1.97097,0.05397c-1.07975,-0.50026 -1.54955,-1.78112 -1.0493,-2.86086z" data-paper-data="{&quot;index&quot;:null}" fill="#000000" stroke="none" stroke-width="0.5" stroke-linecap="butt"/><path d="M191.12394,198.86047c0,0 -28.04035,-55.10985 39.47487,-75.17719c64.51322,-19.11253 73.33055,40.71309 73.33055,40.71309l-6.90976,-13.63028" fill="none" stroke="#4c4c4c" stroke-width="3" stroke-linecap="round"/><path d="M193.6533,197.71001c0,0 -26.45698,-51.77276 37.39663,-71.21392c61.41735,-19.34581 70.96201,39.6522 70.96201,39.6522l-7.49854,-14.12663" fill="none" stroke="#c2c2c2" stroke-width="3" stroke-linecap="round"/><path d="M239.88501,158.49762l4.10401,11.49122" data-paper-data="{&quot;index&quot;:null}" fill="none" stroke="#000000" stroke-width="2" stroke-linecap="round"/><path d="M234.17779,179.51969c-0.08565,-3.63107 2.83057,-9.62907 2.83057,-9.62907c0.89462,0 3.89451,1.53765 3.89451,1.53765c1.53525,0.04255 4.31315,-0.8906 4.31315,-0.8906c0.76843,0 1.34719,6.02822 1.20866,9.69254c-0.14388,3.80567 -0.98081,7.24732 -0.98081,7.24732c-0.72415,0.49769 -0.82085,-1.1547 -5.69905,-0.64402c-6.39067,-0.22121 -4.12178,1.69186 -4.87473,0.55083c-0.19973,-0.60986 -0.60607,-4.20844 -0.69231,-7.86465z" data-paper-data="{&quot;index&quot;:null}" fill="#1f1f1f" stroke="#000000" stroke-width="1" stroke-linecap="butt"/><path d="M243.82411,175.8664c0,0 -0.33333,-2.99255 -0.33333,-3.88889c0,-0.84084 0.88889,-2.33333 0.88889,-2.33333l2.66667,-0.88889c0,0 1.04211,2.15025 1.23893,3.27751c0.08817,0.50499 -0.18228,1.80542 -0.65425,2.62809c-0.65083,1.13443 -1.58468,1.76107 -1.58468,1.76107z" data-paper-data="{&quot;index&quot;:null}" fill="#444444" stroke="#000000" stroke-width="1" stroke-linecap="butt"/><path d="M232.98133,175.47623c0,0 -0.63439,-0.9286 -0.81744,-2.22359c-0.13274,-0.93911 0.09902,-2.24699 0.36842,-2.68313c0.60134,-0.97357 2.4499,-2.78945 2.4499,-2.78945l1.96025,1.98062c0,0 0.37429,1.7571 0.06206,2.53783c-0.33284,0.83225 -1.75356,3.48706 -1.75356,3.48706z" data-paper-data="{&quot;index&quot;:null}" fill="#444444" stroke="#000000" stroke-width="1" stroke-linecap="butt"/><path d="M249.95203,166.7296c0,0 0.65462,2.1622 0.45143,3.03976c-0.1886,0.81461 -0.84614,1.99827 -0.84614,1.99827l-1.24689,1.43711l-1.26494,-4.53813c0,0 0.91268,-1.53243 1.39469,-1.85365c0.48679,-0.32442 1.51185,-0.08336 1.51185,-0.08336z" data-paper-data="{&quot;index&quot;:null}" fill="#1f1f1f" stroke="#000000" stroke-width="1" stroke-linecap="butt"/><path d="M230.23373,174.89153c-0.58465,0.01991 -1.18195,-0.77765 -1.18195,-0.77765c0,0 0.681,-2.1361 1.31534,-2.77564c0.58884,-0.59365 1.52224,-1.24833 1.52224,-1.24833l1.91694,-0.51935l-1.41146,4.4779c0,0 -1.5822,0.82336 -2.1611,0.84308z" data-paper-data="{&quot;index&quot;:null}" fill="#1f1f1f" stroke="#000000" stroke-width="1" stroke-linecap="butt"/><path d="M240.18051,186.52596c-1.77101,0 -5.26144,0.59938 -5.26144,0.59938v-1.34861c0,0 3.57778,-0.52446 5.36667,-0.52446c1.78888,0 5.36666,0.52446 5.36666,0.52446v1.34861c0,0 -4.10535,-0.59938 -5.47189,-0.59938z" data-paper-data="{&quot;index&quot;:null}" fill="#1f1f1f" stroke="#000000" stroke-width="1" stroke-linecap="butt"/><path d="M243.20796,173.56338c0,0 -1.84723,0.57312 -2.79596,0.42133c-0.90061,-0.1441 -2.75959,-1.31022 -2.75959,-1.31022" data-paper-data="{&quot;index&quot;:null}" fill="none" stroke="#000000" stroke-width="1" stroke-linecap="round"/><path d="M247.95584,157.71576c0,0 -5.07675,2.17741 -7.62306,2.70812c-2.59219,0.54028 -7.79489,0.50536 -7.79489,0.50536c0,0 -0.59588,-2.98683 -0.19079,-3.67128c0.97428,-1.64618 3.93528,-4.38452 6.72186,-4.96532c3.85342,-0.80315 7.94437,1.59012 7.94437,1.59012c0,0 0.68595,1.024 0.83374,1.62502c0.16458,0.66927 0.10879,2.20795 0.10879,2.20795z" fill="#1b1b1b" stroke="#000000" stroke-width="1" stroke-linecap="butt"/><path d="M234.66053,186.99918v-3.34897c0,0 3.57778,-1.30238 5.36666,-1.30238c1.78889,0 5.36667,1.30238 5.36667,1.30238v3.34897c0,0 -3.49043,-1.48843 -5.26144,-1.48843c-1.36654,0 -5.47189,1.48843 -5.47189,1.48843z" fill="#484848" stroke="#000000" stroke-width="1" stroke-linecap="butt"/><path d="M240.67056,159.6608c2.65319,-0.42918 7.75817,-2.04238 7.75817,-2.04238l0.27928,1.72653c0,0 -5.25135,1.53846 -7.93133,1.97197c-2.67996,0.43351 -8.14854,0.6291 -8.14854,0.6291l-0.27928,-1.72653c0,0 6.27445,-0.22753 8.3217,-0.55869z" data-paper-data="{&quot;index&quot;:null}" fill="#484848" stroke="#000000" stroke-width="1" stroke-linecap="butt"/></g></g></svg>