<svg version="1.1" xmlns="http://www.w3.org/2000/svg" xmlns:xlink="http://www.w3.org/1999/xlink" width="602.46722" height="431.6793" viewBox="0,0,602.46722,431.6793"><g transform="translate(2.43792,68.59292)"><g data-paper-data="{&quot;isPaintingLayer&quot;:true}" fill-rule="nonzero" stroke-linejoin="miter" stroke-miterlimit="10" stroke-dasharray="" stroke-dashoffset="0" style="mix-blend-mode: normal"><path d="M-2.43792,361.98353v-361.48348h56.45045v361.48349z" fill="#000000" stroke="none" stroke-width="0" stroke-linecap="butt"/><path d="M434.09975,361.05261v-365.04204h165.92955v365.04205z" fill="#000000" stroke="none" stroke-width="0" stroke-linecap="butt"/><path d="M52.29934,361.93099v-34.53454h163.17117v34.53454z" fill="#000000" stroke="none" stroke-width="0" stroke-linecap="butt"/><path d="M284.0109,360.92196v-26.53454h151.17117v26.53454z" fill="#000000" stroke="none" stroke-width="0" stroke-linecap="butt"/><path d="M260.12514,361.27635v-96h25.06186v96z" fill="#000000" stroke="none" stroke-width="0" stroke-linecap="butt"/><path d="M98.18719,295.2763v-30h162.90206v30z" fill="#000000" stroke="none" stroke-width="0" stroke-linecap="butt"/><path d="M480.10219,-3.09333v33.18667h-191.62041v-33.18667z" data-paper-data="{&quot;index&quot;:null}" fill="#000000" stroke="none" stroke-width="0" stroke-linecap="butt"/><path d="M210.81747,-2.99994v65h-212.67078v-65z" data-paper-data="{&quot;index&quot;:null}" fill="#000000" stroke="none" stroke-width="0" stroke-linecap="butt"/><path d="M389.18724,335.2763v-63h46v63z" fill="#000000" stroke="none" stroke-width="0" stroke-linecap="butt"/><path d="M334.19759,214.43198l27.8338,-14.14505l14.14505,27.8338l-19.8338,-4.85495z" fill="#000000" stroke="none" stroke-width="0" stroke-linecap="butt"/><path d="M240.18711,231.27635v-65h63v65z" fill="#000000" stroke="none" stroke-width="0" stroke-linecap="butt"/><path d="M338.18724,137.27634v-20h99v20z" fill="#000000" stroke="none" stroke-width="0" stroke-linecap="butt"/><path d="M53.18713,86.27635v-26h254v26z" fill="#000000" stroke="none" stroke-width="0" stroke-linecap="butt"/><path d="M147.47922,231.09153v-201h93v201z" fill="#000000" stroke="none" stroke-width="0" stroke-linecap="butt"/><path d="M89.47944,295.25816v-164h18v164z" fill="#000000" stroke="none" stroke-width="0" stroke-linecap="butt"/><path d="M130.66672,226.34153v-7.5h18v7.5z" fill="#000000" stroke="#000000" stroke-width="1" stroke-linecap="butt"/><path d="M106.66694,170.84153v-7.5h18v7.5z" fill="#000000" stroke="#000000" stroke-width="1" stroke-linecap="butt"/><path d="M71.5425,273.81688v-6.5h18.16667v6.5z" fill="#000000" stroke="#000000" stroke-width="1" stroke-linecap="butt"/><path d="M53.70917,215.65022v-6.5h17.66667v6.5z" fill="#000000" stroke="#000000" stroke-width="1" stroke-linecap="butt"/><path d="M71.0425,152.48354v-6.5h19.16667v6.5z" fill="#000000" stroke="#000000" stroke-width="1" stroke-linecap="butt"/><path d="M289.49388,-47.7596h11.5v55.37613h-11.5z" data-paper-data="{&quot;index&quot;:null}" fill="#606060" stroke="#000000" stroke-width="2" stroke-linecap="butt"/><path d="M435.07432,29.17979v-21.04763h21.40001v21.04763z" fill="#02f220" stroke="#000000" stroke-width="2" stroke-linecap="butt"/><path d="M390.12984,294.42979v-21.04763h21.40001v21.04763z" fill="#02f220" stroke="#000000" stroke-width="2" stroke-linecap="butt"/><path d="M434.86596,294.26312v-21.04763h21.40001v21.04763z" fill="#02f220" stroke="#000000" stroke-width="2" stroke-linecap="butt"/><path d="M31.5325,349.42979v-21.04763h21.40001v21.04763z" fill="#02f220" stroke="#000000" stroke-width="2" stroke-linecap="butt"/><path d="M148.47689,85.31868v-21.04763h21.40001v21.04763z" fill="#02f220" stroke="#000000" stroke-width="2" stroke-linecap="butt"/><path d="M148.47689,230.09646v-21.04763h21.40001v21.04763z" fill="#02f220" stroke="#000000" stroke-width="2" stroke-linecap="butt"/><path d="M218.07223,51.67106v-21.04763h21.40001v21.04763z" fill="#02f220" stroke="#000000" stroke-width="2" stroke-linecap="butt"/><path d="M188.40558,52.00439v-21.04763h21.40001v21.04763z" fill="#02f220" stroke="#000000" stroke-width="2" stroke-linecap="butt"/><path d="M218.07223,188.37105v-21.04763h21.40001v21.04763z" fill="#02f220" stroke="#000000" stroke-width="2" stroke-linecap="butt"/><path d="M280.87225,188.37106v-21.04763h21.40001v21.04763z" fill="#02f220" stroke="#000000" stroke-width="2" stroke-linecap="butt"/><path d="M280.87225,230.37106v-21.04763h21.40001v21.04763z" fill="#02f220" stroke="#000000" stroke-width="2" stroke-linecap="butt"/><path d="M261.25748,356.52979v-21.04763h21.40001v21.04763z" fill="#02f220" stroke="#000000" stroke-width="2" stroke-linecap="butt"/><path d="M390.25762,356.27979v-21.04763h21.40001v21.04763z" fill="#02f220" stroke="#000000" stroke-width="2" stroke-linecap="butt"/><path d="M209.82733,30.94987h-11.5v-98.54279h11.5z" data-paper-data="{&quot;index&quot;:null}" fill="#606060" stroke="#000000" stroke-width="2" stroke-linecap="butt"/><path d="M218.01537,31.09514v11.5h-8.20946v-11.5z" data-paper-data="{&quot;index&quot;:null}" fill="#7f7f7f" stroke="#000000" stroke-width="2" stroke-linecap="butt"/><path d="M239.16069,167.2832h-11.5v-115.04279h11.5z" data-paper-data="{&quot;index&quot;:null}" fill="#606060" stroke="#000000" stroke-width="2" stroke-linecap="butt"/><path d="M280.76536,167.34514v11.5h-41.20946v-11.5z" data-paper-data="{&quot;index&quot;:null}" fill="#606060" stroke="#000000" stroke-width="2" stroke-linecap="butt"/><path d="M302.19633,209.30304l-11.5,-0.03175v-20.78089h11.5z" data-paper-data="{&quot;index&quot;:null}" fill="#606060" stroke="#000000" stroke-width="2" stroke-linecap="butt"/><path d="M169.70672,230.14673l0.16953,-11.5h110.97645v11.5z" data-paper-data="{&quot;index&quot;:null}" fill="#606060" stroke="#000000" stroke-width="2" stroke-linecap="butt"/><path d="M148.52963,85.32374l11.5,0.18834v123.29097h-11.5z" data-paper-data="{&quot;index&quot;:null}" fill="#606060" stroke="#000000" stroke-width="2" stroke-linecap="butt"/><path d="M52.04005,84.98006v-11.5h95.41688l0.14575,11.5z" data-paper-data="{&quot;index&quot;:null}" fill="#606060" stroke="#000000" stroke-width="2" stroke-linecap="butt"/><path d="M52.97138,328.38638h-11.49999v-242.86664l11.49999,-0.37099z" data-paper-data="{&quot;index&quot;:null}" fill="#606060" stroke="#000000" stroke-width="2" stroke-linecap="butt"/><path d="M435.17148,29.20589l11.5,0.17139v243.63767h-11.5z" data-paper-data="{&quot;index&quot;:null}" fill="#606060" stroke="#000000" stroke-width="2" stroke-linecap="butt"/><path d="M390.326,335.36042l-0.07568,11.5h-107.59052v-11.49999z" data-paper-data="{&quot;index&quot;:null}" fill="#606060" stroke="#000000" stroke-width="2" stroke-linecap="butt"/><path d="M192.99262,328.3009l-0.09847,11.5h-139.9963v-11.49999z" data-paper-data="{&quot;index&quot;:null}" fill="#606060" stroke="#000000" stroke-width="2" stroke-linecap="butt"/><path d="M261.17134,356.56303l11.49999,0.00358l0.00001,5.0912h-11.5z" data-paper-data="{&quot;index&quot;:null}" fill="#606060" stroke="#000000" stroke-width="2" stroke-linecap="butt"/><path d="M214.38571,362.08638h-11.5v-12.6573l11.5,-0.00891z" data-paper-data="{&quot;index&quot;:null}" fill="#606060" stroke="#000000" stroke-width="2" stroke-linecap="butt"/><path d="M390.33814,294.42811l11.49999,0.0286v40.62173h-11.49999z" data-paper-data="{&quot;index&quot;:null}" fill="#606060" stroke="#000000" stroke-width="2" stroke-linecap="butt"/><path d="M434.70499,273.29494l-0.0162,11.49999l-23.00913,0.00001v-11.5z" data-paper-data="{&quot;index&quot;:null}" fill="#606060" stroke="#000000" stroke-width="2" stroke-linecap="butt"/><path d="M93.24197,272.25305v-137.83333h11.16667v137.83333z" fill="#0d0d0d" stroke="#000000" stroke-width="0" stroke-linecap="butt"/><path d="M93.40864,290.41972v-19.5h187v19.5z" fill="#0d0d0d" stroke="none" stroke-width="0" stroke-linecap="butt"/><path d="M264.40855,333.83638v-44.25h16v44.25z" data-paper-data="{&quot;index&quot;:null}" fill="#0d0d0d" stroke="none" stroke-width="0" stroke-linecap="butt"/><path d="M311.0168,29.06042l0.08717,-11.5h123.92189v11.5z" data-paper-data="{&quot;index&quot;:null}" fill="#606060" stroke="#000000" stroke-width="2" stroke-linecap="butt"/><path d="M131.73029,225.36137v-5.25h15v5.25z" fill="#6e6e6e" stroke="#000000" stroke-width="1" stroke-linecap="butt"/><path d="M107.14705,169.80581v-5.25h16.25v5.25z" fill="#6e6e6e" stroke="#000000" stroke-width="1" stroke-linecap="butt"/><path d="M72.26358,151.27248v-4.25h17.15v4.25z" fill="#6e6e6e" stroke="#000000" stroke-width="1" stroke-linecap="butt"/><path d="M54.49698,214.43915v-4.25h15.83334v4.25z" fill="#6e6e6e" stroke="#000000" stroke-width="1" stroke-linecap="butt"/><path d="M72.58036,272.80581v-4.25h17.49999v4.25z" fill="#6e6e6e" stroke="#000000" stroke-width="1" stroke-linecap="butt"/><path d="M345.89629,253.12671v38.42857" fill="#000a0a" stroke="#000a0a" stroke-width="2.5" stroke-linecap="round"/><path d="M329.32993,302.9013v-11.25h33.28571v11.25z" fill="#000000" stroke="none" stroke-width="0" stroke-linecap="butt"/><path d="M331.03981,300.90272v-7.03858h29.96666v7.03858z" fill="#606060" stroke="none" stroke-width="0" stroke-linecap="butt"/><path d="M341.19779,213.94285l19.65626,-9.98925l9.98925,19.65626l-14.00665,-3.42857z" fill="#606060" stroke="none" stroke-width="0" stroke-linecap="butt"/><path d="M353.41514,213.63879c0,-2.54051 2.05949,-4.6 4.6,-4.6c2.54051,0 4.6,2.05949 4.6,4.6c0,2.54051 -2.05949,4.6 -4.6,4.6c-2.54051,0 -4.6,-2.05949 -4.6,-4.6z" fill="#02e71f" stroke="#000000" stroke-width="2" stroke-linecap="butt"/><path d="M240.71925,83.08639v-20h63.16667v20z" fill="#0c0c0c" stroke="none" stroke-width="0" stroke-linecap="butt"/><path d="M340.68598,134.78639v-15.1h93.33333v15.1z" fill="#0c0c0c" stroke="none" stroke-width="0" stroke-linecap="butt"/><path d="M342.03914,249.29338c0,-2.09079 1.69492,-3.78571 3.78571,-3.78571c2.09079,0 3.78571,1.69492 3.78571,3.78571c0,2.09079 -1.69492,3.78571 -3.78571,3.78571c-2.09079,0 -3.78571,-1.69492 -3.78571,-3.78571z" fill="#000a0a" stroke="#000a0a" stroke-width="1.5" stroke-linecap="butt"/><path d="M346.92918,127.48105v-4.91667h80.08333v4.91667z" fill="#02f220" stroke="#000000" stroke-width="2" stroke-linecap="butt"/><path d="M245.84586,84.48106v-6.41667h53.75v6.41667z" fill="#6e6e6e" stroke="#000000" stroke-width="2" stroke-linecap="butt"/><path d="M267.01473,69.97964l5.0899,-5.0899l5.17511,5.17511l-5.0899,5.0899z" fill="#02f220" stroke="#000000" stroke-width="2" stroke-linecap="butt"/><path d="M282.76473,69.97964l5.0899,-5.0899l5.17511,5.17511l-5.0899,5.0899z" fill="#02f220" stroke="#000000" stroke-width="2" stroke-linecap="butt"/><path d="M252.01473,69.72964l5.0899,-5.0899l5.17511,5.17511l-5.0899,5.0899z" fill="#02f220" stroke="#000000" stroke-width="2" stroke-linecap="butt"/><path d="M339.46161,136.20742v-4.66667h95.5v4.66667z" fill="#6e6e6e" stroke="#000000" stroke-width="2" stroke-linecap="butt"/><path d="M106.66161,271.94076v-6h177.16667v6z" fill="#6e6e6e" stroke="#000000" stroke-width="2" stroke-linecap="butt"/><path d="M131.19051,285.10049v-8h117.5v8z" fill="#02f220" stroke="#000000" stroke-width="2" stroke-linecap="butt"/><path d="M90.06371,137.80581v-5.25h18v5.25z" fill="#2e2e2e" stroke="#000000" stroke-width="2" stroke-linecap="butt"/><path d="M193.03256,349.42979v-21.04763h21.40001v21.04763z" fill="#02f220" stroke="#000000" stroke-width="2" stroke-linecap="butt"/><path d="M31.69917,85.31868v-21.04763h21.40001v21.04763z" fill="#02f220" stroke="#000000" stroke-width="2" stroke-linecap="butt"/><path d="M289.44912,29.05479v-21.04763h21.40001v21.04763z" fill="#02f220" stroke="#000000" stroke-width="2" stroke-linecap="butt"/><path d="M96.99494,294.0241l-6,0v-155.91667h6z" fill="#6e6e6e" stroke="#000000" stroke-width="2" stroke-linecap="butt"/></g></g></svg>