<svg version="1.1" xmlns="http://www.w3.org/2000/svg" xmlns:xlink="http://www.w3.org/1999/xlink" width="54.51456" height="69.33312" viewBox="0,0,54.51456,69.33312"><defs><linearGradient x1="246.8152" y1="189.24364" x2="246.8152" y2="194.43456" gradientUnits="userSpaceOnUse" id="color-1"><stop offset="0" stop-color="#1a1a1a"/><stop offset="1" stop-color="#121212"/></linearGradient><linearGradient x1="235.62423" y1="189.37171" x2="235.62423" y2="194.56263" gradientUnits="userSpaceOnUse" id="color-2"><stop offset="0" stop-color="#1a1a1a"/><stop offset="1" stop-color="#121212"/></linearGradient><radialGradient cx="242.88763" cy="144.46141" r="2.29919" gradientUnits="userSpaceOnUse" id="color-3"><stop offset="0" stop-color="#ffffff"/><stop offset="1" stop-color="#ffffff" stop-opacity="0"/></radialGradient><radialGradient cx="237.546" cy="145.00526" r="2.29919" gradientUnits="userSpaceOnUse" id="color-4"><stop offset="0" stop-color="#ffffff"/><stop offset="1" stop-color="#ffffff" stop-opacity="0"/></radialGradient></defs><g transform="translate(-218.55791,-131.17743)"><g data-paper-data="{&quot;isPaintingLayer&quot;:true}" fill-rule="nonzero" stroke-linejoin="miter" stroke-miterlimit="10" stroke-dasharray="" stroke-dashoffset="0" style="mix-blend-mode: normal"><g fill="none" stroke-linecap="round"><path d="M250.46401,133.2315l-25.73594,54.39369l1.61448,-11.16506l3.70311,-0.43099" stroke="#000000" stroke-width="4"/><path d="M250.30956,133.65119l-25.73594,54.39371l1.61448,-11.16507l3.70313,-0.43098" stroke="#4e4e4e" stroke-width="1.5"/></g><path d="M246.65593,145.53727c0,4.18376 -2.90708,7.57536 -6.49316,7.57536c-3.58607,0 -6.49317,-3.3916 -6.49317,-7.57536c0,-4.18376 2.90709,-7.57536 6.49317,-7.57536c3.58607,0 6.49316,3.3916 6.49316,7.57536z" fill="#000000" stroke="#000000" stroke-width="0" stroke-linecap="butt"/><path d="M244.68284,156.38502c0.57014,-0.89581 4.91164,3.89561 8.93018,7.20091c3.49969,2.87852 3.68696,2.50177 4.26705,3.12257c0.38281,0.40968 -0.16912,0.96749 -1.30576,1.99083c-1.24153,1.11777 -1.87045,1.12511 -2.22816,1.18596c-0.7218,0.12282 -7.85048,-6.15991 -10.69273,-10.14468c-1.2819,-1.7972 0.8543,-3.08045 1.02942,-3.35558z" data-paper-data="{&quot;index&quot;:null}" fill="#201a0c" stroke="#000000" stroke-width="1.5" stroke-linecap="butt"/><path d="M220.08111,186.02539l9.96439,-25.28346c0,0 12.47394,-4.07547 15.88219,-4.03654c1.57382,0.01797 2.74727,4.26078 2.74727,4.26078l-3.34278,25.98184c0,0 -5.03014,1.70486 -10.26577,1.53249c-5.30491,-0.17464 -10.76394,-0.44492 -10.76394,-0.44492z" fill="#0c0c0c" stroke="#000000" stroke-width="1.5" stroke-linecap="butt"/><path d="M239.75956,171.93376c0.27148,-1.62808 3.2542,-1.05294 3.64718,-1.1189c1.66576,-0.27963 5.43371,17.82651 5.43371,17.82651c0,0 -2.01272,0.99767 -3.67847,1.27729c-1.66576,0.27963 -3.91547,-0.13451 -3.91547,-0.13451c0,0 -2.36625,-12.57729 -1.48696,-17.85039z" data-paper-data="{&quot;index&quot;:null}" fill="#201a0c" stroke="#000000" stroke-width="1.5" stroke-linecap="butt"/><path d="M242.08742,190.39516c1.5179,-0.73022 4.95678,-1.1515 6.68164,-1.1515c2.96339,0 3.47193,1.62762 3.47193,2.99326c0,1.36563 -1.88334,2.12671 -4.84673,2.12671c-2.96339,0 -5.88466,0.44983 -5.88466,-0.91578c0,-0.57076 -0.51209,-2.52833 0.57783,-3.05267z" data-paper-data="{&quot;index&quot;:null}" fill="url(#color-1)" stroke="#000000" stroke-width="1.5" stroke-linecap="butt"/><path d="M234.39387,172.9049c0.71447,-1.48791 3.41872,-0.10427 3.8145,-0.0581c1.67769,0.19571 0.25017,18.63457 0.25017,18.63457c0,0 -2.21102,0.3972 -3.88871,0.2015c-1.67769,-0.19571 -3.72283,-1.22043 -3.72283,-1.22043c0,0 1.2328,-12.73843 3.54688,-17.55754z" data-paper-data="{&quot;index&quot;:null}" fill="#201a0c" stroke="#000000" stroke-width="1.5" stroke-linecap="butt"/><path d="M237.57809,189.37171c2.96339,0 3.47193,1.62762 3.47193,2.99326c0,1.36563 -1.88334,2.12671 -4.84673,2.12671c-2.96339,0 -5.88466,0.44983 -5.88466,-0.91578c0,-0.57076 -0.51208,-2.52833 0.57784,-3.05267c0,0 4.95677,-1.1515 6.68164,-1.1515z" data-paper-data="{&quot;index&quot;:null}" fill="url(#color-2)" stroke="#000000" stroke-width="1.5" stroke-linecap="butt"/><path d="M231.32487,175.04542c0.4274,-1.59317 1.36567,-3.27352 1.72775,-4.94534c0.40574,-1.87337 -0.00519,-4.05009 0.36981,-5.90315c1.35722,-6.70662 2.78096,-12.58308 6.20966,-12.58308c3.37266,0 4.70471,5.82717 6.28175,12.43682c0.40718,1.70654 0.17996,3.9858 0.65914,5.70984c0.42946,1.54515 1.35186,3.72762 1.71894,5.18437c1.39303,5.52821 2.67581,9.45572 2.67581,9.45572c0,0 0.68879,0.53831 -1.97649,0.83638c-1.16265,0.13002 -1.53769,0.26022 -3.1038,0.3501c-0.80134,0.04599 -2.03418,-13.45356 -2.97954,-13.43699c-0.42862,0.00752 -0.31051,13.84078 -0.76952,13.84078c-1.80764,0 -6.21249,0.15252 -7.43619,0.07748c-2.79396,-0.17135 -5.75505,-1.53762 -5.75505,-1.53762c0,0 0.9804,-4.27673 2.37772,-9.48531z" fill="#201a0c" stroke="#000000" stroke-width="1.5" stroke-linecap="butt"/><path d="M246.07468,139.15109c0.00808,-0.97138 0.80209,-1.75228 1.77348,-1.74421c0.97139,0.00808 1.75228,0.8021 1.74421,1.77348c-0.00808,0.97138 -0.80209,1.75228 -1.77348,1.74421c-0.97139,-0.00808 -1.75228,-0.80209 -1.74421,-1.77348z" fill="#000000" stroke="none" stroke-width="0.5" stroke-linecap="butt"/><path d="M236.03335,156.18934l1.97386,-1.02063c0,0 2.33046,3.72633 3.74782,5.42984c1.50643,1.81056 4.29612,4.45887 4.29612,4.45887l0.29737,2.2847c0,0 -4.51771,-3.20913 -6.07134,-5.05092c-1.57877,-1.87161 -4.24385,-6.10187 -4.24385,-6.10187z" fill="#4e4e4e" stroke="#000000" stroke-width="1.25" stroke-linecap="butt"/><path d="M232.37123,171.5076l0.47789,-2.86312c0,0 4.35503,0.78085 6.57108,0.78085c2.3553,0 7.16845,-0.78085 7.16845,-0.78085l0.35842,2.73297c0,0 -4.76141,0.9535 -7.1709,0.97501c-2.4485,0.02185 -7.40494,-0.84487 -7.40494,-0.84487z" fill="#141008" stroke="#000000" stroke-width="2" stroke-linecap="butt"/><path d="M245.44414,157.78758c-1.48006,-1.29194 -3.58227,-2.23569 -3.58227,-2.23569l-1.64672,2.12971c0,0 -0.47936,1.21424 -3.59011,4.6349c-1.83053,2.0129 -5.72487,1.11412 -5.72487,1.11412c0,0 -2.19785,6.4886 -2.73801,8.93654c-1.78458,8.08751 -0.06484,13.0437 -4.06529,20.29553c-0.49663,0.90026 -5.2422,-4.37054 -4.75374,-6.4145c0.66377,-2.77757 6.71482,-22.67983 10.69357,-29.50525c0.77157,-1.32359 2.55927,-1.88731 2.90811,-2.46031c0.44215,-0.3453 -3.46439,-3.44683 -3.0256,-3.61328c0.02083,-0.0079 -2.16118,-7.99843 -0.18882,-11.49602c3.13405,-5.55759 10.28627,-7.09365 10.28627,-7.09365c0,0 0.13147,0.92464 0.10744,2.11597c-0.02138,1.05973 0.06376,3.91551 0.06376,3.91551c0,0 -5.78107,2.69047 -5.83449,6.61931c-0.05343,3.92885 3.0874,8.06927 7.01843,7.05528c3.29952,-0.85109 4.10793,-3.34258 4.13644,-7.65554c0.02851,-4.31296 -5.23401,-6.13359 -5.23401,-6.13359l-0.22767,-3.72826l0.33159,-2.20023c0,0 3.60598,0.69213 5.39932,2.07665c1.79333,1.38452 2.43395,2.7753 3.01137,5.41774c0.60339,2.76131 -0.01088,5.93541 -0.41865,7.95255c-0.79798,3.94745 -2.60118,5.1291 -2.03214,6.06928c2.01134,3.32316 2.81226,6.64614 2.90672,7.84332c0.00481,0.06104 -2.32054,-2.34811 -3.8006,-3.64004z" fill="#0f0f0f" stroke="#000000" stroke-width="1.5" stroke-linecap="butt"/><path d="M238.17568,136.24766l3.14911,0.12112" fill="none" stroke="#000000" stroke-width="1.5" stroke-linecap="round"/><path d="M238.45747,134.40667h3.36629" fill="none" stroke="#000000" stroke-width="1.5" stroke-linecap="round"/><path d="M260.09131,170.18395c-0.18579,1.51012 -1.55188,2.60219 -3.05127,2.43921c-1.49939,-0.163 -2.56427,-1.51933 -2.37848,-3.02947c0.18579,-1.51012 1.55188,-2.60219 3.05127,-2.43921c1.49939,0.163 2.56427,1.51933 2.37848,3.02947z" fill="#000000" stroke="#000000" stroke-width="1.5" stroke-linecap="butt"/><g><path d="M249.43598,171.86917c0,0 0.08332,1.25316 -1.19836,1.2385c-1.20127,-0.01374 -1.1956,-1.21034 -1.1956,-1.21034z" fill="none" stroke="#000000" stroke-width="0.5" stroke-linecap="butt"/><path d="M248.06201,172.36719c0,0 -0.18984,-0.12428 -0.31457,-0.23427c-0.12249,-0.10802 -0.18059,-0.41986 -0.18059,-0.41986" fill="none" stroke="#8d8d8d" stroke-width="0.375" stroke-linecap="round"/><path d="M263.45105,169.32986l2.30197,1.96741" fill="none" stroke="#000000" stroke-width="1" stroke-linecap="round"/><path d="M247.62434,171.53405l-2.60624,-2.22749" fill="none" stroke="#000000" stroke-width="1" stroke-linecap="round"/><path d="M246.95178,169.24531l2.62994,2.24772" fill="none" stroke="#000000" stroke-width="1" stroke-linecap="round"/><path d="M261.88201,169.31889l2.35608,2.01367" fill="none" stroke="#000000" stroke-width="1" stroke-linecap="round"/><path d="M237.55204,176.12216c-2.15567,-0.31174 -1.85861,-3.26884 -2.36488,-4.98104c3.33956,-0.76129 3.14094,-1.28007 5.65589,-0.78702c1.28074,0.25108 2.68815,-1.09088 2.68815,-1.09088h29.11579l-0.88269,2.32616c0,0 -19.61136,0.1189 -25.76401,0.1189c-0.45675,0 -0.29408,2.02103 -1.2266,2.02103c-1.04008,0 -2.09614,-1.52928 -2.09614,-1.52928z" fill="#382918" stroke="#000000" stroke-width="0.5" stroke-linecap="butt"/><path d="M240.25795,170.10384c-0.39649,-0.04472 -0.48586,-0.21384 -1.16713,-0.07253c-1.4489,0.30053 -3.97753,0.99255 -3.90826,0.90375c0.12123,-0.15541 0.80338,-1.28973 0.84239,-1.30683c0.84535,-0.37074 2.64322,-0.59968 3.40651,-0.85518c0.15117,-0.0506 0.69478,-0.07395 1.08909,0.08209c0.44387,0.17565 0.80785,0.1597 1.05722,0.16739c0.38939,0.01203 0.72181,-0.28837 0.97089,-0.44958c0.5884,-0.38082 1.68444,-0.64434 1.68444,-0.64434h25.02085l-0.76005,1.19136c0,0 -21.42527,0 -24.7668,0c-0.34803,0 -0.71062,0.44885 -1.20644,0.70163c-0.58437,0.29791 -1.28974,0.44373 -1.28974,0.44373c0,0 -0.53722,-0.11232 -0.97295,-0.16148z" fill="#5a370b" stroke="#000000" stroke-width="0.5" stroke-linecap="butt"/><path d="M265.52417,176.45858c0,0 -0.71107,-5.20502 -0.66482,-7.98004c0.04408,-2.64456 1.1865,-4.74309 1.1865,-4.74309" fill="none" stroke="#000000" stroke-width="1" stroke-linecap="round"/><path d="M265.75993,177.29871c0,0 2.78515,-5.67102 1.86366,-9.65903c-0.5633,-2.43788 -1.84344,-4.56181 -1.84344,-4.56181c0,0 2.75958,-0.21933 2.79331,-0.21724c0.10574,0.00658 2.11309,2.41203 2.24884,5.98986c-0.20076,5.72818 -2.59149,8.36953 -2.59149,8.36953z" fill="#382918" stroke="#000000" stroke-width="0.5" stroke-linecap="butt"/><path d="M264.86318,175.01132c0,0 2.93634,-4.75845 2.0885,-8.17233c-0.5183,-2.08692 -1.37623,-4.02477 -1.37623,-4.02477c0,0 0.90603,-0.41336 1.38842,-0.40718c0.46513,0.00596 1.54131,0.31938 1.54131,0.31938c0,0 1.32848,3.32713 1.36295,6.01207c0.18387,3.29774 -2.07603,6.39156 -2.07603,6.39156c0,0 -0.96709,0.70987 -1.4345,0.69093c-0.50586,-0.0205 -1.49442,-0.80964 -1.49442,-0.80964z" fill="#5a370b" stroke="#000000" stroke-width="0.5" stroke-linecap="butt"/><path d="M266.38797,177.43626c-0.41025,-0.0199 -1.01715,-0.38337 -1.01715,-0.38337l-0.44017,-1.73287c0,0 1.09318,0.36381 1.61105,0.37531c0.48218,0.01072 1.39675,-0.30847 1.39675,-0.30847l0.29344,1.80488c0,0 -1.32588,0.26967 -1.84393,0.24452z" fill="#382918" stroke="#000000" stroke-width="0.5" stroke-linecap="round"/><path d="M266.45664,167.95917h6.10382c0,0 0.22482,0.3986 0.26201,0.57568c0.044,0.20935 -0.33949,0.59994 -0.33949,0.59994h-5.88978" fill="#5a370b" stroke="#000000" stroke-width="0.5" stroke-linecap="round"/><path d="M244.73609,167.51889c0,0 1.5072,-0.22869 2.26537,-0.22869c0.76431,0 2.30218,0.22869 2.30218,0.22869v0.903c0,0 -1.6563,0 -2.44207,0c-0.73309,0 -2.12548,0 -2.12548,0z" fill="#484848" stroke="#000000" stroke-width="0.5" stroke-linecap="butt"/></g><path d="M246.53761,170.47533c0.16016,1.51908 -0.92756,2.86493 -2.42953,3.00604c-1.50196,0.14111 -2.84938,-0.97595 -3.00955,-2.49504c-0.16016,-1.51908 0.92757,-2.86492 2.42953,-3.00604c1.50196,-0.14111 2.84937,0.97595 3.00954,2.49503z" fill="#000000" stroke="#000000" stroke-width="1.5" stroke-linecap="butt"/><path d="M232.39184,168.51258c-0.88233,-1.73736 -1.49145,-4.43844 -0.83024,-4.77792c0.48693,-0.25 1.37966,0.11827 2.35012,0.10266c0.56344,-0.00907 1.15307,-0.40746 1.70472,-0.45364c0.91796,-0.44662 0.02238,-1.23789 1.3521,2.42099c2.84039,3.11068 5.92674,1.64912 6.38836,2.3762c0,0 0.01061,1.69957 -0.27548,2.48199c-0.33356,0.91228 -0.40477,1.46981 -0.66105,1.85329c-4.28473,0.5853 -7.98464,0.02094 -10.02851,-4.00358z" fill="#201a0c" stroke="#000000" stroke-width="1.5" stroke-linecap="butt"/><path d="M239.48639,155.41229c0,0 -2.40201,-0.03863 -3.54517,-0.26279c-1.15635,-0.22673 -3.35381,-1.08995 -3.35381,-1.08995" fill="none" stroke="#000000" stroke-width="1.5" stroke-linecap="round"/><path d="M243.81517,155.00647l2.02912,-1.75857" fill="none" stroke="#000000" stroke-width="1.5" stroke-linecap="round"/><path d="M239.98664,153.18726c1.11881,-1.497 1.57622,-1.62138 3.07322,-0.50258c1.497,1.11881 1.54027,1.82097 0.42145,3.31798c-1.11881,1.497 -1.83748,1.42613 -3.33448,0.30732c-1.497,-1.11881 -1.279,-1.62573 -0.16019,-3.12272z" fill="#4e4e4e" stroke="#000000" stroke-width="1.5" stroke-linecap="butt"/><g stroke="none" stroke-width="0" stroke-linecap="butt"><path d="M241.69463,144.47464c0,-0.61568 0.49911,-1.1148 1.1148,-1.1148c0.61568,0 1.1148,0.49911 1.1148,1.1148c0,0.61568 -0.49911,1.1148 -1.1148,1.1148c-0.61568,0 -1.1148,-0.4991 -1.1148,-1.1148z" fill="#ffffff"/><path d="M240.58843,144.46141c0,-1.26982 1.02939,-2.29919 2.29919,-2.29919c1.26981,0 2.29919,1.02939 2.29919,2.29919c0,1.26982 -1.02939,2.29919 -2.29919,2.29919c-1.26981,0 -2.29919,-1.02939 -2.29919,-2.29919z" fill="url(#color-3)"/></g><g stroke="none" stroke-width="0" stroke-linecap="butt"><path d="M236.353,145.01849c0,-0.61569 0.49911,-1.1148 1.1148,-1.1148c0.61569,0 1.11479,0.49911 1.11479,1.1148c0,0.61569 -0.49911,1.1148 -1.11479,1.1148c-0.61569,0 -1.1148,-0.4991 -1.1148,-1.1148z" fill="#ffffff"/><path d="M235.24681,145.00526c0,-1.26982 1.02938,-2.29919 2.29918,-2.29919c1.26981,0 2.29919,1.02939 2.29919,2.29919c0,1.26982 -1.02939,2.29919 -2.29919,2.29919c-1.26981,0 -2.29918,-1.02939 -2.29918,-2.29919z" fill="url(#color-4)"/></g></g></g></svg>