<svg version="1.1" xmlns="http://www.w3.org/2000/svg" xmlns:xlink="http://www.w3.org/1999/xlink" width="22.41593" height="37.0448" viewBox="0,0,22.41593,37.0448"><defs><linearGradient x1="240.92746" y1="162.46963" x2="238.87471" y2="178.26704" gradientUnits="userSpaceOnUse" id="color-1"><stop offset="0" stop-color="#000000"/><stop offset="1" stop-color="#000000"/></linearGradient><linearGradient x1="230.44521" y1="165.95614" x2="250.57183" y2="165.95614" gradientUnits="userSpaceOnUse" id="color-2"><stop offset="0" stop-color="#3f2e16"/><stop offset="1" stop-color="#523e22"/></linearGradient><linearGradient x1="234.37423" y1="162.81971" x2="247.11234" y2="162.81971" gradientUnits="userSpaceOnUse" id="color-3"><stop offset="0" stop-color="#3f2e16"/><stop offset="1" stop-color="#523e22"/></linearGradient><linearGradient x1="229.02509" y1="182.70461" x2="246.60091" y2="182.70461" gradientUnits="userSpaceOnUse" id="color-4"><stop offset="0" stop-color="#3f2e16"/><stop offset="1" stop-color="#523e22"/></linearGradient></defs><g transform="translate(-228.5251,-158.59221)"><g data-paper-data="{&quot;isPaintingLayer&quot;:true}" fill-rule="nonzero" stroke-linejoin="miter" stroke-miterlimit="10" stroke-dasharray="" stroke-dashoffset="0" style="mix-blend-mode: normal"><path d="M231.66608,170.10488c0.62347,-4.79806 4.76993,-8.21641 9.26139,-7.63519c4.49144,0.58121 7.62708,4.94197 7.00361,9.73997c-0.62347,4.79806 -4.16126,7.4219 -8.65269,6.84069c-4.49144,-0.58121 -8.23574,-4.14741 -7.61227,-8.94545z" fill="#000000" stroke="url(#color-1)" stroke-width="0.5" stroke-linecap="butt"/><path d="M238.97747,170.94279c0.35539,-1.39443 1.47618,-2.25843 2.50337,-1.92983c1.02719,0.32861 1.57178,1.72536 1.2164,3.11978c-0.35539,1.39443 -1.47619,2.25843 -2.50337,1.92984c-1.02719,-0.32861 -1.57177,-1.72536 -1.2164,-3.11979z" fill="#ffffff" stroke="none" stroke-width="0" stroke-linecap="butt"/><path d="M250.56602,167.25121c-0.18696,1.43419 -4.84144,2.01702 -10.39603,1.30178c-5.55462,-0.71525 -9.90594,-2.4577 -9.71898,-3.8919c0.18696,-1.43419 4.84143,-2.01703 10.39602,-1.30179c5.55462,0.71525 9.90595,2.45772 9.71899,3.8919z" fill="url(#color-2)" stroke="#000000" stroke-width="0.75" stroke-linecap="butt"/><path d="M234.38405,163.04315c0.17827,-0.40602 0.51243,-0.93584 0.73002,-1.50835c0.25385,-0.66797 0.37941,-1.35393 0.37941,-1.35393c0,0 3.92938,-1.48632 6.37905,-1.16931c2.44965,0.31699 5.25877,2.65991 5.21758,2.97688c-0.05786,0.44531 -0.11772,1.51562 0.01964,2.4528c0.11785,0.804 -3.80779,2.62929 -7.21002,2.15284c-3.09771,-0.43382 -5.70609,-3.11724 -5.5157,-3.55093z" fill="url(#color-3)" stroke="#000000" stroke-width="0.75" stroke-linecap="butt"/><path d="M243.646,171.17541c0.3413,-1.3963 1.37914,-2.27124 2.31812,-1.95432c0.93899,0.31694 1.42348,1.70576 1.08219,3.10204c-0.3413,1.3963 -1.37916,2.27125 -2.31812,1.95432c-0.93899,-0.31694 -1.42348,-1.70577 -1.08219,-3.10204z" fill="#ffffff" stroke="none" stroke-width="0" stroke-linecap="butt"/><path d="M241.22306,184.37217c0,0 -0.42108,2.56182 -0.6311,3.83959c-0.12952,0.78797 -0.28394,2.48291 -0.38287,3.66086c-0.06095,0.72591 -0.64682,2.51439 -0.64682,2.51439" fill="none" stroke="#000000" stroke-width="2.5" stroke-linecap="round"/><path d="M239.26463,183.82577c0,0 -0.41652,2.53414 -0.62564,3.80634c-0.09351,0.56882 -0.79936,4.23691 -0.79936,4.23691" fill="none" stroke="#000000" stroke-width="2.5" stroke-linecap="round"/><path d="M229.43962,186.53189c0.18101,-0.34251 -0.05532,-0.82904 0.52526,-1.41189c0.65867,-0.66123 0.26673,-1.7344 0.2878,-2.01468c0.05186,-0.68982 0.98816,-1.11645 1.31262,-1.73201c0.24306,-0.46115 -0.77332,-1.73916 -0.4212,-2.04904c0.6066,-0.53386 -0.08868,-1.15747 0.11005,-1.572c0.23499,-0.49021 0.80671,-0.56808 0.73093,-1.10026c-0.11179,-0.78499 0.23664,-1.65092 0.23664,-1.65092c0,0 4.41253,2.75049 6.99506,3.0925c2.64577,0.35039 7.38413,-1.70752 7.38413,-1.70752c0,0 -0.27171,2.30081 -0.41647,2.97623c0.12546,0.88018 0.02838,1.65048 0.13659,2.21013c0.08994,0.46528 -0.92632,1.44343 -0.81558,1.94213c0.05763,0.25957 0.4783,1.37842 0.18018,2.1439c-0.30827,0.79157 -1.1942,1.05625 -1.35166,1.42119c-0.12121,0.28091 0.20883,1.64483 0.09967,2.2825c-0.20149,1.17714 -1.57496,1.04121 -1.57496,1.04121c0,0 0.02462,-0.33147 -2.05304,-0.71828c-1.26271,-0.23509 -3.60018,0.60156 -4.89822,-0.02684c-2.90599,-1.40682 -2.64127,0.27614 -3.87849,0.11833c-1.55579,-0.19843 -2.41173,-1.2802 -2.41173,-1.2802c0,0 -1.20453,-0.0211 -0.17756,-1.96447z" fill="url(#color-4)" stroke="#000000" stroke-width="1" stroke-linecap="butt"/><path d="M242.30101,177.76032c0,0 -0.34398,0.8807 -0.47582,1.62821c-0.04617,0.26169 0.03205,1.07418 0.02293,1.52925c-0.00813,0.40559 -0.18154,0.88711 -0.25292,1.37377c-0.03479,0.23724 -0.50811,0.54557 -0.58784,0.89937c-0.11229,0.49829 0.16144,1.06138 0.10125,1.42183c-0.05347,0.32028 -0.54261,0.68004 -0.51753,1.30337c0.02445,0.60756 0.25096,1.23818 0.22416,1.51677c-0.1535,1.59592 -0.88512,1.82738 -0.88512,1.82738" fill="none" stroke="#000000" stroke-width="0.5" stroke-linecap="round"/><path d="M241.28082,179.63371c0.01566,-0.30393 0.28145,-0.53726 0.59363,-0.52117c0.31219,0.01609 0.55256,0.27552 0.5369,0.57943c-0.01566,0.30393 -0.28144,0.53726 -0.59362,0.52117c-0.31219,-0.01609 -0.55257,-0.27552 -0.53691,-0.57943z" fill="#000000" stroke="#000000" stroke-width="0.5" stroke-linecap="butt"/><path d="M240.88388,181.92185c0.01566,-0.30393 0.28145,-0.53726 0.59363,-0.52117c0.31219,0.01609 0.55257,0.27552 0.53691,0.57943c-0.01566,0.30393 -0.28145,0.53726 -0.59363,0.52117c-0.31219,-0.01609 -0.55257,-0.27552 -0.53691,-0.57943z" fill="#000000" stroke="#000000" stroke-width="0.5" stroke-linecap="butt"/><path d="M240.35888,184.68849c0.01566,-0.30393 0.28144,-0.53726 0.59362,-0.52117c0.31219,0.01609 0.55257,0.27552 0.53691,0.57943c-0.01566,0.30393 -0.28145,0.53726 -0.59363,0.52117c-0.31219,-0.01609 -0.55256,-0.27552 -0.5369,-0.57943z" fill="#000000" stroke="#000000" stroke-width="0.5" stroke-linecap="butt"/><path d="M240.25822,187.37847c0.01566,-0.30393 0.28144,-0.53726 0.59362,-0.52117c0.31219,0.01609 0.55257,0.27552 0.53691,0.57943c-0.01566,0.30393 -0.28145,0.53726 -0.59363,0.52117c-0.31219,-0.01609 -0.55256,-0.27552 -0.5369,-0.57943z" fill="#000000" stroke="#000000" stroke-width="0.5" stroke-linecap="butt"/></g></g></svg>