<svg version="1.1" xmlns="http://www.w3.org/2000/svg" xmlns:xlink="http://www.w3.org/1999/xlink" width="64.5322" height="71.82548" viewBox="0,0,64.5322,71.82548"><defs><linearGradient x1="243.0771" y1="129.87211" x2="248.89121" y2="139.33895" gradientUnits="userSpaceOnUse" id="color-1"><stop offset="0" stop-color="#ffffff"/><stop offset="1" stop-color="#000000"/></linearGradient></defs><g transform="translate(-212.18579,-123.52658)"><g data-paper-data="{&quot;isPaintingLayer&quot;:true}" fill-rule="nonzero" stroke="#000000" stroke-linejoin="miter" stroke-miterlimit="10" stroke-dasharray="" stroke-dashoffset="0" style="mix-blend-mode: normal"><g data-paper-data="{&quot;index&quot;:null}" stroke-width="1.5" stroke-linecap="butt"><path d="M212.82489,153.87419c-0.37236,-0.6063 0.60099,-2.42734 0.60099,-2.42734l13.48009,-8.27885c0,0 1.12372,0.64085 1.42885,1.13869c0.27583,0.45004 0.32295,1.71947 0.32295,1.71947l-13.48009,8.27885z" fill="#1b0c00"/><path d="M227.25696,142.6767c0,0 -1.43136,-2.63252 2.2631,-4.95927c1.08767,-0.68501 3.59548,-0.35788 5.46656,-1.42992c1.90524,-1.09162 4.41254,-3.71724 7.83557,-5.71048c4.88501,-2.84455 10.7753,-5.07655 12.10302,-5.48967c7.83997,-2.43942 17.70959,1.40347 17.70959,1.40347c0,0 -5.67306,-0.0486 -10.86642,1.3095c-3.83565,1.00305 -12.57283,4.9599 -16.02191,6.56235c-8.11901,3.77212 -15.29707,15.20767 -15.29707,15.20767z" data-paper-data="{&quot;index&quot;:null}" fill="url(#color-1)"/><path d="M221.51637,139.57322l2.49901,-1.52899c0,0 4.95851,2.90222 6.26664,5.03219c1.37302,2.23563 1.68013,8.14553 1.68013,8.14553l-2.28682,1.39778c0,0 -0.53107,-5.97662 -1.90409,-8.21224c-1.30812,-2.12997 -6.25486,-4.83427 -6.25486,-4.83427z" fill="#151515"/></g><path d="M254.41056,163.72514c0,0 1.98372,-0.26601 2.33222,0.68196c0.57949,1.57619 0.33853,2.41251 -0.55969,3.07187c-0.8982,0.65937 -2.20374,-1.05047 -2.35366,-0.93327c-0.15741,0.12302 -0.3021,2.80761 -1.14571,3.3115c-0.84363,0.50393 -2.19777,-0.23037 -2.20469,-1.86007c-0.00536,-1.25976 0.98138,-2.08582 0.98138,-2.08582l-4.80331,-9.92602c0,0 -1.58215,-0.09328 -2.3747,-0.51426c-0.67205,-0.35699 -1.01365,-2.22163 -0.13457,-3.064c0.87908,-0.84237 2.9434,0.69887 2.9845,0.67496c0.06445,-0.03749 -0.59444,-1.69373 -0.32387,-2.6981c0.24747,-0.91855 1.1889,-1.4374 2.05063,-0.70628c1.24119,1.05306 0.65578,4.39705 0.65578,4.39705z" data-paper-data="{&quot;index&quot;:null}" fill="#d6d6d6" stroke-width="1.5" stroke-linecap="butt"/><path d="M256.1864,157.89416c0,0 -1.27126,-1.0537 -0.89161,-1.7954c0.63123,-1.23327 1.27304,-1.55518 2.17536,-1.37961c0.9023,0.17554 0.59634,1.92373 0.75126,1.94902c0.16265,0.02658 1.87103,-1.3879 2.64855,-1.15846c0.77755,0.22942 1.09013,1.4612 0.10607,2.37731c-0.76067,0.70817 -1.81357,0.57222 -1.81357,0.57222l-3.32944,8.466c0,0 0.82876,1.0113 1.01704,1.72731c0.15964,0.60715 -0.77956,1.85762 -1.78211,1.79607c-1.00254,-0.06156 -1.22336,-2.17537 -1.26085,-2.18691c-0.0588,-0.01809 -0.69411,1.3081 -1.45439,1.70608c-0.69529,0.36396 -1.53661,0.08361 -1.57559,-0.8479c-0.05614,-1.34167 2.29855,-2.85796 2.29855,-2.85796z" data-paper-data="{&quot;index&quot;:null}" fill="#d6d6d6" stroke-width="1.5" stroke-linecap="butt"/><path d="M254.32765,150.67034c-0.17808,-2.19893 -1.44882,0.92148 -1.0505,1.02246c0.458,0.11611 2.13008,-2.91645 2.45536,-0.97703c0.28773,1.7155 0.49128,3.22241 0.5535,2.88983c0.08894,-0.47533 -0.10038,-1.72608 -0.13243,-3.13249c-0.06084,-2.67009 -2.18634,-0.66296 -1.89381,-0.70939c0.58046,-0.0909 2.47868,-1.99457 3.00185,0.56474c0.31479,1.53999 0.57183,2.86434 0.71403,3.13617c0.10621,0.20302 -0.15629,-0.52062 -0.4001,-3.05118c-0.29003,-3.01027 -2.25427,-0.64796 -1.97242,-0.62658c0.34906,0.02647 2.44946,-1.41029 3.03557,0.59777c0.43636,1.49501 0.80809,2.87005 0.92109,3.12877c0.03899,0.08929 -0.48583,-3.27996 -0.13304,-3.16638c0.05021,0.01616 0.84679,0.01942 0.9023,0.20065c0.48972,1.59887 0.75555,3.15336 0.77017,3.19517c0.49941,1.4272 -0.56606,3.37583 -1.18472,4.17682c-0.51959,0.67273 -0.54923,0.3156 -1.35863,0.40617c-1.57584,0.17631 -2.67798,-0.45117 -3.59683,-3.07705c-0.19098,-0.5458 -0.47078,-2.595 -0.6314,-4.57843z" data-paper-data="{&quot;index&quot;:null}" fill="#d6d6d6" stroke-width="1" stroke-linecap="butt"/><g data-paper-data="{&quot;index&quot;:null}" stroke-linecap="butt"><path d="M233.04088,152.06272c0,0 -0.0049,-3.27038 1.3466,-4.06549c0.93834,-0.55203 1.74644,0.09549 1.83005,1.00808c0.09142,0.99787 -0.80675,2.46138 -0.75175,2.50759c0.03507,0.02946 2.24828,-1.09345 2.94393,-0.14913c0.69566,0.94434 0.06435,2.65789 -0.63233,2.88606c-0.82158,0.26905 -2.33866,0.09702 -2.33866,0.09702l-6.19383,8.6303c0,0 0.80052,0.94656 0.58796,2.14139c-0.27498,1.5457 -1.68119,2.01967 -2.39894,1.40242c-0.71774,-0.61722 -0.41295,-3.18916 -0.54209,-3.33185c-0.123,-0.13593 -1.64374,1.27198 -2.3877,0.49821c-0.74397,-0.77377 -0.83494,-1.60725 -0.02533,-3.00787c0.48689,-0.84238 2.32595,-0.2632 2.32595,-0.2632z" data-paper-data="{&quot;index&quot;:null}" fill="#d6d6d6" stroke-width="1.5"/><path d="M227.43281,160.96771c0,0 2.59392,1.05612 2.78611,2.38513c0.13344,0.92271 -0.64177,1.35338 -1.39224,1.12387c-0.8206,-0.25097 -1.68956,-1.43729 -1.74401,-1.40867c-0.03472,0.01826 0.138,2.13656 -0.83601,2.3819c-0.97403,0.24534 -2.12768,-0.81049 -2.08272,-1.43668c0.05303,-0.73845 0.68111,-1.88523 0.68111,-1.88523l-4.83335,-7.70695c0,0 -1.00979,0.32774 -1.88799,-0.22803c-1.1361,-0.71897 -1.056,-1.98726 -0.33408,-2.35612c0.72188,-0.36887 2.66177,0.70636 2.81674,0.65025c0.14761,-0.05344 -0.47547,-1.71522 0.37901,-2.05413c0.85449,-0.33892 1.54464,-0.14088 2.39245,0.95485c0.50991,0.65898 -0.54529,1.92901 -0.54529,1.92901z" data-paper-data="{&quot;index&quot;:null}" fill="#d6d6d6" stroke-width="1.5"/><path d="M216.54097,146.8386c0.8818,0.12359 1.67962,4.09725 1.73433,3.37846c0.10638,-1.39763 -1.20798,-3.20564 -0.77172,-3.3247c0.9084,-0.24588 1.98097,2.32265 2.43598,3.00076c0.27952,0.41658 -1.4846,-3.63419 -0.96461,-3.65151c0.61034,-0.02032 2.21549,2.95383 2.54465,3.52766c0.05538,0.09654 -1.87842,-3.95681 -1.16465,-4.00036c0.83173,-0.26626 2.68345,3.98465 2.7199,4.06096c0.65171,1.36441 -0.19545,3.41738 -0.72329,4.28092c-0.44332,0.72527 -0.51163,0.37348 -1.30639,0.55156c-1.54731,0.3467 -2.71116,-0.15715 -3.91022,-2.66748c-0.52553,-1.10025 -1.36797,-5.26474 -0.594,-5.15626z" fill="#d6d6d6" stroke-width="1"/></g><path d="M252.82094,176.30807c0,0 1.50729,-0.33549 1.97269,0.34148c0.77385,1.12562 0.75291,1.76122 0.17909,2.31184c-0.57381,0.55062 -1.9459,-0.62312 -2.04024,-0.52593c-0.09905,0.10203 0.32849,2.09831 -0.23371,2.53011c-0.5622,0.43181 -1.77581,-0.01678 -2.10992,-1.22203c-0.25827,-0.93165 0.35157,-1.61179 0.35157,-1.61179l-5.78132,-7.00788c0,0 -1.26376,0.04161 -1.97228,-0.21444c-0.60082,-0.21713 -1.24564,-1.57278 -0.72379,-2.25747c0.52184,-0.68468 2.45702,0.31127 2.48452,0.29071c0.04316,-0.03226 -0.80932,-1.21154 -0.79896,-1.97352c0.00948,-0.69687 0.64563,-1.14656 1.47114,-0.66588c1.18901,0.69232 1.40275,3.20726 1.40275,3.20726z" data-paper-data="{&quot;index&quot;:null}" fill="#d6d6d6" stroke-width="1.5" stroke-linecap="butt"/><path d="M230.87984,178.14974c0,0 0.51819,1.44596 -0.06588,1.99509c-0.97114,0.91302 -1.5798,0.97592 -2.18019,0.48106c-0.60041,-0.49486 0.33788,-2.00565 0.23283,-2.0861c-0.1103,-0.0845 -1.957,0.60067 -2.44258,0.10166c-0.48561,-0.49899 -0.21773,-1.75777 0.8872,-2.24655c0.85412,-0.37783 1.58272,0.13562 1.58272,0.13562l5.91938,-6.63692c0,0 -0.20599,-1.24386 -0.05516,-1.97799c0.1279,-0.62252 1.33531,-1.43825 2.05668,-1.0124c0.72136,0.42585 0.02666,2.46993 0.04988,2.49442c0.03643,0.03843 1.04839,-0.9594 1.77612,-1.04937c0.66555,-0.08226 1.17794,0.48748 0.82837,1.3668c-0.50347,1.26648 -2.87273,1.80851 -2.87273,1.80851z" data-paper-data="{&quot;index&quot;:null}" fill="#d6d6d6" stroke-width="1.5" stroke-linecap="butt"/><path d="M238.69763,165.65544c0.38593,-1.40247 0.65067,-1.81359 0.85551,-3.33072c0.28883,-2.25791 -6.16819,1.50955 -5.90328,-2.03879c0.2649,-3.54835 5.84931,-0.3473 6.16004,-2.29769c-0.07012,-3.16744 -6.01468,1.17646 -6.08923,-2.58714c-0.07455,-3.7636 6.13472,-0.30589 6.2671,-2.14519c0.32685,-1.62496 -1.30164,-1.23804 -2.72877,-1.58961c-0.14879,-0.03665 -3.16311,0.37174 -3.58179,-1.27802c-0.45487,-1.79235 2.64124,-1.82943 2.64124,-1.82943c0,0 1.32403,0.43636 2.5278,0.43636c0.21252,0 -0.0848,-3.53214 0.19398,-3.53962c0.66314,-0.0178 3.80628,-0.03856 3.80628,-0.03856c0,0 -0.18757,3.4206 0.14623,3.4206c1.67442,0 3.08596,-0.18788 3.08596,-0.18788c0,0 1.99028,0.55078 2.08101,1.72942c0.04877,0.63349 -1.74755,0.83943 -3.31367,1.25331c-1.34776,0.35618 -2.62432,-0.02375 -2.67681,1.31947c-0.17387,2.73769 5.96267,-1.39665 6.04299,2.30954c0.08032,3.70619 -6.05846,0.1706 -6.00714,2.63556c-0.07791,2.14862 6.03656,-0.92075 5.98982,2.35658c-0.04674,3.27733 -6.05265,-0.2247 -5.98408,2.13849c0.00261,1.14462 0.15715,2.21057 0.40403,3.331c1.01399,4.60181 4.63105,-1.48961 5.92392,2.54351c1.29288,4.03312 -0.70747,2.79682 -3.77574,4.15776c-1.04358,0.46288 -3.37293,-2.8288 -4.2686,-2.66388c-1.77908,0.3276 -2.78784,2.77782 -3.61649,2.7832c-2.20942,0.01436 -4.37109,-0.79041 -3.35003,-4.06799c0,0 0.41346,-0.67088 1.73167,-1.0324c1.01898,-0.27945 2.92271,0.08482 3.43804,-1.78788z" data-paper-data="{&quot;index&quot;:null}" fill="#d6d6d6" stroke-width="1.5" stroke-linecap="butt"/><path d="M245.38294,149.71301l-2.59365,0.00786l0.06663,-1.71721l-0.46864,-0.0093l-0.02632,1.76361l-2.73045,-0.03914l0.00895,-1.74555l-0.41929,-0.00552l-0.08546,1.77484l-2.31368,-0.02477c0,0 -0.49067,-1.30803 -0.48567,-2.00018c-0.30269,-0.73094 -0.18858,-2.38204 -0.47933,-2.74743c-1.6384,-0.44413 -2.51365,-1.40593 -2.48967,-4.53094c0.04627,-6.02554 2.84378,-9.67044 7.35517,-9.6256c4.51138,0.04485 7.90299,3.91834 7.8567,9.9439c0,0 -0.17998,3.9146 -2.01941,4.17479c-0.55648,0.93123 -0.55337,1.66644 -0.80479,2.6641z" fill="#d6d6d6" stroke-width="1.5" stroke-linecap="butt"/><path d="M237.96467,140.23236c0,-1.10182 0.78503,-1.99499 1.75344,-1.99499c0.96841,0 1.75344,0.89318 1.75344,1.99499c0,1.10182 -0.78504,1.99499 -1.75344,1.99499c-0.96841,0 -1.75344,-0.89319 -1.75344,-1.99499z" fill="#1d1d1d" stroke-width="1" stroke-linecap="butt"/><path d="M243.20043,140.28424c0,-1.10182 0.78505,-1.99501 1.75347,-1.99501c0.96841,0 1.75347,0.89319 1.75347,1.99501c0,1.10182 -0.78505,1.99502 -1.75347,1.99502c-0.96841,0 -1.75347,-0.8932 -1.75347,-1.99502z" fill="#1d1d1d" stroke-width="1" stroke-linecap="butt"/><path d="M250.9825,190.4113c0,0 1.3722,1.13129 1.08699,2.03342c-0.47423,1.5 -1.06629,1.93113 -1.97275,1.79996c-0.90646,-0.13117 -0.81223,-2.20857 -0.96731,-2.22541c-0.16281,-0.01769 -1.67302,1.78442 -2.46334,1.57964c-0.79033,-0.20476 -1.24244,-1.62466 -0.38448,-2.78169c0.6632,-0.89437 1.71281,-0.82222 1.71281,-0.82222l2.27001,-10.21372c0,0 -0.93283,-1.11827 -1.20207,-1.9431c-0.22832,-0.69943 0.54618,-2.24517 1.53761,-2.25613c0.9914,-0.01098 1.45743,2.45189 1.49559,2.46232c0.05985,0.01636 0.52714,-1.59306 1.22651,-2.12331c0.63961,-0.48493 1.49854,-0.22568 1.64665,0.86447c0.21333,1.57017 -1.91935,3.54544 -1.91935,3.54544z" data-paper-data="{&quot;index&quot;:null}" fill="#d6d6d6" stroke-width="1.5" stroke-linecap="butt"/><path d="M226.53709,190.05891c0,0 1.06117,1.41539 0.60483,2.21798c-0.7588,1.33451 -1.40726,1.61036 -2.23602,1.26959c-0.82875,-0.34076 -0.30909,-2.32195 -0.45202,-2.37484c-0.15006,-0.05554 -1.94977,1.32545 -2.65358,0.94113c-0.70383,-0.38429 -0.83639,-1.86052 0.21367,-2.77357c0.8117,-0.70579 1.78786,-0.38808 1.78786,-0.38808l4.26113,-9.31369c0,0 -0.64899,-1.29894 -0.73224,-2.15809c-0.07059,-0.72851 0.98123,-2.03617 1.91969,-1.81241c0.93843,0.22375 0.86788,2.70915 0.90175,2.72823c0.05311,0.02992 0.82806,-1.41178 1.5984,-1.75784c0.70451,-0.31647 1.46182,0.13657 1.37567,1.22296c-0.12411,1.56471 -2.54749,2.96559 -2.54749,2.96559z" data-paper-data="{&quot;index&quot;:null}" fill="#d6d6d6" stroke-width="1.5" stroke-linecap="butt"/><g stroke-width="1"><path d="M219.94971,194.3531c0,0 -0.65804,-1.26954 -0.65804,-1.87107c0,-0.64307 1.80303,-1.49686 1.80303,-1.49686c0,0 1.89489,0.24948 3.13622,0.24948c1.34557,0 2.70323,-0.49895 2.70323,-0.49895c0,0 2.12152,0.94877 2.12152,1.6216c0,0.54936 -0.97653,1.99581 -0.97653,1.99581c0,0 -2.78393,0.49895 -4.1167,0.49895c-1.25825,0 -4.01273,-0.49895 -4.01273,-0.49895z" fill="#d6d6d6" stroke-linecap="butt"/><path d="M221.00646,194.60258l1.24738,-1.74634" fill="none" stroke-linecap="round"/><path d="M224.00018,192.85625v1.87107" fill="none" stroke-linecap="round"/><path d="M226.86916,194.60258l-0.74843,-1.6216" fill="none" stroke-linecap="round"/></g><g stroke-width="1"><path d="M245.18972,194.19702c0,0 -0.65804,-1.26953 -0.65804,-1.87107c0,-0.64307 1.80303,-1.49686 1.80303,-1.49686c0,0 1.89489,0.24948 3.13622,0.24948c1.34556,0 2.70322,-0.49895 2.70322,-0.49895c0,0 2.12152,0.94878 2.12152,1.6216c0,0.54936 -0.97653,1.99581 -0.97653,1.99581c0,0 -2.78392,0.49896 -4.11669,0.49896c-1.25825,0 -4.01273,-0.49896 -4.01273,-0.49896z" fill="#d6d6d6" stroke-linecap="butt"/><path d="M247.49386,192.70017l-1.24738,1.74633" fill="none" stroke-linecap="round"/><path d="M249.2402,194.57123v-1.87107" fill="none" stroke-linecap="round"/><path d="M252.10918,194.4465l-0.74843,-1.6216" fill="none" stroke-linecap="round"/></g><g stroke-width="1.5" stroke-linecap="butt"><g><path d="M261.60483,159.53424l0.00783,2.09539c0,0 -6.99303,0.12817 -7.01619,-0.39689c-0.0118,-0.26763 -0.58543,-0.41964 -0.70812,-0.79267c-0.1666,-0.50655 0.10698,-1.21058 0.10698,-1.21058z" fill="#101010"/><path d="M259.73567,161.58139c-0.0449,-7.72749 2.07561,-14.07788 4.73636,-14.18401c2.66073,-0.10614 4.85409,6.07221 4.89901,13.79969c0.0449,7.72749 -2.07563,14.07789 -4.73637,14.18402c-2.66073,0.10614 -4.85408,-6.07222 -4.89899,-13.79969z" fill="#101f36"/></g><path d="M263.28713,161.24945c0.07894,-5.05717 1.83694,-9.24965 3.92662,-9.36418c2.08967,-0.11452 6.71135,4.22467 6.63241,9.28184c-0.07894,5.05717 -4.82856,8.91726 -6.91825,9.03178c-2.08967,0.11452 -3.71971,-3.89227 -3.64077,-8.94944z" fill="#0f0f0f"/></g></g></g></svg>