<svg version="1.1" xmlns="http://www.w3.org/2000/svg" xmlns:xlink="http://www.w3.org/1999/xlink" width="488.50684" height="464.10462" viewBox="0,0,488.50684,464.10462"><g transform="translate(5.56321,7.24992)"><g data-paper-data="{&quot;isPaintingLayer&quot;:true}" fill-rule="nonzero" stroke-linejoin="miter" stroke-miterlimit="10" stroke-dasharray="" stroke-dashoffset="0" style="mix-blend-mode: normal"><path d="M403.4916,281.25635l78.2638,0.25l1.18824,169.04126l-77.13161,-0.58132z" data-paper-data="{&quot;index&quot;:null}" fill="#000000" stroke="none" stroke-width="0" stroke-linecap="butt"/><path d="M452.59341,-5.34377h27.00702l1.91823,242.58859l-27.78287,0.51853l-0.21884,-104.99809l-49.1557,-53.00036l48.873,0.0099z" fill="#000000" stroke="#000000" stroke-width="1" stroke-linecap="butt"/><path d="M361.61472,454.21103v-271.26576h43.54355v271.26577z" fill="#000000" stroke="#000000" stroke-width="1" stroke-linecap="butt"/><path d="M-3.25019,80.33716v-87.08708h457.95496v87.08709z" fill="#000000" stroke="#000000" stroke-width="1" stroke-linecap="butt"/><path d="M429.54118,228.76214v-8h28v8z" fill="#000000" stroke="none" stroke-width="0" stroke-linecap="butt"/><path d="M222.54117,451.54513v-247.78299h141v247.78299z" fill="#000000" stroke="#000000" stroke-width="1" stroke-linecap="butt"/><path d="M178.54117,456.3547v-273.59257h48v273.59257z" fill="#000000" stroke="#000000" stroke-width="1" stroke-linecap="butt"/><path d="M-4.45887,450.2692v-152.50707h187v152.50707z" fill="#000000" stroke="#000000" stroke-width="1" stroke-linecap="butt"/><path d="M136.54117,246.76214v-9.5h46v9.5z" fill="#000000" stroke="#000000" stroke-width="1" stroke-linecap="butt"/><path d="M-4.45887,211.76214v-132h125.39567l0.00902,6.92014l-71.90391,-0.15134l-1.06938,47.94086l73.00711,-0.49921l0.06149,77.78957z" fill="#000000" stroke="#000000" stroke-width="1" stroke-linecap="butt"/><path d="M159.93678,299.76214v-53h20v53z" fill="#000000" stroke="#000000" stroke-width="1" stroke-linecap="butt"/><path d="M-5.0632,241.76214v-29h57v29z" fill="#000000" stroke="#000000" stroke-width="1" stroke-linecap="butt"/><path d="M120.48137,87.92226h-71.33333l-0.00001,47.99061h71" fill="none" stroke="#000000" stroke-width="5" stroke-linecap="round"/></g></g></svg>