<svg version="1.1" xmlns="http://www.w3.org/2000/svg" xmlns:xlink="http://www.w3.org/1999/xlink" width="62.27117" height="85.79996" viewBox="0,0,62.27117,85.79996"><defs><linearGradient x1="244.51985" y1="152.00202" x2="242.60727" y2="153.59129" gradientUnits="userSpaceOnUse" id="color-1"><stop offset="0" stop-color="#333333"/><stop offset="1" stop-color="#515151"/></linearGradient><linearGradient x1="215.02416" y1="127.80694" x2="216.61453" y2="110.58019" gradientUnits="userSpaceOnUse" id="color-2"><stop offset="0" stop-color="#0e0e0e"/><stop offset="1" stop-color="#141414"/></linearGradient><linearGradient x1="215.47961" y1="123.52036" x2="216.26428" y2="115.02077" gradientUnits="userSpaceOnUse" id="color-3"><stop offset="0" stop-color="#3e3e3e"/><stop offset="1" stop-color="#2d2d2d"/></linearGradient><linearGradient x1="201.99289" y1="188.72249" x2="199.02305" y2="191.69233" gradientUnits="userSpaceOnUse" id="color-4"><stop offset="0" stop-color="#333333"/><stop offset="1" stop-color="#515151"/></linearGradient><linearGradient x1="253.43353" y1="168.30419" x2="226.36211" y2="168.30419" gradientUnits="userSpaceOnUse" id="color-5"><stop offset="0" stop-color="#252525"/><stop offset="1" stop-color="#151515"/></linearGradient><linearGradient x1="236.22539" y1="158.31519" x2="249.22629" y2="158.31519" gradientUnits="userSpaceOnUse" id="color-6"><stop offset="0" stop-color="#002864"/><stop offset="1" stop-color="#004c7d"/></linearGradient><linearGradient x1="258.42629" y1="170.95129" x2="263.42629" y2="170.95129" gradientUnits="userSpaceOnUse" id="color-7"><stop offset="0" stop-color="#002864"/><stop offset="1" stop-color="#004c7d"/></linearGradient><linearGradient x1="235.55225" y1="172.77409" x2="246.54292" y2="172.77409" gradientUnits="userSpaceOnUse" id="color-8"><stop offset="0" stop-color="#002864"/><stop offset="1" stop-color="#004c7d"/></linearGradient></defs><g transform="translate(-206.20598,-109.543)"><g data-paper-data="{&quot;isPaintingLayer&quot;:true}" fill-rule="nonzero" stroke="#000000" stroke-linecap="butt" stroke-linejoin="miter" stroke-miterlimit="10" stroke-dasharray="" stroke-dashoffset="0" style="mix-blend-mode: normal"><g data-paper-data="{&quot;index&quot;:null}"><path d="M219.4481,126.16368l2.56522,-2.1316l41.69246,50.61613l2.81175,5.93045l-5.28498,-3.90948z" fill="url(#color-1)" stroke-width="1.5"/><path d="M207.20598,118.39838c0.43917,-4.75702 4.65154,-8.25737 9.40856,-7.81818c4.75702,0.43917 8.25737,4.65154 7.81818,9.40856c-0.43917,4.75702 -4.65154,8.25737 -9.40856,7.81818c-4.75702,-0.43917 -8.25737,-4.65154 -7.81818,-9.40856z" fill="url(#color-2)" stroke-width="2"/><path d="M212.0145,114.62846l8.49955,0.78467l-0.78467,8.49955l-8.49955,-0.78467z" fill="url(#color-3)" stroke-width="1.5"/></g><path d="" fill="url(#color-4)" stroke-width="1.5"/><path d="M233.03587,193.84296c-3.24492,0 -5.87545,-2.70173 -5.87545,-6.03448c0,-3.33275 2.63053,-6.03448 5.87545,-6.03448c3.24492,0 5.87545,2.70173 5.87545,6.03448c0,3.33275 -2.63053,6.03448 -5.87545,6.03448z" data-paper-data="{&quot;index&quot;:null}" fill="#373737" stroke-width="3"/><path d="M246.81278,193.84296c-3.24492,0 -5.87545,-2.70173 -5.87545,-6.03448c0,-3.33275 2.63053,-6.03448 5.87545,-6.03448c3.24492,0 5.87545,2.70173 5.87545,6.03448c0,3.33275 -2.63053,6.03448 -5.87545,6.03448z" data-paper-data="{&quot;index&quot;:null}" fill="#373737" stroke-width="3"/><path d="M253.43353,187.27962c0,0 -2.86479,0 -5.19247,0c-1.44268,0 -4.00883,0 -6.88845,0c-3.43372,0 -7.31319,0 -10.26515,0c-2.77145,0 -4.72536,0 -4.72536,0c0,0 0,-27.68012 0,-33.60553c0,-2.13071 1.8938,-4.34533 3.87437,-4.34533c5.50644,0 15.72141,0 18.8,0c1.47693,0 4.19706,2.09852 4.19706,4.14533c0,5.8451 0.2,33.80552 0.2,33.80552z" data-paper-data="{&quot;index&quot;:null}" fill="url(#color-5)" stroke-width="3"/><path d="M237.0465,161.89852c0,0 -0.82111,-2.49469 -0.82111,-3.79412c0,-1.02239 0.82111,-3.37255 0.82111,-3.37255h11.35868c0,0 0.82111,2.2839 0.82111,3.58333c0,1.02238 -0.82111,3.58333 -0.82111,3.58333z" data-paper-data="{&quot;index&quot;:null}" fill="url(#color-6)" stroke-width="2"/><path d="M258.42629,193.68462v-45.46667h5v45.46667z" data-paper-data="{&quot;index&quot;:null}" fill="url(#color-7)" stroke-width="2"/><path d="M239.63647,175.67409v-5.6h18.8v5.6z" data-paper-data="{&quot;index&quot;:null}" fill="#5a5a5a" stroke-width="2"/><path d="M241.04758,180.26942l-5.49533,-7.49533l5.49533,-7.49534l5.49534,7.49534z" data-paper-data="{&quot;index&quot;:null}" fill="url(#color-8)" stroke-width="2"/></g></g></svg>