<svg version="1.1" xmlns="http://www.w3.org/2000/svg" xmlns:xlink="http://www.w3.org/1999/xlink" width="13.33066" height="9.60018" viewBox="0,0,13.33066,9.60018"><defs><linearGradient x1="263.93551" y1="175.33306" x2="263.93551" y2="178.75193" gradientUnits="userSpaceOnUse" id="color-1"><stop offset="0" stop-color="#a10000"/><stop offset="1" stop-color="#690000"/></linearGradient><radialGradient cx="266.69336" cy="177.16918" r="4.75941" gradientUnits="userSpaceOnUse" id="color-2"><stop offset="0" stop-color="#a10000"/><stop offset="1" stop-color="#a10000" stop-opacity="0"/></radialGradient><radialGradient cx="262.88152" cy="177.0878" r="4.75941" gradientUnits="userSpaceOnUse" id="color-3"><stop offset="0" stop-color="#a10000"/><stop offset="1" stop-color="#a10000" stop-opacity="0"/></radialGradient></defs><g transform="translate(-258.12212,-172.3284)"><g data-paper-data="{&quot;isPaintingLayer&quot;:true}" fill-rule="nonzero" stroke-linecap="butt" stroke-linejoin="miter" stroke-miterlimit="10" stroke-dasharray="" stroke-dashoffset="0" style="mix-blend-mode: normal"><path d="M260.64882,177.03287c0,-0.54087 0.29891,-1.6998 0.29891,-1.6998c0,0 3.66531,-0.39806 5.97556,0c2.31025,0.39806 3.50376,1.63331 3.50376,1.63331c0,0 -2.04381,1.51056 -3.50376,1.78554c-1.45994,0.275 -5.97556,0 -5.97556,0c0,0 -0.29891,-1.12527 -0.29891,-1.71907z" fill="url(#color-1)" stroke="#000000" stroke-width="0.75"/><path d="M261.93396,177.16918c0,-2.62855 2.13085,-4.7594 4.75941,-4.7594c2.62855,0 4.75941,2.13085 4.75941,4.7594c0,2.62855 -2.13085,4.75941 -4.75941,4.75941c-2.62855,0 -4.75941,-2.13085 -4.75941,-4.75941z" fill="url(#color-2)" stroke="none" stroke-width="0"/><path d="M258.12212,177.0878c0,-2.62855 2.13085,-4.7594 4.75941,-4.7594c2.62855,0 4.75941,2.13085 4.75941,4.7594c0,2.62855 -2.13085,4.75941 -4.75941,4.75941c-2.62855,0 -4.75941,-2.13085 -4.75941,-4.75941z" fill="url(#color-3)" stroke="none" stroke-width="0"/></g></g></svg>