<svg version="1.1" xmlns="http://www.w3.org/2000/svg" xmlns:xlink="http://www.w3.org/1999/xlink" width="170.74256" height="146.19998" viewBox="0,0,170.74256,146.19998"><defs><radialGradient cx="322.65121" cy="124.63805" r="6.9241" gradientUnits="userSpaceOnUse" id="color-1"><stop offset="0" stop-color="#1048db"/><stop offset="1" stop-color="#1048db" stop-opacity="0"/></radialGradient><radialGradient cx="221.63795" cy="98.11747" r="15.46014" gradientUnits="userSpaceOnUse" id="color-2"><stop offset="0" stop-color="#1048db"/><stop offset="1" stop-color="#1048db" stop-opacity="0"/></radialGradient><radialGradient cx="222.18661" cy="98.60864" r="4.8173" gradientUnits="userSpaceOnUse" id="color-3"><stop offset="0" stop-color="#0011c4"/><stop offset="1" stop-color="#0011c4" stop-opacity="0"/></radialGradient><radialGradient cx="222.18661" cy="98.60863" r="5.86436" gradientUnits="userSpaceOnUse" id="color-4"><stop offset="0" stop-color="#0011c4"/><stop offset="1" stop-color="#0011c4" stop-opacity="0"/></radialGradient><radialGradient cx="222.18661" cy="98.60863" r="5.50683" gradientUnits="userSpaceOnUse" id="color-5"><stop offset="0" stop-color="#0011c4"/><stop offset="1" stop-color="#0011c4" stop-opacity="0"/></radialGradient><radialGradient cx="222.18578" cy="98.61376" r="6.30137" gradientUnits="userSpaceOnUse" id="color-6"><stop offset="0" stop-color="#0011c4"/><stop offset="1" stop-color="#0011c4" stop-opacity="0"/></radialGradient><radialGradient cx="222.18661" cy="98.60864" r="4.48145" gradientUnits="userSpaceOnUse" id="color-7"><stop offset="0" stop-color="#0011c4"/><stop offset="1" stop-color="#0011c4" stop-opacity="0"/></radialGradient><radialGradient cx="222.18661" cy="98.60863" r="5.91434" gradientUnits="userSpaceOnUse" id="color-8"><stop offset="0" stop-color="#0011c4"/><stop offset="1" stop-color="#0011c4" stop-opacity="0"/></radialGradient><radialGradient cx="222.27592" cy="98.62302" r="6.32768" gradientUnits="userSpaceOnUse" id="color-9"><stop offset="0" stop-color="#0011c4"/><stop offset="1" stop-color="#0011c4" stop-opacity="0"/></radialGradient><radialGradient cx="222.18661" cy="98.60864" r="4.61224" gradientUnits="userSpaceOnUse" id="color-10"><stop offset="0" stop-color="#0011c4"/><stop offset="1" stop-color="#0011c4" stop-opacity="0"/></radialGradient><radialGradient cx="222.18661" cy="98.60863" r="5.98829" gradientUnits="userSpaceOnUse" id="color-11"><stop offset="0" stop-color="#0011c4"/><stop offset="1" stop-color="#0011c4" stop-opacity="0"/></radialGradient><radialGradient cx="222.18661" cy="98.60865" r="5.33129" gradientUnits="userSpaceOnUse" id="color-12"><stop offset="0" stop-color="#0011c4"/><stop offset="1" stop-color="#0011c4" stop-opacity="0"/></radialGradient><radialGradient cx="222.18661" cy="98.60863" r="5.43517" gradientUnits="userSpaceOnUse" id="color-13"><stop offset="0" stop-color="#0011c4"/><stop offset="1" stop-color="#0011c4" stop-opacity="0"/></radialGradient><radialGradient cx="222.18662" cy="98.60864" r="5.90292" gradientUnits="userSpaceOnUse" id="color-14"><stop offset="0" stop-color="#0011c4"/><stop offset="1" stop-color="#0011c4" stop-opacity="0"/></radialGradient><radialGradient cx="222.47719" cy="98.54475" r="6.55728" gradientUnits="userSpaceOnUse" id="color-15"><stop offset="0" stop-color="#0011c4"/><stop offset="1" stop-color="#0011c4" stop-opacity="0"/></radialGradient><radialGradient cx="220.03447" cy="100.36297" r="4.10178" gradientUnits="userSpaceOnUse" id="color-16"><stop offset="0" stop-color="#0011c4"/><stop offset="1" stop-color="#0011c4" stop-opacity="0"/></radialGradient><radialGradient cx="220.95569" cy="95.94623" r="4.10178" gradientUnits="userSpaceOnUse" id="color-17"><stop offset="0" stop-color="#0011c4"/><stop offset="1" stop-color="#0011c4" stop-opacity="0"/></radialGradient><radialGradient cx="223.97782" cy="100.90815" r="4.10178" gradientUnits="userSpaceOnUse" id="color-18"><stop offset="0" stop-color="#0011c4"/><stop offset="1" stop-color="#0011c4" stop-opacity="0"/></radialGradient><radialGradient cx="219.1512" cy="97.79773" r="4.10179" gradientUnits="userSpaceOnUse" id="color-19"><stop offset="0" stop-color="#0011c4"/><stop offset="1" stop-color="#0011c4" stop-opacity="0"/></radialGradient><radialGradient cx="222.13414" cy="101.2161" r="4.10179" gradientUnits="userSpaceOnUse" id="color-20"><stop offset="0" stop-color="#0011c4"/><stop offset="1" stop-color="#0011c4" stop-opacity="0"/></radialGradient><radialGradient cx="225.02489" cy="98.86245" r="4.10179" gradientUnits="userSpaceOnUse" id="color-21"><stop offset="0" stop-color="#0011c4"/><stop offset="1" stop-color="#0011c4" stop-opacity="0"/></radialGradient><radialGradient cx="219.76576" cy="94.79985" r="2.65081" gradientUnits="userSpaceOnUse" id="color-22"><stop offset="0" stop-color="#0011c4"/><stop offset="1" stop-color="#0011c4" stop-opacity="0"/></radialGradient><radialGradient cx="218.25744" cy="97.73367" r="2.65081" gradientUnits="userSpaceOnUse" id="color-23"><stop offset="0" stop-color="#0011c4"/><stop offset="1" stop-color="#0011c4" stop-opacity="0"/></radialGradient><radialGradient cx="225.16209" cy="101.70985" r="2.65081" gradientUnits="userSpaceOnUse" id="color-24"><stop offset="0" stop-color="#0011c4"/><stop offset="1" stop-color="#0011c4" stop-opacity="0"/></radialGradient><radialGradient cx="218.80555" cy="100.88594" r="2.6508" gradientUnits="userSpaceOnUse" id="color-25"><stop offset="0" stop-color="#0011c4"/><stop offset="1" stop-color="#0011c4" stop-opacity="0"/></radialGradient><radialGradient cx="221.28913" cy="102.70782" r="2.65081" gradientUnits="userSpaceOnUse" id="color-26"><stop offset="0" stop-color="#0011c4"/><stop offset="1" stop-color="#0011c4" stop-opacity="0"/></radialGradient><radialGradient cx="225.98731" cy="96.06648" r="2.6508" gradientUnits="userSpaceOnUse" id="color-27"><stop offset="0" stop-color="#0011c4"/><stop offset="1" stop-color="#0011c4" stop-opacity="0"/></radialGradient><radialGradient cx="223.02022" cy="95.83303" r="4.10178" gradientUnits="userSpaceOnUse" id="color-28"><stop offset="0" stop-color="#0011c4"/><stop offset="1" stop-color="#0011c4" stop-opacity="0"/></radialGradient><radialGradient cx="226.4291" cy="99.20832" r="2.65081" gradientUnits="userSpaceOnUse" id="color-29"><stop offset="0" stop-color="#0011c4"/><stop offset="1" stop-color="#0011c4" stop-opacity="0"/></radialGradient><radialGradient cx="223.1506" cy="94.64235" r="2.65081" gradientUnits="userSpaceOnUse" id="color-30"><stop offset="0" stop-color="#0011c4"/><stop offset="1" stop-color="#0011c4" stop-opacity="0"/></radialGradient><radialGradient cx="224.74788" cy="96.94978" r="4.10178" gradientUnits="userSpaceOnUse" id="color-31"><stop offset="0" stop-color="#0011c4"/><stop offset="1" stop-color="#0011c4" stop-opacity="0"/></radialGradient></defs><g transform="translate(-171.72603,-82.62847)"><g data-paper-data="{&quot;isPaintingLayer&quot;:true}" fill-rule="nonzero" stroke-linejoin="miter" stroke-miterlimit="10" stroke-dasharray="" stroke-dashoffset="0" style="mix-blend-mode: normal"><path d="" fill="none" stroke="#000000" stroke-width="2" stroke-linecap="round"/><path d="M216.02799,159.62742c0,0 -1.68609,-4.40435 -1.48174,-7.1431c0.13789,-1.84809 -0.18576,-4.76308 2.89374,-6.20987c1.92104,-0.90253 4.30731,-2.55714 4.30731,-2.55714c0,0 27.2152,-0.59273 34.36137,0.20466c3.19499,0.3565 4.60184,2.10718 4.60184,2.10718c0,0 2.90773,5.69544 3.1628,8.10314c0.27044,2.55291 -1.92284,6.81771 -1.92284,6.81771z" fill="#090909" stroke="#000000" stroke-width="2" stroke-linecap="butt"/><path d="M234.38889,200.31964c0,0 6.34264,-8.79129 7.7294,-15.29832c0.94057,-4.41351 0.98708,-9.08859 1.40497,-16.24231c0.42582,-7.28956 1.21408,-17.0176 1.21408,-17.0176c0,0 2.8988,5.65777 4.75132,6.53046c2.85177,1.3434 10.81242,3.80582 10.81242,3.80582c0,0 -4.00737,17.63057 -4.13421,23.90238c-0.1625,8.03609 3.23937,20.34676 3.23937,20.34676c0,0 -5.99167,-4.95427 -8.63477,-5.21891c-2.32726,-0.23302 -6.39718,3.71382 -6.39718,3.71382c0,0 -3.37371,7.29679 -7.32678,9.99657c-5.10647,3.4875 -11.30355,2.52888 -13.737,1.92258c-12.16407,-3.03064 -9.40474,-25.74564 -11.72768,-26.30527c-1.17254,-0.2825 8.85765,7.25943 15.26658,8.90022c6.43564,1.64765 7.53951,0.9638 7.53951,0.9638z" fill="#090909" stroke="#000000" stroke-width="2" stroke-linecap="butt"/><path d="M208.4237,226.61364c0,0 -12.65632,-4.3558 -16.71013,-8.33508c-4.53082,-4.44752 -9.20329,-17.10193 -9.20329,-17.10193c0,0 6.98821,0.77735 11.74302,3.3507c5.23098,2.83105 8.53202,7.47213 14.7657,7.21569c6.2099,-0.25546 17.38737,-15.57073 17.81125,-17.20684c1.00055,-3.86205 1.52257,-42.25943 2.73207,-45.80948c1.90855,-5.60187 24.30923,-5.31806 27.29108,-1.14793c2.50398,3.50179 -7.24255,27.35595 -8.36279,37.12308c-1.55757,13.58004 0.60476,26.60457 -2.11135,29.7697c-0.52651,0.61356 -2.69544,10.26799 -7.59214,11.08887c-3.61178,0.60547 -8.50453,1.90309 -12.34639,2.26803c-9.40348,0.89321 -18.01704,-1.21481 -18.01704,-1.21481z" fill="#333333" stroke="#000000" stroke-width="2" stroke-linecap="butt"/><path d="M253.07512,139.40876c-0.10286,2.39708 2.06873,7.00291 0.83728,8.23079c-1.43524,1.43111 -5.15829,1.79284 -8.07743,2.46812c-3.80532,0.88028 -7.0729,1.85863 -10.57088,2.00156c-8.94934,0.36568 -9.95051,-5.03709 -10.29792,-14.52715c-0.09991,-2.72897 1.27224,-12.90826 1.48414,-13.50823c2.96615,-8.39902 9.26797,-14.9428 15.21875,-15.18596c8.0632,-0.32947 13.61519,9.11776 13.85777,18.02472c0.02665,0.97887 -2.43087,12.01145 -2.45166,12.49616z" fill="#0e0e0e" stroke="#000000" stroke-width="2" stroke-linecap="butt"/><path d="M222.40647,155.7147c0,0 -3.31479,-3.72297 -2.29035,-5.34513c1.18489,-1.87622 3.32505,-2.38895 6.173,-2.51034c2.84795,-0.1214 6.26797,1.90302 14.17788,1.64283c5.55798,-0.18283 10.18602,-0.67016 12.601,-1.52125c0.15899,-0.05603 3.49205,0.50576 4.30141,1.67783c0.99856,1.44609 -0.51961,5.9687 -0.51961,5.9687c0,0 -5.52503,1.91355 -11.70865,3.02909c-3.19338,0.57611 -7.59098,1.85604 -10.14139,1.81351c-6.79309,-0.11332 -12.59327,-4.75521 -12.59327,-4.75521z" fill="#091f57" stroke="#000000" stroke-width="2" stroke-linecap="butt"/><path d="M207.77584,225.86612c0,0 -12.36698,-4.35097 -16.32727,-8.32873c-1.61776,-1.62491 -7.10158,-8.76038 -4.77054,-8.39963c4.04683,0.62627 18.29725,10.14023 21.24507,11.77189c5.11105,2.82907 4.98208,-1.44738 11.07401,-1.70623c6.06869,-0.25786 13.56378,-0.4594 13.97853,-2.09571c0.09811,-0.38708 6.56338,-4.6264 6.83504,-5.78312c1.56226,-6.65195 1.01386,-38.93844 4.26955,-47.6574c1.82731,-4.89364 7.6158,-1.73751 7.6158,-1.73751c0,0 -2.99107,13.78811 -4.08895,23.5558c-1.52647,13.58084 -0.08003,25.05746 -2.73536,28.22369c-0.51475,0.61378 -2.63743,10.26918 -7.42297,11.09196c-3.5298,0.60686 -8.31163,1.9064 -12.0662,2.27283c-9.18982,0.89686 -17.60672,-1.20784 -17.60672,-1.20784z" fill="#091f57" stroke="#000000" stroke-width="2" stroke-linecap="butt"/><path d="M212.24583,205.97626c0,0 4.91303,-8.31988 5.986,-14.47906c0.72776,-4.17757 0.76257,-8.60305 1.08453,-15.37472c0.32808,-6.90025 0.93639,-16.10868 0.93639,-16.10868c0,0 2.24796,5.35666 3.68382,6.18336c2.21038,1.27261 11.63433,0.74506 11.63433,0.74506c0,0 -6.35498,19.54912 -6.45162,25.48604c-0.12383,7.60701 2.51577,19.26155 2.51577,19.26155c0,0 -4.64467,-4.69172 -6.69304,-4.94309c-1.80362,-0.22133 -4.95664,3.51347 -4.95664,3.51347c0,0 -2.61258,6.90614 -5.67538,9.46049c-3.95643,3.29966 -9.72309,-1.43169 -11.60908,-2.00641c-9.42756,-2.87279 -6.33133,-20.55232 -8.13167,-21.08283c-0.90876,-0.26779 6.86633,6.87475 11.83347,8.43004c4.98786,1.56177 5.84313,0.9148 5.84313,0.9148z" fill="#090909" stroke="#000000" stroke-width="2" stroke-linecap="butt"/><path d="M215.95697,163.89081c0,0 0.42664,-4.74779 1.41544,-6.63073c1.14368,-2.17783 3.41245,-4.03973 3.41245,-4.03973c0,0 5.45036,0.67815 10.15367,2.35886c3.33864,1.19305 7.12147,1.94716 10.32724,1.84602c3.94306,-0.1244 11.2843,0.10894 14.53287,-1.76341c2.2563,-1.30043 1.18959,5.53115 1.18959,5.53115c0,0 -14.64719,5.90232 -21.96084,5.70023c-2.27023,-0.06273 -4.62534,-2.36568 -7.47674,-1.57845c-1.88156,0.51948 -4.28165,4.36165 -5.93936,4.04152c-3.17112,-0.61239 -5.65427,-5.46545 -5.65427,-5.46545z" fill="#1a1a1a" stroke="#000000" stroke-width="2" stroke-linecap="butt"/><path d="M250.89381,142.20602c0,0 -1.62166,2.27531 -2.25635,2.35778c-0.85537,0.11116 -4.6588,-0.28885 -5.53493,-0.18858c-0.74149,0.08483 -3.45983,-0.68988 -3.45983,-0.68988c0,0 -1.21425,0.92462 -1.79735,0.99323c-0.7594,0.08936 -2.3715,-0.50268 -2.3715,-0.50268c0,0 -0.98083,-1.98291 -1.02323,-3.09279c-0.59943,-1.10151 -0.51651,-3.77259 -1.06728,-4.29125c-2.98379,-0.33594 -4.63155,-1.67607 -4.82035,-6.68753c-0.14167,-3.76006 1.7323,-6.9728 3.04034,-9.63138c2.05352,-4.17366 4.52632,-6.88582 9.49179,-7.47355c3.55177,-0.42039 5.51406,3.33633 8.04557,5.17621c3.26199,2.3708 6.63788,3.51169 6.84283,8.95231c0,0 -0.0335,6.31204 -3.32702,7.15038c-0.9331,1.61928 -0.87291,2.79628 -1.25165,4.45208z" fill="#333333" stroke="#000000" stroke-width="2" stroke-linecap="butt"/><path d="M228.11222,127.86075c0,0 -0.23015,-4.07173 0.87741,-4.77733c1.58612,-1.01044 4.96249,-4.82605 7.42006,-5.76885c4.32538,-1.65936 7.5904,-0.17658 6.01072,-0.00957c-1.14096,0.12063 1.74465,12.52262 0.18583,14.29336c-1.31948,1.49886 -0.81544,3.84895 -0.99657,5.23566c-0.17763,1.35997 1.0708,6.057 0.03893,7.67037c-0.31353,0.4902 -4.18597,0.9965 -5.44504,0.00339c-0.86201,-0.67991 -1.92067,-1.58526 -2.37018,-2.79074c-0.56516,-1.51553 -0.80082,-3.64214 -1.18817,-3.52524c-1.46463,0.44205 -1.89495,-2.38201 -2.82715,-2.90191c-1.09581,-0.61115 -1.17224,-7.43723 -1.17224,-7.43723z" fill="#141414" stroke="#000000" stroke-width="2" stroke-linecap="butt"/><path d="M233.92006,125.64373c-0.191,-2.19217 1.31807,-4.11505 3.37059,-4.29492c2.05254,-0.17986 3.87125,1.45143 4.06226,3.64359c0.191,2.19217 -1.31805,4.11505 -3.37059,4.29491c-2.05254,0.17986 -3.87126,-1.45144 -4.06226,-3.64358z" fill="#1048db" stroke="#000000" stroke-width="2" stroke-linecap="butt"/><path d="M245.73106,126.84404c-0.13163,-1.74039 0.90837,-3.267 2.3229,-3.4098c1.41454,-0.14279 2.66795,1.1523 2.79959,2.89269c0.13163,1.74038 -0.90837,3.26698 -2.3229,3.40978c-1.41454,0.14279 -2.66795,-1.15229 -2.79958,-2.89267z" fill="#101010" stroke="#000000" stroke-width="2" stroke-linecap="butt"/><path d="M228.53946,121.19826c0,0 5.8564,-5.07378 8.2509,-6.25308c2.36499,-1.16476 6.02873,-0.77969 6.02873,-0.77969" fill="none" stroke="#000000" stroke-width="2" stroke-linecap="round"/><path d="M227.44523,127.94689c0.20485,-0.84507 0.42415,-8.59471 1.45503,-10.36107c1.46686,-2.51341 3.48821,-4.44155 3.48821,-4.44155c0,0 5.17407,-4.19987 9.1268,-3.83255c3.95274,0.36729 8.80005,4.11411 8.80005,4.11411c0,0 2.14187,1.36397 3.70281,3.86907c0.60749,0.97494 1.15033,3.52239 1.40977,4.13572c0.81863,1.93522 -0.33776,6.53119 -0.33776,6.53119c0,0 -3.14959,-4.29294 -6.03035,-7.62171c-2.73787,-3.16367 -3.53323,-1.08535 -6.50577,-1.42348c-2.97253,-0.33813 -5.38972,0.75294 -8.32615,2.36292c-2.20285,1.2078 -4.27809,2.6108 -5.62248,3.84852c-0.99763,0.91845 -1.60826,-0.62693 -1.4885,-1.12104z" fill="#0b0b0b" stroke="#000000" stroke-width="2" stroke-linecap="butt"/><path d="M241.25935,176.72393l5.69132,-1.67699" fill="none" stroke="#000000" stroke-width="2" stroke-linecap="round"/><path d="M247.96265,181.30208l-6.15832,2.56577" fill="none" stroke="#000000" stroke-width="2" stroke-linecap="round"/><path d="M247.47426,189.02863l-6.16919,2.27614" fill="none" stroke="#000000" stroke-width="2" stroke-linecap="round"/><path d="M246.74693,196.30911l-4.931,1.93676" fill="none" stroke="#000000" stroke-width="2" stroke-linecap="round"/><path d="M247.21392,202.5718l-6.90775,2.59561" fill="none" stroke="#000000" stroke-width="2" stroke-linecap="round"/><path d="M188.07933,208.93566l7.09722,12.76118c0,0 -9.06623,-3.89162 -13.33038,-9.33525c-5.30392,-6.771 -8.33128,-17.7078 -9.12014,-19.65582c-0.73427,-1.81325 -0.09158,-6.89095 1.07369,-8.03062c2.93883,-2.87429 9.84089,0.61532 11.06561,7.2117c0.55551,2.99196 2.32189,2.32279 4.29048,3.22747c2.73872,1.25859 5.7874,3.39584 5.7874,3.39584c0,0 6.14655,4.43114 4.30155,4.52296c-1.05041,0.05228 -2.70648,0.42452 -3.52522,1.55028c-0.71321,0.98067 -0.66266,2.7379 -0.66266,2.7379c0,0 -4.55114,-3.4964 -6.03293,-3.51181c-1.03567,-0.01077 -0.94463,5.12616 -0.94463,5.12616z" fill="#101010" stroke="#000000" stroke-width="2" stroke-linecap="butt"/><path d="M175.76781,179.64155c-0.23424,-9.2392 27.6254,-13.47498 27.6254,-13.47498c0,0 -19.60076,19.51461 -16.89648,26.6609c1.23721,3.26942 -4.95002,3.36495 -8.38522,-0.84969c-0.92215,-1.13139 -3.08173,-2.90402 -3.41181,-4.67686c-0.5277,-2.83419 1.11385,-5.85496 1.06811,-7.65937z" fill="#091f57" stroke="#000000" stroke-width="2" stroke-linecap="butt"/><path d="M196.75417,173.39851c0,0 -12.21995,11.24771 -9.51567,18.39399c1.23721,3.26942 -5.83708,4.63072 -9.27228,0.41608c-2.39637,-2.94009 2.88319,-12.66781 9.96356,-14.87863z" fill="#090d19" stroke="#000000" stroke-width="2" stroke-linecap="butt"/><path d="M215.44974,177.69737c0,0 1.07591,-13.22693 1.06507,-17.42277c-0.00799,-3.09495 -1.12422,-5.47028 -1.12422,-5.47028l4.30399,-0.86758c0,0 5.53156,8.72497 5.66349,12.23788c0.15817,4.21173 -2.7542,11.93394 -2.7542,11.93394z" fill="#090909" stroke="#000000" stroke-width="0" stroke-linecap="butt"/><path d="M220.79862,153.82563c0,0 3.51612,5.20275 4.45718,7.78761c0.91814,2.52193 0.99157,4.06188 0.99157,4.06188" fill="none" stroke="#000000" stroke-width="2" stroke-linecap="round"/><path d="M231.17893,177.42186c0,0 -13.30854,10.7041 -17.96081,13.63227c-0.26151,0.1646 -1.71017,-1.23687 -1.88894,-2.41969c-0.26109,-1.72749 0.77023,-3.55513 0.46007,-4.03836c-0.88624,-1.3808 13.29833,-12.73281 13.29833,-12.73281c0,0 2.94322,-2.79206 4.90952,-1.96353c1.28576,0.54176 2.28273,2.82388 4.10942,2.41283c2.16082,-0.48624 12.43229,-3.23635 14.83199,-4.00791c7.20659,-2.31707 6.62074,-3.26289 8.072,-3.3207c0.06931,-0.00276 -0.54605,-7.49608 0.41648,-12.47824c0.57196,-2.96051 1.16228,-4.74001 1.53605,-4.73707c0.43023,0.0034 4.23065,4.49661 4.93065,7.98075c0.39159,1.94899 -0.60228,3.29094 -0.46995,4.38304c0.34015,2.80729 -1.85106,5.41689 -1.9977,5.83768c-0.70069,2.01059 -6.73862,6.26117 -6.73862,6.26117c0,0 -5.15083,2.17323 -8.47191,2.90651c-4.27275,0.9434 -15.03658,2.28403 -15.03658,2.28403z" fill="#180f05" stroke="#000000" stroke-width="2" stroke-linecap="butt"/><path d="M231.5312,172.38011c0,0 -16.9202,12.54825 -18.84928,13.38605c-4.59466,1.99544 0.67085,-5.42516 0.16601,-6.23997c-0.85626,-1.38199 12.80329,-12.7131 12.80329,-12.7131c0,0 2.83369,-2.78769 4.73046,-1.9564c1.24029,0.54358 2.20451,2.827 3.965,2.41859c2.08253,-0.48313 11.98119,-3.21838 14.29363,-3.98647c6.9445,-2.30664 6.37843,-3.25324 7.77746,-3.30897c0.06682,-0.00266 -0.53654,-7.49647 0.38468,-12.47698c0.54742,-2.95953 1.11414,-4.73809 1.47447,-4.7346c0.41477,0.00402 4.08469,4.50242 4.76424,7.98737c0.38013,1.94945 -0.57619,3.28991 -0.44715,4.38214c0.33172,2.80762 -1.77724,5.41395 -1.91804,5.8345c-0.67279,2.00949 -6.48803,6.25119 -6.48803,6.25119c0,0 -4.96281,2.16574 -8.16356,2.89423c-4.11794,0.93723 -14.49319,2.26239 -14.49319,2.26239z" fill="#180f05" stroke="#000000" stroke-width="2" stroke-linecap="butt"/><g stroke="#000000" stroke-linecap="butt"><path d="M277.29233,168.90748c0,0 -3.26373,-28.59398 -3.14381,-36.50852c0.06289,-4.15078 3.81048,-7.49148 3.81048,-7.49148h5.66666c0,0 3.66667,11.93481 3.66667,16c0,5.42555 -3.66667,13.66666 -3.66667,13.66666z" fill="#091f57" stroke-width="2.5"/><path d="M263.12464,109.81356c0.15674,-1.84681 2.79736,-6.8741 3.01226,-8.16084c0.36371,-2.1778 6.28546,-10.31376 6.28546,-10.31376c0,0 6.18251,3.925 10.86467,4.88576c4.68216,0.96076 18.15891,1.06975 18.15891,1.06975l8.04023,9.66103l19.33619,8.15681c0,0 2.10458,9.88781 3.30142,15.73836c0.55962,2.73558 5.23192,21.02163 5.23192,21.02163c0,0 -19.88827,-31.72485 -39.95345,-42.41996c-10.40085,-5.54385 -26.2659,-2.9476 -28.19618,-2.75538c-2.74518,0.27339 -6.28066,5.46422 -6.08142,3.11661z" fill="#0b0b0b" stroke-width="2.5"/><path d="M263.58902,121.33896c-0.78627,-1.21398 -1.83028,-3.77237 -1.63104,-5.97778c0.15674,-1.73494 1.46402,-3.12438 1.67892,-4.33318c0.18012,-1.0132 3.5829,-4.52005 7.64371,-6.44046c4.13886,-1.95731 8.94837,-2.31835 10.34069,-2.25329c3.09437,0.14459 26.40125,9.71492 36.28828,13.8269c2.71079,1.1274 -11.25389,1.17783 -11.25389,1.17783l16.4673,8.35956l14.73271,27.17377l-20.85311,-22.35113c0,0 -15.8372,-8.86197 -23.767,-12.83268c-10.40085,-5.20804 -24.59924,-2.1024 -26.52952,-1.92181c-2.74518,0.25683 -1.71223,7.74125 -3.11704,5.57228z" fill="#091f57" stroke-width="2"/><path d="M271.18903,226.93896c0,0 0.27508,-61.78201 0.35628,-73.05619c0.02276,-3.16042 2.44371,-8.99752 2.44371,-8.99752c0,0 -5.4,-10.94954 -5.4,-13.80343c0,-6.38631 2.6,-13.94285 2.6,-13.94285h6.33333l-1.4,8.69057c0,0 2.8,-0.35228 2.8,0.41828c0,2.17356 -3.69389,1.78252 -3.74124,5.83571c-0.00335,0.28656 0.95888,2.08748 2.00816,3.6688c1.25742,1.89497 2.63986,3.61992 2.63553,4.00478c-0.06752,5.99604 -1.48905,12.52251 -1.58677,19.96875c-0.38426,29.28148 -0.91568,64.61311 -0.91568,64.61311c0,0 -1.51155,2.6 -2.52353,2.6c-1.0929,0 -3.60979,0 -3.60979,0z" fill="#333333" stroke-width="2"/><path d="M264.71159,142.47229c0,0 -2.0559,-1.82366 -2.0559,-5.4c0,-2.4446 1.72022,-7.55937 2.2715,-12.11839c0.47019,-3.88844 -0.2156,-7.48161 -0.2156,-7.48161l6.35462,-6.4c0,0 4.34652,0.09126 8.92311,1.16507c4.55712,1.06924 9.34234,3.11947 10.29156,3.85101c2.70425,2.08406 -1.45726,6.16493 -1.6842,6.56998c-0.17227,0.30748 -3.24153,2.43208 -6.12685,2.91235c-3.45187,0.57458 -7.54928,0.28571 -7.54928,0.28571l1.47269,-5.97907c0,0 -6.28648,-0.741 -6.62416,0.86773c-0.58992,2.81041 -1.50638,6.79749 -1.50638,9.32723c0,4.08003 4.2987,12.6 4.2987,12.6c0,0 0.39336,2.07552 0.25614,2.62946c-0.28607,1.15481 -0.2582,63.14342 -0.2582,63.14342c0,0 -1.81176,6.17582 -2.47607,0.59123c-0.87923,-7.39133 0.94754,-44.45265 -1.10982,-61.54272c-0.73599,-6.1137 -4.26186,-5.0214 -4.26186,-5.0214z" fill="#0b0b0b" stroke-width="2"/><path d="M318.62571,125.40748c0,-2.11709 1.71625,-3.83334 3.83334,-3.83334c2.11709,0 3.83333,1.71625 3.83333,3.83334c0,2.11709 -1.71624,3.83333 -3.83333,3.83333c-2.11709,0 -3.83334,-1.71624 -3.83334,-3.83333z" fill="#1449cd" stroke-width="2"/><g stroke-width="0"><path d="M319.41225,124.83119c-0.08722,-1.98166 1.35702,-3.66767 3.22581,-3.76581c1.86879,-0.09814 3.45442,1.42876 3.54165,3.41041c0.08722,1.98166 -1.35701,3.66765 -3.2258,3.76579c-1.86879,0.09814 -3.45443,-1.42875 -3.54165,-3.4104z" fill="#1048db"/><path d="M315.73663,125.00114c-0.17823,-4.04948 2.77305,-7.4948 6.59188,-7.69533c3.81883,-0.20056 7.05908,2.91962 7.2373,6.96909c0.17823,4.04948 -2.77306,7.49482 -6.59186,7.69535c-3.81883,0.20056 -7.05906,-2.91964 -7.23728,-6.96911z" fill="url(#color-1)"/></g><path d="M269.8995,215.57412c0,0 -0.77381,-1.18109 -0.77381,-1.91666c0,-0.70781 0.77381,-2.41667 0.77381,-2.41667c0,0 2.84001,0.14507 4.16341,-0.37034c1.71312,-0.66719 5.25128,-3.29632 5.25128,-3.29632c0,0 0.64484,1.52678 0.64484,2.08334c0,0.79859 -0.64484,2.25 -0.64484,2.25c0,0 -4.95745,2.37595 -6.29816,2.8981c-1.70781,0.66512 -3.11652,0.76856 -3.11652,0.76856z" fill="#180f05" stroke-width="2"/><path d="M270.06615,219.90746c0,0 -0.77381,-1.18109 -0.77381,-1.91666c0,-0.70781 0.77381,-2.41667 0.77381,-2.41667c0,0 2.84001,0.14506 4.16341,-0.37035c1.71312,-0.66719 5.25128,-3.29632 5.25128,-3.29632c0,0 0.64484,1.52678 0.64484,2.08334c0,0.79859 -0.64484,2.25 -0.64484,2.25c0,0 -4.95745,2.37595 -6.29816,2.8981c-1.70781,0.66512 -3.11653,0.76856 -3.11653,0.76856z" fill="#180f05" stroke-width="2"/><path d="M269.56615,223.90746c0,0 -0.77381,-1.18109 -0.77381,-1.91666c0,-0.70781 0.77381,-2.41667 0.77381,-2.41667c0,0 2.84001,0.14506 4.16341,-0.37035c1.71312,-0.66719 5.25128,-3.29632 5.25128,-3.29632c0,0 0.64484,1.52678 0.64484,2.08334c0,0.79859 -0.64484,2.25 -0.64484,2.25c0,0 -4.95745,2.37595 -6.29816,2.8981c-1.70781,0.66512 -3.11653,0.76856 -3.11653,0.76856z" fill="#180f05" stroke-width="2"/><path d="M269.69142,105.87979l3.8,-7.93333c0,0 5.28067,1.62157 8.5427,2.70574c4.14613,1.37802 17.32397,1.09426 17.32397,1.09426c0,0 1.72929,3.32184 1.6952,4.53787c-0.03249,1.159 -1.8952,2.59546 -1.8952,2.59546c0,0 -10.14215,-3.79185 -15.03712,-4.2902c-4.92704,-0.50162 -14.42955,1.29021 -14.42955,1.29021z" fill="#1a1a1a" stroke-width="2"/></g><g><path d="M219.98363,113.48886c-8.98993,-1.04469 -15.53709,-8.77361 -14.62342,-17.26301c0.91359,-8.48943 8.94202,-14.52456 17.93192,-13.47983c8.98993,1.04469 15.53713,8.77364 14.62348,17.26298c-0.91359,8.48943 -8.94204,14.52449 -17.93197,13.47979z" fill="url(#color-2)" stroke="#000000" stroke-width="0" stroke-linecap="butt"/><g stroke="#0021ff"><path d="M227.59984,95.29378l-0.25295,1.08214l-0.56314,-0.30211l0.04253,0.57799l-0.83212,-0.03381l-0.06123,0.75739l-0.89175,0.49688l-0.76744,-0.39673l-0.39171,0.93519l-0.42121,-0.6086l-0.26395,0.43605l-1.28596,1.34818l-0.84971,-0.62092l-1.25535,0.9695l-0.21186,-0.34624l-0.70226,0.93612l-0.79487,-0.47144l-0.56262,1.39365l-0.49081,-0.22564l-0.26996,0.70208" fill="url(#color-3)" stroke-width="0.5" stroke-linecap="round"/><path d="M228.36258,97.14286l-0.57715,0.94971l-0.44115,-0.46234l-0.13944,0.56251l-0.78029,-0.29107l-0.29388,0.70074l-1.00209,0.19473l-0.60589,-0.61584l-0.66326,0.76687l-0.21091,-0.70944l-0.38654,0.33228l-1.64163,0.88108l-0.61431,-0.85451l-1.49469,0.53072l-0.09361,-0.39497l-0.95871,0.67109l-0.60871,-0.69541l-0.96837,1.14937l-0.39626,-0.36716l-0.47504,0.5832" fill="url(#color-4)" stroke-width="0.5" stroke-linecap="round"/><path d="M227.13641,102.50806l-0.46864,-0.88348l-0.85864,0.33963l0.12162,-0.65058l-0.68785,0.18244l-0.26068,-0.59662l-0.98591,-0.05265l0.00703,-0.86388l-0.69299,0.14099l-0.52297,-0.28424l-0.19884,-0.77981l-0.80441,-0.19729l0.00003,-0.81544l-1.41966,-0.32669l-0.48519,-1.11054l-0.17115,0.7491l-1.28001,-1.44729l0.06048,-0.47984l-1.03011,0.50274l-0.22173,-1.2254" fill="url(#color-5)" stroke-width="0.5" stroke-linecap="round"/><path d="M228.52931,98.85604l-0.81108,0.7597l-0.30071,-0.56388l-0.28544,0.50437l-0.67338,-0.49l-0.47133,0.59601l-1.01756,-0.08169l-0.41814,-0.75598l-0.84489,0.56047l-0.01256,-0.74002l-0.46161,0.21621l-1.81801,0.40765l-0.36216,-0.98815l-1.58233,0.10963l0.01594,-0.4056l-1.10377,0.38886l-0.39949,-0.83336l-1.24157,0.84695l-0.28304,-0.46014l-0.61427,0.43415" fill="url(#color-6)" stroke-width="0.5" stroke-linecap="round"/><path d="M225.90676,103.69454l-0.21404,-0.9769l-0.9183,0.09648l0.29195,-0.59399l-0.71156,-0.00907l-0.0908,-0.64473l-0.93551,-0.31561l0.23888,-0.83024l-0.70537,-0.05037l-0.42737,-0.4143l0.01799,-0.80456l-0.72183,-0.40613l0.21912,-0.78545l-1.27968,-0.6961l-0.16898,-1.20005l-0.36611,0.67559l-0.84411,-1.738l0.18718,-0.44595l-1.1273,0.2075l0.11564,-1.23991" fill="url(#color-7)" stroke-width="0.5" stroke-linecap="round"/><path d="M227.68005,101.6954l-0.59967,-0.80037l-0.79576,0.46839l0.01951,-0.66156l-0.65134,0.28666l-0.34984,-0.54912l-0.98218,0.1005l-0.12668,-0.85458l-0.66283,0.24649l-0.56065,-0.19993l-0.31707,-0.73964l-0.82524,-0.07045l-0.12612,-0.80564l-1.45311,-0.10315l-0.65115,-1.02209l-0.05321,0.76657l-1.48852,-1.23187l-0.01447,-0.48342l-0.93994,0.65605l-0.40862,-1.17635" fill="url(#color-8)" stroke-width="0.5" stroke-linecap="round"/><path d="M222.69752,92.28172l0.72532,0.84197l-0.5759,0.27701l0.49207,0.30617l-0.51758,0.65244l0.5759,0.49569l-0.12393,1.01328l-0.77271,0.38636l0.52487,0.86749l-0.7399,-0.01823l0.19682,0.4702l0.33168,1.83337l-1.00234,0.32076l0.04374,1.58553l-0.40458,-0.0328l0.34262,1.11898l-0.84925,0.36448l0.79459,1.27571l-0.47149,0.26365l0.40825,0.63178" fill="url(#color-9)" stroke-width="0.5" stroke-linecap="round"/><path d="M227.42282,95.10319l-0.98496,0.17322l0.05818,0.92151l-0.58134,-0.31638l-0.03864,0.71057l-0.64795,0.06392l-0.35423,0.92158l-0.81959,-0.27319l-0.07964,0.70266l-0.43173,0.40977l-0.80309,-0.05141l-0.43578,0.70432l-0.77567,-0.25159l-0.74871,1.24962l-1.20605,0.11894l0.6598,0.39391l-1.77158,0.77112l-0.43779,-0.20557l0.16043,1.13495l-1.23404,-0.16708" fill="url(#color-10)" stroke-width="0.5" stroke-linecap="round"/><path d="M221.06041,92.36183l0.91674,0.62818l-0.48575,0.41524l0.55407,0.16997l-0.33324,0.76321l0.68362,0.33171l0.13966,1.01123l-0.64803,0.57134l0.72949,0.70415l-0.7199,0.17185l0.31068,0.40411l0.79007,1.68731l-0.8868,0.56671l0.44829,1.52147l-0.3995,0.07189l0.61773,0.99394l-0.7276,0.5698l1.09475,1.02971l-0.38826,0.37561l0.55639,0.50618" fill="url(#color-11)" stroke-width="0.5" stroke-linecap="round"/><path d="M226.35063,93.87928l-0.90779,0.41967l0.29222,0.87591l-0.64297,-0.15697l0.1446,0.69678l-0.60999,0.22771l-0.10643,0.98154l-0.86222,-0.05423l0.10293,0.69965l-0.31239,0.50666l-0.78948,0.15593l-0.24093,0.79244l-0.81423,-0.04459l-0.40378,1.39969l-1.13537,0.42379l0.73865,0.21181l-1.51508,1.19904l-0.47581,-0.0866l0.4457,1.05603l-1.23568,0.15447" fill="url(#color-12)" stroke-width="0.5" stroke-linecap="round"/><path d="M224.55948,104.49597l-1.02534,-0.42863l0.39119,-0.50535l-0.57703,-0.05375l0.17109,-0.81504l-0.73681,-0.18578l-0.34237,-0.96172l0.51829,-0.69117l-0.85744,-0.54111l0.66993,-0.31464l-0.38635,-0.33252l-1.11668,-1.49141l0.75302,-0.73519l-0.74829,-1.39855l0.37653,-0.15163l-0.80692,-0.84756l0.59654,-0.70584l-1.28126,-0.7856l0.30377,-0.44669l-0.64768,-0.38249" fill="url(#color-13)" stroke-width="0.5" stroke-linecap="round"/><path d="M219.07122,104.0859l0.80346,-0.5955l-0.46422,-0.79818l0.66147,0.02295l-0.28327,-0.65282l0.55094,-0.34696l-0.09536,-0.98269l0.85524,-0.12223l-0.24305,-0.66409l0.20286,-0.55959l0.74128,-0.31321l0.07475,-0.82486l0.80629,-0.1219l0.11073,-1.45256l1.02549,-0.64578l-0.76629,-0.05719l1.23963,-1.48205l0.48348,-0.01195l-0.65112,-0.94336l1.17845,-0.40248" fill="url(#color-14)" stroke-width="0.5" stroke-linecap="round"/><path d="M221.43462,105.0186c-3.57542,-0.5758 -6.00711,-3.94101 -5.43131,-7.51645c0.5758,-3.57542 3.94102,-6.00709 7.51645,-5.4313c3.57542,0.5758 6.00709,3.94102 5.43129,7.51644c-0.5758,3.57542 -3.94101,6.00711 -7.51645,5.4313z" fill="url(#color-15)" stroke-width="0" stroke-linecap="butt"/><path d="M219.38231,104.41257c-2.23654,-0.36018 -3.75762,-2.46522 -3.39744,-4.70176c0.36018,-2.23654 2.46522,-3.75762 4.70176,-3.39744c2.23654,0.36018 3.75762,2.46522 3.39744,4.70176c-0.36018,2.23654 -2.46522,3.75762 -4.70176,3.39744z" fill="url(#color-16)" stroke-width="0" stroke-linecap="butt"/><path d="M220.30353,99.99584c-2.23654,-0.36018 -3.75763,-2.46524 -3.39744,-4.70177c0.36018,-2.23654 2.46522,-3.75762 4.70176,-3.39744c2.23654,0.36018 3.75764,2.46525 3.39744,4.70177c-0.36018,2.23654 -2.46525,3.75764 -4.70178,3.39744z" fill="url(#color-17)" stroke-width="0" stroke-linecap="butt"/><path d="M223.32566,104.95778c-2.23654,-0.36018 -3.75763,-2.46524 -3.39744,-4.70177c0.36018,-2.23654 2.46522,-3.75762 4.70176,-3.39744c2.23654,0.36018 3.75762,2.46522 3.39744,4.70176c-0.36018,2.23654 -2.46525,3.75764 -4.70177,3.39744z" fill="url(#color-18)" stroke-width="0" stroke-linecap="butt"/><path d="M218.49903,101.84734c-2.23654,-0.36018 -3.75762,-2.46522 -3.39744,-4.70176c0.36018,-2.23654 2.46525,-3.75764 4.70177,-3.39744c2.23654,0.36018 3.75763,2.46524 3.39744,4.70177c-0.36018,2.23654 -2.46522,3.75762 -4.70176,3.39744z" fill="url(#color-19)" stroke-width="0" stroke-linecap="butt"/><path d="M221.48196,105.26571c-2.23654,-0.36018 -3.75762,-2.46522 -3.39744,-4.70176c0.36018,-2.23654 2.46525,-3.75764 4.70177,-3.39744c2.23654,0.36018 3.75763,2.46524 3.39744,4.70177c-0.36018,2.23654 -2.46522,3.75762 -4.70176,3.39744z" fill="url(#color-20)" stroke-width="0" stroke-linecap="butt"/><path d="M224.37272,102.91205c-2.23654,-0.36018 -3.75764,-2.46525 -3.39744,-4.70177c0.36018,-2.23654 2.46525,-3.75764 4.70178,-3.39744c2.23654,0.36018 3.75763,2.46524 3.39744,4.70177c-0.36018,2.23654 -2.46522,3.75762 -4.70176,3.39744z" fill="url(#color-21)" stroke-width="0" stroke-linecap="butt"/><path d="M219.34428,97.41691c-1.44539,-0.23277 -2.42839,-1.59316 -2.19561,-3.03855c0.23277,-1.44539 1.59318,-2.42839 3.03855,-2.19562c1.44539,0.23277 2.4284,1.5932 2.19562,3.03856c-0.23277,1.44539 -1.59318,2.42839 -3.03856,2.19561z" fill="url(#color-22)" stroke-width="0" stroke-linecap="butt"/><path d="M217.83598,100.35075c-1.44539,-0.23277 -2.4284,-1.5932 -2.19562,-3.03856c0.23277,-1.44539 1.5932,-2.4284 3.03856,-2.19562c1.44539,0.23277 2.42839,1.59317 2.19562,3.03856c-0.23277,1.44539 -1.5932,2.4284 -3.03856,2.19562z" fill="url(#color-23)" stroke-width="0" stroke-linecap="butt"/><path d="M224.74061,104.32694c-1.44539,-0.23277 -2.42839,-1.59318 -2.19562,-3.03855c0.23277,-1.44539 1.5932,-2.4284 3.03856,-2.19562c1.44539,0.23277 2.4284,1.5932 2.19562,3.03856c-0.23277,1.44539 -1.59318,2.42839 -3.03856,2.19561z" fill="url(#color-24)" stroke-width="0" stroke-linecap="butt"/><path d="M218.38409,103.50303c-1.44539,-0.23277 -2.42839,-1.59317 -2.19562,-3.03856c0.23277,-1.44539 1.59318,-2.42839 3.03856,-2.19561c1.44539,0.23277 2.42839,1.59318 2.19562,3.03855c-0.23277,1.44539 -1.5932,2.4284 -3.03856,2.19562z" fill="url(#color-25)" stroke-width="0" stroke-linecap="butt"/><path d="M220.86766,105.32493c-1.44539,-0.23277 -2.42839,-1.59318 -2.19561,-3.03856c0.23277,-1.44539 1.59318,-2.42839 3.03855,-2.19562c1.44539,0.23277 2.4284,1.5932 2.19562,3.03856c-0.23277,1.44539 -1.5932,2.4284 -3.03856,2.19562z" fill="url(#color-26)" stroke-width="0" stroke-linecap="butt"/><path d="M225.56583,98.68358c-1.44539,-0.23277 -2.4284,-1.5932 -2.19562,-3.03856c0.23277,-1.44539 1.59316,-2.42839 3.03856,-2.19561c1.44539,0.23277 2.42839,1.59316 2.19561,3.03855c-0.23277,1.44539 -1.59318,2.42839 -3.03855,2.19562z" fill="url(#color-27)" stroke-width="0" stroke-linecap="butt"/><path d="M222.36806,99.88264c-2.23654,-0.36018 -3.75762,-2.46522 -3.39744,-4.70176c0.36018,-2.23654 2.46522,-3.75762 4.70176,-3.39744c2.23654,0.36018 3.75762,2.46522 3.39744,4.70176c-0.36018,2.23654 -2.46522,3.75762 -4.70176,3.39744z" fill="url(#color-28)" stroke-width="0" stroke-linecap="butt"/><path d="M226.00764,101.82542c-1.44539,-0.23277 -2.4284,-1.5932 -2.19562,-3.03856c0.23277,-1.44539 1.5932,-2.4284 3.03856,-2.19562c1.44539,0.23277 2.42839,1.59318 2.19561,3.03856c-0.23277,1.44539 -1.59317,2.42839 -3.03855,2.19562z" fill="url(#color-29)" stroke-width="0" stroke-linecap="butt"/><path d="M222.72912,97.25942c-1.44539,-0.23277 -2.42839,-1.59318 -2.19562,-3.03855c0.23277,-1.44539 1.5932,-2.4284 3.03856,-2.19562c1.44539,0.23277 2.4284,1.5932 2.19562,3.03856c-0.23277,1.44539 -1.59318,2.42839 -3.03856,2.19561z" fill="url(#color-30)" stroke-width="0" stroke-linecap="butt"/><path d="M224.09573,100.99939c-2.23654,-0.36018 -3.75762,-2.46522 -3.39744,-4.70176c0.36018,-2.23654 2.46522,-3.75762 4.70176,-3.39744c2.23654,0.36018 3.75762,2.46522 3.39744,4.70176c-0.36018,2.23654 -2.46522,3.75762 -4.70176,3.39744z" fill="url(#color-31)" stroke-width="0" stroke-linecap="butt"/></g><g stroke="#000000" stroke-width="2" stroke-linecap="butt"><path d="M220.2718,123.80015c0,0 -2.52531,0.3446 -5.30577,0.01083c-1.18994,-0.14283 -2.92753,-0.6236 -3.71225,-0.95832c-2.36345,-1.00813 -6.00567,-5.46084 -6.00567,-5.46084l3.66193,-8.58494l15.02367,6.40835z" fill="#091f57"/><g><path d="M223.9353,114.36185c0,0 -6.71897,0.16239 -9.06465,-0.83815c-1.99036,-0.849 -4.11938,-4.7855 -4.11938,-4.7855c0,0 -0.63517,-2.98105 -0.1191,-5.16955c0.52898,-2.24328 4.96136,-10.4305 4.96136,-10.4305l1.52538,11.2559l7.12184,-11.2341l-1.41136,13.56692l8.2098,-9.01927c0,0 -2.18167,7.66345 -3.4518,10.64114c-1.05936,2.48356 -3.65207,6.01315 -3.65207,6.01315z" fill="#090909"/><path d="M224.02812,119.24178c0,0 -7.58111,-0.72254 -10.10918,-1.34304c-3.6913,-0.90605 -7.32665,-7.90618 -7.32665,-7.90618l2.44419,-4.03092c0,0 4.82726,5.77762 7.78898,7.23643c2.41724,1.19062 8.68199,0.87644 8.68199,0.87644z" fill="#333333"/></g></g></g></g></g></svg>