<svg version="1.1" xmlns="http://www.w3.org/2000/svg" xmlns:xlink="http://www.w3.org/1999/xlink" width="109.87905" height="136.91193" viewBox="0,0,109.87905,136.91193"><defs><linearGradient x1="250.05841" y1="104.30281" x2="253.22704" y2="115.59218" gradientUnits="userSpaceOnUse" id="color-1"><stop offset="0" stop-color="#838383"/><stop offset="1" stop-color="#000000"/></linearGradient><linearGradient x1="238.59907" y1="93.50908" x2="240.58148" y2="100.57214" gradientUnits="userSpaceOnUse" id="color-2"><stop offset="0" stop-color="#838383"/><stop offset="1" stop-color="#2c2c2c"/></linearGradient><linearGradient x1="236.47761" y1="100.95811" x2="237.71762" y2="105.37613" gradientUnits="userSpaceOnUse" id="color-3"><stop offset="0" stop-color="#838383"/><stop offset="1" stop-color="#2c2c2c"/></linearGradient><linearGradient x1="208.39145" y1="82.01163" x2="231.06027" y2="90.21486" gradientUnits="userSpaceOnUse" id="color-4"><stop offset="0" stop-color="#cca670"/><stop offset="1" stop-color="#907751"/></linearGradient><linearGradient x1="218.7487" y1="95.18081" x2="220.32778" y2="89.15534" gradientUnits="userSpaceOnUse" id="color-5"><stop offset="0" stop-color="#dadada"/><stop offset="1" stop-color="#898989"/></linearGradient><linearGradient x1="221.29329" y1="85.03685" x2="222.87237" y2="79.0114" gradientUnits="userSpaceOnUse" id="color-6"><stop offset="0" stop-color="#dadada"/><stop offset="1" stop-color="#898989"/></linearGradient><linearGradient x1="224.54777" y1="86.82775" x2="231.88668" y2="89.16369" gradientUnits="userSpaceOnUse" id="color-7"><stop offset="0" stop-color="#272727"/><stop offset="1" stop-color="#000000"/></linearGradient><linearGradient x1="256.49698" y1="81.52576" x2="246.24765" y2="109.84863" gradientUnits="userSpaceOnUse" id="color-8"><stop offset="0" stop-color="#202020"/><stop offset="1" stop-color="#000000"/></linearGradient><linearGradient x1="251.39213" y1="105.71496" x2="260.88085" y2="109.14867" gradientUnits="userSpaceOnUse" id="color-9"><stop offset="0" stop-color="#696969"/><stop offset="1" stop-color="#272727"/></linearGradient><linearGradient x1="257.57982" y1="87.88125" x2="267.06853" y2="91.315" gradientUnits="userSpaceOnUse" id="color-10"><stop offset="0" stop-color="#696969"/><stop offset="1" stop-color="#272727"/></linearGradient><linearGradient x1="240.75122" y1="99.49975" x2="247.6139" y2="101.98316" gradientUnits="userSpaceOnUse" id="color-11"><stop offset="0" stop-color="#696969"/><stop offset="1" stop-color="#272727"/></linearGradient><radialGradient cx="218.21404" cy="76.5661" r="5.19534" gradientUnits="userSpaceOnUse" id="color-12"><stop offset="0" stop-color="#00059e"/><stop offset="1" stop-color="#1f5cff"/></radialGradient><radialGradient cx="218.8729" cy="88.16124" r="5.19534" gradientUnits="userSpaceOnUse" id="color-13"><stop offset="0" stop-color="#00059e"/><stop offset="1" stop-color="#1f5cff"/></radialGradient><radialGradient cx="218.8589" cy="88.25273" r="7.2184" gradientUnits="userSpaceOnUse" id="color-14"><stop offset="0" stop-color="#0015ff"/><stop offset="1" stop-color="#0015ff" stop-opacity="0"/></radialGradient><radialGradient cx="218.27117" cy="76.66351" r="6.6881" gradientUnits="userSpaceOnUse" id="color-15"><stop offset="0" stop-color="#0021ff"/><stop offset="1" stop-color="#0021ff" stop-opacity="0"/></radialGradient><linearGradient x1="257.70468" y1="70.18865" x2="264.94793" y2="72.80984" gradientUnits="userSpaceOnUse" id="color-16"><stop offset="0" stop-color="#2c2c2c"/><stop offset="1" stop-color="#464646"/></linearGradient><linearGradient x1="265.64115" y1="76.23661" x2="276.33917" y2="76.23694" gradientUnits="userSpaceOnUse" id="color-17"><stop offset="0" stop-color="#000000" stop-opacity="0"/><stop offset="1" stop-color="#000000" stop-opacity="0"/></linearGradient><linearGradient x1="254.50725" y1="96.73934" x2="263.99596" y2="100.17306" gradientUnits="userSpaceOnUse" id="color-18"><stop offset="0" stop-color="#696969"/><stop offset="1" stop-color="#272727"/></linearGradient><linearGradient x1="234.91907" y1="136.51443" x2="231.21507" y2="135.49061" gradientUnits="userSpaceOnUse" id="color-19"><stop offset="0" stop-color="#271100"/><stop offset="1" stop-color="#613700"/></linearGradient><linearGradient x1="226.22588" y1="176.25655" x2="218.79949" y2="174.23018" gradientUnits="userSpaceOnUse" id="color-20"><stop offset="0" stop-color="#ffffff"/><stop offset="1" stop-color="#323232"/></linearGradient><linearGradient x1="233.3984" y1="133.60228" x2="233.06355" y2="144.29512" gradientUnits="userSpaceOnUse" id="color-21"><stop offset="0" stop-color="#000000" stop-opacity="0"/><stop offset="1" stop-color="#000000" stop-opacity="0"/></linearGradient></defs><g transform="translate(-197.10891,-70.19025)"><g data-paper-data="{&quot;isPaintingLayer&quot;:true}" fill-rule="nonzero" stroke-linejoin="miter" stroke-miterlimit="10" stroke-dasharray="" stroke-dashoffset="0" style="mix-blend-mode: normal"><path d="M265.59111,94.68881l6.97414,-3.36976l15.78443,2.53348" data-paper-data="{&quot;index&quot;:null}" fill="none" stroke="#131313" stroke-width="13" stroke-linecap="round"/><path d="M279.69447,117.62488l-13.0573,-8.23453l-3.20287,-7.03062" data-paper-data="{&quot;index&quot;:null}" fill="none" stroke="#131313" stroke-width="13" stroke-linecap="round"/><path d="M283.01846,99.9996l-4.79536,-0.96735l4.32014,-13.00676l4.75758,1.06056z" data-paper-data="{&quot;index&quot;:null}" fill="#000000" stroke="none" stroke-width="0" stroke-linecap="butt"/><path d="M284.05688,98.22864c-1.94913,-0.28081 -4.98308,-0.82845 -6.18741,-1.01039c-0.94276,-0.14242 -1.62418,-1.44335 -1.26797,-2.66722c0.26626,-0.91479 0.7341,-2.77221 1.14517,-4.31509c0.31533,-1.18353 1.5908,-2.08445 2.39928,-1.96232c1.16271,0.17564 4.44535,0.67153 6.49737,0.98152c1.02028,0.15413 1.46208,1.20031 1.11219,2.39759c-0.47166,1.61388 -1.08075,3.69883 -1.34084,4.59239c-0.21778,0.74823 -1.39376,2.12238 -2.3578,1.98349z" data-paper-data="{&quot;index&quot;:null}" fill="#000000" stroke="none" stroke-width="NaN" stroke-linecap="butt"/><path d="M273.62492,122.17731l-4.1489,-2.56203l6.02755,-12.51842l4.11059,2.65652z" data-paper-data="{&quot;index&quot;:null}" fill="#000000" stroke="none" stroke-width="0" stroke-linecap="butt"/><path d="M279.24633,112.08067c0.82725,0.51219 0.84994,2.31946 0.53857,3.03237c-0.37184,0.85141 -1.23772,2.83944 -1.90782,4.37842c-0.49714,1.1417 -1.5042,1.65964 -2.38431,1.12304c-1.77009,-1.07924 -4.6017,-2.80569 -5.60465,-3.41719c-0.69739,-0.42521 -1.09869,-1.93379 -0.58388,-3.04278c0.67113,-1.44569 1.49981,-3.16879 1.8805,-4.04042c0.50929,-1.16612 1.8627,-1.72549 2.67595,-1.22964c1.03885,0.6334 3.71302,2.16064 5.38564,3.19619z" data-paper-data="{&quot;index&quot;:null}" fill="#000000" stroke="none" stroke-width="NaN" stroke-linecap="butt"/><path d="M287.16349,132.39307c-0.72739,-0.57284 -2.28694,-1.80101 -3.55485,-2.79952c-1.05735,-0.83267 -1.4474,-2.09539 -1.01105,-2.64947c1.15957,-1.47243 6.36164,-8.07806 6.36164,-8.07806c0,0 1.1486,0.32976 2.57956,0.66343c0.92775,0.21633 2.75297,1.90325 3.33194,2.77638c0.95852,1.44549 1.37744,2.30039 1.37744,2.30039c0,0 -5.28806,6.71483 -6.42449,8.15785c-0.41042,0.52115 -1.89004,0.23555 -2.66019,-0.37097z" data-paper-data="{&quot;index&quot;:null}" fill="#000000" stroke="none" stroke-width="0" stroke-linecap="butt"/><path d="M284.80908,127.71743l-8.3646,-4.21895c0,0 4.06702,-2.30412 5.15315,-3.65287c1.1343,-1.40857 2.71897,-6.15646 2.71897,-6.15646l5.39259,7.43257z" data-paper-data="{&quot;index&quot;:null}" fill="#000000" stroke="none" stroke-width="0" stroke-linecap="butt"/><path d="M301.02179,106.80543c-0.90072,-0.31051 -2.83193,-0.97624 -4.402,-1.51748c-1.30931,-0.45135 -2.13022,-1.50435 -1.90733,-2.15091c0.59231,-1.7182 3.24954,-9.42647 3.24954,-9.42647c0,0 1.21905,-0.04296 2.71052,-0.168c0.96697,-0.0811 3.3154,0.92955 4.17987,1.56373c1.43117,1.0499 2.13557,1.71574 2.13557,1.71574c0,0 -2.70115,7.83565 -3.28164,9.51955c-0.20965,0.60816 -1.73083,0.79257 -2.68453,0.46381z" data-paper-data="{&quot;index&quot;:null}" fill="#000000" stroke="none" stroke-width="0" stroke-linecap="butt"/><path d="M298.42868,102.66802l-10.79581,-0.90518c0,0 3.12998,-3.63449 3.71395,-5.26477c0.60985,-1.70257 0.16986,-6.72967 0.16986,-6.72967l9.52964,5.0296z" data-paper-data="{&quot;index&quot;:null}" fill="#000000" stroke="none" stroke-width="0" stroke-linecap="butt"/><g data-paper-data="{&quot;index&quot;:null}"><path d="M241.2981,101.99499c0,0 -0.6519,-2.32261 -0.87852,-3.13001c-0.154,-0.54871 0.25368,-1.41498 0.84288,-1.58035c0.84744,-0.23785 3.16086,-0.88717 4.51899,-1.26836c0.56388,-0.15828 1.30978,0.5656 1.47417,1.15126c0.22541,0.80309 0.82094,2.92491 0.82094,2.92491z" fill="#282828" stroke="none" stroke-width="0" stroke-linecap="butt"/><path d="M234.90809,110.08613l-1.05086,-3.74408l3.92125,-1.10059l1.05086,3.74408z" fill="#505050" stroke="none" stroke-width="0" stroke-linecap="butt"/><path d="M233.08272,104.38088c0,0 -0.68745,-2.4493 -0.91741,-3.26865c-0.13399,-0.47737 0.42174,-1.41626 0.99452,-1.57706c0.79296,-0.22256 2.87977,-0.80826 4.25038,-1.19297c0.70614,-0.19819 1.47249,0.36963 1.60646,0.84703c0.22998,0.81935 0.91743,3.26866 0.91743,3.26866z" fill="#282828" stroke="#000000" stroke-width="0.5" stroke-linecap="butt"/><path d="M235.70651,104.76453l-0.70773,-2.52157l2.33237,-0.65463l0.70773,2.52157z" fill="#000000" stroke="none" stroke-width="0" stroke-linecap="butt"/><path d="M243.93558,92.28111c-0.31462,0.61022 -0.79488,1.13367 -1.40021,1.498" fill="none" stroke="#ff9319" stroke-width="3" stroke-linecap="butt"/><path d="M241.04326,95.92297c-0.82145,-0.0253 -1.60929,-0.10497 -2.35045,-0.23404" fill="none" stroke="#000000" stroke-width="3" stroke-linecap="butt"/><path d="M251.76776,116.00179c0,0 -1.50253,-1.4602 -3.05882,-2.79306c-1.19468,-1.02318 -2.11629,-2.57067 -2.36319,-2.92845c-0.42056,-0.60946 -3.40591,-8.73966 -3.40591,-8.73966c0,0 6.27309,-1.57019 7.40912,-2.03033c0.36838,-0.14922 1.87517,4.18474 1.87517,4.18474c0,0 0.88494,1.97365 1.4474,2.70673c0.24967,0.32543 0.74552,1.38081 1.45416,1.9491c1.39238,1.11662 3.14014,3.00104 3.14014,3.00104z" fill="url(#color-1)" stroke="#000000" stroke-width="1.5" stroke-linecap="butt"/><path d="M227.66656,96.8418l-0.38687,-1.37834l20.82371,-5.84462l0.38687,1.37834z" fill="#888888" stroke="#000000" stroke-width="0.5" stroke-linecap="butt"/><path d="M288.40337,84.75565l-18.73591,5.22746l-0.7125,-2.53857l18.84451,-5.28911z" fill="#888888" stroke="#000000" stroke-width="1.5" stroke-linecap="round"/><path d="M229.33192,103.72956l-1.9824,-7.06306l22.49913,-6.31486l1.98241,7.06307z" fill="url(#color-2)" stroke="#000000" stroke-width="1" stroke-linecap="butt"/><path d="M243.18714,101.65233l-0.86584,-2.67757l7.85556,-2.20483l0.49403,2.71506z" fill="#767676" stroke="#000000" stroke-width="1.5" stroke-linecap="butt"/><path d="M233.81465,106.35533c0,0 0.02591,-1.05616 -0.96009,-1.33873c-0.94535,-0.27094 -2.42503,0.57001 -2.5222,0.22371c-0.21366,-0.76129 -0.66537,-2.37065 -0.66537,-2.37065l13.62125,-3.82309l1.24002,4.41801z" fill="url(#color-3)" stroke="#000000" stroke-width="1" stroke-linecap="butt"/><path d="M239.05245,108.70732l-0.98781,-3.51944l5.69615,-1.59875c0,0 0.44811,1.59663 0.62853,2.23938c0.13639,0.48595 -0.80912,1.60799 -1.55472,1.81727c-1.0481,0.29417 -3.78218,1.06154 -3.78218,1.06154z" fill="none" stroke="#000000" stroke-width="2" stroke-linecap="butt"/><path d="M241.69638,98.42185l-0.84068,-2.99525l7.76,-2.178l0.84068,2.99526z" fill="#000000" stroke="none" stroke-width="0" stroke-linecap="butt"/><path d="M241.11619,103.33523l-0.67256,-2.3962l2.22894,-0.62561l0.67256,2.3962z" fill="none" stroke="#000000" stroke-width="1" stroke-linecap="butt"/><path d="M242.6993,101.59844c0.12768,0.45491 -0.12455,0.92354 -0.56339,1.04671c-0.43884,0.12317 -0.89809,-0.14575 -1.02575,-0.60069c-0.12768,-0.45491 0.12453,-0.92354 0.56339,-1.04671c0.43884,-0.12317 0.8981,0.14576 1.02575,0.60069z" fill="#9e9e9e" stroke="none" stroke-width="0" stroke-linecap="butt"/><path d="M229.01947,97.73411l20.10089,-5.8033" fill="none" stroke="#000000" stroke-width="1" stroke-linecap="round"/><path d="M237.15809,103.19412c0.1567,0.55829 -0.25221,1.16132 -0.91328,1.34689c-0.6611,0.18555 -1.32404,-0.11662 -1.48073,-0.67494c-0.1567,-0.55829 0.25219,-1.16132 0.91328,-1.34686c0.6611,-0.18555 1.32404,0.11662 1.48075,0.67493z" fill="#858585" stroke="none" stroke-width="0" stroke-linecap="butt"/><path d="M230.19647,101.5533l-0.75661,-2.69576l7.42976,-2.08532c0,0 1.74186,0.49469 1.86426,0.93081c0.12942,0.46105 -1.10764,1.76493 -1.10764,1.76493z" fill="#c7c7c7" stroke="#000000" stroke-width="1" stroke-linecap="butt"/><path d="M229.63077,101.46754l-0.60948,-2.17157l0.82553,-0.2317l0.60948,2.17157z" fill="#888888" stroke="#000000" stroke-width="1" stroke-linecap="butt"/><path d="M239.59428,104.89334l1.73361,-0.48658c0,0 -0.08131,0.97942 0.04811,1.44056c0.13644,0.48607 0.75056,1.40495 0.75056,1.40495c0,0 -1.62105,-0.28815 -2.04992,-0.68766c-0.41476,-0.38636 -0.48235,-1.67127 -0.48235,-1.67127z" fill="#5b5b5b" stroke="none" stroke-width="0" stroke-linecap="butt"/><path d="M251.81836,96.30565l-1.40247,-4.99683l1.36474,-0.38305l1.40247,4.99683z" fill="#5b5b5b" stroke="#000000" stroke-width="1.5" stroke-linecap="butt"/><path d="M288.4889,85.26047l-0.95906,-3.41698l4.57693,-1.2846l0.95905,3.41696z" fill="#393939" stroke="#000000" stroke-width="2" stroke-linecap="butt"/><path d="M270.81501,91.28297l-1.13356,-4.03877l1.60148,-0.44948l1.13356,4.03877z" fill="#000000" stroke="#000000" stroke-width="0.5" stroke-linecap="butt"/><path d="M274.22967,90.369l-2.79445,-9.95626l1.60148,-0.44948l2.79445,9.95626z" fill="#000000" stroke="#000000" stroke-width="0.5" stroke-linecap="butt"/><path d="M269.48857,86.17071l4.95828,-1.3539l0.28343,1.11794l-4.95828,1.3539z" fill="#000000" stroke="#000000" stroke-width="0.5" stroke-linecap="butt"/><path d="M269.34918,86.15575l2.1635,-5.20681l0.47947,1.36769l-1.05141,3.39238z" fill="#000000" stroke="#000000" stroke-width="0.5" stroke-linecap="butt"/><path d="M226.88078,97.09176l-0.32899,-1.17219l3.33834,-0.93696l0.329,1.17216z" fill="#000000" stroke="none" stroke-width="0" stroke-linecap="butt"/><path d="M253.49092,96.51013l-1.67851,-5.9804l17.5237,-4.9184l1.67853,5.98039z" fill="#4d4d4d" stroke="#000000" stroke-width="1.5" stroke-linecap="butt"/><path d="M227.87721,103.66345l-1.82329,-6.49608l1.87405,-0.52599l1.82326,6.49608z" fill="#222222" stroke="#000000" stroke-width="1" stroke-linecap="butt"/><path d="M208.01587,116.93312c-0.3243,-1.07595 -4.49833,-13.03642 -4.49833,-13.03642l20.77364,-6.04722l1.57344,5.60602c0,0 -7.79242,1.0586 -13.05749,4.6185c-2.00261,1.35403 -2.30565,8.18707 -3.09586,8.65287c-0.29775,0.17553 -1.69031,0.22325 -1.69543,0.20623z" fill="#3a3a3a" stroke="#000000" stroke-width="1.5" stroke-linecap="butt"/><path d="M212.31501,113.91472c-0.2144,-0.72057 -2.30168,-7.86939 -2.30168,-7.86939l11.30936,-3.31915l0.95548,4.05324c0,0 -3.71548,0.94867 -6.80284,2.10679c-0.56897,1.51562 -1.57006,4.81997 -1.9926,5.10184c-0.15923,0.10621 -1.16433,-0.06192 -1.16771,-0.07333z" fill="#303030" stroke="#000000" stroke-width="1.5" stroke-linecap="butt"/><path d="M227.70231,95.45497l-0.57314,-2.04202l5.68432,-1.59542l0.57313,2.04202z" fill="#888888" stroke="#000000" stroke-width="1" stroke-linecap="butt"/><path d="M229.59842,94.07866c0.11921,0.42479 -0.16375,0.87571 -0.63206,1.00713c-0.4683,0.13143 -0.94457,-0.10637 -1.06381,-0.53115c-0.11921,-0.42479 0.16376,-0.87569 0.63205,-1.00712c0.4683,-0.13143 0.94457,0.10637 1.06381,0.53115z" fill="#575757" stroke="#000000" stroke-width="1" stroke-linecap="butt"/><path d="M228.66306,93.03752l-0.61613,-2.19517l0.77047,-0.21625l0.61613,2.19517z" fill="#575757" stroke="#000000" stroke-width="1" stroke-linecap="butt"/><path d="M233.35946,93.78403l-0.14873,-0.52996l1.36819,-0.384l0.14873,0.52996z" fill="#575757" stroke="#000000" stroke-width="0.5" stroke-linecap="butt"/><path d="M235.48006,93.12986l-0.14873,-0.52996l1.36819,-0.384l0.14873,0.52996z" fill="#575757" stroke="#000000" stroke-width="0.5" stroke-linecap="butt"/><path d="M237.87182,92.50657l-0.14873,-0.52996l1.36819,-0.384l0.14873,0.52995z" fill="#575757" stroke="#000000" stroke-width="0.5" stroke-linecap="butt"/><path d="M240.00492,91.89691l-0.14873,-0.52996l1.36819,-0.384l0.14873,0.52996z" fill="#575757" stroke="#000000" stroke-width="0.5" stroke-linecap="butt"/><path d="M242.11338,91.30512l-0.14873,-0.52996l1.36819,-0.384l0.14873,0.52996z" fill="#575757" stroke="#000000" stroke-width="0.5" stroke-linecap="butt"/><path d="M244.24646,90.69551l-0.14873,-0.52995l1.36819,-0.384l0.14873,0.52995z" fill="#575757" stroke="#000000" stroke-width="0.5" stroke-linecap="butt"/><path d="M246.39848,90.11041l-0.14873,-0.52995l1.36819,-0.384l0.14873,0.52995z" fill="#575757" stroke="#000000" stroke-width="0.5" stroke-linecap="butt"/><path d="M246.98967,103.05105l-0.87425,-3.11487l1.66868,-0.46835l0.87425,3.11487z" fill="#585858" stroke="#000000" stroke-width="1.5" stroke-linecap="butt"/><path d="M225.87681,103.32074l-1.4143,-5.03902l2.27566,-0.6387l1.4143,5.03902z" fill="#c7c7c7" stroke="#000000" stroke-width="1" stroke-linecap="butt"/><path d="M231.24672,117.9044l2.71573,-11.62991c0,0 2.76485,-0.84622 3.63289,-0.84082c0.86041,0.00538 1.376,3.09514 1.376,3.09514l-2.13596,9.60279z" fill="#262626" stroke="#000000" stroke-width="2" stroke-linecap="butt"/></g><path d="M228.0369,98.19791c-1.72824,3.48709 -18.84649,-1.12982 -20.38243,-4.11073c-1.76155,-3.41876 -0.88479,-11.14735 3.34469,-16.46374c3.5528,-4.4658 9.04743,-4.1335 13.40305,-2.7684c3.66226,1.14777 9.02105,1.47354 9.81196,5.14939c-2.39237,7.5867 -3.14713,10.78708 -6.17727,18.19346z" data-paper-data="{&quot;index&quot;:null}" fill="url(#color-4)" stroke="none" stroke-width="0" stroke-linecap="butt"/><path d="M216.97823,91.49719c0.43605,-1.6639 1.9357,-2.71236 3.34957,-2.34184c1.41386,0.37053 2.20653,2.01973 1.77048,3.68364c-0.43605,1.6639 -1.9357,2.71236 -3.34957,2.34184c-1.41386,-0.37053 -2.20653,-2.01973 -1.77048,-3.68364z" data-paper-data="{&quot;index&quot;:null}" fill="url(#color-5)" stroke="none" stroke-width="0" stroke-linecap="butt"/><path d="M219.6365,93.31289c-0.88215,-0.23118 -1.40985,-1.13372 -1.17868,-2.01586c0.23118,-0.88215 1.13372,-1.40985 2.01586,-1.17868c0.88215,0.23118 1.40986,1.13372 1.17868,2.01586c-0.23118,0.88215 -1.13372,1.40985 -2.01586,1.17868z" data-paper-data="{&quot;index&quot;:null}" fill="#000000" stroke="none" stroke-width="0" stroke-linecap="butt"/><path d="M215.27283,94.3315c0,0 0.10201,-2.12612 0.35545,-3.09318c0.25808,-0.98482 1.17939,-2.76345 1.17939,-2.76345" data-paper-data="{&quot;index&quot;:null}" fill="none" stroke="#000000" stroke-width="2.5" stroke-linecap="round"/><path d="M217.90116,83.86808c0,0 0.10199,-2.12611 0.35545,-3.09318c0.25808,-0.98482 1.17939,-2.76345 1.17939,-2.76345" data-paper-data="{&quot;index&quot;:null}" fill="none" stroke="#000000" stroke-width="2.5" stroke-linecap="round"/><path d="M219.52282,81.35322c0.43605,-1.6639 1.9357,-2.71236 3.34957,-2.34184c1.41386,0.37053 2.20653,2.01973 1.77048,3.68364c-0.43605,1.6639 -1.9357,2.71236 -3.34955,2.34184c-1.41386,-0.37053 -2.20653,-2.01973 -1.77048,-3.68364z" data-paper-data="{&quot;index&quot;:null}" fill="url(#color-6)" stroke="none" stroke-width="0" stroke-linecap="butt"/><path d="M222.18112,83.16895c-0.88215,-0.23118 -1.40986,-1.13372 -1.17868,-2.01586c0.23118,-0.88215 1.13372,-1.40985 2.01586,-1.17868c0.88215,0.23118 1.40985,1.13372 1.17868,2.01586c-0.23118,0.88215 -1.13372,1.40985 -2.01586,1.17868z" data-paper-data="{&quot;index&quot;:null}" fill="#000000" stroke="none" stroke-width="0" stroke-linecap="butt"/><path d="M233.67481,83.14355l-0.85087,0.50004l0.50522,0.98812l-0.57575,0.86979l-0.65278,0.9126l-0.91692,0.44068l-0.27515,1.0081l-0.50014,0.49339l0.01103,0.89737l0.3754,1.67226l-0.66677,0.99495l0.11792,1.15539l0.07046,0.96994l-1.23517,0.63191l-0.60835,1.09607l-0.75777,-0.75686l-0.79042,0.96928l-1.14013,-0.21456l0.07727,-1.11376l-0.69228,-0.39096l-0.72682,-0.94202l0.2913,-0.97601l-0.0935,-1.19362l0.33487,-0.81483l-0.34931,-0.98444l0.32156,-1.36989l-0.24607,-1.64239l1.03338,-0.51538l0.59215,-1.09257l0.88389,-0.42707l0.30112,-0.9055l0.84483,-0.44553l-0.19926,-1.07622l1.16063,-0.17872l0.60964,-0.23644l0.13117,-0.95351l1.74158,0.07264l0.86421,0.94963l0.93764,0.88344z" data-paper-data="{&quot;index&quot;:null}" fill="url(#color-7)" stroke="#000000" stroke-width="0" stroke-linecap="butt"/><path d="M211.26055,97.76639l-1.93893,0.21711l-1.49224,-0.7395l-1.75403,-0.10057l-0.11767,-1.08102l-0.06086,-0.87881l-1.01981,-0.81894l0.89614,-1.34937l-0.18828,-1.32261l-0.86924,-1.67514l1.1546,-0.72138l-0.18555,-1.80781l0.3167,-1.98524l0.43183,-1.39218c0,0 0.98611,-0.01735 1.32136,-0.30232c0.33861,-0.28783 0.70027,-1.41617 0.70027,-1.41617l-0.56932,-1.2911l0.56218,-1.18451l0.68558,-1.38227l0.26292,-1.35553l0.24963,-1.32274l1.25319,1.16458l0.96323,-0.3102l1.23731,-0.51127l1.53103,-0.37409c0,0 0.88458,0.33279 1.04575,0.64849c0.14194,0.27802 -0.12079,1.39307 -0.12079,1.39307l-0.81603,1.37228l0.94173,1.12686c0,0 -0.10584,0.9689 -0.18602,1.17902c-0.12029,0.31525 -0.90002,0.41461 -0.90002,0.41461l-0.00969,1.34516c0,0 0.0135,0.25627 -0.11978,0.57435c-0.09164,0.2187 -0.74496,0.38657 -0.85247,0.49815c-0.1886,0.19578 -0.89685,0.30284 -0.89685,0.30284c0,0 -0.21338,0.56783 -0.17248,0.8883c0.05054,0.39596 1.28264,1.08404 1.28264,1.08404l-0.50955,1.44154l-0.4665,0.98062l-0.78921,1.37686l0.11278,1.08837l0.45332,1.73824l0.03103,1.53022l-1.40199,0.82841l0.66232,1.2878z" data-paper-data="{&quot;index&quot;:null}" fill="#000000" stroke="#000000" stroke-width="0.5" stroke-linecap="butt"/><path d="M270.07379,76.04028c-1.33774,1.74451 -25.65285,4.38066 -25.65285,4.38066" data-paper-data="{&quot;index&quot;:null}" fill="none" stroke="#121212" stroke-width="10" stroke-linecap="round"/><path d="M225.72895,104.83966l9.12557,-27.20119c0,0 12.50243,5.17347 18.82178,7.00593c6.20996,1.80073 19.18632,3.68297 19.18632,3.68297c0,0 -0.96344,9.82645 -2.46426,14.36377c-1.49802,4.52884 -6.53231,12.83475 -6.53231,12.83475c0,0 -11.96669,-4.05065 -18.23738,-5.80775c-6.43729,-1.80375 -19.89968,-4.8785 -19.89968,-4.8785z" data-paper-data="{&quot;index&quot;:null}" fill="#191919" stroke="none" stroke-width="0" stroke-linecap="butt"/><path d="M240.08549,78.48445c0,0 11.10847,0.78445 15.47027,2.87181c4.66899,1.52022 16.78102,6.22208 16.78102,6.22208c0,0 0.58378,10.26959 -0.99028,15.89546c-1.57404,5.6259 -7.75741,13.03676 -7.75741,13.03676c0,0 -14.74844,-5.27961 -19.14815,-7.5148c-1.93602,-0.6855 -12.3369,-6.7525 -12.3369,-6.7525c0,0 0.45309,-3.12508 1.836,-6.4731c0.93582,-2.26563 2.22276,-5.86324 3.10499,-8.18484c0.943,-2.48157 0.33452,-1.58397 0.85634,-2.95854z" data-paper-data="{&quot;index&quot;:null}" fill="url(#color-8)" stroke="#000000" stroke-width="2" stroke-linecap="butt"/><path d="M258.32754,111.72675c-1.56416,-0.56603 -8.03014,-2.9864 -8.03014,-2.9864c0,0 0.7214,-1.99355 1.08714,-3.00425c0.37259,-1.02961 1.12822,-3.11774 1.12822,-3.11774c0,0 6.45408,2.33557 8.0559,2.91521c0.69871,0.25285 1.23527,1.06432 0.99486,1.72864c-0.46344,1.28066 -1.22864,3.16882 -1.46348,3.81781c-0.1366,0.37746 -1.12973,0.87929 -1.77251,0.64669z" data-paper-data="{&quot;index&quot;:null}" fill="url(#color-9)" stroke="#000000" stroke-width="1" stroke-linecap="butt"/><path d="M252.65024,110.38781c0,0 -2.59397,-0.93869 -3.33867,-1.20819c-0.34334,-0.12424 -0.72207,-0.98498 -0.5243,-1.53154c0.32373,-0.89461 1.27615,-3.52652 1.7889,-4.94344c0.18769,-0.51868 0.98712,-0.76095 1.37849,-0.61931c0.76706,0.27759 3.2716,1.1839 3.2716,1.1839z" data-paper-data="{&quot;index&quot;:null}" fill="#282828" stroke="#000000" stroke-width="1" stroke-linecap="butt"/><text transform="translate(240.72001,91.37479) rotate(-70.10779) scale(0.06656,0.06656)" font-size="40" xml:space="preserve" data-paper-data="{&quot;index&quot;:null}" fill="#ffffff" fill-rule="nonzero" stroke="#ffffff" stroke-width="2" stroke-linecap="butt" stroke-linejoin="miter" stroke-miterlimit="10" stroke-dasharray="" stroke-dashoffset="0" font-family="Sans Serif" font-weight="normal" text-anchor="start" style="mix-blend-mode: normal"><tspan x="0" dy="0">S.O.A.S.T</tspan></text><path d="M249.8717,91.37953c-0.63395,0.09455 -1.29703,0.05071 -1.94528,-0.15212" data-paper-data="{&quot;index&quot;:null}" fill="#e6e016" stroke="#ff1919" stroke-width="3" stroke-linecap="butt"/><path d="M234.90894,78.39897c0,0 2.28225,-0.69925 3.25998,-0.4056c0.93707,0.28144 2.7129,1.32441 2.7129,1.32441l-2.38746,6.8111c0,0 -2.33347,-1.86062 -2.4536,-1.90339c-0.84233,-0.30008 -3.05003,-0.18391 -3.05003,-0.18391z" data-paper-data="{&quot;index&quot;:null}" fill="#000000" stroke="#000000" stroke-width="0.5" stroke-linecap="butt"/><path d="M246.20842,90.10484c-0.46384,-0.53501 -0.7688,-1.19287 -0.87714,-1.89296" data-paper-data="{&quot;index&quot;:null}" fill="none" stroke="#1921ff" stroke-width="3" stroke-linecap="butt"/><path d="M245.5533,86.25432c0.31386,-0.7921 0.86999,-1.4208 1.5517,-1.83144" data-paper-data="{&quot;index&quot;:null}" fill="none" stroke="#4aff19" stroke-width="3" stroke-linecap="butt"/><path d="M249.12735,83.88285c0.39818,0.00868 0.80175,0.08134 1.19701,0.22437c0.26384,0.09548 0.51046,0.21743 0.73795,0.36178" data-paper-data="{&quot;index&quot;:null}" fill="none" stroke="#fff719" stroke-width="3" stroke-linecap="butt"/><path d="M252.31313,85.70253c0.31334,0.6109 0.45971,1.30604 0.40392,2.01033" data-paper-data="{&quot;index&quot;:null}" fill="none" stroke="#ff9319" stroke-width="3" stroke-linecap="butt"/><path d="M264.51521,93.89309c-1.56416,-0.56603 -8.03014,-2.9864 -8.03014,-2.9864l2.21538,-6.12198c0,0 6.45408,2.33557 8.0559,2.91521c0.69871,0.25285 1.23527,1.06432 0.99486,1.72864c-0.46344,1.28066 -1.22864,3.16882 -1.46348,3.81781c-0.1366,0.37746 -1.12973,0.87929 -1.77251,0.64669z" data-paper-data="{&quot;index&quot;:null}" fill="url(#color-10)" stroke="#000000" stroke-width="1" stroke-linecap="butt"/><path d="M252.56542,90.8082l-3.62307,-3.3465" data-paper-data="{&quot;index&quot;:null}" fill="none" stroke="#000000" stroke-width="1.5" stroke-linecap="round"/><path d="M248.45327,89.04198c-0.79006,-0.2859 -1.19876,-1.15813 -0.91285,-1.94822c0.2859,-0.79006 1.15813,-1.19876 1.94822,-0.91285c0.79006,0.2859 1.19876,1.15813 0.91285,1.94822c-0.2859,0.79006 -1.15813,1.19876 -1.94822,0.91285z" data-paper-data="{&quot;index&quot;:null}" fill="#ffffff" stroke="none" stroke-width="3" stroke-linecap="butt"/><path d="M229.21336,95.38346c0,0 1.75745,0.47762 2.72976,0.70933c1.06475,0.25375 3.00214,0.33644 3.00214,0.33644l-2.06383,5.78851c0,0 -2.09024,0.52999 -3.14557,0.16703c-0.9422,-0.32403 -2.79763,-0.97278 -2.79763,-0.97278z" data-paper-data="{&quot;index&quot;:null}" fill="#000000" stroke="#000000" stroke-width="0.5" stroke-linecap="butt"/><path d="M209.55593,79.55431c2.14677,-3.76023 -3.11444,-5.36262 1.08876,-7.26474c4.81727,-2.17309 13.99738,-0.21326 19.98557,1.65957c4.27206,2.59601 4.28606,2.02415 3.79207,7.41685c-0.59366,4.64411 -2.05251,11.32248 -3.72108,15.66092c-0.13043,0.33917 -0.38878,1.06815 -0.49619,1.22742c-3.12716,2.43429 -4.4378,2.82851 -7.75993,2.72767c-0.34076,-0.01041 -6.19753,-1.44893 -9.40272,-3.49079c-3.50955,-2.09806 -3.95252,-0.71935 -5.70421,-3.96448c-1.30188,-2.41054 1.19523,-6.80503 2.40233,-8.91417z" data-paper-data="{&quot;index&quot;:null}" fill="#3e3e3e" stroke="#000000" stroke-width="1.5" stroke-linecap="round"/><path d="M258.88654,92.41975c0,0 -2.59397,-0.93869 -3.33867,-1.20819c-0.34334,-0.12424 -0.72207,-0.98498 -0.5243,-1.53154c0.32373,-0.89461 1.27615,-3.52652 1.7889,-4.94344c0.18769,-0.51868 0.98712,-0.76095 1.37849,-0.61931c0.76706,0.27759 3.2716,1.1839 3.2716,1.1839z" data-paper-data="{&quot;index&quot;:null}" fill="#282828" stroke="#000000" stroke-width="1" stroke-linecap="butt"/><path d="M237.09936,82.65097c-0.99566,2.7514 -4.91304,6.19016 -8.01608,5.06724c-1.63884,-0.59304 -3.18114,-1.4763 -4.19678,-2.6091c-0.90743,-1.01206 -1.50977,-2.42785 -1.03995,-3.72613c0.36669,-1.01336 1.02224,-2.93937 2.33128,-3.8157c2.24524,-1.50304 5.68728,-1.60343 7.64747,-0.89409c0,0 4.26972,3.22636 3.27406,5.97777z" data-paper-data="{&quot;index&quot;:null}" fill="#151515" stroke="#000000" stroke-width="1.5" stroke-linecap="butt"/><path d="M233.60027,76.9524c2.4117,0.87274 3.74119,3.30899 2.96948,5.44153c-0.77172,2.13255 -3.35239,3.15382 -5.76411,2.28108c-2.4117,-0.87274 -3.74118,-3.309 -2.96947,-5.44153c0.77172,-2.13255 3.35239,-3.15381 5.7641,-2.28107z" data-paper-data="{&quot;index&quot;:null}" fill="#313131" stroke="#000000" stroke-width="1.5" stroke-linecap="butt"/><g data-paper-data="{&quot;index&quot;:null}" stroke="#000000" stroke-width="1" stroke-linecap="butt"><path d="M245.64807,104.177c-1.13127,-0.40939 -5.80502,-2.16747 -5.80502,-2.16747l1.83782,-5.07863c0,0 4.6679,1.6892 5.82641,2.10841c0.50534,0.18288 0.87239,0.8278 0.67295,1.37891c-0.38446,1.06241 -1.01152,2.63157 -1.20637,3.16996c-0.11331,0.31314 -0.8609,0.75705 -1.32577,0.58883z" fill="url(#color-11)"/><path d="M241.55799,103.16439c0,0 -1.87607,-0.67888 -2.41469,-0.87381c-0.24832,-0.08984 -0.49763,-0.78044 -0.33356,-1.23383c0.26856,-0.74215 1.05866,-2.9255 1.48403,-4.10094c0.1557,-0.43026 0.75196,-0.65547 1.03505,-0.55305c0.55478,0.20076 2.36618,0.85626 2.36618,0.85626z" fill="#282828"/></g><path d="M211.89642,74.82921c0.5966,-1.18044 1.73914,-1.95256 3.09955,-2.24599c1.36406,-0.29127 2.94624,-0.1036 4.42376,0.63246c1.47752,0.73611 2.57475,1.88324 3.15488,3.14304c0.57649,1.2583 0.63558,2.62912 0.03899,3.80955c-0.59672,1.1807 -1.73897,1.95302 -3.09956,2.24598c-1.36417,0.29152 -2.94623,0.10359 -4.42375,-0.63247c-1.47752,-0.73611 -2.57492,-1.88293 -3.15488,-3.14304c-0.57633,-1.25788 -0.63575,-2.62883 -0.03901,-3.80953z" data-paper-data="{&quot;index&quot;:null}" fill="#000000" stroke="#000000" stroke-width="2" stroke-linecap="butt"/><path d="M226.74329,103.61489c0,0 1.80271,0.87349 5.37743,5.068c0.69166,2.4898 0.44328,23.28083 0.60602,27.03961" data-paper-data="{&quot;index&quot;:null}" fill="none" stroke="#121212" stroke-width="10" stroke-linecap="round"/><path d="M213.44296,74.26213c0.5038,-0.96382 1.49622,-1.58035 2.6895,-1.79743c1.19652,-0.21526 2.59412,-0.03095 3.90961,0.6043c1.31553,0.63529 2.30358,1.603 2.83812,2.65417c0.53129,1.04987 0.60875,2.18306 0.10498,3.14689c-0.50389,0.96405 -1.49607,1.5807 -2.68949,1.79743c-1.19662,0.21546 -2.59412,0.03095 -3.90963,-0.60429c-1.31552,-0.6353 -2.30374,-1.60275 -2.83811,-2.65419c-0.53113,-1.04952 -0.60889,-2.18284 -0.10498,-3.14689z" data-paper-data="{&quot;index&quot;:null}" fill="url(#color-12)" stroke="#000000" stroke-width="2" stroke-linecap="butt"/><path d="M209.32306,93.38227c0,0 19.89305,6.44869 19.49291,6.95606c-0.62251,0.78927 -1.29046,0.22582 -2.24372,1.92937c-0.51473,0.91987 -0.93361,3.47761 -2.06319,4.98477c-0.82928,1.10649 -21.97916,-6.23426 -21.97916,-6.23426c0,0 -6.33631,-3.40447 -4.24914,-15.77875c4.86587,-13.68593 11.67584,-12.77751 11.67584,-12.77751c0,0 0.65713,2.70297 1.93002,7.7066c1.26635,4.97799 -1.60739,11.02419 -1.60739,11.02419z" data-paper-data="{&quot;index&quot;:null}" fill="#1e1e1e" stroke="#000000" stroke-width="1.5" stroke-linecap="butt"/><path d="M212.55526,86.4244c0.5966,-1.18044 1.73913,-1.95257 3.09956,-2.24598c1.36406,-0.29127 2.94625,-0.10358 4.42376,0.63246c1.47752,0.73611 2.57474,1.88323 3.15488,3.14304c0.57649,1.2583 0.63559,2.6291 0.03902,3.80954c-0.59672,1.1807 -1.73897,1.95302 -3.09956,2.24598c-1.36417,0.29152 -2.94624,0.10358 -4.42375,-0.63247c-1.47752,-0.73611 -2.57494,-1.88291 -3.15489,-3.14303c-0.57633,-1.25788 -0.63574,-2.62885 -0.03901,-3.80953z" data-paper-data="{&quot;index&quot;:null}" fill="#000000" stroke="#000000" stroke-width="2" stroke-linecap="butt"/><path d="M214.10184,85.85728c0.5038,-0.96382 1.49622,-1.58035 2.6895,-1.79743c1.19652,-0.21526 2.59412,-0.03095 3.90963,0.60429c1.31552,0.6353 2.30358,1.60301 2.83812,2.65417c0.53129,1.04987 0.60875,2.18306 0.10498,3.14689c-0.50389,0.96405 -1.49607,1.5807 -2.68949,1.79743c-1.19662,0.21546 -2.59412,0.03095 -3.90963,-0.60429c-1.31552,-0.6353 -2.30374,-1.60275 -2.83811,-2.65419c-0.53113,-1.04952 -0.60889,-2.18284 -0.10498,-3.14689z" data-paper-data="{&quot;index&quot;:null}" fill="url(#color-13)" stroke="#000000" stroke-width="2" stroke-linecap="butt"/><path d="M216.19716,82.62435c1.58417,-0.3229 3.42537,-0.09743 5.14873,0.75341c1.72336,0.8509 3.00742,2.16844 3.691,3.61094c0.6793,1.44078 0.31705,2.87226 -0.36835,4.2158c-0.68557,1.34385 -1.56774,2.35166 -3.14785,2.67653c-1.5843,0.32319 -3.42537,0.09743 -5.14873,-0.75341c-1.72336,-0.8509 -2.89748,-2.13457 -3.58081,-3.57745c-0.6791,-1.44029 -0.20709,-2.83845 0.47848,-4.1823c0,0 1.34761,-2.41819 2.92753,-2.74356z" data-paper-data="{&quot;index&quot;:null}" fill="url(#color-14)" stroke="#000000" stroke-width="0" stroke-linecap="butt"/><path d="M215.46769,71.34598c1.58235,-0.26432 3.43557,-0.01061 5.18514,0.82423c1.7496,0.83489 3.06924,2.09516 3.78911,3.45802c0.71557,1.36116 0.38558,2.6892 -0.27078,3.92755c-0.65652,1.23865 -1.51828,2.15892 -3.0965,2.42516c-1.5825,0.26459 -3.43557,0.01061 -5.18515,-0.82424c-1.7496,-0.83489 -2.9581,-2.06094 -3.67776,-3.42416c-0.71537,-1.3607 -0.27443,-2.65502 0.38212,-3.89366c0,0 1.29577,-2.22619 2.87382,-2.49292z" data-paper-data="{&quot;index&quot;:null}" fill="url(#color-15)" stroke="#000000" stroke-width="0" stroke-linecap="butt"/><path d="M214.27791,96.26711l1.20186,-0.64111" data-paper-data="{&quot;index&quot;:null}" fill="none" stroke="#000000" stroke-width="1" stroke-linecap="round"/><path d="M215.23945,96.41582l-0.77276,-1.24192" data-paper-data="{&quot;index&quot;:null}" fill="none" stroke="#000000" stroke-width="1" stroke-linecap="round"/><path d="M213.65905,79.96035l1.3259,-0.31223" data-paper-data="{&quot;index&quot;:null}" fill="none" stroke="#000000" stroke-width="1" stroke-linecap="round"/><path d="M214.33306,80.68671l-0.42923,-1.39831" data-paper-data="{&quot;index&quot;:null}" fill="none" stroke="#000000" stroke-width="1" stroke-linecap="round"/><path d="M254.60752,108.46231l-2.67405,-0.96768l0.87402,-2.41526l2.67405,0.96768z" data-paper-data="{&quot;index&quot;:null}" fill="#000000" stroke="none" stroke-width="0" stroke-linecap="butt"/><path d="M264.10916,75.12764" data-paper-data="{&quot;index&quot;:null}" fill="none" stroke="url(#color-16)" stroke-width="10" stroke-linecap="round"/><path d="M271.31918,82.53156c-2.95417,-0.0001 -5.31413,-0.9858 -5.31406,-3.81393c0.00003,-1.44267 0.09982,-5.00693 0.78171,-6.21878c0.65482,-1.16379 3.74403,-1.21826 5.19125,-1.21822c2.95417,0.0001 4.36111,3.11596 4.36102,5.9441c-0.00007,2.8281 -2.06574,5.30695 -5.01989,5.30683z" data-paper-data="{&quot;index&quot;:null}" fill="#000000" stroke="url(#color-17)" stroke-width="0" stroke-linecap="butt"/><path d="M261.44264,102.75116c-1.56416,-0.56603 -8.03014,-2.9864 -8.03014,-2.9864l2.21538,-6.12198c0,0 6.45408,2.33557 8.0559,2.91521c0.69871,0.25285 1.23527,1.06432 0.99486,1.72864c-0.46344,1.28066 -1.22864,3.16882 -1.46348,3.81781c-0.1366,0.37746 -1.12973,0.87929 -1.77251,0.64669z" data-paper-data="{&quot;index&quot;:null}" fill="url(#color-18)" stroke="#000000" stroke-width="1" stroke-linecap="butt"/><path d="M255.81393,101.27783c0,0 -2.59397,-0.93869 -3.33867,-1.20819c-0.34334,-0.12424 -0.72207,-0.98498 -0.5243,-1.53154c0.32373,-0.89461 1.27615,-3.52652 1.7889,-4.94344c0.18769,-0.51868 0.98712,-0.76095 1.37849,-0.61931c0.76706,0.27759 3.2716,1.1839 3.2716,1.1839z" data-paper-data="{&quot;index&quot;:null}" fill="#282828" stroke="#000000" stroke-width="1" stroke-linecap="butt"/><path d="M257.72262,99.48668l-2.67405,-0.96768l0.87402,-2.41526l2.67405,0.96768z" data-paper-data="{&quot;index&quot;:null}" fill="#000000" stroke="none" stroke-width="0" stroke-linecap="butt"/><path d="M260.7952,90.62861l-2.67405,-0.96768l0.87402,-2.41526l2.67405,0.96768z" data-paper-data="{&quot;index&quot;:null}" fill="#000000" stroke="none" stroke-width="0" stroke-linecap="butt"/><g data-paper-data="{&quot;index&quot;:null}" stroke="#000000"><g data-paper-data="{&quot;index&quot;:null}"><path d="M229.53975,141.55182l3.60873,-13.20236l3.89424,1.18342l-3.79892,13.04273z" data-paper-data="{&quot;index&quot;:null}" fill="url(#color-19)" stroke-width="2" stroke-linecap="butt"/><path d="M210.27551,206.00042l17.04789,-63.54043l7.42639,2.02636c0,0 -0.9087,1.81011 -2.82763,8.96233c-2.0503,7.64204 -10.69933,32.76328 -13.68953,43.9083c-1.58744,5.91676 -7.95706,8.64347 -7.95706,8.64347z" data-paper-data="{&quot;index&quot;:null}" fill="url(#color-20)" stroke-width="2" stroke-linecap="butt"/><path d="M235.10912,144.0644l-8.01261,-1.85372" data-paper-data="{&quot;index&quot;:null}" fill="none" stroke-width="4" stroke-linecap="round"/><path d="M230.3967,139.15796l3.32891,0.93169" data-paper-data="{&quot;index&quot;:null}" fill="none" stroke-width="2" stroke-linecap="round"/><path d="M231.37053,136.69098l3.1537,0.88271" data-paper-data="{&quot;index&quot;:null}" fill="none" stroke-width="1.5" stroke-linecap="round"/><path d="M234.94194,134.60982l-3.06613,-0.85816" data-paper-data="{&quot;index&quot;:null}" fill="none" stroke-width="1.5" stroke-linecap="round"/><path d="M235.99319,132.18639l-3.0661,-0.85816" data-paper-data="{&quot;index&quot;:null}" fill="none" stroke-width="1.5" stroke-linecap="round"/></g><path d="M231.10838,143.35417c0,0 -13.51342,46.53777 -16.06505,55.27348c-0.79959,2.73734 -3.90316,5.77069 -3.90316,5.77069" fill="none" stroke-width="1" stroke-linecap="round"/></g><path d="M226.92894,139.08072c0.06829,-2.18108 0.58801,-3.53538 1.99428,-4.05858c0.49751,-0.18508 1.106,-0.26617 1.84466,-0.24304c1.44195,0.04515 4.89648,0.0294 6.0864,0.74884c1.14276,0.6909 1.34473,3.11667 1.29943,4.56318c-0.09245,2.95272 -3.25082,4.26154 -6.07755,4.17303c-2.82674,-0.0885 -5.23974,-2.23065 -5.14727,-5.18337z" data-paper-data="{&quot;index&quot;:null}" fill="#000000" stroke="url(#color-21)" stroke-width="0" stroke-linecap="butt"/></g></g></svg>