<svg version="1.1" xmlns="http://www.w3.org/2000/svg" xmlns:xlink="http://www.w3.org/1999/xlink" width="489.4757" height="556.6959" viewBox="0,0,489.4757,556.6959"><defs><radialGradient cx="414.88329" cy="88.75284" r="12.78495" gradientUnits="userSpaceOnUse" id="color-1"><stop offset="0" stop-color="#00b11b"/><stop offset="1" stop-color="#00b11b" stop-opacity="0"/></radialGradient><radialGradient cx="42.97388" cy="145.35612" r="12.78495" gradientUnits="userSpaceOnUse" id="color-2"><stop offset="0" stop-color="#00b11b"/><stop offset="1" stop-color="#00b11b" stop-opacity="0"/></radialGradient><radialGradient cx="94.88329" cy="314.75282" r="12.78495" gradientUnits="userSpaceOnUse" id="color-3"><stop offset="0" stop-color="#00b11b"/><stop offset="1" stop-color="#00b11b" stop-opacity="0"/></radialGradient><radialGradient cx="368.38329" cy="316.25282" r="12.78495" gradientUnits="userSpaceOnUse" id="color-4"><stop offset="0" stop-color="#00b11b"/><stop offset="1" stop-color="#00b11b" stop-opacity="0"/></radialGradient><linearGradient x1="332.36122" y1="294.97567" x2="332.36122" y2="335.30136" gradientUnits="userSpaceOnUse" id="color-5"><stop offset="0" stop-color="#007616"/><stop offset="1" stop-color="#001503"/></linearGradient><linearGradient x1="136.10044" y1="200.14303" x2="136.10044" y2="214.14303" gradientUnits="userSpaceOnUse" id="color-6"><stop offset="0" stop-color="#373737"/><stop offset="1" stop-color="#1b1b1b"/></linearGradient><linearGradient x1="112.66803" y1="162.67237" x2="112.66803" y2="180.47136" gradientUnits="userSpaceOnUse" id="color-7"><stop offset="0" stop-color="#007616"/><stop offset="1" stop-color="#001603"/></linearGradient><linearGradient x1="156.08741" y1="196.80702" x2="156.08741" y2="213.8813" gradientUnits="userSpaceOnUse" id="color-8"><stop offset="0" stop-color="#007817"/><stop offset="1" stop-color="#001a04"/></linearGradient><linearGradient x1="418.4262" y1="307.71702" x2="418.4262" y2="334.21702" gradientUnits="userSpaceOnUse" id="color-9"><stop offset="0" stop-color="#373737"/><stop offset="1" stop-color="#1b1b1b"/></linearGradient><linearGradient x1="413.3762" y1="314.76702" x2="413.3762" y2="331.36701" gradientUnits="userSpaceOnUse" id="color-10"><stop offset="0" stop-color="#007817"/><stop offset="1" stop-color="#001a04"/></linearGradient><linearGradient x1="321.79303" y1="198.02897" x2="321.79303" y2="213.83822" gradientUnits="userSpaceOnUse" id="color-11"><stop offset="0" stop-color="#007817"/><stop offset="1" stop-color="#001a04"/></linearGradient></defs><g transform="translate(3.14671,91.47224)"><g data-paper-data="{&quot;isPaintingLayer&quot;:true}" fill-rule="nonzero" stroke-linejoin="miter" stroke-miterlimit="10" stroke-dasharray="" stroke-dashoffset="0" style="mix-blend-mode: normal"><g stroke="#0a0a0a"><path d="M414.40918,93.83158c0,0 0.34247,2.60681 1.09178,5.66303c0.45819,1.86881 -1.89178,4.07639 -1.89178,5.11418c0,2.3245 0.8,4.30365 0.8,4.30365" fill="none" stroke-width="3" stroke-linecap="round"/><path d="M410.98325,92.20527c0,-0.50461 -0.22222,-1.86338 -0.22222,-3.11111c0,-1.61703 0.22222,-3.12305 0.22222,-3.12305c0,0 1.77117,-1.97674 3.6,-1.97674c1.82883,0 3.8,1.97674 3.8,1.97674c0,0 0.22222,1.57936 0.22222,3.12305c0,1.02534 -0.22222,2.03494 -0.22222,2.55556c0,0.68577 -0.75187,1.56943 -1.3706,1.56943c-0.89149,0 -3.40354,0 -4.88889,0c-0.67685,0 -1.14051,-0.57686 -1.14051,-1.01387z" fill="#007811" stroke-width="2" stroke-linecap="butt"/><path d="M402.09832,88.75284c0,-6.65494 5.72402,-12.04983 12.78495,-12.04983c7.06094,0 12.78495,5.39489 12.78495,12.04983c0,6.65494 -5.72402,12.04983 -12.78495,12.04983c-7.06094,0 -12.78495,-5.39489 -12.78495,-12.04983z" fill="url(#color-1)" stroke-width="0" stroke-linecap="butt"/></g><g stroke="#0a0a0a"><path d="M43.65088,150.41181c0,0 0.91839,2.4636 2.33404,5.27391c0.86564,1.71844 -0.92936,4.39683 -0.69661,5.40818c0.52133,2.26529 1.74482,4.0146 1.74482,4.0146" fill="none" stroke-width="3" stroke-linecap="round"/><path d="M39.94747,149.59528c-0.11317,-0.49176 -0.63447,-1.76607 -0.9143,-2.98202c-0.36266,-1.57584 -0.48386,-3.09333 -0.48386,-3.09333c0,0 1.28272,-2.32361 3.06496,-2.73377c1.78224,-0.41016 4.14653,1.07414 4.14653,1.07414c0,0 0.57077,1.48929 0.91698,2.99366c0.22996,0.99922 0.23983,2.03294 0.35659,2.5403c0.1538,0.6683 -0.38073,1.69808 -0.9837,1.83684c-0.86878,0.19994 -3.31684,0.76333 -4.76435,1.09645c-0.65961,0.1518 -1.24083,-0.30638 -1.33884,-0.73226z" fill="#007811" stroke-width="2" stroke-linecap="butt"/><path d="M30.5146,148.22347c-1.49253,-6.48541 2.87574,-13.02662 9.7568,-14.61021c6.88107,-1.58359 13.6692,2.39012 15.16173,8.87554c1.49253,6.48541 -2.87574,13.02662 -9.7568,14.61021c-6.88107,1.58359 -13.6692,-2.39012 -15.16173,-8.87554z" fill="url(#color-2)" stroke-width="0" stroke-linecap="butt"/></g><g stroke="#0a0a0a"><path d="M94.40918,319.83156c0,0 0.34247,2.60681 1.09178,5.66303c0.45819,1.86881 -1.89178,4.07639 -1.89178,5.11418c0,2.3245 0.8,4.30365 0.8,4.30365" fill="none" stroke-width="3" stroke-linecap="round"/><path d="M90.98325,318.20527c0,-0.50461 -0.22222,-1.86338 -0.22222,-3.11111c0,-1.61703 0.22222,-3.12305 0.22222,-3.12305c0,0 1.77117,-1.97674 3.6,-1.97674c1.82883,0 3.8,1.97674 3.8,1.97674c0,0 0.22222,1.57936 0.22222,3.12305c0,1.02534 -0.22222,2.03494 -0.22222,2.55556c0,0.68577 -0.75187,1.56943 -1.3706,1.56943c-0.89149,0 -3.40354,0 -4.88889,0c-0.67685,0 -1.14051,-0.57686 -1.14051,-1.01387z" fill="#007811" stroke-width="2" stroke-linecap="butt"/><path d="M82.09832,314.75282c0,-6.65494 5.72402,-12.04983 12.78495,-12.04983c7.06094,0 12.78495,5.39489 12.78495,12.04983c0,6.65494 -5.72402,12.04983 -12.78495,12.04983c-7.06094,0 -12.78495,-5.39489 -12.78495,-12.04983z" fill="url(#color-3)" stroke-width="0" stroke-linecap="butt"/></g><g stroke="#0a0a0a"><path d="M367.90918,321.33156c0,0 0.34247,2.60681 1.09178,5.66303c0.45819,1.86881 -1.89178,4.07639 -1.89178,5.11418c0,2.3245 0.8,4.30365 0.8,4.30365" fill="none" stroke-width="3" stroke-linecap="round"/><path d="M364.48325,319.70527c0,-0.50461 -0.22222,-1.86338 -0.22222,-3.11111c0,-1.61703 0.22222,-3.12305 0.22222,-3.12305c0,0 1.77117,-1.97674 3.6,-1.97674c1.82883,0 3.8,1.97674 3.8,1.97674c0,0 0.22222,1.57936 0.22222,3.12305c0,1.02534 -0.22222,2.03494 -0.22222,2.55556c0,0.68577 -0.75187,1.56943 -1.3706,1.56943c-0.89149,0 -3.40354,0 -4.88889,0c-0.67685,0 -1.14051,-0.57686 -1.14051,-1.01387z" fill="#007811" stroke-width="2" stroke-linecap="butt"/><path d="M355.59833,316.25282c0,-6.65494 5.72402,-12.04983 12.78495,-12.04983c7.06094,0 12.78495,5.39489 12.78495,12.04983c0,6.65494 -5.72402,12.04983 -12.78495,12.04983c-7.06094,0 -12.78495,-5.39489 -12.78495,-12.04983z" fill="url(#color-4)" stroke-width="0" stroke-linecap="butt"/></g><path d="M161.95044,194.44302l-18,-126.5" fill="none" stroke="#0e0e0e" stroke-width="3" stroke-linecap="round"/><path d="M401.39369,17.93524l-0.2,23h-401.81623l1.25,-129.90748h479v106.90748z" data-paper-data="{&quot;index&quot;:null}" fill="#000000" stroke="#000000" stroke-width="5" stroke-linecap="butt"/><path d="M434.39368,448.31845v-387.88645h45v387.88646z" data-paper-data="{&quot;index&quot;:null}" fill="#000000" stroke="#000000" stroke-width="5" stroke-linecap="butt"/><path d="M307.36931,150.1859l39.03904,-39.03904h85.58558v62.03904z" fill="#000000" stroke="#000000" stroke-width="5" stroke-linecap="butt"/><path d="M-0.43849,67.60327v-27.02703h211.71172v27.02703l-14.48274,29l-40,-29z" fill="#000000" stroke="#000000" stroke-width="5" stroke-linecap="butt"/><path d="M196.25821,214.75053v-174.17417h96.0961l-28.52853,49.94701v124.22717z" fill="#000000" stroke="#000000" stroke-width="5" stroke-linecap="butt"/><path d="M178.24019,256.79249v-31.04504l17.0817,-14l69,-20l22,20l102.12851,20.5v24.54504z" fill="#000000" stroke="#000000" stroke-width="5" stroke-linecap="butt"/><path d="M-0.42798,453.48924l0.75,-115.61561h437.67793v115.61562z" fill="#000000" stroke="#000000" stroke-width="5" stroke-linecap="butt"/><path d="M307.32189,220.95469v-26h26v26z" fill="#000000" stroke="#000000" stroke-width="5" stroke-linecap="butt"/><path d="M389.32189,253.51719v-3.125h18v3.125z" fill="#000000" stroke="#000000" stroke-width="5" stroke-linecap="butt"/><path d="M405.32189,334.95458v-28l28,-21v49z" fill="#000000" stroke="#000000" stroke-width="5" stroke-linecap="butt"/><path d="M313.32189,332.95458v-38h38v38z" fill="#000000" stroke="#000000" stroke-width="5" stroke-linecap="butt"/><path d="M0.57339,337.93415v-126h77.7485v126z" fill="#000000" stroke="#000000" stroke-width="5" stroke-linecap="butt"/><path d="M0.57339,208.93415v-28l11.79466,-0.02604l44.95384,-17.3073l116,35.83333l-9.5,28l-62.55573,-29.00953l-21.94427,24.50953z" fill="#000000" stroke="#000000" stroke-width="5" stroke-linecap="butt"/><path d="M95.79049,184.70938v-27h35v27z" fill="#000000" stroke="#000000" stroke-width="5" stroke-linecap="butt"/><g stroke="#000000" stroke-linecap="butt"><path d="M433.35698,76.32189v-16.66666h16.66666v16.66666z" fill="#373737" stroke-width="3"/><path d="M437.52182,72.19209v-8.27272h8.27273v8.27272z" fill="#991616" stroke-width="1.5"/></g><g stroke="#000000" stroke-linecap="butt"><path d="M433.35698,126.72197v-16.66666h16.66666v16.66666z" fill="#373737" stroke-width="3"/><path d="M437.52182,122.59217v-8.27272h8.27273v8.27272z" fill="#991616" stroke-width="1.5"/></g><g stroke="#000000" stroke-linecap="butt"><path d="M433.35698,174.22193v-16.66666h16.66666v16.66666z" fill="#373737" stroke-width="3"/><path d="M437.52182,170.09217v-8.27272h8.27273v8.27272z" fill="#991616" stroke-width="1.5"/></g><g stroke="#000000" stroke-linecap="butt"><path d="M433.60698,353.57197v-16.66666h16.66666v16.66666z" fill="#373737" stroke-width="3"/><path d="M437.77182,349.44217v-8.27272h8.27273v8.27272z" fill="#991616" stroke-width="1.5"/></g><g stroke="#000000" stroke-linecap="butt"><path d="M62.60697,353.57197v-16.66666h16.66666v16.66666z" fill="#373737" stroke-width="3"/><path d="M66.77182,349.44217v-8.27272h8.27273v8.27272z" fill="#991616" stroke-width="1.5"/></g><g stroke="#000000" stroke-linecap="butt"><path d="M62.60698,353.57196v-16.66666h16.66666v16.66666z" fill="#373737" stroke-width="3"/><path d="M66.77182,349.44216v-8.27272h8.27273v8.27272z" fill="#991616" stroke-width="1.5"/></g><g stroke="#000000" stroke-linecap="butt"><path d="M385.52365,41.88854v-16.66666h16.66666v16.66666z" fill="#373737" stroke-width="3"/><path d="M389.68849,37.75875v-8.27272h8.27273v8.27272z" fill="#991616" stroke-width="1.5"/></g><g stroke="#000000" stroke-linecap="butt"><path d="M385.69031,18.8886v-16.66666h16.66666v16.66666z" fill="#373737" stroke-width="3"/><path d="M389.85515,14.75883v-8.27272h8.27273v8.27272z" fill="#991616" stroke-width="1.5"/></g><g stroke="#000000" stroke-linecap="butt"><path d="M372.79031,257.63858v-16.66666h16.66666v16.66666z" fill="#373737" stroke-width="3"/><path d="M376.95515,253.50882v-8.27272h8.27273v8.27272z" fill="#991616" stroke-width="1.5"/></g><g stroke="#000000" stroke-linecap="butt"><path d="M177.27516,257.7598v-16.66666h16.66666v16.66666z" fill="#373737" stroke-width="3"/><path d="M181.44,253.63004v-8.27272h8.27273v8.27272z" fill="#991616" stroke-width="1.5"/></g><g stroke="#000000" stroke-linecap="butt"><path d="M2.13123,198.128v-16.66666h16.66666v16.66666z" fill="#373737" stroke-width="3"/><path d="M6.29607,193.99818v-8.27272h8.27273v8.27272z" fill="#991616" stroke-width="1.5"/></g><g data-paper-data="{&quot;index&quot;:null}" fill="none" stroke="#373737" stroke-width="3" stroke-linecap="round"><path d="M481.93472,13.18787l-80.53667,0.25296"/><path d="M401.24393,7.56471l81.45173,-0.12684"/></g><g data-paper-data="{&quot;index&quot;:null}" fill="none" stroke="#373737" stroke-width="3" stroke-linecap="round"><path d="M390.96831,17.3977l-0.03275,9.18075"/><path d="M396.82842,26.66521l0.01601,-9.28505"/></g><g data-paper-data="{&quot;index&quot;:null}" fill="none" stroke="#373737" stroke-width="3" stroke-linecap="round"><path d="M448.44624,71.04081l36.04221,-0.25296"/><path d="M448.37727,65.1647l36.45172,-0.12684"/></g><g data-paper-data="{&quot;index&quot;:null}" fill="none" stroke="#373737" stroke-width="3" stroke-linecap="round"><path d="M438.80165,75.21573l0.25296,36.04221"/><path d="M444.67777,75.14679l0.12684,36.45173"/></g><g data-paper-data="{&quot;index&quot;:null}" fill="none" stroke="#373737" stroke-width="3" stroke-linecap="round"><path d="M438.80461,338.5318l-0.25296,-165.81769"/><path d="M444.42777,172.39682l0.12684,166.45172"/></g><g data-paper-data="{&quot;index&quot;:null}" fill="none" stroke="#373737" stroke-width="3" stroke-linecap="round"><path d="M77.84271,348.62414l356.42221,-0.25296"/><path d="M77.1606,342.74804l357.78506,-0.12684"/></g><g data-paper-data="{&quot;index&quot;:null}" fill="none" stroke="#373737" stroke-width="3" stroke-linecap="round"><path d="M374.59915,252.3712l-181.42468,0.25296"/><path d="M192.82727,246.748l181.61839,-0.37684"/></g><g stroke="#000000" stroke-linecap="butt"><path d="M1.83123,68.42802v-16.66666h16.66666v16.66666z" fill="#373737" stroke-width="3"/><path d="M5.99607,64.29816v-8.27272h8.27273v8.27272z" fill="#991616" stroke-width="1.5"/></g><path d="M10.31772,60.48587v126.66667" fill="none" stroke="#991616" stroke-width="3" stroke-linecap="round"/><g data-paper-data="{&quot;index&quot;:null}" fill="none" stroke="#373737" stroke-width="3" stroke-linecap="round"><path d="M435.07609,162.70748l-104.6498,-19.58428l20.64197,-21.62447l83.47708,-0.04421"/><path d="M434.9106,169.03132l-117.64801,-22.02813l31.164,-31.37465l86.93574,0.07594"/></g><path d="M383.82727,243.12415l-0.00776,-6.95547l-98.59204,-19.74737l-26.13473,-23.06275l0.09535,-102.75847l30.3016,-53.72876l97.28931,-0.12402" fill="none" stroke="#373737" stroke-width="3" stroke-linecap="round"/><path d="M377.92701,242.62415l-0.00815,-1.45547l-95.86097,-18.99737l-29.21515,-26.06275l0.10021,-109.50847l33.09414,-55.72876l100.99192,-0.12402" fill="none" stroke="#373737" stroke-width="3" stroke-linecap="round"/><g data-paper-data="{&quot;index&quot;:null}" fill="none" stroke="#373737" stroke-width="3" stroke-linecap="round"><path d="M16.83673,56.60949l142.30521,0.08398l46.76936,33.89402l-0.09635,125.14153l-17.68211,15.4899l0.04019,11.39724"/><path d="M16.42007,62.6563l140.86409,0.19009l42.63006,30.7137l-0.11147,119.0447l-17.63684,14.94971l0.131,14.91244"/></g><g data-paper-data="{&quot;index&quot;:null}" fill="none" stroke="#373737" stroke-width="3" stroke-linecap="round"><path d="M17.21832,190.48949l40.10507,-15.75651l24.92499,8.55173l3.17484,15.65306l-17.41487,19.26409l-0.43707,120.28819"/><path d="M16.16111,184.21347l41.11739,-15.83026l30.40053,9.7983l4.20289,22.59974l-17.62573,20.49941l-0.53489,117.23454"/></g><g stroke="#000000"><path d="M313.13711,335.30136v-40.32569h38.44827v40.32569z" fill="url(#color-5)" stroke-width="0" stroke-linecap="butt"/><path d="M316.80126,299.10597v31.75652" fill="none" stroke-width="2.5" stroke-linecap="round"/><path d="M347.74097,330.61044v-31.7565" fill="none" stroke-width="2.5" stroke-linecap="round"/><path d="M322.29859,299.10598v31.75651" fill="none" stroke-width="2.5" stroke-linecap="round"/><path d="M327.58522,299.10597v31.75651" fill="none" stroke-width="2.5" stroke-linecap="round"/><path d="M332.87188,298.97995v31.75652" fill="none" stroke-width="2.5" stroke-linecap="round"/><path d="M337.91821,330.73643v-31.7565" fill="none" stroke-width="2.5" stroke-linecap="round"/><path d="M342.72425,330.7365v-31.7565" fill="none" stroke-width="2.5" stroke-linecap="round"/></g><path d="M96.80107,184.24404v-25.5h32.25v25.5z" fill="#1b1b1b" stroke="none" stroke-width="0" stroke-linecap="butt"/><path d="M96.02683,171.99403h34.5" fill="none" stroke="#000000" stroke-width="6" stroke-linecap="round"/><path d="M103.15044,197.54303l-4.55577,-9.56094l33.75577,-0.03906l39.5,12.2l-8.6,25z" fill="url(#color-6)" stroke="none" stroke-width="0" stroke-linecap="butt"/><path d="M103.76854,171.57186l8.89949,-8.89949l8.89949,8.89949l-8.89949,8.89949z" fill="url(#color-7)" stroke="#000000" stroke-width="3" stroke-linecap="butt"/><path d="M158.29303,218.93423l-47.33333,-20.66666" fill="none" stroke="#000000" stroke-width="3" stroke-linecap="round"/><path d="M145.66529,206.61941l3.3659,-9.81239l17.47833,5.99551l-4.63227,11.07877z" fill="url(#color-8)" stroke="#000000" stroke-width="3" stroke-linecap="butt"/><path d="M140.29303,202.93423l-17,-7" fill="none" stroke="#000000" stroke-width="3" stroke-linecap="round"/><path d="M104.62636,191.01908l23.65299,-0.14746c0,0 10.0231,3.62541 12.26447,5.18152" fill="none" stroke="#000000" stroke-width="3" stroke-linecap="round"/><path d="M406.6762,334.21702v-26.5l23.5,-17.08334v43.58334z" fill="url(#color-9)" stroke="none" stroke-width="0" stroke-linecap="butt"/><path d="M421.9762,330.76705v-29.8l5,-3.8v33.6z" fill="#1b1b1b" stroke="#000000" stroke-width="3" stroke-linecap="butt"/><path d="M408.8762,331.36701v-16.6h9v16.6z" fill="url(#color-10)" stroke="#000000" stroke-width="2" stroke-linecap="butt"/><path d="M307.95043,213.96702v-19h24.5v23z" fill="#1b1b1b" stroke="none" stroke-width="0" stroke-linecap="butt"/><path d="M418.0762,310.36701h-7.2l6.6,-7.2" fill="none" stroke="#000000" stroke-width="2.5" stroke-linecap="round"/><path d="M314.87514,198.02897h13.83578v15.80925l-13.83578,-2.22347z" data-paper-data="{&quot;index&quot;:null}" fill="url(#color-11)" stroke="#000000" stroke-width="3" stroke-linecap="butt"/><path d="M310.57543,198.21702v12.5" fill="none" stroke="#000000" stroke-width="2" stroke-linecap="round"/><g data-paper-data="{&quot;index&quot;:null}" fill="none" stroke="#373737" stroke-width="3" stroke-linecap="round"><path d="M7.11917,52.4065l-0.25296,-132.42512"/><path d="M12.86917,53.65771l-0.12684,-133.92974"/></g><g data-paper-data="{&quot;index&quot;:null}" fill="none" stroke="#373737" stroke-width="3" stroke-linecap="round"><path d="M7.4525,459.85079l-0.25296,-262.64223"/><path d="M13.2025,463.72366l-0.12684,-266.99571"/></g><path d="M391.08769,254.33814v-5h17v5z" fill="#373737" stroke="none" stroke-width="0" stroke-linecap="butt"/></g></g></svg>