<svg version="1.1" xmlns="http://www.w3.org/2000/svg" xmlns:xlink="http://www.w3.org/1999/xlink" width="483.54471" height="365.98992" viewBox="0,0,483.54471,365.98992"><defs><radialGradient cx="186.96021" cy="285.9242" r="31.6875" gradientUnits="userSpaceOnUse" id="color-1"><stop offset="0" stop-color="#1494cc"/><stop offset="1" stop-color="#1494cc" stop-opacity="0"/></radialGradient><linearGradient x1="187.47396" y1="287.03004" x2="187.47396" y2="290.40941" gradientUnits="userSpaceOnUse" id="color-2"><stop offset="0" stop-color="#00b2ff"/><stop offset="1" stop-color="#1000ff"/></linearGradient><radialGradient cx="391.96021" cy="132.9242" r="31.6875" gradientUnits="userSpaceOnUse" id="color-3"><stop offset="0" stop-color="#1494cc"/><stop offset="1" stop-color="#1494cc" stop-opacity="0"/></radialGradient><linearGradient x1="392.47396" y1="134.03005" x2="392.47396" y2="137.40942" gradientUnits="userSpaceOnUse" id="color-4"><stop offset="0" stop-color="#00b2ff"/><stop offset="1" stop-color="#1000ff"/></linearGradient></defs><g transform="translate(2.45056,1.22963)"><g data-paper-data="{&quot;isPaintingLayer&quot;:true}" fill-rule="nonzero" stroke="#000000" stroke-linecap="butt" stroke-linejoin="miter" stroke-miterlimit="10" stroke-dasharray="" stroke-dashoffset="0" style="mix-blend-mode: normal"><g><path d="M155.2727,285.9242c0,-17.50052 14.18698,-31.6875 31.6875,-31.6875c17.50052,0 31.6875,14.18698 31.6875,31.6875c0,17.50053 -14.18698,31.6875 -31.6875,31.6875c-17.50052,0 -31.6875,-14.18697 -31.6875,-31.6875z" fill="url(#color-1)" stroke-width="0"/><path d="M189.66885,293.09549v3.95204h-4.89971v-3.95204z" fill="#323324" stroke-width="1"/><g stroke-width="0.75"><path d="M187.28023,279.05672c0.33907,-0.45842 0.61784,2.04462 0.59166,2.929c-0.02344,0.79161 0.15883,1.49602 0.08386,2.08609c-0.01159,0.09117 0.10472,1.05691 0.17785,1.32572c0.01914,0.07037 0.54694,-1.26689 0.95195,-1.85811c0.2366,-0.34539 0.5058,-0.39572 0.66246,-0.23831c0.1196,0.12018 0.18793,0.35164 0.22265,0.64319c0.08859,0.74399 -0.04165,1.87931 -0.09694,2.55555c-0.04857,0.59401 -0.02254,1.22305 -0.20004,1.78245c-0.1775,0.5594 -0.83204,1.58019 -0.88234,1.6286c-0.144,0.13859 -1.16059,0.63963 -1.31734,0.63963c-0.26598,0 -0.73816,-0.07472 -1.01281,-0.19919c-0.21345,-0.09674 -1.36238,-0.6838 -1.76552,-1.65358c-0.48287,-1.1616 -1.0065,-2.98487 -1.10044,-3.28986c-0.06579,-0.21361 -0.02559,-3.17825 0.48151,-2.62096c0.53012,0.58259 2.1685,4.07417 2.13903,3.7559c-0.01779,-0.1921 -0.37593,-2.0437 -0.20391,-3.89963c0.12984,-1.40087 0.67184,-2.77999 1.26839,-3.58649z" fill="url(#color-2)"/><path d="M186.52547,295.04974v-4.66593h1.23858v4.66593z" fill="#311800"/></g></g><path d="M262.84415,363.44431v-184h217v184z" fill="#000000" stroke-width="2.5"/><path d="M-1.20056,363.51029v-363.48991h107.10811v363.48992z" fill="#000000" stroke-width="2.5"/><path d="M102.43314,363.35951v-6h162v6z" fill="#000000" stroke-width="2.5"/><path d="M436.64766,180.26221c-2.95313,0 -11.24001,0 -11.24001,0v-14.62455h16.12878c0,0 0,7.4233 0,10.11595c0,1.64597 -3.17791,4.50861 -4.88878,4.50861z" data-paper-data="{&quot;index&quot;:null}" fill="#0b0b0b" stroke-width="2.5"/><path d="M123.23947,0.15949v7.18807h-15.87997v-7.18807z" data-paper-data="{&quot;index&quot;:null}" fill="#242424" stroke-width="2.5"/><path d="M123.23947,7.33921v7.18807h-15.87997v-7.18807z" data-paper-data="{&quot;index&quot;:null}" fill="#242424" stroke-width="2.5"/><path d="M123.23947,14.51896v7.18807h-15.87997v-7.18807z" data-paper-data="{&quot;index&quot;:null}" fill="#242424" stroke-width="2.5"/><path d="M123.23947,21.76579v7.18807h-15.87997v-7.18807z" data-paper-data="{&quot;index&quot;:null}" fill="#242424" stroke-width="2.5"/><path d="M123.23947,28.94553v7.18807h-15.87997v-7.18807z" data-paper-data="{&quot;index&quot;:null}" fill="#242424" stroke-width="2.5"/><path d="M123.23947,36.12525v7.18807h-15.87997v-7.18807z" data-paper-data="{&quot;index&quot;:null}" fill="#242424" stroke-width="2.5"/><path d="M123.23947,43.30498v7.18807h-15.87997v-7.18807z" data-paper-data="{&quot;index&quot;:null}" fill="#242424" stroke-width="2.5"/><path d="M123.22129,50.51522v7.18807h-15.87997v-7.18807z" data-paper-data="{&quot;index&quot;:null}" fill="#242424" stroke-width="2.5"/><path d="M123.22129,57.69495v7.18807h-15.87997v-7.18807z" data-paper-data="{&quot;index&quot;:null}" fill="#242424" stroke-width="2.5"/><path d="M123.22129,64.87468v7.18808h-15.87997v-7.18808z" data-paper-data="{&quot;index&quot;:null}" fill="#242424" stroke-width="2.5"/><path d="M123.22129,72.05442v7.18808h-15.87997v-7.18808z" data-paper-data="{&quot;index&quot;:null}" fill="#242424" stroke-width="2.5"/><path d="M123.22129,79.30124v7.18807h-15.87997v-7.18807z" data-paper-data="{&quot;index&quot;:null}" fill="#242424" stroke-width="2.5"/><path d="M123.22129,86.481v7.18807h-15.87997v-7.18807z" data-paper-data="{&quot;index&quot;:null}" fill="#242424" stroke-width="2.5"/><path d="M123.22129,93.66072v7.18807h-15.87997v-7.18807z" data-paper-data="{&quot;index&quot;:null}" fill="#242424" stroke-width="2.5"/><path d="M123.22129,100.84046v7.18807h-15.87997v-7.18807z" data-paper-data="{&quot;index&quot;:null}" fill="#242424" stroke-width="2.5"/><path d="M123.19186,108.00886v7.18807h-15.87997v-7.18807z" data-paper-data="{&quot;index&quot;:null}" fill="#242424" stroke-width="2.5"/><path d="M123.19186,115.18858v7.18808h-15.87997v-7.18808z" data-paper-data="{&quot;index&quot;:null}" fill="#242424" stroke-width="2.5"/><path d="M123.19186,122.36832v7.18807h-15.87997v-7.18807z" data-paper-data="{&quot;index&quot;:null}" fill="#242424" stroke-width="2.5"/><path d="M123.19186,129.54805v7.18807h-15.87997v-7.18807z" data-paper-data="{&quot;index&quot;:null}" fill="#242424" stroke-width="2.5"/><path d="M123.19186,136.7949v7.18808h-15.87997v-7.18808z" data-paper-data="{&quot;index&quot;:null}" fill="#242424" stroke-width="2.5"/><path d="M123.19186,143.97462v7.18808h-15.87997v-7.18808z" data-paper-data="{&quot;index&quot;:null}" fill="#242424" stroke-width="2.5"/><path d="M123.19186,151.15435v7.18807h-15.87997v-7.18807z" data-paper-data="{&quot;index&quot;:null}" fill="#242424" stroke-width="2.5"/><path d="M123.19186,158.0841v7.18808h-15.87997v-7.18808z" data-paper-data="{&quot;index&quot;:null}" fill="#242424" stroke-width="2.5"/><path d="M441.55766,0.34131v7.18807h-15.87997v-7.18807z" data-paper-data="{&quot;index&quot;:null}" fill="#242424" stroke-width="2.5"/><path d="M441.55766,7.52103v7.18807h-15.87997v-7.18807z" data-paper-data="{&quot;index&quot;:null}" fill="#242424" stroke-width="2.5"/><path d="M441.55766,14.70078v7.18807h-15.87997v-7.18807z" data-paper-data="{&quot;index&quot;:null}" fill="#242424" stroke-width="2.5"/><path d="M441.55766,21.94761v7.18807h-15.87997v-7.18807z" data-paper-data="{&quot;index&quot;:null}" fill="#242424" stroke-width="2.5"/><path d="M441.55766,29.12735v7.18807h-15.87997v-7.18807z" data-paper-data="{&quot;index&quot;:null}" fill="#242424" stroke-width="2.5"/><path d="M441.55766,36.30707v7.18807h-15.87997v-7.18807z" data-paper-data="{&quot;index&quot;:null}" fill="#242424" stroke-width="2.5"/><path d="M441.55766,43.4868v7.18807h-15.87997v-7.18807z" data-paper-data="{&quot;index&quot;:null}" fill="#242424" stroke-width="2.5"/><path d="M441.53948,50.69704v7.18807h-15.87997v-7.18807z" data-paper-data="{&quot;index&quot;:null}" fill="#242424" stroke-width="2.5"/><path d="M441.53948,57.87677v7.18807h-15.87997v-7.18807z" data-paper-data="{&quot;index&quot;:null}" fill="#242424" stroke-width="2.5"/><path d="M441.53948,65.0565v7.18808h-15.87997v-7.18808z" data-paper-data="{&quot;index&quot;:null}" fill="#242424" stroke-width="2.5"/><path d="M441.53948,72.23624v7.18808h-15.87997v-7.18808z" data-paper-data="{&quot;index&quot;:null}" fill="#242424" stroke-width="2.5"/><path d="M441.53948,79.48306v7.18807h-15.87997v-7.18807z" data-paper-data="{&quot;index&quot;:null}" fill="#242424" stroke-width="2.5"/><path d="M441.53948,86.66281v7.18807h-15.87997v-7.18807z" data-paper-data="{&quot;index&quot;:null}" fill="#242424" stroke-width="2.5"/><path d="M441.53948,93.84254v7.18807h-15.87997v-7.18807z" data-paper-data="{&quot;index&quot;:null}" fill="#242424" stroke-width="2.5"/><path d="M441.53948,101.02228v7.18807h-15.87997v-7.18807z" data-paper-data="{&quot;index&quot;:null}" fill="#242424" stroke-width="2.5"/><path d="M441.51004,108.19068v7.18807h-15.87997v-7.18807z" data-paper-data="{&quot;index&quot;:null}" fill="#242424" stroke-width="2.5"/><path d="M441.51004,115.37041v7.18808h-15.87997v-7.18808z" data-paper-data="{&quot;index&quot;:null}" fill="#242424" stroke-width="2.5"/><path d="M441.51004,122.55014v7.18807h-15.87997v-7.18807z" data-paper-data="{&quot;index&quot;:null}" fill="#242424" stroke-width="2.5"/><path d="M441.51004,129.72988v7.18807h-15.87997v-7.18807z" data-paper-data="{&quot;index&quot;:null}" fill="#242424" stroke-width="2.5"/><path d="M441.51004,136.97671v7.18808h-15.87997v-7.18808z" data-paper-data="{&quot;index&quot;:null}" fill="#242424" stroke-width="2.5"/><path d="M441.51004,144.15645v7.18808h-15.87997v-7.18808z" data-paper-data="{&quot;index&quot;:null}" fill="#242424" stroke-width="2.5"/><path d="M441.51004,151.33618v7.18807h-15.87997v-7.18807z" data-paper-data="{&quot;index&quot;:null}" fill="#242424" stroke-width="2.5"/><path d="M441.51004,158.26591v7.18808h-15.87997v-7.18808z" data-paper-data="{&quot;index&quot;:null}" fill="#242424" stroke-width="2.5"/><path d="M123.2213,165.44767v7.18807h-15.87997v-7.18807z" data-paper-data="{&quot;index&quot;:null}" fill="#242424" stroke-width="2.5"/><path d="M123.2213,172.62739v7.18807h-15.87997v-7.18807z" data-paper-data="{&quot;index&quot;:null}" fill="#242424" stroke-width="2.5"/><path d="M123.2213,179.80713v7.18807h-15.87997v-7.18807z" data-paper-data="{&quot;index&quot;:null}" fill="#242424" stroke-width="2.5"/><path d="M123.19188,186.97553v7.18807h-15.87997v-7.18807z" data-paper-data="{&quot;index&quot;:null}" fill="#242424" stroke-width="2.5"/><path d="M123.19188,194.15526v7.18808h-15.87997v-7.18808z" data-paper-data="{&quot;index&quot;:null}" fill="#242424" stroke-width="2.5"/><path d="M123.19188,201.335v7.18807h-15.87997v-7.18807z" data-paper-data="{&quot;index&quot;:null}" fill="#242424" stroke-width="2.5"/><path d="M123.19188,208.51473v7.18807h-15.87997v-7.18807z" data-paper-data="{&quot;index&quot;:null}" fill="#242424" stroke-width="2.5"/><path d="M123.19188,215.76157v7.18808h-15.87997v-7.18808z" data-paper-data="{&quot;index&quot;:null}" fill="#242424" stroke-width="2.5"/><path d="M123.19188,222.9413v7.18808h-15.87997v-7.18808z" data-paper-data="{&quot;index&quot;:null}" fill="#242424" stroke-width="2.5"/><path d="M123.19188,230.12102v7.18807h-15.87997v-7.18807z" data-paper-data="{&quot;index&quot;:null}" fill="#242424" stroke-width="2.5"/><path d="M123.19188,237.05077v7.18808h-15.87997v-7.18808z" data-paper-data="{&quot;index&quot;:null}" fill="#242424" stroke-width="2.5"/><path d="M300.89581,172.87062v-7.21049h31.17923v7.21049z" data-paper-data="{&quot;index&quot;:null}" fill="#242424" stroke-width="2.5"/><path d="M332.00953,172.91988v-7.2105h31.05663v7.2105z" data-paper-data="{&quot;index&quot;:null}" fill="#242424" stroke-width="2.5"/><path d="M394.26395,173.00323v-7.2105h31.05663v7.2105z" data-paper-data="{&quot;index&quot;:null}" fill="#242424" stroke-width="2.5"/><path d="M363.13028,172.95399v-7.21049h31.05663v7.21049z" data-paper-data="{&quot;index&quot;:null}" fill="#242424" stroke-width="2.5"/><path d="M347.64622,180.22422v-7.2105h30.23499v7.2105z" data-paper-data="{&quot;index&quot;:null}" fill="#242424" stroke-width="2.5"/><path d="M316.76943,180.14725v-7.2105h30.80678v7.2105z" data-paper-data="{&quot;index&quot;:null}" fill="#242424" stroke-width="2.5"/><path d="M378.44127,180.23058v-7.2105h30.80679v7.2105z" data-paper-data="{&quot;index&quot;:null}" fill="#242424" stroke-width="2.5"/><path d="M409.40257,180.23139v-7.2105h15.896v7.2105z" data-paper-data="{&quot;index&quot;:null}" fill="#242424" stroke-width="2.5"/><path d="M316.87615,172.88748v7.2105h-31.05663v-7.2105z" data-paper-data="{&quot;index&quot;:null}" fill="#242424" stroke-width="2.5"/><path d="M300.80365,165.66013v7.2105h-30.80679v-7.2105z" data-paper-data="{&quot;index&quot;:null}" fill="#242424" stroke-width="2.5"/><path d="M270.01842,180.11056v-7.14162h15.87997v7.14162z" data-paper-data="{&quot;index&quot;:null}" fill="#242424" stroke-width="2.5"/><path d="M247.38016,188.44036c0,0 0,-14.90143 0,-18.57344c0,-1.4224 2.59167,-4.11406 4.21172,-4.11406c3.79564,0 18.28828,0 18.28828,0v22.6875z" data-paper-data="{&quot;index&quot;:null}" fill="#0b0b0b" stroke-width="2.5"/><path d="M123.17963,244.28101v7.18807h-15.87997v-7.18807z" data-paper-data="{&quot;index&quot;:null}" fill="#242424" stroke-width="2.5"/><path d="M123.17963,251.46074v7.18807h-15.87997v-7.18807z" data-paper-data="{&quot;index&quot;:null}" fill="#242424" stroke-width="2.5"/><path d="M123.17963,258.64045v7.18807h-15.87997v-7.18807z" data-paper-data="{&quot;index&quot;:null}" fill="#242424" stroke-width="2.5"/><path d="M123.15021,265.80888v7.18807h-15.87997v-7.18807z" data-paper-data="{&quot;index&quot;:null}" fill="#242424" stroke-width="2.5"/><path d="M123.15021,272.98859v7.18808h-15.87997v-7.18808z" data-paper-data="{&quot;index&quot;:null}" fill="#242424" stroke-width="2.5"/><path d="M123.15021,280.16834v7.18807h-15.87997v-7.18807z" data-paper-data="{&quot;index&quot;:null}" fill="#242424" stroke-width="2.5"/><path d="M123.15021,287.34806v7.18807h-15.87997v-7.18807z" data-paper-data="{&quot;index&quot;:null}" fill="#242424" stroke-width="2.5"/><path d="M123.15021,294.59491v7.18808h-15.87997v-7.18808z" data-paper-data="{&quot;index&quot;:null}" fill="#242424" stroke-width="2.5"/><path d="M123.15021,301.77464v7.18808h-15.87997v-7.18808z" data-paper-data="{&quot;index&quot;:null}" fill="#242424" stroke-width="2.5"/><path d="M123.15021,308.95437v7.18807h-15.87997v-7.18807z" data-paper-data="{&quot;index&quot;:null}" fill="#242424" stroke-width="2.5"/><path d="M123.15021,315.8841v7.18808h-15.87997v-7.18808z" data-paper-data="{&quot;index&quot;:null}" fill="#242424" stroke-width="2.5"/><path d="M123.12243,323.21907v7.18808h-15.87997v-7.18808z" data-paper-data="{&quot;index&quot;:null}" fill="#242424" stroke-width="2.5"/><path d="M123.12243,330.39881v7.18807h-15.87997v-7.18807z" data-paper-data="{&quot;index&quot;:null}" fill="#242424" stroke-width="2.5"/><path d="M123.12243,337.32855v7.18808h-15.87997v-7.18808z" data-paper-data="{&quot;index&quot;:null}" fill="#242424" stroke-width="2.5"/><path d="M112.0442,359.12889c-1.68624,0 -4.8184,-2.82143 -4.8184,-4.4437c0,-2.65389 0,-9.97033 0,-9.97033h15.8966v14.41402c0,0 -8.16759,0 -11.0782,0z" data-paper-data="{&quot;index&quot;:null}" fill="#0b0b0b" stroke-width="2.5"/><path d="M263.26157,188.63311v7.20686h-15.87997v-7.20686z" data-paper-data="{&quot;index&quot;:null}" fill="#242424" stroke-width="2.5"/><path d="M263.26157,195.83161v7.10505h-15.87997v-7.10505z" data-paper-data="{&quot;index&quot;:null}" fill="#242424" stroke-width="2.5"/><path d="M263.26157,202.92842v7.10505h-15.87997v-7.10505z" data-paper-data="{&quot;index&quot;:null}" fill="#242424" stroke-width="2.5"/><path d="M263.26157,210.02522v7.10505h-15.87997v-7.10505z" data-paper-data="{&quot;index&quot;:null}" fill="#242424" stroke-width="2.5"/><path d="M263.26157,217.18836v7.10507h-15.87997v-7.10507z" data-paper-data="{&quot;index&quot;:null}" fill="#242424" stroke-width="2.5"/><path d="M263.26157,224.28517v7.10506h-15.87997v-7.10506z" data-paper-data="{&quot;index&quot;:null}" fill="#242424" stroke-width="2.5"/><path d="M263.26157,231.38199v7.10505h-15.87997v-7.10505z" data-paper-data="{&quot;index&quot;:null}" fill="#242424" stroke-width="2.5"/><path d="M263.26157,238.23169v7.10506h-15.87997v-7.10506z" data-paper-data="{&quot;index&quot;:null}" fill="#242424" stroke-width="2.5"/><path d="M263.24933,245.37843v7.10505h-15.87997v-7.10505z" data-paper-data="{&quot;index&quot;:null}" fill="#242424" stroke-width="2.5"/><path d="M263.24933,252.47524v7.10505h-15.87997v-7.10505z" data-paper-data="{&quot;index&quot;:null}" fill="#242424" stroke-width="2.5"/><path d="M263.24933,259.57203v7.10505h-15.87997v-7.10505z" data-paper-data="{&quot;index&quot;:null}" fill="#242424" stroke-width="2.5"/><path d="M263.21991,266.65765v7.10505h-15.87997v-7.10505z" data-paper-data="{&quot;index&quot;:null}" fill="#242424" stroke-width="2.5"/><path d="M263.21991,273.75446v7.10506h-15.87997v-7.10506z" data-paper-data="{&quot;index&quot;:null}" fill="#242424" stroke-width="2.5"/><path d="M263.21991,280.85128v7.10505h-15.87997v-7.10505z" data-paper-data="{&quot;index&quot;:null}" fill="#242424" stroke-width="2.5"/><path d="M263.21991,287.94809v7.10504h-15.87997v-7.10504z" data-paper-data="{&quot;index&quot;:null}" fill="#242424" stroke-width="2.5"/><path d="M263.21991,295.11123v7.10505h-15.87997v-7.10505z" data-paper-data="{&quot;index&quot;:null}" fill="#242424" stroke-width="2.5"/><path d="M263.1745,302.27038v7.10506h-15.87997v-7.10506z" data-paper-data="{&quot;index&quot;:null}" fill="#242424" stroke-width="2.5"/><path d="M263.1745,309.36719v7.10505h-15.87997v-7.10505z" data-paper-data="{&quot;index&quot;:null}" fill="#242424" stroke-width="2.5"/><path d="M263.1745,316.21689v7.10506h-15.87997v-7.10506z" data-paper-data="{&quot;index&quot;:null}" fill="#242424" stroke-width="2.5"/><path d="M263.14672,323.46714v7.10507h-15.87997v-7.10507z" data-paper-data="{&quot;index&quot;:null}" fill="#242424" stroke-width="2.5"/><path d="M263.14672,330.56395v7.10506h-15.87997v-7.10506z" data-paper-data="{&quot;index&quot;:null}" fill="#242424" stroke-width="2.5"/><path d="M263.14672,337.41367v7.10506h-15.87997v-7.10506z" data-paper-data="{&quot;index&quot;:null}" fill="#242424" stroke-width="2.5"/><path d="M258.36523,359.091c-2.91062,0 -11.0782,0 -11.0782,0v-14.4517h15.8966c0,0 0,7.33557 0,9.9964c0,1.62651 -3.13216,4.45532 -4.8184,4.45532z" data-paper-data="{&quot;index&quot;:null}" fill="#0b0b0b" stroke-width="2.5"/><path d="M154.05136,351.78173v-7.21049h31.17923v7.21049z" data-paper-data="{&quot;index&quot;:null}" fill="#242424" stroke-width="2.5"/><path d="M185.16508,351.83099v-7.2105h31.05663v7.2105z" data-paper-data="{&quot;index&quot;:null}" fill="#242424" stroke-width="2.5"/><path d="M216.28583,351.8651v-7.21049h31.05663v7.21049z" data-paper-data="{&quot;index&quot;:null}" fill="#242424" stroke-width="2.5"/><path d="M200.80177,359.13533v-7.2105h30.23499v7.2105z" data-paper-data="{&quot;index&quot;:null}" fill="#242424" stroke-width="2.5"/><path d="M169.92498,359.05836v-7.2105h30.80678v7.2105z" data-paper-data="{&quot;index&quot;:null}" fill="#242424" stroke-width="2.5"/><path d="M231.22479,359.1425v-7.2105h15.896v7.2105z" data-paper-data="{&quot;index&quot;:null}" fill="#242424" stroke-width="2.5"/><path d="M170.0317,351.79859v7.2105h-31.05663v-7.2105z" data-paper-data="{&quot;index&quot;:null}" fill="#242424" stroke-width="2.5"/><path d="M153.9592,344.57124v7.2105h-30.80679v-7.2105z" data-paper-data="{&quot;index&quot;:null}" fill="#242424" stroke-width="2.5"/><path d="M123.17398,359.02167v-7.14162h15.87997v7.14162z" data-paper-data="{&quot;index&quot;:null}" fill="#242424" stroke-width="2.5"/><path d="M442.81372,179.14123v-178.90476h37v178.90476z" fill="#000000" stroke-width="2.5"/><g><path d="M360.2727,132.9242c0,-17.50052 14.18698,-31.6875 31.6875,-31.6875c17.50052,0 31.6875,14.18698 31.6875,31.6875c0,17.50053 -14.18698,31.6875 -31.6875,31.6875c-17.50052,0 -31.6875,-14.18697 -31.6875,-31.6875z" fill="url(#color-3)" stroke-width="0"/><path d="M394.66885,140.0955v3.95204h-4.89971v-3.95204z" fill="#323324" stroke-width="1"/><g stroke-width="0.75"><path d="M392.28023,126.05671c0.33907,-0.45842 0.61784,2.04462 0.59166,2.929c-0.02344,0.79161 0.15883,1.49602 0.08386,2.08609c-0.01159,0.09117 0.10472,1.05691 0.17785,1.32572c0.01914,0.07037 0.54694,-1.26689 0.95195,-1.85811c0.2366,-0.34539 0.5058,-0.39572 0.66246,-0.23831c0.1196,0.12018 0.18793,0.35164 0.22265,0.64319c0.08859,0.74399 -0.04165,1.87931 -0.09694,2.55555c-0.04857,0.59401 -0.02254,1.22305 -0.20004,1.78245c-0.1775,0.5594 -0.83204,1.58019 -0.88234,1.6286c-0.144,0.13859 -1.16059,0.63963 -1.31734,0.63963c-0.26598,0 -0.73816,-0.07472 -1.01281,-0.19919c-0.21345,-0.09674 -1.36238,-0.6838 -1.76552,-1.65358c-0.48287,-1.1616 -1.0065,-2.98487 -1.10044,-3.28986c-0.06579,-0.21361 -0.02559,-3.17825 0.48151,-2.62096c0.53012,0.58259 2.1685,4.07417 2.13903,3.7559c-0.01779,-0.1921 -0.37593,-2.0437 -0.20391,-3.89963c0.12984,-1.40087 0.67184,-2.77999 1.26839,-3.58649z" fill="url(#color-4)"/><path d="M391.52547,142.04975v-4.66593h1.23858v4.66593z" fill="#311800"/></g></g></g></g></svg>