<svg version="1.1" xmlns="http://www.w3.org/2000/svg" xmlns:xlink="http://www.w3.org/1999/xlink" width="58.24721" height="67.38994" viewBox="0,0,58.24721,67.38994"><defs><linearGradient x1="210.48326" y1="193.23213" x2="207.25584" y2="189.60922" gradientUnits="userSpaceOnUse" id="color-1"><stop offset="0" stop-color="#343434"/><stop offset="1" stop-color="#ffffff"/></linearGradient></defs><g transform="translate(-193.5291,-138.32607)"><g data-paper-data="{&quot;isPaintingLayer&quot;:true}" fill-rule="nonzero" stroke="#000000" stroke-width="1" stroke-linejoin="miter" stroke-miterlimit="10" stroke-dasharray="" stroke-dashoffset="0" style="mix-blend-mode: normal"><path d="M225.41298,164.96341c0,0 -0.68985,-2.01387 -0.02416,-2.78759c0.46218,-0.53717 1.09605,-0.30793 1.33922,0.23675c0.26588,0.5956 0.01988,1.68591 0.06347,1.70282c0.0278,0.01079 1.15555,-1.14585 1.78247,-0.71014c0.62692,0.43572 0.59784,1.62403 0.21653,1.91092c-0.44968,0.33831 -1.4205,0.55094 -1.4205,0.55094l-2.00361,6.61799c0,0 0.692,0.41506 0.81196,1.19586c0.15519,1.01007 -0.61164,1.59741 -1.18349,1.36785c-0.57182,-0.22953 -0.92418,-1.87814 -1.03371,-1.93894c-0.10433,-0.05791 -0.7456,1.12889 -1.36646,0.8084c-0.62087,-0.32049 -0.85196,-0.81489 -0.6473,-1.84786c0.12307,-0.62125 1.37776,-0.65063 1.37776,-0.65063z" data-paper-data="{&quot;index&quot;:null}" fill="#d6d6d6" stroke-linecap="butt"/><g stroke-linecap="butt"><path d="M223.44827,181.62472c0,0 -10.36819,8.89185 -15.11081,12.80315c-4.12855,3.40488 -12.00609,8.77335 -12.00609,8.77335c0,0 8.0666,-9.45688 9.75094,-11.17855c3.31967,-3.39324 14.16721,-13.98869 14.16721,-13.98869z" fill="url(#color-1)"/><path d="M232.02664,171.98253l-8.47612,7.55084l-1.73569,-1.94838l8.47612,-7.55085c0,0 1.26764,0.04393 1.58786,0.40338c0.21875,0.24555 0.14783,1.545 0.14783,1.545z" fill="#4d4d4d"/><path d="M228.28436,181.98389c0,0 -1.35759,0.32361 -1.82275,0.73799c-0.36775,0.3276 -0.74531,1.54973 -0.74531,1.54973c0,0 -3.78328,-2.15169 -5.17614,-3.71523c-1.42219,-1.59646 -3.27083,-5.76685 -3.27083,-5.76685c0,0 1.52143,0.0619 1.88918,-0.2657c0.46517,-0.41439 0.6789,-2.02203 0.6789,-2.02203c0,0 1.39488,4.4565 2.78775,6.02004c1.42219,1.59646 5.65921,3.46203 5.65921,3.46203z" fill="#191919"/></g><path d="M232.43059,155.79285c0,0 0.2652,-2.3326 1.29433,-2.78856c0.71451,-0.31657 1.2376,0.21159 1.22223,0.86925c-0.0168,0.71912 -0.77755,1.68899 -0.74213,1.72646c0.02258,0.02389 1.69315,-0.59505 2.11165,0.13553c0.4185,0.73059 -0.17249,1.9007 -0.68806,2.00618c-0.60799,0.12437 -1.67574,-0.12297 -1.67574,-0.12297l-5.12607,5.64559c0,0 0.4931,0.74079 0.24335,1.57539c-0.32309,1.07969 -1.36484,1.30214 -1.82597,0.803c-0.46113,-0.49913 -0.03245,-2.30821 -0.11281,-2.42057c-0.07654,-0.10704 -1.2767,0.77203 -1.74367,0.15911c-0.46698,-0.61292 -0.46336,-1.21478 0.22908,-2.14707c0.41642,-0.56073 1.68032,0.00341 1.68032,0.00341z" data-paper-data="{&quot;index&quot;:null}" fill="#d6d6d6" stroke-linecap="butt"/><path d="M228.38125,176.85371c-0.72063,0.21243 -2.71884,-2.56267 -2.51031,-1.99131c0.40547,1.11098 2.04565,2.04201 1.75194,2.28557c-0.61227,0.50559 -2.33177,-1.0941 -2.91778,-1.45652c-0.35999,-0.22265 2.40757,2.27486 2.01407,2.46945c-0.46188,0.22837 -2.732,-1.49731 -3.18494,-1.82349c-0.07621,-0.05487 2.82263,2.38547 2.28938,2.66775c-0.54626,0.49452 -3.4509,-2.12624 -3.5055,-2.17216c-0.97638,-0.82118 -1.04111,-2.69393 -0.93656,-3.54145c0.08781,-0.7118 0.26293,-0.46533 0.81152,-0.8792c1.06804,-0.80578 2.13796,-0.82434 3.93435,0.68652c0.78734,0.6622 2.88635,3.56838 2.25384,3.75483z" fill="#d6d6d6" stroke-linecap="butt"/><path d="M248.73799,190.15696c0,0 1.31793,0.71738 1.22616,1.51039c-0.15259,1.31856 -0.57401,1.77053 -1.34593,1.80706c-0.77192,0.03653 -1.0266,-1.69949 -1.15776,-1.6886c-0.13771,0.01143 -1.10012,1.74618 -1.78762,1.70313c-0.68751,-0.04304 -1.28947,-1.14688 -0.76405,-2.24277c0.40615,-0.84713 1.2872,-0.95546 1.2872,-0.95546l0.24455,-8.82466c0,0 -0.95186,-0.77696 -1.30703,-1.41712c-0.30116,-0.54284 0.09286,-1.94738 0.9124,-2.11526c0.81952,-0.16789 1.60006,1.79771 1.63333,1.80023c0.0522,0.00395 0.18151,-1.40412 0.67595,-1.9554c0.45218,-0.50416 1.20525,-0.42697 1.50256,0.45239c0.42821,1.26656 -1.02212,3.24447 -1.02212,3.24447z" data-paper-data="{&quot;index&quot;:null}" fill="#d6d6d6" stroke-linecap="butt"/><path d="M231.80683,189.81238c0,0 1.27669,0.77325 1.17252,1.54525c-0.17321,1.28364 -0.59377,1.70395 -1.34982,1.69848c-0.75603,-0.00545 -0.97383,-1.71984 -1.10237,-1.71618c-0.13495,0.00384 -1.10818,1.65196 -1.78017,1.57304c-0.67199,-0.0789 -1.24107,-1.1925 -0.70706,-2.23808c0.4128,-0.80825 1.27693,-0.8673 1.27693,-0.8673l0.39912,-8.63255c0,0 -0.91738,-0.81205 -1.25335,-1.45821c-0.28489,-0.54792 0.12613,-1.90291 0.93114,-2.02361c0.80499,-0.1207 1.53323,1.84674 1.56575,1.851c0.05101,0.00668 0.20306,-1.36595 0.69688,-1.87962c0.45163,-0.46977 1.18714,-0.35391 1.46216,0.5235c0.3961,1.26375 -1.05897,3.12404 -1.05897,3.12404z" data-paper-data="{&quot;index&quot;:null}" fill="#d6d6d6" stroke-linecap="butt"/><path d="M248.01995,178.43819c0,0 1.29355,-0.15569 1.62771,0.45159c0.55563,1.00974 0.48492,1.54164 -0.04288,1.95597c-0.5278,0.41433 -1.58169,-0.68582 -1.66901,-0.61211c-0.09169,0.07739 0.10042,1.78919 -0.4077,2.10473c-0.50812,0.31556 -1.48956,-0.16252 -1.66933,-1.20237c-0.13897,-0.80379 0.4299,-1.32386 0.4299,-1.32386l-4.26819,-6.36701c0,0 -1.06453,-0.0707 -1.638,-0.3449c-0.48629,-0.23252 -0.91437,-1.42462 -0.419,-1.95586c0.49536,-0.53124 2.03689,0.46672 2.06169,0.45176c0.03893,-0.02348 -0.57823,-1.08485 -0.50584,-1.72375c0.06621,-0.58431 0.6379,-0.90867 1.29082,-0.43611c0.94042,0.68065 0.90965,2.81005 0.90965,2.81005z" data-paper-data="{&quot;index&quot;:null}" fill="#d6d6d6" stroke-linecap="butt"/><path d="M232.91278,179.2351c0,0 0.52388,1.1854 0.0657,1.68298c-0.76183,0.82733 -1.27022,0.91722 -1.80554,0.53722c-0.53532,-0.37999 0.16257,-1.70838 0.06927,-1.76971c-0.09796,-0.06441 -1.61045,0.62432 -2.04941,0.23386c-0.43897,-0.39044 -0.28996,-1.46604 0.61022,-1.94446c0.69585,-0.36984 1.34018,0.01803 1.34018,0.01803l4.57849,-5.94478c0,0 -0.24888,-1.03427 -0.16653,-1.66124c0.06983,-0.53165 1.03641,-1.29146 1.66934,-0.97688c0.63292,0.31457 0.17241,2.07697 0.19344,2.09617c0.03298,0.03012 0.82402,-0.87105 1.43099,-0.99094c0.55509,-0.10964 1.0209,0.33871 0.78012,1.09994c-0.3468,1.09639 -2.30775,1.6964 -2.30775,1.6964z" data-paper-data="{&quot;index&quot;:null}" fill="#d6d6d6" stroke-linecap="butt"/><path d="M238.06042,168.22398c0.32563,-1.18332 0.549,-1.53021 0.72183,-2.81028c0.2437,-1.9051 -5.20437,1.27367 -4.98086,-1.72022c0.22351,-2.9939 4.93532,-0.29303 5.1975,-1.93866c-0.05917,-2.67251 -5.07485,0.99263 -5.13775,-2.18288c-0.0629,-3.17551 5.17614,-0.25809 5.28783,-1.80999c0.27578,-1.37105 -1.09825,-1.04459 -2.30238,-1.34123c-0.12554,-0.03092 -2.66886,0.31365 -3.02212,-1.07833c-0.38379,-1.51228 2.22853,-1.54357 2.22853,-1.54357c0,0 1.11714,0.36817 2.13281,0.36817c0.17931,0 -0.07155,-2.98022 0.16367,-2.98653c0.55952,-0.01502 3.21153,-0.03253 3.21153,-0.03253c0,0 -0.15826,2.88611 0.12338,2.88611c1.41278,0 2.60376,-0.15852 2.60376,-0.15852c0,0 1.67928,0.46471 1.75584,1.45918c0.04115,0.5345 -1.47449,0.70827 -2.79589,1.05748c-1.13717,0.30052 -2.21426,-0.02004 -2.25854,1.11329c-0.1467,2.30991 5.03097,-1.17841 5.09874,1.94866c0.06777,3.12707 -5.11179,0.14394 -5.06849,2.22373c-0.06573,1.81288 5.09331,-0.77687 5.05388,1.98836c-0.03943,2.76523 -5.10688,-0.18959 -5.04903,1.80434c0.0022,0.96577 0.13259,1.86515 0.34089,2.81051c0.85555,3.88275 3.90743,-1.25684 4.99828,2.14607c1.09086,3.40292 -0.59692,2.3598 -3.18576,3.50808c-0.88052,0.39055 -2.84589,-2.38679 -3.60161,-2.24764c-1.50109,0.27641 -2.35223,2.34377 -3.0514,2.34831c-1.86418,0.01211 -3.68808,-0.6669 -2.82656,-3.43234c0,0 0.34885,-0.56605 1.46108,-0.87108c0.85976,-0.23578 2.46602,0.07157 2.90082,-1.50851z" data-paper-data="{&quot;index&quot;:null}" fill="#d6d6d6" stroke-linecap="butt"/><path d="M243.70111,154.77263l-2.18838,0.00663l0.05622,-1.44888l-0.39541,-0.00785l-0.02221,1.48803l-2.30381,-0.03303l0.00756,-1.47279l-0.35378,-0.00466l-0.0721,1.49751l-1.95216,-0.0209c0,0 -0.414,-1.10365 -0.40978,-1.68764c-0.25539,-0.61673 -0.15911,-2.00983 -0.40443,-2.31813c-1.38239,-0.37473 -2.12088,-1.18625 -2.10065,-3.82296c0.03904,-5.08401 2.39943,-8.15938 6.20588,-8.12154c3.80645,0.03784 6.6681,3.30608 6.62905,8.39011c0,0 -0.15186,3.30292 -1.70387,3.52245c-0.46953,0.78572 -0.4669,1.40605 -0.67903,2.24782z" fill="#d6d6d6" stroke-linecap="butt"/><path d="M237.44199,146.77337c0,-0.92965 0.66236,-1.68327 1.47945,-1.68327c0.81709,0 1.47946,0.75362 1.47946,1.68327c0,0.92965 -0.66237,1.68326 -1.47946,1.68326c-0.81709,0 -1.47945,-0.75362 -1.47945,-1.68326z" fill="#1d1d1d" stroke-linecap="butt"/><path d="M241.85963,146.81716c0,-0.92965 0.66238,-1.68328 1.47948,-1.68328c0.81709,0 1.47948,0.75362 1.47948,1.68328c0,0.92965 -0.66238,1.68329 -1.47948,1.68329c-0.81709,0 -1.47948,-0.75364 -1.47948,-1.68329z" fill="#1d1d1d" stroke-linecap="butt"/><g><path d="M226.70875,194.40854c0,0 -0.55522,-1.07117 -0.55522,-1.57871c0,-0.54259 1.5213,-1.26297 1.5213,-1.26297c0,0 1.5988,0.2105 2.64617,0.2105c1.13531,0 2.28083,-0.42099 2.28083,-0.42099c0,0 1.79002,0.80052 1.79002,1.36821c0,0.46352 -0.82394,1.68396 -0.82394,1.68396c0,0 -2.34893,0.42098 -3.47344,0.42098c-1.06164,0 -3.38572,-0.42098 -3.38572,-0.42098z" fill="#d6d6d6" stroke-linecap="butt"/><path d="M228.65284,193.14557l-1.05247,1.47347" fill="none" stroke-linecap="round"/><path d="M230.12631,194.72429v-1.57871" fill="none" stroke-linecap="round"/><path d="M232.54699,194.61904l-0.63148,-1.36822" fill="none" stroke-linecap="round"/></g><g><path d="M243.59322,194.23688c0,0 -0.55522,-1.07116 -0.55522,-1.57871c0,-0.54259 1.5213,-1.26296 1.5213,-1.26296c0,0 1.5988,0.21049 2.64617,0.21049c1.13531,0 2.28082,-0.42099 2.28082,-0.42099c0,0 1.79002,0.80053 1.79002,1.36822c0,0.46352 -0.82394,1.68395 -0.82394,1.68395c0,0 -2.34892,0.42099 -3.47343,0.42099c-1.06164,0 -3.38572,-0.42099 -3.38572,-0.42099z" fill="#d6d6d6" stroke-linecap="butt"/><path d="M244.48485,194.44738l1.05247,-1.47346" fill="none" stroke-linecap="round"/><path d="M247.01078,192.97392v1.57871" fill="none" stroke-linecap="round"/><path d="M248.79999,193.07917l0.63148,1.36821" fill="none" stroke-linecap="round"/></g><path d="M241.25647,163.66103c0,0 0.80708,1.14777 0.3302,1.67114c-0.7929,0.87024 -1.39101,0.99088 -2.09164,0.64549c-0.70063,-0.34539 -0.05944,-1.71043 -0.18082,-1.76576c-0.12743,-0.05811 -1.84396,0.72023 -2.43024,0.35851c-0.5863,-0.36172 -0.56758,-1.44145 0.4438,-1.97289c0.7818,-0.4108 1.61474,-0.06427 1.61474,-0.06427l4.62003,-6.19808c0,0 -0.45374,-1.01422 -0.44825,-1.64333c0.00466,-0.53346 1.05392,-1.34905 1.86219,-1.07475c0.80826,0.27429 0.51737,2.05675 0.54553,2.07458c0.04417,0.02796 0.86118,-0.91756 1.57338,-1.07414c0.65136,-0.14319 1.27856,0.27453 1.10255,1.04698c-0.25351,1.11259 -2.52271,1.8301 -2.52271,1.8301z" data-paper-data="{&quot;index&quot;:null}" fill="#d6d6d6" stroke-linecap="butt"/><path d="M233.03359,172.00085c0,0 0.60809,1.1449 0.11081,1.56994c-0.82682,0.70675 -1.38899,0.74867 -1.99164,0.35157c-0.60264,-0.39708 0.14191,-1.57488 0.03699,-1.63954c-0.11014,-0.0679 -1.77315,0.44854 -2.26908,0.0496c-0.49597,-0.39892 -0.35482,-1.38662 0.6334,-1.75768c0.76388,-0.28683 1.48769,0.1265 1.48769,0.1265l4.94712,-5.15159c0,0 -0.29949,-0.98189 -0.22222,-1.55799c0.06553,-0.48852 1.12109,-1.11572 1.83057,-0.77144c0.70947,0.34428 0.23813,1.94494 0.2619,1.96452c0.03728,0.03071 0.89485,-0.74228 1.56574,-0.80404c0.61356,-0.05648 1.14059,0.39848 0.89055,1.08642c-0.36017,0.99086 -2.52283,1.38807 -2.52283,1.38807z" data-paper-data="{&quot;index&quot;:null}" fill="#d6d6d6" stroke-linecap="butt"/><path d="M224.74344,173.25087c-1.4336,-1.20803 -0.31062,1.42564 -0.0114,1.24566c0.34407,-0.20695 -0.48577,-3.03024 0.87926,-2.06632c1.20745,0.85264 2.23864,1.6313 2.07516,1.39478c-0.23365,-0.33804 -1.10175,-0.97204 -1.9697,-1.79407c-1.6478,-1.56065 -1.70807,0.92285 -1.56107,0.71852c0.2924,-0.40469 0.27912,-2.68912 2.13666,-1.47376c1.11771,0.73131 2.07073,1.36847 2.31986,1.44527c0.18605,0.05736 -0.4077,-0.21714 -2.08076,-1.58389c-1.99022,-1.62585 -1.73965,0.97281 -1.55814,0.8155c0.2248,-0.19482 0.61427,-2.32196 2.17677,-1.47436c1.16328,0.63104 2.21552,1.22931 2.43926,1.31589c0.07721,0.02989 -2.27011,-1.66902 -1.9905,-1.81398c0.0398,-0.02063 0.5183,-0.49942 0.66088,-0.42449c1.25789,0.66096 2.35508,1.43051 2.38904,1.44669c1.16009,0.55241 1.69867,2.36119 1.81197,3.21375c0.09516,0.71602 -0.13809,0.52026 -0.56768,1.06293c-0.83634,1.0565 -1.87436,1.34625 -4.00879,0.32986c-0.44364,-0.21127 -1.84773,-1.26832 -3.14083,-2.35796z" data-paper-data="{&quot;index&quot;:null}" fill="#d6d6d6" stroke-linecap="butt"/></g></g></svg>