<svg version="1.1" xmlns="http://www.w3.org/2000/svg" xmlns:xlink="http://www.w3.org/1999/xlink" width="159.56163" height="158.50344" viewBox="0,0,159.56163,158.50344"><defs><linearGradient x1="323.98483" y1="164.94357" x2="317.69959" y2="164.94357" gradientUnits="userSpaceOnUse" id="color-1"><stop offset="0" stop-color="#5c0000"/><stop offset="1" stop-color="#150000"/></linearGradient><linearGradient x1="323.75487" y1="169.36779" x2="317.46962" y2="169.36779" gradientUnits="userSpaceOnUse" id="color-2"><stop offset="0" stop-color="#5c0000"/><stop offset="1" stop-color="#150000"/></linearGradient><linearGradient x1="324.18607" y1="174.31869" x2="317.90083" y2="174.31869" gradientUnits="userSpaceOnUse" id="color-3"><stop offset="0" stop-color="#5c0000"/><stop offset="1" stop-color="#150000"/></linearGradient><linearGradient x1="324.72268" y1="178.74289" x2="317.71506" y2="178.74289" gradientUnits="userSpaceOnUse" id="color-4"><stop offset="0" stop-color="#5c0000"/><stop offset="1" stop-color="#150000"/></linearGradient><linearGradient x1="323.67819" y1="202.02265" x2="317.39296" y2="202.02265" gradientUnits="userSpaceOnUse" id="color-5"><stop offset="0" stop-color="#5c0000"/><stop offset="1" stop-color="#150000"/></linearGradient><linearGradient x1="323.75486" y1="196.99274" x2="317.46962" y2="196.99274" gradientUnits="userSpaceOnUse" id="color-6"><stop offset="0" stop-color="#5c0000"/><stop offset="1" stop-color="#150000"/></linearGradient><linearGradient x1="323.52488" y1="192.56853" x2="317.23964" y2="192.56853" gradientUnits="userSpaceOnUse" id="color-7"><stop offset="0" stop-color="#5c0000"/><stop offset="1" stop-color="#150000"/></linearGradient><linearGradient x1="323.9561" y1="187.61764" x2="317.67084" y2="187.61764" gradientUnits="userSpaceOnUse" id="color-8"><stop offset="0" stop-color="#5c0000"/><stop offset="1" stop-color="#150000"/></linearGradient><linearGradient x1="324.4927" y1="183.19343" x2="317.48509" y2="183.19343" gradientUnits="userSpaceOnUse" id="color-9"><stop offset="0" stop-color="#5c0000"/><stop offset="1" stop-color="#150000"/></linearGradient><linearGradient x1="325.20796" y1="206.58442" x2="317.69791" y2="206.58442" gradientUnits="userSpaceOnUse" id="color-10"><stop offset="0" stop-color="#5c0000"/><stop offset="1" stop-color="#150000"/></linearGradient><linearGradient x1="323.67819" y1="155.02265" x2="317.39296" y2="155.02265" gradientUnits="userSpaceOnUse" id="color-11"><stop offset="0" stop-color="#5c0000"/><stop offset="1" stop-color="#150000"/></linearGradient><linearGradient x1="323.75486" y1="149.99274" x2="317.46962" y2="149.99274" gradientUnits="userSpaceOnUse" id="color-12"><stop offset="0" stop-color="#5c0000"/><stop offset="1" stop-color="#150000"/></linearGradient><linearGradient x1="323.52488" y1="145.56853" x2="317.23964" y2="145.56853" gradientUnits="userSpaceOnUse" id="color-13"><stop offset="0" stop-color="#5c0000"/><stop offset="1" stop-color="#150000"/></linearGradient><linearGradient x1="323.9561" y1="140.61764" x2="317.67084" y2="140.61764" gradientUnits="userSpaceOnUse" id="color-14"><stop offset="0" stop-color="#5c0000"/><stop offset="1" stop-color="#150000"/></linearGradient><linearGradient x1="325.20796" y1="159.58442" x2="317.69791" y2="159.58442" gradientUnits="userSpaceOnUse" id="color-15"><stop offset="0" stop-color="#5c0000"/><stop offset="1" stop-color="#150000"/></linearGradient><linearGradient x1="287.07807" y1="173.94357" x2="293.36331" y2="173.94357" gradientUnits="userSpaceOnUse" id="color-16"><stop offset="0" stop-color="#5c0000"/><stop offset="1" stop-color="#150000"/></linearGradient><linearGradient x1="287.30803" y1="178.36779" x2="293.59328" y2="178.36779" gradientUnits="userSpaceOnUse" id="color-17"><stop offset="0" stop-color="#5c0000"/><stop offset="1" stop-color="#150000"/></linearGradient><linearGradient x1="286.87683" y1="183.31869" x2="293.16207" y2="183.31869" gradientUnits="userSpaceOnUse" id="color-18"><stop offset="0" stop-color="#5c0000"/><stop offset="1" stop-color="#150000"/></linearGradient><linearGradient x1="286.34022" y1="187.74289" x2="293.34784" y2="187.74289" gradientUnits="userSpaceOnUse" id="color-19"><stop offset="0" stop-color="#5c0000"/><stop offset="1" stop-color="#150000"/></linearGradient><linearGradient x1="287.38471" y1="211.02265" x2="293.66994" y2="211.02265" gradientUnits="userSpaceOnUse" id="color-20"><stop offset="0" stop-color="#5c0000"/><stop offset="1" stop-color="#150000"/></linearGradient><linearGradient x1="287.30804" y1="205.99274" x2="293.59328" y2="205.99274" gradientUnits="userSpaceOnUse" id="color-21"><stop offset="0" stop-color="#5c0000"/><stop offset="1" stop-color="#150000"/></linearGradient><linearGradient x1="287.53802" y1="201.56853" x2="293.82326" y2="201.56853" gradientUnits="userSpaceOnUse" id="color-22"><stop offset="0" stop-color="#5c0000"/><stop offset="1" stop-color="#150000"/></linearGradient><linearGradient x1="287.1068" y1="196.61764" x2="293.39206" y2="196.61764" gradientUnits="userSpaceOnUse" id="color-23"><stop offset="0" stop-color="#5c0000"/><stop offset="1" stop-color="#150000"/></linearGradient><linearGradient x1="286.5702" y1="192.19343" x2="293.57781" y2="192.19343" gradientUnits="userSpaceOnUse" id="color-24"><stop offset="0" stop-color="#5c0000"/><stop offset="1" stop-color="#150000"/></linearGradient><linearGradient x1="287.38471" y1="164.02265" x2="293.66994" y2="164.02265" gradientUnits="userSpaceOnUse" id="color-25"><stop offset="0" stop-color="#5c0000"/><stop offset="1" stop-color="#150000"/></linearGradient><linearGradient x1="287.30804" y1="158.99274" x2="293.59328" y2="158.99274" gradientUnits="userSpaceOnUse" id="color-26"><stop offset="0" stop-color="#5c0000"/><stop offset="1" stop-color="#150000"/></linearGradient><linearGradient x1="287.53802" y1="154.56853" x2="293.82326" y2="154.56853" gradientUnits="userSpaceOnUse" id="color-27"><stop offset="0" stop-color="#5c0000"/><stop offset="1" stop-color="#150000"/></linearGradient><linearGradient x1="287.1068" y1="149.61764" x2="293.39206" y2="149.61764" gradientUnits="userSpaceOnUse" id="color-28"><stop offset="0" stop-color="#5c0000"/><stop offset="1" stop-color="#150000"/></linearGradient><linearGradient x1="286.5702" y1="145.19343" x2="293.57781" y2="145.19343" gradientUnits="userSpaceOnUse" id="color-29"><stop offset="0" stop-color="#5c0000"/><stop offset="1" stop-color="#150000"/></linearGradient><linearGradient x1="285.85494" y1="168.58442" x2="293.36499" y2="168.58442" gradientUnits="userSpaceOnUse" id="color-30"><stop offset="0" stop-color="#5c0000"/><stop offset="1" stop-color="#150000"/></linearGradient></defs><g transform="translate(-284.35341,-137.72608)"><g data-paper-data="{&quot;isPaintingLayer&quot;:true}" fill-rule="nonzero" stroke="#000000" stroke-width="1" stroke-linecap="butt" stroke-linejoin="miter" stroke-miterlimit="10" stroke-dasharray="" stroke-dashoffset="0" style="mix-blend-mode: normal"><path d="M419.56586,292.80856l-5.16657,2.30762l-0.94887,-2.33407l0.94887,-2.55267z" data-paper-data="{&quot;index&quot;:null}" fill="#000000"/><path d="M419.30313,287.98406l-4.80483,2.30763l-0.88242,-2.33407l0.88242,-2.55267z" data-paper-data="{&quot;index&quot;:null}" fill="#000000"/><path d="M419.36849,282.49905l-4.80483,2.30763l-0.88242,-2.33408l0.88242,-2.55267z" data-paper-data="{&quot;index&quot;:null}" fill="#000000"/><path d="M419.1724,277.67455l-4.80483,2.30763l-0.88242,-2.33408l0.88242,-2.55267z" data-paper-data="{&quot;index&quot;:null}" fill="#000000"/><path d="M419.54009,272.27569l-4.80483,2.30763l-0.88242,-2.33408l0.88242,-2.55267z" data-paper-data="{&quot;index&quot;:null}" fill="#000000"/><path d="M413.44997,295.72952v-26.71667h1.1663v26.71667z" fill="#000000"/><path d="M437.30574,218.71855l5.12051,-1.97353l0.94041,1.99614l-0.94041,2.18309z" data-paper-data="{&quot;index&quot;:null}" fill="#000000"/><path d="M437.56613,223.50497l4.762,-1.97353l0.87456,1.99614l-0.87456,2.18309z" data-paper-data="{&quot;index&quot;:null}" fill="#000000"/><path d="M437.50135,228.19584l4.762,-1.97353l0.87456,1.99615l-0.87456,2.18309z" data-paper-data="{&quot;index&quot;:null}" fill="#000000"/><path d="M437.69569,232.32186l4.762,-1.97353l0.87455,1.99615l-0.87455,2.18309z" data-paper-data="{&quot;index&quot;:null}" fill="#000000"/><path d="M437.33128,236.93907l4.762,-1.97353l0.87456,1.99615l-0.87456,2.18309z" data-paper-data="{&quot;index&quot;:null}" fill="#000000"/><path d="M443.36711,216.88088v22.84864h-1.1559v-22.84864z" fill="#000000"/><path d="M442.42625,211.26187l0.94041,2.18309l-0.94041,1.99614l-5.12051,-1.97353z" data-paper-data="{&quot;index&quot;:null}" fill="#000000"/><path d="M442.32813,207.13588l0.87456,2.18309l-0.87456,1.99614l-4.762,-1.97353z" data-paper-data="{&quot;index&quot;:null}" fill="#000000"/><path d="M442.26335,202.44498l0.87456,2.18309l-0.87456,1.99615l-4.762,-1.97353z" data-paper-data="{&quot;index&quot;:null}" fill="#000000"/><path d="M442.45769,198.31897l0.87455,2.18309l-0.87455,1.99615l-4.762,-1.97353z" data-paper-data="{&quot;index&quot;:null}" fill="#000000"/><path d="M442.09328,193.70175l0.87456,2.18309l-0.87456,1.99615l-4.762,-1.97353z" data-paper-data="{&quot;index&quot;:null}" fill="#000000"/><path d="M442.2112,215.96566v-22.84864h1.1559v22.84864z" data-paper-data="{&quot;index&quot;:null}" fill="#000000"/><path d="M437.12491,172.03473l5.12051,-1.97353l0.94041,1.99614l-0.94041,2.18309z" data-paper-data="{&quot;index&quot;:null}" fill="#000000"/><path d="M437.38531,176.16073l4.762,-1.97353l0.87456,1.99614l-0.87456,2.18309z" data-paper-data="{&quot;index&quot;:null}" fill="#000000"/><path d="M437.32053,180.85161l4.762,-1.97353l0.87456,1.99615l-0.87456,2.18309z" data-paper-data="{&quot;index&quot;:null}" fill="#000000"/><path d="M437.51487,184.97764l4.762,-1.97353l0.87455,1.99615l-0.87455,2.18309z" data-paper-data="{&quot;index&quot;:null}" fill="#000000"/><path d="M437.15046,189.59484l4.762,-1.97353l0.87456,1.99615l-0.87456,2.18309z" data-paper-data="{&quot;index&quot;:null}" fill="#000000"/><path d="M443.18629,169.53666v22.84864h-1.1559v-22.84864z" fill="#000000"/><path d="M318.3498,167.18422l-1.0349,-2.34087l1.0349,-2.14041l5.63504,2.11615z" data-paper-data="{&quot;index&quot;:null}" fill="url(#color-1)"/><path d="M318.11983,171.60844l-1.0349,-2.34087l1.0349,-2.14041l5.63504,2.11615z" data-paper-data="{&quot;index&quot;:null}" fill="url(#color-2)"/><path d="M318.55104,176.55934l-1.0349,-2.34087l1.0349,-2.14041l5.63504,2.11615z" data-paper-data="{&quot;index&quot;:null}" fill="url(#color-3)"/><path d="M318.43999,180.98353l-1.15384,-2.34087l1.15384,-2.1404l6.28269,2.11615z" data-paper-data="{&quot;index&quot;:null}" fill="url(#color-4)"/><path d="M323.67819,202.14713l-5.63504,2.11616l-1.0349,-2.14041l1.0349,-2.34087z" data-paper-data="{&quot;index&quot;:null}" fill="url(#color-5)"/><path d="M323.75486,197.11722l-5.63504,2.11616l-1.0349,-2.14042l1.0349,-2.34087z" data-paper-data="{&quot;index&quot;:null}" fill="url(#color-6)"/><path d="M323.52488,192.69301l-5.63504,2.11616l-1.0349,-2.14042l1.0349,-2.34087z" data-paper-data="{&quot;index&quot;:null}" fill="url(#color-7)"/><path d="M323.9561,187.74212l-5.63504,2.11616l-1.0349,-2.14042l1.0349,-2.34086z" data-paper-data="{&quot;index&quot;:null}" fill="url(#color-8)"/><path d="M324.4927,183.31791l-6.28269,2.11616l-1.15385,-2.14041l1.15385,-2.34087z" data-paper-data="{&quot;index&quot;:null}" fill="url(#color-9)"/><path d="M325.20796,206.71654l-6.73315,2.24607l-1.23658,-2.27183l1.23658,-2.48458z" data-paper-data="{&quot;index&quot;:null}" fill="url(#color-10)"/><path d="M323.67819,155.14713l-5.63504,2.11616l-1.0349,-2.14041l1.0349,-2.34087z" data-paper-data="{&quot;index&quot;:null}" fill="url(#color-11)"/><path d="M323.75486,150.11722l-5.63504,2.11616l-1.0349,-2.14042l1.0349,-2.34087z" data-paper-data="{&quot;index&quot;:null}" fill="url(#color-12)"/><path d="M323.52488,145.69301l-5.63504,2.11616l-1.0349,-2.14042l1.0349,-2.34087z" data-paper-data="{&quot;index&quot;:null}" fill="url(#color-13)"/><path d="M323.9561,140.74212l-5.63504,2.11616l-1.0349,-2.14042l1.0349,-2.34086z" data-paper-data="{&quot;index&quot;:null}" fill="url(#color-14)"/><path d="M325.20796,159.71654l-6.73315,2.24607l-1.23658,-2.27183l1.23658,-2.48458z" data-paper-data="{&quot;index&quot;:null}" fill="url(#color-15)"/><path d="M287.07806,173.81909l5.63504,-2.11615l1.0349,2.14041l-1.0349,2.34087z" data-paper-data="{&quot;index&quot;:null}" fill="url(#color-16)"/><path d="M287.30803,178.24331l5.63504,-2.11615l1.0349,2.14041l-1.0349,2.34087z" data-paper-data="{&quot;index&quot;:null}" fill="url(#color-17)"/><path d="M286.87682,183.19421l5.63504,-2.11615l1.0349,2.14041l-1.0349,2.34087z" data-paper-data="{&quot;index&quot;:null}" fill="url(#color-18)"/><path d="M286.34022,187.61841l6.28269,-2.11615l1.15384,2.1404l-1.15384,2.34087z" data-paper-data="{&quot;index&quot;:null}" fill="url(#color-19)"/><path d="M293.01975,208.78201l1.0349,2.34087l-1.0349,2.14041l-5.63504,-2.11616z" data-paper-data="{&quot;index&quot;:null}" fill="url(#color-20)"/><path d="M292.94308,203.75209l1.0349,2.34087l-1.0349,2.14042l-5.63504,-2.11616z" data-paper-data="{&quot;index&quot;:null}" fill="url(#color-21)"/><path d="M293.17306,199.32788l1.0349,2.34087l-1.0349,2.14042l-5.63504,-2.11616z" data-paper-data="{&quot;index&quot;:null}" fill="url(#color-22)"/><path d="M292.74184,194.377l1.0349,2.34086l-1.0349,2.14042l-5.63504,-2.11616z" data-paper-data="{&quot;index&quot;:null}" fill="url(#color-23)"/><path d="M292.85289,189.95279l1.15385,2.34087l-1.15385,2.14041l-6.28269,-2.11616z" data-paper-data="{&quot;index&quot;:null}" fill="url(#color-24)"/><path d="M293.01975,161.78201l1.0349,2.34087l-1.0349,2.14041l-5.63504,-2.11616z" data-paper-data="{&quot;index&quot;:null}" fill="url(#color-25)"/><path d="M292.94308,156.75209l1.0349,2.34087l-1.0349,2.14042l-5.63504,-2.11616z" data-paper-data="{&quot;index&quot;:null}" fill="url(#color-26)"/><path d="M293.17306,152.32788l1.0349,2.34087l-1.0349,2.14042l-5.63504,-2.11616z" data-paper-data="{&quot;index&quot;:null}" fill="url(#color-27)"/><path d="M292.74184,147.377l1.0349,2.34086l-1.0349,2.14042l-5.63504,-2.11616z" data-paper-data="{&quot;index&quot;:null}" fill="url(#color-28)"/><path d="M292.85289,142.95279l1.15385,2.34087l-1.15385,2.14041l-6.28269,-2.11616z" data-paper-data="{&quot;index&quot;:null}" fill="url(#color-29)"/><path d="M292.58809,166.2062l1.23658,2.48458l-1.23658,2.27183l-6.73315,-2.24607z" data-paper-data="{&quot;index&quot;:null}" fill="url(#color-30)"/></g></g></svg>