<svg version="1.1" xmlns="http://www.w3.org/2000/svg" xmlns:xlink="http://www.w3.org/1999/xlink" width="88.54598" height="88.54598" viewBox="0,0,88.54598,88.54598"><defs><radialGradient cx="239.94659" cy="151.76443" r="44.27299" gradientUnits="userSpaceOnUse" id="color-1"><stop offset="0" stop-color="#ffffff"/><stop offset="1" stop-color="#ffffff" stop-opacity="0"/></radialGradient><linearGradient x1="240.00001" y1="182.95145" x2="240.00001" y2="187.49846" gradientUnits="userSpaceOnUse" id="color-2"><stop offset="0" stop-color="#5c5c5c"/><stop offset="1" stop-color="#000000"/></linearGradient></defs><g transform="translate(-195.6736,-107.49144)"><g data-paper-data="{&quot;isPaintingLayer&quot;:true}" fill-rule="nonzero" stroke-linejoin="miter" stroke-miterlimit="10" stroke-dasharray="" stroke-dashoffset="0" style="mix-blend-mode: normal"><path d="M195.6736,151.76443c0,-24.45129 19.82169,-44.27299 44.27299,-44.27299c24.45129,0 44.27299,19.82169 44.27299,44.27299c0,24.45129 -19.82169,44.27299 -44.27299,44.27299c-24.45129,0 -44.27299,-19.82169 -44.27299,-44.27299z" fill="url(#color-1)" stroke="#000000" stroke-width="0" stroke-linecap="butt"/><path d="M238.4091,183.09093v-20.6771c0,0 0.99303,0.26497 1.50899,0.26497c0.54324,0 1.67283,-0.26497 1.67283,-0.26497v20.6771z" fill="#5b2a0d" stroke="#000000" stroke-width="1" stroke-linecap="butt"/><path d="M244.68503,159.59093v11.18182" fill="none" stroke="#4c4c4c" stroke-width="0.75" stroke-linecap="round"/><path d="M243.79043,173.07365v-2.81607h1.72093v2.81607c0,0 -0.64005,0.54757 -0.93869,0.54757c-0.27262,0 -0.78224,-0.54757 -0.78224,-0.54757z" fill="#808080" stroke="#000000" stroke-width="0.5" stroke-linecap="butt"/><path d="M237.96374,162.40911c0,0 -4.99783,-2.2819 -4.99783,-4.02062c0,-2.10324 0,-7.3338 0,-10.69119c0,-1.76722 2.36827,-3.01546 3.89565,-3.01546c1.29924,0 3.86578,0 6.08696,0c2.17414,0 4.01739,1.02261 4.01739,2.74133c0,3.35311 0,8.8429 0,10.96532c0,1.73872 -4.87609,4.02062 -4.87609,4.02062z" fill="#4f4f4f" stroke="#000000" stroke-width="1" stroke-linecap="butt"/><path d="M232.63638,186.06902c0,-0.61069 0,-1.31829 0,-1.68811c0,-0.56822 0.65255,-1.42946 1.22969,-1.42946c1.58331,0 8.87288,0 11.99138,0c0.85666,0 1.5062,0.91021 1.5062,1.31304c0,0.38209 0,1.12628 0,1.80453c0,0.75565 -0.74756,1.42945 -1.44798,1.42945c-1.71343,0 -8.94315,0 -11.93317,0c-0.79642,0 -1.34612,-0.65447 -1.34612,-1.42945z" fill="url(#color-2)" stroke="#000000" stroke-width="1.5" stroke-linecap="butt"/><path d="M236.27273,158.1932v-10.81818h7.54546v10.81818z" fill="#ffffff" stroke="#000000" stroke-width="1" stroke-linecap="butt"/><path d="M236.14776,158.3182v-10.81818c0,0 2.51315,-0.26327 3.77032,-0.26327c1.25797,0 3.77514,0.26327 3.77514,0.26327v10.81818c0,0 -1.30817,1.06819 -2.50625,1.42364c-1.00293,0.29755 -1.73021,-0.10726 -2.32198,-0.10726c-1.21023,0 -2.71723,-1.31638 -2.71723,-1.31638z" fill="#ffffff" stroke="#000000" stroke-width="1" stroke-linecap="butt"/></g></g></svg>