<svg version="1.1" xmlns="http://www.w3.org/2000/svg" xmlns:xlink="http://www.w3.org/1999/xlink" width="101.09105" height="102.01199" viewBox="0,0,101.09105,102.01199"><defs><linearGradient x1="256.5295" y1="162.20682" x2="255.9218" y2="159.7955" gradientUnits="userSpaceOnUse" id="color-1"><stop offset="0" stop-color="#333333"/><stop offset="1" stop-color="#515151"/></linearGradient><linearGradient x1="291.08843" y1="146.04895" x2="305.94" y2="154.92146" gradientUnits="userSpaceOnUse" id="color-2"><stop offset="0" stop-color="#0e0e0e"/><stop offset="1" stop-color="#141414"/></linearGradient><linearGradient x1="292.56943" y1="150.4994" x2="304.27471" y2="150.4994" gradientUnits="userSpaceOnUse" id="color-3"><stop offset="0" stop-color="#002864"/><stop offset="1" stop-color="#004c7d"/></linearGradient><linearGradient x1="201.99289" y1="188.72249" x2="199.02305" y2="191.69233" gradientUnits="userSpaceOnUse" id="color-4"><stop offset="0" stop-color="#333333"/><stop offset="1" stop-color="#515151"/></linearGradient><linearGradient x1="227.16042" y1="187.80848" x2="238.91132" y2="187.80848" gradientUnits="userSpaceOnUse" id="color-5"><stop offset="0" stop-color="#002864"/><stop offset="1" stop-color="#004c7d"/></linearGradient><linearGradient x1="240.93733" y1="187.80848" x2="252.68823" y2="187.80848" gradientUnits="userSpaceOnUse" id="color-6"><stop offset="0" stop-color="#002864"/><stop offset="1" stop-color="#004c7d"/></linearGradient><linearGradient x1="253.43353" y1="168.30419" x2="226.36211" y2="168.30419" gradientUnits="userSpaceOnUse" id="color-7"><stop offset="0" stop-color="#252525"/><stop offset="1" stop-color="#151515"/></linearGradient><linearGradient x1="236.22539" y1="158.31519" x2="249.22629" y2="158.31519" gradientUnits="userSpaceOnUse" id="color-8"><stop offset="0" stop-color="#002864"/><stop offset="1" stop-color="#004c7d"/></linearGradient><linearGradient x1="258.42629" y1="170.95129" x2="263.42629" y2="170.95129" gradientUnits="userSpaceOnUse" id="color-9"><stop offset="0" stop-color="#002864"/><stop offset="1" stop-color="#004c7d"/></linearGradient><linearGradient x1="235.55225" y1="172.77408" x2="246.54292" y2="172.77408" gradientUnits="userSpaceOnUse" id="color-10"><stop offset="0" stop-color="#002864"/><stop offset="1" stop-color="#004c7d"/></linearGradient><linearGradient x1="251.68518" y1="126.37202" x2="312.15241" y2="126.37202" gradientUnits="userSpaceOnUse" id="color-11"><stop offset="0" stop-color="#002864"/><stop offset="1" stop-color="#004c7d"/></linearGradient></defs><g transform="translate(-218.2608,-93.33097)"><g data-paper-data="{&quot;isPaintingLayer&quot;:true}" fill-rule="nonzero" stroke-linejoin="miter" stroke-miterlimit="10" stroke-dasharray="" stroke-dashoffset="0" style="mix-blend-mode: normal"><g data-paper-data="{&quot;index&quot;:null}" stroke="#000000" stroke-linecap="butt"><path d="M290.66052,150.74876l0.81508,3.23415l-63.65651,15.75131l-6.5632,-0.02444l5.80818,-3.07896z" fill="url(#color-1)" stroke-width="1.5"/><path d="M302.95046,143.05943c4.10113,2.45006 5.43961,7.76091 2.98952,11.86203c-2.45006,4.10113 -7.76091,5.43961 -11.86203,2.98952c-4.10113,-2.45006 -5.43961,-7.76091 -2.98952,-11.86203c2.45006,-4.10113 7.76091,-5.43961 11.86203,-2.98952z" fill="url(#color-2)" stroke-width="2"/><path d="M304.27471,149.02438l-4.37762,7.32766l-7.32766,-4.37762l4.37762,-7.32766z" fill="url(#color-3)" stroke-width="1.5"/></g><path d="" fill="url(#color-4)" stroke="#000000" stroke-width="1.5" stroke-linecap="butt"/><path d="M233.03587,193.84296c-3.24492,0 -5.87545,-2.70173 -5.87545,-6.03448c0,-3.33275 2.63053,-6.03448 5.87545,-6.03448c3.24492,0 5.87545,2.70173 5.87545,6.03448c0,3.33275 -2.63053,6.03448 -5.87545,6.03448z" data-paper-data="{&quot;index&quot;:null}" fill="url(#color-5)" stroke="#000000" stroke-width="3" stroke-linecap="butt"/><path d="M246.81278,193.84296c-3.24492,0 -5.87545,-2.70173 -5.87545,-6.03448c0,-3.33275 2.63053,-6.03448 5.87545,-6.03448c3.24492,0 5.87545,2.70173 5.87545,6.03448c0,3.33275 -2.63053,6.03448 -5.87545,6.03448z" data-paper-data="{&quot;index&quot;:null}" fill="url(#color-6)" stroke="#000000" stroke-width="3" stroke-linecap="butt"/><path d="M253.43353,187.27962c0,0 -2.86479,0 -5.19247,0c-1.44268,0 -4.00883,0 -6.88845,0c-3.43372,0 -7.31319,0 -10.26515,0c-2.77145,0 -4.72536,0 -4.72536,0c0,0 0,-27.68012 0,-33.60553c0,-2.13071 1.8938,-4.34533 3.87437,-4.34533c5.50644,0 15.72141,0 18.8,0c1.47693,0 4.19706,2.09852 4.19706,4.14533c0,5.8451 0.2,33.80552 0.2,33.80552z" data-paper-data="{&quot;index&quot;:null}" fill="url(#color-7)" stroke="#000000" stroke-width="3" stroke-linecap="butt"/><path d="M237.0465,161.89852c0,0 -0.82111,-2.49469 -0.82111,-3.79412c0,-1.02239 0.82111,-3.37255 0.82111,-3.37255h11.35868c0,0 0.82111,2.2839 0.82111,3.58333c0,1.02238 -0.82111,3.58333 -0.82111,3.58333z" data-paper-data="{&quot;index&quot;:null}" fill="url(#color-8)" stroke="#000000" stroke-width="2" stroke-linecap="butt"/><path d="M258.42629,193.68462v-45.46667h5v45.46667z" data-paper-data="{&quot;index&quot;:null}" fill="url(#color-9)" stroke="#000000" stroke-width="2" stroke-linecap="butt"/><path d="M239.63647,175.67409v-5.6h18.8v5.6z" data-paper-data="{&quot;index&quot;:null}" fill="#5a5a5a" stroke="#000000" stroke-width="2" stroke-linecap="butt"/><path d="M241.04758,180.26942l-5.49533,-7.49533l5.49533,-7.49534l5.49534,7.49534z" data-paper-data="{&quot;index&quot;:null}" fill="url(#color-10)" stroke="#000000" stroke-width="2" stroke-linecap="butt"/><path d="" fill="#000000" stroke="#000000" stroke-width="1" stroke-linecap="butt"/><path d="M251.68518,102.07993c0,0 13.68941,-4.08299 25.3026,-0.9885c7.39942,1.97168 13.3262,6.7705 16.39868,9.6834c0.75127,0.71225 10.0304,8.52006 15.05983,18.99719c4.77013,9.93696 3.57222,23.03933 3.57222,23.03933" data-paper-data="{&quot;index&quot;:null}" fill="none" stroke="url(#color-11)" stroke-width="4" stroke-linecap="round"/><path d="M251.01852,98.14467c0,0 14.75061,-4.3995 27.26404,-1.06512c8.21266,2.18837 15.02633,7.64637 18.41825,10.7717c0.75622,0.69678 11.38766,11.18665 15.76072,21.66499c4.23287,10.14244 3.55699,20.2951 3.55699,20.2951" data-paper-data="{&quot;index&quot;:null}" fill="none" stroke="#000000" stroke-width="5" stroke-linecap="round"/><path d="M314.35186,158.64467c-2.48528,0 -4.5,-2.01472 -4.5,-4.5c0,-2.48528 2.01472,-4.5 4.5,-4.5c2.48528,0 4.5,2.01472 4.5,4.5c0,2.48528 -2.01472,4.5 -4.5,4.5z" data-paper-data="{&quot;index&quot;:null}" fill="#000000" stroke="#000000" stroke-width="1" stroke-linecap="butt"/></g></g></svg>