<svg version="1.1" xmlns="http://www.w3.org/2000/svg" xmlns:xlink="http://www.w3.org/1999/xlink" width="505.99399" height="373.87387" viewBox="0,0,505.99399,373.87387"><defs><radialGradient cx="219.89328" cy="239.41028" r="1.26853" gradientUnits="userSpaceOnUse" id="color-1"><stop offset="0" stop-color="#000000"/><stop offset="1" stop-color="#000000" stop-opacity="0"/></radialGradient></defs><g transform="translate(14.497,5.93693)"><g data-paper-data="{&quot;isPaintingLayer&quot;:true}" fill-rule="nonzero" stroke-linejoin="miter" stroke-miterlimit="10" stroke-dasharray="" stroke-dashoffset="0" style="mix-blend-mode: normal"><g><path d="M-14.497,367.93694v-373.87387h505.99399v373.87387z" fill="#000000" stroke="none" stroke-width="NaN" stroke-linecap="butt"/><g stroke="#000000"><path d="M8.1212,326.42967v-290.85933h272.1034v290.85933z" fill="#373737" stroke-width="0" stroke-linecap="butt"/><path d="M468.8788,322.75334l-185.98719,0.11267v-282.48078h185.07264" fill="#1d1d1d" stroke-width="0" stroke-linecap="round"/><path d="M171.93269,42.48611v279.36198" fill="none" stroke-width="8" stroke-linecap="round"/><path d="M11.19096,324.03067v-286.06136h454.82529v286.06136z" fill="none" stroke-width="9" stroke-linecap="butt"/><path d="M278.90988,39.43584v279.36198" fill="none" stroke-width="8" stroke-linecap="round"/></g></g><g stroke-linecap="butt"><path d="M42.38862,77.71696v-23.839h23.839v23.839z" fill="#191919" stroke="#000000" stroke-width="3"/><text transform="translate(44.70046,73.77157) scale(0.51211,0.51211)" font-size="40" xml:space="preserve" fill="#ffffff" fill-rule="nonzero" stroke="#ffffff" stroke-width="1" stroke-linecap="butt" stroke-linejoin="miter" stroke-miterlimit="10" stroke-dasharray="" stroke-dashoffset="0" font-family="Sans Serif" font-weight="normal" text-anchor="start" style="mix-blend-mode: normal"><tspan x="0" dy="0">W</tspan></text></g><g stroke-linecap="butt"><path d="M104.86934,78.72888v-23.83901h23.839v23.83901z" fill="#191919" stroke="#000000" stroke-width="3"/><text transform="translate(111.2022,76.63935) scale(0.5121,0.5121)" font-size="40" xml:space="preserve" fill="#ffffff" fill-rule="nonzero" stroke="#ffffff" stroke-width="1" stroke-linecap="butt" stroke-linejoin="miter" stroke-miterlimit="10" stroke-dasharray="" stroke-dashoffset="0" font-family="Sans Serif" font-weight="normal" text-anchor="start" style="mix-blend-mode: normal"><tspan x="0" dy="0">^</tspan></text></g><g stroke-linecap="butt"><path d="M138.89349,78.57282v-23.839h23.839v23.839z" fill="#191919" stroke="#000000" stroke-width="3"/><text transform="translate(145.53564,74.0088) scale(0.5121,0.5121)" font-size="40" xml:space="preserve" fill="#ffffff" fill-rule="nonzero" stroke="#ffffff" stroke-width="1" stroke-linecap="butt" stroke-linejoin="miter" stroke-miterlimit="10" stroke-dasharray="" stroke-dashoffset="0" font-family="Sans Serif" font-weight="normal" text-anchor="start" style="mix-blend-mode: normal"><tspan x="0" dy="0">Z</tspan></text></g><g stroke-linecap="butt"><path d="M243.66052,68.8367c0,9.69447 -7.85891,17.55337 -17.55337,17.55337c-9.69447,0 -17.55337,-7.8589 -17.55337,-17.55337c0,-9.69446 7.85891,-17.55337 17.55337,-17.55337c9.69446,0 17.55337,7.85891 17.55337,17.55337z" data-paper-data="{&quot;index&quot;:null}" fill="#9a9a9a" stroke="#272727" stroke-width="7"/><path d="M217.10468,74.99496l9.17861,-16.54344l9.17863,16.54344z" data-paper-data="{&quot;index&quot;:null}" fill="#000000" stroke="none" stroke-width="0"/></g><g stroke-linecap="butt"><path d="M26.68587,122.18559v-23.839h23.839v23.839z" fill="#191919" stroke="#000000" stroke-width="3"/><text transform="translate(31.78149,118.24021) scale(0.51211,0.51211)" font-size="40" xml:space="preserve" fill="#ffffff" fill-rule="nonzero" stroke="#ffffff" stroke-width="1" stroke-linecap="butt" stroke-linejoin="miter" stroke-miterlimit="10" stroke-dasharray="" stroke-dashoffset="0" font-family="Sans Serif" font-weight="normal" text-anchor="start" style="mix-blend-mode: normal"><tspan x="0" dy="0">A</tspan></text></g><g stroke-linecap="butt"><path d="M61.01932,122.18559v-23.839h23.839v23.839z" fill="#191919" stroke="#000000" stroke-width="3"/><text transform="translate(66.11495,118.24021) scale(0.51211,0.51211)" font-size="40" xml:space="preserve" fill="#ffffff" fill-rule="nonzero" stroke="#ffffff" stroke-width="1" stroke-linecap="butt" stroke-linejoin="miter" stroke-miterlimit="10" stroke-dasharray="" stroke-dashoffset="0" font-family="Sans Serif" font-weight="normal" text-anchor="start" style="mix-blend-mode: normal"><tspan x="0" dy="0">D</tspan></text></g><g stroke-linecap="butt"><path d="M104.56003,122.18559v-23.839h23.839v23.839z" fill="#191919" stroke="#000000" stroke-width="3"/><text transform="translate(109.65565,118.24021) scale(0.51211,0.51211)" font-size="40" xml:space="preserve" fill="#ffffff" fill-rule="nonzero" stroke="#ffffff" stroke-width="1" stroke-linecap="butt" stroke-linejoin="miter" stroke-miterlimit="10" stroke-dasharray="" stroke-dashoffset="0" font-family="Sans Serif" font-weight="normal" text-anchor="start" style="mix-blend-mode: normal"><tspan x="0" dy="0">&lt;</tspan></text></g><path d="M97.53955,97.99001l-6.49552,25.05414" fill="none" stroke="#000000" stroke-width="4" stroke-linecap="round"/><g data-paper-data="{&quot;index&quot;:null}" stroke-linecap="butt"><path d="M138.96553,122.18559v-23.839h23.839v23.839z" fill="#191919" stroke="#000000" stroke-width="3"/><text transform="translate(157.7089,118.24021) rotate(-180) scale(0.51211,-0.51211)" font-size="40" xml:space="preserve" fill="#ffffff" fill-rule="nonzero" stroke="#ffffff" stroke-width="1" stroke-linecap="butt" stroke-linejoin="miter" stroke-miterlimit="10" stroke-dasharray="" stroke-dashoffset="0" font-family="Sans Serif" font-weight="normal" text-anchor="start" style="mix-blend-mode: normal"><tspan x="0" dy="0">&lt;</tspan></text></g><g stroke-linecap="butt"><path d="M202.90887,94.89611c9.69447,0 17.55337,7.8589 17.55337,17.55337c0,9.69448 -7.85889,17.55337 -17.55337,17.55337c-9.69447,0 -17.55337,-7.8589 -17.55337,-17.55337c0,-9.69446 7.8589,-17.55337 17.55337,-17.55337z" data-paper-data="{&quot;index&quot;:null}" fill="#9a9a9a" stroke="#272727" stroke-width="7"/><path d="M209.06714,121.45197l-16.54345,-9.1786l16.54345,-9.17863z" data-paper-data="{&quot;index&quot;:null}" fill="#000000" stroke="none" stroke-width="0"/></g><g data-paper-data="{&quot;index&quot;:null}" stroke-linecap="butt"><path d="M265.00291,112.44949c0,9.69447 -7.8589,17.55337 -17.55337,17.55337c-9.69448,0 -17.55337,-7.85889 -17.55337,-17.55337c0,-9.69446 7.8589,-17.55337 17.55337,-17.55337c9.69447,0 17.55337,7.85891 17.55337,17.55337z" data-paper-data="{&quot;index&quot;:null}" fill="#9a9a9a" stroke="#272727" stroke-width="7"/><path d="M241.29132,103.09473l16.54344,9.17863l-16.54344,9.17861z" data-paper-data="{&quot;index&quot;:null}" fill="#000000" stroke="none" stroke-width="0"/></g><path d="M91.04403,78.50345l6.49552,-25.05414" fill="none" stroke="#000000" stroke-width="4" stroke-linecap="round"/><g><path d="M229.09224,217.37688c-9.6491,2.89919 -19.82151,-2.57269 -22.7207,-12.22179c-2.89919,-9.6491 2.57269,-19.82151 12.22179,-22.7207c9.6491,-2.89919 19.82151,2.57269 22.7207,12.22179c2.89919,9.6491 -2.57269,19.82151 -12.22179,22.7207z" data-paper-data="{&quot;index&quot;:null}" fill="#9a9a9a" stroke="#272727" stroke-width="5" stroke-linecap="butt"/><path d="M228.19753,202.74169c0,-2.23265 0,-5.57698 0,-6.66578c0,-0.72838 0.79181,-1.55019 1.4936,-1.55019c1.23601,0 4.98266,0 7.01986,0c0.72439,0 1.4936,1.10094 1.4936,1.7052c0,1.09825 0,4.61483 0,6.8208c0,1.09014 -0.96997,1.86022 -1.94167,1.86022c-1.2155,0 -4.28885,0 -6.27309,0c-0.96922,0 -1.79231,-0.83706 -1.79231,-2.17026z" fill="#000000" stroke="none" stroke-width="NaN" stroke-linecap="butt"/><path d="M226.58927,204.89409h-13.19382" fill="none" stroke="#000000" stroke-width="1" stroke-linecap="round"/><path d="M214.36365,195.42505h9.22753" fill="none" stroke="#000000" stroke-width="1" stroke-linecap="round"/><path d="M224.76232,201.51547h-7.79669" fill="none" stroke="#000000" stroke-width="1" stroke-linecap="round"/><path d="M226.80407,198.03823h-16.47206" fill="none" stroke="#000000" stroke-width="1" stroke-linecap="round"/><path d="M215.18724,200.21871h-2.6575" fill="none" stroke="#000000" stroke-width="1" stroke-linecap="round"/><path d="M208.94789,202.61387h5.19946" fill="none" stroke="#000000" stroke-width="1" stroke-linecap="round"/></g><text transform="translate(182.818,34.62338) scale(0.9117,0.9117)" font-size="40" xml:space="preserve" fill="#ffffff" fill-rule="nonzero" stroke="#ffffff" stroke-width="2" stroke-linecap="butt" stroke-linejoin="miter" stroke-miterlimit="10" stroke-dasharray="" stroke-dashoffset="0" font-family="Sans Serif" font-weight="normal" text-anchor="start" style="mix-blend-mode: normal"><tspan x="0" dy="0">Control</tspan><tspan x="0" dy="46.150000000000006px"> </tspan></text><path d="M380.14874,54.55765v249.76575" fill="none" stroke="#000000" stroke-width="8" stroke-linecap="round"/><g stroke-linecap="butt"><path d="M320.36972,254.86471v-24.21537h24.21538v24.21537z" fill="#191919" stroke="#000000" stroke-width="3"/><text transform="translate(325.54581,250.85702) scale(0.5202,0.5202)" font-size="40" xml:space="preserve" fill="#ffffff" fill-rule="nonzero" stroke="#ffffff" stroke-width="1" stroke-linecap="butt" stroke-linejoin="miter" stroke-miterlimit="10" stroke-dasharray="" stroke-dashoffset="0" font-family="Sans Serif" font-weight="normal" text-anchor="start" style="mix-blend-mode: normal"><tspan x="0" dy="0">B</tspan></text></g><g stroke="#007f04" stroke-linecap="butt"><path d="M420.38744,217.37438c-9.26188,0 -16.7701,-7.50822 -16.7701,-16.77009c0,-9.26188 7.50822,-16.77009 16.7701,-16.77009c9.26188,0 16.77009,7.50822 16.77009,16.77009c0,9.26188 -7.50821,16.77009 -16.77009,16.77009z" data-paper-data="{&quot;index&quot;:null}" fill="#9a9a9a" stroke-width="5"/><text transform="translate(407.13726,204.25945) scale(0.30461,0.30461)" font-size="40" xml:space="preserve" fill="#007f04" fill-rule="nonzero" stroke="#007f04" stroke-width="3" stroke-linecap="butt" stroke-linejoin="miter" stroke-miterlimit="10" stroke-dasharray="" stroke-dashoffset="0" font-family="Sans Serif" font-weight="normal" text-anchor="start" style="mix-blend-mode: normal"><tspan x="0" dy="0">MAP</tspan></text></g><g stroke="#000000" stroke-linecap="butt"><path d="M420.39304,174.91571c-9.26188,0 -16.77009,-7.50822 -16.77009,-16.77009c0,-9.26188 7.50821,-16.77009 16.77009,-16.77009c9.26188,0 16.7701,7.50822 16.7701,16.77009c0,9.26188 -7.50822,16.77009 -16.7701,16.77009z" data-paper-data="{&quot;index&quot;:null}" fill="#9a9a9a" stroke-width="4"/><text transform="translate(405.78661,161.06689) scale(0.24345,0.24345)" font-size="40" xml:space="preserve" fill="#000000" fill-rule="nonzero" stroke="#000000" stroke-width="3" stroke-linecap="butt" stroke-linejoin="miter" stroke-miterlimit="10" stroke-dasharray="" stroke-dashoffset="0" font-family="Sans Serif" font-weight="normal" text-anchor="start" style="mix-blend-mode: normal"><tspan x="0" dy="0">MENU</tspan></text></g><g stroke="#0a3300" stroke-linecap="butt"><path d="M420.33643,88.70487c-9.26188,0 -16.7701,-7.50821 -16.7701,-16.77009c0,-9.26188 7.50822,-16.77009 16.7701,-16.77009c9.26188,0 16.7701,7.50822 16.7701,16.77009c0,9.26188 -7.50822,16.77009 -16.7701,16.77009z" data-paper-data="{&quot;index&quot;:null}" fill="#9a9a9a" stroke-width="4"/><text transform="translate(407.15373,75.33677) scale(0.28351,0.28351)" font-size="40" xml:space="preserve" fill="#0a3300" fill-rule="nonzero" stroke="#0a3300" stroke-width="3" stroke-linecap="butt" stroke-linejoin="miter" stroke-miterlimit="10" stroke-dasharray="" stroke-dashoffset="0" font-family="Sans Serif" font-weight="normal" text-anchor="start" style="mix-blend-mode: normal"><tspan x="0" dy="0">SAVE</tspan></text></g><g stroke="#3f0000" stroke-linecap="butt"><path d="M420.23736,131.53713c-9.26188,0 -16.77009,-7.50821 -16.77009,-16.77009c0,-9.26188 7.50821,-16.7701 16.77009,-16.7701c9.26188,0 16.7701,7.50822 16.7701,16.7701c0,9.26188 -7.50822,16.77009 -16.7701,16.77009z" data-paper-data="{&quot;index&quot;:null}" fill="#9a9a9a" stroke-width="4"/><text transform="translate(405.45962,118.63055) scale(0.25651,0.25651)" font-size="40" xml:space="preserve" fill="#3f0000" fill-rule="nonzero" stroke="#3f0000" stroke-width="3" stroke-linecap="butt" stroke-linejoin="miter" stroke-miterlimit="10" stroke-dasharray="" stroke-dashoffset="0" font-family="Sans Serif" font-weight="normal" text-anchor="start" style="mix-blend-mode: normal"><tspan x="0" dy="0">RESET</tspan></text></g><g stroke-linecap="butt"><path d="M319.87719,82.48259v-24.21537h24.21537v24.21538z" fill="#191919" stroke="#000000" stroke-width="3"/><text transform="translate(325.99586,78.47489) scale(0.5202,0.5202)" font-size="40" xml:space="preserve" fill="#ffffff" fill-rule="nonzero" stroke="#ffffff" stroke-width="1" stroke-linecap="butt" stroke-linejoin="miter" stroke-miterlimit="10" stroke-dasharray="" stroke-dashoffset="0" font-family="Sans Serif" font-weight="normal" text-anchor="start" style="mix-blend-mode: normal"><tspan x="0" dy="0">V</tspan></text></g><g stroke-linecap="butt"><path d="M319.87719,125.73103v-24.21538h24.21537v24.21538z" fill="#191919" stroke="#000000" stroke-width="3"/><text transform="translate(325.99586,121.72335) scale(0.5202,0.5202)" font-size="40" xml:space="preserve" fill="#ffffff" fill-rule="nonzero" stroke="#ffffff" stroke-width="1" stroke-linecap="butt" stroke-linejoin="miter" stroke-miterlimit="10" stroke-dasharray="" stroke-dashoffset="0" font-family="Sans Serif" font-weight="normal" text-anchor="start" style="mix-blend-mode: normal"><tspan x="0" dy="0">R</tspan></text></g><g stroke-linecap="butt"><path d="M320.36972,212.44853v-24.21537h24.21538v24.21537c0,0 -4.76778,0 -7.86337,0c-4.464,0 -16.35201,0 -16.35201,0z" fill="#191919" stroke="#000000" stroke-width="3"/><text transform="translate(323.66065,207.49827) scale(0.5202,0.5202)" font-size="40" xml:space="preserve" fill="#ffffff" fill-rule="nonzero" stroke="#ffffff" stroke-width="1" stroke-linecap="butt" stroke-linejoin="miter" stroke-miterlimit="10" stroke-dasharray="" stroke-dashoffset="0" font-family="Sans Serif" font-weight="normal" text-anchor="start" style="mix-blend-mode: normal"><tspan x="0" dy="0">M</tspan></text></g><g stroke-linecap="butt"><path d="M320.36972,169.08978v-24.21537h24.21538v24.21537z" fill="#191919" stroke="#000000" stroke-width="3"/><text transform="translate(324.60321,165.08209) scale(0.5202,0.5202)" font-size="40" xml:space="preserve" fill="#ffffff" fill-rule="nonzero" stroke="#ffffff" stroke-width="1" stroke-linecap="butt" stroke-linejoin="miter" stroke-miterlimit="10" stroke-dasharray="" stroke-dashoffset="0" font-family="Sans Serif" font-weight="normal" text-anchor="start" style="mix-blend-mode: normal"><tspan x="0" dy="0">N</tspan></text></g><g stroke-linecap="butt"><path d="M421.18737,262.21502c-9.98122,0 -18.07257,-8.09135 -18.07257,-18.07257c0,-9.98122 8.09135,-18.07256 18.07257,-18.07256c9.98122,0 18.07257,8.09134 18.07257,18.07256c0,9.98122 -8.09135,18.07257 -18.07257,18.07257z" data-paper-data="{&quot;index&quot;:null}" fill="#9a9a9a" stroke="#0046d8" stroke-width="4.5"/><path d="M418.34079,238.35501l2.63202,-6.60315l2.47718,6.60315v13.74534c0,0 -1.85996,0.81674 -2.77855,0.81674c-0.75011,0 -2.33065,-0.81674 -2.33065,-0.81674z" fill="#000000" stroke="#000000" stroke-width="0.5"/><path d="M410.81913,253.76234v-13.45593l2.5766,-6.46413l2.42503,6.46413v13.45593c0,0 -1.82081,0.79954 -2.72006,0.79954c-0.7343,0 -2.28157,-0.79954 -2.28157,-0.79954z" fill="#000000" stroke="#000000" stroke-width="0.5"/><path d="M425.94802,253.81107v-13.84181l2.65049,-6.64949l2.49457,6.64949v13.84181c0,0 -1.87302,0.82247 -2.79805,0.82247c-0.75536,0 -2.34701,-0.82247 -2.34701,-0.82247z" fill="#000000" stroke="#000000" stroke-width="0.5"/></g><g><path d="M223.74034,174.9815c-10.4474,0 -18.91667,-8.46927 -18.91667,-18.91667c0,-10.4474 8.46927,-18.91667 18.91667,-18.91667c10.4474,0 18.91667,8.46927 18.91667,18.91667c0,10.4474 -8.46927,18.91667 -18.91667,18.91667z" data-paper-data="{&quot;index&quot;:null}" fill="#9a9a9a" stroke="#a31010" stroke-width="5" stroke-linecap="butt"/><g fill="#000000" stroke="#000000" stroke-width="0.75"><path d="M218.21099,160.17864c0,0 0.8936,0.27517 1.23265,0.536c0.33618,0.2586 0.91952,1.20077 0.91952,1.20077" stroke-linecap="round"/><g data-paper-data="{&quot;index&quot;:null}" stroke-linecap="butt"><path d="M213.69118,165.91089l4.35397,-5.24933l1.65042,1.5155l-4.35397,5.24933c0,0 -1.01232,-0.04889 -1.30537,-0.31797c-0.25037,-0.2299 -0.34506,-1.19753 -0.34506,-1.19753z"/><path d="M217.54287,159.82601l10.6682,-12.57138l4.80388,-3.32224l-2.23378,5.5633l-10.3261,12.88553z"/><path d="M215.09778,158.61617c0.27616,-0.33294 2.84882,0.73368 2.84882,0.73368c0,0 2.03966,1.43303 3.03884,2.79046c0.99919,1.35745 1.21759,2.43149 0.99897,2.69505c-0.23067,0.27812 -1.38569,0.19155 -1.38569,0.19155c0,0 -1.34841,-2.29276 -2.18038,-3.05674c-0.87518,-0.80365 -2.94769,-1.65222 -2.94769,-1.65222c0,0 -0.59233,-1.4372 -0.37287,-1.70179z"/><path d="M212.84204,166.81232c0,0 0.09264,-0.43116 0.21904,-0.58354c0.13324,-0.16063 0.56091,-0.35681 0.56091,-0.35681c0,0 0.62429,0.43079 0.91408,0.69691c0.27793,0.25525 0.79065,0.86849 0.79065,0.86849c0,0 -0.12686,0.47242 -0.26007,0.63305c-0.12639,0.15238 -0.51988,0.30732 -0.51988,0.30732c0,0 -0.72113,-0.40063 -1.02564,-0.68027c-0.25481,-0.23398 -0.6791,-0.88514 -0.6791,-0.88514z"/><path d="M219.03111,160.1747l9.24287,-11.00767l2.07285,-1.67499l-1.16944,2.33612l-9.15454,11.173z"/><path d="M218.31772,159.65791l1.83583,0.12381l0.3319,1.93706l-1.83583,-0.12381z"/></g></g></g><g><path d="M224.2501,262.236c-10.35536,0 -18.75001,-8.39465 -18.75001,-18.75001c0,-10.35536 8.39465,-18.75 18.75001,-18.75c10.35536,0 18.75,8.39464 18.75,18.75c0,10.35536 -8.39465,18.75001 -18.75,18.75001z" data-paper-data="{&quot;index&quot;:null}" fill="#9a9a9a" stroke="#104ea3" stroke-width="5" stroke-linecap="butt"/><g stroke="#000000"><path d="M224.32894,243.24723v-1.89014h6.15012v1.89014z" data-paper-data="{&quot;index&quot;:null}" fill="#000000" stroke-width="1" stroke-linecap="butt"/><path d="M233.05413,241.16107v-3.46831h4.34563c0,0 0.35619,1.1561 0.35619,1.73415c0,0.57805 -0.35619,1.73416 -0.35619,1.73416z" data-paper-data="{&quot;index&quot;:null}" fill="#000000" stroke-width="1" stroke-linecap="butt"/><path d="M223.59495,238.84201v-1.78991h9.35139l0.72005,1.53882l-0.72005,0.25109z" data-paper-data="{&quot;index&quot;:null}" fill="#000000" stroke-width="1" stroke-linecap="butt"/><path d="M220.59842,244.66558v-2.12134h2.5105v2.12134z" data-paper-data="{&quot;index&quot;:null}" fill="#000000" stroke-width="1" stroke-linecap="butt"/><path d="M223.48033,241.26414v-2.75901h12.98253c0,0 0.30071,0.94324 0.30071,1.43437c0,0.41605 -1.10977,3.8213 -1.10977,3.8213l-1.37923,0.02537l0.77602,-2.52203z" data-paper-data="{&quot;index&quot;:null}" fill="#000000" stroke-width="1" stroke-linecap="butt"/><path d="M214.65432,237.87576c0,0 -0.58407,-0.26626 -0.7628,-0.44498c-0.15764,-0.15764 -0.31785,-0.77663 -0.31785,-0.77663" data-paper-data="{&quot;index&quot;:null}" fill="none" stroke-width="2.5" stroke-linecap="round"/><path d="M214.20536,238.39003c0,-0.50602 0.49434,-0.91621 1.10416,-0.91621c0.60983,0 1.10415,0.41021 1.10415,0.91621c0,0.50602 -0.49435,0.91622 -1.10415,0.91622c-0.60983,0 -1.10414,-0.41022 -1.10414,-0.91621z" data-paper-data="{&quot;index&quot;:null}" fill="#1a1a1a" stroke-width="1" stroke-linecap="butt"/><path d="M213.71785,241.38778c0,-0.61945 0,-2.03574 0,-2.03574c0,0 1.34104,-0.34792 1.78187,-0.78304c0.44794,-0.44215 0.88484,-1.84906 0.88484,-1.84906c0,0 5.99699,-0.06729 6.87624,-0.0129c0.04274,0.00264 1.06345,1.90123 1.06345,1.90123l-0.03313,4.12244l-3.71677,0.03551l-0.0502,-0.74169c0,0 -6.80629,-0.23098 -6.80629,-0.63672z" data-paper-data="{&quot;index&quot;:null}" fill="#000000" stroke-width="1" stroke-linecap="butt"/><path d="M216.97338,241.47853c0,0 -0.35837,-1.22697 -0.34579,-2.03084c0.01258,-0.80387 0.40712,-1.88627 0.40712,-1.88627h5.43865c0,0 0.99472,1.06008 1.01957,1.90184c0.02487,0.84179 -0.90388,2.01526 -0.90388,2.01526z" data-paper-data="{&quot;index&quot;:null}" fill="#000000" stroke-width="1" stroke-linecap="butt"/><path d="M214.97971,238.22156c0,0 -0.70445,-0.32113 -0.92004,-0.53671c-0.19013,-0.19013 -0.38334,-0.93672 -0.38334,-0.93672" data-paper-data="{&quot;index&quot;:null}" fill="none" stroke-width="2.5" stroke-linecap="round"/><path d="M217.67521,237.574h4.28708c0,0 0.46827,1.01127 0.50295,1.69397c0.03467,0.6827 -0.30991,2.10737 -0.30991,2.10737h-4.40489c0,0 -0.27086,-1.18778 -0.27639,-1.92507c-0.00553,-0.7373 0.20117,-1.87625 0.20117,-1.87625z" data-paper-data="{&quot;index&quot;:null}" fill="#000000" stroke-width="1" stroke-linecap="butt"/><path d="M217.01908,239.97885l-0.23796,-0.45333l0.26372,-0.50647h5.86802l0.32362,0.46614l-0.32362,0.49366z" data-paper-data="{&quot;index&quot;:null}" fill="#000000" stroke-width="1" stroke-linecap="butt"/><path d="M212.8878,243.2827c0.42605,-0.69689 0.68326,-2.53319 0.68326,-2.53319c0,0 3.00466,-0.00257 4.12051,-0.00359c0.21835,-0.0002 0.21252,0.83582 0.21252,0.83582l1.93391,-0.01304l0.02443,0.309l-2.70979,0.00753c0,0 -1.28126,1.36411 -1.32456,1.36786c-0.07216,0.07134 -1.30641,1.13609 -1.40682,1.30312c-0.79393,1.21263 -0.76854,3.29055 -0.95598,3.90586c-0.06764,0.10983 1.05461,0.06009 1.05461,0.06009c0,0 0.37421,0.33587 0.38007,0.55217c0.00572,0.21194 -0.34533,0.62939 -0.34533,0.62939l-3.82404,0.02607c0,0 -0.29089,-0.26106 -0.32553,-0.5982c-0.03465,-0.33713 0.35448,-0.63156 0.35448,-0.63156c0,0 0.77114,-3.38843 1.16526,-4.38251c0,0 0.58754,-0.22064 0.96301,-0.83484z" data-paper-data="{&quot;index&quot;:null}" fill="#000000" stroke-width="1" stroke-linecap="butt"/><path d="M218.67152,243.43352c0,0 -0.53359,-0.33446 -0.62039,-0.49581c-0.13224,-0.2458 -0.29815,-0.88294 -0.29815,-0.88294" data-paper-data="{&quot;index&quot;:null}" fill="none" stroke-width="1" stroke-linecap="round"/><path d="M218.68703,243.41562c0,0 -0.53361,-0.33446 -0.62043,-0.49581c-0.13222,-0.2458 -0.29813,-0.88296 -0.29813,-0.88296" data-paper-data="{&quot;index&quot;:null}" fill="none" stroke-width="1" stroke-linecap="round"/><path d="M215.30648,241.97629l5.69077,-0.06609c0,0 -0.23954,2.00678 -1.06606,2.59662c-0.8555,0.61052 -4.45497,0.58309 -4.45497,0.58309z" data-paper-data="{&quot;index&quot;:null}" fill="none" stroke-width="1" stroke-linecap="butt"/><path d="M215.94824,242.0312l5.04903,-0.12101c0,0 -0.29355,2.01075 -1.10219,2.58782c-0.8699,0.6208 -4.50465,0.59188 -4.50465,0.59188z" data-paper-data="{&quot;index&quot;:null}" fill="none" stroke-width="1" stroke-linecap="butt"/><path d="M213.90003,243.94312c0.42604,-0.61753 0.68323,-2.24465 0.68323,-2.24465l2.72173,0.04097c0,0 -0.26191,0.46057 -0.3642,1.05044c-0.08414,0.48516 0.00111,1.11919 -0.10051,1.12703c-0.07215,0.0632 -1.30641,1.00668 -1.40682,1.1547c-0.79393,1.0745 -0.71676,2.86989 -0.90421,3.41513c-0.11538,0.16596 -2.75755,0.07949 -2.75755,0.07949c0,0 0.51897,-2.43878 1.16529,-3.88336c0,0 0.58756,-0.1955 0.96304,-0.73976z" data-paper-data="{&quot;index&quot;:null}" fill="#000000" stroke-width="1" stroke-linecap="butt"/><path d="M212.94615,247.42331c0,-0.24932 0.20212,-0.45145 0.45144,-0.45145c0.24932,0 0.45144,0.20212 0.45144,0.45145c0,0.24932 -0.20212,0.45144 -0.45144,0.45144c-0.24932,0 -0.45144,-0.20212 -0.45144,-0.45144z" data-paper-data="{&quot;index&quot;:null}" fill="#000000" stroke-width="1" stroke-linecap="butt"/><path d="M221.51476,240.77572h-3.04998" data-paper-data="{&quot;index&quot;:null}" fill="none" stroke-width="1" stroke-linecap="round"/><path d="M218.4218,238.19825h3.05002" data-paper-data="{&quot;index&quot;:null}" fill="none" stroke-width="1" stroke-linecap="round"/><path d="M218.93125,239.4346l0.96631,-1.14917l0.96631,1.14917l-0.96631,1.14917z" data-paper-data="{&quot;index&quot;:null}" fill="#000000" stroke-width="1" stroke-linecap="butt"/><path d="M218.62477,239.41028c0,-0.70058 0.56794,-1.26851 1.26852,-1.26851c0.70058,0 1.26853,0.56792 1.26853,1.26851c0,0.70058 -0.56794,1.26852 -1.26853,1.26852c-0.70058,0 -1.26852,-0.56794 -1.26852,-1.26852z" data-paper-data="{&quot;index&quot;:null}" fill="url(#color-1)" stroke-width="1" stroke-linecap="butt"/><path d="M223.05129,243.7676l-1.09407,-1.03425h4.48882h4.48883v1.03425z" data-paper-data="{&quot;index&quot;:null}" fill="#000000" stroke-width="1" stroke-linecap="butt"/><path d="M217.6705,241.91556l-0.30071,-0.60142" data-paper-data="{&quot;index&quot;:null}" fill="none" stroke-width="1" stroke-linecap="round"/><path d="M231.70153,243.8193v-2.44602l-1.19744,-1.10531h4.94948l-1.13758,3.55134z" data-paper-data="{&quot;index&quot;:null}" fill="#000000" stroke-width="1" stroke-linecap="butt"/><path d="M230.42753,243.7613v-2.40562h1.35318l1.25876,1.13988l-1.25876,1.26574z" data-paper-data="{&quot;index&quot;:null}" fill="#000000" stroke-width="1" stroke-linecap="butt"/><path d="M225.02177,242.05257c0,-0.55248 0.44786,-1.00032 1.00032,-1.00032c0.55247,0 1.00031,0.44786 1.00031,1.00032c0,0.55248 -0.44785,1.00031 -1.00031,1.00031c-0.55247,0 -1.00032,-0.44787 -1.00032,-1.00031z" data-paper-data="{&quot;index&quot;:null}" fill="#000000" stroke-width="1" stroke-linecap="butt"/><path d="M231.02877,242.62198c0,-0.24932 0.20212,-0.45144 0.45144,-0.45144c0.24932,0 0.45144,0.20212 0.45144,0.45144c0,0.24932 -0.20212,0.45144 -0.45144,0.45144c-0.24932,0 -0.45144,-0.20212 -0.45144,-0.45144z" data-paper-data="{&quot;index&quot;:null}" fill="#000000" stroke-width="1" stroke-linecap="butt"/><path d="M232.99862,240.97382l-0.0485,-2.61904l0.45144,-0.53351l0.42157,0.53351l0.09701,2.61904l-0.43651,0.5389z" data-paper-data="{&quot;index&quot;:null}" fill="#000000" stroke-width="1" stroke-linecap="butt"/><path d="M225.89814,239.08036l-0.36085,-0.60142l0.36085,-0.60142h5.26233l0.39093,0.60142l-0.39093,0.60142z" data-paper-data="{&quot;index&quot;:null}" fill="#000000" stroke-width="1" stroke-linecap="butt"/><path d="M224.23936,240.1767h8.68701" data-paper-data="{&quot;index&quot;:null}" fill="#000000" stroke-width="1" stroke-linecap="round"/></g></g><g stroke="#000000" stroke-linecap="butt"><path d="M206.31669,288.25001c0,-10.59465 8.58867,-19.18332 19.18332,-19.18332c10.59465,0 19.18332,8.58867 19.18332,19.18332c0,10.59465 -8.58867,19.18332 -19.18332,19.18332c-10.59465,0 -19.18332,-8.58867 -19.18332,-19.18332z" fill="#1e1e1e" stroke-width="4"/><path d="M225.50001,302.62714c-7.94028,0 -14.37713,-6.43685 -14.37713,-14.37713c0,-7.94028 6.43685,-14.37713 14.37713,-14.37713c7.94028,0 14.37713,6.43685 14.37713,14.37713c0,7.94028 -6.43685,14.37713 -14.37713,14.37713z" data-paper-data="{&quot;index&quot;:null}" fill="#9a9a9a" stroke-width="0"/><g fill="#000000" stroke-width="0.75"><path d="M218.00748,288.13277c0,-0.43249 1.02709,-2.48523 2.58359,-3.03021c1.77858,-0.62275 4.33241,0.06765 4.33241,0.06765c0,0 -1.70449,0.70005 -2.90772,1.39233c-0.93564,0.53831 -1.43806,1.02854 -1.43806,1.46053c0,0.42352 0.29043,1.39819 1.24884,1.99739c1.27635,0.79798 3.31307,1.18464 3.31307,1.18464c0,0 -2.63031,1.0068 -4.29407,0.34694c-1.68603,-0.66866 -2.83807,-2.89776 -2.83807,-3.41925z"/><g><path d="M225.32851,295.26721c0,-3.99257 0,-12.31959 0,-14.06339c0,-0.52256 -2.98976,-3.15214 -2.98976,-3.15214c0,0 4.61531,-0.35975 5.7782,1.33359c1.16289,1.69335 1.81854,5.76113 1.81854,8.72901c0,2.82172 0.5686,6.63478 -1.93977,9.4564c-1.11009,1.24872 -5.45563,0.84865 -5.45563,0.84865c0,0 2.78844,-2.10396 2.78844,-3.15211z"/><path d="M223.45598,288.16805c0,-2.63345 2.13484,-4.76828 4.76829,-4.76828c2.63345,0 4.76827,2.13483 4.76827,4.76828c0,2.63345 -2.13482,4.76828 -4.76827,4.76828c-2.63345,0 -4.76829,-2.13483 -4.76829,-4.76828z"/><path d="M223.45057,288.24659c-0.0417,-2.50165 -1.09938,-6.92156 -1.09938,-6.92156c0,0 1.63794,-0.70325 2.48573,-0.56522c0.88804,0.14457 2.7274,1.41389 2.7274,1.41389c0,0 -1.29265,3.76859 -1.27234,5.69816c0.0201,1.90936 1.39357,5.81927 1.39357,5.81927c0,0 -1.51832,1.82843 -2.2233,2.13057c-0.92946,0.39834 -2.86861,0.05167 -2.86861,0.05167c0,0 0.88808,-5.75744 0.85693,-7.62678z"/><path d="M226.21966,288.00474c0,-0.7721 0.6259,-1.39799 1.398,-1.39799c0.7721,0 1.39799,0.6259 1.39799,1.39799c0,0.7721 -0.6259,1.398 -1.39799,1.398c-0.7721,0 -1.398,-0.6259 -1.398,-1.398z"/></g></g></g><g><path d="M118.50964,300.02392v-23.839h23.839v23.839z" fill="#191919" stroke="#000000" stroke-width="3" stroke-linecap="butt"/><text transform="translate(119.0332,293.05368) scale(0.59211,0.41418)" font-size="40" xml:space="preserve" fill="#ffffff" fill-rule="nonzero" stroke="#ffffff" stroke-width="2" stroke-linecap="butt" stroke-linejoin="miter" stroke-miterlimit="10" stroke-dasharray="" stroke-dashoffset="0" font-family="Sans Serif" font-weight="normal" text-anchor="start" style="mix-blend-mode: normal"><tspan x="0" dy="0"> ↓</tspan></text><g stroke-linecap="butt"><path d="M40.56342,300.02392v-23.839h23.839v23.839z" fill="#191919" stroke="#000000" stroke-width="3"/><text transform="translate(47.5149,296.07854) scale(0.51211,0.51211)" font-size="40" xml:space="preserve" fill="#ffffff" fill-rule="nonzero" stroke="#ffffff" stroke-width="1" stroke-linecap="butt" stroke-linejoin="miter" stroke-miterlimit="10" stroke-dasharray="" stroke-dashoffset="0" font-family="Sans Serif" font-weight="normal" text-anchor="start" style="mix-blend-mode: normal"><tspan x="0" dy="0">S</tspan></text></g><path d="M94.32244,274.90038c0,0 -2.18599,8.43166 -3.27269,12.62326c-1.07841,4.15954 -3.22283,12.43088 -3.22283,12.43088" fill="none" stroke="#000000" stroke-width="4" stroke-linecap="round"/></g><g><g stroke-linecap="butt"><path d="M118.50964,257.02392v-23.839h23.839v23.839z" fill="#191919" stroke="#000000" stroke-width="3"/><text transform="translate(124.5332,253.07853) scale(0.51211,0.51211)" font-size="40" xml:space="preserve" fill="#ffffff" fill-rule="nonzero" stroke="#ffffff" stroke-width="1" stroke-linecap="butt" stroke-linejoin="miter" stroke-miterlimit="10" stroke-dasharray="" stroke-dashoffset="0" font-family="Sans Serif" font-weight="normal" text-anchor="start" style="mix-blend-mode: normal"><tspan x="0" dy="0">F</tspan></text></g><g stroke-linecap="butt"><path d="M40.56342,257.02392v-23.839h23.839v23.839z" fill="#191919" stroke="#000000" stroke-width="3"/><text transform="translate(47.5149,253.07853) scale(0.51211,0.51211)" font-size="40" xml:space="preserve" fill="#ffffff" fill-rule="nonzero" stroke="#ffffff" stroke-width="1" stroke-linecap="butt" stroke-linejoin="miter" stroke-miterlimit="10" stroke-dasharray="" stroke-dashoffset="0" font-family="Sans Serif" font-weight="normal" text-anchor="start" style="mix-blend-mode: normal"><tspan x="0" dy="0">P</tspan></text></g><path d="M94.32244,231.90038c0,0 -2.18599,8.43166 -3.27269,12.62326c-1.07841,4.15954 -3.22283,12.43088 -3.22283,12.43088" fill="none" stroke="#000000" stroke-width="4" stroke-linecap="round"/></g><g><path d="M40.56342,212.33906v-23.839h23.839v23.839z" fill="#191919" stroke="#000000" stroke-width="3" stroke-linecap="butt"/><path d="M87.82692,213.19762l6.49552,-25.05414" fill="none" stroke="#000000" stroke-width="4" stroke-linecap="round"/><g stroke-linecap="butt"><path d="M119.43758,212.80303v-23.839h23.839v23.839z" fill="#191919" stroke="#000000" stroke-width="3"/><text transform="translate(124.5332,208.85764) scale(0.51211,0.51211)" font-size="40" xml:space="preserve" fill="#ffffff" fill-rule="nonzero" stroke="#ffffff" stroke-width="1" stroke-linecap="butt" stroke-linejoin="miter" stroke-miterlimit="10" stroke-dasharray="" stroke-dashoffset="0" font-family="Sans Serif" font-weight="normal" text-anchor="start" style="mix-blend-mode: normal"><tspan x="0" dy="0">C</tspan></text></g><path d="M44.3762,203.89959v-4.02666h16.60997v4.02666" fill="none" stroke="#ffffff" stroke-width="2" stroke-linecap="round"/></g><g><g stroke-linecap="butt"><path d="M119.90154,167.72628v-23.839h23.839v23.839z" fill="#191919" stroke="#000000" stroke-width="3"/><text transform="translate(125.9251,163.78089) scale(0.51211,0.51211)" font-size="40" xml:space="preserve" fill="#ffffff" fill-rule="nonzero" stroke="#ffffff" stroke-width="1" stroke-linecap="butt" stroke-linejoin="miter" stroke-miterlimit="10" stroke-dasharray="" stroke-dashoffset="0" font-family="Sans Serif" font-weight="normal" text-anchor="start" style="mix-blend-mode: normal"><tspan x="0" dy="0">X</tspan></text></g><g stroke-linecap="butt"><path d="M41.02738,168.19027v-23.839h23.839v23.839z" fill="#191919" stroke="#000000" stroke-width="3"/><text transform="translate(45.19508,164.24487) scale(0.51211,0.51211)" font-size="40" xml:space="preserve" fill="#ffffff" fill-rule="nonzero" stroke="#ffffff" stroke-width="1" stroke-linecap="butt" stroke-linejoin="miter" stroke-miterlimit="10" stroke-dasharray="" stroke-dashoffset="0" font-family="Sans Serif" font-weight="normal" text-anchor="start" style="mix-blend-mode: normal"><tspan x="0" dy="0">O</tspan></text></g><path d="M88.75485,168.58484l6.49552,-25.05414" fill="none" stroke="#000000" stroke-width="4" stroke-linecap="round"/></g><g stroke-linecap="butt"><path d="M308.36972,300.36471v-24.21537h24.21538v24.21537z" fill="#191919" stroke="#000000" stroke-width="3"/><text transform="translate(314.04581,296.35702) scale(0.5202,0.5202)" font-size="40" xml:space="preserve" fill="#ffffff" fill-rule="nonzero" stroke="#ffffff" stroke-width="1" stroke-linecap="butt" stroke-linejoin="miter" stroke-miterlimit="10" stroke-dasharray="" stroke-dashoffset="0" font-family="Sans Serif" font-weight="normal" text-anchor="start" style="mix-blend-mode: normal"><tspan x="0" dy="0">E</tspan></text></g><g><path d="M341.89815,298.1278c0,0 -0.4,-7.22355 -0.4,-10.8953c0,-3.75351 0.4,-11.38587 0.4,-11.38587c0,0 2.70963,-4.01353 4.54667,-4.01353c2.00064,0 7.34891,-0.75336 11.12565,-0.13389c3.15906,0.51815 4.99435,4.14742 4.99435,4.14742c0,0 0.4,7.12473 0.4,10.98586c0,4.14567 0,11.2953 0,11.2953c0,0 -5.80397,6.10021 -11.14667,6.10021c-5.3427,0 -9.92,-6.10021 -9.92,-6.10021z" fill="#191919" stroke="#000000" stroke-width="3" stroke-linecap="butt"/><path d="M352.27586,275.07986v-1.85186v6.25v2.68333" fill="none" stroke="#a6a6a6" stroke-width="3.5" stroke-linecap="round"/><path d="M352.23147,277.0347v2.66667" fill="none" stroke="#191919" stroke-width="2.5" stroke-linecap="round"/></g><text transform="translate(387.84722,293.90468) scale(0.4404,0.4404)" font-size="40" xml:space="preserve" fill="#000000" fill-rule="nonzero" stroke="#000000" stroke-width="3" stroke-linecap="butt" stroke-linejoin="miter" stroke-miterlimit="10" stroke-dasharray="" stroke-dashoffset="0" font-family="Sans Serif" font-weight="normal" text-anchor="start" style="mix-blend-mode: normal"><tspan x="0" dy="0">Interact</tspan></text></g></g></svg>