<svg version="1.1" xmlns="http://www.w3.org/2000/svg" xmlns:xlink="http://www.w3.org/1999/xlink" width="492.71266" height="454.02395" viewBox="0,0,492.71266,454.02395"><defs><radialGradient cx="395.88328" cy="142.25129" r="12.78495" gradientUnits="userSpaceOnUse" id="color-1"><stop offset="0" stop-color="#00b11b"/><stop offset="1" stop-color="#00b11b" stop-opacity="0"/></radialGradient><radialGradient cx="306.38327" cy="172.25129" r="12.78495" gradientUnits="userSpaceOnUse" id="color-2"><stop offset="0" stop-color="#00b11b"/><stop offset="1" stop-color="#00b11b" stop-opacity="0"/></radialGradient><radialGradient cx="46.13328" cy="172.62629" r="12.78495" gradientUnits="userSpaceOnUse" id="color-3"><stop offset="0" stop-color="#00b11b"/><stop offset="1" stop-color="#00b11b" stop-opacity="0"/></radialGradient><linearGradient x1="87.78047" y1="140.06276" x2="87.78047" y2="187.56276" gradientUnits="userSpaceOnUse" id="color-4"><stop offset="0" stop-color="#373737"/><stop offset="1" stop-color="#272727"/></linearGradient><linearGradient x1="87.53046" y1="164.08792" x2="87.53046" y2="183.17126" gradientUnits="userSpaceOnUse" id="color-5"><stop offset="0" stop-color="#007817"/><stop offset="1" stop-color="#001a04"/></linearGradient><linearGradient x1="136.28044" y1="147.49149" x2="136.28044" y2="183.17126" gradientUnits="userSpaceOnUse" id="color-6"><stop offset="0" stop-color="#007817"/><stop offset="1" stop-color="#001a04"/></linearGradient></defs><g transform="translate(7.34618,4.75423)"><g data-paper-data="{&quot;isPaintingLayer&quot;:true}" fill-rule="nonzero" stroke-linejoin="miter" stroke-miterlimit="10" stroke-dasharray="" stroke-dashoffset="0" style="mix-blend-mode: normal"><g stroke="#0a0a0a"><path d="M395.40916,147.33004c0,0 0.34247,2.60681 1.09178,5.66303c0.45819,1.86881 -1.89178,4.07639 -1.89178,5.11418c0,2.3245 0.8,4.30365 0.8,4.30365" fill="none" stroke-width="3" stroke-linecap="round"/><path d="M391.98324,145.70371c0,-0.50461 -0.22222,-1.86338 -0.22222,-3.11111c0,-1.61703 0.22222,-3.12305 0.22222,-3.12305c0,0 1.77117,-1.97674 3.6,-1.97674c1.82883,0 3.8,1.97674 3.8,1.97674c0,0 0.22222,1.57936 0.22222,3.12305c0,1.02534 -0.22222,2.03494 -0.22222,2.55556c0,0.68577 -0.75187,1.56943 -1.3706,1.56943c-0.89149,0 -3.40354,0 -4.88889,0c-0.67685,0 -1.14051,-0.57686 -1.14051,-1.01387z" fill="#007811" stroke-width="2" stroke-linecap="butt"/><path d="M383.09832,142.25129c0,-6.65494 5.72402,-12.04983 12.78495,-12.04983c7.06094,0 12.78495,5.39489 12.78495,12.04983c0,6.65494 -5.72402,12.04983 -12.78495,12.04983c-7.06094,0 -12.78495,-5.39489 -12.78495,-12.04983z" fill="url(#color-1)" stroke-width="0" stroke-linecap="butt"/></g><g stroke="#0a0a0a"><path d="M305.90916,177.33004c0,0 0.34247,2.60681 1.09178,5.66303c0.45819,1.86881 -1.89178,4.07639 -1.89178,5.11418c0,2.3245 0.8,4.30365 0.8,4.30365" fill="none" stroke-width="3" stroke-linecap="round"/><path d="M302.48323,175.70372c0,-0.50461 -0.22222,-1.86338 -0.22222,-3.11111c0,-1.61703 0.22222,-3.12305 0.22222,-3.12305c0,0 1.77117,-1.97674 3.6,-1.97674c1.82883,0 3.8,1.97674 3.8,1.97674c0,0 0.22222,1.57936 0.22222,3.12305c0,1.02534 -0.22222,2.03494 -0.22222,2.55556c0,0.68577 -0.75187,1.56943 -1.3706,1.56943c-0.89149,0 -3.40354,0 -4.88889,0c-0.67685,0 -1.14051,-0.57686 -1.14051,-1.01387z" fill="#007811" stroke-width="2" stroke-linecap="butt"/><path d="M293.59832,172.25129c0,-6.65494 5.72402,-12.04983 12.78495,-12.04983c7.06094,0 12.78495,5.39489 12.78495,12.04983c0,6.65494 -5.72402,12.04983 -12.78495,12.04983c-7.06094,0 -12.78495,-5.39489 -12.78495,-12.04983z" fill="url(#color-2)" stroke-width="0" stroke-linecap="butt"/></g><g stroke="#0a0a0a"><path d="M45.65916,177.70504c0,0 0.34247,2.60681 1.09178,5.66303c0.45819,1.86881 -1.89178,4.07639 -1.89178,5.11418c0,2.3245 0.8,4.30365 0.8,4.30365" fill="none" stroke-width="3" stroke-linecap="round"/><path d="M42.23324,176.07872c0,-0.50461 -0.22222,-1.86338 -0.22222,-3.11111c0,-1.61703 0.22222,-3.12305 0.22222,-3.12305c0,0 1.77117,-1.97674 3.6,-1.97674c1.82883,0 3.8,1.97674 3.8,1.97674c0,0 0.22222,1.57936 0.22222,3.12305c0,1.02534 -0.22222,2.03494 -0.22222,2.55556c0,0.68577 -0.75187,1.56943 -1.3706,1.56943c-0.89149,0 -3.40354,0 -4.88889,0c-0.67685,0 -1.14051,-0.57686 -1.14051,-1.01387z" fill="#007811" stroke-width="2" stroke-linecap="butt"/><path d="M33.34832,172.62629c0,-6.65494 5.72402,-12.04983 12.78495,-12.04983c7.06094,0 12.78495,5.39489 12.78495,12.04983c0,6.65494 -5.72402,12.04983 -12.78495,12.04983c-7.06094,0 -12.78495,-5.39489 -12.78495,-12.04983z" fill="url(#color-3)" stroke-width="0" stroke-linecap="butt"/></g><path d="M128.5034,87.65786v-11h61v11z" fill="#000000" stroke="none" stroke-width="0" stroke-linecap="butt"/><path d="M171.51399,85.15786l21.5,21.5" fill="none" stroke="#000000" stroke-width="7" stroke-linecap="round"/><path d="M188.43064,116.57453l-36.25,-36.25" fill="none" stroke="#000000" stroke-width="7" stroke-linecap="round"/><g fill="none" stroke="#1e1e1e" stroke-width="3.5" stroke-linecap="round"><path d="M192.54731,105.98092l-21.64605,-21.64605"/><path d="M152.80784,80.84492l36.49626,36.49625"/></g><path d="M187.6832,120.6946v-123.08709h295.51652v123.08709z" fill="#000000" stroke="none" stroke-width="0" stroke-linecap="butt"/><path d="M-5.31304,38.01623v-40.42564h140.17043v40.42564z" data-paper-data="{&quot;index&quot;:null}" fill="#000000" stroke="#000000" stroke-width="2.5" stroke-linecap="butt"/><path d="M-6.09618,230.41453v-37.42564h66.46183l55,-55.9l63.84719,52.23334v41.0923z" data-paper-data="{&quot;index&quot;:null}" fill="#000000" stroke="#000000" stroke-width="2.5" stroke-linecap="butt"/><path d="M-5.45476,448.01972v-219.58567h486.96396v219.58567z" fill="#000000" stroke="#000000" stroke-width="2.5" stroke-linecap="butt"/><path d="M164.42559,38.75232v-10.51051h25.57357v10.51051z" fill="#000000" stroke="none" stroke-width="0" stroke-linecap="butt"/><path d="M388.88895,232.29154v-69.53453h91.40541v69.53453z" fill="#000000" stroke="#000000" stroke-width="5" stroke-linecap="butt"/><path d="M58.29431,192.30331v-57h57v57z" fill="#000000" stroke="none" stroke-width="NaN" stroke-linecap="butt"/><path d="M178.93699,230.33634v-42.5h136.5v42.5z" fill="#000000" stroke="none" stroke-width="NaN" stroke-linecap="butt"/><g stroke="#000000" stroke-linecap="butt"><path d="M189.28488,119.20342v-16.66666h16.66666v16.66666z" fill="#373737" stroke-width="3"/><path d="M193.44971,115.07359v-8.27272h8.27273v8.27272z" fill="#991616" stroke-width="1.5"/></g><g fill="none" stroke="#373737" stroke-width="3" stroke-linecap="round"><path d="M194.76201,-3.25423v107.69567"/><path d="M200.51201,104.70473v-107.85266"/></g><g stroke="#000000" stroke-linecap="butt"><path d="M117.92125,37.71858v-16.66666h16.66666v16.66666z" fill="#373737" stroke-width="3"/><path d="M122.08607,33.58875v-8.27272h8.27273v8.27272z" fill="#991616" stroke-width="1.5"/></g><g fill="none" stroke="#373737" stroke-width="3" stroke-linecap="round"><path d="M129.14524,-2.56457v25.07051"/><path d="M123.39533,-2.55701v25.03824"/></g><g fill="none" stroke="#373737" stroke-width="3" stroke-linecap="round"><path d="M119.09129,26.66712h-123.70675"/><path d="M118.96945,32.4171h-123.5475"/></g><path d="M166.13878,37.05609v-7.2h21.5v7.2z" fill="#373737" stroke="none" stroke-width="0" stroke-linecap="butt"/><g stroke="#000000" stroke-linecap="butt"><path d="M297.28481,206.12009v-16.66666h16.66666v16.66666z" fill="#373737" stroke-width="3"/><path d="M301.44964,201.99026v-8.27272h8.27273v8.27272z" fill="#991616" stroke-width="1.5"/></g><path d="M130.51198,85.19341v-6.14285h57.28572v6.14285z" fill="#1e1e1e" stroke="none" stroke-width="0" stroke-linecap="butt"/><path d="M154.65483,80.66778h-22" fill="none" stroke="#000000" stroke-width="2" stroke-linecap="round"/><path d="M142.08337,83.47911h42.85714" fill="none" stroke="#000000" stroke-width="2" stroke-linecap="round"/><path d="M179.22628,80.62197h-10.42857" fill="none" stroke="#000000" stroke-width="2" stroke-linecap="round"/><g fill="none" stroke="#373737" stroke-width="3" stroke-linecap="round"><path d="M204.15752,113.85024h279.02681"/><path d="M483.36648,108.10025h-278.93355"/></g><g fill="none" stroke="#373737" stroke-width="3" stroke-linecap="round"><path d="M-2.85346,204.3169h66.9183l4.66855,-3.87164l229.93625,0.00498"/><path d="M-2.55585,198.56692h65.62069l3.66627,-3.8703l232.13535,0.00363"/></g><g stroke="#000000" stroke-linecap="butt"><path d="M297.39599,245.39786v-16.66666h16.66666v16.66666z" fill="#373737" stroke-width="3"/><path d="M301.56077,241.26803v-8.27272h8.27273v8.27272z" fill="#991616" stroke-width="1.5"/></g><g stroke="#000000" stroke-linecap="butt"><path d="M387.89598,245.29786v-16.66666h16.66666v16.66666z" fill="#373737" stroke-width="3"/><path d="M392.06082,241.16803v-8.27272h8.27273v8.27272z" fill="#991616" stroke-width="1.5"/></g><g stroke="#000000" stroke-linecap="butt"><path d="M387.89598,178.42287v-16.66666h16.66666v16.66666z" fill="#373737" stroke-width="3"/><path d="M392.06082,174.29304v-8.27272h8.27273v8.27272z" fill="#991616" stroke-width="1.5"/></g><path d="M62.53046,187.56276v-47.5h50.5l58.25,47.5z" fill="url(#color-4)" stroke="none" stroke-width="0" stroke-linecap="butt"/><path d="M67.03046,183.17126v-19.08333h41v19.08333z" fill="url(#color-5)" stroke="#000000" stroke-width="2.5" stroke-linecap="butt"/><path d="M114.53046,183.17126v-35.67977l43.5,35.67977z" fill="url(#color-6)" stroke="#000000" stroke-width="2.5" stroke-linecap="butt"/><path d="M121.03046,176.17126v-13.82022l16.84932,13.82022z" fill="#151515" stroke="#000000" stroke-width="2" stroke-linecap="butt"/><path d="M76.85388,150.72912v-6.14286h22.28571v6.14286z" fill="#151515" stroke="#000000" stroke-width="2" stroke-linecap="butt"/><path d="M68.06817,155.01483h37.42857" fill="none" stroke="#000000" stroke-width="2" stroke-linecap="round"/><path d="M72.06817,150.58627v-6.14286" fill="none" stroke="#000000" stroke-width="2" stroke-linecap="round"/><path d="M103.06817,144.44341v6.14285" fill="none" stroke="#000000" stroke-width="2" stroke-linecap="round"/><path d="M76.35388,159.69604h21.42857" fill="none" stroke="#000000" stroke-width="2" stroke-linecap="round"/><g fill="none" stroke="#373737" stroke-width="3" stroke-linecap="round"><path d="M483.81377,173.05024h-80.75625"/><path d="M403.13722,167.30023h80.72926"/></g><g fill="none" stroke="#373737" stroke-width="3" stroke-linecap="round"><path d="M389.4165,239.85023h-76.55899"/><path d="M389.46649,234.10024h-76.5334"/></g><g fill="none" stroke="#373737" stroke-width="3" stroke-linecap="round"><path d="M302.88701,204.27075v25.79213"/><path d="M308.637,204.29621v25.78351"/></g><g fill="none" stroke="#373737" stroke-width="3" stroke-linecap="round"><path d="M393.08701,230.24501v-53.17425"/><path d="M398.837,230.27973v-53.15649"/></g><path d="M74.45044,176.96701v-6h25.5v6z" fill="#151515" stroke="#000000" stroke-width="2" stroke-linecap="butt"/></g></g></svg>