<svg version="1.1" xmlns="http://www.w3.org/2000/svg" xmlns:xlink="http://www.w3.org/1999/xlink" width="725.3559" height="552.93798" viewBox="0,0,725.3559,552.93798"><defs><radialGradient cx="240" cy="180" r="362.67795" gradientUnits="userSpaceOnUse" id="color-1"><stop offset="0" stop-color="#131313"/><stop offset="1" stop-color="#080808"/></radialGradient><linearGradient x1="271.43683" y1="73.61466" x2="271.43683" y2="167.22475" gradientTransform="translate(-67.66657,-73.75095) scale(0.57897,0.51269)" gradientUnits="userSpaceOnUse" id="color-2"><stop offset="0" stop-color="#ffffff"/><stop offset="1" stop-color="#ffffff"/></linearGradient></defs><g transform="translate(122.67795,95.92787)"><g data-paper-data="{&quot;isPaintingLayer&quot;:true}" fill-rule="nonzero" stroke-linejoin="miter" stroke-miterlimit="10" stroke-dasharray="" stroke-dashoffset="0" style="mix-blend-mode: normal"><path d="M-122.67795,455.92787v-551.85574h725.3559v551.85574z" fill="url(#color-1)" stroke="none" stroke-width="0" stroke-linecap="butt"/><text transform="translate(116.8737,143.84975) scale(1.7272,1.95048)" font-size="40" xml:space="preserve" fill="url(#color-2)" fill-rule="nonzero" stroke="#ffffff" stroke-width="2" stroke-linecap="butt" stroke-linejoin="miter" stroke-miterlimit="10" stroke-dasharray="" stroke-dashoffset="0" font-family="Handwriting" font-weight="normal" text-anchor="start" style="mix-blend-mode: normal"><tspan x="0" dy="0">Loading...</tspan><tspan x="0" dy="48px"> </tspan><tspan x="0" dy="48px"> </tspan><tspan x="0" dy="48px"> </tspan></text><g><path d="M214.85716,243.21253c-2.3663,-4.38073 -3.79879,-9.34004 -4.03072,-14.61118" fill="#e6e016" stroke="#b31212" stroke-width="8" stroke-linecap="butt"/><path d="M214.48495,213.08512c2.68196,-4.80226 6.68111,-8.76879 11.5086,-11.41069" fill="none" stroke="#1217b3" stroke-width="8" stroke-linecap="butt"/><path d="M240.87906,198.12171c6.61552,0.19888 12.67773,2.59913 17.47914,6.49323" fill="none" stroke="#35b312" stroke-width="8" stroke-linecap="butt"/><path d="M267.6484,217.95976c0.98903,2.93145 1.52516,6.07134 1.52516,9.33646c0,2.17958 -0.2389,4.30337 -0.69195,6.34661" fill="none" stroke="#fff719" stroke-width="8" stroke-linecap="butt"/><path d="M262.77771,246.04027c-3.63389,3.90358 -8.32459,6.81016 -13.6166,8.26427" fill="none" stroke="#ff9419" stroke-width="8" stroke-linecap="butt"/><path d="M241.01792,226.0683l-14.86747,35.31023" fill="none" stroke="#000000" stroke-width="4" stroke-linecap="round"/><path d="M228.18246,226.67302c0,-6.52664 5.29089,-11.81754 11.81754,-11.81754c6.52664,0 11.81754,5.2909 11.81754,11.81754c0,6.52664 -5.2909,11.81754 -11.81754,11.81754c-6.52664,0 -11.81754,-5.29089 -11.81754,-11.81754z" fill="#ffffff" stroke="none" stroke-width="0" stroke-linecap="butt"/><path d="M233.50131,267.20647c-6.09056,-1.91357 -11.81564,-4.16316 -17.08773,-6.68431" fill="none" stroke="#000000" stroke-width="4.5" stroke-linecap="butt"/></g></g></g></svg>