<svg version="1.1" xmlns="http://www.w3.org/2000/svg" xmlns:xlink="http://www.w3.org/1999/xlink" width="89.5534" height="70.22766" viewBox="0,0,89.5534,70.22766"><defs><linearGradient x1="223.0791" y1="142.89891" x2="254.79574" y2="142.89891" gradientUnits="userSpaceOnUse" id="color-1"><stop offset="0" stop-color="#3f2e16"/><stop offset="1" stop-color="#523e22"/></linearGradient><linearGradient x1="228.89075" y1="138.32779" x2="248.92872" y2="138.32779" gradientUnits="userSpaceOnUse" id="color-2"><stop offset="0" stop-color="#3f2e16"/><stop offset="1" stop-color="#523e22"/></linearGradient><linearGradient x1="225.99232" y1="171.05701" x2="250.57922" y2="171.05701" gradientUnits="userSpaceOnUse" id="color-3"><stop offset="0" stop-color="#3f2e16"/><stop offset="1" stop-color="#523e22"/></linearGradient></defs><g transform="translate(-195.55663,-119.57025)"><g data-paper-data="{&quot;isPaintingLayer&quot;:true}" fill-rule="nonzero" stroke-linejoin="miter" stroke-miterlimit="10" stroke-dasharray="" stroke-dashoffset="0" style="mix-blend-mode: normal"><path d="M249.26655,161.80199c-1.01464,-2.00112 -5.11813,-6.64385 -0.52019,-9.37566c1.36337,-0.81003 8.63058,-3.04662 15.61398,-6.04611c2.13763,-0.91814 6.12194,-3.61669 7.61471,-4.46929c3.38395,-1.93277 5.35205,-1.71703 6.99726,-1.95851c2.00512,-0.29431 -10.30635,8.62526 -8.6466,8.6274c2.09104,0.00269 4.17431,-2.1321 6.5132,-3.197c2.74301,-1.2489 7.13925,0.10901 7.03673,0.35441c-1.50501,3.60265 -14.85158,6.69562 -14.70053,7.32605c0.31983,1.33482 17.01432,-1.99054 15.01944,0.61897c-3.44118,4.50142 -17.96584,4.21208 -18.11341,5.03784c-0.33342,1.86571 7.34485,1.67289 6.16944,3.81989c-1.17541,2.147 -5.82193,2.45121 -9.45365,2.80543c-7.30248,0.71225 -12.19545,-0.91054 -13.5304,-3.54343z" data-paper-data="{&quot;index&quot;:null}" fill="#ffffff" stroke="#000000" stroke-width="1.5" stroke-linecap="butt"/><path d="M217.86972,165.56703c-3.63172,-0.35422 -8.27824,-0.65843 -9.45365,-2.80544c-1.17541,-2.14701 6.50287,-1.95417 6.16944,-3.81989c-0.14757,-0.82576 -14.67224,-0.53642 -18.11341,-5.03784c-1.99488,-2.60952 14.69961,0.71585 15.01944,-0.61897c0.15105,-0.63042 -13.19552,-3.7234 -14.70053,-7.32605c-0.10252,-0.2454 4.29371,-1.60331 7.03672,-0.35441c2.33889,1.0649 4.42216,3.19969 6.5132,3.197c1.65975,-0.00215 -10.65172,-8.92171 -8.6466,-8.6274c1.64522,0.24148 3.61332,0.02573 6.99727,1.95851c1.49277,0.85261 5.47708,3.55115 7.6147,4.46929c6.98341,2.99948 14.25062,5.23609 15.61398,6.04611c4.59794,2.73181 0.49445,7.37453 -0.52019,9.37566c-1.33496,2.63289 -6.22792,4.25567 -13.5304,3.54343z" data-paper-data="{&quot;index&quot;:null}" fill="#ffffff" stroke="#000000" stroke-width="1.5" stroke-linecap="butt"/><path d="M225.98524,151.95887c-0.01649,-7.56656 5.71171,-13.71591 12.79428,-13.73507c7.08254,-0.01917 12.83745,6.09919 12.85393,13.66565c0.01649,7.56656 -4.93082,12.35939 -12.01335,12.37856c-7.08254,0.01917 -13.6183,-4.74261 -13.63479,-12.30914z" fill="#000000" stroke="#000000" stroke-width="2" stroke-linecap="butt"/><path d="M237.66376,151.53631c0.26528,-2.23471 1.8259,-3.80389 3.48576,-3.50491c1.65987,0.299 2.79037,2.35292 2.52511,4.58762c-0.26528,2.23471 -1.82593,3.80389 -3.48576,3.50491c-1.65987,-0.299 -2.79035,-2.35291 -2.5251,-4.58762z" fill="#ffffff" stroke="none" stroke-width="0" stroke-linecap="butt"/><path d="M254.79574,142.84598c0.00401,2.26184 -7.09279,4.11915 -15.85106,4.14836c-8.75833,0.02921 -15.86156,-1.78069 -15.86556,-4.04255c-0.004,-2.26184 7.09279,-4.11915 15.85106,-4.14836c8.75833,-0.02921 15.86155,1.78072 15.86556,4.04255z" fill="url(#color-1)" stroke="#000000" stroke-width="1.5" stroke-linecap="butt"/><path d="M228.8975,140.03249c0.19319,-0.66601 0.60271,-1.5559 0.82276,-2.4881c0.2567,-1.08762 0.31082,-2.17683 0.31082,-2.17683c0,0 5.78751,-3.10947 9.65037,-3.11992c3.86285,-0.01047 8.6981,3.04637 8.69917,3.54623c0.00153,0.70225 0.12803,2.3739 0.53301,3.79876c0.34746,1.22236 -5.36481,4.8566 -10.73718,4.81502c-4.89152,-0.03788 -9.48533,-3.66376 -9.279,-4.37515z" fill="url(#color-2)" stroke="#000000" stroke-width="1.5" stroke-linecap="butt"/><path d="M243.42236,187.63106c0,0 -0.40274,-0.97276 -0.36976,-2.11139c0.05355,-1.84767 0.14755,-4.50724 0.27211,-5.7483c0.20202,-2.01251 0.60702,-6.04742 0.60702,-6.04742" fill="none" stroke="#000000" stroke-width="4" stroke-linecap="round"/><path d="M235.18623,187.79792c0,0 -0.38006,-1.07688 -0.32196,-2.14922c0.10012,-1.84786 0.11283,-4.38596 0.20278,-5.28186c0.20114,-2.00374 0.60179,-5.99506 0.60179,-5.99506" fill="none" stroke="#000000" stroke-width="4" stroke-linecap="round"/><path d="M227.02049,176.42181c0.80053,-1.16048 1.12182,-2.28863 1.34259,-3.00152c0.13559,-0.43782 -1.48716,-1.44756 -1.509,-1.88646c-0.05379,-1.08019 0.87163,-1.15682 1.2129,-2.17785c0.25565,-0.76491 -0.37738,-1.8288 0.05857,-2.38156c0.75098,-0.9523 0.78772,-1.85792 0.98986,-2.54144c0.23904,-0.80831 -0.14074,-1.30098 -0.34428,-2.11055c-0.3002,-1.19416 -0.54638,-2.84157 -0.54638,-2.84157c0,0 7.25303,3.5918 10.92922,3.5918c3.76622,0 10.46549,-3.86796 10.46549,-3.86796c0,0 0.91133,3.73384 0.83248,4.8108c0.33676,1.33893 -0.14673,2.05988 0.10715,2.90539c0.21106,0.70294 -1.31214,2.60473 -1.06586,3.3552c0.12818,0.39062 1.19445,1.70198 0.91752,2.95004c-0.28636,1.29061 -1.75024,2.21993 -1.90373,2.81809c-0.11817,0.46043 0.59345,2.5074 0.5575,3.5185c-0.06634,1.86651 -2.5623,2.5726 -2.5623,2.5726c0,0 -0.02415,-1.24342 -3.00212,-1.41655c-1.80989,-0.10523 -4.92731,1.67196 -6.85865,0.96417c-4.32381,-1.58456 -5.31905,-0.01773 -7.07909,-0.00836c-0.889,0.00474 -1.03373,1.31856 -1.68572,1.23047c-0.9712,-0.13122 -2.36587,-1.69464 -1.71902,-3.62366c0,0 0.15729,-1.83668 0.86291,-2.85958z" fill="url(#color-3)" stroke="#000000" stroke-width="2" stroke-linecap="butt"/><path d="M242.23863,162.56171c0,0 -0.25662,1.45068 -0.2533,2.63773c0.00114,0.41557 0.31069,1.64457 0.41094,2.34755c0.08936,0.62655 -0.03071,1.41565 -0.00857,2.18448c0.01081,0.37478 -0.56639,0.98021 -0.58875,1.54685c-0.03149,0.79802 0.4862,1.58909 0.49246,2.16055c0.0056,0.50775 -0.5807,1.19674 -0.39145,2.14924c0.18444,0.92842 0.65365,1.83649 0.68574,2.27269c0.18381,2.49892 -0.76914,3.05744 -0.76914,3.05744" fill="none" stroke="#000000" stroke-width="1.5" stroke-linecap="round"/><path d="M241.34388,165.18687c0,-0.47593 0.35556,-0.86173 0.79418,-0.86173c0.4386,0 0.79416,0.38582 0.79416,0.86173c0,0.47593 -0.35556,0.86173 -0.79416,0.86173c-0.4386,0 -0.79418,-0.38582 -0.79418,-0.86173z" fill="#000000" stroke="#000000" stroke-width="2" stroke-linecap="butt"/><path d="M241.58822,169.27777c0,-0.47593 0.35557,-0.86173 0.79418,-0.86173c0.4386,0 0.79417,0.38582 0.79417,0.86173c0,0.47593 -0.35556,0.86174 -0.79417,0.86174c-0.4386,0 -0.79418,-0.38583 -0.79418,-0.86174z" fill="#000000" stroke="#000000" stroke-width="2" stroke-linecap="butt"/><path d="M241.22168,173.43176c0,-0.47593 0.35556,-0.86173 0.79416,-0.86173c0.4386,0 0.79418,0.38582 0.79418,0.86173c0,0.47593 -0.35556,0.86174 -0.79418,0.86174c-0.4386,0 -0.79416,-0.38583 -0.79416,-0.86174z" fill="#000000" stroke="#000000" stroke-width="2" stroke-linecap="butt"/><path d="M241.63187,177.6205c0,-0.47593 0.35556,-0.86174 0.79416,-0.86174c0.4386,0 0.79418,0.38583 0.79418,0.86174c0,0.47593 -0.35557,0.86173 -0.79418,0.86173c-0.4386,0 -0.79416,-0.38582 -0.79416,-0.86173z" fill="#000000" stroke="#000000" stroke-width="2" stroke-linecap="butt"/><path d="M244.77801,151.16397c0.24304,-2.23473 1.67282,-3.80388 3.19353,-3.50491c1.52073,0.29898 2.55644,2.35292 2.3134,4.58762c-0.24304,2.23473 -1.67284,3.80388 -3.19354,3.50491c-1.52073,-0.29898 -2.55643,-2.35292 -2.3134,-4.5876z" fill="#ffffff" stroke="none" stroke-width="0" stroke-linecap="butt"/><path d="M249.19167,124.75231c0,2.44776 -5.15917,4.43205 -11.52333,4.43205c-6.36416,0 -11.52333,-1.98429 -11.52333,-4.43205c0,-2.44776 5.15917,-4.43205 11.52333,-4.43205c6.36416,0 11.52333,1.98429 11.52333,4.43205z" fill="none" stroke="#fbff00" stroke-width="1.5" stroke-linecap="butt"/></g></g></svg>