<svg version="1.1" xmlns="http://www.w3.org/2000/svg" xmlns:xlink="http://www.w3.org/1999/xlink" width="604.70463" height="363.74026" viewBox="0,0,604.70463,363.74026"><g transform="translate(123.52589,2.05699)"><g data-paper-data="{&quot;isPaintingLayer&quot;:true}" fill-rule="nonzero" stroke-linejoin="miter" stroke-miterlimit="10" stroke-dasharray="" stroke-dashoffset="0" style="mix-blend-mode: normal"><path d="M99.44916,-0.96862v361.63214h-222.97505v-361.63213z" data-paper-data="{&quot;index&quot;:null}" fill="#000000" stroke="none" stroke-width="0" stroke-linecap="butt"/><path d="M481.17874,-1.8017v363.36337h-65.06007v-363.36336z" data-paper-data="{&quot;index&quot;:null}" fill="#000000" stroke="none" stroke-width="0" stroke-linecap="butt"/><path d="M381.02557,229.89199v52.51953h-282.23123v-52.51953z" data-paper-data="{&quot;index&quot;:null}" fill="#000000" stroke="none" stroke-width="0" stroke-linecap="butt"/><path d="M418.48128,-2.05699v108.03904h-271v-108.03904z" data-paper-data="{&quot;index&quot;:null}" fill="#000000" stroke="none" stroke-width="0" stroke-linecap="butt"/><path d="M149.14457,51.19117l-15.15849,-16.39563" data-paper-data="{&quot;index&quot;:null}" fill="none" stroke="#000000" stroke-width="8" stroke-linecap="round"/><path d="M113.24578,88.38276l-15.36089,16.20615" data-paper-data="{&quot;index&quot;:null}" fill="none" stroke="#000000" stroke-width="8" stroke-linecap="round"/><path d="M185.72233,231.07137v-58.5h16.71429v58.5z" fill="#000000" stroke="none" stroke-width="0" stroke-linecap="butt"/><path d="M234.69555,184.65472v-9l40.28572,0.5v9z" fill="#000000" stroke="none" stroke-width="0" stroke-linecap="butt"/><path d="M161.93839,207.40471h15.31054l13.56279,-45l45.26775,18.50547" fill="none" stroke="#000000" stroke-width="4" stroke-linecap="round"/><path d="M182.16879,168.50985c0,-6.62742 5.37258,-12 12,-12c6.62742,0 12,5.37258 12,12c0,6.62742 -5.37258,12 -12,12c-6.62742,0 -12,-5.37258 -12,-12z" fill="#000000" stroke="none" stroke-width="0" stroke-linecap="butt"/><path d="M309.48129,230.25384v-76.5h14.5v76.5z" fill="#000000" stroke="none" stroke-width="0" stroke-linecap="butt"/><path d="M347.48129,230.75384v-76.5h14.5v76.5z" fill="#000000" stroke="none" stroke-width="0" stroke-linecap="butt"/><path d="M397.98128,209.25384v-6.5h19v6.5z" fill="#000000" stroke="none" stroke-width="0" stroke-linecap="butt"/><path d="M94.44072,360.68327v-80.07508h118.61862v80.07508z" fill="#000000" stroke="none" stroke-width="0" stroke-linecap="butt"/><path d="M263.6239,361.68327v-24.52853h154.64264v24.52853z" fill="#000000" stroke="none" stroke-width="0" stroke-linecap="butt"/><path d="M380.48128,279.75384v-6h19v6z" fill="#000000" stroke="none" stroke-width="0" stroke-linecap="butt"/><path d="M119.36222,211.48805v-9l43.61905,0.5v9z" fill="#000000" stroke="none" stroke-width="0" stroke-linecap="butt"/></g></g></svg>