<svg version="1.1" xmlns="http://www.w3.org/2000/svg" xmlns:xlink="http://www.w3.org/1999/xlink" width="405.3559" height="224.54108" viewBox="0,0,405.3559,224.54108"><defs><linearGradient x1="108.24411" y1="230.61609" x2="117.01438" y2="230.73228" gradientUnits="userSpaceOnUse" id="color-1"><stop offset="0" stop-color="#5c0000"/><stop offset="1" stop-color="#150000"/></linearGradient><linearGradient x1="108.3441" y1="223.71609" x2="117.11438" y2="223.83228" gradientUnits="userSpaceOnUse" id="color-2"><stop offset="0" stop-color="#5c0000"/><stop offset="1" stop-color="#150000"/></linearGradient><linearGradient x1="108.44409" y1="216.81609" x2="117.21438" y2="216.93228" gradientUnits="userSpaceOnUse" id="color-3"><stop offset="0" stop-color="#5c0000"/><stop offset="1" stop-color="#150000"/></linearGradient><linearGradient x1="108.54408" y1="209.9161" x2="117.31438" y2="210.03228" gradientUnits="userSpaceOnUse" id="color-4"><stop offset="0" stop-color="#5c0000"/><stop offset="1" stop-color="#150000"/></linearGradient><linearGradient x1="108.64409" y1="202.71609" x2="117.41438" y2="202.83228" gradientUnits="userSpaceOnUse" id="color-5"><stop offset="0" stop-color="#5c0000"/><stop offset="1" stop-color="#150000"/></linearGradient><linearGradient x1="108.74409" y1="195.81609" x2="117.51439" y2="195.93228" gradientUnits="userSpaceOnUse" id="color-6"><stop offset="0" stop-color="#5c0000"/><stop offset="1" stop-color="#150000"/></linearGradient><linearGradient x1="108.24411" y1="251.28276" x2="117.01439" y2="251.39895" gradientUnits="userSpaceOnUse" id="color-7"><stop offset="0" stop-color="#5c0000"/><stop offset="1" stop-color="#150000"/></linearGradient><linearGradient x1="108.3441" y1="244.38276" x2="117.11438" y2="244.49895" gradientUnits="userSpaceOnUse" id="color-8"><stop offset="0" stop-color="#5c0000"/><stop offset="1" stop-color="#150000"/></linearGradient><linearGradient x1="108.4441" y1="237.48276" x2="117.21439" y2="237.59895" gradientUnits="userSpaceOnUse" id="color-9"><stop offset="0" stop-color="#5c0000"/><stop offset="1" stop-color="#150000"/></linearGradient></defs><g transform="translate(1.67062,-37.84231)"><g data-paper-data="{&quot;isPaintingLayer&quot;:true}" fill-rule="nonzero" stroke-linecap="butt" stroke-linejoin="miter" stroke-miterlimit="10" stroke-dasharray="" stroke-dashoffset="0" style="mix-blend-mode: normal"><g data-paper-data="{&quot;index&quot;:null}" fill="#000000" stroke="none" stroke-width="0"><path d="M403.60603,130.09761v2.28571h-2.27391v-2.28571z"/><path d="M400.07439,129.249l3.6109,2.02753l-3.6109,1.79223l-5.76583,-1.79223z"/></g><g data-paper-data="{&quot;index&quot;:null}" fill="#000000" stroke="none" stroke-width="0"><path d="M403.4687,126.18097v2.28571h-2.2739v-2.28571z"/><path d="M399.93705,125.33236l3.61091,2.02753l-3.61091,1.79224l-5.76582,-1.79224z"/></g><g data-paper-data="{&quot;index&quot;:null}" fill="#000000" stroke="none" stroke-width="0"><path d="M403.31477,122.5143v2.28572h-2.2739v-2.28572z"/><path d="M399.78312,121.66571l3.61092,2.02753l-3.61092,1.79224l-5.76582,-1.79224z"/></g><g data-paper-data="{&quot;index&quot;:null}" fill="#000000" stroke="none" stroke-width="0"><path d="M403.56477,118.5143v2.28572h-2.2739v-2.28572z"/><path d="M400.03312,117.66571l3.61092,2.02753l-3.61092,1.79224l-5.76582,-1.79224z"/></g><g data-paper-data="{&quot;index&quot;:null}" fill="#000000" stroke="none" stroke-width="0"><path d="M403.31477,114.2643v2.28572h-2.2739v-2.28572z"/><path d="M399.78312,113.41571l3.61092,2.02753l-3.61092,1.79224l-5.76582,-1.79224z"/></g><g data-paper-data="{&quot;index&quot;:null}" fill="#000000" stroke="none" stroke-width="0"><path d="M403.31477,110.2643v2.28572h-2.2739v-2.28572z"/><path d="M399.78312,109.41571l3.61092,2.02753l-3.61092,1.79224l-5.76582,-1.79224z"/></g><g data-paper-data="{&quot;index&quot;:null}" fill="#000000" stroke="none" stroke-width="0"><path d="M403.2578,106.22425v2.28572h-2.2739v-2.28572z"/><path d="M399.72617,105.37565l3.6109,2.02753l-3.6109,1.79224l-5.76583,-1.79224z"/></g><g data-paper-data="{&quot;index&quot;:null}" fill="#000000" stroke="none" stroke-width="0"><path d="M403.2578,102.30759v2.28572h-2.2739v-2.28572z"/><path d="M399.72617,101.45899l3.6109,2.02753l-3.6109,1.79223l-5.76583,-1.79223z"/></g><g data-paper-data="{&quot;index&quot;:null}" fill="#000000" stroke="none" stroke-width="0"><path d="M403.2578,98.14092v2.28572h-2.2739v-2.28572z"/><path d="M399.72617,97.29233l3.6109,2.02753l-3.6109,1.79224l-5.76583,-1.79224z"/></g><g data-paper-data="{&quot;index&quot;:null}" fill="#000000" stroke="none" stroke-width="0"><path d="M402.98144,93.93099v2.28572h-2.27391v-2.28572z"/><path d="M399.44979,93.08236l3.61091,2.02753l-3.61091,1.79224l-5.76583,-1.79224z"/></g><g data-paper-data="{&quot;index&quot;:null}" fill="#000000" stroke="none" stroke-width="0"><path d="M402.98144,89.93099v2.28572h-2.27391v-2.28572z"/><path d="M399.44979,89.08236l3.61091,2.02753l-3.61091,1.79224l-5.76583,-1.79224z"/></g><g data-paper-data="{&quot;index&quot;:null}" fill="#000000" stroke="none" stroke-width="0"><path d="M402.92446,85.89091v2.28572h-2.2739v-2.28572z"/><path d="M399.39283,85.04233l3.6109,2.02753l-3.6109,1.79224l-5.76583,-1.79224z"/></g><g data-paper-data="{&quot;index&quot;:null}" fill="#000000" stroke="none" stroke-width="0"><path d="M402.92446,81.97424v2.28572h-2.2739v-2.28572z"/><path d="M399.39283,81.12565l3.6109,2.02753l-3.6109,1.79223l-5.76583,-1.79223z"/></g><g data-paper-data="{&quot;index&quot;:null}" fill="#000000" stroke="none" stroke-width="0"><path d="M403.17446,77.80758v2.28572h-2.2739v-2.28572z"/><path d="M399.64283,76.95898l3.6109,2.02753l-3.6109,1.79224l-5.76583,-1.79224z"/></g><g data-paper-data="{&quot;index&quot;:null}" fill="#000000" stroke="none" stroke-width="0"><path d="M403.37447,73.77427v2.28572h-2.27391v-2.28572z"/><path d="M399.84284,72.92566l3.6109,2.02753l-3.6109,1.79223l-5.76583,-1.79223z"/></g><g fill="#000000" stroke="none" stroke-width="0"><path d="M318.16544,40.81347v-2.28571h2.27391v2.28571z"/><path d="M311.14188,39.63454l5.76583,-1.79223l3.6109,1.79223l-3.6109,2.02753z"/></g><g fill="#000000" stroke="none" stroke-width="0"><path d="M318.02814,44.73013v-2.28571h2.2739v2.28571z"/><path d="M311.00454,43.55121l5.76582,-1.79224l3.61091,1.79224l-3.61091,2.02753z"/></g><g fill="#000000" stroke="none" stroke-width="0"><path d="M317.87418,48.3968v-2.28572h2.2739v2.28572z"/><path d="M310.8506,47.21786l5.76582,-1.79224l3.61092,1.79224l-3.61092,2.02753z"/></g><g fill="#000000" stroke="none" stroke-width="0"><path d="M318.12418,52.3968v-2.28572h2.2739v2.28572z"/><path d="M311.1006,51.21786l5.76582,-1.79224l3.61092,1.79224l-3.61092,2.02753z"/></g><g fill="#000000" stroke="none" stroke-width="0"><path d="M317.87418,56.6468v-2.28572h2.2739v2.28572z"/><path d="M310.8506,55.46786l5.76582,-1.79224l3.61092,1.79224l-3.61092,2.02753z"/></g><g fill="#000000" stroke="none" stroke-width="0"><path d="M317.87418,60.6468v-2.28572h2.2739v2.28572z"/><path d="M310.8506,59.46786l5.76582,-1.79224l3.61092,1.79224l-3.61092,2.02753z"/></g><g fill="#000000" stroke="none" stroke-width="0"><path d="M317.81722,64.68685v-2.28572h2.2739v2.28572z"/><path d="M310.79367,63.50792l5.76583,-1.79224l3.6109,1.79224l-3.6109,2.02753z"/></g><g fill="#000000" stroke="none" stroke-width="0"><path d="M317.81722,68.6035v-2.28572h2.2739v2.28572z"/><path d="M310.79367,67.42458l5.76583,-1.79223l3.6109,1.79223l-3.6109,2.02753z"/></g><g fill="#000000" stroke="none" stroke-width="0"><path d="M317.81722,72.77017v-2.28572h2.2739v2.28572z"/><path d="M310.79367,71.59124l5.76583,-1.79224l3.6109,1.79224l-3.6109,2.02753z"/></g><g fill="#000000" stroke="none" stroke-width="0"><path d="M317.54085,76.98011v-2.28572h2.27391v2.28572z"/><path d="M310.5173,75.80121l5.76583,-1.79224l3.61091,1.79224l-3.61091,2.02753z"/></g><g fill="#000000" stroke="none" stroke-width="0"><path d="M317.54085,80.98011v-2.28572h2.27391v2.28572z"/><path d="M310.5173,79.80121l5.76583,-1.79224l3.61091,1.79224l-3.61091,2.02753z"/></g><g fill="#000000" stroke="none" stroke-width="0"><path d="M317.48387,85.02019v-2.28572h2.2739v2.28572z"/><path d="M310.46032,83.84124l5.76583,-1.79224l3.6109,1.79224l-3.6109,2.02753z"/></g><g fill="#000000" stroke="none" stroke-width="0"><path d="M317.48387,88.93685v-2.28572h2.2739v2.28572z"/><path d="M310.46032,87.75789l5.76583,-1.79223l3.6109,1.79223l-3.6109,2.02753z"/></g><g fill="#000000" stroke="none" stroke-width="0"><path d="M317.73387,93.10351v-2.28572h2.2739v2.28572z"/><path d="M310.71032,91.92459l5.76583,-1.79224l3.6109,1.79224l-3.6109,2.02753z"/></g><g fill="#000000" stroke="none" stroke-width="0"><path d="M317.93389,97.13683v-2.28572h2.27391v2.28572z"/><path d="M310.91034,95.95791l5.76583,-1.79223l3.6109,1.79223l-3.6109,2.02753z"/></g><path d="M116.1439,227.94417l1.40566,2.91939l-1.47921,2.63274l-7.82827,-2.726z" data-paper-data="{&quot;index&quot;:null}" fill="url(#color-1)" stroke="#000000" stroke-width="1"/><path d="M116.24389,221.04417l1.40566,2.91939l-1.47922,2.63274l-7.82826,-2.726z" data-paper-data="{&quot;index&quot;:null}" fill="url(#color-2)" stroke="#000000" stroke-width="1"/><path d="M116.34388,214.14417l1.40566,2.91939l-1.47922,2.63274l-7.82827,-2.726z" data-paper-data="{&quot;index&quot;:null}" fill="url(#color-3)" stroke="#000000" stroke-width="1"/><path d="M116.44389,207.24418l1.40566,2.91939l-1.47922,2.63274l-7.82826,-2.726z" data-paper-data="{&quot;index&quot;:null}" fill="url(#color-4)" stroke="#000000" stroke-width="1"/><path d="M116.54389,200.04417l1.40566,2.91939l-1.47922,2.63274l-7.82826,-2.726z" data-paper-data="{&quot;index&quot;:null}" fill="url(#color-5)" stroke="#000000" stroke-width="1"/><path d="M116.6439,193.14417l1.40566,2.91939l-1.47922,2.63274l-7.82826,-2.726z" data-paper-data="{&quot;index&quot;:null}" fill="url(#color-6)" stroke="#000000" stroke-width="1"/><path d="M116.1439,248.61084l1.40566,2.91939l-1.47921,2.63274l-7.82827,-2.726z" data-paper-data="{&quot;index&quot;:null}" fill="url(#color-7)" stroke="#000000" stroke-width="1"/><path d="M116.2439,241.71084l1.40566,2.91939l-1.47922,2.63274l-7.82826,-2.726z" data-paper-data="{&quot;index&quot;:null}" fill="url(#color-8)" stroke="#000000" stroke-width="1"/><path d="M116.34389,234.81084l1.40566,2.91939l-1.47922,2.63274l-7.82827,-2.726z" data-paper-data="{&quot;index&quot;:null}" fill="url(#color-9)" stroke="#000000" stroke-width="1"/><g fill="#000000" stroke="none" stroke-width="0"><path d="M2.23017,109.09761v2.28571h-2.27391v-2.28571z"/><path d="M9.25372,110.27654l-5.76583,1.79223l-3.6109,-1.79223l3.6109,-2.02753z"/></g><g fill="#000000" stroke="none" stroke-width="0"><path d="M2.36748,105.18095v2.28571h-2.2739v-2.28571z"/><path d="M9.39105,106.35987l-5.76582,1.79224l-3.61091,-1.79224l3.61091,-2.02753z"/></g><g fill="#000000" stroke="none" stroke-width="0"><path d="M2.5214,101.51428v2.28572h-2.2739v-2.28572z"/><path d="M9.54499,102.69322l-5.76582,1.79224l-3.61092,-1.79224l3.61092,-2.02753z"/></g><g fill="#000000" stroke="none" stroke-width="0"><path d="M2.2714,97.51428v2.28572h-2.2739v-2.28572z"/><path d="M9.29499,98.69322l-5.76582,1.79224l-3.61092,-1.79224l3.61092,-2.02753z"/></g><g fill="#000000" stroke="none" stroke-width="0"><path d="M2.5214,93.26428v2.28572h-2.2739v-2.28572z"/><path d="M9.54499,94.44322l-5.76582,1.79224l-3.61092,-1.79224l3.61092,-2.02753z"/></g><g fill="#000000" stroke="none" stroke-width="0"><path d="M2.5214,89.26428v2.28572h-2.2739v-2.28572z"/><path d="M9.54499,90.44322l-5.76582,1.79224l-3.61092,-1.79224l3.61092,-2.02753z"/></g><g fill="#000000" stroke="none" stroke-width="0"><path d="M2.57839,85.22423v2.28572h-2.2739v-2.28572z"/><path d="M9.60193,86.40316l-5.76583,1.79224l-3.6109,-1.79224l3.6109,-2.02753z"/></g><g fill="#000000" stroke="none" stroke-width="0"><path d="M2.57839,81.30756v2.28572h-2.2739v-2.28572z"/><path d="M9.60193,82.4865l-5.76583,1.79223l-3.6109,-1.79223l3.6109,-2.02753z"/></g><g fill="#000000" stroke="none" stroke-width="0"><path d="M2.57839,77.14088v2.28572h-2.2739v-2.28572z"/><path d="M9.60193,78.31983l-5.76583,1.79224l-3.6109,-1.79224l3.6109,-2.02753z"/></g><g fill="#000000" stroke="none" stroke-width="0"><path d="M2.85475,72.93095v2.28572h-2.27391v-2.28572z"/><path d="M9.87833,74.10987l-5.76583,1.79224l-3.61091,-1.79224l3.61091,-2.02753z"/></g><g fill="#000000" stroke="none" stroke-width="0"><path d="M2.85475,68.93095v2.28572h-2.27391v-2.28572z"/><path d="M9.87833,70.10987l-5.76583,1.79224l-3.61091,-1.79224l3.61091,-2.02753z"/></g><g fill="#000000" stroke="none" stroke-width="0"><path d="M2.91172,64.89088v2.28572h-2.2739v-2.28572z"/><path d="M9.93529,66.06983l-5.76583,1.79224l-3.6109,-1.79224l3.6109,-2.02753z"/></g><g fill="#000000" stroke="none" stroke-width="0"><path d="M2.91172,60.97423v2.28572h-2.2739v-2.28572z"/><path d="M9.93529,62.15319l-5.76583,1.79223l-3.6109,-1.79223l3.6109,-2.02753z"/></g><g fill="#000000" stroke="none" stroke-width="0"><path d="M2.66172,56.80757v2.28572h-2.2739v-2.28572z"/><path d="M9.68529,57.98649l-5.76583,1.79224l-3.6109,-1.79224l3.6109,-2.02753z"/></g><g fill="#000000" stroke="none" stroke-width="0"><path d="M1.39684,169.43094v2.28571h-2.27391v-2.28571z"/><path d="M8.42039,170.60987l-5.76583,1.79223l-3.6109,-1.79223l3.6109,-2.02753z"/></g><g fill="#000000" stroke="none" stroke-width="0"><path d="M1.53415,165.51428v2.28571h-2.2739v-2.28571z"/><path d="M8.55771,166.6932l-5.76582,1.79224l-3.61091,-1.79224l3.61091,-2.02753z"/></g><g fill="#000000" stroke="none" stroke-width="0"><path d="M1.68808,161.84761v2.28572h-2.2739v-2.28572z"/><path d="M8.71167,163.02655l-5.76582,1.79224l-3.61092,-1.79224l3.61092,-2.02753z"/></g><g fill="#000000" stroke="none" stroke-width="0"><path d="M1.43808,157.84761v2.28572h-2.2739v-2.28572z"/><path d="M8.46167,159.02655l-5.76582,1.79224l-3.61092,-1.79224l3.61092,-2.02753z"/></g><g fill="#000000" stroke="none" stroke-width="0"><path d="M1.68808,153.59761v2.28572h-2.2739v-2.28572z"/><path d="M8.71167,154.77655l-5.76582,1.79224l-3.61092,-1.79224l3.61092,-2.02753z"/></g><g fill="#000000" stroke="none" stroke-width="0"><path d="M1.68808,149.59761v2.28572h-2.2739v-2.28572z"/><path d="M8.71167,150.77655l-5.76582,1.79224l-3.61092,-1.79224l3.61092,-2.02753z"/></g><g fill="#000000" stroke="none" stroke-width="0"><path d="M1.74506,145.55756v2.28572h-2.2739v-2.28572z"/><path d="M8.76863,146.73649l-5.76583,1.79224l-3.6109,-1.79224l3.6109,-2.02753z"/></g><g fill="#000000" stroke="none" stroke-width="0"><path d="M1.74506,141.6409v2.28572h-2.2739v-2.28572z"/><path d="M8.76863,142.81983l-5.76583,1.79223l-3.6109,-1.79223l3.6109,-2.02753z"/></g><g fill="#000000" stroke="none" stroke-width="0"><path d="M1.74506,137.47422v2.28572h-2.2739v-2.28572z"/><path d="M8.76863,138.65317l-5.76583,1.79224l-3.6109,-1.79224l3.6109,-2.02753z"/></g><g fill="#000000" stroke="none" stroke-width="0"><path d="M2.02141,133.2643v2.28572h-2.27391v-2.28572z"/><path d="M9.04499,134.4432l-5.76583,1.79224l-3.61091,-1.79224l3.61091,-2.02753z"/></g><g fill="#000000" stroke="none" stroke-width="0"><path d="M2.02141,129.2643v2.28572h-2.27391v-2.28572z"/><path d="M9.04499,130.4432l-5.76583,1.79224l-3.61091,-1.79224l3.61091,-2.02753z"/></g><g fill="#000000" stroke="none" stroke-width="0"><path d="M2.07839,125.22422v2.28572h-2.2739v-2.28572z"/><path d="M9.10193,126.40317l-5.76583,1.79224l-3.6109,-1.79224l3.6109,-2.02753z"/></g><g fill="#000000" stroke="none" stroke-width="0"><path d="M2.07839,121.30756v2.28572h-2.2739v-2.28572z"/><path d="M9.10193,122.48652l-5.76583,1.79223l-3.6109,-1.79223l3.6109,-2.02753z"/></g><g fill="#000000" stroke="none" stroke-width="0"><path d="M1.82839,117.1409v2.28572h-2.2739v-2.28572z"/><path d="M8.85193,118.31982l-5.76583,1.79224l-3.6109,-1.79224l3.6109,-2.02753z"/></g><g fill="#000000" stroke="none" stroke-width="0"><path d="M1.62839,113.10758v2.28572h-2.27391v-2.28572z"/><path d="M8.65195,114.2865l-5.76583,1.79223l-3.6109,-1.79223l3.6109,-2.02753z"/></g><g fill="#000000" stroke="none" stroke-width="0"><path d="M0.68254,229.85951v2.28571h-2.27391v-2.28571z"/><path d="M7.70611,231.03844l-5.76583,1.79223l-3.6109,-1.79223l3.6109,-2.02753z"/></g><g fill="#000000" stroke="none" stroke-width="0"><path d="M0.81985,225.94285v2.28571h-2.2739v-2.28571z"/><path d="M7.84344,227.12177l-5.76582,1.79224l-3.61091,-1.79224l3.61091,-2.02753z"/></g><g fill="#000000" stroke="none" stroke-width="0"><path d="M0.97379,222.27618v2.28572h-2.2739v-2.28572z"/><path d="M7.99736,223.45512l-5.76582,1.79224l-3.61092,-1.79224l3.61092,-2.02753z"/></g><g fill="#000000" stroke="none" stroke-width="0"><path d="M0.72379,218.27618v2.28572h-2.2739v-2.28572z"/><path d="M7.74736,219.45512l-5.76582,1.79224l-3.61092,-1.79224l3.61092,-2.02753z"/></g><g fill="#000000" stroke="none" stroke-width="0"><path d="M0.97379,214.02618v2.28572h-2.2739v-2.28572z"/><path d="M7.99736,215.20512l-5.76582,1.79224l-3.61092,-1.79224l3.61092,-2.02753z"/></g><g fill="#000000" stroke="none" stroke-width="0"><path d="M0.97379,210.02618v2.28572h-2.2739v-2.28572z"/><path d="M7.99736,211.20512l-5.76582,1.79224l-3.61092,-1.79224l3.61092,-2.02753z"/></g><g fill="#000000" stroke="none" stroke-width="0"><path d="M1.03076,205.98613v2.28572h-2.2739v-2.28572z"/><path d="M8.0543,207.16506l-5.76583,1.79224l-3.6109,-1.79224l3.6109,-2.02753z"/></g><g fill="#000000" stroke="none" stroke-width="0"><path d="M1.03076,202.06947v2.28572h-2.2739v-2.28572z"/><path d="M8.0543,203.2484l-5.76583,1.79223l-3.6109,-1.79223l3.6109,-2.02753z"/></g><g fill="#000000" stroke="none" stroke-width="0"><path d="M1.03076,197.9028v2.28572h-2.2739v-2.28572z"/><path d="M8.0543,199.08174l-5.76583,1.79224l-3.6109,-1.79224l3.6109,-2.02753z"/></g><g fill="#000000" stroke="none" stroke-width="0"><path d="M1.30712,193.69287v2.28572h-2.27391v-2.28572z"/><path d="M8.3307,194.87177l-5.76583,1.79224l-3.61091,-1.79224l3.61091,-2.02753z"/></g><g fill="#000000" stroke="none" stroke-width="0"><path d="M1.30712,189.69287v2.28572h-2.27391v-2.28572z"/><path d="M8.3307,190.87177l-5.76583,1.79224l-3.61091,-1.79224l3.61091,-2.02753z"/></g><g fill="#000000" stroke="none" stroke-width="0"><path d="M1.36409,185.65279v2.28572h-2.2739v-2.28572z"/><path d="M8.38764,186.83174l-5.76583,1.79224l-3.6109,-1.79224l3.6109,-2.02753z"/></g><g fill="#000000" stroke="none" stroke-width="0"><path d="M1.36409,181.73613v2.28572h-2.2739v-2.28572z"/><path d="M8.38764,182.91509l-5.76583,1.79223l-3.6109,-1.79223l3.6109,-2.02753z"/></g><g fill="#000000" stroke="none" stroke-width="0"><path d="M1.11409,177.56947v2.28572h-2.2739v-2.28572z"/><path d="M8.13764,178.74839l-5.76583,1.79224l-3.6109,-1.79224l3.6109,-2.02753z"/></g><g fill="#000000" stroke="none" stroke-width="0"><path d="M0.91409,173.53615v2.28572h-2.27391v-2.28572z"/><path d="M7.93766,174.71507l-5.76583,1.79223l-3.6109,-1.79223l3.6109,-2.02753z"/></g><g fill="#000000" stroke="none" stroke-width="0"><path d="M264.09845,260.03021h2.37603v2.27391h-2.37603z"/><path d="M265.32397,253.00666l1.86305,5.76583l-1.86305,3.6109l-2.10765,-3.6109z"/></g><g fill="#000000" stroke="none" stroke-width="0"><path d="M260.22703,259.89291h2.37603v2.2739h-2.37603z"/><path d="M261.45252,252.86933l1.86306,5.76582l-1.86306,3.61091l-2.10765,-3.61091z"/></g><g fill="#000000" stroke="none" stroke-width="0"><path d="M256.41547,259.73898h2.37604v2.2739h-2.37604z"/><path d="M257.64098,252.7154l1.86306,5.76582l-1.86306,3.61092l-2.10765,-3.61092z"/></g><g fill="#000000" stroke="none" stroke-width="0"><path d="M252.05738,259.98898h2.37604v2.2739h-2.37604z"/><path d="M253.28293,252.9654l1.86306,5.76582l-1.86306,3.61092l-2.10765,-3.61092z"/></g><g fill="#000000" stroke="none" stroke-width="0"><path d="M247.63947,259.73898h2.37604v2.2739h-2.37604z"/><path d="M248.86499,252.7154l1.86306,5.76582l-1.86306,3.61092l-2.10765,-3.61092z"/></g><g fill="#000000" stroke="none" stroke-width="0"><path d="M243.4814,259.73898h2.37604v2.2739h-2.37604z"/><path d="M244.70692,252.7154l1.86306,5.76582l-1.86306,3.61092l-2.10765,-3.61092z"/></g><g fill="#000000" stroke="none" stroke-width="0"><path d="M239.28171,259.68199h2.37604v2.2739h-2.37604z"/><path d="M240.50722,252.65844l1.86306,5.76583l-1.86306,3.6109l-2.10765,-3.6109z"/></g><g fill="#000000" stroke="none" stroke-width="0"><path d="M235.21028,259.68199h2.37604v2.2739h-2.37604z"/><path d="M236.4358,252.65844l1.86305,5.76583l-1.86305,3.6109l-2.10765,-3.6109z"/></g><g fill="#000000" stroke="none" stroke-width="0"><path d="M230.87893,259.68199h2.37604v2.2739h-2.37604z"/><path d="M232.10448,252.65844l1.86306,5.76583l-1.86306,3.6109l-2.10765,-3.6109z"/></g><g fill="#000000" stroke="none" stroke-width="0"><path d="M226.50267,259.40563h2.37604v2.27391h-2.37604z"/><path d="M227.72813,252.38206l1.86306,5.76583l-1.86306,3.61091l-2.10765,-3.61091z"/></g><g fill="#000000" stroke="none" stroke-width="0"><path d="M222.34462,259.40563h2.37604v2.27391h-2.37604z"/><path d="M223.57008,252.38206l1.86306,5.76583l-1.86306,3.61091l-2.10765,-3.61091z"/></g><g fill="#000000" stroke="none" stroke-width="0"><path d="M218.14489,259.54867h2.37604v2.2739h-2.37604z"/><path d="M219.37042,252.5251l1.86306,5.76583l-1.86306,3.6109l-2.10765,-3.6109z"/></g><g fill="#000000" stroke="none" stroke-width="0"><path d="M214.07346,259.34867h2.37604v2.2739h-2.37604z"/><path d="M215.29901,252.3251l1.86305,5.76583l-1.86305,3.6109l-2.10765,-3.6109z"/></g><g fill="#000000" stroke="none" stroke-width="0"><path d="M209.74216,259.59867h2.37604v2.2739h-2.37604z"/><path d="M210.96765,252.5751l1.86306,5.76583l-1.86306,3.6109l-2.10765,-3.6109z"/></g><g fill="#000000" stroke="none" stroke-width="0"><path d="M205.54946,259.79867h2.37604v2.27391h-2.37604z"/><path d="M206.77496,252.77511l1.86305,5.76583l-1.86305,3.6109l-2.10765,-3.6109z"/></g><g fill="#000000" stroke="none" stroke-width="0"><path d="M294.01277,260.03021h2.37603v2.27391h-2.37603z"/><path d="M295.23829,253.00666l1.86305,5.76583l-1.86305,3.6109l-2.10765,-3.6109z"/></g><g fill="#000000" stroke="none" stroke-width="0"><path d="M289.94136,259.89291h2.37603v2.2739h-2.37603z"/><path d="M291.16686,252.86933l1.86306,5.76582l-1.86306,3.61091l-2.10765,-3.61091z"/></g><g fill="#000000" stroke="none" stroke-width="0"><path d="M285.52979,259.73898h2.37604v2.2739h-2.37604z"/><path d="M286.75533,252.7154l1.86306,5.76582l-1.86306,3.61092l-2.10765,-3.61092z"/></g><g fill="#000000" stroke="none" stroke-width="0"><path d="M281.37173,259.98898h2.37604v2.2739h-2.37604z"/><path d="M282.59726,252.9654l1.86306,5.76582l-1.86306,3.61092l-2.10765,-3.61092z"/></g><g fill="#000000" stroke="none" stroke-width="0"><path d="M276.95379,259.73898h2.37604v2.2739h-2.37604z"/><path d="M278.17931,252.7154l1.86306,5.76582l-1.86306,3.61092l-2.10765,-3.61092z"/></g><g fill="#000000" stroke="none" stroke-width="0"><path d="M272.79573,259.73898h2.37604v2.2739h-2.37604z"/><path d="M274.02125,252.7154l1.86306,5.76582l-1.86306,3.61092l-2.10765,-3.61092z"/></g><g fill="#000000" stroke="none" stroke-width="0"><path d="M268.79603,259.68199h2.37604v2.2739h-2.37604z"/><path d="M270.02155,252.65844l1.86306,5.76583l-1.86306,3.6109l-2.10765,-3.6109z"/></g><g fill="#000000" stroke="none" stroke-width="0"><path d="M307.2052,259.8929h2.37603v2.2739h-2.37603z"/><path d="M308.43072,252.86932l1.86306,5.76582l-1.86306,3.61091l-2.10765,-3.61091z"/></g><g fill="#000000" stroke="none" stroke-width="0"><path d="M302.76204,259.73898h2.37604v2.2739h-2.37604z"/><path d="M303.98756,252.71539l1.86306,5.76582l-1.86306,3.61092l-2.10765,-3.61092z"/></g><g fill="#000000" stroke="none" stroke-width="0"><path d="M298.60399,259.98898h2.37604v2.2739h-2.37604z"/><path d="M299.82951,252.96539l1.86306,5.76582l-1.86306,3.61092l-2.10765,-3.61092z"/></g></g></g></svg>