<svg version="1.1" xmlns="http://www.w3.org/2000/svg" xmlns:xlink="http://www.w3.org/1999/xlink" width="491.6943" height="367.74418" viewBox="0,0,491.6943,367.74418"><g transform="translate(4.75365,2.53494)"><g data-paper-data="{&quot;isPaintingLayer&quot;:true}" fill="#000000" fill-rule="nonzero" stroke-linecap="butt" stroke-linejoin="miter" stroke-miterlimit="10" stroke-dasharray="" stroke-dashoffset="0" style="mix-blend-mode: normal"><path d="M0.16548,361.98355v-188l45,0.01111v187.98889z" stroke="#000000" stroke-width="5"/><path d="M45.69443,207.70924v-6h21v6z" stroke="#000000" stroke-width="5"/><path d="M44.44065,362.70924v-124h239v124z" stroke="#000000" stroke-width="5"/><path d="M176.44065,234.70924v-32h32v32z" stroke="#000000" stroke-width="5"/><path d="M280.44065,362.70924v-262h38v262z" stroke="#000000" stroke-width="5"/><path d="M322.44065,362.70924v-163h162v163z" stroke="#000000" stroke-width="5"/><path d="M363.44065,77.39908v-77.131h117v119h-73.90272z" stroke="#000000" stroke-width="5"/><path d="M321.44065,196.26808v-35h35v35z" stroke="#000000" stroke-width="5"/><path d="M249.44064,156.26808v-11h29v11z" stroke="none" stroke-width="0"/><path d="M-4.75365,67.16899v-69.70393h257.21622v69.70393z" stroke="none" stroke-width="0"/><path d="M38.29332,126.57931v-60.06006h180.18018l-43.54354,60.06006z" stroke="#000000" stroke-width="5"/></g></g></svg>