<svg version="1.1" xmlns="http://www.w3.org/2000/svg" xmlns:xlink="http://www.w3.org/1999/xlink" width="40.09072" height="31.29506" viewBox="0,0,40.09072,31.29506"><defs><linearGradient x1="267.43818" y1="156.97085" x2="299.85356" y2="156.97085" gradientUnits="userSpaceOnUse" id="color-1"><stop offset="0" stop-color="#174d00" stop-opacity="0"/><stop offset="1" stop-color="#174d00"/></linearGradient><linearGradient x1="268.77153" y1="156.77328" x2="302.6869" y2="156.77328" gradientUnits="userSpaceOnUse" id="color-2"><stop offset="0" stop-color="#2f9900"/><stop offset="1" stop-color="#1b5900"/></linearGradient></defs><g transform="translate(-265.43818,-141.2837)"><g data-paper-data="{&quot;isPaintingLayer&quot;:true}" fill-rule="nonzero" stroke-linecap="round" stroke-linejoin="miter" stroke-miterlimit="10" stroke-dasharray="" stroke-dashoffset="0" style="mix-blend-mode: normal"><path d="M267.7339,147.73805c0,0 15.09788,1.08008 22.51189,2.75719c7.43891,1.68275 11.4798,4.8747 8.75486,7.50375c-5.50529,5.31157 -31.56247,8.20464 -31.56247,8.20464" fill="url(#color-1)" stroke="#174d00" stroke-width="4"/><path d="M268.81936,144.50676c0,0 16.05809,0.52474 23.81518,2.94017c7.78314,2.42354 12.01102,7.02069 9.15999,10.80714c-5.76004,7.64988 -33.023,10.78574 -33.023,10.78574" fill="none" stroke="url(#color-2)" stroke-width="3.5"/><path d="M269.47564,142.5337c0,0 16.39296,0.36375 24.36529,3.24945c7.99912,2.8954 12.41139,8.35919 9.57676,12.84236c-5.72688,9.0575 -33.5088,12.70325 -33.5088,12.70325" fill="none" stroke="#000000" stroke-width="2.5"/></g></g></svg>