<svg version="1.1" xmlns="http://www.w3.org/2000/svg" xmlns:xlink="http://www.w3.org/1999/xlink" width="495.75588" height="403.07356" viewBox="0,0,495.75588,403.07356"><g transform="translate(13.44682,3.40008)"><g data-paper-data="{&quot;isPaintingLayer&quot;:true}" fill="#000000" fill-rule="nonzero" stroke-linecap="butt" stroke-linejoin="miter" stroke-miterlimit="10" stroke-dasharray="" stroke-dashoffset="0" style="mix-blend-mode: normal"><path d="M189.9245,398.95652c0,0 0,-105.03006 0,-125.06598c0,-6.33769 -36,-49.5136 -36,-49.5136l95.201,37h232.62169v137.57958z" stroke="#000000" stroke-width="1"/><path d="M-12.94682,396.87169v-399.77177h78.04204l1.5,225.79062h48.5l-49,38v135.98115z" stroke="#000000" stroke-width="1"/><path d="M290.5123,85.13009v-87.07448h191.2967v87.07448z" stroke="#000000" stroke-width="1"/><path d="M45.51229,165.14811v-47.66907h191.2967v47.66907z" stroke="#000000" stroke-width="1"/><path d="M63.28348,67.87124v-8.1h26.2v8.1z" stroke="#000000" stroke-width="2"/><path d="M115.93069,43.57453v-45.51892h365.87837v45.51892z" stroke="#000000" stroke-width="1"/><path d="M425.50383,261.21398l0.2124,-32.29415l30.02056,0.22537l-0.21239,31.85706z" stroke="none" stroke-width="0"/><path d="M62.59078,399.17348v-64.86036h129.63514v64.86036z" stroke="#000000" stroke-width="1"/></g></g></svg>