<svg version="1.1" xmlns="http://www.w3.org/2000/svg" xmlns:xlink="http://www.w3.org/1999/xlink" width="107.29824" height="135.282" viewBox="0,0,107.29824,135.282"><g transform="translate(-292.85658,-129.74844)"><g data-paper-data="{&quot;isPaintingLayer&quot;:true}" fill="#000000" fill-rule="nonzero" stroke="#0028ff" stroke-width="3" stroke-linecap="butt" stroke-linejoin="miter" stroke-miterlimit="10" stroke-dasharray="" stroke-dashoffset="0" style="mix-blend-mode: normal"><path d="M394.37385,171.95254l-7.52346,-11.44059l-4.3905,11.65337l-9.28897,-6.85926l-2.91209,11.75962l-9.09163,-4.67437c0,0 -2.53707,2.74357 -3.82027,5.14397c-1.11052,2.07738 -1.16059,8.77498 -1.16059,8.77498c0,0 -4.96727,-5.54621 -7.8139,-6.58539c-0.75579,-0.27592 -6.00959,2.67255 -9.29265,6.9985c-3.30639,4.35668 -4.64014,10.09164 -4.82007,9.97545c-1.00125,-0.64657 -4.46521,9.89991 -6.56778,3.22708c-1.34586,-4.27133 -6.17672,-8.65501 -6.11927,-16.75509c0.00528,-0.7451 -3.15214,-6.80134 -8.39046,-11.45312c-6.24742,-5.54789 -14.75503,-9.76441 -14.75503,-9.76441c0,0 9.73147,-0.72924 17.79403,0.88838c5.40968,1.08536 10.17981,4.8002 10.3373,4.62364c0.11895,-0.13339 0.90561,-8.14701 -3.96722,-14.11454c-6.29954,-7.71476 -18.65149,-13.81182 -18.65149,-13.81182c0,0 16.26008,0.14399 23.41786,7.8561c6.07671,6.54736 7.69288,16.06686 8.56712,14.89619c2.39574,-3.20797 3.58036,-12.01872 3.58036,-12.01872c0,0 10.99033,14.20499 11.13084,13.34816c1.14092,-6.95699 0.38639,-29.57177 0.38639,-29.57177l10.88986,13.0063l5.94021,-6.01225l4.67843,8.22065l10.31551,-6.67002c0,0 8.31187,3.84987 11.04129,6.86432c2.49463,2.75513 4.69431,10.51455 4.69431,10.51455z"/><path d="M385.49287,251.2295c-2.19153,3.31474 -10.58972,6.90021 -10.58972,6.90021c0,0 -6.41623,1.69758 -11.64652,1.06076c-4.71646,-0.57428 -4.98005,-3.36292 -6.37782,-3.06872c-0.7777,0.16367 -6.86262,5.10072 -6.86262,5.10072c0,0 2.03159,-9.90122 -0.25347,-12.0752c-1.70266,-1.61991 -16.46727,11.19213 -24.72235,5.15117c-2.09941,-1.01304 -4.53448,-12.47889 -4.53448,-12.47889c0,0 -5.46425,-3.01834 -8.27729,-5.51939c-3.95206,-3.51377 -12.22632,-13.03228 -12.22632,-13.03228c0,0 7.38728,3.4604 13.3294,4.1513c1.53868,0.1789 1.59522,-6.09081 -0.14075,-10.08009c-1.73598,-3.98927 -10.49307,-11.29942 -10.49307,-11.29942c0,0 11.72365,1.77853 10.76878,-2.43359c-0.95487,-4.21212 -10.51743,-14.72991 -10.51743,-14.72991c0,0 8.79022,2.13621 10.64614,1.15841c0.48613,-0.25612 -1.78419,-6.39102 -1.80251,-6.70686c-0.27969,-4.81941 4.72562,-9.1295 11.10402,-15.68131c3.57711,-3.67436 6.57854,-9.44597 9.41791,-8.46654c2.32739,0.80282 4.37934,0.06559 4.60387,4.48274c0.12025,2.36602 4.24013,8.33208 4.24013,8.33208c0,0 -5.08939,-1.59299 -6.9316,-0.85347c-1.49289,0.59928 -3.29567,4.95894 -3.29567,4.95894c0,0 -0.58493,5.78825 1.25411,8.53453c1.83902,2.74628 7.24443,2.51889 7.59293,4.67698c0.27913,1.72861 -3.00217,4.66724 -4.02284,7.79577c-1.1797,3.61597 -0.11996,7.55093 0.34444,11.21874c0.58413,4.61336 2.80685,9.27666 4.5982,12.27603c2.40802,4.03192 12.54152,-0.49046 12.54152,-0.49046l-0.65288,12.65356l13.21764,-5.62983l-1.50102,12.0842l12.91124,-7.77603c0,0 -0.06283,10.20394 1.01205,9.78039c7.06698,-2.78476 12.23435,-6.00074 12.23435,-6.00074c0,0 -2.49852,12.27053 -4.96833,16.00615z"/><path d="M357.07193,159.07737c-0.22045,-3.10167 1.91859,-5.80995 4.77769,-6.0491c2.85909,-0.23915 5.35555,2.08138 5.57599,5.18307c0.22045,3.10167 -1.91859,5.80995 -4.77769,6.0491c-2.85909,0.23915 -5.35554,-2.08138 -5.57599,-5.18307z"/></g></g></svg>