<svg version="1.1" xmlns="http://www.w3.org/2000/svg" xmlns:xlink="http://www.w3.org/1999/xlink" width="486.47242" height="366.45206" viewBox="0,0,486.47242,366.45206"><defs><linearGradient x1="229.91736" y1="170.62244" x2="265.69835" y2="170.62244" gradientUnits="userSpaceOnUse" id="color-1"><stop offset="0" stop-color="#3f2e16"/><stop offset="1" stop-color="#523e22"/></linearGradient><linearGradient x1="236.47375" y1="165.46556" x2="259.0795" y2="165.46556" gradientUnits="userSpaceOnUse" id="color-2"><stop offset="0" stop-color="#3f2e16"/><stop offset="1" stop-color="#523e22"/></linearGradient><linearGradient x1="233.2039" y1="202.38888" x2="260.94151" y2="202.38888" gradientUnits="userSpaceOnUse" id="color-3"><stop offset="0" stop-color="#3f2e16"/><stop offset="1" stop-color="#523e22"/></linearGradient></defs><g transform="translate(3.23621,3.22603)"><g data-paper-data="{&quot;isPaintingLayer&quot;:true}" fill-rule="nonzero" stroke-linejoin="miter" stroke-miterlimit="10" stroke-dasharray="" stroke-dashoffset="0" style="mix-blend-mode: normal"><path d="M-2.23621,362.22603v-364.45206h484.47242v364.45206z" fill="#3e3e3e" stroke="#000000" stroke-width="2" stroke-linecap="butt"/><path d="M259.46062,191.94788c-1.14466,-2.25756 -5.774,-7.49523 -0.58685,-10.57711c1.53808,-0.91383 9.73655,-3.43703 17.61485,-6.82089c2.41156,-1.0358 6.90644,-4.08015 8.5905,-5.04201c3.81759,-2.18045 6.03789,-1.93706 7.89393,-2.20949c2.26207,-0.33202 -11.62706,9.73055 -9.75462,9.73297c2.359,0.00304 4.70923,-2.40532 7.34784,-3.60668c3.09452,-1.40894 8.05411,0.12298 7.93846,0.39983c-1.69787,4.06431 -16.75475,7.55364 -16.58434,8.26485c0.36082,1.50587 19.19463,-2.24562 16.94412,0.69829c-3.88215,5.07826 -20.26809,4.75184 -20.43457,5.68342c-0.37615,2.10479 8.28606,1.88726 6.96003,4.30939c-1.32603,2.42213 -6.56798,2.76532 -10.66509,3.16493c-8.23826,0.80352 -13.75824,-1.02722 -15.26426,-3.9975z" data-paper-data="{&quot;index&quot;:null}" fill="#ffffff" stroke="#000000" stroke-width="1.5" stroke-linecap="butt"/><path d="M224.04042,196.19538c-4.09711,-0.39961 -9.33906,-0.7428 -10.66509,-3.16494c-1.32603,-2.42214 7.33618,-2.20459 6.96003,-4.30939c-0.16648,-0.93158 -16.55243,-0.60516 -20.43457,-5.68342c-2.25052,-2.94392 16.5833,0.80758 16.94412,-0.69829c0.17041,-0.71121 -14.88647,-4.20054 -16.58434,-8.26485c-0.11566,-0.27685 4.84393,-1.80877 7.93845,-0.39983c2.63861,1.20136 4.98884,3.60972 7.34784,3.60668c1.87244,-0.00242 -12.01669,-10.06499 -9.75462,-9.73297c1.85605,0.27242 4.07635,0.02903 7.89394,2.20949c1.68406,0.96187 6.17894,4.00621 8.59049,5.04201c7.8783,3.38385 16.07678,5.90707 17.61485,6.82089c5.18715,3.08188 0.55781,8.31954 -0.58685,10.57711c-1.50603,2.97028 -7.026,4.80102 -15.26426,3.9975z" data-paper-data="{&quot;index&quot;:null}" fill="#ffffff" stroke="#000000" stroke-width="1.5" stroke-linecap="butt"/><text transform="translate(115.78262,85.88468) scale(2.14914,2.14914)" font-size="40" xml:space="preserve" fill="#fbff00" fill-rule="nonzero" stroke="#000000" stroke-width="2" stroke-linecap="butt" stroke-linejoin="miter" stroke-miterlimit="10" stroke-dasharray="" stroke-dashoffset="0" font-family="Marker" font-weight="normal" text-anchor="start" style="mix-blend-mode: normal"><tspan x="0" dy="0">Revive</tspan></text><text transform="translate(72.52223,303.57079) scale(0.63276,0.63276)" font-size="40" xml:space="preserve" fill="#000000" fill-rule="nonzero" stroke="#000000" stroke-width="3" stroke-linecap="butt" stroke-linejoin="miter" stroke-miterlimit="10" stroke-dasharray="" stroke-dashoffset="0" font-family="Handwriting" font-weight="normal" text-anchor="start" style="mix-blend-mode: normal"><tspan x="0" dy="0">Now you can revive one with 3HP</tspan></text><text transform="translate(185.10848,338.9955) scale(0.5,0.5)" font-size="40" xml:space="preserve" fill="#000000" fill-rule="nonzero" stroke="#000000" stroke-width="2" stroke-linecap="butt" stroke-linejoin="miter" stroke-miterlimit="10" stroke-dasharray="" stroke-dashoffset="0" font-family="Handwriting" font-weight="normal" text-anchor="start" style="mix-blend-mode: normal"><tspan x="0" dy="0">Press E to close</tspan></text><path d="M233.19591,180.84341c-0.0186,-8.53618 6.44364,-15.47355 14.43381,-15.49516c7.99014,-0.02163 14.48252,6.88077 14.50111,15.41685c0.0186,8.53618 -5.56268,13.94319 -13.55281,13.96482c-7.99014,0.02163 -15.36343,-5.35036 -15.38203,-13.8865z" fill="#000000" stroke="#000000" stroke-width="2" stroke-linecap="butt"/><path d="M246.37098,180.36669c0.29927,-2.52108 2.05988,-4.29134 3.93244,-3.95405c1.87257,0.33731 3.14794,2.65444 2.84869,5.1755c-0.29927,2.52108 -2.05991,4.29134 -3.93244,3.95405c-1.87257,-0.33731 -3.14792,-2.65442 -2.84868,-5.1755z" fill="#ffffff" stroke="none" stroke-width="0" stroke-linecap="butt"/><path d="M265.69835,170.56273c0.00452,2.55169 -8.0017,4.647 -17.88231,4.67996c-9.88067,0.03295 -17.89415,-2.00888 -17.89866,-4.56059c-0.00451,-2.55169 8.0017,-4.647 17.88231,-4.67995c9.88067,-0.03295 17.89414,2.00891 17.89866,4.56058z" fill="url(#color-1)" stroke="#000000" stroke-width="1.5" stroke-linecap="butt"/><path d="M236.48137,167.3887c0.21795,-0.75136 0.67994,-1.75528 0.92819,-2.80694c0.2896,-1.22699 0.35065,-2.45578 0.35065,-2.45578c0,0 6.52915,-3.50794 10.88702,-3.51972c4.35786,-0.01181 9.81273,3.43675 9.81393,4.00066c0.00173,0.79224 0.14444,2.67811 0.60131,4.28555c0.39198,1.379 -6.05229,5.47895 -12.1131,5.43204c-5.51835,-0.04273 -10.70083,-4.13326 -10.46806,-4.93581z" fill="url(#color-2)" stroke="#000000" stroke-width="1.5" stroke-linecap="butt"/><path d="M252.86753,221.08682c0,0 -0.45435,-1.09741 -0.41714,-2.38195c0.06041,-2.08444 0.16646,-5.08482 0.30698,-6.48492c0.22791,-2.2704 0.68481,-6.82237 0.68481,-6.82237" fill="none" stroke="#000000" stroke-width="4" stroke-linecap="round"/><path d="M243.57597,221.27507c0,0 -0.42876,-1.21488 -0.36322,-2.42463c0.11295,-2.08465 0.12729,-4.948 0.22877,-5.95871c0.22692,-2.26051 0.67891,-6.7633 0.67891,-6.7633" fill="none" stroke="#000000" stroke-width="4" stroke-linecap="round"/><path d="M234.36383,208.44116c0.90311,-1.30919 1.26558,-2.58191 1.51464,-3.38615c0.15296,-0.49392 -1.67773,-1.63306 -1.70237,-2.1282c-0.06068,-1.21861 0.98333,-1.30506 1.36833,-2.45693c0.28841,-0.86293 -0.42574,-2.06315 0.06607,-2.68675c0.84722,-1.07433 0.88866,-2.09601 1.11671,-2.86712c0.26967,-0.91189 -0.15878,-1.46769 -0.3884,-2.38101c-0.33867,-1.34719 -0.6164,-3.2057 -0.6164,-3.2057c0,0 8.18248,4.05207 12.32975,4.05207c4.24884,0 11.8066,-4.36362 11.8066,-4.36362c0,0 1.02811,4.21232 0.93916,5.42728c0.37991,1.51051 -0.16553,2.32385 0.12088,3.2777c0.23811,0.79302 -1.48028,2.93851 -1.20245,3.78516c0.14461,0.44068 1.34751,1.92008 1.0351,3.32807c-0.32306,1.456 -1.97453,2.5044 -2.14769,3.17922c-0.13331,0.51943 0.6695,2.82871 0.62894,3.96938c-0.07484,2.1057 -2.89065,2.90227 -2.89065,2.90227c0,0 -0.02724,-1.40276 -3.38683,-1.59807c-2.04182,-0.11872 -5.55872,1.88621 -7.73756,1.08772c-4.87789,-1.78761 -6.00066,-0.02 -7.98625,-0.00943c-1.00292,0.00535 -1.1662,1.48753 -1.90174,1.38815c-1.09566,-0.14804 -2.66905,-1.9118 -1.93931,-4.08802c0,0 0.17745,-2.07204 0.97349,-3.22602z" fill="url(#color-3)" stroke="#000000" stroke-width="2" stroke-linecap="butt"/><path d="M251.53211,192.80496c0,0 -0.2895,1.63658 -0.28576,2.97574c0.00129,0.46882 0.3505,1.85531 0.4636,2.64838c0.10081,0.70684 -0.03464,1.59706 -0.00967,2.46441c0.01219,0.42281 -0.63897,1.10582 -0.6642,1.74507c-0.03553,0.90028 0.5485,1.79272 0.55557,2.43742c0.00632,0.57282 -0.65511,1.3501 -0.44161,2.42466c0.20808,1.04739 0.73741,2.07183 0.77362,2.56393c0.20737,2.81915 -0.8677,3.44924 -0.8677,3.44924" fill="none" stroke="#000000" stroke-width="1.5" stroke-linecap="round"/><path d="M250.5227,195.76652c0,-0.53692 0.40112,-0.97216 0.89595,-0.97216c0.49481,0 0.89593,0.43526 0.89593,0.97216c0,0.53692 -0.40112,0.97216 -0.89593,0.97216c-0.49481,0 -0.89595,-0.43526 -0.89595,-0.97216z" fill="#000000" stroke="#000000" stroke-width="2" stroke-linecap="butt"/><path d="M250.79835,200.38164c0,-0.53692 0.40114,-0.97216 0.89595,-0.97216c0.49481,0 0.89594,0.43526 0.89594,0.97216c0,0.53692 -0.40112,0.97217 -0.89594,0.97217c-0.49481,0 -0.89595,-0.43527 -0.89595,-0.97217z" fill="#000000" stroke="#000000" stroke-width="2" stroke-linecap="butt"/><path d="M250.38484,205.06794c0,-0.53692 0.40112,-0.97216 0.89593,-0.97216c0.49481,0 0.89595,0.43526 0.89595,0.97216c0,0.53692 -0.40112,0.97217 -0.89595,0.97217c-0.49481,0 -0.89593,-0.43527 -0.89593,-0.97217z" fill="#000000" stroke="#000000" stroke-width="2" stroke-linecap="butt"/><path d="M250.84759,209.79347c0,-0.53692 0.40112,-0.97217 0.89593,-0.97217c0.49481,0 0.89595,0.43527 0.89595,0.97217c0,0.53692 -0.40114,0.97216 -0.89595,0.97216c-0.49481,0 -0.89593,-0.43526 -0.89593,-0.97216z" fill="#000000" stroke="#000000" stroke-width="2" stroke-linecap="butt"/><path d="M254.3969,179.94664c0.27418,-2.5211 1.88719,-4.29133 3.60277,-3.95405c1.7156,0.33729 2.88404,2.65444 2.60985,5.1755c-0.27418,2.5211 -1.88721,4.29133 -3.60278,3.95405c-1.71561,-0.33729 -2.88402,-2.65444 -2.60985,-5.17548z" fill="#ffffff" stroke="none" stroke-width="0" stroke-linecap="butt"/><path d="M259.37615,150.15043c0,2.76143 -5.8203,5 -13,5c-7.1797,0 -13,-2.23857 -13,-5c0,-2.76143 5.8203,-5 13,-5c7.1797,0 13,2.23857 13,5z" fill="none" stroke="#fbff00" stroke-width="1.5" stroke-linecap="butt"/><path d="M203.19293,117.93402v-22h91.5045v22z" fill="#3e3e3e" stroke="#000000" stroke-width="0" stroke-linecap="butt"/><path d="M204.68663,96.1464l5.95228,-8.03557l8.03557,5.95228l-5.95228,8.03557z" fill="#3e3e3e" stroke="#000000" stroke-width="0" stroke-linecap="butt"/><path d="M276.81307,99.07786l6.16675,-10.87296l9.5682,5.42675l-6.16676,10.87295z" fill="#3e3e3e" stroke="#000000" stroke-width="0" stroke-linecap="butt"/><path d="M374.31031,74.63977l-4.28417,-4.88835l9.02463,-7.90923l4.28417,4.88835z" fill="#3e3e3e" stroke="#000000" stroke-width="0" stroke-linecap="butt"/><path d="M290.18055,45.99098v-6.5h2.5v6.5z" fill="#3e3e3e" stroke="none" stroke-width="0" stroke-linecap="butt"/><path d="M285.29364,61.97608c0,0 1.28056,-2.03272 2.00218,-3.13363c1.03719,-1.58237 3.62529,-5.45177 3.62529,-5.45177l0.81302,0.78187l-4.29413,9.0854z" fill="#3e3e3e" stroke="none" stroke-width="0" stroke-linecap="butt"/><path d="M284.85265,67.68664l3.11337,-9.50299l2.37575,0.77834l-3.11337,9.503z" fill="#3e3e3e" stroke="none" stroke-width="0" stroke-linecap="butt"/><path d="M281.77953,78.91182c0,0 -3.66871,1.19391 -3.23484,-0.45451c0.41361,-1.57144 5.78017,-9.21613 5.78017,-9.21613l2.41766,0.63633l-2.54533,9.67065z" fill="#3e3e3e" stroke="none" stroke-width="0" stroke-linecap="butt"/><path d="M221.19443,303.06951c0.27614,0 0.5,0.22386 0.5,0.5c0,0.27614 -0.22386,0.5 -0.5,0.5c-0.27614,0 -0.5,-0.22386 -0.5,-0.5c0,-0.27614 0.22386,-0.5 0.5,-0.5z" fill="#000000" stroke="#000000" stroke-width="1.5" stroke-linecap="butt"/></g></g></svg>