<svg version="1.1" xmlns="http://www.w3.org/2000/svg" xmlns:xlink="http://www.w3.org/1999/xlink" width="45.89646" height="45.89646" viewBox="0,0,45.89646,45.89646"><defs><radialGradient cx="240" cy="180" r="22.94823" gradientUnits="userSpaceOnUse" id="color-1"><stop offset="0" stop-color="#1b8000"/><stop offset="1" stop-color="#1b8000" stop-opacity="0"/></radialGradient></defs><g transform="translate(-217.05177,-157.05177)"><g data-paper-data="{&quot;isPaintingLayer&quot;:true}" fill-rule="nonzero" stroke-linejoin="miter" stroke-miterlimit="10" stroke-dasharray="" stroke-dashoffset="0" style="mix-blend-mode: normal"><path d="M217.05177,180c0,-12.67396 10.27427,-22.94823 22.94823,-22.94823c12.67396,0 22.94823,10.27427 22.94823,22.94823c0,12.67396 -10.27427,22.94823 -22.94823,22.94823c-12.67396,0 -22.94823,-10.27427 -22.94823,-22.94823z" data-paper-data="{&quot;index&quot;:null}" fill="url(#color-1)" stroke="none" stroke-width="NaN" stroke-linecap="butt"/><g data-paper-data="{&quot;index&quot;:null}" fill="none"><g stroke="#000000" stroke-width="6"><path d="M236.56562,182.73356c0,0 0,-7.54836 0,-10.87678c0,-2.1105 1.32764,-3.3161 2.78551,-3.3161c1.65603,0 6.63218,0 6.63218,0" stroke-linecap="round"/><path d="M234.31067,187.24343c0,-2.564 2.07853,-4.64252 4.64253,-4.64252c2.56399,0 4.64252,2.07852 4.64252,4.64252c0,2.564 -2.07852,4.64253 -4.64252,4.64253c-2.564,-0.00001 -4.64253,-2.07853 -4.64253,-4.64253z" stroke-linecap="butt"/><path d="M244.92216,175.83608h-6.49954" stroke-linecap="round"/></g><g stroke="#32ff00" stroke-width="3.5"><path d="M236.64477,182.68006c0,0 0,-7.54835 0,-10.87678c0,-2.1105 1.32765,-3.31609 2.78552,-3.31609c1.65603,0 6.63218,0 6.63218,0" stroke-linecap="round"/><path d="M234.38982,187.18994c0,-2.564 2.07853,-4.64253 4.64253,-4.64253c2.564,0 4.64253,2.07853 4.64253,4.64253c0,2.564 -2.07853,4.64253 -4.64253,4.64253c-2.564,0 -4.64253,-2.07853 -4.64253,-4.64253z" stroke-linecap="butt"/><path d="M245.00132,175.78259h-6.49954" stroke-linecap="round"/></g></g></g></g></svg>