<svg version="1.1" xmlns="http://www.w3.org/2000/svg" xmlns:xlink="http://www.w3.org/1999/xlink" width="96.83146" height="203.27827" viewBox="0,0,96.83146,203.27827"><defs><linearGradient x1="248.32933" y1="231.40909" x2="274.33729" y2="231.40909" gradientUnits="userSpaceOnUse" id="color-1"><stop offset="0" stop-color="#0d0d0d"/><stop offset="1" stop-color="#181818"/></linearGradient><linearGradient x1="256.43283" y1="196.94278" x2="280.65706" y2="195.47587" gradientUnits="userSpaceOnUse" id="color-2"><stop offset="0" stop-color="#0d0d0d"/><stop offset="1" stop-color="#181818"/></linearGradient><linearGradient x1="254.68562" y1="213.94259" x2="277.80397" y2="213.94259" gradientUnits="userSpaceOnUse" id="color-3"><stop offset="0" stop-color="#050505"/><stop offset="1" stop-color="#0b0b0b"/></linearGradient><linearGradient x1="246.98809" y1="246.13273" x2="272.1668" y2="246.13273" gradientUnits="userSpaceOnUse" id="color-4"><stop offset="0" stop-color="#050505"/><stop offset="1" stop-color="#0b0b0b"/></linearGradient><linearGradient x1="248.92443" y1="231.48456" x2="273.12345" y2="231.48456" gradientUnits="userSpaceOnUse" id="color-5"><stop offset="0" stop-color="#050505"/><stop offset="1" stop-color="#0b0b0b"/></linearGradient><linearGradient x1="251.6343" y1="197.3657" x2="278.35769" y2="197.3657" gradientUnits="userSpaceOnUse" id="color-6"><stop offset="0" stop-color="#050505"/><stop offset="1" stop-color="#0b0b0b"/></linearGradient><linearGradient x1="223.32933" y1="230.90909" x2="249.33731" y2="230.90909" gradientUnits="userSpaceOnUse" id="color-7"><stop offset="0" stop-color="#0d0d0d"/><stop offset="1" stop-color="#181818"/></linearGradient><linearGradient x1="230.95923" y1="191.92546" x2="257.88068" y2="194.21495" gradientUnits="userSpaceOnUse" id="color-8"><stop offset="0" stop-color="#0d0d0d"/><stop offset="1" stop-color="#181818"/></linearGradient><linearGradient x1="228.68562" y1="213.44259" x2="251.804" y2="213.44259" gradientUnits="userSpaceOnUse" id="color-9"><stop offset="0" stop-color="#050505"/><stop offset="1" stop-color="#0b0b0b"/></linearGradient><linearGradient x1="221.98809" y1="245.63273" x2="247.16682" y2="245.63273" gradientUnits="userSpaceOnUse" id="color-10"><stop offset="0" stop-color="#050505"/><stop offset="1" stop-color="#0b0b0b"/></linearGradient><linearGradient x1="223.92443" y1="230.98456" x2="248.12348" y2="230.98456" gradientUnits="userSpaceOnUse" id="color-11"><stop offset="0" stop-color="#050505"/><stop offset="1" stop-color="#0b0b0b"/></linearGradient><linearGradient x1="229.1343" y1="197.3657" x2="255.85771" y2="197.3657" gradientUnits="userSpaceOnUse" id="color-12"><stop offset="0" stop-color="#050505"/><stop offset="1" stop-color="#0b0b0b"/></linearGradient><linearGradient x1="221.98541" y1="240.96969" x2="241.07558" y2="240.96969" gradientUnits="userSpaceOnUse" id="color-13"><stop offset="0" stop-color="#0d0d0d"/><stop offset="1" stop-color="#181818"/></linearGradient><linearGradient x1="247.18541" y1="241.36969" x2="266.27557" y2="241.36969" gradientUnits="userSpaceOnUse" id="color-14"><stop offset="0" stop-color="#0d0d0d"/><stop offset="1" stop-color="#181818"/></linearGradient><linearGradient x1="274.7946" y1="147.31288" x2="294.41656" y2="147.31288" gradientUnits="userSpaceOnUse" id="color-15"><stop offset="0" stop-color="#0d0d0d"/><stop offset="1" stop-color="#181818"/></linearGradient><linearGradient x1="229.31413" y1="175.99696" x2="279.38772" y2="175.99696" gradientUnits="userSpaceOnUse" id="color-16"><stop offset="0" stop-color="#050505"/><stop offset="1" stop-color="#0b0b0b"/></linearGradient><linearGradient x1="225.21876" y1="159.2986" x2="276.4119" y2="159.2986" gradientUnits="userSpaceOnUse" id="color-17"><stop offset="0" stop-color="#050505"/><stop offset="1" stop-color="#0b0b0b"/></linearGradient><linearGradient x1="223.65152" y1="147.59214" x2="278.09778" y2="147.59214" gradientUnits="userSpaceOnUse" id="color-18"><stop offset="0" stop-color="#050505"/><stop offset="1" stop-color="#0b0b0b"/></linearGradient><linearGradient x1="234.78458" y1="137.01033" x2="273.6952" y2="137.01033" gradientUnits="userSpaceOnUse" id="color-19"><stop offset="0" stop-color="#050505"/><stop offset="1" stop-color="#0b0b0b"/></linearGradient><linearGradient x1="232.0472" y1="116.90296" x2="264.7697" y2="116.90296" gradientUnits="userSpaceOnUse" id="color-20"><stop offset="0" stop-color="#050505"/><stop offset="1" stop-color="#0b0b0b"/></linearGradient><linearGradient x1="245.60317" y1="103.9355" x2="267.5446" y2="103.9355" gradientUnits="userSpaceOnUse" id="color-21"><stop offset="0" stop-color="#050505"/><stop offset="1" stop-color="#0b0b0b"/></linearGradient><linearGradient x1="266.27306" y1="139.04883" x2="293.02288" y2="131.02584" gradientUnits="userSpaceOnUse" id="color-22"><stop offset="0" stop-color="#050505"/><stop offset="1" stop-color="#0b0b0b"/></linearGradient><linearGradient x1="230.61655" y1="160.50941" x2="213.05079" y2="134.49865" gradientUnits="userSpaceOnUse" id="color-23"><stop offset="0" stop-color="#0d0d0d"/><stop offset="1" stop-color="#181818"/></linearGradient><linearGradient x1="201.39684" y1="139.83973" x2="238.0559" y2="131.61661" gradientUnits="userSpaceOnUse" id="color-24"><stop offset="0" stop-color="#050505"/><stop offset="1" stop-color="#0b0b0b"/></linearGradient><linearGradient x1="231.43492" y1="174.53316" x2="276.38119" y2="174.53316" gradientUnits="userSpaceOnUse" id="color-25"><stop offset="0" stop-color="#0d0d0d"/><stop offset="1" stop-color="#181818"/></linearGradient><linearGradient x1="260.17631" y1="116.86845" x2="257.22852" y2="124.51949" gradientUnits="userSpaceOnUse" id="color-26"><stop offset="0" stop-color="#ff0000"/><stop offset="1" stop-color="#b50a0a"/></linearGradient><radialGradient cx="258.84841" cy="121.01184" r="13.89578" gradientUnits="userSpaceOnUse" id="color-27"><stop offset="0" stop-color="#b50a0a"/><stop offset="1" stop-color="#b50a0a" stop-opacity="0"/></radialGradient><linearGradient x1="245.49404" y1="164.88239" x2="241.09291" y2="142.49044" gradientUnits="userSpaceOnUse" id="color-28"><stop offset="0" stop-color="#0d0d0d"/><stop offset="1" stop-color="#181818"/></linearGradient><linearGradient x1="226.74461" y1="167.26362" x2="239.32907" y2="146.50154" gradientUnits="userSpaceOnUse" id="color-29"><stop offset="0" stop-color="#050505"/><stop offset="1" stop-color="#0b0b0b"/></linearGradient><linearGradient x1="282.93199" y1="145.39539" x2="276.03681" y2="161.66749" gradientUnits="userSpaceOnUse" id="color-30"><stop offset="0" stop-color="#0d0d0d"/><stop offset="1" stop-color="#181818"/></linearGradient><linearGradient x1="297.85178" y1="168.74956" x2="284.17404" y2="151.69848" gradientUnits="userSpaceOnUse" id="color-31"><stop offset="0" stop-color="#050505"/><stop offset="1" stop-color="#0b0b0b"/></linearGradient><radialGradient cx="255.45239" cy="252.60344" r="12.91056" gradientUnits="userSpaceOnUse" id="color-32"><stop offset="0" stop-color="#b50a0a"/><stop offset="1" stop-color="#b50a0a" stop-opacity="0"/></radialGradient><radialGradient cx="255.51006" cy="248.74544" r="12.91057" gradientUnits="userSpaceOnUse" id="color-33"><stop offset="0" stop-color="#b50a0a"/><stop offset="1" stop-color="#b50a0a" stop-opacity="0"/></radialGradient><radialGradient cx="255.79039" cy="244.63204" r="12.91057" gradientUnits="userSpaceOnUse" id="color-34"><stop offset="0" stop-color="#b50a0a"/><stop offset="1" stop-color="#b50a0a" stop-opacity="0"/></radialGradient><radialGradient cx="255.84809" cy="240.77396" r="12.91057" gradientUnits="userSpaceOnUse" id="color-35"><stop offset="0" stop-color="#b50a0a"/><stop offset="1" stop-color="#b50a0a" stop-opacity="0"/></radialGradient><radialGradient cx="255.88651" cy="238.20197" r="12.91057" gradientUnits="userSpaceOnUse" id="color-36"><stop offset="0" stop-color="#b50a0a"/><stop offset="1" stop-color="#b50a0a" stop-opacity="0"/></radialGradient><radialGradient cx="255.94416" cy="234.34399" r="12.91057" gradientUnits="userSpaceOnUse" id="color-37"><stop offset="0" stop-color="#b50a0a"/><stop offset="1" stop-color="#b50a0a" stop-opacity="0"/></radialGradient><radialGradient cx="256.2245" cy="230.23056" r="12.91057" gradientUnits="userSpaceOnUse" id="color-38"><stop offset="0" stop-color="#b50a0a"/><stop offset="1" stop-color="#b50a0a" stop-opacity="0"/></radialGradient><radialGradient cx="256.28221" cy="226.37249" r="12.91057" gradientUnits="userSpaceOnUse" id="color-39"><stop offset="0" stop-color="#b50a0a"/><stop offset="1" stop-color="#b50a0a" stop-opacity="0"/></radialGradient><radialGradient cx="256.17541" cy="282.00419" r="12.91057" gradientUnits="userSpaceOnUse" id="color-40"><stop offset="0" stop-color="#b50a0a"/><stop offset="1" stop-color="#b50a0a" stop-opacity="0"/></radialGradient><radialGradient cx="255.02123" cy="278.08937" r="12.91057" gradientUnits="userSpaceOnUse" id="color-41"><stop offset="0" stop-color="#b50a0a"/><stop offset="1" stop-color="#b50a0a" stop-opacity="0"/></radialGradient><radialGradient cx="256.10949" cy="274.01379" r="12.91057" gradientUnits="userSpaceOnUse" id="color-42"><stop offset="0" stop-color="#b50a0a"/><stop offset="1" stop-color="#b50a0a" stop-opacity="0"/></radialGradient><radialGradient cx="254.75333" cy="270.08951" r="12.91056" gradientUnits="userSpaceOnUse" id="color-43"><stop offset="0" stop-color="#b50a0a"/><stop offset="1" stop-color="#b50a0a" stop-opacity="0"/></radialGradient><radialGradient cx="255.70059" cy="269.72232" r="12.91057" gradientUnits="userSpaceOnUse" id="color-44"><stop offset="0" stop-color="#b50a0a"/><stop offset="1" stop-color="#b50a0a" stop-opacity="0"/></radialGradient><radialGradient cx="254.83929" cy="263.87529" r="12.91057" gradientUnits="userSpaceOnUse" id="color-45"><stop offset="0" stop-color="#b50a0a"/><stop offset="1" stop-color="#b50a0a" stop-opacity="0"/></radialGradient><radialGradient cx="256.01842" cy="262.18231" r="12.91057" gradientUnits="userSpaceOnUse" id="color-46"><stop offset="0" stop-color="#b50a0a"/><stop offset="1" stop-color="#b50a0a" stop-opacity="0"/></radialGradient><radialGradient cx="255.18745" cy="255.68803" r="12.91057" gradientUnits="userSpaceOnUse" id="color-47"><stop offset="0" stop-color="#b50a0a"/><stop offset="1" stop-color="#b50a0a" stop-opacity="0"/></radialGradient><radialGradient cx="257.21964" cy="192.9399" r="12.91057" gradientUnits="userSpaceOnUse" id="color-48"><stop offset="0" stop-color="#b50a0a"/><stop offset="1" stop-color="#b50a0a" stop-opacity="0"/></radialGradient><radialGradient cx="257.2773" cy="189.08189" r="12.91057" gradientUnits="userSpaceOnUse" id="color-49"><stop offset="0" stop-color="#b50a0a"/><stop offset="1" stop-color="#b50a0a" stop-opacity="0"/></radialGradient><radialGradient cx="257.5576" cy="184.96855" r="12.91057" gradientUnits="userSpaceOnUse" id="color-50"><stop offset="0" stop-color="#b50a0a"/><stop offset="1" stop-color="#b50a0a" stop-opacity="0"/></radialGradient><radialGradient cx="257.61525" cy="181.11056" r="12.91058" gradientUnits="userSpaceOnUse" id="color-51"><stop offset="0" stop-color="#b50a0a"/><stop offset="1" stop-color="#b50a0a" stop-opacity="0"/></radialGradient><radialGradient cx="257.65371" cy="178.53847" r="12.91057" gradientUnits="userSpaceOnUse" id="color-52"><stop offset="0" stop-color="#b50a0a"/><stop offset="1" stop-color="#b50a0a" stop-opacity="0"/></radialGradient><radialGradient cx="257.71137" cy="174.6805" r="12.91057" gradientUnits="userSpaceOnUse" id="color-53"><stop offset="0" stop-color="#b50a0a"/><stop offset="1" stop-color="#b50a0a" stop-opacity="0"/></radialGradient><radialGradient cx="257.99172" cy="170.56708" r="12.91057" gradientUnits="userSpaceOnUse" id="color-54"><stop offset="0" stop-color="#b50a0a"/><stop offset="1" stop-color="#b50a0a" stop-opacity="0"/></radialGradient><radialGradient cx="258.04936" cy="166.70909" r="12.91057" gradientUnits="userSpaceOnUse" id="color-55"><stop offset="0" stop-color="#b50a0a"/><stop offset="1" stop-color="#b50a0a" stop-opacity="0"/></radialGradient><radialGradient cx="256.12488" cy="222.25545" r="12.91058" gradientUnits="userSpaceOnUse" id="color-56"><stop offset="0" stop-color="#b50a0a"/><stop offset="1" stop-color="#b50a0a" stop-opacity="0"/></radialGradient><radialGradient cx="256.18254" cy="218.39745" r="12.91057" gradientUnits="userSpaceOnUse" id="color-57"><stop offset="0" stop-color="#b50a0a"/><stop offset="1" stop-color="#b50a0a" stop-opacity="0"/></radialGradient><radialGradient cx="256.46288" cy="214.28402" r="12.91057" gradientUnits="userSpaceOnUse" id="color-58"><stop offset="0" stop-color="#b50a0a"/><stop offset="1" stop-color="#b50a0a" stop-opacity="0"/></radialGradient><radialGradient cx="256.52052" cy="210.42603" r="12.91057" gradientUnits="userSpaceOnUse" id="color-59"><stop offset="0" stop-color="#b50a0a"/><stop offset="1" stop-color="#b50a0a" stop-opacity="0"/></radialGradient><radialGradient cx="256.55901" cy="207.85398" r="12.91058" gradientUnits="userSpaceOnUse" id="color-60"><stop offset="0" stop-color="#b50a0a"/><stop offset="1" stop-color="#b50a0a" stop-opacity="0"/></radialGradient><radialGradient cx="256.61666" cy="203.99597" r="12.91057" gradientUnits="userSpaceOnUse" id="color-61"><stop offset="0" stop-color="#b50a0a"/><stop offset="1" stop-color="#b50a0a" stop-opacity="0"/></radialGradient><radialGradient cx="256.897" cy="199.88256" r="12.91057" gradientUnits="userSpaceOnUse" id="color-62"><stop offset="0" stop-color="#b50a0a"/><stop offset="1" stop-color="#b50a0a" stop-opacity="0"/></radialGradient><radialGradient cx="256.95466" cy="196.02456" r="12.91057" gradientUnits="userSpaceOnUse" id="color-63"><stop offset="0" stop-color="#b50a0a"/><stop offset="1" stop-color="#b50a0a" stop-opacity="0"/></radialGradient><linearGradient x1="261.45545" y1="226.5458" x2="253.21997" y2="226.16013" gradientUnits="userSpaceOnUse" id="color-64"><stop offset="0" stop-color="#400000"/><stop offset="1" stop-color="#ff0000"/></linearGradient><linearGradient x1="260.06806" y1="167.18028" x2="260.27644" y2="162.7305" gradientUnits="userSpaceOnUse" id="color-65"><stop offset="0" stop-color="#0d0d0d"/><stop offset="1" stop-color="#181818"/></linearGradient><linearGradient x1="263.90036" y1="160.60406" x2="268.22898" y2="142.55232" gradientUnits="userSpaceOnUse" id="color-66"><stop offset="0" stop-color="#050505"/><stop offset="1" stop-color="#0b0b0b"/></linearGradient><linearGradient x1="257.88747" y1="158.04963" x2="257.6801" y2="136.68697" gradientUnits="userSpaceOnUse" id="color-67"><stop offset="0" stop-color="#050505"/><stop offset="1" stop-color="#0b0b0b"/></linearGradient></defs><g transform="translate(-202.03586,-93.94061)"><g data-paper-data="{&quot;isPaintingLayer&quot;:true}" fill-rule="nonzero" stroke-linejoin="miter" stroke-miterlimit="10" stroke-dasharray="" stroke-dashoffset="0" style="mix-blend-mode: normal"><path d="M248.32933,247.2364c0,0 2.07196,-9.30716 3.85733,-14.10013c2.17321,-5.83426 4.3477,-19.69113 4.3477,-19.69113c0,0 9.12123,-1.06136 11.26208,-0.25779c3.28691,1.23373 6.54087,6.94003 6.54087,6.94003c0,0 -6.2958,9.9344 -8.55943,15.70563c-1.08765,2.77304 -3.75473,8.89458 -4.92686,11.50795c-0.89798,2.00208 0.3869,2.59056 0.3869,2.59056c0,0 -5.6639,-2.51847 -8.05963,-3.12651c-2.16218,-0.54875 -4.84894,0.43137 -4.84894,0.43137z" fill="url(#color-1)" stroke="#000000" stroke-width="2" stroke-linecap="butt"/><path d="M255.90066,212.92542l-0.326,-31.97194l21.38445,-1.13206l-2.25607,31.87078z" fill="url(#color-2)" stroke="#000000" stroke-width="2" stroke-linecap="butt"/><path d="M260.32763,209.87638c2.19289,-0.90515 4.79846,-2.47105 7.47357,-2.78793c5.42971,-0.64317 8.74117,-0.47166 9.66315,3.91441c0.92198,4.38607 0.21212,9.38818 -5.21759,10.03134c-4.20938,0.4986 -8.86426,-3.85799 -11.64505,-6.87412c-0.32284,-0.35017 -4.07725,0.55348 -5.57462,-0.06951c-0.56679,-0.2358 -0.25091,-1.3674 -0.2764,-1.48866c-0.46774,-2.22513 3.31887,-1.79349 5.57694,-2.72553z" data-paper-data="{&quot;index&quot;:null}" fill="url(#color-3)" stroke="#000000" stroke-width="2" stroke-linecap="butt"/><path d="M247.4478,253.18743l-0.45973,-7.88836l2.57823,-6.4497l13.97429,2.9044l0.13771,3.18065c0,0 7.27072,5.05523 8.1505,5.19207c1.33914,0.20829 -1.73314,3.2896 -1.73314,3.2896z" fill="url(#color-4)" stroke="#000000" stroke-width="2" stroke-linecap="butt"/><path d="M253.30462,221.1233c0,0 7.32375,-0.14216 10.59776,0.51112c3.33128,0.66471 9.22112,3.44346 9.22112,3.44346l-7.46756,16.78102c0,0 -6.40088,-0.42925 -9.32051,-1.15302c-2.62642,-0.65106 -7.41097,-2.99461 -7.41097,-2.99461z" fill="url(#color-5)" stroke="#000000" stroke-width="2" stroke-linecap="butt"/><path d="M252.32244,202.80135l-0.68814,-5.29685l0.69148,-5.95494c0,0 9.01627,-1.18614 13.11628,-1.16787c4.51333,0.02011 12.84305,1.28353 12.84305,1.28353l0.07267,5.81168l-1.73131,5.16896c0,0 -7.71049,1.67797 -11.73785,1.70374c-4.07344,0.02606 -12.56614,-1.54824 -12.56614,-1.54824z" fill="url(#color-6)" stroke="#000000" stroke-width="2" stroke-linecap="butt"/><g><path d="M216.55758,225.39565l52.53615,-114.7469l11.87672,5.66982l-52.53615,114.74691c0,0 -5.13711,2.6005 -8.0106,1.22873c-2.87349,-1.37177 -3.86612,-6.89855 -3.86612,-6.89855z" fill="#0d0d0d" stroke="#000000" stroke-width="2.5" stroke-linecap="butt"/><path d="M255.29665,172.11773l-7.20177,-3.33553l12.89739,-27.84686l4.13357,-1.58417l7.55385,-16.30957l-1.64904,-4.172l-4.22396,-1.82371l2.08759,-4.71608l11.42707,5.09812z" fill="#050505" stroke="#000000" stroke-width="2.5" stroke-linecap="round"/><path d="M265.34224,111.52332c0,0 -0.40317,-1.69388 -0.03147,-2.48904c0.3717,-0.79516 2.00437,-1.73149 2.00437,-1.73149l18.83486,8.64396c0,0 0.38908,1.72406 -0.03654,2.63458c-0.42562,0.91052 -1.93635,1.58594 -1.93635,1.58594z" fill="#000000" stroke="none" stroke-width="0" stroke-linecap="butt"/><path d="M285.101,117.57664l1.4796,7.30806l-3.42279,7.80931c0,0 -2.46812,-0.11636 -3.60999,-0.64522c-1.29898,-0.60163 -3.77348,-2.77446 -3.77348,-2.77446" fill="none" stroke="#000000" stroke-width="3.5" stroke-linecap="round"/><path d="M281.96875,126.42242c0,0 -1.80801,0.68796 -2.73306,0.68428c-1.01281,-0.00403 -3.10442,-0.7075 -3.10442,-0.7075" fill="none" stroke="#000000" stroke-width="2.5" stroke-linecap="round"/><path d="M241.28251,171.93729l5.3354,2.47111l-6.36998,13.75347l-7.83834,2.77755z" fill="#050505" stroke="#000000" stroke-width="2.5" stroke-linecap="round"/><path d="M228.14531,231.39268c0,0 -5.11706,2.79324 -7.9861,1.2012c-2.86904,-1.59205 -3.46032,-7.55288 -3.46032,-7.55288l0.63808,-1.38138l4.30192,1.98732l4.40195,-1.36953l6.91124,-14.9221l-1.55944,-4.25021l4.00869,-8.6552l1.73478,-0.63651l8.31259,-2.55789z" fill="#070707" stroke="#000000" stroke-width="2.5" stroke-linecap="round"/></g><path d="M223.32933,246.7364c0,0 2.07196,-9.30716 3.85733,-14.10013c2.17321,-5.83426 4.3477,-19.69113 4.3477,-19.69113c0,0 9.12123,-1.06136 11.26208,-0.25779c3.28691,1.23373 6.54087,6.94003 6.54087,6.94003c0,0 -6.2958,9.9344 -8.55943,15.70563c-1.08765,2.77304 -3.75473,8.89458 -4.92686,11.50795c-0.89798,2.00208 0.3869,2.59056 0.3869,2.59056c0,0 -5.6639,-2.51847 -8.05963,-3.12651c-2.16218,-0.54875 -4.84894,0.43137 -4.84894,0.43137z" fill="url(#color-7)" stroke="#000000" stroke-width="2" stroke-linecap="butt"/><path d="M229.37879,210.50942l3.28276,-37.15756l26.76711,2.66075l-11.8916,35.75397z" fill="url(#color-8)" stroke="#000000" stroke-width="2" stroke-linecap="butt"/><path d="M234.32764,209.37638c2.19289,-0.90515 4.79846,-2.47105 7.47357,-2.78793c5.42971,-0.64317 8.74117,-0.47166 9.66315,3.91441c0.92198,4.38607 0.21212,9.38818 -5.21759,10.03134c-4.20938,0.4986 -8.86426,-3.85799 -11.64505,-6.87412c-0.32284,-0.35017 -4.07725,0.55348 -5.57462,-0.06951c-0.56679,-0.2358 -0.25091,-1.3674 -0.2764,-1.48866c-0.46774,-2.22513 3.31887,-1.79349 5.57694,-2.72553z" data-paper-data="{&quot;index&quot;:null}" fill="url(#color-9)" stroke="#000000" stroke-width="2" stroke-linecap="butt"/><path d="M222.4478,252.68743l-0.45973,-7.88836l2.57823,-6.4497l13.97429,2.9044l0.13771,3.18065c0,0 7.27072,5.05523 8.1505,5.19207c1.33914,0.20829 -1.73314,3.2896 -1.73314,3.2896z" fill="url(#color-10)" stroke="#000000" stroke-width="2" stroke-linecap="butt"/><path d="M228.30462,220.6233c0,0 7.32375,-0.14216 10.59776,0.51112c3.33128,0.66471 9.22112,3.44346 9.22112,3.44346l-7.46756,16.78102c0,0 -6.40088,-0.42925 -9.32051,-1.15302c-2.62642,-0.65106 -7.41097,-2.99461 -7.41097,-2.99461z" fill="url(#color-11)" stroke="#000000" stroke-width="2" stroke-linecap="butt"/><path d="M229.82244,202.80135l-0.68814,-5.29685l0.69148,-5.95494c0,0 9.01627,-1.18614 13.11628,-1.16787c4.51333,0.02011 12.84305,1.28353 12.84305,1.28353l0.07267,5.81168l-1.73131,5.16896c0,0 -7.71049,1.67797 -11.73785,1.70374c-4.07344,0.02606 -12.56614,-1.54824 -12.56614,-1.54824z" fill="url(#color-12)" stroke="#000000" stroke-width="2" stroke-linecap="butt"/><path d="M233.50815,240.09439c2.55065,0.35142 7.06808,0.23899 7.06808,0.23899c0,0 0.59389,1.50881 0.48639,2.28905c-0.09993,0.7253 -0.85125,1.57395 -0.85125,1.57395c0,0 -5.10807,-0.07574 -7.86863,-0.45608c-3.01867,-0.4159 -9.33112,-2.47468 -9.33112,-2.47468c0,0 -1.13265,-1.62438 -1.01803,-2.45633c0.08289,-0.6016 1.8636,-1.06628 1.8636,-1.06628c0,0 6.51932,1.91993 9.65095,2.35139z" data-paper-data="{&quot;index&quot;:null}" fill="url(#color-13)" stroke="#000000" stroke-width="2" stroke-linecap="butt"/><path d="M258.70815,240.49439c2.55065,0.35142 7.06808,0.23899 7.06808,0.23899c0,0 0.59389,1.50881 0.48639,2.28905c-0.09993,0.7253 -0.85125,1.57395 -0.85125,1.57395c0,0 -5.10807,-0.07574 -7.86863,-0.45608c-3.01867,-0.4159 -9.33112,-2.47468 -9.33112,-2.47468c0,0 -1.13265,-1.62438 -1.01803,-2.45633c0.08289,-0.6016 1.8636,-1.06628 1.8636,-1.06628c0,0 6.51932,1.91993 9.65095,2.35139z" data-paper-data="{&quot;index&quot;:null}" fill="url(#color-14)" stroke="#000000" stroke-width="2" stroke-linecap="butt"/><path d="M274.79593,137.99566c0.08089,-6.92623 7.78407,-6.42538 12.89255,-6.33065c5.10847,0.09474 6.80635,19.30764 6.72544,26.23388c-0.0809,6.92623 -5.90814,4.83195 -11.01661,4.73721c-5.10847,-0.09472 -8.68229,-17.71419 -8.60138,-24.64044z" data-paper-data="{&quot;index&quot;:null}" fill="url(#color-15)" stroke="#000000" stroke-width="2" stroke-linecap="butt"/><path d="M229.31413,185.34669l4.00039,-18.52536l39.31412,-2.06721l6.75928,20.59256c0,0 -12.04391,2.39249 -13.0729,1.7983c-1.12221,-0.64802 -3.86044,-13.29454 -4.49228,-13.18316c-1.00223,0.17666 -1.77827,13.08135 -2.90801,13.14121c-4.84922,0.25688 -10.05175,-0.04691 -12.56447,-0.04691c-9.23661,0 -17.03613,-1.70943 -17.03613,-1.70943z" fill="url(#color-16)" stroke="#000000" stroke-width="2" stroke-linecap="butt"/><path d="M276.32718,153.94189c0.41549,2.09214 -0.77823,0.21406 -1.8017,4.12045c-0.27856,1.06328 0.38855,11.18137 0.02358,12.1099c-1.30274,3.31458 -11.53288,1.66588 -11.53288,1.66588c0,0 -10.28101,0.68487 -17.71984,-0.03111c-7.0427,-0.67785 -12.49059,-1.60759 -12.49059,-1.60759c0,0 -2.3633,-5.19414 -3.38571,-7.68453c-1.02241,-2.49039 -3.19977,-7.14184 -4.20131,-11.34106c0,0 21.25847,-3.49429 36.50433,-4.77394c8.31938,-0.69827 14.29661,5.99373 14.6041,7.542z" fill="url(#color-17)" stroke="#000000" stroke-width="2" stroke-linecap="butt"/><path d="M278.00842,145.12294c0.41549,2.09213 -0.66581,10.24573 -2.21552,11.88678c-0.6796,0.71966 0.34261,3.84632 -1.74014,4.78794c-4.01228,1.81397 -12.57056,5.246 -12.57056,5.246c0,0 -15.46288,-3.80982 -24.69227,-4.77925c-5.59527,-0.58772 -1.11313,-3.6446 -4.47902,-5.17345c-1.78763,-0.81199 -6.23974,-1.18899 -6.38254,-1.47929c-1.20257,-2.44462 -0.78574,-0.66989 -1.78729,-4.86913c-1.05996,-4.44417 -0.06891,-3.86697 -0.06891,-6.75865c0,-8.52127 9.31125,-15.84333 9.31125,-15.84333l38.99422,5.21908c0,0 4.75979,7.37776 5.63076,11.76331z" fill="url(#color-18)" stroke="#000000" stroke-width="2" stroke-linecap="butt"/><path d="M240.48766,141.97286c-1.59411,-0.0758 -4.8926,-0.15082 -5.55365,-1.24238c-0.74698,-1.23344 1.54076,-10.86086 1.70754,-11.6386c0.36477,-1.7009 22.92839,-0.58068 26.05515,-0.58068c1.6816,0 13.86237,3.6088 10.37372,7.20745c-0.94987,0.97982 0.76245,2.84793 -1.25676,3.83107c-4.34323,2.11469 -7.80272,5.56133 -9.82352,6.29386c-2.4811,0.41031 -21.00143,-3.84687 -21.50248,-3.8707z" fill="url(#color-19)" stroke="#000000" stroke-width="2" stroke-linecap="butt"/><path d="M245.4376,102.70845c2.28053,-0.10414 19.42058,3.03674 19.33192,4.32696c-0.47695,6.93933 -6.75003,24.06458 -16.00647,24.06458c-4.91206,0 -13.32723,-0.91598 -13.32723,-0.91598c0,0 -3.38866,-12.96426 -3.38866,-16.22545c0,-3.26119 13.39043,-11.25009 13.39043,-11.25009z" fill="url(#color-20)" stroke="#000000" stroke-width="2" stroke-linecap="butt"/><path d="M248.28171,95.71297c4.74337,-0.21357 17.56143,10.40572 17.50759,11.18931c-0.07474,1.08728 1.75543,2.39336 1.75543,2.39336l-11.28836,2.86556c0,0 0.8316,-5.16878 -0.82662,-6.67507c0,0 -2.6008,-1.42409 -5.75939,-1.8489c-1.54308,-0.20754 -4.30131,-0.92038 -4.05138,-1.23946c0.34411,-0.43928 4.1667,-1.94732 4.56366,-2.74593c0.59523,-1.1975 -1.90097,-3.93888 -1.90097,-3.93888z" fill="url(#color-21)" stroke="#000000" stroke-width="2" stroke-linecap="butt"/><path d="M237.86615,117.60758l1.45379,-2.00606c0,0 3.33643,1.84276 5.41314,1.04071c5.44136,-2.10151 8.23969,-3.65283 13.71828,-5.69913c3.02499,-1.12987 9.8708,-0.83887 9.8708,-0.83887c0,0 -0.34224,0.24977 -0.84083,3.45537c-0.4986,3.20561 -0.82733,5.36274 -0.82733,5.36274c0,0 -2.35056,8.19971 -5.03504,10.86326c-2.04878,2.0328 -4.74104,3.15363 -4.74104,3.15363l-11.88948,-2.90062c0,0 -0.92524,-5.47614 -2.10244,-7.35331z" fill="#000000" stroke="#000000" stroke-width="1.5" stroke-linecap="butt"/><path d="M285.61011,138.26934c-1.15252,-0.82166 -8.03312,2.17331 -8.21689,1.88696c-1.49408,-2.32809 -12.68499,-5.70634 -13.11488,-6.96974c-1.31199,-3.8558 0.65347,-5.36963 0.65347,-5.36963c0,0 0.56157,0.42374 2.16132,1.29433c1.97771,1.07629 11.64344,-2.1685 14.94529,-1.54773c6.12617,1.1518 10.8023,9.78319 11.37163,11.45637c0.56644,1.66472 4.25518,2.00997 2.78183,2.6603c-1.75818,0.77608 -5.86114,0.59039 -5.86114,0.59039c0,0 -2.07636,-2.11609 -4.72063,-4.00126z" data-paper-data="{&quot;index&quot;:null}" fill="url(#color-22)" stroke="#000000" stroke-width="2" stroke-linecap="butt"/><path d="M224.76887,136.62319c5.78135,6.7351 19.44407,13.52034 14.36136,18.72031c-5.08274,5.19996 -7.75111,17.36586 -13.53245,10.63075c-5.78134,-6.7351 -25.75448,-13.07304 -20.67177,-18.27299c5.08274,-5.19996 19.84285,-11.07807 19.84285,-11.07807z" data-paper-data="{&quot;index&quot;:null}" fill="url(#color-23)" stroke="#000000" stroke-width="2" stroke-linecap="butt"/><path d="M203.22856,147.9463c-0.61523,-1.72348 0.09241,-10.69765 4.33469,-15.15792c3.05929,-3.21644 16.03799,-5.81145 18.28342,-8.20739c1.81631,-1.93806 1.83683,-4.13043 1.83683,-4.13043c0,0 7.73122,1.78173 9.14899,5.75342c0.46455,1.30138 -0.91387,5.3857 -1.20829,8.34447c-0.03621,0.36392 -6.69422,1.99604 -7.8228,3.53974c-2.58939,3.54178 -2.56164,8.34534 -5.06967,9.09309c0,0 -6.60688,2.89992 -8.95068,3.37172c-5.42836,1.09275 -9.61477,0.02015 -10.55245,-2.6067z" fill="url(#color-24)" stroke="#000000" stroke-width="2" stroke-linecap="butt"/><path d="M265.91663,118.41588c0.19876,1.16981 -2.18343,6.49989 -2.18343,6.49989c0,0 -0.5794,2.50747 -2.29843,4.28616c-0.96659,1.1683 -4.37969,2.57042 -4.37969,2.57042c0,0 3.10555,-6.27437 4.73372,-11.49278c0.21787,-0.69828 0.63195,-1.20473 2.71571,-4.61229c1.81131,-2.96202 2.57551,-2.35613 2.57551,-2.35613c0,0 -0.92073,4.07766 -1.16338,5.1047z" fill="#000000" stroke="#000000" stroke-width="1.5" stroke-linecap="butt"/><path d="M231.43501,175.93617c0,0 -0.00748,-1.51106 0.12892,-2.27902c0.13942,-0.78492 0.69876,-2.38078 0.69876,-2.38078c0,0 7.15917,1.05794 15.2409,1.69654c6.02897,0.47638 12.81605,0.58161 16.2104,0.58161c5.33618,0 11.58731,-1.76037 11.58731,-1.76037c0,0 0.90416,1.1461 1.0271,1.68442c0.1482,0.64897 -0.06148,2.35409 -0.06148,2.35409c0,0 -6.75601,1.77632 -11.58634,1.78773c-3.6964,0.00873 -10.99143,0.3803 -17.80844,-0.00488c-8.05205,-0.45496 -15.43712,-1.6793 -15.43712,-1.6793z" fill="url(#color-25)" stroke="#000000" stroke-width="2" stroke-linecap="butt"/><path d="M257.5668,177.95542c0,0 -0.41051,-1.17204 -0.5048,-1.70293c-0.15251,-0.85865 -0.04699,-2.95687 -0.04699,-2.95687c0,0 3.01256,-0.2071 4.41421,-0.2071c1.35568,0 3.86244,0.2071 3.86244,0.2071c0,0 0.55176,1.37226 0.55176,2.07103c0,0.71602 -0.27589,2.17457 -0.27589,2.17457c0,0 -2.39944,0.70559 -3.40591,0.75955c-1.422,0.07626 -4.59488,-0.34534 -4.59488,-0.34534z" fill="#060606" stroke="#000000" stroke-width="2" stroke-linecap="butt"/><path d="M255.19915,119.58665c0.81401,-2.11279 3.0424,-3.32974 4.9772,-2.7182c1.93483,0.61155 2.84342,2.82005 2.0294,4.93282c-0.81401,2.11279 -3.0424,3.32974 -4.97722,2.7182c-1.93483,-0.61155 -2.84341,-2.82005 -2.02938,-4.93282z" fill="url(#color-26)" stroke="#000000" stroke-width="0" stroke-linecap="butt"/><path d="M245.55678,121.01184c0,-6.31705 5.95087,-11.43802 13.29163,-11.43802c7.34076,0 13.29163,5.12098 13.29163,11.43802c0,6.31705 -5.95086,11.43803 -13.29163,11.43803c-7.34077,0 -13.29163,-5.12099 -13.29163,-11.43803z" fill="url(#color-27)" stroke="#000000" stroke-width="0" stroke-linecap="butt"/><path d="M248.15716,141.16273c5.5555,-1.09193 5.38061,-2.15554 6.73236,4.72185c1.35174,6.87739 -11.11384,19.3356 -16.66933,20.42753c-5.5555,1.09193 -6.72304,-5.84691 -8.07479,-12.72432c-1.35174,-6.87739 12.45626,-11.33316 18.01174,-12.42509z" fill="url(#color-28)" stroke="#000000" stroke-width="2" stroke-linecap="butt"/><path d="M236.27394,144.64978c1.0882,0.65958 0.91317,3.02034 1.55151,4.32387c2.2019,4.49642 4.16923,10.21072 1.3527,14.85749c-3.63306,5.99388 -9.84989,4.99849 -14.69167,2.06375c-4.8418,-2.93475 -3.86962,-5.60222 -0.23656,-11.59611c1.78994,-2.95307 5.06006,-5.29319 7.31105,-7.43873c2.31789,-2.20929 2.25662,-3.69914 4.71296,-2.21028z" fill="url(#color-29)" stroke="#000000" stroke-width="2" stroke-linecap="butt"/><path d="M291.24397,151.81787c-0.55195,5.98098 0.41899,12.76557 -5.17232,12.99258c-5.5913,0.22698 -19.27008,-7.56622 -18.71812,-13.5472c0.55195,-5.98098 0.50023,-5.06298 6.09156,-5.28997c5.5913,-0.22698 18.35083,-0.13638 17.79889,5.84461z" data-paper-data="{&quot;index&quot;:null}" fill="url(#color-30)" stroke="#000000" stroke-width="2" stroke-linecap="butt"/><path d="M294.1335,168.25678c-2.43793,-0.68415 -5.68648,-1.02091 -8.09567,-2.61989c-4.8899,-3.24549 -6.59978,-5.01377 -4.20494,-9.92929c2.39484,-4.91549 6.51618,-8.88115 11.4061,-5.63564c3.79091,2.51608 4.52426,8.33894 4.62833,13.24925c0.03019,1.42353 1.04766,3.33281 0.50941,4.43755c-1.21494,2.49374 -1.73285,1.20254 -4.24324,0.49804z" data-paper-data="{&quot;index&quot;:null}" fill="url(#color-31)" stroke="#000000" stroke-width="2" stroke-linecap="butt"/><g><g stroke="none" stroke-width="0" stroke-linecap="butt"><g><g><g><path d="M273.1665,252.74903c-0.12527,8.38085 -6.00741,15.12737 -13.13814,15.06874c-7.13074,-0.05863 -12.80978,-6.90016 -12.68452,-15.28101c0.12527,-8.38085 6.0074,-15.12738 13.13814,-15.06875c7.13074,0.05863 12.80978,6.90016 12.68451,15.28101z" fill="url(#color-32)"/><path d="M273.22415,248.89106c-0.12527,8.38085 -6.00741,15.12737 -13.13814,15.06874c-7.13074,-0.05863 -12.80977,-6.90015 -12.6845,-15.28101c0.12527,-8.38085 6.00741,-15.12737 13.13814,-15.06875c7.13074,0.05863 12.80977,6.90016 12.68451,15.28101z" fill="url(#color-33)"/><path d="M273.50448,244.77763c-0.12527,8.38085 -6.00742,15.12737 -13.13815,15.06874c-7.13074,-0.05863 -12.80978,-6.90016 -12.68451,-15.28101c0.12527,-8.38085 6.00741,-15.12737 13.13814,-15.06875c7.13074,0.05863 12.80978,6.90016 12.68451,15.28101z" fill="url(#color-34)"/><path d="M273.56218,240.91956c-0.12527,8.38085 -6.00741,15.12739 -13.13814,15.06874c-7.13074,-0.05863 -12.80978,-6.90017 -12.68451,-15.28102c0.12527,-8.38085 6.0074,-15.12738 13.13813,-15.06875c7.13074,0.05863 12.80978,6.90016 12.68453,15.281z" fill="url(#color-35)"/></g><g><path d="M273.6006,238.34758c-0.12527,8.38085 -6.00741,15.12739 -13.13814,15.06874c-7.13074,-0.05863 -12.80977,-6.90015 -12.68451,-15.28101c0.12527,-8.38085 6.00742,-15.12737 13.13815,-15.06875c7.13074,0.05863 12.80976,6.90015 12.6845,15.281z" fill="url(#color-36)"/><path d="M273.65827,234.48959c-0.12527,8.38085 -6.0074,15.12739 -13.13814,15.06876c-7.13074,-0.05863 -12.80976,-6.90016 -12.6845,-15.28101c0.12527,-8.38085 6.00741,-15.12737 13.13814,-15.06875c7.13074,0.05863 12.80977,6.90015 12.6845,15.28101z" fill="url(#color-37)"/><path d="M273.93865,230.3761c-0.12527,8.38085 -6.00742,15.12738 -13.13815,15.06875c-7.13074,-0.05863 -12.80977,-6.90016 -12.68451,-15.28102c0.12527,-8.38085 6.00741,-15.12737 13.13814,-15.06875c7.13074,0.05863 12.80977,6.90016 12.6845,15.28101z" fill="url(#color-38)"/><path d="M273.99631,226.5181c-0.12527,8.38085 -6.00741,15.12738 -13.13814,15.06875c-7.13074,-0.05863 -12.80978,-6.90016 -12.68452,-15.28102c0.12527,-8.38085 6.00741,-15.12737 13.13814,-15.06874c7.13074,0.05863 12.80978,6.90017 12.68453,15.28101z" fill="url(#color-39)"/></g></g><g><g><path d="M273.88954,282.14976c-0.12527,8.38085 -6.0074,15.12736 -13.13814,15.06874c-7.13074,-0.05863 -12.80978,-6.90016 -12.68452,-15.28101c0.12527,-8.38085 6.00742,-15.12739 13.13815,-15.06875c7.13074,0.05863 12.80977,6.90016 12.68451,15.28103z" fill="url(#color-40)"/><path d="M272.73534,278.23497c-0.12527,8.38085 -6.00741,15.12737 -13.13814,15.06874c-7.13074,-0.05863 -12.80978,-6.90016 -12.68451,-15.28101c0.03976,-2.66012 0.6494,-4.93987 1.70497,-7.10533c2.27003,-4.65694 6.56577,-8.00343 11.43317,-7.96341c7.13074,0.05863 12.80978,6.90016 12.6845,15.28101z" fill="url(#color-41)"/><path d="M273.8236,274.15939c-0.12527,8.38085 -6.0074,15.12739 -13.13813,15.06876c-7.13074,-0.05863 -12.80977,-6.90016 -12.68451,-15.28103c0.12527,-8.38085 6.00742,-15.12737 13.13815,-15.06873c7.13074,0.05863 12.80977,6.90015 12.6845,15.281z" fill="url(#color-42)"/><path d="M272.46742,270.23512c-0.12527,8.38085 -6.00742,15.12737 -13.13815,15.06874c-7.13074,-0.05863 -12.80978,-6.90016 -12.68452,-15.28101c0.12527,-8.38085 6.0074,-15.12739 13.13813,-15.06876c7.13074,0.05863 12.80979,6.90016 12.68452,15.28103z" fill="url(#color-43)"/></g><g><path d="M273.41469,269.86792c-0.12527,8.38085 -6.00741,15.12737 -13.13814,15.06874c-7.13074,-0.05863 -12.80978,-6.90016 -12.68453,-15.28101c0.12527,-8.38085 6.00742,-15.12737 13.13815,-15.06874c7.13074,0.05863 12.80979,6.90015 12.68452,15.28101z" fill="url(#color-44)"/><path d="M272.55344,264.02082c-0.12527,8.38085 -6.00741,15.12738 -13.13814,15.06875c-7.13074,-0.05863 -12.80977,-6.90015 -12.68451,-15.281c0.12527,-8.38085 6.00742,-15.12738 13.13815,-15.06875c7.13074,0.05863 12.80977,6.90015 12.6845,15.28101z" fill="url(#color-45)"/><path d="M273.73252,262.32792c-0.12527,8.38085 -6.00739,15.12737 -13.13814,15.06874c-7.13074,-0.05863 -12.80976,-6.90016 -12.6845,-15.28101c0.12527,-8.38085 6.00741,-15.12737 13.13814,-15.06874c7.13074,0.05863 12.80978,6.90016 12.6845,15.28101z" fill="url(#color-46)"/><path d="M272.90155,255.83366c-0.12527,8.38085 -6.0074,15.12738 -13.13814,15.06875c-7.13074,-0.05863 -12.80976,-6.90015 -12.6845,-15.28101c0.12527,-8.38085 6.00741,-15.12737 13.13814,-15.06874c7.13074,0.05863 12.80978,6.90016 12.68451,15.28101z" fill="url(#color-47)"/></g></g></g><g><g><g><path d="M274.93365,193.08565c-0.12527,8.38085 -6.0074,15.12736 -13.13814,15.06875c-7.13074,-0.05863 -12.80977,-6.90016 -12.68451,-15.28101c0.12527,-8.38085 6.00742,-15.12737 13.13815,-15.06875c7.13074,0.05863 12.80978,6.90016 12.6845,15.28101z" fill="url(#color-48)"/><path d="M274.99135,189.22757c-0.12527,8.38085 -6.00741,15.12738 -13.13814,15.06875c-7.13074,-0.05863 -12.80978,-6.90016 -12.6845,-15.28101c0.12527,-8.38085 6.00742,-15.12737 13.13815,-15.06875c7.13074,0.05863 12.80977,6.90016 12.68451,15.28101z" fill="url(#color-49)"/><path d="M275.27172,185.11416c-0.12527,8.38085 -6.00742,15.12738 -13.13815,15.06875c-7.13074,-0.05863 -12.80978,-6.90016 -12.68452,-15.28101c0.12527,-8.38085 6.00742,-15.12737 13.13815,-15.06875c7.13074,0.05863 12.80977,6.90015 12.6845,15.28101z" fill="url(#color-50)"/><path d="M275.32934,181.25616c-0.12527,8.38085 -6.00741,15.12736 -13.13814,15.06873c-7.13074,-0.05863 -12.80978,-6.90016 -12.68451,-15.281c0.12527,-8.38085 6.00741,-15.12737 13.13814,-15.06875c7.13074,0.05863 12.80977,6.90016 12.68451,15.28101z" fill="url(#color-51)"/></g><g><path d="M275.36779,178.68417c-0.12527,8.38085 -6.00742,15.12739 -13.13815,15.06875c-7.13074,-0.05863 -12.80977,-6.90016 -12.68451,-15.28103c0.12527,-8.38085 6.00742,-15.12737 13.13815,-15.06875c7.13074,0.05863 12.80978,6.90017 12.68452,15.28101z" fill="url(#color-52)"/><path d="M275.42548,174.8261c-0.12527,8.38085 -6.00741,15.12738 -13.13815,15.06875c-7.13074,-0.05863 -12.80977,-6.90016 -12.6845,-15.28101c0.12527,-8.38085 6.0074,-15.12738 13.13813,-15.06875c7.13074,0.05863 12.80976,6.90016 12.6845,15.28102z" fill="url(#color-53)"/><path d="M275.70582,170.71267c-0.12527,8.38085 -6.00742,15.12737 -13.13815,15.06874c-7.13074,-0.05863 -12.80978,-6.90016 -12.68451,-15.28101c0.12527,-8.38085 6.00741,-15.12738 13.13814,-15.06874c7.13074,0.05863 12.80977,6.90016 12.68451,15.28101z" fill="url(#color-54)"/><path d="M275.76346,166.85468c-0.12527,8.38085 -6.0074,15.12736 -13.13814,15.06875c-7.13074,-0.05863 -12.80977,-6.90016 -12.6845,-15.28102c0.12527,-8.38085 6.00742,-15.12737 13.13815,-15.06874c7.13074,0.05863 12.80976,6.90016 12.6845,15.28101z" fill="url(#color-55)"/></g></g><g><g><path d="M273.83898,222.40107c-0.12527,8.38085 -6.00741,15.12737 -13.13814,15.06874c-7.13074,-0.05863 -12.80977,-6.90015 -12.6845,-15.28101c0.12527,-8.38085 6.00741,-15.12737 13.13814,-15.06875c7.13074,0.05863 12.80979,6.90016 12.68453,15.28101z" fill="url(#color-56)"/><path d="M273.89663,218.54306c-0.12527,8.38085 -6.00741,15.12739 -13.13814,15.06876c-7.13074,-0.05863 -12.80976,-6.90016 -12.6845,-15.28101c0.12527,-8.38085 6.00741,-15.12737 13.13814,-15.06874c7.13074,0.05863 12.80977,6.90015 12.6845,15.28101z" fill="url(#color-57)"/><path d="M274.17699,214.42964c-0.12527,8.38085 -6.0074,15.12738 -13.13813,15.06875c-7.13074,-0.05863 -12.80977,-6.90016 -12.68452,-15.28102c0.12527,-8.38085 6.00742,-15.12739 13.13814,-15.06875c7.13074,0.05863 12.80977,6.90016 12.6845,15.28101z" fill="url(#color-58)"/><path d="M274.23464,210.57163c-0.12527,8.38085 -6.00741,15.12739 -13.13814,15.06875c-7.13074,-0.05863 -12.80977,-6.90016 -12.6845,-15.28101c0.12527,-8.38085 6.00742,-15.12737 13.13815,-15.06874c7.13074,0.05863 12.80977,6.90016 12.68451,15.28102z" fill="url(#color-59)"/></g><g><path d="M274.2731,207.9996c-0.12527,8.38085 -6.00741,15.12738 -13.13815,15.06875c-7.13074,-0.05863 -12.80977,-6.90016 -12.6845,-15.28101c0.12527,-8.38085 6.00742,-15.12737 13.13815,-15.06874c7.13074,0.05863 12.80979,6.90015 12.68453,15.28101z" fill="url(#color-60)"/><path d="M274.33075,204.14158c-0.12527,8.38085 -6.00741,15.12738 -13.13814,15.06875c-7.13074,-0.05863 -12.80977,-6.90015 -12.68451,-15.28101c0.12527,-8.38085 6.00742,-15.12737 13.13815,-15.06875c7.13074,0.05863 12.80976,6.90015 12.6845,15.281z" fill="url(#color-61)"/><path d="M274.61109,200.02816c-0.12527,8.38085 -6.00741,15.12738 -13.13814,15.06875c-7.13074,-0.05863 -12.80978,-6.90015 -12.68451,-15.281c0.12527,-8.38085 6.00741,-15.12739 13.13814,-15.06875c7.13074,0.05863 12.80978,6.90016 12.6845,15.28101z" fill="url(#color-62)"/><path d="M274.6687,196.17023c-0.12527,8.38085 -6.00742,15.12737 -13.13815,15.06874c-7.13074,-0.05863 -12.80978,-6.90014 -12.68451,-15.28099c0.12527,-8.38085 6.00741,-15.12739 13.13814,-15.06876c7.13074,0.05863 12.80976,6.90015 12.6845,15.28101z" fill="url(#color-63)"/></g></g></g></g><path d="M263.77348,168.03738c0,0 -1.33317,19.91176 -2.81007,54.17585c-1.69475,39.31839 -2.24717,62.82148 -2.24717,62.82148c0,0 -6.02112,-4.74659 -5.69027,-15.01267c-0.17672,-20.44939 -0.51492,-20.38278 0.44771,-48.23355c1.64073,-30.24841 2.48336,-54.0755 2.48336,-54.0755z" data-paper-data="{&quot;index&quot;:null}" fill="url(#color-64)" stroke="#ff0000" stroke-width="0" stroke-linecap="butt"/><path d="M264.27645,163.72624c0,0 -1.37237,20.74904 -2.91667,56.4523c-1.77209,40.96986 -2.57267,65.44979 -2.57267,65.44979c0,0 -6.32746,-4.94849 -5.97642,-15.64556c-0.13658,-21.30623 -0.47495,-21.23617 0.54243,-50.25628c1.70027,-31.51959 2.58973,-56.3471 2.58973,-56.3471z" data-paper-data="{&quot;index&quot;:null}" fill="none" stroke="#330000" stroke-width="2" stroke-linecap="butt"/><path d="M273.84361,158.15622c0,0 1.33263,1.66094 1.28482,2.68185c-0.04781,1.02091 -1.53859,2.73689 -1.53859,2.73689l-26.94051,-1.26166c0,0 -1.33084,-1.69967 -1.27609,-2.86869c0.05475,-1.16902 1.52987,-2.55003 1.52987,-2.55003z" fill="#000000" stroke="none" stroke-width="0" stroke-linecap="butt"/><path d="M265.73558,125.26636l-1.59456,34.04921l-7.89861,-0.3699l1.59456,-34.04922c0,0 2.24198,-2.78053 4.08366,-2.69429c1.8417,0.08624 3.81494,3.06419 3.81494,3.06419z" fill="#070707" stroke="#000000" stroke-width="1.5" stroke-linecap="butt"/><g fill="#0f0f0f" stroke="#000000" stroke-width="1" stroke-linecap="butt"><g><path d="M262.56739,151.59056l-0.30549,6.52325c0,0 -1.29033,1.10181 -1.91869,1.07239c-0.64249,-0.0301 -1.89482,-1.25098 -1.89482,-1.25098l0.30548,-6.52325l1.02263,-1.29661l1.73229,0.08459z"/><path d="M261.56059,150.2101l-1.73262,-0.07769l-0.89699,-1.38649l0.30549,-6.52325l1.05725,-1.33407l1.75095,0.06655l1.0053,1.44611l-0.30548,6.52325z" data-paper-data="{&quot;index&quot;:null}"/></g><g><path d="M263.42858,133.20122l-0.30548,6.52325c0,0 -1.29033,1.1018 -1.91868,1.07236c-0.6425,-0.0301 -1.89482,-1.25096 -1.89482,-1.25096l0.30548,-6.52325l1.02264,-1.2966l1.73229,0.08459z"/><path d="M262.42179,131.82076l-1.73261,-0.07767l-0.89699,-1.38651l0.30549,-6.52325l1.05725,-1.33405l1.75095,0.06654l1.00532,1.4461l-0.30549,6.52325z" data-paper-data="{&quot;index&quot;:null}"/></g></g><path d="M264.66442,140.76228l-7.09145,-0.33209" fill="none" stroke="#000000" stroke-width="1.5" stroke-linecap="round"/><path d="M257.33081,149.9235l6.96782,0.32632" fill="none" stroke="#000000" stroke-width="1.5" stroke-linecap="round"/><path d="M264.96172,131.67828l-6.76161,-0.31666" fill="none" stroke="#000000" stroke-width="1.5" stroke-linecap="round"/><path d="M265.70466,162.9847c0,0 -0.98801,4.41327 -1.69796,4.38003c-1.32129,-0.06187 -5.84095,-0.27354 -8.08356,-0.37857c-0.77902,-0.03647 -1.07491,-4.50988 -1.07491,-4.50988z" fill="url(#color-65)" stroke="#000000" stroke-width="2" stroke-linecap="butt"/></g><path d="M259.43096,157.2965c-0.58245,-0.2561 -2.51208,-2.97778 -1.93083,-3.39974c0.42114,-0.30574 3.41603,1.77295 3.15496,1.20715c-0.40947,-0.88734 -4.00036,-1.79271 -5.02845,-2.98203c-1.05681,-1.22254 0.45881,-2.73013 0.80253,-3.71147c0.43184,-1.23287 -0.1532,-2.42038 0.76953,-3.04065c1.61056,-1.0826 5.03374,-0.98673 6.52567,-0.33068c1.2306,0.54113 2.28494,0.8476 2.63855,2.39464c0.1551,0.67852 9.15509,-5.28127 10.5714,-2.24225c1.51248,3.24533 -2.52532,16.82607 -2.81651,17.65742c-0.3786,1.08087 -9.85715,-5.45912 -10.50648,-4.72715c0,0 -2.58305,-0.12285 -4.18038,-0.82524z" data-paper-data="{&quot;index&quot;:null}" fill="url(#color-66)" stroke="#000000" stroke-width="2" stroke-linecap="butt"/><path d="M262.05048,136.65097c0.65557,-0.11569 3.65311,1.18084 3.29757,1.90392c-0.25762,0.52392 -3.96429,0.43564 -3.47162,0.78822c0.77261,0.55296 4.5174,-0.76434 5.99953,-0.3074c1.52354,0.46972 0.77593,2.7204 0.88823,3.80425c0.14109,1.36169 1.20965,2.07972 0.62331,3.18311c-1.02337,1.92586 -4.25507,3.86969 -5.93432,4.16603c-1.38509,0.24443 -2.50253,0.59475 -3.51391,-0.58293c-0.44359,-0.51653 -6.20202,10.16473 -8.86119,8.27922c-1.27526,-0.90426 -4.01911,-4.50204 -4.90901,-8.09804c-1.09169,-4.41137 -0.19756,-8.90109 -0.24997,-9.40695c-0.12368,-1.1938 11.59036,-0.94924 11.87271,-1.99066c0.60187,-2.21987 2.46084,-1.4215 4.25868,-1.73875z" data-paper-data="{&quot;index&quot;:null}" fill="url(#color-67)" stroke="#000000" stroke-width="2" stroke-linecap="butt"/></g></g></svg>