<svg version="1.1" xmlns="http://www.w3.org/2000/svg" xmlns:xlink="http://www.w3.org/1999/xlink" width="98.15553" height="556.5264" viewBox="0,0,98.15553,556.5264"><defs><linearGradient x1="57.11785" y1="384.14383" x2="50.18722" y2="376.00582" gradientUnits="userSpaceOnUse" id="color-1"><stop offset="0" stop-color="#5c0000"/><stop offset="1" stop-color="#150000"/></linearGradient><linearGradient x1="63.05833" y1="371.67801" x2="55.00995" y2="366.08364" gradientUnits="userSpaceOnUse" id="color-2"><stop offset="0" stop-color="#5c0000"/><stop offset="1" stop-color="#150000"/></linearGradient><linearGradient x1="66.5662" y1="356.54291" x2="57.69455" y2="355.04851" gradientUnits="userSpaceOnUse" id="color-3"><stop offset="0" stop-color="#5c0000"/><stop offset="1" stop-color="#150000"/></linearGradient><linearGradient x1="64.76438" y1="335.26277" x2="56.13514" y2="342.44227" gradientUnits="userSpaceOnUse" id="color-4"><stop offset="0" stop-color="#5c0000"/><stop offset="1" stop-color="#150000"/></linearGradient><linearGradient x1="65.53594" y1="290.92119" x2="57.76831" y2="284.55245" gradientUnits="userSpaceOnUse" id="color-5"><stop offset="0" stop-color="#5c0000"/><stop offset="1" stop-color="#150000"/></linearGradient><linearGradient x1="56.7438" y1="304.16656" x2="51.98942" y2="293.24488" gradientUnits="userSpaceOnUse" id="color-6"><stop offset="0" stop-color="#5c0000"/><stop offset="1" stop-color="#150000"/></linearGradient><linearGradient x1="51.62843" y1="309.49927" x2="43.22741" y2="305.11828" gradientUnits="userSpaceOnUse" id="color-7"><stop offset="0" stop-color="#5c0000"/><stop offset="1" stop-color="#150000"/></linearGradient><linearGradient x1="53.06936" y1="314.98801" x2="45.22205" y2="321.14965" gradientUnits="userSpaceOnUse" id="color-8"><stop offset="0" stop-color="#5c0000"/><stop offset="1" stop-color="#150000"/></linearGradient><linearGradient x1="58.71892" y1="323.52854" x2="51.61917" y2="333.61485" gradientUnits="userSpaceOnUse" id="color-9"><stop offset="0" stop-color="#5c0000"/><stop offset="1" stop-color="#150000"/></linearGradient><linearGradient x1="67.84368" y1="266.22317" x2="57.75565" y2="271.25393" gradientUnits="userSpaceOnUse" id="color-10"><stop offset="0" stop-color="#5c0000"/><stop offset="1" stop-color="#150000"/></linearGradient><linearGradient x1="37.31507" y1="399.34538" x2="28.52461" y2="401.6311" gradientUnits="userSpaceOnUse" id="color-11"><stop offset="0" stop-color="#5c0000"/><stop offset="1" stop-color="#150000"/></linearGradient><linearGradient x1="36.7998" y1="416.98846" x2="28.15182" y2="413.76214" gradientUnits="userSpaceOnUse" id="color-12"><stop offset="0" stop-color="#5c0000"/><stop offset="1" stop-color="#150000"/></linearGradient><linearGradient x1="46.57987" y1="399.53922" x2="43.47205" y2="384.7919" gradientUnits="userSpaceOnUse" id="color-13"><stop offset="0" stop-color="#5c0000"/><stop offset="1" stop-color="#150000"/></linearGradient><linearGradient x1="34.50996" y1="386.24932" x2="26.20368" y2="390.9923" gradientUnits="userSpaceOnUse" id="color-14"><stop offset="0" stop-color="#5c0000"/><stop offset="1" stop-color="#150000"/></linearGradient><linearGradient x1="35.38098" y1="133.37631" x2="26.50818" y2="141.94271" gradientUnits="userSpaceOnUse" id="color-15"><stop offset="0" stop-color="#5c0000"/><stop offset="1" stop-color="#150000"/></linearGradient><linearGradient x1="41.27619" y1="148.47297" x2="30.77352" y2="151.2108" gradientUnits="userSpaceOnUse" id="color-16"><stop offset="0" stop-color="#5c0000"/><stop offset="1" stop-color="#150000"/></linearGradient><linearGradient x1="41.48237" y1="166.08129" x2="31.12737" y2="162.35005" gradientUnits="userSpaceOnUse" id="color-17"><stop offset="0" stop-color="#5c0000"/><stop offset="1" stop-color="#150000"/></linearGradient><linearGradient x1="37.07271" y1="182.89978" x2="29.72776" y2="171.71587" gradientUnits="userSpaceOnUse" id="color-18"><stop offset="0" stop-color="#5c0000"/><stop offset="1" stop-color="#150000"/></linearGradient><linearGradient x1="27.03157" y1="193.60316" x2="25.25181" y2="179.54987" gradientUnits="userSpaceOnUse" id="color-19"><stop offset="0" stop-color="#5c0000"/><stop offset="1" stop-color="#150000"/></linearGradient><linearGradient x1="31.52531" y1="212.34966" x2="23.07509" y2="221.76535" gradientUnits="userSpaceOnUse" id="color-20"><stop offset="0" stop-color="#5c0000"/><stop offset="1" stop-color="#150000"/></linearGradient><linearGradient x1="25.03588" y1="201.99975" x2="16.58567" y2="211.41544" gradientUnits="userSpaceOnUse" id="color-21"><stop offset="0" stop-color="#5c0000"/><stop offset="1" stop-color="#150000"/></linearGradient><linearGradient x1="19.60125" y1="192.56595" x2="10.15269" y2="199.73347" gradientUnits="userSpaceOnUse" id="color-22"><stop offset="0" stop-color="#5c0000"/><stop offset="1" stop-color="#150000"/></linearGradient><linearGradient x1="14.70522" y1="27.6625" x2="13.14224" y2="42.91171" gradientUnits="userSpaceOnUse" id="color-23"><stop offset="0" stop-color="#5c0000"/><stop offset="1" stop-color="#150000"/></linearGradient><linearGradient x1="9.95953" y1="-6.65836" x2="-0.20041" y2="-11.37762" gradientUnits="userSpaceOnUse" id="color-24"><stop offset="0" stop-color="#5c0000"/><stop offset="1" stop-color="#150000"/></linearGradient><linearGradient x1="1.05976" y1="10.71465" x2="-4.94351" y2="-2.03067" gradientUnits="userSpaceOnUse" id="color-25"><stop offset="0" stop-color="#5c0000"/><stop offset="1" stop-color="#150000"/></linearGradient><linearGradient x1="1.76033" y1="39.17894" x2="-6.44156" y2="49.04217" gradientUnits="userSpaceOnUse" id="color-26"><stop offset="0" stop-color="#5c0000"/><stop offset="1" stop-color="#150000"/></linearGradient><linearGradient x1="5.16191" y1="23.66782" x2="-4.92134" y2="24.48989" gradientUnits="userSpaceOnUse" id="color-27"><stop offset="0" stop-color="#5c0000"/><stop offset="1" stop-color="#150000"/></linearGradient><linearGradient x1="30.87538" y1="432.12949" x2="24.89436" y2="423.06443" gradientUnits="userSpaceOnUse" id="color-28"><stop offset="0" stop-color="#5c0000"/><stop offset="1" stop-color="#150000"/></linearGradient><linearGradient x1="63.7995" y1="252.67209" x2="53.71148" y2="257.70285" gradientUnits="userSpaceOnUse" id="color-29"><stop offset="0" stop-color="#5c0000"/><stop offset="1" stop-color="#150000"/></linearGradient><linearGradient x1="57.3764" y1="238.47572" x2="47.28838" y2="243.50648" gradientUnits="userSpaceOnUse" id="color-30"><stop offset="0" stop-color="#5c0000"/><stop offset="1" stop-color="#150000"/></linearGradient><linearGradient x1="30.47406" y1="122.60215" x2="21.29373" y2="130.18372" gradientUnits="userSpaceOnUse" id="color-31"><stop offset="0" stop-color="#5c0000"/><stop offset="1" stop-color="#150000"/></linearGradient><linearGradient x1="43.89177" y1="218.97963" x2="35.88753" y2="228.70879" gradientUnits="userSpaceOnUse" id="color-32"><stop offset="0" stop-color="#5c0000"/><stop offset="1" stop-color="#150000"/></linearGradient><linearGradient x1="30.27226" y1="114.04801" x2="23.10277" y2="103.18728" gradientUnits="userSpaceOnUse" id="color-33"><stop offset="0" stop-color="#5c0000"/><stop offset="1" stop-color="#150000"/></linearGradient><linearGradient x1="39.35209" y1="100.96794" x2="29.8582" y2="94.13354" gradientUnits="userSpaceOnUse" id="color-34"><stop offset="0" stop-color="#5c0000"/><stop offset="1" stop-color="#150000"/></linearGradient><linearGradient x1="41.71793" y1="82.33437" x2="30.98136" y2="83.01634" gradientUnits="userSpaceOnUse" id="color-35"><stop offset="0" stop-color="#5c0000"/><stop offset="1" stop-color="#150000"/></linearGradient><linearGradient x1="39.46301" y1="69.00911" x2="28.98868" y2="72.27974" gradientUnits="userSpaceOnUse" id="color-36"><stop offset="0" stop-color="#5c0000"/><stop offset="1" stop-color="#150000"/></linearGradient><linearGradient x1="38.27355" y1="57.71654" x2="27.79922" y2="60.98717" gradientUnits="userSpaceOnUse" id="color-37"><stop offset="0" stop-color="#5c0000"/><stop offset="1" stop-color="#150000"/></linearGradient><linearGradient x1="25.24736" y1="32.37527" x2="19.87196" y2="45.93555" gradientUnits="userSpaceOnUse" id="color-38"><stop offset="0" stop-color="#5c0000"/><stop offset="1" stop-color="#150000"/></linearGradient><linearGradient x1="33.33079" y1="42.66127" x2="24.26391" y2="51.92487" gradientUnits="userSpaceOnUse" id="color-39"><stop offset="0" stop-color="#5c0000"/><stop offset="1" stop-color="#150000"/></linearGradient><linearGradient x1="11.10183" y1="-24.85083" x2="0.43907" y2="-23.11523" gradientUnits="userSpaceOnUse" id="color-40"><stop offset="0" stop-color="#5c0000"/><stop offset="1" stop-color="#150000"/></linearGradient><linearGradient x1="8.00274" y1="-32.9783" x2="2.15" y2="-45.19051" gradientUnits="userSpaceOnUse" id="color-41"><stop offset="0" stop-color="#5c0000"/><stop offset="1" stop-color="#150000"/></linearGradient></defs><g transform="translate(28.19863,93.40805)"><g data-paper-data="{&quot;isPaintingLayer&quot;:true}" fill-rule="nonzero" stroke-linejoin="miter" stroke-miterlimit="10" stroke-dasharray="" stroke-dashoffset="0" style="mix-blend-mode: normal"><path d="M-0.1327,-85.90805c0,0 -5.27957,7.31446 -2.77617,13.16374c2.12307,4.96065 12.74764,5.53249 10.15874,12.38786c-2.47266,6.54748 -7.00967,7.19826 -9.44896,9.44827c-3.92553,3.62096 -7.6092,-20.63716 -10.77994,-19.65876c-8.53513,2.63372 -7.72428,25.6054 -7.72428,25.6054c0,0 18.26744,18.22886 16.62446,31.68017c-1.64298,13.45132 -13.50237,-1.46104 -15.66904,13.49342c-2.16667,14.95444 17.56771,16.4466 9.1792,31.29976c-8.28177,14.66415 6.51774,29.50082 13.36894,34.40725c6.85119,4.90643 -2.80944,-24.85237 10.50972,-17.30676c13.31917,7.54562 8.85094,20.78775 11.84731,35.78684c2.99637,14.9991 -14.64546,8.86615 -14.33144,30.80017c0.31403,21.93401 17.50548,28.11556 15.47795,49.28026c-2.02753,21.1647 -23.64263,2.47509 -24.07682,19.36011c-0.43418,16.88502 22.35705,47.52026 22.35705,47.52026c0,0 8.02778,-1.09854 8.68088,3.00618c0.6785,4.26441 -6.84867,12.44095 -5.29917,13.70156c2.43386,1.98006 13.45179,-3.01282 13.45179,-3.01282c0,0 17.99138,35.71434 7.68295,41.40702c-5.1808,2.86103 -25.07959,17.90525 -2.41858,50.14516c8.47864,12.06258 4.64681,23.01001 -3.3736,38.79683c-6.18688,12.17785 -17.1592,-11.58945 -24.60284,-1.24972c-4.21763,5.85861 7.45307,23.95116 5.28697,36.76559c-2.11531,12.51396 -18.11689,19.82402 -18.11689,19.82402c0,0 -11.17796,-5.6559 -17.11204,-0.93887c-5.93408,4.71702 5.06763,6.29723 4.96822,14.08008c-0.0994,7.78284 -1.83815,12.37845 -5.73257,11.73338" fill="none" stroke="#000000" stroke-width="15" stroke-linecap="round"/><path d="M0.3431,-84.6035c0,0 -5.27957,7.31446 -2.77617,13.16374c2.12307,4.96065 12.74764,5.53249 10.15874,12.38786c-2.47266,6.54748 -7.00967,7.19826 -9.44896,9.44827c-3.92553,3.62096 -7.6092,-20.63716 -10.77994,-19.65876c-8.53513,2.63372 -7.72428,25.6054 -7.72428,25.6054c0,0 18.26744,18.22886 16.62446,31.68017c-1.64298,13.45132 -13.50237,-1.46104 -15.66904,13.49342c-2.16667,14.95444 17.56771,16.4466 9.1792,31.29976c-8.28177,14.66415 6.51774,29.50082 13.36894,34.40725c6.85119,4.90643 -2.80944,-24.85237 10.50972,-17.30676c13.31917,7.54562 8.85094,20.78775 11.84731,35.78684c2.99637,14.9991 -14.64546,8.86615 -14.33144,30.80017c0.31403,21.93401 17.50548,28.11556 15.47795,49.28026c-2.02753,21.1647 -23.64263,2.47509 -24.07682,19.36011c-0.43418,16.88502 22.35705,47.52026 22.35705,47.52026c0,0 8.02778,-1.09854 8.68088,3.00618c0.6785,4.26441 -6.84867,12.44095 -5.29917,13.70156c2.43386,1.98006 13.45179,-3.01282 13.45179,-3.01282c0,0 17.99138,35.71434 7.68295,41.40702c-5.1808,2.86103 -25.07959,17.90525 -2.41858,50.14516c8.47864,12.06258 4.64681,23.01001 -3.3736,38.79683c-6.18688,12.17785 -17.1592,-11.58945 -24.60284,-1.24972c-4.21763,5.85861 7.45307,23.95116 5.28697,36.76559c-2.11531,12.51396 -18.11689,19.82402 -18.11689,19.82402c0,0 -11.17796,-5.6559 -17.11204,-0.93887c-5.93408,4.71702 5.06763,6.29723 4.96822,14.08008c-0.0994,7.78284 -1.83815,12.37845 -5.73257,11.73338" fill="none" stroke="#142a0e" stroke-width="5" stroke-linecap="round"/><path d="M57.00638,384.34205l-8.10977,-3.92714l0.77666,-4.74764l3.23863,-2.38682z" data-paper-data="{&quot;index&quot;:null}" fill="url(#color-1)" stroke="#000000" stroke-width="2" stroke-linecap="butt"/><path d="M62.98166,371.90815l-8.5192,-1.10329l-0.00683,-4.87836l2.76707,-3.40668z" data-paper-data="{&quot;index&quot;:null}" fill="url(#color-2)" stroke="#000000" stroke-width="2" stroke-linecap="butt"/><path d="M66.54575,356.79658l-8.30208,2.97278l-1.1086,-4.60806l1.84593,-4.52449z" data-paper-data="{&quot;index&quot;:null}" fill="url(#color-3)" stroke="#000000" stroke-width="2" stroke-linecap="butt"/><path d="M64.85263,335.48408l-6.23618,10.19907l-2.93836,-2.62328l-0.23882,-5.34395z" data-paper-data="{&quot;index&quot;:null}" fill="url(#color-4)" stroke="#000000" stroke-width="2" stroke-linecap="butt"/><path d="M57.00071,289.2093l0.36246,-5.22553l2.77986,-2.77052l5.4802,9.48578z" data-paper-data="{&quot;index&quot;:null}" fill="url(#color-5)" stroke="#000000" stroke-width="2" stroke-linecap="butt"/><path d="M49.78687,296.82185l2.03207,-4.35489l3.35667,-0.53929l1.71787,12.103z" data-paper-data="{&quot;index&quot;:null}" fill="url(#color-6)" stroke="#000000" stroke-width="2" stroke-linecap="butt"/><path d="M43.01568,309.89557l-0.25416,-5.23883l2.41574,-3.4093l6.51121,8.01161z" data-paper-data="{&quot;index&quot;:null}" fill="url(#color-7)" stroke="#000000" stroke-width="2" stroke-linecap="butt"/><path d="M47.55392,324.55123l-2.88016,-3.20515l-0.15997,-4.87292l8.47111,-1.70954z" data-paper-data="{&quot;index&quot;:null}" fill="url(#color-8)" stroke="#000000" stroke-width="2" stroke-linecap="butt"/><path d="M54.58537,335.84905l-3.50065,-1.76343l-0.96292,-4.79177l8.47312,-5.94741z" data-paper-data="{&quot;index&quot;:null}" fill="url(#color-9)" stroke="#000000" stroke-width="2" stroke-linecap="butt"/><path d="M59.90169,275.34585l-2.81281,-3.99026l0.60793,-5.23436l10.08563,-0.15428z" data-paper-data="{&quot;index&quot;:null}" fill="url(#color-10)" stroke="#000000" stroke-width="2" stroke-linecap="butt"/><path d="M29.99783,405.91915l-2.03652,-4.35054l0.90874,-4.69847l8.41367,2.22386z" data-paper-data="{&quot;index&quot;:null}" fill="url(#color-11)" stroke="#000000" stroke-width="2" stroke-linecap="butt"/><path d="M28.25053,418.54706l-0.59241,-5.18149l2.18426,-3.72082l7.00166,7.09642z" data-paper-data="{&quot;index&quot;:null}" fill="url(#color-12)" stroke="#000000" stroke-width="2" stroke-linecap="butt"/><path d="M40.56182,387.73841l2.86456,-3.91271l3.5989,1.07087l-0.26585,14.56372z" data-paper-data="{&quot;index&quot;:null}" fill="url(#color-13)" stroke="#000000" stroke-width="2" stroke-linecap="butt"/><path d="M28.23302,394.77693l-2.59011,-3.68558l0.24993,-4.86498l8.55209,-0.21455z" data-paper-data="{&quot;index&quot;:null}" fill="url(#color-14)" stroke="#000000" stroke-width="2" stroke-linecap="butt"/><path d="M29.3033,145.11325l-3.42217,-2.82763l-0.33231,-5.28575l9.72783,-3.84891z" data-paper-data="{&quot;index&quot;:null}" fill="url(#color-15)" stroke="#000000" stroke-width="2" stroke-linecap="butt"/><path d="M32.45998,155.72949l-2.35614,-4.56588l1.1562,-5.03789l9.98281,2.08048z" data-paper-data="{&quot;index&quot;:null}" fill="url(#color-16)" stroke="#000000" stroke-width="2" stroke-linecap="butt"/><path d="M31.3809,167.47043l-0.85076,-5.5605l2.48611,-3.90823l8.51152,7.8166z" data-paper-data="{&quot;index&quot;:null}" fill="url(#color-17)" stroke="#000000" stroke-width="2" stroke-linecap="butt"/><path d="M28.03672,176.23101l1.35108,-5.34986l3.55058,-1.36643l4.27043,13.19851z" data-paper-data="{&quot;index&quot;:null}" fill="url(#color-18)" stroke="#000000" stroke-width="2" stroke-linecap="butt"/><path d="M22.35624,181.81736l2.92435,-3.16407l3.23491,1.53665l-1.31291,13.36799z" data-paper-data="{&quot;index&quot;:null}" fill="url(#color-19)" stroke="#000000" stroke-width="2" stroke-linecap="butt"/><path d="M26.01261,224.65483l-3.54703,-2.48598l-0.57965,-5.241l9.52476,-4.7928z" data-paper-data="{&quot;index&quot;:null}" fill="url(#color-20)" stroke="#000000" stroke-width="2" stroke-linecap="butt"/><path d="M19.52318,214.30493l-3.54703,-2.48598l-0.57965,-5.24102l9.52476,-4.79277z" data-paper-data="{&quot;index&quot;:null}" fill="url(#color-21)" stroke="#000000" stroke-width="2" stroke-linecap="butt"/><path d="M12.70081,203.312l-3.19671,-3.33302l0.05535,-5.30687l9.95455,-2.34609z" data-paper-data="{&quot;index&quot;:null}" fill="url(#color-22)" stroke="#000000" stroke-width="2" stroke-linecap="butt"/><path d="M16.64565,42.04884l-3.74853,1.76431l-2.93488,-3.19353l4.55735,-12.99678z" data-paper-data="{&quot;index&quot;:null}" fill="url(#color-23)" stroke="#000000" stroke-width="2" stroke-linecap="butt"/><path d="M-0.18356,-6.2442l-0.59247,-5.63001l2.6608,-3.66034l8.13218,8.61814z" data-paper-data="{&quot;index&quot;:null}" fill="url(#color-24)" stroke="#000000" stroke-width="2" stroke-linecap="butt"/><path d="M-7.11551,2.03255l1.92945,-4.96612l3.65656,-0.52337l2.74442,14.01908z" data-paper-data="{&quot;index&quot;:null}" fill="url(#color-25)" stroke="#000000" stroke-width="2" stroke-linecap="butt"/><path d="M-3.43165,51.77182l-3.6086,-2.29364l-0.71426,-5.20625l9.39474,-5.30126z" data-paper-data="{&quot;index&quot;:null}" fill="url(#color-26)" stroke="#000000" stroke-width="2" stroke-linecap="butt"/><path d="M-3.67821,29.27562l-1.86926,-4.95324l1.46919,-4.78822l9.22905,3.86309z" data-paper-data="{&quot;index&quot;:null}" fill="url(#color-27)" stroke="#000000" stroke-width="2" stroke-linecap="butt"/><path d="M23.06637,427.15915l1.57137,-4.79078l3.32208,-1.5231l3.05151,11.10885z" data-paper-data="{&quot;index&quot;:null}" fill="url(#color-28)" stroke="#000000" stroke-width="2" stroke-linecap="butt"/><path d="M55.85752,261.79477l-2.81281,-3.99026l0.60793,-5.23436l10.08563,-0.15428z" data-paper-data="{&quot;index&quot;:null}" fill="url(#color-29)" stroke="#000000" stroke-width="2" stroke-linecap="butt"/><path d="M49.43442,247.5984l-2.81281,-3.99026l0.60793,-5.23436l10.08563,-0.15428z" data-paper-data="{&quot;index&quot;:null}" fill="url(#color-30)" stroke="#000000" stroke-width="2" stroke-linecap="butt"/><path d="M23.98269,133.63556l-3.32865,-3.17724l-0.14985,-5.295l9.87325,-2.79649z" data-paper-data="{&quot;index&quot;:null}" fill="url(#color-31)" stroke="#000000" stroke-width="2" stroke-linecap="butt"/><path d="M38.99629,231.43609l-3.70068,-2.29877l-0.86076,-5.16869l9.33022,-5.1964z" data-paper-data="{&quot;index&quot;:null}" fill="url(#color-32)" stroke="#000000" stroke-width="2" stroke-linecap="butt"/><path d="M21.09031,107.40222l1.69678,-5.01797l3.81142,-1.16481l3.82672,12.65684z" data-paper-data="{&quot;index&quot;:null}" fill="url(#color-33)" stroke="#000000" stroke-width="2" stroke-linecap="butt"/><path d="M29.04282,99.03176l0.31464,-5.50397l3.28032,-2.87838l6.81416,10.0857z" data-paper-data="{&quot;index&quot;:null}" fill="url(#color-34)" stroke="#000000" stroke-width="2" stroke-linecap="butt"/><path d="M32.12041,87.79428l-1.7975,-4.95302l1.74075,-4.74388l9.6527,3.96767z" data-paper-data="{&quot;index&quot;:null}" fill="url(#color-35)" stroke="#000000" stroke-width="2" stroke-linecap="butt"/><path d="M30.73836,76.70514l-2.42059,-4.43824l1.08835,-5.08915l10.01989,1.56674z" data-paper-data="{&quot;index&quot;:null}" fill="url(#color-36)" stroke="#000000" stroke-width="2" stroke-linecap="butt"/><path d="M29.5489,65.41257l-2.42059,-4.43824l1.08835,-5.08915l10.01989,1.56674z" data-paper-data="{&quot;index&quot;:null}" fill="url(#color-37)" stroke="#000000" stroke-width="2" stroke-linecap="butt"/><path d="M23.37796,46.77889l-3.96695,-0.11378l-1.93287,-4.37842l7.60534,-10.03616z" data-paper-data="{&quot;index&quot;:null}" fill="url(#color-38)" stroke="#000000" stroke-width="2" stroke-linecap="butt"/><path d="M27.18772,54.68112l-3.5676,-2.35536l-0.4041,-5.07369l10.00444,-4.79712z" data-paper-data="{&quot;index&quot;:null}" fill="url(#color-39)" stroke="#000000" stroke-width="2" stroke-linecap="butt"/><path d="M2.09856,-18.50146l-2.33701,-4.72189l1.22413,-4.86463l10.08522,2.97091z" data-paper-data="{&quot;index&quot;:null}" fill="url(#color-40)" stroke="#000000" stroke-width="2" stroke-linecap="butt"/><path d="M-0.17068,-41.13514l2.09331,-4.9277l3.75891,-0.65631l2.48372,13.58573z" data-paper-data="{&quot;index&quot;:null}" fill="url(#color-41)" stroke="#000000" stroke-width="2" stroke-linecap="butt"/></g></g></svg>