<svg version="1.1" xmlns="http://www.w3.org/2000/svg" xmlns:xlink="http://www.w3.org/1999/xlink" width="232.85272" height="12.36699" viewBox="0,0,232.85272,12.36699"><defs><linearGradient x1="184.19969" y1="299.1463" x2="184.19969" y2="307.71413" gradientUnits="userSpaceOnUse" id="color-1"><stop offset="0" stop-color="#000000"/><stop offset="1" stop-color="#404040"/></linearGradient><linearGradient x1="191.31729" y1="299.20753" x2="191.31729" y2="307.77535" gradientUnits="userSpaceOnUse" id="color-2"><stop offset="0" stop-color="#000000"/><stop offset="1" stop-color="#404040"/></linearGradient><linearGradient x1="198.298" y1="299.20753" x2="198.298" y2="307.77535" gradientUnits="userSpaceOnUse" id="color-3"><stop offset="0" stop-color="#000000"/><stop offset="1" stop-color="#404040"/></linearGradient><linearGradient x1="177.35585" y1="299.20753" x2="177.35585" y2="307.77535" gradientUnits="userSpaceOnUse" id="color-4"><stop offset="0" stop-color="#000000"/><stop offset="1" stop-color="#404040"/></linearGradient><linearGradient x1="372.36636" y1="299.47963" x2="372.36636" y2="308.04746" gradientUnits="userSpaceOnUse" id="color-5"><stop offset="0" stop-color="#000000"/><stop offset="1" stop-color="#404040"/></linearGradient><linearGradient x1="379.48396" y1="299.54086" x2="379.48396" y2="308.10868" gradientUnits="userSpaceOnUse" id="color-6"><stop offset="0" stop-color="#000000"/><stop offset="1" stop-color="#404040"/></linearGradient><linearGradient x1="386.46467" y1="299.54086" x2="386.46467" y2="308.10868" gradientUnits="userSpaceOnUse" id="color-7"><stop offset="0" stop-color="#000000"/><stop offset="1" stop-color="#404040"/></linearGradient><linearGradient x1="365.52252" y1="299.54086" x2="365.52252" y2="308.10868" gradientUnits="userSpaceOnUse" id="color-8"><stop offset="0" stop-color="#000000"/><stop offset="1" stop-color="#404040"/></linearGradient><linearGradient x1="393.65063" y1="299.54086" x2="393.65063" y2="308.10868" gradientUnits="userSpaceOnUse" id="color-9"><stop offset="0" stop-color="#000000"/><stop offset="1" stop-color="#404040"/></linearGradient><linearGradient x1="400.63134" y1="299.54086" x2="400.63134" y2="308.10868" gradientUnits="userSpaceOnUse" id="color-10"><stop offset="0" stop-color="#000000"/><stop offset="1" stop-color="#404040"/></linearGradient></defs><g transform="translate(-172.57339,-296.74169)"><g data-paper-data="{&quot;isPaintingLayer&quot;:true}" fill-rule="nonzero" stroke="#000000" stroke-width="2" stroke-linecap="round" stroke-linejoin="miter" stroke-miterlimit="10" stroke-dasharray="" stroke-dashoffset="0" style="mix-blend-mode: normal"><path d="M183.97252,307.71413c-1.11209,-0.00236 -3.23001,-1.0151 -3.23001,-1.0151l3.52633,-7.55273l3.38803,7.56742c0,0 -2.49663,1.00293 -3.68436,1.00041z" fill="url(#color-1)"/><path d="M191.09012,307.77535c-1.11209,-0.00236 -3.23001,-1.0151 -3.23001,-1.0151l3.52634,-7.55272l3.38803,7.56741c0,0 -2.49663,1.00293 -3.68436,1.00041z" fill="url(#color-2)"/><path d="M198.07083,307.77535c-1.11209,-0.00236 -3.23001,-1.0151 -3.23001,-1.0151l3.52634,-7.55272l3.38804,7.56741c0,0 -2.49663,1.00293 -3.68436,1.00041z" fill="url(#color-3)"/><path d="M177.12868,307.77535c-1.11209,-0.00236 -3.23001,-1.0151 -3.23001,-1.0151l3.52634,-7.55272l3.38804,7.56741c0,0 -2.49663,1.00293 -3.68436,1.00041z" fill="url(#color-4)"/><path d="M372.13919,308.04746c-1.11209,-0.00236 -3.23001,-1.0151 -3.23001,-1.0151l3.52633,-7.55273l3.38803,7.56742c0,0 -2.49662,1.00293 -3.68435,1.00041z" fill="url(#color-5)"/><path d="M379.25679,308.10868c-1.11209,-0.00236 -3.23001,-1.0151 -3.23001,-1.0151l3.52635,-7.55272l3.38803,7.56741c0,0 -2.49664,1.00293 -3.68437,1.00041z" fill="url(#color-6)"/><path d="M386.2375,308.10868c-1.11209,-0.00236 -3.23001,-1.0151 -3.23001,-1.0151l3.52634,-7.55272l3.38804,7.56741c0,0 -2.49663,1.00293 -3.68436,1.00041z" fill="url(#color-7)"/><path d="M365.29534,308.10868c-1.11209,-0.00236 -3.23,-1.0151 -3.23,-1.0151l3.52634,-7.55272l3.38804,7.56741c0,0 -2.49663,1.00293 -3.68436,1.00041z" fill="url(#color-8)"/><path d="M393.42346,308.10868c-1.11209,-0.00236 -3.23001,-1.0151 -3.23001,-1.0151l3.52634,-7.55272l3.38803,7.56741c0,0 -2.49664,1.00293 -3.68437,1.00041z" fill="url(#color-9)"/><path d="M400.40417,308.10868c-1.11209,-0.00236 -3.23001,-1.0151 -3.23001,-1.0151l3.52634,-7.55272l3.38804,7.56741c0,0 -2.49663,1.00293 -3.68436,1.00041z" fill="url(#color-10)"/></g></g></svg>