<svg version="1.1" xmlns="http://www.w3.org/2000/svg" xmlns:xlink="http://www.w3.org/1999/xlink" width="74.81448" height="28.85486" viewBox="0,0,74.81448,28.85486"><g transform="translate(-192.24942,-166.37104)"><g data-paper-data="{&quot;isPaintingLayer&quot;:true}" fill-rule="nonzero" stroke="#000000" stroke-linejoin="miter" stroke-miterlimit="10" stroke-dasharray="" stroke-dashoffset="0" style="mix-blend-mode: normal"><path d="M251.0283,177.70681c-0.36747,-1.67402 1.12219,-1.32939 3.92559,-2.59671c0.271,-0.12251 0.85106,-1.35118 1.13671,-1.50969c0.64461,-0.35774 -3.76627,-5.24609 -3.76627,-5.24609c0,0 5.07218,1.71214 6.60484,3.76459c0.43752,0.58591 1.30805,0.72676 2.45362,0.70881c0.79437,-0.01245 0.24896,-3.42263 0.24896,-3.42263c0,0 2.10827,0.46074 2.52951,4.32161c0.2325,2.13099 1.53247,3.8065 1.84172,5.21532c0.37198,1.69458 -4.53598,1.22773 -6.01513,3.28131c-0.74816,0.55664 -0.86646,-2.50495 -1.56179,-2.19231c-0.29714,0.1336 -3.3111,3.61611 -3.64075,3.68847c-1.70344,0.37393 -1.56649,-0.47106 -2.75115,-1.66479c-0.70064,-0.70601 -0.41569,-1.65942 -0.64849,-2.71995z" fill="#000000" stroke-width="1" stroke-linecap="butt"/><path d="M215.63027,175.25532c0,0 3.94147,1.61129 5.16231,1.83601c0.63277,0.11648 4.31727,1.55616 6.5203,1.32538c1.64708,-0.17255 2.33381,-1.71808 2.33381,-1.71808l2.33121,2.95655c0,0 -1.16135,2.28349 -3.9232,2.34924c-2.51309,0.05983 -6.85204,-0.94985 -7.42025,-1.05444c-1.14332,-0.21045 -5.68135,-2.75465 -5.68135,-2.75465z" fill="#282828" stroke-width="1" stroke-linecap="butt"/><path d="M213.99332,173.84862c0,0 1.04656,0.62361 1.48537,0.70438c0.51877,0.09549 1.0962,1.08936 1.0962,1.08936c0,0 -0.34851,0.60095 -0.43631,1.72927c-0.0914,1.17456 0.24369,1.7468 0.24369,1.7468c0,0 -0.75827,0.86961 -1.22744,0.78325c-0.49989,-0.09202 -1.69041,0.74396 -1.69041,0.74396c0,0 -0.09633,-0.62915 -0.01284,-1.18935c0.06423,-0.43098 0.15321,-0.23862 0.18402,-0.58756c0.06125,-0.6935 -0.08267,-0.97525 0.00065,-1.24123c0.02774,-0.08852 0.19168,-0.78987 0.23195,-1.40689c0.03607,-0.55257 -0.05069,-1.02299 -0.03674,-1.16291c0.07879,-0.79055 0.1159,0.03083 0.1436,-0.32508c0.03432,-0.44114 0.03652,-1.11843 0.03652,-1.11843z" fill="#0f0f0f" stroke-width="1" stroke-linecap="butt"/><path d="M216.71542,177.43727c0,0 3.94147,1.61129 5.16231,1.83601c0.63277,0.11648 4.31727,1.55617 6.5203,1.32538c1.64708,-0.17255 2.33381,-1.71809 2.33381,-1.71809l2.33121,2.95655c0,0 -1.16135,2.2835 -3.9232,2.34925c-2.51309,0.05983 -6.85204,-0.94986 -7.42025,-1.05445c-1.14332,-0.21045 -5.68135,-2.75465 -5.68135,-2.75465z" fill="#282828" stroke-width="1" stroke-linecap="butt"/><path d="M215.07848,176.03058c0,0 1.04656,0.6236 1.48537,0.70438c0.51877,0.09549 1.0962,1.08936 1.0962,1.08936c0,0 -0.34851,0.60095 -0.43631,1.72927c-0.0914,1.17456 0.24369,1.7468 0.24369,1.7468c0,0 -0.75827,0.86961 -1.22744,0.78325c-0.49989,-0.09202 -1.69042,0.74395 -1.69042,0.74395c0,0 -0.09634,-0.62915 -0.01284,-1.18934c0.06423,-0.43098 0.15321,-0.23862 0.18402,-0.58755c0.06125,-0.6935 -0.08266,-0.97524 0.00065,-1.24122c0.02774,-0.08852 0.19167,-0.78987 0.23195,-1.40689c0.03607,-0.55257 -0.05069,-1.02299 -0.03674,-1.16291c0.07879,-0.79055 0.1159,0.03082 0.1436,-0.32508c0.03432,-0.44114 0.03652,-1.11842 0.03652,-1.11842z" fill="#0f0f0f" stroke-width="1" stroke-linecap="butt"/><path d="M249.04121,190.08037c0,0 0.125,-2.9553 0.125,-4.5c0,-1.39922 -0.125,-4.375 -0.125,-4.375h3.5c0,0 -0.25,2.86592 -0.25,4.375c0,1.44661 0.25,4.5 0.25,4.5z" fill="#282828" stroke-width="1" stroke-linecap="butt"/><path d="M247.86766,193.27136c0,0 0.40278,-1.27848 0.40278,-1.79811c0,-0.61431 0.82954,-1.37873 0.82954,-1.37873c0,0 0.62159,0.35228 1.69123,0.35228c1.11346,0 1.59063,-0.44318 1.59063,-0.44318c0,0 0.94318,0.80625 0.94318,1.36183c0,0.59196 0.98611,1.90591 0.98611,1.90591c0,0 -0.57143,0.16962 -1.10935,0.12305c-0.41384,-0.03583 -0.24937,-0.15718 -0.58078,-0.16145c-0.65867,-0.0085 -0.89724,0.1851 -1.16016,0.11199c-0.0875,-0.02434 -0.77119,-0.15202 -1.35478,-0.14298c-0.52264,0.00809 -0.94736,0.15211 -1.08053,0.14854c-0.7524,-0.02016 0.00886,-0.13811 -0.32853,-0.13811c-0.41819,0 -1.05155,0.05897 -1.05155,0.05897z" fill="#0f0f0f" stroke-width="1" stroke-linecap="butt"/><path d="M247.77733,191.9276c0,0 0.25,-3.12157 0.25,-4.75c0,-1.48292 -0.25,-4.625 -0.25,-4.625h3.5c0,0 -0.25,2.80222 -0.25,4.375c0,1.55194 0.25,5 0.25,5z" fill="#282828" stroke-width="1" stroke-linecap="butt"/><path d="M251.57295,176.80303c-0.3916,-1.66854 1.10288,-1.34545 3.88769,-2.65312c0.26921,-0.12641 0.83146,-1.36332 1.11479,-1.52594c0.63938,-0.36701 -3.84162,-5.19116 -3.84162,-5.19116c0,0 5.09637,1.63873 6.6585,3.66884c0.44593,0.57953 1.31841,0.70779 2.4636,0.67331c0.79411,-0.02392 0.19952,-3.42587 0.19952,-3.42587c0,0 2.11471,0.43025 2.59164,4.28463c0.26324,2.12741 1.58727,3.78398 1.91683,5.18818c0.39641,1.68904 -4.51778,1.29309 -5.96713,3.36781c-0.74005,0.56738 -0.90254,-2.49218 -1.59328,-2.16953c-0.29518,0.13787 -3.25855,3.66354 -3.58712,3.74065c-1.69787,0.39848 -1.57313,-0.44839 -2.7749,-1.62489c-0.71076,-0.69582 -0.43961,-1.65325 -0.68769,-2.71031z" fill="#282828" stroke-width="1" stroke-linecap="butt"/><path d="M224.06149,174.38338c0.3028,-0.62354 1.10753,-0.85902 1.64227,-1.47826c0.58955,-0.68273 0.91304,-1.73603 1.28466,-2.11189c1.92904,-1.95114 8.08275,-0.67721 8.08275,-0.67721c0,0 6.64695,4.3655 7.07731,4.52609c3.33577,1.24462 9.11191,4.44183 9.11191,4.44183c0,0 2.30845,4.03018 2.21827,4.62906c-0.09817,0.65184 -0.10085,1.89529 -0.51911,2.61717c-0.38479,0.66413 -1.65528,1.37286 -2.06958,2.1287c-0.83599,1.52515 -2.11401,1.89594 -3.17486,0.78279c-0.39978,-0.41947 -0.70227,-0.58829 -1.16978,-1.04614c-0.43427,-0.42529 -1.26784,0.0822 -1.7509,0.23145c-1.58673,0.49025 -3.08875,-0.05476 -4.76129,-0.20345c-1.34001,-0.11911 -5.02007,-0.33774 -5.86752,-0.67468c-2.3314,-0.92692 -4.58018,-1.69642 -6.4019,-2.60997c-0.86762,-0.43509 0.37491,-0.49876 0.20074,-2.36693c-0.08936,-0.95855 -0.04722,-1.46666 -0.45663,-1.91362c-0.40108,-0.43787 -1.32174,-0.37474 -2.04549,-1.06188c-0.79397,-0.75382 -1.36479,-2.27563 -1.08155,-3.13983c0,0 -0.52925,-1.6409 -0.3193,-2.07324z" fill="#0f0f0f" stroke-width="1" stroke-linecap="butt"/><path d="M254.70087,184.19639c-0.54974,0.28026 -2.10391,-1.65207 -2.45647,-1.72846c-1.01691,-0.22036 -0.73515,-3.39739 -1.9534,-3.30189c-0.64942,0.05091 -0.22171,2.13333 -0.95163,2.00483c-0.78586,-0.13836 -1.24037,-1.82828 -2.12849,-1.99432c-0.77362,-0.14464 -2.30468,1.1837 -3.07574,0.91812c-0.95012,-0.32725 -0.67512,-2.15653 -1.66061,-2.57924c-0.49626,-0.21286 -2.05151,0.24723 -2.54843,0.00371c-0.33612,-0.16472 -0.63368,-2.1123 -1.64315,-2.36136c-1.14739,-0.28309 -2.0201,0.92056 -2.39951,0.54025c-0.75265,-0.75436 1.38648,-1.6749 0.44734,-2.22465c-1.32306,-0.77449 -2.77346,0.31647 -3.43189,-0.30557c-1.09577,-1.03522 -0.39575,-1.13319 -1.20887,-1.90699c-0.20217,-0.19241 -1.32378,-0.19744 -1.79947,0.22899c-0.68324,0.61247 -0.77639,1.75122 -1.17713,1.42676c-0.48885,-0.39581 -3.29482,-1.7036 -2.99976,-2.41244c0.21522,-0.51703 2.6914,-1.07205 2.74815,-1.18784c0.05811,-0.11858 0.32856,-2.19392 1.15539,-2.15765c1.108,0.04862 2.16103,1.86426 2.62911,1.6579c0.94467,-0.41646 0.93077,-2.20233 2.10827,-2.02545c0.68977,0.10361 0.714,2.44375 1.3743,2.77627c0.27816,0.14008 1.83696,-0.15908 2.54193,0.22991c0.65115,0.3593 0.45062,1.40883 0.71719,1.5252c1.1494,0.50179 1.07244,-1.39568 2.45203,-0.28976c0.56025,0.44911 1.30674,2.02251 1.89457,2.47023c0.36894,0.281 1.50804,-0.78864 2.19386,-0.42725c0.97252,0.51247 1.57509,2.42605 2.44573,2.42128c1.13829,-0.00625 1.48068,-1.31578 2.44061,-1.15119c0.97764,0.16763 1.30593,1.44776 1.92701,1.68882c1.08827,0.42242 0.4727,1.41775 0.95005,1.86117c0.96338,0.89489 2.23664,1.21897 1.9567,1.79023c0,0 -0.03248,4.24772 -0.54768,4.51035z" fill="#1e1604" stroke-width="1" stroke-linecap="butt"/><path d="M261.02448,174.56915c0.15041,0.64087 -0.28626,1.29149 -0.97533,1.45321c-0.68907,0.16172 -1.3696,-0.2267 -1.52001,-0.86757c-0.15041,-0.64087 0.28626,-1.29149 0.97533,-1.45321c0.68907,-0.16172 1.3696,0.2267 1.52001,0.86757z" fill="#ffffff" stroke-width="1" stroke-linecap="butt"/><path d="M232.322,181.92208c0,0 3.96633,-1.67534 5.87687,-1.33828c2.10204,0.37084 6.21586,3.47163 6.21586,3.47163" fill="none" stroke-width="1" stroke-linecap="round"/><path d="M246.64544,194.60471c0,0 0.40278,-1.27848 0.40278,-1.79811c0,-0.61431 0.82954,-1.37873 0.82954,-1.37873c0,0 0.62159,0.35228 1.69123,0.35228c1.11346,0 1.59063,-0.44318 1.59063,-0.44318c0,0 0.94318,0.80625 0.94318,1.36183c0,0.59196 0.98611,1.90591 0.98611,1.90591c0,0 -0.57143,0.16962 -1.10935,0.12305c-0.41384,-0.03583 -0.24937,-0.15718 -0.58078,-0.16145c-0.65867,-0.0085 -0.89724,0.1851 -1.16016,0.11199c-0.0875,-0.02434 -0.77119,-0.15202 -1.35478,-0.14298c-0.52264,0.00809 -0.94736,0.15211 -1.08053,0.14854c-0.7524,-0.02016 0.00886,-0.13811 -0.32853,-0.13811c-0.41819,0 -1.05155,0.05897 -1.05155,0.05897z" fill="#0f0f0f" stroke-width="1" stroke-linecap="butt"/><path d="M197.64874,182.89381c0,0 -6.44619,-3.86829 -3.73256,-7.43557c2.58956,-4.36702 9.21435,-6.32287 9.21435,-6.32287" fill="none" stroke-width="2" stroke-linecap="round"/><path d="M201.88076,185.00492c0,0 -6.44619,-3.86828 -3.73259,-7.43557c2.58956,-4.36702 9.21435,-6.32288 9.21435,-6.32288" fill="none" stroke-width="2" stroke-linecap="round"/></g></g></svg>