<svg version="1.1" xmlns="http://www.w3.org/2000/svg" xmlns:xlink="http://www.w3.org/1999/xlink" width="128.16299" height="99.58923" viewBox="0,0,128.16299,99.58923"><defs><radialGradient cx="227.1245" cy="184.49997" r="8.14254" gradientUnits="userSpaceOnUse" id="color-1"><stop offset="0" stop-color="#a2a2a2"/><stop offset="1" stop-color="#747474"/></radialGradient><radialGradient cx="224.18617" cy="192.48203" r="3.89296" gradientUnits="userSpaceOnUse" id="color-2"><stop offset="0" stop-color="#a2a2a2"/><stop offset="1" stop-color="#747474"/></radialGradient><linearGradient x1="303.26076" y1="152.37945" x2="303.5435" y2="163.48552" gradientUnits="userSpaceOnUse" id="color-3"><stop offset="0" stop-color="#ffffff"/><stop offset="1" stop-color="#000000"/></linearGradient></defs><g transform="translate(-213.71447,-129.81371)"><g data-paper-data="{&quot;isPaintingLayer&quot;:true}" fill-rule="nonzero" stroke-linejoin="miter" stroke-miterlimit="10" stroke-dasharray="" stroke-dashoffset="0" style="mix-blend-mode: normal"><path d="M226.58747,161.18964c6.69536,0 12.123,6.18608 12.123,13.81701c0,7.63093 -5.42765,13.81702 -12.123,13.81702c-6.69535,0 -12.123,-6.18609 -12.123,-13.81702c0,-7.63093 5.42765,-13.81701 12.123,-13.81701z" data-paper-data="{&quot;index&quot;:null}" fill="#101f36" stroke="#000000" stroke-width="1.5" stroke-linecap="butt"/><g data-paper-data="{&quot;index&quot;:null}" stroke="#000000" stroke-linecap="butt"><path d="M232.07506,151.12706c0,0 -0.37714,-2.77517 0.67927,-3.60415c0.73345,-0.57555 1.49318,-0.11814 1.66822,0.6469c0.19138,0.83651 -0.40402,2.1811 -0.35207,2.21404c0.03313,0.02101 1.78351,-1.18446 2.48164,-0.46231c0.69814,0.72215 0.35773,2.24855 -0.20755,2.52165c-0.66664,0.32206 -1.97387,0.34906 -1.97387,0.34906l-4.27275,8.03132c0,0 0.7874,0.7121 0.74326,1.75045c-0.0571,1.34327 -1.19657,1.90591 -1.87615,1.46388c-0.67957,-0.442 -0.7142,-2.65968 -0.84008,-2.76606c-0.11989,-0.10134 -1.25006,1.26704 -1.96973,0.69515c-0.71968,-0.57189 -0.89195,-1.26893 -0.36453,-2.55003c0.31719,-0.77049 1.94413,-0.48865 1.94413,-0.48865z" data-paper-data="{&quot;index&quot;:null}" fill="#d6d6d6" stroke-width="1.5"/><path d="M226.42467,163.37272c0,0 -1.57544,-2.31554 -0.99973,-3.52871c0.39971,-0.84229 1.2837,-0.77178 1.78161,-0.16516c0.54443,0.66331 0.61131,2.1323 0.67251,2.13861c0.03902,0.00402 1.0679,-1.85565 2.01485,-1.52074c0.94696,0.33491 1.32316,1.85288 0.93906,2.34946c-0.45299,0.5856 -1.61091,1.19288 -1.61091,1.19288l-0.24163,9.09396c0,0 1.02236,0.2861 1.44602,1.23511c0.54808,1.2277 -0.22078,2.23955 -1.02617,2.14706c-0.80538,-0.09246 -1.8256,-2.06184 -1.98571,-2.1009c-0.1525,-0.03723 -0.55363,1.69161 -1.45283,1.50079c-0.89921,-0.19081 -1.36433,-0.73783 -1.46373,-2.11968c-0.0598,-0.83107 1.52203,-1.30455 1.52203,-1.30455z" data-paper-data="{&quot;index&quot;:null}" fill="#d6d6d6" stroke-width="1.5"/><path d="M222.83052,179.02118c0.4182,-1.94549 0.96315,-3.94062 1.22375,-4.45681c1.25382,-2.48344 2.42843,-2.96165 3.96777,-2.58111c0.79066,0.19546 0.86667,-0.15474 1.29398,0.58007c0.50879,0.87491 1.31073,2.94596 0.62926,4.29575c-0.01996,0.03953 -0.48647,1.54603 -1.18074,3.06727c-0.07869,0.17243 -0.86887,0.07166 -0.92076,0.08113c-0.3646,0.06655 0.59562,-3.20535 0.5453,-3.12191c-0.14582,0.24175 -0.69389,1.55649 -1.3217,2.98173c-0.84326,1.91434 -2.7381,0.21565 -3.08763,0.19633c-0.28223,-0.0156 1.35677,2.58294 2.03734,-0.3637c0.57211,-2.47707 0.92684,-3.16024 0.79504,-2.97283c-0.17648,0.25093 -0.60422,1.53039 -1.11738,3.0161c-0.85283,2.4691 -2.48625,0.3339 -3.04988,0.16799c-0.28398,-0.08423 1.56129,2.18323 1.97021,-0.45607c0.21539,-1.39018 0.56639,-2.6055 0.54027,-3.08838c-0.01827,-0.33786 -0.41681,1.12958 -0.92606,2.79283c-0.57571,1.88033 -1.83754,-1.34456 -2.30678,-1.28925c-0.40809,0.0481 0.44438,3.30773 0.90802,1.15086z" data-paper-data="{&quot;index&quot;:null}" fill="#d6d6d6" stroke-width="1"/></g><path d="M231.13748,174.55417c0,0 0.84788,0.70904 0.98666,1.31343c0.17831,0.77657 -0.38133,1.32235 -0.83161,1.28127c-0.11309,0.63063 -8.79688,-1.15899 -8.79688,-1.15899c0,0 -0.89053,-1.07042 -0.833,-1.46839c0.06371,-0.44074 1.19861,-1.06086 1.19861,-1.06086z" data-paper-data="{&quot;index&quot;:null}" fill="#111111" stroke="#000000" stroke-width="1.5" stroke-linecap="butt"/><path d="M241.15625,170.82897c0,0 1.2453,-2.53449 2.76612,-2.7727c1.05589,-0.1654 1.53613,0.56197 1.26268,1.2922c-0.299,0.79845 -1.66704,1.68104 -1.63517,1.73222c0.0203,0.03261 2.44233,-0.21871 2.70788,0.70713c0.26556,0.92584 -0.95773,2.07671 -1.67226,2.05875c-0.84262,-0.02118 -2.14295,-0.57837 -2.14295,-0.57837l-8.87527,4.95398c0,0 0.35913,0.95687 -0.28886,1.82296c-0.83827,1.12042 -2.28565,1.09458 -2.69608,0.41592c-0.41043,-0.67865 0.84684,-2.58561 0.78508,-2.73223c-0.05882,-0.13966 -1.96621,0.5259 -2.34043,-0.28132c-0.37425,-0.80723 -0.13764,-1.47825 1.12661,-2.33689c0.76033,-0.5164 2.19504,0.44611 2.19504,0.44611z" data-paper-data="{&quot;index&quot;:null}" fill="#d6d6d6" stroke="#000000" stroke-width="1.5" stroke-linecap="butt"/><path d="M238.13881,173.74566c0,0 -2.728,0.07493 -3.63049,-1.16092c-0.62662,-0.85805 -0.42857,-1.42184 0.31812,-1.519c0.81646,-0.10621 1.59851,-0.30167 1.62735,-0.35366c0.01838,-0.03313 -0.51272,-1.26352 0.1522,-1.92878c0.66493,-0.66526 2.20642,-0.11687 2.52001,0.52413c0.36982,0.75591 0.49459,2.16608 0.49459,2.16608l8.29676,5.55654c0,0 0.64824,-0.76254 1.68283,-0.5912c1.3384,0.22165 1.98258,1.51519 1.59449,2.19387c-0.38806,0.6787 -2.58802,0.45149 -2.68425,0.57429c-0.09166,0.11693 1.35209,1.49649 0.83802,2.20289c-0.51404,0.70638 -1.19347,0.80864 -2.50533,0.08821c-0.789,-0.4333 -0.63099,-2.15073 -0.63099,-2.15073z" data-paper-data="{&quot;index&quot;:null}" fill="#d6d6d6" stroke="#000000" stroke-width="1.5" stroke-linecap="butt"/><path d="M242.98149,165.65544c0.51533,1.8727 2.41906,1.50843 3.43804,1.78788c1.31821,0.36152 1.73167,1.0324 1.73167,1.0324c1.02106,3.27758 -1.14061,4.08235 -3.35003,4.06799c-0.82865,-0.00538 -1.83741,-2.4556 -3.61649,-2.7832c-0.89567,-0.16492 -3.22502,3.12676 -4.2686,2.66388c-1.4649,-0.64976 -2.28771,0.08983 -3.02358,-0.232c-0.80543,-0.35225 -1.42778,-1.81819 -0.75216,-3.92576c1.29287,-4.03312 4.90993,2.0583 5.92392,-2.54351c0.24688,-1.12043 0.40142,-2.18638 0.40403,-3.331c0.06857,-2.36319 -5.93734,1.13884 -5.98408,-2.13849c-0.04674,-3.27733 6.06773,-0.20796 5.98982,-2.35658c0.05132,-2.46496 -6.08746,1.07063 -6.00714,-2.63556c0.08032,-3.70619 6.21686,0.42815 6.04299,-2.30954c-0.05249,-1.34322 -1.32905,-0.96329 -2.67681,-1.31947c-1.56612,-0.41388 -3.36244,-0.61982 -3.31367,-1.25331c0.09073,-1.17864 2.08101,-1.72942 2.08101,-1.72942c0,0 1.41154,0.18788 3.08596,0.18788c0.3338,0 0.14623,-3.4206 0.14623,-3.4206c0,0 3.14314,0.02076 3.80628,0.03856c0.27878,0.00748 -0.01854,3.53962 0.19398,3.53962c1.20377,0 2.5278,-0.43636 2.5278,-0.43636c0,0 3.09611,0.03708 2.64124,1.82943c-0.41868,1.64976 -3.433,1.24137 -3.58179,1.27802c-1.42713,0.35157 -3.05562,-0.03535 -2.72877,1.58961c0.13238,1.8393 6.34165,-1.61841 6.2671,2.14519c-0.07455,3.7636 -6.01911,-0.5803 -6.08923,2.58714c0.31073,1.95039 5.89514,-1.25066 6.16004,2.29769c0.26491,3.54834 -6.19211,-0.21912 -5.90328,2.03879c0.20484,1.51713 0.46958,1.92825 0.85551,3.33072z" data-paper-data="{&quot;index&quot;:null}" fill="#d6d6d6" stroke="#000000" stroke-width="1.5" stroke-linecap="butt"/><path d="M250.58616,190.09946c0,0 1.26864,0.68683 1.18214,1.44943c-0.14384,1.26801 -0.548,1.70347 -1.29005,1.74027c-0.74206,0.0368 -0.99069,-1.63167 -1.11677,-1.62091c-0.13237,0.01128 -1.05387,1.6812 -1.71493,1.64131c-0.66107,-0.03988 -1.2422,-1.0998 -0.73945,-2.15456c0.38862,-0.81532 1.23545,-0.9214 1.23545,-0.9214l0.21588,-8.48466c0,0 -0.91684,-0.74491 -1.25968,-1.3596c-0.29073,-0.52123 0.08502,-1.87244 0.87258,-2.03563c0.78753,-0.16319 1.54224,1.72485 1.57424,1.72721c0.05019,0.0037 0.17146,-1.35034 0.64561,-1.88142c0.43363,-0.48569 1.1578,-0.41313 1.44555,0.43165c0.41445,1.21675 -0.97561,3.12151 -0.97561,3.12151z" data-paper-data="{&quot;index&quot;:null}" fill="#d6d6d6" stroke="#000000" stroke-width="1.5" stroke-linecap="butt"/><path d="M226.53709,190.05891c0,0 1.06117,1.41539 0.60483,2.21798c-0.7588,1.33451 -1.40726,1.61036 -2.23602,1.26959c-0.82875,-0.34076 -0.30909,-2.32195 -0.45202,-2.37484c-0.15006,-0.05554 -1.94977,1.32545 -2.65358,0.94113c-0.70383,-0.38429 -0.83639,-1.86052 0.21367,-2.77357c0.8117,-0.70579 1.78786,-0.38808 1.78786,-0.38808l4.26113,-9.31369c0,0 -0.64899,-1.29894 -0.73224,-2.15809c-0.07059,-0.72851 0.98123,-2.03617 1.91969,-1.81241c0.93843,0.22375 0.86788,2.70915 0.90175,2.72823c0.05311,0.02992 0.82806,-1.41178 1.5984,-1.75784c0.70451,-0.31647 1.46182,0.13657 1.37567,1.22296c-0.12411,1.56471 -2.54749,2.96559 -2.54749,2.96559z" data-paper-data="{&quot;index&quot;:null}" fill="url(#color-1)" stroke="#000000" stroke-width="1.5" stroke-linecap="butt"/><g stroke="#000000" stroke-width="1"><path d="M219.94971,194.3531c0,0 -0.65804,-1.26954 -0.65804,-1.87107c0,-0.64307 1.80303,-1.49686 1.80303,-1.49686c0,0 1.89489,0.24948 3.13622,0.24948c1.34557,0 2.70323,-0.49895 2.70323,-0.49895c0,0 2.12152,0.94877 2.12152,1.6216c0,0.54936 -0.97653,1.99581 -0.97653,1.99581c0,0 -2.78393,0.49895 -4.1167,0.49895c-1.25825,0 -4.01273,-0.49895 -4.01273,-0.49895z" fill="url(#color-2)" stroke-linecap="butt"/><path d="M222.25384,192.85624l-1.24738,1.74634" fill="none" stroke-linecap="round"/><path d="M224.00018,192.85625v1.87107" fill="none" stroke-linecap="round"/><path d="M226.12073,192.98098l0.74843,1.6216" fill="none" stroke-linecap="round"/></g><g stroke="#000000" stroke-width="1"><path d="M245.18972,194.19702c0,0 -0.65804,-1.26953 -0.65804,-1.87107c0,-0.64307 1.80303,-1.49686 1.80303,-1.49686c0,0 1.89489,0.24948 3.13622,0.24948c1.34556,0 2.70322,-0.49895 2.70322,-0.49895c0,0 2.12152,0.94878 2.12152,1.6216c0,0.54936 -0.97653,1.99581 -0.97653,1.99581c0,0 -2.78392,0.49896 -4.11669,0.49896c-1.25825,0 -4.01273,-0.49896 -4.01273,-0.49896z" fill="#d6d6d6" stroke-linecap="butt"/><path d="M247.49386,192.70017l-1.24738,1.74633" fill="none" stroke-linecap="round"/><path d="M249.2402,192.70016v1.87107" fill="none" stroke-linecap="round"/><path d="M251.36075,192.8249l0.74843,1.6216" fill="none" stroke-linecap="round"/></g><path d="M226.22,190.27601c0,0 0.99754,1.33052 0.56856,2.08499c-0.7133,1.25449 -1.32288,1.5138 -2.10194,1.19346c-0.77906,-0.32033 -0.29056,-2.18272 -0.42492,-2.23244c-0.14106,-0.05221 -1.83286,1.24597 -2.49447,0.8847c-0.66163,-0.36125 -0.78624,-1.74896 0.20086,-2.60726c0.76303,-0.66347 1.68066,-0.36481 1.68066,-0.36481l4.00563,-8.75523c0,0 -0.61008,-1.22105 -0.68833,-2.02869c-0.06636,-0.68483 0.92239,-1.91408 1.80458,-1.70373c0.88216,0.21033 0.81584,2.5467 0.84768,2.56464c0.04993,0.02813 0.77841,-1.32713 1.50256,-1.65244c0.66227,-0.29749 1.37417,0.12838 1.29318,1.14963c-0.11667,1.47089 -2.39474,2.78777 -2.39474,2.78777z" data-paper-data="{&quot;index&quot;:null}" fill="#d6d6d6" stroke="#000000" stroke-width="1.5" stroke-linecap="butt"/><g stroke="#000000" stroke-width="1"><path d="M219.9497,194.3531c0,0 -0.65804,-1.26954 -0.65804,-1.87107c0,-0.64307 1.80303,-1.49686 1.80303,-1.49686c0,0 1.89489,0.24948 3.13622,0.24948c1.34557,0 2.70323,-0.49895 2.70323,-0.49895c0,0 2.12152,0.94877 2.12152,1.6216c0,0.54936 -0.97653,1.99581 -0.97653,1.99581c0,0 -2.78393,0.49895 -4.1167,0.49895c-1.25825,0 -4.01273,-0.49895 -4.01273,-0.49895z" fill="#d6d6d6" stroke-linecap="butt"/><path d="M221.00645,194.60258l1.24738,-1.74634" fill="none" stroke-linecap="round"/><path d="M224.00017,192.85625v1.87107" fill="none" stroke-linecap="round"/><path d="M226.12072,192.98098l0.74843,1.6216" fill="none" stroke-linecap="round"/></g><path d="M244.93476,149.58828l-1.74298,0.00786l0.04478,-1.71721l-0.31493,-0.0093l-0.01769,1.76361l-1.83491,-0.03914l0.00601,-1.74555l-0.28177,-0.00552l-0.05743,1.77484l-1.55483,-0.02477c0,0 -1.18483,-0.31042 -1.18147,-1.00257c-0.20342,-0.73094 -0.16258,-2.73818 -0.35797,-3.10357c-1.10103,-0.44413 -4.29094,-2.79583 -4.27482,-5.92084c0.03109,-6.02554 5.279,-9.04675 8.31074,-9.00191c3.03173,0.04485 5.4357,4.04308 5.40458,10.06864c0,0 -0.12095,3.9146 -1.35708,4.17479c-0.37396,0.93123 -0.37187,1.66644 -0.54083,2.6641z" fill="#d6d6d6" stroke="#000000" stroke-width="1.5" stroke-linecap="butt"/><path d="M244.81849,139.36967c0,-1.10182 0.3941,-1.99499 0.88027,-1.99499c0.48616,0 0.88027,0.89318 0.88027,1.99499c0,1.10182 -0.39411,1.99499 -0.88027,1.99499c-0.48616,0 -0.88027,-0.89319 -0.88027,-1.99499z" fill="#1d1d1d" stroke="#000000" stroke-width="1" stroke-linecap="butt"/><path d="M240.87033,139.3592c0,-1.10182 0.52178,-1.99499 1.16545,-1.99499c0.64366,0 1.16545,0.89318 1.16545,1.99499c0,1.10182 -0.52179,1.99499 -1.16545,1.99499c-0.64366,0 -1.16545,-0.89319 -1.16545,-1.99499z" fill="#1d1d1d" stroke="#000000" stroke-width="1" stroke-linecap="butt"/><g data-paper-data="{&quot;index&quot;:null}" stroke="#000000" stroke-width="1.5" stroke-linecap="butt"><path d="M265.05089,157.97448c-0.01811,-0.71129 1.73722,-1.79867 1.73722,-1.79867l15.81425,-0.40263c0,0 0.65084,1.11797 0.66515,1.7017c0.01295,0.52769 -0.58287,1.64959 -0.58287,1.64959l-15.81425,0.40263z" fill="#1b0c00"/><path d="M283.1524,155.52413c0,0 0.08177,-2.99535 4.44493,-3.15571c1.28453,-0.0472 3.29017,1.49343 5.44657,1.50423c2.19578,0.01101 5.68172,-1.00324 9.64279,-1.01116c5.65285,-0.0113 11.86826,1.0115 13.22412,1.31993c8.00623,1.82107 14.61799,10.09524 14.61799,10.09524c0,0 -4.8838,-2.88695 -10.05799,-4.31634c-3.8215,-1.05569 -13.36492,-2.01385 -17.15255,-2.3571c-8.91597,-0.808 -20.86088,5.48606 -20.86088,5.48606z" data-paper-data="{&quot;index&quot;:null}" fill="url(#color-3)"/><path d="M279.74215,149.9603l2.92882,-0.06962c0,0 2.83454,4.9975 2.89817,7.4963c0.06679,2.62274 -2.63121,7.88982 -2.63121,7.88982l-2.67946,0.06253c0,0 2.53767,-5.43709 2.47091,-8.05984c-0.0636,-2.49877 -2.98725,-7.31914 -2.98725,-7.31914z" fill="#151515"/></g><path d="M272.63814,154.35398c0,0 0.85594,-1.41202 1.64528,-1.1452c1.31248,0.44361 1.72498,1.03129 1.68362,1.94961c-0.04136,0.9183 -1.81551,0.87191 -1.81782,1.02887c-0.00244,0.16479 1.64721,1.64734 1.53424,2.45008c-0.11295,0.80279 -1.28559,1.29257 -2.33608,0.45346c-0.81204,-0.64862 -0.83194,-1.71008 -0.83194,-1.71008l-8.86264,-2.0523c0,0 -0.87889,0.96808 -1.55954,1.25929c-0.57721,0.24694 -1.95182,-0.49879 -2.03793,-1.49955c-0.08611,-1.00074 1.97251,-1.52905 1.97844,-1.56785c0.00928,-0.06081 -1.39574,-0.49484 -1.90087,-1.18854c-0.46195,-0.63442 -0.30797,-1.50775 0.60774,-1.68287c1.31894,-0.25223 3.16406,1.85473 3.16406,1.85473z" data-paper-data="{&quot;index&quot;:null}" fill="#d6d6d6" stroke="#000000" stroke-width="1.5" stroke-linecap="butt"/><path d="M274.23349,162.85887c-0.57175,0.53281 -2.27053,-3.36165 -2.47119,-4.56433c-0.4578,-2.74406 0.20651,-3.82439 1.67281,-4.42798c0.75317,-0.31002 0.60732,-0.63735 1.38648,-0.29757c0.9277,0.40456 2.79925,1.60023 3.04809,3.09169c0.01391,0.08342 0.93553,4.6276 0.10153,4.8866c-0.60966,0.37375 -1.35072,-4.05568 -1.34071,-3.94486c0.05953,0.65884 0.45077,4.01578 -0.06084,4.34923c-0.43587,0.28408 -1.31445,-4.04591 -1.30445,-3.54434c0.01628,0.81646 0.61107,3.53566 -0.27406,3.85533c-0.42563,0.15273 -0.38613,-2.08219 -1.27498,-3.16601c-0.45712,-0.55739 1.16875,3.15515 0.51734,3.76221z" data-paper-data="{&quot;index&quot;:null}" fill="#d6d6d6" stroke="#000000" stroke-width="1" stroke-linecap="butt"/><path d="M259.32991,151.23934c0,0 1.03821,-1.62472 1.95232,-1.29142c1.51992,0.55413 1.98525,1.25157 1.91159,2.32245c-0.07366,1.07087 -2.1435,0.9677 -2.15054,1.15087c-0.00741,0.1923 1.87742,1.96859 1.72337,2.9026c-0.15405,0.93404 -1.5365,1.47341 -2.73964,0.46482c-0.93003,-0.77964 -0.92394,-2.0193 -0.92394,-2.0193l-10.28944,-2.64067c0,0 -1.05273,1.10584 -1.85538,1.427c-0.68064,0.27231 -2.26474,-0.6362 -2.33763,-1.80684c-0.07287,-1.17063 2.34492,-1.73052 2.3529,-1.77562c0.01251,-0.07074 -1.61569,-0.61623 -2.18621,-1.44c-0.52177,-0.75337 -0.31788,-1.76863 0.75596,-1.94778c1.54667,-0.25802 3.64244,2.25258 3.64244,2.25258z" data-paper-data="{&quot;index&quot;:null}" fill="#d6d6d6" stroke="#000000" stroke-width="1.5" stroke-linecap="butt"/><path d="M336.34642,165.99105c0,0 6.12797,17.80821 -4.50465,37.30876c-11.17605,20.4972 -34.06308,21.80772 -34.06308,21.80772" fill="none" stroke="#ffffff" stroke-width="5" stroke-linecap="round"/><path d="M338.22688,164.9126c0,0 6.12493,18.66704 -5.22256,39.37902c-11.92747,21.77055 -35.16298,22.8211 -35.16298,22.8211" fill="none" stroke="#404040" stroke-width="4" stroke-linecap="round"/><path d="M338.62788,163.43312c0,0 6.99843,19.81072 -4.83361,41.40711c-12.43677,22.70016 -37.09249,23.56271 -37.09249,23.56271" fill="none" stroke="#000000" stroke-width="2" stroke-linecap="round"/></g></g></svg>