<svg version="1.1" xmlns="http://www.w3.org/2000/svg" xmlns:xlink="http://www.w3.org/1999/xlink" width="605.45175" height="450.79277" viewBox="0,0,605.45175,450.79277"><defs><radialGradient cx="239.76968" cy="217.07787" r="31.6875" gradientUnits="userSpaceOnUse" id="color-1"><stop offset="0" stop-color="#1494cc"/><stop offset="1" stop-color="#1494cc" stop-opacity="0"/></radialGradient><linearGradient x1="240.28343" y1="218.18374" x2="240.28343" y2="221.56309" gradientUnits="userSpaceOnUse" id="color-2"><stop offset="0" stop-color="#00b2ff"/><stop offset="1" stop-color="#1000ff"/></linearGradient><radialGradient cx="34.26518" cy="76.09431" r="31.6875" gradientUnits="userSpaceOnUse" id="color-3"><stop offset="0" stop-color="#1494cc"/><stop offset="1" stop-color="#1494cc" stop-opacity="0"/></radialGradient><linearGradient x1="34.77893" y1="77.20019" x2="34.77893" y2="80.57958" gradientUnits="userSpaceOnUse" id="color-4"><stop offset="0" stop-color="#00b2ff"/><stop offset="1" stop-color="#1000ff"/></linearGradient><linearGradient x1="541.72781" y1="128.96123" x2="541.72781" y2="256.46128" gradientUnits="userSpaceOnUse" id="color-5"><stop offset="0" stop-color="#000000" stop-opacity="0"/><stop offset="1" stop-color="#000000" stop-opacity="0"/></linearGradient><linearGradient x1="363.34722" y1="222.24425" x2="483.34722" y2="222.24425" gradientUnits="userSpaceOnUse" id="color-6"><stop offset="0" stop-color="#000000" stop-opacity="0"/><stop offset="1" stop-color="#000000"/></linearGradient><linearGradient x1="423.34722" y1="-2.03877" x2="423.34722" y2="446.52725" gradientUnits="userSpaceOnUse" id="color-7"><stop offset="0" stop-color="#000000" stop-opacity="0"/><stop offset="1" stop-color="#000000" stop-opacity="0"/></linearGradient></defs><g transform="translate(2.34345,2.03874)"><g data-paper-data="{&quot;isPaintingLayer&quot;:true}" fill-rule="nonzero" stroke-linejoin="miter" stroke-miterlimit="10" stroke-dasharray="" stroke-dashoffset="0" style="mix-blend-mode: normal"><g stroke="#000000" stroke-linecap="butt"><path d="M208.08217,217.07787c0,-17.50052 14.18698,-31.6875 31.6875,-31.6875c17.50052,0 31.6875,14.18698 31.6875,31.6875c0,17.50053 -14.18698,31.6875 -31.6875,31.6875c-17.50052,0 -31.6875,-14.18697 -31.6875,-31.6875z" fill="url(#color-1)" stroke-width="0"/><path d="M242.47832,224.24917v3.95204h-4.89971v-3.95204z" fill="#323324" stroke-width="1"/><g stroke-width="0.75"><path d="M240.0897,210.21039c0.33907,-0.45842 0.61784,2.04462 0.59166,2.929c-0.02344,0.79161 0.15883,1.49602 0.08386,2.08609c-0.01159,0.09117 0.10472,1.05691 0.17785,1.32572c0.01914,0.07037 0.54694,-1.26689 0.95195,-1.85811c0.2366,-0.34539 0.5058,-0.39572 0.66246,-0.23831c0.1196,0.12018 0.18793,0.35164 0.22265,0.64319c0.08859,0.74399 -0.04165,1.87931 -0.09694,2.55555c-0.04857,0.59401 -0.02254,1.22305 -0.20004,1.78245c-0.1775,0.5594 -0.83204,1.58019 -0.88234,1.6286c-0.144,0.13859 -1.16059,0.63963 -1.31734,0.63963c-0.26598,0 -0.73816,-0.07472 -1.01281,-0.19919c-0.21345,-0.09674 -1.36238,-0.6838 -1.76552,-1.65358c-0.48287,-1.1616 -1.0065,-2.98487 -1.10044,-3.28986c-0.06579,-0.21361 -0.02559,-3.17825 0.48151,-2.62096c0.53012,0.58259 2.1685,4.07417 2.13903,3.7559c-0.01779,-0.1921 -0.37593,-2.0437 -0.20391,-3.89963c0.12984,-1.40087 0.67184,-2.77999 1.26839,-3.58649z" fill="url(#color-2)"/><path d="M239.33494,226.20341v-4.66593h1.23858v4.66593z" fill="#311800"/></g></g><path d="M239.84215,170.10302v-66" fill="none" stroke="#040404" stroke-width="4" stroke-linecap="round"/><path d="M-1.14053,302.6409v-180.03483h120.33334v180.03484z" fill="#000000" stroke="#000000" stroke-width="2" stroke-linecap="butt"/><path d="M333.35569,173.44328v-175.05727h265.66161v175.05727z" data-paper-data="{&quot;index&quot;:null}" fill="#000000" stroke="none" stroke-width="0" stroke-linecap="butt"/><path d="M396.70057,305.11661v-78.7799h205.45173v78.7799z" data-paper-data="{&quot;index&quot;:null}" fill="#000000" stroke="none" stroke-width="0" stroke-linecap="butt"/><path d="M599.13046,301.78391v145.97012h-600.47391v-145.97012z" fill="#000000" stroke="#000000" stroke-width="2" stroke-linecap="butt"/><path d="M0.02489,27.76986v-28.54504h333.54655v28.54504z" fill="#000000" stroke="#000000" stroke-width="2" stroke-linecap="butt"/><path d="M384.43555,242.70837c0,0 0,-16.72313 0,-20.89061c0,-1.75559 2.51512,-3.94272 4.09362,-3.94272c4.0367,0 20.73972,0 20.73972,0v24.83333z" fill="#060709" stroke="#000000" stroke-width="2.5" stroke-linecap="butt"/><path d="M384.49501,255.09738v-12.42564h24.83334v12.42564z" fill="#141619" stroke="#000000" stroke-width="2.5" stroke-linecap="butt"/><path d="M409.3261,230.32308v-12.42564h49.74444v12.42564z" fill="#141619" stroke="#000000" stroke-width="2.5" stroke-linecap="butt"/><path d="M409.36456,242.77285v-12.42564h24.83333v12.42564z" fill="#141619" stroke="#000000" stroke-width="2.5" stroke-linecap="butt"/><path d="M434.3261,242.75163v-12.42564h49.74444v12.42564z" fill="#141619" stroke="#000000" stroke-width="2.5" stroke-linecap="butt"/><path d="M384.44501,267.59722v-12.42564h24.83333v12.42564z" fill="#141619" stroke="#000000" stroke-width="2.5" stroke-linecap="butt"/><path d="M384.46089,280.09722v-12.42564h24.83333v12.42564z" fill="#141619" stroke="#000000" stroke-width="2.5" stroke-linecap="butt"/><path d="M409.32191,280.12059c0,0 0,16.72312 0,20.89061c0,1.75559 -2.51512,3.94272 -4.09361,3.94272c-4.0367,0 -20.73972,0 -20.73972,0v-24.83333z" fill="#060709" stroke="#000000" stroke-width="2.5" stroke-linecap="butt"/><path d="M334.84991,292.49442v-12.42564h49.74445v12.42564z" data-paper-data="{&quot;index&quot;:null}" fill="#141619" stroke="#000000" stroke-width="2.5" stroke-linecap="butt"/><path d="M359.72256,304.94417v-12.42564h24.83334v12.42564z" data-paper-data="{&quot;index&quot;:null}" fill="#141619" stroke="#000000" stroke-width="2.5" stroke-linecap="butt"/><path d="M309.84991,304.92296v-12.42564h49.74444v12.42564z" data-paper-data="{&quot;index&quot;:null}" fill="#141619" stroke="#000000" stroke-width="2.5" stroke-linecap="butt"/><path d="M285.0261,292.5023v-12.42564h49.74444v12.42564z" data-paper-data="{&quot;index&quot;:null}" fill="#141619" stroke="#000000" stroke-width="2.5" stroke-linecap="butt"/><path d="M259.95943,292.51374v12.42564h-49.74444v-12.42564z" data-paper-data="{&quot;index&quot;:null}" fill="#141619" stroke="#000000" stroke-width="2.5" stroke-linecap="butt"/><path d="M284.95943,280.0852v12.42564h-49.74444v-12.42564z" data-paper-data="{&quot;index&quot;:null}" fill="#141619" stroke="#000000" stroke-width="2.5" stroke-linecap="butt"/><path d="M309.78324,292.50586v12.42564h-49.74444v-12.42564z" data-paper-data="{&quot;index&quot;:null}" fill="#141619" stroke="#000000" stroke-width="2.5" stroke-linecap="butt"/><path d="M135.55467,292.42296v-12.42564h49.74444v12.42564z" fill="#141619" stroke="#000000" stroke-width="2.5" stroke-linecap="butt"/><path d="M135.59313,304.87282v-12.42564h24.83333v12.42564z" fill="#141619" stroke="#000000" stroke-width="2.5" stroke-linecap="butt"/><path d="M160.55467,304.8515v-12.42564h49.74444v12.42564z" fill="#141619" stroke="#000000" stroke-width="2.5" stroke-linecap="butt"/><path d="M185.37848,292.43093v-12.42564h49.74444v12.42564z" fill="#141619" stroke="#000000" stroke-width="2.5" stroke-linecap="butt"/><path d="M135.48531,280.04233v24.83333c0,0 -16.70302,0 -20.73972,0c-1.57849,0 -4.09361,-2.18713 -4.09361,-3.94272c0,-4.16749 0,-20.89061 0,-20.89061z" data-paper-data="{&quot;index&quot;:null}" fill="#060709" stroke="#000000" stroke-width="2.5" stroke-linecap="butt"/><path d="M110.68711,255.01522v-12.42564h24.83334v12.42564z" fill="#141619" stroke="#000000" stroke-width="2.5" stroke-linecap="butt"/><path d="M110.63711,267.51509v-12.42564h24.83333v12.42564z" fill="#141619" stroke="#000000" stroke-width="2.5" stroke-linecap="butt"/><path d="M110.65299,280.01509v-12.42564h24.83333v12.42564z" fill="#141619" stroke="#000000" stroke-width="2.5" stroke-linecap="butt"/><path d="M110.72104,217.54379v-12.42564h24.83334v12.42564z" fill="#141619" stroke="#000000" stroke-width="2.5" stroke-linecap="butt"/><path d="M110.67104,230.04379v-12.42564h24.83333v12.42564z" fill="#141619" stroke="#000000" stroke-width="2.5" stroke-linecap="butt"/><path d="M110.68692,242.54379v-12.42564h24.83333v12.42564z" fill="#141619" stroke="#000000" stroke-width="2.5" stroke-linecap="butt"/><path d="M110.72104,180.14373v-12.42564h24.83334v12.42564z" fill="#141619" stroke="#000000" stroke-width="2.5" stroke-linecap="butt"/><path d="M110.67104,192.64373v-12.42564h49.53333v12.42564z" fill="#141619" stroke="#000000" stroke-width="2.5" stroke-linecap="butt"/><path d="M110.68692,205.14373v-12.42564h24.83333v12.42564z" fill="#141619" stroke="#000000" stroke-width="2.5" stroke-linecap="butt"/><path d="M110.77852,142.68383v-12.42564h24.83334v12.42564z" fill="#141619" stroke="#000000" stroke-width="2.5" stroke-linecap="butt"/><path d="M110.72852,155.18383v-12.42564h24.83333v12.42564z" fill="#141619" stroke="#000000" stroke-width="2.5" stroke-linecap="butt"/><path d="M110.7444,167.68383v-12.42564h24.83333v12.42564z" fill="#141619" stroke="#000000" stroke-width="2.5" stroke-linecap="butt"/><path d="M110.71589,130.21786v-24.83333c0,0 16.70302,0 20.73972,0c1.5785,0 4.09362,2.18713 4.09362,3.94272c0,4.16748 0,20.89061 0,20.89061z" data-paper-data="{&quot;index&quot;:null}" fill="#060709" stroke="#000000" stroke-width="2.5" stroke-linecap="butt"/><path d="M60.9064,117.80548v-12.42564h49.74445v12.42564z" data-paper-data="{&quot;index&quot;:null}" fill="#141619" stroke="#000000" stroke-width="2.5" stroke-linecap="butt"/><path d="M85.77905,130.2552v-12.42564h24.83334v12.42564z" data-paper-data="{&quot;index&quot;:null}" fill="#141619" stroke="#000000" stroke-width="2.5" stroke-linecap="butt"/><path d="M35.9064,130.23398v-12.42564h49.74444v12.42564z" data-paper-data="{&quot;index&quot;:null}" fill="#141619" stroke="#000000" stroke-width="2.5" stroke-linecap="butt"/><path d="M11.08259,117.73145v-12.42564h49.74444v12.42564z" data-paper-data="{&quot;index&quot;:null}" fill="#141619" stroke="#000000" stroke-width="2.5" stroke-linecap="butt"/><path d="M359.51889,147.33038v24.83333c0,0 -16.70302,0 -20.73972,0c-1.5785,0 -4.09362,-2.18713 -4.09362,-3.94272c0,-4.16748 0,-20.89061 0,-20.89061z" data-paper-data="{&quot;index&quot;:null}" fill="#060709" stroke="#000000" stroke-width="2.5" stroke-linecap="butt"/><path d="M409.32054,159.71568v12.42564h-49.74444v-12.42564z" data-paper-data="{&quot;index&quot;:null}" fill="#141619" stroke="#000000" stroke-width="2.5" stroke-linecap="butt"/><path d="M384.44789,147.26591v12.42564h-24.83333v-12.42564z" data-paper-data="{&quot;index&quot;:null}" fill="#141619" stroke="#000000" stroke-width="2.5" stroke-linecap="butt"/><path d="M434.32054,147.28699v12.42564h-49.74444v-12.42564z" data-paper-data="{&quot;index&quot;:null}" fill="#141619" stroke="#000000" stroke-width="2.5" stroke-linecap="butt"/><path d="M459.14435,159.70771v12.42564h-49.74444v-12.42564z" data-paper-data="{&quot;index&quot;:null}" fill="#141619" stroke="#000000" stroke-width="2.5" stroke-linecap="butt"/><path d="M484.10864,147.27997v12.42564h-49.74444v-12.42564z" data-paper-data="{&quot;index&quot;:null}" fill="#141619" stroke="#000000" stroke-width="2.5" stroke-linecap="butt"/><path d="M459.14991,230.33099v-12.42564h30.22959v12.42564z" fill="#141619" stroke="#000000" stroke-width="2.5" stroke-linecap="butt"/><path d="M489.38674,159.70771v12.42564h-30.22959v-12.42564z" data-paper-data="{&quot;index&quot;:null}" fill="#141619" stroke="#000000" stroke-width="2.5" stroke-linecap="butt"/><path d="M334.70575,122.30577v-12.42564h24.83334v12.42564z" fill="#141619" stroke="#000000" stroke-width="2.5" stroke-linecap="butt"/><path d="M334.79861,134.94852v-12.42564h24.83333v12.42564z" fill="#141619" stroke="#000000" stroke-width="2.5" stroke-linecap="butt"/><path d="M334.73968,84.83434v-12.42564h24.83334v12.42564z" fill="#141619" stroke="#000000" stroke-width="2.5" stroke-linecap="butt"/><path d="M334.68968,97.33434v-12.42564h24.83333v12.42564z" fill="#141619" stroke="#000000" stroke-width="2.5" stroke-linecap="butt"/><path d="M334.70556,109.83434v-12.42564h24.83333v12.42564z" fill="#141619" stroke="#000000" stroke-width="2.5" stroke-linecap="butt"/><path d="M334.68968,59.93434v-12.42564h24.83333v12.42564z" fill="#141619" stroke="#000000" stroke-width="2.5" stroke-linecap="butt"/><path d="M334.70556,72.43429v-12.42564h24.83333v12.42564z" fill="#141619" stroke="#000000" stroke-width="2.5" stroke-linecap="butt"/><path d="M334.64919,47.41925v-24.83333c0,0 16.70302,0 20.73972,0c1.57849,0 4.09361,2.18713 4.09361,3.94272c0,4.16749 0,20.89061 0,20.89061z" data-paper-data="{&quot;index&quot;:null}" fill="#060709" stroke="#000000" stroke-width="2.5" stroke-linecap="butt"/><path d="M334.5554,34.99678v12.42564h-49.74445v-12.42564z" data-paper-data="{&quot;index&quot;:null}" fill="#141619" stroke="#000000" stroke-width="2.5" stroke-linecap="butt"/><path d="M334.51694,22.547v12.42564h-24.83334v-12.42564z" data-paper-data="{&quot;index&quot;:null}" fill="#141619" stroke="#000000" stroke-width="2.5" stroke-linecap="butt"/><path d="M309.55539,22.56821v12.42564h-49.74444v-12.42564z" data-paper-data="{&quot;index&quot;:null}" fill="#141619" stroke="#000000" stroke-width="2.5" stroke-linecap="butt"/><path d="M284.73158,34.98881v12.42564h-49.74444v-12.42564z" data-paper-data="{&quot;index&quot;:null}" fill="#141619" stroke="#000000" stroke-width="2.5" stroke-linecap="butt"/><path d="M160.17603,34.97737v-12.42564h49.74444v12.42564z" data-paper-data="{&quot;index&quot;:null}" fill="#141619" stroke="#000000" stroke-width="2.5" stroke-linecap="butt"/><path d="M185.17603,47.406v-12.42564h49.74444v12.42564z" data-paper-data="{&quot;index&quot;:null}" fill="#141619" stroke="#000000" stroke-width="2.5" stroke-linecap="butt"/><path d="M209.99984,34.9853v-12.42564h49.74444v12.42564z" data-paper-data="{&quot;index&quot;:null}" fill="#141619" stroke="#000000" stroke-width="2.5" stroke-linecap="butt"/><path d="M135.26015,35.06817v12.42564h-49.74444v-12.42564z" data-paper-data="{&quot;index&quot;:null}" fill="#141619" stroke="#000000" stroke-width="2.5" stroke-linecap="butt"/><path d="M160.26015,22.63963v12.42564h-49.74444v-12.42564z" data-paper-data="{&quot;index&quot;:null}" fill="#141619" stroke="#000000" stroke-width="2.5" stroke-linecap="butt"/><path d="M185.08396,35.06022v12.42564h-49.74444v-12.42564z" data-paper-data="{&quot;index&quot;:null}" fill="#141619" stroke="#000000" stroke-width="2.5" stroke-linecap="butt"/><path d="M10.73721,35.05478v-12.42564h49.74444v12.42564z" data-paper-data="{&quot;index&quot;:null}" fill="#141619" stroke="#000000" stroke-width="2.5" stroke-linecap="butt"/><path d="M35.69754,47.48258v-12.42564h49.74444v12.42564z" data-paper-data="{&quot;index&quot;:null}" fill="#141619" stroke="#000000" stroke-width="2.5" stroke-linecap="butt"/><path d="M60.49516,35.05478v-12.42564h49.74444v12.42564z" data-paper-data="{&quot;index&quot;:null}" fill="#141619" stroke="#000000" stroke-width="2.5" stroke-linecap="butt"/><path d="M252.41667,171.95274c0,2.77948 0,10.74105 0,15.875c0,2.67971 -2.39933,4.58906 -4.63828,4.58906c-5.17253,0 -13.2842,0 -16.10144,0c-1.5785,0 -4.09362,-2.18713 -4.09362,-3.94272c0,-2.89028 0,-11.06966 0,-16.27133c0,-2.2986 2.45796,-4.61927 4.19506,-4.61927c2.83376,0 11.0364,0 16.125,0c2.37217,0 4.51328,2.51725 4.51328,4.36927z" data-paper-data="{&quot;index&quot;:null}" fill="#060709" stroke="#000000" stroke-width="2.5" stroke-linecap="butt"/><path d="M201.92603,105.31432v-12.42564h76.24444v12.42564z" data-paper-data="{&quot;index&quot;:null}" fill="#141619" stroke="#000000" stroke-width="2.5" stroke-linecap="butt"/><path d="M359.5507,134.87035v12.42564h-49.74444v-12.42564z" data-paper-data="{&quot;index&quot;:null}" fill="#141619" stroke="#000000" stroke-width="2.5" stroke-linecap="butt"/><path d="M234.75302,110.97281v-5.6h10.4v5.6z" fill="#0b0b0b" stroke="#000000" stroke-width="2.5" stroke-linecap="butt"/><path d="M135.96609,279.52585v-37.45834c0,0 27.20955,0 33.08903,0c2.1365,0 4.3693,1.82207 4.3693,3.65636c0,5.57718 0,33.80198 0,33.80198z" fill="#0b0b0b" stroke="#000000" stroke-width="3" stroke-linecap="butt"/><path d="M142.27233,248.55249l24.36666,24.36667" fill="none" stroke="#000000" stroke-width="8" stroke-linecap="round"/><path d="M142.27233,272.91918l24.36666,-24.36667" data-paper-data="{&quot;index&quot;:null}" fill="none" stroke="#000000" stroke-width="8" stroke-linecap="round"/><path d="M142.21678,248.5525l24.42222,24.42222" fill="none" stroke="#001e52" stroke-width="3.5" stroke-linecap="round"/><path d="M166.639,248.40962l-24.42222,24.42222" data-paper-data="{&quot;index&quot;:null}" fill="none" stroke="#001e52" stroke-width="3.5" stroke-linecap="round"/><g stroke="#000000" stroke-linecap="butt"><path d="M2.57767,76.09431c0,-17.50052 14.18698,-31.6875 31.6875,-31.6875c17.50052,0 31.6875,14.18698 31.6875,31.6875c0,17.50053 -14.18698,31.6875 -31.6875,31.6875c-17.50052,0 -31.6875,-14.18697 -31.6875,-31.6875z" fill="url(#color-3)" stroke-width="0"/><path d="M36.97382,83.26565v3.95204h-4.89971v-3.95204z" fill="#323324" stroke-width="1"/><g stroke-width="0.75"><path d="M34.5852,69.22687c0.33907,-0.45842 0.61784,2.04462 0.59166,2.929c-0.02344,0.79161 0.15883,1.49602 0.08386,2.08609c-0.01159,0.09117 0.10472,1.05691 0.17785,1.32572c0.01914,0.07037 0.54694,-1.26689 0.95195,-1.85811c0.2366,-0.34539 0.5058,-0.39572 0.66246,-0.23831c0.1196,0.12018 0.18793,0.35164 0.22265,0.64319c0.08859,0.74399 -0.04165,1.87931 -0.09694,2.55555c-0.04857,0.59401 -0.02254,1.22305 -0.20004,1.78245c-0.1775,0.5594 -0.83204,1.58019 -0.88234,1.6286c-0.144,0.13859 -1.16059,0.63963 -1.31734,0.63963c-0.26598,0 -0.73816,-0.07472 -1.01281,-0.19919c-0.21345,-0.09674 -1.36238,-0.6838 -1.76552,-1.65358c-0.48287,-1.1616 -1.0065,-2.98487 -1.10044,-3.28986c-0.06579,-0.21361 -0.02559,-3.17825 0.48151,-2.62096c0.53012,0.58259 2.1685,4.07417 2.13903,3.7559c-0.01779,-0.1921 -0.37593,-2.0437 -0.20391,-3.89963c0.12984,-1.40087 0.67184,-2.77999 1.26839,-3.58649z" fill="url(#color-4)"/><path d="M33.83044,85.21994v-4.66593h1.23858v4.66593z" fill="#311800"/></g></g><path d="M480.34721,256.46128v-127.5h122.76109v127.5z" fill="#000000" stroke="url(#color-5)" stroke-width="0" stroke-linecap="butt"/><path d="M363.34722,446.52725v-448.56598h120v448.56598z" fill="url(#color-6)" stroke="url(#color-7)" stroke-width="0" stroke-linecap="butt"/></g></g></svg>