<svg version="1.1" xmlns="http://www.w3.org/2000/svg" xmlns:xlink="http://www.w3.org/1999/xlink" width="98.9061" height="101.35946" viewBox="0,0,98.9061,101.35946"><defs><linearGradient x1="252.60696" y1="156.49793" x2="241.40248" y2="153.04113" gradientUnits="userSpaceOnUse" id="color-1"><stop offset="0" stop-color="#838383"/><stop offset="1" stop-color="#000000"/></linearGradient><linearGradient x1="267.88899" y1="152.71901" x2="260.87907" y2="150.55631" gradientUnits="userSpaceOnUse" id="color-2"><stop offset="0" stop-color="#838383"/><stop offset="1" stop-color="#2c2c2c"/></linearGradient><linearGradient x1="262.77925" y1="146.89845" x2="258.39446" y2="145.54568" gradientUnits="userSpaceOnUse" id="color-3"><stop offset="0" stop-color="#838383"/><stop offset="1" stop-color="#2c2c2c"/></linearGradient><linearGradient x1="296.0302" y1="165.74196" x2="296.24916" y2="161.90531" gradientUnits="userSpaceOnUse" id="color-4"><stop offset="0" stop-color="#271100"/><stop offset="1" stop-color="#613700"/></linearGradient><linearGradient x1="255.34859" y1="165.63263" x2="255.7619" y2="157.94583" gradientUnits="userSpaceOnUse" id="color-5"><stop offset="0" stop-color="#ffffff"/><stop offset="1" stop-color="#323232"/></linearGradient><linearGradient x1="296.08643" y1="134.77858" x2="276.48685" y2="148.81515" gradientUnits="userSpaceOnUse" id="color-6"><stop offset="0" stop-color="#cca670"/><stop offset="1" stop-color="#907751"/></linearGradient><linearGradient x1="280.35126" y1="136.54754" x2="284.17302" y2="141.46625" gradientUnits="userSpaceOnUse" id="color-7"><stop offset="0" stop-color="#dadada"/><stop offset="1" stop-color="#898989"/></linearGradient><linearGradient x1="286.8545" y1="144.73791" x2="290.6763" y2="149.65664" gradientUnits="userSpaceOnUse" id="color-8"><stop offset="0" stop-color="#dadada"/><stop offset="1" stop-color="#898989"/></linearGradient><linearGradient x1="282.96679" y1="145.36616" x2="276.88513" y2="150.09157" gradientUnits="userSpaceOnUse" id="color-9"><stop offset="0" stop-color="#272727"/><stop offset="1" stop-color="#000000"/></linearGradient><linearGradient x1="269.24155" y1="174.70011" x2="251.70402" y2="150.21204" gradientUnits="userSpaceOnUse" id="color-10"><stop offset="0" stop-color="#202020"/><stop offset="1" stop-color="#000000"/></linearGradient><linearGradient x1="252.19714" y1="156.79305" x2="243.99315" y2="162.66847" gradientUnits="userSpaceOnUse" id="color-11"><stop offset="0" stop-color="#696969"/><stop offset="1" stop-color="#272727"/></linearGradient><radialGradient cx="295.45085" cy="147.44685" r="5.19534" gradientUnits="userSpaceOnUse" id="color-12"><stop offset="0" stop-color="#00059e"/><stop offset="1" stop-color="#1f5cff"/></radialGradient><radialGradient cx="285.84705" cy="140.91622" r="5.19534" gradientUnits="userSpaceOnUse" id="color-13"><stop offset="0" stop-color="#00059e"/><stop offset="1" stop-color="#1f5cff"/></radialGradient><radialGradient cx="285.78295" cy="140.84945" r="7.2184" gradientUnits="userSpaceOnUse" id="color-14"><stop offset="0" stop-color="#0015ff"/><stop offset="1" stop-color="#0015ff" stop-opacity="0"/></radialGradient><radialGradient cx="295.3388" cy="147.43294" r="6.6881" gradientUnits="userSpaceOnUse" id="color-15"><stop offset="0" stop-color="#0021ff"/><stop offset="1" stop-color="#0021ff" stop-opacity="0"/></radialGradient><linearGradient x1="278.53423" y1="179.25718" x2="272.56443" y2="184.12512" gradientUnits="userSpaceOnUse" id="color-16"><stop offset="0" stop-color="#2c2c2c"/><stop offset="1" stop-color="#464646"/></linearGradient><linearGradient x1="269.17123" y1="180.91296" x2="265.85241" y2="191.08315" gradientUnits="userSpaceOnUse" id="color-17"><stop offset="0" stop-color="#000000" stop-opacity="0"/><stop offset="1" stop-color="#000000" stop-opacity="0"/></linearGradient><linearGradient x1="233.92809" y1="154.65506" x2="227.08593" y2="162.87895" gradientUnits="userSpaceOnUse" id="color-18"><stop offset="0" stop-color="#000000" stop-opacity="0"/><stop offset="1" stop-color="#000000" stop-opacity="0"/></linearGradient><linearGradient x1="257.83014" y1="164.44386" x2="249.62616" y2="170.31929" gradientUnits="userSpaceOnUse" id="color-19"><stop offset="0" stop-color="#696969"/><stop offset="1" stop-color="#272727"/></linearGradient><linearGradient x1="263.39037" y1="171.99304" x2="255.18638" y2="177.86846" gradientUnits="userSpaceOnUse" id="color-20"><stop offset="0" stop-color="#696969"/><stop offset="1" stop-color="#272727"/></linearGradient><linearGradient x1="263.34607" y1="151.54336" x2="257.41257" y2="155.79273" gradientUnits="userSpaceOnUse" id="color-21"><stop offset="0" stop-color="#696969"/><stop offset="1" stop-color="#272727"/></linearGradient></defs><g transform="translate(-206.73896,-110.66702)"><g data-paper-data="{&quot;isPaintingLayer&quot;:true}" fill-rule="nonzero" stroke-linejoin="miter" stroke-miterlimit="10" stroke-dasharray="" stroke-dashoffset="0" style="mix-blend-mode: normal"><g><path d="M259.29491,150.38727c0,0 2.30514,0.71118 3.10649,0.9584c0.54457,0.16802 1.05154,0.98018 0.87112,1.56495c-0.25948,0.84107 -0.96785,3.13708 -1.38372,4.485c-0.17267,0.55963 -1.18528,0.79409 -1.76655,0.61476c-0.79707,-0.2459 -2.90292,-0.89561 -2.90292,-0.89561z" fill="#282828" stroke="none" stroke-width="0" stroke-linecap="butt"/><path d="M255.95938,140.63161l3.71593,1.14644l-1.20069,3.89179l-3.71594,-1.14644z" fill="#505050" stroke="none" stroke-width="0" stroke-linecap="butt"/><path d="M261.74321,142.19027c0,0 2.43089,0.74997 3.24407,1.00086c0.4738,0.14618 0.96154,1.1221 0.78617,1.69059c-0.24279,0.78699 -0.88178,2.85814 -1.30146,4.21842c-0.21622,0.70084 -1.1088,1.03703 -1.58258,0.89085c-0.8132,-0.25088 -3.24406,-1.00087 -3.24406,-1.00087z" fill="#282828" stroke="#000000" stroke-width="0.5" stroke-linecap="butt"/><path d="M259.99856,144.18719l2.50261,0.7721l-0.71417,2.31483l-2.50261,-0.7721z" fill="#000000" stroke="none" stroke-width="0" stroke-linecap="butt"/><path d="M266.02823,157.86915c-0.34226,-0.59516 -0.5218,-1.28249 -0.49984,-1.98865" fill="none" stroke="#ff9319" stroke-width="3" stroke-linecap="butt"/><path d="M264.53562,153.46446c0.46654,-0.6766 0.96056,-1.29547 1.47077,-1.84832" fill="none" stroke="#000000" stroke-width="3" stroke-linecap="butt"/><path d="M241.84929,151.59285c0,0 2.04154,-0.47113 4.00518,-1.05644c1.50741,-0.44931 3.3074,-0.38495 3.74189,-0.39847c0.74013,-0.02304 9.19047,1.87529 9.19047,1.87529c0,0 -2.08089,6.12266 -2.30999,7.32674c-0.07431,0.39046 -4.53306,-0.69261 -4.53306,-0.69261c0,0 -2.13822,-0.32618 -3.05914,-0.25088c-0.40879,0.0334 -1.56447,-0.122 -2.42614,0.16546c-1.69309,0.56482 -4.22404,1.01206 -4.22404,1.01206z" fill="url(#color-1)" stroke="#000000" stroke-width="1" stroke-linecap="butt"/><path d="M271.0145,141.72545l1.36799,0.42205l-6.37621,20.66713l-1.36799,-0.42205z" fill="#888888" stroke="#000000" stroke-width="0.5" stroke-linecap="butt"/><path d="M248.24808,199.31654l5.76314,-18.57813l2.51949,0.77731l-5.77017,18.70281z" fill="#888888" stroke="#000000" stroke-width="1" stroke-linecap="round"/><path d="M264.32364,139.39133l7.00996,2.16269l-6.88922,22.32998l-7.00995,-2.1627z" fill="url(#color-2)" stroke="#000000" stroke-width="1" stroke-linecap="butt"/><path d="M258.55892,152.16042l2.71943,0.72379l-2.40538,7.7965l-2.54934,-1.05656z" fill="#767676" stroke="#000000" stroke-width="1.5" stroke-linecap="butt"/><path d="M259.68719,141.73506c0,0 0.87349,0.59427 1.64542,-0.08111c0.7401,-0.64753 0.83553,-2.34683 1.1792,-2.24078c0.75555,0.23309 2.35282,0.72589 2.35282,0.72589l-4.17082,13.51882l-4.3848,-1.35279z" fill="url(#color-3)" stroke="#000000" stroke-width="1" stroke-linecap="butt"/><path d="M254.87156,144.86172l3.49298,1.07766l-1.74417,5.65332c0,0 -1.58462,-0.48889 -2.22253,-0.6857c-0.4823,-0.1488 -0.91267,-1.55157 -0.68436,-2.29157c0.32094,-1.04022 1.1581,-3.75374 1.1581,-3.75374z" fill="none" stroke="#000000" stroke-width="2" stroke-linecap="butt"/><path d="M262.08169,152.65878l2.97275,0.91715l-2.37611,7.70163l-2.97273,-0.91715z" fill="#000000" stroke="none" stroke-width="0" stroke-linecap="butt"/><path d="M258.26724,149.50788l2.37819,0.73372l-0.68249,2.21216l-2.37819,-0.73372z" fill="none" stroke="#000000" stroke-width="1" stroke-linecap="butt"/><path d="M258.86863,151.77966c-0.45149,-0.13929 -0.70858,-0.60527 -0.57422,-1.04081c0.13437,-0.43553 0.60929,-0.67568 1.06081,-0.53639c0.45149,0.13929 0.70858,0.60528 0.5742,1.04082c-0.13437,0.43553 -0.6093,0.67568 -1.06081,0.53639z" fill="#9e9e9e" stroke="none" stroke-width="0" stroke-linecap="butt"/><path d="M269.53125,142.37867l-6.01912,20.03734" fill="none" stroke="#000000" stroke-width="0.75" stroke-linecap="round"/><path d="M260.5314,146.25822c-0.55412,-0.17095 -0.83919,-0.84144 -0.63676,-1.49755c0.20244,-0.65612 0.81571,-1.04942 1.36982,-0.87847c0.55412,0.17095 0.83921,0.84143 0.63676,1.49755c-0.20244,0.65612 -0.81571,1.04943 -1.36982,0.87847z" fill="#858585" stroke="none" stroke-width="0" stroke-linecap="butt"/><path d="M265.68386,141.29753l2.67547,0.82544l-2.275,7.3739c0,0 -1.35989,1.19561 -1.79274,1.06207c-0.45761,-0.14118 -0.88273,-1.88748 -0.88273,-1.88748z" fill="#c7c7c7" stroke="#000000" stroke-width="0.5" stroke-linecap="butt"/><path d="M266.06257,140.86864l2.15523,0.66493l-0.25278,0.81932l-2.15524,-0.66493z" fill="#888888" stroke="#000000" stroke-width="1" stroke-linecap="butt"/><path d="M257.78288,147.38441l-0.53083,1.72058c0,0 -0.77898,-0.59924 -1.23664,-0.74044c-0.48242,-0.14884 -1.58746,-0.13086 -1.58746,-0.13086c0,0 1.12083,-1.20604 1.68904,-1.34988c0.54948,-0.13911 1.66591,0.50059 1.66591,0.50059z" fill="#5b5b5b" stroke="none" stroke-width="0" stroke-linecap="butt"/><path d="M258.37329,162.31178l4.95927,1.53003l-0.41788,1.35449l-4.95927,-1.53004z" fill="#5b5b5b" stroke="#000000" stroke-width="1.5" stroke-linecap="butt"/><path d="M247.77744,199.11469l3.3913,1.04628l-1.40145,4.54251c0,0 -1.3337,0.05594 -1.91235,-0.1226c-0.55034,-0.16979 -1.47893,-0.92368 -1.47893,-0.92368z" fill="#393939" stroke="#000000" stroke-width="1.5" stroke-linecap="butt"/><path d="M252.29679,180.99805l4.00839,1.23667l-0.49038,1.58945l-4.0084,-1.23667z" fill="#000000" stroke="#000000" stroke-width="0.5" stroke-linecap="butt"/><path d="M251.21386,184.36294l9.8814,3.0486l-0.49038,1.58945l-9.8814,-3.0486z" fill="#000000" stroke="#000000" stroke-width="0.5" stroke-linecap="butt"/><path d="M257.31181,182.65457l-1.54993,4.90055l-1.09309,-0.3678l1.54992,-4.90055z" fill="#000000" stroke="#000000" stroke-width="0.5" stroke-linecap="butt"/><path d="M257.39999,182.5456l3.20275,4.64048l-1.40925,-0.33846l-2.28085,-2.72241z" fill="#000000" stroke="#000000" stroke-width="0.5" stroke-linecap="butt"/><path d="M271.23033,140.92968l1.16336,0.35892l-1.02219,3.31325l-1.16336,-0.35892z" fill="#000000" stroke="none" stroke-width="0" stroke-linecap="butt"/><path d="M257.29484,163.60651l5.93542,1.83119l-5.36574,17.39195l-5.93542,-1.83119z" fill="#4d4d4d" stroke="#000000" stroke-width="1" stroke-linecap="butt"/><path d="M265.16776,138.20473l6.44726,1.9891l-0.57384,1.85996l-6.44725,-1.98909z" fill="#222222" stroke="#000000" stroke-width="1" stroke-linecap="butt"/><path d="M264.78273,114.32149c1.07996,0.31071 13.39338,3.28636 13.39338,3.28636l-6.17884,20.73488l-5.56388,-1.71656c0,0 1.17331,-2.50616 2.0992,-5.8715c0.63496,-2.30789 1.15359,-5.01986 1.09763,-7.60473c-0.05232,-2.41684 -5.63012,-6.37541 -5.59323,-7.29192c0.0139,-0.34533 0.72863,-1.54146 0.74571,-1.53654z" fill="#3a3a3a" stroke="#000000" stroke-width="1" stroke-linecap="butt"/><path d="M264.98884,119.5704c0.72175,0.21041 7.8606,2.33148 7.8606,2.33148l-3.34111,11.30288l-3.92405,-1.39418c0,0 1.2168,-3.63651 1.91711,-6.85872c-0.96523,-1.29968 -3.19935,-3.93209 -3.20716,-4.43995c-0.00294,-0.19137 0.68317,-0.94486 0.69459,-0.94153z" fill="#303030" stroke="#000000" stroke-width="1" stroke-linecap="butt"/><path d="M272.16049,142.50723l2.02667,0.62526l-1.74053,5.64158l-2.02668,-0.62527z" fill="#888888" stroke="#000000" stroke-width="1" stroke-linecap="butt"/><path d="M272.28924,144.84669c-0.4216,-0.13006 -0.64713,-0.61228 -0.50372,-1.07706c0.14338,-0.46478 0.6014,-0.7361 1.02298,-0.60602c0.4216,0.13006 0.64711,0.61228 0.50371,1.07706c-0.14338,0.46478 -0.60138,0.73611 -1.02298,0.60605z" fill="#575757" stroke="#000000" stroke-width="1" stroke-linecap="butt"/><path d="M273.67121,144.62504l2.17866,0.67217l-0.23591,0.76468l-2.17866,-0.67217z" fill="#575757" stroke="#000000" stroke-width="1" stroke-linecap="butt"/><path d="M270.49815,148.16694l0.52595,0.16227l-0.41894,1.3579l-0.52596,-0.16228z" fill="#575757" stroke="#000000" stroke-width="0.5" stroke-linecap="butt"/><path d="M269.89837,150.30357l0.52595,0.16228l-0.41892,1.35789l-0.52596,-0.16228z" fill="#575757" stroke="#000000" stroke-width="0.5" stroke-linecap="butt"/><path d="M269.12568,152.65128l0.52596,0.16228l-0.41893,1.35788l-0.52596,-0.16228z" fill="#575757" stroke="#000000" stroke-width="0.5" stroke-linecap="butt"/><path d="M268.48173,154.7743l0.52596,0.16228l-0.41893,1.35788l-0.52595,-0.16227z" fill="#575757" stroke="#000000" stroke-width="0.5" stroke-linecap="butt"/><path d="M267.83612,156.86689l0.52596,0.16228l-0.41893,1.35788l-0.52596,-0.16228z" fill="#575757" stroke="#000000" stroke-width="0.5" stroke-linecap="butt"/><path d="M267.19217,158.98989l0.52597,0.16227l-0.41893,1.35788l-0.52597,-0.16227z" fill="#575757" stroke="#000000" stroke-width="0.5" stroke-linecap="butt"/><path d="M266.51732,161.11546l0.52596,0.16228l-0.41892,1.35789l-0.52596,-0.16227z" fill="#575757" stroke="#000000" stroke-width="0.5" stroke-linecap="butt"/><path d="M255.32231,154.59767l3.09145,0.95378l-0.51095,1.65613l-3.09145,-0.95377z" fill="#585858" stroke="#000000" stroke-width="1.5" stroke-linecap="butt"/><path d="M266.5401,136.70954l5.00113,1.54293l-0.69681,2.25852l-5.00113,-1.54293z" fill="#c7c7c7" stroke="#000000" stroke-width="1" stroke-linecap="butt"/><path d="M251.37404,133.31683l8.30101,8.58624c0,0 -0.78759,2.7821 -1.26267,3.50865c-0.47091,0.72012 -3.34685,-0.52144 -3.34685,-0.52144l-6.91179,-7.00021z" fill="#262626" stroke="#000000" stroke-width="1.5" stroke-linecap="butt"/></g><g stroke="#000000"><path d="M289.97091,161.547l13.66664,0.74094l-0.33485,4.05629l-13.5507,-0.96056z" data-paper-data="{&quot;index&quot;:null}" fill="url(#color-4)" stroke-width="2" stroke-linecap="butt"/><path d="M222.9083,156.31936l65.70717,3.25305l-0.4133,7.68676c0,0 -1.96117,-0.5062 -9.35725,-0.87236c-7.90263,-0.39125 -34.28341,-3.54332 -45.80847,-4.11391c-6.11849,-0.30291 -10.12816,-5.95354 -10.12816,-5.95354z" data-paper-data="{&quot;index&quot;:null}" fill="url(#color-5)" stroke-width="2" stroke-linecap="butt"/><path d="M289.1093,158.89646l-0.51611,9.17528" data-paper-data="{&quot;index&quot;:null}" fill="none" stroke-width="5" stroke-linecap="round"/><path d="M292.28365,165.33003l0.20812,-3.45054" data-paper-data="{&quot;index&quot;:null}" fill="none" stroke-width="2" stroke-linecap="round"/><path d="M295.10868,162.31074l-0.19718,3.26894" data-paper-data="{&quot;index&quot;:null}" fill="none" stroke-width="1.5" stroke-linecap="round"/><path d="M298.08845,162.18425l-0.1917,3.17815" data-paper-data="{&quot;index&quot;:null}" fill="none" stroke-width="1.5" stroke-linecap="round"/><path d="M300.48744,165.87838l0.1917,-3.17814" data-paper-data="{&quot;index&quot;:null}" fill="none" stroke-width="1.5" stroke-linecap="round"/></g><path d="M224.18879,173.99971l14.76454,-4.50658l7.41537,2.16797l4.39883,6.64418l-2.00469,7.48166l-12.2297,10.29568" fill="none" stroke="#121212" stroke-width="13" stroke-linecap="round"/><path d="M240.55771,187.08597c0,0 0.48774,-1.64121 0.91177,-2.25425c0.49211,-0.71147 1.86719,-1.76349 1.86719,-1.76349l9.9097,8.62891c0,0 -0.33521,1.76109 -0.79471,2.39852c-0.48788,0.67678 -2.05254,1.55117 -2.05254,1.55117z" data-paper-data="{&quot;index&quot;:null}" fill="#000000" stroke="none" stroke-width="0" stroke-linecap="butt"/><path d="M241.40625,190.34916c0.92148,-1.74037 2.45989,-4.41206 3.03718,-5.48455c0.45191,-0.83957 1.90641,-1.04251 2.93856,-0.29454c0.77148,0.55907 2.36243,1.62572 3.6764,2.53286c1.00792,0.69588 1.42611,2.20038 1.03857,2.92037c-0.55735,1.03543 -2.13087,3.95872 -3.11451,5.78611c-0.48907,0.9086 -1.62295,0.97184 -2.63219,0.23878c-1.3604,-0.98813 -3.11795,-2.26446 -3.87153,-2.81057c-0.63101,-0.45728 -1.52825,-2.02769 -1.07249,-2.88847z" fill="#000000" stroke="none" stroke-width="NaN" stroke-linecap="butt"/><path d="M222.47206,168.4123c0,0 1.11224,-1.38362 1.76205,-1.76555c0.73811,-0.43384 2.43554,-0.70165 2.43554,-0.70165l7.66894,10.66993c0,0 -0.56942,1.1864 -1.18859,1.53429c-0.76812,0.43157 -3.07038,0.8586 -3.07038,0.8586z" fill="#000000" stroke="none" stroke-width="0" stroke-linecap="butt"/><path d="M230.13204,178.00463c-0.8438,0.48447 -2.44471,-0.35441 -2.92403,-0.96715c-0.57243,-0.73177 -1.91014,-2.4384 -2.94578,-3.75934c-0.76829,-0.97998 -0.74544,-2.11219 0.14493,-2.63156c1.79076,-1.04457 4.65544,-2.71557 5.67011,-3.30743c0.70554,-0.41154 2.22359,-0.04772 2.9547,0.93227c0.95308,1.27753 2.07537,2.82551 2.66139,3.57467c0.78402,1.00227 0.633,2.45891 -0.18973,2.93884c-1.05099,0.61304 -3.66556,2.24019 -5.37159,3.21976z" data-paper-data="{&quot;index&quot;:null}" fill="#000000" stroke="none" stroke-width="NaN" stroke-linecap="butt"/><path d="M207.80542,183.6537c0.71381,-0.58966 2.24426,-1.85391 3.48851,-2.88176c1.03761,-0.85714 2.35427,-0.97109 2.80345,-0.42735c1.19363,1.44495 6.54853,7.92732 6.54853,7.92732c0,0 -0.56538,1.05277 -1.19438,2.38069c-0.4078,0.86094 -2.44283,2.28775 -3.41871,2.6688c-1.61563,0.63084 -2.53983,0.85935 -2.53983,0.85935c0,0 -5.4434,-6.58952 -6.61321,-8.00561c-0.42247,-0.51143 0.16984,-1.89708 0.92563,-2.52142z" fill="#000000" stroke="none" stroke-width="0" stroke-linecap="butt"/><path d="M213.79069,181.44863l5.89381,-7.28209c0,0 1.39108,4.46257 2.4794,5.80957c1.13656,1.40674 5.44148,3.96046 5.44148,3.96046l-8.40556,3.69721z" fill="#000000" stroke="none" stroke-width="0" stroke-linecap="butt"/><path d="M226.95122,202.55469c0.64595,-0.70034 2.03089,-2.2019 3.15687,-3.42268c0.93896,-1.01801 2.23291,-1.34722 2.73562,-0.88354c1.33594,1.23219 7.32932,6.76009 7.32932,6.76009c0,0 -0.45,1.13376 -0.93414,2.55c-0.31387,0.91819 -2.1822,2.66346 -3.11004,3.20066c-1.53607,0.88938 -2.4287,1.26726 -2.4287,1.26726c0,0 -6.09241,-5.61926 -7.40169,-6.82686c-0.47285,-0.43613 -0.03116,-1.90341 0.65277,-2.64494z" fill="#000000" stroke="none" stroke-width="0" stroke-linecap="butt"/><path d="M231.53848,200.61323l5.1519,-9.53031c0,0 2.07726,4.32334 3.33738,5.51118c1.31597,1.24052 6.09872,2.85008 6.09872,2.85008l-8.42435,6.71873z" fill="#000000" stroke="none" stroke-width="0" stroke-linecap="butt"/><path d="M271.61992,141.80214c-1.89509,-3.39932 11.60515,-14.89254 14.93177,-14.4701c3.81526,0.48448 9.68824,5.58429 11.67434,12.08104c1.66834,5.45732 -1.7175,9.79754 -5.30942,12.6141c-3.02013,2.3682 -6.32363,6.60019 -9.80105,5.17015c-4.89766,-6.26853 -7.10779,-8.70314 -11.49563,-15.39517z" fill="url(#color-6)" stroke="none" stroke-width="0" stroke-linecap="butt"/><path d="M284.35193,137.38315c1.05536,1.35826 0.97527,3.18635 -0.1789,4.0831c-1.15416,0.89677 -2.94535,0.52267 -4.00069,-0.83559c-1.05536,-1.35826 -0.97526,-3.18633 0.17891,-4.08311c1.15416,-0.89677 2.94533,-0.52266 4.00068,0.8356z" fill="url(#color-7)" stroke="none" stroke-width="0" stroke-linecap="butt"/><path d="M281.29371,138.38844c0.72011,-0.55952 1.75747,-0.42934 2.31698,0.29077c0.55952,0.7201 0.42934,1.75747 -0.29076,2.31699c-0.72011,0.55952 -1.75747,0.42935 -2.31698,-0.29077c-0.55952,-0.7201 -0.42934,-1.75747 0.29076,-2.31699z" fill="#000000" stroke="none" stroke-width="0" stroke-linecap="butt"/><path d="M283.13977,134.30544c0,0 1.62544,1.37431 2.23883,2.16375c0.62465,0.80393 1.47589,2.61714 1.47589,2.61714" fill="none" stroke="#000000" stroke-width="2.5" stroke-linecap="round"/><path d="M289.84562,142.75656c0,0 1.62545,1.3743 2.23884,2.16375c0.62465,0.80393 1.47589,2.61714 1.47589,2.61714" fill="none" stroke="#000000" stroke-width="2.5" stroke-linecap="round"/><path d="M290.85518,145.57352c1.05536,1.35826 0.97526,3.18633 -0.1789,4.0831c-1.15416,0.89677 -2.94532,0.52266 -4.00069,-0.8356c-1.05536,-1.35826 -0.97526,-3.18633 0.17889,-4.08309c1.15416,-0.89677 2.94533,-0.52266 4.00069,0.8356z" fill="url(#color-8)" stroke="none" stroke-width="0" stroke-linecap="butt"/><path d="M287.79695,146.57883c0.72011,-0.55952 1.75746,-0.42935 2.31698,0.29077c0.55952,0.7201 0.42935,1.75746 -0.29076,2.31699c-0.72011,0.55952 -1.75747,0.42934 -2.31699,-0.29076c-0.55952,-0.7201 -0.42933,-1.75747 0.29078,-2.31698z" fill="#000000" stroke="none" stroke-width="0" stroke-linecap="butt"/><path d="M280.83391,154.97487l0.06978,-0.98445l-1.10053,-0.14327l-0.39076,-0.96712l-0.38243,-1.05486l0.15613,-1.00526l-0.67499,-0.79772l-0.12338,-0.69165l-0.74581,-0.49914l-1.5908,-0.63771l-0.44234,-1.11303l-1.01901,-0.55719l-0.83929,-0.49128l0.17877,-1.37585l-0.55879,-1.12216l1.05293,-0.19584l-0.35117,-1.20041l0.82257,-0.81811l0.87413,0.6945l0.71431,-0.3491l1.18802,-0.06549l0.63942,0.79284l1.03668,0.59897l0.48188,0.73747l1.00916,0.26966l0.94689,1.04086l1.49297,0.7274l-0.16052,1.14357l0.56505,1.10683l-0.14862,0.97034l0.57572,0.761l-0.11129,0.94859l0.99982,0.44531l-0.51005,1.05775l-0.15041,0.63636l0.71156,0.64814l-1.04625,1.39419l-1.2721,0.17443l-1.25914,0.27242z" data-paper-data="{&quot;index&quot;:null}" fill="url(#color-9)" stroke="#000000" stroke-width="0" stroke-linecap="butt"/><path d="M282.85425,129.03134l1.00718,-1.671l1.49469,-0.73453l1.14682,-1.33098l0.92957,0.56422l0.73453,0.48629l1.27038,-0.31125l0.52586,1.53211l1.16428,0.65514l1.85833,0.32911l-0.12981,1.35521l1.54771,0.95245l1.38302,1.45904l0.84228,1.18962c0,0 -0.5861,0.79322 -0.56386,1.23265c0.02246,0.44383 0.69801,1.41728 0.69801,1.41728l1.37106,0.33353l0.59814,1.16676l0.68005,1.38501l0.91594,1.03328l0.89801,1.00277l-1.68665,0.2862l-0.33975,0.9532l-0.34689,1.29306l-0.63446,1.44274c0,0 -0.80225,0.49965 -1.15085,0.4355c-0.307,-0.05648 -1.03218,-0.94329 -1.03218,-0.94329l-0.59276,-1.48245l-1.46726,0.06195c0,0 -0.70462,-0.6734 -0.82262,-0.86485c-0.17703,-0.28723 0.21841,-0.96655 0.21841,-0.96655l-1.06175,-0.82598c0,0 -0.2116,-0.14518 -0.38299,-0.44446c-0.11783,-0.20577 0.14636,-0.82642 0.12318,-0.97963c-0.04066,-0.26879 0.30521,-0.89604 0.30521,-0.89604c0,0 -0.32088,-0.51477 -0.60013,-0.67726c-0.34502,-0.20076 -1.64065,0.35857 -1.64065,0.35857l-0.83417,-1.28135l-0.49452,-0.96678l-0.61273,-1.46397l-0.93242,-0.57256l-1.65539,-0.6976l-1.23339,-0.90623l0.19533,-1.61668l-1.42501,-0.25772z" fill="#000000" stroke="#000000" stroke-width="0.5" stroke-linecap="butt"/><path d="M280.75608,161.7769c0,0 -3.78162,8.42956 -7.09192,12.98577c-3.19309,4.39486 -12.43091,13.88487 -12.43091,13.88487" fill="none" stroke="#121212" stroke-width="10" stroke-linecap="round"/><path d="M267.45326,136.1384l17.24955,22.92668c0,0 -11.34465,7.37384 -16.43397,11.54413c-5.00119,4.09809 -13.90182,13.72658 -13.90182,13.72658c0,0 -7.55285,-6.35939 -10.44228,-10.16609c-2.88404,-3.79957 -6.87813,-12.65276 -6.87813,-12.65276c0,0 10.11588,-7.56826 15.11549,-11.74114c5.13243,-4.28374 15.29114,-13.63739 15.29114,-13.63739z" fill="#191919" stroke="none" stroke-width="0" stroke-linecap="butt"/><path d="M234.17981,156.15188c4.41326,-2.56747 12.39366,-11.49324 20.57656,-13.11032c6.15666,-1.21665 11.11687,-2.68686 11.11687,-2.68686" fill="#121212" stroke="#121212" stroke-width="10" stroke-linecap="round"/><path d="M281.04296,162.89702c0,0 -6.93796,8.71082 -11.12864,11.1234c-3.89725,2.98698 -14.63214,10.30619 -14.63214,10.30619c0,0 -8.79436,-5.33521 -12.53949,-9.81878c-3.74512,-4.48357 -6.35077,-13.77689 -6.35077,-13.77689c0,0 12.70421,-9.1648 17.03819,-11.52492c1.66144,-1.20735 12.55231,-6.34313 12.55231,-6.34313c0,0 2.31893,2.14333 4.29498,5.17929c1.3372,2.05444 3.57332,5.15262 4.98702,7.1946c1.51113,2.18266 1.11596,1.17279 1.9533,2.38138z" data-paper-data="{&quot;index&quot;:null}" fill="url(#color-10)" stroke="#000000" stroke-width="2" stroke-linecap="butt"/><path d="M243.31449,159.10397c1.3524,-0.96854 7.00924,-4.92668 7.00924,-4.92668c0,0 1.23441,1.72365 1.86024,2.59751c0.63753,0.89021 1.93049,2.69559 1.93049,2.69559c0,0 -5.58025,3.99638 -6.96517,4.98822c-0.60411,0.43263 -1.57677,0.41525 -1.98813,-0.15911c-0.793,-1.10727 -1.91574,-2.80728 -2.3176,-3.3684c-0.23373,-0.32636 -0.08484,-1.42908 0.47092,-1.82709z" fill="url(#color-11)" stroke="#000000" stroke-width="1" stroke-linecap="butt"/><path d="M247.63345,155.18339c0,0 2.24276,-1.60619 2.88663,-2.06731c0.29684,-0.21259 1.22075,-0.03725 1.55917,0.4353c0.55394,0.7735 2.18363,3.04904 3.06098,4.27412c0.32116,0.44845 0.06807,1.24451 -0.27032,1.48684c-0.6632,0.47496 -2.82863,2.02578 -2.82863,2.02578z" fill="#282828" stroke="#000000" stroke-width="1" stroke-linecap="butt"/><text transform="translate(270.05997,156.11933) rotate(54.38969) scale(0.06656,0.06656)" font-size="40" xml:space="preserve" fill="#ffffff" fill-rule="nonzero" stroke="#ffffff" stroke-width="2" stroke-linecap="butt" stroke-linejoin="miter" stroke-miterlimit="10" stroke-dasharray="" stroke-dashoffset="0" font-family="Sans Serif" font-weight="normal" text-anchor="start" style="mix-blend-mode: normal"><tspan x="0" dy="0">S.O.A.S.T</tspan></text><path d="M264.87287,163.65905c0.28112,-0.57601 0.6928,-1.09767 1.2271,-1.51705" fill="#e6e016" stroke="#ff1919" stroke-width="3" stroke-linecap="butt"/><path d="M284.04523,158.67917c0,0 -0.7163,2.27696 -1.51209,2.91645c-0.76266,0.6129 -2.628,1.48574 -2.628,1.48574l-4.26123,-5.82522c0,0 2.85503,-0.86935 2.95834,-0.94412c0.72438,-0.52425 1.87899,-2.40952 1.87899,-2.40952z" fill="#000000" stroke="#000000" stroke-width="0.5" stroke-linecap="butt"/><path d="M267.99815,161.3619c0.70364,-0.07926 1.41853,0.04199 2.05688,0.34921" fill="none" stroke="#1921ff" stroke-width="3" stroke-linecap="butt"/><path d="M271.54261,163.00272c0.47505,0.7073 0.67822,1.5217 0.63056,2.3161" fill="none" stroke="#4aff19" stroke-width="3" stroke-linecap="butt"/><path d="M271.47285,167.29143c-0.23269,0.32324 -0.52112,0.6147 -0.86285,0.85944c-0.22812,0.16338 -0.46831,0.29755 -0.71611,0.40328" fill="none" stroke="#fff719" stroke-width="3" stroke-linecap="butt"/><path d="M268.16884,168.88642c-0.68093,-0.08775 -1.33673,-0.36081 -1.88559,-0.80568" fill="none" stroke="#ff9319" stroke-width="3" stroke-linecap="butt"/><path d="M263.93454,166.36525l4.81003,-1.09063" fill="none" stroke="#000000" stroke-width="1.5" stroke-linecap="round"/><path d="M267.60273,163.81397c0.68308,-0.4892 1.63342,-0.33204 2.12264,0.35104c0.4892,0.68308 0.33203,1.63343 -0.35106,2.12264c-0.68308,0.4892 -1.63343,0.33203 -2.12264,-0.35107c-0.4892,-0.68308 -0.33203,-1.63342 0.35107,-2.12264z" fill="#ffffff" stroke="none" stroke-width="3" stroke-linecap="butt"/><path d="M273.27311,144.36567c0,0 -1.38899,1.17789 -2.13065,1.84799c-0.81216,0.7338 -1.97757,2.28368 -1.97757,2.28368l-3.60175,-4.97932c0,0 0.74705,-2.02285 1.64387,-2.68704c0.80069,-0.593 2.3862,-1.75475 2.3862,-1.75475z" fill="#000000" stroke="#000000" stroke-width="0.5" stroke-linecap="butt"/><path d="M297.45211,137.12999c1.88317,3.89895 6.18355,0.47044 5.37064,5.0118c-0.93736,5.20093 -7.75185,11.65678 -12.68688,15.53126c-4.55906,2.05054 -4.09571,2.38598 -8.26033,-1.0754c-3.49123,-3.11951 -8.16899,-8.10424 -10.79953,-11.93654c-0.20565,-0.29959 -0.66013,-0.92537 -0.73055,-1.10409c-0.23511,-3.95596 0.18228,-5.25941 2.14692,-7.94024c0.20158,-0.27494 4.70422,-4.28711 8.20233,-5.77224c3.71681,-1.70415 2.83143,-2.85007 6.498,-2.45582c2.72398,0.2923 4.93145,4.83917 5.98605,7.02856z" fill="#3e3e3e" stroke="#000000" stroke-width="1" stroke-linecap="round"/><path d="M279.30035,158.07621c-1.70367,-2.37887 -2.31908,-7.55498 0.36383,-9.4764c1.41694,-1.01476 3.01839,-1.78562 4.52721,-1.98111c1.34803,-0.17466 2.856,0.13078 3.6599,1.25327c0.62747,0.87615 1.84354,2.50727 1.82436,4.08241c-0.03288,2.7017 -1.8996,5.59535 -3.5944,6.80909c0,0 -5.07725,1.69161 -6.78092,-0.68725z" fill="#151515" stroke="#000000" stroke-width="1.5" stroke-linecap="butt"/><path d="M285.9786,158.41992c-2.08518,1.49333 -4.84602,1.20921 -6.16648,-0.63458c-1.32048,-1.84382 -0.70057,-4.54908 1.38461,-6.04243c2.08518,-1.49333 4.84601,-1.20921 6.16646,0.63459c1.32048,1.84382 0.70055,4.54908 -1.38461,6.04243z" fill="#313131" stroke="#000000" stroke-width="1.5" stroke-linecap="butt"/><path d="M300.6725,143.48914c0.574,1.1916 0.49177,2.56813 -0.1029,3.82636c-0.59861,1.25983 -1.71003,2.40143 -3.19302,3.12637c-1.48304,0.72492 -3.06098,0.89795 -4.41378,0.59203c-1.34941,-0.30791 -2.47335,-1.09487 -3.04734,-2.28645c-0.57412,-1.19185 -0.49225,-2.56829 0.1029,-3.82637c0.59848,-1.26007 1.71004,-2.40141 3.19302,-3.12636c1.48304,-0.72492 3.06085,-0.89828 4.41377,-0.59204c1.34896,0.30776 2.47322,1.09458 3.04734,2.28645z" fill="#000000" stroke="#000000" stroke-width="2" stroke-linecap="butt"/><path d="M300.18184,145.06161c0.45851,0.98616 0.34412,2.1489 -0.20947,3.22804c-0.55701,1.0806 -1.55348,2.07775 -2.85791,2.73544c-1.30449,0.65767 -2.67359,0.8532 -3.83308,0.638c-1.15648,-0.21697 -2.103,-0.84484 -2.56151,-1.83098c-0.4586,-0.98639 -0.34451,-2.149 0.20946,-3.22806c0.55691,-1.08082 1.55349,-2.07775 2.85792,-2.73543c1.30449,-0.65766 2.6735,-0.85348 3.8331,-0.638c1.15609,0.21687 2.1029,0.84459 2.5615,1.83098z" fill="url(#color-12)" stroke="#000000" stroke-width="2" stroke-linecap="butt"/><path d="M286.76986,129.9194c0,0 -16.58146,12.74263 -16.77297,12.1255c-0.29792,-0.96004 0.54475,-1.19144 -0.31933,-2.94191c-0.4666,-0.94522 -2.33733,-2.73902 -2.9397,-4.52358c-0.44223,-1.31014 17.58624,-14.58336 17.58624,-14.58336c0,0 6.39445,-3.29391 15.41067,5.4346c8.52345,11.76147 3.91786,16.85945 3.91786,16.85945c0,0 -2.59985,-0.98929 -7.44453,-2.77412c-4.81986,-1.77568 -8.17524,-7.56847 -8.17524,-7.56847z" fill="#1e1e1e" stroke="#000000" stroke-width="1.5" stroke-linecap="butt"/><path d="M291.06873,136.95854c0.574,1.1916 0.49179,2.56812 -0.10289,3.82638c-0.59861,1.25983 -1.71003,2.40143 -3.19302,3.12637c-1.48304,0.72492 -3.06097,0.89793 -4.41378,0.59203c-1.3494,-0.30789 -2.47335,-1.09487 -3.04734,-2.28645c-0.57412,-1.19185 -0.49225,-2.56827 0.1029,-3.82636c0.59848,-1.26007 1.71005,-2.40142 3.19302,-3.12636c1.48304,-0.72492 3.06084,-0.89828 4.41376,-0.59205c1.34896,0.30776 2.47323,1.0946 3.04734,2.28645z" fill="#000000" stroke="#000000" stroke-width="2" stroke-linecap="butt"/><path d="M290.57804,138.53103c0.45851,0.98616 0.34412,2.1489 -0.20947,3.22804c-0.55701,1.0806 -1.55349,2.07775 -2.85792,2.73545c-1.30449,0.65766 -2.6736,0.8532 -3.83309,0.638c-1.15648,-0.21697 -2.10301,-0.84484 -2.56151,-1.83098c-0.4586,-0.98639 -0.34451,-2.149 0.20946,-3.22806c0.55691,-1.08082 1.55349,-2.07775 2.85793,-2.73544c1.30449,-0.65766 2.6735,-0.85349 3.83309,-0.638c1.15609,0.21687 2.1029,0.8446 2.56151,1.83098z" fill="url(#color-13)" stroke="#000000" stroke-width="2" stroke-linecap="butt"/><path d="M291.86934,142.16069c-0.7074,1.45376 -2.00638,2.77797 -3.73006,3.6282c-1.72371,0.8502 -3.55054,1.06787 -5.11129,0.73291c-1.55677,-0.33731 -2.47257,-1.49561 -3.12198,-2.8569c-0.64956,-1.36161 -0.91281,-2.67487 -0.20946,-4.12661c0.70726,-1.45405 2.00638,-2.77797 3.73005,-3.62822c1.72371,-0.8502 3.45678,-1.00121 5.01765,-0.66584c1.55625,0.33715 2.37884,1.56232 3.02838,2.92394c0,0 1.09952,2.5406 0.39668,3.99251z" fill="url(#color-14)" stroke="#000000" stroke-width="0" stroke-linecap="butt"/><path d="M301.26467,148.44257c-0.75279,1.41669 -2.08151,2.73325 -3.80842,3.61403c-1.72697,0.88076 -3.52999,1.16153 -5.0496,0.90382c-1.51563,-0.26007 -2.36896,-1.32986 -2.95254,-2.60412c-0.58373,-1.27456 -0.78991,-2.51835 -0.04118,-3.93293c0.75266,-1.41697 2.0815,-2.73325 3.80842,-3.61403c1.72697,-0.88076 3.43524,-1.09411 4.95499,-0.83605c1.51514,0.25995 2.27421,1.39729 2.85793,2.67189c0,0 0.97866,2.38269 0.23042,3.79741z" fill="url(#color-15)" stroke="#000000" stroke-width="0" stroke-linecap="butt"/><path d="M264.09748,111.16702l0.15999,1.35273" fill="none" stroke="#000000" stroke-width="1" stroke-linecap="round"/><path d="M265.04713,111.74052l-1.43794,0.26804" fill="none" stroke="#000000" stroke-width="1" stroke-linecap="round"/><path d="M288.24794,122.12959l0.19148,-1.34863" fill="none" stroke="#000000" stroke-width="1" stroke-linecap="round"/><path d="M288.97626,121.2534l-1.45864,-0.10884" fill="none" stroke="#000000" stroke-width="1" stroke-linecap="round"/><path d="M248.11178,157.88697l2.31199,-1.65578l1.49555,2.08826l-2.312,1.65578z" fill="#000000" stroke="none" stroke-width="0" stroke-linecap="butt"/><path d="M271.00669,182.21473" fill="none" stroke="url(#color-16)" stroke-width="10" stroke-linecap="round"/><path d="M261.42549,184.35826c0.91647,-2.80842 2.2023,-3.93038 4.8909,-3.05302c1.37148,0.44754 4.69193,1.40082 5.63247,2.42496c0.90326,0.98351 0.41714,3.36865 -0.03183,4.74449c-0.91647,2.80842 -4.31505,3.17942 -7.00366,2.30205c-2.68859,-0.87736 -4.40435,-3.61001 -3.48788,-6.41844z" fill="#000000" stroke="url(#color-17)" stroke-width="0" stroke-linecap="butt"/><path d="M225.45739,154.99408c1.88941,-2.27096 3.49885,-2.83834 5.6729,-1.02955c1.10903,0.92268 3.84215,3.03552 4.33766,4.33472c0.47587,1.24771 -0.85724,3.28436 -1.78284,4.39688c-1.88941,2.27096 -5.18453,1.35978 -7.3586,-0.44903c-2.17407,-1.80879 -2.75856,-4.98207 -0.86915,-7.25303z" fill="#000000" stroke="url(#color-18)" stroke-width="0" stroke-linecap="butt"/><path d="M248.9475,166.75477c1.3524,-0.96854 7.00924,-4.92668 7.00924,-4.92668l3.79074,5.29309c0,0 -5.58025,3.99637 -6.96515,4.98822c-0.60411,0.43263 -1.57677,0.41526 -1.98813,-0.15911c-0.793,-1.10727 -1.91574,-2.80728 -2.3176,-3.3684c-0.23373,-0.32636 -0.08484,-1.42908 0.47092,-1.82709z" fill="url(#color-19)" stroke="#000000" stroke-width="1" stroke-linecap="butt"/><path d="M253.34962,162.95032c0,0 2.24277,-1.6062 2.88664,-2.06731c0.29684,-0.21259 1.22075,-0.03725 1.55917,0.4353c0.55394,0.7735 2.18363,3.04904 3.06098,4.27412c0.32116,0.44845 0.06806,1.24451 -0.27032,1.48684c-0.6632,0.47496 -2.82863,2.02578 -2.82863,2.02578z" fill="#282828" stroke="#000000" stroke-width="1" stroke-linecap="butt"/><path d="M253.74479,165.53779l2.31199,-1.65578l1.49555,2.08826l-2.31199,1.65578z" fill="#000000" stroke="none" stroke-width="0" stroke-linecap="butt"/><path d="M254.50773,174.30396c1.3524,-0.96854 7.00924,-4.92667 7.00924,-4.92667l3.79074,5.29309c0,0 -5.58025,3.99638 -6.96518,4.98822c-0.60411,0.43263 -1.57676,0.41525 -1.98811,-0.15912c-0.793,-1.10727 -1.91574,-2.80729 -2.3176,-3.3684c-0.23373,-0.32636 -0.08484,-1.42907 0.47092,-1.82709z" fill="url(#color-20)" stroke="#000000" stroke-width="1" stroke-linecap="butt"/><path d="M258.90985,170.49951c0,0 2.24276,-1.60619 2.88663,-2.06731c0.29684,-0.21259 1.22075,-0.03725 1.55917,0.4353c0.55394,0.7735 2.18363,3.04904 3.06098,4.27412c0.32116,0.44845 0.06807,1.24451 -0.27032,1.48684c-0.6632,0.47496 -2.82863,2.02578 -2.82863,2.02578z" fill="#282828" stroke="#000000" stroke-width="1" stroke-linecap="butt"/><path d="M259.30503,173.08696l2.312,-1.65578l1.49555,2.08826l-2.31199,1.65578z" fill="#000000" stroke="none" stroke-width="0" stroke-linecap="butt"/><g stroke="#000000" stroke-width="1" stroke-linecap="butt"><path d="M256.71789,152.9301c0.97812,-0.70049 5.0741,-3.55666 5.0741,-3.55666l3.1447,4.39101c0,0 -4.03589,2.89038 -5.03754,3.60772c-0.43692,0.31291 -1.17633,0.25013 -1.51757,-0.22635c-0.65784,-0.91857 -1.59591,-2.32409 -1.92928,-2.78958c-0.19389,-0.27075 -0.13634,-1.13829 0.2656,-1.42613z" fill="url(#color-21)"/><path d="M259.86889,150.13271c0,0 1.62207,-1.16167 2.08773,-1.49517c0.21468,-0.15375 0.92504,0.03188 1.20578,0.4239c0.45953,0.64166 1.81147,2.52939 2.5393,3.54569c0.26642,0.372 0.11433,0.99097 -0.13041,1.16625c-0.47966,0.3435 -2.04581,1.46514 -2.04581,1.46514z" fill="#282828"/></g></g></g></svg>