<svg version="1.1" xmlns="http://www.w3.org/2000/svg" xmlns:xlink="http://www.w3.org/1999/xlink" width="112.66179" height="90.84924" viewBox="0,0,112.66179,90.84924"><defs><linearGradient x1="239.34594" y1="148.84695" x2="238.83801" y2="185.78636" gradientUnits="userSpaceOnUse" id="color-1"><stop offset="0" stop-color="#0f0f0f"/><stop offset="1" stop-color="#0c0c0c"/></linearGradient><linearGradient x1="238.87621" y1="148.27989" x2="238.61967" y2="166.9374" gradientUnits="userSpaceOnUse" id="color-2"><stop offset="0" stop-color="#1f180f"/><stop offset="1" stop-color="#0d0b07"/></linearGradient><linearGradient x1="239.04216" y1="163.01741" x2="238.96962" y2="168.29283" gradientUnits="userSpaceOnUse" id="color-3"><stop offset="0" stop-color="#1f180f"/><stop offset="1" stop-color="#0d0b07"/></linearGradient><linearGradient x1="239.38016" y1="163.93612" x2="239.3067" y2="169.27869" gradientUnits="userSpaceOnUse" id="color-4"><stop offset="0" stop-color="#0f0f0f"/><stop offset="1" stop-color="#0c0c0c"/></linearGradient><linearGradient x1="248.02254" y1="189.37844" x2="248.29765" y2="194.97126" gradientUnits="userSpaceOnUse" id="color-5"><stop offset="0" stop-color="#1f180f"/><stop offset="1" stop-color="#0d0b07"/></linearGradient><linearGradient x1="230.79828" y1="189.14711" x2="230.48374" y2="194.73752" gradientUnits="userSpaceOnUse" id="color-6"><stop offset="0" stop-color="#1f180f"/><stop offset="1" stop-color="#0d0b07"/></linearGradient><linearGradient x1="252.8251" y1="148.91686" x2="262.70081" y2="169.53225" gradientUnits="userSpaceOnUse" id="color-7"><stop offset="0" stop-color="#343434"/><stop offset="1" stop-color="#0c0c0c"/></linearGradient><linearGradient x1="239.75929" y1="141.51573" x2="239.48972" y2="161.12115" gradientUnits="userSpaceOnUse" id="color-8"><stop offset="0" stop-color="#0f0f0f"/><stop offset="1" stop-color="#0c0c0c"/></linearGradient><linearGradient x1="254.70324" y1="163.28818" x2="271.22382" y2="162.74293" gradientUnits="userSpaceOnUse" id="color-9"><stop offset="0" stop-color="#122639"/><stop offset="1" stop-color="#141f2b"/></linearGradient><linearGradient x1="254.78737" y1="163.45216" x2="271.30797" y2="162.90692" gradientUnits="userSpaceOnUse" id="color-10"><stop offset="0" stop-color="#310b0b"/><stop offset="1" stop-color="#3a0909"/></linearGradient><linearGradient x1="263.5947" y1="160.45182" x2="263.77679" y2="166.57382" gradientUnits="userSpaceOnUse" id="color-11"><stop offset="0" stop-color="#000000"/><stop offset="1" stop-color="#0c0c0c"/></linearGradient><linearGradient x1="264.52808" y1="160.29593" x2="264.7176" y2="166.6678" gradientUnits="userSpaceOnUse" id="color-12"><stop offset="0" stop-color="#0f0f0f"/><stop offset="1" stop-color="#0c0c0c"/></linearGradient><linearGradient x1="238.19544" y1="117.79176" x2="237.83154" y2="142.38994" gradientUnits="userSpaceOnUse" id="color-13"><stop offset="0" stop-color="#343434"/><stop offset="1" stop-color="#1f1f1f"/></linearGradient><linearGradient x1="239.41079" y1="140.23272" x2="239.35478" y2="144.30817" gradientUnits="userSpaceOnUse" id="color-14"><stop offset="0" stop-color="#0f0f0f"/><stop offset="1" stop-color="#0c0c0c"/></linearGradient><linearGradient x1="224.25772" y1="175.73079" x2="237.16478" y2="178.09874" gradientUnits="userSpaceOnUse" id="color-15"><stop offset="0" stop-color="#1b1b1b"/><stop offset="1" stop-color="#343434"/></linearGradient><linearGradient x1="218.90738" y1="174.59634" x2="206.00812" y2="172.16786" gradientUnits="userSpaceOnUse" id="color-16"><stop offset="0" stop-color="#1b1b1b"/><stop offset="1" stop-color="#343434"/></linearGradient></defs><g transform="translate(-159.92958,-109.36009)"><g data-paper-data="{&quot;isPaintingLayer&quot;:true}" fill-rule="nonzero" stroke-linejoin="miter" stroke-miterlimit="10" stroke-dasharray="" stroke-dashoffset="0" style="mix-blend-mode: normal"><path d="M224.69236,160.00006c-0.91499,-5.24814 -3.24251,-11.43792 -3.24251,-11.43792l35.75067,3.58992c0,0 -3.3886,4.69304 -5.19948,9.67978c-1.64261,4.52334 0.78553,16.1022 0.1589,20.38541c-0.1544,1.05541 -7.58597,3.66046 -14.22145,3.55484c-6.36292,-0.10128 -13.81662,-2.31128 -13.81662,-2.31128c0,0 1.59347,-17.59311 0.57049,-23.4607z" fill="url(#color-1)" stroke="#000000" stroke-width="1.5" stroke-linecap="butt"/><path d="M247.97633,132.92676c-0.06559,4.77011 -4.27834,8.57084 -9.40942,8.48917c-5.13108,-0.08167 -9.23749,-4.01483 -9.17189,-8.78492c0.06559,-4.77011 4.27835,-8.57084 9.40943,-8.48917c5.13109,0.08168 9.23748,4.01483 9.17189,8.78492z" fill="#505050" stroke="#000000" stroke-width="1.5" stroke-linecap="butt"/><path d="M243.88916,191.70998c-0.78037,0.11846 -1.60444,-0.82016 -2.45186,-4.46523c-0.25907,-1.11436 -0.72796,-4.2276 -0.93491,-5.42492c-0.26769,-1.54874 -0.09127,-3.18728 -0.21929,-4.59955c-0.28327,-3.12482 -0.64857,-5.45332 -0.64857,-5.45332c0,0 2.50075,-1.10891 4.51109,-1.41409c2.01033,-0.30518 4.63928,0.1709 4.63928,0.1709c0,0 -0.29685,1.87987 -0.24838,4.84112c0.02332,1.42524 0.36941,3.37274 0.4075,4.9672c0.04384,1.83592 -0.25284,2.4574 -0.16096,4.15154c0.10314,1.90162 0.59316,4.77366 0.59316,4.77366c0,0 -5.01279,2.38068 -5.48706,2.45268z" data-paper-data="{&quot;index&quot;:null}" fill="#060606" stroke="#000000" stroke-width="1.5" stroke-linecap="butt"/><path d="M232.5474,190.73501c0,0 -5.86273,-0.20679 -6.35639,-0.36514c-0.81233,-0.26058 -0.65445,-1.11263 -0.03462,-4.81353c0.1895,-1.13143 1.92043,-4.42293 2.19404,-5.60492c0.35394,-1.52889 -0.36486,-3.0656 0.0717,-4.40512c0.96593,-2.96374 1.53451,-5.24493 1.53451,-5.24493c0,0 2.89343,0.17451 4.98608,0.84578c2.09264,0.67128 4.48099,2.34175 4.48099,2.34175c0,0 -1.03927,1.56269 -2.17037,4.2676c-0.54437,1.30186 0.1006,3.32395 -0.49668,4.78605c-0.6877,1.68348 -0.92982,2.2998 -1.51402,3.87753c-0.65571,1.77093 -2.69526,4.31489 -2.69526,4.31489z" data-paper-data="{&quot;index&quot;:null}" fill="#060606" stroke="#000000" stroke-width="1.5" stroke-linecap="butt"/><path d="M228.86607,152.14877c-0.50994,-0.01311 -4.78599,-6.79422 -2.2044,-8.33812c4.49882,-2.69048 9.9454,-1.15138 12.12598,-1.11667c1.8536,0.0295 8.34098,-1.60319 12.43661,1.20161c1.7746,1.21529 -4.12245,8.33899 -4.17719,8.59673c-0.9962,4.69035 -0.03671,8.73944 0.27008,10.09172c0.09234,0.40703 0.34385,1.83576 0.69295,3.35794c0.30892,1.34701 0.99097,6.93755 0.99101,8.1641c0.00004,1.07984 -0.28135,3.02252 -0.28135,3.02252c0,0 -5.67419,0.99726 -10.59643,0.9792c-4.13865,-0.01519 -8.51081,-0.91682 -9.32265,-1.53214c-1.9114,-1.44872 0.78311,-10.50862 1.18448,-12.49031c0,0 0.61077,-11.89211 -1.1191,-11.93659z" fill="#505050" stroke="#000000" stroke-width="1.5" stroke-linecap="butt"/><path d="M230.77835,149.39923l3.46543,-1.19306c0,0 3.43708,5.74072 5.60216,8.41622c2.30115,2.84364 6.65599,7.08814 6.65599,7.08814l0.19848,3.35548c0,0 -7.19571,-5.30847 -9.57232,-8.20424c-2.41508,-2.94263 -6.34979,-9.46254 -6.34979,-9.46254z" fill="url(#color-2)" stroke="#000000" stroke-width="1.5" stroke-linecap="butt"/><path d="M230.48446,162.88118c0,0 6.19872,1.8063 8.60834,2.15209c2.56105,0.36753 8.89658,-0.21324 8.89658,-0.21324l0.57724,3.42894c0,0 -6.78684,0.27843 -9.4101,-0.074c-2.66572,-0.35815 -9.75093,-2.23329 -9.75093,-2.23329z" fill="url(#color-3)" stroke="#000000" stroke-width="1.5" stroke-linecap="butt"/><path d="M236.7719,166.11738c0.08936,-0.48777 0.10502,-1.21494 0.40945,-1.56038c0.58627,-0.66521 1.69624,-0.71682 2.62853,-0.54157c0.80485,0.15129 1.65035,0.52449 2.01347,1.19732c0.27592,0.51123 0.19068,1.25264 0.07782,1.86883c-0.14316,0.7815 -0.48109,1.6147 -1.11202,1.98627c-0.52124,0.30697 -1.28517,0.23614 -1.92596,0.11569c-0.73278,-0.13775 -1.53274,-0.43631 -1.90913,-1.0207c-0.35115,-0.54519 -0.30832,-1.35667 -0.18215,-2.04545z" fill="url(#color-4)" stroke="#000000" stroke-width="1.5" stroke-linecap="butt"/><path d="M250.40962,189.26118c3.25186,0.07705 3.75562,1.89143 3.71007,3.40267c-0.04554,1.51123 -2.13761,2.30452 -5.38947,2.22744c-3.25186,-0.07705 -6.47251,0.34479 -6.42697,-1.16641c0.01903,-0.63162 -0.4776,-2.81122 0.73589,-3.36313c0,0 5.47769,-1.14542 7.37047,-1.10056z" data-paper-data="{&quot;index&quot;:null}" fill="url(#color-5)" stroke="#000000" stroke-width="1.5" stroke-linecap="butt"/><path d="M236.51098,193.1533c-0.2041,1.496 -2.36613,2.02962 -5.58902,1.5574c-3.2229,-0.4722 -6.46722,-0.44494 -6.26314,-1.94093c0.08531,-0.62526 -0.17903,-2.8513 1.08468,-3.25202c0,0 5.56296,-0.47156 7.43888,-0.1967c0,0 3.5327,2.33623 3.32859,3.83224z" data-paper-data="{&quot;index&quot;:null}" fill="url(#color-6)" stroke="#000000" stroke-width="1.5" stroke-linecap="butt"/><path d="M220.87166,161.95723l0.41544,-7.41195c0,0 0.86798,-3.77483 2.60857,-5.27695c1.74059,-1.50213 3.96599,-0.19188 3.96599,-0.19188c0,0 0.60469,7.59489 0.62461,7.99407c0.11716,2.34866 -0.3116,6.35036 -0.3116,6.35036z" data-paper-data="{&quot;index&quot;:null}" fill="#505050" stroke="#000000" stroke-width="1.5" stroke-linecap="butt"/><path d="M259.39886,171.30777c0,0 -3.08871,-5.97828 -4.87471,-8.75453c-1.57558,-2.44917 -5.28933,-7.04502 -5.28933,-7.04502l0.37026,-9.52069c0,0 7.0878,6.46202 9.91373,10.21368c2.62515,3.4851 6.48396,11.55555 6.48396,11.55555c0,0 -1.32972,2.25027 -2.43503,2.84461c-1.09589,0.58928 -4.16886,0.7064 -4.16886,0.7064z" data-paper-data="{&quot;index&quot;:null}" fill="url(#color-7)" stroke="#000000" stroke-width="1.5" stroke-linecap="butt"/><path d="M220.75414,149.75935c-0.09366,-0.19378 1.27378,-4.59254 3.47287,-6.3533c1.78542,-1.42955 6.06476,-2.21901 9.93512,-1.72942c1.88479,0.23842 3.931,1.76046 5.04763,1.77303c4.06215,0.04573 6.8499,-1.64694 6.87204,-1.64436c0.3262,0.0383 5.55611,-0.71692 6.97857,0.917c0.61092,0.70172 2.5121,2.61459 2.83332,2.93218c0.78437,0.7754 4.2818,6.58718 3.6968,8.32117c-0.60914,1.80557 -3.51408,1.07374 -3.85793,3.74118c-0.34385,2.66744 0.8219,6.09127 -0.53217,6.58642c-1.35552,0.49568 -1.88529,1.20684 -3.8433,0.62121c-1.69662,-0.50746 -4.30239,-3.42777 -5.625,-4.32973c-4.09903,-2.79537 -6.04598,-5.57248 -8.22993,-6.41253c-2.13818,-0.82243 -8.80207,-0.01207 -8.80207,-0.01207c0,0 -1.24255,-1.35798 -2.61032,-2.1266c-1.36776,-0.76862 -3.13017,0.22451 -4.94015,0.37254c-1.45291,0.11883 -0.16961,-2.18939 -0.39549,-2.6567z" data-paper-data="{&quot;index&quot;:null}" fill="url(#color-8)" stroke="#000000" stroke-width="1.5" stroke-linecap="butt"/><path d="M258.30876,167.47178c0.1192,-1.98613 1.94058,-3.48133 4.0682,-3.33963c2.12761,0.1417 3.75575,1.86664 3.63655,3.85277c-0.1192,1.98613 -1.94059,3.48133 -4.06819,3.33964c-2.12761,-0.1417 -3.75576,-1.86664 -3.63656,-3.85277z" fill="#000000" stroke="#000000" stroke-width="1.5" stroke-linecap="butt"/><g stroke="#000000" stroke-width="1.5"><g fill="#000000" stroke-linecap="round"><path d="M253.22075,163.29543l17.15168,-0.56607c0,0 0.7175,7.65101 -1.46746,12.35093c-2.39907,5.16054 -6.67561,5.25965 -6.67561,5.25965l-1.03546,-34.81626c0,0 -3.37096,0.73139 -5.98249,5.46037c-2.53698,4.594 -1.99069,12.31137 -1.99069,12.31137z"/><path d="M267.77288,150.73621c-2.88742,-4.54749 -6.29523,-5.05514 -6.29523,-5.05514l1.03545,34.81625c0,0 -4.27403,0.18308 -6.97505,-4.80913c-2.45994,-4.54662 -2.1985,-12.22994 -2.1985,-12.22994l17.15168,-0.56607c0,0 0.08666,-7.73826 -2.71835,-12.15596z" data-paper-data="{&quot;index&quot;:null}"/></g><g stroke-linecap="round"><path d="M254.71686,163.37111l16.46813,-0.54351c0,0 0.698,7.65166 -1.39439,12.34852c-2.29744,5.15719 -6.40359,5.25067 -6.40359,5.25067l-1.03545,-34.81625c0,0 -3.23588,0.72692 -5.73784,5.45228c-2.43054,4.59049 -1.89685,12.30828 -1.89685,12.30828z" fill="url(#color-9)"/><path d="M264.9429,170.12041l1.44728,-3.29936" fill="none"/><path d="M259.71209,159.45441l1.29885,-2.96097" fill="none"/><path d="M265.15583,174.6156l3.52543,-8.0369" fill="none"/><path d="M260.16955,152.18575l-2.89455,6.59872" fill="none"/><path d="M268.67474,150.83148c-2.77784,-4.55111 -6.05057,-5.06322 -6.05057,-5.06322l1.03545,34.81625c0,0 -4.10364,0.17746 -6.70304,-4.81811c-2.36739,-4.54968 -2.12545,-12.23236 -2.12545,-12.23236l16.46813,-0.54351c0,0 0.07403,-7.73785 -2.62453,-12.15906z" data-paper-data="{&quot;index&quot;:null}" fill="url(#color-10)"/><path d="M259.77967,167.37272l1.6405,3.19745" data-paper-data="{&quot;index&quot;:null}" fill="none"/><path d="M264.53463,156.71063l1.47225,2.86951" data-paper-data="{&quot;index&quot;:null}" fill="none"/><path d="M257.47867,167.28193l3.99609,7.78866" data-paper-data="{&quot;index&quot;:null}" fill="none"/><path d="M265.11842,152.35591l3.28099,6.3949" data-paper-data="{&quot;index&quot;:null}" fill="none"/></g><path d="M265.52314,163.45218c0.05027,1.69054 -0.73159,3.08815 -1.74636,3.12164c-1.01477,0.03349 -1.87816,-1.30982 -1.92843,-3.00036c-0.05027,-1.69054 0.73159,-3.08815 1.74636,-3.12164c1.01477,-0.03349 1.87816,1.30982 1.92843,3.00036z" fill="url(#color-11)" stroke-linecap="butt"/><path d="M263.10866,163.53186c-0.05233,-1.75955 0.58317,-3.20831 1.41944,-3.23591c0.83626,-0.0276 1.55662,1.37642 1.60895,3.13596c0.05233,1.75955 -0.58317,3.20831 -1.41944,3.23591c-0.83626,0.0276 -1.55662,-1.37642 -1.60895,-3.13596z" fill="url(#color-12)" stroke-linecap="butt"/></g><path d="M242.47254,134.52995c0.12638,-1.08313 1.17369,-1.84621 2.33922,-1.70437c1.16552,0.14185 2.00793,1.13492 1.88154,2.21806c-0.12638,1.08313 -1.17367,1.84623 -2.3392,1.70438c-1.16552,-0.14185 -2.00795,-1.13493 -1.88156,-2.21807z" fill="#000000" stroke="#000000" stroke-width="0" stroke-linecap="butt"/><path d="M234.74576,134.93154c0.01617,-1.11606 1.00284,-2.0061 2.20379,-1.98795c1.20094,0.01814 2.16139,0.93762 2.14522,2.05368c-0.01617,1.11606 -1.00285,2.00611 -2.20377,1.98796c-1.20094,-0.01814 -2.16141,-0.93762 -2.14524,-2.05368z" fill="#000000" stroke="#000000" stroke-width="0" stroke-linecap="butt"/><g stroke-width="0.875"><path d="M225.44029,129.9048c0.10049,-6.79259 5.81118,-12.2158 12.75514,-12.11308c6.94399,0.10273 12.70177,5.69559 12.60129,12.48821c0,0 -2.65907,2.97094 -8.10631,3.58458c-7.04674,0.79383 -17.29418,-0.98382 -17.25016,-3.9597z" fill="url(#color-13)" stroke="#000000" stroke-linecap="butt"/><path d="M250.68335,129.96839c0.1002,0.46624 -0.5599,2.04038 -0.5599,2.04038c0,0 -2.75055,2.54551 -12.03754,2.30953c-9.9039,-0.25167 -12.56324,-3.61015 -12.56324,-3.61015c0,0 -0.39606,-1.07825 -0.28461,-1.45963c0.13054,-0.44663 0.4228,-1.29838 0.4228,-1.29838c0,0 7.84843,3.02676 12.7868,3.07663c4.93837,0.04988 12.04154,-2.5268 12.04154,-2.5268c0,0 0.09811,1.02138 0.19416,1.46842z" fill="#0e0e0e" stroke="#000000" stroke-linecap="round"/><path d="M229.98626,120.21533c0,0 1.43277,-0.88339 2.05069,-1.21536c0.63077,-0.33889 1.60004,-0.62869 1.60004,-0.62869c0,0 5.37169,1.31707 7.72935,3.51129c2.35769,2.19422 4.51954,7.73008 4.51954,7.73008c0,0 -1.54634,0.49196 -2.06728,0.63679c-0.66642,0.18527 -1.94552,0.3204 -1.94552,0.3204c0,0 -1.19733,-4.96304 -3.66764,-7.1478c-2.47029,-2.18473 -8.21919,-3.2067 -8.21919,-3.2067z" fill="#0e0e0e" stroke="#000000" stroke-linecap="round"/><path d="M229.9466,124.63733c-0.91743,0.53821 -2.60442,0.25617 -2.60442,0.25617c0,0 -1.7439,-3.86198 -2.17864,-5.90793c-0.42948,-2.02116 -0.41422,-6.29442 -0.41422,-6.29442c0,0 2.2247,4.38535 3.38523,6.08363c1.06221,1.55439 3.30904,3.71261 3.30904,3.71261c0,0 -0.57956,1.61169 -1.49698,2.14992z" fill="#0e0e0e" stroke="#000000" stroke-linecap="butt"/><path d="M242.88348,119.16751c0,0 1.36478,-0.9487 1.79716,-2.43317c0.47239,-1.62188 1.03745,-5.63292 1.03745,-5.63292c0,0 1.30102,3.40775 1.54599,5.11971c0.24797,1.73294 -0.06702,5.21592 -0.06702,5.21592c0,0 -1.47917,0.37596 -2.41952,0.15676c-0.94035,-0.21922 -1.89405,-2.42626 -1.89405,-2.42626z" data-paper-data="{&quot;index&quot;:null}" fill="#0e0e0e" stroke="#000000" stroke-linecap="butt"/><path d="M244.05555,131.94439c0.00765,-0.5172 0.47461,-0.92964 1.04303,-0.92123c0.5684,0.0084 1.02298,0.43449 1.01533,0.95168c-0.00765,0.5172 -0.4746,0.92965 -1.04303,0.92124c-0.5684,-0.0084 -1.02298,-0.43448 -1.01532,-0.95169z" fill="#000000" stroke="none" stroke-linecap="butt"/><path d="M247.28541,130.93302c0.00765,-0.5172 0.4746,-0.92965 1.04302,-0.92124c0.5684,0.0084 1.02298,0.4345 1.01533,0.95169c-0.00765,0.51719 -0.47461,0.92964 -1.04304,0.92122c-0.5684,-0.0084 -1.02297,-0.43448 -1.01532,-0.95168z" fill="#000000" stroke="none" stroke-linecap="butt"/><path d="M240.95851,132.53985c0.00765,-0.5172 0.47461,-0.92964 1.04303,-0.92123c0.5684,0.0084 1.02298,0.43448 1.01533,0.95168c-0.00765,0.5172 -0.47461,0.92965 -1.04303,0.92124c-0.5684,-0.0084 -1.02298,-0.43449 -1.01532,-0.95169z" fill="#000000" stroke="none" stroke-linecap="butt"/><path d="M237.31248,132.77412c0.00765,-0.5172 0.47461,-0.92965 1.04303,-0.92124c0.5684,0.0084 1.02299,0.43448 1.01533,0.95169c-0.00765,0.5172 -0.47461,0.92965 -1.04304,0.92123c-0.5684,-0.0084 -1.02298,-0.43448 -1.01532,-0.95169z" fill="#000000" stroke="none" stroke-linecap="butt"/><path d="M233.73045,132.43293c0.00765,-0.5172 0.47461,-0.92964 1.04304,-0.92122c0.5684,0.0084 1.02298,0.43448 1.01533,0.95168c-0.00765,0.5172 -0.47461,0.92965 -1.04303,0.92124c-0.5684,-0.0084 -1.02299,-0.43449 -1.01533,-0.95169z" fill="#000000" stroke="none" stroke-linecap="butt"/><path d="M229.99026,131.54178c0.00765,-0.5172 0.4746,-0.92964 1.04302,-0.92123c0.5684,0.0084 1.02299,0.43448 1.01534,0.95168c-0.00765,0.5172 -0.47461,0.92965 -1.04304,0.92123c-0.5684,-0.0084 -1.02297,-0.43447 -1.01531,-0.95169z" fill="#000000" stroke="none" stroke-linecap="butt"/><path d="M226.73776,130.33363c0.00765,-0.5172 0.47461,-0.92964 1.04303,-0.92123c0.5684,0.0084 1.02298,0.43449 1.01533,0.95168c-0.00765,0.5172 -0.4746,0.92965 -1.04303,0.92124c-0.5684,-0.0084 -1.02298,-0.43449 -1.01532,-0.95169z" fill="#000000" stroke="none" stroke-linecap="butt"/><path d="M242.35848,128.23386c0.00765,-0.5172 0.47461,-0.92964 1.04303,-0.92123c0.5684,0.0084 1.02298,0.43449 1.01533,0.95168c-0.00765,0.5172 -0.4746,0.92965 -1.04303,0.92124c-0.5684,-0.0084 -1.02298,-0.43449 -1.01532,-0.95169z" fill="#000000" stroke="none" stroke-linecap="butt"/><path d="M240.7142,125.23381c0.00765,-0.5172 0.4746,-0.92965 1.04303,-0.92124c0.5684,0.0084 1.02297,0.4345 1.01532,0.95169c-0.00765,0.5172 -0.47462,0.92964 -1.04303,0.92123c-0.5684,-0.0084 -1.02298,-0.43449 -1.01533,-0.95168z" fill="#000000" stroke="none" stroke-linecap="butt"/><path d="M238.45743,122.28955c0.00765,-0.5172 0.4746,-0.92964 1.04303,-0.92123c0.5684,0.0084 1.02298,0.43449 1.01533,0.95168c-0.00765,0.5172 -0.47461,0.92965 -1.04303,0.92124c-0.5684,-0.0084 -1.02298,-0.43449 -1.01532,-0.95169z" fill="#000000" stroke="none" stroke-linecap="butt"/><path d="M234.32553,120.31007c0.00765,-0.5172 0.47462,-0.92965 1.04303,-0.92124c0.5684,0.0084 1.02299,0.43449 1.01533,0.95169c-0.00765,0.5172 -0.47461,0.92965 -1.04304,0.92123c-0.5684,-0.0084 -1.02297,-0.4345 -1.01532,-0.95169z" fill="#000000" stroke="none" stroke-linecap="butt"/></g><path d="M233.73385,140.26589c0,0 3.45229,1.27345 5.23203,1.2824c1.98244,0.00999 6.1202,-1.22525 6.1202,-1.22525l-0.04245,3.08745c0,0 -3.52446,0.9321 -5.32558,0.90343c-1.96765,-0.03132 -6.02498,-1.08409 -6.02498,-1.08409z" fill="url(#color-14)" stroke="#000000" stroke-width="1" stroke-linecap="butt"/><g stroke="#000000"><path d="M234.7447,173.00725l3.74539,0.7705l-1.53222,1.48972l4.02902,1.38543l-1.45045,1.22518l2.997,1.83331l-2.79152,1.03725l2.48634,1.76388l-3.75913,0.19339l1.33992,1.76313l-3.72466,-0.74697l0.68199,1.73413l-5.22603,-1.29463" data-paper-data="{&quot;index&quot;:null}" fill="#000000" stroke-width="0.5" stroke-linecap="round"/><path d="M234.82133,172.78429c0,0 5.31649,3.63309 4.80763,6.59517c-0.81554,4.74725 -7.4911,4.93445 -7.4911,4.93445l-8.75062,-5.39688l0.3979,-7.38892z" data-paper-data="{&quot;index&quot;:null}" fill="#000000" stroke-width="0.5" stroke-linecap="round"/><path d="M238.37684,178.76683l-4.67116,-1.00185" data-paper-data="{&quot;index&quot;:null}" fill="#000000" stroke-width="0.5" stroke-linecap="round"/><path d="M238.55898,176.77694l-3.38577,-0.64118" data-paper-data="{&quot;index&quot;:null}" fill="#000000" stroke-width="0.5" stroke-linecap="round"/><path d="M234.02898,173.97817l2.44506,0.50298l-1.00028,0.97252l2.63024,0.90443l-0.94685,0.79983l1.95648,1.1968l-1.82237,0.67713l1.62311,1.15148l-2.45399,0.12625l0.87471,1.151l-2.4315,-0.48762l0.44522,1.13207l-3.41163,-0.84518" data-paper-data="{&quot;index&quot;:null}" fill="#343434" stroke-width="0" stroke-linecap="round"/><path d="M233.27761,173.5273c0,0 4.23183,2.49159 3.90615,4.39333c-0.52195,3.04787 -5.72154,2.9902 -5.72154,2.9902l-6.95138,-3.72407l0.13291,-4.76723z" data-paper-data="{&quot;index&quot;:null}" fill="url(#color-15)" stroke-width="0" stroke-linecap="round"/><path d="M233.64376,176.29135l2.65528,0.50286" data-paper-data="{&quot;index&quot;:null}" fill="#585858" stroke-width="0" stroke-linecap="round"/><path d="M209.99334,179.65124l-5.20377,-0.65018l1.06578,-1.37787l-3.6654,-0.62764l1.6878,-1.1708l-3.46529,-1.5187l2.7594,-0.76348l-2.35251,-1.96291l3.25377,-0.64659l-1.05282,-1.66122l4.10756,0.13929l-1.06387,-1.93756l3.69057,0.61302" fill="#000000" stroke-width="0.5" stroke-linecap="round"/><path d="M218.9834,180.42794l3.75858,-23.71673l4.22124,-0.03639l-4.23097,23.97435c0,0 -1.42951,0.78923 -2.05579,0.75724c-0.53709,-0.02746 -1.25806,-0.897 -1.25806,-0.897z" fill="#000000" stroke-width="0.5" stroke-linecap="butt"/><path d="M220.52737,170.83982l-1.5713,7.00898l-9.74973,1.90854c0,0 -6.30184,-2.54471 -5.82502,-7.24667c0.29751,-2.93385 6.31446,-4.42257 6.31446,-4.42257z" fill="#000000" stroke-width="0.5" stroke-linecap="round"/><path d="M204.66148,172.36037l4.70483,0.7408" fill="#000000" stroke-width="0.5" stroke-linecap="round"/><path d="M204.98932,170.39756l3.38876,0.61795" fill="#000000" stroke-width="0.5" stroke-linecap="round"/><path d="M205.22352,174.42833l3.49314,0.55412" fill="#000000" stroke-width="0.5" stroke-linecap="round"/><path d="M210.12604,177.33407l-3.46482,-0.43289l0.70964,-0.91741l-2.44052,-0.41791l1.12377,-0.77955l-2.30725,-1.01118l1.83727,-0.50834l-1.56639,-1.30698l2.16643,-0.43051l-0.70097,-1.10608l2.73495,0.09277l-0.70837,-1.2901l2.45729,0.40818" fill="#343434" stroke-width="0" stroke-linecap="round"/><path d="M219.37382,171.3l-1.07459,4.5922l-7.56423,1.02617c0,0 -4.97061,-1.8326 -4.70008,-4.92717c0.1688,-1.93088 4.83029,-2.76957 4.83029,-2.76957z" fill="url(#color-16)" stroke-width="0" stroke-linecap="round"/><path d="M210.52644,173.61447l-3.6898,-0.58097" fill="#343434" stroke-width="0" stroke-linecap="round"/><path d="M207.09378,171.49416l2.65763,0.48461" fill="#585858" stroke-width="0" stroke-linecap="round"/><path d="M207.27744,174.6553l2.7395,0.43458" fill="#343434" stroke-width="0" stroke-linecap="round"/><path d="M219.55844,178.49175l3.96992,-23.02016l2.90519,0.02155l-3.95511,23.23201c0,0 -1.12116,0.63369 -1.56713,0.60171z" fill="#1f180f" stroke-width="0.5" stroke-linecap="butt"/></g><path d="M220.20526,160.86479c0.13252,-1.76426 2.15746,-3.09245 4.52281,-2.96658c2.36537,0.12587 4.17545,1.65813 4.04294,3.42239c-0.13252,1.76426 -2.15744,3.09245 -4.52281,2.96658c-2.36537,-0.12587 -4.17545,-1.65813 -4.04294,-3.42239z" fill="#000000" stroke="#000000" stroke-width="1.5" stroke-linecap="butt"/><path d="M231.89053,194.20321c0,0 -32.07863,0.18099 -51.76074,-16.16021c-15.73451,-20.78454 -12.98926,-39.54177 -12.98926,-39.54177" fill="none" stroke="#585858" stroke-width="8" stroke-linecap="round"/><path d="M233.14054,197.20933c0,0 -38.84928,0.02974 -56.37423,-17.1343c-16.62569,-17.48825 -13.62577,-43.36929 -13.62577,-43.36929" fill="none" stroke="#000000" stroke-width="6" stroke-linecap="round"/></g></g></svg>