<svg version="1.1" xmlns="http://www.w3.org/2000/svg" xmlns:xlink="http://www.w3.org/1999/xlink" width="73.88047" height="85.6693" viewBox="0,0,73.88047,85.6693"><defs><linearGradient x1="240.00001" y1="180.00005" x2="240.00001" y2="180.00005" gradientUnits="userSpaceOnUse" id="color-1"><stop offset="0" stop-color="#333333"/><stop offset="1" stop-color="#515151"/></linearGradient><linearGradient x1="238.18551" y1="123.72582" x2="237.82061" y2="133.57131" gradientUnits="userSpaceOnUse" id="color-2"><stop offset="0" stop-color="#2e1800"/><stop offset="1" stop-color="#4e3310"/></linearGradient></defs><g transform="translate(-226.62243,-109.83941)"><g data-paper-data="{&quot;isPaintingLayer&quot;:true}" fill-rule="nonzero" stroke-linejoin="miter" stroke-miterlimit="10" stroke-dasharray="" stroke-dashoffset="0" style="mix-blend-mode: normal"><path d="M269.23119,149.62443c-1.80872,0.52631 -9.40283,2.9875 -15.15988,1.99039c-5.75705,-0.99711 -9.08281,-6.18918 -9.08281,-6.18918" fill="none" stroke="#000000" stroke-width="10" stroke-linecap="round"/><path d="M269.37405,149.62443c-1.80872,0.52631 -9.40283,2.9875 -15.15988,1.99039c-5.75705,-0.99711 -9.08281,-6.18918 -9.08281,-6.18918" fill="none" stroke="#333333" stroke-width="7" stroke-linecap="round"/><path d="" fill="url(#color-1)" stroke="#000000" stroke-width="1.5" stroke-linecap="butt"/><path d="M236.08645,176.43678c0,0 2.44481,-1.70037 3.64032,-1.76148c1.32409,-0.06769 3.95794,1.37308 3.95794,1.37308" fill="none" stroke="#000000" stroke-width="10" stroke-linecap="round"/><path d="M233.11993,188.4303c0,0 -0.7336,-8.57935 -0.1052,-13.31549c0.6284,-4.73614 3.26111,-10.4703 3.26111,-10.4703" fill="none" stroke="#000000" stroke-width="10" stroke-linecap="round"/><path d="M243.05759,164.98996c0,0 2.72929,6.66483 3.4084,11.09427c0.67911,4.42944 0.1052,12.69777 0.1052,12.69777" fill="none" stroke="#000000" stroke-width="9.5" stroke-linecap="round"/><path d="M229.2449,189.39324c0,0 2.63682,-1.37022 3.9546,-1.37022c1.31693,0 3.94952,1.37022 3.94952,1.37022c0,0 0,2.97828 0,3.91896c0,0.60315 -0.65372,1.17756 -1.1594,1.17756c-1.67822,0 -4.79899,0 -5.70236,0c-0.38589,0 -1.04235,-0.94711 -1.04235,-0.94711z" fill="#232323" stroke="#000000" stroke-width="2" stroke-linecap="butt"/><path d="M242.40621,189.41219c0,0 2.74848,-1.16649 4.07087,-1.16649c1.31225,0 3.83325,1.16649 3.83325,1.16649c0,0 0,2.97828 0,3.91896c0,0.60315 -0.7221,1.17756 -1.22778,1.17756c-1.67822,0 -4.66223,0 -5.5656,0c-0.38589,0 -1.11073,-0.94711 -1.11073,-0.94711z" fill="#232323" stroke="#000000" stroke-width="2" stroke-linecap="butt"/><path d="M229.16474,168.35985c0,0 -0.66741,-0.06673 -0.43413,-3.29308c0.04292,-0.59368 -1.01908,-1.56091 -0.8372,-2.71229c0.16072,-1.01742 1.72838,-2.72473 1.72838,-3.1752c0,-0.53132 -1.14077,-1.87661 -1.30139,-3.16927c-0.12174,-0.9797 0.72359,-1.92917 0.73377,-2.47111c0.03817,-2.03355 0.61325,-2.5039 0.89442,-3.90605c0.3147,-1.56939 0.3544,-3.39892 0.3544,-3.39892c0,0 4.05105,-3.79264 5.96273,-3.80367c2.05131,-0.01184 4.63274,-1.12745 7.85997,-0.31728c2.47367,0.621 5.97948,3.53249 5.97948,3.53249c0,0 -0.63332,1.51327 -0.08112,3.77563c0.29895,1.22483 0.82818,4.03913 0.82818,5.50727c0,0.76271 -0.79761,2.75653 -0.81631,4.88125c-0.0134,1.52213 0.77297,3.16801 0.69096,4.21535c-0.08764,1.11916 -0.99524,5.26428 -0.99524,5.26428c0,0 -7.00004,1.83951 -10.17139,1.83951c-3.08421,0 -10.3955,-2.76891 -10.3955,-2.76891z" fill="#24180f" stroke="#000000" stroke-width="2.5" stroke-linecap="butt"/><path d="M232.5155,138.77776c0,-0.1431 -1.98277,-2.17549 -1.98063,-2.31907c0.08013,-5.38844 4.04824,-9.98357 8.88271,-9.98357c1.17987,0 5.27915,2.8254 6.42766,5.13536c0.35857,0.72117 1.4464,2.2104 1.70236,3.63532c0.3087,1.71854 -0.24911,3.34353 -0.24911,3.41472c0,2.18158 -0.51107,4.47191 -0.51107,4.47191c0,0 -5.01273,2.51624 -7.40424,2.51624c-2.5907,0 -7.59024,-2.51624 -7.59024,-2.51624c0,0 0.72256,-1.8728 0.72256,-4.35467z" fill="#333333" stroke="#000000" stroke-width="2.5" stroke-linecap="butt"/><path d="M269.1588,141.63219c-1.79613,0.07954 -10.19158,2.5496 -16.4444,3.59319c-6.3196,1.05473 -19.40962,0.21357 -19.40962,0.21357" data-paper-data="{&quot;index&quot;:null}" fill="none" stroke="#000000" stroke-width="10" stroke-linecap="round"/><path d="M248.01383,143.61936c0,0 0.60922,-0.59648 0.92542,-0.50938c0.33245,0.09156 1.02295,1.04604 1.02295,1.04604c0,0 -1.10566,8.38465 -6.36251,14.91017c-5.62419,6.9815 -14.39181,11.44282 -14.39181,11.44282l-0.11854,-0.83601" fill="none" stroke="#000000" stroke-width="4" stroke-linecap="round"/><path d="M237.11729,135.73261c0,-0.94897 0.60766,-1.71827 1.35724,-1.71827c0.74958,0 1.35725,0.7693 1.35725,1.71827c0,0.94897 -0.60767,1.71827 -1.35725,1.71827c-0.74958,0 -1.35724,-0.76929 -1.35724,-1.71827z" fill="#000000" stroke="#000000" stroke-width="1.5" stroke-linecap="butt"/><path d="M242.33513,135.46279c0,-0.94897 0.60767,-1.71827 1.35725,-1.71827c0.74958,0 1.35724,0.76929 1.35724,1.71827c0,0.94897 -0.60766,1.71828 -1.35724,1.71828c-0.74958,0 -1.35725,-0.7693 -1.35725,-1.71828z" fill="#000000" stroke="#000000" stroke-width="1.5" stroke-linecap="butt"/><g stroke="#000000" stroke-width="2" stroke-linecap="butt"><path d="M295.86126,112.96901l-26.57195,37.75839l-3.10043,-1.80397l26.57195,-37.75839z" fill="#2f1900"/><path d="M299.33194,130.86629l-3.49319,4.10716c0,0 -2.23251,-12.52756 -6.22973,-15.48648c-4.14956,-3.07168 -17.71125,-2.02033 -17.71125,-2.02033l3.4932,-4.10713c0,0 13.85342,-0.8354 18.05414,2.27411c3.93433,2.91237 5.88684,15.23267 5.88684,15.23267z" fill="#242424"/></g><path d="M269.4088,141.61433c-1.79613,0.07954 -10.19158,2.5496 -16.4444,3.59319c-6.3196,1.05473 -19.40962,0.21357 -19.40962,0.21357" data-paper-data="{&quot;index&quot;:null}" fill="none" stroke="#333333" stroke-width="7" stroke-linecap="round"/><path d="M266.92875,143.23853c-0.60495,-3.09156 0.91951,-5.99205 3.40499,-6.4784c2.48549,-0.48634 5.73411,0.10333 6.33905,3.19491c0.60495,3.09156 -1.66285,7.51429 -4.14834,8.00066c-2.48549,0.48634 -4.99077,-1.62559 -5.59571,-4.71715z" fill="#000000" stroke="#000000" stroke-width="0" stroke-linecap="butt"/><path d="M265.24186,151.58847c-0.87677,-3.06557 0.41039,-6.12212 2.87495,-6.827c2.46457,-0.70489 5.54505,0.51643 6.42182,3.58199c0.87677,3.06557 -0.78216,6.8145 -3.24673,7.51938c-2.46457,0.70489 -5.17326,-1.20881 -6.05003,-4.27437z" fill="#000000" stroke="#000000" stroke-width="0" stroke-linecap="butt"/><g stroke="#000000"><path d="M229.97804,132.12962c0,0 -0.28983,-0.99069 0.29817,-2.3728c1.04307,-2.45181 3.6343,-5.93207 6.84614,-5.84861c4.61003,0.11978 9.44246,5.13666 9.44246,5.13666l-0.10245,2.29063c0,0 -5.26683,1.7828 -8.52841,1.93993c-3.26158,0.15713 -7.9559,-1.1458 -7.9559,-1.1458z" fill="url(#color-2)" stroke-width="1.5" stroke-linecap="butt"/><path d="M230.30831,130.00089c0,0 5.19407,0.60722 7.65869,0.46285c2.58491,-0.15142 7.50712,-1.35123 7.50712,-1.35123" fill="none" stroke-width="1.5" stroke-linecap="round"/><path d="M238.0352,129.39962c0.0358,-0.96582 0.9999,-1.72448 2.15339,-1.69451c1.15348,0.02997 2.05955,0.83722 2.02375,1.80304c-0.0358,0.96582 -0.9999,1.72448 -2.15338,1.69451c-1.15348,-0.02997 -2.05955,-0.83722 -2.02376,-1.80305z" fill="#e0e0e0" stroke-width="1" stroke-linecap="butt"/></g></g></g></svg>