<svg version="1.1" xmlns="http://www.w3.org/2000/svg" xmlns:xlink="http://www.w3.org/1999/xlink" width="141.63351" height="124.00577" viewBox="0,0,141.63351,124.00577"><defs><linearGradient x1="244.0824" y1="122.91069" x2="243.74143" y2="134.63135" gradientUnits="userSpaceOnUse" id="color-1"><stop offset="0" stop-color="#838383"/><stop offset="1" stop-color="#000000"/></linearGradient><linearGradient x1="236.36189" y1="109.19155" x2="236.14856" y2="116.52445" gradientUnits="userSpaceOnUse" id="color-2"><stop offset="0" stop-color="#838383"/><stop offset="1" stop-color="#2c2c2c"/></linearGradient><linearGradient x1="232.11623" y1="115.66944" x2="231.98278" y2="120.25623" gradientUnits="userSpaceOnUse" id="color-3"><stop offset="0" stop-color="#838383"/><stop offset="1" stop-color="#2c2c2c"/></linearGradient><linearGradient x1="210.95537" y1="89.21156" x2="230.14793" y2="103.79969" gradientUnits="userSpaceOnUse" id="color-4"><stop offset="0" stop-color="#cca670"/><stop offset="1" stop-color="#907751"/></linearGradient><linearGradient x1="216.91575" y1="104.86958" x2="220.21931" y2="99.58884" gradientUnits="userSpaceOnUse" id="color-5"><stop offset="0" stop-color="#dadada"/><stop offset="1" stop-color="#898989"/></linearGradient><linearGradient x1="222.3687" y1="95.94545" x2="225.67226" y2="90.66472" gradientUnits="userSpaceOnUse" id="color-6"><stop offset="0" stop-color="#dadada"/><stop offset="1" stop-color="#898989"/></linearGradient><linearGradient x1="224.9413" y1="98.62512" x2="231.25014" y2="103.04269" gradientUnits="userSpaceOnUse" id="color-7"><stop offset="0" stop-color="#272727"/><stop offset="1" stop-color="#000000"/></linearGradient><linearGradient x1="257.01838" y1="103.08874" x2="238.79163" y2="127.0683" gradientUnits="userSpaceOnUse" id="color-8"><stop offset="0" stop-color="#202020"/><stop offset="1" stop-color="#000000"/></linearGradient><linearGradient x1="244.93449" y1="124.65623" x2="252.96813" y2="130.76254" gradientUnits="userSpaceOnUse" id="color-9"><stop offset="0" stop-color="#696969"/><stop offset="1" stop-color="#272727"/></linearGradient><linearGradient x1="256.15733" y1="109.47807" x2="264.19094" y2="115.5844" gradientUnits="userSpaceOnUse" id="color-10"><stop offset="0" stop-color="#696969"/><stop offset="1" stop-color="#272727"/></linearGradient><linearGradient x1="236.63027" y1="115.55141" x2="242.44057" y2="119.96777" gradientUnits="userSpaceOnUse" id="color-11"><stop offset="0" stop-color="#696969"/><stop offset="1" stop-color="#272727"/></linearGradient><radialGradient cx="221.95472" cy="86.94189" r="5.19534" gradientUnits="userSpaceOnUse" id="color-12"><stop offset="0" stop-color="#00059e"/><stop offset="1" stop-color="#1f5cff"/></radialGradient><radialGradient cx="219.12694" cy="98.20622" r="5.19534" gradientUnits="userSpaceOnUse" id="color-13"><stop offset="0" stop-color="#00059e"/><stop offset="1" stop-color="#1f5cff"/></radialGradient><radialGradient cx="219.0863" cy="98.28938" r="7.2184" gradientUnits="userSpaceOnUse" id="color-14"><stop offset="0" stop-color="#0015ff"/><stop offset="1" stop-color="#0015ff" stop-opacity="0"/></radialGradient><radialGradient cx="221.98021" cy="87.0519" r="6.6881" gradientUnits="userSpaceOnUse" id="color-15"><stop offset="0" stop-color="#0021ff"/><stop offset="1" stop-color="#0021ff" stop-opacity="0"/></radialGradient><linearGradient x1="261.55093" y1="92.62717" x2="267.68342" y2="97.28849" gradientUnits="userSpaceOnUse" id="color-16"><stop offset="0" stop-color="#2c2c2c"/><stop offset="1" stop-color="#464646"/></linearGradient><linearGradient x1="267.32355" y1="100.7661" x2="277.53503" y2="103.95566" gradientUnits="userSpaceOnUse" id="color-17"><stop offset="0" stop-color="#000000" stop-opacity="0"/><stop offset="1" stop-color="#000000" stop-opacity="0"/></linearGradient><linearGradient x1="250.58374" y1="117.01739" x2="258.61735" y2="123.12371" gradientUnits="userSpaceOnUse" id="color-18"><stop offset="0" stop-color="#696969"/><stop offset="1" stop-color="#272727"/></linearGradient><linearGradient x1="216.56782" y1="154.77737" x2="213.8782" y2="152.03259" gradientUnits="userSpaceOnUse" id="color-19"><stop offset="0" stop-color="#271100"/><stop offset="1" stop-color="#613700"/></linearGradient><linearGradient x1="189.10003" y1="184.78617" x2="183.6942" y2="179.30579" gradientUnits="userSpaceOnUse" id="color-20"><stop offset="0" stop-color="#ffffff"/><stop offset="1" stop-color="#323232"/></linearGradient><linearGradient x1="219.44533" y1="145.91132" x2="215.938" y2="156.01813" gradientUnits="userSpaceOnUse" id="color-21"><stop offset="0" stop-color="#000000" stop-opacity="0"/><stop offset="1" stop-color="#000000" stop-opacity="0"/></linearGradient></defs><g transform="translate(-159.01998,-79.49166)"><g data-paper-data="{&quot;isPaintingLayer&quot;:true}" fill-rule="nonzero" stroke-linejoin="miter" stroke-miterlimit="10" stroke-dasharray="" stroke-dashoffset="0" style="mix-blend-mode: normal"><path d="M261.77491,118.36437l7.66161,-1.13745l14.31144,7.12385" data-paper-data="{&quot;index&quot;:null}" fill="none" stroke="#131313" stroke-width="13" stroke-linecap="round"/><path d="M268.39941,144.46194l-10.00875,-11.75268l-0.9613,-7.66576" data-paper-data="{&quot;index&quot;:null}" fill="none" stroke="#131313" stroke-width="13" stroke-linecap="round"/><path d="M276.63472,128.82092l-4.28893,-2.35293l8.00121,-11.12745l4.22508,2.43064z" data-paper-data="{&quot;index&quot;:null}" fill="#000000" stroke="none" stroke-width="0" stroke-linecap="butt"/><path d="M278.34576,127.24816c-1.77679,-0.84911 -4.50952,-2.27631 -5.60485,-2.809c-0.85744,-0.417 -1.12004,-1.86192 -0.41517,-2.92395c0.52687,-0.79382 1.52716,-2.42731 2.37949,-3.77749c0.65382,-1.03571 2.13987,-1.51543 2.87518,-1.15783c1.05748,0.51427 4.04303,1.96622 5.90933,2.87385c0.92794,0.45128 1.03777,1.5816 0.34686,2.62013c-0.93133,1.39989 -2.13428,3.20846 -2.64893,3.98386c-0.43094,0.64928 -1.9631,1.61037 -2.8419,1.1904z" data-paper-data="{&quot;index&quot;:null}" fill="#000000" stroke="none" stroke-width="NaN" stroke-linecap="butt"/><path d="M261.2487,146.99794l-3.19647,-3.68238l9.4854,-10.15231l3.13173,3.76116z" data-paper-data="{&quot;index&quot;:null}" fill="#000000" stroke="none" stroke-width="0" stroke-linecap="butt"/><path d="M269.62446,139.03624c0.63694,0.73552 0.11983,2.46737 -0.38991,3.05505c-0.60875,0.70184 -2.02792,2.34135 -3.12634,3.61058c-0.81489,0.94158 -1.93057,1.13576 -2.61069,0.36118c-1.36786,-1.55786 -3.55604,-4.04995 -4.33109,-4.93264c-0.53892,-0.61377 -0.47224,-2.1734 0.34977,-3.07848c1.07159,-1.17988 2.37628,-2.57758 2.9995,-3.29609c0.83377,-0.96127 2.2924,-1.09173 2.92085,-0.37599c0.80279,0.91429 2.90007,3.1693 4.18792,4.6564z" data-paper-data="{&quot;index&quot;:null}" fill="#000000" stroke="none" stroke-width="NaN" stroke-linecap="butt"/><path d="M271.1262,160.78526c-0.52355,-0.76364 -1.64604,-2.40089 -2.55863,-3.73198c-0.76104,-1.11002 -0.75692,-2.4316 -0.17523,-2.8304c1.5458,-1.0598 8.48057,-5.81425 8.48057,-5.81425c0,0 0.99806,0.65717 2.26449,1.40227c0.82107,0.48307 2.06041,2.63741 2.35276,3.64344c0.48401,1.66552 0.62903,2.60642 0.62903,2.60642c0,0 -7.0494,4.83306 -8.56434,5.87168c-0.54712,0.3751 -1.87432,-0.33861 -2.42864,-1.14715z" data-paper-data="{&quot;index&quot;:null}" fill="#000000" stroke="none" stroke-width="0" stroke-linecap="butt"/><path d="M270.27272,155.62034l-6.72654,-6.52072c0,0 4.56899,-0.98691 6.00782,-1.95055c1.50264,-1.00637 4.43067,-5.06596 4.43067,-5.06596l2.93163,8.70223z" data-paper-data="{&quot;index&quot;:null}" fill="#000000" stroke="none" stroke-width="0" stroke-linecap="butt"/><path d="M291.98242,140.49245c-0.7672,-0.56491 -2.41213,-1.77609 -3.74946,-2.76078c-1.11522,-0.82115 -1.58489,-2.071 -1.17939,-2.62171c1.07759,-1.4635 5.91195,-8.02911 5.91195,-8.02911c0,0 1.17642,0.32241 2.63735,0.64768c0.94718,0.21086 2.88753,1.87565 3.52364,2.7387c1.0531,1.42881 1.52698,2.27438 1.52698,2.27438c0,0 -4.91425,6.67411 -5.97034,8.10839c-0.38142,0.518 -1.8884,0.24054 -2.70073,-0.35758z" data-paper-data="{&quot;index&quot;:null}" fill="#000000" stroke="none" stroke-width="0" stroke-linecap="butt"/><path d="M290.74064,135.77013l-10.03507,-4.08241c0,0 4.07116,-2.53613 5.11458,-3.9182c1.08968,-1.44335 2.16835,-6.37304 2.16835,-6.37304l7.59693,7.64183z" data-paper-data="{&quot;index&quot;:null}" fill="#000000" stroke="none" stroke-width="0" stroke-linecap="butt"/><g data-paper-data="{&quot;index&quot;:null}"><path d="M236.40842,118.09623c0,0 0.07015,-2.41134 0.09453,-3.24959c0.01658,-0.56967 0.66397,-1.27501 1.27568,-1.25721c0.87981,0.0256 3.28161,0.09547 4.69163,0.13649c0.58543,0.01702 1.08161,0.93035 1.06393,1.53839c-0.02425,0.83377 -0.08834,3.03665 -0.08834,3.03665z" fill="#282828" stroke="none" stroke-width="0" stroke-linecap="butt"/><path d="M227.89687,123.91451l0.11309,-3.88712l4.07106,0.11843l-0.11309,3.88712z" fill="#505050" stroke="none" stroke-width="0" stroke-linecap="butt"/><path d="M227.85533,117.92451c0,0 0.07398,-2.54287 0.09874,-3.39352c0.01441,-0.49561 0.82477,-1.22614 1.41945,-1.20886c0.82325,0.02395 2.98978,0.08699 4.41276,0.12838c0.73311,0.02133 1.29534,0.7918 1.28091,1.28743c-0.02474,0.85065 -0.09872,3.39353 -0.09872,3.39353z" fill="#282828" stroke="#000000" stroke-width="0.5" stroke-linecap="butt"/><path d="M230.24544,119.0729l0.07617,-2.6179l2.42147,0.07045l-0.07617,2.6179z" fill="#000000" stroke="none" stroke-width="0" stroke-linecap="butt"/><path d="M241.82182,109.61031c-0.48223,0.48868 -1.0967,0.84516 -1.78311,1.01246" fill="none" stroke="#ff9319" stroke-width="3" stroke-linecap="butt"/><path d="M237.97533,112.22434c-0.77655,-0.26903 -1.50483,-0.57995 -2.1738,-0.9241" fill="none" stroke="#000000" stroke-width="3" stroke-linecap="butt"/><path d="M242.2264,134.5873c0,0 -0.99891,-1.84173 -2.08709,-3.57794c-0.83533,-1.33281 -1.25371,-3.08468 -1.38272,-3.4998c-0.21975,-0.70713 -0.64562,-9.35762 -0.64562,-9.35762c0,0 6.45595,0.37131 7.6775,0.27075c0.39611,-0.03261 0.54237,4.55347 0.54237,4.55347c0,0 0.25633,2.14772 0.57467,3.01515c0.1413,0.38506 0.29998,1.54028 0.80698,2.29398c0.99619,1.48094 2.10271,3.8007 2.10271,3.8007z" fill="url(#color-1)" stroke="#000000" stroke-width="1.5" stroke-linecap="butt"/><path d="M224.93295,109.11359l0.04163,-1.431l21.61923,0.62899l-0.04163,1.431z" fill="#888888" stroke="#000000" stroke-width="0.5" stroke-linecap="butt"/><path d="M286.51112,115.68353l-19.44237,-0.59568l0.07668,-2.63555l19.56441,0.56921z" fill="#888888" stroke="#000000" stroke-width="1.5" stroke-linecap="round"/><path d="M224.46924,116.18464l0.21334,-7.33288l23.35865,0.6796l-0.21334,7.33289z" fill="url(#color-2)" stroke="#000000" stroke-width="1" stroke-linecap="butt"/><path d="M238.31372,118.33231l-0.02825,-2.81395l8.15566,0.23728l-0.33783,2.73888z" fill="#767676" stroke="#000000" stroke-width="1.5" stroke-linecap="butt"/><path d="M227.96536,120.02738c0,0 0.33959,-1.00041 -0.51733,-1.56408c-0.82159,-0.54044 -2.48469,-0.17885 -2.47421,-0.53837c0.02301,-0.79037 0.07161,-2.46121 0.07161,-2.46121l14.14161,0.41144l-0.13344,4.58679z" fill="url(#color-3)" stroke="#000000" stroke-width="1" stroke-linecap="butt"/><path d="M232.26384,123.83389l0.10631,-3.65389l5.91376,0.17205c0,0 -0.04824,1.65762 -0.06764,2.32493c-0.01468,0.50452 -1.25169,1.29367 -2.02579,1.27115c-1.08814,-0.03166 -3.92666,-0.11425 -3.92666,-0.11425z" fill="none" stroke="#000000" stroke-width="2" stroke-linecap="butt"/><path d="M237.85379,114.80429l0.09048,-3.10968l8.05645,0.2344l-0.09048,3.10969z" fill="#000000" stroke="none" stroke-width="0" stroke-linecap="butt"/><path d="M235.83524,119.3213l0.07237,-2.48775l2.31409,0.06732l-0.07237,2.48775z" fill="none" stroke="#000000" stroke-width="1" stroke-linecap="butt"/><path d="M237.86412,118.13543c-0.01375,0.47229 -0.39421,0.84442 -0.84981,0.83116c-0.4556,-0.01326 -0.8138,-0.40686 -0.80004,-0.87917c0.01375,-0.47229 0.39419,-0.84442 0.84981,-0.83116c0.4556,0.01326 0.81381,0.40687 0.80004,0.87917z" fill="#9e9e9e" stroke="none" stroke-width="0" stroke-linecap="butt"/><path d="M225.95832,110.36866l20.91696,0.45294" fill="none" stroke="#000000" stroke-width="1" stroke-linecap="round"/><path d="M232.09918,118.00663c-0.01686,0.57962 -0.58695,1.03333 -1.27328,1.01338c-0.68635,-0.01997 -1.22907,-0.50603 -1.2122,-1.08567c0.01686,-0.57962 0.58693,-1.03333 1.27327,-1.01335c0.68635,0.01997 1.22907,0.50603 1.21221,1.08568z" fill="#858585" stroke="none" stroke-width="0" stroke-linecap="butt"/><path d="M225.94326,114.36507l0.08144,-2.79874l7.7136,0.22442c0,0 1.51519,0.99147 1.50201,1.44425c-0.01392,0.47867 -1.58343,1.35448 -1.58343,1.35448z" fill="#c7c7c7" stroke="#000000" stroke-width="1" stroke-linecap="butt"/><path d="M225.42884,114.11456l0.06561,-2.25453l0.85707,0.02494l-0.06561,2.25453z" fill="#888888" stroke="#000000" stroke-width="1" stroke-linecap="butt"/><path d="M233.91804,120.35486l1.79984,0.05237c0,0 -0.36959,0.91064 -0.38353,1.3894c-0.01467,0.50464 0.29759,1.56482 0.29759,1.56482c0,0 -1.46144,-0.75831 -1.75171,-1.26751c-0.28072,-0.49244 0.03781,-1.73908 0.03781,-1.73908z" fill="#5b5b5b" stroke="none" stroke-width="0" stroke-linecap="butt"/><path d="M248.1464,115.80183l0.15093,-5.18773l1.41687,0.04122l-0.15093,5.18773z" fill="#5b5b5b" stroke="#000000" stroke-width="1.5" stroke-linecap="butt"/><path d="M286.44226,116.1909l0.1032,-3.54752l4.75177,0.13826l-0.10321,3.5475z" fill="#393939" stroke="#000000" stroke-width="2" stroke-linecap="butt"/><path d="M267.77661,116.67071l0.122,-4.19306l1.66266,0.04838l-0.122,4.19306z" fill="#000000" stroke="#000000" stroke-width="0.5" stroke-linecap="butt"/><path d="M271.30847,116.81626l0.30072,-10.33662l1.66266,0.04838l-0.30072,10.33662z" fill="#000000" stroke="#000000" stroke-width="0.5" stroke-linecap="butt"/><path d="M268.03452,111.39548l5.13645,0.18579l-0.06273,1.15161l-5.13645,-0.18579z" fill="#000000" stroke="#000000" stroke-width="0.5" stroke-linecap="butt"/><path d="M267.90593,111.33964l3.61735,-4.32509l0.04994,1.44844l-2.01492,2.92469z" fill="#000000" stroke="#000000" stroke-width="0.5" stroke-linecap="butt"/><path d="M224.10838,109.11793l0.03541,-1.21696l3.46587,0.10085l-0.0354,1.21695z" fill="#000000" stroke="none" stroke-width="0" stroke-linecap="butt"/><path d="M249.68195,116.49562l0.18066,-6.20885l18.19315,0.52932l-0.18064,6.20886z" fill="#4d4d4d" stroke="#000000" stroke-width="1.5" stroke-linecap="butt"/><path d="M223.10039,115.68786l0.1962,-6.74425l1.94564,0.0566l-0.19623,6.74425z" fill="#222222" stroke="#000000" stroke-width="1" stroke-linecap="butt"/><path d="M200.18626,122.4332c0.01121,-1.12371 -0.40744,-13.78467 -0.40744,-13.78467l21.63183,0.42068l-0.16934,5.82018c0,0 -7.75368,-1.31257 -13.84061,0.51587c-2.31521,0.69546 -4.6415,7.12745 -5.53464,7.3365c-0.33654,0.07879 -1.68001,-0.29081 -1.67982,-0.30858z" fill="#3a3a3a" stroke="#000000" stroke-width="1.5" stroke-linecap="butt"/><path d="M205.18975,120.83369c0.01016,-0.75172 0.14896,-8.19773 0.14896,-8.19773l11.78461,0.20326l-0.2963,4.15379c0,0 -3.82935,-0.2021 -7.12158,-0.01703c-0.99493,1.27709 -2.93557,4.13275 -3.42293,4.27583c-0.18365,0.05391 -1.09293,-0.40621 -1.09275,-0.41811z" fill="#303030" stroke="#000000" stroke-width="1.5" stroke-linecap="butt"/><path d="M225.3805,107.80048l0.06168,-2.12003l5.90147,0.1717l-0.06169,2.12003z" fill="#888888" stroke="#000000" stroke-width="1" stroke-linecap="butt"/><path d="M227.6007,107.05201c-0.01285,0.44101 -0.41737,0.78707 -0.90356,0.77291c-0.48619,-0.01415 -0.86991,-0.38312 -0.85709,-0.82414c0.01285,-0.44101 0.41737,-0.78705 0.90355,-0.7729c0.48619,0.01415 0.86991,0.38312 0.85709,0.82414z" fill="#575757" stroke="#000000" stroke-width="1" stroke-linecap="butt"/><path d="M227.01825,105.77936l0.0663,-2.27903l0.7999,0.02327l-0.0663,2.27903z" fill="#575757" stroke="#000000" stroke-width="1" stroke-linecap="butt"/><path d="M231.27856,107.89199l0.01602,-0.5502l1.42045,0.04133l-0.01602,0.5502z" fill="#575757" stroke="#000000" stroke-width="0.5" stroke-linecap="butt"/><path d="M233.49775,107.89976l0.01602,-0.5502l1.42045,0.04133l-0.01602,0.5502z" fill="#575757" stroke="#000000" stroke-width="0.5" stroke-linecap="butt"/><path d="M235.96657,108.01783l0.01602,-0.5502l1.42045,0.04134l-0.01602,0.55019z" fill="#575757" stroke="#000000" stroke-width="0.5" stroke-linecap="butt"/><path d="M238.18443,108.07179l0.01602,-0.5502l1.42045,0.04133l-0.01602,0.5502z" fill="#575757" stroke="#000000" stroke-width="0.5" stroke-linecap="butt"/><path d="M240.37344,108.13548l0.01602,-0.5502l1.42045,0.04133l-0.01602,0.5502z" fill="#575757" stroke="#000000" stroke-width="0.5" stroke-linecap="butt"/><path d="M242.59125,108.18949l0.01602,-0.55019l1.42045,0.04133l-0.01602,0.55019z" fill="#575757" stroke="#000000" stroke-width="0.5" stroke-linecap="butt"/><path d="M244.81986,108.27255l0.01602,-0.55019l1.42045,0.04133l-0.01602,0.55019z" fill="#575757" stroke="#000000" stroke-width="0.5" stroke-linecap="butt"/><path d="M241.52637,120.80101l0.09409,-3.23386l1.73243,0.0504l-0.09409,3.23386z" fill="#585858" stroke="#000000" stroke-width="1.5" stroke-linecap="butt"/><path d="M221.29311,114.76438l0.15221,-5.23152l2.36259,0.06875l-0.15221,5.23152z" fill="#c7c7c7" stroke="#000000" stroke-width="1" stroke-linecap="butt"/><path d="M222.07125,130.28577l6.05929,-10.2915c0,0 2.89141,0.0165 3.71836,0.28043c0.81969,0.26164 0.39072,3.36461 0.39072,3.36461l-4.90157,8.52939z" fill="#262626" stroke="#000000" stroke-width="2" stroke-linecap="butt"/></g><path d="M224.88217,110.51845c-2.68921,2.81332 -17.65273,-6.69686 -18.23018,-10.00012c-0.66227,-3.78845 2.47863,-10.90425 8.10069,-14.71803c4.72257,-3.2036 9.8683,-1.24838 13.61891,1.35312c3.15357,2.18736 8.17158,4.09585 7.8307,7.84033c-4.5453,6.52854 -6.21982,9.35838 -11.32013,15.52467z" data-paper-data="{&quot;index&quot;:null}" fill="url(#color-4)" stroke="none" stroke-width="0" stroke-linecap="butt"/><path d="M216.32392,100.82565c0.91225,-1.45825 2.65628,-2.01197 3.8954,-1.2368c1.23911,0.77517 1.50409,2.5857 0.59183,4.04395c-0.91225,1.45825 -2.65628,2.01197 -3.8954,1.2368c-1.23911,-0.77517 -1.50409,-2.5857 -0.59183,-4.04395z" data-paper-data="{&quot;index&quot;:null}" fill="url(#color-5)" stroke="none" stroke-width="0" stroke-linecap="butt"/><path d="M218.32003,103.35127c-0.77312,-0.48365 -1.00777,-1.50247 -0.52413,-2.27558c0.48365,-0.77312 1.50247,-1.00777 2.27558,-0.52413c0.77312,0.48365 1.00778,1.50247 0.52413,2.27558c-0.48365,0.77312 -1.50247,1.00777 -2.27558,0.52413z" data-paper-data="{&quot;index&quot;:null}" fill="#000000" stroke="none" stroke-width="0" stroke-linecap="butt"/><path d="M213.85112,103.02268c0,0 0.73119,-1.99903 1.26141,-2.84657c0.53994,-0.86311 1.94959,-2.28621 1.94959,-2.28621" data-paper-data="{&quot;index&quot;:null}" fill="none" stroke="#000000" stroke-width="2.5" stroke-linecap="round"/><path d="M219.47924,93.81857c0,0 0.73117,-1.99904 1.26141,-2.84657c0.53994,-0.86311 1.94959,-2.28621 1.94959,-2.28621" data-paper-data="{&quot;index&quot;:null}" fill="none" stroke="#000000" stroke-width="2.5" stroke-linecap="round"/><path d="M221.77688,91.90151c0.91225,-1.45825 2.65628,-2.01197 3.8954,-1.2368c1.23911,0.77517 1.50409,2.5857 0.59183,4.04395c-0.91225,1.45825 -2.65628,2.01197 -3.89538,1.2368c-1.23911,-0.77517 -1.50409,-2.5857 -0.59183,-4.04395z" data-paper-data="{&quot;index&quot;:null}" fill="url(#color-6)" stroke="none" stroke-width="0" stroke-linecap="butt"/><path d="M223.77301,94.42716c-0.77312,-0.48365 -1.00778,-1.50247 -0.52413,-2.27558c0.48365,-0.77312 1.50247,-1.00777 2.27558,-0.52413c0.77312,0.48365 1.00777,1.50247 0.52413,2.27558c-0.48365,0.77312 -1.50247,1.00777 -2.27558,0.52413z" data-paper-data="{&quot;index&quot;:null}" fill="#000000" stroke="none" stroke-width="0" stroke-linecap="butt"/><path d="M234.75165,97.82935l-0.96125,0.22365l0.18768,1.09381l-0.80887,0.6586l-0.89516,0.6765l-1.0066,0.1473l-0.56317,0.88024l-0.62448,0.32186l-0.25699,0.85986l-0.14019,1.70813l-0.93306,0.75094l-0.23188,1.13801l-0.22189,0.94684l-1.36738,0.23496l-0.90745,0.86487l-0.49769,-0.94835l-1.04344,0.68957l-1.02432,-0.54469l0.40579,-1.04008l-0.54425,-0.57957l-0.41294,-1.11586l0.56901,-0.84479l0.26659,-1.16722l0.56256,-0.67795l-0.03995,-1.04381l0.71532,-1.21174l0.25474,-1.64107l1.14003,-0.18388l0.89094,-0.86636l0.97102,-0.14415l0.55737,-0.77456l0.93923,-0.17342l0.13064,-1.08669l1.16113,0.1754l0.65241,-0.04395l0.40946,-0.87105l1.64074,0.58853l0.54182,1.16408l0.63164,1.12279z" data-paper-data="{&quot;index&quot;:null}" fill="url(#color-7)" stroke="#000000" stroke-width="0" stroke-linecap="butt"/><path d="M208.99728,105.10527l-1.91549,-0.37079l-1.20394,-1.15073l-1.64429,-0.6189l0.20995,-1.06694l0.20389,-0.857l-0.7293,-1.08573l1.25766,-1.02086l0.21458,-1.3186l-0.33033,-1.8581l1.31715,-0.34437l0.36182,-1.78092l0.89413,-1.80056l0.82722,-1.20014c0,0 0.94645,0.27742 1.3514,0.10534c0.40902,-0.1738 1.09061,-1.14301 1.09061,-1.14301l-0.15853,-1.40212l0.88974,-0.96305l1.06649,-1.11504l0.65507,-1.21552l0.63261,-1.18818l0.84902,1.48522l1.0119,-0.00894l1.33347,-0.11916l1.57294,0.09935c0,0 0.74515,0.58137 0.80487,0.93076c0.0526,0.30769 -0.53059,1.29372 -0.53059,1.29372l-1.18802,1.06661l0.56297,1.35637c0,0 -0.38987,0.89329 -0.52904,1.06995c-0.2088,0.26505 -0.98269,0.12745 -0.98269,0.12745l-0.41027,1.28111c0,0 -0.06351,0.24864 -0.28556,0.51253c-0.15267,0.18144 -0.82633,0.14691 -0.96221,0.22137c-0.23839,0.13065 -0.94635,0.02171 -0.94635,0.02171c0,0 -0.37295,0.4784 -0.42945,0.79649c-0.0698,0.39302 0.90115,1.41712 0.90115,1.41712l-0.91613,1.22409l-0.73762,0.79697l-1.16379,1.07898l-0.2168,1.0725l-0.08549,1.79434l-0.42656,1.46989l-1.5852,0.37279l0.24829,1.42669z" data-paper-data="{&quot;index&quot;:null}" fill="#000000" stroke="#000000" stroke-width="0.5" stroke-linecap="butt"/><path d="M271.61316,101.90014c-1.79697,1.26639 -25.79236,-3.46602 -25.79236,-3.46602" data-paper-data="{&quot;index&quot;:null}" fill="none" stroke="#121212" stroke-width="10" stroke-linecap="round"/><path d="M220.69917,116.17016l16.81971,-23.24389c0,0 10.39165,8.66539 15.87738,12.29842c5.39077,3.57013 17.21597,9.23523 17.21597,9.23523c0,0 -3.84904,9.09243 -6.63426,12.97602c-2.78002,3.87633 -10.06151,10.30377 -10.06151,10.30377c0,0 -10.21501,-7.43391 -15.67675,-10.9805c-5.60686,-3.64079 -17.54049,-10.58906 -17.54049,-10.58906z" data-paper-data="{&quot;index&quot;:null}" fill="#191919" stroke="none" stroke-width="0" stroke-linecap="butt"/><path d="M242.25978,95.29322c0,0 10.36952,4.06038 13.91071,7.35314c4.00349,2.84299 14.1631,10.94183 14.1631,10.94183c0,0 -2.50428,9.97666 -5.68392,14.87748c-3.17963,4.90084 -11.29114,10.13138 -11.29114,10.13138c0,0 -12.5039,-9.43628 -16.03721,-12.88145c-1.64363,-1.23148 -9.76292,-10.12328 -9.76292,-10.12328c0,0 1.36412,-2.84791 3.68224,-5.63143c1.56869,-1.88363 3.86961,-4.934 5.40382,-6.88703c1.63992,-2.08761 0.79151,-1.41222 1.69939,-2.56873z" data-paper-data="{&quot;index&quot;:null}" fill="url(#color-8)" stroke="#000000" stroke-width="2" stroke-linecap="butt"/><path d="M249.76235,132.46221c-1.3243,-1.00659 -6.77472,-5.24451 -6.77472,-5.24451c0,0 1.28291,-1.68784 1.93332,-2.54356c0.66259,-0.87172 2.00637,-2.63963 2.00637,-2.63963c0,0 5.46435,4.15343 6.82053,5.18424c0.59156,0.44965 0.86181,1.38418 0.43429,1.94662c-0.82415,1.08427 -2.11745,2.65846 -2.53509,3.20793c-0.24292,0.31958 -1.34049,0.50252 -1.8847,0.08887z" data-paper-data="{&quot;index&quot;:null}" fill="url(#color-9)" stroke="#000000" stroke-width="1" stroke-linecap="butt"/><path d="M244.74236,129.49167c0,0 -2.19619,-1.66931 -2.82668,-2.14856c-0.29069,-0.22094 -0.3956,-1.15546 -0.04389,-1.6182c0.57571,-0.75742 2.26943,-2.98573 3.18127,-4.18536c0.33378,-0.43914 1.16908,-0.43207 1.50044,-0.18021c0.64943,0.49364 2.7699,2.10538 2.7699,2.10538z" data-paper-data="{&quot;index&quot;:null}" fill="#282828" stroke="#000000" stroke-width="1" stroke-linecap="butt"/><text transform="translate(239.02265,107.7866) rotate(-52.76338) scale(0.06656,0.06656)" font-size="40" xml:space="preserve" data-paper-data="{&quot;index&quot;:null}" fill="#ffffff" fill-rule="nonzero" stroke="#ffffff" stroke-width="2" stroke-linecap="butt" stroke-linejoin="miter" stroke-miterlimit="10" stroke-dasharray="" stroke-dashoffset="0" font-family="Sans Serif" font-weight="normal" text-anchor="start" style="mix-blend-mode: normal"><tspan x="0" dy="0">S.O.A.S.T</tspan></text><path d="M247.7568,110.51937c-0.63331,-0.09874 -1.25317,-0.33826 -1.81148,-0.72512" data-paper-data="{&quot;index&quot;:null}" fill="#e6e016" stroke="#ff1919" stroke-width="3" stroke-linecap="butt"/><path d="M237.34409,93.66842c0,0 2.38693,0.01291 3.23267,0.58469c0.81056,0.54799 2.19472,2.07294 2.19472,2.07294l-4.30939,5.78966c0,0 -1.67269,-2.47166 -1.77461,-2.5483c-0.71457,-0.53754 -2.85651,-1.08481 -2.85651,-1.08481z" data-paper-data="{&quot;index&quot;:null}" fill="#000000" stroke="#000000" stroke-width="0.5" stroke-linecap="butt"/><path d="M244.6401,108.21056c-0.28325,-0.64896 -0.37823,-1.36782 -0.27294,-2.06838" data-paper-data="{&quot;index&quot;:null}" fill="none" stroke="#1921ff" stroke-width="3" stroke-linecap="butt"/><path d="M245.16266,104.33983c0.53573,-0.66252 1.25399,-1.09684 2.02713,-1.28558" data-paper-data="{&quot;index&quot;:null}" fill="none" stroke="#4aff19" stroke-width="3" stroke-linecap="butt"/><path d="M249.28117,103.14166c0.37748,0.12699 0.74105,0.31665 1.0757,0.57101c0.22338,0.16979 0.42243,0.35972 0.59655,0.56532" data-paper-data="{&quot;index&quot;:null}" fill="none" stroke="#fff719" stroke-width="3" stroke-linecap="butt"/><path d="M251.77962,105.82833c0.11697,0.67653 0.04946,1.3837 -0.21375,2.03934" data-paper-data="{&quot;index&quot;:null}" fill="none" stroke="#ff9319" stroke-width="3" stroke-linecap="butt"/><path d="M260.98515,117.28408c-1.3243,-1.00659 -6.77472,-5.24451 -6.77472,-5.24451l3.9397,-5.18318c0,0 5.46435,4.15343 6.82053,5.18424c0.59156,0.44965 0.86181,1.38418 0.43429,1.94662c-0.82415,1.08427 -2.11745,2.65846 -2.53509,3.20793c-0.24292,0.31958 -1.34049,0.50252 -1.8847,0.08887z" data-paper-data="{&quot;index&quot;:null}" fill="url(#color-10)" stroke="#000000" stroke-width="1" stroke-linecap="butt"/><path d="M250.49836,110.77706l-2.46068,-4.27443" data-paper-data="{&quot;index&quot;:null}" fill="none" stroke="#000000" stroke-width="1.5" stroke-linecap="round"/><path d="M247.09973,107.86525c-0.6689,-0.50843 -0.799,-1.46284 -0.29055,-2.13177c0.50843,-0.6689 1.46284,-0.799 2.13177,-0.29055c0.6689,0.50843 0.799,1.46284 0.29055,2.13177c-0.50843,0.6689 -1.46284,0.799 -2.13177,0.29055z" data-paper-data="{&quot;index&quot;:null}" fill="#ffffff" stroke="none" stroke-width="3" stroke-linecap="butt"/><path d="M226.84417,108.18269c0,0 1.53515,0.97983 2.39417,1.49086c0.94069,0.55963 2.76533,1.21612 2.76533,1.21612l-3.69563,4.91005c0,0 -2.15319,-0.11724 -3.05233,-0.7783c-0.80276,-0.59018 -2.38043,-1.76256 -2.38043,-1.76256z" data-paper-data="{&quot;index&quot;:null}" fill="#000000" stroke="#000000" stroke-width="0.5" stroke-linecap="butt"/><path d="M212.79946,87.21312c3.17014,-2.94927 -1.37415,-6.04725 3.20498,-6.60984c5.24606,-0.63818 13.42449,3.96926 18.58209,7.5421c3.3039,3.75153 3.48775,3.20985 1.40857,8.21008c-1.95114,4.25596 -5.33458,10.19576 -8.22064,13.83951c-0.22561,0.28487 -0.68953,0.90368 -0.83954,1.02369c-3.71067,1.39135 -5.07924,1.37692 -8.22025,0.2903c-0.32216,-0.11153 -5.48378,-3.23062 -7.93453,-6.13515c-2.72451,-3.04891 -3.55835,-1.86495 -4.26297,-5.48472c-0.52406,-2.68904 3.16956,-6.13929 4.95054,-7.79267z" data-paper-data="{&quot;index&quot;:null}" fill="#3e3e3e" stroke="#000000" stroke-width="1.5" stroke-linecap="round"/><path d="M256.05163,114.19974c0,0 -2.19619,-1.66931 -2.82668,-2.14856c-0.29069,-0.22094 -0.3956,-1.15546 -0.04389,-1.6182c0.57571,-0.75742 2.26943,-2.98573 3.18127,-4.18536c0.33378,-0.43914 1.16908,-0.43207 1.50044,-0.18021c0.64943,0.49364 2.7699,2.10538 2.7699,2.10538z" data-paper-data="{&quot;index&quot;:null}" fill="#282828" stroke="#000000" stroke-width="1" stroke-linecap="butt"/><path d="M238.16733,98.38007c-1.77062,2.32947 -6.53502,4.44405 -9.16221,2.44712c-1.38753,-1.05464 -2.59638,-2.35752 -3.22815,-3.74158c-0.56446,-1.23656 -0.71734,-2.76754 0.11815,-3.86673c0.65212,-0.85796 1.85203,-2.50097 3.36279,-2.94722c2.59123,-0.76536 5.90669,0.16494 7.56629,1.42639c0,0 3.11375,4.35253 1.34313,6.68201z" data-paper-data="{&quot;index&quot;:null}" fill="#151515" stroke="#000000" stroke-width="1.5" stroke-linecap="butt"/><path d="M236.52617,91.89749c2.04187,1.55202 2.58462,4.27384 1.21226,6.07935c-1.37237,1.80552 -4.14015,2.01102 -6.18204,0.459c-2.04187,-1.55202 -2.58461,-4.27384 -1.21225,-6.07935c1.37237,-1.80552 4.14015,-2.01101 6.18203,-0.45899z" data-paper-data="{&quot;index&quot;:null}" fill="#313131" stroke="#000000" stroke-width="1.5" stroke-linecap="butt"/><g data-paper-data="{&quot;index&quot;:null}" stroke="#000000" stroke-width="1" stroke-linecap="butt"><path d="M239.9101,121.47582c-0.95779,-0.72802 -4.89491,-3.79948 -4.89491,-3.79948l3.26827,-4.29982c0,0 3.95208,3.00396 4.93293,3.74948c0.42784,0.32521 0.58595,1.05023 0.23128,1.51682c-0.6837,0.89948 -1.75004,2.21036 -2.09653,2.66618c-0.20151,0.26512 -1.04744,0.46598 -1.44103,0.16682z" fill="url(#color-11)"/><path d="M236.30788,119.28994c0,0 -1.58838,-1.2073 -2.0444,-1.55393c-0.21024,-0.15979 -0.24234,-0.8933 0.04943,-1.27716c0.4776,-0.62834 1.88266,-2.47688 2.6391,-3.47206c0.27689,-0.36428 0.91318,-0.4015 1.15286,-0.21934c0.4697,0.35702 2.00332,1.52272 2.00332,1.52272z" fill="#282828"/></g><path d="M216.44215,83.40061c0.92138,-0.94891 2.24215,-1.34531 3.62818,-1.21984c1.38887,0.12862 2.84316,0.77943 4.03407,1.92249c1.19089,1.1431 1.89625,2.56518 2.07444,3.94064c0.17516,1.37295 -0.1771,2.69905 -1.09846,3.64795c-0.92157,0.94912 -2.24213,1.3458 -3.62819,1.21983c-1.38905,-0.12842 -2.84315,-0.77944 -4.03406,-1.92249c-1.19089,-1.1431 -1.89651,-2.56493 -2.07444,-3.94064c-0.17513,-1.3725 0.17685,-2.69883 1.09844,-3.64794z" data-paper-data="{&quot;index&quot;:null}" fill="#000000" stroke="#000000" stroke-width="2" stroke-linecap="butt"/><path d="M222.0325,115.30347c0,0 1.46034,1.37118 3.62208,6.44065c-0.08203,2.58279 -6.51724,22.3544 -7.48244,25.99078" data-paper-data="{&quot;index&quot;:null}" fill="none" stroke="#121212" stroke-width="10" stroke-linecap="round"/><path d="M218.08743,83.32035c0.76822,-0.7698 1.89931,-1.06244 3.10305,-0.91392c1.20629,0.15123 2.48539,0.7438 3.55169,1.74233c1.06632,0.99858 1.72096,2.21684 1.91782,3.37957c0.19415,1.16052 -0.06973,2.26528 -0.83793,3.03509c-0.76838,0.76999 -1.89927,1.06282 -3.10304,0.91393c-1.20644,-0.15106 -2.48539,-0.7438 -3.55171,-1.74233c-1.06631,-0.99859 -1.72119,-2.21665 -1.91781,-3.37959c-0.19411,-1.16014 0.06953,-2.2651 0.83793,-3.03509z" data-paper-data="{&quot;index&quot;:null}" fill="url(#color-12)" stroke="#000000" stroke-width="2" stroke-linecap="butt"/><path d="M208.45486,100.3429c0,0 17.06606,12.08588 16.53286,12.45089c-0.8295,0.5678 -1.2991,-0.16915 -2.71687,1.17276c-0.76556,0.7246 -1.92788,3.04116 -3.45541,4.14305c-1.12143,0.80896 -19.12124,-12.5031 -19.12124,-12.5031c0,0 -5.03328,-5.13862 0.64795,-16.32802c8.7246,-11.61305 14.95411,-8.71578 14.95411,-8.71578c0,0 -0.17855,2.77597 -0.45519,7.93154c-0.27524,5.12916 -4.82078,10.04373 -4.82078,10.04373z" data-paper-data="{&quot;index&quot;:null}" fill="#1e1e1e" stroke="#000000" stroke-width="1.5" stroke-linecap="butt"/><path d="M213.61434,94.66497c0.92138,-0.94891 2.24214,-1.34532 3.62819,-1.21983c1.38887,0.12862 2.84317,0.77945 4.03407,1.92249c1.19089,1.1431 1.89624,2.56517 2.07444,3.94064c0.17516,1.37295 -0.17708,2.69904 -1.09843,3.64796c-0.92157,0.94912 -2.24213,1.3458 -3.62819,1.21983c-1.38905,-0.12842 -2.84316,-0.77945 -4.03406,-1.92249c-1.19089,-1.1431 -1.89653,-2.56492 -2.07445,-3.94063c-0.17513,-1.3725 0.17687,-2.69884 1.09844,-3.64794z" data-paper-data="{&quot;index&quot;:null}" fill="#000000" stroke="#000000" stroke-width="2" stroke-linecap="butt"/><path d="M215.25966,94.58469c0.76822,-0.7698 1.89931,-1.06244 3.10305,-0.91392c1.20629,0.15123 2.48539,0.7438 3.55171,1.74233c1.06631,0.99859 1.72096,2.21685 1.91782,3.37957c0.19415,1.16052 -0.06973,2.26528 -0.83793,3.03509c-0.76838,0.76999 -1.89927,1.06282 -3.10304,0.91393c-1.20644,-0.15106 -2.48539,-0.7438 -3.55171,-1.74233c-1.06631,-0.99859 -1.72119,-2.21665 -1.91781,-3.37959c-0.19411,-1.16014 0.06953,-2.2651 0.83793,-3.03509z" data-paper-data="{&quot;index&quot;:null}" fill="url(#color-13)" stroke="#000000" stroke-width="2" stroke-linecap="butt"/><path d="M218.22349,92.12341c1.60839,0.16405 3.29867,0.92815 4.69002,2.25407c1.39134,1.32597 2.22423,2.9664 2.44669,4.5471c0.2189,1.57778 -0.55363,2.83618 -1.60839,3.9143c-1.05501,1.07837 -2.19752,1.77736 -3.80263,1.61641c-1.60861,-0.16381 -3.29867,-0.92815 -4.69002,-2.25407c-1.39134,-1.32597 -2.12938,-2.90129 -2.3515,-4.48227c-0.21885,-1.57725 0.64851,-2.77112 1.70353,-3.84948c0,0 2.00723,-1.90649 3.61231,-1.74607z" data-paper-data="{&quot;index&quot;:null}" fill="url(#color-14)" stroke="#000000" stroke-width="0" stroke-linecap="butt"/><path d="M220.88944,81.14038c1.5892,0.21942 3.28252,1.01406 4.70366,2.33252c1.42115,1.31851 2.30509,2.91488 2.58593,4.43038c0.27725,1.51259 -0.43364,2.68187 -1.42933,3.66824c-0.99593,0.98661 -2.09285,1.60813 -3.67868,1.39178c-1.58942,-0.21921 -3.28252,-1.01406 -4.70367,-2.33253c-1.42115,-1.31851 -2.20919,-2.84909 -2.48974,-4.36486c-0.2772,-1.51209 0.52955,-2.61611 1.52551,-3.6027c0,0 1.90051,-1.73868 3.48632,-1.52284z" data-paper-data="{&quot;index&quot;:null}" fill="url(#color-15)" stroke="#000000" stroke-width="0" stroke-linecap="butt"/><path d="M212.32441,104.57368l1.33834,-0.25366" data-paper-data="{&quot;index&quot;:null}" fill="none" stroke="#000000" stroke-width="1" stroke-linecap="round"/><path d="M213.19789,105.00228l-0.36739,-1.41582" data-paper-data="{&quot;index&quot;:null}" fill="none" stroke="#000000" stroke-width="1" stroke-linecap="round"/><path d="M216.59496,88.8239l1.35869,0.09724" data-paper-data="{&quot;index&quot;:null}" fill="none" stroke="#000000" stroke-width="1" stroke-linecap="round"/><path d="M217.02179,89.71816l0.00714,-1.46269" data-paper-data="{&quot;index&quot;:null}" fill="none" stroke="#000000" stroke-width="1" stroke-linecap="round"/><path d="M247.18467,128.2372l-2.26398,-1.72085l1.55431,-2.04488l2.26398,1.72085z" data-paper-data="{&quot;index&quot;:null}" fill="#000000" stroke="none" stroke-width="0" stroke-linecap="butt"/><path d="M266.19182,99.25085" data-paper-data="{&quot;index&quot;:null}" fill="none" stroke="url(#color-16)" stroke-width="10" stroke-linecap="round"/><path d="M270.86678,108.46753c-2.81982,-0.88077 -4.77861,-2.5252 -3.93544,-5.22471c0.43011,-1.37706 1.58793,-4.74951 2.60008,-5.70298c0.97199,-0.91566 3.93697,-0.04672 5.31837,0.38476c2.81982,0.88077 3.2339,4.27439 2.39071,6.97391c-0.84317,2.69949 -3.55389,4.44982 -6.37368,3.56902z" data-paper-data="{&quot;index&quot;:null}" fill="#0a0a0a" stroke="url(#color-17)" stroke-width="0" stroke-linecap="butt"/><path d="M255.41157,124.8234c-1.3243,-1.00659 -6.77472,-5.24451 -6.77472,-5.24451l3.9397,-5.18318c0,0 5.46435,4.15343 6.82053,5.18424c0.59156,0.44965 0.86181,1.38418 0.43429,1.94662c-0.82415,1.08427 -2.11745,2.65846 -2.53509,3.20793c-0.24292,0.31958 -1.34049,0.50252 -1.8847,0.08887z" data-paper-data="{&quot;index&quot;:null}" fill="url(#color-18)" stroke="#000000" stroke-width="1" stroke-linecap="butt"/><path d="M250.47802,121.73906c0,0 -2.19619,-1.66931 -2.82668,-2.14856c-0.29069,-0.22094 -0.3956,-1.15546 -0.04389,-1.6182c0.57571,-0.75742 2.26943,-2.98573 3.18127,-4.18536c0.33378,-0.43914 1.16908,-0.43207 1.50044,-0.18021c0.64943,0.49364 2.7699,2.10538 2.7699,2.10538z" data-paper-data="{&quot;index&quot;:null}" fill="#282828" stroke="#000000" stroke-width="1" stroke-linecap="butt"/><path d="M252.83388,120.59836l-2.26398,-1.72085l1.55431,-2.04488l2.26398,1.72085z" data-paper-data="{&quot;index&quot;:null}" fill="#000000" stroke="none" stroke-width="0" stroke-linecap="butt"/><path d="M258.40747,113.05906l-2.26398,-1.72085l1.55431,-2.04488l2.26398,1.72085z" data-paper-data="{&quot;index&quot;:null}" fill="#000000" stroke="none" stroke-width="0" stroke-linecap="butt"/><g data-paper-data="{&quot;index&quot;:null}" stroke="#000000"><g data-paper-data="{&quot;index&quot;:null}"><path d="M209.38672,156.43392l9.74828,-9.60711l2.77404,2.9783l-9.83264,9.37358z" data-paper-data="{&quot;index&quot;:null}" fill="url(#color-19)" stroke-width="2" stroke-linecap="butt"/><path d="M160.37435,202.50474l46.6396,-46.39789l5.40584,5.48037c0,0 -1.69454,1.10941 -6.94436,6.33203c-5.60932,5.58032 -25.69975,22.96587 -33.88035,31.10408c-4.34296,4.32049 -11.22068,3.48147 -11.22068,3.48147z" data-paper-data="{&quot;index&quot;:null}" fill="url(#color-20)" stroke-width="2" stroke-linecap="butt"/><path d="M212.94237,161.40265l-5.9995,-5.62531" data-paper-data="{&quot;index&quot;:null}" fill="none" stroke-width="4" stroke-linecap="round"/><path d="M213.74098,157.27046l-2.41145,-2.47681" data-paper-data="{&quot;index&quot;:null}" fill="none" stroke-width="2" stroke-linecap="round"/><path d="M215.69463,155.49532l-2.28452,-2.34649" data-paper-data="{&quot;index&quot;:null}" fill="none" stroke-width="1.5" stroke-linecap="round"/><path d="M217.54366,153.14157l-2.22109,-2.2813" data-paper-data="{&quot;index&quot;:null}" fill="none" stroke-width="1.5" stroke-linecap="round"/><path d="M219.66935,151.57327l-2.22107,-2.28129" data-paper-data="{&quot;index&quot;:null}" fill="none" stroke-width="1.5" stroke-linecap="round"/></g><path d="M209.8387,158.78015c0,0 -35.04794,33.46668 -41.63983,39.74126c-2.0656,1.96612 -6.27249,3.03175 -6.27249,3.03175" fill="none" stroke-width="1" stroke-linecap="round"/></g><path d="M211.63682,149.21202c0.7154,-2.06155 1.61522,-3.19934 3.11352,-3.27951c0.53006,-0.02835 1.13506,0.07564 1.83324,0.31793c1.36292,0.47297 4.66508,1.48778 5.58641,2.52924c0.88483,1.00016 0.35446,3.37584 -0.12001,4.74307c-0.96849,2.7909 -4.37343,3.09866 -7.04525,2.17147c-2.67183,-0.92717 -4.3365,-3.69127 -3.36799,-6.48216z" data-paper-data="{&quot;index&quot;:null}" fill="#0a0a0a" stroke="url(#color-21)" stroke-width="0" stroke-linecap="butt"/></g></g></svg>