<svg version="1.1" xmlns="http://www.w3.org/2000/svg" xmlns:xlink="http://www.w3.org/1999/xlink" width="107.34399" height="134.05859" viewBox="0,0,107.34399,134.05859"><g transform="translate(-322.19125,-130.77486)"><g data-paper-data="{&quot;isPaintingLayer&quot;:true}" fill="#000000" fill-rule="nonzero" stroke="#0028ff" stroke-width="3" stroke-linecap="butt" stroke-linejoin="miter" stroke-miterlimit="10" stroke-dasharray="" stroke-dashoffset="0" style="mix-blend-mode: normal"><path d="M420.11301,194.83966l-3.32775,-13.28216l-7.98934,9.55239l-6.50588,-9.53981l-6.62875,10.14044l-7.04043,-7.41214c0,0 -3.30017,1.75293 -5.30346,3.59558c-1.73371,1.59468 -3.99064,7.90076 -3.99064,7.90076c0,0 -2.85935,-6.87447 -5.20376,-8.79462c-0.62244,-0.50982 -6.55484,0.54024 -11.08129,3.54083c-4.55862,3.02191 -7.70975,7.99574 -7.84128,7.82669c-0.73188,-0.9407 -7.48136,7.87245 -7.26472,0.87956c0.13869,-4.4762 -2.97544,-10.20823 -0.24884,-17.83582c0.25081,-0.70164 -0.73176,-7.46047 -4.14208,-13.58002c-4.06727,-7.2984 -10.70743,-14.08565 -10.70743,-14.08565c0,0 9.42719,2.52219 16.50464,6.70922c4.74871,2.80934 8.02616,7.88994 8.23309,7.77522c0.1563,-0.08667 3.54275,-7.39208 0.91155,-14.63312c-3.40158,-9.36114 -13.0504,-19.19196 -13.0504,-19.19196c0,0 15.30216,5.50043 19.51481,15.14222c3.57638,8.18559 1.9614,17.70529 3.17291,16.8886c3.31997,-2.23795 7.34509,-10.16456 7.34509,-10.16456c0,0 5.68849,17.03555 6.10382,16.27306c3.37227,-6.19106 10.12103,-27.78855 10.12103,-27.78855l5.98911,15.87084l7.59116,-3.71584l1.70433,9.30387l11.9385,-2.89328c0,0 6.57634,6.37655 8.15842,10.12271c1.44599,3.42389 0.96253,11.47457 0.96253,11.47457z"/><path d="M422.73752,241.92822c-1.28244,3.76107 -8.50153,9.35302 -8.50153,9.35302c0,0 -5.77873,3.26436 -11.00013,3.97036c-4.70845,0.63661 -5.6684,-1.99482 -6.94641,-1.35684c-0.71107,0.35495 -5.35036,6.66982 -5.35036,6.66982c0,0 -0.53726,-10.09321 -3.29766,-11.61896c-2.05684,-1.13689 -13.10327,14.9913 -22.61731,11.23328c-2.28731,-0.44944 -7.54167,-10.92737 -7.54167,-10.92737c0,0 -6.04977,-1.53904 -9.40368,-3.24777c-4.71193,-2.40064 -15.1236,-9.51841 -15.1236,-9.51841c0,0 8.0221,1.48064 13.94588,0.64702c1.53393,-0.21586 0.00375,-6.29624 -2.68426,-9.71714c-2.68803,-3.42088 -13.00859,-8.27997 -13.00859,-8.27997c0,0 11.79248,-1.24278 9.80387,-5.07672c-1.98862,-3.83394 -13.89934,-11.59289 -13.89934,-11.59289c0,0 9.04473,-0.15519 10.59321,-1.57039c0.4056,-0.37069 -3.34179,-5.73245 -3.43936,-6.0334c-1.48887,-4.59218 2.26435,-10.02756 6.77941,-17.97894c2.53211,-4.45926 3.9771,-10.80214 6.97184,-10.57227c2.45474,0.18842 4.25369,-1.04357 5.58752,3.17337c0.71444,2.25878 6.20863,6.98964 6.20863,6.98964c0,0 -5.32678,-0.25474 -6.92222,0.92644c-1.29292,0.95719 -1.9351,5.63098 -1.9351,5.63098c0,0 0.89724,5.74812 3.37077,7.94033c2.47351,2.19221 7.64588,0.60581 8.5286,2.60571c0.70703,1.60191 -1.72487,5.27456 -1.92155,8.55949c-0.22733,3.79674 1.79269,7.33603 3.16917,10.76731c1.73134,4.31587 5.06068,8.26585 7.55204,10.71499c3.34902,3.29227 12.01023,-3.64482 12.01023,-3.64482l2.56693,12.40764l11.36524,-8.78819l1.60242,12.07118l10.52626,-10.78724c0,0 2.5186,9.88843 3.4515,9.20692c6.13352,-4.48074 10.32012,-8.8985 10.32012,-8.8985c0,0 0.68441,12.5036 -0.76088,16.74223z"/><path d="M389.1474,170.37878c0.81519,-3.00074 3.72798,-4.85167 6.50589,-4.13415c2.7779,0.7175 4.36901,3.73174 3.5538,6.73249c-0.81519,3.00074 -3.72798,4.85167 -6.50589,4.13415c-2.7779,-0.7175 -4.369,-3.73173 -3.5538,-6.73249z"/></g></g></svg>