<svg version="1.1" xmlns="http://www.w3.org/2000/svg" xmlns:xlink="http://www.w3.org/1999/xlink" width="543.14132" height="454.51525" viewBox="0,0,543.14132,454.51525"><defs><linearGradient x1="171.0731" y1="220.5429" x2="171.0731" y2="224.0429" gradientUnits="userSpaceOnUse" id="color-1"><stop offset="0" stop-color="#363636"/><stop offset="1" stop-color="#303030"/></linearGradient><linearGradient x1="327.68025" y1="213.3065" x2="327.68025" y2="267.72317" gradientUnits="userSpaceOnUse" id="color-2"><stop offset="0" stop-color="#363636"/><stop offset="1" stop-color="#303030"/></linearGradient><linearGradient x1="58.14829" y1="125.7775" x2="58.14829" y2="148.11084" gradientUnits="userSpaceOnUse" id="color-3"><stop offset="0" stop-color="#d80202"/><stop offset="1" stop-color="#9a0202"/></linearGradient><linearGradient x1="67.64829" y1="214.40251" x2="67.64829" y2="236.73585" gradientUnits="userSpaceOnUse" id="color-4"><stop offset="0" stop-color="#d80202"/><stop offset="1" stop-color="#9a0202"/></linearGradient><linearGradient x1="67.64829" y1="271.74774" x2="67.64829" y2="294.08108" gradientUnits="userSpaceOnUse" id="color-5"><stop offset="0" stop-color="#d80202"/><stop offset="1" stop-color="#9a0202"/></linearGradient><linearGradient x1="428.16746" y1="271.9906" x2="428.16746" y2="294.32394" gradientUnits="userSpaceOnUse" id="color-6"><stop offset="0" stop-color="#d80202"/><stop offset="1" stop-color="#9a0202"/></linearGradient><linearGradient x1="427.97699" y1="209.2287" x2="427.97699" y2="231.56204" gradientUnits="userSpaceOnUse" id="color-7"><stop offset="0" stop-color="#d80202"/><stop offset="1" stop-color="#9a0202"/></linearGradient><linearGradient x1="355.47699" y1="98.39536" x2="355.47699" y2="120.7287" gradientUnits="userSpaceOnUse" id="color-8"><stop offset="0" stop-color="#d80202"/><stop offset="1" stop-color="#9a0202"/></linearGradient><linearGradient x1="355.47699" y1="22.49536" x2="355.47699" y2="44.8287" gradientUnits="userSpaceOnUse" id="color-9"><stop offset="0" stop-color="#d80202"/><stop offset="1" stop-color="#9a0202"/></linearGradient><linearGradient x1="58.23062" y1="22.48935" x2="58.23062" y2="44.82269" gradientUnits="userSpaceOnUse" id="color-10"><stop offset="0" stop-color="#d80202"/><stop offset="1" stop-color="#9a0202"/></linearGradient><linearGradient x1="1.39962" y1="214.40798" x2="1.39962" y2="226.02803" gradientUnits="userSpaceOnUse" id="color-11"><stop offset="0" stop-color="#1a1a1a"/><stop offset="1" stop-color="#242424"/></linearGradient><linearGradient x1="-4.6079" y1="136.49206" x2="-4.6079" y2="148.11211" gradientUnits="userSpaceOnUse" id="color-12"><stop offset="0" stop-color="#1a1a1a"/><stop offset="1" stop-color="#242424"/></linearGradient><linearGradient x1="247.91244" y1="271.95903" x2="247.91244" y2="283.57908" gradientUnits="userSpaceOnUse" id="color-13"><stop offset="0" stop-color="#1a1a1a"/><stop offset="1" stop-color="#242424"/></linearGradient><linearGradient x1="206.77485" y1="32.65903" x2="206.77485" y2="44.27908" gradientUnits="userSpaceOnUse" id="color-14"><stop offset="0" stop-color="#1a1a1a"/><stop offset="1" stop-color="#242424"/></linearGradient><linearGradient x1="63.51883" y1="44.92578" x2="63.51883" y2="125.78531" gradientUnits="userSpaceOnUse" id="color-15"><stop offset="0" stop-color="#1a1a1a"/><stop offset="1" stop-color="#242424"/></linearGradient><linearGradient x1="350.07384" y1="44.951" x2="350.07384" y2="98.29943" gradientUnits="userSpaceOnUse" id="color-16"><stop offset="0" stop-color="#1a1a1a"/><stop offset="1" stop-color="#242424"/></linearGradient><linearGradient x1="422.56704" y1="231.58501" x2="422.56704" y2="271.89177" gradientUnits="userSpaceOnUse" id="color-17"><stop offset="0" stop-color="#1a1a1a"/><stop offset="1" stop-color="#242424"/></linearGradient><linearGradient x1="72.96703" y1="236.81002" x2="72.96703" y2="271.66677" gradientUnits="userSpaceOnUse" id="color-18"><stop offset="0" stop-color="#1a1a1a"/><stop offset="1" stop-color="#242424"/></linearGradient><linearGradient x1="87.27291" y1="121.8594" x2="87.27291" y2="126.77005" gradientUnits="userSpaceOnUse" id="color-19"><stop offset="0" stop-color="#363636"/><stop offset="1" stop-color="#303030"/></linearGradient><linearGradient x1="150.58107" y1="179.75993" x2="150.58107" y2="269.31331" gradientUnits="userSpaceOnUse" id="color-20"><stop offset="0" stop-color="#363636"/><stop offset="1" stop-color="#303030"/></linearGradient><linearGradient x1="395.11658" y1="152.72914" x2="395.11658" y2="207.0042" gradientUnits="userSpaceOnUse" id="color-21"><stop offset="0" stop-color="#d80202"/><stop offset="1" stop-color="#9a0202"/></linearGradient><linearGradient x1="358.82801" y1="202.37307" x2="358.82801" y2="230.03974" gradientUnits="userSpaceOnUse" id="color-22"><stop offset="0" stop-color="#000000" stop-opacity="0"/><stop offset="1" stop-color="#000000" stop-opacity="0"/></linearGradient><linearGradient x1="358.3434" y1="205.92051" x2="358.3434" y2="226.82051" gradientUnits="userSpaceOnUse" id="color-23"><stop offset="0" stop-color="#d80202"/><stop offset="1" stop-color="#9a0202"/></linearGradient><linearGradient x1="298.09755" y1="190.11218" x2="298.09755" y2="206.48718" gradientUnits="userSpaceOnUse" id="color-24"><stop offset="0" stop-color="#d80202"/><stop offset="1" stop-color="#9a0202"/></linearGradient><linearGradient x1="297.97255" y1="190.11218" x2="297.97255" y2="206.48718" gradientUnits="userSpaceOnUse" id="color-25"><stop offset="0" stop-color="#d80202"/><stop offset="1" stop-color="#9a0202"/></linearGradient><linearGradient x1="206.91005" y1="45.55769" x2="206.91005" y2="68.47436" gradientUnits="userSpaceOnUse" id="color-26"><stop offset="0" stop-color="#363636"/><stop offset="1" stop-color="#303030"/></linearGradient><linearGradient x1="207.55397" y1="69.87017" x2="207.55397" y2="74.32105" gradientUnits="userSpaceOnUse" id="color-27"><stop offset="0" stop-color="#363636"/><stop offset="1" stop-color="#303030"/></linearGradient><linearGradient x1="425.96831" y1="108.72159" x2="425.96831" y2="120.34164" gradientUnits="userSpaceOnUse" id="color-28"><stop offset="0" stop-color="#1a1a1a"/><stop offset="1" stop-color="#242424"/></linearGradient><linearGradient x1="347.76913" y1="241.10803" x2="347.76913" y2="264.10803" gradientUnits="userSpaceOnUse" id="color-29"><stop offset="0" stop-color="#d80202"/><stop offset="1" stop-color="#9a0202"/></linearGradient></defs><g transform="translate(57.14879,1.85898)"><g data-paper-data="{&quot;isPaintingLayer&quot;:true}" fill-rule="nonzero" stroke-linejoin="miter" stroke-miterlimit="10" stroke-dasharray="" stroke-dashoffset="0" style="mix-blend-mode: normal"><path d="M161.13754,222.3169l20.87111,-0.048" fill="none" stroke="#000000" stroke-width="6" stroke-linecap="round"/><path d="M181.50865,222.2689l-20.87111,0.048" fill="none" stroke="url(#color-1)" stroke-width="3.5" stroke-linecap="round"/><path d="M285.97066,273.0285v-63.5h83.5v63.5z" fill="#000000" stroke="none" stroke-width="0" stroke-linecap="butt"/><path d="M290.01357,267.72317v-54.41667h75.33333v54.41667z" fill="url(#color-2)" stroke="none" stroke-width="0" stroke-linecap="butt"/><path d="M-3.38791,450.77671v-237.39887h83.15734v237.39887z" data-paper-data="{&quot;index&quot;:null}" fill="#000000" stroke="none" stroke-width="0" stroke-linecap="butt"/><path d="M-2.41579,149.126v-150.98498h72.76021v150.98498z" data-paper-data="{&quot;index&quot;:null}" fill="#000000" stroke="none" stroke-width="0" stroke-linecap="butt"/><path d="M77.84385,452.65626v-182.78325h403.12501v182.78326z" fill="#000000" stroke="none" stroke-width="0" stroke-linecap="butt"/><path d="M170.94057,289.17246l-63.77993,-99.96114l24.23301,-15.4618l63.77992,99.96115z" fill="#000000" stroke="none" stroke-width="0" stroke-linecap="butt"/><path d="M68.16711,128.8285v-9h37v9z" fill="#000000" stroke="none" stroke-width="0" stroke-linecap="butt"/><path d="M69.16711,45.8285v-47h411.60661v47z" fill="#000000" stroke="none" stroke-width="0" stroke-linecap="butt"/><path d="M89.1373,75.37017v-7.25h236.66666v7.25z" fill="#000000" stroke="none" stroke-width="0" stroke-linecap="butt"/><path d="M343.30401,121.64102v-78h137.5v78z" fill="#000000" stroke="none" stroke-width="0" stroke-linecap="butt"/><path d="M341.03323,216.59102c0,-9.38884 7.61116,-17 17,-17c9.38884,0 17,7.61116 17,17c0,9.38884 -7.61116,17 -17,17c-9.38884,0 -17,-7.61116 -17,-17z" fill="#000000" stroke="none" stroke-width="0" stroke-linecap="butt"/><path d="M422.25405,152.72914l-56.94172,56.94172" fill="none" stroke="#000000" stroke-width="11" stroke-linecap="round"/><path d="M342.36651,129.65623v-9.78717h26.64286v9.78717l-4.75621,0.10918c0,0 -4.92974,-4.5751 -8.56522,-4.7309c-3.72141,-0.15949 -8.37923,4.5639 -8.37923,4.5639z" fill="#000000" stroke="none" stroke-width="0" stroke-linecap="butt"/><path d="M415.81914,272.64102v-64.33333h64.33333v64.33333z" fill="#000000" stroke="none" stroke-width="0" stroke-linecap="butt"/><path d="M285.92408,210.72865v-24.5h24.5v24.5z" fill="#000000" stroke="#000000" stroke-width="0" stroke-linecap="butt"/><path d="M46.98162,148.11084v-22.33334h22.33334v22.33334z" fill="url(#color-3)" stroke="#000000" stroke-width="2" stroke-linecap="butt"/><path d="M56.48162,236.73585v-22.33334h22.33334v22.33334z" fill="url(#color-4)" stroke="#000000" stroke-width="2" stroke-linecap="butt"/><path d="M56.48162,294.08108v-22.33334h22.33334v22.33334z" fill="url(#color-5)" stroke="#000000" stroke-width="2" stroke-linecap="butt"/><path d="M417.00079,294.32394v-22.33334h22.33334v22.33334z" fill="url(#color-6)" stroke="#000000" stroke-width="2" stroke-linecap="butt"/><path d="M416.81032,231.56204v-22.33334h22.33334v22.33334z" fill="url(#color-7)" stroke="#000000" stroke-width="2" stroke-linecap="butt"/><path d="M344.31032,120.7287v-22.33334h22.33334v22.33334z" fill="url(#color-8)" stroke="#000000" stroke-width="2" stroke-linecap="butt"/><path d="M344.31032,44.8287v-22.33334h22.33334v22.33334z" fill="url(#color-9)" stroke="#000000" stroke-width="2" stroke-linecap="butt"/><path d="M47.06395,44.82269v-22.33334h22.33334v22.33334z" fill="url(#color-10)" stroke="#000000" stroke-width="2" stroke-linecap="butt"/><path d="M56.44049,214.40798v11.62005h-110.08175v-11.62005z" data-paper-data="{&quot;index&quot;:null}" fill="url(#color-11)" stroke="#000000" stroke-width="2" stroke-linecap="butt"/><path d="M-56.14878,148.11211v-11.62005h103.08176v11.62005z" data-paper-data="{&quot;index&quot;:null}" fill="url(#color-12)" stroke="#000000" stroke-width="2" stroke-linecap="butt"/><path d="M417.0319,271.95903v11.62005h-338.2389v-11.62005z" data-paper-data="{&quot;index&quot;:null}" fill="url(#color-13)" stroke="#000000" stroke-width="2" stroke-linecap="butt"/><path d="M69.39288,44.27908v-11.62005h274.7639v11.62005z" data-paper-data="{&quot;index&quot;:null}" fill="url(#color-14)" stroke="#000000" stroke-width="2" stroke-linecap="butt"/><path d="M69.32885,125.78531h-11.62005v-80.85953h11.62005z" data-paper-data="{&quot;index&quot;:null}" fill="url(#color-15)" stroke="#000000" stroke-width="2" stroke-linecap="butt"/><path d="M344.2638,44.951h11.62005v53.34843h-11.62005z" data-paper-data="{&quot;index&quot;:null}" fill="url(#color-16)" stroke="#000000" stroke-width="2" stroke-linecap="butt"/><path d="M416.757,231.58501h11.62005v40.30676h-11.62005z" data-paper-data="{&quot;index&quot;:null}" fill="url(#color-17)" stroke="#000000" stroke-width="2" stroke-linecap="butt"/><path d="M78.77705,271.66677h-11.62005v-34.85675h11.62005z" data-paper-data="{&quot;index&quot;:null}" fill="url(#color-18)" stroke="#000000" stroke-width="2" stroke-linecap="butt"/><path d="M71.32846,126.77005v-4.91065h31.88889v4.91065z" fill="url(#color-19)" stroke="none" stroke-width="0" stroke-linecap="butt"/><path d="M162.51558,269.31331l-49.92298,-79.11192l17.20407,-10.44146l58.77284,89.45185z" fill="url(#color-20)" stroke="none" stroke-width="0" stroke-linecap="butt"/><path d="M128.05439,199.97812l-6.20937,-10.01661" fill="none" stroke="#000000" stroke-width="5" stroke-linecap="round"/><path d="M156.78303,229.80315l-19.66666,-28.27083" fill="none" stroke="#000000" stroke-width="5" stroke-linecap="round"/><path d="M147.78303,236.80314l-11.33334,-17.66666" fill="none" stroke="#000000" stroke-width="5" stroke-linecap="round"/><path d="M169.53713,249.24759l11.2459,16.33333" fill="none" stroke="#000000" stroke-width="5" stroke-linecap="round"/><path d="M155.78303,245.24759l6.33334,9.66666" fill="none" stroke="#000000" stroke-width="5" stroke-linecap="round"/><path d="M344.80106,126.79158l-0.125,-4.90823h22.08333l0.125,5.18715l-2.69225,0.03816c0,0 -5.46109,-3.9655 -8.47441,-4.01996c-3.08454,-0.05574 -7.94526,3.68267 -7.94526,3.68267z" fill="#5d0000" stroke="none" stroke-width="0" stroke-linecap="butt"/><path d="M367.97905,207.0042l54.27506,-54.27506" fill="none" stroke="url(#color-21)" stroke-width="6" stroke-linecap="round"/><path d="M344.99473,216.20641c0,-7.63994 6.1934,-13.83334 13.83333,-13.83334c7.63993,0 13.83334,6.1934 13.83334,13.83334c0,7.63994 -6.1934,13.83333 -13.83334,13.83333c-7.63993,0 -13.83333,-6.19339 -13.83333,-13.83333z" fill="#0e0e0e" stroke="url(#color-22)" stroke-width="0" stroke-linecap="butt"/><path d="M347.89337,216.37051c0,-5.77138 4.67862,-10.45 10.45,-10.45c5.77138,0 10.45,4.67862 10.45,10.45c0,5.77138 -4.67862,10.45 -10.45,10.45c-5.77138,0 -10.45,-4.67862 -10.45,-10.45z" fill="url(#color-23)" stroke="#000000" stroke-width="2" stroke-linecap="butt"/><path d="M352.91012,216.27051c0,-3.14802 2.55198,-5.7 5.7,-5.7c3.14802,0 5.7,2.55198 5.7,5.7c0,3.14802 -2.55198,5.7 -5.7,5.7c-3.14802,0 -5.7,-2.55198 -5.7,-5.7z" fill="#000000" stroke="none" stroke-width="0" stroke-linecap="butt"/><path d="M288.16005,209.23718v-20.875h19.875v20.875z" fill="#1a1a1a" stroke="none" stroke-width="0" stroke-linecap="butt"/><path d="M306.28505,190.11218l-16.375,16.375" fill="none" stroke="url(#color-24)" stroke-width="3.5" stroke-linecap="round"/><path d="M289.78505,190.11218l16.375,16.375" data-paper-data="{&quot;index&quot;:null}" fill="none" stroke="url(#color-25)" stroke-width="3.5" stroke-linecap="round"/><path d="M335.52625,218.67767l4.94776,14.74855" data-paper-data="{&quot;index&quot;:null}" fill="none" stroke="#000000" stroke-width="4.5" stroke-linecap="round"/><path d="M69.91003,68.47436v-22.91667h274v22.91667z" fill="url(#color-26)" stroke="#000000" stroke-width="0" stroke-linecap="butt"/><path d="M73.107,56.39102c0,-4.05009 3.28325,-7.33333 7.33333,-7.33333c4.05009,0 7.33333,3.28325 7.33333,7.33333c0,4.05009 -3.28325,7.33333 -7.33333,7.33333c-4.05009,0 -7.33333,-3.28325 -7.33333,-7.33333z" fill="#888888" stroke="#141414" stroke-width="1.5" stroke-linecap="butt"/><path d="M82.25001,57.31025l3.41667,3.41667" fill="none" stroke="#141414" stroke-width="2" stroke-linecap="round"/><path d="M75.15385,61.04743l4.41667,-4.41667" fill="none" stroke="#141414" stroke-width="2" stroke-linecap="round"/><path d="M80.47437,49.50897v6.33333" fill="none" stroke="#141414" stroke-width="2" stroke-linecap="round"/><path d="M77.85899,56.49615c0,-1.41611 1.14799,-2.5641 2.5641,-2.5641c1.41611,0 2.5641,1.14799 2.5641,2.5641c0,1.41611 -1.14799,2.5641 -2.5641,2.5641c-1.41611,0 -2.5641,-1.14799 -2.5641,-2.5641z" fill="#141414" stroke="none" stroke-width="0" stroke-linecap="butt"/><path d="M132.7615,138.75873l-15.40605,-22.86759c0,0 -4.53158,3.75819 -4.57723,2.29524c-0.08634,-2.76642 1.72746,-15.76736 2.94995,-16.59096c1.2491,-0.84153 13.91462,2.30956 16.42672,3.42945c1.10475,0.4925 -3.78912,3.44853 -3.78912,3.44853l15.40607,22.86759z" fill="#244d0e" stroke="#000000" stroke-width="2" stroke-linecap="butt"/><path d="M37.08572,182.75201l26.25688,-8.41719c0,0 -2.34525,-5.3999 -0.92762,-5.03574c2.68073,0.68862 14.65998,6.0563 15.10996,7.45998c0.45978,1.43423 -6.09859,12.71841 -7.87466,14.81851c-0.78107,0.92356 -2.25495,-4.60054 -2.25495,-4.60054l-26.25689,8.4172z" fill="#244d0e" stroke="#000000" stroke-width="2" stroke-linecap="butt"/><path d="M325.85703,55.64102c0,-4.05009 3.28325,-7.33333 7.33333,-7.33333c4.05009,0 7.33333,3.28325 7.33333,7.33333c0,4.05009 -3.28325,7.33333 -7.33333,7.33333c-4.05009,0 -7.33333,-3.28325 -7.33333,-7.33333z" fill="#888888" stroke="#141414" stroke-width="1.5" stroke-linecap="butt"/><path d="M338.41674,59.97692l-3.41667,-3.41667" fill="none" stroke="#141414" stroke-width="2" stroke-linecap="round"/><path d="M327.90386,60.29743l4.41667,-4.41667" fill="none" stroke="#141414" stroke-width="2" stroke-linecap="round"/><path d="M333.22436,55.0923v-6.33333" fill="none" stroke="#141414" stroke-width="2" stroke-linecap="round"/><path d="M330.60899,55.74615c0,-1.41611 1.14799,-2.5641 2.5641,-2.5641c1.41611,0 2.5641,1.14799 2.5641,2.5641c0,1.41611 -1.14799,2.5641 -2.5641,2.5641c-1.41611,0 -2.5641,-1.14799 -2.5641,-2.5641z" fill="#141414" stroke="none" stroke-width="0" stroke-linecap="butt"/><path d="M90.80397,74.32105v-4.45088h233.49999v4.45088z" fill="url(#color-27)" stroke="#000000" stroke-width="1.5" stroke-linecap="butt"/><path d="M366.94405,120.34164v-11.62005h118.04849v11.62005z" data-paper-data="{&quot;index&quot;:null}" fill="url(#color-28)" stroke="#000000" stroke-width="2" stroke-linecap="butt"/><path d="M334.76911,264.10803v-23h26v23z" fill="url(#color-29)" stroke="#000000" stroke-width="2.5" stroke-linecap="butt"/><path d="M293.51911,254.35803l18.25,-18.25" fill="none" stroke="#af0202" stroke-width="3.5" stroke-linecap="round"/><path d="M312.76911,244.60803l-18.25,18.25" fill="none" stroke="#af0202" stroke-width="3.5" stroke-linecap="round"/><path d="M294.01911,244.85803l18.25,-18.25" fill="none" stroke="#000000" stroke-width="3.5" stroke-linecap="round"/><path d="M311.26911,218.10803l-18.25,18.25" fill="none" stroke="#000000" stroke-width="3.5" stroke-linecap="round"/><path d="M326.50013,262.05195v-40.33333" fill="none" stroke="#af0202" stroke-width="7" stroke-linecap="round"/><path d="M322.50011,222.21862v40.33333" fill="none" stroke="#000000" stroke-width="7" stroke-linecap="round"/></g></g></svg>