<svg version="1.1" xmlns="http://www.w3.org/2000/svg" xmlns:xlink="http://www.w3.org/1999/xlink" width="513.56271" height="366.5" viewBox="0,0,513.56271,366.5"><defs><radialGradient cx="89.84309" cy="248.38064" r="31.6875" gradientUnits="userSpaceOnUse" id="color-1"><stop offset="0" stop-color="#1494cc"/><stop offset="1" stop-color="#1494cc" stop-opacity="0"/></radialGradient><linearGradient x1="90.35685" y1="249.48649" x2="90.35685" y2="252.86586" gradientUnits="userSpaceOnUse" id="color-2"><stop offset="0" stop-color="#00b2ff"/><stop offset="1" stop-color="#1000ff"/></linearGradient><radialGradient cx="127.87613" cy="130.25752" r="31.6875" gradientUnits="userSpaceOnUse" id="color-3"><stop offset="0" stop-color="#1494cc"/><stop offset="1" stop-color="#1494cc" stop-opacity="0"/></radialGradient><linearGradient x1="128.38989" y1="131.36337" x2="128.38989" y2="134.74274" gradientUnits="userSpaceOnUse" id="color-4"><stop offset="0" stop-color="#00b2ff"/><stop offset="1" stop-color="#1000ff"/></linearGradient></defs><g transform="translate(30.52281,5.06598)"><g data-paper-data="{&quot;isPaintingLayer&quot;:true}" fill-rule="nonzero" stroke-linejoin="miter" stroke-miterlimit="10" stroke-dasharray="" stroke-dashoffset="0" style="mix-blend-mode: normal"><path d="M305.00951,141.37945l-2.66667,-43.33333" fill="none" stroke="#0b0b0b" stroke-width="4" stroke-linecap="round"/><path d="M-0.04708,75.93402v-76h475.8v76z" fill="#000000" stroke="#000000" stroke-width="10" stroke-linecap="butt"/><path d="M175.95295,300.21298v-75.5045h178v75.5045z" fill="#000000" stroke="#000000" stroke-width="10" stroke-linecap="butt"/><path d="M-25.52281,356.43402v-355.43402h31.83333v355.43402z" fill="#000000" stroke="#000000" stroke-width="10" stroke-linecap="butt"/><path d="M72.60979,180.10511l-3.5,-80.5" fill="none" stroke="#0b0b0b" stroke-width="4" stroke-linecap="round"/><path d="M2.35905,356.02583v-4.64286h67.25v4.64286z" fill="#000000" stroke="#000000" stroke-width="10" stroke-linecap="butt"/><path d="M353.03991,355.89002v-175h125v175z" fill="#000000" stroke="#000000" stroke-width="10" stroke-linecap="butt"/><path d="M357.48281,352.51439v7.14162h-15.87997v-7.14162z" data-paper-data="{&quot;index&quot;:null}" fill="#242424" stroke="#000000" stroke-width="2.5" stroke-linecap="butt"/><path d="M357.39336,345.40118v7.14162h-15.87997v-7.14162z" data-paper-data="{&quot;index&quot;:null}" fill="#242424" stroke="#000000" stroke-width="2.5" stroke-linecap="butt"/><path d="M357.39336,338.19796v7.14162h-15.87997v-7.14162z" data-paper-data="{&quot;index&quot;:null}" fill="#242424" stroke="#000000" stroke-width="2.5" stroke-linecap="butt"/><path d="M357.39336,330.99469v7.14162h-15.87997v-7.14162z" data-paper-data="{&quot;index&quot;:null}" fill="#242424" stroke="#000000" stroke-width="2.5" stroke-linecap="butt"/><path d="M357.39336,323.79141v7.14162h-15.87997v-7.14162z" data-paper-data="{&quot;index&quot;:null}" fill="#242424" stroke="#000000" stroke-width="2.5" stroke-linecap="butt"/><path d="M357.39336,316.58813v7.14162h-15.87997v-7.14162z" data-paper-data="{&quot;index&quot;:null}" fill="#242424" stroke="#000000" stroke-width="2.5" stroke-linecap="butt"/><path d="M356.96553,201.5494v7.14162h-15.87997v-7.14162z" data-paper-data="{&quot;index&quot;:null}" fill="#242424" stroke="#000000" stroke-width="2.5" stroke-linecap="butt"/><path d="M356.96553,194.34614v7.14162h-15.87997v-7.14162z" data-paper-data="{&quot;index&quot;:null}" fill="#242424" stroke="#000000" stroke-width="2.5" stroke-linecap="butt"/><path d="M357.06546,187.14287v7.14162h-15.87997v-7.14162z" data-paper-data="{&quot;index&quot;:null}" fill="#242424" stroke="#000000" stroke-width="2.5" stroke-linecap="butt"/><path d="M341.18769,187.07446c0,0 0,-14.90143 0,-18.57344c0,-1.4224 2.59167,-4.11406 4.21172,-4.11406c3.79564,0 18.28828,0 18.28828,0v22.6875z" data-paper-data="{&quot;index&quot;:null}" fill="#0b0b0b" stroke="#000000" stroke-width="2.5" stroke-linecap="butt"/><path d="M426.03694,171.48901v-7.2105h31.05663v7.2105z" data-paper-data="{&quot;index&quot;:null}" fill="#242424" stroke="#000000" stroke-width="2.5" stroke-linecap="butt"/><path d="M363.78252,171.57235v-7.2105h31.05663v7.2105z" data-paper-data="{&quot;index&quot;:null}" fill="#242424" stroke="#000000" stroke-width="2.5" stroke-linecap="butt"/><path d="M394.9161,171.52308v-7.21049h31.05663v7.21049z" data-paper-data="{&quot;index&quot;:null}" fill="#242424" stroke="#000000" stroke-width="2.5" stroke-linecap="butt"/><path d="M411.22189,178.79334v-7.2105h30.23499v7.2105z" data-paper-data="{&quot;index&quot;:null}" fill="#242424" stroke="#000000" stroke-width="2.5" stroke-linecap="butt"/><path d="M441.52687,178.71636v-7.2105h30.80678v7.2105z" data-paper-data="{&quot;index&quot;:null}" fill="#242424" stroke="#000000" stroke-width="2.5" stroke-linecap="butt"/><path d="M379.85495,178.7997v-7.2105h30.80679v7.2105z" data-paper-data="{&quot;index&quot;:null}" fill="#242424" stroke="#000000" stroke-width="2.5" stroke-linecap="butt"/><path d="M363.80445,178.80051v-7.2105h15.896v7.2105z" data-paper-data="{&quot;index&quot;:null}" fill="#242424" stroke="#000000" stroke-width="2.5" stroke-linecap="butt"/><path d="M70.98763,359.77446v-22.6875c0,0 14.49264,0 18.28828,0c1.62005,0 4.21172,2.69166 4.21172,4.11406c0,3.67201 0,18.57344 0,18.57344z" data-paper-data="{&quot;index&quot;:null}" fill="#0b0b0b" stroke="#000000" stroke-width="2.5" stroke-linecap="butt"/><path d="M70.91012,337.1122v7.2105h-15.94436v-7.2105z" data-paper-data="{&quot;index&quot;:null}" fill="#242424" stroke="#000000" stroke-width="2.5" stroke-linecap="butt"/><path d="M39.52486,344.19818v7.2105h-15.98571v-7.2105z" data-paper-data="{&quot;index&quot;:null}" fill="#242424" stroke="#000000" stroke-width="2.5" stroke-linecap="butt"/><path d="M70.95888,344.30036v7.21049h-31.42857v-7.21049z" data-paper-data="{&quot;index&quot;:null}" fill="#242424" stroke="#000000" stroke-width="2.5" stroke-linecap="butt"/><path d="M54.99218,337.09086v7.21049h-31.42857v-7.21049z" data-paper-data="{&quot;index&quot;:null}" fill="#242424" stroke="#000000" stroke-width="2.5" stroke-linecap="butt"/><path d="M12.30091,351.51763c-1.71087,0 -4.88878,-2.86264 -4.88878,-4.50861c0,-2.69265 0,-10.11595 0,-10.11595h16.12878v14.62455c0,0 -8.28688,0 -11.24001,0z" data-paper-data="{&quot;index&quot;:null}" fill="#0b0b0b" stroke="#000000" stroke-width="2.5" stroke-linecap="butt"/><path d="M23.48274,329.61438v7.14162h-15.87997v-7.14162z" data-paper-data="{&quot;index&quot;:null}" fill="#242424" stroke="#000000" stroke-width="2.5" stroke-linecap="butt"/><path d="M23.39325,322.50118v7.14162h-15.87997v-7.14162z" data-paper-data="{&quot;index&quot;:null}" fill="#242424" stroke="#000000" stroke-width="2.5" stroke-linecap="butt"/><path d="M23.39324,315.29794v7.14162h-15.87997v-7.14162z" data-paper-data="{&quot;index&quot;:null}" fill="#242424" stroke="#000000" stroke-width="2.5" stroke-linecap="butt"/><path d="M23.39324,308.0947v7.14162h-15.87997v-7.14162z" data-paper-data="{&quot;index&quot;:null}" fill="#242424" stroke="#000000" stroke-width="2.5" stroke-linecap="butt"/><path d="M23.39324,300.8914v7.14162h-15.87997v-7.14162z" data-paper-data="{&quot;index&quot;:null}" fill="#242424" stroke="#000000" stroke-width="2.5" stroke-linecap="butt"/><path d="M23.39324,293.68814v7.14162h-15.87997v-7.14162z" data-paper-data="{&quot;index&quot;:null}" fill="#242424" stroke="#000000" stroke-width="2.5" stroke-linecap="butt"/><path d="M42.86766,286.46835v7.14162h-35.37997v-7.14162z" data-paper-data="{&quot;index&quot;:null}" fill="#242424" stroke="#000000" stroke-width="2.5" stroke-linecap="butt"/><path d="M23.27818,279.35515v7.14162h-15.87997v-7.14162z" data-paper-data="{&quot;index&quot;:null}" fill="#242424" stroke="#000000" stroke-width="2.5" stroke-linecap="butt"/><path d="M23.27817,272.15191v7.14162h-15.87997v-7.14162z" data-paper-data="{&quot;index&quot;:null}" fill="#242424" stroke="#000000" stroke-width="2.5" stroke-linecap="butt"/><path d="M23.27817,264.94867v7.14162h-15.87997v-7.14162z" data-paper-data="{&quot;index&quot;:null}" fill="#242424" stroke="#000000" stroke-width="2.5" stroke-linecap="butt"/><path d="M23.27817,257.74537v7.14162h-15.87997v-7.14162z" data-paper-data="{&quot;index&quot;:null}" fill="#242424" stroke="#000000" stroke-width="2.5" stroke-linecap="butt"/><path d="M23.27817,250.54212v7.14162h-15.87997v-7.14162z" data-paper-data="{&quot;index&quot;:null}" fill="#242424" stroke="#000000" stroke-width="2.5" stroke-linecap="butt"/><path d="M23.26999,243.31515v7.14162h-15.87997v-7.14162z" data-paper-data="{&quot;index&quot;:null}" fill="#242424" stroke="#000000" stroke-width="2.5" stroke-linecap="butt"/><path d="M33.68049,236.20194v7.14162h-26.37997v-7.14162z" data-paper-data="{&quot;index&quot;:null}" fill="#242424" stroke="#000000" stroke-width="2.5" stroke-linecap="butt"/><path d="M23.1805,228.99871v7.14162h-15.87997v-7.14162z" data-paper-data="{&quot;index&quot;:null}" fill="#242424" stroke="#000000" stroke-width="2.5" stroke-linecap="butt"/><path d="M23.1805,221.79546v7.14162h-15.87997v-7.14162z" data-paper-data="{&quot;index&quot;:null}" fill="#242424" stroke="#000000" stroke-width="2.5" stroke-linecap="butt"/><path d="M23.1805,214.59217v7.14162h-15.87997v-7.14162z" data-paper-data="{&quot;index&quot;:null}" fill="#242424" stroke="#000000" stroke-width="2.5" stroke-linecap="butt"/><path d="M23.1805,207.38889v7.14162h-15.87997v-7.14162z" data-paper-data="{&quot;index&quot;:null}" fill="#242424" stroke="#000000" stroke-width="2.5" stroke-linecap="butt"/><path d="M23.15491,200.16911v7.14162h-15.87997v-7.14162z" data-paper-data="{&quot;index&quot;:null}" fill="#242424" stroke="#000000" stroke-width="2.5" stroke-linecap="butt"/><path d="M23.06543,193.0559v7.14162h-15.87997v-7.14162z" data-paper-data="{&quot;index&quot;:null}" fill="#242424" stroke="#000000" stroke-width="2.5" stroke-linecap="butt"/><path d="M23.06542,185.85267v7.14162h-15.87997v-7.14162z" data-paper-data="{&quot;index&quot;:null}" fill="#242424" stroke="#000000" stroke-width="2.5" stroke-linecap="butt"/><path d="M23.06542,178.64941v7.14162h-15.87997v-7.14162z" data-paper-data="{&quot;index&quot;:null}" fill="#242424" stroke="#000000" stroke-width="2.5" stroke-linecap="butt"/><path d="M23.06542,171.44614v7.14162h-15.87997v-7.14162z" data-paper-data="{&quot;index&quot;:null}" fill="#242424" stroke="#000000" stroke-width="2.5" stroke-linecap="butt"/><path d="M23.06542,164.24284v7.14162h-15.87997v-7.14162z" data-paper-data="{&quot;index&quot;:null}" fill="#242424" stroke="#000000" stroke-width="2.5" stroke-linecap="butt"/><g stroke="#000000" stroke-width="2.5" stroke-linecap="butt"><path d="M58.75158,194.57366l-1.33165,-8.10605l262.54608,-43.13079l1.33165,8.10605z" fill="#0b0b0b"/><path d="M294.42956,162.63734l-1.06688,-6.4943l27.97186,-4.59519l1.06688,6.4943z" data-paper-data="{&quot;index&quot;:null}" fill="#242424"/><path d="M266.38104,167.19956l-1.06687,-6.49429l27.97186,-4.59519l1.06687,6.49429z" data-paper-data="{&quot;index&quot;:null}" fill="#242424"/><path d="M253.51072,176.03872l-1.06688,-6.4943l27.23183,-4.47362l1.06688,6.4943z" data-paper-data="{&quot;index&quot;:null}" fill="#242424"/><path d="M281.24796,171.48796l-1.06688,-6.4943l27.74683,-4.55822l1.06689,6.4943z" data-paper-data="{&quot;index&quot;:null}" fill="#242424"/><path d="M309.13406,166.90759l-1.06688,-6.4943l14.31709,-2.352l1.06689,6.4943z" data-paper-data="{&quot;index&quot;:null}" fill="#242424"/><path d="M59.77845,201.15033l-1.06688,-6.4943l27.97185,-4.59519l1.06688,6.4943z" data-paper-data="{&quot;index&quot;:null}" fill="#242424"/><path d="M87.81239,196.49939l-1.06687,-6.49429l27.97185,-4.59519l1.06687,6.49429z" data-paper-data="{&quot;index&quot;:null}" fill="#242424"/><path d="M103.57422,200.63486l-1.06688,-6.4943l27.23183,-4.47362l1.06688,6.4943z" data-paper-data="{&quot;index&quot;:null}" fill="#242424"/><path d="M75.32385,205.2817l-1.06688,-6.4943l27.74683,-4.55822l1.06688,6.4943z" data-paper-data="{&quot;index&quot;:null}" fill="#242424"/><path d="M60.86772,207.65728l-1.06688,-6.4943l14.3171,-2.352l1.06688,6.4943z" data-paper-data="{&quot;index&quot;:null}" fill="#242424"/><path d="M57.50337,186.23509l-1.06688,-6.4943l27.23183,-4.47362l1.06688,6.4943z" data-paper-data="{&quot;index&quot;:null}" fill="#242424"/><path d="M292.04803,147.85891l-1.06688,-6.4943l27.97186,-4.59518l1.06688,6.4943z" data-paper-data="{&quot;index&quot;:null}" fill="#242424"/></g><path d="M23.0555,156.99871v7.14162h-15.87997v-7.14162z" data-paper-data="{&quot;index&quot;:null}" fill="#242424" stroke="#000000" stroke-width="2.5" stroke-linecap="butt"/><path d="M23.0555,149.79546v7.14162h-15.87997v-7.14162z" data-paper-data="{&quot;index&quot;:null}" fill="#242424" stroke="#000000" stroke-width="2.5" stroke-linecap="butt"/><path d="M23.0555,142.59216v7.14162h-15.87997v-7.14162z" data-paper-data="{&quot;index&quot;:null}" fill="#242424" stroke="#000000" stroke-width="2.5" stroke-linecap="butt"/><path d="M23.0555,135.3889v7.14162h-15.87997v-7.14162z" data-paper-data="{&quot;index&quot;:null}" fill="#242424" stroke="#000000" stroke-width="2.5" stroke-linecap="butt"/><path d="M23.02991,128.16911v7.14162h-15.87997v-7.14162z" data-paper-data="{&quot;index&quot;:null}" fill="#242424" stroke="#000000" stroke-width="2.5" stroke-linecap="butt"/><path d="M22.94043,121.0559v7.14162h-15.87997v-7.14162z" data-paper-data="{&quot;index&quot;:null}" fill="#242424" stroke="#000000" stroke-width="2.5" stroke-linecap="butt"/><path d="M22.94042,113.85267v7.14162h-15.87997v-7.14162z" data-paper-data="{&quot;index&quot;:null}" fill="#242424" stroke="#000000" stroke-width="2.5" stroke-linecap="butt"/><path d="M22.94042,106.64943v7.14162h-15.87997v-7.14162z" data-paper-data="{&quot;index&quot;:null}" fill="#242424" stroke="#000000" stroke-width="2.5" stroke-linecap="butt"/><path d="M22.94042,99.44613v7.14162h-15.87997v-7.14162z" data-paper-data="{&quot;index&quot;:null}" fill="#242424" stroke="#000000" stroke-width="2.5" stroke-linecap="butt"/><path d="M22.94042,92.24287v7.14162h-15.87997v-7.14162z" data-paper-data="{&quot;index&quot;:null}" fill="#242424" stroke="#000000" stroke-width="2.5" stroke-linecap="butt"/><path d="M11.797,77.59382c2.95313,0 11.24001,0 11.24001,0v14.62455h-16.12878c0,0 0,-7.4233 0,-10.11595c0,-1.64597 3.17791,-4.50861 4.88878,-4.50861z" data-paper-data="{&quot;index&quot;:null}" fill="#0b0b0b" stroke="#000000" stroke-width="2.5" stroke-linecap="butt"/><path d="M147.481,84.95905v7.21049h-31.17923v-7.21049z" data-paper-data="{&quot;index&quot;:null}" fill="#242424" stroke="#000000" stroke-width="2.5" stroke-linecap="butt"/><path d="M116.36729,84.90979v7.2105h-31.05663v-7.2105z" data-paper-data="{&quot;index&quot;:null}" fill="#242424" stroke="#000000" stroke-width="2.5" stroke-linecap="butt"/><path d="M54.11288,84.82644v7.2105h-31.05663v-7.2105z" data-paper-data="{&quot;index&quot;:null}" fill="#242424" stroke="#000000" stroke-width="2.5" stroke-linecap="butt"/><path d="M85.24658,84.87568v7.21049h-31.05663v-7.21049z" data-paper-data="{&quot;index&quot;:null}" fill="#242424" stroke="#000000" stroke-width="2.5" stroke-linecap="butt"/><path d="M100.73064,77.60545v7.2105h-30.23499v-7.2105z" data-paper-data="{&quot;index&quot;:null}" fill="#242424" stroke="#000000" stroke-width="2.5" stroke-linecap="butt"/><path d="M131.60736,77.68242v7.2105h-30.80678v-7.2105z" data-paper-data="{&quot;index&quot;:null}" fill="#242424" stroke="#000000" stroke-width="2.5" stroke-linecap="butt"/><path d="M69.93551,77.59909v7.2105h-30.80679v-7.2105z" data-paper-data="{&quot;index&quot;:null}" fill="#242424" stroke="#000000" stroke-width="2.5" stroke-linecap="butt"/><path d="M38.97422,77.59828v7.2105h-15.896v-7.2105z" data-paper-data="{&quot;index&quot;:null}" fill="#242424" stroke="#000000" stroke-width="2.5" stroke-linecap="butt"/><path d="M224.74621,84.80958v-7.21049h31.17923v7.21049z" data-paper-data="{&quot;index&quot;:null}" fill="#242424" stroke="#000000" stroke-width="2.5" stroke-linecap="butt"/><path d="M193.75515,84.85884v-7.2105h31.05663v7.2105z" data-paper-data="{&quot;index&quot;:null}" fill="#242424" stroke="#000000" stroke-width="2.5" stroke-linecap="butt"/><path d="M131.50069,84.94219v-7.2105h31.05663v7.2105z" data-paper-data="{&quot;index&quot;:null}" fill="#242424" stroke="#000000" stroke-width="2.5" stroke-linecap="butt"/><path d="M162.63431,84.89295v-7.21049h31.05663v7.21049z" data-paper-data="{&quot;index&quot;:null}" fill="#242424" stroke="#000000" stroke-width="2.5" stroke-linecap="butt"/><path d="M178.94006,92.16318v-7.2105h30.23499v7.2105z" data-paper-data="{&quot;index&quot;:null}" fill="#242424" stroke="#000000" stroke-width="2.5" stroke-linecap="butt"/><path d="M209.24512,92.08619v-7.2105h30.80678v7.2105z" data-paper-data="{&quot;index&quot;:null}" fill="#242424" stroke="#000000" stroke-width="2.5" stroke-linecap="butt"/><path d="M147.57315,92.16954v-7.2105h30.80679v7.2105z" data-paper-data="{&quot;index&quot;:null}" fill="#242424" stroke="#000000" stroke-width="2.5" stroke-linecap="butt"/><path d="M364.36999,84.95905v7.21049h-31.17923v-7.21049z" data-paper-data="{&quot;index&quot;:null}" fill="#242424" stroke="#000000" stroke-width="2.5" stroke-linecap="butt"/><path d="M333.25615,84.90979v7.2105h-31.05663v-7.2105z" data-paper-data="{&quot;index&quot;:null}" fill="#242424" stroke="#000000" stroke-width="2.5" stroke-linecap="butt"/><path d="M271.00176,84.82644v7.2105h-31.05663v-7.2105z" data-paper-data="{&quot;index&quot;:null}" fill="#242424" stroke="#000000" stroke-width="2.5" stroke-linecap="butt"/><path d="M302.13543,84.87568v7.21049h-31.05663v-7.21049z" data-paper-data="{&quot;index&quot;:null}" fill="#242424" stroke="#000000" stroke-width="2.5" stroke-linecap="butt"/><path d="M317.61949,77.60545v7.2105h-30.23499v-7.2105z" data-paper-data="{&quot;index&quot;:null}" fill="#242424" stroke="#000000" stroke-width="2.5" stroke-linecap="butt"/><path d="M348.49634,77.68242v7.2105h-30.80678v-7.2105z" data-paper-data="{&quot;index&quot;:null}" fill="#242424" stroke="#000000" stroke-width="2.5" stroke-linecap="butt"/><path d="M286.82439,77.59909v7.2105h-30.80679v-7.2105z" data-paper-data="{&quot;index&quot;:null}" fill="#242424" stroke="#000000" stroke-width="2.5" stroke-linecap="butt"/><path d="M64.34223,99.1337v-6.91731h10.39113v6.91731z" fill="#242424" stroke="#000000" stroke-width="2.5" stroke-linecap="butt"/><path d="M352.71197,301.84836c1.71087,0 4.88878,2.86264 4.88878,4.50861c0,2.69265 0,10.11595 0,10.11595h-16.12878v-14.62455c0,0 8.28688,0 11.24001,0z" data-paper-data="{&quot;index&quot;:null}" fill="#0b0b0b" stroke="#000000" stroke-width="2.5" stroke-linecap="butt"/><path d="M248.08477,309.30905v7.21049h-31.17923v-7.21049z" data-paper-data="{&quot;index&quot;:null}" fill="#242424" stroke="#000000" stroke-width="2.5" stroke-linecap="butt"/><path d="M279.07595,309.25979v7.2105h-31.05663v-7.2105z" data-paper-data="{&quot;index&quot;:null}" fill="#242424" stroke="#000000" stroke-width="2.5" stroke-linecap="butt"/><path d="M341.33041,309.17644v7.2105h-31.05663v-7.2105z" data-paper-data="{&quot;index&quot;:null}" fill="#242424" stroke="#000000" stroke-width="2.5" stroke-linecap="butt"/><path d="M310.19667,309.22568v7.21049h-31.05663v-7.21049z" data-paper-data="{&quot;index&quot;:null}" fill="#242424" stroke="#000000" stroke-width="2.5" stroke-linecap="butt"/><path d="M293.89097,301.95545v7.2105h-30.23499v-7.2105z" data-paper-data="{&quot;index&quot;:null}" fill="#242424" stroke="#000000" stroke-width="2.5" stroke-linecap="butt"/><path d="M263.58594,302.03242v7.2105h-30.80678v-7.2105z" data-paper-data="{&quot;index&quot;:null}" fill="#242424" stroke="#000000" stroke-width="2.5" stroke-linecap="butt"/><path d="M325.25786,301.94909v7.2105h-30.80679v-7.2105z" data-paper-data="{&quot;index&quot;:null}" fill="#242424" stroke="#000000" stroke-width="2.5" stroke-linecap="butt"/><path d="M341.30839,301.94828v7.2105h-15.896v-7.2105z" data-paper-data="{&quot;index&quot;:null}" fill="#242424" stroke="#000000" stroke-width="2.5" stroke-linecap="butt"/><path d="M201.82929,309.29219v-7.2105h31.05663v7.2105z" data-paper-data="{&quot;index&quot;:null}" fill="#242424" stroke="#000000" stroke-width="2.5" stroke-linecap="butt"/><path d="M186.0066,316.51954v-7.2105h30.80679v7.2105z" data-paper-data="{&quot;index&quot;:null}" fill="#242424" stroke="#000000" stroke-width="2.5" stroke-linecap="butt"/><path d="M201.90818,302.0691v7.14162h-15.87997v-7.14162z" data-paper-data="{&quot;index&quot;:null}" fill="#242424" stroke="#000000" stroke-width="2.5" stroke-linecap="butt"/><path d="M186.00363,316.53627c0,0 -14.90143,0 -18.57344,0c-1.4224,0 -4.11406,-2.59167 -4.11406,-4.21172c0,-3.79564 0,-18.28828 0,-18.28828h22.6875z" data-paper-data="{&quot;index&quot;:null}" fill="#0b0b0b" stroke="#000000" stroke-width="2.5" stroke-linecap="butt"/><path d="M179.09936,245.15658v6.97543h-15.87997v-6.97543z" data-paper-data="{&quot;index&quot;:null}" fill="#242424" stroke="#000000" stroke-width="2.5" stroke-linecap="butt"/><path d="M179.06543,238.20891v6.97543h-15.87997v-6.97543z" data-paper-data="{&quot;index&quot;:null}" fill="#242424" stroke="#000000" stroke-width="2.5" stroke-linecap="butt"/><path d="M179.06543,231.33999v6.97543h-33.07997v-6.97543z" data-paper-data="{&quot;index&quot;:null}" fill="#242424" stroke="#000000" stroke-width="2.5" stroke-linecap="butt"/><path d="M179.17081,287.15593v6.97542h-15.87997v-6.97542z" data-paper-data="{&quot;index&quot;:null}" fill="#242424" stroke="#000000" stroke-width="2.5" stroke-linecap="butt"/><path d="M179.08135,280.20826v6.97543h-15.87997v-6.97543z" data-paper-data="{&quot;index&quot;:null}" fill="#242424" stroke="#000000" stroke-width="2.5" stroke-linecap="butt"/><path d="M179.08135,273.17267v6.97543h-15.87997v-6.97543z" data-paper-data="{&quot;index&quot;:null}" fill="#242424" stroke="#000000" stroke-width="2.5" stroke-linecap="butt"/><path d="M179.08135,266.13702v6.97542h-15.87997v-6.97542z" data-paper-data="{&quot;index&quot;:null}" fill="#242424" stroke="#000000" stroke-width="2.5" stroke-linecap="butt"/><path d="M179.08135,259.10138v6.97543h-15.87997v-6.97543z" data-paper-data="{&quot;index&quot;:null}" fill="#242424" stroke="#000000" stroke-width="2.5" stroke-linecap="butt"/><path d="M179.08135,252.06574v6.97543h-15.87997v-6.97543z" data-paper-data="{&quot;index&quot;:null}" fill="#242424" stroke="#000000" stroke-width="2.5" stroke-linecap="butt"/><path d="M185.93219,231.3055h-22.6875c0,0 0,-14.49264 0,-18.28828c0,-1.62005 2.69166,-4.21172 4.11406,-4.21172c3.67201,0 18.57344,0 18.57344,0z" data-paper-data="{&quot;index&quot;:null}" fill="#0b0b0b" stroke="#000000" stroke-width="2.5" stroke-linecap="butt"/><path d="M216.65773,216.01347v-7.21049h31.17923v7.21049z" data-paper-data="{&quot;index&quot;:null}" fill="#242424" stroke="#000000" stroke-width="2.5" stroke-linecap="butt"/><path d="M247.77146,216.06273v-7.2105h31.05663v7.2105z" data-paper-data="{&quot;index&quot;:null}" fill="#242424" stroke="#000000" stroke-width="2.5" stroke-linecap="butt"/><path d="M310.02585,216.14608v-7.2105h31.05663v7.2105z" data-paper-data="{&quot;index&quot;:null}" fill="#242424" stroke="#000000" stroke-width="2.5" stroke-linecap="butt"/><path d="M278.89221,216.09684v-7.21049h31.05663v7.21049z" data-paper-data="{&quot;index&quot;:null}" fill="#242424" stroke="#000000" stroke-width="2.5" stroke-linecap="butt"/><path d="M263.40815,223.36707v-7.2105h30.23499v7.2105z" data-paper-data="{&quot;index&quot;:null}" fill="#242424" stroke="#000000" stroke-width="2.5" stroke-linecap="butt"/><path d="M232.53132,223.2901v-7.2105h30.80678v7.2105z" data-paper-data="{&quot;index&quot;:null}" fill="#242424" stroke="#000000" stroke-width="2.5" stroke-linecap="butt"/><path d="M294.20318,223.37343v-7.2105h30.80679v7.2105z" data-paper-data="{&quot;index&quot;:null}" fill="#242424" stroke="#000000" stroke-width="2.5" stroke-linecap="butt"/><path d="M325.1645,223.37424v-7.2105h15.896v7.2105z" data-paper-data="{&quot;index&quot;:null}" fill="#242424" stroke="#000000" stroke-width="2.5" stroke-linecap="butt"/><path d="M232.63804,216.03033v7.2105h-31.05663v-7.2105z" data-paper-data="{&quot;index&quot;:null}" fill="#242424" stroke="#000000" stroke-width="2.5" stroke-linecap="butt"/><path d="M216.56559,208.80298v7.2105h-30.80679v-7.2105z" data-paper-data="{&quot;index&quot;:null}" fill="#242424" stroke="#000000" stroke-width="2.5" stroke-linecap="butt"/><path d="M185.78032,223.25342v-7.14162h15.87997v7.14162z" data-paper-data="{&quot;index&quot;:null}" fill="#242424" stroke="#000000" stroke-width="2.5" stroke-linecap="butt"/><path d="M352.41396,223.37442c-2.95313,0 -11.24001,0 -11.24001,0v-14.62455h16.12878c0,0 0,7.4233 0,10.11595c0,1.64597 -3.17791,4.50861 -4.88878,4.50861z" data-paper-data="{&quot;index&quot;:null}" fill="#0b0b0b" stroke="#000000" stroke-width="2.5" stroke-linecap="butt"/><path d="M456.54263,85.01966v7.21049h-30.91256v-7.21049z" data-paper-data="{&quot;index&quot;:null}" fill="#242424" stroke="#000000" stroke-width="2.5" stroke-linecap="butt"/><path d="M425.69566,84.9704v7.2105h-31.05663v-7.2105z" data-paper-data="{&quot;index&quot;:null}" fill="#242424" stroke="#000000" stroke-width="2.5" stroke-linecap="butt"/><path d="M394.5749,84.93629v7.21049h-31.05663v-7.21049z" data-paper-data="{&quot;index&quot;:null}" fill="#242424" stroke="#000000" stroke-width="2.5" stroke-linecap="butt"/><path d="M410.05893,77.66606v7.2105h-30.23499v-7.2105z" data-paper-data="{&quot;index&quot;:null}" fill="#242424" stroke="#000000" stroke-width="2.5" stroke-linecap="butt"/><path d="M440.93571,77.74303v7.2105h-30.80678v-7.2105z" data-paper-data="{&quot;index&quot;:null}" fill="#242424" stroke="#000000" stroke-width="2.5" stroke-linecap="butt"/><path d="M379.26388,77.6597v7.2105h-30.80679v-7.2105z" data-paper-data="{&quot;index&quot;:null}" fill="#242424" stroke="#000000" stroke-width="2.5" stroke-linecap="butt"/><path d="M471.85952,77.70493v7.2105h-30.80678v-7.2105z" data-paper-data="{&quot;index&quot;:null}" fill="#242424" stroke="#000000" stroke-width="2.5" stroke-linecap="butt"/><path d="M297.34223,99.1337v-6.91731h10.39113v6.91731z" fill="#242424" stroke="#000000" stroke-width="2.5" stroke-linecap="butt"/><g stroke="#000000" stroke-linecap="butt"><path d="M58.15558,248.38064c0,-17.50052 14.18698,-31.6875 31.6875,-31.6875c17.50052,0 31.6875,14.18698 31.6875,31.6875c0,17.50053 -14.18698,31.6875 -31.6875,31.6875c-17.50052,0 -31.6875,-14.18697 -31.6875,-31.6875z" fill="url(#color-1)" stroke-width="0"/><path d="M92.55174,255.55194v3.95204h-4.89971v-3.95204z" fill="#323324" stroke-width="1"/><g stroke-width="0.75"><path d="M90.16311,241.51316c0.33907,-0.45842 0.61784,2.04462 0.59166,2.929c-0.02344,0.79161 0.15883,1.49602 0.08386,2.08609c-0.01159,0.09117 0.10472,1.05691 0.17785,1.32572c0.01914,0.07037 0.54694,-1.26689 0.95195,-1.85811c0.2366,-0.34539 0.5058,-0.39572 0.66246,-0.23831c0.1196,0.12018 0.18793,0.35164 0.22265,0.64319c0.08859,0.74399 -0.04165,1.87931 -0.09694,2.55555c-0.04857,0.59401 -0.02254,1.22305 -0.20004,1.78245c-0.1775,0.5594 -0.83204,1.58019 -0.88234,1.6286c-0.144,0.13859 -1.16059,0.63963 -1.31734,0.63963c-0.26598,0 -0.73816,-0.07472 -1.01281,-0.19919c-0.21345,-0.09674 -1.36238,-0.6838 -1.76552,-1.65358c-0.48287,-1.1616 -1.0065,-2.98487 -1.10044,-3.28986c-0.06579,-0.21361 -0.02559,-3.17825 0.48151,-2.62096c0.53012,0.58259 2.1685,4.07417 2.13903,3.7559c-0.01779,-0.1921 -0.37593,-2.0437 -0.20391,-3.89963c0.12984,-1.40087 0.67184,-2.77999 1.26839,-3.58649z" fill="url(#color-2)"/><path d="M89.40836,257.50619v-4.66593h1.23858v4.66593z" fill="#311800"/></g></g><g stroke="#000000" stroke-linecap="butt"><path d="M96.18862,130.25752c0,-17.50052 14.18698,-31.6875 31.6875,-31.6875c17.50052,0 31.6875,14.18698 31.6875,31.6875c0,17.50053 -14.18698,31.6875 -31.6875,31.6875c-17.50052,0 -31.6875,-14.18697 -31.6875,-31.6875z" fill="url(#color-3)" stroke-width="0"/><path d="M130.58478,137.42882v3.95204h-4.89971v-3.95204z" fill="#323324" stroke-width="1"/><g stroke-width="0.75"><path d="M128.19615,123.39004c0.33907,-0.45842 0.61784,2.04462 0.59166,2.929c-0.02344,0.79161 0.15883,1.49602 0.08386,2.08609c-0.01159,0.09117 0.10472,1.05691 0.17785,1.32572c0.01914,0.07037 0.54694,-1.26689 0.95195,-1.85811c0.2366,-0.34539 0.5058,-0.39572 0.66246,-0.23831c0.1196,0.12018 0.18793,0.35164 0.22265,0.64319c0.08859,0.74399 -0.04165,1.87931 -0.09694,2.55555c-0.04857,0.59401 -0.02254,1.22305 -0.20004,1.78245c-0.1775,0.5594 -0.83204,1.58019 -0.88234,1.6286c-0.144,0.13859 -1.16059,0.63963 -1.31734,0.63963c-0.26598,0 -0.73816,-0.07472 -1.01281,-0.19919c-0.21345,-0.09674 -1.36238,-0.6838 -1.76552,-1.65358c-0.48287,-1.1616 -1.0065,-2.98487 -1.10044,-3.28986c-0.06579,-0.21361 -0.02559,-3.17825 0.48151,-2.62096c0.53012,0.58259 2.1685,4.07417 2.13903,3.7559c-0.01779,-0.1921 -0.37593,-2.0437 -0.20391,-3.89963c0.12984,-1.40087 0.67184,-2.77999 1.26839,-3.58649z" fill="url(#color-4)"/><path d="M127.4414,139.38307v-4.66593h1.23858v4.66593z" fill="#311800"/></g></g></g></g></svg>