<svg version="1.1" xmlns="http://www.w3.org/2000/svg" xmlns:xlink="http://www.w3.org/1999/xlink" width="48.18983" height="101.57675" viewBox="0,0,48.18983,101.57675"><defs><linearGradient x1="225.91353" y1="174.64742" x2="239.94518" y2="173.78547" gradientUnits="userSpaceOnUse" id="color-1"><stop offset="0" stop-color="#323232"/><stop offset="1" stop-color="#1f1f1f"/></linearGradient><linearGradient x1="225.67995" y1="173.40973" x2="237.35117" y2="174.44929" gradientUnits="userSpaceOnUse" id="color-2"><stop offset="0" stop-color="#323232"/><stop offset="1" stop-color="#1f1f1f"/></linearGradient><linearGradient x1="224.96548" y1="188.80653" x2="240.05693" y2="188.78037" gradientUnits="userSpaceOnUse" id="color-3"><stop offset="0" stop-color="#323232"/><stop offset="1" stop-color="#1f1f1f"/></linearGradient><linearGradient x1="241.58395" y1="148.47035" x2="258.80766" y2="143.09155" gradientUnits="userSpaceOnUse" id="color-4"><stop offset="0" stop-color="#323232"/><stop offset="1" stop-color="#1f1f1f"/></linearGradient><linearGradient x1="251.67086" y1="151.9013" x2="262.5488" y2="149.61187" gradientUnits="userSpaceOnUse" id="color-5"><stop offset="0" stop-color="#323232"/><stop offset="1" stop-color="#1f1f1f"/></linearGradient><linearGradient x1="240.20889" y1="178.0556" x2="252.18202" y2="178.94376" gradientUnits="userSpaceOnUse" id="color-6"><stop offset="0" stop-color="#323232"/><stop offset="1" stop-color="#1f1f1f"/></linearGradient><linearGradient x1="226.36645" y1="164.08045" x2="252.56885" y2="164.67691" gradientUnits="userSpaceOnUse" id="color-7"><stop offset="0" stop-color="#323232"/><stop offset="1" stop-color="#1f1f1f"/></linearGradient><linearGradient x1="227.01058" y1="157.96358" x2="250.94741" y2="155.92383" gradientUnits="userSpaceOnUse" id="color-8"><stop offset="0" stop-color="#323232"/><stop offset="1" stop-color="#1f1f1f"/></linearGradient><linearGradient x1="227.14678" y1="151.88795" x2="251.50885" y2="151.35204" gradientUnits="userSpaceOnUse" id="color-9"><stop offset="0" stop-color="#323232"/><stop offset="1" stop-color="#1f1f1f"/></linearGradient><linearGradient x1="239.54605" y1="139.53152" x2="239.36914" y2="149.83666" gradientUnits="userSpaceOnUse" id="color-10"><stop offset="0" stop-color="#323232"/><stop offset="1" stop-color="#252525"/></linearGradient><linearGradient x1="240.27058" y1="136.46011" x2="240.15464" y2="143.2132" gradientUnits="userSpaceOnUse" id="color-11"><stop offset="0" stop-color="#323232"/><stop offset="1" stop-color="#252525"/></linearGradient><linearGradient x1="233.72797" y1="151.21027" x2="231.55497" y2="133.95562" gradientUnits="userSpaceOnUse" id="color-12"><stop offset="0" stop-color="#323232"/><stop offset="1" stop-color="#1f1f1f"/></linearGradient><linearGradient x1="238.72682" y1="125.51628" x2="245.72593" y2="124.65032" gradientUnits="userSpaceOnUse" id="color-13"><stop offset="0" stop-color="#323232"/><stop offset="1" stop-color="#1f1f1f"/></linearGradient><linearGradient x1="243.73841" y1="135.47328" x2="246.98921" y2="135.07108" gradientUnits="userSpaceOnUse" id="color-14"><stop offset="0" stop-color="#323232"/><stop offset="1" stop-color="#1f1f1f"/></linearGradient><linearGradient x1="230.51663" y1="129.25183" x2="243.48996" y2="127.64674" gradientUnits="userSpaceOnUse" id="color-15"><stop offset="0" stop-color="#323232"/><stop offset="1" stop-color="#1f1f1f"/></linearGradient><radialGradient cx="244.17422" cy="130.95749" r="3.81401" gradientUnits="userSpaceOnUse" id="color-16"><stop offset="0" stop-color="#005dff"/><stop offset="1" stop-color="#005dff" stop-opacity="0"/></radialGradient><radialGradient cx="240.74426" cy="130.18738" r="4.00151" gradientUnits="userSpaceOnUse" id="color-17"><stop offset="0" stop-color="#005dff"/><stop offset="1" stop-color="#005dff" stop-opacity="0"/></radialGradient><linearGradient x1="264.59801" y1="153.51691" x2="252.4789" y2="152.42132" gradientUnits="userSpaceOnUse" id="color-18"><stop offset="0" stop-color="#323232"/><stop offset="1" stop-color="#1f1f1f"/></linearGradient><linearGradient x1="242.31541" y1="177.0211" x2="252.05924" y2="176.30472" gradientUnits="userSpaceOnUse" id="color-19"><stop offset="0" stop-color="#323232"/><stop offset="1" stop-color="#1f1f1f"/></linearGradient><linearGradient x1="241.45426" y1="189.18285" x2="255.71528" y2="188.59802" gradientUnits="userSpaceOnUse" id="color-20"><stop offset="0" stop-color="#323232"/><stop offset="1" stop-color="#1f1f1f"/></linearGradient><linearGradient x1="269.53489" y1="189.64903" x2="257.15238" y2="189.95478" gradientUnits="userSpaceOnUse" id="color-21"><stop offset="0" stop-color="#ffffff"/><stop offset="1" stop-color="#a9a9a9"/></linearGradient><linearGradient x1="260.62983" y1="151.44085" x2="257.14678" y2="151.52687" gradientUnits="userSpaceOnUse" id="color-22"><stop offset="0" stop-color="#414141"/><stop offset="1" stop-color="#282828"/></linearGradient><linearGradient x1="265.72304" y1="208.93598" x2="260.32618" y2="163.97478" gradientUnits="userSpaceOnUse" id="color-23"><stop offset="0" stop-color="#1a1a1a"/><stop offset="1" stop-color="#0f0f0f"/></linearGradient><linearGradient x1="257.96958" y1="167.56648" x2="262.34437" y2="164.52946" gradientUnits="userSpaceOnUse" id="color-24"><stop offset="0" stop-color="#0046ff"/><stop offset="1" stop-color="#001cad"/></linearGradient><linearGradient x1="253.97125" y1="167.27941" x2="266.57011" y2="161.40854" gradientUnits="userSpaceOnUse" id="color-25"><stop offset="0" stop-color="#323232"/><stop offset="1" stop-color="#1f1f1f"/></linearGradient><linearGradient x1="248.06153" y1="149.46292" x2="249.58728" y2="141.38602" gradientUnits="userSpaceOnUse" id="color-26"><stop offset="0" stop-color="#323232"/><stop offset="1" stop-color="#1f1f1f"/></linearGradient><linearGradient x1="248.20546" y1="150.49171" x2="249.39436" y2="141.31877" gradientUnits="userSpaceOnUse" id="color-27"><stop offset="0" stop-color="#323232"/><stop offset="1" stop-color="#1f1f1f"/></linearGradient><linearGradient x1="241.52833" y1="150.34893" x2="239.52719" y2="140.17916" gradientUnits="userSpaceOnUse" id="color-28"><stop offset="0" stop-color="#323232"/><stop offset="1" stop-color="#1f1f1f"/></linearGradient></defs><g transform="translate(-224.30055,-116.34346)"><g data-paper-data="{&quot;isPaintingLayer&quot;:true}" fill-rule="nonzero" stroke-linejoin="miter" stroke-miterlimit="10" stroke-dasharray="" stroke-dashoffset="0" style="mix-blend-mode: normal"><path d="M226.72953,186.35715c0,0 0.33725,-3.01652 0.0803,-6.69254c-0.15206,-2.17564 -0.95297,-4.7613 -0.958,-6.60316c-0.00784,-2.88545 0.1911,-2.94395 0.12287,-4.55783c-0.10615,-2.51042 2.31215,-6.13251 2.31215,-6.13251l11.14011,-0.84228c0,0 -1.66898,7.38417 -1.6588,7.62453c0.06671,1.57802 -0.90165,7.02632 -0.85387,8.61586c0.11989,3.98966 -2.02351,8.08659 -2.02351,8.08659c0,0 -0.81008,0.57829 -2.53263,0.68412c-1.68751,0.10365 -5.62861,-0.18278 -5.62861,-0.18278z" fill="url(#color-1)" stroke="#000000" stroke-width="1.5" stroke-linecap="butt"/><path d="M225.43608,175.3958l0.869,-6.18039l5.4825,2.85949l6.20544,-2.2822l-0.86899,6.1804l-6.07579,2.62852z" fill="url(#color-2)" stroke="#000000" stroke-width="1.5" stroke-linecap="butt"/><path d="M226.62671,182.89343l4.83865,1.31266l4.94832,-1.32965l-0.13185,3.1761c0,0 -2.13719,4.74363 -1.15262,4.93993c1.74756,0.34843 2.97584,0.65233 4.09861,1.0411c1.62749,0.56352 -0.21197,2.02146 -0.47997,2.30732c-0.09691,0.10336 -0.37957,0.17977 -0.80035,0.23484c-2.90763,0.38049 -12.41012,-0.25791 -12.78679,-0.05769c-0.3594,0.19106 -0.54747,-1.54371 -0.12417,-3.70329c0.42342,-2.16019 1.45833,-4.74524 1.45833,-4.74524z" fill="url(#color-3)" stroke="#000000" stroke-width="1.5" stroke-linecap="butt"/><path d="M250.84047,152.91696l-5.03221,-5.44869l-5.52895,-3.17558l3.36359,-2.34694l7.01936,-4.00927l7.49105,3.05972l1.26287,7.03312z" data-paper-data="{&quot;index&quot;:null}" fill="url(#color-4)" stroke="#000000" stroke-width="1.5" stroke-linecap="butt"/><path d="M253.39988,155.23159l-1.44911,-2.00028l-0.32555,-2.40616l8.87917,-4.47722l1.71626,1.70492l0.05839,2.70152z" fill="url(#color-5)" stroke="#000000" stroke-width="1.5" stroke-linecap="butt"/><path d="M261.14397,144.16977l-13.76435,0.64524" fill="none" stroke="#000000" stroke-width="1.5" stroke-linecap="round"/><path d="M236.21317,133.06139l-0.24162,-6.70487l10.06324,0.25584l0.24161,6.70487z" fill="#0c0c0c" stroke="none" stroke-width="0" stroke-linecap="butt"/><path d="M242.15317,178.74171c0.1586,-3.38311 -2.03669,-15.14848 -2.03669,-15.14848l10.14262,0.75237c0,0 1.62004,7.5891 1.56975,11.10811c-0.01184,0.82852 0.90609,4.99883 0.66378,7.85681c-0.30139,3.55516 -1.77419,5.82568 -1.77419,5.82568c0,0 -2.85574,0.17598 -4.15957,-0.36717c-1.34128,-0.55871 -3.77892,-2.93975 -3.77892,-2.93975c0,0 -0.72805,-4.92802 -0.62678,-7.08757z" fill="url(#color-6)" stroke="#000000" stroke-width="1.5" stroke-linecap="butt"/><path d="M226.35388,164.63299l2.97962,-8.48671l20.31769,1.48394l2.89458,8.06044l-12.55353,6.70169z" fill="url(#color-7)" stroke="#000000" stroke-width="1.5" stroke-linecap="butt"/><path d="M227.0623,158.57056l1.5544,-9.82685l18.1053,-0.51795l4.48122,10.70024l-10.00563,6.91159z" fill="url(#color-8)" stroke="#000000" stroke-width="1.5" stroke-linecap="butt"/><path d="M227.14396,151.75927l2.04375,-7.74658l18.9805,0.50207l3.39638,9.37055l-10.47584,5.52631z" fill="url(#color-9)" stroke="#000000" stroke-width="1.5" stroke-linecap="butt"/><path d="M229.924,144.52042l2.22683,-5.11588l16.20479,0.93277l0.61634,5.63056l-5.37663,3.94134z" fill="url(#color-10)" stroke="#000000" stroke-width="1.5" stroke-linecap="butt"/><path d="M233.96515,139.72941l1.45926,-3.35248l10.61916,0.61126l0.4039,3.68976l-3.52337,2.58281z" fill="url(#color-11)" stroke="#000000" stroke-width="1.5" stroke-linecap="butt"/><path d="M238.30118,149.76874l-6.67235,1.70591l-5.78496,-6.18253l0.17364,-5.98961l1.35222,-4.8198l4.99618,3.57798l7.00769,1.29405z" fill="url(#color-12)" stroke="#000000" stroke-width="1.5" stroke-linecap="butt"/><path d="M232.64299,150.57871l-0.54377,-12.27053" fill="none" stroke="#000000" stroke-width="1.5" stroke-linecap="round"/><path d="M238.03781,130.33102c-0.16574,-1.33958 0.67645,-2.54635 1.88112,-2.69539c1.20465,-0.14904 2.31558,0.81608 2.48131,2.15566c0.16574,1.33959 -0.67648,2.54637 -1.88114,2.69541c-1.20465,0.14904 -2.31558,-0.81608 -2.48131,-2.15568z" fill="#005dff" stroke="none" stroke-width="0" stroke-linecap="butt"/><path d="M243.14922,130.93999c0.01845,-1.07463 0.81683,-1.93236 1.78321,-1.91577c0.96639,0.01658 1.73487,0.9012 1.7164,1.97584c-0.01845,1.07464 -0.81684,1.93236 -1.78321,1.91577c-0.96639,-0.01658 -1.73486,-0.9012 -1.7164,-1.97584z" fill="#005dff" stroke="none" stroke-width="0" stroke-linecap="butt"/><g stroke="#000000" stroke-width="1.5" stroke-linecap="butt"><path d="M244.88917,133.17396l1.51355,-2.05755l-0.33138,-2.30743c0,0 -1.74437,1.5912 -1.95772,0.60277c-0.62341,-2.88831 -1.46557,-6.5083 -1.96699,-7.75769c-0.77187,-1.92324 -4.35224,-3.58527 -4.36123,-3.74702c-0.12353,-2.22555 4.54882,0.87429 6.32923,3.22625c1.7804,2.35194 2.49949,10.98271 2.49949,10.98271z" data-paper-data="{&quot;index&quot;:null}" fill="url(#color-13)"/><path d="M246.95191,136.57337l-2.82064,2.07549l-0.16203,-5.20809l2.62705,-1.54525z" data-paper-data="{&quot;index&quot;:null}" fill="url(#color-14)"/><path d="M237.84594,128.26956l0.76404,3.49851l5.22139,1.75861l-0.37587,5.45697l-12.00887,-2.21511c0,0 0.92668,-4.62777 0.45766,-8.19669c-0.39869,-3.03361 -1.51955,-5.82103 -1.51955,-5.82103c0,0 3.26144,-6.55442 8.11654,-5.55334c4.85512,1.00109 5.09596,12.33392 5.09596,12.33392z" data-paper-data="{&quot;index&quot;:null}" fill="url(#color-15)"/></g><path d="M240.38906,131.42577c-0.28762,-2.32464 1.17391,-4.41877 3.26439,-4.6774c2.09047,-0.25864 4.01832,1.41617 4.30591,3.74079c0.28762,2.32464 -1.17391,4.41879 -3.26439,4.67743c-2.09047,0.25864 -4.01831,-1.41619 -4.3059,-3.74081z" fill="url(#color-16)" stroke="none" stroke-width="0" stroke-linecap="butt"/><path d="M236.77302,130.6787c-0.30174,-2.43892 1.23162,-4.63602 3.42487,-4.90736c2.19327,-0.27135 4.21587,1.48579 4.5176,3.92471c0.30175,2.43893 -1.23163,4.63603 -3.42488,4.90736c-2.19327,0.27135 -4.21586,-1.48579 -4.51759,-3.92471z" fill="url(#color-17)" stroke="none" stroke-width="0" stroke-linecap="butt"/><path d="M262.64849,149.89207l0.27322,6.77377l-9.6735,-0.01405l0.38723,-6.40305l4.59374,-1.46849z" fill="url(#color-18)" stroke="#000000" stroke-width="1.5" stroke-linecap="butt"/><path d="M242.59938,178.76095l-0.79414,-5.42939l5.15294,1.70054l4.49226,-2.81632l0.79416,5.42939l-4.30274,3.096z" fill="url(#color-19)" stroke="#000000" stroke-width="1.5" stroke-linecap="butt"/><path d="M242.57134,183.21404l4.66367,1.13265l4.5321,-1.50978l0.15822,3.17626c0,0 -1.58708,4.8153 -0.64441,4.97508c1.67321,0.2836 2.8545,0.54185 3.94415,0.88873c1.57949,0.5028 -0.01966,2.02625 -0.24612,2.32157c-0.08188,0.10678 -0.34072,0.19348 -0.73127,0.26394c-2.69865,0.48694 -11.6853,0.19916 -12.02153,0.413c-0.29257,0.18604 -0.75082,-1.75377 -0.57841,-3.71048c0.20573,-2.33465 1.08177,-4.77469 1.08177,-4.77469z" fill="url(#color-20)" stroke="#000000" stroke-width="1.5" stroke-linecap="butt"/><g stroke="#000000" stroke-width="1.5" stroke-linecap="butt"><path d="M266.31636,162.83541l5.39884,44.97769l-5.26165,8.80512l-7.15054,-8.74652l-5.36917,-44.73057z" fill="url(#color-21)"/><path d="M259.40767,141.2591l2.56298,21.35204l-3.48303,0.086l-2.56296,-21.35205c0,0 1.06015,-1.01762 1.68014,-1.03293c0.52519,-0.01297 1.80291,0.94693 1.80291,0.94693z" fill="url(#color-22)"/><path d="M262.43785,163.92264l5.04423,42.02365l-1.7961,2.99064l-2.4351,-2.95202l-5.03638,-41.95801z" fill="url(#color-23)"/><path d="M268.83367,161.76641l-0.65426,1.81003l-4.56198,0.11265l-3.13947,3.79546l-4.13796,-3.61578l-5.32229,0.13143l-1.51812,-1.75639l1.088,-1.82699c0,0 3.45189,-0.14155 6.50284,-0.25359c0.95296,-0.03499 2.32751,-2.27521 2.32751,-2.27521c0,0 1.55313,2.14847 1.90803,2.13971c2.53919,-0.06271 6.42333,-0.03468 6.42333,-0.03468z" fill="#191919"/><path d="M263.34392,165.96929l-2.75175,3.70419l-3.62214,-3.54679l2.75173,-3.70416z" fill="url(#color-24)"/><path d="M260.4338,140.6564c0.20831,1.73534 -0.85944,3.17261 -2.38484,3.21029c-1.52542,0.03767 -2.93088,-1.33853 -3.13918,-3.07388c-0.20831,-1.73534 1.04587,-1.61923 2.5713,-1.6569c1.52542,-0.03767 2.74441,-0.21483 2.95271,1.52049z" fill="#171717"/></g><path d="M257.10559,148.55677c0,0 4.7416,2.30929 4.87946,3.02878c0.29554,1.54252 0.26005,3.01013 0.26005,3.01013c0,0 -2.82405,1.42075 -4.14603,1.48308c-1.21933,0.05748 -3.50279,-1.12248 -3.50279,-1.12248l-0.41825,-2.84653z" data-paper-data="{&quot;index&quot;:null}" fill="url(#color-25)" stroke="#000000" stroke-width="1.5" stroke-linecap="butt"/><path d="M260.31712,150.43829c0,0 -3.95939,-0.43043 -8.21483,-0.92931c-3.07138,-0.3601 -1.0517,-7.06588 0.59097,-6.87011c3.11244,0.37096 6.50525,0.678 8.15653,0.87518c0.66766,0.07973 2.49114,3.34225 2.49114,3.34225z" fill="url(#color-26)" stroke="#000000" stroke-width="1.5" stroke-linecap="butt"/><path d="M254.59168,150.50274l-15.40127,-1.17943l2.62955,-8.06617l13.85652,0.87589l2.20096,4.45884z" fill="url(#color-27)" stroke="#000000" stroke-width="1.5" stroke-linecap="butt"/><path d="M242.4619,150.02507l-2.32001,0.59669l-2.11001,-0.52088l0.62886,-9.25682l2.20851,-0.92899l2.22152,0.85315z" fill="url(#color-28)" stroke="#000000" stroke-width="1.5" stroke-linecap="butt"/></g></g></svg>