<svg version="1.1" xmlns="http://www.w3.org/2000/svg" xmlns:xlink="http://www.w3.org/1999/xlink" width="79.92957" height="79.56398" viewBox="0,0,79.92957,79.56398"><defs><linearGradient x1="297.44933" y1="146.46186" x2="315.48703" y2="145.98298" gradientUnits="userSpaceOnUse" id="color-1"><stop offset="0" stop-color="#323232"/><stop offset="1" stop-color="#1f1f1f"/></linearGradient><linearGradient x1="305.70356" y1="165.59939" x2="318.09346" y2="166.25599" gradientUnits="userSpaceOnUse" id="color-2"><stop offset="0" stop-color="#323232"/><stop offset="1" stop-color="#1f1f1f"/></linearGradient><linearGradient x1="305.12884" y1="154.88224" x2="316.20394" y2="155.83791" gradientUnits="userSpaceOnUse" id="color-3"><stop offset="0" stop-color="#323232"/><stop offset="1" stop-color="#1f1f1f"/></linearGradient><linearGradient x1="293.76504" y1="176.2842" x2="305.40279" y2="179.23506" gradientUnits="userSpaceOnUse" id="color-4"><stop offset="0" stop-color="#323232"/><stop offset="1" stop-color="#1f1f1f"/></linearGradient><linearGradient x1="280.94275" y1="175.83588" x2="294.46872" y2="172.0046" gradientUnits="userSpaceOnUse" id="color-5"><stop offset="0" stop-color="#323232"/><stop offset="1" stop-color="#1f1f1f"/></linearGradient><linearGradient x1="279.4681" y1="163.32298" x2="305.60402" y2="165.28134" gradientUnits="userSpaceOnUse" id="color-6"><stop offset="0" stop-color="#323232"/><stop offset="1" stop-color="#1f1f1f"/></linearGradient><linearGradient x1="280.42948" y1="157.24789" x2="304.43999" y2="156.45578" gradientUnits="userSpaceOnUse" id="color-7"><stop offset="0" stop-color="#323232"/><stop offset="1" stop-color="#1f1f1f"/></linearGradient><linearGradient x1="280.88147" y1="151.18757" x2="305.23844" y2="151.91937" gradientUnits="userSpaceOnUse" id="color-8"><stop offset="0" stop-color="#323232"/><stop offset="1" stop-color="#1f1f1f"/></linearGradient><linearGradient x1="293.90657" y1="139.4927" x2="293.19397" y2="149.7747" gradientUnits="userSpaceOnUse" id="color-9"><stop offset="0" stop-color="#323232"/><stop offset="1" stop-color="#252525"/></linearGradient><linearGradient x1="294.78986" y1="136.46313" x2="294.32287" y2="143.20105" gradientUnits="userSpaceOnUse" id="color-10"><stop offset="0" stop-color="#323232"/><stop offset="1" stop-color="#252525"/></linearGradient><linearGradient x1="271.26264" y1="145.08787" x2="288.62252" y2="144.04918" gradientUnits="userSpaceOnUse" id="color-11"><stop offset="0" stop-color="#323232"/><stop offset="1" stop-color="#1f1f1f"/></linearGradient><linearGradient x1="293.81734" y1="125.45382" x2="300.85201" y2="124.95304" gradientUnits="userSpaceOnUse" id="color-12"><stop offset="0" stop-color="#323232"/><stop offset="1" stop-color="#1f1f1f"/></linearGradient><linearGradient x1="298.30432" y1="135.65798" x2="301.57163" y2="135.42539" gradientUnits="userSpaceOnUse" id="color-13"><stop offset="0" stop-color="#323232"/><stop offset="1" stop-color="#1f1f1f"/></linearGradient><linearGradient x1="285.42399" y1="128.75733" x2="298.46323" y2="127.82911" gradientUnits="userSpaceOnUse" id="color-14"><stop offset="0" stop-color="#323232"/><stop offset="1" stop-color="#1f1f1f"/></linearGradient><radialGradient cx="299.11725" cy="131.02812" r="3.81401" gradientUnits="userSpaceOnUse" id="color-15"><stop offset="0" stop-color="#005dff"/><stop offset="1" stop-color="#005dff" stop-opacity="0"/></radialGradient><radialGradient cx="295.30341" cy="130.22352" r="4.00151" gradientUnits="userSpaceOnUse" id="color-16"><stop offset="0" stop-color="#005dff"/><stop offset="1" stop-color="#005dff" stop-opacity="0"/></radialGradient><linearGradient x1="295.81617" y1="175.34108" x2="305.53661" y2="176.32514" gradientUnits="userSpaceOnUse" id="color-17"><stop offset="0" stop-color="#323232"/><stop offset="1" stop-color="#1f1f1f"/></linearGradient><linearGradient x1="280.90842" y1="175.21041" x2="292.28627" y2="172.40993" gradientUnits="userSpaceOnUse" id="color-18"><stop offset="0" stop-color="#323232"/><stop offset="1" stop-color="#1f1f1f"/></linearGradient><linearGradient x1="293.51613" y1="187.86128" x2="307.73059" y2="189.15276" gradientUnits="userSpaceOnUse" id="color-19"><stop offset="0" stop-color="#323232"/><stop offset="1" stop-color="#1f1f1f"/></linearGradient><linearGradient x1="282.04902" y1="189.37253" x2="297.0615" y2="187.83054" gradientUnits="userSpaceOnUse" id="color-20"><stop offset="0" stop-color="#323232"/><stop offset="1" stop-color="#1f1f1f"/></linearGradient><linearGradient x1="320.07069" y1="161.41796" x2="319.72273" y2="173.79937" gradientUnits="userSpaceOnUse" id="color-21"><stop offset="0" stop-color="#ffffff"/><stop offset="1" stop-color="#a9a9a9"/></linearGradient><linearGradient x1="281.4459" y1="168.29483" x2="281.34803" y2="171.77757" gradientUnits="userSpaceOnUse" id="color-22"><stop offset="0" stop-color="#414141"/><stop offset="1" stop-color="#282828"/></linearGradient><linearGradient x1="339.12967" y1="166.24206" x2="293.94635" y2="169.25933" gradientUnits="userSpaceOnUse" id="color-23"><stop offset="0" stop-color="#1a1a1a"/><stop offset="1" stop-color="#0f0f0f"/></linearGradient><linearGradient x1="297.4351" y1="171.30283" x2="294.63311" y2="166.7739" gradientUnits="userSpaceOnUse" id="color-24"><stop offset="0" stop-color="#0046ff"/><stop offset="1" stop-color="#001cad"/></linearGradient><linearGradient x1="273.2712" y1="161.20511" x2="281.46976" y2="160.61536" gradientUnits="userSpaceOnUse" id="color-25"><stop offset="0" stop-color="#323232"/><stop offset="1" stop-color="#1f1f1f"/></linearGradient><linearGradient x1="273.14713" y1="160.29726" x2="282.39156" y2="160.6082" gradientUnits="userSpaceOnUse" id="color-26"><stop offset="0" stop-color="#323232"/><stop offset="1" stop-color="#1f1f1f"/></linearGradient><linearGradient x1="310.72125" y1="190.2794" x2="323.32011" y2="184.40853" gradientUnits="userSpaceOnUse" id="color-27"><stop offset="0" stop-color="#323232"/><stop offset="1" stop-color="#1f1f1f"/></linearGradient><linearGradient x1="272.04827" y1="152.3179" x2="282.39455" y2="151.69885" gradientUnits="userSpaceOnUse" id="color-28"><stop offset="0" stop-color="#323232"/><stop offset="1" stop-color="#1f1f1f"/></linearGradient></defs><g transform="translate(-268.2154,-116.22161)"><g data-paper-data="{&quot;isPaintingLayer&quot;:true}" fill-rule="nonzero" stroke-linejoin="miter" stroke-miterlimit="10" stroke-dasharray="" stroke-dashoffset="0" style="mix-blend-mode: normal"><path d="M305.14276,153.26382l-3.35594,-6.61431l-4.45363,-4.56275l3.87605,-1.34092l7.84655,-1.94351l6.37298,4.98627l-0.70259,7.11097z" data-paper-data="{&quot;index&quot;:null}" fill="url(#color-1)" stroke="#000000" stroke-width="1.5" stroke-linecap="butt"/><path d="M309.05474,173.96262l-2.93719,-16.17534l9.5508,-1.53625l2.13951,15.39485l-3.95453,4.26178z" fill="url(#color-2)" stroke="#000000" stroke-width="1.5" stroke-linecap="butt"/><path d="M305.8204,158.57034l-0.80841,-2.33399l0.38452,-2.39745l9.79478,-1.71683l1.1496,2.12856l-0.72571,2.60288z" fill="url(#color-3)" stroke="#000000" stroke-width="1.5" stroke-linecap="butt"/><path d="M301.45476,145.17646l13.77928,0.07147" fill="none" stroke="#000000" stroke-width="1.5" stroke-linecap="round"/><path d="M290.91469,132.858l0.10741,-6.70836l10.03632,0.77885l-0.10742,6.70836z" fill="#0c0c0c" stroke="none" stroke-width="0" stroke-linecap="butt"/><path d="M294.94923,184.38597c0.42499,-2.53662 0.13748,-4.97963 0.61167,-7.08889c0.74282,-3.30435 0.62092,-15.27216 0.62092,-15.27216l9.85851,2.49972c0,0 0.27955,7.75505 -0.38017,11.21204c-0.15533,0.81391 0.02556,5.08022 -0.70865,7.85289c-0.91329,3.44904 -2.75749,5.42978 -2.75749,5.42978c0,0 -2.843,-0.32188 -4.0329,-1.08287c-1.22408,-0.78283 -3.21193,-3.55048 -3.21193,-3.55048z" fill="url(#color-4)" stroke="#000000" stroke-width="1.5" stroke-linecap="butt"/><path d="M284.23452,187.103c0,0 -0.31309,-3.01911 -1.34724,-6.55603c-0.61205,-2.09331 -1.94538,-4.449 -2.34266,-6.24751c-0.62234,-2.81754 -0.44043,-2.91708 -0.85089,-4.47938c-0.63849,-2.43019 -1.55972,-5.93652 -1.55972,-5.93652l13.21738,-3.74388c0,0 -0.05764,7.57022 0.0035,7.80289c0.40134,1.52758 0.61584,7.05712 1.00114,8.59999c0.96704,3.87254 -0.2544,8.33203 -0.2544,8.33203c0,0 -0.66829,0.73759 -2.32876,1.20794c-1.62669,0.46076 -5.53834,1.02046 -5.53834,1.02046z" fill="url(#color-5)" stroke="#000000" stroke-width="1.5" stroke-linecap="butt"/><path d="M279.42681,163.87412l3.41695,-8.32027l20.21302,2.53859l2.47147,8.20007l-12.88507,6.03975z" fill="url(#color-6)" stroke="#000000" stroke-width="1.5" stroke-linecap="butt"/><path d="M280.44956,157.85675l2.06336,-9.73271l18.10774,0.42435l3.91867,10.91881l-10.35154,6.38188z" fill="url(#color-7)" stroke="#000000" stroke-width="1.5" stroke-linecap="butt"/><path d="M280.88534,151.05891l2.44386,-7.62981l18.9287,1.4885l2.90445,9.5345l-10.74907,4.97402z" fill="url(#color-8)" stroke="#000000" stroke-width="1.5" stroke-linecap="butt"/><path d="M284.03809,143.97445l2.48988,-4.99315l16.13435,1.77427l0.32268,5.65499l-5.57433,3.65639z" fill="url(#color-9)" stroke="#000000" stroke-width="1.5" stroke-linecap="butt"/><path d="M288.32293,139.40008l1.63164,-3.27205l10.573,1.1627l0.21146,3.70577l-3.65293,2.39608z" fill="url(#color-10)" stroke="#000000" stroke-width="1.5" stroke-linecap="butt"/><path d="M272.40167,149.74564l-1.26541,-6.76972l6.54801,-5.36777l5.9654,0.56541l4.72092,1.66487l-3.8974,4.75122l-1.75007,6.90794z" fill="url(#color-11)" stroke="#000000" stroke-width="1.5" stroke-linecap="butt"/><path d="M283.97948,144.33368l-12.23422,-1.08887" fill="none" stroke="#000000" stroke-width="1.5" stroke-linecap="round"/><path d="M292.87886,130.22621c-0.09585,-1.34639 0.80796,-2.50772 2.01875,-2.59391c1.21077,-0.08619 2.27,0.9354 2.36584,2.28179c0.09585,1.3464 -0.80799,2.50774 -2.01877,2.59393c-1.21077,0.08619 -2.27,-0.9354 -2.36584,-2.28181z" fill="#005dff" stroke="none" stroke-width="0" stroke-linecap="butt"/><path d="M297.66597,130.95733c0.07431,-1.07222 0.91622,-1.88726 1.88043,-1.82044c0.96422,0.06682 1.68565,0.99021 1.61132,2.06243c-0.07431,1.07223 -0.91623,1.88726 -1.88043,1.82044c-0.96422,-0.06682 -1.68564,-0.9902 -1.61132,-2.06243z" fill="#005dff" stroke="none" stroke-width="0" stroke-linecap="butt"/><g stroke="#000000" stroke-width="1.5" stroke-linecap="butt"><path d="M299.5731,133.42162l1.61851,-1.97605l-0.21093,-2.32154c0,0 -1.82476,1.49833 -1.98642,0.50014c-0.47236,-2.91682 -1.12511,-6.57571 -1.56088,-7.84949c-0.6708,-1.96078 -4.15989,-3.80676 -4.16046,-3.96876c-0.00762,-2.22896 4.4972,1.10968 6.15288,3.55105c1.65567,2.44135 1.92493,11.09784 1.92493,11.09784z" data-paper-data="{&quot;index&quot;:null}" fill="url(#color-12)"/><path d="M301.45626,136.92371l-2.92476,1.92599l0.10904,-5.20947l2.70386,-1.40653z" data-paper-data="{&quot;index&quot;:null}" fill="url(#color-13)"/><path d="M292.79446,128.15757l0.58106,3.53351l5.12286,2.02778l-0.65916,5.43004l-11.87742,-2.83665c0,0 1.1661,-4.57331 0.88332,-8.1618c-0.24038,-3.05024 -1.21476,-5.89218 -1.21476,-5.89218c0,0 3.5979,-6.37593 8.39437,-5.12371c4.79649,1.25223 4.44762,12.58225 4.44762,12.58225z" data-paper-data="{&quot;index&quot;:null}" fill="url(#color-14)"/></g><path d="M295.31286,131.29892c-0.16633,-2.33645 1.40213,-4.35174 3.50323,-4.5013c2.10109,-0.14957 3.93923,1.62323 4.10554,3.95966c0.16633,2.33645 -1.40213,4.35176 -3.50323,4.50133c-2.10109,0.14957 -3.93922,-1.62325 -4.10553,-3.95968z" fill="url(#color-15)" stroke="none" stroke-width="0" stroke-linecap="butt"/><path d="M291.31199,130.50765c-0.17449,-2.45131 1.47106,-4.56569 3.67545,-4.7226c2.20441,-0.15692 4.13289,1.70303 4.30738,4.15434c0.1745,2.45132 -1.47107,4.5657 -3.67546,4.7226c-2.20441,0.15692 -4.13288,-1.70303 -4.30737,-4.15434z" fill="url(#color-16)" stroke="none" stroke-width="0" stroke-linecap="butt"/><path d="M295.79414,177.10382l0.15935,-5.48484l4.78001,2.5683l4.91256,-1.9947l-0.15933,5.48485l-4.77441,2.30301z" fill="url(#color-17)" stroke="#000000" stroke-width="1.5" stroke-linecap="butt"/><path d="M281.32163,177.16828l-1.18166,-6.1283l6.11344,0.92757l5.13036,-4.17077l1.18167,6.1283l-4.89543,4.45636z" fill="url(#color-18)" stroke="#000000" stroke-width="1.5" stroke-linecap="butt"/><path d="M295.14683,185.26021l0.25992,-3.16956l4.47474,1.7348l4.69101,-0.90205l-0.25992,3.16956c0,0 -2.2052,4.56541 -1.29165,4.8475c1.62153,0.5007 2.75872,0.91171 3.79343,1.39858c1.49986,0.70571 -0.28536,2.00616 -0.54862,2.26921c-0.09519,0.09511 -0.36316,0.14709 -0.75958,0.16571c-2.73922,0.12863 -11.6104,-1.33585 -11.97177,-1.16797c-0.31445,0.14605 -0.51421,-1.83712 -0.08653,-3.75431c0.51028,-2.28747 1.69892,-4.59146 1.69892,-4.59146z" fill="url(#color-19)" stroke="#000000" stroke-width="1.5" stroke-linecap="butt"/><path d="M283.10786,183.32248l4.94603,0.81998l4.78973,-1.81998l0.18786,3.17328c0,0 -1.64988,4.93432 -0.65057,5.03073c1.77372,0.17113 3.02631,0.3501 4.18247,0.62413c1.67587,0.3972 -0.00783,2.03252 -0.24577,2.34387c-0.08604,0.11257 -0.3596,0.21698 -0.77272,0.31405c-2.8547,0.67064 -12.37326,0.99 -12.72791,1.22705c-0.3384,0.2262 -0.69977,-1.48091 -0.49555,-3.67209c0.2043,-2.1918 0.97429,-4.86772 0.97429,-4.86772z" fill="url(#color-20)" stroke="#000000" stroke-width="1.5" stroke-linecap="butt"/><g stroke="#000000" stroke-width="1.5" stroke-linecap="butt"><path d="M293.1246,163.21738l45.19989,-3.01837l8.51525,5.71886l-9.11158,6.67913l-44.95154,3.00178z" fill="url(#color-21)"/><path d="M271.21385,168.97811l21.45752,-1.4329l-0.09788,3.48272l-21.45753,1.4329c0,0 -0.96028,-1.11236 -0.94285,-1.7323c0.01476,-0.52514 1.04073,-1.75043 1.04073,-1.75043z" fill="url(#color-22)"/><path d="M294.00569,167.14784l42.23125,-2.82011l2.89171,1.95138l-3.07639,2.27597l-42.16528,2.81573z" fill="url(#color-23)"/><path d="M292.38143,160.18531l1.773,0.74884l-0.12819,4.56157l3.62454,3.33533l-3.82906,3.94144l-0.14955,5.32181l-1.83404,1.42334l-1.76705,-1.18287c0,0 0.04076,-3.45455 0.08985,-6.50716c0.01533,-0.95348 -2.19553,-2.19863 -2.19553,-2.19863c0,0 2.2737,-1.6833 2.28368,-2.03816c0.07135,-2.53897 0.30425,-6.41622 0.30425,-6.41622z" fill="#191919"/><path d="M296.12367,165.85171l3.55385,2.94335l-3.73295,3.42997l-3.55382,-2.94333z" fill="url(#color-24)"/><path d="M270.66612,167.92161c1.74391,-0.11646 3.12285,1.02563 3.07999,2.55089c-0.04286,1.52529 -1.4913,2.85618 -3.23522,2.97264c-1.74391,0.11646 -1.5618,-1.12985 -1.51893,-2.65514c0.04286,-1.52529 -0.06974,-2.75192 1.67415,-2.86838z" fill="#171717"/></g><path d="M275.4613,173.30281c0,0 -0.59606,-3.93786 -1.20164,-8.17944c-0.43705,-3.06138 6.56223,-2.8231 6.7929,-1.18497c0.43704,3.10384 1.00755,6.46241 1.23906,8.10923c0.09359,0.66586 -2.59434,3.26279 -2.59434,3.26279z" fill="url(#color-25)" stroke="#000000" stroke-width="1.5" stroke-linecap="butt"/><path d="M273.74364,166.65557l-0.29094,-15.44362l8.27972,1.85033l0.44618,13.877l-4.22926,2.61512z" fill="url(#color-26)" stroke="#000000" stroke-width="1.5" stroke-linecap="butt"/><path d="M313.85559,171.55676c0,0 4.7416,2.30929 4.87946,3.02878c0.29554,1.54252 0.26005,3.01013 0.26005,3.01013c0,0 -2.82405,1.42075 -4.14603,1.48308c-1.21933,0.05748 -3.50279,-1.12248 -3.50279,-1.12248l-0.41825,-2.84653z" data-paper-data="{&quot;index&quot;:null}" fill="url(#color-27)" stroke="#000000" stroke-width="1.5" stroke-linecap="butt"/><path d="M272.24398,153.28648l-0.28013,-2.37908l0.79917,-2.02108l9.08883,1.86473l0.62439,2.31315l-1.1434,2.08702z" fill="url(#color-28)" stroke="#000000" stroke-width="1.5" stroke-linecap="butt"/></g></g></svg>