<svg version="1.1" xmlns="http://www.w3.org/2000/svg" xmlns:xlink="http://www.w3.org/1999/xlink" width="42.93794" height="64.99679" viewBox="0,0,42.93794,64.99679"><g transform="translate(-219.31265,-138.19589)"><g data-paper-data="{&quot;isPaintingLayer&quot;:true}" fill-rule="nonzero" stroke-linejoin="miter" stroke-miterlimit="10" stroke-dasharray="" stroke-dashoffset="0" style="mix-blend-mode: normal"><path d="M250.61489,175.31519c0,0 -1.48188,-0.53378 -2.41895,-2.15644c-0.14877,-0.25761 -2.18269,-1.83289 -2.18269,-1.83289" data-paper-data="{&quot;index&quot;:null}" fill="none" stroke="#000000" stroke-width="6" stroke-linecap="round"/><path d="M235.19595,171.15798l-4.05777,0.68069" data-paper-data="{&quot;index&quot;:null}" fill="none" stroke="#000000" stroke-width="6" stroke-linecap="round"/><path d="M246.87018,157.43934c0,0 5.79401,4.0809 6.41459,9.25802c-0.65274,4.12085 -2.63637,8.46586 -2.63637,8.46586" fill="none" stroke="#000000" stroke-width="6" stroke-linecap="round"/><path d="M235.3388,170.87227l-4.05777,0.68069" data-paper-data="{&quot;index&quot;:null}" fill="none" stroke="#979797" stroke-width="4" stroke-linecap="round"/><path d="M250.75775,175.17234c0,0 -1.48188,-0.53378 -2.41895,-2.15644c-0.14877,-0.25761 -2.18269,-1.83289 -2.18269,-1.83289" data-paper-data="{&quot;index&quot;:null}" fill="none" stroke="#979797" stroke-width="4" stroke-linecap="round"/><path d="M233.55023,197.12522c0,0 -0.50391,-2.02339 0.04468,-5.02248c0.40558,-2.21725 2.87647,-3.2585 2.87647,-3.2585c0,0 2.55519,-1.3394 3.81504,-1.29635c1.20975,0.04134 3.97407,1.24892 3.97407,1.24892c0,0 1.69205,1.41049 2.14829,3.81662c0.51205,2.70049 0.29547,4.16334 0.29547,4.16334" data-paper-data="{&quot;index&quot;:null}" fill="none" stroke="#000000" stroke-width="6.5" stroke-linecap="round"/><path d="M235.73555,202.69267c-0.60047,0 -2.57083,0 -3.89912,0c-0.73564,0 -1.27433,-0.53084 -1.27433,-0.96023c0,-0.87489 0,-3.9862 0,-3.9862h5.88495c0,0 0,3.22638 0,4.08369c0,0.39406 -0.36549,0.86275 -0.7115,0.86275z" data-paper-data="{&quot;index&quot;:null}" fill="#191919" stroke="#000000" stroke-width="1" stroke-linecap="butt"/><path d="M245.93773,168.45971c0.76844,0 1.34719,5.69487 1.20866,9.3592c-0.14388,3.80567 -1.52983,8.18849 -1.52983,8.18849c-0.72415,0.49768 -0.18172,-1.4082 -5.05992,-0.89752c-6.39067,-0.22121 -4.682,1.65702 -5.43495,0.51599c-0.19971,-0.60986 -1.00382,-3.9724 -1.09006,-7.62861c-0.08565,-3.63107 0.47003,-9.5735 1.53177,-9.5735c0.89462,0 1.90028,2.49322 5.50563,2.42654c4.25229,-0.07865 4.86871,-2.3906 4.86871,-2.3906z" data-paper-data="{&quot;index&quot;:null}" fill="#1e1e1e" stroke="#000000" stroke-width="1" stroke-linecap="butt"/><path d="M249.06888,202.69268c-0.60047,0 -2.57083,0 -3.89912,0c-0.73564,0 -1.27433,-0.53083 -1.27433,-0.96023c0,-0.87489 0,-3.98621 0,-3.98621h5.88495c0,0 0,3.22638 0,4.08369c0,0.39406 -0.36549,0.86275 -0.71149,0.86275z" data-paper-data="{&quot;index&quot;:null}" fill="#191919" stroke="#000000" stroke-width="1" stroke-linecap="butt"/><path d="M233.30261,162.29607c0.55069,-4.27654 5.09763,-5.51397 6.26781,-5.32045c0.74208,0.12273 1.25887,1.46149 2.58575,1.45c1.371,0.13927 1.70659,-1.52451 2.63834,-1.32753c2.31775,-0.04019 3.86223,3.50646 3.01573,6.90105c-0.02866,0.11492 0.01657,0.22965 -0.00729,0.33097c-1.15784,4.91432 -4.24312,7.28804 -8.24729,6.72635c-4.00417,-0.56168 -6.80376,-4.48384 -6.25306,-8.76039z" data-paper-data="{&quot;index&quot;:null}" fill="#979797" stroke="#000000" stroke-width="1" stroke-linecap="butt"/><path d="M242.81954,164.23665c0,-1.06567 0.86391,-1.92959 1.92958,-1.92959c1.06567,0 1.92959,0.86391 1.92959,1.92959c0,1.06567 -0.86391,1.92959 -1.92959,1.92959c-1.06567,0 -1.92958,-0.86391 -1.92958,-1.92959z" fill="#000000" stroke="none" stroke-width="0" stroke-linecap="butt"/><path d="M237.7718,164.71907c0,-1.06567 0.86391,-1.92959 1.92959,-1.92959c1.06567,0 1.92959,0.86391 1.92959,1.92959c0,1.06567 -0.86391,1.92959 -1.92959,1.92959c-1.06567,0 -1.92959,-0.86391 -1.92959,-1.92959z" fill="#000000" stroke="none" stroke-width="0" stroke-linecap="butt"/><path d="M237.31837,178.79421l3.32214,-3.32214l3.32214,3.32214l-3.32214,3.32214z" fill="#565656" stroke="#000000" stroke-width="1" stroke-linecap="butt"/><path d="M250.5649,162.70042c0,0 -4.97091,6.31887 -9.17981,8.8849c-3.67725,1.35646 -9.8874,0.68573 -9.8874,0.68573" fill="none" stroke="#000000" stroke-width="6" stroke-linecap="round"/><g fill="#1a1a1a" stroke="#000000" stroke-width="1" stroke-linecap="butt"><path d="M251.14616,161.50774c0.00256,1.44632 -4.53543,2.63396 -10.13585,2.65264c-5.60045,0.01868 -10.14256,-1.13865 -10.14512,-2.58498c-0.00256,-1.44632 4.53543,-2.63396 10.13585,-2.65264c5.60045,-0.01868 10.14256,1.13867 10.14512,2.58498z"/><path d="M234.58572,159.70867c0.12354,-0.42588 0.3854,-0.99491 0.52611,-1.591c0.16415,-0.69547 0.19875,-1.39196 0.19875,-1.39196c0,0 3.70078,-1.98833 6.17086,-1.99501c2.47007,-0.00669 5.56194,1.94798 5.56262,2.26761c0.00098,0.44905 0.08187,1.51798 0.34083,2.42909c0.22218,0.78163 -3.43049,3.10552 -6.86581,3.07893c-3.12785,-0.02422 -6.06532,-2.34277 -5.93339,-2.79766z"/></g><path d="M237.81373,175.88399l2.8887,-2.8887l2.8887,2.8887l-2.8887,2.8887z" fill="#565656" stroke="#000000" stroke-width="1" stroke-linecap="butt"/><path d="M247.01304,157.29648c0,0 5.79401,4.0809 6.41459,9.25802c-0.65274,4.12085 -2.63637,8.46586 -2.63637,8.46586" fill="none" stroke="#979797" stroke-width="4" stroke-linecap="round"/><path d="M250.5649,162.55757c0,0 -4.97091,6.31887 -9.17981,8.8849c-3.67725,1.35646 -9.8874,0.68573 -9.8874,0.68573" fill="none" stroke="#979797" stroke-width="4" stroke-linecap="round"/><path d="M243.75856,157.25009c0,-1.64197 1.33107,-2.97304 2.97304,-2.97304c1.64197,0 2.97305,1.33107 2.97305,2.97304c0,1.64197 -1.33108,2.97304 -2.97305,2.97304c-1.64197,0 -2.97304,-1.33108 -2.97304,-2.97304z" fill="#000000" stroke="none" stroke-width="0" stroke-linecap="butt"/><g data-paper-data="{&quot;index&quot;:null}"><path d="M244.19851,155.10112l-1.36218,-1.14413" data-paper-data="{&quot;index&quot;:null}" fill="none" stroke="#353535" stroke-width="0.75" stroke-linecap="round"/><path d="M232.59939,149.71082c0,0 -0.12897,-0.58266 -0.0451,-0.85012c0.09005,-0.28721 0.47783,-0.81511 0.47783,-0.81511" data-paper-data="{&quot;index&quot;:null}" fill="none" stroke="#000000" stroke-width="0.75" stroke-linecap="round"/><path d="M234.77778,149.94015c-0.22187,0.26413 -0.41623,0.92542 -0.99243,0.96751c-0.51419,0.03756 -1.68672,-0.39695 -1.94152,-0.61096c-0.08675,-0.07287 -0.94715,-1.37943 -0.75555,-1.68747c0.26301,-0.42289 1.00166,-1.07486 1.29095,-0.83188c0.54031,0.45382 2.81839,1.66297 2.39856,2.1628z" data-paper-data="{&quot;index&quot;:null}" fill="none" stroke="#000000" stroke-width="0.75" stroke-linecap="butt"/><path d="M256.98317,166.66745l1.86562,-2.22114" data-paper-data="{&quot;index&quot;:null}" fill="none" stroke="#000000" stroke-width="0.75" stroke-linecap="round"/><path d="M259.37776,167.2106c-2.88195,-2.42063 -17.69043,-14.85871 -17.69043,-14.85871l0.67049,-0.79828l19.54055,16.41268l-0.67049,0.79828c0,0 -0.91809,-0.77114 -1.8501,-1.55393z" data-paper-data="{&quot;index&quot;:null}" fill="#353535" stroke="#000000" stroke-width="0.5" stroke-linecap="butt"/><path d="M232.42878,147.86817l1.66074,-2.20553c0,0 1.44094,0.14834 1.96134,0.5059c0.77674,0.53371 4.36348,3.4736 6.31384,5.11562c0.12647,0.10648 -0.59151,0.99685 -0.47865,1.09254c0.62154,0.52702 0.97334,0.82759 0.97334,0.82759l-1.68668,2.00811z" data-paper-data="{&quot;index&quot;:null}" fill="#353535" stroke="#000000" stroke-width="0.75" stroke-linecap="butt"/><path d="M219.84183,144.24686l2.96649,-5.54587c0,0 3.68563,1.93647 5.85896,3.50169c0.3739,0.26928 0.12499,1.32031 0.42791,1.50228c1.62347,0.97528 5.09443,1.83322 5.09443,1.83322l-1.62694,2.14612c0,0 -1.18918,-0.31509 -1.9259,-0.22571c-0.07343,0.00892 -1.6148,0.72497 -2.03303,0.59489c-0.11055,-0.03438 -0.73,-0.55759 -0.92618,-0.72184c-0.27254,-0.22824 -0.73914,-0.69119 -0.89294,-0.74898c-0.25748,-0.09675 0.66486,-0.77252 0.39033,-0.86518c-2.72662,-0.92039 -7.39391,-1.21666 -7.39391,-1.21666z" data-paper-data="{&quot;index&quot;:null}" fill="#9a5e1f" stroke="#000000" stroke-width="0.75" stroke-linecap="butt"/><path d="M237.00385,146.79325l1.89832,0.08695l4.14759,3.48369l-0.74241,0.8839z" data-paper-data="{&quot;index&quot;:null}" fill="#353535" stroke="#000000" stroke-width="0.75" stroke-linecap="butt"/><path d="M236.28534,149.21695l1.4044,-1.67203l4.32237,3.6305l-1.4044,1.67203z" data-paper-data="{&quot;index&quot;:null}" fill="#8c8c8c" stroke="#000000" stroke-width="0.75" stroke-linecap="butt"/><path d="M239.22322,150.21487l1.75068,1.47045" data-paper-data="{&quot;index&quot;:null}" fill="none" stroke="#000000" stroke-width="0.75" stroke-linecap="round"/><path d="M241.59096,154.87133l0.63054,-0.75073c0,0 1.78392,1.47084 1.92255,1.58728c2.45166,2.05922 13.43247,11.28234 13.43247,11.28234l-0.64409,0.76685z" data-paper-data="{&quot;index&quot;:null}" fill="#353535" stroke="#000000" stroke-width="0.75" stroke-linecap="butt"/><path d="M234.35647,150.65085l0.60546,-0.72087l0.97833,0.82172l-0.60546,0.72087z" data-paper-data="{&quot;index&quot;:null}" fill="#353535" stroke="#000000" stroke-width="0.75" stroke-linecap="butt"/><path d="M244.46445,155.55639l0.29269,-0.34847" data-paper-data="{&quot;index&quot;:null}" fill="none" stroke="#000000" stroke-width="0.75" stroke-linecap="round"/><path d="M248.57577,161.3646c-1.46121,-1.22732 -5.50922,-4.62736 -5.50922,-4.62736l1.68653,-2.00793l7.90215,6.777l-1.30621,1.55514c0,0 -1.91855,-0.979 -2.77322,-1.69687z" data-paper-data="{&quot;index&quot;:null}" fill="#9a5e1f" stroke="#000000" stroke-width="0.75" stroke-linecap="butt"/></g><path d="M247.80336,162.79634c0,-1.53865 1.24734,-2.78599 2.78599,-2.78599c1.53865,0 2.78599,1.24734 2.78599,2.78599c0,1.53865 -1.24733,2.78599 -2.78599,2.78599c-1.53865,0 -2.78599,-1.24734 -2.78599,-2.78599z" fill="#000000" stroke="none" stroke-width="0" stroke-linecap="butt"/><path d="M239.06093,158.32451l1.87991,-1.87991l1.8799,1.87991l-1.8799,1.8799z" fill="#565656" stroke="#000000" stroke-width="1" stroke-linecap="butt"/></g></g></svg>