<svg version="1.1" xmlns="http://www.w3.org/2000/svg" xmlns:xlink="http://www.w3.org/1999/xlink" width="482.48048" height="363.44906" viewBox="0,0,482.48048,363.44906"><defs><linearGradient x1="245.68069" y1="130.25885" x2="245.54758" y2="151.07934" gradientUnits="userSpaceOnUse" id="color-1"><stop offset="0" stop-color="#000000"/><stop offset="1" stop-color="#000000"/></linearGradient><linearGradient x1="230.87122" y1="133.81672" x2="259.81885" y2="133.81672" gradientUnits="userSpaceOnUse" id="color-2"><stop offset="0" stop-color="#3f2e16"/><stop offset="1" stop-color="#523e22"/></linearGradient><linearGradient x1="235.86022" y1="129.64515" x2="254.15076" y2="129.64515" gradientUnits="userSpaceOnUse" id="color-3"><stop offset="0" stop-color="#3f2e16"/><stop offset="1" stop-color="#523e22"/></linearGradient><linearGradient x1="231.56837" y1="157.66216" x2="255.01743" y2="157.66216" gradientUnits="userSpaceOnUse" id="color-4"><stop offset="0" stop-color="#3f2e16"/><stop offset="1" stop-color="#523e22"/></linearGradient></defs><g transform="translate(1.24024,1.72453)"><g data-paper-data="{&quot;isPaintingLayer&quot;:true}" fill-rule="nonzero" stroke-linejoin="miter" stroke-miterlimit="10" stroke-dasharray="" stroke-dashoffset="0" style="mix-blend-mode: normal"><path d="M-0.24024,360.72453v-361.44906h480.48048v361.44906z" fill="#3e3e3e" stroke="#000000" stroke-width="2" stroke-linecap="butt"/><text transform="translate(32.65949,88.38925) scale(1.96863,1.96863)" font-size="40" xml:space="preserve" fill="#000000" fill-rule="nonzero" stroke="#000000" stroke-width="2" stroke-linecap="butt" stroke-linejoin="miter" stroke-miterlimit="10" stroke-dasharray="" stroke-dashoffset="0" font-family="Handwriting" font-weight="normal" text-anchor="start" style="mix-blend-mode: normal"><tspan x="0" dy="0">Double Jump</tspan></text><text transform="translate(101.48319,283.82079) scale(0.61193,0.61193)" font-size="40" xml:space="preserve" fill="#000000" fill-rule="nonzero" stroke="#000000" stroke-width="3" stroke-linecap="butt" stroke-linejoin="miter" stroke-miterlimit="10" stroke-dasharray="" stroke-dashoffset="0" font-family="Handwriting" font-weight="normal" text-anchor="start" style="mix-blend-mode: normal"><tspan x="0" dy="0">Now you can do double-jump,</tspan><tspan x="0" dy="48px">jump again in the air to do so.</tspan></text><path d="M258.62174,186.43142c0,3.10143 -8.6221,5.61565 -19.258,5.61565c-10.63589,0 -19.258,-2.51422 -19.258,-5.61565c0,-3.10143 8.6221,-5.61564 19.258,-5.61564c10.63589,0 19.258,2.51421 19.258,5.61564z" fill="#56442b" stroke="none" stroke-width="0" stroke-linecap="butt"/><path d="M234.55344,141.6481c0.04042,-6.32367 5.02228,-11.42274 11.1273,-11.38917c6.10498,0.03356 11.02129,5.1871 10.98087,11.51073c-0.04042,6.32367 -4.3394,10.29453 -10.44437,10.26098c-6.10498,-0.03356 -11.70415,-4.05887 -11.66373,-10.38251z" fill="#000000" stroke="url(#color-1)" stroke-width="0.5" stroke-linecap="butt"/><path d="M243.96944,142.19218c0.25919,-2.0375 1.69551,-3.45772 3.20812,-3.17216c1.5126,0.28557 2.52867,2.16876 2.26951,4.20626c-0.25919,2.0375 -1.69553,3.45772 -3.20812,3.17217c-1.5126,-0.28557 -2.52867,-2.16876 -2.26951,-4.20626z" fill="#ffffff" stroke="none" stroke-width="0" stroke-linecap="butt"/><path d="M250.46522,141.90679c0.23888,-2.0377 1.5558,-3.45886 2.94141,-3.17438c1.38564,0.2845 2.31519,2.16697 2.07628,4.20464c-0.23888,2.0377 -1.55582,3.45885 -2.94143,3.17438c-1.38564,-0.2845 -2.31519,-2.16696 -2.07629,-4.20462z" fill="#ffffff" stroke="none" stroke-width="0" stroke-linecap="butt"/><path d="M259.81884,133.86896c-0.01069,2.06435 -6.49951,3.71447 -14.49314,3.68562c-7.99368,-0.02886 -14.46516,-1.72573 -14.45446,-3.7901c0.01069,-2.06435 6.49952,-3.71447 14.49314,-3.68562c7.99368,0.02886 14.46514,1.72576 14.45446,3.7901z" fill="url(#color-2)" stroke="#000000" stroke-width="1" stroke-linecap="butt"/><path d="M235.8667,131.13701c0.18056,-0.60663 0.55994,-1.41623 0.76668,-2.26563c0.24119,-0.99101 0.29748,-1.98477 0.29748,-1.98477c0,0 5.30182,-2.80125 8.82742,-2.78629c3.52559,0.01494 7.91923,2.83548 7.91702,3.29171c-0.00305,0.64093 0.10181,2.1674 0.46238,3.47041c0.30937,1.11783 -4.9271,4.39849 -9.83007,4.32648c-4.46412,-0.06557 -8.63378,-3.40395 -8.44096,-4.05191z" fill="url(#color-3)" stroke="#000000" stroke-width="1" stroke-linecap="butt"/><path d="M249.37151,161.75871c0,0 -0.44025,3.51064 -0.98532,5.27119c-0.33613,1.08569 0.00232,2.67817 -0.36637,4.32407c-0.22718,1.01429 -1.57946,2.73065 -1.57946,2.73065" fill="none" stroke="#000000" stroke-width="3" stroke-linecap="round"/><path d="M241.31249,162.42913c0,0 -0.67347,3.4831 -1.25735,5.22999c-0.26109,0.78108 0.02364,2.30891 -0.42997,3.93976c-0.26323,0.94642 -1.54864,2.23861 -1.54864,2.23861" fill="none" stroke="#000000" stroke-width="3" stroke-linecap="round"/><path d="M231.82776,165.50453c0.18034,-0.48973 -0.27503,-2.36424 0.38952,-3.24228c0.75393,-0.99611 1.42743,-1.63596 1.63653,-2.25057c0.12845,-0.37746 -0.23582,-1.25494 -0.25495,-1.63486c-0.0471,-0.9351 0.68563,-0.99368 1.00862,-1.87367c0.24198,-0.65927 -0.03841,-1.73716 0.37191,-2.21109c0.70686,-0.81649 1.08304,-1.42141 1.27461,-2.01078c0.22653,-0.69697 -0.12796,-1.12696 -0.31624,-1.82941c-0.27772,-1.03611 -0.33034,-3.39756 -0.33034,-3.39756c0,0 6.61459,4.11289 10.06049,4.14921c3.53029,0.0372 8.19693,-2.99124 8.19693,-2.99124c0,0 0.31002,2.50148 0.23281,3.43247c0.31156,1.16175 0.66425,2.25256 0.89963,2.98656c0.19569,0.61026 -1.10351,2.39646 -0.87495,3.04821c0.11897,0.33923 0.98109,1.01957 0.71769,2.09663c-0.27238,1.11379 -1.24362,2.2165 -1.38933,2.7325c-0.11216,0.3972 0.27869,2.17238 0.24189,3.04681c-0.0679,1.61422 -1.4612,1.13618 -1.4612,1.13618c0,0 0.24728,0.00103 -2.54362,-0.17815c-1.69618,-0.10892 -4.62376,1.39788 -6.43196,0.76642c-4.04812,-1.41363 -5.66502,-0.07502 -7.31484,-0.08431c-2.07464,-0.01165 -2.80159,1.07444 -2.80159,1.07444c0,0 -2.33487,0.01315 -1.31166,-2.76552z" fill="url(#color-4)" stroke="#000000" stroke-width="1" stroke-linecap="butt"/><path d="M248.30055,151.67931c0,0 -0.26991,1.276 -0.27379,2.32162c-0.00137,0.36605 0.30596,1.45081 0.40366,2.07073c0.08707,0.55252 -0.03989,1.24673 -0.0221,1.92411c0.00871,0.33018 -0.58215,0.85944 -0.60837,1.35838c-0.03693,0.7027 0.48484,1.40317 0.48773,1.90658c0.00258,0.44731 -0.59802,1.05003 -0.41134,1.89037c0.18196,0.8191 0.65372,1.62227 0.68368,2.00673c0.17171,2.20246 -0.53378,1.56244 -0.53378,1.56244" fill="none" stroke="#000000" stroke-width="1" stroke-linecap="round"/><path d="M247.28925,153.62067c0.00303,-0.43437 0.36718,-0.78398 0.81335,-0.78088c0.44617,0.0031 0.80541,0.35773 0.80242,0.7921c-0.00303,0.43437 -0.36717,0.78398 -0.81332,0.78088c-0.44617,-0.0031 -0.80543,-0.35773 -0.80243,-0.7921z" fill="#000000" stroke="#000000" stroke-width="0.5" stroke-linecap="butt"/><path d="M247.46461,156.71888c0.00303,-0.43437 0.36717,-0.78398 0.81334,-0.78088c0.44617,0.0031 0.80543,0.35773 0.80243,0.7921c-0.00303,0.43437 -0.36717,0.78398 -0.81334,0.78088c-0.44617,-0.0031 -0.80543,-0.35773 -0.80243,-0.7921z" fill="#000000" stroke="#000000" stroke-width="0.5" stroke-linecap="butt"/><path d="M247.1484,159.99149c0.00303,-0.43437 0.36717,-0.78398 0.81332,-0.78088c0.44617,0.0031 0.80543,0.35773 0.80243,0.79211c-0.00303,0.43437 -0.36718,0.78396 -0.81335,0.78088c-0.44617,-0.0031 -0.80541,-0.35773 -0.80242,-0.7921z" fill="#000000" stroke="#000000" stroke-width="0.5" stroke-linecap="butt"/><path d="M247.12227,163.80009c0.00303,-0.43437 0.36715,-0.78398 0.81332,-0.78088c0.44617,0.0031 0.80543,0.35773 0.80243,0.79211c-0.00303,0.43437 -0.36718,0.78398 -0.81335,0.78088c-0.44617,-0.0031 -0.8054,-0.35775 -0.8024,-0.79211z" fill="#000000" stroke="#000000" stroke-width="0.5" stroke-linecap="butt"/><text transform="translate(185.65038,343.9955) scale(0.5,0.5)" font-size="40" xml:space="preserve" fill="#000000" fill-rule="nonzero" stroke="#000000" stroke-width="2" stroke-linecap="butt" stroke-linejoin="miter" stroke-miterlimit="10" stroke-dasharray="" stroke-dashoffset="0" font-family="Handwriting" font-weight="normal" text-anchor="start" style="mix-blend-mode: normal"><tspan x="0" dy="0">Press E to close</tspan></text><path d="M254.09134,182.514c0,2.26935 -6.3089,4.10905 -14.09133,4.10905c-7.78242,0 -14.09133,-1.83969 -14.09133,-4.10905c0,-2.26935 6.3089,-4.10904 14.09133,-4.10904c7.78242,0 14.09133,1.83968 14.09133,4.10904z" fill="#413421" stroke="none" stroke-width="0" stroke-linecap="butt"/></g></g></svg>