<svg version="1.1" xmlns="http://www.w3.org/2000/svg" xmlns:xlink="http://www.w3.org/1999/xlink" width="118.24962" height="106.88263" viewBox="0,0,118.24962,106.88263"><defs><linearGradient x1="229.35753" y1="152.83149" x2="223.31057" y2="162.87762" gradientUnits="userSpaceOnUse" id="color-1"><stop offset="0" stop-color="#838383"/><stop offset="1" stop-color="#000000"/></linearGradient><linearGradient x1="229.36012" y1="137.08917" x2="225.5769" y2="143.3744" gradientUnits="userSpaceOnUse" id="color-2"><stop offset="0" stop-color="#838383"/><stop offset="1" stop-color="#2c2c2c"/></linearGradient><linearGradient x1="222.48257" y1="140.6512" x2="220.11613" y2="144.58265" gradientUnits="userSpaceOnUse" id="color-3"><stop offset="0" stop-color="#838383"/><stop offset="1" stop-color="#2c2c2c"/></linearGradient><linearGradient x1="217.02251" y1="107.21485" x2="226.59037" y2="129.3423" gradientUnits="userSpaceOnUse" id="color-4"><stop offset="0" stop-color="#cca670"/><stop offset="1" stop-color="#907751"/></linearGradient><linearGradient x1="214.53499" y1="123.78325" x2="220.0043" y2="120.80225" gradientUnits="userSpaceOnUse" id="color-5"><stop offset="0" stop-color="#dadada"/><stop offset="1" stop-color="#898989"/></linearGradient><linearGradient x1="223.66463" y1="118.68184" x2="229.13393" y2="115.70084" gradientUnits="userSpaceOnUse" id="color-6"><stop offset="0" stop-color="#dadada"/><stop offset="1" stop-color="#898989"/></linearGradient><linearGradient x1="224.59182" y1="122.27895" x2="227.9222" y2="129.22336" gradientUnits="userSpaceOnUse" id="color-7"><stop offset="0" stop-color="#272727"/><stop offset="1" stop-color="#000000"/></linearGradient><linearGradient x1="250.35406" y1="141.90469" x2="222.70754" y2="153.85893" gradientUnits="userSpaceOnUse" id="color-8"><stop offset="0" stop-color="#202020"/><stop offset="1" stop-color="#000000"/></linearGradient><linearGradient x1="229.24373" y1="154.77058" x2="233.24865" y2="164.03269" gradientUnits="userSpaceOnUse" id="color-9"><stop offset="0" stop-color="#696969"/><stop offset="1" stop-color="#272727"/></linearGradient><linearGradient x1="246.46931" y1="147.04995" x2="250.47419" y2="156.31208" gradientUnits="userSpaceOnUse" id="color-10"><stop offset="0" stop-color="#696969"/><stop offset="1" stop-color="#272727"/></linearGradient><linearGradient x1="226.47401" y1="142.7628" x2="229.37056" y2="149.46159" gradientUnits="userSpaceOnUse" id="color-11"><stop offset="0" stop-color="#696969"/><stop offset="1" stop-color="#272727"/></linearGradient><radialGradient cx="227.72079" cy="110.63305" r="5.19534" gradientUnits="userSpaceOnUse" id="color-12"><stop offset="0" stop-color="#00059e"/><stop offset="1" stop-color="#1f5cff"/></radialGradient><radialGradient cx="219.73069" cy="119.06155" r="5.19534" gradientUnits="userSpaceOnUse" id="color-13"><stop offset="0" stop-color="#00059e"/><stop offset="1" stop-color="#1f5cff"/></radialGradient><radialGradient cx="219.65448" cy="119.11408" r="7.2184" gradientUnits="userSpaceOnUse" id="color-14"><stop offset="0" stop-color="#0015ff"/><stop offset="1" stop-color="#0015ff" stop-opacity="0"/></radialGradient><radialGradient cx="227.68903" cy="110.74141" r="6.6881" gradientUnits="userSpaceOnUse" id="color-15"><stop offset="0" stop-color="#0021ff"/><stop offset="1" stop-color="#0021ff" stop-opacity="0"/></radialGradient><linearGradient x1="259.4359" y1="135.01203" x2="262.49302" y2="142.08234" gradientUnits="userSpaceOnUse" id="color-16"><stop offset="0" stop-color="#2c2c2c"/><stop offset="1" stop-color="#464646"/></linearGradient><linearGradient x1="260.47341" y1="144.93619" x2="267.80698" y2="152.72504" gradientUnits="userSpaceOnUse" id="color-17"><stop offset="0" stop-color="#000000" stop-opacity="0"/><stop offset="1" stop-color="#000000" stop-opacity="0"/></linearGradient><linearGradient x1="237.91389" y1="150.88546" x2="241.91879" y2="160.14757" gradientUnits="userSpaceOnUse" id="color-18"><stop offset="0" stop-color="#696969"/><stop offset="1" stop-color="#272727"/></linearGradient><linearGradient x1="222.02873" y1="164.42559" x2="219.735" y2="161.34231" gradientUnits="userSpaceOnUse" id="color-19"><stop offset="0" stop-color="#271100"/><stop offset="1" stop-color="#613700"/></linearGradient><linearGradient x1="190.75502" y1="190.4441" x2="186.13999" y2="184.283" gradientUnits="userSpaceOnUse" id="color-20"><stop offset="0" stop-color="#ffffff"/><stop offset="1" stop-color="#323232"/></linearGradient><linearGradient x1="216.38739" y1="158.80147" x2="223.55224" y2="166.74588" gradientUnits="userSpaceOnUse" id="color-21"><stop offset="0" stop-color="#000000" stop-opacity="0"/><stop offset="1" stop-color="#000000" stop-opacity="0"/></linearGradient></defs><g transform="translate(-158.59244,-98.65239)"><g data-paper-data="{&quot;isPaintingLayer&quot;:true}" fill-rule="nonzero" stroke-linejoin="miter" stroke-miterlimit="10" stroke-dasharray="" stroke-dashoffset="0" style="mix-blend-mode: normal"><path d="M247.00509,157.54931l7.23433,2.7674l8.97622,13.22853" data-paper-data="{&quot;index&quot;:null}" fill="none" stroke="#131313" stroke-width="13" stroke-linecap="round"/><path d="M239.97491,183.54054l-2.95608,-15.15131l2.92294,-7.15153" data-paper-data="{&quot;index&quot;:null}" fill="none" stroke="#131313" stroke-width="13" stroke-linecap="round"/><path d="M255.08559,173.8779l-2.58309,-4.15438l12.43108,-5.77128l2.48933,4.19077z" data-paper-data="{&quot;index&quot;:null}" fill="#000000" stroke="none" stroke-width="0" stroke-linecap="butt"/><path d="M257.08678,173.41985c-1.13175,-1.61156 -2.8129,-4.19582 -3.50605,-5.19735c-0.54261,-0.78401 -0.0626,-2.17194 1.07263,-2.7516c0.84854,-0.43327 2.52154,-1.36597 3.92662,-2.12439c1.07783,-0.58177 2.60811,-0.27079 3.07343,0.40155c0.6692,0.96691 2.55852,3.69676 3.73956,5.40323c0.58722,0.84847 0.12842,1.88731 -0.98311,2.45334c-1.49831,0.76298 -3.4338,1.74883 -4.26265,2.17204c-0.69404,0.35438 -2.50065,0.44023 -3.06041,-0.35684z" data-paper-data="{&quot;index&quot;:null}" fill="#000000" stroke="none" stroke-width="NaN" stroke-linecap="butt"/><path d="M232.49968,182.24248l-0.97893,-4.77693l13.24603,-4.19344l0.88387,4.81382z" data-paper-data="{&quot;index&quot;:null}" fill="#000000" stroke="none" stroke-width="0" stroke-linecap="butt"/><path d="M243.70413,179.41355c0.1942,0.9534 -1.106,2.20885 -1.83849,2.47089c-0.87477,0.31295 -2.91573,1.04541 -4.49555,1.61256c-1.17201,0.42073 -2.23947,0.04262 -2.45214,-0.966c-0.42771,-2.02856 -1.11194,-5.27362 -1.35429,-6.42302c-0.16851,-0.79922 0.6547,-2.12557 1.81501,-2.511c1.5126,-0.50245 3.33518,-1.08037 4.23074,-1.40074c1.19812,-0.42863 2.53317,0.17325 2.72968,1.10525c0.25102,1.19054 0.97235,4.18442 1.36505,6.11207z" data-paper-data="{&quot;index&quot;:null}" fill="#000000" stroke="none" stroke-width="NaN" stroke-linecap="butt"/><path d="M234.34326,199.10236c-0.0816,-0.92228 -0.25655,-2.89964 -0.39878,-4.50724c-0.11862,-1.34062 0.5333,-2.49022 1.23582,-2.55238c1.86692,-0.16518 10.24228,-0.9062 10.24228,-0.9062c0,0 0.54732,1.06228 1.28536,2.33283c0.4785,0.82374 0.5016,3.30902 0.26282,4.32909c-0.39529,1.68878 -0.7305,2.57982 -0.7305,2.57982c0,0 -8.51382,0.75328 -10.34346,0.91515c-0.66078,0.05846 -1.46717,-1.21456 -1.55356,-2.19105z" data-paper-data="{&quot;index&quot;:null}" fill="#000000" stroke="none" stroke-width="0" stroke-linecap="butt"/><path d="M236.13332,194.18296l-2.66262,-8.98201c0,0 4.46557,1.38143 6.1921,1.24756c1.8031,-0.1398 6.34611,-2.24091 6.34611,-2.24091l-1.71446,9.0213z" data-paper-data="{&quot;index&quot;:null}" fill="#000000" stroke="none" stroke-width="0" stroke-linecap="butt"/><path d="M262.47249,191.65071c-0.39141,-0.86863 -1.23063,-2.73101 -1.91291,-4.24513c-0.56897,-1.26265 -0.3651,-2.58217 0.25842,-2.86313c1.65697,-0.74666 9.09054,-4.09632 9.09054,-4.09632c0,0 0.86697,0.85807 1.98045,1.8582c0.72193,0.6484 1.59605,3.05099 1.72697,4.11511c0.21674,1.76169 0.21486,2.73099 0.21486,2.73099c0,0 -7.55642,3.40502 -9.18031,4.13677c-0.58648,0.26427 -1.76356,-0.71679 -2.178,-1.6365z" data-paper-data="{&quot;index&quot;:null}" fill="#000000" stroke="none" stroke-width="0" stroke-linecap="butt"/><path d="M263.70704,186.92649l-6.74184,-8.48035c0,0 4.79177,-0.21278 6.37901,-0.90524c1.65762,-0.72317 5.01594,-4.48973 5.01594,-4.48973l2.87109,10.38594z" data-paper-data="{&quot;index&quot;:null}" fill="#000000" stroke="none" stroke-width="0" stroke-linecap="butt"/><g data-paper-data="{&quot;index&quot;:null}"><path d="M225.03227,144.87153c0,0 1.24407,-2.06683 1.67653,-2.78532c0.29391,-0.48828 1.20407,-0.78532 1.72838,-0.46972c0.75411,0.45392 2.81276,1.69306 4.02133,2.42053c0.50179,0.30203 0.48611,1.34132 0.17242,1.86249c-0.43016,0.71465 -1.56668,2.6028 -1.56668,2.6028z" fill="#282828" stroke="none" stroke-width="0" stroke-linecap="butt"/><path d="M214.76101,145.76605l2.00546,-3.33176l3.48942,2.10035l-2.00546,3.33176z" fill="#505050" stroke="none" stroke-width="0" stroke-linecap="butt"/><path d="M217.66335,140.52597c0,0 1.31193,-2.17956 1.75081,-2.90868c0.25569,-0.4248 1.32022,-0.66385 1.82994,-0.35706c0.70563,0.42473 2.56262,1.54251 3.7823,2.27665c0.62837,0.37823 0.74032,1.32543 0.48461,1.75025c-0.43887,0.72912 -1.7508,2.90869 -1.7508,2.90869z" fill="#282828" stroke="#000000" stroke-width="0.5" stroke-linecap="butt"/><path d="M219.18272,142.69921l1.35064,-2.24387l2.07551,1.2493l-1.35064,2.24387z" fill="#000000" stroke="none" stroke-width="0" stroke-linecap="butt"/><path d="M233.91247,140.13257c-0.65995,0.18927 -1.37028,0.19846 -2.05049,0.00751" fill="none" stroke="#ff9319" stroke-width="3" stroke-linecap="butt"/><path d="M229.27826,140.52345c-0.54471,-0.61539 -1.0268,-1.2436 -1.44091,-1.87167" fill="none" stroke="#000000" stroke-width="3" stroke-linecap="butt"/><path d="M222.01198,162.09599c0,0 0.03305,-2.09492 -0.06345,-4.14169c-0.07407,-1.5712 0.42078,-3.30303 0.512,-3.72805c0.15541,-0.724 4.028,-8.47096 4.028,-8.47096c0,0 5.44356,3.49067 6.55735,4.0023c0.36117,0.16591 -1.76119,4.23396 -1.76119,4.23396c0,0 -0.83025,1.99727 -0.97838,2.90932c-0.06577,0.40486 -0.49422,1.48936 -0.42216,2.39486c0.14157,1.7792 -0.03222,4.34346 -0.03222,4.34346z" fill="url(#color-1)" stroke="#000000" stroke-width="1.5" stroke-linecap="butt"/><path d="M219.43918,131.41449l0.73829,-1.22655l18.53044,11.15391l-0.73829,1.22655z" fill="#888888" stroke="#000000" stroke-width="0.5" stroke-linecap="butt"/><path d="M269.87537,167.34814l-16.64986,-10.05698l1.35975,-2.259l16.76919,10.09378z" fill="#888888" stroke="#000000" stroke-width="1.5" stroke-linecap="round"/><path d="M215.56624,137.34874l3.78322,-6.28521l20.02134,12.05133l-3.78322,6.28522z" fill="url(#color-2)" stroke="#000000" stroke-width="1" stroke-linecap="butt"/><path d="M226.57673,146.01194l1.35583,-2.46594l6.99044,4.20771l-1.638,2.22093z" fill="#767676" stroke="#000000" stroke-width="1.5" stroke-linecap="butt"/><path d="M216.72761,142.4124c0,0 0.78669,-0.70516 0.31649,-1.61673c-0.45081,-0.87399 -2.07742,-1.37477 -1.89192,-1.68292c0.40778,-0.67744 1.2698,-2.10957 1.2698,-2.10957l12.12116,7.29602l-2.36644,3.93147z" fill="url(#color-3)" stroke="#000000" stroke-width="1" stroke-linecap="butt"/><path d="M218.60594,147.83811l1.88514,-3.13185l5.06885,3.05106c0,0 -0.85522,1.42079 -1.19949,1.99276c-0.2603,0.43244 -1.72536,0.51326 -2.38886,0.11388c-0.93267,-0.5614 -3.36564,-2.02587 -3.36564,-2.02587z" fill="none" stroke="#000000" stroke-width="2" stroke-linecap="butt"/><path d="M227.9067,142.712l1.60437,-2.66539l6.9054,4.15653l-1.60437,2.6654z" fill="#000000" stroke="none" stroke-width="0" stroke-linecap="butt"/><path d="M223.93181,145.65786l1.28349,-2.13232l1.98347,1.19389l-1.28349,2.13232z" fill="none" stroke="#000000" stroke-width="1" stroke-linecap="butt"/><path d="M226.28153,145.61981c-0.24367,0.40481 -0.75777,0.54244 -1.14827,0.30738c-0.3905,-0.23506 -0.50955,-0.75377 -0.26586,-1.15859c0.24367,-0.40481 0.75775,-0.54245 1.14827,-0.30738c0.3905,0.23506 0.50955,0.75378 0.26586,1.15859z" fill="#9e9e9e" stroke="none" stroke-width="0" stroke-linecap="butt"/><path d="M219.71699,133.01119l18.00484,10.65599" fill="none" stroke="#000000" stroke-width="1" stroke-linecap="round"/><path d="M221.32115,142.67945c-0.29904,0.49681 -1.01839,0.6125 -1.60667,0.25842c-0.58829,-0.35411 -0.82277,-1.0439 -0.52371,-1.54073c0.29904,-0.49681 1.01837,-0.61251 1.60665,-0.2584c0.58829,0.35411 0.82277,1.0439 0.52371,1.54074z" fill="#858585" stroke="none" stroke-width="0" stroke-linecap="butt"/><path d="M217.74333,136.48627l1.44395,-2.39887l6.61154,3.97964c0,0 0.83395,1.60728 0.60034,1.99536c-0.24695,0.41029 -2.04427,0.40351 -2.04427,0.40351z" fill="#c7c7c7" stroke="#000000" stroke-width="1" stroke-linecap="butt"/><path d="M217.41796,136.01562l1.16318,-1.93241l0.73462,0.44219l-1.16318,1.93241z" fill="#888888" stroke="#000000" stroke-width="1" stroke-linecap="butt"/><path d="M221.75413,145.61799l1.54269,0.92859c0,0 -0.7688,0.61222 -1.01581,1.02257c-0.26035,0.43255 -0.50834,1.50957 -0.50834,1.50957c0,0 -0.90149,-1.37773 -0.90463,-1.96385c-0.00304,-0.56683 0.88609,-1.49689 0.88609,-1.49689z" fill="#5b5b5b" stroke="none" stroke-width="0" stroke-linecap="butt"/><path d="M236.38632,148.63053l2.67648,-4.44655l1.21444,0.731l-2.67648,4.44655z" fill="#5b5b5b" stroke="#000000" stroke-width="1.5" stroke-linecap="butt"/><path d="M269.56646,167.75648l1.83025,-3.04068l4.07287,2.45157l-1.83025,3.04066z" fill="#393939" stroke="#000000" stroke-width="2" stroke-linecap="butt"/><path d="M253.06583,159.01772l2.16331,-3.59398l1.42511,0.85781l-2.16331,3.59398z" fill="#000000" stroke="#000000" stroke-width="0.5" stroke-linecap="butt"/><path d="M256.07209,160.87719l5.33291,-8.85981l1.42511,0.85781l-5.33291,8.85981z" fill="#000000" stroke="#000000" stroke-width="0.5" stroke-linecap="butt"/><path d="M255.87847,154.54741l4.38476,2.6817l-0.61961,0.97274l-4.38476,-2.6817z" fill="#000000" stroke="#000000" stroke-width="0.5" stroke-linecap="butt"/><path d="M255.7938,154.43567l5.27393,-1.99431l-0.66705,1.28667l-3.19057,1.56011z" fill="#000000" stroke="#000000" stroke-width="0.5" stroke-linecap="butt"/><path d="M218.71852,131.01377l0.62786,-1.04309l2.97069,1.78814l-0.62785,1.04309z" fill="#000000" stroke="none" stroke-width="0" stroke-linecap="butt"/><path d="M237.38404,149.9884l3.20332,-5.32177l15.59384,9.38632l-3.20331,5.32178z" fill="#4d4d4d" stroke="#000000" stroke-width="1.5" stroke-linecap="butt"/><path d="M214.61713,136.24432l3.47952,-5.78069l1.66767,1.0038l-3.47954,5.78068z" fill="#222222" stroke="#000000" stroke-width="1" stroke-linecap="butt"/><path d="M191.34067,130.88116c0.56103,-0.9737 6.40734,-12.21184 6.40734,-12.21184l18.64361,10.97857l-3.00279,4.98863c0,0 -6.11265,-4.94752 -12.31378,-6.3403c-2.35865,-0.52976 -7.54114,3.93386 -8.42197,3.67788c-0.33191,-0.09644 -1.3213,-1.07758 -1.31242,-1.09297z" fill="#3a3a3a" stroke="#000000" stroke-width="1.5" stroke-linecap="butt"/><path d="M196.48539,131.94192c0.37763,-0.65006 4.15139,-7.07043 4.15139,-7.07043l10.1694,5.95833l-2.29593,3.47426c0,0 -3.23775,-2.05468 -6.19739,-3.50849c-1.49349,0.62477 -4.58547,2.16117 -5.08035,2.04676c-0.18648,-0.04312 -0.7531,-0.89013 -0.74711,-0.90041z" fill="#303030" stroke="#000000" stroke-width="1.5" stroke-linecap="butt"/><path d="M220.47335,130.48982l1.09378,-1.81714l5.05831,3.04472l-1.09379,1.81713z" fill="#888888" stroke="#000000" stroke-width="1" stroke-linecap="butt"/><path d="M222.77522,130.92676c-0.22754,0.37799 -0.74981,0.4811 -1.16653,0.23025c-0.41672,-0.25084 -0.57009,-0.76061 -0.34257,-1.13862c0.22754,-0.37799 0.7498,-0.48109 1.16652,-0.23025c0.41672,0.25084 0.57009,0.7606 0.34257,1.13862z" fill="#575757" stroke="#000000" stroke-width="1" stroke-linecap="butt"/><path d="M222.892,129.53205l1.1758,-1.95342l0.68562,0.41269l-1.1758,1.95342z" fill="#575757" stroke="#000000" stroke-width="1" stroke-linecap="butt"/><path d="M225.56803,133.46299l0.28387,-0.47159l1.2175,0.73285l-0.28387,0.47159z" fill="#575757" stroke="#000000" stroke-width="0.5" stroke-linecap="butt"/><path d="M227.49802,134.55843l0.28387,-0.47159l1.2175,0.73285l-0.28387,0.47159z" fill="#575757" stroke="#000000" stroke-width="0.5" stroke-linecap="butt"/><path d="M229.59143,135.87246l0.28387,-0.47159l1.2175,0.73286l-0.28387,0.47158z" fill="#575757" stroke="#000000" stroke-width="0.5" stroke-linecap="butt"/><path d="M231.4976,137.0075l0.28387,-0.47159l1.2175,0.73285l-0.28387,0.47159z" fill="#575757" stroke="#000000" stroke-width="0.5" stroke-linecap="butt"/><path d="M233.37386,138.13687l0.28387,-0.47159l1.2175,0.73285l-0.28387,0.47159z" fill="#575757" stroke="#000000" stroke-width="0.5" stroke-linecap="butt"/><path d="M235.27997,139.27193l0.28387,-0.47158l1.2175,0.73285l-0.28387,0.47158z" fill="#575757" stroke="#000000" stroke-width="0.5" stroke-linecap="butt"/><path d="M237.18123,140.43759l0.28387,-0.47158l1.2175,0.73285l-0.28387,0.47158z" fill="#575757" stroke="#000000" stroke-width="0.5" stroke-linecap="butt"/><path d="M228.16516,149.73921l1.66843,-2.77183l1.48492,0.8938l-1.66843,2.77183z" fill="#585858" stroke="#000000" stroke-width="1.5" stroke-linecap="butt"/><path d="M213.4953,134.553l2.69908,-4.48408l2.02503,1.21893l-2.69908,4.48408z" fill="#c7c7c7" stroke="#000000" stroke-width="1" stroke-linecap="butt"/><path d="M206.559,148.46006l10.3288,-5.99549c0,0 2.51148,1.43282 3.10261,2.0685c0.58592,0.63011 -1.31011,3.1236 -1.31011,3.1236l-8.45552,5.02793z" fill="#262626" stroke="#000000" stroke-width="2" stroke-linecap="butt"/></g><path d="M218.70575,132.61379c-3.72352,1.13227 -12.09729,-14.4956 -10.97999,-17.65734c1.28141,-3.62615 7.50921,-8.28601 14.27921,-8.85131c5.68685,-0.47485 9.21166,3.75328 11.20372,7.86018c1.67496,3.45312 5.1114,7.57788 2.97742,10.6736c-7.1635,3.45917 -10.01092,5.10362 -17.48035,7.97485z" data-paper-data="{&quot;index&quot;:null}" fill="url(#color-4)" stroke="none" stroke-width="0" stroke-linecap="butt"/><path d="M216.00311,119.96903c1.51031,-0.82319 3.3017,-0.45013 4.00119,0.83323c0.69948,1.28336 0.04219,2.99105 -1.46813,3.81423c-1.51031,0.82319 -3.3017,0.45013 -4.00119,-0.83323c-0.69948,-1.28336 -0.04219,-2.99105 1.46813,-3.81423z" data-paper-data="{&quot;index&quot;:null}" fill="url(#color-5)" stroke="none" stroke-width="0" stroke-linecap="butt"/><path d="M216.50352,123.1491c-0.43643,-0.80072 -0.1411,-1.80364 0.65961,-2.24006c0.80072,-0.43643 1.80364,-0.1411 2.24006,0.65961c0.43643,0.80072 0.14111,1.80364 -0.65961,2.24006c-0.80072,0.43643 -1.80364,0.1411 -2.24006,-0.65961z" data-paper-data="{&quot;index&quot;:null}" fill="#000000" stroke="none" stroke-width="0" stroke-linecap="butt"/><path d="M212.77051,120.67044c0,0 1.61783,-1.38325 2.49564,-1.86169c0.89392,-0.48723 2.82043,-1.03579 2.82043,-1.03579" data-paper-data="{&quot;index&quot;:null}" fill="none" stroke="#000000" stroke-width="2.5" stroke-linecap="round"/><path d="M222.19014,115.41098c0,0 1.61782,-1.38327 2.49564,-1.86169c0.89392,-0.48723 2.82043,-1.03579 2.82043,-1.03579" data-paper-data="{&quot;index&quot;:null}" fill="none" stroke="#000000" stroke-width="2.5" stroke-linecap="round"/><path d="M225.13276,114.86761c1.51031,-0.82319 3.3017,-0.45013 4.00119,0.83323c0.69948,1.28336 0.04219,2.99104 -1.46813,3.81423c-1.51031,0.82319 -3.3017,0.45013 -4.00118,-0.83322c-0.69948,-1.28336 -0.04219,-2.99105 1.46813,-3.81423z" data-paper-data="{&quot;index&quot;:null}" fill="url(#color-6)" stroke="none" stroke-width="0" stroke-linecap="butt"/><path d="M225.63318,118.04771c-0.43643,-0.80072 -0.14111,-1.80364 0.65961,-2.24006c0.80072,-0.43643 1.80364,-0.1411 2.24006,0.65961c0.43643,0.80072 0.1411,1.80364 -0.65961,2.24006c-0.80072,0.43643 -1.80364,0.1411 -2.24006,-0.65961z" data-paper-data="{&quot;index&quot;:null}" fill="#000000" stroke="none" stroke-width="0" stroke-linecap="butt"/><path d="M233.53094,126.39821l-0.94735,-0.27667l-0.37305,1.04522l-1.02794,0.17709l-1.11192,0.15036l-0.94941,-0.36545l-0.92257,0.49076l-0.70207,-0.02588l-0.64576,0.62321l-0.96012,1.41969l-1.18146,0.19663l-0.76034,0.87791l-0.65785,0.71622l-1.3068,-0.46605l-1.21503,0.30848l0.03155,-1.07054l-1.24754,0.08901l-0.62538,-0.97715l0.86384,-0.70726l-0.18994,-0.77203l0.18758,-1.17494l0.91027,-0.45701l0.80491,-0.88633l0.8228,-0.31479l0.47725,-0.92918l1.21778,-0.70499l1.02705,-1.30506l1.08363,0.39904l1.20138,-0.31787l0.91686,0.35074l0.86567,-0.40152l0.90352,0.30964l0.64694,-0.88285l0.92576,0.72246l0.59007,0.28176l0.78412,-0.55816l1.14102,1.31775l-0.09892,1.28018l-0.0004,1.28827z" data-paper-data="{&quot;index&quot;:null}" fill="url(#color-7)" stroke="#000000" stroke-width="0" stroke-linecap="butt"/><path d="M207.51921,120.10405l-1.48726,-1.2628l-0.4846,-1.59337l-1.12922,-1.34595l0.70636,-0.82674l0.59809,-0.64677l-0.10288,-1.30388l1.59673,-0.2726l0.83385,-1.04376l0.62369,-1.7812l1.3167,0.34607l1.18896,-1.3744l1.66245,-1.13037l1.30959,-0.63999c0,0 0.68864,0.70605 1.12593,0.75475c0.44168,0.0492 1.51109,-0.46099 1.51109,-0.46099l0.5497,-1.29958l1.24777,-0.40272l1.47635,-0.44845l1.16713,-0.73784l1.13415,-0.72504l0.01123,1.71073l0.88616,0.48862l1.22044,0.55033l1.32192,0.85821c0,0 0.36412,0.87216 0.24476,1.20591c-0.10511,0.29392 -1.09702,0.86705 -1.09702,0.86705l-1.55849,0.34663l-0.17483,1.45812c0,0 -0.77796,0.58715 -0.98589,0.67282c-0.31197,0.12853 -0.91884,-0.37102 -0.91884,-0.37102l-0.98599,0.91509c0,0 -0.17732,0.18551 -0.50027,0.30653c-0.22204,0.08321 -0.79213,-0.27736 -0.94707,-0.27913c-0.27183,-0.0031 -0.8353,-0.44533 -0.8353,-0.44533c0,0 -0.55968,0.23392 -0.76496,0.48339c-0.25363,0.30823 0.09006,1.67696 0.09006,1.67696l-1.39882,0.61724l-1.03373,0.33262l-1.54345,0.3693l-0.71506,0.82822l-0.95475,1.52165l-1.09279,1.0716l-1.56422,-0.45281l-0.48354,1.36502z" data-paper-data="{&quot;index&quot;:null}" fill="#000000" stroke="#000000" stroke-width="0.5" stroke-linecap="butt"/><path d="M263.65504,148.02874c-2.18714,0.22199 -20.77513,-15.67332 -20.77513,-15.67332" data-paper-data="{&quot;index&quot;:null}" fill="none" stroke="#121212" stroke-width="10" stroke-linecap="round"/><path d="M212.2881,135.48662l26.05952,-12.00343c0,0 4.80428,12.64888 7.80228,18.50586c2.94611,5.75558 10.47144,16.49327 10.47144,16.49327c0,0 -7.81455,6.03491 -12.14678,8.05272c-4.32413,2.01403 -13.82235,4.0428 -13.82235,4.0428c0,0 -5.25449,-11.48912 -8.27399,-17.259c-3.09974,-5.92316 -10.09008,-17.8322 -10.09008,-17.8322z" data-paper-data="{&quot;index&quot;:null}" fill="#191919" stroke="none" stroke-width="0" stroke-linecap="butt"/><path d="M241.31768,127.87151c0,0 7.04409,8.62522 8.51454,13.23174c2.09395,4.44139 6.97396,16.48275 6.97396,16.48275c0,0 -7.07651,7.46513 -12.25146,10.17586c-5.17495,2.71075 -14.80928,3.28936 -14.80928,3.28936c0,0 -6.26672,-14.35685 -7.65553,-19.09232c-0.82813,-1.87943 -3.5412,-13.61085 -3.5412,-13.61085c0,0 2.5858,-1.81247 5.97133,-3.10082c2.29102,-0.87184 5.79246,-2.40116 8.08748,-3.35039c2.45315,-1.01464 1.38252,-0.84231 2.741,-1.40472z" data-paper-data="{&quot;index&quot;:null}" fill="url(#color-8)" stroke="#000000" stroke-width="2" stroke-linecap="butt"/><path d="M229.62132,163.94113c-0.66019,-1.52681 -3.33068,-7.89356 -3.33068,-7.89356c0,0 1.94594,-0.84142 2.9325,-1.26802c1.00502,-0.43457 3.04328,-1.3159 3.04328,-1.3159c0,0 2.72408,6.29996 3.40016,7.86351c0.2949,0.68203 0.07194,1.62895 -0.57652,1.90933c-1.25008,0.54053 -3.14931,1.27782 -3.7828,1.55174c-0.36846,0.15931 -1.41463,-0.21971 -1.68593,-0.84714z" data-paper-data="{&quot;index&quot;:null}" fill="url(#color-9)" stroke="#000000" stroke-width="1" stroke-linecap="butt"/><path d="M226.70417,158.88993c0,0 -1.09484,-2.53203 -1.40914,-3.25895c-0.14492,-0.33513 0.22211,-1.20094 0.7556,-1.43163c0.87325,-0.37759 3.4423,-1.48844 4.82538,-2.08648c0.50629,-0.21892 1.2307,0.19701 1.39589,0.57904c0.32375,0.74875 1.38085,3.19347 1.38085,3.19347z" data-paper-data="{&quot;index&quot;:null}" fill="#282828" stroke="#000000" stroke-width="1" stroke-linecap="butt"/><text transform="translate(232.36793,137.17019) rotate(-23.3817) scale(0.06656,0.06656)" font-size="40" xml:space="preserve" data-paper-data="{&quot;index&quot;:null}" fill="#ffffff" fill-rule="nonzero" stroke="#ffffff" stroke-width="2" stroke-linecap="butt" stroke-linejoin="miter" stroke-miterlimit="10" stroke-dasharray="" stroke-dashoffset="0" font-family="Sans Serif" font-weight="normal" text-anchor="start" style="mix-blend-mode: normal"><tspan x="0" dy="0">S.O.A.S.T</tspan></text><path d="M238.63825,143.83626c-0.50343,-0.39673 -0.92607,-0.90953 -1.2228,-1.52053" data-paper-data="{&quot;index&quot;:null}" fill="#e6e016" stroke="#ff1919" stroke-width="3" stroke-linecap="butt"/><path d="M237.83124,124.04415c0,0 2.07364,1.18221 2.53012,2.09536c0.43749,0.87516 0.89555,2.88303 0.89555,2.88303l-6.59545,2.93104c0,0 -0.24505,-2.97438 -0.29627,-3.09117c-0.35898,-0.81896 -1.95699,-2.34663 -1.95699,-2.34663z" data-paper-data="{&quot;index&quot;:null}" fill="#000000" stroke="#000000" stroke-width="0.5" stroke-linecap="butt"/><path d="M237.055,140.2954c0.07154,-0.70446 0.34143,-1.37747 0.77685,-1.93629" data-paper-data="{&quot;index&quot;:null}" fill="none" stroke="#1921ff" stroke-width="3" stroke-linecap="butt"/><path d="M239.40923,137.1788c0.79185,-0.3145 1.63081,-0.34061 2.39711,-0.1258" data-paper-data="{&quot;index&quot;:null}" fill="none" stroke="#4aff19" stroke-width="3" stroke-linecap="butt"/><path d="M243.58589,138.15514c0.26664,0.29584 0.49041,0.63947 0.65724,1.02529c0.11136,0.25754 0.19164,0.52069 0.2425,0.78527" data-paper-data="{&quot;index&quot;:null}" fill="none" stroke="#fff719" stroke-width="3" stroke-linecap="butt"/><path d="M244.44503,141.72197c-0.22996,0.64691 -0.63571,1.23002 -1.18671,1.67222" data-paper-data="{&quot;index&quot;:null}" fill="none" stroke="#ff9319" stroke-width="3" stroke-linecap="butt"/><path d="M246.84685,156.2205c-0.66019,-1.52681 -3.33068,-7.89356 -3.33068,-7.89356l5.97578,-2.58391c0,0 2.72408,6.29996 3.40016,7.86351c0.2949,0.68203 0.07194,1.62895 -0.57652,1.90933c-1.25008,0.54053 -3.14931,1.27782 -3.7828,1.55174c-0.36846,0.15931 -1.41463,-0.21971 -1.68593,-0.84714z" data-paper-data="{&quot;index&quot;:null}" fill="url(#color-10)" stroke="#000000" stroke-width="1" stroke-linecap="butt"/><path d="M240.90083,145.40574l-0.04732,-4.93188" data-paper-data="{&quot;index&quot;:null}" fill="none" stroke="#000000" stroke-width="1.5" stroke-linecap="round"/><path d="M239.36772,141.20111c-0.33346,-0.77119 0.02138,-1.66669 0.7926,-2.00016c0.77119,-0.33346 1.66669,0.02138 2.00016,0.7926c0.33346,0.77119 -0.02138,1.66669 -0.7926,2.00016c-0.77119,0.33346 -1.66669,-0.02138 -2.00016,-0.7926z" data-paper-data="{&quot;index&quot;:null}" fill="#ffffff" stroke="none" stroke-width="3" stroke-linecap="butt"/><path d="M221.56129,131.54091c0,0 0.85705,1.60693 1.3549,2.47365c0.54518,0.94914 1.81311,2.41632 1.81311,2.41632l-5.62911,2.46564c0,0 -1.81878,-1.15846 -2.27799,-2.1756c-0.41,-0.9081 -1.20964,-2.70367 -1.20964,-2.70367z" data-paper-data="{&quot;index&quot;:null}" fill="#000000" stroke="#000000" stroke-width="0.5" stroke-linecap="butt"/><path d="M219.60984,106.37807c4.20929,-1.01481 1.76918,-5.9437 6.03543,-4.18754c4.88449,2.01747 9.75089,10.0445 12.49248,15.68806c1.03862,4.88989 1.46456,4.50806 -2.80022,7.84527c-3.78808,2.75147 -9.65032,6.26758 -13.95276,8.02693c-0.33635,0.13756 -1.04418,0.4492 -1.23377,0.48019c-3.91604,-0.60793 -5.10153,-1.29189 -7.30554,-3.77966c-0.22602,-0.25523 -3.19371,-5.50536 -3.90441,-9.23864c-0.87843,-3.99339 -2.18585,-3.37075 -1.0241,-6.87068c0.8625,-2.60032 5.77373,-3.79488 8.13677,-4.36193z" data-paper-data="{&quot;index&quot;:null}" fill="#3e3e3e" stroke="#000000" stroke-width="1.5" stroke-linecap="round"/><path d="M244.06087,151.11255c0,0 -1.09484,-2.53203 -1.40914,-3.25895c-0.14492,-0.33513 0.22211,-1.20094 0.7556,-1.43163c0.87325,-0.37759 3.4423,-1.48844 4.82538,-2.08648c0.50629,-0.21892 1.2307,0.19701 1.39589,0.57904c0.32375,0.74875 1.38085,3.19347 1.38085,3.19347z" data-paper-data="{&quot;index&quot;:null}" fill="#282828" stroke="#000000" stroke-width="1" stroke-linecap="butt"/><path d="M236.2372,128.55373c-2.68569,1.16128 -7.87475,0.66664 -9.18444,-2.36231c-0.69171,-1.5997 -1.10595,-3.32806 -0.97749,-4.84406c0.11475,-1.35445 0.73259,-2.76354 1.99987,-3.31151c0.98915,-0.42771 2.84077,-1.27079 4.37616,-0.91851c2.63346,0.60425 5.06618,3.04139 5.89352,4.95477c0,0 0.57809,5.32032 -2.10761,6.48161z" data-paper-data="{&quot;index&quot;:null}" fill="#151515" stroke="#000000" stroke-width="1.5" stroke-linecap="butt"/><path d="M237.98727,122.09972c1.01791,2.35412 0.15561,4.99217 -1.926,5.89225c-2.08162,0.90008 -4.59428,-0.27864 -5.6122,-2.63277c-1.01791,-2.35412 -0.1556,-4.99216 1.92601,-5.89224c2.08162,-0.90008 4.59427,0.27865 5.61219,2.63277z" data-paper-data="{&quot;index&quot;:null}" fill="#313131" stroke="#000000" stroke-width="1.5" stroke-linecap="butt"/><g data-paper-data="{&quot;index&quot;:null}" stroke="#000000" stroke-width="1" stroke-linecap="butt"><path d="M226.4257,149.53434c-0.47747,-1.10426 -2.4015,-5.71218 -2.4015,-5.71218l4.95735,-2.14354c0,0 1.97018,4.55643 2.45916,5.68726c0.21328,0.49327 -0.00462,1.20262 -0.54257,1.43522c-1.03704,0.4484 -2.60933,1.06758 -3.13487,1.29481c-0.30566,0.13217 -1.14134,-0.10779 -1.33755,-0.56156z" fill="url(#color-11)"/><path d="M224.35906,145.86241c0,0 -0.79184,-1.83126 -1.01917,-2.35702c-0.10481,-0.24238 0.22705,-0.89731 0.66962,-1.08867c0.72443,-0.31324 2.85564,-1.23477 4.00301,-1.73088c0.41999,-0.1816 0.99271,0.09811 1.1122,0.37443c0.23415,0.54153 0.99869,2.30967 0.99869,2.30967z" fill="#282828"/></g><path d="M224.65439,104.84285c1.2684,-0.37488 2.61378,-0.07237 3.76002,0.71692c1.14716,0.79342 2.09516,2.07397 2.57217,3.65426c0.47697,1.58032 0.39398,3.16555 -0.1255,4.45154c-0.5209,1.28232 -1.4784,2.26507 -2.74678,2.63995c-1.26867,0.37497 -2.61401,0.0728 -3.76002,-0.71693c-1.14742,-0.79334 -2.09515,-2.07398 -2.57216,-3.65426c-0.47697,-1.58032 -0.39433,-3.16546 0.1255,-4.45154c0.5207,-1.28191 1.47808,-2.265 2.74676,-2.63995z" data-paper-data="{&quot;index&quot;:null}" fill="#000000" stroke="#000000" stroke-width="2" stroke-linecap="butt"/><path d="M218.89642,162.17351c-2.2999,-0.26878 -9.53697,-5.26227 -10.50378,-8.01921c-2.20709,-6.29371 5.44592,-18.02437 5.44592,-18.02437" data-paper-data="{&quot;index&quot;:null}" fill="none" stroke="#121212" stroke-width="10" stroke-linecap="round"/><path d="M226.12746,105.58004c1.04707,-0.29394 2.17626,0.00594 3.15234,0.72588c0.97697,0.72355 1.80088,1.86741 2.2402,3.26063c0.43931,1.39327 0.41212,2.77601 0.01326,3.88579c-0.40014,1.10652 -1.17205,1.93976 -2.2191,2.23371c-1.0473,0.29402 -2.17642,-0.00559 -3.15234,-0.72587c-0.97719,-0.72348 -1.80088,-1.86741 -2.24022,-3.26064c-0.4393,-1.39327 -0.41241,-2.77596 -0.01325,-3.8858c0.39999,-1.10617 1.17179,-1.9397 2.2191,-2.23371z" data-paper-data="{&quot;index&quot;:null}" fill="url(#color-12)" stroke="#000000" stroke-width="2" stroke-linecap="butt"/><path d="M209.38284,115.68802c0,0 8.94236,18.90379 8.29867,18.96028c-1.00137,0.08785 -1.04906,-0.7847 -2.9428,-0.31088c-1.02258,0.25585 -3.17186,1.7043 -5.04351,1.91512c-1.37407,0.15478 -10.52857,-20.27557 -10.52857,-20.27557c0,0 -1.86513,-6.94698 8.57471,-13.91037c13.29967,-5.83956 17.30674,-0.25885 17.30674,-0.25885c0,0 -1.5174,2.33139 -4.28765,6.68824c-2.75607,4.33453 -9.12801,6.38716 -9.12801,6.38716z" data-paper-data="{&quot;index&quot;:null}" fill="#1e1e1e" stroke="#000000" stroke-width="1.5" stroke-linecap="butt"/><path d="M216.66425,113.27137c1.2684,-0.37488 2.61378,-0.07238 3.76002,0.71693c1.14716,0.79342 2.09516,2.07399 2.57217,3.65426c0.47697,1.58032 0.39398,3.16553 -0.1255,4.45154c-0.5209,1.28232 -1.47838,2.26507 -2.74676,2.63997c-1.26867,0.37497 -2.61401,0.0728 -3.76002,-0.71693c-1.14742,-0.79334 -2.09515,-2.07399 -2.57216,-3.65426c-0.47697,-1.58032 -0.39435,-3.16546 0.12549,-4.45154c0.5207,-1.28191 1.4781,-2.265 2.74676,-2.63995z" data-paper-data="{&quot;index&quot;:null}" fill="#000000" stroke="#000000" stroke-width="2" stroke-linecap="butt"/><path d="M218.13736,114.00856c1.04707,-0.29394 2.17626,0.00594 3.15234,0.72588c0.97697,0.72355 1.80088,1.86741 2.24022,3.26064c0.4393,1.39327 0.41212,2.77602 0.01326,3.88579c-0.40014,1.10652 -1.17205,1.93976 -2.2191,2.23371c-1.0473,0.29402 -2.17642,-0.00559 -3.15234,-0.72587c-0.97719,-0.72348 -1.80088,-1.86741 -2.24022,-3.26064c-0.4393,-1.39327 -0.41241,-2.77596 -0.01325,-3.8858c0.39999,-1.10617 1.17179,-1.9397 2.2191,-2.23371z" data-paper-data="{&quot;index&quot;:null}" fill="url(#color-13)" stroke="#000000" stroke-width="2" stroke-linecap="butt"/><path d="M221.92748,113.31778c1.32107,0.93199 2.41913,2.42703 2.9811,4.265c0.56193,1.838 0.48296,3.67607 -0.09864,5.16262c-0.58327,1.48226 -1.87378,2.19985 -3.3218,2.62189c-1.44835,0.42213 -2.78685,0.47075 -4.10658,-0.45693c-1.32138,-0.93188 -2.41913,-2.42703 -2.9811,-4.265c-0.56193,-1.838 -0.43225,-3.5728 0.14978,-5.05943c0.58305,-1.48178 1.92455,-2.09661 3.37291,-2.51873c0,0 2.68437,-0.67662 4.00434,0.25057z" data-paper-data="{&quot;index&quot;:null}" fill="url(#color-14)" stroke="#000000" stroke-width="0" stroke-linecap="butt"/><path d="M229.63856,105.05503c1.27719,0.97082 2.36292,2.49397 2.9545,4.34005c0.59156,1.84613 0.5787,3.67084 0.07995,5.12922c-0.50044,1.45408 -1.69353,2.12425 -3.04506,2.49531c-1.35186,0.37115 -2.61261,0.37463 -3.88837,-0.59186c-1.27748,-0.97074 -2.36292,-2.49397 -2.9545,-4.34006c-0.59156,-1.84613 -0.5274,-3.56647 -0.02828,-5.02494c0.50024,-1.45362 1.74484,-2.0199 3.09672,-2.39102c0,0 2.50905,-0.58275 3.78504,0.38329z" data-paper-data="{&quot;index&quot;:null}" fill="url(#color-15)" stroke="#000000" stroke-width="0" stroke-linecap="butt"/><path d="M211.96993,121.70853l-1.29067,-0.43551" data-paper-data="{&quot;index&quot;:null}" fill="none" stroke="#000000" stroke-width="1" stroke-linecap="round"/><path d="M211.60457,120.66103l-0.37442,1.41398" data-paper-data="{&quot;index&quot;:null}" fill="none" stroke="#000000" stroke-width="1" stroke-linecap="round"/><path d="M223.26329,110.39494l-1.13626,-0.75127" data-paper-data="{&quot;index&quot;:null}" fill="none" stroke="#000000" stroke-width="1" stroke-linecap="round"/><path d="M222.06027,110.63232l0.72378,-1.27108" data-paper-data="{&quot;index&quot;:null}" fill="none" stroke="#000000" stroke-width="1" stroke-linecap="round"/><path d="M229.4478,158.99492l-1.12863,-2.6102l2.35759,-1.0194l1.12863,2.6102z" data-paper-data="{&quot;index&quot;:null}" fill="#000000" stroke="none" stroke-width="0" stroke-linecap="butt"/><path d="M260.23055,143.0606" data-paper-data="{&quot;index&quot;:null}" fill="none" stroke="url(#color-16)" stroke-width="10" stroke-linecap="round"/><path d="M259.78287,153.38542c-2.02511,-2.15083 -2.92529,-4.54472 -0.86624,-6.48343c1.05035,-0.98897 3.71371,-3.35973 5.06344,-3.69405c1.29619,-0.32108 3.45359,1.89066 4.44567,2.94433c2.02511,2.15083 0.72112,5.31117 -1.33795,7.24988c-2.05904,1.9387 -5.27982,2.13413 -7.30489,-0.01671z" data-paper-data="{&quot;index&quot;:null}" fill="#000000" stroke="url(#color-17)" stroke-width="0" stroke-linecap="butt"/><path d="M238.29145,160.05602c-0.66019,-1.52681 -3.33068,-7.89356 -3.33068,-7.89356l5.97578,-2.58391c0,0 2.72408,6.29996 3.40016,7.86351c0.2949,0.68203 0.07194,1.62895 -0.57652,1.90933c-1.25008,0.54053 -3.14931,1.27782 -3.7828,1.55174c-0.36846,0.15931 -1.41463,-0.21971 -1.68593,-0.84714z" data-paper-data="{&quot;index&quot;:null}" fill="url(#color-18)" stroke="#000000" stroke-width="1" stroke-linecap="butt"/><path d="M235.50545,154.94806c0,0 -1.09484,-2.53203 -1.40914,-3.25895c-0.14492,-0.33513 0.22211,-1.20094 0.7556,-1.43163c0.87325,-0.37759 3.4423,-1.48844 4.82538,-2.08648c0.50629,-0.21892 1.2307,0.19701 1.39589,0.57904c0.32375,0.74875 1.38085,3.19347 1.38085,3.19347z" data-paper-data="{&quot;index&quot;:null}" fill="#282828" stroke="#000000" stroke-width="1" stroke-linecap="butt"/><path d="M238.11794,155.10978l-1.12863,-2.6102l2.35759,-1.0194l1.12863,2.6102z" data-paper-data="{&quot;index&quot;:null}" fill="#000000" stroke="none" stroke-width="0" stroke-linecap="butt"/><path d="M246.67334,151.27427l-1.12863,-2.6102l2.35759,-1.0194l1.12863,2.6102z" data-paper-data="{&quot;index&quot;:null}" fill="#000000" stroke="none" stroke-width="0" stroke-linecap="butt"/><g data-paper-data="{&quot;index&quot;:null}" stroke="#000000"><g data-paper-data="{&quot;index&quot;:null}"><path d="M214.68957,165.09578l10.95795,-8.20054l2.34578,3.32609l-11.00995,7.95775z" data-paper-data="{&quot;index&quot;:null}" fill="url(#color-19)" stroke-width="2" stroke-linecap="butt"/><path d="M159.89705,204.11517l52.48578,-39.66433l4.61504,6.16109c0,0 -1.82901,0.87006 -7.73688,5.33474c-6.31245,4.77048 -28.56946,19.27938 -37.77548,26.23652c-4.88735,3.69348 -11.58842,1.93205 -11.58842,1.93205z" data-paper-data="{&quot;index&quot;:null}" fill="url(#color-20)" stroke-width="2" stroke-linecap="butt"/><path d="M212.35696,164.11474l5.18364,6.38498" data-paper-data="{&quot;index&quot;:null}" fill="none" stroke-width="4" stroke-linecap="round"/><path d="M218.8907,166.51349l-2.05434,-2.78017" data-paper-data="{&quot;index&quot;:null}" fill="none" stroke-width="2" stroke-linecap="round"/><path d="M219.12026,162.38498l1.94621,2.63388" data-paper-data="{&quot;index&quot;:null}" fill="none" stroke-width="1.5" stroke-linecap="round"/><path d="M223.21682,162.93679l-1.89217,-2.56071" data-paper-data="{&quot;index&quot;:null}" fill="none" stroke-width="1.5" stroke-linecap="round"/><path d="M223.64291,159.10966l1.89216,2.5607" data-paper-data="{&quot;index&quot;:null}" fill="none" stroke-width="1.5" stroke-linecap="round"/></g><path d="M214.82011,167.48158c0,0 -39.25185,28.41952 -46.63173,33.745c-2.31251,1.66872 -6.62487,2.15564 -6.62487,2.15564" fill="none" stroke-width="1" stroke-linecap="round"/></g><path d="M215.51576,167.23401c-1.46148,-1.62047 -2.02467,-2.95727 -1.37274,-4.3087c0.23064,-0.4781 0.61336,-0.95805 1.16217,-1.45301c1.07133,-0.96619 3.55208,-3.37033 4.90865,-3.67562c1.30279,-0.2932 3.12868,1.31656 4.09792,2.39127c1.97852,2.19376 0.60702,5.32541 -1.49316,7.21952c-2.10015,1.8941 -5.32436,2.02038 -7.30286,-0.17339z" data-paper-data="{&quot;index&quot;:null}" fill="#000000" stroke="url(#color-21)" stroke-width="0" stroke-linecap="butt"/></g></g></svg>