<svg version="1.1" xmlns="http://www.w3.org/2000/svg" xmlns:xlink="http://www.w3.org/1999/xlink" width="487.31832" height="453.94369" viewBox="0,0,487.31832,453.94369"><g transform="translate(4.4423,85.24394)"><g data-paper-data="{&quot;isPaintingLayer&quot;:true}" fill="#000000" fill-rule="nonzero" stroke="#000000" stroke-width="2.5" stroke-linecap="butt" stroke-linejoin="miter" stroke-miterlimit="10" stroke-dasharray="" stroke-dashoffset="0" style="mix-blend-mode: normal"><path d="M456.23588,364.29118v-262.76277h25.04454v262.76277z" data-paper-data="{&quot;index&quot;:null}"/><path d="M-3.1923,64.40852v-148.40246h484.81832v148.40247z" data-paper-data="{&quot;index&quot;:null}"/><path d="M-2.9837,367.44973v-55.55555h468.46847v55.55556z"/><path d="M420.71229,310.99179c0,0 -3.77819,-13.13253 -4.73555,-17.28436c-0.53924,-2.33855 -0.51445,-5.48365 -0.51445,-5.48365h31.81802c0,0 -0.07168,3.35317 -0.52481,5.41655c-0.89245,4.06385 -4.47519,17.35147 -4.47519,17.35147z"/><path d="M78.91129,129.34008v-67.4h51v67.4z"/><path d="M129.14844,232.80109v-173.15916h255.2883v173.15917z"/><path d="M-2.50402,311.50005v-97.59459h60.06006v97.59459z"/><path d="M-2.00537,211.94012v-81h27.16667v81z"/><path d="M23.72634,140.93867v-10h106v10z"/><path d="M390.48057,203.49898v-5.8h36.5v5.8z"/><g><path d="M405.7235,76.31365v-10.54167h8v10.54167z"/><path d="M396.67469,85.7321c0,-6.90356 5.59644,-12.5 12.5,-12.5c6.90356,0 12.5,5.59644 12.5,12.5c0,6.90356 -5.59644,12.5 -12.5,12.5c-6.90356,0 -12.5,-5.59644 -12.5,-12.5z"/></g></g></g></svg>