<svg version="1.1" xmlns="http://www.w3.org/2000/svg" xmlns:xlink="http://www.w3.org/1999/xlink" width="235.28399" height="144.51264" viewBox="0,0,235.28399,144.51264"><defs><linearGradient x1="152.87121" y1="160.76825" x2="187.51519" y2="172.56648" gradientUnits="userSpaceOnUse" id="color-1"><stop offset="0" stop-color="#050000"/><stop offset="1" stop-color="#0f0707"/></linearGradient><radialGradient cx="316.26239" cy="181.35872" r="16.58617" gradientUnits="userSpaceOnUse" id="color-2"><stop offset="0" stop-color="#5100a4"/><stop offset="1" stop-color="#5100a4" stop-opacity="0"/></radialGradient><radialGradient cx="151.87244" cy="170.96832" r="14.77697" gradientUnits="userSpaceOnUse" id="color-3"><stop offset="0" stop-color="#5100a4"/><stop offset="1" stop-color="#5100a4" stop-opacity="0"/></radialGradient><radialGradient cx="151.61488" cy="170.84742" r="13.47312" gradientUnits="userSpaceOnUse" id="color-4"><stop offset="0" stop-color="#5100a4"/><stop offset="1" stop-color="#5100a4" stop-opacity="0"/></radialGradient><radialGradient cx="255.49082" cy="180.39269" r="62.22942" gradientUnits="userSpaceOnUse" id="color-5"><stop offset="0" stop-color="#5100a4"/><stop offset="1" stop-color="#5100a4" stop-opacity="0"/></radialGradient><radialGradient cx="197.97646" cy="179.24575" r="64.04841" gradientUnits="userSpaceOnUse" id="color-6"><stop offset="0" stop-color="#5100a4"/><stop offset="1" stop-color="#5100a4" stop-opacity="0"/></radialGradient><radialGradient cx="284.92185" cy="179.34117" r="63.16045" gradientUnits="userSpaceOnUse" id="color-7"><stop offset="0" stop-color="#5100a4"/><stop offset="1" stop-color="#5100a4" stop-opacity="0"/></radialGradient><radialGradient cx="219.72385" cy="177.9245" r="60.461" gradientUnits="userSpaceOnUse" id="color-8"><stop offset="0" stop-color="#5100a4"/><stop offset="1" stop-color="#5100a4" stop-opacity="0"/></radialGradient></defs><g transform="translate(-133.929,-106.63114)"><g data-paper-data="{&quot;isPaintingLayer&quot;:true}" fill-rule="nonzero" stroke-linejoin="miter" stroke-miterlimit="10" stroke-dasharray="" stroke-dashoffset="0" style="mix-blend-mode: normal"><path d="M343.86936,190.39932l4.21661,0.81134l3.00523,-1.78833l-14.5731,1.51208l-7.08056,-7.13175" data-paper-data="{&quot;index&quot;:null}" fill="none" stroke="#000000" stroke-width="8" stroke-linecap="round"/><path d="M330.349,182.03427l5.55238,-6.0347l13.40254,2.14386l-3.12264,-1.86568l-3.65394,0.51292" data-paper-data="{&quot;index&quot;:null}" fill="none" stroke="#000000" stroke-width="8" stroke-linecap="round"/><path d="M309.30909,192.28709c-0.75097,2.45397 -2.75971,21.99776 -2.75971,21.99776l-2.15388,-7.01812l3.4669,-6.90736" data-paper-data="{&quot;index&quot;:null}" fill="none" stroke="#5100a4" stroke-width="12.5" stroke-linecap="round"/><path d="M291.30909,194.12043c-0.75097,2.45397 -2.42638,20.16443 -2.42638,20.16443l-1.65388,-6.18479l2.63357,-5.90736" data-paper-data="{&quot;index&quot;:null}" fill="none" stroke="#5100a4" stroke-width="12.5" stroke-linecap="round"/><path d="M267.56251,202.59242l3.70448,5.11548l-0.38099,6.55219c0,0 -5.10354,-17.04175 -6.31952,-19.30169" data-paper-data="{&quot;index&quot;:null}" fill="none" stroke="#5100a4" stroke-width="12.5" stroke-linecap="round"/><path d="M250.26204,202.55627l3.6075,5.18432l-0.50431,6.54385c0,0 -4.78174,-17.13483 -5.95495,-19.41726" data-paper-data="{&quot;index&quot;:null}" fill="none" stroke="#5100a4" stroke-width="12.5" stroke-linecap="round"/><path d="M223.32392,192.86002c-0.91105,2.39915 -3.74985,19.96072 -3.74985,19.96072l-1.23175,-6.44663l3.00614,-5.55468" data-paper-data="{&quot;index&quot;:null}" fill="none" stroke="#5100a4" stroke-width="12.5" stroke-linecap="round"/><path d="M205.59059,193.92669c-0.91105,2.39915 -3.74985,19.96071 -3.74985,19.96071l-1.23175,-6.44663l3.00614,-5.55468" data-paper-data="{&quot;index&quot;:null}" fill="none" stroke="#5100a4" stroke-width="12.5" stroke-linecap="round"/><path d="M186.15725,195.19336c-0.91105,2.39915 -3.74985,19.96071 -3.74985,19.96071l-1.23175,-6.44663l3.00614,-5.55468" data-paper-data="{&quot;index&quot;:null}" fill="none" stroke="#5100a4" stroke-width="12.5" stroke-linecap="round"/><path d="M168.95725,196.89336c-0.91105,2.39915 -4.74985,21.16071 -4.74985,21.16071l-1.63175,-8.64663l4.20613,-4.55468" data-paper-data="{&quot;index&quot;:null}" fill="none" stroke="#5100a4" stroke-width="12.5" stroke-linecap="round"/><g fill="none" stroke="#000000" stroke-width="9" stroke-linecap="round"><path d="M254.24961,183.05315l21.5527,-49.92798l-4.77969,80.961l-2.41974,-7.65052" data-paper-data="{&quot;index&quot;:null}"/><g><path d="M183.59642,206.84694l-1.94027,3.05322l0.88993,4.48427l17.07629,-88.68728l25.43411,51.97131"/><path d="M276.42034,179.05187l41.20182,-49.77704l-10.6391,85.43407l-1.9523,-6.53647l3.14716,-5.34959" data-paper-data="{&quot;index&quot;:null}"/><path d="M222.37428,201.6076l-3.70909,5.21242l0.90064,4.5793l10.96055,-75.51265l8.10856,48.78573"/></g></g><g stroke="#000000" stroke-linecap="butt"><path d="M220.14727,160.89576c1.64955,-0.50176 3.63833,1.36462 4.44204,4.16866c0.80372,2.80407 0.11803,5.48394 -1.53152,5.9857c-1.64955,0.50176 -3.63834,-1.36459 -4.44203,-4.16865c-0.80372,-2.80407 -0.11804,-5.48396 1.53152,-5.98571z" fill="#000000" stroke-width="1"/><path d="M200.66475,197.6775c-12.39413,1.31889 -23.74997,-9.79479 -25.36403,-24.82316c-1.61402,-15.02832 7.12504,-28.28033 19.51914,-29.59922c12.39413,-1.31889 23.74994,9.79484 25.36397,24.82318c1.61402,15.02832 -7.12494,28.28034 -19.51909,29.59921z" fill="#000000" stroke-width="0"/><path d="M211.46897,199.89986c-11.91128,1.26752 -22.82475,-9.41323 -24.37591,-23.85611c-1.55115,-14.44284 6.84746,-27.17862 18.75874,-28.44612c11.91128,-1.26752 22.82471,9.41327 24.37585,23.85611c1.55115,14.44284 -6.84739,27.17863 -18.7587,28.44611z" fill="#000000" stroke-width="0"/><path d="M209.11957,191.76357c-12.39413,1.31889 -23.74999,-9.79479 -25.36403,-24.82316c-1.61402,-15.02832 7.12503,-28.28032 19.51913,-29.59921c12.39413,-1.31889 23.74997,9.79483 25.36396,24.82315c1.61402,15.02832 -7.12495,28.28033 -19.5191,29.59922z" fill="#000000" stroke-width="0"/><path d="M208.81088,196.89797c-12.39413,1.31889 -23.74999,-9.79479 -25.36402,-24.82317c-1.61402,-15.02832 7.12498,-28.28031 19.51912,-29.5992c12.39413,-1.31889 23.74997,9.79483 25.36396,24.82315c1.61402,15.02832 -7.12496,28.28034 -19.51911,29.59923z" fill="#000000" stroke-width="0"/><path d="M208.69858,196.27374c-12.74304,2.39238 -25.22515,-6.94215 -27.8796,-20.84925c-2.04271,-10.70201 3.15859,-20.12089 10.93585,-26.19147c2.32916,-1.81805 3.8312,-5.72012 6.76799,-6.27148c4.30635,-0.80848 10.69874,-0.7625 14.66145,1.27752c6.4386,3.31457 9.78675,8.82108 11.63603,16.47254c0.38054,1.57439 0.39317,4.96894 0.69308,6.54017c0.59796,3.13285 1.52429,10.41997 1.20865,13.32804c-1.08557,10.00124 -8.15108,13.84047 -18.02348,15.69392z" fill="#0a0300" stroke-width="1"/><path d="M203.02954,146.33844c2.50205,-0.46973 5.27116,3.03091 5.81839,5.89784c0.54722,2.86694 -1.48333,3.23586 -3.98538,3.70562c-2.50205,0.46974 -4.52806,0.86238 -5.07528,-2.00456c-0.54722,-2.86694 0.74021,-7.12918 3.24226,-7.59891z" fill="#000000" stroke-width="1"/><path d="M183.728,158.45297c1.83775,-0.86046 4.29113,0.59849 5.47973,3.25866c1.18861,2.66017 0.66242,5.51417 -1.17532,6.37466c-1.83775,0.86046 -4.29115,-0.59847 -5.47975,-3.25864c-1.18861,-2.66016 -0.6624,-5.51419 1.17534,-6.37468z" fill="#000000" stroke-width="1"/><path d="M213.24849,176.50293c2.05235,0.40666 3.27558,3.06599 2.73224,5.93984c-0.54339,2.87384 -2.64764,4.87392 -4.69996,4.46726c-2.05235,-0.40666 -3.27561,-3.06601 -2.73223,-5.93984c0.54339,-2.87384 2.64763,-4.87392 4.69995,-4.46725z" fill="#000000" stroke-width="1"/><path d="M200.77126,163.4313c2.06051,-0.38683 5.77247,1.31839 6.15553,3.32524c0.38304,2.00686 -2.51767,2.6235 -4.57816,3.01035c-2.06051,0.38683 -4.4673,1.66284 -4.85037,-0.34403c-0.38304,-2.00686 1.21253,-5.60472 3.27304,-5.99156z" fill="#000000" stroke-width="1"/><path d="M189.48013,182.67907c0.10258,-2.36673 1.52407,-4.1964 3.17494,-4.08668c1.65087,0.1097 2.90598,2.11729 2.80336,4.48402c-0.10258,2.36673 -1.52404,4.19639 -3.17494,4.08667c-1.65087,-0.1097 -2.90601,-2.11726 -2.80337,-4.48398z" data-paper-data="{&quot;index&quot;:null}" fill="#000000" stroke-width="1"/></g><path d="M162.24681,164.22939c5.56715,-2.3887 22.37722,-2.85749 22.37722,-2.85749l1.36921,17.26536c0,0 -7.9026,-3.15616 -14.47249,-5.87935c-6.14548,-2.54725 -21.00781,-2.58287 -21.00781,-2.58287c0,0 7.24,-4.01745 11.73387,-5.94564z" fill="url(#color-1)" stroke="#000000" stroke-width="4" stroke-linecap="butt"/><g stroke="#000000" stroke-width="0" stroke-linecap="butt"><path d="M334.09294,179.93578c0.18976,12.1844 -9.95937,22.30897 -22.6687,22.61377c-12.70931,0.30485 -23.16614,-9.32543 -23.3559,-21.50986c-0.18976,-12.1844 9.95937,-22.30897 22.66868,-22.61379c12.70931,-0.30485 23.16616,9.32544 23.35592,21.50987z" fill="#000000"/><g><path d="M325.20849,179.9808c0.20135,12.18439 -10.62236,22.30979 -24.17538,22.61565c-13.55303,0.3059 -24.70323,-9.32352 -24.90458,-21.50795c-0.20135,-12.18439 10.62235,-22.30979 24.17538,-22.61565c13.55303,-0.3059 24.70324,9.32353 24.90459,21.50795z" fill="#000000"/><path d="M329.21064,183.60868c0.18976,12.1844 -9.95937,22.30897 -22.6687,22.61377c-12.70931,0.30485 -23.16614,-9.32544 -23.3559,-21.50987c-0.18976,-12.1844 9.95937,-22.30897 22.66866,-22.61378c12.70931,-0.30485 23.16617,9.32545 23.35594,21.50987z" fill="#000000"/><path d="M329.4586,177.3927c0.18238,11.70972 -9.57137,21.43988 -21.78559,21.73286c-12.21419,0.29297 -22.26365,-8.9622 -22.44602,-20.67195c-0.18238,-11.70972 9.57136,-21.43984 21.78558,-21.73282c12.21419,-0.29297 22.26366,8.96216 22.44603,20.67191z" fill="#000000"/><path d="M326.74949,181.23044c0.16824,10.8023 -11.17092,22.11738 -21.78023,22.37187c-3.18261,0.07633 -8.79592,0.72703 -11.46077,-0.60444c-6.21847,-3.10705 -7.93591,-10.93233 -8.05369,-18.49417c-0.16824,-10.8023 7.99975,-20.08469 18.60906,-20.33915c7.05904,-0.16932 13.37741,1.24231 17.65799,6.2421c2.15288,2.51451 4.97134,7.20896 5.02764,10.82383z" fill="#060200"/></g></g><g stroke="#000000" stroke-linecap="butt"><path d="M245.64874,146.368c-0.30813,-2.36425 2.7764,-4.64023 6.88945,-5.08348c4.11308,-0.44327 7.69715,1.11397 8.00528,3.47823c0.30813,2.36425 -2.77636,4.64022 -6.88945,5.08348c-4.11308,0.44327 -7.69717,-1.11397 -8.0053,-3.47822z" fill="#000000" stroke-width="1"/><path d="M292.43779,181.46446c-1.11264,17.19435 -19.36387,30.08389 -40.76534,28.7896c-21.40138,-1.29432 -37.84861,-16.28239 -36.73596,-33.47669c1.11264,-17.19435 19.36392,-30.08382 40.76533,-28.7895c21.40138,1.29432 37.84865,16.28226 36.73597,33.47664z" fill="#000000" stroke-width="0"/><path d="M298.12334,167.25968c-1.06928,16.52451 -18.60952,28.9119 -39.17722,27.66804c-20.56761,-1.24386 -36.37416,-15.64807 -35.30485,-32.17256c1.06929,-16.52451 18.60958,-28.91185 39.17719,-27.66795c20.56762,1.24386 36.3742,15.64796 35.30485,32.17251z" fill="#000000" stroke-width="0"/><path d="M286.18466,168.56949c-1.11264,17.19435 -19.36385,30.08389 -40.76533,28.78961c-21.40138,-1.29432 -37.84862,-16.28238 -36.73597,-33.47669c1.11264,-17.19435 19.36393,-30.08385 40.76531,-28.7895c21.40138,1.29431 37.84864,16.28228 36.736,33.47665z" fill="#000000" stroke-width="0"/><path d="M293.29116,170.18366c-1.11264,17.19435 -19.36386,30.08389 -40.76533,28.78958c-21.40138,-1.29432 -37.84862,-16.28231 -36.73598,-33.47665c1.11264,-17.19435 19.36392,-30.08386 40.7653,-28.78951c21.40138,1.29432 37.84864,16.28228 36.736,33.47665z" fill="#000000" stroke-width="0"/><path d="M292.39144,170.19157c0.30534,17.9193 -15.72654,32.75701 -35.8082,33.14101c-15.45355,0.29549 -27.38442,-8.98112 -34.01827,-20.98928c-1.98675,-3.59624 -7.08524,-6.54994 -7.15559,-10.67968c-0.10318,-6.0556 1.48624,-14.75494 5.28454,-19.68014c6.17141,-8.00249 14.67078,-11.28447 25.81216,-12.02557c2.29248,-0.1525 7.04259,0.61936 9.31144,0.57596c4.52377,-0.0865 14.93545,0.34531 18.92691,1.45139c13.72721,3.80406 17.41046,14.32372 17.64702,28.20632z" fill="#0a0300" stroke-width="1"/><path d="M221.20704,166.30793c-0.05995,-3.51837 5.4962,-6.47773 9.63599,-6.5569c4.13983,-0.07917 4.1713,2.77335 4.23127,6.29174c0.05995,3.51837 0.12568,6.37022 -4.01415,6.44939c-4.13983,0.07917 -9.79317,-2.66585 -9.85312,-6.18422z" fill="#000000" stroke-width="1"/><path d="M233.54354,195.42363c-0.76485,-2.70407 1.86074,-5.7078 5.86443,-6.70896c4.00369,-1.00116 7.86935,0.37923 8.63422,3.08329c0.76485,2.70407 -1.86073,5.70783 -5.86442,6.70899c-4.00369,1.00116 -7.86936,-0.37927 -8.63423,-3.08333z" fill="#000000" stroke-width="1"/><path d="M265.82855,159.39608c1.05833,-2.70191 5.06914,-3.75047 8.95842,-2.34206c3.88926,1.40846 6.18421,4.74055 5.12588,7.44244c-1.05833,2.70191 -5.06918,3.75051 -8.95843,2.34205c-3.88926,-1.40846 -6.18421,-4.74056 -5.12587,-7.44243z" fill="#000000" stroke-width="1"/><path d="M244.57178,173.35842c-0.04936,-2.8975 3.22091,-7.55884 6.11878,-7.61428c2.89788,-0.0554 3.06814,4.04034 3.11753,6.93781c0.04936,2.8975 1.25958,6.4735 -1.63833,6.52893c-2.89788,0.0554 -7.54862,-2.95502 -7.59798,-5.85252z" fill="#000000" stroke-width="1"/><path d="M268.79482,193.21764c-3.28526,-0.68995 -5.50483,-3.05214 -4.95752,-5.27605c0.54728,-2.22391 3.65424,-3.46739 6.9395,-2.77738c3.28526,0.68995 5.50482,3.05211 4.95751,5.27605c-0.54728,2.22391 -3.6542,3.46742 -6.93946,2.77742z" data-paper-data="{&quot;index&quot;:null}" fill="#000000" stroke-width="1"/></g><g data-paper-data="{&quot;index&quot;:null}" fill="none" stroke="#000000" stroke-width="1.5" stroke-linecap="round"><path d="M240.84026,208.81843l-3.01334,2.38986"/><path d="M236.27693,203.82138l-4.73636,3.82554"/><path d="M245.66515,208.37245l-1.40681,8.30741"/><path d="M223.99121,199.45148l3.50935,-2.47338"/><path d="M261.25001,209.28098l-0.49482,4.40319"/><path d="M257.32662,210.14885l-0.15533,9.80423"/><path d="M281.13825,209.65786l-6.05908,-6.63674"/><path d="M281.31685,198.38306l8.0193,3.59752"/><path d="M287.34353,193.60322l6.77559,1.61047"/><path d="M295.45604,191.31823l-3.3606,-2.52096"/><path d="M301.58588,153.19534l-4.30366,3.34405"/><path d="M294.8103,151.58486l3.85544,-1.88216"/><path d="M281.13684,132.87928l-2.61949,4.35946"/><path d="M250.98255,127.63582l1.58325,7.38816"/><path d="M230.08337,132.10975l4.55774,7.44937"/><path d="M226.35102,137.28238l1.5988,6.40767"/><path d="M262.57514,207.73971l1.97606,9.42313"/><path d="M299.38374,183.96184l-3.2448,-1.78305"/><path d="M296.81541,177.04379l5.05663,0.10399"/><path d="M304.65781,170.3399l-4.79182,1.96101l-2.38503,0.29415"/><path d="M306.55126,163.5136l-7.19862,3.6278l-1.46551,-1.40322"/><path d="M303.68003,156.93259l-5.14363,5.38642"/><path d="M294.07077,143.69106l-4.24044,4.71844"/><path d="M286.6236,144.22435l4.52699,-4.02602"/><path d="M280.64734,142.82815l6.57069,-9.5416"/><path d="M269.30232,129.45117l-1.60687,7.5187"/><path d="M263.92641,130.71368l-0.08698,5.49041"/><path d="M261.06455,142.32565l-3.69835,-10.71718"/><g><path d="M242.3198,205.91723l-2.87166,2.39277"/><path d="M233.53695,203.09682l-4.51374,3.83015"/><path d="M246.60053,216.79346l1.3461,-8.30861"/><path d="M230.29554,198.3143l-3.86666,2.74886"/><path d="M249.89848,208.33189l-0.47458,4.40359"/><path d="M258.34436,216.54463l0.15533,-9.80422"/><path d="M277.20094,201.73095l3.97699,4.49516"/><path d="M288.99136,198.54083l-7.63477,-3.58962"/><path d="M293.55168,191.76947l-6.45175,-1.60382"/><path d="M294.82789,187.87274l-3.19872,-2.51767"/><path d="M300.69462,149.74443l-4.10125,3.34822"/><path d="M294.24282,148.14056l3.67328,-1.88597"/><path d="M275.6323,137.70617l3.85089,-9.2314"/><path d="M273.19948,138.38419l2.81629,-9.74302"/><path d="M254.02915,127.66931l1.47619,9.0309"/><path d="M238.49724,139.00417l-5.8849,-10.275"/><path d="M230.10807,142.07886l-2.44656,-8.17417"/><path d="M265.36944,214.09692l-1.93027,-5.92419"/><path d="M298.57415,180.51258l-3.08896,-1.77983"/><path d="M296.13328,173.59717l4.81583,0.09904"/><path d="M303.60737,166.88569l-4.56513,1.9657l-2.27171,0.29652"/><path d="M305.4158,160.05759l-6.85863,3.63479l-1.39467,-1.40169"/><path d="M297.78348,158.8709l4.90281,-5.39133"/><path d="M289.50241,144.97005l4.04206,-4.72249"/><path d="M290.76601,136.75791l-4.31451,4.03037"/><path d="M284.79272,132.72979l-3.78055,6.10092"/><path d="M269.96605,126.0322l-1.53604,7.52017"/><path d="M266.29449,134.15808l0.08699,-5.49037"/><path d="M262.11082,138.91458l-3.51419,-10.71336"/></g><path d="M272.1293,213.95139l-2.61181,-6.45201"/><path d="M276.6346,211.298l-4.06648,-6.26233"/><path d="M267.94329,215.23835l-0.56228,-2.07116l-0.84889,-4.71714"/><path d="M248.7019,135.93077l-0.21574,-7.25102"/><path d="M244.76025,129.80989l1.08108,6.88746"/><path d="M238.99494,126.76829l2.89748,8.84163"/><path d="M232.18544,199.74266l-3.04518,4.39974"/><path d="M241.17812,214.34458l3.46195,-7.87611"/><path d="M235.00231,209.75511l3.04517,-4.39975"/><path d="M255.229,210.17117l-1.60687,7.51869"/><path d="M299.61047,188.42886l-6.74895,-5.97423"/></g><g fill="none" stroke="#000000" stroke-width="1.5" stroke-linecap="round"><path d="M213.81921,198.574l2.01105,1.82916"/><path d="M221.20075,198.99166l-3.16099,-2.92799"/><path d="M210.26339,197.85713l0.93888,6.35836"/><path d="M222.38615,189.1361l2.3421,1.89309"/><path d="M206.74492,199.86682l0.33022,3.37013"/><path d="M202.48066,199.21676l0.10367,7.50401"/><path d="M186.58912,198.84097l4.04376,-5.07966"/><path d="M186.46993,190.21142l-5.35196,2.75349"/><path d="M177.9259,187.78565l4.52192,-1.23262"/><path d="M179.27649,182.87461l-2.24283,1.92952"/><path d="M175.8149,158.18498l-2.8722,-2.55949"/><path d="M174.89155,152.9523l2.57307,1.44057"/><path d="M188.67873,144.74529l-1.74822,-3.33667"/><path d="M205.65799,141.71745l1.05665,-5.65479"/><path d="M220.66242,139.48695l-3.04176,5.70161"/><path d="M222.69945,143.19215l-1.06701,4.90432"/><path d="M198.9779,197.37285l-1.31879,7.2123"/><path d="M174.41235,179.17367l2.16554,-1.36472"/><path d="M176.12643,173.87871l-3.37473,0.07961"/><path d="M175.68226,170.47373l-1.59173,-0.22516l-3.198,-1.50093"/><path d="M175.41117,165.2256l-0.97806,1.074l-4.80426,-2.77665"/><path d="M171.54508,158.48592l3.43278,4.12266"/><path d="M180.78818,151.96248l-2.83,-3.61142"/><path d="M179.90706,145.67781l3.02125,3.08144"/><path d="M187.59763,147.88098l-4.38518,-7.30297"/><path d="M195.56068,143.2068l-1.0724,-5.75467"/><path d="M198.07607,138.4184l0.05804,4.20227"/><path d="M202.45427,139.10328l-2.46824,8.20274"/><g><path d="M212.496,195.97795l1.91651,1.8314"/><path d="M216.511,193.25598l3.01241,2.93152"/><path d="M208.74075,197.94315l0.89835,6.35927"/><path d="M223.10139,192.26275l-2.58055,-2.10394"/><path d="M206.07616,200.63325l-0.31673,-3.37043"/><path d="M201.80145,204.11199l-0.10367,-7.50399"/><path d="M184.09709,195.9678l2.65418,-3.44052"/><path d="M178.63596,191.57835l5.09534,-2.74743"/><path d="M178.3046,185.14949l4.3058,-1.22754"/><path d="M177.45287,182.16699l2.13478,-1.92697"/><path d="M176.27463,155.5469l-2.73711,-2.56268"/><path d="M175.39185,150.31316l3.31318,2.01795"/><path d="M187.69371,138.22787l2.57003,7.06555"/><path d="M190.00781,136.83214l1.87956,7.45716"/><path d="M204.7034,140.37176l0.98519,-6.91211"/><path d="M215.04714,144.76383l3.92749,-7.86432"/><path d="M219.28425,146.86329l1.6328,-6.25638"/><path d="M197.113,202.23855l1.28824,-4.53428"/><path d="M174.95267,176.53366l2.06153,-1.36226"/><path d="M176.58167,171.24073l-3.21402,0.07581"/><path d="M176.15638,167.83534l-1.51611,-0.22696l-3.04672,-1.50449"/><path d="M175.89479,162.58693l-0.93079,1.07283l-4.57734,-2.78201"/><path d="M172.2083,155.84306l3.27206,4.12643"/><path d="M178.3094,145.71549l2.69762,3.61452"/><path d="M181.64308,143.53768l2.87943,3.08477"/><path d="M183.98,140.34229l2.52307,4.66955"/><path d="M194.04531,134.83532l1.02512,5.7558"/><path d="M196.49565,141.0547l-0.05804,-4.20223"/><path d="M201.63309,136.49542l-2.34532,8.19983"/></g><path d="M194.34467,197.43334l-1.74308,4.69382"/><path d="M192.30872,195.30322l-2.71392,4.79309"/><path d="M196.33707,196.47095l-0.56654,5.05599l-0.37526,1.58523"/><path d="M208.73669,140.41149l0.14398,-5.54982"/><path d="M211.53877,135.47351l-0.7215,5.27155"/><path d="M214.71499,135.39868l-1.93373,6.76723"/><path d="M221.29184,194.61952l-2.03231,-3.36747"/><path d="M213.25795,202.42809l-2.31045,-6.02823"/><path d="M215.3473,195.5479l2.03231,3.3675"/><path d="M203.8806,199.23384l1.0724,5.75467"/><path d="M174.26105,182.59266l4.50415,-4.57259"/></g><g stroke-linecap="butt"><path d="M304.04417,179.82912c-0.00697,-5.59656 4.5243,-10.13912 10.12086,-10.14609c5.59657,-0.00697 10.13913,4.52428 10.1461,10.12085c0.00697,5.59656 -4.5243,10.13913 -10.12086,10.1461c-5.59657,0.00697 -10.13913,-4.5243 -10.1461,-10.12086z" fill="#5100a4" stroke="#000000" stroke-width="2.5"/><path d="M312.05929,181.24136c-0.00305,-2.44603 1.97739,-4.43142 4.42344,-4.43446c2.44603,-0.00305 4.43141,1.97739 4.43445,4.42343c0.00305,2.44603 -1.97738,4.43143 -4.42342,4.43447c-2.44603,0.00305 -4.43143,-1.97742 -4.43447,-4.42344z" fill="#000000" stroke="none" stroke-width="0.5"/><path d="M299.67935,181.70243c-0.16767,-9.32989 7.12092,-17.04712 16.27951,-17.23694c9.15858,-0.18983 16.71895,7.21964 16.88663,16.54948c0.16767,9.32989 -7.12087,17.04712 -16.27945,17.23694c-9.15858,0.18983 -16.719,-7.21963 -16.88667,-16.54948z" fill="url(#color-2)" stroke="#000000" stroke-width="0"/></g><g fill="#000000" stroke="#000000" stroke-width="1.5" stroke-linecap="butt"><path d="M318.79985,161.87037l8.93209,-5.88638l-4.21413,9.66149z"/><g><path d="M307.10995,160.16308l1.97214,-10.33236l4.0844,9.78127z"/><path d="M313.1251,160.01575l6.64002,-8.26307l-0.97461,10.47358z"/></g></g><g fill="none" stroke="#000000" stroke-width="1.5" stroke-linecap="round"><path d="M293.57059,159.61893l2.02878,0.95005"/><path d="M292.88836,163.57341l-3.20175,-1.53495"/><path d="M298.57331,160.26708l-2.28813,-4.77681"/><path d="M291.1544,170.08593l-2.30498,-0.91974"/><path d="M299.77262,155.25518l1.08098,2.57265"/><path d="M304.36893,157.30071l-1.90972,-5.88219"/><path d="M315.02498,158.70915l1.94591,-4.98403"/><path d="M322.70949,157.01811l-3.54247,3.47147"/><path d="M323.22465,162.38976l3.25954,-2.07198"/><path d="M327.91293,162.44758l-1.29558,2.06538"/><path d="M338.2419,184.42144l-2.88464,-1.31521"/><path d="M337.35893,187.00069l-2.37656,-0.50723"/><path d="M328.5045,196.82033l2.18913,2.20086"/><path d="M315.87542,203.34039l0.54576,4.70908"/><path d="M304.60677,208.75167l1.00558,-5.22955"/><path d="M301.74568,202.21024l0.35478,4.1208"/><path d="M306.85682,151.89991l0.71884,5.99907"/><path d="M329.97586,167.84341l1.37233,-1.60192"/><path d="M333.92607,169.94265l-2.63732,0.88481"/><path d="M332.4679,173.39979l1.30792,-0.21052l2.88323,0.4025"/><path d="M333.95986,177.46526l0.50832,-1.08376l4.45853,1.01549"/><path d="M334.93853,179.4199l3.70676,2.40923"/><path d="M332.95802,189.21642l3.10768,2.15361"/><path d="M335.18271,193.94929l-3.12914,-1.6898"/><path d="M333.82298,198.76927l-5.2313,-4.68087"/><path d="M325.70775,203.97709l-2.24617,-4.26904"/><path d="M322.64788,204.09045l-1.06943,-3.29404"/><path d="M318.97914,197.55909l0.05523,7.05881"/><g><path d="M297.2735,162.29035l-1.95491,-0.97486"/><path d="M291.69023,163.83737l3.08565,1.57393"/><path d="M297.49459,155.04101l2.25644,4.7874"/><path d="M289.82962,167.79875l2.54406,1.02763"/><path d="M302.26376,159.63771l-1.07044,-2.57617"/><path d="M303.71108,153.28155l1.90972,5.88217"/><path d="M317.63163,155.78645l-1.2513,3.35511"/><path d="M323.16973,159.14677l-3.34192,3.40419"/><path d="M326.82826,162.48532l-3.09063,2.01533"/><path d="M327.01422,166.66281l1.21113,-2.03705"/><path d="M338.41707,186.64567l-2.77906,-1.35063"/><path d="M334.50814,188.41873l3.09987,0.78146"/><path d="M327.12318,196.77497l3.74451,4.93616"/><path d="M326.08963,197.96099l3.29635,5.41266"/><path d="M317.86308,209.8487l-0.90833,-5.68148"/><path d="M306.56578,210.37742l1.17599,-7.14789"/><path d="M303.8947,202.60898l0.23876,5.32304"/><path d="M307.94888,157.4976l-0.09048,-3.88339"/><path d="M331.56596,168.45143l-1.29104,1.57465"/><path d="M331.57301,173.01507l2.51173,-0.84267"/><path d="M332.73744,175.59232l1.24883,-0.19068l2.76501,0.44216"/><path d="M334.22198,179.66033l0.4714,-1.07133l4.2812,1.07499"/><path d="M335.18586,181.61992l3.58116,2.45135"/><path d="M333.42702,191.34211l3.00423,2.1883"/><path d="M332.60384,194.35783l3.01829,1.72697"/><path d="M330.15233,196.08048l3.12383,3.06138"/><path d="M324.48474,201.64778l2.20922,4.28144"/><path d="M324.31925,204.92406l-1.06942,-3.29401"/><path d="M320.16486,199.44426l0.15129,7.02658"/></g><path d="M310.84295,155.54179l0.59415,-2.93894"/><path d="M314.29889,153.46909l-0.96882,4.43446"/><path d="M309.87433,157.96566l-0.78572,-4.11828l-0.09077,-1.33937"/><path d="M313.67629,203.42224l1.23868,4.4041"/><path d="M312.76698,209.68848l-0.71625,-4.32573"/><path d="M310.28478,210.52122l-0.12631,-5.79851"/><path d="M290.68003,165.50257l2.42029,2.1559"/><path d="M298.38973,161.58096l-3.28745,-4.18278"/><path d="M292.71335,161.16759l2.42029,2.15592"/><path d="M303.2627,157.62834l-2.24617,-4.26904"/><path d="M328.20252,168.21007l2.43187,-4.697"/></g><g fill="none" stroke="#000000" stroke-width="9" stroke-linecap="round"><path d="M236.29054,184.49529l21.39535,-49.35865l-4.52467,79.95458l-2.44382,-7.54749" data-paper-data="{&quot;index&quot;:null}"/><g><path d="M166.11855,207.64974l-2.29145,3.02612l0.85891,4.95393l16.79688,-87.61747l25.59769,51.24663"/><path d="M258.44757,180.5066l41.04486,-49.26381l-10.2033,84.38748l-1.5144,-6.0845l2.51655,-3.74692" data-paper-data="{&quot;index&quot;:null}"/><path d="M204.47379,202.904l-3.69266,5.157l0.91506,4.51914l10.72266,-74.59189l8.26218,48.14896"/></g></g><g stroke="#000000" stroke-width="0" stroke-linecap="butt"><path d="M145.63607,170.93517c0,-3.28672 2.66442,-5.95115 5.95116,-5.95115c3.28672,0 5.95116,2.66442 5.95116,5.95116c0,3.28672 -2.66443,5.95116 -5.95115,5.95116c-3.28672,0 -5.95115,-2.66442 -5.95115,-5.95116z" fill="#5100a4"/><path d="M137.09787,171.25612c-0.13903,-8.31237 6.36309,-15.17972 14.52287,-15.33868c8.15977,-0.15897 14.88723,6.45067 15.02629,14.76299c0.13903,8.31237 -6.36305,15.17972 -14.52283,15.33867c-8.15977,0.15897 -14.88729,-6.45066 -15.02632,-14.76298z" fill="url(#color-3)"/><path d="M138.14396,171.10982c-0.12676,-7.57891 5.80164,-13.84034 13.24144,-13.98528c7.4398,-0.14494 13.57367,5.88151 13.70044,13.46039c0.12676,7.57891 -5.8016,13.84034 -13.2414,13.98528c-7.4398,0.14494 -13.57371,-5.8815 -13.70047,-13.46039z" fill="url(#color-4)"/></g><path d="M193.27156,181.60469c-0.58549,-35.00541 26.79651,-63.92549 61.15933,-64.59492c34.36277,-0.66947 62.69376,27.16535 63.27936,62.17054c0.58549,35.00542 -26.79635,63.92549 -61.15917,64.59487c-34.36277,0.66947 -62.69401,-27.1653 -63.27949,-62.1705z" fill="url(#color-5)" stroke="#000000" stroke-width="0" stroke-linecap="butt"/><path d="M133.93849,180.49318c-0.6026,-36.02864 27.57979,-65.79406 62.94705,-66.48304c35.36722,-0.68903 64.52632,27.9594 65.12905,63.98781c0.6026,36.02863 -27.57962,65.79406 -62.94688,66.48301c-35.36722,0.68903 -64.52658,-27.95936 -65.12918,-63.98776z" fill="url(#color-6)" stroke="#000000" stroke-width="0" stroke-linecap="butt"/><path d="M221.7717,180.5713c-0.59425,-35.52915 27.19743,-64.88191 62.07437,-65.56135c34.87689,-0.67948 63.63174,27.57178 64.22611,63.1007c0.59425,35.52915 -27.19727,64.8819 -62.07421,65.5613c-34.87689,0.67948 -63.632,-27.57173 -64.22624,-63.10066z" fill="url(#color-7)" stroke="#000000" stroke-width="0" stroke-linecap="butt"/><path d="M159.27272,179.10206c-0.56885,-34.01065 26.03502,-62.10888 59.42133,-62.75927c33.38626,-0.65044 60.91214,26.39336 61.48111,60.40379c0.56885,34.01064 -26.03486,62.10888 -59.42117,62.75923c-33.38626,0.65044 -60.91238,-26.39332 -61.48123,-60.40375z" fill="url(#color-8)" stroke="#000000" stroke-width="0" stroke-linecap="butt"/></g></g></svg>