<svg version="1.1" xmlns="http://www.w3.org/2000/svg" xmlns:xlink="http://www.w3.org/1999/xlink" width="185.96953" height="111.84975" viewBox="0,0,185.96953,111.84975"><defs><linearGradient x1="301.46339" y1="237.87931" x2="358.67449" y2="237.87931" gradientUnits="userSpaceOnUse" id="color-1"><stop offset="0" stop-color="#666666" stop-opacity="0"/><stop offset="1" stop-color="#666666"/></linearGradient><linearGradient x1="184.84665" y1="218.60472" x2="216.02374" y2="218.60472" gradientUnits="userSpaceOnUse" id="color-2"><stop offset="0" stop-color="#1e0000"/><stop offset="1" stop-color="#400000"/></linearGradient><linearGradient x1="182.57265" y1="250.98602" x2="208.23749" y2="250.98602" gradientUnits="userSpaceOnUse" id="color-3"><stop offset="0" stop-color="#6b0000"/><stop offset="1" stop-color="#ca0000"/></linearGradient><linearGradient x1="305.1368" y1="237.52147" x2="357.64385" y2="237.52147" gradientUnits="userSpaceOnUse" id="color-4"><stop offset="0" stop-color="#252525" stop-opacity="0"/><stop offset="1" stop-color="#252525"/></linearGradient></defs><g transform="translate(-177.16958,-161.72209)"><g data-paper-data="{&quot;isPaintingLayer&quot;:true}" fill-rule="nonzero" stroke-linejoin="miter" stroke-miterlimit="10" stroke-dasharray="" stroke-dashoffset="0" style="mix-blend-mode: normal"><path d="M259.9546,170.51019c1.87155,3.2997 2.46116,7.61632 1.77799,9.35724c-1.59143,4.05542 -7.47108,8.33655 -7.47108,8.33655c0,0 -3.72659,-3.02294 -4.59503,-4.21006c-0.77836,-1.06399 -0.44591,-4.09131 -0.44591,-4.09131c0,0 4.01717,0.07691 6.10231,-1.89512c1.73586,-1.6417 1.61482,-5.33642 1.52601,-5.80658c-0.63709,-3.37275 -1.86559,-7.19769 -1.86559,-7.19769c0,0 3.12455,2.25102 4.9713,5.50698z" data-paper-data="{&quot;index&quot;:null}" fill="#360000" stroke="#000000" stroke-width="2.5" stroke-linecap="butt"/><path d="M223.75357,164.95709c0,0 -1.2285,3.82494 -1.86559,7.19769c-0.08881,0.47016 -0.20985,4.16489 1.52601,5.80659c2.08514,1.97203 6.10231,1.89512 6.10231,1.89512c0,0 0.33245,3.02732 -0.44591,4.09131c-0.86844,1.18712 -3.84512,4.58502 -3.84512,4.58502c0,0 -6.62955,-4.65608 -8.22098,-8.7115c-0.68317,-1.74092 -0.09356,-6.05754 1.77799,-9.35724c1.84674,-3.25597 4.97129,-5.50699 4.97129,-5.50699z" fill="#360000" stroke="#000000" stroke-width="2.5" stroke-linecap="butt"/><path d="M318.26232,236.25482c-6.15613,-0.20254 -22.87328,-5.89849 -33.6019,-10.78327c-10.72862,-4.88478 -24.16336,-18.12568 -24.16336,-18.12568" data-paper-data="{&quot;index&quot;:null}" fill="none" stroke="#000000" stroke-width="17" stroke-linecap="round"/><path d="M301.46339,212.65678c0,0 55.8679,11.32003 57.18562,24.69707c1.42243,14.4398 -57.18562,25.748 -57.18562,25.748" fill="url(#color-1)" stroke="#ffffff" stroke-width="0" stroke-linecap="round"/><path d="M264.58538,236.70475l-2.38364,4.56778l1.54086,4.94534c0,0 -1.15402,4.20176 -1.17385,5.06093c-0.03561,1.54244 1.7574,4.80442 1.7574,4.80442l-1.7668,4.04779l-0.8942,5.97517c0,0 -7.2883,1.64454 -9.24672,1.64454c-2.02482,0 -6.57601,-0.52518 -6.57601,-0.52518c0,0 -2.96599,-16.01278 -3.40382,-21.78197c-0.03761,-0.49579 -0.83479,-1.99279 -2.82469,0.426c-1.97923,2.40581 -5.33299,21.96875 -5.25663,21.65353c0.12813,-0.52889 -15.89514,0.16916 -16.01687,-1.00361c-0.13634,-1.31342 -0.40006,-8.52837 -0.40006,-8.52837l-1.4499,-3.85715c0,0 1.73347,-1.86995 1.96497,-3.96528c0.14587,-1.32028 -0.80526,-5.32035 -0.80526,-5.32035l2.61331,-4.13389l-0.70277,-3.78989c0,0 2.90543,-4.91405 3.33834,-6.01947c0.65884,-1.68232 13.06487,3.46085 18.62365,3.56288c7.82218,0.14358 20.99243,-5.17579 20.99243,-5.17579z" data-paper-data="{&quot;index&quot;:null}" fill="#191919" stroke="#000000" stroke-width="2.5" stroke-linecap="butt"/><g stroke="#000000"><g data-paper-data="{&quot;index&quot;:null}"><path d="M197.46617,268.25493l-5.94957,2.98504l-0.39953,-4.59362l-4.37239,1.65544l0.45011,-4.60952l-5.12453,-0.87364l1.96801,-4.50354l-4.47688,-3.04902l2.59233,-4.64192l-2.84174,-3.42749l4.29586,-3.34164l-3.14884,-4.14575l4.3822,-1.71667" fill="#000000" stroke-width="3" stroke-linecap="round"/><g data-paper-data="{&quot;index&quot;:null}"><path d="M210.74531,259.14347l-25.89866,-77.46775l5.98109,-4.92517l25.196,78.92469c0,0 -1.01317,4.06917 -1.94928,4.68424c-0.80281,0.52748 -3.32918,-1.216 -3.32918,-1.216z" fill="url(#color-2)" stroke-width="2.5" stroke-linecap="butt"/><path d="M202.4811,234.00938l5.75639,19.63387l-9.8184,14.31941c0,0 -10.48387,-0.51315 -15.05064,-13.12879c-2.8495,-7.87167 2.86936,-17.51256 2.86936,-17.51256z" fill="url(#color-3)" stroke-width="3" stroke-linecap="round"/></g></g><path d="M184.75651,255.47923l6.82369,-1.83705" fill="none" stroke-width="2.5" stroke-linecap="round"/><path d="M189.30632,247.26451l-4.83958,1.59562" fill="none" stroke-width="2.5" stroke-linecap="round"/><path d="M192.53209,260.25436l-5.06259,1.37721" fill="none" stroke-width="2.5" stroke-linecap="round"/></g><path d="M222.56021,207.42703c0,0 -5.55312,19.50524 -10.76974,26.8697c-5.21662,7.36446 -9.49175,-13.45011 -9.92973,-10.29521" data-paper-data="{&quot;index&quot;:null}" fill="none" stroke="#000000" stroke-width="17" stroke-linecap="round"/><path d="M223.52281,206.60084c0,0 -5.55312,19.50524 -10.76974,26.8697c-5.21662,7.36446 -9.49175,-13.45011 -9.92973,-10.29521" data-paper-data="{&quot;index&quot;:null}" fill="none" stroke="#101010" stroke-width="14" stroke-linecap="round"/><path d="M208.8334,227.45746c-2.51827,1.87486 -9.8873,0.62525 -11.72965,0.41612c-0.83451,-0.09473 -2.29582,-2.24082 -3.32983,-4.71128c-1.03401,-2.47046 -1.62459,-6.16685 -1.44432,-6.69515c0.17299,-0.50696 5.07518,-5.27708 10.49396,-4.74298c2.95542,0.29131 4.8702,3.86006 5.88752,5.22649c2.88258,3.87178 4.09733,7.54731 0.1223,10.50677z" data-paper-data="{&quot;index&quot;:null}" fill="#000000" stroke="#000000" stroke-width="1.5" stroke-linecap="butt"/><path d="M214.19342,221.99178c0,0 0.56739,1.86598 1.95315,2.77773c0.39546,0.26019 3.13631,-2.13678 3.13631,-2.13678c0,0 1.00721,3.36706 1.69244,4.20432c0.76574,0.93563 3.54221,0.52046 3.54221,0.52046c0,0 -1.59849,2.91388 -1.43108,3.14481c0.35533,0.49017 2.88612,1.42416 2.88612,1.42416l-3.76988,2.01046l1.06646,3.03825c0,0 -8.49287,5.80785 -9.51336,3.31253c-0.15228,-0.37237 -1.77205,-1.43452 -2.33251,-2.35891c-0.34071,-0.56194 0.27736,-0.94374 0.21786,-1.46155c-0.14483,-1.26047 0.45802,-1.57511 -0.09289,-2.38678c-0.5248,-0.77321 -1.98778,0.0887 -2.68073,-0.29252c-0.81406,-0.44787 0.90425,-2.31916 0.84083,-3.13441c-0.03793,-0.48769 -1.93782,-0.02542 -1.99352,-0.24547c-0.53819,-2.12632 0.41281,-4.72465 0.41281,-4.72465z" data-paper-data="{&quot;index&quot;:null}" fill="#191919" stroke="#000000" stroke-width="2.5" stroke-linecap="butt"/><path d="M229.57095,190.01269c0,-3.34821 -3.59996,-15.6753 -0.52641,-13.89736c2.51776,1.45644 5.48927,4.29007 5.48927,4.29007l2.80871,-3.7836l3.37815,4.17996c0,0 -0.12508,-8.42683 0.79412,-7.473c0.1113,0.11548 2.83198,2.92509 2.83198,2.92509l4.30051,0.73382l0.13871,3.5822l2.7347,-4.25353c0,0 2.20323,2.55569 2.78471,3.08277c4.43598,4.02093 2.27799,8.94195 2.76447,10.81482c1.40581,5.41219 -5.67325,10.26995 -13.1051,10.26995c-7.43186,0 -14.39378,-4.35471 -14.39378,-10.47117z" data-paper-data="{&quot;index&quot;:null}" fill="#000000" stroke="none" stroke-width="0" stroke-linecap="butt"/><path d="M257.08813,235.43183c-0.03079,0.06723 -0.80916,2.31489 -1.93399,2.53594c-4.41989,0.86856 -13.9423,1.17109 -13.9423,1.17109c-6.93414,0.2278 -15.09212,-1.8908 -15.09212,-1.8908l-5.93264,-2.08166c0,0 -2.7892,-1.34902 -2.63751,-2.07631c0.16857,-0.8082 3.60364,-2.55578 3.60364,-2.55578l-4.65473,-3.06664l5.10906,-1.99797l-5.1857,-2.63753c0,0 1.45254,-2.06682 4.99254,-4.06154c2.24464,-1.26481 6.91576,-3.5899 7.30201,-4.77449c2.08354,-6.39 0.37143,-14.38855 0.59542,-14.70756c1.68789,-2.40394 -0.75931,2.668 9.43452,2.20964c8.64295,-0.3886 7.30447,-2.807 9.44754,-2.93051c1.45568,-0.0839 4.24482,8.60166 8.16622,14.62327c2.93012,4.49942 6.95858,6.36306 6.95858,6.36306l-3.4775,0.05318l4.61212,4.63123l-3.3804,1.29277c0,0 -0.13698,2.12695 -0.13704,2.18916c-0.00114,1.12567 3.41525,3.55062 3.41525,3.55062l-2.36887,2.10788c0,0 -4.45042,1.08419 -4.89411,2.05293z" data-paper-data="{&quot;index&quot;:null}" fill="#191919" stroke="#000000" stroke-width="2.5" stroke-linecap="butt"/><path d="M262.59862,269.25248c0,0.61111 -17.27298,0.87519 -17.27298,0.06344c0,-1.25098 0.25881,-5.6005 0.25881,-5.6005l17.05059,-0.28269c0,0 -0.03645,4.6115 -0.03645,5.81975z" data-paper-data="{&quot;index&quot;:null}" fill="#000000" stroke="#000000" stroke-width="2" stroke-linecap="butt"/><path d="M236.17925,268.6391c0,0.65299 -1.46942,1.4967 -3.01367,1.4967c-2.11128,0 -8.04496,0 -11.62081,0c-1.6787,0 -2.86872,-1.15589 -2.86872,-1.89227c0,-1.25842 -0.22786,-4.97212 -0.22786,-4.97212h17.73105c0,0 0,4.13108 0,5.36769z" data-paper-data="{&quot;index&quot;:null}" fill="#000000" stroke="#000000" stroke-width="2" stroke-linecap="butt"/><path d="M253.04023,255.45384l-9.47153,1.08985l-0.70209,-5.52604l10.00475,1.52335l10.00475,-1.33279v4.76381z" data-paper-data="{&quot;index&quot;:null}" fill="#000000" stroke="#000000" stroke-width="2.5" stroke-linecap="butt"/><path d="M228.79569,255.58342l-9.00309,0.34213v-5.76851l9.19356,1.87308l9.73434,-1.87308l-0.90133,5.2878z" data-paper-data="{&quot;index&quot;:null}" fill="#000000" stroke="#000000" stroke-width="2.5" stroke-linecap="butt"/><path d="M218.11213,217.11184c0,0 0.66867,-2.22536 -0.10418,-4.04429c-0.22055,-0.51907 -4.52116,0.04968 -4.52116,0.04968c0,0 1.22305,-4.00458 1.09591,-5.28729c-0.14207,-1.43343 -3.17011,-2.85397 -3.17011,-2.85397c0,0 3.50862,-1.8354 3.49496,-2.17494c-0.02897,-0.72072 -1.92292,-3.31738 -1.92292,-3.31738l5.06625,0.49375l0.94728,-3.71753c0,0 12.25719,-0.15598 11.62264,2.99266c-0.09469,0.46986 0.811,2.59241 0.75688,3.87921c-0.0329,0.78226 -0.89795,0.75307 -1.18067,1.30596c-0.6882,1.34587 -1.49383,1.26011 -1.48304,2.42879c0.01027,1.11332 2.03026,1.22387 2.46602,2.05933c0.51191,0.98149 -2.42749,1.70366 -2.90262,2.55417c-0.28423,0.50878 1.90539,1.3041 1.81541,1.55913c-0.86944,2.46433 -3.52755,4.41404 -3.52755,4.41404z" data-paper-data="{&quot;index&quot;:null}" fill="#191919" stroke="#000000" stroke-width="2.5" stroke-linecap="butt"/><path d="M225.19903,186.8806l-1.31944,-4.68217l1.98474,0.44464l-0.6653,-5.25336l1.76615,1.80142l3.1744,-6.09834l0.07187,2.2643l4.64695,-4.74632c0,0 3.04116,-1.71399 4.3456,-1.71399c1.30632,0 3.03468,0.57588 4.71896,1.29458c0.93519,0.39906 4.17531,4.94179 4.17531,4.94179l0.61581,-2.35643l3.81507,6.89593l1.91756,-2.1564l-0.33638,6.16403l2.09563,-1.35531l-1.75926,4.55562c0,0 1.65415,10.52419 1.02974,10.88501c-7.79863,4.50652 -10.66021,5.92904 -15.48344,6.19342c-7.06745,0.38739 -15.81204,-5.10561 -15.81204,-5.10561l1.01805,-11.97282z" fill="#191919" stroke="#000000" stroke-width="2" stroke-linecap="butt"/><path d="M315.64736,235.62115c-6.15613,-0.19574 -21.0845,-6.56496 -31.81312,-11.28584c-10.72862,-4.72088 -24.16336,-17.5175 -24.16336,-17.5175" data-paper-data="{&quot;index&quot;:null}" fill="none" stroke="#101010" stroke-width="13" stroke-linecap="round"/><path d="M305.1368,210.7856c0,0 51.27428,11.99921 52.48365,26.17887c1.30546,15.30618 -52.48365,27.29287 -52.48365,27.29287" fill="url(#color-4)" stroke="#1b1b1b" stroke-width="3.5" stroke-linecap="round"/><path d="M331.38858,230.48504c5.16535,2.30225 4.42884,6.1224 1.78946,10.39691c-0.93149,1.50856 -2.50147,5.33259 -5.8838,6.08195c-6.20154,1.37394 -12.77766,-2.57192 -13.07198,-3.04563c-0.13444,-0.21639 -0.31563,-3.07772 0.32807,-5.60249c0.82483,-3.23532 2.59004,-6.28385 3.1252,-6.40961c2.10343,-0.49433 10.44072,-2.87963 13.71307,-1.42113z" data-paper-data="{&quot;index&quot;:null}" fill="#000000" stroke="#000000" stroke-width="1.5" stroke-linecap="butt"/><path d="M257.5167,218.86849c0,0 -2.86631,-1.62824 -4.01571,-3.9751c-0.11896,-0.24287 1.96364,-1.28679 1.62232,-1.75917c-0.57057,-0.78967 -3.5739,-1.16604 -3.17928,-2.20027c0.33591,-0.88037 2.32945,-1.22445 2.21052,-2.33145c-0.12484,-1.16204 -0.91508,-0.98342 -1.75473,-2.24038c-0.34493,-0.51636 -1.20076,-0.38704 -1.32417,-1.1602c-0.20301,-1.27184 0.45038,-3.48511 0.30183,-3.94082c-0.99548,-3.05379 11.19709,-4.32053 11.19709,-4.32053l1.37207,3.58257l4.9748,-1.07804c0,0 -1.57999,2.7988 -1.52517,3.51802c0.02583,0.33883 3.72364,1.75489 3.72364,1.75489c0,0 -2.84284,1.76216 -2.81769,3.2024c0.0225,1.2888 1.70177,5.12449 1.70177,5.12449c0,0 -4.33755,-0.06611 -4.49641,0.47505c-0.55666,1.8963 0.36561,4.02908 0.36561,4.02908z" data-paper-data="{&quot;index&quot;:null}" fill="#191919" stroke="#000000" stroke-width="2.5" stroke-linecap="butt"/><path d="M275.89498,198.93837c0,0 -13.4968,14.47525 -25.47053,19.24613c-11.17167,4.45131 -38.57978,3.07251 -38.57978,3.07251" fill="none" stroke="#000000" stroke-width="1.5" stroke-linecap="round"/><path d="M278.82284,205.9603c0,0 0.00059,0.77342 -8.81523,7.83925c-6.06898,4.86425 -12.68285,9.55113 -17.71563,11.5112c-11.51662,4.48524 -39.73505,3.18618 -39.73505,3.18618" fill="none" stroke="#000000" stroke-width="1.5" stroke-linecap="round"/><path d="M282.54008,213.42674c0,0 -14.53274,14.57717 -27.06103,19.40261c-11.68909,4.50221 -40.3127,3.24299 -40.3127,3.24299" fill="none" stroke="#000000" stroke-width="1" stroke-linecap="round"/><path d="M311.46639,209.88061c0,0 48.52814,12.59439 49.67272,27.47737c1.23554,16.06538 -49.67272,28.64662 -49.67272,28.64662" fill="none" stroke="#000000" stroke-width="4" stroke-linecap="round"/><path d="M262.32358,216.64203c0,0 -4.46368,-0.01522 -6.25699,0.0804c-2.43712,0.12994 -4.35773,3.06786 -6.35181,2.89472c-3.96461,-0.34424 -2.72928,-3.04163 -6.50965,-2.89977c-2.35274,0.08829 -4.11463,3.05639 -6.45148,3.81488c-2.76235,0.8966 -3.56682,-3.64748 -5.27032,-3.64748c-0.39291,0 -4.44788,1.56217 -4.8456,1.56641c-5.74541,0.06125 -7.98611,-2.53023 -7.98611,-2.53023" fill="none" stroke="#000000" stroke-width="2.5" stroke-linecap="round"/><path d="M262.5535,225.81585c0,0 -4.46368,-0.01522 -6.25699,0.0804c-2.43712,0.12994 -4.35773,3.06786 -6.35181,2.89472c-3.96461,-0.34424 -2.72928,-3.04163 -6.50965,-2.89977c-2.35274,0.08829 -4.11463,3.05639 -6.45148,3.81488c-2.76235,0.8966 -3.56682,-3.64748 -5.27032,-3.64748c-0.39291,0 -4.44788,1.56217 -4.8456,1.56641c-5.74541,0.06125 -7.98611,-2.53023 -7.98611,-2.53023" fill="none" stroke="#000000" stroke-width="2.5" stroke-linecap="round"/><g fill="#000000" stroke="#000000" stroke-width="2" stroke-linecap="round"><path d="M334.05018,231.6546l3.32832,0.1802l-2.65205,2.12631"/><path d="M334.75889,234.271l3.05934,1.32311l-3.22481,1.07479"/><path d="M334.36277,237.80958l2.83208,1.7577l-3.34761,0.58996"/><path d="M333.20156,240.54829l2.04689,2.63067l-3.34449,-0.60742"/><path d="M331.30055,243.20072l1.75867,2.83148l-3.26199,-0.95602"/></g><path d="M312.03129,243.61224c0,0 1.03185,-5.90559 1.88388,-8.13374c0.73789,-1.92963 5.39117,-7.54671 5.39117,-7.54671l3.01825,2.34003c0,0 -4.4047,5.14168 -5.23233,7.306c-0.84401,2.20718 -1.52834,7.0805 -1.52834,7.0805z" fill="#191919" stroke="#000000" stroke-width="2" stroke-linecap="butt"/><path d="M210.83878,221.15333l1.61815,3.69142c0,0 -3.87214,3.34415 -5.9056,4.59141c-1.76102,1.08015 -7.20135,2.4789 -7.20135,2.4789l-1.33021,-3.22198c0,0 5.3169,-1.64607 7.29211,-2.8576c2.01432,-1.23553 5.52691,-4.68216 5.52691,-4.68216z" fill="#191919" stroke="#000000" stroke-width="2" stroke-linecap="butt"/><g fill="#000000" stroke="#000000" stroke-width="2" stroke-linecap="round"><path d="M192.73106,214.7338l-0.95183,-3.1944l2.89558,1.7805"/><path d="M194.95566,213.18493l0.21488,-3.32626l2.09855,2.67408"/><path d="M198.42078,212.36556l0.70064,-3.25873l1.68344,2.95306"/><path d="M201.39061,212.53604l1.78713,-2.8136l0.55504,3.35358"/><path d="M204.52848,213.43213l2.07331,-2.6099l0.19902,3.39337"/></g><path d="M262.33283,244.10444c0,0 -4.39083,-0.01522 -6.15487,0.0804c-2.39733,0.12994 -4.28661,3.06786 -6.24814,2.89472c-3.8999,-0.34424 -2.68473,-3.04163 -6.40341,-2.89977c-2.31434,0.08829 -4.04747,3.05639 -6.34618,3.81488c-2.71726,0.8966 -3.50861,-3.64748 -5.1843,-3.64748c-0.3865,0 -4.37529,1.56217 -4.76653,1.56641c-5.65163,0.06125 -7.85576,-2.53023 -7.85576,-2.53023" fill="none" stroke="#000000" stroke-width="2.5" stroke-linecap="round"/><path d="M283.48017,236.18754c0,0 1.24137,-1.96427 0.98503,-3.92388c-0.07315,-0.55922 -4.36863,-1.16551 -4.36863,-1.16551c0,0 2.25291,-3.52943 2.47468,-4.79921c0.24784,-1.41897 -2.28788,-3.60005 -2.28788,-3.60005c0,0 3.87248,-0.82644 3.95045,-1.15719c0.16552,-0.70205 -0.96207,-3.71174 -0.96207,-3.71174l4.74788,1.83529l1.91022,-3.32692c0,0 11.84939,3.13927 10.3931,6.0021c-0.21732,0.42721 0.08551,2.71496 -0.31197,3.94003c-0.24163,0.74473 -1.06711,0.48446 -1.48784,0.94119c-1.02415,1.1118 -1.77721,0.81298 -2.08046,1.94168c-0.28889,1.07523 1.62732,1.72384 1.82288,2.6456c0.22972,1.08287 -2.79566,0.98968 -3.48161,1.68148c-0.41035,0.41383 1.4855,1.76762 1.33038,1.98914c-1.49891,2.14059 -4.58276,3.3054 -4.58276,3.3054z" data-paper-data="{&quot;index&quot;:null}" fill="#191919" stroke="#000000" stroke-width="2.5" stroke-linecap="butt"/><path d="M224.16096,183.90755c0,0 3.146,-1.64938 6.89599,-2.11646c0.38808,-0.04835 1.37376,1.40553 2.15749,1.24107c1.31015,-0.27492 2.65314,-2.15569 4.06866,-1.78425c1.20492,0.31619 1.18595,1.63273 2.84346,1.68354c1.73992,0.05334 1.68541,-0.47339 3.75283,-0.86708c0.8493,-0.16174 0.88446,-0.72482 2.05273,-0.71518c1.92178,0.01585 5.00126,0.68832 5.70979,0.64544c4.74801,-0.28737 3.40136,7.66857 3.40136,7.66857l-5.62388,0.46797l0.27493,3.31055c0,0 -3.6959,-1.33323 -4.76687,-1.38062c-0.50455,-0.02234 -3.55759,2.18406 -3.55759,2.18406c0,0 -1.84081,-2.02329 -3.96318,-2.1724c-1.89921,-0.13344 -7.97575,0.50228 -7.97575,0.50228c0,0 1.2382,-2.77107 0.48502,-2.93492c-2.63928,-0.57414 -6.01504,-0.228 -6.01504,-0.228z" data-paper-data="{&quot;index&quot;:null}" fill="#191919" stroke="#000000" stroke-width="2.5" stroke-linecap="butt"/><g fill="#191919" stroke="#000000" stroke-linecap="butt"><g><path d="M216.69664,262.71418c0,0 2.02001,0.25963 3.58301,0.00887c0.44603,-0.07156 -0.34586,-1.587 -0.34586,-1.587c0,0 3.63636,0.47414 4.76648,0.44393c1.26292,-0.03375 2.32178,-1.08031 2.32178,-1.08031c0,0 1.8634,1.25177 2.16389,1.25079c0.63781,-0.00207 2.81638,-0.63747 2.81638,-0.63747l-0.10013,1.77216l3.36313,0.37414c0,0 0.95657,4.30271 -1.88072,4.04468c-0.42339,-0.03851 -2.24705,0.25545 -3.39292,0.22201c-0.69659,-0.02034 -0.72841,-0.32354 -1.23805,-0.42895c-1.2406,-0.2566 -1.21828,-0.53833 -2.25494,-0.54767c-0.98757,-0.0089 -0.95088,0.69865 -1.66338,0.84218c-0.83707,0.1686 -1.67431,-0.87092 -2.461,-1.0472c-0.47059,-0.10545 -1.03044,0.65394 -1.26281,0.6195c-2.24553,-0.33276 -4.15363,-1.28737 -4.15363,-1.28737z" data-paper-data="{&quot;index&quot;:null}" stroke-width="2.5"/><path d="M217.62862,271.48545c0,0 -2.03675,-2.39951 -1.90787,-3.22315c0.15339,-0.98034 2.76754,-2.27108 2.76754,-2.27108c0,0 4.21837,1.29895 6.52186,1.48447c3.51863,0.28338 12.5355,0.05035 12.5355,0.05035l3.33717,3.33826z" stroke-width="2"/></g><g><path d="M244.89663,262.41418c0,0 2.02001,0.25963 3.58301,0.00887c0.44603,-0.07156 -0.34586,-1.587 -0.34586,-1.587c0,0 3.63637,0.47413 4.76648,0.44393c1.26292,-0.03375 2.32179,-1.08031 2.32179,-1.08031c0,0 1.86341,1.25177 2.16388,1.25079c0.63781,-0.00207 2.81637,-0.63747 2.81637,-0.63747l-0.10012,1.77216l3.36313,0.37414c0,0 0.95658,4.30271 -1.88072,4.04468c-0.42338,-0.03851 -2.24705,0.25545 -3.39292,0.22201c-0.69659,-0.02034 -0.72841,-0.32355 -1.23805,-0.42896c-1.2406,-0.2566 -1.21828,-0.53833 -2.25494,-0.54767c-0.98756,-0.00891 -0.95087,0.69865 -1.66338,0.84217c-0.83706,0.16861 -1.67431,-0.87092 -2.461,-1.04719c-0.4706,-0.10544 -1.03044,0.65393 -1.2628,0.61949c-2.24552,-0.33276 -4.15363,-1.28737 -4.15363,-1.28737z" data-paper-data="{&quot;index&quot;:null}" stroke-width="2.5"/><path d="M245.82861,271.18545c0,0 -2.03674,-2.3995 -1.90787,-3.22315c0.15339,-0.98034 2.76754,-2.27108 2.76754,-2.27108c0,0 4.21838,1.29896 6.52186,1.48447c3.51864,0.28338 12.5355,0.05035 12.5355,0.05035l3.33718,3.33827z" stroke-width="2"/></g></g></g></g></svg>