<svg version="1.1" xmlns="http://www.w3.org/2000/svg" xmlns:xlink="http://www.w3.org/1999/xlink" width="23.6893" height="11.92352" viewBox="0,0,23.6893,11.92352"><defs><radialGradient cx="254.61601" cy="176.75879" r="1.09001" gradientUnits="userSpaceOnUse" id="color-1"><stop offset="0" stop-color="#006bff"/><stop offset="1" stop-color="#006bff" stop-opacity="0"/></radialGradient></defs><g transform="translate(-246.4246,-173.85206)"><g data-paper-data="{&quot;isPaintingLayer&quot;:true}" fill-rule="nonzero" stroke-linejoin="miter" stroke-miterlimit="10" stroke-dasharray="" stroke-dashoffset="0" style="mix-blend-mode: normal"><path d="M258.38897,180.0173v-1.62414h5.28461v1.62414z" data-paper-data="{&quot;index&quot;:null}" fill="#006bff" stroke="#000000" stroke-width="0.375" stroke-linecap="butt"/><path d="M265.88627,178.22473v-2.98022h3.73407c0,0 0.30606,0.99341 0.30606,1.49011c0,0.4967 -0.30606,1.49011 -0.30606,1.49011z" data-paper-data="{&quot;index&quot;:null}" fill="#1a1a1a" stroke="#000000" stroke-width="0.375" stroke-linecap="butt"/><path d="M257.75828,176.23203v-1.53801h8.03537l0.61871,1.32226l-0.61871,0.21575z" data-paper-data="{&quot;index&quot;:null}" fill="#1a1a1a" stroke="#000000" stroke-width="0.375" stroke-linecap="butt"/><path d="M255.18345,181.23605v-1.8228h2.1572v1.8228z" data-paper-data="{&quot;index&quot;:null}" fill="#333333" stroke="#000000" stroke-width="0.375" stroke-linecap="butt"/><path d="M257.65979,178.31329v-2.37073h11.1555c0,0 0.25839,0.8105 0.25839,1.23251c0,0.3575 -0.95359,3.28353 -0.95359,3.28353l-1.18513,0.02181l0.66681,-2.16711z" data-paper-data="{&quot;index&quot;:null}" fill="#333333" stroke="#000000" stroke-width="0.375" stroke-linecap="butt"/><path d="M250.07586,175.40176c0,0 -0.50187,-0.22879 -0.65545,-0.38236c-0.13545,-0.13545 -0.27312,-0.66734 -0.27312,-0.66734" data-paper-data="{&quot;index&quot;:null}" fill="none" stroke="#000000" stroke-width="1" stroke-linecap="round"/><path d="M249.69008,175.84365c0,-0.43481 0.42477,-0.78727 0.94877,-0.78727c0.52401,0 0.94876,0.35248 0.94876,0.78728c0,0.43481 -0.42478,0.78728 -0.94876,0.78728c-0.52401,0 -0.94875,-0.35249 -0.94875,-0.78727z" data-paper-data="{&quot;index&quot;:null}" fill="#1a1a1a" stroke="#000000" stroke-width="0.375" stroke-linecap="butt"/><path d="M249.27118,178.41953c0,-0.53227 0,-1.74925 0,-1.74925c0,0 1.15231,-0.29896 1.5311,-0.67285c0.3849,-0.37992 0.76032,-1.58884 0.76032,-1.58884c0,0 5.15304,-0.05782 5.90855,-0.01108c0.03673,0.00227 0.91378,1.63367 0.91378,1.63367l-0.02847,3.54229l-3.1937,0.03051l-0.04314,-0.63732c0,0 -5.84844,-0.19847 -5.84844,-0.54711z" data-paper-data="{&quot;index&quot;:null}" fill="#333333" stroke="#000000" stroke-width="0.375" stroke-linecap="butt"/><path d="M252.06856,178.49751c0,0 -0.30794,-1.05429 -0.29712,-1.74504c0.01081,-0.69074 0.34982,-1.62082 0.34982,-1.62082h4.67327c0,0 0.85474,0.91089 0.87609,1.63419c0.02137,0.72332 -0.77668,1.73166 -0.77668,1.73166z" data-paper-data="{&quot;index&quot;:null}" fill="#006bff" stroke="#000000" stroke-width="0.375" stroke-linecap="butt"/><path d="M250.35546,175.6989c0,0 -0.60531,-0.27594 -0.79056,-0.46118c-0.16337,-0.16337 -0.3294,-0.80489 -0.3294,-0.80489" data-paper-data="{&quot;index&quot;:null}" fill="none" stroke="#1a1a1a" stroke-width="0.375" stroke-linecap="round"/><path d="M252.67162,175.14246h3.68376c0,0 0.40237,0.86895 0.43217,1.45558c0.02979,0.58663 -0.26629,1.8108 -0.26629,1.8108h-3.78499c0,0 -0.23274,-1.02063 -0.23749,-1.65416c-0.00475,-0.63354 0.17286,-1.61221 0.17286,-1.61221z" data-paper-data="{&quot;index&quot;:null}" fill="#333333" stroke="#000000" stroke-width="0.25" stroke-linecap="butt"/><path d="M252.10783,177.20888l-0.20447,-0.38953l0.22661,-0.4352h5.04221l0.27807,0.40054l-0.27807,0.42419z" data-paper-data="{&quot;index&quot;:null}" fill="#1a1a1a" stroke="#000000" stroke-width="0.375" stroke-linecap="butt"/><path d="M247.73046,180.76515c0.03424,-0.08633 0.50486,-0.18961 0.82749,-0.71737c0.36609,-0.59882 0.5871,-2.1767 0.5871,-2.1767c0,0 2.58181,-0.0022 3.54062,-0.00308c0.18762,-0.00017 0.18262,0.7182 0.18262,0.7182l1.66175,-0.01121l0.02099,0.26552l-2.32844,0.00647c0,0 -1.10095,1.17215 -1.13815,1.17537c-0.062,0.0613 -1.12256,0.9762 -1.20884,1.11973c-0.6822,1.04198 -0.66038,2.82747 -0.82144,3.35619c-0.05812,0.09437 0.90619,0.05163 0.90619,0.05163c0,0 0.32155,0.28861 0.32658,0.47447c0.00492,0.18211 -0.29673,0.54081 -0.29673,0.54081l-3.28588,0.0224c0,0 -0.24996,-0.22432 -0.27972,-0.51401c-0.02977,-0.28969 0.30459,-0.54268 0.30459,-0.54268c0,0 0.66262,-2.91158 1.00127,-3.76576z" data-paper-data="{&quot;index&quot;:null}" fill="#1a1a1a" stroke="#000000" stroke-width="0.375" stroke-linecap="butt"/><path d="M253.52772,180.17737c0,0 -0.4585,-0.28739 -0.53308,-0.42604c-0.11363,-0.21121 -0.25619,-0.75868 -0.25619,-0.75868" data-paper-data="{&quot;index&quot;:null}" fill="none" stroke="#000000" stroke-width="0.75" stroke-linecap="round"/><path d="M253.54105,180.16199c0,0 -0.45852,-0.28739 -0.53312,-0.42604c-0.11361,-0.21121 -0.25617,-0.7587 -0.25617,-0.7587" data-paper-data="{&quot;index&quot;:null}" fill="none" stroke="#333333" stroke-width="0.375" stroke-linecap="round"/><path d="M250.63624,178.92522l4.88991,-0.05679c0,0 -0.20583,1.72437 -0.91604,2.2312c-0.73511,0.5246 -3.82802,0.50103 -3.82802,0.50103z" data-paper-data="{&quot;index&quot;:null}" fill="none" stroke="#000000" stroke-width="0.75" stroke-linecap="butt"/><path d="M251.18769,178.9724l4.33848,-0.10398c0,0 -0.25224,1.72778 -0.94708,2.22364c-0.74748,0.53344 -3.87071,0.50858 -3.87071,0.50858z" data-paper-data="{&quot;index&quot;:null}" fill="none" stroke="#1a1a1a" stroke-width="0.25" stroke-linecap="butt"/><path d="M248.60023,181.25093c0.03424,-0.07651 0.50485,-0.16801 0.82749,-0.63567c0.36609,-0.53062 0.58708,-1.92876 0.58708,-1.92876l2.3387,0.03521c0,0 -0.22505,0.39575 -0.31294,0.90261c-0.0723,0.41689 0.00095,0.96168 -0.08637,0.96842c-0.062,0.05431 -1.12256,0.86501 -1.20884,0.9922c-0.6822,0.92329 -0.6159,2.46601 -0.77696,2.93452c-0.09914,0.14261 -2.36948,0.06831 -2.36948,0.06831c0,0 0.44593,-2.09558 1.0013,-3.33686z" data-paper-data="{&quot;index&quot;:null}" fill="#333333" stroke="#000000" stroke-width="0.375" stroke-linecap="butt"/><path d="M248.60808,183.60568c0,-0.21423 0.17368,-0.38791 0.38791,-0.38791c0.21423,0 0.38791,0.17368 0.38791,0.38791c0,0.21423 -0.17368,0.38791 -0.38791,0.38791c-0.21423,0 -0.38791,-0.17368 -0.38791,-0.38791z" data-paper-data="{&quot;index&quot;:null}" fill="#1a1a1a" stroke="#000000" stroke-width="0.2" stroke-linecap="butt"/><path d="M255.97083,177.89361h-2.62076" data-paper-data="{&quot;index&quot;:null}" fill="none" stroke="#000000" stroke-width="0.25" stroke-linecap="round"/><path d="M255.93394,175.67886h-2.62079" data-paper-data="{&quot;index&quot;:null}" fill="none" stroke="#000000" stroke-width="0.25" stroke-linecap="round"/><path d="M253.7509,176.74122l0.83032,-0.98745l0.83032,0.98745l-0.83032,0.98745z" data-paper-data="{&quot;index&quot;:null}" fill="#006bff" stroke="#000000" stroke-width="0.2" stroke-linecap="butt"/><path d="M253.52602,176.75879c0,-0.60199 0.48801,-1.08999 1.09,-1.08999c0.60199,0 1.09001,0.488 1.09001,1.08999c0,0.60199 -0.48801,1.09 -1.09001,1.09c-0.60199,0 -1.09,-0.48801 -1.09,-1.09z" data-paper-data="{&quot;index&quot;:null}" fill="url(#color-1)" stroke="#000000" stroke-width="0" stroke-linecap="butt"/><path d="M257.29113,180.46444l-0.94011,-0.8887h3.85711h3.85712v0.8887z" data-paper-data="{&quot;index&quot;:null}" fill="#1a1a1a" stroke="#000000" stroke-width="0.375" stroke-linecap="butt"/><path d="M252.66757,178.87304l-0.25839,-0.51678" data-paper-data="{&quot;index&quot;:null}" fill="none" stroke="#1a1a1a" stroke-width="0.375" stroke-linecap="round"/><path d="M264.72402,180.50886v-2.10179l-1.02893,-0.94976h4.25294l-0.97749,3.05156z" data-paper-data="{&quot;index&quot;:null}" fill="#1a1a1a" stroke="#000000" stroke-width="0.375" stroke-linecap="butt"/><path d="M263.62931,180.45903v-2.06708h1.16275l1.08162,0.97946l-1.08162,1.08762z" data-paper-data="{&quot;index&quot;:null}" fill="#333333" stroke="#000000" stroke-width="0.375" stroke-linecap="butt"/><path d="M258.9843,178.99077c0,-0.47473 0.38483,-0.85954 0.85954,-0.85954c0.47472,0 0.85954,0.38483 0.85954,0.85954c0,0.47473 -0.38483,0.85954 -0.85954,0.85954c-0.47472,0 -0.85954,-0.38484 -0.85954,-0.85954z" data-paper-data="{&quot;index&quot;:null}" fill="#1a1a1a" stroke="#000000" stroke-width="0.375" stroke-linecap="butt"/><path d="M264.14594,179.48004c0,-0.21423 0.17368,-0.38791 0.38791,-0.38791c0.21423,0 0.38791,0.17368 0.38791,0.38791c0,0.21423 -0.17367,0.38791 -0.38791,0.38791c-0.21423,0 -0.38791,-0.17368 -0.38791,-0.38791z" data-paper-data="{&quot;index&quot;:null}" fill="#1a1a1a" stroke="#000000" stroke-width="0.2" stroke-linecap="butt"/><path d="M265.83857,178.06383l-0.04167,-2.25046l0.38791,-0.45843l0.36225,0.45843l0.08336,2.25046l-0.37508,0.46306z" data-paper-data="{&quot;index&quot;:null}" fill="#373737" stroke="#000000" stroke-width="0.25" stroke-linecap="butt"/><path d="M259.73734,176.43683l-0.31006,-0.51678l0.31006,-0.51678h4.52176l0.33591,0.51678l-0.33591,0.51678z" data-paper-data="{&quot;index&quot;:null}" fill="#006bff" stroke="#000000" stroke-width="0.375" stroke-linecap="butt"/><path d="M265.77649,177.37888h-7.46449" data-paper-data="{&quot;index&quot;:null}" fill="none" stroke="#000000" stroke-width="0.25" stroke-linecap="round"/></g></g></svg>