<svg version="1.1" xmlns="http://www.w3.org/2000/svg" xmlns:xlink="http://www.w3.org/1999/xlink" width="415.5167" height="35.46335" viewBox="0,0,415.5167,35.46335"><defs><linearGradient x1="73.47706" y1="187.49668" x2="73.47706" y2="210.49668" gradientUnits="userSpaceOnUse" id="color-1"><stop offset="0" stop-color="#35ff00"/><stop offset="1" stop-color="#35ff00" stop-opacity="0"/></linearGradient><linearGradient x1="185.2522" y1="187.49668" x2="185.2522" y2="210.29668" gradientUnits="userSpaceOnUse" id="color-2"><stop offset="0" stop-color="#35ff00"/><stop offset="1" stop-color="#35ff00" stop-opacity="0"/></linearGradient><linearGradient x1="294.71844" y1="187.24668" x2="294.71844" y2="210.04668" gradientUnits="userSpaceOnUse" id="color-3"><stop offset="0" stop-color="#ff0000"/><stop offset="1" stop-color="#ff0000" stop-opacity="0"/></linearGradient><linearGradient x1="404.71849" y1="187.08001" x2="404.71849" y2="209.88001" gradientUnits="userSpaceOnUse" id="color-4"><stop offset="0" stop-color="#ff0000"/><stop offset="1" stop-color="#ff0000" stop-opacity="0"/></linearGradient></defs><g transform="translate(-31.68454,-174.83333)"><g data-paper-data="{&quot;isPaintingLayer&quot;:true}" fill-rule="nonzero" stroke-linecap="butt" stroke-linejoin="miter" stroke-miterlimit="10" stroke-dasharray="" stroke-dashoffset="0" style="mix-blend-mode: normal"><path d="M31.68454,210.09668l11.54628,-22.6h60.49246l12.92678,22.8z" fill="url(#color-1)" stroke="none" stroke-width="0"/><path d="M142.7694,210.09668l11.54628,-22.6h60.49246l12.92678,22.8z" fill="url(#color-2)" stroke="none" stroke-width="0"/><path d="M252.23571,209.84668l11.54628,-22.6h60.49246l12.92678,22.8z" fill="url(#color-3)" stroke="none" stroke-width="0"/><path d="M68.40788,179.97624c0,-2.20914 1.76215,-4 3.93587,-4c2.17372,0 3.93587,1.79086 3.93587,4c0,2.20914 -1.76215,4 -3.93587,4c-2.17372,0 -3.93587,-1.79086 -3.93587,-4z" fill="#35ff00" stroke="#000000" stroke-width="2"/><path d="M180.55253,180c0,-2.20914 1.76215,-4 3.93587,-4c2.17372,0 3.93587,1.79086 3.93587,4c0,2.20914 -1.76215,4 -3.93587,4c-2.17372,0 -3.93587,-1.79086 -3.93587,-4z" fill="#35ff00" stroke="#000000" stroke-width="2"/><path d="M289.77284,180.5c0,-2.20914 1.76215,-4 3.93587,-4c2.17372,0 3.93587,1.79086 3.93587,4c0,2.20914 -1.76215,4 -3.93587,4c-2.17372,0 -3.93587,-1.79086 -3.93587,-4z" fill="#ff0000" stroke="#000000" stroke-width="2"/><path d="M362.23572,209.68001l11.54628,-22.6h60.49246l12.92678,22.8z" fill="url(#color-4)" stroke="none" stroke-width="0"/><path d="M399.77284,179.83333c0,-2.20914 1.76215,-4 3.93587,-4c2.17372,0 3.93586,1.79086 3.93586,4c0,2.20914 -1.76214,4 -3.93586,4c-2.17372,0 -3.93587,-1.79086 -3.93587,-4z" fill="#ff0000" stroke="#000000" stroke-width="2"/></g></g></svg>