<svg version="1.1" xmlns="http://www.w3.org/2000/svg" xmlns:xlink="http://www.w3.org/1999/xlink" width="314.03517" height="128.94281" viewBox="0,0,314.03517,128.94281"><defs><linearGradient x1="60.23671" y1="194.98491" x2="60.23671" y2="205.40569" gradientUnits="userSpaceOnUse" id="color-1"><stop offset="0" stop-color="#121533"/><stop offset="1" stop-color="#000000"/></linearGradient><linearGradient x1="77.49159" y1="194.98491" x2="77.49159" y2="205.40569" gradientUnits="userSpaceOnUse" id="color-2"><stop offset="0" stop-color="#121533"/><stop offset="1" stop-color="#000000"/></linearGradient><linearGradient x1="69.57004" y1="194.65156" x2="69.57004" y2="205.07238" gradientUnits="userSpaceOnUse" id="color-3"><stop offset="0" stop-color="#121533"/><stop offset="1" stop-color="#000000"/></linearGradient><linearGradient x1="86.49159" y1="194.98491" x2="86.49159" y2="205.40569" gradientUnits="userSpaceOnUse" id="color-4"><stop offset="0" stop-color="#121533"/><stop offset="1" stop-color="#000000"/></linearGradient><linearGradient x1="96.57004" y1="195.31822" x2="96.57004" y2="205.73904" gradientUnits="userSpaceOnUse" id="color-5"><stop offset="0" stop-color="#121533"/><stop offset="1" stop-color="#000000"/></linearGradient><linearGradient x1="113.82492" y1="195.31822" x2="113.82492" y2="205.73904" gradientUnits="userSpaceOnUse" id="color-6"><stop offset="0" stop-color="#121533"/><stop offset="1" stop-color="#000000"/></linearGradient><linearGradient x1="105.90338" y1="194.98491" x2="105.90338" y2="205.40569" gradientUnits="userSpaceOnUse" id="color-7"><stop offset="0" stop-color="#121533"/><stop offset="1" stop-color="#000000"/></linearGradient><linearGradient x1="123.15826" y1="194.98491" x2="123.15826" y2="205.40569" gradientUnits="userSpaceOnUse" id="color-8"><stop offset="0" stop-color="#121533"/><stop offset="1" stop-color="#000000"/></linearGradient><linearGradient x1="132.57004" y1="194.65156" x2="132.57004" y2="205.07237" gradientUnits="userSpaceOnUse" id="color-9"><stop offset="0" stop-color="#121533"/><stop offset="1" stop-color="#000000"/></linearGradient><linearGradient x1="149.82492" y1="194.65156" x2="149.82492" y2="205.07237" gradientUnits="userSpaceOnUse" id="color-10"><stop offset="0" stop-color="#121533"/><stop offset="1" stop-color="#000000"/></linearGradient><linearGradient x1="141.90338" y1="194.31822" x2="141.90338" y2="204.73904" gradientUnits="userSpaceOnUse" id="color-11"><stop offset="0" stop-color="#121533"/><stop offset="1" stop-color="#000000"/></linearGradient><linearGradient x1="158.82492" y1="194.65156" x2="158.82492" y2="205.07237" gradientUnits="userSpaceOnUse" id="color-12"><stop offset="0" stop-color="#121533"/><stop offset="1" stop-color="#000000"/></linearGradient><linearGradient x1="168.90338" y1="194.98491" x2="168.90338" y2="205.40569" gradientUnits="userSpaceOnUse" id="color-13"><stop offset="0" stop-color="#121533"/><stop offset="1" stop-color="#000000"/></linearGradient><linearGradient x1="186.15826" y1="194.98491" x2="186.15826" y2="205.40569" gradientUnits="userSpaceOnUse" id="color-14"><stop offset="0" stop-color="#121533"/><stop offset="1" stop-color="#000000"/></linearGradient><linearGradient x1="178.23671" y1="194.65156" x2="178.23671" y2="205.07237" gradientUnits="userSpaceOnUse" id="color-15"><stop offset="0" stop-color="#121533"/><stop offset="1" stop-color="#000000"/></linearGradient><linearGradient x1="195.49159" y1="194.65156" x2="195.49159" y2="205.07237" gradientUnits="userSpaceOnUse" id="color-16"><stop offset="0" stop-color="#121533"/><stop offset="1" stop-color="#000000"/></linearGradient></defs><g transform="translate(-53.62505,-77.81768)"><g data-paper-data="{&quot;isPaintingLayer&quot;:true}" fill-rule="nonzero" stroke="#000000" stroke-width="1.5" stroke-linecap="round" stroke-linejoin="miter" stroke-miterlimit="10" stroke-dasharray="" stroke-dashoffset="0" style="mix-blend-mode: normal"><path d="M151.04745,87.47429h-6.0049c0,0 1.36041,-1.11503 1.59565,-1.93223c0.47361,-1.64533 1.34009,-4.70425 1.34009,-4.70425c0,0 0.82764,3.00287 1.42638,4.66688c0.31096,0.86423 1.6428,1.9696 1.6428,1.9696z" fill="#000000"/><path d="M158.73019,87.53889h-6.0049c0,0 1.36041,-1.11503 1.59565,-1.93223c0.47361,-1.64533 1.34009,-4.70425 1.34009,-4.70425c0,0 0.82764,3.00287 1.42638,4.66688c0.31096,0.86423 1.64279,1.96961 1.64279,1.96961z" fill="#000000"/><path d="M166.41294,87.47429h-6.0049c0,0 1.36041,-1.11502 1.59564,-1.93223c0.47361,-1.64533 1.34009,-4.70426 1.34009,-4.70426c0,0 0.82764,3.00287 1.42638,4.66689c0.31096,0.86423 1.64279,1.9696 1.64279,1.9696z" fill="#000000"/><path d="M174.2723,87.53889h-6.00491c0,0 1.36042,-1.11503 1.59565,-1.93223c0.47361,-1.64533 1.34008,-4.70425 1.34008,-4.70425c0,0 0.82765,3.00287 1.42638,4.66688c0.31096,0.86423 1.64279,1.96961 1.64279,1.96961z" fill="#000000"/><path d="M181.95503,87.60347h-6.0049c0,0 1.36041,-1.11503 1.59565,-1.93223c0.47361,-1.64533 1.34009,-4.70425 1.34009,-4.70425c0,0 0.82764,3.00287 1.42637,4.66688c0.31096,0.86423 1.64279,1.9696 1.64279,1.9696z" fill="#000000"/><path d="M189.63778,87.53889h-6.0049c0,0 1.36041,-1.11503 1.59565,-1.93223c0.47361,-1.64533 1.34009,-4.70425 1.34009,-4.70425c0,0 0.82764,3.00287 1.42638,4.66688c0.31096,0.86423 1.64279,1.96961 1.64279,1.96961z" fill="#000000"/><path d="M102.88078,87.24095h-6.0049c0,0 1.36041,-1.11502 1.59565,-1.93223c0.47361,-1.64533 1.34008,-4.70426 1.34008,-4.70426c0,0 0.82765,3.00286 1.42639,4.66688c0.31096,0.86422 1.64279,1.96961 1.64279,1.96961z" fill="#000000"/><path d="M110.56353,87.30554h-6.0049c0,0 1.36041,-1.11503 1.59564,-1.93223c0.4736,-1.64533 1.34009,-4.70425 1.34009,-4.70425c0,0 0.82764,3.00287 1.42638,4.66688c0.31096,0.86422 1.64279,1.96961 1.64279,1.96961z" fill="#000000"/><path d="M118.24627,87.24095h-6.00491c0,0 1.36041,-1.11503 1.59564,-1.93224c0.4736,-1.64533 1.34009,-4.70425 1.34009,-4.70425c0,0 0.82764,3.00287 1.42638,4.66688c0.31097,0.86422 1.64279,1.96961 1.64279,1.96961z" fill="#000000"/><path d="M126.10563,87.30554h-6.00491c0,0 1.36041,-1.11503 1.59565,-1.93223c0.4736,-1.64533 1.34009,-4.70425 1.34009,-4.70425c0,0 0.82764,3.00287 1.42638,4.66688c0.31097,0.86422 1.64279,1.96961 1.64279,1.96961z" fill="#000000"/><path d="M133.78837,87.37012h-6.0049c0,0 1.36041,-1.11502 1.59564,-1.93223c0.4736,-1.64533 1.34009,-4.70426 1.34009,-4.70426c0,0 0.82765,3.00286 1.42638,4.66688c0.31097,0.86422 1.64279,1.96961 1.64279,1.96961z" fill="#000000"/><path d="M141.47112,87.30554h-6.0049c0,0 1.36041,-1.11503 1.59565,-1.93223c0.4736,-1.64533 1.34008,-4.70425 1.34008,-4.70425c0,0 0.82765,3.00287 1.42638,4.66688c0.31097,0.86422 1.64279,1.96961 1.64279,1.96961z" fill="#000000"/><path d="M85.21412,87.49095h-6.0049c0,0 1.36041,-1.11502 1.59565,-1.93223c0.47362,-1.64533 1.34009,-4.70426 1.34009,-4.70426c0,0 0.82764,3.00286 1.42638,4.66688c0.31097,0.86422 1.64279,1.96961 1.64279,1.96961z" fill="#000000"/><path d="M93.39686,87.55554h-6.00491c0,0 1.36041,-1.11503 1.59565,-1.93223c0.4736,-1.64533 1.34009,-4.70425 1.34009,-4.70425c0,0 0.82764,3.00287 1.42637,4.66688c0.31096,0.86422 1.6428,1.96961 1.6428,1.96961z" fill="#000000"/><path d="M263.21411,87.64095h-6.0049c0,0 1.36041,-1.11503 1.59565,-1.93223c0.47361,-1.64533 1.34009,-4.70425 1.34009,-4.70425c0,0 0.82764,3.00287 1.42638,4.66688c0.31096,0.86423 1.6428,1.9696 1.6428,1.9696z" fill="#000000"/><path d="M270.89685,87.70555h-6.0049c0,0 1.36041,-1.11503 1.59565,-1.93223c0.47361,-1.64533 1.34009,-4.70425 1.34009,-4.70425c0,0 0.82764,3.00287 1.42638,4.66688c0.31096,0.86423 1.64279,1.96961 1.64279,1.96961z" fill="#000000"/><path d="M278.5796,87.64095h-6.0049c0,0 1.36041,-1.11502 1.59564,-1.93223c0.47361,-1.64533 1.34009,-4.70426 1.34009,-4.70426c0,0 0.82764,3.00287 1.42638,4.66689c0.31096,0.86423 1.64279,1.9696 1.64279,1.9696z" fill="#000000"/><path d="M286.43896,87.70555h-6.00491c0,0 1.36042,-1.11503 1.59565,-1.93223c0.47361,-1.64533 1.34008,-4.70425 1.34008,-4.70425c0,0 0.82765,3.00287 1.42638,4.66688c0.31096,0.86423 1.64279,1.96961 1.64279,1.96961z" fill="#000000"/><path d="M294.12169,87.77013h-6.0049c0,0 1.36041,-1.11503 1.59565,-1.93223c0.47361,-1.64533 1.34009,-4.70425 1.34009,-4.70425c0,0 0.82764,3.00287 1.42637,4.66688c0.31096,0.86423 1.64279,1.9696 1.64279,1.9696z" fill="#000000"/><path d="M301.80444,87.70555h-6.0049c0,0 1.36041,-1.11503 1.59565,-1.93223c0.47361,-1.64533 1.34009,-4.70425 1.34009,-4.70425c0,0 0.82764,3.00287 1.42638,4.66688c0.31096,0.86423 1.64279,1.96961 1.64279,1.96961z" fill="#000000"/><path d="M215.04744,87.40761h-6.0049c0,0 1.36041,-1.11502 1.59565,-1.93223c0.47361,-1.64533 1.34008,-4.70426 1.34008,-4.70426c0,0 0.82765,3.00286 1.42639,4.66688c0.31096,0.86422 1.64279,1.96961 1.64279,1.96961z" fill="#000000"/><path d="M222.73019,87.4722h-6.0049c0,0 1.36041,-1.11503 1.59564,-1.93223c0.4736,-1.64533 1.34009,-4.70425 1.34009,-4.70425c0,0 0.82764,3.00287 1.42638,4.66688c0.31096,0.86422 1.64279,1.96961 1.64279,1.96961z" fill="#000000"/><path d="M230.41293,87.40761h-6.00491c0,0 1.36041,-1.11503 1.59564,-1.93224c0.4736,-1.64533 1.34009,-4.70425 1.34009,-4.70425c0,0 0.82764,3.00287 1.42638,4.66688c0.31097,0.86422 1.64279,1.96961 1.64279,1.96961z" fill="#000000"/><path d="M238.27229,87.4722h-6.00491c0,0 1.36041,-1.11503 1.59565,-1.93223c0.4736,-1.64533 1.34009,-4.70425 1.34009,-4.70425c0,0 0.82764,3.00287 1.42638,4.66688c0.31097,0.86422 1.64279,1.96961 1.64279,1.96961z" fill="#000000"/><path d="M245.95503,87.53678h-6.0049c0,0 1.36041,-1.11502 1.59564,-1.93223c0.4736,-1.64533 1.34009,-4.70426 1.34009,-4.70426c0,0 0.82765,3.00286 1.42638,4.66688c0.31097,0.86422 1.64279,1.96961 1.64279,1.96961z" fill="#000000"/><path d="M253.63778,87.4722h-6.0049c0,0 1.36041,-1.11503 1.59565,-1.93223c0.4736,-1.64533 1.34008,-4.70425 1.34008,-4.70425c0,0 0.82765,3.00287 1.42638,4.66688c0.31097,0.86422 1.64279,1.96961 1.64279,1.96961z" fill="#000000"/><path d="M197.38078,87.65761h-6.0049c0,0 1.36041,-1.11502 1.59565,-1.93223c0.47362,-1.64533 1.34009,-4.70426 1.34009,-4.70426c0,0 0.82764,3.00286 1.42638,4.66688c0.31097,0.86422 1.64279,1.96961 1.64279,1.96961z" fill="#000000"/><path d="M205.56352,87.7222h-6.00491c0,0 1.36041,-1.11503 1.59565,-1.93223c0.4736,-1.64533 1.34009,-4.70425 1.34009,-4.70425c0,0 0.82764,3.00287 1.42637,4.66688c0.31096,0.86422 1.6428,1.96961 1.6428,1.96961z" fill="#000000"/><path d="M319.21411,87.8354h-6.0049c0,0 1.36041,-1.11503 1.59565,-1.93223c0.47361,-1.64533 1.34009,-4.70425 1.34009,-4.70425c0,0 0.82764,3.00287 1.42638,4.66688c0.31096,0.86423 1.6428,1.9696 1.6428,1.9696z" fill="#000000"/><path d="M326.89685,87.9h-6.0049c0,0 1.36041,-1.11503 1.59565,-1.93223c0.47361,-1.64533 1.34009,-4.70425 1.34009,-4.70425c0,0 0.82764,3.00287 1.42638,4.66688c0.31096,0.86423 1.64279,1.96961 1.64279,1.96961z" fill="#000000"/><path d="M334.5796,87.8354h-6.0049c0,0 1.36041,-1.11502 1.59564,-1.93223c0.47361,-1.64533 1.34009,-4.70426 1.34009,-4.70426c0,0 0.82764,3.00287 1.42638,4.66689c0.31096,0.86423 1.64279,1.9696 1.64279,1.9696z" fill="#000000"/><path d="M342.43896,87.9h-6.00491c0,0 1.36042,-1.11503 1.59565,-1.93223c0.47361,-1.64533 1.34008,-4.70425 1.34008,-4.70425c0,0 0.82765,3.00287 1.42638,4.66688c0.31096,0.86423 1.64279,1.96961 1.64279,1.96961z" fill="#000000"/><path d="M350.12169,87.96458h-6.0049c0,0 1.36041,-1.11503 1.59565,-1.93223c0.47361,-1.64533 1.34009,-4.70425 1.34009,-4.70425c0,0 0.82764,3.00287 1.42637,4.66688c0.31096,0.86423 1.64279,1.9696 1.64279,1.9696z" fill="#000000"/><path d="M357.80444,87.9h-6.0049c0,0 1.36041,-1.11503 1.59565,-1.93223c0.47361,-1.64533 1.34009,-4.70425 1.34009,-4.70425c0,0 0.82764,3.00287 1.42638,4.66688c0.31096,0.86423 1.64279,1.96961 1.64279,1.96961z" fill="#000000"/><path d="M309.63778,87.66665h-6.0049c0,0 1.36041,-1.11503 1.59565,-1.93223c0.4736,-1.64533 1.34008,-4.70425 1.34008,-4.70425c0,0 0.82765,3.00287 1.42638,4.66688c0.31097,0.86422 1.64279,1.96961 1.64279,1.96961z" fill="#000000"/><path d="M359.57732,88.12222c0,0 1.36041,-1.11503 1.59565,-1.93223c0.47361,-1.64533 1.34009,-4.70425 1.34009,-4.70425c0,0 0.82764,3.00287 1.42638,4.66688c0.31096,0.86423 1.64279,1.96961 1.64279,1.96961z" fill="#000000"/><g><path d="M64.80154,205.40569h-9.12969c0,0 2.06833,-1.75086 2.42597,-3.03404c0.72006,-2.58353 2.03744,-7.38675 2.03744,-7.38675c0,0 1.25832,4.71519 2.16863,7.32807c0.47278,1.35704 2.49766,3.09273 2.49766,3.09273z" fill="url(#color-1)"/><path d="M82.05645,205.40569h-9.12969c0,0 2.06833,-1.75084 2.42597,-3.03404c0.72006,-2.58353 2.03743,-7.38675 2.03743,-7.38675c0,0 1.25833,4.71519 2.16863,7.32807c0.47278,1.35703 2.49765,3.09273 2.49765,3.09273z" fill="url(#color-2)"/><path d="M74.13487,205.07238h-9.12969c0,0 2.06833,-1.75086 2.42597,-3.03404c0.72006,-2.58353 2.03744,-7.38675 2.03744,-7.38675c0,0 1.25832,4.71519 2.16863,7.32807c0.47278,1.35704 2.49766,3.09273 2.49766,3.09273z" fill="url(#color-3)"/><path d="M91.05645,205.40569h-9.12969c0,0 2.06833,-1.75084 2.42597,-3.03404c0.72006,-2.58353 2.03743,-7.38675 2.03743,-7.38675c0,0 1.25833,4.71519 2.16863,7.32807c0.47278,1.35703 2.49765,3.09273 2.49765,3.09273z" fill="url(#color-4)"/><path d="M101.13487,205.73904h-9.12969c0,0 2.06833,-1.75086 2.42597,-3.03404c0.72006,-2.58353 2.03744,-7.38675 2.03744,-7.38675c0,0 1.25832,4.71519 2.16863,7.32807c0.47278,1.35704 2.49766,3.09273 2.49766,3.09273z" fill="url(#color-5)"/><path d="M118.38978,205.73904h-9.12969c0,0 2.06833,-1.75084 2.42597,-3.03404c0.72006,-2.58353 2.03743,-7.38675 2.03743,-7.38675c0,0 1.25833,4.71519 2.16863,7.32807c0.47278,1.35703 2.49765,3.09273 2.49765,3.09273z" fill="url(#color-6)"/><path d="M110.46821,205.40569h-9.12969c0,0 2.06833,-1.75086 2.42597,-3.03404c0.72006,-2.58353 2.03744,-7.38675 2.03744,-7.38675c0,0 1.25832,4.71519 2.16863,7.32807c0.47278,1.35704 2.49766,3.09273 2.49766,3.09273z" fill="url(#color-7)"/><path d="M127.72312,205.40569h-9.12969c0,0 2.06833,-1.75084 2.42597,-3.03404c0.72006,-2.58353 2.03743,-7.38675 2.03743,-7.38675c0,0 1.25833,4.71519 2.16863,7.32807c0.47278,1.35703 2.49765,3.09273 2.49765,3.09273z" fill="url(#color-8)"/></g><g><path d="M137.13487,205.07237h-9.12969c0,0 2.06833,-1.75086 2.42597,-3.03404c0.72006,-2.58353 2.03744,-7.38675 2.03744,-7.38675c0,0 1.25832,4.71519 2.16863,7.32807c0.47278,1.35704 2.49766,3.09273 2.49766,3.09273z" fill="url(#color-9)"/><path d="M154.38978,205.07237h-9.12969c0,0 2.06833,-1.75084 2.42597,-3.03404c0.72006,-2.58353 2.03743,-7.38675 2.03743,-7.38675c0,0 1.25833,4.71519 2.16863,7.32807c0.47278,1.35703 2.49765,3.09273 2.49765,3.09273z" fill="url(#color-10)"/><path d="M146.46821,204.73904h-9.12969c0,0 2.06833,-1.75086 2.42597,-3.03404c0.72006,-2.58353 2.03744,-7.38675 2.03744,-7.38675c0,0 1.25832,4.71519 2.16863,7.32807c0.47278,1.35704 2.49766,3.09273 2.49766,3.09273z" fill="url(#color-11)"/><path d="M163.38978,205.07237h-9.12969c0,0 2.06833,-1.75084 2.42597,-3.03404c0.72006,-2.58353 2.03743,-7.38675 2.03743,-7.38675c0,0 1.25833,4.71519 2.16863,7.32807c0.47278,1.35703 2.49765,3.09273 2.49765,3.09273z" fill="url(#color-12)"/><path d="M173.46821,205.40569h-9.12969c0,0 2.06833,-1.75086 2.42597,-3.03404c0.72006,-2.58353 2.03744,-7.38675 2.03744,-7.38675c0,0 1.25832,4.71519 2.16863,7.32807c0.47278,1.35704 2.49766,3.09273 2.49766,3.09273z" fill="url(#color-13)"/><path d="M190.72312,205.40569h-9.12969c0,0 2.06833,-1.75084 2.42597,-3.03404c0.72006,-2.58353 2.03743,-7.38675 2.03743,-7.38675c0,0 1.25833,4.71519 2.16863,7.32807c0.47278,1.35703 2.49765,3.09273 2.49765,3.09273z" fill="url(#color-14)"/><path d="M182.80154,205.07237h-9.12969c0,0 2.06833,-1.75086 2.42597,-3.03404c0.72006,-2.58353 2.03744,-7.38675 2.03744,-7.38675c0,0 1.25832,4.71519 2.16863,7.32807c0.47278,1.35704 2.49766,3.09273 2.49766,3.09273z" fill="url(#color-15)"/><path d="M200.05645,205.07237h-9.12969c0,0 2.06833,-1.75084 2.42597,-3.03404c0.72006,-2.58353 2.03743,-7.38675 2.03743,-7.38675c0,0 1.25833,4.71519 2.16863,7.32807c0.47278,1.35703 2.49765,3.09273 2.49765,3.09273z" fill="url(#color-16)"/></g></g></g></svg>