<svg version="1.1" xmlns="http://www.w3.org/2000/svg" xmlns:xlink="http://www.w3.org/1999/xlink" width="110.13268" height="98.27461" viewBox="0,0,110.13268,98.27461"><defs><linearGradient x1="237.49217" y1="182.75093" x2="241.33434" y2="182.67563" gradientUnits="userSpaceOnUse" id="color-1"><stop offset="0" stop-color="#271100"/><stop offset="1" stop-color="#613700"/></linearGradient><linearGradient x1="234.48757" y1="142.18027" x2="242.18346" y2="142.00403" gradientUnits="userSpaceOnUse" id="color-2"><stop offset="0" stop-color="#ffffff"/><stop offset="1" stop-color="#323232"/></linearGradient><linearGradient x1="260.02898" y1="182.53825" x2="246.76283" y2="162.4092" gradientUnits="userSpaceOnUse" id="color-3"><stop offset="0" stop-color="#cca670"/><stop offset="1" stop-color="#907751"/></linearGradient><linearGradient x1="259.6006" y1="165.78961" x2="254.73227" y2="169.67536" gradientUnits="userSpaceOnUse" id="color-4"><stop offset="0" stop-color="#dadada"/><stop offset="1" stop-color="#898989"/></linearGradient><linearGradient x1="251.49592" y1="172.39938" x2="246.62758" y2="176.28511" gradientUnits="userSpaceOnUse" id="color-5"><stop offset="0" stop-color="#dadada"/><stop offset="1" stop-color="#898989"/></linearGradient><linearGradient x1="249.95796" y1="169.018" x2="245.47193" y2="162.7577" gradientUnits="userSpaceOnUse" id="color-6"><stop offset="0" stop-color="#272727"/><stop offset="1" stop-color="#000000"/></linearGradient><linearGradient x1="221.17822" y1="154.16574" x2="246.32788" y2="137.59083" gradientUnits="userSpaceOnUse" id="color-7"><stop offset="0" stop-color="#202020"/><stop offset="1" stop-color="#000000"/></linearGradient><linearGradient x1="239.7327" y1="137.82844" x2="234.17979" y2="129.40283" gradientUnits="userSpaceOnUse" id="color-8"><stop offset="0" stop-color="#696969"/><stop offset="1" stop-color="#272727"/></linearGradient><linearGradient x1="224.11015" y1="148.42394" x2="218.55725" y2="139.9983" gradientUnits="userSpaceOnUse" id="color-9"><stop offset="0" stop-color="#696969"/><stop offset="1" stop-color="#272727"/></linearGradient><linearGradient x1="231.13028" y1="150.97355" x2="229.53223" y2="152.02673" gradientUnits="userSpaceOnUse" id="color-10"><stop offset="0" stop-color="#000000"/><stop offset="1" stop-color="#414141"/></linearGradient><linearGradient x1="244.54617" y1="149.17252" x2="240.53001" y2="143.07871" gradientUnits="userSpaceOnUse" id="color-11"><stop offset="0" stop-color="#696969"/><stop offset="1" stop-color="#272727"/></linearGradient><radialGradient cx="249.38801" cy="181.04041" r="5.19534" gradientUnits="userSpaceOnUse" id="color-12"><stop offset="0" stop-color="#00059e"/><stop offset="1" stop-color="#1f5cff"/></radialGradient><radialGradient cx="255.30409" cy="171.34208" r="5.19534" gradientUnits="userSpaceOnUse" id="color-13"><stop offset="0" stop-color="#00059e"/><stop offset="1" stop-color="#1f5cff"/></radialGradient><radialGradient cx="255.37" cy="171.2771" r="7.2184" gradientUnits="userSpaceOnUse" id="color-14"><stop offset="0" stop-color="#0015ff"/><stop offset="1" stop-color="#0015ff" stop-opacity="0"/></radialGradient><radialGradient cx="248.91199" cy="180.91815" r="6.6881" gradientUnits="userSpaceOnUse" id="color-15"><stop offset="0" stop-color="#0021ff"/><stop offset="1" stop-color="#0021ff" stop-opacity="0"/></radialGradient><linearGradient x1="231.86924" y1="143.16057" x2="226.31632" y2="134.73496" gradientUnits="userSpaceOnUse" id="color-16"><stop offset="0" stop-color="#696969"/><stop offset="1" stop-color="#272727"/></linearGradient><linearGradient x1="259.95644" y1="141.42587" x2="251.00113" y2="133.85671" gradientUnits="userSpaceOnUse" id="color-17"><stop offset="0" stop-color="#838383"/><stop offset="1" stop-color="#000000"/></linearGradient><linearGradient x1="265.01914" y1="156.33191" x2="259.41638" y2="151.59635" gradientUnits="userSpaceOnUse" id="color-18"><stop offset="0" stop-color="#838383"/><stop offset="1" stop-color="#2c2c2c"/></linearGradient><linearGradient x1="257.36161" y1="155.16969" x2="253.85704" y2="152.20756" gradientUnits="userSpaceOnUse" id="color-19"><stop offset="0" stop-color="#838383"/><stop offset="1" stop-color="#2c2c2c"/></linearGradient><linearGradient x1="270.53319" y1="132.36477" x2="280.3758" y2="136.55672" gradientUnits="userSpaceOnUse" id="color-20"><stop offset="0" stop-color="#000000" stop-opacity="0"/><stop offset="1" stop-color="#000000" stop-opacity="0"/></linearGradient><linearGradient x1="238.07008" y1="154.84002" x2="248.07223" y2="151.04466" gradientUnits="userSpaceOnUse" id="color-21"><stop offset="0" stop-color="#000000" stop-opacity="0"/><stop offset="1" stop-color="#000000" stop-opacity="0"/></linearGradient></defs><g transform="translate(-190.28972,-93.1508)"><g data-paper-data="{&quot;isPaintingLayer&quot;:true}" fill-rule="nonzero" stroke-linejoin="miter" stroke-miterlimit="10" stroke-dasharray="" stroke-dashoffset="0" style="mix-blend-mode: normal"><g data-paper-data="{&quot;index&quot;:null}" stroke="#000000"><g data-paper-data="{&quot;index&quot;:null}"><path d="M241.21104,176.38839l0.30723,13.68325l-4.07002,-0.02341l-0.07941,-13.58448z" data-paper-data="{&quot;index&quot;:null}" fill="url(#color-1)" stroke-width="2" stroke-linecap="butt"/><path d="M241.2907,109.12227l1.78556,65.76343l-7.69587,0.17623c0,0 0.3546,-1.99409 0.15361,-9.39653c-0.21481,-7.90936 0.90897,-34.45406 0.59577,-45.98898c-0.1663,-6.12375 5.16088,-10.55414 5.16088,-10.55414z" data-paper-data="{&quot;index&quot;:null}" fill="url(#color-2)" stroke-width="2" stroke-linecap="butt"/><path d="M243.36484,175.05993l-8.20849,0.50893" data-paper-data="{&quot;index&quot;:null}" fill="none" stroke-width="4" stroke-linecap="round"/><path d="M237.6162,178.98383l3.45637,-0.05663" data-paper-data="{&quot;index&quot;:null}" fill="none" stroke-width="2" stroke-linecap="round"/><path d="M237.56843,181.62305l3.27447,-0.05358" data-paper-data="{&quot;index&quot;:null}" fill="none" stroke-width="1.5" stroke-linecap="round"/><path d="M241.19708,184.53082l-3.18353,0.05212" data-paper-data="{&quot;index&quot;:null}" fill="none" stroke-width="1.5" stroke-linecap="round"/><path d="M237.69724,187.20556l3.18349,-0.05212" data-paper-data="{&quot;index&quot;:null}" fill="none" stroke-width="1.5" stroke-linecap="round"/></g><path d="M239.19347,175.10837c0,0 -0.32311,-48.45897 -0.36936,-57.5596c-0.01447,-2.85169 2.09489,-6.64433 2.09489,-6.64433" fill="none" stroke-width="1" stroke-linecap="round"/></g><path d="M231.31769,163.21833c0,0 -3.75343,1.69307 -8.93335,-1.16773c-5.79203,-3.19884 -1.07752,-2.61905 -2.1942,-2.30308" data-paper-data="{&quot;index&quot;:null}" fill="none" stroke="#121212" stroke-width="10" stroke-linecap="round"/><path d="M221.75871,138.17727l-7.60507,-1.46866l-11.13767,-11.46818" data-paper-data="{&quot;index&quot;:null}" fill="none" stroke="#131313" stroke-width="13" stroke-linecap="round"/><path d="M224.16708,111.35996l5.54307,14.40746l-1.63621,7.55056" data-paper-data="{&quot;index&quot;:null}" fill="none" stroke="#131313" stroke-width="13" stroke-linecap="round"/><path d="M210.96462,123.50058l3.26548,3.64253l-11.23958,7.84292l-3.17946,-3.69465z" data-paper-data="{&quot;index&quot;:null}" fill="#000000" stroke="none" stroke-width="0" stroke-linecap="butt"/><path d="M209.07341,124.29927c1.39447,1.39046 3.499,3.64341 4.35558,4.50931c0.67054,0.67782 0.43894,2.12804 -0.57834,2.8961c-0.76038,0.57408 -2.24592,1.78323 -3.49788,2.77418c-0.96039,0.76016 -2.52142,0.71971 -3.09646,0.13844c-0.82698,-0.83596 -3.16178,-3.19613 -4.6213,-4.6715c-0.72567,-0.73356 -0.45432,-1.8363 0.542,-2.58681c1.343,-1.01165 3.0778,-2.31871 3.82055,-2.87947c0.62193,-0.46955 2.38616,-0.86792 3.07587,-0.18022z" data-paper-data="{&quot;index&quot;:null}" fill="#000000" stroke="none" stroke-width="NaN" stroke-linecap="butt"/><path d="M231.75414,111.33978l1.79383,4.53426l-12.3162,6.43065l-1.70663,-4.58709z" data-paper-data="{&quot;index&quot;:null}" fill="#000000" stroke="none" stroke-width="0" stroke-linecap="butt"/><path d="M221.21146,116.07203c-0.35687,-0.90516 0.70549,-2.36739 1.38132,-2.75267c0.8071,-0.46016 2.68982,-1.53602 4.14709,-2.36896c1.08111,-0.61792 2.19801,-0.43097 2.58266,0.52535c0.77359,1.92342 2.01111,5.00031 2.44943,6.09012c0.30478,0.7578 -0.27551,2.20698 -1.35125,2.7881c-1.40233,0.75756 -3.09681,1.64331 -3.92311,2.11436c-1.10545,0.63022 -2.52476,0.26943 -2.88017,-0.61428c-0.45402,-1.12884 -1.68444,-3.9519 -2.40604,-5.78202z" data-paper-data="{&quot;index&quot;:null}" fill="#000000" stroke="none" stroke-width="NaN" stroke-linecap="butt"/><path d="M227.00988,95.05647c0.24055,0.89408 0.75636,2.81098 1.17568,4.36945c0.34969,1.29962 -0.09262,2.54502 -0.77367,2.72827c-1.80985,0.48697 -9.92915,2.67161 -9.92915,2.67161c0,0 -0.72352,-0.95105 -1.67106,-2.0741c-0.61432,-0.72809 -1.06876,-3.17159 -1.01082,-4.21763c0.09591,-1.73178 0.27127,-2.66749 0.27127,-2.66749c0,0 8.25353,-2.22075 10.02723,-2.69799c0.64057,-0.17234 1.65585,0.94123 1.91055,1.88786z" data-paper-data="{&quot;index&quot;:null}" fill="#000000" stroke="none" stroke-width="0" stroke-linecap="butt"/><path d="M226.10158,100.21206l4.18236,8.38295c0,0 -4.63765,-0.58471 -6.31466,-0.15298c-1.7514,0.45088 -5.86037,3.30923 -5.86037,3.30923l0.12131,-9.18197z" data-paper-data="{&quot;index&quot;:null}" fill="#000000" stroke="none" stroke-width="0" stroke-linecap="butt"/><path d="M201.48498,107.16327c0.44085,0.84459 1.3861,2.6555 2.15457,4.12774c0.64085,1.22774 0.5134,2.55681 -0.09286,2.87328c-1.61114,0.84098 -8.83915,4.61381 -8.83915,4.61381c0,0 -0.91503,-0.80665 -2.08435,-1.74089c-0.75813,-0.60569 -1.76936,-2.95386 -1.96143,-4.00867c-0.31798,-1.74625 -0.37203,-2.71405 -0.37203,-2.71405c0,0 7.34744,-3.83518 8.92644,-4.65935c0.57027,-0.29766 1.80196,0.61387 2.26876,1.50817z" data-paper-data="{&quot;index&quot;:null}" fill="#000000" stroke="none" stroke-width="0" stroke-linecap="butt"/><path d="M200.52495,111.95084l7.21973,8.0774c0,0 -4.77152,0.48879 -6.31617,1.27164c-1.61316,0.81757 -4.74865,4.77155 -4.74865,4.77155l-3.46533,-10.20307z" data-paper-data="{&quot;index&quot;:null}" fill="#000000" stroke="none" stroke-width="0" stroke-linecap="butt"/><path d="M253.95931,157.81784c3.47021,-1.76186 14.43138,12.17382 13.88031,15.48158c-0.63204,3.79362 -5.95569,9.46445 -12.52457,11.19717c-5.51792,1.45548 -9.72357,-2.09607 -12.39877,-5.7945c-2.24935,-3.10967 -6.35005,-6.57476 -4.78626,-9.99412c6.45369,-4.65093 8.97218,-6.76502 15.82929,-10.8901z" data-paper-data="{&quot;index&quot;:null}" fill="url(#color-3)" stroke="none" stroke-width="0" stroke-linecap="butt"/><path d="M258.81733,169.80087c-1.34435,1.07304 -3.1733,1.01683 -4.0851,-0.12551c-0.91178,-1.14234 -0.56113,-2.93823 0.78325,-4.01128c1.34435,-1.07304 3.1733,-1.01683 4.0851,0.12551c0.91178,1.14234 0.56112,2.93823 -0.78325,4.01128z" data-paper-data="{&quot;index&quot;:null}" fill="url(#color-4)" stroke="none" stroke-width="0" stroke-linecap="butt"/><path d="M257.77215,166.75608c0.56889,0.71274 0.45226,1.75171 -0.26046,2.32059c-0.71274,0.56889 -1.75171,0.45226 -2.32059,-0.26046c-0.56889,-0.71274 -0.45227,-1.75171 0.26046,-2.32059c0.71274,-0.56889 1.75171,-0.45226 2.32059,0.26046z" data-paper-data="{&quot;index&quot;:null}" fill="#000000" stroke="none" stroke-width="0" stroke-linecap="butt"/><path d="M261.87899,168.5486c0,0 -1.35296,1.64325 -2.13431,2.26689c-0.79568,0.63511 -2.59762,1.50997 -2.59762,1.50997" data-paper-data="{&quot;index&quot;:null}" fill="none" stroke="#000000" stroke-width="2.5" stroke-linecap="round"/><path d="M253.54303,182.86431c0,0 -1.35293,1.64326 -2.1343,2.26691c-0.79568,0.63511 -2.59762,1.50996 -2.59762,1.50996" data-paper-data="{&quot;index&quot;:null}" fill="none" stroke="#000000" stroke-width="2.5" stroke-linecap="round"/><path d="M250.71266,176.41063c-1.34435,1.07304 -3.1733,1.01683 -4.0851,-0.12551c-0.91178,-1.14234 -0.56113,-2.93823 0.78325,-4.01128c1.34435,-1.07304 3.17331,-1.01683 4.08509,0.1255c0.91178,1.14234 0.56113,2.93823 -0.78325,4.01128z" data-paper-data="{&quot;index&quot;:null}" fill="url(#color-5)" stroke="none" stroke-width="0" stroke-linecap="butt"/><path d="M249.66744,173.36581c0.56889,0.71274 0.45227,1.75171 -0.26046,2.32059c-0.71274,0.56889 -1.75171,0.45226 -2.32059,-0.26046c-0.56889,-0.71274 -0.45226,-1.75171 0.26046,-2.32059c0.71274,-0.56889 1.75171,-0.45226 2.32059,0.26046z" data-paper-data="{&quot;index&quot;:null}" fill="#000000" stroke="none" stroke-width="0" stroke-linecap="butt"/><path d="M240.4392,166.51419l0.98102,0.10791l0.18581,-1.09413l0.98155,-0.35297l1.06889,-0.34122l0.99847,0.19498l0.82329,-0.64355l0.69589,-0.09645l0.52768,-0.7259l0.69893,-1.5649l1.12936,-0.39888l0.59628,-0.99663l0.52345,-0.81962l1.36789,0.23198l1.14297,-0.51486l0.15489,1.05973l1.2131,-0.30437l0.78561,0.85367l-0.72784,0.84657l0.32117,0.72729l0.01937,1.18966l-0.81704,0.60818l-0.6387,1.01267l-0.7556,0.45293l-0.30859,0.99795l-1.0768,0.90582l-0.78473,1.46363l-1.13648,-0.20474l-1.1279,0.52174l-0.96385,-0.18615l-0.78277,0.54578l-0.94357,-0.14798l-0.48374,0.98181l-1.03718,-0.55068l-0.63004,-0.17499l-0.67525,0.68589l-1.35256,-1.0995l-0.12495,-1.2779l-0.22339,-1.26874z" data-paper-data="{&quot;index&quot;:null}" fill="url(#color-6)" stroke="#000000" stroke-width="0" stroke-linecap="butt"/><path d="M267.14884,168.1942l1.68402,0.98525l0.75399,1.48495l1.34586,1.12934l-0.55201,0.93688l-0.47666,0.74083l0.32782,1.26617l-1.5251,0.54584l-0.63986,1.17274l-0.30478,1.86247l-1.35681,-0.1121l-0.93215,1.56003l-1.44081,1.40197l-1.17851,0.85774c0,0 -0.80082,-0.57567 -1.23993,-0.5477c-0.44351,0.02825 -1.40802,0.71646 -1.40802,0.71646l-0.31559,1.3753l-1.15883,0.61335l-1.37599,0.69808l-1.02122,0.92938l-0.99096,0.91102l-0.30822,-1.68277l-0.95757,-0.32727l-1.29749,-0.32996l-1.4509,-0.61553c0,0 -0.51009,-0.79564 -0.45053,-1.14507c0.05245,-0.30771 0.92974,-1.04442 0.92974,-1.04442l1.47457,-0.61208l-0.08112,-1.46632c0,0 0.66414,-0.71337 0.85403,-0.83386c0.28493,-0.18078 0.96932,0.20576 0.96932,0.20576l0.81202,-1.07244c0,0 0.1424,-0.21349 0.43943,-0.38878c0.20421,-0.12051 0.82828,0.13554 0.98117,0.11039c0.26823,-0.04417 0.89996,0.29347 0.89996,0.29347c0,0 0.51055,-0.32758 0.66936,-0.60891c0.19624,-0.34762 -0.37999,-1.63584 -0.37999,-1.63584l1.27032,-0.85083l0.96024,-0.50712l1.45584,-0.63179l0.56032,-0.93985l0.67591,-1.66436l0.89003,-1.24514l1.6191,0.1742l0.23906,-1.42828z" data-paper-data="{&quot;index&quot;:null}" fill="#000000" stroke="#000000" stroke-width="0.5" stroke-linecap="butt"/><path d="M259.78038,153.87389l-23.57823,16.34771c0,0 -6.92846,-11.62204 -10.89829,-16.86919c-3.90113,-5.1563 -13.17728,-14.42354 -13.17728,-14.42354c0,0 6.64743,-7.30061 10.56329,-10.04028c3.90854,-2.73456 12.90994,-6.3824 12.90994,-6.3824c0,0 7.17036,10.40169 11.14625,15.55936c4.08153,5.29466 13.03429,15.80835 13.03429,15.80835z" data-paper-data="{&quot;index&quot;:null}" fill="#191919" stroke="none" stroke-width="0" stroke-linecap="butt"/><path d="M232.51491,166.4159c0,0 -8.43527,-7.27047 -10.68356,-11.55154c-2.83363,-4.01013 -9.73114,-15.02071 -9.73114,-15.02071c0,0 5.67216,-8.58088 10.29757,-12.14934c4.6254,-3.56849 14.01274,-5.81187 14.01274,-5.81187c0,0 8.66536,13.04998 10.85567,17.4722c1.14201,1.70702 5.8517,12.78879 5.8517,12.78879c0,0 -2.23166,2.23409 -5.34192,4.09095c-2.10473,1.25655 -5.28731,3.37085 -7.38254,4.70434c-2.2396,1.42535 -1.21518,1.06967 -2.45531,1.85949z" data-paper-data="{&quot;index&quot;:null}" fill="url(#color-7)" stroke="#000000" stroke-width="2" stroke-linecap="butt"/><path d="M237.76786,128.86291c0.91538,1.38893 4.65122,7.195 4.65122,7.195c0,0 -1.77019,1.16667 -2.66765,1.75814c-0.91426,0.60254 -2.76843,1.82455 -2.76843,1.82455c0,0 -3.777,-5.73099 -4.71444,-7.15332c-0.40889,-0.62044 -0.35381,-1.5917 0.23607,-1.98046c1.13718,-0.74946 2.87945,-1.80545 3.45573,-2.18526c0.33516,-0.2209 1.43128,-0.02936 1.80745,0.54142z" data-paper-data="{&quot;index&quot;:null}" fill="url(#color-8)" stroke="#000000" stroke-width="1" stroke-linecap="butt"/><path d="M241.5181,133.33057c0,0 1.51802,2.30334 1.95384,2.96461c0.20093,0.30488 -0.01012,1.22128 -0.49544,1.54113c-0.79438,0.52354 -3.13141,2.06377 -4.3896,2.89297c-0.46055,0.30355 -1.24622,0.01976 -1.47524,-0.32775c-0.44888,-0.68113 -1.91458,-2.90505 -1.91458,-2.90505z" data-paper-data="{&quot;index&quot;:null}" fill="#282828" stroke="#000000" stroke-width="1" stroke-linecap="butt"/><text transform="translate(239.71333,155.70393) rotate(146.61075) scale(0.06656,0.06656)" font-size="40" xml:space="preserve" data-paper-data="{&quot;index&quot;:null}" fill="#ffffff" fill-rule="nonzero" stroke="#ffffff" stroke-width="2" stroke-linecap="butt" stroke-linejoin="miter" stroke-miterlimit="10" stroke-dasharray="" stroke-dashoffset="0" font-family="Sans Serif" font-weight="normal" text-anchor="start" style="mix-blend-mode: normal"><tspan x="0" dy="0">S.O.A.S.T</tspan></text><path d="M232.38039,150.22842c0.5647,0.30324 1.06999,0.73484 1.46835,1.28501" data-paper-data="{&quot;index&quot;:null}" fill="#e6e016" stroke="#ff1919" stroke-width="3" stroke-linecap="butt"/><path d="M236.61319,169.57945c0,0 -2.24748,-0.80404 -2.85564,-1.624c-0.58287,-0.78586 -1.38272,-2.68364 -1.38272,-2.68364l5.98603,-4.03217c0,0 0.758,2.88659 0.82872,2.9927c0.49579,0.74415 2.33489,1.97099 2.33489,1.97099z" data-paper-data="{&quot;index&quot;:null}" fill="#000000" stroke="#000000" stroke-width="0.5" stroke-linecap="butt"/><path d="M234.55465,153.44043c0.05193,0.70617 -0.09695,1.41583 -0.4287,2.04178" data-paper-data="{&quot;index&quot;:null}" fill="none" stroke="#1921ff" stroke-width="3" stroke-linecap="butt"/><path d="M232.77758,156.91861c-0.72518,0.44728 -1.54684,0.61871 -2.33881,0.54028" data-paper-data="{&quot;index&quot;:null}" fill="none" stroke="#4aff19" stroke-width="3" stroke-linecap="butt"/><path d="M228.49484,156.68262c-0.31399,-0.24503 -0.59403,-0.54457 -0.82534,-0.89554c-0.15441,-0.23428 -0.27916,-0.47948 -0.37522,-0.73121" data-paper-data="{&quot;index&quot;:null}" fill="none" stroke="#fff719" stroke-width="3" stroke-linecap="butt"/><path d="M227.02918,153.31926c0.11408,-0.67701 0.41238,-1.32175 0.8782,-1.85294" data-paper-data="{&quot;index&quot;:null}" fill="none" stroke="#ff9319" stroke-width="3" stroke-linecap="butt"/><path d="M222.14535,139.45836c0.91538,1.38893 4.65122,7.195 4.65122,7.195l-5.43608,3.58268c0,0 -3.777,-5.73099 -4.71444,-7.15332c-0.40889,-0.62044 -0.35381,-1.5917 0.23607,-1.98046c1.13718,-0.74946 2.87945,-1.80545 3.45573,-2.18526c0.33516,-0.2209 1.43128,-0.02936 1.80745,0.54142z" data-paper-data="{&quot;index&quot;:null}" fill="url(#color-9)" stroke="#000000" stroke-width="1" stroke-linecap="butt"/><path d="M230.78289,153.92452l-0.90333,-4.84869" data-paper-data="{&quot;index&quot;:null}" fill="none" stroke="url(#color-10)" stroke-width="1.5" stroke-linecap="round"/><path d="M232.11975,152.9502c0.46236,0.70153 0.26847,1.64506 -0.43311,2.10743c-0.70152,0.46236 -1.64506,0.26845 -2.10744,-0.43311c-0.46236,-0.70153 -0.26845,-1.64505 0.43312,-2.10743c0.70152,-0.46236 1.64506,-0.26847 2.10743,0.43311z" data-paper-data="{&quot;index&quot;:null}" fill="#ffffff" stroke="none" stroke-width="3" stroke-linecap="butt"/><path d="M251.33352,159.37043c0,0 -1.12317,-1.43361 -1.76402,-2.20068c-0.70177,-0.84002 -2.20528,-2.06465 -2.20528,-2.06465l5.11523,-3.40597c0,0 1.99237,0.82491 2.62128,1.74682c0.5615,0.82307 1.66089,2.45245 1.66089,2.45245z" data-paper-data="{&quot;index&quot;:null}" fill="#000000" stroke="#000000" stroke-width="0.5" stroke-linecap="butt"/><path d="M257.62635,183.81175c-3.969,1.73058 -0.70981,6.16065 -5.21627,5.17229c-5.16068,-1.13832 -11.34747,-8.19799 -15.0277,-13.27951c-1.87224,-4.63513 -2.22538,-4.18513 1.39485,-8.21242c3.25253,-3.36766 8.41485,-7.84866 12.34628,-10.32861c0.30735,-0.1939 0.95029,-0.62375 1.13161,-0.6872c3.9621,-0.08155 5.24838,0.38606 7.85103,2.45316c0.26692,0.21208 4.10149,4.8669 5.44989,8.41996c1.55876,3.78009 2.73816,2.93981 2.20202,6.58835c-0.39769,2.71062 -5.02675,4.74013 -7.25535,5.70904z" data-paper-data="{&quot;index&quot;:null}" fill="#3e3e3e" stroke="#000000" stroke-width="1.5" stroke-linecap="round"/><path d="M225.77626,144.00471c0,0 1.51803,2.30336 1.95383,2.96462c0.20093,0.30488 -0.01012,1.22126 -0.49544,1.54111c-0.79438,0.52354 -3.13142,2.06379 -4.3896,2.89298c-0.46055,0.30355 -1.24621,0.01975 -1.47524,-0.32776c-0.44888,-0.68113 -1.9146,-2.90504 -1.9146,-2.90504z" data-paper-data="{&quot;index&quot;:null}" fill="#282828" stroke="#000000" stroke-width="1" stroke-linecap="butt"/><path d="M237.39967,164.86153c2.44313,-1.61016 7.63923,-2.02441 9.45518,0.73096c0.95907,1.45521 1.66726,3.08534 1.80408,4.60062c0.12226,1.35379 -0.24139,2.84881 -1.39422,3.60857c-0.89981,0.59305 -2.57684,1.74494 -4.15009,1.66472c-2.6984,-0.13761 -5.51745,-2.1151 -6.6646,-3.85569c0,0 -1.4935,-5.13901 0.94965,-6.74917z" data-paper-data="{&quot;index&quot;:null}" fill="#151515" stroke="#000000" stroke-width="1.5" stroke-linecap="butt"/><path d="M236.79732,171.52144c-1.41137,-2.1415 -1.02044,-4.88923 0.87319,-6.13724c1.89363,-1.248 4.57285,-0.52366 5.98423,1.61786c1.41137,2.1415 1.02041,4.88924 -0.8732,6.13722c-1.89362,1.24801 -4.57282,0.52366 -5.9842,-1.61786z" data-paper-data="{&quot;index&quot;:null}" fill="#313131" stroke="#000000" stroke-width="1.5" stroke-linecap="butt"/><g data-paper-data="{&quot;index&quot;:null}" stroke="#000000" stroke-width="1" stroke-linecap="butt"><path d="M243.41745,142.49555c0.66203,1.00453 3.35725,5.20818 3.35725,5.20818l-4.50963,2.97208c0,0 -2.73171,-4.14492 -3.40972,-5.17362c-0.29574,-0.44873 -0.20434,-1.18513 0.28502,-1.50764c0.94338,-0.62174 2.3842,-1.50463 2.86229,-1.81967c0.27806,-0.18326 1.14272,-0.09211 1.41478,0.32067z" fill="url(#color-11)"/><path d="M246.09055,145.75266c0,0 1.0979,1.66586 1.41312,2.14415c0.14533,0.22049 -0.06773,0.92312 -0.47032,1.18843c-0.659,0.43431 -2.59773,1.71204 -3.64148,2.39993c-0.38204,0.2518 -0.99466,0.07581 -1.16034,-0.17555c-0.32467,-0.49262 -1.38472,-2.10109 -1.38472,-2.10109z" fill="#282828"/></g><path d="M252.92516,186.19991c-1.184,0.58952 -2.56149,0.52531 -3.82738,-0.05289c-1.26754,-0.5821 -2.42358,-1.67851 -3.16785,-3.15191c-0.74423,-1.47345 -0.9379,-3.04899 -0.64967,-4.40565c0.29022,-1.35331 1.06247,-2.48744 2.24644,-3.07695c1.18425,-0.58964 2.56163,-0.52578 3.8274,0.05288c1.26779,0.58196 2.42357,1.6785 3.16781,3.1519c0.74423,1.47345 0.9382,3.04883 0.64967,4.40565c-0.29009,1.35287 -1.06216,2.48732 -2.24642,3.07696z" data-paper-data="{&quot;index&quot;:null}" fill="#000000" stroke="#000000" stroke-width="2" stroke-linecap="butt"/><path d="M261.07109,154.93468c0,0 -0.70786,-2.25898 -3.45134,-7.03872c-0.12155,-1.40607 -1.47597,-4.2262 -0.31454,-10.64365c0.96513,-5.33282 14.57516,-1.86629 14.81589,-3.55674" data-paper-data="{&quot;index&quot;:null}" fill="none" stroke="#121212" stroke-width="10" stroke-linecap="round"/><path d="M251.83486,185.73978c-0.98011,0.47135 -2.14423,0.3722 -3.23051,-0.16726c-1.08779,-0.54284 -2.09789,-1.52619 -2.77253,-2.82191c-0.67467,-1.29577 -0.88807,-2.6622 -0.68806,-3.8244c0.20184,-1.15922 0.81729,-2.11386 1.79734,-2.58524c0.98031,-0.47149 2.14431,-0.37255 3.23051,0.16726c1.08801,0.54275 2.09789,1.5262 2.77257,2.82191c0.67466,1.29578 0.88836,2.66211 0.68805,3.82442c-0.20177,1.15883 -0.81703,2.11376 -1.79734,2.58524z" data-paper-data="{&quot;index&quot;:null}" fill="url(#color-12)" stroke="#000000" stroke-width="2" stroke-linecap="butt"/><path d="M266.08063,172.86683c0,0 -12.09015,-17.06303 -11.46608,-17.23048c0.97088,-0.26048 1.16942,0.59054 2.95207,-0.20503c0.96256,-0.4296 2.82759,-2.22937 4.63415,-2.76211c1.3263,-0.39112 13.89056,18.13842 13.89056,18.13842c0,0 3.04354,6.51737 -6.02799,15.1884c-12.08308,8.06105 -16.99866,3.26126 -16.99866,3.26126c0,0 1.08934,-2.55953 3.06066,-7.33139c1.96122,-4.74739 7.87973,-7.87568 7.87973,-7.87568z" data-paper-data="{&quot;index&quot;:null}" fill="#1e1e1e" stroke="#000000" stroke-width="1.5" stroke-linecap="butt"/><path d="M259.32974,176.51158c-1.184,0.58952 -2.56148,0.5253 -3.82739,-0.05289c-1.26754,-0.5821 -2.42357,-1.67852 -3.16785,-3.15191c-0.74423,-1.47345 -0.93787,-3.04896 -0.64967,-4.40565c0.29022,-1.35331 1.06244,-2.48744 2.24643,-3.07697c1.18425,-0.58964 2.56163,-0.52578 3.82739,0.05289c1.26779,0.58196 2.42355,1.6785 3.16782,3.1519c0.74423,1.47345 0.93823,3.04884 0.64969,4.40567c-0.29009,1.35287 -1.06219,2.48732 -2.24642,3.07695z" data-paper-data="{&quot;index&quot;:null}" fill="#000000" stroke="#000000" stroke-width="2" stroke-linecap="butt"/><path d="M257.75095,176.04147c-0.98011,0.47135 -2.14423,0.3722 -3.23051,-0.16726c-1.08779,-0.54284 -2.09789,-1.5262 -2.77255,-2.82192c-0.67466,-1.29578 -0.88807,-2.66223 -0.68806,-3.8244c0.20184,-1.15922 0.81729,-2.11386 1.79734,-2.58524c0.98031,-0.47149 2.14431,-0.37255 3.23051,0.16726c1.08801,0.54275 2.09789,1.52618 2.77256,2.82191c0.67466,1.29578 0.88836,2.66211 0.68805,3.82442c-0.20177,1.15883 -0.81703,2.11376 -1.79734,2.58524z" data-paper-data="{&quot;index&quot;:null}" fill="url(#color-13)" stroke="#000000" stroke-width="2" stroke-linecap="butt"/><path d="M254.13847,177.38014c-1.46289,-0.68833 -2.80396,-1.9699 -3.67665,-3.68231c-0.87266,-1.71244 -1.11417,-3.53628 -0.79965,-5.10127c0.31692,-1.56103 1.46316,-2.49189 2.81584,-3.15906c1.35303,-0.66731 2.6627,-0.94771 4.12353,-0.26337c1.46317,0.68817 2.80395,1.9699 3.67665,3.68231c0.87266,1.71244 1.04631,3.4434 0.73136,5.00855c-0.31679,1.56052 -1.53109,2.39905 -2.8841,3.06635c0,0 -2.52603,1.13263 -3.987,0.44883z" data-paper-data="{&quot;index&quot;:null}" fill="url(#color-14)" stroke="#000000" stroke-width="0" stroke-linecap="butt"/><path d="M247.97993,186.85674c-1.42641,-0.7342 -2.76021,-2.0456 -3.66348,-3.76085c-0.90325,-1.7153 -1.20755,-3.5145 -0.96974,-5.03735c0.24024,-1.5189 1.29878,-2.38612 2.56531,-2.98633c1.26683,-0.60034 2.50782,-0.82277 3.93207,-0.09258c1.42669,0.73408 2.7602,2.04559 3.66347,3.76085c0.90325,1.7153 1.13892,3.42062 0.90074,4.94364c-0.24013,1.51842 -1.36744,2.29227 -2.6343,2.8926c0,0 -2.36968,1.00974 -3.7941,0.28004z" data-paper-data="{&quot;index&quot;:null}" fill="url(#color-15)" stroke="#000000" stroke-width="0" stroke-linecap="butt"/><path d="M263.83377,167.59191l-1.3467,-0.20469" data-paper-data="{&quot;index&quot;:null}" fill="none" stroke="#000000" stroke-width="1" stroke-linecap="round"/><path d="M263.15191,166.89782l-0.12309,1.45752" data-paper-data="{&quot;index&quot;:null}" fill="none" stroke="#000000" stroke-width="1" stroke-linecap="round"/><path d="M254.60704,188.533l-1.2495,-0.54246" data-paper-data="{&quot;index&quot;:null}" fill="none" stroke="#000000" stroke-width="1" stroke-linecap="round"/><path d="M254.00909,188.92526l0.49196,-1.37748" data-paper-data="{&quot;index&quot;:null}" fill="none" stroke="#000000" stroke-width="1" stroke-linecap="round"/><path d="M238.79797,133.70377l1.56488,2.37447l-2.14465,1.41343l-1.56488,-2.37447z" data-paper-data="{&quot;index&quot;:null}" fill="#000000" stroke="none" stroke-width="0" stroke-linecap="butt"/><path d="M229.90442,134.19502c0.91538,1.38893 4.65123,7.19499 4.65123,7.19499l-5.43608,3.58268c0,0 -3.777,-5.73099 -4.71444,-7.15332c-0.40889,-0.62044 -0.35381,-1.5917 0.23609,-1.98046c1.13718,-0.74946 2.87945,-1.80545 3.45573,-2.18526c0.33516,-0.2209 1.43128,-0.02936 1.80745,0.54142z" data-paper-data="{&quot;index&quot;:null}" fill="url(#color-16)" stroke="#000000" stroke-width="1" stroke-linecap="butt"/><path d="M233.53537,138.74137c0,0 1.51802,2.30335 1.95383,2.96462c0.20093,0.30488 -0.01012,1.22127 -0.49544,1.54112c-0.79438,0.52354 -3.13142,2.06379 -4.3896,2.89298c-0.46055,0.30355 -1.24621,0.01975 -1.47524,-0.32776c-0.44888,-0.68113 -1.91459,-2.90505 -1.91459,-2.90505z" data-paper-data="{&quot;index&quot;:null}" fill="#282828" stroke="#000000" stroke-width="1" stroke-linecap="butt"/><path d="M230.93449,139.03594l1.56488,2.37447l-2.14466,1.41344l-1.56488,-2.37447z" data-paper-data="{&quot;index&quot;:null}" fill="#000000" stroke="none" stroke-width="0" stroke-linecap="butt"/><path d="M223.17541,144.29928l1.56488,2.37447l-2.14466,1.41344l-1.56488,-2.37447z" data-paper-data="{&quot;index&quot;:null}" fill="#000000" stroke="none" stroke-width="0" stroke-linecap="butt"/><g data-paper-data="{&quot;index&quot;:null}"><path d="M262.96414,144.9767c0,0 1.68313,1.42261 2.32019,1.96106c0.46457,0.39267 0.81348,1.37176 0.43542,1.81907c-0.91059,1.07734 -2.46166,2.91246 -3.02985,3.5847c-0.39504,0.46739 -1.35239,0.47868 -1.78764,0.11079c-0.64048,-0.54134 -2.48289,-2.09858 -2.48289,-2.09858z" fill="#282828" stroke="none" stroke-width="0" stroke-linecap="butt"/><path d="M251.03485,149.69779l2.97,2.51029l-2.62909,3.11055l-2.97,-2.51029z" fill="#505050" stroke="none" stroke-width="0" stroke-linecap="butt"/><path d="M257.43206,151.40251c0,0 1.94291,1.64218 2.59286,2.19153c0.37868,0.32007 0.57716,1.25297 0.1037,1.81312c-0.91895,1.08724 -2.3181,2.74261 -2.84974,3.37162c-0.38404,0.45437 -1.46891,0.57018 -1.8476,0.25012c-0.64996,-0.54936 -2.59286,-2.19153 -2.59286,-2.19153z" fill="#282828" stroke="#000000" stroke-width="0.5" stroke-linecap="butt"/><path d="M255.14239,152.44091l2.00023,1.69063l-1.56378,1.85016l-2.00023,-1.69063z" fill="#000000" stroke="none" stroke-width="0" stroke-linecap="butt"/><path d="M266.40755,152.63871c0.58272,-0.39946 1.25831,-0.6191 1.94408,-0.652" fill="none" stroke="#ff9319" stroke-width="3" stroke-linecap="butt"/><path d="M263.07491,155.34176c0.19024,-0.72785 0.44481,-1.47768 0.7628,-2.23552" fill="none" stroke="#000000" stroke-width="3" stroke-linecap="butt"/><path d="M256.95058,131.03284c0,0 0.98884,2.37231 1.42669,4.10259c0.22283,0.88062 0.97716,1.76983 1.16957,2.13205c0.43344,0.81602 1.86163,2.44042 1.86163,2.44042c0,0 3.31738,3.16993 3.02871,3.44313c-0.89021,0.8425 -4.92283,5.89771 -4.92283,5.89771c0,0 -6.15727,-6.09099 -6.53716,-6.72661c-0.22301,-0.37313 -1.24828,-1.85399 -1.6832,-3.36562c-0.56654,-1.96915 -1.27124,-3.94227 -1.27124,-3.94227z" fill="url(#color-17)" stroke="#000000" stroke-width="1.5" stroke-linecap="butt"/><path d="M271.4105,148.37603l1.09339,0.92414l-13.96165,16.51846l-1.09339,-0.92414z" fill="#888888" stroke="#000000" stroke-width="0.5" stroke-linecap="butt"/><path d="M295.77277,116.28435l-12.63465,14.94844l-2.01374,-1.70204l12.53346,-14.87525z" fill="#888888" stroke="#000000" stroke-width="1.5" stroke-linecap="round"/><path d="M266.95886,142.67261l5.60278,4.73556l-15.08497,17.84748l-5.60278,-4.73555z" fill="url(#color-18)" stroke="#000000" stroke-width="1" stroke-linecap="butt"/><path d="M264.5938,142.86871l2.26497,1.57652l-5.26691,6.23144l-2.07653,-1.89925z" fill="#767676" stroke="#000000" stroke-width="1.5" stroke-linecap="butt"/><path d="M258.42332,146.805l3.5046,2.96214l-9.13261,10.80508c0,0 -1.27664,-1.07903 -1.88052,-1.58944c-0.27469,-0.23217 1.10461,-1.22926 1.25057,-2.20176c0.15222,-1.01434 -0.81939,-1.4292 -0.81939,-1.4292z" fill="url(#color-19)" stroke="#000000" stroke-width="1" stroke-linecap="butt"/><path d="M251.38057,149.61031c0,0 1.8331,-2.16881 2.53582,-3.00022c0.49991,-0.59145 1.9132,-0.98587 2.29868,-0.66004c0.50988,0.43095 1.7764,1.50143 1.7764,1.50143l-3.8191,4.51849l-2.7918,-2.35967z" fill="none" stroke="#000000" stroke-width="2" stroke-linecap="butt"/><path d="M267.03826,145.31907l2.376,2.00823l-5.20282,6.15562l-2.376,-2.00823z" fill="#000000" stroke="none" stroke-width="0" stroke-linecap="butt"/><path d="M258.619,148.19475l1.90079,1.60658l-1.49442,1.7681l-1.90079,-1.60658z" fill="none" stroke="#000000" stroke-width="1" stroke-linecap="butt"/><path d="M259.48249,150.42618c-0.29423,0.34811 -0.82528,0.38304 -1.18614,0.07803c-0.36086,-0.30501 -0.41489,-0.83446 -0.12067,-1.18256c0.29423,-0.3481 0.82528,-0.38304 1.18614,-0.07803c0.36086,0.30501 0.41489,0.83446 0.12067,1.18256z" fill="#9e9e9e" stroke="none" stroke-width="0" stroke-linecap="butt"/><path d="M257.19865,163.2932l13.62401,-15.87801" fill="none" stroke="#000000" stroke-width="1" stroke-linecap="round"/><path d="M255.60923,155.24972c-0.44324,0.52441 -1.16158,0.64608 -1.60446,0.27176c-0.44288,-0.37432 -0.44258,-1.10289 0.00067,-1.62731c0.44323,-0.52441 1.16158,-0.64608 1.60446,-0.27176c0.44288,0.37432 0.44258,1.10289 -0.00067,1.62731z" fill="#858585" stroke="none" stroke-width="0" stroke-linecap="butt"/><path d="M259.19413,154.74329c0,0 1.69975,-0.58416 2.06548,-0.27503c0.34596,0.29241 0.07292,2.08245 0.07292,2.08245l-4.98143,5.89368l-2.1384,-1.80741z" fill="#c7c7c7" stroke="#000000" stroke-width="1" stroke-linecap="butt"/><path d="M254.60941,160.5324l1.7226,1.45597l-0.55349,0.65486l-1.7226,-1.45597z" fill="#888888" stroke="#000000" stroke-width="1" stroke-linecap="butt"/><path d="M255.07528,150.70064c0,0 -1.14091,-0.5949 -1.32024,-1.13261c-0.18542,-0.55603 0.22537,-2.15041 0.22537,-2.15041c0,0 0.58102,0.94015 0.96661,1.26604c0.3658,0.30918 1.29059,0.64177 1.29059,0.64177l-1.16234,1.37519z" fill="#5b5b5b" stroke="none" stroke-width="0" stroke-linecap="butt"/><path d="M268.87757,142.06197l3.96375,3.35022l-0.91502,1.08259l-3.96375,-3.35022z" fill="#5b5b5b" stroke="#000000" stroke-width="1.5" stroke-linecap="butt"/><path d="M296.30262,110.73745l2.71052,2.29098l-3.06869,3.63066l-2.71052,-2.29098z" fill="#393939" stroke="#000000" stroke-width="2" stroke-linecap="butt"/><path d="M281.49174,126.67676l3.20375,2.70786l-1.07375,1.27038l-3.20375,-2.70786z" fill="#000000" stroke="#000000" stroke-width="0.5" stroke-linecap="butt"/><path d="M283.74075,123.94961l7.89782,6.67536l-1.07375,1.27038l-7.89782,-6.67536z" fill="#000000" stroke="#000000" stroke-width="0.5" stroke-linecap="butt"/><path d="M283.61892,130.55413l3.29005,-3.94884l0.89941,0.72194l-3.29005,3.94884z" fill="#000000" stroke="#000000" stroke-width="0.5" stroke-linecap="butt"/><path d="M285.54123,130.14658l3.52274,0.45173l1.04525,1.00398l-5.6351,-0.1932z" fill="#000000" stroke="#000000" stroke-width="0.5" stroke-linecap="butt"/><path d="M259.13347,162.85737l0.92983,0.7859l-2.23826,2.64815l-0.92983,-0.7859z" fill="#000000" stroke="none" stroke-width="0" stroke-linecap="butt"/><path d="M280.21997,127.63731l4.74395,4.00966l-11.7491,13.90072l-4.74395,-4.00966z" fill="#4d4d4d" stroke="#000000" stroke-width="1.5" stroke-linecap="butt"/><path d="M252.58667,160.38439l5.15304,4.35542l-1.25649,1.4866l-5.15304,-4.35542z" fill="#222222" stroke="#000000" stroke-width="1" stroke-linecap="butt"/><path d="M231.90441,172.97474c0.7518,-0.52551 7.09405,2.03535 9.15723,0.77552c5.42431,-3.31217 9.62222,-9.962 9.62222,-9.962l4.44698,3.75866l-14.12517,16.3888c0,0 -9.14845,-8.76244 -9.99269,-9.50414c-0.01336,-0.01174 0.60816,-1.25883 0.89144,-1.45684z" fill="#3a3a3a" stroke="#000000" stroke-width="1.5" stroke-linecap="butt"/><path d="M235.96171,170.6806c0.43183,-0.26741 3.85359,0.19355 5.46865,0.30508c2.33525,-2.32802 4.74071,-5.31441 4.74071,-5.31441l3.29087,2.55187l-7.71443,8.911c0,0 -5.63727,-4.86657 -6.20382,-5.36075c-0.00897,-0.00782 0.2553,-0.99202 0.41802,-1.09279z" fill="#303030" stroke="#000000" stroke-width="1.5" stroke-linecap="butt"/><path d="M262.53654,160.92855l1.61983,1.36911l-3.81115,4.50909l-1.61983,-1.36911z" fill="#888888" stroke="#000000" stroke-width="1" stroke-linecap="butt"/><path d="M260.7646,164.28394c0.33696,0.2848 0.35559,0.81682 0.04161,1.18829c-0.31398,0.37147 -0.84166,0.44175 -1.17862,0.15695c-0.33695,-0.2848 -0.35559,-0.81682 -0.04161,-1.18829c0.31398,-0.37147 0.84166,-0.44174 1.17862,-0.15693z" fill="#575757" stroke="#000000" stroke-width="1" stroke-linecap="butt"/><path d="M261.84012,164.95595l1.74132,1.47179l-0.51658,0.61118l-1.74132,-1.47179z" fill="#575757" stroke="#000000" stroke-width="1" stroke-linecap="butt"/><path d="M263.51129,159.89931l0.42039,0.35531l-0.91732,1.0853l-0.42039,-0.35531z" fill="#575757" stroke="#000000" stroke-width="0.5" stroke-linecap="butt"/><path d="M264.98672,158.24159l0.42039,0.35531l-0.91732,1.0853l-0.42039,-0.35531z" fill="#575757" stroke="#000000" stroke-width="0.5" stroke-linecap="butt"/><path d="M266.54663,156.32441l0.42039,0.35531l-0.91732,1.08531l-0.42039,-0.35531z" fill="#575757" stroke="#000000" stroke-width="0.5" stroke-linecap="butt"/><path d="M267.98677,154.63686l0.42039,0.35531l-0.91732,1.08531l-0.42039,-0.35531z" fill="#575757" stroke="#000000" stroke-width="0.5" stroke-linecap="butt"/><path d="M269.4004,152.96434l0.42039,0.35531l-0.91732,1.0853l-0.42039,-0.35531z" fill="#575757" stroke="#000000" stroke-width="0.5" stroke-linecap="butt"/><path d="M270.84054,151.27681l0.42039,0.35532l-0.91732,1.0853l-0.42039,-0.35532z" fill="#575757" stroke="#000000" stroke-width="0.5" stroke-linecap="butt"/><path d="M272.2662,149.56185l0.42039,0.35532l-0.91732,1.0853l-0.42039,-0.35532z" fill="#575757" stroke="#000000" stroke-width="0.5" stroke-linecap="butt"/><path d="M260.94013,143.41368l2.47087,2.08842l-1.1188,1.32368l-2.47087,-2.08842z" fill="#585858" stroke="#000000" stroke-width="1.5" stroke-linecap="butt"/><path d="M252.33732,162.02798l3.99722,3.37851l-1.52575,1.80516l-3.99722,-3.37851z" fill="#c7c7c7" stroke="#000000" stroke-width="1" stroke-linecap="butt"/><path d="M241.88631,147.7151l9.62296,2.04312c0,0 2.59693,1.7517 2.24465,2.53669c-0.35543,0.79197 -2.27304,2.95604 -2.27304,2.95604l-11.70784,-2.35717z" fill="#262626" stroke="#000000" stroke-width="2" stroke-linecap="butt"/></g><path d="M273.29086,140.3812c-2.00767,-0.85505 -3.08106,-1.83077 -3.05835,-3.33102c0.00805,-0.53077 0.15329,-1.1272 0.44286,-1.80711c0.56529,-1.3273 1.8041,-4.5521 2.90626,-5.39987c1.05847,-0.81419 3.39218,-0.12219 4.72367,0.44488c2.71794,1.15755 2.79154,4.57557 1.68336,7.17753c-1.10816,2.60195 -3.97986,4.07325 -6.69781,2.91568z" data-paper-data="{&quot;index&quot;:null}" fill="#000000" stroke="url(#color-20)" stroke-width="0" stroke-linecap="butt"/><path d="M218.48718,158.80238c0,0 2.52508,-2.39091 5.74053,-3.31151c4.37035,-1.25126 16.00755,-1.35117 16.00755,-1.35117" fill="none" stroke="#121212" stroke-width="10" stroke-linecap="round"/><path d="M245.61219,158.71087c-2.76202,1.04804 -5.31816,0.96379 -6.32153,-1.68036c-0.51184,-1.34881 -1.68315,-4.7166 -1.47558,-6.09154c0.1993,-1.32042 3.0682,-2.46739 4.42129,-2.98083c2.76202,-1.04804 5.18292,1.3659 6.18627,4.0101c1.00336,2.64415 -0.04842,5.69463 -2.81043,6.74265z" data-paper-data="{&quot;index&quot;:null}" fill="#000000" stroke="url(#color-21)" stroke-width="0" stroke-linecap="butt"/></g></g></svg>