<svg version="1.1" xmlns="http://www.w3.org/2000/svg" xmlns:xlink="http://www.w3.org/1999/xlink" width="210.91707" height="110.15027" viewBox="0,0,210.91707,110.15027"><g transform="translate(-160.29464,-203.03515)"><g data-paper-data="{&quot;isPaintingLayer&quot;:true}" fill="#000000" fill-rule="nonzero" stroke="#0a0a0a" stroke-width="0" stroke-linecap="butt" stroke-linejoin="miter" stroke-miterlimit="10" stroke-dasharray="" stroke-dashoffset="0" style="mix-blend-mode: normal"><path d="M364.79173,257.1038l3.95595,-2.01287l-3.81685,-2.436l3.82083,-2.10941l-3.91127,-2.44489l3.95158,-2.93411l-4.12735,-2.73497l4.49612,-2.35139l-4.87287,-3.09403l4.89627,-2.20467l-4.08709,-3.09811l4.36993,-2.20622l-4.48054,-2.33069l4.37041,-2.61153l-4.88665,-2.70951l4.96174,-2.46638l-4.71013,-3.08567l4.66238,-2.46624l-4.50486,-2.95809l4.63023,-2.21841l-4.14294,-3.25214l5.84509,-2.34332v56.42448z" data-paper-data="{&quot;index&quot;:null}"/><path d="M364.79173,310.8296l3.95595,-2.01287l-3.81685,-2.436l3.82083,-2.10941l-3.91127,-2.44489l3.95158,-2.93411l-4.12735,-2.73498l4.49612,-2.35139l-4.87287,-3.09403l4.89627,-2.20467l-4.08709,-3.09811l4.36993,-2.20622l-4.48054,-2.33069l4.37041,-2.61154l-4.88665,-2.7095l4.96174,-2.46638l-4.71013,-3.08567l4.66238,-2.46624l-4.50486,-2.95809l4.63023,-2.21841l-4.14294,-3.25214l5.84509,-2.34332v56.42448z" data-paper-data="{&quot;index&quot;:null}"/><path d="M160.29464,307.52776v-50.57034l7.53348,2.1002l-5.33966,2.91473l5.9677,1.98824l-5.80612,2.65118l6.00914,2.21036l-6.07068,2.76553l6.39497,2.21049l-6.29819,2.42838l5.63284,2.34058l-5.77478,2.08888l5.63222,1.97731l-5.26767,2.77668l6.31059,1.97593l-6.28043,2.77301l5.79486,2.10744l-5.31957,2.45121l5.09302,2.62969l-5.04107,2.19124l4.92451,1.89056l-4.91937,2.18326l5.09865,1.80403z"/></g></g></svg>