<svg version="1.1" xmlns="http://www.w3.org/2000/svg" xmlns:xlink="http://www.w3.org/1999/xlink" width="63.34076" height="59.53814" viewBox="0,0,63.34076,59.53814"><g transform="translate(-420.8702,-182.33942)"><g data-paper-data="{&quot;isPaintingLayer&quot;:true}" fill="none" fill-rule="nonzero" stroke-width="3" stroke-linecap="round" stroke-linejoin="miter" stroke-miterlimit="10" stroke-dasharray="" stroke-dashoffset="0" style="mix-blend-mode: normal"><g><g><path d="M422.3702,189.02692l21.60758,30.8717l-10.34318,-9.67617" stroke="#5100a4"/><path d="M425.62682,189.49989l21.40409,31.31572l-10.15616,-9.76301" stroke="#000000"/></g><g data-paper-data="{&quot;index&quot;:null}"><path d="M443.65784,202.56499l5.6284,13.37024l-21.34047,-31.10073" stroke="#5100a4"/><path d="M443.51688,206.20694l5.78939,13.24581l-21.7783,-30.99487" stroke="#000000"/></g></g><g><g><path d="M471.78944,186.8367l2.03536,37.6272l-3.66962,-13.68004" stroke="#5100a4"/><path d="M474.30454,188.95887l1.628,37.89668l-3.46491,-13.65498" stroke="#000000"/></g><g data-paper-data="{&quot;index&quot;:null}"><path d="M482.71096,209.57784l-2.28514,14.32551l-1.68757,-37.68054" stroke="#5100a4"/><path d="M480.66712,212.59557l-2.08269,14.30492l-2.11523,-37.82198" stroke="#000000"/></g></g><g><g><path d="M476.78532,209.19363l-34.93355,14.12787l11.75064,-7.90772" stroke="#5100a4"/><path d="M475.59353,212.26112l-35.32056,13.82993l11.79331,-7.70597" stroke="#000000"/></g><g data-paper-data="{&quot;index&quot;:null}"><path d="M458.81509,226.89999l-14.29233,2.48415l35.09679,-13.81616" stroke="#5100a4"/><path d="M455.29761,225.94527l-14.2072,2.66895l35.09191,-14.26657" stroke="#000000"/></g></g><g><g><path d="M428.17713,192.89268l37.66884,1.00373l-13.93128,2.55517" stroke="#5100a4"/><path d="M430.49509,190.55677l37.90462,1.43147l-13.88981,2.35315" stroke="#000000"/></g><g data-paper-data="{&quot;index&quot;:null}"><path d="M451.72451,183.83943l14.09474,3.43223l-37.69397,-1.3547" stroke="#5100a4"/><path d="M454.56778,186.11979l14.09053,3.22878l-37.86941,-0.93982" stroke="#000000"/></g></g></g></g></svg>