<svg version="1.1" xmlns="http://www.w3.org/2000/svg" xmlns:xlink="http://www.w3.org/1999/xlink" width="110.44427" height="94.7899" viewBox="0,0,110.44427,94.7899"><g transform="translate(-184.84279,-136.81892)"><g data-paper-data="{&quot;isPaintingLayer&quot;:true}" fill-rule="nonzero" stroke-linecap="butt" stroke-linejoin="miter" stroke-miterlimit="10" stroke-dasharray="" stroke-dashoffset="0" style="mix-blend-mode: normal"><path d="M232.06357,206.02095v-21.32821h53.48257v21.32821z" fill="#fafafa" stroke="#b7b1ab" stroke-width="6"/><path d="M232.06357,183.90823v-21.32822h53.48257v21.32822z" fill="#fafafa" stroke="#b7b1ab" stroke-width="6"/><path d="M188.84281,221.61355c0,-16.94493 1.1089,-64.59043 1.1089,-74.29741c0,-3.37221 2.02571,-6.49722 4.49181,-6.49722c9.66662,0 70.33622,0 90.07627,0c3.76128,0 5.97216,2.77864 5.97216,4.52471c0,2.39987 0.66534,29.48207 0.66534,29.48207c0,0 -45.23317,-11.99155 -45.43544,8.98165c-0.20972,21.74499 45.43544,9.63915 45.43544,9.63915c0,0 0,25.12973 0,27.8383c0,2.28625 -2.51785,6.32402 -6.74728,6.32402c-20.21559,0 -79.53387,0 -89.91274,0c-3.03547,0 -5.65448,-2.24622 -5.65448,-5.99528z" fill="#faa51f" stroke="#8e5322" stroke-width="8"/><path d="M221.36939,163.73364c0,-5.88272 5.98624,-10.65159 13.37064,-10.65159c7.38441,0 13.37064,4.76888 13.37064,10.65159c0,5.88272 -5.98624,10.65159 -13.37064,10.65159c-7.38441,0 -13.37064,-4.76888 -13.37064,-10.65159z" fill="#ffffff" stroke="none" stroke-width="0"/><path d="M227.76406,163.73364c0,-3.06924 3.12326,-5.55735 6.976,-5.55735c3.85274,0 6.97599,2.48811 6.97599,5.55735c0,3.06924 -3.12325,5.55736 -6.97599,5.55736c-3.85274,0 -6.976,-2.48812 -6.976,-5.55736z" fill="#000000" stroke="none" stroke-width="0"/></g></g></svg>