<svg version="1.1" xmlns="http://www.w3.org/2000/svg" xmlns:xlink="http://www.w3.org/1999/xlink" width="104.54822" height="98.78195" viewBox="0,0,104.54822,98.78195"><g transform="translate(-187.72592,-132.82689)"><g data-paper-data="{&quot;isPaintingLayer&quot;:true}" fill-rule="nonzero" stroke-linecap="butt" stroke-linejoin="miter" stroke-miterlimit="10" stroke-dasharray="" stroke-dashoffset="0" style="mix-blend-mode: normal"><path d="M233.31405,218.55464v-36.26335h49.7728v36.26335z" fill="#fafafa" stroke="#b7b1ab" stroke-width="6"/><path d="M233.31405,181.93921v-36.26336h49.7728v36.26336z" fill="#fafafa" stroke="#b7b1ab" stroke-width="6"/><path d="M191.72593,221.33779c0,-17.72434 0,-67.56137 0,-77.71484c0,-3.52732 1.91155,-6.79606 4.23866,-6.79606c9.12183,0 68.04642,0 86.67397,0c3.5493,0 5.63558,2.90645 5.63558,4.73284c0,2.51024 0,22.2574 0,22.2574c0,0 -39.49699,-8.73179 -39.49699,17.97552c0,28.0828 39.49699,18.66326 39.49699,18.66326c0,0 0,17.70486 0,20.53802c0,2.39141 -2.37595,6.61491 -6.36701,6.61491c-19.07627,0 -75.05147,0 -84.84541,0c-2.8644,0 -5.3358,-2.34954 -5.3358,-6.27104z" fill="#faa51f" stroke="#8e5322" stroke-width="8"/><path d="M222.62865,161.92942c0,-6.55205 5.64887,-11.86354 12.6171,-11.86354c6.96823,0 12.6171,5.31149 12.6171,11.86354c0,6.55205 -5.64887,11.86354 -12.6171,11.86354c-6.96823,0 -12.6171,-5.31149 -12.6171,-11.86354z" fill="#ffffff" stroke="none" stroke-width="0"/><path d="M228.66291,161.92942c0,-3.41847 2.94724,-6.18968 6.58284,-6.18968c3.6356,0 6.58283,2.77121 6.58283,6.18968c0,3.41847 -2.94723,6.18969 -6.58283,6.18969c-3.6356,0 -6.58284,-2.77122 -6.58284,-6.18969z" fill="#000000" stroke="none" stroke-width="0"/></g></g></svg>